# https://github.com/mikedh/trimesh
v 0.33917050 -0.31499475 0.10938825
v 0.34756400 -0.32144351 0.09967700
v 0.31940800 -0.30737600 0.12694199
v 0.30570400 -0.30456001 0.13689899
v 0.29951501 -0.31720701 0.14428800
v 0.12554825 -0.38718087 0.14954201
v 0.21136956 -0.37060475 0.15928113
v 0.25194276 -0.35697600 0.15905750
v 0.28860300 -0.33111101 0.15088813
v 0.27962500 -0.34103900 0.15405199
v 0.27021101 -0.34906101 0.15558600
v 0.27528000 -0.34623501 0.15418600
v 0.14497825 -0.38037349 0.14768750
v 0.13780800 -0.37979200 0.14743599
v 0.15647980 -0.38101430 0.14877224
v 0.16489999 -0.38214801 0.14881900
v 0.09603700 -0.39521900 0.13241600
v 0.10727700 -0.39268401 0.14024900
v 0.10627200 -0.39476499 0.13788000
v 0.35022463 -0.33765099 0.09696475
v 0.34904737 -0.33033135 0.09900101
v 0.34477208 -0.32510728 0.10441629
v 0.35120000 -0.33003850 0.09539600
v 0.34583763 -0.33275539 0.10352268
v 0.34317459 -0.33864263 0.10683435
v 0.33896356 -0.33045297 0.11159052
v 0.33342461 -0.32667893 0.11749737
v 0.33744352 -0.31614889 0.11178375
v 0.33256714 -0.34360743 0.11751522
v 0.33674827 -0.35311114 0.11193178
v 0.32524212 -0.32089739 0.12448523
v 0.32737275 -0.31442053 0.12175368
v 0.32227183 -0.34213059 0.12632357
v 0.32470586 -0.35861171 0.12172033
v 0.34233000 -0.34992550 0.10617650
v 0.31605916 -0.32811817 0.13168628
v 0.30638587 -0.33360475 0.13782146
v 0.33440987 -0.36214562 0.11208725
v 0.31080663 -0.34810703 0.13348678
v 0.30557855 -0.31368774 0.13874572
v 0.30531966 -0.31948414 0.13911739
v 0.30639733 -0.32286105 0.13802749
v 0.30298183 -0.32836886 0.13976432
v 0.29860638 -0.32221667 0.14524308
v 0.30842370 -0.30627914 0.13524354
v 0.31830189 -0.35973144 0.12648922
v 0.32490101 -0.36987799 0.11860600
v 0.30864585 -0.37615706 0.12867137
v 0.31169725 -0.38574233 0.12362658
v 0.30130134 -0.33163745 0.13997085
v 0.31941000 -0.37640700 0.12102200
v 0.30400470 -0.35951211 0.13554193
v 0.28728660 -0.33461052 0.15139272
v 0.30047452 -0.38081131 0.13222034
v 0.29255979 -0.36266413 0.14072404
v 0.29265613 -0.38528805 0.13471212
v 0.29325849 -0.35566230 0.14130559
v 0.29368950 -0.33398401 0.14601144
v 0.29169649 -0.37085201 0.13926273
v 0.28776513 -0.37089257 0.14105843
v 0.27614771 -0.38145525 0.14274479
v 0.28383234 -0.39227779 0.13611147
v 0.29507787 -0.40482411 0.12541232
v 0.27364903 -0.36973951 0.14645192
v 0.30689687 -0.39438675 0.12301175
v 0.29523859 -0.33947612 0.14152657
v 0.28661146 -0.34886196 0.14319254
v 0.27008425 -0.37559725 0.14632062
v 0.29224563 -0.35291250 0.14189714
v 0.27553521 -0.40943535 0.13147412
v 0.28778191 -0.41654173 0.12303269
v 0.27264298 -0.35927385 0.14514350
v 0.27106516 -0.39452702 0.13988172
v 0.26648974 -0.40176655 0.13844330
v 0.29774001 -0.41744199 0.11713500
v 0.29172900 -0.41792801 0.12001800
v 0.24346281 -0.39432202 0.14746649
v 0.25041430 -0.38619758 0.14911489
v 0.26448910 -0.38678351 0.14490662
v 0.28490673 -0.35117257 0.14305781
v 0.25728377 -0.40317746 0.14038453
v 0.27262500 -0.41895825 0.12828725
v 0.24734039 -0.38250466 0.15037429
v 0.24003190 -0.38637086 0.15078614
v 0.27993216 -0.41764433 0.12523230
v 0.26449946 -0.41817154 0.13003572
v 0.22385698 -0.38972533 0.15230174
v 0.24366434 -0.40526507 0.14229425
v 0.24711457 -0.41852012 0.13342898
v 0.22132780 -0.39782679 0.14958583
v 0.20519329 -0.39341032 0.15313430
v 0.19218417 -0.39453898 0.15325396
v 0.26689647 -0.35470714 0.15371282
v 0.23248105 -0.41895226 0.13531073
v 0.25387309 -0.36845903 0.14861129
v 0.22758786 -0.41849944 0.13625228
v 0.17533888 -0.39417094 0.15317933
v 0.20513191 -0.40162725 0.14897024
v 0.19240886 -0.39783110 0.15158949
v 0.21817939 -0.41839212 0.13673739
v 0.20973546 -0.41828957 0.13717706
v 0.18246999 -0.41763499 0.13805100
v 0.16001500 -0.41522500 0.13736300
v 0.16408774 -0.41484924 0.13708086
v 0.14374319 -0.39286497 0.15116348
v 0.18784973 -0.40258820 0.14854849
v 0.17201606 -0.39827856 0.15104987
v 0.18548229 -0.40674498 0.14554780
v 0.16234358 -0.40116918 0.14786980
v 0.23497958 -0.36648048 0.15799717
v 0.26206972 -0.36530788 0.14640394
v 0.24869216 -0.37121463 0.14789240
v 0.12744791 -0.39103352 0.14861759
v 0.14978888 -0.39762408 0.14863666
v 0.14643205 -0.40314643 0.14356448
v 0.14711458 -0.41194658 0.13604825
v 0.14365837 -0.41126296 0.13577597
v 0.13433648 -0.40957893 0.13497898
v 0.11715100 -0.40600801 0.13367200
v 0.12545168 -0.40734120 0.13398352
v 0.12184180 -0.40603547 0.13364262
v 0.20437211 -0.37563470 0.15583019
v 0.21901483 -0.37161920 0.15740347
v 0.22928715 -0.37748980 0.14894972
v 0.23471841 -0.37598309 0.14871844
v 0.19190879 -0.38252162 0.14966901
v 0.12374719 -0.39951350 0.14043586
v 0.10787700 -0.40315500 0.13276900
v 0.22152873 -0.37924405 0.14929888
v 0.23786200 -0.38277034 0.15116335
v 0.20557511 -0.38171393 0.14951883
v 0.24135841 -0.38091888 0.15080387
v 0.25009298 -0.37827125 0.15009326
v 0.25171744 -0.37471566 0.14903709
v 0.26787503 -0.36267208 0.14571809
v 0.21180665 -0.38891278 0.15290396
v 0.14941561 -0.38533184 0.15034464
v 0.13716373 -0.38650309 0.15093789
v 0.27601397 -0.36447096 0.14600792
v 0.14782725 -0.39004557 0.15203777
v 0.19336893 -0.39179403 0.15334229
v 0.26169027 -0.37361534 0.14876324
v 0.27953741 -0.35521241 0.14395903
v 0.16135281 -0.39347610 0.15261971
v 0.27371361 -0.42111806 0.13190594
f 6 105 140
f 140 105 144
f 140 144 97
f 97 144 107
f 92 97 107
f 92 107 99
f 99 107 98
f 98 107 106
f 106 107 108
f 108 107 102
f 101 108 102
f 98 108 101
f 100 98 101
f 100 101 94
f 94 96 100
f 96 98 100
f 98 96 90
f 90 91 98
f 87 91 90
f 130 91 87
f 130 136 91
f 131 136 130
f 131 126 136
f 126 16 136
f 136 16 137
f 136 137 140
f 137 138 140
f 136 140 141
f 137 16 15
f 13 137 15
f 13 14 137
f 14 6 137
f 130 129 131
f 129 130 132
f 132 130 83
f 133 132 83
f 133 134 132
f 142 134 133
f 142 111 134
f 135 111 142
f 139 135 142
f 139 142 64
f 64 142 78
f 142 83 78
f 83 84 78
f 83 87 84
f 84 87 78
f 64 78 68
f 78 61 68
f 78 79 61
f 79 78 77
f 77 81 79
f 79 81 74
f 70 74 81
f 70 81 82
f 81 86 82
f 81 89 86
f 81 88 89
f 88 94 89
f 88 96 94
f 70 82 85
f 70 85 71
f 62 70 71
f 56 62 71
f 56 71 63
f 63 71 76
f 76 71 145
f 63 76 75
f 65 63 75
f 54 63 65
f 49 54 65
f 49 65 51
f 46 49 51
f 46 51 47
f 34 46 47
f 38 34 47
f 30 34 38
f 30 38 35
f 25 30 35
f 25 35 20
f 25 20 21
f 24 25 21
f 22 25 24
f 26 25 22
f 25 26 29
f 26 27 29
f 27 33 29
f 33 34 29
f 27 31 33
f 36 33 31
f 36 37 33
f 36 42 37
f 50 37 42
f 50 66 37
f 58 66 50
f 58 53 66
f 67 66 53
f 10 67 53
f 67 10 12
f 12 93 67
f 67 93 72
f 93 95 72
f 93 8 95
f 8 110 95
f 95 110 112
f 112 110 125
f 110 123 125
f 125 123 124
f 124 123 129
f 123 122 129
f 122 131 129
f 122 126 131
f 122 123 7
f 7 123 110
f 111 95 112
f 95 111 135
f 8 7 110
f 11 8 93
f 72 95 135
f 12 11 93
f 43 53 58
f 44 53 43
f 44 9 53
f 9 10 53
f 44 5 9
f 40 5 44
f 40 44 41
f 40 41 42
f 41 43 42
f 45 5 40
f 45 40 32
f 32 3 45
f 4 45 3
f 1 3 32
f 1 32 28
f 32 27 28
f 28 27 22
f 28 22 1
f 2 1 22
f 22 21 2
f 2 21 23
f 32 40 31
f 4 5 45
f 44 43 41
f 43 58 50
f 42 43 50
f 37 66 69
f 66 67 69
f 69 67 139
f 69 139 55
f 57 69 55
f 37 57 55
f 37 55 52
f 55 54 52
f 55 56 54
f 55 59 56
f 59 60 56
f 56 60 61
f 64 61 60
f 64 60 55
f 55 60 59
f 52 54 48
f 46 52 48
f 39 52 46
f 46 33 39
f 39 37 52
f 37 69 57
f 36 40 42
f 37 39 33
f 40 36 31
f 32 31 27
f 22 27 26
f 22 24 21
f 21 20 23
f 29 30 25
f 30 29 34
f 33 46 34
f 48 49 46
f 48 54 49
f 54 56 63
f 56 61 62
f 62 74 70
f 73 74 62
f 79 73 62
f 79 74 73
f 77 88 81
f 77 90 88
f 78 90 77
f 61 79 62
f 64 68 61
f 55 139 64
f 139 72 135
f 143 72 139
f 139 80 143
f 143 67 72
f 80 67 143
f 134 111 112
f 112 125 134
f 134 125 132
f 125 124 132
f 133 83 142
f 124 129 132
f 136 141 91
f 91 141 92
f 130 87 83
f 87 90 78
f 88 90 96
f 107 109 102
f 105 109 107
f 109 105 114
f 109 114 115
f 114 113 115
f 113 127 115
f 115 127 118
f 118 127 120
f 127 121 120
f 127 119 121
f 127 19 119
f 127 18 19
f 6 18 127
f 19 128 119
f 19 17 128
f 117 115 118
f 117 118 116
f 115 117 116
f 103 115 116
f 6 127 113
f 109 115 103
f 109 103 104
f 105 113 114
f 109 104 102
f 98 106 108
f 91 99 98
f 92 99 91
f 141 97 92
f 141 140 97
f 144 105 107
f 138 6 140
f 105 6 113

