# https://github.com/mikedh/trimesh
v -0.17909325 -0.39356638 -0.17069387
v -0.24291800 -0.33102500 -0.14627799
v -0.20487551 -0.36975250 -0.16542450
v -0.25118349 -0.32861900 -0.14010450
v -0.23406426 -0.34052500 -0.15234175
v -0.25283700 -0.32623300 -0.13858099
v -0.16223601 -0.42032900 -0.16914800
v -0.17478900 -0.42206201 -0.16651800
v -0.32954699 -0.34384400 -0.04479500
v -0.30854700 -0.33668325 -0.07918725
v -0.28791150 -0.32756500 -0.10532800
v -0.34096000 -0.35381600 -0.02420300
v -0.26642062 -0.32619913 -0.12706975
v -0.35340213 -0.37682949 0.00962987
v -0.35129899 -0.39271399 0.01393700
v -0.29648033 -0.40081120 -0.09582493
v -0.29349140 -0.37670766 -0.10300232
v -0.30150750 -0.41714075 -0.08443946
v -0.28747259 -0.42200297 -0.10001000
v -0.30236972 -0.39125118 -0.09051123
v -0.28207153 -0.38656384 -0.11401325
v -0.28043531 -0.42136687 -0.10745765
v -0.31082504 -0.38490044 -0.07974197
v -0.32659082 -0.40151110 -0.04945646
v -0.31657276 -0.39674160 -0.06862186
v -0.31082579 -0.40831590 -0.07414168
v -0.30490675 -0.42142860 -0.07812094
v -0.32170050 -0.38300947 -0.06295034
v -0.32858803 -0.38752726 -0.04974426
v -0.31476688 -0.42067226 -0.06209140
v -0.30472165 -0.37575795 -0.08919568
v -0.29185912 -0.34691403 -0.10413532
v -0.30348187 -0.36612447 -0.09098729
v -0.28930515 -0.36195791 -0.10805874
v -0.30325869 -0.36046578 -0.09107311
v -0.31491572 -0.36813098 -0.07479706
v -0.29947649 -0.35216243 -0.09563339
v -0.28445696 -0.34482796 -0.11245316
v -0.32495963 -0.36780138 -0.05789754
v -0.28624787 -0.35701557 -0.11127946
v -0.27777253 -0.36700122 -0.11960811
v -0.31017364 -0.35373106 -0.08084047
v -0.31043301 -0.34978269 -0.07985495
v -0.32512996 -0.35398030 -0.05657115
v -0.33532520 -0.37012724 -0.03887247
v -0.32798460 -0.36195744 -0.05225361
v -0.33969928 -0.36273718 -0.02930117
v -0.30806262 -0.34339424 -0.08222597
v -0.33933720 -0.38027104 -0.02925337
v -0.33426738 -0.38725583 -0.03900657
v -0.32513953 -0.42121404 -0.04244259
v -0.34854509 -0.38020688 -0.00672741
v -0.33509653 -0.40395791 -0.03076733
v -0.29699555 -0.33223746 -0.09508114
v -0.26777340 -0.36437755 -0.12864103
v -0.26198617 -0.38018603 -0.13232295
v -0.26706090 -0.37766604 -0.12834233
v -0.27388293 -0.35549262 -0.12352151
v -0.28530129 -0.33209622 -0.10976387
v -0.27748918 -0.40391402 -0.11520681
v -0.25548750 -0.39736284 -0.13434903
v -0.25651379 -0.42239381 -0.12797777
v -0.24732370 -0.41624611 -0.13577839
v -0.23277377 -0.42352422 -0.14297605
v -0.24118489 -0.40085669 -0.14335823
v -0.26579768 -0.40786364 -0.12439627
v -0.26715001 -0.42377099 -0.12084300
v -0.28151448 -0.37494876 -0.11556028
v -0.27135140 -0.33550099 -0.12432040
v -0.25652882 -0.35808109 -0.13792109
v -0.24676226 -0.34517782 -0.14456547
v -0.25323555 -0.33695012 -0.13976399
v -0.29778890 -0.42193161 -0.08768093
v -0.25189590 -0.38327796 -0.13933126
v -0.24704789 -0.35789590 -0.14460176
v -0.23577780 -0.34774712 -0.15157461
v -0.23467749 -0.36533512 -0.15186583
v -0.22548251 -0.38474277 -0.15476996
v -0.24101781 -0.38569988 -0.14603998
v -0.21826454 -0.37879849 -0.15899026
v -0.23190757 -0.40166576 -0.14845977
v -0.22859472 -0.42335172 -0.14539276
v -0.20898973 -0.38142011 -0.16260343
v -0.20028774 -0.38220851 -0.16592964
v -0.21328138 -0.39655447 -0.15855152
v -0.22320785 -0.36783846 -0.15767352
v -0.23667000 -0.42475501 -0.14179701
v -0.25027545 -0.42308822 -0.13248381
v -0.32976151 -0.42198150 -0.03268800
v -0.34655139 -0.38317057 -0.01062164
v -0.33435856 -0.41624696 -0.02383166
v -0.33448800 -0.42134500 -0.02013200
v -0.34808114 -0.39653203 0.00280683
v -0.33721652 -0.41373331 -0.01639851
v -0.33612908 -0.42061791 -0.01431102
v -0.33716950 -0.42101700 -0.01102000
v -0.19131228 -0.41015571 -0.16384505
v -0.20251341 -0.39995295 -0.16217525
v -0.20898751 -0.42058743 -0.15504610
v -0.18926221 -0.39478899 -0.16768313
v -0.18264928 -0.42011932 -0.16419205
v -0.33940762 -0.41971099 -0.00131083
v -0.34096000 -0.41934699 0.00711400
v -0.18614624 -0.42175697 -0.16320068
v -0.20005437 -0.42293800 -0.15887525
f 44 47 12
f 47 44 46
f 47 46 45
f 47 45 52
f 14 47 52
f 14 52 93
f 52 90 93
f 90 53 93
f 93 53 91
f 93 91 94
f 102 93 94
f 93 102 103
f 15 93 103
f 94 91 102
f 102 91 95
f 95 96 102
f 95 92 96
f 91 89 95
f 91 53 89
f 89 53 51
f 53 30 51
f 24 30 53
f 50 24 53
f 29 24 50
f 50 28 29
f 50 45 28
f 45 50 49
f 49 50 52
f 29 28 24
f 28 25 24
f 28 23 25
f 23 28 36
f 39 36 28
f 46 36 39
f 46 39 28
f 36 31 23
f 36 33 31
f 36 35 33
f 42 35 36
f 44 42 36
f 44 43 42
f 44 48 43
f 10 48 44
f 10 54 48
f 54 37 48
f 59 37 54
f 11 59 54
f 13 59 11
f 69 59 13
f 69 38 59
f 38 69 58
f 69 72 58
f 70 58 72
f 71 70 72
f 72 76 71
f 5 76 72
f 5 77 76
f 77 75 76
f 75 77 79
f 77 78 79
f 78 81 79
f 79 81 65
f 81 82 65
f 81 85 82
f 85 99 82
f 99 85 98
f 97 99 98
f 97 101 99
f 101 104 99
f 99 104 105
f 99 105 82
f 101 97 100
f 1 101 100
f 1 7 101
f 101 7 8
f 1 100 3
f 3 100 84
f 84 100 98
f 3 84 80
f 80 84 83
f 84 85 83
f 83 85 80
f 85 78 80
f 86 80 78
f 3 80 86
f 5 3 86
f 100 97 98
f 84 98 85
f 65 82 64
f 65 64 87
f 63 65 87
f 87 88 63
f 63 88 62
f 67 62 88
f 65 63 62
f 65 62 61
f 74 65 61
f 74 61 66
f 56 74 66
f 70 74 56
f 74 70 75
f 70 56 55
f 56 57 55
f 57 56 21
f 56 60 21
f 60 16 21
f 60 22 16
f 66 22 60
f 66 67 22
f 66 62 67
f 22 67 19
f 16 22 19
f 19 18 16
f 18 19 73
f 18 73 27
f 26 18 27
f 26 27 30
f 16 18 26
f 20 16 26
f 25 20 26
f 21 16 20
f 17 21 20
f 17 68 21
f 41 21 68
f 58 41 68
f 55 41 58
f 55 21 41
f 58 68 17
f 58 17 34
f 40 58 34
f 40 34 37
f 38 40 37
f 38 37 32
f 34 17 37
f 31 37 17
f 20 31 17
f 57 21 55
f 56 66 60
f 61 62 66
f 65 74 79
f 78 85 81
f 86 78 77
f 75 79 74
f 86 77 5
f 2 5 72
f 2 72 4
f 6 4 72
f 6 72 13
f 76 75 71
f 71 75 70
f 58 70 55
f 38 58 40
f 38 32 59
f 13 72 69
f 59 32 37
f 10 11 54
f 9 10 44
f 37 43 48
f 37 42 43
f 37 35 42
f 37 33 35
f 33 37 31
f 31 20 23
f 23 20 25
f 26 24 25
f 30 24 26
f 90 50 53
f 52 50 90
f 93 15 14
f 52 45 49
f 46 28 45
f 46 44 36
f 12 47 14
f 12 9 44

