# https://github.com/mikedh/trimesh
v -0.21487750 -0.15954650 0.04127250
v -0.20041750 -0.15560499 0.05192950
v -0.19779401 -0.15333401 0.05293400
v -0.20271499 -0.15829000 0.05095200
v -0.24121800 -0.16970000 -0.00820800
v -0.24022600 -0.16622201 -0.00134200
v -0.24119475 -0.17319725 -0.01270600
v -0.23814601 -0.19316401 -0.02579000
v -0.23938049 -0.16197350 0.00347550
v -0.23497050 -0.16303700 0.01321250
v -0.22889800 -0.16430900 0.02360600
v -0.23773762 -0.21204763 -0.03599338
v -0.23752400 -0.19838650 -0.02831950
v -0.24022400 -0.22382900 -0.03991650
v -0.24013200 -0.22860400 -0.04784500
v -0.24200650 -0.22918500 -0.04207150
v -0.24320900 -0.24635901 -0.06058000
v -0.25846099 -0.28233150 -0.06586050
v -0.25594199 -0.28478801 -0.07134100
v -0.24906600 -0.28619599 -0.08126400
v -0.24535400 -0.28758001 -0.08643800
v -0.24051525 -0.29953112 -0.09653338
v -0.21453700 -0.32015249 -0.12225950
v -0.23273125 -0.30538100 -0.10565400
v -0.09119475 -0.32175950 -0.15963650
v -0.12741074 -0.32675075 -0.15484300
v -0.11052000 -0.32317001 -0.15726900
v -0.07865850 -0.31224400 -0.15950975
v -0.05880950 -0.31166001 -0.16112800
v -0.05522450 -0.30232651 -0.15983775
v -0.17495934 -0.32487656 -0.14101097
v -0.09901200 -0.25653850 -0.14397599
v -0.14122801 0.11793400 -0.01617500
v -0.14285500 0.11478300 -0.01412500
v -0.14464300 0.11708050 -0.01657850
v -0.14944200 0.11661100 -0.01808200
v -0.15790001 0.11044800 -0.01663400
v -0.14539178 0.12447498 -0.02431594
v -0.14136460 0.12466221 -0.02197130
v -0.13034418 0.12999164 -0.02410198
v -0.13245950 0.12506300 -0.01978950
v -0.12364995 0.13615922 -0.02930510
v -0.11492212 0.14060947 -0.03182870
v -0.10589700 0.14206199 -0.03189300
v -0.13003898 0.13629865 -0.03348281
v -0.12767201 0.13822439 -0.03531949
v -0.11499700 0.13537575 -0.02651125
v -0.14972883 0.12503281 -0.02787408
v -0.10162516 0.14901688 -0.04198841
v -0.15487293 0.12036251 -0.02593921
v -0.15749489 0.11475205 -0.02060586
v -0.16355488 0.11433566 -0.02629089
v -0.16680652 0.10733739 -0.02007557
v -0.16594251 0.10042075 -0.01333150
v -0.16893997 0.10918129 -0.02514271
v -0.16884564 0.10020223 -0.01498646
v -0.17624092 0.10176172 -0.02427556
v -0.17441835 0.09609191 -0.01622441
v -0.18034362 0.08560513 -0.01318000
v -0.14808957 0.12873803 -0.03744876
v -0.15037905 0.12767147 -0.04007257
v -0.11692397 0.14348100 -0.04199001
v -0.14597958 0.12977906 -0.03604091
v -0.13494176 0.13579474 -0.04385096
v -0.03953825 0.18061891 -0.05195414
v -0.15692684 0.12346000 -0.03802480
v -0.15713671 0.12219577 -0.03318366
v -0.16132033 0.12000281 -0.04189025
v -0.14723840 0.12927018 -0.04432476
v -0.16027200 0.12004200 -0.04577800
v -0.16886473 0.11359843 -0.03414802
v -0.11072350 0.14438951 -0.05287400
v -0.06317825 0.16751000 -0.05363650
v -0.16607399 0.11571000 -0.04331000
v -0.15463744 0.12436268 -0.04537022
v -0.17325400 0.10933600 -0.04133600
v -0.15404950 0.12370600 -0.04887550
v -0.16816901 0.11412100 -0.04183800
v -0.17669397 0.10498941 -0.03212742
v -0.17104037 0.11079392 -0.03227175
v -0.17857500 0.10361075 -0.03603050
v -0.18180175 0.09331325 -0.02170024
v -0.18255849 0.09770725 -0.03126025
v -0.18350700 0.09393600 -0.02596100
v -0.18490800 0.09334100 -0.02811500
v -0.18504525 0.08355498 -0.01591579
v -0.18844100 0.07158875 -0.01033025
v -0.19321975 0.07631600 -0.02066325
v -0.19533272 0.06464229 -0.01250745
v -0.19261800 0.06159400 -0.00775600
v -0.19629100 0.05559800 -0.00778400
v -0.20461050 0.03635600 -0.00600200
v -0.20221934 0.04963963 -0.01066836
v -0.21424200 0.01239600 -0.00587825
v -0.20922706 0.03119878 -0.00844660
v -0.20511963 0.04782350 -0.01411263
v -0.21262801 0.02737300 -0.01116500
v -0.19404941 0.07079404 -0.01596696
v -0.21798341 0.00847710 -0.00865633
v -0.20272499 0.05689400 -0.01713400
v -0.22308500 -0.01028950 -0.00793150
v -0.18587250 0.08834025 -0.02264300
v -0.22015850 0.00436987 -0.01044137
v -0.20925925 0.03793050 -0.01294750
v -0.21636150 0.01668825 -0.01067325
v -0.22796901 -0.03179100 -0.00709400
v -0.23088101 -0.05113700 -0.00526000
v -0.24413214 -0.15121489 -0.02621366
v -0.24268739 -0.16787191 -0.01881900
v -0.24232411 -0.16665710 -0.02667987
v -0.23730812 -0.19168050 -0.03738428
v -0.23834920 -0.17559427 -0.03951658
v -0.23611660 -0.20329953 -0.04048604
v -0.24318591 -0.14272355 -0.03242275
v -0.23557165 -0.19298812 -0.04357427
v -0.24480912 -0.13042703 -0.02549141
v -0.23559600 -0.18858600 -0.04429200
v -0.23325763 -0.20503415 -0.05039163
v -0.23376433 -0.18902619 -0.04880713
v -0.24080095 -0.12649851 -0.03936871
v -0.24337433 -0.12235442 -0.03256533
v -0.24096900 -0.09167400 -0.03442700
v -0.24079143 -0.11089400 -0.03863157
v -0.24163422 -0.13613876 -0.03711004
v -0.23504500 -0.20567399 -0.04576100
v -0.23470930 -0.20892505 -0.04776775
v -0.23802017 -0.10053351 -0.04324635
v -0.23663038 -0.15779734 -0.04641787
v -0.23024428 -0.20299543 -0.05668053
v -0.22962652 -0.19631155 -0.05706373
v -0.23194460 -0.18304551 -0.05267927
v -0.23493886 -0.14543119 -0.04999903
v -0.23757721 -0.13350223 -0.04588495
v -0.23448081 -0.07158507 -0.04609534
v -0.23043200 -0.18161599 -0.05543600
v -0.23277903 -0.03833565 -0.04227801
v -0.23522936 -0.12298375 -0.04952617
v -0.22498162 -0.19739887 -0.06460936
v -0.22823377 -0.18175867 -0.05896155
v -0.23425148 -0.09272269 -0.04899637
v -0.22934300 -0.04446000 -0.04994200
v -0.23107020 -0.05543391 -0.04914100
v -0.23204774 -0.11061753 -0.05355324
v -0.22292000 -0.04108900 -0.05808300
v -0.22641693 -0.04003992 -0.05361965
v -0.22268372 -0.05210040 -0.05986078
v -0.22531709 -0.09662327 -0.06103790
v -0.22836271 -0.07774117 -0.05582836
v -0.22950331 -0.12192412 -0.05746483
v -0.22911826 -0.17460013 -0.05816882
v -0.21495975 -0.01701450 -0.06351646
v -0.22487144 -0.01969333 -0.05157590
v -0.22851336 -0.21656741 -0.06430661
v -0.22523955 -0.01203613 -0.04891461
v -0.22022433 -0.01828982 -0.05773546
v -0.21725344 0.00593005 -0.05536755
v -0.22169134 -0.22043269 -0.07651805
v -0.23298980 -0.21801009 -0.05662687
v -0.22275708 -0.18282028 -0.06644549
v -0.22327378 -0.14802475 -0.06510393
v -0.21723374 -0.02995214 -0.06315658
v -0.21634598 -0.08309615 -0.06898705
v -0.21581097 -0.15734008 -0.07272548
v -0.21577939 -0.12793038 -0.07175642
v -0.22239046 -0.11630768 -0.06521905
v -0.22427323 -0.17663540 -0.06436458
v -0.21930262 -0.19254077 -0.07128394
v -0.22291010 -0.20578117 -0.06922538
v -0.20409616 0.01783129 -0.06760545
v -0.21362433 -0.20560555 -0.08028759
v -0.21393249 0.00338729 -0.06056804
v -0.21627863 0.01896880 -0.05184510
v -0.21084567 0.01892068 -0.05963464
v -0.20973435 -0.01771526 -0.06876143
v -0.21884025 -0.05877157 -0.06477923
v -0.23656842 -0.21732900 -0.04692643
v -0.20465256 0.03288082 -0.06225892
v -0.22436374 -0.23288999 -0.07954727
v -0.20769894 -0.01369537 -0.06985729
v -0.21226071 -0.04652868 -0.06954790
v -0.21891728 -0.22958019 -0.08407943
v -0.21108684 -0.18821869 -0.07918580
v -0.21269818 -0.06830794 -0.07091387
v -0.20815999 -0.05455300 -0.07342800
v -0.20619801 -0.03269900 -0.07319100
v -0.20614401 -0.02927300 -0.07290400
v -0.20217675 -0.00608150 -0.07313150
v -0.19454979 0.04331730 -0.06893367
v -0.20064814 0.01965125 -0.06991834
v -0.20531874 -0.17930139 -0.08287235
v -0.21343591 -0.12931712 -0.07375166
v -0.21577749 -0.17387886 -0.07355736
v -0.21206200 -0.10425500 -0.07363000
v -0.20931783 -0.21034707 -0.08579257
v -0.23470918 -0.22103364 -0.05461950
v -0.24850955 -0.27493532 -0.07538557
v -0.22066483 -0.23867706 -0.08696231
v -0.23527439 -0.29084837 -0.09824361
v -0.22710859 -0.27494316 -0.09856984
v -0.21296100 -0.26830649 -0.10689000
v -0.20809756 -0.23023310 -0.09455584
v -0.20224400 -0.22646900 -0.09742800
v -0.22899800 -0.31151675 -0.11030700
v -0.22545775 -0.29059474 -0.10619500
v -0.21671482 -0.23927240 -0.09113794
v -0.23693041 -0.26572689 -0.08411207
v -0.23004983 -0.02675021 -0.04493863
v -0.23222246 -0.02932844 -0.04007311
v -0.21842680 0.02289445 -0.04459216
v -0.22816109 -0.00820694 -0.04058302
v -0.22019421 0.01756930 -0.04461807
v -0.23801660 -0.07193009 -0.03845528
v -0.23647784 -0.05215212 -0.03654020
v -0.24093555 -0.08556981 -0.03250973
v -0.23264554 -0.22789471 -0.06425545
v -0.23698418 -0.23532670 -0.06201380
v -0.23625817 -0.24778120 -0.07339576
v -0.23792829 -0.22327932 -0.04838901
v -0.23738294 -0.21637609 -0.04242475
v -0.21182860 0.03891359 -0.04801496
v -0.23311675 -0.02816492 -0.03642174
v -0.18657160 0.07019994 -0.06531919
v -0.23950326 -0.28189738 -0.09014466
v -0.20082934 0.05655622 -0.05549518
v -0.19317680 0.06877775 -0.05817622
v -0.22869587 -0.00444879 -0.03420862
v -0.21484233 0.03517577 -0.04296417
v -0.17702314 0.08302546 -0.06791805
v -0.19227603 0.05758793 -0.06558985
v -0.21326083 -0.22990696 -0.09004018
v -0.18573605 0.04867280 -0.07466547
v -0.20301200 -0.01162400 -0.07321675
v -0.19568251 0.01290700 -0.07523350
v -0.20582075 -0.17004450 -0.08158500
v -0.21113250 -0.13888200 -0.07590450
v -0.20672675 -0.16636975 -0.08060100
v -0.21144050 -0.13050100 -0.07536300
v -0.21154325 -0.07853675 -0.07238475
v -0.19769126 0.01765664 -0.07288775
v -0.23205549 -0.29712951 -0.10351683
v -0.20846364 -0.21586357 -0.08852309
v -0.18583500 0.03784850 -0.07738000
v -0.19176431 0.03512975 -0.07377792
v -0.19346275 0.01783000 -0.07597375
v -0.18630246 0.05605256 -0.07179327
v -0.19901812 -0.18706700 -0.08871300
v -0.20742051 -0.18889075 -0.08264675
v -0.20458978 -0.20780725 -0.08898817
v -0.19973300 -0.21851425 -0.09654213
v -0.18228257 0.05143332 -0.07649384
v -0.17809792 0.06670675 -0.07445850
v -0.16934234 0.08650149 -0.07215799
v -0.19683800 -0.19620899 -0.09179200
v -0.20097600 -0.18537600 -0.08684850
v -0.18055330 0.08572626 -0.06254647
v -0.18273000 0.04172750 -0.07864050
v -0.17525337 0.06207875 -0.07791212
v -0.17020001 0.07720000 -0.07592200
v -0.19704274 -0.20784150 -0.09462575
v -0.16544899 0.08659000 -0.07489250
v -0.16657899 0.08089300 -0.07679900
v -0.17551636 0.10031850 -0.05502921
v -0.19949720 0.06859749 -0.04676695
v -0.18549347 0.08743107 -0.05395490
v -0.23730972 -0.19864302 -0.03152676
v -0.24080136 -0.07701299 -0.03024477
v -0.23695323 -0.04882981 -0.03308441
v -0.16521935 0.10401449 -0.06342658
v -0.15952826 0.09758250 -0.07267125
v -0.23132880 -0.01546003 -0.03294728
v -0.22310165 0.01394030 -0.03804072
v -0.24375511 -0.11248877 -0.02886136
v -0.19645465 0.07622600 -0.04341543
v -0.20589533 0.05943850 -0.03849177
v -0.23329701 -0.02536900 -0.03097200
v -0.15678000 0.09927550 -0.07339050
v -0.15424401 0.10612800 -0.07038200
v -0.22529297 0.00835854 -0.03386528
v -0.16931033 0.10248884 -0.06076467
v -0.24320050 -0.09868332 -0.02430020
v -0.24044669 -0.07314292 -0.02748936
v -0.21074543 0.04831844 -0.03930865
v -0.14948100 0.11121100 -0.06950900
v -0.23155510 -0.01620575 -0.02917994
v -0.23497851 -0.03359957 -0.02753895
v -0.15637183 0.11414451 -0.06159255
v -0.24524323 -0.12047990 -0.01967945
v -0.15956187 0.10438015 -0.06874456
v -0.21990548 0.02526405 -0.03584461
v -0.19082364 0.08509898 -0.04585146
v -0.22779097 -0.00021432 -0.03087096
v -0.14347000 0.11953300 -0.06599600
v -0.16725533 0.10957215 -0.05512884
v -0.24311418 -0.16452978 -0.01999682
v -0.16878347 0.11084456 -0.05016318
v -0.24443438 -0.15138142 -0.01232998
v -0.22837479 -0.00168059 -0.02766418
v -0.24408989 -0.10484443 -0.01773261
v -0.13634675 0.12646225 -0.06305725
v -0.17117598 0.11043084 -0.04582704
v -0.18104518 0.10008530 -0.04417827
v -0.20442300 0.06287300 -0.03245300
v -0.21731314 0.03256248 -0.03044040
v -0.24351002 -0.15921998 -0.01275641
v -0.16051045 0.11902258 -0.04882697
v -0.24551694 -0.13740658 -0.01925360
v -0.19967113 0.07274640 -0.03525622
v -0.24267660 -0.10115380 -0.01243010
v -0.23525959 -0.03774830 -0.02233248
v -0.14312973 0.12578998 -0.05908224
v -0.24288883 -0.16380277 -0.01225560
v -0.17759356 0.10447500 -0.04356955
v -0.21224116 0.04585431 -0.03103284
v -0.13599029 0.13336242 -0.05288143
v -0.24446389 -0.13150008 -0.00829889
v -0.24474009 -0.11926065 -0.01315724
v -0.21945534 0.02575072 -0.02695442
v -0.11222369 0.13993006 -0.06080219
v -0.19046309 0.08785599 -0.03494901
v -0.23754718 -0.05131679 -0.02233662
v -0.22956342 -0.00847163 -0.02444061
v -0.20165553 0.06847857 -0.03179479
v -0.12453209 0.13531653 -0.05955800
v -0.14780024 0.12437359 -0.05761697
v -0.21141968 0.04490413 -0.02430797
v -0.22378681 0.01002096 -0.02170382
v -0.24188100 -0.16668700 -0.00876400
v -0.23351479 -0.03181358 -0.01907906
v -0.23940454 -0.07233048 -0.01514702
v -0.19523619 0.07973806 -0.03143041
v -0.18623210 0.09433891 -0.03582835
v -0.24361636 -0.11918537 -0.00756819
v -0.20265953 0.06380360 -0.02517593
v -0.24393934 -0.14204120 -0.00542909
v -0.23098800 -0.02121200 -0.01825500
v -0.24253564 -0.15747118 -0.00455767
v -0.11738484 0.14032619 -0.05671821
v -0.09640783 0.14933311 -0.05633295
v -0.06818275 0.16287987 -0.05781788
v -0.07413606 0.16045323 -0.05602571
v -0.19664610 0.07556807 -0.02682548
v -0.20954712 0.04690423 -0.02138785
v -0.21709154 0.02727893 -0.01973668
v -0.22635480 0.00021896 -0.01994296
v -0.24163640 -0.11241885 -0.00403060
v -0.21848064 0.01673458 -0.01409289
v -0.19451704 0.07886047 -0.02597588
v -0.24218361 -0.14549843 0.00044675
v -0.24274933 -0.12905232 -0.00216413
v -0.24132815 -0.12469707 0.00104832
v -0.23236418 -0.03579533 -0.01333029
v -0.22341977 0.00175172 -0.01443878
v -0.20219411 0.06082291 -0.01995129
v -0.21509100 0.02761000 -0.01559500
v -0.20919033 0.04205971 -0.01564669
v -0.24068018 -0.11399306 -0.00091503
v -0.24038005 -0.14665443 0.00597353
v -0.23177499 -0.04407041 -0.00891218
v -0.23398118 -0.05460212 -0.00909781
v -0.22700392 -0.01203471 -0.01349560
v -0.22971752 -0.02784935 -0.01124811
v -0.23644067 -0.15315646 0.01300463
v -0.23799856 -0.13829692 0.00980977
v -0.23415315 -0.14512672 0.01694085
v -0.23602400 -0.08537100 -0.00254200
v -0.23630100 -0.11474900 0.00657400
v -0.23167664 -0.15420134 0.02101729
v -0.23750171 -0.12709348 0.00866628
v -0.23035911 -0.14134950 0.02217434
v -0.22804056 -0.14252465 0.02522281
v -0.22721798 -0.15537911 0.02721756
v -0.23133424 -0.13497946 0.01915468
v -0.22162099 -0.13574050 0.02953000
v -0.22041332 -0.15634309 0.03572641
v -0.22839284 -0.13512463 0.02283997
v -0.21414051 -0.14875505 0.04128060
v -0.21708212 -0.15095160 0.03898511
v -0.20494400 -0.14564075 0.04613525
v -0.21376384 -0.14506618 0.04054710
v -0.10976044 0.11281763 -0.08370904
v -0.13908990 0.03732624 -0.09842034
v -0.14592667 0.02797042 -0.09737533
v -0.15904414 0.00454415 -0.09463828
v -0.15350323 0.03291591 -0.09436221
v -0.14919168 0.04645592 -0.09414213
v -0.14049676 0.05678356 -0.09523910
v -0.14468916 0.01513370 -0.09851965
v -0.16984248 -0.06795096 -0.09448715
v -0.15576557 0.05783458 -0.08968195
v -0.16470810 -0.01014066 -0.09340734
v -0.17117585 0.00455589 -0.08997742
v -0.16581000 0.01953900 -0.09088300
v -0.17032257 0.01657594 -0.08928033
v -0.16987713 0.04022056 -0.08650452
v -0.18011173 0.01191592 -0.08522346
v -0.19314259 -0.15522524 -0.08872552
v -0.19412561 -0.14022453 -0.08715476
v -0.20046333 -0.13067521 -0.08283396
v -0.20096768 -0.16144870 -0.08431120
v -0.20839861 -0.13512363 -0.07777023
v -0.20531853 -0.07712940 -0.07692942
v -0.19871737 -0.06824092 -0.08066194
v -0.19697128 -0.05405322 -0.08090851
v -0.20977243 -0.09076407 -0.07462833
v -0.19700605 0.00180737 -0.07596365
v -0.20408313 -0.02678126 -0.07429543
v -0.19279970 -0.00137577 -0.07918993
v -0.19546694 -0.01295885 -0.07864857
v -0.20342359 -0.05723404 -0.07701426
v -0.18815834 0.00844396 -0.08088360
v -0.19007208 -0.07154866 -0.08581297
v -0.18915829 -0.02143572 -0.08322370
v -0.18130776 -0.11260567 -0.09215792
v -0.17567962 -0.05843950 -0.09168929
v -0.17478406 -0.15634701 -0.09768904
v -0.16379400 -0.09623500 -0.09811700
v -0.17421989 -0.11653677 -0.09549493
v -0.12327523 -0.01590028 -0.10501817
v -0.12456858 0.00401422 -0.10380038
v -0.12029453 -0.03259174 -0.10626604
v -0.10642682 -0.01106087 -0.10756549
v -0.09408651 -0.03643966 -0.11052985
v -0.05897849 0.05319866 -0.10655418
v -0.06228890 0.03406407 -0.10880392
v -0.07796061 0.02375392 -0.10878243
v -0.07615555 -0.02072895 -0.11163178
v -0.07571941 -0.07989820 -0.11540441
v -0.09171189 -0.04780343 -0.11153287
v -0.10321904 -0.11748895 -0.11408871
v -0.11375140 -0.09412745 -0.11063306
v -0.11967839 -0.04817886 -0.10700794
v -0.14491871 -0.07703197 -0.10282219
v -0.14447384 -0.09570176 -0.10391733
v -0.14364213 -0.11795717 -0.10544497
v -0.16171946 -0.13664626 -0.10126444
v -0.12963963 -0.09797982 -0.10764798
v -0.06868761 -0.10885105 -0.11820600
v -0.08921011 -0.13303240 -0.11734080
v -0.13147228 -0.14009011 -0.10996661
v -0.13780730 -0.15516973 -0.11002428
v -0.10474703 -0.14065029 -0.11538306
v -0.13293501 -0.13487987 -0.10922430
v -0.14654719 -0.13621564 -0.10592908
v -0.11358166 -0.16278487 -0.11618541
v -0.12765112 -0.17595417 -0.11521139
v -0.08416145 -0.13894960 -0.11853875
v -0.06478022 -0.03926262 -0.11382847
v -0.09042633 0.01317373 -0.10845151
v -0.06746916 0.01371364 -0.11019536
v -0.05256448 0.02953301 -0.10955226
v -0.03455000 0.04217650 -0.10859400
v -0.03146600 0.03663800 -0.10929000
v -0.06235854 0.04216126 -0.10804220
v -0.04671604 0.07062128 -0.10383739
v -0.04485229 0.07791721 -0.10237008
v -0.03868005 0.07333845 -0.10340672
v -0.02791132 0.07334822 -0.10358956
v -0.00619914 0.09247056 -0.09895591
v -0.00187287 0.10581626 -0.09519107
v 0.00406700 0.08796300 -0.09996950
v -0.01570400 0.06198500 -0.10572250
v -0.03852445 0.05503612 -0.10682711
v -0.02857000 0.05244500 -0.10725150
v -0.01826900 0.04730200 -0.10805600
v -0.04331000 0.03417050 -0.10935500
v -0.04893450 0.01061213 -0.11119375
v -0.05659600 -0.03482550 -0.11410550
v -0.06442400 -0.08570425 -0.11698725
v -0.06008100 -0.11576200 -0.11962000
v -0.09877770 -0.16130508 -0.11861938
v -0.13678291 -0.16397935 -0.11117513
v -0.12427365 -0.18248087 -0.11712425
v -0.10206915 -0.18725184 -0.12264834
v -0.10320704 -0.17639729 -0.12028370
v -0.12535026 -0.19264831 -0.11912471
v -0.14238254 -0.19195781 -0.11463712
v -0.14524140 -0.14677730 -0.10710285
v -0.14111749 -0.17882647 -0.11228991
v -0.15444502 -0.18594172 -0.10947288
v -0.15701238 -0.16060640 -0.10485207
v -0.16373185 -0.15113508 -0.10162987
v -0.13606532 -0.04316835 -0.10340862
v -0.16637900 -0.16346900 -0.10183400
v -0.18100290 -0.16668814 -0.09590471
v -0.16940974 0.02796817 -0.08853177
v -0.15891300 0.01616400 -0.09382200
v -0.11671003 0.03286327 -0.10342446
v -0.09906708 0.02720019 -0.10648328
v -0.09420713 0.04334554 -0.10551716
v -0.13032482 0.01855939 -0.10193799
v -0.13762266 -0.01980591 -0.10206629
v -0.15196736 -0.01931709 -0.09815149
v -0.14959866 -0.05380670 -0.10035974
v -0.14006056 0.00617621 -0.10015764
v -0.12491799 0.05121053 -0.09994723
v -0.12282441 0.04595959 -0.10117096
v -0.11726299 0.06412425 -0.09932339
v -0.10657305 0.06531085 -0.10064961
v -0.09856699 0.05343700 -0.10380049
v -0.06782018 0.06236252 -0.10469408
v -0.05301520 0.06269011 -0.10514492
v -0.08879892 0.05698373 -0.10439251
v -0.10522290 0.06757037 -0.10049730
v -0.09124585 0.06619151 -0.10236431
v -0.10167800 0.07825700 -0.09823400
v -0.09459405 0.08190133 -0.09812908
v -0.08704311 0.08050934 -0.09929149
v -0.05997855 0.08095939 -0.10107410
v -0.06304921 0.09081534 -0.09804542
v -0.08043174 0.08687733 -0.09815926
v -0.12695591 0.10011180 -0.08555685
v -0.12700107 0.09261795 -0.08876471
v -0.10757208 0.08491126 -0.09565769
v -0.11551469 0.08546039 -0.09395985
v -0.11789977 0.07825723 -0.09579968
v -0.10639755 0.10097723 -0.09007989
v -0.13827480 0.08913510 -0.08687483
v -0.13765250 0.09568877 -0.08437296
v -0.02652243 0.10890051 -0.09413874
v -0.02306677 0.09322396 -0.09867915
v -0.03741400 0.09492800 -0.09793800
v -0.07634825 -0.14333825 -0.12000450
v -0.17215119 0.04937798 -0.08367046
v -0.12828875 0.08013887 -0.09292789
v -0.09522175 -0.20141000 -0.12755300
v -0.09675300 -0.17154100 -0.12057450
v -0.12008655 -0.19745937 -0.12157859
v -0.10814772 -0.19159100 -0.12251465
v -0.13553759 -0.20626572 -0.12036858
v -0.13546857 0.06513409 -0.09513335
v -0.16445200 -0.19136199 -0.10706200
v -0.13792888 0.07318537 -0.09236134
v -0.13383122 -0.25497672 -0.13657075
v -0.12893702 -0.21974981 -0.12642269
v -0.13234669 -0.22279280 -0.12651591
v -0.14975541 -0.21392696 -0.11857933
v -0.15700842 -0.24406875 -0.12617946
v -0.17248617 -0.25852857 -0.12521460
v -0.16230569 -0.26465022 -0.13116712
v -0.15191577 -0.25112905 -0.13021966
v -0.16130769 -0.27623156 -0.13495317
v -0.15830700 -0.25600201 -0.12967700
v -0.18768236 -0.29790967 -0.13108443
v -0.18191216 -0.28629241 -0.13011750
v -0.18549943 -0.28994820 -0.12956398
v -0.16426289 -0.29310155 -0.13870768
v -0.17033628 -0.30296618 -0.13901406
v -0.20147670 -0.31606881 -0.12879306
v -0.16063599 -0.31106901 -0.14403901
v -0.15063031 -0.30819901 -0.14656147
v -0.14436746 -0.32064017 -0.15044621
v -0.16740680 -0.31921130 -0.14368694
v -0.11541876 -0.30694163 -0.15397346
v -0.08864061 -0.29253785 -0.15477922
v -0.07020018 -0.30171180 -0.15864494
v -0.09656475 -0.31122365 -0.15747111
v -0.13693591 -0.30912916 -0.15027077
v -0.13175181 -0.32119087 -0.15339773
v -0.10880265 -0.31408272 -0.15626121
v -0.06820332 -0.27996412 -0.15410947
v -0.07999125 -0.23076151 -0.13876524
v -0.07725318 -0.25344477 -0.14616752
v -0.09823861 -0.23239923 -0.13671678
v -0.09118750 -0.21041300 -0.13081299
v -0.06682650 -0.24605000 -0.14508150
v -0.06001600 -0.25344700 -0.14791700
v -0.05887375 -0.26576075 -0.15130525
v -0.06146750 -0.28761050 -0.15644150
v -0.17952203 -0.31950299 -0.13903133
v -0.18386693 -0.27935223 -0.12711416
v -0.16505591 -0.22773217 -0.11766879
v -0.18672993 -0.26582196 -0.12141124
v -0.17324477 -0.23640054 -0.11721991
v -0.18483920 -0.23237603 -0.11027994
v -0.17460400 -0.21847799 -0.11045300
v -0.19762415 -0.29407665 -0.12497271
v -0.20672633 -0.28978013 -0.11867631
v -0.20745558 -0.27311870 -0.11246112
v -0.19260006 -0.26223198 -0.11718747
v -0.21271581 -0.27621798 -0.11018779
v -0.19823308 -0.23135483 -0.10203231
v -0.21366526 -0.29740883 -0.11702807
v -0.21309400 -0.30522868 -0.11948404
v -0.21603667 -0.31727276 -0.12078515
v -0.22107249 -0.29502006 -0.11118990
v -0.15987876 -0.20200056 -0.11137167
v -0.08330470 -0.26057368 -0.14737009
v -0.09002059 -0.28247165 -0.15224634
v -0.11190600 -0.29272899 -0.15131700
v -0.12611278 -0.29706793 -0.14979271
v -0.14215056 -0.29696366 -0.14634125
v -0.15547740 -0.29959454 -0.14327142
v -0.14580718 -0.28061214 -0.14097521
v -0.13741613 -0.27594023 -0.14198446
v -0.13153210 -0.26476562 -0.14005464
v -0.14216864 -0.25683481 -0.13500986
v -0.12571192 -0.27541991 -0.14439692
v -0.10131615 -0.26964901 -0.14733870
v -0.09254535 -0.25933238 -0.14578249
v -0.10404861 -0.28631965 -0.15107466
v -0.10206499 -0.24781981 -0.14095387
v -0.11673160 -0.24267910 -0.13649033
v -0.12170204 -0.21261644 -0.12583096
v -0.11354626 -0.20391557 -0.12490890
v -0.14546323 -0.20646459 -0.11761144
v -0.17150771 -0.20433589 -0.10736971
v -0.17299285 -0.18721915 -0.10271745
v -0.14570865 0.07384402 -0.08944645
v -0.16122050 -0.17941551 -0.10603907
v -0.17458300 -0.19827101 -0.10440700
v -0.15124704 0.07802308 -0.08589573
v -0.15905450 0.07280105 -0.08431012
v -0.18207825 -0.20662383 -0.10301454
v -0.18263811 -0.17585724 -0.09628991
v -0.18727795 -0.19080242 -0.09642495
v -0.15713881 0.08784230 -0.07967773
v -0.15726487 0.08300088 -0.08132483
v -0.19021454 -0.16806543 -0.09125371
v -0.16183576 0.06142794 -0.08606633
v -0.17044256 0.05990406 -0.08184419
v -0.18841746 -0.20453628 -0.09891175
v -0.18881500 -0.18575700 -0.09458900
v -0.18538600 0.01743400 -0.08139000
v -0.18486498 0.02439197 -0.08080496
v -0.13842252 0.10063175 -0.08193761
v -0.19630086 -0.17789011 -0.08890695
v -0.14806118 0.10447350 -0.07544127
f 459 458 460
f 458 457 460
f 458 455 457
f 457 461 460
f 455 456 457
f 458 520 455
f 461 457 462
f 455 454 456
f 456 454 457
f 520 508 455
f 457 501 462
f 461 462 463
f 455 500 454
f 457 454 501
f 508 500 455
f 520 521 508
f 462 501 500
f 463 462 464
f 454 500 501
f 508 502 500
f 521 519 508
f 519 521 520
f 500 423 462
f 464 462 451
f 500 502 453
f 508 504 502
f 423 453 462
f 423 500 453
f 451 462 453
f 453 502 425
f 502 504 499
f 507 504 508
f 452 451 453
f 424 453 425
f 502 488 425
f 499 489 502
f 503 499 504
f 507 503 504
f 510 507 508
f 452 453 465
f 424 425 449
f 453 424 465
f 425 488 448
f 502 489 488
f 499 488 489
f 503 498 499
f 506 503 507
f 510 506 507
f 508 509 510
f 424 449 466
f 449 425 448
f 424 450 465
f 488 421 448
f 499 496 488
f 498 497 499
f 498 503 497
f 506 505 503
f 510 513 506
f 450 424 466
f 466 449 448
f 465 450 466
f 448 421 422
f 488 490 421
f 496 487 488
f 499 497 496
f 515 497 503
f 513 503 505
f 513 505 506
f 466 448 467
f 422 421 428
f 422 428 448
f 490 419 421
f 488 487 490
f 487 496 490
f 496 497 495
f 497 515 530
f 513 515 503
f 467 448 447
f 421 431 428
f 426 448 428
f 421 419 420
f 490 491 419
f 496 381 490
f 495 381 496
f 497 530 495
f 515 524 530
f 516 515 513
f 448 426 447
f 467 447 468
f 421 420 431
f 428 431 430
f 426 428 447
f 419 418 420
f 419 491 482
f 491 490 494
f 490 381 387
f 386 381 495
f 530 386 495
f 514 524 515
f 524 532 530
f 516 514 515
f 468 447 427
f 420 432 431
f 429 428 430
f 430 431 436
f 447 428 427
f 419 482 418
f 418 482 420
f 491 493 482
f 490 387 494
f 491 494 492
f 382 387 381
f 386 385 381
f 530 389 386
f 516 524 514
f 517 532 524
f 530 532 389
f 427 437 468
f 420 482 432
f 432 433 431
f 427 428 429
f 429 430 436
f 431 433 436
f 482 493 432
f 491 492 493
f 387 492 494
f 381 385 382
f 492 387 382
f 386 389 385
f 516 512 524
f 524 512 517
f 517 608 532
f 532 608 389
f 437 427 446
f 468 437 469
f 433 432 443
f 427 429 438
f 429 436 441
f 436 433 434
f 432 493 435
f 492 417 493
f 382 385 384
f 382 383 492
f 385 389 485
f 518 517 512
f 517 616 608
f 612 389 608
f 427 438 446
f 437 446 522
f 469 437 522
f 432 435 443
f 433 443 434
f 438 429 441
f 441 436 442
f 443 436 434
f 416 435 493
f 492 388 417
f 493 417 416
f 384 383 382
f 385 485 384
f 383 390 492
f 485 389 394
f 512 511 518
f 518 625 517
f 625 616 517
f 608 616 611
f 612 619 389
f 608 611 612
f 446 438 470
f 522 446 470
f 477 443 435
f 438 441 470
f 436 443 442
f 441 442 439
f 416 415 435
f 388 414 417
f 390 388 492
f 416 417 415
f 486 383 384
f 485 392 384
f 383 391 390
f 389 523 394
f 394 395 485
f 625 518 511
f 627 616 625
f 616 617 611
f 619 523 389
f 620 619 612
f 617 612 611
f 522 470 526
f 435 481 477
f 443 477 439
f 470 441 444
f 439 442 443
f 441 439 440
f 435 415 481
f 414 388 390
f 414 413 417
f 417 484 415
f 391 383 486
f 384 391 486
f 392 391 384
f 485 393 392
f 391 414 390
f 394 523 624
f 394 624 395
f 395 393 485
f 380 625 511
f 276 616 627
f 617 616 612
f 619 620 523
f 612 258 620
f 526 470 474
f 477 481 480
f 439 477 440
f 441 440 444
f 444 445 470
f 415 483 481
f 411 413 414
f 417 413 618
f 415 484 609
f 618 484 417
f 392 393 391
f 391 412 414
f 523 256 624
f 624 623 395
f 395 391 393
f 276 258 616
f 627 277 276
f 616 258 612
f 620 256 523
f 620 258 256
f 474 470 475
f 526 474 473
f 480 440 477
f 480 481 483
f 471 444 440
f 471 445 444
f 445 472 470
f 483 415 609
f 413 411 618
f 414 412 411
f 609 484 607
f 484 618 614
f 395 412 391
f 256 244 624
f 395 623 410
f 623 624 410
f 283 277 627
f 475 470 472
f 474 475 473
f 526 473 525
f 440 480 609
f 480 483 609
f 471 440 609
f 445 471 609
f 445 478 472
f 411 397 618
f 403 411 412
f 484 614 607
f 609 607 479
f 614 618 615
f 410 412 395
f 624 244 405
f 410 624 407
f 283 286 277
f 472 476 475
f 475 528 473
f 473 604 525
f 445 609 478
f 472 478 476
f 397 411 398
f 397 396 618
f 403 402 411
f 412 406 403
f 614 615 607
f 479 607 531
f 478 609 479
f 618 622 615
f 412 410 407
f 244 232 405
f 624 405 407
f 277 286 269
f 286 283 292
f 476 529 475
f 473 528 604
f 528 475 527
f 525 604 563
f 478 586 476
f 399 397 398
f 402 398 411
f 397 626 396
f 618 396 626
f 403 401 402
f 403 406 409
f 408 406 412
f 607 615 621
f 531 606 479
f 531 607 606
f 478 479 586
f 626 615 622
f 618 626 622
f 412 407 408
f 405 232 406
f 407 405 406
f 286 292 299
f 475 529 527
f 476 605 529
f 528 527 604
f 564 525 563
f 604 602 563
f 586 605 476
f 399 626 397
f 399 398 400
f 402 401 398
f 409 401 403
f 406 404 409
f 407 406 408
f 607 621 613
f 615 626 621
f 479 606 586
f 607 610 606
f 406 232 185
f 310 286 299
f 529 604 527
f 605 536 529
f 564 563 561
f 563 602 601
f 604 603 602
f 605 586 536
f 626 399 246
f 398 401 400
f 400 234 399
f 409 404 401
f 406 184 404
f 607 613 610
f 613 621 581
f 626 246 621
f 586 606 571
f 610 613 606
f 185 184 406
f 310 324 286
f 310 299 318
f 604 529 603
f 529 536 537
f 561 563 562
f 562 563 601
f 601 602 533
f 602 603 533
f 586 571 536
f 234 246 399
f 401 404 400
f 400 237 234
f 404 184 193
f 581 574 613
f 621 249 581
f 621 246 249
f 571 606 575
f 606 613 574
f 324 310 323
f 323 310 318
f 603 529 534
f 529 537 540
f 536 571 537
f 565 561 562
f 601 599 562
f 601 533 597
f 603 534 533
f 404 193 400
f 193 237 400
f 581 579 574
f 249 580 581
f 571 575 574
f 606 574 575
f 337 324 323
f 337 323 318
f 534 529 535
f 529 540 533
f 537 542 540
f 571 538 537
f 566 565 562
f 562 599 587
f 601 32 599
f 597 533 595
f 601 597 598
f 534 535 533
f 574 579 572
f 579 581 578
f 249 585 580
f 581 580 578
f 574 573 571
f 314 324 337
f 338 337 318
f 535 529 533
f 533 540 596
f 542 537 539
f 542 539 540
f 538 539 537
f 571 573 538
f 566 562 567
f 562 587 560
f 587 599 598
f 32 598 599
f 32 601 598
f 533 596 595
f 597 595 594
f 598 597 590
f 573 574 572
f 579 576 572
f 578 582 579
f 249 203 585
f 580 585 582
f 580 582 578
f 77 324 314
f 338 314 337
f 340 338 318
f 540 539 596
f 539 538 544
f 572 538 573
f 567 562 560
f 560 587 588
f 587 598 588
f 596 594 595
f 594 591 597
f 590 597 591
f 598 590 589
f 572 576 570
f 579 577 576
f 579 582 577
f 585 203 582
f 77 305 324
f 72 314 338
f 340 318 339
f 72 338 340
f 596 539 541
f 544 538 545
f 539 544 543
f 572 570 538
f 567 560 568
f 560 588 554
f 588 598 600
f 596 541 594
f 594 593 591
f 590 591 557
f 589 590 553
f 600 598 589
f 576 545 570
f 582 576 577
f 582 203 584
f 70 305 77
f 305 293 324
f 340 339 65
f 73 72 340
f 541 539 543
f 538 570 545
f 544 545 543
f 568 560 555
f 554 555 560
f 554 588 553
f 588 600 553
f 594 541 593
f 591 593 546
f 553 590 557
f 591 550 557
f 600 589 553
f 576 543 545
f 576 582 548
f 203 23 584
f 583 582 584
f 74 305 70
f 305 295 293
f 293 279 324
f 65 73 340
f 541 543 546
f 30 568 555
f 554 556 555
f 556 554 553
f 593 541 546
f 591 546 592
f 553 557 558
f 557 550 552
f 592 550 591
f 576 548 543
f 582 583 548
f 584 23 548
f 548 583 584
f 74 300 305
f 295 262 293
f 305 300 295
f 279 293 262
f 324 279 268
f 546 543 547
f 30 555 29
f 555 556 28
f 553 559 556
f 592 546 547
f 559 553 558
f 557 551 558
f 550 549 552
f 551 557 552
f 592 549 550
f 543 548 552
f 31 548 23
f 76 300 74
f 312 262 295
f 300 312 295
f 279 262 255
f 268 279 288
f 324 268 286
f 547 543 552
f 29 555 28
f 28 556 25
f 556 559 25
f 592 547 552
f 559 558 26
f 592 552 549
f 551 552 31
f 552 548 569
f 569 548 31
f 76 312 300
f 312 301 262
f 262 264 255
f 279 255 288
f 288 286 268
f 559 27 25
f 558 31 26
f 559 26 27
f 558 551 31
f 552 569 31
f 76 81 312
f 301 264 262
f 331 301 312
f 264 225 255
f 288 255 252
f 71 81 76
f 81 331 312
f 301 290 264
f 301 331 290
f 225 222 255
f 264 290 225
f 255 228 252
f 288 252 260
f 71 76 78
f 71 79 81
f 83 331 81
f 319 290 331
f 225 229 222
f 228 255 222
f 263 225 290
f 252 228 260
f 269 288 260
f 68 71 78
f 71 80 79
f 79 57 81
f 57 83 81
f 83 347 331
f 319 273 290
f 331 330 319
f 229 251 222
f 225 224 229
f 228 222 251
f 263 224 225
f 273 263 290
f 260 228 261
f 66 71 68
f 68 78 75
f 55 80 71
f 55 79 80
f 55 57 79
f 57 84 83
f 85 347 83
f 347 330 331
f 319 307 273
f 319 330 307
f 229 245 251
f 224 177 229
f 228 251 258
f 263 220 224
f 274 263 273
f 261 228 258
f 66 68 75
f 67 71 66
f 55 71 52
f 53 57 55
f 82 84 57
f 84 347 85
f 347 341 330
f 307 274 273
f 330 322 307
f 229 188 245
f 251 245 250
f 224 172 177
f 229 177 188
f 258 251 257
f 224 220 172
f 263 282 220
f 274 282 263
f 66 75 69
f 48 67 66
f 48 71 67
f 53 55 52
f 52 71 48
f 53 58 57
f 57 86 82
f 102 347 84
f 341 322 330
f 347 333 341
f 313 274 307
f 322 302 307
f 245 188 231
f 245 231 250
f 251 250 257
f 172 173 177
f 188 177 243
f 220 211 172
f 282 227 220
f 313 282 274
f 61 66 69
f 48 66 63
f 50 53 52
f 50 52 48
f 53 56 58
f 58 86 57
f 86 98 82
f 102 88 347
f 341 333 322
f 347 353 333
f 302 313 307
f 322 313 302
f 188 243 231
f 250 231 243
f 257 250 242
f 172 156 173
f 173 169 177
f 243 177 189
f 154 172 211
f 220 209 211
f 227 209 220
f 282 289 227
f 313 289 282
f 60 66 61
f 45 48 63
f 63 66 60
f 50 51 53
f 38 50 48
f 51 56 53
f 59 58 56
f 58 59 86
f 82 98 102
f 86 89 98
f 82 88 102
f 347 88 353
f 333 313 322
f 353 342 333
f 250 243 242
f 172 154 156
f 173 156 171
f 173 171 169
f 177 169 189
f 243 189 239
f 211 210 154
f 211 209 227
f 289 211 227
f 303 289 313
f 60 61 63
f 48 45 42
f 45 63 46
f 51 50 38
f 39 38 48
f 51 54 56
f 56 54 59
f 59 87 86
f 98 96 102
f 86 87 89
f 98 89 96
f 88 100 353
f 333 325 313
f 333 342 325
f 355 342 353
f 243 239 242
f 156 154 171
f 171 174 169
f 189 169 239
f 210 207 154
f 271 210 211
f 271 211 289
f 303 297 289
f 313 317 303
f 63 61 64
f 42 45 46
f 42 39 48
f 46 63 64
f 39 51 38
f 37 54 51
f 87 90 89
f 89 93 96
f 100 355 353
f 325 317 313
f 342 343 325
f 342 355 343
f 239 233 242
f 154 155 171
f 169 174 179
f 174 171 151
f 239 169 233
f 154 207 145
f 210 208 207
f 271 226 210
f 289 278 271
f 297 278 289
f 303 317 297
f 43 42 46
f 40 39 42
f 62 46 64
f 39 37 51
f 90 91 89
f 89 91 93
f 93 95 96
f 100 96 355
f 325 326 317
f 325 343 326
f 355 354 343
f 155 154 152
f 171 155 151
f 169 179 187
f 179 174 187
f 151 161 174
f 169 187 233
f 152 154 145
f 207 141 145
f 207 208 136
f 210 221 208
f 226 221 210
f 278 226 271
f 297 291 278
f 317 326 297
f 43 40 42
f 43 46 49
f 41 39 40
f 49 46 62
f 36 37 39
f 91 92 93
f 93 92 95
f 96 95 105
f 96 104 355
f 343 344 326
f 354 346 343
f 355 346 354
f 152 145 155
f 151 155 161
f 187 174 186
f 174 161 175
f 141 142 145
f 207 142 141
f 136 134 207
f 221 136 208
f 270 221 226
f 291 226 278
f 297 270 291
f 326 321 297
f 43 47 40
f 41 33 39
f 41 40 47
f 35 36 39
f 92 94 95
f 95 99 105
f 104 97 355
f 326 344 321
f 343 346 344
f 97 346 355
f 155 145 144
f 144 161 155
f 174 180 186
f 161 146 175
f 174 175 180
f 142 148 145
f 134 142 207
f 136 212 134
f 213 136 221
f 270 267 221
f 291 270 226
f 297 284 270
f 321 309 297
f 44 47 43
f 33 35 39
f 34 33 41
f 95 94 99
f 99 101 105
f 344 328 321
f 352 344 346
f 97 103 346
f 144 145 146
f 144 146 161
f 180 238 186
f 175 146 148
f 162 180 175
f 142 134 148
f 146 145 148
f 212 127 134
f 213 212 136
f 267 213 221
f 275 267 270
f 284 285 270
f 297 285 284
f 309 285 297
f 328 309 321
f 33 34 35
f 99 94 101
f 335 328 344
f 352 360 344
f 360 352 346
f 103 360 346
f 180 183 238
f 148 147 175
f 175 165 162
f 162 183 180
f 134 140 148
f 134 127 140
f 212 123 127
f 213 267 212
f 285 267 275
f 285 275 270
f 309 320 285
f 328 320 309
f 335 351 328
f 344 351 335
f 360 351 344
f 103 361 360
f 183 162 238
f 148 149 147
f 175 147 165
f 165 164 162
f 140 143 148
f 127 137 140
f 127 123 133
f 212 122 123
f 267 214 212
f 285 266 267
f 320 281 285
f 328 329 320
f 351 329 328
f 361 351 360
f 103 106 361
f 162 191 238
f 165 147 149
f 143 149 148
f 162 164 191
f 165 163 164
f 140 137 143
f 127 133 137
f 123 120 133
f 122 121 123
f 214 122 212
f 266 214 267
f 285 281 266
f 320 298 281
f 329 298 320
f 351 359 329
f 361 358 351
f 361 106 358
f 238 191 235
f 165 149 160
f 150 149 143
f 164 163 191
f 165 192 163
f 137 150 143
f 137 133 132
f 123 121 120
f 120 128 133
f 122 214 121
f 266 272 214
f 281 272 266
f 298 280 281
f 329 316 298
f 359 356 329
f 351 358 359
f 106 359 358
f 235 191 192
f 160 149 166
f 192 165 160
f 150 166 149
f 191 163 192
f 137 132 150
f 133 128 132
f 121 124 120
f 124 128 120
f 214 272 121
f 280 272 281
f 280 298 272
f 298 316 287
f 308 316 329
f 356 345 329
f 359 365 356
f 106 107 359
f 235 192 236
f 160 166 159
f 192 160 159
f 166 150 138
f 132 128 150
f 121 114 124
f 124 114 128
f 272 116 121
f 272 298 287
f 316 306 287
f 332 316 308
f 329 332 308
f 329 345 332
f 350 345 356
f 365 368 356
f 107 365 359
f 236 192 190
f 166 138 159
f 167 192 159
f 150 139 138
f 150 128 139
f 116 114 121
f 114 119 128
f 272 287 116
f 287 306 116
f 315 306 316
f 332 315 316
f 345 349 332
f 350 349 345
f 368 350 356
f 366 368 365
f 192 182 190
f 190 254 236
f 159 138 167
f 182 192 167
f 135 138 139
f 128 135 139
f 116 306 114
f 114 112 119
f 128 119 131
f 315 334 306
f 349 315 332
f 350 334 349
f 368 357 350
f 375 368 366
f 182 247 190
f 254 190 247
f 167 138 168
f 182 167 168
f 135 131 138
f 128 131 135
f 108 114 306
f 108 112 114
f 112 117 119
f 119 129 131
f 334 296 306
f 349 334 315
f 350 348 334
f 357 348 350
f 368 363 357
f 373 375 366
f 375 372 368
f 247 182 248
f 254 247 248
f 138 153 168
f 182 168 170
f 131 130 138
f 306 296 108
f 112 108 110
f 112 115 117
f 117 118 119
f 119 118 129
f 131 129 130
f 348 296 334
f 348 357 336
f 363 362 357
f 368 364 363
f 373 379 375
f 372 369 368
f 375 369 372
f 170 248 182
f 254 248 253
f 129 153 138
f 168 153 157
f 170 168 157
f 130 129 138
f 296 294 108
f 108 294 110
f 110 111 112
f 112 113 115
f 117 115 118
f 129 118 153
f 348 336 296
f 9 336 357
f 362 10 357
f 363 364 362
f 369 364 368
f 378 379 373
f 379 370 375
f 375 370 369
f 170 194 248
f 253 248 259
f 157 153 215
f 194 170 157
f 296 304 294
f 294 109 110
f 110 265 111
f 112 111 113
f 115 113 118
f 158 153 118
f 296 336 311
f 9 6 336
f 10 9 357
f 362 11 10
f 364 367 362
f 367 364 369
f 3 379 378
f 379 377 370
f 370 371 369
f 248 194 241
f 259 248 249
f 158 215 153
f 157 215 178
f 194 157 241
f 304 311 294
f 311 304 296
f 109 265 110
f 109 294 311
f 265 113 111
f 118 113 125
f 118 176 158
f 336 327 311
f 6 5 336
f 367 11 362
f 369 371 367
f 3 2 379
f 377 371 370
f 376 377 379
f 241 201 248
f 248 202 249
f 158 195 215
f 157 178 181
f 215 217 178
f 157 230 241
f 7 265 109
f 311 7 109
f 265 219 113
f 125 113 126
f 125 126 118
f 126 176 118
f 158 176 195
f 327 5 311
f 336 5 327
f 371 11 367
f 379 2 376
f 377 374 371
f 1 377 376
f 241 230 201
f 248 201 202
f 195 218 215
f 230 157 181
f 181 178 197
f 178 217 197
f 215 216 217
f 7 8 265
f 311 5 7
f 219 176 113
f 265 12 219
f 113 176 126
f 176 218 195
f 371 1 11
f 2 4 376
f 374 1 371
f 377 1 374
f 4 1 376
f 230 205 201
f 202 201 200
f 215 218 216
f 230 181 197
f 197 217 206
f 218 217 216
f 8 13 265
f 176 219 218
f 12 14 219
f 13 12 265
f 205 199 201
f 230 197 205
f 201 199 200
f 197 206 223
f 206 217 196
f 219 14 218
f 205 197 199
f 200 199 204
f 223 199 197
f 206 196 223
f 18 196 217
f 14 16 218
f 204 199 240
f 223 198 199
f 196 21 223
f 196 18 19
f 17 18 217
f 16 15 218
f 198 240 199
f 204 240 24
f 22 198 223
f 196 20 21
f 223 21 22
f 196 19 20
f 17 217 218
f 15 17 218
f 198 22 240
f 240 22 24

