# https://github.com/mikedh/trimesh
v -0.23036900 -0.45432499 -0.12771200
v -0.24419538 -0.45743325 -0.11850650
v -0.27527251 -0.46491974 -0.09185250
v -0.06536450 -0.44306550 -0.16712375
v -0.08970000 -0.44823301 -0.16671100
v -0.15492850 -0.45345713 -0.15839350
v -0.17684799 -0.45322600 -0.15238900
v -0.18875501 -0.45612901 -0.14831100
v -0.21070149 -0.45680051 -0.13864899
v -0.11764575 -0.45264100 -0.16483100
v -0.32545301 -0.45835000 0.03787200
v -0.32510799 -0.45779300 0.04110500
v -0.32596600 -0.46032399 0.02818700
v -0.32565876 -0.46279150 0.01817825
v -0.32255649 -0.46166300 -0.00411775
v -0.31202900 -0.46624601 -0.03691400
v -0.29147463 -0.46630937 -0.07173625
v -0.31289650 -0.47458775 -0.02867975
v -0.32389909 -0.47073473 0.01423002
v -0.32065306 -0.47456635 -0.00072670
v -0.31819001 -0.47610900 -0.00825300
v -0.31671500 -0.47315499 -0.01888800
v -0.31915299 -0.47779800 0.00246250
v -0.32266964 -0.47431283 0.02124485
v -0.31916550 -0.47608350 -0.00325550
v -0.32415603 -0.46675367 0.00633764
v -0.32368684 -0.47158950 0.03349165
v -0.32493457 -0.46727717 0.01668716
v -0.32120901 -0.47621000 0.03201600
v -0.31919000 -0.48007700 0.02247300
v -0.32216197 -0.46584485 -0.00611308
v -0.31843903 -0.47028347 -0.01675946
v -0.31339478 -0.47093229 -0.03159532
v -0.31956388 -0.46451008 -0.01663110
v -0.32392754 -0.46949436 0.03865245
v -0.32564679 -0.46507377 0.02096135
v -0.31466204 -0.46821406 -0.02987552
v -0.30881250 -0.47141850 -0.04132850
v -0.32531510 -0.46395806 0.03842609
v -0.32432450 -0.46054299 0.04666000
v -0.32244100 -0.46421000 0.05421600
v -0.32068699 -0.46878150 0.05672600
v -0.32273110 -0.47033580 0.04598135
v -0.31918401 -0.47069401 0.05965500
v -0.32043600 -0.47614950 0.03969450
v -0.31925601 -0.47476900 0.05112500
v -0.31820500 -0.47317499 0.05888500
v -0.30040283 -0.47593815 -0.05522258
v -0.28407658 -0.48710545 -0.07135622
v -0.28616181 -0.49048564 -0.06602036
v -0.29478800 -0.49002400 -0.05187900
v -0.28062433 -0.47503893 -0.08396828
v -0.29446278 -0.47420900 -0.06577021
v -0.26286752 -0.48676924 -0.09618037
v -0.26893912 -0.48875190 -0.08886008
v -0.25429110 -0.49113672 -0.10270961
v -0.28250737 -0.47196338 -0.08249611
v -0.26663613 -0.47826835 -0.09727130
v -0.26444438 -0.47036797 -0.10195710
v -0.25029149 -0.48698383 -0.10726753
v -0.28172147 -0.46945774 -0.08434780
v -0.29993302 -0.48871053 -0.04211692
v -0.30611739 -0.47866748 -0.04078348
v -0.24939021 -0.47207540 -0.11467138
v -0.24502254 -0.48837571 -0.11083208
v -0.25708585 -0.46568051 -0.10908398
v -0.23512678 -0.48863780 -0.11756188
v -0.22104842 -0.48043732 -0.12974893
v -0.24363934 -0.47140057 -0.11847097
v -0.27295136 -0.49101431 -0.08399767
v -0.23433327 -0.47600274 -0.12382559
v -0.21463763 -0.47371079 -0.13547079
v -0.23476386 -0.46855005 -0.12521093
v -0.24877945 -0.46224270 -0.11570740
v -0.23864212 -0.49102713 -0.11488946
v -0.23920890 -0.46036253 -0.12252797
v -0.28930900 -0.49240100 -0.06084100
v -0.31116873 -0.47805327 -0.02912760
v -0.27709219 -0.49238562 -0.07829150
v -0.24234699 -0.49232450 -0.11230600
v -0.22795962 -0.45872234 -0.12964841
v -0.21691900 -0.49155500 -0.12795850
v -0.30091301 -0.49052000 -0.03785700
v -0.30591775 -0.49030513 -0.02262212
v -0.31619374 -0.48027049 -0.00599100
v -0.16790662 -0.47671816 -0.15287110
v -0.16746150 -0.48869725 -0.14805193
v -0.17486956 -0.48899447 -0.14583851
v -0.15327941 -0.48635028 -0.15251343
v -0.16085735 -0.47691399 -0.15478641
v -0.14717981 -0.48660999 -0.15359903
v -0.14698887 -0.47725837 -0.15758370
v -0.13539550 -0.48826249 -0.15507000
v -0.10191950 -0.48177199 -0.16066350
v -0.11650499 -0.47874035 -0.16101268
v -0.13655899 -0.47413099 -0.16026799
v -0.12171832 -0.47538889 -0.16180357
v -0.07143950 -0.47819400 -0.16284700
v -0.08941860 -0.47732188 -0.16298262
v -0.07547929 -0.47484970 -0.16401452
v -0.08761020 -0.47020666 -0.16519118
v -0.03240650 -0.47134401 -0.16446450
v -0.08083955 -0.46899744 -0.16572632
v -0.16172912 -0.47295545 -0.15591935
v -0.04802812 -0.46731068 -0.16576809
v -0.01172500 -0.46723300 -0.16474301
v -0.11742129 -0.46460911 -0.16455727
v -0.06492195 -0.45851629 -0.16722513
v -0.07982900 -0.45884401 -0.16703400
v 0.02872350 -0.46030050 -0.16372450
v 0.02624800 -0.46415100 -0.16342400
v 0.01295000 -0.46575299 -0.16394000
v -0.13068965 -0.46871826 -0.16250103
v -0.16035924 -0.46399251 -0.15761590
v -0.02235792 -0.45899974 -0.16627682
v 0.01754919 -0.45893152 -0.16456097
v 0.02106200 -0.45415551 -0.16463450
v -0.00852488 -0.46074621 -0.16571404
v -0.11285339 -0.46308172 -0.16529521
v -0.10446616 -0.45527511 -0.16626021
v -0.14147372 -0.46381769 -0.16169283
v -0.07106705 -0.45383588 -0.16748686
v -0.07659320 -0.44970630 -0.16730153
v -0.05501108 -0.44543135 -0.16733783
v -0.02885700 -0.43662399 -0.16646500
v -0.02410776 -0.44880645 -0.16678156
v -0.01078200 -0.44664350 -0.16622650
v 0.01190900 -0.45282999 -0.16520400
v -0.12808608 -0.45506910 -0.16371842
v -0.16891422 -0.46545652 -0.15508040
v -0.17889826 -0.47378492 -0.15040653
v -0.18123309 -0.48378733 -0.14573458
v -0.19029203 -0.47919247 -0.14437169
v -0.18948726 -0.46909521 -0.14759720
v -0.14946747 -0.45673920 -0.16025717
v -0.16465133 -0.45961959 -0.15660614
v -0.19798566 -0.48827946 -0.13765603
v -0.17736750 -0.46323026 -0.15255267
v -0.21151095 -0.48969783 -0.13118581
v -0.19019021 -0.46277160 -0.14812107
v -0.21077956 -0.47338347 -0.13782620
v -0.18202066 -0.45545482 -0.15078530
v -0.20669329 -0.46032351 -0.14090147
v -0.15779224 -0.48957650 -0.15044650
v -0.19887925 -0.49138649 -0.13698075
v -0.22239598 -0.46737451 -0.13260753
v -0.24985400 -0.49325250 -0.10682050
f 33 16 37
f 32 33 37
f 34 32 37
f 31 32 34
f 15 31 34
f 26 31 15
f 26 20 31
f 26 19 20
f 28 19 26
f 28 26 36
f 36 19 28
f 27 19 36
f 35 27 36
f 35 36 39
f 13 39 36
f 11 39 13
f 12 39 11
f 12 40 39
f 41 39 40
f 41 43 39
f 41 42 43
f 44 43 42
f 44 47 43
f 47 46 43
f 46 45 43
f 43 45 27
f 45 29 27
f 29 30 27
f 27 30 24
f 24 30 20
f 30 25 20
f 25 21 20
f 21 22 20
f 18 22 21
f 22 18 33
f 18 38 33
f 78 18 21
f 21 84 78
f 62 78 84
f 62 84 83
f 62 83 51
f 48 62 51
f 62 48 63
f 18 63 48
f 17 18 48
f 17 48 53
f 17 53 61
f 61 53 57
f 61 57 52
f 61 52 59
f 3 61 59
f 66 3 59
f 64 66 59
f 74 66 64
f 74 2 66
f 2 74 76
f 2 76 81
f 76 73 81
f 81 73 146
f 143 81 146
f 146 141 143
f 141 146 72
f 146 71 72
f 71 68 72
f 68 71 65
f 71 60 65
f 64 60 71
f 69 64 71
f 69 71 73
f 73 64 69
f 64 54 60
f 64 58 54
f 58 55 54
f 55 58 52
f 49 55 52
f 49 70 55
f 55 70 56
f 50 70 49
f 50 79 70
f 50 77 79
f 51 77 50
f 51 50 53
f 50 49 53
f 53 49 52
f 55 56 54
f 54 56 60
f 65 60 56
f 65 56 75
f 67 65 75
f 139 67 75
f 139 75 82
f 139 82 145
f 75 80 82
f 68 67 139
f 141 68 139
f 137 141 139
f 133 141 137
f 141 133 131
f 134 141 131
f 140 141 134
f 138 140 134
f 136 140 138
f 6 140 136
f 6 7 140
f 7 142 140
f 142 8 140
f 8 143 140
f 9 143 8
f 8 142 7
f 6 136 135
f 135 136 121
f 121 136 114
f 114 104 121
f 121 104 113
f 107 121 113
f 119 121 107
f 129 121 119
f 120 129 119
f 10 129 120
f 10 6 129
f 5 10 120
f 5 120 123
f 123 120 122
f 124 123 122
f 4 123 124
f 125 4 124
f 125 124 126
f 125 126 127
f 127 126 118
f 127 118 128
f 117 128 118
f 117 118 116
f 110 116 118
f 110 118 111
f 111 118 112
f 112 118 106
f 106 118 102
f 118 105 102
f 118 115 105
f 105 115 108
f 126 108 115
f 126 122 108
f 122 109 108
f 122 119 109
f 109 119 108
f 119 103 108
f 103 119 101
f 119 97 101
f 101 97 99
f 101 99 100
f 98 100 99
f 103 100 98
f 103 98 102
f 98 99 94
f 99 95 94
f 95 93 94
f 95 97 93
f 97 92 93
f 96 92 97
f 96 97 113
f 113 92 96
f 92 91 93
f 93 91 144
f 89 144 91
f 89 87 144
f 87 88 144
f 88 145 144
f 89 88 87
f 92 88 89
f 92 90 88
f 104 90 92
f 90 104 86
f 104 131 86
f 130 131 104
f 86 131 132
f 90 86 132
f 90 132 88
f 132 137 88
f 92 89 91
f 99 97 95
f 103 101 100
f 108 103 105
f 105 103 102
f 117 116 110
f 118 126 115
f 124 122 126
f 4 5 123
f 122 120 119
f 107 97 119
f 107 113 97
f 113 104 92
f 130 104 114
f 114 138 130
f 129 135 121
f 6 135 129
f 136 138 114
f 130 138 134
f 130 134 131
f 131 133 132
f 132 133 137
f 137 139 88
f 75 56 80
f 56 147 80
f 68 65 67
f 141 72 68
f 143 141 140
f 9 81 143
f 9 1 81
f 146 73 71
f 73 76 64
f 1 2 81
f 76 74 64
f 64 59 58
f 2 3 66
f 59 52 58
f 53 52 57
f 17 61 3
f 48 51 53
f 78 62 63
f 85 84 21
f 21 23 85
f 18 78 63
f 20 22 32
f 13 36 14
f 36 15 14
f 43 35 39
f 43 27 35
f 27 24 19
f 24 20 19
f 36 26 15
f 31 20 32
f 22 33 32
f 34 37 16
f 16 33 38

