v -0.267753 -0.139494 -0.0473187
v -0.26807 -0.131861 -0.0452763
v -0.265305 -0.130207 -0.0530207
v -0.263425 -0.153223 -0.0589171
v -0.264182 -0.145534 -0.0569841
v -0.264939 -0.137846 -0.055051
v -0.263041 -0.185229 -0.0601633
v -0.261569 -0.168531 -0.0630456
v -0.262541 -0.160886 -0.0609475
v -0.260777 -0.176198 -0.0650376
v -0.259045 -0.191545 -0.0689501
v -0.260007 -0.18387 -0.0670043
v -0.258599 -0.159509 -0.0678335
v -0.256926 -0.174888 -0.0717836
v -0.257716 -0.167193 -0.0697977
v -0.257764 -0.20698 -0.07276
v -0.258247 -0.19924 -0.07093
v -0.260688 -0.208242 -0.0660245
v -0.266144 -0.21296 -0.0458157
v -0.264923 -0.211185 -0.0525464
v -0.266004 -0.203533 -0.0502514
v -0.266859 -0.195941 -0.0480182
v -0.267715 -0.188349 -0.045785
v -0.268559 -0.180777 -0.0434741
v -0.269395 -0.173215 -0.0411213
v -0.272484 -0.143007 -0.0315522
v -0.273315 -0.148764 -0.0159422
v -0.273528 -0.145106 -0.0233418
v -0.274325 -0.14174 -0.0129456
v -0.274067 -0.1456 -0.00552675
v -0.273029 -0.149881 0.00176883
v -0.271233 -0.167404 -0.0136159
v -0.272025 -0.159979 -0.0110734
v -0.27146 -0.156366 -0.00132443
v -0.272816 -0.152554 -0.00853081
v -0.268251 -0.200638 -0.0337277
v -0.269387 -0.1822 -0.0188343
v -0.270349 -0.17481 -0.0162056
v -0.267432 -0.208066 -0.0363982
v -0.268531 -0.197264 -0.0244051
v -0.268948 -0.189729 -0.0216164
v -0.270828 -0.163844 -0.00404258
v -0.269461 -0.178828 -0.00957581
v -0.270152 -0.171334 -0.00681044
v -0.269082 -0.19326 -0.0310354
v -0.26974 -0.185837 -0.0284624
v -0.270523 -0.178407 -0.02597
v -0.271305 -0.170976 -0.0234775
v -0.272088 -0.163546 -0.0209851
v -0.267236 -0.205288 -0.0432052
v -0.268041 -0.197746 -0.0407387
v -0.268846 -0.190203 -0.0382723
v -0.269651 -0.182661 -0.0358058
v -0.270456 -0.175118 -0.0333393
v -0.271261 -0.167576 -0.0308728
v -0.272257 -0.153701 0.0092882
v -0.269802 -0.159617 0.00609382
v -0.267969 -0.163143 0.0136445
v -0.263595 -0.179798 0.0129273
v -0.263919 -0.173097 0.0165973
v -0.265684 -0.196479 -0.0047604
v -0.262847 -0.193299 0.00548413
v -0.263261 -0.186508 0.00924773
v -0.260838 -0.176537 0.0232559
v -0.255858 -0.192244 0.0226232
v -0.259839 -0.189836 0.0158075
v -0.260362 -0.183225 0.0195209
v -0.25641 -0.185602 0.0263623
v -0.257165 -0.178735 0.0302845
v -0.259286 -0.173366 0.0338785
v -0.262586 -0.170519 0.0271603
v -0.265525 -0.165371 0.0310072
v -0.268763 -0.161085 0.0252802
v -0.256468 -0.174941 0.0417918
v -0.249226 -0.182288 0.0442805
v -0.239897 -0.185522 0.0573829
v -0.245191 -0.183987 0.0512485
v -0.234455 -0.198166 0.0478685
v -0.231344 -0.193349 0.058326
v -0.236824 -0.191824 0.0523418
v -0.228753 -0.19938 0.0536798
v -0.225665 -0.194558 0.0641333
v -0.219883 -0.195781 0.0698271
v -0.213967 -0.196281 0.0752525
v -0.222316 -0.189925 0.0743357
v -0.20778 -0.196012 0.0805545
v -0.202885 -0.188419 0.0887201
v -0.210996 -0.180979 0.0871127
v -0.217547 -0.181557 0.082275
v -0.235958 -0.181508 0.0663436
v -0.242022 -0.179311 0.0608815
v -0.247729 -0.177266 0.0554233
v -0.223885 -0.182017 0.077202
v -0.229973 -0.182267 0.0718315
v -0.236343 -0.176817 0.067192
v -0.242782 -0.171524 0.062411
v -0.247844 -0.173913 0.0561007
v -0.230809 -0.174914 0.0730457
v -0.230918 -0.167249 0.0732841
v -0.23683 -0.169509 0.0678266
v -0.224721 -0.165872 0.078313
v -0.211595 -0.172528 0.087741
v -0.218215 -0.172896 0.0831547
v -0.20501 -0.172111 0.0921761
v -0.198099 -0.171613 0.0960763
v -0.19081 -0.171059 0.0992612
v -0.19131 -0.162893 0.0988822
v -0.184176 -0.162359 0.102135
v -0.184004 -0.154677 0.100735
v -0.190342 -0.146998 0.0953275
v -0.203211 -0.138824 0.0857743
v -0.208409 -0.130918 0.079276
v -0.220439 -0.121402 0.0672452
v -0.226787 -0.121013 0.0627192
v -0.232669 -0.121067 0.0572588
v -0.239372 -0.129416 0.0557749
v -0.253538 -0.142493 0.0472119
v -0.240939 -0.140434 0.0598028
v -0.235013 -0.139283 0.0647151
v -0.233695 -0.129356 0.0614667
v -0.228156 -0.129882 0.066407
v -0.221888 -0.129953 0.0708238
v -0.222965 -0.138788 0.0738377
v -0.211037 -0.146906 0.0845095
v -0.216653 -0.138654 0.0780026
v -0.217604 -0.147257 0.0805106
v -0.223911 -0.148304 0.075977
v -0.224613 -0.157053 0.0776989
v -0.23081 -0.158289 0.0730106
v -0.23686 -0.160071 0.0678677
v -0.242721 -0.162315 0.0623199
v -0.248377 -0.164888 0.0564618
v -0.253773 -0.158028 0.0501639
v -0.24833 -0.155801 0.0560456
v -0.242368 -0.152608 0.0615795
v -0.259167 -0.153072 0.0433837
v -0.259639 -0.146937 0.0419216
v -0.255928 -0.127965 0.049988
v -0.245921 -0.11866 0.0546912
v -0.271604 -0.155053 0.0194908
v -0.229697 -0.102918 0.0604622
v -0.23084 -0.111888 0.0553825
v -0.237898 -0.11061 0.0573171
v -0.238349 -0.121846 0.0517376
v -0.244675 -0.130351 0.0497754
v -0.257263 -0.13969 0.0461581
v -0.270889 -0.133516 -0.0375277
v -0.270726 -0.141153 -0.0395579
v -0.261023 -0.136458 -0.0620088
v -0.26442 -0.148332 0.0365348
v -0.262134 -0.139223 0.0423701
v -0.265517 -0.142118 0.0337264
v -0.268662 -0.14489 0.0251258
v -0.271834 -0.147269 0.0167477
v -0.268147 -0.138216 0.0219086
v -0.271074 -0.140468 0.0140347
v -0.264424 -0.129883 0.0258933
v -0.267738 -0.132691 0.0178712
v -0.263575 -0.123679 0.0213934
v -0.25332 -0.115044 0.0424232
v -0.25863 -0.11992 0.0314744
v -0.25944 -0.125524 0.0363454
v -0.25508 -0.120645 0.0472399
v -0.261311 -0.132221 0.0398357
v -0.24687 -0.110427 0.0538695
v -0.24586 -0.105176 0.0478048
v -0.244458 -0.100085 0.0417504
v -0.237792 -0.0964937 0.0492189
v -0.238147 -0.101908 0.0573846
v -0.252232 -0.109571 0.0377019
v -0.265038 -0.135963 0.0300821
v -0.273481 -0.147974 0.00913766
v -0.26805 -0.150889 0.0285131
v -0.263268 -0.155312 0.0371337
v -0.266857 -0.157342 0.0307656
v -0.258847 -0.15992 0.0440485
v -0.262584 -0.161636 0.0374309
v -0.26208 -0.168097 0.037255
v -0.253451 -0.166557 0.0501936
v -0.258213 -0.167741 0.043705
v -0.218089 -0.156342 0.0819372
v -0.21164 -0.155472 0.0863084
v -0.205031 -0.155185 0.0904139
v -0.205238 -0.163616 0.0917233
v -0.230118 -0.149308 0.0713376
v -0.229234 -0.139159 0.0695207
v -0.236321 -0.150284 0.0667079
v -0.247626 -0.145508 0.0546163
v -0.253835 -0.150053 0.0490172
v -0.215571 -0.130071 0.0751717
v -0.20446 -0.146879 0.088386
v -0.210054 -0.138507 0.0818654
v -0.191269 -0.15464 0.0977577
v -0.198172 -0.154958 0.0940643
v -0.197707 -0.146764 0.0920779
v -0.198353 -0.163294 0.0954478
v -0.211922 -0.164026 0.0875885
v -0.218422 -0.164716 0.0831956
v -0.224613 -0.173546 0.0782012
v -0.204207 -0.180574 0.0915846
v -0.196928 -0.180113 0.0951685
v -0.209585 -0.188715 0.0848468
v -0.215966 -0.189352 0.0796425
v -0.240206 -0.196993 0.0417473
v -0.24236 -0.190371 0.0463353
v -0.247838 -0.189075 0.0400152
v -0.251297 -0.194306 0.0291825
v -0.245932 -0.195811 0.0355471
v -0.24881 -0.200208 0.02463
v -0.257036 -0.202647 0.00741414
v -0.254249 -0.198599 0.0183052
v -0.243376 -0.201774 0.0309677
v -0.228236 -0.18885 0.0687533
v -0.234112 -0.187175 0.0631057
v -0.252436 -0.176419 0.0489356
v -0.252446 -0.187394 0.0333614
v -0.253611 -0.180664 0.0374868
v -0.259224 -0.196425 0.0120417
v -0.261839 -0.199918 0.00141835
v -0.259708 -0.206128 -0.00332359
v -0.264368 -0.202894 -0.0091273
v -0.267539 -0.199258 -0.0152936
v -0.267874 -0.192806 -0.0116414
v -0.268254 -0.186253 -0.00815714
v -0.268647 -0.17968 -0.00469998
v -0.269041 -0.173107 -0.00124282
v -0.260266 -0.144144 -0.0639489
v -0.266006 -0.189777 -0.00109197
v -0.266259 -0.183056 0.00250757
v -0.266511 -0.176335 0.00610712
v -0.266778 -0.169611 0.00971338
v -0.265545 -0.166773 0.0207014
v -0.269333 -0.166379 0.00237193
v -0.27416 -0.138955 -0.00242431
v -0.274304 -0.134469 -0.00999284
v -0.27402 -0.130415 -0.0184307
v -0.274012 -0.137832 -0.0208119
v -0.272843 -0.156114 -0.0184917
v -0.272802 -0.135391 -0.0290421
v -0.270229 -0.165653 -0.0387683
v -0.272066 -0.160029 -0.0284317
v -0.271035 -0.158092 -0.0364134
v -0.272873 -0.152468 -0.0260768
v -0.271842 -0.150532 -0.0340585
v -0.264871 -0.194304 -0.0551331
v -0.265723 -0.186712 -0.0529036
v -0.266575 -0.17912 -0.050674
v -0.267427 -0.171528 -0.0484445
v -0.268279 -0.163936 -0.046215
v -0.265742 -0.162308 -0.0538376
v -0.269131 -0.156344 -0.0439854
v -0.266594 -0.154716 -0.051608
v -0.269983 -0.148752 -0.0417559
v -0.267446 -0.147124 -0.0493785
v -0.263136 -0.209566 -0.059367
v -0.261361 -0.200562 -0.0641491
v -0.262233 -0.192895 -0.062164
v -0.264013 -0.201908 -0.0573329
v -0.263989 -0.177584 -0.0580676
v -0.264871 -0.169935 -0.0559788
v -0.259508 -0.151831 -0.0658891
f 2 3 6 1
f 6 5 254 1
f 254 253 148 1
f 148 147 2 1
f 5 227 261 4
f 261 13 9 4
f 9 250 252 4
f 252 254 5 4
f 6 149 227 5
f 259 10 12 7
f 12 11 257 7
f 257 245 246 7
f 246 247 259 7
f 9 13 15 8
f 15 14 10 8
f 10 259 260 8
f 260 250 9 8
f 17 256 257 11
f 18 256 17 16
f 255 258 256 18
f 50 21 20 19
f 21 258 255 20
f 22 245 258 21
f 50 51 22 21
f 23 246 245 22
f 51 52 23 22
f 24 247 246 23
f 52 53 24 23
f 25 248 247 24
f 53 54 25 24
f 240 249 248 25
f 54 55 240 25
f 239 147 148 26
f 148 253 244 26
f 244 243 28 26
f 28 237 239 26
f 29 237 28 27
f 28 243 238 27
f 238 33 35 27
f 35 30 29 27
f 235 236 237 29
f 30 234 235 29
f 35 34 31 30
f 33 238 49 32
f 49 48 38 32
f 38 43 44 32
f 44 42 33 32
f 42 34 35 33
f 45 52 51 36
f 51 50 39 36
f 38 48 47 37
f 47 46 41 37
f 41 46 45 40
f 46 53 52 45
f 47 54 53 46
f 48 55 54 47
f 49 241 55 48
f 238 243 241 49
f 241 242 240 55
f 57 58 140 56
f 140 154 172 56
f 233 231 58 57
f 231 60 232 58
f 232 73 140 58
f 60 231 230 59
f 230 229 63 59
f 63 66 67 59
f 67 64 60 59
f 64 71 232 60
f 228 224 223 61
f 223 222 221 61
f 221 220 219 61
f 219 62 228 61
f 63 229 228 62
f 219 210 218 62
f 218 66 63 62
f 67 68 69 64
f 69 70 71 64
f 68 67 66 65
f 66 218 211 65
f 211 209 207 65
f 207 216 68 65
f 216 217 69 68
f 217 74 70 69
f 178 72 71 70
f 74 180 178 70
f 72 73 232 71
f 217 75 215 74
f 215 179 180 74
f 217 216 206 75
f 206 205 77 75
f 77 92 215 75
f 91 92 77 76
f 77 205 80 76
f 80 79 214 76
f 214 90 91 76
f 80 205 204 78
f 81 79 80 78
f 82 213 214 79
f 83 85 213 82
f 84 203 85 83
f 86 202 203 84
f 93 94 213 85
f 203 89 93 85
f 200 88 202 87
f 102 103 89 88
f 89 203 202 88
f 200 104 102 88
f 103 199 93 89
f 214 213 94 90
f 199 98 94 93
f 98 99 100 95
f 131 132 97 96
f 100 130 131 96
f 199 101 99 98
f 129 130 100 99
f 101 128 129 99
f 199 103 198 101
f 198 181 128 101
f 197 198 103 102
f 104 184 197 102
f 200 201 105 104
f 105 196 184 104
f 106 107 196 105
f 193 194 196 107
f 108 109 193 107
f 195 194 193 110
f 192 124 191 111
f 190 125 192 112
f 114 121 122 113
f 115 120 121 114
f 144 116 120 115
f 144 139 145 116
f 145 188 118 116
f 118 119 120 116
f 146 151 137 117
f 137 136 189 117
f 189 188 145 117
f 145 138 146 117
f 188 134 135 118
f 135 187 119 118
f 187 185 186 119
f 186 121 120 119
f 186 123 122 121
f 123 125 190 122
f 186 185 127 123
f 127 126 125 123
f 192 125 126 124
f 126 181 182 124
f 182 183 191 124
f 127 128 181 126
f 185 129 128 127
f 185 187 130 129
f 187 135 131 130
f 135 134 132 131
f 134 133 179 132
f 189 136 176 133
f 176 180 179 133
f 134 188 189 133
f 137 150 174 136
f 174 177 176 136
f 151 152 150 137
f 163 162 164 138
f 164 151 146 138
f 145 139 163 138
f 165 160 163 139
f 144 143 165 139
f 169 143 142 141
f 169 166 165 143
f 152 153 173 150
f 173 175 174 150
f 164 171 152 151
f 171 155 153 152
f 155 156 154 153
f 154 140 173 153
f 171 157 158 155
f 171 164 162 157
f 162 161 159 157
f 161 162 163 160
f 165 166 170 160
f 169 168 167 166
f 177 178 180 176
f 198 197 182 181
f 197 184 183 182
f 184 196 194 183
f 194 195 191 183
f 205 206 208 204
f 216 207 208 206
f 209 212 208 207
f 228 229 225 224
f 229 230 226 225
f 230 231 233 226
f 242 251 249 240
f 243 244 242 241
f 244 253 251 242
f 257 256 258 245
f 248 260 259 247
f 249 250 260 248
f 251 252 250 249
f 253 254 252 251
