v -0.353599 -0.382529 0.0142261
v -0.356334 -0.370477 0.0185251
v -0.354238 -0.387168 0.0260487
v -0.357306 -0.375332 0.030261
v -0.35835 -0.34709 0.0556789
v -0.357178 -0.336167 0.0613755
v -0.355204 -0.325579 0.0673371
v -0.354758 -0.318465 0.0560366
v -0.357454 -0.329407 0.0502278
v -0.359402 -0.340534 0.044675
v -0.357461 -0.334796 0.0331576
v -0.357943 -0.34659 0.0279462
v -0.357718 -0.358591 0.0230219
v -0.354862 -0.353597 0.0117834
v -0.351151 -0.348845 0.000849324
v -0.351918 -0.336404 0.00576448
v -0.35475 -0.341448 0.0167605
v -0.35312 -0.329705 0.0220977
v -0.355144 -0.323464 0.0388223
v -0.350449 -0.318373 0.0277075
v -0.351569 -0.31264 0.0447198
v -0.346833 -0.307531 0.0335226
v -0.350956 -0.311915 0.0167333
v -0.352004 -0.324105 0.0109121
v -0.344476 -0.320333 0.00139194
v -0.345279 -0.332372 -0.00409661
v -0.337968 -0.285058 0.0197746
v -0.334606 -0.273613 0.0262299
v -0.330096 -0.262736 0.0329576
v -0.320614 -0.261216 0.0229275
v -0.29967 -0.245517 0.00724933
v -0.293282 -0.241622 -0.00412281
v -0.281697 -0.233043 -0.0271168
v -0.276285 -0.228717 -0.0386744
v -0.27091 -0.224609 -0.0503265
v -0.26903 -0.232047 -0.0677047
v -0.265129 -0.220924 -0.0620982
v -0.252134 -0.202434 -0.082535
v -0.252479 -0.189566 -0.0803998
v -0.244293 -0.200466 -0.0929095
v -0.244622 -0.187615 -0.0907153
v -0.245044 -0.174734 -0.0885945
v -0.245582 -0.161816 -0.0865641
v -0.246075 -0.148905 -0.0844937
v -0.246472 -0.13601 -0.0823373
v -0.237583 -0.134178 -0.0917758
v -0.226635 -0.17117 -0.106791
v -0.237166 -0.147078 -0.0938902
v -0.226284 -0.184064 -0.109003
v -0.236825 -0.159966 -0.0961129
v -0.226378 -0.210039 -0.114412
v -0.226287 -0.197113 -0.111653
v -0.216226 -0.208911 -0.122544
v -0.217958 -0.221621 -0.12633
v -0.235362 -0.25911 -0.13071
v -0.233034 -0.246768 -0.126625
v -0.230721 -0.234534 -0.122519
v -0.228339 -0.222366 -0.118318
v -0.243196 -0.247546 -0.118371
v -0.240661 -0.235489 -0.114003
v -0.238125 -0.223431 -0.109636
v -0.260972 -0.25055 -0.0992755
v -0.246775 -0.225094 -0.0997932
v -0.263858 -0.262345 -0.104002
v -0.249653 -0.236898 -0.10451
v -0.252409 -0.248812 -0.109102
v -0.257213 -0.273097 -0.117698
v -0.254931 -0.26088 -0.113495
v -0.247732 -0.27209 -0.126549
v -0.250693 -0.297174 -0.133369
v -0.24936 -0.284593 -0.130131
v -0.261698 -0.31073 -0.128102
v -0.262273 -0.323485 -0.130416
v -0.251572 -0.309901 -0.136092
v -0.271014 -0.324958 -0.121464
v -0.310959 -0.334808 -0.075082
v -0.334319 -0.34859 -0.0344005
v -0.328587 -0.345101 -0.0446414
v -0.322854 -0.341612 -0.0548822
v -0.317121 -0.338123 -0.0651231
v -0.329008 -0.332475 -0.0408113
v -0.322905 -0.328941 -0.0510869
v -0.321664 -0.316765 -0.046163
v -0.315344 -0.313219 -0.0566352
v -0.306732 -0.298007 -0.0621254
v -0.308847 -0.30993 -0.0670986
v -0.299879 -0.295104 -0.0726037
v -0.302042 -0.30714 -0.0773953
v -0.294475 -0.304827 -0.0874443
v -0.286918 -0.302582 -0.097408
v -0.285108 -0.290256 -0.0932292
v -0.28832 -0.315055 -0.101172
v -0.278759 -0.300715 -0.107116
v -0.276999 -0.288336 -0.103
v -0.268284 -0.286763 -0.112496
v -0.269954 -0.299239 -0.116257
v -0.274949 -0.276088 -0.0987332
v -0.280387 -0.266311 -0.0837063
v -0.28296 -0.278181 -0.0885642
v -0.29047 -0.280542 -0.0781705
v -0.287447 -0.268839 -0.0730461
v -0.294348 -0.271492 -0.06228
v -0.297375 -0.263665 -0.0457525
v -0.290877 -0.260057 -0.0568977
v -0.292832 -0.253015 -0.0397786
v -0.28626 -0.249452 -0.0508878
v -0.281652 -0.238903 -0.0449178
v -0.275563 -0.235243 -0.0563782
v -0.310001 -0.27118 -0.0234698
v -0.305122 -0.260773 -0.0172458
v -0.298912 -0.256925 -0.0285228
v -0.306149 -0.254621 0.000509818
v -0.299649 -0.250816 -0.0108214
v -0.318315 -0.268136 0.00513957
v -0.311579 -0.264523 -0.00605113
v -0.31628 -0.275013 -0.0123541
v -0.333425 -0.293181 0.00332805
v -0.326763 -0.289555 -0.00763747
v -0.3201 -0.285928 -0.018603
v -0.329744 -0.300919 -0.0136409
v -0.323473 -0.29717 -0.0243716
v -0.332232 -0.312449 -0.0194703
v -0.310736 -0.289754 -0.0460958
v -0.317215 -0.293413 -0.0352147
v -0.307672 -0.278367 -0.0404911
v -0.301334 -0.274647 -0.05151
v -0.30381 -0.267334 -0.0346537
v -0.313876 -0.282152 -0.0294201
v -0.322757 -0.278734 -0.00126359
v -0.32942 -0.282335 0.00975983
v -0.325556 -0.27139 0.0161921
v -0.283941 -0.257291 -0.0677378
v -0.276881 -0.254722 -0.0785614
v -0.273045 -0.243259 -0.0732607
v -0.265921 -0.240892 -0.084136
v -0.262386 -0.22929 -0.0789106
v -0.259052 -0.217619 -0.0737442
v -0.292641 -0.292596 -0.0830532
v -0.304235 -0.286147 -0.056951
v -0.297575 -0.283171 -0.0675996
v -0.326057 -0.30866 -0.0301152
v -0.319734 -0.304966 -0.040841
v -0.31341 -0.301273 -0.0515668
v -0.327907 -0.320338 -0.0357132
v -0.335003 -0.336262 -0.0304402
v -0.316677 -0.325468 -0.0613155
v -0.310166 -0.322225 -0.0712137
v -0.303303 -0.31951 -0.081397
v -0.29582 -0.317282 -0.0912833
v -0.279833 -0.313461 -0.1104
v -0.271035 -0.312002 -0.11947
v -0.260617 -0.298056 -0.125101
v -0.259073 -0.285504 -0.121546
v -0.266285 -0.274462 -0.108337
v -0.272159 -0.264305 -0.0938787
v -0.26923 -0.252546 -0.0890999
v -0.258054 -0.238783 -0.094511
v -0.255125 -0.227024 -0.0897322
v -0.245546 -0.259698 -0.12254
v -0.23738 -0.27153 -0.134505
v -0.235747 -0.198616 -0.102719
v -0.235884 -0.211409 -0.105477
v -0.244708 -0.213087 -0.0957274
v -0.236038 -0.185755 -0.100446
v -0.236448 -0.172858 -0.0982974
v -0.254036 -0.150851 -0.074298
v -0.254513 -0.137936 -0.0722258
v -0.252962 -0.176672 -0.0783478
v -0.253526 -0.163763 -0.0763443
v -0.252155 -0.215214 -0.0849542
v -0.279999 -0.245968 -0.0622938
v -0.270324 -0.218882 -0.0322588
v -0.293574 -0.246827 -0.0221681
v -0.287684 -0.242763 -0.0335361
v -0.275823 -0.223294 -0.0206943
v -0.287101 -0.237585 -0.0155259
v -0.312969 -0.258214 0.0117916
v -0.315225 -0.251404 0.029782
v -0.359002 -0.363799 0.0346683
v -0.324432 -0.252896 0.0399413
v -0.333502 -0.268642 0.0439374
v -0.323227 -0.271175 0.0606614
v -0.337136 -0.28762 0.0464363
v -0.342744 -0.297213 0.0398832
v -0.345629 -0.288209 0.0299796
v -0.339818 -0.278141 0.0368814
v -0.330699 -0.278939 0.0532588
v -0.340824 -0.296579 0.0135953
v -0.343203 -0.308414 0.00718663
v -0.336069 -0.304671 -0.00283237
v -0.339686 -0.328263 -0.0146939
v -0.333802 -0.324301 -0.0252244
v -0.338262 -0.316325 -0.00888251
v -0.340583 -0.340346 -0.020021
v -0.348856 -0.299866 0.0231464
v -0.347149 -0.302385 0.0510734
v -0.328224 -0.276097 0.0714347
v -0.320139 -0.268928 0.0789093
v -0.332334 -0.282138 0.0825267
v -0.345372 -0.298896 0.0689697
v -0.339752 -0.289799 0.0756309
v -0.335907 -0.283616 0.0643198
v -0.350726 -0.308317 0.0623878
v -0.324165 -0.275199 0.0895464
v -0.359926 -0.352109 0.039287
v -0.342089 -0.292595 0.0576002
v -0.346131 -0.344421 -0.00957335
v -0.353543 -0.365815 0.00735145
v -0.348962 -0.361306 -0.00313716
v -0.34438 -0.356797 -0.0136258
v -0.339799 -0.352289 -0.0241144
f 3 4 2 1
f 179 13 2 4
f 6 9 10 5
f 7 8 9 6
f 203 196 21 8
f 21 19 9 8
f 19 11 10 9
f 11 12 205 10
f 19 20 18 11
f 18 17 12 11
f 17 14 13 12
f 13 179 205 12
f 14 208 2 13
f 17 16 15 14
f 15 209 208 14
f 16 26 207 15
f 207 210 209 15
f 24 25 26 16
f 17 18 24 16
f 20 23 24 18
f 21 22 20 19
f 22 195 23 20
f 184 185 195 22
f 195 188 189 23
f 189 25 24 23
f 189 190 193 25
f 193 191 26 25
f 191 194 207 26
f 28 131 130 27
f 130 117 188 27
f 188 195 185 27
f 185 186 28 27
f 29 30 131 28
f 186 181 29 28
f 180 178 30 29
f 177 114 131 30
f 32 113 112 31
f 176 173 113 32
f 175 172 34 33
f 34 107 174 33
f 174 173 176 33
f 35 108 107 34
f 37 36 108 35
f 37 137 136 36
f 136 135 134 36
f 134 171 108 36
f 39 41 40 38
f 40 163 170 38
f 168 42 41 39
f 41 164 161 40
f 161 162 163 40
f 42 165 164 41
f 43 50 165 42
f 168 169 43 42
f 44 48 50 43
f 169 166 44 43
f 45 46 48 44
f 166 167 45 44
f 49 164 165 47
f 52 161 164 49
f 53 54 58 51
f 58 61 162 51
f 162 161 52 51
f 160 69 159 55
f 159 59 56 55
f 59 60 57 56
f 60 61 58 57
f 159 68 66 59
f 66 65 60 59
f 65 63 61 60
f 63 163 162 61
f 157 65 66 62
f 66 68 64 62
f 64 155 156 62
f 156 135 157 62
f 65 157 158 63
f 158 170 163 63
f 68 67 154 64
f 154 97 155 64
f 68 159 69 67
f 69 71 153 67
f 153 95 154 67
f 74 72 152 70
f 152 153 71 70
f 73 75 151 72
f 151 96 152 72
f 80 146 147 76
f 145 81 78 77
f 81 82 79 78
f 82 146 80 79
f 144 83 82 81
f 145 192 144 81
f 83 84 146 82
f 142 143 84 83
f 144 141 142 83
f 143 85 86 84
f 86 147 146 84
f 139 140 87 85
f 87 88 86 85
f 143 123 139 85
f 88 148 147 86
f 140 100 138 87
f 138 89 88 87
f 89 149 148 88
f 138 91 90 89
f 90 92 149 89
f 91 94 93 90
f 93 150 92 90
f 99 97 94 91
f 138 100 99 91
f 94 95 96 93
f 96 151 150 93
f 97 154 95 94
f 153 152 96 95
f 99 98 155 97
f 133 156 155 98
f 99 100 101 98
f 101 132 133 98
f 140 102 101 100
f 102 104 132 101
f 140 139 126 102
f 126 103 104 102
f 105 106 104 103
f 126 125 127 103
f 127 111 105 103
f 106 171 132 104
f 174 107 106 105
f 111 173 174 105
f 107 108 171 106
f 110 111 127 109
f 127 125 128 109
f 128 119 116 109
f 116 115 110 109
f 113 173 111 110
f 115 112 113 110
f 115 114 177 112
f 115 116 129 114
f 129 130 131 114
f 119 118 129 116
f 130 129 118 117
f 118 120 190 117
f 190 189 188 117
f 119 121 120 118
f 128 124 121 119
f 121 141 122 120
f 122 193 190 120
f 124 142 141 121
f 141 144 192 122
f 192 191 193 122
f 125 126 139 123
f 143 142 124 123
f 124 128 125 123
f 171 134 133 132
f 134 135 156 133
f 136 158 157 135
f 137 170 158 136
f 194 191 192 145
f 186 183 187 181
f 187 202 197 182
f 186 185 184 183
f 206 202 187 183
f 211 210 207 194
f 203 200 206 196
f 202 201 199 197
f 199 204 198 197
f 201 202 206 200
