# https://github.com/mikedh/trimesh
v -0.34219324 -0.29632725 0.08005975
v -0.35204400 -0.31806550 0.07406200
v -0.35310200 -0.32581750 0.07580200
v -0.33244550 -0.28383725 0.08693775
v -0.35508299 -0.33714975 0.07330300
v -0.32312600 -0.27476900 0.09226600
v -0.31725600 -0.26978201 0.09448100
v -0.31126099 -0.26639500 0.09902800
v -0.35342901 -0.38855500 0.05095800
v -0.35644925 -0.37054676 0.05937675
v -0.34979501 -0.40040499 0.04689500
v -0.34411974 -0.42156750 0.05354100
v -0.35631650 -0.35073875 0.06958500
v -0.27964699 -0.25009999 0.09853600
v -0.28557038 -0.25244875 0.10151550
v -0.29955299 -0.25890650 0.10074250
v -0.29147801 -0.25604400 0.10466900
v -0.26172850 -0.24703950 0.10180900
v -0.30378076 -0.41912474 0.11469500
v -0.31937649 -0.41765599 0.10098000
v -0.29628550 -0.42107050 0.11933200
v -0.28852100 -0.42160251 0.12344800
v -0.27485425 -0.42265225 0.12927650
v -0.26416474 -0.42293701 0.13245599
v -0.24964051 -0.42396701 0.13600951
v -0.34090501 -0.41883501 0.05877700
v -0.33793513 -0.41799488 0.06960712
v -0.32823050 -0.41797200 0.08983700
v -0.08125689 -0.37533501 0.14993445
v -0.10340150 -0.38342550 0.15313549
v -0.07946450 -0.37103726 0.15054325
v -0.09500800 -0.37859100 0.15276700
v -0.07242700 -0.36359701 0.14905600
v -0.25465731 -0.27775445 0.13776530
v -0.26149125 -0.27736456 0.13112531
v -0.25362700 -0.27524000 0.13237900
v -0.25179724 -0.27948721 0.14160726
v -0.25144775 -0.27573274 0.13389375
v -0.24221001 -0.27861150 0.14204950
v -0.24749905 -0.28468597 0.14839264
v -0.24691200 -0.27873999 0.14171299
v -0.26373123 -0.28165980 0.13767428
v -0.26375663 -0.29010983 0.14845851
v -0.26385953 -0.29448795 0.15216498
v -0.24723860 -0.28902545 0.15144189
v -0.22022825 -0.28591500 0.14963550
v -0.22836384 -0.28796929 0.15158030
v -0.27410941 -0.27264897 0.14067800
v -0.27270739 -0.28252830 0.14609032
v -0.26565961 -0.28252232 0.13956357
v -0.27015633 -0.28745468 0.14866180
v -0.26380872 -0.27226181 0.13068283
v -0.27019896 -0.26625374 0.13574617
v -0.26785651 -0.26193351 0.13325951
v -0.26372600 -0.26884300 0.13056700
v -0.23402154 -0.34147023 0.16569726
v -0.24301032 -0.33934233 0.16425755
v -0.21929981 -0.33536255 0.16671450
v -0.20278024 -0.34916271 0.16697645
v -0.22295683 -0.32904688 0.16600895
v -0.20313503 -0.33349557 0.16693475
v -0.16224537 -0.33899433 0.16528352
v -0.19635153 -0.33515985 0.16708280
v -0.22835777 -0.32329658 0.16492547
v -0.23929596 -0.32318724 0.16417457
v -0.17802971 -0.33712096 0.16646120
v -0.16568530 -0.32745000 0.16386746
v -0.19663838 -0.32723247 0.16597384
v -0.14346581 -0.33481790 0.16246997
v -0.21919480 -0.32069322 0.16482412
v -0.14201100 -0.34336299 0.16288900
v -0.17803780 -0.34746213 0.16651108
v -0.16561545 -0.34699145 0.16551812
v -0.12722954 -0.34204154 0.16057835
v -0.11093900 -0.33404300 0.15655700
v -0.10576365 -0.34587353 0.15615896
v -0.19521470 -0.34838928 0.16704978
v -0.12727275 -0.32472975 0.15748788
v -0.12956487 -0.33219406 0.15990743
v -0.19573582 -0.31542465 0.16309645
v -0.22097330 -0.31532317 0.16358884
v -0.16352088 -0.31481795 0.16015249
v -0.17104635 -0.31764666 0.16186649
v -0.14539018 -0.31954901 0.15916606
v -0.24211571 -0.31143091 0.16132769
v -0.23775608 -0.30280826 0.15877586
v -0.14783899 -0.31358001 0.15748300
v -0.25221659 -0.31005121 0.15973631
v -0.18064944 -0.30110038 0.15606756
v -0.21993347 -0.29997292 0.15838720
v -0.17490895 -0.30839052 0.15909028
v -0.18666594 -0.30908257 0.16062833
v -0.26652960 -0.30427949 0.15521850
v -0.20712342 -0.30523796 0.16023445
v -0.26072113 -0.31598028 0.15937590
v -0.25483330 -0.32691606 0.16191649
v -0.23911460 -0.33301745 0.16495292
v -0.24092829 -0.30059372 0.15778644
v -0.26663305 -0.29844801 0.15330278
v -0.27319631 -0.28611688 0.14822117
v -0.24532281 -0.29179832 0.15356302
v -0.21310099 -0.29681168 0.15689299
v -0.10166700 -0.34403925 0.15514850
v -0.22951094 -0.28461444 0.14828731
v -0.18596213 -0.29684112 0.15448500
v -0.27555832 -0.28357635 0.14606502
v -0.12898099 -0.34637401 0.16072600
v -0.11824309 -0.35081774 0.15852974
v -0.14537135 -0.34875708 0.16325910
v -0.15163050 -0.35055869 0.16385067
v -0.27183188 -0.31933803 0.15639287
v -0.27375600 -0.31031701 0.15417500
v -0.13151808 -0.35450692 0.16060786
v -0.16166669 -0.35946477 0.16354982
v -0.27398155 -0.29803147 0.15097451
v -0.26486139 -0.34085395 0.15778644
v -0.27194531 -0.26381107 0.13509760
v -0.28065993 -0.31253119 0.15194455
v -0.19178921 -0.35277769 0.16633997
v -0.25665949 -0.33774750 0.16093460
v -0.19049369 -0.36094272 0.16487596
v -0.22190912 -0.35031083 0.16554919
v -0.22891903 -0.34575601 0.16559479
v -0.27263677 -0.32713048 0.15593380
v -0.18608513 -0.35745444 0.16535350
v -0.24243388 -0.34453530 0.16348888
v -0.27645889 -0.27647662 0.14231401
v -0.29334462 -0.31116748 0.14452523
v -0.25017182 -0.34853465 0.16100164
v -0.25561283 -0.34589280 0.15963233
v -0.22768769 -0.35612477 0.16360376
v -0.28914228 -0.31945267 0.14778747
v -0.27458282 -0.33290149 0.15449225
v -0.28930409 -0.33751738 0.15106598
v -0.28493314 -0.33435450 0.15414394
v -0.26986276 -0.34900985 0.15981166
v -0.29702603 -0.32226883 0.14637613
v -0.28891626 -0.33125339 0.15240953
v -0.27610330 -0.34498194 0.15797235
v -0.27457630 -0.34284136 0.15820545
v -0.26537512 -0.34911298 0.16115872
v -0.26094699 -0.35125899 0.16197000
v -0.28095816 -0.32767707 0.15218501
v -0.25806243 -0.35554446 0.16294089
v -0.28315267 -0.33666427 0.15527390
v -0.26753308 -0.33951741 0.15705986
v -0.23489675 -0.36165875 0.16623492
v -0.24318345 -0.35737611 0.16460476
v -0.21134895 -0.36668163 0.16789914
v -0.17281471 -0.36865081 0.16810240
v -0.16489049 -0.36432518 0.16610890
v -0.24197755 -0.35256939 0.16209351
v -0.10418575 -0.35068700 0.15892375
v -0.18159168 -0.36206740 0.16506738
v -0.22066871 -0.36299848 0.16667821
v -0.13896997 -0.36317142 0.16538231
v -0.24257314 -0.35489348 0.16331409
v -0.12216364 -0.35839698 0.16295100
v -0.14324049 -0.35703604 0.16193700
v -0.27014814 -0.33735671 0.15620990
v -0.09531350 -0.35080300 0.15882399
v -0.12492296 -0.35320510 0.15976817
v -0.09768725 -0.35201700 0.15941325
v -0.23487228 -0.35390144 0.16285530
v -0.11079663 -0.34850037 0.15725563
v -0.10523276 -0.35513906 0.16110167
v -0.14301540 -0.36625273 0.16595070
v -0.25963483 -0.34450803 0.15904593
v -0.20614237 -0.36849805 0.16817238
v -0.15578186 -0.36688870 0.16705713
v -0.12755466 -0.36227325 0.16455427
v -0.27900970 -0.35885149 0.14585894
v -0.26833320 -0.36564178 0.14827077
v -0.27228867 -0.36347208 0.14742834
v -0.26365533 -0.36855109 0.14910099
v -0.26657405 -0.35795927 0.15675934
v -0.25722851 -0.37073949 0.15117421
v -0.24998159 -0.36460609 0.16100025
v -0.24460400 -0.37700881 0.15198994
v -0.23797823 -0.37803399 0.15382884
v -0.24945100 -0.36117300 0.16349199
v -0.26521728 -0.35444083 0.16006590
v -0.23082355 -0.38076155 0.15327862
v -0.21856096 -0.38283386 0.15427526
v -0.22294644 -0.36965494 0.16631353
v -0.22679189 -0.38179186 0.15364775
v -0.21537194 -0.37778930 0.16007426
v -0.20732926 -0.38454552 0.15466201
v -0.27702109 -0.35651732 0.14942357
v -0.28397965 -0.34763443 0.14998152
v -0.28326361 -0.35501794 0.14476001
v -0.23250422 -0.36536893 0.16650703
v -0.24678224 -0.36045801 0.16472743
v -0.20660105 -0.37127161 0.16766386
v -0.22175205 -0.38319654 0.15404333
v -0.17157743 -0.37132210 0.16766602
v -0.11852218 -0.36203912 0.16329424
v -0.10218750 -0.35611701 0.16050099
v -0.13007900 -0.39175901 0.15559401
v -0.13856889 -0.39209390 0.15687769
v -0.17551734 -0.39768419 0.15810678
v -0.13331539 -0.38973391 0.15667613
v -0.14336900 -0.39172700 0.15722200
v -0.10970104 -0.38353409 0.15473406
v -0.12638612 -0.38679647 0.15599086
v -0.11580907 -0.38550751 0.15525046
v -0.18930091 -0.39578120 0.15874746
v -0.09859542 -0.37734024 0.15300700
v -0.17040740 -0.39528286 0.15840800
v -0.22047924 -0.39084516 0.15715850
v -0.22685698 -0.38812650 0.15613032
v -0.21658186 -0.39430821 0.15779404
v -0.24372590 -0.38690193 0.15489054
v -0.25246967 -0.38054744 0.15295779
v -0.25211489 -0.37433219 0.15090016
v -0.11662679 -0.37999916 0.15342200
v -0.16941619 -0.39228160 0.15799375
v -0.07578188 -0.36683814 0.14993089
v -0.27011508 -0.37294265 0.14955457
v -0.26312959 -0.37630966 0.15104988
v -0.28011034 -0.36596955 0.14692962
v -0.17829999 -0.38534576 0.15470229
v -0.25972532 -0.38105013 0.15208641
v -0.10446735 -0.37492088 0.15160265
v -0.12572600 -0.37889501 0.15214901
v -0.15026702 -0.38360147 0.15383055
v -0.13644143 -0.38106636 0.15285729
v -0.10923452 -0.37336038 0.15014404
v -0.11513310 -0.37464191 0.15068164
v -0.09584197 -0.36860690 0.14858057
v -0.09196350 -0.36504526 0.14745425
v -0.10608055 -0.37116835 0.14970189
v -0.28607277 -0.36151429 0.14507444
v -0.09959800 -0.36803001 0.14913000
v -0.12442371 -0.36691622 0.16207378
v -0.15574888 -0.38333542 0.15390179
v -0.16138200 -0.37675300 0.16147800
v -0.19617519 -0.38554490 0.15497664
v -0.19020520 -0.37542281 0.16501672
v -0.19635314 -0.38262975 0.15746825
v -0.14738881 -0.37036226 0.16536391
v -0.10704224 -0.35883892 0.16140596
v -0.27209718 -0.24883347 0.10124083
v -0.28239383 -0.25211106 0.10637859
v -0.27391601 -0.25008300 0.10672650
v -0.27679899 -0.25105801 0.10726300
v -0.27650750 -0.25280200 0.11166300
v -0.27275300 -0.25359401 0.11620000
v -0.30207869 -0.26159498 0.10352560
v -0.29030341 -0.25794492 0.11019284
v -0.29718454 -0.26401744 0.11304356
v -0.29167562 -0.26145791 0.11422364
v -0.27769214 -0.26084773 0.12501239
v -0.29216002 -0.26823210 0.12246273
v -0.30280989 -0.26797615 0.11234193
v -0.30637504 -0.26763500 0.10809628
v -0.28191831 -0.26537927 0.12704573
v -0.31158361 -0.26790739 0.10158869
v -0.31508128 -0.27339874 0.10458520
v -0.29479478 -0.27626700 0.12771640
v -0.28430627 -0.27141771 0.13139659
v -0.31065856 -0.27286507 0.10984601
v -0.31885537 -0.27915133 0.10637956
v -0.32536101 -0.27911023 0.09594050
v -0.30883952 -0.28016140 0.11895549
v -0.30072898 -0.27356936 0.12063117
v -0.31706711 -0.28319374 0.11258208
v -0.28818384 -0.28202992 0.13646246
v -0.32401480 -0.28691095 0.10704317
v -0.29631701 -0.28086501 0.12979300
v -0.33011002 -0.28600788 0.09638525
v -0.33188373 -0.28436994 0.08992184
v -0.31155724 -0.28504531 0.11992361
v -0.32462251 -0.29494176 0.11211645
v -0.27665871 -0.27253930 0.13959018
v -0.33727021 -0.29655839 0.09406563
v -0.31997521 -0.29625082 0.11829958
v -0.30503144 -0.28801116 0.12776658
v -0.32896653 -0.29330717 0.10502007
v -0.33979970 -0.29547144 0.08708469
v -0.30241951 -0.29744061 0.13458559
v -0.31270867 -0.29877871 0.12653191
v -0.33890654 -0.30013126 0.09348741
v -0.33792591 -0.30663313 0.10047816
v -0.31998672 -0.30040814 0.11995216
v -0.32530120 -0.30909330 0.11763755
v -0.28906318 -0.29138257 0.14069302
v -0.34758332 -0.30984465 0.08142175
v -0.34053260 -0.30512222 0.09448187
v -0.32710201 -0.30577901 0.11414900
v -0.33550324 -0.31157853 0.10559851
v -0.30797907 -0.30762265 0.13356057
v -0.34652142 -0.31688663 0.08873742
v -0.31292295 -0.30798560 0.12940416
v -0.34262544 -0.32121409 0.09764123
v -0.32347672 -0.31452704 0.12079632
v -0.29786520 -0.30881470 0.14128929
v -0.29994238 -0.31727553 0.14328581
v -0.34910570 -0.31638692 0.08216691
v -0.32568132 -0.32027411 0.11950832
v -0.33646500 -0.32133750 0.10708873
v -0.34503073 -0.33210256 0.09561017
v -0.33308806 -0.32897148 0.11238200
v -0.32761997 -0.32800107 0.11829765
v -0.32102144 -0.32493938 0.12506456
v -0.34885054 -0.32657865 0.08731805
v -0.34241005 -0.34020332 0.10057606
v -0.30220745 -0.32381550 0.14128557
v -0.35118038 -0.32959694 0.08292447
v -0.34660000 -0.33497301 0.09299300
v -0.33149830 -0.33805094 0.11450979
v -0.30880208 -0.31851557 0.13442076
v -0.33936991 -0.34793487 0.10421096
v -0.34977081 -0.33694171 0.08705940
v -0.34662587 -0.34002036 0.09349249
v -0.32822594 -0.33914595 0.11789740
v -0.35546322 -0.34347124 0.07363417
v -0.34755797 -0.35532774 0.09008790
v -0.35077735 -0.36154830 0.08212615
v -0.35413193 -0.35098906 0.07688011
v -0.34755592 -0.37445450 0.08395251
v -0.34073908 -0.37079987 0.09707430
v -0.35438081 -0.36460976 0.07178226
v -0.35118585 -0.37641509 0.07410571
v -0.34266410 -0.38452767 0.08797648
v -0.35281869 -0.38192216 0.06463395
v -0.33444128 -0.39741938 0.09386271
v -0.34800442 -0.39445240 0.06755310
v -0.34189103 -0.40134583 0.07730246
v -0.33688200 -0.39946401 0.08833900
v -0.33743763 -0.40616646 0.08186140
v -0.33718245 -0.41390431 0.07422190
v -0.35459451 -0.37806035 0.06139414
v -0.33300135 -0.40503793 0.09114263
v -0.34919676 -0.39734656 0.05799923
v -0.34624590 -0.40522044 0.05661850
v -0.35120210 -0.39447462 0.05370875
v -0.17001800 -0.40325550 0.15421400
v -0.19082938 -0.39907006 0.15758341
v -0.18226821 -0.40156792 0.15619842
v -0.18198600 -0.40691000 0.15252900
v -0.18548100 -0.40628901 0.15310900
v -0.19654401 -0.40867701 0.15157500
v -0.20811069 -0.40771487 0.15191986
v -0.22403763 -0.41179845 0.14783980
v -0.19666010 -0.40137690 0.15621625
v -0.22980399 -0.42338601 0.13907000
v -0.23701621 -0.40958598 0.14699872
v -0.21060991 -0.40123204 0.15540795
v -0.24946058 -0.41265567 0.14253736
v -0.24008307 -0.40222749 0.15032303
v -0.25805576 -0.41110261 0.14102500
v -0.21714119 -0.39936126 0.15575691
v -0.23014828 -0.39723590 0.15469307
v -0.25339482 -0.39995594 0.14825062
v -0.28008164 -0.40848523 0.13462799
v -0.27491251 -0.40313225 0.13918608
v -0.25856891 -0.39163067 0.14960411
v -0.24287712 -0.39092609 0.15415081
v -0.26927270 -0.42209332 0.13102175
v -0.28347701 -0.41575399 0.12884100
v -0.26799479 -0.38592464 0.14807974
v -0.29637996 -0.41630964 0.12151665
v -0.27114913 -0.38255151 0.14786254
v -0.27623968 -0.37626274 0.14739354
v -0.28039297 -0.39220081 0.14072410
v -0.29067783 -0.39284996 0.13529165
v -0.28611093 -0.38342674 0.14069132
v -0.29682385 -0.38652971 0.13395099
v -0.28791445 -0.36969529 0.14324291
v -0.30461386 -0.38496559 0.12930530
v -0.30125444 -0.36531724 0.13662481
v -0.29027418 -0.36323250 0.14308138
v -0.29805683 -0.36088406 0.13926275
v -0.30469628 -0.41490095 0.11658116
v -0.30251214 -0.35577172 0.13754549
v -0.30895885 -0.39708537 0.12223703
v -0.30790093 -0.40329956 0.11996906
v -0.29906291 -0.34871778 0.13993513
v -0.30030549 -0.33729396 0.13893203
v -0.29764006 -0.33970159 0.14021911
v -0.29402328 -0.34514076 0.14140413
v -0.29012674 -0.34923344 0.14269695
v -0.31629365 -0.37631420 0.12298516
v -0.31902859 -0.38996819 0.11602608
v -0.30977906 -0.33753746 0.13413290
v -0.32192217 -0.35357418 0.12311408
v -0.31270507 -0.36475880 0.12867219
v -0.31490014 -0.33984295 0.13024664
v -0.30462878 -0.33021619 0.13706029
v -0.31420193 -0.32587132 0.13073832
v -0.31398246 -0.40697742 0.11296253
v -0.32553346 -0.34912032 0.11995480
v -0.31856831 -0.34272338 0.12700118
v -0.31122899 -0.31569901 0.13214201
v -0.32123330 -0.40100612 0.10867838
v -0.31406333 -0.41477235 0.10829713
v -0.33105729 -0.38341562 0.10561594
v -0.33275614 -0.35533935 0.11147686
v -0.33399015 -0.38258634 0.10255193
v -0.06695500 -0.33703399 0.15172300
v -0.08165462 -0.34484325 0.15598251
v -0.06525514 -0.33129414 0.15015456
v -0.07648370 -0.33863724 0.15390243
v -0.08617979 -0.34488707 0.15667390
v -0.09134601 -0.34681059 0.15769188
v -0.05547050 -0.32524701 0.14642800
v -0.09809688 -0.34338807 0.15464911
v -0.06100500 -0.32103500 0.14131600
v -0.08309366 -0.33582418 0.15047163
v -0.07510372 -0.33018314 0.14719823
v -0.06577364 -0.32327997 0.14280085
v -0.18746627 -0.28035237 0.13761903
v -0.12171600 -0.28858350 0.13387600
v -0.20070017 -0.27923224 0.13759653
v -0.21610889 -0.27721253 0.13690120
v -0.22987396 -0.27509302 0.13563982
v -0.11453928 -0.29081828 0.13308085
v -0.10618600 -0.29241049 0.13228900
v -0.24899787 -0.27469932 0.13294460
v -0.13695382 -0.28781406 0.13536550
v -0.22658213 -0.27603033 0.13632113
v -0.23588130 -0.27475319 0.13507513
v -0.20908416 -0.27839947 0.13766880
v -0.20048377 -0.28323525 0.14545539
v -0.17836535 -0.28242606 0.13767303
v -0.13316106 -0.28877415 0.13529778
v -0.15833054 -0.28508287 0.13698500
v -0.09662520 -0.29677455 0.13581337
v -0.07368200 -0.30115800 0.13337400
v -0.09537000 -0.29441500 0.13127100
v -0.08385350 -0.29748025 0.13191650
v -0.08031400 -0.29950100 0.13377500
v -0.15642697 -0.28862315 0.14294895
v -0.07777107 -0.30133089 0.13515950
v -0.17287319 -0.28845936 0.14641982
v -0.22390767 -0.28092367 0.14524475
v -0.08683399 -0.33646733 0.15097427
v -0.09370793 -0.33877538 0.15305567
v -0.09106130 -0.32449935 0.15032419
v -0.07930938 -0.32483686 0.14723690
v -0.11059923 -0.31952799 0.15291307
v -0.06663139 -0.31275837 0.13955736
v -0.06878121 -0.31426612 0.14072512
v -0.05682879 -0.31707995 0.13777928
v -0.08497428 -0.31741544 0.14642131
v -0.09791109 -0.31104327 0.14679556
v -0.13928787 -0.30450251 0.15217238
v -0.05078172 -0.31202950 0.13387358
v -0.04725800 -0.31045601 0.13219800
v -0.08293965 -0.30767836 0.14133081
v -0.16061969 -0.29986044 0.15314206
v -0.12258894 -0.30859526 0.15118105
v -0.08923718 -0.30245230 0.13954025
v -0.04405000 -0.30805200 0.12999199
v -0.13186202 -0.29890445 0.14720269
v -0.18883004 -0.29338047 0.15298157
v -0.11810368 -0.29917373 0.14434391
v -0.15087986 -0.29573606 0.14873817
v -0.06112350 -0.30457199 0.13254700
v -0.05196360 -0.30706341 0.13160703
v -0.17380983 -0.29446497 0.15174065
v -0.20937701 -0.28501480 0.14847952
v -0.19168699 -0.28758130 0.14874826
v -0.13992719 -0.29248361 0.14359444
v -0.11493417 -0.29568624 0.14039439
v -0.05093650 -0.32892500 0.14446850
v -0.01863581 -0.30005473 0.12720250
v -0.03478300 -0.31591299 0.13696000
v -0.02458051 -0.29923320 0.12010200
v -0.03232220 -0.30194815 0.12102100
v -0.02405600 -0.30141699 0.12595800
v -0.01365690 -0.29545499 0.12081719
v -0.04211764 -0.31566852 0.14033654
v -0.04982986 -0.32151328 0.14434760
v -0.02682471 -0.30557157 0.13187179
v -0.03685565 -0.30242229 0.12145374
v -0.05187418 -0.30013123 0.12372892
v -0.06345574 -0.29895166 0.12617674
v -0.05798788 -0.30227287 0.12904552
v -0.08002472 -0.29620098 0.12863266
v -0.04719568 -0.30029800 0.12274975
v -0.05201850 -0.32567000 0.14623275
v -0.00906051 -0.29485180 0.12106197
v -0.03425514 -0.31085518 0.13681712
v -0.08856498 -0.29439859 0.12962458
v -0.06733960 -0.29763077 0.12627992
v -0.09778724 -0.29335405 0.13096752
v -0.04342599 -0.32120814 0.14221008
v -0.05624818 -0.33076088 0.14782600
f 299 3 309
f 299 309 293
f 293 309 306
f 306 309 302
f 302 309 314
f 314 309 320
f 315 314 320
f 315 320 318
f 318 320 319
f 319 320 323
f 320 13 323
f 13 10 323
f 323 10 333
f 326 323 333
f 333 337 326
f 333 9 337
f 9 11 337
f 337 11 12
f 335 326 337
f 335 337 336
f 336 337 26
f 337 12 26
f 328 336 26
f 329 328 26
f 325 328 329
f 400 325 329
f 400 329 327
f 398 400 327
f 387 400 398
f 387 399 400
f 399 322 400
f 399 313 322
f 311 313 399
f 316 311 399
f 316 399 393
f 305 316 393
f 305 393 394
f 394 393 387
f 389 394 387
f 391 394 389
f 391 389 386
f 390 391 386
f 308 391 390
f 308 312 391
f 395 391 312
f 395 305 391
f 395 294 305
f 294 296 305
f 296 300 305
f 300 303 305
f 305 303 304
f 305 304 311
f 304 303 311
f 300 301 303
f 301 307 303
f 303 307 313
f 307 318 313
f 301 302 307
f 307 302 315
f 302 310 315
f 295 302 301
f 291 295 301
f 286 291 301
f 284 291 286
f 290 284 286
f 277 290 286
f 285 277 286
f 285 286 282
f 282 286 294
f 282 294 292
f 294 298 292
f 294 312 298
f 282 292 298
f 281 282 298
f 297 281 298
f 298 137 297
f 298 308 137
f 137 308 138
f 128 297 137
f 100 297 128
f 100 128 118
f 118 128 132
f 118 132 143
f 132 137 143
f 143 137 138
f 143 138 133
f 124 143 133
f 124 111 143
f 111 124 116
f 96 111 116
f 96 116 120
f 120 116 130
f 120 130 129
f 126 120 129
f 126 129 164
f 164 129 152
f 164 152 157
f 164 157 131
f 131 157 155
f 157 147 155
f 157 148 147
f 148 157 193
f 144 193 157
f 157 129 144
f 129 142 144
f 142 141 144
f 141 136 144
f 144 136 182
f 144 182 176
f 144 176 178
f 178 176 177
f 180 178 177
f 192 178 180
f 192 180 185
f 192 185 194
f 169 192 194
f 150 169 194
f 150 194 196
f 196 194 239
f 236 196 239
f 239 222 236
f 239 238 222
f 239 240 238
f 240 188 238
f 194 188 240
f 194 187 188
f 194 186 187
f 184 187 186
f 187 184 188
f 237 196 236
f 237 236 241
f 226 241 236
f 235 241 226
f 197 241 235
f 197 171 241
f 171 167 241
f 167 196 241
f 170 196 167
f 156 170 167
f 156 151 170
f 170 151 150
f 151 155 150
f 154 155 151
f 121 155 154
f 114 121 154
f 114 154 151
f 155 149 150
f 114 151 156
f 159 114 156
f 113 159 156
f 158 113 156
f 171 158 156
f 162 113 158
f 108 162 158
f 158 165 108
f 165 158 166
f 153 165 166
f 163 153 166
f 163 166 198
f 166 242 198
f 242 166 197
f 76 165 153
f 166 158 197
f 76 108 165
f 74 108 76
f 74 113 108
f 74 107 113
f 107 109 113
f 109 110 113
f 113 110 159
f 159 110 114
f 72 114 110
f 114 72 125
f 114 125 121
f 125 59 121
f 119 59 125
f 77 59 119
f 72 77 119
f 62 77 72
f 66 77 62
f 67 66 62
f 66 67 63
f 67 68 63
f 83 68 67
f 83 92 68
f 91 92 83
f 89 92 91
f 89 102 92
f 102 94 92
f 102 90 94
f 90 102 101
f 102 40 101
f 102 47 40
f 104 47 102
f 47 104 40
f 41 40 104
f 40 41 37
f 37 41 34
f 41 38 34
f 38 35 34
f 36 35 38
f 42 34 35
f 37 34 42
f 43 37 42
f 40 37 43
f 40 43 44
f 43 50 44
f 40 44 45
f 45 44 101
f 101 44 98
f 98 44 88
f 85 98 88
f 86 98 85
f 98 86 90
f 90 86 85
f 90 85 81
f 81 85 65
f 70 81 65
f 81 70 80
f 92 81 80
f 80 70 68
f 68 70 60
f 64 60 70
f 64 65 60
f 60 65 58
f 58 65 97
f 65 96 97
f 56 97 96
f 96 57 56
f 56 57 123
f 123 57 164
f 123 164 131
f 122 123 131
f 122 131 59
f 59 56 122
f 58 56 59
f 61 58 59
f 61 59 63
f 68 58 61
f 56 123 122
f 65 95 96
f 88 95 65
f 88 93 95
f 93 111 95
f 93 112 111
f 112 118 111
f 93 118 112
f 93 115 118
f 93 100 115
f 99 100 93
f 44 100 99
f 51 100 44
f 49 100 51
f 49 106 100
f 287 100 106
f 127 287 106
f 268 287 127
f 268 281 287
f 268 278 281
f 268 270 278
f 270 260 278
f 260 265 278
f 265 273 278
f 278 273 277
f 278 277 282
f 277 273 274
f 277 274 284
f 274 279 284
f 284 279 276
f 284 276 289
f 289 299 284
f 289 288 299
f 288 2 299
f 1 2 288
f 280 1 288
f 4 1 280
f 272 4 280
f 271 272 280
f 271 280 276
f 276 280 283
f 283 280 289
f 271 276 269
f 269 263 271
f 263 264 271
f 259 264 263
f 258 264 259
f 7 264 258
f 264 7 6
f 264 6 4
f 8 7 258
f 249 8 258
f 251 249 258
f 251 258 256
f 251 256 255
f 256 262 255
f 256 259 262
f 266 255 262
f 266 262 265
f 265 262 267
f 262 263 267
f 266 251 255
f 254 251 266
f 260 254 266
f 257 254 260
f 261 257 260
f 268 261 260
f 253 257 261
f 253 261 117
f 117 261 275
f 275 261 127
f 48 275 127
f 49 48 127
f 48 117 275
f 54 253 117
f 54 244 253
f 253 244 250
f 253 250 252
f 253 252 251
f 252 250 251
f 250 244 15
f 250 15 17
f 17 16 250
f 250 16 249
f 244 14 15
f 243 14 244
f 18 243 244
f 18 244 245
f 246 245 244
f 246 244 247
f 243 18 14
f 54 247 244
f 248 247 54
f 253 254 257
f 253 251 254
f 250 249 251
f 16 8 249
f 256 258 259
f 263 262 259
f 263 269 267
f 274 267 269
f 264 272 271
f 264 4 272
f 280 288 289
f 276 283 289
f 269 276 279
f 269 279 274
f 273 267 274
f 265 267 273
f 266 265 260
f 268 260 270
f 127 261 268
f 287 281 100
f 127 106 49
f 44 50 51
f 49 51 50
f 48 49 50
f 48 50 35
f 35 50 42
f 43 42 50
f 48 35 52
f 52 53 48
f 53 52 55
f 53 55 54
f 53 117 48
f 54 117 53
f 44 99 93
f 58 97 56
f 68 60 58
f 70 65 64
f 85 88 65
f 44 93 88
f 40 45 101
f 90 101 98
f 94 90 81
f 94 81 92
f 89 104 102
f 89 91 82
f 89 82 87
f 87 82 84
f 87 84 78
f 78 84 79
f 84 67 79
f 79 67 69
f 79 69 74
f 69 62 74
f 62 71 74
f 74 71 109
f 71 62 109
f 62 73 109
f 73 72 109
f 75 78 79
f 75 79 76
f 75 76 103
f 439 75 103
f 439 103 408
f 438 439 408
f 438 440 439
f 441 440 438
f 446 440 441
f 412 446 441
f 412 444 446
f 444 451 446
f 451 447 446
f 451 453 447
f 454 453 451
f 458 453 454
f 454 466 458
f 466 465 458
f 466 414 465
f 418 414 466
f 429 418 466
f 429 466 435
f 433 429 435
f 432 429 433
f 429 432 419
f 429 419 418
f 465 414 434
f 434 436 465
f 465 436 459
f 436 462 459
f 462 452 459
f 462 105 452
f 462 457 105
f 464 457 462
f 464 463 457
f 425 463 464
f 436 425 464
f 425 437 463
f 463 437 46
f 463 46 105
f 46 437 39
f 437 423 39
f 437 417 423
f 437 422 417
f 416 417 422
f 424 416 422
f 425 424 422
f 425 415 424
f 425 413 415
f 426 413 425
f 434 426 425
f 428 426 434
f 421 428 434
f 427 421 434
f 416 424 415
f 423 420 39
f 39 420 36
f 425 422 437
f 463 105 457
f 452 105 87
f 452 87 448
f 448 456 452
f 458 456 448
f 458 459 456
f 448 87 453
f 453 87 442
f 87 75 442
f 440 442 75
f 447 442 440
f 459 452 456
f 436 464 462
f 436 434 425
f 458 465 459
f 454 435 466
f 458 448 453
f 451 435 454
f 451 461 435
f 451 443 461
f 449 461 443
f 461 449 450
f 455 461 450
f 455 460 461
f 450 449 409
f 449 443 445
f 445 443 412
f 460 435 461
f 447 453 442
f 451 444 443
f 443 444 412
f 412 441 411
f 446 447 440
f 411 441 438
f 411 438 410
f 403 411 410
f 412 411 403
f 412 403 409
f 445 412 409
f 449 445 409
f 409 403 407
f 475 409 407
f 475 449 409
f 455 449 475
f 455 475 474
f 471 455 474
f 474 476 471
f 485 476 474
f 472 471 476
f 468 472 476
f 468 471 472
f 468 470 471
f 473 470 468
f 484 473 468
f 455 471 477
f 455 477 480
f 478 480 477
f 478 479 480
f 480 479 481
f 480 481 430
f 430 481 431
f 486 431 481
f 486 481 487
f 431 486 488
f 431 488 419
f 487 481 479
f 478 487 479
f 477 482 478
f 480 430 455
f 483 475 407
f 475 483 489
f 483 490 489
f 489 490 467
f 467 490 401
f 469 489 467
f 469 475 489
f 483 407 490
f 407 401 490
f 407 403 401
f 403 404 401
f 404 405 401
f 404 406 405
f 405 406 402
f 402 406 161
f 406 103 161
f 404 408 406
f 410 408 404
f 401 405 402
f 403 410 404
f 410 438 408
f 406 408 103
f 440 75 439
f 84 82 67
f 91 83 82
f 92 80 68
f 82 83 67
f 63 68 61
f 66 63 59
f 67 62 69
f 62 72 73
f 66 59 77
f 59 131 121
f 72 119 125
f 109 72 110
f 74 109 107
f 79 74 76
f 108 113 162
f 156 167 171
f 197 158 171
f 197 235 242
f 242 235 232
f 198 242 232
f 198 232 234
f 232 235 229
f 235 225 229
f 235 226 225
f 227 225 226
f 241 196 237
f 239 194 240
f 170 150 196
f 150 149 169
f 149 192 169
f 147 192 149
f 147 193 192
f 194 185 186
f 185 180 186
f 180 183 186
f 193 178 192
f 181 178 193
f 193 144 181
f 177 215 180
f 180 215 179
f 176 173 177
f 177 173 175
f 175 214 177
f 175 220 214
f 214 220 223
f 220 219 223
f 219 365 223
f 223 365 364
f 365 366 364
f 365 367 366
f 366 367 356
f 367 377 356
f 367 369 377
f 371 377 369
f 371 384 377
f 384 385 377
f 398 385 384
f 385 398 396
f 396 398 20
f 20 398 334
f 28 20 334
f 334 332 28
f 331 332 334
f 329 331 334
f 334 330 329
f 327 330 334
f 329 332 331
f 28 332 27
f 332 26 27
f 396 20 397
f 392 396 397
f 392 397 375
f 397 19 375
f 363 375 19
f 377 375 363
f 377 378 375
f 21 363 19
f 356 363 21
f 361 356 21
f 22 361 21
f 375 378 392
f 378 385 392
f 397 20 19
f 385 396 392
f 377 385 378
f 371 388 384
f 387 384 388
f 376 387 388
f 376 388 374
f 372 374 388
f 373 374 372
f 373 372 370
f 233 373 370
f 233 379 373
f 379 376 373
f 379 386 376
f 383 379 233
f 383 382 379
f 382 383 191
f 382 381 379
f 381 380 379
f 390 380 381
f 390 381 134
f 138 390 134
f 135 138 134
f 135 134 145
f 145 134 139
f 140 145 139
f 140 160 145
f 133 145 160
f 116 133 160
f 116 160 146
f 146 160 141
f 146 141 116
f 116 141 168
f 168 141 130
f 130 141 129
f 133 135 145
f 160 140 141
f 140 139 141
f 139 134 190
f 139 190 136
f 136 190 189
f 189 190 172
f 190 191 172
f 190 382 191
f 172 176 189
f 176 172 174
f 136 189 176
f 134 382 190
f 134 381 382
f 380 390 379
f 191 383 233
f 191 233 172
f 172 233 221
f 172 221 174
f 219 174 221
f 173 174 219
f 173 219 175
f 221 233 370
f 221 370 365
f 370 369 365
f 365 369 368
f 370 372 369
f 373 376 374
f 386 387 376
f 372 388 371
f 369 372 371
f 368 369 367
f 356 377 363
f 366 356 357
f 355 357 356
f 358 357 355
f 358 362 357
f 223 362 358
f 362 364 357
f 223 358 355
f 223 355 359
f 354 359 355
f 212 359 354
f 213 359 212
f 211 213 212
f 214 213 211
f 183 214 211
f 186 183 211
f 186 211 195
f 188 195 211
f 188 211 210
f 188 210 238
f 222 238 210
f 222 210 217
f 236 222 217
f 226 236 217
f 226 217 227
f 227 217 202
f 205 227 202
f 227 205 206
f 204 227 206
f 204 216 227
f 225 227 216
f 229 225 216
f 208 229 216
f 224 229 208
f 224 228 229
f 232 228 224
f 232 229 228
f 224 230 232
f 230 224 218
f 218 33 230
f 33 231 230
f 231 234 230
f 234 232 230
f 29 224 208
f 208 216 204
f 205 202 206
f 206 202 200
f 206 200 199
f 206 199 30
f 204 206 30
f 208 204 30
f 32 208 30
f 31 208 32
f 202 203 200
f 202 209 203
f 203 209 200
f 200 209 201
f 209 207 201
f 209 217 207
f 201 207 339
f 207 212 339
f 339 212 346
f 339 346 340
f 346 344 340
f 346 345 344
f 346 349 345
f 349 353 345
f 212 353 349
f 353 348 345
f 353 354 348
f 354 351 348
f 348 351 350
f 351 355 350
f 355 352 350
f 352 24 350
f 352 356 24
f 24 356 360
f 356 23 360
f 356 22 23
f 24 360 23
f 25 350 24
f 345 350 25
f 345 25 347
f 348 350 345
f 344 345 347
f 343 344 347
f 340 344 343
f 342 340 343
f 341 342 343
f 340 342 341
f 340 341 338
f 201 340 338
f 201 338 203
f 212 349 346
f 210 212 207
f 201 339 340
f 202 217 209
f 217 210 207
f 186 195 184
f 184 195 188
f 211 212 210
f 212 354 353
f 354 355 351
f 213 223 359
f 355 356 352
f 365 368 367
f 364 366 357
f 223 364 362
f 219 221 365
f 214 223 213
f 219 220 175
f 176 174 173
f 181 144 178
f 182 136 176
f 141 139 136
f 141 142 129
f 148 193 147
f 155 147 149
f 121 131 155
f 152 129 157
f 57 126 164
f 57 120 126
f 130 116 168
f 96 120 57
f 95 111 96
f 116 124 133
f 138 135 133
f 118 143 111
f 115 100 118
f 128 137 132
f 100 281 297
f 278 282 281
f 282 277 285
f 277 284 290
f 291 284 295
f 284 293 295
f 286 301 300
f 296 286 300
f 294 286 296
f 294 395 312
f 298 312 308
f 138 308 390
f 390 386 379
f 386 389 387
f 305 394 391
f 311 316 305
f 303 313 311
f 322 313 318
f 318 321 322
f 322 321 325
f 393 399 387
f 384 387 398
f 398 327 334
f 329 330 327
f 400 322 325
f 321 328 325
f 321 324 328
f 324 326 328
f 319 324 321
f 329 26 332
f 328 335 336
f 328 326 335
f 323 326 324
f 333 10 9
f 317 13 320
f 317 5 13
f 309 5 317
f 319 323 324
f 318 319 321
f 307 315 318
f 310 314 315
f 309 317 320
f 310 302 314
f 295 306 302
f 295 293 306
f 284 299 293
f 309 3 5
f 299 2 3

