# https://github.com/mikedh/trimesh
v 0.24532375 -0.45172563 0.13211150
v 0.26390376 -0.45020375 0.12534925
v 0.30989575 -0.44976551 0.08656150
v 0.32038799 -0.45050299 0.06074400
v 0.31946799 -0.45033199 0.06395100
v 0.31669549 -0.45084849 0.07251300
v 0.32299450 -0.45146049 0.04552200
v 0.32161099 -0.44768301 0.03688500
v 0.32094712 -0.44850588 0.02316262
v 0.32289800 -0.45054000 0.03899500
v 0.28167199 -0.44471500 -0.06495650
v 0.26483549 -0.43904151 -0.08310150
v 0.24096025 -0.43961924 -0.10379306
v 0.30375238 -0.44537737 -0.02570363
v 0.21628100 -0.44720000 -0.12175200
v 0.21177100 -0.44898301 -0.12432600
v 0.20529699 -0.45062199 -0.12764400
v 0.18881549 -0.45192500 -0.13467175
v 0.17039400 -0.45334801 -0.14152300
v 0.07018925 -0.47175350 0.14734725
v 0.28854701 -0.45271200 0.11335900
v 0.27760025 -0.45360050 0.12077525
v 0.29256299 -0.45285401 0.11020700
v 0.25319350 -0.45172749 0.12996200
v 0.23114544 -0.45468613 0.13661681
v 0.12510000 -0.46893500 0.14741450
v 0.15990425 -0.46314900 0.14707625
v 0.18939600 -0.45979499 0.14419099
v 0.28029762 -0.47430912 0.11587775
v 0.27795801 -0.48968199 0.10229600
v 0.28794301 -0.48787901 0.09424700
v 0.29380575 -0.47519612 0.10351637
v 0.29462950 -0.48104149 0.09584300
v 0.18930050 -0.46999350 0.14267099
v 0.22133750 -0.46698725 0.13868975
v 0.26420701 -0.46683499 0.12796199
v 0.25264525 -0.46659075 0.13187950
v 0.27186900 -0.46744399 0.12444099
v 0.16835100 -0.47259199 0.14382250
v 0.13632700 -0.47457901 0.14468600
v 0.27751549 -0.46950500 0.12058600
v 0.31883887 -0.47756865 0.01156262
v 0.31644246 -0.47939383 0.00355896
v 0.31059969 -0.48846226 0.00069446
v 0.30857725 -0.48802825 -0.00921964
v 0.31143899 -0.48935750 0.01093350
v 0.31885188 -0.47952297 0.02156146
v 0.32149801 -0.47531801 0.03195000
v 0.31311507 -0.48729810 0.01872335
v 0.31345499 -0.48691499 0.02578100
v 0.32093349 -0.47617650 0.03462900
v 0.31175200 -0.48976599 0.02053750
v 0.32292551 -0.46742250 0.05206400
v 0.32406215 -0.47114005 0.03372341
v 0.32405024 -0.46958107 0.03779741
v 0.32140550 -0.47170325 0.05139975
v 0.32454950 -0.46674250 0.03936050
v 0.29422254 -0.45186752 -0.05111838
v 0.30400560 -0.45380950 -0.03482578
v 0.31633603 -0.45598798 -0.00776024
v 0.31427328 -0.45052904 -0.00811058
v 0.31873961 -0.45111661 0.00598901
v 0.30591606 -0.45953049 -0.03415095
v 0.32150631 -0.45334159 0.01373072
v 0.32301332 -0.45175573 0.02575918
v 0.28646012 -0.45159720 -0.06270046
v 0.31593591 -0.46351656 -0.01216564
v 0.29085280 -0.46117508 -0.06047954
v 0.31845900 -0.46032399 -0.00349000
v 0.30939004 -0.46379189 -0.02764761
v 0.30141135 -0.46142656 -0.04353983
v 0.30319734 -0.46473687 -0.04054469
v 0.32336101 -0.45640299 0.01940100
v 0.27196723 -0.45543802 -0.08250040
v 0.27945770 -0.45431998 -0.07372950
v 0.26684400 -0.44876900 -0.08524100
v 0.32239610 -0.46044851 0.01063737
v 0.32436599 -0.45534976 0.03097575
v 0.32434650 -0.45838350 0.02439850
v 0.32474926 -0.46050901 0.02590475
v 0.17101325 -0.46236025 -0.14151425
v 0.18137145 -0.45542407 -0.13802734
v 0.20018411 -0.46160470 -0.13102616
v 0.21137812 -0.45598390 -0.12573434
v 0.19349987 -0.46719876 -0.13349826
v 0.17972420 -0.46448902 -0.13869254
v 0.21110940 -0.46611293 -0.12628482
v 0.19503100 -0.47060999 -0.13262600
v 0.21938300 -0.47329025 -0.12131450
v 0.22898316 -0.46851243 -0.11693013
v 0.22270314 -0.45307008 -0.11959567
v 0.23339060 -0.45830467 -0.11425751
v 0.24049599 -0.45523500 -0.10897200
v 0.24014056 -0.46480609 -0.11033761
v 0.25307066 -0.46831083 -0.10090398
v 0.25727340 -0.46106259 -0.09717113
v 0.25937975 -0.46644493 -0.09584069
v 0.24119845 -0.45132424 -0.10792671
v 0.26878089 -0.46544962 -0.08745957
v 0.26650091 -0.47473725 -0.08923396
v 0.25903446 -0.45517891 -0.09472563
v 0.24529132 -0.45003574 -0.10462791
v 0.25721032 -0.44062888 -0.09146050
v 0.26310984 -0.48621036 -0.08852731
v 0.26253449 -0.48938934 -0.08806861
v 0.23450367 -0.48636862 -0.10944308
v 0.23109276 -0.47233224 -0.11551418
v 0.25082094 -0.48936206 -0.09753033
v 0.22405801 -0.48727551 -0.11534400
v 0.22471599 -0.47720599 -0.11785700
v 0.23271975 -0.48969525 -0.10990250
v 0.24934454 -0.47632889 -0.10270690
v 0.24452537 -0.47156927 -0.10688491
v 0.25681901 -0.49141499 -0.09307300
v 0.26384201 -0.49144999 -0.08674350
v 0.29779614 -0.49023258 -0.03778188
v 0.28719935 -0.49004538 -0.05776792
v 0.31082750 -0.48919700 0.00499350
v 0.30940244 -0.48393936 -0.01382592
v 0.31887411 -0.47367218 0.00214420
v 0.30924775 -0.49179899 -0.00035875
v 0.32318588 -0.46969718 0.01977576
v 0.32081031 -0.46784407 0.00498108
v 0.32249154 -0.46850993 0.01401338
v 0.32416923 -0.46823878 0.02286181
v 0.32033933 -0.46520340 0.00202406
v 0.32511499 -0.46402550 0.03534300
v 0.28092567 -0.47534137 -0.07311613
v 0.28628099 -0.46997899 -0.06700400
v 0.29028955 -0.47834141 -0.05905301
v 0.27371704 -0.48796455 -0.07634806
v 0.29595376 -0.47534454 -0.05158923
v 0.29150043 -0.48140815 -0.05569789
v 0.27815590 -0.46806236 -0.07762430
v 0.28070712 -0.49118910 -0.06765046
v 0.29494963 -0.47398412 -0.05417854
v 0.28686199 -0.46624601 -0.06640300
v 0.30227950 -0.49147087 -0.02519063
v 0.29966990 -0.47026704 -0.04782747
v 0.28936200 -0.49142149 -0.05350325
v 0.31241101 -0.46575299 -0.02086300
v 0.31696937 -0.46773103 -0.00923473
v 0.30354400 -0.49141499 -0.02252100
v 0.29231080 -0.48704382 -0.05046800
v 0.30610460 -0.47898056 -0.02932251
v 0.29933527 -0.48796142 -0.03538426
v 0.31423072 -0.47436174 -0.01283286
v 0.30523800 -0.47444393 -0.03487112
v 0.31171850 -0.47930918 -0.01386386
v 0.31119320 -0.47197813 -0.02242845
v 0.13784110 -0.47181965 0.14612380
v 0.16113506 -0.46904863 0.14596166
v 0.27881744 -0.45597262 0.12125243
v 0.28803067 -0.45774508 0.11558090
v 0.27287233 -0.45878706 0.12482646
v 0.26772163 -0.46007733 0.12728254
v 0.27783880 -0.46254709 0.12234488
v 0.25992572 -0.45625453 0.13011237
v 0.25578148 -0.45949401 0.13178613
v 0.29555296 -0.45442064 0.10828940
v 0.29669126 -0.45228000 0.10588625
v 0.23622697 -0.45599306 0.13624335
v 0.28464350 -0.46542451 0.11733950
v 0.28727723 -0.46192376 0.11618164
v 0.29301600 -0.46331650 0.11114600
v 0.30031700 -0.45466150 0.10297575
v 0.26977121 -0.46454361 0.12644994
v 0.24827266 -0.46071905 0.13395313
v 0.23449385 -0.45932446 0.13716468
v 0.21248333 -0.46089217 0.14135918
v 0.16304894 -0.46544640 0.14665240
v 0.17910012 -0.46379560 0.14542181
v 0.18873922 -0.46566426 0.14411827
v 0.21885285 -0.46444670 0.13998269
v 0.23592309 -0.46174359 0.13685377
v 0.24537764 -0.46444048 0.13452991
v 0.31072075 -0.49240199 0.02336731
v 0.26874600 -0.49539200 0.11032375
v 0.30493950 -0.49581050 0.06421150
v 0.29283429 -0.49367975 0.08453121
v 0.27876903 -0.49306716 0.10129372
v 0.30005379 -0.49343475 0.07121242
v 0.31017015 -0.45671716 0.09041844
v 0.31707006 -0.45973784 0.07607906
v 0.31935607 -0.45716197 0.07025221
v 0.32154134 -0.45904537 0.06336392
v 0.32370661 -0.46009383 0.05413483
v 0.32272635 -0.45500472 0.05661254
v 0.31107265 -0.45254690 0.08691493
v 0.32236231 -0.46156489 0.05990175
v 0.32434087 -0.46329461 0.04965168
v 0.31792695 -0.46517753 0.07246319
v 0.31217682 -0.46049458 0.08671144
v 0.32131479 -0.46454337 0.06259544
v 0.30624347 -0.45752138 0.09643576
v 0.31388299 -0.46697158 0.08063993
v 0.32511089 -0.46012015 0.04214907
v 0.30413458 -0.45461413 0.09881955
v 0.32537169 -0.45942131 0.03695162
v 0.31860573 -0.45161816 0.06935301
v 0.32500541 -0.45887778 0.03002818
v 0.32384853 -0.45506802 0.04997082
v 0.32454558 -0.45481144 0.03785711
v 0.29207233 -0.46961901 0.10994956
v 0.28260835 -0.46983026 0.11750243
v 0.30244677 -0.47369879 0.09468567
v 0.30622595 -0.47292176 0.08954184
v 0.30037265 -0.46520479 0.10345581
v 0.30704028 -0.46558841 0.09390416
v 0.29796090 -0.46057004 0.10679143
v 0.31015351 -0.49103281 0.03711343
v 0.28243840 -0.49094879 0.09749879
v 0.28843461 -0.49096258 0.09006125
v 0.29528653 -0.48551328 0.08879229
v 0.30067199 -0.47661701 0.09389400
v 0.30372466 -0.47821788 0.08696848
v 0.29894068 -0.47304631 0.10025720
v 0.29504483 -0.49119314 0.08092824
v 0.29983986 -0.49093043 0.07236088
v 0.30624043 -0.49112372 0.05518393
v 0.30447796 -0.48785173 0.06695125
v 0.31086242 -0.47731335 0.07412793
v 0.30936388 -0.47559928 0.07998282
v 0.31457499 -0.47428101 0.06993600
v 0.31543401 -0.47477800 0.06666800
v 0.31510534 -0.47951436 0.05644561
v 0.31649135 -0.47537355 0.06254487
v 0.31528977 -0.47080191 0.07370580
v 0.32043470 -0.47486159 0.05019447
v 0.32153319 -0.46898315 0.05718120
v 0.31120850 -0.49005282 0.03032396
v 0.31777810 -0.48018276 0.04083630
v 0.30991119 -0.48899309 0.04527805
v 0.31797266 -0.47696155 0.05340035
v 0.31107429 -0.47970627 0.06854243
f 24 1 2
f 24 2 158
f 158 25 24
f 162 25 158
f 158 169 162
f 162 169 170
f 169 175 170
f 175 176 170
f 168 176 175
f 168 159 176
f 159 167 176
f 176 167 36
f 176 36 37
f 176 37 35
f 176 35 174
f 174 35 173
f 170 174 173
f 173 172 170
f 172 173 152
f 173 34 152
f 152 34 39
f 39 151 152
f 152 151 26
f 27 152 26
f 171 152 27
f 172 171 27
f 28 172 27
f 26 151 20
f 151 40 20
f 39 40 151
f 171 172 152
f 170 172 28
f 25 170 28
f 35 34 173
f 167 38 36
f 167 163 38
f 157 163 167
f 157 167 155
f 155 167 156
f 155 156 158
f 158 156 159
f 153 155 158
f 153 158 22
f 22 154 153
f 154 157 153
f 154 164 157
f 165 164 154
f 165 163 164
f 165 205 163
f 165 208 205
f 205 208 204
f 217 204 208
f 208 209 217
f 209 206 217
f 217 206 215
f 217 215 214
f 217 214 33
f 32 217 33
f 214 213 33
f 214 218 213
f 216 218 214
f 222 218 216
f 222 235 218
f 222 227 235
f 227 226 235
f 235 226 221
f 226 220 221
f 226 233 220
f 234 233 226
f 232 233 234
f 229 232 234
f 227 229 234
f 228 229 227
f 230 229 228
f 56 229 230
f 53 56 230
f 230 191 53
f 194 191 230
f 194 230 192
f 185 194 192
f 185 186 194
f 186 190 194
f 186 187 190
f 190 187 191
f 187 197 191
f 197 199 191
f 199 197 202
f 202 203 199
f 202 7 203
f 10 203 7
f 10 78 203
f 78 201 203
f 201 78 80
f 201 80 199
f 199 80 127
f 127 80 125
f 127 125 57
f 57 125 55
f 55 125 54
f 125 122 54
f 125 124 122
f 125 123 124
f 126 123 125
f 77 126 125
f 77 142 126
f 77 67 142
f 67 141 142
f 141 139 142
f 142 139 148
f 142 148 150
f 142 150 147
f 147 150 148
f 148 145 147
f 148 144 145
f 148 133 144
f 148 132 133
f 148 136 132
f 136 130 132
f 136 128 130
f 139 128 136
f 139 129 128
f 134 129 139
f 139 137 134
f 68 137 139
f 71 68 139
f 71 139 72
f 70 72 139
f 67 70 139
f 67 60 70
f 63 70 60
f 63 71 70
f 61 63 60
f 59 63 61
f 59 68 63
f 58 68 59
f 75 68 58
f 68 75 134
f 74 134 75
f 74 99 134
f 99 100 134
f 128 134 100
f 128 100 104
f 128 104 131
f 131 104 105
f 131 105 135
f 117 131 135
f 144 131 117
f 146 144 117
f 146 117 116
f 143 146 116
f 145 146 143
f 143 116 138
f 116 140 138
f 135 105 115
f 105 108 115
f 108 114 115
f 108 111 114
f 106 111 108
f 106 109 111
f 107 109 106
f 107 110 109
f 107 89 110
f 107 87 89
f 90 87 107
f 94 90 107
f 113 94 107
f 113 107 112
f 95 113 112
f 100 95 112
f 97 95 100
f 96 95 97
f 99 96 97
f 101 96 99
f 101 94 96
f 101 102 94
f 103 102 101
f 103 13 102
f 13 103 12
f 12 103 75
f 75 103 76
f 76 103 74
f 12 75 11
f 11 75 66
f 58 11 66
f 14 11 58
f 102 13 98
f 102 98 92
f 93 102 92
f 93 92 94
f 98 91 92
f 91 84 92
f 84 87 92
f 84 83 87
f 83 85 87
f 85 88 87
f 85 86 88
f 88 86 81
f 86 82 81
f 83 82 86
f 19 81 82
f 19 82 18
f 18 82 84
f 17 18 84
f 16 17 84
f 15 16 84
f 83 86 85
f 84 82 83
f 15 84 91
f 13 15 91
f 98 13 91
f 103 101 74
f 102 93 94
f 96 94 95
f 95 94 113
f 92 90 94
f 92 87 90
f 87 88 89
f 112 107 106
f 105 112 106
f 105 106 108
f 104 112 105
f 100 112 104
f 97 100 99
f 74 101 99
f 75 76 74
f 58 66 75
f 14 58 59
f 14 59 61
f 14 61 62
f 14 62 9
f 64 9 62
f 64 62 77
f 64 77 73
f 73 77 79
f 80 79 77
f 79 65 73
f 78 65 79
f 64 73 65
f 62 60 77
f 60 69 77
f 9 64 65
f 8 9 65
f 8 65 10
f 62 61 60
f 69 60 67
f 70 71 72
f 63 68 71
f 68 134 137
f 134 128 129
f 130 128 131
f 130 131 133
f 132 130 133
f 133 131 144
f 145 144 146
f 147 145 143
f 147 143 149
f 147 149 119
f 43 147 119
f 120 147 43
f 42 120 43
f 122 120 42
f 42 43 47
f 43 44 47
f 49 47 44
f 51 47 49
f 51 49 50
f 51 50 232
f 232 50 231
f 50 52 231
f 49 118 50
f 48 47 51
f 54 48 51
f 53 54 51
f 48 54 47
f 44 118 49
f 118 44 138
f 44 43 45
f 45 143 44
f 45 119 143
f 42 47 54
f 43 119 45
f 119 149 143
f 120 142 147
f 123 142 120
f 139 136 148
f 69 67 77
f 123 126 142
f 124 123 120
f 124 120 122
f 54 122 42
f 53 55 54
f 53 57 55
f 80 77 125
f 10 65 78
f 200 7 202
f 188 200 202
f 188 202 187
f 185 200 188
f 200 185 183
f 183 189 200
f 6 200 189
f 6 5 200
f 200 5 4
f 3 6 189
f 189 198 3
f 198 189 195
f 198 195 210
f 166 198 210
f 166 210 165
f 195 208 210
f 195 183 208
f 183 193 208
f 183 184 193
f 193 184 192
f 193 192 196
f 193 196 209
f 209 196 207
f 196 228 207
f 228 223 207
f 228 222 223
f 228 224 222
f 228 225 224
f 224 225 222
f 207 223 216
f 196 192 228
f 166 3 198
f 195 189 183
f 185 184 183
f 199 203 201
f 199 127 191
f 202 197 187
f 188 187 186
f 185 188 186
f 184 185 192
f 190 191 194
f 191 127 53
f 56 51 229
f 192 230 228
f 228 227 225
f 229 51 232
f 232 231 233
f 231 211 233
f 211 231 177
f 231 46 177
f 46 121 177
f 220 233 211
f 220 211 177
f 221 220 219
f 218 221 219
f 182 218 219
f 219 179 182
f 180 218 182
f 213 218 180
f 213 180 181
f 212 213 181
f 212 181 30
f 213 212 30
f 30 181 178
f 227 234 226
f 222 225 227
f 235 221 218
f 223 222 216
f 214 207 216
f 206 207 214
f 33 213 31
f 213 30 31
f 215 206 214
f 207 206 209
f 193 209 208
f 204 217 32
f 204 32 29
f 204 29 205
f 205 29 41
f 210 208 165
f 163 205 41
f 160 165 154
f 21 154 22
f 23 154 21
f 23 161 154
f 153 157 155
f 164 163 157
f 159 156 167
f 158 159 168
f 170 176 174
f 168 175 169
f 158 168 169
f 25 162 170
f 2 22 158

