# https://github.com/mikedh/trimesh
v -0.23355700 -0.42981750 0.14965149
v -0.22950051 -0.43231250 0.15417200
v -0.24216950 -0.42354051 0.13711999
v -0.19106950 -0.41801025 0.16921100
v -0.20189075 -0.42255449 0.15775850
v -0.21557350 -0.42820449 0.15310650
v -0.17787037 -0.41888475 0.17910275
v -0.16539800 -0.42403501 0.18639401
v -0.16076937 -0.42518788 0.18754875
v -0.22188272 -0.43090459 0.15735970
v -0.16170500 -0.44375200 0.19086975
v -0.17280325 -0.43210600 0.19143225
v -0.13551125 -0.41481300 0.13787775
v -0.16509055 -0.41928588 0.14038495
v -0.17657652 -0.42082257 0.14087244
v -0.15235500 -0.41843000 0.13946675
v -0.12424500 -0.41208401 0.13670300
v -0.11893175 -0.41040800 0.13643525
v -0.09904450 -0.40254049 0.13424200
v -0.08923587 -0.39731116 0.13365145
v -0.08349284 -0.39348624 0.13332807
v -0.20046249 -0.42359351 0.14079350
v -0.07588100 -0.38804400 0.13261600
v -0.14717756 -0.41676510 0.13888988
v -0.18883300 -0.42282099 0.14076400
v -0.09256200 -0.43395401 0.18811800
v -0.08647782 -0.43748381 0.18184837
v -0.09903850 -0.42380850 0.16656400
v -0.10357100 -0.42095301 0.17828900
v -0.10209800 -0.42180601 0.17608801
v -0.10055300 -0.42296950 0.16310100
v -0.10839850 -0.41907200 0.18395050
v -0.12466975 -0.41832612 0.19131563
v -0.11203000 -0.42188799 0.19205800
v -0.09936250 -0.42799875 0.18989474
v -0.11944300 -0.41961850 0.19207750
v -0.12843999 -0.41782799 0.19116899
v -0.12320750 -0.41717262 0.18908063
v -0.06329109 -0.43884701 0.18599806
v -0.07360975 -0.43650924 0.18988600
v -0.07787100 -0.43811601 0.18814600
v -0.23675983 -0.42540941 0.13923789
v -0.21520483 -0.42493955 0.14088335
v -0.22589326 -0.43137771 0.15239351
v -0.11729212 -0.41746838 0.14444188
v -0.13476776 -0.41693474 0.13956567
v -0.21638677 -0.42831174 0.14864334
v -0.12112758 -0.41189201 0.13713886
v -0.11250700 -0.41503300 0.14242200
v -0.09995075 -0.40833550 0.13925825
v -0.12287500 -0.41980201 0.14731200
v -0.09802600 -0.41331601 0.14341700
v -0.16372192 -0.42241553 0.15428435
v -0.14995333 -0.42149510 0.14720420
v -0.13232663 -0.42077524 0.15103316
v -0.16094631 -0.42234229 0.14638894
v -0.14718009 -0.42077685 0.15822063
v -0.11571378 -0.42049849 0.15454448
v -0.18008456 -0.42324502 0.15345602
v -0.13177455 -0.41638532 0.17929748
v -0.14134917 -0.41685402 0.18302062
v -0.12318531 -0.41991361 0.16061885
v -0.19239163 -0.42520782 0.14863274
v -0.11896198 -0.41745065 0.17659942
v -0.15586189 -0.42120619 0.16904529
v -0.18506068 -0.42279405 0.15544268
v -0.13421259 -0.41585200 0.18332037
v -0.11065129 -0.42048970 0.16556879
v -0.16962894 -0.42187663 0.16263860
v -0.19627013 -0.42175516 0.15803209
v -0.15864163 -0.42096982 0.14195513
v -0.19597391 -0.42505902 0.15078914
v -0.10502600 -0.42177701 0.16069600
v -0.17832862 -0.42107303 0.16226113
v -0.17458051 -0.42126401 0.16283683
v -0.18804707 -0.41742623 0.17097041
v -0.17508254 -0.41923837 0.17278794
v -0.11474500 -0.41731200 0.18222301
v -0.12654994 -0.41572106 0.18390027
v -0.11807709 -0.41663768 0.18513949
v -0.16564186 -0.42202080 0.17049666
v -0.16150251 -0.42224617 0.17153419
v -0.11980400 -0.42036000 0.15063900
v -0.21879900 -0.42945955 0.15174446
v -0.13975745 -0.41691576 0.18654209
v -0.20933457 -0.42689557 0.15113042
v -0.14610566 -0.41782935 0.18031318
v -0.16238567 -0.42290719 0.17931786
v -0.10831898 -0.41896576 0.18073163
v -0.10182900 -0.42280799 0.16741800
v -0.17265406 -0.41974888 0.17896810
v -0.13323461 -0.41645131 0.18912348
v -0.14645191 -0.41848137 0.18603903
v -0.15058279 -0.41976257 0.18546510
v -0.15769909 -0.42222884 0.18134172
v -0.14788341 -0.42038442 0.18984309
v -0.14394600 -0.42134650 0.19208601
v -0.14012151 -0.42036499 0.19208100
v -0.15140900 -0.42426250 0.19212000
v -0.11464400 -0.43316200 0.18958500
v -0.11003375 -0.43948400 0.18764825
v -0.10475200 -0.43456000 0.19089000
v -0.13674210 -0.42959882 0.19367375
v -0.11877237 -0.42783613 0.19349512
v -0.15114100 -0.42972699 0.19379701
v -0.16112859 -0.42946100 0.19142021
v -0.16628302 -0.43436419 0.19248989
v -0.16218447 -0.43840379 0.19279388
v -0.14526699 -0.43237799 0.19316500
v -0.16290450 -0.43208174 0.19231876
v -0.11748119 -0.42365752 0.19398209
v -0.09592288 -0.43078629 0.18948356
v -0.10761663 -0.42676838 0.19287618
v -0.14582649 -0.42300694 0.19328580
v -0.14129077 -0.42520796 0.19421815
v -0.12777800 -0.42193501 0.19382800
v -0.15475025 -0.43028450 0.19329825
v -0.06480063 -0.37953475 0.13127425
v -0.04036850 -0.35094775 0.13050650
v -0.04923075 -0.36274875 0.13052412
v -0.03490173 -0.34377782 0.13118069
v -0.02604450 -0.33344101 0.13226100
v -0.02496651 -0.33100950 0.13312616
v -0.06683675 -0.38153450 0.13155138
v -0.05243325 -0.36633150 0.13052425
v 0.01721587 -0.29905913 0.12938462
v 0.01205400 -0.30865550 0.13097138
v 0.00524399 -0.32322625 0.13281674
v 0.00188300 -0.33311450 0.13403550
v -0.00189000 -0.34388301 0.13540401
v -0.00788316 -0.36394820 0.13828665
v -0.01564710 -0.38019470 0.13865215
v -0.01220100 -0.37304801 0.13777500
v -0.01018100 -0.36683801 0.13678300
v -0.01895000 -0.38611299 0.13943100
v 0.01884500 -0.29495999 0.12840500
v 0.01865300 -0.28985476 0.12670650
v 0.00996900 -0.31197149 0.13106900
v -0.03208233 -0.40581215 0.14383189
v -0.04131495 -0.41628283 0.14745407
v -0.04304800 -0.41979900 0.15140299
v -0.03837150 -0.41213950 0.14546613
v -0.09569725 -0.42005725 0.15102525
v -0.07349895 -0.39389557 0.13683506
v -0.05306037 -0.37157891 0.13335823
v -0.06377441 -0.38593214 0.13566399
v -0.08226791 -0.41835541 0.14832039
v -0.10160645 -0.41788593 0.14632901
v -0.08463702 -0.41477712 0.14543114
v -0.08911868 -0.40399750 0.13882369
v -0.04590100 -0.41560701 0.14671101
v -0.05770109 -0.41599960 0.14704466
v -0.06982932 -0.40031842 0.14000089
v -0.07018165 -0.40838661 0.14292536
v -0.04128652 -0.41171177 0.14546028
v -0.05772762 -0.39430169 0.13942913
v -0.03848644 -0.40551683 0.14378290
v -0.05819859 -0.38684609 0.13748985
v -0.02707936 -0.37929578 0.13927546
v -0.03286494 -0.38410390 0.13990476
v -0.04558672 -0.36743218 0.13587882
v -0.03253566 -0.36273332 0.13727723
v -0.02080154 -0.37467328 0.13881132
v -0.02715359 -0.39807838 0.14127598
v -0.02602864 -0.34911678 0.13652459
v -0.00922090 -0.32455382 0.13634567
v -0.01514543 -0.32055762 0.13572222
v 0.00720726 -0.29986855 0.13339054
v -0.00435688 -0.31008991 0.13583949
v -0.01172986 -0.35527293 0.13724930
v -0.00692078 -0.35615287 0.13600409
v -0.00004206 -0.32746012 0.13418749
v -0.00121953 -0.33970075 0.13461595
v 0.01400100 -0.29056999 0.12890100
v -0.02065581 -0.33595419 0.13581316
v -0.03718494 -0.35290509 0.13428572
v -0.03794119 -0.34898418 0.13046974
v -0.06974838 -0.44649990 0.18269321
v -0.07131376 -0.45112095 0.18174553
v -0.07317846 -0.45455631 0.17995083
v -0.07220698 -0.44170754 0.18842470
v -0.07451828 -0.46184454 0.17737058
v -0.08278382 -0.45112449 0.18503726
v -0.08148665 -0.45353900 0.18496845
v -0.07578899 -0.44697667 0.18636087
v -0.08565551 -0.45632071 0.18472952
v -0.08310650 -0.46214741 0.18287234
v -0.08859397 -0.45728292 0.18441220
v -0.09358991 -0.44639062 0.18766786
v -0.09884752 -0.43934051 0.18978568
v -0.07432904 -0.44988858 0.18408103
v -0.08992141 -0.44297069 0.18811721
v -0.08890750 -0.46104899 0.18226250
f 42 1 2
f 44 42 2
f 47 42 44
f 84 47 44
f 84 86 47
f 86 84 6
f 5 86 6
f 70 86 5
f 70 72 86
f 66 72 70
f 66 63 72
f 63 47 72
f 63 71 47
f 56 71 63
f 46 71 56
f 46 16 71
f 16 14 71
f 14 15 71
f 71 15 47
f 24 16 46
f 13 24 46
f 46 17 13
f 17 46 48
f 51 48 46
f 48 51 49
f 50 48 49
f 48 50 19
f 19 50 150
f 150 50 52
f 148 150 52
f 148 52 45
f 143 148 45
f 147 148 143
f 147 149 148
f 150 148 149
f 143 141 147
f 140 147 141
f 140 152 147
f 152 150 147
f 154 150 152
f 153 154 152
f 153 152 155
f 157 153 155
f 157 155 142
f 139 157 142
f 164 157 139
f 160 157 164
f 135 160 164
f 159 160 135
f 162 160 159
f 162 161 160
f 165 161 162
f 170 165 162
f 166 165 170
f 130 166 170
f 130 170 171
f 171 170 131
f 172 166 130
f 172 169 166
f 168 169 172
f 138 168 172
f 138 172 128
f 128 172 129
f 173 129 172
f 129 173 130
f 127 168 138
f 168 127 126
f 174 168 126
f 136 174 126
f 137 174 136
f 169 167 166
f 167 175 166
f 175 167 123
f 123 122 175
f 175 122 176
f 176 161 175
f 176 119 161
f 177 119 176
f 121 177 176
f 161 119 120
f 120 125 161
f 161 125 145
f 161 145 146
f 161 146 158
f 158 146 144
f 156 158 144
f 157 158 156
f 144 153 156
f 144 150 153
f 21 150 144
f 21 20 150
f 144 23 21
f 124 23 144
f 118 124 144
f 118 144 146
f 145 118 146
f 125 118 145
f 122 121 176
f 166 175 165
f 170 162 163
f 170 163 133
f 170 133 134
f 135 133 163
f 133 135 132
f 162 135 163
f 175 161 165
f 161 158 160
f 162 159 135
f 160 158 157
f 142 155 140
f 155 151 140
f 156 153 157
f 155 152 151
f 154 153 150
f 151 152 140
f 20 19 150
f 48 19 18
f 51 46 55
f 55 83 51
f 58 83 55
f 83 58 73
f 68 73 58
f 31 73 68
f 28 31 68
f 28 68 90
f 90 68 89
f 89 68 64
f 78 89 64
f 89 78 80
f 80 32 89
f 32 29 89
f 30 89 29
f 28 89 30
f 38 32 80
f 80 79 38
f 79 80 64
f 64 62 79
f 79 62 55
f 60 79 55
f 67 79 60
f 79 67 92
f 67 61 92
f 92 61 85
f 92 85 96
f 92 96 98
f 96 99 98
f 96 9 99
f 99 9 106
f 99 106 114
f 117 114 106
f 114 117 105
f 105 117 108
f 117 107 108
f 110 107 117
f 110 12 107
f 106 12 110
f 107 12 108
f 12 11 108
f 109 108 11
f 105 108 109
f 105 109 103
f 103 115 105
f 115 103 104
f 111 115 104
f 115 111 116
f 114 115 116
f 33 114 116
f 33 37 114
f 37 97 114
f 33 116 111
f 36 33 111
f 36 111 34
f 34 111 113
f 34 113 35
f 35 113 112
f 113 111 104
f 113 104 102
f 26 113 102
f 112 113 26
f 26 102 190
f 26 190 189
f 26 189 192
f 192 189 183
f 183 189 186
f 186 189 188
f 186 188 193
f 186 193 187
f 191 186 187
f 191 187 182
f 191 182 180
f 191 180 179
f 178 191 179
f 181 191 178
f 181 185 191
f 185 184 191
f 191 184 186
f 181 183 185
f 183 184 185
f 40 183 181
f 40 41 183
f 41 27 183
f 40 181 39
f 181 178 39
f 183 186 184
f 104 103 100
f 102 104 100
f 102 100 101
f 115 114 105
f 106 110 117
f 97 99 114
f 106 9 12
f 96 94 9
f 96 93 94
f 93 87 94
f 94 87 95
f 87 65 95
f 95 65 82
f 95 82 88
f 9 95 88
f 9 88 8
f 8 88 91
f 88 77 91
f 91 77 7
f 7 77 76
f 77 74 76
f 75 74 77
f 81 75 77
f 81 69 75
f 81 53 69
f 81 82 53
f 69 53 75
f 75 53 66
f 53 59 66
f 59 53 63
f 74 75 66
f 74 66 76
f 77 88 81
f 8 91 7
f 82 81 88
f 65 53 82
f 65 57 53
f 57 54 53
f 55 54 57
f 55 57 87
f 67 55 87
f 54 56 53
f 87 57 65
f 85 87 93
f 94 95 9
f 92 98 37
f 37 38 92
f 85 93 96
f 85 61 87
f 67 87 61
f 60 55 67
f 62 68 55
f 92 38 79
f 78 64 80
f 64 68 62
f 28 90 89
f 68 58 55
f 55 46 54
f 18 17 48
f 54 46 56
f 53 56 63
f 59 63 66
f 66 70 76
f 76 70 5
f 4 76 5
f 6 84 10
f 72 47 86
f 44 10 84
f 47 43 42
f 47 22 43
f 47 25 22
f 25 47 15
f 10 44 2
f 1 42 3

