v -0.0431904 -0.150164 0.105239
v -0.0426624 -0.15138 0.110659
v -0.0409642 -0.148091 0.115525
v -0.0390079 -0.146273 0.119971
v -0.0412345 -0.150971 0.116578
v -0.0392269 -0.149504 0.121112
v -0.0391647 -0.153532 0.121329
v -0.0407589 -0.154513 0.116997
v -0.0382588 -0.157367 0.1211
v -0.0368995 -0.16121 0.120325
v -0.0397385 -0.158221 0.116804
v -0.0309789 -0.164041 0.126927
v -0.0347767 -0.160636 0.124133
v -0.0331255 -0.164605 0.123136
v -0.0352722 -0.165169 0.119346
v -0.0288943 -0.163228 0.130766
v -0.0326704 -0.15991 0.127955
v -0.0364465 -0.156591 0.125145
v -0.0306449 -0.158807 0.131848
v -0.0406586 -0.14519 0.11466
v -0.0428745 -0.148226 0.101546
v -0.0420657 -0.145815 0.107093
v -0.0422217 -0.147698 0.110347
v -0.0341936 -0.155424 0.128868
v -0.0286202 -0.153106 0.135458
v -0.031695 -0.154222 0.132409
v -0.0246898 -0.156637 0.137847
v -0.0211097 -0.155918 0.14024
v -0.0172319 -0.155608 0.142016
v -0.0199998 -0.160212 0.138333
v -0.0405193 -0.143613 0.112092
v -0.0136785 -0.150085 0.143782
v -0.0132533 -0.155216 0.143583
v -0.00670472 -0.124816 0.138289
v -0.0103572 -0.134956 0.140596
v -0.0100743 -0.139746 0.142165
v -0.00979136 -0.144535 0.143733
v -0.0140097 -0.145096 0.142903
v -0.00697543 -0.12001 0.136677
v -0.0108055 -0.125214 0.137038
v -0.0105973 -0.130107 0.138874
v -0.00616055 -0.098635 0.130837
v -0.00838104 -0.109606 0.133017
v -0.00729593 -0.115047 0.134842
v -0.00509279 -0.104065 0.132578
v -0.00299679 -0.0930196 0.129793
v 0.000139211 -0.0873877 0.128614
v -0.0387797 -0.143378 0.118186
v -0.00411724 -0.0875398 0.128717
v -0.000903687 -0.081972 0.127027
v -0.00213197 -0.0764032 0.126662
v -0.0362 -0.140802 0.120818
v -0.0120907 -0.110209 0.130939
v -0.0113999 -0.115354 0.133117
v -0.0150023 -0.120728 0.133355
v -0.0146603 -0.125682 0.135608
v -0.0181483 -0.12633 0.133317
v -0.0182364 -0.131065 0.13584
v -0.0213958 -0.122342 0.128396
v -0.0215172 -0.127061 0.1309
v -0.0216386 -0.13178 0.133404
v -0.0217599 -0.136498 0.135908
v -0.0245769 -0.127941 0.12866
v -0.0246983 -0.13266 0.131164
v -0.0248196 -0.137378 0.133668
v -0.027758 -0.13354 0.128924
v -0.0278793 -0.138259 0.131428
v -0.0251468 -0.142167 0.136003
v -0.0283875 -0.143109 0.133615
v -0.0178739 -0.145602 0.141441
v -0.0218746 -0.141226 0.138369
v -0.0217276 -0.146253 0.139494
v -0.0255814 -0.146904 0.137546
v -0.0215661 -0.151221 0.14023
v -0.0254182 -0.151866 0.138239
v -0.0287978 -0.14802 0.13506
v -0.0316 -0.149569 0.132006
v -0.0345984 -0.150962 0.129036
v -0.0314811 -0.144232 0.131018
v -0.0342089 -0.145808 0.127903
v -0.0275917 -0.129823 0.126206
v -0.0307598 -0.135711 0.126408
v -0.0309299 -0.139344 0.129144
v -0.0338258 -0.14161 0.126431
v -0.0366458 -0.143943 0.123654
v -0.0305341 -0.132425 0.12352
v -0.0335678 -0.138189 0.123579
v -0.0244227 -0.123941 0.126001
v -0.0273509 -0.126643 0.123273
v -0.0212466 -0.118179 0.12574
v -0.0242522 -0.121056 0.122895
v -0.0241363 -0.118352 0.119663
v -0.0271488 -0.123879 0.120071
v -0.0301614 -0.129406 0.120479
v -0.0327448 -0.132077 0.117716
v -0.029712 -0.126779 0.117184
v -0.0213629 -0.112585 0.119481
v -0.0186278 -0.106842 0.119248
v -0.0357581 -0.137623 0.118097
v -0.0268246 -0.121364 0.116641
v -0.0239293 -0.115935 0.116095
v -0.021034 -0.110505 0.115549
v -0.0331785 -0.135047 0.120729
v -0.0288749 -0.125039 0.113471
v -0.0310045 -0.128637 0.110415
v -0.0259045 -0.119683 0.112817
v -0.0280341 -0.12328 0.109761
v -0.0301638 -0.126878 0.106705
v -0.0322935 -0.130476 0.103648
v -0.0229341 -0.114326 0.112164
v -0.0250638 -0.117924 0.109107
v -0.0271934 -0.121521 0.106051
v -0.0372172 -0.136765 0.108534
v -0.0334079 -0.132031 0.107487
v -0.0358877 -0.135369 0.104594
v -0.0345581 -0.133973 0.100655
v -0.0396966 -0.140103 0.105642
v -0.0383063 -0.138784 0.101844
v -0.0402654 -0.141939 0.109211
v -0.0370773 -0.137298 0.0980312
v -0.0405421 -0.142279 0.0996466
v -0.041648 -0.143904 0.103473
v -0.042019 -0.146292 0.0976413
v -0.039124 -0.140882 0.0958804
v -0.0408429 -0.144672 0.0938192
v -0.0371073 -0.139692 0.0921311
v -0.0390256 -0.14331 0.0899734
v -0.0370374 -0.147905 0.125094
v -0.0371187 -0.152225 0.125542
v -0.0414321 -0.148781 0.0920292
v -0.0401186 -0.147162 0.0880567
v -0.0157385 -0.103762 0.12245
v -0.0132367 -0.0972662 0.123158
v -0.01076 -0.0907418 0.123897
v -0.013304 -0.0947813 0.119849
v -0.010752 -0.0884498 0.120508
v -0.00820006 -0.0821183 0.121167
v -0.0269524 -0.161537 0.133188
v -0.00816628 -0.084439 0.124533
v -0.00556212 -0.0781992 0.12508
v -0.0278336 -0.157642 0.134754
v -0.0129002 -0.100289 0.126206
v -0.0103516 -0.0941955 0.126723
v -0.00780286 -0.0881318 0.127232
v -0.00704317 -0.0933566 0.129086
v -0.00519433 -0.0821019 0.127658
v -0.0098399 -0.0992757 0.128919
v -0.0125434 -0.105217 0.128615
v -0.0155542 -0.106495 0.125766
v -0.0184121 -0.11236 0.125672
v -0.0383311 -0.14037 0.115329
v -0.0352776 -0.135239 0.114812
v -0.0377895 -0.138559 0.111942
v -0.0322242 -0.130107 0.114295
v -0.034736 -0.133428 0.111425
v -0.0186223 -0.109445 0.122624
v -0.0212648 -0.115403 0.122597
v -0.0154279 -0.111022 0.128357
v -0.0182651 -0.116739 0.12831
v -0.0181782 -0.121546 0.13081
v -0.0152903 -0.115837 0.130899
v -0.00912456 -0.10442 0.130881
v -0.0110093 -0.120325 0.135205
v -0.0145219 -0.130524 0.137472
v -0.0143586 -0.135375 0.139279
v -0.0141953 -0.140227 0.141086
v -0.018198 -0.135872 0.137932
v -0.0180346 -0.140723 0.139739
v -0.00639042 -0.129626 0.139767
v -0.00317875 -0.110553 0.134689
v -0.00288072 -0.115161 0.135968
v 0.000384971 -0.0970642 0.131864
v -0.00105334 -0.0933164 0.13069
v -0.000673243 -0.0900809 0.129768
v -0.00029315 -0.0868454 0.128845
v 0.00386761 -0.0928367 0.130016
v 0.00132123 -0.0930513 0.130804
v 0.00424734 -0.0896011 0.129096
v 0.00170096 -0.0898156 0.129884
v 0.00462708 -0.0863655 0.128175
v 0.0020807 -0.08658 0.128963
v 0.00500682 -0.0831298 0.127255
v 0.00246044 -0.0833444 0.128043
v 0.00284017 -0.0801088 0.127123
v 0.00321991 -0.0768732 0.126202
v 0.00551827 -0.0728596 0.123624
v 0.00548178 -0.0725451 0.123638
v 0.00464295 -0.0969923 0.130809
v 0.00942446 -0.101495 0.129076
v 0.00502633 -0.101532 0.131802
v 0.00545827 -0.106082 0.132472
v 0.00886465 -0.0969906 0.128446
v 0.00652362 -0.076515 0.123397
v 0.0138534 -0.101748 0.124811
v 0.0155196 -0.106275 0.124773
v -0.0237675 -0.160632 0.136348
v 0.017044 -0.10576 0.119778
v 0.00544529 -0.0722306 0.123651
v 0.00639979 -0.0761919 0.123565
v 0.0063633 -0.0758774 0.123578
v 0.0150279 -0.0995293 0.113969
v 0.0137869 -0.096327 0.116799
v 0.0125458 -0.0931246 0.119629
v 0.0138537 -0.0963094 0.115781
v 0.0126126 -0.093107 0.118611
v 0.0139205 -0.0962918 0.114763
v 0.0126794 -0.0930895 0.117592
v 0.0114384 -0.0898871 0.120422
v 0.0127462 -0.0930719 0.116574
v 0.0115052 -0.0898696 0.119404
v 0.011572 -0.089852 0.118386
v 0.0116388 -0.0898344 0.117368
v 0.0103978 -0.0866321 0.120198
v 0.0104646 -0.0866145 0.119179
v 0.0105314 -0.0865969 0.118161
v 0.00929033 -0.0833946 0.120991
v 0.00935713 -0.083377 0.119973
v 0.00942393 -0.0833594 0.118955
v 0.00818289 -0.0801571 0.121785
v 0.00824969 -0.0801395 0.120766
v 0.00714225 -0.076902 0.12156
v 0.00632682 -0.0755629 0.123592
v 0.00629033 -0.0752484 0.123605
v 0.00625385 -0.0749339 0.123618
v 0.00621736 -0.0746194 0.123631
v 0.00725033 -0.0785885 0.123406
v 0.00618087 -0.0743049 0.123645
v 0.00713537 -0.0782663 0.123559
v 0.00955768 -0.0843742 0.122165
v 0.0110104 -0.0886957 0.121245
v 0.0124631 -0.0930171 0.120325
v 0.00709888 -0.0779518 0.123572
v 0.00966773 -0.084696 0.122021
v 0.0111204 -0.0890174 0.121101
v 0.0070624 -0.0776373 0.123585
v 0.00977778 -0.0850178 0.121877
v 0.0112305 -0.0893392 0.120956
v 0.00702591 -0.0773228 0.123599
v 0.00698943 -0.0770083 0.123612
v 0.00988783 -0.0853395 0.121733
v 0.0113405 -0.0896609 0.120812
v 0.00802579 -0.0809777 0.123381
v 0.00854517 -0.0813399 0.122509
v 0.00999788 -0.0856613 0.121588
v 0.00695294 -0.0766938 0.123625
v 0.00865521 -0.0816616 0.122365
v 0.0101079 -0.085983 0.121444
v 0.00790744 -0.0806551 0.123539
v 0.00876526 -0.0819834 0.12222
v 0.010218 -0.0863048 0.1213
v 0.00787095 -0.0803406 0.123553
v 0.00887531 -0.0823051 0.122076
v 0.010328 -0.0866265 0.121156
v 0.00783447 -0.0800261 0.123566
v 0.00898536 -0.0826269 0.121932
v 0.0117847 -0.0927495 0.122087
v 0.0105083 -0.0884145 0.122522
v 0.00909541 -0.0829487 0.121788
v 0.00923191 -0.0840794 0.122958
v 0.00775275 -0.078949 0.122564
v 0.00920546 -0.0832704 0.121644
v 0.00794747 -0.0797396 0.123386
v 0.0078628 -0.0792708 0.12242
v 0.0151378 -0.100097 0.116638
v 0.00797285 -0.0795925 0.122276
v 0.0136866 -0.0965143 0.119332
v 0.0080829 -0.0799143 0.122132
v 0.0126634 -0.096949 0.12247
v -0.0176882 -0.150575 0.142189
v -0.00579851 -0.139222 0.14282
v -0.00607366 -0.134437 0.141236
v -0.0034141 -0.106045 0.133557
v 0.00707039 -0.0768799 0.122476
v -0.00175369 -0.134 0.14169
v -0.00203818 -0.129197 0.140148
v -0.00232263 -0.124393 0.138604
v 0.00189584 -0.119791 0.137223
v 0.00165723 -0.115199 0.135747
v -0.00258704 -0.119717 0.137126
v 0.00135724 -0.11065 0.134657
v 0.0010297 -0.10612 0.13374
v 0.00070216 -0.101591 0.132824
v 0.00589792 -0.0800027 0.125843
v 0.00699312 -0.092745 0.128671
v 0.00557632 -0.0767324 0.125133
v 0.0077271 -0.0841936 0.12542
v 0.00802549 -0.0884011 0.126553
v 0.00832389 -0.0926086 0.127685
v 0.00617015 -0.0797255 0.125533
v 0.00765324 -0.0844972 0.125603
v 0.00795164 -0.0887047 0.126736
v 0.00624401 -0.0794219 0.125351
v 0.00757938 -0.0848008 0.125786
v 0.00787778 -0.0890083 0.126919
v 0.00631787 -0.0791183 0.125168
v 0.00669012 -0.0830222 0.126117
v 0.00750553 -0.0851044 0.125969
v 0.00780392 -0.0893119 0.127102
v 0.00639173 -0.0788147 0.124985
v 0.00713328 -0.0812005 0.125019
v 0.00743167 -0.085408 0.126152
v 0.00773006 -0.0896155 0.127284
v 0.00676398 -0.0827186 0.125934
v 0.00705942 -0.0815041 0.125202
v 0.00735781 -0.0857116 0.126335
v 0.00683784 -0.082415 0.125751
v 0.00698556 -0.0818077 0.125385
v 0.00728395 -0.0860152 0.126518
v 0.00721009 -0.0863188 0.126701
v 0.0069117 -0.0821113 0.125568
f 2 23 22 1
f 22 122 21 1
f 5 3 23 2
f 5 6 4 3
f 4 48 20 3
f 20 31 23 3
f 6 128 85 4
f 85 52 48 4
f 8 7 6 5
f 7 129 128 6
f 8 11 9 7
f 9 18 129 7
f 10 13 18 9
f 15 14 13 10
f 16 19 17 12
f 17 13 14 12
f 17 24 18 13
f 24 78 129 18
f 26 77 78 24
f 141 27 75 25
f 75 73 76 25
f 76 77 26 25
f 141 138 196 27
f 196 30 28 27
f 28 74 75 27
f 29 269 74 28
f 33 32 269 29
f 38 70 269 32
f 40 41 169 34
f 169 275 276 34
f 276 279 39 34
f 39 163 40 34
f 165 166 36 35
f 36 270 271 35
f 271 169 41 35
f 41 164 165 35
f 166 38 37 36
f 166 168 70 38
f 279 171 44 39
f 44 54 163 39
f 56 164 41 40
f 163 55 56 40
f 147 162 45 42
f 145 143 147 42
f 53 54 44 43
f 162 148 53 43
f 49 144 145 46
f 50 146 49 47
f 146 139 144 49
f 51 140 146 50
f 158 161 54 53
f 148 149 158 53
f 161 55 163 54
f 160 57 56 55
f 161 159 160 55
f 57 58 164 56
f 60 61 58 57
f 160 59 60 57
f 61 62 167 58
f 167 165 164 58
f 88 63 60 59
f 160 159 90 59
f 90 91 88 59
f 63 64 61 60
f 64 65 62 61
f 65 68 71 62
f 71 168 167 62
f 81 66 64 63
f 88 89 81 63
f 66 67 65 64
f 67 69 68 65
f 82 83 67 66
f 81 86 82 66
f 83 79 69 67
f 69 76 73 68
f 73 72 71 68
f 79 77 76 69
f 72 74 269 70
f 168 71 72 70
f 73 75 74 72
f 79 80 78 77
f 80 128 129 78
f 83 84 80 79
f 84 85 128 80
f 89 94 86 81
f 87 84 83 82
f 86 103 87 82
f 87 52 85 84
f 94 95 103 86
f 103 99 52 87
f 91 93 89 88
f 93 96 94 89
f 159 150 157 90
f 157 92 91 90
f 92 100 93 91
f 157 97 101 92
f 101 106 100 92
f 100 104 96 93
f 96 154 95 94
f 152 99 103 95
f 154 155 152 95
f 104 105 154 96
f 102 110 101 97
f 157 150 156 97
f 156 98 102 97
f 156 149 132 98
f 106 107 104 100
f 110 111 106 101
f 107 108 105 104
f 108 109 114 105
f 114 155 154 105
f 111 112 107 106
f 116 115 114 109
f 115 118 117 113
f 117 119 153 113
f 153 152 155 113
f 155 114 115 113
f 116 120 118 115
f 118 121 122 117
f 122 22 119 117
f 120 124 121 118
f 22 23 31 119
f 31 151 153 119
f 124 125 123 121
f 123 21 122 121
f 126 127 125 124
f 127 131 130 125
f 149 148 142 132
f 142 147 143 133
f 143 134 135 133
f 143 145 144 134
f 144 139 136 134
f 139 146 140 137
f 148 162 147 142
f 156 150 158 149
f 159 161 158 150
f 31 20 48 151
f 48 52 99 151
f 99 152 153 151
f 167 168 166 165
f 271 274 275 169
f 171 278 280 170
f 280 281 272 170
f 279 277 278 171
f 282 190 188 172
f 188 284 176 172
f 177 298 302 173
f 179 308 309 174
f 181 303 296 175
f 284 291 294 176
f 294 298 177 176
f 302 301 305 178
f 305 308 179 178
f 309 310 306 180
f 306 303 181 180
f 296 299 295 182
f 295 292 183 182
f 187 285 193 198
f 200 283 289 222
f 222 289 292 223
f 223 292 295 224
f 190 189 192 188
f 192 288 284 188
f 282 281 191 190
f 224 295 299 225
f 299 296 303 226
f 225 299 226 227
f 226 303 306 228
f 228 306 310 232
f 232 310 307 235
f 235 307 304 238
f 204 203 231 202
f 234 230 231 203
f 204 206 205 203
f 205 237 234 203
f 207 241 237 205
f 209 208 241 207
f 244 240 241 208
f 210 247 244 208
f 211 250 247 210
f 212 253 250 211
f 255 252 253 213
f 214 258 255 213
f 215 261 258 214
f 263 260 261 216
f 217 265 263 216
f 218 267 265 217
f 238 304 300 239
f 300 301 297 242
f 239 300 242 245
f 242 297 293 248
f 248 293 290 251
f 251 290 286 254
f 287 288 256 257
f 286 287 257 259
f 254 286 259 262
f 193 273 187 198
f 265 267 222 223
f 263 265 223 224
f 230 234 233 229
f 260 263 224 225
f 258 261 260 226
f 234 237 236 233
f 226 260 225 227
f 255 258 226 228
f 237 241 240 236
f 252 255 228 232
f 249 252 232 235
f 246 249 235 238
f 243 246 238 239
f 240 244 243 242
f 244 247 246 243
f 242 243 239 245
f 236 240 242 248
f 247 250 249 246
f 233 236 248 251
f 229 233 251 254
f 250 253 252 249
f 256 231 230 257
f 257 230 229 259
f 259 229 254 262
f 186 187 273 221
f 220 199 200 219
f 200 222 267 219
f 202 231 256 268
f 264 201 268 266
f 195 197 264 194
f 194 264 266 268
f 268 256 288 192
f 285 187 186 185
f 283 200 199 184
f 310 309 308 307
f 307 308 305 304
f 304 305 301 300
f 301 302 298 297
f 297 298 294 293
f 293 294 291 290
f 291 284 288 287
f 290 291 287 286
