v -0.052777 0.0670531 -0.14231
v -0.042002 0.067337 -0.142598
v -0.031351 0.0681277 -0.142416
v -0.0208064 0.0696771 -0.142104
v 0.0212597 0.0758368 -0.140425
v 0.042189 0.0805751 -0.140095
v 0.0317596 0.0777578 -0.140195
v 0.0820115 0.0949051 -0.140013
v 0.0721693 0.0908973 -0.139918
v 0.062327 0.0868895 -0.139822
v 0.0913691 0.099874 -0.139828
v 0.114716 0.120433 -0.13817
v 0.107114 0.113643 -0.138576
v 0.0995116 0.106854 -0.138981
v 0.121422 0.113638 -0.142441
v 0.113597 0.106081 -0.142591
v 0.105772 0.0985247 -0.142742
v 0.129097 0.121461 -0.142399
v 0.0883709 0.0842798 -0.142884
v 0.077276 0.0802985 -0.142681
v 0.0661825 0.076318 -0.142478
v 0.0551523 0.0727431 -0.142393
v 0.0443592 0.0703312 -0.142581
v 0.03374 0.0680509 -0.142621
v 0.0231208 0.0657705 -0.14266
v 0.0125143 0.0634598 -0.142676
v 0.00182615 0.061402 -0.142472
v -0.0088714 0.0597719 -0.14217
v -0.0196303 0.0584831 -0.141707
v -0.0415549 0.0573044 -0.139608
v -0.0525383 0.0575595 -0.138023
v -0.0102684 0.0712095 -0.141723
v -0.0305784 0.0576791 -0.14078
v 0.014213 0.0537705 -0.138242
v 0.0251515 0.0556516 -0.138761
v 0.0470924 0.0605148 -0.139128
v 0.0360339 0.0579438 -0.138997
v 0.0581388 0.0632588 -0.139158
v 0.103096 0.0828265 -0.139759
v 0.121278 0.0980532 -0.141173
v 0.112534 0.0903568 -0.140606
v 0.129708 0.106097 -0.141941
v 0.137132 0.114355 -0.142116
v 0.144515 0.122622 -0.142203
v 0.151874 0.130879 -0.142214
v 0.159138 0.139441 -0.141839
v 0.165781 0.148403 -0.141704
v 0.000235413 0.0727409 -0.141241
v 0.176895 0.191553 -0.143118
v 0.172372 0.181755 -0.143073
v 0.167666 0.172247 -0.142871
v 0.161616 0.163607 -0.142769
v 0.155419 0.155031 -0.142669
v 0.149221 0.146456 -0.142568
v 0.143033 0.137939 -0.14241
v 0.0107393 0.0742723 -0.14076
v 0.186489 0.187225 -0.141406
v 0.181872 0.17705 -0.14157
v 0.176524 0.16737 -0.141556
v 0.171378 0.157677 -0.141476
v 0.192053 0.184877 -0.132867
v 0.187996 0.174344 -0.133443
v 0.183035 0.164339 -0.133683
v 0.177868 0.154458 -0.133846
v 0.17209 0.144712 -0.134143
v 0.165564 0.135162 -0.134589
v 0.158672 0.125969 -0.135039
v 0.0523667 0.083471 -0.13995
v 0.122109 0.127685 -0.137904
v 0.0975214 0.091085 -0.142861
v 0.136473 0.129557 -0.142341
f 2 30 31 1
f 3 33 30 2
f 4 29 33 3
f 32 28 29 4
f 7 24 25 5
f 25 26 56 5
f 68 22 23 6
f 23 24 7 6
f 11 70 19 8
f 19 20 9 8
f 20 21 10 9
f 21 22 68 10
f 14 17 70 11
f 69 18 15 12
f 15 16 13 12
f 16 17 14 13
f 18 43 42 15
f 42 40 16 15
f 40 41 17 16
f 41 39 70 17
f 71 44 43 18
f 38 36 23 22
f 36 37 24 23
f 37 35 25 24
f 35 34 26 25
f 27 48 56 26
f 28 32 48 27
f 71 55 45 44
f 55 54 46 45
f 46 66 67 45
f 54 53 47 46
f 47 65 66 46
f 53 52 60 47
f 60 64 65 47
f 57 58 50 49
f 58 59 51 50
f 59 60 52 51
f 61 62 58 57
f 62 63 59 58
f 63 64 60 59
