# https://github.com/mikedh/trimesh
v 0.18636825 -0.33997551 0.12211000
v 0.20080525 -0.36071100 0.11695675
v 0.21859600 -0.37746350 0.10963425
v 0.23280700 -0.39953075 0.10010600
v 0.24354350 -0.41519888 0.09790650
v 0.11729750 -0.31199700 0.11547800
v 0.14010950 -0.31627213 0.12032900
v 0.15730099 -0.32127801 0.12273700
v 0.25165617 -0.28172333 0.12071689
v 0.24321900 -0.28563401 0.12201200
v 0.25755700 -0.28545901 0.12085100
v 0.21077100 -0.29104050 0.12300600
v 0.16559500 -0.29901400 0.12100900
v 0.27784449 -0.28777801 0.11652350
v 0.14271700 -0.30139899 0.11807200
v 0.30092649 -0.29287450 0.10376900
v 0.31372375 -0.29864375 0.09026575
v 0.26720977 -0.36473076 0.10640002
v 0.27584401 -0.36643800 0.10271500
v 0.26735109 -0.37803552 0.10034888
v 0.25630246 -0.39610005 0.09542733
v 0.26503024 -0.39946595 0.09140949
v 0.27063521 -0.39373583 0.09122366
v 0.27673377 -0.37564231 0.09801995
v 0.25444800 -0.37845099 0.10354700
v 0.23908785 -0.36185339 0.11318970
v 0.22024550 -0.36167787 0.11540633
v 0.22080086 -0.37447790 0.11095174
v 0.23563638 -0.35126655 0.11736966
v 0.24867315 -0.35135208 0.11553863
v 0.23655879 -0.39117691 0.10203159
v 0.26834300 -0.35389999 0.11023900
v 0.25380364 -0.35520420 0.11324436
v 0.26765772 -0.34743657 0.11282852
v 0.25483772 -0.38775605 0.09931402
v 0.25514524 -0.34973920 0.11473526
v 0.23964228 -0.39897605 0.09863909
v 0.26039724 -0.34107428 0.11635461
v 0.25585240 -0.33527397 0.11888953
v 0.27438008 -0.33621724 0.11444422
v 0.26633964 -0.32816072 0.11851906
v 0.24800438 -0.41160234 0.09524003
v 0.28074035 -0.33238058 0.11344175
v 0.28201437 -0.32970977 0.11402558
v 0.23873475 -0.33378118 0.12141660
v 0.22721607 -0.34355453 0.12014859
v 0.21249178 -0.33467616 0.12290927
v 0.22255910 -0.31913136 0.12482933
v 0.21046755 -0.35037871 0.11956138
v 0.19851048 -0.34703030 0.12077149
v 0.20395248 -0.35706664 0.11795854
v 0.24015627 -0.32830741 0.12245718
v 0.24649389 -0.32971302 0.12162846
v 0.27825043 -0.31925586 0.11730182
v 0.27661349 -0.34492025 0.11119645
v 0.25343526 -0.31251390 0.12312997
v 0.26645151 -0.31664300 0.12054253
v 0.25285704 -0.40509149 0.09412491
v 0.19775669 -0.33772601 0.12265592
v 0.24009871 -0.31627936 0.12414617
v 0.25835302 -0.31172656 0.12260950
v 0.28066446 -0.35070796 0.10763196
v 0.28908176 -0.34538343 0.10598039
v 0.28397753 -0.35951211 0.10265406
v 0.28391204 -0.31752911 0.11553804
v 0.20129305 -0.31959196 0.12499828
v 0.20573228 -0.32552970 0.12446190
v 0.21390958 -0.31719596 0.12512257
v 0.24246439 -0.30743823 0.12467199
v 0.22611499 -0.30574157 0.12535603
v 0.26598780 -0.30437555 0.12182950
v 0.28973376 -0.31942124 0.11297489
v 0.26375920 -0.40733915 0.09019371
v 0.26786704 -0.40406246 0.08885695
v 0.27853224 -0.30495510 0.11875216
v 0.28388451 -0.37278164 0.09609330
v 0.27235473 -0.30347263 0.12053023
v 0.29204884 -0.34440984 0.10496131
v 0.29225701 -0.35567701 0.10004400
v 0.28896662 -0.36842619 0.09572482
v 0.26142143 -0.40949379 0.09099966
v 0.25600936 -0.30036061 0.12344670
v 0.18272436 -0.31255650 0.12451495
v 0.19740484 -0.31424114 0.12517024
v 0.24025095 -0.30043095 0.12483846
v 0.22525017 -0.30030982 0.12517109
v 0.28929585 -0.30557925 0.11433160
v 0.29785736 -0.32839256 0.10680668
v 0.16386488 -0.31729318 0.12330424
v 0.15905147 -0.30835580 0.12239774
v 0.20633708 -0.30214942 0.12496630
v 0.29726862 -0.31618826 0.10938077
v 0.26498116 -0.41198111 0.08969963
v 0.29670666 -0.32306400 0.10860985
v 0.27478441 -0.40933993 0.08451054
v 0.25413575 -0.29495102 0.12325765
v 0.24948800 -0.29187900 0.12316500
v 0.23645167 -0.29277356 0.12414827
v 0.16251254 -0.30670402 0.12241465
v 0.19267271 -0.29989585 0.12393180
v 0.27379101 -0.29405197 0.11971345
v 0.27219137 -0.41264680 0.08626446
v 0.27825716 -0.39798249 0.08540480
v 0.30155456 -0.31797077 0.10638205
v 0.28052576 -0.39324081 0.08654193
v 0.29479189 -0.37532143 0.08777282
v 0.30294250 -0.33351269 0.10181609
v 0.25377620 -0.28728381 0.12193668
v 0.26466948 -0.29589274 0.12195419
v 0.27818756 -0.40313052 0.08353261
v 0.28609074 -0.39919936 0.07908305
v 0.29429845 -0.36386121 0.09504397
v 0.28395796 -0.29630652 0.11622626
v 0.30117122 -0.35767543 0.09300085
v 0.20408818 -0.29666751 0.12431224
v 0.30419039 -0.35226156 0.09320189
v 0.16754220 -0.30230462 0.12222363
v 0.30117953 -0.34726984 0.09824874
v 0.28915907 -0.39703720 0.07768783
v 0.26825212 -0.28852545 0.11983703
v 0.29090029 -0.29838148 0.11302807
v 0.28592822 -0.40744283 0.07628685
v 0.30207694 -0.33063845 0.10366442
v 0.28155708 -0.41143953 0.07973416
v 0.27979848 -0.29145328 0.11698281
v 0.29029143 -0.40360948 0.07317002
v 0.30670848 -0.33391232 0.09847957
v 0.14000813 -0.30584402 0.11887042
v 0.26654969 -0.41549378 0.08992248
v 0.30220414 -0.36715276 0.08655580
v 0.29698103 -0.30770997 0.11048103
v 0.29283420 -0.39256644 0.07721418
v 0.30940985 -0.32003441 0.09914437
v 0.30707946 -0.35505001 0.08904402
v 0.31004783 -0.33399364 0.09524969
v 0.30248383 -0.31123811 0.10641487
v 0.29574110 -0.40142039 0.06750717
v 0.29304781 -0.29710807 0.11176073
v 0.26151699 -0.41869550 0.09315625
v 0.29272601 -0.29206565 0.11060803
v 0.29458760 -0.39830187 0.07103582
v 0.31241722 -0.34181733 0.08944390
v 0.31193900 -0.32835400 0.09465900
v 0.31103262 -0.35413759 0.08473388
v 0.29279292 -0.40969876 0.06837086
v 0.30170787 -0.30221881 0.10624577
v 0.31086535 -0.31192904 0.09803723
v 0.30222442 -0.37823874 0.07823359
v 0.28677733 -0.41099974 0.07503998
v 0.27554062 -0.41713938 0.08503950
v 0.29228300 -0.41345888 0.06864463
v 0.30848715 -0.36732684 0.07899866
v 0.28692099 -0.41587001 0.07569900
v 0.29991841 -0.39427742 0.06690465
v 0.31533840 -0.33921287 0.08669328
v 0.31318814 -0.35432185 0.08128900
v 0.31676555 -0.31463823 0.09018286
v 0.30856739 -0.30657476 0.10048134
v 0.31620706 -0.35336808 0.07692199
v 0.31447452 -0.32326022 0.09265852
v 0.30850493 -0.29830930 0.09855086
v 0.29715333 -0.40863953 0.06182582
v 0.30960817 -0.37212573 0.07292618
v 0.29881760 -0.40424250 0.06065483
v 0.31945249 -0.33131317 0.08290805
v 0.31561174 -0.30569402 0.09047590
v 0.31278735 -0.30328345 0.09429768
v 0.30240147 -0.39287406 0.06388406
v 0.31774901 -0.32928203 0.08650096
v 0.31363128 -0.36754589 0.06933625
v 0.31761726 -0.35545756 0.07177168
v 0.30180817 -0.39793179 0.05945519
v 0.31344482 -0.37359896 0.06227284
v 0.30181700 -0.40412399 0.05355300
v 0.29791201 -0.41024151 0.05990700
v 0.31955367 -0.34583005 0.07479149
v 0.30463036 -0.39632640 0.05411636
v 0.31941399 -0.31333101 0.08449800
v 0.32135001 -0.33698699 0.07525500
v 0.32040301 -0.31819400 0.08252800
v 0.30082199 -0.40924600 0.05334750
v 0.31847301 -0.35976699 0.06393900
v 0.32138325 -0.32711099 0.07893075
v 0.31747399 -0.30573450 0.08654450
v 0.30645444 -0.39271971 0.05376366
v 0.30735400 -0.39238000 0.05095900
f 83 1 89
f 83 89 90
f 89 7 90
f 128 90 7
f 128 99 90
f 117 99 128
f 117 128 15
f 15 128 6
f 13 117 15
f 115 117 13
f 100 117 115
f 115 91 100
f 115 86 91
f 115 98 86
f 12 98 115
f 10 98 12
f 10 108 98
f 98 108 97
f 108 96 97
f 109 96 108
f 109 108 120
f 109 120 101
f 14 101 120
f 125 101 14
f 125 113 101
f 113 125 138
f 140 138 125
f 138 140 146
f 161 146 140
f 161 158 146
f 167 158 161
f 161 166 167
f 17 166 161
f 166 17 184
f 166 184 157
f 184 178 157
f 178 180 157
f 157 180 165
f 180 183 165
f 165 183 179
f 165 179 176
f 176 179 182
f 176 182 171
f 170 171 182
f 170 182 173
f 173 182 185
f 182 186 185
f 185 186 174
f 185 174 177
f 172 185 177
f 177 174 172
f 172 174 164
f 174 181 164
f 164 181 175
f 162 164 175
f 162 175 145
f 175 151 145
f 149 145 151
f 151 153 149
f 149 153 124
f 150 124 153
f 102 124 150
f 102 150 129
f 129 150 139
f 129 139 42
f 42 139 5
f 37 42 5
f 37 58 42
f 42 58 22
f 22 74 42
f 74 73 42
f 74 93 73
f 110 93 74
f 110 95 93
f 110 124 95
f 95 102 93
f 73 93 81
f 81 93 42
f 73 81 42
f 110 74 22
f 103 110 22
f 110 103 105
f 111 110 105
f 111 126 110
f 126 111 119
f 119 141 126
f 141 137 126
f 154 137 141
f 148 154 141
f 152 154 148
f 163 154 152
f 163 168 154
f 172 168 163
f 170 172 163
f 159 170 163
f 168 172 154
f 159 163 152
f 156 159 152
f 159 156 155
f 165 159 155
f 169 165 155
f 169 155 143
f 160 169 143
f 157 169 160
f 157 160 147
f 147 160 133
f 136 147 133
f 158 147 136
f 158 136 131
f 131 136 92
f 136 104 92
f 92 104 94
f 104 88 94
f 123 88 104
f 133 123 104
f 133 135 123
f 133 143 135
f 143 142 135
f 142 118 135
f 118 142 134
f 142 144 134
f 142 155 144
f 144 152 134
f 134 152 130
f 134 130 116
f 116 130 114
f 130 112 114
f 130 106 112
f 148 106 130
f 148 132 106
f 132 119 106
f 119 105 106
f 106 105 112
f 80 112 105
f 112 80 64
f 79 112 64
f 118 112 79
f 118 116 112
f 79 64 118
f 118 64 78
f 123 118 78
f 118 123 107
f 127 107 123
f 127 118 107
f 123 78 44
f 78 63 44
f 63 62 44
f 63 64 62
f 62 64 18
f 64 19 18
f 64 24 19
f 64 76 24
f 76 105 24
f 105 23 24
f 105 22 23
f 23 22 21
f 20 23 21
f 20 21 35
f 35 21 37
f 35 37 31
f 31 37 28
f 28 37 4
f 28 4 3
f 28 3 27
f 29 28 27
f 29 26 28
f 26 29 30
f 30 29 39
f 38 30 39
f 41 38 39
f 41 39 53
f 57 41 53
f 61 57 53
f 57 61 71
f 71 61 109
f 77 71 109
f 109 61 82
f 82 61 69
f 82 69 85
f 96 82 85
f 96 85 98
f 85 69 70
f 85 70 86
f 86 70 84
f 70 68 84
f 68 66 84
f 66 1 84
f 67 1 66
f 59 1 67
f 67 47 59
f 48 47 67
f 68 48 67
f 52 47 48
f 60 52 48
f 60 53 52
f 56 53 60
f 69 56 60
f 52 53 45
f 45 53 29
f 45 29 46
f 29 49 46
f 46 49 47
f 45 46 52
f 69 60 48
f 52 46 47
f 47 49 59
f 49 50 59
f 50 49 51
f 50 51 1
f 51 2 1
f 51 27 2
f 49 27 51
f 59 50 1
f 66 68 67
f 70 48 68
f 70 69 48
f 61 56 69
f 77 57 71
f 77 54 57
f 77 75 54
f 75 77 101
f 75 65 54
f 72 65 75
f 87 72 75
f 113 87 75
f 121 87 113
f 121 131 87
f 131 121 138
f 87 131 72
f 72 54 65
f 72 44 54
f 88 44 72
f 54 44 41
f 44 43 41
f 43 40 41
f 43 55 40
f 40 55 34
f 34 55 32
f 55 18 32
f 32 18 34
f 34 18 33
f 34 33 38
f 38 33 36
f 30 36 33
f 33 31 30
f 18 31 33
f 18 25 31
f 18 35 25
f 40 34 38
f 61 53 56
f 54 41 57
f 40 38 41
f 38 36 30
f 39 29 53
f 26 30 31
f 29 27 49
f 3 2 27
f 26 31 28
f 35 31 25
f 20 35 18
f 18 24 20
f 21 22 37
f 24 23 20
f 19 24 18
f 55 62 18
f 44 62 55
f 63 78 64
f 64 80 76
f 76 80 105
f 116 114 112
f 134 116 118
f 127 135 118
f 123 135 127
f 123 44 88
f 94 88 72
f 92 94 72
f 92 72 131
f 136 133 104
f 147 158 157
f 160 143 133
f 155 142 143
f 155 156 144
f 144 156 152
f 130 152 148
f 141 132 148
f 154 172 137
f 137 164 126
f 126 164 145
f 132 141 119
f 122 110 126
f 126 149 122
f 122 149 110
f 119 111 105
f 105 103 22
f 22 58 37
f 37 5 4
f 93 129 42
f 102 129 93
f 124 102 95
f 149 124 110
f 126 145 149
f 164 162 145
f 172 164 137
f 173 185 172
f 170 173 172
f 171 170 159
f 159 176 171
f 176 159 165
f 165 169 157
f 158 166 157
f 16 17 161
f 158 167 166
f 146 158 131
f 16 161 140
f 146 131 138
f 121 113 138
f 113 75 101
f 140 125 14
f 109 101 77
f 109 82 96
f 96 98 97
f 9 108 10
f 11 108 9
f 14 108 11
f 85 86 98
f 86 84 91
f 91 84 83
f 91 83 100
f 12 115 13
f 100 99 117
f 100 90 99
f 128 7 6
f 89 8 7
f 100 83 90
f 89 1 8
f 83 84 1

