v 0.159935 0.407675 -0.131534
v 0.185995 0.356381 -0.13664
v 0.183225 0.362896 -0.136625
v 0.180454 0.36941 -0.136611
v 0.188665 0.349768 -0.136723
v 0.193023 0.336115 -0.137027
v 0.190946 0.342985 -0.136861
v 0.150016 0.419358 -0.118239
v 0.145879 0.424157 -0.132757
v 0.19954 0.308038 -0.137543
v 0.198165 0.315132 -0.13745
v 0.196789 0.322225 -0.137357
v 0.194919 0.329175 -0.137143
v 0.197504 0.329492 -0.130367
v 0.199255 0.322434 -0.130539
v 0.203661 0.301121 -0.131079
v 0.202307 0.308243 -0.130895
v 0.200953 0.315365 -0.13071
v 0.20461 0.293945 -0.131352
v 0.20622 0.258039 -0.132846
v 0.150566 0.418664 -0.13235
v 0.207035 0.250802 -0.126227
v 0.207338 0.258056 -0.12565
v 0.206194 0.272406 -0.132127
v 0.206801 0.279572 -0.12461
v 0.206143 0.286727 -0.124318
v 0.205355 0.28634 -0.116941
v 0.205938 0.279063 -0.117275
v 0.206499 0.271772 -0.11762
v 0.204923 0.26355 -0.111277
v 0.204594 0.270944 -0.11069
v 0.200836 0.277419 -0.10392
v 0.19999 0.284749 -0.103589
v 0.199057 0.292025 -0.103234
v 0.197799 0.299228 -0.103022
v 0.196145 0.306332 -0.102985
v 0.196332 0.321416 -0.109016
v 0.198104 0.314367 -0.109114
v 0.198476 0.321931 -0.115958
v 0.19681 0.329003 -0.115805
v 0.194703 0.335986 -0.115699
v 0.192362 0.342925 -0.115617
v 0.193414 0.343282 -0.12272
v 0.189854 0.349835 -0.115555
v 0.190898 0.350171 -0.122667
v 0.187033 0.356612 -0.115543
v 0.184086 0.363354 -0.115573
v 0.181139 0.370097 -0.115603
v 0.174126 0.382952 -0.116056
v 0.170396 0.389251 -0.116363
v 0.166666 0.39555 -0.116671
v 0.177849 0.376649 -0.115754
v 0.171875 0.389665 -0.123481
v 0.16813 0.395953 -0.12375
v 0.16418 0.402128 -0.124041
v 0.16008 0.408179 -0.124382
v 0.155544 0.41386 -0.124822
v 0.150995 0.419529 -0.125265
v 0.146445 0.425198 -0.125709
v 0.155254 0.413171 -0.131943
v 0.163989 0.401587 -0.131304
v 0.171919 0.389274 -0.130823
v 0.179009 0.376649 -0.130041
v 0.175588 0.38298 -0.130489
v 0.182253 0.370138 -0.129786
v 0.185143 0.363529 -0.129797
v 0.187972 0.356903 -0.129842
v 0.190736 0.350223 -0.129875
v 0.193284 0.343396 -0.129981
v 0.185318 0.363707 -0.122609
v 0.182158 0.370274 -0.122703
v 0.178792 0.376759 -0.12296
v 0.175374 0.383225 -0.123227
v 0.162527 0.40152 -0.117059
v 0.158356 0.407466 -0.117452
v 0.154186 0.413412 -0.117846
v 0.189799 0.342322 -0.10886
v 0.188296 0.357006 -0.12262
v 0.197538 0.329289 -0.123075
v 0.195509 0.336289 -0.122888
v 0.199606 0.322289 -0.123222
v 0.201854 0.307811 -0.116267
v 0.203266 0.300697 -0.116492
v 0.204168 0.301013 -0.123805
v 0.202726 0.308114 -0.1236
v 0.204369 0.293515 -0.11671
v 0.192309 0.335442 -0.108871
v 0.200191 0.314875 -0.116104
v 0.194376 0.313403 -0.102982
v 0.194335 0.328424 -0.108983
v 0.19971 0.307263 -0.109276
v 0.201153 0.300105 -0.109467
v 0.204006 0.278289 -0.110259
v 0.203122 0.285578 -0.110007
v 0.202239 0.292866 -0.109755
v 0.205235 0.293879 -0.124062
v 0.207132 0.27244 -0.124881
v 0.207447 0.2653 -0.12516
v 0.206424 0.249685 -0.119341
v 0.20667 0.257071 -0.11869
v 0.206916 0.264458 -0.118039
v 0.206579 0.265241 -0.132427
v 0.201993 0.286542 -0.138018
v 0.201468 0.293733 -0.137826
v 0.205829 0.279585 -0.131875
v 0.205471 0.286766 -0.131626
v 0.201287 0.315218 -0.123395
v 0.195527 0.336482 -0.130199
v 0.200887 0.300922 -0.137624
v 0.168008 0.395469 -0.131076
f 60 57 56 1
f 56 55 61 1
f 3 66 67 2
f 67 68 5 2
f 4 65 66 3
f 68 69 7 5
f 7 69 108 6
f 108 14 13 6
f 11 18 17 10
f 17 16 109 10
f 12 15 18 11
f 13 14 15 12
f 108 80 79 14
f 79 81 15 14
f 81 107 18 15
f 17 85 84 16
f 84 96 19 16
f 19 104 109 16
f 18 107 85 17
f 96 26 106 19
f 106 103 104 19
f 102 98 23 20
f 23 100 99 22
f 98 101 100 23
f 105 25 97 24
f 97 98 102 24
f 105 106 26 25
f 26 27 28 25
f 28 29 97 25
f 96 86 27 26
f 86 95 94 27
f 94 93 28 27
f 93 31 29 28
f 31 30 101 29
f 101 98 97 29
f 93 94 33 32
f 94 95 34 33
f 95 92 35 34
f 92 91 36 35
f 91 38 89 36
f 39 40 90 37
f 38 88 39 37
f 91 82 88 38
f 81 79 40 39
f 88 107 81 39
f 79 80 41 40
f 41 87 90 40
f 80 43 42 41
f 42 77 87 41
f 43 45 44 42
f 69 68 45 43
f 80 108 69 43
f 45 78 46 44
f 68 67 78 45
f 78 70 47 46
f 70 71 48 47
f 71 72 52 48
f 73 53 50 49
f 52 72 73 49
f 53 54 51 50
f 54 55 74 51
f 62 110 54 53
f 73 64 62 53
f 110 61 55 54
f 56 75 74 55
f 57 76 75 56
f 60 21 58 57
f 58 8 76 57
f 21 9 59 58
f 64 73 72 63
f 72 71 65 63
f 71 70 66 65
f 70 78 67 66
f 85 107 88 82
f 91 92 83 82
f 83 84 85 82
f 92 95 86 83
f 86 96 84 83
