v 0.115267166667 0.40967775 -0.0823732166667
v 0.1841935 0.34993925 -0.104843975
v -0.2165415 0.29108375 -0.12365725
v 0.177998 0.328453125 -0.0909408625
v -0.214756625 0.30428725 -0.12381
v 0.17968 0.36586675 -0.1080675
v 0.1499225 0.3205625 -0.0769997625
v 0.177321875 0.3427865 -0.09444085
v 0.128793875 0.333689875 -0.0731417
v -0.214588625 0.29097775 -0.1108185
v -0.20633225 0.32619525 -0.1066997125
v -0.204178 0.34507375 -0.122902125
v -0.21283425 0.30436325 -0.11061625
v 0.165191625 0.32198225 -0.083101775
v -0.203642125 0.339938625 -0.110200375
v -0.1991335 0.3205355 -0.0949834875
v -0.198397125 0.3611955 -0.123832125
v -0.194554328125 0.3583553125 -0.1069412625
v -0.18089925 0.39448825 -0.119561375
v -0.193107109375 0.3368939375 -0.0940372859375
v -0.185879328125 0.352661234375 -0.0928269
v -0.190151 0.378349 -0.12164075
v -0.1860338125 0.374578140625 -0.10514106875
v -0.18857575 0.317254875 -0.0855865875
v 0.168908765625 0.361922296875 -0.0946327546875
v -0.176290921875 0.390055984375 -0.103188432813
v -0.170446125 0.409628 -0.11790575
v -0.16757878125 0.382348453125 -0.090153453125
v -0.177426203125 0.36783759375 -0.0915246296875
v -0.181454125 0.329831125 -0.0833275125
v -0.156752578125 0.3962131875 -0.088980990625
v -0.173950875 0.344896 -0.082442975
v -0.15967175 0.421466625 -0.1146975125
v -0.16549421875 0.404686125 -0.101654460937
v -0.1448951875 0.40926253125 -0.088014196875
v -0.165700125 0.359255875 -0.0815071125
v -0.13241784375 0.4215963125 -0.0871724046875
v -0.15616525 0.37279175 -0.080519225
v -0.118954157813 0.432665546875 -0.0865480421875
v -0.10484929375 0.44299990625 -0.0861136484375
v -0.15314225 0.421321 -0.1019577625
v -0.140979125 0.432162875 -0.0991448625
v -0.134293625 0.39804425 -0.0788709125
v -0.145608625 0.385712 -0.0797206125
v 0.104297125 0.358791375 -0.0702225875
v -0.126877625 0.44414325 -0.098542925
v 0.107382875 0.34664125 -0.069713675
v -0.1121422 0.45496175 -0.097978075
v -0.0960556 0.464217875 -0.0974079375
v -0.122097625 0.409492625 -0.078067525
v -0.1092961375 0.419955875 -0.0773555625
v -0.0816559 0.47199175 -0.099036175
v -0.0899552046875 0.45209203125 -0.0857133921875
v -0.0740384625 0.4594709375 -0.08531058125
v -0.0669515875 0.445545125 -0.0766605875
v -0.0960523 0.42991625 -0.0772081875
v -0.0820144125 0.438525625 -0.0770293
v -0.057738878125 0.46618740625 -0.0850459328125
v -0.0515383 0.452027125 -0.0765625
v -0.0605288625 0.480170625 -0.0983895125
v -0.03838195 0.458717625 -0.0779519625
v 0.12155825 0.34516475 -0.072157275
v 0.17142475 0.383477125 -0.10995475
v -0.040958225 0.47174875 -0.0853048625
v -0.046902675 0.481571125 -0.094792325
v -0.0784170875 0.479492 -0.111069025
v 0.14279075 0.332288125 -0.075945975
v -0.0653391375 0.484328375 -0.1104096625
v 0.0162112875 0.46404325 -0.07988155
v 0.161464875 0.401004875 -0.111598
v 0.160468578125 0.339432015625 -0.0836910390625
v 0.0330156625 0.467514125 -0.0834866375
v 0.0970060125 0.376595625 -0.070772725
v 0.148872125 0.418353625 -0.112387625
v 0.0163926875 0.446491125 -0.0735100375
v 0.03390755 0.4496906875 -0.076239071875
v 0.09474955 0.4654385 -0.11587475
v 0.13970103125 0.35179525 -0.077517625
v 0.0523407328125 0.45114584375 -0.079901196875
v 0.0541457625 0.467555125 -0.0887409875
v 0.0229665875 0.430288625 -0.0696075625
v 0.03578385 0.427436125 -0.0700602875
v 0.155228078125 0.356677375 -0.084559840625
v 0.1616228125 0.379180125 -0.096194640625
v 0.071868071875 0.450037578125 -0.0844967359375
v 0.0534673578125 0.432407109375 -0.0737631625
v 0.0913672484375 0.44648775 -0.0896587140625
v 0.115671875 0.36552675 -0.0731247
v -0.0568931625 0.426364125 -0.06991595
v 0.0703973984375 0.432880171875 -0.0770982140625
v 0.110077354688 0.439799421875 -0.0949347890625
v 0.0734497 0.466944375 -0.0967354625
v 0.0425842375 0.412119 -0.0681001875
v 0.13416134375 0.368378421875 -0.078547240625
v -0.0678304 0.418831125 -0.069604875
v -0.049633525 0.415431375 -0.067502475
v 0.0707588125 0.41065075 -0.0716957625
v 0.105255173438 0.42714490625 -0.08541443125
v 0.056549575 0.411479 -0.0697495875
v -0.0603424125 0.407937375 -0.0672389
v 0.088075209375 0.4310573125 -0.081059171875
v 0.087479140625 0.413067953125 -0.075554146875
v 0.121546984375 0.418593265625 -0.088620503125
v 0.149008671875 0.373572265625 -0.0857982921875
v 0.141714171875 0.389401734375 -0.0869463546875
v 0.082457025 0.376478625 -0.06808265
v 0.102346021875 0.411798890625 -0.07894004375
v 0.1116324875 0.377347875 -0.0738940125
v 0.097777775 0.4589475 -0.104628125
v 0.0764374 0.393217375 -0.0696652125
v 0.133088875 0.43458675 -0.111543875
v 0.12766034375 0.4275759375 -0.098117696875
v 0.1145681375 0.44908725 -0.107849
v 0.080604075 0.472116875 -0.111129175
v 0.0918665125 0.394746 -0.072624534375
v 0.13255471875 0.404568234375 -0.08807883125
v 0.1281210625 0.38369609375 -0.0796802640625
v 0.12141678125 0.39768840625 -0.0809531296875
v 0.107106353125 0.39585528125 -0.0762042890625
v 0.141800265625 0.41208575 -0.098447378125
v 0.152898140625 0.395782109375 -0.0975424390625
v -0.2133885 0.297668 -0.108548
v -0.2135005 0.306541 -0.117209
v -0.215972 0.297688 -0.125903
v -0.21586 0.288815 -0.117242
v -0.1962085 0.3287581875 -0.09453194375
v -0.1979523125 0.3395839375 -0.1006968875
v -0.205351 0.3332375 -0.108251
v -0.2038 0.3226615 -0.10149985
v -0.198287375 0.3499931875 -0.10766796875
v -0.1968434375 0.3599904375 -0.115202
v -0.2019805 0.352118 -0.124592
v -0.2039915 0.342449 -0.1165945
v -0.1896529375 0.3448558125 -0.0934564
v -0.190794375 0.3558600625 -0.0994193
v -0.184765 0.322201 -0.08388425
v -0.187476875 0.3335308125 -0.08842145625
v -0.193712 0.3177165 -0.0894827
v -0.1904606875 0.3665540625 -0.10608605625
v -0.18843275 0.3766918125 -0.1131951875
v -0.194426 0.36992 -0.1227905
v -0.181819625 0.360327625 -0.0921864
v -0.1822735 0.3715515 -0.0978698375
v -0.1813010625 0.38241625 -0.10414501875
v -0.17890825 0.3925264375 -0.111137375
v -0.185656 0.38654 -0.1205565
v -0.171031875 0.3974849375 -0.1023618375
v -0.1682606875 0.40743075 -0.10952219375
v -0.175839 0.402189 -0.118679
v -0.1778175 0.3374215 -0.0828682
v -0.1801249375 0.348915375 -0.08735485
v -0.16995 0.3521785 -0.0819885
v -0.1717663125 0.363662125 -0.08624858125
v -0.1726514375 0.37517375 -0.09083131875
v -0.1724209375 0.38656825 -0.09618960625
v -0.1622916875 0.3893740625 -0.08953801875
v -0.1615656875 0.40084675 -0.094818375
v -0.15964825 0.4116425625 -0.10105553125
v -0.1564835 0.4214435 -0.10830605
v -0.1646915 0.416791 -0.117238
v -0.1610865 0.366115 -0.08100115
v -0.1620449375 0.3776818125 -0.08509253125
v -0.1509925 0.379322 -0.08010995
v -0.151332375 0.391086 -0.0841093625
v -0.1496039375 0.4142601875 -0.093776425
v -0.150923875 0.4028284375 -0.08847834375
v -0.140054 0.391968 -0.0792985
v -0.1397128125 0.4037756875 -0.0832044375
v -0.1368450625 0.4270076875 -0.09291966875
v -0.1476635 0.4256985 -0.0995468
v -0.138756125 0.4155581875 -0.08757266875
v -0.1282925 0.403895 -0.07846515
v -0.1274043125 0.4156725625 -0.082381
v -0.1230604375 0.4385070625 -0.09231195
v -0.134021 0.438301 -0.09882365
v -0.1257915 0.4272578125 -0.08683205
v -0.115756 0.4148095 -0.07766435
v -0.11426969375 0.426413375 -0.08171826875
v -0.1086210875 0.4490743125 -0.09179928125
v -0.1196375 0.44972 -0.09826245
v -0.11198288125 0.437942375 -0.08631681875
v -0.10274655 0.425042 -0.0772411
v -0.1005761375 0.4365515625 -0.0814143375
v -0.09315876875 0.458275 -0.09130979375
v -0.1042333 0.459799 -0.09768565
v -0.09752501875 0.44774975 -0.0859138
v -0.08915845 0.434427 -0.07714405
v -0.086138175 0.445428875 -0.081120475
v -0.082085 0.455926875 -0.08550854375
v -0.07685711875 0.4657943125 -0.090876625
v -0.0877539 0.4682045 -0.0971677
v -0.0629221 0.482336 -0.10435715
v -0.07200225 0.4828555 -0.1127455
v -0.0800893 0.4758125 -0.1050846
v -0.0705325625 0.47473 -0.0971945875
v -0.06593965 0.462940875 -0.08513083125
v -0.0602604875 0.472460125 -0.0905147
v -0.0745696 0.4421635 -0.07684455
v -0.07063998125 0.4526359375 -0.080737375
v -0.05928795 0.448875 -0.0765482
v -0.054754325 0.45926875 -0.08055880625
v -0.04318115 0.477884 -0.0905204
v -0.05393715 0.4811245 -0.0963083
v -0.0493864625 0.46906125 -0.085132525
v -0.04366225 0.4548755 -0.0767586
v -0.03841955 0.464851 -0.08095805
v 0.02508721875 0.448208 -0.0748069875
v 0.03325486875 0.458723875 -0.079711175
v 0.02312385 0.4670185 -0.08180465
v 0.0147373 0.4563605 -0.07679635
v 0.04297948125 0.450705 -0.077941425
v 0.0530199 0.459518875 -0.0841198625
v 0.0434274 0.467758 -0.0858485
v 0.0294903 0.4290225 -0.06977245
v 0.03538718125 0.440171625 -0.0733736875
v 0.01886825 0.436956 -0.0709836
v 0.04530438125 0.431449 -0.0723133125
v 0.05255495625 0.44209925 -0.07648745
v 0.0735444125 0.4577029375 -0.0896810125
v 0.06495745 0.4667105 -0.09201485
v 0.062029025 0.450908125 -0.0821055375
v 0.0618214 0.4329129375 -0.0753547625
v 0.070754975 0.441792875 -0.08035580625
v 0.04883185 0.41035 -0.06855085
v 0.054882725 0.4220974375 -0.071612875
v 0.0391917 0.419808 -0.0690531
v 0.09321513125 0.45296725 -0.0954283875
v 0.085257525 0.461709875 -0.09919608125
v 0.0816815875 0.4485799375 -0.08701708125
v 0.07922624375 0.4322225 -0.07900361875
v 0.0895541875 0.439162 -0.08491601875
v 0.06435245 0.412484 -0.0710409
v 0.07098761875 0.4232108125 -0.07456395
v 0.11236040625 0.444694 -0.1011366375
v 0.10485105 0.4546145 -0.104934
v 0.10082273125 0.4437135625 -0.092413775
v 0.09671156875 0.429502 -0.08325306875
v 0.1076436625 0.4339021875 -0.08975396875
v -0.06589025 0.412132 -0.068374
v -0.053759 0.4098655 -0.0669724
v -0.0514595 0.42215 -0.0687571
v -0.06359075 0.4244165 -0.0701587
v 0.079961125 0.413303125 -0.07402944375
v 0.087229575 0.422241 -0.07794704375
v 0.13041875 0.4312360625 -0.104525225
v 0.1240675 0.4422425 -0.110064
v 0.1191604375 0.434287375 -0.09687428125
v 0.113825875 0.423574375 -0.08737238125
v 0.124725375 0.4232969375 -0.0929324125
v 0.09620985 0.4622095 -0.1102405
v 0.08799915 0.4696725 -0.1156345
v 0.07720975 0.469977 -0.1039682
v 0.0841618625 0.3940159375 -0.071104
v 0.0892857625 0.4038930625 -0.07385499375
v 0.074287 0.403265 -0.07098515
v 0.0949345875 0.4125694375 -0.07719634375
v 0.10310773125 0.4196701875 -0.08173643125
v 0.109732 0.410747625 -0.08076925625
v 0.1180583125 0.413659125 -0.0848331
v 0.0995315375 0.3953390625 -0.0743085625
v 0.10411473125 0.403851875 -0.07724534375
v 0.137433125 0.408430875 -0.092798325
v 0.1351654375 0.420063625 -0.09855048125
v 0.1275418125 0.4120044375 -0.08865238125
v 0.1179691875 0.404568125 -0.08164416875
v 0.12731875 0.4007068125 -0.0841616
v 0.114540375 0.3963548125 -0.07835991875
v 0.0890283 0.375128 -0.0690537
v 0.0944384625 0.3856564375 -0.07163771875
v 0.0787104 0.3833985 -0.0684921
v 0.1455024375 0.415323875 -0.1051532875
v 0.141372 0.4266265 -0.1122535
v 0.10497195 0.3781305 -0.0726072
v 0.11001338125 0.38783525 -0.0753688375
v 0.1476495 0.3926463125 -0.09177981875
v 0.147689375 0.403977625 -0.09808313125
v 0.1373300625 0.397045 -0.08751066875
v 0.1248281875 0.3907915 -0.080297925
v 0.1351776875 0.386359125 -0.082959075
v 0.1206253125 0.38159025 -0.07697220625
v 0.115694 0.371863 -0.07397005
v 0.1263201875 0.3661038125 -0.0758572
v 0.1312130625 0.376220875 -0.07910185625
v 0.1417819375 0.370875125 -0.0818287125
v 0.145553375 0.3816054375 -0.08638435
v 0.1573745625 0.398498375 -0.1043171875
v 0.1555445 0.40976 -0.112141
v 0.1667345 0.3814453125 -0.10282708125
v 0.166709 0.3922475 -0.110843
v 0.1574919375 0.3875420625 -0.09691
v 0.15566825 0.3764481875 -0.09055265625
v 0.1623985 0.3593745625 -0.08916158125
v 0.1654428125 0.3706189375 -0.0954051875
v 0.1522410625 0.365218375 -0.08516181875
v 0.1370230625 0.3601813125 -0.07800095625
v 0.1476370625 0.3541416875 -0.08070000625
v 0.1207556875 0.3559265 -0.07315498125
v 0.1314955625 0.3496658125 -0.07494824375
v 0.103693 0.3522695 -0.069535
v 0.1144805 0.3459235 -0.0708877
v 0.1100815 0.36219 -0.07164735
v 0.1745193125 0.364009625 -0.1011008875
v 0.17576 0.374683 -0.109012
v 0.1679531875 0.3419409375 -0.0881319625
v 0.1719775 0.353154 -0.09396845625
v 0.15794725 0.348082875 -0.08407726875
v 0.1420980625 0.3433859375 -0.07715186875
v 0.152544875 0.337099125 -0.07992874375
v 0.1251885 0.3394135 -0.0726226
v 0.135797 0.333014 -0.0745726
v 0.1730005 0.3243555 -0.08738155
v 0.1779075 0.335707 -0.0924259
v 0.1628620625 0.3307219375 -0.0833780875
v 0.146368 0.3264145 -0.0762925
v 0.156848 0.3199015 -0.07945535
v 0.180834 0.346361 -0.0995899
v 0.18315 0.35703 -0.107174
v -0.21468025 0.297678 -0.1172255
v -0.2009715 0.331171 -0.101135525
v -0.20051175 0.351281 -0.11594925
v -0.19455175 0.34780375 -0.100109625
v -0.1906785 0.32565275 -0.08895215
v -0.192798 0.36845475 -0.11425075
v -0.18670475 0.3637825 -0.098671475
v -0.183805 0.3847195 -0.112135
v -0.173736 0.40010125 -0.1102695
v -0.183939 0.3412925 -0.087890475
v -0.17609475 0.356377 -0.086810225
v -0.17749125 0.3791475 -0.097018075
v -0.1671255 0.3938115 -0.09545785
v -0.16245475 0.41450175 -0.108886275
v -0.1670575 0.3707555 -0.0856619
v -0.15680525 0.38446575 -0.084582825
v -0.15570225 0.4076435 -0.09426675
v -0.14562025 0.39752125 -0.083648725
v -0.1433395 0.42075525 -0.09332085
v -0.133654 0.4098535 -0.082780025
v -0.13005675 0.4328965 -0.092592525
v -0.12092425 0.42115075 -0.082012875
v -0.115942 0.44392475 -0.092050475
v -0.107496525 0.43158575 -0.0815398
v -0.10101735 0.4538805 -0.09154955
v -0.093479925 0.4411945 -0.08127875
v -0.085073325 0.4621895 -0.091088525
v -0.0715057 0.47907425 -0.104720875
v -0.06860625 0.46925975 -0.090664975
v -0.078481175 0.449169 -0.08092695
v -0.06274565 0.45605075 -0.08059095
v -0.0517596 0.47526975 -0.090486925
v -0.04662215 0.46214525 -0.080712075
v 0.023902225 0.4576445 -0.078142225
v 0.04298295 0.459394 -0.081726275
v 0.02708545 0.4386465 -0.072126125
v 0.043857975 0.441366 -0.074831325
v 0.06329915 0.4589625 -0.086824275
v 0.06153525 0.442241 -0.078330475
v 0.04700465 0.421026 -0.070304725
v 0.0834794 0.45571825 -0.092531575
v 0.08017025 0.4407565 -0.08255885
v 0.06289105 0.42287575 -0.073034075
v 0.102862625 0.44940875 -0.098423875
v 0.0986799 0.4370395 -0.087403725
v -0.058674875 0.417141 -0.06856555
v 0.079130425 0.4229525 -0.076198125
v 0.121647 0.43847425 -0.103185275
v 0.11654175 0.42926325 -0.09169875
v 0.0867098 0.46609325 -0.10710435
v 0.081796675 0.403631 -0.07238465
v 0.095195175 0.4212165 -0.07982115
v 0.11104775 0.41739325 -0.083608875
v 0.096733675 0.40394725 -0.075467025
v 0.13154575 0.4161775 -0.0931493
v 0.1231825 0.40774125 -0.084803725
v 0.11140325 0.40366525 -0.07921455
v 0.086581475 0.38453775 -0.07002775
v 0.138372 0.423466 -0.105111925
v 0.102267275 0.386734 -0.073396325
v 0.14281775 0.400583 -0.0923284
v 0.1313655 0.393623 -0.083547575
v 0.11762225 0.389025 -0.077620525
v 0.123526 0.373965 -0.0763908
v 0.13861025 0.3787845 -0.082393525
v 0.15180575 0.4069695 -0.104857225
v 0.1623015 0.390006 -0.103626625
v 0.15187825 0.38463325 -0.091192875
v 0.15918375 0.3679955 -0.08984425
v 0.1448115 0.362607 -0.081242425
v 0.12900375 0.35796125 -0.0753523
v 0.112281 0.35405675 -0.071267525
v 0.1708215 0.37276925 -0.1019601
v 0.16528625 0.35068475 -0.088598575
v 0.15019675 0.34564075 -0.0802668
v 0.1337145 0.341346 -0.074717175
v 0.1705055 0.333158 -0.087738475
v 0.15473575 0.32851175 -0.079671775
v 0.17778475 0.35519825 -0.10032465
f 10 122 318 125
f 13 123 318 122
f 5 124 318 123
f 3 125 318 124
f 16 126 319 129
f 20 127 319 126
f 15 128 319 127
f 11 129 319 128
f 15 130 320 133
f 18 131 320 130
f 17 132 320 131
f 12 133 320 132
f 20 134 321 127
f 21 135 321 134
f 18 130 321 135
f 15 127 321 130
f 24 136 322 138
f 30 137 322 136
f 20 126 322 137
f 16 138 322 126
f 18 139 323 131
f 23 140 323 139
f 22 141 323 140
f 17 131 323 141
f 21 142 324 135
f 29 143 324 142
f 23 139 324 143
f 18 135 324 139
f 22 140 325 146
f 23 144 325 140
f 26 145 325 144
f 19 146 325 145
f 26 147 326 145
f 34 148 326 147
f 27 149 326 148
f 19 145 326 149
f 30 150 327 137
f 32 151 327 150
f 21 134 327 151
f 20 137 327 134
f 32 152 328 151
f 36 153 328 152
f 29 142 328 153
f 21 151 328 142
f 29 154 329 143
f 28 155 329 154
f 26 144 329 155
f 23 143 329 144
f 28 156 330 155
f 31 157 330 156
f 34 147 330 157
f 26 155 330 147
f 34 158 331 148
f 41 159 331 158
f 33 160 331 159
f 27 148 331 160
f 29 153 332 154
f 36 161 332 153
f 38 162 332 161
f 28 154 332 162
f 38 163 333 162
f 44 164 333 163
f 31 156 333 164
f 28 162 333 156
f 35 165 334 166
f 41 158 334 165
f 34 157 334 158
f 31 166 334 157
f 44 167 335 164
f 43 168 335 167
f 35 166 335 168
f 31 164 335 166
f 37 169 336 171
f 42 170 336 169
f 41 165 336 170
f 35 171 336 165
f 43 172 337 168
f 50 173 337 172
f 37 171 337 173
f 35 168 337 171
f 39 174 338 176
f 46 175 338 174
f 42 169 338 175
f 37 176 338 169
f 50 177 339 173
f 51 178 339 177
f 39 176 339 178
f 37 173 339 176
f 40 179 340 181
f 48 180 340 179
f 46 174 340 180
f 39 181 340 174
f 51 182 341 178
f 56 183 341 182
f 40 181 341 183
f 39 178 341 181
f 53 184 342 186
f 49 185 342 184
f 48 179 342 185
f 40 186 342 179
f 56 187 343 183
f 57 188 343 187
f 53 186 343 188
f 40 183 343 186
f 53 189 344 184
f 54 190 344 189
f 52 191 344 190
f 49 184 344 191
f 60 192 345 195
f 68 193 345 192
f 66 194 345 193
f 52 195 345 194
f 54 196 346 190
f 58 197 346 196
f 60 195 346 197
f 52 190 346 195
f 57 198 347 188
f 55 199 347 198
f 54 189 347 199
f 53 188 347 189
f 55 200 348 199
f 59 201 348 200
f 58 196 348 201
f 54 199 348 196
f 64 202 349 204
f 65 203 349 202
f 60 197 349 203
f 58 204 349 197
f 59 205 350 201
f 61 206 350 205
f 64 204 350 206
f 58 201 350 204
f 75 207 351 210
f 76 208 351 207
f 72 209 351 208
f 69 210 351 209
f 76 211 352 208
f 79 212 352 211
f 80 213 352 212
f 72 208 352 213
f 81 214 353 216
f 82 215 353 214
f 76 207 353 215
f 75 216 353 207
f 82 217 354 215
f 86 218 354 217
f 79 211 354 218
f 76 215 354 211
f 85 219 355 221
f 92 220 355 219
f 80 212 355 220
f 79 221 355 212
f 86 222 356 218
f 90 223 356 222
f 85 221 356 223
f 79 218 356 221
f 93 224 357 226
f 99 225 357 224
f 86 217 357 225
f 82 226 357 217
f 87 227 358 229
f 109 228 358 227
f 92 219 358 228
f 85 229 358 219
f 90 230 359 223
f 101 231 359 230
f 87 229 359 231
f 85 223 359 229
f 99 232 360 225
f 97 233 360 232
f 90 222 360 233
f 86 225 360 222
f 91 234 361 236
f 113 235 361 234
f 109 227 361 235
f 87 236 361 227
f 101 237 362 231
f 98 238 362 237
f 91 236 362 238
f 87 231 362 236
f 95 239 363 242
f 100 240 363 239
f 96 241 363 240
f 89 242 363 241
f 97 243 364 233
f 102 244 364 243
f 101 230 364 244
f 90 233 364 230
f 112 245 365 247
f 111 246 365 245
f 113 234 365 246
f 91 247 365 234
f 98 248 366 238
f 103 249 366 248
f 112 247 366 249
f 91 238 366 247
f 109 250 367 228
f 77 251 367 250
f 114 252 367 251
f 92 228 367 252
f 110 253 368 255
f 115 254 368 253
f 102 243 368 254
f 97 255 368 243
f 101 244 369 237
f 102 256 369 244
f 107 257 369 256
f 98 237 369 257
f 107 258 370 257
f 1 259 370 258
f 103 248 370 259
f 98 257 370 248
f 115 260 371 254
f 119 261 371 260
f 107 256 371 261
f 102 254 371 256
f 116 262 372 264
f 120 263 372 262
f 112 249 372 263
f 103 264 372 249
f 1 265 373 259
f 118 266 373 265
f 116 264 373 266
f 103 259 373 264
f 119 267 374 261
f 118 265 374 267
f 1 258 374 265
f 107 261 374 258
f 106 268 375 270
f 73 269 375 268
f 115 253 375 269
f 110 270 375 253
f 120 271 376 263
f 74 272 376 271
f 111 245 376 272
f 112 263 376 245
f 73 273 377 269
f 108 274 377 273
f 119 260 377 274
f 115 269 377 260
f 105 275 378 277
f 121 276 378 275
f 120 262 378 276
f 116 277 378 262
f 118 278 379 266
f 117 279 379 278
f 105 277 379 279
f 116 266 379 277
f 118 267 380 278
f 119 274 380 267
f 108 280 380 274
f 117 278 380 280
f 108 281 381 280
f 88 282 381 281
f 94 283 381 282
f 117 280 381 283
f 94 284 382 283
f 104 285 382 284
f 105 279 382 285
f 117 283 382 279
f 121 286 383 276
f 70 287 383 286
f 74 271 383 287
f 120 276 383 271
f 84 288 384 290
f 63 289 384 288
f 70 286 384 289
f 121 290 384 286
f 105 285 385 275
f 104 291 385 285
f 84 290 385 291
f 121 275 385 290
f 83 292 386 294
f 25 293 386 292
f 84 291 386 293
f 104 294 386 291
f 94 295 387 284
f 78 296 387 295
f 83 294 387 296
f 104 284 387 294
f 88 297 388 282
f 62 298 388 297
f 78 295 388 298
f 94 282 388 295
f 45 299 389 301
f 47 300 389 299
f 62 297 389 300
f 88 301 389 297
f 25 302 390 293
f 6 303 390 302
f 63 288 390 303
f 84 293 390 288
f 71 304 391 306
f 8 305 391 304
f 25 292 391 305
f 83 306 391 292
f 78 307 392 296
f 67 308 392 307
f 71 306 392 308
f 83 296 392 306
f 62 309 393 298
f 9 310 393 309
f 67 307 393 310
f 78 298 393 307
f 14 311 394 313
f 4 312 394 311
f 8 304 394 312
f 71 313 394 304
f 67 314 395 308
f 7 315 395 314
f 14 313 395 315
f 71 308 395 313
f 8 316 396 305
f 2 317 396 316
f 6 302 396 317
f 25 305 396 302
