v 0.037378815625 -0.241916171875 -0.1478835625
v 0.036859171875 -0.217986640625 -0.140816234375
v 0.012883915625 -0.26633359375 -0.1545495
v 0.0622832765625 -0.241744421875 -0.146356671875
v 0.0363815453125 -0.19403103125 -0.13401896875
v 0.0379268671875 -0.26614065625 -0.153994484375
v 0.061632046875 -0.2177805 -0.13930946875
v 0.0119719390625 -0.21822778125 -0.141233421875
v 0.0123988078125 -0.242153125 -0.14826396875
v 0.0862718765625 -0.217657609375 -0.136729015625
v 0.0610729625 -0.193804 -0.132539796875
v 0.0115855015625 -0.194273703125 -0.134484046875
v 0.013437584375 -0.290841046875 -0.159593140625
v 0.0870388140625 -0.24165140625 -0.143679578125
v 0.03851883125 -0.290687453125 -0.15874334375
v 0.06292848125 -0.266000234375 -0.15240084375
v -0.0121633875 -0.266583421875 -0.154216953125
v -0.0126075265625 -0.242416265625 -0.147782375
v -0.011642834375 -0.291065 -0.159444265625
v 0.0856318609375 -0.193643859375 -0.1300664375
v -0.012976515625 -0.218463265625 -0.140719453125
v 0.036111940625 -0.169752546875 -0.1290380625
v 0.0607627453125 -0.169503109375 -0.12762240625
v -0.0366843125 -0.29129425 -0.15864
v 0.087788446875 -0.265929875 -0.1496998125
v 0.06356108125 -0.290595109375 -0.15697346875
v -0.0371780875 -0.26687625 -0.15306275
v 0.1099958625 -0.19352784375 -0.126523484375
v 0.110717103125 -0.217620734375 -0.133022921875
v -0.0376041 -0.242648875 -0.14666
v -0.0410157625 -0.221638875 -0.140067
v 0.060628728125 -0.144900203125 -0.1244983125
v 0.0113616640625 -0.170051578125 -0.129450734375
v 0.0139993296875 -0.315633171875 -0.162943828125
v 0.1124741125 -0.265945046875 -0.14573021875
v 0.111599690625 -0.24165165625 -0.139867375
v -0.013286496875 -0.194483453125 -0.13397321875
v -0.03823986875 -0.1945749375 -0.132546609375
v 0.085295975 -0.169289734375 -0.12523078125
v 0.0359880921875 -0.145160296875 -0.12586684375
v 0.060522215625 -0.1201602 -0.1222148125
v 0.01125490625 -0.1455500625 -0.126225359375
v 0.0885094046875 -0.290533015625 -0.1541994375
v -0.03613575 -0.3160215 -0.16274175
v -0.0110777765625 -0.315816296875 -0.16313496875
v 0.109655595312 -0.16907834375 -0.121853828125
v 0.0358982046875 -0.120469223437 -0.12344284375
v -0.01351625625 -0.1703024375 -0.128916578125
v 0.0390908078125 -0.315505328125 -0.1618581875
v 0.0603919578125 -0.0954010296875 -0.120037140625
v 0.0357819234375 -0.0957488125 -0.12124365625
v -0.0136401171875 -0.1460328125 -0.125709984375
v -0.0385417890625 -0.17032534375 -0.127479953125
v 0.0641599984375 -0.315427125 -0.1599439375
v 0.113346117187 -0.29049234375 -0.150192046875
v -0.0355572625 -0.34094725 -0.165038625
v 0.136992921875 -0.265885 -0.140553546875
v 0.134807359375 -0.217568953125 -0.127986390625
v 0.134026125 -0.19336096875 -0.121760484375
v -0.0598208625 -0.21572 -0.136525
v 0.0112420703125 -0.12094773125 -0.123818046875
v 0.035618178125 -0.0710417421875 -0.119010625
v 0.0849467421875 -0.095086165625 -0.11798084375
v 0.0850756890625 -0.1198658375 -0.12007271875
v -0.0135110421875 -0.121531790625 -0.12334615625
v 0.08917918125 -0.31533928125 -0.157039390625
v 0.01453702125 -0.340572828125 -0.16464290625
v 0.135879953125 -0.241638359375 -0.13468109375
v 0.15753709375 -0.193130015625 -0.1152208125
v -0.0632487875 -0.19463875 -0.13031175
v 0.133764109375 -0.168804046875 -0.1174228125
v 0.085177234375 -0.144636828125 -0.122230203125
v 0.109566865625 -0.144343453125 -0.11902625
v 0.06017345 -0.0706284609375 -0.117861015625
v -0.013418903125 -0.0969024484375 -0.12124428125
v -0.0379774 -0.097572475 -0.12018075
v -0.063686 -0.170029375 -0.125159875
v 0.0646920796875 -0.34034425 -0.161352125
v 0.0396168046875 -0.34044484375 -0.163413296875
v 0.0150401498437 -0.365539 -0.16493421875
v -0.0105160490625 -0.340742265625 -0.1651441875
v 0.158315390625 -0.21739340625 -0.12112165625
v 0.0597184265625 -0.04581735625 -0.115645515625
v 0.0111793 -0.096268809375 -0.121650109375
v 0.035248209375 -0.0462906 -0.1167464375
v 0.08470211875 -0.070292475 -0.115876921875
v -0.0384263125 -0.122041375 -0.122177625
v -0.0377131375 -0.0728738625 -0.118125625
v -0.0418595125 -0.143167 -0.12370675
v 0.0896832953125 -0.340247609375 -0.158341828125
v 0.0154297401562 -0.390466828125 -0.164374046875
v -0.01303410125 -0.36886825 -0.165826125
v 0.137985484375 -0.290411453125 -0.144973828125
v 0.1094377875 -0.094768171875 -0.1150255
v 0.10953455 -0.119549184375 -0.116992265625
v 0.08364645 -0.020591043125 -0.11164825
v -0.0133778421875 -0.0722022015625 -0.119083828125
v 0.0347616332812 -0.0215218945313 -0.114551890625
v 0.0108359328125 -0.0468847 -0.11719284375
v 0.011069928125 -0.0715755859375 -0.119448546875
v 0.10878701875 -0.045150140625 -0.110976734375
v 0.0842120859375 -0.0454489625 -0.11378425
v -0.037727575 -0.04809535 -0.116109375
v -0.00952690375 -0.390678375 -0.165361
v 0.0400712265625 -0.36540065625 -0.163540625
v 0.161000609375 -0.265787828125 -0.133589984375
v 0.18034425 -0.193044640625 -0.106561076562
v 0.13380090625 -0.144074234375 -0.114713046875
v 0.109208617187 -0.0699750046875 -0.113013203125
v 0.082969909375 0.004296881875 -0.1094603125
v 0.0585065125 0.00383486875 -0.111146359375
v 0.0591753375 -0.020991409375 -0.113438453125
v -0.0134737140625 -0.0475067609375 -0.116880125
v -0.0606511125 -0.148249625 -0.122398125
v 0.1140592875 -0.315265171875 -0.152976015625
v 0.0650544921875 -0.36529446875 -0.161309046875
v 0.162160921875 -0.29035140625 -0.138095
v 0.180941375 -0.2173155 -0.111964878125
v 0.159600484375 -0.24152746875 -0.127640375
v 0.157519390625 -0.168582984375 -0.11131403125
v 0.13386275 -0.0945727140625 -0.11078771875
v 0.133868453125 -0.11932104375 -0.11272778125
v 0.13367721875 -0.0698058421875 -0.108791421875
v 0.03406605625 0.0031754015625 -0.11220978125
v 0.010411554375 -0.0222255604687 -0.114949109375
v 0.10743283125 0.004573034375 -0.106728984375
v 0.114530201562 -0.34016759375 -0.15427878125
v 0.0899502109375 -0.365194078125 -0.158178671875
v 0.01273362875 -0.418518875 -0.164152
v 0.138725953125 -0.315195703125 -0.147810515625
v 0.15777715625 -0.1439139375 -0.108783245312
v 0.1581005 -0.0945102609375 -0.104940723437
v 0.1580304375 -0.119216535937 -0.10688469375
v 0.0819689421875 0.0292424178125 -0.1069499375
v 0.03300380375 0.0278725414062 -0.109625109375
v -0.0139369979687 -0.0229305398281 -0.114763734375
v 0.1332654375 -0.044994403125 -0.106842292188
v 0.108170107813 -0.0203007234375 -0.108880453125
v 0.1065445625 0.02944813125 -0.104376248437
v -0.03602485 -0.00227629925 -0.112431125
v -0.038163925 -0.023447326125 -0.114112
v 0.114710892187 -0.365109375 -0.154053140625
v 0.040394540625 -0.390329359375 -0.162852859375
v -0.00602583625 -0.41248075 -0.164890625
v 0.201951984375 -0.217541015625 -0.0998007859375
v 0.18246946875 -0.241483390625 -0.1183916875
v 0.1807140625 -0.168532828125 -0.10311419375
v 0.05746528125 0.0287155109375 -0.108548015625
v 0.009641146875 0.002287441875 -0.112715484375
v 0.0085414490625 0.0266922114062 -0.11021671875
v -0.018055425 0.004192256375 -0.112418375
v 0.13265059375 -0.0201751310937 -0.104808564063
v 0.139141234375 -0.340112171875 -0.149013828125
v 0.0900902 -0.39011246875 -0.15728378125
v 0.0652865625 -0.390221375 -0.160501421875
v 0.162911828125 -0.3151815625 -0.1408819375
v 0.201708484375 -0.1933263125 -0.0947676953125
v 0.184127421875 -0.265781453125 -0.12442846875
v 0.181815640625 -0.11931034375 -0.0989380328125
v 0.157398453125 -0.0450154625 -0.1007233125
v 0.15790025 -0.0697868015625 -0.102840782813
v 0.0315881651563 0.0526445390625 -0.10628096875
v 0.00389624375 0.053783475 -0.106748
v -0.0159695125 0.0254156825 -0.110473375
v 0.13195490625 0.0046342134375 -0.102661203125
v 0.105094417188 0.0542343625 -0.101016771875
v 0.139239 -0.365048109375 -0.14876690625
v 0.040694303125 -0.415236015625 -0.16245628125
v 0.04109725 -0.440111375 -0.1631135
v 0.0192785 -0.437137125 -0.164509625
v 0.18549678125 -0.290382171875 -0.129167875
v 0.203765546875 -0.14439059375 -0.0897057
v 0.20263375 -0.16888959375 -0.0918192203125
v 0.181370984375 -0.14393978125 -0.100899148438
v 0.181796484375 -0.09465410625 -0.096781221875
v 0.129606328125 0.05397039375 -0.0967224453125
v -0.01415633875 0.046364825 -0.107777875
v 0.139165125 -0.3899490625 -0.147785265625
v 0.11475204375 -0.390017109375 -0.153151609375
v 0.090300246875 -0.41500503125 -0.156851296875
v 0.203781515625 -0.241680109375 -0.106368704688
v 0.205850859375 -0.265957484375 -0.112821595312
v 0.156026515625 0.0045119415625 -0.0962018109375
v 0.156764875 -0.0202436584375 -0.09852755
v 0.080517925 0.0541644546875 -0.10360884375
v 0.0560210078125 0.05361859375 -0.105195859375
v 0.02636675125 0.0802277 -0.1012512875
v 0.131029078125 0.0293996595313 -0.100143401563
v 0.114911629688 -0.414896515625 -0.152649671875
v 0.0655322328125 -0.41512446875 -0.1600429375
v 0.1632840625 -0.340122734375 -0.142066078125
v 0.186418078125 -0.315240171875 -0.13219378125
v 0.16314896875 -0.389936796875 -0.140907453125
v 0.0659498625 -0.439972375 -0.160779375
v 0.2224205625 -0.242321140625 -0.0910556625
v 0.220182375 -0.218427890625 -0.08375984375
v 0.18141509375 -0.06996176875 -0.094432184375
v 0.154978546875 0.0291679134375 -0.09325670625
v 0.0540906671875 0.0785072625 -0.100212715625
v 0.00830246875 0.072072425 -0.103292875
v 0.16329628125 -0.36505390625 -0.141798796875
v 0.139265890625 -0.414824 -0.147279859375
v 0.20762215625 -0.290567109375 -0.11804899375
v 0.220274984375 -0.1944229375 -0.0787707125
v 0.2240178125 -0.12110005 -0.071628425
v 0.20438340625 -0.119841021875 -0.087605890625
v 0.180799765625 -0.045240446875 -0.0919827875
v 0.102974665625 0.07869846875 -0.0957298859375
v 0.078516909375 0.0789641234375 -0.0984075328125
v 0.16320828125 -0.4147855 -0.14046596875
v 0.186775796875 -0.340196203125 -0.133354609375
v 0.208886 -0.3154409375 -0.121448328125
v 0.225367390625 -0.266551953125 -0.0984209671875
v 0.221903875 -0.170107765625 -0.0761256484375
v 0.223507984375 -0.14569696875 -0.0739349640625
v 0.20412015625 -0.09522093125 -0.0851710765625
v 0.1799769375 -0.020515143125 -0.0893868328125
v 0.127424953125 0.07793164375 -0.0911675890625
v 0.186745578125 -0.3651103125 -0.13318946875
v 0.0907745 -0.439828 -0.15774275
v 0.1155021625 -0.4396965 -0.153909125
v 0.229840734375 -0.315920078125 -0.108382810938
v 0.153340125 0.0535127984375 -0.0891206828125
v 0.17888503125 0.0041542115625 -0.0864348765625
v 0.04851195 0.106060375 -0.092740825
v 0.0302738625 0.09861215 -0.0960343125
v 0.1865318125 -0.389932609375 -0.132396375
v 0.13998325 -0.43961975 -0.1486835
v 0.20938690625 -0.340379328125 -0.122809046875
v 0.228010140625 -0.29108503125 -0.104474904687
v 0.234212265625 -0.22046615625 -0.0634442453125
v 0.223218140625 -0.0964503890625 -0.0689556828125
v 0.177250859375 0.028661825625 -0.082562753125
v 0.23756515625 -0.24374246875 -0.072478634375
v 0.223806625 -0.0688975875 -0.063049675
v 0.20332884375 -0.0705443171875 -0.082369196875
v 0.200879984375 -0.02122169875 -0.0759754875
v 0.15348625 0.0798512125 -0.0810444625
v 0.209086875 -0.389955921875 -0.121990015625
v 0.209387828125 -0.365217859375 -0.122816078125
v 0.164028375 -0.439553875 -0.141729625
v 0.186555171875 -0.414708703125 -0.13190921875
v 0.248543203125 -0.3169394375 -0.0926920078125
v 0.24192940625 -0.267801171875 -0.0813741515625
v 0.23371021875 -0.197057046875 -0.058032928125
v 0.236075203125 -0.17281371875 -0.0554426140625
v 0.220656875 -0.047091425 -0.0624052375
v 0.20224653125 -0.045869653125 -0.0792864703125
v 0.177338375 0.0557124875 -0.0752163
v 0.0763635234375 0.103356729687 -0.09078961875
v 0.1248279375 0.100776364063 -0.0827474296875
v 0.24580640625 -0.29226415625 -0.0882721609375
v 0.230728453125 -0.340755375 -0.110139732813
v 0.249693640625 -0.24779453125 -0.051694128125
v 0.218401875 -0.02258135625 -0.05828475
v 0.10060830625 0.10236810625 -0.0876539171875
v 0.230818140625 -0.36545840625 -0.110297796875
v 0.255628890625 -0.270579640625 -0.0626519640625
v 0.240537 -0.145517625 -0.0506164375
v 0.239633125 -0.1232535375 -0.0516467625
v 0.198946265625 0.003271704375 -0.0721368703125
v 0.0534754 0.124557375 -0.0853515125
v 0.1480165 0.0991232375 -0.074560675
v 0.21184075 -0.41768225 -0.120061125
v 0.187523125 -0.43939525 -0.133132625
v 0.26828478125 -0.275999859375 -0.043111059375
v 0.237799375 -0.0984377375 -0.0487192625
v 0.21513975 0.001506625 -0.053483325
v 0.19828725 0.0303821875 -0.065011425
v 0.07472535 0.127116 -0.080996625
v 0.230424703125 -0.390062875 -0.1094214125
v 0.26068025 -0.294498453125 -0.070371640625
v 0.25247275 -0.34472675 -0.0929126125
v 0.250483625 -0.365848875 -0.095231
v 0.24402775 -0.2247095 -0.0350790375
v 0.240815875 -0.201506625 -0.0336204625
v 0.170050375 0.073525 -0.0735002
v 0.191611875 0.0486571 -0.064636625
v 0.122387625 0.121938125 -0.0711303375
v 0.0991377 0.1249035 -0.0766723625
v 0.25006625 -0.39022125 -0.0944733
v 0.207340375 -0.4361215 -0.12414575
v 0.266944375 -0.322001625 -0.0729173375
v 0.262575625 -0.255567 -0.0263637375
v 0.23368 -0.076669775 -0.0480150625
v 0.230191875 -0.414602375 -0.10868205
v 0.26465575 -0.33965125 -0.0790319
v 0.276042875 -0.302017625 -0.050213375
v 0.274431125 -0.267032125 -0.0143492625
v 0.243628125 -0.17651775 -0.031155025
v 0.245595625 -0.154303375 -0.032656175
v 0.141596125 0.1167695375 -0.065027775
v 0.2094625 0.02261490625 -0.051856175
v -0.0318986675 -0.362788375 -0.165885375
v 0.247316375 -0.411587375 -0.09567125
v 0.2812955 -0.28351925 -0.022897925
v 0.28407075 -0.300654875 -0.0337750875
v 0.276343375 -0.318368875 -0.0574221375
v 0.252422625 -0.240474875 -0.0208197625
v 0.01263241875 -0.254204125 -0.1515345
v 0.02540769375 -0.2662303125 -0.1543914375
v 0.03764750625 -0.253986625 -0.15109125
v 0.0248948625 -0.242028375 -0.1482005625
v 0.050438975 -0.2660633125 -0.1533315
v 0.06260759375 -0.253829375 -0.1495428125
v 0.049845125 -0.2418213125 -0.1472669375
v 0.0619540125 -0.2297423125 -0.142890375
v 0.04926111875 -0.2178760625 -0.14019925
v 0.03711673125 -0.2299318125 -0.14440525
v 0.02442696875 -0.218105 -0.1411524375
v 0.0121808125 -0.230174625 -0.144788125
v 0.061329625 -0.2058164375 -0.1357795
v 0.04874193125 -0.1939119375 -0.1334045
v 0.03660405625 -0.20603375 -0.1372764375
v 0.0239945 -0.1941529375 -0.134376875
v 0.01176569375 -0.20627175 -0.1377263125
v -0.01191115 -0.2787861875 -0.1570051875
v 0.000894225 -0.2909481875 -0.1596289375
v 0.01315556875 -0.2785475 -0.15725875
v 0.00035799375 -0.2664518125 -0.1544958125
v 0.0259804875 -0.290755 -0.159290375
v 0.0382209625 -0.27837575 -0.1565594375
v -0.00010380625 -0.242285625 -0.1481198125
v -0.0123954 -0.25446425 -0.151118875
v 0.07537985 -0.265953375 -0.151200875
v 0.08741765 -0.25374875 -0.1468514375
v 0.07468275625 -0.241686125 -0.14515875
v 0.08665038125 -0.229635125 -0.140254625
v 0.07397119375 -0.2177071875 -0.138154875
v 0.060888275 -0.1816970625 -0.1298296875
v 0.0484501625 -0.1696215 -0.12845425
v 0.0362218 -0.181936375 -0.1312769375
v 0.02375065 -0.1699001875 -0.12936725
v 0.0114547875 -0.1822008125 -0.131723875
v 0.0510485125 -0.2906358125 -0.15797475
v 0.06324745625 -0.2782600625 -0.1548828125
v 0.085922825 -0.2056765625 -0.1332551875
v 0.07337194375 -0.1937155625 -0.1314311875
v -0.01280010625 -0.2304270625 -0.144278875
v -0.0004984875 -0.218351625 -0.14108475
v -0.00084074375 -0.194389375 -0.1343463125
v -0.01314013125 -0.2064915 -0.1372151875
v 0.0993467 -0.24164525 -0.1419255625
v 0.1111516875 -0.229620375 -0.136496625
v 0.0985274125 -0.21763325 -0.1350254375
v 0.11031965 -0.2056043125 -0.1296255625
v 0.0978457 -0.193586125 -0.1284333125
v 0.08542761875 -0.181511375 -0.1273960625
v 0.07304711875 -0.1693934375 -0.126549125
v -0.00105964375 -0.170193875 -0.1292974375
v -0.01341115625 -0.1824108125 -0.1312006875
v -0.0113625875 -0.3034123125 -0.161494875
v 0.00145814375 -0.31571975 -0.1631380625
v 0.01372016875 -0.3032094375 -0.1614835625
v 0.0265455 -0.3155616875 -0.16250975
v 0.0388095125 -0.3030713125 -0.1605034375
v 0.1001496375 -0.265936875 -0.147865875
v 0.1120374 -0.253763 -0.142955875
v 0.05162940625 -0.315464125 -0.1610115
v 0.06386591875 -0.302991625 -0.1586575625
v 0.0760480875 -0.290560375 -0.155728375
v 0.0881527625 -0.2781975 -0.1521543125
v -0.0369387 -0.2790535 -0.15599
v -0.0241668375 -0.2911800625 -0.159085625
v -0.02467354375 -0.266726875 -0.1536995
v -0.0251069 -0.2425354375 -0.1472659375
v -0.03740225 -0.2547375 -0.149965
v -0.02545435 -0.2185494375 -0.1401505625
v -0.03777655 -0.230622 -0.143111
v -0.03641515 -0.3036235 -0.160906
v -0.02360815 -0.3159176875 -0.1629770625
v 0.109782275 -0.1813480625 -0.123935625
v 0.09750200625 -0.16918925 -0.12366375
v -0.02575401875 -0.1945394375 -0.1333743125
v -0.038087125 -0.2066170625 -0.1358113125
v 0.06068355625 -0.157229625 -0.1258911875
v 0.0483185125 -0.145022125 -0.1253031875
v 0.0360390875 -0.1574823125 -0.1272900625
v 0.02363720625 -0.1453368125 -0.1261649375
v 0.01129424375 -0.1578245 -0.1276695625
v 0.08522280625 -0.1569895625 -0.1235573125
v 0.072919 -0.1447724375 -0.1234765625
v 0.10094490625 -0.2905144375 -0.152346625
v 0.112919125 -0.2781884375 -0.1481585
v 0.0766812875 -0.315383375 -0.15862975
v 0.08885718125 -0.3029178125 -0.1558196875
v 0.12282025 -0.2176066875 -0.13070025
v 0.13436175 -0.20550025 -0.1247120625
v 0.12206475 -0.1934545 -0.124328625
v 0.13383925 -0.181118375 -0.119350375
v 0.121747125 -0.168943375 -0.1198068125
v 0.1237910625 -0.241654625 -0.1374756875
v 0.1353241875 -0.2295998125 -0.13136475
v -0.05074060625 -0.1946075625 -0.131487125
v -0.06306255 -0.2067245 -0.133595
v -0.0504179 -0.2186815 -0.138277
v 0.08512838125 -0.1322575 -0.121104
v 0.07280950625 -0.12001635 -0.1212581875
v 0.06057628125 -0.1325384375 -0.1233060625
v 0.04821588125 -0.120302275 -0.1229393125
v 0.03594380625 -0.132821125 -0.1246023125
v -0.00116975625 -0.1457984375 -0.126076
v -0.01360394375 -0.1581871875 -0.127139875
v -0.01079576875 -0.328265125 -0.1643425
v 0.00200776 -0.3406523125 -0.1649815
v 0.014271075 -0.32809275 -0.16398775
v 0.027074625 -0.34050425 -0.164124875
v 0.03936051875 -0.3279675 -0.1628260625
v 0.1257045625 -0.2904544375 -0.1477578125
v 0.1375130625 -0.278112875 -0.1429575625
v 0.1247725625 -0.2659250625 -0.143324
v 0.136442375 -0.253730125 -0.137769375
v -0.02601115625 -0.170352625 -0.128317375
v -0.03839685 -0.1824576875 -0.129767125
v -0.0511056 -0.1702015 -0.1263844375
v -0.0634854 -0.1824065 -0.1275
v 0.10959253125 -0.1567320625 -0.1202699375
v 0.0973913375 -0.144491375 -0.1207515
v 0.0235768875 -0.12068769375 -0.1237365625
v 0.01124603125 -0.13325875 -0.124963125
v 0.0850186 -0.1074761 -0.119030375
v 0.07267759375 -0.09524465625 -0.1191151875
v 0.06046253125 -0.1077813625 -0.1211249375
v 0.0480897125 -0.0955609875 -0.120743375
v 0.0358432625 -0.10810901875 -0.1223348125
v -0.00111610625 -0.12123938125 -0.123684875
v -0.013590675 -0.1338070625 -0.1244663125
v 0.1016395875 -0.31530125 -0.1551433125
v 0.11372876875 -0.3028559375 -0.1517821875
v -0.02303729625 -0.34084225 -0.1651345
v -0.03585065 -0.3284685 -0.164101
v 0.1337636875 -0.1564495625 -0.115918875
v 0.121709375 -0.1442004375 -0.11704025
v 0.02347965625 -0.0959887875 -0.12154775
v 0.011217475 -0.108614175 -0.1227253125
v -0.0261595125 -0.1462040625 -0.1251204375
v -0.03865840625 -0.1582379375 -0.1256921875
v 0.05215979375 -0.340392875 -0.1624940625
v 0.06444135 -0.327879125 -0.1608414375
v 0.08484974375 -0.0826939125 -0.116928
v 0.07244113125 -0.070456375 -0.116973
v 0.060305225 -0.08301830625 -0.118952125
v 0.04789801875 -0.07082164375 -0.1185315625
v 0.03571713125 -0.08339690625 -0.1201348125
v 0.02333726875 -0.071294575 -0.1193241875
v 0.0111346 -0.0839223625 -0.120557625
v -0.0259561375 -0.12179410625 -0.122811
v -0.0386112 -0.1342245 -0.12323
v -0.05127785 -0.1456555 -0.122983
v -0.0637642 -0.157509 -0.1232915
v 0.07720215 -0.340294875 -0.1599724375
v 0.08945849375 -0.3277848125 -0.157882875
v 0.1264350625 -0.3152269375 -0.150572
v 0.138392875 -0.3027784375 -0.14659475
v -0.02245507 -0.365831 -0.165938
v -0.0102381025 -0.3532311875 -0.16556675
v -0.035253 -0.3534405 -0.1656095
v 0.150154125 -0.290374125 -0.14177
v 0.161624875 -0.2780310625 -0.136049
v 0.149083125 -0.2658329375 -0.1373251875
v 0.1603100625 -0.25362825 -0.1307479375
v 0.1478255 -0.2415870625 -0.1314141875
v 0.158919125 -0.229460625 -0.1243848125
v 0.1466489375 -0.217485375 -0.1248103125
v 0.1578386875 -0.2052915 -0.1179913125
v 0.14585375 -0.193242125 -0.1187308125
v 0.1574586875 -0.1808840625 -0.1130371875
v 0.1456940625 -0.1686800625 -0.1146019375
v -0.00112275625 -0.096576775 -0.1215451875
v -0.01345664375 -0.10922885 -0.1222868125
v 0.05996775 -0.0582267625 -0.1167549375
v 0.0474796625 -0.04603849375 -0.116281375
v 0.03545435625 -0.0586717625 -0.1178734375
v 0.0230311 -0.04657755625 -0.117059625
v 0.0109718375 -0.05922923125 -0.1183235625
v 0.0973187 -0.119703775 -0.1186616875
v 0.10949884375 -0.1071579875 -0.11601375
v 0.097199525 -0.09491985625 -0.1166374375
v 0.10934390625 -0.08237475 -0.1140235
v 0.09695746875 -0.07012385 -0.1145821875
v 0.10955238125 -0.13194675 -0.1179650625
v -0.02570153125 -0.09723559375 -0.1207586875
v -0.03819825 -0.109831 -0.1211745
v 0.10212880625 -0.3402053125 -0.156447125
v 0.11432988125 -0.327706 -0.153820625
v 0.002528349375 -0.3656250625 -0.1653830625
v 0.014798785 -0.3530580625 -0.164936875
v 0.0275576 -0.3654646875 -0.1643303125
v 0.039857825 -0.352924375 -0.163626125
v 0.169777125 -0.2173305 -0.1168700625
v 0.180509875 -0.205205375 -0.1090570125
v 0.169065625 -0.1930566875 -0.1112116875
v 0.180446875 -0.1808104375 -0.10462099375
v 0.1692225 -0.168524375 -0.1075289375
v 0.157635125 -0.156256125 -0.1099249375
v 0.1458235 -0.14397675 -0.1119641875
v 0.1338386875 -0.131697375 -0.1136798125
v 0.12171925 -0.1194210875 -0.115031625
v 0.08447838125 -0.0578749875 -0.1148326875
v 0.07195746875 -0.04562330625 -0.1148199375
v -0.00116920625 -0.07188021875 -0.11936
v -0.01338924375 -0.08455679375 -0.1201745625
v -0.0255536875 -0.0725352625 -0.1186453125
v -0.03781415 -0.0852449 -0.1191565
v 0.05257155625 -0.3653454375 -0.1625344375
v 0.06489429375 -0.352819125 -0.1614780625
v 0.0775159375 -0.3652431875 -0.15986175
v 0.0898417625 -0.352720875 -0.1584079375
v -0.009747655 -0.3782 -0.1656085
v 0.002949823125 -0.3905666875 -0.164903
v 0.015244899375 -0.3780061875 -0.1646995
v 0.0279160375 -0.390390625 -0.1637031875
v 0.04024465625 -0.37786825 -0.163232875
v 0.1711776875 -0.2414863125 -0.1233250625
v 0.181636375 -0.229397875 -0.11514075
v 0.0839367875 -0.0330219125 -0.1127205625
v 0.07140370625 -0.02077745125 -0.112644125
v 0.05945578125 -0.0334043875 -0.114544375
v 0.04696004375 -0.02123594375 -0.1140806875
v 0.03502228125 -0.0339018875 -0.1156528125
v 0.022583914375 -0.021860101875 -0.114833125
v 0.01065781875 -0.03454339375 -0.1160665625
v 0.1090233375 -0.05756621875 -0.1120000625
v 0.096497575 -0.04528694375 -0.1125180625
v -0.013394875 -0.0598489875 -0.11797825
v -0.0256040625 -0.047804075 -0.11652425
v -0.037679 -0.06048495 -0.117112
v 0.10235163125 -0.365149625 -0.1562459375
v 0.1146499 -0.352639125 -0.15431325
v -0.00930302 -0.4031555 -0.1651595
v 0.003354815 -0.4155035 -0.164441
v 0.01561137875 -0.402928125 -0.1640991875
v 0.0282499625 -0.415301625 -0.1633274375
v 0.04053730625 -0.4027861875 -0.1625505625
v 0.150891 -0.315180625 -0.1445708125
v 0.1625868125 -0.3027423125 -0.139698
v 0.133881625 -0.1069473 -0.1117655625
v 0.121663375 -0.09465355625 -0.1130855625
v 0.133796375 -0.08219385625 -0.1097888125
v 0.121457 -0.06987044375 -0.111094375
v 0.1084986125 -0.03272851875 -0.109935875
v 0.09590486875 -0.02042915875 -0.110401375
v 0.10781349375 -0.007866125 -0.1078134375
v 0.09519345 0.00446032875 -0.1082379375
v 0.0833350375 -0.00815356 -0.1105739375
v 0.0707383875 0.00408902375 -0.1104068125
v 0.05887261875 -0.008581975 -0.1123146875
v -0.00132969375 -0.04719736875 -0.117118
v 0.0462819125 0.00353253125 -0.111747875
v 0.034451326875 -0.009166890625 -0.113403
v 0.0218604125 0.00275687 -0.1125305
v 0.01007119875 -0.009951448125 -0.113844875
v -0.001770779375 -0.022593265 -0.1149245625
v -0.01364773125 -0.03518513125 -0.11581175
v 0.1335 -0.0574037875 -0.107818125
v 0.1210535 -0.04505144375 -0.109115625
v 0.13297425 -0.0325844 -0.10583729375
v 0.1204333125 -0.0202146625 -0.1070624375
v -0.0260610125 -0.0232047093125 -0.114470875
v -0.0378747 -0.03572225 -0.1151115
v 0.052851075 -0.3902743125 -0.1617855
v 0.065179175 -0.377761 -0.160934875
v 0.1739563125 -0.29035225 -0.1338975
v 0.1848596875 -0.278043875 -0.126991375
v 0.1727028125 -0.265768625 -0.129299
v 0.18331525 -0.2536029375 -0.12152475
v 0.191715375 -0.21736725 -0.10631545
v 0.2016354375 -0.205455875 -0.09703020625
v 0.191277875 -0.193116375 -0.10112661875
v 0.202085 -0.181127125 -0.093099625
v 0.19190475 -0.1686369375 -0.0979373375
v 0.15791675 -0.131566875 -0.10780229375
v 0.1459778125 -0.1192506125 -0.11002875
v 0.10703218125 0.0170145125 -0.10562125
v 0.094254625 0.029382235 -0.105823875
v 0.082518425 0.0167666275 -0.1082700625
v 0.06970839375 0.02901872375 -0.107836875
v 0.05803590625 0.016270075 -0.10990675
v 0.04523190625 0.0283371375 -0.1091466875
v 0.033580515625 0.015517259375 -0.110975875
v 0.126879 -0.3401340625 -0.15182725
v 0.1389754375 -0.327645125 -0.1486113125
v 0.077701925 -0.3901664375 -0.1590009375
v 0.09002495625 -0.3776566875 -0.1577515
v 0.1747700625 -0.315198375 -0.1367729375
v 0.1860234375 -0.3027883125 -0.130912375
v 0.1933881875 -0.2415385 -0.1127636875
v 0.20274425 -0.2296069375 -0.1029930625
v 0.181042125 -0.156241875 -0.10191810625
v 0.169661875 -0.14389175 -0.10515979375
v 0.15809475 -0.10686451875 -0.10593305625
v 0.146022375 -0.09452235 -0.1081020625
v 0.1580385 -0.0821532 -0.1039010375
v 0.145843875 -0.069776875 -0.1060700625
v 0.15767725 -0.05740453125 -0.10178674375
v 0.14539125 -0.04498256875 -0.10406429375
v 0.02077650875 0.027310660625 -0.1099755
v 0.00912579375 0.014499608125 -0.1115225625
v -0.002615575 0.0017776225 -0.1127701875
v -0.014361585625 -0.0107894280625 -0.1137266875
v 0.132318625 -0.007767949375 -0.1037615375
v 0.119711875 0.00462866875 -0.10492275
v 0.131536 0.017028425625 -0.10147255
v 0.118817875 0.0294500625 -0.10252461875
v 0.1270186875 -0.365072875 -0.151589875
v 0.13922325 -0.3525823125 -0.14903475
v 0.102444425 -0.3900624375 -0.1553496875
v 0.11473509375 -0.377567125 -0.1536275625
v 0.0286619 -0.4401885 -0.1640155
v 0.04088688125 -0.427676125 -0.1627003125
v 0.0160053 -0.427822 -0.164365
v 0.1512829375 -0.340109375 -0.1457598125
v 0.16314525 -0.3276469375 -0.14167075
v 0.1816405625 -0.13162875 -0.0999237375
v 0.1700094375 -0.11922555625 -0.103245775
v 0.181861 -0.106986125 -0.09788819375
v 0.170055375 -0.09454424375 -0.10121583125
v 0.1816419375 -0.0823123 -0.09562411875
v 0.169789625 -0.06983888125 -0.09901406875
v 0.10590299375 0.0418637125 -0.10287999375
v 0.09279966875 0.0542526875 -0.1024713125
v 0.08130981875 0.04171099375 -0.1054466875
v 0.06825910625 0.05394555625 -0.1044940625
v 0.05679911875 0.04116304375 -0.1070223125
v 0.043801425 0.05320616875 -0.105783125
v 0.032345019375 0.04025510625 -0.1080813125
v 0.019369035625 0.0518699625 -0.1067145
v 0.0079044225 0.0388724125 -0.1087485625
v -0.0270476 0.0009412755 -0.112434
v -0.0386388 -0.0113522545 -0.1131045
v 0.1570928125 -0.03262866875 -0.09963488125
v 0.1447780625 -0.020186284375 -0.10198006875
v 0.1304013125 0.0417328875 -0.09862158125
v 0.11739225 0.0541335875 -0.099180525
v 0.1270005 -0.38997725 -0.1506425
v 0.139206 -0.377502125 -0.148303125
v 0.0531211 -0.4151791875 -0.1613521875
v 0.065394875 -0.40267825 -0.1601545625
v 0.213497125 -0.2419366875 -0.09913438125
v 0.2210955625 -0.230357375 -0.08724965
v 0.2115040625 -0.2178920625 -0.09229989375
v 0.2199564375 -0.2064591875 -0.080933625
v 0.2114780625 -0.193728875 -0.0873436875
v 0.195212125 -0.2658324375 -0.118954625
v 0.2048330625 -0.253787 -0.10968938125
v 0.2032235 -0.156645 -0.09071970625
v 0.1927978125 -0.144087625 -0.095806625
v -0.0037099475 0.02605791 -0.110367625
v -0.0153967 0.01336843 -0.1116895
v -0.005075005 0.0500742 -0.1073395
v -0.01667195 0.0372799 -0.108996
v 0.1564191875 -0.00785994 -0.09740741875
v 0.14408625 0.00459665 -0.0997863125
v 0.1513358125 -0.3650430625 -0.145495
v 0.16332525 -0.35259325 -0.1420695625
v 0.07792958125 -0.4150651875 -0.1585563125
v 0.09017014375 -0.4025651875 -0.156932875
v 0.10263133125 -0.4149476875 -0.154886875
v 0.11479128125 -0.4024640625 -0.152740375
v 0.1751245625 -0.3401493125 -0.1379335
v 0.186659125 -0.327715625 -0.132981
v 0.22099525 -0.1822908125 -0.077270825
v 0.21274025 -0.1693436875 -0.08458069375
v 0.1967388125 -0.2904466875 -0.1238965
v 0.206786875 -0.2782214375 -0.11563185
v 0.2041711875 -0.132123625 -0.08868181875
v 0.193349875 -0.11950356875 -0.09378750625
v 0.2043451875 -0.1075397125 -0.08643574375
v 0.1932333125 -0.09486965625 -0.09149073125
v 0.1811336875 -0.057603575 -0.09322071875
v 0.1692545625 -0.04509260625 -0.09676103125
v 0.180415375 -0.0328751125 -0.09071145625
v 0.1685601875 -0.020342789375 -0.09440160625
v 0.0551145375 0.06608808125 -0.102934875
v 0.04189725625 0.0780375375 -0.10097525
v 0.03071724375 0.065020425 -0.1041605625
v 0.017380255 0.0761408 -0.102401
v 0.0060816 0.0628681 -0.1050705
v 0.155557625 0.01686144125 -0.09483805
v 0.1431326875 0.029308553125 -0.0971070125
v 0.12859775 0.0660544625 -0.09426135
v 0.1152509375 0.07835464375 -0.093804275
v 0.104105775 0.0665331875 -0.09867086875
v 0.090735975 0.07891218125 -0.09722761875
v 0.07957013125 0.0665949 -0.1012849375
v 0.15122125 -0.38993875 -0.1445428125
v 0.163224625 -0.377500125 -0.141371375
v 0.0535263 -0.440041 -0.1620345
v 0.06572675625 -0.427552875 -0.1603151875
v 0.19780825 -0.3153160625 -0.1270944375
v 0.20833775 -0.30298275 -0.120001875
v 0.2227875 -0.15791875 -0.07502686875
v 0.214097375 -0.144904 -0.08241985
v 0.2239271875 -0.133415625 -0.0728104125
v 0.2146875 -0.12035849375 -0.08020488125
v 0.2037719375 -0.0828859125 -0.0838115875
v 0.19267975 -0.07018411875 -0.08893739375
v 0.1542553125 0.0414107125 -0.09139835
v 0.1416498125 0.0537648125 -0.09340240625
v 0.1521851875 0.06539713125 -0.08628140625
v 0.139356875 0.07748040625 -0.08753663125
v 0.1271299375 -0.414854875 -0.1501263125
v 0.13915725 -0.402393625 -0.1473551875
v 0.151299125 -0.414805125 -0.144073375
v 0.163108 -0.4023688125 -0.1405271875
v 0.07836875 -0.4399005 -0.159349
v 0.09051596875 -0.4274221875 -0.1571915625
v 0.10315865 -0.4397575 -0.15596
v 0.1151719125 -0.427303 -0.1531353125
v 0.2159375625 -0.2661925 -0.10597350625
v 0.2238819375 -0.2543926875 -0.0948305
v 0.2180865625 -0.29076475 -0.111590975
v 0.226764625 -0.278778875 -0.10167386875
v 0.179480875 -0.00816811 -0.087989025
v 0.1676963125 0.00437605125 -0.09181143125
v 0.17814725 0.01644004625 -0.08464123125
v 0.1664165 0.028968910625 -0.0884337375
v 0.0662995125 0.0788226375 -0.0993796875
v 0.05296035625 0.09081189375 -0.0970027375
v 0.0392997 0.102293 -0.0945405
v 0.02831375 0.0894876 -0.09870015
v 0.127786 -0.4396525 -0.1514985
v 0.1395745625 -0.427228375 -0.14782625
v 0.1751075625 -0.3650768125 -0.1377029375
v 0.1867973125 -0.3526634375 -0.1333951875
v 0.198209125 -0.3402705 -0.1283219375
v 0.20921925 -0.32791425 -0.1223461875
v 0.174972 -0.414752375 -0.13641675
v 0.18645725 -0.402329375 -0.1320030625
v 0.174928375 -0.3899336875 -0.1368715
v 0.1866425 -0.3775298125 -0.1328241875
v 0.2340355 -0.2670503125 -0.0901745875
v 0.239726875 -0.2556876875 -0.07709615
v 0.230437375 -0.242846375 -0.08212749375
v 0.2356375 -0.2320514375 -0.0677198625
v 0.2277976875 -0.219156 -0.07412770625
v 0.2335578125 -0.2088381875 -0.06027619375
v 0.227787625 -0.195507375 -0.0689648875
v 0.2028191875 -0.05820580625 -0.080855825
v 0.19187425 -0.04548543125 -0.08619391875
v 0.1761791875 0.04079198125 -0.08015410625
v 0.1644946875 0.05321030625 -0.08377755
v 0.07740873125 0.09123391875 -0.09490919375
v 0.06416696875 0.1033771 -0.09210930625
v 0.152067 -0.4395925 -0.1454195
v 0.163556375 -0.4271761875 -0.1409591875
v 0.21959675 -0.3156296875 -0.115228875
v 0.2290404375 -0.303482 -0.106709775
v 0.2347055625 -0.18501225 -0.05653166875
v 0.22980425 -0.171290375 -0.066357975
v 0.2317120625 -0.146838625 -0.06423693125
v 0.2397505 -0.135725 -0.0528486
v 0.23213 -0.12210975625 -0.06192046875
v 0.238932 -0.11081715 -0.05029345
v 0.230852 -0.0973878125 -0.05912245625
v 0.2237525625 -0.108775575 -0.0703642125
v 0.2142113125 -0.09573796875 -0.077648975
v 0.2016144375 -0.03353513125 -0.07767613125
v 0.1908280625 -0.020792185625 -0.083267825
v 0.1261373125 0.0895484875 -0.08737045625
v 0.112791 0.10160718125 -0.085557225
v 0.1017386875 0.0906684875 -0.092081425
v 0.088488225 0.10298584375 -0.08935126875
v 0.1758585 -0.439487 -0.137637
v 0.1869619375 -0.4270591875 -0.1323798125
v 0.19818625 -0.3651529375 -0.1282404375
v 0.209438375 -0.3528128125 -0.1229505
v 0.2202715 -0.3405298125 -0.1167895
v 0.23039625 -0.3283495625 -0.10949834375
v 0.237271 -0.291573375 -0.09665324375
v 0.2439795 -0.279997 -0.08511438125
v 0.2373505 -0.160571375 -0.0544359625
v 0.22250125 -0.08413268125 -0.06734074375
v 0.213107625 -0.07108075 -0.07456709375
v 0.20000025 -0.00894881375 -0.07413521875
v 0.1893820625 0.003811655 -0.07989185
v 0.1497215 0.0883337 -0.07939815
v 0.13651075 0.09994895 -0.07891076875
v 0.197931625 -0.38993675 -0.1274435
v 0.2092494375 -0.377597625 -0.1224513125
v 0.2406233125 -0.3410894375 -0.10273618125
v 0.2493826875 -0.329267625 -0.09392541875
v 0.2395181875 -0.316349875 -0.10085686875
v 0.247339375 -0.304591625 -0.0908028125
v 0.173892 0.06466545 -0.0745887
v 0.1617555 0.07675095 -0.0773653
v 0.1976890625 0.01542803625 -0.0699619875
v 0.1872859375 0.028196939375 -0.0755684
v 0.0754992125 0.115285 -0.08604850625
v 0.0624619 0.127511 -0.08288445
v 0.0510313 0.1154445 -0.0891574
v 0.1979226875 -0.4146574375 -0.126926875
v 0.2089638125 -0.4022965625 -0.121566
v 0.2203085625 -0.36531825 -0.116876625
v 0.2308588125 -0.3531224375 -0.1103903375
v 0.2438215 -0.2452395 -0.06223784375
v 0.246546 -0.2372425625 -0.04539635
v 0.239288375 -0.222748125 -0.051750225
v 0.241624 -0.2137855 -0.0358769
v 0.237737 -0.1991468125 -0.04608155
v 0.2363875 -0.0861372 -0.0468548
v 0.2286605 -0.0727897 -0.05551505
v 0.195224 0.0395751 -0.065012
v 0.1844475 0.0522063 -0.0699685
v 0.249036625 -0.268918125 -0.07215944375
v 0.2527428125 -0.2589663125 -0.0575064375
v 0.211685125 -0.04643520625 -0.0711524875
v 0.221596 -0.05939405 -0.06431385
v 0.2196175 -0.03480205 -0.0604215
v 0.209899125 -0.021851464375 -0.067440725
v 0.216934 -0.010484775 -0.0559171
v 0.2073365 0.0024576825 -0.06312445625
v 0.2197315 -0.414605 -0.115231
v 0.2302890625 -0.4023370625 -0.109028
v 0.219956625 -0.3899999375 -0.1160130625
v 0.23063725 -0.3777709375 -0.10990975
v 0.198988 -0.439282 -0.1282075
v 0.2096675 -0.426888 -0.1222315
v 0.258676 -0.3421855 -0.08607225
v 0.265985 -0.3307175 -0.07608035
v 0.256829875 -0.317709125 -0.0839291875
v 0.26277025 -0.3066085625 -0.07289161875
v 0.253553625 -0.29319175 -0.079477825
v 0.25828725 -0.28245625 -0.06694939375
v 0.2418075 -0.189043 -0.03216495
v 0.2403505625 -0.1746 -0.04354450625
v 0.245307 -0.164054 -0.03023535
v 0.2432455 -0.1499175 -0.04166775
v 0.0997939875 0.1137221875 -0.08237579375
v 0.0870003 0.126183 -0.07892845
v 0.1459265 0.10914465 -0.06866635
v 0.13317 0.1203695 -0.06695755
v 0.1235899375 0.11148664375 -0.0771759875
v 0.1109885 0.123469 -0.0742208
v 0.24078625 -0.365642625 -0.1029553125
v 0.250473 -0.3536815 -0.0952642
v 0.2619779375 -0.2729641875 -0.0529732125
v 0.265304 -0.265940125 -0.03724193125
v 0.2556688125 -0.251864625 -0.04113649375
v 0.2572395 -0.248301 -0.0234884
v 0.247823 -0.2331085 -0.02737165
v 0.2403749375 -0.3901388125 -0.1021238375
v 0.2503115 -0.378028 -0.094917
v 0.267353875 -0.2963265625 -0.0610550125
v 0.271105375 -0.2870458125 -0.04790583125
v 0.212945 0.013411775 -0.0511482
v 0.203805 0.02650025 -0.0585517
v 0.2800565 -0.301194 -0.04236775
v 0.2838365 -0.2934875 -0.0279254
v 0.2747504375 -0.27961475 -0.033053375
v 0.2783895 -0.2745775 -0.0167719
v 0.268733 -0.261253 -0.02043195
v 0.240074 -0.4146205 -0.1013552
v 0.2498575 -0.402431 -0.094051
v 0.2718145 -0.320121 -0.0652426
v 0.276279 -0.3100385 -0.05382195
v 0.02514365 -0.25408875 -0.1514355
v 0.050140275 -0.25389975 -0.1504595
v 0.049550425 -0.2298285 -0.14379125
v 0.0246579 -0.23004875 -0.14472475
v 0.04898215 -0.20591875 -0.13665775
v 0.024196275 -0.20615225 -0.137628
v 0.00061925 -0.2786605 -0.15724575
v 0.025690425 -0.2784535 -0.15703025
v 0.000117525 -0.25433075 -0.1514305
v 0.0750351 -0.25377675 -0.14834375
v 0.074322525 -0.22967675 -0.14171025
v 0.048568875 -0.181811 -0.13067725
v 0.023850325 -0.1820695 -0.1316245
v 0.050744325 -0.2783115 -0.1558455
v 0.07364555 -0.205736 -0.13464925
v -0.00030765 -0.23030475 -0.14463375
v -0.0006808 -0.20638975 -0.13758525
v 0.098932 -0.22962075 -0.13852725
v 0.09815435 -0.20563725 -0.1315855
v 0.073176725 -0.18159825 -0.1287385
v -0.000964475 -0.18232075 -0.131579
v 0.00117585 -0.30330625 -0.161594
v 0.026266525 -0.3031315 -0.16111025
v 0.0997501 -0.25375225 -0.145055
v 0.051343725 -0.30302775 -0.1596925
v 0.0757173 -0.27822075 -0.15366575
v -0.02442825 -0.27891825 -0.156551
v -0.024900725 -0.25460025 -0.150595
v -0.025289175 -0.2305295 -0.14374075
v -0.0238913 -0.303518 -0.1612395
v 0.09763435 -0.18143325 -0.12579475
v -0.025609225 -0.20656225 -0.1366265
v 0.048372975 -0.157349 -0.12671375
v 0.023682375 -0.15764325 -0.1276015
v 0.07297035 -0.1571105 -0.124841
v 0.10055275 -0.27819425 -0.1503085
v 0.07637285 -0.30295375 -0.15737875
v 0.12239825 -0.205564 -0.12736075
v 0.12185675 -0.18124 -0.12181975
v 0.12329375 -0.22962075 -0.13413125
v -0.050572875 -0.206671 -0.13476175
v 0.07286565 -0.13240225 -0.12231825
v 0.048267975 -0.1326695 -0.12407
v -0.0011339 -0.15801875 -0.12751575
v 0.001735125 -0.32817375 -0.16425825
v 0.026814375 -0.32802425 -0.16350875
v 0.12525375 -0.2781575 -0.1457345
v 0.1242845 -0.25375675 -0.1405555
v -0.02588895 -0.1824525 -0.13059975
v -0.05093385 -0.18243825 -0.12869375
v 0.097430375 -0.15686475 -0.12203425
v 0.02360685 -0.133019 -0.12489525
v 0.072749775 -0.10763115 -0.1201885
v 0.04815675 -0.1079316 -0.12183625
v -0.001149725 -0.133536 -0.12482025
v 0.101311575 -0.3028875 -0.153944
v -0.0233239 -0.32836475 -0.16426275
v 0.12170875 -0.1565875 -0.1182625
v 0.0235329 -0.108340775 -0.122633
v -0.026117775 -0.158291 -0.12654175
v 0.051905 -0.32792175 -0.1619445
v 0.0725841 -0.082854875 -0.11804425
v 0.0480139 -0.08319395 -0.11964325
v 0.023421925 -0.083642275 -0.120444
v -0.026087075 -0.13402825 -0.123901
v -0.05120885 -0.15793575 -0.124562
v 0.0769631 -0.32783175 -0.15949425
v 0.1261015 -0.30281625 -0.14936475
v -0.022747085 -0.35333325 -0.16563025
v 0.1496535 -0.278066 -0.13974875
v 0.148462 -0.25367975 -0.134513
v 0.147209 -0.2295355 -0.12813075
v 0.14618175 -0.205397 -0.1216005
v 0.14571125 -0.1809925 -0.11643075
v -0.0011112 -0.108916525 -0.12260625
v 0.047710775 -0.058435225 -0.117404
v 0.02320325 -0.058939025 -0.11819075
v 0.097269125 -0.10731135 -0.117654
v 0.097101375 -0.082525675 -0.11561175
v 0.097356775 -0.13210075 -0.11966075
v -0.025822375 -0.109532175 -0.121778
v 0.101915775 -0.3277435 -0.15598725
v 0.002277015 -0.3531395 -0.16533475
v 0.027327725 -0.35298675 -0.16437575
v 0.169313 -0.205221 -0.11384975
v 0.1690675 -0.18081475 -0.109146
v 0.145742 -0.15633675 -0.113146
v 0.12171675 -0.13181025 -0.1159935
v 0.072220525 -0.058043725 -0.11589875
v -0.001138525 -0.084229475 -0.1204625
v -0.02560935 -0.0848975 -0.11970975
v 0.052383075 -0.35286975 -0.16266275
v 0.0773823 -0.35276875 -0.1600645
v 0.0027472225 -0.37809875 -0.1651915
v 0.027748175 -0.377931 -0.1640575
v 0.1704255 -0.229408 -0.1200825
v 0.07168715 -0.0332015 -0.113735
v 0.047232175 -0.03363525 -0.1151845
v 0.02283205 -0.0342121 -0.11594675
v 0.0967506 -0.057709425 -0.113554
v -0.0255424 -0.06016625 -0.1175795
v 0.10226735 -0.35267775 -0.15649425
v 0.00315234 -0.403035 -0.1646605
v 0.028077775 -0.4028485 -0.16341325
v 0.150566 -0.3027525 -0.14337525
v 0.12170525 -0.1070371 -0.114064
v 0.12158225 -0.082265725 -0.11209125
v 0.0962152 -0.03286095 -0.11146525
v 0.095567975 -0.007989285 -0.10933225
v 0.071101275 -0.008350305 -0.1115475
v -0.0012255 -0.0595346 -0.1182395
v 0.046655 -0.008851025 -0.11293725
v 0.0222645075 -0.0095390075 -0.11369975
v -0.001504075 -0.034873275 -0.1160125
v 0.12128275 -0.05746455 -0.11010825
v 0.12076325 -0.032634525 -0.10809925
v -0.02576725 -0.03546235 -0.1154915
v 0.05272195 -0.377813 -0.162193
v 0.173377 -0.27802225 -0.13179925
v 0.17195325 -0.25359825 -0.12643575
v 0.1913345 -0.2052645 -0.1034943
v 0.191506 -0.180897 -0.099325975
v 0.145907 -0.13161425 -0.11095775
v 0.094770225 0.01692134 -0.1070985
v 0.070273575 0.01654962 -0.10918375
v 0.04580565 0.01592775 -0.11050625
v 0.12669575 -0.3276705 -0.15139625
v 0.07761545 -0.377708 -0.1594555
v 0.17442125 -0.30275175 -0.13555475
v 0.19246 -0.2294505 -0.1094765
v 0.1694345 -0.15621475 -0.10623675
v 0.14602125 -0.1068872 -0.10907925
v 0.14596625 -0.0821544 -0.10709
v 0.14564625 -0.0573833 -0.10506925
v 0.0213582125 0.0150332175 -0.11130925
v -0.0021519425 -0.010388285 -0.11385575
v 0.120085 -0.007792725 -0.1060085
v 0.1193075 0.0170469 -0.1037905
v 0.12698025 -0.35260475 -0.15185475
v 0.102401875 -0.37760975 -0.1558195
v 0.028449175 -0.427747 -0.1635855
v 0.151131 -0.327638 -0.145363
v 0.169863 -0.13156125 -0.104188425
v 0.17007275 -0.106886975 -0.102254975
v 0.16995975 -0.0821961 -0.10012815
v 0.093602975 0.0418315 -0.104324
v 0.0690444 0.041483575 -0.10632475
v 0.044566375 0.0407632 -0.1076035
v 0.0201339025 0.039609825 -0.10846875
v -0.0265144 -0.01109478725 -0.113452
v 0.14509675 -0.032583575 -0.103031925
v 0.118189 0.04182625 -0.101037975
v 0.1270135 -0.37752875 -0.15114375
v 0.05297575 -0.40273125 -0.161459
v 0.212337 -0.22990825 -0.09559375
v 0.21126125 -0.205837 -0.089533325
v 0.19431975 -0.2536555 -0.11596325
v 0.19236 -0.15636675 -0.096805675
v -0.0031296875 0.013940415 -0.111632
v -0.0043720225 0.038087925 -0.1089035
v 0.1444505 -0.0077906625 -0.10091665
v 0.15134375 -0.3525795 -0.14576925
v 0.07779645 -0.40262175 -0.15865325
v 0.102505625 -0.402512 -0.15497125
v 0.175001 -0.32766975 -0.137554
v 0.212024 -0.1815535 -0.085780625
v 0.19602275 -0.27810025 -0.12161725
v 0.19314425 -0.13180075 -0.094815825
v 0.19336525 -0.107193525 -0.0926759
v 0.16954875 -0.057468925 -0.097895725
v 0.1689245 -0.0327163 -0.0955979
v 0.042929425 0.065666275 -0.103592
v 0.01842055 0.064030325 -0.10463825
v 0.1436575 0.0169690125 -0.0985337
v 0.116399 0.0663302 -0.096802225
v 0.0918291 0.06662935 -0.10013825
v 0.1512815 -0.37749475 -0.14504075
v 0.05331225 -0.4276135 -0.16160375
v 0.1973475 -0.3028595 -0.12573775
v 0.213468 -0.15713225 -0.08348045
v 0.2145185 -0.13264375 -0.08133885
v 0.192997 -0.082531 -0.090241725
v 0.14248025 0.0415974 -0.09545445
v 0.140591 0.06574005 -0.090777275
v 0.1270155 -0.40242325 -0.15021225
v 0.1511955 -0.40237925 -0.1441375
v 0.078131875 -0.427488 -0.158854
v 0.1028674 -0.42735875 -0.15529925
v 0.2147215 -0.2540285 -0.102641275
v 0.21707275 -0.2784375 -0.10899015
v 0.16816325 -0.0079748575 -0.093167425
v 0.167122 0.0166984925 -0.0902497
v 0.067330025 0.06640605 -0.1021915
v 0.0406518 0.090213975 -0.097878
v 0.12741525 -0.42726025 -0.150658
v 0.17515125 -0.3526205 -0.137947
v 0.1980805 -0.32779375 -0.12792
v 0.1748725 -0.402351 -0.13649225
v 0.17502 -0.37751175 -0.13730975
v 0.23221125 -0.25489225 -0.086268625
v 0.22887725 -0.23095725 -0.07793185
v 0.2274655 -0.20737375 -0.071161075
v 0.192305 -0.057835575 -0.08758625
v 0.165556 0.04116375 -0.08631505
v 0.065209925 0.0911529 -0.09602125
v 0.151627 -0.42720525 -0.144599
v 0.2189385 -0.3031755 -0.11367575
v 0.228671 -0.18345375 -0.067472075
v 0.23213825 -0.13449375 -0.06312
v 0.23166275 -0.109736275 -0.060611675
v 0.2145605 -0.108055225 -0.078985375
v 0.191389 -0.03313375 -0.084766025
v 0.11398975 0.090145475 -0.090087875
v 0.089565 0.091051875 -0.093642225
v 0.1753465 -0.4271265 -0.13688975
v 0.198239 -0.35272425 -0.12840775
v 0.2200295 -0.32808725 -0.11623475
v 0.23574675 -0.279276 -0.093664725
v 0.230876 -0.15909475 -0.065297925
v 0.21371375 -0.08341075 -0.076164325
v 0.19017025 -0.0084723925 -0.081664575
v 0.1380005 0.088943175 -0.08363805
v 0.198067 -0.3775545 -0.127883
v 0.2402045 -0.328738 -0.102049625
v 0.23853425 -0.3039465 -0.09905435
v 0.16318675 0.065035875 -0.08070515
v 0.18843 0.0160459825 -0.077885225
v 0.06327635 0.1154755 -0.087636975
v 0.1978305 -0.4023075 -0.12703
v 0.2203575 -0.352939 -0.11698925
v 0.24133175 -0.2339835 -0.0566932
v 0.23800275 -0.21111 -0.0483395
v 0.22981325 -0.085078875 -0.05738165
v 0.18592175 0.040230875 -0.072865075
v 0.24644625 -0.2569395 -0.067453575
v 0.21243275 -0.05875515 -0.07289295
v 0.21086075 -0.034122175 -0.0693563
v 0.20873975 -0.0096584825 -0.0653421
v 0.21982875 -0.40230775 -0.115604
v 0.22014575 -0.377671 -0.11649425
v 0.19836725 -0.42697725 -0.1274185
v 0.25785925 -0.3299535 -0.08516255
v 0.25537525 -0.30544 -0.0820485
v 0.25142325 -0.28101 -0.0761745
v 0.23875325 -0.18693625 -0.0445969
v 0.241828 -0.16225975 -0.042583325
v 0.0876777 0.1146515 -0.08432395
v 0.1348765 0.110318325 -0.073184025
v 0.11183025 0.11264425 -0.080116525
v 0.24080475 -0.35338275 -0.1030201
v 0.25899 -0.26208675 -0.047420275
v 0.25186625 -0.24231775 -0.0343738
v 0.24060525 -0.37789375 -0.10259575
v 0.26478075 -0.284477 -0.057543375
v 0.20564325 0.0144979425 -0.060851825
v 0.27746275 -0.29013625 -0.03798615
v 0.271801 -0.27016575 -0.02701825
v 0.2402085 -0.4023805 -0.101722
v 0.26965275 -0.30821425 -0.063432375
f 9 300 857 303
f 3 301 857 300
f 6 302 857 301
f 1 303 857 302
f 6 304 858 302
f 16 305 858 304
f 4 306 858 305
f 1 302 858 306
f 4 307 859 306
f 7 308 859 307
f 2 309 859 308
f 1 306 859 309
f 2 310 860 309
f 8 311 860 310
f 9 303 860 311
f 1 309 860 303
f 7 312 861 308
f 11 313 861 312
f 5 314 861 313
f 2 308 861 314
f 5 315 862 314
f 12 316 862 315
f 8 310 862 316
f 2 314 862 310
f 17 317 863 320
f 19 318 863 317
f 13 319 863 318
f 3 320 863 319
f 13 321 864 319
f 15 322 864 321
f 6 301 864 322
f 3 319 864 301
f 9 323 865 300
f 18 324 865 323
f 17 320 865 324
f 3 300 865 320
f 16 325 866 305
f 25 326 866 325
f 14 327 866 326
f 4 305 866 327
f 14 328 867 327
f 10 329 867 328
f 7 307 867 329
f 4 327 867 307
f 11 330 868 313
f 23 331 868 330
f 22 332 868 331
f 5 313 868 332
f 22 333 869 332
f 33 334 869 333
f 12 315 869 334
f 5 332 869 315
f 15 335 870 322
f 26 336 870 335
f 16 304 870 336
f 6 322 870 304
f 10 337 871 329
f 20 338 871 337
f 11 312 871 338
f 7 329 871 312
f 21 339 872 340
f 18 323 872 339
f 9 311 872 323
f 8 340 872 311
f 12 341 873 316
f 37 342 873 341
f 21 340 873 342
f 8 316 873 340
f 14 343 874 328
f 36 344 874 343
f 29 345 874 344
f 10 328 874 345
f 29 346 875 345
f 28 347 875 346
f 20 337 875 347
f 10 345 875 337
f 20 348 876 338
f 39 349 876 348
f 23 330 876 349
f 11 338 876 330
f 33 350 877 334
f 48 351 877 350
f 37 341 877 351
f 12 334 877 341
f 19 352 878 318
f 45 353 878 352
f 34 354 878 353
f 13 318 878 354
f 34 355 879 354
f 49 356 879 355
f 15 321 879 356
f 13 354 879 321
f 25 357 880 326
f 35 358 880 357
f 36 343 880 358
f 14 326 880 343
f 49 359 881 356
f 54 360 881 359
f 26 335 881 360
f 15 356 881 335
f 26 361 882 336
f 43 362 882 361
f 25 325 882 362
f 16 336 882 325
f 27 363 883 365
f 24 364 883 363
f 19 317 883 364
f 17 365 883 317
f 18 366 884 324
f 30 367 884 366
f 27 365 884 367
f 17 324 884 365
f 21 368 885 339
f 31 369 885 368
f 30 366 885 369
f 18 339 885 366
f 24 370 886 364
f 44 371 886 370
f 45 352 886 371
f 19 364 886 352
f 28 372 887 347
f 46 373 887 372
f 39 348 887 373
f 20 347 887 348
f 37 374 888 342
f 38 375 888 374
f 31 368 888 375
f 21 342 888 368
f 23 376 889 331
f 32 377 889 376
f 40 378 889 377
f 22 331 889 378
f 40 379 890 378
f 42 380 890 379
f 33 333 890 380
f 22 378 890 333
f 39 381 891 349
f 72 382 891 381
f 32 376 891 382
f 23 349 891 376
f 43 383 892 362
f 55 384 892 383
f 35 357 892 384
f 25 362 892 357
f 54 385 893 360
f 66 386 893 385
f 43 361 893 386
f 26 360 893 361
f 29 387 894 346
f 58 388 894 387
f 59 389 894 388
f 28 346 894 389
f 59 390 895 389
f 71 391 895 390
f 46 372 895 391
f 28 389 895 372
f 36 392 896 344
f 68 393 896 392
f 58 387 896 393
f 29 344 896 387
f 38 394 897 375
f 70 395 897 394
f 60 396 897 395
f 31 375 897 396
f 72 397 898 382
f 64 398 898 397
f 41 399 898 398
f 32 382 898 399
f 41 400 899 399
f 47 401 899 400
f 40 377 899 401
f 32 399 899 377
f 42 402 900 380
f 52 403 900 402
f 48 350 900 403
f 33 380 900 350
f 45 404 901 353
f 81 405 901 404
f 67 406 901 405
f 34 353 901 406
f 67 407 902 406
f 79 408 902 407
f 49 355 902 408
f 34 406 902 355
f 55 409 903 384
f 93 410 903 409
f 57 411 903 410
f 35 384 903 411
f 57 412 904 411
f 68 392 904 412
f 36 358 904 392
f 35 411 904 358
f 48 413 905 351
f 53 414 905 413
f 38 374 905 414
f 37 351 905 374
f 53 415 906 414
f 77 416 906 415
f 70 394 906 416
f 38 414 906 394
f 46 417 907 373
f 73 418 907 417
f 72 381 907 418
f 39 373 907 381
f 47 419 908 401
f 61 420 908 419
f 42 379 908 420
f 40 401 908 379
f 64 421 909 398
f 63 422 909 421
f 50 423 909 422
f 41 398 909 423
f 50 424 910 423
f 51 425 910 424
f 47 400 910 425
f 41 423 910 400
f 61 426 911 420
f 65 427 911 426
f 52 402 911 427
f 42 420 911 402
f 66 428 912 386
f 115 429 912 428
f 55 383 912 429
f 43 386 912 383
f 56 430 913 431
f 81 404 913 430
f 45 371 913 404
f 44 431 913 371
f 71 432 914 391
f 108 433 914 432
f 73 417 914 433
f 46 391 914 417
f 51 434 915 425
f 84 435 915 434
f 61 419 915 435
f 47 425 915 419
f 52 436 916 403
f 89 437 916 436
f 53 413 916 437
f 48 403 916 413
f 79 438 917 408
f 78 439 917 438
f 54 359 917 439
f 49 408 917 359
f 63 440 918 422
f 86 441 918 440
f 74 442 918 441
f 50 422 918 442
f 74 443 919 442
f 62 444 919 443
f 51 424 919 444
f 50 442 919 424
f 62 445 920 444
f 100 446 920 445
f 84 434 920 446
f 51 444 920 434
f 65 447 921 427
f 87 448 921 447
f 89 436 921 448
f 52 427 921 436
f 89 449 922 437
f 114 450 922 449
f 77 415 922 450
f 53 437 922 415
f 78 451 923 439
f 90 452 923 451
f 66 385 923 452
f 54 439 923 385
f 115 453 924 429
f 130 454 924 453
f 93 409 924 454
f 55 429 924 409
f 294 455 925 457
f 92 456 925 455
f 81 430 925 456
f 56 457 925 430
f 93 458 926 410
f 117 459 926 458
f 106 460 926 459
f 57 410 926 460
f 106 461 927 460
f 119 462 927 461
f 68 412 927 462
f 57 460 927 412
f 68 462 928 393
f 119 463 928 462
f 82 464 928 463
f 58 393 928 464
f 82 465 929 464
f 69 466 929 465
f 59 388 929 466
f 58 464 929 388
f 69 467 930 466
f 120 468 930 467
f 71 390 930 468
f 59 466 930 390
f 84 469 931 435
f 75 470 931 469
f 65 426 931 470
f 61 435 931 426
f 74 471 932 443
f 83 472 932 471
f 85 473 932 472
f 62 443 932 473
f 85 474 933 473
f 99 475 933 474
f 100 445 933 475
f 62 473 933 445
f 64 476 934 421
f 95 477 934 476
f 94 478 934 477
f 63 421 934 478
f 94 479 935 478
f 109 480 935 479
f 86 440 935 480
f 63 478 935 440
f 72 418 936 397
f 73 481 936 418
f 95 476 936 481
f 64 397 936 476
f 75 482 937 470
f 76 483 937 482
f 87 447 937 483
f 65 470 937 447
f 90 484 938 452
f 127 485 938 484
f 115 428 938 485
f 66 452 938 428
f 81 456 939 405
f 92 486 939 456
f 80 487 939 486
f 67 405 939 487
f 80 488 940 487
f 105 489 940 488
f 79 407 940 489
f 67 487 940 407
f 82 490 941 465
f 118 491 941 490
f 107 492 941 491
f 69 465 941 492
f 107 493 942 492
f 147 494 942 493
f 120 467 942 494
f 69 492 942 467
f 120 495 943 468
f 131 496 943 495
f 108 432 943 496
f 71 468 943 432
f 108 497 944 433
f 122 498 944 497
f 95 481 944 498
f 73 433 944 481
f 86 499 945 441
f 102 500 945 499
f 83 471 945 500
f 74 441 945 471
f 84 446 946 469
f 100 501 946 446
f 97 502 946 501
f 75 469 946 502
f 97 503 947 502
f 88 504 947 503
f 76 482 947 504
f 75 502 947 482
f 79 489 948 438
f 105 505 948 489
f 116 506 948 505
f 78 438 948 506
f 116 507 949 506
f 128 508 949 507
f 90 451 949 508
f 78 506 949 451
f 92 509 950 486
f 104 510 950 509
f 91 511 950 510
f 80 486 950 511
f 91 512 951 511
f 143 513 951 512
f 105 488 951 513
f 80 511 951 488
f 119 514 952 463
f 146 515 952 514
f 118 490 952 515
f 82 463 952 490
f 102 516 953 500
f 96 517 953 516
f 112 518 953 517
f 83 500 953 518
f 112 519 954 518
f 98 520 954 519
f 85 472 954 520
f 83 518 954 472
f 98 521 955 520
f 125 522 955 521
f 99 474 955 522
f 85 520 955 474
f 109 523 956 480
f 101 524 956 523
f 102 499 956 524
f 86 480 956 499
f 97 525 957 503
f 113 526 957 525
f 103 527 957 526
f 88 503 957 527
f 128 528 958 508
f 142 529 958 528
f 127 484 958 529
f 90 508 958 484
f 104 530 959 510
f 144 531 959 530
f 129 532 959 531
f 91 510 959 532
f 129 533 960 532
f 168 534 960 533
f 143 512 960 534
f 91 532 960 512
f 130 535 961 454
f 156 536 961 535
f 117 458 961 536
f 93 454 961 458
f 95 498 962 477
f 122 537 962 498
f 121 538 962 537
f 94 477 962 538
f 121 539 963 538
f 123 540 963 539
f 109 479 963 540
f 94 538 963 479
f 102 524 964 516
f 101 541 964 524
f 138 542 964 541
f 96 516 964 542
f 138 543 965 542
f 126 544 965 543
f 110 545 965 544
f 96 542 965 545
f 110 546 966 545
f 111 547 966 546
f 112 517 966 547
f 96 545 966 517
f 100 475 967 501
f 99 548 967 475
f 113 525 967 548
f 97 501 967 525
f 112 547 968 519
f 111 549 968 547
f 124 550 968 549
f 98 519 968 550
f 124 551 969 550
f 149 552 969 551
f 125 521 969 552
f 98 550 969 521
f 125 553 970 522
f 136 554 970 553
f 113 548 970 554
f 99 522 970 548
f 109 540 971 523
f 123 555 971 540
f 137 556 971 555
f 101 523 971 556
f 137 557 972 556
f 152 558 972 557
f 138 541 972 558
f 101 556 972 541
f 113 554 973 526
f 136 559 973 554
f 141 560 973 559
f 103 526 973 560
f 143 561 974 513
f 155 562 974 561
f 116 505 974 562
f 105 513 974 505
f 117 563 975 459
f 171 564 975 563
f 158 565 975 564
f 106 459 975 565
f 158 566 976 565
f 146 514 976 566
f 119 461 976 514
f 106 565 976 461
f 118 567 977 491
f 145 568 977 567
f 157 569 977 568
f 107 491 977 569
f 157 570 978 569
f 173 571 978 570
f 147 493 978 571
f 107 569 978 493
f 131 572 979 496
f 133 573 979 572
f 122 497 979 573
f 108 496 979 497
f 126 574 980 544
f 139 575 980 574
f 134 576 980 575
f 110 544 980 576
f 134 577 981 576
f 148 578 981 577
f 111 546 981 578
f 110 576 981 546
f 148 579 982 578
f 135 580 982 579
f 124 549 982 580
f 111 578 982 549
f 127 581 983 485
f 153 582 983 581
f 130 453 983 582
f 115 485 983 453
f 155 583 984 562
f 154 584 984 583
f 128 507 984 584
f 116 562 984 507
f 156 585 985 536
f 192 586 985 585
f 171 563 985 586
f 117 536 985 563
f 146 587 986 515
f 181 588 986 587
f 145 567 986 588
f 118 515 986 567
f 147 589 987 494
f 174 590 987 589
f 131 495 987 590
f 120 494 987 495
f 122 573 988 537
f 133 591 988 573
f 132 592 988 591
f 121 537 988 592
f 132 593 989 592
f 161 594 989 593
f 123 539 989 594
f 121 592 989 539
f 161 595 990 594
f 160 596 990 595
f 137 555 990 596
f 123 594 990 555
f 135 597 991 580
f 150 598 991 597
f 149 551 991 598
f 124 580 991 551
f 149 599 992 552
f 151 600 992 599
f 136 553 992 600
f 125 552 992 553
f 138 558 993 543
f 152 601 993 558
f 165 602 993 601
f 126 543 993 602
f 165 603 994 602
f 188 604 994 603
f 139 574 994 604
f 126 602 994 574
f 142 605 995 529
f 167 606 995 605
f 153 581 995 606
f 127 529 995 581
f 154 607 996 584
f 179 608 996 607
f 142 528 996 608
f 128 584 996 528
f 170 609 997 611
f 169 610 997 609
f 168 533 997 610
f 129 611 997 533
f 153 612 998 582
f 191 613 998 612
f 156 535 998 613
f 130 582 998 535
f 174 614 999 590
f 159 615 999 614
f 133 572 999 615
f 131 590 999 572
f 133 615 1000 591
f 159 616 1000 615
f 175 617 1000 616
f 132 591 1000 617
f 175 618 1001 617
f 197 619 1001 618
f 161 593 1001 619
f 132 617 1001 593
f 139 620 1002 575
f 166 621 1002 620
f 185 622 1002 621
f 134 575 1002 622
f 185 623 1003 622
f 186 624 1003 623
f 148 577 1003 624
f 134 622 1003 577
f 148 624 1004 579
f 186 625 1004 624
f 162 626 1004 625
f 135 579 1004 626
f 162 627 1005 626
f 163 628 1005 627
f 150 597 1005 628
f 135 626 1005 597
f 151 629 1006 600
f 140 630 1006 629
f 141 559 1006 630
f 136 600 1006 559
f 160 631 1007 596
f 184 632 1007 631
f 152 557 1007 632
f 137 596 1007 557
f 188 633 1008 604
f 176 634 1008 633
f 166 620 1008 634
f 139 604 1008 620
f 179 635 1009 608
f 178 636 1009 635
f 167 605 1009 636
f 142 608 1009 605
f 168 637 1010 534
f 190 638 1010 637
f 155 561 1010 638
f 143 534 1010 561
f 181 639 1011 588
f 195 640 1011 639
f 196 641 1011 640
f 145 588 1011 641
f 196 642 1012 641
f 204 643 1012 642
f 157 568 1012 643
f 145 641 1012 568
f 158 644 1013 566
f 182 645 1013 644
f 181 587 1013 645
f 146 566 1013 587
f 173 646 1014 571
f 172 647 1014 646
f 174 589 1014 647
f 147 571 1014 589
f 150 648 1015 598
f 164 649 1015 648
f 151 599 1015 649
f 149 598 1015 599
f 163 650 1016 628
f 177 651 1016 650
f 164 648 1016 651
f 150 628 1016 648
f 184 652 1017 632
f 183 653 1017 652
f 165 601 1017 653
f 152 632 1017 601
f 167 654 1018 606
f 201 655 1018 654
f 191 612 1018 655
f 153 606 1018 612
f 155 638 1019 583
f 190 656 1019 638
f 180 657 1019 656
f 154 583 1019 657
f 180 658 1020 657
f 189 659 1020 658
f 179 607 1020 659
f 154 657 1020 607
f 191 660 1021 613
f 211 661 1021 660
f 192 585 1021 661
f 156 613 1021 585
f 204 662 1022 643
f 214 663 1022 662
f 173 570 1022 663
f 157 643 1022 570
f 171 664 1023 564
f 203 665 1023 664
f 182 644 1023 665
f 158 564 1023 644
f 174 647 1024 614
f 172 666 1024 647
f 206 667 1024 666
f 159 614 1024 667
f 206 668 1025 667
f 216 669 1025 668
f 175 616 1025 669
f 159 667 1025 616
f 161 619 1026 595
f 197 670 1026 619
f 207 671 1026 670
f 160 595 1026 671
f 207 672 1027 671
f 217 673 1027 672
f 184 631 1027 673
f 160 671 1027 631
f 186 674 1028 625
f 199 675 1028 674
f 187 676 1028 675
f 162 625 1028 676
f 187 677 1029 676
f 200 678 1029 677
f 163 627 1029 678
f 162 676 1029 627
f 183 679 1030 653
f 198 680 1030 679
f 188 603 1030 680
f 165 653 1030 603
f 176 681 1031 634
f 218 682 1031 681
f 208 683 1031 682
f 166 634 1031 683
f 208 684 1032 683
f 209 685 1032 684
f 185 621 1032 685
f 166 683 1032 621
f 178 686 1033 636
f 193 687 1033 686
f 201 654 1033 687
f 167 636 1033 654
f 169 688 1034 610
f 194 689 1034 688
f 190 637 1034 689
f 168 610 1034 637
f 192 690 1035 586
f 212 691 1035 690
f 203 664 1035 691
f 171 586 1035 664
f 173 663 1036 646
f 214 692 1036 663
f 215 693 1036 692
f 172 646 1036 693
f 215 694 1037 693
f 205 695 1037 694
f 206 666 1037 695
f 172 693 1037 666
f 216 696 1038 669
f 236 697 1038 696
f 197 618 1038 697
f 175 669 1038 618
f 188 680 1039 633
f 198 698 1039 680
f 223 699 1039 698
f 176 633 1039 699
f 223 700 1040 699
f 238 701 1040 700
f 218 681 1040 701
f 176 699 1040 681
f 179 659 1041 635
f 189 702 1041 659
f 202 703 1041 702
f 178 635 1041 703
f 202 704 1042 703
f 210 705 1042 704
f 193 686 1042 705
f 178 703 1042 686
f 190 689 1043 656
f 194 706 1043 689
f 220 707 1043 706
f 180 656 1043 707
f 220 708 1044 707
f 221 709 1044 708
f 189 658 1044 709
f 180 707 1044 658
f 182 710 1045 645
f 213 711 1045 710
f 195 639 1045 711
f 181 645 1045 639
f 203 712 1046 665
f 230 713 1046 712
f 213 710 1046 713
f 182 665 1046 710
f 184 673 1047 652
f 217 714 1047 673
f 224 715 1047 714
f 183 652 1047 715
f 224 716 1048 715
f 233 717 1048 716
f 198 679 1048 717
f 183 715 1048 679
f 209 718 1049 685
f 199 674 1049 718
f 186 623 1049 674
f 185 685 1049 623
f 199 719 1050 675
f 225 720 1050 719
f 226 721 1050 720
f 187 675 1050 721
f 221 722 1051 709
f 228 723 1051 722
f 202 702 1051 723
f 189 709 1051 702
f 201 724 1052 655
f 219 725 1052 724
f 211 660 1052 725
f 191 655 1052 660
f 211 726 1053 661
f 229 727 1053 726
f 212 690 1053 727
f 192 661 1053 690
f 210 728 1054 705
f 242 729 1054 728
f 227 730 1054 729
f 193 705 1054 730
f 227 731 1055 730
f 219 724 1055 731
f 201 687 1055 724
f 193 730 1055 687
f 213 732 1056 711
f 244 733 1056 732
f 234 734 1056 733
f 195 711 1056 734
f 234 735 1057 734
f 231 736 1057 735
f 196 640 1057 736
f 195 734 1057 640
f 231 737 1058 736
f 245 738 1058 737
f 204 642 1058 738
f 196 736 1058 642
f 236 739 1059 697
f 248 740 1059 739
f 207 670 1059 740
f 197 697 1059 670
f 233 741 1060 717
f 249 742 1060 741
f 223 698 1060 742
f 198 717 1060 698
f 209 743 1061 718
f 250 744 1061 743
f 225 719 1061 744
f 199 718 1061 719
f 228 745 1062 723
f 241 746 1062 745
f 210 704 1062 746
f 202 723 1062 704
f 212 747 1063 691
f 222 748 1063 747
f 230 712 1063 748
f 203 691 1063 712
f 245 749 1064 738
f 246 750 1064 749
f 214 662 1064 750
f 204 738 1064 662
f 215 751 1065 694
f 259 752 1065 751
f 260 753 1065 752
f 205 694 1065 753
f 260 754 1066 753
f 267 755 1066 754
f 232 756 1066 755
f 205 753 1066 756
f 232 757 1067 756
f 216 668 1067 757
f 206 695 1067 668
f 205 756 1067 695
f 248 758 1068 740
f 237 759 1068 758
f 217 672 1068 759
f 207 740 1068 672
f 218 760 1069 682
f 251 761 1069 760
f 256 762 1069 761
f 208 682 1069 762
f 256 763 1070 762
f 250 743 1070 763
f 209 684 1070 743
f 208 762 1070 684
f 241 764 1071 746
f 265 765 1071 764
f 242 728 1071 765
f 210 746 1071 728
f 219 766 1072 725
f 240 767 1072 766
f 229 726 1072 767
f 211 725 1072 726
f 229 768 1073 727
f 253 769 1073 768
f 222 747 1073 769
f 212 727 1073 747
f 230 770 1074 713
f 252 771 1074 770
f 244 732 1074 771
f 213 713 1074 732
f 246 772 1075 750
f 259 751 1075 772
f 215 692 1075 751
f 214 750 1075 692
f 232 773 1076 757
f 235 774 1076 773
f 236 696 1076 774
f 216 757 1076 696
f 237 775 1077 759
f 261 776 1077 775
f 224 714 1077 776
f 217 759 1077 714
f 238 777 1078 701
f 263 778 1078 777
f 251 760 1078 778
f 218 701 1078 760
f 227 779 1079 731
f 239 780 1079 779
f 240 766 1079 780
f 219 731 1079 766
f 253 781 1080 769
f 273 782 1080 781
f 243 783 1080 782
f 222 769 1080 783
f 243 784 1081 783
f 252 770 1081 784
f 230 748 1081 770
f 222 783 1081 748
f 249 785 1082 742
f 277 786 1082 785
f 238 700 1082 786
f 223 742 1082 700
f 261 787 1083 776
f 269 788 1083 787
f 233 716 1083 788
f 224 776 1083 716
f 250 789 1084 744
f 270 790 1084 789
f 262 791 1084 790
f 225 744 1084 791
f 242 792 1085 729
f 264 793 1085 792
f 239 779 1085 793
f 227 729 1085 779
f 240 794 1086 767
f 257 795 1086 794
f 253 768 1086 795
f 229 767 1086 768
f 234 796 1087 735
f 254 797 1087 796
f 275 798 1087 797
f 231 735 1087 798
f 275 799 1088 798
f 276 800 1088 799
f 245 737 1088 800
f 231 798 1088 737
f 267 801 1089 755
f 285 802 1089 801
f 235 773 1089 802
f 232 755 1089 773
f 269 803 1090 788
f 278 804 1090 803
f 249 741 1090 804
f 233 788 1090 741
f 244 805 1091 733
f 258 806 1091 805
f 254 796 1091 806
f 234 733 1091 796
f 247 807 1092 808
f 248 739 1092 807
f 236 774 1092 739
f 235 808 1092 774
f 248 807 1093 758
f 247 809 1093 807
f 255 810 1093 809
f 237 758 1093 810
f 255 811 1094 810
f 268 812 1094 811
f 261 775 1094 812
f 237 810 1094 775
f 264 813 1095 793
f 286 814 1095 813
f 271 815 1095 814
f 239 793 1095 815
f 271 816 1096 815
f 257 794 1096 816
f 240 780 1096 794
f 239 815 1096 780
f 265 817 1097 765
f 282 818 1097 817
f 264 792 1097 818
f 242 765 1097 792
f 273 819 1098 782
f 287 820 1098 819
f 283 821 1098 820
f 243 782 1098 821
f 283 822 1099 821
f 272 823 1099 822
f 252 784 1099 823
f 243 821 1099 784
f 252 823 1100 771
f 272 824 1100 823
f 258 805 1100 824
f 244 771 1100 805
f 276 825 1101 800
f 290 826 1101 825
f 246 749 1101 826
f 245 800 1101 749
f 290 827 1102 826
f 291 828 1102 827
f 259 772 1102 828
f 246 826 1102 772
f 256 829 1103 763
f 280 830 1103 829
f 270 789 1103 830
f 250 763 1103 789
f 263 831 1104 778
f 292 832 1104 831
f 279 833 1104 832
f 251 778 1104 833
f 279 834 1105 833
f 280 829 1105 834
f 256 761 1105 829
f 251 833 1105 761
f 257 835 1106 795
f 274 836 1106 835
f 273 781 1106 836
f 253 795 1106 781
f 258 837 1107 806
f 266 838 1107 837
f 284 839 1107 838
f 254 806 1107 839
f 284 840 1108 839
f 299 841 1108 840
f 275 797 1108 841
f 254 839 1108 797
f 271 842 1109 816
f 281 843 1109 842
f 274 835 1109 843
f 257 816 1109 835
f 272 844 1110 824
f 288 845 1110 844
f 266 837 1110 845
f 258 824 1110 837
f 268 846 1111 812
f 293 847 1111 846
f 269 787 1111 847
f 261 812 1111 787
f 288 848 1112 845
f 297 849 1112 848
f 296 850 1112 849
f 266 845 1112 850
f 296 851 1113 850
f 289 852 1113 851
f 284 838 1113 852
f 266 850 1113 838
f 286 853 1114 814
f 295 854 1114 853
f 281 842 1114 854
f 271 814 1114 842
f 283 855 1115 822
f 298 856 1115 855
f 288 844 1115 856
f 272 822 1115 844
