# https://github.com/mikedh/trimesh
v -0.31831700 -0.34599000 0.04699300
v -0.32087600 -0.44447351 0.01025450
v -0.23540901 -0.20468700 -0.01697800
v -0.23616925 -0.20228550 -0.01976325
v -0.23722450 -0.19976450 -0.02579900
v -0.23724650 -0.20670875 -0.03292625
v -0.23820351 -0.21616324 -0.02950165
v -0.23678755 -0.20634246 -0.02439294
v -0.23699801 -0.21384300 -0.02125100
v -0.23811600 -0.21473899 -0.03492000
v -0.23757700 -0.21820901 -0.01856450
v -0.23876543 -0.21839513 -0.02546099
v -0.24114628 -0.22475519 -0.02559006
v -0.24171635 -0.22545307 -0.02975918
v -0.24386101 -0.23114100 -0.01737450
v -0.24392581 -0.23055197 -0.02238844
v -0.25651425 -0.24772576 -0.01214300
v -0.25193623 -0.24237204 -0.01592058
v -0.25063003 -0.24079864 -0.02517932
v -0.25107708 -0.24283772 -0.03268620
v -0.26587901 -0.25843799 -0.01115100
v -0.26975750 -0.26359749 -0.01268050
v -0.26511772 -0.25934095 -0.01928162
v -0.25794273 -0.25437121 -0.03489029
v -0.24743887 -0.23819643 -0.03843219
v -0.29997849 -0.29118149 0.02076100
v -0.27752097 -0.27882611 -0.02316113
v -0.29604801 -0.29659309 -0.00044775
v -0.30948550 -0.30769350 0.02665375
v -0.24219701 -0.23098899 -0.04456100
v -0.24760774 -0.24900298 -0.05425671
v -0.24135275 -0.23360750 -0.05063300
v -0.27122704 -0.28711403 -0.04855068
v -0.26236853 -0.27314514 -0.05116038
v -0.26655452 -0.29544746 -0.06327793
v -0.24314700 -0.24388200 -0.05824700
v -0.29017127 -0.30263258 -0.02149872
v -0.30137661 -0.32170639 -0.00870594
v -0.28622396 -0.31220755 -0.03845650
v -0.30497654 -0.30594601 0.01340021
v -0.25968726 -0.30660950 -0.07941014
v -0.24171975 -0.22664125 -0.03785275
v -0.31736901 -0.36014199 0.04453500
v -0.31426900 -0.37443300 0.02336075
v -0.30919300 -0.41590449 0.00149550
v -0.30846050 -0.40098693 -0.00074611
v -0.30768065 -0.41106314 -0.00553832
v -0.31728650 -0.35689717 0.03146482
v -0.31114034 -0.35901431 0.00535414
v -0.31270612 -0.35723641 0.01153275
v -0.30926881 -0.38311678 -0.00025807
v -0.30439680 -0.40389237 -0.01848015
v -0.31698400 -0.33611823 0.03191186
v -0.30483819 -0.41790758 -0.02066296
v -0.30989440 -0.35530198 0.00185539
v -0.29891351 -0.37557892 -0.03215962
v -0.30373517 -0.37454920 -0.01915329
v -0.30784899 -0.33928499 0.00007000
v -0.31025296 -0.33592724 0.00841675
v -0.30979271 -0.34217737 0.00433341
v -0.30775449 -0.33140342 0.00319409
v -0.29195748 -0.32487970 -0.03334188
v -0.29923913 -0.33567340 -0.02147093
v -0.29547537 -0.35385299 -0.03668305
v -0.30191414 -0.35115313 -0.02010154
v -0.29473824 -0.37923485 -0.04209955
v -0.28920470 -0.40819508 -0.05599884
v -0.28037234 -0.37018962 -0.06727174
v -0.28603580 -0.36732446 -0.05765641
v -0.28099757 -0.35413890 -0.06374784
v -0.26500539 -0.35542986 -0.08657022
v -0.27513393 -0.37639039 -0.07541319
v -0.26131120 -0.36760811 -0.09160429
v -0.27266338 -0.39647925 -0.08009827
v -0.26500121 -0.40348894 -0.08975111
v -0.26664294 -0.41889611 -0.08947991
v -0.27492548 -0.41592280 -0.07904520
v -0.26618631 -0.38544957 -0.08728132
v -0.26344351 -0.31491352 -0.07777248
v -0.28307593 -0.37901976 -0.06387477
v -0.28540139 -0.36118801 -0.05756642
v -0.28847373 -0.34603715 -0.04905246
v -0.28657814 -0.32881633 -0.04655458
v -0.27724167 -0.34144192 -0.06664981
v -0.28353166 -0.41571809 -0.06671634
v -0.30405952 -0.35867768 -0.01620983
v -0.29641801 -0.40894474 -0.04161591
v -0.30495543 -0.37447007 -0.01532671
v -0.30572621 -0.40172588 -0.01333099
v -0.28824257 -0.42029147 -0.06007964
v -0.29842040 -0.41186766 -0.03721908
v -0.29515144 -0.42344920 -0.04845464
v -0.30307327 -0.41709414 -0.02622021
v -0.29049700 -0.42248699 -0.05689300
v -0.27211658 -0.31169656 -0.06373010
v -0.28841329 -0.43101537 -0.06415115
v -0.26767692 -0.31582462 -0.07331711
v -0.27552099 -0.44293948 -0.08752858
v -0.30279584 -0.43266142 -0.03820440
v -0.29927047 -0.43652899 -0.04962110
v -0.30438193 -0.43541328 -0.03751824
v -0.30722624 -0.42911915 -0.02260568
v -0.31391368 -0.32827170 0.02248476
v -0.30060400 -0.45480401 -0.05761300
v -0.29375740 -0.45086503 -0.06767541
v -0.29571199 -0.45637599 -0.06584800
v -0.31570350 -0.44953750 -0.02251450
v -0.29154599 -0.45439500 -0.07144200
v -0.31303450 -0.31317125 0.03407175
v -0.31078249 -0.45051201 -0.03565000
v -0.28615850 -0.45765150 -0.07929100
v -0.28469511 -0.45149455 -0.08046811
v -0.31617400 -0.44761801 -0.01898000
v -0.31760874 -0.33257413 0.04196450
v -0.30828032 -0.42127337 -0.00892151
v -0.27722326 -0.41915022 -0.07634588
v -0.26278800 -0.33533001 -0.08460500
v -0.25483337 -0.32769204 -0.09193813
v -0.25773525 -0.28460075 -0.06832425
v -0.24582625 -0.29281000 -0.08840025
v -0.26867270 -0.42861572 -0.08918722
v -0.27640349 -0.45952250 -0.09084500
v -0.31509184 -0.44251768 -0.01602949
v -0.31900975 -0.44877975 -0.01038100
v -0.31172038 -0.42906547 -0.00249918
v -0.30994201 -0.42224500 -0.00074500
v -0.26075417 -0.42499636 -0.09648901
v -0.25895737 -0.43495600 -0.10086226
v -0.31306701 -0.42910449 0.00590850
v -0.30977499 -0.41985700 0.00172300
v -0.31140277 -0.43155580 -0.00991666
v -0.24295190 -0.32383140 -0.10285854
v -0.25711337 -0.42793689 -0.10076830
v -0.24976797 -0.43585623 -0.10935410
v -0.31979699 -0.44485854 0.00050348
v -0.22106815 -0.32484598 -0.11917676
v -0.22249600 -0.31905901 -0.11687100
v -0.23079935 -0.34241844 -0.11554896
v -0.22542900 -0.31519300 -0.11389200
v -0.23645958 -0.32418159 -0.10801139
v -0.22937700 -0.31666899 -0.11142500
v -0.23495999 -0.31209600 -0.10578500
v -0.24751304 -0.36533053 -0.10495899
v -0.24034129 -0.36484627 -0.11075104
v -0.25553358 -0.34748104 -0.09522261
v -0.24701583 -0.37727136 -0.10600590
v -0.25216291 -0.39000464 -0.10195764
v -0.24186700 -0.30539150 -0.09768575
v -0.25079737 -0.34942847 -0.10021085
v -0.25680317 -0.40724527 -0.09837872
v -0.22952770 -0.40119753 -0.12015852
v -0.23045661 -0.38001850 -0.11886157
v -0.23016759 -0.33304840 -0.11427165
v -0.22087000 -0.34043100 -0.12165200
v -0.22445076 -0.36310224 -0.12192549
v -0.21583882 -0.37388908 -0.12771823
v -0.21330788 -0.36021172 -0.12831012
v -0.21160649 -0.33442020 -0.12664139
v -0.21630062 -0.41152941 -0.12874965
v -0.23161883 -0.41731207 -0.11955441
v -0.22055584 -0.37957964 -0.12514510
v -0.23689602 -0.37200462 -0.11389176
v -0.22182278 -0.41744412 -0.12587896
v -0.23098173 -0.42534748 -0.12108879
v -0.22730332 -0.41946189 -0.12262197
v -0.25030699 -0.41276199 -0.10478700
v -0.23527505 -0.43452950 -0.11997230
v -0.24759933 -0.41970166 -0.10774928
v -0.22203800 -0.42893401 -0.12734191
v -0.22072405 -0.44037693 -0.13066781
v -0.24325808 -0.44843932 -0.11797696
v -0.23153400 -0.45001351 -0.12624522
v -0.23036900 -0.45432499 -0.12771200
v -0.26101785 -0.45336384 -0.10518498
v -0.24810199 -0.45650899 -0.11584500
v -0.24363000 -0.45412750 -0.11878450
v -0.26994227 -0.46074014 -0.09747956
v -0.25894050 -0.46205149 -0.10747525
v -0.21226024 -0.42233758 -0.13199217
v -0.21946580 -0.45058116 -0.13357430
v -0.20711467 -0.36970342 -0.13217258
v -0.17916163 -0.40038443 -0.14517914
v -0.17099202 -0.37082339 -0.14722316
v -0.16831374 -0.36311071 -0.14771964
v -0.16550758 -0.37714206 -0.14912219
v -0.13315317 -0.37160649 -0.15715316
v -0.14079067 -0.37033230 -0.15555022
v -0.16019428 -0.36399389 -0.15035000
v -0.16908052 -0.34752197 -0.14649710
v -0.18107764 -0.36644392 -0.14352285
v -0.19954930 -0.36743062 -0.13587374
v -0.18796008 -0.33846735 -0.13846767
v -0.18990313 -0.38974258 -0.14069533
v -0.20617924 -0.32649050 -0.12805150
v -0.19535870 -0.35122976 -0.13661474
v -0.21213101 -0.34747192 -0.12788078
v -0.11337254 -0.37090129 -0.16045601
v -0.10892260 -0.40861583 -0.16157968
v -0.10667504 -0.38442272 -0.16158257
v -0.08440433 -0.38733907 -0.16381397
v -0.09139652 -0.37634828 -0.16326996
v -0.06380969 -0.37663772 -0.16520970
v -0.04139800 -0.36156100 -0.16588300
v -0.06882332 -0.35778709 -0.16469644
v -0.12474973 -0.36238633 -0.15846825
v -0.09388615 -0.35740026 -0.16258413
v -0.05008050 -0.34587550 -0.16508600
v -0.06306754 -0.35352193 -0.16500426
v -0.05643850 -0.33318201 -0.16389500
v -0.08248745 -0.34705667 -0.16311368
v -0.06828012 -0.33083318 -0.16296374
v -0.08755857 -0.33500985 -0.16172216
v -0.06220932 -0.33301274 -0.16356102
v -0.05290600 -0.32482100 -0.16327000
v -0.06960081 -0.32668620 -0.16247594
v -0.10215583 -0.34253607 -0.16061253
v -0.10899665 -0.35467511 -0.16046920
v -0.11742922 -0.33317297 -0.15743788
v -0.14142730 -0.35872242 -0.15490311
v -0.15389775 -0.34696770 -0.15108131
v -0.15453766 -0.33799689 -0.15007096
v -0.16570000 -0.32609001 -0.14504500
v -0.17557317 -0.33763261 -0.14330310
v -0.17743025 -0.33040875 -0.14148450
v -0.13742495 -0.34193461 -0.15456433
v -0.13436250 -0.33077851 -0.15385050
v -0.09982100 -0.32583750 -0.15908400
v -0.08407600 -0.31893501 -0.16004100
v -0.06576500 -0.31412799 -0.16097150
v -0.04326350 -0.35551551 -0.16572201
v -0.04148930 -0.38448725 -0.16572828
v -0.03994800 -0.37177050 -0.16590951
v -0.03259150 -0.39428650 -0.16558600
v -0.03058300 -0.41027149 -0.16544050
v -0.03510566 -0.42023256 -0.16570386
v -0.04668750 -0.40558115 -0.16544221
v -0.05854042 -0.41557338 -0.16540176
v -0.04109266 -0.42950212 -0.16630323
v -0.01848000 -0.42525399 -0.16562000
v -0.05991567 -0.43531715 -0.16668578
v -0.06585675 -0.44012100 -0.16694950
v -0.09623575 -0.44619825 -0.16616075
v -0.12264241 -0.42952092 -0.16139964
v -0.12386221 -0.44335205 -0.16323641
v -0.14401150 -0.45140099 -0.16077000
v -0.15442100 -0.44820898 -0.15820984
v -0.17015904 -0.45135051 -0.15447336
v -0.15917406 -0.43220902 -0.15413223
v -0.16315700 -0.45214425 -0.15630200
v -0.17287184 -0.43489241 -0.15038504
v -0.13122431 -0.42720248 -0.15979869
v -0.08207095 -0.43670950 -0.16623724
v -0.10406616 -0.44223575 -0.16532144
v -0.07028399 -0.41509341 -0.16503758
v -0.08252027 -0.41023347 -0.16423321
v -0.10363487 -0.42463415 -0.16321912
v -0.07883742 -0.39912967 -0.16423713
v -0.08692524 -0.40534165 -0.16374561
v -0.11193100 -0.41249299 -0.16133000
v -0.12461365 -0.41258309 -0.15946163
v -0.13841037 -0.41093154 -0.15687337
v -0.15223029 -0.38717334 -0.15312398
v -0.15851869 -0.41002491 -0.15200971
v -0.17283950 -0.41078946 -0.14775892
v -0.18711185 -0.41777594 -0.14280895
v -0.20422510 -0.42500444 -0.13618833
v -0.20269365 -0.41708212 -0.13603660
v -0.20952361 -0.41137772 -0.13240007
v -0.09415274 -0.42601160 -0.16424641
v -0.18641400 -0.33102399 -0.13805000
v -0.16639425 -0.42117662 -0.15045376
v -0.18336200 -0.42513144 -0.14506158
v -0.15041440 -0.41707572 -0.15447109
v -0.17461393 -0.42554210 -0.14825440
v -0.18354050 -0.45333925 -0.15001350
v -0.19278075 -0.42982173 -0.14204087
v -0.14841811 -0.42295806 -0.15553447
v -0.19444799 -0.45535100 -0.14601099
v -0.18600462 -0.44772189 -0.14842686
v -0.19792505 -0.44008489 -0.14187329
v -0.20076466 -0.45205405 -0.14305104
v -0.21164697 -0.42840120 -0.13314505
v -0.20162000 -0.45489600 -0.14287899
v -0.12643650 -0.45020425 -0.16351550
v -0.26841600 -0.46279150 -0.09889300
f 43 48 1
f 48 43 44
f 114 1 48
f 114 48 53
f 109 114 53
f 53 103 109
f 109 103 29
f 29 103 40
f 40 103 61
f 103 59 61
f 103 60 59
f 103 55 60
f 49 55 103
f 103 50 49
f 103 48 50
f 50 48 49
f 48 51 49
f 51 89 49
f 49 89 88
f 88 89 52
f 52 89 54
f 89 47 54
f 46 47 89
f 48 46 89
f 48 45 46
f 45 47 46
f 47 45 115
f 130 115 45
f 130 126 115
f 126 125 115
f 126 129 125
f 129 135 125
f 2 135 129
f 2 124 135
f 123 135 124
f 123 124 113
f 113 107 123
f 123 107 110
f 110 100 123
f 101 123 100
f 102 123 101
f 131 123 102
f 125 123 131
f 115 131 102
f 115 102 54
f 102 101 54
f 54 101 99
f 54 99 100
f 93 54 100
f 93 100 91
f 91 100 92
f 92 100 96
f 100 112 96
f 105 112 100
f 112 105 111
f 112 111 122
f 112 122 177
f 122 285 177
f 174 177 285
f 285 178 174
f 174 178 175
f 176 174 175
f 171 174 176
f 171 176 173
f 172 171 173
f 172 173 180
f 281 180 173
f 266 180 281
f 266 281 280
f 280 281 279
f 279 281 275
f 281 278 275
f 278 281 283
f 247 279 275
f 250 279 247
f 250 274 279
f 274 276 279
f 272 276 274
f 265 276 272
f 265 266 276
f 182 266 265
f 182 193 266
f 267 266 193
f 266 267 179
f 267 268 179
f 268 159 179
f 191 159 268
f 191 268 193
f 191 193 190
f 191 190 195
f 195 181 191
f 196 181 195
f 158 196 195
f 158 154 196
f 154 138 196
f 196 138 155
f 155 157 196
f 157 155 161
f 156 157 161
f 156 161 159
f 161 160 159
f 161 151 160
f 161 152 151
f 152 160 151
f 152 168 160
f 160 168 164
f 168 167 164
f 168 134 167
f 168 133 134
f 127 133 168
f 166 127 168
f 146 166 168
f 146 150 166
f 147 150 146
f 143 150 147
f 73 150 143
f 73 75 150
f 150 75 76
f 150 76 127
f 76 121 127
f 121 98 127
f 127 98 128
f 127 128 134
f 128 174 134
f 98 174 128
f 98 112 174
f 116 98 121
f 90 98 116
f 85 90 116
f 68 85 116
f 68 116 72
f 72 116 74
f 116 78 74
f 116 77 78
f 77 116 76
f 78 77 76
f 72 74 78
f 71 72 78
f 73 71 78
f 71 73 145
f 149 145 73
f 132 145 149
f 149 143 132
f 143 138 132
f 143 144 138
f 143 146 144
f 144 146 162
f 146 152 162
f 152 155 162
f 138 144 162
f 153 132 138
f 136 153 138
f 140 153 136
f 137 140 136
f 139 140 137
f 141 140 139
f 142 140 141
f 142 132 140
f 142 148 132
f 120 132 148
f 120 41 132
f 118 132 41
f 71 132 118
f 118 117 71
f 79 117 118
f 79 97 117
f 95 97 79
f 39 97 95
f 39 83 97
f 97 83 84
f 84 71 97
f 70 71 84
f 82 70 84
f 82 81 70
f 82 69 81
f 82 64 69
f 62 64 82
f 82 39 62
f 39 38 62
f 38 63 62
f 38 61 63
f 61 58 63
f 58 60 63
f 60 86 63
f 63 86 65
f 86 56 65
f 86 57 56
f 88 57 86
f 91 57 88
f 56 57 91
f 56 91 87
f 56 87 66
f 66 87 67
f 87 90 67
f 87 92 90
f 92 94 90
f 94 96 90
f 69 66 67
f 69 67 80
f 69 80 68
f 67 85 80
f 56 66 64
f 65 56 64
f 63 65 64
f 60 88 86
f 60 58 61
f 37 38 39
f 39 33 37
f 28 37 33
f 28 33 27
f 27 33 34
f 34 33 35
f 34 35 119
f 119 35 41
f 41 35 79
f 34 119 36
f 34 36 31
f 32 31 36
f 32 24 31
f 25 24 32
f 30 25 32
f 42 25 30
f 7 25 42
f 7 42 10
f 7 10 6
f 8 7 6
f 8 9 7
f 3 9 8
f 4 3 8
f 4 8 5
f 9 12 7
f 11 12 9
f 12 11 16
f 12 16 13
f 16 19 13
f 16 18 19
f 18 23 19
f 23 24 19
f 24 23 27
f 26 27 23
f 22 26 23
f 21 22 23
f 17 21 23
f 19 24 20
f 17 23 18
f 15 17 18
f 15 18 16
f 19 20 13
f 13 20 25
f 13 25 14
f 13 14 7
f 11 15 16
f 12 13 7
f 8 6 5
f 14 25 7
f 20 24 25
f 24 34 31
f 35 33 95
f 24 27 34
f 26 28 27
f 26 40 28
f 40 38 28
f 28 38 37
f 63 64 62
f 64 66 69
f 68 81 69
f 68 70 81
f 70 68 71
f 84 83 82
f 82 83 39
f 33 39 95
f 35 95 79
f 117 97 71
f 41 79 118
f 119 41 120
f 139 142 141
f 137 136 194
f 194 136 158
f 192 194 158
f 270 194 192
f 224 270 192
f 224 192 223
f 222 224 223
f 222 223 226
f 226 223 221
f 225 226 221
f 218 226 225
f 227 226 218
f 227 218 212
f 228 227 212
f 215 228 212
f 229 228 215
f 229 215 214
f 214 215 211
f 214 211 209
f 211 213 209
f 208 213 211
f 211 212 208
f 208 212 210
f 210 212 206
f 216 206 212
f 206 216 217
f 216 205 217
f 218 205 216
f 206 217 205
f 205 197 206
f 206 197 199
f 206 199 201
f 204 206 201
f 208 206 204
f 204 202 208
f 232 208 202
f 203 208 232
f 203 230 208
f 207 208 230
f 207 209 208
f 232 202 231
f 232 231 233
f 231 236 233
f 234 233 236
f 234 236 235
f 236 237 235
f 236 255 237
f 237 255 254
f 254 255 256
f 198 256 255
f 198 259 256
f 259 260 256
f 256 260 243
f 260 251 243
f 261 251 260
f 260 205 261
f 205 186 261
f 261 186 262
f 262 263 261
f 262 264 263
f 263 264 271
f 271 264 272
f 263 271 273
f 273 271 277
f 261 273 277
f 277 271 248
f 277 248 251
f 251 248 246
f 251 246 245
f 251 245 284
f 244 251 284
f 253 244 284
f 253 284 242
f 252 253 242
f 237 253 252
f 237 252 238
f 238 252 240
f 240 252 241
f 238 240 241
f 238 241 239
f 235 238 239
f 241 252 242
f 256 244 253
f 269 256 253
f 254 269 253
f 245 246 249
f 247 249 246
f 248 247 246
f 271 274 248
f 262 188 264
f 188 185 264
f 185 182 264
f 183 182 185
f 183 190 182
f 189 190 183
f 223 190 189
f 184 189 183
f 188 189 184
f 220 189 188
f 221 189 220
f 219 220 188
f 225 220 219
f 205 225 219
f 188 184 183
f 188 183 185
f 219 188 262
f 187 219 262
f 219 187 186
f 261 263 273
f 187 262 186
f 205 219 186
f 199 205 260
f 198 199 260
f 258 199 198
f 200 199 258
f 200 258 257
f 255 257 258
f 255 202 257
f 200 257 202
f 201 200 202
f 261 277 251
f 243 251 244
f 256 243 244
f 198 260 259
f 258 198 255
f 254 256 269
f 237 254 253
f 236 202 255
f 237 238 235
f 234 235 239
f 202 236 231
f 202 204 201
f 201 199 200
f 197 205 199
f 208 210 206
f 209 213 208
f 215 212 211
f 212 218 216
f 218 225 205
f 225 221 220
f 189 221 223
f 223 192 195
f 136 138 158
f 140 132 153
f 71 145 132
f 71 68 72
f 80 85 68
f 67 90 85
f 96 98 90
f 76 116 121
f 75 78 76
f 73 78 75
f 149 73 143
f 143 147 146
f 150 127 166
f 127 134 133
f 134 171 167
f 167 171 170
f 164 167 170
f 169 164 170
f 282 169 170
f 282 170 266
f 179 169 282
f 179 164 169
f 165 164 179
f 163 165 179
f 160 165 163
f 165 160 164
f 146 168 152
f 160 163 159
f 157 156 181
f 152 161 155
f 155 138 162
f 158 138 154
f 192 158 195
f 196 157 181
f 191 181 156
f 195 190 223
f 191 156 159
f 159 163 179
f 266 179 282
f 268 267 193
f 193 182 190
f 182 265 264
f 265 272 264
f 271 272 274
f 248 274 250
f 248 250 247
f 249 247 275
f 276 280 279
f 276 266 280
f 266 170 180
f 281 173 283
f 170 172 180
f 170 171 172
f 134 174 171
f 112 177 174
f 108 111 105
f 108 105 106
f 105 104 106
f 100 104 105
f 96 112 98
f 94 92 96
f 87 91 92
f 54 93 91
f 99 101 100
f 110 104 100
f 125 135 123
f 125 131 115
f 47 115 54
f 91 52 54
f 52 91 88
f 51 48 89
f 55 49 88
f 55 88 60
f 61 59 60
f 40 61 38
f 26 29 40
f 53 48 103

