v 0.0747784875 -0.21934125 0.0323073
v 0.14974625 -0.099222675 0.00828344125
v 0.123685 -0.129986125 0.01207756
v 0.120110375 -0.142988375 0.01179557875
v 0.16286075 -0.1023022375 0.007274805
v 0.143599625 -0.1138736125 0.00730339875
v 0.125541125 -0.339763 0.118099125
v 0.1611265 -0.118330875 0.00716534
v 0.09640385 -0.16038675 0.017274925
v -0.174300875 -0.216293625 0.049123675
v -0.157733625 -0.153452125 0.05161455
v -0.159579125 -0.14948075 0.038895375
v -0.149025375 -0.166188 0.048929225
v -0.1508415 -0.1614555 0.0321422
v -0.189105125 -0.220057 0.0427941375
v 0.1375765 -0.128628625 0.00751328875
v -0.143899625 -0.178919625 0.041993425
v -0.173002875 -0.13657425 0.0403476125
v -0.15739375 -0.21525475 0.0526794125
v -0.17331725 -0.129462375 0.0284001625
v -0.17574025 -0.233433859375 0.0534770265625
v -0.158337015625 -0.232198375 0.057016465625
v -0.14233575 -0.175087 0.029948125
v -0.163288875 -0.1386495 0.0241644875
v -0.1407944375 -0.231541296875 0.0587073515625
v -0.138412875 -0.200177875 0.0459300375
v -0.195086125 -0.234330375 0.0461189875
v 0.0771293875 -0.364331625 0.10857125
v -0.142585625 -0.212678875 0.0514035
v -0.120757875 -0.229264 0.058789725
v -0.12248275 -0.2151985 0.051072875
v -0.141168078125 -0.247151328125 0.0675331984375
v -0.158826609375 -0.2472790625 0.0664053234375
v -0.17638925 -0.247803984375 0.0645339140625
v -0.193972203125 -0.24891265625 0.0622632390625
v -0.107290625 -0.229650375 0.059069975
v 0.0943654125 -0.3454565 0.112742375
v 0.090454025 -0.35929875 0.110959375
v -0.124286875 -0.20288525 0.0414639125
v -0.123401390625 -0.2471686875 0.0682947515625
v 0.1099153625 -0.342606 0.1157655
v -0.10552665625 -0.24748615625 0.06858489375
v -0.0871607359375 -0.23281053125 0.060093084375
v -0.0875661703125 -0.248037515625 0.0685871328125
v -0.0695801125 -0.248692125 0.06851605
v -0.0692279875 -0.23435825 0.059931075
v -0.104429625 -0.217622875 0.049749675
v -0.17664215625 -0.2597785 0.078744059375
v -0.158924203125 -0.2602121875 0.079241296875
v -0.211606625 -0.250407 0.0603776
v -0.123439609375 -0.26150715625 0.0792360953125
v -0.141195390625 -0.26081240625 0.0794136125
v -0.101577825 -0.212625375 0.03549225
v -0.19439534375 -0.25946203125 0.078195478125
v -0.212239125 -0.259627 0.0775181375
v -0.105628214063 -0.262190671875 0.0787924578125
v 0.154673625 -0.133199875 0.00830152875
v -0.208513875 -0.240162875 0.0463356875
v -0.0877188578125 -0.2629491875 0.07792763125
v -0.0540339625 -0.265868125 0.077183475
v -0.067508525 -0.2618965 0.0756864625
v 0.1123777 -0.161924875 0.01281753625
v 0.0899530875 -0.175052375 0.0183346
v 0.13308925 -0.146140375 0.0078058825
v -0.0865888546875 -0.22159153125 0.047829671875
v -0.158761390625 -0.270995546875 0.0943033375
v -0.176590484375 -0.269776953125 0.0945723015625
v 0.0742498015625 -0.343923875 0.10879403125
v -0.210227625 -0.267033875 0.0925490875
v -0.1967275 -0.269816625 0.09673315
v -0.0360873875 -0.2809685 0.084551775
v -0.06659625 -0.227020125 0.047999825
v -0.085849125 -0.216175875 0.031457075
v -0.192167 -0.2775165 0.1086199625
v -0.087586003125 -0.276678140625 0.089132228125
v -0.12314709375 -0.273945375 0.0925700046875
v -0.049581325 -0.276904375 0.08383015
v 0.0040465625 -0.233577875 0.046082275
v -0.140947859375 -0.27239196875 0.093714703125
v -0.0697070640625 -0.27780153125 0.087177265625
v -0.105378825 -0.27530903125 0.091154465625
v -0.018067425 -0.296597875 0.090589325
v 0.0224818125 -0.232892875 0.0472639625
v -0.176409 -0.279968 0.110325625
v -0.14051759375 -0.28397034375 0.10824471875
v 0.03878675 -0.23022025 0.0465454375
v -0.014340825 -0.233409875 0.0451591125
v -0.05081645 -0.22930575 0.0453054875
v -0.160645625 -0.28325 0.111311
v -0.0676284875 -0.218842125 0.030737475
v -0.069354071875 -0.29169521875 0.098109078125
v -0.122623640625 -0.285916984375 0.106584357812
v -0.031534925 -0.292422125 0.09039545
v -0.0326420375 -0.23196525 0.0449070125
v -0.15589575 -0.2940315 0.120658875
v -0.104808984375 -0.28785496875 0.104337415625
v -0.0493337625 -0.220098375 0.0311311375
v -0.051580796875 -0.293122203125 0.0949159890625
v -0.087065609375 -0.289862046875 0.101382592188
v -0.01356642375 -0.308762125 0.09499065
v -0.0311223125 -0.220983875 0.0317599
v -0.140006875 -0.297484 0.121193375
v -0.086509840625 -0.3047075625 0.111648339063
v -0.068924459375 -0.306839125 0.107348221875
v -0.124212125 -0.301644625 0.12025275
v -5.65075e-05 -0.312942125 0.0951686375
v -0.051303084375 -0.30862503125 0.103043935938
v -0.03362139375 -0.310047828125 0.0989803578125
v -0.0129556525 -0.2217905 0.0324072
v -0.104207515625 -0.3024065625 0.11540940625
v 0.02248765 -0.312461 0.0952991375
v 0.00447493625 -0.325837375 0.0982733875
v 0.0051764975 -0.222483375 0.0329667625
v 0.0231698475 -0.22289025 0.0327810625
v 0.0382146875 -0.30979875 0.09640245
v -0.015755388125 -0.327764265625 0.100501185938
v -0.03356149375 -0.326931734375 0.1038223375
v 0.061800225 -0.22059625 0.0321740125
v 0.0389255125 -0.2241305 0.0346551625
v 0.018021885 -0.325629875 0.098381975
v 0.0022922915625 -0.34558921875 0.101733884375
v -0.068746709375 -0.32390196875 0.11284184375
v -0.0511938328125 -0.325596125 0.108172528125
v 0.12501 -0.326092375 0.118436
v -0.119829875 -0.315563125 0.124264875
v -0.0157270435938 -0.345334921875 0.103243457812
v 0.0023472034375 -0.363452125 0.1034314375
v -0.0885358125 -0.3239985 0.1187275
v 0.0782964 -0.21028375 0.0257748625
v -0.104155325 -0.319752375 0.12212875
v 0.056111225 -0.309118125 0.0991552375
v -0.01570002875 -0.3992175 0.10831575
v 0.075255025 -0.38030925 0.107479
v -0.0499201875 -0.382943 0.108286375
v 0.056760628125 -0.362607484375 0.1061264375
v 0.0204008579687 -0.345461609375 0.101672454687
v 0.0024102315625 -0.381350625 0.10515609375
v 0.1018771125 -0.193244625 0.0181886
v 0.0738192875 -0.30825325 0.1030810375
v 0.08925375 -0.30965825 0.107493375
v 0.0383067421875 -0.327316390625 0.100491021875
v 0.020524214375 -0.363320078125 0.103395828125
v -0.0335558359375 -0.34462953125 0.10618928125
v -0.0157933215625 -0.36330421875 0.104475328125
v -0.036056825 -0.364979875 0.107003625
v -0.0158169684375 -0.381303015625 0.10570715625
v -0.053461275 -0.345691875 0.110841375
v -0.0688375625 -0.342158 0.114807125
v 0.0644191875 -0.20926275 0.026244525
v -0.049334175 -0.359778125 0.10960525
v 0.02062961125 -0.381203765625 0.1051798125
v -0.0842871625 -0.33845525 0.1184525
v 0.0739046390625 -0.3258881875 0.107225801563
v -0.0362878375 -0.378718875 0.106816875
v 0.0564066984375 -0.34455246875 0.105597515625
v 0.1092939 -0.32435675 0.115601
v 0.088178325 -0.19068275 0.019571075
v 0.0384673859375 -0.345089046875 0.103036278125
v 0.03867334375 -0.36301878125 0.104364890625
v 0.0388460890625 -0.38095303125 0.105681578125
v 0.0570556609375 -0.380662515625 0.10643696875
v -0.03397935 -0.399066375 0.108810625
v 0.02076989625 -0.398936875 0.1083785
v 0.0390031875 -0.398753 0.108533
v 0.0572366625 -0.398566875 0.108696125
v 0.123509125 -0.181039625 0.01477806125
v 0.093741575 -0.32274275 0.11172425
v 0.05618856875 -0.326655078125 0.103404826563
v -0.0499755125 -0.3965645 0.109258125
v 0.002537865 -0.39910575 0.108282875
v 0.0731688 -0.396146625 0.108619125
v 0.109426 -0.1818125 0.0150236625
v 0.1272885 -0.1681545 0.01095893
v -0.157899125 -0.2238601875 0.054459775
v -0.167055125 -0.232711875 0.055484825
v -0.17508325 -0.2250711875 0.050767575
v -0.1658765 -0.215685 0.0515417
v -0.184389375 -0.2344435625 0.05104005625
v -0.1920455 -0.2271325 0.04411835
v -0.182617 -0.2170975 0.0453352
v -0.1559955 -0.154196 0.03475035
v -0.1499334375 -0.16382175 0.0405357125
v -0.1535135 -0.1591855 0.05168805
v -0.159957 -0.149725 0.04593355
v -0.1748355 -0.131574 0.0350768
v -0.1683595 -0.1329575 0.02428805
v -0.161432 -0.1431285 0.0294535
v -0.167908 -0.141745 0.04024225
v -0.1457525 -0.168844 0.02971465
v -0.1421985 -0.17891 0.03532305
v -0.145998 -0.1737225 0.04611325
v -0.1405496875 -0.223260125 0.055252175
v -0.1495889375 -0.231814125 0.0580249625
v -0.1489025 -0.214986 0.05262695
v -0.1586399375 -0.2400020625 0.0611258125
v -0.1676129375 -0.2474756875 0.0655542875
v -0.1761465 -0.24096675 0.05831758125
v -0.1851745625 -0.24829275 0.06339184375
v -0.19361625 -0.242760875 0.0548244875
v -0.1410128125 -0.2395418125 0.06276735625
v -0.15001125 -0.2471853125 0.06703938125
v -0.1314985625 -0.2149669375 0.05156528125
v -0.122783 -0.223021 0.05568135
v -0.1319370625 -0.2313620625 0.05926066875
v -0.1232480625 -0.2393701875 0.0638072625
v -0.1322983125 -0.247134 0.0679635125
v -0.12216 -0.208279 0.04532135
v -0.140626 -0.2061335 0.04902825
v -0.1313355 -0.19964 0.0425377
v -0.2027855 -0.249634375 0.0612832625
v -0.2111045 -0.2448985 0.05205715
v -0.201875 -0.237657 0.0456072
v -0.10535075625 -0.2396363125 0.06431596875
v -0.11447675 -0.24729075 0.06849134375
v -0.1141045 -0.231445 0.06004095
v -0.1234645 -0.2545715625 0.07343804375
v -0.13232225 -0.2611568125 0.07936061875
v -0.1412235 -0.2542595 0.0731058875
v -0.1500623125 -0.2604933125 0.07937405625
v -0.15891575 -0.2540371875 0.07247250625
v -0.16778225 -0.2599816875 0.07901468125
v -0.17655575 -0.2540796875 0.0713707
v -0.185509625 -0.2595793125 0.07847928125
v -0.1942305625 -0.254429 0.07009659375
v -0.20331 -0.2595045625 0.07786778125
v -0.21198 -0.2552315 0.06890305
v -0.095513725 -0.219594375 0.0487678
v -0.0868962625 -0.2264919375 0.05453793125
v -0.09613154375 -0.2322145625 0.06012926875
v -0.104784 -0.2239665 0.05551175
v -0.08738930625 -0.2402114375 0.06452445625
v -0.096553375 -0.247740875 0.06860700625
v -0.10562019375 -0.2550263125 0.07340523125
v -0.1145441875 -0.2618440625 0.0790610625
v -0.087675525 -0.255631625 0.0730362
v -0.09668391875 -0.262570125 0.07838721875
v -0.07764604375 -0.22364 0.0469790375
v -0.0690101 -0.229488 0.0535586
v -0.078193475 -0.2335488125 0.06002104375
v -0.06942165 -0.241081 0.0645985
v -0.07857430625 -0.2483586875 0.068554725
v -0.0696924 -0.2562275 0.0726389
v -0.0787405875 -0.263294625 0.07749598125
v -0.0948108 -0.2139325 0.03245305
v -0.08623148125 -0.2184451875 0.03993898125
v -0.1040725 -0.213849 0.04216715
v -0.1588688125 -0.2657398125 0.08662563125
v -0.1676715 -0.2703611875 0.09446698125
v -0.176644625 -0.2648850625 0.0865701125
v -0.1855249375 -0.269253625 0.094631725
v -0.1944705625 -0.264163875 0.08643081875
v -0.1411000625 -0.266756125 0.0863845625
v -0.1498535625 -0.27166925 0.09406894375
v -0.1055475625 -0.268913125 0.08476205
v -0.1142615 -0.274639875 0.091920775
v -0.1233289375 -0.2679038125 0.0856878625
v -0.132044125 -0.273173375 0.09319151875
v -0.203496 -0.268321 0.09472085
v -0.2123985 -0.2638485 0.0861075
v -0.08769765625 -0.269945625 0.0833174
v -0.09649055 -0.276005 0.0901817125
v -0.06976494375 -0.270781 0.081941925
v -0.0786545125 -0.2772788125 0.088135725
v -0.06075464375 -0.2782408125 0.0862419125
v -0.0607785 -0.2639085 0.07637815
v -0.05180655 -0.27138 0.08057195
v -0.0767705 -0.217761 0.03091185
v -0.0681984 -0.2221315625 0.0385944
v -0.140749125 -0.27802125 0.1011
v -0.1494785 -0.283039875 0.1088198125
v -0.15861375 -0.276354875 0.10195224375
v -0.167422 -0.2808315 0.110005
v -0.1765070625 -0.27483175 0.10247406875
v -0.185406 -0.2792465 0.1105135
v -0.194446 -0.2736275 0.10269635
v -0.0426736875 -0.2937449375 0.09327209375
v -0.05170941875 -0.285809125 0.090166375
v -0.04284335 -0.2789015 0.08424465
v -0.0338082 -0.2867025 0.08748785
v -0.05847665 -0.2195735 0.03085405
v -0.05007510625 -0.2247020625 0.0382183125
v -0.0598147 -0.2275045 0.0457735
v -0.0695588875 -0.284693125 0.0926854375
v -0.0782121875 -0.2908195 0.099754
v -0.08735798125 -0.2832039375 0.0952988375
v -0.09593 -0.2888611875 0.10293031875
v -0.1051225875 -0.28149375 0.0978101625
v -0.1137061875 -0.2868814375 0.10554411875
v -0.1229086875 -0.2798156875 0.09965918125
v -0.131563375 -0.284938 0.1074920625
v -0.0604756 -0.292450875 0.0965123625
v 0.01418119 -0.222713 0.03292575
v 0.02282583 -0.2278915625 0.0400225125
v 0.0132479 -0.2333765 0.04663945
v 0.00461153 -0.228030625 0.03952451875
v -0.01364823875 -0.2276001875 0.03878315625
v -0.00387696 -0.2221645 0.0327483
v -0.00515345 -0.233621 0.04556325
v -0.0247272875 -0.310512 0.09729705625
v -0.033681425 -0.30202775 0.09559343125
v -0.0247967 -0.294446 0.09061715
v -0.015821 -0.3027015 0.09274835
v 0.0321752 -0.223052 0.0326885
v 0.04114905 -0.227058 0.04068815
v 0.03177955 -0.232003 0.047985
v -0.122301875 -0.2926515 0.1129745
v -0.130967 -0.2985725 0.120267
v -0.140267 -0.290565625 0.114853125
v -0.1490605 -0.2964755 0.1218565
v -0.1582805 -0.2886365 0.116003
v -0.031882175 -0.2264745625 0.03833345625
v -0.02203605 -0.2213955 0.0320803
v -0.02350425 -0.2328485 0.0449466
v -0.0402186 -0.22056 0.0314383
v -0.0417525 -0.2307885 0.04502165
v -0.05143311875 -0.3007054375 0.09927605625
v -0.0601204 -0.3077745625 0.10518366875
v -0.069126275 -0.29904725 0.103090825
v -0.0777127375 -0.3058084375 0.10953054375
v -0.08676090625 -0.2969915 0.10694885625
v -0.10446815 -0.294780375 0.1103445
v -0.1131144375 -0.3012786875 0.1169845625
v -0.0424750375 -0.3094008125 0.100936075
v -0.095340375 -0.3035615625 0.1136193125
v 0.002205445 -0.3194055 0.0966129
v -0.0067781775 -0.32795375 0.09945094375
v -0.015774394375 -0.3191875625 0.098462525
v -0.006812695 -0.310785 0.09521265
v -0.0246825 -0.3274185625 0.10198785
v -0.033585125 -0.3183648125 0.1017211
v -0.0687975875 -0.31516075 0.1105988125
v -0.07753158125 -0.32299575 0.1151695625
v -0.08637838125 -0.3131255 0.11513175
v -0.0952073 -0.320851 0.1201635
v -0.1041345125 -0.310870125 0.119110125
v -0.05122739375 -0.3169471875 0.1060169875
v -0.05997270625 -0.324779625 0.1104953125
v -0.11312 -0.3186345 0.1238475
v -0.1220135 -0.308604 0.122326
v -0.04239435 -0.326318875 0.10591605
v 0.038255575 -0.3185379375 0.0985619
v 0.0293096875 -0.327576375 0.0995259125
v 0.0202594 -0.3190635 0.09674025
v 0.029228 -0.3100825 0.0954049
v 0.020340821875 -0.3365936875 0.10047031875
v 0.011343844375 -0.3455644375 0.10152263125
v 0.00226108125 -0.3367554375 0.10046635
v 0.01125374 -0.3279 0.09887805
v -0.006736580625 -0.3455164375 0.10230433125
v -0.015733428125 -0.336486 0.10209139375
v 0.05613991875 -0.3178579375 0.10143336875
v 0.04726865625 -0.3270051875 0.1018024
v 0.04718195 -0.3094805 0.0976367
v -0.02466336875 -0.3450335 0.10456075
v -0.033539375 -0.335701625 0.10529075
v -0.042414725 -0.344140375 0.108062125
v -0.0511901875 -0.3344960625 0.109487875
v 0.0718692 -0.208074 0.0249712
v 0.0787754 -0.214793 0.02901305
v 0.06777795 -0.221668 0.03327915
v 0.06087175 -0.214949 0.0292373
v 0.03837846875 -0.336173375 0.1019594875
v 0.0294461125 -0.34530025 0.1021852375
v 0.0204639425 -0.35437675 0.102605
v 0.0114360575 -0.3634135 0.103287875
v 0.00232058 -0.3544996875 0.1026691875
v -0.00673569875 -0.3634215 0.103817375
v -0.01575476375 -0.3542931875 0.1039676875
v -0.06001755 -0.342874 0.112577
v -0.068772875 -0.332952625 0.1140765625
v -0.0776801 -0.341386 0.1169775
v -0.08640075 -0.331263 0.1185965
v -0.0248063375 -0.363082875 0.1054349375
v -0.03364794375 -0.3536705 0.106580875
v 0.0205758125 -0.3722725625 0.1041728125
v 0.01152101375 -0.381295875 0.1051009375
v 0.00237341875 -0.3724118125 0.1041798125
v -0.0067049925 -0.381356125 0.1053514375
v -0.01581945 -0.3723114375 0.104977625
v 0.0738428375 -0.317038625 0.10534695625
v 0.06505961875 -0.326278375 0.10524308125
v 0.06498395 -0.308702 0.10100565
v 0.038570125 -0.3540435625 0.103790375
v 0.029605025 -0.3631863125 0.1037644375
v 0.020696485 -0.39008325 0.1066606875
v 0.011653735 -0.3990235 0.1083225
v 0.0024686475 -0.3902404375 0.1066020625
v -0.006577815 -0.3991835 0.108259
v -0.01576969625 -0.390267125 0.1068965
v 0.08761205 -0.183747 0.0190554
v 0.09889691875 -0.1770631875 0.0164782
v 0.105721 -0.1874465 0.0164323
v 0.09448145 -0.194086 0.0192585
v 0.0914898 -0.316186 0.109645
v 0.0827464625 -0.325497625 0.109261625
v 0.0826364 -0.307793 0.1052745
v 0.05627713125 -0.335566875 0.1047629375
v 0.04745245625 -0.3448366875 0.104200875
v 0.0387637 -0.3719965625 0.1049029375
v 0.02973828125 -0.3810861875 0.1053865625
v -0.04270455 -0.362389 0.1082825
v -0.05140995 -0.3527695 0.1101545
v -0.02491800625 -0.3811819375 0.1062434375
v -0.03392675 -0.3719285 0.106586
v -0.0248355 -0.3991685 0.108518
v -0.03401145 -0.3900516875 0.107740125
v 0.03892540625 -0.3898643125 0.106977875
v 0.02988645 -0.398846 0.1084515
v 0.091793975 -0.3341563125 0.112105625
v 0.08316061875 -0.3435945625 0.1104971875
v 0.07404294375 -0.334866125 0.1083305
v 0.0653354875 -0.3442456875 0.1071446875
v -0.0431267 -0.398941 0.1091385
v -0.05222375 -0.389709 0.108926
v -0.0431136 -0.380835 0.1074835
v 0.0565783625 -0.353571 0.105998375
v 0.047724025 -0.3628240625 0.105168375
v 0.056922 -0.3716469375 0.106142625
v 0.0479521 -0.3808141875 0.10602525
v 0.05715479375 -0.389627375 0.1073995
v 0.0481199 -0.39866 0.1086145
v 0.0657867125 -0.362374375 0.107190625
v 0.07505785 -0.371232 0.1077435
v 0.06615611875 -0.380490875 0.106936125
v 0.07538065 -0.389353 0.1079785
v 0.06635355 -0.3984735 0.108778
v 0.110043175 -0.1705763125 0.013895211875
v 0.1212485 -0.164227 0.011186645
v 0.1275895 -0.175181 0.012794095
v 0.116405 -0.1814635 0.01499675
v 0.10960463125 -0.333481375 0.11568325
v 0.10096945 -0.3429315 0.1141855
v 0.1004061 -0.324695 0.113726
v 0.0923719 -0.1663725 0.0180318
v 0.1035843 -0.1597745 0.0151919
v 0.1275165 -0.3328495 0.118622
v 0.11889 -0.3422825 0.1171085
v 0.1182155 -0.324042 0.1173
v 0.0745172625 -0.353012875 0.108749375
v 0.0924164 -0.3523785 0.11181
v 0.0838099 -0.3618185 0.1097615
v 0.119751 -0.135973 0.01264885
v 0.130655 -0.1293175 0.00979839
v 0.1369245 -0.140087 0.006950605
v 0.1260205 -0.1467425 0.009801065
v 0.141365 -0.122581 0.006924205
v 0.1523630625 -0.11610224375 0.007234369375
v 0.1586905 -0.127168 0.007854575
v 0.147658 -0.1336495 0.00773642
v 0.1458595 -0.10520545 0.00792313
v 0.1568615 -0.09857145 0.007884375
v 0.1633995 -0.1094655 0.007003605
v -0.166514 -0.22436475 0.053032625
v -0.183582 -0.226037 0.047654875
v -0.1547545 -0.15669075 0.0432192
v -0.16813375 -0.13735125 0.03226515
v -0.14587525 -0.17128325 0.03791395
v -0.1492635 -0.2235 0.055058775
v -0.1674035 -0.24039375 0.059859575
v -0.1848815 -0.24178425 0.05655625
v -0.14984325 -0.2397285 0.062059875
v -0.13170025 -0.2231165 0.055462525
v -0.132148 -0.23941075 0.06335385
v -0.131393 -0.20720625 0.0471748
v -0.2023585 -0.24381125 0.0533712
v -0.11431225 -0.239455 0.0641155
v -0.13235325 -0.25440325 0.0733111
v -0.15007775 -0.25412675 0.07283935
v -0.16773725 -0.254023 0.071966375
v -0.18538475 -0.25420275 0.070735225
v -0.2030995 -0.25479525 0.06949145
v -0.09584 -0.22519 0.0550253
v -0.096373775 -0.23988525 0.064446075
v -0.11455475 -0.254778 0.073469775
v -0.096657025 -0.25532025 0.07324335
v -0.07795305 -0.22795075 0.054048725
v -0.07840535 -0.2406245 0.06456975
v -0.078685975 -0.25593225 0.07283585
v -0.0951673 -0.2162105 0.0409904
v -0.16775375 -0.26529775 0.08661805
v -0.18554675 -0.2644875 0.0865169
v -0.1499845 -0.2662255 0.086557775
v -0.114443 -0.26841625 0.085275475
v -0.13221475 -0.267333 0.086076075
v -0.2034265 -0.263973 0.086284275
v -0.09663325 -0.26943725 0.084070725
v -0.078738375 -0.27039525 0.082617975
v -0.0607869 -0.27109775 0.081258725
v -0.077234425 -0.22042625 0.039138225
v -0.14967875 -0.2771705 0.101586
v -0.16755525 -0.275562 0.102251975
v -0.185473 -0.274204 0.1026074
v -0.0427626 -0.28627 0.088842175
v -0.059145675 -0.223539 0.038313775
v -0.078464175 -0.28399 0.093983125
v -0.09624135 -0.28235675 0.096608025
v -0.11401 -0.28066025 0.098804725
v -0.13182375 -0.2789195 0.100441
v -0.060641075 -0.2852915 0.091430325
v 0.013714545 -0.22804475 0.0397826
v -0.004515205 -0.22789275 0.039155775
v -0.02475985 -0.30241625 0.094100725
v 0.031977375 -0.2275275 0.04033675
v -0.13127275 -0.2915955 0.11401225
v -0.14927125 -0.289588 0.11548125
v -0.02277015 -0.227122 0.03851345
v -0.04098555 -0.22567425 0.038229975
v -0.060287625 -0.29992 0.101176425
v -0.077943375 -0.298058 0.105042175
v -0.11336775 -0.2937075 0.11175575
v -0.04256845 -0.30143275 0.0973668
v -0.09560085 -0.295887 0.10872925
v -0.0067966775 -0.3193405 0.0974314
v -0.0247033 -0.31885875 0.0999189
v -0.077575275 -0.31417375 0.112902
v -0.09523505 -0.31201225 0.117215
v -0.060017175 -0.31609025 0.10829525
v -0.113066 -0.30973525 0.1207755
v -0.0424216 -0.3177165 0.1037897
v 0.02926455 -0.318812 0.0975754
v 0.0112983875 -0.33671725 0.100273025
v -0.0067547125 -0.3366825 0.101072075
v 0.04721835 -0.31821875 0.0998511
v -0.0246595 -0.3361535 0.1035255
v -0.0423795 -0.335147 0.1073035
v 0.069823575 -0.214871 0.029125175
v 0.029372 -0.3364105 0.10103645
v 0.01139092 -0.3544715 0.1024815
v -0.00673408 -0.35444525 0.10315725
v -0.05998175 -0.33375525 0.111768
v -0.07758225 -0.33211625 0.11634625
v -0.024723175 -0.3540285 0.1051225
v 0.0114757 -0.3723655 0.10408
v -0.006729925 -0.37239775 0.10447125
v 0.065007325 -0.317459 0.103299075
v 0.02952665 -0.3542315 0.1030505
v 0.011583165 -0.390173 0.10659375
v -0.006649135 -0.39027875 0.1066905
v 0.096666525 -0.18559675 0.01774385
v 0.082668725 -0.3166135 0.10747575
v 0.047346775 -0.335888 0.1032275
v 0.02967265 -0.37214675 0.10445925
v -0.0425377 -0.3532385 0.108302
v -0.024880275 -0.372141 0.10572225
v -0.02489255 -0.39018475 0.1072575
v 0.029810675 -0.389978 0.106798
v 0.082915025 -0.334509 0.11021675
v 0.06516975 -0.3352225 0.10648825
v -0.04312015 -0.389888 0.108311
v 0.04758545 -0.35382075 0.104797
v 0.04784645 -0.3718305 0.1054675
v 0.04804035 -0.38974925 0.1071725
v 0.06599145 -0.37144425 0.106918
v 0.066268025 -0.38949325 0.1076765
v 0.11882675 -0.17284525 0.0130916975
v 0.100687775 -0.33381325 0.11395575
v 0.10121795 -0.168441 0.01571055
v 0.11855275 -0.33316225 0.11720425
v 0.0655546 -0.35330225 0.1073225
v 0.08346945 -0.35270125 0.110259
v 0.12833775 -0.13803 0.0097997275
v 0.15002775 -0.1248745 0.00738939
v 0.1546295 -0.107335475 0.0074633675
f 19 174 453 177
f 22 175 453 174
f 21 176 453 175
f 10 177 453 176
f 21 178 454 176
f 27 179 454 178
f 15 180 454 179
f 10 176 454 180
f 12 181 455 184
f 14 182 455 181
f 13 183 455 182
f 11 184 455 183
f 18 185 456 188
f 20 186 456 185
f 24 187 456 186
f 12 188 456 187
f 14 189 457 182
f 23 190 457 189
f 17 191 457 190
f 13 182 457 191
f 29 192 458 194
f 25 193 458 192
f 22 174 458 193
f 19 194 458 174
f 22 195 459 175
f 33 196 459 195
f 34 197 459 196
f 21 175 459 197
f 34 198 460 197
f 35 199 460 198
f 27 178 460 199
f 21 197 460 178
f 25 200 461 193
f 32 201 461 200
f 33 195 461 201
f 22 193 461 195
f 29 202 462 192
f 31 203 462 202
f 30 204 462 203
f 25 192 462 204
f 30 205 463 204
f 40 206 463 205
f 32 200 463 206
f 25 204 463 200
f 39 207 464 209
f 31 202 464 207
f 29 208 464 202
f 26 209 464 208
f 35 210 465 199
f 50 211 465 210
f 58 212 465 211
f 27 199 465 212
f 36 213 466 215
f 42 214 466 213
f 40 205 466 214
f 30 215 466 205
f 40 216 467 206
f 51 217 467 216
f 52 218 467 217
f 32 206 467 218
f 52 219 468 218
f 49 220 468 219
f 33 201 468 220
f 32 218 468 201
f 49 221 469 220
f 48 222 469 221
f 34 196 469 222
f 33 220 469 196
f 48 223 470 222
f 54 224 470 223
f 35 198 470 224
f 34 222 470 198
f 54 225 471 224
f 55 226 471 225
f 50 210 471 226
f 35 224 471 210
f 47 227 472 230
f 65 228 472 227
f 43 229 472 228
f 36 230 472 229
f 43 231 473 229
f 44 232 473 231
f 42 213 473 232
f 36 229 473 213
f 42 233 474 214
f 56 234 474 233
f 51 216 474 234
f 40 214 474 216
f 44 235 475 232
f 59 236 475 235
f 56 233 475 236
f 42 232 475 233
f 65 237 476 228
f 72 238 476 237
f 46 239 476 238
f 43 228 476 239
f 46 240 477 239
f 45 241 477 240
f 44 231 477 241
f 43 239 477 231
f 45 242 478 241
f 61 243 478 242
f 59 235 478 243
f 44 241 478 235
f 53 244 479 246
f 73 245 479 244
f 65 227 479 245
f 47 246 479 227
f 49 247 480 221
f 66 248 480 247
f 67 249 480 248
f 48 221 480 249
f 67 250 481 249
f 70 251 481 250
f 54 223 481 251
f 48 249 481 223
f 52 252 482 219
f 79 253 482 252
f 66 247 482 253
f 49 219 482 247
f 56 254 483 234
f 81 255 483 254
f 76 256 483 255
f 51 234 483 256
f 76 257 484 256
f 79 252 484 257
f 52 217 484 252
f 51 256 484 217
f 70 258 485 251
f 69 259 485 258
f 55 225 485 259
f 54 251 485 225
f 59 260 486 236
f 75 261 486 260
f 81 254 486 261
f 56 236 486 254
f 61 262 487 243
f 80 263 487 262
f 75 260 487 263
f 59 243 487 260
f 77 264 488 266
f 80 262 488 264
f 61 265 488 262
f 60 266 488 265
f 73 267 489 245
f 90 268 489 267
f 72 237 489 268
f 65 245 489 237
f 79 269 490 253
f 85 270 490 269
f 89 271 490 270
f 66 253 490 271
f 89 272 491 271
f 84 273 491 272
f 67 248 491 273
f 66 271 491 248
f 84 274 492 273
f 74 275 492 274
f 70 250 492 275
f 67 273 492 250
f 93 276 493 279
f 98 277 493 276
f 77 278 493 277
f 71 279 493 278
f 90 280 494 268
f 97 281 494 280
f 88 282 494 281
f 72 268 494 282
f 80 283 495 263
f 91 284 495 283
f 99 285 495 284
f 75 263 495 285
f 99 286 496 285
f 96 287 496 286
f 81 261 496 287
f 75 285 496 261
f 81 287 497 255
f 96 288 497 287
f 92 289 497 288
f 76 255 497 289
f 92 290 498 289
f 85 269 498 290
f 79 257 498 269
f 76 289 498 257
f 98 291 499 277
f 91 283 499 291
f 80 264 499 283
f 77 277 499 264
f 113 292 500 295
f 114 293 500 292
f 83 294 500 293
f 78 295 500 294
f 87 296 501 298
f 109 297 501 296
f 113 295 501 297
f 78 298 501 295
f 100 299 502 302
f 108 300 502 299
f 93 301 502 300
f 82 302 502 301
f 114 303 503 293
f 119 304 503 303
f 86 305 503 304
f 83 293 503 305
f 92 306 504 290
f 105 307 504 306
f 102 308 504 307
f 85 290 504 308
f 102 309 505 308
f 95 310 505 309
f 89 270 505 310
f 85 308 505 270
f 94 311 506 313
f 101 312 506 311
f 109 296 506 312
f 87 313 506 296
f 97 314 507 281
f 101 311 507 314
f 94 315 507 311
f 88 281 507 315
f 98 316 508 291
f 107 317 508 316
f 104 318 508 317
f 91 291 508 318
f 104 319 509 318
f 103 320 509 319
f 99 284 509 320
f 91 318 509 284
f 96 321 510 288
f 110 322 510 321
f 105 306 510 322
f 92 288 510 306
f 108 323 511 300
f 107 316 511 323
f 98 276 511 316
f 93 300 511 276
f 99 320 512 286
f 103 324 512 320
f 110 321 512 324
f 96 286 512 321
f 106 325 513 328
f 112 326 513 325
f 116 327 513 326
f 100 328 513 327
f 116 329 514 327
f 117 330 514 329
f 108 299 514 330
f 100 327 514 299
f 104 331 515 319
f 122 332 515 331
f 128 333 515 332
f 103 319 515 333
f 128 334 516 333
f 130 335 516 334
f 110 324 516 335
f 103 333 516 324
f 107 336 517 317
f 123 337 517 336
f 122 331 517 337
f 104 317 517 331
f 110 335 518 322
f 130 338 518 335
f 125 339 518 338
f 105 322 518 339
f 108 330 519 323
f 117 340 519 330
f 123 336 519 340
f 107 323 519 336
f 115 341 520 344
f 141 342 520 341
f 120 343 520 342
f 111 344 520 343
f 120 345 521 348
f 136 346 521 345
f 121 347 521 346
f 112 348 521 347
f 121 349 522 347
f 126 350 522 349
f 116 326 522 350
f 112 347 522 326
f 131 351 523 353
f 168 352 523 351
f 141 341 523 352
f 115 353 523 341
f 126 354 524 350
f 143 355 524 354
f 117 329 524 355
f 116 350 524 329
f 143 356 525 355
f 147 357 525 356
f 123 340 525 357
f 117 355 525 340
f 149 358 526 361
f 129 359 526 358
f 1 360 526 359
f 118 361 526 360
f 141 362 527 342
f 158 363 527 362
f 136 345 527 363
f 120 342 527 345
f 136 364 528 346
f 142 365 528 364
f 127 366 528 365
f 121 346 528 366
f 127 367 529 366
f 144 368 529 367
f 126 349 529 368
f 121 366 529 349
f 123 357 530 337
f 147 369 530 357
f 148 370 530 369
f 122 337 530 370
f 148 371 531 370
f 152 372 531 371
f 128 332 531 372
f 122 370 531 332
f 144 373 532 368
f 145 374 532 373
f 143 354 532 374
f 126 368 532 354
f 142 375 533 365
f 151 376 533 375
f 137 377 533 376
f 127 365 533 377
f 137 378 534 377
f 146 379 534 378
f 144 367 534 379
f 127 377 534 367
f 139 380 535 382
f 153 381 535 380
f 168 351 535 381
f 131 382 535 351
f 158 383 536 363
f 159 384 536 383
f 142 364 536 384
f 136 363 536 364
f 151 385 537 376
f 163 386 537 385
f 170 387 537 386
f 137 376 537 387
f 170 388 538 387
f 132 389 538 388
f 146 378 538 389
f 137 387 538 378
f 157 390 539 393
f 63 391 539 390
f 172 392 539 391
f 138 393 539 392
f 140 394 540 396
f 167 395 540 394
f 153 380 540 395
f 139 396 540 380
f 168 397 541 352
f 155 398 541 397
f 158 362 541 398
f 141 352 541 362
f 159 399 542 384
f 160 400 542 399
f 151 375 542 400
f 142 384 542 375
f 145 401 543 374
f 150 402 543 401
f 147 356 543 402
f 143 374 543 356
f 146 403 544 379
f 154 404 544 403
f 145 373 544 404
f 144 379 544 373
f 132 405 545 389
f 162 406 545 405
f 154 403 545 406
f 146 389 545 403
f 160 407 546 400
f 164 408 546 407
f 163 385 546 408
f 151 400 546 385
f 167 409 547 395
f 37 410 547 409
f 68 411 547 410
f 153 395 547 411
f 68 412 548 411
f 155 397 548 412
f 168 381 548 397
f 153 411 548 381
f 162 413 549 406
f 169 414 549 413
f 134 415 549 414
f 154 406 549 415
f 155 416 550 398
f 135 417 550 416
f 159 383 550 417
f 158 398 550 383
f 135 418 551 417
f 161 419 551 418
f 160 399 551 419
f 159 417 551 399
f 161 420 552 419
f 165 421 552 420
f 164 407 552 421
f 160 419 552 407
f 135 422 553 418
f 28 423 553 422
f 133 424 553 423
f 161 418 553 424
f 133 425 554 424
f 171 426 554 425
f 165 420 554 426
f 161 424 554 420
f 172 427 555 430
f 62 428 555 427
f 173 429 555 428
f 166 430 555 429
f 156 431 556 433
f 41 432 556 431
f 37 409 556 432
f 167 433 556 409
f 63 434 557 391
f 9 435 557 434
f 62 427 557 435
f 172 391 557 427
f 124 436 558 438
f 7 437 558 436
f 41 431 558 437
f 156 438 558 431
f 68 439 559 412
f 28 422 559 439
f 135 416 559 422
f 155 412 559 416
f 37 440 560 410
f 38 441 560 440
f 28 439 560 441
f 68 410 560 439
f 4 442 561 445
f 3 443 561 442
f 16 444 561 443
f 64 445 561 444
f 16 446 562 449
f 6 447 562 446
f 8 448 562 447
f 57 449 562 448
f 6 450 563 447
f 2 451 563 450
f 5 452 563 451
f 8 447 563 452
