# https://github.com/mikedh/trimesh
v 0.18338561 -0.43542710 -0.18025328
v 0.18113213 -0.43362473 -0.18427412
v 0.17486757 -0.43831467 -0.18096666
v 0.18971743 -0.43500711 -0.17905082
v 0.16797148 -0.43993760 -0.18420691
v 0.20335741 -0.43570530 -0.17493656
v 0.20031839 -0.43487104 -0.17633350
v 0.20757730 -0.43634647 -0.17352995
v 0.22090906 -0.44585288 -0.16641381
v 0.17806108 -0.43690463 -0.18079811
v 0.20970965 -0.43767553 -0.17226628
v 0.21341320 -0.43830695 -0.17158730
v 0.19686376 -0.43475036 -0.17712744
v 0.23355033 -0.44061857 -0.16669581
v 0.23263752 -0.43815743 -0.16743774
v 0.22099750 -0.42625199 -0.17214150
v 0.23825756 -0.45579431 -0.16315249
v 0.23065050 -0.43987000 -0.16933550
v 0.22374809 -0.42941799 -0.17234382
v 0.22686347 -0.43345071 -0.17162688
v 0.22160068 -0.43221702 -0.17419095
v 0.22405042 -0.43836706 -0.17276915
v 0.22562564 -0.44035766 -0.17199062
v 0.22762650 -0.44374350 -0.17010699
v 0.21474416 -0.43083398 -0.17699818
v 0.19908618 -0.42891142 -0.18197106
v 0.19577750 -0.42626673 -0.18328951
v 0.21365667 -0.43553645 -0.17469005
v 0.23327651 -0.44627700 -0.16682638
v 0.20018675 -0.43156771 -0.18039153
v 0.17052904 -0.42882304 -0.18864049
v 0.17607316 -0.43179218 -0.18725059
v 0.15355299 -0.45224950 -0.18688351
v 0.17007618 -0.43397568 -0.18766519
v 0.16156482 -0.44238742 -0.18675648
v 0.16475812 -0.43505061 -0.18844851
v 0.16192289 -0.43618813 -0.18862472
v 0.15707427 -0.44778745 -0.18746487
v 0.16104574 -0.44931650 -0.18161496
v 0.16309227 -0.44638602 -0.18202952
v 0.16747557 -0.44270071 -0.18167879
v 0.15811750 -0.45387377 -0.18147285
v 0.15664350 -0.45701963 -0.18158625
v 0.20862775 -0.44271774 -0.17599750
v 0.21243150 -0.44115000 -0.17264451
v 0.17070165 -0.44029267 -0.18120208
v 0.14757181 -0.44146860 -0.18553105
v 0.15327525 -0.43736475 -0.18731288
v 0.15761629 -0.43339111 -0.18815036
v 0.16697000 -0.42659450 -0.18685826
v 0.17521645 -0.42597645 -0.18743773
v 0.18111167 -0.42697478 -0.18688010
v 0.19025625 -0.42251975 -0.18277175
v 0.14839607 -0.43485255 -0.17997176
v 0.16166888 -0.42587898 -0.18128342
v 0.14940500 -0.45489600 -0.18728000
v 0.15484548 -0.44132197 -0.18828229
v 0.15863550 -0.43764958 -0.18863554
v 0.16551242 -0.43103096 -0.18864189
v 0.14541760 -0.45157609 -0.18773159
v 0.18757633 -0.42390696 -0.18490095
v 0.19429675 -0.42278883 -0.18265438
v 0.20795860 -0.42345517 -0.17863107
v 0.21722796 -0.42665984 -0.17552581
v 0.28397799 -0.43668899 -0.14296401
v 0.27786493 -0.43414195 -0.14442864
v 0.27742559 -0.43888818 -0.14850380
v 0.27968049 -0.44201499 -0.14798049
v 0.27283899 -0.43990451 -0.15064800
v 0.28603101 -0.44206399 -0.14393000
v 0.28340000 -0.44243401 -0.14575601
v 0.26642599 -0.44008251 -0.15237650
v 0.26706862 -0.43610128 -0.14989978
v 0.28428583 -0.43443480 -0.14041186
v 0.29473299 -0.44060799 -0.13459100
v 0.29020200 -0.43924637 -0.13927001
v 0.26231710 -0.43754543 -0.15335962
v 0.26713638 -0.44398013 -0.15365013
v 0.25587373 -0.43778670 -0.16117390
v 0.25327799 -0.44080800 -0.16125000
v 0.24955975 -0.44830900 -0.16036049
v 0.24628700 -0.44391501 -0.16301000
v 0.28678941 -0.43432005 -0.13827941
v 0.29065424 -0.43550386 -0.13482650
v 0.25824167 -0.43945363 -0.15758829
v 0.25429100 -0.44321351 -0.15851950
v 0.25176701 -0.44894299 -0.15436999
v 0.29296063 -0.43661540 -0.13289526
v 0.25695699 -0.44229099 -0.15320700
v 0.26083076 -0.44732050 -0.15541426
v 0.30192071 -0.47442286 -0.11278012
v 0.30136013 -0.47793250 -0.11150550
v 0.30225300 -0.45692150 -0.11895900
v 0.30174396 -0.45908951 -0.12254383
v 0.30114802 -0.45407997 -0.12494799
v 0.30036643 -0.45303485 -0.12796613
v 0.29867150 -0.44844250 -0.13087751
v 0.29683974 -0.44304250 -0.13201638
v 0.29871601 -0.45218101 -0.13082300
v 0.29873201 -0.45970699 -0.12874299
v 0.30072721 -0.46398025 -0.12367433
v 0.29868001 -0.46720701 -0.12472100
v 0.29759601 -0.46302801 -0.12855600
v 0.24109733 -0.46555145 -0.15593105
v 0.23960024 -0.46917163 -0.15530400
v 0.24670969 -0.45488399 -0.15745180
v 0.23558750 -0.47596399 -0.15640050
v 0.23491325 -0.47314924 -0.15931700
v 0.24567300 -0.45452601 -0.16030150
v 0.23951399 -0.46582401 -0.15932000
v 0.24339400 -0.45831001 -0.16024400
v 0.24366700 -0.46162750 -0.15522000
v 0.28653337 -0.47241363 -0.13340400
v 0.26070601 -0.49107501 -0.13666700
v 0.26818550 -0.48528850 -0.13741975
v 0.24928901 -0.49384701 -0.14148800
v 0.23323550 -0.49491550 -0.14848750
v 0.21923851 -0.49494700 -0.15480451
v 0.19906101 -0.49393800 -0.16378000
v 0.21777232 -0.45114245 -0.17134146
v 0.21449162 -0.44755325 -0.17310613
v 0.21547000 -0.45390901 -0.17292500
v 0.22007421 -0.45718590 -0.16961419
v 0.21719891 -0.46293568 -0.17084276
v 0.20767894 -0.45544967 -0.17636700
v 0.21920050 -0.46217162 -0.16923900
v 0.21236754 -0.47925117 -0.16732549
v 0.22287107 -0.47293436 -0.16413629
v 0.21754351 -0.47960700 -0.16460600
v 0.20736399 -0.47485501 -0.17111300
v 0.21254270 -0.49410836 -0.15837625
v 0.19992000 -0.48495701 -0.16913100
v 0.21048000 -0.47501001 -0.16980900
v 0.20436716 -0.46948286 -0.17439010
v 0.19809666 -0.44814044 -0.18070041
v 0.20650870 -0.44444919 -0.17750990
v 0.23005793 -0.48637904 -0.15467654
v 0.23472146 -0.48609684 -0.15310106
v 0.22688894 -0.47765022 -0.15889803
v 0.23133416 -0.45592884 -0.16581768
v 0.23324150 -0.45379400 -0.16621125
v 0.22889341 -0.45437582 -0.16554634
v 0.23374415 -0.44992060 -0.16684128
v 0.23073018 -0.44865395 -0.16826292
v 0.23514672 -0.47935515 -0.15475621
v 0.25849347 -0.45358047 -0.15670278
v 0.26169699 -0.45316800 -0.15600801
v 0.25637394 -0.45185845 -0.15637214
v 0.25386826 -0.46387950 -0.15588575
v 0.24887033 -0.46689637 -0.15563089
v 0.24544017 -0.48160176 -0.15207295
v 0.22049500 -0.48106501 -0.16244000
v 0.21174589 -0.48811096 -0.16311022
v 0.25809803 -0.48156060 -0.14652057
v 0.27431520 -0.47172730 -0.14294141
v 0.26119200 -0.47023016 -0.15105891
v 0.25825522 -0.46078314 -0.15582692
v 0.26746287 -0.46213300 -0.15099400
v 0.28028125 -0.46573501 -0.14184725
v 0.27628375 -0.45986139 -0.14723477
v 0.27502999 -0.45446000 -0.14942899
v 0.27239304 -0.44869166 -0.15213746
v 0.27670138 -0.44568464 -0.15000124
v 0.29006483 -0.44746026 -0.14099858
v 0.29758207 -0.44957935 -0.13301528
v 0.29350150 -0.45208550 -0.13682400
v 0.28852800 -0.44354501 -0.14217199
v 0.26921144 -0.47922438 -0.14150128
v 0.28261194 -0.47224264 -0.13709397
v 0.29340715 -0.46415911 -0.13249062
v 0.29175321 -0.45792423 -0.13684680
v 0.26406899 -0.48494101 -0.14048301
v 0.22207525 -0.48574525 -0.15937675
v 0.22369325 -0.46951301 -0.16408075
v 0.25197911 -0.48827196 -0.14491595
v 0.28381699 -0.46168801 -0.14147000
v 0.20977300 -0.44996101 -0.17602500
v 0.21164200 -0.44749299 -0.17510401
v 0.28550950 -0.45502501 -0.14240956
v 0.22677483 -0.46900568 -0.16057539
v 0.22437200 -0.46205100 -0.16411200
v 0.29128299 -0.46150700 -0.13559100
v 0.29221100 -0.44403800 -0.13898700
v 0.26052876 -0.47579850 -0.14843675
v 0.22279100 -0.45785701 -0.16634500
v 0.23023750 -0.46315751 -0.16358701
v 0.23058350 -0.48056450 -0.15723750
v 0.21701049 -0.44582686 -0.17063182
f 3 5 32
f 46 5 3
f 3 32 2
f 32 5 35
f 46 41 5
f 2 10 3
f 5 40 35
f 41 40 5
f 1 10 2
f 35 40 38
f 41 39 40
f 1 2 4
f 36 35 38
f 40 39 38
f 35 36 31
f 39 42 38
f 34 35 31
f 31 36 37
f 38 42 43
f 52 34 31
f 34 32 35
f 37 36 38
f 38 43 33
f 51 52 31
f 52 32 34
f 37 38 58
f 33 56 38
f 51 31 50
f 53 52 51
f 52 27 32
f 58 38 57
f 31 49 50
f 27 26 32
f 61 27 52
f 58 57 49
f 31 59 49
f 25 26 27
f 30 32 26
f 63 27 61
f 49 57 48
f 37 58 49
f 59 31 37
f 59 37 49
f 25 30 26
f 25 27 63
f 30 4 32
f 63 61 62
f 48 47 49
f 7 30 25
f 63 64 25
f 13 4 30
f 48 60 47
f 49 47 54
f 28 7 25
f 7 13 30
f 64 21 25
f 55 49 54
f 28 6 7
f 25 22 28
f 21 22 25
f 20 21 64
f 50 49 55
f 8 6 28
f 22 23 28
f 20 22 21
f 19 20 64
f 28 11 8
f 20 23 22
f 16 19 64
f 8 11 6
f 12 11 28
f 20 18 23
f 28 23 12
f 15 18 20
f 18 24 23
f 23 9 12
f 14 18 15
f 23 24 9
f 14 17 18
f 24 142 9
f 142 181 9
f 144 142 24
f 142 186 181
f 144 140 142
f 140 186 142
f 186 180 181
f 141 140 144
f 140 108 186
f 108 180 186
f 141 108 140
f 143 141 144
f 108 139 180
f 141 110 108
f 17 141 143
f 143 144 29
f 108 187 139
f 111 110 141
f 17 143 29
f 144 24 29
f 187 137 139
f 137 173 139
f 145 137 187
f 137 117 173
f 139 173 152
f 145 138 137
f 107 145 187
f 138 117 137
f 173 117 153
f 152 129 139
f 152 173 129
f 151 138 145
f 105 145 107
f 117 138 151
f 117 131 153
f 173 153 127
f 139 129 124
f 129 173 127
f 149 151 145
f 105 107 108
f 175 117 151
f 117 118 131
f 153 131 119
f 127 153 132
f 129 127 124
f 150 149 145
f 154 151 149
f 105 108 110
f 116 117 175
f 151 154 175
f 118 119 131
f 153 119 132
f 133 127 132
f 127 133 124
f 150 145 105
f 112 149 150
f 149 184 154
f 109 105 110
f 114 116 175
f 172 175 154
f 124 133 134
f 150 105 104
f 146 149 112
f 112 150 104
f 184 149 156
f 168 154 184
f 105 109 106
f 115 114 175
f 168 172 154
f 115 175 172
f 125 124 134
f 133 130 134
f 148 146 112
f 147 149 146
f 157 156 149
f 155 184 156
f 155 168 184
f 106 109 81
f 115 172 168
f 122 124 125
f 148 112 87
f 90 146 148
f 147 146 90
f 147 157 149
f 158 156 157
f 159 155 156
f 169 168 155
f 106 81 86
f 113 115 168
f 122 123 124
f 122 125 135
f 89 148 87
f 90 148 89
f 162 157 147
f 159 156 158
f 160 158 157
f 169 155 159
f 169 113 168
f 87 106 86
f 120 123 122
f 123 126 124
f 177 122 135
f 78 162 147
f 160 157 162
f 160 159 158
f 170 169 159
f 113 169 170
f 89 87 86
f 87 112 106
f 120 122 121
f 9 123 120
f 185 126 123
f 128 124 126
f 136 177 135
f 78 163 162
f 161 160 162
f 159 160 176
f 182 170 159
f 100 113 170
f 89 86 85
f 188 120 121
f 188 9 120
f 9 185 123
f 174 128 126
f 178 177 136
f 69 163 78
f 164 162 163
f 161 179 160
f 179 161 162
f 179 176 160
f 171 170 182
f 100 170 171
f 85 86 79
f 77 89 85
f 188 121 45
f 9 188 45
f 139 128 174
f 44 178 136
f 68 163 69
f 164 179 162
f 71 164 163
f 171 182 179
f 77 85 79
f 86 80 79
f 45 121 44
f 68 71 163
f 164 166 179
f 70 164 71
f 79 80 82
f 165 166 164
f 167 164 70
f 165 164 183
f 165 100 166
f 76 164 167
f 183 164 76
f 165 183 98
f 99 100 165
f 75 183 76
f 97 165 98
f 75 98 183
f 96 100 99
f 97 99 165
f 88 75 76
f 96 99 98
f 96 94 100
f 88 76 83
f 95 94 96
f 94 101 100
f 83 76 74
f 88 83 84
f 95 96 75
f 94 91 101
f 100 101 103
f 76 65 74
f 93 91 94
f 91 92 101
f 101 102 103
f 65 67 74
f 76 67 65
f 75 93 94
f 101 92 102
f 74 67 66
f 76 71 67
f 66 67 73
f 83 74 66
f 67 71 69
f 76 70 71
f 67 69 73
f 73 69 72
f 73 72 77

