# https://github.com/mikedh/trimesh
v -0.21595075 0.23447800 -0.13213600
v -0.03886800 0.42072001 -0.06755600
v -0.08971187 0.39279862 -0.06807400
v -0.04781300 0.40917501 -0.06617300
v -0.04160006 0.41044412 -0.06528335
v -0.16862950 0.33989974 -0.07900650
v -0.18516000 0.30802399 -0.08220000
v -0.19051100 0.29405701 -0.08370300
v 0.03400600 0.48081601 -0.09362500
v 0.07989100 0.37159450 -0.06685250
v 0.06475842 0.47992437 -0.10837453
v 0.07937108 0.47300106 -0.10922393
v 0.06690133 0.47587027 -0.10213446
v 0.08877116 0.46788292 -0.10900562
v 0.10373481 0.45942255 -0.11126267
v 0.09516600 0.46596869 -0.11486127
v 0.08952080 0.46504732 -0.10427855
v 0.07940287 0.47526362 -0.11637204
v 0.11335430 0.45413853 -0.11616463
v 0.10142449 0.46274903 -0.11795423
v 0.06842153 0.48033139 -0.11609934
v 0.07488175 0.47776975 -0.11988675
v 0.13704812 0.43311076 -0.11497215
v 0.11830245 0.44745359 -0.10888960
v 0.12858031 0.44086132 -0.11383947
v 0.10649858 0.45389242 -0.10472355
v 0.10416125 0.46094575 -0.12091450
v 0.11920400 0.45041600 -0.12141700
v 0.12910099 0.44196701 -0.12128400
v 0.14960184 0.41808281 -0.11233020
v 0.06034200 0.48376301 -0.11736400
v 0.05757575 0.48105338 -0.10586225
v 0.15001638 0.41935788 -0.11823950
v 0.12944814 0.43622203 -0.10713371
v 0.11248519 0.44673570 -0.10124845
v 0.11584092 0.43849844 -0.09582262
v 0.13469215 0.43024123 -0.10594949
v 0.08941209 0.46198718 -0.09984848
v 0.06517150 0.47090512 -0.09540488
v 0.12762118 0.42326792 -0.09281516
v 0.08222970 0.46122712 -0.09427276
v 0.05071276 0.47314928 -0.09097382
v 0.02045050 0.48870650 -0.10053000
v 0.02875759 0.48146183 -0.09284451
v 0.01927178 0.48556303 -0.09539281
v 0.00723863 0.48585414 -0.09385497
v 0.01626900 0.49015501 -0.10207400
v 0.03925248 0.47308022 -0.08776840
v 0.02966455 0.47565028 -0.08765933
v -0.00097850 0.49183500 -0.10300800
v 0.01132367 0.47973778 -0.08852256
v -0.02134900 0.47436750 -0.08427900
v -0.00845600 0.47021613 -0.08164700
v -0.02158838 0.48016696 -0.08831254
v -0.01123200 0.48040199 -0.08814000
v -0.03525963 0.47984538 -0.09009662
v -0.01412392 0.48434839 -0.09137966
v -0.02761651 0.48393746 -0.09259806
v 0.00287769 0.48954835 -0.09849314
v -0.01171683 0.49034484 -0.09926036
v -0.02909115 0.48685295 -0.09635379
v -0.00523605 0.49114416 -0.10079811
v -0.03638600 0.48622301 -0.09710600
v -0.03605500 0.48921099 -0.10198900
v -0.02016150 0.49224201 -0.10448300
v -0.02147341 0.49026064 -0.10002287
v -0.03965325 0.49091850 -0.10819300
v -0.03252869 0.48548620 -0.09654288
v 0.15203076 0.40790010 -0.10330155
v 0.16037623 0.39030291 -0.09936691
v 0.15781090 0.40531114 -0.10889321
v 0.16555826 0.38959933 -0.10527275
v 0.16139799 0.40257800 -0.11309900
v 0.18050009 0.36205424 -0.10530932
v 0.16647001 0.39449301 -0.11280200
v 0.18304675 0.35631508 -0.10579288
v 0.17204150 0.38527300 -0.11298400
v 0.17979600 0.37082300 -0.11298800
v 0.17351401 0.37780752 -0.10689932
v 0.15458569 0.40096300 -0.10087282
v 0.18676452 0.34288223 -0.10342415
v 0.18768400 0.34862150 -0.10888600
v 0.19148000 0.33643299 -0.10767000
v 0.18090200 0.36725199 -0.11132500
v 0.18302139 0.33678356 -0.09641401
v 0.19191250 0.33058199 -0.10513950
v 0.17343175 0.36088319 -0.09647183
v 0.16429274 0.37743426 -0.09613635
v 0.19406600 0.32039899 -0.10401400
v 0.19038563 0.32445822 -0.10015738
v 0.19402100 0.31526500 -0.10210200
v 0.16441750 0.36842379 -0.09225883
v 0.14154740 0.40833003 -0.09428286
v 0.13460645 0.42082637 -0.09691199
v 0.14984727 0.39436586 -0.09307217
v 0.18319496 0.32267986 -0.09289459
v 0.17344026 0.33832182 -0.08957117
v 0.15384952 0.37479964 -0.08785044
v 0.16592500 0.34534883 -0.08667725
v 0.14490135 0.39086548 -0.08829366
v 0.18228938 0.31362296 -0.09035866
v 0.16081155 0.35046156 -0.08509833
v 0.13680841 0.39057871 -0.08410788
v 0.13201401 0.40220600 -0.08618200
v 0.13902173 0.37647628 -0.08116073
v 0.17373124 0.32215792 -0.08674634
v 0.12899099 0.40339699 -0.08522700
v 0.11538727 0.41002001 -0.08191289
v 0.18642400 0.29611200 -0.09117600
v 0.18939112 0.29924606 -0.09377055
v 0.16324657 0.31850530 -0.08121899
v 0.15455097 0.34207817 -0.08076595
v 0.11360283 0.42672854 -0.08776034
v 0.09124681 0.43463136 -0.08257721
v 0.14762799 0.35418200 -0.08021700
v 0.17084500 0.31486699 -0.08428400
v 0.12879159 0.36532833 -0.07592839
v 0.13919459 0.36553014 -0.07931135
v 0.17247200 0.30708101 -0.08421400
v 0.09451834 0.44325736 -0.08776372
v 0.07811286 0.42947948 -0.07716418
v 0.09462485 0.41640131 -0.07742054
v 0.15376663 0.30037374 -0.07665925
v 0.12591165 0.34987847 -0.07312284
v 0.14200999 0.34921396 -0.07738628
v 0.14623908 0.32766946 -0.07612746
v 0.14868284 0.32077197 -0.07628101
v 0.16800449 0.30374399 -0.08189450
v 0.11551807 0.39159116 -0.07698155
v 0.08994331 0.41146405 -0.07518781
v 0.09912090 0.39221827 -0.07334093
v 0.07531157 0.44060686 -0.08031854
v 0.06111259 0.45067056 -0.08059072
v 0.06161580 0.43440651 -0.07506467
v 0.04747821 0.43975114 -0.07416276
v 0.03475222 0.44011834 -0.07264907
v 0.01505105 0.45962755 -0.07720280
v 0.04213881 0.42672217 -0.07027308
v 0.03402853 0.45466919 -0.07733477
v 0.04838790 0.46160003 -0.08280112
v -0.00527338 0.44670076 -0.07228762
v 0.00348100 0.45256801 -0.07422600
v -0.00406050 0.45947200 -0.07652800
v 0.06938653 0.45812602 -0.08672373
v 0.01634511 0.46655588 -0.08069092
v 0.00342900 0.45863000 -0.07635800
v -0.00072603 0.47317274 -0.08305912
v 0.01582636 0.47393677 -0.08478746
v 0.02900483 0.46981190 -0.08353805
v 0.19240844 0.29525717 -0.09578075
v 0.19400500 0.29308400 -0.09716500
v 0.19109300 0.30948099 -0.09711500
v 0.08485894 0.37058367 -0.06835595
v 0.07690292 0.38335640 -0.06850649
v -0.07569417 0.40442968 -0.06774246
v -0.08113207 0.41294074 -0.06982472
v -0.06364068 0.42862406 -0.07090489
v -0.11956939 0.38565500 -0.07166150
v -0.09378054 0.40969924 -0.07113026
v -0.07699165 0.43026091 -0.07324843
v -0.05699975 0.44722475 -0.07553675
v -0.04977159 0.44279873 -0.07297959
v -0.04116100 0.45375600 -0.07584800
v -0.05288700 0.45134601 -0.07631500
v -0.03418000 0.45118499 -0.07439600
v -0.02724450 0.44784750 -0.07295050
v -0.11111800 0.40774150 -0.07452550
v -0.08749200 0.43244050 -0.07594000
v -0.13638356 0.37751703 -0.07458641
v -0.15187449 0.36540149 -0.07722800
v -0.13747888 0.36408138 -0.07314250
v -0.15286900 0.36235401 -0.07695800
v -0.14530200 0.37740099 -0.07741500
v -0.13175362 0.39091763 -0.07621875
v -0.13536550 0.38676451 -0.07628000
v -0.04602896 0.43642271 -0.07088216
v -0.05058800 0.42206310 -0.06825891
v -0.11364646 0.38104517 -0.06985695
v -0.06255075 0.44599875 -0.07587650
v -0.00613487 0.42524775 -0.06765188
v -0.03056375 0.44490775 -0.07225875
v 0.00740703 0.44343248 -0.07148251
v -0.01334772 0.43221178 -0.06858645
v -0.01963484 0.43201038 -0.06852427
v 0.00779418 0.42679259 -0.06794704
v 0.01668960 0.42657273 -0.06820795
v 0.05871800 0.41651201 -0.07068500
v 0.07484480 0.40412669 -0.07078931
v 0.03330250 0.41356750 -0.06679800
v 0.02835400 0.42073150 -0.06770100
v 0.05700075 0.39428926 -0.06686075
v 0.07083761 0.38810199 -0.06815676
v 0.10532388 0.35325957 -0.06975582
v 0.09299475 0.34625825 -0.06760625
v 0.09733800 0.34014499 -0.06749300
v 0.09655100 0.35326950 -0.06853900
v 0.04396287 0.40040701 -0.06650362
v 0.09395200 0.39651999 -0.07312700
v 0.05764213 0.42340468 -0.07182797
v 0.09759780 0.38301385 -0.07144627
v 0.10043418 0.36537895 -0.07009004
v 0.02432375 0.42285251 -0.06787875
v -0.06536275 0.48613324 -0.11706625
v -0.08331300 0.47987100 -0.12325600
v -0.16199436 0.42150343 -0.12776785
v -0.15662704 0.42764037 -0.12095060
v -0.14858597 0.43637085 -0.12466228
v -0.17167846 0.40936403 -0.12257997
v -0.15444311 0.42930699 -0.11745152
v -0.17549661 0.40370274 -0.12815337
v -0.16601855 0.41598555 -0.11773734
v -0.18764905 0.38375346 -0.12854500
v -0.17022550 0.40933950 -0.13096381
v -0.13924624 0.44461117 -0.11864318
v -0.18942343 0.38077883 -0.12544789
v -0.18440420 0.38875834 -0.11725961
v -0.16710958 0.41093856 -0.10893656
v -0.19681679 0.36559869 -0.12483442
v -0.17696839 0.40150268 -0.11873535
v -0.18219645 0.39043457 -0.11265515
v -0.19984036 0.35815625 -0.12840910
v -0.20096464 0.35576542 -0.12300195
v -0.17610800 0.39844799 -0.10983100
v -0.19778160 0.36034159 -0.11336801
v -0.20821839 0.33512980 -0.12338535
v -0.20625824 0.34007555 -0.11692004
v -0.19238145 0.37318576 -0.11515200
v -0.19948178 0.35123014 -0.10760683
v -0.18572403 0.38628564 -0.11534589
v -0.21189450 0.32034700 -0.12113300
v -0.20926644 0.33025444 -0.11840734
v -0.20395949 0.34486001 -0.13046350
v -0.20723588 0.33574137 -0.12654212
v -0.14722898 0.43636910 -0.11525656
v -0.21401399 0.30757400 -0.11634900
v -0.14935281 0.43221436 -0.11035321
v -0.18077831 0.38790612 -0.10558567
v -0.21345935 0.30488162 -0.11071429
v -0.15585446 0.42482267 -0.10936810
v -0.20363401 0.33615358 -0.10529518
v -0.21146379 0.30613229 -0.10589973
v -0.20642776 0.32893069 -0.10639339
v -0.13766843 0.44345306 -0.11058380
v -0.21161500 0.30225801 -0.10545300
v -0.21556699 0.29589099 -0.11476200
v -0.13462219 0.44241204 -0.10392893
v -0.14871449 0.42831253 -0.10247403
v -0.20332484 0.32291777 -0.09894373
v -0.14353983 0.42994326 -0.09885505
v -0.19392521 0.35101905 -0.09869483
v -0.21654600 0.28599900 -0.11381700
v -0.21127068 0.29735743 -0.10269275
v -0.21612900 0.27583775 -0.10975125
v -0.12612672 0.44828453 -0.10200900
v -0.21481373 0.27839316 -0.10588268
v -0.20005687 0.31869287 -0.09451500
v -0.21137000 0.27836099 -0.10009250
v -0.14719108 0.42419100 -0.09661972
v -0.13050120 0.43894093 -0.09595874
v -0.11726241 0.45555398 -0.10264787
v -0.11119120 0.45062045 -0.09297593
v -0.11592827 0.44303756 -0.09004785
v -0.11069737 0.45542211 -0.09685562
v -0.08478102 0.46090586 -0.08822718
v -0.06116048 0.46878862 -0.08653791
v -0.08900485 0.46422326 -0.09270102
v -0.05128487 0.47367094 -0.08757733
v -0.06629329 0.47339779 -0.09201530
v -0.06323589 0.47640836 -0.09387353
v -0.10198874 0.46686002 -0.10537358
v -0.04737557 0.48065742 -0.09298692
v -0.07389100 0.47443101 -0.09654600
v -0.09242107 0.46719544 -0.09803584
v -0.08249344 0.47416191 -0.10126910
v -0.05397381 0.48355354 -0.09889911
v -0.04372037 0.48638958 -0.09917814
v -0.08441422 0.47629053 -0.10681312
v -0.06906990 0.47970071 -0.10079172
v -0.10256460 0.46844674 -0.11055208
v -0.05224263 0.48571857 -0.10207380
v -0.06054003 0.48571363 -0.10738062
v -0.04350472 0.48968568 -0.10618225
v -0.08645223 0.47726963 -0.11230195
v -0.10261481 0.46968682 -0.11539966
v -0.06126619 0.48632349 -0.10994744
v -0.12373660 0.45608518 -0.11336916
v -0.08355901 0.47936212 -0.11710266
v -0.12630797 0.45434828 -0.11557384
v -0.13257200 0.45015100 -0.12029700
v -0.07280163 0.48389528 -0.11825622
v -0.10489874 0.46914053 -0.12063661
v -0.12892857 0.45349780 -0.12326421
v -0.15135901 0.43289500 -0.12951601
v -0.19482601 0.36681399 -0.13265800
v -0.19680850 0.36277699 -0.13193550
v -0.17390991 0.39629415 -0.10301168
v -0.16016366 0.41704022 -0.10512324
v -0.17438868 0.39344788 -0.10115894
v -0.16547973 0.40754179 -0.10182813
v -0.18747931 0.37143898 -0.10194516
v -0.17514039 0.38812190 -0.09817504
v -0.16054972 0.40779541 -0.09662074
v -0.15009958 0.42199545 -0.09811917
v -0.18151350 0.37230778 -0.09534856
v -0.16997109 0.37948470 -0.08945296
v -0.18325687 0.36151658 -0.09225447
v -0.15748606 0.39530977 -0.08797606
v -0.17141217 0.36416384 -0.08476121
v -0.18482298 0.34780123 -0.08909940
v -0.13468949 0.42625052 -0.08947891
v -0.17351051 0.36283931 -0.08610348
v -0.14858144 0.39181046 -0.08238091
v -0.15234128 0.39216363 -0.08427824
v -0.13784408 0.41469901 -0.08555600
v -0.18002929 0.34313439 -0.08496610
v -0.14114104 0.40023665 -0.08185028
v -0.15826604 0.36732942 -0.07980506
v -0.12158875 0.42849150 -0.08437800
v -0.18130763 0.32974296 -0.08306185
v -0.18748100 0.31818500 -0.08472500
v -0.19465527 0.32768315 -0.09105884
v -0.13887946 0.38969248 -0.07802625
v -0.11383700 0.42499101 -0.08033700
v -0.19483151 0.29875651 -0.08672900
v -0.19407301 0.31250900 -0.08804700
v -0.18692766 0.31183664 -0.08341311
v -0.12169413 0.41551385 -0.07930150
v -0.10767625 0.41986076 -0.07670972
v -0.09588284 0.45045331 -0.08550644
v -0.09016268 0.43881384 -0.07855079
v -0.07532802 0.45215574 -0.08071477
v -0.04896820 0.45783572 -0.07823495
v -0.01853437 0.45626946 -0.07513266
v -0.02042061 0.46139834 -0.07726292
v -0.05726140 0.46438254 -0.08274877
v -0.04504375 0.46752398 -0.08254189
v -0.02508689 0.46699240 -0.08002940
v -0.03622252 0.47189247 -0.08389457
v -0.20866920 0.19450247 -0.12612642
v -0.21067700 0.20171501 -0.12128400
v -0.20676000 0.18876650 -0.12276500
v -0.21170489 0.20507948 -0.12553054
v -0.21601550 0.22572461 -0.12284466
v -0.21631113 0.23377350 -0.11681063
v -0.21812202 0.24690486 -0.11959081
v -0.20884401 0.19556950 -0.12057950
v -0.21630392 0.24117114 -0.11190370
v -0.21864478 0.26934487 -0.12016725
v -0.21802101 0.25760701 -0.11585600
v -0.21506650 0.23589100 -0.10963900
v -0.21829514 0.24673474 -0.12614701
v -0.21856737 0.26111752 -0.12786151
v -0.21831688 0.27662839 -0.12520651
v -0.21794694 0.27571301 -0.11676947
v -0.21701595 0.29083101 -0.12660870
v -0.21781763 0.25173485 -0.13110605
v -0.21107656 0.20689668 -0.13199123
v -0.21697750 0.26972851 -0.11166050
v -0.21670936 0.29011705 -0.12995543
v -0.21753899 0.26284445 -0.13272965
v -0.21532983 0.22425708 -0.12967260
v -0.21442466 0.23026392 -0.13536055
v -0.21604450 0.29858880 -0.12014379
v -0.21414222 0.31072882 -0.12693616
v -0.21743060 0.27064845 -0.13272927
v -0.21191662 0.31950189 -0.12975678
v -0.21354900 0.22183500 -0.13356900
v -0.20461699 0.18300100 -0.12649199
v -0.20325899 0.17992550 -0.12763250
v -0.21549522 0.28880852 -0.13448125
v -0.21407099 0.29910700 -0.13388901
v -0.20713216 0.19509582 -0.13394854
v -0.20879851 0.20284025 -0.13462220
v -0.21232178 0.21818426 -0.13472356
v -0.20555466 0.33855491 -0.13298248
v -0.21484112 0.26007550 -0.13731746
v -0.21459350 0.28386850 -0.13613750
v -0.20260709 0.18406180 -0.13512477
v -0.20859438 0.20948163 -0.13741378
v -0.19748770 0.35900470 -0.13477285
v -0.19437575 0.16348900 -0.13346424
v -0.20160129 0.18791743 -0.13830818
v -0.21421862 0.24154227 -0.13720143
v -0.21231600 0.25419875 -0.13891425
v -0.20120253 0.17818588 -0.13388624
v -0.19251061 0.37057034 -0.13395947
v -0.18737400 0.38071099 -0.13414299
v -0.19637699 0.17376600 -0.13764399
v -0.19059600 0.16169600 -0.13766700
v -0.18481800 0.38015400 -0.13805050
v -0.20647250 0.21084800 -0.13949399
v -0.18994202 0.36846582 -0.13877006
v -0.19967575 0.34811663 -0.13665575
v -0.17376139 0.39637415 -0.13965626
f 384 383 376
f 365 376 383
f 377 384 376
f 370 376 365
f 360 365 383
f 376 370 377
f 359 370 365
f 360 383 356
f 370 371 377
f 353 359 365
f 370 359 366
f 352 360 356
f 356 383 362
f 355 359 353
f 353 365 360
f 366 359 364
f 371 370 366
f 352 356 351
f 353 360 352
f 356 362 1
f 363 355 353
f 364 359 355
f 366 364 232
f 366 393 371
f 348 352 351
f 356 361 351
f 353 352 348
f 356 1 361
f 1 362 361
f 348 363 353
f 364 355 363
f 230 232 364
f 232 375 366
f 375 393 366
f 348 351 345
f 351 361 343
f 362 367 361
f 363 348 354
f 235 364 363
f 230 364 235
f 232 380 375
f 393 375 380
f 349 348 345
f 345 351 343
f 343 361 342
f 367 374 361
f 374 367 362
f 349 354 348
f 363 354 251
f 235 363 245
f 294 380 232
f 392 393 380
f 347 349 345
f 345 343 344
f 344 343 342
f 361 357 342
f 374 357 361
f 362 379 374
f 358 354 349
f 251 354 358
f 245 363 251
f 235 245 238
f 386 380 294
f 390 392 380
f 347 345 344
f 350 349 347
f 340 344 342
f 372 342 357
f 379 357 374
f 391 379 362
f 358 349 350
f 238 245 251
f 238 233 235
f 387 386 294
f 387 380 386
f 390 380 387
f 394 392 390
f 347 344 350
f 340 342 346
f 342 372 339
f 373 372 357
f 379 373 357
f 384 391 362
f 391 382 379
f 238 251 253
f 231 233 238
f 342 339 346
f 339 372 385
f 379 372 373
f 379 382 372
f 238 253 255
f 231 225 233
f 231 238 242
f 346 339 341
f 339 385 369
f 372 378 385
f 378 372 382
f 252 238 255
f 255 253 257
f 225 221 233
f 226 231 242
f 242 238 241
f 341 339 368
f 339 369 368
f 369 385 381
f 378 382 385
f 238 252 244
f 252 255 257
f 226 221 225
f 295 233 221
f 226 225 231
f 240 226 242
f 238 244 241
f 242 241 252
f 389 381 385
f 382 388 385
f 241 244 252
f 256 252 257
f 222 221 226
f 212 295 221
f 228 226 240
f 240 242 248
f 248 242 252
f 385 388 389
f 256 248 252
f 218 221 222
f 224 222 226
f 215 212 221
f 228 224 226
f 228 240 250
f 250 240 248
f 321 248 256
f 221 218 215
f 227 218 222
f 227 222 224
f 219 212 215
f 300 224 228
f 250 300 228
f 321 250 248
f 321 256 325
f 227 215 218
f 300 227 224
f 219 210 212
f 219 215 216
f 304 300 250
f 250 321 306
f 321 325 326
f 229 215 227
f 237 227 300
f 210 213 212
f 208 210 219
f 216 215 229
f 220 219 216
f 306 304 250
f 304 301 300
f 306 321 309
f 320 321 326
f 326 325 324
f 237 229 227
f 301 237 300
f 205 213 210
f 208 205 210
f 211 208 219
f 229 220 216
f 223 219 220
f 305 304 306
f 302 301 304
f 306 309 311
f 309 321 315
f 320 319 321
f 319 320 326
f 326 324 8
f 237 220 229
f 298 237 301
f 293 213 205
f 208 206 205
f 211 206 208
f 217 211 219
f 217 219 223
f 223 220 237
f 307 304 305
f 305 306 311
f 301 302 298
f 307 302 304
f 311 309 315
f 315 321 319
f 6 319 326
f 326 8 7
f 296 237 298
f 207 293 205
f 206 207 205
f 209 206 211
f 239 211 217
f 237 217 223
f 307 305 308
f 305 311 308
f 302 296 298
f 310 302 307
f 311 315 308
f 308 315 319
f 308 319 6
f 6 326 7
f 296 299 237
f 234 207 206
f 234 206 209
f 234 209 211
f 239 234 211
f 297 239 217
f 299 217 237
f 313 307 308
f 299 296 302
f 310 258 302
f 307 314 310
f 317 308 6
f 236 234 239
f 299 297 217
f 247 239 297
f 307 313 312
f 313 308 312
f 299 302 258
f 310 259 258
f 316 314 307
f 318 310 314
f 170 317 6
f 312 308 317
f 234 236 247
f 247 236 239
f 247 297 299
f 316 307 312
f 303 299 258
f 259 249 258
f 261 259 310
f 327 314 316
f 329 310 318
f 318 314 327
f 173 317 170
f 316 312 317
f 243 234 247
f 303 247 299
f 249 303 258
f 254 249 259
f 263 259 261
f 261 310 262
f 327 316 322
f 329 262 310
f 329 318 330
f 327 323 318
f 174 317 173
f 322 316 317
f 243 214 234
f 246 243 247
f 249 247 303
f 254 246 249
f 263 254 259
f 263 261 266
f 329 261 262
f 327 322 174
f 318 323 330
f 331 329 330
f 330 323 327
f 174 322 317
f 288 214 243
f 254 243 246
f 249 246 247
f 263 260 254
f 266 261 329
f 273 263 266
f 328 327 174
f 335 329 331
f 332 331 330
f 328 330 327
f 288 289 214
f 254 286 243
f 260 286 254
f 263 270 260
f 264 266 329
f 273 270 263
f 278 273 266
f 168 328 174
f 335 264 329
f 335 331 332
f 332 330 179
f 330 328 168
f 292 214 289
f 288 292 289
f 260 270 286
f 266 264 268
f 274 270 273
f 272 278 266
f 278 274 273
f 265 264 335
f 335 332 337
f 179 330 168
f 332 179 164
f 279 286 270
f 265 268 264
f 269 266 268
f 274 277 270
f 272 266 269
f 278 272 269
f 274 278 277
f 265 335 267
f 334 337 332
f 337 336 335
f 332 164 163
f 267 268 265
f 269 268 267
f 277 284 270
f 275 278 269
f 278 281 277
f 336 267 335
f 334 332 333
f 334 53 337
f 338 336 337
f 333 332 163
f 267 271 269
f 277 283 284
f 271 275 269
f 276 278 275
f 277 281 283
f 280 281 278
f 338 267 336
f 334 333 143
f 53 334 143
f 52 337 53
f 52 338 337
f 333 163 166
f 56 271 267
f 283 291 284
f 276 275 271
f 280 278 276
f 281 285 283
f 276 281 280
f 56 267 338
f 143 333 142
f 53 54 52
f 52 56 338
f 141 333 166
f 56 276 271
f 281 282 285
f 285 290 283
f 276 282 281
f 142 333 141
f 52 54 68
f 147 54 53
f 56 63 276
f 67 285 282
f 283 290 287
f 203 290 285
f 64 282 276
f 137 147 53
f 55 54 147
f 63 64 276
f 64 67 282
f 67 203 285
f 203 204 290
f 137 53 146
f 137 145 147
f 55 57 54
f 57 55 147
f 137 146 141
f 149 145 137
f 145 149 147
f 57 58 54
f 51 57 147
f 137 141 182
f 140 149 137
f 148 147 149
f 58 57 61
f 46 57 51
f 51 147 148
f 139 137 182
f 182 141 184
f 137 139 140
f 48 149 140
f 148 149 49
f 57 66 61
f 61 68 58
f 46 51 49
f 46 59 57
f 49 51 148
f 139 182 136
f 141 181 184
f 182 184 183
f 140 139 133
f 42 48 140
f 48 49 149
f 60 66 57
f 45 46 49
f 46 45 59
f 57 59 60
f 135 139 136
f 182 186 136
f 181 162 184
f 182 183 185
f 183 184 180
f 133 139 135
f 140 133 144
f 48 42 9
f 144 42 140
f 48 44 49
f 66 60 62
f 45 49 44
f 45 43 59
f 59 62 60
f 138 135 136
f 136 186 138
f 186 182 185
f 165 162 181
f 184 162 176
f 183 180 185
f 184 2 180
f 133 135 134
f 144 133 120
f 39 9 42
f 44 48 9
f 41 42 144
f 62 50 66
f 44 9 45
f 45 9 43
f 43 47 59
f 59 50 62
f 135 138 199
f 138 186 190
f 185 202 186
f 162 165 161
f 162 157 176
f 184 176 177
f 185 180 202
f 184 177 2
f 133 134 132
f 134 135 199
f 120 133 114
f 41 144 120
f 39 42 41
f 50 65 66
f 47 50 59
f 199 138 187
f 138 190 189
f 162 161 160
f 162 160 157
f 176 157 177
f 177 155 2
f 133 132 114
f 134 121 132
f 134 199 188
f 113 120 114
f 36 41 120
f 41 13 39
f 65 68 66
f 188 187 138
f 199 187 188
f 189 197 138
f 161 168 160
f 157 160 156
f 177 157 156
f 2 155 4
f 156 155 177
f 114 132 121
f 121 134 188
f 113 114 108
f 36 120 113
f 35 41 36
f 39 13 32
f 38 13 41
f 68 61 66
f 138 197 188
f 160 168 159
f 156 160 159
f 2 4 5
f 155 3 4
f 155 156 178
f 121 122 114
f 121 188 122
f 40 113 108
f 122 108 114
f 36 113 40
f 24 35 36
f 35 38 41
f 13 11 32
f 38 17 13
f 188 197 191
f 159 168 167
f 159 158 156
f 155 178 3
f 156 158 178
f 122 188 130
f 40 108 107
f 108 122 130
f 36 40 94
f 24 26 35
f 34 24 36
f 35 26 38
f 12 11 13
f 32 11 31
f 17 14 13
f 38 26 17
f 191 200 188
f 159 167 158
f 3 178 171
f 178 158 171
f 188 198 130
f 104 40 107
f 108 103 107
f 130 129 108
f 37 36 94
f 94 40 93
f 26 24 15
f 25 24 34
f 34 36 37
f 11 12 18
f 14 12 13
f 11 21 31
f 15 14 17
f 17 26 15
f 188 200 131
f 191 192 200
f 158 167 169
f 158 169 171
f 130 198 131
f 131 198 188
f 40 104 100
f 104 107 103
f 103 108 105
f 105 108 129
f 129 130 131
f 69 37 94
f 95 93 40
f 94 93 80
f 24 19 15
f 24 25 19
f 37 25 34
f 21 11 18
f 14 18 12
f 21 22 31
f 15 16 14
f 129 131 200
f 200 192 154
f 167 175 169
f 169 172 171
f 100 95 40
f 104 103 100
f 98 103 105
f 105 129 117
f 30 37 69
f 94 80 69
f 93 95 70
f 80 93 70
f 19 20 15
f 25 29 19
f 30 25 37
f 18 22 21
f 16 18 14
f 15 20 16
f 129 200 117
f 200 154 10
f 175 172 169
f 70 95 100
f 103 98 100
f 102 98 105
f 105 117 118
f 71 30 69
f 69 80 70
f 19 27 20
f 29 28 19
f 23 29 25
f 30 23 25
f 18 27 22
f 16 20 18
f 200 124 117
f 200 10 153
f 70 100 92
f 100 98 92
f 92 98 102
f 102 105 112
f 105 118 125
f 118 117 125
f 30 71 73
f 72 71 69
f 72 69 70
f 19 28 27
f 20 27 18
f 23 33 29
f 30 33 23
f 117 124 125
f 200 201 124
f 201 200 153
f 70 92 88
f 99 92 102
f 102 112 111
f 105 115 112
f 105 125 115
f 33 30 73
f 71 75 73
f 71 72 79
f 72 70 79
f 126 125 124
f 201 193 124
f 153 196 201
f 70 88 87
f 87 88 92
f 97 92 99
f 99 102 111
f 111 112 127
f 115 125 112
f 75 71 77
f 71 79 77
f 87 79 70
f 124 195 126
f 112 125 126
f 124 193 195
f 193 201 194
f 196 153 10
f 87 92 97
f 97 99 106
f 106 99 111
f 111 127 123
f 112 126 127
f 79 78 77
f 74 79 87
f 126 195 127
f 195 193 194
f 85 87 97
f 97 106 101
f 106 111 101
f 128 111 123
f 123 127 195
f 74 78 79
f 87 85 74
f 85 97 96
f 96 97 101
f 116 101 111
f 119 111 128
f 74 84 78
f 74 85 81
f 90 85 96
f 90 96 101
f 101 116 109
f 119 116 111
f 82 84 74
f 74 81 76
f 90 81 85
f 90 101 152
f 110 101 109
f 74 76 82
f 81 82 76
f 81 90 86
f 90 152 91
f 150 152 101
f 150 101 110
f 110 109 150
f 81 83 82
f 86 83 81
f 89 86 90
f 90 91 89
f 150 151 152
f 151 150 109

