v 0.0589321 -0.32362 0.129458
v 0.057567 -0.313352 0.131205
v 0.0671765 -0.312302 0.132104
v 0.0767306 -0.311174 0.133003
v 0.0862639 -0.309758 0.133619
v 0.0958922 -0.308205 0.134534
v 0.0943348 -0.298587 0.135999
v 0.103783 -0.297081 0.136619
v 0.113232 -0.295574 0.137238
v 0.084971 -0.300124 0.134694
v 0.0644996 -0.295869 0.125127
v 0.241188 -0.286058 0.151684
v 0.0757723 -0.301805 0.132349
v 0.071802 -0.295879 0.128263
v 0.0573682 -0.304208 0.127123
v 0.0666518 -0.302954 0.129714
v 0.0573907 -0.295432 0.122201
v 0.122791 -0.293991 0.137757
v 0.132298 -0.292278 0.138174
v 0.141795 -0.290574 0.138507
v 0.151292 -0.288848 0.138865
v 0.160849 -0.287066 0.139134
v 0.17046 -0.285361 0.139229
v 0.180069 -0.283655 0.139302
v 0.237481 -0.273692 0.137477
v 0.249197 -0.276822 0.144708
v 0.246961 -0.272625 0.135798
v 0.25878 -0.277531 0.140323
v 0.260724 -0.284304 0.147494
v 0.251031 -0.284614 0.150294
v 0.229465 -0.279088 0.147749
v 0.239346 -0.277673 0.146443
v 0.219604 -0.280632 0.148567
v 0.209806 -0.282251 0.149082
v 0.208758 -0.277945 0.139981
v 0.218353 -0.276395 0.139455
v 0.199172 -0.279708 0.140095
v 0.180759 -0.287957 0.148406
v 0.189613 -0.281741 0.13984
v 0.161648 -0.292283 0.146242
v 0.171214 -0.290114 0.147347
v 0.152089 -0.29446 0.145129
v 0.133355 -0.299139 0.142186
v 0.0956106 -0.312867 0.142073
v 0.105084 -0.310565 0.144397
v 0.0862409 -0.315407 0.139642
v 0.0769574 -0.317941 0.137025
v 0.0680014 -0.320879 0.133073
v 0.0670713 -0.326166 0.141641
v 0.0765854 -0.323758 0.144276
v 0.124056 -0.306014 0.149023
v 0.13372 -0.3043 0.150346
v 0.115904 -0.316955 0.149208
v 0.125661 -0.315502 0.150351
v 0.106086 -0.31844 0.148192
v 0.0877763 -0.330977 0.144494
v 0.0976157 -0.32949 0.146617
v 0.107455 -0.328002 0.14874
v 0.0988325 -0.338931 0.147654
v 0.0778665 -0.332497 0.143996
v 0.088713 -0.339811 0.147111
v 0.0996093 -0.347365 0.151492
v 0.109785 -0.347114 0.150566
v 0.118491 -0.336246 0.151565
v 0.119698 -0.345924 0.152254
v 0.129588 -0.344644 0.154192
v 0.140798 -0.353115 0.155176
v 0.139507 -0.343306 0.155962
v 0.150778 -0.351692 0.156871
v 0.149483 -0.341796 0.157378
v 0.16083 -0.350183 0.158307
v 0.172065 -0.358508 0.157874
v 0.17088 -0.348663 0.159556
v 0.182111 -0.356963 0.158844
v 0.180908 -0.347047 0.160473
v 0.190898 -0.345387 0.161192
v 0.200857 -0.343714 0.16162
v 0.210803 -0.342044 0.161487
v 0.22075 -0.340374 0.161354
v 0.202159 -0.353685 0.159841
v 0.212139 -0.352031 0.159692
v 0.251804 -0.344913 0.157384
v 0.261624 -0.342966 0.157374
v 0.279396 -0.329793 0.152531
v 0.288945 -0.328017 0.150772
v 0.243115 -0.295591 0.154946
v 0.286927 -0.318459 0.148424
v 0.277731 -0.320083 0.152292
v 0.26837 -0.321752 0.155645
v 0.25676 -0.313535 0.157734
v 0.266483 -0.311937 0.155687
v 0.273781 -0.300718 0.151797
v 0.271645 -0.291289 0.150419
v 0.269529 -0.284087 0.144671
v 0.267865 -0.278207 0.136573
v 0.273903 -0.26554 0.136095
v 0.266047 -0.270354 0.131025
v 0.244871 -0.263154 0.133989
v 0.254516 -0.261925 0.131701
v 0.252541 -0.253383 0.12787
v 0.215201 -0.267862 0.138204
v 0.225159 -0.266034 0.137376
v 0.165527 -0.277721 0.139609
v 0.175451 -0.2757 0.13953
v 0.185375 -0.27368 0.139451
v 0.195299 -0.271659 0.139372
v 0.223298 -0.258737 0.131206
v 0.233084 -0.256923 0.130189
v 0.231541 -0.252019 0.121561
v 0.241261 -0.250461 0.12032
v 0.212049 -0.255297 0.123556
v 0.22181 -0.2535 0.12267
v 0.192487 -0.25879 0.124708
v 0.202271 -0.257052 0.12418
v 0.213477 -0.260524 0.132045
v 0.191078 -0.252907 0.116757
v 0.181316 -0.254908 0.117069
v 0.161714 -0.258158 0.117761
v 0.171542 -0.256438 0.117645
v 0.162911 -0.264213 0.125686
v 0.17274 -0.262492 0.125571
v 0.143226 -0.268016 0.125539
v 0.153081 -0.266087 0.125679
v 0.154233 -0.27243 0.133407
v 0.164059 -0.270271 0.133681
v 0.144424 -0.274673 0.132937
v 0.134512 -0.277003 0.132356
v 0.119066 -0.286793 0.135946
v 0.128087 -0.284917 0.137241
v 0.137108 -0.283041 0.138537
v 0.109736 -0.288925 0.134598
v 0.10569 -0.283676 0.129313
v 0.116823 -0.280356 0.129784
v 0.0952178 -0.286501 0.128595
v 0.0650131 -0.283248 0.119252
v 0.0782051 -0.287579 0.125564
v 0.091397 -0.291909 0.131877
v 0.0870609 -0.286936 0.126923
v 0.0744277 -0.282018 0.120639
v 0.0843599 -0.280244 0.122049
v 0.094153 -0.278482 0.12264
v 0.0929776 -0.270063 0.117089
v 0.102771 -0.268301 0.11768
v 0.103924 -0.276377 0.123537
v 0.113722 -0.274197 0.124376
v 0.112571 -0.266407 0.118259
v 0.122395 -0.264818 0.118132
v 0.132219 -0.263228 0.118005
v 0.131011 -0.25547 0.111718
v 0.111377 -0.258548 0.111997
v 0.121188 -0.257001 0.111901
v 0.101564 -0.26009 0.112104
v 0.150672 -0.252657 0.110955
v 0.160479 -0.25132 0.110508
v 0.151907 -0.259739 0.117991
v 0.149301 -0.244438 0.105221
v 0.139473 -0.2458 0.105678
v 0.100133 -0.251181 0.107962
v 0.109972 -0.249862 0.107336
v 0.119811 -0.248543 0.10671
v 0.12965 -0.247225 0.106084
v 0.118126 -0.239022 0.104703
v 0.127985 -0.237574 0.103866
v 0.13781 -0.236165 0.103597
v 0.0819932 -0.263075 0.112039
v 0.0917478 -0.261586 0.11231
v 0.0733776 -0.273454 0.11607
v 0.0623609 -0.265446 0.112399
v 0.0722086 -0.264331 0.112158
v 0.0903868 -0.252489 0.10863
v 0.0806126 -0.253616 0.1093
v 0.0710026 -0.254883 0.111546
v 0.140848 -0.25408 0.111322
v 0.142056 -0.261519 0.117977
v 0.0831856 -0.271837 0.11649
v 0.0634631 -0.274828 0.115428
v 0.0998328 -0.291075 0.133545
v 0.124592 -0.279303 0.131815
v 0.123542 -0.272082 0.125047
v 0.133379 -0.270062 0.125281
v 0.173904 -0.268266 0.13371
v 0.183807 -0.266248 0.133407
v 0.19371 -0.26423 0.133103
v 0.182641 -0.260593 0.125233
v 0.203607 -0.262334 0.132626
v 0.155632 -0.279777 0.139496
v 0.145938 -0.281736 0.139127
v 0.205242 -0.269728 0.138914
v 0.242817 -0.255143 0.129063
v 0.235076 -0.264533 0.135863
v 0.256456 -0.271672 0.133142
v 0.275891 -0.273073 0.141057
v 0.262602 -0.292594 0.152235
v 0.252916 -0.294078 0.153713
v 0.245027 -0.305265 0.15766
v 0.227187 -0.318524 0.160575
v 0.237066 -0.316878 0.16
v 0.209178 -0.331953 0.161652
v 0.219109 -0.330284 0.161544
v 0.229043 -0.328615 0.161458
v 0.199243 -0.333622 0.161689
v 0.179377 -0.337018 0.16059
v 0.189294 -0.33531 0.161077
v 0.16945 -0.338677 0.1595
v 0.158066 -0.330316 0.157832
v 0.156485 -0.320544 0.156072
v 0.16793 -0.328657 0.158918
v 0.14822 -0.331929 0.156661
v 0.146646 -0.322134 0.154859
v 0.138274 -0.333461 0.155321
v 0.13683 -0.323709 0.153584
v 0.135372 -0.314053 0.151732
v 0.145117 -0.312432 0.153042
v 0.15481 -0.310752 0.154137
v 0.153107 -0.300984 0.1522
v 0.164525 -0.308978 0.154804
v 0.16277 -0.299149 0.152904
v 0.172472 -0.297418 0.153296
v 0.182221 -0.295801 0.153568
v 0.191987 -0.294112 0.15397
v 0.203728 -0.302133 0.156686
v 0.193908 -0.303799 0.156499
v 0.185847 -0.315343 0.158417
v 0.18407 -0.305486 0.156266
v 0.205547 -0.311945 0.159087
v 0.215421 -0.310237 0.159276
v 0.225288 -0.308566 0.158808
v 0.233267 -0.297182 0.155762
v 0.223403 -0.298833 0.156294
v 0.231361 -0.287612 0.15269
v 0.213536 -0.300504 0.156689
v 0.211631 -0.2909 0.153635
v 0.221496 -0.289261 0.153149
v 0.195702 -0.313607 0.158963
v 0.201783 -0.292515 0.15402
v 0.127063 -0.325268 0.152234
v 0.166276 -0.318845 0.15698
v 0.176013 -0.317115 0.157755
v 0.174261 -0.307247 0.155576
v 0.177789 -0.326988 0.159832
v 0.187632 -0.325279 0.160201
v 0.197475 -0.323569 0.16057
v 0.207376 -0.321862 0.16103
v 0.217298 -0.320175 0.161065
v 0.235162 -0.3069 0.158332
v 0.254791 -0.303745 0.156362
v 0.264443 -0.302224 0.154594
v 0.24691 -0.315231 0.159209
v 0.238957 -0.326918 0.160809
v 0.248804 -0.325191 0.159456
v 0.240646 -0.336994 0.160042
v 0.250428 -0.335148 0.158371
v 0.260182 -0.333349 0.156348
v 0.241967 -0.346797 0.157859
v 0.232078 -0.348594 0.158929
v 0.258646 -0.323465 0.157984
v 0.269867 -0.331603 0.154158
v 0.275855 -0.310272 0.152487
v 0.243234 -0.356153 0.161477
v 0.223274 -0.359687 0.161791
v 0.233316 -0.357974 0.161501
v 0.172863 -0.367631 0.161905
v 0.18299 -0.366121 0.162079
v 0.193124 -0.36467 0.162167
v 0.151754 -0.360923 0.15848
v 0.161913 -0.359695 0.158147
v 0.130743 -0.35437 0.154031
v 0.120521 -0.354995 0.154648
v 0.110303 -0.355759 0.15491
v 0.13142 -0.363158 0.157742
v 0.141601 -0.36213 0.158289
v 0.100536 -0.356153 0.151574
v 0.111764 -0.363916 0.15088
v 0.121482 -0.363724 0.155036
v 0.123126 -0.371297 0.149509
v 0.132924 -0.370893 0.152658
v 0.144076 -0.377699 0.149077
v 0.142674 -0.370556 0.155672
v 0.153941 -0.37721 0.151862
v 0.152682 -0.36999 0.158554
v 0.163894 -0.376563 0.154228
v 0.173852 -0.375648 0.156049
v 0.183916 -0.374438 0.157468
v 0.162746 -0.369009 0.160797
v 0.113613 -0.37139 0.145496
v 0.253048 -0.354342 0.160195
v 0.271455 -0.341191 0.156794
v 0.203221 -0.363246 0.161964
v 0.213245 -0.361459 0.161901
v 0.222123 -0.350361 0.159464
v 0.230712 -0.338708 0.160885
v 0.19214 -0.355326 0.159404
v 0.159532 -0.340282 0.158562
v 0.128298 -0.334916 0.15381
v 0.108661 -0.337516 0.149762
v 0.117311 -0.326666 0.150622
v 0.143393 -0.302642 0.151405
v 0.0862533 -0.321643 0.146469
v 0.0961908 -0.320027 0.147278
v 0.227917 -0.274923 0.138726
v 0.0581416 -0.329403 0.13725
v 0.105477 -0.3066 0.135536
v 0.114781 -0.304025 0.137995
v 0.114557 -0.308261 0.146722
v 0.124068 -0.301532 0.140276
v 0.142696 -0.296838 0.143789
v 0.190383 -0.285993 0.148977
v 0.200088 -0.284103 0.1493
f 48 3 2 1
f 301 49 48 1
f 3 16 15 2
f 4 13 16 3
f 48 47 4 3
f 5 10 13 4
f 47 46 5 4
f 6 7 10 5
f 46 44 6 5
f 302 8 7 6
f 44 45 302 6
f 302 303 9 8
f 303 305 18 9
f 17 15 16 11
f 16 13 14 11
f 305 43 19 18
f 43 306 20 19
f 306 42 21 20
f 42 40 22 21
f 40 41 23 22
f 41 38 24 23
f 38 307 39 24
f 300 31 32 25
f 32 26 27 25
f 28 191 27 26
f 32 12 30 26
f 30 29 28 26
f 191 99 98 27
f 95 97 191 28
f 29 94 95 28
f 30 194 193 29
f 193 93 94 29
f 12 86 194 30
f 300 36 33 31
f 33 233 230 31
f 230 12 32 31
f 36 35 34 33
f 34 232 233 33
f 35 37 308 34
f 308 235 232 34
f 39 307 308 37
f 41 218 219 38
f 219 220 307 38
f 42 215 217 40
f 217 218 41 40
f 306 297 215 42
f 305 51 52 43
f 52 297 306 43
f 46 298 299 44
f 299 55 45 44
f 304 303 302 45
f 55 53 304 45
f 47 50 298 46
f 48 49 50 47
f 60 56 298 50
f 305 303 304 51
f 304 53 54 51
f 54 212 52 51
f 212 213 297 52
f 55 58 296 53
f 296 236 54 53
f 236 211 212 54
f 299 57 58 55
f 57 299 298 56
f 61 59 57 56
f 59 295 58 57
f 295 64 296 58
f 62 63 295 59
f 272 269 63 62
f 65 64 295 63
f 269 268 65 63
f 294 236 296 64
f 65 66 294 64
f 268 267 66 65
f 68 210 294 66
f 267 67 68 66
f 69 70 68 67
f 267 270 271 67
f 271 265 69 67
f 70 208 210 68
f 71 293 70 69
f 265 266 71 69
f 293 205 208 70
f 73 204 293 71
f 266 72 73 71
f 74 75 73 72
f 266 284 262 72
f 262 263 74 72
f 75 202 204 73
f 292 76 75 74
f 263 264 292 74
f 76 203 202 75
f 77 201 203 76
f 292 80 77 76
f 78 198 201 77
f 80 81 78 77
f 79 199 198 78
f 81 290 79 78
f 291 200 199 79
f 290 255 291 79
f 292 264 288 80
f 288 289 81 80
f 289 260 290 81
f 83 253 252 82
f 252 251 254 82
f 254 259 286 82
f 287 257 253 83
f 85 87 88 84
f 88 89 257 84
f 258 91 89 88
f 91 90 256 89
f 256 253 257 89
f 91 247 246 90
f 246 195 248 90
f 248 250 256 90
f 258 92 247 91
f 93 193 247 92
f 192 96 97 95
f 99 100 189 98
f 189 108 190 98
f 102 107 115 101
f 115 185 188 101
f 190 108 107 102
f 104 181 125 103
f 125 124 186 103
f 105 182 181 104
f 106 183 182 105
f 188 185 183 106
f 108 109 112 107
f 112 111 115 107
f 189 110 109 108
f 114 185 115 111
f 116 117 184 113
f 184 182 183 113
f 183 185 114 113
f 119 121 184 117
f 154 153 155 118
f 155 123 120 118
f 120 121 119 118
f 123 124 125 120
f 125 181 121 120
f 181 182 184 121
f 123 155 174 122
f 174 148 180 122
f 180 127 126 122
f 126 124 123 122
f 126 187 186 124
f 127 130 187 126
f 180 179 178 127
f 178 129 130 127
f 129 178 133 128
f 133 132 131 128
f 132 134 177 131
f 133 145 144 132
f 144 141 134 132
f 178 179 145 133
f 141 140 138 134
f 138 137 177 134
f 139 167 176 135
f 138 140 139 136
f 140 175 167 139
f 141 142 175 140
f 144 143 142 141
f 143 152 166 142
f 166 165 175 142
f 146 150 152 143
f 144 145 146 143
f 179 147 146 145
f 147 151 150 146
f 148 149 151 147
f 179 180 148 147
f 174 173 149 148
f 173 157 161 149
f 161 160 151 149
f 151 160 159 150
f 159 158 152 150
f 158 170 166 152
f 156 157 173 153
f 173 174 155 153
f 164 163 161 157
f 161 163 162 160
f 166 170 171 165
f 171 172 169 165
f 169 167 175 165
f 169 168 176 167
f 194 246 247 193
f 86 195 246 194
f 86 228 245 195
f 245 197 248 195
f 197 245 227 196
f 227 226 244 196
f 244 199 200 196
f 200 249 197 196
f 249 250 248 197
f 199 244 243 198
f 243 242 201 198
f 291 251 249 200
f 242 241 203 201
f 203 241 240 202
f 240 207 204 202
f 207 205 293 204
f 207 237 206 205
f 206 209 208 205
f 237 216 214 206
f 214 213 209 206
f 240 238 237 207
f 209 211 210 208
f 213 212 211 209
f 211 236 294 210
f 214 215 297 213
f 216 217 215 214
f 239 218 217 216
f 237 238 239 216
f 239 224 219 218
f 224 222 220 219
f 235 308 307 220
f 222 221 235 220
f 231 232 235 221
f 222 234 225 221
f 225 226 231 221
f 224 223 234 222
f 224 239 238 223
f 238 240 241 223
f 241 242 234 223
f 234 242 243 225
f 243 244 226 225
f 227 229 231 226
f 245 228 229 227
f 86 12 230 228
f 230 233 229 228
f 233 232 231 229
f 251 252 250 249
f 252 253 256 250
f 291 255 254 251
f 255 261 259 254
f 290 260 261 255
f 284 281 282 262
f 282 283 263 262
f 271 278 280 265
f 280 284 266 265
f 268 274 270 267
f 269 273 274 268
f 274 275 276 270
f 276 278 271 270
f 285 275 274 273
f 279 280 278 277
f 281 284 280 279
