# https://github.com/mikedh/trimesh
v 0.35305101 -0.30324101 0.06822300
v 0.35521200 -0.30972999 0.07340750
v 0.35518750 -0.30824800 0.06909650
v 0.35897500 -0.32228850 0.07239850
v 0.34937174 -0.30011425 0.05259150
v 0.35268450 -0.30322250 0.06061875
v 0.34620125 -0.29959100 0.04317500
v 0.34159550 -0.29057200 0.04894450
v 0.35650086 -0.31604182 0.04811680
v 0.35597304 -0.31197842 0.05302980
v 0.35978725 -0.32342025 0.05453625
v 0.35191504 -0.30828124 0.04444185
v 0.35181500 -0.31249850 0.03873700
v 0.35576755 -0.32044611 0.03995746
v 0.35797049 -0.32666451 0.04060500
v 0.35189801 -0.31647101 0.03367700
v 0.35297099 -0.32071900 0.03188200
v 0.35391651 -0.33171649 0.02423000
v 0.34751999 -0.30256925 0.04182050
v 0.34939750 -0.30745400 0.03908700
v 0.35629901 -0.32757100 0.03466400
v 0.35664431 -0.31122461 0.06173577
v 0.35882100 -0.31908199 0.05563900
v 0.35809297 -0.31619275 0.06939519
v 0.35935000 -0.32016799 0.06575500
v 0.36109950 -0.32840950 0.06497450
v 0.23386399 -0.21702500 0.08460300
v 0.13411094 -0.13929011 0.07515402
v 0.14246801 -0.13770700 0.08796300
v 0.15027225 -0.13933775 0.09426400
v 0.16325650 -0.14619750 0.10210200
v 0.14788895 -0.12725079 0.05104949
v 0.12966475 -0.14260275 0.06608500
v 0.10225027 -0.15758278 0.06390367
v 0.10813329 -0.15461942 0.06049825
v 0.10741576 -0.16369906 0.05763135
v 0.10446576 -0.16572780 0.06023284
v 0.11130417 -0.15935889 0.05695268
v 0.10611523 -0.15114594 0.06417154
v 0.10959574 -0.16440536 0.05381433
v 0.10637247 -0.14711214 0.06728661
v 0.11660375 -0.15593726 0.05285745
v 0.11788827 -0.16022547 0.04715148
v 0.11429818 -0.15409033 0.05967235
v 0.12122638 -0.15530446 0.05086801
v 0.11632779 -0.15048031 0.06310737
v 0.11793781 -0.14747553 0.06875469
v 0.12492900 -0.14881000 0.05683800
v 0.11924440 -0.14904208 0.05917006
v 0.11066500 -0.14653150 0.06683150
v 0.14329700 -0.13797501 0.03276300
v 0.13396234 -0.14827600 0.03548395
v 0.12200591 -0.15666324 0.04557679
v 0.12340434 -0.15132860 0.05360058
v 0.09960036 -0.17047384 0.06846172
v 0.14493005 -0.13211968 0.04273527
v 0.15384250 -0.12547450 0.03968237
v 0.09984050 -0.16516200 0.06686100
v 0.10388025 -0.16873350 0.05435850
v 0.11104300 -0.16458249 0.04696500
v 0.11663198 -0.15154233 0.05808341
v 0.10656145 -0.16684239 0.05431907
v 0.12262265 -0.14530235 0.06247666
v 0.12924486 -0.15196380 0.03805409
v 0.12389751 -0.14020088 0.07487567
v 0.12689754 -0.13833323 0.07590802
v 0.12621001 -0.14167500 0.06779200
v 0.12744400 -0.14492700 0.06230100
v 0.12038100 -0.14440925 0.07584950
v 0.12253100 -0.14274400 0.08198300
v 0.13102158 -0.13646977 0.08493237
v 0.12838829 -0.13732126 0.08447900
v 0.13336600 -0.13596600 0.08697600
v 0.13743750 -0.13542350 0.09203000
v 0.12844799 -0.13857900 0.08717900
v 0.14050600 -0.13542600 0.09647100
v 0.13597663 -0.13650232 0.09698875
v 0.14181865 -0.13653822 0.10292209
v 0.14224900 -0.13577600 0.10030100
v 0.15162600 -0.13924450 0.10876450
v 0.14690252 -0.13760736 0.10685242
v 0.16993301 -0.15087000 0.10389700
v 0.17489299 -0.15552025 0.10474300
v 0.18808050 -0.17121500 0.10227550
v 0.18226850 -0.16339999 0.10404550
v 0.18990021 -0.17254187 0.10056801
v 0.19241075 -0.17722650 0.09889437
v 0.19599588 -0.18144878 0.09626295
v 0.19947900 -0.18678250 0.09301200
v 0.20469581 -0.19366700 0.08594675
v 0.20981701 -0.19918400 0.07817100
v 0.20671788 -0.19599112 0.08277988
v 0.11292808 -0.14383662 0.06978134
v 0.22469001 -0.21171901 0.08863900
v 0.22940268 -0.21505085 0.08684156
v 0.21868700 -0.20830550 0.09186000
v 0.17365600 -0.15650800 0.11817200
v 0.17700351 -0.15975200 0.11754350
v 0.15494112 -0.13983377 0.10672943
v 0.16274470 -0.14443121 0.10979693
v 0.14601150 -0.13613515 0.09926321
v 0.13412441 -0.13648464 0.08360695
v 0.20932895 -0.19915386 0.09549818
v 0.18534540 -0.16650129 0.10848222
v 0.19366826 -0.17895239 0.10494884
v 0.17444187 -0.15421832 0.11236566
v 0.17830004 -0.15867782 0.10672290
v 0.21151245 -0.20108276 0.09337943
v 0.20827846 -0.19813361 0.08469196
v 0.17742080 -0.15738732 0.11386375
v 0.16447210 -0.14618368 0.10595189
v 0.21692858 -0.20535520 0.08822602
v 0.21180600 -0.20024499 0.07610600
v 0.21658300 -0.20495400 0.07661300
v 0.20604920 -0.19619119 0.09876417
v 0.22412850 -0.20966550 0.07291150
v 0.15595420 -0.14041332 0.11057243
v 0.16122833 -0.14424905 0.11466300
v 0.18891220 -0.17200445 0.11061596
v 0.16896003 -0.14997950 0.11591369
v 0.24337170 -0.08780977 0.05159655
v 0.26039150 -0.41103250 -0.11815412
v 0.25224351 -0.42242800 -0.12123800
v 0.20048475 -0.20827750 -0.13439150
v 0.20799549 -0.19024226 -0.12669900
v 0.22112175 -0.15010863 -0.11309163
v 0.22616100 -0.10095250 -0.10426950
v 0.19807894 0.05841181 -0.09368881
v 0.21993750 0.00380600 -0.09092100
v 0.22867100 -0.07244300 -0.09863000
v 0.23721750 -0.09107550 -0.09462300
v 0.21135350 -0.22127900 -0.13174449
v 0.22685100 -0.25091751 -0.13261249
v 0.24941063 -0.30249800 -0.13159225
v 0.26012675 -0.34098525 -0.12838925
v 0.25242775 -0.36216500 -0.13284025
v 0.25189687 -0.38590625 -0.13011387
v 0.17784700 0.08930000 -0.09664650
v 0.22605851 -0.03610800 -0.09429600
v 0.23729301 -0.06232425 0.03836125
v 0.24837775 -0.06291725 0.02499000
v 0.25088099 -0.04570600 0.01124400
v 0.23859075 0.02102550 0.00256025
v 0.22426525 0.06767250 -0.00166600
v 0.25745600 -0.09660900 0.04524500
v 0.26759950 -0.10566125 0.03683400
v 0.24923301 -0.21927500 0.05801600
v 0.26695349 -0.22442650 0.04665850
v 0.25781350 -0.22188600 0.05342150
v 0.23105399 -0.21301100 0.06852400
v 0.29588899 -0.23896000 0.01987200
v 0.27862275 -0.22826737 0.02692938
v 0.28410599 -0.23131301 0.01751500
v 0.30039299 -0.24180900 0.02237700
v 0.30486700 -0.24459399 0.02488400
v 0.23527101 -0.21467800 0.06624900
v 0.31446900 -0.25282700 0.02544675
v 0.30765301 -0.24753200 0.02310800
v 0.33121000 -0.25595100 0.04457200
v 0.31973049 -0.25475501 0.03072100
v 0.33442000 -0.26000699 0.04501400
v 0.34211999 -0.27575299 0.04206700
v 0.28145200 -0.10883800 0.01419925
v 0.28614799 -0.10782600 0.00035700
v 0.28869200 -0.10549200 -0.02208900
v 0.27090999 -0.12921700 -0.04533100
v 0.28207126 -0.10649000 -0.04893375
v 0.26545001 -0.12703662 -0.05971400
v 0.27397812 -0.13074300 -0.03003600
v 0.27189499 -0.12918000 -0.04162800
v 0.26845150 -0.12803950 -0.05278400
v 0.28746900 -0.10549200 -0.03294600
v 0.25990850 -0.12486350 -0.07031450
v 0.26272601 -0.12591299 -0.06546200
v 0.27522901 -0.10638550 -0.06184850
v 0.21847001 -0.20019101 0.06821500
v 0.22647163 -0.20031749 0.05744100
v 0.23006827 -0.19992645 0.05277018
v 0.23737399 -0.20187500 0.04187100
v 0.24020100 -0.20208225 0.03749575
v 0.24335501 -0.20279799 0.03207600
v 0.24995001 -0.20411500 0.01995375
v 0.25684075 -0.20617088 0.00531025
v 0.26328039 -0.20765238 -0.01112821
v 0.26513900 -0.20884251 -0.01761800
v 0.25127101 -0.20474499 0.01728900
v 0.26870838 -0.21001384 -0.03433246
v 0.27016250 -0.20308350 -0.03010850
v 0.26970601 -0.20616800 -0.03640100
v 0.27429801 -0.14872400 -0.00629700
v 0.27312300 -0.16717700 -0.01816450
v 0.27147999 -0.18840100 -0.02357000
v 0.27548855 -0.13488905 -0.01417088
v 0.27535125 -0.13526700 -0.01789700
v 0.27557376 -0.14346100 -0.00160850
v 0.19392163 0.08870950 -0.08602862
v 0.19869750 0.10607450 -0.07212525
v 0.19510300 0.12108200 -0.06360500
v 0.20585262 0.10917600 -0.01034188
v 0.20807150 0.11829587 -0.03362200
v 0.20000900 0.12105100 -0.05666600
v 0.20622300 0.11804837 -0.04812800
v 0.27067259 -0.10655731 0.03390962
v 0.27731749 -0.10859472 0.02371553
v 0.28074322 -0.10542454 0.01275891
v 0.26181982 -0.09146134 0.03268119
v 0.26208533 -0.08340643 0.02133812
v 0.25624706 -0.07108034 0.01885087
v 0.25608200 -0.08377700 0.03330600
v 0.24560152 -0.07129033 0.03628856
v 0.27131520 -0.09670134 0.01980892
v 0.26256718 -0.07894181 0.01468896
v 0.24889335 -0.06932120 0.02952993
v 0.25769499 -0.06305800 0.00967600
v 0.25360713 -0.04974839 0.00826865
v 0.26995345 -0.07912286 -0.00721635
v 0.26824957 -0.08280021 0.00490733
v 0.28262614 -0.10087552 -0.00318685
v 0.26644189 -0.08322515 0.00973953
v 0.26036413 -0.06249077 0.00357667
v 0.24871385 -0.08598059 0.04764211
v 0.27816668 -0.09689738 0.00085668
v 0.27512141 -0.09037535 -0.00509848
v 0.26383767 -0.06086796 -0.00890307
v 0.25757663 -0.05437499 0.00355968
v 0.25649648 -0.04219069 -0.00189668
v 0.25023589 -0.01960387 -0.00017695
v 0.23871086 0.03219848 -0.00302275
v 0.23324805 0.05417210 -0.00623100
v 0.23639893 0.04910577 -0.00913832
v 0.23302689 0.06411343 -0.01380023
v 0.22900887 0.07085536 -0.01068651
v 0.22580779 0.06980956 -0.00399315
v 0.24309489 0.01176216 -0.00093237
v 0.24306407 0.02827074 -0.01083897
v 0.21858096 0.08961512 -0.00874740
v 0.22358206 0.08907204 -0.01822336
v 0.22929541 0.07831191 -0.01894066
v 0.25876105 -0.04432414 -0.00690835
v 0.23875829 0.04955613 -0.01645058
v 0.25273216 -0.00831285 -0.01526419
v 0.24290299 0.03453000 -0.01639300
v 0.21694688 0.09758483 -0.01465068
v 0.23406906 0.06660643 -0.01998012
v 0.26255569 -0.05383851 -0.01249749
v 0.21140585 0.10594697 -0.01450527
v 0.22505714 0.08895756 -0.02251437
v 0.21795235 0.10109049 -0.02189020
v 0.24159259 0.04426594 -0.02244647
v 0.25413615 -0.01283813 -0.01727069
v 0.24557100 0.02753300 -0.02083900
v 0.25084032 0.00734890 -0.02573607
v 0.27563148 -0.08903745 -0.01641007
v 0.22130484 0.09795766 -0.02751201
v 0.26157296 -0.04606116 -0.01785770
v 0.23682163 0.06172085 -0.02683913
v 0.26982349 -0.07465548 -0.01850258
v 0.23200113 0.07523418 -0.02712163
v 0.26361459 -0.05310629 -0.02319499
v 0.26587108 -0.06098835 -0.02406298
v 0.24602113 0.02840598 -0.02600204
v 0.20897500 0.11371778 -0.02094581
v 0.22609877 0.08946386 -0.02977182
v 0.23445364 0.06919142 -0.03198370
v 0.27474456 -0.08655009 -0.01864834
v 0.28831702 -0.10487958 -0.01381806
v 0.24374104 0.03809628 -0.02894873
v 0.23789432 0.05847348 -0.03548908
v 0.27543971 -0.08856122 -0.02877193
v 0.21603101 0.10814227 -0.03428622
v 0.21080311 0.11495203 -0.03026433
v 0.26388225 -0.05414597 -0.02981116
v 0.27722741 -0.09125852 -0.02218244
v 0.23038180 0.07976371 -0.03379539
v 0.27074628 -0.07710781 -0.02965329
v 0.24937910 0.01358605 -0.03466258
v 0.24510627 0.03198805 -0.03368503
v 0.22566034 0.09021653 -0.03731618
v 0.28035579 -0.09619735 -0.01606635
v 0.28645718 -0.10209805 -0.02631468
v 0.28764565 -0.10312559 -0.02019741
v 0.21276360 0.11267660 -0.03714009
v 0.28362457 -0.09948940 -0.02151476
v 0.26616707 -0.07391033 -0.04712868
v 0.27290375 -0.09175722 -0.04641871
v 0.26815985 -0.09467588 -0.06044284
v 0.26275942 -0.05975622 -0.04552196
v 0.26277248 -0.06791277 -0.05207602
v 0.25699753 -0.05516182 -0.05822308
v 0.25946555 -0.06776101 -0.05932473
v 0.26472954 -0.08014340 -0.05593055
v 0.25466099 -0.04356100 -0.05774500
v 0.26030046 -0.05419498 -0.04920057
v 0.25044270 -0.01337623 -0.05363419
v 0.24499082 0.01361748 -0.05281878
v 0.25253043 -0.01307621 -0.04700411
v 0.24566830 0.00403356 -0.05638757
v 0.23993067 0.03321855 -0.05359019
v 0.24322208 0.02775012 -0.04812458
v 0.23515129 0.04748271 -0.05575347
v 0.24318915 0.03095553 -0.04595196
v 0.23508900 0.05558500 -0.04988100
v 0.23261238 0.06260414 -0.05068572
v 0.24276201 0.01004595 -0.05977351
v 0.24863219 -0.02127120 -0.06115723
v 0.23780001 0.02461912 -0.06240483
v 0.23666201 0.03005120 -0.06190371
v 0.22928782 0.07265625 -0.05031610
v 0.23011291 0.06122641 -0.05730977
v 0.23556971 0.02090903 -0.06787060
v 0.25201568 -0.05285273 -0.06675132
v 0.25780559 -0.07668134 -0.06680896
v 0.26657976 -0.08097392 -0.05235526
v 0.26665500 -0.09117300 -0.06003700
v 0.24228910 -0.00576765 -0.06688864
v 0.24824736 -0.04382508 -0.06992681
v 0.23128795 0.04723168 -0.06277154
v 0.24776800 -0.04651200 -0.07160200
v 0.23403079 -0.00893054 -0.07998809
v 0.22958626 0.03875502 -0.06922506
v 0.26336491 -0.09134622 -0.06573768
v 0.22307858 0.06875101 -0.06458013
v 0.25450887 -0.08733748 -0.07598137
v 0.24090911 -0.02209267 -0.07441390
v 0.22276602 0.08262816 -0.05599561
v 0.23393734 -0.02197187 -0.08335160
v 0.23635882 -0.04168774 -0.08539261
v 0.25050387 -0.06976103 -0.07507335
v 0.23462692 -0.06115799 -0.09129237
v 0.24428616 -0.08300430 -0.08624996
v 0.23228719 0.00782734 -0.07691266
v 0.22363322 0.05565997 -0.07035540
v 0.24716099 -0.07403794 -0.08049437
v 0.25833899 -0.09153700 -0.07284100
v 0.22280528 0.07834824 -0.05919150
v 0.21591871 0.08434405 -0.06575673
v 0.21846090 0.05024255 -0.07897799
v 0.22656165 0.02941541 -0.07687494
v 0.22441082 0.01413309 -0.08410320
v 0.21534043 0.04164553 -0.08479622
v 0.25637813 -0.09590545 -0.07748764
v 0.26020899 -0.09518600 -0.07248500
v 0.21274191 0.06007973 -0.08112098
v 0.21190800 0.09205900 -0.06611100
v 0.21365688 0.07492421 -0.07381555
v 0.21467119 0.09562078 -0.05960436
v 0.20928426 0.06358961 -0.08301925
v 0.20705119 0.09452590 -0.07089454
v 0.27074125 -0.09456104 -0.05559008
v 0.24555145 -0.09635415 -0.08850525
v 0.20524709 0.10414150 -0.06630583
v 0.21675839 0.09935556 -0.05201441
v 0.20175158 0.08396240 -0.08198568
v 0.21164149 0.10410964 -0.05684015
v 0.24674287 -0.09901115 -0.08878949
v 0.20212574 0.10560279 -0.06907249
v 0.20864708 0.10856831 -0.05755925
v 0.22867199 0.07947244 -0.04476917
v 0.22329014 0.08871064 -0.04941216
v 0.27307480 -0.08808264 -0.04101527
v 0.26213693 -0.05317941 -0.04136645
v 0.24926431 0.00662982 -0.04409619
v 0.27516756 -0.09564058 -0.04709552
v 0.25488560 -0.01667042 -0.04031071
v 0.20673752 0.11398411 -0.05435883
v 0.21584625 0.10411368 -0.04777969
v 0.25756435 -0.02702016 -0.03621805
v 0.23663851 0.06134567 -0.03659729
v 0.23911373 0.05059885 -0.04137898
v 0.24367084 0.03568028 -0.03858380
v 0.20247886 0.11398585 -0.06163958
v 0.26316313 -0.10179772 -0.07539069
v 0.23163700 0.07554900 -0.03745200
v 0.27088502 -0.07890187 -0.03411900
v 0.26377924 -0.05593127 -0.03537930
v 0.27866927 -0.09495469 -0.03313643
v 0.26723486 -0.07010459 -0.03798564
v 0.23673936 0.05970639 -0.04131717
v 0.22692532 0.08561738 -0.04151807
v 0.25740967 -0.02466667 -0.03261601
v 0.22293194 0.09361670 -0.04364514
v 0.21780228 0.10279339 -0.04401067
v 0.21146580 0.11160706 -0.04755902
v 0.27815271 -0.10418748 -0.05740746
v 0.27270125 -0.10411779 -0.06600943
v 0.27338394 -0.09679713 -0.05378148
v 0.27696119 -0.09255871 -0.03206212
v 0.26707693 -0.21187526 -0.02131026
v 0.26868733 -0.21359797 -0.03713643
v 0.27191138 -0.21822104 -0.02800095
v 0.26728868 -0.21422580 -0.01066829
v 0.26260076 -0.20884979 -0.00853066
v 0.27390108 -0.22087000 -0.01796319
v 0.27393712 -0.22076262 -0.02178675
v 0.27910663 -0.22672007 -0.01895641
v 0.27467237 -0.22275838 -0.00454339
v 0.26739152 -0.21630266 -0.00034663
v 0.25876735 -0.20768342 0.00231217
v 0.26164597 -0.21366725 0.01179376
v 0.27118965 -0.22146359 0.00962003
v 0.25220044 -0.21283522 0.03636350
v 0.27680746 -0.22553474 0.00709254
v 0.27190799 -0.22303900 0.01749700
v 0.26323654 -0.21901314 0.02878485
v 0.28064833 -0.22874025 0.01642049
v 0.26344554 -0.22110493 0.03848459
v 0.25427386 -0.21694467 0.04395137
v 0.25548603 -0.22026623 0.05122758
v 0.23699927 -0.20625075 0.04969959
v 0.23566114 -0.20199312 0.04493930
v 0.28626770 -0.23356228 0.00029630
v 0.28537305 -0.23349287 -0.01192801
v 0.29301076 -0.24025431 -0.00284951
v 0.23191170 -0.20903076 0.06141428
v 0.29309838 -0.23827329 0.01041779
v 0.29730831 -0.24340084 0.00236715
v 0.28174323 -0.23269577 -0.03352720
v 0.27171760 -0.21862326 -0.03579770
v 0.21743009 -0.20504311 0.07369412
v 0.28082913 -0.23067029 -0.03155696
v 0.30998627 -0.25614036 0.00642119
v 0.30557983 -0.25255661 0.00221758
v 0.30393683 -0.24595926 0.01772650
v 0.26892291 -0.21511611 -0.04301947
v 0.30552868 -0.25631115 -0.00810356
v 0.29885662 -0.24860281 -0.01134544
v 0.29591108 -0.24867037 -0.02296639
v 0.28047231 -0.23464752 -0.04525607
v 0.31159837 -0.26396084 -0.00608690
v 0.31707164 -0.26172982 0.01277151
v 0.20600908 -0.20779756 -0.13122876
v 0.21823153 -0.19114874 -0.12037916
v 0.21754955 -0.20948451 -0.12413126
v 0.21559498 -0.22081701 -0.12891512
v 0.22721959 -0.10702933 -0.10393176
v 0.22861873 -0.11775301 -0.10348667
v 0.23397157 -0.11781418 -0.09912199
v 0.23285874 -0.13186466 -0.10181692
v 0.22840596 -0.18443543 -0.11186620
v 0.22591186 -0.21211485 -0.11819911
v 0.25669633 -0.10483244 -0.08212044
v 0.23354659 -0.21385666 -0.11201209
v 0.23706576 -0.15296420 -0.10066128
v 0.24153847 -0.11563408 -0.09238153
v 0.23910495 -0.08998477 -0.09275386
v 0.23427700 -0.19964400 -0.10872100
v 0.24351799 -0.09662700 -0.09046100
v 0.23703663 -0.19888020 -0.10586023
v 0.22996171 -0.19415101 -0.11197117
v 0.23747377 -0.12067659 -0.09633960
v 0.26607622 -0.10445725 -0.07390060
v 0.22694663 -0.04074242 -0.09455086
v 0.22769835 -0.01570013 -0.08844932
v 0.23177101 -0.04641100 -0.09113000
v 0.20487042 0.05867146 -0.08891396
v 0.19134751 0.08075171 -0.09149442
v 0.18724994 0.08121685 -0.09395259
v 0.22905813 -0.24781965 -0.13000955
v 0.25276291 -0.29518118 -0.12823861
v 0.25695993 -0.31858429 -0.12945629
v 0.26013814 -0.31141882 -0.12591875
v 0.26935145 -0.33083470 -0.12094359
v 0.26299488 -0.33588175 -0.12634558
v 0.27028735 -0.34433799 -0.12080568
v 0.25730255 -0.29731733 -0.12545829
v 0.25477470 -0.28012319 -0.12223866
v 0.24553447 -0.26663900 -0.12484289
v 0.24841333 -0.26693598 -0.12269776
v 0.22465644 -0.22138728 -0.12266277
v 0.23839506 -0.25574097 -0.12635792
v 0.24595165 -0.27958660 -0.12897855
v 0.26450043 -0.31422474 -0.12295761
v 0.26530448 -0.29828152 -0.11888621
v 0.27325100 -0.31967399 -0.11605800
v 0.27172086 -0.32564971 -0.11830288
v 0.26179486 -0.35556996 -0.12700078
v 0.25496765 -0.37519793 -0.12987975
v 0.25879801 -0.38496744 -0.12580264
v 0.25864363 -0.36329111 -0.12867484
v 0.26758974 -0.36687436 -0.12185863
v 0.24625884 -0.25585650 -0.11990425
v 0.23923606 -0.10231315 -0.09515709
v 0.26983069 -0.30397389 -0.11613582
v 0.27589286 -0.33051205 -0.11502185
v 0.26399499 -0.28141901 -0.11429900
v 0.25711451 -0.27264945 -0.11756925
v 0.28651179 -0.32083629 -0.10260678
v 0.27332973 -0.29872474 -0.11124269
v 0.27795869 -0.30770058 -0.10919891
v 0.28181772 -0.35263240 -0.11020591
v 0.29054301 -0.36187155 -0.10070278
v 0.29269557 -0.35203614 -0.09867754
v 0.24230443 -0.19836336 -0.10014730
v 0.25034395 -0.15140377 -0.08625776
v 0.24623288 -0.12489756 -0.08828182
v 0.25324939 -0.15311669 -0.08267998
v 0.25046654 -0.19796292 -0.08946192
v 0.24494507 -0.14901280 -0.09232590
v 0.25579672 -0.12462262 -0.07581030
v 0.23739015 -0.23846626 -0.11964925
v 0.25403056 -0.26336239 -0.11635851
v 0.28187789 -0.33702756 -0.10988284
v 0.29135334 -0.33593728 -0.09929293
v 0.28771275 -0.34483281 -0.10430759
v 0.28982113 -0.32774453 -0.09990818
v 0.29623928 -0.33586211 -0.09340249
v 0.29943437 -0.34142948 -0.09009019
v 0.30342307 -0.33255712 -0.08321727
v 0.30851629 -0.33138417 -0.07534418
v 0.31137135 -0.34384282 -0.07313590
v 0.31657201 -0.34511316 -0.06466636
v 0.31836051 -0.35255401 -0.06218700
v 0.32365001 -0.34885450 -0.05227350
v 0.28066640 -0.32472962 -0.10965985
v 0.28452520 -0.30753047 -0.10132461
v 0.29948610 -0.35348738 -0.09061324
v 0.28053293 -0.36815667 -0.11031004
v 0.28395064 -0.36872997 -0.10704473
v 0.28505525 -0.38173600 -0.10373175
v 0.28707900 -0.38363124 -0.10114625
v 0.26636659 -0.38705435 -0.11977286
v 0.27297090 -0.38375518 -0.11492718
v 0.27351008 -0.36320460 -0.11731256
v 0.27704400 -0.38953200 -0.10999400
v 0.27570200 -0.39197299 -0.11066100
v 0.27450772 -0.28336027 -0.10423547
v 0.24659369 -0.12152100 -0.08715748
v 0.29190245 -0.31128787 -0.09329748
v 0.25323517 -0.24425440 -0.10698797
v 0.23660639 -0.21926787 -0.11135234
v 0.23995731 -0.21449867 -0.10534173
v 0.26124195 -0.26499398 -0.10988028
v 0.24775149 -0.23252570 -0.10628533
v 0.24011466 -0.21056414 -0.10434694
v 0.24872200 -0.21009000 -0.09307500
v 0.28545561 -0.29444108 -0.09528533
v 0.29756370 -0.31804203 -0.08784480
v 0.30359447 -0.32073426 -0.08028320
v 0.31151199 -0.32812500 -0.06944800
v 0.28838288 -0.29863118 -0.09346189
v 0.25264043 -0.23080867 -0.09923612
v 0.30091900 -0.36618799 -0.08797900
v 0.29511987 -0.37072825 -0.09451125
v 0.29668711 -0.36466613 -0.09342712
v 0.26564696 -0.26125571 -0.10269180
v 0.24861290 -0.21560919 -0.09463580
v 0.30397073 -0.35704552 -0.08445360
v 0.30558550 -0.36302701 -0.08196850
v 0.30958599 -0.35422000 -0.07643100
v 0.30597167 -0.34609895 -0.08155930
v 0.30999601 -0.35816801 -0.07581200
v 0.32289906 -0.35143706 -0.05309738
v 0.31152201 -0.35178399 -0.07341300
v 0.30319700 -0.36784801 -0.08485000
v 0.28083834 -0.27884684 -0.09349321
v 0.28809823 -0.29000577 -0.08941057
v 0.29456995 -0.29587132 -0.08284200
v 0.30085654 -0.30747414 -0.07878248
v 0.30453400 -0.30157147 -0.06920721
v 0.31443877 -0.31269996 -0.05736196
v 0.30447174 -0.29040460 -0.06134012
v 0.33018330 -0.32519029 -0.03116451
v 0.32986550 -0.31329020 -0.02379655
v 0.33936902 -0.32163852 -0.00790108
v 0.31699113 -0.29751872 -0.04044334
v 0.30998587 -0.28768981 -0.04700648
v 0.29424962 -0.26742888 -0.06099710
v 0.28614052 -0.26736805 -0.07699471
v 0.27971281 -0.24313901 -0.06294618
v 0.28555363 -0.25980175 -0.07095342
v 0.27079979 -0.23896669 -0.07707719
v 0.26443616 -0.22910532 -0.07874267
v 0.26293099 -0.23389933 -0.08635283
v 0.29616665 -0.27904690 -0.06844322
v 0.32359611 -0.30643526 -0.03296370
v 0.32596687 -0.31307123 -0.03293577
v 0.33420462 -0.30395078 -0.00503952
v 0.33605662 -0.29403503 0.00899371
v 0.33496407 -0.32476054 -0.02006056
v 0.31715974 -0.31354338 -0.05238737
v 0.32414981 -0.32789225 -0.04529990
v 0.31741843 -0.32926275 -0.05945270
v 0.32798939 -0.33246249 -0.03951356
v 0.33461497 -0.33534136 -0.02641629
v 0.32385821 -0.34190814 -0.05076928
v 0.31747199 -0.33716529 -0.06158493
v 0.34766451 -0.33920050 0.00135400
v 0.29925684 -0.29258220 -0.07305722
v 0.31075009 -0.32301583 -0.06907862
v 0.27555322 -0.27434228 -0.09812179
v 0.25068736 -0.21258686 -0.09062105
v 0.25540099 -0.19136199 -0.08153600
v 0.25442201 -0.19555500 -0.08326800
v 0.25893078 -0.16734172 -0.07495146
v 0.25629669 -0.13044872 -0.07633158
v 0.26148459 -0.15452764 -0.06983658
v 0.27412369 -0.26105058 -0.09129742
v 0.28464922 -0.27328282 -0.08421493
v 0.27663831 -0.25651446 -0.08375998
v 0.26453405 -0.24788023 -0.09541860
v 0.25698217 -0.22656743 -0.08971467
v 0.25419276 -0.21433550 -0.08501965
v 0.25880403 -0.21402441 -0.07615465
v 0.25956101 -0.19586296 -0.07416113
v 0.33404800 -0.34512550 -0.03075075
v 0.34574850 -0.33910451 -0.00248250
v 0.35131828 -0.32204526 0.01468573
v 0.35293547 -0.32834754 0.01470454
v 0.35305101 -0.33460400 0.01276000
v 0.34631172 -0.31222942 0.01294330
v 0.35347922 -0.31931236 0.01984297
v 0.34549822 -0.33335231 -0.00049345
v 0.34376095 -0.32505884 0.00027803
v 0.35022000 -0.33507625 0.00728963
v 0.34149238 -0.30889851 0.00703546
v 0.34615708 -0.31814320 0.00888643
v 0.34225482 -0.31572908 0.00335598
v 0.34987867 -0.30168641 0.02439265
v 0.35202032 -0.30418129 0.02602375
v 0.26505214 -0.16555428 -0.06278341
v 0.26727431 -0.12853200 -0.05636552
v 0.33979692 -0.29912486 0.01182711
v 0.26744246 -0.16398661 -0.05686376
v 0.34559429 -0.29088893 0.02673800
v 0.34380385 -0.28292992 0.03096309
v 0.35404083 -0.32167353 0.02123776
v 0.26289494 -0.21602411 -0.06812252
v 0.26603699 -0.21412501 -0.05705600
v 0.32083230 -0.28042684 -0.01047663
v 0.31597791 -0.27921488 -0.02116956
v 0.31435884 -0.27285437 -0.01540672
v 0.29616743 -0.26035543 -0.04723772
v 0.30640153 -0.26877643 -0.03174220
v 0.29959599 -0.25644887 -0.02917461
v 0.30309349 -0.27191299 -0.04521437
v 0.28749088 -0.25491452 -0.06146278
v 0.31742721 -0.28860136 -0.03026894
v 0.32834589 -0.29167529 -0.00591520
v 0.28363957 -0.24933535 -0.06250155
v 0.31243030 -0.26603414 -0.00819740
v 0.33931186 -0.28678497 0.02164578
v 0.26943432 -0.15990368 -0.05141131
v 0.33520972 -0.28427743 0.01748463
v 0.33331686 -0.28727492 0.01051976
v 0.32523185 -0.28435774 -0.00420509
v 0.26713582 -0.21538508 -0.05390124
v 0.35293568 -0.30900524 0.02521491
v 0.34032340 -0.27341327 0.03496796
v 0.32507055 -0.27327961 0.01143278
v 0.27063316 -0.14388558 -0.04876343
v 0.33575288 -0.27559472 0.02713660
v 0.33488378 -0.26982245 0.03172204
v 0.26565914 -0.21923319 -0.06465912
v 0.28095155 -0.24037939 -0.05544500
v 0.27125578 -0.15419598 -0.04571288
v 0.26904500 -0.19285860 -0.04868319
v 0.26756973 -0.21145389 -0.05064194
v 0.27170932 -0.13408963 -0.04411939
v 0.34342744 -0.27729846 0.03601111
v 0.33886001 -0.26794100 0.03996700
v 0.35152975 -0.30080373 0.02932073
v 0.27405816 -0.13582155 -0.03287212
v 0.27260717 -0.14772563 -0.04074467
v 0.31678590 -0.25618035 0.02378475
v 0.34763333 -0.28659508 0.03426796
v 0.32687992 -0.27024393 0.01966111
v 0.35370155 -0.31608266 0.02344448
v 0.26132527 -0.39859858 -0.12109780
v 0.27137101 -0.39788499 -0.11300800
v 0.26474201 -0.40273600 -0.11725050
v 0.33543143 -0.26499519 0.03763796
v 0.27464796 -0.13465852 -0.02852143
v 0.32362610 -0.26470588 0.02189354
v 0.24922553 -0.12032666 -0.08448083
v 0.26362699 -0.11036900 -0.07388400
v 0.27219374 -0.17821559 -0.03585900
v 0.34990979 -0.29376393 0.03303788
v 0.32762032 -0.25605772 0.03893757
v 0.27069635 -0.19938609 -0.03383427
v 0.26939873 -0.10518443 -0.07016469
v 0.34135416 -0.27192630 0.04087965
v 0.33468918 -0.26138051 0.04137058
v 0.26777951 -0.21478209 -0.04860025
v 0.34644363 -0.28374181 0.03698525
v 0.25628600 -0.39824399 -0.12476400
v 0.27471416 -0.14302265 -0.02820693
v 0.27461256 -0.15098419 -0.02175501
v 0.27101280 -0.19579860 -0.02780668
v 0.27390542 -0.16039325 -0.02143653
v 0.27501449 -0.14486099 -0.01113706
v 0.35331300 -0.31868699 0.02578100
v 0.33754085 -0.26484252 0.04309752
v 0.34888833 -0.29504361 0.03643178
v 0.34668389 -0.28821885 0.03902084
v 0.34343390 -0.40172188 0.00717688
v 0.34372038 -0.39485732 0.00074942
v 0.35314184 -0.38386810 0.02234014
v 0.34723883 -0.39982276 0.01952865
v 0.35252589 -0.38916302 0.02640807
v 0.33382971 -0.41949298 -0.00317218
v 0.33482363 -0.41896784 -0.00027938
v 0.32696081 -0.41765090 -0.02546852
v 0.33901279 -0.39855728 -0.00987253
v 0.33106492 -0.41983456 -0.01171457
v 0.35223969 -0.38080665 0.01707510
v 0.33039382 -0.40047726 -0.03019094
v 0.32282861 -0.41953721 -0.03297126
v 0.32397897 -0.40275334 -0.04201846
v 0.32365830 -0.42076078 -0.03053702
v 0.35240259 -0.37788680 0.01581686
v 0.31698403 -0.42067148 -0.04449673
v 0.33195510 -0.38977049 -0.03215100
v 0.34683396 -0.38346951 0.00166178
v 0.35616703 -0.38130353 0.03349913
v 0.34197901 -0.38524320 -0.01031798
v 0.33069656 -0.38190651 -0.03737165
v 0.34279008 -0.36841732 -0.01349047
v 0.33663280 -0.37643420 -0.02588986
v 0.32960709 -0.42017846 -0.01626045
v 0.34893623 -0.37329348 0.00281130
v 0.35581301 -0.36085540 0.02070383
v 0.35189206 -0.34780533 0.00776561
v 0.35794610 -0.35140147 0.02707503
v 0.34894396 -0.36668917 0.00181392
v 0.35607536 -0.36429659 0.02180463
v 0.31375635 -0.41907809 -0.05154022
v 0.31479566 -0.40580102 -0.05732924
v 0.30776855 -0.40446533 -0.06941894
v 0.32408416 -0.39305318 -0.04665728
v 0.31670123 -0.38957714 -0.06095064
v 0.32007641 -0.38333146 -0.05690331
v 0.32609988 -0.37589476 -0.04736761
v 0.33484106 -0.37160605 -0.03063370
v 0.33347546 -0.36428123 -0.03439617
v 0.34221088 -0.35731680 -0.01479705
v 0.34985283 -0.35967330 0.00340822
v 0.31008567 -0.42057878 -0.05755757
v 0.33205011 -0.36798318 -0.03682705
v 0.30640979 -0.39400841 -0.07542670
v 0.30277911 -0.41276032 -0.07330051
v 0.31650977 -0.37423488 -0.06455011
v 0.34965879 -0.34820572 0.00342620
v 0.30811792 -0.38610902 -0.07515603
v 0.30799774 -0.37768302 -0.07696166
v 0.31262286 -0.37437071 -0.07068876
v 0.30126141 -0.37575923 -0.08663984
v 0.32982908 -0.35526094 -0.04116351
v 0.32431949 -0.35617869 -0.05183544
v 0.33667070 -0.35104268 -0.02651557
v 0.32238331 -0.36609614 -0.05557484
v 0.35903476 -0.36377019 0.03217678
v 0.30170847 -0.38625674 -0.08399092
v 0.31035689 -0.36740613 -0.07509013
v 0.30197651 -0.42202850 -0.07100275
v 0.29648377 -0.40238849 -0.08603340
v 0.29422908 -0.40566860 -0.08750516
v 0.28809421 -0.42190330 -0.08873977
v 0.29686169 -0.41758117 -0.07920241
v 0.34809355 -0.34546810 0.00056918
v 0.34298590 -0.34715513 -0.01117283
v 0.36031136 -0.36778879 0.04211295
v 0.36092072 -0.35419338 0.03824131
v 0.28814539 -0.40745874 -0.09405514
v 0.29523514 -0.38790100 -0.09156997
v 0.35229337 -0.34022999 0.00963307
v 0.28839195 -0.38890011 -0.09904312
v 0.28796378 -0.39640078 -0.09758283
v 0.35936967 -0.34589618 0.03256873
v 0.35277003 -0.39240773 0.03376044
v 0.36051914 -0.36330106 0.03791182
v 0.35404950 -0.33824586 0.02011442
v 0.28029893 -0.40631113 -0.10259337
v 0.27475260 -0.42149717 -0.10301417
v 0.25740075 -0.42237600 -0.11753200
v 0.27663021 -0.40069354 -0.10763776
v 0.27104799 -0.42230950 -0.10627250
v 0.34598433 -0.40505629 0.02394047
v 0.34006426 -0.41896686 0.02356445
v 0.33768899 -0.41903921 0.01102572
v 0.36104099 -0.36573756 0.04556780
v 0.34585590 -0.41004821 0.03922732
v 0.35737536 -0.38151658 0.04119205
v 0.35142513 -0.39649323 0.03427098
v 0.36141971 -0.36585293 0.05182376
v 0.35351050 -0.34329455 0.01488797
v 0.35984438 -0.33417475 0.04030421
v 0.36191504 -0.33827779 0.04632837
v 0.36258243 -0.35450996 0.05022443
v 0.34102675 -0.41918376 0.03281025
v 0.35860699 -0.37804899 0.04798900
v 0.35601100 -0.38650599 0.04749600
v 0.34148963 -0.41829862 0.03927395
v 0.34155101 -0.41837600 0.04379400
v 0.35723925 -0.38265125 0.05119675
v 0.36281940 -0.34431173 0.04880490
v 0.35384342 -0.39231993 0.04365808
v 0.36005199 -0.37198600 0.05341800
v 0.36117299 -0.36575700 0.05494175
v 0.36304594 -0.34903409 0.05501964
v 0.36171950 -0.36279300 0.05515150
v 0.36272933 -0.33651583 0.05936131
v 0.36160248 -0.33230365 0.04859791
v 0.36274099 -0.35252100 0.05764500
v 0.36058006 -0.32576882 0.05365597
v 0.36134102 -0.32773456 0.06086252
v 0.31942150 -0.42199500 -0.04075050
v 0.30795900 -0.42190699 -0.06214300
f 794 793 781
f 781 793 792
f 794 781 796
f 792 778 781
f 793 789 792
f 796 781 783
f 794 796 791
f 781 778 779
f 783 781 777
f 796 783 782
f 782 794 791
f 782 791 796
f 781 779 777
f 783 777 698
f 782 783 769
f 794 782 790
f 777 779 701
f 777 701 698
f 783 698 699
f 782 769 714
f 769 783 699
f 784 790 782
f 794 790 784
f 698 701 695
f 699 698 697
f 714 769 699
f 782 714 770
f 784 782 780
f 797 794 784
f 697 698 695
f 695 701 700
f 714 699 697
f 770 714 697
f 761 782 770
f 780 782 761
f 770 784 780
f 798 797 784
f 697 695 696
f 695 700 703
f 770 697 705
f 780 761 770
f 784 770 788
f 800 798 784
f 696 695 703
f 705 697 696
f 700 704 703
f 770 705 710
f 788 770 795
f 799 784 788
f 803 800 784
f 713 696 703
f 705 696 713
f 703 704 702
f 710 705 713
f 770 710 751
f 770 762 795
f 795 799 788
f 803 784 799
f 713 703 715
f 703 702 706
f 704 719 702
f 751 710 713
f 770 751 762
f 795 762 768
f 801 799 795
f 801 803 799
f 715 703 706
f 720 713 715
f 702 709 706
f 702 719 709
f 751 713 725
f 762 751 768
f 787 795 768
f 802 801 795
f 712 715 706
f 725 713 720
f 720 715 712
f 706 709 707
f 751 725 723
f 768 751 723
f 787 768 802
f 802 795 787
f 805 801 802
f 712 706 708
f 721 725 720
f 720 712 717
f 706 707 711
f 725 721 723
f 768 723 785
f 786 802 768
f 26 801 805
f 805 802 804
f 706 711 708
f 712 708 729
f 721 720 722
f 717 712 718
f 717 724 720
f 707 709 711
f 723 721 722
f 723 722 785
f 771 768 785
f 786 768 771
f 802 786 18
f 11 26 805
f 804 802 11
f 805 804 11
f 708 711 726
f 729 708 726
f 716 712 729
f 722 720 724
f 718 712 716
f 717 718 734
f 736 724 717
f 609 785 722
f 18 771 785
f 18 786 771
f 802 18 15
f 11 802 15
f 726 711 737
f 729 726 727
f 716 729 732
f 722 724 736
f 718 716 733
f 735 717 734
f 734 718 733
f 742 736 717
f 609 722 765
f 18 785 609
f 711 807 737
f 726 737 727
f 730 729 727
f 750 716 732
f 732 729 730
f 722 736 765
f 733 716 738
f 742 717 735
f 749 735 734
f 734 733 738
f 765 736 742
f 609 765 587
f 18 609 626
f 711 806 807
f 737 807 754
f 727 737 740
f 727 728 730
f 738 716 750
f 750 732 731
f 731 732 730
f 759 742 735
f 749 734 747
f 760 735 749
f 734 738 750
f 765 742 759
f 587 765 759
f 626 17 18
f 626 609 608
f 709 806 711
f 728 727 740
f 737 754 740
f 730 728 739
f 750 731 741
f 739 731 730
f 759 735 760
f 747 734 748
f 552 749 747
f 587 760 749
f 748 734 750
f 587 759 760
f 17 626 16
f 608 609 614
f 611 626 608
f 739 728 740
f 758 740 754
f 741 731 743
f 753 750 741
f 731 739 743
f 747 748 552
f 587 749 552
f 748 750 552
f 14 17 16
f 16 626 691
f 608 614 607
f 611 608 607
f 667 626 611
f 739 740 755
f 740 758 755
f 758 754 757
f 741 743 745
f 753 741 745
f 750 753 552
f 743 739 752
f 13 14 16
f 14 21 17
f 667 16 691
f 691 626 667
f 607 614 612
f 619 611 607
f 647 667 611
f 739 755 752
f 758 757 755
f 745 743 744
f 753 745 746
f 552 753 554
f 746 743 752
f 12 14 13
f 14 15 21
f 667 647 16
f 616 607 612
f 614 606 612
f 619 607 610
f 647 611 619
f 752 755 764
f 755 757 756
f 746 744 743
f 745 744 746
f 753 746 554
f 752 764 746
f 12 13 19
f 9 14 12
f 23 15 14
f 20 16 647
f 610 607 616
f 616 612 613
f 606 605 612
f 619 610 618
f 661 647 619
f 755 763 764
f 755 756 763
f 756 757 763
f 520 554 746
f 746 764 766
f 5 12 19
f 10 9 12
f 9 23 14
f 20 647 661
f 622 610 616
f 613 612 564
f 617 616 613
f 584 612 605
f 618 610 624
f 619 618 624
f 677 661 619
f 764 763 767
f 763 757 773
f 746 766 520
f 764 767 766
f 6 12 5
f 10 23 9
f 6 10 12
f 677 20 661
f 624 610 622
f 616 615 622
f 612 584 564
f 564 617 613
f 615 616 617
f 584 605 583
f 665 619 624
f 665 677 619
f 767 763 772
f 772 763 773
f 766 772 520
f 766 767 772
f 10 22 23
f 22 10 6
f 693 20 677
f 624 622 641
f 622 615 577
f 579 564 584
f 577 617 564
f 615 617 577
f 562 584 583
f 605 585 583
f 665 624 659
f 694 677 665
f 775 772 773
f 772 775 520
f 24 23 22
f 1 22 6
f 694 20 693
f 694 693 677
f 643 641 622
f 625 624 641
f 578 622 577
f 564 579 576
f 579 584 562
f 577 564 563
f 562 583 576
f 583 585 582
f 605 513 585
f 659 624 625
f 681 665 659
f 684 694 665
f 775 773 774
f 520 775 122
f 3 24 22
f 24 25 23
f 1 3 22
f 7 20 694
f 643 622 578
f 651 641 643
f 625 641 651
f 578 577 644
f 563 564 576
f 579 562 576
f 577 563 576
f 576 583 580
f 583 582 581
f 585 586 582
f 513 512 585
f 659 625 648
f 681 659 660
f 681 684 665
f 681 694 684
f 773 776 774
f 775 774 122
f 2 24 3
f 24 4 25
f 8 7 694
f 643 578 644
f 651 643 652
f 648 625 651
f 644 577 638
f 575 577 576
f 575 576 580
f 583 581 580
f 581 582 580
f 586 509 582
f 586 585 511
f 512 511 585
f 659 648 660
f 681 660 692
f 162 694 681
f 122 774 123
f 2 4 24
f 8 694 162
f 666 643 644
f 652 643 673
f 648 651 652
f 638 577 629
f 644 638 645
f 577 575 565
f 565 575 580
f 580 582 560
f 539 582 509
f 509 586 510
f 586 511 510
f 512 553 511
f 660 648 682
f 692 660 682
f 681 161 162
f 673 643 666
f 666 644 649
f 664 652 673
f 671 648 652
f 629 577 637
f 645 638 629
f 649 644 645
f 577 565 637
f 580 560 565
f 582 589 560
f 589 539 509
f 589 582 539
f 509 510 550
f 510 511 553
f 682 648 671
f 161 692 682
f 161 681 692
f 666 649 673
f 671 652 664
f 673 430 664
f 629 637 630
f 649 645 629
f 637 565 566
f 565 560 561
f 560 589 538
f 589 509 538
f 550 508 509
f 510 553 550
f 671 664 682
f 161 682 159
f 673 649 429
f 430 429 664
f 673 429 430
f 631 629 630
f 637 633 630
f 649 629 429
f 566 565 561
f 637 566 635
f 561 560 559
f 560 538 559
f 538 509 508
f 508 550 507
f 553 549 550
f 682 664 678
f 159 682 678
f 664 429 421
f 629 631 640
f 630 633 631
f 635 633 637
f 629 640 429
f 566 561 574
f 635 566 567
f 559 588 561
f 538 558 559
f 538 508 507
f 550 516 507
f 549 551 550
f 553 551 549
f 678 664 160
f 159 678 160
f 421 429 422
f 664 421 422
f 640 631 634
f 631 633 634
f 633 635 632
f 640 634 429
f 561 588 574
f 566 574 567
f 632 635 567
f 559 558 588
f 558 538 540
f 538 507 506
f 507 516 504
f 547 516 550
f 550 551 548
f 160 664 157
f 429 425 422
f 423 664 422
f 634 633 632
f 426 429 634
f 574 588 598
f 574 568 567
f 636 632 567
f 588 558 557
f 537 540 538
f 557 558 540
f 506 507 504
f 538 506 487
f 516 492 504
f 547 548 516
f 550 548 547
f 157 664 423
f 422 425 426
f 425 429 426
f 423 422 416
f 632 654 634
f 427 426 634
f 574 598 568
f 588 557 598
f 636 567 568
f 632 636 654
f 537 538 487
f 540 537 528
f 557 540 556
f 506 504 503
f 506 505 487
f 492 490 504
f 516 491 492
f 548 554 516
f 157 423 158
f 416 422 426
f 416 415 423
f 634 654 428
f 417 426 427
f 427 634 428
f 570 568 598
f 557 556 598
f 636 568 570
f 636 639 654
f 537 487 528
f 528 515 540
f 556 540 536
f 503 504 502
f 506 503 505
f 505 514 487
f 492 491 490
f 490 464 504
f 516 544 491
f 554 542 516
f 158 423 155
f 416 426 413
f 416 413 415
f 415 154 423
f 428 654 683
f 426 417 395
f 417 427 428
f 570 598 599
f 598 556 555
f 639 636 570
f 639 569 654
f 528 487 515
f 540 515 489
f 526 536 540
f 536 526 556
f 505 503 502
f 502 504 464
f 487 514 489
f 505 502 514
f 491 518 490
f 464 490 523
f 544 543 491
f 516 542 544
f 155 423 154
f 413 426 412
f 415 413 411
f 415 151 154
f 417 428 683
f 683 654 653
f 395 417 420
f 426 395 412
f 570 599 573
f 598 597 599
f 556 526 555
f 598 555 590
f 569 639 570
f 654 569 653
f 515 487 489
f 540 489 526
f 462 502 464
f 489 514 475
f 514 502 484
f 518 517 490
f 491 543 518
f 523 480 464
f 517 523 490
f 542 543 544
f 413 412 411
f 405 415 411
f 151 415 405
f 424 417 683
f 395 420 418
f 418 420 417
f 395 396 412
f 571 570 573
f 573 599 600
f 597 598 590
f 599 597 600
f 555 526 590
f 569 570 653
f 526 489 488
f 464 463 462
f 484 502 462
f 489 475 474
f 514 484 475
f 518 522 517
f 543 519 518
f 464 480 476
f 523 521 480
f 517 522 523
f 411 412 396
f 411 396 405
f 418 417 424
f 389 424 683
f 395 418 390
f 395 393 396
f 653 570 571
f 572 571 573
f 573 600 601
f 597 590 600
f 590 526 532
f 488 489 483
f 526 488 473
f 460 462 463
f 463 464 476
f 484 462 475
f 474 475 472
f 472 489 474
f 518 519 522
f 480 479 476
f 521 478 480
f 522 521 523
f 405 396 402
f 418 424 389
f 394 395 390
f 389 390 418
f 393 395 394
f 388 396 393
f 653 571 572
f 572 573 601
f 600 541 601
f 590 545 600
f 532 526 486
f 545 590 532
f 473 488 483
f 489 472 483
f 526 473 485
f 462 460 472
f 463 476 135
f 475 462 472
f 519 524 522
f 476 479 136
f 479 480 478
f 521 668 478
f 522 668 521
f 402 396 400
f 405 402 400
f 388 394 390
f 388 390 389
f 388 393 394
f 391 396 388
f 627 653 572
f 572 601 602
f 600 529 541
f 601 541 546
f 600 545 529
f 486 526 485
f 532 486 501
f 545 532 529
f 483 472 473
f 486 485 473
f 461 472 460
f 463 135 134
f 135 476 136
f 525 524 519
f 524 525 522
f 479 477 136
f 479 478 477
f 478 668 685
f 522 670 668
f 396 397 400
f 405 400 403
f 391 388 398
f 391 397 396
f 627 572 603
f 628 653 627
f 603 572 602
f 602 601 546
f 541 529 533
f 546 541 530
f 501 486 466
f 529 532 501
f 473 472 465
f 473 465 486
f 465 461 460
f 465 472 461
f 525 669 522
f 477 137 136
f 477 478 137
f 478 685 137
f 668 670 685
f 669 670 522
f 399 400 397
f 403 400 404
f 405 403 404
f 398 397 391
f 628 627 603
f 628 646 653
f 593 603 602
f 591 602 546
f 533 529 530
f 541 533 530
f 546 530 531
f 486 465 466
f 468 501 466
f 529 501 530
f 465 460 134
f 399 397 398
f 404 400 399
f 405 404 406
f 623 628 603
f 628 683 646
f 683 653 646
f 593 602 497
f 592 603 593
f 591 546 534
f 602 591 497
f 531 530 442
f 546 531 534
f 466 465 471
f 466 471 468
f 501 468 481
f 530 501 500
f 459 465 134
f 186 399 398
f 404 399 401
f 406 404 401
f 152 405 406
f 623 603 620
f 628 623 642
f 683 628 657
f 592 593 497
f 594 603 592
f 535 591 534
f 497 591 535
f 442 530 440
f 534 531 442
f 465 459 471
f 468 471 467
f 481 468 470
f 500 501 481
f 500 469 530
f 471 459 134
f 398 183 186
f 401 399 186
f 407 406 401
f 153 405 152
f 148 152 406
f 620 603 604
f 623 620 621
f 642 623 650
f 642 656 628
f 656 657 628
f 683 657 656
f 594 592 497
f 594 604 603
f 493 535 534
f 497 535 493
f 534 442 440
f 530 469 440
f 468 467 470
f 467 471 470
f 500 481 470
f 500 470 469
f 471 134 133
f 182 186 183
f 398 184 183
f 401 186 181
f 407 401 409
f 406 407 408
f 148 406 149
f 620 604 596
f 621 620 596
f 650 623 621
f 650 655 642
f 655 656 642
f 676 683 656
f 595 594 497
f 596 604 594
f 493 534 448
f 496 497 493
f 449 534 440
f 469 434 440
f 470 471 133
f 470 458 469
f 398 392 184
f 401 181 409
f 408 407 409
f 149 406 408
f 621 596 595
f 171 650 621
f 663 655 650
f 663 656 655
f 676 656 663
f 676 679 683
f 595 497 496
f 596 594 595
f 493 448 449
f 448 534 446
f 496 493 494
f 440 433 449
f 446 534 449
f 433 440 434
f 469 458 434
f 458 470 133
f 392 185 184
f 398 388 392
f 181 180 409
f 408 409 414
f 149 408 147
f 174 621 595
f 171 621 168
f 658 650 171
f 663 650 658
f 686 676 663
f 686 679 676
f 189 683 679
f 499 595 496
f 449 448 446
f 498 493 449
f 493 498 494
f 495 496 494
f 432 449 433
f 433 434 431
f 458 133 434
f 392 388 185
f 180 179 409
f 408 414 156
f 409 177 414
f 147 408 156
f 174 595 499
f 174 168 621
f 166 658 171
f 686 663 658
f 687 679 686
f 188 189 679
f 189 187 683
f 499 496 495
f 498 449 443
f 495 494 498
f 432 433 431
f 126 449 432
f 431 434 124
f 434 133 132
f 388 187 185
f 179 410 409
f 414 419 156
f 178 177 409
f 177 419 414
f 170 658 166
f 662 686 658
f 689 679 687
f 686 690 687
f 688 188 679
f 187 389 683
f 499 495 674
f 443 449 439
f 498 443 495
f 125 432 431
f 126 432 125
f 439 449 126
f 431 124 125
f 434 132 124
f 184 185 187
f 388 389 187
f 178 410 179
f 178 409 410
f 150 156 419
f 176 419 177
f 169 658 170
f 672 662 658
f 672 686 662
f 689 191 679
f 687 191 689
f 195 690 686
f 690 190 687
f 192 188 688
f 191 688 679
f 674 495 527
f 451 499 674
f 438 443 439
f 495 443 438
f 436 439 126
f 150 419 116
f 419 176 113
f 672 658 169
f 194 686 672
f 190 191 687
f 195 686 193
f 195 190 690
f 191 192 688
f 444 527 495
f 674 527 444
f 675 499 451
f 451 674 441
f 438 439 436
f 495 438 450
f 435 436 126
f 114 116 419
f 114 419 113
f 169 194 672
f 193 686 194
f 444 495 450
f 441 674 444
f 680 675 451
f 680 499 675
f 372 451 441
f 437 438 436
f 437 450 438
f 435 126 127
f 482 436 435
f 112 114 113
f 444 450 437
f 441 444 482
f 385 680 451
f 175 499 680
f 372 441 355
f 385 451 372
f 482 437 436
f 127 482 435
f 112 113 91
f 95 114 112
f 482 444 437
f 355 441 482
f 680 385 175
f 173 499 175
f 341 372 355
f 385 372 384
f 131 482 127
f 112 91 109
f 94 95 112
f 27 114 95
f 350 355 482
f 384 175 385
f 173 174 499
f 323 341 355
f 372 341 342
f 384 372 286
f 445 482 131
f 109 91 92
f 96 112 109
f 96 94 112
f 330 355 350
f 447 350 482
f 384 167 175
f 334 341 323
f 323 355 330
f 342 341 321
f 321 372 342
f 286 372 321
f 384 286 386
f 445 131 452
f 330 482 445
f 109 92 90
f 108 96 109
f 330 350 447
f 330 447 482
f 321 334 323
f 334 321 341
f 333 323 330
f 314 286 321
f 386 286 349
f 167 384 386
f 452 131 130
f 445 452 329
f 330 445 329
f 109 90 89
f 103 96 108
f 103 108 109
f 312 321 323
f 328 323 333
f 330 327 333
f 313 286 314
f 313 314 321
f 285 349 286
f 285 386 349
f 167 386 363
f 139 452 130
f 454 329 452
f 330 329 327
f 115 96 103
f 109 88 103
f 312 288 321
f 312 323 328
f 328 333 327
f 285 286 313
f 291 313 321
f 363 386 285
f 167 363 376
f 452 139 129
f 327 329 454
f 453 454 452
f 115 103 88
f 290 288 312
f 291 321 288
f 311 312 328
f 328 327 324
f 377 285 313
f 284 313 291
f 363 285 360
f 376 172 167
f 387 376 363
f 453 452 129
f 327 454 453
f 87 115 88
f 289 288 290
f 290 312 311
f 284 291 288
f 316 311 328
f 324 327 326
f 318 328 324
f 377 360 285
f 284 377 313
f 387 363 360
f 172 376 280
f 387 279 376
f 453 129 339
f 327 453 326
f 105 115 87
f 293 288 289
f 290 311 289
f 377 284 288
f 305 311 316
f 316 328 318
f 324 326 319
f 316 318 324
f 387 360 377
f 165 172 280
f 283 280 376
f 283 376 279
f 269 279 387
f 337 339 129
f 339 319 453
f 319 326 453
f 119 105 87
f 119 115 105
f 293 287 288
f 293 289 292
f 305 289 311
f 377 288 287
f 305 316 315
f 315 324 319
f 316 324 315
f 374 387 377
f 281 165 280
f 281 280 283
f 283 279 281
f 279 269 273
f 269 387 275
f 340 337 129
f 338 339 337
f 331 319 339
f 119 87 86
f 361 287 293
f 292 289 305
f 293 292 305
f 361 377 287
f 304 305 315
f 310 315 319
f 275 374 377
f 374 275 387
f 281 266 165
f 266 281 279
f 265 273 269
f 265 279 273
f 260 269 275
f 455 340 129
f 343 337 340
f 332 338 337
f 338 331 339
f 310 319 331
f 84 119 86
f 367 361 293
f 294 293 305
f 375 377 361
f 294 305 304
f 304 315 310
f 260 275 377
f 266 279 218
f 257 265 269
f 265 253 279
f 257 269 260
f 455 129 128
f 343 340 455
f 345 337 343
f 332 337 345
f 332 320 338
f 310 331 338
f 104 119 84
f 367 293 364
f 367 375 361
f 293 294 364
f 272 377 375
f 297 294 304
f 306 304 310
f 260 377 272
f 218 164 266
f 279 222 218
f 257 253 265
f 279 253 222
f 260 224 257
f 456 455 128
f 347 343 455
f 345 343 353
f 332 345 322
f 332 317 320
f 310 338 320
f 104 84 85
f 98 119 104
f 276 367 364
f 380 375 367
f 364 294 296
f 380 272 375
f 295 294 297
f 298 297 304
f 304 306 300
f 307 306 310
f 259 260 272
f 222 164 218
f 216 253 257
f 222 253 223
f 224 216 257
f 260 245 224
f 456 128 457
f 353 455 456
f 343 347 353
f 353 347 455
f 348 345 353
f 309 332 322
f 322 345 336
f 317 310 320
f 309 317 332
f 104 85 83
f 98 104 110
f 276 364 362
f 276 380 367
f 296 294 362
f 362 364 296
f 272 380 252
f 362 294 295
f 298 295 297
f 298 304 300
f 300 306 307
f 300 307 310
f 260 259 255
f 255 259 272
f 211 164 222
f 223 253 216
f 223 219 222
f 219 216 224
f 239 224 245
f 255 245 260
f 457 128 138
f 456 457 138
f 353 456 196
f 336 345 348
f 348 353 197
f 335 309 322
f 335 322 336
f 300 310 317
f 300 317 309
f 107 104 83
f 98 110 120
f 106 110 104
f 276 362 370
f 252 380 276
f 255 272 252
f 301 362 295
f 298 299 295
f 378 298 300
f 205 164 211
f 219 211 222
f 217 223 216
f 217 219 223
f 217 216 219
f 219 224 220
f 239 220 224
f 239 245 241
f 245 255 241
f 196 456 138
f 353 196 197
f 344 336 348
f 356 348 197
f 308 309 335
f 346 335 336
f 309 303 300
f 82 107 83
f 106 104 107
f 98 120 97
f 120 110 106
f 277 276 370
f 370 362 301
f 261 252 276
f 252 250 255
f 301 295 299
f 378 299 298
f 300 302 378
f 205 204 164
f 203 205 211
f 207 211 219
f 208 219 220
f 220 239 226
f 241 235 239
f 241 255 250
f 346 336 344
f 346 344 348
f 371 356 197
f 351 348 356
f 308 303 309
f 359 308 335
f 325 335 346
f 302 300 303
f 106 107 82
f 106 111 120
f 267 276 277
f 268 277 370
f 369 370 301
f 251 252 261
f 267 261 276
f 242 250 252
f 301 299 378
f 378 302 303
f 164 204 163
f 203 204 205
f 203 211 207
f 212 207 219
f 212 219 208
f 208 220 214
f 225 220 226
f 235 226 239
f 235 241 242
f 250 242 241
f 357 346 348
f 198 371 197
f 351 356 371
f 357 348 351
f 303 308 358
f 381 308 359
f 359 335 325
f 325 346 359
f 106 82 111
f 120 111 100
f 267 277 268
f 370 369 268
f 369 301 378
f 242 252 251
f 249 251 261
f 249 261 267
f 378 303 358
f 207 206 203
f 207 212 208
f 208 214 215
f 220 215 214
f 215 220 225
f 215 225 226
f 226 235 227
f 240 235 242
f 354 346 357
f 201 371 198
f 357 351 371
f 358 308 381
f 382 381 359
f 352 359 346
f 111 82 31
f 100 111 31
f 120 100 117
f 256 267 268
f 378 268 369
f 242 251 249
f 256 249 267
f 358 278 378
f 145 203 206
f 145 206 207
f 208 213 207
f 141 208 215
f 227 215 226
f 227 235 234
f 240 230 235
f 242 249 240
f 352 346 354
f 383 354 357
f 371 201 202
f 365 357 371
f 379 358 381
f 382 359 366
f 381 382 270
f 366 359 352
f 117 100 31
f 118 120 117
f 256 268 264
f 378 368 268
f 244 249 256
f 278 358 379
f 373 378 278
f 145 146 203
f 145 207 209
f 210 207 213
f 213 208 141
f 141 215 142
f 234 215 227
f 235 228 234
f 228 235 230
f 230 240 231
f 244 240 249
f 383 352 354
f 383 357 365
f 365 371 202
f 278 379 381
f 382 366 383
f 270 278 381
f 270 382 383
f 366 352 383
f 31 99 117
f 264 258 256
f 264 268 368
f 264 368 378
f 244 256 238
f 274 373 278
f 274 378 373
f 210 145 209
f 210 209 207
f 141 210 213
f 215 234 142
f 143 234 228
f 230 229 228
f 232 230 231
f 231 240 244
f 383 365 202
f 270 263 278
f 282 270 383
f 99 31 101
f 117 99 101
f 238 256 258
f 258 264 274
f 264 378 274
f 232 244 238
f 263 274 278
f 221 145 210
f 140 210 141
f 143 142 234
f 228 144 143
f 229 144 228
f 232 229 230
f 232 231 244
f 282 383 202
f 254 263 270
f 271 270 282
f 31 30 101
f 117 101 80
f 238 258 263
f 263 258 274
f 236 232 238
f 121 145 221
f 221 210 140
f 233 144 229
f 233 229 232
f 282 202 200
f 247 263 254
f 270 248 254
f 262 270 271
f 271 282 200
f 101 30 29
f 80 101 79
f 247 238 263
f 233 232 236
f 236 238 237
f 140 121 221
f 236 144 233
f 248 247 254
f 262 248 270
f 262 271 200
f 101 29 74
f 101 76 79
f 238 247 237
f 243 236 237
f 199 144 236
f 248 237 247
f 246 248 262
f 29 102 74
f 101 74 76
f 236 243 246
f 243 237 248
f 199 236 246
f 243 248 246
f 199 246 262
f 29 28 102
f 74 102 73
f 102 28 67
f 74 73 72
f 73 102 66
f 28 33 67
f 102 67 66
f 73 71 72
f 77 74 72
f 71 73 66
f 71 66 72
f 78 74 77
f 66 65 72
f 76 74 78
f 65 66 63
f 72 65 70
f 81 76 78
f 65 63 61
f 67 63 66
f 65 69 70
f 72 70 75
f 63 49 61
f 65 61 47
f 67 68 63
f 65 47 69
f 77 72 75
f 49 42 61
f 47 61 46
f 48 63 68
f 49 45 42
f 61 42 38
f 46 61 44
f 48 45 63
f 45 43 42
f 49 63 45
f 38 42 40
f 44 61 38
f 42 43 40
f 53 43 45
f 38 40 36
f 43 59 40
f 53 64 43
f 53 45 54
f 38 36 35
f 36 40 37
f 59 43 60
f 53 52 64
f 48 54 45
f 54 56 53
f 35 36 37
f 44 38 35
f 40 62 37
f 43 52 60
f 51 52 53
f 56 54 48
f 56 51 53
f 35 37 34
f 50 44 35
f 37 62 59
f 32 56 48
f 57 51 56
f 39 35 34
f 58 34 37
f 50 35 41
f 93 44 50
f 37 59 55

