v 0.090333775 -0.473975875 0.174575375
v 0.12440425 -0.437233 0.189588625
v 0.131998625 -0.4363005 0.18884925
v 0.098748325 -0.47365725 0.177826
v 0.1332205 -0.4433185 0.191579125
v 0.125689625 -0.444486 0.191622
v 0.1095610625 -0.466243 0.184440625
v 0.14122265625 -0.475924703125 0.183083984375
v 0.100794625 -0.466923125 0.181667125
v 0.130223125 -0.466803625 0.18720225
v 0.1198475 -0.466599 0.186049625
v 0.130770375 -0.47598765625 0.182340796875
v 0.120438125 -0.47581403125 0.181187671875
v 0.110222523437 -0.475441796875 0.1796410625
v 0.131161390625 -0.484516125 0.176372078125
v 0.12098059375 -0.484163609375 0.174979265625
v 0.131599375 -0.491980125 0.169135
v 0.121557875 -0.49162 0.167729875
v 0.111523375 -0.49126525 0.166324875
v 0.11088625 -0.48372840625 0.17345346875
v 0.180426625 -0.49048925 0.1656695
v 0.191667984375 -0.48226675 0.169003015625
v 0.182047046875 -0.48287378125 0.17252721875
v 0.19323653125 -0.473778265625 0.174939171875
v 0.183272296875 -0.47435615625 0.178358
v 0.19430825 -0.464505875 0.179607625
v 0.183953625 -0.465066375 0.182801375
v 0.172943265625 -0.474840171875 0.18083575
v 0.1733365 -0.46549325 0.18514775
v 0.162391875 -0.4657075 0.18604825
v 0.151525625 -0.4662045 0.187635875
v 0.140804875 -0.466617375 0.18777425
v 0.151778578125 -0.47564725 0.18330403125
v 0.14166425 -0.492284625 0.170374125
v 0.1623658125 -0.475242046875 0.182545546875
v 0.14146171875 -0.484547484375 0.1772550625
v 0.15179678125 -0.484316546875 0.17751440625
v 0.162004390625 -0.483953265625 0.177074453125
v 0.17106775 -0.49102175 0.168658875
v 0.15161125 -0.492090125 0.170471375
v 0.172161859375 -0.483414984375 0.1753451875
v 0.2121635 -0.46152525 0.171206
v 0.2142705 -0.453793 0.1719505
v 0.2127405 -0.473069625 0.165140125
v 0.202799796875 -0.472986828125 0.17088034375
v 0.210094875 -0.480466125 0.160473625
v 0.198865125 -0.48910925 0.15848125
v 0.219414625 -0.47123125 0.165385125
v 0.220934375 -0.4628095 0.168140625
v 0.220339875 -0.454236625 0.171140875
v 0.0812685953125 -0.483322609375 0.16959040625
v 0.201708875 -0.432723 0.179753
v 0.191668875 -0.432938 0.18188475
v 0.182186625 -0.434450625 0.185576875
v 0.0818208625 -0.473984625 0.176396875
v 0.17320875 -0.43674625 0.189955125
v 0.16445575 -0.437014625 0.19209525
v 0.163253875 -0.4297015 0.190901
v 0.17200825 -0.426862125 0.190058
v 0.18217575 -0.425265125 0.188697
v 0.1921115 -0.42420925 0.18625475
v 0.210253 -0.424899375 0.178979875
v 0.0532120875 -0.493680375 0.16569725
v 0.201860625 -0.423670125 0.182821375
v 0.0611855125 -0.469467375 0.1835515
v 0.03000125 -0.482894625 0.182151125
v 0.040562525 -0.473581625 0.18643
v 0.05097685 -0.471720125 0.185514125
v 0.210530125 -0.431922 0.178668
v 0.20738475 -0.48791925 0.15612275
v 0.230364875 -0.482425125 0.155565
v 0.22947525 -0.489561875 0.15023175
v 0.250980875 -0.48595925 0.150434
v 0.240306703125 -0.483845078125 0.153937640625
v 0.23770975 -0.491377375 0.147293875
v 0.246496875 -0.491120875 0.14579675
v 0.0316153 -0.47604475 0.18610025
v 0.0225175625 -0.4858755 0.180625625
v 0.259726875 -0.485738875 0.148860125
v 0.269158 -0.48617425 0.145382875
v 0.277762 -0.485493 0.142861375
v 0.0231275375 -0.49134925 0.175430375
v 0.282471625 -0.480060875 0.146878625
v 0.294672875 -0.47197825 0.14831475
v 0.301944625 -0.469452625 0.1455935
v 0.288037625 -0.45169725 0.161751875
v 0.286483578125 -0.4615133125 0.158371203125
v 0.276734765625 -0.460985671875 0.16208996875
v 0.278321625 -0.451158875 0.1654315
v 0.274828625 -0.470384828125 0.15794890625
v 0.2649128125 -0.469553234375 0.160976671875
v 0.254918609375 -0.46857453125 0.163580734375
v 0.262496125 -0.478012953125 0.15533346875
v 0.272226875 -0.478747 0.152159453125
v 0.23384475 -0.475327125 0.159514875
v 0.247326375 -0.458933125 0.167415
v 0.2554935 -0.457696875 0.168089125
v 0.268188625 -0.45024425 0.168087875
v 0.25896825 -0.45053825 0.16958525
v 0.244815625 -0.467143 0.16489875
v 0.26677809375 -0.46017709375 0.16519540625
v 0.30353225 -0.462531875 0.148942375
v 0.297483 -0.46065575 0.154154625
v 0.296247625 -0.45328725 0.15783775
v 0.284396875 -0.470742109375 0.1539495
v 0.29017925 -0.47810775 0.145076875
v 0.252669578125 -0.477144609375 0.158102671875
v 0.241839875 -0.47472325 0.1608595
v 0.0322099875 -0.49116225 0.174537125
v 0.20418025 -0.46380325 0.175536625
v 0.201044234375 -0.48145265625 0.165081234375
v 0.189619875 -0.48986625 0.162253375
v 0.161343625 -0.491656 0.170028875
v 0.101506 -0.490939 0.164912375
v 0.100876954687 -0.483308828125 0.171771
v 0.0910038296875 -0.4827894375 0.169761578125
v 0.0915278875 -0.490788125 0.1636095
v 0.0814998125 -0.490993375 0.16288
v 0.078856475 -0.467332375 0.179944125
v 0.0716692625 -0.49162825 0.162881875
v 0.061807375 -0.492986375 0.163669375
v 0.0421663125 -0.489521125 0.173633375
v 0.050809125 -0.48886175 0.17166225
v 0.0619039515625 -0.48580271875 0.171050453125
v 0.07161029375 -0.483760328125 0.169386203125
v 0.07143390625 -0.47563596875 0.175462109375
v 0.0709080375 -0.467015875 0.180710375
v 0.0618646015625 -0.47805190625 0.177861578125
v 0.0518100109375 -0.480168765625 0.179562703125
v 0.0416190015625 -0.48204571875 0.180688828125
v 0.129664 -0.4450915 0.1919975
v 0.13387 -0.4396345 0.190149
v 0.1279925 -0.4355775 0.188822
v 0.1237865 -0.4410345 0.1906705
v 0.10514228125 -0.475182 0.1786626875
v 0.10989121875 -0.470909875 0.182146375
v 0.10449775 -0.46598 0.18321
v 0.09974975 -0.4703425 0.1798265
v 0.1201474375 -0.4712679375 0.1837191875
v 0.1255889375 -0.4759281875 0.181812375
v 0.1305108125 -0.471436625 0.1848483125
v 0.1250175 -0.466736 0.186684
v 0.1359818125 -0.4759854375 0.1827663125
v 0.1410285625 -0.4713170625 0.1855116875
v 0.135491 -0.4667525 0.187559
v 0.1153185625 -0.4756521875 0.1804733125
v 0.1146865 -0.466442 0.1853445
v 0.1207103125 -0.4801144375 0.178254
v 0.1260574375 -0.4843671875 0.1757154375
v 0.1309736875 -0.48037475 0.179526125
v 0.136299625 -0.4845720625 0.176888625
v 0.1413575625 -0.48034825 0.180326
v 0.110556125 -0.4797038125 0.176713625
v 0.1159236875 -0.48394375 0.174224125
v 0.10049763125 -0.4791683125 0.174766875
v 0.1058678125 -0.483538375 0.17267075
v 0.1212655625 -0.487956 0.1714245625
v 0.1265755 -0.491798 0.168431
v 0.131374125 -0.48833 0.1728464375
v 0.136636 -0.4921705 0.169845
v 0.1415635625 -0.4884821875 0.1738885
v 0.111207125 -0.4875480625 0.16995
v 0.11654 -0.491442 0.1670285
v 0.1012044375 -0.487189 0.168428375
v 0.1065095 -0.491091 0.165617
v 0.177141 -0.4831451875 0.1740491875
v 0.1716360625 -0.4872903125 0.1720876875
v 0.1757865 -0.4907495 0.167298
v 0.1812629375 -0.4867478125 0.1691665625
v 0.1906779375 -0.4861315 0.1656798125
v 0.1868874375 -0.4825884375 0.1708264375
v 0.18503 -0.4902035 0.164004
v 0.188301125 -0.47408425 0.1767441875
v 0.18272675 -0.4787345625 0.1756150625
v 0.192522 -0.478142 0.17211975
v 0.1942195 -0.4894515 0.1603695
v 0.199985625 -0.4853400625 0.1618335625
v 0.1963945 -0.4818863125 0.167113125
v 0.2019790625 -0.4773288125 0.168119625
v 0.19808 -0.4734228125 0.1730175
v 0.1781485625 -0.474609375 0.1797060625
v 0.172602625 -0.479251875 0.1782600625
v 0.189172 -0.4647975 0.181296
v 0.1836539375 -0.4697645625 0.1806839375
v 0.193808125 -0.4691965625 0.1773704375
v 0.203516125 -0.468445 0.173295
v 0.199331 -0.464196 0.1777145
v 0.1786845 -0.465308 0.1841455
v 0.1731686875 -0.4702190625 0.1830756875
v 0.1678815 -0.465593 0.1856275
v 0.1624033125 -0.4705309375 0.184443125
v 0.16766975 -0.4750448125 0.1817944375
v 0.1622304375 -0.4797285 0.1800630625
v 0.1671021875 -0.4836955 0.1763680625
v 0.1516693125 -0.470979375 0.185577
v 0.15706925 -0.475450625 0.1830525
v 0.15694 -0.465937 0.1868735
v 0.1464923125 -0.475808625 0.183288875
v 0.1461485 -0.466433 0.187868
v 0.151819 -0.480101125 0.180602875
v 0.156910875 -0.4841548125 0.177421
v 0.146663 -0.492238 0.1705355
v 0.151718125 -0.4882690625 0.1740795
v 0.14663725 -0.484454875 0.177461375
v 0.156488 -0.4919005 0.170324
v 0.161694875 -0.4878793125 0.1736585
v 0.1662285 -0.4913435 0.1695215
v 0.2073641875 -0.47243925 0.168428875
v 0.2124859375 -0.467488 0.16858375
v 0.208796 -0.463263 0.172994
v 0.2161585 -0.4722235 0.1653995
v 0.220676 -0.4676635 0.166485
v 0.2170244375 -0.4626705625 0.1690640625
v 0.2211815 -0.4579585 0.1697935
v 0.217332 -0.45277 0.17188
v 0.213268 -0.45754 0.171292
v 0.2055944375 -0.4809713125 0.1628318125
v 0.2109935 -0.476199 0.163219
v 0.203593 -0.4889895 0.1567175
v 0.209222 -0.4847255 0.1577415
v 0.1970135 -0.4238645 0.18467
v 0.1918901875 -0.428573625 0.18406975
v 0.196648 -0.4326995 0.18065
v 0.20178475 -0.4281965625 0.1812871875
v 0.211619 -0.4284535 0.17847
v 0.206637 -0.42366 0.1806775
v 0.2067815 -0.4329045 0.179094
v 0.1871705 -0.4246705 0.187607
v 0.1821811875 -0.429857875 0.1871369375
v 0.1868415 -0.4335425 0.183557
v 0.1771125 -0.42601 0.189495
v 0.1726085 -0.4318041875 0.1900065625
v 0.177725 -0.4356 0.1878545
v 0.1668905 -0.4277785 0.190443
v 0.162593 -0.4335735 0.191683
v 0.16839 -0.437645 0.191444
v 0.232842 -0.490923 0.148561
v 0.2390156875 -0.4876390625 0.1506639375
v 0.2353480625 -0.4831656875 0.1548099375
v 0.229147 -0.4864625 0.152788
v 0.241567875 -0.47993975 0.157018625
v 0.2378725 -0.4750465 0.1601435
v 0.2316365 -0.47825 0.157898
v 0.247724125 -0.4765815625 0.1591741875
v 0.24521625 -0.484402125 0.152830875
v 0.251406875 -0.481096375 0.1549298125
v 0.242541 -0.4917565 0.1459485
v 0.2487385 -0.488531 0.1481105
v 0.26113475 -0.48192675 0.1521503125
v 0.2575916875 -0.477605125 0.156791
v 0.254939 -0.485378 0.1503115
v 0.2707230625 -0.482526625 0.1488335625
v 0.2673885625 -0.4784179375 0.153824375
v 0.2644585 -0.4859935 0.147197
v 0.2801245 -0.4827945 0.144909
v 0.2769689375 -0.4789270625 0.1502344375
v 0.2738495 -0.4863135 0.1434785
v 0.2796455625 -0.4706111875 0.15604475
v 0.2736081875 -0.474703375 0.15523575
v 0.2830919375 -0.4749985 0.1511903125
v 0.292451 -0.47507 0.146748
v 0.2891294375 -0.470834 0.1517805
v 0.286338 -0.479135 0.1460275
v 0.2913073125 -0.461704125 0.156347125
v 0.2855220625 -0.4662299375 0.1563266875
v 0.294983375 -0.466397375 0.151936625
v 0.303832 -0.4659195 0.146579
v 0.300551 -0.461632 0.1516185
v 0.2983645 -0.470789 0.147051
v 0.2775465 -0.456096 0.1638075
v 0.28163 -0.461278875 0.1602944375
v 0.2872975 -0.4566435625 0.160132375
v 0.283217 -0.451463 0.1636825
v 0.296923 -0.457039 0.156098
v 0.2928335 -0.451906 0.159763
v 0.2758498125 -0.4657804375 0.160185375
v 0.2733015 -0.4507405 0.1668755
v 0.267515125 -0.45524675 0.1667365
v 0.2717860625 -0.4606185625 0.1637309375
v 0.265914 -0.464963125 0.163274875
v 0.2698991875 -0.470006625 0.159544625
v 0.2637645 -0.4738958125 0.1583025625
v 0.2617050625 -0.4596608125 0.1664614375
v 0.25581475 -0.4638998125 0.1656650625
v 0.2599250625 -0.4691013125 0.1623898125
v 0.2538551875 -0.4729800625 0.161023125
v 0.251416 -0.458331 0.1677655
v 0.2455475 -0.4623835 0.1664585
v 0.249876125 -0.4678965625 0.164346125
v 0.243867 -0.4716725 0.1627385
v 0.263015 -0.4497065 0.169142
v 0.257236 -0.4541505 0.168965
v 0.09592225625 -0.4829749375 0.17064925
v 0.091278025 -0.4868566875 0.1667970625
v 0.0965205 -0.490829 0.1642185
v 0.09517555 -0.4742865 0.1758035
v 0.09068096875 -0.4784505625 0.17228
v 0.08552535 -0.474471 0.174958
v 0.08104581875 -0.479274375 0.1727006875
v 0.0861217875 -0.4830050625 0.1695640625
v 0.0814056375 -0.4872005625 0.1662841875
v 0.08650305 -0.4908435 0.1631595
v 0.07643671875 -0.483442875 0.1693743125
v 0.07164485 -0.4877091875 0.1661589375
v 0.076572 -0.491236 0.1627825
v 0.07119925 -0.47136475 0.1781510625
v 0.0760841375 -0.47525525 0.1754285
v 0.0802909 -0.4707295 0.1783375
v 0.0754386 -0.46642 0.180381
v 0.06677345625 -0.4846694375 0.1700965
v 0.061858175 -0.48943125 0.16739275
v 0.06674125 -0.492227 0.163193
v 0.056979525 -0.4867926875 0.1717933125
v 0.0520143 -0.491277 0.1686865
v 0.05688705 -0.4938605 0.1642645
v 0.03650828125 -0.4828720625 0.181032875
v 0.03182800625 -0.4874724375 0.1779811875
v 0.03721545 -0.4903785 0.174169
v 0.0419350875 -0.4858658125 0.177270625
v 0.05198111875 -0.484035 0.17610375
v 0.046721525 -0.4811358125 0.1801899375
v 0.047112 -0.488646 0.1730545
v 0.06193968125 -0.482027375 0.1745768125
v 0.05687861875 -0.479171 0.178833625
v 0.07155545 -0.479751875 0.172513875
v 0.0667052125 -0.476720875 0.1765054375
v 0.06613555 -0.4681435 0.1819945
v 0.06157795 -0.473823 0.1807945
v 0.0561223 -0.470652 0.1846995
v 0.051442525 -0.4760160625 0.1826350625
v 0.0457801 -0.4726945 0.186071
v 0.04113319375 -0.4778960625 0.1836689375
v 0.0353546 -0.474388 0.186651
v 0.0308036 -0.479483 0.184144
v 0.02629 -0.4844715 0.1814905
v 0.02153165 -0.4887685 0.17802
v 0.0271005 -0.4918165 0.1746135
v 0.12882825 -0.4403345 0.19040975
v 0.104811875 -0.470642 0.181045
v 0.12531275 -0.47138225 0.18433625
v 0.1357515 -0.47141025 0.185239
v 0.115005 -0.4711145 0.1830135
v 0.125827 -0.4802735 0.17893625
v 0.13615175 -0.4803955 0.17998825
v 0.11562225 -0.47992025 0.17751475
v 0.10550525 -0.479478 0.17584575
v 0.12631075 -0.48815825 0.1721575
v 0.13646375 -0.48844675 0.17345125
v 0.1162305 -0.48774775 0.17068775
v 0.106197 -0.4873715 0.16921425
v 0.17648675 -0.48701625 0.17075
v 0.185989 -0.486461 0.16747325
v 0.18766475 -0.47845575 0.1739475
v 0.19534275 -0.485735 0.163796
v 0.19730325 -0.47777325 0.1702115
v 0.17770325 -0.4789985 0.17704275
v 0.18877675 -0.46949525 0.17912425
v 0.19873575 -0.468862 0.1754575
v 0.178452 -0.470011 0.1820145
v 0.16780175 -0.47037325 0.18382725
v 0.16743325 -0.479499 0.1792965
v 0.1570255 -0.4707495 0.18509725
v 0.14633575 -0.471171 0.18566975
v 0.1570295 -0.479929 0.18047075
v 0.1466575 -0.48841 0.17407475
v 0.1465875 -0.4802455 0.18054275
v 0.156718 -0.48809825 0.17397225
v 0.1666865 -0.487594 0.17304375
v 0.20810575 -0.467899 0.1707925
v 0.216638 -0.467476 0.1673025
v 0.21722475 -0.45774925 0.17054275
v 0.20652 -0.476788 0.165741
v 0.20460875 -0.48501525 0.15980425
v 0.19683075 -0.428282 0.18266
v 0.20670925 -0.42828225 0.17988575
v 0.187006 -0.4291065 0.185582
v 0.17741875 -0.430805 0.18867475
v 0.16764025 -0.43271175 0.1909435
v 0.2340935 -0.4870745 0.15176175
v 0.23660875 -0.47913625 0.157553
v 0.24650075 -0.48057775 0.1561055
v 0.24388925 -0.48810875 0.149423
v 0.25628575 -0.48154175 0.15360775
v 0.26595125 -0.48226425 0.1505685
v 0.275438 -0.48268625 0.14691675
v 0.27838475 -0.474904 0.153311
v 0.287777 -0.475046 0.14898925
v 0.29030875 -0.466376 0.15423075
v 0.29945775 -0.4662105 0.14933475
v 0.2824485 -0.45639975 0.16204175
v 0.2921175 -0.4568505 0.15813675
v 0.2807115 -0.46604275 0.158334
v 0.2725675 -0.45570925 0.16537225
v 0.27090975 -0.465409 0.1618135
v 0.268715 -0.4743375 0.156849
v 0.26088525 -0.4644775 0.164626
v 0.258816 -0.47346775 0.15974825
v 0.25069375 -0.46317775 0.16619025
v 0.24886775 -0.4723595 0.16196425
v 0.262393 -0.45471575 0.16790075
v 0.09623375 -0.4869715 0.16754025
v 0.095561275 -0.47870025 0.17333275
v 0.0858415 -0.478796 0.17234525
v 0.08633035 -0.48698225 0.166446
v 0.0765188 -0.487364 0.16610875
v 0.075783375 -0.4708875 0.1779915
v 0.0667588 -0.48847275 0.166674
v 0.0569405 -0.49036125 0.168054
v 0.036899075 -0.48670675 0.17770475
v 0.046962675 -0.4849685 0.17672675
v 0.0569897 -0.4830855 0.17543225
v 0.066782325 -0.480768 0.173402
v 0.076296875 -0.4794235 0.1725185
v 0.066461925 -0.4724805 0.17932175
v 0.056553875 -0.4749805 0.18186025
v 0.046296725 -0.47699275 0.183235
v 0.03596865 -0.4787115 0.18394575
v 0.02669525 -0.488144 0.178052
f 6 131 338 134
f 5 132 338 131
f 3 133 338 132
f 2 134 338 133
f 4 135 339 138
f 14 136 339 135
f 7 137 339 136
f 9 138 339 137
f 11 139 340 142
f 13 140 340 139
f 12 141 340 140
f 10 142 340 141
f 12 143 341 141
f 8 144 341 143
f 32 145 341 144
f 10 141 341 145
f 7 136 342 147
f 14 146 342 136
f 13 139 342 146
f 11 147 342 139
f 13 148 343 140
f 16 149 343 148
f 15 150 343 149
f 12 140 343 150
f 15 151 344 150
f 36 152 344 151
f 8 143 344 152
f 12 150 344 143
f 14 153 345 146
f 20 154 345 153
f 16 148 345 154
f 13 146 345 148
f 4 155 346 135
f 115 156 346 155
f 20 153 346 156
f 14 135 346 153
f 16 157 347 149
f 18 158 347 157
f 17 159 347 158
f 15 149 347 159
f 17 160 348 159
f 34 161 348 160
f 36 151 348 161
f 15 159 348 151
f 20 162 349 154
f 19 163 349 162
f 18 157 349 163
f 16 154 349 157
f 20 156 350 162
f 115 164 350 156
f 114 165 350 164
f 19 162 350 165
f 23 166 351 169
f 41 167 351 166
f 39 168 351 167
f 21 169 351 168
f 112 170 352 172
f 22 171 352 170
f 23 169 352 171
f 21 172 352 169
f 24 173 353 175
f 25 174 353 173
f 23 171 353 174
f 22 175 353 171
f 112 176 354 170
f 47 177 354 176
f 111 178 354 177
f 22 170 354 178
f 111 179 355 178
f 45 180 355 179
f 24 175 355 180
f 22 178 355 175
f 25 181 356 174
f 28 182 356 181
f 41 166 356 182
f 23 174 356 166
f 26 183 357 185
f 27 184 357 183
f 25 173 357 184
f 24 185 357 173
f 45 186 358 180
f 110 187 358 186
f 26 185 358 187
f 24 180 358 185
f 27 188 359 184
f 29 189 359 188
f 28 181 359 189
f 25 184 359 181
f 29 190 360 189
f 30 191 360 190
f 35 192 360 191
f 28 189 360 192
f 35 193 361 192
f 38 194 361 193
f 41 182 361 194
f 28 192 361 182
f 31 195 362 197
f 33 196 362 195
f 35 191 362 196
f 30 197 362 191
f 32 144 363 199
f 8 198 363 144
f 33 195 363 198
f 31 199 363 195
f 33 200 364 196
f 37 201 364 200
f 38 193 364 201
f 35 196 364 193
f 34 202 365 161
f 40 203 365 202
f 37 204 365 203
f 36 161 365 204
f 37 200 366 204
f 33 198 366 200
f 8 152 366 198
f 36 204 366 152
f 40 205 367 203
f 113 206 367 205
f 38 201 367 206
f 37 203 367 201
f 113 207 368 206
f 39 167 368 207
f 41 194 368 167
f 38 206 368 194
f 110 186 369 210
f 45 208 369 186
f 44 209 369 208
f 42 210 369 209
f 44 211 370 209
f 48 212 370 211
f 49 213 370 212
f 42 209 370 213
f 49 214 371 213
f 50 215 371 214
f 43 216 371 215
f 42 213 371 216
f 45 179 372 208
f 111 217 372 179
f 46 218 372 217
f 44 208 372 218
f 111 177 373 217
f 47 219 373 177
f 70 220 373 219
f 46 217 373 220
f 64 221 374 224
f 61 222 374 221
f 53 223 374 222
f 52 224 374 223
f 69 225 375 227
f 62 226 375 225
f 64 224 375 226
f 52 227 375 224
f 61 228 376 222
f 60 229 376 228
f 54 230 376 229
f 53 222 376 230
f 60 231 377 229
f 59 232 377 231
f 56 233 377 232
f 54 229 377 233
f 59 234 378 232
f 58 235 378 234
f 57 236 378 235
f 56 232 378 236
f 72 237 379 240
f 75 238 379 237
f 74 239 379 238
f 71 240 379 239
f 74 241 380 239
f 108 242 380 241
f 95 243 380 242
f 71 239 380 243
f 107 244 381 246
f 108 241 381 244
f 74 245 381 241
f 73 246 381 245
f 74 238 382 245
f 75 247 382 238
f 76 248 382 247
f 73 245 382 248
f 79 249 383 251
f 93 250 383 249
f 107 246 383 250
f 73 251 383 246
f 80 252 384 254
f 94 253 384 252
f 93 249 384 253
f 79 254 384 249
f 81 255 385 257
f 83 256 385 255
f 94 252 385 256
f 80 257 385 252
f 105 258 386 260
f 90 259 386 258
f 94 256 386 259
f 83 260 386 256
f 106 261 387 263
f 84 262 387 261
f 105 260 387 262
f 83 263 387 260
f 103 264 388 266
f 87 265 388 264
f 105 262 388 265
f 84 266 388 262
f 85 267 389 269
f 102 268 389 267
f 103 266 389 268
f 84 269 389 266
f 89 270 390 273
f 88 271 390 270
f 87 272 390 271
f 86 273 390 272
f 87 264 391 272
f 103 274 391 264
f 104 275 391 274
f 86 272 391 275
f 88 276 392 271
f 90 258 392 276
f 105 265 392 258
f 87 271 392 265
f 89 277 393 270
f 98 278 393 277
f 101 279 393 278
f 88 270 393 279
f 101 280 394 279
f 91 281 394 280
f 90 276 394 281
f 88 279 394 276
f 91 282 395 281
f 93 253 395 282
f 94 259 395 253
f 90 281 395 259
f 101 283 396 280
f 97 284 396 283
f 92 285 396 284
f 91 280 396 285
f 92 286 397 285
f 107 250 397 286
f 93 282 397 250
f 91 285 397 282
f 97 287 398 284
f 96 288 398 287
f 100 289 398 288
f 92 284 398 289
f 100 290 399 289
f 108 244 399 290
f 107 286 399 244
f 92 289 399 286
f 101 278 400 283
f 98 291 400 278
f 99 292 400 291
f 97 283 400 292
f 115 293 401 164
f 116 294 401 293
f 117 295 401 294
f 114 164 401 295
f 4 296 402 155
f 1 297 402 296
f 116 293 402 297
f 115 155 402 293
f 1 298 403 297
f 55 299 403 298
f 51 300 403 299
f 116 297 403 300
f 51 301 404 300
f 118 302 404 301
f 117 294 404 302
f 116 300 404 294
f 51 303 405 301
f 125 304 405 303
f 120 305 405 304
f 118 301 405 305
f 127 306 406 309
f 126 307 406 306
f 55 308 406 307
f 119 309 406 308
f 125 310 407 304
f 124 311 407 310
f 121 312 407 311
f 120 304 407 312
f 124 313 408 311
f 123 314 408 313
f 63 315 408 314
f 121 311 408 315
f 130 316 409 319
f 66 317 409 316
f 109 318 409 317
f 122 319 409 318
f 123 320 410 322
f 129 321 410 320
f 130 319 410 321
f 122 322 410 319
f 124 323 411 313
f 128 324 411 323
f 129 320 411 324
f 123 313 411 320
f 125 325 412 310
f 126 326 412 325
f 128 323 412 326
f 124 310 412 323
f 51 299 413 303
f 55 307 413 299
f 126 325 413 307
f 125 303 413 325
f 127 327 414 306
f 65 328 414 327
f 128 326 414 328
f 126 306 414 326
f 65 329 415 328
f 68 330 415 329
f 129 324 415 330
f 128 328 415 324
f 68 331 416 330
f 67 332 416 331
f 130 321 416 332
f 129 330 416 321
f 67 333 417 332
f 77 334 417 333
f 66 316 417 334
f 130 332 417 316
f 66 335 418 317
f 78 336 418 335
f 82 337 418 336
f 109 317 418 337
