# https://github.com/mikedh/trimesh
v 0.15326500 0.00271000 0.02310300
v 0.16912551 -0.08579850 0.00803650
v 0.16979075 -0.07225525 0.00935688
v 0.16134275 0.02011375 0.02146738
v 0.16569950 0.05004075 0.01512950
v 0.17534500 -0.03377900 0.01442400
v 0.15260801 -0.00785900 0.02252100
v 0.16185200 -0.01492900 0.01963500
v 0.17121799 -0.09967900 0.00851700
v 0.16842600 0.07540350 0.00432850
v 0.17103950 0.08621300 -0.00438500
v 0.16478631 0.10602144 -0.01928913
v 0.18635950 -0.22534375 0.04689550
v 0.19647400 -0.22545500 0.04168800
v 0.21535300 -0.22287474 0.02570075
v 0.15973875 -0.22143125 0.05344125
v 0.17771913 -0.22547937 0.05017325
v 0.15091575 -0.21089250 0.05199712
v 0.22946700 -0.22507900 0.01087700
v 0.20239375 -0.22357475 0.03714200
v 0.21444093 -0.07673827 0.00969328
v 0.21928094 -0.07299923 0.00639087
v 0.22312115 -0.08466826 0.00712838
v 0.21655882 -0.06182758 0.00534762
v 0.21175900 -0.05212300 0.00649700
v 0.20918200 -0.04088052 0.00671664
v 0.21909889 -0.06402184 0.00407054
v 0.21555490 -0.04381823 0.00291082
v 0.21236867 -0.04608391 0.00543176
v 0.19825418 -0.01321376 0.01049654
v 0.20260870 -0.00626984 0.00757773
v 0.21334800 -0.03085900 0.00266200
v 0.20093957 0.00635464 0.00681327
v 0.20763530 -0.00930968 0.00413669
v 0.19471555 0.01613784 0.00944400
v 0.19400489 0.01076073 0.01095047
v 0.19348204 -0.00517380 0.01250890
v 0.18832327 0.01077334 0.01379500
v 0.20566025 -0.03615115 0.00808823
v 0.20064256 -0.04183450 0.01017279
v 0.18662787 0.00729710 0.01480526
v 0.17533332 0.02302004 0.01791957
v 0.17508916 0.03008888 0.01696196
v 0.20892415 -0.06617038 0.00931416
v 0.17630671 0.03291117 0.01638179
v 0.17953981 0.01581864 0.01700085
v 0.19947767 -0.03351791 0.01031196
v 0.20671054 -0.05644243 0.00900881
v 0.17192884 0.04223853 0.01556181
v 0.18523150 0.00288484 0.01552028
v 0.20901194 -0.07089682 0.01009802
v 0.18085265 -0.00109824 0.01702289
v 0.19121915 -0.02348126 0.01287440
v 0.17131031 0.01225446 0.01966521
v 0.21635877 -0.08986205 0.01269912
v 0.16777861 0.02476155 0.01994360
v 0.18346055 -0.00502784 0.01596267
v 0.19552370 -0.03984909 0.01118687
v 0.16494572 0.00666386 0.02104350
v 0.20160133 -0.06185131 0.01051644
v 0.21041506 -0.08711242 0.01348220
v 0.20743284 -0.07786742 0.01166385
v 0.15856300 0.00715100 0.02225000
v 0.17973688 -0.00888557 0.01664445
v 0.18058630 -0.02641480 0.01464806
v 0.18595210 -0.03594145 0.01287973
v 0.19224129 -0.04772940 0.01144441
v 0.19392364 -0.05843213 0.01103298
v 0.20214969 -0.08035360 0.01255278
v 0.18012554 -0.04573403 0.01235092
v 0.19815233 -0.07629176 0.01204429
v 0.18250961 -0.05245266 0.01153395
v 0.18521311 -0.06223543 0.01088708
v 0.20504799 -0.08864300 0.01472600
v 0.19333923 -0.06675644 0.01118738
v 0.18650729 -0.08293384 0.01140433
v 0.19467229 -0.07940042 0.01225477
v 0.19790421 -0.08953222 0.01471425
v 0.17763746 -0.07048953 0.00976119
v 0.18000361 -0.08434614 0.01003558
v 0.21106952 -0.09772364 0.01770496
v 0.19114807 -0.09182718 0.01392612
v 0.20310640 -0.09785729 0.01830778
v 0.20714501 -0.09311200 0.01621000
v 0.20733300 -0.09681763 0.01788958
v 0.21295344 -0.10215503 0.01972016
v 0.18365315 0.04110509 0.00995111
v 0.18658361 0.03251328 0.01083770
v 0.16958559 0.06156087 0.01039883
v 0.18672584 -0.09209023 0.01298579
v 0.17957846 -0.09579583 0.01121881
v 0.19848847 -0.10081467 0.01952018
v 0.21863798 -0.10116052 0.01671698
v 0.17148233 0.05291082 0.01279854
v 0.17937504 0.05210360 0.00862879
v 0.22293227 -0.10197007 0.01468616
v 0.20225485 -0.11230180 0.02821173
v 0.18835670 0.04067653 0.00690255
v 0.17959161 0.06048785 0.00462401
v 0.22003239 -0.05533249 0.00129654
v 0.19477582 0.03032415 0.00540366
v 0.21725863 -0.11194954 0.02455655
v 0.21020265 -0.11233914 0.02746200
v 0.20205704 0.01774535 0.00308426
v 0.20432150 0.00284215 0.00483448
v 0.18517652 0.05100762 0.00499565
v 0.18262100 -0.09904000 0.01330900
v 0.20524283 -0.11227480 0.02837102
v 0.20256304 0.02155778 0.00100190
v 0.21728107 -0.12878941 0.03669621
v 0.18968600 -0.10110750 0.01720050
v 0.19960922 -0.11159701 0.02754825
v 0.18629610 0.06628334 -0.00496225
v 0.21286957 -0.12119133 0.03367644
v 0.21021798 -0.13505706 0.04547200
v 0.20353547 -0.14249440 0.05306144
v 0.18185822 -0.16547540 0.07042903
v 0.17776718 -0.17198310 0.07228746
v 0.19946094 -0.15975178 0.06097102
v 0.19200460 -0.16922474 0.06566640
v 0.19929232 -0.15291991 0.05958049
v 0.17857521 -0.16384059 0.07096674
v 0.20928673 -0.15689345 0.05421828
v 0.21214402 -0.14975603 0.05077537
v 0.21196862 -0.14172076 0.04782870
v 0.22010950 -0.13552913 0.03864627
v 0.17121893 -0.16894089 0.07390179
v 0.20229748 -0.16872938 0.05955957
v 0.22463807 -0.14800787 0.03914091
v 0.17906150 -0.17878062 0.07129607
v 0.17510168 -0.15524435 0.06797412
v 0.19099960 -0.17305704 0.06618032
v 0.21630963 -0.15961517 0.04881762
v 0.21720272 -0.15106154 0.04684644
v 0.19832155 -0.13939292 0.05395037
v 0.19853400 0.02929800 0.00211800
v 0.16416987 -0.17590745 0.07572954
v 0.19092771 0.04693395 0.00204269
v 0.22674866 -0.06275993 -0.00399621
v 0.17528426 0.07330091 0.00107511
v 0.22840438 -0.10596534 0.01244137
v 0.22583395 -0.12207295 0.02540890
v 0.22496810 -0.14052568 0.03671396
v 0.22487728 -0.13436958 0.03354916
v 0.18030894 0.07762794 -0.00659091
v 0.20534538 -0.16406486 0.05775338
v 0.20522341 0.02314411 -0.00267428
v 0.19159525 -0.18042713 0.06463156
v 0.20831637 0.00129518 0.00126585
v 0.19661066 0.04263902 -0.00197839
v 0.18437082 -0.15262806 0.06480430
v 0.21888386 -0.16300278 0.04603017
v 0.22951430 -0.09257853 0.00455933
v 0.21494849 -0.01735964 -0.00119704
v 0.21273801 -0.16967954 0.05135801
v 0.16478462 -0.16622731 0.07446556
v 0.22532776 -0.15282395 0.03903531
v 0.16761693 -0.17853992 0.07473630
v 0.23112935 -0.08789388 0.00042395
v 0.20527861 -0.17506811 0.05670833
v 0.23074303 -0.13067161 0.02527537
v 0.23358285 -0.10436218 0.00592352
v 0.23351718 -0.12014366 0.01547207
v 0.20783364 -0.17276870 0.05495571
v 0.22180168 -0.05732151 0.00009539
v 0.19298947 0.05500268 -0.00519058
v 0.23365859 -0.13177916 0.02200428
v 0.17357388 0.08881542 -0.00890195
v 0.23179844 -0.14597882 0.03007188
v 0.15564484 -0.17355412 0.07689926
v 0.18253947 -0.18159471 0.06900632
v 0.22138010 -0.04532152 -0.00227452
v 0.20976405 0.01195105 -0.00412494
v 0.18127560 -0.14942946 0.06339536
v 0.19258719 -0.14452461 0.05816233
v 0.22303191 -0.15845421 0.04157292
v 0.23262775 -0.14220929 0.02759927
v 0.18296265 0.07760365 -0.01017753
v 0.15880186 -0.18011090 0.07630208
v 0.20529409 0.03268419 -0.00861152
v 0.20454899 -0.13158000 0.04560092
v 0.16264977 -0.18065847 0.07545321
v 0.17755200 -0.18320439 0.07067721
v 0.23979028 -0.10933880 -0.00143498
v 0.22951909 -0.15776334 0.03332604
v 0.17427373 0.09495982 -0.01599348
v 0.18140183 0.08451129 -0.01473701
v 0.24033923 -0.12986104 0.00972076
v 0.23367596 -0.08325262 -0.00598070
v 0.20138339 0.04163048 -0.00828602
v 0.19937065 0.04705054 -0.00912673
v 0.21566294 0.00206562 -0.00919319
v 0.21530367 -0.00374885 -0.00586012
v 0.22735831 -0.16441243 0.03552590
v 0.22241303 -0.03041568 -0.00818561
v 0.23797085 -0.15081945 0.02040100
v 0.15160363 -0.17498863 0.07688897
v 0.18315174 -0.18770008 0.06667135
v 0.23584955 -0.08159348 -0.01159034
v 0.19876870 -0.13127649 0.04712500
v 0.23017023 -0.06050044 -0.01105926
v 0.21879800 -0.17232101 0.04410600
v 0.23907515 -0.11550822 0.00379297
v 0.23630624 -0.14203296 0.02210365
v 0.16796585 0.10736332 -0.02512223
v 0.19942418 0.05084476 -0.01249617
v 0.23244519 -0.06326529 -0.01457169
v 0.21325697 0.01247890 -0.01016784
v 0.20545634 -0.18412695 0.05299585
v 0.15494411 -0.18232119 0.07619741
v 0.22053588 -0.17377980 0.04172175
v 0.19030823 -0.18820984 0.06278567
v 0.16804236 -0.18738876 0.07226976
v 0.24066253 -0.13664530 0.01152976
v 0.24116921 -0.14676158 0.01280740
v 0.17664478 -0.19016306 0.06834968
v 0.15708445 -0.16730301 0.07455128
v 0.20567667 0.04000601 -0.01562263
v 0.20958774 0.02831302 -0.01418240
v 0.23284654 -0.15672891 0.02851901
v 0.23390611 -0.07106798 -0.01369220
v 0.23958306 -0.16029016 0.01527418
v 0.16549093 -0.15991030 0.07092539
v 0.24463665 -0.14398412 0.00363293
v 0.19710523 -0.12780751 0.04409200
v 0.22024678 -0.00878315 -0.01318750
v 0.21555789 -0.17862023 0.04554756
v 0.24276659 -0.13513497 0.00605599
v 0.22939499 -0.17189268 0.02997263
v 0.21218210 0.02328009 -0.01625088
v 0.18377424 0.08760080 -0.02472967
v 0.23264505 -0.16772846 0.02614004
v 0.18314485 -0.19149988 0.06467009
v 0.22008988 -0.00119100 -0.01803689
v 0.17576474 0.09910405 -0.02626027
v 0.22870206 -0.04296539 -0.01626177
v 0.18167292 -0.14592313 0.06076998
v 0.22812268 -0.17921357 0.02818963
v 0.20202290 -0.18971097 0.05280284
v 0.20605315 0.04212341 -0.01910677
v 0.19422505 0.06448849 -0.01588294
v 0.19098325 0.07499259 -0.02271057
v 0.24345432 -0.11235804 -0.01002713
v 0.24476729 -0.13370987 -0.00012859
v 0.21570474 -0.18739388 0.04000062
v 0.22444640 -0.01686733 -0.02014279
v 0.24096094 -0.15897913 0.01211937
v 0.21109337 0.03075173 -0.02142548
v 0.23635996 -0.07626659 -0.01777138
v 0.24420079 -0.14837548 0.00468372
v 0.22002724 -0.18622463 0.03508968
v 0.16096647 -0.18774616 0.07342627
v 0.19326550 -0.12810475 0.04375675
v 0.20798753 -0.18976464 0.04687776
v 0.23252721 -0.17406686 0.02342579
v 0.16580852 -0.19181114 0.07063619
v 0.22721138 -0.18246337 0.02705501
v 0.23941503 -0.16875223 0.01128502
v 0.20756596 -0.19649943 0.04215682
v 0.24339500 -0.15669300 0.00530100
v 0.24512200 -0.12071864 -0.01004363
v 0.21720186 0.01110493 -0.01987666
v 0.24090799 -0.09527350 -0.01754200
v 0.16757924 -0.15502950 0.06746850
v 0.19759089 -0.20733010 0.04328745
v 0.21223600 0.02894100 -0.02429300
v 0.21381700 0.02432900 -0.02401300
v 0.22127250 -0.00116150 -0.02400625
v 0.24396650 -0.11125500 -0.01390200
v 0.19178995 -0.19547410 0.05703326
v 0.20790325 0.04078675 -0.02568025
v 0.23689372 -0.17619108 0.01228836
v 0.20261742 0.05209457 -0.02314664
v 0.22678199 -0.02541000 -0.02318400
v 0.23388950 -0.06096600 -0.02227050
v 0.18486237 -0.19882132 0.05891631
v 0.24271253 -0.17019011 -0.00007584
v 0.24502908 -0.15149656 0.00129581
v 0.18057273 -0.19881386 0.06117426
v 0.24511411 -0.13025493 -0.00248382
v 0.24648025 -0.13566825 -0.00737800
v 0.23289264 -0.18150934 0.01702394
v 0.20157377 -0.20605125 0.04074312
v 0.19500699 -0.21641523 0.04139863
v 0.20652377 -0.22039317 0.03292885
v 0.20378270 -0.21785985 0.03475047
v 0.19581250 -0.22104518 0.04099483
v 0.18192607 -0.22309300 0.04866832
v 0.21878810 -0.22007223 0.02065173
v 0.21671379 -0.21669725 0.02198543
v 0.18081699 -0.21846400 0.04906900
v 0.22647720 -0.21867018 0.01015564
v 0.20593108 -0.21456043 0.03276299
v 0.23574728 -0.22171811 -0.00299072
v 0.18335932 -0.21963383 0.04774728
v 0.23122800 -0.22265059 0.00581811
v 0.17252536 -0.21843801 0.05204774
v 0.22709971 -0.20859272 0.00719740
v 0.21380357 -0.21055056 0.02516630
v 0.22602703 -0.21260833 0.00868031
v 0.20355457 -0.21211012 0.03539289
v 0.23458493 -0.21647910 -0.00567615
v 0.23517110 -0.21438394 -0.00790960
v 0.18211112 -0.21420001 0.04984479
v 0.22574526 -0.20489273 0.01040485
v 0.22003988 -0.20924985 0.01754908
v 0.22823900 -0.20666100 0.00543200
v 0.23339711 -0.20680432 -0.00526118
v 0.19181953 -0.21491517 0.04376992
v 0.22240600 -0.20491099 0.01588300
v 0.24130404 -0.22949062 -0.00532677
v 0.23756329 -0.22084412 -0.00893146
v 0.23694202 -0.20294721 -0.01396240
v 0.22861154 -0.20049976 0.00800903
v 0.18189908 -0.21034935 0.05194503
v 0.17683045 -0.21136627 0.05339257
v 0.16636008 -0.21804051 0.05304509
v 0.23499398 -0.20335549 -0.00781421
v 0.15958755 -0.21739910 0.05340117
v 0.20745197 -0.20502324 0.03553584
v 0.23820622 -0.21290945 -0.01932457
v 0.18790632 -0.20910053 0.04926588
v 0.23424218 -0.19887464 -0.00272076
v 0.21532149 -0.20050861 0.02923114
v 0.21947202 -0.20243111 0.02194411
v 0.22735458 -0.18946104 0.02068164
v 0.24412704 -0.16065292 0.00155521
v 0.23504891 -0.18928929 0.00459808
v 0.17046120 -0.21230699 0.05450119
v 0.24461999 -0.23228280 -0.00887988
v 0.15513117 -0.21438812 0.05305946
v 0.24658801 -0.14534301 -0.00508600
v 0.24105750 -0.22079075 -0.02295300
v 0.24602930 -0.15119933 -0.00301178
v 0.24345499 -0.22680600 -0.02104900
v 0.24589100 -0.23260200 -0.01314300
v 0.23976883 -0.17979984 0.00132783
v 0.19110775 0.07692925 -0.02912050
v 0.17179924 -0.19486213 0.06717912
v 0.24114755 -0.22374820 -0.01815231
v 0.23737467 -0.19258196 -0.00553882
v 0.24502800 -0.16273899 -0.00432300
v 0.23904500 -0.21013600 -0.02508525
v 0.24591250 -0.15653050 -0.00524300
v 0.17667496 -0.19975648 0.06212544
v 0.15458700 -0.18579300 0.07468900
v 0.23974702 -0.19055773 -0.01207130
v 0.23888400 -0.20123200 -0.02147200
v 0.23830809 -0.19890396 -0.01576808
v 0.24446400 -0.16851100 -0.00688500
v 0.24255410 -0.17484630 -0.00388102
v 0.17829275 0.09695475 -0.03079650
v 0.24883300 -0.23804050 -0.00503750
v 0.19463350 -0.10204850 0.01934850
v 0.16444750 0.11250400 -0.03236050
v 0.16347900 -0.21182599 0.05515650
v 0.16877273 -0.20974589 0.05629042
v 0.16171750 -0.19285950 0.07020850
v 0.15193637 -0.17063875 0.07473375
f 205 12 355
f 205 355 235
f 352 235 355
f 235 352 231
f 231 352 338
f 231 338 242
f 242 338 273
f 271 273 338
f 273 271 248
f 240 273 248
f 240 241 273
f 241 240 218
f 206 241 218
f 166 241 206
f 241 166 113
f 187 241 113
f 187 242 241
f 113 178 187
f 145 187 178
f 186 187 145
f 186 231 187
f 168 186 145
f 12 186 168
f 12 168 11
f 168 140 11
f 140 10 11
f 140 89 10
f 140 94 89
f 140 95 94
f 99 95 140
f 140 106 99
f 106 140 138
f 113 138 140
f 145 113 140
f 138 98 106
f 138 101 98
f 138 136 101
f 147 136 138
f 150 147 138
f 150 180 147
f 190 180 150
f 190 218 180
f 219 180 218
f 208 180 219
f 208 219 230
f 240 230 219
f 230 262 208
f 262 230 248
f 262 248 267
f 267 268 262
f 262 268 246
f 246 268 274
f 274 275 246
f 246 275 236
f 236 275 249
f 275 263 249
f 249 263 269
f 243 249 269
f 243 269 261
f 269 281 261
f 261 281 280
f 281 224 280
f 224 281 332
f 224 332 334
f 332 344 334
f 327 334 344
f 327 344 342
f 344 350 342
f 342 350 327
f 327 350 351
f 351 350 348
f 351 348 347
f 337 351 347
f 337 277 351
f 277 337 258
f 272 258 337
f 272 337 328
f 341 328 337
f 341 313 328
f 347 313 341
f 347 349 313
f 349 348 313
f 348 343 313
f 313 343 321
f 343 333 321
f 321 333 340
f 340 333 335
f 340 335 336
f 330 340 336
f 340 330 294
f 294 312 340
f 303 340 312
f 302 303 312
f 292 302 312
f 303 302 292
f 303 292 300
f 298 303 300
f 298 308 303
f 308 321 303
f 308 298 307
f 314 308 307
f 314 323 308
f 328 323 314
f 328 314 282
f 282 314 238
f 238 314 326
f 326 314 251
f 257 326 251
f 238 257 251
f 227 238 251
f 251 245 227
f 245 251 324
f 251 325 324
f 324 325 320
f 325 306 320
f 325 310 306
f 325 305 310
f 310 305 306
f 305 298 306
f 320 306 299
f 299 301 320
f 301 309 320
f 283 320 309
f 320 283 259
f 245 320 259
f 245 259 254
f 259 239 254
f 239 259 265
f 239 265 270
f 270 265 322
f 270 322 276
f 276 322 279
f 322 315 279
f 315 322 304
f 309 304 322
f 309 295 304
f 309 288 295
f 284 288 309
f 284 287 288
f 287 13 288
f 288 13 17
f 288 17 16
f 317 288 16
f 297 288 317
f 329 297 317
f 357 329 317
f 339 329 357
f 339 357 358
f 358 357 356
f 339 358 256
f 252 256 358
f 210 252 358
f 210 358 346
f 179 252 210
f 213 252 179
f 182 213 179
f 158 213 182
f 158 130 213
f 130 183 213
f 183 216 213
f 216 256 213
f 183 198 216
f 233 216 198
f 233 279 216
f 233 212 279
f 279 345 216
f 279 316 345
f 345 316 339
f 216 345 339
f 212 233 198
f 148 212 198
f 160 212 148
f 160 209 212
f 209 239 212
f 227 209 160
f 160 211 227
f 211 160 155
f 155 202 211
f 152 211 202
f 194 211 152
f 211 194 229
f 211 229 238
f 229 255 238
f 229 232 255
f 232 222 255
f 222 258 255
f 247 258 222
f 196 247 222
f 215 247 196
f 215 250 247
f 250 260 247
f 250 327 260
f 250 278 327
f 250 224 278
f 260 327 247
f 247 327 277
f 224 250 215
f 214 224 215
f 214 228 224
f 228 244 224
f 188 244 228
f 244 188 280
f 188 184 280
f 184 243 280
f 199 243 184
f 189 199 184
f 189 201 199
f 201 221 199
f 221 201 207
f 221 207 249
f 201 236 207
f 236 201 195
f 226 236 195
f 193 226 195
f 192 226 193
f 208 226 192
f 234 226 208
f 234 246 226
f 192 193 208
f 173 208 193
f 208 173 147
f 147 173 104
f 147 104 109
f 147 109 101
f 101 109 104
f 101 104 88
f 88 104 35
f 104 33 35
f 105 33 104
f 104 149 105
f 149 154 105
f 149 193 154
f 154 34 105
f 154 32 34
f 154 28 32
f 100 28 154
f 154 165 100
f 154 172 165
f 172 139 165
f 139 172 195
f 139 22 165
f 165 22 27
f 165 27 24
f 27 22 24
f 22 48 24
f 25 24 48
f 29 25 48
f 26 29 48
f 26 48 39
f 39 48 40
f 48 60 40
f 48 44 60
f 44 51 60
f 51 69 60
f 69 71 60
f 69 78 71
f 71 78 82
f 78 92 82
f 354 82 92
f 112 354 92
f 112 253 354
f 97 253 112
f 225 253 97
f 237 253 225
f 253 237 264
f 237 131 264
f 131 223 264
f 223 217 264
f 217 359 264
f 217 197 359
f 170 197 217
f 170 210 197
f 170 217 223
f 223 156 170
f 131 156 223
f 131 122 156
f 122 127 156
f 127 137 156
f 137 170 156
f 170 137 182
f 158 137 127
f 118 158 127
f 122 118 127
f 117 118 122
f 117 132 118
f 132 130 118
f 132 148 130
f 148 171 130
f 120 132 117
f 146 132 120
f 146 128 132
f 128 146 160
f 164 160 146
f 146 155 164
f 146 133 155
f 152 155 133
f 157 152 133
f 157 176 152
f 157 194 176
f 185 194 157
f 185 220 194
f 220 232 194
f 157 220 185
f 169 220 157
f 196 220 169
f 169 177 196
f 177 204 196
f 143 177 169
f 143 204 177
f 143 167 204
f 188 204 167
f 214 204 188
f 188 167 203
f 163 203 167
f 162 203 163
f 184 203 162
f 162 159 184
f 159 162 153
f 153 162 141
f 142 141 162
f 141 142 96
f 142 110 96
f 110 142 126
f 144 126 142
f 144 142 161
f 144 161 143
f 142 163 161
f 143 126 144
f 126 143 125
f 143 124 125
f 143 129 124
f 129 134 124
f 134 129 133
f 134 133 123
f 134 123 124
f 125 124 121
f 125 121 116
f 115 125 116
f 115 116 181
f 116 135 181
f 103 181 135
f 114 181 103
f 102 114 103
f 102 115 114
f 102 110 115
f 93 110 102
f 93 102 86
f 55 93 86
f 23 93 55
f 23 96 93
f 23 55 21
f 61 21 55
f 81 61 55
f 81 85 61
f 81 83 85
f 84 85 83
f 61 84 83
f 61 83 74
f 74 83 69
f 61 74 69
f 62 61 69
f 81 97 83
f 97 92 83
f 81 103 97
f 86 103 81
f 61 85 84
f 21 61 62
f 51 21 62
f 22 21 51
f 23 21 22
f 55 86 81
f 102 103 86
f 103 135 108
f 108 135 97
f 115 181 114
f 121 135 116
f 135 121 175
f 135 175 200
f 175 237 200
f 175 174 237
f 175 151 174
f 175 117 151
f 151 117 131
f 174 151 131
f 175 121 117
f 119 117 121
f 124 119 121
f 124 146 119
f 115 126 125
f 110 126 115
f 110 93 96
f 141 96 23
f 23 153 141
f 153 23 159
f 23 139 159
f 139 189 159
f 162 163 142
f 163 167 161
f 161 167 143
f 129 143 169
f 169 157 129
f 129 157 133
f 133 146 123
f 128 160 132
f 119 146 120
f 120 117 119
f 117 122 131
f 174 131 237
f 200 237 225
f 97 200 225
f 97 112 92
f 354 111 82
f 82 111 107
f 82 107 91
f 107 9 91
f 80 91 9
f 90 91 80
f 76 90 80
f 82 90 76
f 76 77 82
f 71 77 76
f 75 71 76
f 75 76 79
f 75 79 73
f 73 79 72
f 72 79 3
f 79 2 3
f 79 9 2
f 70 72 3
f 66 72 70
f 67 72 66
f 58 67 66
f 58 40 67
f 40 68 67
f 68 73 67
f 40 75 68
f 47 40 58
f 37 47 58
f 37 58 53
f 57 37 53
f 57 53 64
f 57 64 52
f 59 52 64
f 59 64 1
f 64 7 1
f 8 7 64
f 64 6 8
f 65 6 64
f 64 66 65
f 66 6 65
f 63 59 1
f 59 63 4
f 56 59 4
f 54 59 56
f 42 54 56
f 43 42 56
f 43 56 5
f 49 43 5
f 45 43 49
f 45 49 94
f 5 94 49
f 43 45 42
f 45 46 42
f 45 41 46
f 52 46 41
f 50 52 41
f 52 50 37
f 41 37 50
f 37 41 38
f 36 37 38
f 36 38 45
f 88 36 45
f 88 45 87
f 98 88 87
f 95 87 45
f 106 87 95
f 36 31 37
f 31 30 37
f 30 39 37
f 31 39 30
f 31 36 33
f 38 41 45
f 46 52 42
f 52 54 42
f 5 56 4
f 63 1 4
f 54 52 59
f 53 66 64
f 37 57 52
f 39 47 37
f 53 58 66
f 66 70 6
f 70 3 6
f 67 73 72
f 68 75 73
f 79 76 80
f 80 9 79
f 90 82 91
f 83 92 78
f 71 82 77
f 69 83 78
f 60 71 75
f 51 62 69
f 22 51 44
f 40 60 75
f 39 40 47
f 26 39 31
f 29 26 31
f 34 29 31
f 29 24 25
f 28 24 29
f 48 22 44
f 22 139 23
f 172 154 195
f 100 165 24
f 100 24 28
f 32 28 29
f 34 32 29
f 34 31 105
f 104 193 149
f 33 105 31
f 33 36 35
f 88 35 36
f 173 193 104
f 193 195 154
f 201 139 195
f 199 221 249
f 189 139 201
f 189 184 159
f 203 184 188
f 188 228 214
f 204 214 215
f 204 215 196
f 220 196 222
f 220 222 232
f 194 232 229
f 194 152 176
f 152 202 155
f 155 160 164
f 132 160 148
f 198 171 148
f 171 198 183
f 171 183 130
f 118 130 158
f 137 158 182
f 170 182 179
f 179 210 170
f 213 256 252
f 216 339 256
f 316 329 339
f 357 317 356
f 356 317 331
f 356 331 18
f 331 16 18
f 319 16 331
f 317 319 331
f 316 297 329
f 304 297 316
f 304 291 297
f 291 295 297
f 317 16 319
f 287 14 13
f 287 20 14
f 285 20 287
f 286 285 287
f 301 286 287
f 301 293 286
f 293 290 286
f 299 290 293
f 290 285 286
f 285 290 15
f 290 289 15
f 290 292 289
f 292 296 289
f 294 296 292
f 296 294 311
f 296 311 353
f 330 353 311
f 19 296 353
f 292 312 294
f 296 19 289
f 289 19 15
f 285 15 20
f 301 287 284
f 295 288 297
f 304 295 291
f 315 304 316
f 315 316 279
f 212 276 279
f 212 270 276
f 322 265 309
f 212 239 270
f 239 209 254
f 209 245 254
f 265 259 283
f 283 309 265
f 301 284 309
f 299 293 301
f 299 306 290
f 300 290 306
f 251 305 325
f 245 324 320
f 245 209 227
f 238 227 211
f 251 314 305
f 257 238 326
f 255 282 238
f 255 272 282
f 323 318 308
f 323 313 318
f 318 313 308
f 314 307 305
f 305 307 298
f 298 300 306
f 290 300 292
f 294 330 311
f 330 336 353
f 340 303 321
f 308 313 321
f 328 313 323
f 272 328 282
f 258 272 255
f 247 277 258
f 337 347 341
f 347 348 349
f 327 351 277
f 278 334 327
f 224 334 278
f 244 280 224
f 243 261 280
f 199 249 243
f 236 249 207
f 226 246 236
f 234 262 246
f 248 266 267
f 234 208 262
f 166 190 150
f 166 191 190
f 206 190 191
f 147 180 208
f 166 150 138
f 136 147 101
f 98 101 88
f 106 98 87
f 99 106 95
f 95 45 94
f 89 94 5
f 89 5 10
f 168 145 140
f 178 113 145
f 138 113 166
f 206 191 166
f 206 218 190
f 219 218 240
f 230 240 248
f 248 271 266
f 241 242 273
f 187 231 242
f 235 231 186
f 186 205 235
f 12 205 186

