v -0.347342 -0.472452 0.0807594
v -0.342597 -0.488544 -0.020618
v -0.3397 -0.487715 -0.0310245
v -0.329913 -0.494667 -0.0376641
v -0.327074 -0.494442 -0.0466173
v -0.329078 -0.488503 -0.058764
v -0.333279 -0.487771 -0.0497439
v -0.319743 -0.489399 -0.076354
v -0.313333 -0.495603 -0.0722509
v -0.318117 -0.495265 -0.063839
v -0.322765 -0.494913 -0.0553242
v -0.324726 -0.489054 -0.0675926
v -0.335292 -0.494857 -0.0197875
v -0.33264 -0.494806 -0.028725
v -0.336851 -0.495041 -0.010467
v -0.345119 -0.489687 -0.000850404
v -0.34426 -0.489004 -0.0106792
v -0.352902 -0.482875 -0.00025706
v -0.351948 -0.484005 0.00968561
v -0.345529 -0.48564 0.0388442
v -0.352044 -0.478702 0.0411138
v -0.348678 -0.478426 0.0500774
v -0.347298 -0.479729 0.0597764
v -0.344463 -0.479957 0.0692784
v -0.34156 -0.480106 0.0787646
v -0.333866 -0.479148 0.097003
v -0.337911 -0.479701 0.0879403
v -0.327085 -0.485782 0.0943378
v -0.33481 -0.486715 0.0763549
v -0.33793 -0.486892 0.0671854
v -0.333621 -0.493153 0.055538
v -0.330536 -0.493008 0.0647409
v -0.338766 -0.492352 0.0367466
v -0.341333 -0.491945 0.0273531
v -0.3362 -0.49276 0.0461409
v -0.3406 -0.486612 0.0577199
v -0.297138 -0.475642 0.144234
v -0.290836 -0.472369 0.150884
v -0.283672 -0.469073 0.156599
v -0.289264 -0.460869 0.158522
v -0.267485 -0.461938 0.165469
v -0.262333 -0.469878 0.162539
v -0.254033 -0.465901 0.166128
v -0.245473 -0.461263 0.168356
v -0.240611 -0.468959 0.165046
v -0.248973 -0.473556 0.162422
v -0.257194 -0.47705 0.158462
v -0.336446 -0.487457 -0.0404487
v -0.284901 -0.479434 0.147636
v -0.290777 -0.482499 0.140793
v -0.270442 -0.473429 0.158309
v -0.30362 -0.468101 0.146004
v -0.309025 -0.471557 0.137921
v -0.350991 -0.482096 -0.0104727
v -0.336712 -0.495509 -0.00119426
v -0.313583 -0.472866 0.129453
v -0.302905 -0.478629 0.136602
v -0.296759 -0.464549 0.152695
v -0.275774 -0.46562 0.161393
v -0.277897 -0.476501 0.153188
v -0.296235 -0.484944 0.133196
v -0.301413 -0.487148 0.125279
v -0.307986 -0.480685 0.128212
v -0.322648 -0.484894 0.102995
v -0.329069 -0.477929 0.105531
v -0.334526 -0.470028 0.107485
v -0.339448 -0.471282 0.0989889
v -0.33121 -0.486479 0.0854832
v -0.343434 -0.471892 0.0898925
v -0.343125 -0.486193 0.0482451
v -0.348073 -0.485205 0.0293762
v -0.354043 -0.477675 0.0315288
v -0.356589 -0.477259 0.0217957
v -0.350447 -0.484832 0.0197639
v -0.343101 -0.491302 0.0179337
v -0.344313 -0.490544 0.00842774
f 3 14 13 2
f 13 15 17 2
f 48 4 14 3
f 48 7 5 4
f 7 6 11 5
f 12 10 11 6
f 9 10 12 8
f 55 16 17 15
f 76 19 18 16
f 18 54 17 16
f 76 75 74 19
f 71 34 33 20
f 33 35 70 20
f 70 22 21 20
f 21 72 71 20
f 70 36 23 22
f 36 30 24 23
f 30 29 25 24
f 29 68 27 25
f 27 69 1 25
f 27 68 28 26
f 28 64 65 26
f 65 66 67 26
f 67 69 27 26
f 36 31 32 30
f 36 70 35 31
f 71 74 75 34
f 57 61 50 37
f 50 49 38 37
f 38 58 52 37
f 52 53 57 37
f 49 60 39 38
f 39 40 58 38
f 60 51 59 39
f 59 51 42 41
f 47 46 43 42
f 46 45 44 43
f 56 63 57 53
f 63 62 61 57
f 72 73 74 71
