# https://github.com/mikedh/trimesh
v 0.15001638 0.41935788 -0.11823950
v 0.16949725 0.38941563 -0.11405813
v 0.19148000 0.33643299 -0.10767000
v 0.18463450 0.35932974 -0.11167550
v 0.19437250 0.31134576 -0.10214525
v 0.19838025 0.28044887 -0.10068550
v 0.14004212 0.43139412 -0.12997150
v 0.12989776 0.43837362 -0.13647463
v 0.16131221 0.40667487 -0.12483491
v 0.14999032 0.42052469 -0.12081693
v 0.14548347 0.42639426 -0.12481897
v 0.14945959 0.42144775 -0.12962115
v 0.17140451 0.39097954 -0.12486940
v 0.16249066 0.40432289 -0.12003793
v 0.16653299 0.39853999 -0.12868699
v 0.17333338 0.38732736 -0.12888343
v 0.17280606 0.38752907 -0.13271034
v 0.17852331 0.37820586 -0.12806822
v 0.18393193 0.36719256 -0.12774249
v 0.18343798 0.36727579 -0.11882798
v 0.18733917 0.35972323 -0.12532617
v 0.18927022 0.35480145 -0.12265418
v 0.19290418 0.34561197 -0.12515398
v 0.19220993 0.34596451 -0.13255308
v 0.18086419 0.37227704 -0.13269252
v 0.19483895 0.33873047 -0.13040358
v 0.18418406 0.36365772 -0.13455660
v 0.16011474 0.40750091 -0.13147246
v 0.19800045 0.32836996 -0.12983554
v 0.19117118 0.34510782 -0.13566928
v 0.19515941 0.33539028 -0.13327196
v 0.17979362 0.37056254 -0.13688335
v 0.13840887 0.43181784 -0.13548246
v 0.13935450 0.42910400 -0.13707601
v 0.20325959 0.29865942 -0.11410524
v 0.20513920 0.28737430 -0.11611486
v 0.20067216 0.31508977 -0.11743485
v 0.20191500 0.29559600 -0.10955600
v 0.19539940 0.32863745 -0.11076461
v 0.19651127 0.33204707 -0.11714746
v 0.20049786 0.30314570 -0.10905871
v 0.20115326 0.28929061 -0.10586517
v 0.19779360 0.31407861 -0.10793835
v 0.18981218 0.34941650 -0.11439869
v 0.19439310 0.33886763 -0.11818851
v 0.17933635 0.37393182 -0.11523708
v 0.20397677 0.30217258 -0.12217959
v 0.20545325 0.28952329 -0.11945259
v 0.20049870 0.31920726 -0.12234594
v 0.20479337 0.27322502 -0.11089383
v 0.20587800 0.28843799 -0.12219300
v 0.19998815 0.32160186 -0.12901463
v 0.20598140 0.28878998 -0.12484628
v 0.20716840 0.27416698 -0.12188348
v 0.20751469 0.26353552 -0.12595569
v 0.20648450 0.24860025 -0.11980400
v 0.20709659 0.26564586 -0.11847428
v 0.20732901 0.25822401 -0.12375200
v 0.20496325 0.26069100 -0.11139275
v 0.20189600 0.27450901 -0.10511700
v 0.20552735 0.29378283 -0.12798213
v 0.20709067 0.24982183 -0.12756827
v 0.20616300 0.24037699 -0.12766200
v 0.19754992 0.29651486 -0.10168527
v 0.20232819 0.30620948 -0.13349211
v 0.19883406 0.31883384 -0.13563846
v 0.20080611 0.30055158 -0.13787761
v 0.20390539 0.28603583 -0.13600572
v 0.19518635 0.32621738 -0.13835689
v 0.20637203 0.26598946 -0.13347061
v 0.20083100 0.28857401 -0.13940300
v 0.18747893 0.35065091 -0.13818696
v 0.18284850 0.35688425 -0.14004075
v 0.16232918 0.40103169 -0.13509656
v 0.19096925 0.33083350 -0.14052150
v 0.19448854 0.32244326 -0.13985057
v 0.20592800 0.24613300 -0.13220599
v 0.20707644 0.26585477 -0.13032574
v 0.20557299 0.25810000 -0.13468300
v 0.20410775 0.27342212 -0.13672388
v 0.20541777 0.28700400 -0.13196594
v 0.20652826 0.28359283 -0.12665646
v 0.20567600 0.23847150 -0.12979300
f 74 34 33
f 33 28 74
f 28 17 74
f 17 25 74
f 25 32 74
f 25 27 32
f 27 72 32
f 27 30 72
f 30 69 72
f 69 75 72
f 72 75 73
f 74 72 73
f 69 76 75
f 69 67 76
f 66 67 69
f 24 66 69
f 31 66 24
f 31 26 66
f 26 29 66
f 29 65 66
f 29 52 65
f 52 61 65
f 61 81 65
f 81 68 65
f 81 70 68
f 68 70 80
f 70 79 80
f 70 77 79
f 70 62 77
f 62 83 77
f 63 83 62
f 56 63 62
f 57 56 62
f 57 62 58
f 58 62 55
f 55 62 78
f 55 78 61
f 61 78 70
f 82 55 61
f 61 53 82
f 53 54 82
f 51 54 53
f 48 54 51
f 36 54 48
f 57 54 36
f 50 57 36
f 50 59 57
f 42 59 50
f 42 60 59
f 6 60 42
f 64 6 42
f 64 42 41
f 64 41 43
f 5 64 43
f 39 5 43
f 39 43 35
f 39 35 40
f 40 44 39
f 44 40 45
f 44 45 23
f 44 23 22
f 20 44 22
f 46 44 20
f 46 4 44
f 4 46 2
f 46 14 2
f 46 13 14
f 14 13 9
f 14 9 10
f 1 14 10
f 1 10 11
f 10 9 11
f 9 12 11
f 12 7 11
f 7 12 33
f 7 33 8
f 9 28 12
f 9 15 28
f 13 15 9
f 15 13 17
f 13 16 17
f 18 17 16
f 18 25 17
f 18 19 25
f 19 24 25
f 21 24 19
f 21 23 24
f 23 26 24
f 20 21 19
f 20 19 18
f 13 20 18
f 18 16 13
f 1 2 14
f 44 4 3
f 46 20 13
f 20 22 21
f 22 23 21
f 45 40 23
f 23 40 52
f 40 49 52
f 40 37 49
f 37 35 49
f 49 35 47
f 49 47 61
f 35 36 47
f 39 44 3
f 37 40 35
f 39 3 5
f 41 35 43
f 41 38 35
f 38 42 35
f 41 42 38
f 42 50 35
f 35 50 36
f 48 47 36
f 48 51 47
f 47 51 53
f 47 53 61
f 54 55 82
f 54 58 55
f 54 57 58
f 57 59 56
f 78 62 70
f 68 80 67
f 67 80 71
f 65 68 67
f 61 70 81
f 49 61 52
f 23 52 29
f 23 29 26
f 26 31 24
f 65 67 66
f 24 69 30
f 27 24 30
f 25 24 27
f 28 15 17
f 28 33 12
f 33 34 8

