v 0.0088938309375 -0.036917153125 -0.14716075
v -0.01478253125 -0.0583586609375 -0.14904359375
v 0.007966815625 -0.0596131671875 -0.14933078125
v -0.0158046926563 -0.0810014828125 -0.15091040625
v -0.0169057960938 -0.103618278125 -0.15269034375
v 0.005900046875 -0.105006204688 -0.15305596875
v 0.0047541734375 -0.12765096875 -0.154890734375
v 0.02755789375 -0.12917240625 -0.1546206875
v 0.053437084375 -0.0625089859375 -0.1479850625
v 0.0770255015625 -0.041349009375 -0.144199390625
v 0.0761453640625 -0.064127265625 -0.146327515625
v 0.0751853890625 -0.086943990625 -0.148255234375
v 0.074159865625 -0.109731435937 -0.150150765625
v 0.0731097828125 -0.132479890625 -0.1522604375
v 0.0697302921875 -0.200006734375 -0.16186396875
v 0.068498546875 -0.221996515625 -0.16746309375
v 0.067226665625 -0.243755578125 -0.173971703125
v 0.09021975625 -0.24575171875 -0.172158625
v 0.159306625 -0.230352609375 -0.154870640625
v 0.184132625 -0.23022825 -0.14716825
v 0.199846875 -0.2374745 -0.142803375
v 0.20118153125 -0.2801598125 -0.153095328125
v 0.21893084375 -0.328360046875 -0.151228125
v 0.236903375 -0.353979625 -0.14232925
v 0.22722525 -0.39631375 -0.141996875
v 0.208696625 -0.396743375 -0.150263875
v 0.187414125 -0.394136875 -0.158447875
v 0.212706078125 -0.374134265625 -0.151906296875
v 0.216165671875 -0.351313640625 -0.152349140625
v 0.191361859375 -0.371530640625 -0.160428921875
v 0.165591 -0.39150575 -0.165354
v 0.1433585 -0.388785625 -0.171126625
v 0.124647773437 -0.363434828125 -0.178293765625
v 0.1471479375 -0.366223265625 -0.173381296875
v 0.1728551875 -0.346117875 -0.16832196875
v 0.17573540625 -0.323192 -0.1675870625
v 0.153426125 -0.32055521875 -0.173586984375
v 0.130895828125 -0.317889515625 -0.178510703125
v 0.12805115625 -0.3407344375 -0.179312171875
v 0.105413996875 -0.337969171875 -0.183534453125
v 0.0987771 -0.363018625 -0.182839375
v 0.101499125 -0.38043725 -0.179922625
v 0.1208455625 -0.3858995 -0.17597275
v -0.0889025375 -0.20901775 -0.162316
v 0.0793646625 -0.357673 -0.186164625
v 0.0826728046875 -0.335188671875 -0.186952265625
v 0.056637025 -0.334967125 -0.190102375
v 0.0173294375 -0.325235625 -0.192809125
v 0.01350125875 -0.30813275 -0.192221875
v -0.006530335 -0.3038635 -0.192454
v 0.018276690625 -0.28353659375 -0.18798871875
v 0.0414359953125 -0.28547184375 -0.187048265625
v 0.03970085625 -0.3076528125 -0.190486625
v 0.06264741875 -0.30999728125 -0.1886401875
v 0.108258289062 -0.315206234375 -0.18266871875
v 0.155629765625 -0.297691359375 -0.171011546875
v 0.179438984375 -0.277644421875 -0.1606026875
v 0.18048096875 -0.255196140625 -0.1549943125
v 0.157198453125 -0.2750523125 -0.166687734375
v 0.134647859375 -0.272494140625 -0.17150609375
v 0.110408279687 -0.292483421875 -0.179888078125
v 0.0875320671875 -0.28998390625 -0.18301465625
v 0.0645265359375 -0.2876323125 -0.185411625
v 0.088960665625 -0.2677345 -0.17819109375
v 0.133077828125 -0.29507865625 -0.175875828125
v 0.04287573125 -0.26356178125 -0.18170790625
v 0.0442156515625 -0.241894234375 -0.175099328125
v 0.0455304171875 -0.2202131875 -0.168526734375
v -0.00184982075 -0.238541640625 -0.175600828125
v -0.0248619724688 -0.237044 -0.174924671875
v -0.0264006917188 -0.258539125 -0.18185
v -0.0310987625 -0.2828005 -0.18856675
v -0.02658579125 -0.299772625 -0.1917795
v -0.0479836875 -0.2762465 -0.1864545
v -0.0693317125 -0.2532985 -0.17841625
v -0.0478184234375 -0.23563903125 -0.173725953125
v -0.0233425687187 -0.215474375 -0.168245953125
v -0.046246753125 -0.214065703125 -0.1670455
v -0.0707611375 -0.23434075 -0.172018
v -0.0903576 -0.18953425 -0.157660375
v -0.08890865 -0.1671795 -0.154022
v -0.0675378125 -0.143072875 -0.153074625
v -0.0636394125 -0.123604875 -0.151632125
v -0.040846315625 -0.12491403125 -0.153378609375
v -0.0385730390625 -0.07983455625 -0.14983065625
v -0.039692334375 -0.1023872125 -0.1515893125
v -0.060303925 -0.056241125 -0.14634225
v -0.0622936625 -0.03647615 -0.14443925
v -0.0848601875 -0.147673625 -0.151777
v -0.0791681625 -0.0302986 -0.1421015
v -0.0813347625 -0.0105610375 -0.139823875
v -0.0995642125 0.0377834875 -0.13094625
v -0.09893195 0.0547175875 -0.128138
v 0.0376477375 0.0490020625 -0.13329375
v 0.0574963375 0.0505791625 -0.13203475
v 0.0798688 0.048997975 -0.130839
v 0.0792186484375 0.0265819860937 -0.135031078125
v 0.078541571875 0.0040345759375 -0.138676703125
v 0.101602804687 0.0249607875937 -0.13282834375
v 0.101053423437 0.0024118943125 -0.1363551875
v 0.100395479687 -0.0202715967812 -0.13919365625
v 0.077815665625 -0.0186272842187 -0.14165378125
v 0.05518229375 -0.0170390570312 -0.143259
v 0.032503956875 -0.0155802959375 -0.144210828125
v 0.0106504896875 0.0083343090625 -0.141352890625
v 0.009766038125 -0.014252114375 -0.14457725
v -0.01301444 -0.013058300625 -0.144311484375
v -0.011230225 0.031936675 -0.137244375
v -0.0340728 0.0329733625 -0.13658125
v -0.0121377110937 0.0094931775 -0.141083359375
v 0.031460475 0.0325758875 -0.136728625
v 0.0115319 0.0308269625 -0.137451
v -0.034957690625 0.0105196121875 -0.140325
v -0.0577766125 0.01135554375 -0.138957109375
v -0.0805680125 0.01200945 -0.137009625
v -0.0585639296875 -0.011210509375 -0.141871921875
v -0.0366316984375 -0.0346499140625 -0.145967984375
v -0.0357988828125 -0.0120450729688 -0.143410171875
v 0.0333467342188 0.0070532540625 -0.14102553125
v 0.055968353125 0.0056121671875 -0.140173671875
v 0.099652984375 -0.0430041640625 -0.141724265625
v 0.0987659484375 -0.0658029484375 -0.143842703125
v 0.0978450390625 -0.0886150984375 -0.14585546875
v 0.119518904687 -0.113027653125 -0.144646140625
v 0.14378621875 -0.0688540140625 -0.13592521875
v 0.142922359375 -0.09171833125 -0.138088609375
v 0.1671178125 -0.0243191806719 -0.124794265625
v 0.166642140625 -0.0471994515625 -0.127570375
v 0.190311625 0.0232720375 -0.1074051625
v 0.188070328125 -0.048231553125 -0.11954253125
v 0.18752809375 -0.071259046875 -0.122272625
v 0.186828375 -0.0942696171875 -0.124839546875
v 0.18599971875 -0.117306695313 -0.127447359375
v 0.224961625 -0.09318645 -0.1040296125
v 0.2249905 -0.0757836375 -0.1016888
v 0.208464625 -0.02601093125 -0.105840875
v 0.207896625 -0.0030311125 -0.1017889125
v 0.165599125 0.0663910625 -0.10937435
v 0.1667581875 0.0439357296875 -0.11408266875
v 0.1456269375 -0.0004228955 -0.128071625
v 0.122855746875 -0.0218316518281 -0.13564471875
v 0.12344109375 0.00086750778125 -0.13279859375
v 0.1451630625 -0.0231855570625 -0.1309944375
v 0.144567421875 -0.046002021875 -0.133630421875
v 0.1238885 0.0234311356719 -0.12953465625
v 0.124067375 0.0684364 -0.120926625
v 0.0069511440625 -0.08231420625 -0.151221328125
v 0.0316425239062 -0.0382770796875 -0.14680734375
v 0.177873875 0.126087 -0.0748201125
v 0.181268625 0.111705625 -0.082954875
v 0.163702875 0.128031625 -0.08344485
v 0.166486625 0.11292075 -0.0917192625
v 0.10506425 0.0666575125 -0.124486875
v 0.145854546875 0.0222664335625 -0.12475471875
v 0.14572840625 0.044885975 -0.12085996875
v 0.1452575 0.06738705 -0.11631825
v 0.186973625 0.0432395375 -0.104917725
v 0.1829935 0.063038375 -0.101618475
v 0.204818875 0.01712249375 -0.099517975
v 0.208555125 -0.0490714 -0.109334875
v 0.206945 -0.1185236625 -0.118017625
v 0.21012925 -0.0983625625 -0.11399675
v 0.202677625 -0.16182625 -0.125435875
v 0.18312325 -0.18691975 -0.137986125
v 0.163347015625 -0.139049234375 -0.13759140625
v 0.16235484375 -0.162048796875 -0.1406774375
v 0.139083640625 -0.183164171875 -0.14927803125
v 0.116512292187 -0.181316453125 -0.15297990625
v 0.14106640625 -0.13748309375 -0.14289903125
v 0.115445310937 -0.20375890625 -0.157385640625
v 0.114271215625 -0.22590653125 -0.163127546875
v 0.0914320453125 -0.223913015625 -0.16568296875
v 0.1369335 -0.228035578125 -0.1596024375
v 0.135838640625 -0.250205125 -0.165812875
v 0.1603158125 -0.207882328125 -0.1489771875
v 0.16134434375 -0.18505784375 -0.14431625
v 0.138051671875 -0.2057485625 -0.153814765625
v 0.14006975 -0.160351078125 -0.145816890625
v 0.1651094375 -0.09306799375 -0.132387421875
v 0.164265734375 -0.11602495 -0.134787140625
v 0.18670625 -0.16665725 -0.1332475
v 0.206096125 -0.141687875 -0.121227875
v 0.185047421875 -0.140413546875 -0.13035684375
v 0.188314109375 -0.0252514129687 -0.116450828125
v 0.210747875 -0.0693909125 -0.1104342375
v 0.1882795625 -0.002331179375 -0.113010629688
v 0.167306171875 0.0212825662031 -0.11814228125
v 0.16738321875 -0.00148211371875 -0.1217141875
v 0.165923484375 -0.070130965625 -0.130042703125
v 0.142016265625 -0.114589198437 -0.140333609375
v 0.121356228125 -0.0673842796875 -0.140468734375
v 0.120469070313 -0.0902048203125 -0.1425729375
v 0.122198514062 -0.0445761703125 -0.138270078125
v 0.1240613125 0.045960021875 -0.125533625
v 0.09930255 0.0503528 -0.128585
v 0.0567359125 0.0281563117187 -0.136394515625
v -0.056933725 0.0338699125 -0.135441125
v -0.0827149375 0.0318173375 -0.133865375
v -0.0818264125 0.0543378625 -0.12989025
v -0.06133035 -0.0787288125 -0.14812075
v -0.0624618625 -0.1011679375 -0.149831375
v -0.0420799890625 -0.14738484375 -0.15548478125
v -0.0192777495312 -0.148769578125 -0.156555734375
v 0.0023007603125 -0.172730953125 -0.1596766875
v 0.0238854201875 -0.196580171875 -0.163636640625
v 0.04680183125 -0.1982470625 -0.163029484375
v 0.070899384375 -0.17770246875 -0.157687796875
v 0.0480301171875 -0.175962421875 -0.158920015625
v 0.0035486121875 -0.1502415 -0.1569943125
v 0.04922395 -0.153455234375 -0.15596634375
v 0.0009898383125 -0.195003921875 -0.163613703125
v 0.0251628860937 -0.174306296875 -0.15956546875
v -0.0205486545313 -0.171228734375 -0.159270640625
v -0.0433768703125 -0.169809671875 -0.158153078125
v -0.0661653109375 -0.168468609375 -0.156341734375
v -0.0675781546875 -0.190759296875 -0.160110484375
v -0.07218235 -0.21534225 -0.16570475
v -0.0447597765625 -0.1920775 -0.161922703125
v -0.021902093875 -0.19349940625 -0.163062953125
v -0.00040654825 -0.21695634375 -0.168936796875
v -0.0525006875 -0.25963225 -0.181451125
v -0.003327776875 -0.260062125 -0.18242946875
v 0.0225555703437 -0.218543875 -0.169008453125
v 0.0211823353438 -0.24014978125 -0.175673015625
v 0.0197734254688 -0.2617310625 -0.18236828125
v -0.004887165625 -0.2818180625 -0.188260140625
v 0.0370627375 -0.32994575 -0.191951
v 0.0855021171875 -0.312559109375 -0.18599578125
v 0.0597516875 -0.352348 -0.18862175
v 0.177918953125 -0.30030990625 -0.1649500625
v 0.1976535 -0.325786703125 -0.160221203125
v 0.150559875 -0.343455859375 -0.174315609375
v 0.169422921875 -0.36891259375 -0.167468484375
v 0.194805703125 -0.348721 -0.16110659375
v -0.0138759026562 -0.0356971859375 -0.146875671875
v 0.24123075 -0.30783975 -0.1378825
v 0.239207 -0.28733825 -0.13502225
v 0.224714 -0.279949 -0.142062625
v 0.220950375 -0.305398296875 -0.148453578125
v 0.233411875 -0.376874875 -0.142077
v 0.239545375 -0.330939125 -0.140953
v 0.199760109375 -0.30287821875 -0.15746659375
v 0.21984175 -0.262239375 -0.140063375
v 0.2047745 -0.255103125 -0.14571675
v 0.18217625 -0.210082 -0.142905875
v 0.1583300625 -0.25265534375 -0.161055015625
v 0.111885420312 -0.2700443125 -0.17530209375
v 0.11311694375 -0.247915984375 -0.16946384375
v 0.0659398578125 -0.2655735 -0.180300140625
v 0.092628509375 -0.20185378125 -0.160032078125
v 0.093750453125 -0.179499765625 -0.15571528125
v 0.0948159796875 -0.156917875 -0.15245640625
v 0.117512609375 -0.158638609375 -0.1496075625
v 0.118524429687 -0.13584765625 -0.146943015625
v 0.0968756390625 -0.111413523437 -0.147815859375
v 0.095852940625 -0.134183171875 -0.1499774375
v 0.0720392890625 -0.155183859375 -0.1545726875
v 0.05034786875 -0.13078525 -0.153753125
v 0.0543464375 -0.039754390625 -0.14584421875
v 0.030705153125 -0.0610133734375 -0.14894515625
v 0.0297038948438 -0.083750271875 -0.15086309375
v 0.0286719289063 -0.106480135937 -0.15274015625
v 0.052463584375 -0.0852782828125 -0.14993575
v 0.0514160921875 -0.1080377625 -0.151810109375
v 0.0263866754687 -0.151803765625 -0.156749
v -0.018055275 -0.12622315625 -0.154493609375
v -0.0375390765625 -0.0572723734375 -0.14799446875
v 0.031183615 -0.0496428875 -0.1479194375
v 0.019337075 -0.060299 -0.14921375
v 0.0084407275 -0.0482632875 -0.14828925
v 0.020272870625 -0.03758145625 -0.147061875
v -0.0034066875 -0.05896456875 -0.149278875
v -0.014318235 -0.0470281875 -0.1480025625
v -0.002490579375 -0.03628730625 -0.147096375
v -0.013443900625 -0.02437083125 -0.145660125
v -0.00162120375 -0.013635386875 -0.1445240625
v 0.00933194625 -0.025577825 -0.1459345
v 0.02114189625 -0.014900240625 -0.1444696875
v 0.032079405625 -0.02692218125 -0.1455751875
v 0.007466275 -0.07096373125 -0.150296125
v -0.004425351875 -0.08163975625 -0.1511576875
v -0.015280425 -0.06968343125 -0.1500015625
v -0.02718879375 -0.08040435 -0.1504644375
v -0.0380417625 -0.0685585375 -0.14892625
v -0.0261598125 -0.0578009 -0.1486105
v -0.03707166875 -0.04596445625 -0.147027875
v -0.02525768125 -0.0351520625 -0.1465055625
v 0.0302096125 -0.07238230625 -0.1499181875
v 0.018326710625 -0.08301986875 -0.151116375
v 0.00643346125 -0.09366381875 -0.1521424375
v -0.005501946875 -0.10429536875 -0.1529625
v -0.016348110625 -0.0923118 -0.1518040625
v -0.0283020625 -0.10299131875 -0.152233125
v -0.03912621875 -0.0911120375 -0.150715125
v 0.00533772125 -0.116335 -0.1539584375
v -0.00665161875 -0.1269225 -0.1547794375
v -0.01747286625 -0.1149248125 -0.1535770625
v -0.02945205625 -0.125560875 -0.1540265
v -0.04026241875 -0.1136563125 -0.152462875
v 0.02812427125 -0.1178321875 -0.1536681875
v 0.0161573625 -0.128400625 -0.15483425
v 0.017290746875 -0.1057344 -0.152977125
v 0.029194901875 -0.09511785625 -0.1518044375
v 0.02697876125 -0.1404991875 -0.1556298125
v 0.014966901875 -0.1510114375 -0.15694825
v 0.0041570925 -0.138954875 -0.15589375
v -0.007866985625 -0.1494940625 -0.15685725
v -0.01865897625 -0.1375050625 -0.155469375
v 0.04979463125 -0.1421355 -0.154798625
v 0.037806725 -0.152618375 -0.1564265
v 0.0389557125 -0.12996725 -0.15426075
v 0.04004536875 -0.10724359375 -0.15235925
v 0.05088594375 -0.11941625 -0.152763375
v 0.075674725 -0.07553511875 -0.147306375
v 0.06383174375 -0.0861006875 -0.1491885
v 0.0529594625 -0.07389363125 -0.1489756875
v 0.0647992 -0.063304875 -0.147252875
v 0.04108524375 -0.08449894375 -0.15048175
v 0.0420721125 -0.06174759375 -0.148542375
v 0.042998775 -0.0390008875 -0.14640475
v 0.05390035 -0.0511282375 -0.1469550625
v 0.065690325 -0.0405391 -0.145115875
v 0.07659638125 -0.05273144375 -0.1453036875
v 0.09922115625 -0.05439798125 -0.1428178125
v 0.08746248125 -0.0649681625 -0.1451906875
v 0.08834703125 -0.0421781125 -0.1430744375
v 0.054772525 -0.02839045 -0.1446110625
v 0.06650426875 -0.0178203075 -0.142548875
v 0.07743045 -0.02998131875 -0.142979125
v 0.08911641875 -0.019450709375 -0.14054775
v 0.10003958125 -0.031631075 -0.140503
v 0.0983092125 -0.0772094875 -0.144858
v 0.0865201875 -0.087786025 -0.1471511875
v 0.09736751875 -0.10001728125 -0.146826875
v 0.0855237125 -0.1105794125 -0.149073625
v 0.07467828125 -0.09834286875 -0.1491890625
v 0.062789125 -0.10887563125 -0.1510684375
v 0.05194555 -0.09665905 -0.1508740625
v 0.0963683875 -0.1228013125 -0.1488660625
v 0.08448641875 -0.1333343125 -0.1512145
v 0.07363660625 -0.121109375 -0.15118325
v 0.0617314125 -0.1316265 -0.1530965
v 0.095336475 -0.145561625 -0.1511499375
v 0.08343473125 -0.156052125 -0.153604875
v 0.072580675 -0.1438461875 -0.15335625
v 0.06063525 -0.1543143125 -0.155354125
v 0.09203584375 -0.2129199375 -0.162707625
v 0.07997293125 -0.222942 -0.1666659375
v 0.0691216875 -0.2110395625 -0.1645041875
v 0.08118563125 -0.200921375 -0.1610413125
v 0.05701673125 -0.2210883125 -0.1680761875
v 0.046172 -0.20927125 -0.165613375
v 0.0582669875 -0.1991153125 -0.1625208125
v 0.047420375 -0.187139 -0.1608103125
v 0.05946518125 -0.1768231875 -0.158387375
v 0.07032023125 -0.188888125 -0.1596151875
v 0.08233090625 -0.1785966875 -0.1567953125
v 0.09319859375 -0.1907101875 -0.1577186875
v 0.0908285625 -0.234837375 -0.16889575
v 0.0787294625 -0.2447339375 -0.173164125
v 0.067865 -0.2328875 -0.1706679375
v 0.0557232 -0.242809875 -0.1746099375
v 0.04487661875 -0.2310745 -0.1717343125
v 0.0895999875 -0.25671475 -0.17528425
v 0.07745831875 -0.2666356875 -0.1793361875
v 0.0665891625 -0.2546438125 -0.177227375
v 0.0544128125 -0.2645468125 -0.181095625
v 0.0435525625 -0.2527114375 -0.178485
v 0.11251815 -0.2589509375 -0.172496875
v 0.10043936875 -0.2688710625 -0.1768521875
v 0.1016857125 -0.2468156875 -0.170926625
v 0.10286805 -0.2248978125 -0.1645124375
v 0.113695225 -0.23691275 -0.166291
v 0.1808960625 -0.243977375 -0.151892125
v 0.16946225 -0.253925625 -0.1582000625
v 0.15882325 -0.241507875 -0.157982125
v 0.1703690625 -0.2315549375 -0.1519998125
v 0.14711825 -0.25141225 -0.16358425
v 0.13638675 -0.2391201875 -0.1627146875
v 0.1481599375 -0.22917475 -0.1573985
v 0.137496 -0.216920625 -0.1565943125
v 0.149235125 -0.206801125 -0.15156675
v 0.159806 -0.2191540625 -0.1518194375
v 0.171276125 -0.2089784375 -0.14603075
v 0.1817745 -0.221476 -0.1458405
v 0.2023715 -0.246301 -0.144367
v 0.191352375 -0.2564399375 -0.1514126875
v 0.191962 -0.233839 -0.1449465
v 0.2215860625 -0.2939505625 -0.146345375
v 0.2104626875 -0.30414675 -0.15316775
v 0.200553625 -0.291491125 -0.1554658125
v 0.211729375 -0.2813576875 -0.1486903125
v 0.18890575 -0.301600375 -0.161391875
v 0.178751875 -0.28894625 -0.162964625
v 0.19039775 -0.2789180625 -0.15704825
v 0.1800053125 -0.2664064375 -0.157921875
v 0.201647 -0.268887375 -0.1503855
v 0.2122945 -0.2586655 -0.142932
v 0.2223265 -0.271076 -0.1411615
v 0.238333 -0.3424705 -0.141846
v 0.22658 -0.3526403125 -0.1474275
v 0.2176361875 -0.3398455625 -0.1519888125
v 0.2292864375 -0.329648875 -0.146179625
v 0.2055694375 -0.35001225 -0.1569175625
v 0.1963139375 -0.3372605625 -0.1608815
v 0.2083819375 -0.3270740625 -0.155920375
v 0.1987978125 -0.314318 -0.1590673125
v 0.2200504375 -0.316872875 -0.1500654375
v 0.2311600625 -0.3066251875 -0.1432823125
v 0.2405385 -0.319394 -0.139656
v 0.22310575 -0.37549275 -0.147084375
v 0.2145185 -0.3627485 -0.15231075
v 0.2352585 -0.365458 -0.142397
v 0.2107398125 -0.3854550625 -0.1511684375
v 0.231377 -0.3881995 -0.141397
v 0.219028 -0.3980995 -0.1455165
v 0.1894240625 -0.382849375 -0.1595313125
v 0.2021193125 -0.3728230625 -0.1563573125
v 0.1981425 -0.395432 -0.154547
v 0.167534625 -0.3802245 -0.1665001875
v 0.180450125 -0.3702285 -0.164112625
v 0.17656 -0.3928295 -0.1620485
v 0.193155375 -0.3601494375 -0.160954875
v 0.1712005625 -0.357539375 -0.168081
v 0.183888875 -0.34742475 -0.1648900625
v 0.145279 -0.3775200625 -0.17234675
v 0.1583190625 -0.367578875 -0.1705565625
v 0.154518 -0.3901615 -0.1683695
v 0.12277409375 -0.37468525 -0.1772221875
v 0.1359189375 -0.3648416875 -0.175947125
v 0.13213 -0.387367 -0.173657
v 0.10951825 -0.384377 -0.178086
v 0.10013925 -0.371718 -0.1814085
v 0.11335015625 -0.362003375 -0.1804609375
v 0.10378666875 -0.349296125 -0.183217
v 0.1167465 -0.3393563125 -0.1815205625
v 0.12641175 -0.3521120625 -0.179009625
v 0.139326125 -0.3421016875 -0.176922375
v 0.14891375 -0.354864 -0.1740446875
v 0.161740875 -0.34479475 -0.1714563125
v 0.15206975 -0.3320124375 -0.17417275
v 0.1646178125 -0.32187825 -0.1707400625
v 0.1743744375 -0.334661125 -0.168175625
v 0.1867593125 -0.32449375 -0.1640954375
v 0.15461175 -0.3091056875 -0.1725291875
v 0.1668190625 -0.2990035 -0.168147625
v 0.1769151875 -0.311733375 -0.166501375
v 0.129551125 -0.3293194375 -0.1791438125
v 0.1421799375 -0.319225625 -0.176160375
v 0.1320694375 -0.306467125 -0.177419
v 0.14437475 -0.2963836875 -0.1735688125
v 0.10691296875 -0.3265970625 -0.1833468125
v 0.119590375 -0.3165469375 -0.1806884375
v 0.1094246625 -0.303823125 -0.1815148125
v 0.1217628125 -0.2937744375 -0.177989
v 0.09075115 -0.3591385 -0.184511
v 0.08104949375 -0.346443375 -0.1866824375
v 0.0940554875 -0.336574875 -0.18534075
v 0.084173075 -0.3238838125 -0.186726125
v 0.09689428125 -0.31387575 -0.1844266875
v 0.05818885 -0.3436405 -0.1893855
v 0.07126778125 -0.3338258125 -0.1883818125
v 0.0679209 -0.3562175 -0.1875415
v 0.0613515 -0.3212495625 -0.1894206875
v 0.0740855625 -0.3112599375 -0.1874094375
v 0.03845515625 -0.3187930625 -0.1913633125
v 0.0511904875 -0.3087901875 -0.1896605625
v 0.04850085 -0.3312 -0.191042
v 0.0281646125 -0.3065993125 -0.1911344375
v 0.0256051 -0.328811 -0.192576
v 0.01543725 -0.3166595 -0.1925425
v -0.00570268875 -0.2928194375 -0.190482875
v 0.0066917625 -0.282652125 -0.18820875
v 0.017501658125 -0.294555875 -0.190094875
v 0.005094185 -0.3047055 -0.192293
v 0.0298613 -0.284476 -0.187602875
v 0.04065311875 -0.2965374375 -0.1890319375
v -0.0288467 -0.291284 -0.190223
v -0.016453775 -0.281029875 -0.1881400625
v -0.018118665 -0.3030925 -0.192403
v -0.00409588875 -0.2709020625 -0.1855341875
v 0.008220839375 -0.2608771875 -0.182475625
v 0.019035514375 -0.27259825 -0.18537375
v 0.0313271625 -0.2626245625 -0.18212225
v 0.0421735375 -0.2744809375 -0.184584625
v 0.0636797 -0.2987838125 -0.1872885625
v 0.05299118125 -0.286525625 -0.1863219375
v 0.06526611875 -0.2765659375 -0.1830551875
v 0.0760417375 -0.288786875 -0.1843050625
v 0.08661174375 -0.301244875 -0.184753
v 0.09899280625 -0.291218 -0.1815528125
v 0.133926875 -0.2837505 -0.1738883125
v 0.145954875 -0.273763625 -0.1692399375
v 0.1564833125 -0.28633975 -0.16904625
v 0.1683661875 -0.276350875 -0.16381225
v 0.15780125 -0.2638305 -0.1639904375
v 0.1352720625 -0.2613210625 -0.1687788125
v 0.11120533125 -0.2812228125 -0.1777915
v 0.1232898125 -0.2712531875 -0.1735234375
v 0.1245030625 -0.24904275 -0.167766
v 0.0882932 -0.278819 -0.180797625
v 0.02048572 -0.25092525 -0.179090625
v 0.03270060625 -0.2410060625 -0.175460375
v 0.021873208875 -0.229373625 -0.1722476875
v 0.0340425375 -0.2193669375 -0.16883625
v 0.0232266495 -0.207607625 -0.166149125
v 0.0353409375 -0.1974019375 -0.163407625
v -0.00258174875 -0.2492889375 -0.1790704375
v 0.009665110125 -0.2393298125 -0.1757171875
v -0.014869604375 -0.2592850625 -0.182215
v -0.02562661125 -0.2477789375 -0.1784326875
v -0.013361208625 -0.23778075 -0.175331875
v -0.024096716125 -0.2262933125 -0.171465
v -0.011878412375 -0.2162040625 -0.168662375
v -0.00112400925 -0.227779375 -0.172164375
v 0.011071993875 -0.2177383125 -0.1690470625
v -0.0379170875 -0.2578174375 -0.18135225
v -0.04861606875 -0.2463721875 -0.177256875
v -0.03634503125 -0.23632825 -0.1743935625
v -0.04702565 -0.2248879375 -0.1702566875
v -0.0347979875 -0.2147601875 -0.1677096875
v -0.027194273125 -0.2693655625 -0.1850375625
v -0.03953935 -0.279496 -0.187644
v -0.050247 -0.267928 -0.183998
v -0.0592901875 -0.234981875 -0.17290925
v -0.06091615 -0.256451 -0.1799905
v -0.0715857 -0.245089 -0.1755285
v -0.06994105 -0.223572 -0.1685755
v -0.05769095 -0.213395125 -0.1662453125
v -0.0454907375 -0.203119125 -0.1642888125
v -0.0333358375 -0.1927766875 -0.1625719375
v -0.02261125675 -0.2045346875 -0.1654598125
v -0.010458263 -0.1942424375 -0.163406125
v 0.00030032825 -0.20602675 -0.1660938125
v -0.06833814375 -0.2018045625 -0.162501125
v -0.05617419375 -0.1914050625 -0.161104875
v -0.08054195 -0.212211 -0.1639095
v -0.0911468 -0.200602 -0.1600505
v -0.078970725 -0.190140125 -0.1589315625
v -0.0775403125 -0.1678205625 -0.155216875
v -0.06685625 -0.179640375 -0.1580703125
v -0.0896178 -0.178385 -0.155693
v -0.07618915 -0.1453695 -0.152377
v -0.06549821875 -0.1572648125 -0.154885875
v -0.0882114 -0.155943 -0.152521
v -0.0427195875 -0.1586088125 -0.1567148125
v -0.05477698125 -0.169130625 -0.1573265625
v -0.05347474375 -0.146712625 -0.1546541875
v -0.05224240625 -0.124261 -0.1525504375
v -0.04145386875 -0.1361550625 -0.1543793125
v -0.0642457 -0.134826 -0.1526235
v -0.0510782 -0.10177868125 -0.150757375
v -0.06304555 -0.1123855 -0.150709
v -0.0306815375 -0.1480685 -0.1561084375
v -0.0618861 -0.08995225 -0.1489765
v -0.0499528125 -0.0792783 -0.1490199375
v -0.0608067 -0.067488 -0.1472405
v -0.04892086875 -0.05675416875 -0.147210375
v -0.0479937375 -0.03418871875 -0.145244875
v -0.0598108 -0.0449995 -0.1454325
v -0.0817234 -0.0217949 -0.1409875
v -0.06994856875 -0.01087211875 -0.140883625
v -0.05895006875 -0.02249324375 -0.1431660625
v -0.07071885 -0.0333841 -0.1432905
v -0.0471824 -0.01160351875 -0.1427173125
v -0.036211325 -0.023343875 -0.1447563125
v -0.0691746125 0.0116956 -0.138025125
v -0.0581754 7.603125e-05 -0.140484125
v -0.08095245 0.00071495 -0.138486
v -0.0902703 0.0573461 -0.128526
v -0.07931615 0.04583535 -0.131727
v -0.09114135 0.0347991 -0.132431
v -0.1020955 0.04630985 -0.12923
v 0.0571165625 0.0393767125 -0.1342553125
v 0.0454657125 0.028891383125 -0.1368298125
v 0.0345567 0.040798 -0.135042
v 0.04621765 0.05128685 -0.132459
v 0.07954544375 0.0377997 -0.132973
v 0.0679885625 0.02738182375 -0.135804
v 0.0687137 0.0498058 -0.131518
v 0.1018211625 0.0361857125 -0.1308355
v 0.09042115625 0.025770865625 -0.1340485625
v 0.0909607 0.0481869 -0.129928
v 0.10134475625 0.013703937875 -0.134677125
v 0.08980875625 0.00322215625 -0.1376476875
v 0.078884975 0.015325394375 -0.1369373125
v 0.06726100625 0.0048353925 -0.139513875
v 0.0563535125 0.016900009375 -0.138371
v 0.1007352125 -0.008918612125 -0.137835875
v 0.0781855875 -0.007285818125 -0.14023425
v 0.055579425 -0.005702853125 -0.1417914375
v 0.1236924375 0.0121607114375 -0.131241875
v 0.1122664375 0.001617551 -0.1347275625
v 0.1127703125 0.02416407725 -0.1313423125
v 0.1130648125 0.04662886875 -0.127280625
v 0.1240053125 0.03470023125 -0.1276265
v 0.1231584375 -0.0104699260625 -0.13425525
v 0.1116418 -0.02107096025 -0.137554375
v 0.1225443 -0.03319773125 -0.136999875
v 0.11094143125 -0.04380491875 -0.140132125
v 0.04384980625 -0.016292810625 -0.143810125
v 0.032925874375 -0.0042535275 -0.142702125
v 0.04466490625 0.00635246125 -0.1406705625
v 0.01020707125 -0.0029468325 -0.14305575
v 0.022009905625 0.007711525 -0.1412595625
v -0.012579731875 -0.00176877125 -0.1427853125
v -0.000735444375 0.00892864125 -0.14128575
v -0.0116863125 0.02072296625 -0.139207375
v 0.0001628 0.0313917 -0.1374055
v 0.0110917375 0.01958759875 -0.1394515625
v 0.022875 0.03023695 -0.1373785
v 0.0337681125 0.01833517875 -0.1391575
v -0.02440828125 -0.012529098125 -0.143940875
v -0.03538270625 -0.000752241875 -0.141946875
v -0.023546125 0.01002657375 -0.1407709375
v -0.03451873125 0.021755483125 -0.138503125
v -0.0226451 0.0324674 -0.13697
v -0.0463694125 0.010963075 -0.1397220625
v -0.0573597 0.02261719375 -0.1372453125
v -0.0455043 0.03344405 -0.136077
v -0.080173 0.02329885 -0.1354305
v -0.0683552 0.0342414 -0.1346575
v 0.12179280625 -0.055974975 -0.1394046875
v 0.1100711625 -0.06660700625 -0.142283875
v 0.12091783125 -0.07879421875 -0.14152725
v 0.10916884375 -0.08941951875 -0.1443471875
v 0.1200014 -0.1016161125 -0.1435985
v 0.10821061875 -0.11222773125 -0.1463563125
v 0.14154775 -0.126036125 -0.1415731875
v 0.12981725 -0.13666975 -0.1450593125
v 0.11902566875 -0.124439 -0.1457580625
v 0.13079075 -0.11381890625 -0.1426365
v 0.10720096875 -0.135019875 -0.148568
v 0.1317231875 -0.0909765375 -0.1404793125
v 0.1424743125 -0.10315141875 -0.13918425
v 0.165522125 -0.0815991 -0.1312216875
v 0.15405775 -0.0924138625 -0.135423125
v 0.143360875 -0.08028548125 -0.1370101875
v 0.154903125 -0.06951389375 -0.1331810625
v 0.13259925 -0.0681387125 -0.1383518125
v 0.133410375 -0.0453137125 -0.1361101875
v 0.14419475 -0.057425075 -0.1348099375
v 0.1556600625 -0.046625575 -0.13080875
v 0.1663053125 -0.0586615625 -0.128835125
v 0.164693625 -0.104539675 -0.13355525
v 0.1531855625 -0.1153262375 -0.1377436875
v 0.188228 -0.0367342125 -0.11804075
v 0.1774675 -0.04773873125 -0.1238405
v 0.1669085 -0.03575319375 -0.126219875
v 0.1778419375 -0.02481002375 -0.1209238125
v 0.1448851875 -0.0345882125 -0.13235275
v 0.1562073125 -0.0237787339375 -0.12812525
v 0.1454160625 -0.01179596575 -0.129573
v 0.1565815625 -0.000979978625 -0.1251409375
v 0.1672835 -0.0128938039375 -0.1233041875
v 0.1779805625 -0.00193031125 -0.1176955625
v 0.1883411875 -0.013782714375 -0.1147863125
v 0.1878285625 -0.059743875 -0.120942625
v 0.1768208125 -0.07071784375 -0.1264335
v 0.20751 0.008445175 -0.09964865
v 0.1981861875 -0.00269132625 -0.10758495625
v 0.1880995625 0.009100129375 -0.11108720625
v 0.1975735 0.020208 -0.10346665
v 0.167394625 0.0099108398125 -0.1199888125
v 0.1777081875 0.02087153875 -0.1139315625
v 0.1671063125 0.032630575 -0.1161888125
v 0.1769273125 0.0435668875 -0.109677425
v 0.187571 0.03188495 -0.107244
v 0.2084665 -0.0606226 -0.110895
v 0.1979783125 -0.07173909375 -0.11747925
v 0.1983848125 -0.04866605625 -0.114599875
v 0.19846875 -0.025643498125 -0.11131225
v 0.208564 -0.0375322 -0.1076565
v 0.20788225 -0.08375098125 -0.11349049375
v 0.1973485 -0.09482305625 -0.120168375
v 0.1871943125 -0.0827649375 -0.123564125
v 0.1760575 -0.0936855875 -0.1288860625
v 0.2073615 -0.10694415 -0.116574
v 0.196533 -0.11791876875 -0.1228880625
v 0.1864314375 -0.10578115625 -0.1261213125
v 0.175223875 -0.1166802625 -0.131384375
v 0.2065265 -0.1301025 -0.1195745
v 0.19561975 -0.141055625 -0.1259293125
v 0.1855294375 -0.128853375 -0.128855625
v 0.1742831875 -0.1397518125 -0.1342365625
v 0.1638168125 -0.127534625 -0.1361450625
v 0.217849 -0.07258145 -0.10604995
v 0.227393 -0.0845869 -0.10129745
v 0.2176015 -0.0957775 -0.109039
v 0.2082285 -0.014513525 -0.103869
v 0.1861415 0.0545286 -0.1023609
v 0.1662249375 0.05517889375 -0.1117781125
v 0.1754485 0.0660551 -0.1047354
v 0.1563434375 0.04438755625 -0.117779
v 0.145517875 0.0561458125 -0.118637
v 0.155538 0.06685855 -0.113198
v 0.15666875 0.0217520160625 -0.1217178125
v 0.14583925 0.0335889375 -0.122891375
v 0.1340376875 -0.0225365235625 -0.1334795
v 0.1345706875 0.000190146125 -0.1306020625
v 0.1349221875 0.0228123639375 -0.1273495625
v 0.1457784375 0.01093019675 -0.1264735
v 0.1349584375 0.04539459375 -0.123419125
v 0.1240749375 0.05720253125 -0.12327225
v 0.13475 0.06790605 -0.118847
v 0.1022075 0.0584759 -0.12661
v 0.1132615 0.06899895 -0.1226995
v 0.1743925 0.1098555 -0.0887045
v 0.162682 0.1207395 -0.08903115
v 0.1702735 0.129517 -0.07776505
v 0.181984 0.118633 -0.0774384
v 0.1845805 -0.1519795625 -0.13196175
v 0.205644 -0.153287 -0.122961
v 0.1947045 -0.164232 -0.1293145
v 0.1608305 -0.1965075 -0.1464925625
v 0.172271 -0.185992125 -0.1412521875
v 0.1826265 -0.198546 -0.140307
v 0.161851625 -0.173561625 -0.1423989375
v 0.173311375 -0.1628359375 -0.1374434375
v 0.1836645 -0.175255 -0.1358855
v 0.1628565 -0.1505493125 -0.1390885625
v 0.151262 -0.1612115 -0.1434468125
v 0.140569875 -0.148921 -0.1443071875
v 0.152258875 -0.138284625 -0.1404443125
v 0.150268875 -0.18411025 -0.1469763125
v 0.139577625 -0.1717745625 -0.147447375
v 0.1385779375 -0.194492625 -0.15138825
v 0.1267830625 -0.204738375 -0.1557365625
v 0.11599205625 -0.19257325 -0.155025625
v 0.1278276875 -0.1822344375 -0.1512670625
v 0.1170149375 -0.1699993125 -0.15118575
v 0.128815 -0.1594945625 -0.147853
v 0.10405443125 -0.2027985 -0.1588155
v 0.10514873125 -0.180405625 -0.1544530625
v 0.09428844375 -0.168233125 -0.1539696875
v 0.1061774375 -0.157779875 -0.151133
v 0.118017925 -0.147251125 -0.14820975
v 0.1256318125 -0.2269493125 -0.1615015
v 0.1148631375 -0.214862625 -0.1601226875
v -0.019905374375 -0.16001575 -0.1578040625
v -0.031966525 -0.1705088125 -0.158803
v 0.00293086625 -0.161505625 -0.15821925
v -0.009125968125 -0.171970125 -0.1595503125
v 0.02453085625 -0.1854768125 -0.1614379375
v 0.01243639325 -0.195782 -0.1636979375
v 0.0016552 -0.1839011875 -0.16147475
v 0.013730756875 -0.1735091875 -0.1596844375
v -0.02121439375 -0.1823936875 -0.16101175
v 0.025781438125 -0.163077375 -0.1580316875
v 0.0365960125 -0.17512375 -0.1593116875
v 0.04863354375 -0.1647326875 -0.15732275
v 0.07147563125 -0.1664685 -0.15601175
v -0.04405604375 -0.180970125 -0.15988325
v 0.2319695 -0.283632 -0.138603
v 0.2415405 -0.296281 -0.13556
v 0.019815185 -0.048938025 -0.1481815
v -0.002938115 -0.047624925 -0.1482305
v -0.0020547025 -0.0249543 -0.145876
v 0.0207113975 -0.0262342 -0.145832
v -0.003905675 -0.07030365 -0.150242
v -0.026659825 -0.069107275 -0.14955725
v -0.025696525 -0.046478325 -0.14760275
v 0.018837275 -0.071659475 -0.1501815
v -0.0049559925 -0.092970475 -0.15206375
v -0.02773895 -0.091699025 -0.1513535
v -0.006067565 -0.115614 -0.15385625
v -0.0288699 -0.11428125 -0.153112
v 0.01673471 -0.117074 -0.1538925
v 0.0178163075 -0.0943806 -0.15205
v 0.01556787 -0.1397155 -0.1558405
v -0.00725288 -0.138217 -0.1557665
v 0.038389075 -0.14130625 -0.15528475
v 0.039507275 -0.11861075 -0.15329525
v 0.064325575 -0.074702375 -0.1482365
v 0.041585575 -0.07312365 -0.14952625
v 0.042544375 -0.050371625 -0.14751525
v 0.065254425 -0.051916725 -0.146225
v 0.087916 -0.05356675 -0.14416975
v 0.066105975 -0.029173175 -0.1438885
v 0.088744325 -0.0308075 -0.141859
v 0.086997725 -0.0763771 -0.146183
v 0.086028325 -0.0991874 -0.14809975
v 0.0633159 -0.097491275 -0.1501215
v 0.085007925 -0.12196025 -0.15011775
v 0.0622625 -0.12025525 -0.15206225
v 0.08396465 -0.144706 -0.15234625
v 0.06119125 -0.14298575 -0.15416475
v 0.080585875 -0.21196925 -0.16369825
v 0.057648575 -0.210141 -0.1651365
v 0.058870575 -0.18800325 -0.16029075
v 0.08176525 -0.18979225 -0.158761
v 0.07935375 -0.23384575 -0.1698785
v 0.05637285 -0.23196525 -0.17127825
v 0.0781012 -0.25566 -0.176351
v 0.05507405 -0.25366025 -0.1779385
v 0.10107535 -0.257814 -0.174002
v 0.1022789 -0.23585975 -0.1677055
v 0.169926 -0.242749 -0.15512625
v 0.147641 -0.2402945 -0.16050425
v 0.14869675 -0.2180195 -0.15437375
v 0.17081525 -0.22030975 -0.148917
v 0.19168025 -0.2451525 -0.14823525
v 0.21119775 -0.2927355 -0.15112775
v 0.18972675 -0.290228 -0.1594035
v 0.19093225 -0.26767525 -0.1543675
v 0.21206175 -0.27000525 -0.1458995
v 0.22803 -0.3411545 -0.147004
v 0.20706075 -0.33855075 -0.15662725
v 0.20952 -0.3155995 -0.15476625
v 0.23035175 -0.318136 -0.1449615
v 0.224934 -0.36409375 -0.147443
v 0.221109 -0.38681525 -0.1463855
v 0.20016825 -0.384143 -0.15554025
v 0.178537 -0.3815445 -0.163172
v 0.203921 -0.36144125 -0.156822
v 0.1822355 -0.3588505 -0.1646875
v 0.1564445 -0.3788855 -0.16955375
v 0.1340505 -0.37612075 -0.17489325
v 0.111464875 -0.37321125 -0.1793625
v 0.11511275 -0.35071125 -0.18120325
v 0.13768325 -0.353497 -0.17663625
v 0.16008975 -0.356211 -0.1711965
v 0.16325675 -0.333343 -0.17131875
v 0.185406 -0.3359655 -0.16471375
v 0.1658045 -0.310423 -0.1696765
v 0.18792125 -0.3130305 -0.162972
v 0.14083025 -0.33067075 -0.17676725
v 0.1433595 -0.30778775 -0.17509125
v 0.11824525 -0.32796 -0.181344
v 0.12076325 -0.30514175 -0.17956875
v 0.092433925 -0.34786825 -0.18505075
v 0.095554625 -0.32523525 -0.18513125
v 0.06962835 -0.34503725 -0.18809
v 0.072771175 -0.322552 -0.18816025
v 0.049916625 -0.31998625 -0.1904945
v 0.0269557 -0.317701 -0.19200875
v 0.0058976825 -0.29365825 -0.1903775
v 0.02909015 -0.29551425 -0.189646
v -0.0172803675 -0.2920375 -0.1904
v 0.0074670075 -0.27172825 -0.1855335
v 0.03060705 -0.27351475 -0.1850645
v 0.052180525 -0.2976295 -0.18825375
v 0.0537269 -0.2755 -0.183913
v 0.075157975 -0.29999375 -0.1861135
v 0.0980374 -0.30252275 -0.1832315
v 0.1452315 -0.28504 -0.171602
v 0.16766375 -0.287646 -0.166173
v 0.168954 -0.2651185 -0.161125
v 0.14657 -0.2625615 -0.16653175
v 0.122588 -0.282475 -0.17595325
v 0.12391925 -0.26011875 -0.1707615
v 0.099769325 -0.28000325 -0.17939775
v 0.076790175 -0.27767275 -0.18201675
v 0.0320214 -0.2517995 -0.1788675
v 0.033375625 -0.23021075 -0.172061
v 0.034697425 -0.208428 -0.165953
v 0.00895068 -0.2500895 -0.179159
v -0.014109595 -0.24852025 -0.17882275
v -0.0126150895 -0.22702475 -0.17188475
v 0.0103727105 -0.22856275 -0.17228375
v -0.03712655 -0.2470605 -0.177917
v -0.035565075 -0.2255795 -0.17092525
v -0.0156505925 -0.270117 -0.18536625
v -0.0387241 -0.26864025 -0.184556
v -0.060101825 -0.24572125 -0.1764335
v -0.058483925 -0.22422325 -0.1694505
v -0.034055075 -0.20381625 -0.1649445
v -0.011158352 -0.2052705 -0.16584575
v -0.056919175 -0.20244725 -0.16348175
v -0.0797454 -0.201195 -0.16132475
v -0.0782398 -0.1790075 -0.1569215
v -0.07685995 -0.15660275 -0.15374
v -0.054115925 -0.1579315 -0.1558855
v -0.05284975 -0.13549 -0.15355025
v -0.051654175 -0.113023 -0.1516315
v -0.030058125 -0.13682225 -0.155013
v -0.050507625 -0.090530725 -0.149892
v -0.049424125 -0.068020575 -0.14812575
v -0.04844235 -0.0454757 -0.14627475
v -0.070333375 -0.0221332 -0.1421185
v -0.0475802 -0.022896775 -0.14404675
v -0.0695651 0.000409325 -0.139523
v -0.090705825 0.0460726 -0.1304785
v 0.045845725 0.0401 -0.13468075
v 0.068351025 0.03860285 -0.1337015
v 0.09069615 0.03698855 -0.1320235
v 0.090125275 0.0145145125 -0.13593275
v 0.067626525 0.016124645 -0.1377445
v 0.08947185 -0.0081035375 -0.139165
v 0.0668881 -0.006481855 -0.141103
v 0.11254075 0.012905609 -0.13311675
v 0.1129385 0.0354075 -0.1293915
v 0.111964 -0.009714641 -0.1361875
v 0.1113082 -0.0324314 -0.138886
v 0.043431725 -0.027640525 -0.14517075
v 0.0442596 -0.0049600175 -0.14231975
v 0.0215754975 -0.0035835625 -0.14295275
v -0.0011808025 -0.0023400475 -0.14299525
v -0.000287075 0.0201676025 -0.13939175
v 0.022442825 0.0189807125 -0.1393685
v -0.024831 -0.023834625 -0.1452905
v -0.023981325 -0.0012385675 -0.14244
v -0.023098675 0.0212559325 -0.13891675
v -0.04594105 0.0222106 -0.13794975
v 0.045069525 0.0176392325 -0.1388335
v -0.046781 -0.0003126 -0.1412935
v -0.06876875 0.022971175 -0.1363785
v 0.110519725 -0.055200475 -0.1412425
v 0.109623825 -0.07801345 -0.143323
v 0.10869735 -0.100824925 -0.14534375
v 0.13030875 -0.125245 -0.14380775
v 0.107709925 -0.123626 -0.1474285
v 0.13126325 -0.102396625 -0.14153925
v 0.154486 -0.0809632 -0.13430675
v 0.1321675 -0.079557025 -0.13942
v 0.1330215 -0.056722225 -0.13726525
v 0.1553015 -0.058066375 -0.1320245
v 0.153626 -0.10386545 -0.13655175
v 0.17768625 -0.03626775 -0.122421
v 0.15595775 -0.035196425 -0.1295055
v 0.1564215 -0.01237231075 -0.1266785
v 0.1779505 -0.013362445 -0.11936325
v 0.17716975 -0.059226075 -0.125168
v 0.1979035 0.0087619575 -0.105553825
v 0.17790075 0.00948108 -0.115877
v 0.1774 0.032240875 -0.11188325
v 0.1982155 -0.060198925 -0.1160785
v 0.19847075 -0.0371467 -0.113011
v 0.19768875 -0.08328035 -0.1188345
v 0.1764485 -0.0822021 -0.127667
v 0.19695925 -0.106367575 -0.121505
v 0.1756525 -0.10517505 -0.13010825
v 0.19608175 -0.1294815 -0.12436125
v 0.174762 -0.128211 -0.13276525
v 0.21772525 -0.084179475 -0.107544475
v 0.19837425 -0.0141590925 -0.109504
v 0.17624125 0.054827375 -0.10725945
v 0.1559765 0.0556359 -0.115537
v 0.15656725 0.033087825 -0.119827
v 0.13431875 -0.01116276925 -0.1320745
v 0.134779 0.01151043075 -0.12904275
v 0.15666875 0.01039543925 -0.12348825
v 0.133742 -0.033919325 -0.1348365
v 0.13497875 0.034110225 -0.1254755
v 0.134871 0.05665605 -0.121179
v 0.11316875 0.057821175 -0.125026
v 0.172333 0.11968625 -0.083234775
v 0.19516125 -0.152641 -0.127597
v 0.17176325 -0.197526 -0.143494
v 0.17279375 -0.1744165 -0.13925075
v 0.17380375 -0.15128725 -0.135784
v 0.15176425 -0.149751 -0.14190025
v 0.15273125 -0.1268045 -0.13905
v 0.15076675 -0.172674 -0.145113
v 0.14975875 -0.195492 -0.14911425
v 0.127318 -0.1935225 -0.15334375
v 0.12832275 -0.17088425 -0.1494565
v 0.104613225 -0.1916365 -0.15647875
v 0.105667 -0.169116 -0.1526805
v 0.12931625 -0.148088 -0.1463975
v 0.12621225 -0.215872 -0.1584955
v 0.1034663 -0.2138815 -0.16152125
v 0.125068 -0.23799625 -0.1646355
v -0.031315725 -0.15930275 -0.15734975
v -0.0084895725 -0.16075025 -0.1580915
v 0.013092 -0.1846795 -0.16152325
v -0.0097815 -0.18313825 -0.16131475
v 0.0143551275 -0.16228125 -0.1581945
v 0.011761473 -0.2068065 -0.1661955
v 0.035973725 -0.18629675 -0.1611965
v 0.06005665 -0.1655935 -0.15675175
v 0.082888775 -0.1673495 -0.15508225
v 0.037208025 -0.16389425 -0.15774525
v -0.032639775 -0.1816705 -0.16053425
v -0.0554616 -0.180294 -0.15905975
v 0.2316455 -0.29512575 -0.14107475
v 0.10668945 -0.1464095 -0.1497825
v 0.0405716 -0.095872625 -0.15142375
f 148 268 756 271
f 260 269 756 268
f 3 270 756 269
f 1 271 756 270
f 3 272 757 270
f 2 273 757 272
f 235 274 757 273
f 1 270 757 274
f 235 275 758 274
f 107 276 758 275
f 106 277 758 276
f 1 274 758 277
f 106 278 759 277
f 104 279 759 278
f 148 271 759 279
f 1 277 759 271
f 3 280 760 272
f 147 281 760 280
f 4 282 760 281
f 2 272 760 282
f 4 283 761 282
f 85 284 761 283
f 267 285 761 284
f 2 282 761 285
f 267 286 762 285
f 117 287 762 286
f 235 273 762 287
f 2 285 762 273
f 260 288 763 269
f 261 289 763 288
f 147 280 763 289
f 3 269 763 280
f 147 290 764 281
f 6 291 764 290
f 5 292 764 291
f 4 281 764 292
f 5 293 765 292
f 86 294 765 293
f 85 283 765 294
f 4 292 765 283
f 6 295 766 291
f 7 296 766 295
f 266 297 766 296
f 5 291 766 297
f 266 298 767 297
f 84 299 767 298
f 86 293 767 299
f 5 297 767 293
f 262 300 768 302
f 8 301 768 300
f 7 295 768 301
f 6 302 768 295
f 147 289 769 290
f 261 303 769 289
f 262 302 769 303
f 6 290 769 302
f 8 304 770 301
f 265 305 770 304
f 209 306 770 305
f 7 301 770 306
f 209 307 771 306
f 203 308 771 307
f 266 296 771 308
f 7 306 771 296
f 258 309 772 311
f 210 310 772 309
f 265 304 772 310
f 8 311 772 304
f 262 312 773 300
f 264 313 773 312
f 258 311 773 313
f 8 300 773 311
f 11 314 774 317
f 12 315 774 314
f 263 316 774 315
f 9 317 774 316
f 263 318 775 316
f 261 288 775 318
f 260 319 775 288
f 9 316 775 319
f 260 268 776 319
f 148 320 776 268
f 259 321 776 320
f 9 319 776 321
f 259 322 777 321
f 10 323 777 322
f 11 317 777 323
f 9 321 777 317
f 121 324 778 326
f 122 325 778 324
f 11 323 778 325
f 10 326 778 323
f 259 327 779 322
f 103 328 779 327
f 102 329 779 328
f 10 322 779 329
f 102 330 780 329
f 101 331 780 330
f 121 326 780 331
f 10 329 780 326
f 122 332 781 325
f 123 333 781 332
f 12 314 781 333
f 11 325 781 314
f 123 334 782 333
f 255 335 782 334
f 13 336 782 335
f 12 333 782 336
f 13 337 783 336
f 264 338 783 337
f 263 315 783 338
f 12 336 783 315
f 255 339 784 335
f 256 340 784 339
f 14 341 784 340
f 13 335 784 341
f 14 342 785 341
f 258 313 785 342
f 264 337 785 313
f 13 341 785 337
f 256 343 786 340
f 252 344 786 343
f 257 345 786 344
f 14 340 786 345
f 257 346 787 345
f 210 309 787 346
f 258 342 787 309
f 14 345 787 342
f 250 347 788 350
f 172 348 788 347
f 16 349 788 348
f 15 350 788 349
f 16 351 789 349
f 68 352 789 351
f 206 353 789 352
f 15 349 789 353
f 206 354 790 353
f 208 355 790 354
f 207 356 790 355
f 15 353 790 356
f 207 357 791 356
f 251 358 791 357
f 250 350 791 358
f 15 356 791 350
f 172 359 792 348
f 18 360 792 359
f 17 361 792 360
f 16 348 792 361
f 17 362 793 361
f 67 363 793 362
f 68 351 793 363
f 16 361 793 351
f 18 364 794 360
f 64 365 794 364
f 249 366 794 365
f 17 360 794 366
f 249 367 795 366
f 66 368 795 367
f 67 362 795 368
f 17 366 795 362
f 248 369 796 371
f 247 370 796 369
f 64 364 796 370
f 18 371 796 364
f 172 372 797 359
f 171 373 797 372
f 248 371 797 373
f 18 359 797 371
f 20 374 798 377
f 58 375 798 374
f 246 376 798 375
f 19 377 798 376
f 246 378 799 376
f 174 379 799 378
f 173 380 799 379
f 19 376 799 380
f 173 381 800 380
f 177 382 800 381
f 175 383 800 382
f 19 380 800 383
f 175 384 801 383
f 245 385 801 384
f 20 377 801 385
f 19 383 801 377
f 21 386 802 388
f 244 387 802 386
f 58 374 802 387
f 20 388 802 374
f 238 389 803 392
f 239 390 803 389
f 242 391 803 390
f 22 392 803 391
f 242 393 804 391
f 230 394 804 393
f 57 395 804 394
f 22 391 804 395
f 57 396 805 395
f 58 387 805 396
f 244 397 805 387
f 22 395 805 397
f 244 398 806 397
f 243 399 806 398
f 238 392 806 399
f 22 397 806 392
f 241 400 807 403
f 24 401 807 400
f 29 402 807 401
f 23 403 807 402
f 29 404 808 402
f 234 405 808 404
f 231 406 808 405
f 23 402 808 406
f 231 407 809 406
f 242 390 809 407
f 239 408 809 390
f 23 406 809 408
f 239 409 810 408
f 236 410 810 409
f 241 403 810 410
f 23 408 810 403
f 240 411 811 413
f 28 412 811 411
f 29 401 811 412
f 24 413 811 401
f 26 414 812 416
f 28 411 812 414
f 240 415 812 411
f 25 416 812 415
f 27 417 813 419
f 30 418 813 417
f 28 414 813 418
f 26 419 813 414
f 31 420 814 422
f 233 421 814 420
f 30 417 814 421
f 27 422 814 417
f 30 423 815 418
f 234 404 815 423
f 29 412 815 404
f 28 418 815 412
f 233 424 816 421
f 35 425 816 424
f 234 423 816 425
f 30 421 816 423
f 32 426 817 428
f 34 427 817 426
f 233 420 817 427
f 31 428 817 420
f 43 429 818 431
f 33 430 818 429
f 34 426 818 430
f 32 431 818 426
f 43 432 819 429
f 42 433 819 432
f 41 434 819 433
f 33 429 819 434
f 41 435 820 434
f 40 436 820 435
f 39 437 820 436
f 33 434 820 437
f 39 438 821 437
f 232 439 821 438
f 34 430 821 439
f 33 437 821 430
f 232 440 822 439
f 35 424 822 440
f 233 427 822 424
f 34 439 822 427
f 232 441 823 440
f 37 442 823 441
f 36 443 823 442
f 35 440 823 443
f 36 444 824 443
f 231 405 824 444
f 234 425 824 405
f 35 443 824 425
f 37 445 825 442
f 56 446 825 445
f 230 447 825 446
f 36 442 825 447
f 230 393 826 447
f 242 407 826 393
f 231 444 826 407
f 36 447 826 444
f 232 438 827 441
f 39 448 827 438
f 38 449 827 448
f 37 441 827 449
f 38 450 828 449
f 65 451 828 450
f 56 445 828 451
f 37 449 828 445
f 39 436 829 448
f 40 452 829 436
f 55 453 829 452
f 38 448 829 453
f 55 454 830 453
f 61 455 830 454
f 65 450 830 455
f 38 453 830 450
f 41 456 831 435
f 45 457 831 456
f 46 458 831 457
f 40 435 831 458
f 46 459 832 458
f 228 460 832 459
f 55 452 832 460
f 40 458 832 452
f 229 461 833 463
f 47 462 833 461
f 46 457 833 462
f 45 463 833 457
f 47 464 834 462
f 54 465 834 464
f 228 459 834 465
f 46 462 834 459
f 227 466 835 468
f 53 467 835 466
f 54 464 835 467
f 47 468 835 464
f 49 469 836 471
f 53 466 836 469
f 227 470 836 466
f 48 471 836 470
f 50 472 837 475
f 226 473 837 472
f 51 474 837 473
f 49 475 837 474
f 51 476 838 474
f 52 477 838 476
f 53 469 838 477
f 49 474 838 469
f 73 478 839 480
f 72 479 839 478
f 226 472 839 479
f 50 480 839 472
f 226 481 840 473
f 222 482 840 481
f 225 483 840 482
f 51 473 840 483
f 225 484 841 483
f 66 485 841 484
f 52 476 841 485
f 51 483 841 476
f 63 486 842 487
f 54 467 842 486
f 53 477 842 467
f 52 487 842 477
f 66 367 843 485
f 249 488 843 367
f 63 487 843 488
f 52 485 843 487
f 63 489 844 486
f 62 490 844 489
f 228 465 844 490
f 54 486 844 465
f 228 490 845 460
f 62 491 845 490
f 61 454 845 491
f 55 460 845 454
f 65 492 846 451
f 60 493 846 492
f 59 494 846 493
f 56 451 846 494
f 59 495 847 494
f 57 394 847 495
f 230 446 847 394
f 56 494 847 446
f 59 496 848 495
f 246 375 848 496
f 58 396 848 375
f 57 495 848 396
f 60 497 849 493
f 174 378 849 497
f 246 496 849 378
f 59 493 849 496
f 65 455 850 492
f 61 498 850 455
f 247 499 850 498
f 60 492 850 499
f 247 369 851 499
f 248 500 851 369
f 174 497 851 500
f 60 499 851 497
f 62 501 852 491
f 64 370 852 501
f 247 498 852 370
f 61 491 852 498
f 63 488 853 489
f 249 365 853 488
f 64 501 853 365
f 62 489 853 501
f 225 502 854 484
f 224 503 854 502
f 67 368 854 503
f 66 484 854 368
f 224 504 855 503
f 223 505 855 504
f 68 363 855 505
f 67 503 855 363
f 223 506 856 505
f 205 507 856 506
f 206 352 856 507
f 68 505 856 352
f 224 502 857 509
f 225 482 857 502
f 222 508 857 482
f 69 509 857 508
f 222 510 858 508
f 71 511 858 510
f 70 512 858 511
f 69 508 858 512
f 70 513 859 512
f 77 514 859 513
f 220 515 859 514
f 69 512 859 515
f 220 516 860 515
f 223 504 860 516
f 224 509 860 504
f 69 515 860 509
f 71 517 861 511
f 221 518 861 517
f 76 519 861 518
f 70 511 861 519
f 76 520 862 519
f 78 521 862 520
f 77 513 862 521
f 70 519 862 513
f 222 481 863 510
f 226 479 863 481
f 72 522 863 479
f 71 510 863 522
f 72 523 864 522
f 74 524 864 523
f 221 517 864 524
f 71 522 864 517
f 79 525 865 527
f 76 518 865 525
f 221 526 865 518
f 75 527 865 526
f 79 528 866 525
f 217 529 866 528
f 78 520 866 529
f 76 525 866 520
f 78 530 867 521
f 218 531 867 530
f 219 532 867 531
f 77 521 867 532
f 219 533 868 532
f 211 534 868 533
f 220 514 868 534
f 77 532 868 514
f 217 535 869 529
f 216 536 869 535
f 218 530 869 536
f 78 529 869 530
f 216 535 870 539
f 217 537 870 535
f 44 538 870 537
f 80 539 870 538
f 81 540 871 542
f 215 541 871 540
f 216 539 871 541
f 80 542 871 539
f 89 543 872 545
f 82 544 872 543
f 215 540 872 544
f 81 545 872 540
f 202 546 873 548
f 214 547 873 546
f 215 544 873 547
f 82 548 873 544
f 83 549 874 551
f 84 550 874 549
f 202 548 874 550
f 82 551 874 548
f 201 552 875 553
f 86 299 875 552
f 84 549 875 299
f 83 553 875 549
f 266 308 876 298
f 203 554 876 308
f 202 550 876 554
f 84 298 876 550
f 86 552 877 294
f 201 555 877 552
f 200 556 877 555
f 85 294 877 556
f 200 557 878 556
f 87 558 878 557
f 267 284 878 558
f 85 556 878 284
f 88 559 879 560
f 117 286 879 559
f 267 558 879 286
f 87 560 879 558
f 90 561 880 564
f 91 562 880 561
f 116 563 880 562
f 88 564 880 563
f 116 565 881 563
f 118 566 881 565
f 117 559 881 566
f 88 563 881 559
f 115 567 882 569
f 114 568 882 567
f 116 562 882 568
f 91 569 882 562
f 93 570 883 573
f 199 571 883 570
f 198 572 883 571
f 92 573 883 572
f 95 574 884 577
f 196 575 884 574
f 111 576 884 575
f 94 577 884 576
f 96 578 885 580
f 97 579 885 578
f 196 574 885 579
f 95 580 885 574
f 195 581 886 583
f 99 582 886 581
f 97 578 886 582
f 96 583 886 578
f 99 584 887 582
f 100 585 887 584
f 98 586 887 585
f 97 582 887 586
f 98 587 888 586
f 120 588 888 587
f 196 579 888 588
f 97 586 888 579
f 100 589 889 585
f 101 330 889 589
f 102 590 889 330
f 98 585 889 590
f 102 328 890 590
f 103 591 890 328
f 120 587 890 591
f 98 590 890 587
f 145 592 891 594
f 142 593 891 592
f 100 584 891 593
f 99 594 891 584
f 195 595 892 581
f 194 596 892 595
f 145 594 892 596
f 99 581 892 594
f 142 597 893 593
f 141 598 893 597
f 101 589 893 598
f 100 593 893 589
f 141 599 894 598
f 193 600 894 599
f 121 331 894 600
f 101 598 894 331
f 259 320 895 327
f 148 279 895 320
f 104 601 895 279
f 103 327 895 601
f 104 602 896 601
f 119 603 896 602
f 120 591 896 603
f 103 601 896 591
f 106 604 897 278
f 105 605 897 604
f 119 602 897 605
f 104 278 897 602
f 106 276 898 604
f 107 606 898 276
f 110 607 898 606
f 105 604 898 607
f 110 608 899 607
f 108 609 899 608
f 112 610 899 609
f 105 607 899 610
f 112 611 900 610
f 111 612 900 611
f 119 605 900 612
f 105 610 900 605
f 235 287 901 275
f 117 566 901 287
f 118 613 901 566
f 107 275 901 613
f 118 614 902 613
f 113 615 902 614
f 110 606 902 615
f 107 613 902 606
f 110 615 903 608
f 113 616 903 615
f 109 617 903 616
f 108 608 903 617
f 113 618 904 616
f 114 619 904 618
f 197 620 904 619
f 109 616 904 620
f 196 588 905 575
f 120 603 905 588
f 119 612 905 603
f 111 575 905 612
f 118 565 906 614
f 116 568 906 565
f 114 618 906 568
f 113 614 906 618
f 115 621 907 567
f 198 622 907 621
f 197 619 907 622
f 114 567 907 619
f 193 623 908 600
f 191 624 908 623
f 122 324 908 624
f 121 600 908 324
f 191 625 909 624
f 192 626 909 625
f 123 332 909 626
f 122 624 909 332
f 192 627 910 626
f 124 628 910 627
f 255 334 910 628
f 123 626 910 334
f 190 629 911 632
f 169 630 911 629
f 254 631 911 630
f 124 632 911 631
f 254 633 912 631
f 256 339 912 633
f 255 628 912 339
f 124 631 912 628
f 192 634 913 627
f 126 635 913 634
f 190 632 913 635
f 124 627 913 632
f 189 636 914 639
f 179 637 914 636
f 126 638 914 637
f 125 639 914 638
f 126 634 915 638
f 192 625 915 634
f 191 640 915 625
f 125 638 915 640
f 191 623 916 640
f 193 641 916 623
f 144 642 916 641
f 125 640 916 642
f 144 643 917 642
f 128 644 917 643
f 189 639 917 644
f 125 642 917 639
f 179 645 918 637
f 180 646 918 645
f 190 635 918 646
f 126 637 918 635
f 184 647 919 650
f 130 648 919 647
f 128 649 919 648
f 127 650 919 649
f 128 643 920 649
f 144 651 920 643
f 143 652 920 651
f 127 649 920 652
f 143 653 921 652
f 140 654 921 653
f 188 655 921 654
f 127 652 921 655
f 188 656 922 655
f 186 657 922 656
f 184 650 922 657
f 127 655 922 650
f 130 658 923 648
f 131 659 923 658
f 189 644 923 659
f 128 648 923 644
f 159 660 924 663
f 137 661 924 660
f 186 662 924 661
f 129 663 924 662
f 186 656 925 662
f 188 664 925 656
f 187 665 925 664
f 129 662 925 665
f 187 666 926 665
f 139 667 926 666
f 157 668 926 667
f 129 665 926 668
f 160 669 927 671
f 185 670 927 669
f 131 658 927 670
f 130 671 927 658
f 184 672 928 647
f 136 673 928 672
f 160 671 928 673
f 130 647 928 671
f 185 674 929 670
f 162 675 929 674
f 132 676 929 675
f 131 670 929 676
f 132 677 930 676
f 179 636 930 677
f 189 659 930 636
f 131 676 930 659
f 162 678 931 675
f 161 679 931 678
f 133 680 931 679
f 132 675 931 680
f 133 681 932 680
f 180 645 932 681
f 179 677 932 645
f 132 680 932 677
f 161 682 933 679
f 182 683 933 682
f 183 684 933 683
f 133 679 933 684
f 183 685 934 684
f 165 686 934 685
f 180 681 934 686
f 133 684 934 681
f 162 674 935 689
f 185 687 935 674
f 135 688 935 687
f 134 689 935 688
f 184 657 936 672
f 186 661 936 657
f 137 690 936 661
f 136 672 936 690
f 158 691 937 693
f 157 667 937 691
f 139 692 937 667
f 138 693 937 692
f 139 694 938 692
f 155 695 938 694
f 156 696 938 695
f 138 692 938 696
f 187 697 939 666
f 154 698 939 697
f 155 694 939 698
f 139 666 939 694
f 143 699 940 653
f 141 597 940 699
f 142 700 940 597
f 140 653 940 700
f 142 592 941 700
f 145 701 941 592
f 154 702 941 701
f 140 700 941 702
f 154 697 942 702
f 187 664 942 697
f 188 654 942 664
f 140 702 942 654
f 143 651 943 699
f 144 641 943 651
f 193 599 943 641
f 141 699 943 599
f 194 703 944 596
f 155 698 944 703
f 154 701 944 698
f 145 596 944 701
f 156 695 945 705
f 155 703 945 695
f 194 704 945 703
f 146 705 945 704
f 194 595 946 704
f 195 706 946 595
f 153 707 946 706
f 146 704 946 707
f 150 708 947 711
f 152 709 947 708
f 151 710 947 709
f 149 711 947 710
f 181 712 948 714
f 183 683 948 712
f 182 713 948 683
f 163 714 948 713
f 245 384 949 717
f 175 715 949 384
f 176 716 949 715
f 164 717 949 716
f 176 718 950 716
f 166 719 950 718
f 181 720 950 719
f 164 716 950 720
f 183 712 951 685
f 181 719 951 712
f 166 721 951 719
f 165 685 951 721
f 166 722 952 721
f 178 723 952 722
f 169 724 952 723
f 165 721 952 724
f 169 629 953 724
f 190 646 953 629
f 180 686 953 646
f 165 724 953 686
f 176 725 954 718
f 167 726 954 725
f 178 722 954 726
f 166 718 954 722
f 176 715 955 725
f 175 382 955 715
f 177 727 955 382
f 167 725 955 727
f 177 728 956 727
f 170 729 956 728
f 168 730 956 729
f 167 727 956 730
f 168 731 957 730
f 253 732 957 731
f 178 726 957 732
f 167 730 957 726
f 170 733 958 729
f 250 358 958 733
f 251 734 958 358
f 168 729 958 734
f 251 735 959 734
f 252 736 959 735
f 253 731 959 736
f 168 734 959 731
f 178 732 960 723
f 253 737 960 732
f 254 630 960 737
f 169 723 960 630
f 177 381 961 728
f 173 738 961 381
f 171 739 961 738
f 170 728 961 739
f 171 372 962 739
f 172 347 962 372
f 250 733 962 347
f 170 739 962 733
f 173 379 963 738
f 174 500 963 379
f 248 373 963 500
f 171 738 963 373
f 203 740 964 554
f 213 741 964 740
f 214 546 964 741
f 202 554 964 546
f 209 742 965 307
f 204 743 965 742
f 213 740 965 743
f 203 307 965 740
f 212 744 966 747
f 205 745 966 744
f 211 746 966 745
f 204 747 966 746
f 211 533 967 746
f 219 748 967 533
f 213 743 967 748
f 204 746 967 743
f 209 305 968 742
f 265 749 968 305
f 212 747 968 749
f 204 742 968 747
f 223 516 969 506
f 220 534 969 516
f 211 745 969 534
f 205 506 969 745
f 212 750 970 744
f 208 354 970 750
f 206 507 970 354
f 205 744 970 507
f 208 751 971 355
f 210 346 971 751
f 257 752 971 346
f 207 355 971 752
f 257 344 972 752
f 252 735 972 344
f 251 357 972 735
f 207 752 972 357
f 212 749 973 750
f 265 310 973 749
f 210 751 973 310
f 208 750 973 751
f 219 531 974 748
f 218 753 974 531
f 214 741 974 753
f 213 748 974 741
f 218 536 975 753
f 216 541 975 536
f 215 547 975 541
f 214 753 975 547
f 239 389 976 409
f 238 754 976 389
f 237 755 976 754
f 236 409 976 755
f 256 633 977 343
f 254 737 977 633
f 253 736 977 737
f 252 343 977 736
f 263 338 978 318
f 264 312 978 338
f 262 303 978 312
f 261 318 978 303
