v -0.0235891425 -0.24525225 0.0654444625
v -0.0235594425 -0.2579225 0.0715312875
v 0.0116036825 -0.2432475 0.0643200375
v -0.00716753 -0.243213875 0.0643418
v -0.00707170625 -0.2771395 0.0804029875
v 0.051758725 -0.230878875 0.0548186375
v -0.00461671375 -0.29202 0.087502075
v 0.319901388889 -0.3045135 0.0544616111111
v -0.00950763125 -0.262300625 0.0732610375
v 0.0115891564062 -0.260239671875 0.072187859375
v 0.0682007375 -0.227408125 0.0550868875
v 0.0116539445313 -0.277147765625 0.0802928703125
v 0.0303440734375 -0.260106109375 0.0725025
v 0.067930059375 -0.243078078125 0.0649795875
v 0.01177815625 -0.2941185 0.0883104375
v 0.0490811484375 -0.259862 0.0730428984375
v 0.0468332625 -0.24138375 0.063310525
v 0.0303730875 -0.243195625 0.0644912375
v 0.0870154625 -0.226199375 0.056818
v 0.086705771875 -0.242894890625 0.0655567375
v 0.103764925 -0.224122625 0.0561261625
v 0.0303782890625 -0.276876734375 0.0808112359375
v 0.030466875 -0.293661875 0.0890629375
v 0.0677941546875 -0.259475015625 0.0738927359375
v 0.1054788 -0.243108875 0.065967040625
v 0.049064290625 -0.2763349375 0.0818695328125
v 0.12505053125 -0.227102140625 0.057706225
v 0.12638175 -0.210568125 0.0490997125
v 0.0676797390625 -0.275451390625 0.083549634375
v 0.0490872875 -0.292731625 0.09075915
v 0.0864803890625 -0.25915240625 0.0748728796875
v 0.124282953125 -0.243590015625 0.066273375
v 0.146576125 -0.226668125 0.0564049375
v 0.109860375 -0.212478875 0.0476339
v 0.06756145 -0.291296375 0.0933284875
v 0.105144484375 -0.258919171875 0.0758946734375
v 0.0862042953125 -0.274353078125 0.085628821875
v 0.142782125 -0.213472125 0.0516754
v 0.32386075 -0.322604625 0.0580787375
v 0.143228515625 -0.24462821875 0.06623963125
v 0.163265625 -0.23087825 0.0553726625
v 0.088042725 -0.303445125 0.1047569375
v 0.08356855 -0.291666625 0.0973111
v 0.123820875 -0.25881290625 0.0769705828125
v 0.10386175 -0.303469 0.109286375
v 0.1046681125 -0.27327078125 0.0877432
v 0.162239953125 -0.245941625 0.06579005
v 0.12189125 -0.301113375 0.11315075
v 0.10410134375 -0.287614515625 0.0995767046875
v 0.1424705625 -0.2587161875 0.078161040625
v 0.141317828125 -0.270693234375 0.092493446875
v 0.18276425 -0.234078625 0.0519615125
v 0.139945875 -0.29905825 0.11648025
v 0.12305078125 -0.27206028125 0.090035434375
v 0.12222040625 -0.285586890625 0.102876171875
v 0.155716625 -0.295682 0.11774375
v 0.15956975 -0.26963509375 0.0947122484375
v 0.14030628125 -0.283634328125 0.106015415625
v 0.16109025 -0.258803609375 0.079201328125
v 0.1811804375 -0.247273890625 0.065334259375
v 0.276225611111 -0.267471805556 0.096575
v 0.200189375 -0.2491240625 0.06450705625
v 0.20264075 -0.237930625 0.04752025
v 0.160356125 -0.283317875 0.111172125
v 0.17751375 -0.26870015625 0.0971353421875
v 0.179414578125 -0.258577359375 0.0807009515625
v 0.224229625 -0.241199875 0.039179975
v 0.17596 -0.280427 0.11233325
v 0.193753875 -0.279644125 0.114877875
v 0.195132765625 -0.26800090625 0.09976739375
v 0.218955515625 -0.250889765625 0.0645503078125
v 0.236904984375 -0.25314840625 0.0667004
v 0.296777 -0.430353875 -0.0243867175
v 0.212626109375 -0.26753765625 0.102420282813
v 0.1974716875 -0.258604390625 0.0823363984375
v 0.232479765625 -0.259146046875 0.0870628203125
v 0.21516421875 -0.25868009375 0.0844897421875
v 0.254008328125 -0.255687375 0.0710571875
v 0.244225984375 -0.24892365625 0.0455217046875
v 0.211440375 -0.2795405 0.117135875
v 0.22997846875 -0.26762175 0.10496413125
v 0.244225125 -0.279940125 0.118819125
v 0.228932375 -0.280446125 0.119045625
v 0.2490434375 -0.2604566875 0.090104490625
v 0.2486515 -0.270172875 0.109817875
v 0.2623916875 -0.254759625 0.053668778125
v 0.2413885 -0.240743375 0.02020846125
v 0.2895915 -0.4306995 -0.041337775
v 0.26996503125 -0.259912734375 0.077445178125
v 0.262974625 -0.27108775 0.109156875
v 0.264337578125 -0.263211828125 0.0936649234375
v 0.260346375 -0.251343875 0.0286158375
v 0.280771125 -0.431147375 -0.05771335
v 0.282850875 -0.262027625 0.0636308125
v 0.28427140625 -0.267294515625 0.0872201828125
v 0.254517875 -0.245527875 0.007533055
v 0.271642125 -0.4290565 -0.07129375
v 0.27859125 -0.274789125 0.1070755625
v 0.273262 -0.2574885 0.039625475
v 0.29430825 -0.269401875 0.0756874375
v 0.26477225 -0.253117625 0.01532052375
v 0.302789375 -0.430106375 -0.00702723
v 0.28633525 -0.26369775 0.05100245
v 0.29303275 -0.278205875 0.099394175
v 0.302386 -0.279786125 0.0879028125
v 0.294437140625 -0.41182959375 -0.0235350573438
v 0.30544325 -0.277596625 0.0639614625
v 0.306267 -0.42763575 0.0082785325
v 0.31091075 -0.285461375 0.075074525
v 0.271504 -0.37755475 -0.0711684625
v 0.26910725 -0.4127675 -0.0725247
v 0.304550125 -0.410481 0.0250592625
v 0.31050925 -0.285807375 0.0511235625
v 0.31520675 -0.300678 0.0395330375
v 0.32136325 -0.307989625 0.072615275
v 0.317579125 -0.294943375 0.0688410375
v 0.28743225 -0.412252765625 -0.0403841171875
v 0.269516375 -0.394002625 -0.0727399
v 0.29994784375 -0.41150671875 -0.0065818596875
v 0.317624875 -0.317244125 0.0317572625
v 0.30357225 -0.318208875 -0.0036016025
v 0.311344 -0.317921625 0.0143233975
v 0.2969205 -0.321100625 -0.0192189025
v 0.3232165 -0.342432625 0.0540174
v 0.31323315625 -0.337387953125 0.0137816360938
v 0.319728984375 -0.33896378125 0.03352349375
v 0.29752325 -0.3373545 -0.02250125
v 0.305511640625 -0.337158171875 -0.0046485771875
v 0.319201625 -0.361653125 0.051436325
v 0.31790290625 -0.357500046875 0.03280041875
v 0.305761546875 -0.355826625 -0.0052576053125
v 0.312828484375 -0.35606715625 0.0134779689062
v 0.297112375 -0.353707 -0.0253920375
v 0.31316875 -0.3799465 0.048705725
v 0.313443109375 -0.376417109375 0.0310154296875
v 0.28979925 -0.356238 -0.0406223125
v 0.30728525 -0.39498375 0.04403265
v 0.3072965 -0.397467875 0.0302953375
v 0.30427184375 -0.374133484375 -0.0057033984375
v 0.297164484375 -0.374579734375 -0.023471525
v 0.306199171875 -0.3924739375 0.0113142101563
v 0.310265046875 -0.3741718125 0.01287518125
v 0.281903125 -0.35872925 -0.0553438125
v 0.301654984375 -0.39243134375 -0.0062045671875
v 0.28924621875 -0.374933421875 -0.040733715625
v 0.2879415 -0.393574390625 -0.04045760625
v 0.29537340625 -0.393083734375 -0.0235489164062
v 0.303572 -0.414144875 0.0122444375
v 0.279427671875 -0.39389190625 -0.056976140625
v 0.27934575 -0.372832 -0.059430325
v 0.279032328125 -0.4126115625 -0.0568338484375
v -0.007171805 -0.2517045 0.0682813375
v -0.01653707 -0.260109 0.0723922
v -0.0259171 -0.251569 0.06852095
v -0.01655467 -0.243176 0.0643851
v 0.0303539375 -0.2516630625 0.06847055625
v 0.0209677625 -0.26019125 0.07230705625
v 0.01159047 -0.2517516875 0.06823236875
v 0.0209887 -0.2432325 0.06438125
v 0.002210963125 -0.2602344375 0.07217970625
v 0.00221843 -0.2432395 0.0643135
v 0.011611640625 -0.26869525 0.07622966875
v 0.002290809375 -0.277164375 0.0803005625
v -0.007128775 -0.2686695 0.07629515
v 0.01171209 -0.2856265625 0.0843125375
v 0.002420875 -0.2941615 0.0883671
v -0.00700763 -0.2856345 0.084493
v 0.0680541625 -0.235174875 0.06012790625
v 0.0585491625 -0.24326375 0.0646726375
v 0.049298 -0.236257 0.0589612
v 0.0588235 -0.2283705 0.05410535
v 0.03035278125 -0.268500375 0.07663969375
v 0.02101831875 -0.2770481875 0.08047464375
v 0.08685281875 -0.234569625 0.06115840625
v 0.077317025 -0.2429443125 0.0652824625
v 0.07759885 -0.226668 0.0560288
v 0.030418825 -0.2852660625 0.084946225
v 0.02112815 -0.2939505 0.08855445
v 0.03975645 -0.243138 0.0646441
v 0.04910724375 -0.251492 0.0688800875
v 0.03971538125 -0.2600011875 0.07273939375
v 0.049066925 -0.26812675 0.07740868125
v 0.0397282125 -0.2766445 0.081268
v 0.08658991875 -0.2511301875 0.07007091875
v 0.07714080625 -0.2593025 0.07437409375
v 0.0678509 -0.2512541875 0.06945259375
v 0.0584408375 -0.2596740625 0.073438175
v 0.06773729375 -0.267512375 0.078645825
v 0.058382725 -0.2759315 0.08264043125
v 0.1056859375 -0.234719375 0.06169611875
v 0.0960920125 -0.24296225 0.0657778875
v 0.0964482 -0.2260515 0.0573414
v 0.1053131125 -0.251197625 0.07067959375
v 0.0958125 -0.259020625 0.075379725
v 0.117052 -0.2104885 0.04750215
v 0.125673 -0.2188254375 0.05343180625
v 0.1155574375 -0.2266465 0.05750698125
v 0.1068335 -0.218311 0.05169945
v 0.124600625 -0.235417625 0.06186529375
v 0.1148691875 -0.24329725 0.066145325
v 0.0490729625 -0.28453525 0.08631755
v 0.03979035 -0.293257 0.0897997
v 0.0863523125 -0.2668384375 0.08013455
v 0.07695155625 -0.2749118125 0.08456608125
v 0.1240571875 -0.2514374375 0.07129483125
v 0.1144836875 -0.2588600625 0.07641776875
v 0.0676209125 -0.2833771875 0.0884419375
v 0.0583464 -0.2920815 0.0919357
v 0.135823 -0.210946 0.0502221
v 0.1446655 -0.2199965 0.0542657
v 0.1345581875 -0.2277255625 0.05773934375
v 0.1436205625 -0.2367525 0.0615274
v 0.133739875 -0.2440498125 0.066311825
v 0.08603494375 -0.281861125 0.0911285875
v 0.0767262 -0.290366 0.09493665
v 0.104928525 -0.2662070625 0.081673175
v 0.095444075 -0.2738155 0.08667690625
v 0.14287575 -0.251971625 0.071811125
v 0.1331468125 -0.2587473125 0.0775746875
v 0.16275775 -0.2385663125 0.06035699375
v 0.1527374375 -0.2452768125 0.06603575
v 0.153617 -0.229636 0.05650505
v 0.1234715625 -0.2655694375 0.08334155
v 0.113873625 -0.272690625 0.08886056875
v 0.104366125 -0.2803198125 0.09383285
v 0.0950065625 -0.2885858125 0.09796045
v 0.1617023125 -0.2526914375 0.07212055625
v 0.1518011875 -0.2587724375 0.0786606
v 0.181985125 -0.24081725 0.05849556875
v 0.171709375 -0.2465686875 0.0655924
v 0.1729995 -0.232373 0.0538144
v 0.10395255 -0.29541525 0.10460934375
v 0.0948205 -0.304634 0.107319
v 0.0858164 -0.2975745 0.10100275
v 0.14192125 -0.264795375 0.0852085375
v 0.13218975 -0.271365 0.09127421875
v 0.1131683125 -0.28660575 0.10123001875
v 0.1220128125 -0.293187125 0.10822525
v 0.1128785 -0.302278 0.1112565
v 0.1226000625 -0.2786386875 0.0966799375
v 0.180324625 -0.2531665625 0.07278221875
v 0.1702893125 -0.25869725 0.0799111875
v 0.1312705625 -0.2845853125 0.10447094375
v 0.1400733125 -0.291152 0.1114933125
v 0.1309205 -0.3000275 0.1148905
v 0.1603491875 -0.264266 0.08688518125
v 0.1504623125 -0.2701334375 0.09360964375
v 0.1588425625 -0.275467375 0.1022226625
v 0.1493150625 -0.28276725 0.10751066875
v 0.1407503125 -0.2768938125 0.0995556
v 0.201441125 -0.2436675625 0.05594120625
v 0.190687875 -0.248173125 0.0649070875
v 0.1925055 -0.2359535 0.04994525
v 0.1580475 -0.2894725 0.1144585
v 0.148947 -0.2982435 0.1179245
v 0.1784471875 -0.263588375 0.0889519625
v 0.1685866875 -0.2691476875 0.0958907
v 0.1767055625 -0.27441325 0.10485118125
v 0.167059 -0.280921 0.110988
v 0.198833375 -0.2540196875 0.07336269375
v 0.18848225 -0.2585679375 0.08148139375
v 0.2135875 -0.239943 0.04444115
v 0.221548 -0.24664675 0.05357931875
v 0.209642625 -0.249984375 0.0643303375
v 0.2168673125 -0.2548060625 0.0747964375
v 0.20636225 -0.258622125 0.08334985
v 0.196202875 -0.263128125 0.09125645
v 0.1863515625 -0.2683214375 0.09843651875
v 0.1943671875 -0.27363275 0.107513775
v 0.184863 -0.279981 0.113635
v 0.20389 -0.2677279375 0.10110113125
v 0.211931625 -0.2732870625 0.110030125
v 0.2026185 -0.2794775 0.1160465
v 0.2137270625 -0.2627963125 0.09380225625
v 0.23522775 -0.24590325 0.04309814375
v 0.2399778125 -0.2505905625 0.05580423125
v 0.2280359375 -0.2519759375 0.06534034375
v 0.234425375 -0.2559470625 0.07713384375
v 0.223887875 -0.25883725 0.08572406875
v 0.2533556875 -0.251846125 0.049179425
v 0.257802625 -0.254718625 0.0619884375
v 0.24558375 -0.2543126875 0.06863043125
v 0.2511266875 -0.257616875 0.0805857125
v 0.2408864375 -0.2596589375 0.0885159875
v 0.2310089375 -0.262904875 0.0964455875
v 0.2213439375 -0.2674651875 0.1037074
v 0.2293539375 -0.273694875 0.1123004375
v 0.220203 -0.2798925 0.118141
v 0.2476443125 -0.264156375 0.099144
v 0.2384646875 -0.2681185625 0.106192125
v 0.2711088125 -0.257753125 0.0585872375
v 0.2744289375 -0.2599981875 0.07043179375
v 0.2621148125 -0.2574910625 0.07390741875
v 0.2665726875 -0.2609475 0.08541619375
v 0.2568863125 -0.2616200625 0.09184925
v 0.233451 -0.2409105 0.03020875
v 0.2489931875 -0.2454615 0.024686474375
v 0.250231625 -0.2487978125 0.0369291875
v 0.265103 -0.2535935 0.0343062
v 0.267657625 -0.255859375 0.046387525
v 0.2465 -0.2749685 0.114317
v 0.2376545 -0.281114 0.1198335
v 0.263345375 -0.2668150625 0.10151145
v 0.254852 -0.269527 0.1088125
v 0.281437 -0.2613885 0.0451543
v 0.284664 -0.2628205 0.0572797
v 0.2611005 -0.2499725 0.009596745
v 0.2623785 -0.25238 0.02197375
v 0.248179 -0.242367 0.011860095
v 0.2873235 -0.26459 0.06970055
v 0.2891885625 -0.268188375 0.08150684375
v 0.2776208125 -0.263141375 0.08193451875
v 0.2797593125 -0.2670399375 0.0927213875
v 0.27131975 -0.26529475 0.09546616875
v 0.2774104375 -0.2704214375 0.10129619375
v 0.2708925 -0.272912 0.108707
v 0.3000315 -0.2753575 0.08179
v 0.2992645 -0.280017 0.09392045
v 0.2891060625 -0.2724896875 0.0931469125
v 0.2860565 -0.2765085 0.10387525
v 0.3140354375 -0.290097375 0.05869024375
v 0.3144905 -0.2900205 0.07222075
v 0.3072805 -0.280351 0.07108735
v 0.3072425 -0.2801055 0.0573991
v 0.3182325 -0.3026658125 0.04832181875
v 0.3192416875 -0.3001249375 0.05955549375
v 0.3130745 -0.292632 0.04485815
v 0.3213138125 -0.3209729375 0.04483545625
v 0.3217085625 -0.31086175 0.0552403375
v 0.3171745 -0.310044 0.0360784
v 0.322863 -0.3148415 0.0661021
v 0.319736 -0.301145 0.0712504
v 0.3124575625 -0.3277138125 0.014030256875
v 0.31678175 -0.3379475625 0.02350974375
v 0.3194453125 -0.3295063125 0.03372341875
v 0.315205 -0.3187925 0.02383265
v 0.3217134375 -0.3405545625 0.04372380625
v 0.323982 -0.332183 0.05491305
v 0.296696 -0.328101 -0.0219173
v 0.3015296875 -0.3372349375 -0.013607011875
v 0.3046641875 -0.3277026875 -0.00416005875
v 0.299634 -0.3185455 -0.01243551
v 0.309444625 -0.337167 0.004438250625
v 0.307471 -0.317864 0.00524834
v 0.319191625 -0.3482315625 0.03325443125
v 0.3188484375 -0.35935975 0.0421840625
v 0.321554 -0.3522095 0.05280415
v 0.305870125 -0.346537 -0.00499722
v 0.309441 -0.3558629375 0.004005413125
v 0.3133328125 -0.346826 0.013622055
v 0.3157726875 -0.3565076875 0.0231540125
v 0.3019414375 -0.3558898125 -0.014305036875
v 0.297965 -0.346669 -0.0229413
v 0.3159325 -0.366959625 0.03204564375
v 0.3135631875 -0.378102875 0.03989085625
v 0.3163665 -0.370903 0.05007695
v 0.311792125 -0.365150625 0.013275833125
v 0.312294 -0.3750470625 0.0220188875
v 0.2977330625 -0.3653084375 -0.023366735625
v 0.3008209375 -0.3743515 -0.01468133125
v 0.3052078125 -0.3650145 -0.00548135125
v 0.3075054375 -0.3739704375 0.0035582625
v 0.289592375 -0.3655915 -0.04071171875
v 0.29331425 -0.3747734375 -0.03216996875
v 0.2940565 -0.356131 -0.03200805
v 0.3105974375 -0.3856793125 0.0297351
v 0.3070785 -0.396192 0.03706245
v 0.3097285 -0.388771 0.04730235
v 0.3082885625 -0.383226125 0.012135546875
v 0.307433 -0.393463875 0.01992096875
v 0.280698 -0.365788 -0.05744965
v 0.284936375 -0.3750605 -0.04911981875
v 0.2853425 -0.356325 -0.0490678
v 0.304333375 -0.402075625 0.01066845125
v 0.303543 -0.4123025 0.01854655
v 0.3061275 -0.4038835 0.0276349
v 0.296303125 -0.38381525 -0.023538284375
v 0.298685 -0.392745 -0.014922628125
v 0.3030165625 -0.3832164375 -0.0059586875
v 0.3042164375 -0.392235375 0.002573371875
v 0.2886215 -0.3842521875 -0.04062089375
v 0.291787125 -0.3933549375 -0.0320515375
v 0.300400125 -0.4019461875 -0.00639838625
v 0.3020174375 -0.4114864375 0.001857258125
v 0.29459975 -0.4024539375 -0.02348532375
v 0.2974024375 -0.4116364375 -0.015056104375
v 0.2799099375 -0.3845210625 -0.0571638
v 0.283851875 -0.393757875 -0.0487942375
v 0.27903375 -0.4032663125 -0.0568144375
v 0.283427875 -0.412451875 -0.04869079375
v 0.2874295 -0.402926625 -0.04032820625
v 0.291107875 -0.4120401875 -0.0319883
v 0.300994 -0.4208586875 -0.0067967025
v 0.305195 -0.42999 0.00174173
v 0.305103 -0.420805 0.0103006
v 0.2691505 -0.4033955 -0.0725402
v 0.2741831875 -0.412705875 -0.0647388
v 0.2745783125 -0.393963 -0.064918025
v 0.275465 -0.375192 -0.06533085
v 0.269911 -0.384607 -0.0729604
v 0.2696805 -0.4221005 -0.0728568
v 0.275764 -0.4312975 -0.0655928
v 0.2797275625 -0.4218949375 -0.05718953125
v 0.2853885 -0.43093 -0.0496148
v 0.2882965 -0.4214966875 -0.0407767625
v 0.2953405625 -0.4211144375 -0.023885668125
v 0.2999525 -0.4302235 -0.01574577
v 0.2933555 -0.43051 -0.0329229
v -0.01654587 -0.2516425 0.06838865
v 0.02097295 -0.25172125 0.068322175
v 0.00220793 -0.2517435 0.068224
v 0.0022410625 -0.26869925 0.076225825
v 0.002352785 -0.28565625 0.084342125
v 0.058672775 -0.235685 0.05954975
v 0.0209837 -0.26862375 0.07637985
v 0.077448775 -0.2347885 0.060685275
v 0.021069175 -0.285494 0.084525525
v 0.039732 -0.251588 0.06865465
v 0.039714425 -0.26834075 0.076972525
v 0.077221925 -0.25117075 0.069761075
v 0.058479775 -0.251371 0.0691525
v 0.058408575 -0.26784025 0.0779785
v 0.0962625 -0.234562 0.06148385
v 0.09595195 -0.251142 0.0703751
v 0.1162405 -0.2185135 0.0526405
v 0.11513125 -0.2349955 0.061829725
v 0.039755825 -0.28495025 0.085539775
v 0.077051 -0.26717425 0.0793745
v 0.1146785 -0.2512885 0.070990375
v 0.058363025 -0.28400975 0.087290925
v 0.1351565 -0.21935625 0.053923625
v 0.13409625 -0.236013 0.06178345
v 0.076841525 -0.282641 0.089752625
v 0.09564385 -0.2665175 0.080896
v 0.13345825 -0.25166725 0.07158035
v 0.153176 -0.237607 0.06104035
v 0.11420925 -0.26590275 0.0824804
v 0.09521125 -0.2810975 0.092475425
v 0.15230375 -0.25234425 0.07195135
v 0.172361 -0.23962025 0.059512025
v 0.0948912 -0.29650275 0.102800875
v 0.132701 -0.265172 0.0842805
v 0.112987 -0.29429625 0.1064385
v 0.11349525 -0.27949775 0.095240575
v 0.1710315 -0.2529195 0.072438275
v 0.13104825 -0.29212925 0.1099065
v 0.151156 -0.2645245 0.08603695
v 0.14981425 -0.27613225 0.100907925
v 0.131682 -0.27775 0.098132275
v 0.1916295 -0.24220575 0.05729775
v 0.149068 -0.29028475 0.11299675
v 0.16944475 -0.2639265 0.087872675
v 0.167804 -0.27490125 0.103533225
v 0.189615 -0.25357075 0.0730301
v 0.211567 -0.2450845 0.054448575
v 0.2079105 -0.254401 0.073960775
v 0.187361 -0.263334 0.090075575
v 0.18555425 -0.27398275 0.1061881
v 0.2031615 -0.27338625 0.108798
v 0.2049895 -0.2629355 0.092507525
v 0.230925 -0.2485445 0.0540929
v 0.22572475 -0.25532625 0.075841775
v 0.24898625 -0.25259775 0.058528225
v 0.24291175 -0.256654 0.0787097
v 0.22242175 -0.26275075 0.0951141
v 0.220672 -0.273379 0.1111995
v 0.239424 -0.26336475 0.09779925
v 0.26627925 -0.25710575 0.065908425
v 0.259013 -0.2590055 0.08277825
v 0.24178 -0.2449235 0.033354775
v 0.2589285 -0.25239475 0.041360375
v 0.23794875 -0.2742675 0.11332725
v 0.25564725 -0.26530575 0.10044875
v 0.276206 -0.25933675 0.051749825
v 0.25527875 -0.2473735 0.0169169225
v 0.2822645 -0.263635 0.07570215
v 0.27380775 -0.2635705 0.088628425
v 0.27065125 -0.2686865 0.10213005
v 0.29460375 -0.2738305 0.087633225
v 0.2834685 -0.27152125 0.098001525
v 0.3108665 -0.285063 0.064809925
v 0.31637025 -0.2957765 0.05288605
v 0.31998375 -0.31133075 0.045922025
v 0.3212645 -0.30688125 0.063508025
v 0.31618275 -0.32842125 0.023665275
v 0.3219125 -0.330794 0.0442109
v 0.30068925 -0.32789075 -0.0130573975
v 0.3086025 -0.327559 0.0048121525
v 0.32065025 -0.35001525 0.043049625
v 0.309708 -0.346601 0.00418892
v 0.31662325 -0.347269 0.0233779
v 0.3019405 -0.346577 -0.01401208
v 0.3164335 -0.36877175 0.041122825
v 0.3142955 -0.36578575 0.02272235
v 0.30155225 -0.36514625 -0.0145183175
v 0.308692 -0.36495475 0.0038289825
v 0.293758 -0.3654595 -0.032111425
v 0.31039525 -0.38720475 0.0385131
v 0.3098705 -0.3842355 0.0209796
v 0.2852015 -0.3656965 -0.04912695
v 0.3053895 -0.402845 0.019159475
v 0.2997955 -0.38351075 -0.0148234875
v 0.30592575 -0.383004 0.0030918875
v 0.29258 -0.38405825 -0.03213885
v 0.302641 -0.4018445 0.00214623
v 0.2976985 -0.40217525 -0.014956595
v 0.284423 -0.3844095 -0.048980125
v 0.2834135 -0.40312 -0.048648525
v 0.2911675 -0.4027045 -0.0319415
v 0.30316375 -0.42081625 0.0017532525
v 0.2742045 -0.40334725 -0.064737925
v 0.27500775 -0.38457775 -0.065119175
v 0.27481125 -0.42201425 -0.065080575
v 0.284215 -0.4217095 -0.04906885
v 0.29836325 -0.4209635 -0.0153518725
v 0.291995 -0.42129525 -0.0323715
f 4 152 409 155
f 9 153 409 152
f 2 154 409 153
f 1 155 409 154
f 18 156 410 159
f 13 157 410 156
f 10 158 410 157
f 3 159 410 158
f 10 160 411 158
f 9 152 411 160
f 4 161 411 152
f 3 158 411 161
f 9 160 412 164
f 10 162 412 160
f 12 163 412 162
f 5 164 412 163
f 12 165 413 163
f 15 166 413 165
f 7 167 413 166
f 5 163 413 167
f 11 168 414 171
f 14 169 414 168
f 17 170 414 169
f 6 171 414 170
f 13 172 415 157
f 22 173 415 172
f 12 162 415 173
f 10 157 415 162
f 19 174 416 176
f 20 175 416 174
f 14 168 416 175
f 11 176 416 168
f 22 177 417 173
f 23 178 417 177
f 15 165 417 178
f 12 173 417 165
f 18 179 418 156
f 17 180 418 179
f 16 181 418 180
f 13 156 418 181
f 16 182 419 181
f 26 183 419 182
f 22 172 419 183
f 13 181 419 172
f 20 184 420 175
f 31 185 420 184
f 24 186 420 185
f 14 175 420 186
f 24 187 421 186
f 16 180 421 187
f 17 169 421 180
f 14 186 421 169
f 24 188 422 187
f 29 189 422 188
f 26 182 422 189
f 16 187 422 182
f 21 190 423 192
f 25 191 423 190
f 20 174 423 191
f 19 192 423 174
f 25 193 424 191
f 36 194 424 193
f 31 184 424 194
f 20 191 424 184
f 34 195 425 198
f 28 196 425 195
f 27 197 425 196
f 21 198 425 197
f 27 199 426 197
f 32 200 426 199
f 25 190 426 200
f 21 197 426 190
f 26 201 427 183
f 30 202 427 201
f 23 177 427 202
f 22 183 427 177
f 31 203 428 185
f 37 204 428 203
f 29 188 428 204
f 24 185 428 188
f 32 205 429 200
f 44 206 429 205
f 36 193 429 206
f 25 200 429 193
f 29 207 430 189
f 35 208 430 207
f 30 201 430 208
f 26 189 430 201
f 28 209 431 196
f 38 210 431 209
f 33 211 431 210
f 27 196 431 211
f 33 212 432 211
f 40 213 432 212
f 32 199 432 213
f 27 211 432 199
f 37 214 433 204
f 43 215 433 214
f 35 207 433 215
f 29 204 433 207
f 36 216 434 194
f 46 217 434 216
f 37 203 434 217
f 31 194 434 203
f 40 218 435 213
f 50 219 435 218
f 44 205 435 219
f 32 213 435 205
f 41 220 436 222
f 47 221 436 220
f 40 212 436 221
f 33 222 436 212
f 44 223 437 206
f 54 224 437 223
f 46 216 437 224
f 36 206 437 216
f 46 225 438 217
f 49 226 438 225
f 43 214 438 226
f 37 217 438 214
f 47 227 439 221
f 59 228 439 227
f 50 218 439 228
f 40 221 439 218
f 52 229 440 231
f 60 230 440 229
f 47 220 440 230
f 41 231 440 220
f 43 226 441 234
f 49 232 441 226
f 45 233 441 232
f 42 234 441 233
f 50 235 442 219
f 51 236 442 235
f 54 223 442 236
f 44 219 442 223
f 49 237 443 232
f 55 238 443 237
f 48 239 443 238
f 45 232 443 239
f 54 240 444 224
f 55 237 444 240
f 49 225 444 237
f 46 224 444 225
f 60 241 445 230
f 66 242 445 241
f 59 227 445 242
f 47 230 445 227
f 55 243 446 238
f 58 244 446 243
f 53 245 446 244
f 48 238 446 245
f 59 246 447 228
f 57 247 447 246
f 51 235 447 247
f 50 228 447 235
f 57 248 448 247
f 64 249 448 248
f 58 250 448 249
f 51 247 448 250
f 58 243 449 250
f 55 240 449 243
f 54 236 449 240
f 51 250 449 236
f 63 251 450 253
f 62 252 450 251
f 60 229 450 252
f 52 253 450 229
f 58 249 451 244
f 64 254 451 249
f 56 255 451 254
f 53 244 451 255
f 59 242 452 246
f 66 256 452 242
f 65 257 452 256
f 57 246 452 257
f 65 258 453 257
f 68 259 453 258
f 64 248 453 259
f 57 257 453 248
f 62 260 454 252
f 75 261 454 260
f 66 241 454 261
f 60 252 454 241
f 63 262 455 251
f 67 263 455 262
f 71 264 455 263
f 62 251 455 264
f 71 265 456 264
f 77 266 456 265
f 75 260 456 266
f 62 264 456 260
f 66 261 457 256
f 75 267 457 261
f 70 268 457 267
f 65 256 457 268
f 70 269 458 268
f 69 270 458 269
f 68 258 458 270
f 65 268 458 258
f 70 271 459 269
f 74 272 459 271
f 80 273 459 272
f 69 269 459 273
f 75 266 460 267
f 77 274 460 266
f 74 271 460 274
f 70 267 460 271
f 67 275 461 263
f 79 276 461 275
f 72 277 461 276
f 71 263 461 277
f 72 278 462 277
f 76 279 462 278
f 77 265 462 279
f 71 277 462 265
f 79 280 463 276
f 86 281 463 280
f 78 282 463 281
f 72 276 463 282
f 78 283 464 282
f 84 284 464 283
f 76 278 464 284
f 72 282 464 278
f 77 279 465 274
f 76 285 465 279
f 81 286 465 285
f 74 274 465 286
f 81 287 466 286
f 83 288 466 287
f 80 272 466 288
f 74 286 466 272
f 84 289 467 284
f 85 290 467 289
f 81 285 467 290
f 76 284 467 285
f 86 291 468 281
f 94 292 468 291
f 89 293 468 292
f 78 281 468 293
f 89 294 469 293
f 91 295 469 294
f 84 283 469 295
f 78 293 469 283
f 67 296 470 275
f 87 297 470 296
f 92 298 470 297
f 79 275 470 298
f 92 299 471 298
f 99 300 471 299
f 86 280 471 300
f 79 298 471 280
f 85 301 472 290
f 82 302 472 301
f 83 287 472 302
f 81 290 472 287
f 91 303 473 295
f 90 304 473 303
f 85 289 473 304
f 84 295 473 289
f 99 305 474 300
f 103 306 474 305
f 94 291 474 306
f 86 300 474 291
f 96 307 475 309
f 101 308 475 307
f 92 297 475 308
f 87 309 475 297
f 94 310 476 292
f 100 311 476 310
f 95 312 476 311
f 89 292 476 312
f 95 313 477 312
f 61 314 477 313
f 91 294 477 314
f 89 312 477 294
f 91 314 478 303
f 61 315 478 314
f 98 316 478 315
f 90 303 478 316
f 100 317 479 311
f 105 318 479 317
f 104 319 479 318
f 95 311 479 319
f 104 320 480 319
f 98 315 480 320
f 61 313 480 315
f 95 319 480 313
f 113 321 481 324
f 116 322 481 321
f 109 323 481 322
f 107 324 481 323
f 114 325 482 327
f 8 326 482 325
f 116 321 482 326
f 113 327 482 321
f 120 328 483 330
f 39 329 483 328
f 8 325 483 329
f 114 330 483 325
f 116 326 484 332
f 8 329 484 326
f 39 331 484 329
f 115 332 484 331
f 122 333 485 336
f 125 334 485 333
f 126 335 485 334
f 120 336 485 335
f 126 337 486 335
f 124 338 486 337
f 39 328 486 338
f 120 335 486 328
f 123 339 487 342
f 127 340 487 339
f 128 341 487 340
f 121 342 487 341
f 128 343 488 341
f 125 333 488 343
f 122 344 488 333
f 121 341 488 344
f 126 345 489 337
f 130 346 489 345
f 129 347 489 346
f 124 337 489 347
f 128 348 490 343
f 131 349 490 348
f 132 350 490 349
f 125 343 490 350
f 132 351 491 350
f 130 345 491 351
f 126 334 491 345
f 125 350 491 334
f 133 352 492 353
f 131 348 492 352
f 128 340 492 348
f 127 353 492 340
f 130 354 493 346
f 135 355 493 354
f 134 356 493 355
f 129 346 493 356
f 132 357 494 351
f 142 358 494 357
f 135 354 494 358
f 130 351 494 354
f 133 359 495 352
f 140 360 495 359
f 139 361 495 360
f 131 352 495 361
f 139 362 496 361
f 142 357 496 362
f 132 349 496 357
f 131 361 496 349
f 136 363 497 365
f 145 364 497 363
f 140 359 497 364
f 133 365 497 359
f 135 366 498 355
f 138 367 498 366
f 137 368 498 367
f 134 355 498 368
f 142 369 499 358
f 141 370 499 369
f 138 366 499 370
f 135 358 499 366
f 143 371 500 373
f 150 372 500 371
f 145 363 500 372
f 136 373 500 363
f 141 374 501 370
f 148 375 501 374
f 112 376 501 375
f 138 370 501 376
f 140 377 502 360
f 147 378 502 377
f 144 379 502 378
f 139 360 502 379
f 144 380 503 379
f 141 369 503 380
f 142 362 503 369
f 139 379 503 362
f 145 381 504 364
f 146 382 504 381
f 147 377 504 382
f 140 364 504 377
f 144 383 505 380
f 119 384 505 383
f 148 374 505 384
f 141 380 505 374
f 147 385 506 378
f 106 386 506 385
f 119 383 506 386
f 144 378 506 383
f 150 387 507 372
f 149 388 507 387
f 146 381 507 388
f 145 372 507 381
f 149 389 508 388
f 151 390 508 389
f 117 391 508 390
f 146 388 508 391
f 117 392 509 391
f 106 385 509 392
f 147 382 509 385
f 146 391 509 382
f 119 393 510 384
f 102 394 510 393
f 108 395 510 394
f 148 384 510 395
f 118 396 511 398
f 111 397 511 396
f 151 389 511 397
f 149 398 511 389
f 150 399 512 387
f 110 400 512 399
f 118 398 512 400
f 149 387 512 398
f 111 401 513 397
f 97 402 513 401
f 93 403 513 402
f 151 397 513 403
f 93 404 514 403
f 88 405 514 404
f 117 390 514 405
f 151 403 514 390
f 106 406 515 386
f 73 407 515 406
f 102 393 515 407
f 119 386 515 393
f 88 408 516 405
f 73 406 516 408
f 106 392 516 406
f 117 405 516 392
