v 0.0624253 -0.098438075 0.065708325
v 0.051668 -0.0987763 0.0675651125
v 0.0519294125 -0.0881201375 0.0703242625
v 0.06282065 -0.08791465 0.0682829125
v 0.0752235125 -0.078604575 0.0664390625
v 0.08666305 -0.066709 0.0635004625
v 0.083517825 -0.074812425 0.0656309375
v 0.0979335875 -0.0527349 0.062919
v 0.0968438 -0.0431012 0.063538775
v 0.10740175 -0.0433514625 0.0603113625
v 0.107574625 -0.0323637375 0.0602744
v 0.0969647125 -0.0321410375 0.0632151625
v 0.1076385 -0.010467693625 0.0589501125
v 0.107506 0.00040831325 0.0574656125
v 0.107318 0.011249581375 0.0557478625
v 0.0967731875 0.00059161875 0.0600077375
v 0.096430475 0.0222191 0.0563083875
v 0.1054601875 0.03149395 0.0522081875
v 0.1048754375 0.0447993375 0.04894015
v 0.105733125 0.05412105 0.04657405
v 0.105438875 0.064796025 0.044273725
v 0.1035077125 0.0845111625 0.0389373625
v 0.105185125 0.0754050875 0.0417232125
v 0.0975126625 0.0315423625 0.0538395125
v 0.0970990875 0.0448406125 0.0504984375
v 0.0954920625 0.0542613875 0.0488484
v 0.0950982625 0.0648514 0.046034925
v 0.0947036375 0.0753125375 0.0428177125
v 0.095656975 0.0844088 0.039634425
v 0.095066375 0.0969482625 0.033976225
v 0.102031892188 0.1250834375 0.0190896375
v 0.1028002125 0.097418575 0.0337711
v 0.111551375 0.110084 0.0329085
v 0.112238 0.119193375 0.0286946125
v 0.10289349375 0.11593375 0.0248521671875
v 0.111585375 0.1283165 0.02198875
v 0.1107155 0.136629875 0.01452652125
v 0.10866375 0.14315825 0.00761322375
v 0.0983193375 0.150839 -0.00068149525
v 0.0956694875 0.158051625 -0.006548685875
v 0.0863777125 0.160111875 -0.004213363875
v 0.0774427875 0.159623625 -0.0005087095
v 0.020479175 -0.0965820125 0.0681265
v 0.0785351 0.15280425 0.003869416125
v 0.0892179875 0.143256125 0.00941251875
v 0.0906114875 0.134451375 0.01577533
v 0.0917037625 0.12510125 0.0213734
v 0.09257845 0.115356125 0.02618775
v 0.0867424375 0.1508205 0.00399753875
v 0.100823675 0.143770875 0.005431002875
v 0.100889060937 0.13412321875 0.0131606192188
v 0.072991225 -0.0979365875 0.0633318125
v 0.104783375 0.1051797875 0.030579025
v 0.0932075125 0.10550485 0.0301091625
v 0.10706975 0.0220763125 0.053890325
v 0.0966424875 0.011426028125 0.0582641375
v 0.0969860125 -0.0211997875 0.0624776
v 0.09688925 -0.010296346875 0.0613141625
v 0.1076715 -0.021394175 0.059901925
v 0.1058307125 -0.05291325 0.0605567375
v 0.0931374625 -0.085205575 0.0603453625
v 0.040779575 -0.09889785 0.068668225
v 0.0204671625 -0.089411975 0.071573825
v 0.02987875 -0.098762275 0.06904575
v 0.0410168 -0.0882182375 0.0713811375
v 0.081970125 -0.09577335 0.0605679625
v 0.0853663375 -0.08819745 0.0625932125
v 0.03005145 -0.088237375 0.0715678375
v 0.0724799375 -0.086384375 0.0670375625
v 0.0953557125 -0.0757806 0.0620422375
v 0.0946397375 -0.066363775 0.063141
v 0.07338681875 -0.09275356875 0.0650082
v 0.0683298 -0.0877646 0.0675452
v 0.062622975 -0.0931763625 0.06699561875
v 0.0677554 -0.09823825 0.06464865
v 0.057365 -0.0880322 0.06931325
v 0.05179870625 -0.09344821875 0.0689446875
v 0.0570638 -0.09862685 0.06670845
v 0.04648045 -0.08818135 0.071004
v 0.0408981875 -0.09355804375 0.07002468125
v 0.046235 -0.09885815 0.0681944
v 0.0789766625 -0.0872627125 0.0649312625
v 0.08449308125 -0.0815726375 0.0645195875
v 0.0793327 -0.0767334 0.0661766
v 0.07385855 -0.0825763 0.06669745
v 0.09008800625 -0.0758896 0.0636601
v 0.09573735 -0.0703728 0.0627751
v 0.0907272 -0.0652045 0.0632113
v 0.0851106 -0.0706913 0.06452295
v 0.08925235 -0.0867547 0.061549
v 0.0948305 -0.0811362 0.06087105
v 0.107264 -0.0488342 0.06024065
v 0.102122775 -0.04322633125 0.06192506875
v 0.0967241 -0.0485884 0.0634473
v 0.10184485 -0.054195 0.0617025
v 0.107501 -0.03785865 0.060326
v 0.10226966875 -0.0322523875 0.06174478125
v 0.0969201 -0.037619 0.0634448
v 0.10232875625 -0.02129698125 0.0611897625
v 0.09698935 -0.02666655 0.06289965
v 0.1076355 -0.0268747 0.0601464
v 0.10213959375 0.000499966 0.058736675
v 0.0968315 -0.0048479875 0.0606973
v 0.102263875 -0.01038202025 0.0601321375
v 0.1075815 -0.0050239745 0.05825635
v 0.0969467 -0.015745 0.06192835
v 0.1076705 -0.0159248 0.0595009
v 0.10198024375 0.01133780475 0.057006
v 0.09671405 0.0060140125 0.05917545
v 0.1074185 0.0058311255 0.0566239
v 0.1017501125 0.02214770625 0.05509935625
v 0.0965469 0.0168345 0.0573375
v 0.1072035 0.0166688 0.05485415
v 0.1069115 0.02745965 0.05280395
v 0.10144725 0.03285435 0.0527162
v 0.0962964 0.0275595 0.05508965
v 0.10061259375 0.05419121875 0.047711225
v 0.0956706 0.04889185 0.04997875
v 0.10104275 0.0434796 0.0500006
v 0.105971 0.04879035 0.047772
v 0.10026856875 0.0648237125 0.045154325
v 0.09529825 0.0595773 0.04751425
v 0.1055655 0.05945985 0.0454242
v 0.09994438125 0.0753588125 0.0422704625
v 0.0949012 0.0700955 0.04446905
v 0.105324 0.07011885 0.0430739
v 0.09450215 0.08050545 0.041082
v 0.1049865 0.0806315 0.04012015
v 0.09952835 0.08575715 0.0388475
v 0.10386 0.10113765 0.03186105
v 0.09839213125 0.10573844375 0.0297122
v 0.09352925 0.1005694 0.03228335
v 0.09901285 0.09596005 0.03447415
v 0.1111675 0.132565 0.0183253
v 0.105839875 0.1351403125 0.0135118525
v 0.10148159375 0.1296304375 0.0161690625
v 0.1068731875 0.1264290625 0.0201072875
v 0.09578786875 0.1340510625 0.014136256875
v 0.09119325 0.1298425 0.0186743
v 0.09693238125 0.1248214375 0.0197996125
v 0.0921714 0.1202585 0.0239005
v 0.09781685 0.1154214375 0.02508845625
v 0.102506925 0.1205445625 0.0220179125
v 0.107646625 0.1173400625 0.0263418875
v 0.111936 0.123867 0.0254799
v 0.1031784 0.1111709375 0.02749068125
v 0.1081615 0.1076075 0.03176005
v 0.11251 0.1142725 0.03152875
v 0.0929072 0.110436 0.0281673
v 0.1047745 0.1434165 0.00645737
v 0.100287325 0.1384994375 0.009968739375
v 0.1102625 0.1405285 0.010629385
v 0.091577 0.1595395 -0.006049135
v 0.08713141875 0.1559429375 -0.00073498175
v 0.09309190625 0.1513664375 0.001097956125
v 0.09755635 0.154889 -0.0042791485
v 0.08854405 0.1476055 0.006185375
v 0.09446789375 0.1428483125 0.0077910876875
v 0.0990402 0.146689 0.0028033015
v 0.0766823 0.1562345 0.0020062845
v 0.0826473 0.1517765 0.00387936
v 0.08117045 0.160528 -0.0024742405
v 0.0899301 0.138897 0.01264862
v 0.0780699 -0.0974423 0.0615602
v 0.0836706 -0.0919477 0.06158925
v 0.0191194 -0.0929128 0.0697675
v 0.0244993 -0.09825725 0.0683105
v 0.0299651 -0.093499825 0.07030679375
v 0.02456965 -0.0882419 0.0718858
v 0.0353165 -0.09892085 0.0690585
v 0.03553715 -0.0882332 0.07148435
v 0.0680426 -0.093001425 0.066096925
v 0.0572144 -0.093329525 0.06801085
v 0.046357725 -0.09351975 0.0695992
v 0.079200575 -0.0820272 0.065731075
v 0.090423975 -0.07053205 0.063649025
v 0.08968655 -0.08130715 0.062817875
v 0.10199405 -0.0487113 0.061843975
v 0.10221055 -0.037738825 0.0618854
v 0.102312425 -0.026770625 0.061523025
v 0.1022065 -0.004935981 0.059476825
v 0.1023086 -0.0158349 0.060714625
v 0.102066275 0.005922569 0.057899675
v 0.1018752 0.01675165 0.056095825
v 0.10160395 0.027509575 0.0539468
v 0.1008208 0.0488411 0.048875375
v 0.100431875 0.059518575 0.046469225
v 0.1001126 0.070107175 0.043771475
v 0.099744325 0.080568475 0.040601075
v 0.098694625 0.100853525 0.0320722
v 0.10637475 0.1308355 0.016858725
v 0.096387625 0.12947425 0.017033225
v 0.0974147 0.1201485 0.022513825
v 0.107297 0.12195275 0.023303525
v 0.1079225 0.1125245 0.029116825
v 0.0981211 0.11060625 0.0274361
v 0.10530675 0.13931175 0.010020685
v 0.0923459 0.1554795 -0.00244015675
v 0.093792125 0.14714725 0.00449433825
v 0.081908875 0.15615225 0.00070255975
v 0.09514055 0.138496 0.0110303025
v 0.078569175 -0.09238165 0.063422875
v 0.024534475 -0.093249575 0.07009815
v 0.035426825 -0.093577025 0.070271425
f 52 72 172 75
f 69 73 172 72
f 4 74 172 73
f 1 75 172 74
f 4 76 173 74
f 3 77 173 76
f 2 78 173 77
f 1 74 173 78
f 3 79 174 77
f 65 80 174 79
f 62 81 174 80
f 2 77 174 81
f 69 82 175 85
f 67 83 175 82
f 7 84 175 83
f 5 85 175 84
f 7 86 176 89
f 70 87 176 86
f 71 88 176 87
f 6 89 176 88
f 67 90 177 83
f 61 91 177 90
f 70 86 177 91
f 7 83 177 86
f 60 92 178 95
f 10 93 178 92
f 9 94 178 93
f 8 95 178 94
f 10 96 179 93
f 11 97 179 96
f 12 98 179 97
f 9 93 179 98
f 59 99 180 101
f 57 100 180 99
f 12 97 180 100
f 11 101 180 97
f 14 102 181 105
f 16 103 181 102
f 58 104 181 103
f 13 105 181 104
f 58 106 182 104
f 57 99 182 106
f 59 107 182 99
f 13 104 182 107
f 15 108 183 110
f 56 109 183 108
f 16 102 183 109
f 14 110 183 102
f 55 111 184 113
f 17 112 184 111
f 56 108 184 112
f 15 113 184 108
f 55 114 185 111
f 18 115 185 114
f 24 116 185 115
f 17 111 185 116
f 20 117 186 120
f 26 118 186 117
f 25 119 186 118
f 19 120 186 119
f 21 121 187 123
f 27 122 187 121
f 26 117 187 122
f 20 123 187 117
f 23 124 188 126
f 28 125 188 124
f 27 121 188 125
f 21 126 188 121
f 29 127 189 129
f 28 124 189 127
f 23 128 189 124
f 22 129 189 128
f 32 130 190 133
f 53 131 190 130
f 54 132 190 131
f 30 133 190 132
f 36 134 191 137
f 37 135 191 134
f 51 136 191 135
f 31 137 191 136
f 51 138 192 136
f 46 139 192 138
f 47 140 192 139
f 31 136 192 140
f 47 141 193 140
f 48 142 193 141
f 35 143 193 142
f 31 140 193 143
f 35 144 194 143
f 34 145 194 144
f 36 137 194 145
f 31 143 194 137
f 34 144 195 148
f 35 146 195 144
f 53 147 195 146
f 33 148 195 147
f 48 149 196 142
f 54 131 196 149
f 53 146 196 131
f 35 142 196 146
f 38 150 197 152
f 50 151 197 150
f 51 135 197 151
f 37 152 197 135
f 40 153 198 156
f 41 154 198 153
f 49 155 198 154
f 39 156 198 155
f 49 157 199 155
f 45 158 199 157
f 50 159 199 158
f 39 155 199 159
f 42 160 200 162
f 44 161 200 160
f 49 154 200 161
f 41 162 200 154
f 46 138 201 163
f 51 151 201 138
f 50 158 201 151
f 45 163 201 158
f 67 82 202 165
f 69 72 202 82
f 52 164 202 72
f 66 165 202 164
f 63 166 203 169
f 43 167 203 166
f 64 168 203 167
f 68 169 203 168
f 64 170 204 168
f 62 80 204 170
f 65 171 204 80
f 68 168 204 171
