# https://github.com/mikedh/trimesh
v -0.03788968 0.39578787 0.05758078
v -0.03863965 0.39229015 0.06710293
v -0.03681500 0.40598100 0.04884100
v -0.04075625 0.39164476 0.07102150
v -0.04310082 0.39792039 0.05729477
v -0.04945333 0.39724176 0.07057840
v -0.05318000 0.39597100 0.07760000
v -0.04480800 0.39735349 0.05190450
v -0.04307475 0.38909975 0.07977675
v -0.03494514 0.39371973 0.05760989
v -0.04581500 0.39663501 0.04848100
v 0.02428700 0.45858401 -0.00730900
v 0.04293000 0.44270200 0.01617400
v 0.02926250 0.45517350 -0.00034550
v 0.03529000 0.45041299 0.00772400
v 0.01574400 0.46099201 -0.01514000
v -0.05244050 0.40764550 0.03434800
v -0.05442575 0.41470625 0.02702600
v -0.05430425 0.41755800 0.02386675
v -0.05382200 0.42179749 0.01960500
v -0.05056012 0.40333962 0.03720113
v -0.05221400 0.43013600 0.01016200
v 0.04121200 0.43810200 0.02377650
v 0.03910600 0.42539001 0.03625000
v 0.03599188 0.42376000 0.03733738
v -0.01001112 0.46058124 -0.02267250
v -0.01123200 0.46210900 -0.02060800
v -0.02291425 0.46064375 -0.01308225
v -0.03119850 0.45624100 -0.01473875
v -0.03987150 0.45389551 -0.00021250
v -0.04518000 0.44968900 0.00400500
v -0.04342450 0.45092200 -0.00159250
v -0.01245400 0.45098750 -0.02701150
v 0.00858083 0.45048369 -0.02527564
v -0.00226510 0.45136419 -0.02711238
v -0.00393850 0.45894244 -0.02509138
v -0.01068923 0.45638927 -0.02549091
v -0.01418369 0.45851063 -0.02407306
v -0.01970925 0.45719575 -0.02235800
v -0.00070628 0.45931874 -0.02453439
v 0.00628800 0.46182299 -0.02002300
v 0.00999100 0.45809101 -0.02258500
v 0.01295000 0.45505199 -0.00185500
v -0.00282000 0.45718450 -0.00683300
v 0.01743825 0.45322913 0.00110488
v -0.01666000 0.45621899 -0.00471800
v 0.02206700 0.45041500 0.00532800
v 0.03191350 0.44058400 0.01963100
v 0.02646350 0.44739550 0.01063900
v 0.03426700 0.43516900 0.02622650
v -0.04331000 0.42322499 0.03727900
v -0.04203650 0.41958951 0.03991900
v -0.04151600 0.43427801 0.02678700
v -0.04214100 0.42944125 0.03171225
v -0.03134975 0.44924150 0.00701350
v -0.03490550 0.44577950 0.01249800
v -0.03893159 0.44081049 0.02188132
v -0.02337046 0.45416788 0.00035039
v -0.03931700 0.40971801 0.04672200
v -0.05403348 0.41294986 0.04074730
v -0.05602336 0.42787064 0.02906594
v -0.05509224 0.41923256 0.03654302
v -0.05320443 0.41971522 0.03981606
v -0.05522100 0.43207474 0.02386000
v -0.05607575 0.42456300 0.02630125
v -0.05144337 0.40808750 0.04490687
v -0.05417800 0.43470775 0.02235875
v -0.05178600 0.44046000 0.01672700
v -0.05079800 0.44229851 0.01409850
v -0.05134586 0.43823995 0.02257484
v -0.04905000 0.44532999 0.00931000
v -0.04273429 0.45108272 0.00603122
v -0.05252861 0.43069229 0.03103916
v -0.05061650 0.41168341 0.04638442
v -0.04946445 0.44229668 0.01880088
v -0.04821362 0.42652295 0.03570139
v -0.04171813 0.43913726 0.02186495
v -0.03820570 0.44788459 0.01091126
v -0.03805631 0.45192093 0.00607504
v -0.01987686 0.45790824 -0.00582608
v -0.04323596 0.40676754 0.05070865
v 0.02759061 0.45426699 0.00239971
v 0.00751250 0.45692212 -0.00584135
v 0.03104876 0.45209547 0.00555752
v -0.01088033 0.46133516 -0.01129839
v 0.03472263 0.44570027 0.01470051
v 0.00270025 0.46154351 -0.01196683
v -0.01364265 0.45658718 -0.00561434
v -0.03236828 0.45720109 -0.00295719
v -0.00579727 0.46305713 -0.01956628
v 0.00300143 0.46265143 -0.01943588
v -0.00314449 0.46309720 -0.01660897
v -0.01624151 0.46162267 -0.01192112
v -0.03240017 0.45551611 -0.00022095
v -0.04553562 0.40393443 0.05133929
v -0.05296652 0.40742500 0.04214085
v -0.04919600 0.44063100 0.00332500
v -0.04982425 0.43460638 0.00444975
v -0.04636500 0.43842500 -0.00186000
v -0.05522589 0.43280837 0.02042784
v -0.04998843 0.44397883 0.00703788
v -0.05125141 0.43805673 0.00754293
v -0.03803150 0.44447450 -0.01193300
v -0.03050768 0.44851391 -0.01776482
v -0.04323787 0.44125163 -0.00610669
v -0.04144993 0.44701878 -0.00813062
v -0.04687154 0.44576098 -0.00052836
v -0.03983745 0.45232623 -0.00777249
f 17 21 96
f 96 21 11
f 8 96 11
f 5 8 11
f 17 96 18
f 60 18 96
f 60 65 18
f 18 65 19
f 19 65 20
f 100 20 65
f 64 100 65
f 69 100 64
f 69 101 100
f 101 102 100
f 101 97 102
f 102 97 99
f 102 99 98
f 102 98 22
f 101 99 97
f 100 102 22
f 69 71 101
f 31 101 71
f 31 107 101
f 31 32 107
f 32 108 107
f 108 106 107
f 108 29 106
f 106 29 103
f 106 103 105
f 29 104 103
f 29 33 104
f 39 33 29
f 33 39 38
f 37 33 38
f 36 37 38
f 26 36 38
f 26 38 39
f 40 36 26
f 41 40 26
f 36 33 37
f 35 33 36
f 35 36 40
f 41 35 40
f 34 35 41
f 42 34 41
f 107 106 105
f 107 105 99
f 101 107 99
f 75 31 71
f 75 72 31
f 72 30 31
f 89 30 72
f 79 89 72
f 79 94 89
f 94 80 89
f 85 89 80
f 85 93 89
f 93 28 89
f 93 92 28
f 92 90 28
f 91 90 92
f 16 91 92
f 16 92 87
f 85 87 92
f 87 85 83
f 82 87 83
f 43 82 83
f 83 44 43
f 82 43 45
f 82 45 47
f 84 82 47
f 84 47 86
f 13 84 86
f 13 86 50
f 86 48 50
f 48 86 49
f 13 50 23
f 23 50 24
f 50 25 24
f 84 13 15
f 15 14 84
f 14 12 84
f 84 12 82
f 12 16 82
f 86 47 49
f 83 85 44
f 85 88 44
f 44 88 46
f 46 88 80
f 46 80 58
f 58 80 79
f 55 58 79
f 55 79 78
f 77 78 79
f 77 79 75
f 77 75 76
f 77 76 54
f 54 53 77
f 53 57 77
f 57 56 77
f 51 54 76
f 51 76 52
f 52 76 59
f 59 76 74
f 76 63 74
f 73 63 76
f 59 74 81
f 59 81 3
f 3 81 1
f 10 3 1
f 1 2 10
f 4 2 1
f 9 2 4
f 1 6 4
f 4 6 7
f 1 5 6
f 76 75 73
f 75 70 73
f 70 61 73
f 73 61 63
f 63 61 62
f 63 62 60
f 74 63 60
f 74 60 66
f 74 66 95
f 95 66 1
f 70 67 61
f 75 67 70
f 75 68 67
f 75 69 68
f 56 78 77
f 56 55 78
f 82 16 87
f 90 27 28
f 85 92 93
f 85 80 88
f 80 94 79
f 79 72 75
f 89 28 30
f 75 71 69
f 100 22 20

