v 0.00638536 -0.113864 0.134567
v 0.0127386 -0.109517 0.13006
v 0.0092666 -0.109704 0.131961
v 0.00772366 -0.12173 0.136643
v 0.0105849 -0.11758 0.133952
v 0.00701058 -0.117819 0.135417
v 0.00987183 -0.11367 0.132726
v 0.00843331 -0.12564 0.137842
v 0.0112548 -0.12149 0.134845
v 0.0140763 -0.117341 0.131848
v 0.0134071 -0.113431 0.13096
v 0.0143902 -0.137187 0.139522
v 0.0135829 -0.13326 0.138295
v 0.00996409 -0.133483 0.140089
v 0.0127756 -0.129333 0.137068
v 0.00915675 -0.129557 0.138862
v 0.0119682 -0.125406 0.135841
v 0.0147797 -0.121255 0.132819
v 0.0112625 -0.141318 0.142263
v 0.00694859 -0.141499 0.143441
v 0.010748 -0.137409 0.141296
v 0.00643416 -0.13759 0.142473
v 0.00315457 -0.145652 0.144898
v 0.00592116 -0.133698 0.141325
v -0.00097023 -0.145834 0.144703
v -0.0050429 -0.145987 0.144427
v 0.00268422 -0.141737 0.143669
v -0.00138845 -0.141891 0.143393
v 0.002266 -0.137794 0.14236
v -0.00553399 -0.142025 0.143251
v -0.00187697 -0.13793 0.142212
v 0.00178004 -0.133834 0.141173
v -0.0024109 -0.133957 0.141113
v 0.00543706 -0.129738 0.140135
v 0.00124611 -0.129862 0.140075
v 0.000712184 -0.125889 0.138976
v 0.000178254 -0.121917 0.137878
v -0.000597834 -0.149796 0.145949
v -0.00478077 -0.149996 0.145518
v 0.00387068 -0.153792 0.145441
v 0.00815591 -0.153644 0.144812
v 0.00793198 -0.149503 0.144775
v 0.00365133 -0.149637 0.145594
v 0.0121923 -0.149355 0.143769
v 0.0117374 -0.145269 0.143247
v 0.0197074 -0.144744 0.13943
v 0.0159294 -0.145076 0.141639
v 0.0234255 -0.144432 0.137165
v 0.0224822 -0.140483 0.136084
v 0.0267697 -0.144184 0.134415
v 0.0297089 -0.144038 0.131358
v 0.0285927 -0.140169 0.130356
v 0.0258983 -0.140231 0.133469
v 0.0312878 -0.140108 0.127233
v 0.0274983 -0.136335 0.129044
v 0.0247988 -0.136389 0.13223
v 0.0237087 -0.132562 0.130855
v 0.0199192 -0.128789 0.132665
v 0.0188291 -0.124962 0.131291
v 0.0324491 -0.143918 0.128112
v 0.0342252 -0.144928 0.125536
v 0.0334027 -0.140436 0.124091
v 0.0303586 -0.136775 0.125947
v 0.0295076 -0.133421 0.124221
v 0.0245684 -0.123361 0.123156
v 0.0296481 -0.136401 0.126812
v 0.0283644 -0.133144 0.125925
v 0.0276597 -0.13277 0.126779
v 0.0270806 -0.129887 0.125038
v 0.026376 -0.129513 0.125891
v 0.0256713 -0.129138 0.126745
v 0.0249666 -0.128764 0.127599
v 0.0257969 -0.12663 0.12415
v 0.0250922 -0.126256 0.125004
v 0.0243875 -0.125881 0.125858
v 0.0236829 -0.125507 0.126712
v 0.0229782 -0.125132 0.127566
v 0.0238085 -0.122999 0.124117
v 0.0231038 -0.122624 0.124971
v 0.0223991 -0.12225 0.125825
v 0.0216944 -0.121875 0.126678
v 0.0209898 -0.121501 0.127532
v 0.0202851 -0.121126 0.128386
v 0.0225247 -0.119742 0.12323
v 0.02182 -0.119367 0.124084
v 0.0211154 -0.118993 0.124937
v 0.0204107 -0.118618 0.125791
v 0.019706 -0.118244 0.126645
v 0.0190013 -0.117869 0.127499
v 0.0182967 -0.117494 0.128353
v 0.0191269 -0.115361 0.124904
v 0.0184223 -0.114987 0.125758
v 0.0177176 -0.114612 0.126612
v 0.0170129 -0.114237 0.127466
v 0.0163082 -0.113863 0.128319
v 0.0156036 -0.113488 0.129173
v 0.0200069 -0.115701 0.123857
v 0.0157382 -0.110463 0.126644
v 0.0147884 -0.110137 0.127768
v 0.0138387 -0.109812 0.128893
v 0.0351813 -0.148186 0.125536
v 0.0230251 -0.118125 0.10566
v 0.0356361 -0.151493 0.124968
v 0.035564 -0.155377 0.124443
v 0.0332009 -0.155675 0.127964
v 0.0335162 -0.151745 0.128648
v 0.0305867 -0.155968 0.131313
v 0.0305536 -0.152032 0.131759
v 0.0274405 -0.152316 0.134767
v 0.0304706 -0.148002 0.131985
v 0.0201684 -0.157442 0.139192
v 0.0241037 -0.152789 0.137542
v 0.0164183 -0.157564 0.141258
v 0.0123897 -0.157649 0.142974
v 0.0205029 -0.153182 0.140082
v 0.00829544 -0.157717 0.144257
v 0.0164275 -0.153335 0.141788
v 0.0123521 -0.153487 0.14349
v 0.0272677 -0.156486 0.134111
v 0.0237806 -0.156983 0.136722
v 0.0292425 -0.163355 0.129069
v 0.0299792 -0.159728 0.130248
v 0.0264857 -0.160243 0.132847
v 0.0229922 -0.160758 0.135445
v 0.0316565 -0.163119 0.125965
v 0.0158065 -0.169466 0.133984
v 0.012573 -0.170068 0.135706
v 0.02577 -0.163877 0.131597
v 0.0225366 -0.164479 0.133318
v 0.0193031 -0.16508 0.13504
v 0.0160696 -0.165682 0.136761
v 0.0195662 -0.161296 0.137817
v 0.0163327 -0.161897 0.139538
v 0.0125719 -0.166411 0.138123
v 0.00855358 -0.16739 0.138775
v 0.0123669 -0.162852 0.140262
v 0.00834863 -0.163832 0.140914
v 0.0337883 -0.162943 0.122657
v 0.0347687 -0.159184 0.123584
v 0.0324029 -0.159481 0.127104
v 0.0357726 -0.162613 0.118892
v 0.0366871 -0.158849 0.119776
v 0.0392043 -0.154736 0.116675
v 0.0373857 -0.155104 0.120592
v 0.0389913 -0.151072 0.117208
v 0.0402703 -0.150344 0.113059
v 0.0404962 -0.14555 0.109297
v 0.0398044 -0.146591 0.11359
v 0.0384725 -0.142968 0.114706
v 0.038426 -0.140768 0.106978
v 0.0386208 -0.141876 0.110734
v 0.03637 -0.137141 0.108565
v 0.036527 -0.138436 0.112328
v 0.0342185 -0.133988 0.110172
v 0.0343755 -0.135283 0.113935
v 0.032067 -0.130834 0.111779
v 0.032224 -0.132129 0.115542
v 0.0299867 -0.129086 0.11711
v 0.0277479 -0.126044 0.118677
v 0.0364145 -0.139826 0.116026
v 0.035726 -0.141315 0.119608
v 0.0340899 -0.136757 0.117586
v 0.0334013 -0.138246 0.121168
v 0.0317652 -0.133688 0.119145
v 0.0294405 -0.130619 0.120705
v 0.0254797 -0.122993 0.120242
v 0.0374232 -0.144285 0.118536
v 0.0233386 -0.119993 0.121814
v 0.0232975 -0.116696 0.114442
v 0.0232754 -0.118452 0.118145
v 0.022149 -0.115781 0.110822
v 0.00572132 -0.109846 0.133544
v 0.0284787 -0.125273 0.105935
v 0.0263542 -0.122133 0.107598
v 0.0242297 -0.118994 0.109262
v 0.0326475 -0.131635 0.10267
v 0.0305789 -0.128437 0.10429
v 0.0336146 -0.13273 0.106421
v 0.0315507 -0.129529 0.108041
v 0.0294869 -0.126329 0.10966
v 0.0274231 -0.123128 0.11128
v 0.0347018 -0.135006 0.101008
v 0.0356087 -0.136057 0.104786
v 0.0368446 -0.138533 0.0993219
v 0.0377822 -0.13975 0.103119
v 0.0381011 -0.142838 0.0932285
v 0.0390088 -0.143291 0.0973262
v 0.0398795 -0.143706 0.101454
v 0.0405315 -0.147444 0.0957962
v 0.0401301 -0.15089 0.0906242
v 0.0386186 -0.154465 0.0860191
v 0.0368908 -0.153759 0.0820652
v 0.0386796 -0.150198 0.08662
v 0.0377778 -0.146218 0.0878558
v 0.0359591 -0.145599 0.0839783
v 0.0347109 -0.141977 0.0854126
v 0.0365747 -0.142492 0.0892616
v 0.0352373 -0.139276 0.0907314
v 0.0369401 -0.140295 0.0943273
v 0.0326504 -0.141466 0.0817033
v 0.0331582 -0.138722 0.0870666
v 0.0313455 -0.135471 0.0889054
v 0.029383 -0.132302 0.0906488
v 0.0313351 -0.133012 0.0939388
v 0.0292826 -0.129892 0.095625
v 0.0272302 -0.126773 0.0973112
v 0.0218913 -0.131413 0.0825658
v 0.022118 -0.128756 0.0871846
v 0.0247152 -0.128976 0.0897698
v 0.0273123 -0.129197 0.0923549
v 0.0223448 -0.126098 0.0918034
v 0.0249419 -0.126319 0.0943885
v 0.0225715 -0.12344 0.0964222
v 0.0251687 -0.123661 0.0990073
v 0.0227983 -0.120783 0.101041
v 0.0238499 -0.134482 0.0801665
v 0.026436 -0.134708 0.0827418
v 0.0244844 -0.131636 0.0851474
v 0.0270705 -0.131861 0.0877227
v 0.0252266 -0.13758 0.0777692
v 0.026563 -0.140728 0.0754885
v 0.0298368 -0.141126 0.0785375
v 0.0277774 -0.144163 0.0737115
v 0.0248956 -0.147526 0.0695752
v 0.0242101 -0.143831 0.0708983
v 0.0209112 -0.147028 0.0671331
v 0.0202882 -0.142985 0.0691673
v 0.00330836 -0.117906 0.13632
v 0.0193195 -0.139383 0.0714414
v 0.017908 -0.136359 0.0740684
v 0.0253737 -0.151437 0.0686882
v 0.0290646 -0.15606 0.0711951
v 0.029096 -0.151876 0.0714061
v 0.0320392 -0.152435 0.0747628
v 0.0349122 -0.153025 0.0782279
v 0.0317212 -0.148433 0.0755797
v 0.0345128 -0.14902 0.0791302
v 0.0311472 -0.160562 0.0745488
v 0.0320687 -0.156517 0.0743219
v 0.0343723 -0.157261 0.0779181
v 0.0365023 -0.158022 0.0816901
v 0.0332524 -0.161333 0.0781265
v 0.0308251 -0.164894 0.0788074
v 0.0329235 -0.165716 0.0822388
v 0.0343091 -0.166306 0.086105
v 0.0352827 -0.166761 0.0902224
v 0.0358864 -0.167156 0.0943648
v 0.0040298 -0.121878 0.137586
v 0.0381449 -0.163713 0.0942185
v 0.0372848 -0.163183 0.0900142
v 0.0378717 -0.158698 0.0857935
v 0.0391316 -0.159359 0.0899017
v 0.0396192 -0.159802 0.094208
v 0.0403151 -0.155609 0.0945045
v 0.0398876 -0.16019 0.0985219
v 0.0399444 -0.160584 0.102805
v 0.0405307 -0.156054 0.0988152
v 0.0412307 -0.156798 0.10322
v 0.0409509 -0.151502 0.0948367
v 0.0411549 -0.152177 0.0992765
v 0.0413588 -0.152852 0.103716
v 0.0410117 -0.148795 0.104232
v 0.0412881 -0.148068 0.099896
v 0.0403699 -0.157387 0.107702
v 0.0411371 -0.153493 0.108173
v 0.0405541 -0.154231 0.112576
v 0.0395353 -0.161233 0.107138
v 0.0396872 -0.158054 0.111967
v 0.0391623 -0.165316 0.106663
v 0.0389152 -0.161916 0.111324
v 0.0381755 -0.165868 0.110691
v 0.0365062 -0.166152 0.114423
v 0.037482 -0.162293 0.115159
v 0.0359184 -0.167242 0.0986326
v 0.0382244 -0.163865 0.0985074
v 0.0382649 -0.164246 0.102769
v 0.0359295 -0.16742 0.102853
v 0.00476056 -0.125801 0.138888
v 0.0351579 -0.162054 0.0817398
v 0.0362019 -0.162608 0.085864
v 0.0281377 -0.159895 0.071481
v 0.0286976 -0.147886 0.0722386
v 0.031058 -0.144535 0.0767575
v 0.0231699 -0.14038 0.0729363
v 0.0218011 -0.137256 0.0753633
v 0.0204322 -0.134132 0.0777903
v 0.0283749 -0.137798 0.0803917
v 0.030819 -0.138227 0.0835912
v 0.0289816 -0.134991 0.0854948
v 0.0368685 -0.149514 0.0827435
v 0.0339266 -0.145046 0.0802208
v 0.039849 -0.155133 0.0901637
v 0.0392609 -0.14691 0.0918541
v 0.0352867 -0.137273 0.0957384
v 0.0332441 -0.13385 0.0974081
v 0.0333823 -0.136145 0.0922742
v 0.0312003 -0.130697 0.099059
v 0.0291565 -0.127554 0.100709
v 0.0271127 -0.124411 0.102359
v 0.0250689 -0.121268 0.10401
v 0.025494 -0.12142 0.116587
v 0.0299068 -0.127674 0.113389
v 0.0277439 -0.124511 0.115
v 0.0252972 -0.119952 0.112894
v 0.0402387 -0.144667 0.10539
v 0.0411354 -0.149482 0.10867
v 0.0387859 -0.147465 0.117778
v 0.0383749 -0.158497 0.115853
v 0.0333645 -0.147795 0.128779
v 0.0273564 -0.148288 0.134996
v 0.0239657 -0.1486 0.13769
v 0.020168 -0.148913 0.139949
v 0.0163893 -0.14917 0.142229
v 0.00406376 -0.157753 0.144678
v -0.000383558 -0.153909 0.145878
v -0.000182721 -0.157853 0.144908
v -0.00435377 -0.158097 0.144875
v 3.14114e-05 -0.161779 0.143785
v -0.00382146 -0.165544 0.141405
v 0.00873965 -0.170708 0.13635
v 0.00450175 -0.167942 0.13892
v 0.000441637 -0.168388 0.13894
v 0.00432395 -0.16473 0.14147
v 0.000263843 -0.165176 0.14149
v 0.00472253 -0.171106 0.136315
v 0.000706239 -0.171502 0.136278
v -0.00331005 -0.171899 0.136241
v -0.00360515 -0.168819 0.138943
v -0.00731243 -0.172199 0.136063
v -0.00760572 -0.169054 0.138658
v -0.0116357 -0.168839 0.137589
v -0.0119923 -0.165536 0.139839
v -0.00792969 -0.165596 0.140744
v -0.0082055 -0.16191 0.142587
v -0.0122878 -0.161944 0.14178
v -0.0084694 -0.158196 0.144329
v -0.0125019 -0.158111 0.143098
v -0.0086593 -0.154178 0.144547
v -0.00884249 -0.15011 0.144459
v 0.0173643 -0.117168 0.129358
v 0.0180426 -0.121075 0.130263
v 0.00501577 -0.174401 0.133867
v 0.001 -0.174737 0.133759
v -0.00301577 -0.175073 0.133651
v -0.00412098 -0.161947 0.143432
v -0.00457318 -0.154084 0.145508
v 0.00746473 -0.145437 0.144219
v 0.0188277 -0.140788 0.138385
v 0.0151989 -0.141101 0.140681
v 0.0216467 -0.136569 0.134982
v 0.0180179 -0.136883 0.137278
v 0.020837 -0.132664 0.133875
v 0.0172082 -0.132977 0.136172
v 0.0163985 -0.129072 0.135065
v 0.0155888 -0.125167 0.133959
v 0.0265889 -0.132472 0.127876
v 0.0226549 -0.128728 0.129522
v 0.0219766 -0.12482 0.128617
f 6 5 7 1
f 7 3 172 1
f 3 7 11 2
f 11 96 100 2
f 6 228 248 4
f 248 278 8 4
f 8 17 9 4
f 9 5 6 4
f 9 18 10 5
f 10 11 7 5
f 278 34 16 8
f 16 15 17 8
f 17 355 18 9
f 18 341 340 10
f 340 96 11 10
f 13 14 21 12
f 21 19 349 12
f 349 348 351 12
f 351 353 13 12
f 15 16 14 13
f 353 354 15 13
f 16 34 24 14
f 24 22 21 14
f 354 355 17 15
f 355 59 341 18
f 21 22 20 19
f 20 347 45 19
f 45 47 349 19
f 22 29 27 20
f 27 23 347 20
f 24 32 29 22
f 27 28 25 23
f 25 38 43 23
f 43 42 347 23
f 34 35 32 24
f 28 30 26 25
f 26 39 38 25
f 29 31 28 27
f 32 33 31 29
f 278 36 35 34
f 278 248 37 36
f 39 346 315 38
f 315 40 43 38
f 339 338 346 39
f 315 316 314 40
f 314 116 41 40
f 41 42 43 40
f 116 114 118 41
f 118 44 42 41
f 44 45 347 42
f 118 117 313 44
f 313 47 45 44
f 348 349 47 46
f 47 313 312 46
f 312 311 48 46
f 48 49 348 46
f 311 310 50 48
f 50 53 49 48
f 350 351 348 49
f 53 56 350 49
f 310 110 51 50
f 51 52 53 50
f 110 309 60 51
f 60 54 52 51
f 55 56 53 52
f 54 66 55 52
f 60 61 62 54
f 356 57 56 55
f 66 68 356 55
f 57 352 350 56
f 357 58 352 57
f 356 72 357 57
f 59 355 354 58
f 354 353 352 58
f 357 358 59 58
f 358 83 341 59
f 309 101 61 60
f 67 68 66 63
f 69 70 67 64
f 84 85 78 65
f 70 71 68 67
f 71 72 356 68
f 74 75 70 69
f 75 76 71 70
f 76 77 72 71
f 77 358 357 72
f 78 79 74 73
f 79 80 75 74
f 80 81 76 75
f 81 82 77 76
f 82 83 358 77
f 85 86 79 78
f 86 87 80 79
f 87 88 81 80
f 88 89 82 81
f 89 90 83 82
f 90 340 341 83
f 97 91 86 85
f 91 92 87 86
f 92 93 88 87
f 93 94 89 88
f 94 95 90 89
f 95 96 340 90
f 98 99 95 94
f 99 100 96 95
f 309 106 103 101
f 106 105 104 103
f 105 140 139 104
f 106 108 107 105
f 107 122 140 105
f 309 110 108 106
f 108 109 119 107
f 119 123 122 107
f 110 310 109 108
f 310 311 112 109
f 112 120 119 109
f 115 117 113 111
f 132 124 120 111
f 120 112 115 111
f 311 312 115 112
f 117 118 114 113
f 312 313 117 115
f 120 124 123 119
f 122 123 128 121
f 125 140 122 121
f 124 129 128 123
f 132 130 129 124
f 138 139 140 125
f 131 134 127 126
f 134 135 320 127
f 132 133 131 130
f 133 136 134 131
f 136 137 135 134
f 137 323 321 135
f 321 325 320 135
f 141 142 139 138
f 273 308 142 141
f 308 143 144 142
f 308 268 266 143
f 266 146 145 143
f 146 148 307 145
f 266 265 306 146
f 306 147 148 146
f 151 149 148 147
f 306 262 305 147
f 305 150 151 147
f 149 167 307 148
f 160 161 167 149
f 151 153 160 149
f 152 153 151 150
f 305 188 185 150
f 185 183 152 150
f 154 155 153 152
f 183 178 154 152
f 155 162 160 153
f 156 157 155 154
f 178 179 156 154
f 157 164 162 155
f 302 158 157 156
f 179 180 302 156
f 158 165 164 157
f 302 303 159 158
f 303 301 166 159
f 162 163 161 160
f 301 170 168 166
f 170 301 304 169
f 304 175 171 169
f 174 181 180 173
f 180 179 177 173
f 177 298 299 173
f 299 300 174 173
f 175 304 181 174
f 300 102 175 174
f 177 179 178 176
f 178 183 182 176
f 182 295 297 176
f 297 298 177 176
f 181 303 302 180
f 304 301 303 181
f 183 185 184 182
f 185 188 187 184
f 187 189 293 186
f 188 263 189 187
f 305 262 263 188
f 263 260 259 189
f 259 190 293 189
f 259 254 292 190
f 292 191 193 190
f 193 194 293 190
f 292 252 251 191
f 251 241 192 191
f 192 290 193 191
f 241 240 235 192
f 235 237 290 192
f 290 195 194 193
f 195 196 197 194
f 290 237 291 195
f 291 200 196 195
f 201 198 197 196
f 200 288 201 196
f 296 294 199 198
f 201 202 296 198
f 291 283 222 200
f 222 287 288 200
f 288 289 202 201
f 203 204 296 202
f 289 219 203 202
f 210 205 204 203
f 219 209 210 203
f 205 297 295 204
f 295 294 296 204
f 206 298 297 205
f 210 212 206 205
f 214 299 298 206
f 212 213 214 206
f 218 217 216 207
f 209 219 218 208
f 211 212 210 209
f 215 300 299 214
f 217 287 220 216
f 220 285 286 216
f 218 219 289 217
f 289 288 287 217
f 287 222 221 220
f 221 284 285 220
f 222 283 223 221
f 223 225 284 221
f 283 236 282 223
f 282 224 225 223
f 282 233 231 224
f 226 227 225 224
f 227 229 284 225
f 230 285 284 229
f 233 234 239 232
f 239 238 281 232
f 282 236 234 233
f 236 237 235 234
f 235 240 239 234
f 283 291 237 236
f 239 240 242 238
f 241 279 242 240
f 251 280 279 241
f 279 244 243 242
f 279 280 245 244
f 280 250 246 245
f 250 249 247 246
f 249 275 274 247
f 253 255 275 249
f 250 252 253 249
f 280 251 252 250
f 292 254 253 252
f 254 257 255 253
f 259 260 257 254
f 257 258 256 255
f 256 276 275 255
f 258 264 267 256
f 260 261 258 257
f 261 265 264 258
f 263 262 261 260
f 262 306 265 261
f 265 266 268 264
f 268 270 267 264
f 270 271 269 267
f 308 273 270 268
f 273 272 271 270
f 275 276 277 274
f 346 317 316 315
f 317 345 318 316
f 346 338 336 317
f 336 334 345 317
f 345 319 324 318
f 345 334 333 319
f 333 330 328 319
f 328 322 324 319
f 323 324 322 321
f 322 326 325 321
f 328 327 326 322
f 326 343 342 325
f 327 344 343 326
f 328 330 329 327
f 333 332 331 330
f 333 334 335 332
f 336 337 335 334
f 352 353 351 350
