# https://github.com/mikedh/trimesh
v -0.09196075 -0.21162900 -0.16265200
v -0.06797800 -0.26700100 -0.18293400
v -0.07488900 -0.25922599 -0.18004900
v -0.08408300 -0.24105851 -0.17314700
v -0.06449750 -0.27181300 -0.18454150
v -0.11287900 -0.19439200 -0.15541200
v -0.09541200 -0.20318399 -0.15992001
v -0.09266100 0.06427500 -0.12709600
v -0.11092200 0.04897400 -0.12784300
v -0.10281975 0.02088775 -0.13304275
v -0.08263050 -0.04666650 -0.14324100
v -0.07466400 -0.06130600 -0.14540900
v -0.09075475 -0.14852800 -0.15112200
v -0.08922600 -0.01367700 -0.13925700
v -0.10739100 0.06175475 -0.12593337
v -0.03364500 -0.30337550 -0.19235199
v -0.05564950 -0.28221200 -0.18771349
v -0.01655250 -0.31497574 -0.19360426
v 0.02787300 -0.34160701 -0.19222800
v 0.06796950 -0.36901450 -0.18591188
v 0.08796300 -0.38383001 -0.18129300
v -0.00358200 -0.32131100 -0.19382501
v 0.10965050 -0.39995162 -0.17498213
v 0.13845100 -0.40960899 -0.16793101
v 0.23957862 -0.42427137 -0.13037288
v 0.17812601 -0.41375700 -0.15726499
v 0.16843399 -0.41297901 -0.16027901
v 0.14262800 -0.41671899 -0.16549499
v 0.15738100 -0.41298851 -0.16304950
v 0.20792000 -0.41868299 -0.14549901
v 0.22795725 -0.41802824 -0.13681200
v 0.21387300 -0.41674301 -0.14362501
v 0.24640900 -0.41962200 -0.12570100
v 0.18977649 -0.20417865 -0.13850500
v 0.18869009 -0.21561927 -0.14155629
v 0.20048475 -0.20827750 -0.13439150
v 0.18898505 -0.16859561 -0.13275871
v 0.20443501 -0.21839800 -0.13486899
v 0.09577429 -0.17186792 -0.15428189
v 0.08253725 -0.14773024 -0.15279022
v 0.07651830 -0.16844501 -0.15573839
v 0.06469522 -0.17016010 -0.15699252
v 0.06631625 -0.15476481 -0.15497696
v 0.04309431 -0.17994076 -0.15969564
v 0.06563984 -0.18809902 -0.15975616
v 0.02640186 -0.20446786 -0.16507249
v 0.04861137 -0.21069064 -0.16567905
v 0.08106024 -0.20787698 -0.16251959
v 0.05318184 -0.19982492 -0.16287884
v 0.00277579 -0.20909890 -0.16664860
v 0.01966674 -0.17060739 -0.15907704
v 0.00188935 -0.17102289 -0.15929940
v -0.01145752 -0.18607575 -0.16171455
v -0.00762844 -0.19932701 -0.16431730
v -0.03777795 -0.19874983 -0.16352197
v 0.00984253 -0.20397216 -0.16537505
v -0.02167421 -0.20870431 -0.16629373
v -0.02913826 -0.18715855 -0.16147494
v -0.05843933 -0.19511864 -0.16166207
v -0.06935155 -0.18032321 -0.15785750
v -0.07452206 -0.19148599 -0.15956122
v -0.07645853 -0.21005666 -0.16378412
v -0.05420561 -0.20712720 -0.16465117
v -0.04448363 -0.18054223 -0.15963230
v -0.02108497 -0.11786784 -0.15383563
v -0.00037500 -0.08377800 -0.15145400
v -0.01754440 -0.06951394 -0.15008496
v -0.01432639 -0.05228615 -0.14869789
v -0.00308900 -0.02646600 -0.14619800
v -0.01304653 -0.01159770 -0.14430950
v -0.00131558 -0.01147571 -0.14446782
v 0.00299905 0.02567742 -0.13870016
v 0.02311800 0.02944600 -0.13763200
v 0.06965257 0.03232892 -0.13516423
v 0.04468335 0.03952563 -0.13504589
v 0.04160600 0.05447300 -0.13225999
v 0.01212363 0.04135949 -0.13538793
v 0.02948300 0.03933100 -0.13548200
v 0.00906471 0.01072365 -0.14122287
v -0.01994003 -0.02265768 -0.14557818
v -0.04420548 -0.03077545 -0.14539282
v -0.03885819 -0.03625079 -0.14621990
v -0.03030991 -0.04148588 -0.14714367
v -0.01907626 -0.04127891 -0.14753413
v -0.02671986 0.00668343 -0.14141525
v -0.02322493 0.00667071 -0.14158521
v -0.03777224 0.00580535 -0.14110604
v -0.04360987 -0.00053442 -0.14175650
v -0.04737515 -0.01554268 -0.14349280
v -0.05763259 -0.03187635 -0.14451601
v -0.04662407 -0.05571647 -0.14754130
v -0.06793054 -0.11794978 -0.15068070
v -0.08015822 -0.15685169 -0.15333709
v -0.05575334 -0.13817984 -0.15365635
v -0.05236717 -0.10412828 -0.15093550
v -0.03485831 -0.07146004 -0.14948592
v -0.04814455 -0.08380831 -0.14964747
v -0.07296897 -0.16798388 -0.15570869
v -0.04024068 -0.14981021 -0.15589729
v -0.03408108 -0.16097209 -0.15739801
v -0.04714159 -0.17144675 -0.15807775
v -0.06551800 -0.15293001 -0.15443100
v -0.07510148 -0.16358541 -0.15482539
v -0.09524736 -0.19011652 -0.15697259
v -0.09482200 -0.18631200 -0.15628800
v -0.08156747 -0.14361332 -0.15162219
v -0.07596642 -0.03580941 -0.14311222
v -0.06288840 -0.07283095 -0.14752493
v -0.03905381 0.01998439 -0.13893681
v -0.02685347 0.03915909 -0.13570314
v -0.05274030 0.04403641 -0.13396241
v -0.08203709 0.02095168 -0.13573282
v -0.07764453 -0.01316417 -0.14068628
v -0.08453059 -0.01690872 -0.14028735
v -0.06203159 0.00832693 -0.13936388
v -0.07240465 0.04023492 -0.13355656
v -0.09024417 0.03579257 -0.13270230
v -0.08862528 0.00943162 -0.13655416
v -0.09739483 0.05441140 -0.12867600
v -0.10858641 0.05016885 -0.12809098
v -0.06710736 0.04986699 -0.13204830
v -0.07291950 0.05839200 -0.12988800
v -0.06152875 0.05636525 -0.13141550
v -0.04453152 0.04359782 -0.13432024
v -0.08463321 -0.19068838 -0.15830544
v 0.01392261 0.04995051 -0.13326142
v 0.05501518 0.05650111 -0.13080910
v 0.08949238 0.05812781 -0.12822683
v 0.07656545 0.06389504 -0.12819381
v -0.03446309 -0.13137495 -0.15436196
v -0.03540191 -0.21715923 -0.16825430
v 0.01797522 -0.18433577 -0.16128295
v 0.01249754 -0.21887153 -0.16916541
v 0.02809156 -0.21961891 -0.16902977
v 0.10219631 -0.15152902 -0.15095554
v 0.11153651 -0.12368037 -0.14699451
v 0.11859557 -0.09441514 -0.14346619
v 0.10124924 -0.03697758 -0.14112674
v 0.11058000 -0.01429672 -0.13725388
v 0.11161875 0.00173010 -0.13505980
v 0.10747327 0.03460627 -0.13072567
v 0.10404792 0.07627589 -0.12240886
v 0.12051624 0.08737326 -0.11710505
v 0.13434650 0.07969200 -0.11637300
v 0.11141686 0.06763699 -0.12369705
v 0.12937508 0.06179735 -0.12185077
v 0.14028113 0.04985476 -0.12184906
v 0.14269300 0.07162900 -0.11646200
v 0.14065599 0.07545100 -0.11602400
v 0.13841268 0.06695453 -0.11871784
v 0.15042751 0.06851650 -0.11488050
v 0.15076954 0.06300089 -0.11618208
v 0.15885100 0.07381200 -0.11059000
v 0.14451000 0.05526900 -0.11958300
v 0.14296541 0.03088458 -0.12457785
v 0.15316859 -0.00825215 -0.12750924
v 0.14231806 0.01136368 -0.12764714
v 0.11930645 0.05396662 -0.12528373
v 0.11584129 0.03056903 -0.13012841
v 0.12100664 0.02674009 -0.12993946
v 0.11147980 -0.03772811 -0.13988064
v 0.12311156 -0.04296760 -0.13819343
v 0.13624787 -0.01947776 -0.13298494
v 0.14427400 -0.02488600 -0.13165100
v 0.14228869 -0.04585146 -0.13435467
v 0.13485754 -0.05600912 -0.13703174
v 0.13429937 -0.07066237 -0.13843644
v 0.13734048 -0.09289961 -0.13963763
v 0.14469938 -0.05263533 -0.13454382
v 0.15430057 -0.03047658 -0.12974013
v 0.16045066 -0.03703475 -0.12872321
v 0.13395635 -0.12099484 -0.14288487
v 0.13072352 -0.09080060 -0.14087783
v 0.13492811 -0.14555274 -0.14510583
v 0.12033834 -0.14618672 -0.14777242
v 0.09911713 -0.15694435 -0.15196632
v 0.10705964 -0.18254228 -0.15443074
v 0.11103515 -0.17376450 -0.15257277
v 0.09514801 -0.18106203 -0.15576995
v 0.09499557 -0.18981941 -0.15732941
v 0.07156245 -0.20133826 -0.16186572
v 0.08256500 -0.18195701 -0.15727200
v 0.08631626 -0.21553918 -0.16390839
v 0.09353328 -0.20475584 -0.16044717
v 0.11280104 -0.21912141 -0.16146145
v 0.09559337 -0.21795618 -0.16345524
v 0.06813495 -0.21781419 -0.16624569
v 0.04630407 -0.21806343 -0.16775986
v -0.01184523 -0.22435853 -0.17098453
v -0.01530300 -0.21828599 -0.16905800
v -0.07461329 -0.21938311 -0.16669294
v -0.06766298 -0.22431226 -0.16882696
v -0.05798320 -0.22750923 -0.17049486
v -0.02973800 -0.22834300 -0.17196199
v -0.04055529 -0.24870292 -0.17854329
v -0.05625095 -0.25431745 -0.17971977
v -0.05014330 -0.26524557 -0.18344577
v -0.04181821 -0.26255847 -0.18301845
v -0.01120981 -0.25246338 -0.18042683
v -0.01731475 -0.26847951 -0.18526893
v -0.04199215 -0.27281639 -0.18606548
v -0.03091436 -0.28123937 -0.18844301
v -0.03960907 -0.29051634 -0.19028857
v -0.01261912 -0.28122975 -0.18856986
v 0.00118485 -0.26693443 -0.18469596
v 0.00360954 -0.25523118 -0.18115779
v -0.00327285 -0.23439634 -0.17429406
v 0.00770600 -0.24482100 -0.17761900
v 0.03614500 -0.22196700 -0.16942400
v 0.02525767 -0.23624173 -0.17439684
v 0.06003313 -0.23416947 -0.17179398
v 0.02974491 -0.25668119 -0.18075993
v 0.02434317 -0.26934093 -0.18470581
v 0.02164437 -0.27857012 -0.18721344
v 0.00638999 -0.28004782 -0.18810097
v -0.01580928 -0.29009707 -0.19049837
v -0.00892650 -0.30043199 -0.19221640
v 0.03029017 -0.28694488 -0.18857616
v 0.04104011 -0.26147457 -0.18158664
v 0.08275129 -0.22460121 -0.16684190
v 0.05898182 -0.25784532 -0.17913312
v 0.04358459 -0.27645587 -0.18548103
v 0.04776659 -0.26892493 -0.18307410
v 0.05858288 -0.27373080 -0.18336493
v 0.07351032 -0.26518892 -0.17976420
v 0.09061012 -0.24638727 -0.17251396
v 0.10307158 -0.23961443 -0.16880732
v 0.09272600 -0.25867200 -0.17564100
v 0.09778263 -0.26782499 -0.17736742
v 0.11573897 -0.25148274 -0.17028870
v 0.12557647 -0.25449890 -0.16938335
v 0.12463400 -0.23650488 -0.16443385
v 0.13552500 -0.22629100 -0.15952501
v 0.10568805 -0.27354715 -0.17745821
v 0.07802666 -0.27827435 -0.18241211
v 0.05795463 -0.28330676 -0.18562191
v 0.03360485 -0.29414083 -0.18963189
v 0.00705643 -0.29532457 -0.19114819
v 0.04134399 -0.29656246 -0.18954674
v 0.06678149 -0.29210386 -0.18642136
v 0.09752847 -0.28244736 -0.18066103
v 0.12193082 -0.26793832 -0.17343880
v 0.13543159 -0.25896835 -0.16853909
v 0.13967338 -0.26217888 -0.16849352
v 0.14164568 -0.22618446 -0.15821820
v 0.14544373 -0.21173691 -0.15367602
v 0.15369379 -0.19414561 -0.14810824
v 0.17201906 -0.20735271 -0.14576796
v 0.14406800 -0.20181499 -0.15179400
v 0.12395608 -0.20514831 -0.15641599
v 0.13754701 -0.18037620 -0.14927138
v 0.15269423 -0.18379053 -0.14658753
v 0.14385643 -0.16716045 -0.14596970
v 0.15937479 -0.12664865 -0.13751346
v 0.15128772 -0.09352365 -0.13639127
v 0.14546600 -0.12516600 -0.14074001
v 0.14133905 -0.14763317 -0.14400324
v 0.15295415 -0.06392952 -0.13345651
v 0.17292589 -0.14107409 -0.13513438
v 0.17016733 -0.12267661 -0.13389200
v 0.17050607 -0.06152792 -0.12805286
v 0.16421161 -0.05180838 -0.12922392
v 0.17405010 -0.03506945 -0.12405970
v 0.16582739 -0.00815834 -0.12371965
v 0.15767470 0.01128075 -0.12349643
v 0.16335285 0.03437620 -0.11774636
v 0.16104604 0.03653847 -0.11820798
v 0.15215807 0.04886372 -0.11875466
v 0.17416389 -0.00342261 -0.11997469
v 0.17629179 -0.01415589 -0.12072320
v 0.16378245 0.02474815 -0.11938954
v 0.17444952 0.01929073 -0.11614013
v 0.17146300 0.02747400 -0.11589500
v 0.17986629 0.01100720 -0.11533532
v 0.16845899 0.04672235 -0.11343294
v 0.17319467 0.05565223 -0.10914312
v 0.16353799 0.08402500 -0.10561500
v 0.16231300 0.08978700 -0.10429200
v 0.17583650 0.08184588 -0.10005925
v 0.15434500 0.07555225 -0.11175638
v 0.18603128 0.00094788 -0.11425786
v 0.18519481 -0.00672742 -0.11580905
v 0.17928338 -0.03314261 -0.12200277
v 0.18231194 -0.11194835 -0.12867415
v 0.20161709 -0.14918835 -0.12444986
v 0.19115555 -0.10697560 -0.12480089
v 0.18963363 -0.04043631 -0.11843674
v 0.18711687 -0.05739822 -0.12144648
v 0.19213243 -0.12421623 -0.12592758
v 0.20165556 -0.08000052 -0.11707227
v 0.19726267 -0.02786269 -0.11289673
v 0.19905729 -0.00320935 -0.10801200
v 0.18122394 0.03206207 -0.11074179
v 0.18811570 0.04442899 -0.10422226
v 0.16712313 0.07481124 -0.10696766
v 0.16678735 0.07101434 -0.10825590
v 0.18001566 0.05387494 -0.10630064
v 0.19419912 0.01895540 -0.10652335
v 0.19852041 0.00320737 -0.10702084
v 0.20033851 0.04897650 -0.09515700
v 0.20342505 0.01328313 -0.10169350
v 0.20471439 -0.01224433 -0.10600004
v 0.20613299 -0.04596300 -0.11048200
v 0.20659907 -0.05360191 -0.11134614
v 0.21160885 -0.11103780 -0.11462923
v 0.21726030 -0.09136880 -0.10941099
v 0.21291879 -0.13169561 -0.11610366
v 0.20820066 -0.14389170 -0.12036095
v 0.20461725 -0.17421236 -0.12627672
v 0.20102300 -0.19010301 -0.13059250
v 0.21637391 -0.16150146 -0.11765872
v 0.20863849 -0.18447100 -0.12549650
v 0.22235200 -0.16774701 -0.11439800
v 0.22338900 -0.17894300 -0.11501900
v 0.22125299 -0.17952301 -0.11659800
v 0.21809449 -0.18431351 -0.11937000
v 0.21698411 -0.11837298 -0.11187208
v 0.22166600 -0.12205800 -0.10915275
v 0.21987193 -0.08010444 -0.10619988
v 0.21331686 -0.05038981 -0.10659486
v 0.20894459 -0.02748401 -0.10591097
v 0.20326207 0.02377036 -0.09953451
v 0.18905634 0.05609535 -0.10084210
v 0.20792974 0.03077082 -0.09423244
v 0.21201700 0.03078000 -0.09083000
v 0.21505437 0.00871300 -0.09397950
v 0.21993750 0.00380600 -0.09092100
v 0.21405563 -0.00287914 -0.09738266
v 0.22344050 -0.02655050 -0.09464250
v 0.21161237 -0.02511581 -0.10381236
v 0.22113474 -0.03339399 -0.09805798
v 0.22867100 -0.07244300 -0.09863000
v 0.23249700 -0.08625800 -0.09773450
v 0.22765701 -0.09888100 -0.10304700
v 0.23711400 -0.09981700 -0.09614900
v 0.22707678 -0.08443729 -0.10175025
v 0.19927513 -0.04338336 -0.11409616
v 0.18983872 0.00417075 -0.11177532
v 0.18687995 -0.18978295 -0.13698585
v 0.17469226 -0.18017020 -0.13976640
v 0.17039970 -0.19453703 -0.14363646
v 0.17932077 -0.17455107 -0.13729971
v 0.16764031 -0.15605694 -0.13866698
v 0.13223816 -0.18188527 -0.15047981
v 0.12385215 -0.16816331 -0.14984760
v 0.11912609 -0.18708500 -0.15351427
v 0.11082877 -0.20632101 -0.15860645
v 0.12793059 -0.21956783 -0.15913143
v 0.15747599 -0.21926450 -0.15255659
v 0.15160588 -0.22599527 -0.15584591
v 0.13967139 -0.27670337 -0.17173447
v 0.12601416 -0.27452796 -0.17407330
v 0.12260407 -0.28454360 -0.17675055
v 0.10279637 -0.29422571 -0.18183347
v 0.08534994 -0.29309350 -0.18423178
v 0.05670652 -0.30303467 -0.18908690
v 0.08611333 -0.30481984 -0.18571740
v 0.11132818 -0.29300138 -0.18021041
v 0.10772542 -0.30849847 -0.18280593
v 0.07049785 -0.31175701 -0.18835696
v 0.05933046 -0.31126546 -0.18953165
v 0.04600810 -0.31631225 -0.19118333
v 0.01053620 -0.31922165 -0.19340744
v 0.02620130 -0.30754200 -0.19194217
v -0.00493665 -0.30868739 -0.19310193
v 0.02963267 -0.33422575 -0.19258056
v 0.03899468 -0.32502482 -0.19202816
v 0.03890985 -0.33323665 -0.19190151
v 0.09195671 -0.32640985 -0.18623533
v 0.09772007 -0.32158747 -0.18529223
v 0.10039759 -0.32869753 -0.18490156
v 0.07439183 -0.32509027 -0.18849587
v 0.07589868 -0.34117650 -0.18807647
v 0.06076129 -0.33547419 -0.18992829
v 0.04749600 -0.33349299 -0.19117799
v 0.04906738 -0.34714757 -0.19041262
v 0.07147566 -0.34832433 -0.18813153
v 0.07218447 -0.35733527 -0.18715773
v 0.08368062 -0.34070564 -0.18705693
v 0.10356250 -0.33459287 -0.18438142
v 0.09488342 -0.34449609 -0.18529251
v 0.08344460 -0.37068556 -0.18406287
v 0.10882046 -0.38069511 -0.17907422
v 0.08297324 -0.35749409 -0.18592850
v 0.11585909 -0.36003553 -0.18075311
v 0.12726674 -0.33474557 -0.18003903
v 0.11412139 -0.32720033 -0.18255295
v 0.13183953 -0.30105565 -0.17740823
v 0.11879671 -0.29997035 -0.17983829
v 0.15532516 -0.26889365 -0.16630846
v 0.15432562 -0.26007930 -0.16440678
v 0.14790084 -0.25048580 -0.16355740
v 0.16544425 -0.25637398 -0.16041160
v 0.17383892 -0.24646482 -0.15523549
v 0.17069399 -0.22276929 -0.14984518
v 0.18431843 -0.24609166 -0.15170459
v 0.19099626 -0.25086955 -0.15049805
v 0.18516246 -0.26535585 -0.15639338
v 0.17727614 -0.26903210 -0.15990397
v 0.16564497 -0.27930193 -0.16563260
v 0.15340418 -0.28306287 -0.16970779
v 0.14346656 -0.28904671 -0.17310384
v 0.15009830 -0.29323385 -0.17228450
v 0.17239514 -0.29630514 -0.16668632
v 0.14997986 -0.30352491 -0.17379300
v 0.13144375 -0.31005531 -0.17850688
v 0.14199278 -0.33371744 -0.17701890
v 0.14089796 -0.33933269 -0.17708399
v 0.13509300 -0.33633000 -0.17839301
v 0.13106216 -0.34398817 -0.17897527
v 0.11044388 -0.34763220 -0.18261199
v 0.10070066 -0.37095016 -0.18167659
v 0.13586363 -0.35736607 -0.17712589
v 0.14543911 -0.34563711 -0.17588519
v 0.16459055 -0.33332051 -0.17151872
v 0.16347556 -0.31694096 -0.17129260
v 0.14956550 -0.32285339 -0.17507757
v 0.16817901 -0.30851400 -0.16927300
v 0.16940373 -0.31113716 -0.16918354
v 0.18201351 -0.30234878 -0.16434208
v 0.18626927 -0.28753699 -0.16063561
v 0.19437075 -0.28875699 -0.15793149
v 0.18449901 -0.28355297 -0.16058255
v 0.19262961 -0.26929168 -0.15456449
v 0.21255925 -0.28878529 -0.15032713
v 0.20228755 -0.27167955 -0.15127206
v 0.20957264 -0.29976889 -0.15363408
v 0.21958568 -0.29271018 -0.14768193
v 0.22134026 -0.30325085 -0.14866262
v 0.22334975 -0.28208113 -0.14362399
v 0.21652005 -0.26639125 -0.14334438
v 0.20358106 -0.25757227 -0.14720941
v 0.19678509 -0.21144989 -0.13675981
v 0.18852190 -0.22138662 -0.14318648
v 0.20875099 -0.24198300 -0.14003301
v 0.22088924 -0.25167558 -0.13655603
v 0.21089221 -0.24365441 -0.13948921
v 0.22827122 -0.26486789 -0.13635679
v 0.23223600 -0.26605950 -0.13411600
v 0.23106895 -0.28286367 -0.13969918
v 0.25076500 -0.30544701 -0.13177900
v 0.24936000 -0.31119600 -0.13363500
v 0.21207977 -0.30574912 -0.15327889
v 0.20065143 -0.29862334 -0.15705533
v 0.20029111 -0.28091780 -0.15414327
v 0.19248495 -0.30448661 -0.16100667
v 0.18745601 -0.31070600 -0.16355677
v 0.20214211 -0.32771805 -0.15921644
v 0.18582900 -0.32201901 -0.16476400
v 0.16969583 -0.32367766 -0.17001016
v 0.17549392 -0.34003336 -0.16830207
v 0.18883972 -0.33284946 -0.16412157
v 0.19391916 -0.32442555 -0.16205739
v 0.21079324 -0.32373968 -0.15538484
v 0.21458686 -0.33882778 -0.15404140
v 0.20606975 -0.34547392 -0.15755194
v 0.22830407 -0.34193714 -0.14750909
v 0.22388461 -0.32101473 -0.14918918
v 0.22485448 -0.31215070 -0.14804474
v 0.23132049 -0.33316297 -0.14597921
v 0.24233833 -0.30414734 -0.13717437
v 0.24511141 -0.32402996 -0.13781303
v 0.25262425 -0.32201201 -0.13268650
v 0.24026050 -0.34076666 -0.14114019
v 0.24201399 -0.35380288 -0.13989437
v 0.25327650 -0.35298599 -0.13287350
v 0.24718125 -0.33395569 -0.13696998
v 0.25665999 -0.33830450 -0.13077250
v 0.24792548 -0.32349116 -0.13589475
v 0.25701001 -0.35027200 -0.13050900
v 0.22334646 -0.35133908 -0.14969384
v 0.22995569 -0.36457493 -0.14549195
v 0.21858672 -0.36970876 -0.15046026
v 0.21143668 -0.36831556 -0.15363690
v 0.20671250 -0.36540036 -0.15598695
v 0.19693655 -0.35196513 -0.16065007
v 0.19742977 -0.34330148 -0.16089194
v 0.18349573 -0.34700837 -0.16556528
v 0.18103717 -0.34614351 -0.16632301
v 0.16926222 -0.34622200 -0.16980289
v 0.16235433 -0.35208149 -0.17130627
v 0.16677400 -0.35959463 -0.16963993
v 0.14910397 -0.36194047 -0.17377757
v 0.12634017 -0.37803016 -0.17661373
v 0.13408046 -0.38210731 -0.17448111
v 0.15131005 -0.37120364 -0.17227633
v 0.14573295 -0.39329076 -0.16995928
v 0.11488319 -0.39364859 -0.17565787
v 0.13597474 -0.39851121 -0.17097817
v 0.16226186 -0.40897511 -0.16289127
v 0.16408192 -0.38628957 -0.16693966
v 0.16938201 -0.38455001 -0.16569699
v 0.16380957 -0.38296827 -0.16745930
v 0.17538685 -0.37117487 -0.16596227
v 0.18195964 -0.36550317 -0.16469280
v 0.19249269 -0.37197686 -0.16044413
v 0.18364269 -0.38180315 -0.16211006
v 0.19149899 -0.38748199 -0.15848900
v 0.18286799 -0.39756123 -0.15954672
v 0.20225045 -0.39583913 -0.15320296
v 0.18607240 -0.41236231 -0.15520085
v 0.19802134 -0.40441763 -0.15298453
v 0.21126432 -0.39530166 -0.14985764
v 0.21950618 -0.39785248 -0.14563083
v 0.21976075 -0.41284200 -0.14218238
v 0.20458890 -0.41658150 -0.14737803
v 0.20251607 -0.38484789 -0.15514071
v 0.17387139 -0.39969122 -0.16175920
v 0.22861885 -0.37719168 -0.14482554
v 0.24875899 -0.37891999 -0.13325650
v 0.23788903 -0.37753171 -0.13987428
v 0.24968950 -0.36887950 -0.13393250
v 0.24395821 -0.39246559 -0.13393032
v 0.25227500 -0.39608199 -0.12792974
v 0.23406367 -0.39939814 -0.13824949
v 0.24551927 -0.40168313 -0.13099012
v 0.24935733 -0.41482653 -0.12516425
v 0.23015581 -0.39064912 -0.14201497
v 0.23548480 -0.41789059 -0.13289144
v 0.23612898 -0.34870281 -0.14328189
v 0.23543098 -0.35910926 -0.14310760
v 0.25076648 -0.35181891 -0.13476047
v 0.25321901 -0.35915500 -0.13258900
v 0.16771484 -0.21993170 -0.14990135
v -0.05094531 -0.22230327 -0.16918881
v -0.01436716 -0.21580066 -0.16836045
v 0.13108541 0.00903604 -0.13057268
v 0.08928733 0.04158557 -0.13164780
v 0.03858489 0.01409283 -0.14005042
v 0.00866509 -0.01752463 -0.14515675
v 0.01856666 -0.01221846 -0.14443319
v 0.05573600 0.00048441 -0.14116212
v 0.06930604 0.00168718 -0.14006722
v 0.04342800 -0.00687534 -0.14295607
v 0.00688920 -0.03171260 -0.14680491
v 0.00035078 -0.09539144 -0.15242338
v -0.00747390 -0.13732184 -0.15566236
v -0.01806123 -0.12856071 -0.15474317
v -0.01974238 -0.16654971 -0.15851277
v -0.00025100 -0.14200200 -0.15618899
v 0.00967918 -0.14091023 -0.15606561
v 0.01054184 -0.11261715 -0.15372567
v 0.02381378 -0.04764851 -0.14817767
v 0.01061353 -0.05199462 -0.14882519
v 0.04047658 -0.03152669 -0.14597468
v 0.04162002 -0.05027896 -0.14779857
v 0.05852813 -0.02350097 -0.14409662
v 0.07457642 -0.03184838 -0.14371631
v 0.08542943 0.00425771 -0.13821084
v 0.09898513 0.00160545 -0.13708497
v 0.09134433 0.03385055 -0.13297033
v 0.08888408 0.04953883 -0.13012548
v 0.08730810 -0.01066574 -0.14000551
v 0.06002520 -0.04450149 -0.14614784
v 0.08178378 -0.05760869 -0.14542278
v 0.09050704 -0.04244900 -0.14308994
v 0.02912973 -0.11333009 -0.15336160
v 0.01413068 -0.15573060 -0.15749457
v 0.04242256 -0.15928418 -0.15694092
v 0.04347113 -0.13770796 -0.15482156
v 0.04015643 -0.12472497 -0.15386090
v 0.05157636 -0.08222053 -0.14988393
v 0.06969077 -0.07188765 -0.14768094
v 0.05800850 -0.12356869 -0.15269460
v 0.01617981 -0.16718881 -0.15872142
v 0.01276500 -0.16558300 -0.15857700
v 0.04597969 -0.18200244 -0.15989275
v 0.10105557 -0.08523324 -0.14530992
v 0.08580414 -0.10357839 -0.14867660
v 0.09938253 -0.05710616 -0.14328635
v 0.10436903 -0.14208488 -0.14969298
v 0.09966581 -0.12537950 -0.14881524
v 0.05566683 0.01052184 -0.13962033
v 0.23240157 -0.31198438 -0.14408077
v 0.22679800 -0.05145100 -0.09657900
v 0.08898600 0.06918500 -0.12607700
v 0.06711425 0.06098550 -0.12952975
v 0.08317159 0.06627034 -0.12692509
v 0.09541863 0.07255200 -0.12448138
v 0.11803925 0.08629150 -0.11804550
v 0.02631135 0.05166893 -0.13273671
v 0.23628761 -0.28365349 -0.13663703
v 0.24963801 -0.29697299 -0.13087000
v 0.11529947 0.08291531 -0.11902137
v -0.03745488 0.05149471 -0.13276944
v -0.06439900 0.05689700 -0.13064200
v 0.03116700 0.05293000 -0.13262700
v -0.02148571 0.04980062 -0.13335514
v -0.05395050 0.05468450 -0.13194000
v -0.04771893 0.05267872 -0.13222034
v -0.02734325 0.05105300 -0.13350525
v 0.25472701 -0.40275401 -0.12470900
v -0.04209600 0.05279150 -0.13291000
v 0.10646225 0.07847925 -0.12166025
v 0.12891606 0.09537250 -0.11285800
v 0.13566037 0.10291031 -0.10873344
v 0.14235306 0.14031467 -0.08562365
v 0.14393050 0.11924000 -0.09883950
v 0.15284823 0.08925895 -0.10829755
v 0.14466386 0.09867980 -0.10758194
v 0.14390965 0.08180803 -0.11344581
v 0.15866300 0.09963140 -0.10247999
v 0.15840359 0.10604117 -0.09955769
v 0.16457150 0.10111245 -0.09903462
v 0.15422961 0.11558946 -0.09672232
v 0.14466850 0.12167150 -0.09729650
v 0.16281853 0.11474075 -0.09340432
v 0.16246903 0.12208463 -0.08931455
v 0.17684525 0.09785909 -0.09382821
v 0.17035659 0.11262082 -0.09045502
v 0.14482287 0.13084612 -0.09207062
v 0.18132160 0.10381251 -0.08820690
v 0.17947591 0.10632095 -0.08838583
v 0.16245350 0.12726691 -0.08557230
v 0.18731501 0.10288005 -0.08445143
v 0.18596950 0.09289350 -0.08997625
v 0.17944745 0.11534266 -0.08287885
v 0.17393718 0.12264032 -0.08180772
v 0.19390946 0.10179902 -0.07983105
v 0.15691085 0.13072634 -0.08598184
v 0.19660551 0.08809000 -0.08432950
v 0.20034100 0.09355900 -0.07832900
v 0.18887807 0.11702835 -0.07443729
v 0.16227961 0.13268228 -0.08129967
v 0.17186370 0.12824431 -0.07873710
v 0.17153925 0.13204925 -0.07481525
v 0.18431561 0.12064491 -0.07548793
v 0.15326900 0.14094300 -0.07856600
v 0.18417101 0.12692600 -0.06944000
v 0.19557600 0.11711400 -0.06703000
v 0.19530650 0.11313950 -0.07070450
v 0.19203200 0.12219350 -0.06606300
f 543 542 544
f 543 544 531
f 531 544 535
f 535 544 68
f 544 67 68
f 544 66 67
f 544 536 66
f 67 66 536
f 67 536 65
f 536 542 65
f 65 542 537
f 541 537 542
f 558 541 542
f 561 558 542
f 561 560 558
f 560 561 562
f 562 561 557
f 562 557 546
f 554 562 546
f 563 562 554
f 548 563 554
f 555 563 548
f 555 569 563
f 563 569 564
f 43 564 569
f 40 43 569
f 572 40 569
f 136 572 569
f 136 175 572
f 175 571 572
f 175 135 571
f 571 135 40
f 135 176 40
f 135 177 176
f 176 177 39
f 39 177 179
f 180 179 177
f 179 180 41
f 180 182 41
f 182 180 181
f 182 181 45
f 45 181 49
f 181 47 49
f 181 187 47
f 183 187 181
f 183 220 187
f 187 220 211
f 220 221 211
f 226 221 220
f 226 225 221
f 227 225 226
f 227 228 225
f 229 228 227
f 227 230 229
f 242 229 230
f 231 242 230
f 243 242 231
f 243 244 242
f 244 243 392
f 391 244 392
f 392 395 391
f 349 395 392
f 524 395 349
f 248 395 524
f 35 395 248
f 434 395 35
f 434 396 395
f 434 397 396
f 434 432 397
f 432 434 433
f 435 432 433
f 437 435 433
f 38 437 433
f 38 436 437
f 436 431 437
f 431 432 437
f 432 431 426
f 426 424 432
f 432 424 398
f 424 423 398
f 445 423 424
f 445 422 423
f 445 427 422
f 427 445 425
f 426 425 445
f 425 443 427
f 443 448 427
f 443 454 448
f 455 448 454
f 460 455 454
f 460 457 455
f 460 520 457
f 464 520 460
f 464 465 520
f 520 465 521
f 521 471 520
f 521 472 471
f 521 509 472
f 472 509 473
f 509 503 473
f 509 518 503
f 511 518 509
f 511 513 518
f 513 515 518
f 518 515 505
f 518 505 504
f 504 505 503
f 505 506 503
f 505 30 506
f 30 26 506
f 501 506 26
f 506 501 502
f 502 501 499
f 500 502 499
f 503 502 500
f 507 503 500
f 507 500 499
f 498 507 499
f 497 507 498
f 475 507 497
f 474 507 475
f 473 507 474
f 473 474 475
f 471 473 475
f 471 475 456
f 456 475 476
f 476 475 495
f 476 495 478
f 478 495 482
f 495 494 482
f 494 495 497
f 496 497 495
f 497 493 494
f 497 492 493
f 497 491 492
f 497 508 491
f 497 499 508
f 499 490 508
f 491 508 490
f 491 490 487
f 485 491 487
f 485 486 491
f 486 493 491
f 486 485 385
f 486 385 413
f 483 486 413
f 482 486 483
f 482 483 414
f 481 482 414
f 480 482 481
f 451 482 480
f 479 482 451
f 478 479 451
f 452 478 451
f 477 478 452
f 448 477 452
f 456 477 448
f 453 448 452
f 453 452 447
f 447 452 449
f 449 452 450
f 449 450 447
f 447 450 404
f 404 450 419
f 419 450 416
f 450 415 416
f 451 415 450
f 415 417 416
f 405 416 417
f 405 417 406
f 417 407 406
f 406 407 387
f 407 386 387
f 409 386 407
f 407 408 409
f 408 410 409
f 408 414 410
f 414 413 410
f 410 413 411
f 386 410 411
f 386 411 380
f 380 411 381
f 411 385 381
f 385 384 381
f 385 412 384
f 385 383 412
f 412 383 382
f 383 21 382
f 383 23 21
f 383 488 23
f 484 488 383
f 485 488 484
f 485 23 488
f 485 489 23
f 489 24 23
f 489 490 24
f 490 28 24
f 29 28 490
f 27 29 490
f 490 26 27
f 382 21 20
f 384 382 20
f 384 20 378
f 384 378 373
f 379 384 373
f 379 373 369
f 380 379 369
f 371 380 369
f 387 380 371
f 370 387 371
f 370 371 369
f 369 372 370
f 370 372 360
f 360 372 362
f 372 367 362
f 372 374 367
f 372 373 374
f 374 373 377
f 374 377 376
f 377 378 376
f 374 376 375
f 376 368 375
f 368 376 366
f 366 376 19
f 376 20 19
f 363 366 19
f 367 366 363
f 363 19 22
f 363 22 18
f 363 18 365
f 364 363 365
f 364 365 238
f 238 365 217
f 217 216 238
f 215 238 216
f 214 238 215
f 214 218 238
f 218 237 238
f 222 237 218
f 222 239 237
f 239 364 237
f 239 356 364
f 356 362 364
f 361 362 356
f 360 361 356
f 357 360 356
f 355 357 356
f 354 357 355
f 354 359 357
f 357 359 370
f 406 370 359
f 389 406 359
f 388 406 389
f 403 406 388
f 402 403 388
f 403 402 401
f 401 404 403
f 404 405 403
f 404 418 405
f 418 419 405
f 400 404 401
f 400 423 404
f 423 421 404
f 422 404 421
f 422 446 404
f 422 444 446
f 444 427 446
f 404 446 420
f 446 447 420
f 448 447 446
f 399 423 400
f 390 399 400
f 393 399 390
f 399 393 396
f 396 398 399
f 396 393 394
f 395 394 393
f 391 393 390
f 400 401 390
f 390 401 351
f 244 390 351
f 244 351 352
f 351 353 352
f 242 352 353
f 242 353 241
f 353 358 241
f 353 389 358
f 241 358 354
f 234 242 241
f 234 241 229
f 229 241 235
f 241 240 235
f 241 355 240
f 236 235 240
f 236 240 222
f 224 236 222
f 222 225 224
f 225 235 224
f 235 236 224
f 229 235 225
f 351 402 353
f 401 402 351
f 402 388 353
f 388 389 353
f 358 389 359
f 358 359 354
f 241 354 355
f 240 355 356
f 240 356 239
f 240 239 222
f 214 222 218
f 219 222 214
f 223 222 219
f 222 223 221
f 221 223 219
f 219 214 213
f 219 213 212
f 210 219 212
f 211 219 210
f 211 210 188
f 188 210 209
f 209 210 134
f 134 210 133
f 133 210 207
f 210 208 207
f 208 210 206
f 207 208 206
f 207 206 199
f 189 207 199
f 189 199 195
f 199 198 195
f 199 200 198
f 205 200 199
f 215 200 205
f 213 215 205
f 213 205 206
f 200 215 204
f 200 204 202
f 204 216 202
f 202 216 203
f 202 203 201
f 201 203 17
f 203 16 17
f 217 16 203
f 217 18 16
f 201 17 5
f 2 201 5
f 3 201 2
f 197 201 3
f 197 198 201
f 198 197 3
f 196 198 3
f 196 3 193
f 195 196 193
f 131 195 193
f 194 195 131
f 189 194 131
f 189 131 190
f 526 189 190
f 50 189 526
f 50 526 57
f 526 131 57
f 57 131 55
f 55 131 59
f 131 63 59
f 63 131 191
f 131 192 191
f 192 3 191
f 3 4 191
f 191 4 1
f 62 191 1
f 59 62 1
f 125 59 1
f 61 59 125
f 60 61 125
f 60 125 98
f 125 104 98
f 104 125 6
f 125 7 6
f 105 104 6
f 98 105 6
f 98 6 93
f 103 98 93
f 102 98 103
f 94 98 102
f 94 102 93
f 94 93 92
f 95 94 92
f 95 130 94
f 97 130 95
f 96 130 97
f 96 67 130
f 91 67 96
f 96 97 91
f 91 97 108
f 91 108 90
f 107 90 108
f 108 12 107
f 12 108 13
f 108 92 13
f 92 106 13
f 106 93 13
f 12 11 107
f 114 107 11
f 113 107 114
f 113 114 118
f 114 14 118
f 118 14 10
f 120 118 10
f 117 118 120
f 119 117 120
f 8 119 120
f 8 120 15
f 120 9 15
f 119 8 117
f 8 121 117
f 121 116 117
f 111 116 121
f 123 111 121
f 586 123 121
f 586 121 122
f 590 111 123
f 589 590 123
f 593 590 589
f 593 585 590
f 590 124 111
f 590 110 124
f 585 110 590
f 585 588 110
f 588 77 110
f 77 588 126
f 126 588 591
f 591 588 585
f 581 126 591
f 581 77 126
f 76 77 581
f 76 581 587
f 76 127 77
f 127 75 77
f 577 75 127
f 129 75 577
f 74 75 129
f 552 74 129
f 128 552 129
f 145 552 128
f 145 551 552
f 552 551 528
f 528 551 74
f 74 551 533
f 549 533 551
f 550 549 551
f 551 141 550
f 158 141 551
f 159 141 158
f 158 160 159
f 160 550 159
f 160 140 550
f 139 550 140
f 139 161 550
f 161 138 550
f 550 138 556
f 550 556 553
f 553 556 548
f 553 548 533
f 548 547 533
f 533 547 532
f 532 547 529
f 547 534 529
f 547 546 534
f 534 546 545
f 545 546 543
f 534 545 531
f 79 534 531
f 79 531 71
f 531 530 71
f 530 535 71
f 71 535 69
f 69 535 80
f 71 69 80
f 70 71 80
f 70 80 86
f 85 86 80
f 86 85 109
f 72 86 109
f 110 72 109
f 110 109 111
f 72 79 86
f 529 79 72
f 529 72 73
f 75 529 73
f 75 73 72
f 78 75 72
f 77 78 72
f 85 87 109
f 109 87 88
f 109 88 115
f 109 115 116
f 115 112 116
f 115 113 112
f 115 90 113
f 89 90 115
f 81 90 89
f 82 90 81
f 80 82 81
f 80 83 82
f 83 91 82
f 84 91 83
f 84 68 91
f 80 68 84
f 80 84 83
f 80 81 89
f 88 80 89
f 115 88 89
f 85 88 87
f 85 80 88
f 71 70 86
f 71 86 79
f 534 79 529
f 573 532 529
f 74 532 573
f 74 573 529
f 570 556 138
f 556 570 569
f 161 569 570
f 161 568 569
f 161 137 568
f 568 137 136
f 137 172 136
f 173 172 137
f 168 172 173
f 162 168 173
f 167 168 162
f 168 167 169
f 169 255 168
f 258 255 169
f 258 254 255
f 262 254 258
f 171 262 258
f 262 171 264
f 264 263 262
f 270 263 264
f 269 270 264
f 274 270 269
f 274 281 270
f 293 281 274
f 338 281 293
f 298 338 293
f 298 292 338
f 292 291 338
f 292 337 291
f 303 337 292
f 303 304 337
f 304 290 337
f 337 290 288
f 337 288 287
f 283 287 288
f 288 284 283
f 288 286 284
f 286 259 284
f 289 259 286
f 286 285 289
f 285 37 289
f 285 310 37
f 309 310 285
f 309 312 310
f 311 312 309
f 316 312 311
f 315 316 311
f 314 316 315
f 314 315 311
f 314 311 313
f 318 313 311
f 318 311 317
f 318 317 306
f 334 318 306
f 336 334 306
f 336 335 334
f 333 335 336
f 332 333 336
f 332 336 331
f 331 336 330
f 330 336 319
f 330 319 320
f 330 320 321
f 302 330 321
f 330 302 298
f 301 330 298
f 322 330 301
f 328 330 322
f 326 328 322
f 326 331 328
f 326 327 331
f 327 329 331
f 575 331 329
f 325 327 326
f 325 326 324
f 300 325 324
f 324 322 300
f 323 300 322
f 323 322 294
f 323 294 297
f 323 297 296
f 279 323 296
f 279 296 295
f 295 296 153
f 153 296 151
f 296 152 151
f 296 275 152
f 276 275 296
f 297 275 276
f 297 293 275
f 275 268 152
f 268 275 267
f 275 266 267
f 275 271 266
f 275 273 271
f 275 272 273
f 275 274 272
f 272 274 271
f 273 272 271
f 266 271 267
f 267 271 268
f 268 271 155
f 271 265 155
f 271 264 265
f 265 264 156
f 157 265 156
f 156 163 157
f 163 527 157
f 163 162 527
f 161 527 162
f 161 140 527
f 162 163 166
f 165 166 163
f 169 166 165
f 163 169 165
f 164 169 163
f 156 169 164
f 156 170 169
f 171 170 156
f 157 527 155
f 155 527 160
f 147 155 160
f 146 147 160
f 147 146 150
f 150 154 147
f 268 154 150
f 268 147 154
f 150 146 145
f 143 150 145
f 144 150 143
f 149 150 144
f 149 148 150
f 151 150 148
f 143 601 144
f 601 148 144
f 280 148 601
f 599 280 601
f 599 601 600
f 601 595 600
f 600 595 596
f 598 600 596
f 598 602 600
f 605 602 598
f 603 602 605
f 607 603 605
f 606 607 605
f 608 607 606
f 608 610 607
f 618 610 608
f 618 617 610
f 627 617 618
f 627 618 625
f 626 627 625
f 629 627 626
f 623 627 629
f 632 623 629
f 630 623 632
f 630 631 623
f 631 619 623
f 631 622 619
f 619 622 621
f 619 621 616
f 619 616 615
f 615 616 612
f 612 616 609
f 609 616 602
f 616 278 602
f 602 278 599
f 277 599 278
f 604 609 602
f 613 609 604
f 613 604 610
f 613 612 609
f 615 612 613
f 623 615 613
f 623 619 615
f 623 613 627
f 626 625 624
f 626 624 628
f 628 624 597
f 624 611 597
f 620 611 624
f 624 614 620
f 618 614 624
f 614 608 620
f 620 608 611
f 625 618 624
f 617 627 613
f 617 613 610
f 618 608 614
f 610 604 607
f 611 608 606
f 607 604 603
f 604 602 603
f 606 605 598
f 602 599 600
f 277 280 599
f 595 601 143
f 584 143 145
f 584 145 142
f 584 142 594
f 142 579 594
f 142 576 579
f 142 145 576
f 145 578 576
f 143 584 580
f 145 146 158
f 156 164 163
f 155 265 157
f 147 268 155
f 152 268 150
f 151 152 150
f 279 295 153
f 296 297 276
f 297 294 293
f 294 322 298
f 300 323 279
f 326 322 324
f 322 301 298
f 298 302 299
f 299 302 292
f 302 321 292
f 320 304 321
f 320 319 304
f 304 319 306
f 328 331 330
f 575 332 331
f 336 306 319
f 305 306 317
f 317 307 305
f 305 307 308
f 307 311 308
f 305 308 286
f 305 286 290
f 306 305 290
f 317 311 307
f 308 311 309
f 308 309 285
f 37 310 433
f 310 36 433
f 37 433 339
f 339 433 34
f 433 35 34
f 339 34 35
f 339 35 340
f 342 339 340
f 343 342 340
f 342 343 259
f 254 259 343
f 254 343 257
f 343 253 257
f 343 252 253
f 252 251 253
f 253 251 344
f 252 344 251
f 252 250 344
f 344 250 346
f 344 346 345
f 345 346 178
f 178 346 177
f 135 345 178
f 257 344 345
f 174 257 345
f 175 174 345
f 174 175 172
f 257 174 172
f 256 257 172
f 254 256 172
f 346 250 177
f 177 250 184
f 347 184 250
f 250 348 347
f 246 348 250
f 246 245 348
f 245 233 348
f 233 231 348
f 231 232 348
f 348 232 230
f 348 230 185
f 348 185 184
f 185 227 184
f 184 227 186
f 186 227 220
f 186 183 184
f 184 183 48
f 184 48 181
f 233 245 231
f 245 392 231
f 245 350 392
f 349 350 245
f 246 349 245
f 248 349 246
f 248 246 247
f 341 248 247
f 341 247 252
f 340 341 252
f 247 246 249
f 247 249 250
f 249 246 250
f 348 184 347
f 247 250 252
f 253 344 257
f 254 257 256
f 260 259 254
f 284 260 254
f 284 254 261
f 37 342 259
f 340 252 343
f 340 35 341
f 37 339 342
f 286 308 285
f 289 37 259
f 284 259 260
f 284 261 283
f 262 283 261
f 282 287 283
f 281 287 282
f 281 291 287
f 282 283 270
f 290 286 288
f 306 290 304
f 321 304 303
f 321 303 292
f 337 287 291
f 298 299 292
f 294 298 293
f 338 291 281
f 293 274 275
f 282 270 281
f 274 269 271
f 271 269 264
f 283 263 270
f 263 283 262
f 264 171 156
f 171 258 170
f 254 262 261
f 255 254 172
f 170 258 169
f 169 167 166
f 166 167 162
f 255 172 168
f 162 173 137
f 162 137 161
f 161 570 138
f 140 161 139
f 527 140 160
f 146 160 158
f 159 550 141
f 550 553 549
f 553 533 549
f 533 532 74
f 158 551 145
f 145 128 578
f 128 129 578
f 528 74 552
f 74 529 75
f 75 78 77
f 77 72 110
f 110 111 124
f 111 109 116
f 116 112 117
f 122 121 8
f 117 112 118
f 120 10 9
f 112 113 118
f 14 114 11
f 90 107 113
f 91 90 82
f 97 95 108
f 95 92 108
f 92 93 106
f 130 98 94
f 99 98 130
f 130 100 99
f 538 100 130
f 65 538 130
f 538 537 100
f 537 539 100
f 537 52 539
f 539 52 53
f 51 53 52
f 132 53 51
f 132 46 53
f 44 46 132
f 49 46 44
f 567 49 44
f 45 567 44
f 41 45 44
f 42 41 44
f 42 44 559
f 44 51 559
f 559 51 558
f 51 565 558
f 565 566 558
f 566 565 52
f 558 566 52
f 540 558 52
f 43 42 559
f 560 43 559
f 41 42 43
f 46 56 53
f 53 56 54
f 54 56 57
f 53 54 57
f 46 133 56
f 56 133 50
f 51 44 132
f 565 51 52
f 540 52 537
f 100 539 53
f 100 53 64
f 100 64 101
f 100 101 98
f 64 60 101
f 64 59 60
f 58 64 53
f 58 55 64
f 58 53 55
f 99 100 98
f 93 102 103
f 13 93 6
f 104 105 98
f 98 101 60
f 60 59 61
f 125 1 7
f 525 192 131
f 525 193 192
f 63 191 62
f 59 63 62
f 64 55 59
f 53 57 55
f 56 50 57
f 50 133 189
f 526 190 131
f 525 131 193
f 192 193 3
f 200 202 201
f 200 201 198
f 195 198 196
f 194 189 195
f 199 206 205
f 189 133 207
f 133 46 134
f 188 134 46
f 47 188 46
f 188 209 134
f 212 206 210
f 212 213 206
f 213 214 215
f 215 216 204
f 216 217 203
f 237 364 238
f 362 363 364
f 217 365 18
f 367 368 366
f 367 375 368
f 367 374 375
f 362 367 363
f 360 362 361
f 357 370 360
f 369 373 372
f 373 378 377
f 378 20 376
f 484 383 385
f 412 382 384
f 379 381 384
f 381 379 380
f 407 414 408
f 415 414 407
f 409 410 386
f 386 380 387
f 406 387 370
f 403 405 406
f 415 407 417
f 405 419 416
f 419 418 404
f 420 447 404
f 448 453 447
f 450 452 451
f 451 480 415
f 480 481 415
f 415 481 414
f 414 483 413
f 413 385 411
f 385 485 484
f 485 487 489
f 487 490 489
f 492 491 493
f 494 493 486
f 482 494 486
f 479 478 482
f 477 476 478
f 475 496 495
f 456 476 477
f 455 471 456
f 475 497 496
f 498 499 497
f 499 501 490
f 501 26 490
f 32 30 505
f 32 505 31
f 503 506 502
f 31 505 515
f 519 31 515
f 519 515 516
f 516 517 519
f 519 517 25
f 33 25 517
f 514 517 516
f 592 517 514
f 514 516 515
f 25 31 519
f 513 514 515
f 514 513 510
f 510 513 511
f 512 510 511
f 522 512 511
f 523 512 522
f 466 523 522
f 470 466 522
f 468 470 522
f 468 522 467
f 467 522 465
f 463 468 467
f 463 467 469
f 469 467 462
f 467 464 462
f 463 469 462
f 442 463 462
f 442 462 461
f 461 462 574
f 574 462 460
f 574 460 458
f 574 458 459
f 574 459 429
f 440 574 429
f 440 429 430
f 440 430 431
f 438 440 431
f 439 440 438
f 439 582 440
f 582 461 440
f 583 461 582
f 583 441 461
f 583 582 439
f 436 439 438
f 431 430 425
f 430 428 425
f 428 429 425
f 430 429 428
f 429 459 454
f 459 458 454
f 461 574 440
f 441 442 461
f 522 511 465
f 465 511 509
f 518 504 503
f 473 503 507
f 472 473 471
f 465 509 521
f 467 465 464
f 464 460 462
f 520 471 457
f 455 457 471
f 458 460 454
f 455 456 448
f 429 454 443
f 427 448 446
f 425 429 443
f 422 427 444
f 422 421 423
f 398 423 399
f 426 445 424
f 431 425 426
f 436 438 431
f 38 439 436
f 36 38 433
f 437 432 435
f 432 398 397
f 397 398 396
f 395 396 394
f 35 433 434
f 35 248 341
f 248 524 349
f 349 392 350
f 393 391 395
f 391 390 244
f 244 352 242
f 392 243 231
f 231 230 232
f 229 242 234
f 185 230 227
f 228 229 225
f 221 225 222
f 220 227 226
f 211 221 219
f 187 211 188
f 183 186 220
f 48 183 181
f 47 187 188
f 49 47 46
f 567 45 49
f 184 181 180
f 41 182 45
f 180 177 184
f 39 179 41
f 41 176 39
f 135 178 177
f 40 176 41
f 175 345 135
f 172 175 136
f 568 136 569
f 571 40 572
f 40 41 43
f 43 560 564
f 563 564 560
f 569 555 556
f 556 555 548
f 548 554 547
f 547 554 546
f 546 557 543
f 563 560 562
f 560 559 558
f 561 542 557
f 541 558 540
f 541 540 537
f 65 537 538
f 67 65 130
f 91 68 67
f 535 68 80
f 531 535 530
f 545 543 531
f 542 536 544
f 557 542 543

