v 0.0231896 -0.045204 0.0637348
v 0.0233285 -0.0387964 0.0639204
v 0.0167861 -0.0387447 0.0646674
v 0.0103827 -0.0322855 0.0655999
v 0.00384034 -0.0322338 0.0663468
v 0.0363632 -0.0389623 0.0628826
v 0.0298656 -0.0388547 0.0632218
v 0.0428587 -0.0390703 0.0625324
v 0.0364881 -0.0325278 0.0626046
v 0.0365875 -0.0260974 0.0621904
v 0.0300267 -0.0324155 0.0630533
v 0.03013 -0.0259851 0.0626225
v 0.0236855 -0.0258726 0.062997
v 0.0102562 -0.0386826 0.0652701
v 0.0302332 -0.0195547 0.0621916
v 0.0237888 -0.0194422 0.0625661
v 0.0235904 -0.0323079 0.063406
v 0.0296967 -0.0452942 0.0632416
v 0.0429611 -0.032643 0.0621188
v 0.0430636 -0.0262159 0.0617053
v 0.0431662 -0.0197887 0.0612918
v 0.0366873 -0.0196674 0.0617763
v 0.043278 -0.0133689 0.0607749
v 0.0368005 -0.0132487 0.0612456
v 0.0369345 -0.00684654 0.0604843
v 0.0305481 -0.0129149 0.0627641
v 0.0243792 -0.0125019 0.0646715
v 0.0181972 -0.012098 0.0665284
v 0.0306738 -0.00651911 0.061969
v 0.0244663 -0.00613261 0.0637283
v 0.0307353 -0.00016721 0.0609283
v 0.0120435 -0.0116898 0.0683722
v 0.0183039 -0.00572788 0.0655586
v 0.0121733 -0.00531032 0.0674387
v 0.0245643 0.000234033 0.0627449
v 0.0184337 0.000651588 0.0646251
v 0.0123031 0.00106914 0.0665052
v 0.0308247 0.00619594 0.0599313
v 0.0246926 0.00661151 0.061805
v 0.0185087 0.006959 0.0634563
v 0.0123247 0.00730648 0.0651076
v 0.0307043 0.0122466 0.0579244
v 0.0245204 0.0125941 0.0595757
v 0.0370909 0.0121359 0.0573478
v 0.0434956 0.0120673 0.0568612
v 0.0371031 0.0184409 0.0560645
v 0.0306919 0.0184676 0.0565268
v 0.0434946 0.00574834 0.058029
v 0.0562624 0.00546781 0.0566045
v 0.0498829 0.00559963 0.0573455
v 0.0562415 0.0118003 0.0553848
v 0.0498629 0.0119335 0.0561296
v 0.0561826 0.018078 0.0540178
v 0.049804 0.0182113 0.0547626
v 0.049745 0.0244891 0.0533957
v 0.0496861 0.0307668 0.0520287
v 0.0434225 0.0183398 0.0555164
v 0.043362 0.024615 0.0541543
v 0.0433015 0.0308903 0.0527923
v 0.043214 0.0371624 0.0514282
v 0.0369005 0.0373488 0.0526052
v 0.0306593 0.0248022 0.0555802
v 0.0369406 0.0310058 0.0535839
v 0.0307437 0.0312513 0.0551845
v 0.0308281 0.0377004 0.0547887
v 0.024335 0.024946 0.0565781
v 0.024395 0.0313756 0.0560667
v 0.0179564 0.0314284 0.0565243
v 0.024455 0.0378052 0.0555554
v 0.0180164 0.037858 0.056013
v 0.0361844 -0.0453963 0.0627749
v 0.0495641 0.0432977 0.0495624
v 0.0431503 0.0434623 0.0503582
v 0.0496088 0.037037 0.0505996
v 0.0557869 0.0493806 0.047107
v 0.0686238 0.0366094 0.0474289
v 0.0622844 0.0367518 0.0484812
v 0.055945 0.0368942 0.0495334
v 0.0620938 0.0429759 0.0467741
v 0.0557543 0.0431182 0.0478264
v 0.0619031 0.0492 0.0450671
v 0.0810646 0.0425681 0.0429781
v 0.0747655 0.0427212 0.0445303
v 0.0684663 0.0428742 0.0460825
v 0.0683036 0.049135 0.0446761
v 0.0812986 0.0299655 0.0462026
v 0.0811827 0.0362678 0.0445855
v 0.0749088 0.0364432 0.0460239
v 0.0876883 0.0234863 0.0463819
v 0.0875708 0.02977 0.0447714
v 0.0874526 0.0360604 0.0431655
v 0.0873277 0.0424262 0.0416107
v 0.0814327 0.0237181 0.0479197
v 0.0750327 0.0301658 0.0476848
v 0.0751776 0.0239603 0.0495082
v 0.068838 0.024106 0.0506422
v 0.0687349 0.0303593 0.0490412
v 0.0623948 0.0305108 0.0501176
v 0.0689219 0.0178359 0.0521591
v 0.0625553 0.0179643 0.05312
v 0.0624962 0.024256 0.0517113
v 0.075377 0.0050091 0.0534064
v 0.0753307 0.0113507 0.052262
v 0.0689723 0.0115104 0.0533888
v 0.0626138 0.0116702 0.0545156
v 0.0816883 0.0048126 0.0520585
v 0.0816195 0.0111379 0.0507944
v 0.0877905 0.0172076 0.04788
v 0.0878653 0.010878 0.0491201
v 0.0880521 -0.00169269 0.052046
v 0.0880225 0.00472301 0.051247
v 0.0879567 -0.0081403 0.0525487
v 0.0817247 -0.0015295 0.0531974
v 0.0878671 -0.0145829 0.0530933
v 0.0816668 -0.00794507 0.0539678
v 0.0754004 -0.00772636 0.0555803
v 0.0753964 -0.00134916 0.0544784
v 0.0690211 -0.00119555 0.0555259
v 0.0626457 -0.00104195 0.0565733
v 0.0690228 -0.00756859 0.0566357
v 0.0626386 -0.00739912 0.0577133
v 0.056155 -0.0136407 0.0594206
v 0.068954 -0.0139729 0.0573621
v 0.0625537 -0.0138068 0.0583898
v 0.0623857 -0.0266441 0.0594802
v 0.0624755 -0.0202264 0.0589618
v 0.0560729 -0.0200599 0.059979
v 0.0688153 -0.0268154 0.0585829
v 0.0688833 -0.0203938 0.0579678
v 0.0815098 -0.0207978 0.0552256
v 0.0752159 -0.0205915 0.0566762
v 0.0749544 -0.0334846 0.0573038
v 0.081362 -0.0272502 0.055461
v 0.0751156 -0.0270277 0.0571297
v 0.0810772 -0.0401604 0.0559796
v 0.0874858 -0.0339258 0.0541416
v 0.0812192 -0.0337053 0.0557184
v 0.0876278 -0.0274708 0.0538805
v 0.0877698 -0.0210157 0.0536193
v 0.0748479 -0.0399244 0.0576451
v 0.0619595 -0.0459315 0.0601642
v 0.0684985 -0.0397157 0.0589309
v 0.0621255 -0.0395025 0.0600742
v 0.0555443 -0.0457791 0.0610283
v 0.0557123 -0.0393472 0.0609518
v 0.0492876 -0.0392083 0.0617538
v 0.0491112 -0.0456382 0.0616979
v 0.0423297 -0.0583239 0.0612882
v 0.0553673 -0.0521999 0.0606914
v 0.0489297 -0.0520591 0.0613306
v 0.0424921 -0.0519184 0.0619697
v 0.0421097 -0.0647257 0.0606702
v 0.055118 -0.0585997 0.0601059
v 0.0487478 -0.0584634 0.0606706
v 0.0608188 -0.071447 0.0573247
v 0.0544524 -0.0713131 0.0579196
v 0.0548454 -0.0649953 0.0595021
v 0.0484789 -0.0648614 0.060097
v 0.0604774 -0.0777596 0.0558134
v 0.0541795 -0.0776188 0.056503
v 0.0478816 -0.077478 0.0571926
v 0.04811 -0.0711767 0.0585478
v 0.0418121 -0.0710359 0.0592374
v 0.0415807 -0.07734 0.0578329
v 0.0352715 -0.0772096 0.0583408
v 0.0355126 -0.0709124 0.0598463
v 0.0290607 -0.0773054 0.0595466
v 0.0292162 -0.0709177 0.0605399
v 0.0228533 -0.0708529 0.060836
v 0.0357327 -0.0645944 0.0612258
v 0.0293616 -0.064527 0.06147
v 0.0164858 -0.0707863 0.0611141
v 0.0229821 -0.0644562 0.0616934
v 0.0294784 -0.058126 0.0622727
v 0.0230518 -0.058036 0.0623796
v 0.0231215 -0.0516157 0.0630658
v 0.0360307 -0.0518154 0.0624479
v 0.0295588 -0.0517095 0.062882
v 0.0165549 -0.0643878 0.0618639
v 0.016624 -0.0579906 0.0626173
v 0.0166874 -0.0515835 0.0633348
v 0.0167081 -0.0451014 0.0637803
v 0.0102392 -0.0515293 0.0634248
v 0.0038347 -0.0515412 0.0635269
v 0.0102789 -0.045076 0.0638755
v 0.00387439 -0.0450878 0.0639776
v -0.00256548 -0.0515451 0.0635743
v -0.00896251 -0.0515433 0.0635821
v -0.0153745 -0.0515437 0.0634136
v -0.0153646 -0.0451152 0.0638129
v -0.00880073 -0.0387621 0.0640207
v -0.0152924 -0.0387258 0.0639303
v -0.00867071 -0.032409 0.0638776
v -0.00893375 -0.0451137 0.0641813
v -0.00257122 -0.0322379 0.0662648
v -0.00253047 -0.0450996 0.0640828
v 0.00382469 -0.0386402 0.0652817
v -0.0025826 -0.0386522 0.0654101
v 0.0101416 -0.0643788 0.0620263
v 0.00374367 -0.0643761 0.0620251
v 0.0101977 -0.0579762 0.0629175
v 0.00379976 -0.0579735 0.0629163
v -0.00259817 -0.0579708 0.0629151
v -0.00899611 -0.0579682 0.0629139
v 0.0614917 -0.0587733 0.0593844
v 0.0617582 -0.0523606 0.0600086
v 0.0681047 -0.0525882 0.0587388
v 0.0746976 -0.0463445 0.0577068
v 0.0807066 -0.0530212 0.0559129
v 0.0744317 -0.0528087 0.0573921
v 0.086853 -0.0532413 0.0540321
v 0.0871183 -0.0468303 0.0544008
v 0.0803214 -0.0594293 0.0550822
v 0.0740532 -0.0592133 0.0565471
v 0.0677851 -0.0589973 0.0580121
v 0.0671103 -0.071626 0.0560259
v 0.073715 -0.0655351 0.0555621
v 0.0674441 -0.0653438 0.0570537
v 0.0611733 -0.0651524 0.0585453
v 0.073382 -0.0718329 0.0545895
v 0.0799868 -0.0657444 0.0541343
v 0.0683503 -0.0461291 0.0590149
v 0.080988 -0.0465807 0.0562632
v 0.0873564 -0.0403804 0.0544379
v 0.0686606 -0.0332703 0.0587864
v 0.0622904 -0.0330691 0.0599698
v 0.0562348 -0.00725357 0.0586356
v 0.0498163 -0.0071195 0.0593719
v 0.0498839 -0.000745136 0.0584678
v 0.043453 -0.00061403 0.058975
v 0.0370897 0.00589144 0.058578
v 0.0815968 -0.0143647 0.0546792
v 0.0753004 -0.0141593 0.05612
v 0.075267 0.0176763 0.0509944
v 0.0815403 0.0174487 0.049454
v 0.0869581 0.0485465 0.0392741
v 0.0807788 0.0487634 0.041194
v 0.0745995 0.0489802 0.0431139
v 0.0681295 0.0553897 0.0432347
v 0.0802737 0.054894 0.03901
v 0.0742367 0.055152 0.0411854
v 0.0426721 -0.0454985 0.0623082
v 0.0496441 -0.0199104 0.0608015
v 0.049531 -0.0263431 0.0611473
v 0.055976 -0.0264822 0.0604446
v 0.0560558 0.0306572 0.0511809
v 0.0561273 0.0243783 0.0526496
v 0.05627 -0.000890312 0.0576332
v 0.0690143 0.00516687 0.0545172
v 0.0626386 0.00531839 0.0555778
v 0.018416 0.01301 0.0614885
v 0.0125976 0.013672 0.0643425
v 0.0245683 0.018766 0.0580703
v 0.0187499 0.019428 0.0609242
v 0.049418 -0.0327758 0.061493
v 0.0497485 -0.0134936 0.0602784
v 0.0433828 -0.00698488 0.0599076
v 0.037017 -0.00047618 0.0595367
v 0.0558629 -0.0329149 0.0607903
f 2 3 182 1
f 182 181 176 1
f 176 178 18 1
f 18 7 2 1
f 14 185 182 3
f 5 197 14 4
f 195 198 197 5
f 7 18 71 6
f 71 242 8 6
f 8 19 9 6
f 242 147 146 8
f 146 255 19 8
f 10 12 11 9
f 19 20 10 9
f 22 15 12 10
f 20 21 22 10
f 12 13 17 11
f 15 16 13 12
f 255 244 20 19
f 244 243 21 20
f 23 24 22 21
f 243 256 23 21
f 257 25 24 23
f 256 228 257 23
f 25 29 26 24
f 258 31 29 25
f 257 230 258 25
f 29 30 27 26
f 30 33 28 27
f 33 34 32 28
f 31 35 30 29
f 35 36 33 30
f 38 39 35 31
f 258 231 38 31
f 36 37 34 33
f 39 40 36 35
f 40 41 37 36
f 42 43 39 38
f 231 44 42 38
f 43 251 40 39
f 251 252 41 40
f 44 46 47 42
f 253 254 251 43
f 231 48 45 44
f 231 258 230 48
f 230 229 50 48
f 51 52 50 49
f 50 229 248 49
f 248 119 250 49
f 250 105 51 49
f 53 54 52 51
f 105 100 53 51
f 247 55 54 53
f 100 101 247 53
f 55 58 57 54
f 56 59 58 55
f 247 246 56 55
f 74 60 59 56
f 246 78 74 56
f 74 72 73 60
f 65 64 63 61
f 64 67 66 62
f 65 69 67 64
f 69 70 68 67
f 74 78 80 72
f 80 79 81 75
f 84 79 77 76
f 77 98 97 76
f 97 94 88 76
f 88 83 84 76
f 79 80 78 77
f 78 246 98 77
f 84 85 81 79
f 237 238 83 82
f 83 88 87 82
f 87 91 92 82
f 92 236 237 82
f 238 85 84 83
f 238 241 239 85
f 87 88 94 86
f 94 95 93 86
f 93 89 90 86
f 90 91 87 86
f 93 235 108 89
f 95 234 235 93
f 97 96 95 94
f 96 99 234 95
f 97 98 101 96
f 101 100 99 96
f 246 247 101 98
f 100 105 104 99
f 104 103 234 99
f 103 104 249 102
f 249 118 117 102
f 117 113 106 102
f 106 107 103 102
f 107 235 234 103
f 105 250 249 104
f 113 110 111 106
f 111 109 107 106
f 109 108 235 107
f 113 115 112 110
f 115 232 114 112
f 117 116 115 113
f 232 130 139 114
f 116 233 232 115
f 117 118 120 116
f 120 123 233 116
f 249 250 119 118
f 119 121 120 118
f 248 227 121 119
f 121 124 123 120
f 227 122 124 121
f 227 228 256 122
f 256 243 127 122
f 127 126 124 122
f 124 126 129 123
f 129 131 233 123
f 126 127 245 125
f 245 259 226 125
f 226 225 128 125
f 128 129 126 125
f 243 244 245 127
f 225 132 134 128
f 134 131 129 128
f 232 233 131 130
f 131 134 133 130
f 133 138 139 130
f 225 142 140 132
f 140 135 137 132
f 137 133 134 132
f 137 136 138 133
f 140 208 223 135
f 223 212 224 135
f 224 136 137 135
f 142 222 208 140
f 143 145 144 141
f 144 149 206 141
f 206 207 222 141
f 222 142 143 141
f 225 226 143 142
f 226 259 145 143
f 145 146 147 144
f 147 150 149 144
f 259 255 146 145
f 152 158 154 148
f 154 150 151 148
f 150 154 153 149
f 153 205 206 149
f 163 162 158 152
f 154 158 157 153
f 157 219 205 153
f 219 157 156 155
f 156 160 159 155
f 216 218 219 155
f 157 158 162 156
f 162 161 160 156
f 162 163 164 161
f 166 165 164 163
f 166 168 167 165
f 170 171 168 166
f 171 173 169 168
f 173 179 172 169
f 174 175 173 171
f 175 180 179 173
f 178 176 175 174
f 176 181 180 175
f 71 18 178 177
f 180 201 199 179
f 181 183 201 180
f 182 185 183 181
f 185 186 184 183
f 184 202 201 183
f 186 196 187 184
f 187 203 202 184
f 14 197 186 185
f 197 198 196 186
f 196 194 188 187
f 188 204 203 187
f 194 190 189 188
f 194 191 192 190
f 194 196 198 191
f 198 195 193 191
f 201 202 200 199
f 219 218 215 205
f 215 207 206 205
f 215 214 210 207
f 210 208 222 207
f 210 209 223 208
f 210 214 213 209
f 211 212 223 209
f 214 217 221 213
f 215 218 217 214
f 220 217 218 216
f 248 229 228 227
f 229 230 257 228
f 240 241 238 237
f 245 244 255 259
