# https://github.com/mikedh/trimesh
v -0.27228451 -0.13859950 0.00845850
v -0.26851600 -0.13309900 0.01568900
v -0.27342400 -0.15006000 0.00852375
v -0.27327299 -0.12720600 -0.01320600
v -0.26190550 -0.11922050 0.02179800
v -0.25642525 -0.11495300 0.03219775
v -0.27427399 -0.14546600 0.00554700
v -0.25811401 -0.21307699 -0.07270100
v -0.26352100 -0.21406649 -0.05886500
v -0.26098701 -0.21258301 -0.06587000
v -0.26662550 -0.21292226 -0.03644575
v -0.25618899 -0.18992101 -0.07415400
v -0.25740725 -0.14229325 -0.06872925
v -0.26691500 -0.21426450 -0.04145900
v -0.27379601 -0.12824250 -0.02103200
v -0.27131894 -0.12952813 -0.03554294
v -0.26431300 -0.12914400 -0.05572850
v -0.25997850 -0.12918000 -0.06311850
v -0.26381217 -0.21140643 -0.05759489
v -0.26618215 -0.20712983 -0.04905695
v -0.27196461 -0.14775516 -0.03439849
v -0.27183799 -0.14098254 -0.03654739
v -0.26302406 -0.18984478 -0.06024606
v -0.26602055 -0.14802938 -0.05358568
v -0.26762026 -0.20752850 -0.04012414
v -0.27271584 -0.15804027 -0.02043084
v -0.27300132 -0.15284018 -0.02502449
v -0.27382949 -0.14062944 -0.02318672
v -0.27470388 -0.13711763 -0.01380685
v -0.27506280 -0.14050835 -0.00514152
v -0.27060306 -0.17844836 -0.02229890
v -0.26829301 -0.20258950 -0.02548200
v -0.27331803 -0.14918871 -0.00866459
v -0.26899500 -0.18855600 -0.01573450
v -0.26844800 -0.18210900 -0.00654400
v -0.26847500 -0.18840100 -0.01147900
v -0.27141474 -0.15550755 0.00019662
v -0.26812651 -0.20182400 -0.02233550
v -0.26809400 -0.19827101 -0.01764700
v -0.26565701 -0.21110301 -0.02643825
v -0.27039875 -0.15837050 0.00351850
v -0.25933546 -0.20389139 -0.06919447
v -0.26082406 -0.16295896 -0.06453537
v -0.25801830 -0.15883078 0.04562176
v -0.24512088 -0.17053873 0.06041772
v -0.24823301 -0.15607600 0.05624000
v -0.25232202 -0.17517005 0.05089543
v -0.25578963 -0.15458046 0.04788493
v -0.23030650 -0.16578408 0.07398816
v -0.23817767 -0.15608423 0.06668576
v -0.26330449 -0.15015965 0.03772722
v -0.25843981 -0.14528911 0.04321038
v -0.23843063 -0.14701689 0.06424129
v -0.22256862 -0.15467482 0.07884215
v -0.22761936 -0.16137874 0.07618618
v -0.21969700 -0.17232800 0.08216200
v -0.22292230 -0.17184754 0.07979349
v -0.24444701 -0.14322787 0.05749259
v -0.21036367 -0.16338379 0.08851982
v -0.21560046 -0.16514761 0.08536226
v -0.20433289 -0.15967585 0.09198038
v -0.23101449 -0.17547119 0.07288790
v -0.22115766 -0.18203532 0.07955482
v -0.23898693 -0.13539417 0.05995734
v -0.20983124 -0.15068241 0.08667402
v -0.20085151 -0.17084580 0.09500936
v -0.21885998 -0.14497718 0.07910654
v -0.22989452 -0.13708202 0.06848791
v -0.21464192 -0.13085822 0.07621750
v -0.22701951 -0.12760600 0.06624345
v -0.23786453 -0.12794602 0.05673434
v -0.22952057 -0.12120127 0.06098725
v -0.25139855 -0.13864985 0.04707065
v -0.25726307 -0.13968968 0.04615809
v -0.22023501 -0.12251700 0.06806500
v -0.18840474 -0.15621109 0.09975559
v -0.18417404 -0.15799641 0.10166350
v -0.19879023 -0.14489777 0.09097425
v -0.18301301 -0.15135100 0.10031500
v -0.18389247 -0.16369334 0.10239434
v -0.24467504 -0.13035137 0.04977536
v -0.20937300 -0.12572400 0.07599700
v -0.24478898 -0.17775749 0.05881268
v -0.22041400 -0.11887500 0.06571800
v -0.20901801 -0.12818401 0.07760600
v -0.19709250 -0.13849251 0.08858175
v -0.18854900 -0.16745199 0.10046500
v -0.22515400 -0.11710300 0.06130400
v -0.23191200 -0.12023050 0.05755800
v -0.17685551 -0.15744350 0.10345650
v -0.18877990 -0.17261647 0.10001843
v -0.19329950 -0.17928350 0.09684800
v -0.23380326 -0.18022160 0.06934879
v -0.20440463 -0.18072967 0.09146705
v -0.26350927 -0.16768860 0.03495817
v -0.26900162 -0.15852732 0.02696428
v -0.23240561 -0.18506386 0.06858873
v -0.20704255 -0.17912791 0.09053790
v -0.25736293 -0.12907219 0.04911048
v -0.25678190 -0.12518362 0.04842223
v -0.24930923 -0.11506808 0.05479476
v -0.24506932 -0.11006093 0.05696623
v -0.24193021 -0.10645284 0.05811681
v -0.25356086 -0.12213919 0.05256185
v -0.25492713 -0.12191458 0.05004768
v -0.26155357 -0.13735598 0.04373444
v -0.25310928 -0.11744050 0.04978163
v -0.25840461 -0.17246848 0.04257099
v -0.19782451 -0.17991580 0.09484739
v -0.22483782 -0.18901550 0.07310632
v -0.25888393 -0.13676645 0.04631840
v -0.24585012 -0.18104667 0.05558400
v -0.23770608 -0.10425104 0.05987710
v -0.26616678 -0.16378038 0.03133418
v -0.23264131 -0.09915535 0.06126363
v -0.26426840 -0.14338796 0.03769385
v -0.19540001 -0.18237624 0.09526475
v -0.23814984 -0.12222911 0.05148252
v -0.20746649 -0.18637135 0.08779696
v -0.20944482 -0.19110372 0.08358461
v -0.27160413 -0.15505303 0.01949078
v -0.27231574 -0.15092066 0.01704039
v -0.23363800 -0.11772100 0.05287450
v -0.26640553 -0.14174472 0.03039427
v -0.27143383 -0.14405139 0.01641888
v -0.24965389 -0.11107915 0.04920609
v -0.26453766 -0.13292215 0.02913468
v -0.20463757 -0.19555655 0.08411778
v -0.20741350 -0.19847850 0.07886250
v -0.21424299 -0.19998901 0.07106500
v -0.27371829 -0.14467696 0.00891029
v -0.26223390 -0.13243038 0.03696557
v -0.22041785 -0.19927460 0.06374217
v -0.21846850 -0.20024100 0.06591650
v -0.23447900 -0.20123200 0.04430700
v -0.23080625 -0.20104700 0.04944675
v -0.24212199 -0.20280600 0.03206400
v -0.23746450 -0.20198150 0.03977300
v -0.24949257 -0.20337200 0.01881994
v -0.25367898 -0.20478580 0.00995795
v -0.25410275 -0.20075889 0.01548766
v -0.25771550 -0.20681175 0.00028375
v -0.26182121 -0.20759272 -0.01067731
v -0.26345140 -0.20855911 -0.01568067
v -0.27193270 -0.15577222 0.01604333
v -0.26890466 -0.16147784 0.02442844
v -0.26651078 -0.20010928 -0.00970695
v -0.25471489 -0.19120428 0.02584865
v -0.26086529 -0.19682225 0.00847841
v -0.26498385 -0.16994985 0.01562806
v -0.26652939 -0.17044401 0.00996076
v -0.26840850 -0.16243976 0.00923705
v -0.24797830 -0.19320701 0.03610217
v -0.23283834 -0.20045628 0.04734720
v -0.25247494 -0.19543682 0.02606471
v -0.26591556 -0.16657767 0.01606985
v -0.25351057 -0.17948280 0.03875051
v -0.24498691 -0.18602953 0.04780723
v -0.22894403 -0.19281281 0.06244179
v -0.26059307 -0.17374857 0.02596353
v -0.25201312 -0.10590587 0.03228238
v -0.24618900 -0.10505600 0.04670700
v -0.24663700 -0.10049800 0.03748200
v -0.23778497 -0.09294130 0.04227594
v -0.24204869 -0.10284964 0.05334412
v -0.23453749 -0.09263900 0.04803100
v -0.23003981 -0.10198231 0.06108619
v -0.23989675 -0.10822349 0.05891090
v -0.24769706 -0.13315766 0.04843252
v -0.25202570 -0.12603411 0.05195944
v -0.24540583 -0.11430299 0.05657309
v -0.20713227 -0.09472554 0.06284071
v -0.21554400 -0.10064400 0.05989100
v -0.20026379 -0.09367558 0.06246459
v -0.18307025 -0.09866050 0.05852900
v -0.21447311 -0.10474930 0.05686378
v -0.19481701 -0.10431800 0.05656100
v -0.18553150 -0.10551250 0.05514075
v -0.22609287 -0.11196850 0.05448388
v -0.22303106 -0.10985436 0.05500742
v -0.18502638 -0.09696940 0.05942005
v -0.21722816 -0.09539943 0.06288273
v -0.20937499 -0.09209600 0.06284700
v -0.22105262 -0.09461950 0.06228050
f 16 17 24
f 43 24 17
f 24 43 23
f 42 23 43
f 43 13 42
f 42 13 12
f 12 8 42
f 8 10 42
f 42 10 19
f 19 10 9
f 14 19 9
f 20 19 14
f 22 19 20
f 21 22 20
f 22 21 27
f 22 27 28
f 33 28 27
f 30 28 33
f 7 30 33
f 33 37 7
f 37 33 31
f 31 14 37
f 37 14 32
f 34 37 32
f 37 34 35
f 41 37 35
f 32 14 11
f 31 25 14
f 33 25 31
f 33 26 25
f 27 25 26
f 20 25 27
f 7 37 41
f 3 7 41
f 145 3 41
f 145 41 152
f 146 145 152
f 146 152 156
f 152 151 156
f 156 151 150
f 156 150 160
f 150 147 160
f 160 147 149
f 148 160 149
f 157 160 148
f 95 160 157
f 95 146 160
f 114 146 95
f 96 146 114
f 95 157 108
f 112 108 157
f 112 157 158
f 159 112 158
f 159 158 154
f 154 133 159
f 130 159 133
f 130 110 159
f 129 110 130
f 120 110 129
f 119 120 129
f 119 129 128
f 117 119 128
f 109 119 117
f 109 94 119
f 94 98 119
f 98 63 119
f 119 63 110
f 63 97 110
f 97 112 110
f 93 112 97
f 83 112 93
f 83 47 112
f 93 97 63
f 63 62 93
f 62 47 93
f 62 45 47
f 45 62 57
f 57 49 45
f 60 49 57
f 60 57 56
f 60 56 98
f 66 60 98
f 66 98 91
f 87 66 91
f 80 87 91
f 80 66 87
f 80 76 66
f 77 76 80
f 90 77 80
f 90 76 77
f 79 76 90
f 79 78 76
f 86 78 79
f 86 69 78
f 85 69 86
f 82 69 85
f 82 84 69
f 84 75 69
f 84 72 75
f 88 72 84
f 88 89 72
f 72 89 81
f 89 118 81
f 89 123 118
f 72 81 71
f 71 81 64
f 81 169 64
f 64 169 73
f 64 73 52
f 64 52 58
f 64 58 53
f 64 53 68
f 68 72 64
f 70 72 68
f 72 70 69
f 69 70 68
f 69 68 67
f 69 67 65
f 65 67 54
f 67 50 54
f 54 50 55
f 50 45 55
f 44 45 50
f 50 46 44
f 48 46 50
f 58 48 50
f 46 48 44
f 48 51 44
f 48 52 51
f 52 106 51
f 52 111 106
f 99 106 111
f 74 99 111
f 104 99 74
f 104 74 170
f 171 104 170
f 171 170 169
f 168 171 169
f 168 102 171
f 103 102 168
f 113 103 168
f 167 113 168
f 176 167 168
f 176 168 180
f 168 179 180
f 179 168 123
f 123 168 118
f 118 168 81
f 167 176 173
f 172 173 176
f 172 176 177
f 172 177 175
f 178 175 177
f 181 172 175
f 174 172 181
f 172 167 173
f 182 167 172
f 183 182 172
f 183 184 182
f 182 184 115
f 182 115 167
f 167 115 113
f 113 115 103
f 168 169 81
f 102 104 171
f 102 101 104
f 170 74 169
f 73 169 74
f 73 74 52
f 111 52 74
f 106 96 51
f 106 116 96
f 106 122 116
f 106 124 122
f 124 125 122
f 127 125 124
f 127 131 125
f 127 1 131
f 2 1 127
f 127 5 2
f 6 5 127
f 127 126 6
f 107 126 127
f 107 127 100
f 127 132 100
f 100 132 106
f 100 106 99
f 104 100 99
f 104 105 100
f 107 105 104
f 101 107 104
f 105 107 100
f 101 126 107
f 126 101 102
f 103 126 102
f 103 165 126
f 165 162 126
f 165 163 162
f 164 163 165
f 166 164 165
f 115 166 165
f 162 163 161
f 162 161 126
f 115 165 103
f 161 6 126
f 127 124 132
f 125 131 122
f 131 3 122
f 106 132 124
f 116 122 96
f 122 121 96
f 122 145 121
f 121 145 96
f 51 96 44
f 96 95 44
f 44 95 108
f 44 108 45
f 65 54 55
f 65 55 60
f 65 60 61
f 65 61 78
f 60 59 61
f 61 59 66
f 68 50 67
f 68 53 50
f 53 58 50
f 58 52 48
f 72 71 64
f 75 72 69
f 69 65 78
f 76 78 61
f 76 61 66
f 59 60 66
f 56 57 98
f 55 49 60
f 49 55 45
f 45 108 47
f 57 62 63
f 98 57 63
f 91 98 94
f 91 94 109
f 91 109 92
f 109 117 92
f 119 110 120
f 133 154 136
f 154 135 136
f 134 133 136
f 133 134 130
f 154 158 135
f 158 153 135
f 158 148 153
f 148 155 153
f 153 155 138
f 138 155 141
f 142 141 155
f 155 149 142
f 141 142 140
f 139 141 140
f 137 141 139
f 138 141 137
f 135 153 138
f 110 112 159
f 47 108 112
f 158 157 148
f 149 155 148
f 149 147 142
f 142 147 143
f 147 144 143
f 147 38 144
f 39 38 147
f 36 39 147
f 41 36 147
f 144 38 40
f 150 151 147
f 151 152 147
f 146 156 160
f 96 145 146
f 152 41 147
f 122 3 145
f 4 30 7
f 15 30 4
f 30 15 29
f 15 28 29
f 29 28 30
f 33 27 26
f 15 22 28
f 16 22 15
f 21 20 27
f 24 19 22
f 20 14 25
f 23 42 19
f 23 19 24
f 17 13 43
f 18 13 17
f 16 24 22

