v 0.36032125 -0.43766425 0.0822536125
v 0.267761875 -0.42554225 0.168987625
v 0.27426225 -0.4254775 0.1672235
v 0.313080875 -0.443584125 0.140337625
v 0.273385375 -0.43143875 0.164544625
v 0.2672355 -0.4317895 0.16700525
v 0.313135375 -0.44734025 0.141793375
v 0.2997885 -0.4330165 0.153068375
v 0.31388125 -0.434928625 0.146793875
v 0.306291375 -0.433441875 0.150071375
v 0.319038125 -0.452717625 0.135211875
v 0.318999125 -0.445388125 0.1391095
v 0.31756325 -0.459866 0.1321935
v 0.317052390625 -0.468583515625 0.1272471875
v 0.315012625 -0.4761335 0.123173875
v 0.32070675 -0.476355625 0.1181345
v 0.318015125 -0.481200625 0.114205375
v 0.308579734375 -0.48924603125 0.113111515625
v 0.314905765625 -0.48794778125 0.107192154687
v 0.321324078125 -0.48662153125 0.101118765625
v 0.3246874375 -0.48044325 0.106725309375
v 0.327000921875 -0.473479078125 0.11165403125
v 0.342594609375 -0.462779265625 0.103801309375
v 0.335454953125 -0.46444446875 0.110013090625
v 0.3463769375 -0.468009203125 0.091848615625
v 0.3404566875 -0.47030659375 0.099014278125
v 0.3432726875 -0.474895625 0.0866877953125
v 0.33953665625 -0.481155640625 0.0813220421875
v 0.337465296875 -0.477189828125 0.0937790078125
v 0.33376696875 -0.483351984375 0.0882443921875
v 0.3277021875 -0.485199796875 0.0948674890625
v 0.32343284375 -0.490646640625 0.089092109375
v 0.31587575 -0.492984625 0.0953855625
v 0.324672 -0.493842125 0.0770486
v 0.337067625 -0.493711625 0.0386913875
v 0.34495375 -0.49022 0.0142367875
v 0.3415615 -0.492665375 0.019477525
v 0.3499615 -0.485429625 0.0181242125
v 0.3443035 -0.489837875 0.025247325
v 0.3394835 -0.49057425 0.0444198875
v 0.340747453125 -0.487154328125 0.0565076484375
v 0.33583475 -0.492326375 0.05117165
v 0.3351525 -0.486794734375 0.0758639796875
v 0.340504859375 -0.484434734375 0.0688763109375
v 0.34549284375 -0.481728625 0.061739671875
v 0.349843890625 -0.4757520625 0.0668406078125
v 0.346430625 -0.483104625 0.0492528375
v 0.34970725 -0.478438875 0.054493625
v 0.36011209375 -0.4536311875 0.0609185671875
v 0.36136278125 -0.446212890625 0.0652088015625
v 0.361480046875 -0.450638015625 0.07266351875
v 0.358110625 -0.454133125 0.0825052375
v 0.3595625 -0.447371375 0.083409875
v 0.292435875 -0.486178 0.134153
v 0.361879875 -0.4428665 0.0783174125
v 0.361009515625 -0.43906 0.0698549640625
v 0.350720875 -0.43298525 0.0966473375
v 0.354586375 -0.4404205 0.096040525
v 0.35505175 -0.44939025 0.09312545
v 0.35627378125 -0.462036 0.0764846671875
v 0.35475675 -0.456443375 0.088581175
v 0.3486025 -0.460453234375 0.096645665625
v 0.351592484375 -0.46520146875 0.0842778703125
v 0.3498435625 -0.452026359375 0.100711665625
v 0.344268125 -0.446307875 0.10920925
v 0.347294125 -0.435005875 0.102301025
v 0.34867425 -0.442198 0.104531125
v 0.3597750625 -0.458113171875 0.0684850609375
v 0.357038203125 -0.46527134375 0.064054315625
v 0.35445675 -0.466946375 0.0533174125
v 0.35735925 -0.46107025 0.055111275
v 0.359016 -0.466228125 0.0326639125
v 0.348514125 -0.482173375 0.0429227875
v 0.363448125 -0.420741625 0.0783750125
v 0.364765625 -0.452725125 0.04401095
v 0.36503975 -0.448484625 0.04907375
v 0.365284125 -0.425019125 0.0738092625
v 0.36135725 -0.420456125 0.0849112625
v 0.325478875 -0.441453 0.13009825
v 0.354177875 -0.4260705 0.0984998875
v 0.355545625 -0.43066375 0.0881982125
v 0.36053978125 -0.433009125 0.075689028125
v 0.361219828125 -0.427389015625 0.0810830390625
v 0.3408985 -0.436273375 0.111039125
v 0.339191625 -0.438888875 0.1166175
v 0.343940625 -0.431449625 0.11421225
v 0.324071125 -0.436427625 0.13714375
v 0.330318625 -0.458044125 0.1191665
v 0.326182875 -0.459277875 0.126767375
v 0.3256985 -0.452657375 0.1311215
v 0.325824125 -0.445383125 0.13366975
v 0.320316375 -0.436157875 0.142788875
v 0.323978546875 -0.467931328125 0.1225684375
v 0.323235625 -0.434723625 0.1325015
v 0.3124075 -0.4833425 0.118786625
v 0.29523709375 -0.4907155625 0.124541625
v 0.34007425 -0.433184125 0.119232125
v 0.358262375 -0.4230445 0.0926649125
v 0.36606875 -0.431074 0.069314375
v 0.365337875 -0.437271625 0.0645601
v 0.36412675 -0.443548 0.059619175
v 0.363363875 -0.44954275 0.055099975
v 0.30868275 -0.44729475 0.149420375
v 0.3142015 -0.454596875 0.140359125
v 0.30612675 -0.440761625 0.1488025
v 0.30109225 -0.4382655 0.153618375
v 0.30890475 -0.4559045 0.147901625
v 0.31485675 -0.461555 0.137325
v 0.3057375 -0.472116375 0.1402765
v 0.307787875 -0.464250375 0.144371625
v 0.311941015625 -0.470533640625 0.13376334375
v 0.3096525 -0.478485375 0.128051375
v 0.3071865 -0.483470375 0.12435225
v 0.365890375 -0.45018525 0.0378800625
v 0.362731375 -0.4592625 0.0386579625
v 0.3627565 -0.454234875 0.034037975
v 0.3020464375 -0.490212609375 0.118868609375
v 0.361283875 -0.458156125 0.0507904
v 0.298821875 -0.484633375 0.131608125
v 0.353373 -0.472316125 0.05781445
v 0.35350021875 -0.469134390625 0.0717510703125
v 0.346565 -0.485501375 0.0371393375
v 0.350063125 -0.483278375 0.03046215
v 0.353435 -0.480988875 0.0237692
v 0.358830125 -0.471740375 0.0290795125
v 0.36257325 -0.468658875 0.0245956375
v 0.367808125 -0.455821 0.02409275
v 0.36639125 -0.4503775 0.0275350625
v 0.36356475 -0.461095625 0.0300795875
v 0.340720625 -0.491807375 0.0319702375
v 0.33190675 -0.493722875 0.0578759
v 0.334400125 -0.490586875 0.0636653375
v 0.330360875 -0.49188175 0.070337225
v 0.32952203125 -0.488967515625 0.0826564046875
v 0.331236765625 -0.47908628125 0.100519845312
v 0.34493971875 -0.478675296875 0.074189934375
v 0.348640765625 -0.472221171875 0.0793348609375
v 0.333939328125 -0.4722090625 0.105719870313
v 0.342768875 -0.4535935 0.10885575
v 0.336313 -0.45617725 0.11340175
v 0.30273025 -0.47899625 0.135458125
v 0.328196390625 -0.465699921875 0.115405859375
v 0.31848075 -0.495148125 0.0834755125
v 0.311004625 -0.49373775 0.1014693625
v 0.304374625 -0.49459775 0.1072475
v 0.31334175 -0.49521275 0.089297
v 0.297608375 -0.494906625 0.112878375
v 0.290823 -0.495114875 0.118488875
v 0.285393875 -0.49474175 0.124116375
v 0.288085875 -0.49078325 0.1298415
v 0.2701935 -0.4326315 0.1653865
v 0.274878 -0.4284235 0.165532
v 0.271129 -0.4244925 0.168494
v 0.2664445 -0.4287005 0.1683485
v 0.3035865 -0.439515 0.1511525
v 0.306391375 -0.4368395 0.148824875
v 0.3024295 -0.432691 0.1516845
v 0.2995845 -0.435487 0.153985
v 0.309575125 -0.4412224375 0.144737625
v 0.3130705 -0.4388255625 0.1438996875
v 0.310158 -0.4342005 0.148467
v 0.316032 -0.4437225 0.139861
v 0.320081625 -0.4402675 0.14092775
v 0.317313 -0.435588 0.1449745
v 0.3216840625 -0.4605614375 0.129068375
v 0.3256485 -0.4566335 0.129248
v 0.3223683125 -0.4526875 0.1331666875
v 0.318442 -0.4566565 0.1329825
v 0.3257615 -0.448672 0.133002
v 0.32289325 -0.4446391875 0.1370754375
v 0.3196125 -0.448674 0.137407
v 0.324602875 -0.440400125 0.1359359375
v 0.3227545 -0.4366175 0.140017
v 0.313043875 -0.466695875 0.1358141875
v 0.3144 -0.469467 0.1303348125
v 0.3177766875 -0.464730125 0.1292386875
v 0.316141 -0.4617215 0.1343195
v 0.3206058125 -0.4682865625 0.1249789375
v 0.324670625 -0.464120625 0.1246780625
v 0.3106476875 -0.4742141875 0.1316226875
v 0.312092 -0.4769305 0.126226
v 0.316091625 -0.4723741875 0.1252195625
v 0.3184345 -0.4757295 0.1205855
v 0.3229625625 -0.4716481875 0.1203226875
v 0.3214848125 -0.4811028125 0.1097473125
v 0.3260065625 -0.477074625 0.1093236875
v 0.3243165 -0.4743785 0.11485175
v 0.3201785 -0.478649 0.1154945
v 0.327603125 -0.4696316875 0.1136076875
v 0.326088875 -0.466873 0.1190540625
v 0.3105250625 -0.48634025 0.1159648125
v 0.3117485 -0.4886179375 0.1101731875
v 0.316667625 -0.484916 0.109998
v 0.315382 -0.4826015 0.115807
v 0.3181055625 -0.4872856875 0.10417368125
v 0.3231109375 -0.483609875 0.10396755
v 0.30922 -0.4839145 0.1216315
v 0.304030625 -0.4874024375 0.1216943125
v 0.3053454375 -0.4897819375 0.116001875
v 0.299874375 -0.49265225 0.115907375
v 0.3009995 -0.494794 0.1100715
v 0.306508625 -0.491967875 0.11019525
v 0.307719 -0.494241 0.1043905
v 0.3129929375 -0.490870125 0.10434186875
v 0.3142035 -0.493102 0.09845295
v 0.319373875 -0.48952525 0.0982473125
v 0.320310375 -0.49138325 0.0922269125
v 0.3256619375 -0.4880315625 0.09197349375
v 0.3245375 -0.4859451875 0.09802840625
v 0.3295623125 -0.482226125 0.0977282375
v 0.3279681875 -0.4798021875 0.103670675
v 0.33272 -0.475756 0.10320641875
v 0.3303594375 -0.4728398125 0.108697375
v 0.3348220625 -0.46841925 0.1079921125
v 0.3315606875 -0.4650004375 0.112593875
v 0.3399365 -0.4553385 0.1106405
v 0.33592475 -0.460342625 0.11177275
v 0.339152375 -0.4637019375 0.1070584875
v 0.3431925 -0.4586654375 0.1058155625
v 0.337287875 -0.4713351875 0.10245960625
v 0.3416594375 -0.466640875 0.101501175
v 0.343497375 -0.4692116875 0.09548158125
v 0.3476035 -0.4643295 0.09431181875
v 0.3457233125 -0.461682875 0.1003128
v 0.34937825 -0.4563416875 0.09880431875
v 0.3468180625 -0.4532553125 0.10424925
v 0.3331195 -0.4570465 0.1160945
v 0.3291639375 -0.46185125 0.11726975
v 0.3390560625 -0.47383275 0.0964397375
v 0.3404228125 -0.476089125 0.0902692
v 0.3449185 -0.4715310625 0.08930189375
v 0.3460121875 -0.473604875 0.08304275625
v 0.35020525 -0.468769875 0.08183308125
v 0.349062375 -0.466657875 0.08810248125
v 0.3528146875 -0.4615415 0.08666635
v 0.3512961875 -0.4591308125 0.0928526125
v 0.334402875 -0.4782021875 0.09720925625
v 0.335692125 -0.4803483125 0.09103354375
v 0.336692125 -0.4822909375 0.08481371875
v 0.341484 -0.4781034375 0.0840224625
v 0.34228725 -0.479956375 0.077782525
v 0.3468868125 -0.4755298125 0.0767860875
v 0.33172025 -0.486244625 0.0854526
v 0.332386125 -0.487925 0.07929664375
v 0.337414875 -0.484053375 0.07860268125
v 0.337860875 -0.4856409375 0.072389925
v 0.3427958125 -0.481637125 0.071549575
v 0.3307745 -0.4843285 0.0916009
v 0.3265205 -0.4898580625 0.08591175
v 0.3145815 -0.4940365 0.0923115
v 0.3151775 -0.4954685 0.0864083
v 0.3210061875 -0.49297025 0.08626919375
v 0.3216435 -0.494596 0.08032875
v 0.327142375 -0.4914619375 0.07985404375
v 0.332783375 -0.4893778125 0.0731055375
v 0.3275725 -0.4929165 0.07371565
v 0.343089125 -0.4891845 0.03464510625
v 0.3430311875 -0.4880575 0.04076561875
v 0.3382705 -0.492148 0.04155265
v 0.33829 -0.4932645 0.0354303
v 0.347717 -0.4871015 0.0215917375
v 0.3429515 -0.4912705 0.02236765
v 0.3426085 -0.492049 0.01618145
v 0.3474585 -0.487977 0.0154009
v 0.3523185 -0.481572 0.02702985
v 0.3477895625 -0.486049125 0.02775716875
v 0.3523015 -0.4826875 0.02085715
v 0.34778 -0.4849495 0.03388915
v 0.3431425 -0.490341 0.02851205
v 0.3430769375 -0.4856993125 0.0529787125
v 0.3383010625 -0.4897554375 0.0538470625
v 0.3382915 -0.490991 0.0476989
v 0.343003 -0.48687825 0.04686390625
v 0.347514 -0.48385 0.0400412
v 0.3474525 -0.4826495 0.04611215
v 0.3430780625 -0.48314725 0.06532496875
v 0.338116625 -0.4870875625 0.06618144375
v 0.338251625 -0.4884505 0.06000398125
v 0.343154 -0.484492875 0.05913858125
v 0.3331535 -0.492155 0.0607707
v 0.3332535 -0.4935085 0.0546201
v 0.34755 -0.481365 0.0519884
v 0.3476615625 -0.480129 0.05812419375
v 0.333053 -0.4908005 0.06692065
v 0.347736125 -0.478819125 0.06431073125
v 0.347489875 -0.4772945625 0.0705390375
v 0.351799 -0.4753345 0.0569433
v 0.3519079375 -0.4739856875 0.06310541875
v 0.351157875 -0.4707488125 0.0755648875
v 0.3517761875 -0.472515125 0.06931815
v 0.3552910625 -0.468665875 0.06172675
v 0.3556045 -0.4673245 0.06791164375
v 0.361443375 -0.448327875 0.06874411875
v 0.360785 -0.4544006875 0.07060668125
v 0.3599914375 -0.4557759375 0.064524525
v 0.3609258125 -0.449928375 0.06305143125
v 0.3585295 -0.46174525 0.0663040125
v 0.3573688125 -0.462927125 0.06018679375
v 0.3590298125 -0.457263875 0.0587840375
v 0.359339 -0.4594535 0.05365335
v 0.3620514375 -0.4544739375 0.05301303125
v 0.3612336875 -0.4521323125 0.05797654375
v 0.3635015 -0.447167 0.0574519
v 0.36245225 -0.4447239375 0.0622658875
v 0.3611719375 -0.4409991875 0.07317836875
v 0.3617809375 -0.446855375 0.07465021875
v 0.3613148125 -0.4425421875 0.06741685
v 0.3647535 -0.440321 0.0620482
v 0.362708375 -0.4379568125 0.0670723375
v 0.3609245 -0.445022 0.0806951
v 0.3589075 -0.4507815 0.0829884
v 0.3602588125 -0.4527124375 0.07675868125
v 0.3574206875 -0.4583508125 0.0787423125
v 0.3583663125 -0.4601895 0.07249081875
v 0.3540060625 -0.46368375 0.080409475
v 0.356323 -0.456307 0.08503495
v 0.3606745 -0.4359100625 0.07270253125
v 0.35975975 -0.434725125 0.07920201875
v 0.361315 -0.440038 0.07975015
v 0.360835375 -0.4302739375 0.07854393125
v 0.358917875 -0.4285118125 0.08450818125
v 0.357799 -0.433178 0.08545475
v 0.35999 -0.436873 0.0830881
v 0.365836 -0.4341855 0.066976
v 0.362907375 -0.431891875 0.07243656875
v 0.3481155 -0.438614 0.103482
v 0.35205675 -0.44172525 0.0997013875
v 0.3529265 -0.4359655 0.09607885
v 0.348503 -0.4328975 0.0993721
v 0.3570060625 -0.42628575 0.0903323
v 0.3562355 -0.42438 0.0963577
v 0.352386 -0.428596 0.09775605
v 0.3531675 -0.430511 0.0916953
v 0.34991125 -0.44753875 0.10229159375
v 0.3525319375 -0.450726125 0.0969696625
v 0.355167 -0.4449325 0.09490625
v 0.354624 -0.4536825 0.09114755
v 0.3549831875 -0.4656359375 0.07414708125
v 0.3466775 -0.444234 0.1070645
v 0.343589 -0.4500055 0.1090925
v 0.353977 -0.469648 0.0555841
v 0.355658 -0.4638275 0.05407955
v 0.360595 -0.471132 0.0261816
v 0.36382 -0.4652935 0.02605055
v 0.3614485 -0.463673 0.0314294
v 0.3582235 -0.4695115 0.03156045
v 0.3642 -0.44904 0.052117
v 0.3628805 -0.456357 0.04760705
v 0.364913 -0.4507025 0.046541
v 0.362344 -0.4574865 0.03568685
v 0.36445 -0.451435 0.03516825
v 0.3655435 -0.451584 0.0409758
v 0.3634375 -0.4576355 0.0414944
v 0.362471 -0.4201185 0.0814053
v 0.3613516875 -0.424038875 0.08312215
v 0.3633059375 -0.4262165 0.0774885
v 0.3644335 -0.422496 0.07595635
v 0.365857 -0.4279485 0.0715937
v 0.359962 -0.421584 0.08875695
v 0.3423345 -0.4314395 0.1172045
v 0.3391685 -0.436399 0.118808
v 0.339718 -0.4384585 0.113346
v 0.342884 -0.433499 0.1117425
v 0.327873 -0.459268 0.1230655
v 0.3242125 -0.4376935 0.13064
v 0.32371 -0.435049 0.134654
v 0.325873 -0.4434965 0.131905
v 0.3666015 -0.4587625 0.0258653
v 0.367627 -0.4524355 0.0250963
v 0.364434 -0.4514185 0.03006815
v 0.3634085 -0.4577455 0.03083715
v 0.2986835625 -0.490525 0.1217360625
v 0.293066375 -0.4929996875 0.12154625
v 0.294216 -0.4950125 0.115684
v 0.2916873125 -0.49078075 0.1272226875
v 0.2860715 -0.493112 0.126976
v 0.28743 -0.495217 0.1212935
v 0.2972625 -0.4880935625 0.127413
v 0.2956555 -0.485467 0.13291
v 0.29006 -0.488211 0.132682
v 0.302567875 -0.484832 0.127308375
v 0.307674 -0.481163 0.1269595
v 0.306036625 -0.4784148125 0.132438
v 0.301038 -0.4822325 0.1329025
v 0.3089678125 -0.4713800625 0.1370543125
v 0.304325 -0.4756565 0.13794
v 0.3109755 -0.4635388125 0.1410444375
v 0.306883 -0.468279 0.142396
v 0.314392 -0.4586985 0.1391745
v 0.311553125 -0.4552506875 0.144130375
v 0.3084785 -0.4601365 0.1462765
v 0.31374 -0.450695 0.14137
v 0.3109090625 -0.4473175 0.145606875
v 0.3090165 -0.4515215 0.149038
v 0.3125155 -0.44488 0.1412155
v 0.3077725 -0.4435315 0.1487835
v 0.27066125 -0.428562 0.16694025
v 0.303008 -0.436103 0.1514185
v 0.3096945 -0.437817 0.146177
v 0.3166725 -0.43965525 0.14241775
v 0.32204525 -0.456645 0.13111525
v 0.322687 -0.448673 0.1352045
v 0.322879 -0.44062375 0.13862625
v 0.31531775 -0.46561775 0.1323375
v 0.321251 -0.46445275 0.12704425
v 0.31329325 -0.47322225 0.12829075
v 0.31960825 -0.4720305 0.1228085
v 0.323012 -0.47783175 0.11239575
v 0.325274 -0.47068425 0.11702725
v 0.31359825 -0.4856425 0.1130025
v 0.31985925 -0.4842505 0.1069945
v 0.307322 -0.4869195 0.11884175
v 0.30321175 -0.49235925 0.11306175
v 0.30976675 -0.49146225 0.10729425
v 0.316194 -0.49021925 0.101321225
v 0.3225365 -0.48880375 0.095135125
v 0.3263605 -0.482958 0.1008927
v 0.32932325 -0.47643775 0.106305
v 0.3310105 -0.4689835 0.1107495
v 0.33962375 -0.45957325 0.108928
v 0.33836375 -0.4676185 0.10487495
v 0.344733 -0.465546 0.09797395
v 0.34643225 -0.4575705 0.10242225
v 0.33229425 -0.46102225 0.114363
v 0.3420525 -0.47273175 0.092911575
v 0.3476285 -0.4702005 0.0856024
v 0.35029 -0.462987 0.090533325
v 0.33595475 -0.47486425 0.099894675
v 0.33863275 -0.47926675 0.087559725
v 0.34423725 -0.476861 0.080433225
v 0.33461075 -0.485188 0.08206175
v 0.34014575 -0.4828785 0.075099375
v 0.33267075 -0.4813455 0.09443245
v 0.32873025 -0.4871855 0.08875125
v 0.317812 -0.49353325 0.089317825
v 0.32412775 -0.49228775 0.08311065
v 0.33001575 -0.490469 0.076511225
v 0.34068725 -0.49067775 0.038097025
v 0.345205 -0.48962375 0.018884275
v 0.35006 -0.48438525 0.024308475
v 0.34546125 -0.48764525 0.0312006
v 0.3406975 -0.48836175 0.050348275
v 0.3452685 -0.48537025 0.04343795
v 0.34069975 -0.485849 0.06267475
v 0.33576275 -0.490994 0.057316275
v 0.34540325 -0.4829705 0.055571275
v 0.33548075 -0.48825725 0.069660325
v 0.3453575 -0.480303 0.067951025
v 0.349837 -0.4771285 0.0606357
v 0.349427 -0.47410025 0.073075125
v 0.35385275 -0.47071725 0.065532975
v 0.360905 -0.4520725 0.06664515
v 0.35880175 -0.45940325 0.06238225
v 0.3603305 -0.45580825 0.055824
v 0.36196025 -0.448395 0.060092875
v 0.3615075 -0.444577 0.070821425
v 0.36265175 -0.44124675 0.064588475
v 0.36068625 -0.4488815 0.07875125
v 0.359453 -0.45648625 0.074668675
v 0.35519975 -0.460016 0.082738775
v 0.36051125 -0.43777375 0.07611625
v 0.35915175 -0.43167775 0.082002625
v 0.35999 -0.436873 0.0830881
v 0.36277175 -0.4348475 0.069729175
v 0.350521 -0.43728975 0.099780425
v 0.3547015 -0.4274455 0.0940265
v 0.352628 -0.44624725 0.098647625
v 0.35206575 -0.45503225 0.095018025
v 0.3526715 -0.467269 0.078013925
v 0.35709625 -0.46380875 0.0702347
v 0.346839 -0.44878375 0.10574075
v 0.3557255 -0.46632025 0.057906625
v 0.36102175 -0.4674025 0.0288055
v 0.36354025 -0.4526985 0.049862025
v 0.36394375 -0.45453525 0.038331325
v 0.362997 -0.423208 0.0795385
v 0.36318075 -0.429063 0.0750721
v 0.35928875 -0.4251075 0.0867088
v 0.34102625 -0.434949 0.11527525
v 0.3269655 -0.46306875 0.121064
v 0.3247915 -0.43927275 0.1332795
v 0.36551775 -0.4550905 0.027966725
v 0.29649475 -0.49286275 0.11874575
v 0.28958275 -0.493072 0.12427825
v 0.2936955 -0.488197 0.1300865
v 0.304356 -0.48169775 0.129931
v 0.3075895 -0.4749895 0.134816
v 0.3006925 -0.48781125 0.1245835
v 0.31012475 -0.46754475 0.13914225
v 0.31143525 -0.4594175 0.1427255
v 0.31137825 -0.45110825 0.145204
v 0.310144 -0.44420575 0.1449995
f 6 151 397 154
f 5 152 397 151
f 3 153 397 152
f 2 154 397 153
f 106 155 398 158
f 105 156 398 155
f 10 157 398 156
f 8 158 398 157
f 10 156 399 161
f 105 159 399 156
f 4 160 399 159
f 9 161 399 160
f 4 162 400 160
f 12 163 400 162
f 92 164 400 163
f 9 160 400 164
f 13 165 401 168
f 89 166 401 165
f 90 167 401 166
f 11 168 401 167
f 90 169 402 167
f 91 170 402 169
f 12 171 402 170
f 11 167 402 171
f 91 172 403 170
f 87 173 403 172
f 92 163 403 173
f 12 170 403 163
f 108 174 404 177
f 111 175 404 174
f 14 176 404 175
f 13 177 404 176
f 14 178 405 176
f 93 179 405 178
f 89 165 405 179
f 13 176 405 165
f 111 180 406 175
f 112 181 406 180
f 15 182 406 181
f 14 175 406 182
f 15 183 407 182
f 16 184 407 183
f 93 178 407 184
f 14 182 407 178
f 17 185 408 188
f 21 186 408 185
f 22 187 408 186
f 16 188 408 187
f 22 189 409 187
f 142 190 409 189
f 93 184 409 190
f 16 187 409 184
f 95 191 410 194
f 18 192 410 191
f 19 193 410 192
f 17 194 410 193
f 19 195 411 193
f 20 196 411 195
f 21 185 411 196
f 17 193 411 185
f 95 197 412 191
f 113 198 412 197
f 117 199 412 198
f 18 191 412 199
f 117 200 413 199
f 147 201 413 200
f 145 202 413 201
f 18 199 413 202
f 145 203 414 202
f 144 204 414 203
f 19 192 414 204
f 18 202 414 192
f 144 205 415 204
f 33 206 415 205
f 20 195 415 206
f 19 204 415 195
f 33 207 416 206
f 32 208 416 207
f 31 209 416 208
f 20 206 416 209
f 31 210 417 209
f 135 211 417 210
f 21 196 417 211
f 20 209 417 196
f 135 212 418 211
f 138 213 418 212
f 22 186 418 213
f 21 211 418 186
f 138 214 419 213
f 24 215 419 214
f 142 189 419 215
f 22 213 419 189
f 139 216 420 219
f 140 217 420 216
f 24 218 420 217
f 23 219 420 218
f 24 214 421 218
f 138 220 421 214
f 26 221 421 220
f 23 218 421 221
f 26 222 422 221
f 25 223 422 222
f 62 224 422 223
f 23 221 422 224
f 62 225 423 224
f 64 226 423 225
f 139 219 423 226
f 23 224 423 219
f 140 227 424 217
f 88 228 424 227
f 142 215 424 228
f 24 217 424 215
f 26 229 425 222
f 29 230 425 229
f 27 231 425 230
f 25 222 425 231
f 27 232 426 231
f 137 233 426 232
f 63 234 426 233
f 25 231 426 234
f 63 235 427 234
f 61 236 427 235
f 62 223 427 236
f 25 234 427 223
f 138 212 428 220
f 135 237 428 212
f 29 229 428 237
f 26 220 428 229
f 29 238 429 230
f 30 239 429 238
f 28 240 429 239
f 27 230 429 240
f 28 241 430 240
f 136 242 430 241
f 137 232 430 242
f 27 240 430 232
f 30 243 431 239
f 134 244 431 243
f 43 245 431 244
f 28 239 431 245
f 43 246 432 245
f 44 247 432 246
f 136 241 432 247
f 28 245 432 241
f 135 210 433 237
f 31 248 433 210
f 30 238 433 248
f 29 237 433 238
f 31 208 434 248
f 32 249 434 208
f 134 243 434 249
f 30 248 434 243
f 33 250 435 207
f 146 251 435 250
f 143 252 435 251
f 32 207 435 252
f 143 253 436 252
f 34 254 436 253
f 134 249 436 254
f 32 252 436 249
f 133 255 437 256
f 43 244 437 255
f 134 254 437 244
f 34 256 437 254
f 130 257 438 260
f 122 258 438 257
f 40 259 438 258
f 35 260 438 259
f 38 261 439 264
f 39 262 439 261
f 37 263 439 262
f 36 264 439 263
f 124 265 440 267
f 123 266 440 265
f 39 261 440 266
f 38 267 440 261
f 123 268 441 266
f 122 257 441 268
f 130 269 441 257
f 39 266 441 269
f 47 270 442 273
f 41 271 442 270
f 42 272 442 271
f 40 273 442 272
f 122 274 443 258
f 73 275 443 274
f 47 273 443 275
f 40 258 443 273
f 45 276 444 279
f 44 277 444 276
f 132 278 444 277
f 41 279 444 278
f 132 280 445 278
f 131 281 445 280
f 42 271 445 281
f 41 278 445 271
f 47 282 446 270
f 48 283 446 282
f 45 279 446 283
f 41 270 446 279
f 133 284 447 255
f 132 277 447 284
f 44 246 447 277
f 43 255 447 246
f 45 285 448 276
f 46 286 448 285
f 136 247 448 286
f 44 276 448 247
f 48 287 449 283
f 120 288 449 287
f 46 285 449 288
f 45 283 449 285
f 121 289 450 290
f 137 242 450 289
f 136 286 450 242
f 46 290 450 286
f 120 291 451 288
f 69 292 451 291
f 121 290 451 292
f 46 288 451 290
f 50 293 452 296
f 51 294 452 293
f 68 295 452 294
f 49 296 452 295
f 68 297 453 295
f 69 298 453 297
f 71 299 453 298
f 49 295 453 299
f 71 300 454 299
f 118 301 454 300
f 102 302 454 301
f 49 299 454 302
f 102 303 455 302
f 101 304 455 303
f 50 296 455 304
f 49 302 455 296
f 56 305 456 307
f 55 306 456 305
f 51 293 456 306
f 50 307 456 293
f 101 308 457 304
f 100 309 457 308
f 56 307 457 309
f 50 304 457 307
f 55 310 458 306
f 53 311 458 310
f 52 312 458 311
f 51 306 458 312
f 52 313 459 312
f 60 314 459 313
f 68 294 459 314
f 51 312 459 294
f 61 235 460 316
f 63 315 460 235
f 60 313 460 315
f 52 316 460 313
f 56 317 461 305
f 82 318 461 317
f 1 319 461 318
f 55 305 461 319
f 1 318 462 322
f 82 320 462 318
f 83 321 462 320
f 81 322 462 321
f 1 323 463 323
f 1 323 463 323
f 1 323 463 323
f 1 323 463 323
f 100 324 464 309
f 99 325 464 324
f 82 317 464 325
f 56 309 464 317
f 66 326 465 329
f 67 327 465 326
f 58 328 465 327
f 57 329 465 328
f 81 330 466 333
f 98 331 466 330
f 80 332 466 331
f 57 333 466 332
f 67 334 467 327
f 64 335 467 334
f 59 336 467 335
f 58 327 467 336
f 64 225 468 335
f 62 236 468 225
f 61 337 468 236
f 59 335 468 337
f 63 233 469 315
f 137 289 469 233
f 121 338 469 289
f 60 315 469 338
f 121 292 470 338
f 69 297 470 292
f 68 314 470 297
f 60 338 470 314
f 67 339 471 334
f 65 340 471 339
f 139 226 471 340
f 64 334 471 226
f 120 341 472 291
f 70 342 472 341
f 71 298 472 342
f 69 291 472 298
f 125 343 473 346
f 126 344 473 343
f 129 345 473 344
f 72 346 473 345
f 76 347 474 349
f 102 301 474 347
f 118 348 474 301
f 75 349 474 348
f 115 350 475 353
f 116 351 475 350
f 114 352 475 351
f 75 353 475 352
f 74 354 476 357
f 78 355 476 354
f 83 356 476 355
f 77 357 476 356
f 83 320 477 356
f 82 325 477 320
f 99 358 477 325
f 77 356 477 358
f 98 330 478 359
f 81 321 478 330
f 83 355 478 321
f 78 359 478 355
f 86 360 479 363
f 97 361 479 360
f 85 362 479 361
f 84 363 479 362
f 89 179 480 364
f 93 190 480 179
f 142 228 480 190
f 88 364 480 228
f 79 365 481 367
f 94 366 481 365
f 87 172 481 366
f 91 367 481 172
f 129 368 482 371
f 127 369 482 368
f 128 370 482 369
f 116 371 482 370
f 117 372 483 200
f 96 373 483 372
f 148 374 483 373
f 147 200 483 374
f 96 375 484 373
f 150 376 484 375
f 149 377 484 376
f 148 373 484 377
f 96 378 485 375
f 119 379 485 378
f 54 380 485 379
f 150 375 485 380
f 119 381 486 384
f 113 382 486 381
f 112 383 486 382
f 141 384 486 383
f 112 180 487 383
f 111 385 487 180
f 109 386 487 385
f 141 383 487 386
f 96 372 488 378
f 117 198 488 372
f 113 381 488 198
f 119 378 488 381
f 108 387 489 174
f 110 388 489 387
f 109 385 489 388
f 111 174 489 385
f 108 389 490 387
f 104 390 490 389
f 107 391 490 390
f 110 387 490 391
f 104 392 491 390
f 7 393 491 392
f 103 394 491 393
f 107 390 491 394
f 103 393 492 396
f 7 395 492 393
f 4 159 492 395
f 105 396 492 159
