v -0.31334 -0.385555 0.0315046
v -0.311287 -0.396663 0.0284575
v -0.3101 -0.406519 0.0149596
v -0.310656 -0.418552 0.0139181
v -0.310543 -0.419727 0.0249941
v -0.314571 -0.430618 0.0247186
v -0.319857 -0.440874 0.0246224
v -0.319772 -0.441348 0.0360237
v -0.318702 -0.44187 0.0471405
v -0.312762 -0.432037 0.0472398
v -0.310527 -0.433142 0.0583134
v -0.316897 -0.442614 0.0580195
v -0.314212 -0.443717 0.0686238
v -0.31072 -0.445217 0.0788928
v -0.305834 -0.447195 0.0886786
v -0.309266 -0.457676 0.0902682
v -0.28837 -0.282867 0.0958081
v -0.31519 -0.374275 0.0345298
v -0.313077 -0.383224 0.0201101
v -0.310194 -0.40809 0.0261919
v -0.311431 -0.39463 0.017197
v -0.318291 -0.454851 0.0691556
v -0.321286 -0.4537 0.0582888
v -0.323343 -0.452719 0.047228
v -0.317807 -0.466361 0.0689544
v -0.313192 -0.467397 0.0794596
v -0.320997 -0.46545 0.058083
v -0.314316 -0.456165 0.0798114
v -0.302544 -0.458959 0.0998465
v -0.300484 -0.44922 0.0984636
v -0.295179 -0.42746 0.0789059
v -0.291764 -0.416101 0.0777327
v -0.286201 -0.395993 0.0904879
v -0.290548 -0.375158 0.0975927
v -0.288351 -0.385563 0.0940152
v -0.292416 -0.364605 0.100908
v -0.293562 -0.353757 0.103828
v -0.293926 -0.342673 0.106368
v -0.301828 -0.330281 0.100585
v -0.300242 -0.319064 0.101911
v -0.304271 -0.306762 0.0932134
v -0.297667 -0.308135 0.102418
v -0.294045 -0.297535 0.101818
v -0.300437 -0.296686 0.0933119
v -0.297824 -0.285323 0.0843654
v -0.306247 -0.291724 0.0731135
v -0.311191 -0.299803 0.060607
v -0.305991 -0.289551 0.0623622
v -0.299109 -0.280369 0.0642077
v -0.297677 -0.278971 0.0536274
v -0.302345 -0.286717 0.0405442
v -0.310162 -0.420993 0.0360796
v -0.28935 -0.27628 0.0214635
v -0.292733 -0.276888 0.0322031
v -0.314042 -0.429956 0.0135175
v -0.324474 -0.451928 0.0359789
v -0.295358 -0.285479 0.0190492
v -0.303541 -0.296217 0.027822
v -0.299185 -0.285937 0.0297366
v -0.307659 -0.296669 0.038403
v -0.313829 -0.308621 0.0477479
v -0.311152 -0.302191 0.0717306
v -0.31423 -0.313127 0.0705265
v -0.30914 -0.305269 0.0827576
v -0.306922 -0.317621 0.0926388
v -0.301783 -0.352542 0.095974
v -0.300555 -0.363422 0.0930201
v -0.29885 -0.374094 0.0898636
v -0.296599 -0.384475 0.0862973
v -0.294345 -0.394854 0.0827289
v -0.303601 -0.383072 0.0773732
v -0.305792 -0.37256 0.0807638
v -0.306449 -0.391787 0.0640798
v -0.304291 -0.402309 0.0607695
v -0.308698 -0.381282 0.0674057
v -0.308655 -0.350893 0.0867549
v -0.308986 -0.339807 0.0891628
v -0.308454 -0.328644 0.0911587
v -0.314038 -0.337716 0.078713
v -0.313561 -0.348811 0.0763291
v -0.31261 -0.359832 0.0736695
v -0.315955 -0.357533 0.0628249
v -0.314483 -0.368429 0.0598769
v -0.317599 -0.355002 0.0518378
v -0.31821 -0.344104 0.0541763
v -0.318041 -0.333033 0.0561967
v -0.316151 -0.324182 0.0691234
v -0.316869 -0.335339 0.067522
v -0.316223 -0.319723 0.0462208
v -0.317124 -0.331099 0.0449788
v -0.316771 -0.34649 0.0653892
v -0.316392 -0.365886 0.0487864
v -0.314541 -0.376797 0.0457377
v -0.312458 -0.387788 0.0426733
v -0.310335 -0.398693 0.0395866
v -0.312524 -0.379182 0.0567956
v -0.310403 -0.389883 0.0536643
v -0.308281 -0.400584 0.050533
v -0.306879 -0.411377 0.0479816
v -0.303487 -0.412958 0.0586835
v -0.307921 -0.422183 0.0472664
v -0.313981 -0.43137 0.0360458
v -0.305236 -0.423443 0.058479
v -0.300241 -0.42524 0.0691771
v -0.307171 -0.434492 0.068943
v -0.309201 -0.409741 0.0372097
v -0.313236 -0.326591 0.0804907
v -0.310836 -0.370647 0.0706155
v -0.299013 -0.403894 0.0705579
v -0.301193 -0.393466 0.0738559
v -0.307474 -0.361832 0.0838951
v -0.311778 -0.315844 0.0818703
v -0.314795 -0.310604 0.0591429
v -0.317173 -0.321763 0.0576273
v -0.311333 -0.307325 0.0366754
v -0.29835 -0.414584 0.0686584
v -0.295718 -0.277735 0.0429479
v -0.285618 -0.269808 0.0328582
v -0.282411 -0.26846 0.0235531
v -0.270226 -0.260456 0.00307695
v -0.247761 -0.235929 -0.0139606
v -0.254606 -0.245782 -0.00503382
v -0.263602 -0.254118 0.00394666
v -0.276773 -0.263175 0.0349386
v -0.275043 -0.262559 0.023897
v -0.27815 -0.264238 0.0459964
v -0.279391 -0.26555 0.0570734
v -0.280135 -0.267773 0.0680629
v -0.268765 -0.261413 0.0589237
v -0.269422 -0.263605 0.0699304
v -0.246715 -0.25992 0.0722466
v -0.258219 -0.261173 0.0714851
v -0.246937 -0.263433 0.0832113
v -0.235492 -0.263198 0.0837042
v -0.235237 -0.25898 0.0729056
v -0.22411 -0.262834 0.0840272
v -0.224377 -0.267478 0.0947273
v -0.213283 -0.273374 0.10502
v -0.202176 -0.280535 0.114172
v -0.292206 -0.405257 0.0793034
v -0.202383 -0.288811 0.121897
v -0.213775 -0.288624 0.121947
v -0.225187 -0.288701 0.121792
v -0.236603 -0.289294 0.120871
v -0.248014 -0.289976 0.119849
v -0.269748 -0.284168 0.110164
v -0.28062 -0.287538 0.106843
v -0.291221 -0.28962 0.0985812
v -0.279656 -0.279561 0.0990254
v -0.280284 -0.274256 0.0890263
v -0.269267 -0.276225 0.101513
v -0.235943 -0.272924 0.104848
v -0.224865 -0.279973 0.114343
v -0.236224 -0.28017 0.114037
v -0.284261 -0.406396 0.087213
v -0.247564 -0.280752 0.113443
v -0.258537 -0.268755 0.0930024
v -0.26976 -0.266686 0.0808433
v -0.25836 -0.273996 0.10336
v -0.247123 -0.267851 0.0939283
v -0.247145 -0.273433 0.104123
v -0.269764 -0.270635 0.0915027
v -0.290295 -0.275605 0.076389
v -0.290097 -0.27321 0.0660062
v -0.289926 -0.278672 0.0865392
v -0.302208 -0.34149 0.0985433
v -0.213495 -0.280186 0.114287
v -0.224599 -0.273122 0.104931
v -0.22382 -0.258399 0.0732471
v -0.223459 -0.253829 0.0625104
v -0.223193 -0.248742 0.0519838
v -0.223147 -0.243452 0.0415915
v -0.213173 -0.230879 0.031568
v -0.232525 -0.223034 -4.98679e-05
v -0.240757 -0.227846 -0.012233
v -0.239205 -0.23119 -0.0013601
v -0.237492 -0.2346 0.00943551
v -0.229668 -0.227664 0.0101888
v -0.226391 -0.232379 0.0210056
v -0.223629 -0.2374 0.031187
v -0.235624 -0.238843 0.0198695
v -0.246257 -0.240968 0.00798589
v -0.254817 -0.247611 0.00596693
v -0.255414 -0.249338 0.0168638
v -0.255836 -0.251442 0.027678
v -0.257052 -0.256247 0.0494312
v -0.256469 -0.253774 0.0385729
v -0.245542 -0.250153 0.0398623
v -0.245883 -0.253567 0.0505602
v -0.246284 -0.256911 0.0613722
v -0.245209 -0.247129 0.0291136
v -0.264619 -0.255403 0.0149017
v -0.245641 -0.243903 0.0186173
v -0.234629 -0.242537 0.0304373
v -0.218475 -0.224737 0.0206148
v -0.234312 -0.247101 0.0407687
v -0.234533 -0.251314 0.0512969
v -0.234897 -0.255062 0.0620944
v -0.23575 -0.267423 0.0944792
v -0.258433 -0.264525 0.0823357
v -0.257669 -0.258625 0.0604576
v -0.267936 -0.259504 0.0479079
v -0.280549 -0.269942 0.0787776
v -0.26689 -0.25793 0.0368882
v -0.265792 -0.256555 0.0258909
v -0.246653 -0.238641 -0.00303746
v -0.273154 -0.262167 0.0128473
v -0.28758 -0.270228 0.0439235
v -0.289153 -0.271299 0.055033
v -0.30456 -0.287896 0.0514228
v -0.310423 -0.297749 0.0494737
v -0.304647 -0.294859 0.0834987
v -0.299303 -0.282824 0.0747515
f 94 95 2 1
f 2 21 19 1
f 18 93 94 1
f 95 106 20 2
f 20 3 21 2
f 20 5 4 3
f 5 6 55 4
f 52 102 6 5
f 20 106 52 5
f 102 8 7 6
f 9 24 56 8
f 102 10 9 8
f 12 23 24 9
f 10 11 12 9
f 102 52 101 10
f 101 103 11 10
f 105 13 12 11
f 103 104 105 11
f 13 22 23 12
f 14 28 22 13
f 15 16 28 14
f 30 29 16 15
f 28 26 25 22
f 25 27 23 22
f 104 116 32 31
f 116 109 140 32
f 155 140 70 33
f 70 69 35 33
f 35 69 68 34
f 68 67 36 34
f 67 66 37 36
f 66 166 38 37
f 166 77 78 39
f 78 65 40 39
f 65 41 42 40
f 65 112 64 41
f 64 212 44 41
f 44 43 42 41
f 212 46 213 45
f 212 64 62 46
f 62 47 48 46
f 48 49 213 46
f 62 63 113 47
f 113 61 211 47
f 211 210 48 47
f 210 50 49 48
f 164 163 213 49
f 210 51 117 50
f 210 211 60 51
f 60 58 59 51
f 59 54 117 51
f 54 59 57 53
f 211 61 115 60
f 113 114 89 61
f 64 112 63 62
f 112 107 87 63
f 87 114 113 63
f 78 107 112 65
f 67 111 76 66
f 76 77 166 66
f 68 72 111 67
f 69 71 72 68
f 70 110 71 69
f 140 109 110 70
f 110 73 75 71
f 75 108 72 71
f 108 81 111 72
f 110 109 74 73
f 74 98 97 73
f 97 96 75 73
f 109 116 100 74
f 100 99 98 74
f 96 83 108 75
f 111 81 80 76
f 80 79 77 76
f 79 107 78 77
f 80 91 88 79
f 88 87 107 79
f 81 82 91 80
f 108 83 82 81
f 83 92 84 82
f 96 93 92 83
f 86 88 91 85
f 90 89 114 86
f 114 87 88 86
f 96 97 94 93
f 97 98 95 94
f 98 99 106 95
f 100 103 101 99
f 101 52 106 99
f 116 104 103 100
f 119 125 124 118
f 124 126 208 118
f 123 192 207 120
f 175 176 206 121
f 206 182 183 122
f 183 184 192 123
f 125 205 204 124
f 204 202 126 124
f 207 192 205 125
f 127 209 208 126
f 202 129 127 126
f 128 164 209 127
f 129 130 128 127
f 203 163 164 128
f 130 158 203 128
f 202 186 201 129
f 201 132 130 129
f 132 200 158 130
f 133 200 132 131
f 132 201 190 131
f 190 198 135 131
f 135 134 133 131
f 160 157 200 133
f 134 199 160 133
f 135 169 136 134
f 136 137 199 134
f 198 170 169 135
f 168 152 199 137
f 167 153 168 138
f 141 142 167 139
f 143 153 167 142
f 144 154 153 143
f 145 156 154 144
f 147 149 151 146
f 148 17 149 147
f 17 165 150 149
f 150 162 151 149
f 165 163 203 150
f 203 158 162 150
f 162 157 159 151
f 161 160 199 152
f 168 153 154 152
f 162 158 200 157
f 160 161 159 157
f 198 197 171 170
f 197 196 172 171
f 196 194 180 172
f 180 179 195 173
f 178 177 176 174
f 177 182 206 176
f 181 193 182 177
f 178 179 181 177
f 180 194 181 179
f 194 191 193 181
f 193 184 183 182
f 185 205 192 184
f 193 191 185 184
f 187 204 205 185
f 191 188 187 185
f 202 204 187 186
f 187 188 189 186
f 189 190 201 186
f 191 194 196 188
f 196 197 189 188
f 197 198 190 189
