# https://github.com/mikedh/trimesh
v -0.07637400 0.17926300 -0.01320800
v -0.07982900 0.18386000 -0.01221900
v -0.10407040 0.31721889 0.04488394
v -0.09878500 0.27448100 0.02668700
v -0.06349200 0.15465100 0.01339700
v -0.06917689 0.16049074 0.00244771
v -0.06860850 0.16367450 0.00039450
v -0.08009900 0.24786000 0.07834700
v -0.07643900 0.22022299 0.08161200
v -0.07583900 0.21711101 0.08199900
v -0.08131600 0.30031699 0.07760600
v -0.07875050 0.22778049 0.07955250
v -0.07143900 0.18469100 0.08056100
v -0.08075900 0.31649399 0.07643900
v -0.07887200 0.32332101 0.07726100
v -0.07345963 0.19861913 0.08202400
v -0.08488475 0.33042626 0.06820475
v -0.06751900 0.17624650 0.08058800
v -0.09858300 0.29263100 0.03430400
v -0.09407507 0.32225506 0.05698213
v -0.08766100 0.32681599 0.06497300
v -0.07529698 0.17093344 0.00845991
v -0.08026085 0.18147830 0.00370563
v -0.07445819 0.16538570 0.03003439
v -0.08074827 0.17701863 0.02406429
v -0.07770943 0.17253782 0.01709647
v -0.07874583 0.18234857 -0.00902867
v -0.08076000 0.18173000 0.00702800
v -0.07080430 0.16009642 0.03640812
v -0.08300150 0.18515049 0.01170550
v -0.07805499 0.17202213 0.05460410
v -0.08077188 0.17618774 0.03982066
v -0.08337833 0.18355045 0.02458635
v -0.07345349 0.16356552 0.04803848
v -0.07034138 0.15998959 0.05056815
v -0.06661600 0.15645450 0.03146800
v -0.08546048 0.19105259 0.01684068
v -0.07357456 0.16723946 0.06253296
v -0.06876650 0.16218850 0.06466500
v -0.07128713 0.16686773 0.06743391
v -0.08687650 0.19402901 0.01758150
v -0.06476325 0.16638725 0.07628950
v -0.08574857 0.21415174 0.06740034
v -0.09132588 0.23340031 0.05542249
v -0.09121968 0.25376565 0.06109339
v -0.09314829 0.25983975 0.05667801
v -0.08419344 0.22474162 0.07282596
v -0.09181264 0.26641168 0.06146423
v -0.09153053 0.26884458 0.06279647
v -0.09202961 0.30207162 0.06069646
v -0.09501843 0.27687411 0.05259511
v -0.08316448 0.19601237 0.06629643
v -0.08897900 0.28093936 0.06785597
v -0.08975043 0.30062262 0.06601539
v -0.07668258 0.18020105 0.07144694
v -0.09081332 0.31430126 0.06075662
v -0.09542025 0.29175380 0.05044070
v -0.08546498 0.26463590 0.07249124
v -0.08598192 0.30275117 0.07206530
v -0.07893828 0.20554382 0.07741925
v -0.08555590 0.32682134 0.06811459
v -0.08069491 0.18692059 0.06648858
v -0.09740849 0.29658844 0.03825658
v -0.09543164 0.25978459 0.04608254
v -0.08918098 0.21577166 0.05572078
v -0.09363119 0.23966010 0.04610298
v -0.08972050 0.21467000 0.05107900
v -0.09526775 0.25019825 0.03969300
v -0.08776175 0.20180126 0.04854675
v -0.08113604 0.18054321 0.05799480
v -0.08522504 0.19327635 0.05536658
v -0.08311152 0.18211906 0.04540524
v -0.08034574 0.17670266 0.05345032
v -0.08671900 0.19480801 0.04404100
v -0.08500749 0.18838907 0.04589895
v -0.09838175 0.26823049 0.02537725
v -0.07493791 0.18450397 0.07660984
v -0.07698070 0.20117025 0.07882269
v -0.08400683 0.31238674 0.07347108
v -0.07202729 0.17804397 0.07683810
v -0.06915600 0.17047796 0.07515959
f 63 57 3
f 57 63 4
f 63 19 4
f 51 57 4
f 50 57 51
f 50 51 49
f 49 51 48
f 48 51 46
f 51 64 46
f 46 64 44
f 64 66 44
f 66 64 68
f 66 68 67
f 65 66 67
f 65 67 69
f 65 69 71
f 69 74 71
f 74 41 71
f 43 65 71
f 52 43 71
f 52 71 70
f 70 71 73
f 71 72 73
f 72 32 73
f 73 32 31
f 32 24 31
f 32 25 24
f 25 26 24
f 25 23 26
f 23 27 26
f 26 27 22
f 22 27 7
f 27 1 7
f 27 2 1
f 22 7 26
f 27 23 2
f 23 25 28
f 30 28 25
f 30 25 33
f 37 30 33
f 41 37 33
f 41 33 72
f 75 41 72
f 71 41 75
f 25 72 33
f 24 26 7
f 34 31 24
f 31 34 38
f 35 38 34
f 38 35 39
f 39 40 38
f 81 40 39
f 81 55 40
f 80 55 81
f 18 80 81
f 18 81 42
f 13 80 18
f 77 80 13
f 16 77 13
f 16 78 77
f 78 60 77
f 60 55 77
f 60 52 55
f 55 52 62
f 62 70 55
f 55 70 31
f 60 78 16
f 60 16 10
f 9 60 10
f 12 60 9
f 47 60 12
f 47 43 60
f 8 47 12
f 11 47 8
f 11 58 47
f 58 53 47
f 59 53 58
f 59 54 53
f 61 54 59
f 79 61 59
f 15 61 79
f 15 79 14
f 11 14 79
f 17 61 15
f 21 61 17
f 21 20 61
f 61 20 56
f 56 50 61
f 56 20 50
f 20 3 50
f 79 59 11
f 61 50 54
f 53 54 49
f 47 53 49
f 59 58 11
f 77 55 80
f 42 81 39
f 55 38 40
f 34 29 35
f 35 29 36
f 5 36 29
f 29 6 5
f 24 6 29
f 55 31 38
f 34 24 29
f 72 25 32
f 71 75 72
f 73 31 70
f 52 70 62
f 52 60 43
f 47 65 43
f 47 44 65
f 47 45 44
f 48 45 47
f 64 4 68
f 4 76 68
f 44 66 65
f 45 46 44
f 48 46 45
f 49 48 47
f 54 50 49
f 51 4 64
f 50 3 57

