v -0.135112 0.326888 -0.0688626
v -0.147423 0.319232 -0.0706126
v -0.139435 0.317724 -0.0691534
v -0.108189 0.353159 -0.0664366
v -0.122253 0.331929 -0.0671685
v -0.117583 0.339036 -0.0669149
v -0.112914 0.346144 -0.0666613
v -0.126977 0.324717 -0.0674182
v -0.130685 0.335586 -0.0685822
v -0.125938 0.342841 -0.0683341
v -0.12119 0.350097 -0.068086
v -0.134043 0.347154 -0.070031
v -0.116383 0.357471 -0.0678865
v -0.128834 0.354945 -0.0698597
v -0.12315 0.363094 -0.069616
v -0.141308 0.35196 -0.0722419
v -0.146621 0.341968 -0.0723688
v -0.155532 0.322574 -0.07271
v -0.151082 0.332265 -0.0725389
v -0.167622 0.302935 -0.0749793
v -0.158302 0.311405 -0.072725
v -0.168838 0.292616 -0.0747878
v -0.159258 0.301316 -0.0724619
v -0.160087 0.282366 -0.0719512
v -0.159713 0.29176 -0.0721634
v -0.150677 0.282314 -0.0698298
v -0.150337 0.291699 -0.0700578
v -0.149997 0.301084 -0.0702858
v -0.140755 0.299865 -0.0685817
v -0.140253 0.308784 -0.0688925
v -0.149566 0.310207 -0.0705604
v -0.130439 0.316281 -0.0675353
v -0.141278 0.291241 -0.0683451
v -0.131556 0.300002 -0.067305
v -0.130988 0.308013 -0.0673879
v -0.131015 0.275 -0.0666831
v -0.131289 0.283375 -0.066906
v -0.131563 0.291749 -0.0671289
v -0.121953 0.276392 -0.0660305
v -0.113264 0.286276 -0.0656749
v -0.122063 0.284569 -0.0661307
v -0.122174 0.292746 -0.0662308
v -0.122254 0.300868 -0.0662817
v -0.112606 0.309422 -0.0658035
v -0.118718 0.250739 -0.0657332
v -0.119873 0.25932 -0.0658322
v -0.111388 0.269283 -0.0654764
v -0.121028 0.2679 -0.0659313
v -0.112543 0.277863 -0.0655754
v -0.109181 0.252203 -0.0652269
v -0.110265 0.260727 -0.0653618
v -0.108092 0.243685 -0.0651496
v -0.100091 0.199839 -0.0652889
v -0.101928 0.208742 -0.0653328
v -0.103765 0.217645 -0.0653768
v -0.112902 0.21573 -0.065796
v -0.114738 0.224633 -0.0658399
v -0.105403 0.226428 -0.0652404
v -0.111094 0.206846 -0.0659043
v -0.122121 0.213867 -0.0666438
v -0.123907 0.222737 -0.0664231
v -0.133268 0.221039 -0.0676023
v -0.135066 0.229985 -0.0675501
v -0.136337 0.238718 -0.0676114
v -0.128104 0.249022 -0.0663556
v -0.129375 0.257755 -0.0664169
v -0.137611 0.247508 -0.0676819
v -0.138891 0.256428 -0.0677736
v -0.130648 0.266519 -0.0664832
v -0.148381 0.255273 -0.0693535
v -0.149654 0.264196 -0.0694891
v -0.145867 0.237413 -0.0691018
v -0.147122 0.246343 -0.0692268
v -0.156857 0.245094 -0.0711163
v -0.158073 0.25416 -0.0713528
v -0.159272 0.263283 -0.0716371
v -0.165019 0.234788 -0.0735492
v -0.16631 0.24412 -0.0736719
v -0.167602 0.253451 -0.0737946
v -0.175845 0.243111 -0.0765396
v -0.176905 0.252787 -0.0767154
v -0.177908 0.262575 -0.0768894
v -0.184938 0.242717 -0.0802116
v -0.185826 0.25272 -0.0804017
v -0.186577 0.262964 -0.0805787
v -0.193601 0.242691 -0.0845858
v -0.19427 0.25302 -0.0848116
v -0.194923 0.263551 -0.0849235
v -0.201369 0.242828 -0.0898791
v -0.200014 0.23196 -0.0899389
v -0.187906 0.211863 -0.0843984
v -0.190848 0.221685 -0.0844611
v -0.177266 0.20416 -0.0801578
v -0.179761 0.213879 -0.0804515
v -0.1821 0.223112 -0.0802935
v -0.168609 0.206057 -0.076504
v -0.17083 0.215241 -0.0764867
v -0.173051 0.224424 -0.0764694
v -0.161561 0.216539 -0.0734573
v -0.15452 0.189084 -0.0742056
v -0.156862 0.198234 -0.0739529
v -0.159203 0.207383 -0.0737002
v -0.143368 0.181669 -0.0725451
v -0.152248 0.180013 -0.0747156
v -0.141141 0.172629 -0.0733096
v -0.163256 0.187353 -0.0773766
v -0.123239 0.176162 -0.0697969
v -0.132226 0.174343 -0.0713582
v -0.134474 0.183344 -0.070451
v -0.125372 0.185144 -0.0690829
v -0.127339 0.194099 -0.0686478
v -0.129306 0.203054 -0.0682127
v -0.131295 0.212029 -0.0678093
v -0.136502 0.192343 -0.0700487
v -0.138513 0.20136 -0.0697722
v -0.140528 0.210376 -0.0694819
v -0.142542 0.219392 -0.0691915
v -0.105061 0.180095 -0.0674614
v -0.114215 0.178055 -0.0683773
v -0.0981928 0.190929 -0.065497
v -0.145623 0.19067 -0.0718366
v -0.147861 0.199764 -0.0715065
v -0.149919 0.20885 -0.0713569
v -0.151978 0.217937 -0.0712073
v -0.153883 0.227017 -0.0710927
v -0.155426 0.236079 -0.0710606
v -0.166095 0.196733 -0.0767859
v -0.195067 0.274626 -0.0851595
v -0.186335 0.28453 -0.0810125
v -0.177252 0.294209 -0.0776783
v -0.185255 0.296174 -0.0813469
v -0.173285 0.31731 -0.0780018
v -0.170758 0.329396 -0.0783743
v -0.192338 0.232212 -0.0844942
v -0.187039 0.273379 -0.0808321
v -0.177943 0.28312 -0.0775365
v -0.183865 0.232617 -0.080093
v -0.177926 0.272833 -0.0772056
v -0.169036 0.272452 -0.0742215
v -0.174515 0.23369 -0.0764439
v -0.163419 0.22563 -0.0734699
v -0.144549 0.228451 -0.0689933
v -0.140162 0.265353 -0.0679204
v -0.107241 0.188952 -0.0666307
v -0.116269 0.186987 -0.0678066
v -0.109221 0.197928 -0.066213
v -0.118249 0.195963 -0.0673889
v -0.12023 0.204939 -0.0669712
v -0.106802 0.235081 -0.0651759
v -0.116237 0.233352 -0.065641
v -0.125574 0.231571 -0.0662823
v -0.117501 0.242076 -0.0656728
v -0.126838 0.240295 -0.0663141
v -0.12185 0.308754 -0.066453
v -0.121292 0.316761 -0.0666496
v -0.112275 0.317557 -0.0659259
v -0.140918 0.274185 -0.0681019
v -0.150865 0.273111 -0.0696502
v -0.141135 0.282904 -0.0681525
v -0.168756 0.262687 -0.0740131
v -0.159997 0.272711 -0.0718276
v -0.169111 0.282602 -0.0744828
v -0.175881 0.305505 -0.0777545
v -0.165989 0.313951 -0.0751659
v -0.162772 0.325294 -0.0750702
v -0.15887 0.336355 -0.0751603
v -0.110527 0.365049 -0.0677013
v -0.117223 0.370863 -0.0694033
v -0.143079 0.328494 -0.070345
v -0.13864 0.338193 -0.0701812
f 13 11 7 4
f 6 10 9 5
f 9 1 8 5
f 7 11 10 6
f 1 3 32 8
f 10 12 170 9
f 170 169 1 9
f 11 14 12 10
f 13 15 14 11
f 16 17 170 12
f 167 168 15 13
f 19 169 170 17
f 19 166 165 18
f 165 164 21 18
f 21 31 2 18
f 2 169 19 18
f 164 132 163 20
f 163 130 22 20
f 22 25 23 20
f 23 21 164 20
f 23 28 31 21
f 130 136 162 22
f 162 24 25 22
f 25 27 28 23
f 162 139 161 24
f 161 158 26 24
f 26 27 25 24
f 158 157 159 26
f 159 33 27 26
f 33 29 28 27
f 29 30 31 28
f 33 38 34 29
f 34 35 30 29
f 3 2 31 30
f 35 32 3 30
f 35 154 155 32
f 159 37 38 33
f 38 42 43 34
f 43 154 35 34
f 37 159 157 36
f 157 143 69 36
f 69 48 39 36
f 39 41 37 36
f 41 42 38 37
f 48 47 49 39
f 49 40 41 39
f 156 155 154 44
f 46 66 65 45
f 65 153 152 45
f 152 52 50 45
f 50 51 46 45
f 48 69 66 46
f 51 47 48 46
f 152 150 149 52
f 54 59 146 53
f 146 144 120 53
f 55 56 59 54
f 58 57 56 55
f 57 61 60 56
f 60 148 59 56
f 150 151 61 57
f 58 149 150 57
f 148 147 146 59
f 61 62 113 60
f 113 112 148 60
f 151 63 62 61
f 63 142 117 62
f 117 116 113 62
f 64 72 142 63
f 151 153 64 63
f 67 73 72 64
f 153 65 67 64
f 66 68 67 65
f 69 143 68 66
f 68 70 73 67
f 143 71 70 68
f 71 76 75 70
f 75 74 73 70
f 158 161 76 71
f 143 157 158 71
f 73 74 126 72
f 126 125 142 72
f 75 79 78 74
f 78 77 126 74
f 76 160 79 75
f 161 139 160 76
f 78 80 140 77
f 140 98 141 77
f 141 125 126 77
f 79 81 80 78
f 160 82 81 79
f 81 84 83 80
f 83 137 140 80
f 82 85 84 81
f 138 135 85 82
f 160 139 138 82
f 84 87 86 83
f 86 134 137 83
f 85 88 87 84
f 135 128 88 85
f 89 90 134 86
f 94 95 92 91
f 95 137 134 92
f 96 97 94 93
f 97 98 95 94
f 98 140 137 95
f 127 101 102 96
f 102 99 97 96
f 99 141 98 97
f 102 123 124 99
f 124 125 141 99
f 101 127 106 100
f 104 103 121 100
f 121 122 101 100
f 122 123 102 101
f 105 108 109 103
f 109 114 121 103
f 110 109 108 107
f 119 145 110 107
f 110 111 114 109
f 145 147 111 110
f 112 115 114 111
f 147 148 112 111
f 113 116 115 112
f 115 122 121 114
f 116 123 122 115
f 117 124 123 116
f 142 125 124 117
f 144 145 119 118
f 135 138 136 129
f 136 130 131 129
f 164 165 133 132
f 138 139 162 136
f 146 147 145 144
f 152 153 151 150
f 2 3 1 169
