v 0.338963 -0.282192 0.0694124
v 0.336679 -0.280641 0.065179
v 0.333672 -0.277144 0.0680327
v 0.334395 -0.27909 0.0609456
v 0.331362 -0.275634 0.0637973
v 0.328212 -0.272357 0.0666399
v 0.324926 -0.269276 0.0696464
v 0.327255 -0.270605 0.0738608
v 0.324039 -0.26737 0.0770487
v 0.321553 -0.266248 0.0727172
v 0.31804 -0.263457 0.0760763
v 0.314379 -0.260953 0.0793961
v 0.310435 -0.258964 0.082898
v 0.306484 -0.257018 0.0863793
v 0.302533 -0.255071 0.0898605
v 0.304967 -0.256394 0.0943536
v 0.300804 -0.255022 0.097884
v 0.311023 -0.260036 0.0951577
v 0.307013 -0.258442 0.0987538
v 0.312734 -0.262609 0.0993846
v 0.308638 -0.261179 0.102938
v 0.304483 -0.260082 0.106491
v 0.30019 -0.259253 0.109909
v 0.295843 -0.258843 0.113157
v 0.291515 -0.258654 0.116324
v 0.287079 -0.258442 0.119441
v 0.282642 -0.258229 0.122558
v 0.294212 -0.255829 0.10895
v 0.289771 -0.255637 0.11206
v 0.285313 -0.255394 0.115222
v 0.280854 -0.255147 0.118387
v 0.287808 -0.252918 0.107877
v 0.276472 -0.254717 0.121482
v 0.275732 -0.261125 0.1329
v 0.273921 -0.257563 0.128778
v 0.28006 -0.261428 0.129771
v 0.278283 -0.257961 0.125686
v 0.281672 -0.26595 0.133318
v 0.284381 -0.261744 0.126627
v 0.298102 -0.266505 0.120899
v 0.29402 -0.266417 0.123985
v 0.289938 -0.266328 0.127071
v 0.285856 -0.26624 0.130157
v 0.288596 -0.262096 0.123443
v 0.302347 -0.266672 0.117737
v 0.306649 -0.267119 0.114384
v 0.315156 -0.269025 0.107165
v 0.310907 -0.26806 0.110768
v 0.319186 -0.270467 0.103641
v 0.320002 -0.27389 0.107056
v 0.325313 -0.282695 0.109551
v 0.324649 -0.27909 0.106493
v 0.323986 -0.275485 0.103435
v 0.323605 -0.287039 0.114771
v 0.322085 -0.282073 0.112638
v 0.318694 -0.28154 0.1161
v 0.31677 -0.27677 0.113736
v 0.313184 -0.276365 0.116984
v 0.307674 -0.27119 0.117868
v 0.314984 -0.28121 0.11929
v 0.311071 -0.281 0.122386
v 0.307158 -0.28079 0.125482
v 0.303245 -0.28058 0.128578
v 0.309378 -0.276092 0.120129
v 0.305465 -0.275882 0.123226
v 0.30143 -0.275644 0.126543
v 0.297254 -0.275654 0.129473
v 0.291986 -0.286409 0.138648
v 0.298995 -0.280715 0.131406
v 0.294676 -0.280945 0.134139
v 0.290356 -0.281175 0.136871
v 0.293046 -0.275711 0.132362
v 0.288727 -0.275941 0.135095
v 0.287693 -0.286605 0.141425
v 0.286164 -0.281248 0.13981
v 0.284635 -0.275891 0.138195
v 0.283178 -0.287174 0.143819
v 0.281698 -0.281746 0.142285
v 0.280218 -0.276319 0.140752
v 0.285781 -0.29762 0.145957
v 0.28456 -0.292489 0.145096
v 0.29147 -0.302212 0.144344
v 0.286926 -0.302789 0.146666
v 0.290417 -0.296998 0.143816
v 0.287972 -0.307977 0.147172
v 0.292499 -0.307331 0.144792
v 0.297025 -0.306685 0.142411
v 0.296012 -0.301625 0.142015
v 0.288875 -0.313028 0.147268
v 0.28428 -0.313796 0.149424
v 0.30144 -0.306296 0.140002
v 0.300341 -0.301308 0.139387
v 0.304552 -0.301153 0.136566
v 0.299137 -0.296223 0.138427
v 0.303356 -0.296126 0.135659
v 0.302046 -0.290952 0.13445
v 0.308528 -0.301319 0.133563
v 0.312411 -0.30161 0.13049
v 0.316295 -0.301901 0.127417
v 0.317181 -0.307256 0.127496
v 0.321064 -0.307561 0.12429
v 0.320178 -0.302197 0.124287
v 0.324947 -0.307866 0.121084
v 0.324061 -0.302503 0.121081
v 0.32883 -0.308172 0.117879
v 0.327944 -0.302808 0.117875
v 0.332713 -0.308477 0.114673
v 0.331683 -0.303015 0.113976
v 0.33652 -0.308595 0.110498
v 0.34205 -0.313345 0.10453
v 0.34035 -0.308598 0.105851
v 0.347477 -0.317925 0.0985497
v 0.345371 -0.312518 0.0998231
v 0.351916 -0.320977 0.0922948
v 0.353706 -0.318708 0.0872412
v 0.338619 -0.291702 0.0988341
v 0.355225 -0.31648 0.0818489
v 0.355815 -0.313019 0.0760193
v 0.353717 -0.308818 0.0783115
v 0.351271 -0.300983 0.0753037
v 0.351572 -0.304405 0.0801204
v 0.349291 -0.300089 0.0819653
v 0.348749 -0.29693 0.0774135
v 0.346755 -0.295976 0.0838902
v 0.34616 -0.292874 0.0794053
v 0.344731 -0.294801 0.0886691
v 0.347208 -0.298992 0.087518
v 0.344224 -0.303018 0.0972465
v 0.342356 -0.299246 0.0977757
v 0.340487 -0.295474 0.0983049
v 0.345809 -0.30109 0.0922412
v 0.343941 -0.297318 0.0927704
v 0.34147 -0.303805 0.101969
v 0.339595 -0.300026 0.102497
v 0.338636 -0.303798 0.106273
v 0.336694 -0.299175 0.106348
v 0.337657 -0.295438 0.102591
v 0.334751 -0.294435 0.106114
v 0.335709 -0.290563 0.101998
v 0.3328 -0.289425 0.105162
v 0.329891 -0.288286 0.108326
v 0.330002 -0.298111 0.113847
v 0.331754 -0.29339 0.109323
v 0.328309 -0.292825 0.112762
v 0.349887 -0.309401 0.0901986
v 0.347692 -0.304893 0.0916718
v 0.349278 -0.302968 0.0866628
v 0.341743 -0.293304 0.0937822
v 0.338428 -0.289355 0.0961829
v 0.334521 -0.283825 0.0961389
v 0.334828 -0.286798 0.0992092
v 0.331037 -0.281894 0.0995842
v 0.330681 -0.278858 0.0964512
v 0.327246 -0.276989 0.0999593
v 0.326709 -0.273947 0.0966907
v 0.3231 -0.272071 0.100069
v 0.321782 -0.268997 0.0962176
v 0.325444 -0.271029 0.0928369
v 0.320542 -0.266151 0.0923628
v 0.324211 -0.268561 0.0889199
v 0.331236 -0.274027 0.0823331
v 0.334583 -0.277055 0.0791348
v 0.337753 -0.280486 0.0763059
v 0.343383 -0.288985 0.0815359
v 0.342079 -0.286551 0.0775258
v 0.339082 -0.282889 0.0803124
v 0.340775 -0.284117 0.0735157
v 0.340235 -0.285324 0.0841969
v 0.337053 -0.281663 0.0868302
v 0.335911 -0.279282 0.0830129
v 0.332555 -0.276276 0.0862076
v 0.322575 -0.266384 0.0847517
v 0.32618 -0.268928 0.0813355
v 0.318852 -0.263991 0.0881465
v 0.316947 -0.261899 0.0837825
v 0.327851 -0.271024 0.0854966
v 0.333694 -0.278734 0.0900118
v 0.330294 -0.275972 0.093322
v 0.329178 -0.273387 0.0894576
v 0.33426 -0.281243 0.0932124
v 0.341489 -0.29091 0.091021
v 0.33818 -0.286965 0.0934334
v 0.337622 -0.284343 0.0901458
v 0.344179 -0.29179 0.0851291
v 0.340919 -0.288208 0.0876986
v 0.345148 -0.290163 0.0751741
v 0.343687 -0.287839 0.0710648
v 0.346269 -0.291731 0.0685597
v 0.348838 -0.295626 0.0660357
v 0.350748 -0.299826 0.0635938
v 0.349007 -0.297549 0.0590158
v 0.346892 -0.295624 0.0545841
v 0.344516 -0.294013 0.0502837
v 0.342155 -0.290206 0.0529318
v 0.339705 -0.286443 0.0555898
v 0.342225 -0.287853 0.0598027
v 0.339658 -0.284109 0.0624595
v 0.337123 -0.282729 0.0582553
v 0.348871 -0.299641 0.052006
v 0.346505 -0.298021 0.0477028
v 0.346971 -0.293514 0.0615778
v 0.344746 -0.291667 0.0571754
v 0.344479 -0.289609 0.0641528
v 0.341897 -0.285733 0.0667096
v 0.352454 -0.30211 0.0681526
v 0.350244 -0.298055 0.0705391
v 0.347915 -0.29399 0.0728346
v 0.353344 -0.305258 0.0731285
v 0.353432 -0.311783 0.0834161
v 0.351403 -0.307416 0.0851003
v 0.348118 -0.311559 0.0952651
v 0.346105 -0.306819 0.0966808
v 0.352015 -0.313996 0.0887469
v 0.343372 -0.307787 0.101246
v 0.350116 -0.316274 0.0938398
v 0.335209 -0.303357 0.110078
v 0.333459 -0.298571 0.110163
v 0.315386 -0.296537 0.126746
v 0.319266 -0.296819 0.123658
v 0.311468 -0.296272 0.129795
v 0.317956 -0.291506 0.122429
v 0.313996 -0.291259 0.125436
v 0.323091 -0.297126 0.120513
v 0.32174 -0.291831 0.119243
v 0.294852 -0.296533 0.141273
v 0.283321 -0.30864 0.149237
v 0.282101 -0.303507 0.148387
v 0.280882 -0.298375 0.147536
v 0.279662 -0.293242 0.146686
v 0.278757 -0.270994 0.138517
v 0.277296 -0.265669 0.136283
v 0.29782 -0.291223 0.137363
v 0.293552 -0.291538 0.140244
v 0.289284 -0.291854 0.143126
v 0.300567 -0.285854 0.133018
v 0.2963 -0.28617 0.1359
v 0.303676 -0.271 0.121031
v 0.299516 -0.270957 0.124062
v 0.295356 -0.270915 0.127092
v 0.307512 -0.296046 0.132797
v 0.310046 -0.291062 0.12843
v 0.306098 -0.290883 0.131419
v 0.316526 -0.286256 0.121074
v 0.312579 -0.286077 0.124063
v 0.308632 -0.285898 0.127052
v 0.304685 -0.285719 0.130041
v 0.320365 -0.286539 0.11799
v 0.326576 -0.297547 0.117274
v 0.325092 -0.292281 0.116061
v 0.326716 -0.287548 0.111615
v 0.331767 -0.285473 0.102589
v 0.328743 -0.284202 0.105956
v 0.327939 -0.280516 0.102976
v 0.320648 -0.277388 0.11029
v 0.315864 -0.272744 0.110683
v 0.311618 -0.271857 0.114377
v 0.291266 -0.270795 0.130243
v 0.287187 -0.270664 0.133412
v 0.283107 -0.270533 0.13658
v 0.301355 -0.26278 0.113879
v 0.297099 -0.262541 0.117072
v 0.292842 -0.262303 0.120265
v 0.309934 -0.264473 0.106983
v 0.3056 -0.263552 0.110483
v 0.31801 -0.267258 0.099761
v 0.314119 -0.265617 0.103423
v 0.316786 -0.264105 0.0958146
v 0.30288 -0.257114 0.102299
v 0.298588 -0.256295 0.105709
v 0.296539 -0.254064 0.101297
v 0.292217 -0.253338 0.104646
v 0.315017 -0.26176 0.0915888
v 0.313032 -0.259828 0.0872767
v 0.309072 -0.257843 0.090791
v 0.320553 -0.264543 0.0803961
v 0.329615 -0.271873 0.0781338
v 0.335916 -0.278678 0.0722744
v 0.332846 -0.275156 0.0751409
v 0.330644 -0.273639 0.0708906
f 2 3 277 1
f 277 163 167 1
f 167 187 204 1
f 204 197 2 1
f 4 5 3 2
f 197 198 4 2
f 5 6 279 3
f 279 278 277 3
f 7 8 279 6
f 10 9 8 7
f 9 173 276 8
f 276 278 279 8
f 10 11 275 9
f 275 172 173 9
f 12 175 275 11
f 13 273 175 12
f 14 274 273 13
f 15 16 274 14
f 17 268 19 16
f 19 18 274 16
f 270 269 268 17
f 19 21 20 18
f 20 267 272 18
f 272 273 274 18
f 268 22 21 19
f 21 263 266 20
f 266 265 267 20
f 22 264 263 21
f 268 269 23 22
f 23 260 264 22
f 269 28 24 23
f 24 261 260 23
f 28 29 25 24
f 25 262 261 24
f 29 30 26 25
f 26 44 262 25
f 30 31 27 26
f 27 39 44 26
f 31 33 37 27
f 37 36 39 27
f 271 32 29 28
f 269 270 271 28
f 231 38 36 34
f 36 37 35 34
f 38 43 39 36
f 231 230 259 38
f 259 258 43 38
f 43 42 44 39
f 261 262 41 40
f 41 239 238 40
f 238 237 45 40
f 45 260 261 40
f 262 44 42 41
f 42 257 239 41
f 43 258 257 42
f 237 59 46 45
f 46 264 260 45
f 59 256 48 46
f 48 263 264 46
f 266 263 48 47
f 48 256 255 47
f 255 50 49 47
f 49 265 266 47
f 50 53 156 49
f 156 157 265 49
f 255 57 254 50
f 254 52 53 50
f 52 254 55 51
f 55 54 250 51
f 250 141 252 51
f 252 253 52 51
f 253 154 53 52
f 154 155 156 53
f 55 56 247 54
f 247 224 249 54
f 249 144 250 54
f 254 57 56 55
f 57 58 60 56
f 60 243 247 56
f 255 256 58 57
f 256 59 64 58
f 64 61 60 58
f 237 65 64 59
f 61 244 243 60
f 64 65 62 61
f 62 245 244 61
f 65 66 63 62
f 63 246 245 62
f 66 67 69 63
f 69 235 246 63
f 237 238 66 65
f 238 239 67 66
f 239 257 72 67
f 72 70 69 67
f 71 75 74 68
f 74 234 233 68
f 233 232 236 68
f 236 70 71 68
f 70 236 235 69
f 72 73 71 70
f 73 76 75 71
f 257 258 73 72
f 258 259 76 73
f 75 78 77 74
f 77 81 234 74
f 76 79 78 75
f 259 230 79 76
f 81 229 228 80
f 228 227 83 80
f 83 82 84 80
f 84 234 81 80
f 83 85 86 82
f 86 87 88 82
f 88 225 84 82
f 227 226 85 83
f 225 233 234 84
f 226 90 89 85
f 91 92 88 87
f 92 94 225 88
f 93 95 94 92
f 97 240 95 93
f 95 96 232 94
f 232 233 225 94
f 240 242 96 95
f 235 236 232 96
f 242 246 235 96
f 98 220 240 97
f 99 218 220 98
f 102 219 218 99
f 100 101 102 99
f 103 104 102 101
f 104 223 219 102
f 105 106 104 103
f 106 248 223 104
f 107 108 106 105
f 108 142 248 106
f 109 216 108 107
f 216 217 142 108
f 111 135 216 109
f 113 214 111 110
f 214 133 135 111
f 215 211 113 112
f 211 212 214 113
f 115 213 215 114
f 117 209 213 115
f 118 119 209 117
f 208 120 121 119
f 121 210 209 119
f 206 207 123 120
f 123 122 121 120
f 208 205 206 120
f 122 147 210 121
f 123 125 124 122
f 124 127 147 122
f 207 186 125 123
f 125 164 184 124
f 184 126 127 124
f 186 165 164 125
f 184 185 181 126
f 181 148 132 126
f 132 131 127 126
f 131 146 147 127
f 131 132 129 128
f 129 134 133 128
f 133 214 212 128
f 212 146 131 128
f 132 148 130 129
f 130 137 134 129
f 148 149 116 130
f 116 139 137 130
f 134 136 135 133
f 137 138 136 134
f 136 217 216 135
f 138 143 217 136
f 139 140 138 137
f 140 141 143 138
f 151 251 140 139
f 116 149 151 139
f 251 252 141 140
f 250 144 143 141
f 144 249 248 142
f 217 143 144 142
f 210 147 146 145
f 146 212 211 145
f 211 215 213 145
f 213 209 210 145
f 181 182 149 148
f 182 150 151 149
f 180 153 152 150
f 152 251 151 150
f 182 183 180 150
f 153 154 253 152
f 253 252 251 152
f 178 155 154 153
f 180 177 178 153
f 158 157 156 155
f 178 179 158 155
f 159 267 265 157
f 158 160 159 157
f 179 176 160 158
f 174 272 267 159
f 160 172 174 159
f 176 173 172 160
f 276 173 176 161
f 176 179 171 161
f 171 170 162 161
f 162 278 276 161
f 170 166 163 162
f 163 277 278 162
f 166 165 167 163
f 165 166 168 164
f 168 185 184 164
f 186 187 167 165
f 170 169 168 166
f 169 183 185 168
f 170 171 177 169
f 177 180 183 169
f 179 178 177 171
f 275 175 174 172
f 175 273 272 174
f 185 183 182 181
f 207 188 187 186
f 188 203 204 187
f 207 206 189 188
f 189 201 203 188
f 206 205 190 189
f 190 191 201 189
f 192 202 201 191
f 193 194 202 192
f 199 200 193 192
f 195 196 202 194
f 198 197 196 195
f 197 204 203 196
f 203 201 202 196
f 219 221 222 218
f 222 241 220 218
f 223 224 221 219
f 241 242 240 220
f 243 244 222 221
f 224 247 243 221
f 244 245 241 222
f 248 249 224 223
f 245 246 242 241
