# https://github.com/mikedh/trimesh
v -0.01023100 0.22551450 0.11559800
v -0.02937850 0.30797838 0.10193138
v -0.02490850 0.33951050 0.09933350
v -0.01398187 0.25760875 0.10774937
v -0.02116575 0.34014838 0.10050162
v 0.08900250 0.31340100 0.04635450
v 0.08683400 0.31527375 0.05213350
v 0.04698150 0.19210500 0.09387950
v 0.04043050 0.16530788 0.08822188
v 0.04603350 0.22006900 0.09675450
v 0.04700500 0.21082300 0.09635400
v 0.01389650 0.26534350 0.10413650
v 0.07410700 0.27609126 0.07991725
v -0.00308686 0.34086644 0.10271951
v 0.00702750 0.34030450 0.10114300
v -0.00973650 0.30550100 0.10489200
v -0.01057300 0.30813599 0.10476100
v -0.00443275 0.31626275 0.10570750
v 0.00344050 0.22455525 0.11620325
v -0.00432300 0.22318400 0.11750000
v 0.00586100 0.22698800 0.11402200
v 0.04354775 0.30522100 0.09722625
v 0.03157482 0.29990944 0.10050560
v 0.02394259 0.29383256 0.10204547
v 0.01547168 0.28275494 0.10374117
v 0.01886627 0.28787684 0.10311823
v 0.01253418 0.27120633 0.10459310
v -0.01518417 0.28919953 0.10504291
v -0.00556000 0.26466599 0.10848800
v 0.00046913 0.25910525 0.10899487
v -0.02067916 0.30627149 0.10368518
v -0.01616700 0.31127599 0.10383900
v -0.00399199 0.32893210 0.10288749
v -0.00095084 0.30062485 0.10501352
v -0.00776652 0.22718539 0.11529187
v -0.02181801 0.31604335 0.10297377
v 0.00994316 0.32049148 0.10313655
v 0.00255075 0.30450100 0.10495675
v -0.00171063 0.26891341 0.10835111
v 0.01946709 0.30856337 0.10265591
v 0.01537151 0.31677347 0.10274083
v 0.00130050 0.31478301 0.10410000
v 0.00635249 0.28972790 0.10557987
v 0.02130222 0.33750043 0.09929612
v -0.01047369 0.26258957 0.10815220
v -0.00973332 0.24566428 0.11036104
v 0.02955225 0.31780491 0.10022282
v 0.02692593 0.30167438 0.10103875
v 0.01159255 0.28216287 0.10459611
v 0.03603500 0.33873901 0.09531800
v 0.03513800 0.32035100 0.09832100
v 0.00240223 0.24480594 0.11079317
v 0.00644947 0.24224565 0.11001898
v 0.01288693 0.27493864 0.10419033
v 0.00013789 0.22440767 0.11679132
v 0.03458500 0.30314001 0.09919300
v 0.00641700 0.23624200 0.11134200
v 0.00949150 0.25457299 0.10716050
v -0.00676863 0.31183037 0.10463150
v 0.09585900 0.29227701 0.03367700
v 0.10401565 0.30889482 0.02766045
v 0.09133100 0.28240499 0.03086700
v 0.07178200 0.28753901 0.08028600
v 0.07026444 0.29140013 0.08239175
v 0.06444250 0.29822324 0.08598750
v 0.06130550 0.30092500 0.08777750
v 0.06981360 0.33384136 0.07783438
v 0.06541083 0.33689043 0.08129264
v 0.05857725 0.33650675 0.08524225
v 0.05193700 0.33874601 0.09179400
v 0.05488800 0.24923925 0.09076450
v 0.08944900 0.30580649 0.04383100
v 0.08584825 0.32004700 0.05540150
v 0.08197400 0.32491201 0.06299900
v 0.09007400 0.24893200 0.02272300
v 0.05893900 0.17036050 0.07954250
v 0.05026350 0.16563901 0.08322850
v 0.04446500 0.16204900 0.08446700
v 0.06727900 0.17916350 0.07569150
v 0.06174300 0.17443600 0.07950600
v 0.07665350 0.33151301 0.06964150
v 0.07177550 0.24768025 0.07973575
v 0.07488821 0.24858418 0.07723916
v 0.06047817 0.21820098 0.08924762
v 0.07299733 0.22357991 0.07866469
v 0.07952900 0.27291399 0.07161900
v 0.06318151 0.23569694 0.08702468
v 0.07433525 0.25506224 0.07726300
v 0.05875918 0.20683461 0.09016435
v 0.05958469 0.18879315 0.08712463
v 0.06427300 0.18039200 0.08006500
v 0.06960795 0.18665507 0.07655823
v 0.07465700 0.19151901 0.06974100
v 0.07397674 0.19298733 0.07182707
v 0.07465375 0.20968800 0.07515500
v 0.08131083 0.22566210 0.06539787
v 0.07845737 0.23641050 0.07200750
v 0.07884550 0.20839550 0.06677100
v 0.08470575 0.22694850 0.05269950
v 0.08751367 0.23951275 0.04374469
v 0.08505119 0.23626447 0.05599576
v 0.08758357 0.24974426 0.04909931
v 0.08741136 0.26740820 0.05538493
v 0.09023936 0.28839594 0.04258745
v 0.08777469 0.29120575 0.05525522
v 0.08982864 0.27579881 0.04510243
v 0.06913437 0.21405863 0.08187950
v 0.06448107 0.20136034 0.08550299
v 0.06301724 0.20832993 0.08713735
v 0.05446413 0.17784918 0.08671650
v 0.08294775 0.23658900 0.06250000
v 0.05871978 0.17390270 0.08238540
v 0.05032833 0.16988720 0.08597832
v 0.06520057 0.18779097 0.08254433
v 0.05411007 0.19501650 0.09191469
v 0.08119505 0.28268063 0.06993044
v 0.08349950 0.27450900 0.06546775
v 0.08010232 0.31620189 0.06846463
v 0.08252300 0.30975801 0.06573200
v 0.08286700 0.30677250 0.06560300
v 0.08702562 0.30578913 0.05460213
v 0.07937803 0.25128934 0.07130829
v 0.08915400 0.25085101 0.03661500
v 0.07918339 0.30486819 0.07206277
v 0.07311130 0.30439456 0.07879563
v 0.06753450 0.31879359 0.08258880
v 0.07424965 0.29387111 0.07791655
v 0.07506850 0.29967850 0.07704200
v 0.05743934 0.31387267 0.08979332
v 0.04905294 0.31706930 0.09366353
v 0.04155340 0.32229486 0.09615306
v 0.05218954 0.32117394 0.09196808
v 0.06384787 0.31393963 0.08558000
v 0.08144625 0.25823825 0.06816250
v 0.07712325 0.20889964 0.07136549
v 0.06822500 0.32207999 0.08105500
v 0.05532800 0.21282101 0.09229600
v 0.05219486 0.22283138 0.09388500
v 0.05077850 0.20206650 0.09402175
v 0.06332233 0.32792469 0.08389839
v 0.07217300 0.20639201 0.07809600
v 0.08220800 0.32004750 0.06299600
v 0.04736300 0.21374600 0.09625700
v 0.07507350 0.32035550 0.07424000
v 0.07756600 0.20416500 0.06863700
v 0.08589635 0.27780260 0.06097150
v 0.09128150 0.26608850 0.02521450
v 0.08909181 0.26899469 0.04664919
v 0.06357050 0.19568925 0.08525375
v 0.07293200 0.19692250 0.07491800
v 0.06251375 0.24393824 0.08678700
v 0.07023100 0.20453200 0.08010500
v 0.05173350 0.33680724 0.08901050
v 0.08232116 0.29884319 0.06772321
v 0.07651475 0.28739412 0.07546925
v 0.08610912 0.30338655 0.05925388
v 0.09036732 0.26743979 0.03851071
v 0.07540450 0.22102551 0.07542100
f 3 2 36
f 5 3 36
f 33 5 36
f 18 33 36
f 18 36 59
f 36 17 59
f 59 17 16
f 16 17 31
f 17 32 31
f 32 36 31
f 16 31 28
f 31 2 28
f 28 2 4
f 45 28 4
f 45 4 46
f 29 45 46
f 29 46 30
f 30 46 35
f 52 30 35
f 55 52 35
f 21 52 55
f 21 55 19
f 52 21 57
f 57 53 52
f 58 53 57
f 52 53 58
f 27 52 58
f 27 58 12
f 35 20 55
f 35 1 20
f 35 4 1
f 30 52 27
f 43 30 27
f 43 39 30
f 43 16 39
f 43 34 16
f 38 34 43
f 40 38 43
f 48 40 43
f 48 43 24
f 23 48 24
f 47 48 23
f 47 23 56
f 51 47 56
f 44 47 51
f 50 44 51
f 131 50 51
f 131 51 22
f 131 22 130
f 132 131 130
f 132 130 66
f 129 132 66
f 132 129 126
f 126 140 132
f 140 153 132
f 153 140 69
f 69 140 67
f 67 140 136
f 68 69 67
f 136 140 126
f 136 126 144
f 144 126 124
f 126 125 124
f 65 125 126
f 126 133 65
f 129 65 133
f 128 125 65
f 128 65 127
f 128 127 155
f 128 155 124
f 155 116 124
f 117 116 155
f 146 116 117
f 117 96 146
f 96 111 146
f 111 103 146
f 156 146 103
f 154 146 156
f 154 156 120
f 142 120 156
f 142 156 7
f 7 156 121
f 156 105 121
f 105 61 121
f 105 106 61
f 105 148 106
f 106 148 157
f 102 157 148
f 102 100 157
f 157 100 123
f 62 157 123
f 60 157 62
f 62 123 147
f 147 123 75
f 123 100 75
f 100 99 75
f 101 99 100
f 101 96 99
f 96 98 99
f 135 98 96
f 135 145 98
f 135 93 145
f 94 93 135
f 150 94 135
f 95 150 135
f 114 150 95
f 114 92 150
f 92 114 91
f 114 112 91
f 114 110 112
f 90 110 114
f 149 90 114
f 108 149 114
f 152 108 114
f 141 152 114
f 107 108 152
f 109 108 107
f 109 115 108
f 109 89 115
f 89 139 115
f 139 8 115
f 115 8 110
f 8 9 110
f 110 9 113
f 113 9 78
f 77 113 78
f 112 113 77
f 112 77 76
f 80 112 76
f 112 80 79
f 112 79 92
f 92 79 93
f 89 137 139
f 137 89 84
f 84 138 137
f 10 137 138
f 71 10 138
f 87 71 138
f 151 71 87
f 83 151 87
f 82 151 83
f 88 82 83
f 83 87 84
f 83 84 107
f 85 83 107
f 158 85 107
f 97 85 158
f 97 158 135
f 85 97 83
f 83 97 122
f 122 97 134
f 97 96 134
f 83 122 134
f 86 83 134
f 155 83 86
f 155 13 83
f 63 13 155
f 137 10 143
f 143 11 137
f 10 11 143
f 87 138 84
f 84 89 107
f 108 115 90
f 107 89 109
f 108 90 149
f 90 115 110
f 110 113 112
f 95 141 114
f 158 95 135
f 92 94 150
f 92 93 94
f 96 97 135
f 101 100 102
f 103 101 102
f 103 102 148
f 106 157 60
f 104 106 60
f 60 61 104
f 105 103 148
f 72 7 121
f 7 72 6
f 74 142 7
f 74 118 142
f 118 119 142
f 119 118 120
f 81 118 74
f 67 118 81
f 67 124 118
f 118 124 154
f 74 7 73
f 118 154 120
f 156 103 105
f 111 101 103
f 111 96 101
f 117 134 96
f 154 116 146
f 124 116 154
f 127 64 155
f 127 65 64
f 125 128 124
f 133 126 129
f 129 66 65
f 130 22 66
f 132 50 131
f 50 132 70
f 44 37 47
f 37 41 47
f 41 40 47
f 37 38 41
f 37 42 38
f 18 42 37
f 44 33 37
f 33 44 14
f 15 14 44
f 56 23 22
f 24 43 26
f 43 49 26
f 26 49 25
f 25 49 54
f 54 49 27
f 25 54 27
f 47 40 48
f 41 38 40
f 38 16 34
f 16 45 39
f 43 27 49
f 39 29 30
f 29 39 45
f 35 46 4
f 16 28 45
f 36 32 17
f 18 59 42
f 33 18 37
f 14 5 33
f 36 2 31

