v -0.0902429 -0.174332 0.0694191
v -0.0808645 -0.177048 0.0609144
v -0.0716898 -0.178187 0.0614067
v -0.0625151 -0.179326 0.0618989
v -0.0810261 -0.175772 0.070063
v -0.0717366 -0.176721 0.0705886
v -0.0624178 -0.177601 0.0711417
v -0.0530959 -0.178212 0.0713624
v -0.0437702 -0.178829 0.071577
v -0.0344446 -0.179447 0.0717916
v -0.0251198 -0.18006 0.0719996
v -0.0439721 -0.180949 0.0625679
v -0.0346778 -0.18137 0.0625806
v -0.0253863 -0.1818 0.0625943
v -0.0160949 -0.182229 0.0626079
v 0.00241799 -0.182626 0.0622795
v 0.0116285 -0.182395 0.061173
v 0.0208464 -0.182117 0.0600469
v 0.0300607 -0.181819 0.0589172
v 0.0392199 -0.181211 0.0577312
v 0.0483792 -0.180602 0.0565451
v 0.0575347 -0.179921 0.0553186
v 0.06657 -0.178718 0.0539061
v 0.075528 -0.17733 0.052505
v 0.0844922 -0.175884 0.0510931
v 0.0929447 -0.173043 0.0491009
v -0.0361425 -0.165347 0.117853
v 0.0954278 -0.173505 0.0582286
v 0.0970411 -0.172123 0.0673877
v 0.0863825 -0.175916 0.0601613
v 0.0770629 -0.177236 0.0616255
v 0.0878678 -0.17435 0.0692633
v 0.0678297 -0.178335 0.0630459
v 0.0493288 -0.179509 0.0656767
v 0.0308235 -0.180316 0.0682614
v 0.0400868 -0.179925 0.0669379
v 0.0226509 -0.177768 0.0786624
v 0.0318802 -0.177457 0.077372
v 0.0411389 -0.177156 0.0760339
v 0.0504156 -0.176861 0.0746666
v 0.0596923 -0.176566 0.0732994
v 0.0689731 -0.176223 0.0719268
v 0.0783516 -0.175212 0.0705066
v 0.079551 -0.173029 0.0790743
v 0.0889912 -0.171717 0.077669
v 0.0901087 -0.169836 0.086012
v 0.0716964 -0.170126 0.0893121
v 0.0808702 -0.170132 0.0876392
v 0.0730961 -0.167062 0.0979649
v 0.0822952 -0.16706 0.0963242
v 0.074673 -0.163941 0.106844
v 0.0914501 -0.167206 0.0945838
v 0.0838088 -0.164151 0.105061
v 0.0670576 -0.162088 0.117477
v 0.0765135 -0.162065 0.11611
v 0.0394343 -0.164393 0.122811
v 0.0377054 -0.166402 0.113642
v 0.0453885 -0.168172 0.102787
v 0.0347045 -0.171974 0.0954556
v 0.0361473 -0.168786 0.104399
v 0.0332512 -0.174763 0.086363
v 0.0439562 -0.171383 0.0938963
v 0.053198 -0.170869 0.0923031
v 0.05463 -0.167655 0.101192
v 0.0638757 -0.167148 0.099595
v 0.0561213 -0.164598 0.110051
v 0.0653946 -0.164082 0.108409
v 0.051798 -0.174215 0.0835997
v 0.0610679 -0.173816 0.082169
v 0.0624653 -0.17046 0.0908573
v 0.0468633 -0.165177 0.111729
v 0.0485558 -0.163298 0.120912
v 0.0577828 -0.162632 0.119137
v 0.0856419 -0.162369 0.114092
v 0.0882577 -0.162974 0.123147
v 0.0792181 -0.162313 0.125758
v 0.0988099 -0.166183 0.126205
v -0.0902579 -0.172162 0.0782448
v -0.0532817 -0.180393 0.062408
v 0.0701771 -0.162398 0.128088
v 0.0611307 -0.162858 0.130349
v 0.0520572 -0.163495 0.132378
v 0.0429962 -0.164369 0.134259
v 0.0339755 -0.16577 0.135865
v 0.0816714 -0.166169 0.134069
v 0.0906834 -0.166617 0.131449
v -0.0624975 -0.171369 0.0888959
v -0.0717475 -0.170651 0.0882768
v 0.0541877 -0.167672 0.140357
v 0.0633603 -0.167087 0.138311
v 0.072533 -0.166501 0.136266
v 0.0450677 -0.168602 0.142212
v -0.0809975 -0.169933 0.0876576
v 0.0195204 -0.179181 0.151901
v 0.0302617 -0.186317 0.155002
v 0.020812 -0.187647 0.154949
v -0.0624519 -0.174561 0.0800891
v 0.0505178 -0.192751 0.153591
v 0.0667512 -0.220477 0.153793
v 0.0757824 -0.218332 0.152013
v 0.0860275 -0.225099 0.146434
v 0.0947983 -0.222802 0.143712
v 0.103518 -0.22048 0.140896
v 0.102028 -0.211845 0.143207
v 0.0827533 -0.206814 0.150716
v 0.0933619 -0.213914 0.146428
v 0.0739822 -0.209001 0.153628
v 0.0914355 -0.20477 0.147478
v 0.100133 -0.202728 0.144217
v 0.108639 -0.200839 0.140604
v 0.131212 -0.186669 0.12804
v 0.133867 -0.195335 0.129258
v 0.122806 -0.188503 0.131844
v 0.11707 -0.199003 0.136838
v 0.125483 -0.197169 0.133021
v 0.106246 -0.192021 0.13985
v 0.114493 -0.19028 0.135802
v 0.0976894 -0.193882 0.143473
v 0.0891353 -0.195751 0.147006
v 0.0803713 -0.197493 0.150256
v 0.0715228 -0.199295 0.153303
v 0.0952363 -0.185071 0.141515
v 0.103756 -0.183266 0.138104
v 0.0841626 -0.178237 0.141969
v 0.0867006 -0.186885 0.144881
v 0.0645161 -0.173033 0.143209
v 0.0557947 -0.174501 0.145741
v 0.039543 -0.185188 0.153972
v 0.0487412 -0.183994 0.152076
v 0.0579224 -0.182783 0.150162
v 0.0731919 -0.17177 0.140594
v 0.0818136 -0.170471 0.137353
v 0.109607 -0.17331 0.131672
v 0.0666498 -0.181235 0.147693
v 0.0753764 -0.179805 0.144994
v 0.0690663 -0.190014 0.151218
v 0.0779026 -0.188503 0.148012
v 0.0926695 -0.176528 0.138557
v 0.100984 -0.17486 0.13502
v 0.112042 -0.181626 0.134296
v 0.1203 -0.179874 0.13029
v 0.110595 -0.209663 0.139865
v 0.119016 -0.207874 0.136062
v 0.111924 -0.217773 0.137631
v 0.121255 -0.223071 0.130414
v 0.129772 -0.220405 0.127589
v 0.138097 -0.21732 0.12442
v 0.137883 -0.223124 0.117249
v 0.087866 -0.240627 0.135613
v 0.061484 -0.247707 0.142105
v 0.0703736 -0.245429 0.140184
v 0.0792424 -0.243118 0.138218
v 0.0871507 -0.233423 0.14188
v 0.0958563 -0.231149 0.139461
v 0.0783659 -0.235732 0.144065
v 0.0772084 -0.22733 0.148848
v 0.0695537 -0.237967 0.146078
v 0.0515004 -0.241956 0.148865
v 0.0501974 -0.233476 0.152987
v 0.0330537 -0.245407 0.150454
v 0.0422932 -0.243701 0.149718
v 0.0157506 -0.257074 0.147642
v 0.0249639 -0.255339 0.146784
v 0.0341614 -0.253492 0.145887
v 0.0433587 -0.251644 0.144989
v -0.0717019 -0.173843 0.0794699
v -0.0809518 -0.173125 0.0788508
v 0.0238407 -0.247124 0.151076
v 0.0146852 -0.248216 0.150823
v 0.0318673 -0.237037 0.154033
v -0.0634535 -0.165144 0.106596
v 0.0485294 -0.224609 0.153359
v -0.0547936 -0.163483 0.116398
v 0.0411041 -0.235405 0.15383
v 0.0524956 -0.249786 0.143784
v 0.096424 -0.238047 0.132902
v 0.104944 -0.235397 0.13018
v 0.113367 -0.23259 0.12723
v 0.121592 -0.229528 0.123981
v 0.129794 -0.226438 0.120703
v 0.12889 -0.213163 0.131037
v 0.137423 -0.210752 0.128086
v -0.0628735 -0.168222 0.0977201
v 0.120334 -0.2151 0.134371
v 0.104394 -0.228607 0.136627
v 0.11281 -0.225846 0.133556
v 0.0846715 -0.21613 0.149562
v 0.0592334 -0.231437 0.151798
v 0.0682449 -0.229365 0.150382
v 0.0605781 -0.240027 0.147642
v 0.0576088 -0.222401 0.154441
v 0.0599399 -0.191462 0.153274
v 0.0286571 -0.178036 0.150756
v 0.0377663 -0.177005 0.149291
v 0.0468756 -0.175974 0.147825
v 0.0359572 -0.169687 0.143937
v 0.0266422 -0.170931 0.145515
v -0.0722037 -0.167515 0.0971052
v 0.0249159 -0.167275 0.137353
v 0.097325 -0.163862 0.120443
v 0.105955 -0.165344 0.116324
v 0.107265 -0.167293 0.121656
v 0.0948901 -0.163446 0.111768
v 0.0930144 -0.164702 0.103315
v 0.0703309 -0.17328 0.0806928
v 0.0425249 -0.174541 0.0849962
v 0.0216068 -0.180401 0.0694507
v 0.012406 -0.180311 0.0705055
v 0.00305008 -0.180457 0.0712523
v -0.00645506 -0.180251 0.0715769
v 0.0130987 -0.177631 0.0794877
v -0.0158318 -0.180062 0.0717906
v 0.0585669 -0.179017 0.0644238
v -0.00681652 -0.182571 0.0625662
v -0.0530598 -0.175379 0.0804015
v -0.0436751 -0.175879 0.0805727
v -0.0342905 -0.176379 0.0807439
v -0.0249059 -0.17688 0.0809151
v -0.0531651 -0.172169 0.0893496
v -0.0437945 -0.172584 0.0894986
v -0.0344839 -0.173299 0.0898334
v -0.0441095 -0.169834 0.0988278
v -0.0535187 -0.169041 0.098401
v -0.0541045 -0.165946 0.107306
v -0.0447041 -0.166953 0.108011
v -0.0454356 -0.164493 0.117127
v -0.0462295 -0.163879 0.12643
v -0.0368147 -0.16486 0.127189
v -0.0641984 -0.162693 0.115671
v -0.0823016 -0.164217 0.105218
v -0.0736813 -0.162322 0.114948
v -0.083184 -0.1623 0.114236
v -0.0917646 -0.164529 0.104511
v -0.0909768 -0.166494 0.0957731
v -0.0728109 -0.164454 0.105927
v -0.0902764 -0.169219 0.08704
v -0.0815339 -0.166808 0.0964902
f 78 167 5 1
f 5 6 3 2
f 6 7 4 3
f 7 8 79 4
f 167 166 6 5
f 166 97 7 6
f 97 215 8 7
f 215 216 9 8
f 9 12 79 8
f 216 217 10 9
f 10 13 12 9
f 217 218 11 10
f 11 14 13 10
f 212 15 14 11
f 212 210 214 15
f 209 208 17 16
f 214 210 209 16
f 208 207 18 17
f 207 35 19 18
f 35 36 20 19
f 36 34 21 20
f 34 213 22 21
f 213 33 23 22
f 33 31 24 23
f 31 30 25 24
f 30 28 26 25
f 30 32 29 28
f 213 41 42 33
f 40 41 213 34
f 36 39 40 34
f 38 39 36 35
f 207 37 38 35
f 207 208 211 37
f 61 206 39 38
f 206 68 40 39
f 68 69 41 40
f 69 205 42 41
f 205 44 43 42
f 48 46 45 44
f 205 47 48 44
f 48 50 52 46
f 49 50 48 47
f 205 69 70 47
f 70 65 49 47
f 51 53 50 49
f 65 67 51 49
f 53 204 52 50
f 55 74 53 51
f 67 54 55 51
f 74 203 204 53
f 67 66 73 54
f 72 71 57 56
f 71 66 64 58
f 64 63 62 58
f 62 59 60 58
f 62 206 61 59
f 63 68 206 62
f 64 65 70 63
f 70 69 68 63
f 66 67 65 64
f 71 72 73 66
f 75 200 203 74
f 86 77 200 75
f 76 85 86 75
f 80 91 85 76
f 202 201 200 77
f 81 90 91 80
f 82 89 90 81
f 83 92 89 82
f 84 196 92 83
f 199 197 196 84
f 96 95 193 94
f 128 194 193 95
f 192 130 129 98
f 189 156 100 99
f 191 188 189 99
f 156 101 187 100
f 187 105 107 100
f 153 154 102 101
f 102 106 187 101
f 156 155 153 101
f 154 185 103 102
f 103 104 106 102
f 185 186 144 103
f 142 110 109 104
f 109 108 106 104
f 187 106 108 105
f 108 119 120 105
f 120 121 107 105
f 109 118 119 108
f 110 116 118 109
f 142 143 114 110
f 114 117 116 110
f 113 115 112 111
f 141 140 117 113
f 117 114 115 113
f 117 140 123 116
f 123 122 118 116
f 122 125 119 118
f 125 137 120 119
f 137 136 121 120
f 123 139 138 122
f 138 124 125 122
f 140 133 139 123
f 132 131 135 124
f 135 137 125 124
f 134 135 131 126
f 127 130 134 126
f 195 129 130 127
f 129 195 194 128
f 192 136 134 130
f 136 137 135 134
f 186 145 184 144
f 179 180 146 145
f 146 181 184 145
f 186 178 179 145
f 180 148 147 146
f 147 182 181 146
f 176 154 153 149
f 153 155 152 149
f 151 157 190 150
f 190 158 175 150
f 152 155 157 151
f 176 177 185 154
f 156 189 157 155
f 189 188 190 157
f 190 188 159 158
f 159 174 161 158
f 161 165 175 158
f 188 191 172 159
f 164 165 161 160
f 161 174 170 160
f 168 163 164 160
f 163 168 169 162
f 178 186 185 177
f 219 220 216 215
f 97 87 219 215
f 220 221 217 216
f 223 222 220 219
f 87 183 223 219
f 223 224 225 222
f 183 171 224 223
f 173 226 225 224
f 171 229 173 224
f 227 228 27 226
f 171 235 231 229
f 232 231 235 230
f 235 198 237 230
f 237 234 233 230
f 237 93 236 234
f 171 183 198 235
f 93 167 78 236
f 198 88 93 237
f 183 87 88 198
f 93 88 166 167
f 88 87 97 166
