v -0.140134 -0.429411 -0.188161
v -0.136857 -0.427168 -0.189167
v -0.132694 -0.427317 -0.193193
v -0.136463 -0.428934 -0.192421
v -0.140231 -0.430551 -0.19165
v -0.125725 -0.422004 -0.19172
v -0.129439 -0.423708 -0.190785
v -0.133328 -0.425191 -0.190081
v -0.117871 -0.420301 -0.192801
v -0.121798 -0.420985 -0.19235
v -0.113922 -0.419775 -0.193161
v -0.0978752 -0.421794 -0.196457
v -0.101837 -0.422046 -0.196317
v -0.105799 -0.422298 -0.196177
v -0.109761 -0.422549 -0.196037
v -0.113722 -0.422801 -0.195896
v -0.117684 -0.423052 -0.195756
v -0.0939038 -0.42159 -0.196561
v -0.131722 -0.434481 -0.195795
v -0.101892 -0.419296 -0.193722
v -0.105908 -0.419425 -0.193548
v -0.109923 -0.419554 -0.193374
v -0.0937931 -0.41963 -0.193383
v -0.0978449 -0.419441 -0.193579
v -0.10975 -0.418587 -0.189458
v -0.113741 -0.418992 -0.189142
v -0.117345 -0.419751 -0.184654
v -0.117716 -0.419524 -0.188796
v -0.121661 -0.420424 -0.188319
v -0.121301 -0.420529 -0.184172
v -0.125611 -0.421364 -0.187723
v -0.129049 -0.422712 -0.183039
v -0.129434 -0.422868 -0.186994
v -0.132755 -0.424237 -0.182326
v -0.133122 -0.424556 -0.186274
v -0.136387 -0.425841 -0.181546
v -0.136662 -0.426421 -0.185406
v -0.139961 -0.427562 -0.180855
v -0.140208 -0.42824 -0.184637
v -0.135842 -0.431943 -0.194544
v -0.125214 -0.421408 -0.183637
v -0.132139 -0.430813 -0.195241
v -0.121495 -0.42385 -0.195256
v -0.125222 -0.424924 -0.194583
v -0.128949 -0.425999 -0.193911
v -0.105184 -0.425885 -0.197632
v -0.0973051 -0.425408 -0.197752
v -0.101206 -0.425588 -0.197757
v -0.0932132 -0.425226 -0.197795
v -0.081146 -0.424973 -0.197369
v -0.0730662 -0.42877 -0.197627
v -0.0770286 -0.428755 -0.198113
v -0.0810138 -0.428828 -0.198266
v -0.085013 -0.428959 -0.19824
v -0.0890009 -0.429063 -0.198076
v -0.0929609 -0.429058 -0.19768
v -0.0968671 -0.428831 -0.196868
v -0.0808697 -0.432711 -0.197445
v -0.0847758 -0.432484 -0.196633
v -0.088682 -0.432256 -0.195821
v -0.0925881 -0.432029 -0.19501
v -0.0965103 -0.432038 -0.19448
v -0.100801 -0.429247 -0.196785
v -0.104754 -0.429687 -0.196658
v -0.108708 -0.430116 -0.196516
v -0.112681 -0.430476 -0.196231
v -0.116531 -0.431107 -0.196083
v -0.120343 -0.431822 -0.195982
v -0.124136 -0.432624 -0.195909
v -0.127927 -0.433438 -0.19584
v -0.120953 -0.427736 -0.196806
v -0.127487 -0.437064 -0.194375
v -0.131314 -0.438055 -0.194811
v -0.130985 -0.441018 -0.19213
v -0.134551 -0.442402 -0.193544
v -0.134278 -0.445409 -0.190924
v -0.137782 -0.446824 -0.192438
v -0.138102 -0.450537 -0.190253
v -0.141115 -0.451629 -0.192759
v -0.141196 -0.455306 -0.191144
v -0.140899 -0.459194 -0.190053
v -0.140602 -0.463082 -0.188962
v -0.143447 -0.463941 -0.191659
v -0.128441 -0.429688 -0.195883
v -0.124742 -0.428562 -0.196524
v -0.143809 -0.460084 -0.192614
v -0.144308 -0.456203 -0.193305
v -0.14486 -0.452307 -0.193795
v -0.142149 -0.443943 -0.194541
v -0.141512 -0.447858 -0.193826
v -0.135064 -0.438981 -0.19533
v -0.138906 -0.439511 -0.195212
v -0.138229 -0.443441 -0.194337
v -0.145423 -0.448422 -0.194293
v -0.145832 -0.444669 -0.193534
v -0.117112 -0.427049 -0.19699
v -0.142889 -0.436941 -0.193131
v -0.142656 -0.440164 -0.194566
v -0.14622 -0.441005 -0.192695
v -0.139303 -0.435949 -0.194847
v -0.148742 -0.452989 -0.193825
v -0.148218 -0.45686 -0.193786
v -0.147677 -0.460766 -0.193274
v -0.127213 -0.439808 -0.19148
v -0.123696 -0.435941 -0.193964
v -0.116091 -0.434194 -0.193659
v -0.119879 -0.435116 -0.193842
v -0.112281 -0.43331 -0.19351
v -0.104401 -0.43273 -0.194111
v -0.108341 -0.432805 -0.193666
v -0.100452 -0.432452 -0.194389
v -0.084487 -0.43582 -0.19446
v -0.0883538 -0.435421 -0.193415
v -0.0806285 -0.436246 -0.195552
v -0.0804058 -0.439854 -0.193768
v -0.0767421 -0.436355 -0.196195
v -0.0730053 -0.436644 -0.19766
v -0.0729245 -0.440461 -0.196692
v -0.0766156 -0.440099 -0.194959
v -0.0650614 -0.436647 -0.197701
v -0.0690515 -0.436669 -0.197791
v -0.0690927 -0.440642 -0.197568
v -0.0650426 -0.432649 -0.197526
v -0.0690248 -0.432679 -0.197757
v -0.0611007 -0.440545 -0.196331
v -0.0650994 -0.440606 -0.19719
v -0.113141 -0.426639 -0.1972
v -0.109169 -0.426234 -0.197413
v -0.0891266 -0.425048 -0.197833
v -0.0851325 -0.42492 -0.197808
v -0.0614732 -0.44425 -0.195028
v -0.0620817 -0.448153 -0.193812
v -0.0659738 -0.452139 -0.194432
v -0.0730074 -0.432708 -0.198018
v -0.0652377 -0.448342 -0.196082
v -0.0651526 -0.444498 -0.196563
v -0.0691364 -0.444601 -0.197275
v -0.0692955 -0.448431 -0.196635
v -0.069467 -0.452259 -0.19597
v -0.0728217 -0.444285 -0.195702
v -0.0764977 -0.443928 -0.193953
v -0.076949 -0.432725 -0.19789
f 2 4 5 1
f 42 40 4 3
f 4 2 8 3
f 8 7 45 3
f 45 84 42 3
f 44 45 7 6
f 7 33 31 6
f 31 29 10 6
f 10 43 44 6
f 8 35 33 7
f 2 37 35 8
f 17 43 10 9
f 10 29 28 9
f 28 26 11 9
f 11 16 17 9
f 26 25 22 11
f 22 15 16 11
f 13 20 24 12
f 24 23 18 12
f 14 21 20 13
f 15 22 21 14
f 28 29 30 27
f 31 41 30 29
f 33 32 41 31
f 33 35 34 32
f 35 37 36 34
f 37 39 38 36
f 71 85 44 43
f 85 84 45 44
f 64 65 128 46
f 48 63 64 46
f 57 63 48 47
f 49 56 57 47
f 129 55 56 49
f 53 54 130 50
f 134 142 52 51
f 142 58 53 52
f 58 59 54 53
f 59 60 55 54
f 55 129 130 54
f 60 61 56 55
f 61 62 57 56
f 62 111 63 57
f 114 112 59 58
f 142 116 114 58
f 112 113 60 59
f 111 109 64 63
f 109 110 65 64
f 110 108 66 65
f 66 127 128 65
f 108 106 67 66
f 67 96 127 66
f 106 107 68 67
f 68 71 96 67
f 107 105 69 68
f 69 85 71 68
f 105 72 70 69
f 70 84 85 69
f 72 73 19 70
f 19 42 84 70
f 104 74 73 72
f 74 75 91 73
f 76 77 93 75
f 93 92 91 75
f 78 79 90 77
f 90 89 93 77
f 80 87 88 79
f 88 94 90 79
f 81 86 87 80
f 82 83 86 81
f 103 102 87 86
f 102 101 88 87
f 90 94 95 89
f 95 99 98 89
f 98 92 93 89
f 98 97 100 92
f 116 119 115 114
f 142 134 117 116
f 117 118 119 116
f 134 124 121 117
f 121 122 118 117
f 140 141 119 118
f 122 137 140 118
f 126 122 121 120
f 121 124 123 120
f 126 136 137 122
f 131 136 126 125
f 132 135 136 131
f 139 138 135 133
f 138 137 136 135
