# https://github.com/mikedh/trimesh
v -0.06268800 0.15365100 0.02215000
v -0.06801300 0.15736301 0.04613850
v -0.06803500 0.15897600 0.05805900
v -0.05260369 0.14517356 0.02959694
v -0.06634300 0.16076225 0.06652437
v 0.02821215 0.18545638 0.09002526
v 0.03007800 0.17405500 0.09197750
v 0.04043050 0.16530788 0.08822188
v 0.02996450 0.16303100 0.09176875
v 0.02016000 0.13491000 0.04594000
v 0.01451900 0.13383375 0.04758850
v -0.00173200 0.13293449 0.04984850
v -0.02579500 0.13493200 0.04591900
v -0.01659600 0.13345399 0.04861100
v -0.04873700 0.14274400 0.03318200
v 0.03149800 0.13958051 0.04605000
v 0.02578091 0.13820367 0.04953619
v 0.02965758 0.14116925 0.05928871
v 0.01657980 0.13903424 0.07066555
v 0.03569896 0.14430447 0.06385043
v 0.04205101 0.14583148 0.05939323
v 0.04080071 0.14458065 0.05475110
v 0.02801300 0.14327700 0.07069800
v 0.04405150 0.14595550 0.05390500
v 0.01239816 0.13633423 0.05693109
v 0.00842914 0.13784984 0.08141635
v 0.04962600 0.15086724 0.06393300
v 0.04316137 0.14829683 0.06686179
v 0.03847600 0.14811100 0.07178200
v 0.01171707 0.14136297 0.09091779
v 0.04725985 0.15097439 0.06829012
v 0.02455307 0.14320218 0.07619073
v 0.05568750 0.15812900 0.06989775
v 0.03240156 0.14925481 0.07983505
v 0.01129826 0.14342847 0.09397869
v 0.04864733 0.15402420 0.07296305
v 0.03193981 0.15175294 0.08368198
v 0.05289600 0.15954600 0.07559700
v 0.05482379 0.15898991 0.07287887
v 0.01584483 0.14437428 0.09169283
v 0.03875771 0.15846005 0.08525288
v 0.01420023 0.14701823 0.09574068
v -0.00445459 0.14117008 0.09646069
v 0.05412538 0.16163322 0.07703011
v 0.06260300 0.16758899 0.07298900
v 0.01641050 0.14924825 0.09564100
v 0.02851950 0.15420550 0.08889450
v 0.06406250 0.17131000 0.07425600
v 0.00524037 0.14359429 0.09749409
v 0.03122500 0.15660100 0.08841400
v 0.00388850 0.14537200 0.09888550
v 0.05026350 0.16563901 0.08322850
v 0.06168280 0.17038016 0.07709050
v 0.06389100 0.17509149 0.07746150
v 0.00721800 0.14693875 0.09910650
v -0.00521800 0.14361501 0.09843300
v -0.02387700 0.13904003 0.06676487
v -0.01049200 0.13718501 0.08031400
v -0.03185212 0.13860677 0.05005973
v -0.02379762 0.13691021 0.05256775
v -0.01183333 0.13649186 0.06717509
v -0.00919600 0.13550200 0.05890800
v -0.03741467 0.13944861 0.04470553
v -0.02509101 0.14031013 0.07131852
v -0.04731794 0.14572977 0.05981069
v -0.02606290 0.14220062 0.07803648
v -0.04848233 0.14818333 0.06704756
v -0.05408851 0.14968245 0.06231212
v -0.05518084 0.14806278 0.04790314
v -0.01801837 0.14176583 0.09029944
v -0.06001722 0.15176652 0.05557152
v -0.03685510 0.14626035 0.07504066
v -0.05902752 0.15225532 0.06210649
v -0.01478106 0.13503185 0.05251334
v -0.05959644 0.15067571 0.04652047
v -0.00506300 0.13608401 0.07029000
v -0.00487002 0.13742011 0.08775082
v -0.06556517 0.15518767 0.05023085
v -0.03127684 0.14616820 0.08150542
v -0.06078592 0.15141946 0.04008765
v -0.05394597 0.15265870 0.07067925
v -0.06094050 0.15177397 0.02762728
v 0.00355365 0.13420065 0.05305353
v -0.00211298 0.13637058 0.08094581
v 0.00192423 0.13993446 0.09422581
v -0.06189841 0.15516347 0.06520975
v -0.05272000 0.15407100 0.07417800
v -0.00989733 0.14026515 0.09371931
v -0.03749673 0.14948794 0.08052949
v 0.00079056 0.13700287 0.08665198
v -0.00097943 0.13596218 0.07089293
v 0.00004203 0.13531516 0.05945967
v -0.03497661 0.15118520 0.08504679
v -0.03747400 0.15425551 0.08619250
v -0.05858620 0.15894391 0.07536284
v -0.05369150 0.16072800 0.08108400
v -0.06071900 0.16333400 0.07773200
v -0.05638300 0.16298400 0.08104900
v -0.01779937 0.14674750 0.09587875
v 0.01459200 0.17401800 0.10017800
v 0.01073738 0.17182374 0.10121925
v 0.02977216 0.15958117 0.09119274
v 0.01974584 0.16215801 0.09819169
v 0.01765600 0.15853500 0.09887900
v 0.02787847 0.17022053 0.09341436
v 0.01521082 0.16285728 0.10058733
v 0.02300434 0.17035654 0.09586171
v 0.02208622 0.17952722 0.09373251
v 0.00731675 0.15828449 0.10274850
v 0.01278800 0.15174609 0.09976265
v -0.00185550 0.14787474 0.10149625
v 0.00355290 0.14895207 0.10169142
v 0.00232050 0.15215700 0.10285500
v 0.00752100 0.15261300 0.10186800
v 0.01529700 0.15659900 0.09978100
f 95 5 86
f 95 86 81
f 87 95 81
f 89 95 87
f 93 95 89
f 96 95 93
f 96 98 95
f 98 97 95
f 94 96 93
f 99 94 93
f 99 93 70
f 99 70 88
f 99 88 43
f 99 43 56
f 51 56 43
f 51 43 49
f 51 49 42
f 46 51 42
f 46 42 37
f 47 46 37
f 46 47 102
f 102 47 8
f 9 102 8
f 9 103 102
f 105 103 9
f 105 106 103
f 105 107 106
f 107 100 106
f 108 100 107
f 100 101 106
f 106 101 109
f 106 109 115
f 102 106 115
f 107 105 108
f 108 105 7
f 7 6 108
f 7 105 9
f 110 46 102
f 104 110 102
f 115 110 104
f 115 114 110
f 114 112 110
f 109 112 114
f 112 109 113
f 113 111 112
f 55 112 111
f 110 112 55
f 110 55 46
f 50 47 37
f 50 37 41
f 52 50 41
f 52 41 44
f 52 44 53
f 54 52 53
f 54 53 48
f 48 53 45
f 53 44 45
f 44 33 45
f 44 39 33
f 33 39 36
f 38 36 39
f 44 38 39
f 44 36 38
f 44 37 36
f 37 34 36
f 37 32 34
f 40 32 37
f 40 30 32
f 85 30 40
f 35 85 40
f 49 85 35
f 85 90 30
f 90 85 88
f 90 88 77
f 77 84 90
f 90 84 91
f 26 90 91
f 91 92 26
f 91 62 92
f 62 74 92
f 92 74 83
f 25 92 83
f 25 83 17
f 17 83 11
f 83 12 11
f 10 17 11
f 17 10 16
f 17 16 21
f 20 17 21
f 28 20 21
f 28 21 27
f 31 28 27
f 36 28 31
f 36 29 28
f 32 29 36
f 29 32 28
f 36 31 27
f 27 21 24
f 24 21 22
f 24 22 16
f 28 32 20
f 20 32 23
f 32 19 23
f 32 26 19
f 19 26 25
f 18 19 25
f 20 19 18
f 23 19 20
f 20 18 17
f 22 21 16
f 18 25 17
f 83 74 12
f 74 14 12
f 13 14 74
f 74 60 13
f 91 60 74
f 61 60 91
f 76 61 91
f 77 61 76
f 77 58 61
f 58 57 61
f 57 59 61
f 57 63 59
f 13 59 63
f 65 63 57
f 63 65 15
f 65 69 15
f 73 69 65
f 73 71 69
f 71 73 78
f 73 86 78
f 86 3 78
f 3 2 78
f 82 78 2
f 80 78 82
f 80 82 15
f 82 4 15
f 4 82 1
f 80 15 75
f 78 80 75
f 82 2 1
f 71 78 75
f 71 75 69
f 65 68 73
f 73 68 67
f 81 73 67
f 72 81 67
f 89 81 72
f 79 89 72
f 66 79 72
f 70 79 66
f 70 66 64
f 77 70 64
f 64 57 77
f 58 77 57
f 66 72 64
f 72 65 64
f 72 67 65
f 67 68 65
f 69 75 15
f 64 65 57
f 61 59 60
f 60 59 13
f 62 91 74
f 26 92 25
f 91 84 76
f 84 77 76
f 43 88 85
f 30 90 26
f 32 30 26
f 36 34 32
f 33 36 27
f 41 37 44
f 42 40 37
f 42 49 40
f 40 49 35
f 85 49 43
f 88 70 77
f 70 93 79
f 93 89 79
f 89 87 81
f 86 73 81
f 97 5 95
f 5 3 86

