v 0.17386 -0.438308 -0.181708
v 0.176521 -0.43376 -0.185173
v 0.166561 -0.439614 -0.185839
v 0.163933 -0.444854 -0.182783
v 0.168008 -0.433833 -0.187875
v 0.158101 -0.445779 -0.187643
v 0.258493 -0.45358 -0.156703
v 0.158377 -0.439525 -0.188417
v 0.157616 -0.433391 -0.18815
v 0.167496 -0.427654 -0.187467
v 0.199274 -0.431122 -0.180867
v 0.198873 -0.424879 -0.181864
v 0.211887 -0.426356 -0.177511
v 0.287797 -0.443614 -0.142672
v 0.212734 -0.432466 -0.176357
v 0.156016 -0.431613 -0.183636
v 0.223335 -0.433836 -0.173296
v 0.221498 -0.427593 -0.172769
v 0.215066 -0.438211 -0.172053
v 0.225947 -0.440548 -0.17177
v 0.282798 -0.444431 -0.146027
v 0.277825 -0.445274 -0.149281
v 0.288196 -0.449925 -0.141706
v 0.224477 -0.446943 -0.167322
v 0.226546 -0.446936 -0.168153
v 0.228203 -0.453272 -0.165796
v 0.225153 -0.453192 -0.16552
v 0.224384 -0.459312 -0.164535
v 0.229852 -0.459861 -0.164356
v 0.283071 -0.450737 -0.144845
v 0.282739 -0.457033 -0.143683
v 0.277937 -0.451552 -0.147995
v 0.277379 -0.457907 -0.147012
v 0.226437 -0.483147 -0.157627
v 0.231738 -0.483191 -0.155138
v 0.231205 -0.488958 -0.152737
v 0.214188 -0.488657 -0.161581
v 0.219901 -0.488781 -0.158679
v 0.225613 -0.488904 -0.155778
v 0.221145 -0.483171 -0.161092
v 0.238598 -0.48339 -0.153009
v 0.237708 -0.489062 -0.150367
v 0.212594 -0.493923 -0.158488
v 0.21842 -0.494117 -0.155728
v 0.224246 -0.494312 -0.152968
v 0.230073 -0.494506 -0.150208
v 0.215493 -0.482953 -0.163946
v 0.217804 -0.471126 -0.167479
v 0.221928 -0.477191 -0.162467
v 0.23899 -0.477264 -0.154655
v 0.251956 -0.465525 -0.155751
v 0.250027 -0.471625 -0.15425
v 0.246064 -0.483493 -0.150565
v 0.24475 -0.488928 -0.147547
v 0.20085 -0.493221 -0.163608
v 0.206722 -0.493573 -0.16105
v 0.209739 -0.482673 -0.166593
v 0.216719 -0.477131 -0.165919
v 0.247931 -0.477661 -0.152649
v 0.25513 -0.47739 -0.149597
v 0.235749 -0.47238 -0.15867
v 0.236362 -0.494471 -0.147326
v 0.243232 -0.494119 -0.144241
v 0.251746 -0.488728 -0.144642
v 0.253209 -0.483258 -0.147588
v 0.202434 -0.487854 -0.166452
v 0.208337 -0.488328 -0.164138
v 0.203871 -0.482245 -0.168948
v 0.211073 -0.476881 -0.168796
v 0.246333 -0.463613 -0.155418
v 0.257144 -0.471418 -0.151454
v 0.281912 -0.463193 -0.141994
v 0.272421 -0.4461 -0.151788
v 0.259992 -0.482809 -0.14447
v 0.206513 -0.470525 -0.173082
v 0.212207 -0.470888 -0.170415
v 0.255321 -0.459412 -0.156199
v 0.261821 -0.477092 -0.146955
v 0.246856 -0.455511 -0.156333
v 0.276323 -0.463913 -0.14505
v 0.271833 -0.458487 -0.149785
v 0.258102 -0.487989 -0.141278
v 0.264473 -0.487251 -0.137915
v 0.266288 -0.482086 -0.141202
v 0.208376 -0.458269 -0.17543
v 0.207486 -0.464421 -0.174341
v 0.213308 -0.464856 -0.171934
v 0.249899 -0.457409 -0.155809
v 0.259222 -0.46558 -0.153565
v 0.263539 -0.471226 -0.149216
v 0.267883 -0.47645 -0.143868
v 0.214137 -0.458685 -0.172879
v 0.253887 -0.450582 -0.155364
v 0.265013 -0.465176 -0.151062
v 0.269375 -0.470613 -0.146212
v 0.275114 -0.469973 -0.143166
v 0.273773 -0.475742 -0.140714
v 0.25284 -0.444864 -0.158983
v 0.272136 -0.481131 -0.137672
v 0.272509 -0.452326 -0.151106
v 0.26624 -0.458958 -0.152401
v 0.256707 -0.443662 -0.153624
v 0.262621 -0.453256 -0.155564
v 0.26707 -0.452796 -0.15363
v 0.270683 -0.464533 -0.148028
v 0.280783 -0.469152 -0.139839
v 0.279377 -0.474784 -0.137231
v 0.250242 -0.44981 -0.157202
v 0.260647 -0.459428 -0.155018
v 0.266984 -0.446751 -0.153858
f 3 5 2 1
f 4 6 8 3
f 8 9 5 3
f 9 16 10 5
f 12 13 15 11
f 18 17 15 13
f 17 20 19 15
f 25 26 27 24
f 29 28 27 26
f 35 36 39 34
f 39 38 40 34
f 41 42 36 35
f 42 62 46 36
f 46 45 39 36
f 38 44 43 37
f 43 56 67 37
f 67 57 47 37
f 47 40 38 37
f 39 45 44 38
f 47 58 49 40
f 53 54 42 41
f 50 59 53 41
f 54 63 62 42
f 57 69 58 47
f 58 69 76 48
f 61 52 59 50
f 89 71 52 51
f 70 88 77 51
f 77 109 89 51
f 71 60 59 52
f 65 64 54 53
f 59 60 65 53
f 66 67 56 55
f 67 66 68 57
f 78 74 65 60
f 71 90 78 60
f 65 74 82 64
f 89 94 90 71
f 84 83 82 74
f 78 91 84 74
f 86 87 76 75
f 88 93 7 77
f 7 103 109 77
f 90 95 91 78
f 91 97 99 84
f 92 87 86 85
f 79 108 93 88
f 109 101 94 89
f 94 105 95 90
f 95 96 97 91
f 108 98 102 93
f 101 81 105 94
f 105 80 96 95
f 106 107 97 96
f 104 101 109 103
f 100 81 101 104
f 110 73 100 104
f 81 33 80 105
f 32 33 81 100
f 73 22 32 100
f 33 31 72 80
f 32 30 31 33
f 22 21 30 32
f 21 14 23 30
