v -0.100991 0.307923 0.0443896
v -0.0990051 0.30173 0.0419545
v -0.0981254 0.299689 0.0483948
v -0.0971816 0.295484 0.0395788
v -0.0961501 0.293492 0.0459636
v -0.0973081 0.288602 0.0379182
v -0.0974347 0.28172 0.0362575
v -0.0985927 0.27683 0.0282121
v -0.0962827 0.286646 0.0443246
v -0.0953104 0.284996 0.0509212
v -0.0964599 0.280056 0.0428451
v -0.0954876 0.278406 0.0494416
v -0.0948382 0.291594 0.0523137
v -0.0923078 0.296593 0.060005
v -0.0928269 0.290008 0.0586419
v -0.0933461 0.283424 0.0572787
v -0.0938653 0.276839 0.0559156
v -0.091661 0.275356 0.0622909
v -0.092101 0.268768 0.0608991
v -0.0941908 0.270229 0.0544911
v -0.0941651 0.263628 0.0529855
v -0.0940567 0.257039 0.0514434
v -0.0938776 0.250462 0.0498611
v -0.0921715 0.242373 0.0547966
v -0.0935996 0.243855 0.0482698
v -0.0919532 0.235784 0.0532107
v -0.0950287 0.251939 0.0433329
v -0.0945124 0.245352 0.0417262
v -0.0932438 0.237258 0.0466594
v -0.0909112 0.222663 0.0498985
v -0.0891331 0.214673 0.0547576
v -0.0882685 0.208191 0.052782
v -0.0874059 0.201706 0.0508178
v -0.0863407 0.195286 0.0487221
v -0.0866404 0.194049 0.0263993
v -0.0872547 0.213183 0.0611504
v -0.0866005 0.206723 0.0592569
v -0.0859463 0.200263 0.0573635
v -0.0852921 0.193803 0.05547
v -0.0847166 0.205112 0.0657263
v -0.0841165 0.198595 0.0638878
v -0.0832229 0.192152 0.0620165
v -0.0820037 0.185791 0.0601086
v -0.0836761 0.187469 0.0535041
v -0.0819817 0.181145 0.0515339
v -0.0808474 0.176698 0.0429303
v -0.0797347 0.175016 0.0495194
v -0.0777303 0.171133 0.0409693
v -0.0756097 0.167372 0.0324616
v -0.0793799 0.174358 0.0277012
v -0.0787124 0.17279 0.0343665
v -0.0762011 0.168901 0.0258564
v -0.079866 0.179503 0.00797514
v -0.0798494 0.177701 0.0145432
v -0.0798329 0.175899 0.0211112
v -0.0798298 0.181322 0.00143475
v -0.0765654 0.17381 0.0063519
v -0.0766559 0.171977 0.0128675
v -0.0948674 0.298149 0.0539885
v -0.0764171 0.175679 -0.000150535
v -0.0725164 0.170294 -0.00160414
v -0.072759 0.168364 0.00487674
v -0.0827117 0.183522 0.0162366
v -0.0825404 0.181778 0.022859
v -0.0850276 0.189607 0.0179012
v -0.0848403 0.187838 0.0245814
v -0.0843301 0.186131 0.0313517
v -0.0838199 0.184424 0.0381219
v -0.0832973 0.182723 0.0449015
v -0.0860297 0.192398 0.0331985
v -0.0855378 0.190698 0.0400005
v -0.085046 0.188998 0.0468024
v -0.0820615 0.180086 0.029586
v -0.0764863 0.170396 0.0193603
v -0.072586 0.16677 0.0113852
v -0.072442 0.165215 0.0178319
v -0.0766304 0.169397 0.0475345
v -0.0745379 0.165544 0.0390021
v -0.0751668 0.167522 0.0538348
v -0.0729616 0.165722 0.0596758
v -0.0715695 0.161831 0.0513459
v -0.0702424 0.164196 0.0648845
v -0.0750215 0.176111 0.0702268
v -0.0710488 0.174591 0.0755643
v -0.072387 0.180952 0.0777851
v -0.0732978 0.194172 0.081018
v -0.0730418 0.187533 0.0795321
v -0.078096 0.20212 0.0775546
v -0.0776289 0.195543 0.0758796
v -0.0771245 0.188976 0.0741762
v -0.0766201 0.18241 0.0724727
v -0.0812598 0.197027 0.0700254
v -0.0807631 0.190457 0.068323
v -0.0796798 0.184036 0.0664197
v -0.0805638 0.179469 0.0581438
v -0.0777779 0.177806 0.0643391
v -0.078256 0.173373 0.0560431
v -0.0779272 0.20881 0.0788486
v -0.0774535 0.21553 0.080019
v -0.0813674 0.223577 0.0760829
v -0.0818615 0.216856 0.0749187
v -0.0818453 0.210186 0.0733845
v -0.0799205 0.236896 0.0783227
v -0.080706 0.230253 0.0772148
v -0.0809347 0.264757 0.0775481
v -0.0817284 0.258114 0.076445
v -0.0825222 0.25147 0.0753419
v -0.0833159 0.244827 0.0742388
v -0.0819447 0.292618 0.0767754
v -0.0828135 0.285975 0.0757244
v -0.0836824 0.279331 0.0746733
v -0.0841692 0.238184 0.0731769
v -0.0860823 0.25941 0.0713575
v -0.0862015 0.293911 0.071705
v -0.0870107 0.287276 0.0705632
v -0.0878198 0.280641 0.0694214
v -0.0863688 0.315081 0.0690037
v -0.087632 0.30847 0.0681228
v -0.0888952 0.301859 0.0672419
v -0.0850866 0.321689 0.0698842
v -0.081152 0.320327 0.075136
v -0.0828292 0.313754 0.0745604
v -0.095268 0.304677 0.0558593
v -0.0884182 0.32306 0.0642623
v -0.0893047 0.316429 0.0631258
v -0.0904601 0.309809 0.0621893
v -0.0933529 0.317878 0.0580497
v -0.0974781 0.319352 0.0529326
v -0.0986021 0.312741 0.051925
v -0.0945157 0.311268 0.0570774
v -0.0841853 0.307166 0.0737272
v -0.091631 0.303192 0.0612608
v -0.08974 0.295229 0.0661085
v -0.0904032 0.288604 0.0648398
v -0.0885315 0.274007 0.0682246
v -0.0890762 0.267381 0.0669128
v -0.0896209 0.260754 0.0656009
v -0.0867138 0.252777 0.070119
v -0.0872585 0.246151 0.0688072
v -0.084896 0.231547 0.0720135
v -0.085361 0.300552 0.0727933
v -0.0845491 0.272688 0.0736212
v -0.0854086 0.266045 0.0725654
v -0.0689379 0.168568 0.0729347
v -0.0728097 0.169966 0.0677361
v -0.0706858 0.16001 0.0370981
v -0.068863 0.158571 0.042207
v -0.0986576 0.306188 0.0503125
v -0.102448 0.314227 0.0466365
v -0.0955533 0.265178 0.0464387
v -0.0721935 0.162368 0.0304993
v -0.0965845 0.266838 0.0398511
v -0.0756875 0.171669 0.062044
v -0.0734662 0.16364 0.0455287
v -0.0815244 0.178398 0.0362924
v -0.0852409 0.211641 0.0675308
v -0.0816184 0.203599 0.0717177
v -0.0852655 0.218286 0.0690958
v -0.0897659 0.227778 0.0580041
v -0.087395 0.226362 0.0642697
v -0.0850241 0.224947 0.0705354
v -0.0895623 0.22122 0.0564279
v -0.0871914 0.219804 0.0626935
v -0.0900454 0.247532 0.0626888
v -0.0899794 0.240941 0.0611308
v -0.0899133 0.23435 0.0595729
v -0.0875105 0.232942 0.0658343
v -0.0898641 0.254147 0.0641553
v -0.0875356 0.239537 0.0673771
v -0.0975603 0.268493 0.0332567
v -0.0962935 0.260191 0.0383091
v -0.0954466 0.258549 0.0449193
v -0.0984078 0.270111 0.0266547
v -0.0971408 0.261816 0.0317049
v -0.0914777 0.229237 0.051563
v -0.0923857 0.255545 0.0579275
v -0.0923295 0.248953 0.056374
v -0.0922957 0.26215 0.059431
v -0.0910362 0.281979 0.0635679
v -0.0976065 0.275116 0.0347686
v -0.0965753 0.273456 0.0413562
v -0.0955442 0.271796 0.0479438
f 2 3 148 1
f 148 129 149 1
f 4 5 3 2
f 5 13 59 3
f 59 123 148 3
f 6 9 5 4
f 9 10 13 5
f 7 11 9 6
f 180 181 11 7
f 173 170 180 8
f 11 12 10 9
f 12 17 16 10
f 16 15 13 10
f 181 182 12 11
f 182 20 17 12
f 15 14 59 13
f 15 134 133 14
f 133 119 132 14
f 132 123 59 14
f 16 179 134 15
f 17 18 179 16
f 20 19 18 17
f 19 136 135 18
f 135 116 179 18
f 178 137 136 19
f 20 21 178 19
f 182 150 21 20
f 22 176 178 21
f 150 172 22 21
f 23 177 176 22
f 172 27 23 22
f 25 24 177 23
f 27 28 25 23
f 26 166 165 24
f 165 164 177 24
f 25 29 26 24
f 175 159 166 26
f 162 159 175 30
f 32 37 36 31
f 36 163 162 31
f 33 38 37 32
f 34 39 38 33
f 72 44 39 34
f 66 67 70 35
f 37 40 156 36
f 156 158 163 36
f 38 41 40 37
f 39 42 41 38
f 44 43 42 39
f 41 92 157 40
f 157 102 156 40
f 42 93 92 41
f 43 94 93 42
f 95 96 94 43
f 44 45 95 43
f 72 69 45 44
f 47 97 95 45
f 69 46 47 45
f 48 77 47 46
f 69 68 155 46
f 155 51 48 46
f 77 79 97 47
f 78 154 77 48
f 51 49 78 48
f 151 146 78 49
f 51 50 52 49
f 51 155 73 50
f 73 64 55 50
f 55 74 52 50
f 57 58 54 53
f 56 60 57 53
f 58 74 55 54
f 55 64 63 54
f 62 75 58 57
f 60 61 62 57
f 75 76 74 58
f 64 66 65 63
f 73 67 66 64
f 73 155 68 67
f 68 71 70 67
f 69 72 71 68
f 154 81 79 77
f 146 147 154 78
f 80 153 97 79
f 82 145 153 80
f 145 144 84 83
f 84 85 91 83
f 91 94 96 83
f 96 153 145 83
f 87 90 91 85
f 89 90 87 86
f 98 102 157 88
f 157 92 89 88
f 92 93 90 89
f 93 94 91 90
f 97 153 96 95
f 99 101 102 98
f 104 140 161 100
f 161 158 101 100
f 158 156 102 101
f 112 140 104 103
f 143 113 106 105
f 113 138 107 106
f 138 139 108 107
f 139 169 112 108
f 114 115 110 109
f 115 116 111 110
f 116 135 142 111
f 169 167 140 112
f 143 136 137 113
f 137 168 138 113
f 141 119 133 114
f 133 134 115 114
f 134 179 116 115
f 118 131 122 117
f 122 121 120 117
f 120 124 125 117
f 125 126 118 117
f 119 141 131 118
f 126 132 119 118
f 127 130 126 125
f 130 123 132 126
f 128 129 130 127
f 148 123 130 129
f 136 143 142 135
f 178 176 168 137
f 168 164 139 138
f 164 165 169 139
f 167 160 161 140
f 161 160 163 158
f 162 163 160 159
f 160 167 166 159
f 168 176 177 164
f 166 167 169 165
f 174 171 152 170
f 152 181 180 170
f 172 150 152 171
f 152 150 182 181
