# https://github.com/mikedh/trimesh
v -0.26652126 -0.07397750 0.00761550
v -0.24842000 -0.06384750 0.02877150
v -0.27188101 -0.07408600 -0.00783600
v -0.27382651 -0.07891900 -0.01100800
v -0.27299300 -0.07403900 -0.01702700
v -0.23454100 -0.05781200 0.03782000
v -0.27121100 -0.06937300 -0.03020500
v -0.21682300 -0.05045425 0.04085925
v -0.19729075 -0.04040200 0.04247200
v -0.18593400 -0.04078050 0.04337500
v -0.26458800 -0.05443600 -0.04383000
v -0.20763650 0.00005850 -0.09882350
v -0.23158600 -0.03070375 -0.08484225
v -0.23572500 -0.04634300 -0.08372600
v -0.24123200 -0.02861150 -0.07438550
v -0.20280613 0.02508313 -0.09779750
v -0.21813600 -0.00876400 -0.09275800
v -0.26269800 -0.06728800 -0.05332500
v -0.22559000 -0.04794478 0.03754595
v -0.21454555 -0.04713499 0.04092812
v -0.20435621 -0.01898957 0.03911663
v -0.23174418 -0.05491331 0.03762609
v -0.18990811 -0.03169002 0.04326647
v -0.19508700 0.01482500 0.03898800
v -0.19094906 -0.01364502 0.04255769
v -0.19898832 -0.03252237 0.04188431
v -0.19439870 0.00039571 0.04080423
v -0.18815550 -0.02539825 0.04317625
v -0.21837982 -0.02498573 0.03528592
v -0.20841068 -0.00292340 0.03517744
v -0.21465296 0.00267681 0.03120375
v -0.23456560 -0.04026135 0.03032844
v -0.23062302 -0.03791701 0.03217718
v -0.21735049 0.00619300 0.02886000
v -0.22272508 -0.00534579 0.02848781
v -0.23867018 -0.05504878 0.03282486
v -0.23021696 -0.02232780 0.02815761
v -0.22210000 0.01542200 0.02341300
v -0.22244200 0.01835000 0.02231800
v -0.23005568 0.00752806 0.01987416
v -0.22712700 0.01707400 0.01906900
v -0.24641609 -0.05609177 0.02644647
v -0.24246532 -0.01765727 0.01675434
v -0.22607400 0.02940700 0.01563700
v -0.22328000 0.03431500 0.01626500
v -0.23336901 0.01619041 0.01377064
v -0.22460600 0.04000450 0.01279350
v -0.24259403 -0.04056678 0.02410223
v -0.23111261 0.03558259 0.00852165
v -0.23722088 0.02012647 0.00827931
v -0.25090902 -0.03423661 0.01314615
v -0.24510680 -0.00606227 0.00952858
v -0.22455459 0.06674693 -0.00002317
v -0.22095150 0.06873650 0.00239675
v -0.23961975 0.03041707 0.00060162
v -0.25197930 -0.06052589 0.02234444
v -0.23050963 0.05181446 0.00103961
v -0.23519700 0.04293339 -0.00017270
v -0.25093087 -0.05003900 0.01891386
v -0.24521101 0.00072000 0.00636100
v -0.24814374 0.00122316 0.00213406
v -0.26169599 -0.06728935 0.01231541
v -0.23349822 0.05586926 -0.00530303
v -0.22487170 0.07372480 -0.00470353
v -0.21628276 0.09289750 -0.00833300
v -0.22279794 0.08450712 -0.00997795
v -0.22665068 0.07861597 -0.01109197
v -0.26002552 -0.05676878 0.00907725
v -0.20302113 0.11634337 -0.01536800
v -0.25268188 -0.00766212 -0.00130033
v -0.21353661 0.10429994 -0.01474839
v -0.26418541 -0.05771697 0.00176678
v -0.23282699 0.06331100 -0.00973300
v -0.24577602 0.02709776 -0.00819558
v -0.23959241 0.04567274 -0.00863694
v -0.20452170 0.11834053 -0.01917151
v -0.21949070 0.09984442 -0.02016782
v -0.23153801 0.07611209 -0.01857531
v -0.21090175 0.11144225 -0.01950788
v -0.26830344 -0.06757986 -0.00130775
v -0.25494315 -0.00856805 -0.00541132
v -0.25141220 0.00711502 -0.00702619
v -0.22509411 0.09110187 -0.02153237
v -0.23572615 0.06315044 -0.01567715
v -0.20681456 0.11907522 -0.02438641
v -0.19659703 0.12978817 -0.02597888
v -0.25720132 -0.00943893 -0.01076201
v -0.20466171 0.12127635 -0.02423217
v -0.21533781 0.10791287 -0.02348112
v -0.24077376 0.05213859 -0.01777237
v -0.25521885 0.00348478 -0.01499116
v -0.26430178 -0.04327247 -0.00792551
v -0.22635301 0.09058195 -0.02552454
v -0.21257800 0.11373642 -0.02710977
v -0.24649776 0.03116779 -0.01339934
v -0.25199113 0.01741032 -0.01788054
v -0.23669800 0.06688650 -0.02451200
v -0.20593117 0.12215533 -0.02956578
v -0.19239800 0.13282200 -0.02689100
v -0.27182001 -0.07621800 -0.00469100
v -0.24789500 0.03279200 -0.02104100
v -0.24268150 0.04965300 -0.02257500
v -0.24254950 0.05198200 -0.02780150
v -0.23273150 0.07720500 -0.02685600
v -0.25691101 -0.00213900 -0.01694200
v -0.26649299 -0.04908300 -0.01175800
v -0.27065599 -0.06727500 -0.01098900
v -0.21435425 0.11195675 -0.03033125
v -0.26522100 -0.04182400 -0.01344800
v -0.25634900 0.00188900 -0.01958000
v -0.23006550 0.08338150 -0.02650750
v -0.25088250 0.02344275 -0.02255425
v -0.25319376 0.01389125 -0.01978975
v -0.21624975 0.10870300 -0.02929925
v -0.18841299 0.13633500 -0.02947000
v -0.19164700 0.13511600 -0.03336050
v -0.19809625 0.12999075 -0.03197300
v -0.18441600 0.13941450 -0.03209250
v -0.18280300 0.14081800 -0.03443700
v -0.10749800 0.16984700 -0.06870500
v -0.10277600 0.17130201 -0.06851000
v -0.10192639 0.17631237 -0.05502700
v -0.10462000 0.17401800 -0.04725800
v -0.15496000 0.13272150 -0.08807600
v -0.23365800 0.07450200 -0.03996400
v -0.22489904 0.09074324 -0.04827001
v -0.21429609 0.10682282 -0.05333086
v -0.21581175 0.10823175 -0.04647500
v -0.22544999 0.08754900 -0.04981200
v -0.21411300 0.10112700 -0.05893100
v -0.20681354 0.10868943 -0.06299542
v -0.21172545 0.11502573 -0.04651366
v -0.20361394 0.11925955 -0.05690220
v -0.22032540 0.09279388 -0.05590385
v -0.20907762 0.10531622 -0.06317403
v -0.21080149 0.08888998 -0.07162961
v -0.21261001 0.09048300 -0.06851000
v -0.20816700 0.08342400 -0.07689200
v -0.21820401 0.10651100 -0.04059600
v -0.21389122 0.11346169 -0.03347601
v -0.21927571 0.10571066 -0.03409772
v -0.20965110 0.11939268 -0.03743240
v -0.20832856 0.12027375 -0.04149025
v -0.20620100 0.11465650 -0.05804050
v -0.19398881 0.10750835 -0.07796797
v -0.19845764 0.11428037 -0.06847472
v -0.18846796 0.11498355 -0.07793094
v -0.22057275 0.10300088 -0.03556763
v -0.18166792 0.12183026 -0.07845236
v -0.18817601 0.12055800 -0.07368100
v -0.17312400 0.12056600 -0.08527600
v -0.17957825 0.11920825 -0.08176275
v -0.20467801 0.07339369 -0.08422410
v -0.19972094 0.08502394 -0.08370731
v -0.19862833 0.12214731 -0.06074981
v -0.20111013 0.11550625 -0.06397525
v -0.19431350 0.11977900 -0.06821850
v -0.19024704 0.12815704 -0.06422381
v -0.18121559 0.13729998 -0.06145648
v -0.18111426 0.13550975 -0.06428950
v -0.16555944 0.14450600 -0.06627925
v -0.17343097 0.14001563 -0.06598340
v -0.16297534 0.15110408 -0.05296156
v -0.16174954 0.14813864 -0.06418218
v -0.14461819 0.15255672 -0.07247000
v -0.15913852 0.14281246 -0.07507900
v -0.14789800 0.14617801 -0.07882600
v -0.14696575 0.15572300 -0.06311675
v -0.17617186 0.14527180 -0.04363410
v -0.16936900 0.13795701 -0.07261200
v -0.17384000 0.13114400 -0.07637300
v -0.17338934 0.13417289 -0.07368305
v -0.14549176 0.15938533 -0.05069717
v -0.12232600 0.16833800 -0.05071200
v -0.13080006 0.16459188 -0.05753920
v -0.14066499 0.16051599 -0.05655400
v -0.14919154 0.15638608 -0.05812059
v -0.15696635 0.13710263 -0.08266200
v -0.14267600 0.16076300 -0.04676400
v -0.18003000 0.12943400 -0.07293700
v -0.14505800 0.14851000 -0.07852575
v -0.19857436 0.12987393 -0.04661685
v -0.18118578 0.14115453 -0.05288859
v -0.20157500 0.12779850 -0.03862150
v -0.19168559 0.13118986 -0.05769121
v -0.19620244 0.12919656 -0.05331125
v -0.18495599 0.10508587 -0.08601875
v -0.17507701 0.12300300 -0.08229700
v -0.17021701 0.12602900 -0.08333400
v -0.17096700 0.12285200 -0.08515600
v -0.15255057 0.13941117 -0.08325124
v -0.22309262 0.09662587 -0.04343300
v -0.22737379 0.09058251 -0.03623091
v -0.22102801 0.10210552 -0.03996076
v -0.13217125 0.15840725 -0.07332900
v -0.20038254 0.04830213 -0.09475279
v -0.20827000 0.06198725 -0.08480500
v -0.22005599 0.05062797 -0.07763766
v -0.20992265 0.04895165 -0.08740453
v -0.21147812 0.07284250 -0.07780287
v -0.19179264 0.08812733 -0.08892860
v -0.19037650 0.07439500 -0.09438900
v -0.18691701 0.08252600 -0.09413800
v -0.18629999 0.08636400 -0.09323300
v -0.18528099 0.09575100 -0.09025400
v -0.18418700 0.09928400 -0.08944000
v -0.19810193 0.09377696 -0.08136083
v -0.18704000 0.09227300 -0.09049500
v -0.18783300 0.08930300 -0.09112900
v -0.17372450 0.14641500 -0.04095850
v -0.19575706 0.06609703 -0.09326858
v -0.21957532 0.03001601 -0.08373477
v -0.22164988 0.01054635 -0.08622564
v -0.22943771 -0.01344801 -0.08390941
v -0.22981000 0.00808500 -0.07879500
v -0.23902500 -0.00876400 -0.07251900
v -0.24099354 0.00073936 -0.06741834
v -0.24658494 -0.01998724 -0.06575073
v -0.24613200 -0.02510500 -0.06747900
v -0.26062034 -0.05770914 -0.05395225
v -0.25798401 -0.03542700 -0.05120100
v -0.24971508 0.01133914 -0.04857077
v -0.25503950 -0.01163200 -0.04753800
v -0.24289816 0.03463130 -0.05119517
v -0.23987427 0.04688221 -0.05018405
v -0.24715200 0.00959600 -0.05470400
v -0.24000122 0.05176684 -0.04615453
v -0.25976248 -0.02337607 -0.04124118
v -0.25198517 0.01637819 -0.03828565
v -0.24708529 0.03840244 -0.02862692
v -0.24949500 0.02860400 -0.02335800
v -0.25033399 0.02599400 -0.02406300
v -0.25956722 -0.00973841 -0.02203008
v -0.26171300 -0.01998500 -0.02257100
v -0.27301100 -0.07623700 -0.01085700
v -0.26012395 -0.01241548 -0.02859193
v -0.26821389 -0.05229568 -0.02462173
v -0.26817256 -0.05426728 -0.02985558
v -0.26918475 -0.06473975 -0.03539550
v -0.25532185 0.00829619 -0.02396072
v -0.27043019 -0.06388786 -0.01573850
v -0.24182080 0.05260781 -0.03867005
v -0.23499700 0.07301200 -0.03342900
v -0.23548087 0.07152305 -0.02800003
v -0.24048776 0.05868472 -0.03410793
v -0.24964701 0.02301900 -0.04023850
v -0.25709438 -0.01483857 -0.04431023
v -0.25227905 -0.01177287 -0.05366999
v -0.25760676 -0.01007700 -0.03894325
v -0.24915400 0.03054500 -0.02603700
v -0.24732199 0.03275100 -0.03933100
v -0.23126062 0.01045622 -0.07668266
v -0.23403699 -0.01119000 -0.07871150
v -0.23565769 0.00757107 -0.07239902
v -0.21901443 0.00459231 -0.08947100
v -0.22254167 0.06285321 -0.07008625
v -0.23055131 0.06395384 -0.05793891
v -0.23119097 0.04922031 -0.06435481
v -0.22874400 0.07464050 -0.05406150
v -0.21695510 0.07280583 -0.07231369
v -0.21465400 0.07586100 -0.07351600
v -0.21992300 0.05970900 -0.07433000
v -0.22244375 0.05395425 -0.07352525
v -0.23214938 0.03051181 -0.06982707
v -0.22548495 0.01801398 -0.08091612
v -0.20380495 0.03893103 -0.09448134
v -0.20669331 0.01907882 -0.09637099
v -0.21546239 -0.00160828 -0.09364988
v -0.19098124 0.02457025 -0.10495350
v -0.25284963 -0.02650913 -0.05761900
v -0.24515738 0.00304758 -0.06078763
v -0.24812999 -0.00524500 -0.05863200
v -0.24016200 0.01715750 -0.06328250
v -0.21748050 0.08206275 -0.06716500
v -0.13533225 0.15814325 -0.06994188
v -0.11814200 0.16585200 -0.07013400
v -0.25247699 -0.00134500 -0.04853200
v -0.12773651 0.16074450 -0.07223450
v -0.19505803 0.03120456 -0.10157973
v -0.23535600 0.03542100 -0.06364600
v -0.20821650 0.04189900 -0.09042650
v -0.25662050 0.00044950 -0.03315700
v -0.22847824 0.02794100 -0.07493625
v -0.26026000 -0.01567950 -0.03263150
v -0.19111999 0.04753850 -0.10055400
v -0.22225338 0.07654227 -0.06386378
v -0.23700031 0.04548381 -0.05594856
v -0.12017350 0.16650200 -0.06453250
v -0.24470963 0.03732390 -0.04474035
v -0.13411500 0.16404299 -0.04972500
v -0.22439644 0.07502594 -0.06106994
v -0.21708025 0.06025387 -0.07710762
v -0.18639332 0.13919503 -0.04575051
v -0.20510525 0.09204325 -0.07571375
v -0.23386000 0.07271100 -0.04218000
v -0.19946606 0.12381931 -0.05650525
v -0.23726350 0.02134100 -0.06595900
v -0.25010899 0.01697800 -0.04385700
v -0.17996318 0.13990640 -0.05811476
v -0.24001725 0.05635550 -0.04062575
v -0.15576452 0.14573894 -0.07369496
v -0.23058550 0.08332125 -0.03096400
v -0.27226299 -0.07085300 -0.02307600
v -0.25159375 0.02096400 -0.03267825
v -0.23234350 0.04632100 -0.06360250
v -0.17040025 0.13115375 -0.07885100
v -0.12131550 0.16743125 -0.05986950
v -0.23550801 0.06235850 -0.04868350
v -0.20331449 0.12607650 -0.03677100
v -0.25591275 -0.02094425 -0.04971125
v -0.19419700 0.13394900 -0.03985500
v -0.15592175 0.15426500 -0.05282975
v -0.19176875 0.13549475 -0.04199362
v -0.24036337 0.05855675 -0.02950850
v -0.23796521 -0.01825524 -0.07604459
v -0.23633719 0.06756231 -0.04001373
v -0.25409349 0.01251921 -0.03105724
v -0.20212266 0.09812766 -0.07550793
v -0.23289600 0.07023300 -0.04828200
f 92 106 80
f 91 106 92
f 91 105 106
f 96 105 91
f 96 113 105
f 96 101 113
f 102 101 96
f 90 102 96
f 90 97 102
f 78 97 90
f 111 97 78
f 78 93 111
f 93 114 111
f 83 114 93
f 94 114 83
f 98 114 94
f 117 114 98
f 86 98 94
f 86 117 98
f 116 117 86
f 86 118 116
f 118 86 115
f 115 86 99
f 88 86 94
f 88 94 85
f 79 85 94
f 94 89 79
f 89 94 77
f 79 89 77
f 79 77 71
f 71 76 79
f 76 88 79
f 69 76 71
f 69 86 76
f 69 71 65
f 65 71 66
f 54 65 66
f 66 64 54
f 66 67 64
f 66 77 67
f 77 83 67
f 67 83 78
f 78 73 67
f 73 78 75
f 75 78 84
f 75 84 90
f 75 90 95
f 75 95 74
f 74 95 91
f 74 91 82
f 82 91 87
f 82 87 81
f 81 87 92
f 81 92 72
f 70 81 72
f 70 72 68
f 68 72 80
f 68 80 62
f 62 80 1
f 1 80 100
f 80 107 100
f 56 62 1
f 2 56 1
f 36 56 2
f 42 56 36
f 42 59 56
f 59 51 56
f 42 51 59
f 48 51 42
f 43 51 48
f 51 43 52
f 68 51 52
f 61 68 52
f 60 61 52
f 50 61 60
f 50 55 61
f 55 82 61
f 61 82 70
f 49 55 50
f 49 58 55
f 58 75 55
f 63 75 58
f 57 63 58
f 53 63 57
f 64 63 53
f 53 57 49
f 53 49 54
f 47 54 49
f 47 49 44
f 44 49 40
f 40 49 46
f 46 49 52
f 46 52 40
f 44 40 41
f 45 44 41
f 41 40 39
f 39 40 38
f 38 40 34
f 34 40 35
f 35 40 37
f 40 32 37
f 40 48 32
f 35 37 32
f 31 35 32
f 32 29 31
f 29 32 33
f 33 32 36
f 29 33 36
f 29 36 19
f 19 36 22
f 22 36 6
f 8 22 6
f 20 22 8
f 20 8 9
f 26 20 9
f 21 20 26
f 25 21 26
f 25 26 23
f 28 25 23
f 28 23 10
f 23 9 10
f 27 21 25
f 27 30 21
f 24 30 27
f 31 30 24
f 34 31 24
f 30 19 21
f 21 19 20
f 23 26 9
f 20 19 22
f 30 29 19
f 30 31 29
f 31 34 35
f 45 47 44
f 57 58 49
f 50 52 49
f 50 60 52
f 56 51 68
f 40 52 43
f 40 43 48
f 48 42 32
f 32 42 36
f 36 2 6
f 56 68 62
f 68 61 70
f 82 81 70
f 74 82 55
f 55 75 74
f 63 73 75
f 67 73 63
f 64 67 63
f 54 64 53
f 71 77 66
f 88 85 79
f 86 88 76
f 77 94 83
f 83 93 78
f 84 78 90
f 90 96 95
f 95 96 91
f 87 91 92
f 80 106 107
f 106 241 107
f 107 241 3
f 3 241 235
f 235 241 4
f 241 5 4
f 241 237 5
f 234 237 241
f 233 234 241
f 110 233 241
f 109 110 241
f 240 233 110
f 240 317 233
f 240 230 317
f 230 304 317
f 304 229 317
f 317 229 249
f 282 317 249
f 317 282 236
f 282 284 236
f 236 284 238
f 284 239 238
f 7 238 239
f 303 238 7
f 237 238 303
f 237 236 238
f 229 247 249
f 249 247 228
f 249 228 239
f 228 11 239
f 11 228 247
f 18 11 247
f 310 18 247
f 223 310 247
f 277 223 247
f 222 277 247
f 277 222 310
f 222 248 310
f 310 248 221
f 221 248 220
f 248 270 220
f 226 270 248
f 270 218 220
f 270 271 218
f 272 271 270
f 226 271 272
f 271 226 287
f 287 273 271
f 297 271 273
f 297 254 271
f 264 254 297
f 264 297 280
f 280 305 264
f 305 258 264
f 305 287 258
f 257 258 287
f 259 257 287
f 259 291 257
f 258 257 291
f 291 256 258
f 286 256 291
f 291 274 286
f 274 291 134
f 291 129 134
f 129 127 134
f 130 134 127
f 135 130 127
f 130 135 274
f 137 274 135
f 136 274 137
f 200 274 136
f 136 153 200
f 197 200 153
f 200 197 198
f 292 200 198
f 292 198 263
f 263 198 258
f 197 199 198
f 198 199 212
f 255 212 199
f 255 213 212
f 255 214 213
f 255 13 214
f 13 15 214
f 214 15 315
f 253 214 315
f 253 315 254
f 254 315 216
f 216 315 218
f 254 216 218
f 254 218 217
f 252 253 254
f 215 253 252
f 265 253 215
f 265 215 252
f 283 265 252
f 198 265 283
f 264 198 283
f 283 252 264
f 265 214 253
f 218 315 15
f 15 219 218
f 218 219 18
f 15 13 14
f 265 213 214
f 265 212 213
f 281 255 199
f 281 267 255
f 281 16 267
f 266 16 281
f 196 266 281
f 196 16 266
f 196 279 16
f 285 279 196
f 285 269 279
f 211 285 196
f 211 196 153
f 201 211 153
f 202 211 201
f 203 202 201
f 204 203 201
f 209 204 201
f 209 201 208
f 205 208 201
f 201 206 205
f 206 201 187
f 145 187 201
f 201 207 145
f 201 154 207
f 207 154 294
f 318 207 294
f 294 136 318
f 135 318 136
f 318 135 145
f 145 135 131
f 156 145 131
f 156 146 145
f 156 157 146
f 158 157 156
f 180 157 158
f 160 180 158
f 162 180 160
f 159 162 160
f 299 162 159
f 161 162 299
f 183 161 299
f 183 299 185
f 183 185 186
f 186 185 296
f 186 296 132
f 296 133 132
f 296 155 133
f 296 158 155
f 155 156 133
f 144 133 156
f 144 156 127
f 133 144 127
f 133 127 132
f 132 127 128
f 132 128 194
f 132 194 139
f 141 139 194
f 141 194 148
f 148 194 193
f 192 193 194
f 194 126 192
f 192 126 125
f 125 126 319
f 126 287 319
f 126 129 287
f 192 125 193
f 302 193 125
f 141 193 302
f 108 141 302
f 140 141 108
f 143 141 140
f 143 132 141
f 142 143 140
f 309 143 142
f 182 143 309
f 184 182 309
f 311 182 184
f 311 313 182
f 313 293 182
f 293 313 116
f 313 309 116
f 116 169 293
f 169 183 293
f 163 183 169
f 164 183 163
f 163 168 164
f 168 165 164
f 275 165 168
f 175 275 168
f 175 276 275
f 276 278 275
f 288 276 175
f 120 276 288
f 122 120 288
f 122 288 307
f 122 307 175
f 123 122 175
f 174 123 175
f 174 175 290
f 179 290 175
f 179 175 173
f 179 173 312
f 173 177 312
f 177 163 312
f 210 312 163
f 173 176 177
f 176 168 177
f 175 176 173
f 122 121 120
f 307 288 175
f 176 175 168
f 275 181 165
f 275 195 181
f 165 181 166
f 181 167 166
f 166 167 191
f 178 166 191
f 191 124 178
f 124 306 178
f 178 306 166
f 166 306 172
f 172 306 171
f 172 171 180
f 170 172 180
f 170 166 172
f 161 166 170
f 161 301 166
f 164 301 161
f 165 166 301
f 165 301 164
f 177 168 163
f 210 163 169
f 210 169 116
f 210 116 119
f 293 183 182
f 182 186 143
f 108 309 142
f 108 142 140
f 141 148 193
f 132 139 141
f 194 128 126
f 128 127 126
f 143 186 132
f 185 158 296
f 159 158 185
f 183 186 182
f 164 161 183
f 299 159 185
f 160 158 159
f 158 156 155
f 147 146 157
f 150 147 157
f 150 149 147
f 180 149 150
f 306 149 180
f 306 189 149
f 189 188 149
f 188 152 149
f 151 152 188
f 188 190 151
f 147 149 152
f 152 187 147
f 146 147 145
f 131 127 156
f 294 154 136
f 136 154 138
f 153 138 154
f 145 207 318
f 187 145 147
f 154 201 153
f 153 196 199
f 269 16 279
f 16 12 267
f 267 12 268
f 268 12 17
f 268 17 255
f 268 255 267
f 199 196 281
f 212 265 198
f 153 199 197
f 138 153 136
f 136 137 135
f 131 135 127
f 127 129 126
f 274 134 130
f 274 256 286
f 274 260 256
f 274 261 260
f 261 292 260
f 260 292 256
f 292 262 256
f 256 262 263
f 256 263 258
f 198 264 258
f 252 254 264
f 254 217 271
f 287 226 224
f 287 224 225
f 227 287 225
f 308 287 227
f 308 227 300
f 300 227 289
f 300 289 242
f 316 300 242
f 295 300 316
f 125 295 316
f 125 316 245
f 125 245 243
f 302 243 245
f 302 245 244
f 104 302 244
f 244 245 314
f 314 245 230
f 103 314 230
f 231 103 230
f 245 229 230
f 245 242 229
f 242 251 229
f 251 246 229
f 246 298 229
f 316 242 245
f 242 289 251
f 289 298 251
f 289 222 298
f 289 224 222
f 227 224 289
f 227 225 224
f 222 224 226
f 271 217 218
f 220 218 18
f 221 220 18
f 226 248 222
f 298 222 247
f 298 247 229
f 230 229 304
f 231 230 240
f 112 231 240
f 231 232 112
f 231 250 232
f 317 236 233
f 112 240 110
f 233 236 234
f 234 236 237
f 5 237 303
f 3 235 4
f 109 241 106
f 72 92 80

