v 0.168061 -0.395376 0.152156
v 0.17776 -0.395529 0.15253
v 0.187437 -0.395708 0.152589
v 0.177519 -0.403579 0.147545
v 0.196108 -0.411823 0.141866
v 0.186716 -0.411602 0.142165
v 0.205616 -0.412034 0.141627
v 0.196896 -0.403988 0.147384
v 0.206417 -0.4042 0.147125
v 0.21529 -0.412257 0.141132
v 0.224854 -0.412258 0.140367
v 0.215913 -0.404122 0.1463
v 0.206754 -0.395878 0.151756
v 0.216261 -0.395706 0.150973
v 0.225687 -0.386167 0.151939
v 0.216124 -0.386566 0.152032
v 0.206533 -0.386773 0.151843
v 0.196884 -0.386677 0.151569
v 0.187225 -0.386558 0.151395
v 0.177566 -0.386437 0.151228
v 0.167906 -0.386316 0.151062
v 0.158248 -0.386216 0.150845
v 0.148599 -0.38609 0.150625
v 0.33917 -0.314995 0.109388
v 0.158372 -0.395181 0.151373
v 0.253697 -0.375417 0.149258
v 0.262331 -0.365249 0.14639
v 0.271698 -0.364552 0.146129
v 0.26311 -0.374738 0.148165
v 0.244862 -0.385451 0.15018
v 0.254281 -0.384863 0.148343
v 0.263549 -0.384058 0.1458
v 0.254084 -0.393817 0.144882
v 0.244741 -0.394521 0.147054
v 0.263058 -0.402104 0.139241
v 0.263406 -0.39312 0.142697
v 0.27159 -0.409939 0.132587
v 0.197124 -0.395883 0.152319
v 0.262425 -0.410638 0.134994
v 0.253173 -0.411063 0.136579
v 0.24381 -0.411613 0.138271
v 0.280517 -0.409108 0.129557
v 0.281176 -0.400323 0.133424
v 0.28988 -0.3993 0.129782
v 0.290507 -0.390434 0.133487
v 0.289263 -0.408178 0.126094
v 0.28858 -0.41706 0.122377
v 0.296937 -0.416325 0.118165
v 0.297905 -0.407388 0.122223
v 0.298669 -0.398387 0.126024
v 0.299142 -0.389351 0.129468
v 0.307623 -0.3882 0.125051
v 0.315955 -0.377683 0.12301
v 0.323863 -0.366922 0.120203
v 0.33106 -0.355755 0.116545
v 0.338222 -0.353612 0.110019
v 0.343847 -0.342061 0.105313
v 0.34257 -0.333029 0.107353
v 0.336138 -0.335235 0.11426
v 0.329267 -0.337138 0.12059
v 0.330352 -0.346567 0.118898
v 0.328094 -0.327644 0.121908
v 0.322069 -0.338819 0.126573
v 0.32091 -0.329237 0.127754
v 0.313374 -0.330712 0.133302
v 0.305418 -0.332127 0.138252
v 0.297291 -0.333651 0.14273
v 0.289973 -0.335466 0.148505
v 0.288829 -0.344048 0.144244
v 0.280942 -0.3461 0.149645
v 0.27176 -0.356126 0.148607
v 0.263336 -0.35804 0.152672
v 0.254057 -0.35955 0.155904
v 0.253511 -0.36709 0.149911
v 0.244802 -0.360979 0.15861
v 0.244282 -0.368377 0.152455
v 0.23511 -0.369618 0.154848
v 0.225521 -0.370699 0.15649
v 0.225378 -0.377525 0.149953
v 0.215855 -0.378302 0.151206
v 0.206327 -0.378975 0.152144
v 0.215861 -0.371591 0.157839
v 0.272732 -0.348252 0.154452
v 0.297478 -0.32436 0.145599
v 0.304496 -0.32266 0.13934
v 0.303466 -0.313243 0.140415
v 0.310646 -0.311723 0.13443
v 0.317869 -0.310227 0.128505
v 0.333187 -0.316546 0.116172
v 0.340914 -0.323835 0.108668
v 0.334904 -0.325902 0.11573
v 0.346205 -0.321363 0.1015
v 0.297422 -0.342731 0.140569
v 0.289265 -0.353217 0.142622
v 0.290193 -0.36268 0.141506
v 0.280982 -0.363673 0.144449
v 0.298283 -0.352143 0.139322
v 0.299266 -0.370944 0.135236
v 0.298988 -0.361595 0.137644
v 0.299531 -0.380287 0.132802
v 0.290634 -0.372066 0.139405
v 0.290751 -0.381349 0.136685
v 0.281833 -0.382335 0.14011
v 0.281625 -0.373052 0.142768
v 0.30776 -0.369763 0.130746
v 0.307476 -0.360411 0.133143
v 0.315745 -0.359134 0.128218
v 0.315099 -0.349712 0.130232
v 0.306926 -0.351013 0.135152
v 0.306225 -0.34157 0.136817
v 0.314296 -0.340239 0.131873
v 0.319612 -0.319678 0.128611
v 0.312219 -0.321218 0.13419
v 0.326804 -0.318148 0.122711
v 0.348317 -0.330336 0.0999911
v 0.337331 -0.344456 0.11235
v 0.32362 -0.357681 0.122714
v 0.322931 -0.348281 0.124798
v 0.315908 -0.368439 0.125664
v 0.307919 -0.379066 0.128167
v 0.272171 -0.401255 0.136496
v 0.27259 -0.392365 0.140087
v 0.253765 -0.402745 0.141334
v 0.244362 -0.403285 0.143074
v 0.235269 -0.394955 0.14847
v 0.281712 -0.39151 0.137135
v 0.272806 -0.383251 0.143267
v 0.27249 -0.373987 0.145847
v 0.279909 -0.354096 0.14408
v 0.244275 -0.37605 0.149179
v 0.234851 -0.376679 0.148969
v 0.235281 -0.385846 0.151366
v 0.225768 -0.395349 0.149787
v 0.234365 -0.411999 0.139359
v 0.234879 -0.403663 0.144358
v 0.225359 -0.403931 0.145377
v 0.177098 -0.411366 0.142042
v 0.167964 -0.403285 0.146943
v 0.148698 -0.39489 0.150413
v 0.149133 -0.402404 0.144627
v 0.139724 -0.401731 0.142928
v 0.129711 -0.39358 0.147083
v 0.130389 -0.400952 0.141042
v 0.130831 -0.408256 0.134981
v 0.121075 -0.400174 0.139075
v 0.111841 -0.399174 0.136668
v 0.120552 -0.392386 0.144431
v 0.111247 -0.391515 0.142249
v 0.187243 -0.403863 0.147626
v 0.140087 -0.409043 0.136851
v 0.149305 -0.409831 0.138621
v 0.158547 -0.410659 0.140373
v 0.158587 -0.40289 0.145953
v 0.139178 -0.394274 0.148815
v 0.167822 -0.410815 0.141009
f 21 22 25 1
f 25 153 138 1
f 138 4 2 1
f 2 20 21 1
f 4 149 3 2
f 3 19 20 2
f 149 8 38 3
f 38 18 19 3
f 138 155 137 4
f 137 6 149 4
f 8 149 6 5
f 7 9 8 5
f 10 12 9 7
f 9 13 38 8
f 12 14 13 9
f 11 136 12 10
f 134 135 136 11
f 136 133 14 12
f 17 18 38 13
f 14 16 17 13
f 133 15 16 14
f 79 80 16 15
f 133 125 132 15
f 132 131 79 15
f 80 81 17 16
f 23 139 25 22
f 74 76 130 26
f 130 30 31 26
f 31 32 29 26
f 29 27 74 26
f 72 73 74 27
f 29 128 28 27
f 28 71 72 27
f 32 127 128 29
f 130 131 132 30
f 132 125 34 30
f 34 33 31 30
f 33 36 32 31
f 36 122 127 32
f 34 124 123 33
f 123 35 36 33
f 125 135 124 34
f 123 40 39 35
f 39 37 121 35
f 121 122 36 35
f 42 43 121 37
f 123 124 41 40
f 124 135 134 41
f 46 44 43 42
f 126 122 121 43
f 44 45 126 43
f 46 49 50 44
f 50 51 45 44
f 102 103 126 45
f 51 100 102 45
f 47 48 49 46
f 52 120 100 51
f 119 105 120 53
f 117 107 119 54
f 61 118 117 55
f 56 116 61 55
f 58 59 116 57
f 90 91 59 58
f 115 92 90 58
f 91 62 60 59
f 60 61 116 59
f 62 64 63 60
f 63 118 61 60
f 114 112 64 62
f 91 89 114 62
f 64 65 111 63
f 111 108 118 63
f 112 113 65 64
f 113 85 66 65
f 66 110 111 65
f 85 84 67 66
f 67 93 110 66
f 68 69 93 67
f 94 97 93 69
f 83 71 129 70
f 75 76 74 73
f 77 131 130 76
f 78 79 131 77
f 82 80 79 78
f 113 87 86 85
f 113 112 88 87
f 91 90 24 89
f 97 109 110 93
f 95 99 97 94
f 96 104 101 95
f 101 98 99 95
f 99 106 109 97
f 101 102 100 98
f 100 120 105 98
f 105 106 99 98
f 104 103 102 101
f 104 128 127 103
f 127 122 126 103
f 119 107 106 105
f 107 108 109 106
f 117 118 108 107
f 111 110 109 108
f 133 136 135 125
f 153 152 155 138
f 154 141 140 139
f 140 153 25 139
f 141 150 151 140
f 151 152 153 140
f 154 142 143 141
f 143 144 150 141
f 147 145 143 142
f 147 148 146 145
