# https://github.com/mikedh/trimesh
v 0.04894400 -0.34183401 0.13681200
v 0.06411325 -0.32821025 0.14192550
v 0.11450275 -0.37284776 0.14457825
v 0.09636650 -0.35448925 0.15076251
v 0.07544875 -0.32647850 0.14489525
v 0.08888850 -0.34433450 0.14973400
v 0.07439200 -0.33679001 0.14518500
v 0.08302800 -0.33546701 0.14426300
v 0.07957400 -0.33417499 0.14363700
v 0.27776400 -0.26850849 0.13904300
v 0.29951501 -0.31720701 0.14428800
v 0.28683762 -0.31552444 0.14818475
v 0.27042125 -0.25809176 0.13235713
v 0.27328851 -0.26049800 0.13403101
v 0.30146700 -0.30925900 0.14096500
v 0.27684701 -0.28696150 0.14743050
v 0.27746249 -0.30576250 0.15164250
v 0.05761200 -0.28182050 0.11652300
v 0.05039290 -0.31330071 0.13082393
v 0.04972442 -0.32265944 0.12949501
v 0.05578175 -0.29221725 0.12062275
v 0.05413812 -0.29827313 0.12301775
v 0.04890800 -0.33053201 0.12956300
v 0.05410900 -0.27161300 0.11362600
v 0.14826800 -0.38080099 0.14785700
v 0.11923984 -0.37511079 0.14575810
v 0.23248779 -0.36334314 0.16125701
v 0.25194276 -0.35697600 0.15905750
v 0.23745976 -0.35988180 0.16194223
v 0.20131757 -0.36832820 0.16280688
v 0.22329628 -0.36403971 0.16246306
v 0.18189865 -0.36813251 0.16263546
v 0.25497568 -0.35293205 0.16038690
v 0.26582691 -0.34576404 0.15854157
v 0.24298989 -0.35627419 0.16150798
v 0.24733218 -0.35453630 0.16111101
v 0.20719442 -0.36614272 0.16309107
v 0.16741941 -0.36810663 0.16173317
v 0.15319549 -0.36610817 0.16053062
v 0.14586615 -0.36615044 0.15981177
v 0.12549527 -0.36294323 0.15718744
v 0.23444851 -0.35664898 0.16122601
v 0.20104716 -0.36520662 0.16280347
v 0.11720723 -0.35916734 0.15623054
v 0.14713278 -0.36348183 0.15958040
v 0.26913159 -0.33919361 0.15631310
v 0.28481978 -0.32283572 0.14969717
v 0.27351992 -0.33106053 0.15300391
v 0.26510183 -0.33740062 0.15512599
v 0.20869200 -0.35782572 0.15959724
v 0.10529670 -0.35419904 0.15429356
v 0.23906060 -0.34882219 0.15803448
v 0.25102540 -0.34381379 0.15684376
v 0.21696609 -0.35456123 0.15880287
v 0.17998642 -0.35900717 0.15836355
v 0.10049548 -0.34966720 0.15257871
v 0.12536241 -0.35947997 0.15725633
v 0.15882822 -0.35822790 0.15695552
v 0.14502831 -0.36058516 0.15812531
v 0.13064630 -0.35612722 0.15518454
v 0.12942886 -0.35332470 0.15331836
v 0.11603520 -0.34915464 0.15174572
v 0.29673509 -0.31211948 0.14381045
v 0.14144991 -0.35551789 0.15499978
v 0.28133717 -0.33354083 0.15409947
v 0.29292751 -0.32169270 0.14852674
v 0.22814006 -0.35213749 0.15852908
v 0.27581686 -0.33984987 0.15612064
v 0.28940850 -0.32854276 0.15069625
v 0.26481315 -0.32228064 0.15681712
v 0.25688230 -0.34073107 0.15606869
v 0.27153296 -0.34449248 0.15719977
v 0.26599474 -0.34913498 0.15795276
v 0.28104251 -0.33790824 0.15412800
v 0.27289200 -0.34667301 0.15549000
v 0.11090532 -0.35960448 0.15422469
v 0.11391670 -0.36401672 0.15184818
v 0.12692821 -0.37569521 0.14590988
v 0.13632477 -0.36782241 0.15683619
v 0.14236811 -0.37868992 0.14771504
v 0.13515877 -0.37811390 0.14667846
v 0.15988412 -0.37029935 0.15993472
v 0.16454051 -0.37358099 0.15743405
v 0.17327849 -0.37835350 0.15332000
v 0.15647980 -0.38101430 0.14877224
v 0.16489999 -0.38214801 0.14881900
v 0.19427175 -0.37252751 0.15947200
v 0.18024888 -0.37151163 0.16061559
v 0.17814616 -0.36999592 0.16155873
v 0.22018550 -0.36751250 0.16073300
v 0.20018158 -0.28682935 0.15230253
v 0.21390575 -0.30402917 0.15780959
v 0.22539963 -0.30229892 0.15752543
v 0.19536241 -0.29260541 0.15382212
v 0.23323831 -0.28439371 0.15164564
v 0.24395782 -0.30156438 0.15701477
v 0.17721927 -0.30046290 0.15455751
v 0.19321627 -0.30974569 0.15805987
v 0.16736622 -0.29899293 0.15338200
v 0.19674440 -0.31899093 0.16011362
v 0.17548415 -0.32733300 0.15974062
v 0.12775591 -0.32916628 0.15306470
v 0.13413654 -0.31528527 0.15171365
v 0.13631328 -0.31220669 0.15161365
v 0.21157768 -0.31633829 0.16066248
v 0.15385310 -0.31632924 0.15504673
v 0.14814145 -0.30082780 0.15166653
v 0.21816417 -0.31941531 0.16101946
v 0.12584378 -0.30844324 0.15035985
v 0.23904890 -0.30770404 0.15852995
v 0.17931351 -0.33497938 0.16064119
v 0.13377400 -0.33323699 0.15460201
v 0.10829675 -0.33345957 0.14966138
v 0.15265763 -0.33338857 0.15757828
v 0.08418158 -0.32186911 0.14629799
v 0.12978446 -0.30381282 0.14927650
v 0.12708869 -0.33540292 0.15364825
v 0.21996050 -0.32665375 0.16160597
v 0.19989513 -0.33133381 0.16165453
v 0.20037060 -0.33666182 0.16189350
v 0.20814180 -0.33843307 0.16213782
v 0.23496833 -0.32638782 0.16131566
v 0.10298121 -0.32007303 0.14785878
v 0.11072158 -0.34719052 0.15050161
v 0.17165388 -0.34653828 0.15999481
v 0.10314834 -0.34127435 0.14882109
v 0.15310600 -0.34015501 0.15796700
v 0.13672975 -0.34355359 0.15557959
v 0.24157220 -0.31247393 0.15926175
v 0.10978341 -0.32171462 0.14845680
v 0.15290165 -0.35489984 0.15693142
v 0.21755940 -0.33557404 0.16202514
v 0.08395376 -0.32469237 0.14585395
v 0.10505659 -0.31284427 0.14785544
v 0.11933626 -0.30907747 0.14967703
v 0.25530645 -0.29932666 0.15535168
v 0.17725973 -0.29120147 0.15185884
v 0.16217645 -0.29589161 0.15205667
v 0.26651222 -0.29733109 0.15335986
v 0.25166123 -0.31155758 0.15845937
v 0.23813293 -0.33377668 0.16080215
v 0.19545848 -0.34625058 0.16149968
v 0.27029888 -0.30518734 0.15412485
v 0.25933612 -0.28665408 0.15063118
v 0.25996342 -0.32099442 0.15784827
v 0.08093793 -0.33130578 0.14292500
v 0.26412687 -0.29086790 0.15107244
v 0.24124408 -0.33910708 0.15970774
v 0.24930496 -0.32950209 0.15953397
v 0.27262879 -0.29578180 0.15148144
v 0.22623943 -0.34412225 0.16072971
v 0.20119540 -0.35520637 0.15959058
v 0.27402404 -0.28557763 0.14821769
v 0.27259043 -0.28368990 0.14670008
v 0.26733104 -0.31835518 0.15632033
v 0.26380500 -0.26062750 0.13072125
v 0.26588531 -0.26993459 0.13080975
v 0.26365200 -0.26588199 0.13066800
v 0.26150588 -0.27483082 0.13213969
v 0.25568313 -0.27290911 0.13341903
v 0.24418925 -0.26757000 0.13509950
v 0.25028324 -0.27183292 0.13459219
v 0.22699900 -0.27372350 0.13759224
v 0.20197880 -0.28424236 0.15040851
v 0.21331525 -0.27527950 0.13851250
v 0.21802162 -0.27604074 0.13869937
v 0.22773832 -0.28175736 0.15047849
v 0.21738600 -0.27291450 0.13827101
v 0.19341405 -0.28046669 0.13931813
v 0.17922474 -0.28410457 0.13928456
v 0.16689941 -0.28723036 0.13908942
v 0.18012600 -0.27970001 0.13956000
v 0.27521328 -0.27442776 0.14154439
v 0.15662250 -0.28494349 0.13935051
v 0.13434685 -0.29700256 0.13765054
v 0.14591112 -0.29353136 0.13835369
v 0.11242510 -0.30403484 0.13598023
v 0.12188676 -0.30103360 0.13681208
v 0.15017601 -0.28360551 0.13946901
v 0.11419659 -0.29148711 0.13787061
v 0.09546025 -0.29490976 0.13538200
v 0.08853529 -0.29962445 0.13560266
v 0.12886900 -0.28653601 0.13861801
v 0.09243800 -0.29480450 0.13444549
v 0.07937612 -0.30309559 0.13441426
v 0.05554713 -0.31349964 0.13102624
v 0.06324832 -0.29814137 0.12550431
v 0.05650821 -0.29496380 0.12166979
v 0.08010500 -0.29631200 0.13108200
v 0.05225336 -0.30934384 0.12844329
v 0.05230191 -0.31947070 0.12985978
v 0.23392613 -0.27379792 0.13742777
v 0.13917821 -0.29986475 0.14855367
v 0.18392093 -0.28827331 0.15087100
v 0.19010424 -0.28150942 0.13961115
v 0.15880804 -0.28969923 0.13890065
v 0.26686493 -0.29089304 0.15065090
v 0.10971622 -0.30526994 0.13590979
v 0.24975014 -0.27793209 0.14706005
v 0.07190864 -0.31750989 0.13169734
v 0.09353471 -0.31574070 0.14605951
v 0.10615398 -0.30587574 0.13536296
v 0.24476436 -0.27671686 0.14554106
v 0.26798037 -0.25955358 0.13214613
v 0.08766082 -0.31206079 0.13327312
v 0.07827262 -0.31562122 0.13210715
v 0.06477965 -0.32068183 0.13005243
v 0.06120143 -0.32324693 0.12938834
v 0.09487632 -0.31030590 0.13492453
v 0.09870196 -0.30863290 0.13464596
v 0.26734128 -0.28656279 0.14594458
v 0.26622674 -0.27743146 0.13404685
v 0.22489467 -0.27902369 0.14761064
v 0.13941493 -0.29571961 0.13833807
v 0.26600903 -0.27557784 0.13221120
v 0.26658371 -0.28066871 0.13800213
v 0.26586408 -0.28432229 0.14346151
v 0.24748755 -0.27604196 0.14382005
v 0.25952115 -0.28209683 0.14652196
v 0.15306268 -0.29153463 0.13864396
v 0.12570270 -0.30262297 0.14484866
v 0.20624180 -0.27793131 0.13892156
v 0.27366646 -0.26981920 0.13747095
v 0.07456438 -0.32160635 0.14210872
v 0.24524028 -0.27274023 0.13581513
v 0.16397297 -0.28979311 0.14263566
v 0.15275612 -0.29343848 0.14336039
v 0.21097941 -0.27878520 0.14327646
v 0.17220494 -0.28845378 0.14468405
v 0.22394444 -0.27554456 0.13930009
v 0.07673550 -0.31928238 0.14031774
v 0.25588943 -0.27617957 0.14082809
v 0.25642632 -0.27866109 0.14505760
v 0.23112449 -0.24836000 0.11423200
v 0.22092700 -0.24989150 0.11521400
v 0.20446800 -0.25164801 0.11628800
v 0.11502800 -0.23821400 0.10517900
v 0.09800100 -0.24438875 0.10724875
v 0.08425100 -0.24855449 0.10963350
v 0.13565100 -0.23021575 0.10296350
v 0.06550544 -0.25696194 0.11217269
v 0.06854875 -0.25505175 0.11224175
v 0.14992100 -0.24268700 0.10418000
v 0.15868200 -0.24717499 0.10712900
v 0.17512450 -0.25158651 0.11213150
v 0.16890875 -0.25057801 0.11036375
v 0.19283400 -0.25198600 0.11593900
v 0.18237443 -0.25213476 0.11497072
v 0.06106700 -0.26218101 0.11176200
v 0.07990241 -0.25329893 0.10940636
v 0.10559419 -0.24581802 0.10605384
v 0.11892665 -0.24157450 0.10441306
v 0.09355881 -0.24938599 0.10763096
v 0.07729814 -0.26429809 0.11214020
v 0.09122547 -0.25638102 0.10987924
v 0.12471462 -0.25231468 0.10930912
v 0.09226930 -0.26224168 0.11266125
v 0.07499091 -0.27404526 0.11647748
v 0.10585114 -0.26360709 0.11499440
v 0.09161549 -0.28508115 0.12638620
v 0.26377525 -0.25325924 0.12822600
v 0.22974441 -0.25393695 0.12494429
v 0.21587604 -0.26112020 0.13350203
v 0.17470327 -0.25956224 0.12186084
v 0.19232775 -0.25885314 0.12477000
v 0.17565805 -0.25509296 0.11588289
v 0.17280109 -0.26568850 0.13014343
v 0.22686746 -0.25876073 0.13193148
v 0.19898567 -0.26347697 0.13335464
v 0.13985727 -0.26836379 0.12509995
v 0.15077245 -0.26377648 0.12217540
v 0.17124606 -0.26994075 0.13524758
v 0.19019819 -0.26929220 0.13841149
v 0.15376535 -0.25867282 0.11699272
v 0.25241888 -0.25244904 0.12669915
v 0.23591085 -0.25882677 0.13292107
v 0.12229576 -0.27181026 0.12453948
v 0.15005041 -0.25504627 0.11291098
v 0.12338385 -0.28088093 0.13299219
v 0.10904204 -0.26567522 0.11710807
v 0.14508700 -0.25355399 0.11115100
v 0.15807905 -0.27620598 0.13857103
v 0.22147387 -0.26269240 0.13585988
v 0.23840274 -0.26143547 0.13496692
v 0.10755029 -0.27635624 0.12458018
v 0.09486862 -0.28841093 0.13004807
v 0.12682209 -0.25472410 0.11087018
v 0.14548978 -0.28029013 0.13902226
v 0.24554300 -0.24910150 0.11856400
v 0.25907549 -0.25214401 0.12706101
v 0.16635858 -0.27574600 0.13977334
v 0.20247327 -0.27058126 0.13927865
v 0.22481427 -0.26585769 0.13741811
v 0.20777020 -0.26703000 0.13795708
v 0.25904355 -0.25979353 0.13028634
v 0.25497401 -0.25688123 0.13016123
v 0.22746298 -0.26321161 0.13613812
v 0.25310707 -0.25423824 0.12903273
f 207 191 208
f 200 207 208
f 191 23 208
f 191 20 23
f 191 19 20
f 200 191 207
f 200 186 191
f 200 185 186
f 182 185 200
f 200 206 182
f 182 206 205
f 210 182 205
f 202 182 210
f 198 202 210
f 177 202 198
f 177 182 202
f 182 177 180
f 180 181 182
f 181 185 182
f 181 184 185
f 189 185 184
f 18 185 189
f 185 18 187
f 187 190 185
f 187 188 190
f 188 22 190
f 188 21 22
f 188 18 21
f 18 22 21
f 185 190 186
f 186 190 191
f 18 188 187
f 178 180 177
f 175 180 178
f 176 180 175
f 220 180 176
f 183 180 220
f 174 183 220
f 174 220 196
f 171 174 196
f 170 174 171
f 172 174 170
f 169 172 170
f 165 172 169
f 165 169 222
f 165 222 166
f 163 165 166
f 163 166 192
f 225 163 192
f 203 225 192
f 225 203 218
f 218 199 225
f 162 225 199
f 199 232 162
f 233 232 199
f 233 159 232
f 233 216 159
f 217 216 233
f 217 233 219
f 219 233 144
f 144 217 219
f 211 217 144
f 211 144 197
f 216 217 211
f 216 212 159
f 212 215 159
f 233 199 144
f 199 95 144
f 199 167 95
f 203 167 199
f 203 213 167
f 167 213 91
f 213 164 91
f 213 228 164
f 228 213 230
f 230 222 228
f 166 222 230
f 192 166 230
f 169 228 222
f 169 195 228
f 195 169 170
f 195 170 171
f 195 171 229
f 195 229 194
f 229 226 194
f 194 226 193
f 227 193 226
f 226 220 227
f 227 220 176
f 227 176 214
f 176 175 214
f 214 175 193
f 193 175 221
f 193 221 116
f 116 221 231
f 221 210 231
f 210 209 231
f 209 205 231
f 231 205 206
f 206 200 231
f 200 208 231
f 231 208 23
f 231 23 2
f 224 231 2
f 231 224 201
f 224 2 201
f 201 2 115
f 201 115 134
f 201 134 116
f 135 116 134
f 116 135 107
f 107 135 109
f 109 135 104
f 104 135 130
f 135 123 130
f 135 134 123
f 123 146 130
f 146 113 130
f 113 146 126
f 146 8 126
f 8 146 9
f 146 7 9
f 5 7 146
f 8 6 126
f 126 6 56
f 126 56 124
f 102 126 124
f 117 102 124
f 117 124 128
f 128 124 62
f 128 62 61
f 128 61 131
f 127 128 131
f 125 127 131
f 125 131 58
f 131 64 58
f 55 125 58
f 142 125 55
f 121 125 142
f 132 121 142
f 151 132 142
f 151 142 152
f 151 152 54
f 54 152 50
f 152 55 50
f 54 50 42
f 67 54 42
f 42 52 67
f 46 52 42
f 46 53 52
f 71 53 46
f 49 71 46
f 48 49 46
f 65 48 46
f 47 48 65
f 47 65 66
f 66 65 69
f 11 66 69
f 15 66 11
f 15 63 66
f 15 12 63
f 63 12 47
f 12 155 47
f 155 48 47
f 155 70 48
f 155 145 70
f 155 122 145
f 155 140 122
f 143 140 155
f 143 155 17
f 16 143 17
f 16 150 143
f 150 139 143
f 153 139 150
f 153 197 139
f 153 154 197
f 154 211 197
f 154 216 211
f 212 216 154
f 173 212 154
f 173 215 212
f 223 215 173
f 223 14 215
f 14 223 10
f 14 157 215
f 204 157 14
f 204 156 157
f 157 156 158
f 158 162 157
f 161 162 158
f 161 225 162
f 163 225 161
f 158 295 161
f 295 284 161
f 295 296 284
f 295 298 296
f 296 298 284
f 275 284 298
f 298 261 275
f 261 290 275
f 275 276 284
f 284 276 283
f 284 283 297
f 284 297 293
f 293 297 292
f 293 292 168
f 168 161 293
f 168 292 179
f 292 291 179
f 273 291 292
f 294 273 292
f 283 294 292
f 283 273 294
f 263 273 283
f 268 263 283
f 262 263 268
f 275 262 268
f 275 235 262
f 290 235 275
f 290 289 235
f 289 234 235
f 262 235 236
f 262 236 263
f 236 265 263
f 263 265 264
f 247 264 265
f 266 264 247
f 266 246 264
f 266 245 246
f 248 245 266
f 264 246 271
f 267 264 271
f 267 271 272
f 271 270 272
f 272 270 282
f 272 282 291
f 282 288 291
f 270 288 282
f 270 279 288
f 288 279 180
f 279 277 180
f 180 277 286
f 277 260 286
f 184 286 260
f 184 260 18
f 260 258 18
f 258 260 280
f 280 260 285
f 277 280 285
f 278 280 277
f 280 278 287
f 287 259 280
f 287 257 259
f 256 257 287
f 244 256 287
f 287 281 244
f 244 281 278
f 244 278 246
f 278 274 246
f 278 271 274
f 244 243 256
f 243 255 256
f 255 243 251
f 251 238 255
f 237 238 251
f 237 251 252
f 240 237 252
f 252 243 240
f 252 251 243
f 256 255 257
f 255 254 257
f 257 254 258
f 254 24 258
f 249 24 254
f 255 249 254
f 253 249 255
f 238 253 255
f 253 250 249
f 253 239 250
f 238 239 253
f 239 242 250
f 250 242 249
f 242 241 249
f 257 258 259
f 281 287 278
f 271 278 277
f 259 258 280
f 258 24 18
f 285 260 277
f 180 286 184
f 270 277 279
f 270 271 277
f 269 267 272
f 269 272 273
f 269 264 267
f 246 274 271
f 248 266 247
f 263 264 269
f 247 265 236
f 263 269 273
f 273 272 291
f 291 288 179
f 288 180 179
f 297 283 292
f 276 268 283
f 276 275 268
f 293 161 284
f 158 261 295
f 261 298 295
f 157 162 160
f 160 159 157
f 159 160 162
f 157 159 215
f 13 204 14
f 13 156 204
f 10 223 173
f 173 154 10
f 10 154 153
f 147 139 197
f 197 144 147
f 147 144 139
f 139 144 136
f 144 96 136
f 136 96 140
f 96 129 140
f 96 110 129
f 110 108 129
f 129 108 122
f 122 108 118
f 122 118 119
f 122 119 120
f 122 120 121
f 119 125 120
f 119 111 125
f 111 101 125
f 101 114 125
f 101 106 114
f 106 102 114
f 102 112 114
f 114 112 128
f 106 103 102
f 106 104 103
f 107 104 106
f 107 106 97
f 99 107 97
f 138 107 99
f 138 193 107
f 97 138 99
f 91 138 97
f 91 137 138
f 194 137 91
f 194 138 137
f 91 97 94
f 94 97 92
f 98 92 97
f 98 97 101
f 100 98 101
f 100 101 105
f 92 100 105
f 93 92 105
f 96 93 105
f 96 95 93
f 95 92 93
f 95 91 92
f 92 98 100
f 91 94 92
f 103 130 102
f 97 106 101
f 105 101 111
f 105 111 119
f 108 105 119
f 118 108 119
f 110 105 108
f 96 105 110
f 139 136 140
f 16 153 150
f 10 153 16
f 139 140 143
f 129 122 140
f 145 122 149
f 149 122 141
f 149 141 148
f 71 149 148
f 70 149 71
f 49 70 71
f 71 148 53
f 53 148 151
f 53 151 52
f 52 151 67
f 141 151 148
f 122 132 141
f 145 149 70
f 70 49 48
f 17 155 12
f 65 74 69
f 74 65 68
f 68 72 74
f 72 75 74
f 72 73 75
f 75 73 28
f 33 28 73
f 34 33 73
f 34 36 33
f 34 42 36
f 36 42 35
f 35 42 29
f 42 43 29
f 43 37 29
f 37 43 32
f 32 43 38
f 43 39 38
f 45 39 43
f 43 55 45
f 55 59 45
f 55 58 59
f 64 59 58
f 64 60 59
f 64 61 60
f 61 62 60
f 62 51 60
f 60 51 44
f 57 60 44
f 60 57 59
f 59 40 45
f 59 41 40
f 59 57 41
f 57 44 41
f 41 44 76
f 51 76 44
f 51 4 76
f 77 76 4
f 26 77 4
f 41 77 26
f 78 41 26
f 79 41 78
f 79 78 80
f 85 79 80
f 80 25 85
f 80 81 25
f 80 78 81
f 82 79 85
f 83 82 85
f 83 85 84
f 84 85 86
f 88 83 84
f 87 88 84
f 30 88 87
f 30 89 88
f 89 82 88
f 32 82 89
f 32 38 82
f 40 82 38
f 32 89 30
f 30 87 90
f 30 90 31
f 31 90 27
f 29 31 27
f 29 27 28
f 31 37 30
f 88 82 83
f 40 79 82
f 40 41 79
f 4 3 26
f 51 56 4
f 56 6 4
f 76 77 41
f 50 55 43
f 45 40 39
f 38 39 40
f 37 32 30
f 29 37 31
f 35 29 33
f 36 35 33
f 33 29 28
f 72 34 73
f 68 34 72
f 68 46 34
f 63 47 66
f 65 46 68
f 46 42 34
f 42 50 43
f 151 54 67
f 141 132 151
f 122 121 132
f 120 125 121
f 142 55 152
f 114 127 125
f 127 114 128
f 131 61 64
f 124 51 62
f 112 117 128
f 102 117 112
f 124 56 51
f 113 126 102
f 102 130 113
f 133 146 123
f 133 5 146
f 104 130 103
f 107 109 104
f 134 115 123
f 115 5 123
f 5 133 123
f 2 5 115
f 2 23 1
f 209 210 205
f 221 198 210
f 221 177 198
f 178 177 221
f 116 231 201
f 193 116 107
f 175 178 221
f 226 196 220
f 226 171 196
f 227 214 193
f 194 193 138
f 164 195 194
f 229 171 226
f 192 230 213
f 228 195 164
f 164 194 91
f 95 167 91
f 144 95 96
f 232 159 162
f 218 203 199
f 192 213 203

