# https://github.com/mikedh/trimesh
v -0.15438300 0.13678400 -0.08622400
v -0.15496000 0.13272150 -0.08807600
v -0.14789800 0.14617801 -0.07882600
v -0.14505800 0.14851000 -0.07852575
v -0.15255057 0.13941117 -0.08325124
v -0.13456750 0.15685650 -0.07418650
v -0.16263427 0.16668727 -0.08035182
v -0.16379200 0.17919525 -0.07868100
v -0.17834058 0.18240078 -0.08402076
v -0.17973643 0.17884952 -0.08571304
v -0.17524000 0.19494601 -0.08045500
v -0.17993200 0.19924900 -0.08196700
v -0.18985259 0.18293057 -0.09177653
v -0.19337000 0.18080400 -0.09607900
v -0.20221500 0.21856531 -0.09527169
v -0.15603333 0.14346386 -0.08432049
v -0.15846000 0.14013150 -0.08678050
v -0.16367801 0.14330401 -0.08824600
v -0.16370912 0.15645575 -0.08366013
v -0.17237665 0.15750518 -0.08774568
v -0.17287150 0.15440450 -0.08945000
v -0.18014913 0.16006300 -0.09258862
v -0.18426903 0.19110260 -0.08554396
v -0.19795799 0.21935999 -0.08975400
v -0.19831291 0.20383424 -0.09314189
v -0.20211988 0.21149550 -0.09521050
v -0.19425750 0.20052449 -0.09059000
v -0.19932561 0.21558604 -0.09138075
v -0.18562262 0.17094675 -0.09277488
v -0.18466900 0.20362900 -0.08374500
v -0.19489012 0.19394062 -0.09294500
v -0.17758350 0.17229450 -0.08645850
v -0.17114300 0.16740276 -0.08411900
v -0.18847650 0.20664800 -0.08545800
v -0.16654840 0.16128738 -0.08342305
v -0.19704900 0.29190500 -0.08771725
v -0.20223100 0.26143101 -0.08968900
v -0.20607625 0.30216100 -0.09694075
v -0.20273399 0.31224501 -0.09535000
v -0.21172775 0.27310250 -0.10020625
v -0.21614301 0.25330550 -0.10919850
v -0.21365200 0.26710701 -0.10287800
v -0.21507899 0.26614800 -0.10581850
v -0.19607900 0.31349099 -0.08967700
v -0.19728450 0.32579301 -0.09340400
v -0.21067700 0.20171501 -0.12128400
v -0.20676000 0.18876650 -0.12276500
v -0.21554200 0.22468100 -0.11983900
v -0.21456400 0.23104100 -0.11004450
v -0.20325899 0.17992550 -0.12763250
v -0.19699400 0.16784250 -0.13220899
v -0.15587856 0.12248525 -0.09397712
v -0.13384999 0.08900400 -0.11530600
v -0.15225095 0.10660369 -0.10863559
v -0.16216150 0.11501850 -0.11179100
v -0.15602501 0.11009800 -0.10893200
v -0.16843200 0.12150200 -0.11320000
v -0.17249050 0.12541350 -0.11749400
v -0.17460051 0.12765650 -0.12214450
v -0.18611903 0.14392552 -0.12463004
v -0.17904200 0.13381000 -0.12570199
v -0.18010598 0.13549286 -0.11871203
v -0.18188500 0.13795400 -0.12621900
v -0.19625876 0.16318257 -0.12716331
v -0.17498260 0.13413169 -0.10423110
v -0.18774051 0.14781600 -0.12819300
v -0.19148800 0.15580900 -0.13104700
v -0.16904494 0.12726722 -0.10406056
v -0.16062762 0.11611356 -0.10592341
v -0.19650998 0.16878835 -0.10866304
v -0.19922894 0.18322922 -0.10234197
v -0.20263948 0.18112907 -0.11245817
v -0.20346486 0.20155989 -0.09975505
v -0.20361096 0.18833693 -0.10717103
v -0.20773723 0.20375342 -0.10642001
v -0.20744470 0.19499941 -0.11209066
v -0.19408902 0.16887558 -0.10298581
v -0.21003025 0.22462892 -0.10100439
v -0.18673806 0.16356110 -0.09692320
v -0.18491961 0.15575687 -0.09950411
v -0.17449596 0.14534460 -0.09477363
v -0.17442975 0.13962307 -0.09868172
v -0.16650760 0.14270775 -0.09017553
v -0.20386299 0.25847000 -0.09104100
v -0.20249069 0.29013343 -0.09130666
v -0.20612526 0.25628725 -0.09264870
v -0.21462283 0.22298053 -0.11472165
v -0.21147946 0.20808128 -0.11440087
v -0.19808770 0.16726560 -0.11843307
v -0.20222807 0.17595566 -0.12486308
v -0.18938300 0.15006152 -0.11814856
v -0.18621173 0.14702877 -0.11115316
v -0.18547279 0.14804755 -0.10819958
v -0.17762223 0.13439681 -0.11020936
v -0.21405186 0.26171996 -0.10282650
v -0.16384547 0.12344325 -0.10094413
v -0.16801312 0.13132727 -0.09848063
v -0.20829700 0.26932800 -0.09544900
v -0.16427938 0.13601960 -0.09213775
v -0.16491325 0.13288461 -0.09450970
v -0.20844696 0.27792480 -0.09585000
v -0.20355806 0.30149222 -0.09363626
f 28 26 25
f 24 26 28
f 34 24 28
f 34 28 23
f 30 34 23
f 12 30 23
f 12 23 11
f 11 23 8
f 8 23 9
f 9 23 10
f 10 23 13
f 23 31 13
f 23 27 31
f 27 25 31
f 31 14 13
f 13 14 29
f 10 13 29
f 10 29 32
f 32 29 20
f 33 32 20
f 35 33 20
f 7 33 35
f 7 35 3
f 3 35 19
f 3 19 16
f 19 20 16
f 16 20 1
f 20 21 1
f 16 1 5
f 1 2 5
f 1 17 2
f 17 18 2
f 18 83 2
f 18 22 83
f 22 81 83
f 83 81 100
f 99 83 100
f 2 99 100
f 2 100 52
f 52 100 96
f 100 97 96
f 97 82 96
f 81 82 97
f 81 65 82
f 81 80 65
f 79 80 81
f 79 77 80
f 80 77 65
f 77 94 65
f 94 57 65
f 94 58 57
f 62 58 94
f 92 62 94
f 93 92 94
f 94 77 93
f 77 92 93
f 70 92 77
f 70 91 92
f 70 89 91
f 89 60 91
f 91 60 62
f 62 60 59
f 60 61 59
f 60 63 61
f 60 66 63
f 60 64 66
f 64 67 66
f 51 67 64
f 64 90 51
f 90 64 89
f 89 72 90
f 76 90 72
f 76 47 90
f 90 47 50
f 76 46 47
f 88 46 76
f 78 88 76
f 49 88 78
f 49 87 88
f 49 48 87
f 87 48 46
f 95 49 78
f 86 95 78
f 98 95 86
f 98 101 95
f 101 40 95
f 102 40 101
f 102 101 85
f 102 85 36
f 44 102 36
f 45 102 44
f 45 39 102
f 39 38 102
f 36 85 86
f 36 86 37
f 37 86 84
f 84 86 15
f 37 84 15
f 85 101 86
f 38 40 102
f 40 42 95
f 42 43 95
f 43 41 95
f 86 101 98
f 15 86 78
f 15 78 73
f 73 78 74
f 78 75 74
f 74 75 76
f 73 74 71
f 71 74 70
f 74 72 70
f 73 71 77
f 15 73 77
f 15 77 22
f 95 41 49
f 78 76 75
f 87 46 88
f 74 76 72
f 50 51 90
f 64 60 89
f 72 89 70
f 71 70 77
f 92 91 62
f 62 59 58
f 57 55 65
f 65 55 69
f 68 65 69
f 68 69 96
f 96 65 68
f 69 55 56
f 69 56 54
f 56 53 54
f 82 65 96
f 52 96 69
f 52 69 53
f 100 81 97
f 22 79 81
f 83 99 2
f 3 16 5
f 7 3 4
f 6 7 4
f 6 8 7
f 9 33 7
f 35 20 19
f 20 29 21
f 10 32 33
f 9 10 33
f 8 9 7
f 23 28 27
f 28 25 27
f 26 31 25

