# https://github.com/mikedh/trimesh
v 0.01914900 -0.09757900 0.06721400
v 0.03686660 -0.11037393 0.05898706
v 0.01036825 -0.08669150 0.07187900
v 0.01777525 -0.09374350 0.07021625
v 0.04543800 -0.11245400 0.05812700
v 0.00890950 -0.07776300 0.07424750
v 0.11132772 -0.00169596 0.05730314
v 0.11173900 -0.05365700 0.05477400
v 0.09057634 0.06545021 0.04494498
v 0.09389400 0.02032800 0.05618800
v 0.09240800 0.04303600 0.05094700
v 0.09215350 0.05822550 0.04768850
v 0.09450875 -0.01884550 0.06210325
v 0.09378600 0.01695100 0.05660050
v 0.08842900 0.10065100 0.03322200
v 0.08482762 0.12324800 0.02234025
v 0.09006850 0.07576000 0.04193250
v 0.09243800 0.05338000 0.04896600
v 0.08346700 0.13099100 0.01841900
v 0.08349227 -0.06770738 0.06208861
v 0.09098375 -0.05488275 0.06439950
v 0.06873700 0.16708500 -0.00783050
v 0.11392900 0.06057400 0.04549900
v 0.11637700 0.03770400 0.04739800
v 0.04058700 -0.08372000 0.07073000
v 0.05916300 -0.08349900 0.06909750
v 0.07703700 -0.07575825 0.06554875
v 0.01495250 -0.07635750 0.07393950
v 0.08460680 -0.09754014 0.05812770
v 0.08296778 -0.10202806 0.05409126
v 0.07728924 -0.10549049 0.05449186
v 0.08987478 -0.08954362 0.06093135
v 0.10312530 -0.08134581 0.05337438
v 0.10218600 -0.07357925 0.05863012
v 0.09301811 -0.09298759 0.05317857
v 0.07747258 -0.10299741 0.05764602
v 0.09715048 -0.08350015 0.05838540
v 0.07212742 -0.10270173 0.06175576
v 0.06481100 -0.11091000 0.05587100
v 0.06493850 -0.10802800 0.05943200
v 0.09325695 -0.08687609 0.06033763
v 0.07576066 -0.09810618 0.06271538
v 0.05400100 -0.10699700 0.06379800
v 0.10022848 -0.07546567 0.05982687
v 0.09580237 -0.07273468 0.06291507
v 0.09032603 -0.09551102 0.05345724
v 0.08248128 -0.08348866 0.06561273
v 0.10847175 -0.05680200 0.05886625
v 0.10879886 -0.05083964 0.05987124
v 0.11041800 -0.04758800 0.05902700
v 0.10051005 -0.05429713 0.06243552
v 0.11223248 -0.02117321 0.05881754
v 0.11248975 -0.02870825 0.05844525
v 0.11096953 -0.01311890 0.05865622
v 0.11033020 0.00921466 0.05575442
v 0.10667500 -0.07093300 0.05362500
v 0.10908400 -0.06454450 0.05387525
v 0.05727600 -0.11316400 0.05728300
v 0.11440954 0.02932861 0.05211951
v 0.11093774 0.05421581 0.04815590
v 0.11351845 0.05430766 0.04597823
v 0.12083550 0.14726100 0.00882850
v 0.03686650 -0.10550800 0.06552275
v 0.03165924 -0.10006642 0.06907138
v 0.03439777 -0.10465627 0.06642774
v 0.04708300 -0.10698400 0.06477600
v 0.05127625 -0.10674350 0.06428625
v 0.02861594 -0.09896769 0.06938265
v 0.04529158 -0.10453353 0.06643224
v 0.04969110 -0.09886193 0.06803765
v 0.02058418 -0.09085505 0.07184709
v 0.04748642 -0.08773690 0.07147291
v 0.07032804 -0.09381630 0.06627080
v 0.07184969 -0.08362020 0.06861280
v 0.06455207 -0.08416737 0.06939374
v 0.08127632 -0.07527700 0.06706628
v 0.09065511 -0.06441901 0.06509988
v 0.08678246 -0.06918887 0.06620954
v 0.09737257 -0.04036841 0.06363202
v 0.02355392 -0.08093687 0.07360364
v 0.09559386 -0.02316314 0.06308152
v 0.10355052 -0.02480739 0.06123223
v 0.10416753 -0.01239219 0.05993455
v 0.09613810 0.00131370 0.06014984
v 0.09560719 0.01276790 0.05823284
v 0.09548978 0.02340446 0.05639122
v 0.07322328 -0.08069315 0.06835489
v 0.10722463 0.01661258 0.05489904
v 0.10437100 0.02444100 0.05381100
v 0.10317015 0.07502064 0.04109878
v 0.09365354 0.06095732 0.04760926
v 0.09880681 0.01852863 0.05661643
v 0.09606326 0.07654511 0.04227935
v 0.10601749 0.03768165 0.05029410
v 0.11008544 0.03365028 0.05161876
v 0.10457536 0.05517533 0.04625353
v 0.10105810 0.03934218 0.05201659
v 0.09283474 0.08442590 0.04020547
v 0.09395529 0.03182630 0.05409867
v 0.10312103 0.04613207 0.04907840
v 0.10188431 0.09201421 0.03473200
v 0.10029832 0.10906189 0.02713559
v 0.09047256 0.11654859 0.02657600
v 0.10179965 0.10389936 0.02949805
v 0.10053923 0.11810871 0.02230065
v 0.10280558 0.11517933 0.02406222
v 0.11011197 0.05811178 0.04732762
v 0.10140843 0.13272216 0.01314119
v 0.11174235 0.01192223 0.05442360
v 0.10549660 0.07445205 0.04230824
v 0.11026643 0.08873314 0.04091419
v 0.11028832 0.09955681 0.03765540
v 0.10987199 0.10472850 0.03535614
v 0.10264921 0.12557816 0.01751347
v 0.11287629 0.11541225 0.03185698
v 0.08004969 0.15621738 0.00263882
v 0.06955113 0.17536663 -0.01195351
v 0.10728300 0.09027900 0.03905800
v 0.07072833 0.17264390 -0.00993459
v 0.11495384 0.12498963 0.02741191
v 0.07739529 0.15726194 0.00201796
v 0.10242975 0.09465881 0.03374830
v 0.10410200 0.10704400 0.02939100
v 0.08424952 0.13966146 0.01383279
v 0.10409812 0.10283331 0.03150876
v 0.09390400 0.11722400 0.02523200
v 0.11737222 0.13678091 0.01968579
v 0.10581944 0.13602500 0.01132848
v 0.10083747 0.13997142 0.00800624
v 0.09974665 0.14859499 0.00101955
v 0.10517607 0.13895950 0.00847253
v 0.10573000 0.16125400 -0.01453600
v 0.07377152 0.18365570 -0.01234908
v 0.11562900 0.15025200 0.00417150
v 0.09086815 0.13542049 0.01527718
v 0.08936252 0.12706141 0.02122178
v 0.08213263 0.14463461 0.01092909
v 0.10249335 0.15338153 -0.00473416
v 0.10722100 0.15113100 -0.00185500
v 0.11585600 0.15208299 0.00218500
v 0.07556644 0.16834182 -0.00662040
v 0.08568910 0.16675748 -0.01079880
v 0.09767150 0.16226200 -0.01163800
v 0.09087150 0.16431699 -0.01020700
v 0.11570835 0.01077889 0.05658932
v 0.11173907 0.02890331 0.05273617
v 0.11244954 0.04104403 0.05030879
v 0.10951217 0.07803193 0.04357884
v 0.11238450 0.10595560 0.03542469
v 0.11498551 0.11937815 0.03020526
v 0.05271958 -0.11280966 0.05760879
v 0.04797541 -0.11046425 0.06218891
f 67 65 63
f 69 65 67
f 69 67 38
f 73 69 38
f 70 69 73
f 72 70 73
f 26 72 73
f 75 26 73
f 74 75 73
f 87 75 74
f 75 87 26
f 26 87 27
f 27 87 76
f 20 27 76
f 78 20 76
f 21 20 78
f 76 87 74
f 76 74 47
f 78 76 47
f 45 78 47
f 45 77 78
f 21 78 77
f 51 21 77
f 79 21 51
f 49 79 51
f 52 79 49
f 82 79 52
f 79 82 81
f 83 81 82
f 83 82 54
f 7 83 54
f 55 83 7
f 55 88 83
f 84 83 88
f 92 84 88
f 89 92 88
f 89 86 92
f 86 85 92
f 94 86 89
f 94 89 95
f 107 94 95
f 60 107 95
f 23 107 60
f 60 61 23
f 24 61 60
f 60 147 24
f 147 59 24
f 60 95 147
f 59 147 95
f 59 95 146
f 95 88 146
f 146 88 109
f 146 145 59
f 94 97 86
f 100 97 94
f 96 97 100
f 110 97 96
f 96 100 94
f 23 96 94
f 23 110 96
f 148 110 23
f 111 110 148
f 111 101 110
f 101 90 110
f 110 90 97
f 97 11 86
f 97 91 11
f 97 90 91
f 90 93 91
f 93 98 91
f 91 98 9
f 98 17 9
f 98 15 17
f 91 9 12
f 91 12 18
f 90 98 93
f 101 98 90
f 15 98 101
f 102 15 101
f 104 102 101
f 106 102 104
f 106 104 122
f 106 105 102
f 114 105 106
f 105 114 15
f 104 101 122
f 118 122 101
f 112 122 118
f 112 125 122
f 125 123 122
f 113 123 125
f 113 106 123
f 106 113 115
f 149 115 113
f 150 115 149
f 150 120 115
f 113 112 149
f 115 120 106
f 114 106 120
f 120 127 114
f 127 128 114
f 131 128 127
f 127 139 131
f 139 108 131
f 139 129 108
f 130 129 139
f 139 138 130
f 139 132 138
f 130 138 132
f 132 116 130
f 116 132 143
f 116 143 144
f 116 144 142
f 142 141 116
f 142 133 141
f 141 121 116
f 141 119 121
f 141 117 119
f 119 117 22
f 119 22 121
f 22 19 121
f 121 19 137
f 19 124 137
f 137 124 135
f 137 135 130
f 16 135 124
f 136 135 16
f 136 16 103
f 136 103 114
f 114 135 136
f 108 135 114
f 114 103 126
f 114 126 15
f 126 103 15
f 103 16 15
f 124 19 16
f 137 116 121
f 116 137 130
f 130 135 129
f 129 135 108
f 131 108 114
f 127 134 139
f 140 139 134
f 62 134 127
f 131 114 128
f 123 106 122
f 113 125 112
f 111 112 118
f 105 15 102
f 91 18 11
f 11 99 86
f 88 95 89
f 92 85 84
f 109 88 55
f 109 55 7
f 7 54 52
f 84 81 83
f 54 82 52
f 52 49 53
f 53 49 50
f 49 51 45
f 49 45 44
f 34 49 44
f 44 41 34
f 34 41 37
f 37 41 33
f 41 35 33
f 41 32 35
f 32 29 35
f 35 29 46
f 46 29 30
f 29 31 30
f 29 36 31
f 31 36 39
f 36 38 39
f 38 40 39
f 40 152 39
f 43 152 40
f 43 66 152
f 152 66 63
f 63 2 152
f 152 2 5
f 152 5 151
f 152 151 58
f 39 152 58
f 29 38 36
f 32 38 29
f 42 38 32
f 32 73 42
f 32 41 73
f 47 73 41
f 34 37 33
f 56 34 33
f 57 34 56
f 48 34 57
f 8 48 57
f 48 8 49
f 50 49 8
f 45 41 44
f 81 21 79
f 13 21 81
f 84 13 81
f 14 13 84
f 85 14 84
f 85 10 14
f 86 10 85
f 86 99 10
f 99 11 10
f 51 77 45
f 45 47 41
f 47 74 73
f 25 72 26
f 25 71 72
f 72 71 64
f 64 71 68
f 71 1 68
f 71 4 1
f 71 3 4
f 71 6 3
f 80 6 71
f 80 28 6
f 68 1 65
f 64 68 65
f 80 71 25
f 72 64 70
f 70 64 69
f 42 73 38
f 38 67 40
f 69 64 65

