# https://github.com/mikedh/trimesh
v 0.00587666 0.45991352 -0.00063966
v 0.01295000 0.45505199 -0.00185500
v 0.01362670 0.45708784 0.00151063
v 0.00209300 0.45685199 -0.00580300
v -0.00206576 0.45967547 -0.00294836
v 0.00706935 0.46054410 0.00398879
v 0.01109711 0.45956950 0.00411510
v -0.01821537 0.45882887 0.00607237
v -0.01598200 0.45911300 0.00112125
v -0.00797338 0.45756178 -0.00574520
v 0.01743825 0.45322913 0.00110488
v -0.01666000 0.45621899 -0.00471800
v 0.01731476 0.45638134 0.00535438
v 0.02206700 0.45041500 0.00532800
v 0.02612955 0.45012035 0.01477208
v 0.02325300 0.45309001 0.01362729
v 0.01825295 0.45667411 0.01187597
v 0.03073088 0.44292341 0.01787662
v 0.03321600 0.43785100 0.02373450
v 0.03088863 0.44410183 0.02555953
v 0.02885630 0.44648742 0.02562458
v 0.02646350 0.44739550 0.01063900
v 0.02943400 0.44472000 0.01410850
v 0.02969700 0.44055599 0.03414300
v 0.03295650 0.43761512 0.03161500
v 0.00343643 0.46004702 0.01351164
v -0.00721271 0.46131067 0.00945057
v -0.00626341 0.46037365 0.01322011
v 0.00256436 0.45837836 0.01918881
v 0.01622478 0.45690099 0.01492099
v 0.00754061 0.45508864 0.02548098
v 0.00963229 0.45657559 0.02120037
v 0.01359889 0.45525134 0.02213642
v -0.00871454 0.45798318 0.02099656
v -0.01337577 0.45828462 0.01853535
v -0.00215025 0.45365147 0.02926537
v 0.01209438 0.45127827 0.03022354
v -0.01193464 0.45441492 0.02715688
v -0.01955615 0.45548792 0.02219801
v -0.01441435 0.45127422 0.03153706
v 0.01042208 0.44987008 0.03312986
v -0.00464163 0.44928285 0.03554253
v -0.00345900 0.44557700 0.03961600
v 0.01886292 0.45111013 0.02725896
v 0.01467700 0.44430575 0.03791325
v -0.00679000 0.44396099 0.04126100
v -0.02302703 0.45254922 0.02643948
v -0.02316249 0.44875447 0.03191374
v -0.01511081 0.44803933 0.03584778
v -0.02694644 0.45337174 0.02192464
v -0.01724762 0.44237200 0.04109462
v -0.02962330 0.44703524 0.03077793
v 0.02304291 0.45214259 0.02123594
v 0.03072722 0.44293354 0.02973006
v -0.00901314 0.46115317 -0.00070259
v -0.01027046 0.46122463 0.00169051
v -0.01715787 0.45977821 0.00995590
v -0.02948000 0.45315400 0.01700450
v -0.03099000 0.45169100 0.01941400
v -0.03339350 0.44767812 0.02564587
v -0.03588200 0.44080600 0.03415200
v -0.02561400 0.44084999 0.04012200
v -0.04218101 0.42584492 0.03661041
v -0.04331000 0.42322499 0.03727900
v -0.04214100 0.42944125 0.03171225
v -0.04065400 0.43664399 0.02404700
v -0.03134975 0.44924150 0.00701350
v -0.03490550 0.44577950 0.01249800
v -0.03893159 0.44081049 0.02188132
v -0.02733322 0.45202742 0.00365607
v -0.03062088 0.45119145 0.00892351
v -0.03509564 0.44783567 0.02181063
v -0.02337046 0.45416788 0.00035039
v -0.02506492 0.45716839 0.00883281
v -0.03980885 0.43631580 0.03461323
v -0.02569250 0.45305200 0.00100850
v -0.03863975 0.42601362 0.04504875
v -0.04105269 0.43216776 0.03462090
v -0.04134614 0.42503825 0.04041907
f 63 79 77
f 79 63 64
f 77 79 64
f 63 65 64
f 78 65 63
f 78 66 65
f 78 75 66
f 61 66 75
f 61 72 66
f 72 69 66
f 72 68 69
f 72 71 68
f 71 72 74
f 59 74 72
f 59 72 60
f 74 70 71
f 74 73 70
f 74 9 73
f 9 74 8
f 9 12 73
f 71 70 67
f 70 76 67
f 70 73 76
f 71 67 68
f 60 72 61
f 52 60 61
f 62 52 61
f 51 52 62
f 49 52 51
f 49 48 52
f 48 50 52
f 47 50 48
f 39 50 47
f 39 57 50
f 57 8 50
f 56 8 57
f 56 57 27
f 34 27 57
f 35 34 57
f 34 35 39
f 38 34 39
f 36 34 38
f 36 38 42
f 42 38 40
f 42 40 49
f 43 42 49
f 43 49 46
f 42 43 45
f 45 41 42
f 24 41 45
f 24 44 41
f 41 44 37
f 37 44 31
f 44 33 31
f 31 33 32
f 33 26 32
f 32 26 29
f 29 26 34
f 31 29 34
f 26 28 34
f 26 27 28
f 32 29 31
f 37 31 41
f 41 31 36
f 54 44 24
f 54 53 44
f 53 54 21
f 20 21 54
f 54 25 20
f 20 25 18
f 25 19 18
f 20 18 15
f 18 23 15
f 15 23 22
f 15 22 14
f 15 14 13
f 15 13 16
f 15 16 53
f 53 16 17
f 53 17 30
f 53 30 26
f 17 26 30
f 17 7 26
f 7 6 26
f 6 55 26
f 26 55 56
f 6 1 55
f 1 5 55
f 5 10 55
f 55 10 12
f 56 55 12
f 1 10 5
f 1 4 10
f 2 4 1
f 3 2 1
f 13 2 3
f 13 3 7
f 13 11 2
f 3 1 7
f 7 1 6
f 13 7 17
f 17 16 13
f 13 14 11
f 21 20 15
f 21 15 53
f 44 53 26
f 54 24 25
f 40 47 49
f 38 47 40
f 41 36 42
f 36 31 34
f 34 28 27
f 27 26 56
f 8 56 12
f 50 8 58
f 50 58 60
f 39 35 57
f 38 39 47
f 47 48 49
f 49 51 46
f 50 60 52
f 75 78 63
f 75 63 77
f 61 75 77

