v 0.116721 0.164572 -0.0684152
v 0.138611 0.144334 -0.0829494
v 0.134978 0.151587 -0.0760897
v 0.145323 0.151625 -0.0698454
v 0.158862 0.143687 -0.0706917
v 0.181376 0.133005 -0.0646189
v 0.198774 0.126432 -0.0493029
v 0.205754 0.121257 -0.0410937
v 0.192929 0.130068 -0.0225034
v 0.200427 0.126618 -0.0317949
v 0.131275 0.158705 -0.0691413
v 0.183645 0.132251 -0.0139994
v 0.173494 0.134009 -0.00596995
v 0.162312 0.135397 0.000587984
v 0.150904 0.13666 0.00673862
v 0.140004 0.156694 -0.0171295
v 0.134732 0.160889 -0.0255214
v 0.144622 0.157857 -0.0304354
v 0.149926 0.153588 -0.0229143
v 0.154627 0.148482 -0.0149523
v 0.158781 0.142498 -0.00702682
v 0.165047 0.146449 -0.0218957
v 0.179477 0.138915 -0.0219524
v 0.186632 0.136886 -0.0485451
v 0.177725 0.139903 -0.0562596
v 0.172877 0.145218 -0.0474727
v 0.173844 0.144543 -0.0303752
v 0.159415 0.151414 -0.0299875
v 0.144305 0.159238 -0.0462252
v 0.120739 0.167689 -0.0534283
v 0.12963 0.165275 -0.0456587
v 0.113945 0.171016 -0.0460422
v 0.104937 0.172214 -0.0529453
v 0.171879 0.135024 -0.0715844
v 0.0958083 0.17354 -0.0598018
v 0.111462 0.169283 -0.0607119
v 0.102026 0.170153 -0.0677025
v 0.148946 0.144385 -0.0769304
v 0.168486 0.142296 -0.0637277
v 0.161841 0.135566 -0.0776337
v 0.19056 0.130321 -0.0572496
v 0.121037 0.167999 -0.0378705
v 0.137829 0.161817 -0.038125
v 0.1264 0.163803 -0.061419
v 0.140855 0.157348 -0.0619131
v 0.150132 0.155405 -0.0543846
v 0.154914 0.150211 -0.062818
v 0.135607 0.161959 -0.0539374
v 0.15226 0.155581 -0.0381837
v 0.166757 0.149089 -0.0385806
v 0.158732 0.152615 -0.0465918
v 0.164231 0.148212 -0.055375
v 0.180719 0.141278 -0.0393448
v 0.144095 0.150694 -0.00864719
v 0.194238 0.132464 -0.0402026
v 0.152753 0.12872 0.0142645
v 0.162304 0.127899 0.00890877
v 0.171855 0.127061 0.00351682
v 0.164992 0.119251 0.0159137
v 0.157462 0.110124 0.0269721
v 0.159793 0.100243 0.0326126
v 0.161934 0.0897415 0.0370746
v 0.163943 0.0791042 0.041121
v 0.176428 0.068351 0.0399019
v 0.165764 0.0680156 0.0441468
v 0.167084 0.0568303 0.0461869
v 0.177685 0.0572107 0.0419198
v 0.174439 0.0789232 0.0363639
v 0.172562 0.089488 0.0324755
v 0.182704 0.0890572 0.026643
v 0.18568 0.0785697 0.0306275
v 0.192325 0.0884689 0.0197428
v 0.189503 0.0983374 0.0152693
v 0.177244 0.108753 0.0161349
v 0.179924 0.0989177 0.0217954
v 0.167624 0.109585 0.021871
v 0.186618 0.107941 0.0102999
v 0.183768 0.117284 0.00424472
v 0.192433 0.11629 -0.00222024
v 0.200318 0.115097 -0.0097061
v 0.203565 0.106275 -0.00441057
v 0.206815 0.0965806 6.17624e-05
v 0.19844 0.0973853 0.0080105
v 0.201236 0.0876328 0.0122057
v 0.209586 0.0867542 0.00416135
v 0.204007 0.0775272 0.0161624
v 0.212369 0.0768121 0.00822847
v 0.214746 0.0661843 0.0115842
v 0.216947 0.0555624 0.0147716
v 0.224612 0.0547128 0.0062348
v 0.222418 0.0653422 0.00305717
v 0.219953 0.0761235 -0.000285657
v 0.235244 0.0320055 0.00282835
v 0.236747 0.020883 0.00523238
v 0.238158 0.00975163 0.00757968
v 0.239567 -0.00137977 0.00992517
v 0.245178 -0.0458498 0.019886
v 0.239254 -0.0556378 0.0313231
v 0.230969 -0.0546753 0.0391337
v 0.233908 -0.0646974 0.0437442
v 0.187771 0.136639 -0.030838
v 0.214048 -0.052911 0.0543467
v 0.222611 -0.0537163 0.0468461
v 0.225692 -0.0635853 0.0515753
v 0.211571 -0.0426674 0.0503544
v 0.220445 -0.0432513 0.0432236
v 0.229282 -0.0438346 0.0360407
v 0.227783 -0.0329272 0.0332869
v 0.234809 -0.0226324 0.0231379
v 0.235953 -0.0337361 0.0253759
v 0.232439 -0.000361258 0.0187304
v 0.233653 -0.0115197 0.0209096
v 0.242396 -0.0236277 0.0146187
v 0.223447 0.0116269 0.0249051
v 0.231214 0.0107919 0.0165461
v 0.229961 0.021938 0.0143538
v 0.228327 0.0329974 0.0118542
v 0.222146 0.0227605 0.0226798
v 0.220698 0.0338411 0.0203663
v 0.210672 0.0454082 0.0256691
v 0.212048 0.0342875 0.0278487
v 0.203083 0.034612 0.0349996
v 0.201953 0.0458757 0.0331275
v 0.197858 0.0676668 0.0273768
v 0.200138 0.0568818 0.0305111
v 0.1886 0.068054 0.0344452
v 0.204319 0.0234283 0.0370156
v 0.213451 0.0231886 0.0300933
v 0.206526 0.0126901 0.0402016
v 0.214932 0.0122213 0.0324617
v 0.206982 0.00150572 0.0414651
v 0.215771 0.000992974 0.0342292
v 0.225473 -0.010742 0.0288485
v 0.216727 -0.0102004 0.0361445
v 0.207904 -0.00965078 0.0433583
v 0.217902 -0.021239 0.0383673
v 0.208885 -0.0207732 0.0453221
v 0.224547 0.000473748 0.0269765
v 0.226531 -0.0218743 0.030915
v 0.210035 -0.0318086 0.0475383
v 0.218906 -0.0323675 0.0404085
v 0.237498 -0.0447489 0.0282115
v 0.246839 -0.0568446 0.0229483
v 0.243676 -0.0347766 0.0170741
v 0.240978 -0.0125101 0.0122729
v 0.226621 0.0439785 0.0092321
v 0.218944 0.0447852 0.0177257
v 0.206505 0.0670183 0.01968
v 0.208808 0.0563234 0.0229405
v 0.195448 0.106996 0.0032942
v 0.195249 0.0781495 0.0237705
v 0.170229 0.0997416 0.0275191
v 0.146433 0.109461 0.0291287
v 0.155101 0.119811 0.0209946
v 0.174497 0.118311 0.01023
v 0.142768 0.129783 0.0191109
v 0.132196 0.130214 0.022567
v 0.144746 0.11974 0.0246843
v 0.169669 0.140772 -0.0138078
v 0.14754 0.143971 -0.000703589
v 0.13442 0.12051 0.0287464
f 36 30 44 1
f 3 4 38 2
f 11 45 4 3
f 47 5 38 4
f 45 46 47 4
f 39 34 40 5
f 47 52 39 5
f 34 39 25 6
f 25 24 41 6
f 41 24 55 7
f 55 10 8 7
f 10 55 101 9
f 101 23 12 9
f 23 159 13 12
f 159 21 14 13
f 21 160 15 14
f 54 20 19 16
f 19 18 17 16
f 19 28 49 18
f 49 29 43 18
f 20 22 28 19
f 21 159 22 20
f 54 160 21 20
f 159 23 27 22
f 27 50 28 22
f 101 53 27 23
f 25 26 53 24
f 53 101 55 24
f 39 52 26 25
f 52 51 50 26
f 50 27 53 26
f 50 51 49 28
f 49 51 46 29
f 46 45 48 29
f 48 31 43 29
f 31 48 44 30
f 36 33 32 30
f 32 42 31 30
f 36 37 35 33
f 48 45 11 44
f 51 52 47 46
f 154 59 57 56
f 156 158 154 56
f 59 155 58 57
f 76 74 155 59
f 154 60 76 59
f 61 152 76 60
f 154 158 153 60
f 62 69 152 61
f 63 68 69 62
f 65 64 68 63
f 65 66 67 64
f 70 75 152 69
f 71 151 72 70
f 72 73 75 70
f 126 124 151 71
f 151 86 84 72
f 84 83 73 72
f 83 150 77 73
f 77 74 75 73
f 77 78 155 74
f 76 152 75 74
f 150 79 78 77
f 150 81 80 79
f 150 83 82 81
f 83 84 85 82
f 86 87 85 84
f 148 88 87 86
f 151 124 148 86
f 88 91 92 87
f 89 90 91 88
f 148 149 89 88
f 147 146 90 89
f 149 120 147 89
f 117 116 94 93
f 116 115 95 94
f 115 111 96 95
f 111 112 145 96
f 144 110 142 97
f 142 98 143 97
f 142 107 99 98
f 107 106 103 99
f 103 104 100 99
f 103 106 105 102
f 106 141 140 105
f 107 108 141 106
f 142 110 108 107
f 110 109 139 108
f 139 136 141 108
f 110 144 113 109
f 113 145 112 109
f 112 133 139 109
f 115 114 138 111
f 138 133 112 111
f 115 116 118 114
f 118 128 130 114
f 130 132 138 114
f 117 119 118 116
f 146 147 119 117
f 119 121 128 118
f 147 120 121 119
f 149 125 123 120
f 123 122 121 120
f 122 127 128 121
f 125 149 148 124
f 129 130 128 127
f 131 132 130 129
f 135 134 132 131
f 134 133 138 132
f 134 136 139 133
f 135 137 136 134
f 137 140 141 136
f 157 161 158 156
