v -0.336181 -0.355076 -0.034318
v -0.331648 -0.36206 -0.0450536
v -0.336165 -0.364098 -0.036434
v -0.340205 -0.366356 -0.0277502
v -0.352842 -0.376558 0.00794625
v -0.349756 -0.373992 -0.00100726
v -0.34667 -0.371426 -0.00996077
v -0.343584 -0.36886 -0.0189143
v -0.350852 -0.385658 0.00593544
v -0.348949 -0.383062 -0.00319162
v -0.341545 -0.39843 -0.0153172
v -0.346465 -0.392127 -0.00491846
v -0.344109 -0.389459 -0.0136815
v -0.338763 -0.407512 -0.017076
v -0.336562 -0.404765 -0.0257518
v -0.343817 -0.401141 -0.00660147
v -0.340633 -0.410002 -0.00836808
v -0.342236 -0.412323 0.000377099
v -0.345542 -0.403577 0.00212662
v -0.335663 -0.416438 -0.018849
v -0.337373 -0.41877 -0.0101504
v -0.333715 -0.413893 -0.027391
v -0.328394 -0.420341 -0.0362726
v -0.331253 -0.411192 -0.0349915
v -0.325303 -0.417972 -0.0434464
v -0.321651 -0.416157 -0.0510209
v -0.327723 -0.409226 -0.0425974
v -0.324422 -0.406877 -0.0506799
v -0.333787 -0.402237 -0.0341684
v -0.330397 -0.399953 -0.0421279
v -0.332602 -0.391025 -0.0410097
v -0.32846 -0.389157 -0.0495117
v -0.334157 -0.382113 -0.0397665
v -0.329759 -0.380266 -0.048185
v -0.335457 -0.37311 -0.038236
v -0.337927 -0.384525 -0.0310841
v -0.346329 -0.380513 -0.0120372
v -0.326686 -0.39783 -0.0502818
v -0.323945 -0.387324 -0.0578808
v -0.322242 -0.396422 -0.0585482
v -0.317826 -0.395167 -0.0667794
v -0.319369 -0.385953 -0.0661067
v -0.314376 -0.384882 -0.074155
v -0.31551 -0.375612 -0.0732321
v -0.320538 -0.376796 -0.0650844
v -0.321517 -0.367806 -0.06368
v -0.310277 -0.37454 -0.0811699
v -0.304823 -0.373468 -0.0890612
v -0.305481 -0.364131 -0.0880604
v -0.31106 -0.365227 -0.0801623
v -0.316832 -0.357251 -0.0704295
v -0.311594 -0.355937 -0.0787865
v -0.311657 -0.346696 -0.0770822
v -0.316878 -0.348026 -0.0686996
v -0.305743 -0.336236 -0.0832619
v -0.300141 -0.335119 -0.0913287
v -0.300248 -0.344409 -0.0930558
v -0.29412 -0.343492 -0.100772
v -0.294091 -0.334161 -0.0990896
v -0.287868 -0.333307 -0.106758
v -0.281204 -0.332551 -0.113915
v -0.274168 -0.331869 -0.12071
v -0.281213 -0.341936 -0.115306
v -0.274007 -0.350687 -0.123007
v -0.274216 -0.341249 -0.122031
v -0.266925 -0.340672 -0.128418
v -0.259508 -0.340143 -0.134666
v -0.266628 -0.350144 -0.129276
v -0.259187 -0.34963 -0.135384
v -0.251569 -0.349186 -0.14124
v -0.251994 -0.339656 -0.140712
v -0.243882 -0.339329 -0.145931
v -0.234975 -0.358023 -0.15181
v -0.235465 -0.348508 -0.151696
v -0.243177 -0.358367 -0.146914
v -0.241667 -0.377416 -0.146345
v -0.242451 -0.36789 -0.146672
v -0.233515 -0.377035 -0.151186
v -0.234399 -0.367533 -0.151772
v -0.231588 -0.395887 -0.14958
v -0.232611 -0.386519 -0.150546
v -0.239775 -0.396345 -0.144925
v -0.240845 -0.386926 -0.145928
v -0.229197 -0.414406 -0.147027
v -0.230452 -0.405193 -0.148404
v -0.222013 -0.404772 -0.152568
v -0.220788 -0.413993 -0.15112
v -0.212447 -0.413598 -0.155048
v -0.213625 -0.404364 -0.156612
v -0.20497 -0.404073 -0.16028
v -0.203807 -0.413276 -0.158613
v -0.195048 -0.412937 -0.161834
v -0.194172 -0.422096 -0.160589
v -0.211293 -0.422836 -0.153608
v -0.202961 -0.422443 -0.157587
v -0.186228 -0.412522 -0.164786
v -0.187244 -0.403264 -0.16646
v -0.177127 -0.412048 -0.167256
v -0.167999 -0.411577 -0.169592
v -0.17811 -0.402807 -0.168975
v -0.176257 -0.421287 -0.165991
v -0.167071 -0.420817 -0.168095
v -0.188217 -0.394007 -0.16805
v -0.188938 -0.384629 -0.168668
v -0.198782 -0.375691 -0.166643
v -0.197164 -0.394424 -0.164976
v -0.198112 -0.385087 -0.166209
v -0.207769 -0.376077 -0.163556
v -0.206962 -0.385435 -0.162783
v -0.215738 -0.385755 -0.159066
v -0.216587 -0.376392 -0.159891
v -0.217224 -0.366933 -0.16016
v -0.208388 -0.366652 -0.163862
v -0.226402 -0.357715 -0.156046
v -0.217567 -0.357434 -0.159747
v -0.226746 -0.348216 -0.155632
v -0.196176 -0.403726 -0.16353
v -0.206024 -0.394786 -0.161655
v -0.238605 -0.40566 -0.143731
v -0.179093 -0.393566 -0.170694
v -0.237332 -0.414944 -0.142755
v -0.244921 -0.415657 -0.137644
v -0.252377 -0.416261 -0.132201
v -0.253753 -0.40683 -0.133394
v -0.246219 -0.406296 -0.138677
v -0.255128 -0.397398 -0.134585
v -0.247545 -0.396842 -0.1398
v -0.262363 -0.39787 -0.128804
v -0.256185 -0.387841 -0.135276
v -0.257274 -0.378265 -0.135852
v -0.258065 -0.368689 -0.136012
v -0.250374 -0.368287 -0.141501
v -0.251137 -0.358722 -0.141665
v -0.265555 -0.369183 -0.130125
v -0.264721 -0.378758 -0.130182
v -0.276405 -0.39898 -0.116923
v -0.27758 -0.389432 -0.117426
v -0.270559 -0.388871 -0.123562
v -0.295254 -0.400789 -0.0971229
v -0.289063 -0.400181 -0.103781
v -0.282872 -0.399573 -0.110439
v -0.284204 -0.390016 -0.11104
v -0.280178 -0.418454 -0.108501
v -0.287716 -0.409623 -0.102818
v -0.281529 -0.40904 -0.109554
v -0.275065 -0.408476 -0.11601
v -0.2683 -0.407933 -0.12216
v -0.273669 -0.417934 -0.114907
v -0.267346 -0.417438 -0.1215
v -0.286439 -0.41898 -0.101816
v -0.292215 -0.419531 -0.0950153
v -0.299286 -0.410745 -0.089207
v -0.293803 -0.410161 -0.0960886
v -0.297794 -0.420103 -0.0881358
v -0.302986 -0.420727 -0.0810253
v -0.309513 -0.412293 -0.0745478
v -0.304496 -0.411529 -0.081906
v -0.305989 -0.402287 -0.0824459
v -0.300708 -0.401521 -0.0898604
v -0.302488 -0.392181 -0.0900864
v -0.311193 -0.403197 -0.0748486
v -0.296466 -0.391446 -0.0971319
v -0.290343 -0.390716 -0.104127
v -0.291757 -0.381287 -0.104128
v -0.285415 -0.380565 -0.111049
v -0.279631 -0.370364 -0.117545
v -0.273506 -0.36019 -0.12368
v -0.278632 -0.379874 -0.117657
v -0.272591 -0.369745 -0.123908
v -0.286163 -0.371087 -0.110676
v -0.2871 -0.361605 -0.110232
v -0.280242 -0.360875 -0.116966
v -0.293976 -0.352909 -0.102046
v -0.28761 -0.352131 -0.109346
v -0.292819 -0.37182 -0.103806
v -0.293468 -0.362365 -0.102986
v -0.298843 -0.372623 -0.0964219
v -0.299536 -0.363158 -0.0955656
v -0.297852 -0.382024 -0.0970559
v -0.27171 -0.379315 -0.123983
v -0.26944 -0.39841 -0.122933
v -0.263585 -0.388303 -0.129593
v -0.259824 -0.416806 -0.126792
v -0.261158 -0.407381 -0.127923
v -0.248707 -0.387339 -0.140729
v -0.223216 -0.395495 -0.153875
v -0.214804 -0.395107 -0.158075
v -0.224337 -0.386119 -0.155075
v -0.225176 -0.376683 -0.155744
v -0.249592 -0.377839 -0.141265
v -0.225969 -0.367223 -0.156276
v -0.235774 -0.339005 -0.151181
v -0.252043 -0.330201 -0.1397
v -0.259542 -0.330713 -0.133537
v -0.24363 -0.348838 -0.146614
v -0.266227 -0.359644 -0.129893
v -0.258824 -0.359127 -0.136025
v -0.280941 -0.351387 -0.116285
v -0.28786 -0.342683 -0.108213
v -0.267006 -0.331234 -0.127333
v -0.322051 -0.349418 -0.0602431
v -0.306153 -0.34547 -0.085227
v -0.305986 -0.354806 -0.0867775
v -0.300242 -0.35371 -0.0946985
v -0.309213 -0.383821 -0.082075
v -0.303749 -0.382828 -0.0896583
v -0.312821 -0.394126 -0.0746784
v -0.307655 -0.393158 -0.0823973
v -0.31591 -0.404357 -0.0668553
v -0.31812 -0.414115 -0.0589782
v -0.31376 -0.413074 -0.0670284
v -0.320316 -0.405521 -0.0587378
v -0.339097 -0.395789 -0.0240701
v -0.335906 -0.393369 -0.0327409
v -0.341141 -0.386972 -0.0223769
v -0.348674 -0.394775 0.00394657
v -0.342779 -0.378049 -0.0207911
v -0.339186 -0.375582 -0.0295329
v -0.325305 -0.378397 -0.0566131
v -0.330946 -0.371158 -0.0466957
v -0.326251 -0.369195 -0.0551659
v -0.31648 -0.366434 -0.0720358
v -0.32707 -0.360063 -0.0536808
v -0.32206 -0.358573 -0.0620711
v -0.343762 -0.359661 -0.0166816
v -0.340648 -0.357108 -0.025627
v -0.331653 -0.353049 -0.0429979
v -0.327128 -0.350995 -0.0516787
f 227 2 3 1
f 3 4 226 1
f 227 228 223 2
f 223 221 220 2
f 220 35 3 2
f 35 218 4 3
f 218 217 8 4
f 8 225 226 4
f 6 10 9 5
f 7 37 10 6
f 8 217 37 7
f 10 12 216 9
f 37 13 12 10
f 13 215 213 11
f 213 15 14 11
f 14 17 16 11
f 16 12 13 11
f 16 19 216 12
f 37 217 215 13
f 15 22 20 14
f 20 21 17 14
f 213 214 29 15
f 29 24 22 15
f 17 18 19 16
f 24 27 25 23
f 29 30 27 24
f 27 28 26 25
f 28 212 210 26
f 30 38 28 27
f 38 40 212 28
f 214 31 30 29
f 31 32 38 30
f 33 34 32 31
f 214 36 33 31
f 34 219 39 32
f 39 40 38 32
f 35 220 34 33
f 36 218 35 33
f 220 221 219 34
f 214 213 215 36
f 215 217 218 36
f 219 45 42 39
f 42 41 40 39
f 41 209 212 40
f 42 43 207 41
f 207 161 209 41
f 45 44 43 42
f 44 47 205 43
f 205 208 207 43
f 222 50 47 44
f 45 46 222 44
f 219 221 46 45
f 224 51 222 46
f 221 223 224 46
f 50 49 48 47
f 48 206 205 47
f 49 178 177 48
f 177 179 206 48
f 203 204 178 49
f 50 52 203 49
f 222 51 52 50
f 54 53 52 51
f 224 201 54 51
f 53 202 203 52
f 56 57 202 55
f 59 58 57 56
f 58 173 204 57
f 204 203 202 57
f 59 60 199 58
f 199 174 173 58
f 61 63 199 60
f 62 65 63 61
f 200 66 65 62
f 65 64 198 63
f 198 174 199 63
f 65 66 68 64
f 68 196 167 64
f 167 172 198 64
f 200 194 67 66
f 67 69 68 66
f 194 193 71 67
f 71 70 69 67
f 69 197 196 68
f 70 133 197 69
f 71 72 195 70
f 195 75 133 70
f 192 74 195 72
f 74 116 114 73
f 114 191 79 73
f 79 77 75 73
f 75 195 74 73
f 77 132 133 75
f 77 79 78 76
f 78 81 83 76
f 83 185 190 76
f 190 132 77 76
f 79 191 189 78
f 189 188 81 78
f 81 188 186 80
f 186 86 85 80
f 85 119 82 80
f 82 83 81 80
f 119 125 127 82
f 127 185 83 82
f 85 86 87 84
f 121 119 85 84
f 186 187 89 86
f 89 88 87 86
f 89 90 91 88
f 91 95 94 88
f 187 118 90 89
f 118 106 117 90
f 117 92 91 90
f 92 93 95 91
f 117 97 96 92
f 97 100 98 96
f 103 120 100 97
f 117 106 103 97
f 99 102 101 98
f 106 107 104 103
f 107 109 108 105
f 118 109 107 106
f 109 110 111 108
f 111 112 113 108
f 118 187 110 109
f 187 186 188 110
f 188 189 111 110
f 189 191 112 111
f 191 114 115 112
f 121 122 125 119
f 123 124 125 122
f 183 184 124 123
f 126 127 125 124
f 184 128 126 124
f 129 185 127 126
f 128 182 129 126
f 184 147 181 128
f 181 138 182 128
f 130 190 185 129
f 182 135 130 129
f 131 132 190 130
f 135 134 131 130
f 197 133 132 131
f 134 196 197 131
f 135 180 169 134
f 169 167 196 134
f 182 138 180 135
f 137 138 181 136
f 181 147 146 136
f 146 145 141 136
f 141 142 137 136
f 168 180 138 137
f 142 165 168 137
f 162 163 140 139
f 140 144 153 139
f 153 152 159 139
f 159 160 162 139
f 163 142 141 140
f 141 145 144 140
f 163 164 165 142
f 145 146 148 143
f 150 144 145 143
f 150 151 153 144
f 147 149 148 146
f 184 183 149 147
f 154 152 153 151
f 154 155 157 152
f 157 158 159 152
f 161 158 157 156
f 211 209 161 156
f 208 160 159 158
f 161 207 208 158
f 206 179 162 160
f 208 205 206 160
f 179 164 163 162
f 175 170 165 164
f 179 177 175 164
f 170 166 168 165
f 172 167 169 166
f 169 180 168 166
f 170 171 172 166
f 175 176 171 170
f 174 198 172 171
f 176 173 174 171
f 176 178 204 173
f 177 178 176 175
f 224 223 228 201
f 211 210 212 209
