# https://github.com/mikedh/trimesh
v -0.02178400 -0.03868950 0.06384000
v 0.01620200 -0.07133200 0.06106000
v 0.00698800 0.00454200 0.06770000
v 0.01686579 0.02917031 0.06125730
v 0.00882220 0.03929767 0.05655885
v -0.00108600 -0.03103950 0.06694550
v 0.01246450 -0.01615350 0.06886350
v 0.03056700 -0.07819200 0.05934000
v 0.08886700 0.05687200 0.03590600
v 0.08761800 0.07118400 0.02994700
v 0.09076800 0.03175500 0.04350000
v 0.09025447 0.04448087 0.04045040
v 0.09154625 0.01912075 0.04646750
v 0.09186275 0.00719032 0.05017300
v 0.09210998 -0.00292100 0.05139247
v 0.08930950 0.04843800 0.03855150
v 0.09177400 -0.00682000 0.05135700
v 0.09144500 -0.01528400 0.05192800
v 0.09142000 -0.02804000 0.05292200
v 0.08899300 -0.04726200 0.05381600
v 0.08618975 -0.05914137 0.05378681
v 0.08161975 -0.06808575 0.05367450
v 0.07939450 -0.07077200 0.05367900
v 0.05391100 -0.07982900 0.05622900
v 0.03511100 -0.07934600 0.05785000
v 0.06589800 -0.07817450 0.05515550
v 0.04498800 -0.08034000 0.05686900
v 0.02949171 0.04083305 0.05495540
v 0.03713200 0.04335450 0.05081850
v 0.04067400 0.04358900 0.05065400
v 0.07736200 0.06502500 0.03811900
v 0.05471672 0.05120892 0.04746459
v 0.06529850 0.05750250 0.04349900
v 0.00434900 -0.02922700 0.06427500
v 0.01129250 -0.02265775 0.06351925
v 0.05269320 -0.00198151 0.05841241
v 0.04256100 0.00406700 0.05842500
v 0.03460257 0.00772308 0.05852312
v 0.06211731 -0.00824353 0.05796441
v -0.00679000 -0.03146600 0.06388200
v 0.05106237 -0.01510971 0.06039653
v 0.02412115 -0.04663589 0.06358370
v 0.01428272 -0.04458296 0.06384569
v 0.06062744 -0.03329483 0.06028523
v -0.00900145 -0.04532944 0.06416765
v 0.07549011 -0.00911222 0.05580484
v 0.07285765 0.01816939 0.05147200
v 0.05965221 0.01019730 0.05532177
v 0.04427450 0.01081750 0.05705200
v 0.04900050 0.03621745 0.05091880
v 0.05598375 0.02846950 0.05177425
v 0.09035476 -0.01827502 0.05287009
v 0.07142532 -0.02517771 0.05808065
v 0.06994638 -0.01703150 0.05750888
v 0.08586300 -0.04381750 0.05489700
v 0.07677058 0.02393578 0.04920918
v 0.06905625 0.03603513 0.04751500
v 0.08003679 0.00072424 0.05333819
v 0.07860375 0.01291450 0.05125675
v 0.08993696 -0.03480971 0.05366038
v 0.04303896 -0.03934656 0.06253613
v 0.07977112 -0.05046353 0.05648822
v 0.06543648 -0.05551352 0.05908980
v 0.05844861 -0.06472434 0.05925414
v 0.06085635 -0.04998582 0.06040048
v 0.03617200 -0.06491175 0.06116775
v 0.06126524 0.05137753 0.04456829
v -0.01502962 -0.05637838 0.06313375
v 0.04298500 -0.05045500 0.06208125
v 0.04091700 0.02284900 0.05491300
v 0.07924997 -0.04225767 0.05694326
v 0.07315800 -0.04133600 0.05820100
v 0.03225850 -0.05712800 0.06233750
v 0.08142868 0.04246137 0.04291102
v 0.07761000 0.05687800 0.03910800
v 0.08768800 0.02303350 0.04650000
v 0.08412058 0.05883430 0.03597223
v 0.03909900 0.03268800 0.05292400
v 0.03501750 -0.01544050 0.06163625
v 0.09126400 0.01394050 0.04754850
v 0.07090925 -0.03825050 0.05848400
v 0.02692175 0.01761450 0.05697075
v 0.03515800 -0.00481600 0.06037900
v 0.01036359 -0.05719163 0.06302677
v 0.03185781 -0.03451456 0.06308344
f 85 6 42
f 61 85 42
f 79 85 61
f 79 35 85
f 35 34 85
f 79 61 41
f 41 83 79
f 7 79 83
f 38 7 83
f 38 3 7
f 38 82 3
f 82 38 49
f 70 82 49
f 49 38 37
f 49 37 36
f 49 36 48
f 50 49 48
f 78 49 50
f 29 78 50
f 29 28 78
f 78 28 82
f 28 5 82
f 30 29 50
f 32 30 50
f 67 32 50
f 67 50 57
f 33 67 57
f 57 74 33
f 74 57 76
f 74 76 11
f 76 13 11
f 11 12 74
f 16 74 12
f 76 57 13
f 13 57 56
f 57 47 56
f 57 51 47
f 48 47 51
f 47 48 58
f 58 59 47
f 13 59 58
f 13 58 80
f 58 14 80
f 58 15 14
f 58 52 15
f 58 46 52
f 58 36 46
f 46 36 39
f 39 41 46
f 46 41 54
f 54 41 44
f 54 44 53
f 53 52 54
f 52 53 81
f 52 81 55
f 55 81 71
f 81 72 71
f 81 65 72
f 44 65 81
f 44 61 65
f 65 61 69
f 69 66 65
f 66 64 65
f 64 66 26
f 26 66 27
f 66 25 27
f 66 8 25
f 2 8 66
f 73 2 66
f 42 2 73
f 69 42 73
f 42 84 2
f 43 84 42
f 43 45 84
f 45 68 84
f 1 68 45
f 40 1 45
f 40 45 6
f 6 45 43
f 84 68 2
f 26 27 24
f 63 65 64
f 65 63 62
f 62 71 65
f 62 63 21
f 20 62 21
f 20 55 62
f 60 55 20
f 19 60 20
f 52 60 19
f 18 52 19
f 17 52 18
f 21 63 64
f 21 64 26
f 22 21 26
f 22 26 23
f 71 72 65
f 71 62 55
f 52 55 60
f 53 44 81
f 36 41 39
f 36 38 41
f 52 46 54
f 59 56 47
f 56 59 13
f 74 16 33
f 33 16 75
f 77 33 75
f 77 75 9
f 10 77 9
f 10 31 77
f 33 77 31
f 57 50 51
f 33 32 67
f 51 50 48
f 48 36 58
f 37 38 36
f 4 3 82
f 38 83 41
f 41 61 44
f 61 42 69
f 42 6 43

