v 0.352197875 -0.39490025 0.0416002625
v 0.34485775 -0.40914275 0.030594775
v 0.344240875 -0.40194275 0.01272105125
v 0.358071375 -0.377202125 0.0480191
v 0.352096203125 -0.384092875 0.0223395682813
v 0.33482425 -0.404474125 -0.01519621125
v 0.359132875 -0.36470525 0.0363198875
v 0.34173825 -0.393990875 -0.004456905
v 0.360529 -0.347372 0.03980885
v 0.329813 -0.400756125 -0.0302962375
v 0.3220765 -0.413590625 -0.0383720625
v 0.270449125 -0.21246075 -0.0346999
v 0.348664046875 -0.371889453125 0.00401648390625
v 0.33657853125 -0.37856684375 -0.02372827625
v 0.353157375 -0.34961925 0.01390869375
v 0.355821875 -0.33872125 0.0264927875
v 0.31491825 -0.410536875 -0.0538957
v 0.322286609375 -0.389998359375 -0.0495356078125
v 0.341596125 -0.356053875 -0.01536224375
v 0.327563 -0.366062375 -0.044810175
v 0.305899 -0.40542325 -0.071252525
v 0.31183775 -0.3812725 -0.0698503625
v 0.346599125 -0.344670875 -0.00188575
v 0.332968125 -0.35360975 -0.0331600625
v 0.318184625 -0.366570875 -0.061438325
v 0.346851375 -0.322444375 0.0071324025
v 0.301470375 -0.38297075 -0.0844678625
v 0.296872625 -0.3986385 -0.086155925
v 0.338026125 -0.335276375 -0.017730305
v 0.34617225 -0.30673925 0.016797545
v 0.287002625 -0.418124375 -0.0911084625
v 0.330071125 -0.331774375 -0.0343271625
v 0.281642375 -0.399195125 -0.1026553875
v 0.215421625 0.101001075 -0.051460825
v 0.34282725 -0.288089875 0.0258293125
v 0.339294625 -0.322196125 -0.008083435
v 0.276745875 -0.414832125 -0.1028570125
v 0.33428696875 -0.300317109375 -0.00101975078125
v 0.32747190625 -0.31197215625 -0.0273609860938
v 0.26145425 -0.0575141125 -0.00551737125
v 0.3214435 -0.3287515 -0.050554575
v 0.319200625 -0.342987625 -0.0588705375
v 0.317025875 -0.30504928125 -0.0452753078125
v 0.3366505 -0.2715055 0.0324205125
v 0.3234895 -0.293129515625 -0.0189432165625
v 0.32981153125 -0.282590203125 0.008916768125
v 0.30981825 -0.341017125 -0.0745816125
v 0.309028921875 -0.319792359375 -0.0693175984375
v 0.323894875 -0.265640625 0.0197299225
v 0.31825853125 -0.27577190625 -0.00864527484375
v 0.31278275 -0.285624296875 -0.0368504201562
v 0.306292625 -0.29875915625 -0.062698759375
v 0.31197625 -0.258730625 0.0065154225
v 0.307181625 -0.26783084375 -0.0264984775
v 0.30186078125 -0.278423359375 -0.0544404921875
v 0.299103125 -0.339654625 -0.089658475
v 0.300036125 -0.251933203125 -0.0146393960937
v 0.290728484375 -0.272455390625 -0.07164608125
v 0.297148796875 -0.314911921875 -0.086206925
v 0.296174265625 -0.25962078125 -0.0442492359375
v 0.29485565625 -0.29349915625 -0.0797555265625
v 0.302510625 -0.246394 0.01182379875
v 0.28516878125 -0.252407875 -0.0617591
v 0.294433 -0.354837625 -0.0960750625
v 0.27791821875 -0.233365234375 -0.05044995625
v 0.28881415625 -0.2425636875 -0.0323761264062
v 0.282112828125 -0.2894501875 -0.0961581453125
v 0.283434625 -0.332610609375 -0.1067689
v 0.29123575 -0.23793575 0.0026142575
v 0.277444875 -0.224917125 -0.01884898625
v 0.27389878125 -0.247856625 -0.079344478125
v 0.28373334375 -0.31094246875 -0.102268442187
v 0.28313075 -0.357366 -0.108303775
v 0.278734328125 -0.268311375 -0.0884765921875
v 0.276574 -0.37259875 -0.112933875
v 0.265551625 -0.350816375 -0.123952
v 0.279684 -0.228468125 0.01325813875
v 0.2682410625 -0.22774140625 -0.0693808921875
v 0.26516640625 -0.265234640625 -0.104509865625
v 0.266844625 -0.310067875 -0.119621375
v 0.26763971875 -0.2863489375 -0.11148405
v 0.268070375 -0.329291125 -0.121414125
v 0.264423 -0.3699975 -0.12333925
v 0.2572328125 -0.22439034375 -0.08779434375
v 0.26142475 -0.244638390625 -0.096340978125
v 0.214812875 0.1029521625 -0.0191694
v 0.26892425 -0.217764 -0.00275868
v 0.243790296875 -0.221764859375 -0.104465975
v 0.255585984375 -0.203839234375 -0.0816094375
v 0.246884078125 -0.24225828125 -0.111934135937
v 0.254032625 -0.3028085 -0.128217375
v 0.266909875 -0.220488375 0.024483175
v 0.264730734375 -0.207556140625 -0.0614629859375
v 0.265836015625 -0.18622125 -0.057799184375
v 0.251580125 -0.28398875 -0.1255585
v 0.248081875 -0.26527 -0.121859875
v 0.259287 -0.211488625 0.01329380125
v 0.267492203125 -0.164858125 -0.0545713203125
v 0.256718078125 -0.182665171875 -0.0779586296875
v 0.2430250625 -0.2008409375 -0.09918475
v 0.22618925 -0.222088375 -0.121425375
v 0.234437125 -0.258936 -0.129618375
v 0.224157 0.0852246125 -0.0164239
v 0.268821625 -0.14353 -0.0513175625
v 0.230559 -0.24043625 -0.125779625
v 0.259127875 -0.14005875 -0.071363525
v 0.271080125 -0.190310375 -0.0359938375
v 0.25808575 -0.161371703125 -0.074696809375
v 0.225588875 -0.195507375 -0.115513375
v 0.23417425 0.0417230625 -0.00297612425
v 0.273569625 -0.149334875 -0.0326415
v 0.27286225 -0.168522625 -0.0329198625
v 0.24399996875 -0.17955340625 -0.0955729390625
v 0.245164921875 -0.158200640625 -0.092180221875
v 0.24851625 -0.134344625 -0.0865378375
v 0.226374671875 0.085260721875 -0.0359330578125
v 0.21212025 -0.199666125 -0.12579975
v 0.212545375 -0.215729125 -0.129236
v 0.228631 -0.176974875 -0.110803
v 0.229742 -0.155636 -0.107247875
v 0.23095925 -0.13431925 -0.103724125
v 0.246746 -0.117463 -0.0881610875
v 0.23446375 -0.115962125 -0.098955175
v 0.26200025 -0.1156396875 -0.0711732375
v 0.2506305 -0.0949172375 -0.0824731125
v 0.267490125 -0.1005173 -0.0642603375
v 0.23501675 -0.0708303125 -0.0925305
v 0.24716225 -0.0770657125 -0.0812234375
v 0.277401125 -0.0999626125 -0.04799615
v 0.231819625 -0.0530045 -0.0923131625
v 0.261087796875 -0.077015025 -0.060396253125
v 0.246239359375 -0.0544037703125 -0.0753972515625
v 0.2300565 -0.0327293875 -0.0897914875
v 0.26975321875 -0.0798787703125 -0.0406762120312
v 0.283342625 -0.0998414 -0.0306971
v 0.25751278125 -0.0563089828125 -0.0560116203125
v 0.24391821875 -0.0339865390625 -0.0724481609375
v 0.227948 -0.01242371875 -0.0872534
v 0.2253475 0.007830925 -0.0846716375
v 0.241402890625 -0.01358832625 -0.0696338875
v 0.222235625 0.02795990625 -0.08198625
v 0.218779375 0.047971075 -0.0791445125
v 0.254379296875 -0.0357765921875 -0.0526553390625
v 0.23855934375 0.0066889471875 -0.0669380171875
v 0.275801875 -0.087945775 -0.01958070375
v 0.21324125 0.0653293625 -0.0779507875
v 0.251162625 -0.0153283182812 -0.049650871875
v 0.26386921875 -0.058650725 -0.0341914917188
v 0.2759225 -0.0924207625 -0.00408030875
v 0.200143125 0.0708979 -0.0878110625
v 0.233719 0.065551921875 -0.0383912671875
v 0.259340234375 -0.03778805625 -0.0305051170313
v 0.255016375 -0.0172280409375 -0.0277284932813
v 0.2477871875 0.0049286059375 -0.0468673
v 0.23521878125 0.026853355 -0.0641904046875
v 0.2684335 -0.0862947 0.00932732875
v 0.207650125 0.08978995 -0.0720480875
v 0.22685028125 0.066303671875 -0.0579661578125
v 0.231354 0.046842903125 -0.0612359703125
v 0.197051 0.0859489375 -0.0842824125
v 0.243913109375 0.0251407754687 -0.0442010875
v 0.2505665 0.0032243028125 -0.0251170557812
v 0.26909625 -0.0965671125 0.02365971375
v 0.233884 0.0643405125 -0.0180264
v 0.239362390625 0.04541035625 -0.0413353234375
v 0.245651046875 0.023565229375 -0.022894141
v 0.257623875 -0.03918945 -0.00693856125
v 0.251864375 -0.01792008875 -0.00505139625
v 0.2214563125 0.08471964375 -0.0545662453125
v 0.207339 0.1033664 -0.0633744875
v 0.26009225 -0.0913588875 0.0345262625
v 0.254421 -0.074720925 0.0263575375
v 0.24609575 0.003122855 -0.00340339625
v 0.23926575 0.0462949125 -0.017629428
v 0.25304725 -0.0588024625 0.01431514125
v 0.216842375 0.104463575 -0.035341225
v 0.239945 0.02396839875 -0.0018155405
v 0.3552809375 -0.3749016875 0.02747291625
v 0.358814 -0.370988 0.0421269
v 0.3556995 -0.3855925 0.0466147
v 0.352389625 -0.3896145625 0.03189398125
v 0.344127 -0.4073805 0.02219135
v 0.348317125 -0.3930710625 0.017465491875
v 0.348066 -0.4038665 0.03666235
v 0.345518625 -0.3810710625 -0.0009147925
v 0.3508324375 -0.3780991875 0.013088891875
v 0.3435665 -0.3961925 0.003452855
v 0.3512705625 -0.36268925 0.009306713125
v 0.355976 -0.3596300625 0.02366351
v 0.33335975 -0.387948 -0.027899749375
v 0.33966875 -0.384183125 -0.014541255
v 0.3383905 -0.399199 -0.009851895
v 0.3323405 -0.4024735 -0.02295395
v 0.354575 -0.344262 0.020173
v 0.3584325 -0.340667 0.03450895
v 0.3602335 -0.356109 0.03797985
v 0.339394375 -0.369243125 -0.019227283125
v 0.34565675 -0.365719625 -0.00500312375
v 0.32536325 -0.3797784375 -0.04663420625
v 0.332628125 -0.37377225 -0.033320075
v 0.326388375 -0.393379375 -0.04048901875
v 0.3185245 -0.4136275 -0.04535405
v 0.3187239375 -0.40025775 -0.051859925
v 0.3261155 -0.406881 -0.0343942
v 0.344244 -0.3501605 -0.008435075
v 0.3500345 -0.347123 0.006058975
v 0.330318 -0.359616 -0.03901115
v 0.3372825 -0.354813 -0.0244405
v 0.3092106875 -0.3950109375 -0.0697034875
v 0.3175615625 -0.3871138125 -0.0587091875
v 0.3107165 -0.407864 -0.06255255
v 0.3150685 -0.37384 -0.06574155
v 0.322934 -0.3661795 -0.05337355
v 0.297697 -0.390209 -0.08753995
v 0.3067445 -0.382154 -0.0773319
v 0.3004455 -0.403029 -0.07992355
v 0.3361220625 -0.3095259375 -0.005367125
v 0.340138125 -0.3035888125 0.00789759
v 0.3473815 -0.3161805 0.01251163
v 0.343106 -0.322273 -0.00057114
v 0.2810435 -0.419071 -0.09703605
v 0.27747 -0.4064515 -0.104734
v 0.2876895 -0.398329 -0.09660955
v 0.291263 -0.4109485 -0.0889116
v 0.3288751875 -0.3218100625 -0.03094357125
v 0.33252475 -0.3154963125 -0.018326813125
v 0.3385665 -0.3287435 -0.01288892
v 0.334778 -0.335156 -0.0253503
v 0.3322180625 -0.2913405 0.003781001875
v 0.33620075 -0.2854375625 0.017424329375
v 0.3446995 -0.2973785 0.02122115
v 0.3186278125 -0.3151764375 -0.0487918375
v 0.322292125 -0.3084653125 -0.03636283125
v 0.3251545 -0.3285235 -0.04323915
v 0.3269635625 -0.2740603125 0.014269183125
v 0.3306945 -0.267813 0.02776475
v 0.3404195 -0.278865 0.0306689
v 0.3256539375 -0.3023870625 -0.023380413125
v 0.32880175 -0.296802875 -0.009971863125
v 0.3210468125 -0.28427425 -0.013990760625
v 0.323896875 -0.27935275 0.000204050625
v 0.3150744375 -0.2951689375 -0.04130376875
v 0.31815725 -0.2893804375 -0.027918280625
v 0.30791125 -0.309227125 -0.06620368125
v 0.311713625 -0.3017975625 -0.054041375
v 0.3145000625 -0.32254225 -0.06066849375
v 0.315301 -0.343594 -0.0660108
v 0.3095681875 -0.3303953125 -0.0720459875
v 0.3203535 -0.3358065 -0.05474175
v 0.3042505 -0.288448 -0.05879735625
v 0.30734375 -0.28192975 -0.045693
v 0.3101600625 -0.27650425 -0.031888461875
v 0.31269825 -0.271894375 -0.01756266
v 0.3150573125 -0.267573125 -0.00302898875
v 0.317595 -0.2628415 0.01134434
v 0.2975035625 -0.325681875 -0.08882183125
v 0.303261125 -0.3172429375 -0.077843925
v 0.303916 -0.3386485 -0.08300205
v 0.296254125 -0.3041785625 -0.08318469375
v 0.300700125 -0.2959830625 -0.0712851875
v 0.3038226875 -0.259626125 -0.020761050625
v 0.3056758125 -0.25605575 -0.005841325
v 0.299199375 -0.2688149375 -0.0495691875
v 0.30167425 -0.263692 -0.0354031
v 0.2929895 -0.2828910625 -0.0759198125
v 0.296354375 -0.2752316875 -0.06308736875
v 0.2957748125 -0.2447951875 -0.00809672875
v 0.2970325 -0.241919 0.007109005
v 0.30722 -0.252623 0.00915059
v 0.2926934375 -0.2508389375 -0.03854643125
v 0.2944139375 -0.2473718125 -0.023482761875
v 0.2881454375 -0.26229325 -0.0669028625
v 0.2906798125 -0.255760125 -0.05300959375
v 0.2838166875 -0.3217684375 -0.10471736875
v 0.2906440625 -0.31281725 -0.09436605
v 0.2905970625 -0.3344609375 -0.0990366625
v 0.2888975 -0.3561085 -0.1023086
v 0.2826145625 -0.3434365 -0.10843165625
v 0.2968885 -0.347202 -0.09293725
v 0.2845936875 -0.2348893125 -0.025653674375
v 0.2854435 -0.23361375 -0.009732614375
v 0.2764821875 -0.2580146875 -0.0840775625
v 0.2796190625 -0.249861875 -0.07057268125
v 0.2848870625 -0.270195125 -0.08012908125
v 0.28867875 -0.2913373125 -0.08806464375
v 0.280624875 -0.2788110625 -0.09250798125
v 0.2831571875 -0.3001651875 -0.0994135
v 0.2817269375 -0.2428025 -0.0562837375
v 0.2832416875 -0.2377009375 -0.04132419375
v 0.2710144375 -0.2377728125 -0.074310925
v 0.2730654375 -0.23013825 -0.05987640625
v 0.2659905625 -0.2177405625 -0.06495836875
v 0.2677155 -0.210164625 -0.05027841875
v 0.2738409375 -0.2239841875 -0.0442309375
v 0.2744905 -0.220816 -0.02780195
v 0.2665773125 -0.275737625 -0.10816191875
v 0.2721745 -0.266664625 -0.0966288375
v 0.2751013125 -0.2877904375 -0.1039816375
v 0.2764030625 -0.309271125 -0.10986124375
v 0.2683288125 -0.297034375 -0.11445405625
v 0.2686945 -0.3184935 -0.1195525
v 0.2758564375 -0.33091275 -0.1141734375
v 0.2735838125 -0.3524989375 -0.1169151875
v 0.266997 -0.340067 -0.122874
v 0.274701 -0.2227845 -0.010658995
v 0.274304125 -0.2231160625 0.005249729375
v 0.2855705 -0.233182 0.005947605
v 0.2591964375 -0.234509375 -0.09194089375
v 0.2630028125 -0.225896125 -0.0787407625
v 0.2678760625 -0.246126625 -0.08796863125
v 0.2634318125 -0.2548741875 -0.10055009375
v 0.2700325 -0.3739815 -0.118283
v 0.2638115 -0.3615345 -0.124668
v 0.2799815 -0.3649615 -0.1107265
v 0.26278 -0.2132015 0.005325255
v 0.261464 -0.215017 0.02084795
v 0.2732235 -0.2246045 0.02069495
v 0.2560198125 -0.2141845 -0.08434583125
v 0.2606426875 -0.2055241875 -0.071883275
v 0.24838975 -0.2525626875 -0.1156312875
v 0.2544186875 -0.2433584375 -0.10435735625
v 0.257668875 -0.2640011875 -0.112043725
v 0.2597235625 -0.2851165625 -0.1186143125
v 0.250924 -0.273397 -0.1226435
v 0.2518385 -0.294564 -0.1280845
v 0.260496 -0.306408 -0.123953
v 0.243110375 -0.21136225 -0.10154401875
v 0.24969525 -0.20227175 -0.090711625
v 0.2508131875 -0.223012 -0.0963799625
v 0.2451995625 -0.2320279375 -0.10807085625
v 0.22761475 -0.209123625 -0.11640655
v 0.23563 -0.199566 -0.107023725
v 0.2362105 -0.2206526875 -0.1120207375
v 0.238847125 -0.2413094375 -0.1189876875
v 0.229365 -0.230042 -0.122455
v 0.243399625 -0.19022175 -0.09726793125
v 0.2507646875 -0.18104525 -0.087102225
v 0.255959875 -0.1933019375 -0.07959924375
v 0.261784625 -0.1843791875 -0.06815381875
v 0.264929375 -0.196974 -0.059314375
v 0.2412655 -0.262089 -0.125728
v 0.231559 -0.250893 -0.1289015
v 0.2687439375 -0.1882253125 -0.04700611875
v 0.269932 -0.201831 -0.03672485
v 0.2574371875 -0.1720215 -0.076330975
v 0.263303625 -0.1630865 -0.06490719375
v 0.2667001875 -0.175525 -0.0562040625
v 0.2704779375 -0.16667825 -0.0438435625
v 0.2720345 -0.1792825 -0.0346239
v 0.2586323125 -0.1507165625 -0.0730366625
v 0.2644745 -0.1417845 -0.0616362
v 0.268182375 -0.1541935 -0.05294326875
v 0.27191 -0.1453115 -0.04050225
v 0.2736305 -0.157806 -0.03118655
v 0.244592 -0.168884625 -0.09387915
v 0.252012125 -0.1597220625 -0.08378579375
v 0.228158 -0.187674 -0.112608
v 0.2364994375 -0.178223625 -0.10335910625
v 0.2101095 -0.207507 -0.1290595
v 0.2187615 -0.1975855 -0.1205975
v 0.219244 -0.2189535 -0.1251885
v 0.2457079375 -0.1474866875 -0.0904698125
v 0.253041 -0.1383365 -0.0804049
v 0.22917 -0.1662995 -0.10902
v 0.2376263125 -0.1568705 -0.09988616875
v 0.230314 -0.1449725 -0.1054755
v 0.2388641875 -0.1354611875 -0.09643239375
v 0.231751 -0.1236865 -0.102015
v 0.240872 -0.114034 -0.0931517
v 0.247856 -0.12581 -0.08753985
v 0.2580309375 -0.096280275 -0.0741386375
v 0.264927 -0.10816425 -0.067816
v 0.256266 -0.1168805 -0.07776595
v 0.250156 -0.10496805 -0.08424435
v 0.2552095625 -0.07582889375 -0.0697154625
v 0.263420375 -0.08729513125 -0.06305814375
v 0.249998 -0.0848367 -0.0806235
v 0.265988375 -0.07834353125 -0.0506779
v 0.27344525 -0.0900235 -0.0443034625
v 0.2721335 -0.09876195 -0.05707235
v 0.239241625 -0.05366694375 -0.0840367875
v 0.24734475 -0.06461168125 -0.076921275
v 0.241027 -0.07394355 -0.08680085
v 0.232556 -0.0630861 -0.09358715
v 0.2523885625 -0.0552893625 -0.06603139375
v 0.2591745625 -0.06666281875 -0.05805416875
v 0.27222425 -0.0816851 -0.030506998125
v 0.2798195 -0.0933519 -0.02504555
v 0.281837 -0.1011837 -0.03877585
v 0.2372145625 -0.033317 -0.08129875625
v 0.2450989375 -0.0441952 -0.07390613125
v 0.2309825 -0.0428791 -0.0910509
v 0.2614355625 -0.05744789375 -0.0454103375
v 0.266588875 -0.06932280625 -0.037179835625
v 0.2497130625 -0.03481993125 -0.0628818375
v 0.2559345625 -0.0460239875 -0.0542483375
v 0.23492275 -0.0129619725 -0.078619725
v 0.2426919375 -0.02377835625 -0.0710235875
v 0.2290535 -0.02257485 -0.08852605
v 0.2645260625 -0.05986210625 -0.022319029375
v 0.2690448125 -0.074212375 -0.01539445875
v 0.257697125 -0.0368159375 -0.04182421875
v 0.26151125 -0.04815764375 -0.03208833875
v 0.2468938125 -0.01439088 -0.059943725
v 0.252786375 -0.02553555625 -0.05112364375
v 0.232218125 0.0073098775 -0.075980525
v 0.240033875 -0.00343412375 -0.0682805375
v 0.2267145 -0.002284225 -0.08597235
v 0.2290110625 0.02745578375 -0.07325655625
v 0.23695375 0.0167855825 -0.06558080625
v 0.2238415 0.017909025 -0.08334
v 0.24384175 0.00586825125 -0.05719271875
v 0.249514875 -0.005182316875 -0.04823464375
v 0.2253688125 0.047428425 -0.070347
v 0.233356125 0.0368898375 -0.0627483125
v 0.220569 0.0379934 -0.0806192
v 0.221127625 0.06692534375 -0.06692481875
v 0.229200625 0.056660425 -0.05963481875
v 0.2168045 0.0578545 -0.07746785
v 0.2539764375 -0.016359325625 -0.0388569625
v 0.2571814375 -0.02748645625 -0.029076566875
v 0.2402910625 0.02605431375 -0.0544513375
v 0.245923625 0.015030608125 -0.04554118125
v 0.2648955 -0.07318564375 0.001200625625
v 0.272134 -0.08899265 0.00277389
v 0.275824 -0.0898536 -0.012062065
v 0.196614 0.07856645 -0.08785015
v 0.202406 0.0879073 -0.0783181
v 0.212065125 0.0773222 -0.07312195
v 0.2066865 0.06808135 -0.0829549
v 0.2162563125 0.08567961875 -0.06288633125
v 0.22425725 0.0757339125 -0.0562512875
v 0.2501175 0.0039508275 -0.03608443125
v 0.2528265625 -0.0069880075 -0.02638670125
v 0.2589823125 -0.0385430375 -0.018814674375
v 0.260692 -0.04999665 -0.00791756
v 0.2539635625 -0.017678603125 -0.016431960625
v 0.2547115 -0.02851055 -0.005972585
v 0.248868 0.00303841875 -0.014238116875
v 0.248992 -0.007378205 -0.00420676
v 0.245770125 0.024194855625 -0.0336013875
v 0.2481906875 0.01339954875 -0.023985421875
v 0.2361306875 0.0461716375 -0.05149790625
v 0.2417445625 0.03527619375 -0.04279181875
v 0.257449 -0.0583238 0.003654215
v 0.25262 -0.06532685 0.02118335
v 0.2605505 -0.0783484125 0.017505774375
v 0.256704 -0.08380865 0.0319364
v 0.265209 -0.0961405 0.03073345
v 0.268796 -0.09105235 0.016406805
v 0.2110235 0.1030463 -0.0579927
v 0.21848225 0.0930293625 -0.05298706875
v 0.2077545 0.0969453 -0.06756325
v 0.2248801875 0.08481783125 -0.045481875
v 0.230315 0.07547238125 -0.03699324375
v 0.2311415 0.06591711875 -0.0483760875
v 0.236711 0.05551675625 -0.03985355
v 0.240712625 0.0445547875 -0.0309507375
v 0.2428995 0.03374884375 -0.021745554625
v 0.2433448125 0.023600571875 -0.0123212515
v 0.243177 0.013590845 -0.002606025
v 0.2343005 0.06499431875 -0.02824835625
v 0.237775 0.05395715 -0.0192077
v 0.236646 0.0439861 -0.010363612
v 0.236109 0.03419815 -0.001032837
v 0.217147 0.1022468 -0.0438218
v 0.2217736875 0.09489953125 -0.0354842875
v 0.218571 0.09542715 -0.0165125
v 0.2257865 0.08533485625 -0.02621963125
v 0.2151505 0.1053315 -0.0262847
v 0.229303 0.0748127 -0.0170135
v 0.355755 -0.380373 0.03696625
v 0.3484115 -0.39856925 0.026998475
v 0.347343 -0.387171 0.0081942925
v 0.35374775 -0.36892675 0.018289815
v 0.3360965 -0.39334125 -0.0188222975
v 0.35740425 -0.3501855 0.029076425
v 0.3428735 -0.37497325 -0.0099614325
v 0.3297375 -0.38348375 -0.0371913
v 0.322573 -0.40345775 -0.043094575
v 0.3479645 -0.35643025 0.0004133775
v 0.335068 -0.36424625 -0.028994
v 0.31426175 -0.39750425 -0.060755225
v 0.3203705 -0.376662 -0.056165725
v 0.303595 -0.3925915 -0.078627725
v 0.34168275 -0.31289275 0.0035841625
v 0.2843665 -0.4087 -0.0968228
v 0.3337635 -0.32525925 -0.02192836
v 0.33835075 -0.2944375 0.0125272675
v 0.32381625 -0.318431 -0.039910325
v 0.33356825 -0.27658775 0.02253991
v 0.3308375 -0.306001 -0.0143660525
v 0.3265175 -0.2879315 -0.00507003
v 0.32039625 -0.29875325 -0.032378
v 0.313351 -0.31210075 -0.057551325
v 0.31505025 -0.33305125 -0.06342885
v 0.3096985 -0.2917035 -0.050102675
v 0.31560375 -0.2804325 -0.0229461225
v 0.320852 -0.2710325 0.0057149825
v 0.3037285 -0.327938 -0.0805232
v 0.302234 -0.30657875 -0.0747638
v 0.30940325 -0.263751 -0.0118690275
v 0.3046875 -0.2725875 -0.040770125
v 0.2987125 -0.2854935 -0.06741045
v 0.301473 -0.248862 0.0005443475
v 0.2982485 -0.2552585 -0.029660975
v 0.293709 -0.26531925 -0.058263725
v 0.29086575 -0.3236295 -0.096903225
v 0.2898635 -0.34528625 -0.100772125
v 0.29017425 -0.24011675 -0.0168074725
v 0.28243775 -0.25992975 -0.075535725
v 0.2869865 -0.28069175 -0.0843033
v 0.2899065 -0.3020495 -0.091419375
v 0.28717025 -0.24655825 -0.04739505
v 0.2764115 -0.23995775 -0.0652894
v 0.26983125 -0.22032425 -0.054524225
v 0.2789555 -0.2291755 -0.034701125
v 0.273826 -0.2771645 -0.100480925
v 0.27597225 -0.29849925 -0.107112725
v 0.276358 -0.32008625 -0.11221425
v 0.27491775 -0.34171875 -0.1157405
v 0.28013575 -0.22798325 -0.002355695
v 0.26532625 -0.2359965 -0.0832472
v 0.270175 -0.256334 -0.092443625
v 0.2718965 -0.363248 -0.11769725
v 0.26800175 -0.218903 0.0130101025
v 0.261383 -0.215778 -0.07491075
v 0.25616825 -0.25362175 -0.10831315
v 0.25886625 -0.274516 -0.11549075
v 0.260204 -0.29575325 -0.1213745
v 0.24991225 -0.212708 -0.093228075
v 0.2524745 -0.233192 -0.100234675
v 0.23566425 -0.210161 -0.1092802
v 0.23741075 -0.23100075 -0.11539175
v 0.25008575 -0.191695 -0.088763225
v 0.26095775 -0.19501675 -0.06978445
v 0.24010175 -0.251683 -0.122403
v 0.26772475 -0.19930825 -0.04818455
v 0.26257975 -0.173735 -0.066530925
v 0.269658 -0.177386 -0.045506625
v 0.26391675 -0.152436 -0.06327405
v 0.27121475 -0.15599 -0.042174425
v 0.251413 -0.17039 -0.085447975
v 0.23596575 -0.188908 -0.1051049
v 0.21900275 -0.2082695 -0.122893
v 0.2525435 -0.14903425 -0.082101
v 0.237059 -0.1675495 -0.101621725
v 0.23818325 -0.1461715 -0.09814585
v 0.2398035 -0.12474825 -0.094777425
v 0.2575415 -0.10656615 -0.076030175
v 0.25694825 -0.08605135 -0.071935575
v 0.26893625 -0.088597175 -0.0538017
v 0.240152 -0.0638113 -0.085417325
v 0.253731 -0.065562425 -0.067772775
v 0.27689675 -0.091640125 -0.03470065
v 0.2382605 -0.043498375 -0.082662225
v 0.26353925 -0.06791215 -0.0478478
v 0.25105825 -0.045047125 -0.0644152
v 0.23610975 -0.023134225 -0.0799515
v 0.26808725 -0.070907175 -0.0260764425
v 0.259524 -0.047095625 -0.04346445
v 0.248326 -0.024592 -0.06138895
v 0.23363025 -0.002812165 -0.0773027
v 0.23067225 0.017398835 -0.0746333
v 0.24541325 -0.00424412 -0.05855335
v 0.227253 0.0374818 -0.071845825
v 0.22332925 0.0572472 -0.068705975
v 0.2558475 -0.026569425 -0.040303725
v 0.24213675 0.015966205 -0.055836725
v 0.270472 -0.080785525 -0.0059907225
v 0.20454625 0.077994325 -0.0806365
v 0.21875725 0.076450075 -0.0650056
v 0.25208525 -0.0061888775 -0.037437925
v 0.261581 -0.04910565 -0.020144805
v 0.25646025 -0.0280795 -0.0175895425
v 0.251441 -0.0073039125 -0.01530448
v 0.24801675 0.0140686975 -0.0348343
v 0.2382975 0.03613715 -0.053002525
v 0.25887 -0.06852215 0.010631985
v 0.26275 -0.0874305 0.0241716025
v 0.213663 0.0944722 -0.060505025
v 0.22819975 0.075529675 -0.04682285
v 0.23376525 0.0561147 -0.0499451
v 0.24336475 0.034359425 -0.03229955
v 0.24622 0.0133422375 -0.0132638875
v 0.23772575 0.054773325 -0.0295769
v 0.24009025 0.03380645 -0.0113496685
v 0.221123 0.09364705 -0.04454965
v 0.22062275 0.095361075 -0.0260825
v 0.23033325 0.07519705 -0.027035425
f 5 178 472 181
f 7 179 472 178
f 4 180 472 179
f 1 181 472 180
f 2 182 473 184
f 3 183 473 182
f 5 181 473 183
f 1 184 473 181
f 8 185 474 187
f 13 186 474 185
f 5 183 474 186
f 3 187 474 183
f 13 188 475 186
f 15 189 475 188
f 7 178 475 189
f 5 186 475 178
f 10 190 476 193
f 14 191 476 190
f 8 192 476 191
f 6 193 476 192
f 15 194 477 189
f 16 195 477 194
f 9 196 477 195
f 7 189 477 196
f 14 197 478 191
f 19 198 478 197
f 13 185 478 198
f 8 191 478 185
f 18 199 479 201
f 20 200 479 199
f 14 190 479 200
f 10 201 479 190
f 11 202 480 204
f 17 203 480 202
f 18 201 480 203
f 10 204 480 201
f 19 205 481 198
f 23 206 481 205
f 15 188 481 206
f 13 198 481 188
f 20 207 482 200
f 24 208 482 207
f 19 197 482 208
f 14 200 482 197
f 21 209 483 211
f 22 210 483 209
f 18 203 483 210
f 17 211 483 203
f 22 212 484 210
f 25 213 484 212
f 20 199 484 213
f 18 210 484 199
f 28 214 485 216
f 27 215 485 214
f 22 209 485 215
f 21 216 485 209
f 36 217 486 220
f 38 218 486 217
f 30 219 486 218
f 26 220 486 219
f 31 221 487 224
f 37 222 487 221
f 33 223 487 222
f 28 224 487 223
f 32 225 488 228
f 39 226 488 225
f 36 227 488 226
f 29 228 488 227
f 38 229 489 218
f 46 230 489 229
f 35 231 489 230
f 30 218 489 231
f 41 232 490 234
f 43 233 490 232
f 39 225 490 233
f 32 234 490 225
f 46 235 491 230
f 49 236 491 235
f 44 237 491 236
f 35 230 491 237
f 39 238 492 226
f 45 239 492 238
f 38 217 492 239
f 36 226 492 217
f 45 240 493 239
f 50 241 493 240
f 46 229 493 241
f 38 239 493 229
f 43 242 494 233
f 51 243 494 242
f 45 238 494 243
f 39 233 494 238
f 48 244 495 246
f 52 245 495 244
f 43 232 495 245
f 41 246 495 232
f 42 247 496 249
f 47 248 496 247
f 48 246 496 248
f 41 249 496 246
f 52 250 497 245
f 55 251 497 250
f 51 242 497 251
f 43 245 497 242
f 51 252 498 243
f 54 253 498 252
f 50 240 498 253
f 45 243 498 240
f 50 254 499 241
f 53 255 499 254
f 49 235 499 255
f 46 241 499 235
f 56 256 500 258
f 59 257 500 256
f 48 248 500 257
f 47 258 500 248
f 59 259 501 257
f 61 260 501 259
f 52 244 501 260
f 48 257 501 244
f 54 261 502 253
f 57 262 502 261
f 53 254 502 262
f 50 253 502 254
f 55 263 503 251
f 60 264 503 263
f 54 252 503 264
f 51 251 503 252
f 61 265 504 260
f 58 266 504 265
f 55 250 504 266
f 52 260 504 250
f 57 267 505 262
f 69 268 505 267
f 62 269 505 268
f 53 262 505 269
f 60 270 506 264
f 66 271 506 270
f 57 261 506 271
f 54 264 506 261
f 58 272 507 266
f 63 273 507 272
f 60 263 507 273
f 55 266 507 263
f 68 274 508 276
f 72 275 508 274
f 59 256 508 275
f 56 276 508 256
f 64 277 509 279
f 73 278 509 277
f 68 276 509 278
f 56 279 509 276
f 66 280 510 271
f 70 281 510 280
f 69 267 510 281
f 57 271 510 267
f 74 282 511 284
f 71 283 511 282
f 63 272 511 283
f 58 284 511 272
f 61 285 512 265
f 67 286 512 285
f 74 284 512 286
f 58 265 512 284
f 72 287 513 275
f 67 285 513 287
f 61 259 513 285
f 59 275 513 259
f 63 288 514 273
f 65 289 514 288
f 66 270 514 289
f 60 273 514 270
f 71 290 515 283
f 78 291 515 290
f 65 288 515 291
f 63 283 515 288
f 78 292 516 291
f 93 293 516 292
f 12 294 516 293
f 65 291 516 294
f 12 295 517 294
f 70 280 517 295
f 66 289 517 280
f 65 294 517 289
f 81 296 518 298
f 79 297 518 296
f 74 286 518 297
f 67 298 518 286
f 72 299 519 287
f 80 300 519 299
f 81 298 519 300
f 67 287 519 298
f 82 301 520 302
f 80 299 520 301
f 72 274 520 299
f 68 302 520 274
f 73 303 521 278
f 76 304 521 303
f 82 302 521 304
f 68 278 521 302
f 70 305 522 281
f 87 306 522 305
f 77 307 522 306
f 69 281 522 307
f 85 308 523 310
f 84 309 523 308
f 78 290 523 309
f 71 310 523 290
f 74 297 524 282
f 79 311 524 297
f 85 310 524 311
f 71 282 524 310
f 75 312 525 314
f 83 313 525 312
f 76 303 525 313
f 73 314 525 303
f 87 315 526 306
f 97 316 526 315
f 92 317 526 316
f 77 306 526 317
f 84 318 527 309
f 89 319 527 318
f 93 292 527 319
f 78 309 527 292
f 96 320 528 322
f 90 321 528 320
f 85 311 528 321
f 79 322 528 311
f 81 323 529 296
f 95 324 529 323
f 96 322 529 324
f 79 296 529 322
f 91 325 530 326
f 95 323 530 325
f 81 300 530 323
f 80 326 530 300
f 88 327 531 329
f 100 328 531 327
f 89 318 531 328
f 84 329 531 318
f 85 321 532 308
f 90 330 532 321
f 88 329 532 330
f 84 308 532 329
f 101 331 533 333
f 109 332 533 331
f 100 327 533 332
f 88 333 533 327
f 90 334 534 330
f 105 335 534 334
f 101 333 534 335
f 88 330 534 333
f 100 336 535 328
f 113 337 535 336
f 99 338 535 337
f 89 328 535 338
f 99 339 536 338
f 94 340 536 339
f 93 319 536 340
f 89 338 536 319
f 96 341 537 320
f 102 342 537 341
f 105 334 537 342
f 90 320 537 334
f 94 343 538 340
f 107 344 538 343
f 12 293 538 344
f 93 340 538 293
f 99 345 539 339
f 108 346 539 345
f 98 347 539 346
f 94 339 539 347
f 98 348 540 347
f 112 349 540 348
f 107 343 540 349
f 94 347 540 343
f 108 350 541 346
f 106 351 541 350
f 104 352 541 351
f 98 346 541 352
f 104 353 542 352
f 111 354 542 353
f 112 348 542 354
f 98 352 542 348
f 113 355 543 337
f 114 356 543 355
f 108 345 543 356
f 99 337 543 345
f 109 357 544 332
f 119 358 544 357
f 113 336 544 358
f 100 332 544 336
f 118 359 545 361
f 117 360 545 359
f 109 331 545 360
f 101 361 545 331
f 108 356 546 350
f 114 362 546 356
f 115 363 546 362
f 106 350 546 363
f 119 364 547 358
f 120 365 547 364
f 114 355 547 365
f 113 358 547 355
f 120 366 548 365
f 121 367 548 366
f 115 362 548 367
f 114 365 548 362
f 121 368 549 367
f 123 369 549 368
f 122 370 549 369
f 115 367 549 370
f 125 371 550 374
f 126 372 550 371
f 124 373 550 372
f 122 374 550 373
f 128 375 551 377
f 131 376 551 375
f 126 371 551 376
f 125 377 551 371
f 131 378 552 376
f 134 379 552 378
f 129 380 552 379
f 126 376 552 380
f 130 381 553 384
f 132 382 553 381
f 128 383 553 382
f 127 384 553 383
f 132 385 554 382
f 136 386 554 385
f 131 375 554 386
f 128 382 554 375
f 134 387 555 379
f 145 388 555 387
f 135 389 555 388
f 129 379 555 389
f 133 390 556 392
f 137 391 556 390
f 132 381 556 391
f 130 392 556 381
f 136 393 557 386
f 148 394 557 393
f 134 378 557 394
f 131 386 557 378
f 137 395 558 391
f 143 396 558 395
f 136 385 558 396
f 132 391 558 385
f 138 397 559 399
f 140 398 559 397
f 137 390 559 398
f 133 399 559 390
f 148 400 560 394
f 40 401 560 400
f 145 387 560 401
f 134 394 560 387
f 143 402 561 396
f 152 403 561 402
f 148 393 561 403
f 136 396 561 393
f 140 404 562 398
f 147 405 562 404
f 143 395 562 405
f 137 398 562 395
f 139 406 563 408
f 144 407 563 406
f 140 397 563 407
f 138 408 563 397
f 141 409 564 411
f 155 410 564 409
f 144 406 564 410
f 139 411 564 406
f 144 412 565 407
f 154 413 565 412
f 147 404 565 413
f 140 407 565 404
f 142 414 566 416
f 159 415 566 414
f 155 409 566 415
f 141 416 566 409
f 146 417 567 419
f 158 418 567 417
f 159 414 567 418
f 142 419 567 414
f 147 420 568 405
f 153 421 568 420
f 152 402 568 421
f 143 405 568 402
f 155 422 569 410
f 161 423 569 422
f 154 412 569 423
f 144 410 569 412
f 40 424 570 401
f 156 425 570 424
f 149 426 570 425
f 145 401 570 426
f 150 427 571 430
f 160 428 571 427
f 157 429 571 428
f 146 430 571 429
f 157 431 572 429
f 169 432 572 431
f 158 417 572 432
f 146 429 572 417
f 154 433 573 413
f 162 434 573 433
f 153 420 573 434
f 147 413 573 420
f 152 435 574 403
f 167 436 574 435
f 40 400 574 436
f 148 403 574 400
f 153 437 575 421
f 168 438 575 437
f 167 435 575 438
f 152 421 575 435
f 162 439 576 434
f 173 440 576 439
f 168 437 576 440
f 153 434 576 437
f 161 441 577 423
f 166 442 577 441
f 162 433 577 442
f 154 423 577 433
f 159 443 578 415
f 165 444 578 443
f 161 422 578 444
f 155 415 578 422
f 40 445 579 424
f 175 446 579 445
f 172 447 579 446
f 156 424 579 447
f 172 448 580 447
f 171 449 580 448
f 163 450 580 449
f 156 447 580 450
f 170 451 581 453
f 34 452 581 451
f 169 431 581 452
f 157 453 581 431
f 169 454 582 432
f 116 455 582 454
f 151 456 582 455
f 158 432 582 456
f 151 457 583 456
f 165 443 583 457
f 159 418 583 443
f 158 456 583 418
f 165 458 584 444
f 174 459 584 458
f 166 441 584 459
f 161 444 584 441
f 166 460 585 442
f 177 461 585 460
f 173 439 585 461
f 162 442 585 439
f 151 462 586 457
f 164 463 586 462
f 174 458 586 463
f 165 457 586 458
f 174 464 587 459
f 110 465 587 464
f 177 460 587 465
f 166 459 587 460
f 34 466 588 452
f 176 467 588 466
f 116 454 588 467
f 169 452 588 454
f 86 468 589 470
f 103 469 589 468
f 116 467 589 469
f 176 470 589 467
f 151 455 590 462
f 116 469 590 455
f 103 471 590 469
f 164 462 590 471
