# https://github.com/mikedh/trimesh
v -0.03494325 -0.36594076 -0.16599700
v -0.04524850 -0.34586151 -0.16513375
v -0.03010450 -0.38755875 -0.16571975
v -0.02033900 -0.40579200 -0.16524900
v -0.01901050 -0.41392650 -0.16527050
v -0.00584400 -0.44402999 -0.16602901
v 0.06699000 0.14731900 -0.07096100
v 0.05469512 0.14494400 -0.07566537
v -0.03381875 0.02737850 -0.11016575
v 0.03721162 0.12947562 -0.08543738
v 0.03417100 0.11462900 -0.09127000
v 0.00752100 0.09388500 -0.09835200
v 0.00406700 0.08796300 -0.09996950
v -0.00481600 0.08302800 -0.10130600
v -0.01135625 0.06146187 -0.10568575
v -0.05466075 -0.03230963 -0.11403950
v -0.06008100 -0.11576200 -0.11962000
v -0.08375344 -0.15856694 -0.12073450
v -0.08932600 -0.18705750 -0.12481650
v -0.05876650 -0.24574525 -0.14575000
v -0.05651600 -0.29454200 -0.15829050
v -0.04725800 -0.31868699 -0.16284400
v 0.14427701 0.12649100 -0.04956100
v 0.12145400 0.13265150 -0.06111350
v 0.06457600 -0.46031500 -0.16095000
v 0.01967450 -0.45113299 -0.16482500
v 0.24969875 -0.23772112 -0.01095950
v 0.26120424 -0.25017050 -0.00218700
v 0.24105750 -0.22079075 -0.02295300
v 0.23892875 -0.20681050 -0.02487975
v 0.23888400 -0.20123200 -0.02147200
v 0.24631700 -0.15449775 -0.00685925
v 0.24390999 -0.17359101 -0.01026750
v 0.08467200 -0.45757899 -0.15899000
v 0.09031800 -0.45629999 -0.15834700
v 0.09639250 -0.45514150 -0.15757800
v -0.08522850 -0.20155750 -0.12906950
v 0.23059200 -0.21424200 -0.06824200
v 0.22540209 -0.21507087 -0.07677463
v 0.22765876 -0.22311387 -0.07651769
v 0.23454300 -0.22018403 -0.06343029
v 0.23506200 -0.21424300 -0.05895228
v 0.23102369 -0.23729384 -0.07950487
v 0.23901343 -0.23061082 -0.06067299
v 0.23815100 -0.22583200 -0.05843800
v 0.23939520 -0.22413452 -0.05315098
v 0.24271804 -0.25089150 -0.07066218
v 0.25232651 -0.25465303 -0.05582003
v 0.22627463 -0.24370929 -0.08878926
v 0.26467130 -0.27943886 -0.05549030
v 0.25157132 -0.27343808 -0.07282940
v 0.24315518 -0.26345107 -0.07849289
v 0.24540115 -0.28208421 -0.08620913
v 0.25723401 -0.28019699 -0.06847300
v 0.24047789 -0.27027648 -0.08593950
v 0.27021147 -0.30701000 -0.06416917
v 0.26289980 -0.29612775 -0.06945599
v 0.26846028 -0.29016725 -0.05728556
v 0.26062853 -0.28287401 -0.06492695
v 0.26954577 -0.28074482 -0.04712003
v 0.28085466 -0.29608726 -0.03838511
v 0.28676656 -0.29132489 -0.02052967
v 0.30487923 -0.30480352 0.00704565
v 0.29312107 -0.29732506 -0.01264855
v 0.27911559 -0.28070700 -0.02629786
v 0.26582275 -0.26402551 -0.03471469
v 0.29272049 -0.31455355 -0.02575424
v 0.28469040 -0.34794354 -0.05055052
v 0.28025151 -0.33706325 -0.05673345
v 0.29059191 -0.31964465 -0.03223257
v 0.27987472 -0.32561653 -0.05485096
v 0.27153316 -0.32039327 -0.06657888
v 0.27541282 -0.32668164 -0.06252184
v 0.26914358 -0.33107529 -0.07251263
v 0.27482256 -0.34212947 -0.06606319
v 0.24938818 -0.29415739 -0.08613984
v 0.26711344 -0.34810107 -0.07772430
v 0.25043499 -0.30077401 -0.08746000
v 0.21783520 -0.22397693 -0.08880059
v 0.26175377 -0.30946518 -0.07740205
v 0.23894628 -0.21536725 -0.04680579
v 0.26420293 -0.34034810 -0.08037379
v 0.25013138 -0.31820956 -0.09268442
v 0.21938517 -0.21098026 -0.08293605
v 0.24645961 -0.30467281 -0.09318605
v 0.23154390 -0.26907970 -0.09508231
v 0.27660999 -0.35348001 -0.06422900
v 0.26634436 -0.37328803 -0.07857786
v 0.22951634 -0.20529466 -0.06813698
v 0.25928078 -0.32404708 -0.08381945
v 0.23849977 -0.27399810 -0.09007475
v 0.26398361 -0.36947526 -0.08150179
v 0.21732135 -0.25316744 -0.10122071
v 0.22584932 -0.19910426 -0.07300838
v 0.25946246 -0.42471285 -0.08456022
v 0.22038436 -0.19216068 -0.07925246
v 0.23339107 -0.18941655 -0.06102080
v 0.26459292 -0.41363218 -0.07772588
v 0.24290823 -0.32779260 -0.10110869
v 0.24139418 -0.31573432 -0.10033228
v 0.22974570 -0.18298815 -0.06763542
v 0.23466288 -0.15369658 -0.06207976
v 0.22565739 -0.18393117 -0.07318502
v 0.23528810 -0.13736673 -0.06122772
v 0.23649400 -0.12274100 -0.05778200
v 0.22974305 -0.09001443 -0.06136380
v 0.22786972 -0.09226839 -0.06459780
v 0.21920737 -0.02263698 -0.05741975
v 0.21943761 -0.04419976 -0.06362229
v 0.23591453 -0.11526355 -0.05796127
v 0.21672472 -0.00790476 -0.05562697
v 0.21381539 -0.01510897 -0.06320491
v 0.21028008 -0.01156201 -0.06630050
v 0.23667233 -0.09704095 -0.05163587
v 0.23341029 -0.11754550 -0.06180587
v 0.21948155 -0.01490243 -0.05371681
v 0.20453730 0.02675738 -0.05939595
v 0.23076784 -0.07138914 -0.05419204
v 0.20979779 0.00789759 -0.06020255
v 0.24067499 -0.13040818 -0.05179053
v 0.22895101 -0.14017774 -0.06976640
v 0.23010915 -0.14953220 -0.06854895
v 0.22886965 -0.05173827 -0.04964316
v 0.20039716 0.02219646 -0.06687934
v 0.22111289 -0.01159752 -0.04846323
v 0.22832611 -0.11920247 -0.06871367
v 0.23987931 -0.11393623 -0.04979040
v 0.21171670 0.01649143 -0.05250412
v 0.20246779 0.02011114 -0.06474279
v 0.22112497 -0.09088731 -0.07190351
v 0.23852495 -0.14663396 -0.05622486
v 0.23971765 -0.14992434 -0.05365894
v 0.21180608 -0.05334104 -0.07384331
v 0.25945739 -0.38511919 -0.08583138
v 0.26059226 -0.37110583 -0.08530449
v 0.25507196 -0.36660666 -0.09143222
v 0.23398484 -0.07613468 -0.04885591
v 0.23243910 -0.18771410 -0.06300739
v 0.19309330 0.03277096 -0.07053003
v 0.21409938 0.01347930 -0.04991180
v 0.22256443 -0.15416812 -0.07661563
v 0.24065106 -0.10750240 -0.04598528
v 0.25811147 -0.41153555 -0.08545586
v 0.19741091 0.04692650 -0.05897235
v 0.19057702 0.06202021 -0.05884010
v 0.20888797 0.03017158 -0.04900737
v 0.20979500 -0.04232100 -0.07343900
v 0.20641124 -0.03227760 -0.07461261
v 0.19943609 -0.01304798 -0.07693493
v 0.20322800 -0.00532673 -0.07172276
v 0.19567161 0.01009717 -0.07494912
v 0.25311880 -0.41178319 -0.09052689
v 0.25607361 -0.34057256 -0.08972914
v 0.21920562 -0.12100178 -0.07783691
v 0.21846454 -0.11076276 -0.07728433
v 0.22356200 -0.13534901 -0.07490200
v 0.21475808 -0.12745147 -0.08218542
v 0.21356203 -0.08476167 -0.07792152
v 0.24462617 -0.14089197 -0.04188620
v 0.23973829 -0.29853373 -0.09774656
v 0.18324189 0.06961698 -0.06381984
v 0.22441182 -0.02146422 -0.04555358
v 0.23929690 -0.09025652 -0.04115454
v 0.23563134 -0.20004668 -0.05468216
v 0.18857480 0.05742582 -0.06485532
v 0.21462857 -0.18883124 -0.08472968
v 0.21862118 -0.14803165 -0.08010988
v 0.24942280 -0.35560779 -0.09678038
v 0.24926201 -0.33842799 -0.09604300
v 0.24667770 -0.32942411 -0.09765695
v 0.25052699 -0.35348001 -0.09557900
v 0.24349685 -0.33297787 -0.10090733
v 0.17523396 0.08065676 -0.06582711
v 0.21263875 -0.21193032 -0.08996357
v 0.18584863 0.03992910 -0.07480001
v 0.17859077 0.06757819 -0.06983519
v 0.21037846 -0.21469419 -0.09277947
v 0.23625296 -0.28715413 -0.09746528
v 0.24267304 -0.40537975 -0.10021017
v 0.23167750 -0.28296901 -0.10021627
v 0.21340858 -0.20032721 -0.08695788
v 0.20579366 -0.05603530 -0.07939613
v 0.21072945 -0.20060789 -0.08928875
v 0.24397114 -0.12106998 -0.04090016
v 0.23254021 -0.20098908 -0.06175796
v 0.20043371 0.05443676 -0.04598367
v 0.22683058 -0.02766875 -0.04160175
v 0.24864235 -0.42008187 -0.09479218
v 0.18039712 0.05026862 -0.07560360
v 0.22517562 -0.28714481 -0.10679127
v 0.23770612 -0.20125529 -0.04807388
v 0.21672707 -0.18259911 -0.08253562
v 0.22825604 -0.29948779 -0.10764805
v 0.23759280 -0.19123635 -0.05073606
v 0.23994894 -0.16695978 -0.05121221
v 0.19552671 -0.03838839 -0.08420004
v 0.24243331 -0.15907731 -0.04637038
v 0.24276542 -0.16270634 -0.04420917
v 0.20538339 -0.19469097 -0.09277213
v 0.22637049 -0.31645776 -0.11209072
v 0.24400941 -0.11759452 -0.03991196
v 0.23659349 -0.20767639 -0.05247112
v 0.18097379 0.03063379 -0.08105890
v 0.18722799 0.01364374 -0.08070470
v 0.20960521 -0.22268576 -0.09593655
v 0.22026904 0.00082161 -0.04197274
v 0.19188333 0.06813582 -0.05129886
v 0.17446932 0.07575568 -0.06936714
v 0.24268640 -0.10287068 -0.03578083
v 0.23759395 -0.36643446 -0.10663027
v 0.22654678 -0.33780478 -0.11395864
v 0.23488373 -0.34562786 -0.10820545
v 0.24655038 -0.14806816 -0.03410992
v 0.17218301 0.07653000 -0.07101500
v 0.20087435 -0.22035343 -0.10176224
v 0.19604883 -0.02215017 -0.08117116
v 0.16764605 0.08076733 -0.07260609
v 0.23745512 -0.37990926 -0.10607746
v 0.24234804 -0.41895182 -0.10014889
v 0.23802747 -0.41680335 -0.10362669
v 0.16574202 0.09270105 -0.06689441
v 0.24286689 -0.22547534 -0.04125800
v 0.24131087 -0.22215761 -0.04310019
v 0.21480817 -0.09939105 -0.07909714
v 0.20778804 -0.08944747 -0.08299392
v 0.16836099 0.08345700 -0.07041500
v 0.17176255 0.06662101 -0.07620556
v 0.23928663 -0.19260661 -0.04465236
v 0.22728612 -0.32405910 -0.11226912
v 0.22335548 -0.00767910 -0.03680964
v 0.20489124 -0.21060534 -0.09610747
v 0.16679513 0.09867949 -0.06076845
v 0.24699529 -0.13599764 -0.03204716
v 0.29637698 -0.29087315 0.00174448
v 0.18432839 0.08188432 -0.05186099
v 0.17421407 0.04380087 -0.08217571
v 0.16636818 0.05397240 -0.08385272
v 0.23435163 -0.42583869 -0.10668079
v 0.23748634 -0.40681336 -0.10409503
v 0.22761111 -0.36810063 -0.11313565
v 0.18733055 -0.20513576 -0.10590596
v 0.24517985 -0.11490016 -0.03116353
v 0.16298100 0.09438300 -0.06798900
v 0.16828020 0.07316624 -0.07591819
v 0.23925801 -0.20518100 -0.03923800
v 0.24721136 -0.23799557 -0.04628480
v 0.26127729 -0.25949849 -0.04013459
v 0.21093271 0.03329066 -0.03951118
v 0.19789628 -0.19525037 -0.09791103
v 0.22414553 -0.40373199 -0.11315702
v 0.24490446 -0.16403059 -0.03603459
v 0.22271503 -0.34963081 -0.11640892
v 0.24073814 -0.21825698 -0.03779481
v 0.22573550 -0.41968605 -0.11189333
v 0.24587089 -0.12876922 -0.03730073
v 0.21739515 0.01515566 -0.03728586
v 0.15943066 0.10890377 -0.05862959
v 0.24694405 -0.12995678 -0.03070100
v 0.24767732 -0.14323823 -0.02692809
v 0.22280181 -0.34477232 -0.11621131
v 0.18922256 -0.01321798 -0.08424964
v 0.24082220 -0.18974743 -0.03887479
v 0.24991422 -0.23853052 -0.03416511
v 0.23945511 -0.20554332 -0.03599803
v 0.22534755 -0.43244975 -0.11361589
v 0.19259319 -0.21623710 -0.10573674
v 0.19014502 -0.24183545 -0.11530447
v 0.21165975 -0.41708287 -0.12004837
v 0.28635198 -0.27776574 -0.00232592
v 0.17710831 0.08897818 -0.05737846
v 0.24219941 -0.09764918 -0.03244985
v 0.21900373 -0.42578436 -0.11650497
v 0.20976161 -0.42203148 -0.12119695
v 0.15756721 0.09243867 -0.07382161
v 0.15739950 0.10460496 -0.06513102
v 0.24674450 -0.15878005 -0.02740510
v 0.16038689 0.06236481 -0.08480107
v 0.15958445 0.07545782 -0.08056461
v 0.21231222 -0.43309661 -0.12109868
v 0.19703400 -0.26599634 -0.11893821
v 0.15925070 0.11192057 -0.05562683
v 0.16742033 0.03877938 -0.08709184
v 0.15547900 0.10909200 -0.06246400
v 0.19625518 -0.18859843 -0.09809012
v 0.18899084 -0.20008295 -0.10377438
v 0.18026813 -0.21999076 -0.11332810
v 0.15261791 0.09889112 -0.07313467
v 0.15404532 0.09352932 -0.07560894
v 0.17714314 0.01121708 -0.08724803
v 0.23956668 -0.19875314 -0.03953792
v 0.22604325 -0.44351949 -0.11552625
v 0.21303600 -0.44207299 -0.12229300
v 0.18927689 -0.18184870 -0.10103229
v 0.17565986 -0.20211424 -0.11070195
v 0.26948101 -0.25970736 -0.01224705
v 0.23522639 -0.06368561 -0.03293563
v 0.14759141 0.11119955 -0.06714924
v 0.20050530 -0.44052302 -0.12799867
v 0.20775149 -0.42760609 -0.12264923
v 0.18228261 -0.19133293 -0.10548847
v 0.18842397 -0.15600964 -0.09932820
v 0.15618262 0.06211911 -0.08722074
v 0.26104558 -0.25461831 -0.03055545
v 0.14143288 0.10219172 -0.07737710
v 0.25516329 -0.24696306 -0.03446030
v 0.20529699 -0.45062199 -0.12764400
v 0.14115011 0.08553383 -0.08557302
v 0.19029951 -0.42593077 -0.13055148
v 0.18714304 -0.43231481 -0.13259874
v 0.18270695 -0.42436351 -0.13355201
v 0.14231873 0.08872408 -0.08360015
v 0.19359840 -0.41060747 -0.12864780
v 0.23974911 -0.21197226 -0.03261026
v 0.14825004 0.11957406 -0.05781256
v 0.24721779 -0.15595337 -0.01902591
v 0.14601178 0.06287517 -0.09081688
v 0.14885774 0.05784436 -0.09090502
v 0.24792424 -0.14589777 -0.02057959
v 0.13705509 0.11988493 -0.06624861
v 0.17504551 -0.16473338 -0.10533135
v 0.17454885 -0.18958676 -0.10845231
v 0.27887203 -0.26575153 0.00502078
v 0.24899244 -0.23614070 -0.02986528
v 0.24085987 -0.19417532 -0.02706205
v 0.24738562 -0.15232022 -0.01357870
v 0.17517800 -0.42090147 -0.13622822
v 0.16200077 -0.19436073 -0.11395422
v 0.13941879 0.05410274 -0.09497058
v 0.13869744 0.06429729 -0.09288487
v 0.27849981 -0.26939377 -0.00786063
v 0.24595837 -0.16708887 -0.02115798
v 0.17069081 -0.43426984 -0.13917464
v 0.16438400 -0.44821000 -0.14297500
v 0.15957300 -0.44834000 -0.14449500
v 0.13775275 -0.42316866 -0.14789665
v 0.14726106 -0.43863161 -0.14706497
v 0.16659134 -0.17902194 -0.10977413
v 0.13315565 0.07616870 -0.09144317
v 0.15532485 -0.21284212 -0.12091467
v 0.13920124 0.10980370 -0.07356023
v 0.12481434 0.12254211 -0.07050218
v 0.18126801 -0.45083600 -0.13758200
v 0.15608580 -0.42147487 -0.14272286
v 0.13169519 0.08435062 -0.08907438
v 0.13016654 0.10913005 -0.07814552
v 0.13420210 -0.20176758 -0.12387099
v 0.12758175 0.12642896 -0.06539669
v 0.14876973 -0.19469814 -0.11823510
v 0.15316438 -0.17914269 -0.11399467
v 0.12408562 0.08809786 -0.08971746
v 0.13043703 0.05402113 -0.09734035
v 0.12870107 0.09768900 -0.08453090
v 0.14775293 -0.41276591 -0.14496340
v 0.13753769 -0.18656384 -0.11946980
v 0.12920791 0.06431782 -0.09546706
v 0.24228062 -0.22244873 -0.03044078
v 0.14788126 -0.16030059 -0.11299242
v 0.13602664 -0.17473828 -0.11775581
v 0.11981979 0.11794878 -0.07576316
v 0.08506206 0.13564860 -0.07368321
v 0.13194603 -0.19520205 -0.12260118
v 0.25468969 -0.24373381 -0.02107097
v 0.24630165 -0.16430542 -0.01474504
v 0.13307854 -0.41723969 -0.14869264
v 0.12161427 0.11071237 -0.07962767
v 0.11813714 0.06295088 -0.09799005
v 0.11895059 0.07385407 -0.09522596
v 0.12448300 -0.18544000 -0.12198200
v 0.09890443 -0.19901708 -0.12955144
v 0.11369258 -0.20096321 -0.12761550
v 0.11594832 -0.16963459 -0.12075812
v 0.12937826 -0.17691069 -0.11947327
v 0.11384010 -0.18788403 -0.12438136
v 0.11480874 -0.41546018 -0.15249248
v 0.13619424 0.12481183 -0.06170893
v 0.14707200 -0.45119475 -0.14815025
v 0.09120932 0.13012766 -0.07568398
v 0.08877193 0.13935558 -0.06963661
v 0.11064304 0.13368525 -0.06597639
v 0.08373195 0.13017202 -0.07751082
v 0.11701800 0.07163800 -0.09610500
v 0.12034416 -0.40295151 -0.15165261
v 0.27260231 -0.26064662 -0.00048601
v 0.05758105 0.13843341 -0.07878645
v 0.10335174 0.11500519 -0.08190882
v 0.24845842 -0.23523466 -0.01971478
v 0.26051757 -0.25016772 -0.01517901
v 0.07653701 -0.18932441 -0.13001462
v 0.08576300 -0.19790800 -0.13105300
v 0.09866851 -0.45010639 -0.15739347
v 0.11728250 -0.45254500 -0.15443250
v 0.23948146 -0.20083555 -0.02659645
v 0.26955041 -0.25737300 0.00242987
v -0.05508223 -0.20082268 -0.13251013
v -0.03800944 -0.20381116 -0.13489145
v -0.04355612 -0.19608974 -0.13234099
v -0.04852880 -0.18455943 -0.12919171
v -0.02958016 -0.18758451 -0.13130856
v -0.01057600 -0.19234300 -0.13340300
v -0.00385781 -0.18477756 -0.13189018
v 0.03069900 -0.17496660 -0.12995219
v 0.04891114 -0.17874996 -0.12992684
v 0.04436737 -0.19194517 -0.13313338
v 0.01988719 -0.19619847 -0.13477599
v 0.08110833 -0.17900900 -0.12736802
v 0.06127626 -0.10825898 -0.12124885
v 0.10298587 -0.07868196 -0.11479772
v 0.11068327 -0.08089739 -0.11391734
v 0.09379673 -0.09453571 -0.11712303
v 0.07676349 -0.07805335 -0.11748206
v 0.11067510 -0.04824288 -0.11115875
v 0.12086837 -0.07631913 -0.11197642
v 0.12821747 -0.04086594 -0.10773801
v 0.13960914 -0.05851415 -0.10706908
v 0.10626268 -0.03519267 -0.11064231
v 0.09008044 -0.00770016 -0.11006892
v 0.11595108 0.00333266 -0.10599528
v 0.12803613 -0.00073749 -0.10435897
v 0.16645032 -0.04951581 -0.09861947
v 0.15403997 0.02193844 -0.09549015
v 0.14994672 0.03660362 -0.09474162
v 0.15450496 0.01846037 -0.09587676
v 0.16264340 0.04268598 -0.08898505
v 0.18136050 -0.01906592 -0.08932020
v 0.18042608 -0.00245224 -0.08760728
v 0.19856810 -0.08205745 -0.08794419
v 0.20399964 -0.12127719 -0.08905199
v 0.20472642 -0.09468386 -0.08567450
v 0.20876114 -0.17949724 -0.08898075
v 0.20602853 -0.13208666 -0.08848439
v 0.19860439 -0.16717194 -0.09503453
v 0.19500841 -0.12438095 -0.09413838
v 0.19002683 -0.13752420 -0.09731824
v 0.18137564 -0.08468109 -0.09657204
v 0.18686831 -0.11718705 -0.09740309
v 0.19509189 -0.08012526 -0.08967314
v 0.18532303 -0.04810204 -0.09091528
v 0.18589687 -0.08051308 -0.09412997
v 0.17773282 -0.11499791 -0.10070103
v 0.16665250 -0.07441924 -0.10093971
v 0.15672812 -0.15072382 -0.10968504
v 0.14755272 -0.11203893 -0.10942176
v 0.14168300 -0.13056999 -0.11210000
v 0.13349746 -0.15751128 -0.11607133
v 0.11854168 -0.13617554 -0.11701795
v 0.13129410 -0.13809019 -0.11492182
v 0.09546236 -0.17454535 -0.12471140
v 0.08034500 -0.17193000 -0.12616400
v 0.06841320 -0.16699479 -0.12655864
v 0.04244582 -0.16658608 -0.12815038
v 0.02802025 -0.15973606 -0.12770844
v 0.06863379 -0.14624017 -0.12401155
v 0.05405123 -0.14237664 -0.12472752
v 0.08106501 -0.15137937 -0.12330276
v 0.12562939 -0.10818899 -0.11372150
v 0.14049393 -0.08242362 -0.10871464
v 0.15342513 -0.07499178 -0.10501371
v 0.17276507 -0.00897800 -0.09207496
v 0.17501544 -0.03779210 -0.09425458
v 0.17979789 -0.04630710 -0.09320620
v 0.15975156 -0.00540623 -0.09648676
v 0.15338705 -0.02833398 -0.10077094
v 0.16216959 -0.10821926 -0.10525521
v 0.15569748 -0.13747705 -0.10915770
v 0.13865200 -0.11733600 -0.11187700
v 0.11164236 -0.14076346 -0.11841083
v 0.10804731 -0.11945067 -0.11737307
v 0.10304602 -0.15663587 -0.12121335
v 0.12905007 0.02678365 -0.10140410
v 0.14558483 0.01113815 -0.09919775
v 0.13566384 0.00548396 -0.10220422
v 0.13098655 0.04021938 -0.09929419
v 0.13740697 0.04029950 -0.09766785
v 0.11211264 0.03768069 -0.10315674
v 0.10308743 0.02180681 -0.10601327
v 0.08758099 0.01565712 -0.10829032
v 0.08413233 0.04066159 -0.10578874
v 0.10402579 0.05355921 -0.10174426
v 0.08859123 0.05193700 -0.10366213
v 0.07061428 -0.04454605 -0.11490480
v 0.06405600 -0.07302900 -0.11797400
v 0.05466420 -0.03900108 -0.11546542
v 0.07756840 -0.00063568 -0.11052655
v 0.02454654 -0.13658357 -0.12543014
v -0.00791742 -0.14306928 -0.12567328
v 0.00119510 -0.15794914 -0.12747801
v 0.02226040 -0.17813138 -0.13059877
v -0.04062162 -0.17407598 -0.12782801
v -0.06839446 -0.18056646 -0.12624942
v -0.07841709 -0.19047759 -0.12711356
v -0.04847647 -0.16202457 -0.12529474
v -0.02676746 -0.15470287 -0.12596739
v -0.03239997 -0.13994768 -0.12409384
v -0.04097216 -0.14311567 -0.12375408
v -0.07332198 -0.16630704 -0.12310186
v -0.06569399 -0.14669448 -0.12162325
v -0.05397391 -0.13661885 -0.12190824
v -0.04656728 -0.06455001 -0.11692623
v -0.02918920 -0.10550790 -0.12132968
v -0.01394727 -0.09330043 -0.12104517
v -0.02616259 -0.04365556 -0.11629161
v -0.00836867 -0.04282012 -0.11670520
v 0.00635836 -0.04103133 -0.11675003
v 0.01715556 -0.06535593 -0.11906859
v 0.03080769 -0.03085314 -0.11568219
v 0.04266559 0.00613387 -0.11182142
v 0.04765954 0.01243746 -0.11111114
v 0.04865777 0.04138853 -0.10775860
v 0.00678810 -0.02001628 -0.11482997
v -0.00067720 -0.03084236 -0.11577678
v -0.02788396 -0.01931002 -0.11428185
v 0.02486517 0.03849962 -0.10885175
v 0.05562962 0.06525147 -0.10352307
v 0.07683732 0.05440286 -0.10430774
v 0.10138214 0.06867762 -0.09925544
v 0.09612312 0.08392886 -0.09578449
v 0.10978074 0.08137649 -0.09474661
v 0.08990277 0.07905914 -0.09795656
v 0.08102583 0.08036506 -0.09834924
v 0.04939163 0.08972024 -0.09815865
v 0.10570930 0.08952226 -0.09266323
v 0.07412357 0.09583757 -0.09433854
v 0.05152938 0.10633340 -0.09266900
v 0.03239065 0.08075789 -0.10127391
v 0.04644700 0.07694600 -0.10133000
v 0.03218935 0.06528768 -0.10450079
v 0.01033087 0.05800281 -0.10626411
v -0.00854405 0.03975752 -0.10912235
v 0.01198616 0.00826316 -0.11229045
v -0.04474075 -0.02949450 -0.11442263
v -0.01713896 0.02463647 -0.11069730
v -0.02994970 0.02290048 -0.11077801
v 0.00653400 0.06496500 -0.10503600
v 0.03634373 0.09501953 -0.09723363
v 0.04303438 0.11802383 -0.08953972
v 0.08679789 0.09963696 -0.09159915
v 0.10035784 0.09584516 -0.09135934
v 0.10799505 0.10331087 -0.08685661
v 0.06443164 0.12157930 -0.08551963
v 0.11170076 0.09157491 -0.09100308
v 0.04913314 0.12456091 -0.08630094
v 0.08201760 0.06739902 -0.10148015
v 0.04879057 0.05272680 -0.10600040
v 0.04747192 -0.07227900 -0.11890327
v 0.02230984 -0.10852788 -0.12284200
v -0.00311808 -0.11301719 -0.12307019
v -0.00168807 -0.14051268 -0.12559159
v -0.01752256 -0.15980201 -0.12709841
v 0.00343704 -0.09100335 -0.12129623
v 0.01685431 -0.08006553 -0.12035404
v -0.00679391 -0.17263735 -0.12944960
v -0.05158780 -0.20629777 -0.13447453
v -0.07178865 -0.20280065 -0.13116264
v 0.01165146 -0.19418008 -0.13433427
v 0.07200736 -0.20361724 -0.13421608
v 0.06322563 -0.22810731 -0.14251614
v 0.05798520 -0.21860298 -0.14000172
v 0.05275433 -0.20276114 -0.13554071
v 0.04121476 -0.24336050 -0.14850123
v 0.03110281 -0.24333203 -0.14882210
v 0.03241954 -0.20384177 -0.13681974
v 0.03039815 -0.21083548 -0.13889079
v -0.00626838 -0.20547472 -0.13718772
v -0.01296857 -0.19930493 -0.13511556
v -0.03150092 -0.21544944 -0.13888072
v -0.04202699 -0.23103616 -0.14298267
v -0.05430048 -0.23889455 -0.14433362
v 0.08879232 -0.20592711 -0.13293642
v 0.13576620 -0.25514756 -0.13891086
v 0.14504100 -0.24162400 -0.13267700
v 0.14524473 -0.25268195 -0.13574105
v 0.15455399 -0.26580900 -0.13626900
v 0.15346865 -0.27432857 -0.13869853
v 0.16238390 -0.26557346 -0.13361225
v 0.16944086 -0.26445665 -0.13089804
v 0.18117548 -0.25410965 -0.12343008
v 0.16276173 -0.23555839 -0.12522251
v 0.15651699 -0.21928253 -0.12256201
v 0.15136938 -0.25223067 -0.13394017
v 0.14729400 -0.22948600 -0.12843899
v 0.14178719 -0.22419267 -0.12836585
v 0.13518278 -0.20847671 -0.12534577
v 0.12897411 -0.24157748 -0.13682427
v 0.17923062 -0.28354289 -0.13140345
v 0.20210500 -0.27987400 -0.11964400
v 0.19689107 -0.28672470 -0.12387083
v 0.20118431 -0.29225599 -0.12287032
v 0.18968841 -0.27170302 -0.12406380
v 0.21303186 -0.27911534 -0.11304374
v 0.21349272 -0.27088123 -0.11050178
v 0.20872434 -0.23005226 -0.09923411
v 0.21142274 -0.27263050 -0.11211446
v 0.20370697 -0.25594797 -0.11195622
v 0.21616258 -0.32477999 -0.11925540
v 0.21722774 -0.29857789 -0.11494668
v 0.20255876 -0.31060795 -0.12521382
v 0.19460328 -0.29204291 -0.12601253
v 0.18302080 -0.30845010 -0.13374205
v 0.19769322 -0.32410362 -0.12862602
v 0.19170557 -0.31717743 -0.13072016
v 0.17326519 -0.29587191 -0.13585261
v 0.16318755 -0.28790938 -0.13797716
v 0.15813143 -0.30377416 -0.14180455
v 0.18145536 -0.32472990 -0.13552530
v 0.16300978 -0.33161035 -0.14251086
v 0.20235909 -0.33132375 -0.12679445
v 0.19635247 -0.34742886 -0.13006302
v 0.20222042 -0.36949300 -0.12693075
v 0.20110083 -0.33682527 -0.12771321
v 0.20540485 -0.31402698 -0.12389459
v 0.20315652 -0.35408047 -0.12707730
v 0.22443400 -0.38640100 -0.11389800
v 0.22527905 -0.36148093 -0.11469470
v 0.21292629 -0.37510286 -0.12101998
v 0.20729349 -0.40999103 -0.12225924
v 0.18661895 -0.40564831 -0.13187232
v 0.16478259 -0.40879046 -0.13995058
v 0.18490921 -0.37180249 -0.13421282
v 0.16328691 -0.41767096 -0.14033359
v 0.16492000 -0.38517100 -0.14071400
v 0.15529335 -0.37239069 -0.14441648
v 0.15292970 -0.40075301 -0.14375146
v 0.17668918 -0.36922147 -0.13750385
v 0.17676004 -0.35243910 -0.13797534
v 0.16991509 -0.35245122 -0.14052840
v 0.15555899 -0.35004021 -0.14518236
v 0.15385801 -0.33842799 -0.14554299
v 0.14090895 -0.35724141 -0.14907836
v 0.14625899 -0.36984379 -0.14711645
v 0.13383791 -0.40366601 -0.14868452
v 0.11815190 -0.39493998 -0.15241918
v 0.12605676 -0.36554787 -0.15222155
v 0.08974056 -0.39952347 -0.15697676
v 0.08721293 -0.42329259 -0.15728643
v 0.06211655 -0.41602028 -0.16033016
v 0.07318191 -0.42102281 -0.15918319
v 0.10731837 -0.42109272 -0.15400435
v 0.11640502 -0.42706148 -0.15271029
v 0.11733980 -0.44521798 -0.15430431
v 0.12580213 -0.43073858 -0.15116213
v 0.13713162 -0.44692026 -0.15030706
v 0.11054798 -0.43366414 -0.15438804
v 0.02860653 -0.44689550 -0.16439608
v 0.06184582 -0.45784123 -0.16141289
v 0.00053244 -0.41856628 -0.16471009
v 0.06924184 -0.44899097 -0.16105312
v 0.08269468 -0.44772266 -0.15943175
v 0.04564765 -0.44862081 -0.16318907
v 0.01058465 -0.42722664 -0.16474882
v 0.01983648 -0.41465796 -0.16368411
v 0.01894321 -0.40277691 -0.16390741
v -0.01317581 -0.40119369 -0.16517435
v 0.05064197 -0.37631493 -0.16259544
v 0.03675746 -0.38435422 -0.16340978
v 0.02974543 -0.36863274 -0.16446769
v 0.00378601 -0.36814868 -0.16557659
v -0.01562812 -0.36636550 -0.16601710
v 0.05370813 -0.36032821 -0.16285861
v 0.03683576 -0.35556171 -0.16412528
v 0.07847141 -0.35607125 -0.16027618
v 0.10595622 -0.32821390 -0.15578013
v 0.10402386 -0.32434353 -0.15590089
v 0.10722300 -0.30731699 -0.15395901
v 0.10883200 -0.30262199 -0.15318000
v 0.12727568 -0.29861330 -0.14932580
v 0.13059770 -0.31294437 -0.15005742
v 0.13265006 -0.32109421 -0.15023879
v 0.14987912 -0.32426657 -0.14628031
v 0.12724677 -0.35923321 -0.15213150
v 0.11938100 -0.37395999 -0.15316901
v 0.09649853 -0.40661876 -0.15570577
v 0.07247637 -0.40518506 -0.15920460
v 0.04185855 -0.41134206 -0.16220605
v 0.06196806 -0.39295778 -0.16080415
v 0.07501693 -0.37328820 -0.16025591
v 0.07898577 -0.36584511 -0.16008455
v 0.10650954 -0.37405373 -0.15559780
v 0.09318992 -0.34630376 -0.15846168
v 0.10713901 -0.34045330 -0.15608601
v 0.13947362 -0.33674751 -0.14936293
v 0.11964738 -0.33285835 -0.15368292
v 0.09955116 -0.33394494 -0.15712032
v 0.10045061 -0.31730555 -0.15605622
v 0.13954060 -0.31058338 -0.14779247
v 0.14622447 -0.30227568 -0.14512736
v 0.15910337 -0.32087586 -0.14319382
v 0.15415033 -0.28541876 -0.14044126
v 0.14241332 -0.28420715 -0.14334841
v 0.13871799 -0.26991901 -0.14150000
v 0.12524367 -0.29051395 -0.14844721
v 0.12136928 -0.29304952 -0.14960486
v 0.11133630 -0.29638770 -0.15197167
v 0.09895646 -0.29397925 -0.15379096
v 0.12644309 -0.27430183 -0.14524904
v 0.12601064 -0.25833463 -0.14189031
v 0.09966496 -0.27631907 -0.15061313
v 0.08300253 -0.32078519 -0.15881290
v 0.05162034 -0.34923493 -0.16303192
v 0.02000588 -0.35227741 -0.16506507
v 0.00900100 -0.34484801 -0.16528000
v 0.06823248 -0.33526444 -0.16128833
v 0.03324768 -0.33544815 -0.16405805
v 0.00393212 -0.33206256 -0.16498535
v -0.01322602 -0.35132706 -0.16593185
v -0.03074697 -0.34530040 -0.16567699
v -0.03745101 -0.32878681 -0.16441340
v -0.02291994 -0.32334617 -0.16423224
v 0.01762382 -0.32918270 -0.16441017
v 0.03841444 -0.31389564 -0.16207914
v 0.06593356 -0.30952223 -0.15972347
v 0.06855007 -0.29618534 -0.15779425
v 0.04980491 -0.29990950 -0.15983887
v 0.00531872 -0.31814808 -0.16394543
v -0.01001395 -0.31167501 -0.16309642
v -0.03299307 -0.31143580 -0.16257732
v -0.01334408 -0.30302965 -0.16186800
v -0.02069256 -0.29836173 -0.16093998
v -0.01468178 -0.27739863 -0.15701628
v -0.04671140 -0.28932058 -0.15801595
v 0.00009161 -0.27243544 -0.15623385
v 0.02497900 -0.25815099 -0.15277900
v 0.00006141 -0.26545211 -0.15472249
v 0.00710991 -0.28070509 -0.15813351
v 0.03313372 -0.26890275 -0.15523648
v 0.04365192 -0.25341468 -0.15104939
v 0.04633426 -0.26818863 -0.15445060
v 0.10858886 -0.25810231 -0.14513924
v 0.11242701 -0.24760304 -0.14173518
v 0.11558804 -0.25381283 -0.14277413
v 0.11546817 -0.23424212 -0.13736277
v 0.10424492 -0.24819010 -0.14346817
v 0.07841589 -0.24499804 -0.14605271
v 0.07753038 -0.25577339 -0.14903177
v 0.08231461 -0.23753605 -0.14344225
v 0.06297820 -0.24837852 -0.14860339
v 0.00512836 -0.24435008 -0.14913674
v -0.00110837 -0.24997782 -0.15057151
v -0.02402134 -0.26125256 -0.15277310
v 0.01274579 -0.22465582 -0.14328105
v -0.01507544 -0.23634096 -0.14617353
v -0.03730089 -0.24780610 -0.14838209
v 0.09390630 -0.26481386 -0.14910580
v 0.08026569 -0.29242147 -0.15600570
v 0.07884093 -0.27254154 -0.15263844
v 0.05809238 -0.27855391 -0.15583371
v 0.03646680 -0.29491338 -0.15993608
v 0.02573309 -0.28823589 -0.15934883
v 0.01133781 -0.29183008 -0.16017215
v -0.02535167 -0.27412900 -0.15576266
v 0.06637500 -0.26587299 -0.15241000
v 0.06218500 -0.26499000 -0.15258700
v -0.01339892 -0.32815934 -0.16483737
v 0.17989840 -0.33731857 -0.13657931
f 560 559 561
f 559 560 724
f 561 559 557
f 561 562 560
f 559 724 725
f 560 721 724
f 557 559 735
f 558 561 557
f 404 560 562
f 562 561 404
f 735 559 725
f 725 724 735
f 560 722 721
f 721 722 724
f 556 557 735
f 555 558 557
f 403 561 558
f 404 739 560
f 404 561 403
f 735 724 726
f 560 736 722
f 722 723 724
f 734 557 556
f 734 556 735
f 555 557 734
f 555 403 558
f 404 563 739
f 739 736 560
f 402 404 403
f 726 724 747
f 735 726 745
f 736 737 722
f 723 722 720
f 724 723 747
f 734 735 732
f 568 555 734
f 388 403 555
f 554 563 404
f 563 736 739
f 388 402 403
f 402 401 404
f 745 726 747
f 751 735 745
f 737 738 722
f 736 738 737
f 720 722 718
f 720 718 723
f 747 723 748
f 732 731 734
f 732 735 733
f 369 555 568
f 369 568 734
f 388 555 389
f 404 487 554
f 554 564 563
f 736 563 740
f 405 402 388
f 450 401 402
f 401 487 404
f 747 746 745
f 735 751 750
f 751 745 750
f 722 738 718
f 740 738 736
f 723 718 717
f 723 716 748
f 748 716 747
f 731 732 742
f 369 734 731
f 732 733 742
f 733 735 744
f 369 389 555
f 369 388 389
f 487 564 554
f 564 565 563
f 563 741 740
f 405 388 369
f 449 402 405
f 450 451 401
f 449 450 402
f 451 487 401
f 746 712 745
f 747 713 746
f 744 735 750
f 744 750 745
f 738 749 718
f 740 741 738
f 718 719 717
f 723 717 716
f 747 716 713
f 727 731 742
f 369 731 370
f 742 733 744
f 487 400 564
f 563 565 741
f 564 395 565
f 369 373 405
f 448 449 405
f 453 451 450
f 453 450 449
f 451 486 487
f 745 712 711
f 746 713 712
f 744 745 743
f 749 719 718
f 749 738 719
f 738 741 719
f 719 715 717
f 717 715 716
f 716 714 713
f 731 727 728
f 727 742 696
f 373 369 370
f 370 731 730
f 742 744 696
f 487 551 400
f 400 399 564
f 741 565 566
f 564 398 395
f 395 566 565
f 373 447 405
f 447 448 405
f 447 449 448
f 406 451 453
f 452 453 449
f 451 484 486
f 486 551 487
f 711 712 710
f 743 745 711
f 712 713 709
f 696 744 743
f 741 21 719
f 719 22 715
f 716 715 714
f 714 715 713
f 728 727 583
f 731 728 583
f 695 727 696
f 373 370 346
f 370 730 583
f 730 731 583
f 551 398 400
f 400 398 399
f 399 398 564
f 741 566 567
f 398 396 395
f 395 567 566
f 454 447 373
f 454 449 447
f 406 484 451
f 406 453 452
f 454 452 449
f 484 485 486
f 486 548 551
f 710 743 711
f 712 709 710
f 709 713 702
f 696 743 693
f 719 21 22
f 741 20 21
f 715 22 706
f 715 707 713
f 583 727 729
f 695 696 694
f 729 727 695
f 370 583 346
f 361 373 346
f 551 397 398
f 567 20 741
f 396 552 395
f 396 398 394
f 552 567 395
f 371 454 373
f 544 484 406
f 406 452 454
f 484 547 485
f 485 548 486
f 548 488 551
f 743 710 693
f 710 709 702
f 713 708 702
f 696 693 694
f 706 22 2
f 715 706 707
f 707 706 713
f 583 729 695
f 694 569 695
f 583 582 346
f 348 361 346
f 354 373 361
f 398 397 394
f 488 397 551
f 567 553 20
f 396 394 552
f 552 394 567
f 371 373 368
f 468 454 371
f 410 544 406
f 544 545 484
f 410 406 454
f 484 546 547
f 499 485 547
f 485 493 548
f 548 491 488
f 697 693 710
f 710 702 701
f 708 699 702
f 713 703 708
f 690 694 693
f 706 2 705
f 713 706 752
f 569 583 695
f 569 694 689
f 346 582 578
f 581 582 583
f 327 348 346
f 348 354 361
f 368 373 354
f 397 553 394
f 488 489 397
f 553 37 20
f 394 553 567
f 371 368 354
f 468 371 444
f 467 454 468
f 481 544 410
f 545 546 484
f 504 545 544
f 409 410 454
f 547 546 499
f 485 499 493
f 493 492 548
f 491 489 488
f 492 491 548
f 693 697 683
f 710 701 697
f 701 702 698
f 702 699 655
f 708 700 699
f 703 700 708
f 713 752 703
f 691 690 693
f 694 690 665
f 705 2 704
f 706 705 752
f 570 583 569
f 569 689 573
f 689 694 573
f 346 578 339
f 582 581 578
f 581 583 570
f 327 346 339
f 349 348 327
f 349 354 348
f 397 490 553
f 397 489 490
f 553 490 37
f 372 371 354
f 444 371 358
f 468 444 466
f 409 454 467
f 466 467 468
f 410 480 481
f 480 544 481
f 549 546 545
f 504 544 482
f 504 550 545
f 407 410 409
f 500 499 546
f 499 498 493
f 492 493 491
f 491 495 489
f 693 683 664
f 683 697 682
f 697 701 682
f 701 698 658
f 698 702 659
f 699 656 655
f 659 702 655
f 700 704 699
f 704 700 703
f 752 705 703
f 690 691 665
f 693 692 691
f 688 694 665
f 704 2 1
f 704 703 705
f 570 569 571
f 579 569 573
f 573 694 688
f 294 339 578
f 578 581 580
f 579 581 570
f 327 339 294
f 349 327 321
f 358 354 349
f 489 19 490
f 490 19 37
f 358 372 354
f 358 371 372
f 357 444 358
f 445 466 444
f 407 409 467
f 445 467 466
f 483 480 410
f 482 544 480
f 550 549 545
f 549 500 546
f 505 504 482
f 550 504 549
f 415 410 407
f 500 501 499
f 498 497 493
f 501 498 499
f 494 491 493
f 489 495 19
f 497 495 491
f 664 683 663
f 692 693 664
f 683 682 662
f 701 678 682
f 659 658 698
f 701 658 660
f 651 655 656
f 657 656 699
f 658 659 655
f 704 657 699
f 665 691 692
f 688 665 685
f 704 1 657
f 569 579 571
f 579 570 571
f 572 579 573
f 573 688 687
f 294 578 241
f 578 580 579
f 580 581 579
f 321 327 294
f 337 349 321
f 357 358 349
f 464 444 357
f 446 445 444
f 408 407 467
f 455 467 445
f 483 410 416
f 483 482 480
f 549 501 500
f 507 505 482
f 505 503 504
f 549 504 501
f 411 415 407
f 415 416 410
f 494 493 497
f 498 17 497
f 501 530 498
f 494 497 491
f 18 19 495
f 497 496 495
f 664 663 665
f 663 683 665
f 692 664 665
f 662 682 661
f 681 683 662
f 682 678 679
f 701 660 678
f 660 658 676
f 655 651 654
f 656 652 651
f 656 657 652
f 658 655 653
f 685 665 684
f 687 688 685
f 1 3 657
f 574 572 573
f 579 572 574
f 573 687 602
f 285 294 241
f 241 578 577
f 578 579 577
f 300 321 294
f 320 337 321
f 320 349 337
f 441 357 349
f 441 464 357
f 464 446 444
f 455 445 446
f 411 407 408
f 412 408 467
f 414 467 455
f 476 483 416
f 507 482 483
f 507 506 505
f 503 510 504
f 505 510 503
f 502 501 504
f 413 415 411
f 475 416 415
f 497 17 496
f 16 17 498
f 530 16 498
f 511 530 501
f 18 495 496
f 665 683 681
f 681 662 661
f 681 661 682
f 679 678 669
f 681 682 679
f 678 660 676
f 676 658 653
f 653 654 651
f 653 655 654
f 651 652 645
f 657 3 652
f 684 665 666
f 685 684 668
f 687 685 603
f 575 574 573
f 575 579 574
f 573 602 601
f 602 687 603
f 249 285 241
f 285 300 294
f 241 577 286
f 577 579 575
f 320 321 300
f 320 441 349
f 441 463 464
f 443 446 464
f 456 455 446
f 411 408 412
f 412 467 414
f 414 455 456
f 475 476 416
f 476 507 483
f 529 505 506
f 507 529 506
f 504 510 502
f 509 510 505
f 511 501 502
f 413 411 412
f 418 415 413
f 474 475 415
f 496 17 18
f 16 530 511
f 666 665 681
f 669 678 632
f 681 679 669
f 678 676 677
f 676 653 675
f 653 651 650
f 650 651 645
f 652 4 645
f 4 652 3
f 684 666 668
f 603 685 668
f 575 573 601
f 601 602 603
f 231 249 241
f 249 284 285
f 284 300 285
f 241 286 266
f 286 577 576
f 577 575 576
f 320 300 293
f 463 441 320
f 457 464 463
f 442 446 443
f 442 443 464
f 465 456 446
f 413 412 414
f 414 456 457
f 477 476 475
f 477 507 476
f 529 509 505
f 507 512 529
f 510 511 502
f 509 511 510
f 418 413 414
f 417 415 418
f 474 415 417
f 474 477 475
f 9 16 511
f 666 681 667
f 628 669 632
f 632 678 677
f 681 669 628
f 677 676 675
f 675 653 674
f 653 650 673
f 645 649 650
f 645 4 5
f 668 666 667
f 603 668 686
f 584 575 601
f 601 603 686
f 231 241 215
f 199 249 231
f 431 284 249
f 293 300 284
f 241 266 215
f 266 286 267
f 286 576 267
f 576 575 584
f 293 301 320
f 439 463 320
f 440 457 463
f 457 442 464
f 442 465 446
f 456 465 442
f 414 457 462
f 457 456 442
f 477 508 507
f 529 532 509
f 512 507 508
f 512 528 529
f 509 532 511
f 471 418 414
f 469 417 418
f 474 417 469
f 478 477 474
f 532 9 511
f 667 681 680
f 632 631 628
f 632 677 670
f 680 681 628
f 677 675 633
f 674 653 673
f 675 674 672
f 673 650 649
f 645 6 649
f 5 6 645
f 667 680 668
f 686 668 605
f 584 601 598
f 601 686 598
f 205 231 215
f 183 199 231
f 429 249 199
f 431 249 429
f 431 293 284
f 266 267 215
f 267 576 280
f 588 576 584
f 301 293 431
f 433 320 301
f 435 439 320
f 440 463 439
f 440 462 457
f 470 414 462
f 477 514 508
f 531 532 529
f 526 512 508
f 527 528 512
f 528 531 529
f 470 471 414
f 471 469 418
f 472 474 469
f 366 478 474
f 478 479 477
f 9 532 528
f 628 631 630
f 632 670 631
f 631 670 677
f 668 680 628
f 633 675 672
f 671 677 633
f 674 673 672
f 673 649 648
f 649 6 643
f 605 668 627
f 598 686 605
f 597 584 598
f 205 215 591
f 177 231 205
f 183 166 199
f 183 231 174
f 166 429 199
f 429 430 431
f 215 267 593
f 593 267 280
f 576 588 280
f 588 584 586
f 430 301 431
f 432 433 301
f 433 435 320
f 435 434 439
f 434 440 439
f 419 462 440
f 422 470 462
f 479 514 477
f 543 508 514
f 528 532 531
f 526 508 543
f 526 527 512
f 527 15 528
f 470 469 471
f 473 472 469
f 472 351 474
f 351 366 474
f 366 515 478
f 478 515 479
f 528 15 9
f 622 628 630
f 631 382 630
f 677 671 631
f 627 668 628
f 633 672 634
f 671 633 634
f 672 673 635
f 648 649 643
f 635 673 648
f 643 6 26
f 605 627 626
f 598 605 604
f 586 584 597
f 597 598 587
f 79 205 591
f 215 590 591
f 177 205 79
f 174 231 177
f 166 183 96
f 183 174 84
f 192 429 166
f 429 157 430
f 590 215 593
f 593 280 592
f 280 588 587
f 587 588 586
f 430 432 301
f 435 433 432
f 438 434 435
f 419 440 434
f 419 422 462
f 420 470 422
f 515 514 479
f 514 513 543
f 513 526 543
f 526 524 527
f 533 15 527
f 421 469 470
f 473 469 421
f 328 472 473
f 351 472 328
f 366 351 355
f 515 366 381
f 629 628 622
f 622 630 617
f 382 374 630
f 382 631 374
f 631 671 374
f 627 628 626
f 634 672 635
f 671 634 374
f 643 26 648
f 635 648 636
f 625 605 626
f 600 598 604
f 604 605 625
f 586 597 587
f 596 587 598
f 79 591 93
f 93 591 590
f 79 84 177
f 84 174 177
f 192 166 96
f 183 181 96
f 84 181 183
f 167 429 192
f 167 157 429
f 427 430 157
f 590 593 592
f 592 280 589
f 585 280 587
f 427 432 430
f 427 435 432
f 437 434 438
f 436 438 435
f 434 459 419
f 461 422 419
f 423 420 422
f 421 470 420
f 542 514 515
f 542 513 514
f 524 526 513
f 524 533 527
f 524 15 533
f 421 328 473
f 328 355 351
f 367 366 355
f 367 381 366
f 381 367 515
f 621 629 622
f 626 628 629
f 620 622 617
f 617 630 353
f 630 374 364
f 634 635 636
f 374 634 637
f 648 26 25
f 648 646 636
f 626 621 625
f 596 598 600
f 600 604 599
f 604 625 753
f 595 587 596
f 79 93 49
f 590 589 93
f 39 84 79
f 96 167 192
f 96 181 84
f 156 157 167
f 427 157 154
f 590 592 589
f 280 585 589
f 589 585 587
f 427 436 435
f 460 434 437
f 437 438 436
f 458 419 459
f 460 459 434
f 458 461 419
f 422 461 458
f 423 421 420
f 423 422 458
f 518 542 515
f 542 520 513
f 525 524 513
f 524 14 15
f 421 316 328
f 328 338 355
f 338 367 355
f 367 517 515
f 625 621 622
f 621 626 629
f 623 620 617
f 625 622 620
f 353 343 617
f 353 630 364
f 364 374 335
f 636 646 634
f 374 637 638
f 637 634 638
f 644 648 25
f 646 648 644
f 599 596 600
f 599 604 609
f 604 753 609
f 607 753 625
f 595 589 587
f 595 596 200
f 40 79 49
f 49 93 86
f 93 589 190
f 39 79 40
f 89 84 39
f 141 167 96
f 94 96 84
f 126 157 156
f 156 167 121
f 126 154 157
f 224 427 154
f 426 436 427
f 437 458 460
f 196 437 436
f 458 459 460
f 317 421 423
f 289 423 458
f 518 515 517
f 518 519 542
f 525 513 520
f 519 520 542
f 524 525 520
f 524 13 14
f 316 329 328
f 317 316 421
f 338 328 329
f 338 517 367
f 618 623 617
f 625 620 623
f 353 335 343
f 617 343 619
f 353 364 335
f 374 638 335
f 634 646 647
f 638 634 642
f 646 644 25
f 610 596 599
f 599 609 606
f 609 753 607
f 607 625 624
f 190 589 595
f 193 595 200
f 596 594 200
f 40 49 43
f 49 86 43
f 93 190 86
f 39 40 41
f 89 39 38
f 94 84 89
f 121 141 96
f 121 167 141
f 103 96 94
f 126 156 121
f 126 155 154
f 224 154 155
f 428 427 224
f 428 426 427
f 196 436 426
f 424 458 437
f 261 437 196
f 316 317 423
f 289 282 423
f 425 289 458
f 517 516 518
f 522 519 518
f 522 520 519
f 520 534 524
f 12 13 524
f 338 329 316
f 350 517 338
f 618 617 616
f 611 623 618
f 624 625 623
f 343 335 336
f 619 343 336
f 616 617 619
f 335 638 640
f 634 647 390
f 647 646 390
f 639 642 634
f 638 642 639
f 646 25 34
f 596 610 594
f 610 599 594
f 594 599 606
f 594 606 609
f 609 607 611
f 607 624 611
f 193 190 595
f 193 200 100
f 229 200 594
f 40 43 41
f 43 86 91
f 86 190 180
f 41 38 39
f 41 89 38
f 97 94 89
f 122 121 96
f 101 103 94
f 122 96 103
f 115 126 121
f 130 155 126
f 130 224 155
f 225 428 224
f 196 426 428
f 424 437 261
f 425 458 424
f 196 216 261
f 316 423 302
f 236 282 289
f 302 423 282
f 261 289 425
f 517 537 516
f 516 522 518
f 522 523 520
f 535 534 520
f 11 524 534
f 11 12 524
f 302 338 316
f 344 350 338
f 350 540 517
f 618 616 608
f 608 611 618
f 611 624 623
f 335 641 336
f 326 619 336
f 616 619 326
f 335 640 641
f 640 638 639
f 634 390 639
f 390 646 36
f 646 34 35
f 211 594 609
f 211 609 611
f 180 190 193
f 85 193 100
f 100 200 99
f 200 229 99
f 229 594 211
f 41 43 44
f 43 91 55
f 91 86 180
f 89 41 42
f 185 97 89
f 97 138 94
f 104 121 122
f 138 101 94
f 101 102 103
f 102 122 103
f 115 121 110
f 110 126 115
f 107 130 126
f 130 158 224
f 158 225 224
f 225 196 428
f 261 425 424
f 149 216 196
f 261 216 204
f 237 282 236
f 236 289 203
f 282 277 302
f 204 289 261
f 516 537 522
f 521 537 517
f 535 520 523
f 535 523 522
f 535 11 534
f 302 307 338
f 307 344 338
f 307 350 344
f 538 540 350
f 540 521 517
f 608 616 615
f 611 608 614
f 336 641 376
f 326 336 332
f 616 326 310
f 640 639 641
f 639 390 391
f 391 390 36
f 36 646 35
f 260 211 611
f 178 180 193
f 85 100 99
f 160 193 85
f 229 211 99
f 41 44 45
f 44 43 47
f 43 55 52
f 55 91 53
f 91 180 53
f 81 42 41
f 202 89 42
f 202 185 89
f 195 97 185
f 195 138 97
f 121 104 110
f 104 122 102
f 131 101 138
f 102 101 131
f 110 107 126
f 109 130 107
f 133 158 130
f 182 225 158
f 182 196 225
f 149 196 148
f 149 204 216
f 227 237 236
f 237 277 282
f 236 203 175
f 204 203 289
f 278 302 277
f 536 522 537
f 540 537 521
f 539 535 522
f 541 11 535
f 288 307 302
f 307 352 350
f 352 538 350
f 538 537 540
f 608 615 614
f 616 312 615
f 611 614 613
f 334 336 376
f 641 391 376
f 310 326 332
f 332 336 333
f 312 616 310
f 641 639 391
f 211 260 252
f 252 260 611
f 180 178 53
f 178 193 160
f 83 85 99
f 53 160 85
f 172 99 211
f 46 41 45
f 46 45 44
f 47 43 52
f 44 47 48
f 55 51 52
f 51 55 53
f 81 41 46
f 81 202 42
f 164 185 202
f 195 185 194
f 131 138 195
f 105 110 104
f 131 104 102
f 106 107 110
f 109 107 108
f 109 112 130
f 133 130 112
f 133 182 158
f 196 182 148
f 150 149 148
f 149 151 204
f 189 227 236
f 237 227 277
f 175 203 204
f 189 236 175
f 244 278 277
f 288 302 278
f 536 539 522
f 538 536 537
f 539 541 535
f 541 10 11
f 288 311 307
f 352 307 311
f 345 538 352
f 240 614 615
f 615 312 310
f 252 611 613
f 613 614 240
f 333 336 334
f 309 310 332
f 332 333 342
f 211 252 210
f 53 178 160
f 85 83 80
f 99 170 83
f 53 85 76
f 99 172 170
f 172 211 212
f 46 44 246
f 47 52 51
f 246 44 48
f 47 50 48
f 54 51 53
f 81 46 223
f 290 202 81
f 194 185 164
f 191 164 202
f 195 194 228
f 132 131 195
f 120 105 104
f 120 110 105
f 120 104 131
f 107 106 118
f 114 106 110
f 108 107 118
f 112 109 108
f 112 113 133
f 147 182 133
f 147 148 182
f 150 148 113
f 150 151 149
f 175 204 151
f 165 227 189
f 244 277 227
f 165 189 175
f 274 278 244
f 274 288 278
f 538 539 536
f 539 384 541
f 8 10 541
f 288 304 311
f 345 352 311
f 365 538 345
f 240 615 612
f 615 310 308
f 210 252 613
f 210 613 240
f 308 310 309
f 309 332 342
f 212 211 210
f 80 83 90
f 78 85 80
f 83 170 153
f 53 76 80
f 76 85 78
f 153 170 172
f 172 212 210
f 222 46 246
f 50 47 51
f 305 246 48
f 60 48 50
f 51 54 59
f 54 53 59
f 223 46 222
f 253 81 223
f 245 290 81
f 290 191 202
f 191 194 164
f 194 191 228
f 251 195 228
f 120 131 132
f 132 195 197
f 110 120 127
f 118 106 114
f 114 110 142
f 116 108 118
f 112 108 111
f 119 113 112
f 133 113 147
f 148 147 113
f 124 150 113
f 124 151 150
f 175 151 139
f 176 227 165
f 217 244 227
f 165 175 139
f 217 274 244
f 274 287 288
f 384 539 538
f 8 541 384
f 288 340 304
f 304 345 311
f 345 359 365
f 538 365 385
f 240 612 218
f 615 218 612
f 268 615 308
f 210 240 218
f 268 308 309
f 298 309 342
f 80 90 82
f 83 153 90
f 76 78 80
f 57 53 80
f 153 172 169
f 168 172 210
f 222 246 323
f 50 51 59
f 305 48 247
f 246 305 263
f 48 60 65
f 60 50 58
f 59 53 58
f 253 223 222
f 313 81 253
f 245 81 264
f 290 245 264
f 228 191 290
f 198 195 251
f 262 251 228
f 120 132 197
f 198 197 195
f 142 110 127
f 127 120 142
f 118 114 137
f 163 114 142
f 111 108 116
f 125 116 118
f 140 112 111
f 119 112 140
f 119 124 113
f 139 151 124
f 173 176 165
f 208 227 176
f 214 217 227
f 165 139 124
f 221 274 217
f 275 287 274
f 385 384 538
f 8 384 360
f 297 340 288
f 340 345 304
f 341 359 345
f 359 385 365
f 218 615 250
f 268 250 615
f 210 218 136
f 268 309 273
f 309 298 279
f 298 342 306
f 74 80 82
f 90 153 82
f 53 57 58
f 57 80 56
f 153 169 168
f 169 172 168
f 168 210 136
f 356 222 323
f 263 323 246
f 50 59 58
f 247 48 65
f 305 247 303
f 263 305 323
f 65 60 58
f 253 222 356
f 264 81 313
f 356 313 253
f 324 290 264
f 262 228 290
f 213 198 251
f 276 251 262
f 159 120 197
f 197 198 213
f 201 142 120
f 137 114 163
f 123 118 137
f 142 201 163
f 140 111 116
f 125 140 116
f 162 125 118
f 119 140 128
f 129 124 119
f 173 165 161
f 173 208 176
f 214 227 208
f 173 217 214
f 165 124 144
f 221 217 226
f 243 274 221
f 243 275 274
f 275 297 287
f 380 384 385
f 7 8 360
f 360 384 377
f 297 319 340
f 341 345 340
f 341 360 359
f 359 377 385
f 239 218 250
f 254 250 268
f 136 218 152
f 268 273 272
f 273 309 299
f 292 279 298
f 299 309 279
f 292 298 306
f 73 80 74
f 74 82 75
f 82 153 77
f 57 56 58
f 72 56 80
f 153 168 171
f 171 168 136
f 356 323 386
f 66 247 65
f 330 303 247
f 387 305 303
f 362 323 305
f 61 65 58
f 392 264 313
f 313 356 29
f 324 264 392
f 331 290 324
f 276 262 290
f 276 213 251
f 255 120 159
f 213 159 197
f 201 120 184
f 137 163 123
f 162 118 123
f 209 163 201
f 206 140 125
f 162 206 125
f 117 119 128
f 140 117 128
f 117 129 119
f 117 124 129
f 161 165 144
f 270 173 161
f 173 214 208
f 173 226 217
f 144 124 117
f 173 221 226
f 275 243 221
f 275 314 297
f 377 384 380
f 377 380 385
f 378 7 360
f 360 377 359
f 319 297 375
f 341 340 319
f 378 360 341
f 239 179 218
f 239 250 238
f 250 254 238
f 254 268 272
f 152 134 136
f 152 218 179
f 272 273 279
f 273 299 279
f 291 279 292
f 73 74 75
f 72 80 73
f 82 77 75
f 77 153 136
f 58 56 61
f 56 72 73
f 153 171 136
f 386 323 362
f 29 356 386
f 330 66 65
f 247 66 330
f 295 303 330
f 387 303 295
f 387 362 305
f 62 65 61
f 392 313 30
f 313 29 30
f 33 324 392
f 276 290 331
f 363 331 324
f 259 213 276
f 184 120 255
f 233 255 159
f 233 159 213
f 201 184 255
f 162 123 163
f 271 163 209
f 209 201 255
f 206 256 140
f 206 162 187
f 146 117 140
f 145 161 144
f 270 161 145
f 270 221 173
f 146 144 117
f 232 275 221
f 314 275 283
f 314 375 297
f 24 7 378
f 375 347 319
f 319 347 341
f 379 378 341
f 179 239 219
f 220 239 238
f 238 254 265
f 254 272 279
f 135 136 134
f 134 152 143
f 152 179 219
f 265 279 291
f 73 75 69
f 75 77 68
f 92 77 136
f 67 61 56
f 56 73 71
f 386 362 387
f 27 29 386
f 330 65 234
f 383 295 330
f 393 387 295
f 62 61 64
f 65 62 64
f 31 392 30
f 363 324 33
f 33 392 31
f 315 276 331
f 363 325 331
f 233 213 259
f 318 259 276
f 258 255 233
f 187 162 163
f 296 163 271
f 271 209 242
f 242 209 255
f 248 140 256
f 230 256 206
f 206 187 230
f 248 146 140
f 207 145 144
f 235 270 145
f 232 221 270
f 186 144 146
f 257 275 232
f 283 275 257
f 281 314 283
f 23 375 314
f 24 378 379
f 375 24 347
f 347 379 341
f 219 239 220
f 220 238 219
f 238 265 291
f 265 254 279
f 92 135 134
f 136 135 92
f 134 143 98
f 143 152 95
f 152 219 188
f 71 73 69
f 69 75 68
f 68 77 87
f 77 92 88
f 56 70 67
f 61 67 63
f 56 71 70
f 27 386 387
f 234 65 64
f 269 330 234
f 393 295 383
f 322 383 330
f 393 28 387
f 64 61 63
f 32 363 33

