v -0.119426 0.0795585 0.0361284
v -0.121348 0.0710229 0.0392885
v -0.112261 0.069494 0.0404837
v -0.108549 0.0867573 0.0347439
v -0.110352 0.078062 0.0374427
v -0.0960138 0.102928 0.0312174
v -0.106623 0.0952129 0.0314473
v -0.0945889 0.0675282 0.0443662
v -0.0961207 0.0589339 0.0474133
v -0.105691 -0.0125533 0.0604331
v -0.106422 -0.0217179 0.0611587
v -0.115527 -0.0213717 0.0594081
v -0.116026 -0.0306886 0.0598087
v -0.0983311 -0.0405334 0.0639751
v -0.106938 -0.0310113 0.0616035
v -0.107422 -0.0402324 0.0621477
v -0.116615 -0.0399976 0.0604672
v -0.107892 -0.0495658 0.0624944
v -0.117042 -0.0493324 0.0607091
v -0.098746 -0.0497741 0.0642992
v -0.0990459 -0.0590335 0.0642716
v -0.108187 -0.058854 0.0624445
v -0.0993381 -0.0682972 0.0642408
v -0.108423 -0.0681486 0.0623898
v -0.099322 -0.10548 0.0618304
v -0.108253 -0.105357 0.0592171
v -0.108279 -0.1147 0.0583934
v -0.0993099 -0.114807 0.0609777
v -0.0990574 -0.124055 0.0596354
v -0.0987055 -0.133235 0.0579719
v -0.113178 0.104867 0.0255018
v -0.108035 -0.123936 0.0569854
v -0.10769 -0.13313 0.0553462
v -0.0993799 -0.0961877 0.0627647
v -0.108325 -0.0960588 0.0601639
v -0.11729 -0.0959303 0.0575798
v -0.099517 -0.0869195 0.0636301
v -0.108692 -0.0868096 0.0614996
v -0.0994989 -0.0776345 0.0641445
v -0.108622 -0.0775044 0.0619875
v -0.117448 -0.0680048 0.0600977
v -0.117587 -0.0773535 0.0595771
v -0.117579 -0.0866656 0.0587897
v -0.117295 -0.0586607 0.0605593
v -0.124697 -0.0209368 0.0577219
v -0.124144 -0.0115638 0.0573463
v -0.131691 0.00768919 0.0533767
v -0.132579 -0.00163167 0.0544039
v -0.122437 0.00709962 0.0551761
v -0.123291 -0.00223209 0.0562613
v -0.113023 0.0061663 0.0562237
v -0.114119 -0.00280217 0.0578954
v -0.120321 0.0251481 0.0520127
v -0.121416 0.0161796 0.0536845
v -0.102891 0.0146771 0.0566925
v -0.1039 0.00559595 0.0581199
v -0.110977 0.0242903 0.0532857
v -0.111985 0.0152091 0.0547131
v -0.101866 0.0236748 0.0552294
v -0.100634 0.0325874 0.0536039
v -0.109863 0.0332694 0.0517584
v -0.097706 0.0502193 0.0499148
v -0.0991706 0.041404 0.0517628
v -0.105074 0.0598442 0.045403
v -0.106727 0.0509679 0.0476383
v -0.108379 0.0420915 0.0498736
v -0.119021 0.0341961 0.0502848
v -0.117322 0.0431259 0.0480268
v -0.126464 0.044491 0.0474052
v -0.124747 0.0534268 0.0447994
v -0.123045 0.0622657 0.0418542
v -0.135387 0.045702 0.0457902
v -0.133686 0.0545979 0.0427824
v -0.104537 0.10365 0.0279205
v -0.137004 0.0366458 0.0486562
v -0.138317 0.027282 0.0501873
v -0.138957 0.0177895 0.0486417
v -0.115615 0.0519174 0.0454503
v -0.128063 0.0353752 0.0491889
v -0.129356 0.0261916 0.0502824
v -0.130834 0.0170814 0.05234
v -0.134257 -0.0392606 0.055061
v -0.134405 -0.0486434 0.0547412
v -0.134074 -0.0298857 0.0553003
v -0.12535 -0.0396614 0.0578627
v -0.125565 -0.0490264 0.0577003
v -0.125735 -0.0583971 0.0574373
v -0.125865 -0.0677632 0.0570828
v -0.125896 -0.0771112 0.0564784
v -0.125882 -0.0864287 0.0556472
v -0.125844 -0.0957306 0.0546715
v -0.134405 -0.0860149 0.0517906
v -0.134517 -0.0767085 0.0528345
v -0.134473 -0.0580095 0.0541853
v -0.134507 -0.0673613 0.0535275
v -0.131992 -0.131784 0.0430837
v -0.12427 0.0984783 0.0281053
v -0.115305 0.0965466 0.0293081
v -0.126418 0.0901443 0.0319068
v -0.117457 0.088243 0.0331541
v -0.133738 -0.104449 0.0488375
v -0.133222 -0.113596 0.0470561
v -0.132707 -0.122743 0.0452748
v -0.123922 -0.132381 0.0477454
v -0.125039 -0.114113 0.0515009
v -0.124536 -0.123271 0.0497786
v -0.117099 -0.105203 0.0564601
v -0.116621 -0.114355 0.0547001
v -0.116295 -0.123564 0.0530295
v -0.128488 0.0815609 0.0353135
v -0.125532 -0.104951 0.0532084
v -0.134227 -0.095291 0.0505704
v -0.13314 -0.0110368 0.0548156
v -0.133633 -0.0204692 0.0550971
v -0.125094 -0.0303029 0.057884
v -0.11493 -0.0121099 0.0588756
v -0.104841 -0.00349033 0.0592972
v -0.101581 0.077279 0.0403506
v -0.103363 0.0685813 0.0429705
v -0.0980112 0.0946581 0.0349388
v -0.0997983 0.0859739 0.0377014
v -0.113927 0.0606383 0.0427651
v -0.130449 0.0728209 0.0384023
f 110 123 2 1
f 2 3 5 1
f 5 4 100 1
f 100 99 110 1
f 71 122 3 2
f 122 64 119 3
f 119 118 5 3
f 5 118 121 4
f 121 120 7 4
f 7 98 100 4
f 74 7 120 6
f 74 31 98 7
f 119 64 9 8
f 64 65 62 9
f 116 12 11 10
f 117 52 116 10
f 12 13 15 11
f 45 115 13 12
f 116 46 45 12
f 115 85 17 13
f 17 16 15 13
f 16 18 20 14
f 17 19 18 16
f 85 86 19 17
f 19 44 22 18
f 22 21 20 18
f 86 87 44 19
f 22 24 23 21
f 44 41 24 22
f 24 40 39 23
f 41 42 40 24
f 26 27 28 25
f 34 35 26 25
f 107 108 27 26
f 35 36 107 26
f 32 29 28 27
f 32 33 30 29
f 37 38 35 34
f 38 43 36 35
f 91 111 107 36
f 43 90 91 36
f 39 40 38 37
f 40 42 43 38
f 88 89 42 41
f 44 87 88 41
f 89 90 43 42
f 114 84 115 45
f 46 113 114 45
f 116 52 50 46
f 50 48 113 46
f 48 50 49 47
f 49 54 81 47
f 50 52 51 49
f 51 58 54 49
f 52 117 56 51
f 56 55 58 51
f 80 81 54 53
f 54 58 57 53
f 57 61 67 53
f 67 79 80 53
f 59 57 58 55
f 59 60 61 57
f 63 66 61 60
f 66 68 67 61
f 65 66 63 62
f 122 78 65 64
f 78 68 66 65
f 68 69 79 67
f 78 70 69 68
f 72 75 79 69
f 70 73 72 69
f 78 122 71 70
f 76 80 79 75
f 77 81 80 76
f 83 86 85 82
f 85 115 84 82
f 94 87 86 83
f 94 95 88 87
f 95 93 89 88
f 93 92 90 89
f 92 112 91 90
f 112 101 111 91
f 104 106 103 96
f 102 105 111 101
f 103 106 105 102
f 106 109 108 105
f 108 107 111 105
f 98 97 99 100
