# https://github.com/mikedh/trimesh
v -0.14022100 -0.41140699 -0.00775100
v -0.14109025 -0.45375325 -0.01822625
v -0.14539582 -0.37426695 -0.04741122
v -0.14009649 -0.42247050 -0.01283450
v -0.03582050 -0.40901588 -0.09994425
v -0.01931350 -0.41494851 -0.08678650
v -0.06305100 -0.39377700 -0.11465700
v -0.07939284 -0.38859121 -0.11446223
v -0.03057754 -0.47177675 -0.08067767
v -0.01850125 -0.42362875 -0.08090325
v -0.13120274 -0.42501131 -0.07033205
v -0.13258700 -0.44790101 -0.06710500
v -0.13523600 -0.42344299 -0.06341400
v -0.12638802 -0.41601331 -0.07773674
v -0.13658350 -0.40087551 -0.06632350
v -0.12483654 -0.42676757 -0.07821536
v -0.10787500 -0.46739351 -0.09100075
v -0.12746549 -0.40771701 -0.07883100
v -0.11545480 -0.42912839 -0.08655658
v -0.11738500 -0.42303199 -0.08534700
v -0.13924375 -0.39726550 -0.06191400
v -0.13655603 -0.43077791 -0.06007350
v -0.13797438 -0.45603978 -0.05461036
v -0.14202779 -0.39044231 -0.05489177
v -0.14370907 -0.39534143 -0.04911965
v -0.13844600 -0.45964801 -0.05337400
v -0.13980272 -0.42477473 -0.05186316
v -0.14038851 -0.43005154 -0.04854181
v -0.14008138 -0.45935739 -0.04708721
v -0.13932223 -0.46797749 -0.04857107
v -0.14043065 -0.46657564 -0.04329004
v -0.14408700 -0.40112299 -0.04357300
v -0.14461750 -0.38348700 -0.04340100
v -0.14345514 -0.38092811 -0.04755192
v -0.14535588 -0.38851531 -0.04021119
v -0.14526350 -0.39559850 -0.03454300
v -0.14305501 -0.38190401 -0.05107300
v -0.13953200 -0.47758501 -0.04321650
v -0.14081475 -0.46919774 -0.03601175
v -0.14164682 -0.43434153 -0.04022776
v -0.14138181 -0.45811443 -0.03876299
v -0.14491356 -0.39731866 -0.03963447
v -0.14453900 -0.40144600 -0.02748450
v -0.14199363 -0.42690267 -0.04003271
v -0.14145425 -0.46216087 -0.03138538
v -0.14244546 -0.42622980 -0.03347853
v -0.14170309 -0.44965063 -0.02909428
v -0.14171900 -0.42952201 -0.02361800
v -0.14113057 -0.42494914 -0.01826167
v -0.10854096 -0.40836938 -0.09415273
v -0.10939450 -0.42510649 -0.09085350
v -0.11728059 -0.41040757 -0.08704631
v -0.10770300 -0.44647399 -0.09169400
v -0.04693500 -0.43890500 -0.09495600
v -0.05414500 -0.46897416 -0.09471553
v -0.04871439 -0.43526257 -0.09602273
v -0.04322206 -0.42403678 -0.09607887
v -0.04272723 -0.42947650 -0.09479950
v -0.05565481 -0.44453646 -0.09720648
v -0.06918834 -0.45786420 -0.09894441
v -0.05967046 -0.46671300 -0.09677727
v -0.07274450 -0.46739149 -0.09864225
v -0.07034828 -0.43415185 -0.09980982
v -0.07424977 -0.45632507 -0.09941866
v -0.06489073 -0.42684569 -0.10000616
v -0.08418000 -0.46738201 -0.09903800
v -0.05070941 -0.42365158 -0.09824346
v -0.08556199 -0.46042950 -0.09884891
v -0.08082109 -0.42139634 -0.10093092
v -0.03664319 -0.43439115 -0.09124794
v -0.06018033 -0.41394477 -0.10266993
v -0.07973475 -0.43366991 -0.09975691
v -0.04011813 -0.44725934 -0.09117747
v -0.04570600 -0.47074450 -0.09136900
v -0.04900352 -0.46912698 -0.09293664
v -0.09048053 -0.46669508 -0.09782559
v -0.07194590 -0.40840405 -0.10508079
v -0.09646409 -0.41168403 -0.09955452
v -0.04878585 -0.41456694 -0.10078437
v -0.09157363 -0.45840945 -0.09780164
v -0.09069696 -0.43531432 -0.09790826
v -0.09237842 -0.42209648 -0.09840231
v -0.09865909 -0.43222062 -0.09573082
v -0.10359058 -0.46951062 -0.09324134
v -0.10209867 -0.42743021 -0.09454863
v -0.06337264 -0.40760835 -0.10557785
v -0.07629614 -0.40470669 -0.10649765
v -0.08826650 -0.39975602 -0.10598600
v -0.10030685 -0.45510047 -0.09542769
v -0.03620671 -0.47180406 -0.08538911
v -0.08814200 -0.39548701 -0.10902200
v -0.03164107 -0.42130741 -0.09163209
v -0.02644878 -0.42893158 -0.08585001
v -0.03587909 -0.41236686 -0.09879037
v -0.05971630 -0.40113354 -0.10996717
v -0.03350878 -0.41815922 -0.09402070
v -0.09505745 -0.40096900 -0.10357429
v -0.02166151 -0.41784223 -0.08631056
v -0.03294200 -0.47334150 -0.08287300
v -0.03941350 -0.47198725 -0.08784375
f 49 2 4
f 4 1 49
f 49 1 48
f 49 48 47
f 48 46 47
f 47 46 41
f 47 41 45
f 41 31 45
f 31 38 45
f 45 38 39
f 31 30 38
f 29 30 31
f 29 23 30
f 30 23 26
f 29 28 23
f 28 29 44
f 40 44 29
f 46 44 40
f 44 46 43
f 43 46 1
f 43 42 44
f 32 44 42
f 32 25 44
f 25 27 44
f 25 21 27
f 27 21 22
f 27 22 23
f 23 22 12
f 22 13 12
f 13 11 12
f 21 11 13
f 21 15 11
f 15 14 11
f 15 18 14
f 14 18 16
f 11 14 16
f 11 16 12
f 12 16 17
f 17 16 19
f 17 19 53
f 53 19 51
f 51 19 52
f 51 52 50
f 50 52 18
f 18 52 20
f 18 20 16
f 85 51 50
f 89 51 85
f 83 89 85
f 83 81 89
f 89 81 80
f 80 76 89
f 76 84 89
f 89 84 17
f 72 76 80
f 68 76 72
f 68 66 76
f 72 66 68
f 64 66 72
f 72 60 64
f 63 60 72
f 65 63 72
f 71 65 72
f 71 72 69
f 69 72 82
f 72 81 82
f 82 81 85
f 82 85 97
f 82 78 69
f 88 69 78
f 88 78 97
f 88 97 91
f 88 91 8
f 87 88 8
f 77 88 87
f 7 77 87
f 7 86 77
f 86 71 77
f 95 71 86
f 94 71 95
f 5 94 95
f 5 98 94
f 98 96 94
f 98 92 96
f 98 93 92
f 98 10 93
f 6 10 98
f 10 9 93
f 9 90 93
f 93 90 70
f 90 74 70
f 9 99 90
f 99 100 90
f 93 70 92
f 92 70 56
f 58 92 56
f 92 58 57
f 58 56 57
f 57 56 67
f 79 57 67
f 67 65 79
f 59 65 67
f 59 60 65
f 59 61 60
f 56 61 59
f 56 75 61
f 55 61 75
f 75 74 55
f 73 74 75
f 70 73 75
f 70 75 54
f 61 55 62
f 64 61 62
f 54 75 56
f 96 57 79
f 67 56 59
f 56 70 54
f 96 92 57
f 96 79 94
f 6 98 5
f 94 79 71
f 86 7 95
f 8 7 87
f 77 69 88
f 77 71 69
f 65 71 79
f 65 60 63
f 60 61 64
f 62 66 64
f 81 72 80
f 85 81 83
f 89 17 51
f 97 85 50
f 52 19 20
f 20 19 16
f 22 21 13
f 24 21 25
f 25 34 24
f 34 25 36
f 36 25 42
f 37 24 34
f 3 37 34
f 33 3 34
f 33 34 35
f 42 25 32
f 36 42 43
f 40 29 41
f 44 27 28
f 27 23 28
f 41 29 31
f 46 40 41
f 48 1 46
f 49 47 2

