v -0.0421509 -0.128003 0.0524999
v -0.0405008 -0.130068 0.0447671
v -0.0339941 -0.128447 0.0543395
v -0.0323567 -0.130285 0.0465551
v -0.0258435 -0.128763 0.0561625
v -0.0242113 -0.130403 0.048296
v -0.0225932 -0.131618 0.0401634
v -0.0307848 -0.131703 0.0384422
v 0.00401018 -0.132421 0.037336
v -0.00431637 -0.132708 0.0355893
v -0.0126429 -0.132996 0.0338425
v -0.0209695 -0.133283 0.0320958
v -0.0143592 -0.131699 0.0419289
v -0.00601215 -0.13145 0.0436853
v -0.016025 -0.130431 0.0500296
v 0.00216171 -0.131157 0.0455222
v -0.0078901 -0.130131 0.0518846
v 0.018249 -0.129909 0.0494585
v 0.0102344 -0.130655 0.0474498
v 0.0163362 -0.128433 0.057645
v 0.00831976 -0.129194 0.05564
v 0.0243489 -0.127658 0.0596487
v 0.0143755 -0.125155 0.0654294
v 0.00646528 -0.126197 0.0634037
v 0.0222736 -0.124063 0.0674339
v -0.00333913 -0.12346 0.068867
v 0.00446884 -0.121902 0.0706364
v 0.053398 -0.117061 0.0746572
v 0.045643 -0.119015 0.0729392
v 0.0379041 -0.120964 0.0712214
v 0.0636345 -0.119996 0.0704152
v 0.055826 -0.121613 0.0683339
v 0.0479655 -0.123189 0.0661148
v 0.0401049 -0.124764 0.0638957
v 0.0322444 -0.12634 0.0616767
v 0.0865707 -0.113371 0.0767293
v 0.0939619 -0.110677 0.0788941
v 0.101202 -0.107245 0.0811757
v 0.111469 -0.108464 0.0778687
v 0.11865 -0.104825 0.0804554
v 0.125482 -0.100822 0.0826255
v 0.142519 -0.0963227 0.081085
v 0.15234 -0.0940112 0.0764707
v 0.158659 -0.0889194 0.0787591
v 0.167878 -0.0845889 0.0739721
v 0.161896 -0.0900852 0.0716617
v 0.155485 -0.0949162 0.069154
v 0.148749 -0.0992914 0.0665757
v 0.141838 -0.103335 0.0638902
v 0.134912 -0.107215 0.061119
v 0.131681 -0.106497 0.0686631
v 0.127775 -0.11043 0.058257
v 0.120489 -0.113353 0.0553811
v 0.113132 -0.116198 0.0525358
v 0.102459 -0.118383 0.0573606
v 0.105675 -0.118715 0.0496691
v 0.0981442 -0.120999 0.0468117
v 0.0903872 -0.123017 0.04413
v 0.0587316 -0.129479 0.0339132
v 0.0668201 -0.128065 0.0363597
v 0.0637481 -0.127408 0.0445254
v 0.0557536 -0.128754 0.0421531
v 0.0748108 -0.126593 0.0387655
v 0.079453 -0.124101 0.0493861
v 0.0717168 -0.126007 0.0469083
v 0.0948151 -0.120403 0.054604
v 0.0871796 -0.122205 0.0518866
v 0.0994746 -0.116744 0.0650459
v 0.0968186 -0.114515 0.072519
v 0.0893665 -0.117137 0.0698079
v 0.0816682 -0.119275 0.0673401
v 0.0842367 -0.121262 0.0599126
v 0.0764764 -0.123307 0.0575482
v 0.0687178 -0.125185 0.0550521
v 0.0608246 -0.126494 0.0527202
v 0.0529202 -0.127765 0.0504061
v 0.0450236 -0.129064 0.0480825
v 0.0312751 -0.131593 0.0355214
v 0.0230661 -0.132362 0.0333789
v 0.0370284 -0.130037 0.0457707
v 0.0394838 -0.130823 0.0376638
v 0.0419108 -0.131016 0.0295269
v 0.0476904 -0.130017 0.0398047
v 0.0287861 -0.13076 0.0436167
v 0.020496 -0.131418 0.0414462
v 0.0122142 -0.132026 0.0392737
v 0.0345809 -0.128669 0.0538331
v 0.0425288 -0.12747 0.0561283
v 0.0919715 -0.119178 0.0623216
v 0.106953 -0.11424 0.0678124
v 0.117297 -0.112816 0.0630616
v 0.109859 -0.115597 0.0602134
v 0.0502625 -0.130389 0.0316355
v 0.0937691 -0.123257 0.0362256
v 0.0859285 -0.124884 0.0335055
v 0.0780879 -0.126512 0.0307854
v 0.0702472 -0.12812 0.0280585
v 0.0815305 -0.126042 0.0226408
v 0.0737026 -0.127287 0.0197665
v 0.0847784 -0.124984 0.0146702
v 0.0879154 -0.123977 0.00694607
v 0.0925734 -0.123735 0.0176605
v 0.0957004 -0.122573 0.00992487
v 0.107981 -0.119966 0.023443
v 0.100323 -0.121954 0.0205638
v 0.119007 -0.116679 0.0185831
v 0.115683 -0.117805 0.0263419
v 0.133726 -0.110907 0.0245425
v 0.12649 -0.113963 0.0215135
v 0.154686 -0.100377 0.0335295
v 0.147854 -0.104171 0.0305125
v 0.151569 -0.101866 0.0410532
v 0.144712 -0.105613 0.0381164
v 0.148269 -0.102926 0.0486085
v 0.141259 -0.106346 0.0457185
v 0.134247 -0.10973 0.0428392
v 0.119748 -0.115878 0.0369963
v 0.112284 -0.118483 0.0341093
v 0.108841 -0.118605 0.0419332
v 0.101353 -0.121053 0.0390841
v 0.116338 -0.116167 0.0447806
v 0.127167 -0.113084 0.0399435
v 0.137961 -0.106913 0.0534132
v 0.130891 -0.110291 0.0505214
v 0.161459 -0.0944693 0.0542487
v 0.155014 -0.098972 0.0514864
v 0.158256 -0.0977886 0.0439533
v 0.1645 -0.093126 0.0468265
v 0.167352 -0.0913786 0.0393233
v 0.161225 -0.0961346 0.0364311
v 0.17048 -0.0881844 0.049563
v 0.167611 -0.0897119 0.0569842
v 0.173378 -0.0843802 0.0592549
v 0.140946 -0.107822 0.0275612
v 0.137697 -0.109073 0.0352036
v 0.130478 -0.112175 0.0322365
v 0.123081 -0.114991 0.0292893
v 0.10344 -0.12094 0.0128476
v -0.029296 -0.13357 0.030349
v 0.104754 -0.120758 0.0312592
v 0.0970519 -0.122701 0.0283758
v 0.08935 -0.124645 0.0254924
v 0.0825836 -0.124897 0.041445
v 0.123803 -0.113629 0.0476307
v 0.124527 -0.10973 0.0658647
v 0.121616 -0.107914 0.0733976
v 0.128764 -0.104416 0.0760912
v 0.151922 -0.0996677 0.0590738
v 0.145025 -0.103517 0.0563006
v 0.138611 -0.102459 0.0712967
v 0.164798 -0.0902624 0.0643459
v 0.158504 -0.0953164 0.0618072
v 0.170754 -0.0847357 0.0666426
v -0.0389941 -0.131245 0.0367783
v 0.14559 -0.0984295 0.0739374
v 0.148866 -0.0910435 0.0829658
v 0.135744 -0.100666 0.0786514
v 0.114316 -0.111167 0.0705985
v 0.104212 -0.111768 0.0752506
v 0.0688804 -0.112817 0.0773273
v 0.0611431 -0.11497 0.0760534
v 0.0355334 -0.113862 0.0753344
v 0.027782 -0.11595 0.0742727
v 0.0200306 -0.118037 0.073211
v 0.0122791 -0.120125 0.0721493
v 0.0738666 -0.121049 0.0650679
v 0.0660519 -0.122721 0.0628538
v 0.0582372 -0.124393 0.0606396
v 0.0504225 -0.126065 0.0584255
v 0.0713512 -0.118019 0.0724534
v 0.0790551 -0.115921 0.0745299
v -0.00150076 -0.127136 0.0614649
v -0.00961467 -0.127804 0.0597563
v -0.0112474 -0.124521 0.0668599
v -0.0193613 -0.125188 0.0651514
v 0.0301062 -0.122656 0.0692952
v -0.0177167 -0.128417 0.05799
v 0.0263798 -0.129261 0.051621
v 0.0002467 -0.129785 0.0537283
v -0.0275028 -0.125505 0.0634878
v -0.0356516 -0.12573 0.0618361
f 2 4 3 1
f 154 8 4 2
f 4 6 5 3
f 5 180 181 3
f 8 7 6 4
f 6 15 177 5
f 177 175 180 5
f 7 13 15 6
f 8 139 12 7
f 12 11 13 7
f 16 14 10 9
f 86 19 16 9
f 14 13 11 10
f 14 17 15 13
f 16 179 17 14
f 17 173 177 15
f 19 21 179 16
f 179 172 173 17
f 20 21 19 18
f 19 86 85 18
f 85 84 178 18
f 178 22 20 18
f 23 24 21 20
f 22 25 23 20
f 24 172 179 21
f 178 87 35 22
f 35 176 25 22
f 165 27 24 23
f 25 164 165 23
f 27 26 172 24
f 176 163 164 25
f 174 173 172 26
f 29 33 32 28
f 32 31 161 28
f 30 34 33 29
f 162 163 176 30
f 176 35 34 30
f 32 168 167 31
f 167 166 170 31
f 170 160 161 31
f 33 169 168 32
f 34 88 169 33
f 35 87 88 34
f 171 71 70 36
f 70 69 37 36
f 69 159 38 37
f 159 90 158 39
f 158 146 40 39
f 146 147 41 40
f 157 150 155 42
f 155 43 156 42
f 155 48 47 43
f 47 46 44 43
f 46 151 153 45
f 47 152 151 46
f 48 148 152 47
f 155 150 49 48
f 49 149 148 48
f 150 51 50 49
f 50 123 149 49
f 51 145 52 50
f 52 124 123 50
f 147 146 145 51
f 150 157 147 51
f 145 91 53 52
f 53 144 124 52
f 91 92 54 53
f 54 121 144 53
f 92 55 56 54
f 56 119 121 54
f 68 89 66 55
f 66 57 56 55
f 92 90 68 55
f 57 120 119 56
f 66 67 58 57
f 58 94 120 57
f 67 64 143 58
f 143 95 94 58
f 60 61 62 59
f 97 96 63 60
f 63 65 61 60
f 75 76 62 61
f 65 74 75 61
f 76 77 83 62
f 96 95 143 63
f 143 64 65 63
f 73 74 65 64
f 67 72 73 64
f 89 72 67 66
f 69 70 89 68
f 90 159 69 68
f 71 72 89 70
f 171 170 166 71
f 166 73 72 71
f 166 167 74 73
f 167 168 75 74
f 168 169 76 75
f 169 88 77 76
f 88 87 80 77
f 80 81 83 77
f 84 85 79 78
f 81 80 84 78
f 87 178 84 80
f 82 93 83 81
f 92 91 158 90
f 145 146 158 91
f 95 142 141 94
f 141 140 120 94
f 96 98 142 95
f 97 99 98 96
f 100 102 142 98
f 101 103 102 100
f 103 138 105 102
f 105 141 142 102
f 140 141 105 104
f 107 118 140 104
f 109 137 107 106
f 137 117 118 107
f 136 137 109 108
f 134 135 136 108
f 112 113 111 110
f 113 135 134 111
f 114 115 113 112
f 127 126 114 112
f 115 116 135 113
f 149 123 115 114
f 126 148 149 114
f 123 124 116 115
f 124 144 122 116
f 122 136 135 116
f 121 119 118 117
f 137 136 122 117
f 122 144 121 117
f 119 120 140 118
f 152 148 126 125
f 126 127 128 125
f 128 131 132 125
f 132 151 152 125
f 130 129 128 127
f 133 153 151 132
f 174 175 177 173
