# https://github.com/mikedh/trimesh
v -0.07454400 0.18105100 0.24253851
v 0.05152425 0.07581625 0.21784675
v 0.05710500 0.07650600 0.21732201
v 0.06300175 0.07970550 0.21856513
v -0.07790900 0.12671299 0.21806499
v -0.05775587 0.10801150 0.21949075
v -0.04103550 0.09719575 0.22203299
v -0.02293300 0.08798600 0.22246000
v -0.00702825 0.08204575 0.22017350
v 0.02146894 0.07607119 0.21842781
v 0.06724150 0.12343700 0.22639700
v 0.06764706 0.08972344 0.22278900
v 0.06977700 0.09229225 0.22059775
v 0.06466900 0.09279750 0.22841425
v 0.05455700 0.11209400 0.24403575
v 0.05657400 0.09274600 0.23448899
v -0.05361555 0.10598372 0.22448318
v -0.07740300 0.12804300 0.22125199
v -0.06782822 0.11831676 0.22400294
v -0.07823700 0.13127649 0.22362150
v -0.03228530 0.09443167 0.22747665
v -0.03013958 0.09477298 0.22995690
v -0.04879789 0.10761785 0.23080280
v -0.01458672 0.08718157 0.22879294
v 0.00477792 0.08104514 0.22863809
v -0.07658375 0.13801475 0.23036125
v -0.07790000 0.13384600 0.22634900
v -0.06455752 0.12216806 0.23030636
v -0.06696104 0.13386662 0.23581558
v -0.00420049 0.09053092 0.23641892
v -0.05154410 0.11406203 0.23447008
v -0.02751457 0.10084574 0.23679723
v -0.05966490 0.14276607 0.24383959
v -0.02253930 0.10602666 0.24177337
v -0.06569511 0.14593914 0.24181640
v 0.01208285 0.09171273 0.23993482
v 0.01637946 0.08591323 0.23578951
v 0.00748904 0.09405680 0.24121019
v 0.02251631 0.08038451 0.23120447
v 0.04445450 0.08396003 0.23263583
v 0.04341180 0.07716432 0.22584265
v 0.05470441 0.08146801 0.22743356
v -0.02316493 0.08813329 0.22578733
v 0.00381270 0.07886121 0.22073910
v 0.03011911 0.07505107 0.22052297
v 0.02362721 0.07572973 0.22282223
v 0.02420785 0.07837359 0.22804677
v 0.03595879 0.07708653 0.22617128
v -0.01007881 0.12213960 0.25221569
v 0.01005893 0.12592717 0.25571276
v 0.00565506 0.11619266 0.25179399
v 0.00341204 0.10227320 0.24575656
v -0.03506131 0.13188209 0.24966434
v -0.01564508 0.10676866 0.24423188
v -0.03782976 0.11974583 0.24409756
v 0.00658169 0.14067150 0.25891454
v -0.04296807 0.14686487 0.25163520
v -0.04532717 0.15238819 0.25163527
v -0.03157882 0.15179776 0.25513680
v -0.01596989 0.14282891 0.25680778
v 0.02006455 0.14641137 0.26030314
v -0.01103739 0.16273443 0.25950174
v 0.02887514 0.12969642 0.25636715
v 0.00386710 0.15550704 0.26090124
v -0.01314806 0.16628604 0.25928870
v -0.04000515 0.16135978 0.25447565
v 0.02733653 0.11530182 0.25215475
v -0.03203860 0.16472285 0.25637347
v -0.05833501 0.17088110 0.24904267
v -0.02229452 0.17480916 0.25775318
v 0.00268937 0.17621348 0.26054750
v 0.00860305 0.16884383 0.26122347
v -0.03147086 0.17610323 0.25683560
v 0.02987013 0.16182078 0.26121712
v 0.02756062 0.13267086 0.25753413
v -0.05423520 0.13188101 0.24235213
v 0.02433671 0.16709805 0.26157727
v 0.03387873 0.15990657 0.26140090
v -0.06392000 0.19052701 0.24481100
v -0.06730738 0.16160212 0.24379575
v -0.03660060 0.11065726 0.23980673
v -0.06057765 0.15838616 0.24722092
v 0.01572100 0.18266000 0.26022300
v 0.03883815 0.11041783 0.24884373
v 0.01352758 0.10284674 0.24660029
v 0.04407225 0.14352751 0.25723970
v -0.05399441 0.12726497 0.24032144
v 0.03106502 0.09849071 0.24441341
v 0.01220659 0.18482715 0.25993576
v 0.00505891 0.19405801 0.25783357
v 0.04310490 0.15336775 0.25856232
v 0.03680870 0.08906979 0.23849268
v -0.06681900 0.17579350 0.24529050
v 0.04444558 0.15647089 0.25855631
v 0.04464526 0.12796172 0.25333899
v 0.03877451 0.12571714 0.25421424
v 0.02852897 0.18456631 0.26000741
v 0.04806175 0.16946400 0.25753025
v -0.00603054 0.19971025 0.25559670
v 0.03752996 0.17612736 0.26001639
v 0.03840120 0.19468984 0.25671616
v 0.04103050 0.18873050 0.25750200
v -0.02964750 0.18508099 0.25521049
v 0.05053143 0.11384735 0.24708569
v 0.03013207 0.19655907 0.25727624
v 0.00921511 0.20097845 0.25616799
v 0.04952823 0.09188504 0.23737624
v 0.03308458 0.20614323 0.25400119
v 0.04962400 0.15848500 0.25681001
v 0.01712055 0.20954909 0.25360060
v 0.03789350 0.20230049 0.25463201
v 0.04226075 0.19833912 0.25481075
v 0.05298350 0.13250500 0.25099450
v 0.05132850 0.13891301 0.25332100
v 0.02691050 0.21230075 0.25202549
v 0.05134500 0.14859700 0.25504601
v 0.05131900 0.15354900 0.25562000
v -0.00502150 0.21119050 0.25159850
v 0.05592800 0.11605175 0.24443976
v 0.05189050 0.12576700 0.24988199
v -0.01118450 0.22704425 0.24324175
v 0.01715100 0.21838200 0.24959400
v 0.07140800 0.15888000 0.23596400
v 0.07049450 0.16512075 0.23728650
v 0.06753210 0.15304600 0.23681533
v 0.07131050 0.15373500 0.23467200
v 0.06904100 0.14845150 0.23441150
v 0.06782538 0.17108922 0.23949691
v 0.06871825 0.18459437 0.23809762
v 0.06680772 0.16583375 0.23980047
v 0.06650844 0.19207689 0.23950872
v 0.06593852 0.18754289 0.24109327
v 0.05822273 0.17760398 0.25183428
v 0.06060228 0.16894531 0.24943250
v 0.06045378 0.16465250 0.24927879
v 0.06310621 0.15386849 0.24445209
v 0.06749457 0.09429451 0.22598503
v 0.06536311 0.14115198 0.23710195
v 0.06481941 0.11275615 0.23381548
v 0.06702946 0.13453807 0.23116211
v 0.06649430 0.11859957 0.22960554
v 0.06963225 0.09670523 0.22219666
v 0.06764861 0.12739990 0.22609726
v 0.06074081 0.11750665 0.24094575
v 0.06786525 0.12113300 0.21744612
v 0.06891100 0.13091349 0.22566100
v 0.05976145 0.14498736 0.24813132
v 0.05668710 0.15154429 0.25226686
v 0.05711500 0.14427400 0.25051200
v 0.06654611 0.20473859 0.23707815
v 0.06091104 0.19554213 0.24645408
v 0.05828170 0.11371666 0.24220177
v 0.05608087 0.13147628 0.24886910
v 0.06825200 0.22172700 0.22865801
v 0.05529241 0.18630401 0.25317897
v 0.05753071 0.19973821 0.24872737
v 0.05713885 0.21291524 0.24408247
v 0.05168730 0.17937767 0.25575622
v 0.05333100 0.22813300 0.23743924
v 0.05286636 0.16765148 0.25579821
v 0.05037506 0.18209406 0.25625257
v 0.05182000 0.20744200 0.24928300
v 0.05345570 0.22373138 0.24083778
v 0.05047966 0.21922412 0.24478214
v 0.04236952 0.21128411 0.25090496
v 0.05028698 0.19489349 0.25395047
v 0.04285482 0.22946553 0.24051624
v 0.04127958 0.21879229 0.24750170
v 0.04158727 0.22561560 0.24353440
v 0.03000479 0.22785408 0.24392405
v 0.02769850 0.22111366 0.24797587
v 0.00405605 0.22614714 0.24514708
v 0.00341750 0.23272300 0.24079901
v 0.01786625 0.23253650 0.24118100
v 0.00633042 0.22820320 0.24420949
v -0.01072100 0.23250151 0.24005400
f 79 1 93
f 79 93 69
f 69 93 80
f 69 80 82
f 82 80 35
f 82 35 57
f 58 82 57
f 58 66 82
f 68 66 58
f 70 66 68
f 71 70 68
f 73 70 71
f 89 73 71
f 89 90 73
f 90 89 97
f 97 105 90
f 105 97 101
f 101 111 105
f 111 108 105
f 108 110 105
f 108 115 110
f 115 118 110
f 110 118 99
f 118 103 99
f 99 103 73
f 103 79 73
f 110 99 106
f 106 99 90
f 110 106 105
f 101 102 111
f 101 97 102
f 102 97 100
f 97 77 100
f 100 77 74
f 78 100 74
f 74 61 78
f 78 61 75
f 86 78 75
f 91 78 86
f 94 91 86
f 109 94 86
f 78 94 109
f 98 78 109
f 160 98 109
f 109 117 160
f 160 117 148
f 133 160 148
f 155 160 133
f 155 158 160
f 158 161 160
f 155 161 158
f 166 161 155
f 156 166 155
f 156 163 166
f 157 163 156
f 156 155 133
f 156 133 151
f 156 151 150
f 157 156 150
f 157 150 154
f 163 157 154
f 154 159 163
f 164 163 159
f 163 164 162
f 164 159 167
f 167 169 164
f 167 170 169
f 169 170 168
f 168 170 165
f 171 165 170
f 170 175 171
f 171 175 122
f 175 172 122
f 172 175 121
f 176 121 175
f 173 176 175
f 175 174 173
f 172 121 122
f 170 174 175
f 165 171 122
f 165 122 108
f 165 108 112
f 165 112 166
f 166 164 165
f 164 166 162
f 166 112 98
f 164 168 165
f 167 174 170
f 169 168 164
f 150 151 131
f 132 131 151
f 131 132 128
f 131 128 129
f 129 128 124
f 128 125 124
f 128 130 125
f 128 132 130
f 130 136 125
f 134 136 130
f 135 136 134
f 148 136 135
f 148 147 136
f 148 149 147
f 149 148 153
f 116 153 148
f 153 116 113
f 153 113 119
f 119 152 153
f 144 153 152
f 147 153 144
f 147 144 139
f 139 144 137
f 142 139 137
f 139 142 141
f 11 141 142
f 141 11 143
f 140 141 143
f 140 143 146
f 143 145 146
f 143 11 145
f 140 139 141
f 140 138 139
f 136 138 140
f 136 139 138
f 142 137 13
f 137 12 13
f 137 14 12
f 152 14 137
f 152 137 144
f 119 14 152
f 149 153 147
f 136 147 139
f 134 148 135
f 132 134 130
f 132 133 134
f 125 136 140
f 125 140 127
f 125 127 126
f 123 125 126
f 123 124 125
f 129 150 131
f 151 133 132
f 133 148 134
f 117 116 148
f 161 98 160
f 102 78 98
f 109 86 114
f 114 86 104
f 114 104 120
f 120 104 15
f 15 104 16
f 104 107 16
f 104 84 107
f 84 88 107
f 88 92 107
f 107 92 42
f 92 40 42
f 40 92 41
f 92 39 41
f 92 37 39
f 92 36 37
f 92 38 36
f 36 38 30
f 38 52 30
f 85 52 38
f 67 52 85
f 67 85 88
f 67 51 52
f 50 51 67
f 96 50 67
f 96 67 84
f 96 63 50
f 75 63 96
f 63 75 50
f 75 56 50
f 56 60 50
f 60 56 64
f 64 57 60
f 64 59 57
f 64 68 59
f 62 68 64
f 62 65 68
f 64 65 62
f 71 65 64
f 72 71 64
f 77 71 72
f 72 64 77
f 77 64 61
f 57 53 60
f 49 60 53
f 49 53 55
f 53 76 55
f 55 76 87
f 76 29 87
f 87 29 31
f 31 29 28
f 31 28 19
f 31 19 23
f 31 23 81
f 55 31 81
f 54 55 81
f 54 81 34
f 32 34 81
f 54 34 32
f 54 32 52
f 49 54 52
f 81 23 32
f 32 23 22
f 30 32 22
f 30 22 24
f 30 24 25
f 30 25 39
f 25 47 39
f 39 47 48
f 47 46 48
f 41 48 46
f 41 46 45
f 46 44 45
f 45 44 10
f 45 10 2
f 41 45 2
f 3 41 2
f 42 41 3
f 4 42 3
f 47 25 46
f 25 43 46
f 43 44 46
f 43 9 44
f 43 8 9
f 43 7 8
f 43 17 7
f 21 17 43
f 22 21 43
f 22 17 21
f 17 6 7
f 19 6 17
f 19 5 6
f 18 5 19
f 20 18 19
f 27 20 19
f 26 27 19
f 29 26 19
f 35 26 29
f 35 29 33
f 25 24 43
f 24 22 43
f 23 17 22
f 19 17 23
f 29 19 28
f 76 33 29
f 57 33 76
f 55 87 31
f 55 54 49
f 57 76 53
f 64 56 61
f 50 60 49
f 50 49 51
f 51 49 52
f 88 85 38
f 52 32 30
f 36 30 37
f 37 30 39
f 41 39 48
f 42 40 41
f 88 38 92
f 67 88 84
f 104 96 84
f 95 96 104
f 95 86 96
f 16 107 4
f 4 107 42
f 86 95 104
f 94 78 91
f 86 75 96
f 61 56 75
f 77 61 74
f 97 71 77
f 83 71 97
f 106 90 105
f 97 89 83
f 90 99 73
f 89 71 83
f 71 68 65
f 70 73 66
f 73 69 66
f 68 58 59
f 59 58 57
f 57 35 33
f 35 80 26
f 69 82 66
f 79 69 73

