v -0.0907792 -0.0844123 0.140604
v -0.099887 -0.0827436 0.138237
v -0.108995 -0.0810749 0.13587
v -0.0696998 -0.0959075 0.128149
v -0.0790827 -0.0951515 0.126239
v -0.0883236 -0.0937168 0.124236
v -0.0896043 -0.0895004 0.132638
v -0.0988852 -0.0883242 0.130694
v -0.107943 -0.0865385 0.128377
v -0.106631 -0.0903691 0.120055
v -0.105295 -0.0937766 0.112226
v -0.11345 -0.0934287 0.102209
v -0.112699 -0.0952055 0.0929891
v -0.103485 -0.0982291 0.0942282
v -0.102686 -0.0995404 0.0848466
v -0.0931018 -0.101883 0.0862002
v -0.0833551 -0.103917 0.0876404
v -0.0722931 -0.106482 0.0797662
v -0.0626933 -0.107679 0.0817173
v -0.0530708 -0.1087 0.0836204
v -0.0339162 -0.109997 0.0872056
v -0.0434434 -0.109481 0.085459
v -0.0243872 -0.110482 0.0889439
v -0.0322558 -0.11068 0.0777325
v -0.0227174 -0.111053 0.0794335
v -0.00528652 -0.110436 0.0922158
v -0.0148389 -0.110517 0.0905867
v -0.016436 -0.108945 0.0999987
v -0.0259851 -0.10898 0.0983597
v -0.0355122 -0.108715 0.0966527
v -0.0450393 -0.108449 0.0949457
v -0.0370314 -0.106704 0.106046
v -0.0465177 -0.106253 0.104322
v -0.0275259 -0.106918 0.107685
v -0.00843517 -0.106574 0.110883
v -0.0179876 -0.106806 0.109279
v 0.00110029 -0.106158 0.112456
v 0.0201479 -0.104895 0.11547
v 0.0265004 -0.0964536 0.134641
v 0.0281043 -0.100525 0.125835
v 0.0359746 -0.0953143 0.13582
v 0.00750385 -0.0981907 0.131726
v -0.00354889 -0.0943528 0.139181
v -0.00198723 -0.0989848 0.130278
v 0.0154101 -0.0927838 0.141814
v 0.00593757 -0.0936187 0.140607
v 0.0138487 -0.0875434 0.149828
v 0.00438246 -0.0883549 0.148606
v -0.006534 -0.0839039 0.155409
v -0.00506276 -0.089257 0.147447
v -0.0145132 -0.0900498 0.146261
v -0.0130294 -0.0951005 0.137752
v -0.0225128 -0.0957427 0.136649
v -0.0318658 -0.0960821 0.134579
v -0.0333701 -0.0911847 0.143453
v -0.0239787 -0.090605 0.14494
v -0.0253989 -0.0852203 0.152809
v -0.0348148 -0.0856969 0.151349
v -0.044193 -0.0862178 0.149881
v -0.0427823 -0.0916193 0.141763
v -0.0521965 -0.0915838 0.140024
v -0.0616442 -0.0916196 0.138369
v -0.0723085 -0.0860767 0.144651
v -0.062982 -0.0863186 0.146463
v -0.0643614 -0.0805145 0.154118
v -0.0549969 -0.0803483 0.155749
v -0.0564261 -0.0736929 0.162722
v -0.0470615 -0.0734647 0.164377
v -0.0843038 -0.0731629 0.157031
v -0.0750941 -0.0737527 0.159177
v -0.0376635 -0.0729867 0.165706
v -0.0282534 -0.0723608 0.166915
v -0.0188369 -0.0718201 0.168283
v -0.00140243 -0.0631663 0.177257
v 4.67422e-05 -0.0700969 0.170683
v 0.00948089 -0.0689014 0.171627
v 0.00148326 -0.0768519 0.163894
v -0.00797205 -0.0776552 0.162629
v 0.031208 -0.0795451 0.159533
v 0.0203449 -0.0743573 0.165702
v 0.010918 -0.0756771 0.164854
v 0.0217861 -0.0807382 0.158568
v 0.0123659 -0.0818877 0.157563
v 0.0297424 -0.0729133 0.166456
v 0.0405587 -0.0779337 0.160244
v 0.0485243 -0.0696665 0.167542
v 0.0377159 -0.064234 0.173363
v 0.0174976 -0.0604515 0.178734
v 0.01605 -0.0530867 0.184745
v 0.00805623 -0.0619786 0.178194
v 0.00659469 -0.0544419 0.184006
v -0.0028776 -0.0556162 0.183059
v 0.036311 -0.0567973 0.179136
v 0.0471119 -0.0623623 0.173506
v 0.0269027 -0.0587267 0.179084
v -0.0816439 -0.0858391 0.142839
v -0.0709773 -0.0912273 0.13646
v 0.0498857 -0.0761249 0.160912
v 0.051509 -0.082289 0.153798
v 0.0702719 -0.078395 0.155162
v 0.0608551 -0.0804048 0.154471
v 0.0774691 -0.0692764 0.162027
v 0.0683413 -0.0720888 0.162064
v -0.0975612 -0.092291 0.122285
v 0.0795793 -0.0759548 0.155551
v 0.0813882 -0.0816422 0.148204
v 0.0720034 -0.0838295 0.147639
v 0.062592 -0.0858957 0.146998
v 0.0642993 -0.090906 0.139124
v 0.0734183 -0.0886822 0.14021
v 0.0825963 -0.0865144 0.141348
v 0.075259 -0.0930846 0.131917
v 0.0659538 -0.0950771 0.130726
v 0.0565504 -0.0967545 0.129601
v 0.0470948 -0.0982331 0.128443
v 0.05489 -0.092571 0.138122
v -0.10433 -0.0963905 0.103313
v 0.048662 -0.101652 0.11953
v 0.0769763 -0.0966617 0.123189
v 0.0675368 -0.098589 0.121931
v 0.0786597 -0.0996184 0.114309
v 0.0879559 -0.0972379 0.115291
v 0.0862572 -0.0942724 0.1242
v 0.0954556 -0.0916244 0.125108
v 0.0972737 -0.0948378 0.116282
v 0.0896453 -0.099567 0.106191
v 0.0802963 -0.101948 0.105203
v 0.0818014 -0.103198 0.0958816
v 0.0724652 -0.10516 0.0948661
v 0.0740824 -0.105942 0.0854616
v 0.0648797 -0.107965 0.0841738
v 0.0554063 -0.109201 0.0826679
v 0.0458596 -0.109727 0.0810167
v 0.0345207 -0.109913 0.08894
v 0.0363333 -0.110417 0.0794335
v 0.0535238 -0.107721 0.0919018
v 0.0440253 -0.108914 0.090438
v 0.0708128 -0.10381 0.104058
v 0.0613539 -0.105382 0.102733
v 0.0407607 -0.105632 0.10916
v 0.0312478 -0.106485 0.107674
v 0.032839 -0.10857 0.0983455
v 0.0217321 -0.107439 0.106244
v 0.0121945 -0.108038 0.104735
v 0.00265552 -0.10862 0.103222
v 0.0137975 -0.109777 0.0953493
v 0.023324 -0.109281 0.0968616
v 0.0059151 -0.111207 0.0843311
v 0.0154479 -0.110916 0.0858832
v 0.0249675 -0.110553 0.087411
v 0.0171788 -0.111535 0.0763822
v 0.00758688 -0.111677 0.0748096
v 0.0502674 -0.104476 0.110556
v 0.0597433 -0.103011 0.111788
v 0.0518568 -0.106582 0.10131
v 0.042349 -0.10762 0.0998349
v 0.0267604 -0.111015 0.0779105
v 0.0630031 -0.10647 0.0933828
v 0.0989636 -0.0970998 0.10716
v 0.106331 -0.0914977 0.117041
v 0.113468 -0.0851623 0.126331
v 0.10459 -0.0887572 0.125921
v -0.0546108 -0.107733 0.0931007
v -0.00362393 -0.111385 0.0827474
v 0.00426146 -0.11028 0.0938245
v -0.00688904 -0.108818 0.101618
v 0.111478 -0.0812055 0.134757
v -0.0737616 -0.105573 0.0891695
v 0.0983371 -0.0749444 0.150239
v 0.100617 -0.0802853 0.142606
v 0.0916385 -0.0835377 0.142049
v 0.0896692 -0.0783082 0.149405
v 0.109445 -0.0765373 0.142748
v 0.102679 -0.0848509 0.134445
v 0.0935697 -0.0877852 0.133678
v 0.0692335 -0.101504 0.113071
v 0.0844487 -0.0906059 0.132863
v 0.053187 -0.087731 0.146143
v 0.0862588 -0.0662503 0.162479
v 0.0880399 -0.0727019 0.156309
v 0.0421416 -0.0839294 0.152986
v 0.032719 -0.085269 0.151964
v 0.039125 -0.071329 0.167077
v 0.0283197 -0.0659335 0.172943
v 0.0189182 -0.0675926 0.172434
v -0.0108403 -0.0640504 0.176013
v -0.00940426 -0.0711494 0.169643
v -0.0173993 -0.0783804 0.16141
v -0.0268249 -0.0791009 0.160193
v -0.0657999 -0.0738889 0.161024
v -0.0736519 -0.0800879 0.152115
v -0.0829196 -0.0795653 0.150015
v -0.0921884 -0.0789722 0.148051
v -0.064212 -0.106662 0.0911519
v -0.101387 -0.0777754 0.145974
v -0.0508194 -0.0965159 0.131644
v -0.060277 -0.0964251 0.129949
v -0.0494783 -0.100681 0.122763
v -0.0560155 -0.105845 0.102603
v -0.029017 -0.104248 0.116863
v -0.0385314 -0.104155 0.115289
v -0.0480376 -0.103949 0.11367
v -0.0575106 -0.103457 0.111936
v -0.0844865 -0.102468 0.096939
v -0.094037 -0.100607 0.0955171
v -0.085638 -0.100305 0.106488
v -0.0949559 -0.098499 0.104686
v -0.09618 -0.0959366 0.113685
v -0.086981 -0.0973913 0.11548
v 0.0106301 -0.105623 0.113992
v -0.066951 -0.102842 0.110157
v -0.0589256 -0.100268 0.121036
v -0.068347 -0.0996024 0.119228
v -0.0777298 -0.0988002 0.117437
v -0.0535931 -0.0863515 0.14818
v -0.0362314 -0.079591 0.15877
v -0.0456319 -0.0800083 0.157285
v -0.0159705 -0.0846256 0.154161
v 0.00291287 -0.0829918 0.156546
v 0.0232912 -0.0864826 0.150886
v 0.0248644 -0.0917966 0.143009
v 0.0437516 -0.0893051 0.145172
v 0.034309 -0.0906367 0.144135
v 0.0454367 -0.0940372 0.136967
v 0.0376011 -0.0994564 0.127157
v 0.0391809 -0.10287 0.118263
v 0.0090848 -0.102255 0.12291
v -0.000444022 -0.102914 0.121413
v -0.00997284 -0.103573 0.119917
v -0.0195017 -0.104232 0.11842
v 0.0296729 -0.104087 0.116915
f 96 192 193 1
f 193 195 2 1
f 3 9 8 2
f 5 214 213 4
f 213 212 197 4
f 197 62 97 4
f 7 8 104 6
f 9 10 104 8
f 117 207 208 11
f 13 14 117 12
f 15 16 205 14
f 205 207 117 14
f 17 204 205 16
f 19 194 168 18
f 20 163 194 19
f 22 31 163 20
f 24 25 23 21
f 23 29 30 21
f 30 31 22 21
f 27 28 29 23
f 164 148 165 26
f 165 145 166 26
f 166 28 27 26
f 166 35 36 28
f 36 34 29 28
f 34 32 30 29
f 32 33 31 30
f 33 199 163 31
f 34 200 201 32
f 201 202 33 32
f 202 203 199 33
f 36 230 200 34
f 166 145 37 35
f 37 228 229 35
f 229 230 36 35
f 145 144 210 37
f 210 227 228 37
f 210 144 143 38
f 143 141 231 38
f 40 225 41 39
f 41 223 221 39
f 231 226 225 40
f 225 115 224 41
f 224 222 223 41
f 46 43 44 42
f 46 48 50 43
f 221 220 47 45
f 47 48 46 45
f 220 82 83 47
f 83 219 48 47
f 219 49 50 48
f 218 51 50 49
f 219 77 78 49
f 78 188 218 49
f 56 53 52 51
f 218 57 56 51
f 56 55 54 53
f 218 188 189 57
f 189 216 58 57
f 216 217 59 58
f 215 61 60 59
f 217 66 215 59
f 62 197 196 61
f 215 64 62 61
f 64 63 97 62
f 64 65 191 63
f 191 192 96 63
f 215 66 65 64
f 66 67 190 65
f 190 70 191 65
f 217 68 67 66
f 217 216 71 68
f 192 191 70 69
f 216 189 72 71
f 189 188 73 72
f 188 78 187 73
f 186 187 75 74
f 75 76 90 74
f 90 91 92 74
f 187 78 77 75
f 77 81 76 75
f 81 80 185 76
f 185 88 90 76
f 219 83 81 77
f 82 220 182 79
f 182 181 85 79
f 85 183 84 79
f 84 80 82 79
f 81 83 82 80
f 84 184 185 80
f 183 87 184 84
f 181 99 98 85
f 98 86 183 85
f 94 87 183 86
f 93 95 184 87
f 185 184 95 88
f 89 91 90 88
f 181 222 178 99
f 178 108 101 99
f 101 108 107 100
f 107 106 105 100
f 105 102 103 100
f 105 180 179 102
f 178 116 109 108
f 116 114 113 109
f 113 112 110 109
f 112 177 111 110
f 177 175 171 111
f 113 120 119 112
f 119 123 177 112
f 116 224 115 114
f 225 226 118 115
f 178 222 224 116
f 120 176 121 119
f 121 122 123 119
f 176 138 127 121
f 127 126 122 121
f 126 159 125 122
f 125 124 123 122
f 124 175 177 123
f 125 160 162 124
f 162 174 175 124
f 138 129 128 127
f 158 131 130 129
f 138 139 158 129
f 158 136 132 131
f 136 137 133 132
f 137 134 135 133
f 150 157 135 134
f 137 156 142 134
f 142 147 150 134
f 158 139 155 136
f 155 156 137 136
f 176 154 139 138
f 141 142 156 140
f 156 155 153 140
f 226 231 141 140
f 143 147 142 141
f 144 146 147 143
f 145 165 146 144
f 165 148 149 146
f 149 150 147 146
f 152 151 149 148
f 151 157 150 149
f 167 174 162 161
f 173 170 174 167
f 172 171 170 169
f 171 175 174 170
f 182 223 222 181
f 220 221 223 182
f 197 212 198 196
f 212 203 202 198
f 212 213 211 203
f 209 208 207 206
