v -0.245575 0.16004 0.0187533
v -0.244099 0.169994 0.0260695
v -0.243678 0.17716 0.015716
v -0.245194 0.167065 0.00827417
v -0.245852 0.15649 0.00133101
v -0.245952 0.149454 0.0124328
v -0.245688 0.145345 -0.00428081
v -0.245041 0.152704 -0.0153858
v -0.245198 0.163615 -0.00910128
v -0.24428 0.174102 -0.00209473
v -0.24353 0.181635 -0.0125707
v -0.24195 0.188832 -0.0232126
v -0.240448 0.199326 -0.0151941
v -0.241969 0.191921 -0.00484375
v -0.242942 0.184416 0.00539614
v -0.241187 0.194568 0.0132258
v -0.238153 0.204232 0.0216361
v -0.235326 0.218789 0.00158712
v -0.233198 0.226419 -0.00806852
v -0.238141 0.209315 -0.00681284
v -0.235825 0.217096 -0.0163418
v -0.233142 0.225521 -0.0253937
v -0.231853 0.225184 -0.0419346
v -0.229779 0.233756 -0.0343555
v -0.226149 0.241577 -0.043428
v -0.222186 0.249172 -0.0525692
v -0.215078 0.265157 -0.0531912
v -0.219595 0.257733 -0.0443824
v -0.211816 0.273578 -0.0444698
v -0.209998 0.272608 -0.0619866
v -0.215532 0.255086 -0.0793122
v -0.212905 0.26392 -0.070777
v -0.210182 0.262032 -0.0883408
v -0.2172 0.245688 -0.0874443
v -0.220079 0.247854 -0.0700017
v -0.224717 0.240585 -0.0607887
v -0.229919 0.224467 -0.0586317
v -0.226275 0.231561 -0.0685329
v -0.228736 0.212004 -0.0831108
v -0.227793 0.221989 -0.0760088
v -0.233189 0.195173 -0.0799514
v -0.235696 0.198884 -0.0629238
v -0.232534 0.205156 -0.0731916
v -0.240103 0.195932 -0.0339347
v -0.240737 0.185299 -0.0413517
v -0.238291 0.192155 -0.0521978
v -0.242733 0.167266 -0.0368763
v -0.24109 0.174406 -0.0476246
v -0.242708 0.17835 -0.0306706
v -0.237458 0.202408 -0.0447184
v -0.234572 0.208709 -0.0555332
v -0.236225 0.188823 -0.0691958
v -0.236129 0.178379 -0.0747554
v -0.233263 0.184471 -0.0857812
v -0.230107 0.190926 -0.0965603
v -0.229555 0.201854 -0.0900414
v -0.225749 0.208425 -0.100056
v -0.2251 0.219162 -0.0932491
v -0.220251 0.225841 -0.102717
v -0.2188 0.235934 -0.0951718
v -0.221495 0.215578 -0.110067
v -0.21509 0.23287 -0.11212
v -0.213835 0.242889 -0.104537
v -0.209055 0.239686 -0.121102
v -0.207649 0.249542 -0.113344
v -0.20249 0.246237 -0.129923
v -0.20373 0.235511 -0.137258
v -0.210243 0.229236 -0.128572
v -0.195583 0.251833 -0.138427
v -0.194027 0.26244 -0.130693
v -0.192362 0.272214 -0.121766
v -0.197607 0.275239 -0.104879
v -0.204269 0.268791 -0.0967831
v -0.201633 0.277765 -0.0875962
v -0.206178 0.259395 -0.10556
v -0.199416 0.265865 -0.11375
v -0.201171 0.256303 -0.12227
v -0.223628 0.229076 -0.0857101
v -0.23168 0.215067 -0.0662935
v -0.221918 0.238618 -0.0781044
v -0.21219 0.252669 -0.0966432
v -0.207484 0.270972 -0.0793669
v -0.204399 0.279695 -0.070155
v -0.201231 0.288187 -0.0605122
v -0.206807 0.28112 -0.0525313
v -0.203282 0.289109 -0.042805
v -0.199184 0.296582 -0.0328451
v -0.204663 0.289055 -0.0252657
v -0.200297 0.296041 -0.0153241
v -0.200878 0.294697 0.00213039
v -0.232044 0.199849 0.0637816
v -0.205522 0.286607 0.00968461
v -0.2135 0.272972 -0.0092222
v -0.209664 0.279911 -2.40273e-05
v -0.217352 0.266021 -0.0184335
v -0.212985 0.273635 -0.0268372
v -0.209269 0.280913 -0.0174791
v -0.213018 0.273756 -0.0268384
v -0.245583 0.142385 0.0234119
v -0.224214 0.250428 -0.0182333
v -0.22405 0.250636 -0.00135114
v -0.22085 0.258537 -0.0102002
v -0.227366 0.242639 -0.0092594
v -0.230435 0.235045 -6.67596e-05
v -0.226751 0.24317 0.0079884
v -0.223452 0.250459 0.0153338
v -0.226151 0.241274 0.0231104
v -0.228967 0.23153 0.0302786
v -0.224359 0.240308 0.0397292
v -0.22202 0.249545 0.0318241
v -0.217223 0.256948 0.0409363
v -0.212422 0.264336 0.0500516
v -0.214147 0.266146 0.0328271
v -0.208967 0.273016 0.0424892
v -0.203658 0.279592 0.0523432
v -0.200043 0.288704 0.0450102
v -0.245011 0.138374 0.00683446
v -0.193859 0.294155 0.0551663
v -0.197954 0.28518 0.0624372
v -0.201054 0.276028 0.0695755
v -0.206747 0.270415 0.0597903
v -0.205325 0.257587 0.0849799
v -0.207238 0.247706 0.0926316
v -0.204866 0.237602 0.108054
v -0.244355 0.160174 -0.0262675
v -0.208761 0.225753 0.109647
v -0.199322 0.236809 0.119424
v -0.185611 0.234479 0.139975
v -0.189672 0.222773 0.141552
v -0.178025 0.233215 0.149728
v -0.244312 0.171209 -0.0199152
v -0.18249 0.221864 0.151724
v -0.239947 0.201977 0.00320917
v -0.20293 0.224965 0.120538
v -0.213341 0.24289 0.0826044
v -0.214628 0.254864 0.058092
v -0.211768 0.252543 0.0752841
v -0.21957 0.248159 0.048864
v -0.216759 0.245893 0.0659321
v -0.222157 0.230412 0.0665924
v -0.221326 0.239063 0.0573419
v -0.218089 0.237001 0.0747655
v -0.22666 0.223102 0.0578251
v -0.225984 0.231498 0.0483634
v -0.23182 0.207 0.0564029
v -0.234858 0.19192 0.0582898
v -0.233605 0.186192 0.067569
v -0.224193 0.183555 0.092275
v -0.231671 0.179542 0.0767187
v -0.235475 0.169899 0.0703059
v -0.238395 0.160111 0.0635545
v -0.238346 0.143069 0.0672477
v -0.240728 0.149699 0.0571036
v -0.235805 0.153446 0.0735139
v -0.233011 0.146732 0.0833853
v -0.225812 0.14963 0.0993378
v -0.216663 0.152833 0.114782
v -0.220789 0.142939 0.109
v -0.231662 0.12974 0.0871388
v -0.238874 0.196667 0.0313316
v -0.233409 0.119315 0.0818547
v -0.237409 0.125772 0.0716169
v -0.237048 0.211571 0.0116106
v -0.232039 0.227994 0.00992275
v -0.233583 0.220934 0.0199872
v -0.244053 0.146074 0.0402637
v -0.242806 0.156246 0.0469981
v -0.230476 0.234302 -0.0172924
v -0.241561 0.172735 0.0438133
v -0.242063 0.17969 0.0334597
v -0.238461 0.182772 0.0509106
v -0.245292 0.152988 0.0296044
v -0.243759 0.163017 0.0364668
v -0.244654 0.135494 0.0342697
v -0.238025 0.207652 -0.0245553
v -0.233444 0.216569 -0.0493349
v -0.212268 0.163766 0.119902
v -0.221951 0.159486 0.105129
v -0.217687 0.169475 0.110695
v -0.229378 0.156616 0.0894701
v -0.224958 0.166551 0.095085
v -0.221129 0.176769 0.101385
v -0.232599 0.163346 0.0799693
v -0.229011 0.173055 0.0864622
v -0.235398 0.136455 0.0770978
v -0.227009 0.190043 0.0832005
v -0.229505 0.19706 0.073748
v -0.239489 0.189224 0.0408641
v -0.235839 0.19825 0.0483593
v -0.242018 0.187126 0.0231645
v -0.235338 0.205906 0.0395626
v -0.235018 0.213827 0.0300255
v -0.231573 0.214966 0.047716
v -0.227135 0.215006 0.0665289
v -0.203731 0.26685 0.0768715
v -0.210481 0.2751 0.0250936
v -0.205381 0.282039 0.0350287
v -0.215397 0.26756 0.0158111
v -0.209631 0.261527 0.0674467
v -0.230663 0.223104 0.0388754
v -0.21892 0.25838 0.0239304
v -0.205455 0.288194 -0.00780213
v -0.208377 0.281371 -0.0349738
v -0.216342 0.265899 -0.035704
v -0.227233 0.24221 -0.0264113
v -0.223638 0.250071 -0.0354748
v -0.220701 0.25827 -0.0272368
v -0.228451 0.232953 -0.0513735
f 2 3 4 1
f 4 5 6 1
f 6 99 172 1
f 172 173 2 1
f 170 190 3 2
f 190 16 15 3
f 10 9 5 4
f 9 8 7 5
f 7 117 6 5
f 9 131 125 8
f 10 11 131 9
f 12 49 131 11
f 44 45 49 12
f 20 21 175 13
f 15 16 133 14
f 17 163 133 16
f 190 160 17 16
f 192 165 163 17
f 160 191 192 17
f 164 104 19 18
f 104 103 168 19
f 168 22 21 19
f 168 205 24 22
f 24 25 208 23
f 208 37 176 23
f 205 206 25 24
f 206 28 26 25
f 26 36 208 25
f 28 204 29 27
f 206 207 204 28
f 203 86 85 29
f 85 84 83 30
f 83 82 32 30
f 32 82 33 31
f 33 81 34 31
f 34 80 35 31
f 82 74 73 33
f 73 75 81 33
f 81 63 60 34
f 60 78 80 34
f 80 38 36 35
f 38 37 208 36
f 38 40 79 37
f 80 78 40 38
f 40 78 58 39
f 58 57 56 39
f 56 41 43 39
f 43 79 40 39
f 56 55 54 41
f 54 53 52 41
f 52 42 43 41
f 51 79 43 42
f 46 50 51 42
f 50 46 45 44
f 48 47 49 45
f 125 131 49 47
f 58 59 61 57
f 78 60 59 58
f 60 63 62 59
f 63 65 64 62
f 81 75 65 63
f 65 77 66 64
f 66 67 68 64
f 75 76 77 65
f 77 70 69 66
f 77 76 71 70
f 76 75 73 72
f 203 88 87 86
f 203 96 97 88
f 97 202 89 88
f 202 94 92 90
f 94 202 97 93
f 98 204 207 95
f 207 100 102 95
f 207 206 205 100
f 205 168 103 100
f 103 101 102 100
f 103 104 105 101
f 107 110 201 106
f 108 109 110 107
f 200 144 109 108
f 138 111 110 109
f 144 141 138 109
f 111 113 201 110
f 112 114 113 111
f 138 136 112 111
f 121 115 114 112
f 136 199 121 112
f 114 197 196 113
f 196 198 201 113
f 115 116 197 114
f 119 118 116 115
f 121 120 119 115
f 121 199 195 120
f 137 135 123 122
f 126 134 127 124
f 129 132 130 128
f 138 141 139 136
f 139 137 199 136
f 141 140 142 139
f 141 144 143 140
f 144 200 193 143
f 193 145 194 143
f 193 191 189 145
f 189 146 91 145
f 91 187 194 145
f 189 188 171 146
f 147 187 91 146
f 149 186 187 147
f 186 149 184 148
f 184 181 182 148
f 150 183 184 149
f 151 154 183 150
f 153 152 154 151
f 185 155 154 152
f 155 180 183 154
f 178 181 180 156
f 158 157 178 156
f 177 179 178 157
f 185 162 161 159
f 167 173 172 166
f 172 99 174 166
f 171 188 170 169
f 188 160 190 170
f 179 182 181 178
f 181 184 183 180
f 189 191 160 188
f 193 200 192 191
