v -0.254346 0.0308941 -0.0366575
v -0.250591 0.0359345 -0.0338207
v -0.245777 0.0368195 -0.0328263
v -0.237538 0.0422476 -0.0283075
v -0.242297 0.0411994 -0.0291555
v -0.238808 0.0451672 -0.0250341
v -0.243255 0.0450804 -0.0266897
v -0.247701 0.0449937 -0.0283453
v -0.246921 0.0405673 -0.0303531
v -0.252929 0.0493332 -0.027993
v -0.252148 0.0449069 -0.0300008
v -0.251368 0.0404806 -0.0320087
v -0.257375 0.0492464 -0.0296486
v -0.24383 0.0495497 -0.0248582
v -0.248391 0.0494391 -0.0264159
v -0.244393 0.0538582 -0.0227538
v -0.237126 0.0611583 -0.0137317
v -0.241399 0.0616359 -0.0159861
v -0.240747 0.0575366 -0.0182665
v -0.240096 0.0534372 -0.0205469
v -0.239444 0.0493378 -0.0228273
v -0.245673 0.0621136 -0.0182405
v -0.245021 0.0580142 -0.0205209
v -0.232639 0.0561715 -0.0132034
v -0.232101 0.0519667 -0.0153412
v -0.236503 0.0570319 -0.0159755
v -0.235964 0.0528271 -0.0181133
v -0.235425 0.0486223 -0.020251
v -0.228163 0.0512049 -0.0126768
v -0.231261 0.048165 -0.0179195
v -0.227296 0.0473506 -0.0152313
v -0.223707 0.0399567 -0.0241286
v -0.222483 0.037626 -0.0272376
v -0.229994 0.0452712 -0.021102
v -0.228696 0.0428325 -0.0244149
v -0.227398 0.0403938 -0.0277279
v -0.2261 0.0379551 -0.0310409
v -0.232902 0.0428799 -0.026977
v -0.231437 0.0405566 -0.0306847
v -0.236212 0.0395034 -0.0319966
v -0.241011 0.0378611 -0.0320249
v -0.239655 0.0355409 -0.0363617
v -0.244456 0.0338719 -0.0363318
v -0.249256 0.0322029 -0.036302
v -0.242975 0.03072 -0.0403329
v -0.241514 0.0264921 -0.0430304
v -0.247799 0.0285781 -0.0396568
v -0.230029 0.0377678 -0.0341127
v -0.233371 0.0325571 -0.0379187
v -0.238165 0.0319771 -0.039648
v -0.236714 0.0274683 -0.0418436
v -0.228716 0.0336102 -0.036476
v -0.232124 0.0282919 -0.0400867
v -0.224535 0.0341681 -0.0336945
v -0.22048 0.0349061 -0.030679
v -0.216171 0.0305034 -0.0278601
v -0.217804 0.0347485 -0.0266098
v -0.222705 0.0403272 -0.0217696
v -0.219151 0.0379305 -0.0192512
v -0.223323 0.0421591 -0.0154905
v -0.219342 0.038093 -0.0147397
v -0.215955 0.0338261 -0.0192671
v -0.216685 0.0335782 -0.0146437
v -0.216855 0.0333441 -0.00969297
v -0.218846 0.03797 -0.009583
v -0.215626 0.0285562 -0.0101181
v -0.211309 0.0139044 -0.00678747
v -0.212404 0.0187838 -0.00627331
v -0.213499 0.0236631 -0.00575916
v -0.214594 0.0285424 -0.005245
v -0.215689 0.0334217 -0.00473085
v -0.210415 0.0090367 -0.00736244
v -0.211726 0.00937861 -0.0120034
v -0.212063 0.014676 -0.0163076
v -0.212978 0.0097882 -0.0166765
v -0.211201 0.0200349 -0.0205024
v -0.211691 0.0253683 -0.0246373
v -0.21185 0.0247726 -0.0198081
v -0.213295 0.0243051 -0.0151607
v -0.212568 0.0194939 -0.0157322
v -0.212211 0.0141975 -0.0115159
v -0.213352 0.0189818 -0.0110507
v -0.214492 0.023766 -0.0105855
v -0.214507 0.0289943 -0.014691
v -0.213379 0.0293777 -0.0193494
v -0.21304 0.0295979 -0.0238438
v -0.214467 0.0259796 -0.0291046
v -0.218037 0.0254207 -0.0325327
v -0.223259 0.0296612 -0.0351401
v -0.22242 0.024614 -0.0350876
v -0.22768 0.0288667 -0.0376431
v -0.226913 0.0237908 -0.0374488
v -0.231407 0.0229677 -0.0398101
v -0.235134 0.0170686 -0.0419771
v -0.226314 0.0187414 -0.0370064
v -0.230681 0.0178982 -0.0395553
v -0.217796 0.0206143 -0.0315398
v -0.222028 0.0196551 -0.0343182
v -0.226872 0.0145129 -0.0346461
v -0.231105 0.0135537 -0.0374245
v -0.213672 0.0167214 -0.0276525
v -0.218102 0.0160256 -0.0299029
v -0.222533 0.0153297 -0.0321532
v -0.218222 0.0117073 -0.0276175
v -0.222653 0.0109911 -0.0298221
v -0.227066 0.0102925 -0.031937
v -0.226894 0.00629333 -0.0281931
v -0.231308 0.00559473 -0.030308
v -0.218463 0.0077351 -0.0242258
v -0.218812 0.00378463 -0.0208442
v -0.222661 0.00704357 -0.0261468
v -0.22301 0.0030931 -0.0227651
v -0.227191 0.00237768 -0.0247101
v -0.231335 0.00161221 -0.0267063
v -0.214795 -0.000271753 -0.0166065
v -0.212161 0.00279797 -0.014471
v -0.214304 0.00326839 -0.0166206
v -0.211884 2.46546e-06 -0.0133971
v -0.214297 0.00615551 -0.0176726
v -0.213681 0.0115688 -0.0226441
v -0.214676 0.00719732 -0.0196853
v -0.21406 0.0126106 -0.0246569
v -0.215055 0.00823912 -0.0216981
v -0.21605 0.00386765 -0.0187393
v -0.21072 -0.00464618 -0.0130066
v -0.214305 -0.00537493 -0.0160922
v -0.213236 -0.0102491 -0.0167084
v -0.214979 0.033702 -0.0230119
v -0.217524 -0.0112138 -0.0187113
v -0.221914 -0.0121417 -0.0205525
v -0.231168 -0.00870664 -0.024153
v -0.235411 -0.00951457 -0.0261298
v -0.239654 -0.0103225 -0.0281066
v -0.226915 -0.00789986 -0.0222003
v -0.222951 -0.00185997 -0.0212488
v -0.2226 -0.00710408 -0.0204466
v -0.227139 -0.00266263 -0.0232029
v -0.231327 -0.00346529 -0.025157
v -0.235515 -0.00426795 -0.0271112
v -0.239703 -0.00507061 -0.0290653
v -0.243891 -0.00587327 -0.0310194
v -0.248223 -0.00662671 -0.0327769
v -0.252484 -0.00704088 -0.0348946
v -0.256746 -0.00745505 -0.0370123
v -0.261191 -0.00768445 -0.0388622
v -0.266909 -0.00369241 -0.0403236
v -0.265957 -0.00809925 -0.040573
v -0.272401 0.000427895 -0.0419569
v -0.267781 0.000746082 -0.040191
v -0.25761 -0.00304404 -0.0368765
v -0.263149 0.00531366 -0.0395445
v -0.262865 0.00101123 -0.0388453
v -0.26812 0.00506649 -0.0408141
v -0.27309 0.00481933 -0.0420837
v -0.257894 0.00126321 -0.0377173
v -0.252993 0.00154959 -0.0376112
v -0.252652 -0.00278047 -0.0360913
v -0.248026 -0.00239503 -0.035119
v -0.243375 0.00164598 -0.0378663
v -0.243485 0.00570644 -0.0417999
v -0.243866 0.0100713 -0.04484
v -0.248259 0.00167718 -0.0381383
v -0.248545 0.00578465 -0.0411951
v -0.248858 0.0101013 -0.0435776
v -0.253786 0.0100798 -0.0413147
v -0.253294 0.00577641 -0.0401458
v -0.249394 0.0149074 -0.0438593
v -0.24451 0.0155319 -0.0452103
v -0.240234 0.0219437 -0.0449619
v -0.239602 0.0163699 -0.0444502
v -0.245125 0.0206712 -0.0445377
v -0.250095 0.0192943 -0.0432133
v -0.255176 0.0185886 -0.0403993
v -0.254382 0.0146009 -0.0413936
v -0.25571 0.0229786 -0.0401223
v -0.259455 0.0191209 -0.0397923
v -0.258955 0.01468 -0.0399787
v -0.2587 0.00995194 -0.0400583
v -0.235228 0.00782644 -0.037084
v -0.239318 0.00295662 -0.0353596
v -0.23916 0.0063802 -0.0399301
v -0.258212 0.00560026 -0.0392539
v -0.263878 0.0194967 -0.0392151
v -0.263637 0.0147528 -0.0393558
v -0.263395 0.0100088 -0.0394965
v -0.268608 0.0144919 -0.0406514
v -0.268367 0.00974798 -0.0407922
v -0.273338 0.00948713 -0.0420878
v -0.268877 0.019208 -0.03999
v -0.273619 0.0141906 -0.0411903
v -0.269145 0.0240688 -0.0392704
v -0.274168 0.0238454 -0.0395481
v -0.273913 0.0189109 -0.0400436
v -0.279446 0.0285565 -0.0393303
v -0.269585 0.0289624 -0.0381327
v -0.274983 0.033647 -0.0374984
v -0.274497 0.0287636 -0.0387971
v -0.280381 0.0383315 -0.036864
v -0.279895 0.0334482 -0.0381628
v -0.262195 0.0488622 -0.0304899
v -0.261638 0.0439833 -0.0319507
v -0.266993 0.0486706 -0.0314143
v -0.266436 0.0437918 -0.0328751
v -0.265879 0.038913 -0.034336
v -0.265322 0.0340341 -0.0357969
v -0.264765 0.0291553 -0.0372578
v -0.264208 0.0242765 -0.0387187
v -0.271234 0.0436003 -0.0337996
v -0.270678 0.0387214 -0.0352604
v -0.270121 0.0338426 -0.0367213
v -0.276033 0.0434087 -0.034724
v -0.275476 0.0385299 -0.0361849
v -0.261076 0.0391122 -0.0334191
v -0.260384 0.0344665 -0.0351074
v -0.259691 0.0298209 -0.0367957
v -0.271763 0.0485117 -0.0324139
v -0.276521 0.0483663 -0.0334445
v -0.281278 0.0482209 -0.0344752
v -0.267426 0.0534363 -0.0298825
v -0.272628 0.0578889 -0.0291117
v -0.272189 0.0532513 -0.0308475
v -0.277391 0.0577039 -0.0300767
v -0.276952 0.0530663 -0.0318124
v -0.281503 0.0532454 -0.0334251
v -0.284417 0.0336357 -0.0398293
v -0.284022 0.028682 -0.0409352
v -0.283588 0.0239197 -0.0421065
v -0.277702 0.00466238 -0.0440905
v -0.276186 0.000658799 -0.0455501
v -0.273921 -0.00363353 -0.0467687
v -0.268123 -0.0115045 -0.0446386
v -0.273651 -0.0041821 -0.0514317
v -0.270443 -0.00828991 -0.0519815
v -0.276825 -5.95982e-05 -0.0508897
v -0.271095 -0.00800981 -0.0477558
v -0.26766 -0.0119934 -0.0482061
v -0.272467 0.0723718 -0.0255194
v -0.276345 0.0679423 -0.0292003
v -0.277202 0.062811 -0.0293036
v -0.251057 0.023627 -0.0411338
v -0.268708 0.0718616 -0.0229132
v -0.273056 0.0672695 -0.0259614
v -0.25256 0.0272914 -0.0386625
v -0.264494 0.071513 -0.0209243
v -0.264103 0.067022 -0.0228187
v -0.268795 0.0669616 -0.0240483
v -0.273096 0.0624103 -0.0271723
v -0.254911 0.0670406 -0.0200061
v -0.259835 0.0715554 -0.0196327
v -0.259484 0.0670438 -0.0214553
v -0.249986 0.0625261 -0.0203807
v -0.254531 0.0625389 -0.0218748
v -0.253996 0.0580923 -0.0240004
v -0.259077 0.0625516 -0.0233689
v -0.258541 0.0581051 -0.0254945
v -0.258005 0.0536586 -0.02762
v -0.263671 0.0625419 -0.0247769
v -0.263168 0.0580803 -0.0268447
v -0.262665 0.0536186 -0.0289125
v -0.268391 0.0624742 -0.0259633
v -0.267888 0.0580126 -0.028031
v -0.280866 0.0432169 -0.0355693
v -0.279181 0.0236797 -0.0400013
v -0.278901 0.0188834 -0.0409169
v -0.278621 0.0140871 -0.0418325
v -0.278341 0.00929079 -0.0427481
v -0.271159 -0.00371653 -0.0426002
v -0.269641 -0.00761052 -0.0436194
v -0.260506 -0.0118686 -0.0394855
v -0.264314 -0.0116866 -0.042062
v -0.243858 -0.010672 -0.0304254
v -0.248061 -0.0110149 -0.0327491
v -0.252309 -0.0114356 -0.0349
v -0.256558 -0.0118586 -0.0370457
v -0.247389 -0.0159314 -0.0336079
v -0.251539 -0.0161678 -0.0360943
v -0.25569 -0.0164042 -0.0385806
v -0.243237 -0.0156942 -0.0311264
v -0.250671 -0.0206737 -0.0380636
v -0.254825 -0.0209187 -0.040495
v -0.233665 -0.0202032 -0.0276682
v -0.239079 -0.0154551 -0.0286872
v -0.237928 -0.0203053 -0.0302875
v -0.242192 -0.0204074 -0.0329068
v -0.246455 -0.0205094 -0.0355261
v -0.228232 -0.0238656 -0.028634
v -0.22706 -0.0275835 -0.0323043
v -0.232496 -0.0240469 -0.0311086
v -0.231325 -0.0277648 -0.0347788
v -0.236761 -0.0242281 -0.0335832
v -0.241026 -0.0244093 -0.0360577
v -0.24529 -0.0245906 -0.0385323
v -0.235703 -0.0280857 -0.0370146
v -0.249679 -0.0245702 -0.0410456
v -0.256903 -0.0205239 -0.0492787
v -0.261395 -0.0164484 -0.0494872
v -0.265096 -0.0129726 -0.0519749
v -0.26065 -0.0169614 -0.0513781
v -0.260047 -0.0172126 -0.052096
v -0.264474 -0.0132588 -0.0528498
v -0.26387 -0.01351 -0.0535677
v -0.263267 -0.0137613 -0.0542856
v -0.2689 -0.00930503 -0.0536036
v -0.255809 -0.0205647 -0.0511845
v -0.259163 -0.017227 -0.0531925
v -0.262512 -0.0139223 -0.0551968
v -0.26467 -0.00991789 -0.0566577
v -0.266713 -0.00577844 -0.0580764
v -0.268757 -0.001639 -0.0594952
v -0.2708 0.00250044 -0.0609139
v -0.272258 0.00703268 -0.0617777
v -0.266743 0.00315185 -0.0636846
v -0.268046 0.007788 -0.0644031
v -0.269349 0.0124241 -0.0651215
v -0.270416 0.0171367 -0.0654852
v -0.271208 0.0219542 -0.0654388
v -0.275602 0.021194 -0.0633859
v -0.2764 0.0260223 -0.063416
v -0.277362 0.011076 -0.0595238
v -0.278563 0.0157632 -0.0602039
v -0.272425 -0.00154851 -0.0567651
v -0.275911 0.00653318 -0.0585802
v -0.2717 -0.00537946 -0.0544854
v -0.273398 -0.00132896 -0.055445
v -0.273364 0.00224362 -0.0587658
v -0.275436 0.00306499 -0.0558704
v -0.275097 0.00272153 -0.0564047
v -0.274757 0.00237807 -0.056939
v -0.277135 0.00711548 -0.0568301
v -0.276795 0.00677202 -0.0573644
v -0.278833 0.011166 -0.0577898
v -0.281442 0.0153624 -0.0563105
v -0.258474 0.0253306 -0.0383045
v -0.255234 0.0353579 -0.0348051
v -0.279395 0.0205782 -0.0602887
v -0.280173 0.0253967 -0.0603291
v -0.280516 0.0302385 -0.0598813
v -0.276932 0.0308452 -0.0630506
v -0.246304 0.0248191 -0.0421579
v -0.272036 0.0267471 -0.0655143
v -0.273491 0.0117123 -0.0624995
v -0.274721 0.016394 -0.0632215
v -0.262847 -0.00526787 -0.0608956
v -0.264857 -0.0011015 -0.0623533
v -0.268239 -0.00951621 -0.05426
v -0.267447 -0.0096382 -0.0547795
v -0.266656 -0.00976019 -0.0552989
v -0.265865 -0.00988218 -0.0558183
v -0.270537 -0.00543128 -0.0554767
v -0.269745 -0.00555326 -0.0559961
v -0.268954 -0.00567525 -0.0565155
v -0.268163 -0.00579724 -0.0570349
v -0.255947 0.0399902 -0.0330903
v -0.271252 -0.00159032 -0.0577321
v -0.270461 -0.0017123 -0.0582516
v -0.25666 0.0446226 -0.0313755
v -0.248342 -0.0256603 -0.0457215
v -0.252154 -0.0232766 -0.0486032
v -0.253763 -0.0229636 -0.0445127
v -0.25855 -0.0191439 -0.0445547
v -0.263336 -0.0153242 -0.0445966
v -0.259693 -0.0164649 -0.0410553
v -0.23054 -0.014126 -0.0244441
v -0.229401 -0.0200548 -0.02509
v -0.234811 -0.0149103 -0.0264597
v -0.218907 -0.00105528 -0.01888
v -0.218479 -0.00630048 -0.0182995
v -0.235508 0.000800422 -0.0287403
v -0.23134 0.00938905 -0.0341594
v -0.23538 0.00439643 -0.032685
v -0.239564 -0.000405848 -0.0310975
v -0.243606 -0.00165598 -0.0334963
v -0.235273 0.0124007 -0.0403177
v -0.23932 0.0108803 -0.0434285
v -0.213777 0.0212065 -0.0288308
v -0.219019 0.0303823 -0.0322813
v -0.235831 0.022415 -0.0423572
v -0.234856 0.0367854 -0.0354545
v -0.224595 0.0501056 -0.00956039
v -0.225285 0.0542168 -0.0072452
v -0.228799 0.055301 -0.010399
v -0.233238 0.0603507 -0.0109843
v -0.229473 0.0594395 -0.00805721
v -0.233849 0.064433 -0.00852994
v -0.237742 0.0652489 -0.0112961
v -0.242594 0.0698702 -0.0111371
v -0.241971 0.0658029 -0.0136175
v -0.246823 0.0704242 -0.0134586
v -0.251052 0.0709783 -0.01578
v -0.24623 0.0663035 -0.0158861
v -0.250498 0.066786 -0.0181365
v -0.255321 0.0714609 -0.0180306
v -0.249441 0.0581731 -0.0224481
v -0.248893 0.0538405 -0.0245029
v -0.253451 0.0537348 -0.0260706
v -0.234343 0.0452561 -0.0232421
f 215 333 243 1
f 243 47 44 1
f 44 2 334 1
f 334 214 215 1
f 44 43 3 2
f 3 9 12 2
f 12 353 334 2
f 43 42 41 3
f 41 5 9 3
f 5 41 40 4
f 40 39 38 4
f 38 396 6 4
f 6 7 5 4
f 7 8 9 5
f 396 28 21 6
f 21 14 7 6
f 14 15 8 7
f 11 12 9 8
f 15 10 11 8
f 13 356 11 10
f 15 394 395 10
f 395 256 13 10
f 356 353 12 11
f 200 201 356 13
f 256 259 200 13
f 21 20 16 14
f 16 394 15 14
f 20 19 23 16
f 23 393 394 16
f 18 19 26 17
f 26 24 382 17
f 382 384 385 17
f 385 387 18 17
f 22 23 19 18
f 387 390 22 18
f 20 27 26 19
f 21 28 27 20
f 251 393 23 22
f 390 391 251 22
f 26 27 25 24
f 25 29 381 24
f 381 383 382 24
f 27 28 30 25
f 30 31 29 25
f 396 34 30 28
f 379 380 381 29
f 36 37 33 32
f 396 38 35 34
f 38 39 36 35
f 40 378 48 39
f 41 42 378 40
f 43 45 50 42
f 50 49 378 42
f 44 47 45 43
f 47 339 46 45
f 46 51 50 45
f 339 171 169 46
f 169 377 51 46
f 243 240 339 47
f 378 49 52 48
f 50 51 53 49
f 53 91 52 49
f 377 93 53 51
f 91 89 54 52
f 93 92 91 53
f 89 376 55 54
f 376 88 87 56
f 87 77 86 56
f 86 128 57 56
f 128 62 59 57
f 59 61 60 58
f 62 63 61 59
f 63 64 65 61
f 128 86 85 62
f 85 84 63 62
f 84 66 64 63
f 66 70 71 64
f 84 79 83 66
f 83 69 70 66
f 68 82 81 67
f 81 73 72 67
f 69 83 82 68
f 81 74 75 73
f 81 82 80 74
f 80 79 78 76
f 78 85 86 77
f 79 84 85 78
f 80 82 83 79
f 88 97 375 87
f 90 98 97 88
f 376 89 90 88
f 91 92 90 89
f 92 95 98 90
f 93 96 95 92
f 377 94 96 93
f 170 374 373 94
f 373 100 96 94
f 377 169 170 94
f 96 100 99 95
f 99 103 98 95
f 98 103 102 97
f 102 101 375 97
f 100 369 106 99
f 106 105 103 99
f 373 179 369 100
f 102 104 122 101
f 103 105 104 102
f 105 111 109 104
f 109 123 122 104
f 106 107 111 105
f 369 108 107 106
f 108 114 113 107
f 113 112 111 107
f 370 368 114 108
f 369 179 370 108
f 111 112 110 109
f 110 124 123 109
f 112 135 366 110
f 366 115 124 110
f 113 137 135 112
f 114 138 137 113
f 368 139 138 114
f 366 367 126 115
f 126 125 118 115
f 118 117 124 115
f 119 121 117 116
f 121 123 124 117
f 122 123 121 120
f 367 129 127 126
f 367 136 130 129
f 132 365 363 131
f 134 137 138 131
f 138 139 132 131
f 133 282 365 132
f 139 140 133 132
f 271 278 282 133
f 140 141 271 133
f 136 135 137 134
f 136 367 366 135
f 368 371 140 139
f 371 372 141 140
f 142 272 271 141
f 372 158 142 141
f 143 273 272 142
f 144 274 273 143
f 145 269 274 144
f 147 270 269 145
f 267 268 147 146
f 149 148 267 146
f 268 231 270 147
f 229 230 267 148
f 149 153 154 148
f 154 228 229 148
f 152 151 153 149
f 157 156 155 150
f 152 155 182 151
f 182 178 185 151
f 185 187 153 151
f 187 188 154 153
f 188 266 228 154
f 156 166 182 155
f 157 158 162 156
f 162 163 166 156
f 372 159 162 158
f 372 371 180 159
f 180 181 160 159
f 160 163 162 159
f 181 374 161 160
f 161 164 163 160
f 374 170 168 161
f 168 167 164 161
f 164 165 166 163
f 167 174 165 164
f 178 182 166 165
f 174 177 178 165
f 168 171 172 167
f 172 173 174 167
f 170 169 171 168
f 339 240 172 171
f 240 175 173 172
f 176 177 174 173
f 183 184 177 176
f 184 185 178 177
f 181 180 370 179
f 373 374 181 179
f 371 368 370 180
f 189 186 184 183
f 186 187 185 184
f 190 188 187 186
f 189 193 190 186
f 190 265 266 188
f 191 192 193 189
f 193 264 265 190
f 207 206 195 191
f 195 197 192 191
f 263 264 193 192
f 197 194 263 192
f 226 227 263 194
f 197 196 199 194
f 199 225 226 194
f 206 205 210 195
f 210 196 197 195
f 210 209 212 196
f 212 198 199 196
f 212 211 262 198
f 202 203 201 200
f 259 219 202 200
f 203 204 213 201
f 213 353 356 201
f 216 208 203 202
f 219 221 216 202
f 208 209 204 203
f 209 210 205 204
f 205 214 213 204
f 206 215 214 205
f 207 333 215 206
f 211 212 209 208
f 216 217 211 208
f 217 218 262 211
f 214 334 353 213
f 221 223 217 216
f 223 224 218 217
f 259 258 261 219
f 261 220 221 219
f 222 223 221 220
f 261 260 247 220
f 247 239 222 220
f 234 232 230 229
f 232 233 235 230
f 235 268 267 230
f 236 231 268 235
f 361 270 231 236
f 242 246 241 237
f 239 247 242 238
f 246 245 244 241
f 247 260 246 242
f 245 250 249 244
f 246 260 257 245
f 257 254 250 245
f 250 254 252 248
f 252 251 391 248
f 391 389 392 248
f 392 249 250 248
f 252 253 393 251
f 254 255 253 252
f 255 256 395 253
f 395 394 393 253
f 257 258 255 254
f 258 259 256 255
f 260 261 258 257
f 270 361 362 269
f 362 277 274 269
f 272 275 278 271
f 273 276 275 272
f 274 277 276 273
f 276 279 285 275
f 285 284 278 275
f 277 280 279 276
f 362 360 280 277
f 284 283 282 278
f 280 359 294 279
f 294 292 285 279
f 283 290 288 281
f 364 363 365 281
f 365 282 283 281
f 284 291 290 283
f 285 292 291 284
f 288 289 287 286
f 290 293 289 288
f 359 358 357 294
f 299 305 304 295
f 300 301 298 296
f 345 346 300 297
f 301 302 299 298
f 302 306 305 299
f 346 347 301 300
f 347 348 302 301
f 348 307 306 302
f 323 349 345 303
f 348 352 308 307
f 309 344 343 308
f 352 355 309 308
f 310 312 344 309
f 321 354 351 350
f 311 313 312 310
f 321 327 328 354
f 341 314 313 311
f 322 319 341 311
f 341 342 315 314
f 342 317 316 315
f 317 318 340 316
f 342 320 335 317
f 335 336 318 317
f 336 337 338 318
f 320 342 341 319
f 322 330 331 319
f 331 332 320 319
f 321 350 349 324
f 326 327 321 324
f 328 330 322 325
f 325 355 354 328
f 325 322 311 310
f 329 330 328 327
f 349 350 346 345
f 350 351 347 346
f 351 352 348 347
f 355 325 310 309
f 354 355 352 351
f 388 390 387 386
f 389 391 390 388
