v 0.152988125 0.33025475 0.0829211
v 0.149159 0.346202125 0.0427029375
v 0.158748625 0.340709 0.028869775
v 0.170116015625 0.329576375 0.03065004375
v 0.171050109375 0.330342390625 0.0167176875
v 0.1609505 0.34027875 0.01669778625
v 0.171773875 0.330912375 0.0027690375
v 0.17305425 0.329711125 -0.0129785375
v 0.17280975 0.329591 -0.02348755
v 0.18000525 0.321900625 -0.0235605875
v 0.18018075 0.32189225 -0.013013425
v 0.16280175 0.339482 0.00450918875
v 0.1801595 0.321766375 0.00454990125
v 0.189690375 0.309054125 0.016874
v 0.19144425 0.30807025 0.0011386375
v 0.198432171875 0.2977464375 -0.02510105625
v 0.190531375 0.309493625 -0.01109979625
v 0.1903455 0.30925825 -0.0250585375
v 0.189658 0.308776125 -0.0389913625
v 0.150262875 0.347249 0.0323348
v 0.187833625 0.305545 -0.0650209625
v 0.1948245 0.2954585 -0.066875325
v 0.2013555 0.28109025 -0.0790550375
v 0.205463875 0.267490875 -0.0927977625
v 0.197617 0.29944125 0.00116209375
v 0.1997275 0.29655425 -0.0093490475
v 0.218299875 0.2272395 -0.1062840875
v 0.225649 0.21494775 -0.0926022875
v 0.224521625 0.201634875 -0.1076085
v 0.223665375 0.185141 -0.118979
v 0.224760625 0.1745835 -0.118571625
v 0.2283845 0.1737085 -0.106716625
v 0.20590453125 0.285803046875 -0.0251170671875
v 0.234577875 0.17409625 -0.0811258
v 0.23528625 0.192662375 -0.0680599625
v 0.23778025 0.193971875 -0.0506810875
v 0.23530775 0.204394625 -0.05433765
v 0.239529 0.19299775 -0.038433
v 0.240593875 0.1936575 -0.0244009375
v 0.243596375 0.178620875 -0.0082425875
v 0.244649625 0.166437375 -0.009506195
v 0.243675625 0.165811921875 -0.02344605875
v 0.242233984375 0.165091015625 -0.0373402453125
v 0.24031746875 0.16418490625 -0.0511849859375
v 0.235462875 0.16197075 -0.0787272125
v 0.2405005 0.1487625 -0.048378525
v 0.237524375 0.147364125 -0.065545425
v 0.23928825 0.13833275 -0.0508164625
v 0.2352835 0.122118125 -0.0605232125
v 0.2326345 0.120125828125 -0.074029340625
v 0.2349345 0.1091733125 -0.04563475
v 0.233736625 0.110696375 -0.056576025
v 0.240234875 0.125157625 -0.0315159625
v 0.2414055 0.124889875 -0.0210202875
v 0.240090875 0.117059875 -0.0190862875
v 0.23861175 0.115512625 -0.0293594625
v 0.232694625 0.099338025 -0.0432973875
v 0.205198234375 0.28534321875 -0.039115321875
v 0.230439875 0.0955440875 -0.0548986875
v 0.228145875 0.0931464875 -0.068583775
v 0.22577575 0.08937075 -0.0801801125
v 0.22326825 0.078714325 -0.08130755
v 0.21801575 0.062883625 -0.0917798125
v 0.1977075625 0.297262796875 -0.039075096875
v 0.188344375 0.30793825 -0.0528951
v 0.215445125 0.060919375 -0.1017570875
v 0.2173235 0.071065825 -0.1042067875
v 0.220682375 0.073544925 -0.0907887125
v 0.220128875 0.0881699 -0.1080240875
v 0.22154775 0.100426475 -0.1120735
v 0.226706875 0.11655315625 -0.101055951562
v 0.228720875 0.1326805 -0.101673075
v 0.22840675 0.143107125 -0.106194625
v 0.22437375 0.129339 -0.11647875
v 0.225412625 0.14216075 -0.1161725
v 0.223228 0.11496575 -0.114497375
v 0.23137 0.132221625 -0.0896568625
v 0.23432275 0.133815 -0.0761011625
v 0.235654375 0.149807375 -0.076084975
v 0.2249441875 0.102432342187 -0.09868744375
v 0.2279034375 0.104412071875 -0.085112215625
v 0.222199375 0.0866164125 -0.0972136875
v 0.2305879375 0.106498904687 -0.0715089953125
v 0.22981853125 0.11825775 -0.0875467859375
v 0.237466125 0.137342125 -0.0610463375
v 0.24239175 0.1511825 -0.036475875
v 0.243538625 0.139722625 -0.01989569375
v 0.245289 0.1412185 0.004501945
v 0.24527325 0.15436275 -0.00706023625
v 0.201218625 0.284996625 -0.0686891
v 0.21014575 0.25806925 -0.09281465
v 0.2213525 0.215287 -0.10783625
v 0.2339305 0.19549975 0.05764955
v 0.2207135 0.230034 -0.0944579
v 0.231666125 0.20551075 0.057389175
v 0.233152 0.209184 0.04703615
v 0.23026075 0.219169625 0.0468828875
v 0.235313875 0.209542125 0.0332132375
v 0.226900375 0.219201125 -0.0824039375
v 0.22804775 0.2046355 -0.0924281125
v 0.226218 0.18938 -0.1090315
v 0.241497625 0.192677375 0.00196206
v 0.24113825 0.194116125 -0.01034412125
v 0.233821875 0.221280625 -0.0247730375
v 0.2294605625 0.23469653125 -0.02489535
v 0.234178 0.221554 -0.010764465
v 0.231808375 0.174827125 -0.093154575
v 0.233404125 0.221570125 0.0172899975
v 0.228825703125 0.234812484375 0.0171445439062
v 0.227460125 0.234476234375 0.0310843390625
v 0.211519625 0.271052125 0.0326794625
v 0.217009 0.26022025 0.03095135
v 0.20336325 0.28645125 0.0291671
v 0.19787725 0.295443 0.029151425
v 0.194956375 0.295568234375 0.0447579984375
v 0.202303453125 0.2837515 0.044819425
v 0.206323875 0.272055 0.056947025
v 0.20013025 0.282428625 0.0586491125
v 0.209247 0.271743125 0.0448554375
v 0.22058125 0.246944125 0.0448106
v 0.219044375 0.2447655 0.0568331625
v 0.237260078125 0.177086734375 -0.0657113921875
v 0.23024553125 0.1888625625 -0.09370276875
v 0.226902 0.22191725 0.0570831
v 0.2226995 0.233266375 0.058668175
v 0.225479453125 0.233972765625 0.04494540625
v 0.192820625 0.294168 0.0585684125
v 0.185593125 0.303772625 0.0601868125
v 0.1632105 0.3255275 0.0698398625
v 0.174308625 0.312439625 0.0736392375
v 0.1817165 0.305172125 0.070440125
v 0.160796875 0.321244 0.0848911
v 0.169405 0.312932375 0.0835652625
v 0.17819 0.31796825 0.0446071875
v 0.179718578125 0.319207 0.03074079375
v 0.18206025 0.318798375 0.01505727375
v 0.168738625 0.328394875 0.0445161375
v 0.158477875 0.338087625 0.0444225625
v 0.18570575 0.30825725 0.0464060125
v 0.167750875 0.325058625 0.059884025
v 0.155210375 0.33237875 0.073107075
v 0.176230625 0.31627975 0.0583692
v 0.188505546875 0.30819296875 0.0308167296875
v 0.19682225 0.29895975 0.018668725
v 0.20528125 0.2855605 0.0169437625
v 0.205992875 0.2859525 0.002932225
v 0.205331125 0.287570375 -0.0093462
v 0.21292046875 0.273637140625 -0.011068519375
v 0.21273203125 0.273602078125 0.0029612071875
v 0.21892303125 0.26097625 0.003001025
v 0.218194296875 0.260706984375 0.0170019578125
v 0.224561609375 0.248098546875 0.0030567053125
v 0.229545640625 0.234956296875 0.003139243125
v 0.224814953125 0.24811028125 -0.0109659876563
v 0.224619796875 0.247937015625 -0.0249916140625
v 0.223067875 0.249109625 -0.040750925
v 0.223538375 0.245447125 -0.0512079
v 0.23342475 0.191870125 -0.0783994
v 0.227465125 0.233778875 -0.0528411625
v 0.23291375 0.220857875 -0.0387472
v 0.231087625 0.222038375 -0.0509490875
v 0.219051015625 0.2608804375 -0.0250590734375
v 0.218283125 0.260443375 -0.0390730625
v 0.216288 0.26123575 -0.0548353125
v 0.215581625 0.25881475 -0.0670366375
v 0.209278046875 0.271403171875 -0.0670079859375
v 0.205880625 0.271608875 -0.0825397
v 0.212029875 0.270957375 -0.051356775
v 0.203982625 0.284597828125 -0.053072115625
v 0.196508953125 0.29651475 -0.0530112953125
v 0.213319 0.257663375 -0.080850225
v 0.22383875 0.229466375 -0.082490875
v 0.230912125 0.202003375 -0.08209915
v 0.233907625 0.20334125 -0.0648464625
v 0.21292075 0.271501375 -0.04087265
v 0.21920715625 0.2610334375 -0.01102610625
v 0.212760421875 0.2734875 -0.025102
v 0.211987875 0.27324946875 0.016969574375
v 0.223801515625 0.247880078125 0.0170534748437
v 0.221670375 0.249023 0.0327262125
v 0.234087875 0.22166425 0.0032610225
v 0.229763 0.234920375 -0.0108783435938
v 0.228716453125 0.2343205 -0.0388892015625
v 0.242493 0.179747921875 -0.0240455328125
v 0.24326775 0.182311 0.00216406625
v 0.24134434375 0.179055109375 -0.0380065890625
v 0.232716125 0.21964275 0.0295477375
v 0.236280125 0.19572175 0.047403975
v 0.245615 0.15138575 0.00365620625
v 0.244576 0.138686375 -0.00763295125
v 0.2438135 0.15004275 -0.024211175
v 0.237976859375 0.16311296875 -0.06497270625
v 0.23951503125 0.178131390625 -0.0518924890625
v 0.159192 0.3387346875 0.0375182
v 0.1545345 0.344013 0.03060715
v 0.148345 0.347855 0.03752065
v 0.153083 0.3426615 0.0444199
v 0.17062975 0.3300030625 0.0236897625
v 0.166027125 0.33533775 0.0167031725
v 0.160494 0.339899 0.02365475
v 0.1650636875 0.334530875 0.03061909375
v 0.1637045 0.333335 0.04446195
v 0.1694623125 0.3290184375 0.0375885375
v 0.1802849375 0.3196560625 0.02377451875
v 0.1759658125 0.3252383125 0.01675046
v 0.175011875 0.324472375 0.03069388125
v 0.173556 0.3232585 0.0445632
v 0.178993875 0.3186216875 0.03768060625
v 0.1811515 0.320314 0.009801195
v 0.1766425 0.3257535 0.00278483
v 0.1714236875 0.33063825 0.0097438125
v 0.166727 0.33588 0.00276558
v 0.161298 0.340544 0.009734595
v 0.1812865 0.320604 -0.018296
v 0.1763725 0.3257365 -0.02527875
v 0.1717385 0.3309435 -0.01822405
v 0.1766525 0.325811 -0.0112413
v 0.1842034375 0.313768375 0.03078096875
v 0.189126 0.3086478125 0.02385073125
v 0.1853275 0.3146215 0.0168367
v 0.192664 0.30251725 0.0308504
v 0.197407 0.297232 0.023912
v 0.193886 0.303367 0.0169037
v 0.198719 0.2980265 -0.00409124
v 0.1946475 0.3037589375 -0.011099928125
v 0.190484 0.3095165 -0.004110485
v 0.194507 0.3037505 0.002900775
v 0.20561325 0.2856078125 -0.0321201
v 0.201525 0.2913525 -0.03910039375
v 0.1981296875 0.2975369375 -0.0320917625
v 0.2022515625 0.29182975 -0.025112925
v 0.19372425 0.3030501875 -0.03903654375
v 0.1900745 0.309055 -0.03202785
v 0.194433625 0.3035345 -0.025081675
v 0.1904915 0.309406 -0.0180825
v 0.1986085 0.2978880625 -0.0181032375
v 0.202557 0.2920725 -0.01110115
v 0.206080875 0.285933375 -0.01810831875
v 0.1971723125 0.29692725 -0.0460508
v 0.1924801875 0.302265125 -0.05295745625
v 0.1890755 0.3084015 -0.04595
v 0.1957025 0.29600975 -0.05994900625
v 0.1907445 0.3011705 -0.06680625
v 0.187482 0.3073935 -0.059818
v 0.200323625 0.290609875 -0.0530481
v 0.2032060625 0.2841275 -0.060025825
v 0.1986835 0.2895975 -0.06692965
v 0.2058710625 0.2775496875 -0.0669874375
v 0.208189875 0.2708230625 -0.0739284375
v 0.203651 0.27636 -0.0808056
v 0.201327 0.283065 -0.07387355
v 0.210178125 0.2639505625 -0.0808357375
v 0.211979 0.257009 -0.08769715
v 0.207458 0.26261 -0.09451345
v 0.2057115 0.2695715 -0.0876718
v 0.2227679375 0.2232740625 -0.09438873125
v 0.223063625 0.2158926875 -0.10108154375
v 0.2194165 0.222037 -0.107919
v 0.219067 0.229395 -0.10123535
v 0.2262495 0.2021981875 -0.10084993125
v 0.2230435 0.208489 -0.107732
v 0.2264885 0.209655 -0.09422325
v 0.222235 0.230687 -0.08763685
v 0.225732 0.2244845 -0.08073865
v 0.2263295 0.217076 -0.0875105
v 0.229185125 0.195830125 -0.093908975
v 0.22859925 0.188303 -0.1004986375
v 0.225819 0.1947165 -0.107468
v 0.227663125 0.1807451875 -0.107006775
v 0.226452 0.1731955 -0.1134585
v 0.2237085 0.1797385 -0.120454
v 0.225001 0.1872715 -0.11402
v 0.23108275 0.181854875 -0.09344225
v 0.23016 0.1742565 -0.099948
v 0.231793625 0.18942375 -0.0868831375
v 0.234078 0.182990625 -0.07977934375
v 0.2333595 0.175408 -0.0863383
v 0.234669 0.190536 -0.0731854
v 0.236605625 0.1840745625 -0.0660067375
v 0.2360318125 0.1765431875 -0.07260325
v 0.2377216875 0.170093625 -0.06537040625
v 0.2367295 0.162545875 -0.071852075
v 0.235228 0.168989 -0.0791437
v 0.2342785 0.2056255 -0.0596272
v 0.2365525 0.199215 -0.0525044
v 0.2367856875 0.1915798125 -0.0593172875
v 0.234638 0.1979755 -0.06646885
v 0.23875325 0.185098125 -0.0521568
v 0.2384275 0.17761875 -0.05880891875
v 0.2405055625 0.1860290625 -0.03823753125
v 0.240503625 0.1786168125 -0.0449587625
v 0.2387585 0.1925505 -0.04542135
v 0.2415935625 0.186705 -0.024240825
v 0.24198825 0.179426375 -0.03103481875
v 0.2401335 0.1933605 -0.03142385
v 0.2422344375 0.187201625 -0.010202123125
v 0.24291625 0.1800370625 -0.0170408125
v 0.240932 0.1939075 -0.0173713
v 0.24419675 0.1661305 -0.0164794475
v 0.2431919375 0.1727816875 -0.02377988125
v 0.244078 0.173378 -0.00980285
v 0.241203 0.194289 -0.003328585
v 0.2423935 0.1875325 0.003814565
v 0.2434975 0.1804695 -0.0030543
v 0.2445669375 0.152211 -0.015630725625
v 0.2439293125 0.15884425 -0.02304625375
v 0.2450185 0.1594955 -0.00912373
v 0.243289 0.1515415 -0.02955365
v 0.242362375 0.1581316875 -0.03692160625
v 0.243018 0.1654699375 -0.0303993875
v 0.2419075625 0.172070625 -0.0377047
v 0.241394 0.1507765 -0.04337605
v 0.240372 0.1572449375 -0.0507393625
v 0.2413336875 0.164661625 -0.04426944375
v 0.240034125 0.1711536875 -0.05156895625
v 0.23906725 0.1498270625 -0.0570932125
v 0.238012 0.1561625 -0.06450721875
v 0.2391856875 0.163664 -0.058084875
v 0.236628 0.1485675 -0.07083575
v 0.2354355 0.154926 -0.07821155
v 0.238265 0.1361275 -0.055758
v 0.2375115 0.142355 -0.06329555
v 0.239916 0.1435795 -0.04960765
v 0.231852375 0.1076117 -0.0647043875
v 0.2316650625 0.1132883125 -0.072830125
v 0.233969875 0.1211134375 -0.06727535
v 0.2342495 0.115426 -0.0592789
v 0.2335036875 0.126969 -0.0750979125
v 0.2357005 0.134627 -0.0693311
v 0.2361945 0.1287865 -0.06158915
v 0.229273375 0.10543566875 -0.07831086875
v 0.228905375 0.1113108125 -0.086382025
v 0.231255625 0.119172375 -0.0807870375
v 0.23062175 0.1252326875 -0.08862376875
v 0.2328765 0.133011 -0.08288095
v 0.2315215 0.09677135 -0.04804735
v 0.231796375 0.10213854375 -0.05642208125
v 0.234389 0.1099155 -0.0511344
v 0.234101 0.10455975 -0.0427578
v 0.229308 0.0943406 -0.0617424
v 0.2293956875 0.09980005625 -0.07007468125
v 0.240969 0.1210815 -0.01832255
v 0.2391065 0.11483 -0.023882
v 0.2392025 0.1202285 -0.03216845
v 0.241065 0.12648 -0.026609
v 0.226833875 0.097581725 -0.0837200875
v 0.2269735 0.09194735 -0.0754281
v 0.2219775 0.07612745 -0.08605525
v 0.2217965 0.08178675 -0.094402
v 0.2243285 0.08971578125 -0.0890730375
v 0.2245375 0.08404425 -0.08074455
v 0.2239165625 0.09549018125 -0.0973199125
v 0.226472875 0.10341819375 -0.09191524375
v 0.2159535 0.06567325 -0.1046495
v 0.2189385 0.07368285 -0.09959365
v 0.2194 0.06822805 -0.091309
v 0.216415 0.06021845 -0.09636485
v 0.223279875 0.101432825 -0.10539630625
v 0.221167 0.0873561 -0.10263535
v 0.2205145 0.0932219 -0.110737
v 0.224995 0.1157515 -0.107782325
v 0.2258726875 0.1094696875 -0.0999222375
v 0.2224525 0.107698 -0.113333
v 0.2238735 0.122159 -0.1155485
v 0.226260125 0.1300300625 -0.109790375
v 0.2274515625 0.1236336875 -0.10212024375
v 0.2298115 0.1314535 -0.0964153
v 0.2283085 0.117386625 -0.09430693125
v 0.2247135 0.136567 -0.1172805
v 0.226991 0.144438 -0.1113735
v 0.228618 0.1378765 -0.103947
v 0.2448861875 0.1456145 -0.00816355
v 0.2439615 0.138267 -0.014572325
v 0.243693 0.1448755 -0.02205025
v 0.2455025 0.1528495 -0.001720495
v 0.2455195 0.1464015 0.00583058
v 0.2449965 0.1391585 -0.00063038
v 0.2355375 0.2008185 0.045547
v 0.2324615 0.2073445 0.0522038
v 0.232407 0.2004605 0.0592297
v 0.235483 0.1939345 0.0525729
v 0.2340505 0.2145935 0.0313887
v 0.2310324375 0.2210790625 0.038211
v 0.2320965 0.2142515 0.0452488
v 0.235051 0.207743 0.03843125
v 0.229753375 0.2278896875 0.03116211875
v 0.226564625 0.234249125 0.03802969375
v 0.227775625 0.2274374375 0.045030325
v 0.2241504375 0.2336349375 0.05181765625
v 0.2248915 0.22673 0.05873785
v 0.2286105 0.220561 0.05197955
v 0.230868625 0.227608375 -0.03882151875
v 0.229151375 0.2345294375 -0.03189694375
v 0.23167325 0.228 -0.02483605625
v 0.2334505 0.2210905 -0.0317665
v 0.229670875 0.2348294375 -0.01788810625
v 0.2320080625 0.228249125 -0.010823289375
v 0.234059 0.221436 -0.01777165
v 0.2263501875 0.240955875 -0.0389436125
v 0.2242706875 0.2477508125 -0.031994175
v 0.22711975 0.241347375 -0.02494719375
v 0.22478725 0.24805175 -0.01798058125
v 0.2273676875 0.241543875 -0.0109258575
v 0.229717625 0.2349615625 -0.003869193125
v 0.2318461875 0.22831975 0.00319712625
v 0.234195 0.221632 -0.00375361
v 0.2292579375 0.234907875 0.010146863125
v 0.231145875 0.228203375 0.017213141875
v 0.2338345 0.221645 0.01027954
v 0.228220125 0.2346663125 0.0241231625
v 0.232766 0.2214355 0.02428045
v 0.227127375 0.2415549375 0.00309338625
v 0.224250125 0.2480163125 0.010059918125
v 0.2263816875 0.2413733125 0.01709246125
v 0.2232069375 0.24768875 0.02403395625
v 0.225028625 0.24099625 0.0310310125
v 0.221626 0.247226 0.0379158
v 0.2230609375 0.240468375 0.0448745
v 0.217635125 0.2604795625 0.0239807125
v 0.2151643125 0.2670129375 0.016984275625
v 0.21145125 0.2729804375 0.02395561875
v 0.2140185 0.266491 0.03094055
v 0.2086699375 0.2794211875 0.016956309375
v 0.204735 0.285233 0.0239327
v 0.2074800625 0.2787526875 0.0309215375
v 0.2032180625 0.28431575 0.0378736125
v 0.205801125 0.2777588125 0.044839425
v 0.210158 0.2722675 0.0379043
v 0.221072875 0.254327 0.017024165625
v 0.2198455 0.253876 0.03097565
v 0.1958633125 0.2961883125 0.03782825625
v 0.1987021875 0.2896981875 0.04479145
v 0.20047 0.290852 0.0309049
v 0.1877729375 0.3076410625 0.0377612625
v 0.1910250625 0.301331 0.04472156875
v 0.185983 0.3062445 0.0515767
v 0.188897 0.2998145 0.05851405
v 0.1939206875 0.294884125 0.0516681125
v 0.1965635 0.2883595 0.058615
v 0.20125125 0.2831095 0.0517404625
v 0.2035255 0.276415 0.05866605
v 0.2081 0.271085 0.05177325
v 0.2204465 0.2397935 0.05859845
v 0.219405 0.2466365 0.0516768
v 0.17489025 0.3151450625 0.06514335625
v 0.1780845 0.3088685 0.0720641
v 0.1837095 0.304516 0.0653216
v 0.1806105 0.31087 0.05841965
v 0.171636 0.321529 0.05829015
v 0.1654995 0.3253095 0.06485235
v 0.1687745 0.3189808125 0.07171533125
v 0.152909 0.3325645 0.0779876
v 0.1561275 0.3261885 0.0846958
v 0.162422375 0.3225974375 0.07822448125
v 0.1592125 0.3289585 0.0714913
v 0.165466 0.3162995 0.0850864
v 0.171884 0.31272 0.07861125
v 0.182674 0.3125665 0.04465215
v 0.21242425 0.2734624375 0.00996995375
v 0.2094028125 0.2797978125 0.00294596875
v 0.205698 0.285797 0.00994235
v 0.212882875 0.273651125 -0.004052215
v 0.209602875 0.2798550625 -0.011084565625
v 0.2061735 0.286037 -0.00408285
v 0.2128885 0.2735876875 -0.0180859125
v 0.2094038125 0.2796849375 -0.02511326875
v 0.2192003125 0.260990375 -0.01804373125
v 0.215985375 0.2672228125 -0.02508373125
v 0.216135 0.2673695 -0.011049174375
v 0.2158998125 0.26732425 0.002979435
v 0.2191168125 0.261029625 -0.00401059375
v 0.2186195625 0.260870625 0.01000696875
v 0.2247448125 0.248127875 -0.003952744375
v 0.222097625 0.25461025 -0.010998890625
v 0.2218185625 0.25457 0.00302635
v 0.2219296875 0.2544499375 -0.0250286375
v 0.2211205 0.254015 -0.0390349
v 0.218714 0.260683625 -0.0320677375
v 0.2281289375 0.2340620625 -0.0458684375
v 0.2251985 0.240427 -0.0529096
v 0.223351 0.2472975 -0.0459818
v 0.2321805 0.220575 -0.0457103
v 0.229472 0.2270445 -0.05275685
v 0.21533 0.2668245 -0.03910475
v 0.2125096875 0.2733213125 -0.0321143875
v 0.212480875 0.2651385 -0.06702355625
v 0.2101845625 0.271914625 -0.06006100625
v 0.2141825 0.2661085 -0.05309625
v 0.2164615 0.2593045 -0.0600714
v 0.214527 0.2582665 -0.07396315
v 0.207544375 0.2785259375 -0.0530875875
v 0.2046506875 0.2850048125 -0.0461006375
v 0.2087489375 0.279258875 -0.03912276875
v 0.211715 0.272817 -0.04611945
v 0.2295265 0.203327 -0.0872716
v 0.232192 0.1969385 -0.0802562
v 0.15380875 0.34333725 0.037513525
v 0.1655925 0.334981 0.0236679
v 0.16441425 0.3339625 0.037546475
v 0.1755445 0.32490525 0.02372905
v 0.174323 0.32390025 0.037634575
v 0.17632075 0.325511 0.00976849
v 0.166394 0.335626 0.00973519
v 0.1765125 0.32577375 -0.018260025
v 0.18479925 0.314224 0.023814925
v 0.19330375 0.30296625 0.0238824
v 0.1946015 0.3037715 -0.0041008625
v 0.20194775 0.291624 -0.0321105
v 0.194144 0.30332675 -0.03206245
v 0.1945965 0.30367925 -0.01809385
v 0.2024345 0.291968 -0.0181087
v 0.193171 0.302699 -0.046004325
v 0.19164775 0.3017405 -0.0598876
v 0.19953525 0.2901235 -0.059994025
v 0.20480225 0.27697025 -0.073902675
v 0.20884525 0.26329025 -0.087684475
v 0.2211245 0.22265775 -0.10116385
v 0.224766 0.209072 -0.100977625
v 0.22428225 0.2238815 -0.087573675
v 0.227532 0.19527375 -0.1006963
v 0.2257265 0.1802335 -0.11373925
v 0.229437 0.18129025 -0.10023885
v 0.232635 0.18242525 -0.08662375
v 0.235396 0.18354025 -0.072905025
v 0.23648525 0.1695435 -0.072258675
v 0.23559525 0.19859525 -0.059486625
v 0.2377235 0.184594 -0.059090425
v 0.2396985 0.1855865 -0.045206575
v 0.24112075 0.18639575 -0.03124745
v 0.2419735 0.18697525 -0.01722215
v 0.2436615 0.173087 -0.0167951
v 0.24235025 0.18737925 -0.0031914425
v 0.2445095 0.159173 -0.01608829
v 0.24320675 0.158503 -0.029991025
v 0.24261625 0.17244775 -0.030749725
v 0.24141675 0.15771275 -0.043837
v 0.241039 0.17163575 -0.044644875
v 0.23923025 0.156727 -0.05763085
v 0.2389165 0.170635 -0.05847565
v 0.23673775 0.155555 -0.071364225
v 0.23871375 0.14296725 -0.0564516
v 0.23296925 0.11434525 -0.0660546
v 0.23486225 0.1278725 -0.0683418
v 0.230313 0.112279 -0.0796053
v 0.2320925 0.1260865 -0.08186095
v 0.23295525 0.103343425 -0.049590875
v 0.23061125 0.10095655 -0.06324955
v 0.24008575 0.120655 -0.0252455
v 0.2281455 0.098671675 -0.076898875
v 0.223167 0.0829155 -0.087573275
v 0.225434 0.096540525 -0.090536275
v 0.21767675 0.06695065 -0.09797925
v 0.22225225 0.0943728 -0.104043475
v 0.22419225 0.1085795 -0.10663855
v 0.22569375 0.1228875 -0.10883975
v 0.2290845 0.12441525 -0.095379225
v 0.2274345 0.11037725 -0.0931622
v 0.22666575 0.13722175 -0.11061375
v 0.24433625 0.145241 -0.0151158525
v 0.2452495 0.146004 -0.0011754375
v 0.23397225 0.2006395 0.05238835
v 0.2330735 0.2144225 0.03831875
v 0.22886425 0.22768975 0.03811275
v 0.22640425 0.227104 0.05189685
v 0.23134225 0.227825 -0.031834275
v 0.23189875 0.228144 -0.01783155
v 0.22679525 0.24117375 -0.0319494
v 0.22730775 0.24146975 -0.017937975
v 0.2319905 0.2283075 -0.0038138075
v 0.23157525 0.2282865 0.0102097425
v 0.23052625 0.228066 0.024196425
v 0.2268245 0.241489 0.01009782
v 0.22578125 0.24120625 0.024071425
v 0.22412925 0.24075175 0.037967525
v 0.21462 0.2667665 0.02396625
v 0.208131 0.27912425 0.023944325
v 0.20671425 0.2783015 0.037889925
v 0.2204945 0.25411675 0.0240035
v 0.199617 0.2902905 0.037853425
v 0.19190925 0.30197175 0.037797
v 0.189997 0.30059625 0.051623475
v 0.19766375 0.28904425 0.051708475
v 0.20470825 0.27711275 0.051759975
v 0.2218015 0.24014175 0.051745475
v 0.1793475 0.30986925 0.065241875
v 0.1702425 0.320266 0.06500725
v 0.15767 0.3275735 0.07809355
v 0.1671575 0.31765125 0.078405375
v 0.1834725 0.3131965 0.03772265
v 0.20909975 0.2796485 0.0099555125
v 0.2095615 0.27986075 -0.0040682875
v 0.209554 0.2797985 -0.018100175
v 0.216119 0.26732525 -0.018067175
v 0.216071 0.26737475 -0.0040331225
v 0.21559425 0.26720125 0.0099869525
v 0.22201125 0.25461375 -0.0039842125
v 0.22151 0.25447625 0.0100304625
v 0.227308 0.24157275 -0.003914955
v 0.22208725 0.25456225 -0.01801535
v 0.2215745 0.2542535 -0.0320338
v 0.2258005 0.24070075 -0.04592885
v 0.23021525 0.2273395 -0.0457931
v 0.2156965 0.267043 -0.03209545
v 0.21337725 0.26564 -0.06006785
v 0.21140225 0.264571 -0.073947475
v 0.206775 0.2780675 -0.060047575
v 0.2082095 0.27892725 -0.046111975
v 0.20098525 0.291017 -0.046081575
v 0.20914125 0.27950825 -0.032122
v 0.2307185 0.19638475 -0.0870904
f 138 194 497 197
f 3 195 497 194
f 20 196 497 195
f 2 197 497 196
f 4 198 498 201
f 5 199 498 198
f 6 200 498 199
f 3 201 498 200
f 138 202 499 194
f 137 203 499 202
f 4 201 499 203
f 3 194 499 201
f 135 204 500 206
f 136 205 500 204
f 5 198 500 205
f 4 206 500 198
f 137 207 501 203
f 134 208 501 207
f 135 206 501 208
f 4 203 501 206
f 136 209 502 205
f 13 210 502 209
f 7 211 502 210
f 5 205 502 211
f 7 212 503 211
f 12 213 503 212
f 6 199 503 213
f 5 211 503 199
f 11 214 504 217
f 10 215 504 214
f 9 216 504 215
f 8 217 504 216
f 136 204 505 220
f 135 218 505 204
f 143 219 505 218
f 14 220 505 219
f 143 221 506 219
f 114 222 506 221
f 144 223 506 222
f 14 219 506 223
f 25 224 507 227
f 26 225 507 224
f 17 226 507 225
f 15 227 507 226
f 33 228 508 231
f 58 229 508 228
f 64 230 508 229
f 16 231 508 230
f 64 232 509 230
f 19 233 509 232
f 18 234 509 233
f 16 230 509 234
f 18 235 510 234
f 17 225 510 235
f 26 236 510 225
f 16 234 510 236
f 26 237 511 236
f 147 238 511 237
f 33 231 511 238
f 16 236 511 231
f 64 239 512 232
f 170 240 512 239
f 65 241 512 240
f 19 232 512 241
f 65 240 513 244
f 170 242 513 240
f 22 243 513 242
f 21 244 513 243
f 170 245 514 242
f 169 246 514 245
f 90 247 514 246
f 22 242 514 247
f 90 248 515 251
f 166 249 515 248
f 167 250 515 249
f 23 251 515 250
f 167 252 516 255
f 171 253 516 252
f 91 254 516 253
f 24 255 516 254
f 94 256 517 259
f 28 257 517 256
f 92 258 517 257
f 27 259 517 258
f 100 260 518 262
f 29 261 518 260
f 92 257 518 261
f 28 262 518 257
f 94 263 519 256
f 172 264 519 263
f 99 265 519 264
f 28 256 519 265
f 100 266 520 260
f 123 267 520 266
f 101 268 520 267
f 29 260 520 268
f 101 269 521 272
f 32 270 521 269
f 31 271 521 270
f 30 272 521 271
f 101 267 522 269
f 123 273 522 267
f 107 274 522 273
f 32 269 522 274
f 107 273 523 277
f 123 275 523 273
f 158 276 523 275
f 34 277 523 276
f 158 278 524 276
f 35 279 524 278
f 122 280 524 279
f 34 276 524 280
f 122 281 525 280
f 192 282 525 281
f 45 283 525 282
f 34 280 525 283
f 174 284 526 287
f 37 285 526 284
f 36 286 526 285
f 35 287 526 286
f 36 288 527 286
f 193 289 527 288
f 122 279 527 289
f 35 286 527 279
f 38 290 528 292
f 186 291 528 290
f 193 288 528 291
f 36 292 528 288
f 39 293 529 295
f 184 294 529 293
f 186 290 529 294
f 38 295 529 290
f 103 296 530 298
f 40 297 530 296
f 184 293 530 297
f 39 298 530 293
f 41 299 531 301
f 42 300 531 299
f 184 297 531 300
f 40 301 531 297
f 103 302 532 296
f 102 303 532 302
f 185 304 532 303
f 40 296 532 304
f 89 305 533 307
f 191 306 533 305
f 42 299 533 306
f 41 307 533 299
f 191 308 534 306
f 86 309 534 308
f 43 310 534 309
f 42 306 534 310
f 43 311 535 310
f 186 294 535 311
f 184 300 535 294
f 42 310 535 300
f 86 312 536 309
f 46 313 536 312
f 44 314 536 313
f 43 309 536 314
f 44 315 537 314
f 193 291 537 315
f 186 311 537 291
f 43 314 537 311
f 46 316 538 313
f 47 317 538 316
f 192 318 538 317
f 44 313 538 318
f 192 281 539 318
f 122 289 539 281
f 193 315 539 289
f 44 318 539 315
f 192 317 540 282
f 47 319 540 317
f 79 320 540 319
f 45 282 540 320
f 48 321 541 323
f 85 322 541 321
f 47 316 541 322
f 46 323 541 316
f 52 324 542 327
f 83 325 542 324
f 50 326 542 325
f 49 327 542 326
f 50 328 543 326
f 78 329 543 328
f 85 330 543 329
f 49 326 543 330
f 83 331 544 325
f 81 332 544 331
f 84 333 544 332
f 50 325 544 333
f 84 334 545 333
f 77 335 545 334
f 78 328 545 335
f 50 333 545 328
f 57 336 546 339
f 59 337 546 336
f 52 338 546 337
f 51 339 546 338
f 59 340 547 337
f 60 341 547 340
f 83 324 547 341
f 52 337 547 324
f 54 342 548 345
f 55 343 548 342
f 56 344 548 343
f 53 345 548 344
f 61 346 549 347
f 81 331 549 346
f 83 341 549 331
f 60 347 549 341
f 62 348 550 351
f 68 349 550 348
f 82 350 550 349
f 61 351 550 350
f 82 352 551 350
f 80 353 551 352
f 81 346 551 353
f 61 350 551 346
f 66 354 552 357
f 67 355 552 354
f 68 356 552 355
f 63 357 552 356
f 70 358 553 360
f 80 352 553 358
f 82 359 553 352
f 69 360 553 359
f 76 361 554 363
f 71 362 554 361
f 80 358 554 362
f 70 363 554 358
f 76 364 555 361
f 74 365 555 364
f 72 366 555 365
f 71 361 555 366
f 72 367 556 366
f 77 334 556 367
f 84 368 556 334
f 71 366 556 368
f 84 332 557 368
f 81 353 557 332
f 80 362 557 353
f 71 368 557 362
f 74 369 558 365
f 75 370 558 369
f 73 371 558 370
f 72 365 558 371
f 191 305 559 374
f 89 372 559 305
f 190 373 559 372
f 87 374 559 373
f 190 372 560 377
f 89 375 560 372
f 189 376 560 375
f 88 377 560 376
f 188 378 561 381
f 96 379 561 378
f 95 380 561 379
f 93 381 561 380
f 98 382 562 385
f 187 383 562 382
f 97 384 562 383
f 96 385 562 384
f 187 386 563 383
f 110 387 563 386
f 126 388 563 387
f 97 383 563 388
f 126 389 564 388
f 125 390 564 389
f 124 391 564 390
f 97 388 564 391
f 160 392 565 395
f 183 393 565 392
f 105 394 565 393
f 104 395 565 394
f 105 396 566 394
f 182 397 566 396
f 106 398 566 397
f 104 394 566 398
f 183 399 567 393
f 156 400 567 399
f 155 401 567 400
f 105 393 567 401
f 155 402 568 401
f 154 403 568 402
f 182 396 568 403
f 105 401 568 396
f 182 404 569 397
f 153 405 569 404
f 181 406 569 405
f 106 397 569 406
f 181 405 570 409
f 153 407 570 405
f 109 408 570 407
f 108 409 570 408
f 109 410 571 408
f 110 386 571 410
f 187 411 571 386
f 108 408 571 411
f 153 412 572 407
f 152 413 572 412
f 179 414 572 413
f 109 407 572 414
f 179 415 573 414
f 180 416 573 415
f 110 410 573 416
f 109 414 573 410
f 180 417 574 416
f 120 418 574 417
f 126 387 574 418
f 110 416 574 387
f 112 419 575 422
f 151 420 575 419
f 178 421 575 420
f 111 422 575 421
f 178 423 576 421
f 145 424 576 423
f 113 425 576 424
f 111 421 576 425
f 113 426 577 425
f 116 427 577 426
f 119 428 577 427
f 111 425 577 428
f 180 415 578 430
f 179 429 578 415
f 151 419 578 429
f 112 430 578 419
f 114 431 579 433
f 115 432 579 431
f 116 426 579 432
f 113 433 579 426
f 143 434 580 221
f 139 435 580 434
f 115 431 580 435
f 114 221 580 431
f 139 436 581 435
f 128 437 581 436
f 127 438 581 437
f 115 435 581 438
f 127 439 582 438
f 118 440 582 439
f 116 432 582 440
f 115 438 582 432
f 118 441 583 440
f 117 442 583 441
f 119 427 583 442
f 116 440 583 427
f 121 443 584 444
f 125 389 584 443
f 126 418 584 389
f 120 444 584 418
f 142 445 585 448
f 130 446 585 445
f 131 447 585 446
f 128 448 585 447
f 130 445 586 451
f 142 449 586 445
f 140 450 586 449
f 129 451 586 450
f 141 452 587 455
f 1 453 587 452
f 132 454 587 453
f 129 455 587 454
f 132 456 588 454
f 133 457 588 456
f 130 451 588 457
f 129 454 588 451
f 139 434 589 458
f 143 218 589 434
f 135 208 589 218
f 134 458 589 208
f 178 459 590 423
f 149 460 590 459
f 146 461 590 460
f 145 423 590 461
f 149 462 591 460
f 148 463 591 462
f 147 464 591 463
f 146 460 591 464
f 148 465 592 463
f 177 466 592 465
f 33 238 592 466
f 147 463 592 238
f 176 467 593 469
f 162 468 593 467
f 177 465 593 468
f 148 469 593 465
f 149 470 594 462
f 150 471 594 470
f 176 469 594 471
f 148 462 594 469
f 178 420 595 459
f 151 472 595 420
f 150 470 595 472
f 149 459 595 470
f 152 473 596 475
f 154 474 596 473
f 176 471 596 474
f 150 475 596 471
f 151 429 597 472
f 179 413 597 429
f 152 475 597 413
f 150 472 597 475
f 153 404 598 412
f 182 403 598 404
f 154 473 598 403
f 152 412 598 473
f 155 476 599 402
f 162 467 599 476
f 176 474 599 467
f 154 402 599 474
f 156 477 600 400
f 163 478 600 477
f 162 476 600 478
f 155 400 600 476
f 183 479 601 399
f 159 480 601 479
f 157 481 601 480
f 156 399 601 481
f 183 392 602 479
f 160 482 602 392
f 161 483 602 482
f 159 479 602 483
f 163 484 603 478
f 175 485 603 484
f 177 468 603 485
f 162 478 603 468
f 165 486 604 489
f 166 487 604 486
f 168 488 604 487
f 164 489 604 488
f 171 252 605 490
f 167 249 605 252
f 166 486 605 249
f 165 490 605 486
f 90 246 606 248
f 169 491 606 246
f 168 487 606 491
f 166 248 606 487
f 169 492 607 491
f 58 493 607 492
f 175 494 607 493
f 168 491 607 494
f 170 239 608 245
f 64 229 608 239
f 58 492 608 229
f 169 245 608 492
f 58 228 609 493
f 33 466 609 228
f 177 485 609 466
f 175 493 609 485
f 158 275 610 496
f 123 266 610 275
f 100 495 610 266
f 173 496 610 495
