v -0.307751 -0.444264 -0.17284
v -0.291102 -0.407713 -0.162653
v -0.292822 -0.415085 -0.164715
v -0.294543 -0.422457 -0.166777
v -0.296263 -0.429829 -0.168839
v -0.297984 -0.437201 -0.170901
v -0.299705 -0.444572 -0.172963
v -0.301425 -0.451944 -0.175025
v -0.303146 -0.459316 -0.177088
v -0.297209 -0.398942 -0.159737
v -0.298993 -0.40648 -0.161777
v -0.300788 -0.414032 -0.163815
v -0.302515 -0.421552 -0.166049
v -0.304584 -0.403926 -0.16617
v -0.306347 -0.41158 -0.168318
v -0.309404 -0.451932 -0.175437
v -0.300296 -0.388758 -0.162616
v -0.302478 -0.396339 -0.164371
v -0.297943 -0.381219 -0.160938
v -0.295332 -0.373868 -0.15921
v -0.290924 -0.376811 -0.153824
v -0.293077 -0.384163 -0.155786
v -0.29523 -0.391516 -0.157748
v -0.281224 -0.371803 -0.152235
v -0.283471 -0.378971 -0.154351
v -0.2788 -0.364744 -0.150077
v -0.273537 -0.35082 -0.145798
v -0.276162 -0.357795 -0.147916
v -0.267976 -0.337073 -0.141077
v -0.270761 -0.343944 -0.143444
v -0.265207 -0.330139 -0.138831
v -0.262396 -0.323149 -0.13673
v -0.256266 -0.309753 -0.131939
v -0.259431 -0.316342 -0.134405
v -0.255965 -0.292727 -0.129559
v -0.259221 -0.299454 -0.131917
v -0.252412 -0.286127 -0.127434
v -0.26264 -0.306234 -0.133852
v -0.265635 -0.313145 -0.136077
v -0.268927 -0.320072 -0.137839
v -0.27221 -0.326971 -0.139695
v -0.277739 -0.341043 -0.144102
v -0.280527 -0.34807 -0.146182
v -0.283337 -0.355115 -0.148141
v -0.281355 -0.337863 -0.149976
v -0.278293 -0.330825 -0.148057
v -0.275023 -0.323857 -0.146168
v -0.271698 -0.31694 -0.144291
v -0.261071 -0.296437 -0.138521
v -0.264703 -0.303243 -0.140454
v -0.268335 -0.310049 -0.142388
v -0.257396 -0.289701 -0.136546
v -0.248766 -0.279559 -0.12535
v -0.249596 -0.276537 -0.132383
v -0.253568 -0.283088 -0.134489
v -0.284328 -0.344918 -0.151907
v -0.287278 -0.351986 -0.153845
v -0.289951 -0.359235 -0.155713
v -0.274939 -0.333988 -0.142022
v -0.285979 -0.362276 -0.150028
v -0.285699 -0.386117 -0.156489
v -0.284101 -0.40891 -0.166625
v -0.287838 -0.393245 -0.158728
v -0.282035 -0.431845 -0.176476
v -0.283668 -0.439111 -0.17821
v -0.2853 -0.446376 -0.179944
v -0.285771 -0.41618 -0.168573
v -0.287403 -0.423446 -0.170307
v -0.273755 -0.456374 -0.191273
v -0.278626 -0.447694 -0.184666
v -0.28023 -0.454944 -0.186376
v -0.281835 -0.462194 -0.188085
v -0.284086 -0.469619 -0.189448
v -0.292934 -0.475209 -0.186909
v -0.286988 -0.477003 -0.191053
v -0.297137 -0.480927 -0.190705
v -0.304211 -0.476525 -0.187048
v -0.298543 -0.473836 -0.183501
v -0.275737 -0.463724 -0.1928
v -0.288494 -0.369402 -0.152121
v -0.292697 -0.366521 -0.157483
v -0.28692 -0.453622 -0.181723
v -0.288511 -0.460819 -0.183611
v -0.290101 -0.468016 -0.185499
v -0.289 -0.430653 -0.172173
v -0.29059 -0.43785 -0.174061
v -0.292181 -0.445047 -0.175949
v -0.293772 -0.452244 -0.177837
v -0.295362 -0.459441 -0.179725
v -0.296953 -0.466639 -0.181613
v -0.289489 -0.400486 -0.160735
v -0.304495 -0.467562 -0.180643
v -0.304333 -0.429139 -0.168013
v -0.306054 -0.436557 -0.170205
f 16 8 7 1
f 7 6 94 1
f 11 12 3 2
f 3 67 62 2
f 91 10 11 2
f 12 13 4 3
f 4 68 67 3
f 13 93 5 4
f 5 85 68 4
f 93 94 6 5
f 6 86 85 5
f 7 87 86 6
f 8 88 87 7
f 9 89 88 8
f 92 90 89 9
f 18 14 11 10
f 91 63 23 10
f 23 17 18 10
f 14 15 12 11
f 23 22 19 17
f 22 21 20 19
f 21 80 81 20
f 22 61 25 21
f 25 24 80 21
f 23 63 61 22
f 26 60 80 24
f 28 44 60 26
f 43 44 28 27
f 30 42 43 27
f 59 42 30 29
f 31 41 59 29
f 32 40 41 31
f 34 39 40 32
f 38 39 34 33
f 52 49 36 35
f 37 55 52 35
f 49 50 38 36
f 53 54 55 37
f 50 51 39 38
f 51 48 40 39
f 48 47 41 40
f 47 46 59 41
f 45 56 43 42
f 59 46 45 42
f 56 57 44 43
f 57 58 60 44
f 81 80 60 58
f 85 86 65 64
f 86 87 66 65
f 87 88 82 66
f 82 71 70 66
f 71 72 79 69
f 82 83 72 71
f 83 84 73 72
f 84 74 75 73
f 78 77 76 74
f 84 90 78 74
f 88 89 83 82
f 89 90 84 83
