# https://github.com/mikedh/trimesh
v -0.16152650 0.02092450 0.13148550
v -0.16244550 0.03875150 0.13127950
v -0.16658901 0.04991000 0.12908900
v -0.17155350 0.04833600 0.12445899
v -0.17636099 0.05635200 0.11996400
v 0.07726200 0.09683550 0.18830600
v 0.09118050 0.06392100 0.17176574
v 0.10627150 0.06983400 0.16760300
v -0.18816200 -0.01846800 0.09813200
v -0.18213999 0.05043100 0.11202600
v -0.18352250 0.03123850 0.10890900
v -0.18497200 0.01775900 0.10555000
v -0.18810850 0.01165800 0.09910750
v -0.18639000 -0.00702400 0.09671200
v -0.17232071 -0.04382686 0.10348654
v -0.17862746 -0.03635004 0.09439370
v -0.18201339 -0.02651854 0.09458635
v -0.16932233 -0.03758721 0.11437721
v -0.17609968 -0.02034759 0.11242792
v -0.16983902 -0.02077678 0.12083203
v -0.18091323 -0.01104980 0.10751544
v -0.17635171 -0.00741922 0.11579574
v -0.18247747 0.00548939 0.10876347
v -0.16042076 -0.03200892 0.12903368
v -0.16530381 -0.02790842 0.12448164
v -0.16211361 -0.00746807 0.13114588
v -0.17562658 0.03415896 0.11992044
v -0.17640954 0.01402965 0.11787383
v -0.14863879 -0.03813255 0.14307457
v -0.17353936 0.02557725 0.12139844
v -0.15626767 -0.02063877 0.13565749
v -0.15644385 -0.04633582 0.12700777
v -0.14490186 -0.04549644 0.13992970
v -0.14380781 -0.03505222 0.14404425
v -0.15019600 -0.01961300 0.14069700
v -0.14093401 -0.04939400 0.14176100
v -0.14730721 -0.03961654 0.13961811
v -0.15878051 -0.00755073 0.13411051
v -0.15498380 0.00677879 0.13685443
v -0.15687050 0.01661500 0.13702850
v -0.13223025 -0.03886525 0.15258226
v -0.14179000 -0.05167800 0.13975801
v -0.14129439 -0.01306301 0.14758012
v -0.15145400 0.00327500 0.13962400
v -0.14455216 -0.00741325 0.14524774
v -0.13336674 -0.04313492 0.15060083
v -0.16304638 0.03433323 0.13064946
v -0.12374862 -0.03380455 0.15806256
v -0.13619338 -0.02909471 0.15084260
v -0.13423135 -0.06011371 0.14150806
v -0.11999261 -0.04353294 0.15948790
v -0.13413900 -0.01718100 0.15205500
v -0.12500700 -0.02705100 0.15783100
v -0.12804900 -0.02368950 0.15603350
v -0.13972301 -0.00995700 0.14851649
v -0.11514796 -0.03868809 0.16263939
v -0.12045873 -0.04660413 0.15805960
v -0.11472675 -0.05158325 0.15951249
v -0.12450803 -0.05397183 0.15262786
v -0.12504600 -0.05938275 0.14890412
v -0.10633800 -0.03847350 0.16722299
v -0.11378970 -0.04279807 0.16276310
v -0.10660400 -0.04596600 0.16578899
v -0.12194100 -0.02876800 0.15943700
v -0.16119631 -0.05155160 0.11595512
v -0.14358025 -0.05743714 0.13453466
v -0.18096700 -0.03129700 0.09363300
v -0.12988892 -0.08824127 0.08747301
v -0.14220540 -0.08112475 0.09218217
v -0.13805300 -0.08424100 0.08778400
v -0.12821914 -0.08770324 0.09966689
v -0.12017900 -0.09279400 0.08558800
v -0.11725375 -0.09256375 0.09482950
v -0.14590751 -0.07875200 0.08888800
v -0.13313968 -0.08240717 0.10966919
v -0.14916524 -0.07511231 0.09653235
v -0.13046222 -0.08459729 0.10847529
v -0.16101124 -0.06581450 0.09030900
v -0.14034126 -0.07902406 0.10679964
v -0.11846750 -0.08319700 0.12586350
v -0.16134946 -0.06169505 0.10134379
v -0.13393210 -0.07848093 0.11854084
v -0.11606787 -0.07671012 0.13791900
v -0.12701585 -0.07797990 0.12742369
v -0.14626795 -0.07103751 0.11411859
v -0.14112256 -0.07207120 0.12000016
v -0.13276408 -0.06883084 0.13477959
v -0.16262719 -0.06313772 0.09126918
v -0.15150038 -0.05979180 0.12250076
v -0.16712999 -0.05720400 0.09124200
v -0.11957336 -0.07329169 0.14042821
v -0.12733882 -0.06620273 0.14193337
v -0.15785477 -0.06003114 0.11193154
v -0.10743700 -0.07082250 0.15061549
v -0.12085150 -0.06746700 0.14553950
v 0.15645900 0.03217100 0.13620999
v 0.14701313 -0.03313004 0.14143142
v 0.01313800 0.00535162 0.19016887
v 0.01502331 0.00001001 0.19983743
v 0.00189925 -0.00189400 0.20811125
v 0.14775235 0.00515912 0.13972058
v 0.14346400 -0.00090700 0.14387099
v 0.16026390 0.01799235 0.13205311
v 0.15768100 0.01333200 0.13473199
v 0.15743431 0.01755714 0.13626788
v 0.15277387 0.01009460 0.13781767
v 0.15954637 0.04702167 0.13734569
v 0.11042673 -0.01140579 0.16136868
v 0.09944225 -0.01039300 0.16371950
v 0.10454030 -0.01154058 0.16340636
v 0.12154725 -0.00985150 0.15627000
v 0.09339050 -0.00977350 0.16515749
v 0.08910600 -0.00939600 0.16674800
v 0.07014699 -0.00118122 0.16763254
v 0.09983060 -0.01446220 0.16649071
v 0.06917637 -0.00628454 0.17106077
v 0.13433999 -0.00806797 0.15085946
v 0.04498124 -0.00866917 0.18033019
v 0.05283800 -0.00030900 0.17352600
v 0.03856607 -0.01294501 0.18495621
v 0.06152705 -0.01911989 0.17914639
v 0.05937973 -0.01641967 0.17873613
v 0.03197330 -0.00787149 0.18649744
v 0.04553234 -0.01886960 0.18396564
v 0.08731651 -0.02604498 0.17351523
v 0.03583953 -0.02184243 0.18844019
v 0.01208292 0.00842310 0.18829231
v 0.11912192 -0.01197571 0.15871843
v 0.05761355 0.00242516 0.17069148
v 0.01811795 0.00841447 0.18611232
v 0.10831773 -0.01556313 0.16411935
v 0.00648876 0.01110924 0.18824505
v 0.04431002 -0.02824141 0.18564584
v 0.07426154 -0.03005599 0.17769830
v 0.02694865 0.00924326 0.18211555
v 0.11791866 -0.01903340 0.16078403
v 0.06381000 0.00785300 0.16835749
v 0.07907739 -0.03274314 0.17660621
v 0.09702509 -0.03976454 0.17130705
v 0.03462812 -0.02791128 0.18889836
v 0.04162232 0.00495524 0.17611961
v 0.09308522 -0.03338357 0.17253414
v 0.11426700 -0.02428900 0.16291299
v 0.01480200 0.01443300 0.18590200
v 0.00858250 0.01572100 0.18714400
v 0.11724752 -0.03326745 0.16202549
v 0.00098700 0.01123050 0.18885599
v 0.02289100 0.01414700 0.18336500
v 0.06793491 -0.03537577 0.17955387
v 0.10599715 -0.03874875 0.16718393
v 0.02215383 -0.02321562 0.19492039
v 0.00019950 0.01471950 0.18800701
v 0.02630010 -0.00789508 0.19081517
v 0.14722946 -0.00301473 0.14271711
v 0.13928315 -0.01071444 0.14861866
v 0.12755232 -0.01715650 0.15575579
v 0.13411834 -0.02470641 0.15202337
v 0.02341745 -0.00349826 0.19050800
v 0.02248797 -0.01234222 0.19567305
v 0.01491970 -0.00516950 0.20365588
v 0.01733481 -0.01559897 0.19964457
v 0.01087247 -0.00461021 0.20652966
v 0.02889472 -0.01723341 0.19144147
v 0.00947107 -0.00945854 0.20698005
v 0.02988448 -0.03553345 0.18941127
v 0.03229739 -0.04552213 0.18549223
v 0.04596630 -0.03384754 0.18497682
v 0.04058775 -0.04054928 0.18522665
v 0.07319848 -0.04670889 0.17663173
v 0.08382105 -0.04641574 0.17377483
v 0.07761249 -0.04357632 0.17641879
v 0.08995140 -0.05120189 0.17049852
v 0.06294100 -0.04986427 0.17776338
v 0.00379050 -0.01242225 0.20730300
v 0.09701175 -0.05415840 0.16704657
v 0.01009162 -0.02548614 0.19930299
v 0.07905020 -0.05300374 0.17291385
v 0.01451250 -0.04232950 0.19125449
v 0.03485393 -0.05094732 0.18251978
v 0.07965990 -0.05716618 0.17099947
v 0.02135243 -0.04693655 0.18777936
v 0.10835272 -0.04806026 0.16440754
v 0.00772109 -0.01244137 0.20650251
v -0.00115925 -0.00688125 0.20890400
v 0.10359765 -0.05663212 0.16312365
v 0.04731486 -0.05601031 0.17760484
v 0.01414700 -0.04963100 0.18770599
v 0.11619403 -0.05374934 0.15816307
v 0.06220800 -0.06024200 0.17264950
v 0.11868111 -0.04240698 0.16026824
v 0.10624500 -0.06136000 0.15889999
v 0.07603200 -0.06170150 0.16894850
v 0.03337000 -0.05762600 0.17891601
v 0.13395400 -0.03820500 0.15147500
v 0.12423333 -0.03230213 0.15797941
v 0.00574452 -0.00654726 0.20857567
v 0.15399325 -0.01988025 0.13724475
v 0.14454013 -0.01906901 0.14494336
v 0.13956800 -0.04123800 0.14572801
v 0.13298990 -0.04836637 0.14869983
v 0.15205019 -0.00437106 0.13898213
v 0.11819668 -0.05832410 0.15429615
v 0.15710274 -0.03113050 0.13214325
v 0.14724587 -0.04200582 0.13873918
v 0.15456200 -0.02729150 0.13567925
v 0.14278721 -0.05343990 0.13771333
v 0.12715392 -0.05706194 0.14883480
v 0.13492300 -0.06028850 0.14007000
v 0.15677400 -0.04065300 0.12902300
v 0.15564699 -0.03775300 0.13162400
v 0.15378350 -0.04467850 0.13042750
v -0.00415600 -0.00331600 0.20834300
v 0.15259001 -0.05332100 0.12626000
v 0.14292701 -0.05970900 0.13263100
v 0.14985001 -0.05465450 0.12869901
v 0.00783814 -0.00311348 0.20820133
v -0.00973600 -0.05072850 0.18559200
v 0.00298950 -0.04904400 0.18678050
v -0.01805300 -0.05785950 0.18081950
v -0.04031725 -0.06308225 0.17408450
v -0.06013300 -0.06651400 0.16851400
v -0.06682900 -0.06549500 0.16815200
v -0.06420082 -0.06213964 0.17118108
v -0.03387376 -0.05010826 0.18328179
v -0.08190587 -0.06292787 0.16687212
v -0.08747515 -0.05830872 0.16817065
v -0.09803534 -0.06404242 0.16088466
v -0.10426219 -0.06675040 0.15632860
v 0.00613950 -0.04707150 0.18955600
v -0.07385151 -0.05533745 0.17310361
v -0.07734000 -0.06714950 0.16467201
v -0.06692894 -0.05664240 0.17398008
v -0.00333967 -0.03899962 0.19440423
v -0.01170401 -0.02453271 0.19912897
v -0.03374461 -0.04192433 0.18649687
v -0.00629492 -0.01096240 0.20756098
v -0.07628897 -0.05036629 0.17488227
v -0.10317409 -0.05650425 0.16373738
v -0.10946733 -0.06001019 0.15842328
v -0.09576828 -0.05234354 0.16841266
v 0.00261108 -0.04435930 0.19239527
v -0.01383444 -0.02993989 0.19673334
v -0.08142000 -0.04480200 0.17493799
v -0.00907903 -0.00923137 0.20713977
v 0.00187973 -0.02733979 0.19990814
v -0.00223668 -0.01052306 0.20856413
v -0.10303647 -0.05126396 0.16594920
v -0.04657280 -0.03982269 0.18403545
v -0.01787584 -0.02046674 0.19762648
v -0.09791425 -0.06984500 0.15592826
v -0.09281466 -0.04278455 0.17209019
v -0.07546823 -0.04304107 0.17695199
v -0.11411181 -0.06476773 0.15237004
v -0.03511775 -0.03481732 0.18777758
v -0.12050992 -0.05998590 0.15193299
v -0.03808662 -0.03135788 0.18771624
v -0.09857700 -0.03849800 0.17035800
v -0.08718950 -0.03844100 0.17415700
v -0.02321400 -0.02134700 0.19472725
v -0.10562825 -0.04167775 0.16700674
v -0.01840800 -0.01560700 0.19856200
v -0.01161300 -0.00708300 0.20584100
v 0.07934675 0.08699725 0.18493725
v 0.07717900 0.07641700 0.18241000
v 0.08220350 0.06675550 0.17669599
v 0.14262950 -0.08141575 0.08841975
v 0.14031175 -0.08050575 0.09814262
v 0.14788550 -0.06923800 0.11384750
v 0.14815501 -0.06607350 0.11852750
v 0.14953462 -0.07208088 0.10414125
v 0.14837125 0.06192500 0.14410550
v 0.14383049 0.06531850 0.14728549
v 0.15376550 0.05653100 0.13954801
v 0.11218877 0.07054338 0.16582723
v 0.11864700 0.07178000 0.16225100
v 0.16793399 0.09377400 0.13287750
v 0.17716600 0.09526200 0.12758601
v 0.16738121 -0.05818582 0.09133210
v 0.17262350 -0.04824000 0.09218750
v 0.15074977 -0.07678420 0.08954656
v 0.17722499 -0.03927900 0.09249600
v 0.18203749 -0.02579525 0.09395850
v 0.18387701 -0.02247400 0.09500200
v 0.18609950 -0.00847600 0.09621250
v 0.18749499 -0.00285200 0.09713300
v 0.18660600 0.04514600 0.10444600
v 0.17909700 0.08053100 0.11823500
v 0.18213200 0.06910866 0.11387278
v 0.18378091 0.06271138 0.11195412
v 0.18818900 0.02906700 0.10118800
v 0.18774879 0.01993384 0.09961084
v 0.15751199 0.09044100 0.14314701
v 0.11022097 0.07346861 0.16700870
v 0.10127240 0.07665345 0.17279189
v 0.10072400 0.08088300 0.17444000
v 0.13215975 0.07591731 0.15695660
v 0.14449801 0.08638100 0.15780000
v 0.12632300 0.09016200 0.16521899
v 0.11502450 0.08291000 0.16815225
v 0.09868988 0.09911363 0.18055019
v 0.08373250 0.10710800 0.18837000
v 0.14930994 0.07361895 0.14587519
v 0.15946446 0.06053269 0.13567123
v 0.16612896 0.04829736 0.12880539
v 0.16942129 0.02396460 0.12476838
v 0.17150250 0.02866650 0.12293850
v 0.16247000 0.03417400 0.13045700
v 0.16233300 0.02850100 0.13029200
v 0.16233603 0.00112096 0.13093581
v 0.16048250 -0.00716750 0.13228700
v 0.16363300 -0.00273300 0.12972800
v 0.17548425 0.00946775 0.11793575
v 0.17919085 0.04764688 0.11523680
v 0.18074585 0.01248673 0.11136873
v 0.17703800 0.01300300 0.11633300
v 0.17916813 0.00089110 0.11237681
v 0.17288233 -0.01168629 0.11871492
v 0.16438311 -0.01979267 0.12711306
v 0.17030635 -0.00317145 0.12309908
v 0.15887500 0.00270300 0.13370800
v 0.15484482 -0.00541730 0.13680579
v 0.15232100 0.00499200 0.13852100
v 0.16856244 -0.02201106 0.12137619
v 0.18442475 0.01529175 0.10524650
v 0.17303849 0.04753150 0.12232700
v 0.16277364 0.07161248 0.13512406
v 0.14775363 0.08845580 0.15010787
v 0.16255575 0.09201550 0.13820075
v 0.17658550 0.05239500 0.11856950
v 0.17748652 -0.02120030 0.10854488
v 0.17833801 -0.02982300 0.10046100
v 0.17375100 -0.03553600 0.10618200
v 0.17473138 -0.02905413 0.10882438
v 0.17073617 -0.04188842 0.10743693
v 0.16604236 -0.05598626 0.09838050
v 0.16644900 -0.04738900 0.10988400
v 0.16826330 -0.03052605 0.11909478
v 0.16200429 -0.04075926 0.12267328
v 0.16173554 -0.05134035 0.11505929
v 0.15409200 -0.06086250 0.11634950
v 0.16228101 -0.04579900 0.11875700
v 0.16345175 -0.05534950 0.10584662
v 0.15460637 -0.06385133 0.11150037
v 0.15777400 -0.03507900 0.13031000
v 0.16033401 -0.03705900 0.12642800
v 0.15459470 -0.07064935 0.09328724
v 0.15112028 -0.07313243 0.09803572
v 0.15357553 -0.07197999 0.09070060
v 0.17326865 0.06542628 0.12371728
v 0.16656049 0.00497200 0.12714600
v 0.17007801 0.04855100 0.12544700
v 0.17570300 -0.01675200 0.11331800
v 0.17244776 -0.02956263 0.11284175
v 0.16297950 0.06345600 0.13352700
v 0.18026326 -0.00708375 0.10851950
f 5 27 4
f 5 10 27
f 27 10 11
f 11 23 27
f 27 23 28
f 30 27 28
f 30 28 1
f 1 28 26
f 28 22 26
f 26 22 31
f 38 26 31
f 43 38 31
f 38 43 45
f 55 45 43
f 55 39 45
f 55 44 39
f 40 39 44
f 55 43 52
f 43 49 52
f 54 52 49
f 54 49 48
f 54 48 53
f 64 53 48
f 64 48 56
f 56 48 51
f 56 51 62
f 56 62 61
f 63 61 62
f 62 60 63
f 62 57 60
f 57 59 60
f 60 59 50
f 95 60 50
f 255 60 95
f 253 255 95
f 239 255 253
f 238 255 239
f 58 255 238
f 247 58 238
f 247 238 240
f 251 247 240
f 251 260 247
f 260 251 257
f 258 257 251
f 256 258 251
f 256 251 252
f 256 252 254
f 242 256 254
f 259 256 242
f 249 259 242
f 261 259 249
f 262 261 249
f 244 262 249
f 212 262 244
f 246 212 244
f 246 244 236
f 246 236 233
f 246 233 245
f 174 246 245
f 184 246 174
f 196 184 174
f 196 216 184
f 216 196 164
f 216 164 162
f 160 216 162
f 99 216 160
f 160 158 99
f 158 160 153
f 159 153 160
f 159 160 161
f 160 164 161
f 161 164 151
f 164 176 151
f 183 176 164
f 183 174 176
f 174 178 176
f 176 178 181
f 178 187 181
f 181 187 179
f 179 187 193
f 179 193 186
f 189 186 193
f 180 186 189
f 192 180 189
f 180 192 191
f 185 180 191
f 188 185 191
f 202 188 191
f 207 202 191
f 207 191 208
f 206 207 208
f 206 208 214
f 215 206 214
f 211 206 215
f 204 206 211
f 210 204 211
f 204 210 205
f 97 204 205
f 205 201 97
f 198 97 201
f 201 154 198
f 201 101 154
f 201 106 101
f 104 106 201
f 105 106 104
f 105 104 103
f 105 103 96
f 96 103 308
f 308 103 305
f 308 305 306
f 308 306 307
f 351 307 306
f 351 304 307
f 354 304 351
f 354 303 304
f 354 302 303
f 327 302 354
f 326 327 354
f 326 354 276
f 276 354 325
f 349 276 325
f 349 325 329
f 288 349 329
f 349 288 287
f 349 287 277
f 329 313 288
f 288 313 289
f 289 313 286
f 313 324 286
f 313 314 324
f 324 314 355
f 324 355 291
f 355 285 291
f 355 330 285
f 355 352 330
f 316 352 355
f 317 352 316
f 352 317 323
f 337 352 323
f 352 337 353
f 337 334 353
f 353 334 333
f 334 332 333
f 332 334 331
f 334 281 331
f 334 279 281
f 334 335 279
f 342 335 334
f 342 343 335
f 339 343 342
f 339 340 343
f 340 269 343
f 269 268 343
f 343 268 270
f 343 270 347
f 347 278 343
f 347 346 278
f 346 347 348
f 347 280 348
f 278 346 348
f 270 267 347
f 347 267 266
f 347 266 280
f 339 213 340
f 338 213 339
f 339 341 338
f 341 339 334
f 339 336 334
f 338 341 334
f 338 209 213
f 209 338 345
f 338 337 345
f 344 209 345
f 323 344 345
f 203 344 323
f 203 323 197
f 318 197 323
f 318 319 197
f 318 317 319
f 310 197 319
f 311 310 319
f 350 311 319
f 319 312 350
f 316 312 319
f 314 312 316
f 314 315 312
f 313 312 315
f 325 312 313
f 350 309 311
f 350 103 309
f 103 320 309
f 321 320 103
f 320 321 197
f 322 197 321
f 104 322 321
f 309 320 311
f 320 197 310
f 203 209 344
f 336 339 342
f 343 278 335
f 334 336 342
f 279 335 278
f 331 281 282
f 283 331 282
f 330 332 331
f 284 330 331
f 333 332 330
f 337 338 334
f 323 345 337
f 318 323 317
f 316 319 317
f 352 333 330
f 285 330 284
f 290 324 291
f 314 316 355
f 314 313 315
f 286 324 290
f 325 313 329
f 277 276 349
f 328 326 276
f 292 326 328
f 327 326 292
f 272 303 302
f 272 271 303
f 303 271 273
f 302 296 272
f 297 296 302
f 298 296 297
f 298 299 296
f 299 294 296
f 295 294 299
f 294 275 296
f 294 293 275
f 294 7 293
f 294 265 7
f 300 265 294
f 300 264 265
f 263 264 300
f 6 263 300
f 301 6 300
f 7 8 293
f 293 8 274
f 275 293 274
f 304 303 273
f 273 307 304
f 305 350 306
f 305 103 350
f 307 96 308
f 107 96 307
f 104 321 103
f 154 101 102
f 154 102 155
f 102 117 155
f 117 156 155
f 155 156 157
f 157 156 195
f 157 195 194
f 194 195 190
f 195 146 190
f 195 136 146
f 143 146 136
f 146 143 139
f 139 150 146
f 150 182 146
f 139 182 150
f 139 175 182
f 175 185 182
f 139 172 175
f 172 177 175
f 177 180 175
f 169 180 177
f 169 173 180
f 173 179 180
f 173 166 179
f 166 173 171
f 168 166 171
f 167 168 171
f 149 167 171
f 138 149 171
f 138 171 142
f 139 142 171
f 171 170 139
f 171 169 170
f 170 177 139
f 131 142 139
f 131 125 142
f 115 125 131
f 108 115 131
f 128 108 131
f 128 131 136
f 128 136 156
f 128 111 108
f 111 128 117
f 110 115 108
f 115 110 112
f 115 112 121
f 112 116 121
f 116 122 121
f 124 121 122
f 118 124 122
f 124 118 120
f 120 126 124
f 124 126 133
f 126 140 133
f 133 140 165
f 140 151 165
f 151 166 165
f 133 165 167
f 134 133 167
f 121 133 134
f 125 121 134
f 134 138 125
f 126 151 140
f 163 151 126
f 163 159 151
f 120 163 126
f 120 123 163
f 123 153 163
f 130 153 123
f 123 120 130
f 120 141 130
f 135 130 141
f 148 135 141
f 137 148 141
f 137 141 129
f 129 141 119
f 119 141 118
f 119 118 114
f 114 118 116
f 114 116 113
f 114 129 119
f 137 129 114
f 148 130 135
f 148 132 130
f 144 132 148
f 144 145 132
f 152 132 145
f 132 152 147
f 98 132 147
f 127 132 98
f 158 127 98
f 127 158 130
f 130 132 127
f 141 120 118
f 121 124 133
f 116 118 122
f 112 110 109
f 108 109 110
f 108 111 109
f 125 115 121
f 136 131 139
f 125 138 142
f 138 134 149
f 134 167 149
f 167 165 168
f 168 165 166
f 171 173 169
f 170 169 177
f 139 177 172
f 136 139 143
f 146 182 190
f 190 182 188
f 190 188 200
f 188 207 200
f 194 190 200
f 194 200 199
f 204 199 200
f 194 199 204
f 157 194 97
f 156 136 195
f 155 157 198
f 117 128 156
f 154 155 198
f 198 157 97
f 97 194 204
f 204 200 206
f 200 207 206
f 188 202 207
f 188 182 185
f 175 180 185
f 179 186 180
f 166 181 179
f 178 229 187
f 245 229 178
f 229 245 241
f 166 176 181
f 164 174 183
f 151 176 166
f 159 161 151
f 153 159 163
f 130 158 153
f 99 158 98
f 162 164 160
f 100 184 216
f 196 174 164
f 245 178 174
f 245 233 241
f 241 233 217
f 241 217 229
f 242 217 233
f 233 234 242
f 235 217 242
f 217 235 224
f 224 235 232
f 232 235 237
f 248 237 235
f 248 254 237
f 254 248 235
f 237 230 232
f 230 237 226
f 237 240 226
f 243 240 237
f 252 243 237
f 230 226 232
f 232 226 225
f 232 225 223
f 225 231 223
f 225 228 231
f 231 228 250
f 228 94 250
f 228 95 94
f 225 227 228
f 227 238 228
f 238 227 225
f 222 223 231
f 221 222 231
f 223 222 221
f 220 223 221
f 217 223 220
f 219 217 220
f 217 219 218
f 226 238 225
f 224 232 223
f 217 224 223
f 233 236 234
f 236 249 234
f 184 212 246
f 244 249 236
f 234 249 242
f 242 254 235
f 254 252 237
f 251 243 252
f 243 251 240
f 226 240 238
f 260 58 247
f 238 239 228
f 239 253 228
f 228 253 95
f 58 60 255
f 95 50 92
f 92 87 95
f 95 87 91
f 95 91 83
f 91 84 83
f 83 84 80
f 84 77 80
f 84 82 77
f 87 82 84
f 87 86 82
f 87 89 86
f 66 89 87
f 32 89 66
f 32 65 89
f 65 93 89
f 85 89 93
f 85 93 78
f 93 81 78
f 93 15 81
f 90 81 15
f 90 88 81
f 16 90 15
f 17 16 15
f 17 67 16
f 88 78 81
f 78 76 85
f 85 76 79
f 86 85 79
f 79 76 69
f 82 79 69
f 82 69 75
f 75 69 77
f 77 69 68
f 71 77 68
f 77 71 73
f 73 71 72
f 71 68 72
f 69 70 68
f 74 70 69
f 76 74 69
f 76 78 74
f 65 15 93
f 32 15 65
f 18 15 32
f 24 18 32
f 29 24 32
f 29 31 24
f 35 31 29
f 49 35 29
f 31 25 24
f 25 18 24
f 19 18 25
f 20 19 25
f 22 20 25
f 20 22 19
f 21 19 22
f 23 21 22
f 21 23 14
f 13 14 23
f 12 13 23
f 21 14 9
f 21 9 19
f 18 19 9
f 18 9 15
f 32 66 33
f 42 33 66
f 46 42 66
f 50 46 66
f 36 42 46
f 46 33 36
f 41 33 46
f 41 46 51
f 51 46 59
f 57 51 59
f 41 34 33
f 49 34 41
f 36 33 42
f 37 32 33
f 50 66 87
f 89 85 86
f 79 82 86
f 82 75 77
f 80 77 73
f 91 87 84
f 50 87 92
f 59 46 50
f 62 51 57
f 48 41 51
f 48 49 41
f 43 35 49
f 39 38 45
f 39 1 38
f 40 1 39
f 43 31 35
f 31 22 25
f 1 26 38
f 1 27 30
f 47 27 1
f 2 27 47
f 2 3 27
f 2 47 1
f 28 23 22
f 11 12 23
f 3 4 27

