v -0.0575156 0.0178583 0.171211
v -0.0595423 0.0278392 0.172417
v -0.0523887 0.0390334 0.178508
v -0.0615227 0.0373508 0.174472
v -0.0542329 0.0485661 0.180822
v -0.0469431 0.0597814 0.187172
v -0.0505602 0.0294894 0.176158
v -0.0347095 0.0419799 0.18526
v -0.0434792 0.0405563 0.18204
v -0.0363982 0.0516232 0.187922
v -0.0451679 0.0501997 0.184703
v -0.032969 0.0325651 0.182887
v -0.0417751 0.0309808 0.179464
v -0.0310046 0.0232272 0.181249
v -0.0398471 0.0215896 0.177817
v -0.0221723 0.0248849 0.184624
v -0.0205836 0.0156302 0.184209
v -0.0132945 0.0264088 0.18724
v -0.003977 0.0273784 0.188558
v 0.00537818 0.0282442 0.188414
v 0.0148012 0.0294207 0.187433
v 0.0161193 0.0202874 0.185547
v 0.0355626 0.014376 0.177717
v 0.044671 0.0159932 0.174957
v 0.0525249 0.0271447 0.174446
v 0.0434449 0.0253439 0.177262
v 0.0516413 0.0361554 0.177726
v 0.0424915 0.0344147 0.180335
v 0.0606685 0.0380782 0.174785
v 0.0615435 0.0290332 0.17147
v 0.0537479 0.0177699 0.172125
v 0.0628995 0.0196554 0.169607
v -0.0555472 0.00772924 0.170786
v -0.0665421 0.015704 0.168565
v -0.00993625 0.00842246 0.188822
v -0.0190949 0.00684105 0.186544
v -0.0277336 0.00465951 0.183048
v -0.0363496 0.00253871 0.17957
v -0.0645411 0.00549494 0.167871
v -0.0451407 0.000388583 0.176454
v -0.043784 -0.00834718 0.180681
v -0.0350945 -0.00585359 0.183982
v -0.0486191 0.0198222 0.174337
v -0.0254297 -0.0110675 0.192423
v -0.0265553 -0.00329719 0.187602
v -0.033515 -0.014251 0.187998
v -0.0422356 -0.0169756 0.184796
v -0.0511887 -0.0194933 0.182308
v -0.0485607 -0.0285745 0.184522
v -0.057464 -0.0312606 0.182223
v -0.0663666 -0.0339213 0.179681
v -0.0396634 -0.0258535 0.187015
v -0.0380419 0.0612527 0.190567
v -0.0256405 0.0433206 0.18837
v -0.0959375 -0.0329347 0.171401
v -0.107399 -0.0273241 0.166594
v -0.115015 -0.0313654 0.162709
v -0.118423 -0.0224989 0.160946
v -0.1303 -0.0200493 0.154513
v -0.134516 -0.0137312 0.151701
v -0.125805 -0.0080021 0.152973
v -0.132245 -0.0024904 0.146715
v -0.0240924 0.0341476 0.186283
v -0.0116285 0.0170768 0.186502
v -0.0161459 0.0445662 0.190987
v -0.121157 -0.0141397 0.158129
v -0.109973 -0.0185236 0.163874
v -0.100781 -0.0148307 0.165564
v -0.0897519 -0.0208249 0.171651
v -0.0915193 -0.0120567 0.167891
v -0.0987317 -0.023678 0.169378
v -0.0782046 -0.027368 0.176258
v -0.0712463 -0.0155647 0.17494
v -0.0528772 -0.010659 0.178507
v -0.0620031 -0.0130473 0.176535
v -0.0725382 -0.00743153 0.169839
v -0.082124 -0.0094963 0.16923
v -0.0804854 -0.0181832 0.173305
v -0.139185 -0.00740569 0.14839
v -0.0871112 -0.0301131 0.174006
v -0.0147072 0.035478 0.188898
v -0.0601876 -0.0220799 0.180199
v -0.069212 -0.0246976 0.178284
v -0.0540959 -0.00187295 0.173744
v -0.0632047 -0.00415779 0.171572
v -0.0465967 0.0098792 0.173869
v -0.0293113 0.0138458 0.180956
v -0.0379136 0.0118441 0.177336
v 0.0343688 0.0235961 0.18011
v 0.0252972 0.021909 0.182993
v 0.0332958 0.0326977 0.182829
v 0.0240616 0.0310006 0.185225
v 0.0416256 0.0433289 0.183508
v 0.0324462 0.0415783 0.185991
v 0.0231442 0.040013 0.188081
v 0.0316015 0.0505883 0.189007
v 0.0222894 0.0490974 0.191028
v 0.0307467 0.0596727 0.191954
v 0.0400682 0.0612374 0.189835
v 0.0485363 0.0718967 0.190651
v 0.0392134 0.0703216 0.192783
v 0.0408932 0.0521972 0.186748
v 0.0585816 0.0645744 0.184999
v 0.0493581 0.0628685 0.187505
v 0.0599222 0.0469544 0.178045
v 0.0507454 0.0451663 0.180664
v 0.0684452 0.0575235 0.178942
v 0.0592683 0.0557355 0.181561
v 0.0500915 0.0539475 0.18418
v 0.0677913 0.0663047 0.182459
v 0.0691019 0.0486806 0.175259
v 0.0203585 0.0674296 0.196267
v 0.077769 0.0591546 0.176477
v 0.0770262 0.0680915 0.180042
v 0.0298667 0.0687757 0.194826
v 0.0669578 0.0753393 0.18569
v 0.0660071 0.0845104 0.188818
v 0.0568936 0.0826633 0.19134
v 0.0649686 0.0937107 0.191696
v 0.0558361 0.0919516 0.194109
v 0.046677 0.0902644 0.196386
v 0.0578192 0.073543 0.188258
v 0.0476999 0.081 0.193606
v 0.0383872 0.0794354 0.195743
v 0.0290362 0.0780015 0.197541
v 0.0195714 0.0765762 0.199124
v 0.0117721 0.0569934 0.194824
v 0.010728 0.0662041 0.197266
v 0.0127897 0.0477801 0.192381
v 0.00424174 0.0374974 0.190457
v 0.00320441 0.0467134 0.192884
v 0.00211283 0.0559506 0.195157
v -0.00878884 0.0642578 0.197054
v -0.00537827 0.0364533 0.190191
v -0.00651554 0.0457225 0.192484
v -0.00765281 0.0549916 0.194778
v -0.0172698 0.0537874 0.193141
v -0.0184968 0.0631242 0.195562
v -0.0196991 0.0724795 0.197933
v -0.0206714 0.0820064 0.199836
v -0.0108397 0.0829128 0.201026
v -2.21398e-05 0.074456 0.19972
v -0.0099131 0.0734983 0.199265
v -0.000988335 0.083851 0.201627
v 0.0213335 0.0582564 0.193676
v -0.0293735 0.0716525 0.195838
v -0.028301 0.0622234 0.193424
v -0.0270871 0.0528668 0.190935
v 0.0010257 0.0651481 0.19763
v 0.0098598 0.0754766 0.199718
v 0.0137753 0.038564 0.189935
f 34 39 33 1
f 33 86 43 1
f 43 7 2 1
f 7 3 4 2
f 7 13 9 3
f 9 11 5 3
f 11 10 53 6
f 43 15 13 7
f 10 11 9 8
f 9 13 12 8
f 12 63 54 8
f 54 148 10 8
f 148 147 53 10
f 13 15 14 12
f 14 16 63 12
f 15 88 87 14
f 87 17 16 14
f 43 86 88 15
f 17 64 18 16
f 18 81 63 16
f 87 37 36 17
f 36 35 64 17
f 19 134 81 18
f 20 130 134 19
f 21 151 130 20
f 22 90 92 21
f 92 95 151 21
f 24 26 89 23
f 31 25 26 24
f 27 28 26 25
f 31 32 30 25
f 30 29 27 25
f 28 91 89 26
f 93 94 91 28
f 87 88 38 37
f 38 42 45 37
f 88 86 40 38
f 40 41 42 38
f 85 84 33 39
f 86 33 84 40
f 84 74 41 40
f 74 48 47 41
f 47 46 42 41
f 46 44 45 42
f 48 49 52 47
f 74 75 82 48
f 82 50 49 48
f 82 83 51 50
f 80 69 71 55
f 67 58 57 56
f 71 68 67 56
f 66 61 60 59
f 61 62 79 60
f 71 69 70 68
f 80 72 78 69
f 78 77 70 69
f 83 73 78 72
f 76 77 78 73
f 83 82 75 73
f 84 85 75 74
f 91 92 90 89
f 94 95 92 91
f 96 97 95 94
f 97 129 151 95
f 98 145 97 96
f 102 99 98 96
f 145 127 129 97
f 115 112 145 98
f 99 101 115 98
f 102 109 104 99
f 104 100 101 99
f 123 124 101 100
f 104 103 122 100
f 122 118 123 100
f 124 125 115 101
f 104 109 108 103
f 108 107 110 103
f 110 116 122 103
f 108 109 106 105
f 111 107 108 105
f 113 114 110 107
f 117 118 122 116
f 119 120 118 117
f 120 121 123 118
f 126 112 115 125
f 150 128 112 126
f 128 149 132 127
f 132 131 129 127
f 145 112 128 127
f 131 130 151 129
f 131 135 134 130
f 132 136 135 131
f 149 133 136 132
f 143 139 138 133
f 138 137 136 133
f 149 142 143 133
f 135 65 81 134
f 136 137 65 135
f 138 147 148 137
f 148 54 65 137
f 139 146 147 138
f 143 141 140 139
f 143 142 144 141
f 65 54 63 81
