# https://github.com/mikedh/trimesh
v 0.02500600 -0.08598700 -0.14778399
v 0.01042800 -0.10266300 -0.12104200
v 0.01682925 -0.09678200 -0.13107700
v -0.00003275 -0.10913775 -0.10778200
v -0.00982200 -0.11847600 -0.08301700
v -0.00900250 -0.11530575 -0.09089550
v 0.17027625 -0.05882325 -0.07222100
v 0.18306100 -0.07068700 -0.00626000
v 0.17505500 -0.06782600 -0.04307300
v 0.17760700 -0.06940200 -0.03150300
v 0.18293899 -0.07224600 -0.00126600
v 0.15723750 -0.05427250 -0.10350300
v 0.14634199 -0.05761300 -0.11396500
v 0.13565750 -0.05455225 -0.13112301
v 0.12115200 -0.05852550 -0.14035051
v 0.08066025 -0.07298488 -0.14723425
v 0.03932350 -0.08226800 -0.15036000
v 0.18520799 -0.07107400 0.00571800
v 0.18479976 -0.07295775 0.01261025
v 0.18514100 -0.07442750 0.02673550
v 0.18263925 -0.07709725 0.04788025
v 0.18024642 -0.07810285 0.00985665
v 0.17126137 -0.08663180 0.00412325
v 0.16463933 -0.08773099 -0.01676889
v 0.17028052 -0.07306596 -0.04457253
v 0.17521350 -0.07732870 -0.01754109
v 0.17211728 -0.06965895 -0.04682280
v 0.16269444 -0.08433275 -0.03372044
v 0.17636414 -0.07983447 -0.00261209
v 0.17825223 -0.07200652 -0.02196912
v 0.14789420 -0.09370708 -0.03923980
v 0.15521400 -0.09272600 -0.02518900
v 0.15696290 -0.09543675 -0.00905326
v 0.16105700 -0.09389200 -0.00103300
v 0.15067313 -0.09556813 -0.02717346
v 0.14778536 -0.10007130 -0.01538326
v 0.17831305 -0.08191108 0.02042537
v 0.17315941 -0.08757337 0.03090651
v 0.16578171 -0.09311182 0.01862245
v 0.17606700 -0.08343500 0.05086200
v 0.17076562 -0.08855125 0.04454513
v 0.17550360 -0.08480947 0.04422395
v 0.16150549 -0.09608000 0.03167050
v 0.15834849 -0.09733294 0.00756189
v 0.15322029 -0.10143653 0.01857279
v 0.15067000 -0.10271850 0.02303438
v 0.15085618 -0.10143850 0.00333003
v 0.13759025 -0.10907000 0.01294975
v 0.14239504 -0.10385991 -0.01247575
v 0.09995000 -0.11791700 -0.02711400
v 0.09987100 -0.11769700 -0.03053900
v 0.09887250 -0.11670975 -0.03618975
v 0.11220150 -0.11389033 -0.02962200
v 0.08824450 -0.11466250 -0.05825800
v 0.11378954 -0.11255117 -0.03331765
v 0.11722693 -0.11412124 -0.01890864
v 0.13113460 -0.10918898 -0.01364885
v 0.12922201 -0.11119100 -0.00494900
v 0.11877753 -0.11568958 -0.00320319
v 0.13667247 -0.10924087 0.00586849
v 0.11555937 -0.11760613 0.01252475
v 0.10740102 -0.11952710 -0.00084747
v 0.13672077 -0.10766674 -0.00663285
v 0.12759929 -0.10454489 -0.04104676
v 0.13429668 -0.10543935 -0.02595413
v 0.13470070 -0.10040283 -0.04291296
v 0.11947117 -0.10097013 -0.06392226
v 0.11343511 -0.10613116 -0.05745296
v 0.11139566 -0.11093873 -0.04391618
v 0.10531069 -0.10823779 -0.06046187
v 0.09721242 -0.10228698 -0.08499329
v 0.09777700 -0.11347200 -0.05030600
v 0.08684772 -0.10926179 -0.07521881
v 0.06622298 -0.11483072 -0.07391471
v 0.07699200 -0.11345600 -0.06988800
v 0.05450312 -0.11152068 -0.09013048
v 0.06845856 -0.09498528 -0.11925698
v 0.03489257 -0.08846270 -0.14221280
v 0.03518100 -0.09398000 -0.13287701
v 0.04423914 -0.08822180 -0.14018570
v 0.03808808 -0.09721057 -0.12665020
v 0.01517957 -0.10375291 -0.11879087
v 0.08919838 -0.07766164 -0.13695074
v 0.09819255 -0.07833842 -0.13010194
v 0.09918200 -0.08314900 -0.12108400
v 0.09632475 -0.08938001 -0.11219753
v 0.07543334 -0.08790233 -0.12854748
v 0.08369034 -0.09727411 -0.10635675
v 0.10105579 -0.09623582 -0.09480657
v 0.07746361 -0.07927509 -0.14091243
v 0.06264012 -0.08318936 -0.14180077
v 0.04898322 -0.09808434 -0.12154098
v 0.04520133 -0.10638773 -0.10631881
v 0.06050782 -0.10697595 -0.09828956
v 0.04553086 -0.11055477 -0.09609892
v 0.03486917 -0.10581490 -0.11068919
v 0.02342919 -0.10154104 -0.12221945
v 0.02077729 -0.10901208 -0.10686947
v 0.04340862 -0.11415325 -0.08703189
v 0.02886593 -0.11352383 -0.09363890
v 0.01843706 -0.11356685 -0.09538390
v 0.08126636 -0.09379125 -0.11417518
v 0.08847082 -0.10154392 -0.09342287
v 0.06915973 -0.10636161 -0.09555586
v 0.05205020 -0.11477866 -0.08155503
v 0.08107961 -0.10438865 -0.09256902
v 0.00692535 -0.11146987 -0.10224937
v 0.02689446 -0.11715915 -0.08219490
v 0.05098400 -0.11673600 -0.07477150
v 0.05929412 -0.11966138 -0.07473700
v 0.02218475 -0.11768500 -0.08159975
v 0.02182004 -0.11581227 -0.08804600
v -0.00133718 -0.11657171 -0.08804546
v 0.01012462 -0.11661208 -0.08735314
v 0.16725178 -0.06708179 -0.06345195
v 0.16957276 -0.07092357 -0.05018024
v 0.15168335 -0.07308234 -0.08103994
v 0.15655110 -0.06055891 -0.09445437
v 0.16170639 -0.06089851 -0.08539726
v 0.15098099 -0.06709054 -0.09254427
v 0.15627720 -0.08521837 -0.04559472
v 0.14886238 -0.07655340 -0.07922697
v 0.15223058 -0.08411014 -0.05609412
v 0.13938157 -0.06268893 -0.11516831
v 0.11892467 -0.06507328 -0.13342167
v 0.11157195 -0.07633621 -0.12260646
v 0.12473219 -0.08183339 -0.09986024
v 0.13470597 -0.08403076 -0.08325674
v 0.13336404 -0.07060137 -0.10981952
v 0.13471544 -0.05964330 -0.12526453
v 0.14474403 -0.08775432 -0.06057024
v 0.11414691 -0.07912220 -0.11600288
v 0.12234359 -0.09389587 -0.07778154
v 0.10739056 -0.09781966 -0.08549367
v 0.13634225 -0.09294886 -0.06150659
v 0.14132410 -0.09275525 -0.05387162
v 0.10938270 -0.08608009 -0.10765899
v 0.10678275 -0.07094696 -0.13480806
f 96 98 97
f 82 97 98
f 98 4 82
f 98 107 4
f 100 107 98
f 101 107 100
f 107 101 114
f 114 113 107
f 111 113 114
f 108 111 114
f 114 112 108
f 108 112 100
f 108 100 105
f 109 108 105
f 110 109 105
f 105 100 99
f 105 99 76
f 76 74 105
f 74 76 104
f 76 94 104
f 94 93 104
f 104 93 77
f 104 77 88
f 88 106 104
f 73 104 106
f 71 73 106
f 71 106 103
f 103 88 71
f 89 71 88
f 89 88 137
f 134 89 137
f 133 134 137
f 133 137 127
f 137 132 127
f 132 137 126
f 137 84 126
f 137 85 84
f 137 86 85
f 85 86 84
f 86 87 84
f 86 102 87
f 102 77 87
f 77 91 87
f 87 91 90
f 90 91 16
f 91 80 16
f 92 80 91
f 92 81 80
f 92 93 81
f 97 81 93
f 79 81 97
f 78 79 97
f 97 1 78
f 97 3 1
f 78 1 17
f 80 78 17
f 81 79 78
f 80 81 78
f 80 17 16
f 83 90 16
f 84 83 16
f 138 84 16
f 125 84 138
f 125 138 16
f 125 16 15
f 125 15 14
f 130 125 14
f 129 125 130
f 124 129 130
f 120 129 124
f 117 129 120
f 117 122 129
f 122 127 129
f 122 128 127
f 135 128 122
f 133 128 135
f 135 67 133
f 66 67 135
f 66 135 31
f 31 135 136
f 136 135 131
f 131 31 136
f 121 31 131
f 121 131 123
f 122 123 131
f 121 123 122
f 25 121 122
f 25 28 121
f 26 28 25
f 24 28 26
f 28 24 32
f 32 35 28
f 35 31 28
f 35 65 31
f 35 36 65
f 36 49 65
f 49 57 65
f 57 56 65
f 56 55 65
f 55 69 65
f 64 65 69
f 64 69 68
f 68 69 70
f 69 54 70
f 54 73 70
f 73 54 75
f 73 75 74
f 69 72 54
f 69 52 72
f 52 54 72
f 68 70 71
f 134 68 71
f 68 134 67
f 64 68 66
f 66 65 64
f 55 52 69
f 53 52 55
f 53 51 52
f 56 51 53
f 56 50 51
f 56 59 50
f 59 62 50
f 61 62 59
f 60 61 59
f 48 61 60
f 48 60 46
f 46 60 45
f 45 60 47
f 47 60 49
f 60 63 49
f 63 60 57
f 60 58 57
f 58 59 57
f 44 47 49
f 44 49 33
f 44 33 34
f 44 34 23
f 39 44 23
f 39 23 37
f 38 39 37
f 38 45 39
f 43 45 38
f 41 43 38
f 42 41 38
f 40 41 42
f 21 40 42
f 21 42 38
f 21 38 37
f 20 21 37
f 20 37 19
f 37 22 19
f 19 22 26
f 26 22 29
f 29 23 26
f 22 23 29
f 18 19 26
f 18 26 11
f 11 26 8
f 8 26 30
f 8 30 10
f 10 30 25
f 10 25 9
f 25 27 9
f 27 25 116
f 27 116 115
f 116 25 115
f 25 117 115
f 9 27 115
f 9 115 7
f 7 115 119
f 115 120 119
f 120 118 119
f 118 120 12
f 12 120 13
f 119 118 12
f 7 119 12
f 22 37 23
f 34 33 23
f 23 33 24
f 24 33 35
f 39 47 44
f 39 45 47
f 43 46 45
f 60 59 58
f 56 53 55
f 57 59 56
f 63 57 49
f 33 49 36
f 33 36 35
f 24 35 32
f 23 24 26
f 30 26 25
f 28 31 121
f 31 65 66
f 66 68 67
f 131 135 122
f 25 122 117
f 115 117 120
f 120 124 13
f 14 13 124
f 125 129 132
f 124 130 14
f 83 87 90
f 77 92 91
f 86 88 102
f 84 87 83
f 126 84 125
f 132 126 125
f 127 132 129
f 128 133 127
f 133 67 134
f 137 88 86
f 134 71 89
f 70 73 71
f 103 106 88
f 102 88 77
f 77 93 92
f 76 93 94
f 76 95 93
f 95 100 93
f 76 100 95
f 73 74 104
f 76 99 100
f 111 5 113
f 5 6 113
f 113 6 107
f 112 114 101
f 112 101 100
f 100 98 93
f 107 6 4
f 82 4 2
f 82 2 3
f 97 82 3
f 93 98 96
f 93 96 97

