v -0.186617 0.313305 -0.0383338
v -0.185998 0.309917 -0.0594214
v -0.188275 0.305035 -0.0674183
v -0.18256 0.310655 -0.0726551
v -0.184687 0.305307 -0.0805455
v -0.190371 0.299694 -0.0752583
v -0.186709 0.29973 -0.0882209
v -0.18846 0.293933 -0.0957895
v -0.189846 0.2879 -0.103144
v -0.193627 0.28804 -0.0902303
v -0.183634 0.314686 -0.0514267
v -0.183872 0.293135 -0.108615
v -0.182391 0.299176 -0.101203
v -0.178663 0.310601 -0.0857656
v -0.180564 0.30492 -0.0935068
v -0.176575 0.316028 -0.077859
v -0.171521 0.325569 -0.0615579
v -0.174084 0.320862 -0.0697011
v -0.1689 0.330216 -0.053389
v -0.165934 0.334507 -0.0450982
v -0.159301 0.339371 -0.0501399
v -0.16238 0.335145 -0.0584896
v -0.145996 0.351884 -0.0384859
v -0.138375 0.358564 -0.0214868
v -0.142272 0.355337 -0.0299993
v -0.134332 0.361567 -0.0129204
v -0.130036 0.364155 -0.00434269
v -0.125548 0.366442 0.00426457
v -0.137041 0.359804 0.000668848
v -0.141305 0.357175 -0.0079029
v -0.145383 0.354264 -0.0164452
v -0.148109 0.3524 -0.00299134
v -0.152014 0.34926 -0.0114831
v -0.139485 0.35742 0.0141359
v -0.143891 0.355084 0.00553701
v -0.128052 0.364299 0.01788
v -0.135058 0.359646 0.0227382
v -0.130392 0.361267 0.0313294
v -0.123411 0.365989 0.0264788
v -0.127761 0.358943 0.0533281
v -0.13255 0.357713 0.0447501
v -0.137339 0.356484 0.0361721
v -0.125738 0.362732 0.0399378
v -0.120834 0.363731 0.0484766
v -0.115802 0.36427 0.0569375
v -0.108792 0.368998 0.0520585
v -0.101491 0.37323 0.0470782
v -0.106526 0.372539 0.0386694
v -0.111336 0.371376 0.0301215
v -0.11378 0.368299 0.0435944
v -0.116123 0.370116 0.0215588
v -0.103987 0.37534 0.0252011
v -0.183882 0.317683 -0.0301432
v -0.0962865 0.373424 0.0553458
v -0.0939566 0.376803 0.0420225
v -0.0991044 0.376445 0.033705
v -0.108805 0.374004 0.0166254
v -0.103653 0.369298 0.060449
v -0.117845 0.359714 0.0701478
v -0.110813 0.364681 0.0653602
v -0.122843 0.359444 0.0617583
v -0.129617 0.354075 0.0663935
v -0.134391 0.353453 0.0579045
v -0.139148 0.352322 0.0494317
v -0.158746 0.341368 0.028345
v -0.143883 0.351051 0.0408872
v -0.148206 0.34911 0.0322843
v -0.152518 0.346989 0.0236474
v -0.156723 0.344368 0.0151477
v -0.162833 0.338638 0.0198728
v -0.166747 0.335605 0.0114656
v -0.172559 0.329406 0.0161803
v -0.170497 0.32856 0.0371868
v -0.168688 0.3324 0.0245198
v -0.160642 0.337192 0.0413081
v -0.164683 0.335046 0.0327688
v -0.152005 0.340488 0.0582471
v -0.158063 0.33405 0.0624276
v -0.159189 0.328384 0.074766
v -0.153554 0.335225 0.070861
v -0.191364 0.303747 -0.0543312
v -0.149193 0.328775 0.0914439
v -0.154229 0.328668 0.0831031
v -0.148628 0.335588 0.0791964
v -0.155158 0.322329 0.0953742
v -0.159967 0.321925 0.0870186
v -0.165923 0.315551 0.0909797
v -0.169834 0.314221 0.0826579
v -0.173861 0.312901 0.0743763
v -0.178111 0.311297 0.0661641
v -0.17337 0.318649 0.0622499
v -0.168029 0.325695 0.0582069
v -0.172191 0.323899 0.0498609
v -0.181266 0.314284 0.0457232
v -0.185108 0.311543 0.0376232
v -0.176017 0.321628 0.0415282
v -0.186806 0.302225 0.0618997
v -0.186161 0.306905 0.0498186
v -0.18975 0.298941 0.0536842
v -0.189934 0.304123 0.0417096
v -0.19189 0.30024 0.0333672
v -0.194029 0.301538 0.0130501
v -0.191674 0.305196 0.0212799
v -0.187201 0.312732 0.0168859
v -0.189918 0.309279 0.00875822
v -0.192635 0.305827 0.000630552
v -0.195352 0.302374 -0.00749712
v -0.18829 0.312902 -0.00401198
v -0.191083 0.309175 -0.0122878
v -0.185352 0.316582 0.00427036
v -0.179739 0.322811 -0.000474028
v -0.183009 0.31911 -0.00877213
v -0.180999 0.321892 -0.0218926
v -0.186203 0.315436 -0.0170661
v -0.189092 0.311464 -0.0252872
v -0.19197 0.307096 -0.0333015
v -0.193832 0.304911 -0.0203832
v -0.196569 0.300501 -0.0284293
v -0.196697 0.297585 -0.0490988
v -0.19364 0.298935 -0.0622029
v -0.188846 0.308597 0.0294185
v -0.179771 0.318712 0.0333391
v -0.183486 0.315722 0.0251124
v -0.177437 0.316727 0.0539639
v -0.182747 0.304139 0.0700629
v -0.182276 0.309476 0.057932
v -0.178696 0.305614 0.0783581
v -0.164818 0.321537 0.0786735
v -0.169097 0.32022 0.0704855
v -0.163757 0.327314 0.0664735
v -0.147388 0.341688 0.0666741
v -0.149129 0.335851 0.0789324
v -0.14424 0.336037 0.0872279
v -0.139087 0.336022 0.0954403
v -0.18896 0.308511 -0.0463169
v -0.194498 0.302426 -0.0413133
v -0.180224 0.315534 -0.0645767
v -0.1331 0.342432 0.0914888
v -0.138178 0.342493 0.0834128
v -0.131646 0.348503 0.0793789
v -0.136343 0.348154 0.0709164
v -0.14104 0.347804 0.0624539
v -0.14291 0.342194 0.0749696
v -0.162338 0.332493 0.054024
v -0.16644 0.330645 0.045658
v -0.156589 0.339282 0.0498143
v -0.174375 0.325741 0.0289712
v -0.178099 0.322774 0.0207586
v -0.181823 0.319806 0.0125461
v -0.176333 0.326306 0.00783403
v -0.170524 0.332414 0.00308554
v -0.174062 0.328948 -0.00524737
v -0.1776 0.325483 -0.0135803
v -0.164727 0.338458 -0.0017369
v -0.168326 0.335046 -0.0100987
v -0.154583 0.347113 0.00184546
v -0.158584 0.34411 -0.00660597
v -0.162292 0.340772 -0.0150229
v -0.155888 0.346087 -0.0199654
v -0.165692 0.337058 -0.0233727
v -0.168962 0.333183 -0.031694
v -0.172237 0.329291 -0.0400275
v -0.171805 0.331472 -0.0184502
v -0.175058 0.327593 -0.0267822
v -0.178183 0.323541 -0.0350481
v -0.180928 0.319098 -0.0432178
v -0.145589 0.346599 0.0539474
v -0.149982 0.344868 0.0454181
v -0.154374 0.343137 0.0368889
v -0.112511 0.35926 0.0780948
v -0.177593 0.320144 -0.0564016
v -0.174962 0.324755 -0.0482265
v -0.119486 0.354147 0.0826409
v -0.124732 0.354363 0.0746366
v -0.118595 0.36714 0.035036
v -0.141826 0.354594 0.0275601
v -0.146227 0.35252 0.0189388
v -0.160913 0.341648 0.00665871
v -0.150432 0.349888 0.0103809
v -0.13248 0.361969 0.00929182
v -0.120906 0.368468 0.012894
v -0.149136 0.350891 -0.0249353
v -0.152722 0.347259 -0.0334022
v -0.159407 0.342432 -0.0283991
v -0.162787 0.338599 -0.0367698
v -0.156246 0.343566 -0.04184
v -0.165215 0.330643 -0.0667672
v -0.167758 0.325839 -0.0749451
v -0.195693 0.293927 -0.0698675
v -0.192191 0.29403 -0.0828699
f 166 11 135 1
f 135 136 116 1
f 116 115 53 1
f 53 165 166 1
f 137 4 3 2
f 3 120 81 2
f 81 135 11 2
f 11 171 137 2
f 4 5 6 3
f 6 189 120 3
f 16 14 5 4
f 137 18 16 4
f 14 15 7 5
f 7 190 6 5
f 15 13 8 7
f 8 10 190 7
f 13 12 9 8
f 187 188 18 17
f 18 137 171 17
f 171 172 19 17
f 19 22 187 17
f 172 162 20 19
f 20 21 22 19
f 162 161 185 20
f 185 186 21 20
f 183 182 25 23
f 25 182 31 24
f 31 30 26 24
f 30 29 27 26
f 29 180 28 27
f 180 36 181 28
f 30 32 35 29
f 35 34 180 29
f 31 33 32 30
f 182 159 33 31
f 33 157 156 32
f 156 179 35 32
f 159 158 157 33
f 35 179 177 34
f 177 176 37 34
f 37 36 180 34
f 37 38 39 36
f 39 51 181 36
f 176 42 38 37
f 42 41 43 38
f 43 175 39 38
f 175 49 51 39
f 44 43 41 40
f 41 64 63 40
f 63 62 61 40
f 61 45 44 40
f 42 66 64 41
f 176 67 66 42
f 44 50 175 43
f 45 46 50 44
f 61 59 60 45
f 60 58 46 45
f 47 48 50 46
f 58 54 47 46
f 55 56 48 47
f 56 52 49 48
f 49 175 50 48
f 52 57 51 49
f 174 173 170 59
f 63 142 141 62
f 64 167 142 63
f 66 168 167 64
f 68 69 70 65
f 70 74 76 65
f 76 75 169 65
f 169 67 68 65
f 67 169 168 66
f 176 177 68 67
f 177 179 69 68
f 179 156 178 69
f 178 71 70 69
f 71 72 74 70
f 178 154 151 71
f 151 150 72 71
f 150 149 148 72
f 148 147 74 72
f 76 74 147 73
f 147 122 96 73
f 96 93 145 73
f 145 75 76 73
f 145 144 146 75
f 146 168 169 75
f 167 168 146 77
f 146 144 78 77
f 78 80 131 77
f 131 142 167 77
f 144 92 130 78
f 130 79 80 78
f 130 129 128 79
f 128 86 83 79
f 83 84 80 79
f 83 86 85 82
f 128 88 87 86
f 128 129 89 88
f 129 91 90 89
f 90 125 127 89
f 91 124 126 90
f 126 97 125 90
f 92 93 124 91
f 129 130 92 91
f 144 145 93 92
f 96 94 124 93
f 96 122 95 94
f 95 100 98 94
f 98 126 124 94
f 122 123 121 95
f 121 101 100 95
f 126 98 99 97
f 103 104 105 102
f 121 123 104 103
f 149 110 105 104
f 123 148 149 104
f 110 108 106 105
f 108 109 107 106
f 112 114 109 108
f 110 111 112 108
f 114 115 117 109
f 149 150 111 110
f 152 153 112 111
f 150 151 152 111
f 153 113 114 112
f 164 165 53 113
f 53 115 114 113
f 153 163 164 113
f 116 118 117 115
f 136 135 81 119
f 147 148 123 122
f 143 141 142 131
f 133 139 143 132
f 134 138 139 133
f 140 141 143 139
f 154 155 152 151
f 155 163 153 152
f 157 158 155 154
f 178 156 157 154
f 158 160 163 155
f 159 184 160 158
f 182 183 184 159
f 184 185 161 160
f 161 164 163 160
f 162 165 164 161
f 172 166 165 162
f 172 171 11 166
f 186 185 184 183
