v 0.173428 -0.0613898 0.0925781
v 0.175621 -0.0544241 0.0931341
v 0.167327 -0.0673121 0.0914787
v 0.16012 -0.072418 0.090697
v 0.164788 -0.078847 0.0867002
v 0.178288 -0.0651922 0.0881475
v 0.171707 -0.0725225 0.0870733
v 0.183917 -0.0567126 0.0894804
v 0.189992 0.0539277 0.117067
v 0.18966 -0.0394255 0.0946298
v 0.202973 -0.00576495 0.0987257
v 0.205104 0.0113254 0.103313
v 0.204202 0.00276808 0.101038
v 0.205978 0.0198937 0.105549
v 0.206313 0.0459238 0.112371
v 0.206277 0.0372481 0.110015
v 0.206242 0.0285725 0.107659
v 0.206216 0.054482 0.114829
v 0.204963 0.0798094 0.122002
v 0.205392 0.0713656 0.11962
v 0.20582 0.0629218 0.117238
v 0.189643 0.061991 0.12049
v 0.196715 0.0957858 0.131946
v 0.197072 0.0873776 0.129444
v 0.197348 0.0789915 0.126519
v 0.197624 0.0706053 0.123593
v 0.1979 0.0622191 0.120667
v 0.188387 0.0863071 0.130793
v 0.188686 0.0780395 0.127645
v 0.188208 0.0946865 0.133623
v 0.180635 0.0951345 0.129481
v 0.18064 0.0867658 0.126767
v 0.189254 0.0700296 0.123951
v 0.181552 0.0789658 0.122656
v 0.190379 0.0458818 0.11361
v 0.190885 0.0379086 0.110028
v 0.190799 0.0297261 0.106959
v 0.190446 0.0214384 0.104199
v 0.189872 0.0130636 0.101699
v 0.189285 0.00468801 0.0992177
v 0.187788 -0.00373862 0.0980432
v 0.196056 0.00307997 0.103903
v 0.195177 -0.00534666 0.101924
v 0.197528 0.0200761 0.108148
v 0.198267 0.0285926 0.11034
v 0.198498 0.0369513 0.113073
v 0.198367 0.0453361 0.115807
v 0.198172 0.0537885 0.118311
v 0.196791 0.011557 0.105959
v 0.19127 -0.0308345 0.0966459
v 0.19272 -0.0222943 0.0983762
v 0.183093 -0.0292171 0.0950588
v 0.181077 -0.0376877 0.0947561
v 0.184843 -0.0207047 0.0958074
v 0.186433 -0.012191 0.0967836
v 0.194057 -0.0138016 0.100065
f 7 3 4 5
f 1 3 7 6
f 8 2 1 6
f 50 52 53 10
f 13 42 43 11
f 49 42 13 12
f 14 44 49 12
f 17 45 44 14
f 47 46 16 15
f 18 48 47 15
f 46 45 17 16
f 21 27 48 18
f 25 26 20 19
f 26 27 21 20
f 30 28 24 23
f 28 29 25 24
f 29 33 26 25
f 33 22 27 26
f 22 9 48 27
f 32 34 29 28
f 30 31 32 28
f 36 46 47 35
f 47 48 9 35
f 37 45 46 36
f 38 44 45 37
f 39 49 44 38
f 40 42 49 39
f 41 43 42 40
f 55 56 43 41
f 51 54 52 50
f 56 55 54 51
