v 0.237316 -0.0183731 -0.0580443
v 0.241422 -0.0169645 -0.0589273
v 0.245518 -0.0154792 -0.0597482
v 0.251802 -0.00818948 -0.0629937
v 0.243711 -0.0118896 -0.0619396
v 0.247756 -0.0100416 -0.0624684
v 0.249963 -0.0043264 -0.0649523
v 0.25397 -0.00218704 -0.0649637
v 0.257969 1.94156e-05 -0.0648559
v 0.252197 0.00184514 -0.0667047
v 0.256174 0.00400845 -0.0666484
v 0.26015 0.00617175 -0.0665922
v 0.258465 0.0103623 -0.0681205
v 0.262573 0.0124683 -0.0674063
v 0.260957 0.0166311 -0.0684043
v 0.265073 0.018732 -0.0677505
v 0.25682 0.0145682 -0.0688935
v 0.252668 0.01269 -0.0689231
v 0.255117 0.0188987 -0.0691282
v 0.250991 0.0170067 -0.0692133
v 0.253432 0.0232235 -0.0693977
v 0.251697 0.0274982 -0.0692943
v 0.255779 0.0294128 -0.06891
v 0.259862 0.0313274 -0.0685257
v 0.257959 0.0355669 -0.067832
v 0.26204 0.037486 -0.0673959
v 0.269801 0.0312163 -0.0662313
v 0.263926 0.0332992 -0.0676012
v 0.267972 0.0353178 -0.0662836
v 0.261624 0.0270754 -0.0684374
v 0.265716 0.0291498 -0.0673507
v 0.263376 0.0228903 -0.0680447
v 0.267454 0.0249761 -0.0670229
v 0.271396 0.0270466 -0.06548
v 0.273639 0.0331514 -0.0642569
v 0.275716 0.0390989 -0.0624596
v 0.277508 0.0448818 -0.0601873
v 0.28076 0.0465208 -0.0572139
v 0.278895 0.050439 -0.0573489
v 0.281987 0.051994 -0.0541201
v 0.285368 0.0439973 -0.0532892
v 0.283836 0.0480879 -0.0539367
v 0.280887 0.0369208 -0.0594039
v 0.282183 0.0330169 -0.0584878
v 0.283985 0.0385586 -0.0560443
v 0.285136 0.0344751 -0.0550578
v 0.286436 0.0397155 -0.0523307
v 0.287105 0.0354231 -0.0509768
v 0.28602 0.026099 -0.0518926
v 0.284233 0.017056 -0.0512721
v 0.280213 0.0082371 -0.0527391
v 0.28241 0.012645 -0.0516984
v 0.277873 0.00441498 -0.0543831
v 0.276875 0.00753655 -0.0576914
v 0.279496 0.0101107 -0.0560763
v 0.27623 0.0111018 -0.0602107
v 0.279017 0.0136924 -0.0584031
v 0.278705 0.0172907 -0.0605374
v 0.272964 0.00870454 -0.061794
v 0.267783 0.0105546 -0.0647585
v 0.271505 0.0127674 -0.0633893
v 0.275226 0.0149801 -0.06202
v 0.265618 0.00437981 -0.0643174
v 0.26927 0.00652019 -0.0631026
v 0.26186 0.00214724 -0.0647726
v 0.259683 -0.00395366 -0.0629888
v 0.263431 -0.00175457 -0.0625848
v 0.267179 0.000444523 -0.0621807
v 0.257621 -0.00970676 -0.0607526
v 0.261384 -0.007462 -0.0603319
v 0.265148 -0.00521723 -0.0599112
v 0.255818 -0.00613609 -0.0631881
v 0.266439 -0.00775572 -0.0564252
v 0.259063 -0.0125574 -0.0574265
v 0.262711 -0.0100821 -0.0569108
v 0.255329 -0.0149194 -0.0577711
v 0.252584 -0.0190109 -0.0538436
v 0.25127 -0.016812 -0.0574696
v 0.253943 -0.0213145 -0.0502627
v 0.24465 -0.0232134 -0.0533422
v 0.248597 -0.0210653 -0.0535727
v 0.247196 -0.0186679 -0.0571133
v 0.245992 -0.0251794 -0.0495286
v 0.249976 -0.0233034 -0.0499314
v 0.241954 -0.0268629 -0.048961
v 0.236267 -0.0257983 -0.051524
v 0.237722 -0.0278568 -0.047838
v 0.282117 0.0126848 -0.0544611
v 0.238925 -0.021681 -0.0555154
v 0.257803 -0.0191622 -0.0502109
v 0.25662 -0.0171328 -0.0540969
v 0.260315 -0.0148108 -0.0536695
v 0.264009 -0.0124888 -0.0532422
v 0.268665 -0.0027798 -0.0590787
v 0.2719 -0.00061954 -0.0578371
v 0.275003 0.00167944 -0.05625
v 0.269927 -0.0055818 -0.0555796
v 0.281937 0.0159909 -0.0560302
v 0.281629 0.0193276 -0.0575101
v 0.281142 0.0232007 -0.0591524
v 0.283999 0.02509 -0.0558522
v 0.277828 0.0211319 -0.0619145
v 0.270401 0.0167105 -0.0651852
v 0.274231 0.0188553 -0.0635707
v 0.26898 0.0208366 -0.0662514
v 0.272807 0.0229649 -0.0645687
v 0.276634 0.0250931 -0.062886
v 0.284432 0.0213266 -0.0542283
v 0.270626 0.00273211 -0.0609154
v 0.273984 0.00505442 -0.0593049
v 0.272967 -0.00302163 -0.0538625
v 0.283515 0.0291811 -0.0576281
v 0.285833 0.0304834 -0.0535849
v 0.280159 0.027169 -0.0604124
v 0.278942 0.031233 -0.0616437
v 0.279407 0.0409728 -0.060098
v 0.27998 0.0558553 -0.0538809
v 0.276798 0.0543026 -0.0567384
v 0.282631 0.0425863 -0.0569268
v 0.275492 0.0487414 -0.059972
v 0.269999 0.0412381 -0.0644664
v 0.271825 0.0469431 -0.0620921
v 0.273892 0.0431017 -0.0626199
v 0.277409 0.0351249 -0.0621356
v 0.275217 0.0291261 -0.0636165
v 0.271915 0.0372252 -0.0645854
v 0.266099 0.0394624 -0.0661487
v 0.267925 0.0451746 -0.0637671
v 0.26411 0.0434858 -0.0656117
v 0.270008 0.0508477 -0.0614803
v 0.272036 0.0560308 -0.0582699
v 0.266191 0.0493493 -0.0635241
v 0.268232 0.0545345 -0.0603528
v 0.266421 0.0585011 -0.0592984
v 0.270274 0.0597301 -0.0571915
v 0.264354 0.053197 -0.0623144
v 0.258458 0.0555553 -0.0623702
v 0.262454 0.0570573 -0.0609024
v 0.260353 0.0516776 -0.0637526
v 0.2541 0.0441298 -0.0665888
v 0.258161 0.0459092 -0.0657201
v 0.250037 0.0423446 -0.0674164
v 0.240127 0.0428298 -0.0666249
v 0.245977 0.0405376 -0.0678938
v 0.232041 0.0392591 -0.0659425
v 0.236084 0.0410442 -0.066289
v 0.241745 0.0387484 -0.0675142
v 0.238983 0.032919 -0.0680515
v 0.233167 0.0351744 -0.0667455
v 0.237438 0.0369598 -0.067125
v 0.243271 0.0346802 -0.0683587
v 0.247573 0.0364337 -0.0686063
v 0.251824 0.038191 -0.0681196
v 0.256012 0.0399553 -0.06749
v 0.230482 0.0428837 -0.0638958
v 0.234476 0.0447579 -0.0644661
v 0.228954 0.0464525 -0.0617091
v 0.232948 0.0483267 -0.0622794
v 0.240486 -0.0246106 -0.0524919
v 0.234706 -0.0226466 -0.0542662
v 0.243089 -0.0202723 -0.0563986
v 0.253595 -0.0116748 -0.0605172
v 0.249559 -0.0135985 -0.0602333
v 0.244163 0.0446325 -0.0665598
v 0.242284 0.0485267 -0.0650646
v 0.23824 0.0466914 -0.0652333
v 0.236317 0.0503246 -0.0637293
v 0.232319 0.0482977 -0.063559
v 0.230745 0.051877 -0.0614341
v 0.229335 0.0554432 -0.0590271
v 0.227924 0.0590094 -0.0566201
v 0.226514 0.0625757 -0.054213
v 0.225104 0.0661419 -0.051806
v 0.234779 0.0538927 -0.0615121
v 0.238503 0.0558091 -0.0617773
v 0.233326 0.0574454 -0.0591306
v 0.23705 0.0593618 -0.0593959
v 0.231874 0.0609981 -0.0567491
v 0.230421 0.0645508 -0.0543677
v 0.23551 0.0627823 -0.0568096
v 0.238978 0.0643131 -0.0564776
v 0.233955 0.0661801 -0.0541883
v 0.237423 0.0677109 -0.0538563
v 0.240891 0.0692418 -0.0535243
v 0.228931 0.0680471 -0.0518989
v 0.232399 0.069578 -0.051567
v 0.235867 0.0711088 -0.051235
v 0.239336 0.0726396 -0.050903
v 0.254465 0.0082437 -0.0680999
v 0.240605 0.0610105 -0.05911
v 0.24271 0.0661974 -0.0561869
v 0.244609 0.0629539 -0.058532
v 0.244411 0.0540158 -0.0631989
v 0.242512 0.0576418 -0.0613007
v 0.246545 0.0594482 -0.0605354
v 0.250578 0.0612546 -0.05977
v 0.248449 0.0558115 -0.0624209
v 0.252501 0.0575755 -0.0616053
v 0.254607 0.0628737 -0.0586409
v 0.256538 0.059241 -0.0605576
v 0.258621 0.0644919 -0.0573877
v 0.256653 0.0679769 -0.0552259
v 0.262575 0.0658674 -0.0556903
v 0.260602 0.0693724 -0.0535853
v 0.264525 0.0622709 -0.0576783
v 0.266528 0.0671984 -0.0539086
v 0.268436 0.0635877 -0.0558168
v 0.272252 0.0647454 -0.0537218
v 0.27028 0.0681341 -0.0516531
v 0.271821 0.0718686 -0.0467987
v 0.273987 0.0609783 -0.054987
v 0.268312 0.0715315 -0.0495806
v 0.266268 0.0747065 -0.0471561
v 0.269846 0.0752122 -0.0446418
v 0.264091 0.0775922 -0.0444361
v 0.26252 0.0739213 -0.0494073
v 0.260362 0.0768394 -0.0467295
v 0.258107 0.0795086 -0.0438611
v 0.254291 0.0785535 -0.0458045
v 0.252619 0.0743288 -0.0501884
v 0.256508 0.0756776 -0.0485325
v 0.248765 0.0729079 -0.0517356
v 0.246664 0.0756412 -0.0487276
v 0.250457 0.0771912 -0.047375
v 0.254665 0.071207 -0.052755
v 0.258583 0.0725867 -0.0511198
v 0.24286 0.0740149 -0.0500304
v 0.248189 0.0792777 -0.0440789
v 0.252031 0.0808212 -0.0426161
v 0.249676 0.0829969 -0.0395901
v 0.253436 0.0840672 -0.0377128
v 0.259499 0.0826077 -0.0385597
v 0.265419 0.080655 -0.0390485
v 0.26189 0.0804331 -0.0416918
v 0.255842 0.0821401 -0.0409641
v 0.267703 0.0781405 -0.041968
v 0.26455 0.0706852 -0.0517979
v 0.252674 0.0664538 -0.0566566
v 0.250721 0.0697231 -0.0542391
v 0.248643 0.064753 -0.057741
v 0.24669 0.0680595 -0.05535
v 0.244828 0.0711653 -0.0528261
v 0.240356 0.0522195 -0.0636227
v 0.248191 0.0463921 -0.0662852
v 0.246306 0.0502797 -0.0648879
v 0.250363 0.0520718 -0.0641317
v 0.254421 0.0538638 -0.0633756
v 0.260119 0.0417327 -0.0667365
v 0.262225 0.0476898 -0.0648721
v 0.252248 0.048168 -0.0655331
v 0.256306 0.0499401 -0.0647818
v 0.26056 0.0608873 -0.059348
v 0.259294 0.0208333 -0.0690606
v 0.257561 0.0251355 -0.069215
v 0.264107 0.0083189 -0.0661789
v 0.266555 0.0145824 -0.0664664
f 2 161 89 1
f 3 82 161 2
f 5 6 163 3
f 163 78 82 3
f 7 8 72 4
f 72 69 162 4
f 162 163 6 4
f 10 11 9 8
f 9 66 72 8
f 11 12 65 9
f 65 67 66 9
f 189 13 12 11
f 13 14 255 12
f 255 63 65 12
f 17 15 14 13
f 189 18 17 13
f 15 16 256 14
f 256 60 255 14
f 253 32 16 15
f 17 19 253 15
f 32 33 105 16
f 105 103 256 16
f 18 20 19 17
f 21 254 253 19
f 22 23 254 21
f 24 30 254 23
f 25 26 28 24
f 28 31 30 24
f 127 29 28 26
f 29 126 35 27
f 35 125 34 27
f 34 33 31 27
f 31 28 29 27
f 127 121 126 29
f 31 33 32 30
f 32 253 254 30
f 34 106 105 33
f 125 107 106 34
f 126 36 124 35
f 124 115 125 35
f 123 37 116 36
f 116 43 124 36
f 126 121 123 36
f 120 39 38 37
f 38 119 116 37
f 123 122 120 37
f 39 40 42 38
f 42 41 119 38
f 118 117 40 39
f 47 45 119 41
f 116 119 45 43
f 45 46 44 43
f 44 115 124 43
f 46 113 112 44
f 112 114 115 44
f 47 48 46 45
f 101 112 113 49
f 98 99 108 50
f 55 88 52 51
f 53 54 55 51
f 96 110 54 53
f 56 57 55 54
f 110 59 56 54
f 57 98 88 55
f 62 58 57 56
f 59 61 62 56
f 58 99 98 57
f 102 100 99 58
f 62 104 102 58
f 110 109 64 59
f 64 60 61 59
f 256 103 61 60
f 64 63 255 60
f 103 104 62 61
f 64 109 68 63
f 68 67 65 63
f 67 71 70 66
f 70 69 72 66
f 68 94 71 67
f 109 95 94 68
f 70 75 74 69
f 74 76 162 69
f 71 73 75 70
f 94 97 73 71
f 75 93 92 74
f 92 91 76 74
f 91 77 78 76
f 78 163 162 76
f 91 90 79 77
f 79 84 81 77
f 81 82 78 77
f 161 82 81 80
f 81 84 83 80
f 83 85 159 80
f 159 89 161 80
f 87 86 159 85
f 160 89 159 86
f 95 111 97 94
f 109 110 96 95
f 100 101 108 99
f 114 112 101 100
f 102 107 114 100
f 104 106 107 102
f 105 106 104 103
f 125 115 114 107
f 128 122 123 121
f 127 129 128 121
f 128 132 130 122
f 129 249 132 128
f 248 141 249 129
f 132 136 133 130
f 133 134 135 131
f 249 139 136 132
f 136 138 134 133
f 205 207 135 134
f 138 252 205 134
f 207 208 211 135
f 139 137 138 136
f 200 252 138 137
f 139 251 247 137
f 247 198 200 137
f 249 141 251 139
f 250 251 141 140
f 141 248 154 140
f 154 153 142 140
f 142 244 250 140
f 153 152 144 142
f 144 164 244 142
f 166 165 164 143
f 164 144 147 143
f 147 150 146 143
f 152 151 147 144
f 155 156 146 145
f 146 150 149 145
f 151 148 150 147
f 157 158 156 155
f 165 245 244 164
f 243 193 245 165
f 166 167 243 165
f 174 175 243 167
f 168 169 174 167
f 170 176 174 169
f 171 178 176 170
f 172 179 178 171
f 173 185 179 172
f 176 177 175 174
f 177 190 194 175
f 194 193 243 175
f 178 180 177 176
f 180 181 190 177
f 179 182 180 178
f 185 186 182 179
f 182 183 181 180
f 183 184 191 181
f 191 192 190 181
f 186 187 183 182
f 187 188 184 183
f 242 241 191 184
f 192 195 194 190
f 241 240 192 191
f 240 196 195 192
f 194 195 197 193
f 197 246 245 193
f 196 198 197 195
f 240 238 199 196
f 199 200 198 196
f 198 247 246 197
f 238 202 201 199
f 201 252 200 199
f 202 204 203 201
f 203 205 252 201
f 225 226 204 202
f 238 239 225 202
f 204 237 206 203
f 206 207 205 203
f 226 216 237 204
f 237 212 209 206
f 209 208 207 206
f 212 213 214 210
f 237 216 213 212
f 215 236 214 213
f 216 217 215 213
f 234 233 236 215
f 217 218 234 215
f 226 221 217 216
f 221 219 218 217
f 235 232 234 218
f 219 229 235 218
f 221 220 224 219
f 224 228 229 219
f 221 226 225 220
f 225 239 222 220
f 222 223 224 220
f 239 241 242 222
f 242 227 223 222
f 230 231 235 229
f 240 241 239 238
f 245 246 250 244
f 247 251 250 246
