v -0.212348 -0.359796 -0.0294061
v -0.212713 -0.359437 -0.0334257
v -0.211615 -0.362988 -0.037919
v -0.210996 -0.360209 -0.0212951
v -0.211707 -0.36002 -0.0253546
v -0.207993 -0.36375 -0.0178259
v -0.208995 -0.363729 -0.0218826
v -0.192694 -0.379264 -0.0129018
v -0.202213 -0.370326 -0.014987
v -0.199164 -0.373156 -0.0156667
v -0.205634 -0.367049 -0.0184315
v -0.202586 -0.369878 -0.0191112
v -0.196078 -0.375939 -0.0163568
v -0.199414 -0.372552 -0.0198255
v -0.205976 -0.36656 -0.0225647
v -0.202749 -0.369166 -0.0232941
v -0.192717 -0.378344 -0.0170744
v -0.19612 -0.375058 -0.0205489
v -0.192522 -0.377109 -0.0212454
v -0.189288 -0.381598 -0.013466
v -0.185615 -0.383559 -0.0137862
v -0.189081 -0.380349 -0.0175802
v -0.185408 -0.38231 -0.0179004
v -0.188874 -0.3791 -0.0216943
v -0.18182 -0.385325 -0.014111
v -0.178005 -0.387062 -0.0144364
v -0.184914 -0.383225 -0.00971397
v -0.181154 -0.385089 -0.010035
v -0.177394 -0.386954 -0.010356
v -0.199523 -0.371772 -0.0240235
v -0.210739 -0.363758 -0.0298633
v -0.211208 -0.363362 -0.0338947
v -0.209384 -0.367402 -0.0343276
v -0.209808 -0.366977 -0.038372
v -0.209713 -0.366322 -0.0425158
v -0.209068 -0.365807 -0.0465703
v -0.208423 -0.365292 -0.0506248
v -0.207778 -0.364778 -0.0546793
v -0.207133 -0.364263 -0.0587337
v -0.210381 -0.361618 -0.05007
v -0.209764 -0.361112 -0.054131
v -0.209147 -0.360606 -0.058192
v -0.208529 -0.3601 -0.0622531
v -0.207455 -0.359803 -0.0658973
v -0.209804 -0.352821 -0.065883
v -0.208715 -0.356277 -0.0658215
v -0.210424 -0.34897 -0.0660059
v -0.211019 -0.340963 -0.0662776
v -0.210848 -0.345019 -0.0661465
v -0.211871 -0.328298 -0.0623493
v -0.210983 -0.336863 -0.0663557
v -0.213375 -0.336454 -0.0581313
v -0.21199 -0.332419 -0.062292
v -0.212119 -0.336558 -0.062236
v -0.212249 -0.340697 -0.06218
v -0.213488 -0.34059 -0.0580728
v -0.213274 -0.344692 -0.0579642
v -0.212292 -0.344826 -0.0621109
v -0.214588 -0.344832 -0.0496207
v -0.213988 -0.344766 -0.0538011
v -0.213677 -0.348915 -0.0536903
v -0.212819 -0.348772 -0.0578386
v -0.212132 -0.352796 -0.057708
v -0.214775 -0.349539 -0.0415099
v -0.214527 -0.349313 -0.0455484
v -0.214278 -0.349088 -0.049587
v -0.212853 -0.353068 -0.0536128
v -0.215056 -0.349813 -0.0375371
v -0.213682 -0.35387 -0.0416673
v -0.212593 -0.358209 -0.041833
v -0.211504 -0.362547 -0.0419988
v -0.213397 -0.35359 -0.0456317
v -0.212308 -0.357928 -0.0457974
v -0.213113 -0.35331 -0.049596
v -0.212023 -0.357648 -0.0497618
v -0.213771 -0.354104 -0.0336121
v -0.21391 -0.354113 -0.0376881
v -0.212765 -0.358412 -0.0378391
v -0.214487 -0.350257 -0.0295206
v -0.214808 -0.349976 -0.0335117
v -0.214628 -0.346386 -0.0254896
v -0.213884 -0.342556 -0.0173523
v -0.211704 -0.343194 -0.00953594
v -0.212793 -0.342872 -0.0134453
v -0.212158 -0.334683 -0.0124871
v -0.212585 -0.338871 -0.0129161
v -0.213565 -0.338456 -0.0168758
v -0.210896 -0.335238 -0.00860759
v -0.209051 -0.336081 -0.00496955
v -0.206785 -0.337035 -0.00171232
v -0.203296 -0.334017 0.00185174
v -0.205692 -0.333035 -0.00139084
v -0.202138 -0.330029 0.00219953
v -0.204711 -0.328982 -0.000984067
v -0.207169 -0.327965 -0.00428092
v -0.208165 -0.332024 -0.00461261
v -0.203388 -0.324992 -0.000825541
v -0.197694 -0.318214 0.00235046
v -0.199419 -0.322064 0.00251318
v -0.200407 -0.317115 -0.000765533
v -0.201788 -0.321094 -0.000884852
v -0.204543 -0.319979 -0.0039668
v -0.205924 -0.323958 -0.00408612
v -0.209042 -0.327151 -0.00801099
v -0.207696 -0.323164 -0.0078687
v -0.205134 -0.315145 -0.0075323
v -0.206384 -0.319166 -0.00771716
v -0.207195 -0.314247 -0.0111841
v -0.208445 -0.318268 -0.011369
v -0.209696 -0.322289 -0.0115538
v -0.207489 -0.309478 -0.0148919
v -0.206475 -0.305392 -0.0145546
v -0.210819 -0.326349 -0.0118015
v -0.208638 -0.313537 -0.0151398
v -0.20987 -0.31758 -0.0153648
v -0.211102 -0.321622 -0.0155898
v -0.208921 -0.308811 -0.0189281
v -0.210153 -0.312853 -0.0191531
v -0.211385 -0.316896 -0.0193781
v -0.212014 -0.325759 -0.0158581
v -0.212234 -0.321052 -0.019655
v -0.212969 -0.325241 -0.0199472
v -0.213704 -0.32943 -0.0202394
v -0.213216 -0.320529 -0.023766
v -0.212346 -0.316385 -0.0234979
v -0.213645 -0.320201 -0.0280238
v -0.214944 -0.324017 -0.0325496
v -0.212148 -0.311873 -0.0276575
v -0.212888 -0.316039 -0.0278384
v -0.211978 -0.307354 -0.0318247
v -0.212719 -0.31152 -0.0320056
v -0.213459 -0.315686 -0.0321866
v -0.214199 -0.319852 -0.0323675
v -0.212356 -0.30712 -0.0362064
v -0.21307 -0.311302 -0.0363919
v -0.213758 -0.315492 -0.0365749
v -0.214403 -0.319692 -0.0367541
v -0.213146 -0.311202 -0.0407855
v -0.213776 -0.315397 -0.0409547
v -0.214348 -0.319575 -0.0410851
v -0.214951 -0.323876 -0.0368779
v -0.214836 -0.323772 -0.0411896
v -0.215177 -0.328005 -0.0412476
v -0.215282 -0.328116 -0.0369523
v -0.215497 -0.332252 -0.0413394
v -0.215553 -0.332409 -0.037112
v -0.214897 -0.328636 -0.028564
v -0.215258 -0.328313 -0.0327394
v -0.215495 -0.332628 -0.0329082
v -0.214754 -0.333282 -0.0246615
v -0.214955 -0.337611 -0.0250121
v -0.215134 -0.332952 -0.028738
v -0.215335 -0.33728 -0.0290886
v -0.215671 -0.336979 -0.0331269
v -0.214886 -0.341993 -0.0252595
v -0.215185 -0.341701 -0.0292815
v -0.215483 -0.341409 -0.0333035
v -0.215265 -0.345759 -0.0333967
v -0.215391 -0.345469 -0.0374191
v -0.215517 -0.345179 -0.0414414
v -0.215622 -0.341104 -0.0373105
v -0.21568 -0.336707 -0.0371787
v -0.215599 -0.340805 -0.0413275
v -0.215573 -0.336518 -0.0413394
v -0.215307 -0.336421 -0.0455496
v -0.215347 -0.340684 -0.0455164
v -0.214777 -0.336388 -0.0497514
v -0.214817 -0.34065 -0.0497181
v -0.215265 -0.332179 -0.0455849
v -0.214731 -0.332177 -0.0497902
v -0.214245 -0.336375 -0.0539554
v -0.214675 -0.323685 -0.0454911
v -0.214977 -0.327933 -0.0455406
v -0.214548 -0.327951 -0.0497824
v -0.214201 -0.323728 -0.0497563
v -0.213789 -0.319493 -0.0497286
v -0.213161 -0.319584 -0.0539855
v -0.212263 -0.319766 -0.0581842
v -0.210264 -0.307215 -0.0578459
v -0.210986 -0.311387 -0.0579756
v -0.211707 -0.315558 -0.0581054
v -0.209699 -0.311686 -0.0620881
v -0.210412 -0.315853 -0.062207
v -0.211125 -0.32002 -0.0623258
v -0.210149 -0.324562 -0.0664012
v -0.211717 -0.324188 -0.0623915
v -0.210523 -0.328672 -0.0663765
v -0.209659 -0.303025 -0.0577544
v -0.212448 -0.311103 -0.0539622
v -0.212714 -0.315351 -0.053944
v -0.213076 -0.311133 -0.0451786
v -0.212435 -0.306885 -0.0495683
v -0.212816 -0.311103 -0.0495886
v -0.213197 -0.315321 -0.049609
v -0.211794 -0.302638 -0.0539579
v -0.212175 -0.306856 -0.0539782
v -0.213549 -0.323834 -0.0540084
v -0.212697 -0.324002 -0.0582231
v -0.213632 -0.315309 -0.0452826
v -0.214244 -0.319472 -0.0454138
v -0.212488 -0.306947 -0.0451235
v -0.211593 -0.302955 -0.0360434
v -0.211656 -0.302874 -0.0405261
v -0.212472 -0.307019 -0.0406653
v -0.21172 -0.302792 -0.0450089
v -0.211783 -0.302711 -0.0494917
v -0.213899 -0.324736 -0.0240683
v -0.21452 -0.328964 -0.0243819
v -0.214428 -0.324374 -0.0283077
v -0.20764 -0.30479 -0.0187424
v -0.20879 -0.30427 -0.0230466
v -0.210135 -0.308262 -0.0231817
v -0.21148 -0.312254 -0.0233168
v -0.209941 -0.30375 -0.0273507
v -0.211285 -0.307742 -0.0274859
v -0.211091 -0.30323 -0.0316549
v -0.204021 -0.311086 -0.00725448
v -0.205416 -0.306006 -0.0103272
v -0.206229 -0.310148 -0.0108075
v -0.195468 -0.305523 -0.00122497
v -0.198448 -0.304326 -0.00415199
v -0.200055 -0.308201 -0.00398814
v -0.201428 -0.303128 -0.007079
v -0.203035 -0.307003 -0.00691515
v -0.19449 -0.310443 0.00215596
v -0.19719 -0.309354 -0.000976681
v -0.2017 -0.312061 -0.00379625
v -0.196274 -0.314253 0.00244017
v -0.19899 -0.313155 -0.000675105
v -0.189564 -0.307939 0.00435217
v -0.191549 -0.31165 0.00492605
v -0.192643 -0.306665 0.00178659
v -0.186345 -0.30928 0.00674726
v -0.18826 -0.313024 0.00723718
v -0.186771 -0.318189 0.00987015
v -0.190082 -0.316806 0.0075915
v -0.19158 -0.320723 0.0074723
v -0.193077 -0.324639 0.00735311
v -0.193393 -0.315423 0.00531285
v -0.183114 -0.31969 0.0113908
v -0.188151 -0.322146 0.00949255
v -0.194884 -0.319349 0.00519773
v -0.196357 -0.323295 0.00509201
v -0.19783 -0.327241 0.00498628
v -0.177897 -0.3173 0.0129438
v -0.181429 -0.315851 0.0112354
v -0.182865 -0.310714 0.00858463
v -0.184961 -0.314401 0.00952701
v -0.175855 -0.313709 0.0121089
v -0.179357 -0.312206 0.010341
v -0.20317 -0.316004 -0.00383611
v -0.200853 -0.326028 0.00240489
v -0.198909 -0.331276 0.00450373
v -0.210183 -0.331173 -0.00825597
v -0.211734 -0.330481 -0.0120722
v -0.212739 -0.329951 -0.0161521
v -0.21315 -0.334213 -0.0165039
v -0.214155 -0.333683 -0.0205838
v -0.214565 -0.337945 -0.0209356
v -0.209504 -0.340095 -0.00544901
v -0.211409 -0.339253 -0.00904035
v -0.214704 -0.342286 -0.0212413
v -0.215139 -0.346077 -0.029416
v -0.214349 -0.346676 -0.0214956
v -0.213075 -0.346828 -0.017605
v -0.213612 -0.350437 -0.0255756
v -0.215247 -0.344924 -0.0454665
v -0.214253 -0.340603 -0.0539104
v -0.213875 -0.328059 -0.0540215
v -0.214113 -0.332201 -0.0539912
v -0.212965 -0.328172 -0.0582077
v -0.213204 -0.332314 -0.0581773
v -0.210798 -0.33277 -0.0663664
v -0.211797 -0.348733 -0.0619781
v -0.211257 -0.352609 -0.0618415
v -0.210357 -0.356423 -0.0618523
v -0.210988 -0.362115 -0.0460156
v -0.211642 -0.357304 -0.053748
v -0.211079 -0.356841 -0.0577757
v -0.207528 -0.370613 -0.0388808
v -0.207486 -0.369824 -0.0430302
v -0.204748 -0.373017 -0.0435854
v -0.201987 -0.3764 -0.0442479
v -0.204559 -0.371685 -0.0474486
v -0.201624 -0.374631 -0.0478878
v -0.205562 -0.37028 -0.0310231
v -0.19843 -0.376564 -0.0490219
v -0.198852 -0.379322 -0.0450175
v -0.204773 -0.373941 -0.039512
v -0.201132 -0.377423 -0.0358451
v -0.201729 -0.377075 -0.0400574
v -0.197819 -0.380109 -0.0364596
v -0.198391 -0.379777 -0.0406674
v -0.204403 -0.374521 -0.0352689
v -0.201174 -0.372731 -0.0277408
v -0.202825 -0.373691 -0.0314581
v -0.20012 -0.377269 -0.0318103
v -0.20718 -0.371073 -0.0348233
v -0.196262 -0.374269 -0.0246343
v -0.193 -0.376767 -0.025245
v -0.198004 -0.375601 -0.0283126
v -0.194742 -0.378098 -0.0289234
v -0.196484 -0.37943 -0.0326018
v -0.181937 -0.384537 -0.0181783
v -0.186116 -0.382272 -0.0218222
v -0.190296 -0.380007 -0.0254661
v -0.187805 -0.383533 -0.0255378
v -0.191985 -0.381268 -0.0291817
v -0.209572 -0.363443 -0.0259662
v -0.20676 -0.366476 -0.026589
v -0.203948 -0.369509 -0.0272119
v -0.208374 -0.367247 -0.0304003
f 2 32 31 1
f 31 309 5 1
f 34 33 32 3
f 5 309 7 4
f 7 15 11 6
f 309 310 15 7
f 17 22 20 8
f 12 14 10 9
f 14 18 13 10
f 15 16 12 11
f 16 30 14 12
f 18 19 17 13
f 30 299 18 14
f 310 311 16 15
f 311 295 30 16
f 19 24 22 17
f 299 300 19 18
f 300 306 24 19
f 22 23 21 20
f 23 304 25 21
f 25 28 27 21
f 24 305 23 22
f 306 307 305 24
f 26 29 28 25
f 32 33 312 31
f 312 310 309 31
f 34 280 298 33
f 298 286 312 33
f 35 281 280 34
f 71 277 36 35
f 277 40 37 36
f 40 41 38 37
f 41 42 39 38
f 277 73 75 40
f 75 278 41 40
f 278 279 42 41
f 279 276 43 42
f 276 46 44 43
f 46 276 275 45
f 275 274 47 45
f 274 58 49 47
f 49 58 55 48
f 55 54 51 48
f 187 273 53 50
f 53 272 271 50
f 271 198 186 50
f 186 185 187 50
f 54 53 273 51
f 54 55 56 52
f 56 268 171 52
f 171 270 272 52
f 272 53 54 52
f 58 57 56 55
f 57 60 268 56
f 58 274 62 57
f 62 61 60 57
f 60 61 66 59
f 66 65 267 59
f 267 166 168 59
f 168 268 60 59
f 62 63 67 61
f 67 74 66 61
f 274 275 63 62
f 275 276 279 63
f 279 278 67 63
f 65 72 69 64
f 69 77 68 64
f 68 159 160 64
f 160 267 65 64
f 66 74 72 65
f 278 75 74 67
f 77 76 80 68
f 80 158 159 68
f 72 73 70 69
f 70 78 77 69
f 73 277 71 70
f 74 75 73 72
f 266 81 263 79
f 263 158 80 79
f 264 262 155 81
f 155 156 263 81
f 262 264 265 82
f 84 86 87 82
f 87 259 262 82
f 261 86 84 83
f 257 87 86 85
f 86 261 88 85
f 88 254 255 85
f 255 256 257 85
f 257 258 259 87
f 261 260 89 88
f 89 96 254 88
f 90 92 96 89
f 93 94 92 91
f 94 95 96 92
f 253 244 252 93
f 252 97 94 93
f 97 103 95 94
f 104 254 96 95
f 103 105 104 95
f 252 99 101 97
f 101 102 103 97
f 100 101 99 98
f 99 243 242 98
f 242 239 228 98
f 228 229 100 98
f 252 244 243 99
f 251 102 101 100
f 229 227 251 100
f 107 105 103 102
f 251 106 107 102
f 113 255 254 104
f 105 110 113 104
f 107 109 110 105
f 108 109 107 106
f 251 227 217 106
f 217 219 108 106
f 114 115 109 108
f 219 111 114 108
f 115 116 110 109
f 116 120 113 110
f 117 118 114 111
f 219 218 112 111
f 112 210 117 111
f 120 256 255 113
f 118 119 115 114
f 119 121 116 115
f 121 122 120 116
f 212 213 118 117
f 210 211 212 117
f 213 125 119 118
f 125 124 121 119
f 122 123 256 120
f 124 207 122 121
f 207 208 123 122
f 208 150 258 123
f 258 257 256 123
f 126 209 207 124
f 125 129 126 124
f 213 128 129 125
f 133 127 209 126
f 129 132 133 126
f 141 144 148 127
f 148 147 209 127
f 133 137 141 127
f 131 132 129 128
f 213 212 215 128
f 215 130 131 128
f 134 135 131 130
f 215 214 216 130
f 216 202 134 130
f 135 136 132 131
f 136 137 133 132
f 204 138 135 134
f 202 203 204 134
f 138 139 136 135
f 139 140 137 136
f 140 142 141 137
f 191 199 139 138
f 204 201 191 138
f 199 200 140 139
f 200 172 142 140
f 142 143 144 141
f 172 173 143 142
f 173 169 145 143
f 145 146 144 143
f 146 149 148 144
f 169 165 164 145
f 164 162 146 145
f 162 154 149 146
f 148 149 152 147
f 152 150 208 147
f 208 207 209 147
f 154 153 152 149
f 152 153 151 150
f 151 259 258 150
f 153 156 155 151
f 155 262 259 151
f 154 157 156 153
f 162 161 157 154
f 157 158 263 156
f 161 159 158 157
f 161 163 160 159
f 163 166 267 160
f 162 164 163 161
f 164 165 166 163
f 167 168 166 165
f 169 170 167 165
f 171 268 168 167
f 170 270 171 167
f 173 174 170 169
f 174 269 270 170
f 175 174 173 172
f 200 176 175 172
f 175 197 269 174
f 176 177 197 175
f 200 199 194 176
f 194 190 177 176
f 178 198 197 177
f 190 181 178 177
f 184 186 198 178
f 181 183 184 178
f 180 189 196 179
f 196 195 188 179
f 182 183 181 180
f 181 190 189 180
f 190 194 193 189
f 193 192 196 189
f 193 194 199 191
f 201 192 193 191
f 201 205 206 192
f 206 195 196 192
f 198 271 269 197
f 204 203 205 201
f 214 215 212 211
f 227 222 224 217
f 224 218 219 217
f 221 222 226 220
f 226 225 232 220
f 223 224 222 221
f 227 229 226 222
f 226 229 228 225
f 228 239 231 225
f 231 230 232 225
f 231 234 233 230
f 239 236 234 231
f 234 248 247 233
f 236 235 248 234
f 236 237 241 235
f 240 246 248 235
f 239 242 237 236
f 242 243 238 237
f 249 250 246 245
f 250 247 248 246
f 271 272 270 269
f 281 282 289 280
f 289 294 298 280
f 284 285 283 282
f 283 291 289 282
f 285 287 288 283
f 288 293 291 283
f 291 290 294 289
f 291 293 292 290
f 292 303 297 290
f 297 296 294 290
f 296 286 298 294
f 296 297 301 295
f 301 299 30 295
f 311 286 296 295
f 303 302 301 297
f 301 302 300 299
f 302 308 306 300
f 312 286 311 310
