v -0.153772 0.113848 -0.219403
v -0.147082 0.129796 -0.224259
v -0.132321 0.12159 -0.232221
v -0.116928 0.11326 -0.238975
v -0.10104 0.104888 -0.24473
v -0.0771765 0.11366 -0.252358
v -0.0676546 0.0887478 -0.252569
v -0.0603935 0.105727 -0.255905
v -0.0358508 0.115024 -0.260218
v -0.0432805 0.0979007 -0.258229
v -0.0259287 0.0902741 -0.259221
v -0.0331032 0.0731799 -0.256148
v -0.0156077 0.0658247 -0.256017
v -0.0226475 0.0489367 -0.251654
v -0.0401466 0.0562416 -0.25185
v -0.0643576 0.0472795 -0.244922
v -0.0536832 0.0233718 -0.238457
v -0.0361643 0.0162651 -0.238276
v -0.0185163 0.00971276 -0.236939
v -0.000808721 0.00374961 -0.234362
v 0.0124349 0.0354278 -0.247994
v 0.0366457 0.0456943 -0.249185
v 0.0536501 0.039699 -0.244433
v 0.0638825 0.0185076 -0.233894
v 0.0575785 0.00336508 -0.227685
v 0.0515379 -0.0111947 -0.220147
v 0.0457309 -0.0249895 -0.211395
v 0.0401747 -0.0381158 -0.201531
v 0.0228331 -0.0343307 -0.207131
v 0.0284036 -0.0209307 -0.217311
v 0.0343947 -0.00672914 -0.226065
v 0.0168883 -0.00172454 -0.230666
v 0.010782 -0.0163859 -0.222021
v 0.00515429 -0.0301725 -0.211835
v -0.0180411 -0.0388578 -0.203955
v -0.0126794 -0.0255169 -0.215354
v -0.0305907 -0.0200519 -0.21769
v -0.0713725 -0.0211581 -0.207321
v -0.0586761 -0.0406826 -0.194487
v -0.0538132 -0.0277486 -0.20736
v -0.0359596 -0.0336123 -0.206108
v -0.0409225 -0.0463811 -0.193567
v -0.0453318 -0.0581855 -0.179979
v -0.0671175 -0.0638139 -0.166278
v -0.0630999 -0.0526795 -0.18071
v -0.0806117 -0.0462674 -0.180434
v -0.0762896 -0.0343197 -0.194509
v -0.0935814 -0.0270705 -0.193443
v -0.088626 -0.0138083 -0.206254
v -0.0978847 -0.0391829 -0.179381
v -0.101749 -0.0505071 -0.164581
v -0.0846668 -0.0577192 -0.16607
v -0.107691 -0.0713242 -0.133262
v -0.105024 -0.0611193 -0.149175
v -0.0909177 -0.0778761 -0.135001
v -0.0926228 -0.0869469 -0.118543
v -0.0931649 -0.0954146 -0.10194
v -0.0925061 -0.103347 -0.0853516
v -0.0422533 -0.11438 -0.0864207
v -0.0419849 -0.108035 -0.103048
v -0.0591718 -0.104479 -0.103767
v -0.0579472 -0.0968398 -0.11993
v -0.0763333 -0.100504 -0.103483
v -0.0753852 -0.0921383 -0.119825
v -0.055899 -0.0884147 -0.135589
v -0.052866 -0.0793056 -0.150828
v -0.0314437 -0.0736474 -0.16397
v -0.00953395 -0.0669551 -0.175136
v 0.0127483 -0.0591091 -0.184216
v 0.0262222 -0.0726782 -0.166462
v 0.022125 -0.082842 -0.15287
v -0.00231903 -0.0986995 -0.128722
v -0.00512922 -0.10644 -0.113503
v -0.0226326 -0.104065 -0.116876
v -0.0402295 -0.100675 -0.118882
v -0.0200022 -0.0958613 -0.132021
v -0.0169574 -0.0871757 -0.14692
v -0.0134431 -0.0775147 -0.161396
v 0.00447686 -0.0805529 -0.157634
v -0.0245477 -0.110748 -0.101112
v 0.000880123 -0.0899891 -0.143379
v 0.0304969 -0.0618079 -0.179043
v 0.0348861 -0.0503674 -0.190727
v -0.00509583 -0.0556418 -0.188335
v -0.0230256 -0.0512941 -0.191494
v -0.0274506 -0.0629317 -0.178071
v 0.00840388 -0.0701741 -0.171272
v -0.0706587 -0.0740641 -0.151273
v -0.0379103 -0.0925464 -0.134368
v -0.0349036 -0.0835186 -0.149338
v -0.0588931 -0.111414 -0.086906
v -0.0907729 -0.109931 -0.0686524
v -0.107875 -0.105191 -0.0659492
v -0.105352 -0.111282 -0.0487495
v -0.119296 -0.11133 -0.028096
v -0.135817 -0.104709 -0.0237661
v -0.151326 -0.0963489 -0.0189091
v -0.166011 -0.086812 -0.013597
v -0.167907 -0.0798748 -0.0309425
v -0.180282 -0.0679157 -0.0247895
v -0.181002 -0.0599167 -0.0416214
v -0.18114 -0.0513725 -0.0583538
v -0.181001 -0.042563 -0.0750506
v -0.180438 -0.0334357 -0.0915487
v -0.17921 -0.023812 -0.107744
v -0.177513 -0.0137121 -0.123632
v -0.189952 -0.0112255 -0.0998904
v -0.188596 -0.00145383 -0.115706
v -0.186961 0.00858924 -0.131198
v -0.184781 0.0189908 -0.14604
v -0.170413 0.0688202 -0.196017
v -0.16545 0.0832146 -0.205195
v -0.159874 0.0982224 -0.213013
v -0.151707 0.0738375 -0.213687
v -0.136933 0.0646155 -0.220991
v -0.114888 0.0718335 -0.234316
v -0.0984971 0.063414 -0.239153
v -0.0916842 0.0799637 -0.244862
v -0.081487 0.0553091 -0.242573
v -0.0747389 0.0718874 -0.248357
v -0.0504881 0.0808348 -0.255038
v -0.0575047 0.0639427 -0.250617
v -0.0879088 0.0390987 -0.235171
v -0.094241 0.0232496 -0.226476
v -0.0772836 0.0152487 -0.228483
v -0.0832345 0.000212075 -0.218169
v -0.110862 0.0318242 -0.22313
v -0.104882 0.0472889 -0.232005
v -0.142767 0.049389 -0.212146
v -0.157213 0.0588319 -0.204679
v -0.162042 0.0445789 -0.194054
v -0.166104 0.0313026 -0.181812
v -0.169897 0.0189077 -0.16852
v -0.152381 0.0212292 -0.189421
v -0.137558 0.0118481 -0.19593
v -0.132659 0.0257228 -0.207954
v -0.121774 0.00291605 -0.200779
v -0.116536 0.0168633 -0.21265
v -0.126412 -0.0102493 -0.187728
v -0.130479 -0.0222651 -0.173162
v -0.141773 -0.00109896 -0.182442
v -0.159924 -0.00331024 -0.161745
v -0.172919 0.00746173 -0.154201
v -0.162853 -0.0144879 -0.14655
v -0.145824 -0.0131672 -0.168421
v -0.149034 -0.02451 -0.152936
v -0.153428 -0.0458269 -0.120956
v -0.151654 -0.0354958 -0.137216
v -0.168209 -0.0451367 -0.0983755
v -0.169056 -0.0721525 -0.0481637
v -0.139947 -0.0911152 -0.0582258
v -0.140974 -0.0831011 -0.0754262
v -0.138413 -0.0985587 -0.0410472
v -0.124098 -0.0986499 -0.062353
v -0.125375 -0.0909173 -0.0793392
v -0.125909 -0.0824771 -0.096624
v -0.109681 -0.0894559 -0.0995306
v -0.121327 -0.0532473 -0.146422
v -0.13893 -0.055033 -0.126215
v -0.136953 -0.0446087 -0.142549
v -0.140208 -0.0649227 -0.109604
v -0.140867 -0.0743121 -0.0926403
v -0.155594 -0.07393 -0.0706399
v -0.155402 -0.065023 -0.0876011
v -0.154722 -0.0557097 -0.104457
v -0.134178 -0.033819 -0.158246
v -0.11827 -0.0425155 -0.161968
v -0.125061 -0.0733094 -0.113697
v -0.123498 -0.0634589 -0.130275
v -0.155166 -0.0825093 -0.0536506
v -0.16913 -0.0634268 -0.0649804
v -0.156259 0.00864338 -0.175979
v -0.147974 0.0347865 -0.201663
v -0.127217 0.0404258 -0.218279
v -0.100107 0.00822835 -0.216079
v -0.0599917 0.00779994 -0.229409
v -0.130691 0.0804333 -0.228495
v -0.121353 0.0557482 -0.22725
v -0.145758 0.0893209 -0.221457
v -0.174847 0.055011 -0.185344
v -0.185878 0.0659065 -0.175493
v -0.189287 0.0536349 -0.163582
v -0.178706 0.0420818 -0.173263
v -0.18199 0.030145 -0.160054
v -0.17561 -0.00347199 -0.139242
v -0.165262 -0.0252312 -0.130866
v -0.166925 -0.0353458 -0.114727
v -0.168896 -0.0544652 -0.081726
v -0.178676 -0.0751547 -0.00758774
v -0.153668 -0.0899189 -0.0362655
v -0.182432 0.0789855 -0.185872
v -0.122119 -0.105623 -0.0452413
v -0.10928 -0.0978231 -0.0828304
v -0.0756909 -0.107903 -0.0866529
v -0.109058 -0.080532 -0.11641
v -0.0736938 -0.0834588 -0.135778
v -0.0881742 -0.06806 -0.1508
v -0.11451 -0.0311012 -0.176827
v -0.110254 -0.0188236 -0.190992
v -0.10548 -0.00578407 -0.20416
v -0.0493563 -0.0691523 -0.16558
v -0.0659372 -0.00714417 -0.219087
v -0.0483755 -0.0139129 -0.218993
v -0.0424741 0.00079437 -0.229303
v -0.0247886 -0.00557364 -0.228035
v -0.00702351 -0.0112087 -0.225495
v -0.000174812 -0.043432 -0.200655
v 0.0406001 0.00809409 -0.233797
v 0.0232103 0.0135578 -0.238219
v 0.029826 0.0293631 -0.244375
v 0.0175223 -0.0471733 -0.19636
v 0.0703767 0.0341112 -0.238644
v 0.0770286 0.0498988 -0.241995
v 0.0839761 0.0660839 -0.244244
v 0.0604706 0.0560266 -0.247923
v 0.0434972 0.0623642 -0.252398
v 0.026316 0.0689256 -0.255798
v 0.04066 0.103007 -0.258649
v 0.016131 0.0929233 -0.259935
v 0.0233766 0.110118 -0.260845
v 0.0550342 0.13696 -0.257224
v 0.0790749 0.146647 -0.251649
v 0.0888679 0.122778 -0.249299
v 0.105334 0.11583 -0.243618
v 0.112151 0.132773 -0.241115
v 0.102535 0.15655 -0.243767
v 0.118793 0.149785 -0.237895
v 0.134465 0.143046 -0.230663
v 0.140614 0.160307 -0.226505
v -0.139252 0.105298 -0.227527
v 0.1187 0.207633 -0.228578
v 0.0979741 0.19653 -0.239189
v 0.108789 0.173433 -0.239419
v 0.124955 0.166998 -0.233473
v 0.085867 0.163328 -0.24853
v 0.0688846 0.170397 -0.252034
v 0.0449445 0.161088 -0.257385
v 0.0378392 0.144183 -0.259383
v 0.0207302 0.151585 -0.260454
v 0.030646 0.127182 -0.260593
v 0.00605595 0.117251 -0.261957
v -0.0111891 0.124637 -0.26195
v -0.0282655 0.132179 -0.260767
v -0.0452433 0.139806 -0.258917
v -0.013129 0.166474 -0.259664
v -0.0037281 0.141855 -0.261776
v 0.00372323 0.159037 -0.260675
v 0.013409 0.134477 -0.261787
v 0.0185463 0.192959 -0.255276
v 0.00184176 0.200353 -0.254298
v -0.0223474 0.190727 -0.255638
v -0.0298685 0.173857 -0.257755
v -0.0463628 0.181195 -0.254792
v -0.0541337 0.164434 -0.255746
v -0.0783203 0.155407 -0.251424
v -0.0936378 0.121686 -0.248055
v -0.0696292 0.130633 -0.254597
v -0.0619292 0.147568 -0.255707
v -0.0860267 0.138568 -0.250262
v -0.0942601 0.163265 -0.246108
v -0.0705077 0.172176 -0.251589
v -0.117595 0.154511 -0.238448
v -0.12509 0.138029 -0.235971
v 0.0259765 0.209558 -0.251017
v 0.0656704 0.210412 -0.244921
v 0.081852 0.202717 -0.24281
v 0.0754439 0.186801 -0.247901
v 0.0588856 0.194271 -0.250096
v 0.0424536 0.20198 -0.251074
v 0.0352228 0.185388 -0.255265
v 0.0519399 0.177802 -0.254272
v 0.101833 0.213364 -0.233681
v 0.0111344 0.176105 -0.258549
v -0.00564594 0.183497 -0.257477
v -0.0375459 0.156845 -0.258898
v -0.0206962 0.149359 -0.260886
v -0.0186208 0.107439 -0.261163
v -0.00125126 0.100036 -0.261208
v -0.00847878 0.0828841 -0.259167
v 0.00897442 0.0757594 -0.258068
v -0.00509762 0.0419494 -0.250526
v -0.0119308 0.0256264 -0.244404
v 0.0279499 0.168567 -0.258396
v 0.0922561 0.179997 -0.244297
v 0.114376 0.190502 -0.234285
v 0.134665 0.202039 -0.222302
v 0.130575 0.184254 -0.228294
v 0.128019 0.125919 -0.234065
v 0.0911265 0.0824244 -0.24518
v 0.0746484 0.0891697 -0.250797
v 0.0674666 0.0725396 -0.249988
v 0.050496 0.0791884 -0.254591
v 0.0649949 0.112915 -0.255086
v 0.0982913 0.0990644 -0.244832
v 0.0818354 0.105927 -0.250593
v 0.0958565 0.139649 -0.247068
v 0.0620653 0.153795 -0.255069
v 0.0720824 0.129825 -0.253799
v 0.0478749 0.119995 -0.258336
v 0.0577713 0.0960425 -0.255255
v 0.0333792 0.0860148 -0.257786
v 0.0470108 0.0237329 -0.239745
v 0.0193324 0.0520589 -0.252466
v 0.0056606 0.0192945 -0.241939
v -0.0295297 0.03237 -0.245747
v -0.0709531 0.0310356 -0.237304
v -0.04702 0.0396032 -0.245823
v 0.00189724 0.0587253 -0.254966
v -0.0528405 0.122792 -0.257807
v -0.0845726 0.0967389 -0.249287
v -0.108125 0.0882507 -0.240097
v -0.102006 0.146495 -0.244867
v -0.109612 0.129847 -0.242589
v -0.124028 0.0967152 -0.23443
f 2 3 230 1
f 230 179 113 1
f 263 313 4 3
f 4 314 230 3
f 313 256 5 4
f 5 311 314 4
f 256 6 310 5
f 310 118 311 5
f 257 309 8 6
f 8 7 310 6
f 256 259 257 6
f 8 10 121 7
f 121 122 120 7
f 120 118 310 7
f 309 9 10 8
f 243 242 277 9
f 277 11 10 9
f 309 244 243 9
f 11 12 121 10
f 277 278 279 11
f 279 13 12 11
f 13 14 15 12
f 15 122 121 12
f 279 280 308 13
f 308 281 14 13
f 281 282 305 14
f 305 307 15 14
f 307 16 122 15
f 307 17 306 16
f 306 123 119 16
f 119 120 122 16
f 307 305 18 17
f 18 204 176 17
f 176 125 306 17
f 305 282 19 18
f 19 205 204 18
f 282 304 20 19
f 20 206 205 19
f 304 209 32 20
f 32 33 206 20
f 303 22 210 21
f 210 209 304 21
f 304 282 281 21
f 281 308 303 21
f 216 215 23 22
f 23 302 210 22
f 303 217 216 22
f 215 213 212 23
f 212 24 302 23
f 25 208 302 24
f 26 31 208 25
f 27 30 31 26
f 28 29 30 27
f 83 211 29 28
f 211 207 34 29
f 34 33 30 29
f 33 32 31 30
f 32 209 208 31
f 34 36 206 33
f 207 35 36 34
f 207 84 85 35
f 85 42 41 35
f 41 37 36 35
f 37 205 206 36
f 41 40 203 37
f 203 204 205 37
f 202 203 40 38
f 40 39 47 38
f 47 48 49 38
f 49 126 202 38
f 40 41 42 39
f 42 43 45 39
f 45 46 47 39
f 85 86 43 42
f 86 67 201 43
f 201 44 45 43
f 201 66 88 44
f 88 197 52 44
f 52 46 45 44
f 52 51 50 46
f 50 48 47 46
f 50 198 199 48
f 199 200 49 48
f 200 175 126 49
f 51 167 198 50
f 52 197 54 51
f 54 158 167 51
f 54 197 55 53
f 55 56 195 53
f 195 168 169 53
f 169 158 54 53
f 197 88 196 55
f 196 64 56 55
f 64 63 57 56
f 57 157 195 56
f 63 194 58 57
f 58 193 157 57
f 92 93 193 58
f 91 61 60 59
f 75 74 80 60
f 61 62 75 60
f 91 194 63 61
f 63 64 62 61
f 65 89 75 62
f 64 196 65 62
f 66 90 89 65
f 196 88 66 65
f 201 67 90 66
f 86 68 78 67
f 78 77 90 67
f 84 69 87 68
f 87 79 78 68
f 86 85 84 68
f 211 83 82 69
f 82 70 87 69
f 84 207 211 69
f 71 79 87 70
f 73 74 76 72
f 76 77 81 72
f 75 89 76 74
f 89 90 77 76
f 78 79 81 77
f 94 192 154 93
f 154 155 193 93
f 96 153 192 95
f 97 190 153 96
f 98 99 190 97
f 189 100 99 98
f 150 170 190 99
f 100 101 150 99
f 102 171 150 101
f 103 188 171 102
f 104 149 188 103
f 105 187 149 104
f 106 186 187 105
f 107 108 106 105
f 185 144 186 106
f 108 109 185 106
f 110 143 185 109
f 184 133 143 110
f 112 114 130 111
f 130 131 180 111
f 180 181 191 111
f 113 179 114 112
f 179 177 115 114
f 115 129 130 114
f 177 116 178 115
f 178 174 129 115
f 311 118 117 116
f 117 128 178 116
f 177 314 311 116
f 118 120 119 117
f 119 123 128 117
f 306 125 124 123
f 124 127 128 123
f 125 126 175 124
f 175 138 127 124
f 176 202 126 125
f 138 136 174 127
f 174 178 128 127
f 174 136 173 129
f 173 131 130 129
f 173 134 132 131
f 132 183 180 131
f 134 172 133 132
f 133 184 183 132
f 172 142 143 133
f 173 136 135 134
f 135 141 172 134
f 136 138 137 135
f 137 139 141 135
f 138 175 200 137
f 200 199 139 137
f 199 198 140 139
f 140 145 141 139
f 198 167 166 140
f 166 146 145 140
f 145 142 172 141
f 145 146 144 142
f 144 185 143 142
f 146 148 186 144
f 166 160 148 146
f 148 160 159 147
f 159 161 165 147
f 165 149 187 147
f 187 186 148 147
f 165 164 188 149
f 171 163 170 150
f 152 155 154 151
f 154 192 153 151
f 153 190 170 151
f 170 163 152 151
f 162 156 155 152
f 163 164 162 152
f 156 157 193 155
f 168 195 157 156
f 162 161 168 156
f 169 159 160 158
f 160 166 167 158
f 169 168 161 159
f 162 164 165 161
f 171 188 164 163
f 204 203 202 176
f 179 230 314 177
f 183 182 181 180
f 209 210 302 208
f 215 291 214 213
f 291 290 289 214
f 216 292 291 215
f 217 301 292 216
f 303 308 280 217
f 280 219 301 217
f 299 293 300 218
f 300 292 301 218
f 301 219 220 218
f 220 240 299 218
f 280 279 278 219
f 278 241 220 219
f 241 248 240 220
f 297 222 298 221
f 298 293 299 221
f 299 240 238 221
f 238 237 297 221
f 235 226 296 222
f 296 223 298 222
f 297 236 235 222
f 296 225 224 223
f 224 294 295 223
f 295 293 298 223
f 227 228 288 225
f 296 226 227 225
f 233 234 227 226
f 235 284 233 226
f 234 229 228 227
f 286 287 285 231
f 285 232 272 231
f 285 233 284 232
f 284 267 266 232
f 285 287 234 233
f 236 267 284 235
f 297 237 271 236
f 271 268 267 236
f 238 239 283 237
f 283 270 271 237
f 240 248 239 238
f 248 246 247 239
f 247 273 283 239
f 278 277 242 241
f 242 246 248 241
f 243 276 246 242
f 244 275 276 243
f 309 257 258 244
f 258 254 275 244
f 274 273 247 245
f 247 246 276 245
f 276 275 252 245
f 252 251 274 245
f 264 269 270 249
f 270 283 273 249
f 273 274 250 249
f 275 254 253 252
f 258 255 261 254
f 258 257 259 255
f 259 312 260 255
f 313 312 259 256
f 312 313 263 262
f 266 267 268 265
f 271 270 269 268
f 290 295 294 289
f 291 292 300 290
f 300 293 295 290
