# https://github.com/mikedh/trimesh
v -0.21590400 0.17405300 0.11289625
v -0.20163500 0.15450400 0.13697299
v -0.23567950 0.11044400 0.07264500
v -0.23312675 0.11968625 0.08273050
v -0.23038900 0.11411700 0.08945700
v -0.22402599 0.12262800 0.10365900
v -0.23988075 0.17274275 -0.05715350
v -0.24559800 0.14375050 -0.00516450
v -0.24355637 0.12579850 0.03324200
v -0.24339250 0.15659925 -0.03374975
v -0.22994288 0.18186800 -0.10077156
v -0.22037325 0.20339725 -0.12151450
v -0.22084600 0.20575000 -0.11887100
v -0.22493076 0.20253375 -0.10780375
v -0.21191700 0.22198801 -0.13072200
v -0.20503750 0.22994850 -0.13926700
v -0.19188750 0.24597099 -0.15014100
v -0.19782987 0.28138661 0.07320849
v -0.19874825 0.27307050 0.08224350
v -0.19813958 0.26739543 0.09179448
v -0.18798806 0.29801970 0.07012016
v -0.16704475 0.23206600 0.16307250
v -0.22627529 0.20450906 0.07943179
v -0.22554311 0.21849679 0.06939762
v -0.22457675 0.19427225 0.08838125
v -0.22088500 0.18275800 0.10085300
v -0.21190801 0.23207900 0.09756850
v -0.21287250 0.23870851 0.08766450
v -0.20868750 0.22537474 0.11012475
v -0.20675699 0.22323200 0.11599500
v -0.18363850 0.22027740 0.15199503
v -0.19913267 0.21995343 0.13166459
v -0.18922019 0.21944456 0.14405175
v -0.21500050 0.24268750 0.07995000
v -0.19850358 0.23970621 0.11966800
v -0.19208587 0.23741425 0.12947644
v -0.18710959 0.23746126 0.13918525
v -0.20259000 0.24599700 0.10601500
v -0.20260749 0.25378325 0.09748150
v -0.19435342 0.28872756 0.06889114
v -0.20813915 0.26309976 0.07102148
v -0.20565038 0.26493462 0.07413619
v -0.21211971 0.26478635 0.05066354
v -0.20083598 0.28102910 0.06150914
v -0.19704250 0.29602575 0.03400950
v -0.20157313 0.28697870 0.04349705
v -0.21247186 0.27369090 0.01558714
v -0.20910500 0.27952999 0.01700800
v -0.22289767 0.25332511 0.00940590
v -0.23100825 0.22639531 0.02881944
v -0.22843033 0.23013783 0.03987271
v -0.23217290 0.21118434 0.05048524
v -0.23360300 0.20435300 0.05243000
v -0.24010574 0.18827691 0.03907713
v -0.24084647 0.17741497 0.04474083
v -0.24240814 0.18637545 0.02117097
v -0.24451337 0.17682755 0.00690121
v -0.24589137 0.16312573 0.00277676
v -0.24211100 0.16663800 -0.04464600
v -0.24254421 0.17607381 -0.03741073
v -0.24081919 0.18828269 -0.03783238
v -0.24075137 0.17887750 -0.04756588
v -0.23635800 0.19753700 -0.06081100
v -0.23306484 0.19216657 -0.08368043
v -0.22905394 0.20502250 -0.08951906
v -0.23000127 0.19068544 -0.09717822
v -0.22652715 0.21829728 -0.08938414
v -0.22454278 0.23367331 -0.07547514
v -0.22628221 0.22880334 -0.07482983
v -0.23185014 0.21382587 -0.06792583
v -0.23610300 0.20092800 -0.05847100
v -0.24013340 0.19733192 -0.03196290
v -0.23296925 0.21517644 -0.05629134
v -0.24498644 0.16132668 -0.01757437
v -0.24405312 0.17823954 -0.01603040
v -0.24037222 0.20073651 -0.01078309
v -0.23945725 0.20252775 -0.02012525
v -0.24325900 0.18580700 -0.00301900
v -0.24290000 0.18787700 -0.00015800
v -0.24384637 0.17873987 0.00450025
v -0.24037026 0.19996291 0.00896496
v -0.23508263 0.21425793 0.02903211
v -0.23590806 0.21553463 0.01268225
v -0.23116222 0.23328313 -0.00099354
v -0.23310949 0.22665800 -0.01374800
v -0.22722900 0.24308699 -0.01904000
v -0.21096700 0.27836800 -0.02132900
v -0.21313812 0.27267650 -0.03418069
v -0.21966411 0.26154724 -0.02095081
v -0.22493900 0.24284600 -0.05209100
v -0.22463700 0.23747824 -0.06713088
v -0.23277745 0.22040913 -0.04872329
v -0.23532525 0.21675075 -0.03133125
v -0.23144800 0.23250029 -0.02015026
v -0.23706858 0.21366020 -0.01160455
v -0.23678599 0.21212800 -0.02819600
v -0.23882601 0.20697901 -0.00359100
v -0.23750800 0.21207100 -0.00473500
v -0.22588284 0.23847593 -0.05925531
v -0.21897650 0.25450250 -0.06155150
v -0.21299850 0.23654525 -0.11454625
v -0.20533525 0.24532550 -0.12469350
v -0.19474163 0.26067092 -0.13143089
v -0.19794377 0.25816051 -0.12799565
v -0.18985850 0.27091425 -0.12868500
v -0.19609019 0.27426614 -0.11091440
v -0.19121800 0.28013799 -0.11332700
v -0.20187585 0.27218584 -0.09808142
v -0.20876899 0.26140793 -0.09636746
v -0.21421200 0.26430199 -0.06337800
v -0.21197300 0.26729801 -0.06761500
v -0.21044856 0.27485568 -0.05325488
v -0.20677100 0.28602400 -0.01165800
v -0.20637067 0.28640152 -0.02600134
v -0.20337140 0.29177031 -0.00886935
v -0.20274062 0.29117537 0.01313990
v -0.19811200 0.29620099 0.02593200
v -0.19786450 0.29842524 0.01264500
v -0.19892400 0.29806275 -0.02201650
v -0.20798001 0.28385001 -0.00602300
v -0.20416647 0.28764210 -0.04348583
v -0.19908251 0.29608150 -0.03954000
v -0.19928500 0.29409799 -0.04902000
v -0.20328362 0.28627938 -0.05571037
v -0.20075032 0.28784766 -0.06510792
v -0.20041899 0.28627300 -0.07147550
v -0.19785000 0.29137301 -0.06823200
v -0.20070932 0.28246613 -0.08072046
v -0.20145450 0.27857750 -0.08656050
v -0.19690800 0.28515425 -0.08777925
v -0.19444250 0.28082700 -0.10407450
v -0.18909501 0.28152600 -0.11598300
v -0.18731400 0.28028801 -0.12155900
v -0.18572550 0.27997825 -0.12510350
v -0.19061850 0.27552250 -0.12123850
v -0.19048801 0.26117249 -0.13847100
v -0.18965300 0.25566551 -0.14534142
v -0.19262999 0.24797501 -0.14726999
v -0.20818325 0.23472031 -0.12918978
v -0.19540588 0.24868094 -0.14179531
v -0.19963750 0.23818750 -0.14307250
v -0.21453901 0.22406900 -0.12253900
v -0.21536300 0.23003100 -0.11476300
v -0.21727900 0.22489600 -0.11421300
v -0.22369017 0.21487768 -0.10271777
v -0.21579475 0.21557038 -0.12584825
v -0.22091153 0.21779293 -0.11045022
v -0.21469165 0.24312059 -0.10185565
v -0.20606600 0.25359300 -0.11345950
v -0.20159700 0.26731725 -0.10616138
v -0.21641406 0.24467172 -0.09255259
v -0.20871950 0.26876500 -0.07967200
v -0.22884544 0.23431550 -0.04292006
v -0.22198421 0.25351605 -0.04113885
v -0.21309875 0.26864250 -0.05620550
v -0.21366100 0.27349201 -0.01682300
v -0.21820401 0.26422000 -0.00396400
v -0.22616000 0.24386200 0.01396850
v -0.23875791 0.19563147 0.03443525
v -0.23083825 0.23216538 0.00746288
v -0.24215400 0.19087500 -0.01052900
v -0.23704299 0.21038701 -0.03097000
v -0.23723482 0.20222719 -0.04853581
v -0.23147350 0.20213650 -0.08229200
v -0.22314012 0.22281362 -0.09647912
v -0.23673716 0.17958500 -0.07299974
v -0.23649051 0.19047900 -0.06660550
v -0.24417677 0.15966113 -0.02886371
v -0.24613105 0.14155970 0.01518970
v -0.24500213 0.14020625 0.03254812
v -0.24548973 0.16099331 0.02225483
v -0.24528647 0.14862732 0.03267996
v -0.24412590 0.13075949 0.03892138
v -0.24046624 0.12173157 0.05772904
v -0.24274469 0.14006709 0.04892803
v -0.23723194 0.12763377 0.07287905
v -0.23981300 0.13702700 0.06364200
v -0.23577622 0.11555692 0.07435852
v -0.22694300 0.14103299 0.09803100
v -0.22770295 0.12795636 0.09707983
v -0.21843191 0.14478920 0.11308448
v -0.22828266 0.15267713 0.09437295
v -0.23435533 0.15215528 0.07964403
v -0.23411277 0.16984021 0.07507327
v -0.23050000 0.17209899 0.08384750
v -0.23166308 0.17835353 0.07859432
v -0.23003020 0.19294744 0.07466764
v -0.22730050 0.21820900 0.06128150
v -0.23204359 0.19984871 0.06378161
v -0.23610900 0.18051000 0.06321100
v -0.23937076 0.16898314 0.05755568
v -0.24127901 0.14232001 0.05763400
v -0.24297810 0.15271391 0.04837138
v -0.24338500 0.16120300 0.04125500
v -0.23820375 0.16303363 0.06397862
v -0.23493731 0.15670181 0.07572813
v -0.21996671 0.15987655 0.10904185
v -0.21386750 0.15352925 0.11924337
v -0.22349612 0.14418987 0.10429175
v -0.23296569 0.13757569 0.08429281
v -0.23803650 0.11901600 0.06709950
v -0.24390900 0.17030700 0.02953500
v -0.24601901 0.15283400 0.01682900
v -0.24595002 0.15426375 -0.00721227
v -0.24361949 0.17320950 0.02867850
v -0.23207951 0.21626900 0.04360750
v -0.22210277 0.24017196 0.05224060
v -0.21889525 0.25035025 0.04784425
v -0.22242169 0.24974504 0.02906228
v -0.21340225 0.26881700 0.02940425
v -0.19332674 0.29688950 0.05009575
v -0.20492225 0.27800087 0.05057475
v -0.20781688 0.24883884 0.09010912
v -0.20049901 0.22188250 0.12623250
v -0.20564629 0.23445154 0.10900683
v -0.19226235 0.23178229 0.13303125
v -0.18242483 0.23642966 0.14291935
v -0.24574425 0.15836175 0.01031563
v -0.19267300 0.29368250 0.06124150
v -0.19340600 0.22733300 0.13414800
v -0.21580056 0.25399251 -0.08064567
v -0.24415395 0.17199654 -0.02274068
v -0.22113401 0.25756499 0.00155900
f 171 203 169
f 171 218 203
f 205 218 171
f 56 218 205
f 56 57 218
f 57 58 218
f 58 204 218
f 218 204 169
f 169 204 8
f 204 10 8
f 168 10 204
f 74 168 204
f 75 74 204
f 80 75 204
f 161 75 80
f 161 72 75
f 76 72 161
f 76 161 81
f 81 161 78
f 81 78 79
f 80 81 79
f 56 81 80
f 82 81 56
f 83 81 82
f 82 84 83
f 84 98 83
f 84 85 98
f 85 94 98
f 98 94 95
f 95 77 98
f 98 77 97
f 97 77 76
f 95 94 77
f 94 93 77
f 94 92 93
f 94 153 92
f 154 153 94
f 154 90 153
f 99 90 154
f 155 99 154
f 154 88 155
f 112 155 88
f 112 152 155
f 155 152 111
f 155 111 110
f 111 152 110
f 152 221 110
f 152 109 221
f 109 151 221
f 221 151 91
f 100 221 91
f 100 91 99
f 91 73 99
f 92 99 73
f 91 69 73
f 91 68 69
f 68 67 69
f 67 65 69
f 69 65 70
f 70 65 164
f 70 164 64
f 70 64 63
f 70 63 71
f 163 70 71
f 163 71 61
f 72 163 61
f 71 63 61
f 61 63 60
f 63 62 60
f 62 63 167
f 62 10 60
f 62 59 10
f 62 7 59
f 59 7 10
f 61 60 222
f 75 61 222
f 222 60 74
f 72 70 163
f 73 70 72
f 77 73 72
f 63 64 167
f 167 64 166
f 167 166 7
f 166 11 7
f 64 11 166
f 66 11 64
f 65 66 64
f 14 11 66
f 67 14 66
f 165 14 67
f 151 165 67
f 151 147 165
f 165 147 145
f 145 147 14
f 147 13 14
f 147 12 13
f 147 146 12
f 144 146 147
f 148 144 147
f 148 101 144
f 109 101 148
f 109 139 101
f 109 102 139
f 104 139 102
f 104 140 139
f 140 141 139
f 139 141 16
f 16 15 139
f 139 15 146
f 142 139 146
f 139 142 144
f 143 139 144
f 103 140 104
f 103 136 140
f 136 137 140
f 137 138 140
f 138 17 140
f 137 17 138
f 105 136 103
f 105 103 104
f 135 105 104
f 106 135 104
f 132 135 106
f 132 133 135
f 133 134 135
f 134 133 132
f 107 132 106
f 131 107 106
f 131 106 108
f 130 131 108
f 130 108 129
f 128 130 129
f 130 128 126
f 126 128 109
f 128 129 109
f 129 108 109
f 108 150 109
f 150 104 109
f 109 104 149
f 106 150 108
f 106 104 150
f 149 104 102
f 149 102 109
f 101 139 143
f 101 143 144
f 148 147 151
f 165 145 14
f 164 65 64
f 67 66 65
f 68 151 67
f 69 70 73
f 151 68 91
f 151 109 148
f 126 109 152
f 100 110 221
f 112 126 152
f 126 112 124
f 124 125 126
f 127 126 125
f 127 125 124
f 121 124 112
f 121 123 124
f 122 123 121
f 119 122 121
f 119 121 114
f 119 114 115
f 118 119 115
f 116 118 115
f 118 116 117
f 117 116 48
f 116 120 48
f 48 120 89
f 156 89 120
f 88 156 120
f 114 88 120
f 113 114 120
f 87 89 156
f 87 88 89
f 48 89 157
f 157 89 223
f 223 89 49
f 49 48 223
f 89 86 49
f 89 94 86
f 49 86 84
f 49 84 160
f 158 49 160
f 49 158 209
f 209 158 50
f 209 50 51
f 208 209 51
f 43 209 208
f 43 210 209
f 212 210 43
f 212 46 210
f 46 212 44
f 211 46 44
f 211 45 46
f 45 48 46
f 46 48 47
f 219 211 44
f 40 219 44
f 21 219 40
f 40 44 18
f 19 18 44
f 19 44 42
f 44 43 42
f 42 43 41
f 42 41 213
f 39 42 213
f 39 213 38
f 38 213 215
f 215 213 27
f 29 215 27
f 215 29 220
f 35 215 220
f 216 35 220
f 216 220 217
f 217 220 33
f 33 220 32
f 22 217 33
f 22 33 31
f 36 35 216
f 37 36 216
f 220 29 30
f 220 30 214
f 213 28 27
f 38 215 35
f 213 41 28
f 28 41 34
f 41 208 34
f 34 208 207
f 34 207 24
f 207 51 24
f 24 51 188
f 51 52 188
f 188 52 53
f 188 53 189
f 189 53 190
f 187 189 190
f 187 190 26
f 26 190 186
f 186 190 184
f 184 190 195
f 190 191 195
f 191 193 195
f 195 193 196
f 196 193 177
f 196 177 200
f 183 196 200
f 182 183 200
f 199 182 200
f 197 182 199
f 197 199 198
f 198 199 181
f 181 199 180
f 199 179 180
f 179 200 180
f 200 176 180
f 180 176 4
f 180 4 5
f 6 180 5
f 176 178 4
f 176 201 178
f 178 201 3
f 176 174 201
f 176 175 174
f 177 175 176
f 175 173 174
f 175 172 173
f 175 194 172
f 193 194 175
f 194 193 190
f 190 55 194
f 55 54 194
f 54 205 194
f 54 55 190
f 192 193 175
f 171 172 194
f 194 202 171
f 172 171 170
f 173 172 170
f 170 169 173
f 173 169 9
f 174 173 9
f 4 178 3
f 181 180 6
f 198 181 6
f 1 197 198
f 1 198 2
f 197 1 182
f 1 196 182
f 26 196 1
f 185 196 26
f 185 186 196
f 196 183 182
f 200 177 176
f 177 193 192
f 184 195 196
f 196 186 184
f 26 186 185
f 25 187 26
f 23 187 25
f 23 189 187
f 23 24 189
f 53 54 190
f 53 52 54
f 52 159 54
f 159 56 54
f 206 159 52
f 206 82 159
f 206 50 82
f 50 160 82
f 51 206 52
f 188 189 24
f 19 42 20
f 46 47 210
f 210 47 49
f 44 212 43
f 41 43 208
f 207 208 51
f 51 50 206
f 210 49 209
f 116 115 120
f 115 113 120
f 113 115 114
f 114 121 112
f 114 112 88
f 89 88 154
f 155 100 99
f 90 99 153
f 89 154 94
f 153 99 92
f 92 73 93
f 93 96 77
f 96 93 162
f 77 96 162
f 86 94 85
f 84 86 85
f 160 84 82
f 83 97 81
f 82 56 159
f 79 78 80
f 81 97 76
f 76 77 72
f 75 72 61
f 75 222 74
f 60 168 74
f 60 10 168
f 169 8 9
f 58 80 204
f 57 80 58
f 80 57 56
f 54 56 205
f 205 171 202
f 203 218 169
f 171 169 170

