# https://github.com/mikedh/trimesh
v -0.02929600 -0.13357000 0.03034900
v -0.04250100 -0.13119800 0.02788000
v -0.04911700 -0.12993150 0.03961000
v -0.04197400 -0.12633412 0.05970550
v 0.06329600 -0.10945300 0.07772000
v -0.02261700 -0.12166800 0.07099800
v 0.09376050 -0.10629475 0.08144950
v 0.07552800 -0.11115050 0.07884800
v 0.10484075 -0.10533225 0.08216750
v 0.13745600 -0.09533012 0.08427950
v 0.17260350 -0.07965800 0.07644550
v 0.17996149 -0.07727850 0.06395250
v 0.16000800 -0.08595400 0.08218700
v 0.17607300 -0.08254800 0.05702200
v 0.17076562 -0.08855125 0.04454513
v 0.16386300 -0.09447300 0.02981100
v 0.15660300 -0.09925050 0.03639150
v 0.15067000 -0.10271850 0.02303438
v 0.13061850 -0.11220250 0.01664550
v 0.10283800 -0.12086700 0.00384800
v 0.10282400 -0.12108300 0.00743600
v 0.10741550 -0.12030450 0.01815250
v 0.09343600 -0.12254000 -0.00044400
v 0.17659409 -0.07913197 0.06884178
v 0.16517316 -0.09143331 0.05979251
v 0.16647453 -0.08817956 0.06737729
v 0.17809699 -0.07970800 0.06155800
v 0.16523636 -0.09239038 0.05006754
v 0.15754201 -0.09872178 0.04021685
v 0.15534009 -0.09967695 0.04327365
v -0.01564650 -0.13267050 0.03236750
v 0.03169800 -0.13187200 0.02999800
v 0.02115725 -0.13268125 0.03167700
v 0.05314400 -0.13043800 0.02102300
v 0.05193400 -0.13045500 0.03365000
v 0.15109094 -0.09574061 0.07472187
v 0.15515286 -0.09753579 0.06196272
v 0.16301251 -0.08843464 0.07470522
v 0.13673349 -0.10484390 0.06759544
v 0.13021013 -0.10696289 0.06903477
v 0.13502890 -0.10766915 0.05919113
v 0.15186266 -0.10073967 0.05402259
v 0.14584471 -0.10531309 0.03600262
v 0.14224345 -0.10732497 0.02441862
v 0.12125514 -0.11401793 0.05071537
v 0.12338647 -0.11395720 0.04657146
v 0.13433447 -0.11060677 0.03545392
v 0.12896163 -0.11243425 0.03986501
v 0.12259400 -0.11486100 0.03853200
v 0.12389500 -0.11500400 0.02416100
v 0.11141948 -0.11925737 0.02755560
v 0.11661300 -0.11461100 0.05598800
v 0.12313891 -0.11538450 0.01861877
v 0.10979658 -0.11933936 0.03339892
v 0.12629453 -0.11039383 0.06170254
v 0.10057800 -0.12032700 0.04795500
v 0.11213843 -0.11715033 0.04867726
v 0.10043653 -0.11884407 0.05800589
v 0.09523258 -0.12284457 0.03852503
v 0.08750413 -0.12510535 0.02497284
v 0.08692341 -0.12513884 0.01920493
v 0.11032747 -0.11444742 0.06536958
v 0.09801500 -0.12269500 0.02187200
v 0.10784053 -0.11101475 0.07545364
v 0.08041523 -0.12478225 0.00774787
v 0.07283175 -0.12742224 0.02091750
v 0.07545825 -0.12701975 0.01643875
v 0.08624029 -0.12483300 0.01257405
v 0.16044343 -0.08847928 0.07768618
v 0.01150550 -0.13277700 0.03279750
v 0.00637300 -0.13282900 0.03326300
v -0.01573565 -0.13163629 0.04238220
v -0.02127729 -0.13189101 0.03846303
v -0.01810565 -0.13018975 0.05153754
v 0.00886838 -0.13248932 0.03727365
v 0.04842923 -0.12873755 0.04828846
v 0.03572325 -0.12979010 0.04860749
v 0.00492137 -0.12982593 0.05375122
v -0.02632717 -0.12835448 0.05803370
v 0.06636728 -0.12502488 0.05731872
v 0.04832856 -0.12992449 0.04057323
v 0.04933700 -0.13040900 0.02888100
v 0.06907445 -0.12565256 0.05287194
v 0.03542650 -0.12835174 0.05526412
v 0.07408996 -0.12711066 0.03623192
v 0.08301749 -0.12511577 0.04038121
v 0.06517000 -0.12901651 0.02922550
v 0.02919712 -0.12762500 0.05948377
v 0.07828101 -0.12295659 0.05777204
v 0.00577696 -0.12800261 0.05980334
v 0.08448987 -0.11951514 0.06560085
v 0.09571200 -0.11650400 0.06824800
v 0.09278955 -0.11995122 0.05951589
v 0.10569448 -0.11456346 0.06771194
v 0.06603733 -0.12053284 0.06930322
v 0.08623406 -0.11692521 0.07207871
v -0.04072867 -0.13047047 0.04298918
v 0.12392203 -0.10607276 0.07635808
v 0.02385473 -0.12435302 0.06696564
v 0.10740912 -0.10897911 0.07866315
v -0.01733846 -0.12320233 0.06954292
v 0.06540557 -0.11832240 0.07295642
v 0.09345178 -0.11262789 0.07703843
v 0.13870958 -0.09964667 0.07867959
v 0.08289505 -0.11526565 0.07495127
v 0.13704133 -0.09770443 0.08248914
v 0.13047957 -0.10067395 0.08152879
v 0.14896784 -0.09302081 0.08182991
v 0.07070786 -0.11402283 0.07716176
v 0.09541371 -0.10882642 0.08059253
v 0.03820238 -0.11935856 0.07282904
v 0.03196544 -0.12191856 0.07045414
v 0.11624855 -0.10475097 0.08159251
f 97 3 2
f 4 3 97
f 79 4 97
f 74 79 97
f 74 97 72
f 72 97 73
f 73 97 1
f 73 1 75
f 75 72 73
f 74 72 75
f 78 74 75
f 88 78 75
f 88 90 78
f 88 99 90
f 99 101 90
f 112 101 99
f 111 101 112
f 109 111 112
f 109 112 102
f 102 112 95
f 112 88 95
f 95 88 96
f 96 105 95
f 103 105 96
f 103 109 105
f 110 109 103
f 110 8 109
f 7 8 110
f 9 7 110
f 113 9 110
f 113 110 100
f 100 64 113
f 113 64 98
f 107 113 98
f 106 113 107
f 106 10 113
f 108 10 106
f 108 106 104
f 108 104 36
f 69 108 36
f 13 108 69
f 13 69 38
f 11 13 38
f 11 38 24
f 24 38 26
f 38 37 26
f 38 36 37
f 36 39 37
f 37 39 41
f 39 40 41
f 40 55 41
f 55 45 41
f 55 57 45
f 55 52 57
f 52 58 57
f 58 56 57
f 56 58 59
f 58 86 59
f 86 85 59
f 85 87 59
f 85 35 87
f 81 35 85
f 83 81 85
f 93 83 85
f 58 93 85
f 62 93 58
f 62 94 93
f 94 92 93
f 96 92 94
f 64 96 94
f 96 91 92
f 91 96 80
f 93 91 80
f 80 89 93
f 89 80 83
f 80 77 83
f 83 77 76
f 76 77 81
f 81 77 33
f 33 32 81
f 81 32 82
f 82 32 34
f 75 33 77
f 84 75 77
f 33 75 70
f 75 71 70
f 75 31 71
f 80 84 77
f 88 84 80
f 91 93 92
f 64 94 62
f 55 62 58
f 89 83 93
f 83 76 81
f 35 81 82
f 60 59 87
f 87 66 60
f 60 66 61
f 61 66 67
f 61 67 65
f 61 65 68
f 23 68 65
f 23 61 68
f 63 61 23
f 51 61 63
f 51 63 23
f 51 23 22
f 51 22 53
f 50 51 53
f 47 50 53
f 47 53 44
f 44 53 19
f 44 19 18
f 29 44 18
f 29 43 44
f 30 43 29
f 42 43 30
f 42 47 43
f 42 46 47
f 46 48 47
f 47 48 51
f 49 51 48
f 49 46 51
f 46 54 51
f 54 59 51
f 46 59 54
f 57 59 46
f 48 46 49
f 42 41 46
f 30 25 42
f 37 42 25
f 25 30 29
f 28 25 29
f 28 29 15
f 15 29 16
f 29 17 16
f 25 28 15
f 14 25 15
f 27 25 14
f 12 25 27
f 12 24 25
f 12 27 14
f 17 29 18
f 43 47 44
f 47 51 50
f 53 22 19
f 22 23 21
f 21 23 20
f 51 60 61
f 59 60 51
f 58 85 86
f 56 59 57
f 55 58 52
f 57 46 45
f 41 45 46
f 40 62 55
f 40 98 62
f 104 98 40
f 37 41 42
f 36 40 39
f 26 37 25
f 24 26 25
f 11 24 12
f 69 36 38
f 104 40 36
f 10 108 13
f 106 107 104
f 107 98 104
f 98 64 62
f 64 100 96
f 10 9 113
f 8 5 109
f 5 111 109
f 5 6 111
f 110 103 100
f 100 103 96
f 96 88 80
f 105 102 95
f 109 102 105
f 6 101 111
f 6 4 101
f 101 79 90
f 112 99 88
f 78 90 79
f 84 88 75
f 79 74 78
f 101 4 79
f 97 2 1

