v -0.103889 0.111517 0.194976
v -0.158249 0.0928273 0.14955
v -0.14383 0.094632 0.160269
v -0.151066 0.0937846 0.154906
v -0.14774 0.0912905 0.167709
v -0.155152 0.0902059 0.162161
v -0.160695 0.0916377 0.169091
v -0.145701 0.095351 0.180233
v -0.153196 0.0935122 0.174649
v -0.138244 0.0978356 0.185361
v -0.136511 0.0964922 0.165681
v -0.129564 0.0994756 0.170594
v -0.109105 0.113616 0.201955
v -0.123487 0.104998 0.194173
v -0.130855 0.101305 0.189843
v -0.116115 0.108674 0.198515
v -0.167802 0.091774 0.162619
v -0.165582 0.0988346 0.171876
v -0.172043 0.0967702 0.164558
v -0.182363 0.103004 0.157869
v -0.1784 0.0948363 0.156984
v -0.188471 0.10217 0.148876
v -0.186953 0.121447 0.157471
v -0.185034 0.111981 0.15794
v -0.177677 0.133474 0.171089
v -0.183225 0.132141 0.164245
v -0.181332 0.122702 0.164611
v -0.183589 0.14261 0.163467
v -0.188647 0.141606 0.156491
v -0.188316 0.131115 0.157279
v -0.193704 0.140603 0.149516
v -0.193238 0.130833 0.149921
v -0.198718 0.139836 0.142415
v -0.198138 0.130662 0.142505
v -0.203196 0.130643 0.13504
v -0.208152 0.121914 0.127519
v -0.203829 0.139769 0.134938
v -0.208709 0.130935 0.127441
v -0.17353 0.144373 0.177498
v -0.168127 0.146341 0.183526
v -0.153557 0.143719 0.196634
v -0.146953 0.146826 0.202057
v -0.136127 0.142064 0.20684
v -0.143418 0.138488 0.202383
v -0.150452 0.135226 0.197094
v -0.157048 0.132215 0.191211
v -0.163452 0.129273 0.18521
v -0.16989 0.126501 0.178948
v -0.17342 0.115605 0.172549
v -0.176406 0.104709 0.165765
v -0.166953 0.118068 0.179314
v -0.153481 0.123844 0.191359
v -0.160323 0.120748 0.185698
v -0.156358 0.112489 0.185288
v -0.149499 0.115559 0.191181
v -0.146582 0.126959 0.197057
v -0.14227 0.118928 0.196311
v -0.139333 0.130407 0.20189
v -0.131995 0.133927 0.206432
v -0.155689 0.152411 0.194996
v -0.160101 0.140714 0.190871
v -0.166231 0.137762 0.184754
v -0.162075 0.14941 0.18928
v -0.12249 0.102987 0.175077
v -0.208669 0.13933 0.127613
v -0.21364 0.131014 0.120205
v -0.213604 0.12219 0.11996
v -0.218564 0.123212 0.112617
v -0.21877 0.114365 0.111972
v -0.218955 0.105493 0.110603
v -0.219054 0.0965855 0.109076
v -0.218983 0.0875999 0.107351
v -0.218911 0.0786143 0.105627
v -0.218833 0.0696207 0.103895
v -0.218591 0.0605711 0.101968
v -0.218324 0.0515086 0.099936
v -0.11095 0.106796 0.191304
v -0.125375 0.0986638 0.183047
v -0.118029 0.102312 0.187387
v -0.2106 -0.0111111 0.0832984
v -0.206775 -0.0124777 0.0914847
v -0.204619 -0.0211709 0.0890085
v -0.208313 -0.00369515 0.0938836
v -0.204842 0.0220012 0.107066
v -0.204193 0.0131369 0.105079
v -0.203242 0.00432856 0.102862
v -0.201922 -0.00443176 0.100417
v -0.200601 -0.0131921 0.0979717
v -0.197362 0.0394361 0.114215
v -0.198048 0.0482875 0.116982
v -0.191519 0.0837855 0.130576
v -0.198639 0.0572325 0.11985
v -0.19914 0.0663168 0.122428
v -0.192146 0.0927054 0.133417
v -0.201291 0.111522 0.133271
v -0.200921 0.102432 0.131358
v -0.20055 0.0933413 0.129445
v -0.200137 0.0842993 0.127285
v -0.206835 0.057968 0.115791
v -0.20751 0.0853088 0.121472
v -0.207351 0.0761723 0.119663
v -0.207192 0.0670359 0.117854
v -0.195901 0.111297 0.141592
v -0.199689 0.0752858 0.124964
v -0.206378 0.048945 0.113584
v -0.205898 0.0399367 0.111368
v -0.205418 0.0309284 0.109153
v -0.212062 0.0229767 0.101193
v -0.210994 0.0140067 0.0987041
v -0.209679 0.00513339 0.0962799
v -0.201868 -0.0295955 0.0865838
v -0.20833 -0.0198124 0.0809057
v -0.205489 -0.0284991 0.0784633
v -0.213515 0.0591514 0.109532
v -0.213157 0.0501059 0.107446
v -0.212799 0.0410605 0.105361
v -0.21244 0.0320151 0.103275
v -0.207659 0.103517 0.124957
v -0.207638 0.0944335 0.123257
v -0.213767 0.0955175 0.11649
v -0.213747 0.0864337 0.11479
v -0.213727 0.0773498 0.11309
v -0.213706 0.068266 0.11139
v -0.207487 0.112439 0.126512
v -0.213279 0.11324 0.11949
v -0.213537 0.104391 0.118001
v -0.197276 0.121156 0.142024
v -0.202205 0.121018 0.134664
v -0.178579 0.143542 0.170487
v -0.172048 0.135084 0.178079
v -0.175705 0.124308 0.171599
v -0.179361 0.113531 0.165119
v -0.192235 0.121225 0.149601
v -0.190813 0.111284 0.14957
v -0.19402 0.101904 0.139797
v -0.163173 0.109481 0.179441
v -0.16982 0.107096 0.172529
v -0.151899 0.1045 0.184357
v -0.15889 0.101364 0.178541
v -0.162659 0.0893504 0.156486
v -0.14018 0.0929708 0.173207
v -0.132733 0.0952973 0.178692
f 4 6 140 2
f 11 141 5 3
f 5 6 4 3
f 141 8 9 5
f 9 7 6 5
f 7 17 140 6
f 141 142 10 8
f 142 78 15 10
f 16 77 1 13
f 15 78 79 14
f 79 77 16 14
f 139 136 137 18
f 137 50 19 18
f 50 20 21 19
f 50 132 24 20
f 24 134 22 20
f 134 103 135 22
f 133 134 24 23
f 24 132 27 23
f 27 26 30 23
f 30 32 133 23
f 26 27 131 25
f 131 48 130 25
f 130 39 129 25
f 129 28 26 25
f 28 29 30 26
f 132 49 131 27
f 31 32 30 29
f 33 34 32 31
f 34 127 133 32
f 37 35 34 33
f 35 128 127 34
f 38 36 128 35
f 37 65 38 35
f 67 125 124 36
f 124 95 128 36
f 38 66 67 36
f 130 62 40 39
f 62 61 63 40
f 61 46 45 41
f 45 44 42 41
f 60 63 61 41
f 44 58 59 43
f 45 56 58 44
f 46 52 56 45
f 47 53 52 46
f 61 62 47 46
f 48 51 53 47
f 62 130 48 47
f 131 49 51 48
f 132 50 137 49
f 137 136 51 49
f 136 54 53 51
f 53 54 55 52
f 55 57 56 52
f 136 139 138 54
f 68 69 125 67
f 70 126 125 69
f 71 120 126 70
f 72 121 120 71
f 73 122 121 72
f 74 123 122 73
f 75 114 123 74
f 76 115 114 75
f 112 82 81 80
f 88 87 83 81
f 112 113 111 82
f 87 86 110 83
f 108 109 85 84
f 107 117 108 84
f 109 110 86 85
f 90 105 106 89
f 92 99 105 90
f 94 97 98 91
f 93 102 99 92
f 104 101 102 93
f 124 118 96 95
f 103 127 128 95
f 118 119 97 96
f 119 100 98 97
f 100 101 104 98
f 114 115 105 99
f 102 123 114 99
f 121 122 101 100
f 119 120 121 100
f 122 123 102 101
f 134 133 127 103
f 115 116 106 105
f 116 117 107 106
f 126 120 119 118
f 124 125 126 118
f 11 12 142 141
f 12 64 78 142
