# https://github.com/mikedh/trimesh
v 0.07315500 -0.10657200 0.07879600
v -0.11490100 -0.09412000 0.09540000
v -0.10743700 -0.07082250 0.15061549
v 0.01414700 -0.04963100 0.18770599
v 0.05826950 -0.06168200 0.17236950
v 0.06736425 -0.06195175 0.17064226
v 0.08399000 -0.06254100 0.16636200
v 0.11378000 -0.06144300 0.15494800
v 0.03039550 -0.05486400 0.18141151
v 0.12710850 -0.06190650 0.14543199
v 0.14292701 -0.05970900 0.13263100
v -0.01117300 -0.05591500 0.18278299
v -0.06390287 -0.06682800 0.16731100
v -0.08810800 -0.06647100 0.16229700
v -0.09341150 -0.06834600 0.15899900
v -0.10189900 -0.07106200 0.15314201
v 0.13688191 -0.06464470 0.13457383
v 0.13946612 -0.06546400 0.13045375
v 0.12641512 -0.07319234 0.13491725
v 0.12862000 -0.07685550 0.12676525
v 0.12805850 -0.06800100 0.13921100
v 0.11437800 -0.08717200 0.12124000
v 0.10255220 -0.08913206 0.12684983
v 0.11643800 -0.07905500 0.13477799
v 0.10322297 -0.08202798 0.13918151
v 0.09278275 -0.07918103 0.14777558
v 0.07877200 -0.08681275 0.14171850
v 0.09916150 -0.08399900 0.13805050
v 0.09593100 -0.06995000 0.15661000
v 0.08570875 -0.09226081 0.12911112
v 0.08473471 -0.08589009 0.14181956
v 0.07620575 -0.09465375 0.12875467
v 0.07324000 -0.09929150 0.11833750
v 0.07024514 -0.10052921 0.11651126
v 0.06134362 -0.10019588 0.12021013
v 0.08713926 -0.10127982 0.10159108
v 0.05320300 -0.10456000 0.10934225
v 0.07507016 -0.10279691 0.10655283
v 0.02874343 -0.11012978 0.09216684
v 0.03703500 -0.11059900 0.07594500
v 0.00581944 -0.11167683 0.07482143
v 0.01323500 -0.11101600 0.08590350
v 0.01682778 -0.11172114 0.07428530
v -0.00978100 -0.11116300 0.08564500
v 0.01520913 -0.11010188 0.09299900
v -0.00179376 -0.11120978 0.08670812
v 0.00365076 -0.11001674 0.09635987
v 0.02533000 -0.10805800 0.10313000
v -0.04931192 -0.10828661 0.09443179
v -0.05189245 -0.10751194 0.09741661
v -0.02441238 -0.11042324 0.09027441
v -0.07788975 -0.10396925 0.09674675
v -0.03534123 -0.11062765 0.07633713
v -0.02092551 -0.10529968 0.11465901
v -0.02078589 -0.10440176 0.11801797
v 0.06329600 -0.10945300 0.07772000
v -0.04422507 -0.10436330 0.11359477
v 0.00209500 -0.10865050 0.10315200
v 0.05845345 -0.10590264 0.10211303
v 0.07076300 -0.10372100 0.10453300
v 0.02997766 -0.10501105 0.11429318
v 0.00670086 -0.10453643 0.11770444
v 0.01518374 -0.10672929 0.11026566
v 0.04204200 -0.10408700 0.11459200
v 0.04833400 -0.09959400 0.12524700
v 0.02803503 -0.10249352 0.12164105
v 0.04110804 -0.09741568 0.13150059
v 0.04346287 -0.09123888 0.14239656
v 0.03055700 -0.09123700 0.14362000
v 0.05513125 -0.09429700 0.13492175
v 0.03696350 -0.08679150 0.14968200
v 0.05303671 -0.08484676 0.15075441
v 0.06454079 -0.08368296 0.15006261
v 0.07496645 -0.07815815 0.15463942
v 0.08166700 -0.08322400 0.14617400
v 0.10060693 -0.07648502 0.14768283
v -0.05228902 -0.10106189 0.12143989
v -0.05501874 -0.10455975 0.10947233
v -0.06768977 -0.10294889 0.10953736
v -0.07895423 -0.10173069 0.10723518
v -0.05648413 -0.10563137 0.10331912
v -0.00465944 -0.10675163 0.11051700
v 0.01992165 -0.07074383 0.16957682
v 0.02241540 -0.05746042 0.18067005
v 0.00652214 -0.06277657 0.17767368
v -0.00264323 -0.06253116 0.17783016
v -0.04465062 -0.09632852 0.13328637
v -0.06297567 -0.09588587 0.13058512
v -0.03767550 -0.10205900 0.12142450
v 0.13723800 -0.06774100 0.13038200
v 0.05269851 -0.06881730 0.16784478
v 0.06343900 -0.06809700 0.16670200
v -0.10211417 -0.09648572 0.10682205
v -0.10142735 -0.09479193 0.11364361
v -0.10319588 -0.09307025 0.11643225
v -0.10929286 -0.08597792 0.12867767
v -0.09853451 -0.08885373 0.13008499
v -0.01778221 -0.11192852 0.07437193
v -0.04262300 -0.10555900 0.10979600
v -0.02128200 -0.11162500 0.07491400
v 0.09277225 -0.09521850 0.11836300
v -0.11405675 -0.09182100 0.10807400
v 0.11283575 -0.08157813 0.13327912
v -0.00051845 -0.10767762 0.10748264
v -0.06121751 -0.10805009 0.08056710
v -0.10556051 -0.09863720 0.08327766
v -0.10028600 -0.10053800 0.08272000
v -0.08570200 -0.10379900 0.08166700
v -0.07758900 -0.10566650 0.07974250
v 0.06208900 -0.06437700 0.16988499
v -0.00269569 -0.11163621 0.07797071
v -0.00315921 -0.08297140 0.15680502
v -0.02075825 -0.08595042 0.15232658
v 0.01456487 -0.08430525 0.15444450
v 0.00504468 -0.07813155 0.16258679
v -0.00273300 -0.07388800 0.16705699
v -0.02913231 -0.07920394 0.15997812
v 0.03392714 -0.08026016 0.15860987
v 0.01919951 -0.08978564 0.14667989
v 0.01586888 -0.09600103 0.13651340
v -0.00988525 -0.10112950 0.12592624
v 0.02287300 -0.09583100 0.13623900
v -0.06230679 -0.08992532 0.14131838
v -0.08928900 -0.08003400 0.14789800
v -0.10127893 -0.07824271 0.14551167
v -0.09879077 -0.07394207 0.15145031
v -0.10630300 -0.07454700 0.14718799
v -0.11389844 -0.08193075 0.13144081
v -0.09339900 -0.07427050 0.15306350
v -0.10694425 -0.07855056 0.14194943
v -0.09121825 -0.08578125 0.13859625
v -0.08367815 -0.08531158 0.14317135
v -0.07595500 -0.09173550 0.13405475
v -0.06357716 -0.07936705 0.15588196
v -0.04745701 -0.08615806 0.14967249
v -0.04149542 -0.07012605 0.16824111
v -0.04601417 -0.07554728 0.16262902
v -0.07313402 -0.07085889 0.16289486
v -0.03965057 -0.07633243 0.16233223
v 0.05094700 -0.07488425 0.16218499
v -0.06950689 -0.08446602 0.14786162
v -0.02243210 -0.09508557 0.13806982
v -0.01885800 -0.09932000 0.12950400
v -0.00558481 -0.09269231 0.14233325
v -0.01579956 -0.09247104 0.14269552
v -0.03449000 -0.09413700 0.13855600
v -0.02653825 -0.10968375 0.09411325
v -0.03291600 -0.08890200 0.14711800
v -0.01388813 -0.07240622 0.16833558
v -0.01902331 -0.06580319 0.17399051
v -0.03441175 -0.08652825 0.15034175
v 0.07042550 -0.10457075 0.10048175
v 0.07330558 -0.10556501 0.09162683
v 0.08272688 -0.10316037 0.09504825
v 0.07727950 -0.10525800 0.08395550
v 0.06370966 -0.09353434 0.13494208
v 0.05448700 -0.09887300 0.12559301
v -0.04921400 -0.10886300 0.08896800
v 0.06757000 -0.07025800 0.16406800
v 0.06728700 -0.07453000 0.16004400
v 0.01958350 -0.10198200 0.12344550
v -0.00759600 -0.06790600 0.17286199
v -0.07469567 -0.10596689 0.08566742
v -0.07293546 -0.10645469 0.07882411
v -0.09796401 -0.10027728 0.09257331
v -0.09649162 -0.09916900 0.10036288
v -0.11230508 -0.09465499 0.09944316
v 0.08265587 -0.09710485 0.11974933
v -0.04441583 -0.09095758 0.14279996
v 0.11472551 -0.07459105 0.14231785
v 0.12043750 -0.06954088 0.14361250
v 0.11203400 -0.07285000 0.14577800
v 0.04181117 -0.10662323 0.10547908
v -0.07766375 -0.09626764 0.12461116
v -0.09147737 -0.09561912 0.11806650
v -0.08198200 -0.09815900 0.11714300
v -0.08466337 -0.09201988 0.13019850
v 0.11712820 -0.08352086 0.12686298
v -0.04335912 -0.09375700 0.13791413
v -0.00925167 -0.05937668 0.18024407
v -0.06227425 -0.08268612 0.15157688
v 0.10802150 -0.07128975 0.14957950
v -0.02471841 -0.10806830 0.10405338
v 0.06621700 -0.08961700 0.14091900
v 0.06787200 -0.06483350 0.16851401
v 0.10976400 -0.08972650 0.11919650
v -0.08770400 -0.10138900 0.10054900
v -0.05621150 -0.07285600 0.16359000
v 0.08322150 -0.07538200 0.15524425
v 0.10059700 -0.09820800 0.09974900
v 0.12522750 -0.06601900 0.14352001
v 0.11826063 -0.06575145 0.14887389
v 0.10630425 -0.09335600 0.11181675
v 0.09779271 -0.09842019 0.10354639
v 0.10116051 -0.09439875 0.11482994
v 0.09595900 -0.09679700 0.11111900
v -0.04609650 -0.10087800 0.12289500
v 0.01958319 -0.06096128 0.17822275
v -0.11087175 -0.08712900 0.12428675
v -0.07681700 -0.07404350 0.15841300
v -0.07311575 -0.09993200 0.11652600
v -0.05623625 -0.08835250 0.14485487
v 0.04217800 -0.07234600 0.16586600
v 0.11600150 -0.07626150 0.13903100
v 0.04935256 -0.10890132 0.08744479
v 0.10472625 -0.07348875 0.14895975
v -0.08256800 -0.10430100 0.08571300
v 0.07737500 -0.10538900 0.07986200
v -0.04075100 -0.10734100 0.10282900
v 0.00717350 -0.10540700 0.11492600
v -0.03782275 -0.09033200 0.14447525
v -0.06441105 -0.10781809 0.07767029
v -0.10867100 -0.09767850 0.08407200
f 128 130 127
f 125 130 128
f 125 128 132
f 132 128 131
f 132 131 133
f 132 133 88
f 133 174 88
f 177 174 133
f 174 177 175
f 177 97 175
f 131 97 177
f 131 96 97
f 96 94 97
f 96 95 94
f 96 199 95
f 199 96 128
f 95 102 94
f 94 102 93
f 93 102 167
f 167 102 2
f 167 2 213
f 165 167 213
f 165 213 107
f 107 213 106
f 165 107 207
f 163 165 207
f 163 207 108
f 163 108 109
f 163 109 164
f 49 163 164
f 49 164 158
f 158 164 105
f 105 164 212
f 158 105 53
f 51 158 53
f 44 51 53
f 53 100 44
f 100 53 98
f 46 51 44
f 47 51 46
f 47 183 51
f 51 183 147
f 147 183 49
f 183 50 49
f 209 50 183
f 183 81 209
f 99 81 183
f 55 99 183
f 54 55 183
f 54 183 82
f 82 183 58
f 104 82 58
f 82 104 63
f 210 82 63
f 210 62 82
f 62 210 61
f 66 62 61
f 55 62 66
f 161 55 66
f 66 122 161
f 67 122 66
f 68 122 67
f 69 122 68
f 69 120 122
f 122 120 121
f 120 144 121
f 119 144 120
f 114 144 119
f 112 144 114
f 112 113 144
f 144 113 145
f 144 145 142
f 144 142 143
f 142 179 143
f 146 179 142
f 142 211 146
f 148 211 142
f 113 148 142
f 113 151 148
f 113 117 151
f 117 135 151
f 151 135 211
f 211 135 169
f 169 179 211
f 135 179 169
f 179 135 202
f 179 202 88
f 202 123 88
f 132 123 202
f 202 141 132
f 181 141 202
f 181 132 141
f 134 132 181
f 134 181 135
f 137 134 135
f 188 134 137
f 136 188 137
f 136 138 188
f 150 138 136
f 150 13 138
f 13 14 138
f 14 15 138
f 138 15 129
f 200 138 129
f 138 200 134
f 200 129 134
f 150 136 137
f 137 139 150
f 150 139 117
f 149 150 117
f 162 150 149
f 86 150 162
f 85 86 162
f 85 162 116
f 83 85 116
f 116 115 83
f 149 115 116
f 115 149 112
f 118 83 115
f 115 114 118
f 83 118 203
f 203 118 140
f 91 203 140
f 198 203 91
f 84 198 91
f 84 85 198
f 84 4 85
f 12 85 4
f 12 180 85
f 12 150 180
f 4 84 9
f 9 84 5
f 5 84 110
f 110 84 91
f 110 91 185
f 91 92 185
f 92 91 159
f 91 140 159
f 160 140 118
f 160 118 72
f 74 160 72
f 7 160 74
f 7 159 160
f 185 159 7
f 6 185 7
f 7 74 189
f 189 74 75
f 74 73 75
f 73 72 75
f 75 72 184
f 72 156 184
f 27 184 156
f 27 156 31
f 31 156 32
f 32 156 35
f 35 156 157
f 156 65 157
f 156 67 65
f 70 67 156
f 156 68 70
f 65 67 64
f 65 64 35
f 32 35 168
f 168 35 33
f 168 33 34
f 168 34 38
f 101 168 38
f 30 168 101
f 23 30 101
f 23 101 195
f 195 101 196
f 195 196 194
f 196 38 194
f 38 36 194
f 36 154 194
f 190 194 154
f 193 194 190
f 36 152 154
f 154 152 153
f 154 153 155
f 153 56 155
f 155 56 208
f 56 1 208
f 153 205 56
f 56 205 40
f 39 40 205
f 152 39 205
f 59 39 152
f 152 60 59
f 38 60 152
f 60 38 59
f 37 59 38
f 37 173 59
f 37 61 173
f 173 61 39
f 61 48 39
f 61 63 48
f 48 63 58
f 48 58 47
f 47 45 48
f 39 48 45
f 45 42 39
f 42 45 46
f 42 46 41
f 46 111 41
f 41 111 98
f 44 98 111
f 42 41 39
f 43 39 41
f 64 61 37
f 38 35 37
f 173 39 59
f 39 43 40
f 153 152 205
f 38 152 36
f 195 194 193
f 195 193 23
f 23 193 186
f 178 23 186
f 178 186 22
f 20 178 22
f 19 178 20
f 19 24 178
f 24 103 178
f 171 24 19
f 21 171 19
f 17 21 19
f 10 21 17
f 10 191 21
f 191 10 171
f 10 192 171
f 10 8 192
f 11 10 17
f 11 17 18
f 18 17 19
f 18 19 90
f 90 19 20
f 103 23 178
f 25 23 103
f 170 25 103
f 204 170 103
f 170 204 171
f 171 172 170
f 172 182 170
f 182 206 170
f 206 76 170
f 29 76 206
f 29 26 76
f 76 26 31
f 76 31 25
f 25 31 28
f 28 31 30
f 26 75 31
f 26 29 75
f 170 76 25
f 28 23 25
f 23 28 30
f 101 38 196
f 34 35 38
f 35 34 33
f 30 32 168
f 31 32 30
f 75 27 31
f 72 68 156
f 7 189 29
f 74 72 73
f 72 118 71
f 118 119 71
f 71 119 72
f 119 69 72
f 203 198 83
f 198 85 83
f 85 180 86
f 180 150 86
f 162 149 116
f 149 117 112
f 139 137 117
f 138 134 188
f 129 132 134
f 129 124 132
f 129 125 124
f 129 126 125
f 129 16 126
f 16 125 126
f 16 3 125
f 125 3 127
f 179 88 87
f 87 88 77
f 87 77 197
f 197 77 89
f 89 77 55
f 143 89 55
f 121 143 55
f 55 77 57
f 77 78 57
f 77 79 78
f 78 79 81
f 79 80 81
f 80 187 81
f 80 166 187
f 187 166 52
f 52 166 165
f 94 166 80
f 175 94 80
f 201 175 80
f 201 80 79
f 77 201 79
f 174 201 77
f 201 174 176
f 57 78 99
f 181 202 135
f 117 137 135
f 113 142 145
f 112 117 113
f 115 112 114
f 118 114 119
f 119 120 69
f 72 69 68
f 68 67 70
f 67 66 64
f 161 121 55
f 66 61 64
f 62 55 82
f 61 210 63
f 63 104 58
f 55 54 82
f 57 99 55
f 99 78 81
f 209 81 50
f 50 81 163
f 81 52 163
f 147 49 51
f 47 58 183
f 47 46 45
f 46 44 111
f 51 49 158
f 50 163 49
f 52 165 163
f 166 167 165
f 93 167 166
f 94 93 166
f 175 97 94
f 176 174 175
f 174 77 88
f 123 132 88
f 131 128 96
f 124 125 132
f 125 127 130

