v -0.194438 -0.0565485 0.0700045
v -0.192079 -0.0501559 0.0857536
v -0.185836 -0.0699094 0.066281
v -0.180019 -0.061556 0.0887199
v -0.176353 -0.0681695 0.0873361
v -0.172041 -0.0742947 0.0858805
v -0.161747 -0.0848081 0.0824728
v -0.15627 -0.0895013 0.0807217
v -0.167221 -0.0799834 0.0842343
v -0.175619 -0.0755265 0.0790419
v -0.18038 -0.0697703 0.0808015
v -0.170592 -0.0813516 0.077337
v -0.173254 -0.0818148 0.0699696
v -0.178443 -0.0761189 0.071805
v -0.180931 -0.0758906 0.0644185
v -0.175694 -0.0816169 0.0625574
v -0.170178 -0.0871693 0.0605867
v -0.177667 -0.0810675 0.0549685
v -0.172152 -0.0866199 0.0529978
v -0.183177 -0.0754927 0.0569507
v -0.188044 -0.0692476 0.0589201
v -0.190175 -0.0633238 0.0681462
v -0.195227 -0.0500729 0.0786592
v -0.191861 -0.0572041 0.0772195
v -0.184941 -0.074478 0.0495322
v -0.181075 -0.0790007 0.039968
v -0.17711 -0.0834278 0.0304229
v -0.16984 -0.0901021 0.0358762
v -0.168181 -0.0911005 0.0434337
v -0.161814 -0.0956593 0.0414609
v -0.163387 -0.0946985 0.0339145
v -0.15671 -0.0989649 0.0320032
v -0.150033 -0.103231 0.0300919
v -0.158367 -0.0980888 0.0243983
v -0.164997 -0.0936827 0.0263299
v -0.159815 -0.0968453 0.0168378
v -0.160954 -0.0951501 0.00932417
v -0.166339 -0.0922598 0.0187977
v -0.154361 -0.0996488 0.00738296
v -0.155484 -0.097748 -7.80805e-05
v -0.148708 -0.101771 -0.00198448
v -0.149827 -0.0997714 -0.00944095
v -0.147457 -0.103552 0.00551264
v -0.140303 -0.107059 0.00369945
v -0.141782 -0.10566 -0.00386894
v -0.138872 -0.108333 0.0113055
v -0.133152 -0.110555 0.00188942
v -0.146041 -0.104856 0.0131013
v -0.142991 -0.106891 0.0282947
v -0.144608 -0.10606 0.0206751
v -0.132478 -0.110935 0.0418127
v -0.141339 -0.107435 0.0359194
v -0.13418 -0.110792 0.0341811
v -0.139558 -0.107476 0.0435489
v -0.14843 -0.104042 0.0376644
v -0.137795 -0.107613 0.051105
v -0.130697 -0.11093 0.0494127
v -0.146633 -0.104118 0.045286
v -0.144799 -0.104266 0.0528648
v -0.153445 -0.100405 0.0471281
v -0.149356 -0.100297 0.0623707
v -0.151474 -0.100408 0.0547548
v -0.157961 -0.0963572 0.0566892
v -0.155789 -0.0962149 0.0643003
v -0.153364 -0.0956848 0.0717981
v -0.144302 -0.0978743 0.0770038
v -0.138103 -0.101445 0.0753581
v -0.135318 -0.0986886 0.0821154
v -0.141364 -0.0949543 0.0836506
v -0.129115 -0.102056 0.0806807
v -0.122803 -0.105046 0.079347
v -0.116038 -0.107424 0.0780456
v -0.183454 -0.0702201 0.073665
v -0.0812159 -0.117035 0.0725984
v -0.074004 -0.118246 0.0718887
v -0.066792 -0.119456 0.0711789
v -0.0884301 -0.115797 0.0732836
v -0.0753248 -0.121208 0.0645137
v -0.0678853 -0.122494 0.0638954
v -0.0602675 -0.123392 0.0637159
v -0.187893 -0.0638779 0.075539
v -0.18464 -0.0635477 0.0826599
v -0.188659 -0.0571316 0.0843788
v -0.0524075 -0.124188 0.0637688
v -0.0526663 -0.126719 0.0563185
v -0.0605735 -0.125901 0.0563261
v -0.0684895 -0.125001 0.0563554
v -0.07669 -0.125063 0.0489019
v -0.0909945 -0.120715 0.0579255
v -0.083514 -0.122157 0.0573877
v -0.0760335 -0.123599 0.05685
v -0.0844434 -0.12379 0.0492545
v -0.0920506 -0.122106 0.0500039
v -0.0985481 -0.11878 0.0591012
v -0.099712 -0.11998 0.0513358
v -0.105787 -0.116728 0.0604393
v -0.104286 -0.114888 0.0680179
v -0.0956433 -0.114407 0.0739718
v -0.0970992 -0.116973 0.0666704
v -0.118209 -0.110066 0.0708376
v -0.111307 -0.112543 0.0694044
v -0.125002 -0.107594 0.0721959
v -0.127013 -0.109102 0.0647188
v -0.120073 -0.111778 0.0632712
v -0.135981 -0.107284 0.0586614
v -0.113067 -0.11452 0.0617885
v -0.114576 -0.115515 0.0541757
v -0.107117 -0.117947 0.0527529
v -0.100914 -0.120979 0.0435787
v -0.123358 -0.113702 0.0478772
v -0.115876 -0.116128 0.0464444
v -0.108394 -0.118554 0.0450117
v -0.117518 -0.116542 0.0386397
v -0.109994 -0.11888 0.0371754
v -0.11152 -0.119055 0.0292844
v -0.126706 -0.113687 0.0325449
v -0.11911 -0.116385 0.0309083
v -0.125048 -0.113909 0.0401682
v -0.120845 -0.116041 0.0232028
v -0.128407 -0.1133 0.0248511
v -0.130006 -0.112536 0.017207
v -0.122538 -0.115442 0.0155217
v -0.124076 -0.114325 0.00786931
v -0.116489 -0.116857 0.00621964
v -0.108902 -0.11939 0.00456998
v -0.125645 -0.113184 0.000192419
v -0.118115 -0.115702 -0.00149964
v -0.110584 -0.11822 -0.00319169
v -0.11974 -0.114379 -0.00919072
v -0.112212 -0.116715 -0.0109357
v -0.104736 -0.119034 -0.0127395
v -0.106455 -0.117672 -0.0205401
v -0.113862 -0.115251 -0.0186827
v -0.128533 -0.109678 -0.0150248
v -0.121244 -0.112717 -0.0168282
v -0.135828 -0.106703 -0.0132152
v -0.12254 -0.110542 -0.0243675
v -0.115211 -0.113331 -0.026196
v -0.10781 -0.115654 -0.0280638
v -0.150497 -0.0937896 0.0788503
v -0.103011 -0.120331 -0.00491963
v -0.0952711 -0.122022 -0.00652107
v -0.0920884 -0.126244 0.00942371
v -0.101275 -0.121706 0.00299581
v -0.0936341 -0.123936 0.00144594
v -0.0996684 -0.123487 0.0109319
v -0.107236 -0.120577 0.0124251
v -0.114945 -0.117994 0.013883
v -0.113255 -0.11876 0.0215947
v -0.10564 -0.121581 0.0201229
v -0.0980247 -0.124403 0.0186511
v -0.0945737 -0.123047 0.0344613
v -0.0866827 -0.124994 0.0332052
v -0.103779 -0.121137 0.0279417
v -0.0958878 -0.123084 0.0266856
v -0.0852879 -0.124872 0.0411629
v -0.0785069 -0.126642 0.0325919
v -0.0799956 -0.126549 0.024344
v -0.0821106 -0.127831 0.0162289
v -0.0718133 -0.127843 0.0236913
v -0.0702725 -0.128068 0.0321311
v -0.088063 -0.125129 0.0253943
v -0.0902583 -0.126609 0.0173205
v -0.0932451 -0.123052 0.0422385
v -0.102442 -0.121165 0.0357196
v -0.0687416 -0.126204 0.0486722
v -0.0608815 -0.1273 0.048302
v -0.0772346 -0.126117 0.0407531
v -0.0693745 -0.127213 0.0403828
v -0.0615144 -0.12831 0.0400126
v -0.0530297 -0.128362 0.0481332
v -0.0621226 -0.129302 0.0317643
v -0.053548 -0.12927 0.0400472
v -0.167828 -0.0871058 0.0681105
v -0.165045 -0.0864329 0.075518
v -0.08991 -0.118592 0.065755
v -0.0826828 -0.120084 0.0651787
v -0.109271 -0.109799 0.0767321
v -0.102497 -0.112164 0.0753652
v -0.131595 -0.104727 0.0736772
v -0.140534 -0.103114 0.0680265
v -0.142821 -0.103985 0.0604875
v -0.147139 -0.0997285 0.0699415
v -0.161838 -0.0917017 0.0661816
v -0.16422 -0.091968 0.0586493
v -0.159457 -0.0914436 0.0737153
v -0.133929 -0.106216 0.0662932
v -0.128974 -0.110018 0.0571536
v -0.121883 -0.112826 0.0555687
v -0.135828 -0.110279 0.0265509
v -0.137415 -0.109491 0.0189109
v -0.1316 -0.111605 0.00954496
v -0.134515 -0.10876 -0.00567296
v -0.127219 -0.111756 -0.00747462
v -0.142976 -0.103548 -0.0113615
v -0.151543 -0.102151 0.0225084
v -0.153051 -0.101069 0.014925
v -0.15524 -0.0999713 0.0395254
v -0.166294 -0.0916534 0.0510481
v -0.16003 -0.0963259 0.0490528
v -0.171322 -0.0888649 0.0283558
v -0.17216 -0.0868567 0.0208895
v -0.167394 -0.0904605 0.0112996
v -0.17948 -0.0801565 0.0474885
v -0.173967 -0.0857767 0.0454638
v -0.175595 -0.0846568 0.0379332
f 23 24 83 2
f 82 11 5 4
f 11 10 6 5
f 10 12 9 6
f 175 186 8 7
f 9 12 175 7
f 186 65 140 8
f 14 13 12 10
f 11 73 14 10
f 82 81 73 11
f 13 174 175 12
f 16 17 174 13
f 14 15 16 13
f 73 3 15 14
f 20 18 16 15
f 3 21 20 15
f 18 19 17 16
f 19 199 185 17
f 185 184 174 17
f 204 205 19 18
f 20 25 204 18
f 205 29 199 19
f 3 73 81 22
f 81 24 1 22
f 81 82 83 24
f 206 205 204 26
f 201 28 206 27
f 201 35 31 28
f 31 30 29 28
f 29 205 206 28
f 30 200 199 29
f 31 32 198 30
f 198 60 200 30
f 35 34 32 31
f 34 196 33 32
f 33 55 198 32
f 196 50 49 33
f 49 52 55 33
f 36 197 196 34
f 35 38 36 34
f 201 202 38 35
f 37 39 197 36
f 38 203 37 36
f 40 41 43 39
f 43 48 197 39
f 42 195 45 41
f 45 44 43 41
f 44 46 48 43
f 45 193 47 44
f 47 192 46 44
f 195 136 193 45
f 192 121 191 46
f 191 50 48 46
f 193 194 126 47
f 126 123 192 47
f 50 196 197 48
f 50 191 190 49
f 190 53 52 49
f 53 116 118 51
f 118 110 57 51
f 57 56 54 51
f 54 52 53 51
f 54 58 55 52
f 190 120 116 53
f 56 59 58 54
f 58 60 198 55
f 57 188 105 56
f 105 182 59 56
f 110 189 188 57
f 59 62 60 58
f 182 61 62 59
f 62 63 200 60
f 182 181 183 61
f 183 65 64 61
f 64 63 62 61
f 64 184 185 63
f 185 199 200 63
f 65 186 184 64
f 183 66 140 65
f 183 181 67 66
f 67 68 69 66
f 181 187 180 67
f 180 70 68 67
f 180 102 71 70
f 102 100 72 71
f 100 101 178 72
f 177 78 75 74
f 77 176 177 74
f 78 79 76 75
f 98 99 176 77
f 91 87 79 78
f 177 90 91 78
f 87 86 80 79
f 86 85 84 80
f 86 167 171 85
f 87 166 167 86
f 91 88 166 87
f 168 169 166 88
f 91 90 92 88
f 92 156 168 88
f 93 92 90 89
f 90 177 176 89
f 176 99 94 89
f 94 95 93 89
f 93 164 156 92
f 95 109 164 93
f 99 97 96 94
f 96 108 95 94
f 108 112 109 95
f 97 101 106 96
f 106 107 108 96
f 99 98 179 97
f 179 178 101 97
f 104 106 101 100
f 102 103 104 100
f 180 187 103 102
f 188 189 104 103
f 187 105 188 103
f 189 107 106 104
f 187 181 182 105
f 111 112 108 107
f 189 110 111 107
f 165 152 164 109
f 112 114 165 109
f 118 113 111 110
f 113 114 112 111
f 117 115 114 113
f 118 116 117 113
f 115 154 165 114
f 149 150 154 115
f 117 119 149 115
f 120 119 117 116
f 122 148 149 119
f 120 121 122 119
f 190 191 121 120
f 192 123 122 121
f 123 124 148 122
f 126 127 124 123
f 127 128 125 124
f 125 147 148 124
f 128 141 144 125
f 144 146 147 125
f 194 129 127 126
f 129 130 128 127
f 130 131 141 128
f 135 133 130 129
f 194 134 135 129
f 133 132 131 130
f 133 138 139 132
f 135 137 138 133
f 194 193 136 134
f 142 145 144 141
f 163 151 146 143
f 146 144 145 143
f 151 150 147 146
f 150 149 148 147
f 151 155 154 150
f 163 162 155 151
f 155 162 153 152
f 153 156 164 152
f 165 154 155 152
f 162 158 157 153
f 157 168 156 153
f 158 160 161 157
f 161 169 168 157
f 162 163 159 158
f 172 170 169 161
f 169 170 167 166
f 170 173 171 167
f 186 175 174 184
