v -0.15768 0.208757 0.206121
v -0.14956 0.219811 0.209235
v -0.157512 0.217185 0.202733
v -0.164441 0.216217 0.196282
v -0.157095 0.226017 0.199357
v -0.163743 0.225503 0.19292
v -0.170391 0.224989 0.186484
v -0.177039 0.224475 0.180047
v -0.165219 0.20677 0.199558
v -0.172138 0.20571 0.192828
v -0.171102 0.215678 0.189832
v -0.173237 0.195718 0.195785
v -0.179351 0.20454 0.185914
v -0.178084 0.214594 0.183063
v -0.181841 0.184547 0.191488
v -0.18895 0.184018 0.18368
v -0.180615 0.194496 0.188755
v -0.187724 0.193966 0.180947
v -0.186497 0.203914 0.178215
v -0.185271 0.213862 0.175482
v -0.194653 0.193509 0.173354
v -0.192741 0.203731 0.171442
v -0.190828 0.213953 0.16953
v -0.183393 0.224019 0.173563
v -0.196014 0.214411 0.163343
v -0.197934 0.204249 0.165204
v -0.203076 0.205548 0.158323
v -0.20116 0.215381 0.156737
v -0.206303 0.21668 0.149856
v -0.218406 0.177458 0.149266
v -0.203095 0.184616 0.1663
v -0.209139 0.185937 0.158011
v -0.215182 0.187259 0.149722
v -0.199872 0.194417 0.166756
v -0.205915 0.195738 0.158467
v -0.211959 0.197059 0.150178
v -0.208736 0.20686 0.150635
v -0.211556 0.217982 0.142803
v -0.22063 0.189079 0.141814
v -0.21766 0.198668 0.142109
v -0.21469 0.208256 0.142403
v -0.218826 0.211178 0.135333
v -0.215855 0.220766 0.135628
v -0.219991 0.223688 0.128557
v -0.221798 0.201629 0.135001
v -0.222978 0.214417 0.127968
v -0.224158 0.227206 0.120935
v -0.223675 0.179795 0.141177
v -0.224917 0.192694 0.133983
v -0.229428 0.196921 0.125385
v -0.22616 0.205592 0.126788
v -0.230671 0.209819 0.11819
v -0.227402 0.218491 0.119594
v -0.231913 0.222718 0.110996
v -0.228665 0.183754 0.132064
v -0.235249 0.214008 0.10952
v -0.233525 0.18855 0.12227
v -0.234388 0.201278 0.115896
v -0.239011 0.206133 0.106282
v -0.239157 0.218738 0.100712
v -0.134233 0.363636 0.118266
v -0.235437 0.226974 0.103147
v -0.228054 0.231304 0.112928
v -0.19851 0.173741 0.176526
v -0.205182 0.174974 0.167385
v -0.211855 0.176208 0.158243
v -0.196466 0.183377 0.175383
v -0.183254 0.174536 0.19401
v -0.191106 0.173756 0.185362
v -0.174551 0.176413 0.202208
v -0.132648 0.208649 0.22852
v -0.141522 0.205629 0.223314
v -0.141766 0.214068 0.219003
v -0.125677 0.220427 0.229683
v -0.133542 0.216968 0.224736
v -0.12522 0.228597 0.226419
v -0.133521 0.225196 0.221338
v -0.132873 0.233373 0.218254
v -0.132224 0.24155 0.215171
v -0.131576 0.249728 0.212087
v -0.130927 0.257905 0.209003
v -0.138803 0.246947 0.20729
v -0.138178 0.255109 0.204223
v -0.140891 0.230775 0.212393
v -0.139776 0.238848 0.209929
v -0.148594 0.236468 0.202911
v -0.147194 0.244914 0.200499
v -0.153443 0.245887 0.193954
v -0.159691 0.246861 0.187408
v -0.16594 0.247834 0.180863
v -0.144791 0.254626 0.198294
v -0.150932 0.255495 0.1919
v -0.157074 0.256364 0.185506
v -0.163215 0.257233 0.179112
v -0.147235 0.263947 0.191522
v -0.14109 0.263105 0.197857
v -0.136916 0.274405 0.192089
v -0.143152 0.274823 0.187178
v -0.149387 0.275241 0.182266
v -0.151237 0.285698 0.174316
v -0.149409 0.228265 0.205744
v -0.132141 0.279966 0.193931
v -0.138555 0.282431 0.186788
v -0.144968 0.284896 0.179646
v -0.147332 0.293479 0.174976
v -0.134403 0.289111 0.18853
v -0.141047 0.291371 0.181939
v -0.127685 0.286791 0.195037
v -0.169352 0.258323 0.172566
v -0.16547 0.267757 0.171366
v -0.155647 0.275878 0.177037
v -0.161588 0.277191 0.170166
v -0.157706 0.286624 0.168967
v -0.171138 0.269442 0.163816
v -0.167125 0.278799 0.162516
v -0.175195 0.260126 0.165157
v -0.180891 0.262235 0.15742
v -0.176962 0.271287 0.156149
v -0.17303 0.280317 0.154874
v -0.169099 0.289346 0.153598
v -0.174518 0.290527 0.145521
v -0.165198 0.298273 0.152313
v -0.170599 0.299399 0.144211
v -0.17577 0.30053 0.135963
v -0.166391 0.308115 0.14272
v -0.171529 0.309226 0.134459
v -0.176667 0.310337 0.126198
v -0.172264 0.318912 0.124637
v -0.162131 0.316912 0.141267
v -0.16723 0.317892 0.132963
v -0.156821 0.324998 0.13932
v -0.151218 0.33249 0.136847
v -0.156948 0.334159 0.129095
v -0.151694 0.342012 0.127032
v -0.156812 0.343027 0.118549
v -0.162065 0.335167 0.120632
v -0.16193 0.344039 0.110073
v -0.167068 0.336086 0.112314
v -0.171225 0.336596 0.104318
v -0.166468 0.344731 0.101823
v -0.156477 0.351748 0.107632
v -0.161607 0.352803 0.0993338
v -0.145842 0.35835 0.113446
v -0.15077 0.359155 0.105002
v -0.155699 0.359959 0.0965588
v -0.139395 0.364839 0.110283
v -0.144323 0.365644 0.10184
v -0.132948 0.371329 0.10712
v -0.137877 0.372133 0.0986768
v -0.149488 0.366917 0.0937484
v -0.141689 0.222564 0.215247
v -0.143523 0.374366 0.0912788
v -0.160423 0.360944 0.0882947
v -0.154425 0.368384 0.0858169
v -0.149727 0.211384 0.212625
v -0.174812 0.235896 0.175981
v -0.146242 0.349698 0.12444
v -0.140744 0.357341 0.121802
v -0.145798 0.340328 0.134365
v -0.15135 0.350703 0.115962
v -0.172208 0.328124 0.114522
v -0.176227 0.328574 0.106634
v -0.167288 0.327244 0.122804
v -0.162179 0.326281 0.131163
v -0.181732 0.311312 0.117778
v -0.177301 0.319988 0.116322
v -0.189414 0.302494 0.110191
v -0.204808 0.281577 0.0853711
v -0.197796 0.291257 0.0929144
v -0.199631 0.289611 0.0833781
v -0.191275 0.301128 0.10042
v -0.200611 0.284332 0.104054
v -0.203053 0.28313 0.0947408
v -0.196125 0.29287 0.102326
v -0.168468 0.235985 0.182558
v -0.198229 0.285422 0.113492
v -0.193789 0.293924 0.11182
v -0.206058 0.267512 0.11655
v -0.202187 0.276549 0.114939
v -0.213963 0.258628 0.109461
v -0.210268 0.267401 0.107757
v -0.20535 0.257718 0.126392
v -0.209881 0.258454 0.118085
v -0.201657 0.266834 0.125056
v -0.203642 0.24759 0.135677
v -0.194998 0.255594 0.142508
v -0.197857 0.246496 0.143478
v -0.208479 0.2485 0.127423
v -0.21256 0.249504 0.118734
v -0.200209 0.256666 0.134464
v -0.196501 0.265774 0.133122
v -0.186111 0.263431 0.149324
v -0.191307 0.264614 0.141217
v -0.182268 0.272445 0.148049
v -0.187484 0.273605 0.139951
v -0.1927 0.274765 0.131853
v -0.183629 0.282631 0.138671
v -0.197843 0.275846 0.123658
v -0.193854 0.284727 0.122199
v -0.189864 0.293607 0.120741
v -0.180841 0.301539 0.127672
v -0.185874 0.302488 0.119282
v -0.188808 0.283754 0.130533
v -0.179767 0.29165 0.137383
v -0.184828 0.292653 0.129116
v -0.178414 0.281473 0.146771
v -0.155856 0.23612 0.196164
v -0.17235 0.247951 0.173816
v -0.162124 0.236075 0.189134
v -0.163185 0.287996 0.161256
v -0.153369 0.265146 0.184902
v -0.159502 0.266446 0.178213
v -0.149379 0.194018 0.220602
v -0.157644 0.191069 0.213813
v -0.149499 0.202957 0.216811
v -0.157614 0.200025 0.210043
v -0.174168 0.185979 0.198935
v -0.165703 0.188297 0.206951
v -0.165628 0.197379 0.203107
f 3 4 9 1
f 9 219 216 1
f 216 215 155 1
f 155 2 3 1
f 101 5 3 2
f 155 73 151 2
f 151 84 101 2
f 5 6 4 3
f 6 7 11 4
f 11 10 9 4
f 207 209 6 5
f 101 86 207 5
f 209 175 7 6
f 175 156 8 7
f 8 14 11 7
f 24 20 14 8
f 10 12 219 9
f 11 14 13 10
f 13 17 12 10
f 17 15 217 12
f 217 218 219 12
f 14 20 19 13
f 19 18 17 13
f 17 18 16 15
f 16 69 68 15
f 68 70 217 15
f 18 21 67 16
f 67 64 69 16
f 19 22 21 18
f 20 23 22 19
f 22 26 34 21
f 34 31 67 21
f 23 25 26 22
f 28 27 26 25
f 27 35 34 26
f 28 29 37 27
f 37 36 35 27
f 38 41 37 29
f 33 39 48 30
f 66 32 33 30
f 34 35 32 31
f 32 66 65 31
f 65 64 67 31
f 35 36 33 32
f 36 40 39 33
f 37 41 40 36
f 43 42 41 38
f 40 45 49 39
f 49 55 48 39
f 41 42 45 40
f 43 44 46 42
f 46 51 45 42
f 47 53 46 44
f 51 50 49 45
f 53 52 51 46
f 63 54 53 47
f 50 57 55 49
f 51 52 58 50
f 53 54 56 52
f 56 59 58 52
f 62 60 56 54
f 75 73 72 71
f 73 155 215 72
f 75 77 151 73
f 76 77 75 74
f 78 84 151 77
f 79 85 84 78
f 80 82 85 79
f 81 83 82 80
f 83 91 87 82
f 87 86 85 82
f 85 86 101 84
f 87 88 207 86
f 91 92 88 87
f 92 93 89 88
f 89 209 207 88
f 93 94 90 89
f 90 175 209 89
f 94 109 208 90
f 96 95 92 91
f 95 211 93 92
f 211 212 94 93
f 212 110 109 94
f 98 99 211 95
f 96 97 98 95
f 102 103 98 97
f 103 104 99 98
f 104 100 111 99
f 111 212 211 99
f 113 112 111 100
f 104 107 105 100
f 108 106 103 102
f 106 107 104 103
f 110 114 116 109
f 112 115 114 110
f 212 111 112 110
f 113 210 115 112
f 115 119 118 114
f 118 117 116 114
f 210 120 119 115
f 118 194 192 117
f 119 206 194 118
f 120 121 206 119
f 122 123 121 120
f 123 124 204 121
f 204 197 206 121
f 125 126 124 123
f 126 127 201 124
f 201 205 204 124
f 129 130 126 125
f 130 128 127 126
f 128 166 165 127
f 165 202 201 127
f 163 161 166 128
f 130 164 163 128
f 131 164 130 129
f 132 133 164 131
f 159 134 133 132
f 134 135 136 133
f 136 163 164 133
f 157 160 135 134
f 160 141 137 135
f 137 138 136 135
f 138 161 163 136
f 141 142 140 137
f 140 139 138 137
f 139 162 161 138
f 144 145 142 141
f 160 143 144 141
f 146 147 144 143
f 160 157 158 143
f 158 61 146 143
f 147 150 145 144
f 150 154 153 145
f 148 149 147 146
f 149 152 150 147
f 171 174 177 167
f 177 200 202 167
f 173 169 170 168
f 173 172 174 169
f 176 177 174 172
f 179 198 199 176
f 199 200 177 176
f 181 180 183 178
f 183 182 184 178
f 184 198 179 178
f 183 189 188 182
f 188 185 190 182
f 190 191 184 182
f 191 196 198 184
f 187 186 190 185
f 193 191 190 186
f 193 195 196 191
f 194 195 193 192
f 206 197 195 194
f 197 203 196 195
f 203 199 198 196
f 204 205 203 197
f 203 205 200 199
f 205 201 202 200
f 215 216 214 213
f 216 219 218 214
