# https://github.com/mikedh/trimesh
v -0.24484451 -0.27101625 -0.12568875
v -0.24806050 -0.27925751 -0.12479700
v -0.24884801 -0.28683001 -0.12465300
v -0.25247350 -0.30138600 -0.12883500
v -0.25538551 -0.31164099 -0.13250550
v -0.26825587 -0.44304550 -0.18895787
v -0.27075449 -0.35273750 -0.14717425
v -0.26033500 -0.32641000 -0.13821150
v -0.25307000 -0.30654800 -0.13062800
v -0.23615199 -0.26782900 -0.11688000
v -0.23896506 -0.27194656 -0.11853790
v -0.24387465 -0.27826861 -0.12135377
v -0.22489421 -0.25061585 -0.10992432
v -0.22709577 -0.25622638 -0.11173217
v -0.21429700 -0.24048000 -0.10458800
v -0.24626536 -0.28538173 -0.12335088
v -0.21781475 -0.24957913 -0.10829663
v -0.24505925 -0.29074676 -0.12490325
v -0.22189250 -0.24640950 -0.10818250
v -0.23969000 -0.28108176 -0.12132500
v -0.24849300 -0.29767701 -0.12741800
v -0.24005300 -0.28407401 -0.12242100
v -0.22275550 -0.25966150 -0.11275400
v -0.23159025 -0.27363650 -0.11861825
v -0.23925601 -0.26230988 -0.12018321
v -0.23217335 -0.25733738 -0.11431711
v -0.22581875 -0.24554575 -0.11110550
v -0.23190801 -0.25266051 -0.11534350
v -0.22873700 -0.24795300 -0.11348900
v -0.23389362 -0.25319150 -0.11947937
v -0.24196162 -0.26858763 -0.12109945
v -0.21631825 -0.23070525 -0.10629150
v -0.19657350 -0.20477250 -0.09432450
v -0.22070425 -0.23617600 -0.10935125
v -0.18589550 -0.19408300 -0.08707325
v -0.16975163 -0.17696313 -0.07773600
v -0.14610200 -0.16986467 -0.06734264
v -0.16002875 -0.17058676 -0.07135150
v -0.15801475 -0.16692250 -0.07055225
v -0.20848950 -0.22388799 -0.10023600
v -0.21356735 -0.23634213 -0.10318977
v -0.17081378 -0.17974027 -0.07756388
v -0.20403414 -0.22141702 -0.09707345
v -0.18797651 -0.20073276 -0.08726989
v -0.17064400 -0.18726800 -0.07788050
v -0.16660850 -0.18068700 -0.07497450
v -0.19915904 -0.21037937 -0.09448822
v -0.19280065 -0.21005379 -0.09045077
v -0.19780475 -0.22155612 -0.09546362
v -0.18955625 -0.20778922 -0.08892193
v -0.17696799 -0.19527800 -0.08209500
v -0.19084350 -0.21396500 -0.09171075
v -0.17854100 -0.20042001 -0.08475800
v -0.20085074 -0.22728725 -0.09833050
v -0.16005451 -0.18488301 -0.07656500
v -0.16287336 -0.18405425 -0.07560348
v -0.15641480 -0.18077751 -0.07403951
v -0.14844214 -0.16196011 -0.06460752
v -0.14043100 -0.17304400 -0.07065000
v -0.25754175 -0.43252425 -0.19043500
v -0.25848600 -0.43518299 -0.19128300
v -0.24911749 -0.43395300 -0.19579050
v -0.25973701 -0.43782401 -0.19186801
v -0.28032376 -0.40727899 -0.16767988
v -0.24432600 -0.42804299 -0.19352550
v -0.24452800 -0.30766699 -0.13420600
v -0.25545581 -0.33418073 -0.14480350
v -0.23969881 -0.32382970 -0.14826383
v -0.26193944 -0.34650400 -0.14827205
v -0.24328991 -0.32988710 -0.14987950
v -0.26254970 -0.38277243 -0.16747666
v -0.25457804 -0.38526497 -0.17282259
v -0.24811668 -0.37886166 -0.17310020
v -0.24113337 -0.38181128 -0.17716908
v -0.25057450 -0.39590423 -0.17894445
v -0.25563431 -0.42419376 -0.18762939
v -0.24968900 -0.41860801 -0.18762299
v -0.23289000 -0.37393250 -0.17691951
v -0.23579399 -0.38440800 -0.17989901
v -0.22793201 -0.36290300 -0.17411900
v -0.22344881 -0.35176987 -0.17088277
v -0.22154599 -0.35667500 -0.17352000
v -0.20789399 -0.32686651 -0.16438799
v -0.21123450 -0.31936549 -0.15977300
v -0.27099661 -0.41089442 -0.17477633
v -0.26292563 -0.33981637 -0.14410337
v -0.24541500 -0.35490286 -0.16328040
v -0.22433690 -0.33420409 -0.16252586
v -0.22992319 -0.35224077 -0.16898341
v -0.21173100 -0.31430399 -0.15699300
v -0.21315925 -0.30980800 -0.15396550
v -0.24162720 -0.35411663 -0.16487112
v -0.24464135 -0.34510423 -0.15852155
v -0.26335232 -0.43311095 -0.18758028
v -0.21984662 -0.30591841 -0.14858224
v -0.21191800 -0.29582100 -0.14608275
v -0.25490932 -0.31857360 -0.13586913
v -0.20797875 -0.27426599 -0.13274376
v -0.23998612 -0.29907350 -0.13114431
v -0.21866830 -0.29266848 -0.14016921
v -0.21336634 -0.27784062 -0.13223065
v -0.24971624 -0.43027078 -0.19287814
v -0.24140701 -0.41779000 -0.18992300
v -0.24507600 -0.41943300 -0.18946700
v -0.22367369 -0.27161582 -0.12008843
v -0.24262116 -0.42207883 -0.19120509
v -0.21034789 -0.24992208 -0.11000026
v -0.20050540 -0.23349114 -0.10192485
v -0.20706108 -0.24084303 -0.10493009
v -0.21848679 -0.25485297 -0.11079139
v -0.24089877 -0.29091405 -0.12550244
v -0.24699263 -0.30219305 -0.12964672
v -0.21255412 -0.26168309 -0.11871554
v -0.18920495 -0.21863704 -0.09474412
v -0.17921223 -0.21111617 -0.09223305
v -0.20288704 -0.23188199 -0.10049402
v -0.23053215 -0.28511302 -0.12624734
v -0.22114716 -0.27275172 -0.12217328
v -0.20094776 -0.24604547 -0.11226078
v -0.20127625 -0.25987775 -0.12512800
v -0.17228501 -0.20695700 -0.09200700
v -0.19910328 -0.25617464 -0.12323087
v -0.19531398 -0.23292597 -0.10382656
v -0.18385788 -0.23717200 -0.11590188
v -0.17935536 -0.21643699 -0.09756970
v -0.16604974 -0.20057000 -0.08899625
v -0.18624724 -0.23541151 -0.11246155
v -0.15980500 -0.20786400 -0.10258400
v -0.17824000 -0.22615300 -0.10870950
f 18 16 3
f 20 16 18
f 10 16 20
f 23 10 20
f 17 10 23
f 110 17 23
f 23 24 110
f 105 110 24
f 110 105 107
f 109 110 107
f 116 110 109
f 116 54 110
f 54 116 114
f 114 116 108
f 114 108 123
f 125 114 123
f 125 123 129
f 125 129 128
f 128 126 125
f 126 121 125
f 126 115 121
f 55 115 126
f 59 55 126
f 59 37 55
f 37 57 55
f 57 56 55
f 56 53 55
f 56 45 53
f 56 46 45
f 56 37 46
f 38 46 37
f 58 38 37
f 37 56 57
f 55 52 115
f 52 114 115
f 121 115 125
f 129 123 127
f 127 124 129
f 127 119 124
f 119 122 124
f 124 122 120
f 122 113 120
f 120 113 98
f 113 101 98
f 113 118 101
f 113 105 118
f 118 105 117
f 99 117 105
f 117 99 100
f 117 100 101
f 100 99 95
f 100 95 96
f 98 100 96
f 91 96 95
f 91 95 88
f 95 93 88
f 95 68 93
f 70 93 68
f 70 67 93
f 67 69 93
f 69 71 93
f 87 93 71
f 93 87 92
f 87 72 92
f 73 92 72
f 92 73 89
f 88 92 89
f 88 89 81
f 81 89 82
f 82 89 80
f 80 89 78
f 89 74 78
f 78 74 79
f 79 74 77
f 74 76 77
f 104 77 76
f 75 76 74
f 75 94 76
f 60 76 94
f 60 94 61
f 94 63 61
f 63 94 6
f 64 6 94
f 85 64 94
f 72 85 94
f 72 71 85
f 71 64 85
f 76 60 102
f 106 76 102
f 106 102 65
f 102 62 65
f 103 76 106
f 102 60 62
f 73 94 75
f 73 75 74
f 83 81 82
f 88 81 83
f 83 84 88
f 90 88 84
f 73 74 89
f 73 72 94
f 87 71 72
f 69 64 71
f 86 64 69
f 86 7 64
f 8 7 86
f 97 8 86
f 97 86 67
f 67 112 97
f 112 5 97
f 9 5 112
f 112 4 9
f 21 4 112
f 18 21 112
f 111 18 112
f 99 111 112
f 112 66 99
f 99 66 68
f 66 67 68
f 24 111 99
f 24 22 111
f 22 18 111
f 112 67 66
f 5 8 97
f 67 86 69
f 67 70 68
f 88 93 92
f 91 88 90
f 99 68 95
f 118 117 101
f 101 100 98
f 113 122 119
f 119 107 113
f 123 107 119
f 123 119 127
f 115 114 125
f 108 109 123
f 52 54 114
f 116 109 108
f 123 109 107
f 107 105 113
f 24 99 105
f 54 17 110
f 17 14 10
f 17 19 14
f 19 13 14
f 19 26 13
f 27 26 19
f 27 29 26
f 26 29 28
f 28 25 26
f 28 30 25
f 30 1 25
f 31 25 1
f 31 1 12
f 26 31 12
f 26 12 11
f 10 26 11
f 12 1 2
f 2 3 12
f 25 31 26
f 34 27 19
f 34 19 41
f 41 40 34
f 43 40 41
f 43 41 49
f 50 43 49
f 51 50 49
f 51 44 50
f 51 35 44
f 42 35 51
f 42 51 45
f 39 42 45
f 39 36 42
f 36 35 42
f 44 35 47
f 44 47 48
f 48 47 43
f 35 33 47
f 47 33 40
f 33 32 40
f 50 44 48
f 48 43 50
f 49 41 15
f 15 41 19
f 47 40 43
f 40 32 34
f 14 13 26
f 26 10 14
f 10 12 16
f 12 3 16

