# https://github.com/mikedh/trimesh
v -0.20222387 -0.30334149 -0.07330763
v -0.20901988 -0.31730487 -0.06612600
v -0.20934400 -0.35148901 -0.06796200
v -0.20400451 -0.36443825 -0.06818325
v -0.16398493 -0.34411680 -0.08589527
v -0.15100800 -0.35371101 -0.08361000
v -0.17202200 -0.34566900 -0.08607100
v -0.19175225 -0.37271849 -0.07481075
v -0.17918549 -0.38350801 -0.07050100
v -0.17095950 -0.38719400 -0.06775500
v -0.17516100 -0.35453400 -0.08351700
v -0.17366300 -0.35988299 -0.08114150
v -0.15993467 -0.37760072 -0.06855850
v -0.16431800 -0.36978351 -0.07517650
v -0.16253500 -0.37266001 -0.07354100
v -0.16228550 -0.38306500 -0.06633150
v -0.15289301 -0.32974499 -0.09287300
v -0.14591844 -0.34114432 -0.08975082
v -0.14332550 -0.33747050 -0.08756550
v -0.14862072 -0.34037853 -0.09095750
v -0.15544285 -0.33242517 -0.09410621
v -0.16235474 -0.33050550 -0.09573575
v -0.16057425 -0.32645500 -0.09510925
v -0.17467900 -0.32173401 -0.09566300
v -0.18286715 -0.36206427 -0.08461178
v -0.18126788 -0.37151770 -0.08045475
v -0.17608831 -0.37648036 -0.07825948
v -0.17853720 -0.33989072 -0.09313838
v -0.16252001 -0.33585599 -0.09390000
v -0.18468300 -0.34520342 -0.09132694
v -0.15928991 -0.34062975 -0.09161627
v -0.18374822 -0.37004345 -0.08077048
v -0.15834632 -0.33748238 -0.09341418
v -0.15008852 -0.34752493 -0.08918874
v -0.16511449 -0.33200282 -0.09549977
v -0.18203768 -0.33349447 -0.09423061
v -0.17882294 -0.34664226 -0.09011393
v -0.14586926 -0.34835688 -0.08799017
v -0.17027031 -0.38236012 -0.07405868
v -0.17110269 -0.32769844 -0.09646163
v -0.16819935 -0.37468083 -0.07771089
v -0.18239769 -0.37674866 -0.07669073
v -0.16431527 -0.33956533 -0.09131689
v -0.18956572 -0.34405246 -0.09040215
v -0.17470001 -0.34286600 -0.09053100
v -0.18905500 -0.36641201 -0.08143900
v -0.18863701 -0.36003414 -0.08524241
v -0.16786925 -0.37792142 -0.07620901
v -0.17204417 -0.34195041 -0.09002501
v -0.18985485 -0.34874831 -0.08934494
v -0.17552435 -0.32582162 -0.09593023
v -0.17919833 -0.35824559 -0.08520599
v -0.19484584 -0.35568913 -0.08468388
v -0.17523373 -0.38290050 -0.07305550
v -0.14656585 -0.35343366 -0.08458022
v -0.15287053 -0.35071578 -0.08621140
v -0.17534019 -0.34708060 -0.08784840
v -0.17757677 -0.36302641 -0.08326513
v -0.19411523 -0.36812222 -0.07788878
v -0.17140354 -0.36572635 -0.07983770
v -0.16554830 -0.38276006 -0.07166060
v -0.16524350 -0.37655550 -0.07585047
v -0.16643000 -0.36865500 -0.07679600
v -0.18514559 -0.31619463 -0.09141546
v -0.18058311 -0.32227712 -0.09447625
v -0.19284089 -0.31749949 -0.08745502
v -0.19134807 -0.32796772 -0.09003906
v -0.19211257 -0.33228079 -0.09010517
v -0.18684019 -0.32405859 -0.09208799
v -0.19190014 -0.33948999 -0.09002052
v -0.18915252 -0.33706236 -0.09142926
v -0.19573635 -0.34548900 -0.08718957
v -0.19822281 -0.33543082 -0.08571008
v -0.20064984 -0.32249211 -0.08177207
v -0.19851334 -0.34228068 -0.08546667
v -0.20093761 -0.33730229 -0.08325770
v -0.20355335 -0.34480358 -0.07972653
v -0.20597235 -0.32963231 -0.07600561
v -0.20735899 -0.32534211 -0.07264858
v -0.20667658 -0.34648561 -0.07524685
v -0.19859978 -0.35204356 -0.08350329
v -0.20864862 -0.33525482 -0.07197081
v -0.19827617 -0.36244172 -0.07855028
v -0.20289092 -0.35877216 -0.07645354
v -0.17982900 -0.31657250 -0.09343150
v -0.20209656 -0.35441068 -0.07941966
f 79 82 2
f 78 82 79
f 80 82 78
f 3 82 80
f 3 80 84
f 86 84 80
f 83 84 86
f 86 53 83
f 86 81 53
f 75 81 86
f 75 86 76
f 77 76 86
f 76 77 80
f 76 73 75
f 74 73 76
f 74 76 78
f 1 74 78
f 1 66 74
f 74 66 68
f 66 67 68
f 67 69 68
f 69 65 68
f 65 69 64
f 69 66 64
f 85 65 64
f 24 65 85
f 24 51 65
f 65 51 36
f 51 40 36
f 28 36 40
f 35 28 40
f 22 35 40
f 23 22 40
f 23 40 24
f 23 21 22
f 17 21 23
f 17 18 21
f 20 21 18
f 21 20 33
f 20 34 33
f 33 34 31
f 34 43 31
f 34 56 43
f 5 43 56
f 6 5 56
f 56 55 6
f 56 34 55
f 34 38 55
f 18 38 34
f 33 31 43
f 29 33 43
f 35 29 43
f 22 33 29
f 18 34 20
f 19 18 17
f 21 33 22
f 22 29 35
f 43 28 35
f 43 49 28
f 43 5 49
f 5 7 49
f 7 57 49
f 49 57 37
f 57 52 37
f 37 52 25
f 52 26 25
f 58 26 52
f 58 27 26
f 41 27 58
f 41 48 27
f 62 48 41
f 62 61 48
f 16 61 62
f 13 16 62
f 15 13 62
f 15 62 14
f 14 62 63
f 12 63 62
f 12 62 60
f 60 62 58
f 12 60 58
f 12 58 52
f 12 52 11
f 7 11 52
f 14 63 12
f 48 61 39
f 10 39 61
f 16 10 61
f 39 10 54
f 54 27 39
f 27 54 42
f 42 54 9
f 42 9 59
f 59 46 42
f 46 59 47
f 47 59 53
f 50 47 53
f 72 50 53
f 44 50 72
f 44 72 70
f 72 68 70
f 73 68 72
f 70 68 71
f 71 36 70
f 36 71 68
f 36 44 70
f 36 50 44
f 36 30 50
f 30 47 50
f 28 47 30
f 25 47 28
f 47 42 46
f 32 42 47
f 26 32 47
f 59 9 8
f 32 27 42
f 9 54 10
f 62 41 58
f 48 39 27
f 26 27 32
f 25 26 47
f 28 37 25
f 45 37 28
f 49 37 45
f 57 7 52
f 49 45 28
f 28 30 36
f 24 40 51
f 36 68 65
f 69 67 66
f 64 66 1
f 85 64 1
f 73 74 68
f 72 75 73
f 72 81 75
f 72 53 81
f 53 59 83
f 84 83 8
f 4 84 8
f 83 59 8
f 80 77 86
f 3 84 4
f 78 76 80
f 78 79 1
f 2 82 3
f 79 2 1

