v 0.260943 -0.0174197 -0.0496893
v 0.211917 0.0150171 -0.0208146
v 0.211371 0.0204056 -0.0234383
v 0.240978 -0.00054877 -0.0326737
v 0.283464 0.0152349 -0.0477022
v 0.211581 0.0251975 -0.0240979
v 0.278598 0.0404421 -0.0358466
v 0.278697 0.0403038 -0.0359104
v 0.212856 0.0279089 -0.0191129
v 0.210771 0.0227822 -0.0222752
v 0.212601 0.0202097 -0.00754679
v 0.214882 0.0271822 -0.00792512
v 0.269706 0.0377821 -0.0356869
v 0.258259 0.0266555 -0.0381456
v 0.250648 0.0246911 -0.0412609
v 0.222742 0.040448 -0.0209398
v 0.257017 0.0264639 -0.0382805
v 0.230166 0.0481001 -0.0178499
v 0.231073 0.0534428 -0.0147784
v 0.23198 0.0587855 -0.011707
v 0.234053 0.0470896 -0.0215107
v 0.234956 0.0524296 -0.0184383
v 0.234836 0.0570896 -0.0151092
v 0.234715 0.0617495 -0.0117801
v 0.236676 0.0547189 -0.0182568
v 0.236556 0.0593789 -0.0149278
v 0.236436 0.0640388 -0.0115987
v 0.238156 0.0663281 -0.0114173
v 0.23785 0.0534886 -0.0199012
v 0.243397 0.068231 -0.0136023
v 0.241558 0.0672969 -0.0130212
v 0.239719 0.0663629 -0.0124401
v 0.238675 0.0511531 -0.0218696
v 0.244033 0.0602905 -0.0189264
v 0.244879 0.068012 -0.0146726
v 0.248545 0.0617064 -0.0202369
v 0.24939 0.0694279 -0.0159832
v 0.253902 0.0708438 -0.0172937
v 0.258414 0.0722597 -0.0186042
v 0.254325 0.0765607 -0.0148623
v 0.258733 0.0772737 -0.0170672
v 0.269556 0.0224838 -0.0391996
v 0.263502 0.073524 -0.0203131
v 0.270196 0.0697195 -0.0242321
v 0.267758 0.0741499 -0.022299
v 0.27499 0.0659143 -0.0271711
v 0.271984 0.0703834 -0.0252544
v 0.278965 0.0621774 -0.0302708
v 0.27505 0.036118 -0.0365623
v 0.273305 0.0356665 -0.0365061
v 0.279248 0.0229358 -0.0400647
v 0.280954 0.0175627 -0.0419094
v 0.279749 0.0119557 -0.0428593
v 0.280381 0.00916547 -0.0453041
v 0.281461 0.0249831 -0.0409079
v 0.272186 0.0584795 -0.028346
v 0.272224 0.055767 -0.0295364
v 0.274955 0.05517 -0.030085
v 0.274993 0.0524575 -0.0312753
v 0.267753 0.0587317 -0.0276194
v 0.269654 0.0609769 -0.0269539
v 0.268028 0.0552072 -0.0291567
v 0.269929 0.0574524 -0.0284912
v 0.262217 -0.0139849 -0.0418075
v 0.256529 0.0369286 -0.0345217
v 0.246447 -0.0266461 -0.0422477
v 0.259204 0.0369715 -0.0349063
v 0.260111 0.0394475 -0.0340869
v 0.261018 0.0419235 -0.0332674
v 0.262786 0.0394904 -0.0344714
v 0.263694 0.0419664 -0.033652
v 0.264601 0.0444424 -0.0328325
v 0.246638 -0.0262783 -0.0415796
v 0.269091 0.0494373 -0.0315782
v 0.246709 -0.025964 -0.0408916
v 0.253344 0.0334585 -0.0353224
v 0.256396 0.0325988 -0.036054
v 0.254478 0.0266027 -0.0385236
v 0.253666 0.0290107 -0.037636
v 0.246781 -0.0256497 -0.0402035
v 0.24697 -0.0249531 -0.0393428
v 0.253394 0.011305 -0.0413823
v 0.254687 0.00727178 -0.0404841
v 0.250764 0.00848074 -0.0424554
v 0.233818 -0.0299179 -0.0374467
v 0.245403 0.00941292 -0.0438003
v 0.232329 -0.0292868 -0.0360579
v 0.230789 -0.0286566 -0.0346455
v 0.235711 0.0269958 -0.0424505
v 0.237841 0.0276797 -0.0428568
v 0.240646 0.029014 -0.0423348
v 0.246367 0.0310326 -0.0390342
v 0.245179 0.0337151 -0.0372322
v 0.246454 0.0273387 -0.0415273
v 0.240697 0.0332872 -0.0389478
v 0.235819 0.0372325 -0.0355944
v 0.240388 0.0372293 -0.0346694
v 0.244957 0.037226 -0.0337443
v 0.239621 0.0398716 -0.0319763
v 0.244181 0.0392958 -0.0317843
v 0.2434 0.0410793 -0.0301909
v 0.249519 0.0372149 -0.032939
v 0.248803 0.0418083 -0.0307165
v 0.248074 0.0466932 -0.0284057
v 0.255156 0.0451533 -0.0308351
v 0.253735 0.0504124 -0.028285
v 0.261557 0.0574569 -0.0268508
v 0.254379 0.0540402 -0.0267793
v 0.25577 0.0570782 -0.0256512
v 0.257162 0.0601163 -0.0245231
v 0.258553 0.0631543 -0.023395
v 0.259944 0.0661923 -0.022267
v 0.261335 0.0692303 -0.0211389
v 0.262574 0.0607898 -0.025534
v 0.263966 0.0638278 -0.0244059
v 0.265357 0.0668659 -0.0232778
v 0.248848 0.0538829 -0.0250572
v 0.250147 0.056664 -0.024062
v 0.235131 0.0405327 -0.0315996
v 0.238875 0.0416978 -0.0300985
v 0.233668 0.0426044 -0.0273905
v 0.235969 0.0437069 -0.0252571
v 0.230858 0.041906 -0.026727
v 0.230682 0.0372017 -0.0350211
v 0.228968 0.0395364 -0.0306087
v 0.228423 0.0438386 -0.0222952
v 0.227497 0.0335366 -0.0360575
v 0.231601 0.034522 -0.0375701
v 0.222646 0.035329 -0.0323459
v 0.226774 0.0363918 -0.0337636
v 0.225028 0.0386891 -0.0293275
v 0.227048 0.0416339 -0.0260459
v 0.218823 0.0329582 -0.030774
v 0.21751 0.033143 -0.0260607
v 0.220733 0.0358996 -0.0274399
v 0.222642 0.038841 -0.0241058
v 0.224551 0.0417824 -0.0207717
v 0.222797 0.0316485 -0.0343824
v 0.274808 0.0407053 -0.0351702
v 0.234633 -0.0280508 -0.0350487
v 0.236266 -0.0275556 -0.0356756
v 0.222782 -0.00254627 -0.0209674
v 0.281501 0.0288055 -0.0394394
v 0.24262 0.0428629 -0.0285975
v 0.221217 0.0209466 -0.0343206
v 0.228785 0.020363 -0.0391937
v 0.230471 0.00512107 -0.0296098
v 0.217097 0.0175617 -0.0302806
v 0.215193 0.0184482 -0.0292607
v 0.235087 0.0146516 -0.0418787
v 0.254287 -0.0226525 -0.043787
v 0.240002 0.0128865 -0.0445492
v 0.223867 0.0281874 -0.0363349
v 0.228141 0.0300734 -0.0379201
v 0.228724 0.0272497 -0.0391895
v 0.234781 0.0311095 -0.0404958
v 0.275412 0.0122573 -0.0409121
v 0.269379 0.0645014 -0.0254167
v 0.252665 0.00384351 -0.0400843
v 0.25614 0.00306159 -0.0390441
v 0.272213 0.00531648 -0.0409245
v 0.234833 0.00653728 -0.0366001
v 0.278361 0.0614842 -0.0295857
v 0.256892 0.00073615 -0.038015
v 0.255595 -0.00149468 -0.0374529
v 0.256267 0.000143455 -0.0379088
v 0.263273 0.0176738 -0.0395828
v 0.231188 0.00666274 -0.0321672
v 0.233092 0.00866128 -0.0368422
v 0.270975 0.013568 -0.0399544
v 0.273895 0.0148698 -0.0402718
v 0.271332 0.00676227 -0.0407088
v 0.273372 0.00950979 -0.0408104
v 0.270451 0.00820805 -0.0404931
v 0.217823 0.0150786 -0.0298834
v 0.274648 0.00813518 -0.041458
v 0.276319 0.00683176 -0.0425373
v 0.21696 0.0135991 -0.0284416
v 0.24434 -0.0246889 -0.0366964
v 0.24324 -0.0051101 -0.0306857
v 0.238743 -0.0058525 -0.0280074
v 0.261127 -0.00602153 -0.0382256
v 0.232653 -0.00773787 -0.0248541
v 0.258434 -0.0138868 -0.0390309
v 0.256363 -0.012809 -0.0377354
v 0.255463 -0.00953354 -0.0364647
v 0.253745 -0.00915932 -0.0355692
v 0.266175 -0.0066895 -0.0409213
v 0.261204 -0.00715617 -0.0385966
v 0.265737 -0.00499881 -0.0403245
v 0.266521 0.00290418 -0.0399679
v 0.269322 0.0173147 -0.0397931
v 0.26383 0.0341553 -0.0362549
v 0.229407 0.0213784 -0.0381699
v 0.263661 -0.010652 -0.0407415
v 0.243718 0.0166034 -0.0455886
v 0.247516 0.0134906 -0.0446749
v 0.27008 0.0527191 -0.0304666
v 0.265756 0.0493358 -0.0311367
v 0.229809 -0.0135412 -0.024073
v 0.230922 -0.0130033 -0.0245217
v 0.232034 -0.0124655 -0.0249703
v 0.233146 -0.0119276 -0.025419
v 0.234258 -0.0113897 -0.0258676
v 0.259287 0.0444627 -0.0320236
v 0.23537 -0.0108518 -0.0263163
v 0.24623 -0.00981272 -0.0318952
v 0.268395 -0.0074521 -0.0422078
v 0.282009 0.046717 -0.0352352
v 0.282992 0.0385826 -0.0379053
v 0.279941 0.0550177 -0.0321012
v 0.27799 0.00552833 -0.0436166
v 0.281058 0.055911 -0.0328055
v 0.216681 0.0318894 -0.00924295
v 0.223667 0.00618418 -0.0261271
v 0.226918 0.00374786 -0.0259367
v 0.225646 0.00735283 -0.0283624
v 0.228897 0.00491651 -0.028172
v 0.219234 0.00801503 -0.0244471
v 0.215408 0.0111541 -0.0247676
v 0.219981 0.00915182 -0.0264159
v 0.216155 0.0122909 -0.0267364
v 0.214571 0.0100666 -0.0227882
v 0.214759 0.00891097 -0.0220361
v 0.214946 0.00775533 -0.021284
v 0.222756 0.00504203 -0.0240904
v 0.215134 0.00659968 -0.020532
v 0.222943 0.00388638 -0.0233384
v 0.215322 0.00544403 -0.0197799
v 0.223131 0.00273073 -0.0225863
v 0.215509 0.00428838 -0.0190278
v 0.220851 0.00140501 -0.0208659
v 0.21705 0.00156954 -0.0186717
v 0.21409 0.00754566 -0.0194193
v 0.220329 0.0387813 -0.0154401
v 0.213625 0.0207554 -0.0128841
v 0.212626 0.0165669 -0.00977247
v 0.213705 0.020792 -0.0104189
v 0.218849 0.0163671 -0.0313475
v 0.220589 0.0122153 -0.0300706
v 0.221517 0.0136185 -0.0315213
v 0.225113 0.0122729 -0.0331457
v 0.22041 0.0406702 -0.0103633
v 0.228961 0.0123049 -0.0364466
v 0.223024 0.0418144 -0.0155539
v 0.215066 0.0289099 -0.0130359
v 0.21167 0.0255135 -0.0218621
v 0.212894 0.0286826 -0.0213472
v 0.240491 0.00176819 -0.0358369
v 0.237391 0.00316566 -0.0344182
v 0.212931 0.0294564 -0.0235815
v 0.216069 0.0330553 -0.0235824
v 0.236627 0.0453863 -0.0239261
v 0.241391 0.00388508 -0.0399175
v 0.242032 0.00158372 -0.0367894
v 0.244334 0.00143974 -0.0379177
v 0.244107 -0.00184798 -0.0337582
v 0.24678 -0.00252966 -0.0349268
v 0.24903 1.77528e-05 -0.0375848
v 0.255705 0.000483643 -0.038053
v 0.253623 0.001358 -0.0383499
v 0.239623 0.0441246 -0.0262618
v 0.261282 -0.017848 -0.046502
v 0.236564 0.0330833 -0.0402168
v 0.232414 0.0319594 -0.0395054
v 0.241955 0.017862 -0.0461493
v 0.222661 0.0239304 -0.0359872
v 0.231895 0.0455135 -0.0204245
v 0.235915 0.00211543 -0.0309042
v 0.238446 0.00078333 -0.0317889
v 0.222512 0.00962991 -0.0285054
v 0.219733 0.0114293 -0.0285063
v 0.249125 0.0752749 -0.0126877
v 0.226142 0.00856916 -0.0300775
v 0.223363 0.0103685 -0.0300784
v 0.250832 0.0758524 -0.0134231
v 0.226992 0.00930777 -0.0316505
v 0.224213 0.0111071 -0.0316514
v 0.243605 0.0726336 -0.0107932
v 0.245312 0.0732111 -0.0115285
v 0.247018 0.0737886 -0.0122639
v 0.257319 0.0698467 -0.0195376
v 0.276306 0.0230535 -0.0396051
v 0.255408 0.0670028 -0.0203486
v 0.265085 -0.0131137 -0.0434506
v 0.250954 0.0627941 -0.0207402
v 0.253496 0.0641589 -0.0211595
v 0.249043 0.0599502 -0.0215512
v 0.251585 0.061315 -0.0219705
v 0.244589 0.0557414 -0.0219428
v 0.234773 -0.0209666 -0.0286803
v 0.23102 -0.0173382 -0.0257233
v 0.247131 0.0571062 -0.0223621
v 0.238447 -0.0251735 -0.033401
v 0.236818 -0.0277028 -0.0351185
v 0.249673 0.0584711 -0.0227815
v 0.242677 0.0528975 -0.0227537
v 0.24522 0.0542623 -0.0231731
v 0.247762 0.0556272 -0.0235925
v 0.214258 0.0248027 -0.0127925
v 0.240766 0.0500536 -0.0235647
v 0.243308 0.0514184 -0.0239841
v 0.267718 0.067458 -0.0236726
v 0.270712 0.0664523 -0.0250622
v 0.263063 0.0714204 -0.0205388
v 0.211727 0.0166761 -0.0186107
v 0.277181 0.0491456 -0.0329175
v 0.277626 0.0458264 -0.0342692
v 0.269085 0.0463992 -0.0327525
v 0.26953 0.04308 -0.0341042
v 0.272373 0.0634957 -0.0268064
v 0.267295 0.0604722 -0.0267532
v 0.265211 0.0564429 -0.0280897
v 0.263127 0.0524137 -0.0294262
v 0.249577 -0.0250653 -0.0427049
v 0.250216 -0.0244992 -0.042111
v 0.250855 -0.0239331 -0.0415171
v 0.251503 -0.024019 -0.0429622
v 0.252142 -0.0234529 -0.0423683
v 0.261044 0.0483844 -0.0307627
v 0.262487 0.0523701 -0.029231
v 0.254437 -0.0200818 -0.0402587
v 0.257196 -0.0179589 -0.0407777
v 0.260403 0.0483409 -0.0305674
v 0.25832 0.0443116 -0.0319039
v 0.255596 0.0402388 -0.0330452
v 0.275367 0.0624899 -0.028196
v 0.249013 0.0250786 -0.0417523
v 0.247378 0.0254661 -0.0422436
v 0.258942 -0.00646976 -0.0374461
v 0.281728 0.015934 -0.0428709
v 0.257159 -0.00675808 -0.0368515
v 0.277802 0.0105684 -0.042341
v 0.277005 0.0111314 -0.0418647
v 0.276208 0.0116943 -0.0413884
v 0.277613 0.0156085 -0.0410655
v 0.232079 -0.025947 -0.0308973
v 0.277434 0.0257274 -0.0391124
v 0.270984 0.0249849 -0.038855
v 0.226482 -0.0262312 -0.0291016
v 0.220884 -0.0265154 -0.0273059
v 0.229956 -0.0244677 -0.0287264
v 0.224358 -0.0247519 -0.0269307
v 0.255291 0.0241948 -0.0394112
v 0.255052 0.0207311 -0.0405301
v 0.250549 -0.0243015 -0.0444796
v 0.251938 -0.0236985 -0.0443433
v 0.253327 -0.0230954 -0.044207
v 0.262545 -0.0163073 -0.0496193
v 0.232997 0.0291357 -0.0407748
v 0.269629 0.0401638 -0.035193
v 0.276093 0.0420093 -0.0351327
v 0.277379 0.0433133 -0.0350952
v 0.278221 0.0200857 -0.0402663
v 0.276816 0.0161715 -0.0405892
v 0.266649 0.00835211 -0.0399599
v 0.26957 0.00965384 -0.0402773
v 0.275202 0.0401849 -0.0353739
v 0.272491 0.0109556 -0.0405947
v 0.273192 -0.000961885 -0.0429122
v 0.222378 -0.0048132 -0.0204292
v 0.277499 0.0418832 -0.0352924
v 0.281908 0.00970587 -0.0501937
v 0.281154 0.00766706 -0.0500373
v 0.283221 0.0130449 -0.0496723
v 0.278078 0.0364491 -0.0367688
f 243 9 235 245
f 3 10 306 2
f 6 247 10 3
f 251 248 247 6
f 214 236 300 246
f 237 238 12 11
f 263 285 151 349
f 364 363 365 5
f 143 55 7 366
f 366 7 8 50
f 253 21 19 18
f 268 262 253 18
f 21 22 20 19
f 33 29 23 22
f 29 25 24 23
f 35 30 26 25
f 29 34 35 25
f 30 31 27 26
f 32 280 279 28
f 33 301 34 29
f 281 280 32 31
f 36 37 35 34
f 301 302 36 34
f 299 38 37 36
f 38 40 276 37
f 39 41 40 38
f 305 44 45 43
f 305 113 304 44
f 304 46 47 44
f 304 303 163 46
f 210 209 362 55
f 55 362 358 193
f 7 55 193 13
f 8 7 13 50
f 362 209 353 352
f 58 163 327 56
f 327 311 61 56
f 61 60 63 56
f 63 57 58 56
f 344 345 193 14
f 42 283 50 339
f 49 50 283 338
f 51 354 336 53
f 55 143 331 54
f 61 312 313 60
f 54 331 52 53
f 311 158 312 61
f 1 1 1 1
f 151 64 323 319
f 348 151 319 318
f 76 79 77 65
f 77 67 68 65
f 70 71 68 67
f 317 322 81 80
f 316 317 80 75
f 71 72 69 68
f 315 316 75 73
f 351 310 71 70
f 310 309 72 71
f 346 315 73 66
f 309 308 307 74
f 79 78 17 77
f 79 329 328 78
f 328 15 344 78
f 85 75 80 87
f 87 80 81 88
f 340 341 141 140
f 337 340 140 295
f 295 140 141 294
f 179 81 292 291
f 84 159 160 83
f 1 1 1 1
f 180 142 361 181
f 168 277 274 147
f 168 269 270 250
f 255 254 169 249
f 169 162 250 249
f 90 156 350 89
f 162 277 168 250
f 91 95 264 90
f 1 1 1 1
f 92 93 95 91
f 98 97 95 93
f 97 96 264 95
f 97 99 119 96
f 124 128 264 96
f 98 100 99 97
f 100 101 120 99
f 120 121 119 99
f 102 103 101 100
f 103 104 144 101
f 144 122 120 101
f 326 105 103 102
f 105 106 104 103
f 106 108 117 104
f 324 321 106 105
f 326 325 324 105
f 321 107 108 106
f 312 158 114 107
f 114 109 108 107
f 321 313 312 107
f 109 118 117 108
f 114 115 110 109
f 110 296 118 109
f 115 116 111 110
f 111 289 296 110
f 116 303 112 111
f 112 287 289 111
f 303 304 113 112
f 113 284 287 112
f 305 282 284 113
f 158 311 115 114
f 311 327 116 115
f 327 163 303 116
f 296 293 298 118
f 144 262 268 122
f 126 137 132 123
f 125 131 130 124
f 130 127 128 124
f 132 136 131 125
f 130 129 138 127
f 138 153 154 127
f 154 265 128 127
f 265 156 264 128
f 130 131 135 129
f 135 134 133 129
f 278 277 162 242
f 149 148 146 145
f 155 153 267 146
f 240 241 239 175
f 155 350 154 153
f 350 156 265 154
f 166 259 165 164
f 259 256 258 165
f 260 261 259 166
f 272 240 175 178
f 272 178 222 221
f 218 147 274 217
f 356 357 171 170
f 357 359 355 171
f 355 336 354 171
f 187 207 206 204
f 187 204 203 186
f 161 177 176 172
f 176 173 174 172
f 359 357 174 173
f 176 334 335 173
f 335 157 359 173
f 186 203 202 189
f 189 202 201 185
f 177 333 334 176
f 185 201 200 184
f 323 64 195 184
f 184 195 188 185
f 185 188 190 189
f 186 189 191 182
f 186 182 330 187
f 187 330 332 207
f 188 195 208 360
f 188 360 212 190
f 161 190 212 177
f 357 356 191 174
f 189 190 161 172
f 174 191 189 172
f 170 171 354 192
f 192 354 51 338
f 192 338 283 167
f 194 155 146 148
f 350 155 194 89
f 266 196 94 194
f 194 150 152 266
f 91 90 89 194
f 94 92 91 194
f 1 1 1 1
f 84 83 82 197
f 216 217 271 215
f 271 272 221 215
f 221 219 226 215
f 226 228 216 215
f 82 193 345 197
f 274 275 271 217
f 1 1 1 1
f 221 222 220 219
f 220 223 224 219
f 224 225 226 219
f 197 345 15 328
f 227 228 226 225
f 229 230 228 227
f 231 232 230 229
f 234 233 231 229
f 1 1 1 1
f 344 14 17 78
f 309 74 199 72
f 1 1 1 1
f 275 278 241 240
f 272 271 275 240
f 278 242 244 241
f 14 193 70 67
f 77 17 14 67
f 68 69 205 65
f 198 62 199 74
f 205 69 199 62
f 205 62 63 60
f 250 270 4 249
f 4 257 255 249
f 198 74 307 59
f 307 213 211 59
f 257 258 256 255
f 1 1 1 1
f 277 278 275 274
f 63 62 198 57
f 59 211 58 57
f 211 48 163 58
f 235 9 248 252
f 1 1 1 1
f 214 246 9 243
f 1 1 1 1
f 246 300 10 247
f 9 246 247 248
f 276 273 280 281
f 287 286 288 289
f 289 288 293 296
f 293 290 297 298
f 301 253 262 302
f 314 313 321 324
f 320 314 324 325
f 355 359 157 335
f 355 335 334 336
f 340 337 342 343
f 308 309 310 353
f 139 358 362 352
f 352 353 310 351
f 1953849962 808547174 1952543828 1850307446
f 319 323 322 317
f 347 318 316 315
f 318 319 317 316
