# https://github.com/mikedh/trimesh
v -0.13738000 -0.53437799 -0.05768600
v -0.13857900 -0.54453227 -0.05369625
v -0.13865000 -0.54725301 -0.05172800
v -0.13933699 -0.55169099 -0.04447600
v -0.14747500 -0.50913949 -0.03200275
v -0.14118100 -0.55209848 -0.03401800
v -0.14415000 -0.55358050 -0.00527400
v -0.14318600 -0.55292499 0.01678700
v -0.14252999 -0.55218703 -0.02134200
v -0.14172000 -0.55189252 0.00919000
v -0.13976612 -0.55188863 0.02334262
v -0.13748901 -0.55403900 0.05020600
v -0.12083500 -0.55184788 0.06557275
v -0.12603600 -0.55176300 0.05819700
v -0.10456856 -0.55182093 0.07874181
v -0.11599825 -0.55184201 0.07048175
v -0.09580700 -0.55185801 0.08281900
v -0.13544900 -0.55182552 0.03954700
v -0.12896299 -0.55180597 0.05429700
v -0.13792280 -0.52550168 0.00521315
v -0.13917700 -0.52824050 -0.00196250
v -0.13769553 -0.51899277 -0.04551100
v -0.11370500 -0.50953001 0.04015700
v -0.11320000 -0.50567400 0.02416250
v -0.12450426 -0.51127067 0.01725103
v -0.12705170 -0.51383826 0.01623609
v -0.12836150 -0.51653750 0.01495738
v -0.11227613 -0.53892321 0.07075297
v -0.11938155 -0.53997122 0.06411899
v -0.12096137 -0.53528144 0.05959887
v -0.12370900 -0.54277903 0.05928900
v -0.12250800 -0.54889798 0.06265100
v -0.11482629 -0.53286547 0.06534451
v -0.12545450 -0.53577551 0.05303100
v -0.10861570 -0.53616019 0.07241980
v -0.10251084 -0.54196644 0.07807683
v -0.11355150 -0.52837800 0.06252225
v -0.12115900 -0.53121075 0.05587825
v -0.09839200 -0.53591400 0.07758800
v -0.10174988 -0.52999945 0.07311337
v -0.09628800 -0.52829700 0.07422850
v -0.10022050 -0.52402875 0.06905825
v -0.10593850 -0.52894250 0.06959650
v -0.09920850 -0.51510775 0.05925400
v -0.10023600 -0.51172799 0.05301200
v -0.09867650 -0.51792002 0.06347500
v -0.09787900 -0.52091998 0.06729900
v -0.11657139 -0.51157230 0.03106354
v -0.11635254 -0.50751606 0.01898638
v -0.10841714 -0.51522572 0.05124470
v -0.12145800 -0.52258301 0.04502900
v -0.11769076 -0.52132288 0.04986331
v -0.10994067 -0.51911923 0.05597336
v -0.12298968 -0.52036772 0.03849495
v -0.12444525 -0.52515865 0.04406421
v -0.11224997 -0.52452404 0.06054586
v -0.12981307 -0.52881166 0.03772677
v -0.13048451 -0.52343884 0.02592733
v -0.10309481 -0.51625286 0.05845055
v -0.12524166 -0.53076842 0.04923686
v -0.10373042 -0.52283280 0.06601517
v -0.12969150 -0.54437536 0.05074876
v -0.13624600 -0.54051509 0.03286586
v -0.13569155 -0.54613697 0.03789625
v -0.13042148 -0.53682537 0.04525081
v -0.13295090 -0.53632837 0.03848088
v -0.13869143 -0.53897033 0.02327047
v -0.13881899 -0.54303002 0.02571300
v -0.14072131 -0.54812625 0.01932236
v -0.14086972 -0.53768476 0.00952366
v -0.14204040 -0.54285169 0.00860181
v -0.13947006 -0.53298003 0.00946461
v -0.13586453 -0.53152145 0.02410061
v -0.14306874 -0.54234638 -0.00339567
v -0.14078668 -0.53252199 -0.00099157
v -0.13890682 -0.55110726 0.02690133
v -0.14151528 -0.53098642 -0.02498043
v -0.14309254 -0.53938718 -0.01316197
v -0.13636599 -0.52768099 0.01255400
v -0.14193701 -0.53391946 -0.03023262
v -0.14258599 -0.53688103 -0.02547800
v -0.13279562 -0.52914890 0.02983869
v -0.14031823 -0.53075302 -0.04062785
v -0.14276201 -0.54660898 0.00213100
v -0.14305125 -0.54091789 -0.02921800
v -0.14145701 -0.53688103 -0.03949700
v -0.14182777 -0.54202076 -0.04019338
v -0.14246279 -0.55117828 0.00159450
v -0.13893522 -0.53856673 -0.05296947
v -0.14345611 -0.54851198 -0.01485655
v -0.14061523 -0.54256966 -0.04722195
v -0.14222490 -0.54554613 -0.03629544
v -0.14038049 -0.55123111 -0.03835314
f 88 7 10
f 88 90 7
f 84 90 88
f 71 90 84
f 74 90 71
f 78 90 74
f 90 78 85
f 90 85 92
f 92 93 90
f 92 4 93
f 93 4 6
f 92 91 4
f 87 91 92
f 83 91 87
f 83 89 91
f 83 22 89
f 22 1 89
f 22 83 5
f 86 83 87
f 85 86 87
f 83 86 85
f 80 83 85
f 80 85 81
f 80 81 78
f 77 80 78
f 75 77 78
f 75 5 77
f 5 83 77
f 77 83 80
f 91 3 4
f 91 2 3
f 91 1 2
f 90 93 6
f 6 9 90
f 85 87 92
f 78 81 85
f 75 78 74
f 71 75 74
f 70 75 71
f 72 75 70
f 73 75 72
f 79 75 73
f 20 75 79
f 20 21 75
f 21 5 75
f 73 72 67
f 73 67 66
f 65 73 66
f 65 57 73
f 82 73 57
f 58 73 82
f 58 20 73
f 58 27 20
f 26 27 58
f 54 26 58
f 55 54 58
f 55 58 57
f 51 54 55
f 52 51 55
f 52 55 60
f 60 55 65
f 60 65 34
f 34 65 62
f 65 64 62
f 65 63 64
f 63 67 64
f 67 68 64
f 67 69 68
f 67 71 69
f 71 8 69
f 69 8 11
f 76 69 11
f 18 69 76
f 69 18 64
f 64 18 12
f 18 76 11
f 64 68 69
f 62 64 12
f 34 62 31
f 31 62 14
f 62 19 14
f 62 12 19
f 52 60 34
f 38 52 34
f 56 52 38
f 53 52 56
f 59 53 56
f 59 56 61
f 46 59 61
f 47 46 61
f 61 42 47
f 42 61 37
f 46 44 59
f 44 45 59
f 61 56 37
f 59 50 53
f 23 50 59
f 23 52 50
f 53 50 52
f 56 38 37
f 37 38 33
f 33 38 30
f 30 38 31
f 30 31 29
f 29 31 32
f 13 29 32
f 32 14 13
f 28 29 13
f 33 29 28
f 35 33 28
f 35 43 33
f 40 43 35
f 42 43 40
f 42 40 41
f 41 40 39
f 39 40 36
f 39 36 17
f 36 15 17
f 36 16 15
f 35 16 36
f 36 40 35
f 35 28 16
f 28 13 16
f 33 30 29
f 43 37 33
f 52 54 51
f 52 48 54
f 48 25 54
f 49 25 48
f 23 48 52
f 23 49 48
f 23 24 49
f 25 26 54
f 25 20 26
f 57 58 82
f 55 57 65
f 65 66 63
f 66 67 63
f 72 70 67
f 70 71 67
f 71 84 8
f 84 88 8
f 90 9 7

