v -0.141069 -0.449342 -0.018086
v -0.140955 -0.442864 -0.0174538
v -0.140842 -0.436385 -0.0168216
v -0.140729 -0.429906 -0.0161894
v -0.140649 -0.423425 -0.0155493
v -0.141408 -0.435334 -0.0230723
v -0.141588 -0.428908 -0.0225406
v -0.141939 -0.440786 -0.0300863
v -0.142026 -0.434348 -0.0295466
v -0.142112 -0.427909 -0.029007
v -0.141543 -0.453389 -0.0371297
v -0.141772 -0.447312 -0.0305671
v -0.14176 -0.446809 -0.0366853
v -0.141489 -0.460363 -0.0310983
v -0.1416 -0.45386 -0.0309068
v -0.141303 -0.459937 -0.0374618
v -0.140753 -0.466441 -0.0376926
v -0.141411 -0.4418 -0.0236865
v -0.140313 -0.466051 -0.044036
v -0.139293 -0.459183 -0.0497681
v -0.139563 -0.452645 -0.0494439
v -0.139815 -0.446102 -0.0491381
v -0.140067 -0.43956 -0.0488322
v -0.140319 -0.433017 -0.0485264
v -0.141477 -0.433279 -0.0421949
v -0.141251 -0.439829 -0.042544
v -0.142281 -0.427094 -0.0354332
v -0.142744 -0.420612 -0.0349611
v -0.142248 -0.421384 -0.0284441
v -0.141817 -0.415863 -0.0213941
v -0.142983 -0.414799 -0.0279871
v -0.141387 -0.410342 -0.014344
v -0.142552 -0.409278 -0.0209371
v -0.143718 -0.408213 -0.0275301
v -0.143268 -0.414139 -0.0345495
v -0.143907 -0.407667 -0.0343373
v -0.144546 -0.401195 -0.0341251
v -0.143086 -0.41381 -0.0415773
v -0.143739 -0.407334 -0.0413693
v -0.144393 -0.400858 -0.0411613
v -0.142382 -0.42028 -0.0417776
v -0.141107 -0.420048 -0.0481318
v -0.141853 -0.413589 -0.0480695
v -0.142599 -0.40713 -0.0480073
v -0.143345 -0.400671 -0.047945
v -0.140057 -0.413478 -0.0545414
v -0.140726 -0.407037 -0.0544983
v -0.141394 -0.400597 -0.0544552
v -0.138806 -0.426389 -0.0544537
v -0.139413 -0.419927 -0.0545352
v -0.137999 -0.413505 -0.0608449
v -0.138605 -0.407043 -0.0609264
v -0.139212 -0.400581 -0.061008
v -0.138019 -0.445898 -0.0551749
v -0.138276 -0.439394 -0.0549298
v -0.138533 -0.432891 -0.0546847
v -0.13776 -0.452402 -0.0554182
v -0.135557 -0.445952 -0.060821
v -0.13589 -0.439432 -0.0607103
v -0.136222 -0.432913 -0.0605996
v -0.133022 -0.44602 -0.0663347
v -0.133208 -0.439504 -0.0663364
v -0.133347 -0.432984 -0.0663336
v -0.133486 -0.426465 -0.0663307
v -0.133991 -0.419989 -0.06641
v -0.134703 -0.413538 -0.066536
v -0.135462 -0.407087 -0.066815
v -0.130361 -0.420013 -0.0720541
v -0.130881 -0.413544 -0.0721826
v -0.126866 -0.41355 -0.0778042
v -0.131508 -0.407094 -0.0724579
v -0.126294 -0.420025 -0.077297
v -0.12969 -0.433028 -0.0717109
v -0.129944 -0.426511 -0.0718159
v -0.125929 -0.426548 -0.0768572
v -0.115139 -0.459247 -0.0842974
v -0.124217 -0.452635 -0.075447
v -0.119903 -0.45268 -0.0800639
v -0.115589 -0.452725 -0.0846809
v -0.12898 -0.446068 -0.0712135
v -0.124666 -0.446113 -0.0758304
v -0.120353 -0.446157 -0.0804474
v -0.12943 -0.439545 -0.071597
v -0.125116 -0.43959 -0.0762139
v -0.120802 -0.439635 -0.0808308
v -0.125566 -0.433068 -0.0765974
v -0.110775 -0.459307 -0.0888865
v -0.110963 -0.45286 -0.0891232
v -0.11596 -0.446225 -0.0850202
v -0.116148 -0.439779 -0.0852569
v -0.121145 -0.433144 -0.0811539
v -0.116336 -0.433332 -0.0854937
v -0.111063 -0.446412 -0.0892643
v -0.111142 -0.439964 -0.0893825
v -0.111221 -0.433509 -0.0894437
v -0.1113 -0.427053 -0.0894915
v -0.111459 -0.420616 -0.0899578
v -0.111564 -0.414213 -0.090885
v -0.12224 -0.413792 -0.0824466
v -0.121773 -0.42024 -0.0819149
v -0.10596 -0.420996 -0.09347
v -0.101917 -0.441226 -0.0946262
v -0.106019 -0.427464 -0.0925615
v -0.101087 -0.434611 -0.0949568
v -0.0958917 -0.442053 -0.0965426
v -0.0950175 -0.435491 -0.0967384
v -0.0976265 -0.455132 -0.0961507
v -0.0914858 -0.455911 -0.0978113
v -0.0967639 -0.448609 -0.0963467
v -0.0923109 -0.462413 -0.0974526
v -0.0989597 -0.468175 -0.0948865
v -0.0983347 -0.461648 -0.0955892
v -0.106475 -0.466293 -0.0917855
v -0.103921 -0.467336 -0.0931275
v -0.102816 -0.460768 -0.0939133
v -0.083487 -0.443822 -0.099103
v -0.0852626 -0.456765 -0.0988595
v -0.084367 -0.450294 -0.098962
v -0.0861482 -0.463237 -0.0987037
v -0.0790678 -0.457763 -0.0993089
v -0.0781795 -0.451293 -0.0994474
v -0.0772912 -0.444823 -0.099586
v -0.0719885 -0.452408 -0.0991682
v -0.0709362 -0.446071 -0.099366
v -0.0763518 -0.438408 -0.0996077
v -0.075274 -0.432085 -0.0998216
v -0.0676616 -0.427156 -0.100192
v -0.0663547 -0.421131 -0.10152
v -0.0740999 -0.425933 -0.100801
v -0.0730875 -0.419642 -0.101479
v -0.0817839 -0.43082 -0.0996488
v -0.0872405 -0.42336 -0.0993462
v -0.0808712 -0.424415 -0.100575
v -0.0880772 -0.429844 -0.0986431
v -0.100214 -0.428051 -0.0951601
v -0.0942214 -0.428926 -0.0971941
v -0.100083 -0.421456 -0.0966908
v -0.0935735 -0.422348 -0.09804
v -0.0936483 -0.415746 -0.099843
v -0.0923146 -0.414716 -0.0998323
v -0.0859209 -0.416404 -0.101095
v -0.0905852 -0.408453 -0.102381
v -0.0888315 -0.402268 -0.104976
v -0.0868562 -0.396633 -0.10829
v -0.0805232 -0.398694 -0.108645
v -0.0761583 -0.405955 -0.105498
v -0.0659874 -0.397411 -0.112167
v -0.0697634 -0.407751 -0.105503
v -0.0678748 -0.402606 -0.108875
v -0.0633546 -0.40915 -0.104859
v -0.0569826 -0.410611 -0.103962
v -0.0505929 -0.411696 -0.102077
v -0.0442033 -0.412782 -0.100192
v -0.0550622 -0.405208 -0.1067
v -0.0486731 -0.406288 -0.104806
v -0.0423062 -0.407161 -0.102565
v -0.0269395 -0.415706 -0.0909803
v -0.0322718 -0.414862 -0.0950143
v -0.0287381 -0.421668 -0.0896468
v -0.0234173 -0.422641 -0.0858228
v -0.0187701 -0.423447 -0.0812279
v -0.0265477 -0.435215 -0.0847108
v -0.025193 -0.428844 -0.0849235
v -0.0201603 -0.429804 -0.080957
v -0.0332054 -0.467087 -0.0838244
v -0.0318775 -0.460713 -0.083996
v -0.0305496 -0.454338 -0.0841677
v -0.0292217 -0.447963 -0.0843393
v -0.0278938 -0.441588 -0.084511
v -0.0357236 -0.45332 -0.0878577
v -0.0344076 -0.446942 -0.0880089
v -0.0330916 -0.440565 -0.0881602
v -0.0317756 -0.434187 -0.0883114
v -0.0429895 -0.46471 -0.0906061
v -0.0381581 -0.465989 -0.087454
v -0.0418054 -0.45839 -0.0908249
v -0.036974 -0.459669 -0.0876729
v -0.0406213 -0.45207 -0.0910437
v -0.0394372 -0.44575 -0.0912626
v -0.0303457 -0.42789 -0.0888252
v -0.0429093 -0.432007 -0.0942534
v -0.0371484 -0.43314 -0.091687
v -0.0357226 -0.426876 -0.0922671
v -0.0414976 -0.425797 -0.0949919
v -0.0488117 -0.430889 -0.096675
v -0.0475116 -0.424658 -0.0971987
v -0.0536791 -0.423477 -0.0988836
v -0.052086 -0.417521 -0.100484
v -0.05612 -0.435974 -0.0979884
v -0.0612973 -0.428409 -0.0993613
v -0.0549299 -0.429702 -0.098342
v -0.0656494 -0.453679 -0.0985321
v -0.0645801 -0.447353 -0.0987125
v -0.0635109 -0.441027 -0.0988928
v -0.0572977 -0.442252 -0.0976525
v -0.0624417 -0.434701 -0.0990731
v -0.0667321 -0.460011 -0.0983922
v -0.0605407 -0.461246 -0.097217
v -0.0594558 -0.454913 -0.0973506
v -0.058371 -0.44858 -0.0974843
v -0.0500445 -0.437145 -0.0962427
v -0.0545054 -0.462415 -0.0954316
v -0.0533849 -0.4561 -0.0956457
v -0.0522644 -0.449785 -0.0958599
v -0.0511438 -0.44347 -0.096074
v -0.0497415 -0.469836 -0.0929868
v -0.038329 -0.439438 -0.0914239
v -0.0485779 -0.463541 -0.0932925
v -0.0474742 -0.457229 -0.0934444
v -0.0463705 -0.450918 -0.0935963
v -0.0452667 -0.444606 -0.0937482
v -0.044163 -0.438295 -0.0939001
v -0.0616678 -0.467559 -0.0966912
v -0.055674 -0.468685 -0.0951177
v -0.0677333 -0.4664 -0.0979643
v -0.0728976 -0.458853 -0.0990948
v -0.0459706 -0.418656 -0.0985964
v -0.0399978 -0.419687 -0.0960546
v -0.0342071 -0.420692 -0.0931857
v -0.0379464 -0.41391 -0.0982637
v -0.0214749 -0.416597 -0.0869862
v -0.0614414 -0.403919 -0.108073
v -0.0742412 -0.400774 -0.108946
v -0.0784358 -0.393345 -0.112121
v -0.0722318 -0.395401 -0.112148
v -0.0795414 -0.418191 -0.101879
v -0.0841752 -0.410223 -0.103582
v -0.0778492 -0.41204 -0.103634
v -0.0824829 -0.404072 -0.105337
v -0.0715173 -0.413597 -0.103258
v -0.0651805 -0.414939 -0.10253
v -0.0599097 -0.422315 -0.100439
v -0.0586369 -0.416272 -0.101828
v -0.0698592 -0.439749 -0.099603
v -0.0687814 -0.433426 -0.0998169
v -0.0799785 -0.464215 -0.0991001
v -0.0738706 -0.465231 -0.0988226
v -0.0906131 -0.449404 -0.0979477
v -0.0897403 -0.442897 -0.0980835
v -0.0888674 -0.43639 -0.0982192
v -0.0826244 -0.437331 -0.0992754
v -0.106293 -0.459829 -0.0920089
v -0.106413 -0.453397 -0.0920488
v -0.102527 -0.454292 -0.0942021
v -0.106532 -0.446966 -0.0920886
v -0.102647 -0.447861 -0.0942419
v -0.106652 -0.440535 -0.0921285
v -0.106771 -0.434104 -0.0921684
v -0.106039 -0.414563 -0.0945263
v -0.100049 -0.414958 -0.0980423
v -0.105972 -0.408097 -0.0957411
v -0.0999829 -0.408491 -0.0992571
v -0.116737 -0.420447 -0.0863371
v -0.116978 -0.414016 -0.0869015
v -0.121327 -0.426696 -0.0814216
v -0.116513 -0.426882 -0.0857946
v -0.136691 -0.426425 -0.0606422
v -0.137367 -0.419966 -0.0607531
v -0.141981 -0.394157 -0.0543996
v -0.144542 -0.394374 -0.0410079
v -0.143813 -0.394189 -0.0478202
v -0.141438 -0.448271 -0.0243112
v -0.140854 -0.416908 -0.014837
v -0.140792 -0.452971 -0.0433062
v -0.140988 -0.446393 -0.0429121
v -0.141655 -0.42674 -0.0418558
v -0.140469 -0.426509 -0.0482285
v -0.14059 -0.459541 -0.043694
v -0.141934 -0.440234 -0.0362572
v -0.142087 -0.433662 -0.0358367
v -0.141486 -0.422409 -0.021923
f 2 18 262 1
f 3 6 18 2
f 4 7 6 3
f 5 271 7 4
f 263 30 271 5
f 7 10 9 6
f 9 8 18 6
f 271 29 10 7
f 9 270 269 8
f 269 13 12 8
f 12 262 18 8
f 10 27 270 9
f 29 28 27 10
f 13 265 264 11
f 264 268 16 11
f 16 14 15 11
f 15 12 13 11
f 269 26 265 13
f 268 19 17 16
f 268 264 21 20
f 22 54 57 21
f 264 265 22 21
f 23 55 54 22
f 265 26 23 22
f 24 56 55 23
f 26 25 24 23
f 267 49 56 24
f 25 266 267 24
f 26 269 270 25
f 270 27 266 25
f 28 41 266 27
f 35 38 41 28
f 29 31 35 28
f 271 30 31 29
f 33 34 31 30
f 263 32 33 30
f 34 36 35 31
f 36 39 38 35
f 37 40 39 36
f 39 44 43 38
f 43 42 41 38
f 40 45 44 39
f 260 261 45 40
f 42 267 266 41
f 43 46 50 42
f 50 49 267 42
f 44 47 46 43
f 45 48 47 44
f 261 259 48 45
f 47 52 51 46
f 51 258 50 46
f 48 53 52 47
f 50 258 257 49
f 257 60 56 49
f 52 67 66 51
f 66 65 258 51
f 55 59 58 54
f 56 60 59 55
f 59 62 61 58
f 60 63 62 59
f 257 64 63 60
f 62 83 80 61
f 63 73 83 62
f 64 74 73 63
f 65 68 74 64
f 257 258 65 64
f 66 69 68 65
f 67 71 69 66
f 69 70 72 68
f 72 75 74 68
f 99 100 72 70
f 100 255 75 72
f 74 75 86 73
f 86 84 83 73
f 255 91 86 75
f 79 88 87 76
f 81 82 78 77
f 82 89 79 78
f 89 93 88 79
f 83 84 81 80
f 84 85 82 81
f 85 90 89 82
f 86 91 85 84
f 91 92 90 85
f 90 94 93 89
f 92 95 94 90
f 255 256 92 91
f 256 96 95 92
f 256 253 97 96
f 98 249 101 97
f 253 254 98 97
f 254 253 100 99
f 253 256 255 100
f 249 250 137 101
f 137 135 103 101
f 104 106 105 102
f 105 109 246 102
f 246 245 247 102
f 247 248 104 102
f 135 104 248 103
f 135 136 106 104
f 106 240 239 105
f 239 238 109 105
f 136 134 240 106
f 109 238 108 107
f 108 110 112 107
f 112 115 244 107
f 244 246 109 107
f 238 118 117 108
f 117 119 110 108
f 114 115 112 111
f 242 115 114 113
f 242 243 244 115
f 241 125 122 116
f 122 121 118 116
f 118 238 239 116
f 239 240 241 116
f 118 121 120 117
f 120 236 119 117
f 121 123 216 120
f 216 237 236 120
f 122 124 123 121
f 125 234 124 122
f 124 193 192 123
f 192 197 216 123
f 234 194 193 124
f 126 235 234 125
f 241 131 126 125
f 129 127 235 126
f 131 133 129 126
f 128 232 190 127
f 190 196 235 127
f 129 130 128 127
f 231 233 232 128
f 130 230 231 128
f 133 226 130 129
f 226 228 230 130
f 241 240 134 131
f 134 132 133 131
f 141 226 133 132
f 134 136 138 132
f 137 138 136 135
f 250 139 138 137
f 142 227 141 140
f 227 228 226 141
f 143 229 227 142
f 144 145 229 143
f 224 225 223 145
f 223 146 229 145
f 223 149 148 146
f 148 230 228 146
f 228 227 229 146
f 149 223 225 147
f 149 222 150 148
f 150 231 230 148
f 222 154 151 150
f 151 233 231 150
f 154 155 152 151
f 152 188 233 151
f 155 156 153 152
f 153 217 188 152
f 220 218 217 153
f 221 160 159 157
f 159 219 158 157
f 219 218 220 158
f 160 163 180 159
f 180 183 219 159
f 161 164 163 160
f 169 172 173 162
f 173 180 163 162
f 175 177 166 165
f 177 170 167 166
f 170 171 168 167
f 171 172 169 168
f 177 176 178 170
f 178 179 171 170
f 182 183 180 173
f 176 177 175 174
f 184 183 182 181
f 182 207 212 181
f 212 201 185 181
f 185 186 184 181
f 184 218 219 183
f 186 217 218 184
f 201 189 191 185
f 191 187 186 185
f 187 188 217 186
f 191 190 232 187
f 232 233 188 187
f 201 205 195 189
f 195 194 196 189
f 196 190 191 189
f 193 200 199 192
f 199 198 197 192
f 194 195 200 193
f 234 235 196 194
f 205 204 200 195
f 198 213 215 197
f 215 237 216 197
f 199 203 202 198
f 202 214 213 198
f 200 204 203 199
f 212 211 205 201
f 203 209 208 202
f 208 206 214 202
f 204 210 209 203
f 205 211 210 204
f 245 246 244 243
f 251 252 250 249
