# https://github.com/mikedh/trimesh
v -0.13423250 0.36363550 0.11826650
v -0.14698050 0.33708600 0.13629899
v -0.13805800 0.35474500 0.12564000
v -0.12848899 0.37825924 0.10033236
v -0.15179101 0.32927400 0.13999249
v -0.17146552 0.34060674 0.09360059
v -0.17794700 0.32885726 0.10312400
v -0.17381550 0.33825550 0.09758800
v -0.16534150 0.35358600 0.09020450
v -0.15523501 0.36698499 0.08414700
v -0.18687600 0.16690500 0.18927900
v -0.15021150 0.18855850 0.21952199
v -0.13141899 0.20504801 0.23073151
v -0.12775800 0.20984000 0.23262000
v -0.14425001 0.19345900 0.22333500
v -0.18362300 0.25916201 0.15413401
v -0.17275750 0.24541988 0.17350500
v -0.20567598 0.27205595 0.09502016
v -0.20382758 0.28183818 0.07824748
v -0.17292200 0.24000999 0.17550801
v -0.17452450 0.23584151 0.17493749
v -0.18899100 0.24414100 0.15205801
v -0.21723100 0.16630325 0.15162375
v -0.17543287 0.17379737 0.20108950
v -0.15873625 0.18360650 0.21446075
v -0.13462500 0.38124001 0.09196600
v -0.12675725 0.29534175 0.19061250
v -0.12068425 0.28532651 0.19995425
v -0.12432500 0.27964801 0.20153899
v -0.20901550 0.24590700 0.12509350
v -0.20308883 0.24598135 0.13735776
v -0.21267420 0.25051409 0.11971723
v -0.21332335 0.26279835 0.10673969
v -0.19060278 0.24653898 0.15206997
v -0.19137791 0.25071068 0.15049351
v -0.21288600 0.24915050 0.11723900
v -0.13647477 0.29859318 0.18209527
v -0.15590643 0.29469441 0.16518210
v -0.16012340 0.29697006 0.15880304
v -0.22456272 0.23060009 0.11893148
v -0.22601072 0.23581388 0.11285111
v -0.22819800 0.24219950 0.10537425
v -0.20652100 0.22157525 0.14462325
v -0.22058966 0.22527410 0.12705760
v -0.18581344 0.22352645 0.17046664
v -0.14456664 0.37777244 0.08483826
v -0.15069657 0.37311632 0.08482138
v -0.16267332 0.35826841 0.08981301
v -0.13749378 0.36043263 0.12121447
v -0.14753406 0.34118002 0.13393541
v -0.14012103 0.35865598 0.12091019
v -0.14875500 0.34652701 0.12521900
v -0.16087288 0.32693348 0.13228383
v -0.17066407 0.32891784 0.11611565
v -0.16170635 0.34481089 0.10945234
v -0.17515841 0.33598529 0.10154450
v -0.17398996 0.33837294 0.10041579
v -0.16290259 0.35668760 0.09259644
v -0.14816842 0.37515868 0.08636743
v -0.17732564 0.32199485 0.11442614
v -0.16130554 0.31440727 0.14488227
v -0.18033858 0.32310353 0.10862458
v -0.18703429 0.30458987 0.11576280
v -0.19953556 0.27155535 0.12471745
v -0.19027723 0.25819643 0.14728798
v -0.20815645 0.24962705 0.12837694
v -0.20263584 0.27776119 0.11292558
v -0.17587995 0.28788473 0.14568708
v -0.18133228 0.26173112 0.15722169
v -0.17660407 0.29453938 0.13967647
v -0.17653029 0.30608704 0.13034467
v -0.16469151 0.29494602 0.15540819
v -0.15916720 0.32031888 0.14224881
v -0.16318532 0.30494822 0.15017741
v -0.21443505 0.25462692 0.11354704
v -0.17712470 0.26201859 0.16217392
v -0.18435061 0.31194372 0.11330226
v -0.17208908 0.25153816 0.17306303
v -0.20603586 0.27486262 0.10664856
v -0.19264857 0.29793054 0.10562291
v -0.19581731 0.29082622 0.11033271
v -0.20549773 0.28106892 0.08796231
v -0.20006867 0.29302729 0.07555943
v -0.19413744 0.22126725 0.16100319
v -0.21454250 0.25647401 0.10827400
v -0.18947104 0.30315278 0.10489184
v -0.14132838 0.35257168 0.12705805
v -0.22904700 0.23675500 0.10857500
v -0.19837845 0.21904751 0.15870143
v -0.18911238 0.22068585 0.16877330
v -0.19140806 0.21350177 0.16908708
v -0.19652254 0.18762583 0.17363579
v -0.24329501 0.22453450 0.09073350
v -0.23642001 0.23026800 0.09988000
v -0.23616360 0.21843309 0.10629559
v -0.22774100 0.17724200 0.13618200
v -0.23961550 0.19870600 0.10830500
v -0.18084762 0.17435953 0.19682650
v -0.17212581 0.19545232 0.19702822
v -0.16519878 0.18283332 0.20984712
v -0.14408644 0.21346219 0.21714512
v -0.15315742 0.23355218 0.20000612
v -0.16279526 0.20664082 0.20211895
v -0.18001721 0.22622453 0.17629849
v -0.13584501 0.26234201 0.20304000
v -0.16554947 0.24615256 0.18213494
v -0.15415464 0.27232813 0.18054293
v -0.14134367 0.26687167 0.19588424
v -0.15769701 0.28846100 0.16796100
v -0.17262889 0.25527541 0.17086168
v -0.17801534 0.26730303 0.15751244
v -0.21169244 0.21967094 0.14198953
v -0.20545462 0.16644092 0.17054650
v -0.19575955 0.16760510 0.18251177
v -0.22266161 0.17447665 0.14490475
v -0.13438488 0.22004190 0.22295691
v -0.14132901 0.20139501 0.22554138
v -0.14082283 0.25439981 0.20226702
v -0.13208766 0.26285658 0.20602673
v -0.12348300 0.22145850 0.23103950
v -0.12733901 0.25230101 0.21399599
v -0.13095200 0.27076399 0.19882300
v -0.14617829 0.29428226 0.17626682
v -0.15609202 0.18760013 0.21656723
v -0.16692911 0.17985573 0.20887183
f 102 103 101
f 103 102 104
f 103 104 99
f 99 104 98
f 104 92 98
f 104 91 92
f 90 91 104
f 104 45 90
f 20 45 104
f 90 45 89
f 45 84 89
f 84 43 89
f 90 89 91
f 91 89 92
f 89 112 92
f 112 115 92
f 44 115 112
f 115 44 40
f 40 95 115
f 115 95 96
f 115 96 23
f 115 23 113
f 114 115 113
f 95 97 96
f 95 93 97
f 94 93 95
f 88 94 95
f 40 88 95
f 41 88 40
f 41 42 88
f 92 115 114
f 98 92 114
f 98 114 24
f 114 11 24
f 125 98 24
f 100 98 125
f 124 100 125
f 124 125 25
f 15 124 25
f 117 124 15
f 13 117 15
f 13 116 117
f 101 117 116
f 120 116 13
f 121 116 120
f 121 119 116
f 119 118 116
f 119 105 118
f 122 105 119
f 118 102 116
f 118 110 102
f 108 110 118
f 122 108 118
f 122 107 108
f 122 38 107
f 29 38 122
f 29 123 38
f 37 123 29
f 37 38 123
f 27 37 29
f 28 27 29
f 38 109 107
f 107 109 110
f 109 38 110
f 38 111 110
f 110 111 76
f 111 69 76
f 72 69 111
f 72 68 69
f 70 68 72
f 74 70 72
f 74 72 39
f 38 39 72
f 74 71 70
f 74 60 71
f 61 60 74
f 73 60 61
f 5 73 61
f 5 53 73
f 2 53 5
f 2 50 53
f 50 55 53
f 53 55 54
f 55 7 54
f 55 58 7
f 51 58 55
f 51 4 58
f 4 26 58
f 59 58 26
f 59 48 58
f 47 48 59
f 46 47 59
f 47 10 48
f 10 9 48
f 48 6 58
f 58 6 57
f 57 6 8
f 56 57 8
f 56 8 7
f 6 48 9
f 26 46 59
f 4 51 49
f 49 51 87
f 87 51 50
f 50 51 52
f 49 87 3
f 3 87 2
f 2 87 50
f 1 49 3
f 4 49 1
f 52 51 55
f 54 7 60
f 60 7 62
f 60 62 77
f 54 60 53
f 52 55 50
f 53 60 73
f 71 60 77
f 71 77 63
f 77 80 63
f 77 86 80
f 86 82 80
f 86 19 82
f 86 83 19
f 80 82 67
f 67 82 18
f 82 19 18
f 81 80 67
f 63 81 67
f 63 67 64
f 64 67 75
f 67 33 75
f 33 85 75
f 67 79 33
f 79 18 33
f 64 75 66
f 66 75 32
f 66 32 31
f 35 66 31
f 35 65 66
f 34 35 31
f 32 30 31
f 30 32 36
f 32 75 36
f 75 85 36
f 64 66 65
f 69 64 65
f 70 64 69
f 63 80 81
f 71 63 64
f 70 71 64
f 68 70 69
f 76 69 110
f 110 69 16
f 78 110 16
f 110 78 106
f 106 78 102
f 102 78 20
f 20 78 17
f 20 17 21
f 78 16 17
f 69 65 16
f 65 22 16
f 38 72 111
f 107 110 108
f 110 106 102
f 120 13 14
f 12 15 25
f 117 100 124
f 117 103 100
f 99 98 100
f 100 103 99
f 102 20 104
f 101 103 117
f 116 102 101

