v 0.157813 -0.348827 0.0129169
v 0.154555 -0.350732 0.0140103
v 0.163422 -0.34248 0.0131662
v 0.160212 -0.344417 0.0143044
v 0.156878 -0.34611 0.0150886
v 0.165904 -0.338066 0.0145706
v 0.162538 -0.339697 0.0152644
v 0.164832 -0.334916 0.0161342
v 0.169366 -0.336685 0.0142725
v 0.172871 -0.335432 0.0141832
v 0.168278 -0.333493 0.0157697
v 0.180445 -0.34753 0.0106045
v 0.179449 -0.344156 0.011308
v 0.178452 -0.340782 0.0120115
v 0.177456 -0.337408 0.012715
v 0.184135 -0.346897 0.0113031
v 0.183104 -0.343483 0.0120415
v 0.181897 -0.354662 0.00941923
v 0.181436 -0.350949 0.00989018
v 0.179423 -0.362549 0.00764584
v 0.175905 -0.362758 0.00687525
v 0.178926 -0.358761 0.00813493
v 0.169744 -0.373878 0.00296312
v 0.173065 -0.370203 0.00466247
v 0.176386 -0.366529 0.00636182
v 0.166426 -0.377504 0.00116267
v 0.164166 -0.380628 -0.00213716
v 0.163181 -0.377329 -0.000746033
v 0.161812 -0.380323 -0.00506485
v 0.160797 -0.377021 -0.00365247
v 0.165313 -0.38381 -0.00393676
v 0.168585 -0.38363 -0.00273496
v 0.167381 -0.380953 -0.000347508
v 0.169547 -0.370218 0.00339712
v 0.172813 -0.366592 0.00528672
v 0.172783 -0.362943 0.00545595
v 0.166228 -0.373847 0.00154436
v 0.162638 -0.373838 2.44133e-05
v 0.16603 -0.370206 0.0018278
v 0.169422 -0.366573 0.00363119
v 0.166281 -0.366538 0.00162722
v 0.169707 -0.362903 0.00339421
v 0.173133 -0.359268 0.0051612
v 0.173664 -0.355583 0.00465937
v 0.170181 -0.35919 0.0029682
v 0.174046 -0.351825 0.00435665
v 0.162812 -0.370148 -8.01251e-05
v 0.166672 -0.362782 0.00131385
v 0.170532 -0.355416 0.00270783
v 0.163528 -0.36644 -0.000753095
v 0.176206 -0.35179 0.00723597
v 0.176255 -0.359225 0.00700969
v 0.176228 -0.355507 0.0071258
v 0.179242 -0.355264 0.00848573
v 0.179062 -0.351486 0.00859879
v 0.149912 -0.317956 0.006866
v 0.158199 -0.350909 0.00987582
v 0.161197 -0.348694 0.00852389
v 0.155908 -0.354758 0.00808389
v 0.170112 -0.377422 0.00190676
v 0.173413 -0.373758 0.00369314
v 0.173885 -0.3772 0.00220066
v 0.177197 -0.373524 0.00394824
v 0.176715 -0.370094 0.00547786
v 0.170874 -0.380624 0.000409583
v 0.178233 -0.379989 0.000215764
v 0.174661 -0.380256 0.000378519
v 0.177738 -0.376805 0.00221342
v 0.181306 -0.376039 0.00157517
v 0.184377 -0.371918 0.00277208
v 0.18081 -0.372841 0.00356017
v 0.187449 -0.367798 0.00396898
v 0.188386 -0.374379 0.000135323
v 0.184853 -0.375186 0.000838221
v 0.187927 -0.371057 0.00202926
v 0.191001 -0.366928 0.00322029
v 0.185298 -0.377826 -0.00144605
v 0.181774 -0.379068 -0.000493623
v 0.191521 -0.372572 -0.00150865
v 0.188408 -0.376026 -0.00304713
v 0.19421 -0.370369 -0.00357244
v 0.200012 -0.364712 -0.00409775
v 0.197409 -0.366967 -0.00197698
v 0.203211 -0.36131 -0.00250229
v 0.19453 -0.368997 -7.68558e-05
v 0.200602 -0.363552 -0.000390517
v 0.19748 -0.364704 0.000878355
v 0.200328 -0.36021 0.00143151
v 0.202765 -0.355319 0.0010413
v 0.205094 -0.350434 0.000586298
v 0.202592 -0.351965 0.00291287
v 0.205654 -0.35649 -0.00269207
v 0.202967 -0.358587 -0.000768957
v 0.205325 -0.353609 -0.00115771
v 0.201731 -0.3483 0.00379129
v 0.198276 -0.346124 0.0068639
v 0.198986 -0.349729 0.00579186
v 0.195784 -0.350964 0.00717031
v 0.195153 -0.347392 0.00834893
v 0.199574 -0.353328 0.00461205
v 0.196343 -0.354582 0.00598969
v 0.193113 -0.355836 0.00736733
v 0.19257 -0.352207 0.00854839
v 0.193627 -0.359426 0.00612191
v 0.187124 -0.364735 0.00611456
v 0.190148 -0.360333 0.00685941
v 0.18969 -0.356835 0.00832539
v 0.183546 -0.365474 0.0065509
v 0.186628 -0.361172 0.00746806
v 0.180402 -0.369572 0.00534703
v 0.179944 -0.366194 0.00692407
v 0.18302 -0.361871 0.00777589
v 0.191893 -0.348571 0.00954215
v 0.188512 -0.349633 0.0103491
v 0.194378 -0.343743 0.00919669
v 0.190992 -0.344814 0.0100164
v 0.187606 -0.345885 0.010836
v 0.193382 -0.340165 0.00992239
v 0.189996 -0.341236 0.0107421
v 0.189 -0.337658 0.0114678
v 0.197535 -0.342597 0.00776592
v 0.196442 -0.338987 0.00823421
v 0.192364 -0.33658 0.0105886
v 0.199411 -0.337812 0.0062871
v 0.198275 -0.334278 0.00659383
v 0.195334 -0.335404 0.00864453
v 0.197138 -0.330744 0.00690055
v 0.194197 -0.33187 0.00895126
v 0.191257 -0.332995 0.011002
v 0.196001 -0.32721 0.00720728
v 0.200911 -0.333254 0.00412483
v 0.199756 -0.329726 0.00440689
v 0.201155 -0.3252 0.00210634
v 0.198601 -0.326197 0.00468895
v 0.199822 -0.321762 0.00206913
v 0.197235 -0.322776 0.00459146
v 0.198372 -0.318383 0.00182213
v 0.195785 -0.319397 0.00434445
v 0.196922 -0.315004 0.00157512
v 0.195473 -0.311625 0.00132811
v 0.194023 -0.308246 0.00108111
v 0.200845 -0.317443 -0.000827874
v 0.201826 -0.313151 -0.00377292
v 0.199391 -0.314066 -0.00107974
v 0.197937 -0.31069 -0.00133161
v 0.20034 -0.309783 -0.00403996
v 0.196476 -0.307316 -0.00158694
v 0.157748 -0.355279 -0.000617737
v 0.198821 -0.306419 -0.00431675
v 0.194581 -0.323768 0.00704428
v 0.193072 -0.320369 0.00673672
v 0.194323 -0.316014 0.00408413
v 0.191564 -0.31697 0.00642917
v 0.188806 -0.317926 0.0087742
v 0.192814 -0.312615 0.00377658
v 0.190056 -0.313571 0.00612161
v 0.187161 -0.314603 0.00808143
v 0.191306 -0.309216 0.00346872
v 0.188408 -0.31025 0.00541848
v 0.18551 -0.311283 0.00736824
v 0.182612 -0.312317 0.009318
v 0.192552 -0.304863 0.000805761
v 0.189654 -0.305897 0.00275552
v 0.185762 -0.319044 0.010502
v 0.184253 -0.315642 0.0100147
v 0.184035 -0.323653 0.0124234
v 0.182527 -0.320254 0.0119352
v 0.179282 -0.321446 0.0133785
v 0.176037 -0.322639 0.0148217
v 0.181018 -0.316854 0.0114471
v 0.177774 -0.318047 0.0128903
v 0.17951 -0.313455 0.0109589
v 0.174503 -0.319302 0.0142111
v 0.176226 -0.314745 0.0122117
v 0.177949 -0.310188 0.0102123
v 0.171176 -0.320688 0.0150104
v 0.172893 -0.316149 0.0130712
v 0.169568 -0.317527 0.0138414
v 0.174611 -0.31161 0.011132
v 0.171285 -0.312988 0.0119022
v 0.16796 -0.314365 0.0126725
v 0.167776 -0.322022 0.0157481
v 0.166192 -0.318874 0.0145895
v 0.164608 -0.315726 0.0134309
v 0.159018 -0.329541 0.0175408
v 0.164347 -0.323423 0.0161924
v 0.169306 -0.325294 0.0164
v 0.165877 -0.326709 0.016781
v 0.162449 -0.328124 0.017162
v 0.172734 -0.323887 0.0159917
v 0.177413 -0.326118 0.0149418
v 0.183328 -0.331877 0.0134852
v 0.178673 -0.32961 0.0147052
v 0.179885 -0.333089 0.0142195
v 0.187967 -0.334171 0.0122253
v 0.184541 -0.335366 0.013108
v 0.174021 -0.327413 0.0157529
v 0.17059 -0.328795 0.0162191
v 0.167153 -0.330173 0.0166844
v 0.154587 -0.339357 0.0177779
v 0.163698 -0.331549 0.0171242
v 0.160275 -0.332994 0.0175064
v 0.15801 -0.337914 0.017257
v 0.152373 -0.344339 0.0172864
v 0.161466 -0.336505 0.0169166
v 0.150037 -0.348994 0.0159153
v 0.151183 -0.352317 0.0144705
v 0.147697 -0.35323 0.0136267
v 0.146561 -0.349939 0.0151253
v 0.156817 -0.334439 0.0177291
v 0.151208 -0.340988 0.0174345
v 0.153473 -0.336142 0.0175054
v 0.150327 -0.33823 0.0171628
v 0.148921 -0.345673 0.0171796
v 0.145624 -0.346667 0.0155908
v 0.14798 -0.342486 0.0164195
v 0.162787 -0.320264 0.0152184
v 0.152537 -0.333524 0.0168488
v 0.157639 -0.326839 0.0162009
v 0.154339 -0.328617 0.0159526
v 0.151063 -0.330407 0.0156492
v 0.149149 -0.335297 0.0164563
v 0.145812 -0.337193 0.0151062
v 0.147761 -0.332227 0.0150374
v 0.14502 -0.334354 0.012922
v 0.144227 -0.331516 0.0107378
v 0.141485 -0.333643 0.00862241
v 0.144015 -0.34201 0.014955
v 0.141402 -0.344013 0.0126539
v 0.143167 -0.339226 0.0128513
v 0.140554 -0.341229 0.0105503
v 0.142319 -0.336442 0.0107477
v 0.139705 -0.338444 0.00844662
v 0.159429 -0.322004 0.0151211
v 0.156151 -0.323816 0.0147617
v 0.152874 -0.325628 0.0144024
v 0.161231 -0.317306 0.0136623
v 0.157953 -0.319118 0.013303
v 0.159853 -0.314464 0.0117341
v 0.149766 -0.327552 0.0138046
v 0.154788 -0.32099 0.0128045
v 0.151804 -0.323008 0.0120169
v 0.156825 -0.316446 0.0110167
v 0.153842 -0.318464 0.0102291
v 0.150858 -0.320482 0.00944143
v 0.148818 -0.325028 0.01122
v 0.145809 -0.32707 0.0103352
v 0.14786 -0.322513 0.00860058
v 0.146781 -0.329587 0.0129318
v 0.16017 -0.352946 -0.00191189
v 0.162593 -0.350614 -0.00320605
v 0.165015 -0.348281 -0.0045002
v 0.165994 -0.345563 0.00224921
v 0.160665 -0.351593 0.00146431
v 0.144854 -0.324517 0.00774748
v 0.146906 -0.319956 0.00601631
v 0.1439 -0.321956 0.00516662
v 0.162878 -0.349063 0.000110514
v 0.165092 -0.346533 -0.00124328
v 0.186719 -0.330651 0.0124801
v 0.185394 -0.327142 0.0124994
v 0.182065 -0.328385 0.0137084
v 0.18074 -0.324876 0.0137277
v 0.188599 -0.325969 0.0109816
v 0.187258 -0.322453 0.0109547
v 0.186745 -0.30695 0.00466313
v 0.183829 -0.308016 0.006547
v 0.180913 -0.309081 0.00843087
v 0.202062 -0.336748 0.00387285
v 0.203457 -0.332178 0.00161286
v 0.202306 -0.328693 0.00185615
v 0.203039 -0.340162 0.00339803
v 0.204549 -0.335639 0.00129227
v 0.203743 -0.343511 0.00253573
v 0.192983 -0.328346 0.0091284
v 0.18994 -0.329484 0.0110084
v 0.191647 -0.324836 0.00910261
v 0.190311 -0.321327 0.00907681
v 0.186601 -0.342334 0.011574
v 0.185571 -0.338851 0.0123421
v 0.204358 -0.346883 0.00154167
v 0.200951 -0.344742 0.00465849
v 0.200389 -0.341341 0.00572981
v 0.200019 -0.356835 0.00317447
v 0.196877 -0.358199 0.00478194
v 0.19138 -0.370158 0.00118925
v 0.194317 -0.36587 0.00214311
v 0.197254 -0.361581 0.00309696
v 0.194043 -0.362763 0.00435714
v 0.183984 -0.368846 0.00492767
v 0.190565 -0.363731 0.00523921
v 0.186095 -0.357548 0.00862362
v 0.182411 -0.358318 0.00876701
v 0.189167 -0.353226 0.00946202
v 0.185483 -0.353996 0.00960542
v 0.184871 -0.350445 0.0105872
v 0.182056 -0.339995 0.0126877
v 0.181005 -0.336498 0.0133237
v 0.17639 -0.334289 0.0142787
v 0.175225 -0.330889 0.0152347
v 0.171764 -0.332236 0.0156047
v 0.153518 -0.347701 0.0159238
v 0.159173 -0.34132 0.0159914
v 0.155816 -0.342895 0.0168794
v 0.173912 -0.338521 0.0125317
v 0.17033 -0.339656 0.0124661
v 0.166748 -0.340791 0.0124004
v 0.152071 -0.3548 0.0116925
v 0.155244 -0.353098 0.0112219
v 0.163822 -0.344643 0.0102711
v 0.160914 -0.346804 0.0116108
v 0.16675 -0.342684 0.00895512
v 0.168421 -0.345126 -0.00227304
v 0.169122 -0.344055 0.00116892
v 0.167679 -0.346176 -0.00572535
v 0.166404 -0.344167 0.00564765
v 0.158207 -0.353914 0.0027992
v 0.163513 -0.347865 0.00358237
v 0.16103 -0.350165 0.00491537
v 0.163854 -0.346417 0.00703155
v 0.155782 -0.356234 0.00442911
v 0.158607 -0.352486 0.00654819
v 0.153033 -0.357766 0.00475617
v 0.152165 -0.356168 0.00760771
v 0.155336 -0.357622 0.000679406
f 5 302 2 1
f 2 309 57 1
f 57 58 311 1
f 311 4 5 1
f 302 206 207 2
f 207 308 309 2
f 7 303 4 3
f 4 311 310 3
f 307 6 7 3
f 303 304 5 4
f 304 204 302 5
f 8 205 7 6
f 307 306 9 6
f 9 11 8 6
f 205 203 303 7
f 201 202 205 8
f 11 199 201 8
f 306 305 10 9
f 10 301 11 9
f 305 15 299 10
f 299 300 301 10
f 301 198 199 11
f 19 296 16 12
f 16 17 13 12
f 17 297 14 13
f 297 298 15 14
f 298 194 299 15
f 296 114 117 16
f 117 279 17 16
f 279 280 297 17
f 293 292 295 18
f 295 296 19 18
f 21 25 111 20
f 111 108 112 20
f 112 293 22 20
f 34 39 37 23
f 37 26 60 23
f 60 62 61 23
f 61 24 34 23
f 35 40 34 24
f 61 63 64 24
f 64 25 35 24
f 64 110 111 25
f 37 38 28 26
f 28 27 33 26
f 28 30 29 27
f 31 32 33 27
f 40 41 39 34
f 36 42 40 35
f 43 45 42 36
f 39 47 38 37
f 41 50 47 39
f 42 48 41 40
f 44 49 45 43
f 52 53 44 43
f 53 51 46 44
f 53 54 55 51
f 65 67 62 60
f 62 68 63 61
f 67 66 68 62
f 68 69 71 63
f 71 110 64 63
f 78 69 68 66
f 78 77 74 69
f 74 70 71 69
f 290 110 71 70
f 74 73 75 70
f 75 72 290 70
f 105 108 290 72
f 75 286 76 72
f 76 291 105 72
f 74 77 80 73
f 79 286 75 73
f 286 85 287 76
f 287 289 291 76
f 81 85 286 79
f 86 87 83 82
f 87 287 85 83
f 93 88 86 84
f 88 288 87 86
f 288 289 287 87
f 284 285 288 88
f 93 89 284 88
f 91 100 284 89
f 93 92 94 89
f 94 90 91 89
f 281 95 91 90
f 95 97 100 91
f 282 96 97 95
f 281 274 282 95
f 121 115 99 96
f 99 98 97 96
f 282 283 121 96
f 98 101 100 97
f 99 113 103 98
f 103 102 101 98
f 115 116 113 99
f 101 285 284 100
f 102 104 285 101
f 103 294 107 102
f 107 106 104 102
f 113 114 294 103
f 106 291 289 104
f 289 288 285 104
f 109 112 108 105
f 291 106 109 105
f 107 292 109 106
f 294 295 292 107
f 111 110 290 108
f 292 293 112 109
f 116 117 114 113
f 296 295 294 114
f 118 119 116 115
f 121 122 118 115
f 119 279 117 116
f 123 120 119 118
f 122 126 123 118
f 120 280 279 119
f 195 196 280 120
f 123 129 195 120
f 283 124 122 121
f 124 125 126 122
f 126 128 129 123
f 283 272 269 124
f 269 131 125 124
f 127 128 126 125
f 131 132 127 125
f 130 275 128 127
f 132 134 130 127
f 275 276 129 128
f 276 260 195 129
f 150 277 275 130
f 134 136 150 130
f 269 273 270 131
f 270 271 132 131
f 271 133 134 132
f 135 136 134 133
f 137 138 136 135
f 138 151 150 136
f 139 152 138 137
f 142 144 139 137
f 152 153 151 138
f 140 155 152 139
f 144 145 140 139
f 141 158 155 140
f 145 147 141 140
f 162 163 158 141
f 146 145 144 143
f 146 149 147 145
f 151 278 277 150
f 153 154 278 151
f 155 156 153 152
f 156 157 154 153
f 157 165 164 154
f 164 265 278 154
f 158 159 156 155
f 159 160 157 156
f 160 161 165 157
f 163 266 159 158
f 266 267 160 159
f 267 268 161 160
f 268 175 172 161
f 172 170 165 161
f 165 170 167 164
f 167 166 265 164
f 167 168 263 166
f 263 262 261 166
f 261 264 265 166
f 170 171 168 167
f 171 173 169 168
f 169 191 263 168
f 173 176 190 169
f 190 197 191 169
f 172 174 171 170
f 174 177 173 171
f 175 179 174 172
f 177 178 176 173
f 179 180 177 174
f 178 183 182 176
f 182 187 190 176
f 180 181 178 177
f 181 184 183 178
f 183 217 186 182
f 186 188 187 182
f 184 237 217 183
f 202 201 189 185
f 188 199 198 187
f 198 197 190 187
f 189 201 199 188
f 197 300 193 191
f 193 262 263 191
f 262 193 194 192
f 194 298 196 192
f 196 195 260 192
f 260 261 262 192
f 300 299 194 193
f 298 297 280 196
f 198 301 300 197
f 212 213 211 200
f 211 204 304 200
f 304 303 203 200
f 203 210 212 200
f 210 203 205 202
f 211 216 214 204
f 214 206 302 204
f 214 215 209 206
f 209 208 207 206
f 237 238 234 217
f 221 224 222 218
f 235 236 220 219
f 236 240 221 220
f 224 225 223 222
f 225 232 230 223
f 226 227 232 225
f 230 231 229 228
f 232 233 231 230
f 238 241 235 234
f 241 242 236 235
f 242 246 240 236
f 239 243 238 237
f 243 244 241 238
f 246 247 249 240
f 244 245 242 241
f 245 248 246 242
f 56 256 248 245
f 248 255 247 246
f 256 257 255 248
f 276 264 261 260
f 276 275 277 264
f 277 278 265 264
f 283 282 274 272
f 59 322 57 309
f 311 58 320 310
f 320 316 312 310
f 314 253 259 313
f 259 252 315 313
f 320 318 253 316
f 322 59 321 317
f 321 325 148 317
f 148 250 254 317
f 254 319 322 317
f 320 58 319 318
f 319 254 258 318
f 258 259 253 318
f 58 57 322 319
f 59 324 323 321
f 258 251 252 259
f 254 250 251 258
