# https://github.com/mikedh/trimesh
v 0.05746050 0.12318300 0.19983900
v 0.20739350 0.24535300 -0.11870775
v 0.19757425 0.23781975 -0.14615425
v 0.17339100 0.19540825 -0.19688325
v 0.18137350 0.20857351 -0.18426100
v 0.13697000 0.12467100 -0.22941400
v 0.14775175 0.14089800 -0.22342800
v 0.11148800 0.09397400 -0.23920600
v 0.11482800 0.09711600 -0.23818199
v 0.12548199 0.11142100 -0.23474699
v 0.10393850 0.08751350 -0.24139750
v 0.08065838 0.04670863 -0.24015588
v 0.07082950 0.02192150 -0.23366850
v 0.08372200 0.05682800 -0.24221499
v 0.03461250 -0.07167850 -0.16627851
v 0.03074100 -0.06661450 -0.17334850
v 0.04269275 -0.04686200 -0.19234462
v 0.05433150 -0.01658750 -0.21572376
v 0.15783388 0.16900838 -0.21468526
v 0.09884100 0.06563700 -0.23934001
v 0.05770500 -0.05632500 -0.17878700
v 0.20544345 -0.01304587 -0.00253521
v 0.22375056 0.07223611 -0.04800274
v 0.20946150 0.02648950 -0.06331650
v 0.19908224 -0.01082181 -0.05268950
v 0.19686099 -0.01807900 -0.04737600
v 0.19870232 -0.01889652 -0.05198969
v 0.20169119 -0.00658805 -0.05815047
v 0.19664361 -0.02794112 -0.04641218
v 0.19589425 -0.02075462 -0.04469637
v 0.20581600 0.01362300 -0.06080600
v 0.20128201 -0.01023654 -0.05912693
v 0.20309650 -0.00236350 -0.06089350
v 0.19516561 -0.03368655 -0.03407303
v 0.19546225 -0.03388450 -0.03740675
v 0.19546800 -0.03329825 -0.02460275
v 0.17820641 0.03385035 -0.16857623
v 0.18024939 0.02494339 -0.15906193
v 0.16727818 0.02195111 -0.17416784
v 0.16352085 0.02844404 -0.18320583
v 0.16846214 0.01010304 -0.16348253
v 0.17192862 0.03992754 -0.18051693
v 0.17238003 0.04654691 -0.18384820
v 0.17640245 0.03110724 -0.16941416
v 0.18953294 0.07568887 -0.17489979
v 0.18233311 0.06234503 -0.17913028
v 0.18693754 0.05946220 -0.17112461
v 0.19179362 0.07436530 -0.17109000
v 0.19809892 0.09332600 -0.16835853
v 0.20034503 0.10461816 -0.16814927
v 0.19158801 0.05523667 -0.16178759
v 0.18831279 0.04427668 -0.16000977
v 0.19630856 0.07927444 -0.16603626
v 0.18029675 0.01573618 -0.15100754
v 0.18724162 0.02985739 -0.15122401
v 0.19598555 0.04860376 -0.14924750
v 0.19220700 0.03159176 -0.14304884
v 0.18695676 0.01194312 -0.13520173
v 0.19331881 0.01172470 -0.12072569
v 0.19211694 0.02777002 -0.13990354
v 0.19471922 0.02559139 -0.13222240
v 0.19847388 0.03016352 -0.12744630
v 0.19809501 0.01582168 -0.11302198
v 0.20465998 0.04382928 -0.12439528
v 0.19942424 0.02385581 -0.11870245
v 0.20044790 0.00036426 -0.08386865
v 0.19906575 0.00173285 -0.09103032
v 0.19781350 0.00109418 -0.09474493
v 0.19484390 0.00426463 -0.10749136
v 0.18121221 0.00105501 -0.13492596
v 0.17779300 -0.00709105 -0.13196969
v 0.18280503 0.01287307 -0.14454233
v 0.17060050 -0.02395178 -0.12405523
v 0.17276004 -0.03833575 -0.10117269
v 0.17803781 -0.02255459 -0.11176258
v 0.18404894 -0.01680710 -0.10689264
v 0.18983982 -0.00658406 -0.10668935
v 0.19097361 -0.02981736 -0.06904427
v 0.19314741 -0.01762700 -0.08189555
v 0.19600091 -0.00673971 -0.08874636
v 0.18528800 -0.02771400 -0.08840700
v 0.17013257 -0.03948189 -0.10398440
v 0.17142186 -0.04866426 -0.08738364
v 0.16574193 -0.04584030 -0.10229704
v 0.16198454 -0.03961794 -0.11782782
v 0.20526831 0.01517206 -0.08747283
v 0.17058426 -0.00723491 -0.14387756
v 0.20447700 0.00810800 -0.07889100
v 0.18231310 -0.03311479 -0.08799809
v 0.18460370 -0.03603142 -0.07784791
v 0.18090905 -0.04858585 -0.06564591
v 0.21347900 0.05632200 -0.10599400
v 0.21787000 0.09076150 -0.11957400
v 0.21333642 0.08385546 -0.13023661
v 0.20078041 0.06370379 -0.14935523
v 0.20613983 0.08297593 -0.14842354
v 0.21312802 0.09926423 -0.13924075
v 0.20779198 0.06913829 -0.13656391
v 0.21672044 0.10481923 -0.13187490
v 0.22067700 0.11684300 -0.12478400
v 0.22132750 0.11278700 -0.12062650
v 0.21131317 0.10034446 -0.14480684
v 0.21177112 0.11439029 -0.14852390
v 0.20617903 0.10599900 -0.15827065
v 0.21834331 0.12651291 -0.13520260
v 0.21891356 0.15222104 -0.13800661
v 0.21657851 0.13911590 -0.14213746
v 0.21213062 0.13654382 -0.15218971
v 0.22243600 0.15852299 -0.12778100
v 0.22337900 0.15204699 -0.12488200
v 0.22358000 0.14675499 -0.12377700
v 0.22276651 0.13847725 -0.12487350
v 0.22125063 0.13490302 -0.12884039
v 0.22016400 0.12173200 -0.12830199
v 0.19580204 0.06379537 -0.15932557
v 0.21817510 0.09800110 -0.12339618
v 0.20701105 0.05777357 -0.12985536
v 0.20082965 0.04544566 -0.13605416
v 0.20121014 0.08400662 -0.15931769
v 0.21077827 0.12218269 -0.15289045
v 0.21312635 0.06741193 -0.11889174
v 0.21083200 0.03821100 -0.09536500
v 0.20507725 0.03314226 -0.11236477
v 0.20959174 0.04224014 -0.10633151
v 0.20665300 0.01361100 -0.07733500
v 0.20058402 0.11626670 -0.17055343
v 0.19527750 -0.03388450 -0.04134050
v 0.19705113 -0.02051335 -0.06226514
v 0.18921150 -0.04674050 -0.04321050
v 0.19324351 -0.03647050 -0.04690650
v 0.19612619 -0.02863836 -0.04366524
v 0.19783173 -0.02355479 -0.05168300
v 0.18291187 -0.05623681 -0.04538232
v 0.18705489 -0.04952908 -0.04576770
v 0.18234674 -0.06753003 -0.01934853
v 0.18242893 -0.06393137 -0.02887329
v 0.18658975 -0.06240325 -0.01541700
v 0.17776489 -0.05479382 -0.06279319
v 0.16717837 -0.05542275 -0.08409788
v 0.18836824 -0.06522450 0.00170200
v 0.17798688 -0.06760675 -0.03406613
v 0.18306100 -0.07068700 -0.00626000
v 0.16296841 -0.02705108 -0.13273450
v 0.15825509 0.01312970 -0.17801976
v 0.15788346 -0.00907886 -0.15951701
v 0.16609919 -0.01808550 -0.13869372
v 0.15784227 -0.01927195 -0.14898303
v 0.15414387 0.00127627 -0.17278055
v 0.15279550 -0.00864126 -0.16547547
v 0.18967071 0.08881555 -0.17956650
v 0.19257857 0.09822248 -0.17840571
v 0.21282810 0.14717876 -0.15147325
v 0.20811016 0.13413544 -0.16009164
v 0.18293899 -0.07224600 -0.00126600
v 0.21672031 0.15026094 -0.14294122
v 0.18541970 0.08323829 -0.18342574
v 0.21100453 0.15749537 -0.15532229
v 0.19952062 0.13845577 -0.17442097
v 0.20377044 0.14288667 -0.16813158
v 0.19594462 0.12231140 -0.17842687
v 0.21675239 0.16874359 -0.14191485
v 0.22200300 0.16406401 -0.12874000
v 0.21307735 0.15914048 -0.15083151
v 0.19300054 0.11593463 -0.18136047
v 0.22021700 0.16845401 -0.13310599
v 0.20832967 0.16375886 -0.15950762
v 0.19177787 0.12339187 -0.18397088
v 0.21947899 0.17493500 -0.13382800
v 0.21968000 0.17150199 -0.13401800
v 0.19765177 0.14786917 -0.17755255
v 0.18535281 0.10184425 -0.18854236
v 0.17912896 0.10428750 -0.19604071
v 0.17864459 0.08056615 -0.19080383
v 0.17577303 0.06467038 -0.18834698
v 0.17065835 0.06205116 -0.19288214
v 0.16604375 0.05972796 -0.19670690
v 0.16561466 0.06828033 -0.20034546
v 0.20863996 0.17823373 -0.15662404
v 0.20417949 0.18386616 -0.16319762
v 0.20265470 0.16249059 -0.16909696
v 0.19261711 0.14925705 -0.18409437
v 0.21579813 0.18239044 -0.14121301
v 0.21380457 0.20478795 -0.13668144
v 0.21400204 0.20945983 -0.13324288
v 0.21727701 0.20353800 -0.12832700
v 0.21506951 0.18704787 -0.14124158
v 0.21042299 0.20359400 -0.14437599
v 0.20989354 0.18694575 -0.15199477
v 0.20878522 0.19416841 -0.15178448
v 0.21888774 0.18713351 -0.13147012
v 0.19866217 0.16422440 -0.17486696
v 0.18110239 0.13877835 -0.19714067
v 0.18635675 0.12326704 -0.19069989
v 0.18506381 0.13798722 -0.19294145
v 0.16297459 0.05269062 -0.19676991
v 0.16116281 0.04099823 -0.19319797
v 0.15536406 0.02212143 -0.18750420
v 0.16866530 0.07868641 -0.20061941
v 0.17283366 0.08208243 -0.19754937
v 0.19538990 0.16224621 -0.17952290
v 0.18507512 0.20106930 -0.18318960
v 0.19415455 0.21113883 -0.16795491
v 0.18859342 0.21732661 -0.17246578
v 0.19422440 0.19356689 -0.17441657
v 0.19331400 0.19757999 -0.17419501
v 0.18558112 0.19461085 -0.18463439
v 0.17947342 0.19112276 -0.19226709
v 0.19276857 0.18628131 -0.17844691
v 0.19766775 0.19686289 -0.16859367
v 0.19830927 0.18357626 -0.17184619
v 0.20634800 0.20412400 -0.15197200
v 0.18482326 0.15946995 -0.19251447
v 0.21002068 0.22610299 -0.13110288
v 0.20677619 0.21541736 -0.14561827
v 0.17604012 0.12290895 -0.20151020
v 0.19249329 0.16111233 -0.18334696
v 0.19139376 0.17607928 -0.18253474
v 0.17271626 0.09610510 -0.20101492
v 0.18599820 0.18115717 -0.18771301
v 0.18051755 0.16204226 -0.19689725
v 0.19046301 0.16449299 -0.18536000
v 0.21423900 0.22250400 -0.12318600
v 0.16295500 0.06036500 -0.19988900
v 0.20429852 0.22857529 -0.14145741
v 0.15624223 0.04613993 -0.20016091
v 0.15363518 0.01382320 -0.18342282
v 0.14350734 0.02461724 -0.19984257
v 0.14701117 -0.00340249 -0.17612425
v 0.14652155 0.00590739 -0.18411181
v 0.15723750 -0.05427250 -0.10350300
v 0.16890353 0.09793438 -0.20471201
v 0.16141867 0.12059862 -0.21378292
v 0.16766215 0.10286598 -0.20678710
v 0.15266733 0.13869887 -0.22053366
v 0.15377906 0.12169932 -0.21932905
v 0.16691355 0.13965285 -0.20996664
v 0.16627582 0.13231627 -0.21052790
v 0.16297196 0.14508685 -0.21323293
v 0.15619728 0.10531856 -0.21617883
v 0.15283219 0.06997682 -0.21192275
v 0.17624320 0.14232774 -0.20201190
v 0.15176724 0.06106093 -0.20969192
v 0.15670601 -0.03114400 -0.13645101
v 0.15263601 0.02413500 -0.19128799
v 0.20148787 0.20984921 -0.15785836
v 0.19967978 0.21378961 -0.15862404
v 0.19592049 0.22501847 -0.15816984
v 0.14438599 -0.02313800 -0.16003200
v 0.15201016 -0.02762446 -0.14665005
v 0.14955062 -0.04153067 -0.13254835
v 0.15213520 -0.03774705 -0.13440416
v 0.15300634 -0.05063513 -0.11545016
v 0.14446625 -0.05207775 -0.12438100
v 0.14100209 -0.02778224 -0.15879740
v 0.14440882 0.01671670 -0.19387496
v 0.13613122 0.00555907 -0.19302413
v 0.15395669 0.05066846 -0.20420618
v 0.14246923 0.02933650 -0.20289592
v 0.13410249 -0.00243027 -0.18853453
v 0.13437058 -0.01199814 -0.18011057
v 0.12671003 -0.02211535 -0.17724202
v 0.13080878 -0.02530032 -0.17061267
v 0.12248356 -0.03923073 -0.16354729
v 0.13837326 -0.04054373 -0.14661734
v 0.12663163 -0.05048315 -0.14620112
v 0.12625412 -0.05624437 -0.13840650
v 0.14319074 -0.04280129 -0.13857477
v 0.13192730 -0.04109181 -0.15238621
v 0.11715515 -0.02877528 -0.17781875
v 0.10902001 -0.04259137 -0.16961811
v 0.14079906 -0.01798673 -0.16892130
v 0.11836798 -0.01858957 -0.18663246
v 0.14867322 0.08179511 -0.21759950
v 0.13566540 0.04436665 -0.21501672
v 0.12201843 0.00352270 -0.20164253
v 0.15239320 0.10156714 -0.21859941
v 0.10860782 -0.05705380 -0.15277495
v 0.11488839 -0.04852357 -0.15834018
v 0.17501697 0.15997346 -0.20221168
v 0.13229825 0.06723550 -0.22479484
v 0.12526837 0.01612313 -0.20761439
v 0.13018232 0.07995908 -0.22834473
v 0.11868890 0.08627930 -0.23507713
v 0.13114764 0.09473451 -0.23045506
v 0.11414755 0.08449757 -0.23688385
v 0.10809369 0.06818021 -0.23642116
v 0.11675051 0.07044289 -0.23314977
v 0.13926602 0.07257522 -0.22171680
v 0.14233776 0.04159373 -0.20934328
v 0.13269417 0.02933955 -0.21009970
v 0.13452752 0.05286202 -0.21897066
v 0.12200979 0.04351704 -0.22269713
v 0.11963403 0.03093059 -0.21859319
v 0.12158300 0.02200600 -0.21296699
v 0.12587421 0.05709508 -0.22514399
v 0.11511965 0.00604130 -0.20740118
v 0.16917170 0.18167668 -0.20408131
v 0.16021568 0.15661661 -0.21477160
v 0.16632689 0.16064435 -0.20966756
v 0.17480252 0.18086437 -0.19929281
v 0.13871816 0.09302994 -0.22603409
v 0.13733700 0.10341000 -0.22799000
v 0.14693007 0.11665533 -0.22351602
v 0.11516173 -0.00702644 -0.19833888
v 0.11233990 0.04067460 -0.22637044
v 0.11475721 0.05100111 -0.22886020
v 0.11641074 0.01798749 -0.21368370
v 0.09958584 0.01170949 -0.21891537
v 0.10111686 0.00467321 -0.21395306
v 0.10484978 -0.00218515 -0.20745489
v 0.10568417 0.02788943 -0.22407342
v 0.10287287 -0.03156079 -0.18473220
v 0.11271424 -0.01500897 -0.19329702
v 0.10841548 -0.01230096 -0.19805676
v 0.14035238 0.11841954 -0.22751313
v 0.12926138 0.10476837 -0.23261045
v 0.09407544 0.05500963 -0.23840816
v 0.10218018 0.04585029 -0.23261049
v 0.09750374 -0.01604942 -0.20128330
v 0.09437890 -0.05934201 -0.15949611
v 0.11077200 -0.06136700 -0.14514700
v 0.09944362 0.01689414 -0.22155267
v 0.20820912 0.23952056 -0.12290912
v 0.21135200 0.23319350 -0.12114650
v 0.20375891 0.23770266 -0.13499557
v 0.19939980 0.22937422 -0.14988107
v 0.06979188 -0.05168311 -0.18000445
v 0.05610328 -0.04339888 -0.19305187
v 0.04923032 -0.05540823 -0.18238516
v 0.04202442 -0.06925723 -0.16801645
v 0.04894741 -0.06342356 -0.17319374
v 0.06309848 -0.06860696 -0.16227417
v 0.06601620 -0.04044396 -0.19274285
v 0.07096055 -0.04141204 -0.19005654
v 0.08549008 -0.04398302 -0.18138797
v 0.08679159 -0.03243698 -0.19216746
v 0.08862598 -0.02668724 -0.19646492
v 0.08951665 -0.01798213 -0.20335160
v 0.08566800 -0.02075500 -0.20271499
v 0.07346463 -0.03062775 -0.19936426
v 0.08278487 -0.01460829 -0.20881110
v 0.09563115 -0.05049604 -0.16904088
v 0.09830944 0.02765218 -0.22712034
v 0.08563224 0.01673942 -0.22677502
v 0.07825548 0.01932114 -0.23048136
v 0.08403800 0.04553900 -0.23879200
v 0.08694579 0.03372491 -0.23361338
v 0.08202843 0.00965356 -0.22456738
v 0.07465447 -0.00577856 -0.21791023
v 0.08457797 -0.00226788 -0.21658944
v 0.08972828 0.04247937 -0.23599303
v 0.09889800 -0.06656150 -0.14668099
v 0.06630498 -0.00595311 -0.22026138
v 0.06223255 -0.03699137 -0.19719071
v 0.07978288 -0.05962387 -0.16670099
v 0.05678108 -0.03542689 -0.20021947
v 0.05995197 -0.02321171 -0.20963570
v 0.07357746 -0.01945456 -0.20842001
v 0.06630409 -0.02433527 -0.20685858
v 0.06458269 -0.06336865 -0.16845468
v 0.08626218 -0.06434689 -0.15767725
v 0.05957394 -0.07362713 -0.15641932
v 0.08428575 -0.07106575 -0.14913900
v 0.03503825 -0.07995700 -0.15473975
v 0.20911250 0.01863100 -0.06660750
v 0.20513500 0.00455450 -0.06596100
v 0.07140800 0.15888000 0.23596400
v 0.06904100 0.14845150 0.23441150
v 0.06871825 0.18459437 0.23809762
v 0.06702946 0.13453807 0.23116211
v 0.06786525 0.12113300 0.21744612
v 0.06901900 0.12713700 0.22214650
v 0.21019199 0.02276300 0.00154300
v 0.22956602 0.08744803 -0.01338468
v 0.22866873 0.08689786 -0.02611725
v 0.22414278 0.07823983 -0.00191420
v 0.21999075 0.05380050 0.00456475
v 0.21656649 0.03634950 0.00514550
v 0.21573250 0.17440400 0.11189525
v 0.21420388 0.17245200 0.11487938
v 0.20879357 0.16708539 0.12579067
v 0.19671953 0.16093408 0.14454134
v 0.20419000 0.16349151 0.13069150
v 0.20720626 0.00523800 -0.00297100
v 0.22048885 0.18195367 0.10203748
v 0.21926650 0.18001150 0.10401950
v 0.22547653 0.19620252 0.08690951
v 0.22316400 0.19182600 0.09051700
v 0.19326299 0.10166700 0.13949500
v 0.19675800 0.10185500 0.13376001
v 0.20781999 0.07392700 0.11827150
v 0.19070750 -0.04787800 0.08943150
v 0.20249100 -0.01133800 0.09719900
v 0.20140625 -0.02384475 0.09168200
v 0.19866749 0.10797900 0.13463900
v 0.20555425 -0.00176937 0.09805963
v 0.18629400 -0.05602250 0.08801750
v 0.16901600 -0.07667100 0.08549300
v 0.17274600 -0.07802000 0.07889375
v 0.07492200 0.11319000 0.20801900
v 0.08673350 0.10492900 0.20161701
v 0.11216475 0.09303075 0.19038800
v 0.08314101 0.10903232 0.20681693
v 0.09529176 0.10196599 0.20142749
v 0.08436023 0.11222123 0.21056892
v 0.11124728 0.09687347 0.19676516
v 0.13465200 0.08854100 0.18206850
v 0.07097110 0.12384279 0.21895869
v 0.11299171 0.09450453 0.19397809
v 0.12255680 0.09626044 0.19434968
v 0.07100260 0.13336042 0.22636724
v 0.07307277 0.12678010 0.22116678
v 0.08636467 0.11880972 0.21606679
v 0.11453396 0.09973693 0.19954830
v 0.09944023 0.10693050 0.20714006
v 0.10513300 0.11771400 0.21384600
v 0.10036617 0.12181245 0.21731316
v 0.13310419 0.09290357 0.18816971
v 0.10245089 0.12750044 0.22035215
v 0.09431919 0.14972289 0.23173341
v 0.12800182 0.10122909 0.19696897
v 0.11690825 0.11704995 0.21140134
v 0.09989043 0.14866874 0.23092228
v 0.11228496 0.14136944 0.22514750
v 0.12465800 0.13824999 0.21959800
v 0.13861186 0.09632044 0.18899300
v 0.12914919 0.10931987 0.20209924
v 0.09876718 0.15640761 0.23326257
v 0.07277851 0.14361175 0.23076808
v 0.14594228 0.09581348 0.18516528
v 0.13700430 0.12704117 0.20813746
v 0.14456527 0.08921113 0.17956670
v 0.12853865 0.14131485 0.21957308
v 0.12003829 0.14722477 0.22535712
v 0.13994417 0.11108128 0.19777191
v 0.15028223 0.09282269 0.18022920
v 0.10371195 0.16130076 0.23358303
v 0.08999928 0.15934239 0.23497037
v 0.15020027 0.11547706 0.19396809
v 0.13188409 0.14150152 0.21843659
v 0.16284064 0.08942902 0.16724548
v 0.15734933 0.09140869 0.17386377
v 0.11161395 0.15738194 0.23116589
v 0.07224001 0.16977014 0.23751158
v 0.09148127 0.16284682 0.23562876
v 0.16124768 0.09459197 0.17367754
v 0.16075455 0.09968897 0.17759285
v 0.17002432 0.09315264 0.16481416
v 0.16843601 0.09644000 0.16885900
v 0.12813920 0.15398676 0.22368953
v 0.14238034 0.14306928 0.21268709
v 0.15072341 0.08805589 0.17457544
v 0.16196531 0.11163513 0.18280752
v 0.15774100 0.13609301 0.19779700
v 0.17883700 0.09404400 0.15529799
v 0.16912550 0.10708600 0.17398750
v 0.15900500 0.13354200 0.19561701
v 0.10625562 0.16261807 0.23349396
v 0.14992191 0.13742593 0.20506091
v 0.13149549 0.15605250 0.22168750
v 0.15551300 0.14051300 0.20128500
v 0.14891300 0.14456651 0.20785100
v 0.14254949 0.14890049 0.21358651
v 0.10896305 0.16612503 0.23310471
v 0.07156223 0.17985512 0.23791908
v 0.07525607 0.16578093 0.23702478
v 0.09222531 0.17371632 0.23666010
v 0.11385100 0.16806901 0.23107100
v 0.15501563 0.08711450 0.16919450
v 0.10026794 0.17164334 0.23542326
v 0.17191719 0.09118425 0.16040215
v 0.16865000 0.08910000 0.16063900
v 0.09249300 0.17996543 0.23646714
v 0.17497832 0.09553338 0.16090326
v 0.11088700 0.17364800 0.23185700
v 0.10779200 0.17535800 0.23288500
v 0.07183363 0.19018527 0.23749430
v 0.09748325 0.18729025 0.23425075
v 0.06956709 0.19265238 0.23743680
v 0.17602199 0.09144100 0.15539099
v 0.09568683 0.18453191 0.23553212
v 0.08464209 0.19726054 0.23486768
v 0.08622100 0.20149549 0.23345201
v 0.06842050 0.19949549 0.23659649
v 0.18177000 0.09308650 0.14870450
v 0.18370800 0.09374300 0.14577900
v 0.16331550 0.14747000 0.19397200
v 0.15297800 0.14747000 0.20461500
v 0.23756900 0.17894100 0.05763400
v 0.24587500 0.15033101 0.01300300
v 0.24561800 0.14503799 0.02194300
v 0.24430300 0.14918600 0.03760700
v 0.24421450 0.15822250 0.03432800
v 0.21932900 0.05729550 -0.07480700
v 0.22614400 0.07901800 -0.05537500
v 0.22773600 0.08319500 -0.04979600
v 0.23045400 0.09053600 -0.03992600
v 0.24243325 0.12005950 -0.00182025
v 0.23906399 0.10899000 -0.00874100
v 0.23352499 0.09698200 -0.02819600
v 0.24345000 0.12368100 0.00256000
v 0.20945550 0.01959300 -0.06968000
v 0.24423800 0.12944500 0.00041400
v 0.24545000 0.13774200 0.00842500
v 0.23491950 0.19010150 0.05964775
v 0.22756700 0.18731750 0.08264325
v 0.24154950 0.16919150 0.04460300
v 0.19920699 -0.02876800 -0.01307400
v 0.20527150 -0.01617730 -0.00164245
v 0.20608627 -0.00798679 -0.00199812
v 0.20703401 -0.01756300 0.00646100
v 0.20950674 -0.00904187 0.00907645
v 0.20700499 -0.02233000 0.01231000
v 0.21173224 -0.01279844 0.02796199
v 0.21082100 -0.01835500 0.03376300
v 0.20844484 -0.02960733 0.04619766
v 0.20709400 -0.03197375 0.03614200
v 0.21461865 -0.00825972 0.05386136
v 0.22406781 0.04065121 0.05520622
v 0.21526981 -0.00686044 0.06320808
v 0.20621252 -0.03454121 0.06527313
v 0.20506325 -0.03754175 0.06151938
v 0.20982750 -0.02273850 0.06703625
v 0.21239726 -0.01161564 0.07528356
v 0.22813709 0.06403116 0.04920075
v 0.22719575 0.06188488 0.03683350
v 0.21943727 0.01665953 0.06937112
v 0.22084345 0.02914302 0.07788607
v 0.22652375 0.05948250 0.07071625
v 0.22253677 0.03552212 0.07223688
v 0.21785609 0.00586275 0.05395173
v 0.20001499 -0.04803200 0.06564500
v 0.19273490 -0.05884089 0.07190939
v 0.20291275 -0.03617750 0.07764475
v 0.21014393 -0.02393039 0.04334792
v 0.21043099 -0.01738300 0.07547200
v 0.22564130 0.06281189 0.08142155
v 0.21201212 -0.00903395 0.08103583
v 0.21105400 -0.00506500 0.08698100
v 0.23203783 0.08007743 0.04823929
v 0.22289249 0.03428150 0.06163950
v 0.22853969 0.07062586 0.02528610
v 0.23231593 0.08293322 0.05946971
v 0.23262301 0.08241616 0.04293312
v 0.20623501 -0.02781000 0.07814000
v 0.22993436 0.08234252 0.07681124
v 0.23173755 0.08088455 0.03084859
v 0.19733428 -0.05422107 0.06180131
v 0.20863800 -0.00244700 0.00155900
v 0.21523200 -0.00167950 0.03889500
v 0.19484210 -0.06097227 0.04394189
v 0.19266082 -0.06437291 0.03360103
v 0.22533000 0.07234100 0.08839800
v 0.22251873 0.06456799 0.09365005
v 0.22559850 0.08456450 0.09274600
v 0.23318049 0.08878475 0.06476050
v 0.20136897 -0.04768358 0.05731777
v 0.22741400 0.07028650 0.07808450
v 0.22650600 0.05542850 0.06021200
v 0.22796716 0.06473677 0.06529423
v 0.21391000 -0.00957700 0.04504600
v 0.20863850 -0.02295950 0.07518600
v 0.20070008 -0.03796760 0.08196567
v 0.23970529 0.10514827 0.02705354
v 0.24249500 0.11722600 0.03074100
v 0.24095485 0.11635931 0.04940112
v 0.24019800 0.10830875 0.03700613
v 0.24128699 0.12021900 0.05002100
v 0.23993615 0.11694704 0.05682250
v 0.23980289 0.13910135 0.06343074
v 0.24209297 0.13613466 0.05218472
v 0.24314168 0.14072020 0.04688343
v 0.24156150 0.14503775 0.05451200
v 0.24441704 0.13637482 0.03545076
v 0.23220398 0.08429874 0.01972990
v 0.23394670 0.09579738 -0.01317845
v 0.23873800 0.10425400 0.00749000
v 0.20067801 -0.04895890 0.03620301
v 0.20285014 -0.04458225 0.04234384
v 0.20166899 -0.04264100 0.01719200
v 0.20311192 -0.04202746 0.02777495
v 0.19612208 -0.05599083 0.01801426
v 0.19424500 -0.05752400 0.01042800
v 0.24377581 0.13161462 0.03940096
v 0.24480050 0.13333325 0.02711775
v 0.19477700 -0.05516600 0.00613600
v 0.22795255 0.12335476 0.09544365
v 0.23072250 0.10928800 0.08656400
v 0.22210753 0.09139128 0.10241748
v 0.21826018 0.10164935 0.11059939
v 0.21464509 0.09782149 0.11524423
v 0.21546950 0.10369350 0.11478150
v 0.22104150 0.10704950 0.10656000
v 0.22543867 0.09747074 0.09686485
v 0.22745150 0.12958799 0.09618650
v 0.18843812 -0.06826362 0.01523275
v 0.21350749 0.12003700 0.11921950
v 0.20546059 0.11894916 0.12972458
v 0.21857899 0.13774200 0.11224200
v 0.21397284 0.14170551 0.11953989
v 0.21168607 0.08820819 0.11701325
v 0.19662716 -0.03914753 0.08857620
v 0.21932150 0.01974500 0.03749225
v 0.22403166 0.04447432 0.03701231
v 0.21934571 0.04866738 0.00566544
v 0.22435800 0.05963687 0.01336650
v 0.21879442 0.02096223 0.02946047
v 0.21195437 0.00682007 0.00597292
v 0.21544507 0.00134978 0.07686575
v 0.23153819 0.09227047 -0.03083542
v 0.23555900 0.10996400 0.07183200
v 0.23278577 0.09919840 0.07741222
v 0.21818656 0.01336381 0.04012206
v 0.21644901 0.00613600 0.07708900
v 0.20699247 0.09485681 0.12363509
v 0.24249956 0.12522900 0.04339213
v 0.20951600 0.00356100 0.00176900
v 0.21826463 0.03121087 0.01379056
v 0.22636899 0.07303200 0.08500500
v 0.20084313 0.11815038 0.13554301
v 0.20019484 0.11241534 0.13460163
v 0.19407823 0.11119784 0.14466500
v 0.18980375 0.11003050 0.15060300
v 0.22614327 0.06933033 0.00893592
v 0.22465600 0.06819600 0.00488900
v 0.22940601 0.08329203 -0.00021833
v 0.23171450 0.08502300 0.01029275
v 0.22169225 0.05641535 0.00629065
v 0.21044201 0.05322500 0.11088100
v 0.20930645 0.04315989 0.10945527
v 0.21485938 0.03486425 0.09978325
v 0.21396821 0.06055325 0.10875469
v 0.22176389 0.06060122 0.09487742
v 0.21504894 0.04450761 0.10314305
v 0.21514000 0.03245800 0.00428900
v 0.21573914 0.02885225 0.00581783
v 0.21741333 0.02883109 0.09184281
v 0.21275821 0.01865107 0.00360704
v 0.23980026 0.10625425 0.01770900
v 0.21706337 0.01552200 0.08382538
v 0.21397176 0.01155961 0.09137284
v 0.21502900 0.01226100 0.08864300
v 0.18787360 -0.06794445 0.00799017
v 0.24132665 0.11362029 0.00331700
v 0.24298901 0.11818076 0.01550792
v 0.24447491 0.12888829 0.00672711
v 0.24545702 0.13569281 0.01598904
v 0.22805729 0.08383819 -0.04387258
v 0.22347331 0.06966724 -0.05659639
v 0.21815882 0.05090230 -0.06432336
v 0.21747744 0.04838345 -0.06989401
v 0.21395229 0.03637152 -0.06560953
v 0.23753675 0.10104400 0.00655900
v 0.22218150 0.11850200 0.10575850
v 0.24459981 0.13020894 0.02042381
v 0.24525142 0.14409399 0.02906386
v 0.24443200 0.14346400 0.03703500
v 0.18812350 -0.07079742 0.02901666
v 0.18602272 -0.07166204 0.06143635
v 0.18138196 -0.07140393 0.07685926
v 0.18679996 -0.06378143 0.07852496
v 0.18341269 -0.06817619 0.07800001
v 0.18175250 -0.07492500 0.06572250
v 0.17912900 -0.07623400 0.06998200
v 0.18953892 -0.06894220 0.05134168
v 0.19238375 -0.06446825 0.04868237
v 0.18528000 -0.07459700 0.03620350
v 0.23578958 0.12766654 0.07589394
v 0.23665000 0.14289200 0.07320800
v 0.23270875 0.11903775 0.08313550
v 0.23574013 0.15417942 0.07437021
v 0.23680501 0.14804199 0.07215800
v 0.24195860 0.16062857 0.04904819
v 0.23936725 0.15515457 0.06247679
v 0.22076925 0.03610100 0.08429600
v 0.21171325 -0.00860875 0.02173225
v 0.21820913 0.07438181 0.10524375
v 0.21647500 0.00012800 0.05248500
v 0.20991418 -0.00113670 0.09222013
v 0.20460863 -0.01522849 0.09298839
v 0.21056996 0.01327515 0.09867567
v 0.21690218 0.15373386 0.11414350
v 0.22123800 0.15039549 0.10701500
v 0.22777434 0.16677305 0.09103945
v 0.23211018 0.14754628 0.08560866
v 0.22642323 0.15691652 0.09645462
v 0.23218225 0.16554221 0.08111495
v 0.22760089 0.18109957 0.08599876
v 0.22004899 0.16332200 0.10683000
v 0.23055125 0.17124825 0.08302187
v 0.21562647 0.16948795 0.11269406
v 0.22457950 0.16745650 0.09741425
v 0.22804100 0.13616901 0.09494700
v 0.19886801 -0.04798400 0.01185800
v 0.22991800 0.10217900 0.08694400
v 0.23973100 0.15799575 0.05956075
v 0.17457064 0.14460208 0.18031486
v 0.16059863 0.14353624 0.19703925
v 0.17979743 0.14462742 0.17235436
v 0.18071854 0.13287001 0.16975111
v 0.16488116 0.14117725 0.19260675
v 0.16999749 0.14126375 0.18600350
v 0.18413175 0.11234918 0.15941831
v 0.17436005 0.11070703 0.17025006
v 0.17458100 0.12234900 0.17446050
v 0.16547593 0.13436256 0.18942038
v 0.18519500 0.11560800 0.15886000
v 0.18465801 0.10342200 0.15490100
v 0.18816499 0.10375900 0.15013100
v 0.17096700 0.11076400 0.17383000
v 0.17791350 0.10378200 0.16335450
v 0.17547003 0.10073156 0.16452534
v 0.17221500 0.10250550 0.16878300
v 0.18293868 0.09713006 0.15361086
v 0.18471099 0.09846600 0.15154700
v 0.19059345 0.10184099 0.14500321
v 0.18775517 0.11877204 0.15626365
v 0.18705103 0.09732628 0.14641935
v 0.17607699 0.13718900 0.17722000
v 0.18714575 0.14146175 0.16088900
v 0.19457002 0.12134962 0.14649176
v 0.20168000 0.12830099 0.13634300
v 0.19293189 0.13323173 0.15100162
v 0.19618156 0.14744040 0.14603704
v 0.20300600 0.14790650 0.13504525
v 0.20356825 0.13736046 0.13436925
v 0.20306375 -0.04407225 0.05005250
v 0.23249300 0.09390500 -0.02118600
v 0.22597501 0.14081800 0.09898800
v 0.20708537 0.03718150 0.10942662
v 0.19894950 0.15536650 0.13998750
v 0.21052725 -0.01804900 0.03020925
v 0.24310300 0.15262000 0.04490300
v 0.21901650 0.03675900 0.09117400
v 0.20437675 -0.03594575 0.02099500
v 0.23614350 0.10504600 0.06643325
v 0.23579599 0.17862972 0.06478871
v 0.21788100 0.08112000 0.10746150
v 0.20922901 0.02083800 0.10279600
v 0.20781700 0.16184450 0.12595300
v 0.20784234 0.01371281 -0.06753754
v 0.19625675 -0.05770650 0.03322500
v 0.23558250 0.11895400 0.07478100
v 0.18571600 -0.06020277 0.08513137
v 0.23103601 0.09352300 0.08003800
v 0.23806375 0.12235775 0.06661900
v 0.21598619 0.00108366 0.07076534
v 0.22615189 0.07404409 0.00290424
v 0.22908162 0.06915837 0.05907363
v 0.19763774 -0.05474700 0.05510700
v 0.20245899 -0.03919900 0.07446400
v 0.20651675 -0.02042175 0.08497125
v 0.20882761 0.13458754 0.12690798
v 0.20375500 -0.02688788 0.00199438
v 0.23934400 0.16148500 0.05985600
v 0.17393034 -0.07440652 0.08321167
v 0.22353501 0.10819050 0.10226550
v 0.21356675 0.00581825 0.08826525
v 0.19847430 -0.04641271 0.07676491
v 0.19064899 -0.05884350 0.07760900
v 0.19077799 0.14518100 0.15480550
v 0.24077175 0.11107350 0.00927675
v 0.19242125 0.11556650 0.14848400
v 0.23800300 0.16291900 0.06436900
v 0.23613601 0.16852901 0.06843000
v 0.18501275 -0.07310300 0.05681263
v 0.18881255 0.15097482 0.15647899
v 0.19350550 -0.05017112 0.08290050
v 0.22214542 0.13024608 0.10639093
v 0.21547075 0.16064925 0.11482175
v 0.22957800 0.07730100 0.01556725
v 0.23402837 0.13819776 0.08056650
v 0.23355891 0.16850437 0.07529278
v 0.19334612 -0.06019537 0.06366588
f 330 17 329
f 331 330 329
f 360 330 331
f 332 330 360
f 360 361 332
f 355 361 360
f 361 355 320
f 277 361 320
f 277 352 361
f 352 363 361
f 363 362 361
f 321 352 277
f 266 321 277
f 265 266 277
f 265 277 278
f 278 277 270
f 265 278 270
f 265 270 263
f 312 263 270
f 270 342 312
f 342 335 312
f 342 320 335
f 336 312 335
f 335 327 336
f 336 327 340
f 337 336 340
f 337 340 338
f 339 338 340
f 339 340 341
f 340 358 341
f 341 358 349
f 358 357 349
f 358 359 357
f 359 340 357
f 340 356 357
f 356 17 357
f 357 17 18
f 353 357 18
f 353 18 13
f 348 353 13
f 349 353 348
f 348 350 349
f 308 350 348
f 341 350 308
f 309 341 308
f 309 319 341
f 338 341 319
f 319 309 310
f 304 319 310
f 319 304 314
f 314 313 319
f 313 312 319
f 312 313 272
f 272 313 304
f 259 272 304
f 259 304 275
f 275 304 296
f 275 296 281
f 296 307 281
f 307 296 309
f 294 281 307
f 294 307 293
f 307 308 293
f 293 308 311
f 308 322 311
f 322 343 311
f 343 322 348
f 348 344 343
f 344 348 345
f 344 345 343
f 347 343 345
f 347 345 13
f 351 347 13
f 318 347 351
f 317 318 351
f 351 346 317
f 346 351 12
f 317 346 12
f 317 12 14
f 20 317 14
f 286 317 20
f 285 286 20
f 287 286 285
f 287 306 286
f 287 280 306
f 295 306 280
f 295 292 306
f 306 292 305
f 306 305 318
f 305 343 318
f 292 311 305
f 291 292 295
f 274 292 291
f 274 293 292
f 290 293 274
f 290 281 293
f 227 281 290
f 290 258 227
f 258 290 289
f 227 258 289
f 196 227 289
f 196 289 225
f 225 289 257
f 257 289 242
f 242 289 240
f 240 289 274
f 177 242 240
f 198 177 240
f 199 198 240
f 199 240 218
f 231 218 240
f 231 240 233
f 233 240 276
f 276 240 273
f 273 280 276
f 280 301 276
f 301 280 284
f 301 284 302
f 301 302 315
f 303 301 315
f 234 303 315
f 234 315 7
f 315 6 7
f 315 316 6
f 315 284 316
f 284 283 316
f 316 283 285
f 316 285 9
f 10 316 9
f 285 8 9
f 8 285 11
f 284 287 283
f 284 282 287
f 6 316 10
f 234 7 19
f 298 234 19
f 238 234 298
f 238 298 299
f 297 299 298
f 300 299 297
f 300 279 299
f 220 279 300
f 207 220 300
f 207 300 4
f 5 207 4
f 201 207 5
f 201 206 207
f 206 219 207
f 208 219 206
f 217 219 208
f 217 212 219
f 212 220 219
f 212 192 220
f 220 192 241
f 192 215 241
f 241 215 237
f 241 237 236
f 238 241 236
f 279 241 238
f 236 232 238
f 238 232 235
f 239 235 232
f 235 239 276
f 235 276 303
f 233 239 232
f 237 233 232
f 237 232 236
f 215 233 237
f 215 218 233
f 193 218 215
f 172 218 193
f 193 171 172
f 167 171 193
f 170 167 193
f 170 193 181
f 181 193 194
f 181 194 212
f 216 181 212
f 216 212 221
f 216 221 217
f 217 200 216
f 191 200 217
f 191 217 210
f 179 191 210
f 179 210 209
f 209 210 204
f 210 208 204
f 209 204 202
f 245 209 202
f 246 245 202
f 245 246 326
f 246 247 326
f 3 326 247
f 325 326 3
f 325 224 326
f 214 326 224
f 213 214 224
f 213 183 214
f 187 214 183
f 187 189 214
f 214 189 211
f 214 211 245
f 189 245 211
f 245 189 179
f 188 179 189
f 186 188 189
f 183 186 189
f 183 182 186
f 182 178 186
f 182 157 178
f 182 161 157
f 190 161 182
f 168 161 190
f 190 169 168
f 168 169 161
f 161 169 106
f 169 165 106
f 162 106 165
f 162 109 106
f 109 110 106
f 110 111 106
f 112 106 111
f 112 113 106
f 112 105 113
f 112 114 105
f 114 99 105
f 114 100 99
f 114 101 100
f 101 99 100
f 101 116 99
f 93 116 101
f 93 121 116
f 116 121 94
f 121 117 94
f 121 123 117
f 124 123 121
f 86 123 124
f 86 124 122
f 122 124 92
f 125 86 122
f 125 88 86
f 33 88 125
f 33 32 88
f 32 128 88
f 32 132 128
f 132 78 128
f 130 78 132
f 29 130 132
f 27 29 132
f 30 29 27
f 30 131 29
f 22 131 30
f 22 34 131
f 34 35 131
f 35 127 131
f 22 36 34
f 508 36 22
f 754 36 508
f 754 508 509
f 512 754 509
f 512 511 754
f 512 513 511
f 514 513 512
f 514 732 513
f 514 515 732
f 514 535 515
f 535 735 515
f 517 735 535
f 517 581 735
f 581 580 735
f 581 694 580
f 581 582 694
f 694 582 586
f 582 583 586
f 583 582 140
f 582 643 140
f 596 643 582
f 643 596 154
f 742 596 582
f 552 596 742
f 551 552 742
f 557 551 742
f 579 557 742
f 579 742 578
f 579 578 581
f 727 579 581
f 727 557 579
f 522 557 727
f 521 522 727
f 521 727 516
f 516 727 517
f 520 521 516
f 523 521 520
f 562 521 523
f 545 521 562
f 545 751 521
f 751 759 521
f 534 759 751
f 563 759 534
f 563 768 759
f 768 760 759
f 768 661 760
f 744 661 768
f 397 744 768
f 744 662 661
f 661 662 660
f 662 756 660
f 756 399 660
f 756 398 399
f 660 399 664
f 660 664 663
f 660 663 766
f 659 660 766
f 659 766 665
f 766 667 665
f 665 667 658
f 658 667 596
f 552 665 658
f 533 659 665
f 774 533 665
f 750 774 665
f 548 774 750
f 557 548 750
f 532 548 557
f 557 759 532
f 759 533 532
f 533 548 532
f 750 665 666
f 750 666 551
f 551 666 665
f 533 774 548
f 660 659 533
f 661 660 533
f 760 661 533
f 759 760 533
f 602 768 563
f 392 768 602
f 394 392 602
f 394 602 752
f 680 394 752
f 679 680 752
f 641 679 752
f 752 758 641
f 641 758 642
f 641 642 640
f 637 641 640
f 681 641 637
f 631 681 637
f 739 681 631
f 634 739 631
f 634 630 739
f 630 730 739
f 730 396 739
f 739 396 681
f 681 396 680
f 396 393 680
f 730 630 629
f 629 630 634
f 629 634 632
f 632 634 677
f 634 633 677
f 677 633 589
f 589 738 677
f 591 677 738
f 591 738 590
f 591 590 592
f 592 753 591
f 753 592 597
f 753 597 599
f 753 599 600
f 682 753 600
f 682 725 753
f 725 726 753
f 726 598 753
f 722 598 726
f 726 723 722
f 724 723 726
f 720 723 724
f 761 720 724
f 699 761 724
f 767 699 724
f 382 767 724
f 382 724 731
f 724 725 731
f 382 699 767
f 697 699 382
f 699 697 723
f 723 697 763
f 723 763 721
f 721 763 620
f 620 763 621
f 763 622 621
f 763 623 622
f 622 623 390
f 390 621 622
f 723 721 620
f 700 763 697
f 700 717 763
f 763 717 707
f 717 700 707
f 707 700 703
f 719 703 700
f 701 703 719
f 701 719 702
f 701 702 697
f 487 701 697
f 487 698 701
f 698 487 488
f 701 706 703
f 706 705 703
f 705 706 704
f 704 706 710
f 710 711 704
f 703 704 711
f 703 711 714
f 712 714 711
f 712 455 714
f 714 455 485
f 486 714 485
f 714 486 718
f 715 714 718
f 716 715 718
f 716 718 389
f 714 715 709
f 708 714 709
f 708 709 703
f 623 703 709
f 707 703 623
f 718 486 389
f 713 455 712
f 713 712 711
f 703 714 708
f 704 703 705
f 701 461 706
f 488 461 701
f 462 461 488
f 462 459 461
f 451 459 462
f 463 451 462
f 463 460 451
f 460 450 451
f 460 443 450
f 460 464 443
f 468 464 460
f 464 468 475
f 476 464 475
f 476 470 464
f 476 481 470
f 481 476 478
f 478 482 481
f 482 477 481
f 479 477 482
f 484 479 482
f 483 484 482
f 479 484 369
f 479 369 465
f 465 369 444
f 465 444 466
f 477 465 466
f 477 466 467
f 473 477 467
f 470 473 467
f 467 466 470
f 470 466 445
f 470 445 458
f 445 438 458
f 437 458 438
f 458 437 443
f 437 438 443
f 438 428 443
f 443 428 423
f 443 423 424
f 434 443 424
f 434 424 422
f 434 422 425
f 434 425 433
f 440 434 433
f 434 440 450
f 433 422 440
f 440 422 427
f 431 440 427
f 440 431 439
f 451 440 439
f 431 427 439
f 439 427 435
f 439 435 430
f 430 436 439
f 439 436 447
f 453 439 447
f 453 447 449
f 456 453 449
f 457 453 456
f 457 459 453
f 454 459 457
f 456 449 474
f 449 448 474
f 448 471 474
f 474 471 480
f 471 472 480
f 471 441 472
f 441 469 472
f 452 469 441
f 442 452 441
f 442 436 452
f 436 432 452
f 452 432 407
f 452 407 469
f 430 407 432
f 430 418 407
f 430 426 418
f 427 426 430
f 427 421 426
f 427 414 421
f 421 414 418
f 414 410 418
f 410 409 418
f 410 414 409
f 414 406 409
f 414 415 406
f 415 414 422
f 416 415 422
f 419 416 422
f 417 416 419
f 419 411 417
f 429 411 419
f 423 429 419
f 420 429 423
f 420 438 429
f 438 466 429
f 466 367 429
f 367 411 429
f 411 413 417
f 417 413 415
f 415 413 408
f 408 405 415
f 415 405 404
f 415 404 409
f 409 404 402
f 409 402 407
f 404 401 402
f 404 403 401
f 403 400 401
f 403 371 400
f 371 403 405
f 400 371 1
f 405 403 404
f 408 371 405
f 408 372 371
f 411 372 408
f 411 408 412
f 411 370 372
f 368 370 411
f 368 411 367
f 413 412 408
f 411 412 413
f 416 417 415
f 406 415 409
f 421 418 426
f 418 409 407
f 446 436 442
f 446 442 448
f 447 446 448
f 448 442 441
f 448 441 471
f 447 448 449
f 459 439 453
f 447 436 446
f 436 430 432
f 435 427 430
f 427 422 414
f 425 422 433
f 424 419 422
f 423 419 424
f 428 420 423
f 428 438 420
f 445 466 438
f 444 367 466
f 444 369 367
f 477 479 465
f 481 477 473
f 483 482 478
f 481 473 470
f 464 470 458
f 458 443 464
f 443 434 450
f 451 450 440
f 451 439 459
f 461 459 454
f 719 700 697
f 487 697 382
f 699 720 761
f 699 723 720
f 722 723 620
f 722 621 598
f 621 395 598
f 598 395 615
f 601 598 615
f 615 391 601
f 598 601 591
f 395 391 615
f 724 726 725
f 731 725 682
f 731 682 770
f 692 770 682
f 692 682 686
f 692 686 684
f 692 684 690
f 385 692 690
f 385 386 692
f 689 692 386
f 386 770 689
f 691 770 386
f 691 380 770
f 740 770 380
f 381 740 380
f 381 383 740
f 380 691 379
f 691 386 379
f 688 385 690
f 688 690 506
f 388 688 506
f 387 388 506
f 385 688 388
f 684 685 690
f 690 685 687
f 690 687 773
f 687 685 773
f 773 685 772
f 772 671 773
f 773 671 674
f 773 674 764
f 764 674 696
f 696 674 673
f 755 696 673
f 764 755 673
f 765 764 673
f 765 673 737
f 737 773 765
f 773 737 505
f 505 737 489
f 737 673 489
f 507 489 673
f 673 493 507
f 673 492 493
f 733 492 673
f 673 573 733
f 674 573 673
f 570 573 674
f 573 570 571
f 573 571 572
f 492 573 572
f 572 657 492
f 657 572 574
f 657 574 585
f 574 584 585
f 584 616 585
f 571 616 584
f 571 569 616
f 616 569 568
f 568 566 616
f 616 566 565
f 616 565 655
f 565 645 655
f 647 655 645
f 656 655 647
f 656 657 655
f 657 656 492
f 492 656 491
f 491 656 647
f 491 647 490
f 490 647 504
f 504 647 646
f 504 646 503
f 646 645 503
f 645 501 503
f 645 644 501
f 762 644 645
f 645 639 762
f 645 564 639
f 567 564 645
f 567 544 564
f 540 544 567
f 567 543 540
f 567 556 543
f 566 556 567
f 569 556 566
f 569 546 556
f 569 736 546
f 746 736 569
f 746 569 570
f 668 746 570
f 668 743 746
f 668 612 743
f 743 612 611
f 611 612 736
f 670 612 668
f 772 670 668
f 587 670 772
f 587 588 670
f 587 695 588
f 594 695 587
f 594 555 695
f 555 554 695
f 695 554 553
f 554 633 553
f 553 633 619
f 619 633 537
f 633 675 537
f 633 734 675
f 637 734 633
f 537 675 528
f 640 528 675
f 640 747 528
f 528 747 527
f 527 747 520
f 747 524 520
f 538 524 747
f 609 538 747
f 614 609 747
f 609 614 640
f 640 538 609
f 758 538 640
f 758 539 538
f 539 752 538
f 538 752 545
f 752 534 545
f 538 545 524
f 524 545 536
f 524 536 523
f 530 527 520
f 529 530 520
f 528 530 529
f 558 528 529
f 546 558 529
f 546 537 558
f 546 529 560
f 529 559 560
f 560 559 749
f 556 560 749
f 749 559 525
f 749 525 540
f 540 525 542
f 540 542 547
f 547 542 575
f 653 547 575
f 653 575 576
f 762 653 576
f 499 762 576
f 499 576 500
f 500 576 610
f 500 610 497
f 610 648 497
f 610 375 648
f 375 23 648
f 648 23 649
f 648 649 495
f 649 650 495
f 495 650 651
f 650 652 651
f 23 652 650
f 23 24 652
f 495 651 494
f 494 651 502
f 24 502 651
f 24 741 502
f 741 366 502
f 366 741 365
f 496 648 495
f 23 650 649
f 728 375 610
f 576 728 610
f 576 374 728
f 576 626 374
f 576 627 626
f 627 624 626
f 771 624 627
f 575 771 627
f 542 624 771
f 542 606 624
f 606 605 624
f 624 605 628
f 624 628 625
f 625 628 377
f 624 625 748
f 628 605 377
f 605 378 377
f 636 378 605
f 605 618 636
f 618 608 636
f 636 608 638
f 636 638 373
f 638 384 373
f 636 373 635
f 608 384 638
f 608 617 384
f 608 549 617
f 608 509 549
f 549 509 510
f 549 510 384
f 509 22 510
f 617 549 384
f 618 512 608
f 618 676 512
f 607 676 618
f 607 613 676
f 613 514 676
f 550 514 613
f 550 678 514
f 561 514 678
f 678 518 561
f 531 518 678
f 678 613 531
f 519 531 613
f 519 613 604
f 604 613 603
f 604 603 607
f 559 519 604
f 541 519 559
f 541 520 519
f 520 531 519
f 531 520 518
f 520 535 518
f 518 535 561
f 607 603 613
f 604 607 618
f 604 618 605
f 378 636 635
f 604 605 606
f 526 604 606
f 526 525 604
f 542 526 606
f 624 748 626
f 626 748 376
f 376 748 625
f 626 376 374
f 648 496 497
f 575 627 576
f 639 547 653
f 639 653 577
f 544 547 639
f 575 542 771
f 525 526 542
f 559 604 525
f 520 541 529
f 528 527 530
f 537 528 558
f 619 537 546
f 745 619 546
f 745 546 612
f 695 745 612
f 633 554 555
f 594 633 555
f 757 594 587
f 589 594 757
f 593 589 757
f 590 589 593
f 590 593 654
f 654 757 587
f 587 769 654
f 599 654 769
f 599 769 729
f 729 769 587
f 587 595 729
f 693 595 587
f 693 587 685
f 693 685 729
f 686 729 685
f 683 729 686
f 669 772 668
f 695 612 670
f 669 668 570
f 672 669 570
f 671 672 570
f 736 612 546
f 546 560 556
f 556 749 543
f 543 749 540
f 544 540 547
f 564 544 639
f 644 762 499
f 644 499 498
f 644 498 501
f 647 645 646
f 565 567 645
f 566 567 565
f 566 568 569
f 572 584 574
f 571 584 572
f 570 569 571
f 674 671 570
f 671 772 672
f 587 772 685
f 686 685 684
f 682 683 686
f 682 599 683
f 600 599 682
f 753 598 591
f 654 592 590
f 591 601 677
f 589 590 738
f 589 633 594
f 634 637 633
f 601 632 677
f 601 629 632
f 631 637 634
f 734 637 640
f 681 679 641
f 681 680 679
f 680 393 394
f 752 602 563
f 752 563 534
f 521 759 557
f 524 523 520
f 520 516 535
f 522 521 557
f 557 750 551
f 665 552 551
f 552 658 596
f 578 742 582
f 643 154 140
f 578 582 581
f 517 727 581
f 535 516 517
f 514 561 535
f 676 514 512
f 608 512 509
f 22 509 508
f 131 127 29
f 26 30 27
f 25 26 27
f 32 25 27
f 25 32 28
f 127 130 29
f 130 134 78
f 130 129 134
f 137 134 129
f 137 136 134
f 137 135 136
f 137 142 135
f 135 142 141
f 135 141 136
f 136 141 133
f 141 138 133
f 138 141 139
f 138 139 83
f 83 139 84
f 84 139 230
f 84 230 85
f 85 230 252
f 230 253 252
f 252 253 251
f 251 253 250
f 250 253 267
f 267 253 265
f 267 265 264
f 251 267 264
f 251 264 254
f 254 264 263
f 264 268 263
f 254 263 262
f 262 263 261
f 261 263 269
f 261 269 312
f 254 262 261
f 254 261 271
f 271 261 260
f 260 259 271
f 228 271 259
f 228 149 271
f 145 271 149
f 145 248 271
f 254 248 145
f 147 254 145
f 147 249 254
f 147 251 249
f 147 243 251
f 143 251 243
f 85 251 143
f 85 143 73
f 73 143 146
f 143 147 146
f 87 146 147
f 70 146 87
f 70 71 146
f 77 71 70
f 71 77 76
f 79 76 77
f 68 79 77
f 80 79 68
f 66 79 80
f 66 80 67
f 66 67 86
f 86 67 68
f 128 66 86
f 128 79 66
f 67 80 68
f 69 68 77
f 69 77 59
f 63 69 59
f 63 59 65
f 123 63 65
f 64 123 65
f 64 65 62
f 62 65 61
f 62 61 118
f 118 61 60
f 60 57 118
f 118 57 56
f 98 118 56
f 118 98 117
f 117 64 118
f 98 56 95
f 98 95 96
f 102 98 96
f 97 98 102
f 99 97 102
f 97 99 98
f 94 98 99
f 102 96 104
f 103 102 104
f 120 103 104
f 120 104 153
f 108 120 153
f 152 108 153
f 152 153 157
f 157 153 159
f 157 159 180
f 180 159 170
f 180 170 191
f 170 159 158
f 170 158 160
f 158 159 160
f 159 126 160
f 160 126 151
f 160 151 164
f 160 164 167
f 164 151 171
f 151 150 171
f 171 150 156
f 156 173 171
f 156 174 173
f 173 174 199
f 199 174 177
f 174 175 177
f 177 175 176
f 177 176 223
f 223 257 177
f 176 257 223
f 176 195 257
f 196 257 195
f 176 196 195
f 175 196 176
f 174 196 175
f 174 43 196
f 43 40 196
f 40 197 196
f 196 197 244
f 244 197 255
f 227 244 255
f 255 256 227
f 229 256 255
f 229 228 256
f 226 228 229
f 226 148 228
f 144 148 226
f 40 144 226
f 41 144 40
f 41 40 39
f 39 44 41
f 38 41 44
f 37 38 44
f 46 37 44
f 44 43 46
f 44 42 43
f 42 44 40
f 47 37 46
f 48 47 46
f 48 51 47
f 53 51 48
f 119 51 53
f 119 53 49
f 50 119 49
f 104 119 50
f 104 50 126
f 49 151 50
f 49 53 151
f 119 115 51
f 95 115 119
f 115 52 51
f 115 56 52
f 56 55 52
f 52 55 38
f 55 54 38
f 55 72 54
f 60 72 55
f 54 72 41
f 41 72 145
f 72 87 145
f 41 145 148
f 52 37 51
f 53 48 150
f 48 45 150
f 45 48 46
f 156 45 46
f 47 51 37
f 52 38 37
f 54 41 38
f 44 39 40
f 41 148 144
f 226 229 255
f 256 275 227
f 197 226 255
f 40 226 197
f 43 42 40
f 46 43 174
f 172 173 199
f 156 46 174
f 45 156 150
f 151 53 150
f 50 151 126
f 166 157 180
f 179 166 180
f 178 166 179
f 153 126 159
f 155 152 157
f 155 157 163
f 161 155 163
f 155 108 152
f 155 120 108
f 107 120 155
f 106 107 155
f 106 105 107
f 105 120 107
f 153 104 126
f 105 103 120
f 105 102 103
f 104 96 119
f 96 95 119
f 95 56 115
f 56 57 55
f 57 60 55
f 61 72 60
f 61 58 72
f 70 72 58
f 59 70 58
f 59 58 61
f 64 62 118
f 123 68 63
f 65 59 61
f 63 68 69
f 76 79 81
f 79 89 81
f 90 89 79
f 89 90 74
f 138 74 90
f 91 138 90
f 90 134 91
f 133 91 134
f 89 74 76
f 75 76 74
f 75 74 71
f 71 74 73
f 78 90 79
f 81 89 76
f 76 75 71
f 77 70 59
f 72 70 87
f 73 146 71
f 73 74 85
f 74 82 85
f 74 83 82
f 143 243 147
f 87 147 145
f 145 149 148
f 149 228 148
f 228 259 256
f 261 259 260
f 254 271 248
f 249 251 254
f 264 265 268
f 251 250 267
f 85 252 251
f 84 85 82
f 82 83 84
f 138 83 74
f 133 138 91
f 136 133 134
f 78 134 90
f 128 78 79
f 132 32 27
f 33 28 32
f 31 28 33
f 88 128 86
f 86 68 123
f 92 124 121
f 123 64 117
f 94 117 98
f 93 92 121
f 99 116 94
f 99 102 105
f 113 105 106
f 106 155 161
f 163 157 161
f 157 166 178
f 190 182 183
f 190 183 185
f 185 183 184
f 185 184 222
f 222 184 213
f 222 213 324
f 323 324 213
f 2 324 323
f 2 323 325
f 323 213 325
f 186 178 188
f 188 178 179
f 183 189 187
f 213 184 183
f 325 213 224
f 325 3 2
f 247 203 3
f 247 202 203
f 203 202 201
f 202 205 201
f 205 204 201
f 214 245 326
f 247 246 202
f 204 205 202
f 245 179 209
f 179 180 191
f 191 181 200
f 200 181 216
f 191 170 181
f 160 167 170
f 167 164 171
f 171 173 172
f 194 193 215
f 194 215 192
f 194 192 212
f 221 212 217
f 210 217 208
f 204 208 206
f 204 206 201
f 5 203 201
f 219 220 207
f 220 241 279
f 300 297 4
f 4 297 19
f 279 238 299
f 234 238 235
f 19 297 298
f 234 235 303
f 315 302 284
f 280 282 284
f 303 276 301
f 273 288 280
f 288 291 280
f 288 240 291
f 273 240 288
f 233 276 239
f 218 231 233
f 199 218 172
f 198 199 177
f 177 257 242
f 196 225 257
f 196 244 227
f 274 289 290
f 240 274 291
f 291 295 280
f 280 287 282
f 306 318 286
f 283 287 285
f 285 20 11
f 318 317 286
f 351 13 12
f 318 343 347
f 305 311 343
f 292 293 311
f 281 294 293
f 227 275 281
f 256 259 275
f 261 272 259
f 312 272 261
f 304 313 314
f 296 304 310
f 310 309 296
f 307 309 308
f 308 348 322
f 348 13 345
f 356 328 17
f 328 356 354
f 333 328 354
f 333 354 340
f 334 333 340
f 334 328 333
f 334 327 328
f 327 329 328
f 329 327 21
f 360 329 21
f 327 360 21
f 340 354 356
f 349 357 353
f 350 341 349
f 340 359 358
f 338 339 341
f 319 337 338
f 319 336 337
f 327 334 340
f 335 355 327
f 312 336 319
f 320 342 270
f 269 263 312
f 268 265 263
f 253 266 265
f 270 277 320
f 320 355 335
f 327 355 360
f 362 332 361
f 362 330 332
f 330 362 364
f 330 364 15
f 330 15 16
f 329 360 331
f 17 330 16
f 328 329 17

