# https://github.com/mikedh/trimesh
v -0.18747556 0.24212631 -0.15778031
v -0.18377601 0.20852600 -0.18262300
v -0.18194400 0.20158300 -0.18724300
v -0.16846525 0.17747800 -0.20585750
v -0.17627700 0.18933100 -0.19644399
v -0.16191700 0.14827425 -0.21438650
v -0.18540600 0.27692850 -0.12968600
v -0.17929750 0.29457651 -0.11639950
v -0.17059963 0.31783950 -0.08874700
v -0.14463006 0.35133757 -0.04637062
v -0.13069850 0.36351999 -0.01877200
v -0.10788950 0.37489375 0.00601950
v -0.08861050 0.38176450 0.02087050
v -0.04959675 0.39324563 0.00706900
v -0.04082508 0.39364099 0.02079464
v -0.04422400 0.39335001 0.01647500
v -0.06242250 0.38866100 0.02822575
v -0.04235800 0.39272001 0.02745100
v 0.15145850 0.33113300 0.08450050
v -0.07643814 0.38350722 -0.05046625
v -0.08667451 0.38140586 -0.04284622
v -0.09224374 0.37747884 -0.05486338
v -0.10748574 0.36927318 -0.06526586
v -0.09099962 0.37354329 -0.07433286
v -0.08683464 0.37788582 -0.06250994
v -0.07732917 0.37702539 -0.07903396
v -0.08104687 0.37796495 -0.07068012
v -0.06751294 0.38206503 -0.06975445
v -0.09352323 0.36928917 -0.08633203
v -0.10120600 0.37533900 -0.04603000
v -0.11105504 0.37037427 -0.05098770
v -0.13133156 0.36082887 -0.04481453
v -0.12863787 0.36429056 -0.02754497
v -0.11748794 0.37076747 -0.01831947
v -0.11937458 0.36839858 -0.03617742
v -0.13112011 0.36005649 -0.05346966
v -0.10509575 0.36893277 -0.07060802
v -0.07161940 0.38410957 -0.05548388
v -0.07941720 0.38512900 -0.02956726
v -0.08888886 0.38301711 -0.00147637
v -0.08114553 0.38497502 0.01264697
v -0.08941570 0.38190813 0.01686910
v -0.10075013 0.37844146 0.00210597
v -0.09757141 0.37968437 -0.01510369
v -0.08918985 0.38245139 -0.02184892
v -0.10617964 0.37619241 -0.01051626
v -0.11467860 0.37252608 -0.00924409
v -0.10042019 0.37747430 -0.03262932
v -0.10992730 0.37384373 -0.02544121
v -0.09739570 0.37896669 -0.02770162
v -0.07053011 0.38812624 0.01407648
v -0.07252939 0.38756586 -0.02582681
v -0.05825375 0.39101675 -0.02290250
v -0.05322794 0.39276381 -0.00104681
v -0.06159696 0.39095802 -0.00575667
v -0.06769714 0.38965611 -0.00280133
v -0.12838687 0.35784621 -0.06881750
v -0.13998119 0.35478383 -0.04881404
v -0.05871380 0.38927876 -0.03993795
v -0.06081337 0.39013125 0.01971899
v -0.08994506 0.36920163 -0.09018168
v -0.12073195 0.36284842 -0.06498658
v -0.05270648 0.39233691 0.01312902
v -0.05688650 0.39187024 -0.01232175
v -0.05679100 0.38878000 -0.04661700
v -0.06203072 0.38765632 -0.04857597
v -0.05544375 0.38819875 -0.05228550
v -0.05427229 0.38705863 -0.05862639
v -0.11150555 0.36376374 -0.07936003
v -0.07393454 0.37397111 -0.09218772
v -0.06681325 0.37182945 -0.10333488
v -0.05596059 0.37489235 -0.10237124
v -0.04670848 0.37581317 -0.10486479
v -0.05249318 0.37225351 -0.11095016
v -0.04724921 0.36831423 -0.12270849
v -0.04224750 0.36793607 -0.12496477
v -0.06417174 0.37841191 -0.08643296
v -0.06946620 0.37662323 -0.08758658
v -0.05819782 0.38417082 -0.06972865
v -0.07855131 0.37013373 -0.09870813
v -0.09953528 0.36196416 -0.10032810
v -0.09100950 0.35688209 -0.12034088
v -0.09600750 0.35804690 -0.11335136
v -0.08476633 0.36328162 -0.11092074
v -0.10757611 0.35882376 -0.09951697
v -0.12075857 0.35510091 -0.09158644
v -0.11793726 0.35660252 -0.09166728
v -0.07223497 0.36076464 -0.12540226
v -0.04670499 0.36379379 -0.13175673
v -0.06351837 0.36761779 -0.11601600
v -0.05058050 0.38633912 -0.06527150
v -0.12497898 0.35521227 -0.08492337
v -0.11724206 0.34886597 -0.11164568
v -0.10664769 0.35314166 -0.11407347
v -0.12110514 0.34096766 -0.12350571
v -0.11259322 0.34192675 -0.13026605
v -0.12182598 0.34651595 -0.11123939
v -0.13128389 0.35315296 -0.07959434
v -0.13657727 0.35078844 -0.07590123
v -0.14502049 0.34883229 -0.06145837
v -0.14381458 0.34561849 -0.07683413
v -0.12773230 0.34837032 -0.09937007
v -0.07534683 0.36109477 -0.12297368
v -0.09518618 0.35179318 -0.12700225
v -0.13775082 0.33723872 -0.11011486
v -0.14281438 0.34124991 -0.09234019
v -0.15840516 0.32543338 -0.10064217
v -0.15748277 0.32207238 -0.10944281
v -0.14907072 0.32434203 -0.11833616
v -0.13525089 0.33129654 -0.12487210
v -0.14653811 0.33107296 -0.10921564
v -0.14991558 0.33751258 -0.08794678
v -0.15057420 0.34063728 -0.07669653
v -0.15409510 0.33987262 -0.06941987
v -0.12818112 0.33760934 -0.12215088
v -0.16025134 0.33037970 -0.08370601
v 0.00004700 0.37976101 -0.10427500
v 0.02482300 0.37903500 -0.10438200
v 0.02033250 0.37581616 -0.11357033
v 0.03421849 0.37833334 -0.10283914
v -0.01103000 0.38059801 -0.10157700
v -0.02053716 0.37488738 -0.11587305
v -0.01809669 0.38103922 -0.09925752
v -0.02976111 0.38226158 -0.09195011
v 0.04100258 0.37797985 -0.10099175
v 0.05088199 0.37799010 -0.09633692
v -0.03895366 0.38190052 -0.08989714
v -0.03455100 0.38302801 -0.08716050
v -0.04702786 0.38248736 -0.08432477
v 0.06594400 0.37856299 -0.08284900
v 0.07104534 0.37601431 -0.08865913
v 0.07040200 0.37763399 -0.08273000
v 0.06147567 0.37328381 -0.10455488
v 0.07894089 0.37918228 -0.06745752
v 0.07934975 0.37963326 -0.06450775
v 0.08853300 0.37685099 -0.06424400
v 0.08511450 0.37980400 -0.05315400
v 0.08931600 0.37528300 -0.07029000
v 0.08654500 0.37406699 -0.07902350
v -0.04075200 0.38407001 -0.08079700
v -0.04364850 0.38479950 -0.07651962
v -0.03964000 0.38339999 -0.08355100
v 0.00529920 0.34824977 -0.16343221
v -0.01330532 0.34281790 -0.17001133
v -0.00105555 0.33941906 -0.17446564
v 0.01200240 0.34112817 -0.17226733
v 0.02362192 0.34438032 -0.16700733
v 0.02366406 0.34861217 -0.16160902
v 0.02921470 0.33803343 -0.17439273
v 0.04729550 0.34760184 -0.15789102
v 0.05348519 0.33768325 -0.16934519
v 0.06572903 0.33309430 -0.17067221
v 0.06763287 0.34787155 -0.15043035
v 0.06871928 0.35377523 -0.14068678
v 0.08096249 0.34238094 -0.15171463
v 0.08804021 0.33867783 -0.15320967
v 0.10294342 0.33862843 -0.14344807
v 0.08887675 0.34891399 -0.13704786
v 0.10162963 0.33379383 -0.15159210
v 0.07786319 0.33350587 -0.16520795
v 0.07244058 0.32622139 -0.17598597
v 0.07478942 0.31857477 -0.18323504
v 0.08919256 0.31778979 -0.17815791
v 0.07303124 0.32339194 -0.17898071
v 0.08625175 0.32637887 -0.16980786
v 0.05190141 0.35719879 -0.14163197
v 0.05859939 0.35531155 -0.14225487
v 0.03528162 0.35602893 -0.14809425
v 0.04124900 0.34163712 -0.16734116
v 0.05346350 0.32919192 -0.17911040
v 0.01909675 0.33306389 -0.18085789
v -0.02499120 0.35006056 -0.15896004
v -0.01779735 0.35088732 -0.15879866
v -0.03906578 0.33725109 -0.17314980
v -0.02584346 0.33675759 -0.17586814
v -0.02596198 0.33194231 -0.18126404
v -0.02739273 0.34406496 -0.16670417
v -0.04384671 0.34250524 -0.16536506
v -0.05095129 0.34735171 -0.15689448
v -0.04894213 0.33633392 -0.17170270
v -0.00225396 0.35261590 -0.15725826
v 0.00813759 0.35743683 -0.14967532
v 0.01474790 0.36736015 -0.13222064
v 0.03310511 0.37314010 -0.11672481
v 0.03496025 0.36683716 -0.12950747
v -0.00202679 0.37568988 -0.11542516
v -0.01804817 0.37014195 -0.12622925
v -0.00765294 0.37126623 -0.12493080
v -0.03092492 0.36272878 -0.13795662
v -0.03593894 0.36195148 -0.13791584
v -0.03344893 0.35266553 -0.15383218
v -0.01502479 0.36313655 -0.13974459
v -0.00416300 0.36144200 -0.14315601
v -0.00769247 0.35712355 -0.15046642
v 0.00602874 0.36933222 -0.12920971
v -0.00301900 0.36901101 -0.12954000
v 0.03956397 0.35661677 -0.14655150
v 0.02440213 0.36047297 -0.14304329
v 0.05513581 0.36484507 -0.12649824
v 0.06131186 0.36332451 -0.12668207
v 0.07633247 0.35947133 -0.12598733
v 0.07378571 0.36575768 -0.11412528
v 0.08983774 0.36705695 -0.09766291
v 0.07622061 0.37250729 -0.09539983
v 0.07622275 0.37757568 -0.07778128
v 0.10014333 0.36526051 -0.09149735
v 0.09713034 0.35884577 -0.11114553
v 0.10361879 0.36324833 -0.09263211
v 0.11114216 0.35674423 -0.10035839
v 0.12127600 0.35238901 -0.09761500
v 0.11314736 0.35208469 -0.10910230
v 0.11528724 0.34568792 -0.12036371
v 0.10162767 0.35222470 -0.12099633
v 0.10829094 0.34387577 -0.13055818
v 0.11819627 0.33821879 -0.13122475
v 0.12168450 0.32917500 -0.14196500
v 0.12456400 0.33971801 -0.12144400
v 0.12893268 0.34381210 -0.10753546
v 0.13047899 0.34556201 -0.10113400
v 0.11015912 0.36301937 -0.08257238
v 0.12123840 0.34679210 -0.11130194
v 0.13194350 0.33944500 -0.11267150
v 0.13136099 0.34654099 -0.09728900
v 0.13030549 0.33229449 -0.12833400
v 0.13710900 0.33682501 -0.11106900
v 0.12203400 0.33579750 -0.13121025
v 0.13282999 0.33302900 -0.12404300
v 0.07036901 0.36872291 -0.10978781
v 0.08757687 0.36091054 -0.11493301
v -0.03233796 0.36817112 -0.12739278
v -0.04879470 0.35562576 -0.14522461
v 0.11778750 0.32889901 -0.14612950
v 0.09077063 0.32986273 -0.16335848
v 0.09635867 0.33009339 -0.15990072
v -0.06733731 0.35144320 -0.14469635
v 0.04481294 0.37314649 -0.11280803
v -0.03112904 0.37749938 -0.10655194
v 0.09428100 0.37074900 -0.08094400
v 0.09221713 0.36910321 -0.08934620
v 0.10045200 0.36944300 -0.07666900
v 0.11406763 0.32782197 -0.15092733
v 0.11889900 0.32373101 -0.15239400
v 0.11421500 0.35914901 -0.08931500
v 0.08369695 0.35156654 -0.13601848
v 0.06736730 0.31340697 -0.19073256
v 0.08002455 0.30934379 -0.18994622
v 0.04355318 0.31249565 -0.19762813
v 0.05555457 0.31968999 -0.18812020
v 0.05080199 0.30477054 -0.20246071
v 0.06215579 0.30643063 -0.19840455
v 0.02836127 0.31967487 -0.19334404
v 0.03300981 0.31124744 -0.20015394
v 0.04028903 0.32023354 -0.19115547
v 0.07256264 0.29860284 -0.20154285
v 0.07438200 0.30238599 -0.19781201
v 0.08832590 0.29966583 -0.19498622
v 0.08499420 0.29147332 -0.20237963
v 0.09422976 0.31271767 -0.18055113
v 0.08523185 0.28564595 -0.20638084
v 0.06915317 0.28966152 -0.20901413
v 0.10062668 0.29312449 -0.19455983
v 0.11431485 0.28985180 -0.18997877
v 0.09604165 0.28217460 -0.20444231
v 0.10709434 0.25815634 -0.21407979
v 0.10954769 0.26630473 -0.20838634
v 0.09809189 0.27989811 -0.20524153
v 0.11403196 0.28120166 -0.19654664
v 0.11574347 0.27352586 -0.20096610
v 0.07627792 0.27849069 -0.21413585
v 0.08640770 0.26874689 -0.21652508
v 0.10039900 0.30287401 -0.18672770
v 0.12188103 0.28192840 -0.19168128
v 0.11961773 0.26077503 -0.20661144
v 0.09847209 0.25301518 -0.22017488
v 0.09918166 0.24611450 -0.22309607
v 0.12730337 0.25566555 -0.20527994
v 0.11691564 0.24790983 -0.21465191
v 0.12881174 0.22927935 -0.21677821
v 0.13270057 0.26475528 -0.19686546
v 0.11861277 0.29871320 -0.17986014
v 0.13076597 0.27067992 -0.19430667
v 0.13611909 0.24623768 -0.20499203
v 0.11854438 0.23935238 -0.21799398
v 0.13547381 0.27446754 -0.18853650
v 0.10352974 0.31576706 -0.17257031
v 0.11500760 0.32105733 -0.15882733
v 0.12187437 0.31463405 -0.16130430
v 0.12477557 0.29500361 -0.17924219
v 0.11861609 0.30559816 -0.17339471
v 0.12404441 0.30465552 -0.17036658
v 0.12773734 0.29341161 -0.17864148
v 0.14085625 0.28658400 -0.17404500
v 0.10134687 0.32337223 -0.16520993
v 0.15016990 0.24774471 -0.19467677
v 0.14194781 0.27820112 -0.18072368
v 0.13855319 0.25070131 -0.20123624
v 0.14477190 0.23519796 -0.20478366
v 0.15084700 0.24237400 -0.19695400
v 0.15933602 0.23043272 -0.19638640
v 0.13303040 0.23724339 -0.21106719
v 0.13422894 0.22206405 -0.21660251
v 0.14883751 0.27170751 -0.17991901
v 0.14575100 0.28246950 -0.17370650
v 0.13462162 0.30068975 -0.16597262
v 0.14479262 0.25895952 -0.19218321
v 0.11949357 0.22934992 -0.22144939
v 0.11089400 0.22520501 -0.22648350
v 0.12535500 0.21956250 -0.22199551
v 0.15158081 0.24974295 -0.19240315
v 0.15673163 0.23998642 -0.19365346
v 0.15149212 0.25953526 -0.18649624
v 0.15352775 0.26654626 -0.17958876
v 0.12542250 0.31779401 -0.15454401
v 0.13166912 0.30608699 -0.16278825
v 0.13266100 0.31231750 -0.15500451
v 0.15637700 0.25826299 -0.18302500
v 0.16110443 0.22025102 -0.19916974
v 0.14951807 0.22537457 -0.20579378
v 0.13897775 0.21539900 -0.21593325
v 0.15768668 0.24334846 -0.19120759
v 0.16378250 0.24262850 -0.18591800
v 0.16356000 0.24942499 -0.18218300
v 0.17184917 0.21724372 -0.19085772
v 0.17463550 0.23438600 -0.17965050
v 0.17279600 0.22462802 -0.18667850
v 0.16939553 0.23254440 -0.18618334
v 0.15882800 0.21709449 -0.20207750
v 0.17827549 0.21478700 -0.18520925
v -0.17617979 0.19983808 -0.19386398
v -0.17097941 0.21623482 -0.19276655
v -0.16379702 0.19600896 -0.20567515
v -0.16229481 0.22561084 -0.19635047
v -0.16190797 0.21056062 -0.20271010
v -0.18000884 0.22187083 -0.18114469
v -0.16812596 0.23867881 -0.18463354
v -0.17745660 0.25447736 -0.16405089
v -0.16722591 0.24758916 -0.18034441
v -0.15389309 0.25084703 -0.19028275
v -0.16841900 0.25624001 -0.17299999
v -0.15335563 0.23833627 -0.19754605
v -0.18252679 0.24335892 -0.16589528
v -0.15983934 0.28106043 -0.16214120
v -0.16087186 0.26309338 -0.17600618
v -0.14259637 0.28093714 -0.17865458
v -0.14356066 0.27022937 -0.18594114
v -0.14226660 0.26154826 -0.19287675
v -0.16626900 0.27814901 -0.15715399
v -0.17209216 0.26675895 -0.16067303
v -0.14935300 0.29344499 -0.16043900
v -0.14999699 0.30516784 -0.14638013
v -0.15822007 0.30779647 -0.13247512
v -0.15258545 0.30984080 -0.13688434
v -0.15648968 0.29738179 -0.14829631
v -0.13442036 0.28432446 -0.18183985
v -0.14341083 0.29477733 -0.16508782
v -0.13573777 0.29947287 -0.16684116
v -0.17107771 0.27805035 -0.15131876
v -0.16284403 0.28573035 -0.15370058
v -0.17915135 0.26133308 -0.15625962
v -0.12876552 0.27236095 -0.19465666
v -0.18026679 0.28062558 -0.13485200
v -0.16457686 0.29328559 -0.14312690
v -0.15151034 0.31420812 -0.13178367
v -0.17332470 0.30304393 -0.11468140
v -0.13824643 0.32057146 -0.13886431
v -0.16682822 0.30426170 -0.12520960
v -0.16944151 0.30439840 -0.12002876
v -0.16492323 0.31530345 -0.10870658
v -0.16791445 0.32060557 -0.09057362
v -0.16781899 0.31663476 -0.10007107
v -0.14907579 0.31918608 -0.12736061
v -0.16392207 0.17857331 -0.20943780
v -0.16829000 0.18364100 -0.20487800
v -0.15436171 0.19130346 -0.21388546
v -0.15076912 0.22930650 -0.20357529
v -0.14171549 0.24199654 -0.20393298
v -0.14539497 0.20409568 -0.21617140
v -0.13869484 0.20404555 -0.22067270
v -0.13790088 0.21182954 -0.21820622
v -0.14881203 0.22483068 -0.20736622
v -0.11571549 0.23853710 -0.21986782
v -0.13026667 0.22570374 -0.21766793
v -0.10303947 0.25343856 -0.21852577
v -0.12525050 0.25383327 -0.20829338
v -0.08432386 0.26626723 -0.21836346
v -0.03758661 0.31534488 -0.19619531
v -0.04526487 0.32558524 -0.18465293
v -0.06015668 0.32490254 -0.18163437
v -0.07292776 0.32950461 -0.17193333
v -0.05659975 0.34390608 -0.16005826
v -0.08661920 0.32530744 -0.17050604
v -0.07709485 0.32036767 -0.18018575
v -0.08410417 0.31349836 -0.18419474
v -0.09547459 0.31361059 -0.17890675
v -0.07941597 0.30673134 -0.19241273
v -0.10307017 0.29938712 -0.18842260
v -0.06059863 0.30872804 -0.19669288
v -0.08196650 0.33799342 -0.15716238
v -0.05369809 0.31529522 -0.19280488
v -0.07451990 0.30077385 -0.19888095
v -0.08312304 0.29662530 -0.19928192
v -0.06966416 0.29460540 -0.20513512
v -0.09465019 0.28896662 -0.20047483
v -0.11655875 0.30467602 -0.17576563
v -0.13056999 0.29734701 -0.17292500
v -0.11783312 0.29605899 -0.18276808
v -0.12316118 0.29233350 -0.18281676
v -0.12748294 0.28019662 -0.18996859
v -0.10473514 0.31995581 -0.16697111
v -0.11512761 0.31142710 -0.16968289
v -0.10558487 0.32585084 -0.15929360
v -0.09262904 0.33154272 -0.15978252
v -0.10721513 0.29079946 -0.19337617
v -0.12535741 0.26602243 -0.20084424
v -0.10330400 0.27761564 -0.20466019
v -0.12622149 0.30764725 -0.16597943
v -0.05803176 0.28520790 -0.21464469
v -0.08482532 0.27752322 -0.21187330
v -0.05830271 0.26145091 -0.22784215
v -0.05159339 0.27123502 -0.22397429
v -0.07640732 0.26810033 -0.22000737
v -0.11161175 0.27253149 -0.20379043
v -0.11341228 0.32808360 -0.15069499
v -0.10315408 0.33669263 -0.14612020
v -0.12086424 0.32021664 -0.15567360
v -0.09262845 0.34096042 -0.14680943
v -0.09378114 0.34824314 -0.13428094
v -0.07452196 0.34974171 -0.14373114
v -0.08162815 0.34090223 -0.15319223
v -0.06781975 0.34139682 -0.15896029
v -0.08070602 0.35387181 -0.13342274
v -0.12075048 0.33046258 -0.14137690
v -0.13589072 0.31032819 -0.15498744
v -0.14858050 0.29934412 -0.15508319
v -0.12564856 0.32191035 -0.14933586
v -0.13042103 0.32619109 -0.13868036
v -0.13801140 0.32351125 -0.13451335
v -0.04640359 0.35212523 -0.15129834
v -0.07133199 0.35529974 -0.13627451
v -0.15408285 0.16345291 -0.21868687
v -0.14318350 0.16465791 -0.22527337
v -0.14525492 0.16831055 -0.22352906
v -0.14582450 0.15122250 -0.22477049
v -0.13951338 0.18451359 -0.22433993
v -0.14877984 0.17987526 -0.21966708
v -0.15857280 0.16715483 -0.21545566
v -0.15357402 0.15019848 -0.22013288
v -0.15423950 0.14003100 -0.21998850
v -0.13003407 0.17172031 -0.23130460
v -0.13340300 0.15837200 -0.23085700
v -0.11883238 0.18010630 -0.23505189
v -0.08887493 0.19775644 -0.24223125
v -0.08593400 0.18858500 -0.24504399
v -0.08104369 0.18432217 -0.24719348
v -0.07648644 0.19956452 -0.24541356
v -0.06094751 0.19290101 -0.25033520
v -0.07568300 0.17699400 -0.24969999
v -0.09227750 0.17274549 -0.24566000
v -0.06654400 0.18274200 -0.25088301
v -0.05596128 0.20840038 -0.24758565
v -0.05943529 0.21697843 -0.24465643
v -0.06540823 0.23413457 -0.23762448
v -0.06909821 0.24918839 -0.23078547
v -0.03551929 0.27201763 -0.22623449
v -0.03208081 0.28579249 -0.21871816
v -0.01812462 0.28345164 -0.22153048
v 0.00805908 0.26805645 -0.23029419
v 0.00741295 0.27554458 -0.22627302
v 0.02121495 0.27152826 -0.22771246
v 0.02449595 0.26338159 -0.23162502
v 0.01814538 0.28228221 -0.22207531
v 0.02888717 0.28821354 -0.21742205
v 0.03681234 0.27647797 -0.22367347
v 0.03978826 0.26119291 -0.23107446
v 0.04759942 0.25953568 -0.23062789
v 0.05031377 0.27081675 -0.22461881
v 0.05839962 0.28200917 -0.21654726
v 0.05922944 0.29622840 -0.20681529
v 0.07319799 0.26592085 -0.22197321
v 0.06186400 0.26834346 -0.22349487
v 0.05085612 0.25368176 -0.23288700
v 0.06780089 0.25163053 -0.23013196
v 0.06472178 0.24217374 -0.23470547
v 0.02907752 0.24232514 -0.24035539
v 0.01422369 0.25617896 -0.23558694
v 0.01221193 0.24211488 -0.24166419
v 0.01140206 0.24599075 -0.24005997
v -0.00866128 0.25265419 -0.23761723
v -0.00263695 0.25977585 -0.23433783
v -0.01601441 0.25160426 -0.23769424
v -0.05016245 0.23508434 -0.24055582
v -0.04070031 0.23111372 -0.24321180
v -0.05069128 0.20895444 -0.24842178
v -0.05796675 0.18908800 -0.25142950
v -0.04816600 0.19549400 -0.25191700
v -0.04373961 0.21081976 -0.24907064
v -0.02317019 0.21026022 -0.25125829
v -0.02991925 0.21767666 -0.24877802
v -0.02733332 0.23722492 -0.24252263
v 0.00117986 0.22994533 -0.24631519
v -0.00689658 0.23217570 -0.24549017
v 0.00827279 0.22253455 -0.24853938
v 0.01856684 0.22422171 -0.24759591
v 0.02945322 0.22428516 -0.24676880
v -0.00509627 0.22035668 -0.24928459
v -0.01315982 0.21134366 -0.25147110
v -0.01160645 0.20892489 -0.25223798
v -0.02473500 0.19966450 -0.25354100
v 0.00839675 0.21213375 -0.25135551
v 0.02348745 0.23715763 -0.24273385
v 0.03842300 0.24034700 -0.23998100
v 0.04143755 0.23610533 -0.24120558
v 0.05235607 0.23148081 -0.24120000
v 0.05826653 0.22823638 -0.24114950
v 0.04515500 0.22306350 -0.24507851
v 0.07042912 0.23291051 -0.23691469
v 0.07891606 0.23811625 -0.23270739
v 0.08620934 0.25128748 -0.22520023
v 0.08326338 0.26956648 -0.21695934
v 0.09771500 0.22567200 -0.23131100
v 0.08317822 0.23061702 -0.23429407
v 0.08719350 0.22243200 -0.23569350
v 0.10062105 0.23232496 -0.22807399
v -0.01539700 0.26782046 -0.23025596
v -0.04076093 0.25805726 -0.23242377
v -0.07619646 0.25256026 -0.22742840
v -0.08295421 0.23405806 -0.23333878
v -0.08482850 0.20758334 -0.24123186
v -0.07041641 0.22063742 -0.24101168
v -0.07970005 0.20800764 -0.24237493
v -0.10228298 0.19162156 -0.23945091
v -0.09050741 0.24639590 -0.22599796
v -0.09832276 0.23591844 -0.22765248
v -0.10202115 0.21976650 -0.23198923
v -0.09637888 0.22085910 -0.23370078
v -0.12722600 0.19683242 -0.22796272
v -0.12089090 0.20823902 -0.22777733
v -0.10964845 0.21491205 -0.23064398
v -0.10902975 0.17368401 -0.23982600
v -0.10089300 0.17385800 -0.24278100
v 0.07187550 0.22217425 -0.24003925
v 0.02764350 0.21762724 -0.24865250
v 0.05623000 0.21987000 -0.24413700
v 0.00076564 0.33270364 -0.18222572
v 0.00334700 0.33706599 -0.17715500
v -0.00424207 0.33161806 -0.18317587
v 0.00068924 0.32871362 -0.18626366
v 0.01343923 0.31840301 -0.19599818
v -0.00660997 0.32050200 -0.19441751
v -0.01091528 0.32121016 -0.19341793
v -0.03138074 0.32583979 -0.18688890
v -0.01855629 0.33014511 -0.18423246
v -0.01953788 0.31000559 -0.20275146
v 0.00663741 0.32254549 -0.19231840
v 0.02721385 0.30936360 -0.20256885
v 0.01729400 0.31376699 -0.19963300
v 0.00755518 0.30564609 -0.20669061
v 0.01391299 0.30249186 -0.20882296
v 0.01999241 0.29219798 -0.21585413
v 0.02413786 0.29738195 -0.21177774
v -0.02352686 0.31005353 -0.20222638
v -0.03704187 0.30862724 -0.20172414
v 0.00121985 0.31168381 -0.20221259
v 0.04233696 0.29355085 -0.21222280
v 0.03096874 0.29349828 -0.21371826
v -0.01970464 0.30007651 -0.21038189
v -0.00444900 0.29955599 -0.21131600
v 0.00352065 0.29027837 -0.21791509
v -0.01175753 0.29325378 -0.21555517
v -0.04570927 0.28284504 -0.21858955
v -0.04101996 0.28327535 -0.21901499
v -0.04837706 0.29929321 -0.20719918
v 0.08849222 0.38275134 -0.02210883
v 0.08660022 0.38353387 -0.00979781
v 0.08350210 0.38450163 -0.00062697
v 0.08777652 0.38091775 -0.04036098
v 0.08153154 0.38499900 0.00411457
v 0.07238713 0.39015403 0.01709873
v 0.07884479 0.38931402 0.00585891
v 0.07638825 0.38617997 0.01348913
v 0.08015017 0.38953670 0.00255990
v 0.06308126 0.39458009 0.02362116
v 0.06477554 0.38788953 0.02741049
v 0.05175265 0.38965035 0.03699127
v 0.05523318 0.39396937 0.03278685
v 0.04539686 0.39036014 0.04030930
v 0.06918694 0.38763468 0.02252606
v 0.02699528 0.39155495 0.04961500
v 0.04288569 0.38367376 0.07347675
v 0.05580145 0.38002068 0.07812304
v 0.06687010 0.37211595 0.09274459
v 0.06777828 0.37612351 0.08088872
v 0.04708827 0.38486181 0.06643467
v 0.05408230 0.38558758 0.05788998
v 0.04077613 0.39076054 0.04259847
v 0.05477540 0.38798388 0.04474625
v 0.05871506 0.37870623 0.07977961
v 0.06859800 0.37980801 0.06745200
v 0.07425010 0.37746105 0.07070295
v 0.06888787 0.38247529 0.05694145
v 0.08856792 0.37461481 0.06484527
v 0.05774127 0.38886422 0.03301596
v 0.08286785 0.38196167 0.03806171
v 0.07250089 0.38566633 0.03095074
v 0.07076728 0.38526039 0.03933496
v 0.07163116 0.38685600 0.01998435
v 0.07924577 0.38554485 0.00850645
v 0.08233675 0.38436806 0.01249222
v 0.08746328 0.37719377 0.05477356
v 0.08706134 0.38166349 0.03005681
v 0.08678782 0.38279773 0.01746977
v 0.09627217 0.37997652 0.00782351
v 0.10497100 0.37628299 0.00957000
v 0.10473615 0.37670075 0.00276200
v 0.10728994 0.37435725 0.02285684
v 0.08173983 0.37563393 0.06898341
v 0.05523952 0.38908162 0.03502643
v 0.09802689 0.37399960 0.05229580
v 0.10655733 0.37020488 0.05180178
v 0.08892659 0.38267632 -0.00348166
v 0.11736992 0.34441040 0.10754027
v 0.12069457 0.33539565 0.11891848
v 0.13772800 0.34172151 0.08522000
v 0.11713137 0.35139603 0.09422631
v 0.13037668 0.34149527 0.09740567
v 0.10443265 0.35473007 0.10121493
v 0.12831788 0.35199115 0.07597715
v 0.10222949 0.35801884 0.09598982
v 0.11417657 0.35725806 0.08336788
v 0.10186295 0.35037272 0.11226152
v 0.08253165 0.36409116 0.10040589
v 0.07067558 0.36703238 0.10236268
v 0.08900523 0.35477257 0.11422015
v 0.09377435 0.36101563 0.09751263
v 0.10061537 0.36422371 0.08207197
v 0.08373976 0.36942851 0.08631067
v 0.08687270 0.36920078 0.08369108
v 0.12757671 0.35344312 0.07222500
v 0.11460517 0.36198891 0.06875352
v 0.11380955 0.36660773 0.05233794
v 0.12178844 0.36241009 0.05270435
v 0.13704625 0.34819475 0.06911600
v 0.13665950 0.35303300 0.05297200
v 0.09954370 0.37210211 0.05732417
v 0.13031305 0.35741971 0.05223607
v 0.13532150 0.35811701 0.03292916
v 0.13699308 0.35632538 0.03667797
v 0.13749000 0.35534400 0.03989600
v 0.10822588 0.37217547 0.03764389
v 0.11305680 0.37104887 0.02834119
v 0.11712645 0.36990264 0.01883658
v 0.12032873 0.36923717 -0.00218245
v 0.12937085 0.36404165 0.00428656
v 0.12722633 0.36474919 0.01574853
v 0.14119271 0.35641116 0.01140467
v 0.13446339 0.36123030 -0.00374891
v 0.14505990 0.35407342 0.00462831
v 0.15126450 0.34868824 0.01473400
v 0.12638234 0.36596788 -0.01170743
v 0.10648841 0.37594412 -0.01107022
v 0.10942559 0.37503856 -0.00963832
v 0.10542772 0.37451772 -0.03973032
v 0.09831211 0.37821814 -0.03169730
v 0.12235139 0.36547093 -0.04460616
v 0.12856177 0.35953548 -0.05895119
v 0.11252279 0.36627470 -0.06829446
v 0.10528952 0.37297109 -0.05087939
v 0.10508941 0.37019727 -0.06522243
v 0.09504884 0.37455486 -0.06427807
v 0.09984031 0.37548721 -0.04850084
v 0.12345992 0.35481139 -0.08762937
v 0.13113238 0.35355381 -0.07708849
v 0.13649658 0.35215849 -0.06958200
v 0.11955232 0.36265247 -0.06757378
v 0.13844424 0.35406392 -0.05624636
v 0.11994387 0.36720796 -0.04170057
v 0.12022774 0.36860922 -0.02588268
v 0.12874661 0.36316720 -0.03452547
v 0.12490859 0.36658353 0.00671582
v 0.12473414 0.36476993 0.02888340
v 0.09546762 0.38022171 -0.01534970
v 0.14631200 0.35116300 0.02723200
v 0.14029034 0.35715159 -0.02043208
v 0.13109777 0.36124968 -0.03916123
v 0.14211181 0.35444756 -0.03757834
v 0.08862942 0.38234891 -0.01854774
v 0.08956902 0.38120868 -0.03071468
v 0.08458889 0.38410545 -0.00354113
v 0.14743872 0.35255900 -0.01326914
v 0.14892922 0.35111526 0.00659635
v 0.14407319 0.35301984 -0.04002561
v 0.15813142 0.34135086 -0.04411425
v 0.15174296 0.34605851 -0.04699420
v 0.15585936 0.34558794 -0.02213737
v 0.15462287 0.34693995 0.00086394
v 0.15420240 0.34732452 -0.00635475
v 0.15902700 0.34326100 -0.00988500
v 0.16977315 0.30551031 -0.11667784
v 0.16341690 0.32334169 -0.09368824
v 0.16471275 0.32100270 -0.09644322
v 0.17361430 0.31525206 -0.08825351
v 0.16891476 0.31077304 -0.10902651
v 0.17357941 0.29873300 -0.12019124
v 0.18111514 0.30000610 -0.10251245
v 0.18953601 0.29139000 -0.09704100
v 0.18168729 0.30584585 -0.08798395
v 0.18519946 0.29788075 -0.09592160
v 0.18574591 0.28748443 -0.11349565
v 0.17916035 0.29396581 -0.11703014
v 0.18348015 0.27406287 -0.13626528
v 0.18354255 0.28198547 -0.12614987
v 0.15958655 0.31686728 -0.11502795
v 0.16062798 0.31326259 -0.11921733
v 0.15359533 0.31446449 -0.12839821
v 0.19361673 0.27969835 -0.10779655
v 0.17605127 0.27031317 -0.15149226
v 0.18507556 0.26102697 -0.14718522
v 0.17751336 0.25475313 -0.16322211
v 0.18453506 0.24969567 -0.15774203
v 0.18704321 0.24268036 -0.15963416
v 0.17311228 0.28560274 -0.13916017
v 0.19350037 0.26967530 -0.12228340
v 0.19319801 0.25868649 -0.13569591
v 0.16794984 0.28914060 -0.14251533
v 0.15844084 0.29306213 -0.15045529
v 0.16346040 0.28339181 -0.15501584
v 0.16634124 0.29933531 -0.13189817
v 0.20002501 0.26975900 -0.10633400
v 0.19619200 0.28030300 -0.09922800
v 0.17362063 0.26771685 -0.15753408
v 0.15156928 0.30794181 -0.14060557
v 0.15707513 0.30042279 -0.14338770
v 0.14834311 0.30263087 -0.15110165
v 0.20353775 0.26074725 -0.10971125
v 0.16808467 0.26543205 -0.16601000
v 0.15123767 0.32234256 -0.11831627
v 0.15163206 0.28612503 -0.16527660
v 0.15860708 0.27694499 -0.16636299
v 0.16110897 0.26177909 -0.17626254
v 0.13915885 0.30243870 -0.16033828
v 0.14213050 0.30743821 -0.15182251
v 0.15172949 0.27712841 -0.17302106
v 0.17402281 0.25194452 -0.16974941
v 0.16806773 0.24647273 -0.17962284
v 0.14011768 0.31774244 -0.14039020
v 0.14087772 0.32243099 -0.13232899
v 0.13790485 0.33132802 -0.12105832
v 0.15706270 0.32512681 -0.10303665
v 0.13546693 0.31146448 -0.15370900
v 0.15267647 0.33051782 -0.09921640
v 0.14963131 0.32794841 -0.11009938
v 0.12819667 0.32563365 -0.14163561
v 0.16627993 0.32401648 -0.08494169
v 0.15503860 0.33373106 -0.08597824
v 0.16988747 0.32488975 -0.07103539
v 0.15661311 0.33735760 -0.06972715
v 0.16658629 0.32589748 -0.07809077
v 0.14881126 0.33812156 -0.08716142
v 0.13903945 0.34323591 -0.09307577
v 0.14610905 0.33544211 -0.09992133
v 0.17488450 0.32193700 -0.06161950
v 0.17847525 0.31460775 -0.07383750
v 0.16770772 0.33150757 -0.05105254
v 0.16262687 0.33434612 -0.06070260
v 0.15208788 0.34303798 -0.06160571
v 0.13110704 0.35068450 -0.08621611
v 0.14464823 0.34465105 -0.07672259
v 0.16760300 0.33396700 -0.03413200
v 0.16266085 0.33918912 -0.02965724
v 0.16497149 0.33713350 -0.02640750
v 0.16197400 0.34049499 -0.01589300
v 0.16995950 0.33081799 -0.04121300
f 15 14 16
f 16 14 63
f 14 54 63
f 18 16 63
f 63 54 55
f 18 63 17
f 54 64 55
f 63 55 56
f 17 63 60
f 64 53 55
f 55 52 56
f 63 56 60
f 60 51 17
f 55 53 52
f 56 52 40
f 60 56 51
f 51 41 17
f 53 66 52
f 52 45 40
f 51 56 40
f 17 41 42
f 51 40 41
f 21 52 66
f 53 59 66
f 40 45 44
f 52 39 45
f 17 42 13
f 42 41 40
f 39 52 21
f 66 20 21
f 65 66 59
f 43 40 44
f 45 50 44
f 39 21 45
f 13 42 12
f 42 40 43
f 20 22 21
f 66 38 20
f 67 66 65
f 44 46 43
f 44 50 48
f 45 48 50
f 45 21 48
f 12 42 43
f 20 38 22
f 21 22 30
f 66 28 38
f 67 68 66
f 43 46 47
f 44 48 46
f 21 30 48
f 43 47 12
f 22 38 25
f 30 22 31
f 28 26 38
f 66 79 28
f 68 79 66
f 91 68 67
f 47 46 34
f 46 48 49
f 30 31 48
f 12 47 11
f 25 24 22
f 38 27 25
f 22 23 31
f 28 77 26
f 38 26 27
f 129 28 79
f 91 79 68
f 46 49 34
f 47 34 33
f 48 35 49
f 48 31 36
f 47 33 11
f 22 24 23
f 25 29 24
f 25 27 29
f 31 23 36
f 77 78 26
f 129 77 28
f 27 26 29
f 91 129 79
f 49 35 34
f 34 35 33
f 48 36 35
f 33 10 11
f 23 24 37
f 24 29 37
f 36 23 62
f 78 70 26
f 77 70 78
f 129 72 77
f 26 70 29
f 91 141 129
f 33 35 32
f 35 36 32
f 33 32 10
f 37 69 23
f 37 29 69
f 23 92 62
f 36 62 57
f 77 72 70
f 73 72 129
f 29 70 61
f 141 127 129
f 32 36 58
f 32 58 10
f 69 92 23
f 29 85 69
f 62 92 57
f 57 98 36
f 72 71 70
f 73 90 72
f 127 73 129
f 61 81 29
f 61 70 81
f 140 127 141
f 58 36 100
f 58 100 10
f 69 87 92
f 29 81 85
f 85 87 69
f 57 92 98
f 36 98 99
f 70 71 80
f 72 90 71
f 73 74 90
f 127 237 73
f 70 80 81
f 142 127 140
f 100 36 113
f 10 100 114
f 87 86 92
f 81 94 85
f 85 102 87
f 98 92 102
f 99 101 36
f 99 98 106
f 71 84 80
f 71 90 84
f 73 75 74
f 75 90 74
f 73 237 75
f 124 237 127
f 81 80 84
f 128 127 142
f 101 113 36
f 100 113 114
f 10 114 9
f 86 87 102
f 86 102 92
f 81 83 94
f 85 94 102
f 98 102 106
f 99 106 101
f 90 103 84
f 75 439 90
f 237 122 75
f 128 124 127
f 123 237 124
f 81 84 83
f 101 112 113
f 114 113 116
f 114 116 9
f 82 94 83
f 102 94 93
f 102 105 106
f 101 106 112
f 84 103 82
f 90 88 103
f 89 439 75
f 90 439 88
f 75 122 76
f 123 122 237
f 84 82 83
f 113 112 116
f 116 369 9
f 82 104 94
f 94 95 93
f 93 97 102
f 102 115 105
f 106 105 111
f 106 107 112
f 82 103 431
f 88 431 103
f 76 89 75
f 89 235 439
f 88 439 431
f 122 230 76
f 123 121 122
f 116 112 107
f 369 370 9
f 116 107 369
f 82 431 104
f 104 96 94
f 93 95 115
f 94 96 95
f 97 93 115
f 102 97 115
f 105 115 110
f 105 109 111
f 106 111 107
f 230 89 76
f 89 231 235
f 235 428 439
f 431 439 426
f 187 230 122
f 121 117 122
f 370 364 9
f 369 107 370
f 104 431 427
f 104 427 96
f 96 115 95
f 105 110 109
f 115 436 110
f 108 111 109
f 107 111 108
f 230 189 89
f 89 190 231
f 231 390 235
f 428 235 429
f 439 428 426
f 431 426 427
f 122 188 187
f 187 189 230
f 117 186 122
f 9 364 8
f 370 367 364
f 370 107 368
f 427 424 96
f 96 432 115
f 110 371 109
f 110 436 437
f 432 436 115
f 108 109 366
f 107 108 368
f 189 190 89
f 190 189 231
f 231 438 390
f 235 390 430
f 235 398 429
f 428 429 426
f 427 426 424
f 186 188 122
f 187 188 192
f 192 189 187
f 364 361 8
f 364 367 361
f 368 367 370
f 96 424 432
f 109 371 366
f 110 437 371
f 436 365 437
f 432 435 436
f 108 366 367
f 108 367 368
f 189 191 231
f 231 191 438
f 438 179 390
f 430 398 235
f 390 389 430
f 429 398 426
f 426 411 424
f 188 196 192
f 192 191 189
f 361 7 8
f 366 361 367
f 424 423 432
f 371 351 366
f 437 365 371
f 436 435 365
f 432 423 435
f 438 191 179
f 178 390 179
f 430 389 398
f 390 388 389
f 426 398 412
f 424 411 425
f 412 411 426
f 195 196 188
f 195 192 196
f 192 194 191
f 7 361 1
f 366 362 361
f 424 425 423
f 351 362 366
f 371 363 351
f 371 365 363
f 365 435 425
f 423 425 435
f 191 178 179
f 178 180 390
f 398 389 391
f 389 388 392
f 390 180 388
f 398 391 412
f 425 411 409
f 412 409 411
f 117 195 188
f 195 193 192
f 194 173 191
f 193 194 192
f 361 359 1
f 362 357 361
f 350 362 351
f 363 352 351
f 363 365 352
f 365 425 433
f 191 174 178
f 174 180 178
f 389 392 391
f 392 388 395
f 180 174 388
f 412 391 409
f 425 409 416
f 117 119 195
f 195 194 193
f 173 172 191
f 181 173 194
f 359 341 1
f 357 359 361
f 358 357 362
f 352 350 351
f 350 353 362
f 365 350 352
f 365 433 350
f 425 416 433
f 177 174 191
f 392 393 391
f 388 399 395
f 395 393 392
f 174 387 388
f 391 393 409
f 409 410 416
f 118 119 117
f 183 195 119
f 183 194 195
f 173 177 172
f 172 177 191
f 181 144 173
f 182 181 194
f 334 1 341
f 359 336 341
f 357 348 359
f 342 357 358
f 342 358 362
f 350 434 353
f 353 342 362
f 434 350 433
f 433 416 356
f 175 174 177
f 387 399 388
f 399 397 395
f 393 395 394
f 174 551 387
f 393 394 409
f 409 394 410
f 410 404 416
f 120 119 118
f 184 183 119
f 182 194 183
f 173 144 177
f 181 143 144
f 182 143 181
f 334 2 1
f 334 341 335
f 336 337 341
f 348 336 359
f 357 347 348
f 357 342 347
f 434 342 353
f 433 355 434
f 344 356 416
f 433 356 355
f 175 176 174
f 177 144 175
f 386 399 387
f 397 400 395
f 572 397 399
f 394 395 396
f 176 551 174
f 551 386 387
f 394 404 410
f 416 404 405
f 120 184 119
f 185 183 184
f 198 182 183
f 143 145 144
f 148 143 182
f 334 3 2
f 330 334 335
f 337 335 341
f 336 339 337
f 348 343 336
f 342 348 347
f 349 342 434
f 355 349 434
f 356 344 355
f 405 344 416
f 552 176 175
f 552 175 144
f 399 386 572
f 400 401 395
f 402 400 397
f 397 572 402
f 394 396 404
f 401 396 395
f 176 552 551
f 552 386 551
f 405 404 344
f 236 184 120
f 185 198 183
f 236 185 184
f 148 182 198
f 146 145 143
f 145 544 144
f 148 146 143
f 329 3 334
f 334 330 329
f 330 335 332
f 337 338 335
f 343 339 336
f 343 337 339
f 343 348 342
f 349 355 342
f 344 342 355
f 144 544 552
f 562 572 386
f 402 401 400
f 572 417 402
f 396 413 404
f 396 401 403
f 550 386 552
f 404 407 344
f 125 236 120
f 197 198 185
f 236 199 185
f 198 168 148
f 146 545 145
f 545 544 145
f 147 146 148
f 3 329 5
f 330 333 329
f 333 330 332
f 340 332 335
f 338 340 335
f 343 338 337
f 342 344 343
f 544 546 552
f 561 562 386
f 561 572 562
f 401 402 418
f 417 418 402
f 572 570 417
f 415 413 396
f 404 413 406
f 403 415 396
f 418 403 401
f 550 553 386
f 549 550 552
f 344 407 354
f 407 404 406
f 125 126 236
f 199 197 185
f 197 168 198
f 133 199 236
f 197 148 168
f 544 545 146
f 147 171 146
f 148 149 147
f 329 4 5
f 331 329 333
f 375 333 332
f 340 375 332
f 340 338 346
f 345 338 343
f 344 345 343
f 547 546 544
f 546 549 552
f 553 561 386
f 561 553 572
f 417 421 418
f 417 570 420
f 572 465 570
f 415 422 413
f 406 413 407
f 418 415 403
f 549 553 550
f 344 354 345
f 407 408 354
f 126 125 120
f 126 133 236
f 199 166 197
f 228 199 133
f 197 149 148
f 146 171 544
f 149 171 147
f 373 4 329
f 331 373 329
f 380 331 333
f 380 333 375
f 376 375 340
f 346 338 345
f 346 384 340
f 544 554 547
f 546 547 549
f 566 572 553
f 417 419 421
f 421 385 418
f 417 420 419
f 570 464 420
f 571 570 465
f 566 465 572
f 413 422 414
f 415 384 422
f 407 413 408
f 418 383 415
f 549 563 553
f 408 345 354
f 126 120 130
f 131 133 126
f 166 150 197
f 200 166 199
f 204 228 133
f 228 200 199
f 197 150 149
f 171 548 544
f 149 548 171
f 373 372 4
f 373 331 372
f 380 374 331
f 376 380 375
f 384 376 340
f 408 346 345
f 346 414 384
f 548 554 544
f 554 549 547
f 563 566 553
f 419 526 421
f 385 383 418
f 385 421 383
f 464 419 420
f 571 464 570
f 465 464 571
f 466 465 566
f 413 414 408
f 422 384 414
f 415 383 384
f 548 563 549
f 130 131 126
f 131 204 133
f 167 150 166
f 167 166 200
f 229 228 204
f 202 200 228
f 150 169 149
f 149 251 548
f 372 446 4
f 331 374 372
f 377 374 380
f 384 380 376
f 360 346 408
f 360 414 346
f 554 548 549
f 566 563 567
f 463 526 419
f 526 527 421
f 532 383 421
f 525 419 464
f 466 464 465
f 566 569 466
f 408 414 360
f 383 381 384
f 556 563 548
f 132 131 130
f 204 131 205
f 167 153 150
f 200 154 167
f 203 229 204
f 228 229 202
f 202 201 200
f 151 149 169
f 150 151 169
f 149 253 251
f 251 555 548
f 4 446 6
f 374 446 372
f 377 378 374
f 379 377 380
f 381 380 384
f 568 567 563
f 567 569 566
f 419 462 463
f 463 527 526
f 421 527 532
f 383 532 533
f 525 491 419
f 464 524 525
f 466 524 464
f 568 466 569
f 383 533 381
f 555 556 548
f 556 555 563
f 205 132 130
f 205 131 132
f 205 239 204
f 153 151 150
f 154 153 167
f 201 154 200
f 239 203 204
f 206 229 203
f 229 201 202
f 151 170 149
f 170 253 149
f 253 555 251
f 446 447 6
f 374 378 446
f 378 377 379
f 382 379 380
f 381 382 380
f 557 568 563
f 568 569 567
f 491 462 419
f 527 463 462
f 527 533 532
f 499 491 525
f 524 490 525
f 568 524 466
f 533 535 381
f 555 557 563
f 205 130 134
f 139 239 205
f 153 152 151
f 155 153 154
f 201 244 154
f 239 206 203
f 207 229 206
f 244 201 229
f 151 152 170
f 247 253 170
f 253 252 555
f 447 448 6
f 440 447 446
f 445 446 378
f 378 379 382
f 381 378 382
f 557 558 568
f 491 529 462
f 462 529 527
f 527 535 533
f 499 492 491
f 490 499 525
f 489 490 524
f 568 468 524
f 535 534 381
f 555 558 557
f 134 139 205
f 238 239 139
f 153 160 152
f 160 153 155
f 244 155 154
f 240 206 239
f 208 207 206
f 207 244 229
f 152 164 170
f 170 248 247
f 253 247 252
f 247 555 252
f 443 448 447
f 446 441 440
f 441 447 440
f 378 444 445
f 445 442 446
f 381 538 378
f 559 568 558
f 491 461 529
f 529 528 527
f 527 528 535
f 492 461 491
f 499 498 492
f 488 499 490
f 489 488 490
f 467 489 524
f 467 524 468
f 471 468 568
f 534 538 381
f 535 531 534
f 555 559 558
f 134 138 139
f 240 239 238
f 160 161 152
f 156 160 155
f 155 244 158
f 220 206 240
f 220 208 206
f 209 207 208
f 207 213 244
f 161 164 152
f 164 245 170
f 170 245 248
f 245 247 248
f 564 555 247
f 441 443 447
f 442 441 446
f 536 444 378
f 444 442 445
f 538 537 378
f 471 568 559
f 529 461 530
f 529 530 528
f 535 528 531
f 496 461 492
f 492 498 496
f 501 498 499
f 488 501 499
f 467 488 489
f 471 467 468
f 531 538 534
f 560 559 555
f 136 138 134
f 164 161 160
f 156 155 158
f 156 233 160
f 158 244 213
f 243 208 220
f 209 211 207
f 209 208 243
f 211 213 207
f 162 245 164
f 245 250 247
f 247 249 564
f 564 565 555
f 443 441 450
f 441 442 444
f 537 536 378
f 444 536 449
f 538 531 537
f 473 471 559
f 461 455 530
f 530 455 528
f 452 531 528
f 496 493 461
f 508 496 498
f 505 498 501
f 488 486 501
f 467 485 488
f 471 469 467
f 555 565 560
f 565 559 560
f 136 134 135
f 669 138 136
f 165 164 160
f 158 159 156
f 234 233 156
f 233 165 160
f 214 158 213
f 221 211 209
f 243 210 209
f 211 212 213
f 164 163 162
f 245 162 163
f 246 250 245
f 250 249 247
f 478 564 249
f 564 473 565
f 441 449 450
f 449 441 444
f 531 536 537
f 451 449 536
f 471 473 470
f 473 559 472
f 460 455 461
f 455 452 528
f 452 455 531
f 493 460 461
f 493 496 456
f 508 495 496
f 497 508 498
f 505 497 498
f 500 505 501
f 487 486 488
f 486 500 501
f 470 485 467
f 485 487 488
f 469 470 467
f 471 470 469
f 565 472 559
f 576 669 136
f 220 138 669
f 165 163 164
f 159 234 156
f 157 159 158
f 234 163 233
f 163 165 233
f 214 157 158
f 212 214 213
f 221 209 210
f 221 212 211
f 163 246 245
f 246 255 250
f 478 249 250
f 478 260 564
f 564 476 473
f 565 473 472
f 539 450 449
f 531 451 536
f 451 539 449
f 473 474 470
f 460 456 455
f 455 453 531
f 460 493 456
f 496 495 456
f 507 508 497
f 505 506 497
f 502 505 500
f 485 486 487
f 486 503 500
f 485 470 486
f 576 136 137
f 670 669 576
f 666 220 669
f 293 234 159
f 157 241 159
f 293 163 234
f 241 157 214
f 212 215 214
f 219 221 210
f 221 215 212
f 163 258 246
f 254 255 246
f 255 254 250
f 250 254 478
f 254 260 478
f 564 260 477
f 473 476 474
f 477 476 564
f 531 539 451
f 484 470 474
f 455 456 454
f 455 454 453
f 453 454 531
f 495 494 456
f 506 507 497
f 509 508 507
f 507 506 505
f 500 503 502
f 509 505 502
f 510 503 486
f 470 484 486
f 670 576 663
f 662 669 670
f 671 220 666
f 669 668 666
f 159 241 293
f 293 285 163
f 215 241 214
f 219 218 221
f 226 215 221
f 285 258 163
f 258 256 246
f 256 254 246
f 256 260 254
f 260 269 477
f 476 475 474
f 480 476 477
f 540 539 531
f 474 481 484
f 457 454 456
f 454 458 531
f 494 459 456
f 509 507 505
f 503 504 502
f 504 509 502
f 484 510 486
f 510 504 503
f 687 663 576
f 662 670 663
f 667 669 662
f 223 220 671
f 671 666 674
f 666 668 667
f 668 669 667
f 241 285 293
f 226 241 215
f 222 218 219
f 218 222 221
f 217 226 221
f 271 258 285
f 271 256 258
f 257 260 256
f 259 269 260
f 480 477 269
f 475 481 474
f 480 475 476
f 531 458 540
f 481 511 484
f 454 457 458
f 456 459 457
f 542 509 504
f 484 504 510
f 573 687 576
f 663 687 681
f 661 662 663
f 661 667 662
f 759 223 671
f 665 674 666
f 672 671 674
f 676 666 667
f 286 285 241
f 226 232 241
f 222 217 221
f 222 226 217
f 285 280 271
f 271 261 256
f 256 259 257
f 257 259 260
f 259 263 269
f 479 480 269
f 475 480 481
f 481 512 511
f 511 512 484
f 504 515 542
f 512 504 484
f 660 663 681
f 686 681 687
f 661 663 660
f 661 676 667
f 759 225 223
f 766 759 671
f 665 666 664
f 672 674 665
f 672 766 671
f 664 666 676
f 287 286 241
f 286 287 285
f 232 242 241
f 280 262 271
f 289 280 285
f 261 263 256
f 271 262 261
f 263 259 256
f 263 270 269
f 519 479 269
f 479 481 480
f 481 513 512
f 513 515 504
f 512 513 504
f 614 660 681
f 612 681 686
f 661 660 614
f 677 676 661
f 759 747 225
f 672 759 766
f 684 665 664
f 673 672 665
f 678 664 676
f 242 287 241
f 287 289 285
f 280 288 262
f 289 288 280
f 266 263 261
f 262 266 261
f 263 266 270
f 519 269 270
f 270 479 519
f 479 482 481
f 481 483 513
f 513 543 515
f 612 614 681
f 612 686 620
f 661 614 615
f 659 677 661
f 677 678 676
f 747 227 225
f 760 747 759
f 759 672 767
f 664 678 684
f 675 665 684
f 673 665 675
f 767 672 673
f 242 313 287
f 287 290 289
f 288 272 262
f 290 288 289
f 262 267 266
f 266 264 270
f 479 270 518
f 518 482 479
f 482 483 481
f 483 514 513
f 514 543 513
f 613 614 612
f 612 620 575
f 620 686 574
f 615 614 613
f 651 661 615
f 652 659 661
f 659 678 677
f 747 224 227
f 751 747 760
f 758 760 759
f 758 759 767
f 684 678 683
f 685 675 684
f 767 673 675
f 315 287 313
f 314 290 287
f 262 272 267
f 288 291 272
f 291 288 290
f 267 268 266
f 265 264 266
f 264 274 270
f 274 518 270
f 518 517 482
f 482 516 483
f 483 516 514
f 541 543 514
f 615 613 612
f 611 612 575
f 575 620 688
f 620 574 688
f 686 573 574
f 650 651 615
f 651 679 661
f 679 659 652
f 679 652 661
f 659 683 678
f 224 747 752
f 736 747 751
f 750 751 760
f 758 754 760
f 754 758 767
f 683 685 684
f 691 675 685
f 765 767 675
f 315 314 287
f 314 291 290
f 272 281 267
f 291 284 272
f 268 265 266
f 267 281 268
f 273 264 265
f 264 275 274
f 518 274 275
f 517 516 482
f 521 517 518
f 541 514 516
f 615 612 610
f 575 577 611
f 612 611 610
f 686 687 573
f 650 615 649
f 654 651 650
f 654 679 651
f 656 659 679
f 659 656 683
f 216 224 752
f 747 745 752
f 736 714 747
f 751 712 736
f 750 748 751
f 754 750 760
f 754 767 756
f 689 685 683
f 693 675 691
f 689 691 685
f 765 675 693
f 765 756 767
f 314 292 291
f 281 272 284
f 295 284 291
f 273 265 268
f 279 268 281
f 273 277 264
f 264 277 275
f 275 523 518
f 517 521 516
f 518 523 521
f 521 541 516
f 649 615 610
f 611 577 608
f 603 610 611
f 649 680 650
f 680 654 650
f 653 679 654
f 653 656 679
f 657 683 656
f 752 315 216
f 746 745 747
f 745 749 752
f 712 714 736
f 747 714 746
f 748 712 751
f 750 700 748
f 700 750 754
f 756 753 754
f 657 689 683
f 692 693 691
f 689 694 691
f 692 765 693
f 764 756 765
f 292 295 291
f 305 281 284
f 311 284 295
f 268 276 273
f 279 276 268
f 305 279 281
f 276 277 273
f 277 283 275
f 275 283 523
f 521 523 522
f 521 522 541
f 618 649 610
f 577 607 608
f 611 608 580
f 618 610 603
f 603 611 580
f 646 680 649
f 646 654 680
f 654 656 653
f 655 657 656
f 749 315 752
f 714 745 746
f 745 741 749
f 713 714 712
f 748 702 712
f 700 702 748
f 699 700 754
f 699 754 753
f 757 753 756
f 689 657 690
f 692 691 694
f 689 696 694
f 764 765 692
f 764 755 756
f 292 302 295
f 311 305 284
f 302 311 295
f 279 296 276
f 305 296 279
f 276 283 277
f 306 523 283
f 523 520 522
f 644 649 618
f 608 607 580
f 618 603 609
f 603 580 606
f 641 646 649
f 655 654 646
f 655 656 654
f 658 657 655
f 315 749 304
f 745 714 731
f 733 741 745
f 741 740 749
f 712 702 713
f 698 714 713
f 701 702 700
f 753 700 699
f 757 755 753
f 755 757 756
f 658 690 657
f 695 689 690
f 694 769 692
f 695 696 689
f 696 695 694
f 692 763 764
f 763 755 764
f 311 309 305
f 316 311 302
f 296 282 276
f 305 294 296
f 276 282 283
f 283 278 306
f 306 307 523
f 307 520 523
f 601 644 618
f 619 649 644
f 601 609 603
f 618 609 601
f 603 606 604
f 647 646 641
f 649 640 641
f 646 658 655
f 749 740 304
f 727 731 714
f 731 733 745
f 741 733 740
f 702 698 713
f 698 727 714
f 753 701 700
f 701 704 702
f 701 753 755
f 690 658 695
f 769 763 692
f 697 769 694
f 695 697 694
f 763 772 755
f 305 309 294
f 311 320 309
f 316 320 311
f 296 297 282
f 294 297 296
f 283 282 300
f 300 278 283
f 278 301 306
f 306 308 307
f 639 644 601
f 640 619 644
f 640 649 619
f 601 603 605
f 603 604 605
f 604 606 605
f 645 647 641
f 682 646 647
f 641 640 639
f 682 658 646
f 737 304 740
f 727 732 731
f 732 733 731
f 733 737 740
f 702 704 698
f 703 727 698
f 701 706 704
f 762 701 755
f 697 695 658
f 772 763 769
f 697 771 769
f 772 761 755
f 320 294 309
f 316 322 320
f 297 300 282
f 294 298 297
f 300 301 278
f 301 308 306
f 635 639 601
f 639 640 644
f 601 605 600
f 606 587 605
f 639 645 641
f 643 647 645
f 682 647 648
f 737 303 304
f 727 724 732
f 725 733 732
f 733 726 737
f 709 698 704
f 709 703 698
f 709 727 703
f 706 701 762
f 707 704 706
f 761 762 755
f 768 772 769
f 771 770 769
f 320 310 294
f 322 321 320
f 297 301 300
f 294 299 298
f 299 297 298
f 301 319 308
f 637 635 601
f 629 639 635
f 616 601 600
f 600 605 596
f 605 587 583
f 606 580 587
f 638 645 639
f 643 645 627
f 648 647 643
f 737 742 303
f 727 721 724
f 732 724 725
f 725 726 733
f 730 737 726
f 708 709 704
f 709 711 727
f 762 705 706
f 705 704 707
f 705 707 706
f 768 769 770
f 310 299 294
f 320 299 310
f 321 326 320
f 297 318 301
f 297 299 318
f 318 319 301
f 616 637 601
f 634 635 637
f 635 624 629
f 627 639 629
f 616 600 599
f 600 596 594
f 605 602 596
f 605 583 602
f 578 587 580
f 627 638 639
f 638 627 645
f 642 643 627
f 742 312 303
f 737 738 742
f 721 726 724
f 727 711 721
f 725 724 726
f 716 730 726
f 730 735 737
f 704 715 708
f 708 711 709
f 705 715 704
f 326 299 320
f 324 326 321
f 327 318 299
f 327 319 318
f 637 616 599
f 635 634 628
f 634 637 636
f 624 627 629
f 626 624 635
f 599 600 598
f 595 594 596
f 600 594 590
f 596 602 617
f 602 583 584
f 578 580 607
f 583 587 578
f 623 642 627
f 739 312 742
f 737 735 738
f 738 739 742
f 721 710 726
f 721 711 710
f 710 716 726
f 717 730 716
f 730 743 735
f 715 711 708
f 729 715 705
f 325 299 326
f 324 325 326
f 299 317 327
f 637 599 636
f 628 634 626
f 626 635 628
f 634 636 631
f 627 624 625
f 624 626 630
f 599 598 590
f 598 600 590
f 593 594 595
f 596 586 595
f 594 593 590
f 596 617 584
f 602 584 617
f 579 578 607
f 585 583 578
f 623 627 625
f 739 322 312
f 738 735 739
f 710 711 722
f 710 717 716
f 717 719 730
f 718 743 730
f 743 739 735
f 715 722 711
f 728 715 729
f 299 325 323
f 324 328 325
f 299 323 317
f 317 323 327
f 599 592 636
f 626 634 630
f 630 634 631
f 636 591 631
f 625 624 621
f 621 624 630
f 592 599 590
f 595 588 593
f 596 584 586
f 590 593 589
f 579 581 578
f 579 607 577
f 585 578 582
f 584 583 585
f 625 19 623
f 739 744 322
f 722 723 710
f 723 717 710
f 720 719 717
f 719 718 730
f 718 719 743
f 743 744 739
f 715 734 722
f 728 734 715
f 325 328 323
f 328 327 323
f 591 636 592
f 633 630 631
f 632 631 591
f 19 625 621
f 630 622 621
f 592 590 597

