v -0.0532055 0.396558 -0.00612234
v -0.0545859 0.396166 -0.0121835
v -0.0502829 0.400507 -0.0134302
v -0.0515941 0.400136 -0.019425
v -0.0522261 0.399666 -0.025387
v -0.0525185 0.398613 -0.0362162
v -0.0512449 0.398357 -0.0425462
v -0.0564755 0.393997 -0.0372317
v -0.0551662 0.39365 -0.0435402
v -0.0534303 0.393407 -0.0502236
v -0.0473293 0.398054 -0.0546351
v -0.0509594 0.393689 -0.0571109
v -0.0439628 0.398329 -0.0605252
v -0.0474906 0.393732 -0.0633761
v -0.041038 0.398906 -0.0657233
v -0.0410889 0.409999 -0.058343
v -0.0417981 0.40377 -0.058538
v -0.0392083 0.404419 -0.0638995
v -0.0384537 0.410638 -0.0636836
v -0.0339586 0.417248 -0.0682356
v -0.0350813 0.411125 -0.0687166
v -0.0360655 0.405018 -0.069126
v -0.0321982 0.405619 -0.0740698
v -0.0324729 0.39977 -0.0741961
v -0.0281305 0.406176 -0.0786905
v -0.0282992 0.400575 -0.0788514
v -0.0317418 0.411627 -0.0739062
v -0.0281601 0.423267 -0.0716076
v -0.0299152 0.417463 -0.0727703
v -0.0323826 0.423176 -0.0672986
v -0.0355803 0.422897 -0.0624419
v -0.0333502 0.428403 -0.0604245
v -0.0303312 0.429027 -0.0656651
v -0.0387053 0.42737 -0.0494988
v -0.0360376 0.427884 -0.0549681
v -0.040439 0.421938 -0.0517772
v -0.0438964 0.415358 -0.0469897
v -0.0417398 0.415798 -0.0523045
v -0.0430463 0.409445 -0.0527214
v -0.0383218 0.422482 -0.0572796
v -0.0474472 0.40289 -0.0414477
v -0.0451445 0.40912 -0.0473187
v -0.046001 0.402949 -0.0473742
v -0.0461909 0.409132 -0.0413977
v -0.0455269 0.41541 -0.0354084
v -0.0449943 0.415459 -0.0412504
v -0.0424332 0.421275 -0.0460437
v -0.046428 0.409879 -0.0285041
v -0.0467519 0.409257 -0.0353163
v -0.0470139 0.404452 -0.0209724
v -0.0473079 0.403875 -0.0279335
v -0.0476019 0.403298 -0.0348946
v -0.0447531 0.410761 -0.0155289
v -0.0460391 0.410613 -0.0218451
v -0.0455707 0.415942 -0.0290045
v -0.026225 0.428939 -0.0701885
v -0.0373948 0.416818 -0.0633204
v -0.0443771 0.403121 -0.053171
v -0.0397072 0.416226 -0.0578028
v -0.0437907 0.394072 -0.0689449
v -0.0389951 0.394748 -0.0736192
v -0.0366516 0.399155 -0.0697802
v -0.0363407 0.390533 -0.0811164
v -0.0341928 0.395066 -0.0773504
v -0.0293445 0.39543 -0.0808431
v -0.0311383 0.390673 -0.0842605
v -0.0241282 0.395901 -0.0839844
v -0.0189118 0.396371 -0.0871256
v -0.0259137 0.391164 -0.0874588
v -0.0275921 0.386503 -0.0912064
v -0.02057 0.391649 -0.0907571
v -0.0221529 0.386894 -0.0943838
v -0.0328524 0.385941 -0.0877879
v -0.0375719 0.385025 -0.0834217
v -0.0173134 0.381396 -0.0992852
v -0.0165305 0.387106 -0.0971747
v -0.0105883 0.38707 -0.0994018
v -0.00913327 0.391724 -0.095664
v -0.00457522 0.386625 -0.10104
v 0.00150114 0.385976 -0.102356
v -0.00553608 0.380801 -0.102773
v 0.000451375 0.380164 -0.104209
v 0.00868667 0.390011 -0.0999459
v 0.00769255 0.385267 -0.103457
v 0.0141547 0.384485 -0.104056
v 0.0150991 0.389204 -0.100445
v 0.0222841 0.393015 -0.0965977
v 0.0214891 0.388375 -0.100473
v 0.027859 0.387557 -0.0999666
v 0.0338822 0.387575 -0.0978906
v 0.0398155 0.387229 -0.0958015
v 0.0405585 0.38196 -0.0984204
v 0.0336081 0.381101 -0.102163
v 0.0206579 0.383608 -0.104143
v 0.0269138 0.382459 -0.103134
v 0.046717 0.382266 -0.0957446
v 0.0462167 0.387651 -0.092364
v 0.0463159 0.393002 -0.0885154
v 0.0518755 0.392695 -0.0851053
v 0.0573454 0.392183 -0.0801799
v 0.056844 0.399291 -0.0813459
v 0.0556294 0.411957 -0.0817778
v 0.0563553 0.405641 -0.0817345
v 0.0539553 0.417851 -0.0808126
v 0.0491496 0.417716 -0.0845845
v 0.048289 0.422598 -0.0824565
v 0.0656867 0.383193 -0.0819505
v 0.0321152 0.42335 -0.0896613
v 0.0373801 0.42338 -0.0876398
v 0.042645 0.42341 -0.0856184
v 0.0383847 0.417471 -0.0903411
v 0.0439463 0.417529 -0.0876688
v 0.0451296 0.41156 -0.0889494
v 0.0398945 0.405384 -0.0921985
v 0.0457556 0.405453 -0.0892778
v 0.0513325 0.405527 -0.0859983
v 0.0460121 0.399161 -0.0888152
v 0.0516444 0.39916 -0.0855412
v 0.0344109 0.399183 -0.0942305
v 0.0286344 0.392933 -0.0952803
v 0.0346501 0.392995 -0.0933568
v 0.040555 0.393103 -0.0912097
v 0.0283147 0.399159 -0.0960106
v 0.0221784 0.399237 -0.0970088
v 0.0158705 0.399983 -0.0973606
v 0.015724 0.405785 -0.0975959
v 0.0214281 0.411655 -0.0962038
v 0.0219856 0.405436 -0.0972112
v 0.0274469 0.411571 -0.0950368
v 0.033938 0.405337 -0.0946479
v 0.0333099 0.411541 -0.0937182
v 0.0280653 0.405322 -0.0961875
v 0.0151411 0.412048 -0.0964353
v 0.0148648 0.417955 -0.094799
v 0.02102 0.417775 -0.0946907
v 0.0149416 0.423626 -0.0924542
v 0.0208284 0.423521 -0.0920988
v -0.00225669 0.427913 -0.0865961
v 0.00354197 0.428244 -0.0877244
v -0.0079046 0.427637 -0.0848784
v -0.0185796 0.42647 -0.0797138
v -0.0134038 0.427343 -0.0826698
v -0.0233287 0.425589 -0.0758888
v -0.0241894 0.419951 -0.0782263
v -0.0250502 0.414314 -0.0805639
v -0.0249581 0.408241 -0.0816783
v -0.0200699 0.408926 -0.0855629
v -0.0196263 0.402632 -0.0862211
v -0.0148854 0.409654 -0.0890708
v -0.00925329 0.410379 -0.0918904
v -0.00331733 0.411052 -0.0938717
v 0.00271107 0.417661 -0.0938892
v -0.00293566 0.422882 -0.0901639
v -0.00332369 0.417065 -0.0924874
v -0.00919396 0.416458 -0.0903202
v 0.00893991 0.423646 -0.092386
v -0.0029398 0.405185 -0.0946518
v 0.00280023 0.41173 -0.0953633
v 0.00320459 0.406128 -0.096185
v 0.00937208 0.406273 -0.0973973
v 0.00367591 0.400913 -0.0961249
v -0.0083538 0.397409 -0.0931111
v -0.013614 0.396837 -0.0900269
v -0.00888046 0.404117 -0.0927122
v -0.00230145 0.398819 -0.0948531
v -0.0142511 0.403395 -0.089448
v -0.0511466 0.396526 -0.000276847
v -0.0234825 0.429828 -0.0715334
v -0.0259732 0.424524 -0.0728231
v -0.020922 0.430785 -0.0740527
v -0.0171333 0.431504 -0.0763082
v -0.0195733 0.420938 -0.0824667
v -0.0200369 0.415087 -0.0842528
v -0.0147829 0.415807 -0.0876618
v -0.0141578 0.421611 -0.0853409
v -0.00866614 0.422262 -0.087963
v 0.00300113 0.423329 -0.0913933
v -0.0471432 0.401083 -0.00150804
v -0.0559252 0.395755 -0.0182581
v 0.0267376 0.423347 -0.0915104
v 0.0269427 0.417645 -0.0938788
v 0.032705 0.417566 -0.0926324
v 0.00882131 0.418 -0.0947166
v 0.00895783 0.412216 -0.0965761
v -0.00216069 0.39605 -0.0942279
v 0.00380932 0.395433 -0.0952543
v 0.00984439 0.400546 -0.0970522
v 0.0393335 0.41145 -0.0917685
v 0.053277 0.422092 -0.0785045
v 0.0504287 0.411778 -0.0855451
v 0.0585313 0.417685 -0.076333
v 0.0600507 0.412196 -0.0773216
v 0.0611559 0.405833 -0.0771703
v 0.0403964 0.3992 -0.0921208
v 0.0517942 0.386811 -0.0893069
v 0.0565735 0.386062 -0.0869383
v 0.0629674 0.389692 -0.077222
v 0.0684318 0.384695 -0.0770769
v -0.048932 0.400924 -0.0073769
v -0.0446048 0.405235 -0.00867253
v -0.0459536 0.404847 -0.0146337
v 0.061338 0.38504 -0.0839759
v 0.0571076 0.380001 -0.0898123
v 0.0621975 0.378611 -0.085931
v 0.0519038 0.381344 -0.0934618
v 0.015856 0.394072 -0.0970781
v 0.0097294 0.394854 -0.0965061
v -0.00313909 0.391223 -0.0972147
v 0.00276006 0.390631 -0.098608
v -0.0150671 0.391916 -0.093562
v -0.0114482 0.38135 -0.101203
v -0.040933 0.389694 -0.0764822
v -0.0454424 0.388858 -0.0714626
v -0.0495006 0.38827 -0.0656455
v -0.052871 0.387941 -0.0590629
v -0.0496193 0.398174 -0.0485784
v -0.0526737 0.399202 -0.0309459
v -0.0565366 0.395131 -0.024461
v -0.0570033 0.394474 -0.0306802
f 167 178 199 1
f 199 3 2 1
f 3 4 179 2
f 199 200 201 3
f 5 218 179 4
f 217 219 218 5
f 7 9 8 6
f 8 219 217 6
f 216 10 9 7
f 41 43 216 7
f 216 11 12 10
f 13 14 12 11
f 216 43 58 11
f 58 17 13 11
f 14 214 215 12
f 15 60 14 13
f 17 18 15 13
f 60 213 214 14
f 62 61 60 15
f 18 22 62 15
f 19 18 17 16
f 17 58 39 16
f 39 38 59 16
f 59 57 19 16
f 19 21 22 18
f 57 20 21 19
f 29 27 21 20
f 57 31 30 20
f 30 28 29 20
f 27 23 22 21
f 23 24 62 22
f 25 26 24 23
f 26 65 64 24
f 64 61 62 24
f 30 33 56 28
f 31 32 33 30
f 57 59 40 31
f 40 35 32 31
f 35 40 36 34
f 40 59 38 36
f 38 37 47 36
f 38 39 42 37
f 42 44 46 37
f 58 43 42 39
f 52 49 44 41
f 44 42 43 41
f 49 45 46 44
f 49 48 55 45
f 49 52 51 48
f 51 50 54 48
f 201 53 54 50
f 61 212 213 60
f 64 63 212 61
f 66 73 74 63
f 64 65 66 63
f 67 69 66 65
f 69 70 73 66
f 68 71 69 67
f 71 72 70 69
f 210 76 72 71
f 76 77 211 75
f 210 78 77 76
f 79 81 211 77
f 78 208 79 77
f 80 82 81 79
f 208 209 80 79
f 209 83 84 80
f 86 85 84 83
f 209 186 207 83
f 207 206 86 83
f 86 88 94 85
f 206 87 88 86
f 120 89 88 87
f 206 125 124 87
f 124 123 120 87
f 89 95 94 88
f 90 93 95 89
f 120 121 90 89
f 91 92 93 90
f 121 122 91 90
f 97 96 92 91
f 122 98 97 91
f 97 195 205 96
f 98 99 195 97
f 122 194 117 98
f 117 118 99 98
f 100 196 195 99
f 118 101 100 99
f 197 202 196 100
f 118 116 103 101
f 192 193 103 102
f 103 116 190 102
f 190 105 104 102
f 104 191 192 102
f 105 106 189 104
f 190 113 112 105
f 112 110 106 105
f 109 111 182 108
f 182 181 180 108
f 110 112 111 109
f 112 113 188 111
f 188 131 182 111
f 190 116 115 113
f 115 114 188 113
f 115 117 194 114
f 194 119 130 114
f 130 131 188 114
f 116 118 117 115
f 194 122 121 119
f 121 120 123 119
f 123 132 130 119
f 124 128 132 123
f 125 126 128 124
f 206 207 187 125
f 187 160 126 125
f 160 184 133 126
f 133 127 128 126
f 129 132 128 127
f 133 134 135 127
f 135 181 129 127
f 131 130 132 129
f 181 182 131 129
f 184 183 134 133
f 183 156 136 134
f 136 137 135 134
f 137 180 181 135
f 139 177 153 138
f 153 176 140 138
f 176 175 142 140
f 142 175 172 141
f 172 144 143 141
f 143 170 171 141
f 169 168 170 143
f 172 173 145 144
f 173 147 146 145
f 149 166 148 147
f 173 174 149 147
f 150 164 166 149
f 174 155 150 149
f 151 157 164 150
f 155 154 151 150
f 158 159 157 151
f 154 152 158 151
f 183 184 158 152
f 154 153 177 152
f 177 156 183 152
f 154 155 176 153
f 174 175 176 155
f 165 162 164 157
f 184 160 159 158
f 187 207 186 161
f 163 166 164 162
f 175 174 173 172
f 186 209 208 185
f 196 203 205 195
f 202 204 203 196
f 198 107 202 197
