# https://github.com/mikedh/trimesh
v 0.20868577 -0.36085286 -0.01078286
v 0.21119660 -0.35898882 -0.01579306
v 0.20985600 -0.36513900 -0.02976150
v 0.20943899 -0.36379099 -0.02567300
v 0.20523626 -0.36708637 -0.01146258
v 0.20453700 -0.36795700 -0.02247400
v 0.19786000 -0.37441000 -0.01089800
v 0.20413725 -0.36874524 -0.01904050
v 0.20437949 -0.36489750 -0.00663300
v 0.20584300 -0.36122999 -0.00529300
v 0.21296200 -0.35460150 -0.02090600
v 0.21329000 -0.34883626 -0.01528762
v 0.21199200 -0.34729201 -0.01014700
v 0.21043500 -0.34662500 -0.00640100
v 0.20812950 -0.35417701 -0.00500725
v 0.20765050 -0.34490800 -0.00173900
v 0.21048955 -0.35298809 -0.00768958
v 0.21051449 -0.34283400 -0.00653200
v 0.15975664 -0.38653830 -0.02493006
v 0.20143475 -0.30311987 -0.00857463
v 0.20973399 -0.30195799 -0.02599900
v 0.21088301 -0.30196100 -0.05102800
v 0.20476937 -0.30241238 -0.01380738
v 0.16537725 -0.34402199 -0.08517175
v 0.16831700 -0.34636425 -0.00761825
v 0.16726775 -0.34630925 -0.02712937
v 0.16740199 -0.34655200 -0.01245450
v 0.16725301 -0.34678424 -0.07466300
v 0.16276386 -0.36378966 -0.03964850
v 0.16296953 -0.36733289 -0.04598034
v 0.16674160 -0.35817398 -0.03136805
v 0.16550650 -0.37271300 -0.02542600
v 0.16849640 -0.35274814 -0.03194233
v 0.16863400 -0.34862801 -0.04021200
v 0.16551106 -0.36880394 -0.02670060
v 0.16865900 -0.34977200 -0.03491900
v 0.16857200 -0.35148901 -0.02891100
v 0.16713846 -0.35507820 -0.02232980
v 0.16851000 -0.35034400 -0.00902700
v 0.16814600 -0.35000700 -0.01221900
v 0.16732141 -0.35253648 -0.01468946
v 0.16894938 -0.35225567 -0.04832942
v 0.16687775 -0.36046398 -0.05079716
v 0.16493028 -0.37109181 -0.04959818
v 0.16796802 -0.35438223 -0.05672696
v 0.16678561 -0.35571283 -0.06714832
v 0.16548359 -0.35695167 -0.06406090
v 0.16595714 -0.35798682 -0.02238729
v 0.16558430 -0.36513440 -0.02657209
v 0.16570988 -0.35786667 -0.05730191
v 0.16605242 -0.35562110 -0.00613101
v 0.16797901 -0.34943250 -0.01644800
v 0.16830401 -0.35046076 -0.02318000
v 0.15915816 -0.36523614 -0.01117711
v 0.15790458 -0.37133982 -0.01707152
v 0.15736898 -0.37196182 -0.01409300
v 0.15922957 -0.36638020 -0.01626018
v 0.16438442 -0.36163326 -0.02208628
v 0.16038965 -0.36521016 -0.06549397
v 0.15928819 -0.36688995 -0.06227979
v 0.16367816 -0.36427291 -0.05359911
v 0.16210658 -0.36399199 -0.06913083
v 0.16971999 -0.34977201 -0.00473500
v 0.15770075 -0.37202392 -0.00780552
v 0.16069371 -0.36670080 -0.05668132
v 0.17377900 -0.34920001 0.00387200
v 0.16944254 -0.35724077 -0.07602996
v 0.15829886 -0.37434804 -0.06258423
v 0.15970064 -0.37161392 -0.06929185
v 0.16403670 -0.36575872 -0.07382953
v 0.15885926 -0.37797604 -0.01682850
v 0.15805050 -0.37918175 -0.01092193
v 0.16078100 -0.37094301 -0.00228400
v 0.15909108 -0.37422849 -0.05660780
v 0.16039100 -0.38118975 -0.00833325
v 0.15888201 -0.37792900 -0.06229800
v 0.16111000 -0.37818599 -0.05522650
v 0.15979195 -0.38090440 -0.06573147
v 0.16122900 -0.37557799 -0.07136600
v 0.16184694 -0.37177151 -0.02228991
v 0.16244200 -0.37208799 -0.07328700
v 0.17158950 -0.35992850 -0.07960100
v 0.16636100 -0.36704299 -0.07654100
v 0.16338000 -0.38416675 -0.05917150
v 0.16522657 -0.37878036 -0.02309957
v 0.16286599 -0.38357851 -0.01681750
v 0.16437600 -0.38136649 -0.02073000
v 0.17289250 -0.38148701 -0.02419625
v 0.17683220 -0.33464611 -0.09492231
v 0.17714451 -0.36976331 -0.08133067
v 0.18068721 -0.35679094 -0.08647598
v 0.17010863 -0.37507001 -0.07795006
v 0.17299720 -0.33834396 -0.09307682
v 0.16375128 -0.33486380 -0.09436748
v 0.18063542 -0.34633554 -0.09099199
v 0.18737341 -0.36386855 -0.08379777
v 0.14982975 -0.34922730 -0.08808292
v 0.17965044 -0.37352296 -0.07956471
v 0.17265523 -0.37790921 -0.07724673
v 0.17785999 -0.35215037 -0.08688440
v 0.15253869 -0.34067960 -0.09202517
v 0.18508422 -0.34853835 -0.09045577
v 0.16785852 -0.32791360 -0.09648555
v 0.16997653 -0.32984187 -0.09613686
v 0.18357000 -0.33811000 -0.09316000
v 0.14453900 -0.34404999 -0.08831700
v 0.17615984 -0.36383469 -0.08268600
v 0.16599563 -0.38158122 -0.07300183
v 0.17501099 -0.38060999 -0.07506500
v 0.17015849 -0.38471191 -0.07131854
v 0.18933932 -0.35956238 -0.08532884
v 0.18721049 -0.34413160 -0.09117593
v 0.16661193 -0.37384218 -0.07693302
v 0.16000040 -0.32940241 -0.09549597
v 0.18478982 -0.33544034 -0.09326916
v 0.17256551 -0.34542799 -0.08705400
v 0.17479371 -0.34201289 -0.09132905
v 0.18921896 -0.34896795 -0.08955119
v 0.17632322 -0.32937521 -0.09574388
v 0.14660600 -0.35382199 -0.08375700
v 0.15694700 -0.32860100 -0.09445500
v 0.18873000 -0.33534300 -0.09173900
v 0.17628072 -0.35968529 -0.08338879
v 0.19473050 -0.35341675 -0.08544725
v 0.17616207 -0.32471647 -0.09590835
v 0.19321300 -0.34682599 -0.08826000
v 0.16860762 -0.32281163 -0.09582850
v 0.19296341 -0.35717865 -0.08503946
v 0.19170036 -0.36563377 -0.08082357
v 0.19640749 -0.36094749 -0.08084650
v 0.19406387 -0.34941650 -0.08686625
v 0.16639400 -0.38464999 -0.06993400
v 0.18396500 -0.32817149 -0.09356350
v 0.17444062 -0.30997562 -0.09435561
v 0.17151600 -0.32036999 -0.09573650
v 0.18275150 -0.32219500 -0.09340550
v 0.16813757 -0.38738694 -0.06729340
v 0.19360012 -0.36964675 -0.07595362
v 0.19124424 -0.37100120 -0.07691314
v 0.17663650 -0.31832551 -0.09456400
v 0.17979901 -0.32287899 -0.09456700
v 0.18315306 -0.37767561 -0.07568074
v 0.18783499 -0.37839901 -0.07112900
v 0.18289100 -0.38350400 -0.06761300
v 0.17335977 -0.38563107 -0.07084692
v 0.17450651 -0.38800650 -0.06338600
v 0.17119915 -0.38802791 -0.06656913
v 0.16558125 -0.38694725 -0.06281375
v 0.20579425 -0.34168925 0.00065800
v 0.20141677 -0.32338471 0.00145975
v 0.20081000 -0.31460199 -0.00174200
v 0.17463203 -0.38736735 -0.02776506
v 0.16971563 -0.38685088 -0.02937912
v 0.17894100 -0.38693801 -0.02821500
v 0.18463232 -0.38627739 -0.02965727
v 0.17767723 -0.39049261 -0.03227888
v 0.18770482 -0.37910252 -0.02426582
v 0.19256309 -0.37574574 -0.02421641
v 0.19198091 -0.38034992 -0.02746067
v 0.19751206 -0.37288201 -0.02394852
v 0.17969677 -0.39102164 -0.03465914
v 0.17824874 -0.38192013 -0.02423399
v 0.19439494 -0.38462368 -0.03718208
v 0.20628831 -0.37227717 -0.03333630
v 0.19076279 -0.38656809 -0.03825707
v 0.20341881 -0.37487774 -0.03254976
v 0.20869701 -0.36865500 -0.03343850
v 0.19767987 -0.38151096 -0.03983457
v 0.20811200 -0.37036100 -0.03906700
v 0.20251201 -0.37694414 -0.04150826
v 0.18731359 -0.38766727 -0.04335994
v 0.17590790 -0.39206041 -0.03791090
v 0.17885859 -0.39165763 -0.04069073
v 0.20008062 -0.37919489 -0.04308896
v 0.20711925 -0.37039049 -0.04446825
v 0.17121596 -0.39174783 -0.03497213
v 0.19854178 -0.37383560 -0.05193696
v 0.19559850 -0.38064051 -0.04629100
v 0.17262501 -0.39154601 -0.04136900
v 0.17779601 -0.39041200 -0.04424900
v 0.19087701 -0.38348499 -0.04700800
v 0.16949566 -0.38066474 -0.05053210
v 0.18246775 -0.38120250 -0.05243225
v 0.19520449 -0.37433801 -0.05331950
v 0.16719747 -0.38587454 -0.05553998
v 0.17367320 -0.38632813 -0.05569596
v 0.17124753 -0.38809194 -0.05720645
v 0.19102358 -0.37768816 -0.05588195
v 0.17925331 -0.38618877 -0.05791426
v 0.18067600 -0.38583201 -0.06124000
v 0.18505201 -0.38342199 -0.06081100
v 0.19059375 -0.31554325 -0.08799313
v 0.19323200 -0.31406000 -0.08597800
v 0.19051222 -0.32328862 -0.09027938
v 0.20010037 -0.30984213 -0.07816937
v 0.19646365 -0.33310219 -0.08702259
v 0.19789973 -0.31570934 -0.08269077
v 0.19561200 -0.31123501 -0.08319350
v 0.19594818 -0.33778421 -0.08751198
v 0.19865632 -0.32069031 -0.08353796
v 0.20243603 -0.32581317 -0.08054629
v 0.19881778 -0.34304918 -0.08532384
v 0.20487563 -0.34015046 -0.07883808
v 0.20630148 -0.32458366 -0.07466894
v 0.20734091 -0.33661929 -0.07502468
v 0.20497312 -0.34583428 -0.07815235
v 0.20410100 -0.30636900 -0.07152050
v 0.20644075 -0.35024823 -0.07499930
v 0.20825595 -0.34311541 -0.07307189
v 0.20805313 -0.32134889 -0.07074095
v 0.20241362 -0.35147656 -0.08018757
v 0.21034049 -0.33307794 -0.06857470
v 0.20726735 -0.31451724 -0.07008786
v 0.20382709 -0.35944315 -0.07447635
v 0.20133656 -0.35753584 -0.07865317
v 0.19800580 -0.34936805 -0.08479982
v 0.20103436 -0.36851615 -0.07033238
v 0.19136695 -0.33866151 -0.09030199
v 0.19170476 -0.33146576 -0.09043245
v 0.20455053 -0.36465874 -0.06809072
v 0.18503400 -0.31616275 -0.09127850
v 0.19551138 -0.37534824 -0.06644716
v 0.19959109 -0.37243523 -0.06310790
v 0.20765483 -0.36466823 -0.05333762
v 0.20161826 -0.36999383 -0.05447569
v 0.18437425 -0.38396872 -0.06481318
v 0.21443340 -0.35452355 -0.04307494
v 0.21526376 -0.34756224 -0.04514495
v 0.21356687 -0.35092545 -0.05452522
v 0.21242273 -0.35783073 -0.05000959
v 0.21014927 -0.35952990 -0.05810577
v 0.21223322 -0.34937408 -0.06131301
v 0.21404328 -0.34392889 -0.05636523
v 0.21451937 -0.32915945 -0.05204262
v 0.21590000 -0.34133199 -0.03305900
v 0.21578053 -0.33082958 -0.04081640
v 0.21573404 -0.33701964 -0.04604393
v 0.21569437 -0.34538533 -0.03016864
v 0.21390993 -0.31809929 -0.04946576
v 0.21508914 -0.32227851 -0.04159022
v 0.21318873 -0.33080471 -0.05972041
v 0.21076926 -0.34250304 -0.06776590
v 0.21489753 -0.33974470 -0.02059150
v 0.21585751 -0.32838087 -0.03691917
v 0.21315384 -0.31309927 -0.05045673
v 0.21554705 -0.33531843 -0.02681107
v 0.20949318 -0.31620007 -0.06626821
v 0.21183026 -0.31419814 -0.05720201
v 0.21393052 -0.32090629 -0.02566835
v 0.21177109 -0.30316229 -0.03926545
v 0.21036981 -0.35079316 -0.06668962
v 0.21332650 -0.31413512 -0.02925980
v 0.21405356 -0.35902167 -0.03893624
v 0.21461577 -0.32599750 -0.02369948
v 0.21251053 -0.32246470 -0.01794182
v 0.21355814 -0.33941847 -0.01440830
v 0.21355078 -0.35774187 -0.02967770
v 0.21204823 -0.33736299 -0.01004067
v 0.20880909 -0.35660671 -0.06650208
v 0.21078652 -0.31803628 -0.01479607
v 0.20780622 -0.31670066 -0.01011769
v 0.20863335 -0.33890965 -0.00298599
v 0.20694521 -0.32179108 -0.00548260
v 0.20999832 -0.36601539 -0.04489179
v 0.16812140 -0.34811793 -0.07132872
v 0.16836637 -0.34633395 -0.04356958
v 0.17031637 -0.34668042 -0.08247473
v 0.17351050 -0.34570250 0.00499550
v 0.16909536 -0.34878568 -0.04784962
v 0.18120651 -0.30795776 -0.09165671
v 0.18963081 -0.30601148 -0.08776150
v 0.20082410 -0.30369961 -0.07731168
f 10 9 5
f 15 10 5
f 15 5 17
f 14 15 17
f 14 17 13
f 13 17 12
f 12 17 2
f 17 1 2
f 1 5 2
f 5 4 2
f 5 8 4
f 5 7 8
f 18 13 12
f 18 12 258
f 262 18 258
f 263 262 258
f 263 150 262
f 20 150 263
f 263 261 20
f 261 263 260
f 20 261 260
f 23 20 260
f 23 260 21
f 260 252 21
f 260 249 252
f 260 255 249
f 260 258 255
f 255 258 254
f 258 256 254
f 254 256 243
f 256 12 243
f 243 12 238
f 243 238 246
f 246 238 235
f 244 246 235
f 254 246 244
f 254 244 250
f 250 252 254
f 244 240 250
f 250 240 239
f 250 239 245
f 250 245 22
f 245 248 22
f 248 247 22
f 247 213 22
f 213 247 210
f 247 205 210
f 247 212 205
f 241 212 247
f 245 241 247
f 241 242 212
f 241 233 242
f 233 251 242
f 242 251 208
f 251 214 208
f 251 259 214
f 231 259 251
f 259 231 220
f 259 220 217
f 231 223 220
f 224 223 231
f 231 264 224
f 230 264 231
f 227 264 230
f 253 264 227
f 253 175 264
f 169 175 253
f 253 167 169
f 3 167 253
f 257 3 253
f 238 257 253
f 11 3 257
f 12 11 257
f 167 164 169
f 169 164 170
f 164 163 170
f 163 168 170
f 168 171 170
f 168 165 171
f 165 173 171
f 171 173 180
f 173 179 180
f 176 179 173
f 181 171 180
f 171 181 178
f 174 171 178
f 174 178 175
f 163 165 168
f 164 166 163
f 6 166 164
f 6 164 4
f 166 6 163
f 6 159 163
f 159 161 163
f 163 161 173
f 161 172 173
f 161 176 172
f 161 156 176
f 152 176 156
f 152 153 176
f 152 88 153
f 162 88 152
f 154 162 152
f 157 162 154
f 157 154 155
f 157 155 159
f 158 157 159
f 160 158 159
f 6 160 159
f 155 152 156
f 161 155 156
f 159 155 161
f 4 164 167
f 169 174 175
f 169 170 174
f 253 227 228
f 237 253 228
f 253 237 244
f 244 237 236
f 240 236 237
f 237 228 233
f 228 229 233
f 229 232 233
f 232 229 251
f 227 229 228
f 230 229 227
f 230 231 229
f 264 175 224
f 175 177 224
f 224 177 225
f 184 225 177
f 225 223 224
f 225 226 223
f 191 226 225
f 191 190 226
f 190 144 226
f 226 144 217
f 222 226 217
f 217 144 138
f 217 138 130
f 214 217 130
f 214 130 215
f 214 215 211
f 211 215 130
f 211 130 216
f 211 216 202
f 202 216 131
f 219 202 131
f 199 202 219
f 196 199 219
f 200 196 219
f 194 200 219
f 219 122 194
f 219 218 122
f 218 131 122
f 136 194 122
f 192 194 136
f 197 194 192
f 195 197 192
f 195 200 197
f 195 201 200
f 213 201 195
f 213 204 201
f 204 203 201
f 204 205 203
f 205 206 203
f 208 206 205
f 208 211 206
f 209 208 205
f 242 209 205
f 203 206 211
f 201 203 202
f 201 202 196
f 207 213 195
f 272 207 195
f 272 195 271
f 271 195 198
f 198 193 271
f 193 192 271
f 271 192 270
f 192 221 270
f 270 221 140
f 270 140 134
f 134 140 135
f 197 200 194
f 201 196 200
f 196 202 199
f 219 131 218
f 203 211 202
f 216 130 131
f 130 138 129
f 139 129 138
f 139 138 142
f 138 143 142
f 143 144 142
f 144 145 142
f 146 145 144
f 146 147 145
f 145 109 142
f 109 145 99
f 99 145 108
f 145 110 108
f 147 110 145
f 137 110 147
f 137 108 110
f 108 137 132
f 92 99 108
f 92 108 113
f 78 113 108
f 113 78 81
f 82 113 81
f 123 113 82
f 123 107 113
f 91 107 123
f 91 123 100
f 100 123 67
f 100 67 116
f 100 116 117
f 116 24 117
f 93 117 24
f 89 117 93
f 89 95 117
f 95 89 102
f 95 102 91
f 102 90 91
f 102 96 90
f 118 96 102
f 112 118 102
f 115 118 112
f 122 118 115
f 126 118 122
f 126 124 118
f 124 128 118
f 130 128 124
f 118 128 111
f 128 129 111
f 129 96 111
f 129 142 96
f 96 142 98
f 98 142 99
f 98 99 90
f 122 115 133
f 133 115 125
f 141 133 125
f 141 125 127
f 125 103 127
f 127 103 114
f 127 114 121
f 114 106 121
f 114 101 106
f 106 101 97
f 114 103 101
f 103 94 101
f 104 94 103
f 119 104 103
f 119 89 104
f 115 89 119
f 89 115 105
f 115 102 105
f 104 89 94
f 119 103 125
f 125 115 119
f 115 112 102
f 111 96 118
f 96 98 90
f 105 102 89
f 94 89 93
f 93 24 94
f 94 24 101
f 101 24 97
f 24 120 97
f 116 267 24
f 267 28 24
f 267 265 28
f 117 95 100
f 100 95 91
f 90 107 91
f 107 90 113
f 67 123 82
f 67 82 70
f 83 70 82
f 70 83 81
f 70 81 69
f 69 81 79
f 69 79 78
f 69 78 68
f 78 76 68
f 74 68 76
f 74 76 77
f 77 76 78
f 84 77 78
f 44 74 77
f 44 61 74
f 61 65 74
f 65 60 74
f 50 60 65
f 50 47 60
f 47 59 60
f 60 59 69
f 59 62 69
f 47 62 59
f 46 62 47
f 67 62 46
f 45 46 47
f 45 47 50
f 45 50 43
f 43 50 61
f 42 45 43
f 42 46 45
f 30 42 43
f 43 44 30
f 42 30 33
f 33 34 42
f 269 42 34
f 46 42 269
f 266 269 34
f 266 34 53
f 53 26 266
f 27 26 53
f 27 53 25
f 53 34 37
f 52 53 37
f 25 53 52
f 25 52 39
f 25 39 63
f 25 63 66
f 268 25 66
f 36 34 33
f 36 33 53
f 41 53 33
f 40 53 41
f 39 40 41
f 39 41 51
f 51 41 54
f 51 54 64
f 54 56 64
f 64 56 72
f 56 71 72
f 56 55 71
f 80 71 55
f 80 85 71
f 32 85 80
f 35 32 80
f 35 80 49
f 49 80 58
f 58 80 57
f 48 58 57
f 48 57 41
f 41 38 48
f 38 49 48
f 33 49 38
f 33 31 49
f 49 31 19
f 48 49 58
f 85 87 71
f 87 86 71
f 71 86 75
f 72 71 75
f 57 80 55
f 54 55 56
f 54 57 55
f 73 51 64
f 73 66 51
f 54 41 57
f 66 39 51
f 41 33 38
f 33 30 29
f 61 50 65
f 43 61 44
f 60 68 74
f 60 69 68
f 62 70 69
f 67 70 62
f 78 108 132
f 132 137 78
f 148 78 137
f 92 113 90
f 99 92 90
f 142 109 99
f 139 142 129
f 130 129 128
f 184 191 225
f 191 184 188
f 188 189 191
f 188 183 189
f 183 187 189
f 183 186 187
f 186 185 187
f 183 185 186
f 183 182 185
f 223 226 222
f 223 222 220
f 220 222 217
f 229 231 251
f 259 217 214
f 214 211 208
f 242 208 209
f 233 232 251
f 241 237 233
f 237 241 234
f 239 234 241
f 239 237 234
f 212 242 205
f 210 205 204
f 210 204 213
f 22 213 207
f 239 241 245
f 240 237 239
f 244 236 240
f 235 253 244
f 235 238 253
f 12 257 238
f 246 254 243
f 255 254 249
f 249 254 252
f 21 252 250
f 150 20 151
f 150 149 262
f 262 149 16
f 263 258 260
f 262 16 18
f 258 12 256
f 5 1 17
f 9 7 5

