# https://github.com/mikedh/trimesh
v 0.30802125 -0.41276975 -0.17408700
v 0.31102401 -0.42759100 -0.17840900
v 0.30674699 -0.40729600 -0.17233500
v 0.31230435 -0.43511613 -0.17877793
v 0.31293928 -0.44308420 -0.17783033
v 0.30951302 -0.41908755 -0.17275735
v 0.30610050 -0.40581800 -0.16889650
v 0.30836500 -0.41627650 -0.17031549
v 0.30937899 -0.42191100 -0.17133499
v 0.31254249 -0.45901401 -0.18440599
v 0.31174776 -0.43777724 -0.17518450
v 0.30955300 -0.42546426 -0.17131776
v 0.31226701 -0.44797200 -0.17753500
v 0.21552363 -0.22783338 -0.10847350
v 0.24787700 -0.27376300 -0.13061900
v 0.31109937 -0.44060300 -0.18479138
v 0.30536601 -0.42137301 -0.18437301
v 0.30106249 -0.40717401 -0.18207399
v 0.29488104 -0.38736597 -0.17770324
v 0.29173300 -0.37190700 -0.17133000
v 0.28817901 -0.36015701 -0.16716599
v 0.28030500 -0.33692801 -0.15717401
v 0.27291974 -0.32039750 -0.15063450
v 0.26300600 -0.30019899 -0.14202300
v 0.25801426 -0.30960001 -0.13177171
v 0.27115585 -0.33415398 -0.14024435
v 0.28181481 -0.35678485 -0.14736002
v 0.28688334 -0.37366408 -0.15224449
v 0.30778684 -0.43178427 -0.16965799
v 0.30416297 -0.43035859 -0.16801465
v 0.30894424 -0.44039939 -0.17194505
v 0.29535989 -0.39731442 -0.15883418
v 0.30992800 -0.46011400 -0.17873400
v 0.25129172 -0.29576557 -0.12687115
v 0.30578469 -0.45352106 -0.17486547
v 0.28936776 -0.39022275 -0.15696650
v 0.26231450 -0.33065625 -0.13947125
v 0.25447100 -0.31036001 -0.13191099
v 0.25143676 -0.30557699 -0.13028475
v 0.30691871 -0.46337779 -0.17842690
v 0.29499533 -0.38750968 -0.15682480
v 0.30492948 -0.47269974 -0.18302478
v 0.29987676 -0.40320930 -0.16116962
v 0.30365834 -0.41689414 -0.16505605
v 0.26934800 -0.34094000 -0.14234000
v 0.31110775 -0.45151125 -0.17727150
v 0.30281150 -0.44350049 -0.17187000
v 0.30360001 -0.46363401 -0.17862700
v 0.28295300 -0.37321550 -0.15214800
v 0.27592849 -0.35595300 -0.14693200
v 0.27278200 -0.35088000 -0.14555401
v 0.29578251 -0.41228313 -0.16309675
v 0.30225001 -0.46928400 -0.18122150
v 0.30667814 -0.42480885 -0.16797068
v 0.30199100 -0.47471750 -0.18434724
v 0.22861325 -0.24797555 -0.11325164
v 0.21977777 -0.23896862 -0.10687728
v 0.23752750 -0.25973726 -0.12033325
v 0.25053400 -0.28151301 -0.12706999
v 0.24260188 -0.26901726 -0.12188797
v 0.21618434 -0.23589821 -0.10457013
v 0.24665633 -0.28003815 -0.12327852
v 0.26160100 -0.30202499 -0.13377100
v 0.25500900 -0.28980699 -0.12953199
v 0.26064117 -0.30719328 -0.13230152
v 0.26259320 -0.31318790 -0.13368888
v 0.26462501 -0.31000400 -0.13531201
v 0.26782876 -0.32160428 -0.13698354
v 0.27184990 -0.33084126 -0.13976379
v 0.27517700 -0.33061599 -0.14230675
v 0.27747284 -0.34275485 -0.14365830
v 0.28211965 -0.35226312 -0.14680402
v 0.27451000 -0.32740599 -0.14205000
v 0.28268099 -0.34633899 -0.14762700
v 0.27930099 -0.33832800 -0.14527400
v 0.28834350 -0.35978551 -0.15182500
v 0.28871520 -0.36949075 -0.15175007
v 0.28564617 -0.36121360 -0.14941380
v 0.29116275 -0.36634700 -0.15401700
v 0.29115391 -0.37509427 -0.15357938
v 0.29639026 -0.38029950 -0.15819275
v 0.29734209 -0.39157054 -0.15867178
v 0.29346512 -0.38410420 -0.15559118
v 0.30358849 -0.41141813 -0.16435281
v 0.29909000 -0.38896799 -0.16038500
v 0.29442601 -0.37581250 -0.15661275
v 0.30228800 -0.39669201 -0.16338199
v 0.30415100 -0.40413100 -0.16506900
v 0.31005000 -0.43032740 -0.17208963
v 0.31028202 -0.44651142 -0.17454787
v 0.22552861 -0.24504234 -0.11089020
v 0.22352318 -0.24843828 -0.10905604
v 0.29055666 -0.35903639 -0.16028091
v 0.29780971 -0.37839284 -0.16479322
v 0.30128134 -0.38835881 -0.16552218
v 0.28787773 -0.35192717 -0.15607788
v 0.29415008 -0.36787459 -0.16084179
v 0.28599653 -0.34815078 -0.15304639
v 0.30759995 -0.41289010 -0.16908762
v 0.30162536 -0.39241204 -0.17202697
v 0.29970109 -0.38465795 -0.16856526
v 0.29106148 -0.36234173 -0.16495937
v 0.28346018 -0.34187924 -0.15615574
v 0.27980639 -0.33319640 -0.15161504
v 0.26651187 -0.30650976 -0.14138585
v 0.27615328 -0.32569956 -0.15029350
v 0.27705889 -0.32890483 -0.14527062
v 0.25326945 -0.28289287 -0.13268077
v 0.26108884 -0.29852114 -0.13481818
v 0.28257521 -0.34257367 -0.14850170
v 0.26936209 -0.31496731 -0.13946912
v 0.28776878 -0.35579355 -0.15184439
v 0.30804234 -0.42127775 -0.18108638
v 0.31010733 -0.43121167 -0.18311045
v 0.30280765 -0.40261532 -0.17781905
v 0.29906714 -0.39313585 -0.17679785
v 0.30882119 -0.41841266 -0.17817818
f 61 57 14
f 14 57 56
f 56 58 14
f 56 57 91
f 56 60 58
f 57 92 91
f 60 59 58
f 60 62 59
f 59 62 64
f 62 63 64
f 62 34 63
f 63 34 65
f 65 34 25
f 63 65 67
f 65 25 66
f 63 67 109
f 65 66 67
f 66 25 68
f 59 63 109
f 67 111 109
f 70 67 66
f 68 25 26
f 59 109 108
f 67 73 111
f 70 66 68
f 25 37 26
f 68 26 69
f 59 108 15
f 109 24 108
f 73 107 111
f 70 68 69
f 25 38 37
f 26 37 45
f 69 26 71
f 15 108 24
f 109 111 24
f 73 75 107
f 111 107 105
f 70 69 71
f 25 39 38
f 26 45 51
f 71 26 27
f 75 74 107
f 105 107 106
f 70 71 74
f 26 51 50
f 27 26 50
f 72 71 27
f 74 110 107
f 105 106 23
f 107 104 106
f 74 71 72
f 28 27 50
f 78 72 27
f 110 74 112
f 110 98 107
f 105 23 24
f 106 103 23
f 106 104 103
f 107 96 104
f 78 74 72
f 78 27 28
f 28 50 49
f 74 76 112
f 110 112 98
f 98 96 107
f 22 23 103
f 104 96 103
f 74 78 76
f 77 78 28
f 28 49 36
f 112 76 79
f 98 112 97
f 98 97 96
f 103 102 22
f 103 96 93
f 78 77 76
f 80 77 28
f 83 28 36
f 112 79 97
f 93 96 97
f 102 21 22
f 103 93 102
f 86 76 77
f 83 80 28
f 32 83 36
f 79 81 97
f 93 97 101
f 21 102 20
f 101 102 93
f 86 77 80
f 83 41 80
f 32 36 52
f 41 83 32
f 97 81 95
f 97 94 101
f 102 116 20
f 101 100 102
f 86 80 82
f 82 80 41
f 32 52 47
f 82 41 32
f 81 87 95
f 95 94 97
f 94 95 101
f 116 19 20
f 102 115 116
f 101 3 100
f 100 115 102
f 86 82 84
f 30 32 47
f 82 32 43
f 81 85 87
f 95 87 7
f 101 95 3
f 19 116 18
f 115 17 116
f 3 117 100
f 100 117 115
f 82 43 84
f 85 86 84
f 44 32 30
f 30 47 35
f 44 43 32
f 99 7 87
f 7 3 95
f 116 17 18
f 115 114 17
f 1 117 3
f 117 113 115
f 84 43 44
f 85 84 88
f 54 44 30
f 31 30 35
f 35 47 48
f 8 7 99
f 114 16 17
f 1 2 117
f 117 114 113
f 84 44 54
f 88 84 54
f 54 30 29
f 30 31 29
f 31 35 40
f 35 48 40
f 99 9 8
f 6 2 1
f 117 4 114
f 88 54 12
f 89 54 29
f 89 29 31
f 31 40 33
f 48 53 40
f 7 6 1
f 6 4 2
f 4 16 114
f 54 89 12
f 31 11 89
f 31 33 90
f 40 53 55
f 7 9 6
f 6 5 4
f 12 89 11
f 11 31 46
f 90 33 46
f 40 55 42
f 9 11 6
f 5 6 11
f 11 13 5
f 5 13 10

