v -0.0677121 0.183933 0.244291
v -0.0661122 0.17684 0.245447
v -0.0645769 0.169893 0.245876
v -0.0630968 0.163006 0.24611
v -0.0616011 0.156177 0.246193
v -0.0522462 0.151324 0.248889
v -0.0594897 0.149379 0.245329
v -0.0466774 0.159511 0.252019
v -0.0542127 0.157926 0.249303
v -0.0448171 0.15303 0.251856
v -0.0391279 0.161017 0.254518
v -0.0180016 0.171001 0.25811
v -0.0256135 0.17012 0.257245
v 0.00340625 0.180958 0.259716
v -0.00424258 0.180063 0.259052
v -0.0118914 0.179169 0.258387
v -0.0195402 0.178275 0.257723
v -0.0271806 0.177377 0.257078
v 0.00217874 0.188244 0.258413
v -0.00545737 0.187345 0.257777
v 0.00979424 0.189139 0.258954
v 0.0247407 0.190902 0.258562
v 0.0172562 0.190008 0.258762
v 0.0321671 0.191754 0.258061
v 0.0309978 0.199 0.256429
v 0.0298227 0.206049 0.254178
v 0.0224138 0.205253 0.254772
v 0.0213056 0.21202 0.252011
v 0.0138632 0.211154 0.252341
v -0.000134183 0.202524 0.254979
v 0.00641969 0.210283 0.252654
v -0.00104939 0.209254 0.252539
v -0.0218411 0.192408 0.254417
v -0.00762808 0.201461 0.254557
v -0.015203 0.200285 0.253133
v -0.0284176 0.18447 0.25552
v -0.0142166 0.193535 0.255696
v -0.0361747 0.183157 0.253926
v -0.0439344 0.181776 0.252186
v -0.0529886 0.187314 0.248475
v 0.00739386 0.203493 0.255135
v 0.0235327 0.198172 0.256863
v 0.0149197 0.20441 0.255118
v 0.0394467 0.192518 0.256969
v 0.03831 0.199713 0.255248
v 0.0333051 0.184372 0.259333
v 0.0344726 0.176853 0.260171
v 0.027196 0.175985 0.260729
v 0.0283641 0.168341 0.26115
v 0.0356843 0.16906 0.260618
v 0.0295794 0.160469 0.261169
v 0.0256613 0.136442 0.258282
v 0.0245503 0.144168 0.259601
v 0.0307433 0.152667 0.260485
v 0.0329352 0.137349 0.257636
v 0.0390992 0.145977 0.258314
v 0.0318443 0.144986 0.259095
v 0.038007 0.153612 0.259754
v 0.0451804 0.154519 0.258056
v 0.0484806 0.165839 0.257321
v 0.0422301 0.163994 0.259084
v 0.0519113 0.155487 0.255418
v 0.0572169 0.164017 0.252223
v 0.0563784 0.171474 0.253117
v 0.0555096 0.179177 0.253457
v 0.0542406 0.18738 0.253475
v 0.0517641 0.196596 0.252596
v 0.0591935 0.194653 0.248116
v 0.0631485 0.201695 0.241868
v 0.0581952 0.202177 0.247073
v 0.0573064 0.209599 0.245177
v 0.0622472 0.209045 0.240059
v 0.0668413 0.214853 0.232844
v 0.0617255 0.215749 0.238027
v 0.0561146 0.216799 0.242647
v 0.066157 0.221608 0.230628
v 0.0604504 0.222688 0.235138
v 0.0547487 0.223743 0.239625
v 0.0480831 0.224028 0.242329
v 0.0410275 0.224094 0.24449
v 0.033757 0.223644 0.245665
v 0.0347453 0.217092 0.249002
v 0.0264505 0.223124 0.246808
v 0.0108032 0.227859 0.244321
v 0.0191228 0.222308 0.247386
v -0.0515441 0.114062 0.23447
v -0.0606405 0.185874 0.246429
v 0.0117894 0.22143 0.247826
v -0.0591314 0.178837 0.24779
v 0.0254547 0.229411 0.243023
v 0.0181282 0.22864 0.243676
v 0.0274205 0.216397 0.249784
v 0.0366253 0.208108 0.252818
v 0.0437569 0.203812 0.252817
v 0.0499907 0.210749 0.24814
v 0.0429973 0.210879 0.250812
v 0.0491807 0.217662 0.245871
v 0.0508195 0.203893 0.250579
v -0.0515352 0.180308 0.249994
v -0.0576223 0.1718 0.249151
v -0.0500261 0.173271 0.251355
v 0.042052 0.217591 0.247883
v 0.0326804 0.229769 0.241696
v 0.0639612 0.194814 0.242451
v 0.0664666 0.159734 0.239544
v 0.0625265 0.158235 0.245674
v 0.0620677 0.165424 0.246937
v 0.0585597 0.149355 0.24984
v 0.0527062 0.147883 0.254062
v 0.0542378 0.133292 0.25036
v 0.0534681 0.140606 0.252217
v 0.0546892 0.126168 0.248133
v 0.0603008 0.127951 0.243746
v 0.059812 0.135029 0.24584
v 0.0593232 0.142106 0.247933
v 0.0607558 0.120881 0.241624
v -0.0424298 0.174742 0.25356
v 0.0657701 0.108873 0.231418
v 0.0682511 0.111015 0.224786
v 0.0673454 0.118046 0.226822
v 0.0669609 0.125067 0.228969
v 0.0668619 0.132062 0.231193
v 0.065108 0.115897 0.23352
v 0.0647338 0.122926 0.235652
v 0.0643141 0.129958 0.237769
v 0.0638944 0.136989 0.239886
v -0.0348335 0.176212 0.255764
v 0.0612349 0.106864 0.23679
v 0.0610927 0.113849 0.239328
v 0.0634591 0.144022 0.241997
v 0.0629924 0.151061 0.244097
v 0.057954 0.156618 0.25131
v 0.0661252 0.166738 0.240858
v 0.0657209 0.173706 0.241468
v 0.0616415 0.17248 0.247809
v 0.0653165 0.180673 0.242078
v 0.0607857 0.179751 0.248356
v 0.0666339 0.139038 0.233396
v 0.0666819 0.145923 0.23573
v 0.0667298 0.152808 0.238064
v 0.0647486 0.187786 0.242549
v 0.060071 0.187066 0.24846
v 0.0362364 0.161876 0.260727
v -0.0559467 0.164816 0.249342
v -0.0680943 0.154181 0.241473
v -0.072718 0.145241 0.235392
v 0.0462302 0.146968 0.256743
v 0.0498641 0.117338 0.248245
v 0.0489724 0.12474 0.250508
v 0.0480807 0.132142 0.252772
v 0.047189 0.139543 0.255035
v 0.0518042 0.0964632 0.238436
v 0.0512054 0.103325 0.241895
v 0.0506067 0.110186 0.245354
v 0.0441782 0.101817 0.243414
v 0.0435382 0.108777 0.246763
v 0.0447861 0.0948869 0.23984
v 0.0370185 0.100508 0.244229
v 0.0376021 0.0935534 0.240605
v 0.0529196 0.0843015 0.23024
v 0.0452965 0.0885032 0.235741
v 0.0380642 0.087114 0.236399
v 0.0383069 0.0817218 0.230947
v 0.030929 0.0807786 0.230747
v 0.0306939 0.0862609 0.23613
v 0.0233571 0.0856977 0.235635
v 0.0157522 0.0914383 0.239785
v 0.00113373 0.0912342 0.237838
v 0.000741557 0.097639 0.242142
v 0.00799939 0.0976332 0.243305
v 0.0146868 0.10516 0.247545
v 0.0298322 0.0993343 0.244813
v 0.0291411 0.106541 0.248122
v 0.0219072 0.105833 0.247877
v 0.00751414 0.104612 0.246898
v 0.021233 0.113114 0.251009
v 0.0140082 0.112519 0.250507
v 0.00678334 0.111925 0.250005
v 0.0131787 0.119894 0.253475
v 0.0348725 0.122196 0.25352
v 0.0276305 0.121369 0.253675
v 0.0203886 0.120543 0.25383
v 0.035672 0.114776 0.250811
v 0.0267205 0.128897 0.256138
v 0.0194922 0.128128 0.256157
v 0.0122512 0.127389 0.256078
v 0.0183767 0.135776 0.25805
v 0.0111045 0.1351 0.257765
v 0.0038552 0.134539 0.257095
v -0.011759 0.141282 0.256921
v 0.00270396 0.142245 0.258737
v -0.00452707 0.141757 0.25788
v 0.00154784 0.150023 0.259808
v -0.00568998 0.149531 0.258932
v -0.0131338 0.148912 0.257473
v -0.0205777 0.148293 0.256014
v -0.0280215 0.147674 0.254556
v -0.0354654 0.147055 0.253097
v -0.00738537 0.15684 0.259325
v -0.0148666 0.156144 0.258117
v -0.0223478 0.155449 0.256909
v -0.029829 0.154753 0.255702
v -0.0240896 0.16268 0.257376
v -0.0315709 0.161984 0.256168
v -0.0165695 0.163505 0.258685
v 0.000116601 0.15759 0.260548
v -0.00136049 0.165152 0.260329
v -0.0089912 0.164341 0.259674
v -0.0028378 0.172713 0.260109
v 0.00617685 0.165968 0.261013
v 0.00473215 0.173527 0.260783
v 0.0209889 0.167554 0.261495
v 0.00762763 0.158397 0.261037
v 0.0135812 0.166764 0.261312
v 0.0161072 0.151246 0.260611
v 0.0222335 0.159778 0.261128
v 0.0149437 0.1591 0.261101
v -0.0260891 0.140631 0.253932
v -0.0333945 0.140202 0.252148
v -0.0160668 0.125908 0.252009
v -0.0174332 0.133475 0.253856
v -0.024356 0.133452 0.25238
v -0.0312789 0.13343 0.250904
v -0.0187996 0.141043 0.255703
v -0.0228801 0.125909 0.25042
v -0.0295716 0.125938 0.248705
v -0.0362631 0.125968 0.246989
v -0.0430505 0.124924 0.244031
v -0.0450682 0.131759 0.245802
v -0.0518577 0.130691 0.242816
v -0.0541189 0.119183 0.235712
v -0.0566936 0.124305 0.236953
v -0.0592684 0.129426 0.238195
v -0.0629064 0.120914 0.230633
v -0.0523305 0.111 0.230865
v -0.0585236 0.115519 0.229636
v -0.0463378 0.108364 0.232725
v -0.0401664 0.112702 0.239195
v -0.0458552 0.113382 0.236833
v -0.0274552 0.111761 0.243176
v -0.0340882 0.112145 0.241341
v -0.0272082 0.105419 0.239774
v -0.0205144 0.105033 0.241661
v -0.00657751 0.104388 0.244777
v -0.0135688 0.104715 0.243235
v 0.00038996 0.104244 0.246083
v -0.00732389 0.111455 0.247902
v -0.0080756 0.118563 0.250973
v -0.033765 0.10607 0.23764
v -0.0400661 0.107226 0.235183
v -0.0335239 0.100628 0.233224
v -0.0399053 0.101829 0.230694
v -0.0130101 0.0923661 0.2346
v -0.0199739 0.0933174 0.232686
v -0.0270595 0.0994633 0.235666
v -0.0269376 0.0942686 0.230773
v -0.00593102 0.0863364 0.230927
v -0.013137 0.0872423 0.229385
v 0.00868895 0.0854516 0.23372
v 0.00129423 0.0855163 0.232442
v 0.0161442 0.0800152 0.229223
v 0.0235408 0.0799205 0.230484
v 0.0385052 0.0768278 0.225155
v 0.0310707 0.0764567 0.224552
v 0.00902728 0.078071 0.220996
v 0.0457389 0.0758093 0.218093
v 0.0530368 0.0761831 0.218258
v 0.0531034 0.0794553 0.224714
v 0.0458672 0.0776366 0.225364
v 0.0236274 0.076265 0.223852
v 0.00874851 0.0801808 0.227904
v 0.00158727 0.0816983 0.226049
v 0.0163301 0.0771061 0.222406
v -0.00558074 0.0832086 0.224258
v -0.0128512 0.0843586 0.222756
v -0.0270341 0.0902088 0.225214
v -0.0399786 0.0982543 0.225646
v -0.0335622 0.0959036 0.228429
v -0.0465669 0.100987 0.222623
v -0.0665236 0.147411 0.241398
v -0.0732341 0.12954 0.227275
v -0.0768966 0.13624 0.228861
v -0.0696032 0.122839 0.225668
v -0.0680218 0.132108 0.233639
v -0.0708454 0.138636 0.23491
v -0.0643016 0.140859 0.240381
v -0.0202086 0.0884336 0.227532
v -0.0464009 0.104068 0.228185
v -0.0529005 0.106556 0.22577
v -0.0592001 0.111756 0.225275
v -0.0654998 0.116955 0.22478
v -0.0655969 0.12637 0.232091
v -0.0615834 0.134725 0.239301
v -0.0544119 0.137004 0.24397
v -0.0500546 0.144711 0.24819
v -0.0572728 0.142899 0.244807
v -0.0408558 0.119017 0.242253
v -0.0474612 0.119371 0.239262
v -0.0499837 0.125034 0.241064
v -0.0142656 0.111552 0.246626
v -0.0208459 0.111551 0.244943
v -0.0148359 0.118611 0.249493
v -0.0214163 0.11861 0.24781
v -0.0279966 0.118609 0.246127
v -0.034577 0.118609 0.244444
v -0.0383144 0.132825 0.248737
v -0.040591 0.139649 0.25014
v -0.0473401 0.138583 0.247212
v -0.0428675 0.146473 0.251543
v 0.00996825 0.142806 0.259361
v 0.00881451 0.150589 0.260415
v 0.00507276 0.126873 0.255332
v -0.00201206 0.126459 0.254338
v -0.00909689 0.126044 0.253345
v -0.00336001 0.134071 0.25613
v -0.0104448 0.133656 0.255137
v 0.0060044 0.119315 0.252937
v -0.00101653 0.118892 0.252036
v -0.000324892 0.11151 0.249088
v 0.0225517 0.0987437 0.244364
v 0.0152586 0.0981851 0.243858
v -0.00604707 0.0914329 0.236502
v -0.00621771 0.0980112 0.240577
v -0.0131612 0.0983893 0.239002
v -0.0201048 0.0987673 0.237428
v 0.0084358 0.091209 0.238949
v 0.0160216 0.085253 0.235016
v 0.0457134 0.0827227 0.23103
v 0.0303536 0.0926379 0.240667
v 0.0230626 0.0920622 0.240184
v 0.0364069 0.107463 0.247798
v 0.0284534 0.11377 0.25137
v 0.0428129 0.115983 0.249786
v 0.0420266 0.12337 0.25255
v 0.0411498 0.130791 0.254867
v 0.0593024 0.0869911 0.227519
v 0.0522515 0.0902838 0.234401
v 0.0596277 0.0816831 0.222768
v 0.0339461 0.129741 0.255868
v 0.0401609 0.138351 0.256742
v 0.0172569 0.14346 0.259647
v 0.023415 0.151929 0.260631
v 0.0197085 0.175156 0.260795
v 0.0121969 0.174331 0.260805
v 0.0259642 0.183593 0.260074
v 0.0184842 0.182728 0.260184
v 0.016045 0.197285 0.257074
v 0.0085591 0.196393 0.257276
v -0.0130801 0.186422 0.257115
v -0.020687 0.18547 0.256422
v 0.00102898 0.195451 0.257136
v -0.00657794 0.194499 0.256443
v 0.0110027 0.181849 0.260194
v -0.0103898 0.171883 0.258976
v -0.0331941 0.169181 0.255986
v -0.0407971 0.16789 0.254187
v -0.0483935 0.166419 0.251983
v -0.0373196 0.153917 0.253871
f 2 89 87 1
f 3 100 89 2
f 4 144 100 3
f 5 9 144 4
f 145 280 7 5
f 7 6 9 5
f 7 296 295 6
f 295 309 10 6
f 10 8 9 6
f 280 286 296 7
f 357 144 9 8
f 10 358 11 8
f 11 356 357 8
f 309 198 358 10
f 358 202 204 11
f 204 355 356 11
f 17 18 13 12
f 13 203 205 12
f 205 208 354 12
f 354 16 17 12
f 18 127 355 13
f 355 204 203 13
f 19 20 15 14
f 15 209 211 14
f 211 344 353 14
f 353 21 19 14
f 20 349 16 15
f 16 354 209 15
f 349 350 17 16
f 350 36 18 17
f 36 38 127 18
f 351 352 20 19
f 21 348 351 19
f 352 37 349 20
f 353 346 23 21
f 23 347 348 21
f 42 347 23 22
f 23 346 345 22
f 345 46 24 22
f 24 25 42 22
f 44 45 25 24
f 26 27 42 25
f 28 29 43 27
f 43 347 42 27
f 31 41 43 29
f 34 352 351 30
f 351 348 41 30
f 41 31 32 30
f 350 349 37 33
f 35 37 352 34
f 39 117 127 38
f 99 101 117 39
f 87 89 99 40
f 348 347 43 41
f 345 48 47 46
f 48 49 50 47
f 345 346 343 48
f 343 212 49 48
f 212 216 51 49
f 216 342 54 51
f 53 341 187 52
f 187 185 184 52
f 184 339 55 52
f 55 57 53 52
f 342 215 341 53
f 57 54 342 53
f 57 56 58 54
f 339 335 340 55
f 340 56 57 55
f 340 151 147 56
f 147 59 58 56
f 59 61 143 58
f 62 132 63 60
f 109 108 132 62
f 132 106 107 63
f 107 135 64 63
f 135 137 65 64
f 137 142 66 65
f 142 68 67 66
f 142 141 104 68
f 104 69 70 68
f 72 71 70 69
f 72 74 75 71
f 76 77 74 73
f 77 78 75 74
f 80 102 97 79
f 81 82 102 80
f 103 90 83 81
f 83 92 82 81
f 93 96 102 82
f 90 91 85 83
f 88 85 91 84
f 98 95 96 94
f 97 102 96 95
f 133 107 106 105
f 106 131 140 105
f 132 108 131 106
f 133 134 135 107
f 109 111 115 108
f 115 130 131 108
f 112 113 114 110
f 114 115 111 110
f 116 124 125 113
f 125 126 114 113
f 126 130 115 114
f 129 123 124 116
f 123 129 128 118
f 119 120 123 118
f 121 124 123 120
f 122 125 124 121
f 138 126 125 122
f 138 139 130 126
f 139 140 131 130
f 136 137 135 134
f 141 142 137 136
f 149 334 333 148
f 333 156 154 148
f 150 335 334 149
f 151 340 335 150
f 153 155 157 152
f 157 161 337 152
f 154 156 155 153
f 156 331 158 155
f 158 159 157 155
f 333 183 331 156
f 159 162 161 157
f 331 173 172 158
f 172 329 159 158
f 329 165 162 159
f 337 161 328 160
f 328 269 268 160
f 268 338 336 160
f 162 163 328 161
f 165 164 163 162
f 164 264 263 163
f 263 269 328 163
f 262 270 264 164
f 165 166 262 164
f 329 330 166 165
f 327 261 262 166
f 330 167 327 166
f 321 170 326 167
f 326 259 327 167
f 330 320 321 167
f 169 323 322 168
f 322 257 260 168
f 260 259 326 168
f 326 170 169 168
f 246 244 323 169
f 170 175 246 169
f 321 171 175 170
f 177 178 175 171
f 321 320 174 171
f 174 176 177 171
f 173 174 320 172
f 320 330 329 172
f 332 176 174 173
f 331 183 332 173
f 178 319 246 175
f 182 179 177 176
f 332 181 182 176
f 179 317 178 177
f 317 318 319 178
f 186 312 317 179
f 182 185 186 179
f 339 184 181 180
f 181 332 183 180
f 183 333 334 180
f 334 335 339 180
f 184 185 182 181
f 187 188 186 185
f 188 189 312 186
f 341 310 188 187
f 310 191 189 188
f 191 192 315 189
f 315 313 312 189
f 195 196 224 190
f 224 221 316 190
f 316 315 192 190
f 192 194 195 190
f 193 194 192 191
f 310 311 193 191
f 206 199 194 193
f 311 213 206 193
f 199 200 195 194
f 200 201 196 195
f 201 202 197 196
f 197 218 224 196
f 202 358 198 197
f 198 219 218 197
f 309 307 219 198
f 208 205 200 199
f 206 207 208 199
f 205 203 201 200
f 203 204 202 201
f 213 210 207 206
f 209 354 208 207
f 210 211 209 207
f 213 217 214 210
f 214 344 211 210
f 343 344 214 212
f 214 217 216 212
f 311 215 217 213
f 311 310 341 215
f 342 216 217 215
f 219 223 222 218
f 222 221 224 218
f 307 306 223 219
f 221 222 225 220
f 225 303 302 220
f 302 248 314 220
f 314 316 221 220
f 223 226 225 222
f 306 227 226 223
f 226 304 303 225
f 227 305 304 226
f 306 229 228 227
f 228 297 305 227
f 229 230 299 228
f 299 298 297 228
f 308 294 230 229
f 306 307 308 229
f 294 293 233 230
f 233 232 299 230
f 232 234 236 231
f 236 235 86 231
f 86 239 298 231
f 298 299 232 231
f 233 292 234 232
f 293 284 292 233
f 292 283 291 234
f 291 290 236 234
f 236 290 289 235
f 289 288 237 235
f 237 239 86 235
f 288 252 250 237
f 250 238 239 237
f 250 249 241 238
f 241 305 297 238
f 297 298 239 238
f 304 305 241 240
f 241 249 242 240
f 242 243 301 240
f 301 303 304 240
f 249 251 255 242
f 255 325 243 242
f 325 324 245 243
f 245 300 301 243
f 247 300 245 244
f 245 324 323 244
f 246 319 247 244
f 248 302 300 247
f 319 318 248 247
f 318 313 314 248
f 250 252 251 249
f 252 277 278 251
f 278 256 255 251
f 288 279 277 252
f 254 287 258 253
f 258 257 322 253
f 322 323 324 253
f 324 325 254 253
f 256 276 287 254
f 325 255 256 254
f 258 275 274 257
f 274 272 260 257
f 260 272 271 259
f 271 261 327 259
f 271 265 273 261
f 273 270 262 261
f 267 268 269 266
f 283 292 284 281
f 284 285 282 281
f 293 286 285 284
f 286 280 146 285
f 293 294 296 286
f 308 295 296 294
f 308 307 309 295
f 302 303 301 300
f 313 318 317 312
f 315 316 314 313
f 346 353 344 343
f 127 117 356 355
f 117 101 357 356
f 101 100 144 357
f 99 89 100 101
