# https://github.com/mikedh/trimesh
v 0.15145850 0.33113300 0.08450050
v 0.14053901 0.34082600 0.08270100
v 0.14480900 0.35121400 0.03431600
v 0.15154125 0.34792625 0.02076325
v 0.15828501 0.34368601 0.00376700
v 0.18135725 0.31125075 -0.07338950
v 0.18986700 0.29288599 -0.09301500
v 0.19619200 0.28030300 -0.09922800
v 0.17467363 0.32530487 -0.04589837
v 0.16706100 0.33556925 -0.02054250
v 0.16144501 0.34108701 -0.01217400
v 0.17048750 0.33098924 -0.03550800
v 0.21612400 0.07313000 -0.11226700
v 0.21839850 0.08666725 -0.11432100
v 0.22222163 0.12331175 -0.12177813
v 0.22284950 0.15534725 -0.12629500
v 0.21331300 0.04828200 -0.09733350
v 0.21418450 0.22661975 -0.11949750
v 0.21954601 0.19655500 -0.12598300
v 0.20462475 0.25967350 -0.10725338
v 0.21135200 0.23319350 -0.12114650
v 0.17243899 0.30169901 0.10146300
v 0.18693971 0.29923071 0.07139721
v 0.17777400 0.30211601 0.08619100
v 0.18918606 0.29499787 0.06959544
v 0.19430962 0.28777051 0.06866137
v 0.21610600 0.24361600 0.07817800
v 0.22536100 0.22080299 0.06855000
v 0.22059722 0.23495466 0.06806446
v 0.22355192 0.22669026 0.06728977
v 0.20736801 0.26732650 0.06297850
v 0.16748954 0.31829241 0.07917585
v 0.17473519 0.31242242 0.07311459
v 0.17265201 0.31341499 0.07653100
v 0.19217446 0.29803998 0.05238702
v 0.18449350 0.30782913 0.05342637
v 0.19009000 0.30402499 0.04169600
v 0.19931453 0.29106369 0.03926735
v 0.20852550 0.27413565 0.04350845
v 0.21749777 0.25823481 0.03631171
v 0.22369115 0.24078859 0.04240369
v 0.22721500 0.23438350 0.03522650
v 0.22542600 0.23365800 0.04710800
v 0.21843271 0.24475916 0.06036388
v 0.21352675 0.25941025 0.05407000
v 0.21914899 0.25055799 0.04535200
v 0.21706601 0.25490150 0.04661500
v 0.22041951 0.24615800 0.04802250
v 0.22937779 0.22510026 0.04323324
v 0.23056542 0.21060098 0.05693496
v 0.22719393 0.21516747 0.06360050
v 0.22426150 0.22487900 0.06348600
v 0.23505599 0.20198300 0.04752400
v 0.23498937 0.20681133 0.04201252
v 0.23560899 0.21505900 0.01612600
v 0.23282400 0.22359100 0.01793800
v 0.23635872 0.21490801 0.00105799
v 0.23478625 0.21832328 0.01476322
v 0.22877095 0.23595974 -0.03532705
v 0.22396401 0.23699801 -0.07021000
v 0.22449950 0.23387949 -0.07308650
v 0.22273350 0.24102700 -0.06882750
v 0.23188676 0.22508287 -0.03957425
v 0.22959775 0.23220537 -0.03894512
v 0.23536740 0.21558977 -0.03097206
v 0.23811243 0.20707423 -0.02173297
v 0.24114864 0.19269882 -0.02047087
v 0.24356711 0.18186539 -0.00154363
v 0.24206957 0.19095407 0.00028937
v 0.24342286 0.17948253 0.01639342
v 0.24224100 0.18354601 0.02354700
v 0.24086564 0.19040858 0.02490254
v 0.23998500 0.19806001 0.01509200
v 0.24090999 0.19439000 0.01271700
v 0.23541856 0.20926028 0.03438346
v 0.23845850 0.19671850 0.03423600
v 0.24126963 0.17712327 0.04164740
v 0.23756900 0.17894100 0.05763400
v 0.23900200 0.17249900 0.05583000
v 0.23936300 0.18902199 0.03896600
v 0.24388725 0.17422275 0.02032325
v 0.24551699 0.16091414 0.01910626
v 0.24579253 0.15093119 -0.00044141
v 0.24437775 0.16306325 0.02936250
v 0.24525875 0.16086625 -0.00644113
v 0.24512964 0.15034620 -0.01213340
v 0.24572438 0.14835950 0.00930887
v 0.24498489 0.13764135 -0.00336404
v 0.24331221 0.13976106 -0.02339035
v 0.24182075 0.15680976 -0.04263075
v 0.23990745 0.16368334 -0.05545830
v 0.24157125 0.17877493 -0.03878288
v 0.24024762 0.17298763 -0.05170908
v 0.24332050 0.17626100 -0.02150750
v 0.23558671 0.20193054 -0.05735783
v 0.23096900 0.21366800 -0.06972800
v 0.23183126 0.21433828 -0.06415520
v 0.22517853 0.22613854 -0.08202837
v 0.22758750 0.22703701 -0.06714250
v 0.22581479 0.22192382 -0.08515314
v 0.21746950 0.23565750 -0.10025750
v 0.22093786 0.23525134 -0.08794802
v 0.22070800 0.24130100 -0.07910300
v 0.22273899 0.23268650 -0.08363400
v 0.21692536 0.24204489 -0.09481106
v 0.21060009 0.26227307 -0.08455137
v 0.19786200 0.27913800 -0.09640600
v 0.20401979 0.26915196 -0.09518370
v 0.20131881 0.28116766 -0.08001679
v 0.19680472 0.29318181 -0.06639821
v 0.18272073 0.31295795 -0.06352066
v 0.18849675 0.30744394 -0.05515100
v 0.18521849 0.31223300 -0.05194200
v 0.19561100 0.29864201 -0.05108400
v 0.19820270 0.29438289 -0.05375272
v 0.20560599 0.27835401 -0.06711900
v 0.21409065 0.27070931 -0.03479652
v 0.21051100 0.27811199 -0.02590700
v 0.21735489 0.26569251 -0.00908189
v 0.22449526 0.24935950 -0.00766775
v 0.22224650 0.25442551 -0.00124750
v 0.22633900 0.24435000 0.00155900
v 0.22768485 0.23878632 0.01649417
v 0.23276063 0.22712584 -0.00973899
v 0.22790850 0.24105385 -0.00283606
v 0.22798249 0.23939362 -0.02596063
v 0.21978487 0.25998839 -0.02383235
v 0.22117669 0.25478931 -0.03863446
v 0.22150879 0.25113884 -0.05051510
v 0.21795212 0.26039163 -0.04432675
v 0.22562524 0.24602495 -0.02675900
v 0.23348725 0.22440475 -0.00144525
v 0.22282442 0.25048687 0.01837458
v 0.22287339 0.25239080 0.00661266
v 0.21648085 0.26502247 0.01658029
v 0.20948550 0.27590400 0.03002550
v 0.20773462 0.28113710 0.02054850
v 0.21385850 0.27195149 0.00192400
v 0.20542354 0.28768845 -0.01446410
v 0.20619980 0.28512259 -0.03196193
v 0.21174266 0.27335543 -0.04517751
v 0.20492876 0.28505724 -0.04536150
v 0.20220028 0.29107877 -0.03698881
v 0.19638016 0.30130684 -0.02548396
v 0.19212330 0.30579753 -0.03938901
v 0.19348533 0.30590160 -0.00880628
v 0.19722164 0.30035371 0.00080459
v 0.18821551 0.31241650 0.00380850
v 0.18299399 0.31918600 -0.00588000
v 0.18615026 0.31532777 0.00009711
v 0.18149341 0.31986933 0.01367207
v 0.17230250 0.32707825 0.03420737
v 0.17931541 0.31968439 0.03363080
v 0.16538840 0.32909645 0.05584370
v 0.15637550 0.33289549 0.06973700
v 0.16495354 0.32737201 0.06270564
v 0.14981223 0.33694576 0.07428988
v 0.14294443 0.34250457 0.07404318
v 0.15374500 0.33685201 0.06502200
v 0.15709037 0.33728762 0.05283725
v 0.14639753 0.34347443 0.06301146
v 0.14581980 0.34722824 0.05054084
v 0.15198078 0.34434143 0.04245982
v 0.13810756 0.34918762 0.06265269
v 0.14830956 0.34892487 0.03256691
v 0.16324117 0.33457611 0.04272650
v 0.16396500 0.33555700 0.03326600
v 0.16557600 0.33122501 0.04733500
v 0.15836016 0.34271416 0.01832643
v 0.17320238 0.32794175 0.02204337
v 0.17879850 0.32371512 -0.00301887
v 0.16752214 0.33369450 0.02340042
v 0.17143065 0.33086454 -0.02804273
v 0.16646600 0.33646680 0.00062000
v 0.17807800 0.32398799 -0.02731100
v 0.17570246 0.32736388 -0.00867683
v 0.16681100 0.33618799 -0.00988500
v 0.17253118 0.33028992 0.00526661
v 0.17556750 0.31748499 0.05790550
v 0.17393522 0.31848715 0.06099021
v 0.17833300 0.31565300 0.05348900
v 0.17405199 0.32268168 0.04698681
v 0.18428082 0.31062406 0.04546057
v 0.19421014 0.30140605 0.02893052
v 0.19235775 0.30428650 0.02592300
v 0.20186250 0.29143199 0.01732250
v 0.19791340 0.29774066 0.01705513
v 0.18640375 0.31411426 0.01075000
v 0.19169784 0.30651188 0.01842137
v 0.19949850 0.29622050 0.00835000
v 0.17937363 0.32319501 -0.01850315
v 0.18484989 0.31643008 -0.02602164
v 0.18421187 0.31442388 0.02911562
v 0.15426100 0.34453401 0.03036050
v 0.20355099 0.29052800 -0.00145600
v 0.20028767 0.29598753 -0.01026788
v 0.19699250 0.30007900 0.00717750
v 0.20228501 0.29262301 -0.01789600
v 0.21623200 0.26668501 0.00785300
v 0.21943850 0.25736000 0.02241450
v 0.21343065 0.26661179 -0.05830885
v 0.21672687 0.25512744 -0.07100110
v 0.21752925 0.25103413 -0.07507606
v 0.21738448 0.25766545 -0.06066745
v 0.20760501 0.27789900 -0.05662000
v 0.19698437 0.29365988 -0.06262600
v 0.18671299 0.31266300 -0.03855875
v 0.18188636 0.31688238 -0.04919548
v 0.18940656 0.29647139 -0.08655281
v 0.19193013 0.29639050 -0.07689875
v 0.20008101 0.27902400 -0.08931400
v 0.20442349 0.27481850 -0.08205500
v 0.21385644 0.23537944 -0.11232413
v 0.21766148 0.22064668 -0.11541609
v 0.22619455 0.19767384 -0.10514728
v 0.22886687 0.19188437 -0.09853863
v 0.22580704 0.18540706 -0.11295998
v 0.22295595 0.18510713 -0.12158807
v 0.22224075 0.17522551 -0.12630525
v 0.22895987 0.17881120 -0.10440405
v 0.23465510 0.16606566 -0.08394487
v 0.23260025 0.14854675 -0.09061225
v 0.23506100 0.14170900 -0.07677100
v 0.23831200 0.15533749 -0.06375050
v 0.23883098 0.13581577 -0.05312761
v 0.23258016 0.12598768 -0.08116047
v 0.23659632 0.14076706 -0.06809150
v 0.23333800 0.13819200 -0.08368900
v 0.22342127 0.10853537 -0.11119978
v 0.22412348 0.09936347 -0.10100368
v 0.22132183 0.07495450 -0.08963538
v 0.22768584 0.09744998 -0.07922093
v 0.21643731 0.06116736 -0.09899569
v 0.21466975 0.04530867 -0.08611177
v 0.21689096 0.04978112 -0.07932560
v 0.21932900 0.05729550 -0.07480700
v 0.22352367 0.07318967 -0.07031318
v 0.20961249 0.02203139 -0.07518574
v 0.21938200 0.07629500 -0.10101500
v 0.21812400 0.05766300 -0.08437775
v 0.22583991 0.10031120 -0.09325602
v 0.23077680 0.09623723 -0.05368933
v 0.22455512 0.07964538 -0.07365763
v 0.22568951 0.07999050 -0.06400150
v 0.23822949 0.11398837 -0.03048951
v 0.24129900 0.11777200 -0.00975800
v 0.24096000 0.12878725 -0.03141225
v 0.23906399 0.10899000 -0.00874100
v 0.23840963 0.11216062 -0.02389600
v 0.24069624 0.12426037 -0.02827074
v 0.23239950 0.09595275 -0.03701675
v 0.20857801 0.01649600 -0.06939400
v 0.22869575 0.10780513 -0.08458850
v 0.23299424 0.11145369 -0.06353570
v 0.22531060 0.12689632 -0.11347217
v 0.22939347 0.16382646 -0.10525994
v 0.22871500 0.15834200 -0.10770500
v 0.22607835 0.15765254 -0.11706504
v 0.22743792 0.14507456 -0.11128433
v 0.22612400 0.16949899 -0.11580900
v 0.22870850 0.15164699 -0.10710700
v 0.22468450 0.11078400 -0.10668700
v 0.22813112 0.11845488 -0.09659387
v 0.22065050 0.07899500 -0.09766700
v 0.22884250 0.13095700 -0.10078350
v 0.22898300 0.13917300 -0.10339400
v 0.23720950 0.15263026 -0.06991177
v 0.23068551 0.09349050 -0.04688200
v 0.20755450 0.01441800 -0.07298300
v 0.23288250 0.18929650 -0.08323200
v 0.23412019 0.18559959 -0.08021919
v 0.23534595 0.19180137 -0.06930771
v 0.23994078 0.19069873 -0.04002181
v 0.23806500 0.18120625 -0.06075250
v 0.23844800 0.18536151 -0.05564950
v 0.22709250 0.20409151 -0.09715350
v 0.22742800 0.21209000 -0.08880900
v 0.23061898 0.20137347 -0.08503805
v 0.23301101 0.20065700 -0.07365400
v 0.23256600 0.16864100 -0.09197700
v 0.23554200 0.10255300 -0.02530100
v 0.23772199 0.10776200 -0.01904000
v 0.22208771 0.19991379 -0.11701151
v 0.22751600 0.21472900 -0.08569300
v 0.23640400 0.10471500 -0.02292900
v 0.22066000 0.21956700 -0.10687300
v 0.21348099 0.24592000 -0.10055300
v 0.21834694 0.23004513 -0.10350675
v 0.21006831 0.25235521 -0.10301670
v 0.21821100 0.24594000 -0.08236000
v 0.21360950 0.24830200 -0.09647838
v 0.23348100 0.21545200 -0.04960700
v 0.23963650 0.19633400 -0.03173850
v 0.24333595 0.15185555 -0.03098472
v 0.24495788 0.17074664 -0.00273770
v 0.24352101 0.17843500 -0.01348562
v 0.24518500 0.16749699 0.00327500
v 0.24377215 0.16334584 -0.02721257
v 0.24133600 0.17059000 -0.04451600
v 0.23688375 0.16785425 -0.07153925
v 0.24072575 0.14629000 -0.04707850
v 0.22960350 0.12460550 -0.09396650
v 0.24182475 0.14301687 -0.03731838
v 0.24315938 0.12907250 -0.01124013
v 0.24453600 0.14399125 -0.01398700
v 0.24517200 0.13515700 0.00718500
v 0.24560000 0.14947200 -0.00287600
v 0.24140051 0.17347776 0.04271025
v 0.23564254 0.19675187 0.05092703
v 0.23301125 0.19608650 0.06133325
v 0.23839024 0.20197231 0.02499685
v 0.23401112 0.21760337 0.02455637
v 0.24170775 0.18838100 0.01882600
v 0.24452162 0.17327762 0.00508838
v 0.23995500 0.20025900 0.00295300
v 0.23675125 0.20960776 -0.03104375
v 0.23858975 0.20604900 -0.01074350
v 0.23431950 0.22108988 -0.01832513
v 0.23475450 0.20967925 -0.05042950
v 0.22623099 0.23085500 -0.06889100
v 0.22230100 0.24724850 -0.05640150
v 0.22627498 0.23742952 -0.05499791
v 0.23926000 0.20212650 0.01092850
v 0.23722950 0.21016050 0.01136350
v 0.24116400 0.19414000 -0.01320200
v 0.22295751 0.24758500 0.02845200
v 0.21773875 0.25635100 0.03877050
v 0.21478801 0.26040250 0.04561800
v 0.20033028 0.28411472 0.05517224
v 0.20871225 0.26821675 0.05583325
v 0.17956001 0.31117699 0.06182400
v 0.17454797 0.30754211 0.08355025
v 0.24360700 0.16642199 0.03366400
v 0.16488771 0.33544130 0.02865506
v 0.22385942 0.21180316 -0.10325982
v 0.23716275 0.12175100 -0.04942325
v 0.18889425 0.31139738 -0.02389137
v 0.20936289 0.28048840 0.00355115
v 0.19824037 0.29661812 -0.04014513
v 0.21058119 0.27041246 -0.06471174
v 0.20022375 0.29065287 0.03461100
v 0.22676200 0.22149099 0.05840900
v 0.23720400 0.19409699 -0.05558575
f 160 162 161
f 164 161 162
f 164 162 3
f 162 163 3
f 163 165 3
f 163 194 165
f 194 169 165
f 194 334 169
f 167 334 194
f 167 172 334
f 152 172 167
f 172 152 170
f 172 170 171
f 172 171 178
f 172 178 169
f 178 174 169
f 174 178 176
f 174 176 177
f 176 173 177
f 177 173 11
f 176 191 173
f 171 191 176
f 171 192 191
f 192 175 191
f 171 337 192
f 191 175 173
f 175 9 173
f 173 9 12
f 10 173 12
f 174 177 5
f 169 174 5
f 169 5 4
f 178 171 176
f 171 170 151
f 171 151 149
f 151 150 149
f 151 188 150
f 189 188 151
f 189 197 188
f 189 190 197
f 197 190 147
f 197 147 148
f 148 147 150
f 150 147 146
f 146 147 196
f 147 139 196
f 196 139 198
f 198 139 140
f 198 140 143
f 144 198 143
f 146 198 144
f 146 144 337
f 146 337 149
f 144 145 337
f 145 207 337
f 207 145 113
f 207 113 208
f 9 207 208
f 9 208 111
f 111 6 9
f 210 6 111
f 110 210 111
f 110 109 210
f 109 211 210
f 109 212 211
f 212 108 211
f 106 108 212
f 106 289 108
f 108 289 20
f 289 213 20
f 288 213 289
f 287 288 289
f 291 287 289
f 288 214 213
f 288 286 214
f 288 335 286
f 100 335 288
f 100 284 335
f 284 277 335
f 277 278 335
f 335 278 276
f 335 276 215
f 215 283 335
f 335 283 214
f 283 18 214
f 215 217 283
f 283 217 218
f 218 19 283
f 19 218 219
f 217 219 218
f 217 260 219
f 220 260 217
f 220 280 260
f 280 256 260
f 280 257 256
f 257 258 256
f 257 261 258
f 261 259 258
f 221 259 261
f 280 221 261
f 271 221 280
f 274 221 271
f 275 274 271
f 273 274 275
f 273 275 272
f 343 273 272
f 273 343 95
f 273 95 319
f 293 273 319
f 296 273 293
f 67 296 293
f 67 68 296
f 314 296 68
f 314 295 296
f 314 297 295
f 297 85 295
f 295 85 298
f 94 295 298
f 94 298 92
f 298 299 92
f 298 90 299
f 299 90 91
f 299 91 93
f 93 91 300
f 93 300 221
f 300 267 221
f 224 267 300
f 224 90 267
f 301 267 90
f 267 301 225
f 303 225 301
f 336 225 303
f 225 336 226
f 226 336 253
f 336 254 253
f 336 232 254
f 336 245 232
f 250 245 336
f 247 250 336
f 304 250 247
f 304 245 250
f 246 245 304
f 246 249 245
f 242 245 249
f 249 282 242
f 249 248 282
f 248 285 282
f 282 285 242
f 285 281 242
f 281 251 242
f 242 251 268
f 268 244 242
f 242 244 243
f 243 244 237
f 244 236 237
f 237 236 243
f 242 243 232
f 243 231 232
f 243 240 231
f 231 240 233
f 240 234 233
f 235 234 240
f 236 235 240
f 236 238 235
f 252 238 236
f 252 269 238
f 238 269 234
f 234 269 17
f 235 238 234
f 234 17 233
f 233 17 13
f 14 233 13
f 239 233 14
f 264 233 239
f 231 233 264
f 231 264 230
f 230 264 14
f 230 14 229
f 262 230 229
f 263 230 262
f 263 262 255
f 302 263 255
f 226 263 302
f 302 255 226
f 226 255 265
f 266 265 255
f 266 255 259
f 259 222 266
f 259 255 15
f 16 259 15
f 255 229 15
f 228 226 265
f 226 228 223
f 227 226 223
f 267 227 223
f 267 223 222
f 230 263 241
f 253 241 263
f 232 241 253
f 262 229 255
f 229 14 15
f 241 231 230
f 232 231 241
f 245 242 232
f 254 232 253
f 253 263 226
f 227 225 226
f 267 225 227
f 90 303 301
f 294 303 90
f 89 303 294
f 89 304 303
f 89 88 304
f 88 306 304
f 306 88 87
f 87 88 307
f 307 88 86
f 83 307 86
f 83 86 85
f 82 83 85
f 314 82 85
f 82 314 81
f 81 77 82
f 77 333 82
f 333 84 82
f 308 333 77
f 77 79 308
f 78 79 77
f 310 78 77
f 310 77 309
f 310 309 53
f 310 53 50
f 28 310 50
f 50 53 54
f 50 54 49
f 49 54 312
f 54 75 312
f 75 311 312
f 311 323 312
f 311 73 323
f 73 74 323
f 311 74 73
f 313 74 311
f 72 313 311
f 71 313 72
f 71 70 313
f 313 70 69
f 69 70 68
f 74 313 69
f 74 69 315
f 315 69 317
f 69 325 317
f 317 325 66
f 325 67 66
f 318 317 66
f 318 66 65
f 64 318 65
f 59 318 64
f 126 318 59
f 124 318 126
f 124 315 318
f 124 57 315
f 57 324 315
f 58 324 57
f 55 324 58
f 58 312 55
f 312 58 56
f 312 56 123
f 42 312 123
f 326 42 123
f 123 133 326
f 200 326 133
f 40 326 200
f 40 200 136
f 136 200 135
f 136 135 137
f 341 136 137
f 186 341 137
f 184 341 186
f 37 341 184
f 37 35 341
f 35 38 341
f 38 39 341
f 39 38 35
f 329 39 35
f 39 329 330
f 330 329 31
f 26 31 329
f 330 328 39
f 39 328 327
f 39 327 40
f 40 327 41
f 48 41 327
f 46 48 327
f 327 47 46
f 48 46 47
f 48 47 44
f 45 44 47
f 330 44 45
f 330 27 44
f 29 44 27
f 29 30 44
f 30 52 44
f 44 52 342
f 342 52 50
f 51 50 52
f 28 51 52
f 342 49 44
f 44 49 43
f 43 49 42
f 43 42 41
f 44 43 41
f 30 28 52
f 44 41 48
f 40 41 42
f 329 35 26
f 25 26 35
f 331 25 35
f 36 331 35
f 331 36 180
f 1 331 180
f 32 331 1
f 32 33 331
f 33 332 331
f 332 23 331
f 23 332 24
f 332 22 24
f 332 1 22
f 34 332 33
f 332 34 32
f 34 33 32
f 332 32 1
f 180 156 1
f 180 182 156
f 180 179 182
f 179 181 182
f 36 182 181
f 36 183 182
f 182 183 37
f 193 182 37
f 153 182 193
f 193 151 153
f 152 153 151
f 182 153 152
f 182 152 166
f 166 168 182
f 160 182 168
f 182 160 154
f 156 154 160
f 156 160 155
f 166 160 168
f 160 166 163
f 163 166 167
f 36 37 183
f 154 156 182
f 1 156 155
f 1 155 157
f 155 161 157
f 158 157 161
f 159 161 155
f 1 157 158
f 1 158 2
f 2 158 164
f 179 180 36
f 331 23 25
f 36 35 37
f 193 37 184
f 184 185 193
f 193 185 189
f 185 187 189
f 184 187 185
f 187 184 186
f 186 190 187
f 186 137 338
f 186 338 195
f 338 139 195
f 139 338 118
f 338 119 118
f 138 119 338
f 338 199 138
f 199 119 138
f 199 121 119
f 121 199 134
f 135 134 199
f 135 133 134
f 134 120 121
f 134 122 120
f 134 123 122
f 123 125 122
f 125 123 132
f 125 132 124
f 122 125 120
f 120 125 131
f 125 126 131
f 120 131 127
f 127 131 128
f 128 131 322
f 131 59 322
f 128 322 129
f 129 322 321
f 321 322 62
f 322 60 62
f 322 61 60
f 322 320 61
f 322 99 320
f 63 99 322
f 64 63 322
f 65 99 63
f 65 319 99
f 65 316 319
f 60 61 62
f 129 321 130
f 128 129 130
f 127 128 130
f 127 130 117
f 117 130 141
f 130 204 141
f 141 204 201
f 201 204 340
f 204 202 340
f 340 202 203
f 106 340 203
f 340 106 109
f 116 340 109
f 110 340 116
f 115 340 110
f 205 340 115
f 141 340 205
f 142 141 205
f 140 141 142
f 140 118 141
f 142 205 115
f 142 115 339
f 143 142 339
f 145 339 115
f 115 114 145
f 145 114 206
f 145 206 112
f 112 206 110
f 115 110 206
f 114 115 206
f 203 105 106
f 290 105 203
f 290 103 105
f 103 102 105
f 102 100 105
f 104 100 102
f 104 98 100
f 104 99 98
f 99 100 98
f 99 97 100
f 292 97 99
f 292 319 97
f 103 104 102
f 105 291 106
f 291 105 101
f 101 105 288
f 204 203 202
f 340 141 201
f 130 203 204
f 118 117 141
f 117 119 127
f 119 120 127
f 121 120 119
f 119 117 118
f 137 199 338
f 136 341 39
f 137 135 199
f 136 39 40
f 200 133 135
f 134 133 123
f 40 42 326
f 123 56 132
f 56 58 132
f 58 57 132
f 132 57 124
f 125 124 126
f 126 59 131
f 59 64 322
f 64 65 63
f 65 66 316
f 316 66 293
f 69 67 325
f 75 54 311
f 54 76 311
f 76 71 311
f 54 80 76
f 80 54 77
f 80 77 71
f 49 312 42
f 342 50 49
f 53 309 54
f 309 77 54
f 71 77 81
f 87 83 82
f 86 88 305
f 305 89 86
f 83 87 307
f 88 89 305
f 86 89 294
f 298 86 294
f 267 222 221
f 91 224 300
f 91 90 224
f 298 294 90
f 92 299 93
f 92 93 274
f 94 92 273
f 85 86 298
f 296 295 94
f 70 314 68
f 69 68 67
f 66 67 293
f 273 296 94
f 319 95 97
f 95 279 97
f 97 279 96
f 96 284 97
f 95 272 279
f 279 272 278
f 279 278 284
f 272 270 278
f 278 270 216
f 270 271 216
f 271 220 216
f 272 271 270
f 343 272 95
f 273 92 274
f 272 275 271
f 274 93 221
f 222 259 221
f 258 259 16
f 260 258 16
f 256 258 260
f 271 280 220
f 216 220 217
f 215 216 217
f 276 216 215
f 278 216 276
f 284 278 277
f 100 97 284
f 105 100 288
f 286 335 214
f 214 18 213
f 213 18 20
f 20 18 21
f 106 291 289
f 211 108 20
f 211 20 107
f 8 211 107
f 107 20 8
f 109 106 212
f 116 109 110
f 112 110 111
f 113 112 111
f 6 210 209
f 210 7 209
f 209 7 6
f 111 208 113
f 112 113 145
f 145 144 339
f 144 143 339
f 143 140 142
f 139 118 140
f 195 139 147
f 196 198 146
f 190 195 147
f 189 187 190
f 193 189 151
f 188 148 150
f 150 146 149
f 152 151 170
f 152 167 166
f 334 172 169
f 169 4 165
f 167 194 163
f 165 4 3
f 158 161 164
f 160 163 162
f 159 160 161

