# https://github.com/mikedh/trimesh
v 0.23358046 0.02631197 -0.04204416
v 0.23909773 0.01868656 -0.04542180
v 0.23563043 0.01828745 -0.04323339
v 0.22266059 0.02393040 -0.03598724
v 0.22188337 0.02824472 -0.03528042
v 0.24220750 0.01299533 -0.04588594
v 0.21375914 0.02078007 -0.02934166
v 0.21423584 0.02573922 -0.02979106
v 0.22342750 0.01560150 -0.03417600
v 0.23865600 0.01021250 -0.04311350
v 0.21323049 0.01719350 -0.02710200
v 0.21873400 0.01646675 -0.03132900
v 0.24148500 0.00796200 -0.04358400
v 0.21630463 0.03127222 -0.03013847
v 0.21787500 0.03445725 -0.02756750
v 0.24195520 0.01786201 -0.04614933
v 0.23683800 0.02838800 -0.04247800
v 0.21239650 0.01357900 -0.02107850
v 0.23241429 0.03195937 -0.03950541
v 0.24557607 0.00893612 -0.04355462
v 0.22053389 0.03423926 -0.03208325
v 0.24299024 0.02334109 -0.04533373
v 0.23656390 0.03308335 -0.04021681
v 0.23387200 0.03789400 -0.03506300
v 0.21352825 0.02869675 -0.02765925
v 0.22708140 0.03905176 -0.03168122
v 0.23159854 0.03644277 -0.03643027
v 0.24173120 0.02632827 -0.04407240
v 0.23272800 0.04193100 -0.02878800
v 0.24306636 0.03201260 -0.03962790
v 0.23489698 0.03984317 -0.03277823
v 0.22808621 0.04630175 -0.01753732
v 0.24536859 0.01754009 -0.04582477
v 0.27317999 -0.00412475 -0.05235500
v 0.26881999 -0.00912300 -0.05314800
v 0.26519047 -0.01451148 -0.04908059
v 0.27505259 -0.00282717 -0.04968191
v 0.26128200 -0.01784800 -0.04650200
v 0.27944899 0.00466400 -0.05108400
v 0.25471606 -0.02249238 -0.04407069
v 0.26425801 -0.01452905 -0.04376131
v 0.24891901 -0.02432758 -0.03922077
v 0.28350100 0.01447900 -0.04683700
v 0.27615489 0.00113524 -0.04466920
v 0.28122253 0.00705527 -0.04935620
v 0.28298501 0.01228450 -0.05012550
v 0.28569174 0.02064359 -0.04826294
v 0.24688700 -0.02666800 -0.04278300
v 0.26125138 -0.01717125 -0.05000238
v 0.28765200 0.03374337 -0.04564525
v 0.20882650 -0.02795550 -0.02421500
v 0.23237599 -0.03049675 -0.03786325
v 0.23739211 -0.02896073 -0.03715252
v 0.23585215 -0.02628918 -0.03260852
v 0.22965737 -0.02236213 -0.02663999
v 0.25849500 -0.01790500 -0.04136000
v 0.28579094 0.02244950 -0.04575342
v 0.28742099 0.04475950 -0.04100900
v 0.28159527 0.01231407 -0.04431082
v 0.28721071 0.03483302 -0.04205452
v 0.28477700 0.05105400 -0.03619950
v 0.27799033 0.00552833 -0.04361658
v 0.28566047 0.04260267 -0.03808848
v 0.28600960 0.02783375 -0.04227199
v 0.28189635 0.04553998 -0.03502750
v 0.26839451 -0.00745210 -0.04220775
v 0.27836053 0.06148422 -0.02958566
v 0.28244010 0.02008165 -0.04178661
v 0.25932178 -0.01443619 -0.03960543
v 0.23691034 -0.02164769 -0.02992978
v 0.27675399 0.05823000 -0.02980700
v 0.26056003 0.07355612 -0.01885178
v 0.27221336 0.00531648 -0.04092453
v 0.22947328 -0.01139191 -0.02327981
v 0.22785400 -0.01414700 -0.02318750
v 0.24428900 0.07594500 -0.00997000
v 0.26937865 0.06450140 -0.02541670
v 0.24249300 0.07825500 -0.00881900
v 0.25221559 -0.00902422 -0.03490897
v 0.22351799 -0.01177700 -0.02100225
v 0.25362981 0.07744240 -0.01422650
v 0.24565201 0.07937700 -0.01022000
v 0.21824600 -0.01207400 -0.01911300
v 0.27362991 0.06809115 -0.02610224
v 0.27541179 0.01225731 -0.04091211
v 0.25449529 -0.00516699 -0.03636828
v 0.23874125 0.07051575 -0.00899250
v 0.21658524 -0.00456557 -0.01746992
v 0.25171500 0.08052200 -0.01317700
v 0.26558912 0.07644575 -0.02088012
v 0.27692979 0.03739050 -0.03640460
v 0.27849574 0.06457400 -0.02984725
v 0.27793100 0.03431800 -0.03726600
v 0.27892299 0.02204275 -0.04010481
v 0.26187917 0.03701437 -0.03529087
v 0.24770600 0.05356400 -0.02484300
v 0.23599655 0.04658439 -0.02334115
v 0.24261980 0.04286285 -0.02859747
v 0.25330282 0.05176576 -0.02761529
v 0.25248722 0.03489674 -0.03469986
v 0.23495882 -0.00701957 -0.02531655
v 0.22335550 -0.00573922 -0.02075920
v 0.25628501 0.08067400 -0.01572100
v 0.26543798 -0.00447961 -0.03980069
v 0.26408800 0.05247900 -0.02971900
v 0.27224274 0.05441080 -0.03013159
v 0.24661216 0.07308676 -0.01244197
v 0.27368935 0.02406427 -0.03910544
v 0.27480785 0.04070529 -0.03517018
v 0.23205651 -0.00394491 -0.02450520
v 0.26100442 0.01780851 -0.03950402
v 0.26372865 0.00705037 -0.03964251
v 0.24922949 -0.00440925 -0.03420900
v 0.26173771 0.02430483 -0.03879507
v 0.23301550 0.06328550 -0.00932600
v 0.21956100 -0.00002525 -0.01967950
v 0.21552899 0.00098700 -0.01735100
v 0.22042189 -0.00296115 -0.01976905
v 0.25701695 0.02646385 -0.03828047
v 0.25787706 0.00267063 -0.03852400
v 0.26084296 0.01126989 -0.03973321
v 0.22302601 -0.00125000 -0.02140600
v 0.22898300 0.05263300 -0.01305300
v 0.25603899 0.00021700 -0.03796900
v 0.21331400 0.00670900 -0.01583800
v 0.25515705 0.01064926 -0.04039452
v 0.22585900 0.04605500 -0.01489800
v 0.25384478 0.01946339 -0.04126898
v 0.25313171 0.02946166 -0.03751483
v 0.21040649 0.00323550 -0.01042100
v 0.21933850 0.04025250 -0.00813800
v 0.24724130 0.03722443 -0.03328181
v 0.25442746 0.02306032 -0.03997661
v 0.25275451 0.00393150 -0.03911000
v 0.25064771 0.02469112 -0.04126094
v 0.24535091 0.01382763 -0.04587986
v 0.21077138 0.02278218 -0.02227518
v 0.21417963 0.02626888 -0.01314335
v 0.21202259 0.02849152 -0.02516546
v 0.21285554 0.02790892 -0.01911292
v 0.21736340 0.03359346 -0.01335976
v 0.21245174 0.01608398 -0.01360622
v 0.21237526 0.01490522 -0.01016115
v 0.21606226 0.03048064 -0.01146284
v 0.21739068 0.03512818 -0.01875344
v 0.21131816 0.01192059 -0.00861523
v 0.20922700 0.01079400 -0.00339400
v 0.22060261 0.03935216 -0.01341543
v 0.21077912 0.00607393 -0.00992808
v 0.22381334 0.04252631 -0.01642552
v 0.21268202 0.01057007 -0.01494620
v 0.22443763 0.04194259 -0.02101659
v 0.21152201 0.01732350 -0.02361350
v 0.24097812 -0.00054877 -0.03267371
v 0.23652200 -0.00175422 -0.02758104
v 0.24598989 -0.00373757 -0.03315248
v 0.21652840 0.01285930 -0.02772076
v 0.21450155 0.01013478 -0.02279613
v 0.22988622 0.00550084 -0.02928966
v 0.24225794 0.00372636 -0.04043033
v 0.24540240 0.00144003 -0.03855148
v 0.23975474 0.00551727 -0.04101848
v 0.23050781 0.01025460 -0.03558241
v 0.21560295 0.00371056 -0.01865179
v 0.22776419 0.00209218 -0.02498111
f 151 125 153
f 137 151 153
f 137 153 8
f 139 137 8
f 142 151 137
f 143 151 142
f 143 146 151
f 146 149 151
f 147 149 146
f 147 130 149
f 130 125 149
f 147 146 144
f 131 147 144
f 131 144 148
f 148 144 141
f 148 141 140
f 148 140 145
f 148 145 15
f 148 15 150
f 150 15 152
f 150 152 32
f 32 127 150
f 131 150 127
f 127 32 123
f 115 123 32
f 115 32 97
f 87 115 97
f 87 97 107
f 107 97 72
f 81 107 72
f 72 90 81
f 103 81 90
f 89 81 103
f 89 82 81
f 82 78 81
f 78 76 81
f 76 87 81
f 90 72 67
f 90 67 84
f 92 84 67
f 92 90 84
f 61 92 67
f 61 67 63
f 67 65 63
f 65 67 71
f 71 67 77
f 65 71 77
f 77 106 65
f 77 105 106
f 105 100 106
f 106 100 95
f 95 100 119
f 100 129 119
f 119 129 133
f 129 135 133
f 135 22 133
f 133 22 128
f 22 33 128
f 128 33 136
f 136 126 128
f 126 136 120
f 120 136 20
f 136 6 20
f 136 16 6
f 2 6 16
f 22 2 16
f 22 28 2
f 28 1 2
f 28 17 1
f 23 17 28
f 30 23 28
f 129 30 28
f 132 30 129
f 129 28 22
f 30 132 23
f 31 23 132
f 132 98 31
f 100 98 132
f 99 98 100
f 77 99 100
f 72 99 77
f 72 96 99
f 96 97 99
f 99 97 98
f 98 29 31
f 29 98 32
f 31 24 23
f 31 27 24
f 32 27 31
f 27 32 26
f 24 27 23
f 27 19 23
f 27 21 19
f 26 21 27
f 32 21 26
f 25 21 32
f 19 21 5
f 21 14 5
f 14 8 5
f 14 25 8
f 25 7 8
f 7 25 11
f 8 7 5
f 5 7 4
f 4 7 3
f 3 7 9
f 7 11 9
f 10 3 9
f 6 3 10
f 1 4 3
f 5 4 1
f 19 5 1
f 23 19 1
f 17 23 1
f 1 3 2
f 6 2 3
f 20 6 10
f 124 120 20
f 120 124 86
f 104 120 86
f 112 120 104
f 121 120 112
f 111 121 112
f 111 126 121
f 94 111 112
f 85 94 112
f 85 112 73
f 62 85 73
f 73 104 62
f 104 66 62
f 104 79 66
f 66 79 69
f 79 75 69
f 74 75 79
f 101 74 79
f 86 101 79
f 113 101 86
f 113 110 101
f 113 155 110
f 155 165 110
f 159 165 155
f 159 157 165
f 157 158 165
f 165 158 164
f 165 164 116
f 164 117 116
f 18 117 164
f 11 158 157
f 11 18 158
f 18 164 158
f 12 11 157
f 163 12 157
f 163 13 12
f 162 13 163
f 159 162 163
f 154 162 159
f 160 162 154
f 161 160 154
f 154 156 161
f 161 156 113
f 124 161 113
f 134 161 124
f 20 161 134
f 161 20 162
f 20 13 162
f 154 159 156
f 163 157 159
f 156 159 155
f 110 165 116
f 101 110 102
f 118 102 110
f 110 122 118
f 122 117 118
f 118 117 88
f 118 88 102
f 88 83 102
f 101 102 83
f 124 113 86
f 101 83 74
f 74 80 75
f 75 70 69
f 55 70 75
f 70 55 54
f 70 54 42
f 54 53 42
f 53 54 51
f 51 52 53
f 53 52 48
f 42 53 48
f 42 48 40
f 56 42 40
f 41 56 40
f 66 56 41
f 66 42 56
f 44 66 41
f 44 41 37
f 62 44 37
f 62 37 45
f 59 62 45
f 68 62 59
f 94 62 68
f 93 94 68
f 93 91 94
f 94 91 108
f 91 114 108
f 108 114 111
f 119 111 114
f 119 128 111
f 114 91 95
f 109 95 91
f 65 95 109
f 65 109 91
f 65 91 93
f 65 93 68
f 64 68 59
f 68 64 63
f 60 63 64
f 60 64 50
f 64 47 50
f 64 57 47
f 57 45 47
f 57 43 45
f 45 46 47
f 46 45 39
f 39 45 34
f 58 60 50
f 58 63 60
f 64 59 43
f 57 64 43
f 43 59 45
f 41 36 37
f 41 38 36
f 37 36 35
f 37 35 45
f 36 49 35
f 40 49 36
f 40 48 49
f 38 40 36
f 41 40 38
f 55 51 54
f 69 70 42
f 66 69 42
f 62 66 44
f 94 85 62
f 108 111 94
f 112 104 73
f 104 86 79
f 121 126 120
f 111 128 126
f 33 16 136
f 22 16 33
f 129 22 135
f 119 133 128
f 100 132 129
f 114 95 119
f 105 77 100
f 65 106 95
f 65 68 63
f 61 63 58
f 67 72 77
f 72 97 96
f 81 87 107
f 97 32 98
f 145 139 15
f 140 139 145
f 140 137 139
f 140 138 137
f 141 138 140
f 144 138 141
f 131 148 150
f 146 143 144
f 144 143 142
f 138 142 137
f 144 142 138
f 151 149 125

