v -0.1750145 0.0439155125 0.120466875
v -0.18112475 0.0400659 0.112667125
v -0.178927625 0.0269279 0.1149045
v -0.1651735 0.02010777625 0.128332875
v -0.1763965 0.0142331125 0.117355
v -0.169722828125 0.00037255475 0.12331271875
v -0.1644634375 -0.01258756275 0.1274864375
v -0.140326125 -0.013188725 0.147990625
v -0.136057 -0.0224099375 0.150863875
v -0.115821625 -0.0605051375 0.153774375
v -0.096704225 -0.041502475 0.1703145
v -0.0691743875 -0.0378391 0.178709
v -0.0823334875 -0.0382804375 0.17534275
v -0.02240335 -0.02980755 0.193231375
v -0.01186560875 -0.0139075875 0.202679125
v 0.0009080225 -0.00978250875 0.20674225
v 0.01491376625 -0.005758175 0.201872
v 0.0172075004688 -0.020292934375 0.19775659375
v 0.0236069625 -0.046270225 0.187293875
v 0.0968938 -0.058 0.16397625
v 0.1084347875 -0.0570768625 0.159965125
v 0.143048 -0.047764375 0.139790875
v -0.102188113889 -0.0565374944444 0.162984361111
v 0.160348125 0.0710798625 0.136833
v 0.172300125 0.0595609625 0.124245375
v 0.16884175 0.0697509375 0.128961125
v 0.167702625 0.0842307375 0.131922
v 0.178554375 0.0724527875 0.118241625
v 0.179558875 0.0614420375 0.116100625
v -0.18123025 0.0063851475 0.110325125
v -0.16999175 0.03303685 0.12468875
v -0.1603295 0.00723189 0.132587625
v 0.1820475 -0.00134563475 0.105927
v 0.17468525 -0.0157548625 0.1144755
v 0.171505375 -0.0319422 0.112378875
v 0.171845125 -0.04725555 0.0955213875
v 0.159298125 -0.0592362125 0.107804875
v 0.153038625 -0.068277875 0.103956425
v 0.16489175 -0.05958505 0.0926704375
v 0.155450875 -0.0694206 0.0934113125
v -0.149327625 -0.0157120175 0.1412555
v 0.156954 -0.0552078375 0.117444
v 0.160947 -0.0442962375 0.1209425
v 0.166553125 -0.01532240875 0.125138625
v -0.15530875 -0.00551096625 0.136739375
v 0.16648475 -0.00441906875 0.12655875
v -0.127949125 -0.0371283875 0.15492275
v 0.17036425 -0.042434575 0.1064150625
v -0.12228 -0.04566745 0.156848125
v 0.164862875 -0.0327180625 0.121875125
v 0.174939125 -0.00111138225 0.116985125
v 0.18149025 -0.012387951 0.10371
v 0.15965925 0.0818506875 0.13937625
v -0.128229875 -0.054062475 0.149143125
v -0.132571125 -0.062333875 0.14030475
v -0.136839375 -0.0428897125 0.147146375
v -0.1442265 -0.0508442625 0.1371195
v -0.171867 -0.0385073375 0.108869875
v -0.179471 -0.0255846625 0.10562325
v -0.183445625 -0.0131771275 0.103255625
v -0.179633375 -0.0053430025 0.11094175
v -0.17248325 -0.0193510684531 0.117044109375
v -0.16598559375 -0.032340290625 0.120726515625
v 0.132962375 -0.02109804 0.15231025
v 0.133007140625 -0.03762369375 0.151242546875
v 0.12040859375 -0.040229365625 0.158739421875
v 0.11847403125 -0.025873758125 0.160304359375
v 0.107330814063 -0.0432833796875 0.1649086875
v 0.0924407 -0.0487186875 0.169930625
v 0.06608455 -0.0529260625 0.175543125
v 0.0482881 -0.0442738 0.18229475
v 0.035842125 -0.045251325 0.184812375
v 0.0635693203125 -0.039038540625 0.179590859375
v 0.077523046875 -0.0357301234375 0.17625625
v 0.1016340625 -0.0147074 0.1658305
v 0.11534175 -0.0116346275 0.159715625
v 0.127669125 -0.0109835775 0.1539975
v 0.0691400375 -0.0082580075 0.17205325
v 0.042389509375 -0.0144447382812 0.183641359375
v 0.03302743125 -0.0312365390625 0.1887120625
v 0.0601825953125 -0.0249503103125 0.1801648125
v 0.0465454546875 -0.028143615625 0.1845105625
v 0.0296419921875 -0.0172971720312 0.190587640625
v 0.023214275 -0.00254530125 0.1903925
v 0.03862075 0.00083770375 0.179650125
v 0.03229395 0.010233385 0.18034275
v 0.05064185 0.00173961 0.17395
v 0.063246875 0.00292394125 0.16960475
v 0.0222073625 0.0077304575 0.185044875
v 0.0556622234375 -0.0114064684375 0.17768659375
v 0.087864275 -0.0180771125 0.171059625
v 0.0751960125 -0.0194110575 0.174963625
v 0.105037098438 -0.028991134375 0.166548734375
v 0.0914228984375 -0.0322898421875 0.172104984375
v 0.0801245625 -0.0499053875 0.173469875
v 0.120602625 -0.054153925 0.154582375
v 0.142687125 -0.0230819625 0.145759375
v 0.144785375 -0.0353816875 0.142327
v 0.132700375 -0.0514962875 0.147026125
v 0.0534448375 -0.0536505375 0.177488
v 0.00625103375 -0.0376541625 0.1939175
v 0.018402645 -0.0367270625 0.192464375
v 0.00370819203125 -0.0237833807813 0.20062921875
v -0.007268385 -0.0400047 0.192350875
v -0.01964138625 -0.0400634375 0.18970425
v -0.034745425 -0.044693025 0.1851645
v -0.0487936875 -0.0472382125 0.1814095
v -0.0617891625 -0.04774035 0.178332625
v -0.077278625 -0.052228090625 0.172930859375
v -0.0910588546875 -0.0545457734375 0.168060265625
v -0.0743410875 -0.0652813875 0.166519875
v -0.0887250625 -0.0664883625 0.161507125
v -0.1033998 -0.0663634375 0.15642375
v -0.0602556625 -0.062987175 0.171016125
v -0.03226395 -0.0579278375 0.178228125
v -0.0462563625 -0.060479975 0.17470725
v -0.0203606875 -0.0540546125 0.182234875
v -0.0125500625 -0.024485125 0.198628125
v -0.1098557875 -0.04868225 0.162386375
v -0.124857875 -0.0708496375 0.138406375
v -0.130582375 -0.0821821625 0.113041825
v -0.127188375 -0.077666425 0.126970625
v -0.139126234375 -0.068326015625 0.12634171875
v -0.15053975 -0.05545835 0.1269615
v -0.154007578125 -0.0627579359375 0.112440498438
v -0.15692675 -0.0662928875 0.0983931125
v -0.165188375 -0.0559726125 0.09931165
v -0.158735796875 -0.025558888125 0.131572890625
v -0.144360625 -0.03086225 0.144994375
v -0.14294425 -0.07329873125 0.11291985
v -0.145673125 -0.0766165625 0.09869055
v -0.1342115 -0.083626625 0.1004294125
v -0.165097625 -0.0501340125 0.1093257
v -0.1571135 -0.0461137375 0.12561325
v -0.15285625 -0.0384482375 0.13569575
v -0.180781 0.03403495 0.1128525
v -0.1744596875 0.029982375 0.119796625
v -0.172308 0.0395896 0.1230115
v -0.178578 0.04371685 0.116112
v -0.169981 0.0167317155625 0.1237885
v -0.167599 0.026555 0.1264415
v -0.1769455 0.02004865 0.1170595
v -0.1722160625 0.006878039 0.12117825
v -0.1651098125 0.003782028375 0.128041125
v -0.162759 0.013658905 0.130426
v -0.1805065 0.00052119 0.11069
v -0.17400125 -0.002956142875 0.1182205
v -0.1788425 0.0103172 0.1138285
v -0.1753264375 -0.0127972613125 0.1149745
v -0.168628125 -0.0160295300625 0.122420125
v -0.167148 -0.006110101 0.125414375
v -0.159968625 -0.0090685306875 0.132200875
v -0.157859 0.000850235 0.1346845
v -0.1693515625 -0.0258588875 0.1189656875
v -0.1625695 -0.02903224375 0.126333625
v -0.161641 -0.019077465 0.129532125
v -0.1544471875 -0.02193453375 0.1363334375
v -0.15264 -0.01187662 0.138775
v -0.147069 -0.024546125 0.1428151875
v -0.13931 -0.0269223 0.148736
v -0.136896 -0.01683165 0.1503395
v -0.1448465 -0.01448245 0.144645
v -0.1029648 -0.06078629375 0.1603348125
v -0.10573910625 -0.05315286875 0.1629150625
v -0.114667 -0.0546691 0.157302
v -0.1110375 -0.06432645 0.1540935
v -0.09764250625 -0.0556543125 0.16540675
v -0.093605575 -0.04811585 0.169545625
v -0.10367015 -0.0444085 0.1667375
v -0.0842406375 -0.05340935625 0.1705850625
v -0.0796296125 -0.04532879375 0.1744700625
v -0.08955215 -0.0396188 0.1730765
v -0.0702635875 -0.05098500625 0.175047375
v -0.06547255 -0.04279725 0.1785355
v -0.0751678 -0.03701035 0.1774325
v -0.014059695 -0.0410244 0.1906525
v -0.0087775275 -0.0329636875 0.195427125
v -0.01746295 -0.02712665 0.195987
v -0.02277605 -0.03522215 0.1908505
v -0.0032978975 -0.024981175 0.199962875
v 0.00232955125 -0.016793785625 0.203735625
v -0.006640335 -0.0113123 0.205249
v -0.0122599 -0.01918865 0.2006655
v 0.010580308125 -0.022099023125 0.19985975
v 0.016039229375 -0.01304635 0.199889125
v 0.008271565 -0.007697935 0.205526
v 0.02347881875 -0.018729946875 0.194421875
v 0.02759405 -0.010516919375 0.1903991875
v 0.0202981 -0.004662825 0.196052
v 0.005001056875 -0.0307296125 0.19732325
v 0.01301948 -0.03618705 0.193691
v 0.0184613875 -0.0274563375 0.19532475
v 0.02638343125 -0.0328675625 0.1908435625
v 0.03143531875 -0.02422899375 0.189983625
v 0.03447173125 -0.0382439625 0.186897875
v 0.0210027 -0.0414986 0.1899265
v 0.02900275 -0.0468105 0.185783
v 0.10796893125 -0.05022299375 0.162686375
v 0.10063144375 -0.04488573125 0.16746175
v 0.09471045 -0.0533381 0.166958
v 0.10200415 -0.0585621 0.161877
v 0.1206376875 -0.04723025625 0.1568523125
v 0.1139215625 -0.0417159125 0.16199275
v 0.114579 -0.05559675 0.1575455
v 0.1389605 -0.036477675 0.14689
v 0.132991 -0.04460488125 0.149317375
v 0.138604 -0.0503208 0.1426485
v 0.144698 -0.0423373 0.140337
v 0.1694795 0.07919335 0.1295865
v 0.163553 0.0848428 0.1360475
v 0.15865 0.07607555 0.1393215
v 0.1645765 0.0704261 0.1328605
v 0.1802575 0.06726975 0.115811
v 0.17482 0.0732856 0.1226895
v 0.1706505 0.06469105 0.126692
v 0.176088 0.0586752 0.1198135
v 0.1748121875 -0.008433122375 0.1157303125
v 0.1786345 -0.01489585 0.108167
v 0.1827245 -0.006639354 0.103237
v 0.1791695 -0.000202369 0.110959
v 0.170205 -0.0019745 0.1226575
v 0.165296 -0.010072435 0.1272715
v 0.1701705 -0.0165568 0.120503
v 0.1627055 -0.03782205 0.1223255
v 0.1648984375 -0.04413326875 0.1144520625
v 0.1712515 -0.037009 0.1094685
v 0.168586 -0.030635 0.117537
v 0.1649576875 -0.05113735 0.1068969125
v 0.16296375 -0.0586239 0.09954721875
v 0.169285 -0.0528429 0.0933108
v 0.1713835 -0.0448181 0.10082775
v 0.1584205 -0.0504899 0.1197805
v 0.1583755 -0.05725485 0.1125375
v 0.1529615 -0.0702583 0.0985677
v 0.159854 -0.0654869 0.09207475
v 0.156335 -0.0637572 0.10599
v 0.122192 -0.01022331 0.1564535
v 0.1169856875 -0.01873805125 0.1601575625
v 0.125071875 -0.02449308875 0.1568036875
v 0.1303985 -0.01600396 0.1532625
v 0.1196511875 -0.03307403125 0.159860875
v 0.1267968125 -0.038869775 0.1551741875
v 0.1324743125 -0.03046294375 0.1524355625
v 0.1445415 -0.02823965 0.143801
v 0.137943 -0.0220794 0.1492025
v 0.1266715 -0.05278055 0.15104
v 0.1117855 -0.02739094375 0.16352475
v 0.106348175 -0.036172275 0.166133125
v 0.108493 -0.013129 0.162869
v 0.10341366875 -0.0218414125 0.1663445625
v 0.09825964375 -0.03062081875 0.1694601875
v 0.09277476875 -0.0394496875 0.171393875
v 0.084496625 -0.03400805 0.174329
v 0.07889239375 -0.0428233 0.1751133125
v 0.08707115 -0.04828405 0.1720025
v 0.05660651875 -0.04060214375 0.1809949375
v 0.05085525 -0.0489424 0.1798425
v 0.0590231 -0.05431835 0.1762755
v 0.06488625 -0.04600655 0.1778231875
v 0.0705443875 -0.03741074375 0.17801075
v 0.0731237 -0.0514539 0.174629
v 0.03975944375 -0.02968109375 0.1866146875
v 0.04277715 -0.0437246 0.1838005
v 0.0482215375 -0.0351498 0.18381
v 0.06201513125 -0.0319735375 0.18033375
v 0.05335145 -0.02656649375 0.1823588125
v 0.07587934375 -0.02861476875 0.1763981875
v 0.06704405625 -0.0232956475 0.1779339375
v 0.089729075 -0.02517278125 0.1718290625
v 0.08098085 -0.01978425 0.1735895
v 0.09475325 -0.0163708 0.168517
v 0.05746555 0.003342495 0.171129
v 0.05318039375 -0.004807805 0.175889875
v 0.06239005625 -0.009838904375 0.174854875
v 0.06674655 -0.00163373 0.170244
v 0.058030625 -0.01810762875 0.179197
v 0.0716028 -0.01487638 0.174039
v 0.03129580625 -0.00260085 0.1848951875
v 0.03594475 -0.01588172125 0.1869859375
v 0.04002088125 -0.007791290625 0.1823766875
v 0.04458290625 -0.0212353875 0.1844035
v 0.0489786875 -0.012947366875 0.1805785
v 0.04401505 0.000232965 0.177201
v 0.03549455 0.00556897 0.1800655
v 0.02667645 0.01063757 0.1823775
v 0.022452 0.00246098 0.18722
v -0.000504865 -0.038904 0.193455
v -0.0335046875 -0.05131043125 0.1816963125
v -0.0252768 -0.05666915 0.1800235
v -0.01957915 -0.0487113 0.185246
v -0.02779185 -0.0433612 0.186933
v -0.047525025 -0.05385909375 0.178058375
v -0.0392586 -0.0592036 0.176465
v -0.04175225 -0.0459733 0.183307
v -0.0615814375 -0.0564026 0.1743175625
v -0.05325285 -0.0617405 0.172928
v -0.0558511 -0.04852395 0.179521
v -0.0756334125 -0.05882926875 0.170058625
v -0.0672724 -0.064222 0.1688605
v -0.08961599375 -0.06060879375 0.1651419375
v -0.08149975 -0.06600175 0.164053
v -0.0959937 -0.0668465 0.1589295
v -0.1368959375 -0.0652369125 0.132642125
v -0.133247625 -0.07310509375 0.126668125
v -0.125052 -0.0745318 0.1336495
v -0.1288335 -0.06667695 0.13952
v -0.1443915 -0.075079525 0.10586065
v -0.139372 -0.08093735 0.09866815
v -0.131794 -0.08368355 0.1058543
v -0.1368518125 -0.07786505 0.11300039375
v -0.14116575 -0.071030425 0.11975725
v -0.1290395 -0.0801965 0.120091
v -0.152056625 -0.06034489375 0.1190991875
v -0.1486826875 -0.068234 0.11276108125
v -0.1446435625 -0.06311144375 0.1259675
v -0.13943675 -0.05644045 0.1378545625
v -0.1472935 -0.0544355 0.1315305
v -0.1611511875 -0.04825158125 0.1174791875
v -0.158859375 -0.05695761875 0.1118745125
v -0.1545415 -0.0516455 0.1248015
v -0.165233 -0.0531378 0.1044028
v -0.1619525 -0.06070985 0.0979666
v -0.1555654375 -0.064654525 0.10548980625
v -0.1515125 -0.0716651 0.09861665
v -0.1624395625 -0.03881485 0.122313875
v -0.169021375 -0.03546871875 0.1148624375
v -0.1677935 -0.04488985 0.110166
v -0.1558029375 -0.0320109125 0.1336301875
v -0.1560705 -0.04197985 0.1299595
v -0.1489145 -0.0347233 0.1406775
v -0.176049375 -0.02250881375 0.1114005625
v -0.1758645 -0.0320885 0.1073835
v -0.181573 -0.00927576 0.107099
v -0.1823715 -0.01894715 0.1035055
v -0.131663 -0.05814055 0.144075
v -0.132534625 -0.04847609375 0.14814475
v -0.1407625 -0.04695195 0.1423395
v -0.1243925 -0.05006515 0.1538215
v -0.1240215 -0.04038825 0.156961
v -0.132395 -0.0387887 0.151496
v -0.1765445 0.036812275 0.117932
v -0.17227225 0.023301825 0.1217505
v -0.16758475 0.01023313725 0.1259055
v -0.1764585 0.00366427975 0.1160375
v -0.1713975 -0.00951157025 0.1203515
v -0.1625825 -0.00264567275 0.130135
v -0.165674 -0.02253755 0.124416
v -0.157234 -0.01550511 0.1342525
v -0.14207825 -0.020702375 0.1466905
v -0.108948 -0.0582457 0.15866925
v -0.100291425 -0.050035875 0.166501
v -0.086682175 -0.046613925 0.1721675
v -0.072556275 -0.04405915 0.17655675
v -0.0157613225 -0.034075525 0.19331975
v -0.0049233325 -0.018125575 0.20270775
v 0.0094150675 -0.0149245675 0.20273475
v 0.02190805 -0.0116875625 0.19538275
v 0.011789025 -0.029169125 0.19681725
v 0.024971225 -0.025807625 0.19287775
v 0.0277136 -0.039856725 0.1884125
v 0.101387225 -0.051774575 0.16493475
v 0.1143605 -0.0486953 0.15998775
v 0.13889675 -0.0434455 0.14493
v 0.16406475 0.07763445 0.134454
v 0.175454 0.0659804 0.1212515
v 0.178902 -0.0075491095 0.109563
v 0.17018775 -0.00926565 0.12158025
v 0.1669785 -0.037415525 0.115897
v 0.1673055 -0.05190195 0.1001624
v 0.16187325 -0.05072545 0.11339725
v 0.1580945 -0.06462205 0.099032375
v 0.1237045 -0.01734238 0.1567625
v 0.126149 -0.031707075 0.15630925
v 0.13856625 -0.0293248 0.148207
v 0.12687625 -0.045866625 0.1532935
v 0.11304175 -0.03458065 0.16312325
v 0.11021725 -0.020248225 0.16334275
v 0.09959795 -0.03779425 0.16892725
v 0.085862325 -0.0411417 0.17342125
v 0.05787175 -0.0474927 0.17888075
v 0.07189675 -0.0444475 0.176574
v 0.041324325 -0.036689425 0.185382
v 0.055113525 -0.033581775 0.182127
v 0.0689412 -0.030313275 0.178431
v 0.082817175 -0.0268918 0.17421475
v 0.096589425 -0.023486125 0.1691895
v 0.0599363 -0.0032344425 0.17301175
v 0.064809825 -0.016498415 0.17661875
v 0.03366975 -0.009203135 0.186122
v 0.03797045 -0.02272645 0.18714975
v 0.051278975 -0.0196912 0.18177225
v 0.046533175 -0.0063264675 0.17898875
v 0.028973275 0.004014975 0.18364275
v -0.0018555975 -0.031921425 0.19681075
v -0.026534325 -0.050015175 0.18347825
v -0.040505425 -0.05258845 0.179886
v -0.054551975 -0.055132225 0.1762245
v -0.068608575 -0.057664975 0.17227075
v -0.082655975 -0.0598054 0.16765575
v -0.0964532 -0.061254875 0.162597
v -0.1310945 -0.0700099 0.1331545
v -0.13819325 -0.079522025 0.105879575
v -0.135185 -0.075724775 0.11994
v -0.146817 -0.065890825 0.119511
v -0.14221525 -0.05996175 0.132095
v -0.1568025 -0.05443155 0.11841975
v -0.160508 -0.058963725 0.1050023
v -0.15018775 -0.070075075 0.105753325
v -0.16519925 -0.041905775 0.116284
v -0.159349 -0.035510225 0.1281675
v -0.15167675 -0.028335925 0.13848725
v -0.17269225 -0.029015 0.11324275
v -0.17893025 -0.015914355 0.1093115
v -0.13621275 -0.05254625 0.14320725
v -0.12839375 -0.044426925 0.15265875
f 2 136 341 139
f 3 137 341 136
f 31 138 341 137
f 1 139 341 138
f 5 140 342 142
f 4 141 342 140
f 31 137 342 141
f 3 142 342 137
f 5 143 343 140
f 6 144 343 143
f 32 145 343 144
f 4 140 343 145
f 30 146 344 148
f 61 147 344 146
f 6 143 344 147
f 5 148 344 143
f 61 149 345 147
f 62 150 345 149
f 7 151 345 150
f 6 147 345 151
f 7 152 346 151
f 45 153 346 152
f 32 144 346 153
f 6 151 346 144
f 62 154 347 150
f 63 155 347 154
f 128 156 347 155
f 7 150 347 156
f 128 157 348 156
f 41 158 348 157
f 45 152 348 158
f 7 156 348 152
f 41 159 349 162
f 129 160 349 159
f 9 161 349 160
f 8 162 349 161
f 113 163 350 166
f 23 164 350 163
f 119 165 350 164
f 10 166 350 165
f 119 164 351 169
f 23 167 351 164
f 110 168 351 167
f 11 169 351 168
f 110 170 352 168
f 109 171 352 170
f 13 172 352 171
f 11 168 352 172
f 13 171 353 175
f 109 173 353 171
f 108 174 353 173
f 12 175 353 174
f 105 176 354 179
f 104 177 354 176
f 118 178 354 177
f 14 179 354 178
f 118 180 355 183
f 103 181 355 180
f 16 182 355 181
f 15 183 355 182
f 103 184 356 181
f 18 185 356 184
f 17 186 356 185
f 16 181 356 186
f 18 187 357 185
f 83 188 357 187
f 84 189 357 188
f 17 185 357 189
f 103 190 358 184
f 101 191 358 190
f 102 192 358 191
f 18 184 358 192
f 102 193 359 192
f 80 194 359 193
f 83 187 359 194
f 18 192 359 187
f 72 195 360 197
f 80 193 360 195
f 102 196 360 193
f 19 197 360 196
f 21 198 361 201
f 68 199 361 198
f 69 200 361 199
f 20 201 361 200
f 96 202 362 204
f 66 203 362 202
f 68 198 362 203
f 21 204 362 198
f 98 205 363 208
f 65 206 363 205
f 99 207 363 206
f 22 208 363 207
f 26 209 364 212
f 27 210 364 209
f 53 211 364 210
f 24 212 364 211
f 29 213 365 216
f 28 214 365 213
f 26 215 365 214
f 25 216 365 215
f 51 217 366 220
f 34 218 366 217
f 52 219 366 218
f 33 220 366 219
f 51 221 367 217
f 46 222 367 221
f 44 223 367 222
f 34 217 367 223
f 50 224 368 227
f 43 225 368 224
f 48 226 368 225
f 35 227 368 226
f 48 228 369 231
f 37 229 369 228
f 39 230 369 229
f 36 231 369 230
f 48 225 370 228
f 43 232 370 225
f 42 233 370 232
f 37 228 370 233
f 38 234 371 236
f 40 235 371 234
f 39 229 371 235
f 37 236 371 229
f 77 237 372 240
f 76 238 372 237
f 67 239 372 238
f 64 240 372 239
f 67 241 373 239
f 66 242 373 241
f 65 243 373 242
f 64 239 373 243
f 65 205 374 243
f 98 244 374 205
f 97 245 374 244
f 64 243 374 245
f 66 202 375 242
f 96 246 375 202
f 99 206 375 246
f 65 242 375 206
f 67 247 376 241
f 93 248 376 247
f 68 203 376 248
f 66 241 376 203
f 76 249 377 238
f 75 250 377 249
f 93 247 377 250
f 67 238 377 247
f 93 251 378 248
f 94 252 378 251
f 69 199 378 252
f 68 248 378 199
f 94 253 379 252
f 74 254 379 253
f 95 255 379 254
f 69 252 379 255
f 73 256 380 259
f 71 257 380 256
f 100 258 380 257
f 70 259 380 258
f 95 254 381 261
f 74 260 381 254
f 73 259 381 260
f 70 261 381 259
f 82 262 382 264
f 80 195 382 262
f 72 263 382 195
f 71 264 382 263
f 73 265 383 256
f 81 266 383 265
f 82 264 383 266
f 71 256 383 264
f 74 267 384 260
f 92 268 384 267
f 81 265 384 268
f 73 260 384 265
f 94 269 385 253
f 91 270 385 269
f 92 267 385 270
f 74 253 385 267
f 91 269 386 271
f 94 251 386 269
f 93 250 386 251
f 75 271 386 250
f 88 272 387 275
f 87 273 387 272
f 90 274 387 273
f 78 275 387 274
f 90 276 388 274
f 81 268 388 276
f 92 277 388 268
f 78 274 388 277
f 85 278 389 280
f 84 188 389 278
f 83 279 389 188
f 79 280 389 279
f 83 194 390 279
f 80 262 390 194
f 82 281 390 262
f 79 279 390 281
f 82 266 391 281
f 81 276 391 266
f 90 282 391 276
f 79 281 391 282
f 90 273 392 282
f 87 283 392 273
f 85 280 392 283
f 79 282 392 280
f 85 284 393 278
f 86 285 393 284
f 89 286 393 285
f 84 278 393 286
f 103 180 394 190
f 118 177 394 180
f 104 287 394 177
f 101 190 394 287
f 106 288 395 291
f 115 289 395 288
f 117 290 395 289
f 105 291 395 290
f 107 292 396 294
f 116 293 396 292
f 115 288 396 293
f 106 294 396 288
f 108 295 397 297
f 114 296 397 295
f 116 292 397 296
f 107 297 397 292
f 109 298 398 173
f 111 299 398 298
f 114 295 398 299
f 108 173 398 295
f 110 300 399 170
f 112 301 399 300
f 111 298 399 301
f 109 170 399 298
f 23 163 400 167
f 113 302 400 163
f 112 300 400 302
f 110 167 400 300
f 55 303 401 306
f 123 304 401 303
f 122 305 401 304
f 120 306 401 305
f 130 307 402 310
f 131 308 402 307
f 132 309 402 308
f 121 310 402 309
f 122 304 403 312
f 123 311 403 304
f 130 310 403 311
f 121 312 403 310
f 124 313 404 315
f 125 314 404 313
f 130 311 404 314
f 123 315 404 311
f 55 316 405 303
f 57 317 405 316
f 124 315 405 317
f 123 303 405 315
f 134 318 406 320
f 133 319 406 318
f 125 313 406 319
f 124 320 406 313
f 133 321 407 319
f 127 322 407 321
f 126 323 407 322
f 125 319 407 323
f 126 324 408 323
f 131 307 408 324
f 130 314 408 307
f 125 323 408 314
f 134 325 409 318
f 63 326 409 325
f 58 327 409 326
f 133 318 409 327
f 135 328 410 329
f 128 155 410 328
f 63 325 410 155
f 134 329 410 325
f 129 159 411 330
f 41 157 411 159
f 128 328 411 157
f 135 330 411 328
f 62 331 412 154
f 59 332 412 331
f 58 326 412 332
f 63 154 412 326
f 61 333 413 149
f 60 334 413 333
f 59 331 413 334
f 62 149 413 331
f 55 335 414 316
f 54 336 414 335
f 56 337 414 336
f 57 316 414 337
f 54 338 415 336
f 49 339 415 338
f 47 340 415 339
f 56 336 415 340
