# https://github.com/mikedh/trimesh
v -0.16374700 -0.10241100 -0.12999000
v -0.17213649 -0.07478950 -0.12447450
v -0.14020300 -0.15559350 -0.14326000
v -0.18499325 -0.00684100 -0.11242375
v -0.17740799 -0.04157100 -0.11945600
v -0.15679300 -0.12569200 -0.13466799
v -0.15054700 -0.13989200 -0.13830900
v -0.15038550 -0.13088900 -0.13718550
v -0.15635100 -0.12083500 -0.13424601
v -0.13007125 -0.16687049 -0.14721100
v -0.11956212 -0.17931650 -0.15136125
v -0.11287900 -0.19439200 -0.15541200
v -0.15496000 0.13272150 -0.08807600
v -0.17800300 0.11556400 -0.08523600
v -0.17312400 0.12056600 -0.08527600
v -0.18405687 0.09373150 -0.09177438
v -0.18738875 0.04069000 -0.10376600
v -0.18674350 0.07506575 -0.09649750
v -0.17807101 0.10824000 -0.08922900
v -0.15587856 0.12248525 -0.09397712
v -0.13384999 0.08900400 -0.11530600
v -0.12503972 0.08257622 -0.11976901
v -0.11260012 0.07483260 -0.12320565
v -0.10869900 0.07277400 -0.12366000
v -0.15219631 -0.00514960 -0.12511862
v -0.15957728 -0.03657370 -0.12558774
v -0.15966854 -0.01179821 -0.12328798
v -0.16765083 -0.05671621 -0.12461301
v -0.16281735 0.03439195 -0.11668578
v -0.14781004 0.03054314 -0.12227491
v -0.13878633 0.02275519 -0.12582639
v -0.14845662 0.04395327 -0.12015579
v -0.17059501 0.03158300 -0.11386400
v -0.17433708 0.00932395 -0.11538560
v -0.17577864 -0.01033405 -0.11716969
v -0.16909530 0.05472602 -0.11065363
v -0.18006000 0.04613700 -0.10699700
v -0.18251748 0.05864921 -0.10311923
v -0.17447324 0.07074521 -0.10468995
v -0.17481926 -0.00348617 -0.11669614
v -0.16951875 0.04465792 -0.11249784
v -0.16530711 0.06617247 -0.10997022
v -0.16720947 0.08952215 -0.10305496
v -0.16132371 0.08278234 -0.10751872
v -0.15831545 0.09316639 -0.10572031
v -0.15507743 0.07025002 -0.11325013
v -0.15469113 0.07805669 -0.11142692
v -0.16366097 -0.00159627 -0.12084632
v -0.13472981 0.05921304 -0.12155876
v -0.13688332 -0.00456798 -0.12937234
v -0.14380169 -0.01273954 -0.12831781
v -0.13239369 -0.00898746 -0.13094032
v -0.12777956 0.01158551 -0.12984315
v -0.12878476 0.06072234 -0.12262607
v -0.12308755 0.05667771 -0.12467604
v -0.11437500 0.05539200 -0.12628099
v -0.12080901 0.07372154 -0.12149707
v -0.11338800 0.06526200 -0.12447500
v -0.11127500 0.06166600 -0.12552901
v -0.12257920 0.04018976 -0.12723784
v -0.11573935 0.01186288 -0.13216120
v -0.10523874 -0.01678805 -0.13724972
v -0.12264177 -0.01739660 -0.13392529
v -0.14007307 -0.03875687 -0.13153963
v -0.15020285 -0.04823206 -0.12950784
v -0.15342505 -0.07020350 -0.13038306
v -0.15781599 -0.10097244 -0.13175196
v -0.14640518 -0.11054124 -0.13606091
v -0.13742319 -0.07207995 -0.13502157
v -0.12775160 -0.08139276 -0.13813561
v -0.13677655 -0.11002767 -0.13859840
v -0.13951634 -0.13424076 -0.14053271
v -0.12642097 -0.10780770 -0.14077897
v -0.10754370 -0.10428450 -0.14416417
v -0.12084523 -0.11294097 -0.14244955
v -0.13370771 -0.14032668 -0.14270607
v -0.12926940 -0.15621254 -0.14583716
v -0.11773623 -0.13430208 -0.14526802
v -0.10725457 -0.05754093 -0.14040353
v -0.10692185 -0.00947621 -0.13608730
v -0.10906600 0.01911200 -0.13234299
v -0.11888583 0.04989271 -0.12652215
v -0.10713300 0.02604500 -0.13171899
v -0.10632700 0.01232800 -0.13363700
v -0.09665500 -0.01094400 -0.13788849
v -0.08826582 -0.03840174 -0.14194319
v -0.08466900 -0.03802800 -0.14226250
v -0.09276319 -0.06274840 -0.14321223
v -0.08023650 -0.08162025 -0.14635526
v -0.07950900 -0.05890600 -0.14467201
v -0.10315919 -0.13223008 -0.14752634
v -0.09371488 -0.13923069 -0.14959049
v -0.08943433 -0.09483388 -0.14618713
v -0.07925900 -0.12068250 -0.14972949
v -0.11400427 -0.15283679 -0.14820433
v -0.10932658 -0.16988997 -0.15139081
v -0.10687515 -0.17922425 -0.15332474
v -0.09504500 -0.16789900 -0.15316300
v -0.10156350 -0.18066149 -0.15438425
v -0.09122800 -0.14441899 -0.15052150
v -0.12117908 -0.05467948 -0.13747641
v -0.11711084 -0.04023078 -0.13709061
v -0.14643489 -0.07085353 -0.13249025
v -0.11039350 0.04186350 -0.12899750
v -0.14969526 0.05075841 -0.11884344
v -0.14768529 0.06425342 -0.11688366
v -0.13652426 0.06947278 -0.11907187
v -0.13795804 0.03812484 -0.12407894
v -0.17791143 0.08081073 -0.10012283
v -0.14063476 0.07558322 -0.11660353
v -0.14174842 0.08025410 -0.11512257
v -0.11203100 -0.19099200 -0.15480000
v -0.17284679 0.09062063 -0.09977338
v -0.18358063 0.07642674 -0.09827535
v -0.16901643 0.10573724 -0.09577934
v -0.16983774 0.11519055 -0.09069705
v -0.17769392 0.10384408 -0.09188543
v -0.16145482 0.12664258 -0.08825323
f 114 18 16
f 18 114 17
f 114 38 17
f 39 38 114
f 109 39 114
f 113 109 114
f 117 113 114
f 117 115 113
f 116 115 117
f 116 117 14
f 14 117 19
f 19 117 16
f 15 116 14
f 118 116 15
f 20 116 118
f 13 20 118
f 15 13 118
f 20 115 116
f 20 43 115
f 20 21 43
f 43 113 115
f 43 39 113
f 44 39 43
f 44 43 45
f 45 47 44
f 45 21 47
f 21 46 47
f 47 46 42
f 46 41 42
f 46 29 41
f 46 105 29
f 46 106 105
f 105 106 110
f 107 105 110
f 22 107 110
f 22 110 111
f 110 46 111
f 21 22 111
f 22 49 107
f 22 54 49
f 54 55 49
f 55 108 49
f 53 108 55
f 108 53 31
f 108 31 30
f 108 30 32
f 105 108 32
f 32 30 105
f 31 25 30
f 31 50 25
f 50 51 25
f 52 51 50
f 51 52 64
f 52 101 64
f 101 69 64
f 101 68 69
f 101 70 68
f 101 73 70
f 79 73 101
f 102 79 101
f 62 79 102
f 62 102 63
f 102 52 63
f 53 63 52
f 62 63 53
f 62 53 61
f 61 80 62
f 80 86 62
f 85 86 80
f 87 86 85
f 87 90 86
f 90 89 86
f 89 93 86
f 89 94 93
f 93 94 92
f 94 100 92
f 100 96 92
f 100 98 96
f 98 99 96
f 99 97 96
f 97 99 11
f 99 112 11
f 99 12 112
f 11 112 12
f 96 97 11
f 96 11 95
f 95 11 10
f 95 10 77
f 95 77 76
f 78 95 76
f 91 95 78
f 91 92 95
f 74 91 78
f 93 91 74
f 88 93 74
f 88 74 79
f 74 78 75
f 74 75 73
f 75 76 73
f 76 72 73
f 76 3 72
f 72 3 7
f 8 72 7
f 68 72 8
f 71 72 68
f 68 8 6
f 9 68 6
f 67 68 9
f 103 68 67
f 103 67 66
f 64 103 66
f 64 66 65
f 25 65 66
f 25 66 26
f 26 66 28
f 26 28 27
f 27 28 48
f 48 28 35
f 48 35 40
f 34 48 40
f 29 48 34
f 29 30 48
f 29 34 33
f 34 41 33
f 41 34 4
f 41 4 17
f 37 41 17
f 41 37 36
f 42 36 37
f 42 37 39
f 34 35 4
f 35 5 4
f 35 2 5
f 34 40 35
f 28 2 35
f 2 28 1
f 67 1 28
f 25 27 48
f 25 26 27
f 28 66 67
f 67 9 1
f 71 73 72
f 78 76 75
f 76 77 3
f 77 10 3
f 96 95 92
f 93 92 91
f 86 93 88
f 86 88 62
f 61 85 80
f 84 85 61
f 81 84 61
f 82 81 61
f 82 83 81
f 83 82 104
f 104 82 56
f 55 56 82
f 60 55 82
f 59 56 55
f 59 55 58
f 58 55 23
f 23 24 58
f 23 55 57
f 55 22 57
f 23 57 22
f 61 60 82
f 60 61 53
f 62 88 79
f 79 74 73
f 73 71 70
f 70 71 68
f 69 68 103
f 69 103 64
f 102 101 52
f 64 65 51
f 53 52 50
f 25 51 65
f 30 25 48
f 53 50 31
f 60 53 55
f 105 49 108
f 55 54 22
f 107 49 105
f 110 106 46
f 105 30 29
f 41 29 33
f 42 41 36
f 111 46 21
f 47 42 44
f 44 42 39
f 113 39 109
f 38 39 37
f 38 37 17
f 117 114 16

