v -0.28393975 -0.46790375 -0.081118725
v -0.24239 -0.468609125 -0.119707375
v -0.230489125 -0.468475625 -0.127540875
v -0.20508 -0.46820075 -0.1408225
v -0.19049175 -0.4818675 -0.143042625
v -0.180329875 -0.4664145 -0.150839375
v -0.1513515 -0.453769375 -0.158984625
v -0.16491965625 -0.46794159375 -0.155108953125
v -0.29117475 -0.46916325 -0.0708358
v -0.274526125 -0.468317375 -0.09181045
v -0.2644635 -0.468533875 -0.1018513375
v -0.25380625 -0.468612375 -0.1112165
v -0.21801025 -0.46828325 -0.13456175
v -0.228251625 -0.48204575 -0.12442375
v -0.2400715 -0.48222975 -0.116805375
v -0.251331875 -0.482247 -0.108284275
v -0.262004625 -0.482179875 -0.0990238
v -0.2720635 -0.4819535 -0.08909325
v -0.281275125 -0.481574 -0.078466825
v -0.2892175 -0.479464375 -0.0689603875
v -0.216175125 -0.481848 -0.131563375
v -0.203522625 -0.481842375 -0.137638625
v -0.191992 -0.468241375 -0.146487125
v -0.16510625 -0.4539585 -0.155537625
v -0.177055375 -0.455825375 -0.152210625
v -0.151115484375 -0.467714296875 -0.158436171875
v -0.137142625 -0.467410203125 -0.1610290625
v -0.137394 -0.453466125 -0.16154425
v -0.123390875 -0.453147375 -0.163855875
v -0.1093044875 -0.4528345 -0.165492125
v -0.095174875 -0.45250625 -0.16652575
v -0.081022675 -0.45216275 -0.167101375
v -0.01193017125 -0.4520125 -0.166056875
v -0.12304603125 -0.467109890625 -0.162972296875
v -0.01168004 -0.462577 -0.165321375
v -0.0527024 -0.451398625 -0.1672165
v -0.02401967125 -0.464686125 -0.165478875
v -0.0381756875 -0.465094375 -0.165817375
v -0.024375325 -0.450590375 -0.166663875
v -0.038538975 -0.450991625 -0.166974
v -0.080654725 -0.466227375 -0.16595025
v -0.092980875 -0.468227625 -0.1650765
v -0.108915632812 -0.46681196875 -0.164234265625
v -0.0961141375 -0.478485 -0.16196
v -0.10834735 -0.48045025 -0.160746
v -0.122316625 -0.480705 -0.15949475
v -0.1362725 -0.48095425 -0.15762225
v -0.150070125 -0.4812845 -0.1551355
v -0.163759 -0.48156675 -0.1517805
v -0.177257375 -0.48175875 -0.14773325
v -0.0664942625 -0.465862875 -0.16609225
v -0.052335 -0.465486875 -0.166049125
v -0.0668665125 -0.4517985 -0.167378
v -0.285657 -0.481354 -0.0728952
v -0.2826074375 -0.474738875 -0.079792775
v -0.28831 -0.4676475 -0.07546505
v -0.291267 -0.4742515 -0.06847075
v -0.2671285 -0.482088 -0.0941437
v -0.2632340625 -0.475356875 -0.10043756875
v -0.2695675 -0.468448 -0.09690935
v -0.2732948125 -0.4751354375 -0.09045185
v -0.2767615 -0.481778 -0.0838669
v -0.279331 -0.4681315 -0.08655705
v -0.25674 -0.4822275 -0.1037391
v -0.2525690625 -0.4754296875 -0.1097503875
v -0.2592225 -0.4685855 -0.106634
v -0.2457775 -0.4822545 -0.112654
v -0.24123075 -0.4754194375 -0.118256375
v -0.2481765 -0.468624 -0.115558
v -0.2099145 -0.4818275 -0.134716
v -0.2043013125 -0.4750215625 -0.1392305625
v -0.21158 -0.468223 -0.137773
v -0.2170926875 -0.475065625 -0.1330625625
v -0.229370375 -0.4752606875 -0.1259823125
v -0.222264 -0.4819325 -0.1280895
v -0.224319 -0.468376 -0.131154
v -0.2365035 -0.4685565 -0.1237135
v -0.2342085 -0.4821525 -0.1206955
v -0.191241875 -0.4750544375 -0.144764875
v -0.198562 -0.468222 -0.143745
v -0.19704 -0.481864 -0.1404225
v -0.183903 -0.481828 -0.145474
v -0.1779400625 -0.4749573125 -0.149532625
v -0.185336 -0.4682135 -0.1489955
v -0.1580453125 -0.467838375 -0.156876
v -0.1513009375 -0.4607730625 -0.15893975
v -0.158249 -0.453877 -0.157346
v -0.165094125 -0.460979875 -0.1555649375
v -0.1787095 -0.4611205 -0.151588
v -0.1717215625 -0.4680265 -0.1531080625
v -0.171948 -0.454023 -0.1536765
v -0.143189 -0.481116 -0.156473
v -0.136759125 -0.4742155625 -0.159566625
v -0.144147125 -0.4675668125 -0.1598164375
v -0.15066025 -0.474530625 -0.1570151875
v -0.137319875 -0.4604715 -0.161527625
v -0.144389 -0.4536265 -0.1603365
v -0.1644205 -0.474784 -0.153686375
v -0.1569315 -0.481436 -0.153559
v -0.129305 -0.480823 -0.158634
v -0.122713375 -0.4739380625 -0.1614496875
v -0.130104375 -0.46725875 -0.1620863125
v -0.1232505 -0.46015925 -0.16363025
v -0.130399 -0.453306 -0.1627505
v -0.11598125 -0.4669610625 -0.163671125
v -0.1091250125 -0.4598515 -0.1650490625
v -0.1163565 -0.4529915 -0.164761
v -0.10185478125 -0.4666623125 -0.1647131875
v -0.0949935125 -0.4595373125 -0.1659935625
v -0.10224345 -0.4526725 -0.1660755
v -0.08773585 -0.4664025 -0.165753
v -0.0808387 -0.4591950625 -0.1665258125
v -0.08810025 -0.4523365 -0.1668575
v -0.07357425 -0.466047 -0.166054
v -0.0666803875 -0.4588306875 -0.166735125
v -0.07394525 -0.4519845 -0.167288
v -0.024197498125 -0.45763825 -0.166071375
v -0.016944535 -0.464486 -0.1653195
v -0.010034685 -0.457246 -0.165632
v -0.0172882 -0.450396 -0.1664015
v -0.0314581 -0.4507895 -0.166842
v -0.03835733125 -0.458043 -0.1663956875
v -0.03109695 -0.4648905 -0.165652
v -0.0456204 -0.451195 -0.167098
v -0.0525187 -0.45844275 -0.1666328125
v -0.0452552 -0.465293 -0.1659535
v -0.10864644375 -0.473659375 -0.162676
v -0.1013259 -0.4803 -0.161183
v -0.09455305 -0.473358 -0.163535
v -0.1153375 -0.480583 -0.160191
v -0.1705385 -0.481673 -0.149837
v -0.059785 -0.4516015 -0.167332
v -0.0594146 -0.4656765 -0.166093
v -0.2869835 -0.47450075 -0.074180125
v -0.268348 -0.475268 -0.095526525
v -0.27804625 -0.47495475 -0.085211975
v -0.25798125 -0.4754065 -0.10518655
v -0.246977 -0.47543925 -0.114106
v -0.21074725 -0.47502525 -0.1362445
v -0.2232915 -0.47515425 -0.12962175
v -0.235356 -0.4753545 -0.1222045
v -0.197801 -0.475043 -0.14208375
v -0.1846195 -0.47502075 -0.14723475
v -0.158223 -0.460888 -0.15734825
v -0.1719145 -0.4610545 -0.1536175
v -0.14372775 -0.474374 -0.15838
v -0.14432775 -0.46062925 -0.16031175
v -0.15756425 -0.4746675 -0.15545475
v -0.12974675 -0.47407325 -0.1605925
v -0.13029375 -0.46031475 -0.16265075
v -0.11619125 -0.46000525 -0.16441525
v -0.1020608 -0.45969675 -0.165575
v -0.08791805 -0.4593695 -0.16630525
v -0.07375975 -0.45901575 -0.166671
v -0.0171163675 -0.457441 -0.1658605
v -0.031277525 -0.45784 -0.166247
v -0.0454378 -0.458244 -0.16652575
v -0.101602025 -0.4735105 -0.16312875
v -0.11568175 -0.473801 -0.16213025
v -0.17120975 -0.4748795 -0.15169775
v -0.0595998 -0.458639 -0.1667125
f 20 54 134 57
f 19 55 134 54
f 1 56 134 55
f 9 57 134 56
f 18 58 135 61
f 17 59 135 58
f 11 60 135 59
f 10 61 135 60
f 1 55 136 63
f 19 62 136 55
f 18 61 136 62
f 10 63 136 61
f 17 64 137 59
f 16 65 137 64
f 12 66 137 65
f 11 59 137 66
f 16 67 138 65
f 15 68 138 67
f 2 69 138 68
f 12 65 138 69
f 21 70 139 73
f 22 71 139 70
f 4 72 139 71
f 13 73 139 72
f 3 74 140 76
f 14 75 140 74
f 21 73 140 75
f 13 76 140 73
f 3 77 141 74
f 2 68 141 77
f 15 78 141 68
f 14 74 141 78
f 5 79 142 81
f 23 80 142 79
f 4 71 142 80
f 22 81 142 71
f 5 82 143 79
f 50 83 143 82
f 6 84 143 83
f 23 79 143 84
f 8 85 144 88
f 26 86 144 85
f 7 87 144 86
f 24 88 144 87
f 25 89 145 91
f 6 90 145 89
f 8 88 145 90
f 24 91 145 88
f 48 92 146 95
f 47 93 146 92
f 27 94 146 93
f 26 95 146 94
f 27 96 147 94
f 28 97 147 96
f 7 86 147 97
f 26 94 147 86
f 8 98 148 85
f 49 99 148 98
f 48 95 148 99
f 26 85 148 95
f 47 100 149 93
f 46 101 149 100
f 34 102 149 101
f 27 93 149 102
f 34 103 150 102
f 29 104 150 103
f 28 96 150 104
f 27 102 150 96
f 34 105 151 103
f 43 106 151 105
f 30 107 151 106
f 29 103 151 107
f 43 108 152 106
f 42 109 152 108
f 31 110 152 109
f 30 106 152 110
f 42 111 153 109
f 41 112 153 111
f 32 113 153 112
f 31 109 153 113
f 41 114 154 112
f 51 115 154 114
f 53 116 154 115
f 32 112 154 116
f 39 117 155 120
f 37 118 155 117
f 35 119 155 118
f 33 120 155 119
f 39 121 156 117
f 40 122 156 121
f 38 123 156 122
f 37 117 156 123
f 40 124 157 122
f 36 125 157 124
f 52 126 157 125
f 38 122 157 126
f 43 127 158 108
f 45 128 158 127
f 44 129 158 128
f 42 108 158 129
f 34 101 159 105
f 46 130 159 101
f 45 127 159 130
f 43 105 159 127
f 8 90 160 98
f 6 83 160 90
f 50 131 160 83
f 49 98 160 131
f 52 125 161 133
f 36 132 161 125
f 53 115 161 132
f 51 133 161 115
