# https://github.com/mikedh/trimesh
v -0.31771237 -0.33387374 0.04570275
v -0.23892899 -0.22307550 -0.01603400
v -0.24527244 -0.23295719 -0.01561581
v -0.26103899 -0.25294501 -0.01234500
v -0.27340775 -0.26599800 -0.00558350
v -0.29337600 -0.28273600 0.01716600
v -0.31782500 -0.35273950 0.05292450
v -0.31736901 -0.36014199 0.04453500
v -0.31589201 -0.37075999 0.03833800
v -0.31326199 -0.38188201 0.02034500
v -0.31090650 -0.39177099 0.01052950
v -0.30953850 -0.40205399 0.00631200
v -0.30887401 -0.40696400 0.00258600
v -0.30937163 -0.30512300 0.03192525
v -0.31306701 -0.42910449 0.00590850
v -0.31032562 -0.41966462 0.00460288
v -0.31590700 -0.43501401 0.00718000
v -0.32510799 -0.45779300 0.04110500
v -0.32322850 -0.44800400 0.02286675
v -0.32470101 -0.45242801 0.03515800
v -0.32107725 -0.46617500 0.05704275
v -0.29618041 -0.44603681 0.09995442
v -0.29707700 -0.42964850 0.07860950
v -0.30352899 -0.43846101 0.08176400
v -0.30307299 -0.43381199 0.07531700
v -0.28959900 -0.45337299 0.11118100
v -0.29396200 -0.45074099 0.10580400
v -0.27532700 -0.45722500 0.12205050
v -0.28608701 -0.45493200 0.11462100
v -0.25116602 -0.45700432 0.13136836
v -0.23626199 -0.46229801 0.13577200
v -0.29262301 -0.34809101 0.10629800
v -0.29405600 -0.34059000 0.10675400
v -0.29171401 -0.36788100 0.10023300
v -0.29296049 -0.35628800 0.10355750
v -0.28390149 -0.40534175 0.08785775
v -0.28639799 -0.38799399 0.09458800
v -0.28473601 -0.39875001 0.09010000
v -0.28432000 -0.41038299 0.08583300
v -0.28468201 -0.41640201 0.08491800
v -0.29309899 -0.32066101 0.10904100
v -0.28980925 -0.37517726 0.09844375
v -0.29449850 -0.33077849 0.10769850
v -0.28507051 -0.42228199 0.08580150
v -0.20629100 -0.29419225 0.12547000
v -0.16426200 -0.29747501 0.12497200
v -0.21899900 -0.29353800 0.12496700
v -0.26806700 -0.29083000 0.11558550
v -0.24817350 -0.29044413 0.12003675
v -0.18247899 -0.29454699 0.12495300
v -0.29185850 -0.30824776 0.10811300
v -0.28214399 -0.29476901 0.11016200
v -0.29016400 -0.42652351 0.08337100
v -0.25068755 -0.24858409 0.02576135
v -0.25801924 -0.25119640 0.01775242
v -0.26743878 -0.25775815 0.03076077
v -0.26371497 -0.25629266 0.03544773
v -0.28294781 -0.26663271 0.04416272
v -0.28712748 -0.27001026 0.06318998
v -0.28894029 -0.27105970 0.04620500
v -0.26838407 -0.25806126 0.01563320
v -0.27657208 -0.26413465 0.05825147
v -0.25876582 -0.25511659 0.04065569
v -0.25740674 -0.24922908 0.00362971
v -0.26653899 -0.25970085 0.05362040
v -0.28011197 -0.27040913 0.08236547
v -0.27540405 -0.26931205 0.08400677
v -0.24956289 -0.24633443 0.01951390
v -0.23854711 -0.24078221 0.02193367
v -0.25230844 -0.25512588 0.05063282
v -0.24195677 -0.24665793 0.03295568
v -0.27116106 -0.26490901 0.07434700
v -0.24302540 -0.25121054 0.04557340
v -0.23940904 -0.25370250 0.05582403
v -0.25803905 -0.26270983 0.07663459
v -0.25859783 -0.26097686 0.07071427
v -0.24594698 -0.25786681 0.06586442
v -0.22885491 -0.25212553 0.05690030
v -0.23908133 -0.24726503 0.03732430
v -0.25909991 -0.26472841 0.08275504
v -0.23314010 -0.25466125 0.06167563
v -0.24900439 -0.24471566 0.01446937
v -0.22664968 -0.24807681 0.04863454
v -0.25013394 -0.26559657 0.08871293
v -0.23675974 -0.25786316 0.06984316
v -0.26321924 -0.26755934 0.08899698
v -0.23069857 -0.24272128 0.03537632
v -0.22330950 -0.26007050 0.07736600
v -0.25661195 -0.27121705 0.09920644
v -0.21779725 -0.24745450 0.05180425
v -0.22672190 -0.23980911 0.03268072
v -0.22161700 -0.25457651 0.06480200
v -0.21665800 -0.25298300 0.06278200
v -0.26721750 -0.26983137 0.09239153
v -0.21537600 -0.24002050 0.04101200
v -0.26333389 -0.27517390 0.10414588
v -0.22097300 -0.26462600 0.08842600
v -0.21527550 -0.26902349 0.09753750
v -0.25052500 -0.27273899 0.10310200
v -0.24297838 -0.23824054 0.00795266
v -0.28902928 -0.27657790 0.08460177
v -0.21653590 -0.23477695 0.03294582
v -0.24868082 -0.27054633 0.09975597
v -0.23279642 -0.27056059 0.10104918
v -0.22832444 -0.23645858 0.02524031
v -0.23602501 -0.27273300 0.10458800
v -0.28837045 -0.28286742 0.09580806
v -0.23183995 -0.26771099 0.09563907
v -0.21307699 -0.27172801 0.10240300
v -0.20975944 -0.22878013 0.03306019
v -0.20962200 -0.27565500 0.10833700
v -0.27608723 -0.28281827 0.10597571
v -0.22671374 -0.23125818 0.01910875
v -0.29695648 -0.28148823 0.07978577
v -0.21979835 -0.27933591 0.11376320
v -0.20613550 -0.27820700 0.11166800
v -0.26277071 -0.28068572 0.11007285
v -0.24478140 -0.27698488 0.11008017
v -0.25255434 -0.27854625 0.11050684
v -0.24253359 -0.23540586 0.00073365
v -0.22599279 -0.28124504 0.11581797
v -0.21805449 -0.27585480 0.10931138
v -0.20271300 -0.27963099 0.11321600
v -0.28719421 -0.28459516 0.09885651
v -0.21205951 -0.23328200 0.03469100
v -0.25380999 -0.28250599 0.11414700
v -0.27643434 -0.28017047 0.10328658
v -0.24406809 -0.28065162 0.11408217
v -0.22045963 -0.23165258 0.02580262
v -0.19160900 -0.28263599 0.11563100
v -0.25960943 -0.28604761 0.11585102
v -0.22884196 -0.22827811 0.01222000
v -0.20579294 -0.28355797 0.11781279
v -0.18234985 -0.28994496 0.12179916
v -0.17126150 -0.29029000 0.12079800
v -0.23397863 -0.28515191 0.11927779
v -0.28464592 -0.28808358 0.10461282
v -0.26911920 -0.28539552 0.11177616
v -0.19874594 -0.28752022 0.12085565
v -0.23951318 -0.28709339 0.12009707
v -0.17545175 -0.29421927 0.12437479
v -0.21459379 -0.29001640 0.12311854
v -0.15741900 -0.29348600 0.12154650
v -0.21634778 -0.22901807 0.02692567
v -0.26400097 -0.25475902 0.00876474
v -0.19801820 -0.29294580 0.12477512
v -0.29442777 -0.28506164 0.09026757
v -0.15292500 -0.29649401 0.12299400
v -0.27251098 -0.26095328 0.02002616
v -0.29162125 -0.29517525 0.10280800
v -0.23640634 -0.23056901 0.00385530
v -0.27837086 -0.28918078 0.10969190
v -0.24775730 -0.23875727 -0.00635408
v -0.29952899 -0.28207150 0.07145650
v -0.28931013 -0.29107139 0.10270294
v -0.24107904 -0.22922140 -0.01053634
v -0.29706500 -0.28621250 0.08736350
v -0.29853299 -0.27961800 0.06395600
v -0.22432772 -0.22415519 0.01364828
v -0.29332999 -0.27420249 0.06098794
v -0.23077663 -0.22479311 0.00506889
v -0.28706017 -0.27061833 0.03562851
v -0.29148883 -0.27375671 0.04040315
v -0.27447033 -0.26347341 0.01185832
v -0.23955132 -0.22868319 -0.00700688
v -0.25958033 -0.25099425 -0.00377887
v -0.21504822 -0.22463637 0.02428412
v -0.29788050 -0.27878650 0.05415800
v -0.28932601 -0.29467950 0.10505350
v -0.23601009 -0.22630131 -0.00245990
v -0.20974600 -0.22553200 0.02960600
v -0.27479376 -0.26418263 0.00797463
v -0.26536150 -0.25659251 -0.00313300
v -0.29650325 -0.27782326 0.04874425
v -0.29253700 -0.27574700 0.03513500
v -0.21802275 -0.22204725 0.01932300
v -0.26342900 -0.25482100 -0.00514700
v -0.23281475 -0.22252075 -0.00115275
v -0.23746870 -0.22335390 -0.01033200
v -0.30589922 -0.41942540 0.05281229
v -0.30657154 -0.42653857 0.05695850
v -0.30031784 -0.41393578 0.06575474
v -0.30725112 -0.41605595 0.04575928
v -0.30512601 -0.41368800 0.05380000
v -0.30921090 -0.41742452 0.03665912
v -0.30379877 -0.41183773 0.05805727
v -0.30543301 -0.40592599 0.05517100
v -0.30891327 -0.40833206 0.03865139
v -0.31000352 -0.41210954 0.02325732
v -0.31004932 -0.40324949 0.03366543
v -0.30965628 -0.39863785 0.04451629
v -0.30702703 -0.39739684 0.05724757
v -0.31220288 -0.38564443 0.04908016
v -0.31210528 -0.37715447 0.06105050
v -0.31415217 -0.37052512 0.05959710
v -0.31610084 -0.36910723 0.04652807
v -0.31449054 -0.37391351 0.05265205
v -0.31716433 -0.35567897 0.05760404
v -0.31460500 -0.37692100 0.04502800
v -0.31293488 -0.36158797 0.07180904
v -0.31654000 -0.35294895 0.06427137
v -0.30726193 -0.40734201 0.04757462
v -0.30985742 -0.37843133 0.06733607
v -0.31389887 -0.35749507 0.07176746
v -0.31368571 -0.38372198 0.03364076
v -0.31223802 -0.39169326 0.02946924
v -0.31820890 -0.33594353 0.06013747
v -0.31786832 -0.35217755 0.05574267
v -0.31054207 -0.40277960 0.02905404
v -0.31096811 -0.39813138 0.01664900
v -0.31840399 -0.34336299 0.05218400
v -0.31658213 -0.33870179 0.06986132
v -0.31433422 -0.34056712 0.07754820
v -0.31368576 -0.33314027 0.08022746
v -0.30364530 -0.40377331 0.06132131
v -0.31053679 -0.36585366 0.07566068
v -0.30232884 -0.40039765 0.06659081
v -0.31011472 -0.40732612 0.01659568
v -0.30964531 -0.40936961 0.01145856
v -0.31473616 -0.32290532 0.07529458
v -0.31784202 -0.32390330 0.05397547
v -0.31043672 -0.34781649 0.08467131
v -0.31084688 -0.41916725 0.01668469
v -0.30940777 -0.36761811 0.07754421
v -0.31093521 -0.35316398 0.08185477
v -0.31183371 -0.31341255 0.08104538
v -0.31181576 -0.32715569 0.08491537
v -0.31275014 -0.34051338 0.08207656
v -0.31577104 -0.31875881 0.07007757
v -0.31407903 -0.30666598 0.05771943
v -0.30662650 -0.32802982 0.09456451
v -0.30903855 -0.33482035 0.09001833
v -0.29924195 -0.40822040 0.06841275
v -0.30797939 -0.34318553 0.09037769
v -0.31027515 -0.31992824 0.08698553
v -0.30791028 -0.34779617 0.08923398
v -0.30569882 -0.36441594 0.08620730
v -0.30466488 -0.38241589 0.07615678
v -0.29603262 -0.40843284 0.07333948
v -0.29824662 -0.39975620 0.07425126
v -0.30655829 -0.35192561 0.09009777
v -0.30211401 -0.37952981 0.08241085
v -0.31344351 -0.42860030 0.02786962
v -0.31338847 -0.42795232 0.01733522
v -0.30460845 -0.36729945 0.08645875
v -0.31276900 -0.30313399 0.05884600
v -0.29707886 -0.42115161 0.07224686
v -0.30677503 -0.31916737 0.09338962
v -0.30560047 -0.30979088 0.09275321
v -0.29300645 -0.41265952 0.07644654
v -0.29372600 -0.41590801 0.07542800
v -0.29317855 -0.40185834 0.07994703
v -0.31158921 -0.30126792 0.06908588
v -0.30875454 -0.30392916 0.08291421
v -0.30255657 -0.34789086 0.09688159
v -0.29974831 -0.38059987 0.08512757
v -0.29957667 -0.42538832 0.07071014
v -0.30296630 -0.30050723 0.09225628
v -0.31159509 -0.42891763 0.04372860
v -0.30466070 -0.29511727 0.08391823
v -0.29869144 -0.35389377 0.09931403
v -0.29826293 -0.31756090 0.10399645
v -0.30130134 -0.33933870 0.10021730
v -0.29867976 -0.36936353 0.09278371
v -0.29686511 -0.35969472 0.09934761
v -0.29147199 -0.42053100 0.07897800
v -0.29222714 -0.38507279 0.09096266
v -0.29660820 -0.33600791 0.10537422
v -0.30382770 -0.32757584 0.09880044
v -0.28834027 -0.41384185 0.08140132
v -0.28917352 -0.40447499 0.08313798
v -0.28923194 -0.41867650 0.08091215
v -0.29989366 -0.31276479 0.10158420
v -0.28592236 -0.39408362 0.09182115
v -0.29879482 -0.42724781 0.07380881
v -0.31276204 -0.30342899 0.05094295
v -0.30149860 -0.29556824 0.09068260
v -0.31112121 -0.43105887 0.05089584
v -0.31618072 -0.31613714 0.04728736
v -0.29322323 -0.30131103 0.10490430
v -0.29863729 -0.29930023 0.09771492
v -0.29116321 -0.42415018 0.08089740
v -0.31456786 -0.43131341 0.03113138
v -0.31342599 -0.43158200 0.04141700
v -0.30508555 -0.42787593 0.06290363
v -0.30687918 -0.29207980 0.07187255
v -0.31041199 -0.30393995 0.03523105
v -0.29859974 -0.29414585 0.09426985
v -0.32343468 -0.44790438 0.03042522
v -0.32086895 -0.46157458 0.06238583
v -0.31865792 -0.46740956 0.06602802
v -0.32084042 -0.45702868 0.06233805
v -0.32238622 -0.45610087 0.05640122
v -0.31845455 -0.45664378 0.07014000
v -0.31550513 -0.46245843 0.07761137
v -0.31398293 -0.45516153 0.08049943
v -0.31656578 -0.46834820 0.07077843
v -0.31198279 -0.46463773 0.08438957
v -0.32404533 -0.45196333 0.04274346
v -0.31534392 -0.45202901 0.07578008
v -0.31324450 -0.46941550 0.07781800
v -0.31584500 -0.47129225 0.06906600
v -0.32194164 -0.44747005 0.04570120
v -0.30994326 -0.45230243 0.08734301
v -0.32095486 -0.44380855 0.04032821
v -0.30990741 -0.45813492 0.08953884
v -0.31721500 -0.47366399 0.06133700
v -0.31813250 -0.44306874 0.05502273
v -0.32048775 -0.44193018 0.02233089
v -0.30588475 -0.46753700 0.09259675
v -0.31984652 -0.44858472 0.05924685
v -0.30293923 -0.46091502 0.09973475
v -0.30459016 -0.46391747 0.09712668
v -0.31463819 -0.44377666 0.06773475
v -0.31087676 -0.29836023 0.05007154
v -0.30378930 -0.45692622 0.09815014
v -0.31100993 -0.45020151 0.08366593
v -0.30401336 -0.45087154 0.09508214
v -0.29541851 -0.46357548 0.10772154
v -0.31029472 -0.44676149 0.08218325
v -0.30087819 -0.28922942 0.08465111
v -0.30601158 -0.28960648 0.06980158
v -0.31105974 -0.44054501 0.07111968
v -0.29602952 -0.45520177 0.10636488
v -0.30401566 -0.28939188 0.03962819
v -0.30889201 -0.44098201 0.07626300
v -0.29651800 -0.46732101 0.10527700
v -0.30382314 -0.28561497 0.05684170
v -0.29576439 -0.30004968 0.10172711
v -0.30133094 -0.44983940 0.09816526
v -0.30629110 -0.43566286 0.07262632
v -0.30550887 -0.29459674 0.03273045
v -0.29155299 -0.46725300 0.11017900
v -0.28760170 -0.46419193 0.11442616
v -0.29797722 -0.28156677 0.03629710
v -0.29814594 -0.28053775 0.04014492
v -0.27542646 -0.26729456 -0.00234810
v -0.29544307 -0.28175141 0.02570576
v -0.29073278 -0.45836907 0.11214102
v -0.28447330 -0.45957914 0.11696405
v -0.28574824 -0.46712625 0.11497375
v -0.28062201 -0.46311334 0.11969886
v -0.27616177 -0.46258261 0.12221997
v -0.26997316 -0.46473232 0.12518410
v -0.27127025 -0.46669149 0.12396675
v -0.26057838 -0.46272189 0.12923748
v -0.26214999 -0.46745500 0.12781700
v -0.25561601 -0.46552950 0.13043100
v -0.24228350 -0.46453050 0.13433700
f 9 205 210
f 210 205 206
f 206 190 210
f 190 209 210
f 209 189 210
f 210 189 218
f 210 218 219
f 210 219 11
f 11 219 12
f 12 219 13
f 13 219 16
f 219 223 16
f 189 223 219
f 185 223 189
f 185 244 223
f 185 243 244
f 243 309 244
f 309 19 244
f 309 289 19
f 283 289 309
f 283 305 289
f 305 299 289
f 303 299 305
f 308 303 305
f 308 305 259
f 278 308 259
f 181 308 278
f 181 314 308
f 314 311 308
f 320 311 314
f 320 314 323
f 326 320 323
f 323 331 326
f 275 331 323
f 23 331 275
f 23 25 331
f 25 320 331
f 25 24 320
f 22 320 24
f 330 320 22
f 330 318 320
f 330 306 318
f 330 316 306
f 330 324 316
f 26 324 330
f 26 330 27
f 26 339 324
f 324 339 312
f 312 339 319
f 339 334 319
f 342 334 339
f 340 342 339
f 28 342 340
f 28 343 342
f 343 344 342
f 342 344 345
f 346 345 344
f 346 347 345
f 348 347 346
f 349 348 346
f 30 349 346
f 31 349 30
f 30 346 28
f 346 344 28
f 345 341 342
f 28 344 343
f 28 340 339
f 28 339 29
f 342 341 334
f 334 341 319
f 341 333 319
f 333 327 319
f 327 313 319
f 313 327 310
f 310 298 313
f 312 313 298
f 306 312 298
f 306 298 295
f 296 306 295
f 304 306 296
f 317 304 296
f 320 304 317
f 317 300 320
f 317 296 300
f 296 294 300
f 300 294 311
f 294 293 311
f 293 299 311
f 293 18 299
f 20 299 18
f 293 21 18
f 293 290 21
f 292 290 293
f 294 290 292
f 294 291 290
f 294 295 291
f 295 297 291
f 297 302 291
f 301 302 297
f 298 301 297
f 302 307 291
f 291 307 21
f 290 291 21
f 294 292 293
f 296 295 294
f 298 297 295
f 298 310 301
f 319 313 312
f 29 339 26
f 324 312 316
f 316 312 306
f 318 306 304
f 318 304 320
f 27 330 22
f 282 23 275
f 247 282 275
f 266 282 247
f 272 282 266
f 44 282 272
f 44 53 282
f 270 44 272
f 270 272 247
f 270 247 251
f 270 251 250
f 239 270 250
f 271 270 239
f 36 270 271
f 38 36 271
f 38 271 274
f 274 271 252
f 274 252 267
f 274 267 265
f 42 274 265
f 42 37 274
f 34 42 265
f 35 34 265
f 35 265 32
f 33 32 265
f 33 265 268
f 265 261 268
f 268 261 263
f 269 268 263
f 43 268 269
f 41 43 269
f 41 269 262
f 273 262 269
f 273 269 249
f 258 273 249
f 329 273 258
f 280 273 329
f 150 280 329
f 150 329 288
f 329 281 288
f 288 281 258
f 288 258 277
f 321 288 277
f 288 321 157
f 114 157 321
f 114 321 322
f 321 286 322
f 322 286 253
f 322 253 315
f 328 322 315
f 158 322 328
f 158 328 174
f 328 336 174
f 336 328 325
f 336 325 335
f 336 335 338
f 172 336 338
f 172 338 337
f 338 6 337
f 338 14 6
f 332 14 338
f 338 325 332
f 325 315 332
f 315 287 332
f 315 279 287
f 276 279 315
f 315 230 276
f 315 246 230
f 246 253 230
f 229 230 253
f 254 229 253
f 254 226 229
f 249 226 254
f 249 235 226
f 248 235 249
f 248 231 235
f 248 269 231
f 231 269 234
f 269 255 234
f 234 255 241
f 255 237 241
f 255 245 237
f 261 245 255
f 264 245 261
f 264 256 245
f 264 252 256
f 265 252 264
f 252 240 256
f 256 240 238
f 242 256 238
f 238 245 242
f 245 238 224
f 238 217 224
f 217 215 224
f 215 192 224
f 203 224 192
f 216 224 203
f 225 224 216
f 241 224 225
f 241 225 236
f 234 236 225
f 234 225 222
f 234 222 228
f 232 234 228
f 232 228 227
f 231 232 227
f 228 214 227
f 228 213 214
f 213 228 204
f 228 225 204
f 204 225 200
f 200 195 204
f 204 195 201
f 201 195 198
f 201 198 208
f 201 208 207
f 207 208 7
f 208 196 7
f 7 196 8
f 8 196 9
f 207 7 211
f 207 211 1
f 207 1 221
f 221 229 207
f 212 207 229
f 220 212 229
f 214 212 220
f 221 1 279
f 221 279 230
f 279 1 14
f 211 7 1
f 212 201 207
f 213 201 212
f 198 196 208
f 195 196 198
f 195 197 196
f 197 193 196
f 196 193 199
f 199 190 196
f 196 190 205
f 193 190 199
f 193 191 190
f 193 195 191
f 195 202 191
f 192 202 195
f 194 192 195
f 195 203 194
f 202 188 191
f 202 185 188
f 183 185 202
f 186 183 202
f 187 186 202
f 215 187 202
f 187 215 186
f 215 233 186
f 239 233 215
f 239 182 233
f 233 182 186
f 186 182 180
f 186 180 184
f 184 180 183
f 183 180 243
f 243 180 259
f 259 283 243
f 259 284 283
f 180 181 259
f 182 181 180
f 247 181 182
f 247 257 181
f 257 285 181
f 257 314 285
f 186 184 183
f 188 185 190
f 191 188 190
f 195 193 197
f 216 195 200
f 204 201 213
f 214 213 212
f 227 214 220
f 226 227 220
f 222 225 228
f 225 216 200
f 216 203 195
f 203 192 194
f 215 202 192
f 239 215 217
f 240 239 217
f 240 217 238
f 252 239 240
f 256 242 245
f 237 245 224
f 241 237 224
f 234 241 236
f 231 234 232
f 231 227 235
f 226 235 227
f 229 226 220
f 229 221 230
f 230 279 276
f 287 279 14
f 332 287 14
f 337 6 5
f 337 5 4
f 177 337 4
f 172 337 177
f 175 336 172
f 163 336 175
f 335 325 338
f 336 163 174
f 154 322 158
f 114 154 158
f 160 114 158
f 160 158 168
f 160 168 163
f 160 163 60
f 60 163 162
f 162 163 164
f 164 163 172
f 164 172 173
f 166 164 173
f 3 166 173
f 153 166 3
f 153 64 166
f 64 145 166
f 145 149 166
f 145 61 149
f 56 149 61
f 56 58 149
f 149 58 164
f 62 58 56
f 62 59 58
f 72 59 62
f 72 62 65
f 76 72 65
f 72 76 75
f 84 75 76
f 84 76 85
f 108 84 85
f 88 108 85
f 97 108 88
f 98 108 97
f 109 108 98
f 122 108 109
f 111 122 109
f 116 122 111
f 123 122 116
f 133 122 123
f 130 133 123
f 130 135 133
f 133 135 134
f 135 141 134
f 143 141 135
f 143 148 141
f 141 148 46
f 141 46 50
f 141 50 45
f 141 45 146
f 139 141 146
f 139 146 142
f 139 142 136
f 136 142 140
f 142 49 140
f 142 47 49
f 142 45 47
f 49 131 140
f 131 49 48
f 131 48 138
f 127 131 138
f 127 138 112
f 152 112 138
f 152 137 112
f 152 52 137
f 48 52 152
f 137 52 169
f 137 169 155
f 155 169 147
f 155 147 107
f 124 155 107
f 127 124 107
f 127 137 124
f 127 107 101
f 127 101 66
f 96 127 66
f 117 127 96
f 118 117 96
f 118 96 106
f 122 118 106
f 115 118 122
f 121 118 115
f 121 128 118
f 136 128 121
f 128 136 131
f 128 131 126
f 126 131 117
f 128 126 117
f 128 117 119
f 121 133 136
f 128 119 118
f 133 121 115
f 122 106 104
f 106 103 104
f 106 99 103
f 99 89 103
f 89 86 103
f 84 103 86
f 84 86 80
f 80 86 72
f 94 72 86
f 94 67 72
f 94 66 67
f 67 66 72
f 89 94 86
f 89 96 94
f 89 99 96
f 104 103 84
f 106 96 99
f 96 66 94
f 101 160 66
f 59 66 160
f 107 114 101
f 107 147 114
f 137 155 124
f 112 137 127
f 117 131 127
f 48 152 138
f 136 140 131
f 139 136 133
f 146 45 142
f 134 141 139
f 133 134 139
f 133 115 122
f 122 104 108
f 98 97 88
f 88 85 81
f 92 88 81
f 81 78 92
f 92 78 93
f 93 78 90
f 78 83 90
f 83 87 90
f 90 87 95
f 95 87 102
f 125 95 102
f 125 102 144
f 110 125 144
f 110 144 171
f 171 144 167
f 176 171 167
f 176 167 159
f 176 159 178
f 178 159 161
f 178 161 170
f 178 170 179
f 178 179 2
f 2 179 156
f 2 156 3
f 179 170 156
f 170 165 156
f 151 165 170
f 151 156 165
f 151 120 156
f 120 153 156
f 100 153 120
f 100 120 151
f 113 100 151
f 113 151 132
f 132 151 159
f 144 132 159
f 144 113 132
f 129 113 144
f 102 113 129
f 102 105 113
f 102 91 105
f 91 87 105
f 105 87 100
f 69 100 87
f 69 82 100
f 82 64 100
f 82 55 64
f 68 55 82
f 54 55 68
f 69 54 68
f 54 56 55
f 57 56 54
f 63 57 54
f 63 65 57
f 70 65 63
f 70 63 54
f 70 54 79
f 73 70 79
f 73 79 83
f 85 70 73
f 74 85 73
f 78 74 73
f 85 77 70
f 77 76 70
f 79 54 71
f 71 87 79
f 71 54 87
f 55 61 64
f 68 82 69
f 87 54 69
f 105 100 113
f 161 151 170
f 159 151 161
f 159 167 144
f 144 102 129
f 87 91 102
f 87 83 79
f 83 78 73
f 81 74 78
f 81 85 74
f 104 84 108
f 77 85 76
f 84 80 75
f 80 72 75
f 70 76 65
f 65 62 57
f 66 59 72
f 59 60 58
f 57 62 56
f 56 61 55
f 61 145 64
f 100 64 153
f 156 153 3
f 166 149 164
f 58 162 164
f 58 60 162
f 59 160 60
f 101 114 160
f 328 315 325
f 253 246 315
f 254 253 286
f 260 254 286
f 258 254 260
f 321 258 260
f 321 260 286
f 114 322 154
f 147 288 157
f 277 258 321
f 150 288 147
f 150 51 280
f 41 273 280
f 51 41 280
f 329 258 281
f 258 249 254
f 249 269 248
f 41 262 273
f 263 255 269
f 261 255 263
f 261 265 264
f 43 33 268
f 265 267 252
f 37 38 274
f 36 39 270
f 39 40 270
f 271 239 252
f 239 250 182
f 251 182 250
f 251 247 182
f 44 270 40
f 272 266 247
f 247 275 257
f 53 23 282
f 275 323 257
f 331 320 326
f 257 323 314
f 320 300 311
f 314 181 285
f 181 278 259
f 284 259 305
f 308 311 303
f 303 311 299
f 299 20 289
f 284 305 283
f 289 20 19
f 244 19 15
f 244 15 16
f 15 19 17
f 243 283 309
f 185 183 243
f 185 189 190
f 244 16 223
f 210 11 10
f 218 189 219
f 190 189 209
f 205 190 206
f 9 210 10
f 196 205 9

