# https://github.com/mikedh/trimesh
v -0.01468600 -0.47640601 0.14558400
v 0.07415000 -0.47494687 0.14570476
v 0.27703882 -0.48730190 0.10575372
v 0.28108050 -0.47871760 0.11188078
v 0.27274764 -0.47578201 0.11989449
v 0.26909929 -0.48773783 0.11072965
v 0.26351564 -0.48937769 0.11234438
v 0.28029762 -0.47430912 0.11587775
v 0.28911841 -0.48359189 0.09888990
v 0.27795801 -0.48968199 0.10229600
v 0.28639498 -0.47873928 0.10745803
v 0.28456599 -0.48901901 0.09663000
v 0.29529199 -0.47814301 0.09888300
v 0.29223800 -0.47441400 0.10600100
v 0.26886901 -0.49169800 0.10833000
v 0.23638625 -0.47214972 0.13412228
v 0.22335838 -0.47056574 0.13743515
v 0.20196593 -0.47183167 0.14043436
v 0.23899487 -0.46736613 0.13482901
v 0.18930050 -0.46999350 0.14267099
v 0.25599548 -0.46859555 0.13039643
v 0.26420701 -0.46683499 0.12796199
v 0.26479101 -0.47182593 0.12604602
v 0.27430400 -0.46854499 0.12290700
v 0.27395800 -0.47112000 0.12198600
v 0.17373649 -0.47170501 0.14372700
v 0.16078934 -0.47966297 0.14045794
v 0.18366043 -0.47649929 0.14015265
v 0.19470696 -0.48015423 0.13621565
v 0.18930143 -0.47372682 0.14125553
v 0.21623672 -0.47905605 0.13361669
v 0.14611751 -0.47762523 0.14257929
v 0.23200707 -0.47777050 0.13186545
v 0.21631972 -0.48412290 0.12968234
v 0.24985926 -0.48961727 0.11796114
v 0.24038138 -0.48912694 0.12117443
v 0.23451186 -0.48824954 0.12313898
v 0.24811588 -0.47500770 0.12972797
v 0.25741207 -0.47782133 0.12479530
v 0.26277111 -0.47654201 0.12362700
v 0.26710224 -0.49038815 0.11003786
v 0.25377775 -0.49143286 0.11567863
v 0.18240419 -0.49170926 0.13119002
v 0.18687522 -0.48904889 0.13116975
v 0.21314951 -0.49588100 0.12876750
v 0.21512199 -0.48758886 0.12739508
v 0.22433532 -0.48926190 0.12473372
v 0.23861501 -0.49141499 0.12086800
v 0.16611386 -0.48971550 0.13321580
v 0.19442700 -0.48762399 0.13083699
v 0.16596542 -0.48604632 0.13512658
v 0.18560229 -0.48660139 0.13263609
v 0.20442668 -0.48793879 0.12908360
v 0.13758869 -0.48957068 0.13478092
v 0.07663754 -0.48911230 0.13635285
v 0.02549311 -0.49100960 0.13678829
v 0.02329556 -0.48857584 0.13739323
v 0.09951231 -0.48968039 0.13559099
v 0.06104364 -0.48772881 0.13726108
v 0.11278618 -0.48671290 0.13723629
v 0.10894515 -0.48027907 0.14177613
v 0.02035584 -0.48640282 0.13866750
v 0.09584403 -0.48765071 0.13667812
v 0.01011098 -0.48288046 0.14133058
v 0.07648655 -0.47726188 0.14440629
v 0.15727911 -0.48315762 0.13804267
v 0.15157229 -0.48826851 0.13477496
v 0.14493463 -0.47462975 0.14418563
v -0.02438401 -0.48798196 0.13796438
v -0.01598200 -0.49042800 0.13713300
v 0.00789200 -0.49042800 0.13703500
v 0.01361024 -0.49136993 0.13692054
v 0.12981205 -0.49172158 0.13476106
v 0.16088000 -0.49585900 0.13582399
v 0.06329156 -0.49131408 0.13616158
v 0.07763860 -0.49201333 0.13594532
v -0.00777700 -0.49240199 0.13719100
v 0.02928050 -0.49260000 0.13687000
v 0.10394300 -0.49331099 0.13568300
v 0.12473000 -0.49338901 0.13530201
v 0.14609576 -0.49341376 0.13455025
f 34 53 29
f 31 34 29
f 53 50 29
f 34 46 53
f 30 31 29
f 33 34 31
f 29 50 44
f 50 53 44
f 37 46 34
f 30 29 28
f 33 31 30
f 33 37 34
f 52 29 44
f 37 47 46
f 28 29 27
f 28 27 30
f 17 33 30
f 36 37 33
f 52 49 29
f 44 49 52
f 37 36 47
f 29 51 27
f 30 27 32
f 18 17 30
f 17 16 33
f 38 36 33
f 29 49 51
f 44 43 49
f 27 51 66
f 27 60 32
f 68 30 32
f 26 18 30
f 19 16 17
f 16 38 33
f 38 35 36
f 67 51 49
f 44 45 43
f 49 43 74
f 27 66 60
f 66 51 67
f 32 60 68
f 26 30 68
f 20 18 26
f 19 21 16
f 19 17 18
f 21 38 16
f 35 48 36
f 35 38 39
f 67 49 54
f 53 45 44
f 49 74 54
f 67 60 66
f 68 60 61
f 19 18 20
f 21 19 22
f 21 23 38
f 35 42 48
f 36 48 45
f 39 7 35
f 23 39 38
f 67 54 60
f 46 45 53
f 54 74 73
f 60 63 61
f 2 68 61
f 23 21 22
f 41 42 35
f 7 41 35
f 5 7 39
f 23 40 39
f 60 54 58
f 47 45 46
f 54 73 58
f 60 58 63
f 61 63 59
f 2 61 65
f 24 23 22
f 41 15 42
f 6 41 7
f 5 6 7
f 40 5 39
f 23 5 40
f 36 45 47
f 58 73 76
f 58 55 63
f 61 59 64
f 63 55 59
f 2 65 64
f 65 61 64
f 24 25 23
f 10 15 41
f 3 41 6
f 5 4 6
f 25 5 23
f 58 76 75
f 73 79 76
f 55 58 75
f 59 62 64
f 59 55 57
f 2 64 1
f 3 10 41
f 4 3 6
f 8 4 5
f 25 8 5
f 75 76 78
f 80 79 73
f 55 75 56
f 62 59 57
f 57 64 62
f 55 56 57
f 9 10 3
f 4 11 3
f 11 4 8
f 75 78 56
f 73 81 80
f 57 69 64
f 57 56 71
f 9 3 11
f 9 12 10
f 14 11 8
f 78 72 56
f 56 72 71
f 14 9 11
f 13 12 9
f 78 77 72
f 71 72 70
f 14 13 9
f 72 77 70

