# https://github.com/mikedh/trimesh
v -0.27471137 -0.22349950 -0.01884387
v -0.30835301 -0.24772100 0.02585800
v -0.32459101 -0.25108600 0.04404100
v -0.30047076 -0.24454550 0.01494438
v -0.28994676 -0.23839225 -0.00217450
v -0.22041785 -0.19927460 0.06374217
v -0.22738899 -0.20113200 0.05445000
v -0.23447900 -0.20123200 0.04430700
v -0.24212199 -0.20280600 0.03206400
v -0.24804300 -0.20416300 0.02161550
v -0.25367898 -0.20478580 0.00995795
v -0.25771550 -0.20681175 0.00028375
v -0.26182121 -0.20759272 -0.01067731
v -0.26470701 -0.21058401 -0.02134750
v -0.20428621 -0.22390283 0.10282314
v -0.19646202 -0.21754776 0.10607512
v -0.20009226 -0.22060507 0.10458339
v -0.25041100 -0.23138150 0.09360400
v -0.27092025 -0.23030701 0.08455450
v -0.22904325 -0.23043425 0.09657650
v -0.30433874 -0.23588328 0.06157066
v -0.29603201 -0.23227900 0.06728300
v -0.29013874 -0.23080301 0.07162150
v -0.20820300 -0.22539200 0.10130800
v -0.19323300 -0.21174499 0.10445600
v -0.18964700 -0.20645700 0.10326200
v -0.18947875 -0.20580075 0.09777375
v -0.21265743 -0.20339987 0.07845595
v -0.22686900 -0.21198000 0.07069100
v -0.23687300 -0.21607099 0.07735300
v -0.25476949 -0.22201350 0.07022250
v -0.23976428 -0.21687829 0.06272912
v -0.22978631 -0.21334421 0.06804750
v -0.23521128 -0.21296241 0.06157340
v -0.24220469 -0.21311264 0.05231553
v -0.24067171 -0.20315703 0.03540976
v -0.21815349 -0.20373442 0.06924055
v -0.26115368 -0.20923432 -0.00660154
v -0.26999049 -0.22516133 0.06194044
v -0.27417600 -0.22635899 0.06046800
v -0.26169601 -0.22352600 0.06624900
v -0.28790399 -0.23034000 0.05185100
v -0.29212050 -0.23332651 0.05077550
v -0.29554436 -0.23393702 0.04712413
v -0.24900558 -0.21965950 0.06766461
v -0.26122980 -0.22297309 0.05554870
v -0.24772844 -0.21946047 0.05850374
v -0.25995626 -0.22312977 0.05197368
v -0.26871091 -0.22519485 0.04183830
v -0.27356867 -0.22731558 0.04324483
v -0.28820288 -0.23199146 0.03897545
v -0.28196826 -0.23051394 0.03637980
v -0.28861853 -0.23357119 0.03326221
v -0.29136485 -0.23443346 0.03503391
v -0.28293701 -0.23092210 0.02934163
v -0.29774508 -0.23857311 0.03149781
v -0.29478182 -0.23830115 0.02479512
v -0.29656718 -0.23445371 0.04266791
v -0.30300163 -0.24201660 0.03088816
v -0.29903142 -0.23595809 0.04651175
v -0.30243000 -0.23463400 0.05664600
v -0.28339988 -0.23115194 0.05776616
v -0.30123908 -0.23344740 0.06169420
v -0.31121967 -0.23916271 0.05151458
v -0.30786108 -0.24107977 0.04043424
v -0.28970660 -0.23052936 0.06567565
v -0.27397622 -0.23044960 0.06284035
v -0.28413715 -0.22950082 0.07506459
v -0.26198801 -0.23041477 0.06940203
v -0.27414218 -0.22927898 0.07970790
v -0.26833126 -0.22944927 0.08412071
v -0.25083461 -0.23065421 0.07417627
v -0.23058905 -0.22945758 0.08069964
v -0.21866101 -0.22707119 0.08449857
v -0.23674800 -0.22989750 0.07775750
v -0.23755707 -0.23081780 0.09430293
v -0.22226812 -0.22865431 0.09538614
v -0.25625718 -0.23039717 0.09064212
v -0.24271136 -0.23090556 0.09398998
v -0.21081820 -0.22541710 0.09819352
v -0.21034749 -0.22371700 0.08617850
v -0.20066962 -0.21745525 0.09053638
v -0.19947910 -0.21738139 0.09702527
v -0.19821285 -0.21439972 0.09206349
v -0.19363625 -0.21050156 0.09492825
v -0.29884800 -0.23559413 0.04389877
v -0.24574700 -0.21339700 0.04718400
v -0.25337462 -0.21879317 0.04792399
v -0.25844658 -0.21734138 0.03022810
v -0.25142699 -0.21346501 0.03644600
v -0.27051062 -0.22388094 0.02342444
v -0.26476790 -0.22113548 0.03012964
v -0.26301371 -0.21823611 0.02137013
v -0.25634909 -0.21131381 0.01704725
v -0.24634899 -0.20980145 0.03776598
v -0.26210706 -0.21544805 0.01202972
v -0.26779223 -0.21968036 0.00848755
v -0.26904541 -0.21929327 -0.00133007
v -0.27763141 -0.22747793 0.01041217
v -0.27521641 -0.22482884 -0.00210705
v -0.27677012 -0.22729036 0.01831896
v -0.26722738 -0.21554970 -0.01292667
v -0.27224001 -0.22177500 -0.00741000
v -0.28432379 -0.23240492 0.01450919
v -0.27914310 -0.22859278 -0.00028944
v -0.28453856 -0.23327907 0.00038655
v -0.28875673 -0.23585091 0.01114894
v -0.27430307 -0.22362283 -0.01432603
v -0.29091402 -0.23804564 0.00642984
v -0.29576792 -0.23995982 0.01959805
v -0.31004958 -0.23856145 0.05592335
v -0.31956652 -0.24529409 0.04764541
f 63 111 21
f 63 64 111
f 111 64 112
f 64 65 112
f 65 3 112
f 65 59 3
f 58 59 65
f 86 58 65
f 60 86 65
f 44 86 60
f 66 44 60
f 66 60 22
f 68 66 22
f 70 66 68
f 70 68 71
f 71 69 70
f 72 69 71
f 75 72 71
f 79 75 71
f 76 75 79
f 77 75 76
f 20 77 76
f 24 77 20
f 24 80 77
f 80 74 77
f 80 81 74
f 81 80 15
f 83 81 15
f 83 82 81
f 84 82 83
f 85 84 83
f 25 85 83
f 26 85 25
f 26 27 85
f 25 83 16
f 16 83 17
f 17 83 15
f 74 73 77
f 15 80 24
f 20 76 18
f 77 73 75
f 79 71 78
f 79 78 18
f 78 71 19
f 72 67 69
f 70 69 67
f 71 68 19
f 70 67 66
f 67 62 66
f 62 43 66
f 43 44 66
f 68 22 23
f 22 60 63
f 63 60 61
f 61 60 64
f 44 58 86
f 51 58 44
f 51 53 58
f 53 54 58
f 54 56 58
f 54 57 56
f 56 57 59
f 57 110 59
f 110 4 59
f 110 109 4
f 110 107 109
f 104 107 110
f 104 109 107
f 109 104 106
f 106 5 109
f 1 5 106
f 100 1 106
f 105 100 106
f 99 105 106
f 99 100 105
f 91 100 99
f 97 100 91
f 97 98 100
f 98 103 100
f 103 108 100
f 102 108 103
f 102 1 108
f 14 1 102
f 38 14 102
f 96 38 102
f 102 98 96
f 96 11 38
f 11 96 94
f 94 96 89
f 93 89 96
f 96 91 93
f 89 93 91
f 89 91 92
f 49 92 91
f 49 91 50
f 91 55 50
f 91 101 55
f 101 104 55
f 99 104 101
f 55 104 57
f 53 55 57
f 52 55 53
f 55 52 50
f 50 52 51
f 50 51 46
f 42 46 51
f 39 46 42
f 45 46 39
f 45 47 46
f 46 47 48
f 88 48 47
f 88 89 48
f 90 89 88
f 95 89 90
f 9 89 95
f 95 36 9
f 8 36 95
f 8 95 7
f 7 95 35
f 95 87 35
f 87 95 88
f 87 88 35
f 32 35 88
f 34 35 32
f 33 34 32
f 37 34 33
f 37 7 34
f 6 7 37
f 28 6 37
f 28 37 33
f 28 33 29
f 29 33 30
f 33 45 30
f 33 32 45
f 30 45 31
f 31 45 41
f 7 35 34
f 9 36 8
f 9 10 89
f 95 90 88
f 89 49 48
f 32 88 47
f 32 47 45
f 45 39 41
f 41 39 40
f 39 42 40
f 46 48 50
f 49 50 48
f 92 49 89
f 89 10 94
f 10 11 94
f 12 38 11
f 12 13 38
f 13 14 38
f 98 102 103
f 96 98 97
f 96 97 91
f 91 99 101
f 100 108 1
f 99 106 104
f 109 5 4
f 59 4 2
f 104 110 57
f 53 57 54
f 51 52 53
f 44 42 51
f 58 56 59
f 59 2 3
f 64 60 65
f 63 61 64
f 22 63 21

