# https://github.com/mikedh/trimesh
v 0.19743399 -0.10361600 0.05716700
v 0.20494700 -0.10469450 0.05799050
v 0.18999600 -0.11545500 0.07378800
v 0.16544400 -0.13665199 0.09530000
v 0.20365100 -0.10738350 0.06315800
v 0.16325650 -0.14619750 0.10210200
v 0.21522775 -0.10947750 0.06152275
v 0.20092601 -0.15946800 0.09533800
v 0.19822976 -0.17387403 0.09737797
v 0.19457558 -0.16905778 0.09943879
v 0.18856267 -0.15874636 0.10132797
v 0.20435499 -0.16108550 0.09349450
v 0.19796999 -0.15920780 0.09705612
v 0.20803225 -0.14579950 0.08770650
v 0.18452731 -0.15261962 0.10146973
v 0.18551167 -0.16680013 0.10309065
v 0.20692500 -0.13951400 0.08600300
v 0.20898263 -0.14167950 0.08558650
v 0.19778044 -0.14671330 0.09366732
v 0.20520841 -0.12897437 0.08166209
v 0.20959425 -0.12673300 0.07780675
v 0.17927022 -0.15946355 0.10438128
v 0.17606624 -0.15012374 0.10310632
v 0.19902858 -0.13087522 0.08519284
v 0.21782050 -0.11536150 0.06600400
v 0.18631490 -0.13491307 0.09188861
v 0.20379093 -0.11581014 0.07222344
v 0.16993301 -0.15087000 0.10389700
v 0.19760901 -0.12699898 0.08322297
v 0.16767303 -0.14559386 0.10184650
v 0.17258515 -0.13994305 0.09784240
v 0.17949041 -0.12995189 0.08906125
v 0.19156335 -0.11961550 0.07799798
v 0.19783589 -0.11892788 0.07637398
v 0.21259287 -0.11167622 0.06552150
v 0.20140650 -0.16651849 0.09577600
v 0.18808050 -0.17121500 0.10227550
v 0.20429100 -0.17507701 0.09401700
v 0.18990021 -0.17254187 0.10056801
v 0.19241075 -0.17722650 0.09889437
v 0.20280900 -0.17927219 0.09420217
v 0.21141825 -0.18660238 0.08634575
v 0.19599588 -0.18144878 0.09626295
v 0.19947900 -0.18678250 0.09301200
v 0.20469581 -0.19366700 0.08594675
v 0.21189500 -0.19092500 0.08356500
v 0.21065050 -0.19362451 0.08208000
v 0.20981701 -0.19918400 0.07817100
v 0.20671788 -0.19599112 0.08277988
v 0.19357300 -0.08969800 0.05736900
v 0.18829501 -0.09553300 0.06057700
v 0.20091750 -0.09197900 0.06248450
v 0.18718550 -0.10181650 0.05787650
v 0.23319399 -0.10515000 0.05994500
v 0.22322100 -0.10943100 0.05571500
v 0.21310506 -0.10497915 0.05685102
v 0.21693657 -0.10333894 0.05858221
v 0.19650918 -0.09571605 0.06221378
v 0.23759442 -0.10843882 0.05899478
v 0.25279501 -0.12621900 0.05225100
v 0.25148339 -0.13238764 0.04960612
v 0.23023869 -0.10001690 0.06203749
v 0.24637950 -0.12952100 0.05012900
v 0.23927732 -0.12117610 0.05273480
v 0.25322987 -0.13813150 0.04766250
v 0.25440451 -0.12941400 0.05083125
v 0.25575599 -0.14003700 0.04660900
v 0.24811600 -0.11759250 0.05561650
v 0.24270675 -0.11091850 0.05823350
v 0.24116300 -0.12449451 0.05178300
v 0.23065881 -0.11269055 0.05472972
v 0.25674301 -0.13510200 0.04850400
v 0.21836384 -0.09600568 0.06328154
v 0.23320788 -0.11668950 0.05407262
v 0.20784059 -0.09413371 0.06371867
v 0.22164484 -0.09594715 0.06318960
v 0.22521400 -0.09635400 0.06271900
v 0.21733250 -0.09323950 0.06304100
v 0.21282101 -0.09200800 0.06295600
v 0.22430850 -0.08397400 0.04486500
v 0.25156300 -0.10618750 0.03332250
v 0.24023300 -0.09492600 0.04183800
v 0.20770209 -0.07948860 0.04503692
v 0.22082150 -0.08252150 0.04486700
v 0.21492000 -0.08104550 0.04493350
v 0.19222963 -0.08346413 0.04522262
v 0.20036900 -0.08134275 0.04553725
v 0.27501700 -0.12604753 -0.01952365
v 0.27398300 -0.12660301 -0.01646200
v 0.27078781 -0.12359650 -0.00249250
v 0.24882786 -0.11457648 0.05585106
v 0.25125750 -0.11696950 0.05379450
v 0.25466901 -0.12223200 0.05176800
v 0.25799851 -0.12784900 0.04883850
v 0.25626099 -0.12568299 0.05096200
v 0.25759922 -0.14336879 0.04505673
v 0.24555290 -0.14826254 0.06001381
v 0.22953247 -0.13890422 0.07155647
v 0.23519846 -0.15120224 0.07032939
v 0.25567127 -0.15160027 0.04970166
v 0.23487389 -0.12629728 0.06154461
v 0.22347925 -0.15528082 0.08018876
v 0.26144164 -0.14894074 0.04195897
v 0.22402998 -0.13269514 0.07285465
v 0.21353539 -0.14495462 0.08432950
v 0.21769212 -0.13020579 0.07572879
v 0.22501296 -0.12120490 0.06594135
v 0.22499381 -0.11595514 0.06225786
v 0.23737998 -0.12772580 0.05996879
v 0.22810089 -0.11397846 0.05728061
v 0.23194055 -0.11932398 0.05899333
v 0.24722948 -0.16122928 0.06022186
v 0.25534557 -0.17213406 0.05092709
v 0.25512106 -0.16313186 0.05186120
v 0.24162220 -0.16179360 0.06589930
v 0.23299927 -0.16232464 0.07359307
v 0.24045536 -0.15256897 0.06580560
v 0.25925772 -0.15742438 0.04622345
v 0.23885775 -0.17302723 0.06854023
v 0.22378940 -0.17085985 0.08083511
v 0.23244600 -0.17458300 0.07355800
v 0.24779729 -0.17486206 0.05888972
v 0.22113836 -0.17901472 0.08193078
v 0.21574053 -0.15108878 0.08475408
v 0.21039548 -0.16699410 0.09057988
v 0.21145145 -0.17851642 0.08926235
v 0.26232235 -0.16542737 0.04162733
v 0.22594351 -0.18719230 0.07515118
v 0.25252853 -0.17711371 0.05182229
v 0.26389586 -0.14874208 0.03951724
v 0.26217401 -0.13657200 0.04404500
v 0.26103801 -0.13411500 0.04568300
v 0.26162998 -0.14102395 0.04421506
v 0.26887636 -0.15875273 0.03088489
v 0.26694337 -0.15855012 0.03445326
v 0.23600644 -0.18575579 0.06600121
v 0.25828734 -0.17368564 0.04422246
v 0.26999101 -0.15385599 0.02805700
v 0.27169101 -0.15580799 0.02340350
v 0.22467536 -0.18598159 0.07722015
v 0.26648487 -0.16445724 0.03437326
v 0.24680451 -0.18077665 0.05668259
v 0.27414062 -0.15084588 0.01186237
v 0.22773226 -0.18942926 0.07109904
v 0.24313969 -0.18168426 0.06128634
v 0.23160595 -0.19238570 0.06134655
v 0.22104037 -0.20013301 0.06475113
v 0.23256300 -0.20111300 0.04903925
v 0.23006827 -0.19992645 0.05277018
v 0.23737399 -0.20187500 0.04187100
v 0.24020100 -0.20208225 0.03749575
v 0.24335501 -0.20279799 0.03207600
v 0.24995001 -0.20411500 0.01995375
v 0.25472652 -0.20463597 0.01040467
v 0.25967974 -0.20636926 -0.00141926
v 0.26328039 -0.20765238 -0.01112821
v 0.26513900 -0.20884251 -0.01761800
v 0.21449654 -0.19892693 0.07308663
v 0.26343346 -0.20021826 0.00116626
v 0.26651947 -0.19950048 -0.00484115
v 0.26033520 -0.19715705 0.01205156
v 0.24900896 -0.19382683 0.03618866
v 0.24895549 -0.18358829 0.04513477
v 0.25754601 -0.19638200 0.01799800
v 0.26335773 -0.19610380 0.00651390
v 0.25899153 -0.18406937 0.02558311
v 0.26763422 -0.20469130 -0.01710338
v 0.26668599 -0.21012300 -0.02405400
v 0.26718199 -0.21085000 -0.02659900
v 0.26903559 -0.16458006 0.01028002
v 0.26774901 -0.21109000 -0.02999500
v 0.22436209 -0.19941334 0.06041689
v 0.26759348 -0.19534777 -0.00529019
v 0.26928541 -0.19907393 -0.01498174
v 0.25103417 -0.18218231 0.04363282
v 0.27091411 -0.15892728 0.00689034
v 0.26543225 -0.16960391 0.02092651
v 0.26870838 -0.21001384 -0.03433246
v 0.26285983 -0.17235768 0.02463585
v 0.27149954 -0.15851357 0.02226560
v 0.27264825 -0.15483782 0.00023155
v 0.26152301 -0.17139531 0.03689471
v 0.27209450 -0.16763704 -0.00755364
v 0.27011173 -0.20068333 -0.02234222
v 0.27405786 -0.15066668 -0.00806824
v 0.27076550 -0.19660350 -0.02524850
v 0.27016250 -0.20308350 -0.03010850
v 0.27436817 -0.14933215 -0.00283391
v 0.27429801 -0.14872400 -0.00629700
v 0.27317349 -0.15385600 0.01739200
v 0.27498449 -0.14804900 0.00451250
v 0.22355065 -0.09292644 0.06083371
v 0.23320314 -0.09769262 0.05940520
v 0.23559786 -0.09657906 0.05388521
v 0.23835042 -0.09688656 0.05054033
v 0.25058453 -0.10935988 0.04183003
v 0.24757862 -0.10958678 0.05287498
v 0.25626515 -0.11165056 0.02774429
v 0.25823002 -0.12317699 0.04175563
v 0.26047496 -0.12281566 0.03077379
v 0.25894974 -0.11357175 0.02302500
v 0.25956893 -0.12777403 0.04441107
v 0.25574282 -0.12109072 0.04826420
v 0.26486201 -0.11850700 0.01221300
v 0.26340500 -0.12295200 0.02134400
v 0.26809132 -0.12487219 0.00905266
v 0.26690271 -0.13405453 0.02424957
v 0.27279234 -0.12689505 -0.00661648
v 0.27326472 -0.14463443 0.01427137
v 0.27479398 -0.13926037 0.00317487
v 0.27564000 -0.13921514 -0.00249224
v 0.26592138 -0.14075720 0.03486539
v 0.27489621 -0.14413243 0.00708329
v 0.27209971 -0.14896155 0.02071386
v 0.27295228 -0.15243268 0.01975253
v 0.27548855 -0.13488905 -0.01417088
v 0.27535125 -0.13526700 -0.01789700
v 0.27571650 -0.14145600 -0.00481600
v 0.21688930 -0.09098022 0.06115388
v 0.21614648 -0.08255451 0.04766480
v 0.20911668 -0.08517400 0.05449550
v 0.20730357 -0.09015739 0.06148034
v 0.20163413 -0.08680785 0.05632058
v 0.19719083 -0.08834806 0.05760256
f 31 6 30
f 26 31 30
f 29 31 26
f 29 32 31
f 33 32 29
f 3 32 33
f 33 5 3
f 27 5 33
f 33 34 27
f 34 29 27
f 35 27 29
f 35 29 20
f 25 35 20
f 25 7 35
f 7 5 35
f 20 21 25
f 21 20 17
f 20 19 17
f 19 20 23
f 20 24 23
f 24 26 23
f 23 15 19
f 23 22 15
f 28 22 23
f 30 28 23
f 11 15 22
f 16 11 22
f 22 37 16
f 13 11 16
f 10 13 16
f 16 39 10
f 10 39 9
f 9 39 40
f 9 40 43
f 41 9 43
f 41 43 44
f 41 44 42
f 44 45 42
f 42 45 46
f 45 49 46
f 38 41 42
f 38 42 126
f 126 42 140
f 123 126 140
f 120 123 140
f 121 120 140
f 121 140 119
f 140 145 119
f 140 128 145
f 145 128 136
f 145 136 146
f 145 146 151
f 151 146 150
f 146 148 150
f 149 148 146
f 146 172 149
f 147 172 146
f 158 147 146
f 144 158 146
f 128 158 144
f 145 151 163
f 151 162 163
f 163 162 164
f 163 164 161
f 164 153 161
f 153 154 161
f 161 154 155
f 161 155 156
f 159 161 156
f 165 161 159
f 165 166 161
f 179 166 165
f 182 166 179
f 182 179 177
f 182 177 141
f 127 182 141
f 113 182 127
f 113 137 182
f 129 137 113
f 129 175 137
f 137 175 182
f 175 129 163
f 163 166 175
f 129 142 163
f 129 145 142
f 122 145 129
f 113 122 129
f 119 122 113
f 112 119 113
f 115 119 112
f 115 116 119
f 116 120 119
f 125 120 116
f 120 125 126
f 125 12 126
f 12 125 124
f 124 125 102
f 102 98 124
f 98 106 124
f 106 105 124
f 106 18 105
f 18 106 7
f 107 7 106
f 107 106 104
f 101 107 104
f 101 108 107
f 111 108 101
f 108 111 110
f 110 111 64
f 74 110 64
f 108 110 55
f 71 55 110
f 110 74 71
f 55 7 108
f 7 55 56
f 7 56 2
f 111 101 64
f 101 109 64
f 101 98 109
f 109 98 97
f 65 109 97
f 109 65 63
f 109 63 70
f 67 65 97
f 97 100 67
f 97 114 100
f 100 114 118
f 118 114 127
f 118 127 135
f 103 100 118
f 103 118 134
f 103 134 130
f 131 130 134
f 131 134 138
f 138 134 139
f 215 138 139
f 215 139 143
f 213 215 143
f 209 215 213
f 209 214 215
f 212 215 214
f 212 214 209
f 212 209 207
f 199 212 207
f 202 212 199
f 132 212 202
f 131 212 132
f 202 203 132
f 203 94 132
f 93 94 203
f 92 93 203
f 197 92 203
f 197 203 196
f 203 199 196
f 199 200 196
f 196 200 198
f 200 201 198
f 200 205 201
f 200 207 205
f 196 198 81
f 195 196 81
f 195 81 82
f 82 80 195
f 195 80 194
f 193 195 194
f 193 59 195
f 195 59 197
f 59 92 197
f 193 194 80
f 193 80 192
f 192 80 220
f 192 220 219
f 219 220 221
f 220 83 221
f 221 83 87
f 221 87 223
f 221 223 222
f 222 223 224
f 224 52 222
f 224 50 52
f 224 87 50
f 87 86 50
f 52 79 222
f 79 219 222
f 76 219 79
f 79 52 75
f 79 75 78
f 78 75 76
f 78 76 77
f 77 76 62
f 76 75 73
f 76 73 57
f 76 57 62
f 62 57 54
f 62 54 59
f 59 54 57
f 57 71 59
f 59 71 64
f 61 59 64
f 61 64 63
f 64 70 63
f 61 63 65
f 61 65 67
f 72 61 67
f 60 61 72
f 60 59 61
f 69 59 60
f 57 55 71
f 57 56 55
f 57 2 56
f 73 75 57
f 75 58 57
f 58 53 57
f 51 53 58
f 52 51 58
f 57 53 1
f 75 52 58
f 223 87 224
f 220 85 83
f 220 84 85
f 221 222 219
f 76 192 219
f 192 76 59
f 193 192 59
f 80 84 220
f 197 196 195
f 202 199 203
f 200 199 207
f 207 209 210
f 208 207 210
f 210 88 208
f 210 211 88
f 210 213 211
f 213 218 211
f 211 218 217
f 211 217 216
f 211 216 88
f 88 216 217
f 207 208 206
f 204 206 208
f 204 208 90
f 208 89 90
f 201 206 204
f 201 207 206
f 209 213 210
f 213 143 218
f 212 138 215
f 134 180 139
f 139 180 190
f 190 180 176
f 190 176 188
f 190 188 191
f 191 188 189
f 188 185 189
f 188 181 185
f 181 183 185
f 183 174 185
f 185 174 184
f 185 184 186
f 186 184 187
f 187 184 178
f 184 167 178
f 167 171 178
f 167 169 171
f 167 168 169
f 157 168 167
f 167 156 157
f 160 156 167
f 160 167 174
f 160 174 173
f 170 173 174
f 176 170 174
f 181 176 174
f 177 170 176
f 177 173 170
f 173 179 160
f 174 167 184
f 181 174 183
f 176 181 188
f 180 177 176
f 134 177 180
f 212 131 138
f 133 130 131
f 133 131 132
f 94 133 132
f 94 95 133
f 95 66 133
f 133 66 65
f 133 65 96
f 133 96 103
f 95 68 66
f 95 91 68
f 91 69 68
f 69 59 68
f 133 103 130
f 100 103 96
f 97 112 114
f 67 100 96
f 97 98 99
f 97 99 117
f 117 99 116
f 99 102 116
f 97 117 115
f 64 109 70
f 101 104 98
f 108 7 107
f 105 18 12
f 104 106 98
f 99 98 102
f 105 12 124
f 116 102 125
f 117 116 115
f 115 112 97
f 114 112 113
f 114 113 127
f 127 141 135
f 135 141 134
f 134 141 177
f 177 179 173
f 175 166 182
f 179 165 160
f 165 159 160
f 159 156 160
f 166 163 161
f 162 153 164
f 162 152 153
f 162 151 152
f 142 145 163
f 144 146 136
f 136 128 144
f 128 140 158
f 140 48 158
f 47 48 140
f 122 119 145
f 119 120 121
f 120 126 123
f 140 42 47
f 12 38 126
f 38 9 41
f 36 9 38
f 36 10 9
f 13 10 36
f 8 13 36
f 14 13 8
f 14 19 13
f 13 15 11
f 19 15 13
f 17 19 14
f 24 20 29
f 27 35 5
f 3 4 32
f 6 32 4
f 29 34 33
f 29 26 24
f 26 30 23
f 32 6 31
f 28 30 6

