# https://github.com/mikedh/trimesh
v 0.24766649 -0.42328151 0.17040449
v 0.31520599 -0.42952400 0.12596001
v 0.31956814 -0.42726226 0.13553600
v 0.25875500 -0.41877950 0.16947049
v 0.27739999 -0.41658601 0.16549200
v 0.27285188 -0.41887762 0.16793650
v 0.31917600 -0.42688550 0.14052200
v 0.29507200 -0.43187062 0.15431687
v 0.28940800 -0.43092050 0.15719725
v 0.26060338 -0.43749512 0.16743125
v 0.27870388 -0.43092849 0.16217797
v 0.23162900 -0.44601199 0.17076699
v 0.24342200 -0.42676800 0.17136499
v 0.25502199 -0.42184401 0.17135900
v 0.31244563 -0.42591937 0.14979025
v 0.29730584 -0.41853890 0.15900254
v 0.29701865 -0.42257464 0.15998812
v 0.27499400 -0.42283715 0.16840444
v 0.29511650 -0.42527362 0.16000375
v 0.26385450 -0.42194725 0.17080549
v 0.25149551 -0.43105051 0.17272150
v 0.25976242 -0.43165372 0.16923429
v 0.27786056 -0.42735270 0.16543063
v 0.30054101 -0.42429799 0.15794399
v 0.24814452 -0.43658217 0.17172130
v 0.24238900 -0.44130351 0.17167649
v 0.24543330 -0.43067441 0.17328747
v 0.23726152 -0.43792581 0.17234044
v 0.23665050 -0.44211249 0.17203550
v 0.26536600 -0.42725051 0.16992200
v 0.26571600 -0.41881400 0.16944249
v 0.26089777 -0.42272365 0.17173113
v 0.29011063 -0.42005463 0.16251212
v 0.25450200 -0.43382300 0.16967200
v 0.30727453 -0.42070627 0.15277399
v 0.29948301 -0.43023449 0.15466651
v 0.23388300 -0.44100300 0.17131551
v 0.30098249 -0.42791750 0.15641950
v 0.30032399 -0.44305101 0.15764000
v 0.36878601 -0.42972699 -0.01963600
v 0.35116026 -0.46691150 -0.03972025
v 0.35684699 -0.45567301 -0.03621200
v 0.35847700 -0.45161200 -0.03532300
v 0.36126550 -0.44539450 -0.03209900
v 0.36225350 -0.44416676 -0.02968875
v 0.36409700 -0.43991500 -0.02783000
v 0.34910825 -0.47100000 -0.03938075
v 0.36550879 -0.44479834 0.02759644
v 0.37057639 -0.44752575 0.02249409
v 0.36301200 -0.45055901 0.03131950
v 0.36755617 -0.45008862 0.02707723
v 0.36658201 -0.45242801 0.02827900
v 0.36220717 -0.46708752 0.02990810
v 0.35645801 -0.46923800 0.03525100
v 0.35770538 -0.46491050 0.03512325
v 0.36521141 -0.45995335 0.02915573
v 0.37074900 -0.44352600 0.02036300
v 0.36455950 -0.44633749 0.02958550
v 0.36113521 -0.45727841 0.03373603
v 0.35970300 -0.45976800 0.03469300
v 0.36840059 -0.45492707 0.02526469
v 0.36628203 -0.46142048 0.02563173
v 0.37292580 -0.44392355 0.01368081
v 0.37217200 -0.44848001 0.01566400
v 0.32666807 -0.44489731 0.13203925
v 0.32621249 -0.44223023 0.13535221
v 0.32491004 -0.43702239 0.13695187
v 0.32678637 -0.45007144 0.13057297
v 0.32766225 -0.45456354 0.12818584
v 0.31953870 -0.43532809 0.14466118
v 0.31578335 -0.43357683 0.14718232
v 0.32425870 -0.44721000 0.13681489
v 0.31659688 -0.44188135 0.14195101
v 0.32277480 -0.45228259 0.13529293
v 0.32500589 -0.46680680 0.12533777
v 0.32152435 -0.46692544 0.12756590
v 0.33416900 -0.44474801 0.12392100
v 0.33664780 -0.43988460 0.12272019
v 0.33265304 -0.44280274 0.12604095
v 0.34028597 -0.43269622 0.11991062
v 0.34864599 -0.42380500 0.10958200
v 0.34585564 -0.42996342 0.11352834
v 0.34042330 -0.42725143 0.11918350
v 0.35207385 -0.41951951 0.10408594
v 0.33554613 -0.43392276 0.12381350
v 0.36353272 -0.42407994 0.08153080
v 0.32631400 -0.44519800 0.12744400
v 0.36623482 -0.42588487 0.07128800
v 0.34595128 -0.42181667 0.11262256
v 0.35812271 -0.41992109 0.09382814
v 0.36089547 -0.41891486 0.08573370
v 0.36705034 -0.42647766 0.06752720
v 0.36792489 -0.43219819 0.05975363
v 0.32591501 -0.44231099 0.12892400
v 0.36672600 -0.42672151 0.06354375
v 0.36344449 -0.42017632 0.07806915
v 0.36338550 -0.41963625 0.07457725
v 0.32393449 -0.43429850 0.13401800
v 0.30956370 -0.43078114 0.15134234
v 0.34814643 -0.42960361 0.10741635
v 0.33191641 -0.45423334 0.12266697
v 0.32941310 -0.46017423 0.12272800
v 0.35449658 -0.42535030 0.09937324
v 0.35576847 -0.42213157 0.09894442
v 0.36633469 -0.43120298 0.06914625
v 0.36182795 -0.46168901 0.04733767
v 0.36637232 -0.44280287 0.05837479
v 0.35782290 -0.46645158 0.04873449
v 0.35680498 -0.47232147 0.04364629
v 0.32285291 -0.47524168 0.11750975
v 0.36523878 -0.43529628 0.06670542
v 0.36171549 -0.46321800 0.04305450
v 0.31911914 -0.48004866 0.11668937
v 0.33542872 -0.44646539 0.11954402
v 0.36265122 -0.42951036 0.07738956
v 0.33869937 -0.44083676 0.11791053
v 0.35490191 -0.42784008 0.09417101
v 0.34886604 -0.43002866 0.10208422
v 0.36643762 -0.45091538 0.04029700
v 0.36774381 -0.44717422 0.03981504
v 0.37004801 -0.43861951 0.03639050
v 0.36566787 -0.44922025 0.04287725
v 0.36782027 -0.43537572 0.06070081
v 0.36551575 -0.44699950 0.04874700
v 0.32751079 -0.46625596 0.11949400
v 0.34333897 -0.43389409 0.10544753
v 0.34274430 -0.43478290 0.11259469
v 0.36729683 -0.44337001 0.05362995
v 0.36324784 -0.45806211 0.04536554
v 0.36759300 -0.43528225 0.05616325
v 0.33038135 -0.45610355 0.11623432
v 0.32327169 -0.47387852 0.11350044
v 0.32761552 -0.46408188 0.11521944
v 0.33589340 -0.44347788 0.11279460
v 0.33850084 -0.43900588 0.11088700
v 0.31530697 -0.45611858 0.13708124
v 0.31598435 -0.45728190 0.13205685
v 0.31484899 -0.45267501 0.13682100
v 0.31526633 -0.45343718 0.13386008
v 0.31314346 -0.44689254 0.14229376
v 0.31344726 -0.45575729 0.14329451
v 0.31339651 -0.45163642 0.14381754
v 0.31543914 -0.46940481 0.12632507
v 0.31434188 -0.46797793 0.13374883
v 0.30995987 -0.45358639 0.14867888
v 0.31455461 -0.46310785 0.13765385
v 0.30810938 -0.46250362 0.14550187
v 0.30692115 -0.44380416 0.15273696
v 0.30653000 -0.45326000 0.15157899
v 0.31008873 -0.44276756 0.14700041
v 0.30342099 -0.44699901 0.15543000
v 0.31188751 -0.44286702 0.14013669
v 0.31347308 -0.44663436 0.13785004
v 0.31631333 -0.46233700 0.12944123
v 0.35482901 -0.46385859 0.05134127
v 0.35637098 -0.45986349 0.05264805
v 0.35069057 -0.47533012 0.04715377
v 0.35979009 -0.44412556 0.06181604
v 0.35273993 -0.46951830 0.04935483
v 0.34878137 -0.48018991 0.04457226
v 0.35304062 -0.47809657 0.04276330
v 0.36352337 -0.43361514 0.07025088
v 0.35612773 -0.42840413 0.08997302
v 0.35136874 -0.43047392 0.09268971
v 0.35316832 -0.43067675 0.08980224
v 0.35616393 -0.43076787 0.08309286
v 0.36200931 -0.44843162 0.05770063
v 0.35797656 -0.45261258 0.05679912
v 0.35831441 -0.45509913 0.05475177
v 0.36181662 -0.44002810 0.06401757
v 0.35946021 -0.44177769 0.06362039
v 0.35946982 -0.43934416 0.06593819
v 0.35875779 -0.43359248 0.07448498
v 0.35939740 -0.43596550 0.07042820
v 0.35759287 -0.43145402 0.07969835
v 0.35899194 -0.44689026 0.05978776
v 0.34622226 -0.43221937 0.10176572
v 0.34316819 -0.43757993 0.10804661
v 0.34038202 -0.43651544 0.10869735
v 0.35025085 -0.43487027 0.10091530
v 0.34851545 -0.43115495 0.09786529
v 0.35442521 -0.43397915 0.09511162
v 0.33499755 -0.44573904 0.11384801
v 0.35043619 -0.43905488 0.10326203
v 0.34422292 -0.44254387 0.10973345
v 0.33940337 -0.44964919 0.11288635
v 0.34596777 -0.44875904 0.10838842
v 0.35199946 -0.44374813 0.10166790
v 0.32958462 -0.45877466 0.11556811
v 0.33176230 -0.45128967 0.11500811
v 0.33312011 -0.44836036 0.11454084
v 0.34212234 -0.45099053 0.11136669
v 0.32907977 -0.46747723 0.11384107
v 0.33812970 -0.45680583 0.11282213
v 0.32642947 -0.46755050 0.11441571
v 0.33099234 -0.47340733 0.10954387
v 0.32301297 -0.47846154 0.11056151
v 0.35486541 -0.43061413 0.08585700
v 0.35903257 -0.43595416 0.08663652
v 0.36070348 -0.43645078 0.08036983
v 0.36302626 -0.44370872 0.07439627
v 0.35633349 -0.43834184 0.09470811
v 0.36075220 -0.43672827 0.07442025
v 0.36177862 -0.44018716 0.07180569
v 0.35662331 -0.44471112 0.09351120
v 0.36183942 -0.44285626 0.08161321
v 0.36271845 -0.44842985 0.07418625
v 0.36175361 -0.45348505 0.07226367
v 0.35194156 -0.44783128 0.10113902
v 0.36147344 -0.45619473 0.06780057
v 0.34552953 -0.46167729 0.10229194
v 0.36066534 -0.44945391 0.08044215
v 0.35664929 -0.45610228 0.08572008
v 0.35419916 -0.46193682 0.08369445
v 0.35653064 -0.46689988 0.06881028
v 0.35894001 -0.46041101 0.07182800
v 0.35389284 -0.45665202 0.09110125
v 0.34683134 -0.46937138 0.08999242
v 0.34672458 -0.47493402 0.08014246
v 0.34232800 -0.46563149 0.10247320
v 0.34689259 -0.47866843 0.07011382
v 0.33732782 -0.47607917 0.09710443
v 0.34964682 -0.47648744 0.06716340
v 0.34870663 -0.47920263 0.06010264
v 0.33734423 -0.48383065 0.08076873
v 0.33268484 -0.47789695 0.10158072
v 0.33114074 -0.48200920 0.09679926
v 0.32994531 -0.48928108 0.08199355
v 0.34486300 -0.48282099 0.06131400
v 0.34376125 -0.48635020 0.04660071
v 0.34135549 -0.48534401 0.06401577
v 0.35897197 -0.46325437 0.06574350
v 0.33217604 -0.48899693 0.07692064
v 0.32550667 -0.48964158 0.08921647
v 0.32541319 -0.48746209 0.09434653
v 0.31319291 -0.49363471 0.09914025
v 0.33762550 -0.48744004 0.06722792
v 0.34092088 -0.48847530 0.05014128
v 0.34655968 -0.48600918 0.03528993
v 0.35555233 -0.47541209 0.03246384
v 0.35073643 -0.48419857 0.02589184
v 0.36182700 -0.47050500 0.02445150
v 0.36339301 -0.46860400 0.02237300
v 0.36767775 -0.45963576 0.02243975
v 0.34404998 -0.48905313 0.03163719
v 0.35540075 -0.47959400 0.02107925
v 0.34648694 -0.48312226 0.04455219
v 0.34961333 -0.47875126 0.05458840
v 0.35448128 -0.47151016 0.05804957
v 0.35048401 -0.48102599 0.04058700
v 0.35548699 -0.47519201 0.04058700
v 0.35238450 -0.47802900 0.03515750
v 0.35282849 -0.47880400 0.03910550
v 0.34697783 -0.48840127 0.02063977
v 0.34782216 -0.48820624 0.01398209
v 0.35096913 -0.48052201 0.03500988
v 0.33503534 -0.49464884 0.04418658
v 0.33906226 -0.49458883 0.02161317
v 0.32569411 -0.49470997 0.07288311
v 0.34832050 -0.48774400 0.00875500
v 0.31499086 -0.48416291 0.11426217
v 0.31783812 -0.48230326 0.11285499
v 0.32375199 -0.48331600 0.10419500
v 0.31683887 -0.48002669 0.11902330
v 0.30594377 -0.49048067 0.11474772
v 0.30077885 -0.49449536 0.11345653
v 0.33906800 -0.49480799 0.00974200
v 0.30406175 -0.48713637 0.12278145
v 0.31311362 -0.48057527 0.12052474
v 0.30978137 -0.47575691 0.13230520
v 0.29898473 -0.48663620 0.12879338
v 0.33623201 -0.49553001 0.02966800
v 0.30015200 -0.48358899 0.13223000
v 0.32094199 -0.49582300 0.07742850
v 0.30405091 -0.47945075 0.13417286
v 0.30745609 -0.47265095 0.13874392
v 0.31846768 -0.48513142 0.10800720
v 0.29074032 -0.49388335 0.12388223
v 0.29844600 -0.47771851 0.14089351
v 0.29502550 -0.48174549 0.13849200
v 0.30162800 -0.47397751 0.14232801
v 0.31856600 -0.47521943 0.12285652
v 0.30443600 -0.46977201 0.14378700
v 0.28177943 -0.49539512 0.12588725
v 0.29564900 -0.48457756 0.13488998
v 0.28287900 -0.48894450 0.13582100
v 0.31497774 -0.47751653 0.12196195
v 0.31865906 -0.47013656 0.12622893
v 0.31527447 -0.47303196 0.12456188
v 0.31933991 -0.45516140 0.13382721
v 0.31454075 -0.44967352 0.13577794
v 0.31662255 -0.46536106 0.12800269
v 0.36257558 -0.44372940 0.07075628
v 0.36292163 -0.44797226 0.06955809
v 0.36152683 -0.45063721 0.06421073
v 0.35797301 -0.45686999 0.05676700
v 0.36107885 -0.45658943 0.06480785
v 0.35882385 -0.46314960 0.06074753
v 0.34282200 -0.48120600 -0.03741850
v 0.31990549 -0.43277450 0.12141900
v 0.36576109 -0.43831054 -0.01379732
v 0.35819224 -0.44611713 -0.02395243
v 0.36274465 -0.43916256 -0.01753893
v 0.35973864 -0.44321996 -0.02207381
v 0.34846859 -0.46897387 -0.03110711
v 0.34636878 -0.47420351 -0.03148549
v 0.35089518 -0.46303369 -0.02987860
v 0.35299017 -0.45772778 -0.02871235
v 0.35594105 -0.45061963 -0.02613555
v 0.36725619 -0.43386600 -0.00494752
v 0.36889349 -0.43285226 0.00334245
v 0.37046688 -0.43117367 -0.00624423
v 0.36877899 -0.43388951 0.01178000
v 0.36866354 -0.43543895 0.01871021
v 0.37243799 -0.43136775 0.01315115
v 0.36565045 -0.43613141 -0.01560927
v 0.36573392 -0.43764187 -0.02271630
v 0.37096772 -0.43611203 0.02463883
v 0.37075007 -0.43058832 -0.01087471
v 0.36739013 -0.43455221 -0.02149495
v 0.37346779 -0.42867674 0.00539515
v 0.36458786 -0.45710929 0.03940164
v 0.35922039 -0.46859800 0.03944274
v 0.37024634 -0.43994043 0.03021433
v 0.36194101 -0.46185861 0.03804534
v 0.37284049 -0.43199275 0.02312875
v 0.37376050 -0.42855825 0.01306225
v 0.37382325 -0.42774975 0.00782150
v 0.34789949 -0.47425035 -0.03680749
v 0.37213200 -0.42837000 -0.00642800
v 0.34114677 -0.48288070 -0.03182706
v 0.36500646 -0.45197477 0.03494811
v 0.34260022 -0.48029547 -0.03246522
v 0.34479471 -0.47675302 -0.03224233
v 0.36828411 -0.44046724 0.02794798
v 0.35682289 -0.45587710 -0.03318438
v 0.35472289 -0.45312156 -0.02728597
v 0.32355287 -0.43693167 0.12761852
f 37 12 29
f 28 37 29
f 27 28 29
f 21 27 29
f 21 29 25
f 29 26 25
f 32 21 25
f 32 25 30
f 23 32 30
f 32 23 18
f 18 23 19
f 19 23 8
f 8 23 9
f 23 11 9
f 23 10 11
f 23 22 10
f 22 34 10
f 34 25 10
f 19 8 36
f 99 36 8
f 99 38 36
f 71 99 8
f 71 8 73
f 71 73 70
f 70 73 290
f 74 70 290
f 74 290 292
f 290 154 292
f 154 143 292
f 288 292 143
f 288 143 289
f 282 288 289
f 289 287 282
f 287 289 269
f 282 287 269
f 282 269 264
f 282 264 75
f 113 75 264
f 110 75 113
f 113 262 110
f 113 261 262
f 261 277 262
f 132 262 277
f 261 265 277
f 277 265 266
f 277 266 236
f 277 236 227
f 263 277 227
f 196 277 263
f 196 197 277
f 197 132 277
f 197 196 132
f 193 132 196
f 194 193 196
f 194 196 211
f 211 196 220
f 220 222 211
f 211 222 218
f 218 222 219
f 222 225 219
f 222 227 225
f 227 234 225
f 235 234 227
f 235 236 234
f 234 236 228
f 228 236 259
f 259 236 274
f 259 274 272
f 259 272 257
f 257 272 258
f 258 272 267
f 258 267 255
f 260 255 267
f 246 255 260
f 241 255 246
f 241 254 255
f 239 254 241
f 239 245 254
f 245 257 254
f 230 257 245
f 238 257 230
f 231 257 238
f 231 237 257
f 225 237 231
f 225 233 237
f 233 259 237
f 228 233 225
f 225 231 221
f 221 231 229
f 223 221 229
f 223 229 224
f 229 238 224
f 215 223 224
f 215 224 248
f 224 230 248
f 248 230 157
f 248 157 249
f 298 249 157
f 232 249 298
f 210 232 298
f 210 298 297
f 297 298 295
f 295 298 296
f 158 295 296
f 158 296 168
f 168 296 156
f 156 296 155
f 296 157 155
f 158 168 176
f 294 295 158
f 158 293 294
f 293 201 294
f 201 207 294
f 207 208 294
f 208 210 294
f 212 208 207
f 213 208 212
f 206 213 212
f 202 213 206
f 199 202 206
f 199 206 200
f 206 201 200
f 200 201 203
f 175 200 203
f 203 173 175
f 203 174 173
f 203 172 174
f 203 158 172
f 203 204 158
f 158 171 172
f 198 200 175
f 199 200 198
f 199 198 182
f 182 198 165
f 164 165 198
f 182 165 164
f 181 182 164
f 180 182 181
f 180 184 182
f 182 184 202
f 202 184 188
f 202 188 205
f 188 209 205
f 209 213 205
f 213 209 217
f 217 215 213
f 214 215 217
f 217 211 214
f 218 215 214
f 213 215 216
f 216 215 232
f 208 216 232
f 211 217 209
f 187 211 209
f 185 187 209
f 187 185 192
f 192 194 187
f 185 183 192
f 185 134 183
f 178 134 185
f 184 178 185
f 177 178 184
f 178 177 179
f 178 179 134
f 185 209 188
f 185 188 184
f 184 180 177
f 180 181 177
f 202 199 182
f 208 213 216
f 212 207 206
f 201 206 207
f 203 201 293
f 203 293 204
f 204 293 158
f 294 297 295
f 294 210 297
f 208 232 210
f 232 215 249
f 298 157 296
f 157 230 247
f 247 230 250
f 157 247 160
f 161 160 247
f 157 160 161
f 108 157 161
f 108 161 109
f 109 161 253
f 253 161 256
f 161 239 256
f 239 240 256
f 54 256 240
f 54 240 59
f 53 59 240
f 59 53 50
f 60 54 59
f 250 239 161
f 250 230 239
f 247 250 161
f 106 108 109
f 112 106 109
f 129 106 112
f 129 112 119
f 120 129 119
f 122 129 120
f 124 129 122
f 128 129 124
f 130 128 124
f 93 128 130
f 93 123 128
f 123 107 128
f 128 107 106
f 105 107 123
f 88 105 123
f 88 123 92
f 96 88 92
f 96 92 97
f 97 91 96
f 86 88 96
f 86 96 91
f 91 90 86
f 104 86 90
f 84 104 90
f 89 104 84
f 89 81 104
f 81 82 104
f 104 82 103
f 82 100 103
f 103 100 118
f 103 118 117
f 118 164 117
f 164 118 181
f 118 177 181
f 126 177 118
f 163 117 164
f 164 198 163
f 163 198 115
f 115 198 166
f 115 166 175
f 175 173 115
f 115 173 174
f 162 115 174
f 162 174 111
f 111 174 172
f 111 172 170
f 172 171 170
f 170 171 158
f 111 170 158
f 115 162 111
f 103 163 115
f 86 103 115
f 115 105 86
f 105 115 111
f 103 117 163
f 100 126 118
f 82 126 100
f 82 127 126
f 127 179 126
f 127 135 179
f 116 135 127
f 135 116 134
f 116 183 134
f 116 191 183
f 116 131 191
f 191 131 190
f 80 127 82
f 80 116 127
f 80 78 116
f 116 78 101
f 78 77 101
f 79 101 77
f 101 79 69
f 101 69 102
f 101 102 125
f 75 125 102
f 101 125 131
f 131 125 133
f 189 131 133
f 131 189 190
f 125 132 133
f 125 110 132
f 114 101 131
f 114 131 116
f 69 75 102
f 75 69 68
f 66 75 68
f 66 72 75
f 72 74 75
f 74 76 75
f 76 288 75
f 76 74 288
f 66 67 72
f 67 70 72
f 7 70 67
f 15 70 7
f 7 67 3
f 3 67 98
f 67 66 98
f 66 94 98
f 98 94 338
f 94 300 338
f 94 87 300
f 69 87 94
f 65 69 94
f 66 65 94
f 98 338 3
f 338 2 3
f 65 66 68
f 68 69 65
f 78 79 77
f 80 79 78
f 80 83 79
f 83 80 82
f 89 83 82
f 85 79 83
f 89 82 81
f 104 103 86
f 86 105 88
f 105 111 107
f 111 158 107
f 158 167 107
f 158 176 167
f 167 176 168
f 167 168 169
f 169 168 156
f 169 156 108
f 156 155 108
f 155 159 108
f 167 169 108
f 107 167 108
f 92 123 93
f 92 93 95
f 121 122 120
f 120 119 121
f 121 119 324
f 121 324 326
f 326 324 318
f 326 318 315
f 327 326 315
f 327 315 328
f 328 315 321
f 328 321 330
f 321 319 330
f 330 319 40
f 319 317 40
f 321 315 319
f 315 312 319
f 319 312 316
f 316 317 319
f 317 316 303
f 317 303 46
f 320 317 46
f 40 320 46
f 303 304 46
f 304 302 46
f 302 45 46
f 302 336 45
f 302 309 336
f 309 337 336
f 337 308 336
f 308 307 336
f 307 329 336
f 336 329 41
f 336 41 42
f 336 42 43
f 44 336 43
f 45 336 44
f 46 45 44
f 41 329 47
f 329 299 47
f 307 305 329
f 305 306 329
f 329 306 334
f 333 329 334
f 333 331 329
f 306 333 334
f 307 306 305
f 315 311 312
f 315 313 311
f 314 313 315
f 318 314 315
f 314 318 48
f 318 335 48
f 335 58 48
f 311 310 312
f 312 310 301
f 324 335 318
f 119 335 324
f 112 322 119
f 119 322 335
f 322 112 323
f 322 323 325
f 325 323 55
f 325 55 332
f 332 55 59
f 332 59 50
f 335 332 50
f 322 332 335
f 335 50 58
f 323 54 55
f 323 251 54
f 251 252 54
f 322 325 332
f 112 251 323
f 128 106 129
f 107 108 106
f 108 159 157
f 215 248 249
f 215 221 223
f 219 221 215
f 229 231 238
f 224 238 230
f 239 230 245
f 239 241 240
f 240 241 246
f 242 240 246
f 53 240 242
f 53 242 243
f 53 243 244
f 62 53 244
f 61 62 244
f 49 61 244
f 49 244 64
f 49 64 63
f 57 49 63
f 49 57 48
f 48 51 49
f 51 52 49
f 51 50 52
f 52 50 56
f 50 53 56
f 49 52 56
f 49 56 61
f 51 48 50
f 61 56 62
f 56 53 62
f 254 258 255
f 254 257 258
f 259 257 237
f 228 259 233
f 225 234 228
f 222 226 227
f 226 196 227
f 196 226 222
f 219 225 221
f 218 219 215
f 211 218 214
f 196 222 220
f 187 194 211
f 194 189 193
f 192 189 194
f 186 189 192
f 186 191 189
f 190 189 191
f 183 191 186
f 189 133 193
f 133 195 193
f 133 132 195
f 195 132 193
f 196 263 227
f 236 235 227
f 266 274 236
f 266 284 274
f 278 284 266
f 286 284 278
f 285 286 278
f 286 285 280
f 279 280 285
f 276 279 285
f 276 285 275
f 275 285 273
f 273 285 271
f 273 271 268
f 271 266 268
f 275 273 268
f 270 275 268
f 270 268 269
f 144 270 269
f 276 270 144
f 146 276 144
f 146 147 276
f 147 283 276
f 283 281 276
f 145 147 146
f 149 147 145
f 151 149 145
f 151 145 148
f 148 39 151
f 39 148 8
f 8 148 150
f 8 150 152
f 150 140 152
f 140 153 152
f 140 136 153
f 153 136 138
f 153 138 139
f 138 136 139
f 136 137 139
f 136 146 137
f 137 146 154
f 141 146 136
f 142 141 136
f 145 141 142
f 140 142 136
f 148 142 140
f 150 148 140
f 145 142 148
f 145 146 141
f 146 144 154
f 144 143 154
f 144 269 143
f 113 269 268
f 276 275 270
f 281 279 276
f 285 278 271
f 271 278 266
f 268 266 265
f 268 265 261
f 113 268 261
f 110 262 132
f 75 110 125
f 75 288 282
f 143 269 289
f 290 137 154
f 290 139 137
f 290 291 139
f 73 291 290
f 73 153 291
f 73 152 153
f 74 292 288
f 72 70 74
f 73 8 152
f 17 18 19
f 24 17 19
f 24 16 17
f 16 24 35
f 16 33 17
f 16 5 33
f 5 18 33
f 5 6 18
f 6 20 18
f 18 20 32
f 31 32 20
f 31 4 32
f 32 4 14
f 33 18 17
f 23 30 22
f 30 25 22
f 1 27 21
f 1 13 27
f 32 1 21
f 32 14 1
f 13 28 27
f 13 37 28

