v -0.222137 0.0369287 0.0161994
v -0.214171 0.0443448 0.019889
v -0.212408 0.052162 0.018102
v -0.205928 0.0516268 0.0231824
v -0.197499 0.058887 0.0259835
v -0.204146 0.0594275 0.021173
v -0.193575 0.042223 0.0339393
v -0.199054 0.0509443 0.0277576
v -0.192051 0.0501834 0.0321947
v -0.19052 0.0581359 0.030432
v -0.183375 0.057159 0.0330027
v -0.184769 0.0490559 0.0333475
v -0.186216 0.0410257 0.0335784
v -0.187684 0.0329773 0.0339506
v -0.188622 0.0248892 0.0348696
v -0.174091 0.0634898 0.0306753
v -0.172243 0.071438 0.0313835
v -0.170282 0.0793475 0.0299632
v -0.168049 0.0868387 0.0270789
v -0.177471 0.0802758 0.0268331
v -0.175178 0.0876342 0.0237009
v -0.172885 0.0949925 0.0205687
v -0.179762 0.0729126 0.0299212
v -0.184585 0.0810328 0.0231568
v -0.182295 0.0883984 0.0200897
v -0.180004 0.095764 0.0170226
v -0.186775 0.0735608 0.0258828
v -0.193682 0.0742323 0.0215943
v -0.191527 0.0817002 0.0189655
v -0.198323 0.0823248 0.0144664
v -0.189259 0.0890354 0.0161328
v -0.19599 0.0895843 0.0115174
v -0.193659 0.0968478 0.00857596
v -0.191334 0.104121 0.00565411
v -0.197721 0.104523 0.000731233
v -0.202471 0.0901329 0.00672959
v -0.200135 0.0973731 0.00378007
v -0.213079 0.075673 0.0065413
v -0.204702 0.0827707 0.0094061
v -0.210907 0.0831202 0.00404104
v -0.208696 0.0905513 0.00149866
v -0.20627 0.0977342 -0.00139546
v -0.203739 0.104739 -0.00451047
v -0.216902 0.0603536 0.0108363
v -0.208717 0.0675919 0.0139487
v -0.21504 0.0680398 0.00874552
v -0.206787 0.0752555 0.011791
v -0.194938 0.111247 -0.00276489
v -0.188738 0.111058 0.00226035
v -0.186039 0.117731 -0.0016726
v -0.176868 0.12401 -0.00133603
v -0.179503 0.117376 0.002591
v -0.182096 0.110673 0.00646723
v -0.175202 0.110073 0.0103534
v -0.172702 0.116967 0.00668014
v -0.163018 0.123022 0.00634505
v -0.153236 0.12881 0.00557914
v -0.160287 0.129319 0.00184213
v -0.143084 0.134003 0.00402269
v -0.150329 0.13481 0.000696349
v -0.140235 0.140026 -0.000845112
v -0.130002 0.144891 -0.0027595
v -0.122464 0.143361 -0.000345034
v -0.125311 0.137525 0.00457374
v -0.127998 0.131176 0.00890656
v -0.135633 0.132775 0.0067503
v -0.125551 0.11636 0.0190486
v -0.123009 0.1231 0.0152312
v -0.117822 0.114428 0.0205139
v -0.115277 0.121112 0.0166198
v -0.107586 0.119191 0.0181598
v -0.110033 0.112479 0.0218277
v -0.112395 0.105661 0.025304
v -0.120242 0.107576 0.024041
v -0.137696 0.0810774 0.034894
v -0.135291 0.0881444 0.0318982
v -0.143134 0.0899981 0.0307135
v -0.125044 0.0933576 0.0300871
v -0.132887 0.0952114 0.0289024
v -0.122639 0.100425 0.0270913
v -0.129807 0.0791431 0.0357101
v -0.127435 0.0862657 0.032969
v -0.11478 0.0985414 0.0281414
v -0.142342 0.0666067 0.0403845
v -0.140068 0.0739444 0.0377698
v -0.147058 0.0518573 0.0434585
v -0.148913 0.0441708 0.04359
v -0.2158 0.0364665 0.0214748
v -0.16296 -0.0026919 0.0434852
v -0.152376 0.0285932 0.0419155
v -0.150832 0.0364618 0.0428947
v -0.218727 0.0526192 0.0127895
v -0.144616 0.0592634 0.0429767
v -0.150195 0.0681582 0.0387989
v -0.152489 0.0607152 0.041064
v -0.160362 0.0619743 0.0386832
v -0.154714 0.053018 0.0426645
v -0.162532 0.0542208 0.0401279
v -0.17035 0.0554236 0.0375913
v -0.164228 0.0462 0.0407888
v -0.172116 0.0474282 0.0383891
v -0.178068 0.047911 0.0326466
v -0.176124 0.0557064 0.0315871
v -0.165506 0.0706177 0.0337762
v -0.162815 0.077877 0.0311047
v -0.153207 0.0842088 0.0315756
v -0.155702 0.0770111 0.0345228
v -0.150741 0.0914206 0.0285849
v -0.148354 0.0987317 0.0256726
v -0.160642 0.0854617 0.0291846
v -0.15825 0.0927888 0.0263106
v -0.155853 0.100079 0.0233349
v -0.153434 0.107248 0.02003
v -0.145874 0.105778 0.0223311
v -0.135719 0.111098 0.0207128
v -0.143395 0.112789 0.0188231
v -0.150917 0.114175 0.0163662
v -0.148401 0.121023 0.0125514
v -0.145835 0.12771 0.00855189
v -0.140694 0.0970617 0.0275222
v -0.138204 0.104082 0.0241471
v -0.128045 0.109407 0.0225797
v -0.168093 0.0631558 0.03596
v -0.179905 0.0400296 0.0334882
v -0.181132 0.0319172 0.0338114
v -0.183246 0.0157021 0.0341376
v -0.182316 0.0238412 0.0341889
v -0.183978 0.00754723 0.0337719
v -0.178037 -0.00131542 0.0380723
v -0.177463 0.00686361 0.0386799
v -0.169118 0.014172 0.0422731
v -0.176809 0.0150308 0.0391633
v -0.169824 0.00602782 0.0418197
v -0.170904 -0.0101086 0.0407448
v -0.170546 -0.00202949 0.0413347
v -0.171124 -0.0181811 0.0399378
v -0.17783 -0.00938203 0.0365387
v -0.171036 -0.0263586 0.038638
v -0.177808 -0.0175939 0.0353386
v -0.171012 -0.0345121 0.0372276
v -0.220441 0.0447776 0.0145035
v -0.210649 0.0599455 0.0161425
v -0.164109 -0.0349702 0.0414095
v -0.163861 -0.0269243 0.0421356
v -0.163527 -0.0188539 0.0427054
v -0.163171 -0.0107774 0.0432767
v -0.168354 0.022337 0.0424954
v -0.176033 0.0231959 0.0393562
v -0.167142 0.0303417 0.0423561
v -0.174938 0.0312846 0.0392086
v -0.165858 0.0383527 0.0419777
v -0.173735 0.0394167 0.0390147
v -0.157956 0.0372943 0.0448232
v -0.159335 0.0293779 0.045669
v -0.160568 0.0214096 0.0456912
v -0.156456 0.0451735 0.0438759
v -0.158076 0.069615 0.0369487
v -0.14791 0.0754973 0.0362018
v -0.145525 0.0827815 0.0335039
v -0.130503 0.10245 0.026073
v -0.133242 0.118119 0.0172444
v -0.140892 0.119723 0.0151937
v -0.13068 0.124845 0.0133297
v -0.138283 0.12632 0.011037
v -0.112673 0.127447 0.0123909
v -0.120344 0.129399 0.0108565
v -0.117634 0.135545 0.00628977
v -0.132892 0.13905 0.00222364
v -0.158322 0.115313 0.0134746
v -0.155824 0.122185 0.00970066
v -0.16805 0.109278 0.0138281
v -0.165565 0.116216 0.0101948
v -0.170077 0.123625 0.00268722
v -0.186899 0.0963041 0.0130554
v -0.177657 0.103074 0.013886
v -0.184516 0.10358 0.00987565
v -0.16568 0.0940872 0.0238386
v -0.163244 0.101235 0.0204885
v -0.170509 0.102228 0.0173099
v -0.160808 0.108382 0.0171384
v -0.18173 0.065204 0.0322806
v -0.188937 0.0660718 0.0285346
v -0.203576 0.0271057 0.0322616
v -0.195035 0.0342455 0.0354477
v -0.19599 0.0261013 0.0359617
v -0.197288 0.0181041 0.036893
v -0.204716 0.0190398 0.0329979
v -0.2121 0.019957 0.0290465
v -0.218777 0.0205784 0.0241465
v -0.217311 0.0285333 0.0228564
v -0.210558 0.0278749 0.0276637
v -0.20205 0.03503 0.0309054
v -0.209002 0.0357854 0.0262572
v -0.20057 0.0429816 0.0294767
v -0.207512 0.0437315 0.0248316
v -0.195682 0.0666489 0.0239308
v -0.202296 0.0671508 0.0190819
v -0.200388 0.0748035 0.0169207
f 88 2 141 1
f 3 92 141 2
f 88 193 195 2
f 195 4 3 2
f 142 44 92 3
f 4 6 142 3
f 195 194 8 4
f 8 5 6 4
f 196 197 6 5
f 8 9 10 5
f 10 182 196 5
f 197 45 142 6
f 9 8 194 7
f 194 192 184 7
f 184 14 13 7
f 13 12 9 7
f 12 11 10 9
f 11 181 182 10
f 12 102 103 11
f 103 16 181 11
f 13 124 102 12
f 14 125 124 13
f 184 185 15 14
f 15 127 125 14
f 17 23 181 16
f 103 99 123 16
f 123 104 17 16
f 18 20 23 17
f 104 105 18 17
f 19 21 20 18
f 105 110 19 18
f 177 22 21 19
f 110 111 177 19
f 21 25 24 20
f 24 27 23 20
f 22 26 25 21
f 179 175 26 22
f 177 178 179 22
f 27 182 181 23
f 25 31 29 24
f 29 28 27 24
f 26 174 31 25
f 175 176 174 26
f 28 196 182 27
f 29 30 198 28
f 198 197 196 28
f 31 32 30 29
f 32 36 39 30
f 39 47 198 30
f 174 33 32 31
f 33 37 36 32
f 34 35 37 33
f 174 176 34 33
f 49 48 35 34
f 176 53 49 34
f 43 42 37 35
f 37 42 41 36
f 41 40 39 36
f 46 45 47 38
f 47 39 40 38
f 142 45 46 44
f 197 198 47 45
f 53 52 50 49
f 52 55 173 51
f 53 54 55 52
f 176 175 54 53
f 175 179 171 54
f 171 172 55 54
f 172 56 173 55
f 172 169 170 56
f 170 57 58 56
f 170 118 119 57
f 119 59 60 57
f 119 164 66 59
f 66 168 61 59
f 168 64 63 62
f 168 66 65 64
f 65 166 167 64
f 66 164 163 65
f 163 68 166 65
f 68 163 161 67
f 161 115 122 67
f 122 74 69 67
f 69 70 68 67
f 70 165 166 68
f 74 73 72 69
f 72 71 70 69
f 74 80 83 73
f 122 160 80 74
f 76 77 159 75
f 159 158 85 75
f 81 82 76 75
f 79 120 77 76
f 82 78 79 76
f 120 109 108 77
f 108 106 159 77
f 80 160 79 78
f 160 121 120 79
f 85 158 94 84
f 94 95 93 84
f 93 95 97 86
f 97 156 87 86
f 156 153 91 87
f 135 134 146 89
f 91 153 154 90
f 158 107 157 94
f 157 96 95 94
f 96 98 97 95
f 157 104 123 96
f 123 99 98 96
f 98 100 156 97
f 99 101 100 98
f 103 102 101 99
f 101 152 151 100
f 151 153 156 100
f 102 124 152 101
f 157 107 105 104
f 107 106 110 105
f 108 111 110 106
f 107 158 159 106
f 109 112 111 108
f 114 113 112 109
f 120 121 114 109
f 112 178 177 111
f 113 180 178 112
f 117 169 180 113
f 114 116 117 113
f 121 115 116 114
f 161 162 116 115
f 121 160 122 115
f 162 118 117 116
f 118 170 169 117
f 162 164 119 118
f 125 150 152 124
f 127 148 150 125
f 128 130 132 126
f 132 148 127 126
f 137 134 135 129
f 135 133 130 129
f 133 131 132 130
f 147 148 132 131
f 137 139 136 134
f 136 145 146 134
f 138 144 145 136
f 140 143 144 138
f 149 150 148 147
f 155 154 149 147
f 151 152 150 149
f 154 153 151 149
f 163 164 162 161
f 172 171 180 169
f 179 178 180 171
f 192 193 191 183
f 191 188 187 183
f 187 186 185 183
f 185 184 192 183
f 191 190 189 188
f 191 193 88 190
f 194 195 193 192
