# https://github.com/mikedh/trimesh
v -0.13539550 -0.48826249 -0.15507000
v -0.12766400 -0.48650301 -0.15651201
v -0.10994100 -0.48648900 -0.15813600
v -0.08529250 -0.48190351 -0.16125300
v -0.07008250 -0.48084300 -0.16183750
v -0.06008900 -0.47992501 -0.16219300
v -0.04873850 -0.47559649 -0.16353150
v -0.16124650 -0.49042051 -0.14949599
v 0.18407101 -0.47090151 -0.13652400
v 0.22261325 -0.47573275 -0.11926525
v 0.22405801 -0.48727551 -0.11534400
v 0.07118024 -0.49509797 -0.15483572
v 0.08380464 -0.49336776 -0.15262854
v 0.09375157 -0.49476495 -0.15224456
v 0.11250044 -0.49516486 -0.15029819
v 0.05119257 -0.49312163 -0.15507461
v 0.04030852 -0.49513183 -0.15710226
v 0.13877003 -0.49536540 -0.14606472
v 0.13030341 -0.49532892 -0.14755290
v 0.08054762 -0.49583112 -0.15471651
v 0.14656388 -0.49586700 -0.14502350
v 0.05948050 -0.49587899 -0.15671550
v 0.12203000 -0.49585500 -0.14941700
v 0.00973972 -0.49235344 -0.15710170
v 0.22829969 -0.49256614 -0.11328532
v 0.21961667 -0.49541003 -0.12024923
v 0.23121063 -0.49174644 -0.11135675
v 0.22579800 -0.49589401 -0.11762900
v 0.20118874 -0.49446970 -0.12768708
v 0.21071271 -0.49092427 -0.12196727
v 0.19629425 -0.49203098 -0.12833962
v 0.18475830 -0.49177916 -0.13240313
v 0.18212000 -0.49386501 -0.13429201
v 0.15946164 -0.49532800 -0.14172091
v 0.18482317 -0.49506154 -0.13428375
v 0.14898096 -0.49540198 -0.14403165
v 0.17286595 -0.49532255 -0.13818430
v 0.17824500 -0.49588251 -0.13740800
v 0.21065199 -0.49577999 -0.12536301
v 0.17617732 -0.49297118 -0.13568447
v 0.16269987 -0.49586112 -0.14154212
v 0.19644438 -0.49585550 -0.13124987
v -0.13603038 -0.49213937 -0.15480000
v -0.11415700 -0.49581200 -0.15933500
v -0.10366246 -0.49409175 -0.15841995
v -0.08991839 -0.49267126 -0.15843507
v -0.06686047 -0.49372348 -0.15948065
v -0.09335087 -0.49525144 -0.15988707
v -0.03706853 -0.49542219 -0.16038666
v -0.00539636 -0.49471546 -0.15875734
v -0.06062741 -0.49497917 -0.16029544
v -0.06539400 -0.49588200 -0.16118200
v 0.01215625 -0.49589350 -0.15958549
v 0.02162860 -0.49543022 -0.15845841
v -0.09784000 -0.49586099 -0.16025700
v -0.08318270 -0.49559691 -0.16064404
v -0.10635600 -0.49590799 -0.16009100
v -0.08958800 -0.49592650 -0.16093450
v -0.15442000 -0.49042800 -0.15120700
v -0.14932001 -0.49141499 -0.15231700
v -0.10384083 -0.48956055 -0.15777898
v -0.08488605 -0.48953816 -0.15860657
v -0.07047219 -0.48574447 -0.15997251
v -0.00478377 -0.47961556 -0.16108372
v -0.00875550 -0.48789162 -0.15816194
v -0.01817489 -0.47807735 -0.16214546
v 0.01859196 -0.47808644 -0.16064581
v 0.03672373 -0.48708039 -0.15632877
v -0.05353056 -0.48784054 -0.15904980
v 0.05310072 -0.47728049 -0.15859026
v 0.06719725 -0.47487174 -0.15804799
v 0.02147950 -0.47367450 -0.16175950
v 0.08387671 -0.48168104 -0.15442216
v 0.13261010 -0.47822297 -0.14857126
v 0.10554900 -0.47565401 -0.15342900
v -0.03076072 -0.49212848 -0.15829436
v 0.02618278 -0.49244126 -0.15643232
v -0.06906161 -0.49196005 -0.15881150
v -0.04133600 -0.48944101 -0.15857700
v 0.01442349 -0.48879620 -0.15707443
v 0.05415247 -0.48824566 -0.15478106
v 0.06616191 -0.49136211 -0.15352788
v 0.10228161 -0.48750845 -0.15005242
v 0.11412710 -0.48852430 -0.14819257
v 0.09499050 -0.49153674 -0.15076608
v 0.20047053 -0.48809926 -0.12650890
v 0.21157525 -0.48763286 -0.12173668
v 0.17376590 -0.49001121 -0.13591402
v 0.19014024 -0.48075334 -0.13255443
v 0.20433975 -0.48171497 -0.12656778
v 0.21345335 -0.47774215 -0.12353806
v 0.18580860 -0.48636967 -0.13238348
v 0.16808070 -0.47478049 -0.14134565
v 0.20381910 -0.47675208 -0.12826679
v 0.15419640 -0.48997234 -0.14113873
v 0.17432657 -0.48590374 -0.13636584
v 0.15292525 -0.47391113 -0.14517463
v 0.14770689 -0.48142431 -0.14466254
v 0.14781308 -0.48742562 -0.14286794
v 0.15711187 -0.49233645 -0.14071207
v 0.12673206 -0.49341795 -0.14683009
f 1 59 60
f 59 8 60
f 43 1 60
f 61 1 43
f 61 43 45
f 61 45 46
f 61 46 78
f 62 61 78
f 69 62 78
f 79 69 78
f 76 79 78
f 65 79 76
f 65 76 24
f 80 65 24
f 65 80 68
f 68 80 81
f 81 80 77
f 81 77 82
f 83 81 82
f 83 82 84
f 83 84 98
f 98 84 99
f 98 99 93
f 93 99 96
f 96 99 95
f 99 101 95
f 95 101 100
f 88 95 100
f 88 100 32
f 86 88 32
f 96 88 86
f 92 96 86
f 89 96 92
f 89 92 86
f 87 89 86
f 90 89 87
f 90 94 89
f 94 93 89
f 9 93 94
f 10 9 94
f 10 94 91
f 94 87 91
f 91 87 11
f 11 87 27
f 87 30 27
f 87 31 30
f 87 32 31
f 31 32 35
f 32 33 35
f 33 40 35
f 40 37 35
f 40 100 37
f 32 100 40
f 37 100 34
f 100 36 34
f 100 18 36
f 100 101 18
f 101 19 18
f 101 23 19
f 101 15 23
f 101 85 15
f 85 14 15
f 85 13 14
f 85 82 13
f 84 82 85
f 84 85 101
f 13 82 12
f 82 16 12
f 16 17 12
f 16 77 17
f 77 24 17
f 17 24 54
f 54 24 50
f 54 50 53
f 50 49 53
f 50 76 49
f 76 47 49
f 47 51 49
f 51 52 49
f 51 56 52
f 51 47 56
f 47 48 56
f 46 48 47
f 24 76 50
f 17 54 53
f 12 17 22
f 12 22 20
f 14 12 20
f 13 12 14
f 14 20 15
f 36 18 21
f 18 19 21
f 34 36 21
f 34 21 41
f 37 34 41
f 35 37 38
f 32 40 33
f 29 31 35
f 35 42 29
f 30 31 29
f 27 30 25
f 25 30 26
f 26 30 39
f 30 42 39
f 26 39 28
f 27 26 28
f 10 91 11
f 9 97 93
f 94 90 87
f 87 86 32
f 96 95 88
f 89 93 96
f 97 98 93
f 97 74 98
f 97 75 74
f 74 75 73
f 75 71 73
f 71 70 73
f 70 68 73
f 70 67 68
f 70 72 67
f 72 66 67
f 72 7 66
f 66 7 63
f 66 63 69
f 66 69 65
f 66 65 64
f 67 64 65
f 7 6 63
f 6 5 63
f 5 4 63
f 4 61 63
f 4 3 61
f 3 2 61
f 67 66 64
f 71 72 70
f 73 83 74
f 99 84 101
f 74 83 98
f 83 73 81
f 82 77 16
f 73 68 81
f 67 65 68
f 80 24 77
f 76 78 47
f 65 69 79
f 69 63 62
f 63 61 62
f 78 46 47
f 46 45 48
f 48 45 57
f 48 57 55
f 48 55 56
f 56 55 58
f 45 44 57
f 45 43 44
f 61 2 1
f 8 59 1

