# https://github.com/mikedh/trimesh
v 0.15508001 0.06764100 0.04815400
v 0.15844700 0.06053150 0.04894100
v 0.18749807 0.04066660 0.03959509
v 0.12637450 0.14047200 0.00706350
v 0.12083550 0.14726100 0.00882850
v 0.11998900 0.15129051 0.00444650
v 0.13397400 0.09884650 0.03782950
v 0.12700799 0.11648200 0.03278350
v 0.14383399 0.09613400 0.03674800
v 0.14653600 0.09313900 0.03438250
v 0.17755350 0.07192900 0.03763650
v 0.18318801 0.05088600 0.04106200
v 0.18092000 0.06973500 0.03505300
v 0.09215838 0.17567657 -0.06068045
v 0.08857014 0.17581409 -0.06573472
v 0.09809482 0.17724301 -0.04347566
v 0.23910362 -0.08303900 0.05327775
v 0.24337170 -0.08780977 0.05159655
v 0.20043200 -0.02353400 0.05121900
v 0.12889504 0.14888132 -0.00347485
v 0.12785875 0.15605750 -0.01276800
v 0.12811201 0.14498275 0.00089425
v 0.13014265 0.12951922 0.02362288
v 0.12917791 0.12325774 0.02902028
v 0.13506717 0.14091469 0.01387662
v 0.13094949 0.16074300 -0.01778650
v 0.12726501 0.16159800 -0.02135300
v 0.20124594 0.02232596 0.03970076
v 0.20505651 0.00113650 0.04316300
v 0.19801549 0.03836550 0.03862400
v 0.21274977 -0.05562708 0.05630656
v 0.20439893 -0.03361795 0.05262018
v 0.22825092 -0.07260056 0.05613800
v 0.19807160 -0.00776074 0.05507919
v 0.24055042 -0.04148079 0.02344169
v 0.23636908 -0.05079558 0.03206603
v 0.22022174 0.01694665 0.02678230
v 0.22940234 -0.01947322 0.02759723
v 0.22644089 -0.03185423 0.03410037
v 0.21863404 -0.02133902 0.03782088
v 0.23220474 -0.01104391 0.02244468
v 0.22756200 0.02557300 0.01583500
v 0.20593761 0.01037955 0.04184836
v 0.22651542 -0.05207886 0.04187212
v 0.19564703 0.05140881 0.03715591
v 0.21095479 0.05012901 0.02407220
v 0.20693000 0.07074600 0.01742300
v 0.19731098 0.08504679 0.01817135
v 0.19287589 0.09618047 0.01430352
v 0.21005879 0.06951976 0.01510542
v 0.21693220 0.03713324 0.02323794
v 0.22377276 0.03674099 0.01606749
v 0.23129832 0.01998259 0.01350598
v 0.23049325 0.04194728 0.00538526
v 0.22296785 0.05346333 0.00938861
v 0.24388165 -0.02743834 0.01411515
v 0.24287141 -0.05672704 0.02835993
v 0.23225004 -0.03795620 0.03104629
v 0.20567840 -0.01515085 0.04622371
v 0.20763793 -0.04554914 0.05471994
v 0.20653729 -0.02001714 0.04694655
v 0.21784490 0.07752844 0.00229092
v 0.19618514 0.07115997 0.02719739
v 0.24586900 -0.06012900 0.02650500
v 0.18485509 0.07168215 0.03530630
v 0.23902350 -0.06150200 0.03568800
v 0.22004063 0.07772587 -0.00171062
v 0.22815500 0.05745300 0.00017200
v 0.25123301 -0.06056100 0.01904300
v 0.24789301 -0.06548200 0.02770000
v 0.24549299 -0.06507200 0.03062800
v 0.25068250 -0.05403100 0.01600150
v 0.23622000 0.03031100 0.00215100
v 0.23762400 0.02418000 0.00279400
v 0.25088099 -0.04570600 0.01124400
v 0.25248000 -0.05091000 0.01127200
v 0.23450001 0.03697300 0.00155550
v 0.24639327 -0.04170388 0.01623539
v 0.24774051 -0.02765450 0.00821200
v 0.24026051 0.00844800 0.00537850
v 0.17832475 0.09129289 0.02857312
v 0.18508524 0.10653267 0.01271134
v 0.19014623 0.06284186 0.03604548
v 0.20788051 0.10199900 -0.00553650
v 0.18712335 0.11120195 0.00729435
v 0.20747759 0.09884381 -0.00180109
v 0.16533478 0.10624672 0.02599096
v 0.19514256 0.11456180 -0.00280048
v 0.17214911 0.09136992 0.03182974
v 0.17391429 0.08350789 0.03449355
v 0.17340241 0.07934160 0.03711497
v 0.17735340 0.06741390 0.03986319
v 0.15451324 0.08004976 0.04479392
v 0.15734089 0.06480752 0.04847849
v 0.16744927 0.11848832 0.01517220
v 0.15371450 0.10292099 0.03405800
v 0.15042645 0.11285914 0.02868543
v 0.19889067 0.10814366 -0.00029455
v 0.20201050 0.11428100 -0.01077900
v 0.15446179 0.08614125 0.04246182
v 0.18739925 0.12379863 -0.00581062
v 0.17824484 0.12264442 0.00374280
v 0.17201151 0.12852650 0.00195800
v 0.19713600 0.12113000 -0.01307100
v 0.19947501 0.12051500 -0.01545500
v 0.19443600 0.12239700 -0.01138300
v 0.15220644 0.12821301 0.01517719
v 0.18086362 0.12656300 -0.00314588
v 0.14518642 0.12351303 0.02193441
v 0.15288237 0.12195607 0.02053825
v 0.14584878 0.11013600 0.02858869
v 0.14388884 0.11544501 0.02831048
v 0.14238904 0.10666684 0.03341866
v 0.13845550 0.13568969 0.01751952
v 0.14119092 0.12190742 0.02549658
v 0.14669099 0.10206400 0.03113300
v 0.15564001 0.13333000 0.00772800
v 0.14643300 0.13777700 0.00842500
v 0.15136049 0.09737888 0.03697863
v 0.14235306 0.14031467 -0.08562365
v 0.17153925 0.13204925 -0.07481525
v 0.17943899 0.12907401 -0.07159900
v 0.18882650 0.12466675 -0.06693025
v 0.11636025 0.16550825 -0.01923225
v 0.09691400 0.17083900 -0.07069000
v 0.12242678 0.15470906 -0.00107456
v 0.11153650 0.16973525 -0.03523112
v 0.11221500 0.17049199 -0.04997200
v 0.09746876 0.17366799 -0.05711892
v 0.13058186 0.16512145 -0.03908174
v 0.13115079 0.16354239 -0.02607299
v 0.11368053 0.16872537 -0.03296738
v 0.12489757 0.16653718 -0.03714909
v 0.12684391 0.16429979 -0.02776644
v 0.12413695 0.16433744 -0.02680621
v 0.11513974 0.16949074 -0.05426414
v 0.15848320 0.15282448 -0.03585886
v 0.13210747 0.16446082 -0.04485218
v 0.14182572 0.16037397 -0.04695740
v 0.16548664 0.14970237 -0.03742738
v 0.16863077 0.14823674 -0.04204847
v 0.17531000 0.14471500 -0.03803600
v 0.17964906 0.14215449 -0.03361528
v 0.13872202 0.16127493 -0.03469778
v 0.15465201 0.15438974 -0.05091511
v 0.17535892 0.14460291 -0.04364045
v 0.15654876 0.15235266 -0.02771930
v 0.19033305 0.13576574 -0.03792496
v 0.18960008 0.13562245 -0.04481869
v 0.15830917 0.14952202 -0.02109161
v 0.14156938 0.15689186 -0.02079548
v 0.18784986 0.13703798 -0.03252438
v 0.16214816 0.14912544 -0.02528813
v 0.18195344 0.13946106 -0.02709595
v 0.11971000 0.16020650 -0.00910800
v 0.14397139 0.15616322 -0.02221604
v 0.19654268 0.13043206 -0.03265476
v 0.19490697 0.13192057 -0.04302486
v 0.16785786 0.14678951 -0.02555005
v 0.11952028 0.16244743 -0.01340384
v 0.16890687 0.14181560 -0.01484955
v 0.13741173 0.15629128 -0.01074630
v 0.14489127 0.14930871 -0.00658624
v 0.16168258 0.14055518 -0.00603941
v 0.18679288 0.13512802 -0.02253731
v 0.19378975 0.12860764 -0.01993833
v 0.17403464 0.13469615 -0.00766095
v 0.14631868 0.14994081 -0.00960428
v 0.19889369 0.12453483 -0.02082343
v 0.12000350 0.15720601 -0.00372100
v 0.13627222 0.15289446 -0.00264837
v 0.20537201 0.12048400 -0.02718100
v 0.17296094 0.13387534 -0.00516474
v 0.18731416 0.12858154 -0.01152770
v 0.14740669 0.14302970 0.00095256
v 0.13819384 0.14809799 0.00403158
v 0.15780271 0.13538432 0.00394116
v 0.20622200 0.12052650 -0.03091150
v 0.20297900 0.12007300 -0.02054800
v 0.20767701 0.11934400 -0.03665700
v 0.08949046 0.17352141 -0.06775616
v 0.11332081 0.16883894 -0.06052598
v 0.12317984 0.16549430 -0.06050791
v 0.09342687 0.17186088 -0.07019412
v 0.10700973 0.16662793 -0.07195033
v 0.10916600 0.16741200 -0.06846400
v 0.13682035 0.16011626 -0.05966676
v 0.13042094 0.16396905 -0.05543355
v 0.15561800 0.15166301 -0.05818100
v 0.14201722 0.15914187 -0.05417273
v 0.16480144 0.14822172 -0.05454507
v 0.15890490 0.14863798 -0.06177932
v 0.17178215 0.14277732 -0.05874418
v 0.12735172 0.16049038 -0.06898864
v 0.11393211 0.16343467 -0.07306200
v 0.11987057 0.16842672 -0.05094969
v 0.17586054 0.14259895 -0.05284155
v 0.16660886 0.14223831 -0.06612983
v 0.13011897 0.15849204 -0.07047203
v 0.18403660 0.13882245 -0.04901516
v 0.17633574 0.14326122 -0.04867809
v 0.17619671 0.13827758 -0.06242334
v 0.14009825 0.15580672 -0.06740376
v 0.18196260 0.13416759 -0.06225675
v 0.18976462 0.13079546 -0.05775435
v 0.15135865 0.14664279 -0.07293526
v 0.18543280 0.13138254 -0.06240582
v 0.12010613 0.16012325 -0.07493216
v 0.17440486 0.13413180 -0.07084844
v 0.18984684 0.12699181 -0.06321651
v 0.19795299 0.12818059 -0.04667542
v 0.19670051 0.12496457 -0.05643395
v 0.20123789 0.12550456 -0.04440725
v 0.19713503 0.12798217 -0.05020571
v 0.19625450 0.12296500 -0.05979700
v 0.20250351 0.12097025 -0.05202200
v 0.20512916 0.12199508 -0.04149282
v 0.20217397 0.12552907 -0.03298864
v 0.20679849 0.11896400 -0.04457700
v 0.21009549 0.11618200 -0.03813050
f 186 185 125
f 183 185 186
f 194 185 183
f 194 195 185
f 194 208 195
f 199 208 194
f 120 208 199
f 203 120 199
f 203 206 120
f 198 206 203
f 198 209 206
f 209 198 202
f 204 209 202
f 207 209 204
f 207 210 209
f 210 123 209
f 215 123 210
f 212 215 210
f 212 216 215
f 214 216 212
f 219 216 214
f 217 219 214
f 220 219 217
f 220 217 180
f 180 217 218
f 218 217 158
f 218 158 157
f 218 157 165
f 166 218 165
f 169 218 166
f 172 218 169
f 218 172 178
f 179 172 169
f 105 179 169
f 105 169 174
f 108 105 174
f 174 173 108
f 174 165 173
f 173 165 167
f 164 173 167
f 175 173 164
f 173 175 177
f 177 175 117
f 117 175 118
f 118 175 25
f 25 175 176
f 175 163 176
f 163 162 176
f 176 162 171
f 171 162 26
f 162 151 26
f 156 151 162
f 151 156 26
f 156 144 26
f 156 147 144
f 168 147 156
f 168 156 163
f 168 150 147
f 161 150 168
f 164 161 168
f 161 153 150
f 161 159 153
f 165 159 161
f 165 154 159
f 165 152 154
f 154 152 143
f 152 148 143
f 152 157 148
f 148 200 143
f 148 149 200
f 149 158 200
f 158 214 200
f 214 205 200
f 200 205 202
f 197 200 202
f 197 202 193
f 197 193 191
f 145 197 191
f 146 197 145
f 146 201 197
f 200 201 146
f 146 145 141
f 142 146 141
f 143 146 142
f 143 142 140
f 159 143 140
f 159 140 137
f 159 137 147
f 140 145 137
f 137 145 139
f 145 190 139
f 145 187 190
f 190 187 188
f 188 187 183
f 136 188 183
f 196 188 136
f 188 196 138
f 138 196 130
f 130 196 16
f 196 128 16
f 128 196 129
f 16 128 129
f 16 129 14
f 129 181 14
f 129 182 181
f 182 125 181
f 182 183 125
f 125 184 181
f 136 182 129
f 14 181 15
f 133 130 16
f 131 130 133
f 134 131 133
f 134 133 135
f 27 134 135
f 27 135 160
f 160 135 124
f 155 160 124
f 126 160 155
f 170 155 124
f 6 170 124
f 126 27 160
f 126 21 27
f 126 20 21
f 20 126 22
f 22 126 5
f 5 4 22
f 26 134 27
f 135 133 124
f 124 133 132
f 133 127 132
f 131 134 26
f 133 16 127
f 130 139 138
f 130 144 139
f 138 139 188
f 196 136 129
f 136 183 182
f 187 203 183
f 145 203 187
f 189 203 145
f 191 203 189
f 191 192 203
f 190 188 139
f 137 139 144
f 142 141 140
f 141 145 140
f 191 189 145
f 193 192 191
f 193 198 192
f 200 197 201
f 211 214 158
f 213 214 211
f 213 211 158
f 158 149 148
f 200 146 143
f 159 154 143
f 153 159 147
f 147 150 153
f 137 144 147
f 26 144 130
f 163 156 162
f 168 163 175
f 114 118 25
f 107 118 114
f 103 118 107
f 103 107 102
f 95 102 107
f 107 110 95
f 107 109 110
f 110 109 97
f 96 110 97
f 87 110 96
f 89 87 96
f 89 96 91
f 91 96 100
f 96 119 100
f 93 100 119
f 91 100 92
f 100 94 92
f 94 100 93
f 93 1 94
f 94 1 2
f 94 2 12
f 3 12 2
f 92 94 12
f 92 12 11
f 11 91 92
f 91 11 13
f 90 91 13
f 89 91 90
f 81 89 90
f 65 81 90
f 48 81 65
f 49 81 48
f 82 81 49
f 81 82 95
f 82 85 95
f 81 95 87
f 49 85 82
f 85 49 88
f 102 85 88
f 88 101 102
f 101 88 106
f 104 106 88
f 104 88 99
f 88 98 99
f 99 98 84
f 84 98 86
f 86 98 62
f 62 98 48
f 48 50 62
f 50 46 62
f 55 62 46
f 55 54 62
f 62 54 68
f 67 62 68
f 68 54 77
f 73 77 54
f 73 54 74
f 54 80 74
f 54 56 80
f 56 79 80
f 78 79 56
f 79 78 75
f 75 78 76
f 78 72 76
f 78 57 72
f 35 57 78
f 35 36 57
f 44 57 36
f 57 44 66
f 57 66 71
f 57 71 70
f 64 57 70
f 57 64 69
f 18 66 44
f 44 17 18
f 33 17 44
f 33 44 60
f 32 60 44
f 32 44 58
f 39 32 58
f 39 58 38
f 58 41 38
f 58 56 41
f 35 56 58
f 53 41 56
f 37 41 53
f 42 37 53
f 42 53 52
f 54 52 53
f 52 37 42
f 52 51 37
f 46 51 52
f 46 28 51
f 28 46 30
f 30 46 45
f 46 63 45
f 63 83 45
f 65 83 63
f 51 28 37
f 37 28 43
f 37 43 29
f 38 37 29
f 38 29 40
f 40 29 59
f 59 61 40
f 61 59 19
f 61 19 32
f 34 19 59
f 40 61 32
f 37 38 41
f 39 38 40
f 39 40 32
f 60 31 33
f 58 44 36
f 35 58 36
f 72 57 69
f 35 78 56
f 53 56 54
f 55 52 54
f 46 52 55
f 63 46 50
f 47 63 50
f 48 63 47
f 50 48 47
f 67 86 62
f 86 67 84
f 88 49 98
f 48 98 49
f 48 65 63
f 81 87 89
f 97 119 96
f 97 111 119
f 97 109 111
f 110 87 95
f 85 102 95
f 101 103 102
f 107 114 109
f 109 114 23
f 109 23 24
f 24 115 109
f 109 115 112
f 111 109 112
f 116 111 112
f 112 113 116
f 116 113 9
f 9 10 116
f 112 24 113
f 113 24 7
f 9 113 7
f 8 7 24
f 115 24 112
f 25 23 114
f 117 173 177
f 164 168 175
f 167 161 164
f 165 161 167
f 108 173 117
f 174 169 166
f 165 174 166
f 165 157 152
f 157 158 148
f 158 217 213
f 178 180 218
f 217 214 213
f 212 205 214
f 212 210 205
f 209 123 122
f 122 121 209
f 209 121 120
f 205 210 207
f 205 207 204
f 202 205 204
f 202 198 193
f 192 198 203
f 209 120 206
f 203 199 194
f 183 203 194
f 183 186 125

