v -0.210564125 -0.4387425 0.11975875
v -0.00236217 -0.415916625 0.115731875
v -0.04159335 -0.41874325 0.1172665
v -0.02330042 -0.416360125 0.115651125
v 0.0395192 -0.4150905 0.115794
v 0.0604563125 -0.41479775 0.1156025
v 0.0813724 -0.414643875 0.11504875
v 0.0996181625 -0.4120935 0.113764125
v -0.127694484375 -0.397661671875 0.113511453125
v -0.20964325 -0.41951625 0.109004375
v -0.230018375 -0.41981375 0.106225
v -0.10664265 -0.417818375 0.114729625
v -0.127301375 -0.418151625 0.114006625
v -0.1685215 -0.41884675 0.111957625
v -0.08856075 -0.414989875 0.114616
v 0.0185762675 -0.4154735 0.11581075
v -0.147933875 -0.41848525 0.113184125
v 0.246745375 -0.430689875 0.107877375
v -0.25407975 -0.297239375 0.1219555
v -0.2336445 -0.29698975 0.12537275
v -0.21271575 -0.296935375 0.126558125
v -0.19426325 -0.299393125 0.127119625
v -0.25492921875 -0.318075640625 0.124866125
v -0.27510725 -0.318102 0.118619
v -0.275345875 -0.338903625 0.11760475
v -0.234191375 -0.317828890625 0.128623890625
v -0.170806375 -0.31707925 0.130631125
v -0.152269125 -0.319526875 0.1294485
v -0.17086409375 -0.337916328125 0.13043159375
v -0.147127875 -0.334868875 0.129429375
v 0.226737125 -0.430798625 0.11278175
v -0.086268325 -0.39723225 0.111399625
v -0.1069873375 -0.3974055 0.1125874375
v -0.12803425 -0.377555390625 0.118338375
v -0.148389 -0.398014890625 0.114303703125
v -0.16908596875 -0.398394984375 0.114651390625
v -0.18979278125 -0.39879915625 0.114354296875
v -0.190615734375 -0.379021140625 0.1210576875
v -0.211534203125 -0.37954296875 0.120051328125
v -0.2104628125 -0.399287765625 0.11310234375
v -0.230967 -0.399632359375 0.11069128125
v -0.2500615 -0.4198075 0.1016507375
v -0.270575125 -0.398996375 0.0996926375
v -0.274465125 -0.359462 0.113488625
v -0.2527524375 -0.37986125 0.113467057813
v -0.232303015625 -0.37987540625 0.117714609375
v -0.233493390625 -0.3597433125 0.123979609375
v -0.25424728125 -0.3597948125 0.11991815625
v -0.234203421875 -0.338969390625 0.127955703125
v -0.213138046875 -0.338665046875 0.12989903125
v -0.191406359375 -0.3589955 0.127137109375
v -0.1283528125 -0.357418515625 0.1237820625
v -0.170294671875 -0.358519875 0.127005171875
v -0.21250471875 -0.359429984375 0.1262506875
v -0.25110209375 -0.3995626875 0.106317001562
v -0.272643875 -0.37937525 0.1069190875
v -0.16967609375 -0.378547875 0.12096871875
v -0.148806375 -0.378075890625 0.1200403125
v -0.0865367625 -0.376719625 0.113558125
v -0.107286407812 -0.377063640625 0.116066234375
v -0.08925985 -0.358958375 0.117490375
v -0.1049192125 -0.3542095 0.1211555
v -0.14926028125 -0.357995421875 0.125818171875
v -0.19200490625 -0.33830034375 0.13065721875
v -0.128572 -0.336990125 0.127362
v -0.11001275 -0.33909075 0.123966625
v -0.21315821875 -0.317565671875 0.13026528125
v -0.255024859375 -0.339092875 0.123933453125
v -0.18932675 -0.31466275 0.130671125
v -0.271515125 -0.30008575 0.117287875
v -0.267117625 -0.416822625 0.0962942625
v -0.18909775 -0.419191 0.110581875
v 0.104582375 -0.3969905 0.109783375
v 0.1649595 -0.414532375 0.10981925
v 0.20393325 -0.4118245 0.105122125
v 0.12457075 -0.444902125 0.14199725
v 0.18579825 -0.41446175 0.10763
v 0.20378075 -0.39638 0.10530425
v 0.1881365 -0.391439 0.107345625
v 0.1437918125 -0.3942335 0.109341515625
v -0.23319525 -0.45246075 0.13300875
v -0.231190875 -0.439225625 0.116933875
v 0.164748875 -0.353762 0.119116625
v 0.141152 -0.371336625 0.1136775
v 0.146376625 -0.356133125 0.117741125
v 0.1647156875 -0.3739615 0.11349675
v 0.18312325 -0.35634325 0.118343125
v 0.125450625 -0.37634475 0.111856
v 0.164686546875 -0.39415678125 0.1088604375
v 0.18566775 -0.37399325 0.113189375
v 0.14409525 -0.414567 0.111850125
v 0.1202125 -0.391789125 0.109119625
v 0.123185125 -0.41452925 0.113366375
v 0.264473375 -0.432487375 0.1043445
v 0.268184875 -0.44269175 0.115821
v -0.127701125 -0.43555525 0.126883625
v -0.251207875 -0.451869375 0.127803125
v -0.0649581 -0.43329 0.12880425
v -0.249513375 -0.441390375 0.116252375
v -0.189842 -0.438036125 0.121901125
v -0.16911525 -0.437288 0.1238985
v -0.148445 -0.43648725 0.12563425
v -0.106826975 -0.434679625 0.127728
v 0.105404 -0.42842125 0.126078
v 0.123716 -0.430479875 0.126717
v 0.0608990515625 -0.43065928125 0.129191625
v 0.0399175921875 -0.430969046875 0.12936471875
v 0.018939581875 -0.431306515625 0.129452578125
v 0.019261935 -0.445979375 0.144393125
v 0.0402869875 -0.445714625 0.1441765
v 0.061315325 -0.44545375 0.14392375
v 0.0823656875 -0.44517925 0.143540375
v 0.1034541875 -0.445013375 0.14285875
v -0.022768665 -0.4467355 0.144361
v -0.001755765 -0.446322125 0.144443
v -0.0437845875 -0.447138875 0.144274125
v -0.0648145375 -0.4474895 0.14420175
v -0.0858561625 -0.447928125 0.14393825
v -0.127972875 -0.44893675 0.14294875
v -0.106912125 -0.448421125 0.1434995
v -0.14904675 -0.4494865 0.142111375
v -0.1701375 -0.450102375 0.140675125
v -0.191239375 -0.45076925 0.13867725
v -0.212237375 -0.45151725 0.13604825
v -0.0230198321875 -0.432147578125 0.129353140625
v 0.145706125 -0.444822 0.140628375
v 0.166996375 -0.4445595 0.138717
v 0.188232875 -0.444325875 0.136022
v 0.2093635 -0.444079625 0.1326505
v 0.2510315 -0.44403175 0.1236635
v 0.23032425 -0.443933375 0.12875425
v 0.20624475 -0.430857 0.11666775
v 0.185760875 -0.430764125 0.120238
v 0.165199125 -0.43072225 0.123077125
v 0.14454275 -0.430611 0.125128625
v 0.0818881640625 -0.430428359375 0.128692171875
v -0.002037624375 -0.43172153125 0.129421953125
v -0.0466594875 -0.430835375 0.127332625
v -0.08589735 -0.43393175 0.12838025
v 0.018761338125 -0.4234866875 0.1225234375
v 0.00845118375 -0.4315076875 0.1294480625
v -0.00219634 -0.4239194375 0.122466
v 0.00810667 -0.4156915 0.115777
v -0.01252761625 -0.4319349375 0.1293905
v -0.023157674375 -0.4243538125 0.1223933125
v -0.01283123 -0.416139 0.1156905
v -0.0335153125 -0.432359125 0.1293093125
v -0.04412595 -0.4247855 0.122308
v -0.03376965 -0.4165815 0.115612
v 0.0606798875 -0.4228174375 0.1223018125
v 0.05040745 -0.4308078125 0.129305625
v 0.0397208125 -0.4231241875 0.1224759375
v 0.0499896 -0.4149295 0.115734
v 0.02942834375 -0.431131125 0.12941925
v 0.0290476 -0.4152725 0.115818
v 0.08163346875 -0.42262225 0.1217700625
v 0.07139353125 -0.4305353125 0.128972375
v 0.07091685 -0.4147035 0.115364
v 0.102574 -0.422493 0.1211135
v 0.092380225 -0.430330875 0.1283953125
v 0.09182415 -0.414616 0.114687
v 0.112375 -0.39442 0.10891
v 0.1230059375 -0.40443925 0.1109995625
v 0.112729 -0.414556 0.1138765
v 0.1021005 -0.40455 0.1117655
v -0.11765975 -0.3772963125 0.11725275
v -0.107142775 -0.3872215625 0.1138068125
v -0.1173426875 -0.397520875 0.113073375
v -0.1278685 -0.3875799375 0.1154784375
v -0.106818375 -0.4076074375 0.1132004375
v -0.1169775 -0.4179865 0.114382
v -0.1275024375 -0.407874 0.113316125
v -0.137622 -0.418316 0.1136285
v -0.148165 -0.4082034375 0.1133531875
v -0.1380425 -0.3978303125 0.1139401875
v -0.14859875 -0.388012875 0.116817125
v -0.13841225 -0.37781875 0.11927625
v -0.2001395 -0.3990439375 0.113856
v -0.1894340625 -0.4089403125 0.1122126875
v -0.1993825 -0.419354 0.109877
v -0.2100305625 -0.4093565625 0.1108030625
v -0.23045825 -0.4096825625 0.10823225
v -0.2207455 -0.399495875 0.112087125
v -0.2198585 -0.419683 0.1078045
v -0.2505286875 -0.4096345625 0.1037656
v -0.24110675 -0.3996613125 0.10879575
v -0.240113 -0.419868 0.1042135
v -0.0966286625 -0.397313125 0.112015125
v -0.0861015 -0.4073765 0.1128535
v -0.0962891 -0.417645 0.1150245
v -0.15873625 -0.3982035 0.114546125
v -0.1582315 -0.418665 0.11261
v -0.1688018125 -0.4085676875 0.11299475
v -0.179439875 -0.3985881875 0.1146034375
v -0.1788105 -0.419022 0.1112785
v -0.2339543125 -0.3073795 0.127291125
v -0.244620125 -0.317969375 0.127063125
v -0.254558 -0.30763875 0.1237008125
v -0.243948 -0.297094 0.123983
v -0.26506225 -0.3181074375 0.121927875
v -0.2745215 -0.3078095 0.1176405
v -0.263985 -0.2973995 0.119225
v -0.2129684375 -0.3072068125 0.12871875
v -0.223699375 -0.3176944375 0.1296534375
v -0.223224 -0.296953 0.12619
v -0.191798 -0.30703 0.128918
v -0.202582 -0.31744225 0.1305729375
v -0.202149 -0.2968885 0.1266005
v -0.2342829375 -0.3283975625 0.1287854375
v -0.2446668125 -0.3390659375 0.1262483125
v -0.255086375 -0.3285875625 0.1248714375
v -0.265224875 -0.3390225625 0.120939
v -0.2753755 -0.3284945 0.1185595
v -0.2547400625 -0.3495099375 0.122268875
v -0.264399 -0.3596578125 0.1168833125
v -0.275038 -0.349246 0.1158975
v -0.2132221875 -0.328099375 0.130583625
v -0.223687375 -0.338830875 0.12912775
v -0.1497 -0.3272215 0.12948
v -0.1602878125 -0.33771225 0.129916125
v -0.17088825 -0.3275100625 0.130772
v -0.1601965 -0.317008 0.129964
v -0.1814355625 -0.3381113125 0.1306725
v -0.1920670625 -0.327793875 0.1311659375
v -0.181423 -0.317155 0.1310545
v -0.149523875 -0.34777775 0.1278960625
v -0.1597631875 -0.358264125 0.126531125
v -0.170627875 -0.3482735 0.129128625
v -0.18084625 -0.358762625 0.1271995625
v -0.1917593125 -0.3487185 0.1292801875
v -0.12847075 -0.3472279375 0.1257279375
v -0.1387944375 -0.3577138125 0.1249070625
v -0.1391915 -0.337246 0.1286675
v -0.09691188125 -0.3768795 0.1148256875
v -0.0864182 -0.3869845 0.111917
v -0.1179225625 -0.35710875 0.1224274375
v -0.10741995625 -0.36693975 0.118573375
v -0.1282015 -0.367514625 0.1212125625
v -0.149024 -0.3680824375 0.123120125
v -0.1693778125 -0.388435 0.1175470625
v -0.15922925 -0.3783163125 0.1206045
v -0.1901963125 -0.3888770625 0.1175175
v -0.180142125 -0.3787784375 0.121132875
v -0.2109849375 -0.38940075 0.1164028125
v -0.2010853125 -0.379289125 0.120703875
v -0.1699795625 -0.36859375 0.1242033125
v -0.191022125 -0.3690785 0.12433025
v -0.212047875 -0.369561875 0.12339475
v -0.2019634375 -0.359221625 0.126840625
v -0.2316135 -0.389744125 0.114053875
v -0.22194575 -0.37974325 0.1190799375
v -0.2329408125 -0.36988375 0.1210680625
v -0.2230174375 -0.3596095625 0.125307875
v -0.2518879375 -0.3896929375 0.10974148125
v -0.2425890625 -0.379924875 0.11588025
v -0.2699055 -0.4090885 0.0970618
v -0.260890375 -0.3993164375 0.10317150625
v -0.259783 -0.419594 0.09841745
v -0.2627416875 -0.379654125 0.11036523125
v -0.271555 -0.389151 0.10315935
v -0.2535618125 -0.3699035625 0.11692175
v -0.2736405 -0.369492 0.110429
v -0.243924375 -0.3598141875 0.1222333125
v -0.2128835 -0.3491198125 0.12843675
v -0.23392725 -0.34942825 0.126314625
v -0.2025748125 -0.3384865625 0.130404125
v -0.1179505 -0.3367385 0.1256805
v -0.1074445 -0.3466465 0.122564
v -0.09711035 -0.3565835 0.119424
v -0.08660965 -0.366524 0.1154755
v 0.1751278125 -0.3940948125 0.108323
v 0.18565225 -0.404207125 0.107161375
v 0.1753865 -0.4144985 0.1087855
v 0.1647971875 -0.4043290625 0.1088743125
v 0.14391975 -0.4044013125 0.110074125
v 0.154242125 -0.3942005625 0.10916425
v 0.1545315 -0.414559 0.1108675
v 0.1959365 -0.3938665 0.105945
v 0.2064565 -0.4040875 0.104924
v 0.1961805 -0.4144265 0.1062165
v 0.16467925 -0.3840465625 0.1107086875
v 0.1751915 -0.373980125 0.1133941875
v 0.1855935 -0.3839895 0.1100055
v 0.15424075 -0.373931875 0.1133948125
v 0.143759 -0.3840614375 0.1106956875
v 0.1336435 -0.414545 0.112687
v 0.133332875 -0.3942629375 0.1094993125
v 0.122829 -0.3840485 0.1103865
v 0.1333035 -0.3738245 0.1126735
v 0.1857195 -0.3639255 0.116162
v 0.16473625 -0.3638646875 0.1163023125
v 0.1752535 -0.3538035 0.1191525
v 0.1437605 -0.36373 0.1157065
v 0.154248 -0.3536745 0.118762
v 0.261222 -0.4442205 0.120381
v 0.2488884375 -0.4373608125 0.1157704375
v 0.256542 -0.430725 0.104859
v 0.2688115 -0.4376285 0.109237
v -0.241496 -0.4394525 0.115457
v -0.2321930625 -0.4458431875 0.1249713125
v -0.243656 -0.4531045 0.131174
v -0.2529555 -0.446747 0.1215985
v -0.169626375 -0.4436951875 0.1322868125
v -0.180695 -0.4504285 0.139753
v -0.1905406875 -0.4444026875 0.1302891875
v -0.179473 -0.4376645 0.122916
v -0.2017485 -0.4511285 0.137424
v -0.21140075 -0.445129875 0.1279035
v -0.200211 -0.438408 0.1208865
v -0.148745875 -0.442986875 0.1338728125
v -0.159589 -0.449787 0.1414675
v -0.15878 -0.4369015 0.124816
v -0.127837 -0.442246 0.1349161875
v -0.138508 -0.449205 0.142588
v -0.138088 -0.4360275 0.126319
v -0.08587675625 -0.4409299375 0.13615925
v -0.096383 -0.4481705 0.143735
v -0.10686955 -0.441550375 0.13561375
v -0.0963654 -0.434291 0.1280785
v -0.1174415 -0.448676 0.143245
v -0.1172765 -0.4351035 0.1273415
v 0.124143375 -0.437691 0.134357125
v 0.1140115 -0.4449505 0.1424695
v 0.10315551875 -0.4377170625 0.1353551875
v 0.113294 -0.430428 0.1273485
v 0.09290525 -0.445085 0.1432275
v 0.0821301125 -0.4378899375 0.136015875
v 0.1451244375 -0.4377165 0.1328785
v 0.1351255 -0.444874 0.1413795
v 0.134142 -0.4305435 0.1259755
v 0.0718365 -0.44531 0.143762
v 0.06110939375 -0.4381454375 0.1364624375
v 0.0507998 -0.445587 0.144057
v 0.04010470625 -0.43843625 0.1366671875
v 0.02977395 -0.4458415 0.144297
v 0.019104171875 -0.438739625 0.136814625
v 0.00875219 -0.44614 0.1444395
v -0.0018931375 -0.4391221875 0.1368215625
v -0.01226241 -0.4465245 0.1444105
v -0.022891796875 -0.4395415 0.13674825
v -0.04389540625 -0.4399586875 0.1366513125
v -0.03327545 -0.4469435 0.1443135
v -0.06488631875 -0.44038975 0.136503
v -0.054486 -0.43302 0.1289365
v -0.0542979 -0.447312 0.144249
v -0.0754284 -0.433596 0.1286205
v -0.07533365 -0.447698 0.144096
v -0.2208855 -0.439002 0.1184045
v -0.222721 -0.4519465 0.134605
v 0.154889 -0.4306745 0.124181
v 0.16609775 -0.437640875 0.1308970625
v 0.156343 -0.444702 0.139756
v 0.1754915 -0.4307425 0.1217615
v 0.186996875 -0.437545 0.12813
v 0.1776265 -0.44444 0.137466
v 0.196002 -0.430816 0.1185105
v 0.207804125 -0.4374683125 0.124659125
v 0.198815 -0.4441995 0.134404
v 0.216519 -0.430846 0.1147985
v 0.2285306875 -0.437366 0.120768
v 0.219869 -0.443985 0.1308
v 0.2368115 -0.4307305 0.1104965
v 0.240722 -0.4439425 0.126415
v 0.0082825525 -0.42369825 0.1225025
v -0.0126762225 -0.4241375 0.1224305
v -0.033641275 -0.42456975 0.12235175
v 0.05020065 -0.42296025 0.1224215
v 0.0292409 -0.4232975 0.12251225
v 0.071158 -0.4227075 0.12206975
v 0.092104775 -0.4225535 0.1214475
v 0.112552 -0.404488 0.11139325
v -0.11750575 -0.3873865 0.11467625
v -0.117164 -0.407734 0.11327625
v -0.13783675 -0.408032 0.11336225
v -0.13823025 -0.38779325 0.1162065
v -0.19974425 -0.40914825 0.11161525
v -0.220274 -0.409548 0.109707
v -0.240567 -0.40972025 0.106284
v -0.0964625 -0.40748975 0.1130465
v -0.15848525 -0.40838375 0.1132275
v -0.179119 -0.40875 0.1126645
v -0.2443275 -0.307509 0.1258155
v -0.2645895 -0.307733 0.12085375
v -0.22349475 -0.307286 0.128221
v -0.202395 -0.30712025 0.128898
v -0.244739 -0.3285205 0.127141
v -0.2652715 -0.32856375 0.12189275
v -0.26493 -0.3494045 0.11925725
v -0.22377175 -0.32825375 0.12988875
v -0.16029475 -0.3273665 0.130191
v -0.18147925 -0.32765075 0.131093
v -0.1600705 -0.3480325 0.1286375
v -0.181192 -0.3485015 0.129334
v -0.138992 -0.3475085 0.12693975
v -0.09678035 -0.38709375 0.112877
v -0.11781125 -0.36721575 0.11997075
v -0.13860075 -0.36780475 0.1222645
v -0.15898175 -0.38822525 0.117267
v -0.1797855 -0.38864675 0.11764825
v -0.20060175 -0.3891425 0.11710175
v -0.180496 -0.368836 0.12439125
v -0.2015445 -0.369329 0.12401375
v -0.221329 -0.3896095 0.1154225
v -0.222517 -0.3697515 0.12242625
v -0.241818 -0.38978 0.11219
v -0.26027175 -0.409399 0.1005804
v -0.26176875 -0.38945875 0.106618925
v -0.263644 -0.36973075 0.113853
v -0.24330825 -0.3699445 0.11928
v -0.22342175 -0.34929275 0.12757125
v -0.24438625 -0.34950925 0.12458425
v -0.202651 -0.32794475 0.13100275
v -0.20232625 -0.3489265 0.12899375
v -0.117956 -0.34693925 0.12422
v -0.15948625 -0.368344 0.123773
v -0.097017575 -0.36671825 0.11705475
v 0.1752295 -0.404271 0.10808975
v 0.15436225 -0.40437225 0.1095235
v 0.1960585 -0.4041465 0.10608075
v 0.17513675 -0.38402125 0.11041425
v 0.15422025 -0.384059 0.1107745
v 0.13346475 -0.404417 0.110563
v 0.13329475 -0.38405675 0.11055625
v 0.17522725 -0.36390125 0.1162935
v 0.15424775 -0.3638035 0.11606575
v 0.258882 -0.43747275 0.11262
v -0.242576 -0.4462785 0.1233155
v -0.180084 -0.4440465 0.1313345
v -0.20097975 -0.44476825 0.12915525
v -0.1591845 -0.44334425 0.13314175
v -0.138298 -0.44261625 0.1344535
v -0.0963742 -0.44123075 0.13590675
v -0.117359 -0.44188975 0.13529325
v 0.11365275 -0.43768925 0.134909
v 0.092645325 -0.437788 0.13571775
v 0.13463375 -0.43770875 0.1336775
v 0.071617825 -0.43801075 0.13626875
v 0.05060575 -0.438289 0.136583
v 0.029604075 -0.438582 0.13675175
v 0.0086053125 -0.4389225 0.13683375
v -0.0123918125 -0.43933025 0.1367905
v -0.033394175 -0.43975075 0.1367025
v -0.05439195 -0.440166 0.13659275
v -0.075381025 -0.440647 0.13635825
v -0.22180325 -0.44547425 0.12650475
v 0.155616 -0.43768825 0.1319685
v 0.176559 -0.43759125 0.12961375
v 0.1974085 -0.43750775 0.12645725
v 0.218194 -0.4374155 0.12279925
v 0.23876675 -0.4373365 0.11845575
f 16 140 364 143
f 108 141 364 140
f 137 142 364 141
f 2 143 364 142
f 137 144 365 142
f 125 145 365 144
f 4 146 365 145
f 2 142 365 146
f 4 145 366 149
f 125 147 366 145
f 138 148 366 147
f 3 149 366 148
f 6 150 367 153
f 106 151 367 150
f 107 152 367 151
f 5 153 367 152
f 107 154 368 152
f 108 140 368 154
f 16 155 368 140
f 5 152 368 155
f 7 156 369 158
f 136 157 369 156
f 106 150 369 157
f 6 158 369 150
f 8 159 370 161
f 104 160 370 159
f 136 156 370 160
f 7 161 370 156
f 73 162 371 165
f 92 163 371 162
f 93 164 371 163
f 8 165 371 164
f 34 166 372 169
f 60 167 372 166
f 33 168 372 167
f 9 169 372 168
f 33 170 373 168
f 12 171 373 170
f 13 172 373 171
f 9 168 373 172
f 13 173 374 172
f 17 174 374 173
f 35 175 374 174
f 9 172 374 175
f 35 176 375 175
f 58 177 375 176
f 34 169 375 177
f 9 175 375 169
f 40 178 376 181
f 37 179 376 178
f 72 180 376 179
f 10 181 376 180
f 11 182 377 184
f 41 183 377 182
f 40 181 377 183
f 10 184 377 181
f 42 185 378 187
f 55 186 378 185
f 41 182 378 186
f 11 187 378 182
f 33 188 379 170
f 32 189 379 188
f 15 190 379 189
f 12 170 379 190
f 36 191 380 193
f 35 174 380 191
f 17 192 380 174
f 14 193 380 192
f 72 179 381 195
f 37 194 381 179
f 36 193 381 194
f 14 195 381 193
f 20 196 382 199
f 26 197 382 196
f 23 198 382 197
f 19 199 382 198
f 23 200 383 198
f 24 201 383 200
f 70 202 383 201
f 19 198 383 202
f 21 203 384 205
f 67 204 384 203
f 26 196 384 204
f 20 205 384 196
f 22 206 385 208
f 69 207 385 206
f 67 203 385 207
f 21 208 385 203
f 26 209 386 197
f 49 210 386 209
f 68 211 386 210
f 23 197 386 211
f 68 212 387 211
f 25 213 387 212
f 24 200 387 213
f 23 211 387 200
f 68 214 388 212
f 48 215 388 214
f 44 216 388 215
f 25 212 388 216
f 67 217 389 204
f 50 218 389 217
f 49 209 389 218
f 26 204 389 209
f 28 219 390 222
f 30 220 390 219
f 29 221 390 220
f 27 222 390 221
f 29 223 391 221
f 64 224 391 223
f 69 225 391 224
f 27 221 391 225
f 30 226 392 220
f 63 227 392 226
f 53 228 392 227
f 29 220 392 228
f 53 229 393 228
f 51 230 393 229
f 64 223 393 230
f 29 228 393 223
f 65 231 394 233
f 52 232 394 231
f 63 226 394 232
f 30 233 394 226
f 33 167 395 188
f 60 234 395 167
f 59 235 395 234
f 32 188 395 235
f 52 236 396 238
f 62 237 396 236
f 60 166 396 237
f 34 238 396 166
f 58 239 397 177
f 63 232 397 239
f 52 238 397 232
f 34 177 397 238
f 36 240 398 191
f 57 241 398 240
f 58 176 398 241
f 35 191 398 176
f 37 242 399 194
f 38 243 399 242
f 57 240 399 243
f 36 194 399 240
f 40 244 400 178
f 39 245 400 244
f 38 242 400 245
f 37 178 400 242
f 51 229 401 247
f 53 246 401 229
f 57 243 401 246
f 38 247 401 243
f 39 248 402 245
f 54 249 402 248
f 51 247 402 249
f 38 245 402 247
f 40 183 403 244
f 41 250 403 183
f 46 251 403 250
f 39 244 403 251
f 46 252 404 251
f 47 253 404 252
f 54 248 404 253
f 39 251 404 248
f 55 254 405 186
f 45 255 405 254
f 46 250 405 255
f 41 186 405 250
f 71 256 406 258
f 43 257 406 256
f 55 185 406 257
f 42 258 406 185
f 56 259 407 260
f 45 254 407 259
f 55 257 407 254
f 43 260 407 257
f 48 261 408 215
f 45 259 408 261
f 56 262 408 259
f 44 215 408 262
f 48 263 409 261
f 47 252 409 263
f 46 255 409 252
f 45 261 409 255
f 49 218 410 265
f 50 264 410 218
f 54 253 410 264
f 47 265 410 253
f 48 214 411 263
f 68 210 411 214
f 49 265 411 210
f 47 263 411 265
f 67 207 412 217
f 69 224 412 207
f 64 266 412 224
f 50 217 412 266
f 64 230 413 266
f 51 249 413 230
f 54 264 413 249
f 50 266 413 264
f 65 267 414 231
f 66 268 414 267
f 62 236 414 268
f 52 231 414 236
f 63 239 415 227
f 58 241 415 239
f 57 246 415 241
f 53 227 415 246
f 60 237 416 234
f 62 269 416 237
f 61 270 416 269
f 59 234 416 270
f 89 271 417 274
f 79 272 417 271
f 77 273 417 272
f 74 274 417 273
f 91 275 418 277
f 80 276 418 275
f 89 274 418 276
f 74 277 418 274
f 77 272 419 280
f 79 278 419 272
f 78 279 419 278
f 75 280 419 279
f 89 281 420 271
f 86 282 420 281
f 90 283 420 282
f 79 271 420 283
f 84 284 421 285
f 86 281 421 284
f 89 276 421 281
f 80 285 421 276
f 91 286 422 275
f 93 163 422 286
f 92 287 422 163
f 80 275 422 287
f 92 288 423 287
f 88 289 423 288
f 84 285 423 289
f 80 287 423 285
f 87 290 424 292
f 90 282 424 290
f 86 291 424 282
f 83 292 424 291
f 86 284 425 291
f 84 293 425 284
f 85 294 425 293
f 83 291 425 294
f 95 295 426 298
f 130 296 426 295
f 18 297 426 296
f 94 298 426 297
f 99 299 427 302
f 82 300 427 299
f 81 301 427 300
f 97 302 427 301
f 101 303 428 306
f 122 304 428 303
f 123 305 428 304
f 100 306 428 305
f 123 307 429 305
f 124 308 429 307
f 1 309 429 308
f 100 305 429 309
f 102 310 430 312
f 121 311 430 310
f 122 303 430 311
f 101 312 430 303
f 96 313 431 315
f 119 314 431 313
f 121 310 431 314
f 102 315 431 310
f 139 316 432 319
f 118 317 432 316
f 120 318 432 317
f 103 319 432 318
f 120 320 433 318
f 119 313 433 320
f 96 321 433 313
f 103 318 433 321
f 105 322 434 325
f 76 323 434 322
f 113 324 434 323
f 104 325 434 324
f 113 326 435 324
f 112 327 435 326
f 136 160 435 327
f 104 324 435 160
f 135 328 436 330
f 126 329 436 328
f 76 322 436 329
f 105 330 436 322
f 136 327 437 157
f 112 331 437 327
f 111 332 437 331
f 106 157 437 332
f 111 333 438 332
f 110 334 438 333
f 107 151 438 334
f 106 332 438 151
f 110 335 439 334
f 109 336 439 335
f 108 154 439 336
f 107 334 439 154
f 109 337 440 336
f 115 338 440 337
f 137 141 440 338
f 108 336 440 141
f 125 144 441 340
f 137 338 441 144
f 115 339 441 338
f 114 340 441 339
f 116 341 442 342
f 138 147 442 341
f 125 340 442 147
f 114 342 442 340
f 117 343 443 345
f 98 344 443 343
f 138 341 443 344
f 116 345 443 341
f 118 316 444 347
f 139 346 444 316
f 98 343 444 346
f 117 347 444 343
f 81 300 445 349
f 82 348 445 300
f 1 308 445 348
f 124 349 445 308
f 135 350 446 328
f 134 351 446 350
f 127 352 446 351
f 126 328 446 352
f 134 353 447 351
f 133 354 447 353
f 128 355 447 354
f 127 351 447 355
f 133 356 448 354
f 132 357 448 356
f 129 358 448 357
f 128 354 448 358
f 132 359 449 357
f 31 360 449 359
f 131 361 449 360
f 129 357 449 361
f 131 360 450 363
f 31 362 450 360
f 18 296 450 362
f 130 363 450 296
