v -0.0722985 -0.171134 0.0448226
v -0.0651513 -0.164329 0.0479712
v -0.0723771 -0.164138 0.0468088
v -0.0582619 -0.158009 0.0526048
v -0.0654992 -0.157752 0.051293
v -0.0509149 -0.158109 0.0534042
v -0.0436355 -0.158144 0.0540433
v -0.0507941 -0.16489 0.0508361
v -0.0507909 -0.172172 0.0496738
v -0.0580065 -0.171854 0.0481719
v -0.036362 -0.172471 0.0516939
v -0.0435854 -0.165085 0.0519484
v -0.04358 -0.172336 0.0507234
v -0.0217484 -0.165385 0.0534445
v -0.0290408 -0.165307 0.0531162
v -0.0290866 -0.172577 0.0522383
v -0.0363331 -0.165229 0.0527879
v -0.014503 -0.172763 0.0529757
v -0.0217943 -0.172657 0.0525709
v -0.0145381 -0.180114 0.0526326
v -0.0218538 -0.179996 0.0522445
v -0.0291984 -0.179785 0.0520829
v -0.0364754 -0.179626 0.0514467
v 0.000112137 -0.16562 0.0539615
v -0.0072137 -0.172864 0.053303
v -0.00712221 -0.158252 0.0548755
v -0.00716987 -0.165538 0.0539142
v -0.0144036 -0.158176 0.0548864
v 0.0147385 -0.158494 0.0549325
v 0.00745091 -0.158413 0.0549099
v 0.000163345 -0.158331 0.0548872
v 0.0148291 -0.151226 0.0561752
v 0.00754055 -0.151144 0.0561446
v 0.000251982 -0.151063 0.056114
v -0.00703659 -0.150982 0.0560834
v 0.00763324 -0.143849 0.057452
v 0.000338819 -0.143762 0.0573891
v -0.0143295 -0.150896 0.0560288
v -0.00699271 -0.143676 0.0573339
v -0.0143226 -0.143728 0.0576376
v -0.0216104 -0.144182 0.0590003
v -0.0216416 -0.150902 0.0562145
v -0.028981 -0.144502 0.0597536
v -0.0290314 -0.151191 0.0568272
v -0.0364037 -0.144736 0.0601244
v -0.0364118 -0.151463 0.0573093
v -0.0289953 -0.158119 0.0545689
v -0.0363011 -0.158069 0.0541904
v -0.0651805 -0.171512 0.0465667
v -0.0139054 -0.13014 0.0631266
v -0.014173 -0.136967 0.0604251
v -0.0579961 -0.164628 0.0494824
v -0.0215207 -0.137462 0.0618194
v 0.000243649 -0.129338 0.0604696
v 0.000303631 -0.136527 0.0588562
v -0.00710529 -0.129272 0.0604742
v -0.00704531 -0.13646 0.0588608
v 0.00763602 -0.136779 0.0593559
v 0.0149529 -0.137356 0.0608035
v 0.0149106 -0.144194 0.0582449
v 0.022246 -0.137959 0.0622276
v 0.022254 -0.144762 0.059461
v 0.029581 -0.145187 0.0603654
v 0.0221197 -0.151341 0.0562931
v 0.029431 -0.151785 0.057195
v 0.0515502 -0.152425 0.0566225
v 0.0441533 -0.152404 0.0573617
v 0.0589364 -0.152527 0.0560178
v 0.0583997 -0.158776 0.0521524
v 0.0511323 -0.15878 0.0530227
v 0.0581397 -0.165659 0.0497497
v 0.0509172 -0.165764 0.0508758
v 0.0436662 -0.165824 0.0518275
v 0.0363996 -0.165895 0.0526901
v 0.021686 -0.173203 0.0525522
v 0.0290923 -0.165917 0.0531904
v 0.0143805 -0.173233 0.0530843
v 0.0292656 -0.158628 0.0546403
v 0.0289923 -0.173165 0.0519982
v 0.0217562 -0.180526 0.0522517
v 0.0290868 -0.180499 0.0517859
v 0.0144402 -0.180545 0.0527524
v -0.0585439 -0.151508 0.0560432
v 0.03644 -0.180456 0.0513996
v 0.0363366 -0.173138 0.0516133
v 0.0435594 -0.173056 0.0505158
v 0.0507897 -0.172939 0.0493764
v 0.0580199 -0.172771 0.0480812
v 0.0725754 -0.16533 0.0472022
v 0.0724056 -0.172392 0.0450987
v 0.0798763 -0.158084 0.0479886
v 0.0797608 -0.165139 0.0458867
v 0.0796452 -0.172194 0.0437847
v 0.0727626 -0.158395 0.0495701
v 0.0661777 -0.152402 0.0549133
v 0.0732837 -0.152036 0.0531944
v 0.0811585 -0.145332 0.0551107
v 0.0804718 -0.151686 0.0514975
v 0.0882516 -0.144799 0.0528917
v 0.0874764 -0.151161 0.0492385
v 0.101459 -0.143228 0.0465121
v 0.0949082 -0.144066 0.0498458
v 0.100888 -0.149879 0.0434783
v 0.0941081 -0.150412 0.04615
v 0.100386 -0.156633 0.0406315
v 0.0936085 -0.157179 0.0432993
v 0.106791 -0.15557 0.0371463
v -0.0511491 -0.151552 0.0566881
v 0.107476 -0.149106 0.0404294
v 0.108108 -0.142511 0.0435047
v 0.102039 -0.136453 0.0489929
v 0.0954945 -0.137304 0.0523614
v 0.0868026 -0.157605 0.0458245
v 0.0863018 -0.164194 0.0427863
v 0.0653414 -0.165506 0.0485096
v 0.0651552 -0.172583 0.0464103
v 0.0656701 -0.158757 0.0512615
v 0.0438626 -0.158777 0.0538085
v 0.0365455 -0.158638 0.0540842
v 0.0367777 -0.152195 0.0574468
v 0.0369823 -0.145587 0.0605961
v 0.0220162 -0.15857 0.0548928
v -0.0216923 -0.158114 0.05477
v -0.0144561 -0.165465 0.0537945
v -0.0437587 -0.15158 0.0572967
f 3 1 49 2
f 49 10 52 2
f 52 4 5 2
f 52 8 6 4
f 6 108 83 4
f 7 125 108 6
f 12 17 48 7
f 48 46 125 7
f 52 10 9 8
f 23 22 16 11
f 16 15 17 11
f 17 12 13 11
f 15 16 19 14
f 19 18 124 14
f 124 28 123 14
f 123 47 15 14
f 47 48 17 15
f 22 21 19 16
f 19 21 20 18
f 25 27 124 18
f 31 26 27 24
f 28 124 27 26
f 31 34 35 26
f 35 38 28 26
f 38 42 123 28
f 122 64 32 29
f 32 33 30 29
f 33 34 31 30
f 64 62 60 32
f 60 36 33 32
f 36 37 34 33
f 37 39 35 34
f 39 40 38 35
f 60 59 58 36
f 58 55 37 36
f 55 57 39 37
f 40 41 42 38
f 57 51 40 39
f 51 53 41 40
f 43 44 42 41
f 44 47 123 42
f 45 46 44 43
f 46 48 47 44
f 51 57 56 50
f 56 57 55 54
f 60 62 61 59
f 64 65 63 62
f 65 120 121 63
f 122 78 65 64
f 78 119 120 65
f 70 69 68 66
f 120 119 118 67
f 69 117 95 68
f 71 115 117 69
f 72 87 88 71
f 88 116 115 71
f 73 86 87 72
f 74 85 86 73
f 118 119 74 73
f 76 79 85 74
f 119 78 76 74
f 77 82 80 75
f 80 81 79 75
f 81 84 85 79
f 115 116 90 89
f 90 93 92 89
f 92 91 94 89
f 94 117 115 89
f 92 114 113 91
f 113 100 98 91
f 98 96 94 91
f 96 95 117 94
f 98 100 99 97
f 100 104 102 99
f 102 104 103 101
f 103 109 110 101
f 111 112 102 101
f 104 106 105 103
f 105 107 109 103
