v -0.0271802 0.315159 0.101654
v -0.0265187 0.323037 0.100884
v -0.0258572 0.330914 0.100114
v -0.0186716 0.32242 0.10253
v -0.0100621 0.32972 0.102376
v -0.0180418 0.330318 0.101749
v -0.0106958 0.321813 0.103438
v -0.0112687 0.313877 0.104262
v -0.0192819 0.314498 0.103349
v -0.0118477 0.305864 0.104656
v -0.0198865 0.306553 0.103759
v -0.0124815 0.29784 0.104943
v -0.0204846 0.298536 0.103845
v -0.0278166 0.30726 0.102253
v -0.0151718 0.265828 0.106947
v -0.0211439 0.290538 0.10427
v -0.0144884 0.273821 0.106385
v -0.0078421 0.257177 0.109149
v -0.00846122 0.249176 0.110012
v -0.0090577 0.241274 0.111572
v -0.00105346 0.240701 0.112039
v -0.000454702 0.248612 0.110741
v 0.000144057 0.256522 0.109442
v -0.00212047 0.225246 0.116349
v -0.00159733 0.232944 0.114058
v 0.0067347 0.23987 0.110528
v 0.00733301 0.247822 0.10887
v 0.00799694 0.255815 0.107659
v -0.00963168 0.233462 0.113713
v 0.00865269 0.263779 0.106554
v 0.00932442 0.271751 0.105571
v 0.000824922 0.264492 0.108469
v 0.0015467 0.272493 0.107667
v 0.00226219 0.280498 0.106841
v 0.00295444 0.288515 0.105928
v -0.00514508 0.289167 0.106372
v -0.00445283 0.297184 0.105458
v 0.00362229 0.296534 0.10527
v 0.0122924 0.304062 0.103834
v 0.00426155 0.304583 0.104748
v 0.0116557 0.295991 0.104401
v 0.0203123 0.303514 0.102484
v 0.0196754 0.295412 0.102756
v 0.0283406 0.302992 0.100821
v 0.0288885 0.311119 0.100507
v 0.0293572 0.319235 0.100047
v 0.0294168 0.327361 0.0987372
v 0.0289696 0.335473 0.0976286
v 0.0368552 0.327492 0.0967541
v 0.0363407 0.335559 0.0957025
v 0.0374179 0.319441 0.0977088
v 0.045919 0.311896 0.0955179
v 0.045145 0.319877 0.094952
v 0.0532915 0.312489 0.0916043
v 0.0524784 0.320288 0.0918409
v 0.0655561 0.322677 0.0832644
v 0.0590647 0.321477 0.0875613
v 0.0570233 0.329218 0.0874075
v 0.0635237 0.330752 0.0830775
v 0.0725853 0.315675 0.0776007
v 0.0738264 0.307579 0.0774985
v 0.0678429 0.306558 0.0828981
v 0.0669445 0.314642 0.0832476
v 0.061361 0.305405 0.0876471
v 0.0604107 0.31344 0.0878633
v 0.0748728 0.299556 0.0772099
v 0.0686649 0.298491 0.082443
v 0.0755406 0.291563 0.0765235
v 0.0855406 0.277501 0.0616412
v 0.0821431 0.236526 0.064722
v 0.0852543 0.25345 0.0589656
v 0.0853729 0.261466 0.0598709
v 0.0854916 0.269482 0.0607762
v 0.0850398 0.285487 0.0624595
v 0.0844929 0.293477 0.0632583
v 0.0839247 0.301465 0.0640517
v 0.0828974 0.309436 0.0647089
v 0.0857546 0.310424 0.0572253
v 0.0874388 0.294387 0.0558663
v 0.086781 0.302392 0.0565855
v 0.0914667 0.295381 0.048963
v 0.0990043 0.305375 0.0359326
v 0.094731 0.304378 0.0427361
v 0.0904577 0.303381 0.0495395
v 0.0899045 0.279373 0.046292
v 0.0942486 0.288373 0.0405229
v 0.0907008 0.287377 0.047634
v 0.0985927 0.297372 0.0347538
v 0.0950449 0.296377 0.0418649
v 0.0894958 0.271368 0.0452455
v 0.0891595 0.263347 0.0443242
v 0.0887856 0.255316 0.0433388
v 0.0883083 0.24728 0.0422792
v 0.0901242 0.264431 0.0365172
v 0.0913002 0.281941 0.0310346
v 0.0895585 0.2564 0.0354304
v 0.0908196 0.265569 0.0287236
v 0.0910541 0.273758 0.0298803
v 0.0898668 0.249638 0.026139
v 0.0904092 0.257542 0.0274683
v 0.0891116 0.248401 0.034222
v 0.0875644 0.239354 0.0411517
v 0.0841705 0.229351 0.0560033
v 0.0813291 0.220514 0.0628523
v -0.010231 0.225515 0.115598
v -0.0174335 0.338228 0.101008
v 0.073264 0.203153 0.0756434
v 0.066972 0.186779 0.0798663
v 0.0597572 0.178717 0.0832903
v 0.0609198 0.186478 0.0852327
v 0.0680967 0.202725 0.0820058
v 0.0676664 0.194721 0.0810527
v 0.0681478 0.210761 0.0826032
v 0.0618895 0.202465 0.0873547
v 0.0550974 0.202276 0.091804
v 0.0539381 0.186383 0.0894392
v 0.0443198 0.171119 0.0885138
v 0.0529166 0.178609 0.0875333
v 0.045365 0.178834 0.0904611
v 0.0464101 0.186549 0.0924084
v -0.00964399 0.337733 0.101982
v -0.00273606 0.321197 0.104434
v 0.00518521 0.320617 0.103654
v 0.0714995 0.18734 0.0731349
v 0.0550992 0.210375 0.0922706
v 0.0548956 0.21848 0.0924298
v 0.0536578 0.242768 0.0917758
v 0.0545138 0.226589 0.0923725
v 0.0610689 0.234823 0.0882449
v 0.0541023 0.234676 0.0920993
v 0.0606277 0.242905 0.0879474
v 0.0670636 0.243093 0.0835028
v 0.0673784 0.235006 0.0835031
v 0.0679403 0.21884 0.0829249
v 0.0617773 0.218621 0.088149
v 0.0676488 0.226921 0.0832279
v 0.0732287 0.243302 0.0786098
v 0.0735316 0.235234 0.0782953
v 0.0736987 0.219176 0.0771848
v 0.073723 0.2272 0.0778618
v 0.0783099 0.243835 0.0724735
v 0.0780031 0.2519 0.0730202
v -0.00329757 0.31327 0.104461
v -0.0131497 0.289833 0.105421
v -0.013821 0.281828 0.105917
v 0.0100859 0.279776 0.104962
v -0.00583184 0.28116 0.107081
v 0.0615054 0.226715 0.0883333
v 0.0618469 0.210534 0.0877682
v 0.0615844 0.194415 0.0865342
v 0.0549127 0.194192 0.0912254
v 0.0517887 0.170893 0.0854818
v 0.0727056 0.195175 0.074653
v 0.078287 0.219738 0.070416
v 0.078394 0.227757 0.0711342
v 0.0785011 0.235775 0.0718523
v 0.0864469 0.238304 0.0491631
v 0.0870519 0.246324 0.0502152
v 0.0874334 0.254349 0.0511998
v 0.0877211 0.26238 0.052166
v 0.0914409 0.272306 0.0375719
v 0.0924567 0.280273 0.0385893
v -0.00651476 0.273161 0.107646
v -0.00719767 0.265161 0.108211
v 0.0128044 0.312102 0.103298
v 0.0878831 0.270401 0.0531236
v 0.0878175 0.278395 0.0540689
v 0.0877519 0.286388 0.0550141
v 0.010948 0.28787 0.104684
v -0.00185826 0.337216 0.102559
v 0.0815395 0.317373 0.0652077
v 0.0801408 0.325324 0.0658158
v 0.0758784 0.324772 0.0720338
v 0.00591164 0.33661 0.101467
v 0.0774427 0.31669 0.0717575
v 0.0847793 0.237385 0.0570655
v 0.0850251 0.245419 0.0580187
v 0.0820064 0.228501 0.0638174
v 0.0821096 0.244555 0.065523
v 0.0820858 0.252592 0.0663224
v 0.0820621 0.260628 0.0671217
v 0.0813268 0.284529 0.0696723
v 0.0806631 0.292526 0.0703533
v 0.0799987 0.300523 0.0710338
v 0.0540229 0.304659 0.0915577
v 0.0444251 0.32791 0.0939017
v 0.052068 0.328385 0.0919006
v 0.0516957 0.336524 0.0918766
v 0.043989 0.336027 0.0935909
v 0.0212759 0.319651 0.10137
v 0.0131881 0.320093 0.102649
v 0.0213906 0.327551 0.100435
v 0.0215053 0.335451 0.0995003
v 0.0208923 0.311617 0.10218
v 0.00468689 0.312614 0.104118
v 0.0133677 0.328016 0.101573
v 0.00560995 0.328575 0.102135
v -0.00214783 0.329134 0.102697
v 0.0136815 0.336004 0.100374
f 14 11 9 1
f 9 4 2 1
f 4 6 3 2
f 9 8 7 4
f 7 5 6 4
f 121 106 6 5
f 7 122 198 5
f 198 170 121 5
f 8 143 122 7
f 9 11 10 8
f 11 13 12 10
f 13 16 144 12
f 144 36 37 12
f 164 163 17 15
f 163 147 145 17
f 19 22 23 18
f 23 32 164 18
f 20 21 22 19
f 29 25 21 20
f 26 27 22 21
f 27 28 23 22
f 28 30 32 23
f 25 29 105 24
f 31 33 32 30
f 146 34 33 31
f 33 163 164 32
f 34 147 163 33
f 35 36 147 34
f 146 169 35 34
f 38 37 36 35
f 169 41 38 35
f 144 145 147 36
f 41 39 40 38
f 165 195 40 39
f 41 43 42 39
f 42 194 165 39
f 44 45 194 42
f 46 190 194 45
f 47 192 190 46
f 48 193 192 47
f 49 50 48 47
f 51 53 186 49
f 186 189 50 49
f 54 55 53 52
f 185 64 65 54
f 65 57 55 54
f 59 58 57 56
f 57 65 63 56
f 63 62 61 60
f 62 67 66 61
f 63 65 64 62
f 68 183 184 66
f 73 166 167 69
f 167 168 74 69
f 179 141 156 70
f 156 155 178 70
f 178 103 176 70
f 176 177 179 70
f 72 181 180 71
f 180 179 177 71
f 177 158 159 71
f 159 160 72 71
f 160 166 73 72
f 75 183 182 74
f 168 79 75 74
f 76 184 183 75
f 79 80 76 75
f 80 78 77 76
f 168 87 81 79
f 81 84 80 79
f 87 86 89 81
f 89 83 84 81
f 83 89 88 82
f 87 168 167 85
f 167 166 90 85
f 166 160 91 90
f 91 94 161 90
f 160 159 92 91
f 92 96 94 91
f 159 158 93 92
f 93 101 96 92
f 158 157 102 93
f 96 100 97 94
f 97 98 161 94
f 162 161 98 95
f 101 99 100 96
f 178 155 154 104
f 111 112 153 107
f 112 150 110 108
f 124 153 112 108
f 110 116 118 109
f 150 151 116 110
f 113 149 114 111
f 114 150 112 111
f 134 135 149 113
f 149 125 115 114
f 115 151 150 114
f 120 119 118 116
f 152 118 119 117
f 135 148 128 126
f 130 129 131 127
f 148 129 130 128
f 148 136 133 129
f 133 132 131 129
f 133 138 137 132
f 136 140 138 133
f 136 148 135 134
f 139 140 136 134
f 138 156 141 137
f 140 155 156 138
f 179 180 142 141
f 158 177 176 157
f 172 173 175 171
f 187 188 189 186
f 192 196 191 190
f 191 165 194 190
f 196 197 123 191
f 123 195 165 191
f 193 199 196 192
f 199 174 197 196
f 174 170 198 197
f 198 122 123 197
