# https://github.com/mikedh/trimesh
v -0.05492925 -0.43598675 -0.19610251
v -0.02011500 -0.43910301 -0.19646300
v -0.03541400 -0.44206399 -0.19633800
v 0.02750350 -0.44784899 -0.19499400
v -0.00080650 -0.43959651 -0.19618050
v -0.04176775 -0.44107726 -0.19612650
v -0.05857775 -0.43247175 -0.19750450
v -0.03490800 -0.43293601 -0.19580300
v -0.03972413 -0.43167295 -0.19502153
v 0.05215900 -0.44702950 -0.19273300
v 0.06690875 -0.46540150 -0.18991675
v 0.07858300 -0.45243499 -0.18889400
v 0.14569421 -0.42151119 -0.16390542
v 0.15626407 -0.42199276 -0.16137236
v 0.16536747 -0.42219352 -0.15896521
v 0.17078750 -0.42152099 -0.15736550
v 0.16273550 -0.42297800 -0.16010651
v 0.12152200 -0.42025900 -0.16971500
v 0.10695450 -0.41928800 -0.17216950
v 0.09297700 -0.41865450 -0.17429749
v 0.13435350 -0.42166900 -0.16731349
v 0.17811025 -0.42260075 -0.15538350
v 0.18166700 -0.42275900 -0.15433200
v 0.08186734 -0.44795833 -0.18934419
v 0.10548300 -0.43280399 -0.19003300
v 0.08827226 -0.43902459 -0.18787937
v 0.14100851 -0.45665300 -0.18540700
v 0.11425699 -0.43574697 -0.18685984
v 0.13020658 -0.44414667 -0.18393481
v 0.13558151 -0.45019493 -0.18274766
v 0.12410393 -0.43878584 -0.18501010
v 0.23263752 -0.43815743 -0.16743774
v 0.23059050 -0.43366850 -0.16719149
v 0.23297875 -0.43725050 -0.16489775
v 0.22099750 -0.42625199 -0.17214150
v 0.23825756 -0.45579431 -0.16315249
v 0.22686347 -0.43345071 -0.17162688
v 0.13959636 -0.45024534 -0.18702943
v 0.14132300 -0.45388600 -0.18660600
v 0.12969702 -0.43618870 -0.19001619
v 0.10891148 -0.43465545 -0.18705347
v 0.10655178 -0.42899117 -0.19311911
v 0.12095756 -0.43183430 -0.19160951
v 0.11597000 -0.42923301 -0.19257800
v 0.08918308 -0.43385709 -0.19287882
v 0.14757181 -0.44146860 -0.18553105
v 0.17521645 -0.42597645 -0.18743773
v 0.14839607 -0.43485255 -0.17997176
v 0.16166888 -0.42587898 -0.18128342
v 0.07909250 -0.44267189 -0.19190859
v 0.09256527 -0.43691384 -0.18813286
v 0.07293750 -0.45816124 -0.19198125
v 0.07679950 -0.45838400 -0.18968201
v 0.14202431 -0.43529450 -0.18708176
v 0.14381250 -0.43469675 -0.18454250
v 0.13219002 -0.42871230 -0.18992057
v 0.12897718 -0.42688655 -0.19043687
v 0.13116966 -0.43092923 -0.19096867
v 0.14037840 -0.43749868 -0.18861940
v 0.14149634 -0.44153653 -0.18892925
v 0.12702005 -0.42994354 -0.19207767
v 0.12473587 -0.42823920 -0.19217236
v 0.13188450 -0.43348923 -0.19073853
v 0.13820811 -0.44015224 -0.18948113
v 0.13362954 -0.43755138 -0.18997630
v 0.11790129 -0.42504861 -0.19234166
v 0.09950301 -0.42697669 -0.19387595
v 0.08716389 -0.42968312 -0.19419250
v 0.11108699 -0.43139638 -0.19166445
v 0.08401500 -0.43170100 -0.19421101
v 0.08120492 -0.43436311 -0.19404929
v 0.13868030 -0.44636745 -0.18834953
v 0.07674622 -0.44041941 -0.19334817
v 0.07167407 -0.44142161 -0.19417598
v 0.07057744 -0.44825077 -0.19396428
v 0.06589183 -0.44275184 -0.19473451
v 0.06228124 -0.43812528 -0.19499475
v 0.06023291 -0.43273859 -0.19510482
v 0.05358100 -0.43089300 -0.19483601
v 0.03536961 -0.42734609 -0.19486988
v 0.03580590 -0.42391889 -0.19542131
v -0.02306302 -0.42326006 -0.19669818
v -0.05473989 -0.43281019 -0.19759213
v -0.04493673 -0.42546320 -0.19800603
v -0.05564800 -0.42873999 -0.19788601
v 0.04407556 -0.42871339 -0.19465998
v 0.06625632 -0.43717755 -0.19494086
v -0.04809323 -0.42898175 -0.19767855
v 0.06379675 -0.43181201 -0.19480801
v -0.03941595 -0.42329111 -0.19763651
v 0.05831142 -0.43609520 -0.19447730
v 0.01113051 -0.42661937 -0.19497015
v 0.14541760 -0.45157609 -0.18773159
v 0.00903006 -0.42137683 -0.19614162
v 0.00789200 -0.42528501 -0.19526400
v -0.01266556 -0.42601499 -0.19540428
v 0.02929191 -0.42972688 -0.19368760
v 0.02287113 -0.42833440 -0.19428295
v -0.02659471 -0.43405018 -0.19635139
v 0.01683689 -0.43383038 -0.19564981
v 0.03614500 -0.44897300 -0.19451199
v 0.04393300 -0.44996050 -0.19386649
v 0.03781089 -0.44241749 -0.19448734
v 0.02559409 -0.43235649 -0.19484181
v -0.01244543 -0.43381383 -0.19647883
v -0.02067384 -0.43010388 -0.19616341
v 0.04856886 -0.44556198 -0.19337222
v 0.07610689 -0.43235055 -0.19325946
v 0.07856143 -0.43857033 -0.19378635
v -0.01463076 -0.42005394 -0.19646748
v -0.02736770 -0.42783595 -0.19555267
v 0.03231311 -0.43062697 -0.19321968
v 0.08447451 -0.42764078 -0.19383195
v 0.07001300 -0.46076599 -0.19172700
v -0.05166751 -0.42291626 -0.19755899
v 0.06601614 -0.45902916 -0.18980969
v 0.06390895 -0.45508936 -0.18948607
v 0.06263954 -0.45069534 -0.18964161
v 0.04204973 -0.43338444 -0.19180662
v 0.09170958 -0.42575641 -0.19363673
v 0.04702553 -0.43930766 -0.19278044
v 0.07274821 -0.43345018 -0.19273170
v 0.04744795 -0.42222475 -0.19425681
v 0.06066401 -0.42841350 -0.19474711
v -0.03514676 -0.42960130 -0.19541136
v 0.05762972 -0.44830416 -0.19141135
v 0.00071426 -0.41820151 -0.19546933
v 0.02599480 -0.41984048 -0.19520221
v -0.03943658 -0.42008978 -0.19664798
v 0.10332186 -0.42319220 -0.19279974
v 0.05291000 -0.42183501 -0.19283900
v 0.05791510 -0.44368280 -0.18957134
v 0.02382300 -0.41780600 -0.19389801
v 0.12044400 -0.42383400 -0.19084300
v 0.11425500 -0.42234950 -0.19084249
v 0.07341500 -0.42858800 -0.18966100
v 0.05565109 -0.44124966 -0.18993142
v 0.20048950 -0.42179000 -0.18005351
v -0.01280500 -0.41697200 -0.19474600
v 0.09635300 -0.42262599 -0.19203299
v 0.08694775 -0.42431725 -0.19183750
v 0.10613075 -0.42173025 -0.19123925
v 0.03361400 -0.41889599 -0.19380599
v -0.03146600 -0.41779301 -0.19490901
v 0.09956100 -0.42159200 -0.19116500
v 0.20963400 -0.42224701 -0.17664800
v 0.12723725 -0.42502451 -0.18940326
v 0.06139085 -0.44834935 -0.18955263
v 0.06706483 -0.44965257 -0.19372663
v 0.04426827 -0.43120680 -0.19354995
v 0.04046300 -0.43017799 -0.19378100
v 0.05155334 -0.43728246 -0.19041530
v 0.04800432 -0.43532464 -0.19078123
v 0.03592911 -0.43119776 -0.19268913
v 0.10914069 -0.41961332 -0.18315872
v 0.09899482 -0.41954492 -0.18545392
v 0.10625378 -0.41976163 -0.18749812
v 0.08913660 -0.42061979 -0.18496425
v 0.10832221 -0.42008622 -0.17821659
v 0.10809262 -0.42062131 -0.17427914
v 0.08296449 -0.42155293 -0.17969242
v 0.11457281 -0.42011887 -0.17973081
v 0.11645277 -0.41991142 -0.18445476
v 0.11650934 -0.42145109 -0.17352548
v 0.12145666 -0.42084310 -0.18269370
v 0.07859932 -0.42283001 -0.18176230
v 0.12631300 -0.42208901 -0.18025801
v 0.09658128 -0.42049272 -0.17653000
v 0.12707437 -0.42271548 -0.17641745
v 0.11684728 -0.42069760 -0.18728295
v 0.13090201 -0.42380300 -0.17752400
v 0.08499803 -0.42181202 -0.18702294
v 0.09670882 -0.42033315 -0.18845043
v 0.13260199 -0.42453999 -0.18265113
v 0.07995729 -0.42396769 -0.18865303
v 0.09008118 -0.42176139 -0.19009255
v 0.13720216 -0.42710957 -0.17481831
v 0.13546713 -0.42693395 -0.18564162
v 0.13361217 -0.42534525 -0.17298313
v 0.13994507 -0.42912359 -0.18132871
v 0.12647354 -0.42315984 -0.17273848
v 0.12788681 -0.42323774 -0.18677643
v 0.11326783 -0.42063062 -0.17265864
v 0.07432210 -0.42587789 -0.18618580
v 0.07153064 -0.42630714 -0.18490819
v 0.15771598 -0.42751664 -0.16772381
v 0.16446216 -0.42625812 -0.16388231
v 0.16703978 -0.42595477 -0.16499716
v 0.18910381 -0.42521512 -0.15645453
v 0.20174376 -0.42586764 -0.15353741
v 0.21410362 -0.42726517 -0.15184293
v 0.20472017 -0.42610252 -0.15146672
v 0.17546470 -0.42523607 -0.16168275
v 0.17813833 -0.42525185 -0.15952035
v 0.19201967 -0.42505108 -0.15725244
v 0.22313754 -0.43006416 -0.15006632
v 0.18539892 -0.42081355 -0.17120963
v 0.19834103 -0.41957417 -0.17187565
v 0.19122424 -0.41944661 -0.17773490
v 0.20274916 -0.41976591 -0.17549596
v 0.18734322 -0.41969423 -0.17513747
v 0.20826611 -0.42061965 -0.16876284
v 0.20519645 -0.41989093 -0.17328742
v 0.18104527 -0.42039425 -0.17645772
v 0.17136064 -0.42282520 -0.17243010
v 0.16797040 -0.42303975 -0.17690434
v 0.17105576 -0.42289365 -0.18417227
v 0.21189199 -0.42131697 -0.17296137
v 0.20130316 -0.42176946 -0.16463828
v 0.17986475 -0.42048503 -0.18036676
v 0.21383610 -0.42180755 -0.16691930
v 0.21759742 -0.42315346 -0.16482834
v 0.16091128 -0.42575709 -0.17342344
v 0.21807884 -0.42805051 -0.15168823
v 0.16753718 -0.42401572 -0.18374095
v 0.16687704 -0.42372438 -0.18088289
v 0.22329276 -0.42556915 -0.16528111
v 0.15167300 -0.43116501 -0.17405500
v 0.22283030 -0.42608705 -0.16109310
v 0.22047499 -0.42893175 -0.14865588
v 0.17012986 -0.42570709 -0.16213362
v 0.21831892 -0.42323500 -0.16927702
v 0.17921610 -0.42206231 -0.18438393
v 0.22728561 -0.42940551 -0.15832834
v 0.22756597 -0.42886771 -0.16198806
v 0.22611095 -0.42757606 -0.16791963
v 0.19003235 -0.42029788 -0.18123450
v 0.15324875 -0.43094896 -0.18020229
v 0.23152738 -0.43501218 -0.15238154
v 0.14891499 -0.43353701 -0.17677100
v 0.19303000 -0.42329800 -0.15094399
v 0.14532454 -0.43184122 -0.17567325
v 0.22782744 -0.43255230 -0.15044683
v 0.23536523 -0.43817426 -0.15635202
v 0.14343367 -0.42980827 -0.17460987
v 0.14366439 -0.43247624 -0.18150472
v 0.23271514 -0.43401807 -0.16028798
f 83 1 7
f 85 83 7
f 115 83 85
f 115 84 83
f 115 90 84
f 129 90 115
f 129 82 90
f 110 82 129
f 127 110 129
f 139 127 129
f 139 129 144
f 127 94 110
f 128 94 127
f 128 81 94
f 123 81 128
f 143 123 128
f 143 128 133
f 133 128 139
f 143 131 123
f 131 124 123
f 136 124 131
f 136 122 124
f 122 89 124
f 89 78 124
f 124 78 79
f 124 79 150
f 78 77 79
f 77 91 79
f 91 150 79
f 77 149 91
f 149 148 91
f 149 118 148
f 118 149 116
f 149 11 116
f 118 116 117
f 116 11 117
f 117 148 118
f 148 117 132
f 91 148 132
f 91 132 137
f 137 152 91
f 91 152 150
f 150 152 153
f 150 153 119
f 150 119 154
f 151 150 154
f 80 151 154
f 154 112 80
f 80 112 97
f 80 97 98
f 80 98 92
f 80 92 94
f 94 92 95
f 95 96 94
f 82 94 96
f 96 111 82
f 96 106 111
f 106 99 111
f 111 99 6
f 111 6 8
f 111 8 125
f 125 8 9
f 105 6 99
f 105 3 6
f 105 2 3
f 105 5 2
f 105 100 5
f 100 105 92
f 92 105 106
f 104 100 92
f 103 100 104
f 121 103 104
f 119 121 104
f 119 153 121
f 137 121 153
f 152 137 153
f 137 107 121
f 137 126 107
f 137 132 126
f 117 126 132
f 126 117 11
f 126 11 10
f 126 10 107
f 107 10 102
f 107 102 103
f 103 102 101
f 103 101 4
f 112 119 104
f 154 119 112
f 112 104 97
f 97 104 98
f 121 107 103
f 103 4 100
f 98 104 92
f 100 4 5
f 106 105 99
f 92 106 96
f 82 111 125
f 82 125 88
f 88 125 83
f 125 9 83
f 82 88 84
f 95 92 96
f 80 150 151
f 86 150 80
f 86 124 150
f 124 86 80
f 81 124 80
f 149 77 76
f 74 149 76
f 74 75 149
f 52 149 75
f 52 114 149
f 114 11 149
f 74 52 75
f 50 52 74
f 73 50 74
f 109 73 74
f 109 50 73
f 26 50 109
f 51 26 109
f 51 109 45
f 45 109 67
f 25 51 45
f 25 45 42
f 42 45 67
f 66 42 67
f 66 67 130
f 130 67 120
f 141 130 120
f 142 130 141
f 120 113 141
f 113 122 141
f 141 122 136
f 175 141 136
f 176 141 175
f 176 175 172
f 158 176 172
f 156 176 158
f 173 176 156
f 157 173 156
f 156 155 157
f 163 157 155
f 163 170 157
f 165 170 163
f 167 170 165
f 167 182 170
f 182 147 170
f 178 147 182
f 178 182 174
f 180 178 174
f 180 236 178
f 232 236 180
f 232 48 236
f 230 48 232
f 218 230 232
f 218 232 235
f 235 232 179
f 218 235 179
f 186 218 179
f 186 179 21
f 187 186 21
f 187 21 13
f 14 187 13
f 187 14 17
f 187 17 15
f 16 187 15
f 22 187 16
f 22 221 187
f 221 193 187
f 194 193 221
f 197 193 194
f 194 195 197
f 209 197 195
f 209 198 197
f 209 202 198
f 191 202 209
f 191 209 190
f 191 190 192
f 191 192 220
f 220 192 231
f 231 192 22
f 22 192 189
f 189 194 22
f 220 196 191
f 233 196 220
f 233 224 196
f 233 237 224
f 233 229 237
f 229 234 237
f 237 234 34
f 237 34 226
f 237 226 225
f 226 34 33
f 234 36 34
f 34 36 32
f 34 32 37
f 34 37 35
f 237 225 224
f 196 224 219
f 219 224 217
f 224 226 217
f 225 226 224
f 217 226 222
f 226 146 222
f 226 35 146
f 146 208 222
f 208 146 203
f 202 208 203
f 211 208 202
f 212 208 211
f 212 211 191
f 214 212 191
f 212 214 196
f 196 214 191
f 222 208 212
f 203 146 200
f 203 200 198
f 198 200 199
f 200 227 199
f 200 138 227
f 199 227 210
f 227 223 210
f 210 223 207
f 223 47 207
f 227 47 223
f 138 47 227
f 207 47 49
f 47 48 49
f 210 207 206
f 204 210 206
f 201 210 204
f 201 204 205
f 197 201 205
f 204 206 205
f 205 206 213
f 206 49 213
f 49 218 213
f 186 213 218
f 187 213 186
f 218 49 228
f 218 228 48
f 48 230 218
f 216 49 206
f 206 215 216
f 216 215 49
f 205 213 187
f 188 205 187
f 193 205 188
f 207 215 206
f 201 199 210
f 198 199 201
f 200 146 138
f 217 222 212
f 219 217 212
f 212 196 219
f 192 190 189
f 190 195 189
f 191 211 202
f 202 203 198
f 197 198 201
f 209 195 190
f 189 195 194
f 197 205 193
f 193 188 187
f 22 194 221
f 22 16 23
f 15 17 14
f 13 21 18
f 21 179 181
f 21 181 183
f 181 164 183
f 160 183 164
f 160 168 183
f 168 20 183
f 19 183 20
f 18 183 19
f 20 168 161
f 159 168 160
f 156 168 159
f 159 162 156
f 162 159 160
f 164 162 160
f 163 162 164
f 181 163 164
f 18 21 183
f 232 180 177
f 232 177 179
f 179 177 171
f 179 171 169
f 179 169 181
f 165 181 169
f 169 167 165
f 169 171 167
f 177 180 174
f 177 174 167
f 147 135 170
f 170 135 142
f 170 142 145
f 170 145 176
f 174 182 167
f 181 165 163
f 162 163 155
f 162 155 156
f 156 158 168
f 168 158 161
f 161 158 166
f 20 161 166
f 158 172 166
f 166 172 175
f 166 175 184
f 166 184 185
f 184 136 185
f 176 140 141
f 145 140 176
f 175 136 184
f 113 108 122
f 108 109 122
f 109 74 122
f 71 109 108
f 70 109 71
f 68 109 70
f 68 67 109
f 68 70 113
f 70 71 113
f 113 71 108
f 120 68 113
f 67 68 120
f 66 130 142
f 142 134 66
f 57 66 134
f 57 62 66
f 61 62 57
f 62 61 69
f 61 43 69
f 61 40 43
f 63 40 61
f 58 63 61
f 58 65 63
f 56 58 61
f 54 58 56
f 54 59 58
f 58 59 64
f 59 60 64
f 60 72 64
f 64 72 65
f 65 72 40
f 60 38 72
f 93 38 60
f 93 39 38
f 39 27 38
f 38 27 30
f 72 38 30
f 72 30 29
f 40 72 29
f 29 31 40
f 43 40 31
f 43 31 69
f 28 69 31
f 28 41 69
f 69 41 25
f 58 64 65
f 54 60 59
f 46 60 54
f 46 93 60
f 55 46 54
f 57 55 54
f 48 46 55
f 63 65 40
f 56 61 57
f 62 42 66
f 62 44 42
f 44 69 42
f 62 69 44
f 69 25 42
f 50 12 52
f 53 52 12
f 50 24 12
f 74 76 77
f 87 74 77
f 87 77 89
f 74 87 89
f 89 77 78
f 122 74 89
f 123 124 81
f 81 80 94
f 110 94 82
f 90 82 84
f 84 88 83
f 9 1 83

