v -0.174679 0.297189 -0.132228
v -0.165826 0.342371 -0.133087
v -0.194081 0.278946 -0.140821
v -0.171151 0.319591 -0.132564
v -0.192787 0.303494 -0.141469
v -0.158153 0.36444 -0.134037
v -0.1751 0.275072 -0.131701
v -0.189153 0.327512 -0.141885
v -0.133957 0.376432 -0.129562
v -0.193787 0.255223 -0.140568
v -0.14898 0.385403 -0.135911
v -0.174893 0.253385 -0.131701
v -0.141559 0.356313 -0.128668
v -0.192684 0.231581 -0.141005
v -0.14676 0.334924 -0.128146
v -0.173523 0.373269 -0.142305
v -0.112119 0.387722 -0.127193
v -0.12522 0.396461 -0.1306
v -0.137136 0.405835 -0.137847
v -0.12287 0.424511 -0.139588
v -0.15145 0.313457 -0.127941
v -0.173212 0.231699 -0.131635
v -0.183644 0.351291 -0.142205
v -0.163368 0.39516 -0.142334
v -0.0992917 0.403741 -0.127454
v -0.123252 0.349485 -0.125932
v -0.152621 0.252229 -0.127511
v -0.152988 0.292764 -0.127705
v -0.117989 0.368499 -0.126459
v -0.0825026 0.413211 -0.126892
v -0.0658592 0.421543 -0.126446
v -0.111544 0.414368 -0.131235
v -0.19026 0.208903 -0.14178
v -0.127474 0.3294 -0.125802
v -0.153542 0.272484 -0.127576
v -0.15122 0.417013 -0.141938
v -0.106463 0.441603 -0.141203
v -0.171008 0.210817 -0.132317
v -0.151403 0.231571 -0.12753
v -0.213021 0.281165 -0.138181
v -0.0948485 0.380171 -0.125304
v -0.0946199 0.427954 -0.131471
v -0.0858495 0.453785 -0.140602
v -0.167739 0.190216 -0.133504
v -0.129701 0.309566 -0.125676
v -0.149433 0.21119 -0.127762
v -0.20583 0.332074 -0.135087
v -0.0999017 0.363763 -0.12493
v -0.0756575 0.437848 -0.130711
v -0.0474662 0.426316 -0.126167
v -0.0646878 0.462968 -0.140673
v -0.186225 0.186798 -0.142305
v -0.103679 0.344571 -0.124702
v -0.131308 0.289915 -0.125595
v -0.106765 0.325612 -0.124555
v -0.211289 0.306888 -0.136473
v -0.073791 0.397742 -0.124898
v -0.0586631 0.401676 -0.124674
v -0.0768387 0.380089 -0.124455
v -0.16266 0.169745 -0.135787
v -0.0809483 0.362253 -0.124312
v -0.108962 0.28838 -0.124567
v -0.10786 0.306993 -0.124559
v -0.130214 0.250771 -0.125538
v -0.131146 0.270631 -0.125536
v -0.0290038 0.42981 -0.125993
v -0.0409716 0.46803 -0.140212
v -0.181348 0.164825 -0.142341
v -0.1564 0.150622 -0.138966
v -0.10845 0.269136 -0.124519
v -0.127867 0.211391 -0.12561
v -0.12936 0.231104 -0.125576
v -0.0426053 0.405313 -0.124456
v -0.0599936 0.382408 -0.124152
v -0.0552071 0.4455 -0.130488
v -0.00975896 0.432474 -0.126131
v -0.0130656 0.453765 -0.130521
v -0.034664 0.450732 -0.130317
v -0.0834735 0.343452 -0.124142
v -0.10738 0.230784 -0.124446
v -0.107884 0.249924 -0.124477
v -0.125342 0.191633 -0.12597
v -0.146685 0.191126 -0.128349
v -0.0249407 0.407789 -0.124507
v -0.00760152 0.409929 -0.124548
v -0.0415272 0.385158 -0.124083
v -0.149447 0.133078 -0.141381
v -0.142858 0.171345 -0.129267
v -0.0867248 0.287746 -0.12408
v -0.0865139 0.306472 -0.124075
v -0.122081 0.171835 -0.126443
v 0.00976488 0.411659 -0.124622
v -0.0856777 0.325072 -0.124081
v -0.0429646 0.347269 -0.123936
v -0.0605064 0.36316 -0.124025
v -0.0420393 0.365945 -0.123965
v -0.0235723 0.36873 -0.123904
v -0.0230686 0.387842 -0.124012
v 0.00919583 0.454584 -0.131203
v -0.0154924 0.471397 -0.140099
v -0.174599 0.142784 -0.140675
v -0.106233 0.211444 -0.124508
v -0.0862585 0.249688 -0.124045
v -0.0866014 0.268792 -0.124068
v 0.0255507 0.410712 -0.124835
v -0.005728 0.389886 -0.124037
v -0.0645511 0.326389 -0.123963
v -0.0623793 0.344735 -0.123995
v 0.00962921 0.433601 -0.126398
v 0.0295839 0.431905 -0.126902
v -0.103796 0.191779 -0.124752
v -0.0845382 0.211663 -0.124157
v -0.0651063 0.270354 -0.124009
v -0.0978975 0.151975 -0.125888
v -0.11806 0.151844 -0.127563
v -0.138089 0.152099 -0.130979
v 0.0302336 0.392702 -0.124456
v 0.0117937 0.391759 -0.124257
v 0.0139855 0.372636 -0.124188
v -0.0437908 0.328562 -0.123908
v -0.0239168 0.349856 -0.12389
v 0.0487751 0.427762 -0.127529
v 0.0365235 0.469576 -0.141558
v 0.0103221 0.471972 -0.140654
v -0.106727 0.0902269 -0.142554
v -0.12688 0.113707 -0.140615
v -0.0621153 0.19409 -0.124174
v -0.0634767 0.213458 -0.12408
v -0.0439594 0.27227 -0.123991
v -0.0653507 0.289061 -0.123987
v -0.0649436 0.251588 -0.124025
v -0.101296 0.172088 -0.125074
v 0.0411751 0.409436 -0.125322
v 0.0650366 0.394173 -0.125735
v 0.0478146 0.393334 -0.124956
v -0.00381174 0.351718 -0.123997
v 0.0161513 0.353514 -0.124121
v -0.00380704 0.370791 -0.123968
v -0.0441681 0.291043 -0.123948
v -0.0655852 0.307792 -0.123956
v -0.0443677 0.309831 -0.1239
v -0.0239301 0.33079 -0.12392
v 0.0556518 0.444777 -0.132134
v 0.0318949 0.452026 -0.131688
v -0.132706 0.13272 -0.135012
v -0.0805793 0.17274 -0.124587
v -0.0601964 0.174137 -0.124351
v -0.0828517 0.19231 -0.124295
v -0.0396008 0.175841 -0.124226
v -0.0415036 0.195891 -0.124098
v -0.043381 0.253308 -0.124016
v -0.0859929 0.230827 -0.124052
v -0.0642804 0.232537 -0.12405
v 0.0330928 0.374209 -0.124333
v 0.0525411 0.37535 -0.124668
v -0.00371038 0.332778 -0.124014
v 0.0350723 0.355124 -0.124276
v -0.0232502 0.293347 -0.123951
v -0.0236679 0.311995 -0.123935
v 0.0619706 0.460333 -0.141557
v -0.164565 0.123038 -0.138006
v -0.113805 0.13184 -0.130051
v -0.0422523 0.215122 -0.124061
v -0.0428082 0.234215 -0.124039
v -0.0195986 0.178139 -0.124244
v -0.0778943 0.15276 -0.125133
v 0.071701 0.378227 -0.125385
v 0.089842 0.383116 -0.12662
v -0.00292006 0.295425 -0.124043
v -0.003344 0.314076 -0.124029
v 0.0162855 0.33459 -0.124142
v -0.0224826 0.255415 -0.124017
v -0.0230294 0.274539 -0.123998
v 0.0678873 0.420025 -0.128072
v 0.0781013 0.431815 -0.13208
v -0.109692 0.111791 -0.135324
v -0.0945767 0.131691 -0.127647
v -0.0576774 0.154102 -0.12473
v 0.000321713 0.180406 -0.124262
v -0.0212736 0.197995 -0.124094
v -0.00100298 0.200214 -0.124138
v -0.00103437 0.219491 -0.124118
v -0.0748839 0.132394 -0.126415
v 0.0809703 0.401518 -0.12724
v 0.0375805 0.31784 -0.124322
v 0.0552793 0.3567 -0.124545
v 0.0169753 0.315958 -0.124156
v 0.0364314 0.336371 -0.124281
v -0.0219433 0.236317 -0.124036
v -0.129353 0.095518 -0.14103
v -0.0179319 0.158021 -0.124442
v -0.0549617 0.133489 -0.125692
v 0.0760287 0.360026 -0.125121
v 0.0786038 0.341231 -0.125053
v 0.0567007 0.338225 -0.124549
v 0.0180375 0.297427 -0.124143
v -0.0214542 0.217278 -0.124055
v 0.0869844 0.445111 -0.141236
v -0.150004 0.105946 -0.136791
v -0.0884156 0.0904578 -0.140552
v -0.0376622 0.155806 -0.124482
v 0.00182274 0.160245 -0.124468
v 0.0206641 0.163132 -0.124599
v 0.0198557 0.182843 -0.124345
v 0.0193512 0.202429 -0.124193
v 0.0196191 0.221688 -0.124204
v -0.00128441 0.238711 -0.124085
v 0.0963024 0.364986 -0.126313
v 0.0998568 0.345277 -0.126031
v 0.0804759 0.322499 -0.125008
v 0.102578 0.326338 -0.125928
v 0.0581804 0.319772 -0.124554
v 0.0597199 0.30134 -0.12457
v 0.0612595 0.282907 -0.124586
v 0.0820329 0.303888 -0.12499
v 0.0402508 0.280887 -0.124342
v 0.0389859 0.299366 -0.12432
v 0.0192048 0.278886 -0.124201
v -0.0892027 0.395029 -0.125586
v -0.0691956 0.091076 -0.136228
v -0.0353223 0.135454 -0.125271
v 0.0393329 0.166389 -0.124715
v 0.0398299 0.18586 -0.124498
v 0.0224237 0.142877 -0.125092
v 0.0198715 0.240876 -0.124223
v 0.0403981 0.204916 -0.124442
v 0.0614491 0.207452 -0.124715
v 0.0406583 0.224083 -0.124408
v -0.00169497 0.257748 -0.124073
v 0.0196411 0.259918 -0.124229
v 0.0409772 0.262088 -0.124385
v -0.00199498 0.276794 -0.124067
v 0.104254 0.306952 -0.125807
v 0.107736 0.393343 -0.129636
v 0.0834475 0.285325 -0.125021
v 0.0954941 0.413652 -0.130776
v 0.108021 0.42491 -0.139104
v 0.12357 0.403868 -0.13634
v -0.0913476 0.110922 -0.131576
v -0.0719989 0.111421 -0.129215
v -0.0158282 0.137642 -0.125117
v 0.0608916 0.188207 -0.12485
v 0.00356852 0.139985 -0.125056
v 0.0405716 0.146272 -0.12525
v 0.0408971 0.2431 -0.124359
v 0.0616973 0.226533 -0.124671
v -0.0522508 0.112792 -0.127964
v -0.0325698 0.114759 -0.12712
v 0.120823 0.351603 -0.128106
v 0.105721 0.287623 -0.125706
v 0.115814 0.372395 -0.12872
v 0.0622626 0.264308 -0.124603
v 0.0841773 0.266517 -0.125057
v 0.0836725 0.247659 -0.125046
v 0.0831677 0.228801 -0.125035
v 0.120869 0.438973 -0.141796
v 0.0925287 0.13968 -0.128214
v -0.0679334 0.0701217 -0.142388
v -0.0467492 0.0736404 -0.141923
v 0.0445703 0.125463 -0.126753
v 0.0619136 0.245429 -0.124623
v 0.133993 0.381313 -0.133719
v 0.139325 0.415164 -0.142492
v -0.113582 0.0761292 -0.130892
v -0.091373 0.0696788 -0.1374
v 0.059321 0.169079 -0.12504
v 0.0589222 0.149533 -0.125601
v 0.126399 0.310488 -0.127367
v 0.124475 0.331092 -0.127639
v 0.0825826 0.209752 -0.125079
v -0.0495584 0.092328 -0.132745
v 0.0814401 0.190359 -0.125332
v 0.0789577 0.172214 -0.12563
v 0.0776054 0.153484 -0.126191
v 0.0258112 0.122298 -0.126498
v 0.061167 0.1298 -0.127144
v 0.0768479 0.13474 -0.127679
v 0.00635411 0.11956 -0.126518
v -0.013017 0.11705 -0.126699
v 0.127853 0.290222 -0.127212
v 0.14525 0.336117 -0.130951
v 0.140885 0.358453 -0.132043
v 0.106266 0.268161 -0.125775
v 0.128413 0.269756 -0.127173
v 0.128255 0.249636 -0.127132
v 0.105706 0.249007 -0.125847
v 0.105113 0.229902 -0.125912
v -0.0266012 0.0759738 -0.139798
v -0.0295399 0.0943796 -0.131203
v 0.0997886 0.173065 -0.126577
v 0.102365 0.191302 -0.126251
v 0.0103187 0.0992485 -0.129865
v 0.0300036 0.101964 -0.12973
v 0.150889 0.390173 -0.142633
v 0.158399 0.365351 -0.141392
v 0.0962791 0.156196 -0.127339
v 0.147909 0.314039 -0.130165
v 0.127663 0.230089 -0.127168
v 0.104266 0.21072 -0.125979
v -0.0064801 0.0781796 -0.137834
v -0.00951032 0.096634 -0.130166
v 0.0851699 0.11901 -0.13093
v 0.102164 0.129654 -0.131364
v 0.149498 0.29225 -0.129913
v 0.123771 0.19026 -0.127826
v 0.125774 0.210409 -0.127463
v 0.120059 0.169532 -0.128782
v 0.0494561 0.105871 -0.129873
v 0.150458 0.270738 -0.129723
v 0.163871 0.341203 -0.138465
v 0.0139074 0.0806064 -0.137057
v 0.0672224 0.111132 -0.130406
v 0.114465 0.148741 -0.130116
v 0.150366 0.249917 -0.12963
v 0.167699 0.317208 -0.136277
v 0.170136 0.293598 -0.135267
v 0.146817 0.20714 -0.130335
v 0.149337 0.228802 -0.129894
v 0.03447 0.0834323 -0.137072
v 0.143475 0.185286 -0.131335
v 0.171187 0.270717 -0.13508
v 0.182666 0.346058 -0.142214
v 0.186415 0.320121 -0.142931
v 0.138201 0.162253 -0.132843
v 0.12804 0.139174 -0.136053
v 0.17677 0.372141 -0.139167
v 0.171037 0.248472 -0.135336
v 0.188243 0.295297 -0.143031
v 0.189819 0.270966 -0.143122
v 0.169727 0.225918 -0.13578
v 0.0573677 0.408437 -0.125988
v 0.160133 0.178531 -0.139024
v 0.165759 0.202424 -0.136673
v -0.14195 0.115941 -0.142567
v -0.127306 0.454493 -0.122372
v 0.190193 0.247078 -0.143278
v -0.110453 0.465651 -0.122037
v 0.0126243 0.495152 -0.122339
v 0.011688 0.490577 -0.102856
v 0.187994 0.223098 -0.142632
v -0.106526 0.46037 -0.140205
v -0.122985 0.449245 -0.140355
v 0.0320088 0.492404 -0.122585
v 0.0320718 0.487687 -0.102662
f 4 21 28 1
f 28 35 7 1
f 7 3 5 1
f 5 8 4 1
f 6 13 15 2
f 15 21 4 2
f 4 8 23 2
f 23 16 6 2
f 7 12 10 3
f 40 56 5 3
f 56 47 8 5
f 11 9 13 6
f 16 24 11 6
f 35 27 12 7
f 18 17 29 9
f 29 26 13 9
f 11 19 18 9
f 12 22 14 10
f 24 36 19 11
f 27 39 22 12
f 26 34 15 13
f 22 38 33 14
f 34 45 21 15
f 25 219 41 17
f 41 48 29 17
f 18 32 25 17
f 19 20 32 18
f 37 42 32 20
f 45 54 28 21
f 39 46 38 22
f 30 57 219 25
f 32 42 30 25
f 29 48 53 26
f 53 55 34 26
f 35 65 64 27
f 64 72 39 27
f 54 65 35 28
f 31 58 57 30
f 42 49 31 30
f 50 73 58 31
f 49 75 50 31
f 38 44 52 33
f 55 63 45 34
f 43 49 42 37
f 46 83 44 38
f 72 71 46 39
f 219 57 59 41
f 59 61 48 41
f 51 75 49 43
f 83 88 60 44
f 60 68 52 44
f 63 62 54 45
f 71 82 83 46
f 61 79 53 48
f 66 84 73 50
f 75 78 66 50
f 67 78 75 51
f 79 93 55 53
f 62 70 65 54
f 93 90 63 55
f 58 74 59 57
f 73 86 74 58
f 74 95 61 59
f 88 116 69 60
f 69 101 68 60
f 95 108 79 61
f 63 90 89 62
f 89 104 70 62
f 65 70 81 64
f 81 80 72 64
f 76 85 84 66
f 78 77 76 66
f 100 77 78 67
f 116 145 87 69
f 87 161 101 69
f 104 103 81 70
f 72 80 102 71
f 102 111 82 71
f 84 98 86 73
f 86 96 95 74
f 109 92 85 76
f 77 99 109 76
f 100 124 99 77
f 108 107 93 79
f 81 103 152 80
f 152 112 102 80
f 111 132 91 82
f 91 88 83 82
f 85 106 98 84
f 92 118 106 85
f 98 97 96 86
f 145 126 334 87
f 334 199 161 87
f 91 115 116 88
f 90 140 130 89
f 130 113 104 89
f 93 107 140 90
f 132 114 115 91
f 105 117 118 92
f 109 110 105 92
f 96 97 121 94
f 121 142 120 94
f 120 107 108 94
f 108 95 96 94
f 98 106 138 97
f 138 136 121 97
f 144 110 109 99
f 124 123 144 99
f 112 148 111 102
f 104 113 131 103
f 131 153 152 103
f 133 135 117 105
f 110 122 133 105
f 118 119 138 106
f 120 141 140 107
f 144 143 122 110
f 148 146 132 111
f 152 153 128 112
f 128 127 148 112
f 130 139 129 113
f 129 151 131 113
f 132 146 166 114
f 166 183 177 114
f 177 162 115 114
f 162 145 116 115
f 135 155 154 117
f 154 119 118 117
f 154 157 137 119
f 137 136 138 119
f 142 159 141 120
f 136 156 142 121
f 174 331 133 122
f 143 175 174 122
f 160 143 144 123
f 176 239 200 125
f 200 265 264 125
f 190 126 176 125
f 145 162 176 126
f 190 199 334 126
f 128 163 150 127
f 150 149 147 127
f 147 146 148 127
f 153 164 163 128
f 139 158 173 129
f 173 172 151 129
f 140 141 139 130
f 151 164 153 131
f 331 134 135 133
f 184 168 167 134
f 167 155 135 134
f 331 174 184 134
f 137 171 156 136
f 157 188 171 137
f 141 159 158 139
f 156 170 159 142
f 160 198 175 143
f 147 178 166 146
f 149 201 178 147
f 150 180 165 149
f 165 191 201 149
f 163 197 180 150
f 172 189 164 151
f 155 186 157 154
f 167 193 186 155
f 171 187 170 156
f 186 195 188 157
f 159 170 169 158
f 169 232 173 158
f 177 239 176 162
f 164 189 197 163
f 180 181 179 165
f 179 202 191 165
f 178 192 183 166
f 168 208 193 167
f 234 251 208 168
f 184 236 234 168
f 170 187 196 169
f 196 218 232 169
f 188 185 187 171
f 173 232 229 172
f 229 207 189 172
f 175 236 184 174
f 198 237 236 175
f 183 240 239 177
f 201 221 192 178
f 181 205 204 179
f 204 203 202 179
f 197 182 181 180
f 182 206 205 181
f 207 225 206 182
f 197 189 207 182
f 192 247 240 183
f 212 213 217 185
f 217 196 187 185
f 188 195 212 185
f 193 194 195 186
f 202 243 241 191
f 241 221 201 191
f 221 248 247 192
f 208 209 194 193
f 209 211 210 194
f 210 212 195 194
f 217 216 218 196
f 239 240 220 200
f 203 224 243 202
f 204 223 222 203
f 222 244 224 203
f 205 226 223 204
f 206 228 226 205
f 225 245 228 206
f 229 230 225 207
f 251 249 209 208
f 249 269 211 209
f 211 233 215 210
f 215 213 212 210
f 269 268 233 211
f 215 235 214 213
f 214 216 217 213
f 235 253 252 214
f 252 231 216 214
f 233 250 235 215
f 231 230 218 216
f 230 229 232 218
f 240 247 271 220
f 271 259 258 220
f 241 279 248 221
f 223 242 266 222
f 266 267 244 222
f 226 227 242 223
f 244 260 275 224
f 275 278 243 224
f 230 231 245 225
f 228 246 227 226
f 246 255 270 227
f 270 272 242 227
f 245 261 246 228
f 252 261 245 231
f 268 280 250 233
f 238 262 251 234
f 236 237 238 234
f 250 283 253 235
f 256 263 238 237
f 263 294 262 238
f 243 278 279 241
f 272 273 266 242
f 267 276 260 244
f 261 254 255 246
f 248 289 271 247
f 279 301 289 248
f 282 281 269 249
f 251 262 282 249
f 280 284 283 250
f 253 254 261 252
f 283 286 254 253
f 286 287 255 254
f 287 299 270 255
f 271 289 288 259
f 276 312 308 260
f 308 293 275 260
f 294 295 282 262
f 273 274 267 266
f 274 277 276 267
f 297 304 280 268
f 269 281 297 268
f 299 291 272 270
f 291 290 273 272
f 290 296 274 273
f 296 257 277 274
f 293 292 278 275
f 277 302 312 276
f 257 303 302 277
f 292 301 279 278
f 304 309 284 280
f 310 315 297 281
f 282 295 310 281
f 284 285 286 283
f 309 314 285 284
f 314 318 298 285
f 298 287 286 285
f 298 306 299 287
f 289 301 300 288
f 291 305 307 290
f 307 313 296 290
f 299 306 305 291
f 293 319 311 292
f 311 300 301 292
f 326 322 310 295
f 313 303 257 296
f 315 316 304 297
f 318 317 306 298
f 316 321 309 304
f 306 317 320 305
f 320 324 307 305
f 324 325 313 307
f 321 327 314 309
f 322 323 315 310
f 327 330 318 314
f 323 328 316 315
f 328 329 321 316
f 333 332 320 317
f 318 330 333 317
f 329 336 327 321
f 336 340 330 327
f 338 339 344 343
f 335 337 341 342
