v 0.178095 -0.323153 0.123339
v 0.178215 -0.314684 0.124133
v 0.169662 -0.314804 0.123616
v 0.161084 -0.314961 0.122879
v 0.152568 -0.315272 0.121836
v 0.144053 -0.315584 0.120793
v 0.143886 -0.307129 0.119696
v 0.152387 -0.306816 0.120968
v 0.160905 -0.306532 0.122138
v 0.186368 -0.339976 0.12211
v 0.195263 -0.297572 0.123668
v 0.203905 -0.297447 0.124375
v 0.221412 -0.297462 0.124674
v 0.212651 -0.297451 0.124552
v 0.238916 -0.289126 0.123034
v 0.230127 -0.289146 0.12284
v 0.24771 -0.289153 0.122698
v 0.265343 -0.289406 0.120494
v 0.256537 -0.289258 0.121898
v 0.273914 -0.28958 0.118331
v 0.297995 -0.298498 0.108182
v 0.304449 -0.298621 0.102376
v 0.310249 -0.298902 0.0960039
v 0.315956 -0.307277 0.0901281
v 0.320537 -0.322568 0.0815867
v 0.320476 -0.33063 0.0802112
v 0.319823 -0.338688 0.0780159
v 0.315483 -0.362444 0.069847
v 0.302762 -0.400788 0.054423
v 0.298044 -0.410104 0.0596535
v 0.293821 -0.411032 0.0664888
v 0.288822 -0.411686 0.0726836
v 0.283226 -0.412084 0.0783601
v 0.276842 -0.412409 0.0831036
v 0.255065 -0.413122 0.0932315
v 0.24737 -0.413275 0.0960063
v 0.247372 -0.4048 0.0958595
v 0.255176 -0.404725 0.093613
v 0.262751 -0.404526 0.0909284
v 0.270069 -0.40424 0.0876893
v 0.277114 -0.4039 0.0840262
v 0.289349 -0.403268 0.0741428
v 0.296676 -0.394845 0.0711415
v 0.299105 -0.387328 0.074473
v 0.309199 -0.371277 0.0743134
v 0.304043 -0.386396 0.0678156
v 0.306712 -0.378808 0.0710602
v 0.301369 -0.393982 0.0645686
v 0.311155 -0.363617 0.0773396
v 0.312988 -0.355895 0.0803871
v 0.314381 -0.34796 0.0830954
v 0.315628 -0.339965 0.0856853
v 0.316297 -0.331758 0.0877012
v 0.316577 -0.323591 0.0892105
v 0.316575 -0.315457 0.0903744
v 0.311383 -0.315636 0.0970917
v 0.305092 -0.307155 0.103521
v 0.298261 -0.31576 0.108767
v 0.297824 -0.324405 0.107606
v 0.304898 -0.324364 0.102317
v 0.310879 -0.332498 0.0946554
v 0.309934 -0.340659 0.0924296
v 0.308851 -0.34876 0.0899943
v 0.307535 -0.356739 0.0873356
v 0.30573 -0.36449 0.0841982
v 0.29935 -0.364939 0.0902253
v 0.297567 -0.372667 0.0870145
v 0.295369 -0.380236 0.083631
v 0.293218 -0.387816 0.0802805
v 0.286896 -0.387995 0.0852849
v 0.288869 -0.380382 0.088702
v 0.290666 -0.372724 0.0921272
v 0.292378 -0.365068 0.095498
v 0.293762 -0.357219 0.0983969
v 0.294989 -0.349215 0.100984
v 0.28599 -0.357085 0.102604
v 0.296142 -0.34113 0.103591
v 0.304444 -0.332815 0.100819
v 0.303499 -0.341052 0.0985712
v 0.297003 -0.332811 0.105629
v 0.289081 -0.332615 0.109673
v 0.288262 -0.340963 0.107726
v 0.287214 -0.349119 0.105333
v 0.277931 -0.357007 0.105895
v 0.276715 -0.365054 0.102965
v 0.268601 -0.365 0.105808
v 0.283204 -0.372835 0.0963854
v 0.279834 -0.388077 0.0897041
v 0.281523 -0.38046 0.0930459
v 0.272531 -0.388409 0.0931743
v 0.271073 -0.396126 0.0899245
v 0.26353 -0.396347 0.0928708
v 0.264814 -0.388551 0.0960188
v 0.266188 -0.380809 0.0993927
v 0.257002 -0.388605 0.0984237
v 0.247945 -0.396512 0.0974705
v 0.24 -0.396518 0.0994233
v 0.232744 -0.388557 0.103674
v 0.231967 -0.396727 0.101199
v 0.225487 -0.380633 0.10787
v 0.236254 -0.356513 0.115432
v 0.227181 -0.364575 0.113684
v 0.245501 -0.348473 0.116757
v 0.254712 -0.340282 0.117642
v 0.263948 -0.332007 0.118009
v 0.255343 -0.331923 0.119655
v 0.264516 -0.323545 0.119649
v 0.255863 -0.323438 0.121141
v 0.264969 -0.31502 0.120991
v 0.265299 -0.306448 0.121762
v 0.265461 -0.297847 0.121827
v 0.256475 -0.306323 0.123096
v 0.24768 -0.306223 0.124125
v 0.247788 -0.297627 0.123992
v 0.238962 -0.297538 0.124568
v 0.238892 -0.30613 0.124832
v 0.230139 -0.306057 0.125189
v 0.221419 -0.306016 0.12529
v 0.2126 -0.31459 0.125173
v 0.20395 -0.314582 0.125168
v 0.195192 -0.323053 0.12424
v 0.203738 -0.323114 0.124674
v 0.195053 -0.331545 0.123392
v 0.203543 -0.331585 0.123538
v 0.212085 -0.331607 0.123368
v 0.212386 -0.323139 0.124587
v 0.229679 -0.32321 0.123812
v 0.220737 -0.33165 0.122952
v 0.221017 -0.323155 0.124276
v 0.238366 -0.323256 0.123275
v 0.247107 -0.323329 0.122409
v 0.247454 -0.314812 0.123504
v 0.236943 -0.348345 0.117964
v 0.237488 -0.340045 0.119981
v 0.228409 -0.348359 0.118731
v 0.219911 -0.34836 0.119388
v 0.220308 -0.340037 0.121301
v 0.211384 -0.348341 0.11996
v 0.238 -0.331719 0.121892
v 0.238683 -0.314727 0.124332
v 0.228918 -0.340064 0.120757
v 0.229379 -0.331692 0.122448
v 0.211748 -0.339996 0.121777
v 0.203262 -0.339995 0.122012
v 0.202918 -0.348368 0.120298
v 0.202579 -0.356562 0.118067
v 0.194474 -0.348269 0.120088
v 0.21094 -0.356544 0.117633
v 0.194804 -0.339999 0.122171
v 0.221251 -0.314609 0.125067
v 0.229977 -0.31467 0.124776
v 0.273652 -0.315209 0.118902
v 0.274026 -0.306608 0.119758
v 0.274188 -0.298002 0.119758
v 0.282214 -0.31543 0.11635
v 0.28252 -0.306785 0.116978
v 0.290462 -0.315614 0.112942
v 0.290736 -0.306944 0.11353
v 0.281728 -0.323966 0.115159
v 0.28992 -0.3242 0.111664
v 0.273187 -0.323747 0.117666
v 0.272456 -0.332168 0.115881
v 0.270795 -0.348788 0.11143
v 0.269723 -0.356898 0.108662
v 0.261401 -0.356837 0.110789
v 0.262412 -0.348692 0.11352
v 0.242867 -0.372575 0.108239
v 0.260386 -0.364877 0.10781
v 0.251163 -0.37273 0.106539
v 0.25214 -0.364742 0.109644
v 0.253117 -0.356753 0.112749
v 0.241941 -0.380583 0.105268
v 0.259384 -0.372862 0.104758
v 0.250163 -0.380715 0.103483
v 0.258197 -0.380717 0.101588
v 0.271703 -0.340538 0.113843
v 0.263229 -0.34041 0.115877
v 0.256229 -0.314895 0.122441
v 0.253988 -0.348581 0.115326
v 0.246141 -0.340148 0.118905
v 0.246702 -0.331805 0.121045
v 0.243798 -0.364585 0.111212
v 0.244738 -0.35661 0.114199
v 0.227848 -0.356525 0.116379
v 0.219347 -0.356521 0.11703
v 0.218115 -0.37258 0.111481
v 0.218762 -0.364598 0.114411
v 0.21042 -0.364616 0.114915
v 0.233667 -0.380559 0.10664
v 0.234603 -0.372582 0.109638
v 0.235539 -0.364605 0.112637
v 0.226411 -0.372638 0.110838
v 0.248976 -0.388569 0.100312
v 0.240935 -0.388559 0.102182
v 0.267404 -0.372924 0.102635
v 0.255794 -0.396475 0.0953879
v 0.273995 -0.38072 0.0964989
v 0.275362 -0.372941 0.0997671
v 0.27909 -0.348913 0.108839
v 0.280086 -0.340656 0.111192
v 0.281077 -0.332393 0.11352
v 0.284625 -0.36496 0.0996183
v 0.301029 -0.357128 0.0933179
v 0.302446 -0.349202 0.0961835
v 0.305238 -0.315742 0.103396
v 0.311282 -0.324118 0.0962094
v 0.303702 -0.372176 0.0810249
v 0.301519 -0.3798 0.0777902
v 0.294498 -0.402635 0.068154
v 0.291094 -0.395399 0.0768964
v 0.283279 -0.403574 0.0791365
v 0.284815 -0.395593 0.0819103
v 0.278311 -0.395789 0.0864369
v 0.23969 -0.40488 0.0986661
v 0.26274 -0.41295 0.0906462
v 0.27008 -0.412713 0.0873455
v 0.299094 -0.401841 0.0616405
v 0.305088 -0.393081 0.0572105
v 0.307931 -0.385493 0.0603874
v 0.310637 -0.377869 0.0635773
v 0.313304 -0.370236 0.066771
v 0.317426 -0.354668 0.0728802
v 0.318864 -0.346748 0.0755786
v 0.310997 -0.307201 0.0971688
v 0.298398 -0.307061 0.109242
v 0.290702 -0.298308 0.113118
v 0.282626 -0.298139 0.116827
v 0.282143 -0.289772 0.115115
v 0.256618 -0.297732 0.123156
v 0.230175 -0.297478 0.12477
v 0.212717 -0.306005 0.125155
v 0.203983 -0.305991 0.125038
v 0.195386 -0.306035 0.124669
v 0.186626 -0.297731 0.122814
v 0.177994 -0.297895 0.121942
v 0.186753 -0.314607 0.124544
v 0.186733 -0.30611 0.124143
v 0.178121 -0.306238 0.123542
v 0.169508 -0.306366 0.12294
v 0.177976 -0.331622 0.122546
v 0.169583 -0.323269 0.122982
v 0.161147 -0.323446 0.12268
v 0.195321 -0.314578 0.125022
v 0.186496 -0.331519 0.122921
v 0.186625 -0.323063 0.123733
f 241 3 2 1
f 2 236 245 1
f 245 244 240 1
f 3 239 238 2
f 238 237 236 2
f 4 9 239 3
f 241 242 4 3
f 5 8 9 4
f 6 7 8 5
f 12 232 233 11
f 233 237 234 11
f 14 231 232 12
f 230 117 118 13
f 118 231 14 13
f 17 114 115 15
f 115 230 16 15
f 19 229 114 17
f 20 154 111 18
f 111 229 19 18
f 228 227 154 20
f 22 57 225 21
f 225 158 226 21
f 23 224 57 22
f 55 56 224 24
f 26 53 54 25
f 27 52 53 26
f 223 51 52 27
f 49 50 222 28
f 221 45 49 28
f 217 48 218 29
f 31 209 217 30
f 32 42 209 31
f 33 211 42 32
f 34 41 211 33
f 216 40 41 34
f 36 37 38 35
f 38 39 215 35
f 214 97 96 37
f 96 196 38 37
f 196 92 39 38
f 92 91 40 39
f 40 216 215 39
f 91 213 41 40
f 213 212 211 41
f 211 212 210 42
f 210 43 209 42
f 210 69 44 43
f 44 46 48 43
f 48 217 209 43
f 69 68 208 44
f 208 47 46 44
f 207 65 49 45
f 221 220 47 45
f 47 208 207 45
f 47 220 219 46
f 219 218 48 46
f 65 64 50 49
f 64 63 51 50
f 51 223 222 50
f 63 62 52 51
f 62 61 53 52
f 61 206 54 53
f 206 56 55 54
f 205 57 224 56
f 206 60 205 56
f 205 58 225 57
f 157 158 225 58
f 205 60 59 58
f 59 160 157 58
f 60 78 80 59
f 80 81 160 59
f 206 61 78 60
f 62 79 78 61
f 63 204 79 62
f 64 203 204 63
f 65 66 203 64
f 207 67 66 65
f 73 74 203 66
f 67 72 73 66
f 207 208 68 67
f 68 71 72 67
f 69 70 71 68
f 210 212 70 69
f 88 89 71 70
f 212 213 88 70
f 89 87 72 71
f 87 202 73 72
f 202 76 74 73
f 76 83 75 74
f 75 204 203 74
f 83 82 77 75
f 77 79 204 75
f 84 199 83 76
f 202 85 84 76
f 82 81 80 77
f 80 78 79 77
f 82 200 201 81
f 83 199 200 82
f 164 163 199 84
f 85 86 164 84
f 202 87 198 85
f 198 195 86 85
f 168 165 164 86
f 195 173 168 86
f 89 197 198 87
f 90 197 89 88
f 213 91 90 88
f 93 94 197 90
f 91 92 93 90
f 196 95 93 92
f 95 175 94 93
f 175 173 195 94
f 195 198 197 94
f 193 174 175 95
f 196 96 193 95
f 97 194 193 96
f 99 98 194 97
f 189 172 194 98
f 192 190 189 100
f 184 135 133 101
f 133 103 183 101
f 183 182 191 101
f 191 102 184 101
f 187 185 184 102
f 191 190 192 102
f 192 186 187 102
f 133 134 180 103
f 180 104 179 103
f 179 171 183 103
f 180 181 106 104
f 106 105 177 104
f 177 166 179 104
f 106 108 107 105
f 107 161 162 105
f 162 176 177 105
f 181 131 108 106
f 108 178 109 107
f 109 152 161 107
f 131 132 178 108
f 178 112 110 109
f 110 153 152 109
f 112 229 111 110
f 111 154 153 110
f 113 114 229 112
f 178 132 113 112
f 116 115 114 113
f 132 140 116 113
f 116 117 230 115
f 140 151 117 116
f 151 150 118 117
f 150 119 231 118
f 120 232 231 119
f 150 129 126 119
f 126 122 120 119
f 243 233 232 120
f 122 121 243 120
f 245 236 243 121
f 122 124 123 121
f 123 244 245 121
f 126 125 124 122
f 124 144 149 123
f 149 10 244 123
f 125 143 144 124
f 126 129 128 125
f 128 137 143 125
f 129 150 151 127
f 151 140 130 127
f 130 139 142 127
f 142 128 129 127
f 142 141 137 128
f 140 132 131 130
f 131 181 139 130
f 135 141 134 133
f 141 142 139 134
f 139 181 180 134
f 136 137 141 135
f 184 185 136 135
f 138 143 137 136
f 185 148 138 136
f 145 144 143 138
f 148 146 145 138
f 145 147 149 144
f 185 187 188 148
f 153 156 155 152
f 155 159 161 152
f 154 227 156 153
f 156 158 157 155
f 157 160 159 155
f 227 226 158 156
f 166 177 176 163
f 164 165 166 163
f 171 179 166 165
f 168 170 171 165
f 190 191 182 167
f 182 170 169 167
f 169 174 172 167
f 172 189 190 167
f 173 169 170 168
f 173 175 174 169
f 182 183 171 170
f 174 193 194 172
f 243 236 237 233
f 237 238 235 234
