v -0.150039 -0.261325 0.11981
v -0.149582 -0.256824 0.114757
v -0.149124 -0.252324 0.109703
v -0.143475 -0.262385 0.119449
v -0.150433 -0.265684 0.124982
v -0.143798 -0.266584 0.124753
v -0.137447 -0.271595 0.129902
v -0.137163 -0.267484 0.124524
v -0.136896 -0.263367 0.119141
v -0.130815 -0.272494 0.129672
v -0.130566 -0.268372 0.124283
v -0.130317 -0.264251 0.118893
v -0.124236 -0.273377 0.129424
v -0.123986 -0.269256 0.124035
v -0.117406 -0.270139 0.123787
v -0.110827 -0.271023 0.123539
v -0.117626 -0.274173 0.129236
v -0.117856 -0.278734 0.134036
v -0.111234 -0.27982 0.13348
v -0.124478 -0.277649 0.134591
v -0.0914218 -0.283062 0.131458
v -0.0848547 -0.284178 0.1307
v -0.0782879 -0.285294 0.129945
v -0.0924233 -0.289606 0.130952
v -0.0858948 -0.290703 0.130004
v -0.0989516 -0.288542 0.131959
v -0.0793647 -0.291811 0.129007
v -0.0728328 -0.292931 0.127959
v -0.066301 -0.294051 0.12691
v -0.0652057 -0.287529 0.1281
v -0.0586849 -0.288646 0.127041
v -0.0521641 -0.289763 0.125981
v -0.0456433 -0.29088 0.124921
v -0.07173 -0.286412 0.129129
v -0.051763 -0.284534 0.122789
v -0.045201 -0.285522 0.12199
v -0.0386389 -0.286511 0.121191
v -0.0320769 -0.2875 0.120391
v -0.0255149 -0.288488 0.119592
v -0.0647879 -0.27821 0.119263
v -0.058231 -0.279228 0.118443
v -0.051674 -0.280247 0.117623
v -0.045117 -0.281265 0.116803
v -0.0385601 -0.282284 0.115983
v -0.0320031 -0.283302 0.115163
v -0.0254462 -0.284321 0.114344
v -0.0189566 -0.289499 0.118777
v -0.0188152 -0.285013 0.113966
v -0.0123601 -0.290347 0.11819
v -0.0121453 -0.285558 0.113794
v -0.00576822 -0.291148 0.117476
v 0.000843255 -0.291723 0.117134
v 0.00703153 -0.290505 0.118932
v 0.0117013 -0.29083 0.12758
v 0.0138108 -0.2861 0.114785
v -0.135102 -0.24806 0.106152
v 0.0252268 -0.280324 0.118639
v -0.136361 -0.258557 0.11444
v 0.0247081 -0.283011 0.124787
v 0.0308529 -0.277235 0.120563
v 0.0303495 -0.279938 0.1267
v 0.00568373 -0.29283 0.125394
v 6.62327e-06 -0.295399 0.122309
v 0.0130124 -0.288547 0.120877
v -0.00556658 -0.286534 0.113075
v 0.0010549 -0.287203 0.112834
v 0.007644 -0.287917 0.112513
v 0.0144816 -0.281694 0.112053
v -0.018309 -0.279063 0.112808
v -0.0117526 -0.279589 0.11265
v -0.00519622 -0.280116 0.112492
v 0.00136014 -0.280642 0.112334
v 0.00791651 -0.281168 0.112176
v -0.0248884 -0.278351 0.112529
v -0.0314843 -0.277607 0.112235
v -0.0380929 -0.276846 0.112647
v -0.05041 -0.268742 0.112526
v -0.057019 -0.26802 0.112443
v -0.0446535 -0.276001 0.113172
v -0.0578009 -0.274183 0.114283
v -0.0512373 -0.275138 0.113565
v -0.0709326 -0.272252 0.1156
v -0.0973659 -0.268584 0.117633
v -0.0907419 -0.269474 0.117179
v -0.0841179 -0.270364 0.116726
v -0.077494 -0.271253 0.116273
v -0.0976193 -0.272958 0.122584
v -0.111019 -0.275143 0.128743
v -0.0910143 -0.273943 0.122073
v -0.104404 -0.276198 0.128203
v -0.0977869 -0.277266 0.127659
v -0.0911702 -0.278334 0.127115
v -0.0845772 -0.279376 0.126477
v -0.0779994 -0.280401 0.12578
v -0.103319 -0.262495 0.113779
v -0.0967157 -0.263391 0.113358
v -0.116577 -0.261072 0.113866
v -0.109943 -0.26175 0.113891
v -0.10925 -0.256254 0.11013
v -0.102612 -0.256899 0.110204
v -0.0959736 -0.257543 0.110278
v -0.129162 -0.254313 0.10992
v -0.122525 -0.25496 0.10999
v -0.115887 -0.255607 0.11006
v -0.13582 -0.253688 0.109801
v -0.128442 -0.248573 0.106514
v -0.121781 -0.249085 0.106876
v -0.115132 -0.249673 0.107028
v -0.101849 -0.250874 0.107353
v -0.0951668 -0.251402 0.107829
v -0.0884807 -0.251941 0.108387
v -0.082717 -0.258947 0.110185
v -0.0760659 -0.259579 0.110606
v -0.0694181 -0.260217 0.111005
v -0.108492 -0.250282 0.107166
v -0.089338 -0.258203 0.110319
v -0.123182 -0.260272 0.114006
v -0.103974 -0.267728 0.11796
v -0.129769 -0.259401 0.114241
v -0.0901014 -0.264188 0.113121
v -0.0834817 -0.264937 0.112973
v -0.0768619 -0.265687 0.112824
v -0.0643788 -0.273262 0.114903
v -0.0702531 -0.266525 0.112425
v -0.0636436 -0.26733 0.112222
v -0.0778796 -0.276069 0.12075
v -0.0713399 -0.27717 0.120035
v -0.0583177 -0.283509 0.123561
v -0.0844195 -0.27497 0.121467
v -0.0714227 -0.281427 0.125078
v -0.0648666 -0.282451 0.124307
v -0.0467101 -0.297366 0.1236
v -0.0532411 -0.296282 0.124802
v -0.0391314 -0.291968 0.123786
v -0.0325822 -0.293039 0.122812
v -0.0401774 -0.298385 0.122374
v -0.0335673 -0.299386 0.12123
v -0.0259986 -0.29407 0.121742
v -0.019386 -0.295117 0.121143
v -0.05977 -0.295169 0.125861
v -0.118814 -0.285326 0.134017
v -0.112187 -0.286402 0.133358
v -0.105561 -0.287477 0.132699
v -0.104621 -0.280891 0.132907
v -0.0980084 -0.281962 0.132335
v -0.10422 -0.271959 0.123106
v -0.123735 -0.265128 0.118651
v -0.117148 -0.265994 0.118421
v -0.110561 -0.26686 0.118191
v -0.144096 -0.270732 0.130081
v -0.13776 -0.275786 0.135171
v -0.131107 -0.276637 0.13501
v -0.143008 -0.257841 0.11444
v -0.142482 -0.253057 0.109686
f 4 153 2 1
f 5 6 4 1
f 153 154 3 2
f 9 58 153 4
f 6 8 9 4
f 150 7 8 6
f 10 11 8 7
f 151 152 10 7
f 11 12 9 8
f 12 119 58 9
f 13 14 11 10
f 152 20 13 10
f 14 147 12 11
f 147 117 119 12
f 17 15 14 13
f 20 18 17 13
f 15 148 147 14
f 16 149 148 15
f 17 88 16 15
f 146 118 149 16
f 88 90 146 16
f 18 19 88 17
f 141 142 19 18
f 144 90 88 19
f 142 143 144 19
f 22 93 92 21
f 92 91 145 21
f 145 26 24 21
f 24 25 22 21
f 23 94 93 22
f 25 27 23 22
f 34 130 94 23
f 27 28 34 23
f 145 144 143 26
f 29 30 34 28
f 140 31 30 29
f 31 128 131 30
f 131 130 34 30
f 32 35 128 31
f 140 133 32 31
f 33 36 35 32
f 133 132 33 32
f 134 37 36 33
f 132 136 134 33
f 36 43 42 35
f 42 41 128 35
f 37 44 43 36
f 38 45 44 37
f 134 135 38 37
f 39 46 45 38
f 135 138 39 38
f 47 48 46 39
f 138 139 47 39
f 41 80 123 40
f 123 82 127 40
f 127 130 131 40
f 131 128 41 40
f 42 81 80 41
f 43 79 81 42
f 44 76 79 43
f 45 75 76 44
f 46 74 75 45
f 48 69 74 46
f 49 50 48 47
f 50 70 69 48
f 51 65 50 49
f 65 71 70 50
f 52 66 65 51
f 53 67 66 52
f 63 62 53 52
f 64 55 67 53
f 62 54 64 53
f 68 73 67 55
f 59 61 60 57
f 66 72 71 65
f 67 73 72 66
f 78 80 81 77
f 125 123 80 78
f 123 125 124 82
f 124 122 86 82
f 86 126 127 82
f 84 120 96 83
f 96 95 118 83
f 118 146 87 83
f 87 89 84 83
f 85 121 120 84
f 89 129 85 84
f 86 122 121 85
f 129 126 86 85
f 146 90 91 87
f 91 92 89 87
f 92 93 129 89
f 144 145 91 90
f 94 126 129 93
f 130 127 126 94
f 96 101 100 95
f 100 99 98 95
f 98 149 118 95
f 120 116 101 96
f 98 99 104 97
f 104 103 117 97
f 117 147 148 97
f 148 149 98 97
f 100 109 115 99
f 115 108 104 99
f 101 110 109 100
f 116 111 110 101
f 103 107 106 102
f 106 56 105 102
f 105 58 119 102
f 119 117 103 102
f 104 108 107 103
f 154 153 58 105
f 116 120 121 112
f 121 122 113 112
f 122 124 114 113
f 136 137 135 134
