v 0.1432965625 -0.48461128125 -0.144961875
v 0.15414478125 -0.4823053125 -0.1426361875
v 0.1669350625 -0.481908375 -0.13942634375
v 0.19022934375 -0.483248125 -0.132119875
v 0.1798545625 -0.4941716875 -0.13518853125
v 0.1672686875 -0.49451278125 -0.13911784375
v 0.15449865625 -0.49491065625 -0.1425045
v 0.14355796875 -0.49325375 -0.14498378125
v 0.19032953125 -0.49192421875 -0.1316208125
v 0.17960584375 -0.4815558125 -0.13570825
v 0.1482540625 -0.494893640625 -0.143960828125
v 0.15432171875 -0.488607984375 -0.14257034375
v 0.147897734375 -0.482698859375 -0.14399540625
v 0.141809453125 -0.488979703125 -0.145315765625
v 0.160904734375 -0.49471034375 -0.140878234375
v 0.167101875 -0.488210578125 -0.13927209375
v 0.160557984375 -0.48210296875 -0.141099453125
v 0.173585125 -0.494336046875 -0.1372214375
v 0.179730203125 -0.48786375 -0.135448390625
v 0.173284890625 -0.48172721875 -0.137627859375
v 0.185885609375 -0.493816390625 -0.133109734375
v 0.1918386875 -0.487545234375 -0.13132846875
v 0.18570271875 -0.48159159375 -0.1337308125
v 0.147924228516 -0.488800673828 -0.144010267578
v 0.160731359375 -0.48840665625 -0.14098884375
v 0.173435007812 -0.488031632813 -0.137424648438
v 0.18594034375 -0.487700154297 -0.133369472656
v 0.1456134375 -0.49437675 -0.1445453125
v 0.148063867187 -0.491847894531 -0.14399090625
v 0.144842851562 -0.488891226562 -0.144672757812
v 0.1422856875 -0.49132425 -0.1452385625
v 0.1544101875 -0.491759320312 -0.142537421875
v 0.1511015625 -0.48870596875 -0.1433088125
v 0.1512818125 -0.4950048125 -0.143268
v 0.1509213125 -0.482407125 -0.143349625
v 0.147885703125 -0.485750503906 -0.144008195312
v 0.15423325 -0.485456648437 -0.142603265625
v 0.142142125 -0.4866115625 -0.1452215
v 0.145285625 -0.4833703125 -0.144543
v 0.1577065625 -0.4948115625 -0.141708
v 0.160818046875 -0.4915585 -0.140933539063
v 0.1575315625 -0.48850759375 -0.1417968125
v 0.16718528125 -0.491361679687 -0.13919496875
v 0.163921375 -0.48830703125 -0.1401470625
v 0.164092375 -0.4946098125 -0.1400149375
v 0.163750375 -0.48200425 -0.1402791875
v 0.160644671875 -0.4852548125 -0.141044148437
v 0.16701846875 -0.485059476563 -0.13934921875
v 0.1573565625 -0.482203625 -0.141885625
v 0.170432875 -0.4944220625 -0.1381866875
v 0.173510066406 -0.491183839844 -0.137323042969
v 0.170273125 -0.48811915625 -0.1383645625
v 0.179792382812 -0.49101771875 -0.135318460937
v 0.17658740625 -0.487946875 -0.13645253125
v 0.176725625 -0.494253125 -0.1362220625
v 0.1764491875 -0.481640625 -0.136683
v 0.173359949219 -0.484879425781 -0.137526253906
v 0.179668023437 -0.48470978125 -0.135578320313
v 0.170113375 -0.48181625 -0.1385424375
v 0.18286328125 -0.487781125 -0.13441240625
v 0.185845894531 -0.484645234375 -0.133541675781
v 0.1827544375 -0.481472125 -0.134704
v 0.182972125 -0.494090125 -0.1341208125
v 0.185937339844 -0.490757632813 -0.133231136719
v 0.1914745625 -0.4899216875 -0.131324625
v 0.18891509375 -0.487621992188 -0.132344484375
v 0.1884023125 -0.4931584375 -0.132246125
v 0.1882584375 -0.48211625 -0.13284925
v 0.1914231875 -0.48518925 -0.13160325
v 0.14512703125 -0.4916369375 -0.14463046875
v 0.1511916875 -0.491855390625 -0.14328840625
v 0.1510114375 -0.485556546875 -0.14332921875
v 0.144963125 -0.48613371875 -0.1446293125
v 0.1576190625 -0.491659578125 -0.14175240625
v 0.164006875 -0.491458421875 -0.140081
v 0.163835875 -0.485155640625 -0.140213125
v 0.1574440625 -0.485355609375 -0.14184121875
v 0.170353 -0.491270609375 -0.138275625
v 0.176656515625 -0.4911 -0.136337296875
v 0.176518296875 -0.48479375 -0.136567765625
v 0.17019325 -0.484967703125 -0.1384535
v 0.182808859375 -0.484626625 -0.134558203125
v 0.182917703125 -0.490935625 -0.134266609375
v 0.18875615625 -0.49038765625 -0.1322614375
v 0.18868421875 -0.4848665625 -0.132563
f 8 28 70 31
f 11 29 70 28
f 24 30 70 29
f 14 31 70 30
f 7 32 71 34
f 12 33 71 32
f 24 29 71 33
f 11 34 71 29
f 2 35 72 37
f 13 36 72 35
f 24 33 72 36
f 12 37 72 33
f 1 38 73 39
f 14 30 73 38
f 24 36 73 30
f 13 39 73 36
f 7 40 74 32
f 15 41 74 40
f 25 42 74 41
f 12 32 74 42
f 6 43 75 45
f 16 44 75 43
f 25 41 75 44
f 15 45 75 41
f 3 46 76 48
f 17 47 76 46
f 25 44 76 47
f 16 48 76 44
f 2 37 77 49
f 12 42 77 37
f 25 47 77 42
f 17 49 77 47
f 6 50 78 43
f 18 51 78 50
f 26 52 78 51
f 16 43 78 52
f 5 53 79 55
f 19 54 79 53
f 26 51 79 54
f 18 55 79 51
f 10 56 80 58
f 20 57 80 56
f 26 54 80 57
f 19 58 80 54
f 3 48 81 59
f 16 52 81 48
f 26 57 81 52
f 20 59 81 57
f 10 58 82 62
f 19 60 82 58
f 27 61 82 60
f 23 62 82 61
f 5 63 83 53
f 21 64 83 63
f 27 60 83 64
f 19 53 83 60
f 9 65 84 67
f 22 66 84 65
f 27 64 84 66
f 21 67 84 64
f 4 68 85 69
f 23 61 85 68
f 27 66 85 61
f 22 69 85 66
