# https://github.com/mikedh/trimesh
v -0.25553900 -0.12503250 -0.07054750
v -0.24905699 -0.12544300 -0.07820800
v -0.23915388 -0.12442562 -0.08899575
v -0.23232800 -0.12911101 -0.09599500
v -0.22418175 -0.18384875 -0.11072625
v -0.21450288 -0.20653575 -0.12325650
v -0.21547200 -0.21825001 -0.12659900
v -0.22896200 -0.25315601 -0.13294899
v -0.24016399 -0.28068051 -0.13626499
v -0.24824475 -0.30198600 -0.13691075
v -0.25283700 -0.32623300 -0.13858099
v -0.32601395 -0.30654531 -0.02841933
v -0.32733348 -0.31905717 -0.03612711
v -0.31032936 -0.29847058 -0.05594245
v -0.32020022 -0.29693909 -0.03214018
v -0.31234360 -0.28185485 -0.03339706
v -0.29679551 -0.27193939 -0.05818710
v -0.30002501 -0.26170421 -0.03623402
v -0.29855071 -0.27312893 -0.05650628
v -0.30139899 -0.26393399 -0.03586200
v -0.31152281 -0.27420083 -0.02495029
v -0.31459163 -0.27228922 -0.01211263
v -0.32067570 -0.27898510 -0.00695347
v -0.28829962 -0.25702294 -0.05899403
v -0.28100635 -0.26457974 -0.08151942
v -0.26262542 -0.23605698 -0.08507668
v -0.28526473 -0.27968187 -0.08632289
v -0.29534531 -0.28244182 -0.07140712
v -0.27373796 -0.27114724 -0.09718474
v -0.26812083 -0.23397561 -0.07248800
v -0.33833736 -0.31269197 -0.00594238
v -0.33229796 -0.33694909 -0.03682054
v -0.30775751 -0.32735874 -0.07801612
v -0.31872487 -0.32740428 -0.05865658
v -0.31154764 -0.31237174 -0.06388324
v -0.30131588 -0.30424031 -0.07692805
v -0.33470061 -0.32866679 -0.02653797
v -0.34742866 -0.34479592 -0.00694651
v -0.28163423 -0.28518898 -0.09556285
v -0.28696781 -0.30567100 -0.09905432
v -0.30255379 -0.31280279 -0.07989688
v -0.27144623 -0.23052023 -0.05989149
v -0.33209797 -0.30300292 -0.01046139
v -0.34394305 -0.33458781 -0.00970715
v -0.34240813 -0.31156571 0.00283785
v -0.25563835 -0.22490685 -0.08671889
v -0.33860441 -0.29585437 0.01107888
v -0.24620627 -0.21871262 -0.09643387
v -0.26529252 -0.21653395 -0.05546237
v -0.26270632 -0.22163503 -0.06960613
v -0.33532080 -0.29427225 0.00638179
v -0.25811401 -0.21307699 -0.07270100
v -0.34554727 -0.28944493 0.02596186
v -0.34378949 -0.30858881 0.00803674
v -0.34682500 -0.30436501 0.01540800
v -0.35100135 -0.31466797 0.01408087
v -0.31786001 -0.26665199 0.00689000
v -0.32361159 -0.27332573 0.00938125
v -0.26352100 -0.21406649 -0.05886500
v -0.24972816 -0.21909949 -0.09137452
v -0.28395344 -0.23999546 -0.04004139
v -0.33756176 -0.27031593 0.03352114
v -0.32951242 -0.27455428 0.01873789
v -0.26639399 -0.21505100 -0.04775100
v -0.26660273 -0.28723209 -0.11465786
v -0.25770944 -0.27786409 -0.11977632
v -0.26861615 -0.29768730 -0.11716231
v -0.26946591 -0.27162998 -0.10327265
v -0.27509838 -0.29744812 -0.11028389
v -0.31497899 -0.33748299 -0.06945300
v -0.31229499 -0.33585399 -0.07345200
v -0.28826593 -0.31555236 -0.10146435
v -0.33886357 -0.35125976 -0.02620981
v -0.35223756 -0.32377438 0.01144193
v -0.24511839 -0.22698131 -0.10342825
v -0.25174335 -0.24547394 -0.10778576
v -0.25181677 -0.25507578 -0.11375407
v -0.33947119 -0.27606287 0.02980125
v -0.24074601 -0.21323100 -0.10072600
v -0.34938154 -0.34601787 -0.00286869
v -0.25966069 -0.21572131 -0.07085812
v -0.32792144 -0.25811346 0.03555258
v -0.31089313 -0.26296503 -0.00507954
v -0.31377848 -0.25955847 0.01088540
v -0.31812679 -0.26101545 0.01817511
v -0.23589636 -0.23610121 -0.11866771
v -0.24855418 -0.26493305 -0.12262778
v -0.32535773 -0.26782612 0.02057591
v -0.27546706 -0.31641148 -0.11642050
v -0.30368242 -0.25689470 -0.01375753
v -0.26335102 -0.30777852 -0.12593264
v -0.29602550 -0.32766950 -0.09420250
v -0.25586301 -0.20988500 -0.07669500
v -0.29426708 -0.24592024 -0.01585903
v -0.30945514 -0.25487927 0.01045086
v -0.23176122 -0.24159232 -0.12524354
v -0.24367366 -0.27180261 -0.13021144
v -0.25624783 -0.29708777 -0.12901503
v -0.25380943 -0.30452768 -0.13327498
v -0.25959558 -0.31904497 -0.13202824
v -0.24547385 -0.20367905 -0.09192410
v -0.25645151 -0.19979650 -0.07447650
v -0.25379830 -0.19731497 -0.07881706
v -0.25844250 -0.12887200 -0.06559250
v -0.25174138 -0.21233100 -0.08441639
v -0.25149813 -0.17320567 -0.08035219
v -0.23971462 -0.20745166 -0.10016077
v -0.23862071 -0.14665159 -0.09249026
v -0.23920855 -0.18664401 -0.09715327
v -0.25095689 -0.12801088 -0.07628310
v -0.23104833 -0.21139176 -0.11072645
v -0.22934689 -0.21759116 -0.11503885
v -0.35695178 -0.35323242 0.01907320
v -0.35606732 -0.34570664 0.01885365
v -0.35524201 -0.32880399 0.03071600
v -0.35130376 -0.32342925 0.02249495
v -0.35287488 -0.33715047 0.01261332
v -0.35429851 -0.31564339 0.05077322
v -0.35183856 -0.33786638 0.00487252
v -0.35439993 -0.31901629 0.04231887
v -0.35012948 -0.30520253 0.01941626
v -0.23354330 -0.19483769 -0.10433206
v -0.35716090 -0.33742358 0.02839151
v -0.35282901 -0.36853200 0.00427400
v -0.35622636 -0.32305581 0.04566865
v -0.35612108 -0.36484122 0.01473282
v -0.35002061 -0.30407311 0.02483463
v -0.34795599 -0.30183371 0.05717859
v -0.34225973 -0.29707450 0.04173270
v -0.22835094 -0.18863497 -0.10803116
v -0.27196098 -0.22233020 -0.03804151
v -0.34482737 -0.30222957 0.03792660
v -0.31613345 -0.25510740 0.02498321
v -0.34829326 -0.31140738 0.03099977
v -0.21771560 -0.21297454 -0.12244437
v -0.33183142 -0.26002908 0.04031827
v -0.35762964 -0.33119398 0.03782709
v -0.35340213 -0.37682949 0.00962987
v -0.26691500 -0.21426450 -0.04145900
v -0.34323499 -0.29441394 0.05351117
v -0.27658539 -0.22805306 -0.03370219
v -0.26823888 -0.21547326 -0.02795037
v -0.35791844 -0.35704894 0.02314532
v -0.27121353 -0.22313335 -0.04630914
v -0.26371650 -0.32506950 -0.12943674
v -0.35226369 -0.35100840 0.00310323
v -0.35904177 -0.33577543 0.04427067
v -0.30339426 -0.24795627 0.01287634
v -0.33604821 -0.28753710 0.04883051
v -0.34625508 -0.30599252 0.03432654
v -0.29593656 -0.24464428 -0.00356263
v -0.31332550 -0.24970499 0.03004275
v -0.26999137 -0.21836529 -0.03202826
v -0.35684272 -0.37200599 0.02182683
v -0.32081699 -0.24919950 0.04090250
v -0.35967474 -0.34107962 0.05032786
v -0.36010111 -0.35438650 0.04352087
v -0.35984061 -0.35168772 0.03573102
v -0.29526026 -0.24118387 0.00533587
v -0.32459101 -0.25108600 0.04404100
v -0.28601912 -0.23668180 -0.01684020
v -0.34904651 -0.30465029 0.06470182
v -0.34469947 -0.29604510 0.06484581
v -0.35231638 -0.33025145 0.01558122
v -0.33626896 -0.28399076 0.06321680
v -0.32696429 -0.27602989 0.05783698
v -0.31655100 -0.24865600 0.03628500
v -0.35836809 -0.36986896 0.03029076
v -0.35154168 -0.31043367 0.06598357
v -0.33321949 -0.28345049 0.05123785
v -0.33068603 -0.27788535 0.06872174
v -0.35436851 -0.31807002 0.06216762
v -0.33215919 -0.27964075 0.07457702
v -0.31826452 -0.26814253 0.06629535
v -0.35223100 -0.31593701 0.07109700
v -0.35917625 -0.35269350 0.05137881
v -0.34484601 -0.30030799 0.07784700
v -0.34639959 -0.30169855 0.07465225
v -0.35563297 -0.37737370 0.01832711
v -0.35077700 -0.39154699 0.00979800
v -0.33530425 -0.28676575 0.08423350
v -0.35087374 -0.39512075 0.01575675
v -0.35270196 -0.39203788 0.02126356
v -0.35687785 -0.32804697 0.06210809
v -0.33841306 -0.29100509 0.04563514
v -0.31741459 -0.26631560 0.08419409
v -0.35583401 -0.33159399 0.06899900
v -0.32890590 -0.27623188 0.07740180
v -0.31612700 -0.26645701 0.06760850
v -0.33907406 -0.28881699 0.07675491
v -0.32259500 -0.27178201 0.06184000
v -0.32778450 -0.27850499 0.08877600
v -0.35175023 -0.31318767 0.01960011
v -0.34602693 -0.28831038 0.02912282
v -0.35374850 -0.32425200 0.07274500
v -0.31317401 -0.26339099 0.07883300
v -0.32696056 -0.27529264 0.08303745
v -0.35626501 -0.38086900 0.03047000
v -0.34955649 -0.40136549 0.02094700
v -0.30934200 -0.26191199 0.09052200
v -0.31307526 -0.26688150 0.09641925
v -0.30735550 -0.25994900 0.08621700
v -0.30438501 -0.25995401 0.09538500
v -0.31230006 -0.26348161 0.08919128
v -0.33573395 -0.27152430 0.04208905
v -0.32925999 -0.26171699 0.04668800
v -0.32889199 -0.25685099 0.04320200
v -0.34660266 -0.29310896 0.03090925
v -0.30454950 -0.26124400 0.09866700
v -0.33577699 -0.27884305 0.04533530
v -0.32635900 -0.26015401 0.05024300
v -0.32668000 -0.26333800 0.05171100
v -0.32612500 -0.26776099 0.05494700
f 126 138 179
f 180 179 138
f 179 180 182
f 179 182 183
f 199 183 182
f 198 183 199
f 198 168 183
f 176 168 198
f 157 168 176
f 156 157 176
f 184 156 176
f 187 184 176
f 195 184 187
f 175 184 195
f 175 169 184
f 169 172 184
f 172 118 184
f 118 147 184
f 147 118 125
f 125 137 147
f 137 158 147
f 156 147 158
f 137 123 158
f 123 113 158
f 158 113 143
f 143 126 158
f 168 158 126
f 126 154 168
f 168 154 179
f 143 113 126
f 146 126 113
f 126 146 73
f 38 73 146
f 38 146 80
f 119 80 146
f 74 119 146
f 74 146 164
f 164 146 117
f 146 114 117
f 117 114 123
f 116 117 123
f 115 116 123
f 137 116 115
f 120 116 137
f 120 134 116
f 134 120 118
f 132 134 118
f 150 134 132
f 150 127 134
f 127 193 134
f 134 193 116
f 193 164 116
f 127 121 193
f 121 56 193
f 56 74 193
f 56 45 74
f 45 38 74
f 44 38 45
f 45 31 44
f 51 31 45
f 45 47 51
f 53 51 47
f 63 51 53
f 78 63 53
f 62 63 78
f 82 63 62
f 88 63 82
f 133 88 82
f 85 88 133
f 95 85 133
f 148 95 133
f 148 151 95
f 159 151 148
f 159 161 151
f 141 161 159
f 161 141 94
f 141 61 94
f 141 144 61
f 141 131 144
f 153 144 131
f 142 144 153
f 153 141 142
f 142 139 144
f 64 144 139
f 64 49 144
f 49 42 144
f 49 30 42
f 49 50 30
f 81 50 49
f 59 81 49
f 59 52 81
f 52 93 81
f 93 105 81
f 102 105 93
f 103 105 102
f 105 103 106
f 101 105 106
f 109 101 106
f 109 106 110
f 108 109 110
f 3 108 110
f 2 3 110
f 1 2 110
f 1 110 104
f 4 108 3
f 4 5 108
f 5 130 108
f 108 130 122
f 122 130 111
f 135 111 130
f 6 135 130
f 6 7 135
f 7 8 135
f 135 8 97
f 135 97 96
f 112 135 96
f 112 96 86
f 112 86 87
f 112 87 111
f 87 75 111
f 111 75 48
f 111 48 60
f 48 75 60
f 75 68 60
f 76 68 75
f 75 77 76
f 77 68 76
f 77 66 68
f 77 87 66
f 66 87 97
f 97 98 66
f 10 98 97
f 98 10 99
f 98 99 91
f 100 91 99
f 145 91 100
f 11 145 100
f 100 10 11
f 89 91 145
f 145 92 89
f 89 92 72
f 72 92 33
f 33 92 71
f 33 71 70
f 33 70 73
f 34 33 73
f 32 34 73
f 13 34 32
f 35 34 13
f 14 35 13
f 14 28 35
f 36 35 28
f 35 36 41
f 39 41 36
f 39 40 41
f 41 40 72
f 40 69 72
f 69 40 39
f 69 39 68
f 68 65 69
f 67 69 65
f 67 91 69
f 65 66 67
f 68 39 29
f 68 29 25
f 29 39 25
f 25 39 27
f 25 27 28
f 24 25 28
f 17 24 28
f 17 28 19
f 24 17 19
f 24 19 18
f 24 18 61
f 61 42 24
f 61 18 21
f 61 21 90
f 90 21 83
f 94 90 83
f 94 83 95
f 95 83 84
f 84 83 85
f 85 83 57
f 85 57 58
f 57 83 58
f 83 23 58
f 83 22 23
f 22 21 23
f 23 21 51
f 21 43 51
f 21 15 43
f 43 15 31
f 15 12 31
f 31 12 13
f 15 14 12
f 19 14 15
f 19 15 16
f 21 19 16
f 20 19 21
f 15 21 16
f 58 23 51
f 58 51 88
f 83 21 22
f 20 21 18
f 18 19 20
f 30 25 24
f 30 26 25
f 81 26 30
f 81 46 26
f 60 46 81
f 46 60 26
f 26 60 25
f 39 36 27
f 41 33 35
f 27 36 28
f 19 28 14
f 14 13 12
f 13 32 37
f 37 32 44
f 13 37 44
f 35 33 34
f 41 72 33
f 69 89 72
f 91 89 69
f 67 98 91
f 10 100 99
f 9 10 97
f 66 98 67
f 68 66 65
f 60 68 25
f 75 87 77
f 86 96 87
f 96 97 87
f 8 9 97
f 111 135 112
f 122 111 107
f 109 122 107
f 107 111 79
f 111 60 79
f 107 79 60
f 101 107 60
f 6 130 5
f 122 109 108
f 110 106 104
f 107 101 109
f 101 60 105
f 106 103 104
f 104 103 102
f 105 60 81
f 81 30 50
f 30 24 42
f 64 59 49
f 139 59 64
f 153 131 141
f 144 42 61
f 94 61 90
f 142 141 159
f 161 94 151
f 151 94 95
f 95 84 85
f 85 58 88
f 152 133 82
f 159 133 152
f 167 152 82
f 167 82 155
f 155 82 160
f 160 82 136
f 160 136 207
f 207 136 205
f 206 207 205
f 211 207 206
f 211 206 205
f 211 205 212
f 212 205 213
f 213 205 166
f 191 213 166
f 191 166 174
f 166 205 210
f 205 208 210
f 210 208 185
f 170 210 185
f 185 208 132
f 132 208 127
f 194 127 208
f 205 194 208
f 205 62 194
f 210 170 166
f 205 136 62
f 82 62 136
f 78 53 62
f 62 53 194
f 53 121 194
f 53 55 121
f 55 54 121
f 53 54 55
f 88 51 63
f 53 47 54
f 47 45 54
f 51 43 31
f 31 13 44
f 38 44 32
f 45 56 54
f 54 56 121
f 194 121 127
f 132 127 150
f 132 118 140
f 140 129 132
f 185 129 140
f 140 149 185
f 170 185 149
f 140 170 149
f 165 170 140
f 166 170 165
f 166 165 171
f 166 171 188
f 186 166 188
f 197 186 188
f 197 188 190
f 192 197 190
f 192 190 181
f 181 190 178
f 178 190 169
f 190 163 169
f 165 163 190
f 173 165 190
f 173 188 165
f 169 163 162
f 162 118 169
f 162 163 118
f 163 128 118
f 163 140 128
f 177 178 169
f 181 178 177
f 188 173 190
f 186 197 192
f 201 186 192
f 201 204 186
f 209 204 201
f 209 203 204
f 204 203 200
f 200 202 204
f 202 186 204
f 202 196 186
f 196 174 186
f 196 189 174
f 189 191 174
f 174 166 186
f 188 171 165
f 165 140 163
f 128 140 118
f 116 164 117
f 193 74 164
f 74 80 119
f 38 80 74
f 38 32 73
f 124 126 73
f 114 146 113
f 123 114 113
f 115 123 137
f 125 120 137
f 125 118 120
f 169 118 172
f 177 169 175
f 184 147 156
f 156 158 157
f 157 158 168
f 168 179 183
f 126 179 154
f 138 126 124

