# https://github.com/mikedh/trimesh
v 0.11019738 0.45699124 -0.12171837
v 0.12910099 0.44196701 -0.12128400
v 0.05545700 0.48525999 -0.11583050
v 0.07854500 0.47633299 -0.12178100
v 0.13746849 0.43455450 -0.12449200
v 0.05683600 0.47979701 -0.10205900
v 0.05152700 0.48329400 -0.10543600
v 0.06940150 0.47009826 -0.09661000
v 0.04383694 0.48048219 -0.09709544
v -0.00097850 0.49183500 -0.10300800
v 0.11562272 0.45339113 -0.12861616
v 0.11405650 0.45274251 -0.13494750
v 0.09508962 0.46595775 -0.13234750
v 0.12441400 0.44441900 -0.13456599
v 0.13460427 0.43648144 -0.13245627
v 0.12903400 0.44068700 -0.13421400
v 0.14004212 0.43139412 -0.12997150
v 0.13633954 0.43557014 -0.12952442
v 0.10714422 0.45974529 -0.12523722
v 0.12468283 0.44625315 -0.12396147
v 0.09990516 0.46423312 -0.12800072
v 0.07636000 0.47719850 -0.12918050
v 0.08223889 0.47470657 -0.12794844
v 0.05988600 0.48427001 -0.12846300
v 0.06602845 0.48226591 -0.12511681
v 0.06689300 0.48139751 -0.12882699
v 0.05487800 0.48574449 -0.13014400
v 0.04745575 0.48798250 -0.12950276
v 0.05250350 0.48679427 -0.11885134
v 0.03823212 0.49099742 -0.12112483
v 0.03859349 0.49035124 -0.11559260
v 0.03181310 0.49068602 -0.11053504
v 0.02777291 0.48879910 -0.10227421
v 0.03735102 0.48874346 -0.10776469
v 0.02286805 0.49204447 -0.10875101
v 0.01651378 0.49404451 -0.11385818
v 0.02860235 0.49317449 -0.12334575
v 0.04146110 0.49013055 -0.12683454
v 0.01398300 0.49362299 -0.11083500
v -0.00066806 0.49529575 -0.11289581
v 0.00258944 0.49387376 -0.10813864
v 0.01184576 0.49529453 -0.11934720
v 0.02050222 0.49430248 -0.12543269
v 0.00256366 0.49600273 -0.11948633
v 0.00082422 0.49628565 -0.12398475
v 0.01737907 0.49403602 -0.13105457
v 0.02316900 0.49220401 -0.13375500
v 0.02433834 0.49310562 -0.13023892
v -0.01222529 0.49597409 -0.13033890
v 0.03536600 0.49065700 -0.13146301
v -0.01543421 0.49607642 -0.12035704
v -0.01998306 0.49544530 -0.11654380
v -0.00420575 0.49536567 -0.13135736
v -0.01923100 0.49314201 -0.13560900
v -0.02625581 0.49535669 -0.12320431
v -0.00419919 0.49438392 -0.13447708
v -0.03888169 0.49346687 -0.11836467
v -0.02885600 0.49359626 -0.13221900
v -0.02743807 0.49389322 -0.11162526
v -0.01290702 0.49435517 -0.10894455
v -0.00869650 0.49163825 -0.13755075
v -0.07701100 0.48194599 -0.12973700
v -0.04244000 0.49115699 -0.11068400
v -0.09628950 0.47356050 -0.12807000
v -0.08331300 0.47987100 -0.12325600
v -0.14858597 0.43637085 -0.12466228
v -0.14257110 0.44196861 -0.12577739
v -0.13924624 0.44461117 -0.11864318
v -0.15732800 0.42592549 -0.13112901
v -0.17558200 0.40174600 -0.13191650
v -0.08645223 0.47726963 -0.11230195
v -0.10261481 0.46968682 -0.11539966
v -0.12373660 0.45608518 -0.11336916
v -0.08355901 0.47936212 -0.11710266
v -0.12630797 0.45434828 -0.11557384
v -0.09315171 0.47548705 -0.12323584
v -0.10489874 0.46914053 -0.12063661
v -0.12892857 0.45349780 -0.12326421
v -0.11818017 0.46113239 -0.12607731
v -0.10810100 0.46670050 -0.12947225
v -0.13466875 0.44771662 -0.12905725
v -0.21407099 0.29910700 -0.13388901
v -0.20826525 0.32663300 -0.13438674
v -0.19365313 0.35971338 -0.13821063
v -0.21364699 0.28072900 -0.13764900
v -0.19059600 0.16169600 -0.13766700
v -0.21169450 0.25064401 -0.13954450
v -0.20915550 0.22402550 -0.13956400
v -0.20189913 0.19500837 -0.13962425
v -0.19704751 0.17750325 -0.13856349
v -0.15998301 0.41282399 -0.14052101
v -0.14007813 0.43664100 -0.13942825
v -0.16855801 0.40576599 -0.13857000
v -0.15993200 0.41719201 -0.13857600
v -0.15473350 0.42348149 -0.13853650
v 0.07309738 0.47740877 -0.13452332
v 0.05535092 0.48450779 -0.13453115
v 0.03544905 0.48898099 -0.13620152
v 0.08255434 0.47258684 -0.13477880
v 0.05696028 0.48192344 -0.13770247
v 0.10246360 0.46064717 -0.13530176
v 0.09547998 0.46308106 -0.13787021
v 0.08032678 0.47199847 -0.13755304
v 0.10689785 0.45332983 -0.14009865
v 0.11437658 0.44927022 -0.13915599
v 0.06067595 0.47763850 -0.14016179
v 0.01689511 0.48952494 -0.13897836
v 0.05474248 0.48086775 -0.13920603
v 0.07823939 0.46941195 -0.14055755
v 0.03222593 0.48640978 -0.13979958
v 0.08228600 0.46502101 -0.14148100
v 0.09815300 0.45558700 -0.14153901
v 0.11214700 0.44720700 -0.14117201
v 0.07249000 0.46975151 -0.14151600
v 0.13082799 0.43461099 -0.13959201
v 0.08798000 0.46169050 -0.14148800
v 0.06260450 0.47342025 -0.14156650
v 0.05133850 0.47779475 -0.14145900
v 0.00806171 0.48810579 -0.14041737
v -0.06129720 0.48229748 -0.13969951
v -0.06745231 0.48286579 -0.13646997
v -0.06546197 0.48449237 -0.13514407
v -0.08421870 0.47820814 -0.13328146
v -0.07879745 0.47917080 -0.13576300
v -0.09194157 0.47288809 -0.13673008
v -0.04618523 0.49039342 -0.13372306
v -0.08186287 0.47662495 -0.13753392
v -0.04643828 0.48764336 -0.13778366
v -0.07895819 0.47542163 -0.13989458
v -0.10760548 0.46675611 -0.13232908
v -0.10397259 0.46692519 -0.13595932
v -0.03078191 0.49116114 -0.13729687
v -0.05570299 0.48177248 -0.14061280
v -0.12159522 0.45579274 -0.13549391
v -0.11157300 0.46205317 -0.13662667
v -0.09958798 0.46484694 -0.14027416
v -0.12274461 0.44854096 -0.14089599
v -0.01949408 0.48855848 -0.14041273
v -0.06700825 0.47494650 -0.14150951
v -0.01869075 0.48510800 -0.14154025
v -0.13389101 0.43700601 -0.14151550
v -0.07146700 0.47439101 -0.14152101
v -0.04243850 0.48157050 -0.14163400
v -0.11020600 0.45433975 -0.14155400
v 0.01406150 0.48488151 -0.14148500
v 0.00221900 0.48416451 -0.14143000
v 0.03274800 0.48205900 -0.14163201
v -0.15059275 0.42090875 -0.14154225
v -0.15017072 0.42359224 -0.14107143
v -0.15493587 0.41432862 -0.14170000
v -0.17021087 0.39560681 -0.14150428
v -0.17611850 0.38528250 -0.14147700
v -0.12614172 0.45017337 -0.13846662
v -0.13764165 0.44427856 -0.13454748
v -0.17641709 0.40007238 -0.13381064
v -0.15017819 0.43127281 -0.13600808
v -0.14202536 0.44032504 -0.13405473
v -0.12733545 0.45290524 -0.13341749
v -0.15832773 0.42283148 -0.13559720
v -0.14952289 0.43433692 -0.13145311
v 0.17494851 0.37835099 -0.13805599
v 0.16531475 0.39792851 -0.13459576
v 0.17979362 0.37056254 -0.13688335
v 0.14166375 0.42587675 -0.13753063
v 0.20272200 0.27862726 -0.13810375
v 0.18284850 0.35688425 -0.14004075
v 0.16232918 0.40103169 -0.13509656
v 0.19669000 0.30719851 -0.14046300
v 0.18788500 0.33640301 -0.14151250
v 0.20277474 0.23096900 -0.13574974
v 0.20492575 0.24982550 -0.13523350
v -0.17311101 0.12595300 -0.12676300
v -0.18878313 0.15135150 -0.13063400
v -0.15480350 0.10576550 -0.11978150
v -0.14658099 0.09895900 -0.11684300
v -0.12503972 0.08257622 -0.11976901
v -0.16562950 0.11689500 -0.12482700
v -0.09439075 0.06629000 -0.12671050
v -0.09266100 0.06427500 -0.12709600
v -0.11260012 0.07483260 -0.12320565
v -0.12653427 0.08308117 -0.12517096
v -0.10869900 0.07277400 -0.12366000
v -0.11094916 0.07417876 -0.12905075
v -0.09971047 0.06888996 -0.13040789
v -0.12416537 0.08209208 -0.13063316
v -0.09738373 0.06891178 -0.13427035
v -0.08566800 0.06434100 -0.13377400
v -0.08088700 0.06322500 -0.13492200
v -0.08518700 0.06578100 -0.13654800
v -0.10162593 0.07267457 -0.13701354
v -0.08813505 0.07204288 -0.14095495
v -0.14046909 0.09325045 -0.12116186
v -0.15458743 0.10525823 -0.12866179
v -0.14128371 0.09441868 -0.13005036
v -0.13737364 0.09108639 -0.12710001
v -0.16295206 0.11507358 -0.13164721
v -0.16574124 0.11725746 -0.12873376
v -0.17553586 0.13038279 -0.13163586
v -0.14683491 0.10224782 -0.13613772
v -0.18151320 0.14068735 -0.13460271
v -0.13000084 0.08777583 -0.13426355
v -0.17254024 0.13076245 -0.13668256
v -0.11589729 0.07811647 -0.13362330
v -0.16136318 0.11659233 -0.13609965
v -0.10904948 0.07512052 -0.13505777
v -0.17120200 0.13415900 -0.13957500
v -0.18716695 0.15195658 -0.13573610
v -0.19174255 0.17256283 -0.14086012
v -0.18641043 0.15927701 -0.14030463
v -0.13333286 0.09156349 -0.13667928
v -0.11526076 0.08090870 -0.13791022
v -0.13651075 0.09611043 -0.13856584
v -0.14996211 0.10680222 -0.13814219
v -0.12818206 0.09228166 -0.14006586
v -0.09926274 0.07411766 -0.13917593
v -0.15188400 0.11328500 -0.14045300
v -0.16074173 0.12047782 -0.13947327
v -0.16310192 0.12489281 -0.14012546
v -0.10518322 0.07714324 -0.13942288
v -0.11887951 0.08721057 -0.14075739
v -0.13923189 0.10431946 -0.14151136
v -0.10448597 0.08080923 -0.14133258
v -0.12387326 0.09269806 -0.14161672
v -0.18005852 0.14841658 -0.14034933
v -0.07969675 0.06841100 -0.14030775
v -0.18037373 0.15265621 -0.14124714
v -0.06357525 0.06684275 -0.14190150
v -0.07439801 0.07152788 -0.14238852
v -0.15748590 0.12306073 -0.14173678
v -0.18640301 0.16549399 -0.14150900
v -0.17702313 0.15081273 -0.14193675
v -0.18987001 0.17630436 -0.14202908
v -0.19960969 0.19973268 -0.14160402
v 0.20098101 0.22266600 -0.13659000
v 0.20285621 0.24446722 -0.13817420
v 0.20270424 0.26946038 -0.13904988
v 0.20128436 0.23430176 -0.13901292
v 0.19458612 0.22041625 -0.14162613
v 0.20181422 0.25056161 -0.13979105
v 0.20097130 0.26813831 -0.14055789
v 0.19795954 0.29378092 -0.14125281
v 0.19176568 0.31157428 -0.14267273
v 0.19411666 0.29884053 -0.14250336
v 0.19861103 0.26382468 -0.14192509
v 0.19806216 0.23965431 -0.14188549
v 0.18460791 0.34436806 -0.14192195
v 0.18453315 0.33252435 -0.14282809
v 0.17332152 0.36275844 -0.14297464
v 0.19201907 0.23443464 -0.14323002
v 0.19490016 0.26487954 -0.14295286
v 0.18405225 0.22007250 -0.14280175
v 0.17128831 0.36922410 -0.14272346
v 0.13600062 0.41228380 -0.14321873
v 0.15682895 0.40568380 -0.13924011
v 0.17137939 0.38479139 -0.13826603
v 0.14966676 0.41576351 -0.13865783
v 0.15474533 0.40461797 -0.14118027
v 0.13321460 0.43158973 -0.14013412
v 0.17329083 0.37617204 -0.14079135
v 0.14193072 0.42046116 -0.14088097
v 0.12871170 0.43106966 -0.14211780
v 0.16798512 0.38806619 -0.13992919
v 0.16061359 0.39077883 -0.14246144
v 0.14631189 0.41183150 -0.14197278
v 0.12063912 0.43863254 -0.14210150
v 0.07442355 0.46626806 -0.14226764
v 0.12013513 0.43442855 -0.14282233
v 0.04626104 0.47668395 -0.14217662
v 0.02195917 0.48121017 -0.14219498
v 0.03432021 0.47803244 -0.14232389
v -0.21079299 0.30716492 -0.13741363
v -0.21252574 0.28653985 -0.13856536
v -0.20593526 0.32967881 -0.13696777
v -0.20101581 0.33762662 -0.13965969
v -0.20982605 0.27453327 -0.14067092
v -0.20642925 0.30778418 -0.14056628
v -0.19276886 0.35354130 -0.14099276
v -0.20110207 0.31565134 -0.14189576
v -0.20832807 0.28386808 -0.14108438
v -0.20772282 0.23304831 -0.14122167
v -0.19669890 0.31876337 -0.14231585
v -0.18710938 0.35608321 -0.14222001
v -0.18702771 0.36306479 -0.14178392
v -0.20917048 0.25511639 -0.14128084
v -0.16844428 0.39117606 -0.14238668
v -0.20107018 0.22518916 -0.14234765
v -0.20495121 0.24164030 -0.14216284
v -0.14483776 0.41789223 -0.14261740
v -0.19915107 0.29833740 -0.14224105
v -0.20088191 0.21278147 -0.14219835
v -0.18358448 0.17097848 -0.14249440
v -0.17172990 0.15013981 -0.14256241
v -0.13032979 0.42825918 -0.14234791
v -0.19828470 0.21681312 -0.14240703
v -0.16322263 0.13302486 -0.14218090
v -0.19410626 0.33028259 -0.14226756
v -0.11819238 0.09428233 -0.14249444
v -0.14746269 0.11498988 -0.14233675
v -0.09646188 0.08218879 -0.14265898
v -0.09293028 0.08123818 -0.14249618
v -0.05873200 0.07069100 -0.14256600
v -0.05196500 0.06739300 -0.14254101
v -0.06055292 0.46841444 -0.14188110
v -0.05587590 0.47373033 -0.14231116
v 0.04492919 0.47262623 -0.14246540
v 0.08001495 0.45989573 -0.14267889
v 0.08513531 0.45660280 -0.14259079
v -0.02595400 0.06985500 -0.14219350
v -0.07243366 0.07712669 -0.14256320
v -0.15990158 0.13995023 -0.14237223
v -0.16381903 0.14242244 -0.14257719
v 0.09695734 0.44017644 -0.14179826
v 0.13952530 0.40406893 -0.14262597
v 0.15282897 0.39314135 -0.14307625
v 0.17024419 0.35626690 -0.14307036
v -0.19212250 0.19727112 -0.14245695
v 0.17881430 0.31807356 -0.14237791
v 0.18510938 0.31796615 -0.14308070
v 0.18926678 0.26655820 -0.14318787
v -0.15518498 0.40080932 -0.14220395
v 0.03738153 0.46932185 -0.14153687
v 0.15095455 0.38120631 -0.14189785
v -0.17781108 0.35629300 -0.14168716
v 0.00007926 0.47434854 -0.14123341
v -0.13088335 0.10092253 -0.14214909
v 0.18723401 0.29259950 -0.14303178
v 0.18342754 0.29127084 -0.14230462
v 0.16155078 0.36950637 -0.14258293
v -0.14194992 0.11594069 -0.14256727
v 0.18963229 0.24014023 -0.14338711
v -0.19495539 0.22169599 -0.14208252
v -0.02199399 0.48279645 -0.14202469
v -0.09733284 0.45881840 -0.14225419
v -0.19440104 0.29968549 -0.14171805
v -0.07302668 0.46555356 -0.14244037
v -0.17799137 0.17271247 -0.14206124
v -0.20037386 0.25931694 -0.14218431
v -0.05228350 0.07128650 -0.14247200
v -0.14072700 0.42873852 -0.14212910
v -0.10929762 0.45054066 -0.14233220
v 0.06429356 0.45809712 -0.14129067
v 0.14146585 0.39661441 -0.14194095
v 0.18158759 0.29621379 -0.14192695
v -0.09872095 0.45307928 -0.14241617
v -0.08851473 0.08617678 -0.14190079
v -0.05049356 0.07572005 -0.14155542
v -0.18361776 0.34848943 -0.14225766
v -0.03078700 0.07019700 -0.14220400
v 0.18335053 0.26751597 -0.14169660
v -0.16640900 0.37276256 -0.14055399
v -0.06130049 0.46381830 -0.14060774
v -0.17736501 0.17650400 -0.14149800
v 0.16791498 0.35745892 -0.14272810
v -0.18332000 0.19006699 -0.14152201
v -0.18614382 0.19690722 -0.14161851
v -0.19587472 0.27033679 -0.14134006
v -0.14039784 0.12370180 -0.14137505
v 0.07848813 0.44940691 -0.14080082
v 0.07402922 0.45622526 -0.14208298
v -0.19588507 0.25091908 -0.14138992
v 0.17491348 0.32518369 -0.14156493
v 0.01621437 0.47042172 -0.14019845
v 0.13272839 0.40494187 -0.14125875
v 0.18250990 0.23613626 -0.14195662
v -0.07830087 0.08551280 -0.14101115
v -0.12695999 0.42478299 -0.14109001
v -0.14694459 0.40140542 -0.14043551
v -0.04099321 0.07380967 -0.14165359
v -0.10398297 0.44328843 -0.14114511
v -0.17259910 0.16764717 -0.14147182
v 0.12209660 0.41620407 -0.14085948
v -0.12101569 0.10545846 -0.14160338
v -0.18986412 0.31798767 -0.14151359
v -0.01167738 0.47137356 -0.13986299
v 0.17531399 0.20190200 -0.14207201
v -0.01132800 0.07218450 -0.14129950
v 0.04146471 0.46338916 -0.13928070
v 0.17333999 0.19641200 -0.14201300
v -0.19211109 0.22647331 -0.14105385
v -0.18763729 0.20403965 -0.14131135
v 0.18048944 0.23145944 -0.14148085
v -0.06814000 0.08369700 -0.14033499
v 0.14394677 0.37023251 -0.13480488
v 0.18018409 0.28925676 -0.14060608
v 0.16072400 0.17425550 -0.14054250
v -0.09261454 0.09541228 -0.13918865
v -0.09609985 0.09108088 -0.14179917
v -0.13008061 0.11837453 -0.14000537
v -0.19317096 0.25035210 -0.14035294
v -0.02955684 0.46982075 -0.13982358
v -0.14835510 0.13459365 -0.14093064
v -0.18979564 0.22162720 -0.14032423
v -0.05777608 0.08024494 -0.14060817
v -0.19228894 0.29558421 -0.14079780
v -0.18063142 0.18940750 -0.14057806
v 0.15142369 0.37070878 -0.13916383
v 0.16339794 0.19288093 -0.13716388
v -0.04395727 0.07968808 -0.13918261
v 0.17518623 0.20628714 -0.14142592
v -0.16156017 0.37369058 -0.13833062
v -0.10888761 0.10245380 -0.14013093
v 0.16214221 0.35771752 -0.14123409
v 0.17491775 0.22562962 -0.13852374
v 0.09145500 0.43894300 -0.13956100
v -0.08439646 0.09166580 -0.13929314
v -0.04440579 0.46264506 -0.13703807
v 0.17402315 0.30321726 -0.13798585
v -0.12497526 0.11412601 -0.14000551
v -0.05952055 0.45581676 -0.13549120
v 0.00245500 0.07472500 -0.14017050
v -0.16315500 0.36258900 -0.13610700
v 0.03780288 0.46285592 -0.13838496
v 0.02979172 0.45870918 -0.13427253
v 0.08623324 0.44156158 -0.13912503
v 0.08939576 0.42966524 -0.13350952
v -0.17052923 0.16915249 -0.14041414
v -0.17214126 0.18325665 -0.13718098
v -0.16817226 0.16939022 -0.13901718
v -0.15522844 0.14439136 -0.14051913
v -0.10804100 0.11011700 -0.13556500
v -0.11847694 0.42908856 -0.13959515
v -0.11109065 0.42581833 -0.13502831
v -0.06100700 0.25854000 -0.12402100
v -0.03861404 0.31493549 -0.12387362
v -0.07503589 0.31264260 -0.12396611
v -0.04404262 0.33480309 -0.12391864
v -0.06900620 0.37052929 -0.12406817
v -0.04071900 0.41047099 -0.12462700
v -0.05179978 0.41448434 -0.12504651
v -0.01041698 0.42087390 -0.12491854
v -0.02367902 0.42487324 -0.12531744
v 0.00364051 0.43419839 -0.12626170
v 0.03380606 0.42453809 -0.12604324
v 0.02857113 0.42900501 -0.12638025
v 0.02070867 0.41794257 -0.12500815
v -0.01133022 0.39619430 -0.12407983
v -0.01693813 0.39363822 -0.12406266
v -0.01331240 0.38206984 -0.12389093
v 0.01476761 0.40556641 -0.12436338
v 0.02661933 0.34367446 -0.12420247
v 0.03355400 0.36482099 -0.12422300
v -0.00945979 0.35142643 -0.12396104
v -0.01097053 0.28104731 -0.12400090
v -0.00754366 0.32747521 -0.12399381
v -0.03902834 0.26947465 -0.12399057
v 0.01393700 0.29030201 -0.12409900
v 0.00349027 0.23278757 -0.12411452
v -0.00934892 0.23614120 -0.12404461
v -0.01311300 0.23564599 -0.12403600
v -0.08930740 0.17610424 -0.12452684
v -0.10540512 0.21714375 -0.12437752
v -0.10973933 0.17567161 -0.12526968
v -0.11516838 0.18090768 -0.12547086
v -0.11617522 0.15984575 -0.12654812
v -0.11576806 0.14977873 -0.12749017
v -0.09953544 0.14483098 -0.12649555
v -0.11109347 0.14160640 -0.12777794
v -0.08724627 0.19647804 -0.12427330
v -0.05613600 0.19986272 -0.12410223
v -0.05945700 0.22528200 -0.12406100
v -0.04129101 0.16499357 -0.12430087
v -0.07517451 0.15776162 -0.12490463
v -0.08942087 0.16478398 -0.12480745
v -0.05783674 0.14530114 -0.12489591
v -0.04614236 0.14646180 -0.12469699
v -0.02083341 0.15270502 -0.12450396
v -0.01576829 0.12914065 -0.12549845
v -0.04979210 0.13130066 -0.12562852
v -0.08970457 0.13929195 -0.12633970
v -0.08407436 0.12603679 -0.12743918
v -0.06686500 0.11877700 -0.12756400
v -0.05549148 0.12221031 -0.12660227
v 0.02011072 0.19516012 -0.12419211
v 0.01499886 0.21971718 -0.12418251
v 0.04502656 0.24446081 -0.12440282
v 0.04815237 0.30082690 -0.12447608
v 0.05204067 0.35687873 -0.12449404
v 0.03808690 0.34283832 -0.12429293
v 0.03758545 0.38446208 -0.12444342
v 0.05767212 0.38576318 -0.12502112
v 0.03303111 0.41059647 -0.12501434
v 0.05736772 0.40843680 -0.12598845
v 0.08359351 0.39237836 -0.12668228
v 0.08463200 0.40164900 -0.12750299
v 0.08710912 0.37405770 -0.12586850
v 0.05732166 0.36410306 -0.12456931
v 0.09153255 0.31980382 -0.12528827
v 0.11191273 0.32611326 -0.12640659
v 0.11122588 0.37240677 -0.12797700
v 0.13283060 0.33618722 -0.12859310
v 0.13507855 0.31067657 -0.12806897
v 0.11746442 0.32812252 -0.12687562
v 0.08764037 0.29660709 -0.12509024
v 0.05759224 0.26797173 -0.12450648
v 0.07812063 0.21084907 -0.12492896
v 0.00775083 0.16970236 -0.12434820
v 0.00434741 0.14836521 -0.12465301
v 0.04365959 0.19214273 -0.12446575
v 0.07708587 0.19844370 -0.12500803
v 0.10961882 0.24287280 -0.12610470
v 0.08983365 0.22421752 -0.12521781
v 0.09701655 0.20534306 -0.12557192
v 0.04332706 0.15545052 -0.12487957
v 0.06077403 0.16386474 -0.12515073
v 0.02287162 0.13345807 -0.12545638
v -0.03514346 0.12172317 -0.12614558
v -0.01562606 0.11853654 -0.12646115
v 0.00712226 0.11543428 -0.12699568
v -0.01860328 0.11044036 -0.12762561
v -0.04135116 0.11232256 -0.12752886
v -0.04146209 0.10466387 -0.12894363
v -0.12995202 0.14738392 -0.13005026
v -0.11355617 0.13256301 -0.12982227
v -0.06472289 0.10694100 -0.12948718
v -0.02896669 0.10059522 -0.12950110
v -0.01119661 0.09524174 -0.13055859
v -0.01534242 0.09839807 -0.12959649
v 0.02917868 0.09902053 -0.13020437
v 0.03395504 0.11904050 -0.12693120
v 0.05745108 0.14284918 -0.12578941
v 0.04418862 0.11768393 -0.12735021
v 0.04974234 0.10685633 -0.12960426
v 0.07039839 0.11415551 -0.12995354
v 0.08221823 0.12698872 -0.12890618
v 0.09536568 0.12039619 -0.13200598
v 0.11272157 0.14918942 -0.12971233
v 0.07471457 0.14081425 -0.12682348
v 0.11665702 0.23191288 -0.12656475
v 0.11119583 0.19873083 -0.12652224
v 0.10927949 0.17519705 -0.12707582
v 0.12891366 0.18433126 -0.12871149
v 0.13642401 0.23407125 -0.12775404
v 0.13318593 0.28054754 -0.12748967
v 0.12044591 0.28243607 -0.12652293
v 0.09992158 0.27387684 -0.12538424
v 0.10756779 0.28869882 -0.12578356
v 0.13382914 0.23501426 -0.12746125
v 0.14837082 0.27858445 -0.12937043
v 0.14941049 0.24856935 -0.12945000
v 0.14150732 0.22199080 -0.12868024
v 0.12934848 0.19579453 -0.12812168
v 0.13441218 0.18119562 -0.12968086
v 0.15580210 0.22431194 -0.13122380
v 0.14364204 0.31585366 -0.12944625
v 0.08826727 0.16287556 -0.12616940
v 0.09252871 0.13967963 -0.12821352
v 0.00987276 0.12302091 -0.12615045
v 0.08540872 0.36319623 -0.12543892
v 0.09740884 0.38458101 -0.12729835
v 0.10461250 0.37237532 -0.12714931
v 0.03220882 0.31307680 -0.12425131
v 0.03200843 0.23767501 -0.12426723
v -0.03329751 0.19811297 -0.12406576
v -0.09714890 0.17651524 -0.12474941
v -0.11415480 0.17366584 -0.12551723
v -0.09641298 0.15532114 -0.12555644
v 0.06209183 0.41470980 -0.12677114
v 0.06978700 0.41690800 -0.12780800
v 0.05436224 0.42602887 -0.12763540
v 0.03325683 0.43770634 -0.12801040
v -0.07976201 0.39437739 -0.12490881
v -0.09245724 0.36798598 -0.12461626
v -0.11403362 0.33203865 -0.12494446
v -0.11848357 0.28062728 -0.12486668
v -0.12132381 0.25820194 -0.12498881
v -0.12993599 0.25651199 -0.12549400
v -0.11312891 0.23068045 -0.12460997
v -0.10557776 0.32962412 -0.12451998
v -0.08437956 0.35272477 -0.12424764
v -0.06301935 0.38416069 -0.12414289
v -0.04656724 0.39976932 -0.12427702
v -0.09328660 0.32334329 -0.12413633
v -0.08850736 0.22964600 -0.12405429
v -0.08824754 0.27637492 -0.12409578
v -0.10290367 0.29120853 -0.12437222
v -0.11639332 0.21082356 -0.12485589
v -0.13450425 0.21161849 -0.12604675
v -0.13825026 0.22402127 -0.12613344
v -0.06286760 0.42198383 -0.12627397
v -0.01352251 0.43472852 -0.12641415
v -0.03561595 0.43165670 -0.12630201
v -0.02095378 0.44357931 -0.12799427
v -0.07765051 0.42035746 -0.12717411
v -0.08920270 0.39502913 -0.12558648
v -0.12195518 0.35050995 -0.12582667
v -0.12734487 0.32525290 -0.12568460
v -0.13680459 0.28366778 -0.12583920
v -0.14510896 0.28870239 -0.12659729
v -0.15080127 0.26923902 -0.12722695
v -0.14742670 0.23666378 -0.12688507
v -0.15096431 0.19937587 -0.12823945
v -0.13927864 0.20278139 -0.12673808
v -0.11529268 0.37370869 -0.12646676
v -0.13677239 0.35224898 -0.12761553
v -0.14454234 0.32165641 -0.12718363
v -0.14753746 0.33159162 -0.12806316
v -0.16119531 0.31963861 -0.12980306
v -0.16372849 0.32840140 -0.13091478
v -0.14227100 0.35557663 -0.12871067
v -0.14856938 0.36381263 -0.13081539
v -0.12446840 0.39350830 -0.12976326
v -0.17001088 0.29897252 -0.13082835
v -0.17386513 0.25497309 -0.13131361
v -0.17768701 0.23108082 -0.13312457
v -0.17439684 0.22680621 -0.13232544
v -0.17583451 0.21187717 -0.13379688
v -0.16631014 0.19945255 -0.13165820
v -0.17034837 0.20559686 -0.13248002
v -0.16649308 0.22440966 -0.13029188
v -0.17356962 0.23008912 -0.13175190
v -0.16545872 0.24916439 -0.12944825
v -0.15355231 0.18032308 -0.13053556
v -0.15410200 0.30350301 -0.12796900
v -0.15787762 0.25405338 -0.12815203
v -0.15828219 0.22848339 -0.12850819
v -0.14727366 0.19438507 -0.12819649
v -0.14150863 0.17116700 -0.12898213
v -0.12781565 0.15981481 -0.12795301
v -0.15170346 0.16498737 -0.13211669
v -0.14106493 0.15213267 -0.13154758
v -0.09548185 0.11492111 -0.13105638
v -0.16415950 0.30366854 -0.12953946
v -0.10380798 0.39396790 -0.12671189
v -0.16032529 0.28163399 -0.12843774
v -0.04672628 0.43414045 -0.12716058
v -0.06824269 0.43112127 -0.12821390
v -0.09026071 0.42754838 -0.13022255
v -0.10366776 0.40789322 -0.12846345
v -0.11923307 0.38270415 -0.12762402
v 0.00352678 0.44155121 -0.12761987
v -0.04942422 0.43961669 -0.12831803
v -0.13419272 0.17504520 -0.12749972
v -0.16485698 0.19661964 -0.13170679
v -0.16333952 0.17869283 -0.13349546
v 0.15839938 0.29681436 -0.13173182
v 0.15951466 0.27920806 -0.13141096
v -0.10606532 0.41661622 -0.13045736
v 0.10224454 0.39262466 -0.12861291
v 0.09376782 0.40528813 -0.12894684
v 0.12587809 0.35657498 -0.12882905
v 0.12995000 0.36883399 -0.13065299
v 0.04473814 0.43642361 -0.12869483
v 0.05080573 0.43856227 -0.12968041
v 0.11345913 0.15547292 -0.12898905
v 0.05669729 0.10467514 -0.13086096
v 0.14954638 0.32123928 -0.13063686
v 0.15665374 0.19660064 -0.13329141
v 0.15001932 0.20990740 -0.13071168
v 0.15322604 0.24356402 -0.13012940
v -0.08077893 0.11747446 -0.12872607
v 0.00561749 0.09488554 -0.13081445
v 0.00274211 0.09026444 -0.13200125
v 0.11218611 0.13447835 -0.13196431
v 0.01229591 0.44628182 -0.12869476
v -0.02091815 0.45289587 -0.13025094
v 0.14687756 0.34758177 -0.13213345
v -0.13762900 0.38612401 -0.13163300
v -0.13299497 0.38975070 -0.13109786
v 0.08617727 0.41870747 -0.12995277
v 0.01603400 0.45149601 -0.13039000
v 0.16221177 0.26558314 -0.13211595
v -0.05982994 0.09379160 -0.13279049
v -0.00805056 0.08420441 -0.13414321
v 0.10881966 0.40102958 -0.13087877
v 0.13557472 0.16077743 -0.13221131
v 0.13218053 0.15321494 -0.13297417
v 0.16408380 0.29892746 -0.13333963
v -0.06296676 0.43890581 -0.12905869
v 0.11925379 0.38667808 -0.13065398
v 0.09400730 0.42083530 -0.13191708
v -0.17493630 0.27531473 -0.13165284
v -0.17860325 0.27394785 -0.13274747
v -0.15199984 0.36460044 -0.13175253
v -0.16519636 0.34627118 -0.13328794
v -0.17508069 0.31879624 -0.13369845
v 0.14974747 0.18368507 -0.13285154
v -0.17924972 0.29348445 -0.13347707
v 0.06375484 0.43108357 -0.12925505
v 0.02985623 0.45105940 -0.13101232
v -0.08994662 0.10970727 -0.13170740
v -0.07801507 0.09966846 -0.13325514
v -0.07623456 0.09750951 -0.13376261
v -0.03989521 0.09712706 -0.13057229
v -0.03162704 0.08805847 -0.13325706
v 0.03778582 0.08915982 -0.13384067
v -0.00398145 0.45605445 -0.13116962
v -0.12215468 0.12444833 -0.13369660
v -0.14173706 0.14592419 -0.13322747
v -0.11585528 0.12218379 -0.13282405
v 0.16751933 0.28569615 -0.13383636
v 0.16566484 0.24430467 -0.13321909
v 0.11885581 0.13285533 -0.13405406
v 0.11047847 0.12554315 -0.13392011
v -0.03633249 0.44998176 -0.13013656
v -0.04591746 0.45538781 -0.13285836
v -0.07828519 0.43847510 -0.13127595
v -0.11828224 0.40942827 -0.13158567
v -0.10355499 0.11115532 -0.13369689
v 0.17271832 0.27381174 -0.13559679
v 0.16650867 0.31598261 -0.13537348
v 0.15968425 0.32600244 -0.13354056
v -0.18117200 0.23694099 -0.13424601
v 0.00538137 0.45995021 -0.13278658
v -0.18385382 0.25132812 -0.13484075
v -0.15836311 0.16822068 -0.13380708
v 0.15041070 0.16962851 -0.13572584
v 0.12808115 0.38985110 -0.13350268
v -0.14798194 0.37819162 -0.13299874
v 0.16744565 0.22042300 -0.13501588
v -0.18355913 0.29451039 -0.13557832
v 0.08249860 0.10464543 -0.13444255
v 0.16047116 0.19600589 -0.13496757
v 0.14388792 0.16507518 -0.13425030
v 0.13328982 0.14741563 -0.13464400
v -0.05944305 0.08846782 -0.13566706
v -0.11468123 0.11870957 -0.13361596
v 0.05989268 0.09506625 -0.13411093
v -0.15451165 0.37141872 -0.13388484
v -0.18181830 0.22415946 -0.13530580
v 0.16314903 0.20110187 -0.13539441
v -0.04839725 0.08855548 -0.13405636
v -0.09705211 0.10571946 -0.13426147
v 0.09168695 0.42384081 -0.13196536
v -0.17562321 0.32642522 -0.13492064
v -0.12128981 0.41352927 -0.13355389
v 0.06109805 0.44346109 -0.13237428
v 0.16781159 0.22800694 -0.13452094
v 0.17037841 0.29877034 -0.13557410
v -0.18482048 0.27775175 -0.13533656
v 0.11531787 0.40456012 -0.13304576
v 0.13713115 0.37329653 -0.13281197
v -0.00533830 0.46040877 -0.13286188
v -0.01305031 0.46194052 -0.13367029
v 0.17016976 0.32979627 -0.13966647
v -0.03545476 0.45790717 -0.13301948
v -0.07022844 0.44637410 -0.13261809
v -0.11000497 0.42216311 -0.13301068
v -0.18587510 0.24203729 -0.13625173
v -0.00636492 0.07456285 -0.14002876
v -0.18098262 0.30379110 -0.13508957
v 0.07944900 0.10107100 -0.13548200
v -0.18380324 0.20848325 -0.13856971
v -0.17437903 0.20282705 -0.13419518
v 0.01481462 0.08402745 -0.13483988
v -0.15160718 0.15472941 -0.13465941
v 0.12808367 0.39695178 -0.13558675
v 0.17505550 0.26249207 -0.13664189
v 0.05932484 0.45051588 -0.13543190
v -0.16960143 0.34532124 -0.13514796
v 0.15346509 0.35303465 -0.13507824
v 0.15226502 0.36436823 -0.13756130
v 0.11203640 0.41397015 -0.13505231
v -0.18790086 0.31387907 -0.14026853
v -0.01979295 0.07969897 -0.13719651
v 0.10978100 0.11995600 -0.13605050
v 0.04724881 0.45451290 -0.13473129
v -0.13733159 0.39670274 -0.13382890
v -0.17776869 0.34798973 -0.14050254
v 0.16567409 0.34376199 -0.13997300
v -0.17397864 0.19163332 -0.13612924
v 0.07561500 0.09734500 -0.13658600
v 0.06866400 0.09464400 -0.13643400
v -0.04435381 0.08645962 -0.13463363
v -0.03854576 0.07754691 -0.13990473
v 0.15572499 0.17622937 -0.13677523
v 0.02770100 0.07904950 -0.13907000
v 0.03744750 0.08063200 -0.13916850
v 0.15299900 0.16374425 -0.13945925
v 0.14109025 0.14603175 -0.13962475
v -0.09251201 0.44001046 -0.13573094
v 0.05366300 0.09069900 -0.13548300
f 675 740 394
f 724 675 394
f 394 740 710
f 675 677 740
f 753 724 394
f 674 675 724
f 710 729 394
f 677 710 740
f 602 677 675
f 373 753 394
f 749 724 753
f 674 598 675
f 674 724 749
f 729 356 394
f 677 729 710
f 598 602 675
f 602 672 677
f 373 394 334
f 749 753 373
f 600 598 674
f 674 749 718
f 334 394 356
f 729 704 356
f 672 729 677
f 598 597 602
f 602 671 672
f 373 334 281
f 749 373 758
f 599 598 600
f 600 674 673
f 718 673 674
f 718 749 411
f 334 356 289
f 704 738 356
f 729 672 704
f 598 599 597
f 597 622 602
f 622 671 602
f 671 603 672
f 281 334 289
f 347 373 281
f 758 373 347
f 400 749 758
f 601 599 600
f 601 600 673
f 718 708 673
f 718 411 400
f 411 749 400
f 356 337 289
f 356 738 389
f 719 738 704
f 672 603 704
f 599 622 597
f 622 603 671
f 281 289 278
f 347 281 296
f 758 347 323
f 400 758 350
f 601 629 599
f 658 601 673
f 657 673 708
f 757 708 718
f 757 718 400
f 289 337 287
f 356 360 337
f 389 360 356
f 738 379 389
f 702 719 704
f 719 392 738
f 603 604 704
f 599 596 622
f 622 624 603
f 296 281 278
f 289 287 278
f 347 296 282
f 320 323 347
f 323 350 758
f 400 350 367
f 629 594 599
f 629 601 623
f 601 658 757
f 658 673 657
f 757 657 708
f 367 757 400
f 337 286 287
f 360 331 337
f 389 331 360
f 379 331 389
f 392 379 738
f 604 702 704
f 702 604 719
f 719 742 392
f 603 605 604
f 596 599 594
f 596 595 622
f 624 611 603
f 613 624 622
f 282 296 278
f 287 284 278
f 347 282 283
f 320 347 285
f 288 350 323
f 367 350 288
f 629 623 594
f 628 623 601
f 697 601 757
f 658 657 757
f 757 367 421
f 286 290 287
f 337 294 286
f 331 294 337
f 379 392 331
f 604 606 719
f 742 380 392
f 606 742 719
f 603 610 605
f 605 606 604
f 594 595 596
f 595 613 622
f 611 610 603
f 614 611 624
f 595 624 613
f 282 278 277
f 278 284 279
f 287 280 284
f 283 282 277
f 285 347 283
f 288 320 285
f 293 367 288
f 623 593 594
f 637 628 601
f 583 623 628
f 637 601 697
f 725 697 757
f 366 421 367
f 725 757 421
f 294 290 286
f 287 290 280
f 392 380 331
f 742 355 380
f 606 743 742
f 610 606 605
f 594 585 595
f 611 609 610
f 614 615 611
f 624 590 614
f 588 624 595
f 277 278 274
f 278 279 276
f 279 284 275
f 280 87 284
f 283 277 84
f 285 283 152
f 288 285 339
f 288 323 320
f 340 293 288
f 366 367 293
f 585 594 593
f 623 585 593
f 583 628 637
f 583 579 623
f 737 637 697
f 737 697 725
f 369 421 366
f 725 421 422
f 290 233 280
f 380 355 331
f 395 355 742
f 610 743 606
f 743 760 742
f 586 595 585
f 609 607 610
f 615 609 611
f 614 590 615
f 589 590 624
f 587 588 595
f 624 588 589
f 84 277 274
f 278 276 274
f 276 279 272
f 279 275 272
f 275 284 272
f 280 88 87
f 272 284 87
f 152 283 84
f 150 285 152
f 339 285 150
f 339 340 288
f 340 369 293
f 369 366 293
f 584 585 623
f 627 583 637
f 579 583 625
f 579 584 623
f 627 637 737
f 422 737 725
f 770 421 369
f 421 770 422
f 280 233 89
f 290 208 233
f 331 355 316
f 395 354 355
f 742 760 395
f 608 743 610
f 634 760 743
f 563 586 585
f 586 587 595
f 615 607 609
f 607 608 610
f 590 591 615
f 587 590 589
f 587 589 588
f 274 273 84
f 274 276 271
f 276 272 271
f 280 89 88
f 85 272 87
f 340 339 144
f 344 369 340
f 584 561 585
f 668 583 627
f 625 581 579
f 625 583 631
f 429 584 579
f 627 737 770
f 770 737 422
f 335 770 369
f 233 208 89
f 232 208 290
f 316 290 331
f 336 316 355
f 336 355 354
f 395 336 354
f 417 395 760
f 608 607 743
f 607 634 743
f 634 417 760
f 585 562 563
f 563 568 586
f 568 587 586
f 615 591 607
f 578 591 590
f 587 578 590
f 273 83 84
f 274 271 273
f 82 271 272
f 82 272 85
f 144 339 141
f 333 340 144
f 333 344 340
f 335 369 344
f 429 561 584
f 561 562 585
f 583 668 626
f 696 668 627
f 429 579 581
f 582 581 625
f 631 583 626
f 631 582 625
f 696 627 770
f 770 335 351
f 89 208 90
f 232 209 208
f 316 232 290
f 336 292 316
f 395 352 336
f 417 416 395
f 633 634 607
f 417 634 418
f 562 568 563
f 564 587 568
f 591 633 607
f 578 592 591
f 566 578 587
f 273 271 83
f 271 82 83
f 339 150 141
f 333 144 142
f 333 335 344
f 429 571 561
f 570 562 561
f 631 626 668
f 736 668 696
f 581 431 429
f 582 580 581
f 655 582 631
f 736 696 770
f 351 335 303
f 409 770 351
f 208 209 90
f 232 230 209
f 316 291 232
f 292 291 316
f 336 310 292
f 370 336 352
f 395 370 352
f 395 416 370
f 418 416 417
f 591 634 633
f 705 418 634
f 570 568 562
f 568 575 564
f 564 565 587
f 578 577 592
f 592 616 591
f 566 565 578
f 565 566 587
f 335 333 142
f 428 571 429
f 571 570 561
f 694 631 668
f 668 736 695
f 431 430 429
f 581 580 431
f 582 630 580
f 582 655 654
f 655 631 694
f 736 770 409
f 304 303 335
f 390 351 303
f 351 406 409
f 90 209 86
f 231 209 230
f 231 230 232
f 291 292 232
f 311 292 310
f 370 310 336
f 418 370 416
f 612 634 591
f 705 419 418
f 612 705 634
f 569 568 570
f 575 567 564
f 568 572 575
f 565 564 567
f 576 577 578
f 576 592 577
f 616 612 591
f 592 632 616
f 565 567 578
f 142 304 335
f 430 428 429
f 430 571 428
f 427 570 571
f 694 668 695
f 695 736 409
f 432 430 431
f 580 432 431
f 630 432 580
f 654 630 582
f 686 654 655
f 655 694 695
f 304 390 303
f 390 406 351
f 695 409 406
f 207 86 209
f 226 209 231
f 292 231 232
f 292 311 295
f 310 329 311
f 419 310 370
f 418 419 370
f 745 419 705
f 619 705 612
f 568 569 572
f 570 572 569
f 451 567 575
f 572 574 575
f 576 578 567
f 453 592 576
f 616 617 612
f 555 632 592
f 632 617 616
f 143 304 142
f 430 439 571
f 570 427 572
f 438 427 571
f 432 435 430
f 654 432 630
f 703 654 686
f 732 686 655
f 735 655 695
f 324 390 304
f 390 695 406
f 173 86 207
f 209 224 207
f 209 226 224
f 226 231 224
f 292 295 231
f 311 329 295
f 391 329 310
f 419 391 310
f 745 688 419
f 688 745 705
f 617 619 612
f 619 688 705
f 451 576 567
f 573 451 575
f 572 425 574
f 574 573 575
f 452 453 576
f 453 555 592
f 555 454 632
f 618 617 632
f 143 332 304
f 435 439 430
f 439 436 571
f 427 425 572
f 438 426 427
f 571 437 438
f 434 435 432
f 560 432 654
f 660 654 703
f 732 703 686
f 655 733 732
f 733 655 735
f 390 735 695
f 269 324 304
f 374 390 324
f 173 207 200
f 200 207 224
f 231 206 224
f 231 295 206
f 329 229 295
f 391 357 329
f 688 391 419
f 617 620 619
f 620 688 619
f 451 452 576
f 458 451 573
f 425 573 574
f 452 555 453
f 555 556 454
f 632 454 618
f 618 620 617
f 332 143 140
f 269 304 332
f 481 439 435
f 439 438 436
f 436 437 571
f 426 425 427
f 438 424 426
f 437 436 438
f 560 434 432
f 434 433 435
f 679 560 654
f 660 679 654
f 703 679 660
f 703 732 733
f 733 735 390
f 305 324 269
f 324 362 374
f 374 733 390
f 173 200 198
f 206 200 224
f 229 206 295
f 298 229 329
f 372 329 357
f 372 357 391
f 688 388 391
f 512 688 620
f 451 554 452
f 458 450 451
f 459 458 573
f 423 573 425
f 554 555 452
f 556 456 454
f 463 556 555
f 454 455 618
f 618 512 620
f 145 332 140
f 145 269 332
f 435 482 481
f 479 439 481
f 439 440 438
f 426 424 425
f 442 424 438
f 559 434 560
f 433 434 559
f 557 435 433
f 643 560 679
f 413 679 703
f 374 703 733
f 270 305 269
f 305 321 324
f 321 362 324
f 362 703 374
f 173 198 172
f 200 202 198
f 206 202 200
f 229 218 206
f 298 216 229
f 297 298 329
f 299 329 372
f 388 372 391
f 688 408 388
f 512 687 688
f 450 554 451
f 463 450 458
f 459 461 458
f 459 573 460
f 423 425 445
f 423 445 573
f 450 555 554
f 456 455 454
f 463 456 556
f 450 463 555
f 455 512 618
f 147 269 145
f 557 482 435
f 482 485 481
f 479 477 439
f 480 479 481
f 440 442 438
f 439 441 440
f 445 425 424
f 442 444 424
f 559 560 642
f 559 557 433
f 643 642 560
f 679 726 643
f 413 756 679
f 362 413 703
f 268 270 269
f 268 305 270
f 305 341 321
f 321 377 362
f 172 198 177
f 198 202 204
f 206 218 202
f 229 217 218
f 229 216 217
f 298 213 216
f 297 325 298
f 299 297 329
f 387 299 372
f 408 372 388
f 687 408 688
f 513 687 512
f 461 463 458
f 553 461 459
f 445 459 460
f 445 460 573
f 456 457 455
f 469 456 463
f 455 457 512
f 147 268 269
f 483 482 557
f 485 480 481
f 483 485 482
f 477 441 439
f 486 477 479
f 480 486 479
f 442 440 444
f 477 440 441
f 424 443 445
f 444 443 424
f 559 642 643
f 557 559 678
f 678 643 726
f 726 679 756
f 413 377 756
f 412 413 362
f 266 305 268
f 359 341 305
f 321 341 377
f 412 362 377
f 177 198 197
f 204 196 198
f 202 217 204
f 218 217 202
f 216 213 217
f 221 213 298
f 297 223 325
f 325 221 298
f 299 223 297
f 387 300 299
f 387 372 401
f 408 401 372
f 716 408 687
f 457 513 512
f 513 689 687
f 461 462 463
f 553 459 445
f 553 473 461
f 469 457 456
f 464 469 463
f 147 117 268
f 549 483 557
f 485 486 480
f 549 485 483
f 477 486 551
f 444 440 443
f 477 478 440
f 445 443 553
f 678 559 643
f 558 557 678
f 415 678 726
f 726 756 748
f 377 413 412
f 341 756 377
f 266 268 117
f 266 306 305
f 306 359 305
f 359 358 341
f 177 197 193
f 198 196 197
f 196 204 213
f 217 213 204
f 213 221 214
f 223 221 325
f 299 220 223
f 345 300 387
f 401 386 387
f 722 401 408
f 420 408 716
f 689 716 687
f 457 470 513
f 513 621 689
f 464 462 461
f 462 464 463
f 473 496 461
f 447 473 553
f 469 470 457
f 464 472 469
f 484 549 557
f 485 548 486
f 485 549 550
f 478 477 551
f 486 476 551
f 440 551 443
f 440 478 551
f 443 449 553
f 659 557 558
f 659 558 678
f 415 723 678
f 358 415 726
f 748 358 726
f 748 756 358
f 341 358 756
f 117 111 266
f 266 307 306
f 307 359 306
f 359 312 358
f 177 193 174
f 197 196 193
f 196 213 193
f 213 214 212
f 214 221 223
f 223 220 214
f 220 299 222
f 309 300 345
f 387 365 345
f 386 405 387
f 722 386 401
f 420 722 408
f 722 420 716
f 621 716 689
f 470 621 513
f 461 465 464
f 461 496 466
f 473 497 496
f 474 473 447
f 448 447 553
f 472 470 469
f 468 472 464
f 638 549 484
f 639 484 557
f 550 548 485
f 486 548 487
f 638 550 549
f 494 476 486
f 476 494 551
f 446 443 551
f 448 449 443
f 449 448 553
f 659 639 557
f 723 659 678
f 415 752 723
f 414 415 358
f 111 112 266
f 267 307 266
f 307 312 359
f 358 312 404
f 174 193 192
f 193 213 199
f 212 210 213
f 214 220 212
f 222 219 220
f 300 222 299
f 309 228 300
f 365 309 345
f 715 365 387
f 682 405 386
f 715 387 405
f 682 386 722
f 698 722 716
f 621 698 716
f 650 621 470
f 466 465 461
f 465 468 464
f 496 497 466
f 473 503 497
f 552 474 447
f 552 473 474
f 447 448 443
f 472 471 470
f 506 472 468
f 638 484 639
f 550 488 548
f 487 493 486
f 488 487 548
f 669 550 638
f 493 494 486
f 551 494 446
f 446 494 443
f 664 639 659
f 670 659 723
f 371 752 415
f 752 730 723
f 358 404 414
f 404 415 414
f 112 265 266
f 265 267 266
f 267 312 307
f 312 415 404
f 174 192 175
f 192 193 194
f 210 193 199
f 210 199 213
f 210 212 211
f 220 211 212
f 219 211 220
f 222 191 219
f 300 191 222
f 228 191 300
f 301 228 309
f 365 393 309
f 715 382 365
f 682 715 405
f 722 681 682
f 621 722 698
f 514 650 470
f 650 680 621
f 466 497 465
f 465 467 468
f 498 503 473
f 503 505 497
f 552 447 494
f 552 495 473
f 494 447 443
f 471 514 470
f 472 514 471
f 467 506 468
f 506 510 472
f 664 638 639
f 492 488 550
f 493 487 536
f 488 536 487
f 669 489 550
f 669 638 664
f 494 493 535
f 670 664 659
f 723 730 670
f 312 371 415
f 746 752 371
f 746 730 752
f 112 113 265
f 261 267 265
f 267 253 312
f 176 175 192
f 195 192 194
f 194 193 210
f 203 210 211
f 190 211 219
f 191 215 219
f 228 225 191
f 301 302 228
f 338 301 309
f 393 346 309
f 382 393 365
f 715 393 382
f 662 715 682
f 514 682 681
f 681 722 680
f 680 722 621
f 650 514 680
f 497 467 465
f 495 498 473
f 495 503 498
f 505 467 497
f 503 520 505
f 475 552 494
f 475 495 552
f 472 510 514
f 505 506 467
f 507 510 506
f 492 536 488
f 640 492 550
f 536 535 493
f 489 640 550
f 669 640 489
f 669 664 730
f 535 495 494
f 730 664 670
f 253 371 312
f 363 746 371
f 746 707 730
f 113 115 265
f 258 261 265
f 261 253 267
f 176 192 180
f 192 195 181
f 185 195 194
f 210 201 194
f 210 203 185
f 190 203 211
f 215 190 219
f 191 190 215
f 191 225 190
f 228 227 225
f 302 227 228
f 368 338 309
f 346 368 309
f 368 346 393
f 763 393 715
f 514 662 682
f 721 715 662
f 680 514 681
f 499 503 495
f 504 520 503
f 521 505 520
f 494 495 475
f 510 511 514
f 505 507 506
f 507 509 510
f 492 534 536
f 490 492 640
f 534 535 536
f 641 640 669
f 730 707 669
f 535 501 495
f 371 253 363
f 363 383 746
f 731 707 746
f 105 115 113
f 115 258 265
f 258 260 261
f 264 253 261
f 192 181 180
f 181 195 185
f 194 201 185
f 185 203 183
f 203 190 205
f 225 186 190
f 348 338 368
f 764 368 393
f 763 398 393
f 721 763 715
f 683 662 514
f 684 721 662
f 502 499 495
f 499 504 503
f 545 520 504
f 521 519 505
f 521 520 527
f 517 511 510
f 683 514 511
f 505 547 507
f 507 517 509
f 509 517 510
f 491 534 492
f 490 491 492
f 656 490 640
f 533 535 534
f 731 640 641
f 731 641 669
f 707 731 669
f 501 502 495
f 535 502 501
f 253 313 363
f 322 383 363
f 731 746 383
f 104 105 113
f 12 115 105
f 115 164 258
f 256 260 258
f 260 264 261
f 264 257 253
f 180 181 185
f 183 180 185
f 186 183 203
f 186 205 190
f 186 225 189
f 308 348 368
f 754 368 764
f 398 764 393
f 763 764 398
f 684 763 721
f 683 684 662
f 502 504 499
f 502 545 504
f 545 527 520
f 505 519 547
f 519 521 517
f 546 521 527
f 517 515 511
f 511 515 683
f 547 508 507
f 507 508 517
f 533 534 491
f 646 491 490
f 656 646 490
f 731 656 640
f 533 537 535
f 500 502 535
f 253 314 313
f 313 342 363
f 342 322 363
f 322 396 383
f 656 731 383
f 105 104 102
f 104 113 116
f 105 102 12
f 256 258 164
f 256 264 260
f 253 257 314
f 257 264 256
f 184 180 183
f 183 186 184
f 205 186 203
f 188 186 189
f 225 188 189
f 376 308 368
f 754 739 368
f 754 764 763
f 684 663 763
f 517 684 683
f 530 545 502
f 545 546 527
f 547 519 508
f 519 517 508
f 521 518 517
f 546 524 521
f 515 517 683
f 538 533 491
f 646 544 491
f 701 646 656
f 533 538 537
f 537 528 535
f 500 528 502
f 528 500 535
f 314 322 313
f 342 313 322
f 322 402 396
f 396 751 383
f 750 656 383
f 102 104 109
f 104 116 109
f 101 12 102
f 257 263 314
f 254 257 256
f 180 184 182
f 179 184 186
f 188 187 186
f 739 376 368
f 739 754 663
f 663 754 763
f 663 684 517
f 530 502 529
f 530 546 545
f 518 651 517
f 521 522 518
f 524 523 521
f 546 525 524
f 544 538 491
f 646 538 544
f 701 635 646
f 701 656 750
f 538 532 537
f 537 529 528
f 528 529 502
f 314 328 322
f 328 402 322
f 402 751 396
f 750 383 751
f 102 109 103
f 109 116 114
f 102 103 101
f 257 262 263
f 252 314 263
f 256 167 254
f 262 257 254
f 182 184 178
f 179 186 187
f 410 376 739
f 744 739 663
f 516 663 517
f 529 537 530
f 530 644 546
f 651 516 517
f 518 652 651
f 522 685 518
f 521 523 522
f 524 525 523
f 546 653 525
f 646 636 538
f 635 636 646
f 667 635 701
f 750 734 701
f 532 541 537
f 538 539 532
f 314 353 328
f 328 353 402
f 402 750 751
f 103 109 106
f 114 118 109
f 101 103 99
f 262 252 263
f 252 315 314
f 167 262 254
f 744 410 739
f 744 663 652
f 516 652 663
f 537 541 530
f 542 644 530
f 644 526 546
f 651 652 516
f 518 685 652
f 645 685 522
f 523 645 522
f 525 711 523
f 653 693 525
f 526 653 546
f 636 539 538
f 667 636 635
f 701 690 667
f 734 700 701
f 759 734 750
f 540 541 532
f 539 540 532
f 314 315 353
f 315 402 353
f 402 759 750
f 103 106 100
f 109 118 106
f 13 101 99
f 99 103 96
f 262 259 252
f 248 315 252
f 167 255 262
f 766 410 744
f 685 744 652
f 541 531 530
f 531 542 530
f 542 665 644
f 665 526 644
f 717 685 645
f 523 717 645
f 523 711 717
f 693 711 525
f 692 693 653
f 526 665 653
f 636 649 539
f 690 636 667
f 728 690 701
f 700 728 701
f 734 407 700
f 734 759 402
f 542 541 540
f 539 649 540
f 315 734 402
f 96 103 100
f 106 108 100
f 106 118 110
f 99 96 13
f 12 101 13
f 259 248 252
f 259 262 255
f 248 318 315
f 162 255 167
f 685 766 744
f 541 542 531
f 542 676 665
f 717 771 685
f 741 717 711
f 693 755 711
f 666 692 653
f 692 755 693
f 665 666 653
f 661 649 636
f 636 690 661
f 728 699 690
f 700 407 728
f 315 407 734
f 540 648 542
f 543 540 649
f 97 96 100
f 100 108 110
f 108 106 110
f 110 118 146
f 13 96 26
f 12 13 11
f 246 248 259
f 255 161 259
f 247 318 248
f 318 317 315
f 161 255 162
f 685 767 766
f 647 676 542
f 676 706 665
f 771 767 685
f 762 771 717
f 711 755 741
f 741 761 717
f 714 692 666
f 714 755 692
f 665 714 666
f 661 691 649
f 690 691 661
f 699 691 690
f 407 699 728
f 315 361 407
f 543 648 540
f 647 542 648
f 649 691 543
f 27 96 97
f 97 100 98
f 100 110 98
f 110 146 119
f 26 96 27
f 11 14 12
f 11 13 23
f 246 247 248
f 166 246 259
f 161 163 259
f 242 318 247
f 317 361 315
f 318 327 317
f 647 706 676
f 706 713 665
f 761 762 717
f 714 769 755
f 713 714 665
f 699 747 691
f 407 384 699
f 361 384 407
f 543 647 648
f 691 727 543
f 27 97 98
f 110 107 98
f 107 110 119
f 119 146 138
f 16 14 11
f 23 13 22
f 246 242 247
f 166 169 246
f 163 166 259
f 243 318 242
f 317 384 361
f 317 327 343
f 318 326 327
f 397 706 647
f 706 714 713
f 769 714 706
f 747 727 691
f 747 699 384
f 727 647 543
f 27 98 50
f 98 107 61
f 107 119 138
f 146 139 138
f 15 16 11
f 23 22 24
f 242 246 169
f 242 241 243
f 243 250 318
f 317 343 384
f 343 327 384
f 250 326 318
f 326 319 327
f 712 397 647
f 397 765 706
f 768 769 706
f 747 364 727
f 349 747 384
f 727 709 647
f 28 27 50
f 50 98 61
f 107 138 61
f 138 139 133
f 11 18 15
f 23 24 25
f 168 242 169
f 241 242 168
f 241 244 243
f 243 245 250
f 327 349 384
f 250 319 326
f 319 349 327
f 720 397 712
f 720 712 647
f 399 765 397
f 385 706 765
f 385 768 706
f 727 364 709
f 349 364 747
f 709 720 647
f 61 138 132
f 132 138 133
f 133 139 120
f 18 11 20
f 18 17 15
f 4 23 25
f 25 24 28
f 168 165 241
f 240 244 241
f 244 245 243
f 250 245 249
f 250 249 319
f 319 364 349
f 399 397 720
f 765 399 385
f 403 709 364
f 399 720 709
f 54 61 132
f 132 133 120
f 120 139 136
f 19 20 11
f 5 18 20
f 5 17 18
f 4 1 23
f 3 4 25
f 25 28 38
f 236 241 165
f 236 240 241
f 240 245 244
f 245 238 249
f 319 249 330
f 319 330 364
f 399 378 385
f 381 403 364
f 403 399 709
f 58 54 132
f 132 120 128
f 120 136 129
f 136 139 141
f 19 11 21
f 1 20 19
f 20 2 5
f 1 19 23
f 3 25 29
f 29 25 38
f 28 47 38
f 165 171 236
f 236 239 240
f 239 245 240
f 245 237 238
f 249 238 251
f 330 249 251
f 330 251 364
f 375 378 399
f 364 399 381
f 381 399 403
f 58 132 126
f 120 126 128
f 132 128 126
f 136 141 137
f 19 21 23
f 1 2 20
f 3 29 34
f 29 38 30
f 38 47 37
f 236 171 239
f 235 245 239
f 237 234 238
f 235 237 245
f 364 251 399
f 251 375 399
f 126 120 122
f 137 141 149
f 3 34 7
f 29 31 34
f 29 30 31
f 30 38 37
f 171 235 239
f 170 234 237
f 171 237 235
f 122 120 121
f 62 126 122
f 137 149 92
f 141 148 149
f 7 34 6
f 31 32 34
f 31 30 37
f 171 170 237
f 120 129 121
f 121 129 122
f 122 123 62
f 137 92 153
f 148 151 149
f 6 34 33
f 31 35 32
f 32 35 34
f 31 37 35
f 122 129 127
f 62 123 130
f 122 124 123
f 153 92 154
f 136 137 153
f 149 151 91
f 6 33 9
f 33 34 35
f 35 37 36
f 122 127 124
f 129 125 127
f 62 130 80
f 130 123 125
f 123 124 125
f 154 92 156
f 158 153 154
f 136 153 135
f 8 6 9
f 9 33 10
f 33 35 41
f 36 39 35
f 36 37 42
f 124 127 125
f 125 129 136
f 80 130 81
f 125 131 130
f 156 92 159
f 157 154 156
f 134 153 158
f 81 158 154
f 125 136 135
f 135 153 134
f 33 41 10
f 35 40 41
f 39 40 35
f 40 39 36
f 36 42 40
f 42 37 43
f 80 81 79
f 81 130 158
f 125 135 131
f 130 131 135
f 159 92 95
f 160 156 159
f 154 157 160
f 157 156 160
f 158 135 134
f 81 154 160
f 10 41 60
f 41 40 60
f 40 42 44
f 37 48 43
f 43 45 42
f 64 80 79
f 79 81 78
f 130 135 158
f 95 94 159
f 160 159 69
f 60 59 10
f 40 52 60
f 40 44 51
f 42 45 44
f 43 48 46
f 43 46 45
f 76 64 79
f 77 79 78
f 78 81 67
f 159 94 93
f 69 159 70
f 10 59 63
f 60 52 59
f 40 51 52
f 44 45 51
f 48 47 46
f 45 46 49
f 64 76 65
f 76 79 77
f 73 77 78
f 78 67 68
f 67 81 66
f 159 93 155
f 159 155 70
f 59 57 63
f 59 52 57
f 52 51 55
f 45 55 51
f 46 47 56
f 37 47 48
f 45 49 55
f 49 46 53
f 65 76 74
f 76 77 71
f 72 77 73
f 75 73 78
f 68 67 66

