# https://github.com/mikedh/trimesh
v -0.07978925 -0.14995675 0.05002425
v -0.00583400 -0.10400300 0.06519150
v 0.07684600 -0.14691950 0.05587600
v 0.06462271 -0.14911288 0.05725587
v 0.05149200 -0.14984301 0.05869500
v 0.08685715 -0.14157099 0.05511813
v 0.08415975 -0.14179949 0.05508400
v 0.09634926 -0.13237779 0.05315582
v 0.04613850 -0.14842750 0.05934600
v 0.03881237 -0.14597887 0.06035313
v -0.07869209 -0.16175330 0.04663302
v -0.07649712 -0.16779913 0.04423350
v -0.07286550 -0.17596001 0.04397300
v -0.03566000 -0.18155900 0.05243100
v 0.00011850 -0.18210000 0.05367500
v 0.01554100 -0.18090774 0.05269675
v -0.01320600 -0.18050499 0.05270900
v -0.02060850 -0.18095400 0.05243550
v 0.03071600 -0.14299899 0.06157100
v 0.02080100 -0.13565700 0.06275600
v 0.01470277 -0.13288859 0.06410999
v -0.06927800 -0.15314600 0.05319500
v -0.04256950 -0.14744050 0.05933350
v -0.02533700 -0.13827299 0.06224900
v -0.01814050 -0.13263450 0.06345400
v -0.01369900 -0.12671250 0.06446000
v -0.00765363 -0.11696587 0.06547512
v -0.06071300 -0.15136600 0.05591300
v 0.07044400 -0.17715600 0.04489200
v 0.05381926 -0.17963542 0.04884366
v 0.05694284 -0.17027574 0.04863645
v 0.05267700 -0.16994400 0.04962200
v 0.03935525 -0.17970327 0.05035736
v 0.03622761 -0.17146880 0.05168236
v 0.04180456 -0.16100769 0.05314459
v 0.00854158 -0.17667177 0.05299005
v 0.02467100 -0.16661650 0.05330450
v 0.05185800 -0.16116400 0.05211900
v 0.03117900 -0.15822600 0.05466800
v 0.02818497 -0.15508723 0.05550743
v 0.01410650 -0.14719150 0.05695700
v 0.00751269 -0.13975485 0.05814167
v -0.02702350 -0.16046250 0.05414700
v 0.04186105 -0.14874439 0.05970582
v 0.05105800 -0.16423000 0.05124300
v -0.00427700 -0.11886500 0.06281400
v 0.02880900 -0.16051099 0.05421500
v 0.02726200 -0.14184600 0.06191800
v 0.07957400 -0.17457400 0.04308200
v 0.08746950 -0.16816750 0.04046150
v 0.08129367 -0.15658034 0.04817027
v 0.03660934 -0.18084288 0.05138174
v -0.01137497 -0.16626087 0.05381936
v 0.06975825 -0.16057775 0.04917250
v -0.01131743 -0.14254521 0.05748912
v -0.01148000 -0.13094075 0.06226050
v -0.04125150 -0.16009784 0.05317815
v -0.03106871 -0.17788678 0.05150692
v -0.02657429 -0.17883183 0.05188785
v -0.01727700 -0.18050499 0.05249800
v 0.10191550 -0.16027151 0.03755400
v 0.09456471 -0.16596213 0.03897686
v 0.10988300 -0.14149900 0.04301600
v 0.11371866 -0.14444668 0.03896990
v 0.11933320 -0.14537671 0.03385179
v 0.11331800 -0.15149800 0.03496675
v 0.10560705 -0.15838132 0.03624245
v 0.11866100 -0.14327399 0.03599900
v 0.06590203 -0.17817899 0.04592122
v -0.01245196 -0.13961986 0.05879564
v 0.12395039 -0.13955879 0.03369350
v 0.01119188 -0.16262825 0.05429588
v 0.02547615 -0.18099617 0.05198460
v 0.06526170 -0.15976171 0.05076455
v 0.05605325 -0.16253675 0.05100900
v 0.05916008 -0.15447632 0.05535110
v 0.04607013 -0.15776325 0.05407050
v 0.09058489 -0.14191240 0.05387073
v 0.10729200 -0.14002787 0.04519700
v 0.00602900 -0.13362600 0.05984500
v -0.06700600 -0.15781550 0.05095300
v -0.06137400 -0.17754400 0.04668600
v -0.06307150 -0.17223250 0.04699700
v -0.04809325 -0.17838550 0.04910525
v -0.04708200 -0.16393425 0.05164000
v -0.06639800 -0.15331200 0.05388600
v -0.04557250 -0.17143650 0.05049150
v 0.10203713 -0.15553263 0.04041836
v 0.08788938 -0.15460745 0.04691881
v -0.00825850 -0.17424700 0.05318000
v 0.02762875 -0.17637800 0.05183500
v 0.06231500 -0.17797400 0.04647450
v 0.03713175 -0.15446900 0.05631650
v 0.09514500 -0.16299350 0.04001400
v -0.04571300 -0.15482600 0.05568450
v -0.05520049 -0.16278698 0.05048707
v 0.06524685 -0.17537720 0.04555078
v 0.10409252 -0.15672844 0.03837700
v -0.03068547 -0.15691819 0.05477883
v -0.02307841 -0.15327641 0.05553387
f 22 81 86
f 22 11 81
f 81 11 12
f 96 81 12
f 28 81 96
f 95 28 96
f 57 95 96
f 57 96 85
f 87 85 96
f 87 96 84
f 96 83 84
f 57 85 58
f 85 84 58
f 53 57 58
f 53 58 90
f 90 58 59
f 17 90 59
f 59 60 17
f 59 18 60
f 59 14 18
f 17 60 18
f 59 58 14
f 58 84 14
f 53 90 72
f 72 100 53
f 40 100 72
f 41 100 40
f 42 100 41
f 42 55 100
f 55 24 100
f 24 23 100
f 100 23 99
f 100 99 43
f 99 57 43
f 23 57 99
f 70 24 55
f 46 70 55
f 46 27 70
f 27 56 70
f 27 26 56
f 26 70 56
f 26 25 70
f 2 27 46
f 24 70 25
f 42 46 55
f 46 42 80
f 21 80 42
f 21 42 20
f 20 42 41
f 48 20 41
f 19 48 41
f 40 19 41
f 19 40 93
f 93 40 77
f 44 93 77
f 4 44 77
f 4 77 76
f 76 77 74
f 74 77 75
f 74 75 54
f 54 75 31
f 75 32 31
f 75 45 32
f 75 35 45
f 38 35 75
f 77 35 38
f 45 35 32
f 32 35 34
f 35 36 34
f 35 37 36
f 47 37 35
f 35 39 47
f 39 40 47
f 40 39 35
f 34 36 91
f 36 16 91
f 91 16 73
f 52 91 73
f 36 15 16
f 34 91 52
f 34 52 33
f 32 34 33
f 31 32 33
f 31 33 30
f 31 30 97
f 97 30 92
f 69 97 92
f 29 97 69
f 49 97 29
f 54 97 49
f 51 54 49
f 51 4 54
f 3 4 51
f 6 3 51
f 6 51 78
f 78 51 89
f 78 89 79
f 89 88 79
f 94 88 89
f 88 94 98
f 94 61 98
f 98 61 67
f 66 98 67
f 94 62 61
f 88 98 66
f 65 88 66
f 64 88 65
f 64 63 88
f 68 63 64
f 64 65 68
f 71 68 65
f 79 88 63
f 8 78 79
f 89 51 50
f 8 6 78
f 8 7 6
f 7 3 6
f 51 49 50
f 30 69 92
f 54 31 97
f 4 74 54
f 4 76 74
f 77 40 35
f 44 19 93
f 10 19 44
f 9 10 44
f 9 44 5
f 47 40 72
f 100 43 53
f 53 43 57
f 23 95 57
f 23 28 95
f 96 12 83
f 82 83 12
f 82 12 13
f 22 1 11

