v -0.0562747 0.155735 0.0729025
v -0.0602104 0.156345 0.069168
v -0.0521613 0.155591 0.0763853
v -0.037502 0.151491 0.083288
v -0.0416701 0.151606 0.0798479
v -0.0435468 0.155455 0.0831229
v -0.0479573 0.155517 0.0797946
v -0.0539007 0.159504 0.0795828
v -0.058302 0.159613 0.0762363
v -0.0332948 0.151464 0.086908
v -0.0185622 0.143506 0.0916839
v -0.0237763 0.147544 0.0913022
v -0.0280162 0.147449 0.0873429
v -0.0146391 0.143883 0.0947178
v -0.0103101 0.14317 0.0958528
v -0.00581626 0.142573 0.0971882
v -0.00149009 0.142321 0.0970741
v 0.0290276 0.151789 0.0863592
v 0.0254904 0.154125 0.0912968
v 0.020903 0.152051 0.0937318
v -0.00989733 0.140265 0.0937193
v -0.0237976 0.13691 0.0525678
v 0.0264358 0.165704 0.0941217
v 0.0217431 0.165767 0.0969343
v 0.0169278 0.165892 0.0994539
v 0.0169054 0.171362 0.0991011
v 0.0216502 0.171221 0.096475
v 0.0211613 0.17651 0.0952209
v 0.0118538 0.171467 0.100967
v 0.0118426 0.165999 0.101248
v 0.0431614 0.148297 0.0668618
v -0.0669936 0.159167 0.0611901
v -0.0638602 0.157401 0.065255
v 0.0264297 0.171085 0.0939083
v 0.0260563 0.176426 0.092929
v -0.0620719 0.160568 0.0723863
v 0.0163205 0.150206 0.0962364
v 0.0215473 0.157635 0.0959825
v 0.0169431 0.155919 0.098447
v -0.0577371 0.152871 0.0655848
v -0.045867 0.151654 0.0764436
v -0.0314644 0.147607 0.08356
v 0.035509 0.15807 0.0868822
v 0.0507006 0.161378 0.0792515
v 0.0456881 0.160268 0.0818688
v 0.0406755 0.159158 0.0844861
v 0.057084 0.166578 0.0781712
v 0.0523245 0.166028 0.0817776
v -0.0224568 0.143521 0.0878016
v -0.0128474 0.140518 0.0912441
v 0.0553266 0.162149 0.0760025
v 0.0531966 0.15788 0.0731547
v 0.0487197 0.157343 0.0765711
v 0.0438284 0.156051 0.0790169
v 0.0389371 0.154759 0.0814627
v 0.0466536 0.153563 0.073978
v 0.0419108 0.152266 0.0761167
v 0.037168 0.150969 0.0782554
v 0.0324252 0.149672 0.0803941
v 0.0275811 0.14813 0.0823369
v 0.0260888 0.145067 0.0779368
v 0.0228843 0.145835 0.0843693
v 0.0215514 0.142839 0.0797864
v 0.0182841 0.143581 0.086291
v 0.0109433 0.143368 0.0940879
v 0.00664267 0.142436 0.0951294
v 0.00533159 0.139222 0.0895959
v 0.00108775 0.138572 0.0906716
v -0.00257394 0.139137 0.0916875
v -0.00623564 0.139701 0.0927034
v -0.000730557 0.136786 0.0845077
v 0.00372389 0.137279 0.0836561
v 0.00143197 0.136654 0.0777736
v -0.000859957 0.136029 0.0718911
v 0.00609333 0.137259 0.0769961
v 0.00393436 0.136608 0.0713717
v 0.00177538 0.135958 0.0657474
v -0.000550197 0.135373 0.0602737
v -0.00333152 0.134953 0.055849
v 0.00462362 0.134614 0.0541507
v 0.0229892 0.137772 0.0506692
v 0.0168662 0.13669 0.0518417
v 0.0107432 0.135608 0.0530142
v 0.0101477 0.133593 0.0481992
v 0.00321237 0.133293 0.0495065
v 0.0287471 0.139306 0.0497935
v 0.0339248 0.141999 0.0543496
v 0.0392305 0.144721 0.0588942
v 0.0339291 0.142892 0.0594424
v 0.0389088 0.145606 0.0635843
v 0.0437843 0.147695 0.0632335
v 0.0483433 0.150641 0.0654048
v 0.0448047 0.150793 0.070369
v 0.0397012 0.149008 0.0722743
v 0.0353532 0.147655 0.0739918
v 0.0443675 0.147063 0.0590702
v 0.0387021 0.146889 0.0684513
v 0.0342429 0.145482 0.0700408
v 0.0297837 0.144075 0.0716303
v 0.0250644 0.142677 0.0729376
v 0.0203228 0.141144 0.0740776
v 0.0158811 0.139587 0.0750746
v 0.0146474 0.138347 0.0694786
v 0.0132683 0.137344 0.0639068
v 0.0113822 0.138122 0.0760811
v 0.0237469 0.139878 0.0616233
v 0.0184215 0.138605 0.0627811
v 0.0293222 0.142515 0.065978
v 0.0289745 0.141184 0.0604594
v 0.024506 0.141072 0.0671675
v 0.0196897 0.139629 0.0683569
v 0.0341521 0.143986 0.0648063
v 0.0286766 0.140163 0.0549886
v 0.0344321 0.14123 0.0492268
v 0.0395604 0.143956 0.053842
v 0.0229924 0.138838 0.0561006
v 0.0171814 0.137598 0.0572105
v -0.00498879 0.133826 0.0512595
v -0.0147976 0.133414 0.0488136
v -0.0142471 0.135146 0.0536028
v -0.0108787 0.135387 0.0581567
v -0.00751026 0.135628 0.0627106
v -0.00414183 0.135869 0.0672645
v -0.0126832 0.136516 0.0657896
v -0.016388 0.136647 0.0613823
v -0.0200928 0.136779 0.056975
v -0.00600311 0.136494 0.0744127
v -0.00926843 0.136475 0.0701241
v -0.00795641 0.137163 0.081376
v -0.0112768 0.137128 0.0772928
v -0.0144115 0.137493 0.0731915
v -0.0175461 0.137858 0.0690902
v -0.0210992 0.138209 0.0649757
v -0.0251205 0.138545 0.0608463
v -0.0291424 0.138954 0.0568385
v -0.0299704 0.13744 0.0486831
v -0.033926 0.138093 0.0450731
v -0.033073 0.139579 0.0531464
v -0.0369258 0.140175 0.0493749
v -0.028983 0.140405 0.0647668
v -0.0328359 0.141001 0.0609952
v -0.0366887 0.141597 0.0572236
v -0.0405415 0.142193 0.053452
v -0.0403044 0.143615 0.0613007
v -0.0441572 0.144211 0.0575291
v -0.0408062 0.14103 0.045658
v -0.0447218 0.142215 0.0420111
v -0.0444312 0.143136 0.0497537
v -0.048623 0.143406 0.0383552
v -0.0483225 0.14433 0.0460915
v -0.0519351 0.14563 0.0422546
v -0.0480221 0.145254 0.0538279
v -0.0516346 0.146554 0.049991
v -0.051345 0.14754 0.0577541
v -0.054962 0.148865 0.0539281
v -0.058293 0.151221 0.0578779
v -0.0613149 0.154013 0.0617053
v -0.0644857 0.155817 0.0576645
v -0.0675089 0.157798 0.0536083
v -0.0646352 0.154582 0.0421473
v -0.067668 0.157074 0.0459671
v -0.0613688 0.152075 0.0305806
v -0.0615599 0.152092 0.0383199
v -0.0520127 0.145114 0.0344794
v -0.0550709 0.147425 0.0306006
v -0.0583357 0.149737 0.0344642
v -0.0581603 0.149723 0.0267431
v -0.055259 0.147463 0.0383547
v -0.0584978 0.149827 0.0422347
v -0.0616856 0.152217 0.0460812
v -0.0643842 0.154605 0.0344112
v -0.0616573 0.15277 0.0539061
v -0.0648247 0.154639 0.0498977
v -0.0584767 0.150304 0.0500434
v -0.0546931 0.149911 0.0617214
v -0.0509919 0.149045 0.0655323
v -0.0539182 0.152142 0.0693678
v -0.0431971 0.148325 0.0727809
v -0.0471273 0.148554 0.0692086
v -0.0391856 0.148111 0.0762977
v -0.0499535 0.151822 0.0729433
v -0.0352895 0.147812 0.0799119
v -0.0325398 0.144673 0.0763258
v -0.0256553 0.143885 0.0839423
v -0.0287682 0.144327 0.0800471
v -0.0223984 0.141232 0.080184
v -0.0255496 0.14161 0.0763077
v -0.0120893 0.138995 0.0848
v -0.0153532 0.139203 0.0807608
v -0.0186171 0.139411 0.0767216
v -0.0159108 0.140755 0.0882041
v -0.0191748 0.140963 0.0841649
v -0.0219029 0.139595 0.0725976
v -0.0289019 0.142213 0.0724471
v -0.0327563 0.142624 0.0687653
v -0.036142 0.145189 0.0725516
v -0.0399963 0.145599 0.0688699
v -0.0438506 0.146002 0.0651991
v -0.0477016 0.146377 0.0615769
v -0.0552108 0.147923 0.0461441
v -0.0252687 0.139848 0.0685356
v -0.0365831 0.143056 0.0650697
v 0.0117927 0.136383 0.0583286
v 0.00993651 0.137149 0.0705049
v 0.00777469 0.136498 0.0648816
v 0.00561286 0.135848 0.0592582
v -0.00315071 0.136411 0.0789918
v -0.00469247 0.137218 0.0855986
v 0.00965466 0.140136 0.0886042
v 0.00817563 0.138127 0.0827315
v 0.0170961 0.141226 0.0807837
v 0.0140905 0.141576 0.0876404
v 0.0126263 0.139634 0.0817616
v 0.0308748 0.146317 0.0758549
v 0.0506194 0.154053 0.0695165
v 0.0339399 0.153634 0.0840578
v 0.0244343 0.149545 0.0885897
v 0.0197242 0.147101 0.0906636
v 0.0150571 0.144778 0.0926494
v 0.00247005 0.141905 0.0961731
v -0.00884697 0.138784 0.0887315
f 9 36 2 1
f 2 40 177 1
f 177 181 3 1
f 3 8 9 1
f 33 157 40 2
f 181 41 7 3
f 5 180 182 4
f 182 42 10 4
f 6 7 41 5
f 41 178 180 5
f 49 192 191 11
f 191 50 14 11
f 13 184 49 12
f 42 185 184 13
f 50 21 15 14
f 21 70 16 15
f 70 69 17 16
f 69 68 220 17
f 217 62 60 18
f 60 59 216 18
f 20 218 217 19
f 38 39 37 20
f 34 27 24 23
f 27 26 25 24
f 26 29 30 25
f 34 35 28 27
f 216 55 46 43
f 45 54 53 44
f 53 52 51 44
f 51 47 48 44
f 46 55 54 45
f 53 56 215 52
f 54 57 56 53
f 55 58 57 54
f 216 59 58 55
f 57 94 93 56
f 93 92 215 56
f 58 95 94 57
f 59 214 95 58
f 60 61 214 59
f 62 63 61 60
f 63 101 100 61
f 100 99 214 61
f 64 211 63 62
f 217 218 64 62
f 211 102 101 63
f 212 213 211 64
f 218 219 212 64
f 66 67 209 65
f 209 212 219 65
f 220 68 67 66
f 68 71 72 67
f 72 210 209 67
f 69 208 71 68
f 70 221 208 69
f 21 50 221 70
f 208 129 207 71
f 207 73 72 71
f 73 75 210 72
f 207 127 74 73
f 74 76 75 73
f 127 128 123 74
f 123 77 76 74
f 76 204 105 75
f 105 213 210 75
f 77 205 204 76
f 123 122 78 77
f 78 206 205 77
f 122 121 79 78
f 79 80 206 78
f 121 120 118 79
f 118 85 80 79
f 85 84 83 80
f 83 203 206 80
f 86 113 116 81
f 116 117 82 81
f 117 203 83 82
f 114 87 113 86
f 89 109 113 87
f 115 88 89 87
f 96 91 90 88
f 90 112 89 88
f 112 108 109 89
f 91 31 97 90
f 97 98 112 90
f 92 93 31 91
f 94 97 31 93
f 95 98 97 94
f 214 99 98 95
f 99 108 112 98
f 100 110 108 99
f 101 111 110 100
f 102 103 111 101
f 105 204 103 102
f 211 213 105 102
f 204 205 104 103
f 104 107 111 103
f 205 206 203 104
f 203 117 107 104
f 107 117 116 106
f 116 113 109 106
f 109 108 110 106
f 110 111 107 106
f 120 126 22 119
f 121 125 126 120
f 122 124 125 121
f 123 128 124 122
f 132 133 125 124
f 128 131 132 124
f 133 134 126 125
f 134 135 22 126
f 130 131 128 127
f 207 129 130 127
f 188 189 130 129
f 208 221 188 129
f 189 190 131 130
f 190 193 132 131
f 193 201 133 132
f 201 140 134 133
f 140 141 135 134
f 141 142 138 135
f 138 136 22 135
f 138 139 137 136
f 142 143 139 138
f 143 148 146 139
f 195 202 141 140
f 201 194 195 140
f 202 144 142 141
f 144 145 143 142
f 145 152 148 143
f 198 199 145 144
f 202 197 198 144
f 199 154 152 145
f 148 150 147 146
f 150 151 149 147
f 152 153 150 148
f 151 168 164 149
f 153 200 151 150
f 200 169 168 151
f 154 155 153 152
f 155 174 200 153
f 175 156 155 154
f 199 176 175 154
f 156 172 174 155
f 157 158 172 156
f 175 40 157 156
f 33 32 158 157
f 159 173 172 158
f 163 169 170 160
f 170 173 161 160
f 167 165 166 162
f 166 163 171 162
f 166 168 169 163
f 168 166 165 164
f 200 174 170 169
f 174 172 173 170
f 176 177 40 175
f 199 198 179 176
f 179 181 177 176
f 41 181 179 178
f 179 198 197 178
f 197 196 180 178
f 196 183 182 180
f 183 185 42 182
f 196 195 194 183
f 194 187 185 183
f 185 187 186 184
f 186 192 49 184
f 187 193 190 186
f 190 189 192 186
f 194 201 193 187
f 191 192 189 188
f 221 50 191 188
f 196 197 202 195
f 210 213 212 209
