# https://github.com/mikedh/trimesh
v 0.01627750 -0.10305600 0.11249800
v 0.00403100 -0.06778500 0.12369100
v -0.01613000 -0.10103650 0.11609300
v -0.02036625 -0.10976725 0.11264700
v -0.03480862 -0.13453350 0.09725650
v -0.00310170 -0.06756812 0.11787964
v -0.01093500 -0.08768850 0.12003250
v -0.03788000 -0.14201500 0.08859100
v -0.03887100 -0.14447300 0.08746300
v -0.04021125 -0.15016750 0.08604550
v -0.01998095 -0.11660990 0.12648337
v -0.03132362 -0.13539579 0.12532477
v -0.03111760 -0.14036074 0.12970512
v -0.01678431 -0.10502747 0.12238402
v -0.01433503 -0.10443366 0.12617526
v -0.01336013 -0.11102060 0.13042319
v -0.03443500 -0.14420199 0.12745801
v -0.03764725 -0.15040647 0.12520874
v -0.03047367 -0.14561971 0.13309772
v -0.03460442 -0.14088026 0.12482419
v -0.03798825 -0.14593423 0.12286965
v -0.00948255 -0.09851439 0.12897058
v -0.00840669 -0.08574344 0.12551597
v -0.02979979 -0.12976043 0.12196070
v -0.01057400 -0.08914100 0.12329700
v -0.03958848 -0.14242213 0.11531790
v -0.02328410 -0.11685755 0.11965107
v -0.04065864 -0.14519014 0.11466050
v -0.02951900 -0.12643699 0.11704200
v -0.01651544 -0.10318055 0.12006579
v -0.04275612 -0.14889260 0.10960638
v -0.03984612 -0.14027173 0.10590777
v -0.04366735 -0.15109154 0.09967532
v -0.04134693 -0.14266380 0.10484705
v -0.03997700 -0.14130600 0.09882000
v -0.04179791 -0.14657288 0.09291999
v -0.04334200 -0.15296259 0.10756504
v -0.04157587 -0.15209652 0.11635867
v -0.03823441 -0.13867180 0.09724499
v -0.04063454 -0.14661434 0.08951834
v -0.04287025 -0.15382044 0.10243819
v -0.04092900 -0.15755500 0.11472800
v -0.03777656 -0.15567340 0.12394515
v -0.02689918 -0.14873613 0.13721451
v -0.03214332 -0.15185568 0.13230037
v -0.03159112 -0.15676769 0.13216952
v -0.01728403 -0.12845599 0.13519263
v -0.03614250 -0.16534749 0.11785350
v -0.00852000 -0.10619500 0.13180000
v -0.02524845 -0.15413241 0.13850223
v -0.00567231 -0.09595771 0.13028642
v -0.02187069 -0.14106485 0.13833776
v -0.00358048 -0.07416176 0.12680069
v -0.01054999 -0.11769645 0.13444312
v -0.01937054 -0.15450032 0.14147500
v -0.02290753 -0.15739953 0.13896039
v -0.00896875 -0.14506300 0.14409425
v -0.01481018 -0.14774602 0.14354277
v -0.02805300 -0.16131900 0.13291299
v -0.00511788 -0.11456863 0.13545651
v -0.00251200 -0.09544300 0.13113449
v -0.01147900 -0.14842699 0.14426100
v -0.01303950 -0.15630050 0.14358400
v -0.02746800 -0.16607751 0.13049700
v -0.02390725 -0.16675481 0.13262806
v -0.01095200 -0.15138800 0.14465301
v -0.01979700 -0.16415900 0.13727300
v -0.01037400 -0.17191450 0.13577675
v 0.00737152 -0.07787648 0.12362145
v 0.01178387 -0.09499126 0.12422299
v 0.01597800 -0.10803700 0.12513800
v 0.01739300 -0.10782200 0.12180300
v 0.00839689 -0.09361178 0.12795327
v 0.00597093 -0.09323676 0.12950984
v 0.01328128 -0.09546233 0.11995754
v 0.01696218 -0.10493757 0.11982892
v 0.01016150 -0.10076200 0.12847000
v 0.00086456 -0.09443976 0.13128347
v 0.00405400 -0.11000100 0.13414675
v 0.00061200 -0.12723300 0.13957100
v -0.00037500 -0.13185699 0.14109300
v -0.00354800 -0.13845700 0.14299700
v -0.00320069 -0.12108532 0.13750137
v -0.00105654 -0.10183677 0.13269410
f 31 33 37
f 33 41 37
f 31 37 38
f 38 28 31
f 26 28 38
f 21 26 38
f 21 38 18
f 18 38 43
f 43 38 42
f 43 42 48
f 43 48 64
f 46 43 64
f 59 46 64
f 59 64 65
f 68 65 64
f 67 65 68
f 45 43 46
f 45 46 50
f 50 46 56
f 50 56 55
f 63 55 56
f 63 56 65
f 58 55 63
f 66 58 63
f 62 58 66
f 57 58 62
f 60 58 57
f 60 54 58
f 60 51 54
f 2 51 60
f 2 53 51
f 51 49 54
f 49 16 54
f 16 47 54
f 54 47 52
f 47 11 52
f 11 13 52
f 52 13 19
f 52 19 44
f 58 52 44
f 44 50 58
f 19 18 44
f 44 18 45
f 13 18 19
f 13 17 18
f 11 12 13
f 12 20 13
f 13 20 21
f 21 17 13
f 20 12 21
f 12 24 21
f 11 24 12
f 11 27 24
f 24 27 26
f 26 27 29
f 30 29 27
f 30 3 29
f 7 3 30
f 3 4 29
f 4 5 29
f 29 5 32
f 32 5 34
f 26 32 34
f 5 39 34
f 34 39 35
f 39 36 35
f 35 36 34
f 34 36 33
f 39 5 36
f 5 8 36
f 36 8 9
f 9 40 36
f 40 10 36
f 36 10 41
f 9 10 40
f 14 30 27
f 15 30 14
f 23 30 15
f 23 25 30
f 25 6 30
f 23 6 25
f 6 23 53
f 53 23 15
f 53 15 22
f 53 22 51
f 22 16 51
f 22 15 16
f 15 14 11
f 29 32 26
f 14 27 11
f 47 15 11
f 16 15 47
f 49 51 16
f 54 52 58
f 83 60 57
f 84 60 83
f 84 83 78
f 84 78 61
f 78 2 61
f 74 2 78
f 74 78 79
f 79 77 74
f 74 77 73
f 70 73 77
f 70 77 71
f 72 70 71
f 72 76 70
f 76 72 1
f 75 76 1
f 75 1 2
f 69 75 2
f 75 69 70
f 75 70 76
f 69 73 70
f 69 2 73
f 73 2 74
f 78 83 79
f 79 83 80
f 80 83 81
f 81 83 82
f 61 60 84
f 82 83 57
f 58 50 55
f 65 56 46
f 44 45 50
f 38 41 42
f 45 18 43
f 17 21 18
f 21 24 26
f 26 34 28
f 28 34 31
f 31 34 33

