v 0.31416975 -0.484412875 0.040404375
v 0.3199625 -0.476508375 0.0398839875
v 0.324707875 -0.462302125 0.0350024125
v 0.30463075 -0.474894 0.08922285
v 0.311643046875 -0.473342609375 0.07626450625
v 0.315704625 -0.46133 0.0780986
v 0.30933875 -0.4615595 0.0903869375
v 0.302366875 -0.463506125 0.1000950375
v 0.323288 -0.453026 0.0341703625
v 0.323855625 -0.466651125 0.025085325
v 0.298137625 -0.470760875 -0.0489297
v 0.317932875 -0.466724125 -0.004356925
v 0.300097625 -0.472522125 0.0981334125
v 0.30119425 -0.482559875 0.0837959125
v 0.3047985 -0.484068875 0.073397925
v 0.308921875 -0.484383 0.06217135
v 0.311779625 -0.48497825 0.0508356
v 0.317592875 -0.472403125 0.0629027
v 0.31986175 -0.47444425 0.051614175
v 0.31960725 -0.463034625 0.0666659375
v 0.314772125 -0.480434375 -0.00011095225
v 0.32105525 -0.4667533125 0.0102605771406
v 0.303524625 -0.471545375 -0.0387754
v 0.308971125 -0.47047775 -0.02692405
v 0.31421725 -0.469379125 -0.014991665
v 0.294419625 -0.484913625 -0.047596525
v 0.289541609375 -0.4731026875 -0.060746534375
v 0.3069405 -0.456258 -0.028814325
v 0.320487625 -0.47596275 0.0232266625
v 0.297264375 -0.461033625 -0.049040425
v 0.30260425 -0.45863475 -0.039131925
v 0.28920884375 -0.46038034375 -0.0612780109375
v 0.28138953125 -0.461037671875 -0.0717185828125
v 0.27294725 -0.461455609375 -0.0816019546875
v 0.273233125 -0.474263734375 -0.0811599203125
v 0.271573625 -0.48680925 -0.0789200625
v 0.242074125 -0.48824 -0.1036784875
v 0.23288575 -0.487088875 -0.11028825
v 0.253895421875 -0.475199234375 -0.098658275
v 0.264051796875 -0.474747 -0.090441284375
v 0.263764734375 -0.46185578125 -0.0908513515625
v 0.24337096875 -0.462807421875 -0.107167
v 0.252396 -0.449478125 -0.0983386
v 0.2708985 -0.448769875 -0.080300775
v 0.279012375 -0.448565 -0.0705542625
v 0.286274375 -0.447975375 -0.0599906625
v 0.292317 -0.44731575 -0.0488503375
v 0.29807025 -0.446660375 -0.03761185
v 0.242275125 -0.449976875 -0.1064381125
v 0.209657125 -0.46413425 -0.12671575
v 0.199140125 -0.462862875 -0.13117225
v 0.198582 -0.453173625 -0.130658125
v 0.20884875 -0.4512225 -0.125988625
v 0.317865 -0.478936 0.012338612125
v 0.22038625 -0.450817375 -0.120147625
v 0.231404625 -0.4504295 -0.11344825
v 0.262000375 -0.449039125 -0.089613425
v 0.253825609375 -0.462308953125 -0.0993456875
v 0.23127325 -0.4649185 -0.115311875
v 0.221247875 -0.463701375 -0.120824125
v 0.232428 -0.476072 -0.113344125
v 0.24332459375 -0.475648984375 -0.106273484375
v 0.25239575 -0.487791625 -0.09603805
v 0.262606875 -0.487336375 -0.088211575
v 0.303622625 -0.447534125 -0.027897925
v 0.32034325 -0.454091 0.00937327
v 0.32255875 -0.452927125 0.02238664875
v 0.3178525 -0.45662425 -0.00167252625
v 0.281763140625 -0.473730859375 -0.0712567375
v 0.27972625 -0.486253625 -0.068867125
v 0.2873465 -0.4856435 -0.0584301625
v 0.30056 -0.483992125 -0.03616935
v 0.3061545 -0.482907875 -0.024457225
v 0.310807 -0.481675125 -0.012389000375
v 0.3056415 -0.4617975 0.0961794
v 0.30777225 -0.4675825625 0.0892851375
v 0.3025965 -0.4738175 0.0937299
v 0.30027 -0.468083 0.10050075
v 0.308900875 -0.4733089375 0.08221845
v 0.3084526875 -0.4788129375 0.07491725625
v 0.3023165 -0.483939 0.07907575
v 0.3030645 -0.4786765 0.0865449
v 0.3140150625 -0.473471 0.0702508
v 0.312731 -0.4791420625 0.063245875
v 0.3070075 -0.4842045 0.06777595
v 0.3184215 -0.4741395 0.0580689
v 0.3158206875 -0.47971125 0.0512248875
v 0.31052 -0.4846415 0.05654565
v 0.3206115 -0.4748495 0.0448962
v 0.3172065 -0.480574 0.03854655
v 0.3126785 -0.4853915 0.04497795
v 0.31390575 -0.4674435 0.07726759375
v 0.318311 -0.4613935 0.07165825
v 0.318678 -0.467703 0.0647579
v 0.323301625 -0.4591403125 0.022795636875
v 0.3216325 -0.453555 0.015836745
v 0.3210244375 -0.460462125 0.00971769625
v 0.3223605625 -0.4660446875 0.016743980625
v 0.3188645 -0.454607 0.003000555
v 0.3179635 -0.461664 -0.0030371
v 0.3195719375 -0.4674375625 0.0038626804375
v 0.316633875 -0.474312375 -0.001399771125
v 0.316424 -0.4797195 0.0060834485
v 0.3197853125 -0.472884625 0.0112003673125
v 0.31912 -0.4780945 0.0186804
v 0.3222665 -0.4713085 0.02409525
v 0.2958783125 -0.4786889375 -0.04892166875
v 0.2975815 -0.4844755 -0.04193885
v 0.3020423125 -0.47776875 -0.037472375
v 0.300573 -0.4720325 -0.0445897
v 0.3034485 -0.483471 -0.03035115
v 0.3075628125 -0.4766928125 -0.0256906375
v 0.3062915 -0.471021 -0.0328709
v 0.3085855 -0.4822985 -0.01846055
v 0.312512125 -0.475527125 -0.0136903326875
v 0.311661 -0.469934 -0.0209827
v 0.3128845 -0.48107 -0.0062704515
v 0.316496 -0.4688025 -0.00889576
v 0.293290625 -0.4727700625 -0.05540134375
v 0.2886235625 -0.4793931875 -0.05971535625
v 0.290981 -0.485299 -0.05307925
v 0.2969195 -0.466009 -0.0504113
v 0.2926706875 -0.460003375 -0.055807225
v 0.289741625 -0.4667318125 -0.06126968125
v 0.2854126875 -0.460734 -0.06657451875
v 0.281891625 -0.4673806875 -0.0717415125
v 0.2857238125 -0.4734261875 -0.06605469375
v 0.2809226875 -0.48001 -0.0702039375
v 0.283597 -0.485959 -0.0636924
v 0.3009315 -0.446334 -0.0319805
v 0.30033725 -0.4526475625 -0.0383718875
v 0.305447 -0.4581155 -0.0333401
v 0.305979 -0.4517865 -0.0269214
v 0.2952035 -0.4469875 -0.0432347
v 0.294306 -0.453414375 -0.04965059375
v 0.299518 -0.4590915 -0.044823
v 0.2893965 -0.4476455 -0.05446005
v 0.2879285 -0.4541480625 -0.0607647375
v 0.282783 -0.448304 -0.065369
v 0.28033825 -0.45478 -0.07124826875
v 0.2750525 -0.448692 -0.07550565
v 0.2720461875 -0.4550985 -0.0810751
v 0.2772466875 -0.4612646875 -0.0767320375
v 0.2733550625 -0.4678696875 -0.08163386875
v 0.2775855 -0.474007 -0.07628358125
v 0.2665455 -0.4488835 -0.08501725
v 0.2629844375 -0.45543675 -0.09034765
v 0.2684543125 -0.461651 -0.08631540625
v 0.2641375 -0.468317625 -0.09089400625
v 0.26874825 -0.4745101875 -0.08591045
v 0.2634566875 -0.481068625 -0.08945885625
v 0.2672345 -0.4870795 -0.08372335
v 0.2725449375 -0.48056075 -0.0801691875
v 0.275728 -0.4865355 -0.0739555
v 0.2532606875 -0.4815218125 -0.097489625
v 0.2486525 -0.475425875 -0.1025365625
v 0.24278625 -0.481966125 -0.10509865
v 0.247254 -0.4880125 -0.09988945
v 0.237900375 -0.4758628125 -0.109849125
v 0.2319745 -0.482414 -0.1121865
v 0.2367685 -0.4884815 -0.1072985
v 0.258875375 -0.462074875 -0.09518875
v 0.25406975 -0.468771125 -0.099261075
v 0.2590646875 -0.4749748125 -0.0946585375
v 0.2486548125 -0.4625586875 -0.10334025
v 0.243515375 -0.4692453125 -0.1069576625
v 0.257587 -0.48757 -0.09223095
v 0.25727 -0.449243 -0.09404765
v 0.2532049375 -0.4558841875 -0.098959775
v 0.24742 -0.4497275 -0.10250495
v 0.24290375 -0.456387625 -0.1069173125
v 0.2368945 -0.450212 -0.1100295
v 0.2320280625 -0.456843375 -0.11400075
v 0.2379820625 -0.4630385 -0.1108205
v 0.2326395 -0.469678 -0.114112
v 0.2208170625 -0.457259375 -0.120485875
v 0.214677 -0.4510195 -0.123173
v 0.2092529375 -0.457678375 -0.1263521875
v 0.215484 -0.4639215 -0.123839
v 0.202946 -0.4514165 -0.1286435
v 0.19737 -0.458066 -0.131553
v 0.2037225 -0.4643335 -0.12936
v 0.2269935 -0.46348 -0.1177655
v 0.225932 -0.450626 -0.1168635
v 0.324654 -0.46451 0.02999605
v 0.3240635 -0.4574445 0.0362794
v 0.3229485 -0.4521355 0.02901865
v 0.3127035 -0.4613945 0.08435075
v 0.304119 -0.4678075 0.09495465
v 0.3058405 -0.478731 0.0807313
v 0.31073725 -0.47894975 0.069102325
v 0.31447075 -0.4793905 0.057307275
v 0.316645 -0.4801205 0.044937075
v 0.316389 -0.46754425 0.071043475
v 0.32232725 -0.4598365 0.0162045975
v 0.3195395 -0.461068 0.0033183975
v 0.31831925 -0.47362425 0.00485984425
v 0.321071 -0.47210625 0.017626425
v 0.29907725 -0.478254 -0.043264275
v 0.30487 -0.477246 -0.031611025
v 0.31012325 -0.47611625 -0.019721625
v 0.31469025 -0.47493625 -0.00758310575
v 0.292349 -0.47906075 -0.0543795
v 0.2933795 -0.4663745 -0.055866375
v 0.285908 -0.46707275 -0.06656945
v 0.28483625 -0.47971 -0.065006825
v 0.30318925 -0.45222475 -0.0326603
v 0.29736075 -0.4530395 -0.04402885
v 0.29121925 -0.453786 -0.055256525
v 0.28426175 -0.45449425 -0.066093325
v 0.27627725 -0.45496075 -0.07623555
v 0.2777055 -0.467639 -0.0767617
v 0.2676125 -0.45525525 -0.08578685
v 0.26884575 -0.46809475 -0.086361875
v 0.26812325 -0.480821 -0.084945325
v 0.2768185 -0.480292 -0.075256725
v 0.24805525 -0.48174375 -0.1013476
v 0.23740775 -0.48218975 -0.108684
v 0.25919025 -0.46854175 -0.09517855
v 0.24884175 -0.46900975 -0.10318715
v 0.2584485 -0.4812995 -0.0935835
v 0.25817025 -0.45564875 -0.09473435
v 0.2481235 -0.456136 -0.10303675
v 0.2375235 -0.4566225 -0.1105535
v 0.23809975 -0.4694655 -0.1105735
v 0.2150805 -0.4574705 -0.123506
v 0.20333425 -0.457875 -0.12900175
v 0.22646275 -0.457053 -0.1173145
v 0.32380125 -0.45832275 0.02950735
v 0.311034 -0.46745875 0.0833688
f 8 75 189 78
f 7 76 189 75
f 4 77 189 76
f 13 78 189 77
f 4 79 190 82
f 5 80 190 79
f 15 81 190 80
f 14 82 190 81
f 5 83 191 80
f 18 84 191 83
f 16 85 191 84
f 15 80 191 85
f 18 86 192 84
f 19 87 192 86
f 17 88 192 87
f 16 84 192 88
f 19 89 193 87
f 2 90 193 89
f 1 91 193 90
f 17 87 193 91
f 5 92 194 83
f 6 93 194 92
f 20 94 194 93
f 18 83 194 94
f 10 95 195 98
f 67 96 195 95
f 66 97 195 96
f 22 98 195 97
f 66 99 196 97
f 68 100 196 99
f 12 101 196 100
f 22 97 196 101
f 12 102 197 101
f 21 103 197 102
f 54 104 197 103
f 22 101 197 104
f 54 105 198 104
f 29 106 198 105
f 10 98 198 106
f 22 104 198 98
f 11 107 199 110
f 26 108 199 107
f 72 109 199 108
f 23 110 199 109
f 72 111 200 109
f 73 112 200 111
f 24 113 200 112
f 23 109 200 113
f 73 114 201 112
f 74 115 201 114
f 25 116 201 115
f 24 112 201 116
f 74 117 202 115
f 21 102 202 117
f 12 118 202 102
f 25 115 202 118
f 11 119 203 107
f 27 120 203 119
f 71 121 203 120
f 26 107 203 121
f 11 122 204 119
f 30 123 204 122
f 32 124 204 123
f 27 119 204 124
f 32 125 205 124
f 33 126 205 125
f 69 127 205 126
f 27 124 205 127
f 69 128 206 127
f 70 129 206 128
f 71 120 206 129
f 27 127 206 120
f 65 130 207 133
f 48 131 207 130
f 31 132 207 131
f 28 133 207 132
f 31 131 208 136
f 48 134 208 131
f 47 135 208 134
f 30 136 208 135
f 47 137 209 135
f 46 138 209 137
f 32 123 209 138
f 30 135 209 123
f 46 139 210 138
f 45 140 210 139
f 33 125 210 140
f 32 138 210 125
f 45 141 211 140
f 44 142 211 141
f 34 143 211 142
f 33 140 211 143
f 34 144 212 143
f 35 145 212 144
f 69 126 212 145
f 33 143 212 126
f 44 146 213 142
f 57 147 213 146
f 41 148 213 147
f 34 142 213 148
f 41 149 214 148
f 40 150 214 149
f 35 144 214 150
f 34 148 214 144
f 40 151 215 150
f 64 152 215 151
f 36 153 215 152
f 35 150 215 153
f 36 154 216 153
f 70 128 216 154
f 69 145 216 128
f 35 153 216 145
f 63 155 217 158
f 39 156 217 155
f 62 157 217 156
f 37 158 217 157
f 62 159 218 157
f 61 160 218 159
f 38 161 218 160
f 37 157 218 161
f 40 149 219 164
f 41 162 219 149
f 58 163 219 162
f 39 164 219 163
f 58 165 220 163
f 42 166 220 165
f 62 156 220 166
f 39 163 220 156
f 63 167 221 155
f 64 151 221 167
f 40 164 221 151
f 39 155 221 164
f 57 168 222 147
f 43 169 222 168
f 58 162 222 169
f 41 147 222 162
f 58 169 223 165
f 43 170 223 169
f 49 171 223 170
f 42 165 223 171
f 49 172 224 171
f 56 173 224 172
f 59 174 224 173
f 42 171 224 174
f 59 175 225 174
f 61 159 225 175
f 62 166 225 159
f 42 174 225 166
f 60 176 226 179
f 55 177 226 176
f 53 178 226 177
f 50 179 226 178
f 53 180 227 178
f 52 181 227 180
f 51 182 227 181
f 50 178 227 182
f 60 183 228 176
f 59 173 228 183
f 56 184 228 173
f 55 176 228 184
f 10 185 229 95
f 3 186 229 185
f 9 187 229 186
f 67 95 229 187
f 6 92 230 188
f 5 79 230 92
f 4 76 230 79
f 7 188 230 76
