v 0.17224625 0.102611825 -0.028103375
v 0.179556625 0.0940651625 -0.0279085375
v 0.186483875 0.0832650375 -0.025851275
v 0.192579375 0.0718853125 -0.02357365
v 0.20290125 0.0481517875 -0.0186235375
v 0.192911640625 0.05932500625 -0.0099658201375
v 0.180690875 0.0836332 -0.01340258875
v 0.187703484375 0.0709255828125 -0.0123849887469
v 0.175418125 0.0932273 -0.0163492375
v 0.16907025 0.101681525 -0.019401925
v 0.174493625 0.0665915 0.00461853375
v 0.175489625 0.057704 0.00808446125
v 0.185952640625 0.057890209375 -0.00024891316875
v 0.179741875 0.070721775 -0.0018362475
v 0.190281453125 0.0461238234375 0.00220121783125
v 0.193699078125 0.0338082234375 0.0043134009375
v 0.201441640625 0.0350540125 -0.00513863109375
v 0.210967 0.023402975 -0.0136839125
v 0.217659125 0.00916252 -0.0215807375
v 0.220770375 -0.0020714425 -0.020974675
v 0.234516625 -0.068884175 -0.01796623625
v 0.244817 -0.140448 0.001065706875
v 0.238770125 -0.2003815 -0.01893420375
v 0.24141375 -0.17600425 -0.00141254
v 0.23663375 -0.177200421875 0.011007435
v 0.2385335 -0.209865375 -0.0214979375
v 0.240888 -0.223703875 -0.0157565375
v 0.22836225 -0.214754375 0.005457795
v 0.230255296875 -0.200899484375 0.00500865765625
v 0.233419171875 -0.18901846875 0.008027106875
v 0.2273045 -0.1898456875 0.0198652396875
v 0.223030203125 -0.178992546875 0.0345733859375
v 0.21660409375 -0.201728296875 0.0268583921875
v 0.20856453125 -0.202294671875 0.0364284703125
v 0.2116569375 -0.191323734375 0.0410605359375
v 0.201819796875 -0.192301765625 0.050383565625
v 0.199417515625 -0.203078796875 0.044841821875
v 0.189181390625 -0.20414746875 0.05200334375
v 0.1873905 -0.2154185 0.046073875
v 0.16631 -0.195558625 0.067094275
v 0.16572675 -0.206327625 0.0595463875
v 0.166508 -0.183373 0.0730014625
v 0.1787246875 -0.19458984375 0.063934103125
v 0.17785646875 -0.205518109375 0.0569797609375
v 0.191983953125 -0.182087125 0.062959234375
v 0.203780453125 -0.181195109375 0.0547349875
v 0.224832140625 -0.16652609375 0.0372723453125
v 0.238886734375 -0.165123734375 0.0132285676562
v 0.23981503125 -0.15293134375 0.014349291875
v 0.24469275 -0.152134125 0.0015722225
v 0.2440685 -0.128832375 -0.00103854875
v 0.242685 -0.11720175 -0.004520368125
v 0.240967 -0.105150375 -0.00836077125
v 0.227208625 -0.0413112625 -0.013697675
v 0.228843125 -0.05436865 -0.01102417375
v 0.218111421875 -0.0156299625 -0.00728896015625
v 0.216244578125 -0.0025252365625 -0.0093817646875
v 0.223422375 -0.0150610425 -0.0186016625
v 0.20480296875 0.0224478276562 -0.00290266578125
v 0.19641228125 0.02116850375 0.0060520740625
v 0.209138703125 -0.00348914921875 0.00074326
v 0.21034028125 -0.0165276120313 0.002241618125
v 0.22181528125 -0.0547710828125 -0.00127368309375
v 0.222757046875 -0.067639465625 0.000997673
v 0.212382015625 -0.0552001375 0.006030411125
v 0.20071275 -0.0424898875 0.009775740625
v 0.20115409375 -0.0673572328125 0.0108000307813
v 0.2014765625 -0.0795343640625 0.012352805
v 0.180715625 -0.148040875 0.061618475
v 0.16849 -0.158442 0.0693085125
v 0.236386375 -0.215132375 -0.0111706375
v 0.166535375 -0.16987875 0.0737895125
v 0.17939728125 -0.1704001875 0.0705229625
v 0.192218671875 -0.17055628125 0.0648154140625
v 0.20612075 -0.16834975 0.0564432375
v 0.22497375 -0.153328984375 0.038308415625
v 0.2332884375 -0.153317765625 0.026771471875
v 0.23234696875 -0.140786546875 0.026104978125
v 0.23829009375 -0.129010625 0.0117729473437
v 0.23674721875 -0.117212015625 0.00777180117188
v 0.235116421875 -0.10526644375 0.00317313346875
v 0.226853125 -0.105016035938 0.0128533258125
v 0.220913109375 -0.1282829375 0.0326953625
v 0.2306189375 -0.128672015625 0.0232496346875
v 0.2233728125 -0.140404703125 0.03692221875
v 0.215019 -0.1532715 0.0483726625
v 0.201411625 -0.150603875 0.056951275
v 0.197951625 0.060105575 -0.02114685
v 0.2151545 -0.10567225 0.0209326375
v 0.21379525 -0.080286590625 0.0103236148438
v 0.20507625 -0.101565175 0.020703725
v 0.214666484375 -0.09247098125 0.0140951490625
v 0.208459 -0.115993625 0.03064255
v 0.209878625 -0.126887625 0.0390473375
v 0.1910525 -0.147559875 0.0595384875
v 0.177648875 -0.156271375 0.0672246375
v 0.1914709375 -0.159259953125 0.0638007578125
v 0.20406625 -0.159748 0.05759285
v 0.21273975 -0.139652875 0.045564375
v 0.216969 -0.114827875 0.0267327
v 0.225368828125 -0.0928563453125 0.0082225455
v 0.2239991875 -0.0804007890625 0.00424588471875
v 0.2317235 -0.0802739546875 -0.00495400059375
v 0.22868375 -0.116839703125 0.0183774760938
v 0.207258125 0.0359563125 -0.0161151375
v 0.18803625 -0.090305975 0.01289202875
v 0.1883065625 -0.078073103125 0.0113748489063
v 0.188463671875 -0.0657566421875 0.01094345
v 0.175615125 -0.0635226 0.0103954
v 0.175289 -0.075771175 0.00940919125
v 0.186715625 -0.0396391 0.012505625
v 0.188275046875 -0.0168340798438 0.01370007125
v 0.175624296875 -0.0035072215625 0.017742615625
v 0.16285125 -0.001956115 0.02066555
v 0.163719125 -0.012697815 0.019486825
v 0.17364125 -0.016874325 0.01691595
v 0.17687475 -0.026219775 0.0151444875
v 0.162963625 0.010007385 0.02121735
v 0.172882375 0.0322801375 0.016986925
v 0.1703575 0.0440365625 0.0153024875
v 0.187584671875 0.00788037796875 0.013853555625
v 0.186225125 0.020180365625 0.0129752104687
v 0.184050890625 0.03264508125 0.0116464404687
v 0.180955859375 0.044715446875 0.00975341265937
v 0.199630703125 -0.0044591628125 0.0085623409375
v 0.200163734375 -0.0172165446875 0.00922976140625
v 0.172895 0.0221437 0.0184434875
v 0.175370171875 0.008556776875 0.0181821203125
v 0.1640715 0.0203165375 0.0206879625
v 0.18670875 -0.0304828125 0.0131685375
v 0.188169015625 -0.004451218125 0.0140232317187
v 0.20045328125 -0.02985569375 0.00953703796875
v 0.176931125 -0.0412024875 0.0132307375
v 0.1754815 -0.0514636625 0.0119104125
v 0.188383953125 -0.05350528125 0.0112988984375
v 0.176259625 -0.086875775 0.0096282975
v 0.20040925 -0.0926851875 0.016348875
v 0.200910625 -0.054997415625 0.010078509375
v 0.21296928125 -0.067792521875 0.00766607628125
v 0.21952315625 -0.0287403546875 -0.00529984546875
v 0.22074115625 -0.0417852734375 -0.00329046325
v 0.211145125 -0.0295091703125 0.0035451546875
v 0.2118271875 -0.0424472328125 0.00476137690625
v 0.19844971875 0.0083648871875 0.0075597390625
v 0.207225171875 0.00951431953125 -0.001021628125
v 0.230779375 -0.0657461 -0.0099646675
v 0.233413515625 -0.0929121515625 -0.0010924198125
v 0.23948746875 -0.140853875 0.0139273727344
v 0.232692453125 -0.165908875 0.0255561625
v 0.214392875 -0.16610675 0.049573525
v 0.17936084375 -0.182897140625 0.0690836796875
v 0.166678125 -0.215828375 0.0536778
v 0.176774375 -0.21649175 0.05069865
v 0.214539375 -0.21325325 0.023997925
v 0.2385595 -0.228339625 -0.00118908
v 0.232014 -0.224080625 0.00634538125
v 0.19068609375 -0.19320725 0.0585002484375
v 0.197072625 -0.21450775 0.039803175
v 0.20613175 -0.2138325 0.0324272625
v 0.222045 -0.213010125 0.0142025175
v 0.220020953125 -0.19051378125 0.030881909375
v 0.2239235 -0.201319984375 0.0164547957812
v 0.21422278125 -0.1799606875 0.04527610625
v 0.230598546875 -0.17814353125 0.0231184095313
v 0.2439815 -0.230955875 -0.01045377625
v 0.236348 -0.19852775 -0.00861121125
v 0.238529125 -0.1880615 -0.004307275
v 0.243545875 -0.1640095 0.00062654125
v 0.236896 -0.0800118375 -0.01625955
v 0.23898075 -0.0926146125 -0.012368105
v 0.225441375 -0.0281810875 -0.0161358375
v 0.21426025 0.0122343125 -0.013134625
v 0.197537296875 0.047385115625 -0.00747263984062
v 0.168470625 0.0544502625 0.01240392375
v 0.1772255 0.079556575 -0.005674585
v 0.177487375 0.09364623125 -0.0221288875
v 0.171552 0.0980561 -0.01727675
v 0.169663 0.103336 -0.02398075
v 0.175736 0.0991013 -0.02885995
v 0.1843583125 0.08284124375 -0.0200926625
v 0.1789785 0.0879627 -0.0153634
v 0.1831325 0.08876415 -0.0269072
v 0.19025925 0.07144570625 -0.01787100875
v 0.184915375 0.076656625 -0.013504558125
v 0.189631 0.0776346 -0.0247361
v 0.1955720625 0.059769125 -0.015455205
v 0.1903725625 0.06515698125 -0.0111979668625
v 0.1953345 0.06602965 -0.0223759
v 0.2044908125 0.0355338875 -0.01052238625
v 0.1995646875 0.04126044375 -0.006290615625
v 0.20035425 0.04780693125 -0.012947673125
v 0.205161 0.0420935 -0.01736265
v 0.19530975 0.05340384375 -0.0087108762375
v 0.200486 0.05415105 -0.0198905
v 0.1941804375 0.04680938125 -0.0023992687375
v 0.1882005625 0.0520543875 0.00100151695
v 0.1896895 0.05866555 -0.00488095555
v 0.1836355 0.0637037 -0.001506517425
v 0.1846764375 0.070244425 -0.0073322112375
v 0.178609 0.0751382 -0.003644365
v 0.179013 0.0816097 -0.009550155
v 0.1817480625 0.0570984375 0.003882005075
v 0.175118 0.0620679 0.00653542
v 0.1772025 0.0686745 0.001373015
v 0.1757400625 0.044312475 0.012672205625
v 0.168588 0.04994855 0.01405945
v 0.1720225 0.0561001 0.010226445
v 0.179106875 0.05061150625 0.0086189687625
v 0.185838125 0.0453725375 0.0062575975125
v 0.1890995625 0.03315963125 0.008258674375
v 0.1826120625 0.03873420625 0.010768114375
v 0.1920975 0.04002610625 0.003306634375
v 0.19782875 0.0344592375 -0.000172868125
v 0.1915318125 0.020559651875 0.009766610625
v 0.18524775 0.02642536875 0.0123717575
v 0.1951365625 0.0275171625 0.005217151875
v 0.203217875 0.02879000625 -0.00399051375
v 0.2008793125 0.021825210625 0.001832193125
v 0.2091855 0.02972035 -0.0148883
v 0.2080533125 0.02295441 -0.00816213625
v 0.2108130625 0.0100623 -0.00606912875
v 0.2061065 0.016006879375 -0.001931489375
v 0.2126265 0.01702155 -0.01250375
v 0.2186979375 -0.00225677625 -0.015080976875
v 0.2150741875 0.00399297875 -0.010450544375
v 0.2159645 0.0106995 -0.01736335
v 0.219264 0.00436878 -0.0221776
v 0.2209464375 -0.01531656375 -0.01282412
v 0.217248875 -0.009070625 -0.008323884375
v 0.2221695 -0.00854787 -0.0197927
v 0.234497125 -0.08015231875 -0.010463098625
v 0.2308850625 -0.073856575 -0.006723295625
v 0.232616 -0.067331 -0.014006495
v 0.2358485 -0.0736551 -0.01809225
v 0.2423730625 -0.152562625 0.0079817925
v 0.2397880625 -0.146866875 0.014344045625
v 0.2422846875 -0.1406878125 0.0075405471875
v 0.2448755 -0.146274 0.001513715
v 0.2389635625 -0.134912375 0.0130868728125
v 0.241315 -0.1289675625 0.005459420625
v 0.2445385 -0.134634 0.0002111325
v 0.23707 -0.212684 -0.01596055
v 0.23507475 -0.2069745 -0.0079796475
v 0.2373885 -0.1994465 -0.013718815
v 0.239126 -0.2048095 -0.0220082
v 0.2360453125 -0.1885485 0.0018922025
v 0.235100125 -0.18312975 0.00958257125
v 0.239111375 -0.1766225 0.004815730625
v 0.240027 -0.1820195 -0.00279171
v 0.237910625 -0.1711899375 0.01223432125
v 0.2413268125 -0.1645918125 0.006944314375
v 0.242594 -0.1699975 -0.00026843
v 0.230508375 -0.189454375 0.014032865
v 0.2290483125 -0.1840484375 0.021565175625
v 0.233805625 -0.1776976875 0.017126006875
v 0.231821125 -0.1720879375 0.0244624875
v 0.236004625 -0.165554875 0.01944578125
v 0.2419855 -0.2303855 -0.005950355
v 0.236842875 -0.2218819375 -0.00445736875
v 0.2381335 -0.2190775 -0.0129028
v 0.2432265 -0.228196 -0.01433135
v 0.2228565625 -0.207144375 0.0152286325
v 0.2272085625 -0.201111 0.010847114375
v 0.229395875 -0.2070993125 0.004109974375
v 0.2255115 -0.213122 0.00893127
v 0.233096125 -0.2006959375 -0.00100221625
v 0.2324976875 -0.213789 -0.00136428125
v 0.2350245 -0.226673 0.003462055
v 0.2301615 -0.2192575 0.00580323
v 0.2255011875 -0.1955783125 0.018081055625
v 0.2317003125 -0.194907125 0.00640841875
v 0.2370155 -0.1941485 -0.00586057
v 0.2203676875 -0.2015159375 0.02177334375
v 0.2182341875 -0.19611125 0.0288022625
v 0.223799125 -0.190181875 0.02547999375
v 0.221642875 -0.184839125 0.0328222
v 0.2269840625 -0.1785671875 0.02893160625
v 0.2159986875 -0.19089225 0.03607576875
v 0.21306825 -0.1857359375 0.043299875
v 0.218805 -0.1794435 0.0400515375
v 0.215020875 -0.1739343125 0.0468331
v 0.220320625 -0.16692875 0.0427487375
v 0.2241131875 -0.1728793125 0.03608571875
v 0.2289621875 -0.166209375 0.03151991875
v 0.210435 -0.2135205 0.0283681
v 0.207286625 -0.2080111875 0.0343708375
v 0.2126956875 -0.2019865 0.031765575
v 0.2154521875 -0.2074616875 0.02532543125
v 0.2100885 -0.19678775 0.03871421875
v 0.2183985 -0.2130685 0.0192504
v 0.201676 -0.2141515 0.03624175
v 0.1982363125 -0.2087334375 0.042266
v 0.2041326875 -0.2026569375 0.04078065625
v 0.20063375 -0.1976635 0.0476436375
v 0.2069203125 -0.1918146875 0.045835175
v 0.2029104375 -0.1868078125 0.052773725
v 0.209197875 -0.18058475 0.0501571375
v 0.194436375 -0.20356575 0.04863165625
v 0.189958125 -0.19866125 0.055333625
v 0.196386375 -0.192721625 0.0546895875
v 0.1914115 -0.18769825 0.06104711875
v 0.1980206875 -0.1816711875 0.0590500125
v 0.1923265 -0.2149315 0.04310315
v 0.1883096875 -0.209753125 0.0489655
v 0.1822175 -0.2159645 0.04864755
v 0.17733175 -0.2109918125 0.0537624625
v 0.1836446875 -0.204853625 0.05481006875
v 0.178315875 -0.200096875 0.06050403125
v 0.184785 -0.193891625 0.06156255625
v 0.17294475 -0.1831635 0.07120359375
v 0.179097625 -0.18885875 0.06686880625
v 0.17254675 -0.195117 0.06567248125
v 0.1664555 -0.189671 0.0704843
v 0.1718469375 -0.2059748125 0.05844035
v 0.1660445 -0.2010155 0.063305
v 0.171028 -0.2169225 0.05210165
v 0.1654245 -0.211781 0.05624835
v 0.1729643125 -0.1701614375 0.07233943125
v 0.1794405 -0.1766985625 0.0703542625
v 0.1664945 -0.176685 0.07417215
v 0.185735625 -0.1825170625 0.066319675
v 0.1858383125 -0.1705510625 0.06797371875
v 0.1922530625 -0.17632675 0.06422159375
v 0.198469625 -0.1703580625 0.0611717625
v 0.204304625 -0.175477125 0.056188225
v 0.2103345 -0.168767 0.052969
v 0.215549 -0.1604 0.0485683
v 0.2201148125 -0.153301625 0.043454725
v 0.225127375 -0.1599595625 0.0380464125
v 0.2293589375 -0.1533508125 0.0327053625
v 0.2331889375 -0.1596335625 0.0263581875
v 0.2367803125 -0.1531805 0.02063265
v 0.2395180625 -0.15902725 0.013955511875
v 0.2442475 -0.1580505 0.001258295
v 0.2329688125 -0.14701725 0.026698925
v 0.2361604375 -0.1408724375 0.02013816875
v 0.2375408125 -0.123116875 0.0099359978125
v 0.239872125 -0.1172419375 0.0017446828125
v 0.2434355 -0.1230435 -0.0026718775
v 0.2359408125 -0.1112769375 0.005476134375
v 0.23821925 -0.10523466875 -0.002470678625
v 0.2418625 -0.1112415 -0.006415535
v 0.234268875 -0.0991353375 0.0009869345
v 0.236375125 -0.09279069375 -0.00660365425
v 0.2399975 -0.098916 -0.01035947
v 0.2255080625 -0.05456130625 -0.005980104875
v 0.2213003125 -0.048289525 -0.002289912375
v 0.2241554375 -0.0415258125 -0.008330361125
v 0.228037 -0.047848 -0.0123945
v 0.2201500625 -0.03527049375 -0.004297045625
v 0.2226626875 -0.02843906875 -0.01058283
v 0.2263455 -0.03475165 -0.014928
v 0.2267520625 -0.0675117625 -0.0033747255
v 0.2222738125 -0.06121778125 -0.0002200655
v 0.2296395 -0.06088 -0.009592395
v 0.2156619375 -0.02912825 -0.000556906875
v 0.210771 -0.0230241375 0.002911014375
v 0.21455825 -0.01605911625 -0.002238565625
v 0.2188565625 -0.022190025 -0.00628904875
v 0.209814875 -0.010010035625 0.001524370625
v 0.213029375 -0.00295995 -0.004071524375
v 0.22449 -0.0216115 -0.01737155
v 0.2082556875 0.00301730625 -0.000117725625
v 0.203107125 0.008909508125 0.00354015625
v 0.1975285625 0.0147778275 0.006852354375
v 0.19324375 0.007997478125 0.010980635
v 0.1870055 0.01401536875 0.013487944375
v 0.205510875 -0.016959036875 0.006066145625
v 0.19995275 -0.0108515475 0.008940119375
v 0.2046589375 -0.004041066875 0.004956104375
v 0.1991400625 0.00194943625 0.008115974375
v 0.2060388125 -0.02978953125 0.006905508125
v 0.2003211875 -0.02354298125 0.00941171875
v 0.218151125 -0.067753675 0.004726152
v 0.2126535625 -0.0615100375 0.00675868325
v 0.2174070625 -0.0550151 0.0027574445
v 0.21211375 -0.0488478625 0.00537530575
v 0.2166046875 -0.04213455625 0.001094602625
v 0.219191375 -0.08039925625 0.007748290625
v 0.2133700625 -0.07406255 0.008858544375
v 0.223346125 -0.07404598125 0.002506265
v 0.228200375 -0.0803579 -1.960925e-05
v 0.2072465 -0.0676941375 0.009672810625
v 0.2010224375 -0.06119630625 0.010367423125
v 0.20683875 -0.055232975 0.00846235
v 0.2008138125 -0.04876223125 0.009898801875
v 0.2064898125 -0.042596875 0.0076464
v 0.194731 -0.0543772625 0.0109041375
v 0.1883319375 -0.0474121625 0.0116909125
v 0.1946161875 -0.042032675 0.0111754675
v 0.1883505 -0.03528675 0.0126094
v 0.1944988125 -0.02959401875 0.01145262875
v 0.2005881875 -0.03617951875 0.009656765625
v 0.21150075 -0.03599226875 0.004156634375
v 0.194921125 -0.078908075 0.01211020625
v 0.1884103125 -0.07191695625 0.01103019375
v 0.194863375 -0.06668051875 0.0111014125
v 0.2013104375 -0.073478525 0.01141082
v 0.188441375 -0.0596197625 0.01104138125
v 0.207829125 -0.07999608125 0.01180786375
v 0.1949575 -0.09092825 0.01451155
v 0.1881776875 -0.08419748125 0.012050651875
v 0.2016375625 -0.08549893125 0.013779
v 0.2141841875 -0.0864311125 0.012048815
v 0.2085135625 -0.09196223125 0.01545920625
v 0.191221625 -0.1534489375 0.06191161875
v 0.18530625 -0.158692375 0.0658961375
v 0.1791985 -0.1521755 0.0644474
v 0.185166 -0.146954 0.0603483
v 0.179291875 -0.1641391875 0.0694321875
v 0.166751 -0.163226 0.0716467
v 0.173101 -0.157242 0.06833975
v 0.191880625 -0.164914875 0.0647219125
v 0.197742 -0.1595686875 0.06089851875
v 0.2044985 -0.164824 0.05768475
v 0.214019 -0.146346 0.04740595
v 0.2181760625 -0.1400570625 0.04141155625
v 0.224346125 -0.146783625 0.03795885
v 0.2280904375 -0.14063925 0.03175984375
v 0.222182125 -0.1342734375 0.035123025
v 0.225986875 -0.128546375 0.028325375
v 0.2315398125 -0.1346801875 0.0249540625
v 0.234722375 -0.1288694375 0.01771758875
v 0.2296559375 -0.122735875 0.02099515125
v 0.23299825 -0.117041875 0.013323054375
v 0.2277353125 -0.1109514375 0.015583473125
v 0.2313034375 -0.10519318125 0.0083243845
v 0.2260796875 -0.09897845625 0.010427217625
v 0.2297399375 -0.0929243625 0.003912382
v 0.22386225 -0.1167136875 0.0229141
v 0.2176285 -0.11051 0.0235686
v 0.2218383125 -0.1047361625 0.01663020875
v 0.21537175 -0.0983810625 0.01652362125
v 0.220314625 -0.09273711875 0.011649865
v 0.211372 -0.1332215 0.04274415
v 0.2154845625 -0.127672125 0.03611015
v 0.2082225 -0.120487 0.034576
v 0.2126435 -0.1153815 0.0285594
v 0.2197048125 -0.1223263125 0.029773325
v 0.196878 -0.1485035 0.05809065
v 0.2034225 -0.15468 0.05706685
v 0.2028175 -0.0970857 0.01883475
v 0.2100795 -0.103559 0.02069035
v 0.224674375 -0.08666735 0.006156706375
v 0.2325656875 -0.08662541875 -0.00307488675
v 0.2379435 -0.08632245 -0.01434315
v 0.174909 -0.08194205 0.009212365
v 0.181776625 -0.0769853375 0.010441514375
v 0.1812195 -0.08930945 0.011059565
v 0.175521 -0.06962605 0.0098162
v 0.1820443125 -0.06467825 0.0106926375
v 0.1755815 -0.05747675 0.0111088
v 0.1819535625 -0.0525142375 0.01162245625
v 0.1753765 -0.0454585 0.01275425
v 0.18181 -0.04043685 0.0129303
v 0.1817845 -0.0283303 0.01410995
v 0.1752765 -0.0215418 0.015983
v 0.181888875 -0.016263725 0.015289925
v 0.1882660625 -0.02296005625 0.01332540375
v 0.1755010625 -0.009534895 0.017287625
v 0.1819721875 -0.004079075625 0.016042375
v 0.188258625 -0.010651088125 0.01392536125
v 0.194094625 -0.004586896875 0.011557301875
v 0.1943925625 -0.017163289375 0.01172721
v 0.1686205 -0.0147953 0.0182338
v 0.162442 -0.00797496 0.0202253
v 0.1692455 -0.002772408125 0.0192518375
v 0.163009 0.00402934 0.0210239
v 0.169168 0.00923103875 0.01978679375
v 0.175576625 0.00252571375 0.0180476625
v 0.1815679375 0.00808668375 0.0162292125
v 0.1879584375 0.001725393125 0.014015640625
v 0.1685505 0.02124235 0.01961995
v 0.1750170625 0.01457883375 0.01812534375
v 0.1627635 0.016004 0.0211629
v 0.17857375 0.03239619375 0.0144601875
v 0.171762 0.0381559 0.0162425
v 0.1804794375 0.020212355625 0.01567728125
v 0.1737995 0.02638285 0.0176432
v 0.173644 0.0985787 -0.02306835
v 0.1810555 0.088363425 -0.0211353
v 0.18740575 0.07719065 -0.01900605
v 0.19298025 0.065640475 -0.016683085
v 0.202497 0.0417088 -0.0117266575
v 0.198038 0.053825825 -0.014200295
v 0.192021 0.05278835 -0.00362302995
v 0.187258 0.06448485 -0.00612824245
v 0.18189475 0.07594245 -0.0084601825
v 0.179504 0.06289315 0.00263460255
v 0.17394525 0.050213225 0.0114987475
v 0.18387725 0.051277 0.00510103755
v 0.18757725 0.03932875 0.0073175825
v 0.19609575 0.040684775 -0.001254475
v 0.19041 0.026879175 0.009058555
v 0.19944125 0.028177475 0.0008613325
v 0.20636025 0.02928465 -0.0093199975
v 0.209518 0.01653649 -0.0070914475
v 0.2173655 0.004229245 -0.0162202
v 0.21989325 -0.00877433 -0.0139496075
v 0.23355675 -0.073755475 -0.012258205
v 0.242458 -0.14660325 0.0079580075
v 0.24188475 -0.134816 0.00671679125
v 0.23722925 -0.20606525 -0.0148396825
v 0.2376425 -0.182589 0.0034199475
v 0.240352 -0.170617 0.005999285
v 0.232242 -0.183613 0.0156471275
v 0.2350705 -0.17166975 0.018404
v 0.2400595 -0.2247315 -0.0094265775
v 0.22622475 -0.2070855 0.009780455
v 0.23240475 -0.20719075 -0.0017365775
v 0.233527 -0.22026225 0.0006407125
v 0.2287335 -0.1952605 0.0123487225
v 0.23441975 -0.194533 0.0003127625
v 0.22198525 -0.19584575 0.0235528
v 0.22549925 -0.18444575 0.027288275
v 0.21752725 -0.18526275 0.038172725
v 0.21975475 -0.17334325 0.041605125
v 0.228152 -0.172476 0.03036395
v 0.21147125 -0.20771275 0.02998615
v 0.2142965 -0.19642325 0.03386775
v 0.2192565 -0.207271 0.020408275
v 0.20287125 -0.208344 0.0384599
v 0.2055265 -0.19721075 0.043306625
v 0.20818175 -0.186278 0.048163675
v 0.1954335 -0.19811725 0.051723925
v 0.197297 -0.18724425 0.057139625
v 0.193393 -0.20920175 0.0458018
v 0.18295475 -0.21039175 0.0516553
v 0.18424 -0.19938475 0.058258875
v 0.1727955 -0.18929925 0.068832375
v 0.1722225 -0.20060675 0.06207345
v 0.17144425 -0.2114275 0.05517825
v 0.1729705 -0.17671975 0.0724366
v 0.185324 -0.18828075 0.06428195
v 0.1858985 -0.1765655 0.06757835
v 0.19841275 -0.1759885 0.060396725
v 0.20985575 -0.174719 0.051680575
v 0.22044675 -0.16016675 0.043397625
v 0.22937375 -0.1598045 0.032334125
v 0.236576 -0.15937875 0.020216025
v 0.24199825 -0.15856625 0.0076245225
v 0.23661325 -0.14699925 0.020613575
v 0.24063225 -0.12312225 0.00374111625
v 0.23907025 -0.1112885 -0.000347075
v 0.23731175 -0.099053175 -0.0045626495
v 0.2248505 -0.0480522 -0.007172597
v 0.22342825 -0.03498845 -0.0094629375
v 0.22612275 -0.061046825 -0.0047433445
v 0.21514375 -0.022599975 -0.0013865825
v 0.21386825 -0.00950659 -0.0031329
v 0.2218525 -0.021876625 -0.0117025425
v 0.21199725 0.00356325 -0.0050563775
v 0.202089 0.0153881675 0.00272378
v 0.19248825 0.0142733325 0.0104322275
v 0.20515225 -0.0105087725 0.0055489525
v 0.2039705 0.002432395 0.004285385
v 0.20579525 -0.023380175 0.0065099
v 0.2177605 -0.061397 0.0036516705
v 0.21702275 -0.0485931 0.0019143355
v 0.218647 -0.0741 0.0061100275
v 0.2274535 -0.073959125 -0.0017866575
v 0.20702375 -0.06148245 0.0089877925
v 0.20666925 -0.04893875 0.0080281575
v 0.194672 -0.048214775 0.01101315
v 0.19455575 -0.035817425 0.01131352
v 0.206275 -0.03620445 0.0072782625
v 0.1948995 -0.0728143 0.01145305
v 0.194801 -0.060533675 0.010926
v 0.20752925 -0.073875 0.01058573
v 0.19494 -0.0849349 0.013202175
v 0.20810325 -0.086028425 0.013420525
v 0.18519525 -0.15281575 0.063371925
v 0.17301775 -0.163682 0.070720125
v 0.18558075 -0.16459875 0.067421525
v 0.19818775 -0.16494175 0.061367125
v 0.2193065 -0.14657775 0.042822975
v 0.22889 -0.14693775 0.032532425
v 0.22708375 -0.13452925 0.03033215
v 0.2355075 -0.1348375 0.0191858
v 0.233873 -0.12294325 0.015694655
v 0.232137 -0.11114825 0.0108088425
v 0.23051175 -0.099107475 0.0060420455
v 0.22281225 -0.1107355 0.01973245
v 0.221012 -0.09875715 0.013966985
v 0.21687775 -0.1338015 0.03912965
v 0.2140695 -0.12153 0.03248595
v 0.22491675 -0.12262925 0.02581555
v 0.19730725 -0.154068 0.05968165
v 0.209222 -0.0977877 0.0179594
v 0.2197275 -0.086614725 0.009585935
v 0.228966 -0.086677075 0.0018859505
v 0.23543675 -0.0864939 -0.0085743595
v 0.18151775 -0.083147825 0.0106850325
v 0.18195675 -0.070821125 0.010460025
v 0.1820255 -0.058579775 0.011091425
v 0.18188175 -0.046470175 0.0122518
v 0.18183275 -0.022307275 0.0147299
v 0.18196075 -0.010179125 0.0157301
v 0.19428875 -0.0108871075 0.011697145
v 0.1944535 -0.02338745 0.011618115
v 0.1689855 -0.008782075 0.0187742
v 0.1692955 0.0032301425 0.01960395
v 0.181847 0.0020108225 0.0162187
v 0.1688955 0.0152357425 0.019756625
v 0.177279 0.038383975 0.013647975
v 0.179636 0.0263176 0.015142975
v 0.18111775 0.0141446225 0.01604405
v 0.19376275 0.00170935 0.0113370625
v 0.21615 -0.035643025 0.000270505
f 2 176 480 179
f 9 177 480 176
f 10 178 480 177
f 1 179 480 178
f 3 180 481 182
f 7 181 481 180
f 9 176 481 181
f 2 182 481 176
f 4 183 482 185
f 8 184 482 183
f 7 180 482 184
f 3 185 482 180
f 88 186 483 188
f 6 187 483 186
f 8 183 483 187
f 4 188 483 183
f 105 189 484 192
f 17 190 484 189
f 173 191 484 190
f 5 192 484 191
f 173 193 485 191
f 6 186 485 193
f 88 194 485 186
f 5 191 485 194
f 173 195 486 193
f 15 196 486 195
f 13 197 486 196
f 6 193 486 197
f 13 198 487 197
f 14 199 487 198
f 8 187 487 199
f 6 197 487 187
f 8 199 488 184
f 14 200 488 199
f 175 201 488 200
f 7 184 488 201
f 14 198 489 204
f 13 202 489 198
f 12 203 489 202
f 11 204 489 203
f 124 205 490 208
f 120 206 490 205
f 174 207 490 206
f 12 208 490 207
f 13 196 491 202
f 15 209 491 196
f 124 208 491 209
f 12 202 491 208
f 16 210 492 212
f 123 211 492 210
f 124 209 492 211
f 15 212 492 209
f 173 190 493 195
f 17 213 493 190
f 16 212 493 213
f 15 195 493 212
f 60 214 494 216
f 122 215 494 214
f 123 210 494 215
f 16 216 494 210
f 17 217 495 213
f 59 218 495 217
f 60 216 495 218
f 16 213 495 216
f 105 219 496 189
f 18 220 496 219
f 59 217 496 220
f 17 189 496 217
f 172 221 497 223
f 145 222 497 221
f 59 220 497 222
f 18 223 497 220
f 20 224 498 227
f 57 225 498 224
f 172 226 498 225
f 19 227 498 226
f 58 228 499 230
f 56 229 499 228
f 57 224 499 229
f 20 230 499 224
f 169 231 500 234
f 103 232 500 231
f 146 233 500 232
f 21 234 500 233
f 50 235 501 238
f 49 236 501 235
f 148 237 501 236
f 22 238 501 237
f 148 239 502 237
f 79 240 502 239
f 51 241 502 240
f 22 237 502 241
f 26 242 503 245
f 71 243 503 242
f 166 244 503 243
f 23 245 503 244
f 167 246 504 249
f 30 247 504 246
f 25 248 504 247
f 24 249 504 248
f 25 250 505 248
f 48 251 505 250
f 168 252 505 251
f 24 248 505 252
f 30 253 506 247
f 31 254 506 253
f 164 255 506 254
f 25 247 506 255
f 164 256 507 255
f 149 257 507 256
f 48 250 507 257
f 25 255 507 250
f 165 258 508 261
f 155 259 508 258
f 71 260 508 259
f 27 261 508 260
f 160 262 509 265
f 162 263 509 262
f 29 264 509 263
f 28 265 509 264
f 29 266 510 264
f 166 243 510 266
f 71 267 510 243
f 28 264 510 267
f 71 259 511 267
f 155 268 511 259
f 156 269 511 268
f 28 267 511 269
f 162 270 512 263
f 31 253 512 270
f 30 271 512 253
f 29 263 512 271
f 30 246 513 271
f 167 272 513 246
f 166 266 513 272
f 29 271 513 266
f 162 273 514 270
f 33 274 514 273
f 161 275 514 274
f 31 270 514 275
f 161 276 515 275
f 32 277 515 276
f 164 254 515 277
f 31 275 515 254
f 161 278 516 276
f 35 279 516 278
f 163 280 516 279
f 32 276 516 280
f 163 281 517 280
f 150 282 517 281
f 47 283 517 282
f 32 280 517 283
f 47 284 518 283
f 149 256 518 284
f 164 277 518 256
f 32 283 518 277
f 154 285 519 288
f 159 286 519 285
f 34 287 519 286
f 33 288 519 287
f 34 289 520 287
f 35 278 520 289
f 161 274 520 278
f 33 287 520 274
f 162 262 521 273
f 160 290 521 262
f 154 288 521 290
f 33 273 521 288
f 159 291 522 286
f 158 292 522 291
f 37 293 522 292
f 34 286 522 293
f 37 294 523 293
f 36 295 523 294
f 35 289 523 295
f 34 293 523 289
f 36 296 524 295
f 46 297 524 296
f 163 279 524 297
f 35 295 524 279
f 37 298 525 294
f 38 299 525 298
f 157 300 525 299
f 36 294 525 300
f 157 301 526 300
f 45 302 526 301
f 46 296 526 302
f 36 300 526 296
f 158 303 527 292
f 39 304 527 303
f 38 298 527 304
f 37 292 527 298
f 39 305 528 304
f 153 306 528 305
f 44 307 528 306
f 38 304 528 307
f 44 308 529 307
f 43 309 529 308
f 157 299 529 309
f 38 307 529 299
f 42 310 530 313
f 151 311 530 310
f 43 312 530 311
f 40 313 530 312
f 43 308 531 312
f 44 314 531 308
f 41 315 531 314
f 40 312 531 315
f 44 306 532 314
f 153 316 532 306
f 152 317 532 316
f 41 314 532 317
f 72 318 533 320
f 73 319 533 318
f 151 310 533 319
f 42 320 533 310
f 151 321 534 311
f 45 301 534 321
f 157 309 534 301
f 43 311 534 309
f 151 319 535 321
f 73 322 535 319
f 74 323 535 322
f 45 321 535 323
f 74 324 536 323
f 75 325 536 324
f 46 302 536 325
f 45 323 536 302
f 75 326 537 325
f 150 281 537 326
f 163 297 537 281
f 46 325 537 297
f 150 327 538 282
f 86 328 538 327
f 76 329 538 328
f 47 282 538 329
f 76 330 539 329
f 77 331 539 330
f 149 284 539 331
f 47 329 539 284
f 149 331 540 257
f 77 332 540 331
f 49 333 540 332
f 48 257 540 333
f 49 235 541 333
f 50 334 541 235
f 168 251 541 334
f 48 333 541 251
f 77 335 542 332
f 78 336 542 335
f 148 236 542 336
f 49 332 542 236
f 79 337 543 240
f 80 338 543 337
f 52 339 543 338
f 51 240 543 339
f 80 340 544 338
f 81 341 544 340
f 53 342 544 341
f 52 338 544 342
f 81 343 545 341
f 147 344 545 343
f 170 345 545 344
f 53 341 545 345
f 55 346 546 349
f 63 347 546 346
f 141 348 546 347
f 54 349 546 348
f 141 350 547 348
f 140 351 547 350
f 171 352 547 351
f 54 348 547 352
f 146 353 548 355
f 64 354 548 353
f 63 346 548 354
f 55 355 548 346
f 140 356 549 359
f 142 357 549 356
f 62 358 549 357
f 56 359 549 358
f 62 360 550 358
f 61 361 550 360
f 57 229 550 361
f 56 358 550 229
f 58 362 551 228
f 171 351 551 362
f 140 359 551 351
f 56 228 551 359
f 61 363 552 361
f 145 221 552 363
f 172 225 552 221
f 57 361 552 225
f 145 364 553 222
f 144 365 553 364
f 60 218 553 365
f 59 222 553 218
f 144 366 554 365
f 121 367 554 366
f 122 214 554 367
f 60 365 554 214
f 62 368 555 360
f 126 369 555 368
f 125 370 555 369
f 61 360 555 370
f 125 371 556 370
f 144 364 556 371
f 145 363 556 364
f 61 370 556 363
f 142 372 557 357
f 132 373 557 372
f 126 368 557 373
f 62 357 557 368
f 64 374 558 354
f 139 375 558 374
f 65 376 558 375
f 63 354 558 376
f 65 377 559 376
f 143 378 559 377
f 141 347 559 378
f 63 376 559 347
f 102 379 560 381
f 90 380 560 379
f 139 374 560 380
f 64 381 560 374
f 146 232 561 353
f 103 382 561 232
f 102 381 561 382
f 64 353 561 381
f 139 383 562 375
f 67 384 562 383
f 138 385 562 384
f 65 375 562 385
f 138 386 563 385
f 66 387 563 386
f 143 377 563 387
f 65 385 563 377
f 138 388 564 386
f 135 389 564 388
f 111 390 564 389
f 66 386 564 390
f 111 391 565 390
f 130 392 565 391
f 132 393 565 392
f 66 390 565 393
f 132 372 566 393
f 142 394 566 372
f 143 387 566 394
f 66 393 566 387
f 68 395 567 398
f 107 396 567 395
f 108 397 567 396
f 67 398 567 397
f 108 399 568 397
f 135 388 568 399
f 138 384 568 388
f 67 397 568 384
f 139 380 569 383
f 90 400 569 380
f 68 398 569 400
f 67 383 569 398
f 137 401 570 403
f 106 402 570 401
f 107 395 570 402
f 68 403 570 395
f 90 404 571 400
f 92 405 571 404
f 137 403 571 405
f 68 400 571 403
f 95 406 572 409
f 97 407 572 406
f 96 408 572 407
f 69 409 572 408
f 96 410 573 412
f 73 318 573 410
f 72 411 573 318
f 70 412 573 411
f 96 407 574 410
f 97 413 574 407
f 74 322 574 413
f 73 410 574 322
f 97 414 575 413
f 98 415 575 414
f 75 324 575 415
f 74 413 575 324
f 86 416 576 328
f 99 417 576 416
f 85 418 576 417
f 76 328 576 418
f 85 419 577 418
f 78 335 577 419
f 77 330 577 335
f 76 418 577 330
f 85 420 578 419
f 83 421 578 420
f 84 422 578 421
f 78 419 578 422
f 84 423 579 422
f 79 239 579 423
f 148 336 579 239
f 78 422 579 336
f 84 424 580 423
f 104 425 580 424
f 80 337 580 425
f 79 423 580 337
f 104 426 581 425
f 82 427 581 426
f 81 340 581 427
f 80 425 581 340
f 82 428 582 427
f 101 429 582 428
f 147 343 582 429
f 81 427 582 343
f 104 430 583 426
f 100 431 583 430
f 89 432 583 431
f 82 426 583 432
f 89 433 584 432
f 92 434 584 433
f 101 428 584 434
f 82 432 584 428
f 85 417 585 420
f 99 435 585 417
f 94 436 585 435
f 83 420 585 436
f 94 437 586 436
f 93 438 586 437
f 100 439 586 438
f 83 436 586 439
f 100 430 587 439
f 104 424 587 430
f 84 421 587 424
f 83 439 587 421
f 98 414 588 441
f 97 406 588 414
f 95 440 588 406
f 87 441 588 440
f 91 442 589 443
f 137 405 589 442
f 92 433 589 405
f 89 443 589 433
f 102 444 590 379
f 101 434 590 444
f 92 404 590 434
f 90 379 590 404
f 102 382 591 444
f 103 445 591 382
f 147 429 591 445
f 101 444 591 429
f 169 446 592 231
f 170 344 592 446
f 147 445 592 344
f 103 231 592 445
f 136 447 593 449
f 110 448 593 447
f 107 402 593 448
f 106 449 593 402
f 110 450 594 448
f 109 451 594 450
f 108 396 594 451
f 107 448 594 396
f 109 452 595 451
f 134 453 595 452
f 135 399 595 453
f 108 451 595 399
f 135 453 596 389
f 134 454 596 453
f 133 455 596 454
f 111 389 596 455
f 130 456 597 459
f 117 457 597 456
f 116 458 597 457
f 112 459 597 458
f 116 460 598 458
f 113 461 598 460
f 131 462 598 461
f 112 458 598 462
f 131 463 599 462
f 125 369 599 463
f 126 464 599 369
f 112 462 599 464
f 126 373 600 464
f 132 392 600 373
f 130 459 600 392
f 112 464 600 459
f 116 465 601 460
f 115 466 601 465
f 114 467 601 466
f 113 460 601 467
f 114 468 602 467
f 118 469 602 468
f 128 470 602 469
f 113 467 602 470
f 128 471 603 470
f 121 472 603 471
f 131 461 603 472
f 113 470 603 461
f 129 473 604 475
f 127 474 604 473
f 128 469 604 474
f 118 475 604 469
f 120 205 605 477
f 124 211 605 205
f 123 476 605 211
f 119 477 605 476
f 123 215 606 476
f 122 478 606 215
f 127 479 606 478
f 119 476 606 479
f 128 474 607 471
f 127 478 607 474
f 122 367 607 478
f 121 471 607 367
f 144 371 608 366
f 125 463 608 371
f 131 472 608 463
f 121 366 608 472
f 141 378 609 350
f 143 394 609 378
f 142 356 609 394
f 140 350 609 356
