# https://github.com/mikedh/trimesh
v -0.16372700 -0.05910400 0.03614600
v -0.17411999 -0.03058200 0.03616700
v -0.19508700 0.01482500 0.03898800
v -0.20547000 0.01283200 0.03403300
v -0.21552001 0.01536950 0.02776150
v -0.22328000 0.03431500 0.01626500
v -0.22144749 0.02236250 0.02180300
v -0.22095050 0.05658300 0.00898150
v -0.19275300 0.02104700 0.03817000
v -0.19194650 0.02374300 0.03745950
v -0.18443801 0.00016900 0.03368400
v -0.18297250 -0.00370600 0.03367100
v -0.18516700 0.00727500 0.03296000
v -0.16798211 0.07996665 0.03034764
v -0.17550755 0.10388051 0.01455106
v -0.18801396 0.08559344 0.01902624
v -0.16650539 0.08930228 0.02636881
v -0.17966140 0.10921601 0.00889002
v -0.15702071 0.11024412 0.01739061
v -0.14995246 0.10420599 0.02267327
v -0.14118974 0.11854237 0.01596550
v -0.14495184 0.09095561 0.03020664
v -0.15262452 0.12892700 0.00575007
v -0.15278236 0.12529849 0.00867982
v -0.16638324 0.11984917 0.00748460
v -0.15867381 0.08402161 0.03019799
v -0.15858745 0.07854073 0.03314581
v -0.16312783 0.07091744 0.03523315
v -0.16469236 0.08065291 0.03028608
v -0.15763957 0.07354522 0.03575890
v -0.13985843 0.07595801 0.03704448
v -0.14509101 0.05666662 0.04393270
v -0.15736272 0.06618306 0.03832985
v -0.13213383 0.10019125 0.02709646
v -0.12369006 0.11174367 0.02187911
v -0.13077156 0.12021059 0.01646793
v -0.12697129 0.12413424 0.01444203
v -0.14124721 0.13191015 0.00665325
v -0.10964100 0.10619225 0.02516575
v -0.10801815 0.11476422 0.02066776
v -0.12250553 0.12487482 0.01421608
v -0.11908275 0.14015075 0.00283375
v -0.10081500 0.11776600 0.02194700
v -0.10872875 0.12592400 0.01356800
v -0.16568686 0.07612293 0.03040759
v -0.17891503 0.07115741 0.03129346
v -0.16981613 0.05801646 0.03719068
v -0.16984895 0.07641727 0.03102320
v -0.14885198 0.05278620 0.04442283
v -0.13505401 0.06802850 0.04000600
v -0.18408740 0.06902891 0.02963850
v -0.12614689 0.13862150 0.00371483
v -0.18191919 0.06488699 0.03233159
v -0.17071806 0.12169376 0.00428624
v -0.20048390 0.08020109 0.01438916
v -0.17125118 0.05156763 0.03815557
v -0.13533389 0.14043028 0.00068104
v -0.12748750 0.14654501 -0.00391400
v -0.15511025 0.13465688 -0.00084975
v -0.13370900 0.14419700 -0.00286900
v -0.12260200 0.14674000 -0.00328800
v -0.15818793 0.04318148 0.04383149
v -0.16452595 0.03505859 0.04302621
v -0.18670204 0.05250904 0.03431555
v -0.17527844 0.06904413 0.03183378
v -0.19348306 0.03631841 0.03596162
v -0.17497775 0.12493100 -0.00103825
v -0.19686443 0.09695969 0.00664731
v -0.18871778 0.10804370 0.00487031
v -0.18091699 0.12252300 -0.00235800
v -0.19236813 0.03403690 0.03664600
v -0.16763677 0.06596505 0.03505495
v -0.21323975 0.04041749 0.02216014
v -0.21663157 0.05468055 0.01390402
v -0.21248400 0.04321100 0.02156500
v -0.20615837 0.06255052 0.01848487
v -0.20572424 0.04906905 0.02439411
v -0.19064531 0.06581174 0.02783110
v -0.19133050 0.11507450 -0.00294100
v -0.18429073 0.05904866 0.03343146
v -0.21180187 0.02020830 0.02919524
v -0.15986837 0.02594246 0.04592370
v -0.19735816 0.10464579 0.00111616
v -0.17013272 0.07022282 0.03046255
v -0.21432880 0.07423567 0.00633148
v -0.20601980 0.09354450 0.00210411
v -0.16140081 0.01891040 0.04551829
v -0.20078801 0.11022300 -0.00625100
v -0.20319700 0.10769300 -0.00630500
v -0.17916263 0.02823498 0.03775709
v -0.21254250 0.08494200 0.00156050
v -0.17749980 0.01992124 0.03899150
v -0.20865200 0.09736200 -0.00331900
v -0.17643068 0.03906629 0.03812646
v -0.16412793 0.00330550 0.04421274
v -0.17721851 -0.00301994 0.03859433
v -0.15012088 0.04725683 0.04514789
v -0.18955760 0.04517727 0.03524515
v -0.16515393 -0.03016105 0.04195282
v -0.16245733 0.01150341 0.04521299
v -0.18632147 0.04751942 0.03395317
v -0.17549341 0.05973678 0.03055321
v -0.18008787 0.04644569 0.03069623
v -0.15286900 0.04157400 0.04562300
v -0.18182573 0.04180100 0.03057452
v -0.21927100 0.06802000 0.00483250
v -0.16179524 -0.04152950 0.04089444
v -0.16060078 -0.05413507 0.03907845
v -0.18371300 0.02784600 0.03164100
v -0.16273899 -0.02060800 0.04254500
v -0.16192071 -0.03521667 0.04146937
v -0.13895434 0.06150511 0.04192860
v -0.18038491 0.02169384 0.03719516
v -0.15637840 0.03397764 0.04614893
v -0.17498602 0.04655034 0.03727815
v -0.18492072 0.01219357 0.03234886
v -0.15977075 -0.04974925 0.03928800
v -0.14156100 0.05021025 0.04076500
v -0.17942928 0.05438231 0.03126986
v -0.18885147 0.03488181 0.03462975
v -0.14379968 0.04660557 0.04093271
v -0.14732261 0.03814135 0.04104000
v -0.16362145 -0.00013548 0.04406799
v -0.15963459 -0.01799087 0.04052220
v -0.15849051 -0.02921350 0.03970850
v -0.15891598 -0.00129172 0.04066774
v -0.15827900 0.00465100 0.04106500
v -0.15738781 0.00771057 0.04116896
v -0.15014874 0.03811786 0.04281188
v -0.15040100 0.03121100 0.04108000
v -0.15359946 0.02217343 0.04155692
v -0.15654705 0.01058017 0.04159240
v -0.14912162 0.03493545 0.04115807
v -0.15282815 0.02602996 0.04155540
f 74 6 73
f 75 74 73
f 77 74 75
f 76 74 77
f 78 76 77
f 78 77 66
f 78 66 98
f 64 78 98
f 78 64 80
f 80 53 78
f 65 53 80
f 65 80 119
f 80 64 119
f 64 101 119
f 119 101 105
f 103 119 105
f 102 119 103
f 101 109 105
f 101 120 109
f 109 120 116
f 120 13 116
f 120 10 13
f 120 71 10
f 98 71 120
f 10 71 9
f 101 98 120
f 101 64 98
f 102 65 119
f 65 102 84
f 45 65 84
f 45 29 65
f 48 65 29
f 48 46 65
f 29 46 48
f 29 14 46
f 17 46 14
f 15 46 17
f 15 16 46
f 16 51 46
f 46 51 53
f 51 16 78
f 16 55 78
f 16 69 55
f 69 68 55
f 69 83 68
f 69 79 83
f 79 86 83
f 83 86 55
f 55 86 85
f 86 91 85
f 93 91 86
f 86 89 93
f 86 88 89
f 91 106 85
f 85 106 74
f 74 106 8
f 55 85 74
f 79 88 86
f 79 69 70
f 67 70 69
f 67 69 54
f 69 18 54
f 69 15 18
f 15 54 18
f 54 15 25
f 54 25 24
f 23 54 24
f 59 54 23
f 38 59 23
f 38 57 59
f 60 59 57
f 57 58 60
f 57 61 58
f 42 61 57
f 42 57 52
f 42 52 41
f 41 52 38
f 37 41 38
f 37 36 41
f 36 35 41
f 40 41 35
f 40 44 41
f 44 40 43
f 43 40 39
f 40 35 39
f 35 34 39
f 34 22 39
f 39 22 31
f 39 31 50
f 31 32 50
f 50 32 112
f 112 32 118
f 50 112 118
f 32 49 118
f 49 121 118
f 121 49 97
f 121 97 122
f 97 129 122
f 122 129 133
f 133 129 130
f 129 134 130
f 134 131 130
f 100 131 134
f 131 100 132
f 132 100 128
f 128 100 127
f 128 127 126
f 100 126 127
f 123 126 100
f 126 123 110
f 126 110 111
f 126 111 124
f 111 107 124
f 124 107 117
f 125 124 117
f 117 107 108
f 129 100 134
f 129 114 100
f 129 104 114
f 122 133 130
f 104 129 97
f 32 31 30
f 32 30 49
f 30 33 49
f 33 47 49
f 47 56 49
f 49 56 94
f 56 115 94
f 115 103 94
f 115 102 103
f 47 102 115
f 72 102 47
f 72 84 102
f 45 84 72
f 28 45 72
f 28 27 45
f 26 45 27
f 22 26 27
f 30 22 27
f 20 26 22
f 20 17 26
f 19 17 20
f 21 19 20
f 21 20 35
f 24 19 21
f 38 24 21
f 22 35 20
f 27 28 30
f 30 28 47
f 28 72 47
f 94 103 105
f 94 105 90
f 90 105 113
f 105 109 113
f 109 116 113
f 113 116 11
f 92 113 11
f 92 11 96
f 87 92 96
f 87 96 95
f 95 96 99
f 96 12 99
f 12 2 99
f 99 2 1
f 108 99 1
f 107 99 108
f 111 99 107
f 110 99 111
f 110 123 99
f 123 95 99
f 100 95 123
f 87 90 92
f 87 63 90
f 63 94 90
f 62 94 63
f 104 62 63
f 104 63 114
f 63 82 114
f 114 82 100
f 100 82 87
f 49 62 104
f 49 104 97
f 82 63 87
f 96 11 12
f 90 113 92
f 49 94 62
f 47 115 56
f 33 30 47
f 22 30 31
f 35 22 34
f 36 21 35
f 36 37 21
f 37 38 21
f 44 42 41
f 52 57 38
f 38 23 24
f 24 25 19
f 25 15 19
f 59 67 54
f 68 83 55
f 16 15 69
f 19 15 17
f 26 17 14
f 26 14 29
f 26 29 45
f 46 53 65
f 51 78 53
f 98 66 71
f 66 81 71
f 71 81 9
f 81 3 9
f 3 81 4
f 81 5 4
f 81 7 5
f 81 73 7
f 66 73 81
f 77 73 66
f 78 55 76
f 55 74 76
f 77 75 73
f 74 8 6
f 73 6 7

