# https://github.com/mikedh/trimesh
v -0.07270075 0.26328425 0.08333775
v -0.02603725 0.25485900 0.10026575
v -0.06378286 0.26849179 0.09013877
v -0.06008900 0.26858699 0.09094000
v -0.07485300 0.27046999 0.08196600
v -0.04759750 0.24745700 0.09675775
v -0.05590162 0.24805950 0.09357562
v -0.03958800 0.24778550 0.09881600
v -0.03273700 0.24908901 0.09993000
v -0.05291900 0.24782401 0.09499775
v -0.06128879 0.24968291 0.09331543
v -0.06452750 0.25112400 0.08966025
v -0.06889000 0.28402400 0.08606075
v -0.06603890 0.28784338 0.08877612
v -0.07920525 0.27530100 0.07903800
v -0.06128000 0.29040864 0.09070669
v -0.03978427 0.29159620 0.10806636
v -0.04789043 0.29515246 0.10615760
v -0.03705263 0.28738816 0.10738518
v -0.02840907 0.27544085 0.10620830
v -0.02159600 0.26367101 0.10327500
v -0.02554400 0.27549601 0.10797800
v -0.02838100 0.28178900 0.10868000
v -0.06432100 0.27944401 0.08931200
v -0.06261100 0.27336001 0.08996800
v -0.01174975 0.22719850 0.11347475
v -0.02307600 0.22937299 0.10295700
v -0.01738612 0.22989051 0.10768151
v -0.01466000 0.22890800 0.11060200
v -0.03140350 0.21827300 0.10157750
v -0.03211235 0.29621745 0.10177759
v -0.05327000 0.30451301 0.10075100
v -0.02340841 0.28556613 0.10353446
v -0.02050723 0.27867143 0.10414016
v -0.04844489 0.30505553 0.09826330
v -0.03764482 0.29998215 0.10045751
v -0.04350557 0.30345625 0.09876308
v -0.07923718 0.25637309 0.07894471
v -0.07618202 0.25891971 0.08138050
v -0.07274702 0.24590993 0.08479211
v -0.06884505 0.22102705 0.08791177
v -0.06408075 0.20485390 0.09085010
v -0.07373490 0.21969665 0.08425383
v -0.05053388 0.21331233 0.09774191
v -0.08096881 0.28576233 0.07765055
v -0.05440004 0.23146307 0.09563506
v -0.07193875 0.19392512 0.08227875
v -0.07965500 0.28363901 0.07867700
v -0.07974950 0.28081400 0.07867900
v -0.07570470 0.29297309 0.08571911
v -0.07777157 0.29240487 0.08048049
v -0.06518088 0.31868619 0.08888224
v -0.06064220 0.32024825 0.09129675
v -0.07491280 0.31128862 0.08326977
v -0.07040392 0.31809171 0.08572687
v -0.06928097 0.30699440 0.08740820
v -0.06120947 0.33663195 0.08830122
v -0.07083900 0.33425301 0.08201100
v -0.07297306 0.32832879 0.08182791
v -0.07734955 0.33654484 0.08008668
v -0.08286700 0.28240551 0.07570750
v -0.06293921 0.19189284 0.08958313
v -0.06420387 0.18551994 0.08713757
v -0.06972537 0.18804233 0.08394770
v -0.07643900 0.22022299 0.08161200
v -0.05739700 0.19229101 0.09260800
v -0.05311125 0.19142125 0.09383337
v -0.04867005 0.24163203 0.09675654
v -0.04702982 0.21644686 0.09890287
v -0.04878200 0.33910900 0.09342100
v -0.05240531 0.31834084 0.09515447
v -0.04330515 0.32981636 0.09666075
v -0.03858783 0.32073328 0.09934469
v -0.02935899 0.29357321 0.10224046
v -0.04459774 0.24595484 0.09801440
v -0.02694971 0.29041224 0.10292328
v -0.03053806 0.30545500 0.10163550
v -0.06267900 0.18111450 0.08660650
v -0.02776400 0.33866501 0.09887600
v -0.03717200 0.33862899 0.09704500
v -0.04025833 0.21679974 0.10090823
v -0.04296075 0.33918350 0.09578525
v -0.02372139 0.25339335 0.10046774
v -0.02328646 0.24978517 0.10099999
v -0.02093706 0.24814792 0.10169452
v -0.03330873 0.22391786 0.10196052
v -0.01795275 0.27449375 0.10475500
v -0.01908841 0.26778575 0.10399963
v -0.01521800 0.26259199 0.10641100
v -0.01481591 0.24407108 0.10832180
v -0.01892060 0.25938367 0.10380989
v -0.01298950 0.24113750 0.10992300
v -0.01019750 0.23347350 0.11290125
v -0.03576004 0.22984150 0.10145536
v -0.03614486 0.22326432 0.10150552
v -0.02097850 0.28400899 0.10385700
v -0.05387459 0.19935316 0.09568475
v -0.04239963 0.20976491 0.09986509
v -0.08131600 0.30031699 0.07760600
v -0.08100650 0.25120649 0.07728800
v -0.06258300 0.17576399 0.08452800
v -0.07933400 0.31891900 0.07759800
v -0.07887200 0.32332101 0.07726100
v -0.04258623 0.20172332 0.09779833
v -0.04628000 0.18253900 0.09233200
v -0.06751900 0.17624650 0.08058800
v -0.04222500 0.18622600 0.09241900
v -0.03341253 0.20244011 0.09628354
v -0.03818500 0.19090800 0.09225700
v -0.03028800 0.18962200 0.09285200
v -0.04295421 0.19111895 0.09423830
f 70 71 72
f 72 71 73
f 80 72 73
f 79 80 73
f 79 82 80
f 79 73 77
f 77 73 36
f 77 36 31
f 77 31 74
f 74 76 77
f 77 76 33
f 77 33 96
f 96 33 34
f 87 96 34
f 87 34 88
f 89 87 88
f 88 90 89
f 92 89 90
f 92 90 93
f 93 90 29
f 93 29 26
f 29 28 26
f 90 27 29
f 90 91 27
f 88 91 90
f 36 73 37
f 73 35 37
f 73 71 35
f 70 72 80
f 70 53 71
f 71 53 56
f 71 56 32
f 52 56 53
f 56 52 55
f 55 54 56
f 54 51 56
f 54 99 51
f 102 99 54
f 103 102 54
f 60 103 54
f 99 61 51
f 51 61 45
f 45 61 38
f 38 61 100
f 100 65 38
f 38 65 43
f 43 65 47
f 43 47 64
f 47 106 64
f 43 64 42
f 62 42 64
f 64 63 62
f 63 64 78
f 78 64 101
f 64 106 101
f 62 63 78
f 67 62 78
f 66 62 67
f 97 66 67
f 111 97 67
f 104 97 111
f 108 104 111
f 108 111 110
f 30 104 108
f 30 98 104
f 30 81 98
f 81 69 98
f 69 44 98
f 98 44 97
f 46 97 44
f 97 46 42
f 46 12 42
f 11 12 46
f 12 41 42
f 40 41 12
f 40 43 41
f 12 1 40
f 1 38 40
f 75 46 44
f 68 46 75
f 75 6 68
f 8 6 75
f 9 8 75
f 9 75 84
f 84 75 94
f 84 94 86
f 86 94 95
f 94 81 95
f 86 95 81
f 85 84 86
f 27 85 86
f 27 86 30
f 91 84 85
f 91 83 84
f 2 83 91
f 21 2 91
f 88 21 91
f 20 2 21
f 22 20 21
f 22 19 20
f 23 19 22
f 17 19 23
f 17 18 19
f 94 75 81
f 83 9 84
f 6 46 68
f 6 10 46
f 10 7 46
f 7 11 46
f 75 44 69
f 75 69 81
f 86 81 30
f 98 97 104
f 111 67 105
f 107 111 105
f 109 111 107
f 97 62 66
f 97 42 62
f 41 43 42
f 40 38 43
f 15 45 38
f 49 45 15
f 48 45 49
f 50 48 49
f 50 45 48
f 15 38 39
f 1 15 39
f 5 15 1
f 13 15 5
f 13 5 24
f 14 13 24
f 16 14 24
f 24 4 16
f 25 24 5
f 5 3 25
f 51 45 50
f 56 51 50
f 55 59 54
f 57 59 55
f 57 58 59
f 58 60 59
f 55 53 57
f 59 60 54
f 53 55 52
f 70 57 53

