# https://github.com/mikedh/trimesh
v -0.23312400 -0.44298051 -0.17405950
v -0.18070100 -0.42873999 -0.19264100
v -0.18370837 -0.43234788 -0.19055937
v -0.22638863 -0.45294001 -0.16853700
v -0.17268901 -0.44011700 -0.18775000
v -0.24084400 -0.45538899 -0.16681699
v -0.20344001 -0.44207000 -0.18532499
v -0.21539050 -0.44573350 -0.17976050
v -0.19071251 -0.43919575 -0.18788500
v -0.18152800 -0.43835350 -0.18791851
v -0.21949450 -0.44700551 -0.17655900
v -0.24466151 -0.45057751 -0.16648350
v -0.26689600 -0.44698050 -0.15682050
v -0.28058299 -0.44453201 -0.15095800
v -0.28706687 -0.44715674 -0.14623838
v -0.29887701 -0.44953326 -0.13318900
v -0.25731825 -0.44972601 -0.15767250
v -0.24799841 -0.45973173 -0.16001283
v -0.30323964 -0.45263022 -0.12209541
v -0.32139599 -0.45169801 -0.10284800
v -0.31629749 -0.46112300 -0.10453375
v -0.16901700 -0.44262299 -0.18781801
v -0.32839413 -0.45098538 -0.09924437
v -0.33288525 -0.45162213 -0.09445387
v -0.34145501 -0.45850700 -0.07650600
v -0.31908849 -0.45272151 -0.11189300
v -0.31443525 -0.46533850 -0.11089925
v -0.31435099 -0.46275601 -0.10552500
v -0.33910725 -0.48214975 -0.04319425
v -0.34604700 -0.46587999 -0.05515400
v -0.31033099 -0.47469899 -0.10845300
v -0.31068987 -0.47367509 -0.10549580
v -0.31226701 -0.46919101 -0.10499500
v -0.31735113 -0.45827359 -0.10913701
v -0.30892050 -0.47703000 -0.10549200
v -0.31547975 -0.46192200 -0.11230375
v -0.24213400 -0.47398600 -0.15820000
v -0.25139700 -0.44818200 -0.16476200
v -0.24416565 -0.46871740 -0.15930589
v -0.23618899 -0.48311600 -0.15846100
v -0.22914996 -0.46486804 -0.16634758
v -0.22524668 -0.46026511 -0.17246128
v -0.22194380 -0.44951849 -0.17502024
v -0.22269182 -0.45899356 -0.17496544
v -0.22605875 -0.47272926 -0.16905977
v -0.22949681 -0.48117508 -0.16290181
v -0.22934499 -0.46031299 -0.16618900
v -0.21712412 -0.45242653 -0.17921922
v -0.20859273 -0.44811034 -0.18375185
v -0.16393003 -0.44406187 -0.19215150
v -0.17536038 -0.43489083 -0.19244465
v -0.16517378 -0.44045561 -0.19379808
v -0.15195608 -0.46111587 -0.19269988
v -0.15885228 -0.44832237 -0.19355491
v -0.16920400 -0.43376650 -0.19417400
v -0.13965100 -0.47858399 -0.18871300
v -0.14957630 -0.46783755 -0.19150996
v -0.14663048 -0.47549505 -0.18904626
v -0.14904400 -0.46107850 -0.19319800
v -0.15336201 -0.45144099 -0.19421400
v -0.14508013 -0.47953631 -0.18754237
v -0.14646700 -0.48263300 -0.18684401
v -0.16277480 -0.44869222 -0.18828462
v -0.16013410 -0.45376408 -0.18792652
v -0.15585200 -0.45769900 -0.19102900
v -0.14966259 -0.47571690 -0.18704737
v -0.16178785 -0.45117776 -0.18785279
v -0.15162249 -0.47223542 -0.18708610
v -0.18383753 -0.44141554 -0.19004964
v -0.17503006 -0.44548244 -0.19039078
v -0.17112970 -0.44820769 -0.19047275
v -0.16828225 -0.45639070 -0.19104175
v -0.17140774 -0.45296582 -0.19096919
v -0.16172114 -0.45725360 -0.18944192
v -0.17663874 -0.45281023 -0.19103460
v -0.15825581 -0.46376710 -0.18890606
v -0.16256231 -0.46532660 -0.18988833
v -0.15411198 -0.46605638 -0.18762614
v -0.17280570 -0.45949393 -0.19059993
v -0.18496116 -0.44675395 -0.19046504
v -0.15004161 -0.48192770 -0.18671742
v -0.15650825 -0.48286675 -0.18637750
v -0.16274337 -0.47214597 -0.18887449
v -0.18266500 -0.46707086 -0.18793327
v -0.18012270 -0.46052306 -0.18964992
v -0.19110523 -0.44674580 -0.18927443
v -0.17639873 -0.47482348 -0.18662430
v -0.19261023 -0.45985801 -0.18739576
v -0.19523929 -0.45559904 -0.18739738
v -0.19447983 -0.44541705 -0.18833749
v -0.20326797 -0.46129144 -0.18394039
v -0.16582300 -0.48323399 -0.18536700
v -0.20036413 -0.44430422 -0.18665119
v -0.17957575 -0.48526787 -0.18178888
v -0.30417100 -0.46806650 -0.11715990
v -0.30183037 -0.45728432 -0.12920126
v -0.29738503 -0.47609021 -0.12362264
v -0.30248577 -0.47591765 -0.11405761
v -0.29880386 -0.47879571 -0.11869794
v -0.29958958 -0.46428959 -0.12889720
v -0.29414953 -0.45950285 -0.13724328
v -0.30228979 -0.48272169 -0.11006563
v -0.28114099 -0.47566640 -0.13922396
v -0.28879836 -0.47887783 -0.13066595
v -0.27425873 -0.48539420 -0.13701675
v -0.27300863 -0.47494356 -0.14570092
v -0.25989665 -0.48344998 -0.14813339
v -0.27291000 -0.49390688 -0.12769350
v -0.25056050 -0.49087075 -0.14769275
v -0.25630002 -0.47973067 -0.15199449
v -0.24787277 -0.48555030 -0.15310181
v -0.28247501 -0.45935769 -0.14641715
v -0.27724950 -0.46646716 -0.14709608
v -0.24021561 -0.48968448 -0.15363500
v -0.24137044 -0.49154819 -0.15214975
v -0.22132840 -0.47585953 -0.17130444
v -0.21914394 -0.48491390 -0.16842295
v -0.21078693 -0.48667413 -0.17132093
v -0.23186371 -0.48553134 -0.15995286
v -0.23646374 -0.47695120 -0.16315332
v -0.23707186 -0.47325057 -0.16451904
v -0.22551229 -0.48171249 -0.16633654
v -0.26428636 -0.46937643 -0.15324696
v -0.20390419 -0.47659134 -0.17873765
v -0.26053344 -0.46406104 -0.15696630
v -0.26985469 -0.45604189 -0.15521046
v -0.19557094 -0.48379043 -0.17855217
v -0.21087252 -0.46137856 -0.18092683
v -0.22232298 -0.46226754 -0.17492841
v -0.21183942 -0.47315214 -0.17719220
v -0.21083850 -0.49041501 -0.16865200
v -0.24228454 -0.46388591 -0.16528797
v -0.18785401 -0.48892200 -0.17802300
v -0.19782451 -0.47480851 -0.18147378
v -0.26924491 -0.45280951 -0.15605204
v -0.30857140 -0.47099074 -0.11491669
v -0.31120945 -0.46429171 -0.11684140
v -0.28778870 -0.45293692 -0.14471278
v -0.23492012 -0.44903933 -0.17238047
v -0.27373086 -0.46089024 -0.15206550
v -0.24781563 -0.48078848 -0.15550936
v -0.23056250 -0.47397000 -0.16404900
v -0.23783490 -0.45979749 -0.16872963
v -0.23269350 -0.47671299 -0.16375400
v -0.24163543 -0.45843414 -0.16619028
v -0.21014593 -0.45587199 -0.18220921
v -0.27624476 -0.45025925 -0.15312950
v -0.25010613 -0.47756974 -0.15601765
v -0.25462964 -0.46737611 -0.15816044
v -0.23481099 -0.45543101 -0.17055900
v -0.23183000 -0.45078501 -0.17220899
v -0.30408567 -0.47041667 -0.11578772
v -0.26906913 -0.44843313 -0.15640057
v -0.30780737 -0.46574996 -0.11746918
v -0.23528450 -0.46679701 -0.16698250
v -0.24725647 -0.47320776 -0.15761933
v -0.26534473 -0.45284598 -0.15767915
v -0.25933097 -0.45843014 -0.15872114
v -0.25314689 -0.46368575 -0.15890445
v -0.29448500 -0.49485400 -0.10497200
v -0.29013062 -0.49432807 -0.11118528
v -0.28859916 -0.48542978 -0.12405968
v -0.27252464 -0.48810404 -0.13600464
v -0.30628400 -0.49129901 -0.09434950
v -0.30173233 -0.48870579 -0.10394905
v -0.31824335 -0.47701465 -0.09703588
v -0.29860831 -0.48476493 -0.11230520
v -0.31264470 -0.47881201 -0.10122874
v -0.30893107 -0.48705156 -0.09778543
v -0.28154205 -0.48473012 -0.13167053
v -0.31923342 -0.48271029 -0.08922857
v -0.32702150 -0.48444862 -0.07141975
v -0.32662461 -0.47570312 -0.08627128
v -0.33213409 -0.47870779 -0.07245162
v -0.30876386 -0.47620252 -0.11076784
v -0.33559260 -0.46674459 -0.08043129
v -0.32164212 -0.46951608 -0.09894397
v -0.28996931 -0.46568741 -0.13811727
v -0.31406360 -0.46369746 -0.11425860
v -0.30766265 -0.48053113 -0.10399358
v -0.32044728 -0.46652760 -0.10188411
v -0.34024147 -0.47035557 -0.06669311
v -0.33568999 -0.48336799 -0.05455450
v -0.32907659 -0.46054084 -0.09565147
v -0.33598301 -0.48601601 -0.04586800
v -0.33792184 -0.48349478 -0.04645051
v -0.34428437 -0.46796054 -0.06036432
v -0.33960539 -0.47661969 -0.05932838
v -0.31700060 -0.46951533 -0.10331478
v -0.32231693 -0.45946082 -0.10283212
f 28 189 21
f 33 189 28
f 33 32 189
f 32 180 189
f 189 180 168
f 168 177 189
f 189 177 181
f 189 181 190
f 190 181 184
f 23 190 184
f 20 190 23
f 21 190 20
f 184 24 23
f 24 184 25
f 25 184 176
f 176 184 173
f 177 173 184
f 177 166 173
f 166 171 173
f 174 173 171
f 174 188 173
f 188 174 172
f 183 188 172
f 186 188 183
f 186 187 188
f 182 188 187
f 182 176 188
f 182 187 176
f 29 187 186
f 29 30 187
f 30 25 187
f 29 186 185
f 186 183 185
f 174 171 172
f 172 171 169
f 172 169 164
f 169 165 164
f 165 169 180
f 102 165 180
f 102 180 175
f 35 175 180
f 35 180 32
f 35 32 31
f 33 31 32
f 33 27 31
f 34 27 33
f 28 34 33
f 26 27 34
f 36 175 35
f 36 179 175
f 179 136 175
f 137 136 179
f 154 136 137
f 19 154 137
f 19 152 154
f 152 136 154
f 98 136 152
f 98 102 136
f 98 167 102
f 98 99 167
f 99 97 167
f 162 167 97
f 165 167 162
f 165 162 161
f 161 160 165
f 161 162 108
f 108 162 163
f 105 163 162
f 105 107 163
f 107 109 163
f 107 115 109
f 111 115 107
f 114 115 111
f 119 115 114
f 117 115 119
f 122 117 119
f 46 122 119
f 41 122 46
f 41 45 122
f 129 45 41
f 129 122 45
f 116 122 129
f 129 130 116
f 128 130 129
f 128 91 130
f 91 124 130
f 124 118 130
f 130 118 117
f 117 118 131
f 127 131 118
f 127 133 131
f 94 133 127
f 94 127 92
f 87 92 127
f 84 87 127
f 127 134 84
f 134 127 124
f 84 134 88
f 91 88 134
f 89 88 91
f 89 91 49
f 91 146 49
f 49 146 48
f 146 128 48
f 49 48 7
f 7 93 49
f 9 93 7
f 9 90 93
f 90 89 93
f 90 86 89
f 86 90 9
f 69 86 9
f 69 80 86
f 88 86 80
f 80 85 88
f 75 85 80
f 79 85 75
f 85 79 84
f 72 79 75
f 73 72 75
f 71 73 75
f 71 75 70
f 5 71 70
f 5 22 71
f 63 71 22
f 63 72 71
f 63 74 72
f 5 70 69
f 5 69 10
f 71 72 73
f 70 75 80
f 70 80 69
f 69 9 10
f 7 48 8
f 8 48 43
f 43 48 44
f 48 129 44
f 44 129 42
f 43 44 42
f 43 42 4
f 4 42 41
f 47 4 41
f 8 43 11
f 93 89 49
f 86 88 89
f 85 84 88
f 83 87 84
f 72 83 84
f 77 83 72
f 77 68 83
f 68 92 83
f 68 81 92
f 66 81 68
f 66 62 81
f 62 82 81
f 66 61 62
f 58 61 66
f 58 66 57
f 68 57 66
f 78 57 68
f 64 78 68
f 64 53 78
f 78 53 57
f 57 56 58
f 59 56 57
f 59 57 53
f 59 53 54
f 59 54 60
f 60 54 55
f 55 54 52
f 55 52 51
f 51 2 55
f 2 51 3
f 22 3 51
f 51 52 22
f 50 22 52
f 54 50 52
f 50 54 63
f 54 64 63
f 63 64 67
f 65 64 54
f 54 53 65
f 22 50 63
f 56 61 58
f 56 62 61
f 76 68 77
f 76 77 64
f 64 68 76
f 64 77 72
f 83 92 87
f 118 124 127
f 134 124 91
f 91 128 146
f 48 128 129
f 130 117 116
f 129 41 42
f 41 46 142
f 46 144 142
f 142 144 155
f 155 144 121
f 142 155 41
f 41 155 47
f 47 155 150
f 4 47 150
f 4 150 151
f 46 119 144
f 144 119 120
f 144 120 121
f 132 121 120
f 143 121 132
f 143 132 145
f 143 145 6
f 6 145 12
f 139 143 6
f 150 143 139
f 150 144 143
f 1 150 139
f 1 139 6
f 12 145 132
f 12 132 38
f 144 121 143
f 120 37 132
f 132 37 38
f 120 119 37
f 117 122 116
f 117 131 115
f 119 114 111
f 119 111 40
f 119 40 37
f 40 111 141
f 141 111 148
f 148 40 141
f 37 40 148
f 156 37 148
f 156 148 149
f 159 156 149
f 159 149 158
f 18 159 158
f 39 159 18
f 39 37 159
f 18 158 17
f 17 158 157
f 157 158 126
f 126 158 125
f 123 126 125
f 126 123 140
f 147 126 140
f 140 113 147
f 147 113 112
f 147 112 138
f 15 147 138
f 14 147 15
f 147 14 13
f 13 153 147
f 157 153 13
f 153 157 147
f 147 157 135
f 15 138 101
f 15 101 16
f 96 16 101
f 100 96 101
f 100 101 178
f 112 178 101
f 100 178 97
f 104 97 178
f 178 103 104
f 178 106 103
f 178 113 106
f 104 103 106
f 105 104 106
f 170 104 105
f 170 162 104
f 95 100 97
f 95 97 98
f 152 95 98
f 96 100 95
f 19 96 95
f 138 112 101
f 112 113 178
f 140 106 113
f 147 135 126
f 123 106 140
f 106 123 148
f 148 110 106
f 148 107 110
f 110 107 106
f 123 125 149
f 135 157 126
f 17 157 13
f 125 158 149
f 149 148 123
f 37 156 159
f 148 111 107
f 107 105 106
f 105 162 170
f 108 163 109
f 104 162 97
f 98 97 99
f 102 175 136
f 102 167 165
f 165 160 164
f 171 166 169
f 169 166 168
f 176 173 188
f 25 176 187
f 184 181 177
f 168 166 177
f 169 168 180
f 189 190 21

