# https://github.com/mikedh/trimesh
v -0.13510250 -0.24806049 0.10615200
v -0.14946288 -0.25167275 0.10906538
v -0.11894000 -0.28907701 0.13357800
v -0.12957950 -0.28038100 0.13538825
v -0.10618600 -0.29241049 0.13228900
v -0.14154699 -0.27576199 0.13583000
v -0.15342732 -0.26455192 0.12414623
v -0.10311900 -0.24328201 0.10626500
v 0.01865300 -0.28985476 0.12670650
v 0.02479400 -0.28464001 0.12793200
v 0.02685500 -0.28751000 0.13218850
v -0.02458051 -0.29923320 0.12010200
v -0.03232220 -0.30194815 0.12102100
v -0.01365690 -0.29545499 0.12081719
v -0.03685565 -0.30242229 0.12145374
v -0.05187418 -0.30013123 0.12372892
v -0.03962227 -0.30193613 0.12142358
v -0.04719568 -0.30029800 0.12274975
v -0.02617868 -0.29212169 0.12231417
v -0.03844908 -0.27497829 0.11225555
v -0.01437646 -0.28296130 0.11207019
v -0.03301900 -0.27410400 0.11303800
v -0.02029450 -0.27867401 0.11289750
v -0.03020700 -0.27512699 0.11306400
v -0.04182900 -0.27131101 0.11269500
v -0.04518900 -0.26885576 0.11295550
v -0.05453800 -0.26520650 0.11232900
v -0.02578379 -0.28180615 0.11242942
v -0.06334863 -0.26817756 0.11232040
v 0.00948715 -0.28753202 0.11207770
v -0.07350529 -0.26370568 0.11148860
v -0.07046155 -0.25962146 0.11086951
v 0.01456441 -0.28472528 0.11173569
v -0.07838950 -0.25501425 0.10965625
v -0.09220400 -0.24980600 0.10769850
v -0.08533091 -0.25764167 0.10982397
v -0.11345550 -0.24412163 0.10519519
v -0.04168385 -0.27823978 0.11336584
v -0.11041262 -0.24639161 0.10571624
v -0.10786700 -0.24971700 0.10693100
v 0.02208700 -0.28076601 0.11211000
v -0.06205094 -0.27400538 0.11496615
v -0.08001436 -0.26855368 0.11461492
v -0.10166617 -0.26845078 0.11827140
v -0.10692766 -0.25955563 0.11204402
v -0.13262427 -0.25483978 0.11039352
v -0.12112540 -0.25115405 0.10768020
v -0.06975514 -0.27712139 0.11948586
v -0.00185500 -0.29302499 0.11869400
v 0.00613984 -0.28859311 0.11308271
v -0.12735368 -0.26246256 0.11674599
v -0.08687059 -0.27410263 0.12119212
v -0.05015626 -0.28686492 0.12503514
v -0.02377197 -0.28371625 0.11304651
v -0.00614600 -0.29132738 0.11832334
v -0.00906051 -0.29485180 0.12106197
v -0.01226340 -0.29166402 0.11935571
v -0.06266658 -0.28575658 0.12748805
v -0.10268279 -0.27251578 0.12335435
v -0.12194849 -0.27590237 0.13251506
v -0.13910078 -0.26287859 0.11897425
v -0.00397414 -0.28788247 0.11360448
v -0.11305149 -0.27901334 0.13345273
v -0.08992381 -0.28231870 0.13128997
v -0.10700420 -0.28156641 0.13349749
v -0.03860322 -0.29012656 0.12415399
v -0.12739436 -0.27699228 0.13477296
v -0.04559571 -0.29516426 0.12408988
v -0.08856498 -0.29439859 0.12962458
v -0.06733960 -0.29763077 0.12627992
v -0.07303490 -0.28635745 0.12934000
v -0.09778724 -0.29335405 0.13096752
v -0.09736066 -0.28639852 0.13210964
v 0.02954173 -0.28091539 0.12791174
v 0.03581100 -0.27777550 0.12652175
v 0.03467100 -0.27230400 0.11440300
v -0.08861882 -0.24811366 0.10826061
v -0.00597963 -0.30063415 0.11820441
v 0.00961121 -0.29646559 0.13228432
v 0.01400100 -0.29056999 0.12890100
v 0.01840250 -0.28616000 0.12180200
v 0.02837250 -0.28285531 0.12933780
v 0.01063767 -0.29149955 0.12834686
v 0.00998850 -0.28989050 0.11969275
v 0.00405038 -0.29654362 0.12837013
v -0.00293350 -0.29986650 0.12027000
v 0.01599198 -0.28767038 0.12333013
v 0.03567050 -0.27518950 0.12279800
f 61 2 7
f 67 61 7
f 44 61 67
f 60 44 67
f 60 67 63
f 63 67 65
f 67 4 65
f 67 6 4
f 65 4 73
f 64 65 73
f 64 73 71
f 71 73 69
f 73 72 69
f 73 5 72
f 71 69 68
f 66 71 68
f 58 71 66
f 58 66 53
f 57 53 66
f 57 66 19
f 57 19 14
f 56 57 14
f 56 55 57
f 55 56 49
f 57 48 53
f 57 54 48
f 57 21 54
f 62 21 57
f 49 62 57
f 50 62 49
f 50 49 30
f 84 30 49
f 84 49 83
f 87 84 83
f 87 83 80
f 9 87 80
f 81 87 9
f 33 87 81
f 87 33 30
f 76 33 81
f 74 76 81
f 82 74 81
f 10 82 81
f 11 82 10
f 88 76 74
f 88 74 75
f 80 83 79
f 83 85 79
f 83 49 85
f 49 86 85
f 86 49 78
f 30 84 87
f 62 50 21
f 30 21 50
f 33 21 30
f 41 21 33
f 41 23 21
f 23 20 21
f 24 20 23
f 24 22 20
f 22 25 20
f 26 20 25
f 26 27 20
f 21 20 28
f 28 20 38
f 28 38 54
f 27 38 20
f 27 29 38
f 29 42 38
f 38 42 48
f 42 43 48
f 43 44 48
f 48 44 52
f 59 52 44
f 52 59 60
f 52 60 64
f 58 52 64
f 43 45 44
f 45 46 44
f 36 46 45
f 36 47 46
f 47 2 46
f 47 1 2
f 37 1 47
f 39 37 47
f 40 39 47
f 36 39 40
f 35 39 36
f 35 36 34
f 34 36 32
f 31 32 36
f 32 31 27
f 27 34 32
f 77 35 34
f 77 8 35
f 35 37 39
f 36 40 47
f 36 45 31
f 51 44 46
f 46 61 51
f 31 45 43
f 31 43 42
f 31 42 29
f 27 31 29
f 21 28 54
f 48 54 38
f 53 48 52
f 53 52 58
f 66 68 18
f 68 16 18
f 68 70 16
f 19 66 18
f 19 18 12
f 19 12 14
f 12 18 17
f 12 17 13
f 17 15 13
f 68 69 70
f 58 64 71
f 73 4 5
f 4 3 5
f 64 63 65
f 64 60 63
f 59 44 60
f 44 51 61
f 67 7 6
f 2 61 46

