# https://github.com/mikedh/trimesh
v -0.34734151 -0.47245200 0.08075938
v -0.33989000 -0.46918201 0.10125800
v -0.35098564 -0.47277275 0.04834508
v -0.35393149 -0.47611049 0.04219150
v -0.35405201 -0.47469699 0.03472900
v -0.34761901 -0.47303350 -0.03242650
v -0.34889275 -0.47196474 -0.03969325
v -0.33910725 -0.48214975 -0.04319425
v -0.33240025 -0.46985049 0.11043675
v -0.32958400 -0.47048801 0.11216900
v -0.25058299 -0.45737499 0.16945900
v -0.35719550 -0.47416150 0.03001500
v -0.35516700 -0.47501701 0.03974600
v -0.35317999 -0.47740850 0.03710350
v -0.35039699 -0.47407299 0.06739100
v -0.35012262 -0.47658988 0.05405988
v -0.32022199 -0.47815499 0.11782400
v -0.32049250 -0.46938926 0.12596875
v -0.31447300 -0.47280499 0.12684301
v -0.31675199 -0.47061801 0.12572099
v -0.30976799 -0.46915400 0.13924500
v -0.31421700 -0.46765399 0.13428199
v -0.30143000 -0.46083551 0.15212800
v -0.30684100 -0.46599799 0.14471400
v -0.27086225 -0.45816362 0.16575587
v -0.29160900 -0.46010176 0.15787075
v -0.24670100 -0.45551250 0.16917250
v -0.23883851 -0.45549876 0.16534750
v -0.34225124 -0.48149708 -0.04030796
v -0.33887783 -0.48408919 -0.04096998
v -0.34670335 -0.47753016 -0.03788957
v -0.33931601 -0.48668101 -0.03471200
v -0.34135899 -0.48396799 -0.03442700
v -0.34424841 -0.47907242 -0.03265858
v -0.35214050 -0.48032250 -0.01457300
v -0.35480699 -0.47990701 -0.00355500
v -0.35807351 -0.47686600 0.01665150
v -0.31859801 -0.48793401 -0.08170100
v -0.33568999 -0.48336799 -0.05455450
v -0.33496450 -0.49585351 -0.01144225
v -0.31597301 -0.49600601 -0.06502400
v -0.32758299 -0.49585900 -0.03939900
v -0.32012001 -0.47891449 0.11281925
v -0.33064704 -0.47475192 0.10810044
v -0.31423493 -0.47717614 0.12370852
v -0.31555794 -0.48071979 0.11923970
v -0.30805478 -0.47581569 0.13524359
v -0.31194865 -0.48547358 0.11593161
v -0.31891050 -0.49164163 0.09326969
v -0.31696115 -0.48491491 0.11008065
v -0.33316870 -0.47839724 0.10003722
v -0.31862900 -0.48751500 0.10390600
v -0.31992049 -0.48853250 0.10008200
v -0.30232425 -0.48760412 0.12378313
v -0.30388689 -0.48103054 0.13316487
v -0.31795111 -0.47815389 0.12097058
v -0.29213525 -0.48466775 0.13725099
v -0.29721015 -0.48004815 0.13969828
v -0.29026709 -0.48120751 0.14280861
v -0.29956091 -0.47413245 0.14432665
v -0.29612355 -0.47434449 0.14639228
v -0.28451493 -0.47737096 0.15011726
v -0.28462499 -0.47956601 0.14767300
v -0.29818234 -0.46753169 0.15037100
v -0.30265428 -0.46624103 0.14850512
v -0.27651700 -0.48014000 0.15071200
v -0.27342901 -0.47971299 0.15224899
v -0.26003475 -0.47807575 0.15725575
v -0.26705431 -0.47518372 0.15812852
v -0.27790712 -0.47032978 0.15824349
v -0.28853953 -0.47001534 0.15408210
v -0.28089497 -0.46288059 0.16122200
v -0.23710975 -0.47656700 0.16093875
v -0.25109684 -0.47441677 0.16183800
v -0.25922857 -0.47085417 0.16277555
v -0.27165919 -0.46400469 0.16353964
v -0.26588579 -0.46316668 0.16552215
v -0.25324235 -0.46694474 0.16589438
v -0.24674065 -0.46052922 0.16874500
v -0.22834399 -0.47608599 0.15950499
v -0.23026591 -0.47431362 0.16021387
v -0.23316691 -0.46843748 0.16222861
v -0.23158587 -0.47174299 0.16138991
v -0.23643142 -0.45862973 0.16585812
v -0.23468441 -0.46460024 0.16324436
v -0.23937662 -0.47180229 0.16386919
v -0.24333075 -0.46217617 0.16785453
v -0.34362342 -0.48690348 0.04192953
v -0.34650505 -0.48098685 0.05901541
v -0.34648755 -0.48525045 0.03579449
v -0.33399799 -0.49389100 0.05148700
v -0.34286479 -0.49136452 0.02304708
v -0.33922866 -0.48964823 0.04945019
v -0.35260979 -0.48263940 0.02212742
v -0.34392937 -0.48122513 0.06875497
v -0.34933860 -0.48282357 0.03412128
v -0.33556624 -0.49435425 0.04271475
v -0.33366611 -0.49330130 0.05486043
v -0.35078203 -0.48515574 0.01348444
v -0.33072799 -0.49402601 0.06069900
v -0.34024392 -0.48349027 0.07358825
v -0.33920779 -0.49487580 0.00514594
v -0.34159440 -0.47724271 0.08633591
v -0.33684470 -0.48287651 0.08327920
v -0.33875323 -0.49484504 0.01951191
v -0.34939799 -0.48645780 0.00302189
v -0.32734501 -0.49126199 0.07979300
v -0.32912055 -0.48725419 0.08798310
v -0.32210201 -0.49188301 0.08838300
v -0.33741900 -0.49519399 0.02653100
v -0.35267128 -0.47877896 0.04023650
v -0.34849353 -0.48639152 -0.00478486
v -0.33882525 -0.49461338 -0.00488877
v -0.33585303 -0.49454841 -0.02090565
v -0.34327687 -0.48845781 -0.01887785
v -0.33824201 -0.49527899 0.01195450
v -0.32590211 -0.49505331 -0.04789485
v -0.35528759 -0.48071519 -0.00004828
v -0.31373795 -0.49462105 -0.07638480
v -0.30142701 -0.49584699 -0.09269100
v -0.33673199 -0.49059108 -0.03237223
v -0.30590400 -0.49575999 -0.08610500
v -0.33257976 -0.48928641 -0.04774969
v -0.32667862 -0.48792735 -0.06642381
v -0.34601495 -0.48256664 0.04498652
f 6 31 34
f 34 31 33
f 34 33 32
f 32 33 31
f 31 29 32
f 29 30 32
f 121 32 30
f 115 32 121
f 114 115 121
f 114 121 117
f 117 121 123
f 117 123 124
f 123 39 124
f 39 38 124
f 119 124 38
f 38 120 119
f 122 119 120
f 119 122 41
f 41 117 119
f 42 117 41
f 123 30 39
f 119 117 124
f 114 117 40
f 40 113 114
f 40 102 113
f 102 106 113
f 106 112 113
f 112 115 113
f 112 118 115
f 106 118 112
f 118 106 99
f 94 118 99
f 94 37 118
f 96 37 94
f 90 96 94
f 111 96 90
f 111 14 96
f 13 14 111
f 4 13 111
f 5 96 14
f 88 111 90
f 125 111 88
f 3 111 125
f 3 4 111
f 89 125 88
f 16 125 89
f 125 16 3
f 15 16 89
f 1 15 89
f 1 89 103
f 103 89 95
f 101 103 95
f 104 103 101
f 104 108 103
f 108 51 103
f 51 108 53
f 49 53 108
f 49 108 109
f 109 108 107
f 108 101 107
f 107 101 98
f 107 98 100
f 100 98 91
f 91 98 97
f 98 92 97
f 93 92 98
f 93 88 92
f 92 110 97
f 92 105 110
f 105 116 110
f 105 102 116
f 92 102 105
f 101 93 98
f 101 89 93
f 53 52 51
f 52 53 54
f 50 52 54
f 48 50 54
f 55 48 54
f 58 55 54
f 58 61 55
f 61 58 62
f 62 71 61
f 70 71 62
f 70 72 71
f 72 26 71
f 25 26 72
f 25 72 77
f 77 72 76
f 76 70 77
f 77 70 75
f 78 77 75
f 79 77 78
f 87 79 78
f 87 27 79
f 87 28 27
f 28 87 84
f 27 11 79
f 87 78 86
f 87 86 82
f 85 87 82
f 84 87 85
f 82 86 83
f 83 86 81
f 81 86 80
f 83 81 80
f 86 78 74
f 11 77 79
f 78 75 74
f 74 75 69
f 74 69 68
f 86 74 68
f 86 68 73
f 86 73 80
f 69 62 68
f 68 62 67
f 67 62 66
f 62 63 66
f 62 57 63
f 62 59 57
f 59 58 57
f 75 70 69
f 11 25 77
f 71 26 64
f 71 64 60
f 64 65 60
f 65 47 60
f 24 47 65
f 23 24 65
f 23 65 26
f 24 21 47
f 21 45 47
f 45 48 47
f 48 45 46
f 56 46 45
f 56 17 46
f 18 17 56
f 46 17 50
f 45 19 56
f 20 56 19
f 21 22 45
f 60 47 55
f 26 65 64
f 76 72 70
f 70 62 69
f 71 60 61
f 59 62 58
f 61 60 55
f 57 58 54
f 47 48 55
f 46 50 48
f 50 51 52
f 50 44 51
f 44 2 51
f 9 2 44
f 10 9 44
f 10 44 43
f 43 44 50
f 2 103 51
f 104 101 108
f 101 95 89
f 2 1 103
f 89 88 93
f 90 92 88
f 90 94 92
f 96 12 37
f 5 12 96
f 94 99 92
f 99 106 92
f 92 106 102
f 102 40 116
f 113 115 114
f 32 115 118
f 35 32 118
f 36 35 118
f 37 36 118
f 30 123 121
f 30 29 8
f 7 8 29
f 7 29 31
f 6 7 31

