# https://github.com/mikedh/trimesh
v -0.20227375 -0.16448112 0.05162650
v -0.21638100 -0.16866100 0.03894300
v -0.17485850 -0.16369350 0.06700000
v -0.23329701 -0.18885501 0.00057900
v -0.22978212 -0.17966262 0.01480525
v -0.22642150 -0.17464950 0.02384050
v -0.23417725 -0.20289137 -0.01129850
v -0.23625199 -0.21393951 -0.01767300
v -0.22218150 -0.22173325 0.01418625
v -0.21510400 -0.22252101 0.02275100
v -0.23281475 -0.22252075 -0.00115275
v -0.23753762 -0.22019713 -0.01557012
v -0.20488316 -0.18574846 0.04477339
v -0.20094799 -0.18273210 0.04981742
v -0.21389413 -0.19002847 0.03220139
v -0.20931567 -0.18165930 0.04239554
v -0.20632505 -0.17560290 0.04752928
v -0.21650632 -0.19008849 0.02865159
v -0.20383496 -0.18875931 0.04421395
v -0.20330500 -0.20260392 0.03540633
v -0.20863543 -0.20950287 0.02653729
v -0.21112600 -0.20472200 0.02580200
v -0.20205855 -0.20549925 0.03496823
v -0.20231828 -0.20866698 0.03332644
v -0.21472659 -0.20481256 0.02122781
v -0.22105265 -0.17589453 0.03162985
v -0.22679672 -0.18046272 0.02011206
v -0.19668701 -0.20716303 0.03885339
v -0.19299787 -0.20660293 0.04238617
v -0.21775760 -0.20486295 0.01740502
v -0.19196508 -0.18923641 0.05427052
v -0.22158812 -0.19908181 0.01482891
v -0.22554993 -0.18276332 0.02050773
v -0.22716009 -0.20151868 0.00427300
v -0.22602147 -0.20660933 0.00462462
v -0.19712999 -0.21182901 0.03700200
v -0.23179762 -0.19009899 0.00304600
v -0.21356066 -0.20967732 0.02135715
v -0.22241142 -0.21326621 0.00981812
v -0.18038633 -0.19374494 0.06015806
v -0.19079842 -0.18749983 0.05623109
v -0.19805626 -0.18301226 0.05265627
v -0.18870001 -0.19733149 0.05197600
v -0.20871415 -0.17130385 0.04628432
v -0.17632593 -0.18988048 0.06447901
v -0.17893600 -0.19868700 0.05780400
v -0.20407725 -0.21601824 0.03075700
v -0.18058439 -0.18423219 0.06409552
v -0.23202668 -0.20171610 -0.00622861
v -0.18936937 -0.17944938 0.05966680
v -0.17653600 -0.19627650 0.06080650
v -0.22672935 -0.21205123 0.00316687
v -0.20062409 -0.17110846 0.05300260
v -0.21627885 -0.21723715 0.01888765
v -0.23212520 -0.20803483 -0.00750926
v -0.21270366 -0.21522226 0.02235947
v -0.20076946 -0.16664557 0.05322893
v -0.17971891 -0.17864126 0.06586997
v -0.16850511 -0.18220470 0.07058171
v -0.23026533 -0.21100324 -0.00308086
v -0.17237457 -0.18148658 0.06922851
v -0.16405381 -0.18626246 0.07140518
v -0.22068900 -0.21706744 0.01356039
v -0.18433715 -0.17237632 0.06379445
v -0.19325854 -0.16834925 0.05827310
v -0.16720299 -0.19187200 0.06773800
v -0.17520661 -0.17342561 0.06840841
v -0.15724248 -0.18423140 0.07385457
v -0.16140451 -0.18848550 0.07122350
v -0.20685125 -0.21498741 0.02788668
v -0.20939101 -0.22165750 0.02760500
v -0.23507696 -0.21523702 -0.01326872
v -0.23248793 -0.21660390 -0.00568247
v -0.16222307 -0.18072935 0.07341022
v -0.16615937 -0.17376720 0.07239166
v -0.18175445 -0.16512766 0.06451422
v -0.17585783 -0.17084858 0.06808126
v -0.15910737 -0.17807348 0.07449569
v -0.16121200 -0.17217900 0.07364100
v -0.22867237 -0.21844461 0.00284074
v -0.16417500 -0.17120500 0.07265100
f 49 7 4
f 49 72 7
f 55 72 49
f 55 73 72
f 73 12 72
f 73 11 12
f 80 11 73
f 52 80 73
f 39 80 52
f 39 63 80
f 54 63 39
f 38 54 39
f 21 54 38
f 21 56 54
f 56 70 54
f 71 54 70
f 47 71 70
f 70 36 47
f 28 36 70
f 28 70 24
f 24 70 21
f 23 24 21
f 15 23 21
f 20 23 15
f 20 28 23
f 19 28 20
f 42 28 19
f 29 28 42
f 31 29 42
f 41 31 42
f 50 41 42
f 42 64 50
f 58 50 64
f 77 58 64
f 77 64 76
f 3 77 76
f 75 77 3
f 77 75 67
f 75 58 67
f 75 61 58
f 75 74 61
f 78 74 75
f 79 78 75
f 79 75 81
f 78 68 74
f 68 62 74
f 74 62 59
f 59 62 61
f 62 45 61
f 66 45 62
f 69 66 62
f 45 66 40
f 66 51 40
f 51 46 40
f 46 43 40
f 40 43 41
f 43 29 41
f 40 41 45
f 48 45 41
f 61 45 48
f 68 69 62
f 59 61 74
f 61 48 58
f 81 75 3
f 76 64 65
f 76 65 1
f 65 57 1
f 57 65 53
f 65 42 53
f 53 42 17
f 53 17 44
f 17 26 44
f 44 26 2
f 1 44 2
f 26 6 2
f 26 27 6
f 26 33 27
f 33 34 27
f 32 34 33
f 32 35 34
f 34 35 49
f 30 35 32
f 30 25 35
f 25 30 32
f 25 32 26
f 18 25 26
f 15 18 26
f 16 15 26
f 13 15 16
f 14 13 16
f 17 14 16
f 14 19 13
f 13 19 15
f 15 25 18
f 15 22 25
f 22 21 25
f 27 34 49
f 37 27 49
f 27 37 5
f 5 37 4
f 26 32 33
f 6 27 5
f 17 16 26
f 17 42 14
f 57 53 44
f 57 44 1
f 67 58 77
f 58 48 50
f 65 64 42
f 50 48 41
f 41 29 31
f 14 42 19
f 19 20 15
f 21 22 15
f 23 28 24
f 29 36 28
f 54 71 10
f 54 10 9
f 54 9 80
f 21 70 56
f 25 21 38
f 25 38 39
f 25 39 35
f 35 39 52
f 52 60 35
f 35 60 55
f 52 73 60
f 80 9 11
f 8 72 12
f 60 73 55
f 49 35 55
f 7 72 8
f 37 49 4

