# https://github.com/mikedh/trimesh
v -0.03424750 -0.41707850 0.16303050
v -0.03600750 -0.42086175 0.16242825
v -0.02885844 -0.42159706 0.16685487
v -0.01593500 -0.42469200 0.17087300
v 0.04258934 -0.27454562 0.12271193
v 0.04612200 -0.27738300 0.12165450
v 0.04560100 -0.27323201 0.12120200
v 0.04296030 -0.28186591 0.12163380
v 0.04737700 -0.31823900 0.13924000
v 0.04601400 -0.31223401 0.13880500
v 0.03603375 -0.40018375 0.15833575
v 0.03104126 -0.40447267 0.16153864
v 0.03911890 -0.38747499 0.15504546
v 0.04118939 -0.38223710 0.15327046
v 0.04228741 -0.37463788 0.15145426
v 0.04599975 -0.35915926 0.14696975
v 0.04355974 -0.36313757 0.14881933
v 0.04403293 -0.34414314 0.14541464
v 0.04475137 -0.33818953 0.14420342
v 0.02072954 -0.41410523 0.16653865
v 0.02598550 -0.41196050 0.16441900
v 0.01413227 -0.41659730 0.16827872
v 0.00731922 -0.42383451 0.16941859
v 0.00107755 -0.42206742 0.17095558
v -0.00206108 -0.42030575 0.17071748
v 0.04162214 -0.32853910 0.14148793
v 0.00962071 -0.41747040 0.16868973
v 0.01145075 -0.42206274 0.16839649
v -0.02848315 -0.41672280 0.16440752
v -0.00703106 -0.41602210 0.16187623
v -0.00808567 -0.41966285 0.16978571
v -0.01493300 -0.41379300 0.15779801
v -0.02359129 -0.41900159 0.16803585
v -0.01464222 -0.40977725 0.15220697
v 0.01041276 -0.40956247 0.15827492
v -0.02199212 -0.41448246 0.15799097
v -0.01237550 -0.41160251 0.15535589
v -0.00475243 -0.41050172 0.15712366
v 0.00664891 -0.40826831 0.15696651
v 0.02855653 -0.40558843 0.16228822
v -0.00881420 -0.40372320 0.14819370
v 0.02097912 -0.40439279 0.15753957
v 0.01527397 -0.40206630 0.15419032
v -0.00518073 -0.40045622 0.14718781
v 0.02662464 -0.39321068 0.15258561
v 0.02724970 -0.38459920 0.14942403
v 0.00301733 -0.39877227 0.15112779
v 0.00018835 -0.39081084 0.14490993
v 0.01811308 -0.37230180 0.14538686
v 0.03002137 -0.33317375 0.13863561
v 0.03562497 -0.33999914 0.14093833
v 0.02874218 -0.37053107 0.14593982
v 0.02754425 -0.33287205 0.13767901
v 0.02214736 -0.35461207 0.14208829
v 0.01781711 -0.34903733 0.13794482
v 0.03359011 -0.36991668 0.14638865
v 0.01460140 -0.36757552 0.14205257
v -0.01321450 -0.42566200 0.16999950
v 0.03515483 -0.33231775 0.13929751
v 0.04738500 -0.30814549 0.13748350
v 0.04823400 -0.30163949 0.13556800
v 0.04918100 -0.29923099 0.13471501
v 0.04856200 -0.29654101 0.13377300
v 0.04940900 -0.29136199 0.13185699
v 0.02595315 -0.32101744 0.13247522
v 0.02574100 -0.32514700 0.13356300
v 0.02206631 -0.33537529 0.13536102
v 0.03016375 -0.31193633 0.13029437
v 0.03338318 -0.30089046 0.12755116
v 0.03778550 -0.29102850 0.12481050
v 0.04210600 -0.30541700 0.13433200
v 0.01217693 -0.38168921 0.14656540
v -0.03089097 -0.41804028 0.16567353
v -0.00753150 -0.42751700 0.16880100
v -0.03205702 -0.41414181 0.16215084
v 0.03955488 -0.28714135 0.12364475
v 0.01945504 -0.34291721 0.13672441
v 0.01560278 -0.35610944 0.13886246
v 0.01253167 -0.36696391 0.14033512
v 0.03514407 -0.29810994 0.12672497
v 0.04891037 -0.28373275 0.12725050
v 0.04423381 -0.28803264 0.12665402
v 0.04993400 -0.28807050 0.13043850
v 0.00768030 -0.38035521 0.14238625
v -0.00147300 -0.42875400 0.16739000
v 0.00351900 -0.42726600 0.16686000
v 0.01010369 -0.37282649 0.14118556
v 0.00500975 -0.38388809 0.14294503
v 0.03467100 -0.27230400 0.11440300
v 0.02957391 -0.40972025 0.16239669
v 0.05258226 -0.29988058 0.12862427
v 0.05395567 -0.28758313 0.12887057
v 0.04993399 -0.30561696 0.13541898
v 0.05366650 -0.27766450 0.12436300
v 0.05416075 -0.27352850 0.11876575
v 0.05185100 -0.26962750 0.11296050
v 0.05226940 -0.28137813 0.12764774
v 0.05136179 -0.27331831 0.12206723
v 0.04956506 -0.26952478 0.11579288
f 75 1 73
f 29 75 73
f 36 75 29
f 36 29 30
f 30 32 36
f 32 37 36
f 37 34 36
f 44 34 37
f 38 44 37
f 47 44 38
f 47 48 44
f 72 48 47
f 72 84 48
f 72 79 84
f 79 87 84
f 57 79 72
f 57 78 79
f 55 78 57
f 55 57 54
f 54 57 49
f 51 54 49
f 50 54 51
f 59 50 51
f 59 51 19
f 26 59 19
f 19 9 26
f 10 26 9
f 60 10 9
f 60 63 10
f 10 63 71
f 63 69 71
f 63 80 69
f 81 80 63
f 81 82 80
f 81 8 82
f 82 8 76
f 76 70 82
f 81 6 8
f 82 70 80
f 81 63 64
f 71 69 10
f 10 69 26
f 26 69 50
f 50 69 53
f 69 68 53
f 68 66 53
f 68 65 66
f 80 65 68
f 66 67 53
f 53 67 77
f 53 77 55
f 50 53 55
f 61 60 9
f 93 61 9
f 61 93 91
f 62 61 91
f 64 62 91
f 92 64 91
f 92 97 64
f 94 97 92
f 97 94 98
f 98 7 97
f 98 99 7
f 7 99 89
f 7 89 5
f 94 95 98
f 98 95 99
f 95 96 99
f 64 97 83
f 97 6 83
f 19 51 18
f 18 51 56
f 51 52 56
f 56 52 46
f 56 46 14
f 15 56 14
f 17 56 15
f 16 56 17
f 14 46 45
f 46 43 45
f 45 43 42
f 45 42 11
f 11 13 45
f 11 42 40
f 40 42 20
f 20 42 35
f 20 35 30
f 30 35 38
f 39 38 35
f 39 43 38
f 43 39 35
f 27 20 30
f 27 30 31
f 30 33 31
f 25 27 31
f 4 25 31
f 4 31 33
f 4 33 3
f 73 3 33
f 73 2 3
f 25 4 24
f 22 25 24
f 22 24 23
f 24 4 23
f 23 4 58
f 23 58 74
f 23 74 85
f 23 85 86
f 28 23 86
f 20 22 23
f 23 28 20
f 27 25 22
f 22 20 27
f 40 12 11
f 12 40 20
f 12 20 21
f 12 21 90
f 42 43 35
f 14 45 13
f 52 43 46
f 52 47 43
f 18 56 16
f 52 51 49
f 49 72 52
f 50 55 54
f 49 57 72
f 88 48 84
f 72 47 52
f 43 47 38
f 30 38 37
f 44 41 34
f 30 37 32
f 30 29 33
f 33 29 73
f 1 2 73

