# https://github.com/mikedh/trimesh
v -0.21057955 -0.43877974 0.11987181
v -0.19285327 -0.44442030 0.13021553
v -0.20961700 -0.44528100 0.12915801
v -0.21476512 -0.43908482 0.11967302
v -0.25151631 -0.43963366 0.11398989
v -0.26132980 -0.44757994 0.12182722
v -0.14548322 -0.44340300 0.13514043
v -0.12532515 -0.44481587 0.13883331
v -0.12664757 -0.44038924 0.13299839
v -0.16616150 -0.44858231 0.13981070
v -0.22634647 -0.44724524 0.12927767
v -0.13214099 -0.43913200 0.13086700
v -0.14143595 -0.44884161 0.14227576
v -0.10653953 -0.43576870 0.12903332
v -0.07506052 -0.44300225 0.13946448
v 0.01141616 -0.43839423 0.13662260
v 0.01331071 -0.43277721 0.13051610
v 0.05383782 -0.43649534 0.13509172
v 0.10532617 -0.44031227 0.13839763
v 0.02741824 -0.44170143 0.14056787
v 0.06757005 -0.44358106 0.14239461
v 0.01175276 -0.44628452 0.14470862
v 0.12106754 -0.44386197 0.14137163
v 0.15520372 -0.44322787 0.13859521
v 0.17477660 -0.44478407 0.13832946
v 0.13066708 -0.42803742 0.12362132
v 0.17770599 -0.43292117 0.12399789
v 0.11318187 -0.43492626 0.13236989
v 0.21372338 -0.43408394 0.11973046
v 0.25316973 -0.42997424 0.10573596
v 0.25664141 -0.44202322 0.12035409
v 0.08635078 -0.42838689 0.12626515
v 0.06075983 -0.42936329 0.12752780
v -0.05794250 -0.43059920 0.12614423
v -0.03340395 -0.43024023 0.12656896
v -0.00796838 -0.42606505 0.12341755
v -0.13694953 -0.43384012 0.12409311
v -0.14763052 -0.43691501 0.12628930
v -0.16205770 -0.43583492 0.12307939
v 0.18122202 -0.44305877 0.13579137
v 0.22605702 -0.44454996 0.13074711
v -0.25959595 -0.43643434 0.10768502
v 0.26761393 -0.43799994 0.11116219
v 0.27702400 -0.43373225 0.10062050
v -0.27385057 -0.44351852 0.11207968
v -0.28249540 -0.44467996 0.10899503
v 0.20490852 -0.42858475 0.11482359
v -0.21162748 -0.44983960 0.13482212
v -0.23986382 -0.45071079 0.13057905
v 0.10060774 -0.42216395 0.12005230
v 0.27687666 -0.43814555 0.10707385
v -0.08744497 -0.44688971 0.14307253
v 0.22271850 -0.42968186 0.11242109
v 0.16001369 -0.43169190 0.12486252
v 0.28729001 -0.43814650 0.10001100
v -0.12273256 -0.43225258 0.12380359
v 0.18147117 -0.44688611 0.13983256
v 0.24095022 -0.44855143 0.13157706
v -0.25330289 -0.43448506 0.10742831
v -0.05410296 -0.44512896 0.14254241
v -0.20784264 -0.43466691 0.11603873
v -0.08958086 -0.43164783 0.12559196
v 0.02720041 -0.42395304 0.12233028
v 0.27997430 -0.44112647 0.10942835
v -0.27545922 -0.44909309 0.11752430
v -0.19385655 -0.45133459 0.13911498
v 0.13173592 -0.42142645 0.11757913
v 0.09074607 -0.44512820 0.14343585
v 0.14177565 -0.44934755 0.14502281
v 0.27657482 -0.44670691 0.11713591
v -0.29202552 -0.44500236 0.10279773
v 0.25819825 -0.42640575 0.10013725
v 0.21357897 -0.42642437 0.11110309
v -0.26066971 -0.45074866 0.12510710
v 0.22235366 -0.44656458 0.13321079
v 0.18157113 -0.42597379 0.11599764
v -0.08336410 -0.42562322 0.12053768
v 0.00481728 -0.41973503 0.11854959
v -0.05681676 -0.42053184 0.11771343
v 0.17990683 -0.42270450 0.11339735
v 0.10304799 -0.42547386 0.12284898
v -0.28449349 -0.43411137 0.09485137
v -0.27912706 -0.43168222 0.09559158
v 0.29069501 -0.44262901 0.10317700
v 0.14679684 -0.42116444 0.11609853
v 0.15414616 -0.42510007 0.11863823
v 0.05718614 -0.41815876 0.11804382
v 0.05868920 -0.42435970 0.12292400
v 0.07480331 -0.42459326 0.12298924
v -0.10141570 -0.42615883 0.12005133
v 0.24408721 -0.42771732 0.10559469
v -0.06968727 -0.44903944 0.14542464
v -0.17120432 -0.43238388 0.11849968
v 0.25663561 -0.44569300 0.12435517
v 0.20511390 -0.42203674 0.10916127
v 0.20211631 -0.44895260 0.13874580
v -0.22781154 -0.43362048 0.11221378
v -0.24836200 -0.45247799 0.12987800
v 0.15506482 -0.41892545 0.11366945
v -0.25799275 -0.43120496 0.10382256
v -0.19372689 -0.43106836 0.11495755
v 0.11250045 -0.41666645 0.11549938
v 0.23424925 -0.45063675 0.13400737
v 0.25040001 -0.42296100 0.09966800
v -0.21369167 -0.45352923 0.13769159
v -0.22299770 -0.45441501 0.13662056
v 0.03731809 -0.45002442 0.14746970
v -0.01930125 -0.45061373 0.14730953
v -0.16196663 -0.45242357 0.14382858
v 0.25790925 -0.44900337 0.12651437
v 0.23834073 -0.42396290 0.10379398
v -0.11833159 -0.45201882 0.14613423
v -0.09686407 -0.45283345 0.14724480
v -0.17184301 -0.42924899 0.11608400
v -0.13850452 -0.42996460 0.12028422
v -0.11050200 -0.42253301 0.11704600
v -0.13414350 -0.42326850 0.11605750
v -0.09105400 -0.42093101 0.11702700
v 0.02840761 -0.41448894 0.11535338
v -0.23980350 -0.43000701 0.10742600
v 0.16362512 -0.45048850 0.14431983
v 0.14535200 -0.41578200 0.11236750
v -0.18822070 -0.45596614 0.14278259
v -0.29928761 -0.43378237 0.08130999
v 0.18684199 -0.41789499 0.10917700
v -0.16304113 -0.42713587 0.11570037
v 0.11680600 -0.41518101 0.11426700
v -0.18665726 -0.42929674 0.11462525
v -0.21587675 -0.45723773 0.13919151
v 0.07742280 -0.41593106 0.11630981
v -0.20756925 -0.42994625 0.11253400
v 0.29301850 -0.44583049 0.10461850
v 0.05939738 -0.41253975 0.11410212
v 0.23822699 -0.42164001 0.10215500
v 0.23312100 -0.42054150 0.10259225
v -0.15937801 -0.42721999 0.11611600
v 0.07592952 -0.44723781 0.14552393
v -0.23427550 -0.43023901 0.10866350
v 0.20841299 -0.41955501 0.10687600
v 0.19234687 -0.41887838 0.10895150
v 0.22486825 -0.42074424 0.10452325
v -0.04866888 -0.41591187 0.11492900
v -0.00675900 -0.41342801 0.11408200
v -0.13068800 -0.42297599 0.11613800
v -0.13963300 -0.42561501 0.11703600
v 0.14233800 -0.41620000 0.11305400
v -0.08615600 -0.41901399 0.11610950
v -0.07102350 -0.41874525 0.11634175
v -0.24028523 -0.45382869 0.13277877
v 0.20751253 -0.45174870 0.13965875
v -0.25479538 -0.45265955 0.12829058
v -0.25437726 -0.42859050 0.10304950
v -0.29618041 -0.44603681 0.09995442
v -0.29353111 -0.43097917 0.08424755
v -0.15298563 -0.45519525 0.14585962
v 0.14514850 -0.45221350 0.14618200
v 0.24044650 -0.42059100 0.10096700
v 0.24717000 -0.42021799 0.09889300
v -0.27009550 -0.42823550 0.09729175
v 0.07403050 -0.45168349 0.14794101
v 0.21256550 -0.45391250 0.13977900
v -0.26504450 -0.42824200 0.09925312
v -0.30368149 -0.44053800 0.08433550
v -0.30069000 -0.43307000 0.07802500
v -0.28457575 -0.41971225 0.08564275
v -0.28430015 -0.44958608 0.11301474
v -0.28697500 -0.42699937 0.08619200
v -0.03351425 -0.45347738 0.14850638
v -0.10095375 -0.45431000 0.14771675
v 0.17554463 -0.45185875 0.14358125
v -0.26901100 -0.45308499 0.12372112
v 0.02800250 -0.45265150 0.14867099
v 0.28928438 -0.44643602 0.10880522
v -0.19340000 -0.45773700 0.14259300
v 0.29770601 -0.44946501 0.10326300
v -0.23878815 -0.45824240 0.13482193
v -0.18089750 -0.45779300 0.14425651
v -0.28608701 -0.45493200 0.11462100
v -0.25116602 -0.45700432 0.13136836
v -0.22814191 -0.45960369 0.13731423
v 0.28600588 -0.45064338 0.11347250
v -0.21013799 -0.45949900 0.14052100
v -0.22039400 -0.45966899 0.13877900
v -0.25427286 -0.45529005 0.13013408
v -0.22648200 -0.46228600 0.13781001
v -0.23649957 -0.35209311 0.12619544
v -0.23637133 -0.34749635 0.12712009
v -0.21869106 -0.35227529 0.12832604
v -0.20656027 -0.35000455 0.12937262
v -0.21106150 -0.35431079 0.12815968
v -0.20192695 -0.34212834 0.13077377
v -0.22489611 -0.33955393 0.12981127
v -0.21118405 -0.32775446 0.13146613
v -0.22912808 -0.32963825 0.13020480
v -0.18872062 -0.33048406 0.13198699
v -0.17656034 -0.33394730 0.13160903
v -0.17258083 -0.33009130 0.13158047
v -0.15305241 -0.33039788 0.13052896
v -0.15153609 -0.35006782 0.12833033
v -0.17499535 -0.34334395 0.13087231
v -0.15513886 -0.33651033 0.13036257
v -0.17070791 -0.35047975 0.12944202
v -0.18901972 -0.35391063 0.12903293
v -0.23659200 -0.33744326 0.12858115
v -0.22192319 -0.36470169 0.12469322
v -0.18477466 -0.35352198 0.12921585
v -0.13976550 -0.33549166 0.12930261
v -0.13928178 -0.35241536 0.12667394
v -0.12939920 -0.35563574 0.12484299
v -0.10596628 -0.36050809 0.12038480
v -0.10642761 -0.35190079 0.12206031
v -0.17662694 -0.36530793 0.12598624
v -0.16770599 -0.35667897 0.12791631
v -0.15964734 -0.35395701 0.12812685
v -0.14684251 -0.37560352 0.12099355
v -0.13363188 -0.36938264 0.12164152
v -0.11525782 -0.38508080 0.11465879
v -0.13111343 -0.38518717 0.11625997
v -0.14458019 -0.39031654 0.11574410
v -0.11852044 -0.37136094 0.11919271
v -0.16471842 -0.39654612 0.11464238
v -0.17185246 -0.39021588 0.11701224
v -0.18549532 -0.40123059 0.11314750
v -0.18860810 -0.37595946 0.12255842
v -0.16603157 -0.37417286 0.12266029
v -0.15285403 -0.36420724 0.12508780
v -0.16414858 -0.36715797 0.12479988
v -0.20022775 -0.36924702 0.12466687
v -0.21116824 -0.37562682 0.12196575
v -0.21627656 -0.38428030 0.11824598
v -0.19711734 -0.39971438 0.11337469
v -0.22623482 -0.38757464 0.11594879
v -0.23575152 -0.38440968 0.11595150
v -0.23745671 -0.37837092 0.11796111
v -0.23743726 -0.40457335 0.10754274
v -0.21166987 -0.39976923 0.11244437
v -0.20970727 -0.35986840 0.12698896
v -0.14082110 -0.36170059 0.12471077
v -0.09849682 -0.38302178 0.11339651
v -0.09646940 -0.37291958 0.11567076
v -0.08800026 -0.37267144 0.11438578
v -0.18793922 -0.36276487 0.12679873
v -0.14081415 -0.39745988 0.11336952
v -0.16281265 -0.40357911 0.11268583
v -0.20040483 -0.40532770 0.11142322
v -0.22388614 -0.40602259 0.10907294
v -0.21518547 -0.41480953 0.10830990
v -0.23204421 -0.37140912 0.12146904
v -0.22698203 -0.41315207 0.10713952
v -0.08689804 -0.36050753 0.11684852
v -0.24062214 -0.36368270 0.12256747
v -0.25369880 -0.36166206 0.12038168
v -0.24553470 -0.35421826 0.12411815
v -0.25147679 -0.41175446 0.10225307
v -0.11511500 -0.34484300 0.12450900
v -0.12677931 -0.34358824 0.12660266
v -0.08127246 -0.35725743 0.11635623
v -0.09089992 -0.34661432 0.11992682
v -0.25253811 -0.34966815 0.12371355
v -0.13698600 -0.33299899 0.12880901
v -0.24659245 -0.37626292 0.11708029
v -0.25502942 -0.38495509 0.11140755
v -0.10877728 -0.34050056 0.12395749
v -0.07738987 -0.34747051 0.11666738
v -0.12652841 -0.33661950 0.12729710
v -0.11205200 -0.33151901 0.12494800
v -0.11264200 -0.32771501 0.12494200
v -0.11743811 -0.33618330 0.12583790
v -0.06806200 -0.35784701 0.11345000
v -0.24332206 -0.33851572 0.12753656
v -0.26754524 -0.35042426 0.11933704
v -0.25750167 -0.34305609 0.12373115
v -0.26419988 -0.34438291 0.12148208
v -0.26214600 -0.36084899 0.11813300
v -0.24092409 -0.32427269 0.12869453
v -0.25382547 -0.40396397 0.10375597
v -0.19480316 -0.31964254 0.13164959
v -0.18412041 -0.31439814 0.13102973
v -0.17207645 -0.32111205 0.13137838
v -0.09415300 -0.33983600 0.12102600
v -0.14759636 -0.32498384 0.13008451
v -0.25105051 -0.32365591 0.12700513
v -0.23860554 -0.31924081 0.12900708
v -0.22935597 -0.31770792 0.13009184
v -0.21768253 -0.31829632 0.13092080
v -0.20890320 -0.31620387 0.13112904
v -0.25788893 -0.37119620 0.11610956
v -0.26683827 -0.34040114 0.12140167
v -0.12647101 -0.32737264 0.12745673
v -0.13848660 -0.32734315 0.12899924
v -0.25927760 -0.39713361 0.10474544
v -0.11897000 -0.32546451 0.12596450
v -0.26958135 -0.33635229 0.12086058
v -0.26320518 -0.32074468 0.12389720
v -0.25406597 -0.32287805 0.12644986
v -0.26927816 -0.37335117 0.11144074
v -0.26982034 -0.36377834 0.11463090
v -0.12613425 -0.32086575 0.12666800
v -0.24201712 -0.31389494 0.12826238
v -0.26828090 -0.32165629 0.12215023
v -0.27489786 -0.35748567 0.11430128
v -0.26479501 -0.41443300 0.09703500
v -0.26836468 -0.40798129 0.09665057
v -0.15651973 -0.31740451 0.12995563
v -0.14104401 -0.31562501 0.12801699
v -0.27966134 -0.38062920 0.10316524
v -0.26983640 -0.39813541 0.09989821
v -0.15778088 -0.31283167 0.12952568
v -0.27812383 -0.35737728 0.11292393
v -0.26911196 -0.31050678 0.12143340
v -0.17777749 -0.31115062 0.13036772
v -0.20838800 -0.30536300 0.12942000
v -0.22458381 -0.30443070 0.12869119
v -0.21135223 -0.31061691 0.13043687
v -0.22001918 -0.30885390 0.12974320
v -0.25543127 -0.30872195 0.12507638
v -0.27729557 -0.37318782 0.10755014
v -0.26990283 -0.41921493 0.09463500
v -0.27884646 -0.34154061 0.11622400
v -0.24983123 -0.30002525 0.12443240
v -0.27056939 -0.32689555 0.12140654
v -0.27358199 -0.41506574 0.09263290
v -0.28340261 -0.37215555 0.10460131
v -0.28654284 -0.34900708 0.11043568
v -0.24325006 -0.30562146 0.12683200
v -0.17119031 -0.30873492 0.12962482
v -0.26098079 -0.30666898 0.12346067
v -0.13834550 -0.31316100 0.12719650
v -0.15635555 -0.30673702 0.12792136
v -0.23464785 -0.30221527 0.12710302
v -0.27707727 -0.31118941 0.11823537
v -0.27408032 -0.40561966 0.09446335
v -0.27920392 -0.33157167 0.11731815
v -0.28933849 -0.34841378 0.10888244
v -0.28446620 -0.31818872 0.11480659
v -0.28537168 -0.32710167 0.11448127
v -0.28465944 -0.34024253 0.11333819
v -0.16446599 -0.30634999 0.12848400
v -0.19836378 -0.30423322 0.12926045
v -0.21038394 -0.30028285 0.12810048
v -0.14572100 -0.30857500 0.12717099
v -0.27783999 -0.40178800 0.09375600
v -0.28626413 -0.36458785 0.10577854
v -0.28036737 -0.40733516 0.08981021
v -0.27497496 -0.30058148 0.11692477
v -0.28890386 -0.33192380 0.11207396
v -0.27906206 -0.42219091 0.09007962
v -0.27935076 -0.41471953 0.08903362
v -0.28358368 -0.38667656 0.09750774
v -0.21386585 -0.29788671 0.12723184
v -0.26168120 -0.29984926 0.12158877
v -0.29405600 -0.34059000 0.10675400
v -0.28937320 -0.31863384 0.11183089
v -0.15151300 -0.30540401 0.12693700
v -0.28390149 -0.40534175 0.08785775
v -0.29096050 -0.36499412 0.10184450
v -0.29309899 -0.32066101 0.10904100
v -0.22815715 -0.29555275 0.12550049
v -0.23425145 -0.29712566 0.12569264
v -0.17291975 -0.30146345 0.12765206
v -0.18224613 -0.29804383 0.12682037
v -0.24729533 -0.29350403 0.12244885
v -0.26572001 -0.29394901 0.11809700
v -0.27825483 -0.29789422 0.11450832
v -0.19840276 -0.29528350 0.12597475
v -0.28830093 -0.30826004 0.11119138
v -0.22535300 -0.29279701 0.12422675
v -0.16185900 -0.29869750 0.12522525
v -0.28815501 -0.30031201 0.10874000
v -0.27419299 -0.29309601 0.11408200
v -0.26204800 -0.29158375 0.11814850
v 0.14392946 -0.37904685 0.11172763
v 0.17316787 -0.37193144 0.11432868
v 0.19671650 -0.36163300 0.11686375
v 0.15776844 -0.38772475 0.10946225
v 0.18414387 -0.37452479 0.11320054
v 0.17241134 -0.39027294 0.10841583
v 0.20793000 -0.37969300 0.10987900
v 0.20123699 -0.38159800 0.10972900
v 0.20196401 -0.36803800 0.11455800
v 0.17768752 -0.35675066 0.11869316
v 0.16439141 -0.35829366 0.11831154
v 0.18345700 -0.34653100 0.12107300
v 0.15929957 -0.34430672 0.12122178
v 0.12291061 -0.37853576 0.11112994
v 0.11140867 -0.37266374 0.11152800
v 0.14148019 -0.35035102 0.11881727
v 0.09595381 -0.37628446 0.10930885
v 0.17952673 -0.39527448 0.10680826
v 0.11493657 -0.38304967 0.10955460
v 0.12234911 -0.38681714 0.10913070
v 0.15200677 -0.35154420 0.11928371
v 0.15691337 -0.35339141 0.11937418
v 0.15038572 -0.39300907 0.10836939
v 0.12621309 -0.39234613 0.10852510
v 0.18822052 -0.39539089 0.10621549
v 0.19147465 -0.39812983 0.10538239
v 0.18321000 -0.33929101 0.12240200
v 0.20592538 -0.39961318 0.10378678
v 0.21786045 -0.39536909 0.10330879
v 0.20345414 -0.39242547 0.10588314
v 0.22105700 -0.37951899 0.10867300
v 0.22486000 -0.38630900 0.10562900
v 0.16934071 -0.39559159 0.10732295
v 0.15503823 -0.39965505 0.10756244
v 0.22724700 -0.39471200 0.10225700
v 0.21651683 -0.40439210 0.10190693
v 0.14851899 -0.33805400 0.12104100
v 0.15427735 -0.34396371 0.12093753
v 0.17654800 -0.32605151 0.12372500
v 0.18246999 -0.32707700 0.12386700
v 0.17935350 -0.33547150 0.12286200
v 0.14399821 -0.39681668 0.10805621
v 0.08906450 -0.37765249 0.10842050
v 0.23399850 -0.40317750 0.09912400
v 0.21658801 -0.40109801 0.10228600
v 0.13118400 -0.34733501 0.11818400
v 0.16363500 -0.32790700 0.12299500
v -0.05934300 -0.40165901 0.10990500
v -0.07734000 -0.40110001 0.11017200
v -0.11403378 -0.40846367 0.11203059
v -0.09457659 -0.40873711 0.11187491
v -0.13657333 -0.41583486 0.11308994
v -0.12988893 -0.41258814 0.11251336
v -0.06431500 -0.40455800 0.11062500
v -0.15363848 -0.41374735 0.11217864
v -0.05621254 -0.40795406 0.11141607
v -0.13750443 -0.41919536 0.11394181
v -0.08363939 -0.41212284 0.11302505
v -0.02477250 -0.40295775 0.10938050
v -0.18756261 -0.42088364 0.11132025
v -0.21349415 -0.42150809 0.10888021
v -0.21056440 -0.42754853 0.11102664
v -0.17094721 -0.42474501 0.11390182
v -0.10522255 -0.40559725 0.11149405
v -0.16971680 -0.41690575 0.11178778
v -0.19407046 -0.41240526 0.11037002
v -0.22560958 -0.41981280 0.10704274
v -0.06262251 -0.41248338 0.11317534
v -0.11534120 -0.41556524 0.11361369
v 0.01295000 -0.39902601 0.10822700
v 0.00407950 -0.40199296 0.10907829
v 0.05366450 -0.40055050 0.10920400
v -0.00439660 -0.40943351 0.11196048
v -0.23982300 -0.42481300 0.10537300
v 0.07977400 -0.40189349 0.10969650
v 0.10813162 -0.39181800 0.10887512
v 0.07952927 -0.40563085 0.11104752
v 0.17973763 -0.40322472 0.10589408
v 0.20064527 -0.40676302 0.10401902
v 0.23108416 -0.40400037 0.09949218
v -0.08070746 -0.38409606 0.11130095
v -0.08399300 -0.39668101 0.11027000
v -0.05745476 -0.36968131 0.11027475
v -0.06667120 -0.36929823 0.11187594
v -0.07189365 -0.38282950 0.11046874
v -0.07357916 -0.36270801 0.11392493
v -0.10401095 -0.39475357 0.11178843
v -0.12424354 -0.39699467 0.11252146
v -0.14348630 -0.40606582 0.11208212
v -0.16892288 -0.40756568 0.11197189
v -0.16096247 -0.41007483 0.11182587
v -0.10973194 -0.40107306 0.11156589
v -0.20112849 -0.41428611 0.10978716
v -0.08042100 -0.40015700 0.11016700
v -0.23825739 -0.41750107 0.10478316
v -0.24664964 -0.42114472 0.10310178
v -0.25676188 -0.41961209 0.09990178
v -0.25192408 -0.41618258 0.10143072
v -0.25056146 -0.42576451 0.10309688
v -0.22634757 -0.42672186 0.10850056
v -0.09432714 -0.41726374 0.11507985
v -0.02920947 -0.40884377 0.11141452
v 0.11792476 -0.40971318 0.11152954
v 0.16126060 -0.40489704 0.10756464
v 0.13597872 -0.40073877 0.10833683
v 0.21100448 -0.41350846 0.10360692
v 0.24354350 -0.41519888 0.09790650
v 0.20079283 -0.41305981 0.10518546
v 0.11561926 -0.40598848 0.11023004
v 0.19397574 -0.41177263 0.10575009
v 0.23168720 -0.41040784 0.09950935
v 0.17010978 -0.41174618 0.10839044
v 0.14731094 -0.40821105 0.10922934
v 0.23131863 -0.41391763 0.10040244
v 0.17949771 -0.40978131 0.10677212
v 0.18529907 -0.41530572 0.10813908
v 0.06139096 -0.40815118 0.11218813
v 0.19953199 -0.41779074 0.10734324
v 0.14190831 -0.41242695 0.11112144
v 0.08518960 -0.40870258 0.11212969
v 0.23410176 -0.41748705 0.10098376
v -0.26700228 -0.42488919 0.09716034
v -0.19093900 -0.46219601 0.14375949
v -0.20032114 -0.46093282 0.14230179
f 124 163 164
f 167 124 164
f 154 124 167
f 83 154 167
f 83 167 162
f 162 100 83
f 97 100 162
f 162 138 97
f 131 97 138
f 97 131 101
f 131 128 101
f 128 93 101
f 93 128 114
f 136 114 128
f 93 114 136
f 145 93 136
f 115 93 145
f 144 115 145
f 144 116 115
f 90 115 116
f 116 77 90
f 148 77 116
f 79 77 148
f 119 79 148
f 119 148 143
f 133 119 143
f 133 87 119
f 130 87 133
f 127 130 133
f 474 127 133
f 474 133 491
f 448 474 491
f 491 488 448
f 448 488 444
f 488 133 444
f 444 133 142
f 444 142 439
f 473 444 439
f 444 473 442
f 430 442 473
f 473 427 430
f 425 430 427
f 435 425 427
f 435 427 422
f 435 422 421
f 421 460 435
f 459 435 460
f 459 460 243
f 243 460 461
f 460 462 461
f 462 437 461
f 462 426 437
f 426 436 437
f 437 436 432
f 437 432 464
f 437 464 247
f 223 437 247
f 223 247 245
f 245 247 231
f 231 247 246
f 246 247 249
f 247 438 249
f 249 438 466
f 438 471 466
f 466 471 467
f 471 445 467
f 445 471 470
f 471 120 470
f 433 120 471
f 431 433 471
f 431 471 432
f 434 433 431
f 434 131 433
f 434 126 131
f 117 126 434
f 472 117 434
f 472 434 428
f 472 428 440
f 429 472 440
f 439 472 429
f 427 439 429
f 422 429 440
f 440 428 423
f 440 423 421
f 421 423 424
f 424 423 436
f 436 423 431
f 421 424 426
f 428 434 423
f 118 117 472
f 147 118 472
f 142 147 472
f 423 434 431
f 433 131 120
f 470 120 152
f 470 152 493
f 470 493 318
f 493 347 318
f 159 347 493
f 159 165 347
f 348 347 165
f 322 347 348
f 332 322 348
f 348 344 332
f 348 355 344
f 349 344 355
f 356 349 355
f 343 349 356
f 343 356 334
f 334 356 352
f 346 334 352
f 357 346 352
f 353 346 357
f 366 353 357
f 366 357 369
f 366 369 364
f 370 364 369
f 371 364 370
f 363 364 371
f 371 351 363
f 362 351 371
f 362 320 351
f 359 320 362
f 367 359 362
f 367 362 371
f 367 358 359
f 350 358 367
f 365 350 367
f 365 361 350
f 368 361 365
f 368 360 361
f 368 354 360
f 360 354 329
f 329 338 360
f 338 326 360
f 360 326 339
f 339 326 311
f 311 278 339
f 339 278 314
f 339 314 312
f 340 339 312
f 361 339 340
f 312 313 340
f 350 340 313
f 350 313 359
f 359 313 330
f 330 325 359
f 330 313 325
f 313 299 325
f 325 299 316
f 325 316 327
f 320 325 327
f 316 295 327
f 295 294 327
f 327 294 310
f 351 327 310
f 310 345 351
f 364 351 345
f 345 331 364
f 345 310 331
f 310 300 331
f 300 321 331
f 331 321 336
f 331 336 335
f 335 336 346
f 333 346 336
f 333 337 346
f 337 324 346
f 337 319 324
f 319 309 324
f 324 309 334
f 271 309 319
f 288 271 319
f 293 288 319
f 293 319 321
f 321 319 333
f 321 288 293
f 295 288 321
f 295 272 288
f 282 272 295
f 299 282 295
f 283 282 299
f 299 284 283
f 284 194 283
f 284 285 194
f 315 285 284
f 286 285 315
f 314 286 315
f 314 315 313
f 314 277 286
f 277 193 286
f 193 277 195
f 195 277 279
f 279 277 278
f 308 279 278
f 304 279 308
f 281 304 308
f 308 305 281
f 328 305 308
f 341 328 308
f 308 329 341
f 329 308 326
f 281 305 328
f 298 281 328
f 298 289 281
f 292 289 298
f 267 289 292
f 267 266 289
f 266 263 289
f 289 263 268
f 289 268 265
f 289 265 207
f 289 207 260
f 289 260 290
f 290 260 198
f 290 198 281
f 281 198 196
f 281 196 197
f 281 197 195
f 197 196 195
f 196 200 195
f 201 200 196
f 201 207 200
f 198 207 201
f 207 202 200
f 199 202 207
f 208 199 207
f 256 208 207
f 256 209 208
f 211 209 256
f 255 211 256
f 263 255 256
f 255 263 211
f 263 257 211
f 258 257 263
f 280 258 263
f 280 264 258
f 264 257 258
f 264 269 257
f 269 457 257
f 454 457 269
f 454 455 457
f 455 454 456
f 257 455 456
f 257 456 452
f 456 453 452
f 452 453 458
f 458 453 435
f 458 435 463
f 458 463 459
f 239 458 459
f 239 459 217
f 240 239 217
f 241 239 240
f 210 241 240
f 250 241 210
f 250 257 241
f 257 250 210
f 240 220 210
f 210 220 216
f 220 217 216
f 216 217 218
f 218 217 243
f 218 243 219
f 219 243 221
f 243 244 221
f 244 223 221
f 244 461 223
f 222 221 223
f 224 222 223
f 224 223 231
f 224 231 229
f 229 231 230
f 231 232 230
f 231 236 232
f 232 236 246
f 232 246 235
f 235 246 254
f 246 466 254
f 254 466 469
f 469 468 254
f 467 468 469
f 467 470 468
f 254 468 318
f 254 318 302
f 302 318 303
f 303 318 322
f 254 302 303
f 276 254 303
f 276 303 291
f 296 291 303
f 296 303 307
f 307 303 332
f 307 332 349
f 332 342 349
f 306 307 349
f 323 306 349
f 323 317 306
f 317 323 309
f 309 323 343
f 297 317 309
f 297 309 301
f 271 297 301
f 271 274 297
f 274 252 297
f 252 296 297
f 297 296 306
f 252 287 296
f 262 296 287
f 287 261 262
f 251 261 287
f 248 261 251
f 248 234 261
f 234 233 261
f 248 233 234
f 248 232 233
f 205 248 251
f 188 205 251
f 188 251 186
f 186 251 252
f 186 252 253
f 253 252 259
f 270 253 259
f 270 259 272
f 259 271 272
f 273 272 271
f 259 252 271
f 186 253 270
f 187 186 270
f 192 187 270
f 204 192 270
f 194 204 270
f 194 270 275
f 275 270 282
f 192 204 194
f 193 192 194
f 192 188 187
f 191 188 192
f 195 191 192
f 191 189 188
f 189 191 200
f 206 189 200
f 206 203 189
f 206 228 203
f 206 242 228
f 212 228 242
f 212 224 228
f 212 225 224
f 227 225 212
f 227 226 225
f 226 215 225
f 215 226 216
f 238 216 226
f 209 238 226
f 210 238 209
f 215 221 225
f 226 227 212
f 214 226 212
f 199 226 214
f 214 212 213
f 214 213 202
f 213 212 202
f 202 212 206
f 206 212 242
f 203 228 237
f 237 228 229
f 188 237 229
f 237 188 190
f 189 237 190
f 189 203 237
f 190 188 189
f 188 186 187
f 188 229 205
f 205 229 248
f 233 262 261
f 233 276 262
f 233 235 276
f 251 287 252
f 271 252 274
f 297 306 317
f 296 307 306
f 262 291 296
f 262 276 291
f 276 235 254
f 233 232 235
f 248 230 232
f 229 230 248
f 224 229 228
f 225 222 224
f 225 221 222
f 215 219 221
f 218 219 215
f 216 218 215
f 210 216 238
f 452 239 241
f 240 217 220
f 435 453 465
f 420 435 465
f 419 435 420
f 239 452 458
f 257 452 241
f 453 456 454
f 457 455 257
f 257 210 211
f 210 209 211
f 208 209 226
f 208 226 199
f 202 199 214
f 202 206 200
f 200 191 195
f 198 201 196
f 260 207 198
f 265 256 207
f 268 256 265
f 263 256 268
f 280 263 266
f 289 290 281
f 304 281 279
f 281 195 279
f 193 195 192
f 286 193 285
f 315 284 313
f 193 194 285
f 194 275 283
f 283 275 282
f 282 270 272
f 272 273 288
f 273 271 288
f 271 301 309
f 319 337 333
f 331 335 366
f 336 321 333
f 294 321 300
f 294 300 310
f 295 321 294
f 299 295 316
f 313 284 299
f 313 312 314
f 278 277 314
f 311 308 278
f 308 311 326
f 329 326 338
f 354 341 329
f 361 360 339
f 350 361 340
f 350 359 358
f 359 325 320
f 320 327 351
f 363 351 364
f 364 331 366
f 335 353 366
f 335 346 353
f 346 324 334
f 309 343 334
f 323 349 343
f 349 342 344
f 342 332 344
f 303 322 332
f 355 348 165
f 322 318 347
f 468 470 318
f 152 159 493
f 445 470 467
f 466 467 469
f 438 432 471
f 247 432 438
f 246 249 466
f 231 246 236
f 223 245 231
f 464 432 247
f 436 431 432
f 426 424 436
f 223 461 437
f 460 426 462
f 243 461 244
f 217 459 243
f 463 435 459
f 460 421 426
f 421 422 440
f 427 429 422
f 419 425 435
f 441 442 430
f 441 443 442
f 444 442 443
f 427 473 439
f 142 472 439
f 448 444 443
f 446 448 443
f 447 448 446
f 448 447 476
f 476 480 448
f 476 484 480
f 480 484 474
f 484 490 474
f 484 483 490
f 483 487 490
f 487 122 490
f 140 122 487
f 489 140 487
f 477 489 487
f 477 139 489
f 477 135 139
f 135 477 492
f 492 477 485
f 485 478 492
f 158 492 478
f 478 485 482
f 415 478 482
f 415 482 451
f 451 482 477
f 451 477 407
f 407 477 450
f 477 479 450
f 479 481 450
f 479 487 481
f 487 486 481
f 450 481 486
f 450 486 449
f 486 483 449
f 397 450 449
f 399 450 397
f 401 399 397
f 400 399 401
f 379 400 401
f 376 379 401
f 376 401 377
f 401 389 377
f 401 396 389
f 396 449 389
f 389 449 405
f 405 449 475
f 475 449 484
f 475 476 405
f 413 405 476
f 395 413 476
f 394 413 395
f 375 394 395
f 375 395 385
f 385 395 391
f 391 395 390
f 390 395 447
f 390 447 388
f 388 447 414
f 388 414 417
f 386 388 417
f 387 386 417
f 408 387 417
f 409 387 408
f 409 408 418
f 410 409 418
f 384 409 410
f 411 384 410
f 412 384 411
f 398 384 412
f 398 383 384
f 383 382 384
f 382 393 384
f 382 372 393
f 393 372 385
f 392 393 385
f 393 392 409
f 392 385 387
f 382 375 372
f 381 375 382
f 381 373 375
f 376 373 381
f 383 376 381
f 383 374 376
f 374 380 376
f 373 377 375
f 383 381 382
f 384 393 409
f 392 387 409
f 385 386 387
f 386 385 388
f 385 390 388
f 385 391 390
f 372 375 385
f 375 377 394
f 377 405 394
f 404 405 377
f 394 405 413
f 389 405 404
f 377 389 404
f 376 377 373
f 380 379 376
f 378 400 379
f 402 400 378
f 402 403 400
f 403 406 400
f 406 415 400
f 400 416 399
f 400 407 416
f 416 407 399
f 401 397 396
f 397 449 396
f 399 407 450
f 451 407 400
f 400 415 451
f 482 485 477
f 158 135 492
f 477 487 479
f 139 140 489
f 486 487 483
f 449 483 484
f 490 122 474
f 475 484 476
f 395 476 447
f 480 474 448
f 491 133 488
f 122 127 474
f 127 102 130
f 50 130 102
f 102 67 50
f 85 67 102
f 85 102 99
f 99 86 85
f 76 86 99
f 80 76 99
f 95 80 99
f 95 99 125
f 125 99 146
f 146 99 127
f 141 95 125
f 111 95 141
f 141 134 111
f 157 134 141
f 157 111 134
f 104 111 157
f 104 91 111
f 111 91 53
f 30 53 91
f 72 30 91
f 30 72 44
f 44 51 30
f 64 51 44
f 51 64 43
f 43 64 31
f 64 70 31
f 173 70 64
f 181 70 173
f 173 175 181
f 173 132 175
f 84 132 173
f 181 110 70
f 110 94 70
f 110 58 94
f 58 110 103
f 58 103 150
f 103 161 150
f 150 161 170
f 121 150 170
f 121 170 156
f 156 69 121
f 69 156 137
f 137 156 160
f 137 160 107
f 160 172 107
f 107 172 108
f 108 172 168
f 108 168 113
f 113 168 169
f 169 155 113
f 113 155 112
f 112 155 109
f 155 123 109
f 155 177 123
f 123 177 174
f 123 174 182
f 174 495 182
f 174 494 495
f 123 182 129
f 129 182 183
f 129 183 185
f 129 185 180
f 180 185 179
f 176 129 180
f 106 129 176
f 176 149 106
f 149 176 179
f 149 179 184
f 171 184 179
f 171 179 178
f 149 184 49
f 184 98 49
f 184 151 98
f 151 184 171
f 74 151 171
f 74 171 6
f 6 171 65
f 65 171 166
f 171 178 166
f 178 153 166
f 71 166 153
f 166 71 46
f 45 166 46
f 45 46 82
f 45 82 83
f 42 45 83
f 6 45 42
f 6 42 5
f 42 59 5
f 59 42 100
f 5 59 97
f 5 97 61
f 1 5 61
f 1 61 93
f 93 39 1
f 39 7 1
f 7 39 38
f 37 38 39
f 39 115 37
f 37 115 56
f 56 14 37
f 62 14 56
f 62 56 77
f 62 77 34
f 34 77 35
f 35 77 78
f 35 78 36
f 63 36 78
f 78 87 63
f 88 63 87
f 50 88 87
f 50 89 88
f 89 33 88
f 32 33 89
f 81 32 89
f 28 32 81
f 28 81 26
f 26 81 50
f 24 28 26
f 24 23 28
f 28 23 19
f 19 21 28
f 28 21 33
f 21 18 33
f 33 18 17
f 17 36 33
f 18 20 17
f 17 20 16
f 16 20 22
f 137 22 20
f 20 21 137
f 68 137 21
f 23 137 68
f 23 68 21
f 16 22 60
f 22 108 60
f 60 108 92
f 60 92 52
f 112 52 92
f 52 112 13
f 8 52 13
f 15 52 8
f 8 14 15
f 8 9 14
f 14 9 12
f 9 7 12
f 12 7 37
f 8 7 9
f 13 7 8
f 7 13 10
f 13 109 10
f 109 66 10
f 10 66 2
f 66 11 2
f 48 11 66
f 66 49 48
f 105 49 66
f 66 129 105
f 49 105 106
f 49 11 48
f 49 5 11
f 11 5 4
f 1 11 4
f 11 1 3
f 2 3 1
f 11 3 2
f 10 2 1
f 60 52 15
f 35 60 15
f 16 60 35
f 16 35 17
f 21 20 18
f 19 23 21
f 24 69 23
f 57 69 24
f 25 57 24
f 40 57 25
f 41 57 40
f 96 57 41
f 57 96 121
f 75 96 41
f 75 58 96
f 58 75 41
f 58 41 31
f 41 29 31
f 41 27 29
f 53 29 27
f 53 27 47
f 53 47 73
f 53 73 95
f 95 73 76
f 76 73 47
f 76 47 27
f 27 54 76
f 27 40 54
f 40 24 54
f 31 29 53
f 40 27 41
f 25 24 40
f 24 26 54
f 54 26 86
f 86 26 67
f 28 33 32
f 50 81 89
f 88 33 63
f 36 63 33
f 36 17 35
f 34 35 15
f 34 15 62
f 15 14 62
f 14 12 37
f 7 38 37
f 10 1 7
f 5 1 4
f 49 6 5
f 82 46 71
f 82 71 154
f 71 153 154
f 154 153 163
f 45 65 166
f 6 65 45
f 49 74 6
f 49 151 74
f 98 151 49
f 106 149 49
f 129 106 105
f 66 123 129
f 109 123 66
f 112 109 13
f 113 112 92
f 113 92 108
f 107 108 22
f 107 22 137
f 23 69 137
f 69 57 121
f 150 121 96
f 58 150 96
f 58 31 94
f 84 173 64
f 84 64 55
f 70 94 31
f 31 30 43
f 64 44 55
f 30 51 43
f 30 31 53
f 104 72 91
f 111 53 95
f 95 76 80
f 54 86 76
f 85 86 67
f 67 26 50
f 99 102 127
f 130 50 87
f 119 87 78
f 78 79 119
f 79 78 77
f 56 90 77
f 90 56 115
f 115 39 93
f 61 101 93
f 101 61 97
f 97 59 100
f 42 83 100
f 83 82 154
f 154 163 124

