# https://github.com/mikedh/trimesh
v 0.27042125 -0.25809176 0.13235713
v 0.26999101 -0.25406799 0.12563799
v 0.28149713 -0.25136400 0.10979200
v 0.28824699 -0.25108099 0.10304800
v 0.29766899 -0.25306499 0.09623800
v 0.30013500 -0.25379500 0.09289850
v 0.29398400 -0.25213200 0.09907600
v 0.31107551 -0.25895001 0.08085400
v 0.31574601 -0.26217300 0.07244100
v 0.31692450 -0.25680549 0.06782150
v 0.32481700 -0.26143399 0.06066700
v 0.33642749 -0.27626425 0.05152375
v 0.31201312 -0.25996900 0.07614475
v 0.12431876 -0.17450997 0.12833395
v 0.13336900 -0.14192900 0.09883300
v 0.16369600 -0.22081000 0.11879300
v 0.16986850 -0.22837551 0.11462050
v 0.17808700 -0.23358650 0.11184725
v 0.17609827 -0.22567685 0.11357961
v 0.16088900 -0.21603800 0.12250900
v 0.15599632 -0.19362943 0.13372484
v 0.19764763 -0.22801254 0.10487242
v 0.16605621 -0.19015771 0.12971444
v 0.15753300 -0.20559900 0.12791400
v 0.18584906 -0.20578628 0.11423700
v 0.17193010 -0.18622473 0.12724246
v 0.20036407 -0.22216929 0.10453625
v 0.16614425 -0.17979009 0.13197819
v 0.14831334 -0.18356985 0.14133305
v 0.14314775 -0.19130154 0.14367716
v 0.15093179 -0.20231578 0.13990859
v 0.14327786 -0.19666167 0.14274646
v 0.15476233 -0.20980441 0.13743757
v 0.15604856 -0.21945793 0.13662130
v 0.15649597 -0.22664326 0.13514018
v 0.15350788 -0.18639498 0.13866612
v 0.16000384 -0.22247788 0.13438749
v 0.17313344 -0.18161377 0.12706365
v 0.17984703 -0.19491584 0.12063313
v 0.15490388 -0.18006727 0.13773434
v 0.17086248 -0.17759539 0.12881938
v 0.17633399 -0.18610699 0.12402600
v 0.15125901 -0.17678700 0.13927500
v 0.14147164 -0.18122804 0.14400915
v 0.19108252 -0.21251973 0.10987844
v 0.15418450 -0.19233900 0.13742400
v 0.16376096 -0.23101050 0.13318146
v 0.19406800 -0.21505100 0.10771200
v 0.17888800 -0.19086900 0.12118350
v 0.18223800 -0.19672699 0.11808500
v 0.17522420 -0.23948865 0.12930227
v 0.16284700 -0.22561300 0.13249899
v 0.16369487 -0.16650975 0.13209767
v 0.18696350 -0.23594899 0.10924775
v 0.18523701 -0.20172600 0.11467800
v 0.16632800 -0.23417200 0.13196801
v 0.18953190 -0.23626095 0.10814355
v 0.17023450 -0.17475024 0.12841950
v 0.18413500 -0.19962201 0.11596200
v 0.16159803 -0.16545906 0.13329464
v 0.17008148 -0.23713565 0.13066566
v 0.16024921 -0.16201103 0.13241576
v 0.22337063 -0.23093925 0.09968625
v 0.19634250 -0.23736600 0.10664900
v 0.13865325 -0.17902824 0.14450409
v 0.13363332 -0.17256634 0.14362941
v 0.22855000 -0.23727500 0.10029300
v 0.13478027 -0.16791780 0.14171124
v 0.14945606 -0.16274715 0.13613234
v 0.21994650 -0.22981400 0.09985150
v 0.18306249 -0.23504700 0.11012400
v 0.22058725 -0.23837900 0.10234600
v 0.21316650 -0.23828900 0.10365425
v 0.13534001 -0.17606400 0.14395399
v 0.16350375 -0.16367876 0.13056600
v 0.18942080 -0.24436256 0.12584355
v 0.21077445 -0.24500825 0.12145512
v 0.22769458 -0.24550464 0.11658374
v 0.20442501 -0.24274200 0.12269900
v 0.22377800 -0.24290350 0.11773900
v 0.22025600 -0.24364400 0.11894700
v 0.23631800 -0.24395175 0.11413525
v 0.24143485 -0.24662334 0.11181863
v 0.25085700 -0.24562500 0.10836700
v 0.24450049 -0.24690650 0.11081200
v 0.17817548 -0.24132318 0.12844545
v 0.23700900 -0.24810800 0.11314300
v 0.18908000 -0.24139400 0.12591950
v 0.14861812 -0.21386402 0.13872247
v 0.21406100 -0.24296150 0.12019000
v 0.12929564 -0.16743711 0.14207439
v 0.14961661 -0.15761732 0.13354793
v 0.14396200 -0.20791399 0.13978601
v 0.23112449 -0.24836000 0.11423200
v 0.13961550 -0.18796650 0.14358300
v 0.12752900 -0.16964801 0.14170600
v 0.15174800 -0.22584300 0.13472199
v 0.14536400 -0.21156875 0.13859974
v 0.12967865 -0.16455872 0.14048527
v 0.15459542 -0.15622126 0.13198847
v 0.13739599 -0.18347199 0.14368400
v 0.22092700 -0.24989150 0.11521400
v 0.14661900 -0.21645149 0.13737850
v 0.20446800 -0.25164801 0.11628800
v 0.15631900 -0.23217125 0.13236550
v 0.15706449 -0.15644400 0.13038300
v 0.12196301 -0.15681855 0.13463705
v 0.12749665 -0.15978913 0.13723462
v 0.17206018 -0.24108147 0.12830505
v 0.16286011 -0.23506222 0.13178158
v 0.12064741 -0.16039357 0.13717088
v 0.18359600 -0.24580600 0.12439025
v 0.14177044 -0.14959380 0.12941102
v 0.16498300 -0.23922600 0.12891801
v 0.11179150 -0.15719375 0.13012600
v 0.13525388 -0.14464750 0.12421675
v 0.19986600 -0.25196001 0.11596200
v 0.11665750 -0.15716851 0.13338600
v 0.17679500 -0.24418550 0.12599200
v 0.19147700 -0.24803901 0.12192200
v 0.13848782 -0.22491053 0.11447146
v 0.13565100 -0.23021575 0.10296350
v 0.09960036 -0.17047384 0.06846172
v 0.09780300 -0.17110850 0.07331650
v 0.09753100 -0.16968501 0.08095800
v 0.09501325 -0.15620238 0.07887150
v 0.09741700 -0.16086800 0.07057000
v 0.13355380 -0.13688526 0.09409150
v 0.14285500 -0.14476199 0.12431500
v 0.09516275 -0.15307500 0.09664850
v 0.09598550 -0.15252401 0.10009600
v 0.09831425 -0.15252900 0.10789025
v 0.10277100 -0.15366600 0.11819300
v 0.12803803 -0.13738782 0.10168110
v 0.12269979 -0.13944910 0.08760053
v 0.13631004 -0.14077836 0.10899178
v 0.16099730 -0.15993011 0.11955827
v 0.15228446 -0.15028701 0.12415562
v 0.12922727 -0.13698183 0.10737795
v 0.13581336 -0.13976392 0.11482728
v 0.18600461 -0.20149361 0.10184729
v 0.18858400 -0.20419100 0.09907100
v 0.17218551 -0.17253150 0.11428550
v 0.22055200 -0.22640400 0.08349100
v 0.16500691 -0.16539863 0.11728584
v 0.18052804 -0.19125676 0.10757908
v 0.17668208 -0.18412960 0.11019236
v 0.18685200 -0.20270279 0.10771982
v 0.16695127 -0.16706561 0.12282834
v 0.17296875 -0.17654895 0.12369190
v 0.18813813 -0.20536855 0.11002435
v 0.16617985 -0.16646734 0.12963248
v 0.16057064 -0.15837450 0.12886794
v 0.15266400 -0.15137117 0.12784806
v 0.14734290 -0.14716428 0.12572255
v 0.20507613 -0.22361300 0.10255312
v 0.14512904 -0.14503993 0.12284763
v 0.14109378 -0.14261786 0.12012010
v 0.13911774 -0.21501685 0.12647090
v 0.13769357 -0.20279188 0.12970384
v 0.13090201 -0.18198000 0.12694100
v 0.13542586 -0.18833914 0.13823547
v 0.14140238 -0.22359905 0.12774655
v 0.12951900 -0.17938200 0.13113700
v 0.14992100 -0.24268700 0.10418000
v 0.14658203 -0.23232772 0.12623020
v 0.14216382 -0.21462847 0.13570820
v 0.09853224 -0.16206648 0.10431410
v 0.09768044 -0.15688065 0.10825458
v 0.10688919 -0.16008062 0.12493911
v 0.09647054 -0.16195694 0.09744432
v 0.10482363 -0.16444500 0.11442900
v 0.10164677 -0.16375798 0.10853023
v 0.09983000 -0.16453800 0.10383400
v 0.13626697 -0.18544167 0.14202613
v 0.09828075 -0.16685950 0.09387525
v 0.11177953 -0.16135202 0.13052173
v 0.09477823 -0.16179477 0.08928768
v 0.14440711 -0.23314694 0.12094491
v 0.13169591 -0.17848571 0.14168458
v 0.09574800 -0.16442700 0.08105400
v 0.15229371 -0.23886130 0.12341599
v 0.09706149 -0.16561894 0.07340073
v 0.09380414 -0.15578274 0.09278441
v 0.14977832 -0.24038512 0.11421940
v 0.14598782 -0.22359820 0.13359836
v 0.16179951 -0.24837601 0.10834650
v 0.15670741 -0.23595546 0.12976747
v 0.11399227 -0.16066433 0.13329775
v 0.15688563 -0.24159837 0.12307172
v 0.10124927 -0.15453473 0.11625344
v 0.15178139 -0.23189228 0.13114465
v 0.10704532 -0.15666041 0.12529826
v 0.15856524 -0.24510306 0.11594130
v 0.09437470 -0.15971981 0.08002761
v 0.09424837 -0.15697945 0.08125678
v 0.16633150 -0.24981251 0.10970300
v 0.16665321 -0.24363674 0.12490580
v 0.17187464 -0.25058672 0.11324363
v 0.17512450 -0.25158651 0.11213150
v 0.17490032 -0.24612881 0.12365142
v 0.19283400 -0.25198600 0.11593900
v 0.18237443 -0.25213476 0.11497072
v 0.26377525 -0.25325924 0.12822600
v 0.24554300 -0.24910150 0.11856400
v 0.27244000 -0.23023650 0.06668850
v 0.23731973 -0.23010681 0.09390888
v 0.24462804 -0.23337693 0.09770167
v 0.25915425 -0.23245771 0.09343876
v 0.27524354 -0.23351706 0.08752461
v 0.27443366 -0.22958061 0.08473328
v 0.24844463 -0.23679048 0.09962403
v 0.24272302 -0.23576343 0.09919905
v 0.26071501 -0.23920239 0.10081515
v 0.24708897 -0.24054751 0.10904064
v 0.25272459 -0.23086465 0.09405571
v 0.23736036 -0.24095979 0.11211736
v 0.23212858 -0.23099034 0.09724328
v 0.28920747 -0.22987818 0.07513090
v 0.20947348 -0.22478062 0.09996076
v 0.19219966 -0.24090798 0.12437648
v 0.18634349 -0.23889213 0.12342551
v 0.30043301 -0.23219100 0.06798600
v 0.28698984 -0.23040205 0.07798894
v 0.21477964 -0.22651647 0.09786579
v 0.26655416 -0.22996331 0.08866452
v 0.24493421 -0.23036335 0.09154683
v 0.22624567 -0.22817529 0.08289126
v 0.20857050 -0.22320025 0.09299250
v 0.23806300 -0.22965400 0.07875500
v 0.23375750 -0.22915500 0.07991800
v 0.24812793 -0.23042837 0.07569312
v 0.27741123 -0.22922634 0.08227180
v 0.28046000 -0.23047400 0.06230800
v 0.28734100 -0.23118100 0.05934000
v 0.30800132 -0.25720709 0.07816580
v 0.30244699 -0.25510800 0.08204100
v 0.30957800 -0.25152299 0.07269500
v 0.31397900 -0.25208199 0.06821100
v 0.30286901 -0.23926350 0.07082200
v 0.30171534 -0.24679767 0.07743688
v 0.29449128 -0.25078349 0.08636910
v 0.28492001 -0.23634800 0.08344900
v 0.28699506 -0.24839857 0.09052337
v 0.26573608 -0.24209839 0.10039656
v 0.26186312 -0.24414359 0.10338891
v 0.28497200 -0.24950276 0.09227575
v 0.27845401 -0.24836600 0.09583500
v 0.29827600 -0.25348801 0.08482200
v 0.27286049 -0.24740250 0.09846700
v 0.24180397 -0.24095559 0.11130121
v 0.28931999 -0.25042900 0.08992000
v 0.26941000 -0.24720400 0.10015375
v 0.25780974 -0.24640625 0.10563875
v 0.25658472 -0.24337978 0.10593096
v 0.18839200 -0.23763099 0.11535300
v 0.20856312 -0.24056580 0.11720117
v 0.21530581 -0.23991196 0.11159859
v 0.22432822 -0.23837294 0.10212528
v 0.24145687 -0.23843311 0.10496056
v 0.23804648 -0.23723176 0.10025781
v 0.19589092 -0.23936991 0.11824656
v 0.18059099 -0.23689466 0.12305867
v 0.29075599 -0.25108701 0.09922200
v 0.28098955 -0.24951596 0.10561863
v 0.25682751 -0.24834987 0.11671785
v 0.26700093 -0.24730672 0.10635780
v 0.25991419 -0.25005783 0.12118665
v 0.26489629 -0.25184252 0.12384296
v 0.25243100 -0.22225550 0.07560000
v 0.24221300 -0.21839800 0.07972300
v 0.22412850 -0.20966550 0.07291150
v 0.23114549 -0.21333050 0.08227600
v 0.27278392 -0.22737925 0.06595479
v 0.28896784 -0.22966844 0.05485405
v 0.27408979 -0.22569453 0.06310692
v 0.27626729 -0.22570737 0.05694159
v 0.29023282 -0.23059978 0.04752846
v 0.28463300 -0.23102807 0.03720088
v 0.27541895 -0.22741559 0.04389957
v 0.26441139 -0.22406354 0.05176212
v 0.26237717 -0.22284215 0.05833364
v 0.29107837 -0.23153531 0.04493920
v 0.29051676 -0.22995342 0.05202170
v 0.25739369 -0.22187119 0.07040094
v 0.23795887 -0.21564255 0.07526177
v 0.24923301 -0.21927500 0.05801600
v 0.29713488 -0.23312973 0.04642654
v 0.23751250 -0.21546400 0.06504950
v 0.23450799 -0.21480212 0.06922706
v 0.29189688 -0.23516095 0.03002277
v 0.28460650 -0.23154097 0.02432481
v 0.29563256 -0.23566971 0.03634034
v 0.29406350 -0.23717750 0.02368925
v 0.26413708 -0.22375218 0.06846657
v 0.27192675 -0.22558475 0.03794800
v 0.28212850 -0.23012225 0.02300525
v 0.30346929 -0.23675828 0.04486236
v 0.29591387 -0.23246550 0.05027256
v 0.29391321 -0.23252289 0.05459054
v 0.30686174 -0.23494671 0.05716527
v 0.30785004 -0.23452281 0.06106849
v 0.29110104 -0.23194833 0.05538789
v 0.31503166 -0.23860424 0.05520714
v 0.23883859 -0.21668371 0.07982937
v 0.31887064 -0.24178532 0.05337040
v 0.30544203 -0.24266891 0.03200307
v 0.30486700 -0.24459399 0.02488400
v 0.31568405 -0.24134052 0.04882008
v 0.31471052 -0.24653998 0.03719741
v 0.32197204 -0.24485299 0.05312929
v 0.32872700 -0.25305800 0.04511700
v 0.32309299 -0.25362450 0.03666350
v 0.33121000 -0.25595100 0.04457200
v 0.32877499 -0.25504300 0.04184900
v 0.32614993 -0.24863751 0.04901525
v 0.31090567 -0.23604220 0.05968250
v 0.32840233 -0.25129657 0.04930624
v 0.32223431 -0.24848798 0.05619585
v 0.33549401 -0.26690999 0.04854000
v 0.33713600 -0.26701200 0.04592800
v 0.33510667 -0.27187104 0.05202320
v 0.34217799 -0.28077701 0.04438900
f 184 195 178
f 184 196 195
f 196 126 195
f 195 126 127
f 195 127 183
f 195 183 125
f 181 195 125
f 178 181 125
f 178 125 176
f 171 178 176
f 169 178 171
f 169 130 178
f 131 130 169
f 191 131 169
f 191 169 170
f 133 191 170
f 133 132 191
f 193 133 170
f 189 193 170
f 115 193 189
f 115 133 193
f 115 189 111
f 111 189 96
f 96 189 180
f 66 96 180
f 66 180 74
f 74 180 175
f 74 175 101
f 95 101 175
f 95 175 93
f 93 175 167
f 167 175 163
f 175 159 163
f 160 159 175
f 159 121 163
f 121 122 163
f 167 163 186
f 186 163 166
f 192 186 166
f 105 186 192
f 105 192 188
f 188 192 190
f 192 182 190
f 190 182 194
f 190 194 199
f 199 194 197
f 200 199 197
f 203 199 200
f 201 199 203
f 119 201 203
f 120 119 203
f 120 203 202
f 119 198 201
f 119 114 198
f 114 105 198
f 110 105 114
f 109 110 114
f 109 114 112
f 86 109 112
f 86 112 76
f 104 76 112
f 104 112 117
f 77 76 104
f 77 104 102
f 77 102 78
f 78 102 94
f 83 78 94
f 82 78 83
f 82 83 84
f 83 85 84
f 251 82 84
f 215 251 84
f 255 215 84
f 215 255 214
f 255 246 214
f 246 245 214
f 245 246 253
f 245 253 248
f 245 248 247
f 252 247 248
f 244 247 252
f 242 244 252
f 242 252 249
f 249 236 242
f 236 249 237
f 237 249 6
f 6 249 252
f 5 6 252
f 5 252 7
f 252 264 7
f 252 265 264
f 252 248 265
f 265 248 267
f 265 267 269
f 269 267 266
f 269 266 268
f 269 268 204
f 1 269 204
f 1 2 269
f 2 3 269
f 266 267 254
f 266 254 84
f 205 266 84
f 204 266 205
f 268 266 204
f 205 84 87
f 269 3 265
f 3 4 265
f 7 265 4
f 267 248 250
f 267 250 253
f 267 253 246
f 7 264 265
f 6 8 237
f 8 236 237
f 8 13 236
f 236 241 242
f 223 242 241
f 240 223 241
f 240 241 238
f 241 236 238
f 236 239 238
f 10 239 236
f 236 9 10
f 223 244 242
f 224 244 223
f 224 243 244
f 210 244 243
f 244 210 245
f 209 245 210
f 210 226 209
f 210 211 226
f 210 233 211
f 210 219 233
f 226 216 209
f 216 212 209
f 208 212 216
f 208 216 218
f 208 218 213
f 213 218 67
f 218 63 67
f 70 63 218
f 207 70 218
f 227 207 218
f 216 227 218
f 226 227 216
f 226 211 227
f 211 206 227
f 227 206 232
f 227 232 230
f 227 230 207
f 207 230 228
f 230 231 228
f 211 233 206
f 219 206 233
f 206 219 234
f 219 235 234
f 223 235 219
f 223 303 235
f 300 303 223
f 300 299 303
f 303 299 284
f 284 275 303
f 303 275 235
f 235 275 276
f 276 275 277
f 276 277 295
f 277 282 295
f 295 282 290
f 295 290 285
f 295 285 270
f 295 270 274
f 274 276 295
f 270 285 286
f 305 270 286
f 270 305 271
f 273 271 305
f 273 305 272
f 305 290 272
f 290 289 272
f 290 287 289
f 281 287 290
f 281 296 287
f 281 280 296
f 280 297 296
f 279 297 280
f 279 292 297
f 292 294 297
f 294 292 279
f 279 291 294
f 307 294 291
f 307 308 294
f 310 308 307
f 313 308 310
f 316 313 310
f 316 315 313
f 312 315 316
f 314 312 316
f 318 314 316
f 316 311 318
f 319 318 311
f 318 319 322
f 319 11 322
f 11 12 322
f 12 323 322
f 322 323 321
f 321 320 322
f 318 320 321
f 319 239 11
f 223 239 319
f 223 319 317
f 317 319 304
f 223 317 302
f 322 320 318
f 319 311 304
f 304 311 306
f 311 316 306
f 306 316 309
f 306 309 304
f 304 309 301
f 301 309 298
f 309 307 298
f 298 307 293
f 288 298 293
f 298 288 299
f 299 288 283
f 299 283 284
f 283 278 284
f 278 283 279
f 278 279 275
f 278 275 284
f 293 283 288
f 293 291 283
f 301 298 299
f 304 301 317
f 317 301 302
f 223 302 301
f 314 318 321
f 316 310 309
f 310 307 309
f 293 307 291
f 291 279 283
f 275 279 280
f 277 280 281
f 285 290 286
f 282 281 290
f 277 281 282
f 275 280 277
f 235 276 274
f 301 299 300
f 223 301 300
f 207 228 70
f 228 144 70
f 70 144 225
f 220 225 144
f 144 229 220
f 220 229 156
f 70 220 156
f 70 225 220
f 213 67 261
f 213 261 212
f 259 261 67
f 261 259 260
f 260 212 261
f 251 212 260
f 251 260 217
f 215 212 251
f 215 214 212
f 217 260 259
f 217 259 258
f 259 73 258
f 259 72 73
f 258 73 257
f 257 73 64
f 257 64 262
f 257 262 221
f 262 222 221
f 262 256 222
f 256 262 71
f 222 256 71
f 222 71 263
f 222 263 51
f 222 51 221
f 88 221 51
f 77 221 88
f 77 257 221
f 77 80 257
f 80 217 257
f 80 82 217
f 262 64 71
f 71 64 57
f 217 258 257
f 67 72 259
f 208 213 212
f 214 209 212
f 243 224 210
f 223 219 224
f 244 245 247
f 245 209 214
f 255 84 246
f 251 217 82
f 80 78 82
f 78 80 81
f 78 81 77
f 81 90 77
f 86 61 109
f 51 61 86
f 51 86 76
f 79 51 76
f 79 76 77
f 51 56 61
f 56 110 61
f 47 110 56
f 47 35 110
f 47 34 35
f 34 89 35
f 89 97 35
f 89 103 97
f 89 93 103
f 89 32 93
f 30 32 89
f 31 30 89
f 30 31 36
f 33 36 31
f 33 31 34
f 33 34 37
f 37 34 47
f 37 47 52
f 33 37 52
f 30 36 40
f 40 29 30
f 40 44 29
f 43 44 40
f 43 60 44
f 60 65 44
f 60 69 65
f 69 68 65
f 113 68 69
f 92 113 69
f 100 113 92
f 100 92 69
f 113 91 68
f 113 99 91
f 113 108 99
f 107 108 113
f 113 116 107
f 116 118 107
f 107 118 111
f 108 107 111
f 108 111 99
f 99 111 91
f 68 91 66
f 68 66 65
f 100 69 60
f 100 60 62
f 62 60 53
f 58 53 60
f 58 60 28
f 60 40 28
f 28 40 21
f 40 36 21
f 36 46 21
f 36 33 46
f 28 21 23
f 26 28 23
f 38 28 26
f 28 38 41
f 41 38 58
f 38 39 58
f 38 26 39
f 26 16 39
f 39 16 17
f 39 17 25
f 39 25 50
f 49 39 50
f 42 39 49
f 50 25 59
f 59 25 55
f 59 55 151
f 42 59 151
f 42 151 150
f 150 151 146
f 151 148 146
f 151 144 148
f 151 48 144
f 25 48 151
f 148 144 142
f 141 148 142
f 146 148 141
f 150 146 147
f 149 150 147
f 153 150 149
f 152 150 153
f 75 152 153
f 75 153 106
f 153 154 106
f 154 153 138
f 154 138 155
f 138 157 155
f 155 157 129
f 158 129 157
f 157 136 158
f 158 136 140
f 140 136 134
f 140 134 139
f 136 128 134
f 128 135 134
f 134 135 139
f 158 140 129
f 138 136 157
f 138 15 136
f 138 137 15
f 145 15 137
f 153 145 137
f 153 137 138
f 153 149 145
f 149 143 145
f 152 42 150
f 38 42 152
f 55 25 151
f 25 17 19
f 22 25 19
f 45 25 22
f 48 25 45
f 48 45 22
f 48 22 27
f 22 19 18
f 22 18 54
f 22 54 57
f 64 22 57
f 19 17 18
f 26 23 16
f 23 21 16
f 16 21 20
f 21 24 20
f 58 28 41
f 44 65 30
f 43 40 60
f 29 44 30
f 35 97 105
f 34 31 89
f 51 47 56
f 61 110 109
f 110 35 105
f 201 198 199
f 194 187 197
f 187 194 165
f 185 165 194
f 185 179 165
f 182 179 185
f 182 166 179
f 179 122 165
f 163 122 179
f 198 190 199
f 194 182 185
f 198 188 190
f 105 188 198
f 98 186 105
f 98 93 186
f 192 166 182
f 163 179 166
f 93 167 186
f 189 170 177
f 169 168 170
f 170 168 173
f 170 173 172
f 14 170 172
f 177 170 14
f 189 177 14
f 189 14 180
f 180 14 164
f 180 164 161
f 180 161 162
f 175 180 162
f 175 162 160
f 162 161 160
f 164 14 161
f 173 168 174
f 168 171 174
f 191 132 131
f 169 171 168
f 171 176 174
f 183 124 125
f 183 127 124
f 127 123 124
f 178 195 181

