v 0.11542 0.26287 -0.0682613
v 0.117261 0.270363 -0.0686463
v 0.119103 0.277857 -0.0690313
v 0.11132 0.27999 -0.0681415
v 0.125056 0.268215 -0.0695683
v 0.123246 0.260669 -0.0693927
v 0.117058 0.238197 -0.0688875
v 0.127079 0.243451 -0.07031
v 0.119172 0.245676 -0.0690827
v 0.129192 0.250931 -0.0705052
v 0.121285 0.253155 -0.0692779
v 0.114951 0.230711 -0.0687702
v 0.10708 0.232898 -0.0679804
v 0.0992095 0.235086 -0.0671907
v 0.109182 0.24039 -0.0680296
v 0.101311 0.242577 -0.0672399
v 0.111283 0.247882 -0.0680788
v 0.113384 0.255373 -0.0681279
v 0.10349 0.25005 -0.0670714
v 0.0937612 0.244657 -0.0653642
v 0.0957864 0.252167 -0.065846
v 0.105625 0.257519 -0.0670582
v 0.108222 0.208214 -0.0688686
v 0.110467 0.215713 -0.0688343
v 0.102656 0.217903 -0.06801
v 0.112713 0.223212 -0.0688
v 0.104902 0.225403 -0.0679757
v 0.097091 0.227593 -0.0671515
v 0.108577 0.183511 -0.0708704
v 0.111074 0.191016 -0.0705696
v 0.11357 0.19852 -0.0702689
v 0.10089 0.1856 -0.0698588
v 0.103351 0.193141 -0.0695037
v 0.105812 0.200682 -0.0691486
v 0.106101 0.175985 -0.0712133
v 0.0985339 0.177944 -0.0704751
v 0.0909143 0.179932 -0.0696669
v 0.0931814 0.187659 -0.0688795
v 0.111092 0.166311 -0.0725673
v 0.103671 0.16828 -0.0715914
v 0.11369 0.173829 -0.0722467
v 0.116303 0.181307 -0.0719919
v 0.118916 0.188785 -0.0717372
v 0.123962 0.179 -0.0735171
v 0.126583 0.186462 -0.0733179
v 0.129163 0.193934 -0.0731963
v 0.13172 0.201411 -0.0731204
v 0.136841 0.191532 -0.0750362
v 0.139397 0.19901 -0.0749587
v 0.141995 0.206492 -0.0749674
v 0.141527 0.181533 -0.0776703
v 0.144299 0.189061 -0.0775723
v 0.14707 0.196589 -0.0774743
v 0.157201 0.201665 -0.0803815
v 0.151892 0.186404 -0.0800743
v 0.154535 0.194044 -0.0802521
v 0.142669 0.164094 -0.0808393
v 0.145761 0.171523 -0.0805669
v 0.138625 0.174016 -0.0777561
v 0.148852 0.178951 -0.0802944
v 0.13562 0.166584 -0.0781308
v 0.139431 0.156791 -0.0812313
v 0.142995 0.147141 -0.0844801
v 0.146246 0.154361 -0.0846352
v 0.149562 0.161672 -0.0841721
v 0.152879 0.168982 -0.0837089
v 0.156413 0.159157 -0.0879778
v 0.152976 0.151927 -0.0884033
v 0.158963 0.149366 -0.0931961
v 0.154925 0.142347 -0.0936547
v 0.14913 0.144853 -0.0888759
v 0.145202 0.13786 -0.0890808
v 0.146242 0.128659 -0.0944792
v 0.150659 0.135501 -0.0940191
v 0.164099 0.147102 -0.0988638
v 0.15987 0.139923 -0.0992779
v 0.163984 0.137677 -0.105829
v 0.168222 0.145051 -0.105511
v 0.17226 0.152524 -0.105266
v 0.176232 0.160031 -0.105045
v 0.183766 0.175216 -0.104499
v 0.1866 0.183185 -0.104582
v 0.189389 0.191183 -0.104677
v 0.187388 0.200365 -0.0977379
v 0.189598 0.208539 -0.0980543
v 0.191848 0.216694 -0.0983584
v 0.193907 0.224925 -0.0986619
v 0.195426 0.233292 -0.098861
v 0.189557 0.23445 -0.0931354
v 0.190726 0.242909 -0.0933646
v 0.19155 0.251552 -0.0934659
v 0.19242 0.260183 -0.0935909
v 0.185139 0.252666 -0.0889742
v 0.185879 0.261091 -0.0892234
v 0.179698 0.270432 -0.0855837
v 0.180308 0.278749 -0.0861299
v 0.186494 0.269499 -0.0896743
v 0.186793 0.278119 -0.0902816
v 0.186709 0.287143 -0.0906672
v 0.180651 0.287255 -0.0866847
v 0.179992 0.295838 -0.0871075
v 0.173285 0.295944 -0.083647
v 0.173756 0.287958 -0.0832948
v 0.171949 0.263269 -0.082062
v 0.172693 0.271533 -0.0825181
v 0.173438 0.279796 -0.0829742
v 0.17112 0.255147 -0.0816631
v 0.164759 0.265041 -0.0792234
v 0.165639 0.273081 -0.0795885
v 0.158537 0.274922 -0.0771718
v 0.166542 0.281119 -0.0800155
v 0.159442 0.282915 -0.077698
v 0.166799 0.289151 -0.0805552
v 0.160023 0.290707 -0.0782767
v 0.166429 0.29731 -0.0810898
v 0.152262 0.284643 -0.0754443
v 0.144857 0.286736 -0.0738891
v 0.15299 0.292368 -0.0760032
v 0.145585 0.294461 -0.074448
v 0.143562 0.279101 -0.0733494
v 0.135936 0.281229 -0.0718016
v 0.137399 0.288837 -0.0723357
v 0.129772 0.290964 -0.070788
v 0.134461 0.273622 -0.0712487
v 0.137041 0.248721 -0.0717479
v 0.138697 0.256313 -0.0720921
v 0.140353 0.263906 -0.0724364
v 0.142009 0.271499 -0.0727806
v 0.15113 0.276977 -0.0749504
v 0.144743 0.246439 -0.0736012
v 0.146354 0.254079 -0.0739198
v 0.147966 0.261719 -0.0742383
v 0.149578 0.26936 -0.0745569
v 0.154054 0.25181 -0.0759575
v 0.155663 0.259457 -0.0763363
v 0.157271 0.267105 -0.076715
v 0.15857 0.234196 -0.0776352
v 0.160172 0.241855 -0.0779798
v 0.15245 0.244156 -0.0755989
v 0.14643 0.221533 -0.0751319
v 0.148556 0.229039 -0.0752318
v 0.150682 0.236546 -0.0753318
v 0.138556 0.223873 -0.0730965
v 0.140688 0.231377 -0.0732119
v 0.134192 0.208876 -0.0729786
v 0.136395 0.216372 -0.0730139
v 0.126267 0.211208 -0.0713048
v 0.128464 0.218705 -0.0713319
v 0.130662 0.226202 -0.071359
v 0.121414 0.196271 -0.0715034
v 0.123911 0.203731 -0.0713652
v 0.13283 0.233702 -0.0714422
v 0.134966 0.241206 -0.071584
v 0.14431 0.21402 -0.0750285
v 0.156535 0.226655 -0.0774913
v 0.16436 0.224268 -0.0803587
v 0.166146 0.231973 -0.080645
v 0.167932 0.239677 -0.0809313
v 0.169683 0.247375 -0.0812359
v 0.173602 0.230066 -0.08404
v 0.175384 0.237834 -0.084365
v 0.177167 0.245602 -0.08469
v 0.171833 0.222273 -0.0837382
v 0.182844 0.236036 -0.0883264
v 0.179369 0.220204 -0.0876915
v 0.167371 0.206659 -0.0833503
v 0.169983 0.214407 -0.0834817
v 0.174453 0.20456 -0.0872623
v 0.176986 0.21237 -0.0874639
v 0.186016 0.218222 -0.0925332
v 0.183599 0.210284 -0.0922861
v 0.169182 0.188974 -0.0872234
v 0.17187 0.196759 -0.0871496
v 0.16628 0.181294 -0.0871768
v 0.17284 0.17898 -0.091915
v 0.175797 0.186675 -0.0918828
v 0.166222 0.164049 -0.0926199
v 0.169773 0.171356 -0.0920472
v 0.156146 0.176337 -0.0833991
v 0.159199 0.183809 -0.0832898
v 0.181052 0.228208 -0.0881045
v 0.161841 0.24953 -0.0782736
v 0.142817 0.238882 -0.0733496
v 0.132817 0.266028 -0.0708668
v 0.163443 0.257215 -0.0787729
v 0.192676 0.278118 -0.094617
v 0.201937 0.260217 -0.105466
v 0.201658 0.250962 -0.105389
v 0.200475 0.232606 -0.105345
v 0.20127 0.241754 -0.105306
v 0.202206 0.224044 -0.112889
v 0.203522 0.233042 -0.112599
v 0.204534 0.242087 -0.112282
v 0.20491 0.251368 -0.11221
v 0.205138 0.233688 -0.120342
v 0.20381 0.224696 -0.120754
v 0.201828 0.215933 -0.120937
v 0.202382 0.216718 -0.129207
v 0.199845 0.207788 -0.129186
v 0.203863 0.225648 -0.128711
v 0.205303 0.234589 -0.128188
v 0.197295 0.198882 -0.129135
v 0.194731 0.190184 -0.120714
v 0.197386 0.198739 -0.120918
v 0.199705 0.20723 -0.121067
v 0.197813 0.206998 -0.112723
v 0.200046 0.215481 -0.112847
v 0.19295 0.190413 -0.112476
v 0.195553 0.198542 -0.112598
v 0.19462 0.207355 -0.10493
v 0.196675 0.215716 -0.105076
v 0.198726 0.224078 -0.105227
v 0.190067 0.182403 -0.112404
v 0.186688 0.174287 -0.112236
v 0.182747 0.166416 -0.112209
v 0.180408 0.157904 -0.120253
v 0.170675 0.143685 -0.113033
v 0.175153 0.150979 -0.112671
v 0.184505 0.165589 -0.120127
v 0.18826 0.173582 -0.120275
v 0.191782 0.1817 -0.120484
v 0.194729 0.190193 -0.128881
v 0.205843 0.242756 -0.119923
v 0.196585 0.241981 -0.0989955
v 0.197258 0.25084 -0.099158
v 0.197704 0.259952 -0.0992188
v 0.197956 0.269156 -0.0993878
v 0.192809 0.268955 -0.0939688
v 0.178287 0.253734 -0.0849431
v 0.179045 0.262065 -0.085157
v 0.184337 0.244065 -0.0887039
v 0.1881 0.226157 -0.0928121
v 0.178734 0.194415 -0.0918643
v 0.181169 0.202349 -0.0920686
v 0.19217 0.199187 -0.104783
v 0.178719 0.176901 -0.0977632
v 0.181741 0.184629 -0.0976995
v 0.184762 0.192357 -0.0976357
v 0.175534 0.169209 -0.0979262
v 0.171991 0.161657 -0.0980943
v 0.180195 0.167505 -0.104813
v 0.168204 0.154292 -0.0984985
v 0.179133 0.158572 -0.112427
v 0.154231 0.124092 -0.107079
v 0.159268 0.130788 -0.106392
v 0.150806 0.126255 -0.100396
v 0.145994 0.119516 -0.100895
v 0.186424 0.296112 -0.091176
v 0.149212 0.117402 -0.107793
v 0.155417 0.132966 -0.099809
v 0.162648 0.156674 -0.092852
v 0.159777 0.166467 -0.0876578
v 0.163131 0.173815 -0.0873639
v 0.136034 0.14959 -0.0818544
v 0.132451 0.159244 -0.0787202
v 0.12548 0.161673 -0.0765297
v 0.128509 0.169092 -0.0760456
v 0.131319 0.176552 -0.0756196
v 0.162016 0.191378 -0.0832673
v 0.164706 0.198998 -0.0832914
v 0.159965 0.209158 -0.080152
v 0.162271 0.216692 -0.0802216
v 0.149772 0.204045 -0.0772906
v 0.152071 0.211578 -0.077342
v 0.154371 0.219111 -0.0773934
v 0.134102 0.184019 -0.07521
v 0.118337 0.164158 -0.07445
v 0.121208 0.171566 -0.0739019
v 0.0956294 0.195202 -0.0685162
v 0.0878164 0.197342 -0.0678026
v 0.0980351 0.202791 -0.0683271
v 0.0902014 0.204952 -0.0676915
v 0.116068 0.206024 -0.0699683
v 0.100381 0.210375 -0.0681494
v 0.092527 0.212523 -0.0674789
v 0.0948324 0.220081 -0.0672318
v 0.118436 0.21352 -0.0698334
v 0.120607 0.221003 -0.0699365
v 0.122778 0.228487 -0.0700396
v 0.124948 0.235971 -0.0701426
v 0.131063 0.258464 -0.0706221
v 0.0978038 0.259675 -0.0663195
v 0.107565 0.265014 -0.0674486
v 0.0996917 0.267162 -0.0666549
v 0.109452 0.272501 -0.0677841
v 0.126832 0.275741 -0.069915
v 0.12831 0.283357 -0.0702584
v 0.120629 0.285456 -0.0693803
v 0.112949 0.287555 -0.0685022
f 2 285 283 1
f 283 22 18 1
f 18 11 6 1
f 6 5 2 1
f 3 4 285 2
f 5 286 3 2
f 288 289 4 3
f 286 287 288 3
f 6 281 184 5
f 184 124 286 5
f 11 10 281 6
f 9 17 15 7
f 15 13 12 7
f 12 279 280 7
f 280 8 9 7
f 10 11 9 8
f 280 152 153 8
f 153 125 10 8
f 11 18 17 9
f 125 126 281 10
f 13 27 26 12
f 26 278 279 12
f 15 16 14 13
f 14 28 27 13
f 17 19 16 15
f 19 21 20 16
f 18 22 19 17
f 22 282 21 19
f 283 284 282 22
f 24 25 274 23
f 274 271 34 23
f 34 31 273 23
f 273 277 24 23
f 26 27 25 24
f 277 278 26 24
f 27 28 276 25
f 276 275 274 25
f 30 33 32 29
f 32 36 35 29
f 35 41 42 29
f 42 43 30 29
f 31 34 33 30
f 43 150 31 30
f 150 151 273 31
f 33 269 38 32
f 38 37 36 32
f 34 271 269 33
f 40 39 41 35
f 267 268 41 39
f 268 44 42 41
f 44 45 43 42
f 45 46 150 43
f 268 257 258 44
f 258 266 45 44
f 266 48 46 45
f 47 151 150 46
f 48 49 47 46
f 145 147 151 47
f 49 50 145 47
f 266 51 52 48
f 52 53 49 48
f 53 263 50 49
f 154 146 145 50
f 263 264 154 50
f 266 258 59 51
f 59 58 60 51
f 60 55 52 51
f 55 56 53 52
f 56 54 263 53
f 261 264 263 54
f 56 259 260 54
f 260 166 261 54
f 60 179 180 55
f 180 259 56 55
f 58 59 61 57
f 61 255 62 57
f 62 64 65 57
f 65 66 58 57
f 66 179 60 58
f 258 257 61 59
f 257 256 255 61
f 254 63 64 62
f 71 68 64 63
f 68 67 65 64
f 67 252 66 65
f 252 253 179 66
f 68 69 251 67
f 251 177 252 67
f 71 70 69 68
f 70 76 75 69
f 75 242 251 69
f 71 72 74 70
f 74 250 76 70
f 246 250 74 73
f 76 77 78 75
f 78 79 242 75
f 250 245 77 76
f 217 218 79 78
f 80 240 242 79
f 218 243 80 79
f 241 239 240 80
f 243 215 241 80
f 82 237 236 81
f 236 239 241 81
f 241 215 214 81
f 214 213 82 81
f 83 238 237 82
f 213 208 83 82
f 235 84 238 83
f 208 209 235 83
f 85 171 234 84
f 234 233 238 84
f 235 210 85 84
f 86 170 171 85
f 210 211 86 85
f 87 232 170 86
f 211 212 87 86
f 88 89 232 87
f 212 189 88 87
f 224 90 89 88
f 189 190 224 88
f 90 231 164 89
f 164 181 232 89
f 91 93 231 90
f 224 225 91 90
f 92 94 93 91
f 225 226 92 91
f 228 97 94 92
f 226 227 228 92
f 94 230 229 93
f 229 162 231 93
f 97 95 230 94
f 96 106 105 95
f 105 104 230 95
f 97 98 96 95
f 100 103 106 96
f 98 99 100 96
f 228 186 98 97
f 248 101 100 99
f 101 102 103 100
f 115 113 103 102
f 113 111 106 103
f 105 109 108 104
f 108 185 107 104
f 107 229 230 104
f 106 111 109 105
f 185 182 159 107
f 159 162 229 107
f 109 110 136 108
f 136 135 185 108
f 111 112 110 109
f 112 116 129 110
f 129 133 136 110
f 113 114 112 111
f 114 118 116 112
f 118 119 117 116
f 117 120 129 116
f 122 121 120 117
f 121 124 128 120
f 128 133 129 120
f 122 123 287 121
f 287 286 124 121
f 184 127 128 124
f 153 183 130 125
f 130 131 126 125
f 127 184 281 126
f 131 132 127 126
f 132 133 128 127
f 183 142 139 130
f 139 134 131 130
f 134 135 132 131
f 135 136 133 132
f 139 138 182 134
f 182 185 135 134
f 138 139 142 137
f 142 141 155 137
f 155 156 157 137
f 157 158 138 137
f 158 159 182 138
f 141 144 143 140
f 143 146 154 140
f 154 264 265 140
f 265 155 141 140
f 142 183 144 141
f 144 152 149 143
f 149 148 146 143
f 183 153 152 144
f 146 148 147 145
f 148 278 277 147
f 277 273 151 147
f 149 279 278 148
f 152 280 279 149
f 265 262 156 155
f 262 167 163 156
f 163 160 157 156
f 160 161 158 157
f 161 162 159 158
f 163 165 181 160
f 181 164 161 160
f 164 231 162 161
f 167 169 165 163
f 169 171 170 165
f 170 232 181 165
f 167 262 261 166
f 260 173 168 166
f 168 169 167 166
f 173 233 234 168
f 234 171 169 168
f 173 260 259 172
f 259 180 174 172
f 174 175 176 172
f 176 233 173 172
f 180 179 253 174
f 253 178 175 174
f 178 239 236 175
f 236 237 176 175
f 237 238 233 176
f 178 253 252 177
f 251 242 240 177
f 240 239 178 177
f 226 225 188 187
f 225 224 190 188
f 190 193 194 188
f 212 191 192 189
f 192 193 190 189
f 212 211 207 191
f 207 197 196 191
f 196 195 192 191
f 195 223 193 192
f 196 200 201 195
f 197 198 200 196
f 207 206 205 197
f 205 199 198 197
f 205 204 202 199
f 204 203 222 202
f 204 209 208 203
f 208 213 221 203
f 205 206 209 204
f 207 211 210 206
f 210 235 209 206
f 214 220 221 213
f 215 219 220 214
f 243 216 219 215
f 245 250 246 244
f 246 247 249 244
f 257 268 267 256
f 262 265 264 261
f 271 272 270 269
f 274 275 272 271
