# https://github.com/mikedh/trimesh
v -0.06357525 0.06684275 -0.14190150
v -0.07553950 0.06568250 -0.13946475
v 0.20098101 0.22266600 -0.13659000
v -0.02595400 0.06985500 -0.14219350
v -0.04981800 0.06906800 -0.14257950
v 0.18961250 0.21477701 -0.14292500
v -0.03078700 0.07019700 -0.14220400
v 0.18325712 0.21412975 -0.14301362
v 0.17136601 0.19086000 -0.14205800
v 0.03057363 0.07937800 -0.13925988
v 0.16072400 0.17425550 -0.14054250
v 0.12003000 0.12597500 -0.13757500
v 0.08562550 0.10264650 -0.13651199
v 0.05971150 0.08731300 -0.13903850
v -0.06152875 0.05636525 -0.13141550
v 0.01392261 0.04995051 -0.13326142
v -0.06714450 0.05764550 -0.13086050
v -0.07800800 0.06062925 -0.12943700
v -0.01258925 0.05016150 -0.13346800
v -0.04209600 0.05279150 -0.13291000
v 0.01766100 0.05196300 -0.13528199
v -0.03345550 0.05161400 -0.13350150
v 0.17213599 0.14220101 -0.12770000
v 0.16669350 0.13471125 -0.13031550
v 0.17871450 0.15326200 -0.12639700
v 0.15118163 0.11788912 -0.13579800
v 0.12339425 0.09482550 -0.13859038
v 0.05244225 0.06087112 -0.13850325
v 0.02803500 0.05462200 -0.13760150
v 0.10238300 0.08140250 -0.13906750
v 0.08540775 0.07346100 -0.13959574
v 0.00835250 0.05265100 -0.13772688
v 0.17941978 0.15495823 -0.13026963
v 0.18844368 0.17350765 -0.13077912
v 0.19610000 0.19619399 -0.13297801
v 0.18696175 0.16976575 -0.12541750
v 0.16110138 0.12774182 -0.13344525
v 0.19376900 0.18764650 -0.13089349
v 0.19373792 0.19205261 -0.13594157
v 0.18725299 0.17258133 -0.13380184
v 0.19775591 0.20832371 -0.13689349
v 0.19500297 0.20571763 -0.13949277
v 0.20051475 0.21353825 -0.13314650
v 0.15382380 0.12110571 -0.13666830
v 0.14246888 0.11399003 -0.14073609
v 0.10595523 0.08677346 -0.14135821
v 0.03833984 0.06097089 -0.14123996
v -0.01257986 0.05751832 -0.14166934
v -0.00086800 0.05498400 -0.14024299
v 0.06104367 0.06481206 -0.14023011
v 0.01257585 0.05549246 -0.14020789
v 0.16738261 0.13876155 -0.13599009
v 0.17493160 0.14902447 -0.13419988
v 0.18483773 0.17291908 -0.13815179
v 0.17486300 0.15309501 -0.13761500
v 0.18999980 0.18513235 -0.13769284
v 0.16901674 0.14794761 -0.14054715
v 0.15926723 0.12867909 -0.13731156
v 0.17556339 0.15709022 -0.13926171
v 0.19310001 0.19646899 -0.13857700
v 0.18342754 0.17631318 -0.14097228
v 0.15718121 0.13140517 -0.14059649
v 0.18894552 0.19338246 -0.14136184
v 0.18921060 0.20201627 -0.14226496
v 0.14973237 0.12604450 -0.14185379
v 0.18192239 0.18397961 -0.14272986
v 0.16688374 0.15418452 -0.14261797
v 0.12401361 0.10258780 -0.14248647
v 0.17090374 0.16692074 -0.14318127
v 0.08783968 0.07707806 -0.14143893
v 0.06729618 0.07077923 -0.14202609
v 0.06187587 0.07113088 -0.14243206
v 0.02518471 0.06067544 -0.14208005
v -0.00879327 0.05366619 -0.13963320
v -0.02529675 0.05283550 -0.13751400
v -0.00012800 0.05112300 -0.13623500
v 0.09054554 0.08536447 -0.14292218
v 0.10853080 0.09828836 -0.14288254
v 0.00550805 0.06267381 -0.14274494
v -0.04361495 0.06705614 -0.14264181
v 0.13959291 0.13137713 -0.14262982
v 0.15859637 0.14297011 -0.14285268
v 0.18379509 0.20270488 -0.14325009
v 0.12851496 0.10959144 -0.14284104
v -0.04654884 0.06172586 -0.14176031
v 0.16934207 0.17265456 -0.14309743
v -0.01597220 0.06066652 -0.14243247
v 0.14828480 0.13009255 -0.14277756
v -0.03687295 0.06538769 -0.14274006
v 0.11496471 0.10233120 -0.14301821
v 0.09517230 0.09229247 -0.14267778
v 0.03879976 0.07082880 -0.14264988
v 0.04031527 0.07581558 -0.14162722
v 0.05105641 0.07754008 -0.14213909
v 0.08454364 0.09101458 -0.14173351
v 0.00327655 0.07182442 -0.14146472
v 0.16305989 0.16829803 -0.14245897
v 0.08060073 0.09132527 -0.14109808
v 0.13655542 0.13545026 -0.14115102
v 0.11278486 0.11020611 -0.14160347
v 0.08853429 0.09797042 -0.13986729
v -0.05400155 0.06100393 -0.14071718
v 0.02578352 0.07263367 -0.14196519
v 0.15858134 0.16547092 -0.14170982
v 0.12784023 0.12116228 -0.14222831
v 0.05253559 0.08248080 -0.14043022
v -0.03223409 0.05889848 -0.14136257
v -0.03181742 0.05516002 -0.13935866
v -0.06280849 0.06102024 -0.13935831
v -0.05237350 0.05710225 -0.13764875
v -0.07034300 0.06128750 -0.13710650
v -0.06871916 0.05913087 -0.13466779
v -0.04525100 0.05450604 -0.13626333
v -0.03112164 0.05244020 -0.13617982
v -0.00488730 0.05056566 -0.13597191
f 80 1 5
f 7 80 5
f 89 80 7
f 89 7 4
f 96 89 4
f 96 103 89
f 10 103 96
f 106 103 10
f 106 93 103
f 94 93 106
f 94 106 14
f 101 94 14
f 101 98 94
f 95 98 101
f 101 100 95
f 100 101 13
f 12 100 13
f 99 100 12
f 105 100 99
f 105 91 100
f 78 91 105
f 90 78 105
f 81 90 105
f 81 82 90
f 82 84 90
f 84 68 90
f 90 68 77
f 46 77 68
f 46 70 77
f 70 71 77
f 71 72 77
f 77 72 94
f 77 94 95
f 95 91 77
f 94 72 92
f 72 79 92
f 103 92 79
f 72 73 79
f 73 48 79
f 87 79 48
f 79 87 89
f 89 87 48
f 89 48 85
f 1 89 85
f 102 1 85
f 85 108 102
f 102 108 109
f 108 110 109
f 110 111 109
f 111 2 109
f 1 109 2
f 108 75 110
f 75 113 110
f 110 113 112
f 113 20 112
f 20 113 114
f 20 114 115
f 75 115 114
f 115 75 76
f 115 76 21
f 16 115 21
f 16 19 115
f 19 22 115
f 112 20 15
f 17 112 15
f 17 18 112
f 114 113 75
f 74 75 108
f 107 74 108
f 48 74 107
f 49 74 48
f 74 49 51
f 32 74 51
f 32 51 29
f 29 51 47
f 47 51 73
f 50 29 47
f 50 47 71
f 28 29 50
f 31 28 50
f 49 48 51
f 32 75 74
f 107 108 85
f 1 102 109
f 48 107 85
f 51 48 73
f 72 47 73
f 72 71 47
f 70 50 71
f 70 31 50
f 30 31 70
f 30 70 46
f 46 27 30
f 27 46 68
f 27 68 45
f 65 45 68
f 65 68 88
f 65 88 82
f 62 65 82
f 57 62 82
f 57 82 67
f 69 67 82
f 82 86 69
f 83 69 86
f 83 86 8
f 8 86 9
f 9 86 97
f 86 81 97
f 97 81 99
f 104 97 99
f 104 99 11
f 97 104 11
f 9 97 11
f 6 83 8
f 6 66 83
f 6 64 66
f 64 63 66
f 63 61 66
f 66 61 57
f 66 57 69
f 59 57 61
f 54 59 61
f 56 54 61
f 39 56 61
f 60 39 61
f 60 61 42
f 42 39 60
f 42 41 39
f 41 42 3
f 43 41 3
f 41 43 39
f 43 35 39
f 35 38 39
f 38 34 39
f 39 34 40
f 40 56 39
f 34 33 40
f 33 53 40
f 40 53 54
f 23 53 33
f 23 24 53
f 24 37 53
f 53 37 52
f 53 52 57
f 53 57 55
f 53 55 59
f 52 58 57
f 52 37 58
f 58 37 44
f 44 45 58
f 45 62 58
f 44 26 45
f 26 44 37
f 25 23 33
f 36 25 33
f 36 33 34
f 36 34 38
f 56 40 54
f 54 53 59
f 55 57 59
f 42 61 63
f 3 63 64
f 3 64 6
f 83 66 69
f 57 67 69
f 58 62 57
f 62 45 65
f 26 27 45
f 88 68 84
f 88 84 82
f 86 82 81
f 90 77 78
f 78 77 91
f 99 81 105
f 99 12 11
f 100 91 95
f 98 95 94
f 13 101 14
f 94 92 93
f 93 92 103
f 14 106 10
f 103 79 89
f 10 96 4
f 80 89 1

