v -0.233733 -0.200619 -0.00878338
v -0.233375 -0.192648 -0.00231747
v -0.233477 -0.205073 -0.00961472
v -0.233656 -0.209674 -0.0101206
v -0.233967 -0.21422 -0.010544
v -0.232463 -0.214726 -0.00623352
v -0.235075 -0.218622 -0.0105875
v -0.233566 -0.219099 -0.00622042
v -0.231868 -0.219573 -0.00198529
v -0.230395 -0.215265 -0.00229296
v -0.228463 -0.215723 0.00176228
v -0.226149 -0.216231 0.00560388
v -0.223594 -0.216746 0.00937344
v -0.220096 -0.212862 0.0129257
v -0.217485 -0.213336 0.0165841
v -0.214849 -0.213804 0.0202155
v -0.211416 -0.209747 0.0236207
v -0.212312 -0.218631 0.0235011
v -0.209266 -0.219022 0.0268032
v -0.205185 -0.214949 0.0295188
v -0.198642 -0.211092 0.035974
v -0.202081 -0.210821 0.0331289
v -0.208323 -0.210135 0.0268061
v -0.205257 -0.21049 0.0300257
v -0.202533 -0.206453 0.0340709
v -0.209105 -0.205899 0.0280636
v -0.205801 -0.206168 0.0310516
v -0.210034 -0.201713 0.0294723
v -0.20673 -0.201982 0.0324603
v -0.210963 -0.197526 0.0308809
v -0.211892 -0.19334 0.0322896
v -0.207661 -0.197796 0.0338772
v -0.200153 -0.202607 0.038509
v -0.201239 -0.198532 0.0401849
v -0.202325 -0.194458 0.0418608
v -0.203411 -0.190384 0.0435367
v -0.197803 -0.198811 0.043084
v -0.198853 -0.19472 0.0447315
v -0.199902 -0.190628 0.0463789
v -0.200952 -0.186537 0.0480264
v -0.195723 -0.207005 0.0397837
v -0.196757 -0.202904 0.0414356
v -0.196403 -0.190879 0.0492025
v -0.197437 -0.186778 0.0508545
v -0.193304 -0.203194 0.0442566
v -0.194337 -0.199088 0.045905
v -0.19537 -0.194983 0.0475534
v -0.19296 -0.191259 0.0520915
v -0.193992 -0.187154 0.0537395
v -0.194674 -0.182862 0.0550074
v -0.19089 -0.183061 0.0575264
v -0.191138 -0.178622 0.05826
v -0.187472 -0.178852 0.0609455
v -0.18372 -0.17457 0.0638898
v -0.179698 -0.174743 0.0660228
v -0.179537 -0.170242 0.0661115
v -0.179143 -0.16579 0.0657059
v -0.175474 -0.170397 0.0681358
v -0.171235 -0.170543 0.0697887
v -0.174994 -0.165962 0.0674124
v -0.175629 -0.174892 0.0680708
v -0.171463 -0.175019 0.0699077
v -0.17566 -0.179394 0.0677519
v -0.171534 -0.179529 0.0696853
v -0.167321 -0.175151 0.0718022
v -0.16732 -0.179652 0.0714316
v -0.163088 -0.179774 0.0731385
v -0.163031 -0.175285 0.0733057
v -0.1587 -0.179894 0.0742764
v -0.162909 -0.184152 0.0722946
v -0.158556 -0.184322 0.0734637
v -0.167172 -0.184039 0.0706879
v -0.17494 -0.188144 0.0657243
v -0.170831 -0.188254 0.0675827
v -0.171308 -0.18393 0.0688692
v -0.166708 -0.188301 0.0694
v -0.162587 -0.188446 0.0708562
v -0.178203 -0.192224 0.0621446
v -0.174185 -0.192284 0.0640739
v -0.170167 -0.192345 0.0660077
v -0.177224 -0.196266 0.0604023
v -0.184749 -0.195913 0.0556698
v -0.181037 -0.196105 0.0581057
v -0.188426 -0.19567 0.0531538
v -0.189439 -0.191567 0.0548297
v -0.185769 -0.19182 0.0573609
v -0.190878 -0.199438 0.0487295
v -0.18205 -0.192052 0.0598385
v -0.19043 -0.187454 0.0564852
v -0.186597 -0.187637 0.0588542
v -0.182765 -0.187819 0.0612232
v -0.178933 -0.188002 0.0635922
v -0.175394 -0.183813 0.0669165
v -0.179447 -0.183684 0.0648455
v -0.179734 -0.179248 0.0657206
v -0.167009 -0.170685 0.071446
v -0.187508 -0.16985 0.0617179
v -0.183568 -0.170089 0.0639952
v -0.1832 -0.1656 0.0637371
v -0.19846 -0.164705 0.0540501
v -0.194647 -0.164929 0.0564737
v -0.190833 -0.165152 0.0588973
v -0.18702 -0.165376 0.0613209
v -0.198937 -0.169169 0.0543054
v -0.198629 -0.178161 0.0531062
v -0.198816 -0.173667 0.0537471
v -0.195183 -0.169387 0.0568423
v -0.198423 -0.18265 0.0524354
v -0.202246 -0.177902 0.0503324
v -0.202481 -0.173419 0.0510491
v -0.206032 -0.173149 0.0481877
v -0.209376 -0.17282 0.045108
v -0.215707 -0.172077 0.0385661
v -0.212538 -0.17244 0.0418351
v -0.212632 -0.168015 0.0423558
v -0.209314 -0.168347 0.0454587
v -0.224071 -0.175133 0.0272541
v -0.221482 -0.175669 0.0310145
v -0.218787 -0.171688 0.0352216
v -0.225915 -0.178839 0.0223782
v -0.22703 -0.194572 0.00951623
v -0.226548 -0.186719 0.0159952
v -0.226004 -0.19876 0.00810933
v -0.223459 -0.199264 0.0117484
v -0.224492 -0.195088 0.0131717
v -0.225525 -0.190912 0.0145951
v -0.22536 -0.203039 0.00693751
v -0.229539 -0.2018 -0.000936569
v -0.227547 -0.202443 0.0030656
v -0.222909 -0.203584 0.0106407
v -0.220247 -0.204093 0.0142126
v -0.217559 -0.204583 0.0177622
v -0.220924 -0.199777 0.0153937
v -0.218291 -0.200272 0.0189825
v -0.215673 -0.200776 0.0225842
v -0.219265 -0.196091 0.0203968
v -0.216647 -0.196594 0.0239985
v -0.220239 -0.191909 0.0218111
v -0.217622 -0.192412 0.0254128
v -0.221214 -0.187727 0.0232255
v -0.218596 -0.18823 0.0268271
v -0.219571 -0.184049 0.0282414
v -0.220545 -0.179867 0.0296557
v -0.215849 -0.18875 0.0303929
v -0.216805 -0.184558 0.0317922
v -0.213773 -0.185002 0.0351837
v -0.21768 -0.180348 0.0331439
v -0.214638 -0.18079 0.036529
v -0.211595 -0.181231 0.039914
v -0.212887 -0.189208 0.0338165
v -0.210705 -0.185435 0.0385421
v -0.207536 -0.185834 0.0417937
v -0.20846 -0.181637 0.0432056
v -0.20508 -0.181951 0.0462495
v -0.2017 -0.182266 0.0492934
v -0.205689 -0.177588 0.0473606
v -0.204346 -0.186223 0.0450195
v -0.214861 -0.192928 0.0289702
v -0.212815 -0.201229 0.0260311
v -0.213847 -0.197089 0.027518
v -0.211832 -0.205393 0.024578
v -0.231587 -0.201172 -0.00490406
v -0.230343 -0.197561 0.000328767
v -0.228276 -0.198184 0.00428436
v -0.229099 -0.193949 0.00556159
v -0.227855 -0.190338 0.0107944
v -0.231267 -0.193313 0.00163714
v -0.229993 -0.189706 0.00686076
v -0.228719 -0.186098 0.0120844
v -0.227445 -0.182491 0.017308
v -0.229677 -0.181855 0.013381
v -0.232183 -0.189038 0.00292788
v -0.230952 -0.185457 0.00816337
v -0.221904 -0.195589 0.0167985
v -0.222938 -0.191413 0.0182224
v -0.223973 -0.187237 0.0196462
v -0.225007 -0.183062 0.02107
v -0.222242 -0.18355 0.0246483
v -0.223277 -0.179375 0.0260721
v -0.228244 -0.178232 0.0184926
v -0.218433 -0.176082 0.0343816
v -0.215272 -0.176466 0.0376523
v -0.212111 -0.176851 0.040923
v -0.20895 -0.177235 0.0441936
v -0.202561 -0.168921 0.0515678
v -0.205995 -0.168671 0.0485629
v -0.183611 -0.179053 0.0633492
v -0.194834 -0.178383 0.0556074
v -0.194997 -0.173881 0.0562034
v -0.191233 -0.174115 0.0587631
v -0.18747 -0.174349 0.0613228
v -0.191396 -0.169613 0.0593591
v -0.187105 -0.183273 0.0600117
v -0.18332 -0.183489 0.0624869
v -0.191896 -0.195341 0.0504069
v -0.203442 -0.202259 0.0354886
v -0.20449 -0.198173 0.0370999
v -0.208698 -0.193698 0.0354719
v -0.205538 -0.194086 0.0387112
v -0.209746 -0.189612 0.0370832
v -0.206586 -0.19 0.0403225
v -0.199139 -0.206726 0.0369355
v -0.215403 -0.218225 0.0202188
v -0.202274 -0.164481 0.0516265
v -0.232477 -0.196898 -0.00362014
v -0.235191 -0.209092 -0.0143296
v -0.211703 -0.214197 0.0233645
v -0.208423 -0.214602 0.0264298
v -0.217357 -0.208908 0.0170089
v -0.214446 -0.209349 0.0203825
v -0.214724 -0.204965 0.0211916
v -0.222754 -0.212384 0.00932945
v -0.225055 -0.207404 0.00603016
v -0.222532 -0.207913 0.00972505
v -0.220009 -0.208422 0.0134199
v -0.225201 -0.211859 0.00556132
v -0.22973 -0.210774 -0.00212099
v -0.227542 -0.211324 0.00174935
v -0.229796 -0.220037 0.00201387
v -0.235452 -0.213692 -0.0147951
v -0.227263 -0.206856 0.00216357
v -0.236605 -0.218107 -0.0148884
v -0.231717 -0.210205 -0.00609106
v -0.231394 -0.205671 -0.00567786
v -0.229329 -0.206263 -0.00175714
f 162 224 3 1
f 167 163 205 2
f 224 223 4 3
f 223 6 5 4
f 5 220 206 4
f 6 8 7 5
f 7 222 220 5
f 223 217 10 6
f 10 9 8 6
f 10 11 219 9
f 217 218 11 10
f 218 216 12 11
f 216 212 13 12
f 215 209 15 14
f 212 214 215 14
f 209 210 16 15
f 210 17 207 16
f 207 18 203 16
f 161 26 23 17
f 23 208 207 17
f 210 211 161 17
f 207 208 19 18
f 208 23 24 20
f 22 25 202 21
f 24 27 25 22
f 26 27 24 23
f 196 33 202 25
f 27 29 196 25
f 28 29 27 26
f 161 159 28 26
f 30 32 29 28
f 159 160 30 28
f 32 197 196 29
f 31 198 32 30
f 160 158 31 30
f 150 200 198 31
f 158 144 150 31
f 198 199 197 32
f 34 37 42 33
f 42 41 202 33
f 196 197 34 33
f 35 38 37 34
f 197 199 35 34
f 36 39 38 35
f 199 201 36 35
f 157 40 39 36
f 201 152 157 36
f 38 47 46 37
f 46 45 42 37
f 39 43 47 38
f 40 44 43 39
f 155 108 44 40
f 157 154 155 40
f 44 49 48 43
f 48 195 47 43
f 108 50 49 44
f 47 195 87 46
f 49 89 85 48
f 85 84 195 48
f 50 51 89 49
f 188 52 51 50
f 108 105 188 50
f 52 53 193 51
f 193 90 89 51
f 190 191 53 52
f 188 189 190 52
f 191 54 187 53
f 187 194 193 53
f 98 56 55 54
f 55 95 187 54
f 191 97 98 54
f 56 58 61 55
f 61 63 95 55
f 57 60 58 56
f 98 99 57 56
f 59 62 61 58
f 96 65 62 59
f 62 64 63 61
f 65 66 64 62
f 64 75 93 63
f 93 94 95 63
f 66 72 75 64
f 68 67 66 65
f 67 70 72 66
f 69 71 70 67
f 77 76 72 70
f 76 74 75 72
f 93 75 74 73
f 74 80 79 73
f 79 78 92 73
f 92 94 93 73
f 81 83 88 78
f 88 91 92 78
f 86 88 83 82
f 84 85 86 82
f 89 90 86 85
f 90 91 88 86
f 193 194 91 90
f 194 94 92 91
f 194 187 95 94
f 103 99 98 97
f 191 190 192 97
f 192 102 103 97
f 101 107 104 100
f 104 185 204 100
f 102 192 107 101
f 107 189 106 104
f 106 110 185 104
f 106 189 188 105
f 108 155 109 105
f 109 110 106 105
f 192 190 189 107
f 155 154 156 109
f 156 111 110 109
f 111 186 185 110
f 156 184 112 111
f 112 116 186 111
f 184 183 114 112
f 114 115 116 112
f 114 183 182 113
f 182 181 119 113
f 118 143 179 117
f 181 147 143 118
f 179 178 177 120
f 177 170 180 120
f 166 126 125 121
f 125 124 123 121
f 123 164 165 121
f 165 168 166 121
f 170 177 176 122
f 176 175 126 122
f 126 166 169 122
f 169 171 170 122
f 124 130 127 123
f 127 129 164 123
f 125 174 133 124
f 133 131 130 124
f 126 175 174 125
f 130 214 213 127
f 213 221 129 127
f 163 164 129 128
f 129 221 225 128
f 225 224 162 128
f 162 205 163 128
f 131 215 214 130
f 133 134 132 131
f 132 209 215 131
f 134 135 211 132
f 211 210 209 132
f 174 136 134 133
f 136 137 135 134
f 137 160 159 135
f 159 161 211 135
f 138 139 137 136
f 174 175 138 136
f 139 158 160 137
f 140 141 139 138
f 175 176 140 138
f 141 144 158 139
f 178 142 141 140
f 176 177 178 140
f 142 145 144 141
f 143 147 145 142
f 178 179 143 142
f 145 146 150 144
f 147 148 146 145
f 148 149 151 146
f 151 200 150 146
f 181 182 148 147
f 182 183 149 148
f 183 184 153 149
f 153 152 151 149
f 152 201 200 151
f 153 154 157 152
f 184 156 154 153
f 167 165 164 163
f 167 172 168 165
f 168 173 169 166
f 200 201 199 198
f 216 213 214 212
f 216 218 221 213
f 225 221 218 217
f 223 224 225 217
