v 0.00732943 0.0720177 0.00619817
v 0.0105258 0.0907181 -0.000651141
v 0.0299108 0.0875115 0.000527161
v 0.0267691 0.0688568 0.0071909
v 0.0493805 0.0842074 0.00151938
v -0.0120754 0.0750669 0.00510007
v -0.0152478 0.0560489 0.0111555
v 0.0138787 0.109257 -0.0081242
v 0.0688913 0.0808366 0.0025518
v 0.0462502 0.0656863 0.00812228
v -0.00886201 0.0938605 -0.00184385
v 0.00418154 0.0530612 0.0121402
v -0.00552584 0.112483 -0.00951075
v 0.0721447 0.0990561 -0.004426
v 0.065774 0.0624212 0.00902445
v 0.0332723 0.105871 -0.00704681
v 0.0526682 0.10236 -0.00593085
v -0.0282498 0.0968262 -0.00324738
v -0.0314161 0.0779477 0.00386701
v -0.0506629 0.0805439 0.00227896
v 0.023651 0.0500215 0.0130605
v 0.00102902 0.0339763 0.0172832
v -0.0184615 0.0369634 0.0163891
v -0.0345895 0.0588933 0.0100334
v -0.00213984 0.131123 -0.0173148
v 0.0757505 0.116779 -0.0123428
v -0.0698369 0.0830965 0.000615745
v 0.0431652 0.0468806 0.0139297
v 0.0205812 0.0309781 0.0181281
v -0.0571607 0.0424559 0.0143881
v -0.0730556 0.0641534 0.00741414
v -0.0538203 0.0615206 0.00871718
v 0.00152086 0.149862 -0.0249893
v -0.0249242 0.115494 -0.0109991
v 0.0883809 0.0780111 0.00505694
v -0.0764209 0.0451148 0.013201
v -0.0378212 0.03975 0.0154445
v 0.036817 0.124137 -0.0149968
v 0.0174244 0.127742 -0.0160298
v -0.021581 0.134225 -0.0188677
v -0.0475108 0.0994532 -0.00495006
v 0.0915384 0.096499 -0.00130229
v 0.095125 0.114544 -0.00876639
v 0.0853019 0.0594927 0.0111127
v 0.0627342 0.0437704 0.014758
v 0.0401713 0.027977 0.0189028
v -0.0215687 0.0176595 0.0206528
v -0.0410702 0.0205323 0.0198612
v -0.0146251 0.172076 -0.0345785
v -0.0181547 0.153114 -0.026748
v -0.0667103 0.101968 -0.00707245
v 0.0797951 0.133757 -0.0213706
v 0.0823729 0.0407732 0.0162523
v -0.0888465 0.0855954 -0.000504126
v -0.0019771 0.0147197 0.021366
v 0.059775 0.0249973 0.0196334
v -0.0604652 0.0232317 0.0189806
v 0.0562542 0.12011 -0.014213
v 0.0211466 0.146065 -0.0240246
v 0.00529689 0.168432 -0.0327873
v 0.110655 0.0946971 0.003581
v 0.0993882 0.131184 -0.0182634
v 0.0176052 0.0117696 0.0220221
v -0.0637191 0.00392556 0.0224496
v -0.0831892 0.00663329 0.0217476
v -0.0798196 0.0259541 0.0181722
v 0.0406881 0.141892 -0.0233476
v -0.0410512 0.136998 -0.0213004
v -0.0443249 0.118249 -0.0129841
v -0.0635458 0.120688 -0.0155332
v 0.114411 0.112739 -0.00449366
v 0.060223 0.137332 -0.0230103
v 0.104685 0.0570297 0.0148995
v 0.107548 0.0759424 0.00965071
v -0.0955573 0.0477502 0.0130532
v -0.0921194 0.0666748 0.00668344
v -0.110936 0.0693528 0.00744218
v -0.044168 0.0011567 0.0232123
v -0.0856715 0.104387 -0.00861973
v 0.0794996 0.0219185 0.0206525
v 0.101971 0.0380507 0.0191833
v -0.0049782 -0.00451668 0.0243944
v -0.0246137 -0.00162302 0.0238017
v 0.0372657 0.00880211 0.0226511
v 0.0569656 0.00582064 0.0232812
v -0.106092 -0.0101132 0.0238232
v -0.0991074 0.028593 0.0178713
v 0.0250984 0.164024 -0.0322589
v 0.129886 0.0922379 0.00676041
v 0.119179 0.128221 -0.0156845
v -0.114554 0.0504243 0.0135598
v 0.0766914 0.00283976 0.0239246
v -0.086472 -0.0127759 0.024248
v -0.12217 0.0118966 0.0212394
v -0.102629 0.0092844 0.0214338
v -0.118351 0.0312722 0.0181778
v -0.0607254 0.139124 -0.0247937
v 0.0992602 0.0189927 0.0226717
v 0.124147 0.0544208 0.0184087
v 0.126739 0.0733598 0.0133098
v -0.107551 0.0881096 3.40721e-06
v 0.0146892 -0.0074821 0.0249489
v -0.0668715 -0.0155029 0.0247674
v -0.0472618 -0.0182534 0.0253486
v -0.125727 -0.00751742 0.0234005
v 0.0448593 0.15894 -0.0323353
v -0.0378263 0.155846 -0.0296141
v -0.0828902 0.122753 -0.0180376
v 0.0643932 0.153662 -0.0327125
v 0.0965437 -0.000203881 0.0251331
v 0.121654 0.0352842 0.0219494
v -0.13353 0.0530128 0.0139521
v -0.12962 0.0718727 0.00830433
v -0.126171 0.0904218 0.000789553
v -0.104558 0.106612 -0.00867129
v -0.0276443 -0.0210564 0.0258981
v 0.0343927 -0.0104423 0.0253592
v 0.0540918 -0.0134053 0.0257284
v -0.0896605 -0.0321878 0.0256695
v -0.0354714 0.173948 -0.038537
v 0.00914223 0.18424 -0.0439045
v 0.133959 0.10973 -0.00292948
v -0.102579 0.124276 -0.0181764
v -0.00796231 -0.0239301 0.0263284
v 0.0937388 -0.0194568 0.0267995
v -0.070013 -0.0349253 0.0262139
v -0.10937 -0.0295273 0.0251661
v -0.129129 -0.0269411 0.0243022
v -0.0579117 0.1574 -0.0335642
v 0.148444 0.0878347 0.00631938
v 0.119104 0.0160172 0.0243548
v -0.137627 0.0338688 0.0181038
v 0.0117385 -0.0268228 0.026719
v 0.0314538 -0.0297349 0.0270829
v 0.0739062 -0.0164193 0.0262206
v -0.0503384 -0.0376805 0.0266529
v -0.0730718 -0.054356 0.0267213
v -0.145433 -0.00491726 0.0221083
v 0.0293848 0.177473 -0.0446703
v -0.081122 0.140418 -0.028037
v 0.145992 0.0699154 0.0140189
v -0.124142 0.108369 -0.00810482
v -0.0306679 -0.0404579 0.027123
v 0.0512149 -0.0326978 0.0273951
v 0.0908315 -0.0387233 0.0277752
v 0.0710219 -0.0357085 0.0276275
v -0.0533963 -0.0571168 0.0272141
v -0.141597 0.0144839 0.0208439
v -0.148855 -0.024337 0.0219861
v 0.154561 0.102597 -0.00557598
v 0.11646 -0.00332127 0.0259745
v 0.141504 0.0322071 0.0226739
v 0.143787 0.0512928 0.0193407
v -0.147887 0.0733538 0.00704492
v -0.144356 0.0915412 -9.81071e-05
v -0.0109682 -0.043331 0.0274576
v -0.0927846 -0.0516346 0.0262584
v -0.112542 -0.0489474 0.0255581
v -0.152097 -0.0438001 0.0212652
v -0.152396 0.0551771 0.0121039
v 0.00874026 -0.0462068 0.0277547
v 0.0680228 -0.055008 0.0282806
v -0.0337028 -0.0598798 0.0277526
v -0.0140153 -0.0626891 0.028114
v -0.0564257 -0.0765287 0.0273722
v -0.0367129 -0.0792862 0.0278371
v -0.039721 -0.0986906 0.0276855
v -0.0957672 -0.0710682 0.0260582
v -0.132387 -0.0463438 0.0243438
v -0.164878 -0.00209101 0.0186645
v -0.161095 0.0172457 0.0180012
v -0.16832 -0.0215798 0.0184817
v -0.171567 -0.041087 0.0176553
v -0.160375 0.0893847 -0.00298396
v -0.105212 0.138965 -0.0287075
v 0.166097 0.0803737 0.00294509
v 0.113659 -0.0227534 0.0269556
v -0.156818 0.0362671 0.0158442
v 0.0284414 -0.0490494 0.0280457
v 0.0253716 -0.0683632 0.0285465
v 0.0482372 -0.0520253 0.0282552
v 0.0450827 -0.0713085 0.0285609
v 0.00566185 -0.0654861 0.028445
v -0.0760936 -0.0737971 0.0267183
v -0.0593914 -0.0959576 0.0270418
v -0.0170461 -0.0820707 0.0281449
v -0.0200409 -0.101467 0.0280388
v 0.00262019 -0.0848555 0.0284508
v -0.115527 -0.0683737 0.0251761
v 0.0113229 0.182165 -0.0604971
v 0.164167 0.0658994 0.0107837
v -0.125312 0.124174 -0.0180344
v -0.145453 0.108275 -0.0100095
v 0.087519 -0.0583258 0.0280627
v -0.0790272 -0.093232 0.0263461
v -0.000480913 -0.104209 0.0284637
v -0.135303 -0.0657688 0.023296
v -0.154945 -0.0631786 0.0197161
v 0.0365479 0.177277 -0.0548828
v 0.139076 0.0128082 0.0245576
v -0.165843 0.0742023 0.00214827
v 0.0840141 -0.0779599 0.0278041
v 0.110244 -0.0425328 0.027038
v 0.0647195 -0.0743049 0.0285273
v -0.0426208 -0.11814 0.0272587
v -0.0454919 -0.137627 0.0266921
v 0.0221995 -0.0876958 0.0285882
v -0.12087 -0.107292 0.0225756
v -0.190995 -0.0380123 0.014444
v -0.187562 -0.0184098 0.0143166
v -0.174743 -0.0606863 0.0166201
v -0.038879 0.178522 -0.0565521
v -0.0120061 0.177318 -0.0656282
v 0.136164 -0.00698157 0.0252193
v -0.171061 0.0570583 0.00699266
v 0.0418397 -0.0906587 0.0284817
v -0.0230962 -0.120845 0.0278375
v -0.062188 -0.115407 0.0264213
v -0.0986511 -0.0904995 0.0254675
v -0.00362618 -0.123581 0.0281269
v -0.118295 -0.0878179 0.0240995
v -0.137969 -0.0851833 0.0217046
v -0.194314 -0.0577168 0.0143562
v 0.0416072 -0.210371 0.0281577
v 0.0918356 -0.140532 0.0207992
v 0.132892 -0.0267962 0.0248885
v 0.10672 -0.062231 0.0265553
v 0.0386008 -0.110005 0.0281713
v 0.0613308 -0.0936908 0.0281375
v -0.0649707 -0.134895 0.0256396
v 0.0190535 -0.107071 0.0284107
v 0.0158627 -0.126405 0.0281194
v -0.123207 -0.126753 0.0205191
v -0.18408 0.00116282 0.0140867
v -0.180114 0.0203739 0.0126604
v -0.157539 -0.0825238 0.0178277
v 0.166292 -0.0538714 0.0123343
v 0.035381 0.164564 -0.0683939
v 0.0148902 0.165776 -0.0715245
v -0.175824 0.0391023 0.0104742
v -0.0260595 -0.140319 0.0273666
v -0.0483355 -0.157152 0.026176
v -0.101276 -0.109977 0.0243507
v -0.0817374 -0.112685 0.0254315
v -0.0843396 -0.132168 0.0242472
v -0.00672556 -0.143005 0.0278452
v -0.00973542 -0.162478 0.0276336
v -0.103877 -0.129454 0.0230651
v -0.140326 -0.10462 0.0193125
v -0.159803 -0.101962 0.0158303
v -0.0750328 0.0927812 -0.0966096
v -0.0566308 0.167295 -0.060279
v -0.00289774 0.160346 -0.0751265
v -0.0204475 0.150827 -0.0790954
v -0.0302247 0.166442 -0.0701389
v 0.0805165 -0.0974931 0.0269695
v 0.0579055 -0.113309 0.0274404
v -0.0511627 -0.176699 0.0256901
v -0.0290279 -0.159807 0.026944
v -0.0676977 -0.15442 0.0248429
v 0.0126517 -0.145774 0.0278001
v -0.142573 -0.124058 0.0170021
v -0.106339 -0.148944 0.0212266
v -0.212993 -0.0545262 0.00916525
v -0.177671 -0.079957 0.0160135
v -0.19774 -0.0774487 0.0148807
v 0.155451 -0.0109758 0.0214851
v -0.187746 0.0609545 -0.0033552
v -0.181203 0.0786438 -0.00886604
v -0.070421 -0.173978 0.0240886
v -0.0870213 -0.151684 0.0232976
v -0.0896824 -0.171245 0.0223366
v 0.0352242 -0.129403 0.0277195
v 0.031919 -0.148842 0.0272737
v 0.00952145 -0.165187 0.0276474
v 0.0063801 -0.184696 0.0278273
v -0.205923 -0.0148352 0.00757075
v -0.209513 -0.0345991 0.00843613
v 0.0314608 0.128977 -0.0861886
v -0.0737399 0.156131 -0.0635212
v 0.103102 -0.0818468 0.0255274
v 0.0994148 -0.101402 0.0240106
v 0.129284 -0.0464834 0.0239022
v 0.151731 -0.0306547 0.0198299
v -0.192834 0.0428421 0.000856956
v 0.0544214 -0.132752 0.0267919
v 0.0769573 -0.117041 0.0259365
v -0.0127153 -0.181978 0.0275385
v -0.0319185 -0.179367 0.0268674
v 0.0285843 -0.1683 0.0269716
v -0.125566 -0.146245 0.0184988
v -0.216561 -0.0746149 0.0104066
v 0.0225333 -0.207277 0.0286462
v -0.0906605 0.144909 -0.0665465
v 0.00611314 0.142397 -0.0824156
v -0.0433776 0.114512 -0.0916727
v -0.0270299 0.124592 -0.0886556
v -0.0107026 0.134669 -0.0856323
v -0.0372626 0.14048 -0.0821201
v 0.0509201 -0.152247 0.0260503
v 0.0733212 -0.136597 0.0246803
v 0.0253939 -0.187819 0.0272814
v -0.03476 -0.198947 0.0272881
v -0.0155124 -0.201526 0.0283882
v -0.144795 -0.143708 0.0158977
v -0.108841 -0.168507 0.019867
v -0.201996 0.00471724 0.00614553
v -0.200058 -0.0967179 0.0180647
v 0.00357061 -0.204255 0.0289278
v -0.107514 0.134305 -0.069735
v 0.0397966 0.147486 -0.077368
v 0.0229221 0.146585 -0.0797621
v -0.053728 0.129719 -0.0848858
v -0.0642546 0.144095 -0.0761115
v -0.047625 0.155309 -0.0734935
v -0.0808587 0.132894 -0.0787088
v 0.125472 -0.0660687 0.0222728
v 0.12158 -0.0856129 0.0204677
v -0.197699 0.0239758 0.00395324
v -0.0539771 -0.196295 0.0260065
v -0.127988 -0.165817 0.0173533
v -0.219776 -0.0947229 0.0134007
v -0.179683 -0.0996178 0.0164361
v 0.0662614 -0.175519 0.0231962
v 0.0141816 0.124775 -0.0887042
v -0.070033 0.118729 -0.0875175
v -0.0973596 0.121767 -0.081381
v 0.170553 -0.0344465 0.0150081
v 0.0956323 -0.120953 0.0224131
v 0.147686 -0.0501231 0.0177068
v 0.047555 -0.171764 0.0257349
v -0.073217 -0.193575 0.0242202
v -0.0924343 -0.190853 0.0222724
v 0.0443221 -0.191153 0.0260971
v -0.224926 -0.0316849 -0.00333544
v -0.228578 -0.0516623 -0.00227464
v -0.161954 -0.12175 0.0155536
v 0.0697666 -0.156089 0.0235814
v -0.00184245 0.118097 -0.0913427
v -0.059292 0.103643 -0.0941747
v -0.0177174 0.108598 -0.094266
v -0.0862397 0.107711 -0.0900176
v 0.143464 -0.0695238 0.0152829
f 4 21 12 1
f 12 7 6 1
f 6 11 2 1
f 2 3 4 1
f 11 13 8 2
f 8 16 3 2
f 5 10 4 3
f 16 17 5 3
f 10 28 21 4
f 9 15 10 5
f 17 14 9 5
f 7 24 19 6
f 19 18 11 6
f 12 22 23 7
f 23 37 24 7
f 13 25 39 8
f 39 38 16 8
f 35 44 15 9
f 14 42 35 9
f 15 45 28 10
f 18 34 13 11
f 21 29 22 12
f 34 40 25 13
f 17 58 26 14
f 26 43 42 14
f 44 53 45 15
f 38 58 17 16
f 19 20 41 18
f 41 69 34 18
f 24 32 20 19
f 32 31 27 20
f 27 51 41 20
f 28 46 29 21
f 29 63 55 22
f 55 47 23 22
f 47 48 37 23
f 37 30 32 24
f 40 50 33 25
f 33 59 39 25
f 58 72 52 26
f 52 62 43 26
f 31 76 54 27
f 54 79 51 27
f 45 56 46 28
f 46 84 63 29
f 37 48 57 30
f 57 66 36 30
f 36 31 32 30
f 36 75 76 31
f 50 49 60 33
f 60 88 59 33
f 69 68 40 34
f 74 73 44 35
f 42 61 74 35
f 66 87 75 36
f 39 59 67 38
f 67 72 58 38
f 68 107 50 40
f 51 70 69 41
f 43 71 61 42
f 62 90 71 43
f 73 81 53 44
f 53 80 56 45
f 56 85 84 46
f 55 82 83 47
f 83 78 48 47
f 78 64 57 48
f 50 107 120 49
f 79 108 70 51
f 81 98 80 53
f 76 77 101 54
f 101 115 79 54
f 63 102 82 55
f 80 92 85 56
f 64 65 66 57
f 88 106 67 59
f 121 139 88 60
f 89 100 74 61
f 71 122 89 61
f 84 117 102 63
f 78 104 103 64
f 103 93 65 64
f 93 86 95 65
f 95 87 66 65
f 106 109 72 67
f 69 70 97 68
f 97 129 107 68
f 108 140 97 70
f 99 111 81 73
f 74 100 99 73
f 87 96 91 75
f 91 77 76 75
f 91 112 113 77
f 113 114 101 77
f 83 116 104 78
f 115 123 108 79
f 98 110 92 80
f 111 131 98 81
f 102 133 124 82
f 124 116 83 82
f 85 118 117 84
f 92 135 118 85
f 93 119 127 86
f 127 128 105 86
f 105 94 95 86
f 95 94 96 87
f 130 141 100 89
f 122 150 130 89
f 96 132 112 91
f 110 125 135 92
f 103 126 119 93
f 105 138 148 94
f 148 132 96 94
f 131 151 110 98
f 153 152 111 99
f 100 141 153 99
f 114 142 115 101
f 117 134 133 102
f 104 136 126 103
f 116 143 136 104
f 128 149 138 105
f 123 175 140 108
f 151 177 125 110
f 152 200 131 111
f 132 178 160 112
f 160 154 113 112
f 154 155 114 113
f 155 193 142 114
f 142 192 123 115
f 124 156 143 116
f 118 144 134 117
f 135 146 144 118
f 126 137 157 119
f 157 158 127 119
f 133 161 156 124
f 177 203 145 125
f 145 146 135 125
f 136 147 137 126
f 158 169 128 127
f 169 159 149 128
f 176 191 141 130
f 200 214 151 131
f 148 171 178 132
f 134 179 161 133
f 144 181 179 134
f 143 163 147 136
f 147 165 184 137
f 184 168 157 137
f 149 172 170 138
f 170 171 148 138
f 156 164 163 143
f 146 162 181 144
f 203 227 194 145
f 194 162 146 145
f 163 166 165 147
f 159 173 172 149
f 214 226 177 151
f 160 215 201 154
f 201 174 155 154
f 161 183 164 156
f 168 189 158 157
f 189 197 169 158
f 169 197 198 159
f 198 211 173 159
f 178 240 215 160
f 179 180 183 161
f 194 202 204 162
f 204 182 181 162
f 164 186 166 163
f 183 188 186 164
f 166 167 185 165
f 185 195 184 165
f 186 187 167 166
f 187 217 205 167
f 205 218 185 167
f 184 195 219 168
f 219 221 189 168
f 172 210 234 170
f 234 235 171 170
f 235 240 178 171
f 173 209 210 172
f 211 223 209 173
f 226 283 203 177
f 181 182 180 179
f 182 216 207 180
f 207 188 183 180
f 204 229 216 182
f 218 244 195 185
f 188 196 187 186
f 196 220 217 187
f 207 231 196 188
f 221 222 197 189
f 213 253 239 190
f 239 238 199 190
f 227 281 202 194
f 244 243 219 195
f 231 232 220 196
f 222 236 198 197
f 236 265 211 198
f 215 268 269 201
f 281 282 256 202
f 256 229 204 202
f 283 317 227 203
f 217 241 206 205
f 206 230 218 205
f 241 259 242 206
f 242 260 230 206
f 216 228 231 207
f 243 248 233 208
f 233 262 249 208
f 249 222 221 208
f 221 219 243 208
f 223 264 278 209
f 278 277 210 209
f 277 307 234 210
f 265 266 223 211
f 252 315 255 212
f 255 254 253 213
f 267 284 226 214
f 240 285 268 215
f 229 257 228 216
f 220 246 241 217
f 230 245 244 218
f 232 261 246 220
f 249 250 236 222
f 266 292 264 223
f 284 330 283 226
f 317 318 281 227
f 257 286 273 228
f 273 232 231 228
f 256 287 257 229
f 260 271 245 230
f 273 274 261 232
f 248 263 291 233
f 291 305 262 233
f 307 319 235 234
f 319 285 240 235
f 250 323 265 236
f 239 312 311 238
f 253 295 312 239
f 246 247 259 241
f 259 289 258 242
f 258 270 260 242
f 244 245 248 243
f 271 263 248 245
f 261 275 247 246
f 275 276 288 247
f 288 289 259 247
f 262 337 250 249
f 280 314 315 252
f 254 298 295 253
f 255 315 299 254
f 299 297 298 254
f 282 329 287 256
f 287 301 286 257
f 289 303 320 258
f 320 332 270 258
f 270 272 271 260
f 274 290 275 261
f 271 272 306 263
f 306 321 291 263
f 336 335 278 264
f 323 308 266 265
f 308 322 292 266
f 332 333 272 270
f 286 300 274 273
f 300 331 290 274
f 290 302 276 275
f 302 293 309 276
f 309 304 288 276
f 294 316 314 280
f 330 343 317 283
f 328 237 330 284
f 301 338 300 286
f 329 225 301 287
f 304 303 289 288
f 331 334 302 290
f 310 327 316 294
f 298 339 325 295
f 325 279 312 295
f 297 299 313 296
f 313 326 340 296
f 341 339 298 297
f 315 314 313 299
f 338 324 331 300
f 334 224 293 302
f 314 316 326 313
f 327 342 326 316
f 342 251 340 326
