v -0.317026 -0.343464 0.0315432
v -0.315802 -0.328558 0.033562
v -0.309006 -0.311916 0.0212259
v -0.312195 -0.326708 0.0188183
v -0.313266 -0.341756 0.0170701
v -0.313588 -0.356886 0.0154249
v -0.30954 -0.370414 -0.00014601
v -0.304962 -0.38407 -0.0156353
v -0.304831 -0.399094 -0.0166561
v -0.305272 -0.414012 -0.017824
v -0.308176 -0.400483 -0.00217294
v -0.31689 -0.358463 0.0299341
v -0.31235 -0.386961 0.0133234
v -0.308444 -0.415386 -0.00338464
v -0.306739 -0.325358 0.00456224
v -0.307502 -0.442048 -0.0347591
v -0.313149 -0.442547 -0.020987
v -0.307966 -0.42856 -0.0191326
v -0.303173 -0.427819 -0.0331153
v -0.29774 -0.427115 -0.0466656
v -0.293783 -0.441957 -0.0611298
v -0.279641 -0.457591 -0.0868967
v -0.257823 -0.459097 -0.10817
v -0.203291 -0.433042 -0.138181
v -0.204923 -0.447944 -0.140222
v -0.190781 -0.448928 -0.146648
v -0.176038 -0.449858 -0.152202
v -0.174838 -0.434981 -0.149782
v -0.189241 -0.434056 -0.144309
v -0.187892 -0.419065 -0.142649
v -0.186783 -0.403891 -0.142327
v -0.201836 -0.418013 -0.136771
v -0.198513 -0.372397 -0.13645
v -0.199526 -0.387599 -0.136339
v -0.184691 -0.373527 -0.142276
v -0.197275 -0.357254 -0.136155
v -0.209124 -0.341041 -0.128631
v -0.223607 -0.355039 -0.121529
v -0.227893 -0.415901 -0.121791
v -0.226919 -0.400668 -0.121899
v -0.225921 -0.385424 -0.121927
v -0.240056 -0.414982 -0.113172
v -0.241727 -0.430084 -0.114237
v -0.253208 -0.429297 -0.104695
v -0.250644 -0.398815 -0.103731
v -0.248989 -0.368238 -0.103689
v -0.259802 -0.367468 -0.0930711
v -0.260585 -0.382755 -0.0931695
v -0.2613 -0.398057 -0.0932607
v -0.26215 -0.413353 -0.0935234
v -0.263984 -0.428562 -0.0943796
v -0.255867 -0.444193 -0.106707
v -0.266683 -0.443459 -0.0962847
v -0.27375 -0.427867 -0.0834804
v -0.282297 -0.427458 -0.0716716
v -0.280019 -0.396987 -0.0702143
v -0.280632 -0.412255 -0.0706869
v -0.279394 -0.381718 -0.069751
v -0.27106 -0.397422 -0.0821979
v -0.271879 -0.412714 -0.0825282
v -0.270376 -0.38214 -0.0817994
v -0.269662 -0.366846 -0.0815711
v -0.258699 -0.352249 -0.0925607
v -0.246184 -0.337946 -0.102256
v -0.247725 -0.353063 -0.103115
v -0.234465 -0.338877 -0.112014
v -0.236006 -0.354006 -0.112844
v -0.237323 -0.369183 -0.113324
v -0.23251 -0.323857 -0.110767
v -0.241557 -0.308204 -0.0988801
v -0.252037 -0.30764 -0.0875858
v -0.244368 -0.322909 -0.101065
v -0.254967 -0.322299 -0.08988
v -0.25699 -0.337205 -0.0913918
v -0.265007 -0.321834 -0.0780945
v -0.281597 -0.321972 -0.0518105
v -0.273777 -0.321739 -0.0653023
v -0.275971 -0.33657 -0.0670055
v -0.266877 -0.336776 -0.0795004
v -0.268595 -0.351768 -0.08081
v -0.277474 -0.351545 -0.0682328
v -0.285645 -0.351543 -0.0551244
v -0.292854 -0.351983 -0.0415023
v -0.291096 -0.337139 -0.0399079
v -0.28883 -0.322396 -0.038065
v -0.295371 -0.323177 -0.024039
v -0.301426 -0.324115 -0.00980355
v -0.303345 -0.339072 -0.0117152
v -0.304608 -0.354017 -0.0132411
v -0.300098 -0.382936 -0.0297491
v -0.300316 -0.398003 -0.0307192
v -0.294449 -0.397144 -0.044416
v -0.294989 -0.412283 -0.0452668
v -0.287201 -0.381598 -0.056964
v -0.294149 -0.382035 -0.0435478
v -0.287643 -0.3968 -0.0576353
v -0.29909 -0.352873 -0.0274736
v -0.299742 -0.367881 -0.0286515
v -0.30499 -0.369042 -0.0145289
v -0.308874 -0.340293 0.00254004
v -0.29202 -0.308667 -0.0215937
v -0.285705 -0.307907 -0.0357732
v -0.281178 -0.293941 -0.0327955
v -0.287399 -0.294568 -0.0186995
v -0.293607 -0.295194 -0.00460404
v -0.269241 -0.279755 -0.0436728
v -0.275487 -0.280181 -0.0296562
v -0.267034 -0.293004 -0.0604162
v -0.261925 -0.279461 -0.0572196
v -0.262133 -0.307212 -0.0759477
v -0.256765 -0.265972 -0.054359
v -0.244764 -0.23894 -0.0487383
v -0.256341 -0.253192 -0.0374536
v -0.309591 -0.355347 0.00103822
v -0.25176 -0.242191 -0.0199361
v -0.260686 -0.254334 -0.0230861
v -0.268656 -0.267036 -0.0264417
v -0.273522 -0.268112 -0.0120626
v -0.281385 -0.280911 -0.015512
v -0.286623 -0.28198 -0.00124119
v -0.24923 -0.240238 -0.0345755
v -0.312939 -0.371976 0.014379
v -0.250714 -0.252585 -0.0513705
v -0.270836 -0.307215 -0.0631181
v -0.262846 -0.266489 -0.0405145
v -0.299019 -0.296232 0.00966917
v -0.30387 -0.310519 0.00683376
v -0.297822 -0.309554 -0.00730994
v -0.297616 -0.337935 -0.0259003
v -0.286687 -0.366456 -0.0562182
v -0.293557 -0.366999 -0.042561
v -0.278563 -0.366513 -0.0692251
v -0.283958 -0.336709 -0.0536397
v -0.274553 -0.293402 -0.0468051
v -0.278387 -0.307545 -0.0495056
v -0.248674 -0.293158 -0.0850224
v -0.258127 -0.293043 -0.0730269
v -0.207142 -0.326088 -0.127401
v -0.220154 -0.324906 -0.119711
v -0.138562 -0.33116 -0.15275
v -0.152597 -0.33022 -0.148899
v -0.166632 -0.329279 -0.145047
v -0.124396 -0.331678 -0.155854
v -0.0955623 -0.332308 -0.160343
v -0.110094 -0.332009 -0.158321
v -0.308987 -0.385489 -0.00117618
v -0.0660229 -0.332527 -0.163251
v -0.0663573 -0.347587 -0.164317
v -0.0961314 -0.347346 -0.161626
v -0.11085 -0.347086 -0.159554
v -0.111472 -0.362164 -0.160326
v -0.0966707 -0.362415 -0.162347
v -0.0971596 -0.377472 -0.162595
v -0.0817173 -0.362527 -0.163734
v -0.0667322 -0.362625 -0.164878
v -0.0516965 -0.362587 -0.16545
v -0.0514063 -0.34754 -0.165116
v -0.0520251 -0.377611 -0.165518
v -0.0371033 -0.392409 -0.165616
v -0.0371505 -0.407356 -0.165451
v -0.0523838 -0.407563 -0.165303
v -0.0984211 -0.422681 -0.163496
v -0.113698 -0.422527 -0.161785
v -0.129009 -0.422241 -0.159679
v -0.126973 -0.376982 -0.158338
v -0.127663 -0.392074 -0.158501
v -0.128352 -0.407166 -0.158664
v -0.142491 -0.391444 -0.155471
v -0.143267 -0.406572 -0.155626
v -0.158096 -0.405758 -0.151993
v -0.17361 -0.420009 -0.148006
v -0.158962 -0.420858 -0.152462
v -0.144908 -0.436526 -0.158294
v -0.129418 -0.43723 -0.161373
v -0.0676371 -0.422612 -0.16559
v -0.0522653 -0.422519 -0.165825
v -0.0674925 -0.437546 -0.166684
v -0.0829167 -0.437623 -0.166248
v -0.11398 -0.437505 -0.163631
v -0.0830258 -0.422653 -0.164823
v -0.0983955 -0.43763 -0.165268
v -0.160926 -0.450703 -0.156756
v -0.160029 -0.435827 -0.154529
v -0.157179 -0.390633 -0.151788
v -0.171614 -0.389733 -0.147437
v -0.172626 -0.404899 -0.147624
v -0.170607 -0.374561 -0.147423
v -0.169462 -0.359431 -0.147083
v -0.154178 -0.345197 -0.150835
v -0.155246 -0.360335 -0.151432
v -0.139825 -0.346128 -0.15432
v -0.12623 -0.36187 -0.158139
v -0.156209 -0.375481 -0.151734
v -0.14081 -0.361207 -0.155139
v -0.141726 -0.376314 -0.155346
v -0.112719 -0.392374 -0.160838
v -0.113263 -0.407454 -0.160965
v -0.0975721 -0.392528 -0.162564
v -0.0825159 -0.392646 -0.163964
v -0.0828815 -0.407705 -0.164137
v -0.0671155 -0.377671 -0.164982
v -0.0821397 -0.377579 -0.163926
v -0.144085 -0.42161 -0.156419
v -0.0980801 -0.407597 -0.162653
v -0.0674033 -0.392672 -0.164916
v -0.0676535 -0.407641 -0.164742
v -0.0369791 -0.422357 -0.165841
v -0.300453 -0.412991 -0.0317815
v -0.0521863 -0.392586 -0.165394
v -0.112041 -0.377272 -0.160661
v -0.0812767 -0.347511 -0.163234
v -0.080908 -0.332477 -0.162051
v -0.125374 -0.34673 -0.157103
v -0.168211 -0.344312 -0.146412
v -0.288306 -0.412039 -0.0582521
v -0.249812 -0.383525 -0.103773
v -0.251572 -0.41411 -0.103769
v -0.244106 -0.44498 -0.116322
v -0.229569 -0.430966 -0.123072
v -0.21677 -0.431955 -0.131025
v -0.238139 -0.384448 -0.113192
v -0.239099 -0.39973 -0.113244
v -0.21195 -0.371286 -0.129662
v -0.22491 -0.370204 -0.121952
v -0.222061 -0.339927 -0.120794
v -0.195687 -0.342173 -0.135265
v -0.210655 -0.356138 -0.129314
v -0.182059 -0.343312 -0.141212
v -0.183456 -0.35839 -0.141913
v -0.212984 -0.386492 -0.12961
v -0.21403 -0.401701 -0.129586
v -0.215185 -0.416881 -0.129824
v -0.200553 -0.402805 -0.136267
v -0.185726 -0.388704 -0.1423
v -0.218683 -0.446881 -0.133187
v -0.231636 -0.445884 -0.124985
v -0.269106 -0.458348 -0.097862
v -0.277055 -0.44277 -0.0854495
v -0.285945 -0.44222 -0.0736399
v -0.290205 -0.427205 -0.0592793
v -0.301478 -0.441691 -0.0483741
v -0.317449 -0.443124 -0.00652622
v -0.311549 -0.429584 -0.00474456
f 1 5 4 2
f 4 15 127 3
f 5 100 15 4
f 1 12 6 5
f 6 114 100 5
f 122 7 114 6
f 122 13 146 7
f 146 8 99 7
f 99 89 114 7
f 146 11 9 8
f 9 91 90 8
f 90 98 99 8
f 11 14 10 9
f 10 208 91 9
f 14 243 18 10
f 18 19 208 10
f 241 20 19 16
f 19 18 17 16
f 18 243 242 17
f 20 93 208 19
f 241 21 240 20
f 240 215 93 20
f 239 55 240 21
f 237 53 238 22
f 52 53 237 23
f 220 235 25 24
f 25 26 29 24
f 29 30 32 24
f 32 232 220 24
f 27 28 29 26
f 182 183 28 27
f 183 172 171 28
f 171 30 29 28
f 171 186 31 30
f 31 233 32 30
f 186 185 234 31
f 234 34 233 31
f 233 231 232 32
f 223 230 34 33
f 34 234 35 33
f 35 229 36 33
f 36 227 223 33
f 230 231 233 34
f 234 185 187 35
f 187 188 229 35
f 229 228 226 36
f 226 37 227 36
f 225 38 227 37
f 138 139 225 37
f 67 68 224 38
f 224 223 227 38
f 225 66 67 38
f 42 43 219 39
f 219 220 232 39
f 232 231 40 39
f 40 222 42 39
f 231 230 41 40
f 41 221 222 40
f 230 223 224 41
f 224 68 221 41
f 217 44 43 42
f 222 45 217 42
f 44 52 218 43
f 218 236 219 43
f 51 53 52 44
f 217 50 51 44
f 49 50 217 45
f 222 221 216 45
f 216 48 49 45
f 47 48 216 46
f 216 221 68 46
f 68 67 65 46
f 65 63 47 46
f 62 61 48 47
f 63 80 62 47
f 61 59 49 48
f 59 60 50 49
f 60 54 51 50
f 54 238 53 51
f 55 239 238 54
f 60 57 55 54
f 57 215 240 55
f 96 215 57 56
f 57 60 59 56
f 59 61 58 56
f 58 94 96 56
f 61 62 132 58
f 132 130 94 58
f 80 81 132 62
f 65 64 74 63
f 74 79 80 63
f 65 67 66 64
f 66 69 72 64
f 72 73 74 64
f 225 139 69 66
f 71 73 72 70
f 110 75 73 71
f 136 137 110 71
f 75 79 74 73
f 77 78 79 75
f 110 124 77 75
f 85 84 133 76
f 133 78 77 76
f 77 124 135 76
f 135 102 85 76
f 133 82 81 78
f 81 80 79 78
f 82 130 132 81
f 83 131 130 82
f 133 84 83 82
f 97 98 131 83
f 84 129 97 83
f 85 86 129 84
f 102 101 86 85
f 87 88 129 86
f 101 128 87 86
f 15 100 88 87
f 128 127 15 87
f 100 114 89 88
f 89 97 129 88
f 99 98 97 89
f 91 92 95 90
f 95 131 98 90
f 208 93 92 91
f 93 215 96 92
f 96 94 95 92
f 130 131 95 94
f 102 103 104 101
f 104 105 128 101
f 135 134 103 102
f 134 106 107 103
f 107 119 104 103
f 119 120 105 104
f 126 127 128 105
f 134 108 109 106
f 109 111 125 106
f 125 117 107 106
f 117 118 119 107
f 134 135 124 108
f 124 110 137 108
f 123 113 125 111
f 121 113 123 112
f 116 117 125 113
f 121 115 116 113
f 141 189 191 140
f 191 213 143 140
f 142 214 189 141
f 213 150 145 143
f 145 150 149 144
f 149 211 212 144
f 212 211 148 147
f 211 154 155 148
f 155 156 157 148
f 150 151 152 149
f 152 154 211 149
f 213 192 151 150
f 192 165 210 151
f 210 153 152 151
f 153 202 154 152
f 210 196 198 153
f 198 199 202 153
f 202 201 155 154
f 201 158 156 155
f 201 205 209 158
f 209 161 160 159
f 161 176 207 160
f 206 175 176 161
f 209 205 206 161
f 163 179 181 162
f 181 178 180 162
f 180 200 204 162
f 204 197 163 162
f 164 174 179 163
f 197 167 164 163
f 203 173 174 164
f 167 169 203 164
f 195 168 166 165
f 166 196 210 165
f 192 194 195 165
f 168 169 167 166
f 167 197 196 166
f 184 170 169 168
f 195 193 184 168
f 170 172 203 169
f 186 171 172 170
f 184 185 186 170
f 183 173 203 172
f 180 178 177 175
f 206 200 180 175
f 193 187 185 184
f 193 190 188 187
f 190 189 214 188
f 214 228 229 188
f 190 194 191 189
f 193 195 194 190
f 194 192 213 191
f 197 204 198 196
f 204 200 199 198
f 200 206 205 199
f 205 201 202 199
f 236 235 220 219
