v -0.326449 -0.425223 0.117852
v -0.364712 -0.426736 0.0611296
v -0.334302 -0.418487 0.101681
v -0.322201 -0.430557 0.120694
v -0.320001 -0.427417 0.1168
v -0.360625 -0.424608 0.0590091
v -0.360449 -0.4279 0.0536675
v -0.352946 -0.426142 0.0537756
v -0.354894 -0.428901 0.0504314
v -0.356542 -0.4331 0.047585
v -0.35819 -0.437298 0.0447386
v -0.365286 -0.43347 0.0538766
v -0.36144 -0.432363 0.0504318
v -0.365512 -0.439247 0.0522424
v -0.362022 -0.438139 0.0483195
v -0.365776 -0.444777 0.0506093
v -0.362577 -0.443452 0.0463419
v -0.354951 -0.421982 0.0610969
v -0.349818 -0.423701 0.0585814
v -0.346983 -0.422138 0.0628581
v -0.35655 -0.418409 0.0687209
v -0.351789 -0.420253 0.0657606
v -0.319622 -0.425653 0.112052
v -0.345069 -0.420812 0.067
v -0.319021 -0.422266 0.10784
v -0.344566 -0.418732 0.0729316
v -0.327228 -0.420599 0.102766
v -0.342359 -0.419887 0.0704852
v -0.345515 -0.414953 0.0956695
v -0.347891 -0.414789 0.0912252
v -0.344103 -0.416233 0.0877714
v -0.34367 -0.415772 0.0925474
v -0.343002 -0.415528 0.0961369
v -0.349239 -0.418222 0.0722515
v -0.35877 -0.417463 0.0759388
v -0.331118 -0.421692 0.114385
v -0.351046 -0.422887 0.104802
v -0.351645 -0.422416 0.103696
v -0.350231 -0.422097 0.105922
v -0.335672 -0.418616 0.0871427
v -0.35083 -0.421627 0.104816
v -0.329577 -0.418731 0.0903969
v -0.326016 -0.418502 0.0946269
v -0.322251 -0.418269 0.0989135
v -0.318072 -0.418482 0.102835
v -0.305292 -0.421168 0.114643
v -0.309428 -0.421419 0.112426
v -0.313563 -0.42167 0.110208
v -0.337096 -0.418382 0.0858848
v -0.365345 -0.432207 0.0553842
v -0.334071 -0.428503 0.121442
v -0.346896 -0.418726 0.106801
v -0.310607 -0.424984 0.116613
v -0.312323 -0.428503 0.12044
v -0.306639 -0.424706 0.118695
v -0.343601 -0.420324 0.110806
v -0.340158 -0.421992 0.114806
v -0.308385 -0.427923 0.122848
v -0.302024 -0.424032 0.121098
v -0.303316 -0.427171 0.125306
v -0.336545 -0.424364 0.118648
v -0.329498 -0.425939 0.120009
v -0.332336 -0.419623 0.109847
v -0.334497 -0.418138 0.106535
f 6 7 50 2
f 36 1 3 27
f 8 9 7 6
f 18 19 8 6
f 9 10 13 7
f 11 15 13 10
f 13 15 14 12
f 15 17 16 14
f 22 20 19 18
f 3 63 36 27
f 23 25 3 5
f 3 52 64 63
f 36 63 57 61
f 36 61 51 62
f 36 62 4 1
f 5 3 1 4
f 3081329009 21928 3382995745 32620
f 25 23 5 48
f 48 5 53 47
f 25 48 45 44
f 3 25 44 43
f 40 49 31 32
f 3 43 42 33
f 42 40 32 33
f 32 31 30 29
f 34 26 28 24
f 68 96 70 73
f 22 34 24 20
f 35 26 34 21
f 47 53 55 46
f 39 41 38 37
f 63 64 56 57
f 58 60 59 55
f 54 58 55 53
