# https://github.com/mikedh/trimesh
v -0.22609349 -0.10864475 0.01462200
v -0.19632650 -0.14987300 0.05244450
v -0.23630100 -0.11474900 0.00657400
v -0.22619900 -0.12634800 0.02177400
v -0.21778800 -0.13776900 0.03407000
v -0.21503299 -0.14080700 0.03761300
v -0.20942200 -0.14172575 0.04193475
v -0.07738987 -0.34747051 0.11666738
v -0.09465300 -0.33707100 0.12120200
v -0.11264200 -0.32771501 0.12494200
v -0.13448201 -0.31364599 0.12671000
v -0.12159100 -0.32263601 0.12615100
v -0.14951499 -0.29999201 0.12445850
v 0.11297150 -0.35671274 0.11456575
v 0.09666800 -0.36465499 0.11127900
v 0.08453050 -0.37370450 0.10847100
v 0.11254600 -0.39592150 0.10846200
v 0.12197400 -0.34783900 0.11708500
v 0.14668601 -0.33542175 0.12109625
v -0.07727887 -0.39685138 0.10994087
v -0.02477250 -0.40295775 0.10938050
v -0.00608100 -0.40085599 0.10866600
v -0.01332900 -0.40242499 0.10915400
v 0.02769375 -0.39966300 0.10859700
v 0.07228650 -0.40098375 0.10941075
v 0.10943100 -0.40084901 0.10913500
v 0.11489050 -0.39888251 0.10872100
v -0.05132900 -0.37605801 0.10856600
v -0.21561000 -0.24503800 0.04845500
v -0.22161700 -0.25457651 0.06480200
v -0.22072600 -0.26091000 0.07975300
v -0.21537600 -0.24002050 0.04101200
v -0.21387213 -0.26684031 0.09268675
v -0.20975944 -0.22878013 0.03306019
v -0.20552001 -0.27445500 0.10607100
v -0.18647499 -0.28217199 0.11460800
v -0.17327100 -0.28805800 0.11908400
v -0.19299787 -0.20660293 0.04238617
v -0.20407725 -0.21601824 0.03075700
v -0.17652500 -0.19923501 0.05882900
v -0.16974350 -0.19480025 0.06500725
v -0.15724248 -0.18423140 0.07385457
v -0.16121200 -0.17217900 0.07364100
v -0.17851250 -0.16078900 0.06476000
v -0.05271300 -0.34231400 0.11065350
v -0.14635883 -0.17104976 0.04289210
v -0.14409876 -0.17945934 0.04277863
v -0.14592203 -0.16893682 0.06028691
v -0.14382011 -0.17346705 0.06642188
v -0.15103473 -0.16182178 0.03942013
v -0.14913339 -0.16377875 0.05948526
v -0.15527531 -0.15503830 0.03596598
v -0.14511578 -0.16947708 0.02696878
v -0.15909034 -0.15004824 0.04019392
v -0.15589200 -0.15305600 0.03105000
v -0.13874942 -0.17943094 0.02673472
v -0.15950242 -0.14756500 0.02981248
v -0.14316763 -0.17725697 0.03829781
v -0.13481250 -0.18527378 0.02776065
v -0.16586214 -0.14024618 0.03325993
v -0.14453700 -0.17576499 0.04192400
v -0.15746743 -0.14740095 0.02340674
v -0.14489026 -0.17187017 0.06948053
v -0.14815167 -0.16583743 0.06470585
v -0.12809727 -0.19495864 0.03315823
v -0.16892688 -0.13860720 0.03828280
v -0.14468415 -0.17092675 0.06426348
v -0.16845360 -0.13208621 0.02441752
v -0.16332593 -0.15048902 0.05790463
v -0.16315760 -0.14583193 0.04379882
v -0.11921686 -0.20223743 0.03275568
v -0.17606438 -0.12407706 0.02528367
v -0.14407255 -0.17534472 0.07102111
v -0.17744138 -0.13190058 0.03749873
v -0.12555850 -0.19904550 0.03925900
v -0.12043361 -0.20274380 0.03850286
v -0.11190000 -0.20764300 0.03518100
v -0.11743000 -0.20524199 0.04105000
v -0.12261900 -0.19755100 0.02814500
v -0.11560125 -0.20568037 0.03756400
v -0.12730925 -0.19668075 0.03779225
v -0.14052150 -0.17062300 0.02085450
v -0.15729229 -0.15469157 0.05851387
v -0.14278417 -0.18606917 0.04401345
v -0.14426850 -0.18037350 0.04591350
v -0.14481500 -0.17754400 0.05033300
v -0.14063302 -0.17324937 0.02273730
v -0.12670200 -0.19302550 0.02691525
v -0.15322946 -0.16116359 0.06497485
v -0.13325900 -0.19149201 0.03750800
v -0.16672924 -0.13056111 0.02052993
v -0.15328897 -0.15188802 0.02129237
v -0.13802825 -0.18731550 0.03855825
v -0.14412899 -0.18519300 0.04673900
v -0.14813450 -0.17121250 0.07219900
v -0.17589338 -0.13622499 0.04352773
v -0.13323350 -0.18331900 0.02374900
v -0.14295250 -0.19150301 0.04591300
v -0.17574501 -0.12139050 0.02222550
v -0.16353800 -0.13367825 0.01937450
v -0.18071100 -0.11943700 0.02453700
v -0.18414550 -0.12435188 0.03263625
v -0.14225451 -0.16825250 0.02085750
v -0.15286601 -0.16569901 0.07019400
v -0.18348663 -0.12266250 0.02989075
v -0.17740400 -0.13791201 0.04718900
v -0.16435150 -0.15315351 0.06214250
v -0.18220149 -0.13168851 0.04053900
v -0.15388118 -0.19851996 0.06089947
v -0.15664384 -0.20025085 0.06152341
v -0.14749941 -0.18850468 0.06851685
v -0.15397059 -0.20144152 0.05706710
v -0.15387697 -0.20421952 0.05519781
v -0.14765884 -0.18730919 0.07120676
v -0.15044564 -0.19715468 0.05569979
v -0.14937935 -0.19390038 0.05790362
v -0.14577436 -0.18648956 0.06713906
v -0.14437422 -0.18322705 0.06999073
v -0.14611963 -0.18733794 0.05549592
v -0.14454173 -0.18175073 0.05642180
v -0.14520480 -0.18682948 0.04955985
v -0.14678303 -0.19249307 0.05128118
v -0.14468653 -0.18207146 0.04944904
v -0.14444942 -0.18150070 0.07245411
v -0.14839401 -0.19882078 0.05185239
v -0.15277299 -0.20661899 0.05312200
v -0.15681601 -0.20717099 0.05537500
v -0.15330650 -0.19247449 0.06878300
v 0.12561050 -0.19409201 0.02662500
v 0.13368313 -0.18032225 0.01862713
v 0.15256237 -0.14649438 0.01070725
v 0.17067551 -0.11603450 0.01145350
v 0.12319706 -0.19452213 0.02372220
v 0.10745050 -0.20764476 0.03072525
v 0.11073106 -0.20447440 0.02690977
v 0.09613618 -0.21305768 0.03039834
v 0.09739042 -0.21061319 0.02762784
v 0.10701535 -0.20452336 0.02468759
v 0.09932696 -0.20701054 0.02431726
v 0.12013429 -0.19417172 0.02068347
v 0.13066398 -0.18368863 0.01857623
v 0.09071445 -0.20868764 0.02434844
v 0.07757788 -0.21664185 0.02886832
v 0.13112437 -0.16877934 0.01054537
v 0.14052506 -0.15899480 0.00937291
v 0.15801670 -0.12352326 0.00651665
v 0.15252089 -0.14159183 0.00837271
v 0.13769411 -0.17009821 0.01293427
v -0.04461220 -0.23011452 0.04163584
v -0.06566447 -0.22473422 0.03653818
v -0.03176945 -0.23097989 0.04006929
v -0.07784691 -0.21982128 0.03263819
v -0.02304845 -0.23000652 0.03769757
v -0.05611246 -0.22559681 0.03543619
v -0.04941868 -0.22451043 0.03380164
v 0.01541800 -0.23032799 0.03814600
v 0.03078053 -0.22899144 0.03699378
v -0.03368600 -0.22685400 0.03519500
v -0.03797401 -0.22466450 0.03357717
v -0.07453440 -0.21646663 0.02895032
v -0.08808351 -0.21421929 0.02901446
v 0.06314541 -0.21794868 0.02920870
v 0.00875887 -0.22764652 0.03542557
v 0.00112426 -0.21968125 0.03186171
v 0.09118211 -0.20446618 0.02207730
v 0.10214285 -0.19969055 0.02007319
v -0.09014536 -0.21013198 0.02646425
v -0.09575422 -0.21130030 0.02828292
v -0.00176110 -0.22250338 0.03286433
v -0.10133585 -0.20578105 0.02531736
v -0.11309565 -0.19655344 0.02241914
v 0.03989802 -0.22218405 0.03193334
v -0.04510140 -0.22017168 0.03118432
v 0.11083630 -0.19434811 0.01831022
v -0.10406959 -0.20114389 0.02354807
v 0.12367533 -0.18527569 0.01599020
v -0.06916607 -0.21417077 0.02798248
v 0.10515924 -0.19239773 0.01723591
v 0.08270538 -0.20447143 0.02269840
v -0.11001737 -0.20089195 0.02413899
v 0.10804057 -0.19957144 0.02082698
v 0.12923812 -0.17545035 0.01254577
v 0.04790543 -0.20975210 0.02757048
v 0.12249286 -0.17902174 0.01288690
v -0.12796018 -0.17858793 0.01900474
v -0.12142210 -0.19062244 0.02139521
v -0.10732353 -0.20710591 0.02801365
v -0.13441224 -0.17424952 0.01906530
v -0.13259404 -0.18104757 0.02139341
v -0.11661683 -0.20083516 0.02658474
v -0.19276512 -0.13647696 0.04633745
v -0.20889280 -0.12557822 0.03319568
v -0.18386848 -0.15184731 0.05894074
v -0.18186125 -0.15359586 0.06082764
v -0.16122064 -0.16867006 0.07273514
v -0.15590558 -0.17299684 0.07476155
v -0.14958369 -0.17877986 0.07557247
v -0.15396556 -0.17048822 0.07404371
v -0.15090801 -0.18502152 0.07416014
v -0.14817864 -0.17511937 0.07489705
v -0.16836150 -0.15952673 0.06741833
v -0.16091948 -0.16456030 0.07102122
v -0.15974983 -0.16244251 0.06942459
v -0.16674648 -0.15580408 0.06548903
v -0.17309159 -0.15812004 0.06568716
v -0.16511368 -0.19358886 0.06760462
v -0.18070117 -0.14788689 0.05751268
v -0.19364359 -0.14047846 0.04899633
v -0.18539114 -0.13949844 0.05012441
v -0.19015811 -0.12296560 0.03303325
v -0.16040651 -0.19312796 0.06906448
v -0.19699983 -0.12284895 0.03347279
v -0.18127471 -0.13665897 0.04698327
v -0.15605394 -0.19231160 0.06959887
v -0.16368178 -0.20499276 0.05889148
v -0.16313124 -0.21324908 0.05341718
v -0.16569836 -0.21121027 0.05429349
v -0.15963330 -0.21272282 0.05375939
v -0.16011130 -0.20792047 0.05619007
v -0.16862350 -0.21533458 0.05197235
v -0.17077909 -0.21054706 0.05323651
v -0.17937949 -0.21279592 0.04836551
v -0.18554600 -0.21094424 0.04580170
v -0.17549528 -0.21035707 0.05150123
v -0.17674289 -0.20272310 0.05638298
v -0.11307659 -0.19278669 0.02117801
v -0.08897059 -0.20492779 0.02431708
v -0.11749023 -0.18673515 0.01986055
v -0.07498599 -0.20936939 0.02624596
v -0.05494180 -0.20812483 0.02723029
v -0.11438208 -0.18311522 0.01950311
v -0.01379268 -0.21694327 0.03090917
v 0.01757432 -0.21743527 0.03090844
v 0.00564136 -0.21163644 0.02996041
v -0.12715140 -0.17352014 0.01781049
v 0.09238415 -0.15994429 0.01842147
v 0.10185420 -0.13747322 0.01836997
v 0.11931210 -0.09512756 0.01970231
v 0.15273899 -0.07059866 0.01193974
v 0.14772005 -0.08179814 0.01138519
v 0.14195268 -0.07538369 0.01462900
v 0.03945423 -0.21762245 0.03009997
v 0.04885763 -0.21464982 0.02863176
v 0.05496463 -0.20152553 0.02552128
v 0.07347035 -0.19994676 0.02283636
v 0.06586439 -0.17768653 0.02315437
v 0.09995883 -0.19363779 0.01799856
v 0.12402663 -0.17137586 0.01087330
v 0.13041269 -0.16386883 0.00922276
v 0.13683997 -0.15743396 0.00819906
v 0.13903409 -0.14310861 0.00636390
v 0.15045844 -0.12802579 0.00573765
v 0.14376361 -0.13928367 0.00600039
v 0.12001868 -0.17424880 0.01155922
v 0.13041797 -0.15886119 0.00828785
v 0.15183332 -0.13420841 0.00644647
v 0.15219605 -0.11751433 0.00563076
v 0.14441047 -0.14601333 0.00690426
v 0.15995187 -0.10883758 0.00602977
v 0.11173756 -0.17988900 0.01367905
v 0.14811836 -0.11850043 0.00590397
v 0.16744800 -0.09648500 0.00741600
v 0.16002127 -0.09421438 0.00687383
v 0.07738637 -0.18752581 0.02098229
v 0.08869478 -0.18687822 0.01866530
v 0.14108001 -0.12865633 0.00632237
v -0.17979040 -0.10911279 0.01816396
v 0.06121736 -0.19203076 0.02389049
v 0.10478889 -0.17490908 0.01452625
v 0.16681577 -0.06388894 0.01054121
v 0.16496498 -0.11208462 0.00732104
v 0.12982935 -0.14967425 0.00796984
v 0.15834383 -0.08463328 0.00832305
v 0.08202200 -0.16906600 0.02035200
v 0.16772075 -0.08352875 0.00809925
v 0.08135817 -0.18025747 0.02009123
v 0.09821022 -0.17133215 0.01617106
v 0.08369329 -0.17340899 0.01975153
v 0.11857069 -0.15777387 0.01079749
v 0.13665867 -0.12759198 0.00754115
v 0.11679205 -0.15301987 0.01155131
v 0.13543886 -0.12376795 0.00835402
v 0.11912675 -0.13475479 0.01286719
v 0.13229209 -0.12520640 0.00920180
v 0.14025352 -0.11526002 0.00788362
v 0.11373078 -0.12895718 0.01570847
v 0.15162262 -0.10167936 0.00692058
v 0.14622192 -0.11265857 0.00663780
v 0.17121799 -0.09967900 0.00851700
v 0.14486140 -0.09646028 0.00949414
v -0.18735146 -0.10486523 0.01898021
v -0.19553670 -0.10778695 0.02228192
v -0.20449201 -0.11008960 0.02370252
v -0.18392162 -0.11310687 0.02159168
v -0.21622361 -0.11155664 0.02154934
v -0.21115980 -0.11227293 0.02376267
v -0.19108237 -0.10996021 0.02249949
v -0.20635822 -0.11504068 0.02659598
v -0.19110583 -0.11744136 0.02771983
v 0.17294424 -0.10762675 0.01052900
v -0.21566533 -0.11682140 0.02458037
v -0.20353235 -0.12251411 0.03259923
v -0.19870724 -0.11329098 0.02597908
v 0.16334617 -0.12328609 0.00886090
v -0.20237711 -0.13986750 0.04515308
v -0.20852976 -0.13896763 0.04134087
v -0.22235662 -0.11673314 0.02066461
v -0.22609298 -0.09757402 0.01075197
v -0.23168632 -0.10804628 0.00965047
v 0.07047750 -0.22419100 0.04360800
v 0.05316024 -0.22718095 0.03785297
v 0.06852311 -0.22416404 0.03840806
v 0.05588913 -0.22711524 0.03995798
v 0.04325368 -0.22964932 0.04171585
v 0.01896854 -0.23358645 0.04607501
v 0.02645226 -0.23152863 0.04073220
v 0.07628033 -0.22045229 0.03346850
v 0.03829862 -0.22708730 0.03520237
v 0.01402835 -0.23332370 0.04441716
v 0.01353040 -0.23202320 0.04034446
v 0.08791591 -0.21422731 0.02843873
v 0.05282681 -0.22384701 0.03330904
v 0.06154356 -0.22344497 0.03393521
v 0.08848200 -0.21749075 0.03686900
v 0.09929100 -0.21292700 0.03485000
v 0.03906870 -0.23134688 0.04718364
v 0.04548375 -0.23006525 0.05122600
v 0.02431800 -0.23293975 0.05125350
v 0.05697500 -0.22788400 0.05046550
v 0.00204214 -0.23440836 0.05494158
v 0.00839800 -0.23417051 0.05545050
v -0.01593747 -0.23373109 0.04580221
v -0.00535208 -0.23297729 0.04167797
v -0.00827650 -0.23463349 0.05686650
v -0.04393011 -0.23126520 0.05221947
v -0.03770087 -0.23219908 0.05544308
v -0.02498186 -0.23274504 0.04342578
v -0.02078415 -0.23394897 0.05634453
v -0.03396172 -0.23200255 0.04493044
v -0.05535625 -0.22908487 0.05231868
v -0.05071213 -0.23038356 0.05490370
v -0.05387718 -0.22882254 0.04362268
v -0.05470797 -0.22810607 0.04074602
v -0.06219100 -0.22785801 0.05342100
v -0.07030955 -0.22630151 0.05363917
v -0.07271459 -0.22438247 0.04161994
v -0.07606561 -0.22304259 0.03948525
v -0.07947696 -0.22310274 0.05070666
v -0.08708193 -0.21896449 0.03618287
v -0.08485517 -0.22200011 0.05169801
v -0.03047900 -0.23413600 0.05808600
v -0.07420426 -0.22709280 0.05578499
v -0.08791247 -0.22044579 0.05012004
v -0.09846029 -0.21542998 0.03994500
v -0.07348697 -0.22311208 0.03648270
v -0.09538652 -0.21494541 0.03267023
v -0.07689526 -0.22866884 0.05781474
v -0.10574011 -0.21261547 0.04653317
v -0.11457650 -0.20797276 0.04414700
v -0.10914848 -0.20842873 0.03207421
v -0.09629870 -0.21677208 0.04780963
v -0.11691623 -0.20896126 0.04647565
v -0.12477536 -0.20174458 0.04205325
v -0.09389969 -0.22003961 0.05221828
v -0.12503704 -0.20846333 0.04779583
v -0.10003140 -0.22676948 0.05817858
v -0.11849328 -0.21146962 0.04896945
v -0.12724733 -0.20387555 0.04486452
v -0.12018412 -0.21536842 0.05190245
v -0.04821710 -0.23464279 0.06030376
v -0.13168638 -0.20352992 0.04571716
v -0.09317941 -0.22544814 0.05696241
v -0.06551600 -0.23528400 0.06180700
v -0.13361681 -0.19362588 0.03960273
v -0.13434492 -0.20944883 0.04934937
v -0.13318855 -0.19761785 0.04245709
v -0.12094110 -0.19775463 0.02604089
v -0.13981817 -0.19334634 0.04364815
v -0.10922874 -0.22431948 0.05695633
v -0.05932479 -0.24056910 0.06428770
v -0.08286485 -0.23504317 0.06208361
v -0.05155100 -0.24008200 0.06378800
v -0.05867000 -0.24549550 0.06658700
v -0.10125106 -0.24781491 0.06844229
v -0.05998031 -0.25254079 0.07012417
v -0.03214148 -0.27218085 0.07910218
v -0.02403475 -0.27342924 0.07929150
v -0.05990606 -0.26275762 0.07565445
v -0.07504302 -0.25816287 0.07366262
v -0.13162616 -0.22925216 0.05831463
v -0.11910392 -0.23782110 0.06283501
v -0.09248778 -0.24348319 0.06614124
v -0.11856158 -0.24320194 0.06560163
v -0.10940694 -0.25536677 0.07329540
v -0.13446287 -0.26088503 0.07854695
v -0.08605931 -0.27006466 0.08268533
v -0.06965700 -0.27767700 0.08683000
v -0.06491099 -0.28390635 0.09127486
v -0.06988350 -0.26516080 0.07777886
v -0.09176623 -0.26267844 0.07764581
v -0.06064744 -0.26584518 0.07756811
v -0.05926425 -0.27373369 0.08271553
v -0.05945491 -0.27916637 0.08658747
v -0.10479206 -0.26689258 0.08206292
v -0.12297381 -0.26357618 0.08037267
v -0.04052848 -0.27627191 0.08228323
v -0.13657320 -0.24997394 0.06915231
v -0.12783042 -0.24858070 0.06868629
v -0.03264489 -0.28706114 0.08763116
v -0.02687539 -0.28705573 0.08687600
v -0.01518150 -0.29267199 0.08857750
v -0.11720142 -0.25465887 0.07292164
v -0.04323892 -0.28986602 0.09108287
v -0.05928912 -0.29269897 0.09660067
v -0.13470098 -0.25613676 0.07443073
v -0.16459158 -0.25125503 0.06859353
v -0.02648185 -0.29533371 0.09116850
v -0.03775865 -0.29522038 0.09311835
v -0.07619497 -0.28151770 0.09132559
v -0.07981354 -0.28772561 0.09792623
v -0.06359080 -0.29516490 0.09961932
v -0.14998053 -0.25763442 0.07571978
v -0.03439873 -0.30049397 0.09521032
v -0.04742981 -0.30327003 0.09989404
v -0.08969744 -0.29665237 0.10844102
v -0.10030147 -0.29930298 0.11367322
v -0.13892818 -0.29194946 0.11741739
v -0.13311851 -0.29722823 0.12016925
v -0.12140649 -0.29418176 0.11561949
v -0.10772522 -0.27239401 0.08799060
v -0.09751854 -0.27464773 0.08867857
v -0.11522355 -0.28911452 0.10916772
v -0.10747393 -0.26981863 0.08518597
v -0.08597502 -0.28405047 0.09597366
v -0.11163559 -0.28494813 0.10376059
v -0.14281300 -0.26283699 0.08089900
v -0.08898181 -0.30409931 0.11301519
v -0.14667454 -0.28480647 0.11142315
v -0.16552796 -0.28636462 0.11656646
v -0.16905221 -0.25512435 0.07227628
v -0.13217689 -0.26630262 0.08396932
v -0.14301394 -0.30170209 0.12430465
v -0.15608719 -0.24344981 0.06327741
v -0.17503689 -0.24432590 0.06097939
v -0.14078717 -0.23918358 0.06231318
v -0.14873482 -0.23566343 0.05960818
v -0.16280853 -0.24076196 0.06030661
v -0.12926378 -0.30388324 0.12283919
v -0.17253204 -0.25404164 0.07105657
v -0.11910992 -0.27766690 0.09640296
v -0.02362435 -0.29490275 0.09056908
v -0.17557412 -0.28059905 0.11128344
v -0.13075014 -0.27904957 0.10054404
v -0.15031505 -0.27716784 0.10204366
v -0.14760764 -0.26994598 0.09111052
v -0.15265688 -0.26330390 0.08212003
v -0.16906496 -0.27325507 0.09970852
v -0.17690239 -0.26965015 0.09465839
v -0.19931156 -0.26633284 0.09112092
v -0.19555700 -0.26387900 0.08606400
v -0.18102370 -0.26207759 0.08214282
v -0.16557445 -0.26718051 0.08916793
v -0.19514570 -0.27557508 0.10716903
v -0.05739550 -0.30250586 0.10226103
v -0.16810536 -0.24170490 0.05992522
v -0.11811288 -0.30225391 0.11995587
v -0.06342271 -0.30869262 0.10721334
v -0.13397696 -0.21968924 0.05405400
v -0.18102614 -0.24921920 0.06446288
v -0.19281395 -0.25907229 0.07735604
v -0.00860950 -0.29719299 0.09003550
v -0.17777533 -0.23656083 0.05349147
v -0.11074859 -0.30242606 0.11835079
v -0.18500755 -0.25707785 0.07430956
v -0.01875668 -0.30553204 0.09455073
v -0.08054178 -0.31223615 0.11410213
v -0.03018324 -0.30825478 0.09768627
v -0.14296657 -0.21462899 0.05197236
v -0.12538188 -0.30763112 0.12358323
v -0.00068050 -0.30602750 0.09296950
v -0.13991662 -0.20656402 0.04879627
v -0.09916065 -0.31015653 0.11855609
v -0.19004153 -0.25742530 0.07460269
v -0.19513514 -0.24812986 0.06024355
v -0.19783683 -0.24266634 0.05257774
v -0.01406213 -0.31292954 0.09651064
v -0.14869149 -0.21629642 0.05267549
v -0.15308369 -0.22220193 0.05394052
v -0.00685315 -0.30580402 0.09329622
v -0.15339251 -0.22849910 0.05579242
v -0.02327202 -0.31344004 0.09809599
v -0.20321132 -0.24560889 0.05450903
v -0.04244472 -0.31030757 0.10157419
v -0.03938937 -0.31810416 0.10338946
v -0.14677961 -0.20887722 0.05092295
v -0.18914051 -0.23331672 0.04714006
v -0.13215574 -0.30912642 0.12535469
v -0.11156897 -0.31028198 0.12160657
v -0.16302966 -0.23363847 0.05613195
v -0.17234842 -0.23488883 0.05420380
v 0.01825550 -0.31046401 0.09444600
v -0.20202388 -0.23511220 0.04281624
v -0.02698690 -0.32181247 0.10117208
v -0.00389746 -0.32380921 0.09844992
v 0.02976400 -0.30778550 0.09437750
v 0.02143997 -0.31833437 0.09671201
v 0.05102875 -0.30359887 0.09605175
v 0.04626042 -0.31188435 0.09806303
v 0.05637704 -0.30806294 0.09870207
v -0.05657025 -0.31863526 0.10851770
v -0.01440914 -0.32513163 0.09984054
v 0.00320045 -0.31756213 0.09647159
v 0.02345317 -0.32210376 0.09787211
v 0.01852554 -0.33036196 0.09942058
v 0.03057544 -0.31976820 0.09792114
v -0.19402376 -0.25392829 0.06895083
v -0.20728964 -0.25107378 0.06180102
v -0.21186811 -0.25416203 0.06614116
v -0.00544406 -0.33359950 0.10049253
v 0.07312350 -0.30674799 0.10227650
v -0.09480231 -0.31577284 0.11922229
v -0.11831983 -0.31832798 0.12500256
v -0.02267157 -0.32999070 0.10212647
v -0.13948165 -0.19897387 0.04602678
v -0.10942721 -0.31880224 0.12342877
v -0.08338217 -0.31990669 0.11701737
v 0.02790181 -0.33319201 0.10046231
v 0.06965086 -0.31131388 0.10298805
v 0.09955350 -0.30693799 0.10961600
v 0.05070300 -0.31905800 0.10080400
v 0.03939234 -0.32467963 0.10021599
v -0.20843681 -0.23808280 0.04251827
v -0.01491000 -0.33101001 0.10107400
v 0.00458751 -0.33530447 0.10023180
v -0.15863556 -0.22057387 0.05296941
v -0.20992509 -0.25816373 0.07458164
v -0.03039725 -0.33135438 0.10403973
v -0.17314347 -0.23029845 0.05167240
v -0.19598688 -0.22928982 0.04116643
v 0.00909500 -0.33671799 0.10033000
v -0.01254100 -0.33469000 0.10140100
v -0.16697588 -0.22729663 0.05259306
v 0.09810936 -0.31446219 0.11163065
v 0.11685050 -0.31637600 0.11620900
v 0.04348600 -0.32430100 0.10075700
v 0.05735058 -0.32585249 0.10368188
v 0.05913410 -0.31911334 0.10255980
v -0.02595851 -0.33575976 0.10371642
v 0.00523699 -0.35015499 0.10213358
v -0.00946250 -0.34740355 0.10267418
v -0.09251721 -0.32507548 0.12019440
v 0.01431363 -0.34390671 0.10133777
v 0.03553104 -0.33372318 0.10129978
v -0.03701165 -0.33513592 0.10620616
v -0.05634367 -0.33732442 0.11141716
v 0.05218807 -0.32639512 0.10270281
v -0.02237343 -0.34066958 0.10369454
v 0.04378006 -0.33373806 0.10247775
v -0.01897935 -0.34841585 0.10391515
v -0.15405908 -0.21633547 0.05276230
v 0.02059988 -0.35242862 0.10235440
v 0.03058585 -0.33717926 0.10127475
v -0.20066901 -0.23002100 0.03917000
v -0.04974816 -0.32536191 0.10812308
v -0.08218518 -0.33370292 0.11831135
v -0.02936800 -0.34494001 0.10546200
v 0.06863752 -0.32711981 0.10651251
v 0.10376510 -0.32081187 0.11419002
v -0.03706555 -0.34318640 0.10698985
v -0.16374150 -0.22362050 0.05250990
v -0.18809220 -0.22933643 0.04522573
v -0.18372779 -0.22726131 0.04621541
v -0.02907609 -0.35219572 0.10583001
v -0.01058757 -0.38197801 0.10511973
v -0.03016060 -0.38861666 0.10668364
v -0.02914080 -0.38144823 0.10619400
v -0.01107068 -0.35761221 0.10367001
v -0.05620624 -0.39165773 0.10853157
v 0.00274913 -0.37629302 0.10429583
v 0.01123039 -0.39052422 0.10612827
v 0.01868443 -0.38295187 0.10501044
v 0.00725809 -0.38786342 0.10546247
v 0.02282937 -0.37138973 0.10395300
v 0.02890731 -0.38187332 0.10510864
v 0.07308981 -0.38992041 0.10728689
v 0.03609893 -0.37375614 0.10460002
v -0.01963924 -0.39602789 0.10731913
v 0.07881241 -0.39816845 0.10885121
v 0.08472479 -0.39577098 0.10833564
v 0.03269000 -0.34854501 0.10278400
v 0.03873842 -0.34828500 0.10337203
v -0.03627845 -0.34940408 0.10711829
v -0.06347313 -0.39501608 0.10910826
v -0.07327463 -0.33154551 0.11584425
v 0.03993871 -0.35609731 0.10404407
v 0.05062945 -0.37646226 0.10551889
v 0.04780194 -0.37464975 0.10530876
v -0.10068640 -0.32932318 0.12252001
v -0.06432500 -0.33878899 0.11365400
v 0.13620999 -0.31821901 0.12006000
v 0.10077814 -0.39194087 0.10824179
v -0.03530601 -0.36591370 0.10680873
v -0.03602845 -0.37787668 0.10673434
v -0.02222483 -0.35887129 0.10491165
v -0.05237266 -0.36190967 0.11013861
v 0.11256131 -0.32542857 0.11651242
v 0.06423466 -0.33267492 0.10623391
v -0.04981819 -0.34894383 0.11006467
v -0.06374603 -0.34454238 0.11354739
v 0.05930538 -0.34284072 0.10607559
v 0.12345177 -0.32624271 0.11846035
v 0.09804287 -0.33887935 0.11376300
v 0.08164982 -0.34000383 0.11045362
v 0.06521863 -0.34417993 0.10715497
v 0.14399800 -0.31950049 0.12126850
v 0.13887772 -0.32219622 0.12070688
v 0.06017397 -0.35605528 0.10648052
v 0.14797300 -0.32140201 0.12181100
v 0.15162601 -0.32164800 0.12220700
v 0.11586595 -0.33539570 0.11731583
v 0.11612995 -0.34572697 0.11662946
v 0.14269440 -0.33002249 0.12118774
v 0.15730099 -0.32127801 0.12273700
v 0.15446299 -0.32479501 0.12244500
v 0.10922599 -0.34405152 0.11569715
v -0.04342850 -0.36982248 0.10789903
v 0.08081579 -0.38150080 0.10743474
v -0.05084144 -0.38171831 0.10816233
v 0.09649447 -0.38619575 0.10817846
v 0.15640700 -0.32664499 0.12254800
v 0.15822700 -0.32855800 0.12259200
v -0.17646804 -0.22211684 0.04832449
v 0.06875647 -0.35828000 0.10765113
v 0.07272251 -0.36569602 0.10778351
v 0.07605780 -0.37317395 0.10752717
v 0.07360996 -0.36965581 0.10759693
v 0.09619072 -0.35225184 0.11267176
v -0.21031161 -0.24461836 0.05021051
v -0.20319818 -0.22524262 0.03427468
v -0.14910061 -0.20539584 0.05149304
v -0.14400168 -0.19817495 0.04809948
v -0.16942156 -0.22184279 0.05072493
v -0.19353822 -0.22197241 0.03953821
v -0.19071200 -0.21850500 0.04098200
v -0.18492521 -0.21997560 0.04432950
v -0.19688972 -0.21699768 0.03650156
v -0.17547535 -0.21736911 0.04897745
v -0.18915084 -0.21545192 0.04211794
f 308 307 1
f 307 309 1
f 307 4 309
f 307 5 4
f 309 4 3
f 307 6 5
f 7 6 307
f 306 7 307
f 306 305 7
f 305 306 307
f 2 7 305
f 305 307 192
f 305 194 2
f 305 192 191
f 192 307 301
f 194 44 2
f 193 194 305
f 191 192 302
f 208 305 191
f 302 192 301
f 295 301 307
f 205 44 194
f 208 193 305
f 212 191 302
f 209 208 191
f 302 301 295
f 201 44 205
f 205 194 204
f 208 194 193
f 209 191 212
f 303 212 302
f 209 207 208
f 298 302 295
f 201 202 44
f 204 201 205
f 204 194 207
f 207 194 208
f 107 209 212
f 297 212 303
f 303 302 293
f 204 207 209
f 293 302 298
f 202 195 44
f 201 204 202
f 204 209 107
f 299 212 297
f 292 297 303
f 292 303 293
f 293 298 296
f 195 43 44
f 202 196 195
f 203 202 204
f 204 107 104
f 210 212 299
f 294 299 297
f 291 297 292
f 195 196 43
f 198 196 202
f 203 104 202
f 203 204 104
f 212 210 213
f 294 210 299
f 291 294 297
f 42 43 196
f 197 196 198
f 198 202 104
f 213 210 102
f 294 102 210
f 267 294 291
f 197 42 196
f 200 197 198
f 104 200 198
f 106 213 102
f 101 102 294
f 197 199 42
f 104 95 200
f 107 213 106
f 101 294 99
f 42 199 211
f 124 199 197
f 95 73 200
f 211 206 42
f 200 124 197
f 63 73 95
f 73 124 200
f 42 206 41
f 206 211 221
f 89 63 95
f 206 225 41
f 206 221 225
f 215 221 211
f 89 64 63
f 225 40 41
f 221 224 225
f 214 215 211
f 215 217 221
f 64 51 63
f 89 83 64
f 40 225 38
f 224 221 647
f 225 224 222
f 214 127 215
f 216 217 215
f 217 220 221
f 63 51 67
f 54 51 64
f 83 54 64
f 89 69 83
f 225 223 38
f 221 220 647
f 224 647 222
f 225 222 223
f 128 127 214
f 127 219 215
f 219 216 215
f 217 216 220
f 51 48 67
f 67 49 63
f 51 54 50
f 83 70 54
f 83 69 70
f 223 646 38
f 220 642 647
f 647 645 222
f 223 222 648
f 124 128 214
f 219 218 216
f 220 216 642
f 48 51 50
f 48 47 67
f 63 49 73
f 54 52 50
f 57 54 70
f 69 66 70
f 38 646 39
f 223 648 646
f 647 642 632
f 222 645 648
f 647 632 645
f 124 214 211
f 218 570 216
f 126 218 219
f 216 570 642
f 48 50 46
f 46 47 48
f 67 47 85
f 52 53 50
f 54 55 52
f 54 57 55
f 57 70 60
f 69 74 66
f 70 66 60
f 648 644 646
f 632 642 572
f 648 645 644
f 632 572 645
f 535 570 218
f 640 218 126
f 570 542 642
f 50 53 46
f 47 84 85
f 67 85 73
f 52 55 53
f 55 57 53
f 57 60 62
f 66 74 68
f 69 96 74
f 66 68 60
f 644 643 646
f 538 572 642
f 644 645 643
f 645 572 643
f 560 535 218
f 535 488 570
f 125 640 126
f 570 499 542
f 642 542 538
f 58 46 53
f 85 84 98
f 57 92 53
f 57 62 92
f 60 68 62
f 74 72 68
f 69 108 96
f 96 108 74
f 643 639 646
f 538 472 572
f 572 539 643
f 640 560 218
f 560 488 535
f 488 490 570
f 125 126 113
f 641 640 125
f 542 499 538
f 490 499 570
f 46 58 61
f 58 53 93
f 84 93 98
f 87 53 92
f 92 62 68
f 91 68 72
f 74 105 72
f 74 108 105
f 639 643 539
f 500 472 538
f 472 496 572
f 572 571 539
f 495 560 640
f 487 488 560
f 488 390 490
f 115 125 113
f 126 127 113
f 641 125 98
f 641 524 640
f 499 500 538
f 490 446 499
f 46 61 47
f 61 58 47
f 53 59 93
f 58 93 47
f 47 93 84
f 378 98 93
f 87 56 53
f 92 103 87
f 91 92 68
f 91 72 99
f 105 99 72
f 539 563 639
f 499 472 500
f 496 472 502
f 572 496 571
f 571 496 539
f 487 560 495
f 524 495 640
f 478 488 487
f 468 390 488
f 490 390 446
f 115 113 112
f 122 125 115
f 113 127 110
f 122 98 125
f 378 641 98
f 378 524 641
f 446 447 499
f 56 59 53
f 65 93 59
f 93 90 378
f 87 97 56
f 103 97 87
f 91 100 92
f 100 91 99
f 563 539 502
f 563 502 639
f 465 472 499
f 472 485 502
f 496 502 539
f 481 487 495
f 481 495 524
f 481 478 487
f 478 468 488
f 468 391 390
f 445 446 390
f 109 115 112
f 116 122 115
f 109 113 110
f 121 98 122
f 378 374 524
f 443 447 446
f 499 447 465
f 65 59 88
f 81 93 65
f 374 378 90
f 97 59 56
f 639 502 34
f 465 444 472
f 444 485 472
f 502 485 532
f 376 481 524
f 481 375 478
f 375 468 478
f 391 445 390
f 379 391 468
f 445 443 446
f 116 115 109
f 116 119 122
f 109 110 114
f 121 94 98
f 121 122 119
f 524 374 376
f 443 444 447
f 447 444 465
f 88 59 97
f 79 65 88
f 81 65 76
f 376 374 90
f 532 34 502
f 484 485 444
f 485 492 532
f 376 371 481
f 371 375 481
f 375 369 468
f 407 445 391
f 393 391 379
f 379 468 369
f 443 445 407
f 116 109 111
f 119 116 117
f 114 111 109
f 123 94 121
f 120 121 119
f 416 444 443
f 79 71 65
f 76 65 71
f 78 81 76
f 363 376 90
f 469 484 444
f 485 484 492
f 492 638 532
f 376 368 371
f 371 365 375
f 365 369 375
f 393 407 391
f 366 393 379
f 366 379 369
f 407 416 443
f 111 117 116
f 118 119 117
f 117 111 114
f 123 85 94
f 120 123 121
f 119 73 120
f 444 416 449
f 77 76 71
f 76 77 78
f 90 75 363
f 363 368 376
f 444 449 469
f 469 516 484
f 484 638 492
f 532 638 34
f 368 365 371
f 365 367 369
f 393 408 407
f 392 393 366
f 372 366 369
f 407 440 416
f 117 114 118
f 73 119 118
f 86 85 123
f 73 123 120
f 416 440 449
f 363 75 80
f 363 365 368
f 449 516 469
f 516 517 484
f 362 367 365
f 408 393 412
f 412 407 408
f 366 381 392
f 392 384 393
f 357 366 372
f 357 372 369
f 440 407 422
f 124 118 114
f 124 73 118
f 73 86 123
f 440 516 449
f 359 363 80
f 362 365 363
f 484 517 638
f 516 518 517
f 384 412 393
f 415 407 412
f 380 381 366
f 381 380 392
f 380 384 392
f 370 366 357
f 364 357 369
f 422 407 415
f 422 470 440
f 474 516 440
f 359 80 354
f 362 363 359
f 517 518 638
f 536 518 516
f 384 394 412
f 412 395 415
f 366 373 380
f 380 385 384
f 341 370 357
f 370 373 366
f 352 357 364
f 362 364 369
f 415 395 422
f 456 470 422
f 440 470 474
f 474 483 516
f 354 80 360
f 358 359 354
f 358 362 359
f 518 29 638
f 470 536 516
f 536 30 518
f 389 394 384
f 394 404 412
f 412 405 395
f 373 382 380
f 383 385 380
f 385 389 384
f 357 352 341
f 351 370 341
f 350 352 364
f 362 358 364
f 395 456 422
f 456 461 470
f 470 483 474
f 483 470 516
f 360 80 377
f 354 360 356
f 361 358 354
f 518 30 29
f 638 29 32
f 459 536 470
f 33 30 536
f 394 389 400
f 400 404 394
f 412 404 405
f 405 441 395
f 382 383 380
f 383 386 385
f 385 388 389
f 352 345 341
f 351 341 338
f 345 352 350
f 350 364 353
f 364 358 361
f 436 456 395
f 462 461 456
f 461 460 470
f 80 79 377
f 360 377 190
f 349 354 356
f 356 360 187
f 353 361 354
f 34 638 32
f 460 459 470
f 459 33 536
f 33 31 30
f 389 399 400
f 400 402 404
f 405 404 441
f 441 436 395
f 383 387 386
f 385 386 388
f 399 389 388
f 341 345 344
f 338 334 351
f 345 350 340
f 348 350 353
f 353 364 361
f 441 456 436
f 462 456 455
f 458 461 462
f 459 460 461
f 79 82 377
f 360 190 187
f 354 349 347
f 355 349 356
f 356 187 168
f 353 354 346
f 463 33 459
f 399 402 400
f 402 396 404
f 404 433 441
f 387 410 386
f 386 406 388
f 401 399 388
f 341 344 340
f 344 345 340
f 334 338 330
f 340 350 348
f 348 353 346
f 455 456 441
f 457 462 455
f 458 459 461
f 457 458 462
f 189 377 82
f 186 187 190
f 347 349 355
f 346 354 347
f 355 356 152
f 170 168 187
f 168 161 356
f 35 33 463
f 463 459 458
f 399 401 402
f 403 396 402
f 396 431 404
f 404 431 433
f 430 441 433
f 386 410 409
f 387 411 410
f 386 409 406
f 388 406 402
f 388 402 401
f 336 341 340
f 334 330 331
f 338 332 330
f 340 348 346
f 454 455 441
f 454 457 455
f 457 463 458
f 180 187 186
f 186 190 377
f 346 347 355
f 150 355 152
f 356 161 152
f 170 167 168
f 180 170 187
f 167 161 168
f 36 35 463
f 403 397 396
f 406 403 402
f 398 431 396
f 431 430 433
f 430 450 441
f 410 451 409
f 411 451 410
f 406 409 403
f 336 340 335
f 331 330 328
f 330 332 315
f 338 336 332
f 340 346 335
f 450 454 441
f 454 463 457
f 171 180 186
f 186 377 189
f 342 346 355
f 154 150 152
f 150 342 355
f 152 161 160
f 227 167 170
f 170 180 171
f 167 160 161
f 36 463 452
f 396 397 398
f 403 398 397
f 419 431 398
f 435 430 431
f 435 450 430
f 451 417 409
f 411 475 451
f 413 403 409
f 336 335 332
f 328 330 326
f 330 315 326
f 315 332 333
f 335 346 342
f 453 454 450
f 452 463 454
f 171 186 228
f 186 189 188
f 149 150 154
f 160 154 152
f 150 343 342
f 227 160 167
f 227 170 175
f 170 171 175
f 439 36 452
f 403 413 398
f 398 420 419
f 419 434 431
f 431 432 435
f 435 438 450
f 417 423 409
f 417 451 423
f 471 475 411
f 451 475 423
f 409 418 413
f 332 335 337
f 327 328 326
f 326 315 314
f 315 333 319
f 333 332 337
f 335 342 149
f 450 438 453
f 453 438 454
f 438 452 454
f 228 226 171
f 185 186 188
f 343 150 149
f 149 154 151
f 160 155 154
f 342 343 149
f 177 160 227
f 227 175 226
f 226 175 171
f 439 37 36
f 439 452 438
f 413 414 398
f 398 421 420
f 419 420 434
f 434 432 431
f 432 427 435
f 427 438 435
f 409 423 418
f 471 489 475
f 475 477 423
f 423 413 418
f 337 335 339
f 329 327 326
f 314 315 311
f 326 314 313
f 315 319 316
f 320 319 333
f 333 337 151
f 335 149 339
f 231 226 228
f 235 186 185
f 185 188 235
f 337 149 151
f 153 151 154
f 153 154 155
f 159 155 160
f 229 177 227
f 13 37 439
f 427 439 438
f 398 414 421
f 414 413 421
f 420 421 425
f 420 429 434
f 434 429 432
f 432 429 427
f 480 489 471
f 489 486 475
f 423 477 424
f 477 475 491
f 413 423 424
f 339 149 337
f 310 329 326
f 313 314 311
f 315 316 311
f 326 313 312
f 319 320 316
f 320 333 153
f 333 151 153
f 158 153 155
f 159 158 155
f 159 160 173
f 229 227 230
f 427 13 439
f 413 424 421
f 425 429 420
f 421 437 425
f 429 428 427
f 512 489 480
f 491 475 486
f 489 512 486
f 493 424 477
f 491 503 477
f 310 326 312
f 312 313 311
f 311 316 157
f 157 316 320
f 163 320 153
f 153 158 159
f 173 169 159
f 428 13 427
f 424 464 421
f 425 426 429
f 467 437 421
f 425 437 426
f 429 466 428
f 480 501 512
f 503 491 486
f 512 504 486
f 493 467 424
f 477 494 493
f 477 503 494
f 324 310 312
f 312 311 317
f 318 311 157
f 157 320 156
f 159 163 153
f 156 320 163
f 169 163 159
f 232 169 173
f 428 442 13
f 421 464 467
f 424 467 464
f 426 473 429
f 437 467 476
f 437 473 426
f 466 442 428
f 473 466 429
f 501 506 512
f 486 511 503
f 486 504 511
f 504 512 519
f 467 493 494
f 494 503 510
f 324 312 317
f 311 323 317
f 157 163 318
f 323 311 318
f 157 156 163
f 164 163 169
f 164 169 232
f 497 13 442
f 437 476 482
f 467 510 476
f 437 482 473
f 466 448 442
f 498 466 473
f 505 506 501
f 506 514 512
f 511 523 503
f 504 519 511
f 534 519 512
f 467 494 510
f 503 564 510
f 324 317 136
f 143 317 323
f 172 318 163
f 323 318 322
f 164 172 163
f 497 11 13
f 448 497 442
f 476 521 482
f 510 526 476
f 482 498 473
f 466 479 448
f 466 498 479
f 507 506 505
f 506 513 514
f 514 534 512
f 523 537 503
f 511 557 523
f 519 541 511
f 534 550 519
f 503 537 564
f 510 564 526
f 136 317 321
f 134 324 136
f 317 143 321
f 143 323 322
f 162 318 172
f 318 162 322
f 242 172 164
f 522 11 497
f 448 479 497
f 476 526 521
f 482 521 525
f 482 525 498
f 498 497 479
f 508 506 507
f 506 515 513
f 515 514 513
f 514 540 534
f 523 548 537
f 533 557 511
f 523 557 548
f 511 541 533
f 541 519 557
f 519 550 557
f 549 550 534
f 537 555 564
f 526 564 594
f 137 136 321
f 134 136 135
f 325 324 134
f 142 321 143
f 143 322 162
f 243 162 172
f 233 242 164
f 243 172 242
f 522 12 11
f 525 522 497
f 521 526 525
f 498 525 497
f 508 515 506
f 507 509 508
f 515 527 514
f 514 549 540
f 540 549 534
f 548 557 537
f 533 541 557
f 550 559 557
f 549 579 550
f 537 554 555
f 564 555 594
f 526 594 551
f 139 137 321
f 134 135 133
f 135 136 140
f 142 143 165
f 321 142 139
f 165 143 162
f 243 165 162
f 234 233 164
f 243 242 233
f 522 525 12
f 526 551 525
f 508 531 515
f 507 528 509
f 509 547 508
f 527 552 514
f 531 527 515
f 552 549 514
f 557 569 537
f 559 550 604
f 559 573 557
f 582 579 549
f 550 579 574
f 537 569 554
f 555 554 569
f 555 599 594
f 551 594 565
f 129 134 133
f 133 135 140
f 165 166 142
f 139 142 166
f 179 165 243
f 525 10 12
f 551 598 525
f 508 530 531
f 507 520 528
f 528 547 509
f 547 530 508
f 527 561 552
f 531 553 527
f 552 561 549
f 569 557 566
f 550 577 604
f 559 604 573
f 557 573 566
f 583 582 549
f 579 582 574
f 574 577 550
f 569 45 555
f 599 555 609
f 599 609 594
f 565 598 551
f 565 594 609
f 129 133 130
f 133 140 130
f 166 165 178
f 166 181 139
f 179 247 165
f 179 243 183
f 598 10 525
f 530 547 531
f 529 528 520
f 543 547 528
f 562 561 527
f 553 562 527
f 558 553 531
f 561 583 549
f 569 566 573
f 577 576 604
f 604 602 573
f 583 581 582
f 574 582 587
f 577 574 576
f 45 608 555
f 569 608 45
f 608 609 555
f 598 565 9
f 565 609 8
f 178 165 247
f 184 166 178
f 140 139 181
f 174 181 166
f 179 183 247
f 598 9 10
f 547 545 531
f 529 543 528
f 543 567 547
f 562 558 561
f 553 558 562
f 545 558 531
f 561 586 583
f 573 592 569
f 604 576 603
f 573 602 605
f 604 603 602
f 581 580 582
f 583 584 581
f 574 587 575
f 580 587 582
f 574 575 576
f 592 608 569
f 608 605 609
f 565 8 9
f 609 605 8
f 247 254 178
f 174 166 184
f 254 184 178
f 140 138 139
f 140 181 176
f 176 181 174
f 247 183 245
f 547 558 545
f 529 544 543
f 543 568 567
f 547 567 546
f 558 590 561
f 595 586 561
f 586 584 583
f 573 608 592
f 603 576 578
f 573 605 608
f 602 626 605
f 602 603 626
f 581 585 580
f 584 585 581
f 587 593 575
f 588 587 580
f 575 578 576
f 605 28 8
f 247 260 254
f 184 176 174
f 248 184 254
f 136 139 138
f 148 140 176
f 265 247 245
f 547 556 558
f 544 568 543
f 567 568 607
f 546 556 547
f 546 567 607
f 591 590 558
f 590 591 561
f 591 595 561
f 595 597 586
f 596 584 586
f 603 578 628
f 626 28 605
f 626 603 628
f 585 588 580
f 596 585 584
f 575 593 578
f 587 21 593
f 588 24 587
f 260 247 265
f 254 260 265
f 182 176 184
f 144 184 248
f 249 248 254
f 141 140 148
f 148 176 182
f 265 245 268
f 556 546 558
f 544 606 568
f 568 614 607
f 607 558 546
f 558 595 591
f 597 596 586
f 596 597 595
f 628 578 593
f 626 628 28
f 589 588 585
f 627 585 596
f 587 23 21
f 21 20 593
f 24 22 587
f 25 24 588
f 254 265 269
f 144 182 184
f 249 144 248
f 255 249 254
f 130 141 148
f 148 182 145
f 268 245 244
f 264 265 268
f 544 600 606
f 606 613 568
f 568 613 614
f 607 614 610
f 607 610 558
f 558 610 595
f 617 596 595
f 593 20 628
f 28 628 20
f 601 589 585
f 601 588 589
f 629 585 627
f 635 627 596
f 22 23 587
f 588 26 25
f 255 254 269
f 277 269 265
f 145 182 144
f 144 249 250
f 250 249 255
f 131 130 148
f 147 148 145
f 276 265 264
f 276 264 268
f 600 611 606
f 606 620 613
f 614 613 617
f 610 614 617
f 610 617 595
f 635 596 617
f 629 601 585
f 601 17 588
f 16 629 627
f 16 627 635
f 27 26 588
f 272 255 269
f 277 265 276
f 279 269 277
f 250 145 144
f 258 250 255
f 147 131 148
f 147 145 258
f 600 616 611
f 606 611 620
f 620 612 613
f 613 633 617
f 636 635 617
f 17 601 629
f 27 588 17
f 17 629 16
f 15 16 635
f 251 255 272
f 272 269 279
f 277 276 278
f 279 277 281
f 145 250 258
f 258 255 253
f 304 131 147
f 256 147 258
f 615 616 600
f 616 620 611
f 612 633 613
f 620 625 612
f 633 634 617
f 636 617 634
f 634 635 636
f 637 15 635
f 253 255 251
f 266 251 272
f 272 279 281
f 278 276 246
f 236 277 278
f 281 277 236
f 256 258 253
f 132 131 304
f 304 147 146
f 146 147 256
f 615 622 616
f 622 620 616
f 637 633 612
f 612 625 637
f 621 625 620
f 637 634 633
f 635 634 637
f 14 15 637
f 257 253 251
f 257 251 266
f 280 266 272
f 280 272 281
f 274 278 246
f 236 278 274
f 281 236 237
f 256 253 252
f 300 132 304
f 271 304 146
f 146 256 259
f 615 618 622
f 620 622 621
f 621 637 625
f 621 14 637
f 252 253 257
f 261 257 266
f 266 280 285
f 280 281 284
f 259 256 252
f 304 271 300
f 271 146 259
f 619 618 615
f 618 619 622
f 18 621 622
f 18 14 621
f 259 252 257
f 257 261 287
f 261 266 288
f 285 288 266
f 285 280 282
f 280 284 282
f 284 281 283
f 289 300 271
f 262 271 259
f 619 623 622
f 19 18 622
f 259 257 263
f 263 257 287
f 287 261 288
f 288 285 290
f 285 282 284
f 283 281 286
f 284 283 238
f 289 271 262
f 275 262 259
f 623 624 622
f 631 19 622
f 275 259 263
f 263 287 273
f 287 288 290
f 290 285 284
f 238 283 286
f 630 622 624
f 631 622 630
f 270 263 273
f 273 287 239
f 287 290 239
f 239 290 240
f 240 290 241

