# https://github.com/mikedh/trimesh
v -0.09618444 -0.31392212 -0.18952150
v -0.07467250 -0.28758849 -0.18765800
v -0.06355500 -0.27870250 -0.18643100
v -0.13979100 -0.41837600 -0.17363200
v -0.13712300 -0.38941426 -0.18004475
v -0.11873812 -0.35275937 -0.18716625
v -0.11681900 -0.41837701 -0.17766900
v -0.12770000 -0.41837600 -0.17554700
v -0.12469100 -0.41858151 -0.17618949
v -0.01186497 -0.38797264 -0.18714140
v 0.00886946 -0.37587163 -0.18890471
v -0.01700475 -0.37868997 -0.18895828
v -0.07284747 -0.41365462 -0.18046319
v -0.09497355 -0.41428278 -0.17920280
v -0.08598280 -0.40590326 -0.18170026
v -0.01115533 -0.35555403 -0.19241967
v -0.00074132 -0.34790230 -0.19297400
v -0.01184131 -0.33850876 -0.19388922
v -0.03573014 -0.36398580 -0.19139249
v -0.02540716 -0.36902551 -0.19066429
v -0.05229634 -0.37299144 -0.18992134
v -0.10168935 -0.37836307 -0.18626604
v -0.08414285 -0.38605500 -0.18608745
v -0.05754620 -0.37412206 -0.18945255
v -0.07262482 -0.35982155 -0.19093828
v -0.03318012 -0.33853771 -0.19395265
v -0.03031001 -0.32070472 -0.19394525
v -0.04595270 -0.31660015 -0.19349353
v -0.02315000 -0.31738587 -0.19352225
v -0.06769211 -0.31118790 -0.19194757
v -0.07800300 -0.31729005 -0.19185866
v -0.09449468 -0.32468449 -0.19076334
v -0.06880943 -0.32657775 -0.19280068
v -0.05326803 -0.32184124 -0.19342099
v -0.06832505 -0.33253710 -0.19291342
v -0.10927468 -0.34340949 -0.18921834
v -0.08916460 -0.33645806 -0.19134437
v -0.08977521 -0.34325742 -0.19108809
v -0.10465908 -0.36037866 -0.18846502
v -0.11920568 -0.38185658 -0.18390154
v -0.12433571 -0.37864366 -0.18379106
v -0.12837797 -0.39634243 -0.18008387
v -0.11157200 -0.38368363 -0.18438966
v -0.09389230 -0.35444707 -0.18997671
v -0.11114633 -0.39291311 -0.18263207
v -0.12102586 -0.41747736 -0.17645585
v -0.10636827 -0.41303444 -0.17881524
v -0.07021542 -0.35057354 -0.19185057
v -0.09010234 -0.31722707 -0.19073743
v -0.06865289 -0.28988470 -0.18869451
v -0.05046600 -0.29401201 -0.19037400
v -0.05731112 -0.29713166 -0.19067957
v -0.07287784 -0.30633012 -0.19115540
v -0.05389611 -0.30844839 -0.19241608
v -0.03960900 -0.30338901 -0.19225501
v -0.08306024 -0.37163715 -0.18866414
v -0.07388983 -0.38234938 -0.18740038
v -0.02481836 -0.33424311 -0.19405807
v -0.02002532 -0.32763405 -0.19415492
v -0.00125800 -0.33114800 -0.19383299
v 0.00437500 -0.32781699 -0.19369900
v -0.03848305 -0.34856375 -0.19308069
v 0.01644775 -0.33950850 -0.19286149
v -0.04933264 -0.39348985 -0.18579650
v 0.00632075 -0.35922299 -0.19159726
v 0.03114990 -0.36205135 -0.19007149
v 0.02008642 -0.34569319 -0.19239399
v 0.03330700 -0.34891501 -0.19134900
v 0.05238100 -0.36289174 -0.18816112
v 0.04654404 -0.37224687 -0.18761031
v 0.03071638 -0.37865250 -0.18738452
v 0.03429186 -0.38166292 -0.18666793
v -0.04304104 -0.41157281 -0.18174363
v -0.02067000 -0.40626401 -0.18290100
v -0.00969391 -0.39265149 -0.18599110
v 0.01278344 -0.39138818 -0.18565740
v 0.00839689 -0.40448570 -0.18268039
v 0.00404290 -0.41028496 -0.18146613
v 0.01112917 -0.41185679 -0.18099576
v 0.04132644 -0.39358234 -0.18364155
v 0.05414115 -0.37256134 -0.18677894
v 0.06318410 -0.39022861 -0.18265018
v 0.03500721 -0.40910521 -0.18030235
v 0.07210927 -0.40398980 -0.17878833
v 0.08023142 -0.41631571 -0.17526393
v 0.11579150 -0.40695950 -0.17262049
v 0.09722900 -0.39061701 -0.17879701
v 0.08587749 -0.40032570 -0.17830529
v 0.08937500 -0.38868400 -0.18019500
v 0.07266500 -0.37642801 -0.18434601
v 0.02062383 -0.39639165 -0.18412586
v 0.04006538 -0.41243056 -0.17930917
v 0.08857389 -0.41712151 -0.17418392
v -0.06023032 -0.41375906 -0.18105065
v 0.02884533 -0.41287399 -0.18001891
v -0.10426552 -0.41569237 -0.17830529
v 0.07045574 -0.41682721 -0.17643300
v 0.14777125 -0.41823401 -0.16388837
v -0.08361188 -0.41490884 -0.18001092
v 0.11469987 -0.41866351 -0.17030097
v 0.13743234 -0.42111536 -0.16606921
v 0.09728426 -0.41796535 -0.17314968
v 0.14569421 -0.42151119 -0.16390542
v 0.15626407 -0.42199276 -0.16137236
v 0.12532210 -0.41963744 -0.16841442
v -0.05039524 -0.41277200 -0.18135500
v 0.16536747 -0.42219352 -0.15896521
v 0.17078750 -0.42152099 -0.15736550
v -0.02195677 -0.41173256 -0.18182792
v 0.12152200 -0.42025900 -0.16971500
v 0.11015300 -0.41937700 -0.17160299
v 0.07340900 -0.41695201 -0.17603400
v -0.10742900 -0.41747701 -0.17866100
v -0.02949150 -0.41312251 -0.18251600
v 0.13435350 -0.42166900 -0.16731349
v 0.14250350 -0.42231950 -0.16531050
v 0.00317250 -0.41293751 -0.18198000
f 40 42 41
f 41 42 5
f 42 4 5
f 42 46 4
f 42 47 46
f 96 46 47
f 15 96 47
f 14 96 15
f 14 99 96
f 99 113 96
f 96 113 46
f 46 113 7
f 46 7 9
f 46 9 8
f 15 99 14
f 13 99 15
f 13 94 99
f 106 94 13
f 106 114 94
f 109 114 106
f 109 117 114
f 79 117 109
f 95 117 79
f 83 95 79
f 92 95 83
f 92 83 80
f 82 92 80
f 82 84 92
f 84 85 92
f 85 97 92
f 85 112 97
f 85 93 112
f 88 93 85
f 88 102 93
f 111 93 102
f 100 102 88
f 100 88 86
f 98 100 86
f 98 105 100
f 105 110 100
f 115 110 105
f 101 115 105
f 116 115 101
f 103 116 101
f 104 116 103
f 103 101 105
f 110 111 100
f 100 111 102
f 103 105 98
f 98 104 103
f 107 104 98
f 98 108 107
f 87 86 88
f 87 88 89
f 89 88 90
f 90 88 70
f 90 70 81
f 69 90 81
f 69 81 70
f 69 70 66
f 70 72 66
f 70 80 72
f 80 91 72
f 91 80 77
f 76 91 77
f 76 77 75
f 77 109 75
f 77 78 109
f 78 79 109
f 77 79 78
f 75 109 74
f 74 109 73
f 73 109 106
f 73 106 64
f 21 73 64
f 10 73 21
f 10 75 73
f 12 10 21
f 20 12 21
f 19 20 21
f 25 19 21
f 25 21 56
f 25 56 22
f 57 22 56
f 56 24 57
f 21 57 24
f 57 23 22
f 57 15 23
f 64 15 57
f 23 15 22
f 25 22 39
f 48 25 39
f 48 39 44
f 48 44 38
f 48 38 35
f 26 48 35
f 26 62 48
f 62 26 16
f 16 19 62
f 17 16 26
f 18 17 26
f 18 26 58
f 59 58 26
f 27 59 26
f 29 59 27
f 29 18 59
f 60 18 29
f 61 60 29
f 60 63 18
f 63 67 18
f 63 68 67
f 68 66 67
f 67 66 65
f 67 65 17
f 66 11 65
f 66 71 11
f 71 72 11
f 72 76 11
f 76 10 11
f 65 11 12
f 29 27 28
f 55 29 28
f 55 28 54
f 51 55 54
f 51 54 52
f 52 54 53
f 53 54 30
f 54 31 30
f 54 34 31
f 34 33 31
f 34 35 33
f 31 33 35
f 31 35 37
f 31 37 32
f 32 37 36
f 37 38 36
f 32 36 1
f 1 36 6
f 36 39 6
f 41 6 39
f 49 32 1
f 53 49 1
f 31 49 53
f 50 53 1
f 50 1 2
f 3 50 2
f 3 51 50
f 49 31 32
f 53 30 31
f 52 53 50
f 51 52 50
f 54 28 34
f 28 26 34
f 27 26 28
f 59 18 58
f 67 17 18
f 17 65 16
f 16 65 20
f 34 26 35
f 35 38 37
f 36 38 44
f 44 39 36
f 62 25 48
f 39 22 40
f 22 43 40
f 22 45 43
f 45 42 43
f 22 47 45
f 24 56 21
f 62 19 25
f 16 20 19
f 65 12 20
f 12 11 10
f 21 64 57
f 75 74 73
f 76 75 10
f 80 79 77
f 72 91 76
f 66 72 71
f 68 69 66
f 70 88 82
f 88 85 84
f 88 84 82
f 70 82 80
f 80 83 79
f 64 106 13
f 64 13 15
f 15 47 22
f 45 47 42
f 46 8 4
f 41 5 6
f 43 42 40
f 39 40 41

