# https://github.com/mikedh/trimesh
v 0.10339475 -0.44221550 0.18406625
v 0.09897979 -0.44832368 0.18162277
v 0.10764939 -0.43733136 0.18644937
v 0.13486000 -0.43045350 0.19253975
v 0.08747575 -0.45206000 0.18569326
v 0.09665508 -0.45265656 0.18038344
v 0.09349050 -0.44737050 0.18716950
v 0.13762700 -0.42522401 0.19402950
v 0.11806455 -0.43385650 0.18687237
v 0.12574168 -0.43211396 0.18800547
v 0.12344834 -0.43361899 0.18804337
v 0.13553241 -0.43368089 0.18802255
v 0.14136132 -0.43580705 0.18805819
v 0.07858700 -0.44686899 0.18718700
v 0.07419525 -0.45523975 0.18062501
v 0.10120300 -0.44694999 0.18285801
v 0.15043255 -0.44344412 0.18836113
v 0.14708405 -0.43896504 0.18760415
v 0.12819218 -0.44558112 0.19239865
v 0.14076900 -0.44773999 0.19190601
v 0.11218720 -0.44706654 0.19018838
v 0.11437550 -0.45066700 0.19012700
v 0.12060471 -0.44126277 0.19138089
v 0.09838675 -0.45760499 0.18277375
v 0.12612670 -0.43852892 0.19129357
v 0.11266800 -0.44450399 0.19000900
v 0.15588699 -0.45306700 0.18805000
v 0.14139369 -0.44367575 0.19177564
v 0.10916021 -0.44523215 0.18905277
v 0.10760311 -0.44116474 0.18633391
v 0.10273257 -0.44782131 0.18511202
v 0.13128173 -0.43968547 0.19214258
v 0.11727359 -0.43907288 0.19024700
v 0.16141400 -0.45456600 0.18514800
v 0.14077869 -0.43841180 0.18984062
v 0.09432625 -0.45895925 0.17902062
v 0.16093151 -0.42758950 0.19012725
v 0.21918499 -0.42620301 0.17195299
v 0.21387201 -0.42227299 0.17473750
v 0.19902275 -0.41964800 0.18203950
v 0.22836888 -0.44129204 0.16696657
v 0.22527437 -0.43723626 0.17097200
v 0.17928034 -0.42050703 0.18632718
v 0.14708875 -0.42351625 0.19221750
v 0.21530042 -0.42442275 0.17636323
v 0.21924300 -0.42924100 0.17531900
v 0.21081034 -0.42581315 0.18023785
v 0.22179894 -0.43208025 0.17415514
v 0.22200349 -0.43632246 0.17492144
v 0.21893644 -0.43916014 0.17669646
v 0.22463876 -0.44062044 0.17308327
v 0.22726500 -0.45045400 0.16999100
v 0.20415364 -0.42230640 0.18197976
v 0.22840938 -0.44527816 0.16870759
v 0.09551500 -0.46377900 0.18012901
v 0.09173000 -0.46674001 0.17599501
v 0.10533550 -0.46119550 0.18564649
v 0.12451149 -0.45908150 0.18952651
v 0.13475875 -0.45670051 0.19074225
v 0.09221184 -0.46325749 0.17722738
v 0.15045750 -0.45940300 0.18952800
v 0.08634575 -0.46038749 0.18320425
v 0.07796150 -0.45573500 0.18314124
v 0.07836144 -0.45119435 0.18581662
v 0.09069826 -0.45612728 0.18437788
v 0.07067738 -0.46280287 0.18166874
v 0.02730800 -0.47233124 0.18847875
v 0.04098600 -0.46819299 0.18912099
v 0.15079309 -0.43673356 0.19212609
v 0.15672117 -0.43914086 0.19267292
v 0.17125300 -0.45901600 0.18709800
v 0.16396400 -0.46032399 0.18574700
v 0.17531399 -0.45588300 0.18738499
v 0.18129850 -0.45563799 0.18649900
v 0.20001825 -0.45203524 0.18175375
v 0.19349249 -0.45383999 0.18365750
v 0.15652300 -0.46032399 0.18829501
v 0.16662782 -0.44986472 0.18483868
v 0.19313597 -0.43357400 0.18001011
v 0.18513502 -0.43477808 0.18213069
v 0.21509719 -0.44929909 0.16972797
v 0.21091600 -0.45292199 0.17538001
v 0.19989799 -0.43405784 0.17779753
v 0.20646107 -0.43810875 0.17631293
v 0.20328562 -0.43576754 0.17655202
v 0.21102524 -0.44126068 0.17251624
v 0.21964800 -0.44221699 0.17550600
v 0.22356600 -0.44429775 0.17346550
v 0.21576145 -0.43008064 0.17864308
v 0.20684831 -0.43441871 0.17837090
v 0.21361952 -0.43475294 0.17867025
v 0.19350773 -0.43007386 0.18439288
v 0.18188175 -0.42685256 0.18928523
v 0.17809523 -0.43249572 0.19011205
v 0.16399697 -0.44362980 0.19182255
v 0.16686211 -0.43757625 0.19233554
v 0.16106780 -0.43958785 0.19276580
v 0.20559238 -0.43161523 0.18082416
v 0.15944089 -0.43627836 0.19328170
v 0.15286971 -0.43242215 0.19366866
v 0.19185956 -0.42458923 0.18661681
v 0.15034335 -0.42768355 0.19361703
v 0.16519700 -0.43177500 0.19203199
v 0.15780699 -0.42900919 0.19207470
v 0.16091761 -0.43246286 0.19252754
v 0.21476627 -0.43935682 0.17637011
v 0.17114247 -0.42854629 0.19122528
v 0.18551165 -0.42197025 0.18760606
v 0.21574257 -0.44156094 0.17528290
v 0.16498960 -0.44763542 0.18848928
v 0.18159611 -0.43646462 0.18298308
v 0.17298385 -0.43989894 0.18723919
v 0.19724559 -0.43363896 0.17843704
v 0.18647624 -0.43160752 0.18642677
v 0.18863938 -0.43379508 0.18146110
v 0.21394999 -0.44266999 0.17339200
v 0.21321089 -0.44524872 0.17104085
v 0.23896800 -0.45640299 0.16422001
v 0.26266501 -0.44354501 0.17007401
v 0.27860476 -0.44194074 0.16671000
v 0.25426875 -0.44611299 0.16957450
v 0.30032399 -0.44305101 0.15764000
v 0.01159300 -0.48446649 0.18219749
v 0.01162400 -0.48774200 0.17982550
v 0.02668550 -0.49483250 0.17181750
v 0.30675849 -0.45721051 0.14983650
v 0.30440101 -0.45252299 0.15345401
v 0.29502550 -0.48174549 0.13849200
v 0.30443600 -0.46977201 0.14378700
v 0.28036800 -0.48865651 0.13761399
v 0.28376099 -0.48593801 0.13971600
v 0.27488225 -0.49386550 0.13321800
v 0.23568248 -0.46498161 0.16292675
v 0.24666594 -0.45265336 0.16836512
v 0.25052397 -0.45227420 0.16934388
v 0.25720932 -0.44834849 0.17038030
v 0.23309492 -0.46865377 0.16133335
v 0.24232276 -0.46805281 0.16483710
v 0.22374421 -0.48331570 0.15572511
v 0.24849744 -0.45822975 0.16855896
v 0.22771519 -0.48107020 0.15629060
v 0.24322292 -0.46435662 0.16629005
v 0.25614693 -0.45677519 0.16883237
v 0.25267669 -0.46816450 0.16500536
v 0.23622532 -0.47704695 0.15953306
v 0.26868720 -0.44619123 0.16918772
v 0.24128661 -0.47214513 0.16298310
v 0.24588600 -0.47274199 0.16253000
v 0.22648651 -0.48485624 0.15414746
v 0.23063497 -0.47294431 0.15968630
v 0.24628363 -0.47757834 0.15929000
v 0.27016080 -0.45666152 0.16626732
v 0.27325738 -0.46867948 0.15998540
v 0.25225065 -0.47345722 0.16165843
v 0.26738417 -0.46351485 0.16419856
v 0.27603864 -0.44957520 0.16701376
v 0.22420210 -0.49384107 0.14724045
v 0.27626210 -0.46900290 0.15927086
v 0.29602184 -0.46276869 0.15424358
v 0.27093550 -0.47781247 0.15402450
v 0.19523100 -0.49586150 0.15240700
v 0.20873491 -0.48491955 0.15776842
v 0.21348487 -0.48384909 0.15807035
v 0.21371232 -0.47634529 0.16099533
v 0.21724911 -0.47808214 0.16228370
v 0.22065690 -0.47487994 0.16418633
v 0.22227356 -0.45382967 0.17158014
v 0.29016415 -0.46877843 0.15336285
v 0.19008871 -0.49492354 0.15585959
v 0.27517301 -0.47982172 0.15066945
v 0.23985317 -0.49480885 0.14308199
v 0.29660539 -0.47357211 0.14650595
v 0.29210913 -0.47356587 0.14871201
v 0.30276050 -0.46228505 0.15044005
v 0.25628603 -0.48659901 0.14913867
v 0.25902479 -0.48297956 0.15243796
v 0.29027444 -0.45548724 0.15993529
v 0.30314671 -0.45839812 0.15200458
v 0.29768116 -0.45070260 0.15829010
v 0.25380882 -0.49306873 0.14175120
v 0.25478900 -0.49487201 0.13929401
v 0.28609441 -0.48020157 0.14544243
v 0.26591396 -0.49017400 0.14195808
v 0.19686651 -0.48461626 0.16474072
v 0.20403414 -0.48448453 0.16071047
v 0.19969524 -0.47174086 0.17428418
v 0.20045598 -0.46097921 0.17917612
v 0.19454196 -0.45999263 0.18184053
v 0.18026153 -0.45861098 0.18626265
v 0.27921068 -0.48369503 0.14496908
v 0.16920662 -0.49446773 0.16561675
v 0.20584180 -0.45947333 0.17715255
v 0.21332309 -0.46561393 0.16927308
v 0.27074774 -0.49133527 0.13846906
v 0.18730358 -0.48976111 0.16369279
v 0.21049192 -0.47255048 0.16685956
v 0.20540970 -0.47853680 0.16599474
v 0.20762350 -0.49575349 0.14871700
v 0.23443800 -0.49584901 0.14272401
v 0.24554600 -0.49489799 0.14179499
v 0.20819335 -0.45562096 0.17706864
v 0.18462799 -0.49584499 0.15702550
v 0.21620221 -0.46943589 0.16394631
v 0.21661816 -0.46476282 0.16539268
v 0.21324853 -0.45600530 0.17248580
v 0.21694817 -0.45952302 0.16655940
v 0.04809541 -0.47532792 0.18454275
v 0.03783348 -0.48251752 0.18179373
v 0.05820526 -0.47175478 0.18442463
v 0.03620112 -0.47712726 0.18549964
v 0.01824612 -0.48669332 0.18071257
v 0.05266619 -0.48398644 0.17695156
v 0.05358116 -0.48601740 0.17446559
v 0.03508261 -0.49015633 0.17539914
v 0.06140167 -0.48393736 0.17351486
v 0.06387500 -0.48084301 0.17529200
v 0.06133984 -0.49468589 0.16199831
v 0.06412177 -0.47743177 0.17825420
v 0.07193889 -0.49429070 0.16048893
v 0.07498863 -0.48953297 0.16441586
v 0.08042406 -0.48503600 0.16879566
v 0.08094576 -0.48311766 0.17073438
v 0.08047913 -0.48037422 0.17318312
v 0.07926944 -0.47382977 0.17709458
v 0.04469681 -0.49413548 0.16798407
v 0.07874237 -0.49485449 0.15977610
v 0.08457638 -0.47821869 0.17302789
v 0.10044013 -0.49518700 0.16051837
v 0.08126284 -0.49354870 0.16065745
v 0.09272200 -0.49148700 0.16302800
v 0.08601814 -0.46845239 0.17963933
v 0.07164389 -0.48644150 0.16690597
v 0.08473091 -0.48327207 0.16888303
v 0.08471773 -0.46645563 0.18094820
v 0.06471349 -0.47245457 0.18151415
v 0.08699300 -0.47564399 0.17283501
v 0.05001400 -0.49487901 0.16546001
v 0.09313119 -0.48733321 0.16688484
v 0.08226964 -0.46795114 0.18050718
v 0.07026843 -0.47024123 0.17991348
v 0.13072731 -0.48580283 0.17573816
v 0.15904674 -0.48678434 0.17588725
v 0.13715065 -0.47487457 0.18398111
v 0.14206824 -0.48751379 0.17538174
v 0.13365478 -0.47364413 0.18479549
v 0.13472182 -0.48174311 0.17959459
v 0.11470343 -0.47412646 0.18189723
v 0.09472069 -0.47888212 0.17388930
v 0.10721414 -0.48067305 0.17602535
v 0.07476541 -0.48291978 0.17032835
v 0.14008833 -0.46860956 0.18714309
v 0.16026691 -0.48025393 0.18104576
v 0.14254800 -0.49372353 0.16932180
v 0.17385562 -0.48623392 0.17340496
v 0.14111937 -0.49491740 0.16732720
v 0.16195909 -0.49065423 0.17145671
v 0.10158567 -0.47224325 0.18005199
v 0.18064365 -0.48607339 0.17097995
v 0.12883224 -0.46170263 0.18933747
v 0.14942957 -0.47017998 0.18676070
v 0.18258661 -0.47372566 0.17959000
v 0.10118386 -0.46632598 0.18264882
v 0.11100699 -0.46244101 0.18676665
v 0.18684686 -0.48355817 0.17065546
v 0.17465007 -0.46748363 0.18470043
v 0.08019787 -0.46479174 0.18131949
v 0.15321815 -0.46495302 0.18826249
v 0.15700511 -0.47475068 0.18436735
v 0.16236669 -0.46821420 0.18563311
v 0.19794001 -0.46914500 0.17626999
v 0.09177777 -0.48020561 0.17134039
v 0.07503450 -0.49582050 0.15846500
v 0.14850125 -0.49576587 0.16575050
v 0.17125399 -0.49584100 0.16244800
v 0.16721706 -0.46783576 0.18569823
v 0.16571499 -0.49570701 0.16412400
v 0.07392164 -0.47480525 0.17322092
v 0.07536560 -0.46765099 0.17613157
v 0.07550216 -0.46396609 0.17737410
v 0.07608222 -0.46158075 0.17928317
v 0.08886319 -0.47257980 0.17353571
f 1 30 3
f 33 3 30
f 33 30 29
f 33 29 26
f 33 26 21
f 23 33 21
f 25 33 23
f 25 11 33
f 11 9 33
f 33 9 3
f 10 9 11
f 10 11 12
f 12 11 13
f 11 25 32
f 13 11 32
f 13 32 35
f 32 28 35
f 18 35 28
f 18 28 17
f 17 28 20
f 28 19 20
f 27 17 20
f 28 32 19
f 32 21 19
f 18 13 35
f 25 23 32
f 23 21 32
f 26 29 21
f 21 29 24
f 29 31 24
f 24 31 6
f 2 6 31
f 31 16 2
f 30 16 31
f 24 6 36
f 24 36 60
f 24 60 55
f 60 56 55
f 262 55 56
f 262 56 248
f 262 248 257
f 263 262 257
f 263 57 262
f 58 57 263
f 259 58 263
f 259 263 245
f 263 247 245
f 243 245 247
f 243 247 246
f 246 247 249
f 247 257 249
f 246 249 241
f 241 249 253
f 249 228 253
f 255 253 228
f 253 255 273
f 191 253 273
f 191 273 276
f 191 276 274
f 191 274 202
f 191 202 169
f 169 202 161
f 195 191 169
f 258 191 195
f 184 258 195
f 197 258 184
f 197 264 258
f 261 258 264
f 186 261 264
f 270 261 186
f 187 261 270
f 188 261 187
f 265 261 188
f 261 265 252
f 275 252 265
f 189 275 265
f 73 275 189
f 73 71 275
f 71 72 275
f 72 269 275
f 72 77 269
f 77 267 269
f 77 61 267
f 59 267 61
f 267 59 259
f 267 259 260
f 267 260 268
f 269 267 268
f 275 269 268
f 268 260 245
f 260 251 245
f 260 259 251
f 73 189 74
f 76 74 189
f 76 189 188
f 75 76 188
f 82 75 188
f 275 268 252
f 268 246 252
f 252 246 244
f 252 244 242
f 254 252 242
f 254 242 256
f 254 256 191
f 256 242 253
f 242 244 253
f 261 252 254
f 188 189 265
f 188 187 201
f 192 201 187
f 201 192 193
f 201 193 205
f 82 201 205
f 82 205 81
f 205 193 81
f 81 193 206
f 206 193 204
f 193 164 204
f 196 164 193
f 193 197 196
f 193 186 197
f 164 196 197
f 197 162 164
f 197 185 162
f 162 185 161
f 185 184 161
f 163 162 161
f 164 162 163
f 165 164 163
f 166 164 165
f 203 164 166
f 167 203 166
f 167 204 203
f 206 204 167
f 81 206 167
f 87 81 167
f 87 117 81
f 109 117 87
f 109 116 117
f 116 86 117
f 109 86 116
f 87 50 109
f 50 106 109
f 106 84 109
f 50 84 106
f 50 91 84
f 91 90 84
f 90 85 84
f 90 83 85
f 113 83 90
f 98 113 90
f 98 79 113
f 92 79 98
f 92 115 79
f 92 80 115
f 80 92 111
f 114 111 92
f 114 94 111
f 94 112 111
f 94 110 112
f 110 78 112
f 110 34 78
f 110 95 34
f 94 95 110
f 94 96 95
f 96 97 95
f 99 97 96
f 94 99 96
f 107 99 94
f 107 103 99
f 107 105 103
f 37 105 107
f 37 107 108
f 108 107 93
f 101 108 93
f 53 108 101
f 53 40 108
f 108 40 43
f 45 40 53
f 47 45 53
f 45 47 89
f 47 101 89
f 101 92 89
f 89 92 98
f 46 45 89
f 46 89 48
f 48 89 50
f 48 50 49
f 49 50 51
f 51 50 88
f 88 52 51
f 54 51 52
f 51 54 42
f 42 54 41
f 48 51 42
f 48 49 51
f 45 46 48
f 45 39 40
f 45 38 39
f 38 45 42
f 101 47 53
f 101 93 92
f 92 93 94
f 43 37 108
f 37 104 105
f 104 100 105
f 105 100 99
f 99 100 69
f 100 4 69
f 8 4 100
f 8 100 102
f 44 8 102
f 104 44 102
f 69 4 17
f 95 69 17
f 70 69 95
f 95 17 34
f 99 69 70
f 99 70 95
f 102 100 104
f 37 44 104
f 103 105 99
f 93 107 94
f 94 114 92
f 79 115 80
f 89 98 90
f 83 113 85
f 89 91 50
f 89 90 91
f 88 50 87
f 204 164 203
f 163 161 149
f 163 149 139
f 141 139 149
f 145 141 149
f 145 149 151
f 151 149 157
f 151 157 175
f 175 157 171
f 175 171 180
f 175 180 181
f 181 180 200
f 175 181 132
f 171 200 180
f 157 198 171
f 171 198 199
f 157 161 198
f 176 151 175
f 176 175 183
f 190 176 183
f 190 183 194
f 190 194 130
f 130 194 132
f 131 190 130
f 190 131 128
f 182 190 128
f 170 190 182
f 158 170 182
f 173 158 182
f 172 173 182
f 172 168 173
f 159 168 172
f 174 159 172
f 174 172 129
f 129 178 174
f 179 174 178
f 127 179 178
f 122 179 127
f 122 120 179
f 120 156 179
f 179 156 177
f 177 159 179
f 159 177 158
f 156 158 177
f 156 152 158
f 158 152 155
f 155 153 158
f 153 160 158
f 153 144 160
f 144 176 160
f 170 160 176
f 144 154 176
f 144 151 154
f 144 148 151
f 151 148 147
f 144 147 148
f 144 138 147
f 138 150 147
f 147 150 141
f 142 150 138
f 142 133 150
f 133 137 150
f 140 133 142
f 134 133 140
f 135 134 140
f 136 135 140
f 143 136 140
f 143 140 144
f 143 144 155
f 140 142 144
f 136 143 156
f 146 136 156
f 119 136 146
f 119 146 120
f 119 121 136
f 121 134 136
f 134 135 136
f 134 118 133
f 142 138 144
f 153 155 144
f 152 143 155
f 156 143 152
f 120 146 156
f 127 178 126
f 126 178 129
f 129 172 128
f 179 159 174
f 159 158 168
f 168 158 173
f 158 160 170
f 172 182 128
f 194 183 132
f 170 176 190
f 176 154 151
f 147 145 151
f 145 147 141
f 150 139 141
f 157 149 161
f 192 186 193
f 187 186 192
f 187 270 186
f 258 261 254
f 186 264 197
f 197 184 185
f 184 195 161
f 258 254 191
f 195 169 161
f 256 253 191
f 255 228 273
f 249 238 228
f 248 238 249
f 248 271 238
f 248 281 271
f 271 281 233
f 271 233 238
f 238 233 228
f 233 230 228
f 230 233 229
f 233 220 229
f 221 220 233
f 227 221 233
f 236 227 233
f 281 236 233
f 281 227 236
f 231 227 281
f 62 231 281
f 231 223 227
f 231 239 223
f 234 239 231
f 62 239 234
f 62 266 239
f 239 266 224
f 266 278 224
f 280 278 266
f 280 279 278
f 266 63 280
f 278 277 224
f 250 224 277
f 250 277 232
f 224 250 223
f 223 250 232
f 223 232 220
f 220 232 219
f 232 217 219
f 232 225 217
f 232 214 225
f 213 214 232
f 212 213 232
f 215 212 232
f 216 215 232
f 218 216 232
f 240 218 232
f 240 232 277
f 278 240 277
f 66 240 278
f 66 278 279
f 280 66 279
f 63 66 280
f 240 66 209
f 240 209 235
f 235 209 212
f 235 212 218
f 208 212 209
f 212 208 214
f 208 211 214
f 214 211 125
f 124 125 211
f 123 124 211
f 67 123 211
f 67 211 210
f 68 67 210
f 68 210 209
f 209 210 207
f 208 207 210
f 210 211 208
f 207 208 209
f 66 68 209
f 235 218 240
f 216 218 215
f 218 212 215
f 213 212 214
f 225 214 125
f 225 125 237
f 225 237 217
f 219 217 272
f 229 219 272
f 223 220 222
f 62 63 266
f 64 63 62
f 64 15 63
f 14 15 64
f 65 64 62
f 5 64 65
f 7 5 65
f 14 64 5
f 231 62 234
f 239 224 223
f 223 222 227
f 227 222 221
f 221 222 220
f 219 229 220
f 228 230 229
f 229 226 228
f 228 226 272
f 244 241 253
f 246 241 244
f 268 243 246
f 245 243 268
f 251 259 245
f 59 58 259
f 57 24 262
f 263 257 247
f 249 257 248
f 56 281 248
f 55 262 24
f 21 24 22
f 20 21 22
f 30 31 29
f 30 1 16
f 16 1 2

