v -0.00314449 0.463097 -0.016609
v -0.0540512 0.430812 0.0168111
v -0.0281442 0.45873 -0.00756485
v -0.0158309 0.458211 -0.00694526
v -0.0136699 0.46181 -0.0189249
v 0.00586096 0.460719 -0.0104691
v 0.0113226 0.460053 -0.0103691
v 0.0167332 0.457805 -0.00505989
v -0.0542163 0.434699 0.020249
v -0.0510935 0.441641 0.0119246
v -0.0527091 0.438196 0.0160972
v -0.0515423 0.437692 0.00850222
v -0.0496272 0.440712 0.00450857
v -0.0528821 0.434268 0.0127061
v -0.0492487 0.444955 0.00775387
v -0.0465907 0.447563 0.00357817
v -0.0440434 0.450218 -0.00059505
v 0.0167842 0.459386 -0.010269
v 0.0221948 0.457138 -0.00495983
v -0.0335865 0.447162 0.0103403
v -0.0501367 0.441052 0.0196805
v -0.0520618 0.411004 0.0439647
v -0.0149475 0.450932 -0.0256367
v -0.0529098 0.415937 0.0414948
v -0.015112 0.456235 -0.0244067
v -0.00352309 0.460186 -0.0231412
v -0.00884861 0.460565 -0.0226625
v -0.0095867 0.456305 -0.0255757
v -0.00422316 0.455804 -0.0259092
v -0.00999453 0.451157 -0.0270152
v 0.00176438 0.459495 -0.0230914
v 0.0070107 0.458 -0.0218046
v 0.00635003 0.453359 -0.0242909
v 0.00102144 0.454473 -0.0248486
v -0.044699 0.445856 -0.00361172
v -0.054044 0.420147 0.0379334
v -0.047292 0.443424 0.000464257
v -0.0435594 0.450135 0.00711822
v -0.0458534 0.447182 0.0113135
v -0.0481475 0.44423 0.0155088
v -0.0410121 0.452609 0.00282936
v -0.0338359 0.454629 0.00133636
v -0.0236178 0.45765 -0.00489174
v -0.0312619 0.457067 -0.00289292
v -0.0134478 0.460948 -0.0105216
v -0.0210289 0.460111 -0.0088514
v -0.0104143 0.462203 -0.0151885
v -0.0176841 0.461309 -0.013768
v 0.011724 0.461465 -0.0157993
v 0.00676784 0.462009 -0.0160692
v 0.00181167 0.462553 -0.0163391
v -0.00564389 0.461826 -0.0127867
v -9.89498e-05 0.461239 -0.0114749
v 0.0219955 0.455063 4.44751e-05
v 0.010994 0.457548 -0.00554335
v 0.0164762 0.454423 -0.00036955
v 0.0226165 0.451108 0.00469449
v 0.0278801 0.452161 0.00475929
v 0.028821 0.448977 0.00895233
v -0.0537347 0.424792 0.0346836
v 0.0340435 0.449604 0.00844155
v 0.0350897 0.44667 0.0129136
v 0.0360621 0.443306 0.0170085
v -0.0532363 0.429319 0.0313434
v 0.0297969 0.445802 0.0132863
v 0.0307585 0.44232 0.0174014
v -0.0523467 0.433402 0.0275919
v -0.0513221 0.437325 0.0237049
v -0.0486573 0.397174 0.0695483
v 0.0275587 0.455064 5.08939e-05
v 0.00499241 0.457412 -0.00648161
v -0.0012222 0.458264 -0.00772717
v -0.0074575 0.459238 -0.0090111
v -0.0262044 0.455216 -0.000770626
v -0.0288004 0.452698 0.00307978
v -0.0313491 0.449787 0.00649056
v -0.036409 0.452144 0.00546072
v -0.0386177 0.449333 0.00924466
v -0.0407861 0.446307 0.0131183
v -0.0429662 0.443265 0.0170015
v -0.0450532 0.440178 0.0208894
v -0.0460586 0.43655 0.0248315
v -0.0470639 0.432923 0.0287737
v -0.0480692 0.429295 0.0327158
v -0.0418498 0.431847 0.0292628
v -0.0399373 0.439654 0.0224216
v -0.035788 0.44474 0.0143698
v -0.0379628 0.442323 0.0184557
v -0.0427472 0.428192 0.0329234
v -0.0433945 0.424442 0.0362676
v -0.0438149 0.420408 0.0395592
v -0.0441244 0.416053 0.0427025
v -0.0444108 0.411645 0.0458363
v -0.0494745 0.416562 0.0428395
v -0.0497608 0.412154 0.0459733
v -0.0489233 0.425313 0.0364687
v -0.0491913 0.42096 0.0396902
v -0.0450922 0.397049 0.0641972
v -0.0415272 0.396924 0.0588462
v -0.040361 0.396317 0.0594504
v -0.0443442 0.394407 0.0698107
v -0.0372407 0.394514 0.0595247
v -0.0385346 0.393098 0.0649786
v -0.0397353 0.391569 0.0700722
v -0.0431556 0.395913 0.0647178
f 11 14 2 9
f 12 14 11 10
f 40 39 15 10
f 15 13 12 10
f 15 16 37 13
f 39 38 16 15
f 17 35 37 16
f 25 28 30 23
f 29 28 27 26
f 31 34 29 26
f 32 33 34 31
f 39 79 78 38
f 78 77 41 38
f 40 80 79 39
f 21 81 80 40
f 77 76 75 42
f 75 74 44 42
f 3 44 74 43
f 48 46 4 45
f 73 52 47 45
f 47 5 48 45
f 50 6 7 49
f 51 53 6 50
f 1 52 53 51
f 73 72 53 52
f 72 71 6 53
f 57 58 70 54
f 19 8 56 54
f 8 18 7 55
f 7 6 71 55
f 65 62 61 59
f 65 66 63 62
f 77 78 20 76
f 80 88 87 79
f 81 86 88 80
f 21 68 82 81
f 68 67 83 82
f 67 64 84 83
f 84 89 85 83
f 64 60 96 84
f 96 90 89 84
f 96 97 91 90
f 97 94 92 91
f 94 95 93 92
f 24 22 95 94
f 97 36 24 94
f 60 36 97 96
f 100 105 103 102
f 105 101 104 103
f 98 69 101 105
f 100 99 98 105
