# https://github.com/mikedh/trimesh
v 0.09269112 -0.42692285 0.16868999
v 0.10496200 -0.42066500 0.17346500
v 0.12592600 -0.41604650 0.18087900
v 0.14631626 -0.41817599 0.18339150
v 0.16093151 -0.42758950 0.19012725
v 0.06643700 -0.42162400 0.16248600
v 0.05545100 -0.41904349 0.15294901
v 0.05293100 -0.41684401 0.14676400
v 0.06233650 -0.40909851 0.14193949
v 0.07016600 -0.40480801 0.13982201
v 0.29172900 -0.41792801 0.12001800
v 0.27262500 -0.41895825 0.12828725
v 0.28338900 -0.41884300 0.12448400
v 0.25788051 -0.41903275 0.13158225
v 0.23918425 -0.41957900 0.13492651
v 0.16001500 -0.41522500 0.13736300
v 0.19233300 -0.41832974 0.13784525
v 0.14365837 -0.41126296 0.13577597
v 0.11715100 -0.40600801 0.13367200
v 0.27685650 -0.41892600 0.12696100
v 0.10787700 -0.40315500 0.13276900
v 0.08162275 -0.39516091 0.13245975
v 0.22526021 -0.43382429 0.16817337
v 0.21918499 -0.42620301 0.17195299
v 0.22361422 -0.43132942 0.17034009
v 0.22764270 -0.43688319 0.16093564
v 0.22109498 -0.42935678 0.15545640
v 0.21861472 -0.42468444 0.16913895
v 0.21611947 -0.42308939 0.16673803
v 0.22562229 -0.43389067 0.15780247
v 0.21127458 -0.41982701 0.16965869
v 0.20746578 -0.41893344 0.17683810
v 0.21085100 -0.42084101 0.17630500
v 0.22836888 -0.44129204 0.16696657
v 0.21957254 -0.42825590 0.15284941
v 0.23382300 -0.43597650 0.16901400
v 0.19541622 -0.41678557 0.17328834
v 0.19158670 -0.41734076 0.17063046
v 0.18818308 -0.42198488 0.15345119
v 0.16887273 -0.42130134 0.15679969
v 0.17895204 -0.42110801 0.15784644
v 0.19653781 -0.42252519 0.15279750
v 0.16712504 -0.42116245 0.16667284
v 0.20242367 -0.42355888 0.15147749
v 0.20584234 -0.42424765 0.15076815
v 0.20275530 -0.41820270 0.16842117
v 0.16372646 -0.42148325 0.16682466
v 0.18646259 -0.41673970 0.17638064
v 0.20900501 -0.42491296 0.15023156
v 0.17840992 -0.41850201 0.17069116
v 0.17853196 -0.41784427 0.17770362
v 0.17739284 -0.42145474 0.14926757
v 0.16108421 -0.42064794 0.15792591
v 0.13218322 -0.41842917 0.16408216
v 0.13587204 -0.41755106 0.17080653
v 0.13112575 -0.41894786 0.15725204
v 0.12879354 -0.41565546 0.18091552
v 0.13880748 -0.41708150 0.17596638
v 0.14701707 -0.41928777 0.16665952
v 0.10772576 -0.42066686 0.16012283
v 0.10879464 -0.42013869 0.16895545
v 0.12458044 -0.41923364 0.15374483
v 0.15215362 -0.42002843 0.16484440
v 0.19279540 -0.41663842 0.17855858
v 0.16297700 -0.42232299 0.17630100
v 0.20815594 -0.41885648 0.17081110
v 0.18321000 -0.41729000 0.17975600
v 0.20434123 -0.41752541 0.17353452
v 0.13334279 -0.41844550 0.14740011
v 0.10272315 -0.42181833 0.16467607
v 0.21282063 -0.42582710 0.15057734
v 0.21130801 -0.42475741 0.15377893
v 0.21249658 -0.42231217 0.16277682
v 0.17406850 -0.41892942 0.17926769
v 0.15806820 -0.42148660 0.17354372
v 0.16143986 -0.42353680 0.18277741
v 0.11473613 -0.41965650 0.15480762
v 0.15126074 -0.41930985 0.17851006
v 0.09382405 -0.42525603 0.16630058
v 0.21234640 -0.42448037 0.14654597
v 0.15016859 -0.41930115 0.14716416
v 0.09123423 -0.41607175 0.14699029
v 0.16478598 -0.42201763 0.17987811
v 0.19751683 -0.42321425 0.14744436
v 0.10079967 -0.42163770 0.16076830
v 0.09500443 -0.41814661 0.15129600
v 0.11620104 -0.41623601 0.14519531
v 0.18878000 -0.42067109 0.14216891
v 0.07096192 -0.42084566 0.15929723
v 0.06159848 -0.41780023 0.14969276
v 0.17483909 -0.41824870 0.13975991
v 0.20915374 -0.42109718 0.14001682
v 0.18895212 -0.41722535 0.18162954
v 0.15757560 -0.41881039 0.14383516
v 0.19898182 -0.41738897 0.17947423
v 0.22139990 -0.42709837 0.14951875
v 0.24706623 -0.42079403 0.13570431
v 0.27371361 -0.42111806 0.13190594
v 0.23081176 -0.42965207 0.15195700
v 0.28892159 -0.42264543 0.12876101
v 0.29272699 -0.42210701 0.12544000
v 0.17389960 -0.42054696 0.18533775
v 0.13466182 -0.41645118 0.14304221
v 0.29840137 -0.42375038 0.12542087
v 0.17798229 -0.41871454 0.18377863
v 0.16855441 -0.42292579 0.18685621
v 0.13747060 -0.41341495 0.13849779
v 0.10989166 -0.41362287 0.14320435
v 0.16076829 -0.42579918 0.18811805
v 0.08401500 -0.41525701 0.14636800
v 0.17928034 -0.42050703 0.18632718
v 0.22843845 -0.43496769 0.15876070
v 0.10304597 -0.40325801 0.13398018
v 0.19632950 -0.41931675 0.18227275
v 0.10129621 -0.41346530 0.14402990
v 0.06860319 -0.41573026 0.14672014
v 0.08564687 -0.40083376 0.13644476
v 0.08200809 -0.40324437 0.13872692
v 0.17483100 -0.42282599 0.18813600
v 0.22858438 -0.43883850 0.16464275
v 0.23155400 -0.43107403 0.15805558
v 0.22980719 -0.43291666 0.15707449
v 0.23801023 -0.42686881 0.16676347
v 0.23865557 -0.42478352 0.15990718
v 0.24043928 -0.42381742 0.16497028
v 0.24766649 -0.42328151 0.17040449
v 0.24928342 -0.41969750 0.16628419
v 0.24060181 -0.42503672 0.16805514
v 0.24100296 -0.42329129 0.15913192
v 0.24995627 -0.41868483 0.16307016
v 0.23603130 -0.42780906 0.14938354
v 0.24016927 -0.42529771 0.15199134
v 0.24323517 -0.42537275 0.14464922
v 0.25645383 -0.41690902 0.16631665
v 0.25496702 -0.41819399 0.15656360
v 0.25419013 -0.42362415 0.14077988
v 0.24624412 -0.42136104 0.15632742
v 0.25736622 -0.41626100 0.16213686
v 0.26879917 -0.41505501 0.15657344
v 0.27976576 -0.41375659 0.15758745
v 0.25090329 -0.42400240 0.14321596
v 0.26613421 -0.42251380 0.13737751
v 0.26846390 -0.42150117 0.13928000
v 0.27505261 -0.41569780 0.15161171
v 0.27852142 -0.41549405 0.15084285
v 0.28978249 -0.41677862 0.14461890
v 0.27096341 -0.41469081 0.16376706
v 0.28010383 -0.42224597 0.13281083
v 0.27595914 -0.42223335 0.13373103
v 0.29123284 -0.42225024 0.13143718
v 0.29237336 -0.41514720 0.14921713
v 0.29415251 -0.42318008 0.12894580
v 0.30665884 -0.41906676 0.13972216
v 0.29569531 -0.41504081 0.15101256
v 0.29980528 -0.42333037 0.12964899
v 0.27658974 -0.41429362 0.16187192
v 0.30354552 -0.41685973 0.14470296
v 0.30346650 -0.42518976 0.12546075
v 0.31520599 -0.42952400 0.12596001
v 0.28915607 -0.41424639 0.15704605
v 0.30768431 -0.41807544 0.14714322
v 0.30106351 -0.41590808 0.15136075
v 0.25975338 -0.41703306 0.16761995
v 0.31407540 -0.42301190 0.13541087
v 0.31956814 -0.42726226 0.13553600
v 0.31161776 -0.41982365 0.14381700
v 0.31260621 -0.42064544 0.14148392
v 0.28507308 -0.41481899 0.16092312
v 0.31743408 -0.42459730 0.14049016
v 0.26830325 -0.41571846 0.16665166
v 0.25875500 -0.41877950 0.16947049
v 0.30390532 -0.41716931 0.15285545
v 0.31438599 -0.42389937 0.14485375
v 0.27739999 -0.41658601 0.16549200
v 0.26217201 -0.41862100 0.16958600
v 0.28331101 -0.41683450 0.16377550
v 0.29431900 -0.41690450 0.15902200
v 0.22726500 -0.45045400 0.16999100
v 0.22840938 -0.44527816 0.16870759
f 77 86 60
f 77 82 86
f 86 82 90
f 86 90 89
f 89 90 6
f 90 7 6
f 7 90 8
f 116 8 90
f 9 8 116
f 116 118 9
f 118 116 115
f 108 118 115
f 117 118 108
f 117 22 118
f 22 10 118
f 113 22 117
f 22 113 21
f 113 19 21
f 107 19 113
f 87 107 113
f 87 113 108
f 87 108 82
f 69 87 82
f 81 87 69
f 81 94 87
f 87 94 103
f 94 91 103
f 91 16 103
f 107 103 16
f 18 107 16
f 17 16 91
f 17 91 92
f 92 91 88
f 92 88 80
f 35 92 80
f 96 92 35
f 96 99 92
f 131 92 99
f 131 99 121
f 131 97 92
f 133 97 131
f 133 136 97
f 136 98 97
f 136 142 98
f 142 136 143
f 143 136 141
f 139 143 141
f 144 143 139
f 144 145 143
f 140 145 144
f 151 145 140
f 151 146 145
f 151 157 146
f 154 157 151
f 162 157 154
f 161 157 162
f 172 161 162
f 162 160 172
f 172 160 168
f 177 172 168
f 177 168 176
f 168 170 176
f 176 170 174
f 170 168 156
f 170 156 147
f 147 138 170
f 170 138 134
f 170 134 163
f 170 163 171
f 175 170 171
f 171 163 134
f 171 134 126
f 134 128 126
f 127 128 134
f 128 127 125
f 128 125 121
f 123 128 121
f 121 122 123
f 123 122 36
f 128 123 36
f 128 36 126
f 36 122 120
f 122 112 120
f 112 122 99
f 112 26 120
f 120 26 34
f 112 30 26
f 112 99 30
f 30 99 35
f 34 36 120
f 36 34 179
f 36 179 178
f 121 99 122
f 125 124 121
f 125 129 124
f 130 129 125
f 130 132 129
f 137 132 130
f 137 133 132
f 137 141 133
f 135 141 137
f 138 135 137
f 132 133 131
f 138 137 130
f 132 131 129
f 129 131 124
f 124 131 121
f 127 130 125
f 134 130 127
f 130 134 138
f 147 140 138
f 140 139 138
f 156 140 147
f 168 140 156
f 140 168 160
f 166 161 172
f 172 173 166
f 173 169 166
f 166 169 167
f 169 164 167
f 165 164 169
f 165 159 164
f 164 159 104
f 164 104 153
f 167 164 153
f 166 167 153
f 157 166 153
f 153 152 157
f 157 152 150
f 150 152 148
f 150 148 146
f 146 148 142
f 153 155 152
f 155 104 152
f 152 104 100
f 148 152 100
f 148 100 98
f 149 148 98
f 149 142 148
f 100 101 98
f 100 158 101
f 101 11 98
f 161 166 157
f 160 162 154
f 154 151 160
f 157 150 146
f 146 142 145
f 160 151 140
f 140 144 139
f 138 139 141
f 141 136 133
f 149 98 142
f 98 14 97
f 12 14 98
f 12 98 20
f 98 13 20
f 14 15 97
f 92 97 15
f 99 96 35
f 35 80 71
f 71 80 49
f 49 80 84
f 49 84 45
f 44 45 84
f 42 44 84
f 42 84 39
f 39 84 40
f 84 52 40
f 52 84 94
f 40 52 53
f 52 81 53
f 40 53 47
f 47 53 65
f 65 53 75
f 76 65 75
f 109 76 75
f 106 76 109
f 106 109 119
f 119 109 5
f 5 109 4
f 111 106 119
f 102 106 111
f 111 105 102
f 114 105 111
f 93 105 114
f 114 95 93
f 114 32 95
f 114 33 32
f 64 93 95
f 95 37 64
f 95 68 37
f 32 68 95
f 32 31 68
f 31 66 68
f 66 46 68
f 66 31 46
f 31 44 46
f 31 72 44
f 31 73 72
f 73 29 72
f 29 35 72
f 27 35 29
f 30 35 27
f 28 27 29
f 28 29 31
f 26 27 28
f 25 26 28
f 24 25 28
f 24 28 32
f 24 32 33
f 25 23 26
f 23 34 26
f 23 25 34
f 26 30 27
f 31 29 73
f 31 32 28
f 68 46 37
f 37 46 39
f 37 39 38
f 39 41 38
f 64 37 48
f 37 50 48
f 48 50 51
f 51 50 43
f 51 43 74
f 105 51 74
f 105 74 83
f 105 83 106
f 105 106 102
f 67 51 105
f 93 67 105
f 74 43 83
f 43 47 83
f 50 41 43
f 41 40 43
f 93 48 51
f 37 41 50
f 64 48 93
f 106 65 76
f 75 53 63
f 78 75 63
f 75 78 109
f 109 78 4
f 78 59 4
f 4 59 58
f 59 56 58
f 59 63 56
f 58 56 55
f 57 58 55
f 57 55 54
f 57 54 56
f 57 56 60
f 57 60 61
f 60 70 61
f 61 70 2
f 2 70 79
f 70 85 79
f 79 85 89
f 2 79 1
f 60 85 70
f 57 61 2
f 3 57 2
f 55 56 54
f 4 58 57
f 78 63 59
f 63 53 56
f 53 62 56
f 77 56 62
f 62 69 77
f 53 69 62
f 83 47 65
f 43 40 47
f 41 39 40
f 46 42 39
f 46 44 42
f 72 45 44
f 72 49 45
f 72 71 49
f 35 71 72
f 80 88 84
f 84 88 91
f 15 17 92
f 84 91 94
f 52 94 81
f 53 81 69
f 103 107 87
f 18 19 107
f 113 117 108
f 108 115 82
f 115 110 82
f 82 110 116
f 115 116 110
f 118 10 9
f 79 89 6
f 1 79 6
f 85 86 89
f 116 90 82
f 77 69 82
f 60 86 85
f 56 77 60

