# https://github.com/mikedh/trimesh
v -0.13656000 0.12146338 -0.01790950
v -0.15790001 0.11044800 -0.01663400
v -0.11492212 0.14060947 -0.03182870
v -0.12533399 0.12888999 -0.02199800
v -0.12033850 0.13109900 -0.02325600
v -0.10129000 0.14359701 -0.03281700
v -0.09602300 0.14648550 -0.03493150
v -0.07896100 0.15157500 -0.03505150
v -0.09876100 0.14325075 -0.03191500
v -0.10792900 0.13945600 -0.02944900
v -0.08252225 0.15194726 -0.03652950
v -0.08893239 0.15297329 -0.04134707
v -0.07182690 0.15976018 -0.04014151
v -0.04806768 0.17229447 -0.04074536
v -0.05643719 0.17052375 -0.04351271
v -0.04356321 0.17719424 -0.04403627
v -0.10162516 0.14901688 -0.04198841
v -0.03249283 0.18354562 -0.04736023
v -0.02139737 0.18615264 -0.04508319
v -0.01422750 0.18571200 -0.04302500
v -0.03362800 0.17924300 -0.04184700
v 0.00278513 0.18854575 -0.04676925
v -0.03501646 0.18100635 -0.04407600
v -0.01094835 0.18907261 -0.04667875
v -0.05669825 0.16497225 -0.03821575
v -0.03922837 0.17505637 -0.04035162
v -0.16763650 0.09677500 -0.01158700
v 0.01629348 0.18643504 -0.05165282
v -0.08252573 0.15727219 -0.04460670
v -0.09780395 0.15051296 -0.04586447
v -0.09647610 0.15033848 -0.04230775
v -0.04218825 0.17951120 -0.04870422
v -0.05566963 0.17255608 -0.04877683
v -0.07890986 0.15937784 -0.05094705
v -0.13494176 0.13579474 -0.04385096
v -0.03953825 0.18061891 -0.05195414
v -0.05743811 0.17147747 -0.05109983
v -0.09205407 0.15258414 -0.05173417
v -0.11640384 0.14313355 -0.04967579
v -0.13329189 0.13582728 -0.04843378
v -0.02443690 0.18660706 -0.04927098
v -0.02722100 0.18510000 -0.05239200
v -0.14723840 0.12927018 -0.04432476
v -0.01917700 0.18738700 -0.05246900
v -0.14730600 0.12793850 -0.04916650
v -0.12899037 0.13674788 -0.05169538
v -0.08655506 0.15515331 -0.05429944
v -0.00901100 0.18933700 -0.05021900
v -0.18229001 0.08104600 -0.01130400
v -0.19261800 0.06159400 -0.00775600
v -0.21147200 0.01905100 -0.00544500
v -0.20555501 0.03093000 -0.00443900
v -0.21589875 0.00684525 -0.00545300
v -0.22374825 -0.01907825 -0.00580625
v -0.14347000 0.11953300 -0.06599600
v -0.12698250 0.13174925 -0.06274250
v -0.11667400 0.13773200 -0.06146100
v -0.08783100 0.15268700 -0.05779100
v -0.08172800 0.15546800 -0.05818900
v -0.07155650 0.16094600 -0.05786950
v -0.05568100 0.17039700 -0.05666500
v -0.03619003 0.18122774 -0.05397860
v -0.23248950 -0.06168575 -0.00456100
v 0.01431252 0.18449029 -0.05763903
v 0.03263427 0.17824101 -0.05704406
v 0.00713437 0.18805914 -0.05355186
v 0.05692300 0.16596501 -0.05668300
v 0.03839350 0.17748401 -0.05285050
v 0.03920335 0.17396098 -0.05905674
v 0.07382420 0.15263799 -0.06309732
v 0.03197368 0.17532677 -0.06099771
v 0.09290168 0.14294535 -0.06402850
v 0.08083150 0.15090038 -0.06121200
v 0.10817600 0.13681200 -0.06353200
v 0.04215868 0.16447633 -0.06681219
v 0.07103901 0.14906560 -0.06812112
v 0.01483231 0.18001958 -0.06195034
v 0.02184146 0.17516168 -0.06432592
v 0.05223377 0.15564367 -0.06985760
v 0.08605500 0.14367150 -0.06669200
v 0.00511630 0.18014343 -0.06366465
v 0.03767819 0.15983331 -0.07121878
v 0.01808835 0.16791009 -0.07019714
v 0.02189951 0.16358957 -0.07195885
v 0.00807537 0.17234851 -0.06859933
v -0.00044616 0.17365156 -0.06846728
v 0.04871425 0.15353875 -0.07216650
v 0.04991800 0.14279200 -0.07783800
v 0.00480051 0.15645910 -0.07705551
v -0.00998233 0.15185975 -0.07938441
v -0.01191013 0.16471008 -0.07325535
v -0.01397380 0.17196989 -0.06919000
v -0.01939729 0.16411453 -0.07303047
v -0.02636614 0.14943969 -0.07930600
v -0.02325802 0.17305102 -0.06721764
v -0.03270719 0.16088750 -0.07308201
v -0.02801100 0.16474500 -0.07160500
v -0.04242100 0.15892425 -0.07261647
v -0.04249542 0.15150658 -0.07665163
v -0.03006995 0.16848256 -0.06908792
v -0.11379851 0.12214569 -0.07708391
v -0.09767300 0.12915300 -0.07685800
v -0.10976044 0.11281763 -0.08370904
v -0.08347276 0.13257247 -0.07835240
v -0.04993681 0.16073042 -0.06955224
v -0.06754070 0.14897165 -0.07221163
v -0.01842516 0.18294931 -0.06035619
v -0.01310133 0.18032704 -0.06355695
v -0.09357805 0.13961743 -0.07050206
v -0.02866443 0.17660490 -0.06349629
v -0.01201962 0.18484134 -0.05919383
v -0.04549352 0.17088804 -0.06274416
v -0.03520821 0.17711106 -0.06061097
v -0.10664079 0.13800431 -0.06652324
v -0.07147853 0.15366983 -0.06704864
v -0.00864754 0.18680532 -0.05698927
v -0.08853211 0.14750574 -0.06490192
v 0.00279842 0.18633767 -0.05766048
v -0.02824024 0.18171633 -0.05829628
v -0.05853594 0.16511692 -0.06197699
v -0.04342068 0.17624706 -0.05735682
v -0.02153684 0.18553598 -0.05606444
v -0.08546014 0.15195729 -0.06060783
v 0.00011900 0.18808199 -0.05452400
v -0.00777193 0.18928363 -0.05263389
v 0.03371241 0.17982974 -0.05236864
v 0.00554700 0.18873300 -0.05021900
v -0.00187287 0.10581626 -0.09519107
v 0.01233066 0.11811401 -0.09111047
v 0.04947000 0.13879500 -0.07982000
v 0.03752556 0.15070697 -0.07627423
v 0.01285771 0.15043185 -0.07910488
v 0.03144700 0.14549001 -0.07941800
v 0.03130500 0.13410400 -0.08417100
v 0.03496300 0.12809899 -0.08625500
v 0.03491100 0.12520801 -0.08738700
v 0.03417100 0.11462900 -0.09127000
v 0.01635550 0.10841750 -0.09394800
v -0.05997855 0.08095939 -0.10107410
v -0.07450314 0.09599840 -0.09560292
v -0.08043174 0.08687733 -0.09815926
v -0.04026333 0.10912663 -0.09365262
v -0.00894916 0.12444211 -0.08938155
v -0.00414315 0.12794206 -0.08829449
v -0.00753153 0.14281992 -0.08281646
v -0.04684910 0.12434148 -0.08783558
v -0.04457724 0.11288890 -0.09221905
v -0.07195896 0.10574104 -0.09237216
v -0.08905609 0.09695053 -0.09399048
v -0.08699977 0.10479564 -0.09118318
v -0.06490057 0.12120057 -0.08717159
v -0.10582868 0.10495360 -0.08831125
v -0.11039837 0.10855444 -0.08562657
v -0.12695591 0.10011180 -0.08555685
v -0.09838223 0.09788225 -0.09237954
v -0.10639755 0.10097723 -0.09007989
v -0.06795422 0.13169180 -0.08192935
v -0.11044100 0.11566300 -0.08184000
v -0.02831928 0.14579896 -0.08070013
v -0.04121487 0.14317149 -0.08072150
v 0.01779834 0.13336274 -0.08555464
v -0.02652243 0.10890051 -0.09413874
v -0.02306677 0.09322396 -0.09867915
v -0.13842252 0.10063175 -0.08193761
v -0.14025072 0.10984377 -0.07561244
v -0.14806118 0.10447350 -0.07544127
v -0.12357343 0.11663681 -0.07772337
v -0.13071315 0.12173157 -0.07140930
v -0.11117705 0.12951992 -0.07251287
v -0.13965239 0.11773488 -0.07003583
v -0.11771351 0.12839754 -0.07113021
v -0.04510140 -0.22017168 0.03118432
v -0.06916607 -0.21417077 0.02798248
v 0.04790543 -0.20975210 0.02757048
v -0.13441224 -0.17424952 0.01906530
v -0.14468239 -0.16030914 0.01838778
v -0.16966021 -0.12230797 0.01831214
v -0.17567976 -0.11497971 0.01834049
v -0.08897059 -0.20492779 0.02431708
v -0.11749023 -0.18673515 0.01986055
v -0.07511577 -0.20459105 0.02516623
v -0.05494180 -0.20812483 0.02723029
v -0.11438208 -0.18311522 0.01950311
v -0.00603468 -0.20723238 0.02917809
v -0.04246765 -0.21190042 0.02877792
v -0.01379268 -0.21694327 0.03090917
v 0.01757432 -0.21743527 0.03090844
v 0.00564136 -0.21163644 0.02996041
v -0.02369325 -0.20678199 0.02858209
v -0.12715140 -0.17352014 0.01781049
v -0.12141223 -0.17514592 0.01821434
v -0.09039239 -0.18852381 0.02230586
v -0.09035631 -0.19817048 0.02300604
v -0.03780205 -0.18587120 0.02659492
v -0.05337892 -0.18893171 0.02571107
v -0.04647102 -0.20185636 0.02693270
v -0.03619888 -0.19185965 0.02687324
v -0.01079279 -0.17711125 0.02747381
v 0.00647557 -0.10260851 0.02860658
v 0.03645368 -0.11194775 0.02816132
v 0.02725070 -0.09527869 0.02852067
v 0.01561449 -0.07607286 0.02868486
v 0.02403140 -0.05604721 0.02831016
v 0.03607594 -0.04111996 0.02777586
v 0.00192065 -0.02449277 0.02647753
v -0.01506470 -0.01283202 0.02532047
v -0.02982654 -0.00951081 0.02482621
v -0.00132925 -0.00867091 0.02501609
v 0.01144531 0.00867541 0.02253815
v 0.03004519 0.01354148 0.02179549
v -0.03686479 0.01595729 0.02090744
v 0.02513784 0.03753001 0.01656182
v 0.04056129 0.03198525 0.01792866
v 0.06153440 0.02551722 0.01953773
v 0.02386859 0.02786565 0.01890190
v 0.05483756 0.00599556 0.02323049
v 0.03571530 0.00610228 0.02310751
v 0.05979538 -0.00805625 0.02527261
v 0.09765480 -0.00379023 0.02565652
v 0.11067931 0.01252760 0.02441992
v 0.08693688 0.01444533 0.02252725
v 0.07866883 0.01135885 0.02264539
v 0.07573528 -0.01427845 0.02604961
v 0.04159593 -0.03074525 0.02723675
v 0.08851382 -0.02911233 0.02739763
v 0.06489197 -0.04840165 0.02820107
v 0.08621167 -0.04782565 0.02814205
v 0.09885801 -0.01962971 0.02700727
v 0.07935850 -0.07220842 0.02823875
v 0.06215741 -0.07464016 0.02857813
v 0.01166932 -0.13745084 0.02797580
v 0.00178871 -0.16433828 0.02760546
v -0.01140923 -0.19188420 0.02788238
v 0.00193900 -0.19751000 0.02835800
v 0.00378980 -0.18897732 0.02792293
v 0.00969396 -0.16067672 0.02762218
v 0.02791990 -0.13227640 0.02788611
v 0.04233602 -0.11849214 0.02780702
v 0.04835900 -0.11968000 0.02758600
v 0.04496695 -0.13487900 0.02721059
v 0.06265409 -0.09878682 0.02793716
v 0.09250000 -0.05848041 0.02792048
v 0.10733476 -0.03949913 0.02743023
v 0.06448485 -0.08172069 0.02845129
v 0.08453641 -0.08356850 0.02760485
v 0.06455857 -0.11364415 0.02721906
v 0.02471028 -0.16106182 0.02718047
v 0.03236158 -0.17493440 0.02677029
v 0.03590195 -0.18273347 0.02662416
v 0.05909903 -0.16042894 0.02486355
v 0.05276726 -0.15056643 0.02595688
v 0.08579672 -0.10142572 0.02622974
v 0.09887491 -0.08068310 0.02628951
v 0.10691868 -0.07171302 0.02594071
v 0.11177500 -0.06187800 0.02594000
v 0.12679425 -0.03706755 0.02534659
v 0.08219905 -0.12919843 0.02419643
v 0.10324524 -0.10018922 0.02341911
v 0.14187367 -0.03112553 0.02254214
v 0.13489004 -0.05360253 0.02131383
v 0.13134500 -0.05240600 0.02256000
v 0.11552527 -0.07634589 0.02372742
v 0.08115205 -0.15851332 0.02130921
v 0.09433720 -0.13769349 0.02050915
v 0.09238415 -0.15994429 0.01842147
v 0.10185420 -0.13747322 0.01836997
v 0.08876711 -0.13247371 0.02259117
v 0.11931210 -0.09512756 0.01970231
v 0.14149331 -0.06028944 0.01781950
v 0.15273899 -0.07059866 0.01193974
v 0.15375709 -0.04285679 0.01707657
v 0.14195268 -0.07538369 0.01462900
v 0.13259943 -0.03757684 0.02416944
v 0.15077552 -0.02118841 0.02140718
v 0.06873276 -0.15533015 0.02381670
v 0.10773990 -0.01383849 0.02676776
v 0.13050319 0.02478821 0.02384567
v 0.13722536 0.04209894 0.02152214
v 0.12049697 0.02307751 0.02365176
v 0.11934034 0.03277832 0.02224686
v 0.12132889 0.05116593 0.01898035
v 0.12188759 0.07638272 0.01192877
v 0.12906995 0.05799547 0.01794867
v 0.10105048 0.04180845 0.01828782
v 0.09684035 0.02460519 0.02144029
v 0.10833758 0.02028174 0.02315916
v 0.13195812 0.04210449 0.02142959
v 0.13208599 0.04735200 0.02045600
v 0.13573671 0.00922662 0.02503646
v 0.14656200 0.02515800 0.02334300
v 0.08708712 -0.01047396 0.02591668
v 0.07323711 0.00308080 0.02389022
v 0.07147100 0.02306500 0.02018100
v 0.04360661 0.04723506 0.01382972
v 0.06154452 0.04945690 0.01313848
v 0.05201906 0.06277152 0.00901869
v 0.01688606 0.08229642 0.00264907
v 0.03767281 0.08830122 0.00017912
v 0.03735380 0.09403507 -0.00212679
v 0.01615800 0.10749400 -0.00737200
v 0.03167661 0.11514332 -0.01089085
v 0.04948186 0.10987483 -0.00911295
v 0.02010212 0.13878345 -0.02086267
v 0.03474124 0.15084194 -0.02691092
v 0.06024051 0.13076670 -0.01979942
v 0.05636875 0.11673664 -0.01256299
v 0.03229707 0.14952850 -0.02606322
v 0.01538163 0.17014880 -0.03414340
v 0.03838025 0.07319167 0.00576295
v 0.06752582 0.09037142 -0.00106642
v 0.00564311 0.07195815 0.00622043
v 0.01082820 0.06314719 0.00907570
v 0.03586700 0.05913200 0.01030900
v 0.01653962 0.05254358 0.01235771
v 0.06414279 0.05667872 0.01092308
v 0.07628183 0.07024321 0.00678940
v 0.07692784 0.02802701 0.01924964
v -0.01709300 0.00573485 0.02284700
v -0.02083461 0.00438642 0.02302117
v -0.07393066 0.00221714 0.02257223
v -0.03973967 -0.02837520 0.02641368
v -0.02960555 -0.05093950 0.02762751
v 0.00406162 -0.06307777 0.02839980
v -0.02414347 -0.03485286 0.02696863
v -0.03224039 -0.11181630 0.02781277
v -0.05188299 -0.11393009 0.02699388
v -0.01400856 -0.12179494 0.02808281
v -0.03578643 -0.14468809 0.02694662
v -0.05655420 -0.18139072 0.02537368
v -0.07843738 -0.13960011 0.02450710
v -0.05902096 -0.16114427 0.02533748
v -0.08981046 -0.17537504 0.02217223
v -0.06696368 -0.18974577 0.02454931
v -0.07557239 -0.15545334 0.02409068
v -0.04773739 -0.14615169 0.02640543
v -0.07297753 -0.11455882 0.02588151
v -0.10765613 -0.08694083 0.02515907
v -0.07923692 -0.12977109 0.02488540
v -0.10544155 -0.11483304 0.02381899
v -0.09602694 -0.15130213 0.02251260
v -0.07259520 -0.10348869 0.02626052
v -0.07982630 -0.01516148 0.02452046
v -0.08018135 -0.00980283 0.02395112
v -0.10023870 -0.01086993 0.02400565
v -0.11188775 -0.02030264 0.02465718
v -0.11031717 -0.01428289 0.02426439
v -0.09425982 -0.04669854 0.02617392
v -0.10866176 -0.05454858 0.02583411
v -0.07762921 -0.03947713 0.02625274
v -0.09061691 -0.03693285 0.02600266
v -0.06316970 -0.06842568 0.02724229
v -0.03798042 -0.06779276 0.02785326
v -0.10720282 -0.07591380 0.02558836
v -0.13413710 -0.04332758 0.02425842
v -0.13915729 -0.05134629 0.02359060
v -0.12507338 -0.07397467 0.02422498
v -0.13514556 -0.08841602 0.02202903
v -0.12647836 -0.06228877 0.02457285
v -0.11534808 -0.11928599 0.02248098
v -0.10822173 -0.12464096 0.02291424
v -0.14123195 -0.07603939 0.02182337
v -0.14564339 -0.06526833 0.02161860
v -0.15467816 -0.07773509 0.01875857
v -0.16167642 -0.08806276 0.01661304
v -0.12440023 -0.11276806 0.02159019
v -0.13368210 -0.11706950 0.01953410
v -0.13090898 -0.13965977 0.01809033
v -0.13910838 -0.15034824 0.01589898
v -0.15767570 -0.04218512 0.02022818
v -0.17305999 -0.04422867 0.01734175
v -0.17354800 -0.06133694 0.01676483
v -0.16868577 -0.01579540 0.01847952
v -0.15348218 0.00244384 0.02073861
v -0.15159973 0.01707928 0.01975459
v -0.15242686 -0.00775729 0.02135147
v -0.13554610 -0.03526573 0.02400995
v -0.13236010 -0.02819663 0.02421280
v -0.10730347 -0.03889708 0.02567046
v -0.10965157 -0.04384082 0.02567791
v -0.04554485 0.00015934 0.02336122
v -0.02663443 0.05671715 0.01090550
v -0.03177696 0.06367474 0.00859425
v -0.07528794 0.05341254 0.01080111
v -0.03320771 0.04328914 0.01463473
v -0.02075661 0.04387749 0.01462231
v -0.07902406 0.03728242 0.01543247
v -0.01299322 0.04487491 0.01444444
v -0.02028220 0.02856169 0.01849222
v -0.07650056 0.02628909 0.01812605
v -0.08595701 0.02374178 0.01864584
v -0.07803613 0.01867063 0.01964561
v -0.09533137 0.00181891 0.02253993
v -0.13583716 0.02493383 0.01970842
v -0.12780389 0.01413500 0.02124429
v -0.13526984 0.02144915 0.02032941
v -0.13050960 0.03588466 0.01784347
v -0.10636075 0.02311503 0.01927362
v -0.09977025 0.03901259 0.01554925
v 0.01068135 0.08385796 0.00209803
v -0.02464674 0.08060828 0.00314779
v 0.00209300 0.08724600 0.00077900
v -0.02780441 0.08623388 0.00097074
v 0.01405829 0.13868551 -0.02064061
v 0.00895647 0.15256771 -0.02621741
v 0.00212968 0.16346720 -0.03059161
v -0.00086800 0.12941800 -0.01659600
v 0.01779154 0.11563595 -0.01082917
v -0.01063534 0.09994696 -0.00420219
v -0.02266379 0.10690068 -0.00721583
v -0.07803760 0.06754570 0.00620849
v -0.01392432 0.07295989 0.00582675
v -0.04530715 0.06182718 0.00885784
v -0.03452901 0.09925491 -0.00425923
v -0.00859193 0.15919940 -0.02887311
v -0.01149879 0.13603039 -0.01949381
v -0.03843844 0.11008324 -0.00898131
v -0.04046585 0.11691948 -0.01211278
v -0.05549363 0.12381559 -0.01650609
v -0.05634371 0.12738419 -0.01844841
v -0.06143363 0.11027568 -0.01052811
v -0.01833052 0.14414583 -0.02297743
v -0.03179394 0.14043281 -0.02222919
v -0.01872670 0.17143167 -0.03472348
v -0.02414176 0.17203866 -0.03555102
v -0.06145656 0.14454067 -0.02761824
v -0.07018886 0.14637092 -0.02983737
v -0.03678478 0.15250027 -0.02789136
v -0.03234380 0.15143214 -0.02696518
v -0.07414323 0.09405685 -0.00393477
v -0.00537401 0.17479754 -0.03562662
v -0.01576957 0.17233400 -0.03470703
v -0.08821900 0.10557100 -0.00921700
v -0.08013729 0.08788996 -0.00155660
v -0.08501100 0.06533600 0.00692900
v -0.09610900 0.05517700 0.01070700
v -0.08706705 0.04766440 0.01267237
v -0.10924022 0.04776437 0.01389528
v -0.08369704 0.04121323 0.01441158
v -0.10833000 0.04305400 0.01502700
v -0.12035764 0.04370517 0.01573298
v -0.12504870 0.04911292 0.01468446
v -0.12299402 0.06573965 0.01000777
v -0.14115229 0.02953612 0.01891850
v -0.13527375 0.00775184 0.02204808
v -0.13885614 -0.00959568 0.02324295
v -0.13926748 0.01097230 0.02147585
v -0.14213540 -0.00401876 0.02248585
v -0.15896930 -0.00648620 0.02011516
v -0.16619200 0.00631258 0.01805337
v -0.16322646 0.02162660 0.01721638
v -0.19033753 -0.03440649 0.01444119
v -0.18247481 -0.03685377 0.01591027
v -0.14469544 -0.05133490 0.02249324
v -0.15418112 -0.02540423 0.02125321
v -0.16118053 -0.07340017 0.01783041
v -0.16543201 -0.05598700 0.01809600
v -0.15267256 -0.11531190 0.01553402
v -0.14717102 -0.09068998 0.01918155
v -0.14423432 -0.13745252 0.01565023
v -0.10363896 -0.15015652 0.02157501
v -0.11373408 -0.15751316 0.01965275
v -0.11601398 -0.16979760 0.01883905
v -0.09790308 -0.17610158 0.02134959
v -0.02247245 -0.16323339 0.02715512
v -0.09287360 0.04743515 0.01298818
v -0.15237646 -0.12012100 0.01520800
v 0.11021143 -0.02492270 0.02721341
v -0.07364287 0.13286685 -0.02263059
v -0.13552771 0.05423122 0.01371043
v 0.00273156 -0.20246284 0.02875557
v 0.12798723 -0.02000322 0.02597723
v -0.10368020 -0.18405619 0.02067122
v -0.08804585 0.06958408 0.00545882
v 0.11111651 -0.05096428 0.02678765
v 0.11247802 -0.03515248 0.02704752
v -0.08688858 0.10273801 -0.00786198
v -0.08355400 0.11685158 -0.01476911
v -0.15231592 0.02566988 0.01852210
v 0.00464001 0.17173856 -0.03416027
v 0.00802346 -0.20795990 0.02929260
v 0.03335451 -0.21347969 0.02929178
v -0.13494675 -0.16370517 0.01683896
v -0.14281433 0.04040293 0.01669136
v -0.15463689 0.04195496 0.01525426
v 0.14767352 0.02883217 0.02292246
v 0.08042547 0.02320255 0.02047768
v 0.08641017 0.04039769 0.01673540
v -0.14226572 -0.15698669 0.01653136
v -0.13611599 0.04680237 0.01547684
v 0.03534269 -0.20479855 0.02776041
v -0.15751612 -0.12950314 0.01549208
v -0.14580713 0.04624242 0.01526231
v -0.14845266 0.05769143 0.01210866
v -0.15176474 -0.13093600 0.01515579
v 0.14225070 0.00462216 0.02468880
v 0.13640580 -0.00069807 0.02523976
v 0.14750179 0.00129701 0.02399618
v 0.14896500 0.01855900 0.02354000
v 0.15186537 0.01343130 0.02341693
v -0.15584217 -0.12337561 0.01509018
v 0.13482795 0.05414899 0.01913706
v -0.16517482 -0.11343943 0.01528799
v -0.17560700 -0.08780539 0.01576136
v -0.17729269 -0.09805993 0.01597791
v -0.18555592 -0.08028123 0.01561739
v -0.19039427 -0.08745991 0.01601522
v -0.19914079 -0.08659965 0.01573237
v -0.19566682 -0.09383501 0.01717056
v -0.20253659 -0.08103973 0.01463491
v -0.18484082 -0.09169078 0.01616674
v -0.20552604 -0.09320124 0.01661690
v -0.17893388 -0.10184512 0.01652816
v -0.19344977 -0.07250753 0.01490343
v 0.04593834 -0.19945426 0.02632195
v 0.13954748 0.04460256 0.02123384
v 0.15127921 0.05029001 0.01914022
v 0.05496463 -0.20152553 0.02552128
v -0.18229140 -0.06683650 0.01572524
v -0.19475582 -0.05043601 0.01418966
v -0.20166027 -0.06953355 0.01371352
v -0.17043310 -0.07825415 0.01644026
v -0.16086554 -0.10970182 0.01521442
v 0.10831634 0.04139127 0.01939044
v 0.11181115 0.06056933 0.01532359
v -0.18978528 -0.09898057 0.01774560
v 0.03669578 -0.20008356 0.02725872
v -0.14124172 -0.15971023 0.01696353
v -0.16786261 0.01713012 0.01676007
v 0.05281784 -0.18494638 0.02495774
v -0.16202888 0.04056796 0.01409154
v -0.16661291 0.03166591 0.01479361
v 0.15636401 0.01109950 0.02266750
v 0.15326500 0.00271000 0.02310300
v 0.13767104 0.06613946 0.01594041
v 0.08245799 0.05200425 0.01316786
v 0.09044813 0.05786399 0.01232899
v -0.16576330 -0.12154844 0.01635235
v -0.14546600 0.06960900 0.00874400
v 0.13168026 0.07732567 0.01239809
v 0.12391510 0.06697613 0.01518563
v 0.15215253 0.03182846 0.02227070
v -0.21219766 -0.08070776 0.01282264
v -0.21390107 -0.09437171 0.01532481
v 0.06586439 -0.17768653 0.02315437
v 0.15916620 0.03906409 0.02000298
v -0.13107690 0.06567042 0.01040204
v -0.12131033 0.08750842 0.00195554
v -0.10458800 0.06444072 0.00837061
v 0.14271185 -0.01411371 0.02396611
v -0.15770358 0.06372819 0.00877311
v 0.15016005 0.06232206 0.01609434
v -0.09999225 0.07474063 0.00440834
v 0.15804100 0.02282000 0.02206300
v -0.17979040 -0.10911279 0.01816396
v 0.06930593 0.04866619 0.01345127
v 0.06121736 -0.19203076 0.02389049
v 0.08571738 0.05740078 0.01188199
v -0.19976388 -0.09652939 0.01801046
v 0.16681577 -0.06388894 0.01054121
v 0.14380377 0.06418103 0.01617931
v 0.15146801 -0.00409700 0.02306550
v -0.20572568 -0.10167483 0.01957234
v -0.20659092 -0.06620122 0.01243058
v 0.15890004 0.04956101 0.01800119
v -0.16727300 0.03589800 0.01376100
v -0.16873444 -0.11660723 0.01648906
v -0.13912610 0.07138094 0.00866764
v -0.13056998 0.08056726 0.00524728
v -0.12795541 0.07406347 0.00753924
v 0.11908085 0.08057949 0.01029925
v -0.18340452 0.00041856 0.01438584
v 0.08470682 0.06774507 0.00824641
v 0.09941567 0.06542629 0.01162694
v 0.06703785 0.07180151 0.00586373
v -0.19660662 -0.10350578 0.02029936
v 0.16772075 -0.08352875 0.00809925
v 0.16718031 -0.04935810 0.01293944
v 0.16065450 0.03445150 0.02028100
v 0.14037953 0.07651156 0.01252840
v 0.17316550 -0.04695600 0.01267400
v -0.08785173 0.08664960 -0.00097468
v -0.21253868 -0.06609291 0.01072423
v -0.16085791 0.05191698 0.01152289
v 0.11373078 -0.12895718 0.01570847
v 0.15574957 0.06198341 0.01509708
v -0.20485402 -0.02627263 0.00963382
v -0.19991694 -0.03656729 0.01222516
v 0.08798336 0.09075754 0.00024383
v -0.17680210 0.02646789 0.01275637
v -0.19027944 0.01099805 0.01082369
v -0.18381009 0.01051196 0.01305925
v -0.17274967 0.03159971 0.01306029
v -0.14602099 0.07566600 0.00655100
v 0.12511399 0.08953200 0.00755600
v 0.13077170 0.09155295 0.00711353
v 0.14570657 0.08606095 0.00811475
v -0.21426100 -0.08367700 0.01275100
v 0.15853200 -0.01340150 0.02056850
v 0.15974014 -0.03023703 0.01787489
v 0.15229757 -0.03075412 0.01965646
v 0.16922800 -0.02444775 0.01678975
v 0.16727136 -0.02929706 0.01646075
v -0.16875806 0.05765276 0.00790630
v -0.17338802 0.04481000 0.01012442
v -0.18057801 0.03570213 0.00955465
v -0.18590400 0.02621800 0.00948300
v -0.14635984 0.08084755 0.00443377
v 0.07699842 0.08989900 -0.00048668
v 0.04987517 0.14479847 -0.02574679
v 0.04351824 0.13310191 -0.01951153
v 0.05055125 0.15256207 -0.02975790
v 0.06057000 0.14892000 -0.02906000
v 0.09361015 0.06943217 0.00914987
v 0.10334011 0.08485861 0.00575604
v 0.11136382 0.09172620 0.00507950
v 0.14486140 -0.09646028 0.00949414
v 0.16296700 0.04723300 0.01738900
v 0.06523923 0.10321375 -0.00648360
v -0.10296389 0.08740755 -0.00024562
v -0.10182937 0.10829186 -0.00968263
v -0.09880770 0.09452544 -0.00362189
v -0.09410817 0.09857396 -0.00577571
v -0.20888529 -0.05117631 0.01058368
v -0.15441764 0.07580041 0.00511724
v -0.09421613 0.11483090 -0.01363729
v -0.18974633 -0.00070527 0.01254132
v -0.18735146 -0.10486523 0.01898021
v 0.09774294 0.09774415 -0.00058929
v -0.13433256 0.08920675 0.00190047
v 0.06312586 0.11141533 -0.01012351
v -0.14542585 0.09268328 -0.00070592
v 0.16396700 0.05342100 0.01541900
v -0.19553670 -0.10778695 0.02228192
v -0.21764049 -0.09466836 0.01425815
v 0.07802589 0.10423905 -0.00627699
v 0.14895450 0.08094881 0.00958782
v -0.20449201 -0.11008960 0.02370252
v 0.08746468 0.10050698 -0.00364641
v 0.12251195 0.09385796 0.00570910
v -0.20836904 -0.02033560 0.00729105
v 0.15799422 0.06388250 0.01385916
v 0.09872600 0.10821000 -0.00511600
v 0.11462960 0.10424783 0.00011491
v 0.10926613 0.11690986 -0.00723496
v 0.08756282 0.11524104 -0.01050026
v -0.21134600 -0.10557000 0.02024100
v -0.15682075 -0.13882647 0.01716362
v -0.21790627 -0.08334802 0.01135479
v 0.16196257 0.06161426 0.01345330
v -0.16777452 0.06446851 0.00563056
v -0.16309993 0.07208302 0.00422964
v -0.18392162 -0.11310687 0.02159168
v -0.15562624 0.07843167 0.00373541
v 0.15346402 0.08273948 0.00766491
v -0.13376073 0.10048246 -0.00362733
v 0.06176094 0.11711500 -0.01283405
v -0.17686997 0.04741696 0.00799567
v 0.00805108 0.17564679 -0.03634357
v -0.21842849 -0.09877838 0.01519884
v -0.11703564 0.10913997 -0.00862388
v -0.11238317 0.12181108 -0.01618897
v -0.11828636 0.11722193 -0.01302257
v -0.09592468 0.12408322 -0.01859630
v 0.02294085 0.17040027 -0.03516019
v -0.19277046 0.01718170 0.00848091
v 0.06794410 0.13899777 -0.02447147
v 0.00321454 0.17946542 -0.03822533
v 0.13711654 0.09603192 0.00474141
v -0.21622361 -0.11155664 0.02154934
v -0.03878290 0.16938610 -0.03612623
v 0.12749458 0.10287552 0.00174177
v -0.22053807 -0.06738594 0.00728652
v -0.17150665 0.06792647 0.00290681
v -0.13663344 0.10270342 -0.00492464
v 0.06313484 0.14462000 -0.02715703
v 0.04216657 0.15825217 -0.03138954
v -0.21115980 -0.11227293 0.02376267
v -0.18222832 0.05057275 0.00458161
v -0.15831233 0.08070417 0.00202883
v 0.07623470 0.13825328 -0.02428006
v 0.08216101 0.12161843 -0.01440271
v 0.11782457 0.12113684 -0.00899474
v 0.12204237 0.11174902 -0.00323518
v 0.03283699 0.16852238 -0.03547446
v 0.09567961 0.12980740 -0.01758824
v 0.13337894 0.11194641 -0.00416083
v -0.14899600 0.09984766 -0.00546018
v -0.21443702 -0.02968851 0.00540353
v 0.09563713 0.12739042 -0.01600355
v -0.01871049 0.17919100 -0.03861283
v -0.06238226 0.15805317 -0.03516965
v -0.09145514 0.13050217 -0.02250846
v 0.07471683 0.14750436 -0.03019044
v -0.08709706 0.14541889 -0.03213590
v -0.09401182 0.13818378 -0.02751245
v -0.14123318 0.10432179 -0.00644891
v 0.15820823 0.07576031 0.00927607
v 0.12321542 0.11584792 -0.00573836
v -0.20771822 -0.00140122 0.00412411
v -0.10770887 0.12927297 -0.02111310
v -0.19759222 0.01101743 0.00740718
v -0.15394864 0.10100436 -0.00760111
v 0.08182687 0.13330807 -0.02109606
v 0.14284175 0.10138782 0.00072150
v 0.10789138 0.12136117 -0.01016093
v -0.14101391 0.10789994 -0.00857263
v -0.17057225 0.07956283 -0.00230464
v -0.12005000 0.12244900 -0.01641200
v 0.16251769 0.07294653 0.00868821
v -0.07979008 0.14888550 -0.03333056
v -0.08034730 0.13939634 -0.02726359
v -0.06400504 0.15329414 -0.03256487
v -0.12503039 0.11806262 -0.01343962
v -0.14732707 0.10673109 -0.00932959
v 0.05165109 0.16112483 -0.03501030
v -0.00516587 0.18309285 -0.04018211
v -0.18066793 0.05626355 0.00312199
v 0.15777104 0.08728923 0.00375724
v 0.00216155 0.18270587 -0.04020747
v -0.12550955 0.12254634 -0.01660698
v -0.18054928 0.07077449 -0.00331600
v 0.09696510 0.13623975 -0.02212490
v 0.07960577 0.14343936 -0.02787548
v 0.08565184 0.14217702 -0.02716657
v 0.14282981 0.10488883 -0.00169264
v -0.16037533 0.08938471 -0.00298396
v -0.22572551 -0.08503763 0.00765808
v -0.13383464 0.12152668 -0.01700047
v -0.16107260 0.09896658 -0.00909585
v -0.04630030 0.16938911 -0.03798763
v 0.11599927 0.12342133 -0.01085993
v 0.03502040 0.17183761 -0.03801024
v -0.02730332 0.18017489 -0.04084476
v -0.19403074 0.03056702 0.00443463
v -0.21272507 -0.02309215 0.00537007
v 0.16538775 0.06651837 0.01001888
v 0.14835376 0.10525680 -0.00381159
v 0.00180681 0.18632757 -0.04296801
v 0.01275831 0.18009720 -0.03933696
v 0.16136672 0.09207486 -0.00110234
v -0.11237918 0.13235603 -0.02346145
v -0.16648549 0.09221030 -0.00772610
v -0.22609298 -0.09757402 0.01075197
v -0.18941603 0.03997326 0.00440909
v 0.13597889 0.11560273 -0.00768719
v -0.18773567 0.05946926 -0.00252209
v 0.12181195 0.12277892 -0.01042921
v 0.05680350 0.16228000 -0.03740500
v 0.06770988 0.15072060 -0.03128503
v 0.16575700 0.07792100 0.00460000
v -0.17705640 0.08275606 -0.00795478
v -0.21756944 -0.01750880 0.00069880
v 0.08175725 0.14859000 -0.03266750
v -0.19887947 0.02783305 0.00223447
v 0.11204728 0.13380636 -0.02015208
v -0.15081061 0.10936223 -0.01222320
v -0.19128915 0.05857141 -0.00473638
v 0.14702875 0.11015100 -0.00742475
v 0.13684399 0.11873200 -0.01081100
v -0.23158759 -0.09346586 0.00515075
v -0.20731282 0.01276223 0.00075948
v 0.09567400 0.14133900 -0.02713500
v 0.06500750 0.15675400 -0.03546600
v 0.15347300 0.10662600 -0.00785800
v 0.16228600 0.10259350 -0.01092050
v -0.22809007 -0.07212754 0.00289680
v 0.16178567 0.09622156 -0.00450927
v 0.16842400 0.08107600 0.00112000
v -0.20216478 0.03408026 -0.00257406
v -0.21528781 -0.00030922 -0.00214514
v -0.19545204 0.04775838 -0.00289131
v 0.12790925 0.12361350 -0.01259525
v -0.23168632 -0.10804628 0.00965047
v -0.23153360 -0.07328594 -0.00020684
v -0.21236693 0.00802540 -0.00198272
v 0.16361282 0.09917147 -0.00856370
v -0.22714002 -0.03773423 -0.00406305
v -0.21970046 -0.01030264 -0.00355740
v 0.16828924 0.09105775 -0.00580025
v -0.23501801 -0.09514494 0.00182675
f 309 311 297
f 298 309 297
f 399 297 311
f 309 312 311
f 298 297 408
f 298 574 309
f 408 297 399
f 399 311 400
f 309 314 312
f 311 312 381
f 300 298 408
f 310 574 298
f 309 574 296
f 399 401 408
f 311 411 400
f 399 400 401
f 313 314 309
f 312 314 381
f 311 381 411
f 407 298 300
f 407 300 408
f 618 310 298
f 310 316 574
f 309 296 313
f 574 315 296
f 401 402 408
f 411 382 400
f 402 401 400
f 313 296 314
f 314 387 381
f 411 381 382
f 407 299 298
f 408 415 407
f 618 298 299
f 635 310 618
f 316 310 608
f 316 315 574
f 315 295 296
f 408 402 409
f 400 382 412
f 410 402 400
f 296 294 314
f 314 212 387
f 387 385 381
f 382 381 412
f 302 299 407
f 407 415 406
f 415 408 409
f 302 618 299
f 608 310 635
f 681 635 618
f 608 572 316
f 555 315 316
f 296 295 294
f 315 555 295
f 409 402 413
f 412 410 400
f 402 410 413
f 294 212 314
f 387 212 388
f 384 381 385
f 387 388 385
f 412 381 410
f 407 301 302
f 414 407 406
f 406 415 414
f 409 413 415
f 630 618 302
f 638 608 635
f 681 618 630
f 645 635 681
f 555 316 572
f 572 608 588
f 295 555 294
f 413 410 433
f 294 555 212
f 212 215 388
f 381 384 386
f 385 388 384
f 381 383 410
f 302 301 303
f 303 301 407
f 405 407 414
f 414 415 421
f 413 416 415
f 306 630 302
f 588 608 638
f 638 635 645
f 681 630 656
f 645 681 689
f 572 535 555
f 613 572 588
f 410 473 433
f 413 433 429
f 555 213 212
f 213 215 212
f 211 388 215
f 381 386 383
f 388 386 384
f 383 465 410
f 306 302 303
f 403 303 407
f 403 407 405
f 405 414 431
f 414 421 431
f 415 416 421
f 416 413 429
f 656 630 306
f 628 588 638
f 644 638 645
f 666 681 656
f 645 689 644
f 685 689 681
f 317 555 535
f 557 535 572
f 613 573 572
f 614 613 588
f 410 434 473
f 433 473 581
f 433 581 429
f 555 214 213
f 214 215 213
f 214 211 215
f 388 211 391
f 383 386 438
f 388 389 386
f 465 383 436
f 410 465 434
f 610 306 303
f 303 403 479
f 404 403 405
f 479 405 431
f 421 422 431
f 421 416 422
f 416 429 420
f 656 306 305
f 614 588 628
f 643 628 638
f 642 638 644
f 305 666 656
f 703 681 666
f 705 644 689
f 685 681 703
f 722 689 685
f 487 317 535
f 317 214 555
f 536 535 557
f 536 557 572
f 573 536 572
f 614 573 613
f 434 465 473
f 581 473 552
f 429 581 622
f 214 210 211
f 391 211 320
f 389 388 391
f 383 438 436
f 386 389 438
f 436 438 465
f 610 303 304
f 305 306 610
f 307 303 479
f 479 403 404
f 479 404 405
f 479 431 430
f 431 422 428
f 416 417 422
f 417 416 420
f 420 429 476
f 615 614 628
f 643 615 628
f 642 643 638
f 644 643 642
f 666 305 610
f 680 703 666
f 682 644 705
f 731 705 689
f 722 685 703
f 722 731 689
f 285 317 487
f 284 487 535
f 214 317 293
f 284 535 536
f 573 284 536
f 573 614 615
f 465 435 473
f 552 473 548
f 581 552 622
f 476 429 622
f 318 211 210
f 214 222 210
f 319 320 211
f 391 320 392
f 389 391 390
f 389 390 438
f 438 390 465
f 307 304 303
f 609 610 304
f 308 307 479
f 430 431 716
f 716 479 430
f 422 418 428
f 423 431 428
f 422 417 420
f 419 420 476
f 639 615 643
f 683 643 644
f 675 666 610
f 693 680 666
f 722 703 680
f 683 644 682
f 731 682 705
f 731 722 747
f 285 486 317
f 284 285 487
f 214 293 222
f 293 317 222
f 524 284 573
f 615 570 573
f 435 465 437
f 437 473 435
f 473 437 548
f 552 548 442
f 622 552 621
f 432 476 622
f 209 318 210
f 318 319 211
f 222 216 210
f 319 380 320
f 320 344 392
f 392 390 391
f 465 390 398
f 308 304 307
f 609 304 676
f 675 610 609
f 658 308 479
f 690 716 431
f 667 479 716
f 422 420 418
f 428 418 419
f 423 428 424
f 423 424 431
f 418 420 419
f 419 476 477
f 639 570 615
f 671 639 643
f 643 683 671
f 749 666 675
f 693 666 749
f 723 680 693
f 722 680 724
f 683 682 698
f 747 682 731
f 755 747 722
f 285 222 486
f 486 222 317
f 284 280 285
f 524 523 284
f 540 524 573
f 570 540 573
f 465 398 437
f 548 437 442
f 552 442 547
f 621 552 619
f 620 622 621
f 476 432 477
f 432 622 477
f 210 217 209
f 209 208 318
f 318 207 319
f 210 216 217
f 222 292 216
f 319 207 380
f 380 207 320
f 320 343 344
f 392 344 346
f 392 397 390
f 398 390 397
f 676 304 308
f 611 609 676
f 611 675 609
f 739 308 658
f 658 479 667
f 431 424 690
f 716 690 20
f 667 716 719
f 428 419 427
f 428 670 424
f 419 477 468
f 594 570 639
f 671 595 639
f 698 671 683
f 749 675 612
f 753 693 749
f 723 724 680
f 724 723 693
f 755 722 724
f 686 698 682
f 747 686 682
f 772 747 755
f 285 221 222
f 523 280 284
f 286 285 280
f 281 523 524
f 540 281 524
f 282 540 570
f 439 437 398
f 442 437 441
f 442 569 547
f 619 552 547
f 621 619 620
f 625 622 620
f 477 622 625
f 217 208 209
f 318 208 207
f 217 216 208
f 216 292 208
f 291 292 222
f 207 342 320
f 320 342 343
f 342 344 343
f 344 345 346
f 392 346 444
f 397 392 444
f 397 396 398
f 676 308 684
f 749 611 676
f 612 675 611
f 664 308 739
f 739 658 667
f 424 670 690
f 20 690 733
f 716 20 738
f 719 739 667
f 738 719 716
f 425 427 419
f 428 427 670
f 468 425 419
f 468 477 711
f 595 570 594
f 595 594 639
f 668 595 671
f 686 671 698
f 611 749 612
f 724 693 753
f 753 749 763
f 755 724 762
f 747 745 686
f 772 745 747
f 286 222 221
f 285 286 221
f 281 280 523
f 280 279 286
f 540 283 281
f 539 540 282
f 570 539 282
f 439 398 440
f 439 440 437
f 437 440 441
f 441 469 442
f 569 442 546
f 547 569 568
f 620 619 547
f 663 625 620
f 477 625 663
f 208 206 207
f 292 218 208
f 222 219 291
f 292 291 218
f 321 342 207
f 344 342 345
f 445 346 345
f 444 346 445
f 397 444 394
f 397 394 396
f 440 398 396
f 684 308 664
f 715 676 684
f 715 749 676
f 739 684 664
f 690 670 733
f 22 738 20
f 738 739 719
f 670 427 425
f 425 468 426
f 426 468 711
f 711 477 663
f 595 539 570
f 668 596 595
f 686 668 671
f 762 724 753
f 763 749 715
f 686 745 737
f 759 745 772
f 286 219 222
f 287 280 281
f 277 279 280
f 279 220 286
f 501 281 283
f 283 540 534
f 534 540 539
f 440 396 441
f 441 396 469
f 546 442 469
f 569 546 567
f 547 568 629
f 568 569 567
f 620 547 629
f 663 620 662
f 207 206 321
f 206 208 321
f 218 224 208
f 219 225 291
f 218 291 223
f 342 321 350
f 342 350 345
f 345 378 445
f 444 445 447
f 394 444 395
f 396 394 395
f 732 715 684
f 684 739 732
f 733 670 26
f 28 738 22
f 28 739 738
f 425 712 670
f 425 426 712
f 712 426 711
f 711 663 692
f 595 579 539
f 596 579 595
f 596 668 704
f 704 668 686
f 763 715 732
f 737 725 686
f 737 745 758
f 759 758 745
f 220 219 286
f 287 277 280
f 288 287 281
f 279 277 220
f 501 288 281
f 534 501 283
f 579 534 539
f 469 396 489
f 546 469 567
f 568 567 629
f 620 629 660
f 662 620 660
f 692 663 662
f 205 321 208
f 208 224 205
f 218 223 224
f 228 225 219
f 291 225 223
f 321 349 350
f 350 378 345
f 378 377 445
f 446 444 447
f 447 445 375
f 395 444 446
f 396 395 393
f 28 732 739
f 670 730 26
f 28 22 127
f 670 712 691
f 712 711 710
f 711 692 695
f 636 579 596
f 704 718 596
f 725 704 686
f 763 732 748
f 704 725 737
f 764 737 758
f 220 277 219
f 278 277 287
f 501 287 288
f 534 515 501
f 560 534 579
f 489 396 443
f 489 443 469
f 469 493 567
f 567 538 629
f 660 629 655
f 662 660 713
f 692 662 661
f 205 324 321
f 224 324 205
f 223 225 224
f 276 228 219
f 228 227 225
f 321 322 349
f 349 351 350
f 350 347 378
f 378 379 377
f 377 376 445
f 374 446 447
f 375 445 454
f 447 375 373
f 395 446 393
f 396 393 443
f 748 732 28
f 730 691 26
f 670 691 730
f 22 125 127
f 28 127 66
f 712 710 691
f 710 711 694
f 695 692 700
f 711 695 694
f 636 551 579
f 596 654 636
f 596 718 654
f 737 718 704
f 765 737 764
f 276 219 277
f 278 515 277
f 278 287 501
f 278 501 515
f 560 515 534
f 551 560 579
f 443 483 469
f 469 492 493
f 567 493 538
f 629 538 593
f 655 629 631
f 660 655 713
f 720 662 713
f 700 661 662
f 692 661 700
f 324 322 321
f 224 204 324
f 225 204 224
f 276 227 228
f 225 227 204
f 322 351 349
f 350 351 347
f 347 348 378
f 377 379 354
f 378 348 379
f 377 355 376
f 445 376 355
f 443 446 374
f 374 447 373
f 375 454 372
f 445 355 454
f 375 448 373
f 393 446 443
f 691 8 26
f 22 48 125
f 127 125 66
f 28 66 64
f 691 710 8
f 710 694 8
f 695 700 741
f 694 695 741
f 636 585 551
f 697 636 654
f 718 697 654
f 740 718 737
f 765 767 737
f 277 289 276
f 515 485 277
f 516 515 560
f 551 516 560
f 483 443 484
f 469 483 492
f 484 493 492
f 538 493 624
f 624 593 538
f 629 593 607
f 629 607 631
f 655 631 674
f 655 674 713
f 708 662 720
f 713 728 720
f 700 662 708
f 204 322 324
f 467 227 276
f 227 226 204
f 322 352 351
f 347 351 348
f 377 354 355
f 379 348 354
f 478 443 374
f 374 373 449
f 448 375 372
f 454 369 372
f 454 355 369
f 373 448 372
f 22 24 48
f 48 44 125
f 66 125 124
f 126 28 64
f 66 118 64
f 8 694 9
f 741 700 708
f 694 741 9
f 585 564 551
f 697 585 636
f 718 709 697
f 740 750 718
f 767 740 737
f 767 765 776
f 289 467 276
f 485 289 277
f 485 515 541
f 516 541 515
f 564 516 551
f 484 443 478
f 483 484 492
f 493 484 583
f 624 493 550
f 607 593 624
f 631 607 624
f 674 631 696
f 713 674 706
f 708 720 741
f 713 706 728
f 204 323 322
f 467 243 227
f 226 203 204
f 226 227 202
f 322 323 352
f 325 351 352
f 348 351 353
f 354 358 355
f 348 358 354
f 478 374 450
f 449 373 372
f 450 374 449
f 372 369 370
f 355 453 369
f 24 41 48
f 125 44 122
f 66 124 118
f 124 125 118
f 126 64 65
f 64 118 81
f 741 10 9
f 641 564 585
f 641 585 697
f 709 736 697
f 736 709 718
f 750 736 718
f 740 768 750
f 779 740 767
f 776 765 779
f 776 779 767
f 289 471 467
f 290 289 485
f 485 541 290
f 516 564 541
f 478 450 484
f 583 484 604
f 493 583 550
f 624 550 603
f 631 624 726
f 696 631 687
f 674 696 706
f 741 720 5
f 728 706 756
f 204 203 323
f 243 242 227
f 467 475 243
f 226 202 203
f 227 230 202
f 323 202 352
f 325 353 351
f 352 202 325
f 358 348 353
f 358 356 355
f 449 372 451
f 449 528 450
f 370 369 371
f 372 370 452
f 355 362 453
f 453 362 369
f 24 19 41
f 48 41 42
f 44 42 122
f 125 122 116
f 125 116 118
f 65 64 71
f 126 65 69
f 77 64 81
f 118 108 81
f 741 5 10
f 649 564 641
f 649 641 697
f 736 649 697
f 768 740 779
f 496 471 289
f 471 475 467
f 541 289 290
f 564 545 541
f 484 450 531
f 530 604 484
f 583 604 603
f 550 583 603
f 624 603 653
f 624 679 726
f 631 726 702
f 687 631 702
f 696 687 706
f 720 1 5
f 706 714 756
f 728 756 1
f 203 202 323
f 242 229 227
f 475 242 243
f 230 244 202
f 227 229 230
f 325 326 353
f 202 199 325
f 353 356 358
f 356 357 355
f 372 452 451
f 571 449 451
f 449 571 528
f 531 450 528
f 369 456 371
f 370 371 452
f 355 361 362
f 369 362 455
f 24 20 19
f 19 18 41
f 41 36 42
f 42 62 122
f 122 107 116
f 118 116 111
f 71 64 77
f 65 71 69
f 68 126 69
f 77 81 78
f 81 108 86
f 118 111 108
f 632 564 649
f 736 632 649
f 495 496 289
f 496 495 471
f 475 471 474
f 541 498 289
f 541 545 578
f 564 578 545
f 530 484 531
f 530 565 604
f 603 604 657
f 653 603 679
f 679 673 726
f 702 726 729
f 756 687 702
f 714 706 687
f 5 1 4
f 720 728 1
f 714 687 756
f 1 756 2
f 242 245 229
f 474 242 475
f 244 201 202
f 229 244 230
f 325 335 326
f 353 326 341
f 201 199 202
f 199 327 325
f 353 337 356
f 357 361 355
f 356 359 357
f 451 452 519
f 571 451 587
f 528 571 589
f 531 528 589
f 369 455 456
f 456 455 371
f 452 371 519
f 362 361 458
f 455 362 363
f 20 21 19
f 19 23 18
f 41 18 36
f 62 121 122
f 116 107 111
f 122 119 107
f 71 77 78
f 69 71 75
f 67 68 69
f 78 81 83
f 81 86 85
f 108 92 86
f 111 107 108
f 632 617 564
f 499 495 289
f 497 471 495
f 471 256 474
f 498 499 289
f 499 498 541
f 553 541 578
f 617 578 564
f 530 531 565
f 565 531 604
f 603 657 650
f 657 604 744
f 679 603 651
f 679 651 673
f 673 707 726
f 756 702 729
f 729 726 707
f 756 729 2
f 229 245 244
f 474 245 242
f 244 200 201
f 327 335 325
f 326 335 336
f 326 336 341
f 353 341 337
f 201 200 199
f 231 327 199
f 339 356 337
f 361 357 458
f 356 360 359
f 359 365 357
f 451 519 587
f 571 587 626
f 571 591 589
f 592 531 589
f 455 521 371
f 519 371 520
f 362 458 363
f 363 364 455
f 19 21 23
f 18 23 32
f 18 32 36
f 62 61 121
f 122 121 119
f 107 119 110
f 71 78 75
f 76 69 75
f 67 69 73
f 75 78 83
f 81 85 83
f 85 86 83
f 86 92 91
f 108 95 92
f 108 107 95
f 499 497 495
f 497 549 471
f 549 256 471
f 256 255 474
f 541 553 499
f 604 531 592
f 651 603 650
f 650 657 673
f 604 605 744
f 678 657 744
f 651 650 673
f 673 721 707
f 729 707 742
f 2 729 27
f 244 245 241
f 254 245 474
f 244 241 200
f 327 328 335
f 335 330 336
f 341 336 337
f 199 200 231
f 231 232 327
f 337 340 339
f 339 360 356
f 366 458 357
f 360 340 359
f 365 366 357
f 365 359 367
f 519 563 587
f 591 571 626
f 586 626 587
f 589 591 590
f 592 589 604
f 371 521 518
f 455 364 521
f 513 520 371
f 519 520 563
f 458 457 363
f 363 457 364
f 21 14 23
f 23 15 32
f 32 37 36
f 61 123 121
f 119 121 112
f 107 110 95
f 119 113 110
f 70 69 76
f 76 75 79
f 69 70 73
f 75 83 82
f 86 89 83
f 90 86 91
f 91 92 93
f 95 100 92
f 533 497 499
f 561 549 497
f 549 273 256
f 256 254 255
f 255 254 474
f 532 499 553
f 673 657 678
f 604 589 605
f 605 606 744
f 717 678 744
f 673 717 721
f 707 721 751
f 742 707 751
f 729 742 751
f 729 751 27
f 246 241 245
f 254 253 245
f 241 246 200
f 464 328 327
f 328 329 335
f 335 331 330
f 336 330 338
f 337 336 340
f 200 237 231
f 231 236 232
f 232 198 327
f 340 360 339
f 458 366 367
f 359 340 367
f 365 367 366
f 587 563 623
f 591 626 590
f 586 587 623
f 640 626 586
f 589 590 605
f 518 513 371
f 518 521 505
f 364 522 521
f 513 509 520
f 520 542 563
f 458 466 457
f 364 457 522
f 21 25 14
f 23 14 16
f 32 15 33
f 32 33 37
f 37 47 36
f 61 60 123
f 121 123 120
f 119 112 113
f 121 120 112
f 95 110 100
f 113 112 110
f 70 76 80
f 79 75 87
f 76 79 87
f 73 70 72
f 75 82 87
f 82 83 84
f 83 89 84
f 86 90 89
f 91 94 90
f 93 94 91
f 92 97 93
f 100 98 92
f 533 561 497
f 532 533 499
f 561 274 549
f 273 254 256
f 549 274 273
f 678 717 673
f 605 590 606
f 590 744 606
f 717 744 746
f 721 717 746
f 721 757 751
f 751 49 27
f 245 252 246
f 253 252 245
f 253 254 252
f 246 239 200
f 198 464 327
f 464 329 328
f 335 329 331
f 331 334 330
f 330 340 338
f 336 338 340
f 238 237 200
f 237 247 231
f 247 236 231
f 236 235 232
f 232 235 198
f 367 466 458
f 460 367 340
f 623 563 582
f 590 626 640
f 586 623 672
f 586 688 640
f 518 505 513
f 521 503 505
f 521 522 503
f 513 507 509
f 520 509 542
f 563 542 582
f 457 466 522
f 25 11 14
f 14 15 16
f 33 15 37
f 37 34 47
f 60 59 123
f 123 117 120
f 120 115 112
f 110 105 100
f 110 112 105
f 72 70 80
f 76 87 80
f 73 72 74
f 87 82 131
f 82 84 131
f 84 89 132
f 89 90 145
f 94 159 90
f 99 94 93
f 92 98 97
f 93 97 96
f 100 105 98
f 598 274 561
f 273 262 254
f 274 259 273
f 744 590 665
f 744 771 746
f 721 746 757
f 757 50 751
f 49 751 50
f 246 252 251
f 254 257 252
f 200 239 238
f 246 240 239
f 198 197 464
f 464 194 329
f 331 329 332
f 330 334 332
f 331 332 334
f 330 332 340
f 238 240 237
f 240 247 237
f 236 247 235
f 198 235 233
f 367 459 466
f 460 340 332
f 460 461 367
f 623 582 672
f 590 640 701
f 586 672 688
f 640 688 735
f 505 507 513
f 503 504 505
f 522 502 503
f 507 511 509
f 509 543 542
f 542 648 582
f 466 502 522
f 11 13 14
f 15 14 13
f 15 34 37
f 34 38 47
f 59 58 123
f 120 117 109
f 123 56 117
f 105 112 115
f 115 120 109
f 74 72 80
f 87 131 88
f 131 84 132
f 132 89 145
f 145 90 147
f 159 146 90
f 94 160 159
f 96 99 93
f 99 160 94
f 97 98 96
f 105 106 98
f 598 602 274
f 254 262 257
f 261 262 273
f 259 600 273
f 274 600 259
f 590 701 665
f 744 665 734
f 771 744 769
f 746 771 757
f 757 771 50
f 246 251 240
f 252 257 251
f 239 240 238
f 233 197 198
f 464 197 194
f 194 195 329
f 333 332 329
f 248 247 240
f 247 248 235
f 233 235 189
f 459 367 368
f 466 459 494
f 460 332 461
f 367 461 368
f 582 648 672
f 701 640 735
f 688 672 766
f 735 688 752
f 505 506 507
f 503 502 504
f 504 510 505
f 558 511 507
f 509 511 543
f 597 542 543
f 542 597 648
f 500 502 466
f 11 12 13
f 15 13 29
f 15 29 34
f 34 29 38
f 38 39 47
f 58 57 123
f 117 114 109
f 56 114 117
f 123 57 56
f 105 115 106
f 115 109 106
f 88 131 130
f 132 133 131
f 132 145 144
f 90 146 147
f 144 145 147
f 159 160 146
f 96 98 99
f 160 99 157
f 98 106 102
f 602 599 274
f 598 601 602
f 258 257 262
f 261 260 262
f 260 261 273
f 600 260 273
f 599 600 274
f 665 701 734
f 734 754 744
f 744 754 769
f 771 769 50
f 251 248 240
f 257 250 251
f 197 233 196
f 197 196 194
f 195 194 196
f 329 195 333
f 332 333 192
f 248 526 235
f 233 189 196
f 235 234 189
f 459 368 488
f 459 488 494
f 494 500 466
f 332 462 461
f 461 462 368
f 672 648 727
f 701 735 699
f 766 672 727
f 752 688 766
f 699 735 752
f 505 510 506
f 507 506 508
f 502 178 504
f 510 504 525
f 508 558 507
f 558 562 511
f 511 562 543
f 597 543 648
f 500 494 502
f 12 11 17
f 13 12 29
f 29 39 38
f 39 46 47
f 109 114 171
f 56 168 114
f 106 109 101
f 130 131 133
f 132 134 133
f 132 144 161
f 147 146 148
f 144 147 143
f 160 151 146
f 98 104 99
f 99 104 157
f 157 156 160
f 98 102 104
f 101 102 106
f 602 271 599
f 601 577 602
f 258 267 257
f 262 268 258
f 260 268 262
f 600 271 260
f 600 599 271
f 734 701 754
f 769 754 761
f 769 52 50
f 251 249 248
f 251 250 249
f 257 275 250
f 196 333 195
f 332 192 472
f 333 193 192
f 526 480 235
f 249 526 248
f 189 185 196
f 234 470 189
f 235 470 234
f 527 488 368
f 488 491 494
f 332 463 462
f 462 191 368
f 659 727 648
f 701 699 754
f 727 760 766
f 766 777 752
f 699 752 761
f 525 506 510
f 506 525 508
f 502 566 178
f 504 178 512
f 512 525 504
f 508 525 558
f 558 575 562
f 562 646 543
f 543 634 648
f 494 491 502
f 7 17 11
f 12 30 29
f 30 39 29
f 39 40 46
f 109 171 169
f 114 168 171
f 56 170 168
f 169 101 109
f 132 161 134
f 161 144 129
f 150 148 146
f 147 148 140
f 143 162 144
f 143 147 162
f 146 151 150
f 160 156 151
f 104 103 157
f 157 152 156
f 101 104 102
f 602 577 271
f 580 577 601
f 267 275 257
f 268 267 258
f 260 269 268
f 271 269 260
f 754 699 761
f 761 775 769
f 769 775 52
f 250 529 249
f 544 250 275
f 333 196 193
f 192 193 472
f 463 332 472
f 235 480 470
f 490 480 526
f 529 526 249
f 189 186 185
f 196 185 182
f 189 470 184
f 482 527 368
f 527 176 488
f 491 488 537
f 463 472 462
f 191 190 368
f 462 472 191
f 648 634 659
f 659 743 727
f 727 773 760
f 766 760 774
f 778 752 777
f 766 774 777
f 761 752 775
f 566 537 178
f 502 537 566
f 512 178 554
f 512 554 525
f 525 575 558
f 575 633 562
f 646 659 543
f 646 562 669
f 543 659 634
f 491 537 502
f 7 6 17
f 12 31 30
f 30 17 39
f 35 40 39
f 40 43 46
f 169 171 101
f 168 167 171
f 55 170 56
f 168 170 166
f 134 161 135
f 129 144 128
f 137 161 129
f 148 150 149
f 147 140 142
f 140 148 149
f 144 162 128
f 147 142 162
f 151 156 150
f 104 158 103
f 103 152 157
f 153 156 152
f 104 101 158
f 577 270 271
f 580 559 577
f 267 263 275
f 268 266 267
f 272 268 269
f 271 272 269
f 52 775 51
f 544 529 250
f 263 544 275
f 193 196 182
f 472 193 183
f 470 480 184
f 481 480 490
f 517 490 526
f 556 526 529
f 185 186 173
f 184 186 189
f 185 173 182
f 368 190 482
f 482 175 527
f 488 176 647
f 527 175 176
f 537 488 647
f 191 180 190
f 191 472 183
f 669 743 659
f 743 773 727
f 760 773 780
f 760 780 774
f 752 778 770
f 777 54 778
f 777 774 63
f 775 752 770
f 537 177 178
f 554 178 652
f 554 627 525
f 525 633 575
f 633 637 562
f 646 669 659
f 562 677 669
f 6 3 17
f 17 30 31
f 17 35 39
f 35 43 40
f 43 45 46
f 101 171 167
f 168 164 167
f 170 55 166
f 168 166 165
f 135 161 136
f 138 129 128
f 129 138 137
f 161 137 136
f 150 155 149
f 142 140 141
f 140 149 141
f 128 162 163
f 162 142 139
f 150 156 155
f 158 101 103
f 103 153 152
f 153 154 156
f 271 270 272
f 559 270 577
f 580 576 559
f 264 263 267
f 267 266 264
f 584 266 268
f 272 616 268
f 51 775 53
f 544 556 529
f 265 544 263
f 193 182 181
f 183 193 179
f 480 188 184
f 481 187 480
f 174 481 490
f 517 174 490
f 514 517 526
f 526 556 514
f 173 186 172
f 184 188 186

