# https://github.com/mikedh/trimesh
v -0.03614250 -0.16534749 0.11785350
v -0.02746800 -0.16607751 0.13049700
v -0.10094425 -0.16439300 0.10637600
v 0.01270300 -0.25960600 0.13928799
v 0.01018600 -0.25980201 0.14175600
v 0.03477300 -0.26056499 0.12862850
v 0.00697100 -0.25538324 0.14866800
v -0.08727300 -0.16220650 0.11781375
v -0.05916925 -0.16242650 0.12429700
v 0.12431876 -0.17450997 0.12833395
v -0.07553500 -0.17799201 0.05471850
v 0.02394276 -0.25974534 0.14256333
v 0.01862500 -0.25962001 0.14422300
v 0.01807038 -0.25987867 0.14035307
v 0.04358500 -0.25503400 0.14150150
v 0.13848782 -0.22491053 0.11447146
v 0.07178300 -0.24797725 0.13623875
v 0.03225700 -0.25701600 0.14375100
v 0.11214000 -0.23370975 0.12677775
v 0.09960036 -0.17047384 0.06846172
v 0.11104300 -0.16458249 0.04696500
v 0.09780300 -0.17110850 0.07331650
v 0.10236300 -0.16961300 0.05631700
v 0.10733800 -0.16680050 0.05125250
v 0.13911774 -0.21501685 0.12647090
v 0.13769357 -0.20279188 0.12970384
v 0.13090201 -0.18198000 0.12694100
v 0.10482363 -0.16444500 0.11442900
v 0.10164677 -0.16375798 0.10853023
v 0.09853850 -0.16600600 0.09772400
v 0.09983000 -0.16453800 0.10383400
v 0.09828075 -0.16685950 0.09387525
v 0.06379500 -0.20859900 0.15016800
v 0.00682650 -0.24656026 0.15110749
v 0.01437500 -0.24117200 0.15263300
v 0.05903450 -0.21716800 0.15259600
v 0.10071300 -0.16950700 0.04633600
v -0.09748875 -0.16919325 0.08506275
v -0.09848925 -0.16676025 0.09419800
v 0.01122500 -0.17118500 0.13574700
v 0.00976075 -0.17341000 0.14330624
v 0.01049525 -0.17438225 0.14736525
v 0.01887200 -0.16844600 0.13830100
v 0.02369400 -0.16695599 0.13484700
v 0.02918150 -0.16578800 0.13283250
v 0.00350700 -0.18143500 0.15024699
v 0.01707825 -0.17751449 0.08039425
v 0.02943900 -0.17364844 0.09091900
v 0.02044154 -0.17678169 0.08233231
v -0.01499100 -0.17660500 0.07621700
v -0.01977600 -0.17731300 0.08047750
v -0.03218700 -0.17314812 0.09210762
v -0.03524600 -0.17202599 0.09562900
v 0.02280832 -0.18167576 0.06462519
v 0.04316563 -0.18042764 0.06338656
v 0.02629455 -0.18038785 0.06946659
v 0.06039206 -0.17827182 0.06776237
v 0.06437594 -0.17429202 0.07998940
v 0.04227450 -0.17435548 0.08579651
v 0.06529407 -0.16744941 0.09822503
v 0.07367855 -0.17471650 0.07565184
v 0.03252533 -0.17257038 0.09433775
v 0.09127422 -0.16844741 0.09064518
v 0.06767607 -0.16393801 0.10807833
v 0.07196841 -0.17757103 0.06560498
v 0.04694036 -0.16545880 0.11016011
v 0.03525612 -0.16914663 0.10346812
v 0.03886038 -0.16747874 0.10779549
v -0.00732398 -0.18137034 0.06953062
v 0.09096501 -0.17319537 0.07298086
v 0.06526950 -0.16240375 0.11572945
v 0.07888116 -0.16229456 0.11360604
v -0.06497634 -0.17709390 0.07237922
v -0.04970014 -0.17445005 0.08414207
v -0.05637948 -0.17028497 0.09361204
v -0.06604584 -0.17822576 0.06787847
v -0.08382155 -0.16430557 0.10460126
v -0.06905760 -0.16401293 0.10811357
v -0.02440004 -0.18000739 0.07242926
v -0.04134356 -0.16995500 0.09924163
v -0.01944000 -0.18101799 0.06880400
v -0.04143655 -0.18066166 0.06509246
v -0.08131000 -0.17548300 0.07118400
v 0.08365956 -0.16360143 0.10705462
v 0.08610328 -0.16240715 0.11374591
v -0.05356861 -0.16457749 0.11155428
v -0.01028397 -0.18271861 0.06141055
v -0.03662100 -0.16943300 0.10223950
v -0.05009569 -0.18093497 0.06103894
v -0.08619251 -0.17618590 0.06521891
v -0.03843290 -0.16677556 0.11098710
v 0.03543000 -0.16797600 0.10750350
v 0.07385098 -0.16276460 0.11044269
v 0.06844378 -0.17840781 0.06197721
v 0.05682593 -0.17971380 0.06132424
v 0.04534076 -0.16346872 0.12185925
v 0.07962875 -0.16185489 0.11742655
v 0.00127927 -0.18263225 0.06289841
v -0.01980700 -0.18260400 0.05835300
v 0.07458319 -0.17812166 0.05651817
v 0.08656700 -0.17577374 0.06235738
v 0.04805282 -0.18086905 0.05934198
v -0.05763208 -0.16239812 0.12102461
v -0.08185654 -0.16186339 0.11617819
v -0.04818350 -0.18120451 0.05677250
v -0.03730600 -0.16635901 0.11356800
v 0.02963232 -0.16555000 0.12767357
v 0.03427324 -0.16560127 0.12015163
v -0.09080300 -0.17510100 0.06542200
v 0.06373385 -0.16191142 0.11957153
v 0.02195700 -0.18225800 0.05884600
v -0.05368098 -0.16263818 0.12095977
v -0.06669149 -0.16201700 0.11714237
v 0.05396190 -0.16241496 0.12395570
v -0.00037500 -0.18282300 0.05884600
v 0.03347925 -0.17082781 0.09889075
v 0.05114725 -0.16293125 0.12842762
v 0.06890200 -0.16172500 0.12300200
v 0.06526200 -0.16186699 0.12497600
v 0.08510593 -0.17631144 0.05826945
v 0.10021632 -0.16377895 0.11454544
v 0.05955600 -0.16210500 0.12571700
v 0.04691800 -0.16338850 0.13027400
v 0.08250434 -0.17672083 0.05306685
v 0.09542509 -0.17364612 0.06153531
v 0.05748900 -0.17993300 0.05465150
v 0.08757998 -0.17502485 0.04990022
v 0.08965753 -0.17507514 0.05189905
v -0.03534000 -0.17079300 0.09839050
v 0.09683305 -0.17300074 0.05687368
v 0.08643600 -0.17456700 0.04705200
v 0.07222012 -0.21085970 0.15401012
v 0.07671214 -0.20593747 0.15304394
v 0.10006793 -0.20160059 0.14426487
v 0.10940515 -0.18705727 0.13758168
v 0.11169761 -0.20483631 0.13978421
v 0.12665074 -0.19798058 0.13276695
v 0.10586114 -0.18329517 0.13742867
v 0.08669395 -0.19762185 0.14842114
v 0.06928897 -0.19821169 0.15376159
v 0.08508336 -0.19015658 0.14661751
v 0.09010963 -0.18301732 0.14245911
v 0.06573679 -0.19126139 0.15271204
v 0.06046760 -0.18546278 0.15128748
v 0.05544725 -0.19229835 0.15393048
v 0.11350153 -0.17548587 0.13118682
v 0.01409922 -0.18605499 0.15514824
v 0.08135398 -0.17591668 0.14171208
v 0.08438514 -0.17350889 0.13985306
v 0.06802635 -0.17366021 0.14329525
v 0.05035340 -0.17261141 0.14549812
v 0.05032849 -0.17626755 0.14765067
v 0.03745392 -0.18644448 0.15494016
v 0.02118551 -0.17915358 0.15212028
v 0.01908147 -0.18404290 0.15456208
v 0.04386800 -0.17101100 0.14481500
v 0.07789300 -0.16837300 0.13710750
v 0.08897000 -0.16840450 0.13411476
v 0.02048800 -0.17462575 0.14875525
v 0.04848300 -0.17020699 0.14367300
v 0.05366450 -0.16925799 0.14215200
v 0.03759900 -0.17023700 0.14463000
v 0.00553800 -0.18295901 0.15261801
v 0.10515125 -0.17026526 0.12991050
v 0.02183675 -0.17253975 0.14701625
v 0.07314700 -0.16891713 0.13839638
v 0.01233300 -0.17729500 0.15059499
v 0.07757651 -0.21414076 0.15241998
v 0.05832242 -0.22290451 0.15456031
v 0.04214432 -0.23071062 0.15444197
v 0.13000698 -0.20450086 0.13119281
v 0.04289416 -0.23533086 0.15375553
v 0.10723218 -0.21243997 0.14119679
v 0.03103334 -0.23696655 0.15408972
v 0.02718498 -0.24033403 0.15369478
v 0.01591100 -0.24318101 0.15332501
v 0.06644544 -0.19825751 0.15375776
v 0.02510951 -0.18927174 0.15476457
v 0.01198407 -0.24367230 0.15285299
v 0.06772295 -0.21248581 0.15383830
v 0.02375816 -0.23840497 0.15368446
v 0.05307775 -0.19378225 0.15313850
v 0.00654100 -0.18790101 0.15261000
v 0.03169400 -0.19185500 0.15359899
v 0.06599950 -0.20337525 0.15264050
v 0.06179550 -0.19840126 0.15265125
v 0.01666482 -0.25886581 0.14641160
v 0.05123326 -0.24424352 0.14792071
v 0.06091077 -0.24176039 0.14678817
v 0.01266194 -0.25823268 0.14759646
v 0.07413877 -0.23453788 0.14656407
v 0.07793400 -0.22846299 0.14811701
v 0.09996881 -0.22875304 0.13908279
v 0.06632254 -0.24546057 0.14263986
v 0.09192463 -0.23364501 0.13969309
v 0.05525097 -0.22996723 0.15348052
v 0.08627684 -0.22957120 0.14485189
v 0.10197614 -0.23108357 0.13642408
v 0.10044252 -0.23608223 0.13304873
v 0.04590691 -0.25286879 0.14363643
v 0.12276301 -0.21763729 0.13255963
v 0.12100606 -0.22789202 0.12714381
v 0.10367642 -0.22093527 0.14071144
v 0.12560746 -0.22271930 0.12819713
v 0.07979801 -0.24316687 0.13790581
v 0.07517574 -0.22400962 0.15096066
v 0.06825074 -0.21847776 0.15405646
v 0.08668800 -0.21773000 0.14855400
v 0.11599200 -0.21257700 0.13706300
v 0.08153600 -0.21650800 0.15063500
v 0.09411464 -0.21697233 0.14603158
v 0.03080958 -0.16688813 0.14023266
v 0.04395267 -0.16426847 0.13466823
v 0.05338564 -0.16642409 0.13913080
v 0.01533540 -0.17118903 0.14483309
v 0.01767410 -0.17216997 0.14651040
v 0.03025488 -0.17006904 0.14480164
v 0.07843354 -0.16215012 0.12558800
v 0.09086808 -0.16529412 0.13006668
v 0.06798355 -0.16231198 0.12839477
v 0.09364320 -0.16349038 0.12310385
v 0.06517334 -0.16528557 0.13620572
v 0.04984924 -0.16417367 0.13534542
v 0.06286113 -0.16391850 0.13331738
v 0.08017975 -0.16647978 0.13506503
v 0.05736421 -0.16257862 0.12975063
v 0.00835813 -0.17693923 0.14971180
v 0.02166663 -0.16836125 0.13994824
f 38 90 109
f 90 11 109
f 89 11 90
f 76 89 90
f 76 90 83
f 38 76 83
f 38 73 76
f 73 82 76
f 79 82 73
f 81 82 79
f 81 69 82
f 69 89 82
f 69 87 89
f 87 99 89
f 89 99 105
f 87 98 99
f 98 115 99
f 111 115 98
f 111 98 102
f 126 111 102
f 100 126 102
f 124 126 100
f 124 131 126
f 127 131 124
f 128 131 127
f 128 37 131
f 21 37 128
f 21 128 130
f 130 128 125
f 20 130 125
f 23 130 20
f 23 24 130
f 20 125 22
f 22 125 101
f 125 120 101
f 101 120 100
f 120 128 100
f 101 100 65
f 70 101 65
f 65 100 94
f 94 95 65
f 94 102 95
f 55 95 102
f 55 102 54
f 57 55 54
f 57 54 56
f 57 56 49
f 61 57 49
f 61 65 57
f 61 22 65
f 32 22 61
f 32 61 63
f 63 61 60
f 63 60 93
f 30 63 93
f 84 30 93
f 85 84 93
f 85 93 72
f 97 72 93
f 97 93 110
f 118 97 110
f 118 110 122
f 122 110 114
f 122 114 107
f 123 122 107
f 123 107 45
f 45 107 40
f 107 114 96
f 107 96 108
f 96 66 108
f 108 66 68
f 66 59 68
f 68 59 62
f 68 62 67
f 68 67 92
f 67 62 116
f 62 48 116
f 59 48 62
f 59 49 48
f 66 60 59
f 64 60 66
f 71 64 66
f 110 71 66
f 93 64 71
f 60 58 59
f 58 61 59
f 96 110 66
f 114 110 96
f 93 71 110
f 97 85 72
f 121 85 97
f 97 28 121
f 29 121 28
f 29 31 121
f 28 97 221
f 221 97 218
f 219 221 218
f 10 221 219
f 219 218 220
f 219 220 224
f 224 220 226
f 224 226 213
f 226 117 213
f 226 119 117
f 218 119 226
f 213 117 44
f 212 213 44
f 213 212 223
f 214 223 212
f 214 222 223
f 224 223 222
f 222 214 225
f 225 219 222
f 164 219 225
f 164 225 158
f 158 225 157
f 157 225 161
f 10 219 164
f 161 225 214
f 161 214 160
f 160 214 162
f 160 162 156
f 156 162 151
f 162 159 151
f 151 159 154
f 154 159 163
f 154 163 155
f 147 155 163
f 153 155 147
f 147 178 153
f 153 178 145
f 145 178 184
f 178 183 184
f 147 183 178
f 182 145 184
f 145 182 177
f 177 182 186
f 177 186 185
f 143 145 177
f 143 177 140
f 140 177 180
f 140 180 132
f 132 180 207
f 207 180 169
f 207 169 196
f 207 196 206
f 168 207 206
f 210 168 206
f 208 210 206
f 211 210 208
f 211 208 206
f 211 206 197
f 211 197 203
f 173 211 203
f 173 136 211
f 136 133 211
f 133 168 211
f 133 132 168
f 134 133 136
f 137 134 136
f 137 136 171
f 26 137 171
f 27 137 26
f 27 134 137
f 27 135 134
f 135 139 134
f 138 139 135
f 138 141 139
f 141 140 139
f 140 133 139
f 142 141 138
f 148 141 142
f 148 142 149
f 149 150 148
f 149 151 150
f 151 152 150
f 152 151 153
f 152 153 144
f 150 152 144
f 149 166 151
f 166 160 151
f 10 166 149
f 144 148 150
f 148 144 143
f 141 148 143
f 149 142 138
f 138 146 149
f 135 146 138
f 27 146 135
f 10 146 27
f 10 149 146
f 139 133 134
f 136 173 171
f 201 173 203
f 203 193 201
f 201 193 204
f 25 201 204
f 25 204 16
f 204 202 16
f 204 199 202
f 198 199 204
f 198 205 199
f 199 205 17
f 205 200 17
f 205 194 200
f 195 194 205
f 195 197 194
f 193 197 195
f 193 195 198
f 197 191 194
f 192 191 197
f 206 191 192
f 191 206 189
f 191 189 194
f 188 194 189
f 172 188 189
f 189 196 172
f 172 190 188
f 188 190 187
f 188 187 200
f 200 187 18
f 200 18 15
f 18 187 13
f 187 5 13
f 190 5 187
f 7 5 190
f 13 5 12
f 12 5 4
f 12 4 14
f 14 4 6
f 172 175 190
f 175 34 190
f 34 7 190
f 174 175 172
f 174 181 175
f 181 176 175
f 181 179 176
f 181 35 179
f 36 35 181
f 170 36 181
f 36 170 180
f 33 36 180
f 170 181 174
f 170 174 172
f 169 170 172
f 188 200 194
f 200 15 17
f 199 17 19
f 198 195 205
f 199 19 202
f 202 19 16
f 26 201 25
f 26 209 201
f 26 173 209
f 193 198 204
f 209 173 201
f 203 197 193
f 206 192 197
f 168 210 211
f 206 196 189
f 196 169 172
f 169 180 170
f 132 207 168
f 133 140 132
f 140 141 143
f 143 144 145
f 145 144 153
f 154 155 153
f 151 154 153
f 160 156 151
f 162 214 212
f 162 212 217
f 217 212 215
f 217 215 165
f 215 216 165
f 216 215 42
f 216 42 227
f 215 41 42
f 215 228 41
f 165 216 227
f 165 227 167
f 167 227 46
f 212 228 215
f 217 165 162
f 228 212 44
f 44 43 228
f 44 117 45
f 224 213 223
f 222 219 224
f 220 218 226
f 218 97 119
f 221 10 28
f 121 31 85
f 85 31 30
f 31 32 30
f 85 30 84
f 64 93 60
f 60 61 58
f 32 63 30
f 61 49 59
f 49 56 47
f 56 54 47
f 47 54 98
f 47 98 69
f 47 69 50
f 50 69 79
f 95 55 57
f 65 95 57
f 22 101 70
f 125 128 120
f 24 21 130
f 128 127 124
f 128 124 100
f 100 102 94
f 102 98 54
f 98 87 69
f 79 69 81
f 79 73 51
f 50 79 51
f 51 73 74
f 75 74 73
f 51 74 75
f 80 51 75
f 91 80 75
f 88 80 91
f 88 53 80
f 129 53 88
f 52 53 129
f 91 75 86
f 91 86 112
f 1 91 112
f 2 1 112
f 2 112 9
f 9 112 103
f 103 112 113
f 78 113 112
f 113 78 77
f 113 77 104
f 9 113 104
f 9 104 8
f 104 3 8
f 104 77 3
f 77 39 3
f 77 38 39
f 78 38 77
f 78 75 38
f 9 103 113
f 106 91 1
f 112 86 78
f 86 75 78
f 53 51 80
f 73 38 75
f 82 89 76
f 105 11 89
f 83 90 38

