v -0.0217558 -0.414696 0.158579
v -0.0154053 -0.41464 0.158957
v -0.0147338 -0.410289 0.152961
v -0.00722747 -0.404397 0.150261
v -0.00840795 -0.409519 0.154806
v -0.00140385 -0.403614 0.15278
v -0.000360078 -0.398163 0.148764
v 0.00712422 -0.385673 0.145948
v 0.00612114 -0.391658 0.148818
v 0.000750973 -0.3918 0.145804
v 0.00835619 -0.379974 0.142757
v 0.0152782 -0.361053 0.140309
v 0.0213193 -0.35459 0.141627
v 0.0148069 -0.367211 0.14205
v 0.0278413 -0.348443 0.141603
v 0.0275027 -0.354703 0.14294
v 0.0208805 -0.360778 0.14326
v 0.0205419 -0.367038 0.144596
v 0.0281407 -0.342218 0.140306
v 0.0347304 -0.336098 0.139998
v -0.0220159 -0.417174 0.164788
v 0.0407487 -0.335698 0.142151
v 0.0473304 -0.310325 0.137886
v 0.0472239 -0.31655 0.139015
v 0.0475703 -0.304162 0.136213
v 0.0478908 -0.298076 0.134073
v 0.0421987 -0.298788 0.131358
v 0.041753 -0.304776 0.133849
v 0.0365558 -0.299557 0.128563
v 0.0487822 -0.286471 0.128613
v 0.0483337 -0.29225 0.131385
v 0.0427355 -0.293073 0.128533
v 0.0432328 -0.287375 0.125679
v -0.0156962 -0.417542 0.165032
v 0.0370737 -0.293888 0.12576
v 0.0415574 -0.310916 0.135709
v 0.0413024 -0.317024 0.137546
v 0.0410474 -0.323132 0.139383
v 0.036198 -0.305572 0.13076
v 0.0359071 -0.311642 0.132699
v 0.0355385 -0.317629 0.134856
v 0.03517 -0.323616 0.137014
v 0.0348014 -0.329603 0.139171
v 0.0292004 -0.323955 0.134865
v 0.028837 -0.329955 0.137014
v 0.0296353 -0.318002 0.132579
v 0.0300658 -0.312044 0.130312
v 0.0227572 -0.336311 0.13614
v 0.0222753 -0.34236 0.137993
v -0.00904308 -0.414354 0.159417
v -0.00222586 -0.409045 0.156528
v 0.00480081 -0.403438 0.153978
v 0.0112086 -0.403498 0.154625
v 0.0128403 -0.385583 0.148217
v 0.0196628 -0.379523 0.147394
v 0.0134706 -0.379483 0.146246
v 0.0141492 -0.37335 0.144126
v 0.0218137 -0.348475 0.139783
v 0.0404715 -0.342025 0.143427
v 0.040157 -0.348277 0.144628
v 0.0341638 -0.348633 0.142409
v 0.0338611 -0.354894 0.143564
v 0.0335584 -0.361155 0.144719
v 0.0332557 -0.367416 0.145874
v 0.0383698 -0.379225 0.151265
v 0.0328165 -0.373546 0.147405
v 0.0322589 -0.379533 0.149323
v 0.0388214 -0.373174 0.149561
v 0.0391018 -0.366979 0.147957
v 0.0317062 -0.385498 0.151302
v 0.0249979 -0.391664 0.15175
v 0.024423 -0.397306 0.154355
v 0.0306753 -0.397104 0.155548
v 0.0238145 -0.402789 0.157246
v 0.0372161 -0.390889 0.155548
v 0.0368 -0.396699 0.157405
v 0.0311203 -0.391342 0.153538
v 0.0300195 -0.402364 0.158672
v 0.023144 -0.407243 0.161252
v 0.0226083 -0.411748 0.165225
v 0.0169317 -0.408132 0.159469
v 0.0163716 -0.412587 0.163546
v 0.0100328 -0.413087 0.162559
v 0.00369404 -0.413587 0.161572
v -0.00265869 -0.414024 0.160627
v 0.0041843 -0.408997 0.157165
v 0.0105902 -0.408886 0.157872
v 0.0097023 -0.416847 0.167748
v 0.00336343 -0.417249 0.16685
v -0.0029848 -0.417512 0.166076
v -0.00933659 -0.417667 0.165413
v -0.00944437 -0.421481 0.170346
v -0.0157973 -0.421519 0.169719
v -0.0220949 -0.421717 0.16878
v -0.00301784 -0.421599 0.170827
v 0.0034952 -0.421875 0.170412
v -0.00249498 -0.427464 0.168284
v 0.00383221 -0.426835 0.167261
v 0.016174 -0.41682 0.1676
v 0.0100873 -0.422097 0.168794
v 0.029425 -0.406678 0.16243
v 0.0175572 -0.403227 0.155699
v 0.0378051 -0.385163 0.153303
v 0.0260102 -0.379548 0.14825
v 0.0255264 -0.385693 0.149765
v 0.0181396 -0.397646 0.152991
v 0.0265011 -0.373462 0.146547
v 0.0191302 -0.385546 0.149353
v 0.0186315 -0.391568 0.151262
v 0.012258 -0.391609 0.150249
v 0.0117593 -0.39763 0.152159
v 0.00538579 -0.397672 0.151146
v 0.0398483 -0.354527 0.14581
v 0.0397596 -0.360886 0.146355
v 0.0344651 -0.342368 0.141275
v 0.0272007 -0.36097 0.144069
v 0.0269005 -0.367238 0.145187
v 0.0202127 -0.373327 0.14574
v 0.0284959 -0.336026 0.138852
f 21 34 2 1
f 34 91 50 2
f 50 5 3 2
f 5 51 6 4
f 50 85 51 5
f 51 86 52 6
f 52 112 7 6
f 112 9 10 7
f 9 110 54 8
f 54 56 11 8
f 112 111 110 9
f 14 18 17 12
f 17 116 16 13
f 16 15 58 13
f 57 118 18 14
f 16 62 61 15
f 61 115 19 15
f 19 49 58 15
f 116 63 62 16
f 18 117 116 17
f 118 107 117 18
f 115 20 119 19
f 119 48 49 19
f 115 59 22 20
f 36 37 24 23
f 25 28 36 23
f 26 27 28 25
f 31 32 27 26
f 29 39 28 27
f 32 35 29 27
f 39 40 36 28
f 33 32 31 30
f 40 41 37 36
f 41 42 38 37
f 47 46 41 40
f 46 44 42 41
f 44 45 43 42
f 115 61 60 59
f 61 62 113 60
f 63 114 113 62
f 116 117 64 63
f 64 69 114 63
f 117 107 66 64
f 66 68 69 64
f 67 70 103 65
f 68 66 67 65
f 107 104 67 66
f 104 105 70 67
f 105 71 77 70
f 77 75 103 70
f 109 106 72 71
f 72 73 77 71
f 105 108 109 71
f 106 102 74 72
f 74 78 73 72
f 76 75 77 73
f 102 81 79 74
f 79 101 78 74
f 81 82 80 79
f 87 83 82 81
f 102 53 87 81
f 83 88 99 82
f 84 89 88 83
f 87 86 84 83
f 85 90 89 84
f 86 51 85 84
f 50 91 90 85
f 87 53 52 86
f 89 96 100 88
f 90 95 96 89
f 91 92 95 90
f 34 93 92 91
f 34 21 94 93
f 97 98 96 95
f 106 111 53 102
f 55 108 105 104
f 107 118 55 104
f 109 110 111 106
f 54 110 109 108
f 55 56 54 108
f 112 52 53 111
f 57 56 55 118
