# https://github.com/mikedh/trimesh
v 0.14109701 -0.17612625 0.02449600
v 0.15409475 -0.15817250 0.06045125
v 0.17468100 -0.13558200 0.04327250
v 0.17821699 -0.12764700 0.03278400
v 0.18048801 -0.12646200 0.03393400
v 0.18047801 -0.12496800 0.03148000
v 0.18273750 -0.11871338 0.02611563
v 0.17603300 -0.10824025 0.01264050
v 0.18055401 -0.10994900 0.01668550
v 0.14505200 -0.17306000 0.03503500
v 0.14317625 -0.17324812 0.02519137
v 0.14646950 -0.17089851 0.03811900
v 0.14601850 -0.16840901 0.06205400
v 0.14745601 -0.16713500 0.05214100
v 0.13230475 -0.18702849 0.02530325
v 0.11497925 -0.20271363 0.02953550
v 0.09246362 -0.21570438 0.03695938
v 0.02431800 -0.23293975 0.05125350
v 0.06331900 -0.22646500 0.04995300
v 0.05697500 -0.22788400 0.05046550
v -0.01664263 -0.23538025 0.05868012
v -0.00860950 -0.29719299 0.09003550
v -0.04938900 -0.23666801 0.06186500
v 0.02976400 -0.30778550 0.09437750
v 0.01344400 -0.30936101 0.09393300
v 0.04209100 -0.30261701 0.09405300
v 0.05375050 -0.30289800 0.09624550
v 0.06755350 -0.30594899 0.10053100
v 0.18352100 -0.25636899 0.07662500
v 0.20750658 -0.25390350 0.07261499
v 0.16210899 -0.25748011 0.07703995
v 0.14684991 -0.26221833 0.08184160
v 0.17674407 -0.25630038 0.07585332
v 0.15060027 -0.26634348 0.08851537
v 0.18968087 -0.25769891 0.07943452
v 0.18217055 -0.27161007 0.10376898
v 0.19460958 -0.26878936 0.10212520
v 0.19855845 -0.26016864 0.08582279
v 0.17327577 -0.26565201 0.09186325
v 0.21817081 -0.26737957 0.10500564
v 0.24003193 -0.26502994 0.10437644
v 0.19127146 -0.25214773 0.06937479
v 0.24730422 -0.26367371 0.10079687
v 0.21486003 -0.25949569 0.08699266
v 0.21279156 -0.25107953 0.06498124
v 0.24120600 -0.26002707 0.09141514
v 0.19359866 -0.24904138 0.06467937
v 0.25855217 -0.26094559 0.09234936
v 0.25573997 -0.26189403 0.09576618
v 0.21375858 -0.24882405 0.05999359
v 0.23567828 -0.26718677 0.10695394
v 0.25041962 -0.25687961 0.08122736
v 0.22406944 -0.25372602 0.07087391
v 0.24142128 -0.25677315 0.08119067
v 0.23125793 -0.25344418 0.06941337
v 0.24555200 -0.25544599 0.07529200
v 0.22169168 -0.24514725 0.04907166
v 0.25970663 -0.25963342 0.08788523
v 0.26260701 -0.25799501 0.07952700
v 0.22494032 -0.24197308 0.04103500
v 0.23435232 -0.25002154 0.05704867
v 0.26264982 -0.26386103 0.09911048
v 0.24067645 -0.25286831 0.06504872
v 0.25585327 -0.25550881 0.07217424
v 0.26700733 -0.26029125 0.08658185
v 0.27817673 -0.26433108 0.09036797
v 0.20996856 -0.27156878 0.10961860
v 0.21069791 -0.24607386 0.05589682
v 0.25378841 -0.26763201 0.10733134
v 0.24782196 -0.25047752 0.04980331
v 0.26393142 -0.25625882 0.06820429
v 0.13201991 -0.26558529 0.08384774
v 0.12237773 -0.27119374 0.08887567
v 0.15714402 -0.27434919 0.10177368
v 0.22219700 -0.27219701 0.11197700
v 0.27393011 -0.26250757 0.08885062
v 0.26735074 -0.26957266 0.10686611
v 0.23806061 -0.24346258 0.03446191
v 0.27451021 -0.26902999 0.10252550
v 0.20696042 -0.27234652 0.11041098
v 0.14932260 -0.25693458 0.07596878
v 0.15052221 -0.28156125 0.10803793
v 0.19137495 -0.27884293 0.11402413
v 0.12615026 -0.28074032 0.10029376
v 0.24435378 -0.24805993 0.04264516
v 0.20481059 -0.24012473 0.04923303
v 0.22931495 -0.27423345 0.11488505
v 0.17824415 -0.24433491 0.06187748
v 0.17514855 -0.27654360 0.10863935
v 0.12490236 -0.26199008 0.07942144
v 0.11378766 -0.26831035 0.08433902
v 0.10503603 -0.27684970 0.09093014
v 0.12747320 -0.27892760 0.09876365
v 0.14779863 -0.25097397 0.07052393
v 0.24797249 -0.27127331 0.11244714
v 0.15577319 -0.28433503 0.11190987
v 0.23664492 -0.23693608 0.02065793
v 0.18536147 -0.24071397 0.05667076
v 0.27681366 -0.26660995 0.09719319
v 0.23797727 -0.27707731 0.11775068
v 0.27625038 -0.26147815 0.08272678
v 0.25696164 -0.25165381 0.04097358
v 0.11678134 -0.26144794 0.07826635
v 0.13674973 -0.28806563 0.10977334
v 0.27625293 -0.26030246 0.07617146
v 0.26187128 -0.27222518 0.11161379
v 0.24955570 -0.27660956 0.11710956
v 0.20532215 -0.28237212 0.11873171
v 0.10052980 -0.28280465 0.09536328
v 0.25380223 -0.24768776 0.02409633
v 0.26371830 -0.25439042 0.05044219
v 0.29479920 -0.27063654 0.08639305
v 0.28152227 -0.26166954 0.07538830
v 0.10884600 -0.25638465 0.07378615
v 0.09729439 -0.26539178 0.07989685
v 0.28467121 -0.26944926 0.09613145
v 0.22749216 -0.23345059 0.02481365
v 0.24566450 -0.27828595 0.11849863
v 0.08746325 -0.26441260 0.07825346
v 0.21391070 -0.23557977 0.03896412
v 0.21386277 -0.27625977 0.11520430
v 0.16446441 -0.24439126 0.06362826
v 0.09056728 -0.27560915 0.08739106
v 0.13693032 -0.24527084 0.06649203
v 0.20820824 -0.23307259 0.03974006
v 0.07618573 -0.27367875 0.08347221
v 0.18205205 -0.28462871 0.11701740
v 0.10707703 -0.28686457 0.10041009
v 0.09377331 -0.29165412 0.10014947
v 0.18307699 -0.23781000 0.05480400
v 0.24776198 -0.24560035 0.02865996
v 0.20151207 -0.23592872 0.04598563
v 0.13831864 -0.24930461 0.06917389
v 0.27579652 -0.25837804 0.05695160
v 0.28450896 -0.26275571 0.07181831
v 0.29393951 -0.26731725 0.07037856
v 0.08484882 -0.28441489 0.09292908
v 0.15415363 -0.24579276 0.06577448
v 0.27868877 -0.27413147 0.10724238
v 0.14089300 -0.28922999 0.11167300
v 0.07088148 -0.28030221 0.08715531
v 0.26394577 -0.25377926 0.03779576
v 0.28484032 -0.27484964 0.10360870
v 0.07530464 -0.29783235 0.09881561
v 0.07137284 -0.28773270 0.09205121
v 0.12042026 -0.25245810 0.07137349
v 0.09860185 -0.25243056 0.07071219
v 0.07214602 -0.25315411 0.07037625
v 0.07814010 -0.26028706 0.07470290
v 0.06900363 -0.26345466 0.07601041
v 0.17231420 -0.23610444 0.05641170
v 0.14759593 -0.29096412 0.11447072
v 0.15738640 -0.23586641 0.05905384
v 0.26668900 -0.25466999 0.03318400
v 0.14159901 -0.29215421 0.11374741
v 0.25165617 -0.28172333 0.12071689
v 0.27333522 -0.25764822 0.03223208
v 0.28079388 -0.26031390 0.05074509
v 0.24224675 -0.23943374 0.01785150
v 0.04116013 -0.28546662 0.08611370
v 0.03185072 -0.28581798 0.08550578
v 0.05488035 -0.26995647 0.07874439
v 0.03527065 -0.27388780 0.07948750
v 0.01630554 -0.28194598 0.08257590
v 0.02603533 -0.26123149 0.07280065
v 0.00274322 -0.27919918 0.08112324
v -0.00975096 -0.27871263 0.08126487
v -0.03238566 -0.24593290 0.06598960
v -0.00612169 -0.25997373 0.07203021
v 0.08257023 -0.24316049 0.06559873
v 0.10940677 -0.23464960 0.06173966
v 0.07123362 -0.23459957 0.06149712
v 0.01863053 -0.24293599 0.06408173
v 0.12114481 -0.23255798 0.06043012
v 0.11976036 -0.21898182 0.05415722
v 0.11057935 -0.22271181 0.05620229
v 0.01074487 -0.26291353 0.07330387
v -0.00113106 -0.24546663 0.06532291
v -0.00511653 -0.29292756 0.08797931
v 0.04615709 -0.26218890 0.07390789
v 0.26608583 -0.27841659 0.11586416
v 0.12139279 -0.24240292 0.06532257
v 0.18814276 -0.23732783 0.05269418
v 0.06250123 -0.29418030 0.09382910
v 0.10055329 -0.30094256 0.10735425
v 0.07832774 -0.29549477 0.09833898
v 0.29156955 -0.27092293 0.09070797
v 0.20575900 -0.23121800 0.03963300
v 0.11632294 -0.21369820 0.05087281
v 0.04524847 -0.23062507 0.05477001
v 0.02638792 -0.23322434 0.05631022
v 0.00618035 -0.23521317 0.05811223
v -0.00683699 -0.23603085 0.05911703
v 0.05206091 -0.23092784 0.05700629
v 0.06385480 -0.22736771 0.05392070
v 0.07986600 -0.22239500 0.05109200
v 0.07136548 -0.22697324 0.05546421
v 0.08615150 -0.22026800 0.05037700
v 0.07245150 -0.22462851 0.05215500
v -0.03677502 -0.23753950 0.06188849
v -0.00361660 -0.23850803 0.06159755
v 0.09496000 -0.21694900 0.04928700
v 0.10279350 -0.21312525 0.04694125
v 0.02667003 -0.23535649 0.05958696
v 0.08839552 -0.22431658 0.05563164
v 0.10943025 -0.20937250 0.04438062
v 0.11957194 -0.20280093 0.04053237
v 0.01733310 -0.23914938 0.06215718
v 0.09485429 -0.22485538 0.05677664
v 0.12824872 -0.20173749 0.04341103
v 0.05507953 -0.23311201 0.05957999
v 0.11903531 -0.20485312 0.04290753
v 0.05684528 -0.23585468 0.06159486
v 0.13230183 -0.20175684 0.04480400
v 0.13050400 -0.19283601 0.03633750
v 0.12719438 -0.20856195 0.04821358
v 0.25615819 -0.28229497 0.12005548
v 0.18548227 -0.23662877 0.05306335
v 0.27526822 -0.27949373 0.11383789
v 0.27343539 -0.28242504 0.11587679
v 0.05252184 -0.28801529 0.08882018
v 0.15910636 -0.29237934 0.11758722
v 0.13311975 -0.29783830 0.11466036
v 0.14253716 -0.24053080 0.06318914
v 0.21360125 -0.28521153 0.12098724
v 0.14752037 -0.23383114 0.05938135
v 0.06028805 -0.29895702 0.09574413
v 0.14978124 -0.29643708 0.11766474
v 0.28834542 -0.28027990 0.10680718
v 0.13413114 -0.21067281 0.04991108
v 0.14251670 -0.22349754 0.05541461
v 0.13026018 -0.19532682 0.03876192
v 0.15433957 -0.23001924 0.05678808
v 0.00760920 -0.29536425 0.08869313
v 0.01957240 -0.29968540 0.09069016
v 0.03947691 -0.29890980 0.09207174
v 0.13545513 -0.19145068 0.03945870
v 0.17093448 -0.29185355 0.11923062
v 0.19924007 -0.28947630 0.12155334
v 0.22392875 -0.28807425 0.12251400
v 0.23996399 -0.28556100 0.12203700
v 0.14096858 -0.21402044 0.05165665
v 0.29172725 -0.28604383 0.10832601
v 0.19448100 -0.29208800 0.12199900
v 0.16314850 -0.29798275 0.12028075
v 0.12131144 -0.30151839 0.11329566
v 0.13871675 -0.30167375 0.11732300
v 0.16743453 -0.23124168 0.05505383
v 0.27527576 -0.28572025 0.11659812
v 0.13434701 -0.18888900 0.03565100
v 0.18951889 -0.22965884 0.04721640
v 0.14412302 -0.20780014 0.04984420
v 0.10541287 -0.30710388 0.11115950
v 0.15959633 -0.22487752 0.05457407
v 0.29568188 -0.28099482 0.10091787
v 0.13734354 -0.19863362 0.04457765
v 0.18167057 -0.22828636 0.04998062
v 0.14422375 -0.20049250 0.04801275
v 0.29331328 -0.27547645 0.09706512
v 0.21562074 -0.22960881 0.03076251
v 0.28460650 -0.28847100 0.11368400
v 0.20320052 -0.22737663 0.03856765
v 0.23228094 -0.23089329 0.01521969
v 0.13750325 -0.18875001 0.03869250
v 0.19647400 -0.22545500 0.04168800
v 0.15092349 -0.21854052 0.05345214
v 0.22388725 -0.22425850 0.01664712
v 0.16415050 -0.22448799 0.05356050
v 0.14041892 -0.19728085 0.04520613
v 0.17771913 -0.22547937 0.05017325
v 0.29895839 -0.27084786 0.07356662
v 0.26679269 -0.25452649 0.02781050
v 0.30522483 -0.29032748 0.09779421
v 0.15091575 -0.21089250 0.05199712
v 0.15483400 -0.21702500 0.05317600
v 0.28787068 -0.26377568 0.06321441
v 0.24576162 -0.23981942 0.01177874
v 0.25070231 -0.24178638 0.00478315
v 0.22798046 -0.22618288 0.01448752
v 0.24362650 -0.23401900 -0.00109350
v 0.20520400 -0.22270000 0.03475900
v 0.24451515 -0.23556071 0.00196643
v 0.14281104 -0.20341873 0.04816476
v 0.26035476 -0.24987318 0.00326583
v 0.27053633 -0.25666191 0.02507531
v 0.29410035 -0.26722038 0.05848298
v 0.30466381 -0.27645049 0.07774712
v 0.25827409 -0.24829318 0.00822180
v 0.25526401 -0.24447601 -0.00524800
v 0.26167571 -0.25108744 0.01615668
v 0.28560227 -0.26362654 0.04291077
v 0.27711108 -0.26041002 0.02503696
v 0.30860299 -0.28162500 0.07971200
v 0.26120424 -0.25017050 -0.00218700
v 0.27644801 -0.26083300 0.01937800
v 0.29909675 -0.27096250 0.06057525
v 0.30386000 -0.27478449 0.06939500
v 0.30762601 -0.27915000 0.07439200
v 0.29206526 -0.26706500 0.04800800
v 0.29443151 -0.26810451 0.05227500
v 0.30053541 -0.27820124 0.09252916
v 0.28353599 -0.26380700 0.03089400
v 0.28880301 -0.26579300 0.04208700
v 0.28041350 -0.26266850 0.02486150
v 0.26426300 -0.25291800 0.00085900
v 0.30597690 -0.29321108 0.09907042
v 0.30809663 -0.28515774 0.08846777
v 0.30686200 -0.27794400 0.07162300
v 0.30847263 -0.28077087 0.07669613
v 0.31372375 -0.29864375 0.09026575
v 0.31156300 -0.28753100 0.08312900
v 0.29761888 -0.29122175 0.10553025
v 0.31102761 -0.28841724 0.08652574
v 0.14885400 -0.20715449 0.05105450
v 0.30181700 -0.40412399 0.05355300
v 0.32102675 -0.32305925 0.08017375
v 0.31847301 -0.35976699 0.06393900
v 0.32085726 -0.34551825 0.07075025
v 0.31469138 -0.29549450 0.08456950
v 0.31868949 -0.30813800 0.08477850
v 0.19671649 -0.10487700 0.02172500
v 0.18704525 -0.10075725 0.01596925
v 0.19960922 -0.11159701 0.02754825
v 0.15708445 -0.16730301 0.07455128
v 0.18024901 -0.14335100 0.05824100
v 0.19326550 -0.12810475 0.04375675
v 0.18987300 -0.13379100 0.04941600
v 0.16757924 -0.15502950 0.06746850
v 0.16119900 -0.16069700 0.07074100
v 0.14648475 -0.17578350 0.07414150
v 0.16058901 -0.21213999 0.05451300
v 0.19826249 -0.11962250 0.03527400
v 0.15939875 -0.19130425 0.07130250
v 0.14989450 -0.18149400 0.07587350
v 0.16988599 -0.20693199 0.05815300
v 0.16619325 -0.19816200 0.06571025
v 0.14809200 -0.17779100 0.07595950
v 0.16618800 -0.20809151 0.05757650
v 0.30581151 -0.42188750 0.03250500
v 0.31038600 -0.43415001 0.01273800
v 0.30800900 -0.42887151 0.01738750
v 0.31647000 -0.44253799 0.01584400
v 0.30223438 -0.41027962 0.04841275
v 0.14404759 -0.17179752 0.06600502
v 0.14341651 -0.17374722 0.06417453
v 0.14461437 -0.17525950 0.05510912
v 0.14491528 -0.17641795 0.04707655
v 0.14519883 -0.17461228 0.04212416
v 0.14335620 -0.18023911 0.04187720
v 0.14318474 -0.17691202 0.03665166
v 0.14398927 -0.18527982 0.04613731
v 0.14297203 -0.17778162 0.07052515
v 0.14290181 -0.17966352 0.06761720
v 0.14443996 -0.17762376 0.05368224
v 0.14490725 -0.18790800 0.04928650
v 0.14413400 -0.17856550 0.07325500
v 0.14478900 -0.18248101 0.05428600
v 0.14523099 -0.18494700 0.05292400
v 0.14315314 -0.17429624 0.06927258
v 0.14295662 -0.19193875 0.04585413
v 0.14132241 -0.18058414 0.03721354
v 0.14569866 -0.16934271 0.06809730
v 0.13461358 -0.18606620 0.02840350
v 0.14080501 -0.18683800 0.04116600
v 0.11392321 -0.20519474 0.03347681
v 0.12505451 -0.19712550 0.03359234
v 0.11586209 -0.20457426 0.03790180
v 0.15661028 -0.15553631 0.06058300
v 0.11168622 -0.20784053 0.04203265
v 0.09536476 -0.21563435 0.04093499
v 0.08752773 -0.21922833 0.04776148
v 0.07586133 -0.22332427 0.04970031
v 0.15178954 -0.16462672 0.07015087
v 0.18774322 -0.12114014 0.03305347
v 0.13801841 -0.18553979 0.03678255
v 0.17183331 -0.14152233 0.05222608
v 0.15918028 -0.15508378 0.06399412
v 0.15496001 -0.16397042 0.07166173
v 0.14146316 -0.19099604 0.04378891
v 0.19021331 -0.11042499 0.02348791
v 0.18918721 -0.11628970 0.02846027
v 0.18277402 -0.10628714 0.01600487
v 0.18953260 -0.10510726 0.01934487
v 0.19584416 -0.11874540 0.03371938
v 0.18366838 -0.13162946 0.04565287
v 0.15129800 -0.19324601 0.06704200
v 0.15288117 -0.19848084 0.05913132
v 0.15508474 -0.20107196 0.05912002
v 0.15102352 -0.19573387 0.05990569
v 0.14539628 -0.18497055 0.07109395
v 0.15330645 -0.20336999 0.05490595
v 0.14706119 -0.18938547 0.05726448
v 0.14599294 -0.18686335 0.05499320
v 0.14724169 -0.19160071 0.05325503
v 0.14837439 -0.19896164 0.05144553
v 0.14695998 -0.19491646 0.05084365
v 0.15795991 -0.20509412 0.05785622
v 0.14527533 -0.19462888 0.04857423
v 0.15600325 -0.19766610 0.06524503
v 0.14738881 -0.18653808 0.07233792
v 0.15279400 -0.18942900 0.07210400
v 0.15647747 -0.19378030 0.06930998
v 0.15673442 -0.19102506 0.07154056
v 0.16197281 -0.20512058 0.05965479
v 0.16645036 -0.20402197 0.06103635
v 0.30139578 -0.32524127 -0.01184367
v 0.30487923 -0.30480352 0.00704565
v 0.31053701 -0.29943800 0.02627200
v 0.31198794 -0.30973551 0.02002891
v 0.31586486 -0.30186283 0.03788142
v 0.29272049 -0.31455355 -0.02575424
v 0.30832594 -0.32187219 0.00487558
v 0.29636936 -0.34654380 -0.02728662
v 0.29083349 -0.37204618 -0.03877808
v 0.28789584 -0.35608003 -0.04485856
v 0.28605405 -0.36674450 -0.04831885
v 0.29742608 -0.36596325 -0.02482178
v 0.30981668 -0.35843392 0.00383936
v 0.29470175 -0.37428868 -0.03016075
v 0.29356829 -0.38840773 -0.02973795
v 0.29323399 -0.40182099 -0.02719300
v 0.30564349 -0.36837629 -0.00496776
v 0.30545595 -0.34512707 -0.00720295
v 0.31398987 -0.34091706 0.01357996
v 0.31802067 -0.33618168 0.02518744
v 0.30215914 -0.35264792 -0.01499969
v 0.27947215 -0.40522810 -0.05598721
v 0.28159265 -0.37317102 -0.05609315
v 0.29481111 -0.33341006 -0.02825770
v 0.30005601 -0.32817301 -0.01551900
v 0.28469040 -0.34794354 -0.05055052
v 0.31255604 -0.31506131 0.01810033
v 0.31082534 -0.32915679 0.00794091
v 0.31584667 -0.32821326 0.02072576
v 0.26711344 -0.34810107 -0.07772430
v 0.31722246 -0.32235420 0.02622120
v 0.31669751 -0.30981703 0.03251011
v 0.27837314 -0.35675235 -0.06165819
v 0.27553740 -0.39921758 -0.06341086
v 0.27224736 -0.37520089 -0.07065373
v 0.26933226 -0.40507680 -0.07194740
v 0.27322229 -0.36334896 -0.06948743
v 0.27660999 -0.35348001 -0.06422900
v 0.27031093 -0.36521056 -0.07349425
v 0.26634436 -0.37328803 -0.07857786
v 0.32227174 -0.32836483 0.03997622
v 0.27003182 -0.43293621 -0.07472113
v 0.27762510 -0.42784156 -0.06179894
v 0.26830395 -0.42709331 -0.07492378
v 0.28825305 -0.43020345 -0.04415606
v 0.28003093 -0.43472877 -0.06164379
v 0.27509001 -0.41936299 -0.06368200
v 0.28490082 -0.42326964 -0.04709821
v 0.25946246 -0.42471285 -0.08456022
v 0.27825752 -0.41691757 -0.05794291
v 0.29063275 -0.44097525 -0.04780062
v 0.29428881 -0.42075066 -0.02516391
v 0.27896801 -0.44474000 -0.06899400
v 0.27068896 -0.41436932 -0.06986459
v 0.28752178 -0.41739970 -0.03978276
v 0.27185734 -0.43831043 -0.07471471
v 0.29259952 -0.43208706 -0.03676418
v 0.26459292 -0.41363218 -0.07772588
v 0.29365179 -0.40952841 -0.02503586
v 0.29773939 -0.41848593 -0.01419338
v 0.28959827 -0.40695190 -0.03525250
v 0.26103400 -0.43490900 -0.08559350
v 0.31656570 -0.34851647 0.02087589
v 0.31994546 -0.33747307 0.03123243
v 0.29772091 -0.40219358 -0.01517359
v 0.25066947 -0.42918662 -0.09410770
v 0.32118882 -0.33756981 0.03521160
v 0.24864235 -0.42008187 -0.09479218
v 0.29750057 -0.43633989 -0.03040755
v 0.32225580 -0.32067234 0.04340989
v 0.30082663 -0.41867243 -0.00277307
v 0.29955203 -0.42877531 -0.01623742
v 0.29804745 -0.39416907 -0.01675231
v 0.31213455 -0.36668546 0.01283452
v 0.30958478 -0.37396627 0.00848084
v 0.24677962 -0.42973881 -0.09767449
v 0.23789236 -0.43444913 -0.10584160
v 0.31659487 -0.35335531 0.02225301
v 0.29590271 -0.41127904 -0.01871446
v 0.30299095 -0.42581941 -0.00149452
v 0.30727350 -0.44410249 -0.01730250
v 0.30337425 -0.43677317 -0.01727201
v 0.24763650 -0.43765150 -0.09873200
v 0.24234804 -0.41895182 -0.10014889
v 0.32326078 -0.32145172 0.04831759
v 0.30151315 -0.41501330 0.00155076
v 0.30118106 -0.39334801 -0.00769733
v 0.31053701 -0.44354200 -0.00827600
v 0.30162552 -0.40894567 0.00214072
v 0.32369301 -0.32806399 0.04798900
v 0.32010374 -0.34921953 0.03347509
v 0.30119553 -0.40321043 -0.00238903
v 0.30192900 -0.40007299 -0.00123700
v 0.30881063 -0.38253943 0.01159716
v 0.30266402 -0.42251227 0.00067658
v 0.29637698 -0.29087315 0.00174448
v 0.30979678 -0.28988274 0.03614936
v 0.31905080 -0.29936294 0.05410817
v 0.32415573 -0.32883851 0.05053795
v 0.31423600 -0.44453449 0.00196850
v 0.31947063 -0.35798463 0.03610433
v 0.32350196 -0.31859901 0.05159813
v 0.31944051 -0.30272691 0.04906545
v 0.32395663 -0.33570821 0.04890934
v 0.30621521 -0.42459527 0.01850302
v 0.30847009 -0.43423373 0.00299613
v 0.30406522 -0.41517336 0.01944258
v 0.30436592 -0.39216759 0.00269683
v 0.30545076 -0.39820799 0.01340218
v 0.31942800 -0.44648999 0.01931500
v 0.31318163 -0.29283672 0.04175441
v 0.30355681 -0.40568955 0.01127550
v 0.31330440 -0.37419727 0.02298472
v 0.31612635 -0.36521291 0.02673464
v 0.30669613 -0.43011840 0.00589125
v 0.31992015 -0.29851278 0.06282376
v 0.31678881 -0.29422787 0.05352626
v 0.32429939 -0.32169714 0.05564992
v 0.28635198 -0.27776574 -0.00232592
v 0.30454613 -0.42001257 0.01584341
v 0.32247088 -0.34228707 0.04098793
v 0.32353631 -0.34426261 0.05087468
v 0.31631026 -0.37031115 0.03389157
v 0.32299419 -0.30877797 0.06178388
v 0.22604325 -0.44351949 -0.11552625
v 0.32458712 -0.33348067 0.05566037
v 0.30437718 -0.41106180 0.02532362
v 0.30531195 -0.28096678 0.04131288
v 0.32128701 -0.30353774 0.05588138
v 0.32376365 -0.31323611 0.06437000
v 0.30400671 -0.41063920 0.01937630
v 0.31758489 -0.29325927 0.06653916
v 0.32456024 -0.33244416 0.06369165
v 0.32462715 -0.32528609 0.06305712
v 0.29029444 -0.27405130 0.01542742
v 0.31084338 -0.28419869 0.05354229
v 0.27849981 -0.26939377 -0.00786063
v 0.30594914 -0.40191546 0.02929611
v 0.30191006 -0.27791858 0.03864923
v 0.30440581 -0.41329570 0.03152824
v 0.32070659 -0.35794486 0.04720342
v 0.31651056 -0.29129949 0.06844271
v 0.31535767 -0.28898958 0.06401719
v 0.32260104 -0.34913704 0.05598726
v 0.30451265 -0.40814842 0.03487754
v 0.30656720 -0.39929703 0.02795246
v 0.30607882 -0.40105948 0.03585837
v 0.27981614 -0.26448434 0.01318166
v 0.30217001 -0.27424800 0.05388100
v 0.30731958 -0.28012278 0.05091256
v 0.30743964 -0.27892341 0.05988595
v 0.30475928 -0.40748464 0.03083818
v 0.32429784 -0.32626151 0.06734641
v 0.30809127 -0.27890629 0.06767699
v 0.29140758 -0.26792143 0.04013191
v 0.31650791 -0.37197049 0.04071436
v 0.32026129 -0.30002979 0.07179681
v 0.31601645 -0.37363310 0.04370003
v 0.30555325 -0.40085078 0.04115860
v 0.30309365 -0.27453195 0.05756733
v 0.30434496 -0.41594249 0.03595189
v 0.32427092 -0.31931375 0.06776108
v 0.29825455 -0.27140047 0.04930509
v 0.32156833 -0.35376074 0.05601427
v 0.32393628 -0.33918435 0.06277240
v 0.30380156 -0.40894738 0.04081034
v 0.30393600 -0.40603799 0.04305400
v 0.31561662 -0.29062846 0.07561305
v 0.32324339 -0.33973825 0.06761662
v 0.31106843 -0.28331029 0.07447946
v 0.26955041 -0.25737300 0.00242987
v 0.32198187 -0.30983869 0.07587827
v 0.31603982 -0.37269135 0.05135109
v 0.32009539 -0.30276179 0.07750864
v 0.32262526 -0.33508472 0.07224949
v 0.32259772 -0.32641799 0.07588751
v 0.31864637 -0.36400795 0.05618828
v 0.32164503 -0.35022326 0.06310294
v 0.31741112 -0.29722115 0.08087449
v 0.30282929 -0.40554271 0.04835802
v 0.30685499 -0.39460900 0.04871800
v 0.32179317 -0.31811914 0.07877255
v 0.32037130 -0.30807942 0.08093809
v 0.31567921 -0.37154934 0.05699181
f 200 21 193
f 192 193 21
f 21 200 23
f 201 200 193
f 192 21 18
f 192 201 193
f 200 168 23
f 200 201 168
f 192 18 191
f 204 201 192
f 168 167 23
f 201 173 168
f 190 191 18
f 191 204 192
f 208 201 204
f 179 23 167
f 166 167 168
f 173 178 168
f 208 173 201
f 190 18 195
f 194 191 190
f 191 211 204
f 208 204 211
f 179 22 23
f 166 179 167
f 169 166 168
f 178 177 168
f 177 178 173
f 213 173 208
f 194 190 195
f 194 211 191
f 211 213 208
f 25 22 179
f 166 234 179
f 177 166 169
f 177 169 168
f 173 165 177
f 173 213 172
f 195 197 194
f 194 197 211
f 172 213 211
f 179 234 25
f 164 234 166
f 177 164 166
f 165 173 180
f 165 164 177
f 170 173 172
f 197 195 196
f 205 211 197
f 209 172 211
f 235 25 234
f 235 234 164
f 164 165 180
f 170 180 173
f 171 170 172
f 197 196 198
f 205 197 198
f 209 211 205
f 176 172 209
f 24 25 235
f 161 235 164
f 180 163 164
f 148 180 170
f 171 148 170
f 176 171 172
f 203 205 198
f 203 209 205
f 209 175 176
f 24 235 236
f 163 161 164
f 161 236 235
f 161 163 180
f 150 180 148
f 171 182 148
f 175 171 176
f 189 209 203
f 189 175 209
f 26 24 236
f 236 161 160
f 162 161 180
f 149 150 148
f 180 150 162
f 147 148 182
f 174 182 171
f 175 174 171
f 210 189 203
f 230 175 189
f 236 27 26
f 162 160 161
f 221 236 160
f 148 147 149
f 119 150 149
f 150 126 162
f 182 146 147
f 231 182 174
f 242 174 175
f 210 216 189
f 210 203 212
f 230 242 175
f 230 189 216
f 27 236 227
f 126 160 162
f 160 126 221
f 227 236 221
f 147 119 149
f 126 150 119
f 146 114 147
f 133 146 182
f 242 231 174
f 226 182 231
f 214 216 210
f 203 207 212
f 210 212 232
f 242 230 252
f 252 230 216
f 227 28 27
f 126 141 221
f 221 184 227
f 114 119 147
f 115 126 119
f 133 114 146
f 182 124 133
f 252 231 242
f 226 224 182
f 231 233 226
f 256 214 210
f 214 252 216
f 232 212 207
f 256 210 232
f 144 28 227
f 141 126 145
f 141 145 221
f 145 184 221
f 145 227 184
f 114 115 119
f 123 126 115
f 94 114 133
f 124 94 133
f 224 124 182
f 266 231 252
f 226 153 224
f 153 226 233
f 254 233 231
f 256 252 214
f 232 207 215
f 237 256 232
f 185 28 144
f 186 144 227
f 137 145 126
f 145 186 227
f 114 103 115
f 123 115 103
f 123 137 126
f 94 103 114
f 138 94 124
f 138 124 224
f 266 254 231
f 275 266 252
f 153 122 224
f 248 153 233
f 254 248 233
f 256 283 252
f 237 232 215
f 269 256 237
f 253 28 185
f 129 185 144
f 129 144 186
f 129 145 137
f 129 186 145
f 91 123 103
f 129 137 123
f 94 90 103
f 122 94 138
f 122 138 224
f 275 254 266
f 274 275 252
f 153 151 122
f 248 151 153
f 254 257 248
f 258 252 283
f 258 283 256
f 237 215 250
f 258 256 269
f 185 246 253
f 223 185 129
f 103 73 91
f 73 123 91
f 109 129 123
f 94 72 90
f 72 103 90
f 122 88 94
f 275 268 254
f 314 274 252
f 88 122 151
f 257 151 248
f 270 257 254
f 314 252 258
f 264 237 250
f 223 246 185
f 247 253 246
f 223 129 155
f 73 103 72
f 73 92 123
f 109 123 92
f 128 129 109
f 94 81 72
f 94 88 81
f 270 254 268
f 98 88 151
f 257 251 151
f 265 257 270
f 395 314 258
f 258 237 264
f 223 247 246
f 155 129 104
f 152 223 155
f 74 73 72
f 84 92 73
f 84 109 92
f 104 128 109
f 129 128 104
f 32 72 81
f 31 81 88
f 88 98 68
f 130 98 151
f 251 218 151
f 265 251 257
f 395 258 398
f 391 314 395
f 228 247 223
f 140 155 104
f 152 155 96
f 152 222 223
f 34 74 72
f 73 74 93
f 73 93 84
f 104 109 84
f 34 72 32
f 81 31 32
f 31 88 33
f 68 47 88
f 183 68 98
f 218 98 130
f 151 218 130
f 183 218 251
f 265 262 251
f 396 395 398
f 331 314 391
f 391 395 394
f 222 228 223
f 245 247 228
f 96 140 104
f 96 155 140
f 222 152 96
f 39 74 34
f 74 84 93
f 82 104 84
f 39 34 32
f 33 32 31
f 33 88 42
f 50 47 68
f 42 88 47
f 86 68 183
f 218 183 98
f 262 183 251
f 281 262 265
f 394 395 396
f 396 398 394
f 397 331 391
f 387 391 394
f 222 238 228
f 238 245 228
f 82 96 104
f 96 127 222
f 39 36 74
f 74 82 84
f 33 39 32
f 30 33 42
f 45 47 50
f 61 50 68
f 45 42 47
f 68 86 57
f 132 86 183
f 132 183 262
f 260 262 281
f 394 398 355
f 404 331 397
f 387 397 391
f 389 387 394
f 238 222 108
f 244 245 238
f 96 82 89
f 83 127 96
f 108 222 127
f 36 39 37
f 36 80 74
f 89 82 74
f 39 33 38
f 29 33 30
f 45 30 42
f 53 45 50
f 63 50 61
f 61 68 57
f 57 86 132
f 132 262 188
f 260 125 262
f 281 267 260
f 355 393 394
f 405 331 404
f 404 397 399
f 388 397 387
f 400 387 389
f 390 389 394
f 108 239 238
f 239 244 238
f 96 89 83
f 108 127 83
f 37 67 36
f 40 37 39
f 80 36 67
f 89 74 80
f 38 33 35
f 41 39 38
f 35 29 30
f 35 33 29
f 46 30 45
f 46 45 53
f 55 53 50
f 63 55 50
f 63 61 64
f 60 61 57
f 132 60 57
f 125 132 188
f 262 125 188
f 125 260 120
f 267 279 260
f 357 393 355
f 392 394 393
f 338 331 405
f 405 404 402
f 399 397 388
f 404 399 402
f 399 388 387
f 386 387 400
f 390 400 389
f 225 239 108
f 240 244 239
f 83 89 80
f 108 83 121
f 40 67 37
f 41 40 39
f 75 80 67
f 38 35 30
f 41 38 44
f 44 30 46
f 54 46 53
f 54 53 55
f 64 55 63
f 61 71 64
f 61 60 85
f 60 132 120
f 125 120 132
f 60 120 260
f 260 279 263
f 353 393 357
f 390 392 393
f 335 338 405
f 405 402 403
f 402 399 401
f 386 399 387
f 399 386 400
f 400 390 356
f 100 225 108
f 225 240 239
f 121 83 80
f 100 108 121
f 51 67 40
f 51 40 41
f 51 75 67
f 87 80 75
f 44 38 30
f 46 41 44
f 52 46 54
f 52 54 55
f 56 55 64
f 71 61 70
f 71 52 64
f 85 60 78
f 70 61 85
f 60 260 117
f 117 260 263
f 280 263 279
f 353 357 354
f 353 390 393
f 336 335 405
f 403 402 334
f 333 405 403
f 401 399 400
f 356 390 353
f 334 400 356
f 100 156 225
f 240 225 156
f 87 121 80
f 87 100 121
f 69 51 41
f 87 75 51
f 43 41 46
f 52 49 46
f 55 56 52
f 64 52 56
f 71 70 85
f 59 52 71
f 78 60 97
f 131 85 78
f 60 117 97
f 263 97 117
f 280 97 263
f 359 353 354
f 357 358 354
f 336 405 333
f 333 403 334
f 334 401 400
f 337 334 356
f 118 156 100
f 241 240 156
f 95 100 87
f 41 62 69
f 95 51 69
f 95 87 51
f 41 43 62
f 62 43 46
f 62 46 49
f 48 49 52
f 111 71 85
f 65 52 59
f 65 59 71
f 97 159 78
f 131 78 159
f 85 131 102
f 97 280 282
f 352 353 359
f 359 354 345
f 354 358 355
f 107 118 100
f 107 156 118
f 95 107 100
f 106 69 62
f 106 95 69
f 49 48 62
f 52 58 48
f 71 111 113
f 111 85 102
f 58 52 65
f 65 71 101
f 277 159 97
f 131 159 110
f 102 131 110
f 278 97 282
f 278 282 280
f 345 354 346
f 344 359 345
f 354 355 351
f 181 156 107
f 95 106 107
f 62 77 106
f 58 62 48
f 105 71 113
f 113 111 134
f 111 102 134
f 58 65 62
f 76 65 101
f 101 71 105
f 110 159 277
f 110 142 102
f 280 289 278
f 344 345 346
f 346 354 347
f 359 344 362
f 347 354 351
f 351 355 360
f 106 181 107
f 181 217 156
f 99 77 62
f 77 219 106
f 113 101 105
f 135 113 134
f 134 102 142
f 76 62 65
f 66 76 101
f 290 110 277
f 142 110 272
f 278 289 284
f 344 346 347
f 362 344 13
f 330 359 362
f 351 349 347
f 351 360 379
f 106 219 181
f 181 249 217
f 62 66 99
f 77 99 79
f 139 219 77
f 112 101 113
f 113 135 136
f 135 134 276
f 134 142 158
f 62 76 66
f 66 101 112
f 285 110 290
f 288 290 277
f 272 110 285
f 154 142 272
f 288 278 284
f 305 284 289
f 344 347 348
f 14 13 344
f 2 362 13
f 330 352 359
f 373 330 362
f 347 349 350
f 349 351 375
f 351 379 364
f 379 360 250
f 220 181 219
f 220 249 181
f 99 66 116
f 77 79 139
f 79 99 139
f 139 229 219
f 136 112 113
f 136 135 276
f 276 134 158
f 158 142 157
f 112 116 66
f 292 285 290
f 277 278 288
f 290 288 284
f 157 272 285
f 142 154 157
f 157 154 272
f 295 284 305
f 344 348 12
f 347 350 348
f 14 344 12
f 368 362 2
f 378 330 373
f 373 362 377
f 349 361 350
f 349 375 361
f 351 364 375
f 364 379 375
f 379 250 375
f 220 219 249
f 139 99 116
f 229 139 143
f 229 243 219
f 112 136 271
f 276 158 136
f 158 157 286
f 116 112 187
f 157 285 292
f 292 290 295
f 290 284 295
f 12 348 10
f 348 350 11
f 368 2 376
f 377 362 368
f 324 330 378
f 378 373 377
f 350 361 363
f 375 363 361
f 219 261 249
f 259 139 116
f 143 259 229
f 255 243 229
f 287 112 271
f 271 136 286
f 136 158 286
f 286 157 291
f 187 112 301
f 187 259 116
f 157 292 291
f 303 292 295
f 10 348 11
f 350 363 11
f 376 2 3
f 377 368 376
f 324 378 329
f 328 378 377
f 375 366 363
f 312 261 219
f 259 143 139
f 255 229 259
f 306 243 255
f 307 112 287
f 287 271 297
f 271 286 296
f 286 291 303
f 301 112 307
f 259 187 301
f 291 292 303
f 11 363 1
f 376 3 385
f 325 377 376
f 328 329 378
f 328 377 325
f 15 363 366
f 301 255 259
f 312 243 306
f 273 306 255
f 313 307 287
f 271 296 297
f 287 297 308
f 296 286 300
f 286 303 300
f 301 307 273
f 1 363 15
f 385 3 4
f 325 376 385
f 366 16 15
f 301 273 255
f 273 307 306
f 287 293 313
f 307 313 306
f 297 296 559
f 298 287 308
f 308 297 559
f 385 4 5
f 327 325 385
f 365 16 366
f 287 298 293
f 293 311 313
f 306 313 310
f 296 565 559
f 308 559 309
f 385 5 6
f 327 385 326
f 365 17 16
f 366 367 365
f 313 311 310
f 565 296 568
f 559 565 556
f 309 559 575
f 385 6 7
f 326 385 384
f 365 370 17
f 369 365 367
f 369 367 366
f 296 299 568
f 565 568 554
f 559 556 555
f 556 565 555
f 575 319 309
f 559 548 575
f 385 7 374
f 332 326 384
f 384 385 374
f 370 372 17
f 369 370 365
f 207 369 366
f 568 299 560
f 565 554 555
f 554 568 555
f 548 559 555
f 573 319 575
f 573 575 548
f 381 374 7
f 332 384 323
f 384 374 381
f 372 19 17
f 371 372 370
f 202 370 369
f 207 366 250
f 207 206 369
f 299 553 560
f 568 560 553
f 555 568 544
f 548 555 541
f 584 319 573
f 573 548 547
f 381 7 382
f 323 384 383
f 384 381 380
f 202 371 370
f 372 371 202
f 206 202 369
f 299 302 553
f 568 553 544
f 544 533 555
f 548 541 522
f 555 502 541
f 584 588 319
f 584 573 562
f 537 547 548
f 573 547 562
f 382 7 9
f 380 381 382
f 321 323 383
f 383 384 380
f 202 199 372
f 553 302 304
f 553 540 544
f 544 502 533
f 555 533 502
f 541 516 522
f 548 522 521
f 516 541 502
f 320 319 588
f 584 579 588
f 584 562 579
f 562 547 537
f 537 548 521
f 9 8 382
f 383 380 382
f 321 383 322
f 199 20 372
f 304 295 553
f 544 540 502
f 540 553 542
f 522 516 508
f 521 522 503
f 516 502 410
f 316 320 588
f 579 577 588
f 579 562 577
f 521 562 537
f 322 382 8
f 322 383 382
f 295 294 553
f 502 540 524
f 542 524 540
f 508 516 410
f 522 508 503
f 521 503 508
f 410 502 408
f 316 588 587
f 577 567 588
f 562 535 577
f 521 534 562
f 553 294 576
f 508 410 437
f 508 534 521
f 410 408 407
f 502 407 408
f 587 581 316
f 587 588 567
f 577 535 567
f 562 529 535
f 562 534 529
f 410 409 437
f 534 508 437
f 410 407 409
f 502 501 407
f 316 581 318
f 567 581 587
f 567 535 523
f 535 529 523
f 529 534 507
f 437 409 432
f 534 437 475
f 581 580 318
f 567 558 581
f 567 523 531
f 529 507 523
f 534 475 507
f 432 409 411
f 437 432 436
f 437 436 475
f 318 580 574
f 581 574 580
f 567 539 558
f 581 558 538
f 531 523 504
f 507 504 523
f 507 475 490
f 432 411 412
f 436 432 412
f 475 436 446
f 574 583 318
f 581 538 574
f 539 538 558
f 531 504 509
f 507 490 504
f 490 475 504
f 412 411 406
f 412 433 436
f 446 436 425
f 495 475 446
f 318 583 317
f 570 583 574
f 538 570 574
f 539 531 538
f 504 446 509
f 509 527 531
f 504 475 495
f 411 429 406
f 412 406 433
f 436 433 434
f 436 424 425
f 472 446 425
f 504 495 446
f 583 582 317
f 583 570 549
f 538 527 570
f 538 531 527
f 446 526 509
f 509 526 527
f 430 406 429
f 406 430 433
f 434 433 424
f 436 434 424
f 468 425 424
f 472 425 469
f 446 472 526
f 317 582 589
f 583 569 582
f 570 527 549
f 583 549 569
f 527 526 506
f 430 429 433
f 433 423 424
f 424 418 468
f 425 468 469
f 469 468 472
f 526 472 496
f 589 315 317
f 582 578 589
f 582 569 546
f 549 527 546
f 549 546 569
f 496 506 526
f 527 506 546
f 433 429 413
f 424 423 426
f 433 413 423
f 424 426 418
f 468 418 483
f 472 468 496
f 589 578 315
f 578 582 561
f 582 546 561
f 496 483 506
f 506 528 546
f 429 431 413
f 423 413 426
f 418 426 422
f 483 418 479
f 468 483 496
f 315 578 586
f 578 561 563
f 546 528 561
f 506 483 479
f 506 519 528
f 431 415 413
f 413 414 426
f 418 422 479
f 426 417 422
f 586 585 315
f 586 578 564
f 563 561 551
f 563 551 578
f 561 528 514
f 506 479 519
f 519 518 528
f 413 415 414
f 415 431 416
f 417 426 414
f 479 422 492
f 422 417 419
f 315 585 343
f 586 564 585
f 578 551 564
f 561 514 551
f 528 499 514
f 479 480 519
f 519 499 518
f 518 499 528
f 414 415 416
f 431 428 416
f 417 414 419
f 492 422 478
f 480 479 492
f 422 419 420
f 585 566 343
f 585 564 572
f 551 552 564
f 514 517 551
f 499 513 514
f 519 480 499
f 414 416 428
f 431 438 428
f 420 419 414
f 422 420 478
f 492 478 470
f 499 480 492
f 343 566 339
f 585 571 566
f 572 564 571
f 585 572 571
f 552 551 543
f 564 552 557
f 514 494 517
f 551 517 536
f 499 492 513
f 513 498 514
f 414 428 427
f 438 440 428
f 414 427 420
f 478 420 470
f 492 470 497
f 566 525 339
f 571 545 566
f 571 564 550
f 543 551 536
f 543 536 552
f 552 536 557
f 564 557 550
f 514 497 494
f 517 494 491
f 517 491 536
f 513 492 498
f 514 498 497
f 428 439 427
f 440 439 428
f 438 442 440
f 427 466 420
f 470 420 421
f 497 470 494
f 492 497 498
f 525 510 339
f 566 545 525
f 550 545 571
f 557 536 532
f 550 557 545
f 494 470 491
f 536 491 525
f 427 439 459
f 440 441 439
f 435 442 438
f 442 444 440
f 420 466 421
f 427 455 466
f 470 421 466
f 339 510 341
f 525 500 510
f 512 525 545
f 532 536 545
f 557 532 545
f 470 484 491
f 491 476 525
f 512 536 525
f 427 459 455
f 439 441 459
f 440 463 441
f 443 435 438
f 435 444 442
f 444 445 440
f 466 455 460
f 470 466 464
f 510 520 341
f 510 500 520
f 525 476 500
f 536 512 545
f 484 470 464
f 491 484 476
f 455 459 452
f 441 463 459
f 440 445 463
f 455 453 460
f 464 466 460
f 341 520 340
f 500 485 520
f 476 477 500
f 464 460 484
f 476 484 465
f 452 448 455
f 452 459 448
f 463 454 459
f 453 455 448
f 457 460 453
f 520 511 340
f 485 500 477
f 485 477 520
f 476 457 477
f 484 460 457
f 465 457 476
f 484 457 465
f 448 459 449
f 459 454 449
f 453 448 450
f 457 453 477
f 340 511 342
f 520 477 511
f 449 447 448
f 449 454 447
f 448 451 450
f 462 453 450
f 477 453 462
f 342 511 515
f 511 477 487
f 448 447 451
f 447 454 467
f 450 451 462
f 477 462 474
f 511 505 515
f 474 487 477
f 511 487 505
f 447 461 451
f 461 447 467
f 454 488 467
f 462 451 456
f 462 456 474
f 474 456 487
f 505 487 493
f 451 461 458
f 461 467 458
f 471 488 454
f 456 451 458
f 486 487 456
f 487 486 493
f 454 481 471
f 471 481 488
f 454 473 481
f 488 481 482
f 473 489 481
f 481 489 482
f 482 530 488

