# https://github.com/mikedh/trimesh
v 0.02302506 -0.11812531 0.10565975
v 0.01994500 -0.13134800 0.08046400
v 0.01476200 -0.14039600 0.06821350
v -0.01303950 -0.15630050 0.14358400
v -0.01736250 -0.16029125 0.14055775
v -0.01037400 -0.17191450 0.13577675
v 0.01278987 -0.10607638 0.12810700
v 0.02222850 -0.11818500 0.12226100
v 0.02070600 -0.11239200 0.11715600
v 0.00710000 -0.10550075 0.13204075
v 0.00012900 -0.12166600 0.13780800
v -0.00772825 -0.14743150 0.14468024
v 0.02036450 -0.14889850 0.06574750
v 0.02697100 -0.15632500 0.06912400
v 0.00339029 -0.17929308 0.13080059
v 0.01122500 -0.17118500 0.13574700
v 0.02779650 -0.16256651 0.07213450
v 0.03269900 -0.16867000 0.08646200
v -0.00658500 -0.17500775 0.13378725
v 0.03886038 -0.16747874 0.10779549
v 0.03543000 -0.16797600 0.10750350
v 0.02963232 -0.16555000 0.12767357
v 0.03427324 -0.16560127 0.12015163
v 0.03347925 -0.17082781 0.09889075
v 0.03878743 -0.16040793 0.11355315
v 0.03968438 -0.16231985 0.10416832
v 0.03971041 -0.16165104 0.09806135
v 0.03722084 -0.16550342 0.09344365
v 0.04150775 -0.15615785 0.10357044
v 0.03925744 -0.15981183 0.09060374
v 0.03613025 -0.15639375 0.12327600
v 0.04034128 -0.15448035 0.11422637
v 0.03387495 -0.16552847 0.08294843
v 0.03578599 -0.16024394 0.08098435
v 0.04148310 -0.15186711 0.10810424
v 0.03938538 -0.14740994 0.11643027
v 0.03093128 -0.16127515 0.07453479
v 0.03269740 -0.15588901 0.07477658
v 0.03707485 -0.15651075 0.08231452
v 0.03565683 -0.15211435 0.07937585
v 0.03327000 -0.15035500 0.07649300
v 0.03943144 -0.15599219 0.08822170
v 0.03734386 -0.14853772 0.08404204
v 0.04089200 -0.15134899 0.09350300
v 0.03994065 -0.15163268 0.08908703
v 0.02849197 -0.14996510 0.07089419
v 0.03328015 -0.14317367 0.08013379
v 0.04062900 -0.14793400 0.09511900
v 0.03804728 -0.14316972 0.09190739
v 0.03184527 -0.14395151 0.07798084
v 0.04137964 -0.14780178 0.09995846
v 0.03721567 -0.13999726 0.09590592
v 0.03966106 -0.14298293 0.10199424
v 0.03634298 -0.13781439 0.09803646
v 0.03447503 -0.13835732 0.09011506
v 0.02842048 -0.13183179 0.08928817
v 0.03265849 -0.13191399 0.10034266
v 0.02814510 -0.13804619 0.07966394
v 0.03341100 -0.13243300 0.10544600
v 0.03943103 -0.14257314 0.10632519
v 0.02476746 -0.11902163 0.11266704
v 0.03623183 -0.13673005 0.10790822
v 0.04088559 -0.14618308 0.10842912
v 0.02791709 -0.14630454 0.07217435
v 0.02453416 -0.12145429 0.12049831
v 0.02646481 -0.12285072 0.11679110
v 0.03823220 -0.14182070 0.11428023
v 0.01977394 -0.14068423 0.07023978
v 0.03567350 -0.14319850 0.12218400
v 0.03714450 -0.14941900 0.12228650
v 0.03322100 -0.13996699 0.12405300
v 0.03830550 -0.14734250 0.11886800
v 0.02434422 -0.14219757 0.07178764
v -0.01424299 -0.16351125 0.14060168
v -0.00691099 -0.15774135 0.14498055
v -0.00615859 -0.16800877 0.13984347
v -0.00403346 -0.16191473 0.14346853
v 0.00229968 -0.16191323 0.14387613
v -0.00088956 -0.15324669 0.14606542
v -0.00522883 -0.15069824 0.14560609
v 0.02111351 -0.15290352 0.13985658
v 0.02609300 -0.15521300 0.13576400
v 0.01731881 -0.15966450 0.14061334
v 0.01234207 -0.16020772 0.14265038
v 0.00895694 -0.15629925 0.14463362
v 0.03124601 -0.15697625 0.13056394
v 0.03383098 -0.14953335 0.12882333
v 0.03009139 -0.14632500 0.13226689
v 0.01115707 -0.15063475 0.14434868
v 0.03280869 -0.14566878 0.12870584
v 0.01659040 -0.14902694 0.14215817
v 0.02471363 -0.15025080 0.13764485
v 0.01069128 -0.14435716 0.14346430
v 0.02481703 -0.14514502 0.13663531
v 0.01467147 -0.14361126 0.14201893
v 0.01504169 -0.11966349 0.13204446
v 0.02450411 -0.13859727 0.13410022
v 0.00534164 -0.11844895 0.13629953
v 0.00606457 -0.14247446 0.14394645
v 0.03191264 -0.14035051 0.12667265
v 0.00096648 -0.14966824 0.14609943
v 0.01294348 -0.10948796 0.12994260
v 0.00682862 -0.13072360 0.14043556
f 10 98 102
f 102 98 103
f 103 96 102
f 96 103 95
f 103 99 95
f 103 101 99
f 103 12 101
f 11 12 103
f 101 12 80
f 101 80 79
f 85 101 79
f 89 101 85
f 89 93 101
f 93 89 91
f 95 93 91
f 95 91 94
f 97 95 94
f 94 88 97
f 100 97 88
f 96 97 100
f 88 90 100
f 100 90 87
f 100 87 69
f 100 69 71
f 8 100 71
f 102 100 8
f 7 102 8
f 87 70 69
f 70 87 31
f 87 86 31
f 87 92 86
f 92 87 88
f 92 82 86
f 92 83 82
f 92 81 83
f 84 83 81
f 85 84 81
f 85 78 84
f 81 91 85
f 86 82 83
f 83 22 86
f 86 22 23
f 83 16 22
f 83 78 16
f 86 23 31
f 31 23 32
f 31 32 36
f 36 32 63
f 36 63 67
f 63 60 67
f 67 60 62
f 67 62 66
f 66 65 67
f 69 67 65
f 67 69 72
f 65 8 69
f 8 65 61
f 8 61 9
f 9 61 1
f 61 57 1
f 61 59 57
f 61 62 59
f 62 57 59
f 57 62 54
f 62 53 54
f 53 49 54
f 51 49 53
f 60 51 53
f 51 48 49
f 48 51 45
f 51 44 45
f 44 42 45
f 45 42 39
f 45 39 40
f 45 40 43
f 49 45 43
f 49 43 47
f 55 49 47
f 52 49 55
f 52 55 54
f 55 47 56
f 56 1 55
f 56 2 1
f 56 58 2
f 58 73 2
f 50 73 58
f 50 64 73
f 64 46 73
f 73 46 13
f 68 73 13
f 13 3 68
f 2 68 3
f 46 14 13
f 46 38 14
f 40 38 46
f 41 40 46
f 50 41 46
f 47 41 50
f 47 40 41
f 38 37 14
f 34 37 38
f 38 39 34
f 34 33 37
f 33 17 37
f 18 17 33
f 28 18 33
f 24 18 28
f 27 24 28
f 27 28 30
f 30 28 34
f 42 30 34
f 44 27 30
f 44 26 27
f 29 26 44
f 29 44 35
f 63 35 44
f 51 63 44
f 35 26 29
f 35 32 26
f 32 25 26
f 25 20 26
f 23 20 25
f 26 24 27
f 21 24 26
f 28 33 34
f 37 17 14
f 50 46 64
f 47 50 58
f 73 68 2
f 56 47 58
f 43 40 47
f 40 39 38
f 42 34 39
f 44 30 42
f 48 45 49
f 54 55 57
f 57 55 1
f 61 65 66
f 66 62 61
f 62 60 53
f 63 51 60
f 67 72 36
f 63 32 35
f 72 31 36
f 23 25 32
f 90 88 87
f 94 92 88
f 94 81 92
f 94 91 81
f 91 89 85
f 79 78 85
f 79 75 78
f 78 75 77
f 78 77 76
f 78 76 16
f 76 19 16
f 76 6 19
f 76 74 6
f 75 74 76
f 75 4 74
f 12 4 75
f 4 5 74
f 5 6 74
f 16 19 15
f 77 75 76
f 80 75 79
f 80 12 75
f 99 101 93
f 95 99 93
f 97 96 95
f 100 102 96
f 98 11 103
f 7 10 102
f 10 11 98

