v -0.181109 0.0661125 -0.102115
v -0.178393 0.0778789 -0.100659
v -0.175036 0.0892999 -0.0988897
v -0.171062 0.100308 -0.0968549
v -0.163747 -0.102411 -0.12999
v -0.1835 0.0541621 -0.103418
v -0.166474 0.110768 -0.0945451
v -0.160866 0.0972096 -0.102274
v -0.150779 0.0939373 -0.107223
v -0.185727 0.0421377 -0.104457
v -0.156177 0.10735 -0.0999159
v -0.14609 0.104078 -0.104865
v -0.165322 0.0871846 -0.104533
v -0.155115 0.084907 -0.109256
v -0.144473 0.0808333 -0.113974
v -0.158348 0.0737906 -0.110969
v -0.160962 0.0621557 -0.112487
v -0.164928 0.0387701 -0.115168
v -0.16299 0.0504434 -0.113841
v -0.152358 0.04895 -0.118134
v -0.150322 0.0605233 -0.116732
v -0.137355 0.0702697 -0.118661
v -0.134856 0.0814036 -0.116989
v -0.12842 0.0580116 -0.123216
v -0.132429 0.0242706 -0.127133
v -0.131175 0.035514 -0.125863
v -0.129922 0.0467573 -0.124592
v -0.142661 0.0364259 -0.122942
v -0.144951 0.0135035 -0.125087
v -0.14389 0.0250513 -0.124062
v -0.145988 0.00198033 -0.126084
v -0.146938 -0.00956123 -0.127085
v -0.136233 -0.0217821 -0.131059
v -0.135478 -0.0101621 -0.130245
v -0.126305 -0.0455481 -0.135466
v -0.136994 -0.0333933 -0.131846
v -0.138463 -0.0566631 -0.133456
v -0.127042 -0.0571803 -0.136268
v -0.137742 -0.0450154 -0.132638
v -0.140593 -0.0916238 -0.135885
v -0.127748 -0.0688358 -0.137075
v -0.12847 -0.0804921 -0.137885
v -0.117014 -0.0810358 -0.140424
v -0.116291 -0.0693791 -0.139617
v -0.115568 -0.0577224 -0.13881
v -0.114805 -0.0461004 -0.138013
v -0.114021 -0.0344836 -0.137163
v -0.113233 -0.0228726 -0.136254
v -0.124763 -0.0223281 -0.133827
v -0.123935 -0.0107525 -0.132964
v -0.112391 -0.011299 -0.135273
v -0.123037 0.000783124 -0.131915
v -0.111515 0.000273422 -0.134215
v -0.10091 -0.0117225 -0.137278
v -0.0815644 -0.0710614 -0.145359
v -0.0808307 -0.0593744 -0.144539
v -0.0823023 -0.0827417 -0.146174
v -0.0838406 -0.10616 -0.147895
v -0.0830686 -0.0944478 -0.14703
v -0.0846349 -0.117845 -0.148816
v -0.0854389 -0.12952 -0.149768
v -0.0987201 -0.152109 -0.150536
v -0.0996052 -0.163699 -0.151941
v -0.100464 -0.175228 -0.153616
v -0.168422 0.075793 -0.106117
v -0.112032 -0.17464 -0.151758
v -0.123546 -0.174076 -0.149703
v -0.122655 -0.162486 -0.148008
v -0.12177 -0.150887 -0.146469
v -0.120912 -0.139265 -0.1452
v -0.109419 -0.139857 -0.14739
v -0.097848 -0.140513 -0.14915
v -0.108577 -0.128223 -0.146238
v -0.107771 -0.116564 -0.145279
v -0.106965 -0.104904 -0.144316
v -0.0954254 -0.105504 -0.146235
v -0.094643 -0.0938379 -0.145319
v -0.0939122 -0.0821669 -0.144532
v -0.0931814 -0.0704959 -0.143745
v -0.106226 -0.0932459 -0.143482
v -0.105493 -0.081591 -0.142653
v -0.10476 -0.0699361 -0.141824
v -0.119276 -0.115988 -0.143072
v -0.131546 -0.127069 -0.141716
v -0.143708 -0.138185 -0.139933
v -0.142886 -0.126557 -0.138771
v -0.142085 -0.11492 -0.137708
v -0.154124 -0.126095 -0.135516
v -0.153335 -0.114458 -0.134457
v -0.152585 -0.10281 -0.133499
v -0.151883 -0.0911465 -0.132664
v -0.151196 -0.0794753 -0.131838
v -0.150518 -0.0678009 -0.131025
v -0.149811 -0.0561486 -0.130251
v -0.161071 -0.0556539 -0.126678
v -0.160388 -0.0439815 -0.125935
v -0.159698 -0.0323022 -0.125155
v -0.170883 -0.0316796 -0.121025
v -0.170184 -0.0199808 -0.120171
v -0.169485 -0.00828201 -0.119316
v -0.168544 0.00346161 -0.118341
v -0.167426 0.0151658 -0.117312
v -0.156287 0.0142097 -0.121405
v -0.15516 0.0258973 -0.120345
v -0.166306 0.0268716 -0.116282
v -0.179416 0.00428586 -0.113572
v -0.178082 0.0161947 -0.112452
v -0.176744 0.0282617 -0.111271
v -0.175407 0.0403287 -0.110091
v -0.173504 0.0522591 -0.108957
v -0.171166 0.0641301 -0.107597
v -0.180512 -0.00751158 -0.114603
v -0.181182 -0.0192674 -0.115464
v -0.172805 -0.0669287 -0.123501
v -0.172173 -0.0551709 -0.122677
v -0.171542 -0.0434127 -0.121859
v -0.163087 -0.0907093 -0.129143
v -0.158273 -0.00895097 -0.123459
v -0.15899 -0.0206246 -0.124318
v -0.162425 -0.0790094 -0.128296
v -0.161751 -0.0673295 -0.127459
v -0.130721 -0.115439 -0.140587
v -0.132364 -0.138702 -0.142807
v -0.12009 -0.127629 -0.144112
v -0.133229 -0.150312 -0.144147
v -0.134102 -0.161918 -0.145571
v -0.111158 -0.163055 -0.150121
v -0.110274 -0.151481 -0.148622
v -0.097033 -0.128849 -0.148143
v -0.096231 -0.117172 -0.147199
v -0.0924425 -0.0588266 -0.142939
v -0.0916861 -0.0471636 -0.142093
v -0.0909297 -0.0355006 -0.141248
v -0.101679 -0.0234104 -0.138409
v -0.110665 0.011915 -0.13298
v -0.118399 0.0461477 -0.127108
v -0.109431 0.0232568 -0.131718
v -0.117032 0.0574128 -0.125471
v -0.115432 0.0684268 -0.123815
v -0.124452 0.0800725 -0.120249
v -0.11966 0.0348685 -0.128425
v -0.122138 0.0123327 -0.130851
v -0.120906 0.0235984 -0.129666
v -0.104025 -0.0582825 -0.140994
v -0.103238 -0.0466653 -0.140129
v -0.102452 -0.0350481 -0.139265
v -0.118471 -0.104345 -0.142043
v -0.117741 -0.0926908 -0.141233
v -0.129947 -0.103796 -0.139615
v -0.129209 -0.0921435 -0.138753
v -0.141304 -0.103281 -0.1367
v -0.139889 -0.0799648 -0.135067
v -0.139176 -0.0683104 -0.134236
v -0.125539 -0.0339394 -0.134671
v -0.149108 -0.0444944 -0.1295
v -0.148385 -0.0328508 -0.128704
v -0.147663 -0.0212053 -0.127898
v -0.157354 0.00264992 -0.122447
v -0.134573 0.00137898 -0.129284
v -0.133568 0.0128883 -0.128244
v -0.141175 0.0477898 -0.121644
v -0.126438 0.0690314 -0.121759
v -0.139497 0.0590367 -0.120211
v -0.14809 0.0719481 -0.115066
v -0.153889 0.0374728 -0.119268
f 2 65 111 1
f 111 110 6 1
f 3 13 65 2
f 7 11 8 4
f 11 12 9 8
f 14 16 65 13
f 15 164 16 14
f 23 22 164 15
f 164 21 17 16
f 17 111 65 16
f 21 20 19 17
f 19 110 111 17
f 19 20 165 18
f 165 104 105 18
f 105 108 109 18
f 109 110 19 18
f 21 163 161 20
f 161 28 165 20
f 164 22 163 21
f 23 140 162 22
f 162 24 163 22
f 162 139 138 24
f 138 136 27 24
f 27 161 163 24
f 26 141 143 25
f 143 142 160 25
f 160 29 30 25
f 30 28 26 25
f 27 136 141 26
f 28 161 27 26
f 30 104 165 28
f 160 159 31 29
f 31 158 103 29
f 103 104 30 29
f 159 34 32 31
f 32 118 158 31
f 34 33 157 32
f 157 119 118 32
f 34 50 49 33
f 49 154 36 33
f 36 156 157 33
f 159 52 50 34
f 154 47 46 35
f 46 45 38 35
f 38 37 39 35
f 39 36 154 35
f 39 155 156 36
f 38 41 153 37
f 153 93 94 37
f 94 155 39 37
f 45 44 41 38
f 152 42 150 40
f 150 149 151 40
f 151 90 91 40
f 91 92 152 40
f 44 43 42 41
f 42 152 153 41
f 43 148 150 42
f 44 82 81 43
f 81 80 148 43
f 45 144 82 44
f 46 145 144 45
f 47 146 145 46
f 48 134 146 47
f 154 49 48 47
f 51 54 134 48
f 49 50 51 48
f 52 53 51 50
f 142 135 53 52
f 159 160 142 52
f 57 78 79 55
f 79 131 56 55
f 59 77 78 57
f 60 130 76 58
f 76 77 59 58
f 61 129 130 60
f 63 127 128 62
f 128 71 72 62
f 64 66 127 63
f 67 68 127 66
f 69 128 127 68
f 126 125 69 68
f 70 71 128 69
f 125 123 70 69
f 124 73 71 70
f 123 84 124 70
f 73 129 72 71
f 74 130 129 73
f 124 83 74 73
f 75 76 130 74
f 83 147 75 74
f 80 77 76 75
f 147 148 80 75
f 80 81 78 77
f 81 82 79 78
f 82 144 131 79
f 124 84 122 83
f 122 149 147 83
f 123 85 86 84
f 86 87 122 84
f 88 89 87 86
f 151 149 122 87
f 89 90 151 87
f 5 117 91 90
f 117 120 92 91
f 93 153 152 92
f 120 121 93 92
f 121 95 94 93
f 95 96 155 94
f 121 114 115 95
f 115 116 96 95
f 97 156 155 96
f 116 98 97 96
f 119 157 156 97
f 98 99 119 97
f 100 118 119 99
f 113 112 100 99
f 101 158 118 100
f 112 106 101 100
f 102 103 158 101
f 106 107 102 101
f 105 104 103 102
f 107 108 105 102
f 10 6 110 109
f 144 145 132 131
f 145 146 133 132
f 142 143 137 135
f 149 150 148 147
