# https://github.com/mikedh/trimesh
v -0.13750200 0.08351000 0.03416600
v -0.13728650 0.07479700 0.03759300
v -0.11536200 0.10818800 0.02373100
v -0.13066050 0.09375600 0.03016900
v -0.10964100 0.10619225 0.02516575
v -0.13505401 0.06802850 0.04000600
v -0.13559600 0.06032650 0.04039500
v -0.14156100 0.05021025 0.04076500
v -0.14379968 0.04660557 0.04093271
v -0.14599125 0.01895950 0.05074050
v -0.14512999 0.01544800 0.05081400
v -0.14045300 0.01080200 0.04694800
v -0.12724400 -0.15340400 0.03861200
v -0.12061039 -0.07164500 0.05758245
v -0.11849312 -0.03350859 0.05948075
v -0.11721073 -0.06008873 0.06064579
v -0.11943380 -0.06818887 0.05831633
v -0.11813903 -0.09815877 0.05697549
v -0.11712123 -0.08258556 0.05977083
v -0.11571376 -0.11013334 0.05693642
v -0.11443631 -0.12772207 0.05411674
v -0.11320600 -0.13521235 0.05318991
v -0.09455034 -0.09497623 0.06433994
v -0.10863374 -0.11716815 0.05807478
v -0.09296558 -0.11293081 0.06299396
v -0.10241906 -0.12793627 0.05813416
v -0.09007850 -0.12974250 0.06114050
v -0.11226378 -0.14045741 0.05238838
v -0.10723550 -0.15649800 0.04997350
v -0.10571600 -0.13750100 0.05507650
v -0.11002507 -0.14805289 0.05137281
v -0.11007414 -0.15334644 0.04814987
v -0.13474050 -0.13353150 0.03899950
v -0.13723050 -0.12289800 0.04075575
v -0.12597000 -0.13759964 0.04547635
v -0.13545346 -0.12643428 0.04241808
v -0.13138465 -0.13955211 0.04078757
v -0.13770756 -0.10646320 0.04599256
v -0.12870850 -0.12267711 0.04818342
v -0.13498295 -0.09332739 0.05055586
v -0.14002510 -0.07563389 0.05027862
v -0.14057500 -0.08188300 0.04852500
v -0.11198302 -0.16147540 0.04427660
v -0.13976936 -0.02753292 0.05413453
v -0.12430294 -0.09948322 0.05488688
v -0.12856696 -0.07118023 0.05615213
v -0.12007400 -0.15917300 0.04270600
v -0.14151201 -0.06005500 0.05094500
v -0.14165049 -0.04530250 0.05208400
v -0.13940926 -0.10576025 0.04408550
v -0.11402716 -0.14218587 0.04918098
v -0.11553920 -0.12297291 0.05391800
v -0.11680343 -0.12059422 0.05199152
v -0.11773627 -0.11377114 0.05341088
v -0.11955327 -0.08665210 0.05622393
v -0.11809369 -0.12837373 0.05135946
v -0.12658655 -0.04148451 0.05744006
v -0.12610670 -0.06527761 0.05714382
v -0.13381916 -0.05413648 0.05476854
v -0.13760623 -0.02916493 0.05428690
v -0.13462500 -0.00082796 0.05389710
v -0.12648574 -0.02509738 0.05748236
v -0.13567037 0.00913330 0.05258756
v -0.12735973 -0.08306117 0.05574311
v -0.11658410 -0.14104865 0.04928600
v -0.12025744 -0.10403177 0.05445774
v -0.13361958 0.01465374 0.05223370
v -0.13855000 0.00057600 0.05193100
v -0.13874850 0.01485850 0.04778450
v -0.12391767 -0.01341826 0.05763009
v -0.12783179 0.01911088 0.05266408
v -0.12410010 0.02516366 0.05179284
v -0.12733515 0.03277551 0.04945905
v -0.11521933 0.03309504 0.05082045
v -0.12776462 0.03827233 0.04891329
v -0.12590916 0.04870738 0.04638684
v -0.14344312 0.02465570 0.05089895
v -0.11732004 0.05678763 0.04433838
v -0.13501004 0.04174929 0.04749484
v -0.14198919 0.02824665 0.05044342
v -0.12164214 0.06955036 0.03983467
v -0.12687722 0.07412473 0.03796759
v -0.11498393 0.08857541 0.03313567
v -0.11379914 0.07135221 0.03952019
v -0.13697839 0.05600585 0.04042712
v -0.13019763 0.03276380 0.04939459
v -0.09988155 0.01048269 0.05807171
v -0.09863029 0.02737399 0.05518838
v -0.10347465 0.04462839 0.05027068
v -0.09578120 0.06777497 0.04511785
v -0.09764504 0.00756070 0.05864580
v -0.10993503 0.06492100 0.04264196
v -0.11074037 -0.00852501 0.05924744
v -0.09990181 -0.01388996 0.06145833
v -0.11653028 -0.01698918 0.05897961
v -0.09826837 -0.04621613 0.06438218
v -0.09747870 0.05460248 0.04891140
v -0.13488354 0.02567698 0.04886049
v -0.09701961 0.09761745 0.03411321
v -0.13550011 0.02306419 0.04857520
v -0.11717310 -0.04332806 0.06070043
v -0.14333543 0.02178166 0.05102189
v -0.09722085 0.02977644 0.05449570
v -0.11764169 -0.01993656 0.05862125
v -0.09808778 -0.02737877 0.06310994
v -0.09905508 -0.07781186 0.06424265
v -0.09706063 -0.01387313 0.06114200
v -0.11904638 -0.04655316 0.05912919
v -0.09601890 -0.06921617 0.06491199
v -0.12964830 0.06569604 0.03986884
v -0.09710306 0.04440863 0.05133167
v -0.09354453 -0.09886790 0.06416917
v -0.12217729 -0.05592810 0.05893755
v -0.10361097 0.08516642 0.03711663
v -0.11157032 0.09060920 0.03218581
v -0.09167400 -0.10808300 0.06332200
v -0.09192350 -0.10116900 0.06360750
v -0.09642050 0.02443350 0.05507950
v -0.09332067 0.09980375 0.03356177
v -0.09455300 0.09526399 0.03575499
v -0.09306350 -0.08647350 0.06384650
v -0.13573368 0.04673451 0.04525706
v -0.09326600 0.08789950 0.03751350
v -0.09113550 0.10589150 0.03010400
v -0.09637900 0.01384425 0.05687375
v -0.09687250 0.00187700 0.05903650
v -0.14437393 0.03204046 0.04720109
v -0.09416000 0.06426900 0.04502000
v -0.09167400 0.11013200 0.02858300
v -0.09590400 0.04906825 0.04978800
f 5 83 115
f 115 83 82
f 115 82 81
f 115 81 84
f 115 84 92
f 114 115 92
f 99 115 114
f 129 115 99
f 129 99 120
f 129 120 119
f 124 129 119
f 124 119 123
f 123 119 120
f 123 120 90
f 123 90 128
f 128 90 130
f 97 130 90
f 130 97 111
f 111 103 130
f 130 103 118
f 103 88 118
f 88 125 118
f 125 88 91
f 125 91 126
f 126 91 107
f 91 105 107
f 91 94 105
f 94 93 105
f 105 93 95
f 105 95 15
f 105 15 96
f 15 101 96
f 96 101 16
f 96 16 109
f 109 16 106
f 109 106 23
f 109 23 112
f 121 109 112
f 121 112 117
f 117 112 25
f 117 25 116
f 112 18 25
f 18 24 25
f 26 25 24
f 25 26 27
f 27 26 30
f 26 28 30
f 30 28 31
f 30 31 29
f 26 24 28
f 24 22 28
f 24 21 22
f 52 21 24
f 24 20 52
f 24 18 20
f 23 18 112
f 23 19 18
f 106 19 23
f 16 19 106
f 16 17 19
f 17 55 19
f 19 55 18
f 17 16 101
f 108 17 101
f 15 108 101
f 95 104 15
f 95 70 104
f 104 70 15
f 15 70 62
f 70 61 62
f 71 61 70
f 93 71 70
f 74 71 93
f 87 74 93
f 91 87 93
f 87 88 74
f 88 89 74
f 97 89 88
f 97 74 89
f 92 74 97
f 72 71 74
f 74 73 72
f 75 73 74
f 78 75 74
f 78 76 75
f 78 110 76
f 81 110 78
f 110 79 76
f 110 122 79
f 110 8 122
f 122 8 80
f 8 127 80
f 80 127 77
f 77 127 10
f 127 9 10
f 8 9 127
f 79 122 80
f 75 79 80
f 75 80 86
f 80 77 86
f 86 77 98
f 86 98 73
f 73 98 100
f 69 100 98
f 98 11 69
f 98 102 11
f 102 10 11
f 102 77 10
f 12 69 11
f 98 77 102
f 76 79 75
f 84 78 74
f 75 86 73
f 72 73 71
f 73 100 71
f 71 100 67
f 67 100 63
f 100 68 63
f 100 69 68
f 63 68 44
f 63 44 61
f 60 61 44
f 60 44 59
f 57 60 59
f 57 62 60
f 62 57 113
f 113 57 58
f 113 58 64
f 64 55 113
f 14 113 55
f 113 14 17
f 108 113 17
f 108 15 113
f 17 14 55
f 64 45 55
f 64 40 45
f 64 41 40
f 41 64 46
f 46 59 41
f 40 41 38
f 41 50 38
f 41 42 50
f 41 48 42
f 38 50 36
f 50 34 36
f 36 34 33
f 36 33 37
f 35 36 37
f 51 35 37
f 51 37 47
f 51 47 32
f 32 47 43
f 37 13 47
f 35 39 36
f 40 36 39
f 56 39 35
f 45 39 56
f 66 45 56
f 66 56 54
f 18 66 54
f 18 54 20
f 20 54 52
f 54 53 52
f 53 56 52
f 53 54 56
f 18 45 66
f 56 35 65
f 37 33 13
f 40 38 36
f 45 40 39
f 55 45 18
f 58 46 64
f 58 57 46
f 57 59 46
f 59 44 41
f 44 48 41
f 44 49 48
f 61 67 63
f 71 67 61
f 62 61 60
f 62 113 15
f 93 70 95
f 91 93 94
f 88 87 91
f 111 88 103
f 111 97 88
f 97 90 92
f 120 92 90
f 99 92 120
f 114 92 99
f 92 84 74
f 84 81 78
f 81 82 110
f 82 6 110
f 110 6 7
f 110 7 85
f 85 7 8
f 83 6 82
f 83 2 6
f 1 2 83
f 4 1 83
f 3 4 83
f 5 115 129
f 5 3 83

