# https://github.com/mikedh/trimesh
v 0.18642400 0.29611200 -0.09117600
v 0.17956999 0.30247101 -0.08748900
v 0.17476501 0.30856299 -0.08552000
v 0.17158200 0.29862899 -0.08302700
v 0.15326375 0.29408975 -0.07615275
v 0.20615275 0.24921700 -0.11728875
v 0.20471049 0.25541150 -0.11091050
v 0.20349300 0.26550250 -0.10761850
v 0.19997500 0.27370399 -0.10205800
v 0.19901501 0.27697700 -0.10103500
v 0.19488400 0.27958375 -0.09675312
v 0.20536850 0.23532350 -0.12871425
v 0.10832375 0.28529850 -0.06789687
v 0.12729900 0.29564925 -0.07040425
v 0.09485200 0.25888750 -0.06599300
v 0.09320466 0.24331069 -0.06525783
v 0.09041700 0.22776200 -0.06650400
v 0.08703160 0.19024762 -0.06800831
v 0.08845000 0.20694000 -0.06749400
v 0.09138700 0.23480301 -0.06649700
v 0.18230925 0.16073324 -0.12165425
v 0.14833800 0.11609300 -0.10815450
v 0.16286300 0.13261212 -0.11075788
v 0.14340900 0.11043000 -0.10881500
v 0.19323500 0.18509450 -0.12745300
v 0.19610000 0.19619399 -0.13297801
v 0.20294601 0.22567999 -0.13360800
v 0.14235306 0.14031467 -0.08562365
v 0.14393050 0.11924000 -0.09883950
v 0.14466850 0.12167150 -0.09729650
v 0.14482287 0.13084612 -0.09207062
v 0.13876600 0.10697950 -0.10620000
v 0.09691400 0.17083900 -0.07069000
v 0.09342687 0.17186088 -0.07019412
v 0.10700973 0.16662793 -0.07195033
v 0.11393211 0.16343467 -0.07306200
v 0.11747856 0.16154275 -0.07469775
v 0.12292825 0.15815775 -0.07645750
v 0.09994150 0.16955650 -0.07121550
v 0.19421288 0.18735511 -0.12611453
v 0.19173884 0.18073806 -0.12266954
v 0.19460081 0.18989973 -0.11982084
v 0.19976213 0.20526806 -0.12356267
v 0.20188459 0.22264206 -0.11268901
v 0.20351098 0.22172508 -0.12264231
v 0.19100891 0.18109265 -0.11714720
v 0.20534524 0.23178907 -0.12298462
v 0.19349222 0.18681166 -0.11799175
v 0.19099516 0.18473439 -0.11224312
v 0.18407166 0.16466782 -0.11852468
v 0.18698714 0.17113919 -0.11784228
v 0.20038861 0.23032828 -0.10557164
v 0.19189369 0.19005403 -0.10938057
v 0.17671800 0.15191101 -0.11539300
v 0.17696986 0.15416475 -0.11212544
v 0.17009436 0.14326950 -0.11049411
v 0.19662727 0.20397317 -0.11049580
v 0.19356594 0.20424717 -0.10430097
v 0.18080597 0.16789821 -0.10533986
v 0.16319348 0.13555097 -0.10660803
v 0.17314956 0.15170217 -0.10698719
v 0.18411697 0.18542746 -0.09962565
v 0.16448617 0.14092180 -0.10351505
v 0.19156902 0.21050083 -0.09937413
v 0.18419533 0.17247847 -0.10631792
v 0.18561789 0.19615688 -0.09701424
v 0.16970485 0.15454343 -0.09966713
v 0.19466875 0.22242758 -0.09983956
v 0.14854407 0.11828758 -0.10496840
v 0.15681040 0.13605011 -0.09869055
v 0.19651460 0.22982059 -0.10055640
v 0.17069011 0.17226790 -0.09232066
v 0.18848378 0.22259425 -0.09347529
v 0.15875040 0.14478801 -0.09506843
v 0.20047034 0.24529622 -0.10314402
v 0.17388511 0.16775758 -0.09666001
v 0.20004519 0.26844678 -0.10151831
v 0.16044106 0.15146242 -0.09321742
v 0.19450922 0.24212452 -0.09645579
v 0.16622298 0.17671872 -0.08810587
v 0.15817827 0.15929357 -0.08875817
v 0.17769625 0.20315712 -0.08939476
v 0.18759148 0.23715645 -0.09121960
v 0.19266901 0.25778745 -0.09396029
v 0.19074027 0.28035364 -0.09279998
v 0.19363430 0.26326984 -0.09433525
v 0.20307231 0.22297226 -0.13177249
v 0.20244700 0.21700178 -0.12946410
v 0.20390411 0.22939046 -0.11465333
v 0.20432400 0.24231518 -0.11112759
v 0.15500303 0.18773418 -0.08080241
v 0.15170700 0.20245840 -0.07794775
v 0.15754202 0.22372929 -0.07791105
v 0.16789734 0.21426416 -0.08239736
v 0.13743338 0.17633770 -0.07695307
v 0.13453165 0.23371544 -0.07168147
v 0.12761904 0.20678313 -0.07175816
v 0.11732434 0.21064322 -0.06974785
v 0.12080968 0.19078566 -0.07181131
v 0.13199225 0.18820260 -0.07418692
v 0.10773090 0.20646578 -0.06887971
v 0.10675359 0.17597438 -0.07125875
v 0.09795783 0.18585631 -0.06952953
v 0.13687697 0.24767181 -0.07171613
v 0.12507100 0.26389900 -0.06956200
v 0.13928124 0.20922206 -0.07399357
v 0.13919445 0.27077393 -0.07209925
v 0.12924865 0.27308130 -0.07014783
v 0.11634244 0.23047183 -0.06890681
v 0.11437118 0.26134551 -0.06810192
v 0.15243477 0.28021493 -0.07525635
v 0.15099358 0.27336657 -0.07485989
v 0.16119157 0.26617733 -0.07784232
v 0.16202423 0.24680759 -0.07836335
v 0.15985695 0.23175021 -0.07806988
v 0.14968228 0.24033943 -0.07483078
v 0.14130262 0.19219499 -0.07603834
v 0.17290590 0.29090225 -0.08299771
v 0.17284003 0.25055803 -0.08231738
v 0.13444162 0.16281971 -0.07843364
v 0.09159580 0.17613859 -0.07021117
v 0.16879374 0.28402059 -0.08084487
v 0.15394204 0.17325630 -0.08304813
v 0.16399063 0.18548359 -0.08498667
v 0.14241091 0.15955519 -0.08154839
v 0.14533227 0.15386989 -0.08418286
v 0.18119019 0.24682817 -0.08650814
v 0.14937838 0.14786687 -0.08775413
v 0.17870973 0.26575017 -0.08492091
v 0.18112700 0.23601601 -0.08729500
v 0.17933343 0.21871894 -0.08774765
v 0.18429219 0.26910966 -0.08808465
v 0.18413138 0.23123569 -0.08946660
v 0.17383614 0.20100144 -0.08739466
v 0.17727695 0.19313325 -0.09097652
v 0.18524670 0.26638572 -0.08864769
v 0.17998249 0.28586958 -0.08612988
v 0.18706501 0.24749200 -0.09025600
f 13 110 108
f 108 110 105
f 105 110 104
f 104 110 109
f 110 17 109
f 110 20 17
f 110 16 20
f 110 15 16
f 109 17 101
f 98 109 101
f 98 101 102
f 101 103 102
f 102 103 121
f 103 18 121
f 36 102 121
f 36 121 35
f 121 39 35
f 121 33 39
f 121 34 33
f 99 102 36
f 100 99 36
f 106 99 100
f 117 106 100
f 92 106 117
f 92 117 94
f 117 95 94
f 94 95 91
f 91 95 125
f 95 120 125
f 120 28 125
f 125 28 126
f 125 126 128
f 128 123 125
f 123 128 81
f 81 128 78
f 78 128 74
f 128 31 74
f 128 28 31
f 74 31 30
f 74 30 70
f 67 74 70
f 67 70 63
f 63 70 60
f 61 63 60
f 59 63 61
f 59 61 55
f 61 56 55
f 59 55 65
f 62 59 65
f 65 66 62
f 66 65 58
f 58 64 66
f 68 66 64
f 73 66 68
f 71 73 68
f 79 73 71
f 79 83 73
f 83 79 84
f 86 83 84
f 86 138 83
f 127 138 86
f 136 127 86
f 136 132 127
f 132 129 127
f 137 129 132
f 86 137 132
f 86 85 137
f 1 137 85
f 1 2 137
f 3 137 2
f 3 4 137
f 137 4 118
f 137 118 122
f 119 137 122
f 122 113 119
f 122 111 113
f 122 5 111
f 4 5 122
f 5 14 111
f 111 14 108
f 111 108 107
f 111 107 104
f 112 111 104
f 112 104 116
f 112 116 113
f 113 116 115
f 115 116 106
f 116 96 106
f 96 97 106
f 96 98 97
f 97 98 99
f 104 98 96
f 93 115 106
f 115 93 94
f 119 115 94
f 114 115 119
f 127 119 94
f 130 127 94
f 127 130 133
f 127 133 83
f 83 133 131
f 94 131 133
f 131 94 124
f 131 124 134
f 131 134 73
f 73 134 82
f 82 134 135
f 82 135 73
f 134 124 135
f 135 124 80
f 135 80 72
f 135 72 76
f 135 76 66
f 72 81 76
f 81 72 80
f 124 123 80
f 91 123 124
f 133 130 94
f 114 113 115
f 104 96 116
f 107 108 104
f 111 112 113
f 119 113 114
f 118 4 122
f 1 85 11
f 11 85 77
f 11 77 10
f 9 10 77
f 9 77 8
f 77 90 8
f 77 75 90
f 75 52 90
f 90 52 44
f 90 44 89
f 90 89 6
f 7 90 6
f 89 47 6
f 89 45 47
f 89 43 45
f 45 43 88
f 43 26 88
f 88 26 27
f 87 88 27
f 88 87 12
f 47 88 12
f 12 87 27
f 43 40 26
f 41 40 43
f 42 41 43
f 48 42 43
f 44 48 43
f 44 57 48
f 53 48 57
f 57 58 53
f 58 57 52
f 68 58 52
f 53 49 48
f 53 65 49
f 49 65 48
f 48 65 46
f 65 51 46
f 51 65 50
f 65 21 50
f 65 54 21
f 54 23 21
f 55 23 54
f 55 56 23
f 51 50 21
f 51 21 41
f 48 51 41
f 41 21 25
f 46 51 48
f 42 48 41
f 40 41 25
f 40 25 26
f 45 88 47
f 6 47 12
f 44 43 89
f 52 57 44
f 79 52 75
f 75 86 79
f 77 86 75
f 8 90 7
f 85 86 77
f 137 119 129
f 129 119 127
f 86 132 136
f 138 127 83
f 86 84 79
f 83 131 73
f 79 71 52
f 52 71 68
f 66 73 135
f 68 64 58
f 58 65 53
f 66 76 62
f 62 76 59
f 76 67 59
f 76 78 67
f 65 55 54
f 61 60 56
f 56 60 23
f 60 69 23
f 60 30 69
f 69 30 29
f 69 29 24
f 69 24 22
f 24 29 32
f 69 22 23
f 67 63 59
f 70 30 60
f 78 74 67
f 81 78 76
f 80 123 81
f 126 28 128
f 120 38 28
f 37 38 120
f 95 37 120
f 100 37 95
f 91 125 123
f 94 91 124
f 93 92 94
f 93 106 92
f 117 100 95
f 97 99 106
f 100 36 37
f 101 18 103
f 101 19 18
f 98 102 99
f 17 19 101
f 104 109 98
f 108 105 104
f 13 15 110
f 108 14 13

