v 0.105275 -0.418643 0.152534
v 0.0679981 -0.418142 0.150856
v 0.0773445 -0.41826 0.151368
v 0.0866908 -0.418377 0.15188
v 0.0675307 -0.420885 0.159798
v 0.0586435 -0.418047 0.150284
v 0.0593026 -0.41176 0.143606
v 0.0686024 -0.412033 0.144194
v 0.0785817 -0.404581 0.139503
v 0.0778476 -0.412568 0.144456
v 0.0870669 -0.413239 0.144478
v 0.0877855 -0.405241 0.139538
v 0.314075 -0.423012 0.135411
v 0.114922 -0.40861 0.137466
v 0.123806 -0.409461 0.136786
v 0.114556 -0.415157 0.144303
v 0.105455 -0.414554 0.144436
v 0.141413 -0.416786 0.142555
v 0.15027 -0.41713 0.141738
v 0.159133 -0.417478 0.140939
v 0.167996 -0.417825 0.14014
v 0.176725 -0.417938 0.139119
v 0.203461 -0.421722 0.142159
v 0.222191 -0.42539 0.146008
v 0.232753 -0.42919 0.151857
v 0.211661 -0.421356 0.140231
v 0.230043 -0.424343 0.143763
v 0.237967 -0.423458 0.141387
v 0.245894 -0.422442 0.138915
v 0.254188 -0.421246 0.135501
v 0.26568 -0.421911 0.139646
v 0.257416 -0.42251 0.143289
v 0.269572 -0.418219 0.147602
v 0.282027 -0.415106 0.151646
v 0.290478 -0.415775 0.147624
v 0.303766 -0.416999 0.151701
v 0.286064 -0.414784 0.160186
v 0.294996 -0.415707 0.155983
v 0.277079 -0.415629 0.1641
v 0.246847 -0.422052 0.167734
v 0.235611 -0.427831 0.161366
v 0.237887 -0.431551 0.16918
v 0.224744 -0.430166 0.15385
v 0.0960637 -0.41849 0.152342
v 0.243652 -0.422343 0.158516
v 0.248878 -0.423452 0.146808
v 0.252124 -0.419846 0.154595
v 0.240532 -0.425598 0.149724
v 0.256003 -0.416819 0.163614
v 0.264904 -0.415442 0.159563
v 0.311635 -0.421524 0.14612
v 0.304391 -0.424282 0.127977
v 0.314035 -0.427937 0.127758
v 0.306207 -0.419476 0.138617
v 0.286323 -0.419027 0.1397
v 0.274026 -0.42199 0.135855
v 0.306047 -0.419345 0.139036
v 0.282275 -0.422352 0.131884
v 0.114421 -0.418959 0.152522
v 0.298541 -0.417296 0.143547
v 0.294509 -0.420527 0.135665
v 0.278018 -0.418538 0.143651
v 0.273572 -0.414838 0.155622
v 0.261289 -0.418704 0.151298
v 0.262396 -0.419936 0.132095
v 0.214089 -0.425523 0.148501
v 0.205689 -0.424218 0.15079
v 0.17769 -0.42122 0.147171
v 0.159921 -0.420173 0.149968
v 0.162308 -0.421622 0.168597
v 0.160852 -0.420748 0.159584
v 0.0962947 -0.413877 0.144542
v 0.105999 -0.407814 0.138051
v 0.0969436 -0.406285 0.139044
v 0.141632 -0.410879 0.135632
v 0.13271 -0.410346 0.136099
v 0.20893 -0.422468 0.159513
v 0.217117 -0.426161 0.156973
v 0.220451 -0.427459 0.164938
v 0.227103 -0.436257 0.160471
v 0.212257 -0.420714 0.168232
v 0.202766 -0.417866 0.170537
v 0.190673 -0.419198 0.163839
v 0.188128 -0.421616 0.154854
v 0.183284 -0.417376 0.174788
v 0.173253 -0.419241 0.176435
v 0.171791 -0.420266 0.167365
v 0.170011 -0.421257 0.158251
v 0.181284 -0.419331 0.165692
v 0.132507 -0.416403 0.143262
v 0.15295 -0.420101 0.169726
v 0.154493 -0.420899 0.178814
v 0.144961 -0.418073 0.180421
v 0.13328 -0.418502 0.161957
v 0.14321 -0.418272 0.170926
v 0.133604 -0.417289 0.171824
v 0.114544 -0.419772 0.161943
v 0.123982 -0.417403 0.172098
v 0.123795 -0.418902 0.162095
v 0.11397 -0.419 0.17143
v 0.103592 -0.421301 0.170304
v 0.0769346 -0.421294 0.16004
v 0.086356 -0.421465 0.160382
v 0.0957774 -0.421636 0.160724
v 0.0950524 -0.425405 0.168794
v 0.105083 -0.421147 0.161366
v 0.134309 -0.416449 0.181551
v 0.142547 -0.419539 0.161097
v 0.151669 -0.420072 0.160376
v 0.123529 -0.419177 0.152528
v 0.132719 -0.419169 0.1522
v 0.141944 -0.419275 0.151619
v 0.163798 -0.422166 0.177633
v 0.179106 -0.421348 0.15663
v 0.199975 -0.420065 0.161677
v 0.197115 -0.422543 0.152932
v 0.195126 -0.421906 0.144023
v 0.219598 -0.420406 0.13802
v 0.227549 -0.419327 0.135733
v 0.18651 -0.421674 0.145704
v 0.168815 -0.420768 0.148574
v 0.150994 -0.419628 0.151079
v 0.123497 -0.415874 0.14373
f 59 16 17 1
f 17 72 44 1
f 44 104 106 1
f 106 97 59 1
f 3 10 8 2
f 8 7 6 2
f 5 102 3 2
f 4 11 10 3
f 102 103 4 3
f 44 72 11 4
f 103 104 44 4
f 10 11 12 9
f 72 74 12 11
f 73 17 16 14
f 16 123 15 14
f 123 90 76 15
f 59 110 123 16
f 73 74 72 17
f 75 76 90 18
f 90 111 112 18
f 112 122 19 18
f 122 69 20 19
f 69 121 21 20
f 121 68 22 21
f 117 116 67 23
f 67 66 26 23
f 27 119 118 24
f 118 26 66 24
f 66 78 43 24
f 43 25 27 24
f 48 28 27 25
f 43 80 41 25
f 41 45 48 25
f 48 46 29 28
f 32 31 65 30
f 32 64 33 31
f 64 50 63 33
f 35 55 62 34
f 63 39 37 34
f 37 38 35 34
f 60 61 55 35
f 38 36 60 35
f 51 57 60 36
f 49 47 45 40
f 45 41 42 40
f 78 79 80 43
f 47 46 48 45
f 54 13 53 52
f 58 56 62 55
f 67 77 78 66
f 116 115 77 67
f 121 88 114 68
f 114 84 120 68
f 122 109 71 69
f 71 88 121 69
f 87 88 71 70
f 71 109 91 70
f 113 86 87 70
f 115 82 81 77
f 81 79 78 77
f 115 116 84 83
f 116 117 120 84
f 89 87 86 85
f 109 108 95 91
f 95 93 92 91
f 95 96 107 93
f 108 112 111 94
f 111 110 99 94
f 99 98 96 94
f 96 95 108 94
f 99 110 59 97
f 106 101 100 97
f 100 98 99 97
f 106 104 105 101
f 109 122 112 108
f 111 90 123 110
