v 0.201877453125 -0.480492890625 0.134824015625
v 0.212602 -0.480107421875 0.133352828125
v 0.223315609375 -0.47968803125 0.131709921875
v 0.232894625 -0.488049 0.12356875
v 0.222468625 -0.488537125 0.125553625
v 0.168254125 -0.480569375 0.138763375
v 0.18037371875 -0.481281390625 0.1370739375
v 0.19114834375 -0.480882328125 0.136083125
v 0.233979890625 -0.47926709375 0.129864875
v 0.244671421875 -0.478880140625 0.127442453125
v 0.1802355 -0.4904835 0.131689375
v 0.15881775 -0.482042375 0.138699875
v 0.13856725 -0.483697 0.138721125
v 0.1805275 -0.472128875 0.142758125
v 0.223945 -0.470438625 0.137241
v 0.23472925 -0.46995175 0.1350615
v 0.243232 -0.487634875 0.12135925
v 0.169545125 -0.490890875 0.13298425
v 0.1480175 -0.48231475 0.139032125
v 0.125033375 -0.483977125 0.138989125
v 0.17101325 -0.473565625 0.142783875
v 0.191403 -0.471774625 0.141654625
v 0.245650625 -0.4696245 0.132565375
v 0.213109375 -0.470914125 0.138839
v 0.25515228125 -0.478633375 0.12445121875
v 0.1909235 -0.49002725 0.130739625
v 0.2015555 -0.489560875 0.1295145
v 0.148088 -0.49155825 0.134842
v 0.158834625 -0.491234375 0.134143125
v 0.1155355 -0.4829895 0.13965875
v 0.202265875 -0.47137475 0.140381875
v 0.256546625 -0.46936025 0.12968675
v 0.253176875 -0.4873605 0.1183455
v 0.212106625 -0.489085 0.127912125
v 0.138633625 -0.490697125 0.135494625
v 0.10607775 -0.484389625 0.139200375
v 0.266865625 -0.477348125 0.120756
v 0.262758125 -0.487122875 0.114432
v 0.280220625 -0.48508 0.1052175
v 0.265641625 -0.470330375 0.12572675
v 0.28281975 -0.478835125 0.109858625
v 0.125113625 -0.491098125 0.135573875
v 0.272088375 -0.486686625 0.109542125
v 0.115670875 -0.49251575 0.13524925
v 0.106194875 -0.491551875 0.136027625
v 0.275134125 -0.4782635 0.115780625
v 0.2123533125 -0.4846141875 0.1306286875
v 0.206851 -0.4893295 0.128797
v 0.2017109375 -0.4850310625 0.1321485625
v 0.2072395625 -0.4803024375 0.13411175
v 0.196247 -0.489794 0.130169
v 0.1910334375 -0.4854516875 0.133392375
v 0.1965165 -0.480686125 0.1354865625
v 0.1912731875 -0.476325375 0.138849875
v 0.196837 -0.471582 0.1410475
v 0.202066125 -0.475938 0.13758225
v 0.2076885 -0.471149 0.139626
v 0.2128546875 -0.47552875 0.136092125
v 0.22291025 -0.4841459375 0.128683875
v 0.2172955 -0.4888125 0.1267555
v 0.2179639375 -0.4799005 0.1325503125
v 0.218533 -0.4706795 0.13808
v 0.2236484375 -0.4750966875 0.1345275625
v 0.23346525 -0.4837025 0.1268084375
v 0.227677 -0.488284 0.124533
v 0.22864725 -0.479476375 0.130837375
v 0.229331 -0.470185 0.136214
v 0.2343825625 -0.474653875 0.1325548125
v 0.2393345625 -0.47906175 0.128724625
v 0.2439900625 -0.48329925 0.124480875
v 0.2380955 -0.487828 0.122536
v 0.1803033125 -0.4858783125 0.1343566875
v 0.174891 -0.490695 0.132314
v 0.16956875 -0.486281375 0.13546375
v 0.174984 -0.481478625 0.1375570625
v 0.1641935 -0.4910685 0.133605
v 0.1588261875 -0.486638375 0.1364215
v 0.1642065 -0.481866 0.1383635
v 0.175095 -0.472293 0.1431935
v 0.1804493125 -0.476701 0.1398910625
v 0.169628 -0.4770635 0.140772
v 0.185583 -0.490259 0.1312055
v 0.185764625 -0.4810816875 0.1365974375
v 0.185965 -0.4719565 0.142235
v 0.240178 -0.469772 0.133846
v 0.245199375 -0.4742940625 0.1300839375
v 0.254213 -0.4830424375 0.121470875
v 0.2482565 -0.4874835 0.119963
v 0.249950625 -0.4787420625 0.1260441875
v 0.2511205 -0.469488 0.1312175
v 0.255897875 -0.4740423125 0.1271415
v 0.153467 -0.491395 0.1345655
v 0.14805275 -0.4869365 0.1369370625
v 0.1534205 -0.4821875 0.1389
v 0.142695 -0.491732 0.1349425
v 0.1372495 -0.4872345 0.137126
v 0.1426115 -0.4824375 0.1391645
v 0.121074 -0.4923835 0.135107
v 0.1156031875 -0.487752625 0.137454
v 0.120955 -0.4828755 0.139606
v 0.1264265 -0.487507 0.1372565
v 0.264068875 -0.4828351875 0.1175225
v 0.258001 -0.4872525 0.116505
v 0.2602565 -0.4785399375 0.1225849375
v 0.261888 -0.469239 0.1278575
v 0.2663045 -0.4738405 0.1232915
v 0.1102675 -0.4926475 0.135394
v 0.104784 -0.488002 0.1376365
v 0.110119 -0.4831065 0.139699
v 0.27361125 -0.4824750625 0.112661375
v 0.2674775 -0.486935 0.112117
v 0.270314 -0.478432 0.1183245
v 0.2826385 -0.4818785 0.1067845
v 0.27652 -0.4863755 0.1066895
v 0.2798105 -0.478014 0.112908
v 0.20704025 -0.4848265 0.13143775
v 0.1963775 -0.48523975 0.1328075
v 0.1966725 -0.47613375 0.13824675
v 0.207459 -0.47573625 0.13685225
v 0.217638 -0.48438225 0.129675
v 0.21825675 -0.47531575 0.13533725
v 0.228186 -0.4839205 0.1277625
v 0.229013 -0.474871 0.133603
v 0.238748 -0.4834885 0.12571925
v 0.174936 -0.48608425 0.13490275
v 0.1642 -0.48646725 0.13598425
v 0.175038 -0.47688325 0.1403425
v 0.18567225 -0.485666 0.133881
v 0.18586325 -0.47651475 0.13939575
v 0.23978925 -0.4744605 0.13137425
v 0.24914725 -0.4831555 0.12307925
v 0.25057925 -0.47415775 0.1287065
v 0.15344375 -0.48679125 0.13673275
v 0.14265325 -0.48708475 0.1370535
v 0.1210145 -0.4876295 0.1373565
v 0.25918075 -0.48294525 0.11961225
v 0.26112425 -0.4739385 0.1252885
v 0.11019325 -0.487877 0.1375465
v 0.26889575 -0.4826835 0.11522075
v 0.27816525 -0.48219475 0.10979875
f 2 47 116 50
f 34 48 116 47
f 27 49 116 48
f 1 50 116 49
f 27 51 117 49
f 26 52 117 51
f 8 53 117 52
f 1 49 117 53
f 8 54 118 53
f 22 55 118 54
f 31 56 118 55
f 1 53 118 56
f 31 57 119 56
f 24 58 119 57
f 2 50 119 58
f 1 56 119 50
f 3 59 120 61
f 5 60 120 59
f 34 47 120 60
f 2 61 120 47
f 24 62 121 58
f 15 63 121 62
f 3 61 121 63
f 2 58 121 61
f 9 64 122 66
f 4 65 122 64
f 5 59 122 65
f 3 66 122 59
f 15 67 123 63
f 16 68 123 67
f 9 66 123 68
f 3 63 123 66
f 9 69 124 64
f 10 70 124 69
f 17 71 124 70
f 4 64 124 71
f 7 72 125 75
f 11 73 125 72
f 18 74 125 73
f 6 75 125 74
f 18 76 126 74
f 29 77 126 76
f 12 78 126 77
f 6 74 126 78
f 21 79 127 81
f 14 80 127 79
f 7 75 127 80
f 6 81 127 75
f 8 52 128 83
f 26 82 128 52
f 11 72 128 82
f 7 83 128 72
f 14 84 129 80
f 22 54 129 84
f 8 83 129 54
f 7 80 129 83
f 16 85 130 68
f 23 86 130 85
f 10 69 130 86
f 9 68 130 69
f 25 87 131 89
f 33 88 131 87
f 17 70 131 88
f 10 89 131 70
f 23 90 132 86
f 32 91 132 90
f 25 89 132 91
f 10 86 132 89
f 29 92 133 77
f 28 93 133 92
f 19 94 133 93
f 12 77 133 94
f 19 93 134 97
f 28 95 134 93
f 35 96 134 95
f 13 97 134 96
f 42 98 135 101
f 44 99 135 98
f 30 100 135 99
f 20 101 135 100
f 37 102 136 104
f 38 103 136 102
f 33 87 136 103
f 25 104 136 87
f 32 105 137 91
f 40 106 137 105
f 37 104 137 106
f 25 91 137 104
f 44 107 138 99
f 45 108 138 107
f 36 109 138 108
f 30 99 138 109
f 46 110 139 112
f 43 111 139 110
f 38 102 139 111
f 37 112 139 102
f 41 113 140 115
f 39 114 140 113
f 43 110 140 114
f 46 115 140 110
