# https://github.com/mikedh/trimesh
v -0.11158350 0.20297825 0.03383025
v -0.10597100 0.23355650 0.01852350
v -0.09903400 0.22695000 0.02497200
v -0.10718800 0.22754301 0.02259750
v -0.04740300 0.19968601 0.04931900
v -0.03504800 0.13821401 0.07011300
v -0.07904500 0.22040799 0.03127400
v -0.07614225 0.21879925 0.03302850
v -0.06586100 0.21339600 0.03822300
v -0.04371500 0.18527400 0.05534000
v -0.07695944 0.21847553 0.03670988
v -0.08184387 0.22068401 0.03443227
v -0.08586330 0.22169293 0.03336946
v -0.07135900 0.21543800 0.03994300
v -0.06477082 0.21171037 0.04303064
v -0.08725377 0.22267129 0.03123442
v -0.09219195 0.22407071 0.02979886
v -0.07745136 0.19179654 0.04812323
v -0.08134480 0.19454078 0.04614718
v -0.08627885 0.20163708 0.04238607
v -0.06547542 0.20261827 0.04688887
v -0.07416600 0.20812100 0.04260000
v -0.08822767 0.19577992 0.04396784
v -0.06363708 0.18502686 0.05310702
v -0.05773440 0.18434177 0.05421391
v -0.05109100 0.17755900 0.05686100
v -0.07255887 0.18947135 0.05013988
v -0.09461426 0.19748798 0.04146595
v -0.10107267 0.19957348 0.03842356
v -0.04870713 0.17400725 0.05825512
v -0.05755178 0.18090298 0.05524646
v -0.04330731 0.16616787 0.06125769
v -0.03777800 0.15115800 0.06720900
v -0.03651300 0.14489525 0.06893075
v -0.00821900 0.11417700 0.07732100
v 0.01898500 0.11879400 0.07358700
v 0.05626651 0.19508999 0.04544074
v 0.07254204 0.21070731 0.03472362
v 0.05345176 0.21151812 0.03997767
v 0.08605250 0.19845900 0.03456200
v 0.07614200 0.22156100 0.02798300
v 0.09037371 0.22027374 0.02311275
v 0.04218677 0.21011665 0.04215487
v 0.05959325 0.18965325 0.04650725
v 0.05952703 0.21464081 0.03709745
v 0.07375664 0.19501845 0.04002898
v 0.03474975 0.19679400 0.04653925
v 0.09173515 0.20040435 0.03154677
v 0.08431541 0.22323452 0.02414859
v 0.04245778 0.18196364 0.05256440
v 0.03395446 0.17686317 0.05575232
v 0.02634650 0.16674950 0.05951050
v 0.02225943 0.16016318 0.06231361
v 0.02188794 0.16670180 0.06053033
v 0.01880525 0.14814010 0.06664167
v 0.01719500 0.13970999 0.06908800
v 0.00723127 0.13394585 0.07192329
v 0.02773700 0.18608700 0.05149000
v 0.02341851 0.17641580 0.05732171
v 0.00449855 0.14995459 0.06767545
v -0.00470460 0.16113819 0.06462426
v 0.00424474 0.17375085 0.05984075
v 0.00090422 0.20280132 0.04881694
v 0.00959331 0.21570493 0.04274059
v -0.00917039 0.19960644 0.05041800
v -0.00826200 0.22192600 0.03896250
v -0.00113500 0.24883450 0.02752875
v 0.02444492 0.22601058 0.03651607
v 0.01899218 0.23831899 0.03140835
v 0.03934975 0.20104475 0.04649200
v -0.01837082 0.19083097 0.05389433
v -0.03453962 0.18579018 0.05524199
v -0.03325920 0.16697689 0.06200697
v -0.01047273 0.17023193 0.06179555
v -0.03811281 0.17753765 0.05792820
v -0.04090100 0.20547400 0.04719400
v -0.00794089 0.14382018 0.07011458
v -0.00549942 0.12573435 0.07452270
v 0.04503405 0.22247732 0.03532712
v 0.00785927 0.25012245 0.02694064
v 0.03302725 0.17399588 0.05690850
v -0.00660050 0.23182450 0.03633000
v 0.02190700 0.25444300 0.02227900
v 0.02855507 0.24941905 0.02502770
v 0.04984600 0.23932600 0.02540100
v -0.04469354 0.19738893 0.05044455
v -0.00638600 0.23704600 0.03420000
v 0.04627485 0.25767424 0.01698569
v -0.00758606 0.21453893 0.04419745
v 0.06534029 0.22323786 0.03067305
v 0.05108875 0.21481850 0.03794087
v 0.03596991 0.26002129 0.01812539
v 0.05655472 0.23695076 0.02503146
v -0.02106995 0.13903459 0.07114682
v -0.01928300 0.12592800 0.07431700
v 0.01853100 0.12721799 0.07197900
v 0.05565430 0.21829819 0.03566016
v -0.03886208 0.17292457 0.05924458
v 0.04539670 0.26579637 0.01280258
v 0.07453974 0.22591920 0.02656517
v 0.05564936 0.27462277 0.00488443
v 0.06154049 0.26679397 0.00689712
v 0.06603851 0.25766550 0.01029846
v 0.08936726 0.23098243 0.01726250
v 0.07199970 0.23862585 0.01922994
v 0.06431884 0.24998560 0.01534656
v 0.06494775 0.27004676 0.00390700
v 0.07170750 0.19384188 0.04129925
v 0.08141500 0.25510699 0.00540600
v 0.04638575 0.18373875 0.05146375
v 0.09452550 0.22797125 0.01664225
v 0.10659188 0.20585077 0.02129775
v 0.09882489 0.22951294 0.01377817
v 0.10933300 0.20668200 0.01962500
v 0.10564500 0.23386150 0.00726750
v 0.10375850 0.23280100 0.00900300
v 0.11139650 0.23748901 0.00186188
v 0.11816500 0.23119999 0.00090300
v 0.12636368 0.21798381 0.00232014
v 0.09805900 0.23542650 0.01045700
v 0.11486500 0.21002799 0.01453600
v 0.13048947 0.22017934 -0.00182169
v 0.12872300 0.21882200 0.00054800
v 0.11613613 0.24144413 -0.00411763
v 0.12078400 0.24432901 -0.00883400
v 0.09854419 0.20225482 0.02751900
v 0.13649375 0.22453450 -0.00964275
v 0.13370401 0.22311300 -0.00643100
v 0.08257787 0.22800362 0.02156725
v 0.03890919 0.26175037 0.01642457
v 0.03052713 0.25749903 0.02049211
v 0.15002024 0.22799949 -0.01581475
v 0.15266600 0.22746100 -0.01790000
v 0.15351000 0.23231600 0.00461600
v 0.15593949 0.23321825 0.01168725
v 0.14667299 0.22832400 -0.01236800
v 0.04931425 0.16362663 0.08719687
v 0.05954600 0.17298700 0.08306700
v 0.08771800 0.18908100 0.07014400
v 0.07146600 0.18172701 0.07662600
v 0.11560280 0.19771579 0.05782331
v 0.10091950 0.19416350 0.06376600
v 0.13305250 0.20845350 0.04594450
v 0.13975801 0.21386600 0.04057700
v 0.15285125 0.22761299 0.02811625
v 0.10610600 0.19630100 0.06125600
v 0.15599100 0.23059499 0.02499500
v 0.12999375 0.20687950 0.04776000
v 0.04148457 0.16304660 0.08083279
v 0.04349038 0.15831911 0.08865978
v 0.03638654 0.16923036 0.06809120
v 0.12885002 0.21413507 0.02266357
v 0.13478950 0.21774592 0.02176474
v 0.13963260 0.21617389 0.03648266
v 0.12780633 0.21075791 0.03517884
v 0.10865204 0.20230228 0.04194292
v 0.10630497 0.19814383 0.05862429
v 0.12101641 0.20707194 0.04020647
v 0.09601631 0.19844295 0.04306978
v 0.09236548 0.19371643 0.05959646
v 0.08350279 0.19135093 0.06048128
v 0.09554044 0.20064426 0.03054080
v 0.09400048 0.19278613 0.06483066
v 0.12201744 0.20498639 0.04952699
v 0.06556152 0.18100842 0.07390617
v 0.12619386 0.20559635 0.04930442
v 0.04148300 0.17889767 0.05727259
v 0.05815762 0.17484851 0.08036237
v 0.13837650 0.21889151 0.02577408
v 0.14642110 0.22487242 0.02557942
v 0.15010702 0.23145681 0.00981197
v 0.15281211 0.23256404 0.01110547
v 0.15429340 0.23165956 0.02207842
v 0.15647955 0.23347734 0.01641660
v 0.14095625 0.22378265 0.01453822
v 0.14851958 0.23065512 0.00169799
v 0.14704449 0.22903506 -0.00886813
v 0.10966770 0.19916894 0.05785382
v 0.10324462 0.19612812 0.06143085
v 0.15709562 0.23261369 0.02208632
v 0.14474200 0.22708300 -0.01982700
v 0.15358800 0.22457600 -0.02619800
f 3 4 1
f 3 1 17
f 17 1 13
f 13 1 29
f 13 29 20
f 20 29 28
f 20 28 23
f 20 23 19
f 20 19 18
f 20 18 27
f 21 20 27
f 21 27 5
f 5 27 25
f 25 27 24
f 25 24 31
f 25 31 30
f 30 5 25
f 5 30 10
f 86 5 10
f 86 10 72
f 71 86 72
f 71 66 86
f 66 76 86
f 66 71 65
f 74 65 71
f 63 65 74
f 63 74 62
f 62 74 61
f 61 74 77
f 77 74 94
f 77 94 78
f 78 94 35
f 94 95 35
f 94 6 95
f 34 6 94
f 94 33 34
f 33 94 73
f 33 73 98
f 73 75 98
f 75 10 98
f 98 10 32
f 10 26 32
f 74 75 73
f 72 75 74
f 98 32 33
f 95 6 35
f 57 78 35
f 36 57 35
f 56 57 36
f 56 55 57
f 55 54 57
f 54 59 57
f 57 59 60
f 59 62 60
f 58 62 59
f 58 47 62
f 60 77 57
f 54 52 59
f 51 59 52
f 47 59 51
f 50 47 51
f 50 51 110
f 51 81 110
f 44 47 50
f 43 47 44
f 37 43 44
f 38 37 44
f 38 44 46
f 46 44 108
f 46 108 40
f 40 38 46
f 48 38 40
f 162 48 40
f 162 126 48
f 162 112 126
f 112 162 159
f 159 162 40
f 108 159 40
f 160 159 108
f 157 159 160
f 163 157 160
f 160 161 163
f 163 161 110
f 139 163 110
f 139 179 163
f 179 139 142
f 146 179 142
f 157 179 146
f 178 157 146
f 157 178 156
f 178 158 156
f 164 158 178
f 166 164 178
f 166 178 148
f 166 148 143
f 166 143 164
f 164 143 158
f 143 155 158
f 158 155 121
f 121 114 158
f 114 112 158
f 155 154 121
f 154 152 121
f 154 153 152
f 169 153 154
f 170 169 154
f 170 123 169
f 170 175 123
f 173 175 170
f 173 171 175
f 171 128 175
f 171 127 128
f 171 176 127
f 134 176 171
f 134 177 176
f 134 136 177
f 177 136 127
f 136 181 127
f 132 181 136
f 133 181 132
f 133 182 181
f 172 134 171
f 180 172 171
f 180 174 172
f 172 174 134
f 135 134 174
f 176 177 127
f 180 171 173
f 180 173 145
f 147 180 145
f 173 170 145
f 128 123 175
f 145 170 154
f 144 145 154
f 144 154 143
f 123 153 169
f 153 123 152
f 123 119 152
f 152 119 121
f 154 155 143
f 158 112 156
f 157 156 112
f 178 146 141
f 148 178 141
f 140 139 110
f 140 110 165
f 140 165 168
f 140 168 138
f 138 168 151
f 81 151 168
f 167 81 168
f 168 110 167
f 167 110 81
f 151 81 53
f 149 151 53
f 137 151 149
f 150 137 149
f 149 53 150
f 138 151 137
f 165 110 168
f 110 161 44
f 161 108 44
f 44 50 110
f 179 157 163
f 160 108 161
f 157 112 159
f 112 48 126
f 112 42 48
f 42 112 115
f 114 115 112
f 121 115 114
f 119 115 121
f 118 115 119
f 119 124 118
f 128 124 119
f 124 128 125
f 128 119 122
f 124 115 118
f 115 113 42
f 115 116 113
f 117 116 115
f 42 113 49
f 113 111 49
f 49 111 41
f 49 41 42
f 42 41 38
f 41 45 38
f 42 38 48
f 38 45 37
f 45 39 37
f 39 43 37
f 51 52 81
f 52 54 53
f 53 54 55
f 55 56 96
f 57 77 78
f 94 74 73
f 61 77 60
f 62 61 60
f 47 63 62
f 70 63 47
f 43 63 70
f 43 89 63
f 64 89 43
f 64 66 89
f 64 82 66
f 64 67 82
f 67 87 82
f 68 67 64
f 69 67 68
f 84 69 68
f 79 84 68
f 90 84 79
f 85 84 90
f 85 90 93
f 93 90 100
f 100 106 93
f 105 106 100
f 120 106 105
f 120 109 106
f 109 103 106
f 107 103 109
f 107 102 103
f 107 101 102
f 102 101 88
f 101 99 88
f 99 130 88
f 130 92 88
f 92 131 88
f 83 88 131
f 88 103 102
f 103 88 106
f 120 105 104
f 105 100 104
f 104 100 129
f 106 88 93
f 88 84 93
f 88 83 84
f 83 80 84
f 93 84 85
f 90 79 97
f 90 97 41
f 97 91 41
f 97 43 91
f 97 79 43
f 79 68 43
f 84 67 69
f 68 64 43
f 65 63 89
f 74 71 72
f 72 10 75
f 5 86 76
f 5 15 21
f 15 14 21
f 14 22 21
f 14 20 22
f 21 22 20
f 13 20 14
f 11 13 14
f 12 13 11
f 12 16 13
f 16 17 13
f 17 16 3
f 12 7 16
f 7 2 16
f 11 7 12
f 7 11 8
f 8 11 9
f 14 9 11
f 14 15 9
f 5 9 15
f 9 7 8

