# https://github.com/mikedh/trimesh
v -0.14541564 0.04361909 0.05714595
v -0.13199200 0.04261400 0.06095800
v -0.15963300 0.03494400 0.05080500
v -0.16338349 0.01400800 0.04369275
v -0.16057600 0.00630200 0.04293100
v -0.11483031 0.01077076 0.05702539
v -0.11361500 0.01494625 0.05850300
v -0.16771564 0.01713326 0.04487194
v -0.16949615 0.02306916 0.04689495
v -0.16772029 0.02974032 0.04955143
v -0.16569200 0.00844200 0.04305000
v -0.16837950 0.01156450 0.04300200
v -0.16541736 0.03436582 0.05184267
v -0.16510397 0.02879652 0.04898419
v -0.16054586 0.03920347 0.05489120
v -0.15611149 0.04532357 0.05788399
v -0.14237713 0.04690670 0.06277720
v -0.12782562 0.04319562 0.06589992
v -0.11499575 0.03517125 0.06680625
v -0.11260486 0.02656679 0.06506908
v -0.11101500 0.02184900 0.06419300
v -0.15298199 0.04272490 0.05720825
v -0.16530098 0.03947444 0.05229621
v -0.12014823 0.03761055 0.06659974
v -0.11320950 0.03216250 0.06651900
v -0.14774872 0.04891055 0.06130263
v -0.17389000 0.03056950 0.04472432
v -0.11313800 0.02090575 0.06161525
v -0.12042350 0.03527000 0.06415600
v -0.16405700 0.01753400 0.04432300
v -0.12781318 0.05650564 0.06266391
v -0.12291472 0.05698213 0.06186952
v -0.12322391 0.04891287 0.06581841
v -0.13974569 0.05110199 0.06361629
v -0.14103446 0.05578800 0.06108293
v -0.13159371 0.04782771 0.06564783
v -0.15523571 0.06393433 0.04963131
v -0.15164180 0.05994669 0.05479438
v -0.13637254 0.06434099 0.05659647
v -0.16768578 0.05110035 0.04745876
v -0.16638977 0.04248396 0.05119374
v -0.17046183 0.05467928 0.04287962
v -0.17411084 0.04755450 0.04207955
v -0.17492741 0.04221296 0.04270814
v -0.11742654 0.04156885 0.06698427
v -0.17714870 0.03631563 0.04061287
v -0.17978513 0.03675200 0.03759326
v -0.11469000 0.04094650 0.06667350
v -0.17568008 0.05147130 0.03842522
v -0.17697876 0.05124141 0.03533047
v -0.11876000 0.05221200 0.06371600
v -0.11800150 0.04919450 0.06481500
v -0.18312883 0.04061029 0.02983967
v -0.11319200 0.04445100 0.06557500
v -0.15930563 0.06230339 0.04860940
v -0.17071227 0.05778771 0.03936649
v -0.11578600 0.05266300 0.06279100
v -0.12961754 0.06156939 0.05942376
v -0.13520538 0.06948144 0.05120245
v -0.11607600 0.05724800 0.06001300
v -0.11558400 0.05495850 0.06140500
v -0.13607400 0.07476038 0.04861887
v -0.16654195 0.06393012 0.03651018
v -0.17273061 0.05913445 0.03273550
v -0.18491010 0.03505981 0.02640633
v -0.17734175 0.05388222 0.02970198
v -0.18194494 0.04696655 0.02542694
v -0.18360490 0.04295784 0.02382864
v -0.18557512 0.03651085 0.02081403
v -0.16112183 0.06402463 0.04422870
v -0.14819661 0.06901063 0.04798483
v -0.13858754 0.06977544 0.05006970
v -0.17972399 0.05177059 0.02778490
v -0.13722500 -0.01834700 0.03508300
v -0.14082477 -0.01860180 0.03273501
v -0.14351500 -0.02077578 0.02442870
v -0.14225300 -0.01650900 0.03622100
v -0.15176795 -0.01692665 0.02889125
v -0.15190150 -0.01953888 0.01835837
v -0.15872414 -0.01396292 0.02634166
v -0.15810793 -0.01588568 0.02234702
v -0.14748600 -0.01561600 0.03446000
v -0.15480401 -0.01466800 0.02957100
v -0.15202500 -0.01466000 0.03232600
v -0.16230735 -0.01405211 0.01637723
v -0.16162703 -0.01526898 0.01149563
v -0.16880638 -0.00779228 0.02240090
v -0.16716953 -0.00566353 0.02868347
v -0.16539401 0.00001925 0.03727988
v -0.16901829 0.00177331 0.03521184
v -0.17862849 0.00447553 0.02198789
v -0.17458579 -0.00217526 0.02107937
v -0.17168526 -0.00651187 0.01090655
v -0.17121200 0.00887300 0.03860900
v -0.17720270 0.00730857 0.02945100
v -0.17505650 0.01767450 0.03921100
v -0.17652400 0.01601800 0.03645700
v -0.17718330 0.00067948 0.01149363
v -0.18341803 0.01664254 0.02515205
v -0.18392447 0.01287517 0.01361848
v -0.18041605 0.00606399 0.01634762
v -0.17644400 0.02560525 0.04025425
v -0.18124171 0.01885305 0.03109044
v -0.18096959 0.00712875 0.01253291
v -0.18359591 0.02710975 0.02957218
v -0.18512200 0.02301200 0.02244500
v -0.18511077 0.02984126 0.02653372
v -0.18492915 0.01689518 0.01451875
v -0.12238875 -0.00650900 0.05172075
v -0.12300500 -0.01098000 0.04801600
v -0.13107251 -0.01939900 0.03482200
v -0.10964019 0.05126361 0.06156933
v -0.10546618 0.04557622 0.06243831
v -0.10907623 0.04275317 0.06512479
v -0.09903700 0.03324200 0.06259500
v -0.10737691 0.03280612 0.06591966
v -0.10602590 0.02712033 0.06534869
v -0.09681535 0.02952128 0.06190973
v -0.09523227 0.01140820 0.05870619
v -0.10848987 0.01544821 0.06292444
v -0.11027851 0.00779108 0.05989168
v -0.11371539 0.00185536 0.05713257
v -0.11936944 -0.00466259 0.05332667
v -0.11012106 0.00163095 0.05710576
v -0.10689258 0.02147138 0.06432255
v -0.10705757 -0.00205746 0.05395877
v -0.10253479 0.01670731 0.06212434
v -0.09494447 0.00340421 0.05408744
v -0.08775970 -0.00425754 0.04491750
v -0.11513465 -0.00699137 0.05147989
v -0.10477848 -0.00346562 0.05275388
v -0.09509850 -0.01120400 0.04158550
v -0.10076375 -0.01378600 0.04047825
v -0.10904868 -0.01642590 0.03865541
v -0.10528929 -0.01518726 0.03960431
v -0.08960141 0.00784667 0.05427201
v -0.11850262 -0.01509138 0.04318068
v -0.09239334 0.01872546 0.05938118
v -0.09121700 0.01431751 0.05750519
v -0.11890700 -0.01970900 0.03548700
v -0.12683575 -0.02084800 0.03248775
v -0.13438450 -0.02114711 0.02915773
v -0.09505845 0.02632083 0.06125005
v -0.10014646 0.03704940 0.06281810
v -0.10175628 0.04059466 0.06289898
v -0.10676309 0.04895845 0.06266760
v -0.11176001 0.05557391 0.06013761
f 53 69 65
f 65 69 107
f 107 69 108
f 107 108 106
f 106 108 99
f 99 108 100
f 95 99 100
f 95 100 91
f 100 101 91
f 100 104 101
f 101 104 98
f 101 98 92
f 92 98 93
f 87 92 93
f 87 93 86
f 87 86 85
f 81 87 85
f 80 87 81
f 80 88 87
f 95 87 88
f 95 88 90
f 90 88 89
f 89 88 83
f 88 80 78
f 80 81 78
f 78 81 79
f 81 86 79
f 76 78 79
f 75 78 76
f 74 78 75
f 77 78 74
f 82 78 77
f 82 84 78
f 84 83 78
f 83 88 78
f 74 75 76
f 85 86 81
f 95 92 87
f 91 101 92
f 92 95 91
f 103 99 95
f 103 105 99
f 47 105 103
f 47 107 105
f 53 107 47
f 49 53 47
f 50 53 49
f 50 67 53
f 67 68 53
f 50 66 67
f 64 66 50
f 66 64 73
f 56 64 50
f 63 64 56
f 63 56 55
f 70 63 55
f 71 63 70
f 71 70 55
f 71 55 37
f 71 37 38
f 71 38 35
f 71 35 39
f 39 59 71
f 72 71 59
f 62 71 72
f 60 62 72
f 60 59 39
f 58 39 35
f 58 35 34
f 58 34 31
f 58 31 60
f 31 34 36
f 36 34 17
f 36 17 18
f 33 36 18
f 33 18 45
f 52 33 45
f 48 52 45
f 48 45 19
f 48 19 25
f 114 48 25
f 114 54 48
f 114 52 54
f 52 114 51
f 57 51 114
f 114 60 57
f 114 112 60
f 146 112 114
f 147 60 112
f 114 25 116
f 144 114 116
f 144 116 117
f 115 144 117
f 115 117 118
f 117 143 118
f 143 117 119
f 138 143 119
f 138 119 139
f 139 119 136
f 136 119 128
f 128 129 136
f 129 128 131
f 131 132 129
f 131 137 132
f 132 137 135
f 137 134 135
f 134 137 140
f 137 141 140
f 137 111 141
f 141 111 142
f 111 76 142
f 110 111 137
f 130 110 137
f 130 109 110
f 130 123 109
f 122 123 130
f 124 122 130
f 124 130 126
f 126 130 131
f 119 126 131
f 119 124 126
f 119 120 124
f 120 121 124
f 120 122 121
f 119 127 120
f 125 120 127
f 119 125 127
f 121 122 124
f 122 109 123
f 122 6 109
f 120 6 122
f 7 6 120
f 21 7 120
f 120 25 21
f 117 25 120
f 117 120 125
f 21 28 7
f 20 28 21
f 20 29 28
f 20 24 29
f 24 18 29
f 18 2 29
f 135 134 133
f 130 137 131
f 119 131 128
f 117 125 119
f 144 145 114
f 113 114 145
f 113 146 114
f 117 116 25
f 45 24 19
f 19 24 20
f 52 32 33
f 61 32 52
f 32 61 60
f 32 31 33
f 45 18 24
f 34 26 17
f 17 26 16
f 38 16 26
f 55 16 38
f 16 55 40
f 55 42 40
f 42 49 40
f 49 43 40
f 40 43 44
f 44 43 47
f 44 47 46
f 46 47 27
f 44 46 27
f 41 44 27
f 23 41 27
f 41 23 16
f 16 23 15
f 23 13 15
f 16 15 22
f 3 22 15
f 1 22 3
f 17 22 1
f 18 17 1
f 18 1 2
f 15 14 3
f 23 27 13
f 13 27 10
f 10 27 9
f 13 10 8
f 10 9 8
f 9 12 8
f 11 8 12
f 5 8 11
f 4 8 5
f 30 8 4
f 3 8 30
f 14 8 3
f 13 8 14
f 40 44 41
f 16 40 41
f 17 16 22
f 33 31 36
f 35 26 34
f 35 38 26
f 38 37 55
f 55 56 49
f 56 50 49
f 43 49 47
f 102 47 103
f 96 102 103
f 103 97 96
f 96 97 95
f 96 95 94
f 94 95 89
f 47 102 9
f 105 107 99
f 97 103 95
f 107 106 99
f 53 68 69
f 53 65 107

