# https://github.com/mikedh/trimesh
v -0.17184598 0.23422429 0.02365655
v -0.11158350 0.20297825 0.03383025
v -0.14835269 0.22395813 0.00019987
v -0.16776975 0.23335350 0.01988551
v -0.16870253 0.23303653 0.02322967
v -0.15315686 0.22299513 0.01987413
v -0.14625570 0.21938077 0.01729409
v -0.15409927 0.21869515 0.03473313
v -0.14509357 0.22098133 0.00568680
v -0.16839832 0.23135689 0.02783288
v -0.15904707 0.22990246 0.00490967
v -0.14722577 0.22275399 0.00294434
v -0.13758876 0.21576928 0.01390702
v -0.16724288 0.23347702 0.01427842
v -0.14755488 0.21216141 0.04563195
v -0.16404679 0.23232719 0.00645358
v -0.12529800 0.20951951 0.02378450
v -0.11728049 0.20548965 0.02988104
v -0.11581000 0.19948199 0.05626600
v -0.12229616 0.20081185 0.05921336
v -0.13210780 0.20571865 0.05217920
v -0.11450200 0.20185900 0.04323300
v -0.15389200 0.21556801 0.04252700
v -0.16728206 0.23326146 0.00851380
v -0.16863808 0.23378451 0.01151714
v -0.15932162 0.22837804 -0.01179583
v -0.15676830 0.22805237 -0.00858596
v -0.14331079 0.21053134 0.04736587
v -0.17068341 0.23439742 0.01385168
v -0.16968031 0.23319490 0.00563756
v -0.13320600 0.20449900 0.05596750
v -0.13775700 0.20666599 0.05319000
v -0.12419850 0.20011200 0.06130150
v -0.11347600 0.19667201 0.06443000
v -0.16720599 0.22728900 -0.01859150
v -0.17456498 0.23456218 0.01858519
v -0.11125000 0.19464301 0.06764400
v -0.16586517 0.22828179 -0.01539596
v -0.17212645 0.23277492 0.00455722
v -0.17417499 0.23300500 0.00745400
v -0.17702975 0.23370712 0.01773650
v -0.10712300 0.19024301 0.07170000
v -0.08550410 0.17946718 0.08143873
v -0.07902317 0.17553116 0.08417887
v -0.05741100 0.15074000 0.09323400
v -0.07018975 0.16914838 0.08737588
v -0.05281037 0.11626575 0.09573300
v -0.09949500 0.18943200 0.07374300
v -0.05247300 0.13561299 0.09504300
v -0.03697222 0.11710525 0.07478217
v -0.03504800 0.13821401 0.07011300
v -0.03634000 0.12282200 0.07374700
v -0.03589500 0.12632801 0.07290400
v -0.07745136 0.19179654 0.04812323
v -0.08134480 0.19454078 0.04614718
v -0.08822767 0.19577992 0.04396784
v -0.06363708 0.18502686 0.05310702
v -0.07255887 0.18947135 0.05013988
v -0.06035400 0.18278142 0.05455283
v -0.09461426 0.19748798 0.04146595
v -0.10107267 0.19957348 0.03842356
v -0.11382581 0.20054552 0.04888728
v -0.10109907 0.19723551 0.04869767
v -0.09796266 0.19290453 0.06402190
v -0.09963300 0.19273201 0.06632200
v -0.08784967 0.18936010 0.06576728
v -0.04870713 0.17400725 0.05825512
v -0.06701390 0.16952100 0.08552350
v -0.07231218 0.17731351 0.07800512
v -0.05534959 0.17845696 0.05761423
v -0.05755178 0.18090298 0.05524646
v -0.06809871 0.18182585 0.06502978
v -0.06620260 0.18613360 0.05263922
v -0.08046067 0.17957777 0.08143486
v -0.04405700 0.16869500 0.05999300
v -0.04330731 0.16616787 0.06125769
v -0.05717093 0.16716315 0.07783032
v -0.06157266 0.16195586 0.08956251
v -0.05460447 0.15533151 0.08726918
v -0.04182260 0.15988693 0.06615438
v -0.04564189 0.14833067 0.08130211
v -0.04555701 0.14329714 0.08370326
v -0.03932150 0.14769600 0.07201600
v -0.05405161 0.14787978 0.09286851
v -0.03590611 0.13152152 0.07239715
v -0.05093673 0.12924734 0.09506004
v -0.03721231 0.12603192 0.07540749
v -0.05105226 0.11949121 0.09523386
v -0.04830050 0.10923150 0.08908750
f 30 39 29
f 30 38 39
f 39 38 35
f 39 35 40
f 16 38 30
f 16 26 38
f 27 26 16
f 16 11 27
f 3 27 11
f 3 11 4
f 4 12 3
f 6 12 4
f 7 12 6
f 7 9 12
f 13 9 7
f 13 7 8
f 8 28 13
f 17 13 28
f 17 28 21
f 31 21 28
f 28 32 31
f 20 21 31
f 34 20 31
f 34 31 33
f 34 19 20
f 34 42 19
f 42 34 37
f 42 62 19
f 63 62 42
f 63 61 62
f 60 61 63
f 63 56 60
f 56 63 64
f 55 56 64
f 66 55 64
f 48 66 64
f 74 66 48
f 74 72 66
f 74 69 72
f 69 74 68
f 68 74 44
f 43 44 74
f 48 43 74
f 44 78 68
f 68 78 77
f 77 78 75
f 76 75 78
f 78 80 76
f 78 81 80
f 81 83 80
f 81 51 83
f 81 82 51
f 82 81 84
f 84 86 82
f 84 49 86
f 81 79 84
f 84 79 78
f 45 84 78
f 84 45 49
f 78 46 45
f 82 86 51
f 51 86 85
f 86 87 85
f 88 87 86
f 88 50 87
f 50 88 89
f 88 47 89
f 87 50 52
f 85 87 52
f 85 52 53
f 51 85 53
f 79 81 78
f 77 75 67
f 77 67 68
f 68 67 70
f 71 70 67
f 70 71 59
f 57 59 71
f 70 59 69
f 68 70 69
f 69 59 72
f 59 73 72
f 59 57 73
f 73 57 58
f 66 73 58
f 58 54 66
f 66 72 73
f 48 64 65
f 48 65 42
f 66 54 55
f 62 61 2
f 62 2 22
f 64 63 42
f 19 62 22
f 19 18 20
f 18 17 20
f 18 19 2
f 20 17 21
f 28 8 15
f 32 28 15
f 15 8 23
f 8 10 23
f 8 6 10
f 7 6 8
f 6 4 10
f 10 4 5
f 10 5 1
f 1 5 4
f 1 4 29
f 4 14 29
f 14 25 29
f 14 16 25
f 25 16 24
f 25 24 30
f 4 16 14
f 1 29 36
f 29 40 36
f 36 40 41
f 1 36 41
f 9 3 12
f 11 16 4
f 24 16 30
f 29 39 40
f 25 30 29

