# https://github.com/mikedh/trimesh
v -0.19652541 0.01660606 -0.02744796
v -0.19415900 0.00798100 -0.02429200
v -0.19996183 0.02810859 -0.02541143
v -0.20099233 0.04123497 -0.02125950
v -0.19992892 0.05479191 -0.01550766
v -0.19768031 0.06075606 -0.01169988
v -0.19518887 0.06759061 -0.00738703
v -0.19651501 0.06409400 -0.00963800
v -0.18628785 0.07790335 0.00262576
v -0.19166073 0.07248821 -0.00319089
v -0.18305266 0.07961921 0.00557817
v -0.19725951 0.02026300 -0.02596850
v -0.20068450 0.04548550 -0.01898500
v -0.17171550 0.08392800 0.01630000
v -0.16838250 0.08440175 0.01953275
v -0.15932937 0.08431962 0.02858087
v -0.15522300 0.08345500 0.03253100
v -0.15277375 0.08316550 0.03434675
v -0.14809602 0.08121207 0.03886773
v -0.15173951 0.07603005 0.04530144
v -0.14044143 0.07809567 0.04507965
v -0.17520757 0.08130027 0.01765988
v -0.16315100 0.07755000 0.03606800
v -0.16716389 0.08305865 0.02492902
v -0.17433084 0.07238611 0.03137438
v -0.18400185 0.07499900 0.01420414
v -0.17912480 0.07213251 0.02524025
v -0.18565986 0.07354441 0.01263345
v -0.16618713 0.07274302 0.03932233
v -0.19130399 0.06993020 0.00455310
v -0.17471470 0.06645979 0.03554013
v -0.18311854 0.06311085 0.02831248
v -0.17186442 0.06961970 0.03676173
v -0.19033243 0.06862047 0.01000832
v -0.19310636 0.05927405 0.01303707
v -0.19235174 0.06584467 0.00816570
v -0.19813664 0.05877966 -0.00140512
v -0.13607400 0.07476038 0.04861887
v -0.19730858 0.05483127 0.00553512
v -0.19196918 0.04986370 0.02058261
v -0.19428166 0.04382657 0.01704796
v -0.18700571 0.05559439 0.02670507
v -0.19819764 0.04004931 0.00836359
v -0.20121056 0.04661534 -0.00434206
v -0.19434500 0.03903200 0.01735900
v -0.19723056 0.02540862 0.00950045
v -0.19870687 0.04531470 0.00599494
v -0.20185813 0.04578594 -0.00850760
v -0.20061051 0.03336505 0.00013018
v -0.19552619 0.02928110 0.01392457
v -0.20193211 0.03906212 -0.00586693
v -0.19401898 0.01666031 0.01097940
v -0.20186217 0.03230191 -0.00887577
v -0.20101166 0.02248805 -0.01383634
v -0.20129286 0.02730928 -0.00946397
v -0.14326621 0.07271851 0.04833797
v -0.19245072 0.04223529 0.02088988
v -0.18966085 0.04703900 0.02371465
v -0.18973801 0.00725426 0.00967819
v -0.18588262 0.00044556 0.00883175
v -0.19211525 0.01315294 0.01115778
v -0.16919168 0.06956714 0.03851624
v -0.18534225 -0.00597750 -0.00797050
v -0.15373961 0.06916738 0.04286159
v -0.15741888 0.06803336 0.04122102
v -0.16128104 0.06641878 0.03945211
v -0.16654195 0.06393012 0.03651018
v -0.17273061 0.05913445 0.03273550
v -0.17734175 0.05388222 0.02970198
v -0.18194494 0.04696655 0.02542694
v -0.18360490 0.04295784 0.02382864
v -0.18557512 0.03651085 0.02081403
v -0.16478953 0.06750820 0.03885186
v -0.20034287 0.05152142 -0.01373465
v -0.17972399 0.05177059 0.02778490
v -0.16162703 -0.01526898 0.01149563
v -0.17168526 -0.00651187 0.01090655
v -0.17718330 0.00067948 0.01149363
v -0.18392447 0.01287517 0.01361848
v -0.16867525 -0.01539750 0.00822850
v -0.18096959 0.00712875 0.01253291
v -0.18585215 0.02214078 0.01593712
v -0.18492915 0.01689518 0.01451875
v -0.18625150 0.02937484 0.01808736
v -0.18198881 -0.00225105 0.00970488
v -0.18560299 -0.00324547 0.00477216
v -0.19225987 0.00510275 -0.00170082
v -0.19170301 0.00291300 -0.00566300
v -0.19231725 0.00252214 -0.01447752
v -0.19670596 0.01347811 -0.00471281
v -0.19658043 0.01072379 -0.01328711
v -0.19799161 0.01486129 -0.01589371
v -0.20112653 0.03084177 -0.01911663
v -0.20185732 0.03079420 -0.01473914
v -0.19252484 0.02034430 0.01412558
f 4 3 93
f 94 4 93
f 93 54 94
f 55 94 54
f 53 94 55
f 51 94 53
f 51 48 94
f 44 48 51
f 47 44 51
f 47 51 49
f 43 47 49
f 43 49 46
f 46 49 54
f 46 54 90
f 90 54 91
f 90 91 89
f 89 91 2
f 91 92 2
f 92 54 2
f 54 1 2
f 54 12 1
f 3 12 54
f 90 89 87
f 52 90 87
f 52 87 63
f 88 63 87
f 63 88 89
f 61 52 63
f 86 61 63
f 59 61 86
f 60 59 86
f 60 86 80
f 80 86 63
f 60 80 85
f 95 60 85
f 79 95 85
f 83 95 79
f 82 95 83
f 84 95 82
f 58 95 84
f 58 57 95
f 57 50 95
f 95 50 52
f 95 52 61
f 95 61 59
f 50 46 52
f 46 50 57
f 45 46 57
f 41 45 57
f 40 41 57
f 42 40 57
f 42 35 40
f 32 35 42
f 31 32 42
f 31 25 32
f 25 27 32
f 27 26 32
f 32 26 34
f 26 28 34
f 28 30 34
f 34 30 37
f 34 37 36
f 36 37 35
f 35 37 39
f 37 44 39
f 34 36 35
f 30 7 37
f 7 8 37
f 37 8 6
f 37 6 48
f 6 74 48
f 48 74 4
f 13 4 74
f 5 13 74
f 6 5 74
f 30 10 7
f 26 10 30
f 26 9 10
f 11 9 26
f 22 11 26
f 24 22 26
f 24 26 25
f 29 24 25
f 29 25 33
f 29 33 62
f 33 31 62
f 20 29 62
f 20 62 56
f 20 56 38
f 38 21 20
f 21 19 20
f 20 19 17
f 17 24 20
f 20 24 23
f 20 23 29
f 17 16 24
f 16 15 24
f 19 18 17
f 23 24 29
f 15 22 24
f 15 14 22
f 22 14 11
f 26 30 28
f 25 26 27
f 33 25 31
f 32 34 35
f 35 39 40
f 39 47 40
f 40 47 41
f 41 46 45
f 58 42 57
f 68 42 58
f 68 58 75
f 70 75 58
f 69 75 70
f 70 58 71
f 58 72 71
f 31 42 68
f 67 31 68
f 73 31 67
f 73 67 66
f 65 73 66
f 64 73 65
f 62 73 64
f 56 62 64
f 73 62 31
f 72 58 84
f 72 84 82
f 72 82 83
f 81 79 85
f 78 81 85
f 78 85 77
f 76 77 85
f 95 59 60
f 87 89 88
f 54 92 91
f 46 90 52
f 41 43 46
f 41 47 43
f 39 44 47
f 37 48 44
f 51 53 49
f 49 53 55
f 49 55 54
f 48 4 94
f 93 3 54

