v 0.0804489875 -0.406297125 -0.0802509625
v 0.0784289625 -0.395313875 -0.0902446875
v 0.093798375 -0.410793 -0.075552825
v 0.065172875 -0.390547 -0.094685925
v 0.0926712375 -0.422935 -0.0636806875
v 0.100268885937 -0.395077171875 -0.08944996875
v 0.08454843125 -0.37959078125 -0.104208732813
v 0.103745015625 -0.380890453125 -0.101873142188
v 0.046469625 -0.376111875 -0.10768725
v 0.062728575 -0.379537625 -0.1046972
v 0.0877777375 -0.36532375 -0.11670096875
v 0.068493978125 -0.3638233125 -0.118824171875
v 0.091458475 -0.434461625 -0.0514471
v 0.11121075 -0.42352875 -0.0610247875
v 0.107163496875 -0.36662725 -0.114227282812
v 0.049312403125 -0.3621034375 -0.120685125
v 0.02740784875 -0.374069875 -0.10922425
v 0.1171945 -0.41196625 -0.0716078875
v 0.119397782812 -0.396178359375 -0.0863117640625
v 0.123075859375 -0.381985765625 -0.0987713390625
v 0.126640484375 -0.367669640625 -0.11118309375
v 0.0908514296875 -0.35117871875 -0.1294260625
v 0.071454190625 -0.349887609375 -0.13182675
v 0.008292955 -0.37169525 -0.110541375
v 0.11035930625 -0.352323609375 -0.126709671875
v -0.00810111625 -0.367778875 -0.11328275
v 0.0521660671875 -0.34839190625 -0.13394759375
v 0.0301583920313 -0.36016925 -0.122383765625
v 0.129990640625 -0.35326209375 -0.123535140625
v 0.0938021390625 -0.33731465625 -0.142522
v 0.0110073489063 -0.357852 -0.123812390625
v -0.0108855025 -0.35670225 -0.123569
v 0.142302125 -0.3826705 -0.094856425
v 0.147865 -0.37011625 -0.10494005
v 0.113381429687 -0.3380440625 -0.13934221875
v -0.0245627025 -0.351327 -0.127907625
v 0.032944915625 -0.346591125 -0.13580934375
v 0.0137627439062 -0.344481484375 -0.13748075
v 0.138183125 -0.39687375 -0.081926475
v 0.133069921875 -0.338781875 -0.135911453125
v 0.0743264109375 -0.3365335625 -0.145412734375
v 0.131853 -0.409086625 -0.0707188
v 0.1528055625 -0.339209109375 -0.13191509375
v 0.149595578125 -0.353831 -0.11966103125
v 0.0966514625 -0.32422325 -0.156393875
v -0.005396725625 -0.342187421875 -0.13904503125
v 0.16251375 -0.36649 -0.1029075
v 0.168858875 -0.35384 -0.114551375
v 0.11631445 -0.3241735 -0.152464125
v 0.0357007125 -0.3344431875 -0.15035890625
v 0.0165135643156 -0.332851796875 -0.152446875
v -0.027268625 -0.34076625 -0.138801
v 0.0549688109375 -0.335603515625 -0.14800653125
v 0.17237275 -0.3392365 -0.127260125
v 0.13610175 -0.32433225 -0.148336375
v -0.0600889625 -0.333069375 -0.14516575
v -0.043662725 -0.336686125 -0.141811625
v -0.00264361254375 -0.33118825 -0.15450028125
v 0.15379725 -0.3227295 -0.14624825
v 0.0771004125 -0.324583875 -0.160224375
v 0.06045565 -0.32411425 -0.165521125
v -0.0217896434969 -0.3295738125 -0.15659328125
v -0.0409124 -0.327859640625 -0.158663390625
v 0.158335375 -0.3788485 -0.08450315
v 0.177454375 -0.326178125 -0.137130125
v 0.178573875 -0.3094335 -0.151332125
v 0.0384418015625 -0.325637875 -0.166996859375
v -0.0600233125 -0.325931 -0.160657125
v 0.165313375 -0.36816725 -0.0920498875
v 0.16105425 -0.31196925 -0.154575625
v 0.192001375 -0.32173375 -0.134855125
v 0.19460025 -0.310382 -0.143937125
v 0.019239580425 -0.325431875 -0.169753859375
v 6.080755e-05 -0.3249174375 -0.172311640625
v 0.0219921007219 -0.321812109375 -0.188438046875
v 0.04396405 -0.320337375 -0.18735275
v 0.05768615 -0.320217375 -0.180096625
v 0.104937275 -0.4336855 -0.0497195375
v 0.2970425 -0.178715375 -0.193229
v -0.01910909145 -0.32435740625 -0.17481275
v 0.024781275 -0.31933925 -0.207397375
v -0.03827368125 -0.32369896875 -0.177267296875
v 0.164286625 -0.360607 -0.079782275
v 0.29753825 -0.17291925 -0.180892
v 0.1872465 -0.3352425 -0.1108781375
v 0.00274453401875 -0.322213671875 -0.19124271875
v 0.0412609125 -0.318483 -0.202327125
v -0.0574109875 -0.32255075 -0.179550375
v 0.2891085 -0.1935385 -0.18846
v 0.27963375 -0.2088865 -0.180668375
v 0.157554625 -0.37152725 -0.0727481875
v -0.0164702602156 -0.322185875 -0.19389765625
v 0.0082518825 -0.319782375 -0.212346
v -0.054922125 -0.320854125 -0.198781375
v 0.288668375 -0.18453425 -0.17209275
v 0.184643 -0.327154125 -0.099100075
v 0.191943875 -0.3126335 -0.1044653875
v 0.196276375 -0.323677875 -0.11992775
v -0.0356925078125 -0.32174178125 -0.1964245
v -0.01380952625 -0.32026990625 -0.21302875
v -0.0331314875 -0.31996925 -0.2156009375
v -0.101960725 -0.2984375 -0.256396875
v 0.0054945325 -0.317571375 -0.227239625
v 0.20580225 -0.308692625 -0.127929375
v -0.0551516875 -0.319316625 -0.215873375
v -0.0689299375 -0.317024375 -0.22210875
v 0.200826875 -0.29751775 -0.112691
v 0.209559125 -0.285784375 -0.121581125
v -0.0111184675 -0.31716475 -0.231972875
v 0.212797 -0.29405125 -0.13377525
v -0.03048885 -0.3166565 -0.234526375
v 0.2775405 -0.198553125 -0.164871
v 0.25812675 -0.23742125 -0.165336125
v 0.26912975 -0.22337575 -0.17293875
v -0.0878398875 -0.30166875 -0.255428
v 0.23254675 -0.25278 -0.138623625
v 0.265948625 -0.2122775 -0.157566
v -0.0498048 -0.3152235 -0.2367735
v -0.0669758375 -0.313880125 -0.236168625
v -0.09015895 -0.30818 -0.242707875
v 0.254000625 -0.225835375 -0.1504145
v 0.24233175 -0.239465625 -0.143084875
v 0.2356615 -0.2612815 -0.149893625
v -0.1043385375 -0.30489975 -0.24369425
v 0.246585375 -0.251028 -0.158046375
v 0.0907205125 -0.39443125 -0.0906005125
v 0.0984708375 -0.4021383125 -0.0831529625
v 0.08714945 -0.40857 -0.0779327
v 0.0794209 -0.4008245 -0.08526495
v 0.06396475 -0.385057 -0.0996963
v 0.075005225 -0.3788183125 -0.1051788375
v 0.08290751875 -0.3866668125 -0.09791049375
v 0.07183695 -0.392927 -0.0924602
v 0.0941265 -0.3802713125 -0.10311964375
v 0.10201895625 -0.387994375 -0.0956825375
v 0.10985425625 -0.3956721875 -0.0880390375
v 0.11741306875 -0.40317675 -0.0799739
v 0.1060373875 -0.4096645625 -0.0753894
v 0.1133675 -0.4170095 -0.06749885
v 0.10194099375 -0.423231875 -0.0623527375
v 0.09467185 -0.416116 -0.070354
v 0.1089275 -0.4293755 -0.0544309
v 0.0976596 -0.4355945 -0.04889305
v 0.0906979 -0.429646 -0.05687735
v 0.1134095625 -0.38147875 -0.1004308
v 0.1212678125 -0.3891066875 -0.09256273125
v 0.06699479375 -0.3708893125 -0.11243275
v 0.0781225125 -0.364599625 -0.1178003125
v 0.08617735625 -0.3724603125 -0.1104501875
v 0.0974569875 -0.366001875 -0.1155195625
v 0.10547103125 -0.3737659375 -0.10804425625
v 0.1169005 -0.367193125 -0.11279531875
v 0.124874625 -0.374839625 -0.104982125
v 0.028779630625 -0.3671061875 -0.1157931875
v 0.0397342125 -0.361175625 -0.121562125
v 0.04788949375 -0.3690908125 -0.114171375
v 0.03694595 -0.375124 -0.1084745
v 0.0588948 -0.362988625 -0.119779125
v 0.05598035 -0.3770695 -0.1068945
v 0.06998244375 -0.3568139375 -0.1252796875
v 0.08113896875 -0.350553625 -0.1306624375
v 0.08933301875 -0.3582294375 -0.1230271875
v 0.10058985 -0.3517715 -0.1281153125
v 0.10878890625 -0.3594808125 -0.120453625
v 0.05074139375 -0.3551834375 -0.127258125
v 0.06179881875 -0.3491720625 -0.1329213125
v 0.120164875 -0.3528266875 -0.125188625
v 0.1283498125 -0.3604771875 -0.11736225
v 0.0315511125 -0.3532858125 -0.129017625
v 0.04254915 -0.3475320625 -0.1349070625
v 0.00964663875 -0.364749625 -0.1171565625
v 0.020583105625 -0.359048375 -0.1231236875
v 0.017853845 -0.3729135 -0.1099045
v 0.128820625 -0.39655775 -0.08421219375
v 0.1358915 -0.403917 -0.0751677
v 0.1244885 -0.4105475 -0.0711067
v 0.132699625 -0.3823610625 -0.09687348125
v 0.140307 -0.389792 -0.0884682
v 0.1363559375 -0.3680269375 -0.10935003125
v 0.1442075 -0.375508 -0.1011547
v 0.1398206875 -0.3536111875 -0.1217321875
v 0.14779025 -0.3610556875 -0.1133606875
v 0.07290321875 -0.34307075 -0.1384928125
v 0.0840502125 -0.3369374375 -0.144005625
v 0.0923412 -0.3441729375 -0.1358948125
v 0.10357846875 -0.3376779375 -0.140962625
v 0.11188674375 -0.345152625 -0.1329818125
v 0.053576025 -0.3417899375 -0.14081075
v 0.06463445625 -0.3360903125 -0.1467425625
v -0.00949166 -0.36225 -0.118426
v 0.0014301175 -0.356619125 -0.124480375
v -0.001265805 -0.3704555 -0.111161
v 0.12321325 -0.3384298125 -0.1376755
v 0.131551 -0.3460241875 -0.1297173125
v 0.034326925 -0.3402204375 -0.1428735
v 0.0453239375 -0.335069 -0.1492160625
v 0.012382111875 -0.351050375 -0.1305495
v 0.0233502125 -0.3455676875 -0.1366640625
v 0.1429474375 -0.3390469375 -0.1339990625
v 0.1512450625 -0.3465410625 -0.1258234375
v 0.07572065 -0.33044625 -0.152721375
v 0.08685935 -0.3243915 -0.1583425
v 0.09523405625 -0.3307064375 -0.1493961875
v 0.1064673 -0.3241595 -0.154445
v 0.114853575 -0.331074125 -0.1458630625
v -0.00677701625 -0.34861475 -0.1319625
v 0.004180213125 -0.34335225 -0.1382689375
v -0.0259169 -0.346053 -0.1333405
v -0.014967418125 -0.3409944375 -0.1398254375
v -0.01773071 -0.353969 -0.12569
v 0.159255875 -0.3538785625 -0.1172029375
v 0.1666085 -0.361075 -0.1074985
v 0.1551165 -0.368307 -0.1037895
v 0.1262005 -0.3242385 -0.1504195
v 0.1345864375 -0.3315535625 -0.14212025
v 0.01514106125 -0.3382820625 -0.144719
v 0.0261000125 -0.3336825 -0.1514228125
v -0.00401645125 -0.3362346875 -0.146507875
v 0.0069330947625 -0.3320159375 -0.1534701875
v 0.1459945 -0.3244325 -0.14624
v 0.1543439375 -0.331858375 -0.1380031875
v 0.05634196875 -0.330058625 -0.155693875
v 0.0673841 -0.32472 -0.161973
v 0.165726 -0.324510375 -0.1418615625
v 0.17398 -0.331853 -0.1334175
v 0.1626040625 -0.3392525 -0.1296363125
v 0.170723 -0.346563 -0.121055
v -0.02315575125 -0.334148375 -0.1483229375
v -0.0122187739875 -0.3303820625 -0.1555446875
v 0.0178767535125 -0.328590375 -0.160847
v 0.028835675 -0.3255849375 -0.168409375
v 0.03706985 -0.3295288125 -0.158414375
v 0.04806305625 -0.3255738125 -0.1654988125
v -0.001285628925 -0.3274798125 -0.1631715
v 0.0096484217 -0.3251955625 -0.1710478125
v -0.04227875 -0.3319039375 -0.1500951875
v -0.031353475 -0.3287399375 -0.1576359375
v -0.0340932 -0.338086 -0.1411015
v -0.05046855 -0.326912125 -0.159666375
v -0.0532493 -0.3352405 -0.142501
v -0.06141775 -0.329493 -0.151802
v -0.0204417652375 -0.326417375 -0.1654984375
v -0.0095246533 -0.3246389375 -0.17356575
v 0.1688405 -0.3098815 -0.1541815
v 0.1769821875 -0.31688525 -0.1452844375
v 0.1574285 -0.3174135 -0.150479
v 0.03982403125 -0.3229309375 -0.1760633125
v 0.0508213 -0.3201205 -0.183689
v 0.0590603 -0.322081 -0.1728015
v -0.0395813 -0.325291125 -0.167800875
v -0.0286936375 -0.3240701875 -0.17605525
v -0.0586933 -0.323803 -0.1699785
v -0.0478446125 -0.3231654375 -0.1784229375
v 0.1659425 -0.362587 -0.08713115
v 0.16077 -0.364827 -0.07426335
v 0.1568025 -0.376988 -0.0774106
v 0.161975 -0.374748 -0.0902784
v 0.188041 -0.3089085 -0.148063
v 0.19561 -0.3159295 -0.1385175
v 0.1847055 -0.3239775 -0.136001
v 0.0206109966375 -0.323310375 -0.1790019375
v 0.03160563125 -0.3214596875 -0.186961375
v 0.001399004825 -0.3233091875 -0.1817108125
v 0.0123676716375 -0.32206525 -0.1898625625
v -0.0177885971125 -0.32307225 -0.1843105625
v -0.0068651221125 -0.3222519375 -0.1925863125
v 0.00411296625 -0.3211895 -0.2007810625
v 0.01514195 -0.319848 -0.208885
v 0.02338399125 -0.3205233125 -0.197909
v 0.03440235 -0.318671 -0.2058585
v 0.0426127 -0.319415 -0.194862
v -0.036977775 -0.32258375 -0.1868223125
v -0.02607984375 -0.3220213125 -0.1951810625
v -0.05615965 -0.321616 -0.189157
v -0.0453068875 -0.3213308125 -0.1976159375
v 0.194110125 -0.3181556875 -0.11219656875
v 0.187538 -0.3201705 -0.10028105
v 0.184776 -0.333058 -0.10395505
v 0.191364 -0.331068 -0.1159015
v -0.01514405875 -0.32132225 -0.2034798125
v -0.00415589875 -0.32023125 -0.2116855
v -0.03441680625 -0.320969375 -0.2060324375
v -0.02347145625 -0.320193375 -0.2143385
v -0.01246619625 -0.318817375 -0.2225161875
v -0.00142777 -0.317202 -0.2306275
v 0.00687858 -0.3187275 -0.219805
v -0.04277941875 -0.319565125 -0.21680225
v -0.05368125 -0.3201205 -0.2084065
v 0.2011315 -0.3162155 -0.1238595
v 0.2033145625 -0.3031051875 -0.1203101875
v 0.1963435 -0.3050695 -0.1086205
v -0.03181736875 -0.318444125 -0.2250848125
v -0.0208077 -0.317005 -0.23328
v -0.0511175875 -0.317237625 -0.2273791875
v -0.0401553 -0.316053 -0.2356895
v 0.2122965 -0.288034 -0.128739
v 0.205484 -0.2900175 -0.1166215
v 0.2101615 -0.301121 -0.13237
v -0.07035665 -0.3151795 -0.229384
v -0.0594351 -0.314197 -0.2377825
v -0.0620481 -0.318344 -0.219023
v 0.293608 -0.185631 -0.19236
v 0.298476 -0.1739205 -0.188036
v 0.293859 -0.1773845 -0.175908
v 0.2888884375 -0.189036375 -0.180276375
v 0.2406585 -0.257709 -0.1544565
v 0.2444585625 -0.2452468125 -0.150565625
v 0.2364575 -0.246271 -0.1394525
v 0.2326195 -0.258711 -0.14336
v -0.105508 -0.301126 -0.2502085
v -0.0945089 -0.298972 -0.258031
v -0.08664105 -0.305467 -0.248905
v -0.09764015 -0.307621 -0.2410825
v 0.263688 -0.23045 -0.1691075
v 0.2675391875 -0.217826625 -0.165252375
v 0.259975 -0.21906 -0.153991
v 0.2560636875 -0.2316283125 -0.1578753125
v 0.252417 -0.244273 -0.161661
v 0.2481495 -0.2326455 -0.146759
v 0.274481 -0.216215 -0.1767935
v 0.278587125 -0.2037198125 -0.1727696875
v 0.2717975 -0.205446 -0.161217
v 0.28448 -0.201309 -0.18456
v 0.2831965 -0.1915865 -0.168455
v 0.088948475 -0.40150075 -0.084277175
v 0.0734242 -0.385884 -0.0988306
v 0.092438575 -0.38736125 -0.096881575
v 0.107982775 -0.4026985 -0.081755875
v 0.104019675 -0.41656275 -0.068926425
v 0.0998127 -0.42951075 -0.055654125
v 0.11165025 -0.38859325 -0.094252075
v 0.0765738 -0.37170725 -0.11148275
v 0.095808125 -0.373142 -0.109314
v 0.115171 -0.37434575 -0.106611025
v 0.0383373 -0.36813525 -0.11500625
v 0.057437675 -0.370013 -0.11332125
v 0.07964395 -0.35754425 -0.1241895
v 0.099046625 -0.3588795 -0.12179125
v 0.060351525 -0.3560285 -0.12629925
v 0.118564 -0.36001975 -0.11898625
v 0.04114225 -0.35427425 -0.12816625
v 0.0192150225 -0.3659635 -0.1164995
v 0.1266905 -0.4035685 -0.077695025
v 0.130807 -0.3894835 -0.09058705
v 0.1345485 -0.37520575 -0.103125375
v 0.13812425 -0.360834 -0.11555475
v 0.082608425 -0.34364025 -0.13723125
v 0.102099475 -0.3446745 -0.134478
v 0.06322765 -0.34245875 -0.139685
v 7.76425e-05 -0.363507 -0.11779575
v 0.1217065 -0.345615 -0.13140725
v 0.04394265 -0.34105 -0.141873
v 0.021965 -0.352203 -0.12980625
v 0.1414125 -0.34634275 -0.127875
v 0.085462225 -0.3305785 -0.15109525
v 0.1050298 -0.33087125 -0.1476525
v 0.0028006475 -0.3498525 -0.13126475
v -0.0163485025 -0.3473425 -0.13265325
v 0.15725075 -0.36110775 -0.110577
v 0.1247095 -0.33131625 -0.14402675
v 0.02472825 -0.33928275 -0.143814
v 0.005559795 -0.3372635 -0.145613
v 0.14447325 -0.331742 -0.14012025
v 0.066015675 -0.3302685 -0.15424625
v 0.1641725 -0.3318795 -0.1357455
v 0.16100275 -0.3465895 -0.12350575
v -0.01358858 -0.33520325 -0.1474155
v 0.0274664 -0.32910125 -0.15965725
v 0.0466942 -0.32983 -0.15708825
v 0.00829381405 -0.32803925 -0.16201375
v -0.032717125 -0.33304925 -0.14921725
v -0.051846675 -0.3307105 -0.1509535
v -0.01086478595 -0.326944 -0.16433425
v 0.1672825 -0.317185 -0.14801275
v 0.049440125 -0.32254125 -0.174457
v -0.030014675 -0.3258855 -0.1666605
v -0.049139425 -0.324577 -0.1689
v 0.1613725 -0.3697875 -0.082270875
v 0.18637325 -0.316443 -0.142032
v 0.0302161 -0.3231795 -0.17757125
v 0.01100338655 -0.323347 -0.1803765
v -0.00819641345 -0.32321675 -0.18302075
v 0.01375024 -0.320922 -0.19936875
v 0.033002225 -0.32000025 -0.19639825
v -0.027383275 -0.32287825 -0.1855845
v -0.046569425 -0.32213775 -0.18800375
v 0.189451 -0.32561925 -0.108091275
v -0.005515835 -0.321319 -0.2021495
v -0.0247796 -0.321211 -0.20477775
v -0.00279266 -0.318802 -0.2211695
v -0.044050025 -0.3205815 -0.207233
v 0.1987375 -0.3106425 -0.11624
v -0.022144325 -0.3187145 -0.22382725
v -0.04147565 -0.317957 -0.226271
v 0.20782275 -0.29556925 -0.12449575
v -0.0607416 -0.3162705 -0.22840275
v 0.2937335 -0.18150775 -0.184134
v 0.238558 -0.25199 -0.1469545
v -0.096074525 -0.3032965 -0.24955675
v 0.2618315 -0.224755 -0.16154925
v 0.25028325 -0.23845925 -0.15421
v 0.27313925 -0.2108305 -0.16900525
v 0.28383825 -0.19644775 -0.1765075
f 2 126 325 129
f 6 127 325 126
f 3 128 325 127
f 1 129 325 128
f 4 130 326 133
f 10 131 326 130
f 7 132 326 131
f 2 133 326 132
f 7 134 327 132
f 8 135 327 134
f 6 126 327 135
f 2 132 327 126
f 6 136 328 127
f 19 137 328 136
f 18 138 328 137
f 3 127 328 138
f 18 139 329 138
f 14 140 329 139
f 5 141 329 140
f 3 138 329 141
f 14 142 330 140
f 78 143 330 142
f 13 144 330 143
f 5 140 330 144
f 8 145 331 135
f 20 146 331 145
f 19 136 331 146
f 6 135 331 136
f 10 147 332 131
f 12 148 332 147
f 11 149 332 148
f 7 131 332 149
f 11 150 333 149
f 15 151 333 150
f 8 134 333 151
f 7 149 333 134
f 15 152 334 151
f 21 153 334 152
f 20 145 334 153
f 8 151 334 145
f 17 154 335 157
f 28 155 335 154
f 16 156 335 155
f 9 157 335 156
f 16 158 336 156
f 12 147 336 158
f 10 159 336 147
f 9 156 336 159
f 12 160 337 148
f 23 161 337 160
f 22 162 337 161
f 11 148 337 162
f 22 163 338 162
f 25 164 338 163
f 15 150 338 164
f 11 162 338 150
f 16 165 339 158
f 27 166 339 165
f 23 160 339 166
f 12 158 339 160
f 25 167 340 164
f 29 168 340 167
f 21 152 340 168
f 15 164 340 152
f 28 169 341 155
f 37 170 341 169
f 27 165 341 170
f 16 155 341 165
f 24 171 342 173
f 31 172 342 171
f 28 154 342 172
f 17 173 342 154
f 19 174 343 137
f 39 175 343 174
f 42 176 343 175
f 18 137 343 176
f 20 177 344 146
f 33 178 344 177
f 39 174 344 178
f 19 146 344 174
f 21 179 345 153
f 34 180 345 179
f 33 177 345 180
f 20 153 345 177
f 29 181 346 168
f 44 182 346 181
f 34 179 346 182
f 21 168 346 179
f 23 183 347 161
f 41 184 347 183
f 30 185 347 184
f 22 161 347 185
f 30 186 348 185
f 35 187 348 186
f 25 163 348 187
f 22 185 348 163
f 27 188 349 166
f 53 189 349 188
f 41 183 349 189
f 23 166 349 183
f 26 190 350 192
f 32 191 350 190
f 31 171 350 191
f 24 192 350 171
f 35 193 351 187
f 40 194 351 193
f 29 167 351 194
f 25 187 351 167
f 37 195 352 170
f 50 196 352 195
f 53 188 352 196
f 27 170 352 188
f 31 197 353 172
f 38 198 353 197
f 37 169 353 198
f 28 172 353 169
f 40 199 354 194
f 43 200 354 199
f 44 181 354 200
f 29 194 354 181
f 41 201 355 184
f 60 202 355 201
f 45 203 355 202
f 30 184 355 203
f 45 204 356 203
f 49 205 356 204
f 35 186 356 205
f 30 203 356 186
f 32 206 357 191
f 46 207 357 206
f 38 197 357 207
f 31 191 357 197
f 36 208 358 210
f 52 209 358 208
f 46 206 358 209
f 32 210 358 206
f 44 211 359 182
f 48 212 359 211
f 47 213 359 212
f 34 182 359 213
f 49 214 360 205
f 55 215 360 214
f 40 193 360 215
f 35 205 360 193
f 38 216 361 198
f 51 217 361 216
f 50 195 361 217
f 37 198 361 195
f 46 218 362 207
f 58 219 362 218
f 51 216 362 219
f 38 207 362 216
f 55 220 363 215
f 59 221 363 220
f 43 199 363 221
f 40 215 363 199
f 53 222 364 189
f 61 223 364 222
f 60 201 364 223
f 41 189 364 201
f 59 224 365 221
f 65 225 365 224
f 54 226 365 225
f 43 221 365 226
f 54 227 366 226
f 48 211 366 227
f 44 200 366 211
f 43 226 366 200
f 52 228 367 209
f 62 229 367 228
f 58 218 367 229
f 46 209 367 218
f 51 230 368 217
f 73 231 368 230
f 67 232 368 231
f 50 217 368 232
f 67 233 369 232
f 61 222 369 233
f 53 196 369 222
f 50 232 369 196
f 58 234 370 219
f 74 235 370 234
f 73 230 370 235
f 51 219 370 230
f 57 236 371 238
f 63 237 371 236
f 62 228 371 237
f 52 238 371 228
f 68 239 372 241
f 63 236 372 239
f 57 240 372 236
f 56 241 372 240
f 62 242 373 229
f 80 243 373 242
f 74 234 373 243
f 58 229 373 234
f 70 244 374 246
f 66 245 374 244
f 65 224 374 245
f 59 246 374 224
f 67 247 375 233
f 76 248 375 247
f 77 249 375 248
f 61 233 375 249
f 63 250 376 237
f 82 251 376 250
f 80 242 376 251
f 62 237 376 242
f 68 252 377 239
f 88 253 377 252
f 82 250 377 253
f 63 239 377 250
f 69 254 378 257
f 83 255 378 254
f 91 256 378 255
f 64 257 378 256
f 66 258 379 245
f 72 259 379 258
f 71 260 379 259
f 65 245 379 260
f 73 261 380 231
f 75 262 380 261
f 76 247 380 262
f 67 231 380 247
f 74 263 381 235
f 86 264 381 263
f 75 261 381 264
f 73 235 381 261
f 80 265 382 243
f 92 266 382 265
f 86 263 382 266
f 74 243 382 263
f 86 267 383 264
f 93 268 383 267
f 81 269 383 268
f 75 264 383 269
f 81 270 384 269
f 87 271 384 270
f 76 262 384 271
f 75 269 384 262
f 82 272 385 251
f 99 273 385 272
f 92 265 385 273
f 80 251 385 265
f 88 274 386 253
f 94 275 386 274
f 99 272 386 275
f 82 253 386 272
f 98 276 387 279
f 97 277 387 276
f 96 278 387 277
f 85 279 387 278
f 92 280 388 266
f 100 281 388 280
f 93 267 388 281
f 86 266 388 267
f 99 282 389 273
f 101 283 389 282
f 100 280 389 283
f 92 273 389 280
f 100 284 390 281
f 109 285 390 284
f 103 286 390 285
f 93 281 390 286
f 105 287 391 288
f 101 282 391 287
f 99 275 391 282
f 94 288 391 275
f 98 289 392 276
f 104 290 392 289
f 107 291 392 290
f 97 276 392 291
f 101 292 393 283
f 111 293 393 292
f 109 284 393 293
f 100 283 393 284
f 105 294 394 287
f 118 295 394 294
f 111 292 394 295
f 101 287 394 292
f 110 296 395 298
f 108 297 395 296
f 107 290 395 297
f 104 298 395 290
f 106 299 396 301
f 119 300 396 299
f 118 294 396 300
f 105 301 396 294
f 89 302 397 305
f 79 303 397 302
f 84 304 397 303
f 95 305 397 304
f 123 306 398 309
f 125 307 398 306
f 122 308 398 307
f 116 309 398 308
f 124 310 399 313
f 102 311 399 310
f 115 312 399 311
f 120 313 399 312
f 113 314 400 317
f 114 315 400 314
f 117 316 400 315
f 121 317 400 316
f 122 307 401 319
f 125 318 401 307
f 113 317 401 318
f 121 319 401 317
f 114 320 402 315
f 90 321 402 320
f 112 322 402 321
f 117 315 402 322
f 90 323 403 321
f 89 305 403 323
f 95 324 403 305
f 112 321 403 324
