v -0.208361 -0.099159 -0.0154329
v -0.220936 -0.0881011 -0.0183262
v -0.228787 -0.0820383 -0.0116024
v -0.315636 -0.157446 -0.156125
v -0.236823 -0.0761165 -0.00489977
v -0.248269 -0.0638689 -0.00805655
v -0.252686 -0.058207 -0.0180931
v -0.240963 -0.0703764 -0.0148501
v -0.233103 -0.0764306 -0.0215382
v -0.245125 -0.0644918 -0.0247733
v -0.249503 -0.0587758 -0.0346284
v -0.23758 -0.0708348 -0.0313969
v -0.255168 -0.0542755 -0.0446326
v -0.256818 -0.0523816 -0.0279971
v -0.262749 -0.0483843 -0.0380396
v -0.268774 -0.0453009 -0.047951
v -0.261981 -0.0517424 -0.0545164
v -0.269812 -0.050783 -0.0640065
v -0.271427 -0.0580183 -0.0796265
v -0.278702 -0.05139 -0.0723764
v -0.25656 -0.065648 -0.0765148
v -0.26274 -0.0573512 -0.0708773
v -0.251651 -0.0750322 -0.0806268
v -0.258965 -0.07554 -0.0902682
v -0.267641 -0.0772516 -0.0986893
v -0.274006 -0.0679048 -0.0936445
v -0.280895 -0.0605671 -0.0868042
v -0.287947 -0.0537824 -0.0796526
v -0.284318 -0.0721773 -0.098881
v -0.277699 -0.0807118 -0.104539
v -0.271921 -0.0904097 -0.108589
v -0.273951 -0.115348 -0.117047
v -0.278351 -0.104867 -0.115184
v -0.283099 -0.0952259 -0.111218
v -0.294309 -0.100268 -0.111884
v -0.298358 -0.0902964 -0.108095
v -0.295158 -0.077664 -0.102121
v -0.315546 -0.117204 -0.136636
v -0.303513 -0.10353 -0.115807
v -0.310346 -0.104492 -0.125802
v -0.305147 -0.0917806 -0.114968
v -0.308312 -0.116085 -0.12637
v -0.285362 -0.120263 -0.118245
v -0.296949 -0.125473 -0.117409
v -0.287764 -0.146529 -0.118995
v -0.296805 -0.150089 -0.125148
v -0.304329 -0.153292 -0.134973
v -0.316398 -0.104228 -0.135941
v -0.316831 -0.130221 -0.147448
v -0.319103 -0.116771 -0.14722
v -0.321375 -0.103321 -0.146992
v -0.313445 -0.143138 -0.146751
v -0.309255 -0.155139 -0.146175
v -0.319108 -0.144539 -0.157194
v -0.32256 -0.131187 -0.157695
v -0.31595 -0.0912138 -0.135362
v -0.317078 -0.0783119 -0.133973
v -0.322481 -0.0902805 -0.145897
v -0.214427 -0.0952966 -0.0251776
v -0.2258 -0.083044 -0.0282369
v -0.318881 -0.0775816 -0.144816
v -0.31071 -0.0541147 -0.131381
v -0.316772 -0.0655071 -0.132406
v -0.31209 -0.0534308 -0.12011
v -0.306191 -0.0540089 -0.109682
v -0.311741 -0.066202 -0.122048
v -0.299974 -0.0672058 -0.0997256
v -0.305972 -0.0667489 -0.111121
v -0.305746 -0.0792957 -0.113256
v -0.311772 -0.0790344 -0.123414
v -0.300355 -0.0544081 -0.099107
v -0.294989 -0.0544761 -0.0888234
v -0.276541 -0.044207 -0.0571483
v -0.250141 -0.0485387 -0.0141811
v -0.256637 -0.0433115 -0.0237047
v -0.263014 -0.0384623 -0.0337418
v -0.269031 -0.0351219 -0.0441267
v -0.274724 -0.032708 -0.0543904
v -0.282822 -0.0427436 -0.0671062
v -0.281135 -0.0305692 -0.0651427
v -0.287548 -0.0294745 -0.0760096
v -0.293737 -0.0289625 -0.0865953
v -0.297463 -0.0297122 -0.0978725
v -0.305615 -0.0429918 -0.119949
v -0.282101 -0.0193323 -0.0761834
v -0.277524 -0.0194883 -0.0642772
v -0.271708 -0.0212926 -0.0530462
v -0.288947 -0.0418481 -0.0776368
v -0.29445 -0.0417182 -0.0877713
v -0.300077 -0.04158 -0.0980055
v -0.306169 -0.0412971 -0.10825
v -0.301729 -0.139245 -0.125581
v -0.309293 -0.141683 -0.135724
v -0.305354 -0.127608 -0.126022
v -0.312575 -0.129464 -0.136244
v -0.311318 -0.0917989 -0.124674
v -0.300967 -0.11492 -0.116095
v -0.28967 -0.110091 -0.115513
v -0.280931 -0.130769 -0.1199
v -0.292543 -0.135889 -0.118692
v -0.262844 -0.0882603 -0.100447
v -0.245027 -0.0768934 -0.0716313
v -0.238954 -0.0796561 -0.0627246
v -0.232643 -0.0831928 -0.0536573
v -0.242594 -0.0695522 -0.0573864
v -0.236457 -0.0735683 -0.0479122
v -0.230938 -0.0781571 -0.0381395
v -0.248365 -0.0613726 -0.0511856
v -0.249367 -0.0668137 -0.067024
v -0.219842 -0.0908111 -0.0350238
v -0.203801 -0.107869 -0.0220148
v -0.21091 -0.104544 -0.0313027
v -0.226217 -0.0870383 -0.0446121
v -0.218641 -0.101392 -0.0402013
v -0.224375 -0.112364 -0.0381996
v -0.234257 -0.108519 -0.0443327
v -0.205583 -0.118619 -0.0237293
v -0.19679 -0.121224 -0.0157234
v -0.201128 -0.131545 -0.0139742
v -0.19211 -0.133717 -0.00582343
v -0.175232 -0.137131 0.0116488
v -0.159963 -0.139394 0.0305446
v -0.150373 -0.127873 0.0398168
v -0.156954 -0.127356 0.0295541
v -0.164056 -0.126812 0.0196698
v -0.180022 -0.1244 0.00150423
v -0.171771 -0.125746 0.01038
v -0.16962 -0.118096 0.024229
v -0.177001 -0.116942 0.0148571
v -0.146941 -0.117814 0.0525157
v -0.154595 -0.118494 0.0431168
v -0.139119 -0.116584 0.0617616
v -0.139267 -0.107793 0.0764608
v -0.147406 -0.109833 0.0676703
v -0.155485 -0.111522 0.0586633
v -0.155734 -0.103826 0.0741546
v -0.147478 -0.101117 0.0825382
v -0.242411 -0.0656016 -0.0412744
v -0.162156 -0.118803 0.0336311
v -0.153968 -0.139844 0.0410789
v -0.15591 -0.152134 0.0413621
v -0.162094 -0.151488 0.0308819
v -0.169016 -0.150959 0.0207986
v -0.167266 -0.138609 0.0208314
v -0.226714 -0.123947 -0.0393015
v -0.255143 -0.0585116 -0.0610053
v -0.264666 -0.0658955 -0.08595
v -0.18346 -0.135607 0.00270021
v -0.210136 -0.129344 -0.0221258
v -0.218971 -0.126997 -0.0304437
v -0.188181 -0.122973 -0.00734284
v -0.214788 -0.115571 -0.0312389
v -0.227799 -0.0980293 -0.0475455
v -0.287995 -0.0856996 -0.107166
v -0.29095 -0.0646183 -0.0924375
f 59 112 111 1
f 3 9 60 2
f 60 110 59 2
f 5 8 9 3
f 7 10 8 6
f 74 75 14 7
f 14 11 10 7
f 10 12 9 8
f 12 107 60 9
f 11 138 12 10
f 14 15 13 11
f 13 108 138 11
f 138 106 107 12
f 15 16 17 13
f 17 146 108 13
f 75 76 15 14
f 76 77 16 15
f 77 78 73 16
f 73 18 17 16
f 18 22 146 17
f 73 79 20 18
f 20 19 22 18
f 20 28 27 19
f 27 26 147 19
f 147 21 22 19
f 79 88 28 20
f 147 24 23 21
f 23 102 109 21
f 109 146 22 21
f 147 26 25 24
f 26 29 30 25
f 30 31 101 25
f 27 155 29 26
f 28 72 155 27
f 88 89 72 28
f 37 154 30 29
f 154 34 31 30
f 33 98 43 32
f 34 35 98 33
f 154 36 35 34
f 36 41 39 35
f 48 51 50 38
f 50 49 95 38
f 95 94 42 38
f 42 40 48 38
f 41 96 40 39
f 40 42 97 39
f 96 56 48 40
f 69 70 96 41
f 44 100 99 43
f 94 92 100 44
f 100 92 46 45
f 92 93 47 46
f 56 58 51 48
f 55 54 52 49
f 52 93 95 49
f 54 4 53 52
f 57 61 58 56
f 96 70 57 56
f 70 66 63 57
f 63 66 64 62
f 66 68 65 64
f 65 91 84 64
f 68 67 71 65
f 71 90 91 65
f 70 69 68 66
f 155 72 71 67
f 72 89 90 71
f 78 80 79 73
f 87 86 80 78
f 80 81 88 79
f 86 85 81 80
f 82 89 88 81
f 83 90 89 82
f 94 95 93 92
f 103 105 109 102
f 104 106 105 103
f 113 107 106 104
f 108 146 109 105
f 106 138 108 105
f 113 110 60 107
f 113 153 114 110
f 114 112 59 110
f 114 115 152 112
f 153 116 115 114
f 145 150 152 115
f 152 150 149 117
f 149 119 118 117
f 119 120 151 118
f 148 126 151 120
f 127 126 148 121
f 144 125 127 121
f 124 125 144 122
f 144 143 142 122
f 142 141 140 122
f 140 123 124 122
f 131 139 124 123
f 139 128 125 124
f 128 129 127 125
f 132 134 135 130
f 137 136 134 133
