v 0.167104 0.157765 0.0276962
v 0.231734 0.239384 -0.0664401
v 0.157247 0.232821 0.00923759
v 0.231066 0.24881 -0.0681422
v 0.229094 0.254286 -0.0638924
v 0.231031 0.235392 -0.0608765
v 0.229266 0.230887 -0.0557307
v 0.230316 0.244932 -0.062247
v 0.228477 0.226509 -0.0502858
v 0.224056 0.241691 -0.0474694
v 0.227054 0.236293 -0.0515215
v 0.228831 0.240767 -0.0567136
v 0.227975 0.250456 -0.0579893
v 0.219469 0.242355 -0.0382632
v 0.222377 0.237033 -0.0423355
v 0.225285 0.23171 -0.0464078
v 0.221615 0.24722 -0.0430401
v 0.226465 0.246356 -0.0523362
v 0.223828 0.255237 -0.0564529
v 0.226567 0.221707 -0.0454105
v 0.217624 0.237445 -0.0333701
v 0.220404 0.232143 -0.0375166
v 0.221029 0.221981 -0.0369504
v 0.223185 0.226841 -0.0416632
v 0.223539 0.251737 -0.0488292
v 0.228191 0.211837 -0.0441404
v 0.224302 0.216816 -0.0407736
v 0.215764 0.222232 -0.0282503
v 0.218221 0.227267 -0.0328172
v 0.218808 0.217083 -0.0322696
v 0.22202 0.211923 -0.0361344
v 0.215181 0.232414 -0.028796
v 0.223722 0.202047 -0.0347609
v 0.225946 0.206951 -0.0394593
v 0.219483 0.206978 -0.0317286
v 0.212149 0.237483 -0.0247722
v 0.206518 0.227419 -0.0160726
v 0.209788 0.22232 -0.0199813
v 0.213057 0.217221 -0.0238899
v 0.216327 0.212123 -0.0277986
v 0.209326 0.232416 -0.0204381
v 0.212593 0.227348 -0.0243118
v 0.206964 0.217292 -0.0157911
v 0.207402 0.207169 -0.0155601
v 0.210235 0.212192 -0.0196877
v 0.213507 0.207093 -0.0235843
v 0.200189 0.217621 -0.00791462
v 0.203551 0.222445 -0.0119257
v 0.203965 0.212331 -0.0117001
v 0.21067 0.202085 -0.019494
v 0.214562 0.197095 -0.0227635
v 0.21702 0.202041 -0.0272468
v 0.196902 0.212779 -0.0039118
v 0.200714 0.207481 -0.00770118
v 0.204525 0.202182 -0.0114906
v 0.18964 0.210937 0.000370214
v 0.193039 0.217668 -0.00075443
v 0.193504 0.206065 -0.00276232
v 0.161057 0.158852 0.0240564
v 0.170054 0.163497 0.0245651
v 0.184583 0.223122 -0.0109529
v 0.189904 0.224382 -0.00637221
v 0.163982 0.16457 0.0209055
v 0.188345 0.226053 -0.0164406
v 0.193529 0.227687 -0.0119154
v 0.19699 0.231204 -0.0173189
v 0.200447 0.234729 -0.0227239
v 0.186831 0.227239 -0.026402
v 0.191864 0.229402 -0.0218225
v 0.176873 0.222905 -0.0355823
v 0.178262 0.222052 -0.0256184
v 0.179468 0.221344 -0.0155374
v 0.203885 0.238245 -0.0281335
v 0.181839 0.225064 -0.0309878
v 0.183273 0.224066 -0.0210036
v 0.185366 0.228247 -0.0363814
v 0.19036 0.230436 -0.0317965
v 0.171946 0.220756 -0.0401851
v 0.173278 0.220016 -0.0302331
v 0.207207 0.241713 -0.0335677
v 0.210518 0.245199 -0.0389771
v 0.213829 0.248686 -0.0443864
v 0.154642 0.226293 -0.0203918
v 0.185363 0.199878 0.00756226
v 0.193713 0.233742 -0.0371726
v 0.197038 0.237214 -0.042585
v 0.200362 0.240686 -0.0479974
v 0.195328 0.232669 -0.0272189
v 0.198653 0.236142 -0.0326313
v 0.201978 0.239614 -0.0380437
v 0.205302 0.243086 -0.0434561
v 0.208627 0.246558 -0.0488685
v 0.217107 0.251975 -0.0499154
v 0.177136 0.227698 -0.0608005
v 0.178749 0.226881 -0.0508811
v 0.180362 0.226065 -0.0409616
v 0.183755 0.229155 -0.0463122
v 0.182126 0.230061 -0.0562421
v 0.187111 0.232448 -0.0516867
v 0.188749 0.231492 -0.0417507
v 0.192095 0.234836 -0.0471313
v 0.173625 0.2248 -0.0554151
v 0.175344 0.223811 -0.0455269
v 0.17639 0.195285 0.00799939
v 0.17882 0.201476 0.00530626
v 0.163495 0.220661 -0.0298159
v 0.182993 0.193589 0.0100745
v 0.212063 0.242858 -0.0300632
v 0.215331 0.246228 -0.0356704
v 0.218488 0.249113 -0.0416389
v 0.155433 0.229144 -0.0106758
v 0.193754 0.238927 -0.0625069
v 0.195407 0.23816 -0.052543
v 0.198712 0.241473 -0.0579607
v 0.20367 0.24402 -0.0534145
v 0.180624 0.230642 -0.0662132
v 0.166783 0.229926 0.00937727
v 0.220572 0.25478 -0.0556627
v 0.185548 0.233128 -0.0616537
v 0.188819 0.236406 -0.0670606
v 0.190462 0.235628 -0.0570936
v 0.192096 0.239692 -0.0724728
v 0.197045 0.242234 -0.0679295
v 0.201995 0.244776 -0.0633863
v 0.206944 0.247318 -0.058843
v 0.215143 0.253116 -0.0598362
v 0.162373 0.232761 0.0143762
v 0.180451 0.222834 0.00446358
v 0.173999 0.189065 0.0106246
v 0.180601 0.187335 0.0126553
v 0.183905 0.233904 -0.0716206
v 0.200269 0.245514 -0.0733803
v 0.203487 0.248799 -0.0788378
v 0.206705 0.252084 -0.0842952
v 0.205223 0.248052 -0.068831
v 0.208438 0.251339 -0.0742925
v 0.210163 0.250602 -0.0642989
v 0.211641 0.254631 -0.0797727
v 0.21336 0.253894 -0.069791
v 0.211889 0.249864 -0.0543055
v 0.216685 0.257027 -0.0753577
v 0.218504 0.256206 -0.0654177
v 0.222141 0.258776 -0.0711572
v 0.165178 0.226324 -0.0105985
v 0.169645 0.223841 -0.0154885
v 0.174113 0.221357 -0.0203786
v 0.170313 0.225276 -0.00555754
v 0.174781 0.222793 -0.0104476
v 0.175449 0.224229 -0.000516617
v 0.161954 0.230939 0.00431919
v 0.192082 0.244284 -0.0979054
v 0.187186 0.23711 -0.0770264
v 0.190358 0.24049 -0.0824518
v 0.201598 0.249848 -0.0887451
v 0.195283 0.243039 -0.0779091
v 0.198435 0.246453 -0.0833241
v 0.165886 0.227964 -0.000646072
v 0.171043 0.227023 0.00440594
v 0.168747 0.220919 -0.0249567
v 0.224244 0.257125 -0.0615012
v 0.182332 0.234451 -0.0815901
v 0.185552 0.237765 -0.0870224
v 0.188771 0.241078 -0.0924548
v 0.193555 0.243834 -0.0878809
v 0.196774 0.247148 -0.0933132
v 0.164291 0.223465 -0.020092
v 0.159925 0.226459 -0.0154337
v 0.175734 0.225129 0.00944806
v 0.160729 0.228906 -0.00569901
v 0.167987 0.218986 -0.0347713
v 0.159103 0.22357 -0.0251404
f 8 12 6 2
f 5 13 8 4
f 12 11 7 6
f 11 16 9 7
f 13 18 12 8
f 16 24 20 9
f 11 12 18 10
f 18 25 17 10
f 17 14 15 10
f 15 16 11 10
f 19 25 18 13
f 21 22 15 14
f 22 24 16 15
f 24 23 27 20
f 32 29 22 21
f 29 23 24 22
f 29 28 30 23
f 30 31 27 23
f 27 31 34 26
f 29 32 42 28
f 42 38 39 28
f 39 40 30 28
f 40 35 31 30
f 35 33 34 31
f 36 41 42 32
f 40 46 52 35
f 38 42 41 37
f 48 43 38 37
f 43 45 39 38
f 45 46 40 39
f 48 47 49 43
f 49 44 45 43
f 50 46 45 44
f 49 54 55 44
f 50 51 52 46
f 53 54 49 47
f 57 56 58 53
f 62 65 64 61
f 64 75 72 61
f 65 66 69 64
f 69 68 75 64
f 67 88 69 66
f 73 89 88 67
f 69 88 77 68
f 77 76 74 68
f 74 71 75 68
f 74 76 96 70
f 96 103 78 70
f 78 170 79 70
f 79 71 74 70
f 80 90 89 73
f 77 85 100 76
f 100 97 96 76
f 88 89 85 77
f 170 106 159 79
f 108 109 81 80
f 81 91 90 80
f 109 110 82 81
f 82 92 91 81
f 93 140 92 82
f 105 104 107 84
f 89 90 86 85
f 86 101 100 85
f 90 91 87 86
f 87 113 101 86
f 91 92 115 87
f 115 114 113 87
f 140 125 115 92
f 118 126 140 93
f 98 119 116 94
f 102 95 98 94
f 97 99 98 95
f 103 96 97 95
f 100 101 99 97
f 99 121 119 98
f 101 113 121 99
f 129 130 107 104
f 114 124 123 112
f 123 122 120 112
f 120 119 121 112
f 121 113 114 112
f 115 125 124 114
f 119 120 131 116
f 160 142 126 118
f 122 152 131 120
f 123 132 155 122
f 155 153 152 122
f 124 135 132 123
f 125 137 135 124
f 140 126 137 125
f 142 139 137 126
f 149 158 168 128
f 135 136 133 132
f 133 156 155 132
f 136 138 134 133
f 134 154 156 133
f 137 139 136 135
f 139 141 138 136
f 142 143 141 139
f 147 148 145 144
f 145 166 167 144
f 167 111 169 144
f 169 157 147 144
f 146 159 166 145
f 157 158 149 147
f 153 162 161 152
f 155 156 164 153
f 164 163 162 153
f 165 164 156 154
f 106 171 166 159
f 164 165 151 163
f 83 167 166 171
f 3 127 117 150
f 59 1 60 63
