v 0.138632 -0.211298 -0.21099
v 0.134533 -0.208136 -0.200269
v 0.146899 -0.204763 -0.211614
v 0.152451 -0.205609 -0.220969
v 0.160394 -0.197096 -0.219519
v 0.154782 -0.19627 -0.211105
v 0.159104 -0.187525 -0.208207
v 0.168904 -0.178771 -0.212656
v 0.167059 -0.187686 -0.217567
v 0.173158 -0.187977 -0.226087
v 0.178792 -0.187521 -0.234318
v 0.1844 -0.186949 -0.242457
v 0.171648 -0.197265 -0.236987
v 0.177039 -0.196489 -0.245365
v 0.198178 -0.18603 -0.267945
v 0.208878 -0.176972 -0.27439
v 0.204937 -0.177079 -0.265157
v 0.20538 -0.185787 -0.285732
v 0.212257 -0.177103 -0.284166
v 0.202173 -0.18563 -0.276432
v 0.1494 -0.195435 -0.203273
v 0.157841 -0.206311 -0.230275
v 0.142458 -0.201598 -0.202251
v 0.209282 -0.188438 -0.294473
v 0.231564 -0.161138 -0.300012
v 0.248932 -0.106007 -0.303651
v 0.249248 -0.0947871 -0.302995
v 0.249314 -0.0835551 -0.302399
v 0.249304 -0.072324 -0.301828
v 0.244265 -0.0729693 -0.292436
v 0.242832 -0.0622022 -0.292287
v 0.241187 -0.0514785 -0.292159
v 0.240483 -0.0625706 -0.281596
v 0.238882 -0.0518544 -0.281521
v 0.23691 -0.0411998 -0.281567
v 0.235027 -0.0305503 -0.28161
v 0.233163 -0.0198998 -0.28165
v 0.227978 0.0121445 -0.28165
v 0.226371 0.0228356 -0.281616
v 0.225543 0.0117413 -0.271132
v 0.224011 0.0224459 -0.27108
v 0.229246 -0.031438 -0.260809
v 0.230728 -0.0421314 -0.260867
v 0.23607 -0.0522818 -0.271025
v 0.23243 -0.0527922 -0.26078
v 0.237545 -0.0629796 -0.271044
v 0.241797 -0.0733631 -0.281723
v 0.242601 -0.084226 -0.281992
v 0.244798 -0.105975 -0.29381
v 0.242119 -0.106066 -0.28322
v 0.242748 -0.0951568 -0.282459
v 0.238498 -0.106137 -0.272785
v 0.23933 -0.0953278 -0.271957
v 0.234982 -0.084899 -0.261244
v 0.234647 -0.0741956 -0.260959
v 0.228622 -0.0640603 -0.251179
v 0.229668 -0.0747195 -0.251248
v 0.229491 -0.0959188 -0.251892
v 0.234867 -0.095602 -0.261735
v 0.228417 -0.106418 -0.252614
v 0.221967 -0.106646 -0.243236
v 0.218209 -0.127224 -0.244898
v 0.224987 -0.127094 -0.254455
v 0.226934 -0.116783 -0.253404
v 0.230544 -0.127131 -0.264544
v 0.232478 -0.11678 -0.263384
v 0.237203 -0.1168 -0.273744
v 0.240767 -0.11697 -0.284216
v 0.243471 -0.116994 -0.294851
v 0.238849 -0.138953 -0.297347
v 0.235906 -0.138404 -0.286887
v 0.231903 -0.148907 -0.288601
v 0.228547 -0.148195 -0.278198
v 0.221678 -0.168517 -0.292491
v 0.227183 -0.159106 -0.29058
v 0.223919 -0.158442 -0.28029
v 0.214897 -0.167712 -0.272332
v 0.195581 -0.176817 -0.248246
v 0.200327 -0.176976 -0.256635
v 0.190672 -0.176709 -0.239749
v 0.183824 -0.177794 -0.230892
v 0.193661 -0.167685 -0.235643
v 0.200642 -0.166787 -0.245018
v 0.210773 -0.167372 -0.262847
v 0.220373 -0.157813 -0.270203
v 0.215568 -0.157198 -0.260675
v 0.219408 -0.147232 -0.258186
v 0.213104 -0.147211 -0.248303
v 0.205948 -0.147569 -0.238691
v 0.198218 -0.14843 -0.229497
v 0.208546 -0.137576 -0.236779
v 0.21587 -0.137299 -0.246231
v 0.222349 -0.137317 -0.256015
v 0.227786 -0.137376 -0.266066
v 0.187785 -0.159887 -0.222742
v 0.186261 -0.16884 -0.226336
v 0.178434 -0.169792 -0.217479
v 0.203301 -0.157379 -0.241174
v 0.210063 -0.156961 -0.251023
v 0.195916 -0.158356 -0.231915
v 0.20615 -0.16682 -0.254024
v 0.224376 -0.147686 -0.267941
v 0.232124 -0.137895 -0.276401
v 0.238736 -0.127731 -0.285466
v 0.241597 -0.127948 -0.296055
v 0.235021 -0.12737 -0.274935
v 0.210661 -0.12748 -0.235637
v 0.220428 -0.116977 -0.243853
v 0.238748 -0.0737386 -0.27116
v 0.22987 -0.0853477 -0.251479
v 0.234005 -0.106203 -0.262456
v 0.245264 -0.0949133 -0.29309
v 0.239304 -0.0845459 -0.271469
v 0.23382 -0.0634803 -0.260779
v 0.229605 0.00144022 -0.28168
v 0.239573 -0.0407553 -0.292035
v 0.238294 -0.029995 -0.29183
v 0.234287 -0.0416136 -0.271078
v 0.232488 -0.0309504 -0.271104
v 0.23069 -0.0202871 -0.271129
v 0.228891 -0.00962389 -0.271155
v 0.227092 0.00103936 -0.27118
v 0.231301 -0.00924931 -0.28169
v 0.245274 -0.0839386 -0.292577
v 0.235328 -0.149646 -0.298947
v 0.215542 -0.178078 -0.293898
v 0.218579 -0.168066 -0.282177
v 0.193841 -0.186396 -0.259365
v 0.189187 -0.186632 -0.250902
v 0.176849 -0.178663 -0.221908
v 0.166178 -0.197653 -0.228371
f 2 23 3 1
f 23 21 6 3
f 6 5 4 3
f 5 131 22 4
f 6 7 9 5
f 9 10 131 5
f 130 10 9 8
f 130 81 11 10
f 11 13 131 10
f 81 80 12 11
f 12 14 13 11
f 80 78 129 12
f 128 79 17 15
f 17 16 20 15
f 17 84 77 16
f 77 127 19 16
f 19 18 20 16
f 79 101 84 17
f 19 126 24 18
f 127 74 126 19
f 75 72 125 25
f 49 112 27 26
f 112 124 28 27
f 124 30 29 28
f 124 48 47 30
f 47 33 31 30
f 33 34 32 31
f 34 35 116 32
f 47 109 46 33
f 46 44 34 33
f 44 118 35 34
f 36 117 116 35
f 118 119 36 35
f 119 120 37 36
f 120 121 123 37
f 115 122 40 38
f 40 41 39 38
f 119 118 43 42
f 118 44 45 43
f 46 114 45 44
f 109 55 114 46
f 48 113 109 47
f 124 112 51 48
f 51 53 113 48
f 69 68 50 49
f 50 51 112 49
f 68 67 52 50
f 52 53 51 50
f 67 66 111 52
f 111 59 53 52
f 59 54 113 53
f 55 109 113 54
f 59 58 110 54
f 110 57 55 54
f 57 56 114 55
f 59 111 60 58
f 111 66 64 60
f 64 108 61 60
f 108 64 63 62
f 63 93 92 62
f 92 91 107 62
f 64 66 65 63
f 65 94 93 63
f 66 67 106 65
f 68 104 106 67
f 69 105 104 68
f 125 72 71 70
f 71 104 105 70
f 72 73 103 71
f 103 106 104 71
f 75 76 73 72
f 76 85 102 73
f 127 76 75 74
f 127 77 85 76
f 84 86 85 77
f 83 101 79 78
f 79 128 129 78
f 80 82 83 78
f 81 96 82 80
f 130 97 96 81
f 100 98 83 82
f 96 95 100 82
f 98 99 101 83
f 101 99 86 84
f 86 87 102 85
f 99 88 87 86
f 93 94 102 87
f 88 92 93 87
f 99 98 89 88
f 89 91 92 88
f 98 100 90 89
f 123 121 122 115
