v 0.101661 -0.173746 0.0770394
v 0.0930695 -0.17587 0.0541547
v 0.0939182 -0.175195 0.0429375
v 0.0836585 -0.178318 0.0422125
v 0.0636678 -0.183979 0.0296592
v 0.0533624 -0.185188 0.0179415
v 0.0634045 -0.185846 0.0408626
v 0.0540324 -0.183808 0.00667244
v 0.0548308 -0.182257 -0.00455028
v 0.0557237 -0.180895 -0.0157517
v 0.0659564 -0.180704 -0.00391293
v 0.0649416 -0.18149 0.00722618
v 0.0783201 -0.178364 -0.0143117
v 0.0771424 -0.178828 -0.00320507
v 0.0759443 -0.179285 0.00789597
v 0.0867903 -0.176963 0.0085058
v 0.115486 -0.169926 0.0332183
v 0.127221 -0.167774 0.0234975
v 0.12455 -0.165868 0.0346779
v 0.123982 -0.164661 0.0454971
v 0.114605 -0.169069 0.124452
v 0.109189 -0.171557 0.100417
v 0.119539 -0.166474 0.102275
v 0.120584 -0.166 0.0909425
v 0.121422 -0.165559 0.0795385
v 0.12226 -0.165118 0.0681346
v 0.123098 -0.164677 0.0567306
v 0.114514 -0.169708 0.044481
v 0.113757 -0.170012 0.0557684
v 0.113077 -0.170507 0.0670175
v 0.110916 -0.170921 0.0893957
v 0.112273 -0.17091 0.0781655
v 0.10725 -0.171542 0.111096
v 0.10248 -0.173098 0.0660294
v 0.105367 -0.174496 0.121625
v 0.103302 -0.172672 0.054973
v 0.117356 -0.167848 0.113304
v 0.142734 -0.165874 0.00484928
v 0.138402 -0.163637 0.0160303
v 0.157929 -0.162247 -0.0127012
v 0.146394 -0.167482 -0.00654687
v 0.132986 -0.17054 0.00171255
v 0.135902 -0.171358 -0.00906883
v 0.138863 -0.171395 -0.0201508
v 0.115545 -0.173961 -0.0336085
v 0.0931847 -0.173065 -0.0462118
v 0.0921798 -0.175308 -0.0354074
v 0.0807014 -0.175809 -0.036236
v 0.0818729 -0.173545 -0.0470543
v 0.06803 -0.178454 -0.0262419
v 0.102821 -0.175802 -0.0235321
v 0.0911414 -0.176636 -0.0244544
v 0.0794622 -0.177471 -0.0253767
v 0.114549 -0.174863 -0.0225868
v 0.101426 -0.176082 -0.0125284
v 0.0897661 -0.177057 -0.0134796
v 0.11302 -0.174988 -0.0115619
v 0.124556 -0.173804 -0.0105894
v 0.109083 -0.173821 0.010243
v 0.111066 -0.174415 -0.00065435
v 0.0995586 -0.175619 -0.00161663
v 0.122427 -0.173026 0.000455184
v 0.119811 -0.171904 0.0113717
v 0.0692249 -0.176297 -0.0370514
v 0.0704056 -0.173966 -0.0478045
v 0.0566185 -0.179236 -0.027033
v 0.0578123 -0.176979 -0.0377906
v 0.105358 -0.169878 -0.0561082
v 0.0940539 -0.17047 -0.0569336
v 0.0827505 -0.171067 -0.0577627
v 0.117558 -0.167052 -0.0659428
v 0.10615 -0.168154 -0.0669559
v 0.0947413 -0.16926 -0.0678437
v 0.0834058 -0.170919 -0.0684422
v 0.118752 -0.167624 -0.0767526
v 0.107499 -0.170301 -0.0775247
v 0.0958423 -0.173633 -0.0776804
v 0.120914 -0.173834 -0.08548
v 0.13249 -0.16988 -0.0856352
v 0.159388 -0.16433 -0.0914912
v 0.170761 -0.157308 -0.0900696
v 0.185453 -0.153334 -0.096398
v 0.198234 -0.148359 -0.102328
v 0.219374 -0.132301 -0.107101
v 0.226683 -0.122519 -0.105349
v 0.0739594 -0.180508 0.0302995
v 0.243453 -0.107257 -0.100261
v 0.234655 -0.114043 -0.103242
v 0.237516 -0.101736 -0.089947
v 0.229359 -0.108997 -0.093095
v 0.221723 -0.117789 -0.095864
v 0.214513 -0.127399 -0.0984258
v 0.210162 -0.125454 -0.0880622
v 0.203075 -0.134749 -0.0907853
v 0.19473 -0.143687 -0.0940291
v 0.178 -0.151288 -0.0778474
v 0.175227 -0.152997 -0.0675259
v 0.181834 -0.149937 -0.0529798
v 0.184686 -0.147604 -0.0636239
v 0.187697 -0.14512 -0.0742261
v 0.191076 -0.143429 -0.0843784
v 0.199174 -0.135384 -0.0805774
v 0.203371 -0.131594 -0.0651377
v 0.200237 -0.134877 -0.0541592
v 0.193174 -0.141482 -0.059059
v 0.196196 -0.138386 -0.0699643
v 0.217221 -0.116523 -0.0847213
v 0.21046 -0.124065 -0.0609517
v 0.213873 -0.119393 -0.072881
v 0.206759 -0.127304 -0.0767552
v 0.224522 -0.108378 -0.0812027
v 0.232095 -0.100609 -0.0776827
v 0.220883 -0.111683 -0.0690174
v 0.195532 -0.137832 -0.0422526
v 0.168448 -0.155864 -0.0183869
v 0.153338 -0.159937 -0.00116997
v 0.173686 -0.154807 -0.0300349
v 0.178298 -0.152499 -0.0418043
v 0.189603 -0.144545 -0.0476645
v 0.166445 -0.159703 -0.0356693
v 0.169725 -0.157519 -0.0464996
v 0.153686 -0.166237 -0.0288969
v 0.149979 -0.167615 -0.0181575
v 0.156914 -0.164195 -0.0392319
v 0.162002 -0.159416 -0.0598066
v 0.164505 -0.157419 -0.0702485
v 0.15584 -0.161107 -0.0828434
v 0.143815 -0.165465 -0.0850369
v 0.141848 -0.163106 -0.0741908
v 0.130161 -0.165352 -0.0757364
v 0.139927 -0.164769 -0.0635942
v 0.128892 -0.165989 -0.0649106
v 0.148699 -0.165257 -0.0518153
v 0.151082 -0.162785 -0.0621162
v 0.159614 -0.161892 -0.0495088
v 0.146394 -0.16768 -0.0414506
v 0.138106 -0.167402 -0.0530577
v 0.126323 -0.17124 -0.0435736
v 0.127483 -0.168529 -0.0542329
v 0.135908 -0.170035 -0.042556
v 0.153338 -0.160744 -0.0725695
v 0.162147 -0.161675 -0.0242267
v 0.184957 -0.146831 -0.0359774
v 0.172415 -0.155335 -0.0569126
v 0.167178 -0.156204 -0.0806285
v 0.181438 -0.150614 -0.0876283
v 0.206875 -0.137542 -0.100591
v 0.0734759 -0.181968 0.0415339
v 0.0843827 -0.177362 0.0309783
v 0.116581 -0.16926 -0.0552074
v 0.115712 -0.172001 -0.0445096
v 0.104436 -0.172537 -0.04536
v 0.103677 -0.174754 -0.0345686
v 0.126451 -0.173817 -0.0216075
v 0.12882 -0.17261 -0.0324672
v 0.14266 -0.16997 -0.03092
v 0.129879 -0.169243 0.0125221
v 0.117285 -0.170683 0.0222504
v 0.106641 -0.172739 0.0211896
v 0.105231 -0.172292 0.0324149
v 0.09602 -0.174649 0.0203959
v 0.0975962 -0.175059 0.0092868
v 0.0883091 -0.177201 -0.00247823
v 0.104166 -0.172314 0.0436841
v 0.0948516 -0.174665 0.0316825
v 0.0855375 -0.177015 0.019681
v 0.0669501 -0.17967 -0.0150763
v 0.0747697 -0.179425 0.0190429
v 0.0641259 -0.182401 0.0184183
f 34 30 32 1
f 3 164 36 2
f 4 149 165 3
f 165 160 164 3
f 148 86 149 4
f 169 168 86 5
f 86 148 7 5
f 8 12 169 6
f 9 11 12 8
f 10 167 11 9
f 66 50 167 10
f 167 13 14 11
f 14 15 12 11
f 15 168 169 12
f 167 50 53 13
f 53 52 56 13
f 56 163 14 13
f 163 16 15 14
f 16 166 168 15
f 163 61 162 16
f 162 161 166 16
f 160 159 158 17
f 158 18 19 17
f 19 20 28 17
f 28 164 160 17
f 158 63 157 18
f 27 29 28 20
f 35 33 37 21
f 31 24 23 22
f 23 37 33 22
f 31 32 25 24
f 32 30 26 25
f 30 29 27 26
f 29 36 164 28
f 30 34 36 29
f 42 43 41 38
f 39 157 42 38
f 123 122 142 40
f 116 41 123 40
f 43 44 123 41
f 62 58 43 42
f 157 63 62 42
f 58 154 44 43
f 156 122 123 44
f 153 152 151 45
f 155 154 54 45
f 54 51 153 45
f 49 70 69 46
f 69 68 152 46
f 152 153 47 46
f 47 48 49 46
f 153 51 52 47
f 52 53 48 47
f 64 65 49 48
f 53 50 64 48
f 66 67 64 50
f 54 57 55 51
f 55 56 52 51
f 154 58 57 54
f 57 60 61 55
f 61 163 56 55
f 58 62 60 57
f 162 61 60 59
f 60 62 63 59
f 63 158 159 59
f 159 161 162 59
f 69 73 72 68
f 72 71 150 68
f 150 151 152 68
f 70 74 73 69
f 72 76 75 71
f 75 130 132 71
f 132 139 150 71
f 73 77 76 72
f 78 79 130 75
f 128 129 130 79
f 81 145 127 80
f 146 96 145 81
f 95 101 146 82
f 147 94 95 83
f 85 91 92 84
f 88 90 91 85
f 89 90 88 87
f 112 111 90 89
f 111 107 91 90
f 107 93 92 91
f 93 94 147 92
f 107 109 110 93
f 110 102 94 93
f 102 101 95 94
f 146 101 100 96
f 100 99 97 96
f 97 126 145 96
f 99 98 144 97
f 144 125 126 97
f 99 105 119 98
f 119 143 118 98
f 118 121 144 98
f 100 106 105 99
f 101 102 106 100
f 110 103 106 102
f 110 109 108 103
f 104 105 106 103
f 114 119 105 104
f 111 113 109 107
f 142 120 117 115
f 120 121 118 117
f 124 135 121 120
f 142 122 124 120
f 135 125 144 121
f 156 136 124 122
f 136 133 135 124
f 134 141 126 125
f 135 133 134 125
f 141 127 145 126
f 141 129 128 127
f 141 134 131 129
f 131 132 130 129
f 134 133 137 131
f 137 139 132 131
f 136 140 137 133
f 140 138 139 137
f 151 150 139 138
f 160 165 161 159
f 165 149 166 161
f 149 86 168 166
