# https://github.com/mikedh/trimesh
v 0.18368100 0.21385600 -0.00008000
v 0.17416400 0.19033100 0.01012100
v 0.17748901 0.22403050 0.00815200
v 0.17145262 0.22780612 0.00852187
v 0.16246768 0.23310637 0.01631799
v 0.16659545 0.23108955 0.01573391
v 0.16080251 0.23114050 0.00291000
v 0.15529101 0.23046701 -0.00578600
v 0.15968836 0.23323170 0.01240751
v 0.15863474 0.23012400 -0.00413250
v 0.16034975 0.23269300 0.02022675
v 0.15002024 0.22799949 -0.01581475
v 0.15450700 0.22910000 -0.01149050
v 0.15266600 0.22746100 -0.01790000
v 0.15358570 0.23133419 -0.00303548
v 0.15569750 0.23263225 0.00784175
v 0.16538625 0.23005075 0.02005450
v 0.18611901 0.20938499 0.00233700
v 0.15358800 0.22457600 -0.02619800
v 0.17069035 0.16233757 0.02573820
v 0.17282249 0.17003685 0.02081848
v 0.17659731 0.17505495 0.01918036
v 0.16159440 0.15188833 0.02992449
v 0.18057199 0.18203075 0.01558525
v 0.18208900 0.18627600 0.01366400
v 0.16733499 0.15492300 0.02970250
v 0.16178490 0.14815175 0.03376024
v 0.16156200 0.14546550 0.03502450
v 0.18114368 0.19131854 0.01048914
v 0.18309100 0.18908399 0.01239100
v 0.18677901 0.20215900 0.00676450
v 0.18374153 0.19676254 0.00876674
v 0.17139124 0.17886009 0.01381829
v 0.16593781 0.16953175 0.01835138
v 0.16152251 0.16015775 0.02326050
v 0.16014500 0.15781725 0.02444050
v 0.15335866 0.14118428 0.03560949
v 0.14733149 0.13648275 0.03809000
v 0.14647900 0.12947350 0.04619050
v 0.15412450 0.13728713 0.04051738
v 0.16425600 0.16565082 0.02016788
v 0.22380450 0.19755050 -0.03318200
v 0.20431900 0.19725600 -0.01081400
v 0.21811300 0.19684799 -0.02684400
v 0.18907236 0.22314844 -0.00346897
v 0.19805674 0.22853299 -0.01023050
v 0.19337426 0.22681008 -0.00899132
v 0.20373603 0.23537471 -0.01898096
v 0.20710721 0.23817199 -0.02276051
v 0.21089185 0.24221183 -0.02876332
v 0.18366725 0.22200425 -0.00309050
v 0.21202571 0.24409632 -0.03162970
v 0.18124700 0.22202351 -0.00752750
v 0.21490519 0.24650481 -0.03578517
v 0.18770100 0.21628200 -0.00029900
v 0.19196801 0.21453061 0.00088574
v 0.18302069 0.22177933 0.00137465
v 0.18796375 0.22184030 -0.00120408
v 0.19928300 0.22510000 -0.00724900
v 0.19392650 0.21886749 -0.00113025
v 0.19415475 0.22441459 -0.00483386
v 0.20227900 0.22808000 -0.01112200
v 0.20574901 0.23156300 -0.01553400
v 0.21027875 0.23660850 -0.02220000
v 0.21875399 0.24715699 -0.03890000
v 0.22060200 0.25215800 -0.04717200
v 0.21693938 0.24368400 -0.03317300
v 0.21259400 0.23904000 -0.02552000
v 0.22223200 0.25361100 -0.05065000
v 0.22428550 0.25661625 -0.05903675
v 0.19248561 0.23531682 -0.04820118
v 0.17820312 0.22974556 -0.07032139
v 0.19092161 0.23900584 -0.07312021
v 0.20609325 0.25425438 -0.09454225
v 0.18463750 0.23883550 -0.09721800
v 0.20619749 0.24863461 -0.06836693
v 0.18897225 0.23093315 -0.03831876
v 0.18502482 0.22809458 -0.03668353
v 0.17461571 0.22019318 -0.02615078
v 0.18390654 0.22357703 -0.01633782
v 0.17545121 0.22297793 -0.04077451
v 0.17604275 0.22763500 -0.06416500
v 0.20980502 0.25486606 -0.08758744
v 0.21216940 0.24909149 -0.04931723
v 0.19488209 0.23145548 -0.02308155
v 0.21475144 0.25200239 -0.05542319
v 0.18684081 0.24076233 -0.10255596
v 0.21482219 0.25730919 -0.08213627
v 0.17219963 0.22380063 -0.05386275
v 0.16764790 0.21824002 -0.04080024
v 0.21631171 0.24920560 -0.04101127
v 0.21916870 0.25537214 -0.05854233
v 0.20949350 0.25495426 -0.09037600
v 0.18207542 0.22217064 -0.01186280
v 0.18051637 0.23239451 -0.07742687
v 0.22109300 0.25712699 -0.06327900
v 0.22243479 0.25903613 -0.07193800
v 0.19543488 0.24702812 -0.09927337
v 0.17041350 0.21903162 -0.02859850
v 0.17755900 0.22103100 -0.01455800
v 0.22483084 0.25909407 -0.07051641
v 0.22607675 0.25823225 -0.07578925
v 0.22556700 0.25793449 -0.06458450
v 0.23146200 0.23131000 -0.06155700
v 0.22989293 0.24483410 -0.06088130
v 0.23035390 0.22344703 -0.05221198
v 0.22836654 0.21386522 -0.04486991
v 0.22614887 0.21829536 -0.04376296
v 0.21991342 0.21218458 -0.03329470
v 0.21428160 0.22546011 -0.02639512
v 0.20539142 0.20738565 -0.01293177
v 0.22634240 0.22971028 -0.04785744
v 0.22291558 0.21129067 -0.03718493
v 0.22759125 0.20807703 -0.04199766
v 0.20415031 0.22894526 -0.01301946
v 0.21790778 0.20484151 -0.02919438
v 0.22275397 0.24904105 -0.04413537
v 0.22857744 0.23935839 -0.05557655
v 0.22563569 0.25240242 -0.05192360
v 0.22851841 0.25539087 -0.06218660
v 0.23044907 0.25506876 -0.07116664
v 0.23131563 0.24615017 -0.06675987
v 0.22967133 0.21777298 -0.04906912
v 0.23171681 0.23732609 -0.06258169
v 0.23181400 0.23794900 -0.06538200
v 0.23126295 0.25073069 -0.07207031
v 0.23120425 0.24832050 -0.07362050
v 0.22305097 0.25172278 -0.04831305
v 0.22778600 0.25636399 -0.07870600
v 0.23029400 0.24518650 -0.08367950
v 0.22937550 0.25613901 -0.07391050
v 0.22898218 0.25694853 -0.06981936
v 0.15598008 0.22322620 -0.02942832
v 0.15926509 0.22123313 -0.03276940
v 0.16807896 0.21994210 -0.02697161
v 0.15846544 0.22911254 -0.00881048
v 0.17945094 0.22262041 -0.00167482
v 0.17336213 0.22038484 -0.01954973
v 0.17918435 0.22363777 0.00415880
v 0.18312700 0.22026099 0.00385600
v 0.22644247 0.25244478 -0.08617425
v 0.22783460 0.25178327 -0.08348637
f 130 142 129
f 129 127 130
f 129 142 141
f 141 142 130
f 126 127 129
f 126 125 127
f 121 126 129
f 124 125 126
f 122 126 121
f 131 121 129
f 124 104 125
f 126 122 124
f 120 122 121
f 118 104 124
f 120 124 122
f 121 132 120
f 112 104 118
f 124 105 118
f 105 124 120
f 132 103 120
f 121 131 132
f 106 104 112
f 65 112 118
f 119 118 105
f 120 119 105
f 128 120 103
f 112 107 106
f 65 67 112
f 117 65 118
f 119 117 118
f 128 103 69
f 119 120 128
f 107 123 106
f 107 112 108
f 67 109 112
f 65 128 69
f 117 119 128
f 107 114 123
f 114 107 108
f 109 108 112
f 67 110 109
f 117 128 65
f 114 108 113
f 113 108 109
f 68 110 67
f 110 116 109
f 113 42 114
f 116 113 109
f 64 110 68
f 115 116 110
f 116 42 113
f 64 115 110
f 116 115 111
f 116 44 42
f 63 115 64
f 60 111 115
f 111 43 116
f 116 43 44
f 62 115 63
f 60 43 111
f 115 62 60
f 63 46 62
f 18 43 60
f 62 46 59
f 46 61 59
f 61 46 47
f 61 58 59
f 46 63 47
f 61 47 45
f 59 58 60
f 47 94 45
f 61 45 58
f 60 58 56
f 45 94 58
f 47 80 94
f 55 56 58
f 47 85 80
f 94 80 79
f 56 55 18
f 52 85 47
f 85 78 80
f 80 81 79
f 51 94 79
f 18 55 1
f 48 52 47
f 52 91 85
f 80 78 81
f 85 77 78
f 79 81 90
f 58 94 51
f 1 32 18
f 49 52 48
f 54 91 52
f 91 84 85
f 77 81 78
f 71 77 85
f 81 89 90
f 58 51 57
f 32 1 29
f 18 32 31
f 49 50 52
f 50 54 52
f 54 66 91
f 85 84 71
f 92 84 91
f 77 82 81
f 71 82 77
f 81 82 89
f 57 51 137
f 1 2 29
f 32 29 30
f 30 31 32
f 50 67 54
f 67 66 54
f 66 92 91
f 84 73 71
f 92 86 84
f 71 72 82
f 51 53 137
f 57 137 139
f 29 2 22
f 30 29 25
f 70 92 66
f 73 72 71
f 76 73 84
f 86 88 84
f 92 88 86
f 137 53 100
f 139 3 57
f 137 79 139
f 2 33 22
f 29 22 24
f 25 29 24
f 70 96 92
f 73 95 72
f 83 73 76
f 84 83 76
f 84 88 83
f 97 88 92
f 137 100 138
f 57 3 140
f 3 139 4
f 139 79 136
f 33 34 22
f 70 97 96
f 96 97 92
f 73 74 95
f 83 74 73
f 88 93 83
f 100 99 138
f 3 4 6
f 4 139 136
f 136 79 135
f 22 34 21
f 101 97 70
f 74 75 95
f 83 93 74
f 6 17 3
f 4 5 6
f 4 136 10
f 79 90 135
f 136 135 133
f 34 41 21
f 101 102 97
f 74 87 75
f 17 6 5
f 5 4 7
f 136 13 10
f 135 90 134
f 133 135 134
f 136 133 14
f 21 41 35
f 97 102 88
f 74 98 87
f 11 17 5
f 5 7 15
f 136 14 13
f 14 133 19
f 21 35 20
f 5 15 9
f 7 8 15
f 35 36 20
f 9 15 16
f 8 12 15
f 36 23 20
f 20 23 26
f 36 37 23
f 23 27 26
f 23 37 27
f 28 27 37
f 28 37 40
f 40 37 38
f 40 38 39

