# https://github.com/mikedh/trimesh
v 0.15812074 0.10234692 -0.00325249
v 0.14394045 0.09491665 0.02246363
v 0.13512247 0.09087377 0.03373069
v 0.11904504 0.07523100 0.04421038
v 0.17795049 0.01172650 -0.03250400
v 0.18367031 0.03201880 -0.02840584
v 0.18436730 0.04385464 -0.02398200
v 0.18205713 0.02450739 -0.03050003
v 0.18252309 0.05608325 -0.01816826
v 0.18042838 0.06213553 -0.01458150
v 0.15865363 0.09743460 0.00598544
v 0.16393209 0.09055056 0.01053022
v 0.16878078 0.08835527 0.00614807
v 0.17613001 0.09778103 -0.01923762
v 0.15332424 0.09156678 0.02041227
v 0.14348276 0.09032853 0.02928677
v 0.17907534 0.09673639 -0.02239421
v 0.17465102 0.08857752 -0.00308522
v 0.17758562 0.08282753 -0.00283245
v 0.19055191 0.08398436 -0.03346590
v 0.14933446 0.08866898 0.02491828
v 0.19182040 0.07516684 -0.02520034
v 0.18578850 0.07843132 -0.01512161
v 0.18363503 0.07338334 -0.00909695
v 0.18806096 0.06663246 -0.01462500
v 0.17876958 0.07960436 -0.00397490
v 0.19075951 0.06728784 -0.02004432
v 0.19578919 0.07120215 -0.03698865
v 0.16648955 0.10250040 -0.01205192
v 0.19076385 0.05949369 -0.01911772
v 0.19213027 0.05848894 -0.02152474
v 0.19731601 0.07255000 -0.04403600
v 0.18859682 0.10973831 -0.03384804
v 0.19739873 0.10104571 -0.04212866
v 0.19608779 0.11449575 -0.04293609
v 0.20149531 0.11920580 -0.05045691
v 0.21153364 0.10571800 -0.06108628
v 0.21100500 0.13146000 -0.06752000
v 0.21806675 0.12350225 -0.07558425
v 0.21310900 0.12752700 -0.06898900
v 0.21256736 0.08825874 -0.06115229
v 0.21518203 0.10741567 -0.06688722
v 0.20971085 0.13042548 -0.06501259
v 0.18881969 0.09802021 -0.03216095
v 0.21758372 0.11604706 -0.07211509
v 0.18840416 0.08894455 -0.03170975
v 0.20665351 0.12567165 -0.05920561
v 0.21022564 0.08811139 -0.05816894
v 0.19555481 0.07582387 -0.04088325
v 0.21885600 0.11528225 -0.07558162
v 0.17044894 0.08335335 0.00389194
v 0.20650260 0.06126669 -0.05656206
v 0.21638025 0.09291075 -0.06803650
v 0.19623033 0.05026773 -0.03209056
v 0.19743724 0.08362484 -0.04209480
v 0.20992599 0.06809550 -0.06015900
v 0.21320300 0.07867700 -0.06329000
v 0.17974589 0.10593952 -0.02435714
v 0.19864803 0.06761901 -0.04660400
v 0.20271599 0.12157800 -0.05227800
v 0.20863049 0.06566250 -0.05877000
v 0.19340695 0.04988155 -0.02467829
v 0.21455975 0.08245775 -0.06547450
v 0.12966792 0.08399426 0.04074427
v 0.21214300 0.07286200 -0.06259800
v 0.13758357 0.08630974 0.03420749
v 0.20523300 0.05605700 -0.05706900
v 0.21813306 0.10594867 -0.07133675
v 0.19992747 0.05445428 -0.05139192
v 0.21785751 0.10001850 -0.07143100
v 0.19958375 0.04950250 -0.05272325
v 0.19465859 0.04508858 -0.02870518
v 0.19827534 0.05940008 -0.04124868
v 0.19260439 0.03400185 -0.02991877
v 0.19845950 0.11735400 -0.04575250
v 0.19156325 0.11255175 -0.03693000
v 0.18503175 0.10879175 -0.02979450
v 0.20233513 0.05218750 -0.05516625
v 0.19976887 0.06064173 -0.04952384
v 0.19059044 0.02691404 -0.03162503
v 0.19034965 0.02443346 -0.03304750
v 0.19323200 0.03143050 -0.03359400
v 0.19260937 0.04712244 -0.02493373
v 0.19384121 0.03911782 -0.02881772
v 0.19839200 0.04727100 -0.04528200
v 0.19692950 0.04059150 -0.04227800
v 0.18773350 0.01936500 -0.03365250
v 0.21735699 0.09596400 -0.07045300
v 0.13926700 0.08539950 0.03150600
v 0.17640750 0.07023550 -0.00867250
v 0.16938349 0.07692950 -0.00108900
v 0.16780351 0.07835300 0.00076100
v 0.15292250 0.08776889 0.02098608
v 0.15095750 0.08382850 0.01773650
v 0.15697300 0.08292600 0.01177150
v 0.15757531 0.08626422 0.01527325
v 0.14637950 0.08379000 0.02191550
v 0.21218500 0.07917600 -0.07598500
v 0.21484583 0.14368693 -0.07983982
v 0.21560749 0.14626556 -0.08222903
v 0.21315727 0.13906891 -0.07403630
v 0.21679901 0.14566600 -0.08621300
v 0.21841050 0.13290452 -0.07998625
v 0.21762226 0.14122363 -0.08519775
v 0.21217836 0.13656499 -0.07107576
v 0.21626083 0.15370442 -0.09477965
v 0.21324298 0.08270076 -0.07860299
v 0.21439036 0.08730889 -0.08009909
v 0.21491410 0.09391869 -0.08140565
v 0.21707995 0.13453878 -0.09056366
v 0.21648579 0.10724507 -0.08482784
v 0.20737966 0.06023397 -0.06994234
v 0.20845153 0.06421766 -0.07155150
v 0.21720915 0.12242441 -0.08788778
v 0.20528379 0.05418807 -0.06708528
v 0.20199016 0.04698946 -0.06312048
v 0.19736731 0.03813980 -0.05687105
v 0.19882692 0.04104400 -0.05877987
v 0.20514999 0.05415100 -0.06077200
v 0.20811055 0.06085166 -0.05958962
v 0.21157717 0.07044115 -0.06467856
v 0.20396860 0.05206892 -0.06512613
v 0.20720300 0.05930400 -0.06419600
v 0.20953699 0.06848181 -0.07312643
v 0.21434183 0.08572261 -0.07764818
v 0.19855459 0.04306440 -0.05528721
v 0.21815317 0.10288612 -0.07480846
v 0.21587853 0.10116456 -0.08326079
v 0.21884663 0.11467128 -0.07863304
v 0.21820729 0.13531411 -0.08602801
v 0.21862116 0.12791468 -0.08383023
v 0.21673490 0.11347876 -0.08591155
v 0.21646419 0.15156967 -0.09265436
v 0.21694658 0.14119296 -0.09148249
f 66 64 89
f 66 89 21
f 89 97 21
f 21 97 93
f 93 97 94
f 96 93 94
f 96 94 95
f 96 95 92
f 96 92 51
f 92 91 51
f 90 51 91
f 51 90 24
f 24 90 10
f 24 10 9
f 24 9 25
f 25 9 7
f 25 7 30
f 30 7 83
f 30 83 62
f 62 83 84
f 62 84 72
f 54 72 84
f 54 84 86
f 84 82 86
f 74 82 84
f 74 81 82
f 80 81 74
f 80 87 81
f 80 5 87
f 80 8 5
f 6 8 80
f 74 6 80
f 84 6 74
f 7 6 84
f 54 86 85
f 69 54 85
f 69 85 71
f 73 54 69
f 79 73 69
f 28 73 79
f 28 79 59
f 59 79 52
f 79 69 52
f 52 69 78
f 69 71 78
f 55 59 52
f 32 59 55
f 32 49 59
f 49 32 55
f 34 49 55
f 34 55 48
f 41 34 48
f 41 48 52
f 41 52 57
f 52 61 57
f 41 57 53
f 41 53 68
f 68 53 70
f 68 70 50
f 45 68 50
f 42 68 45
f 37 68 42
f 37 42 45
f 45 47 37
f 47 45 43
f 43 60 47
f 60 36 47
f 43 45 40
f 38 43 40
f 105 43 38
f 38 101 105
f 101 38 39
f 101 39 103
f 103 99 101
f 99 103 104
f 99 104 102
f 133 102 104
f 104 130 133
f 133 130 134
f 106 133 134
f 134 130 110
f 130 131 110
f 39 131 130
f 39 129 131
f 131 129 132
f 132 114 131
f 129 111 132
f 129 128 111
f 129 127 128
f 127 109 128
f 88 109 127
f 68 88 127
f 68 127 39
f 109 88 125
f 109 125 108
f 125 107 108
f 98 107 125
f 125 121 98
f 63 121 125
f 63 65 121
f 120 121 65
f 120 123 121
f 121 123 112
f 122 112 123
f 121 112 113
f 121 113 124
f 120 122 123
f 120 119 122
f 119 118 122
f 118 116 122
f 115 122 116
f 112 122 115
f 118 119 120
f 67 118 120
f 56 67 120
f 71 118 67
f 71 126 118
f 126 117 118
f 56 120 65
f 121 124 98
f 63 125 88
f 39 127 129
f 110 131 114
f 104 39 130
f 102 133 106
f 100 99 102
f 36 37 47
f 34 37 36
f 35 34 36
f 75 35 36
f 33 34 35
f 33 44 34
f 58 44 33
f 44 58 14
f 14 58 29
f 44 14 17
f 17 46 44
f 44 46 49
f 46 20 49
f 20 28 49
f 22 28 20
f 17 22 20
f 17 23 22
f 23 27 22
f 27 23 25
f 25 30 27
f 30 31 27
f 31 54 27
f 31 62 54
f 23 24 25
f 19 24 23
f 19 26 24
f 26 51 24
f 19 51 26
f 13 51 19
f 12 51 13
f 93 51 12
f 15 93 12
f 15 21 93
f 15 16 21
f 27 54 22
f 19 23 17
f 18 19 17
f 13 19 18
f 13 18 12
f 18 29 12
f 18 14 29
f 11 12 29
f 29 1 11
f 11 1 2
f 15 11 2
f 15 2 16
f 3 16 2
f 11 15 12
f 18 17 14
f 17 20 46
f 77 58 33
f 1 58 77
f 1 29 58
f 77 33 76
f 40 45 50
f 37 41 68
f 37 34 41
f 44 49 34
f 55 52 48
f 28 59 49
f 28 22 73
f 22 54 73
f 62 72 54
f 31 30 62
f 7 84 83
f 64 4 89

