# https://github.com/mikedh/trimesh
v 0.33074850 0.26907925 -0.26217450
v 0.32650471 0.25950069 -0.26081047
v 0.32902999 0.26709099 -0.26461000
v 0.31254751 0.25815731 -0.26913299
v 0.29258150 0.25508350 -0.27598301
v 0.25900650 0.24380149 -0.27856800
v 0.24341325 0.23390650 -0.27797200
v 0.24209700 0.22458500 -0.27114150
v 0.27400150 0.25842400 -0.22289350
v 0.28993800 0.26189101 -0.23137300
v 0.30922525 0.27091076 -0.24536625
v 0.32568499 0.27823600 -0.25626001
v 0.32996649 0.28157250 -0.26105351
v 0.24758875 0.25569750 -0.18504550
v 0.25079450 0.25147350 -0.18771650
v 0.26912999 0.25428501 -0.21546100
v 0.31532143 0.17144306 -0.23614387
v 0.30926201 0.18919800 -0.23318100
v 0.31301587 0.17462488 -0.23523775
v 0.30476201 0.17621050 -0.22519600
v 0.30758101 0.19565301 -0.22949401
v 0.30670401 0.19945601 -0.22718900
v 0.30575399 0.20671650 -0.22488400
v 0.30600476 0.20590865 -0.22763617
v 0.30520800 0.22255850 -0.22331100
v 0.30595350 0.22983801 -0.22483151
v 0.30672723 0.23024020 -0.23119840
v 0.30475995 0.22906463 -0.23340904
v 0.29929601 0.22829849 -0.23771172
v 0.29316613 0.22658725 -0.23925978
v 0.31559006 0.24709148 -0.25628415
v 0.31260142 0.23728460 -0.24343850
v 0.31074500 0.24119200 -0.25113401
v 0.30523517 0.24217959 -0.25600343
v 0.27211499 0.22976630 -0.25329060
v 0.25970391 0.23791838 -0.27108801
v 0.26840363 0.24199519 -0.27223673
v 0.25538645 0.22683571 -0.25920996
v 0.25260187 0.23719853 -0.27445226
v 0.30428499 0.24995400 -0.26542899
v 0.29497835 0.25137746 -0.27149323
v 0.25706086 0.22545803 -0.25684167
v 0.24648257 0.23219116 -0.27290476
v 0.26446716 0.22420909 -0.25093851
v 0.24771172 0.22585669 -0.26492036
v 0.32260950 0.25236868 -0.25713885
v 0.26971772 0.22296654 -0.24749709
v 0.32378399 0.25211200 -0.25392601
v 0.25667087 0.22272771 -0.25480844
v 0.30171588 0.22635035 -0.23375285
v 0.26006900 0.22091700 -0.25190550
v 0.25223500 0.22158351 -0.25809951
v 0.31878701 0.24340600 -0.24574000
v 0.31393267 0.23736625 -0.23882907
v 0.31711000 0.24103899 -0.24171001
v 0.33001801 0.26648301 -0.26130199
v 0.32871500 0.26238099 -0.25853601
v 0.26413151 0.25164400 -0.20747825
v 0.24057425 0.23989975 -0.17196950
v 0.23421600 0.24779300 -0.16339301
v 0.23206100 0.25147900 -0.15966600
v 0.24947450 0.22631150 -0.18332100
v 0.25730699 0.21122400 -0.19261700
v 0.26745301 0.19341400 -0.20091200
v 0.28354674 0.18494374 -0.20870225
v 0.23053800 0.26292199 -0.15323600
v 0.23160499 0.26635501 -0.15291300
v 0.29043575 0.18181725 -0.21284300
v 0.27540124 0.25027675 -0.21067050
v 0.29333637 0.24295125 -0.21708612
v 0.28289500 0.25557700 -0.22037899
v 0.29020101 0.25832999 -0.22639500
v 0.30665800 0.24491950 -0.22883750
v 0.29695649 0.26082049 -0.23225050
v 0.31437200 0.25932850 -0.24161849
v 0.32283700 0.27213499 -0.25266999
v 0.29270849 0.24133450 -0.21501950
v 0.28606099 0.23451900 -0.20114300
v 0.27594550 0.23762700 -0.19461000
v 0.28387499 0.23706400 -0.20120101
v 0.29095700 0.23796500 -0.20944700
v 0.28220551 0.26110299 -0.22780101
v 0.26443189 0.24254564 -0.18837634
v 0.26835799 0.24134700 -0.19164300
v 0.25439799 0.24899600 -0.18311401
v 0.26182800 0.24653250 -0.19256625
v 0.24668001 0.25380701 -0.17601900
v 0.27249675 0.23955674 -0.19345575
v 0.25641200 0.24661800 -0.18233199
v 0.32629608 0.25620679 -0.25456417
v 0.32290104 0.24987884 -0.24805080
v 0.32921972 0.26531081 -0.25588622
v 0.31824048 0.24445509 -0.23987374
v 0.32535300 0.25638801 -0.25063401
v 0.30402759 0.22763494 -0.21977196
v 0.30765565 0.23713747 -0.22554262
v 0.31047159 0.23805151 -0.22922476
v 0.30342299 0.21292500 -0.21933199
v 0.30481874 0.18073960 -0.22635771
v 0.30775797 0.18952116 -0.22944390
v 0.30142147 0.21933977 -0.21611455
v 0.30152511 0.22735096 -0.21642683
v 0.32330023 0.25339365 -0.24700814
v 0.30328412 0.23334498 -0.21872478
v 0.31001157 0.18287928 -0.23251131
v 0.31612219 0.24455187 -0.23677061
v 0.29812765 0.22680114 -0.21263364
v 0.29049086 0.22888722 -0.20467680
v 0.32856691 0.27184180 -0.25619013
v 0.29795725 0.21548334 -0.21297050
v 0.30208349 0.18345200 -0.22339561
v 0.30119601 0.18059599 -0.22263500
v 0.29604063 0.18715609 -0.21767686
v 0.31066104 0.24120969 -0.23015216
v 0.29734570 0.20346037 -0.21500363
v 0.29023075 0.22541351 -0.20647381
v 0.28077578 0.23309909 -0.19660444
v 0.32060812 0.25352213 -0.24376061
v 0.32871117 0.26834539 -0.25544652
v 0.29527544 0.23155034 -0.20847624
v 0.29313180 0.18736243 -0.21540334
v 0.29175763 0.21911077 -0.20848837
v 0.32977598 0.27746011 -0.25908173
v 0.27185814 0.23507618 -0.19096778
v 0.29222482 0.20643638 -0.21078245
v 0.28268624 0.18763264 -0.20871376
v 0.29100910 0.21448707 -0.20863224
v 0.25944161 0.24142838 -0.18243531
v 0.26503188 0.23879353 -0.18626613
v 0.25703029 0.24312964 -0.18064686
v 0.24646925 0.24995828 -0.17166299
v 0.24289079 0.25415731 -0.16791538
v 0.23743849 0.25909567 -0.16141070
v 0.23350275 0.26606901 -0.15516225
v 0.24211527 0.24347018 -0.17216599
v 0.25903733 0.22124465 -0.19156961
v 0.32595414 0.27522502 -0.25539237
v 0.26406177 0.22268378 -0.19451439
v 0.31460375 0.27562813 -0.24943963
v 0.28821606 0.22232097 -0.20589965
v 0.31939568 0.25816743 -0.24457498
v 0.27560956 0.19512094 -0.20511387
v 0.28524822 0.19197508 -0.21001807
v 0.28137453 0.22127722 -0.20307592
v 0.28235305 0.20140111 -0.20702472
v 0.26876061 0.20508585 -0.20061008
v 0.25748175 0.23053552 -0.18691228
v 0.21753134 0.28839372 -0.15328719
v 0.21563801 0.29489431 -0.14976131
v 0.21995525 0.28225924 -0.15689300
v 0.22447450 0.27320449 -0.16469500
v 0.23278949 0.26321201 -0.17569650
v 0.22107300 0.27987501 -0.15805900
v 0.28406779 0.25852147 -0.22539087
v 0.28569732 0.25715414 -0.22318875
v 0.29825293 0.26271485 -0.23513122
v 0.27750041 0.25296139 -0.21511956
v 0.26781731 0.24873539 -0.20380712
v 0.25883417 0.24776554 -0.19141616
v 0.26512273 0.24862581 -0.20191979
v 0.26502326 0.24492021 -0.19436459
v 0.28428343 0.24096500 -0.20690093
v 0.26371729 0.24821541 -0.19922421
v 0.28900713 0.24393360 -0.21480596
v 0.23272321 0.26930763 -0.15943687
v 0.23561888 0.26577740 -0.16239535
v 0.23126514 0.27257457 -0.15479663
v 0.22928598 0.27555647 -0.15346953
v 0.24078029 0.25864456 -0.17411401
v 0.21861000 0.29237500 -0.14746100
v 0.24403006 0.25560357 -0.17926407
v 0.22513997 0.28859690 -0.14397728
v 0.24923686 0.25203533 -0.17941599
v 0.23910845 0.26105663 -0.16791567
v 0.22744368 0.28073952 -0.14895388
v 0.25258777 0.25000836 -0.18138638
v 0.24224100 0.25740667 -0.16996473
f 170 148 149
f 172 148 170
f 175 148 172
f 175 168 148
f 148 168 153
f 168 151 153
f 165 151 168
f 167 165 168
f 175 167 168
f 167 166 165
f 165 166 151
f 166 152 151
f 166 174 152
f 166 177 174
f 177 171 174
f 177 87 171
f 87 173 171
f 173 14 171
f 173 176 14
f 176 15 14
f 85 15 176
f 89 85 176
f 176 87 89
f 85 159 15
f 85 86 159
f 163 15 159
f 161 163 159
f 163 161 158
f 163 158 160
f 158 58 160
f 160 58 15
f 158 16 58
f 157 16 158
f 69 157 158
f 164 69 158
f 162 164 158
f 164 162 77
f 77 70 164
f 81 77 162
f 80 81 162
f 88 80 162
f 88 162 161
f 88 161 86
f 164 70 69
f 69 71 157
f 71 154 157
f 71 155 154
f 72 154 155
f 72 10 154
f 10 9 154
f 16 154 9
f 82 9 10
f 10 72 74
f 74 156 10
f 72 155 71
f 157 154 16
f 161 162 158
f 15 163 160
f 171 14 152
f 87 176 173
f 174 171 169
f 169 171 152
f 166 134 177
f 134 133 177
f 177 133 87
f 133 132 87
f 132 133 131
f 87 132 131
f 87 131 130
f 87 130 83
f 83 130 128
f 83 128 129
f 79 83 129
f 129 117 79
f 129 124 117
f 129 147 124
f 129 135 147
f 147 135 136
f 147 136 138
f 117 147 138
f 117 138 108
f 108 138 116
f 116 138 144
f 144 138 146
f 144 146 140
f 146 145 140
f 145 146 142
f 64 142 146
f 142 64 65
f 126 142 65
f 143 142 126
f 143 126 121
f 125 143 121
f 140 143 125
f 127 140 125
f 140 127 122
f 116 140 122
f 116 122 110
f 107 116 110
f 107 110 101
f 110 98 101
f 110 115 98
f 110 125 115
f 98 115 111
f 115 113 111
f 121 113 115
f 121 68 113
f 68 121 65
f 68 111 113
f 112 111 68
f 99 111 112
f 99 112 20
f 20 19 99
f 105 99 19
f 99 105 100
f 100 105 18
f 18 21 100
f 22 100 21
f 23 100 22
f 23 22 24
f 23 24 26
f 22 17 24
f 23 99 100
f 98 99 23
f 95 98 23
f 95 23 25
f 95 25 26
f 96 95 26
f 104 95 96
f 73 104 96
f 120 104 73
f 120 102 104
f 107 102 120
f 120 108 107
f 120 117 108
f 117 120 78
f 78 120 73
f 114 73 96
f 114 96 97
f 114 97 106
f 114 106 118
f 118 141 114
f 141 118 92
f 92 119 141
f 141 119 109
f 109 76 141
f 76 75 141
f 137 76 109
f 109 123 137
f 13 137 123
f 13 12 137
f 12 139 137
f 139 11 137
f 137 11 76
f 119 92 1
f 109 119 1
f 123 109 1
f 13 123 1
f 1 92 56
f 92 57 56
f 118 103 92
f 93 103 118
f 93 91 103
f 94 103 91
f 92 94 91
f 92 91 90
f 92 90 2
f 90 48 2
f 90 53 48
f 53 46 48
f 53 31 46
f 53 32 31
f 54 32 53
f 55 54 53
f 54 28 32
f 27 28 54
f 27 50 28
f 50 29 28
f 29 50 30
f 30 50 47
f 47 44 30
f 44 47 49
f 47 51 49
f 51 52 49
f 49 52 45
f 38 49 45
f 42 49 38
f 44 42 38
f 38 45 43
f 43 45 7
f 7 45 8
f 43 7 6
f 6 39 43
f 36 39 6
f 36 38 39
f 35 38 36
f 35 30 38
f 35 36 37
f 35 37 34
f 37 41 34
f 41 37 6
f 41 6 5
f 4 41 5
f 46 41 4
f 40 41 46
f 46 34 40
f 3 46 4
f 34 41 40
f 32 35 34
f 32 29 35
f 32 34 33
f 34 31 33
f 37 36 6
f 38 43 39
f 44 49 42
f 30 44 38
f 30 35 29
f 26 50 27
f 28 29 32
f 32 33 31
f 48 46 2
f 91 53 90
f 93 53 91
f 93 26 53
f 93 97 26
f 92 103 94
f 141 75 114
f 106 93 118
f 106 97 93
f 114 75 73
f 104 102 95
f 101 95 102
f 96 26 97
f 105 19 18
f 112 68 20
f 98 111 99
f 95 101 98
f 107 101 102
f 122 127 110
f 127 125 110
f 115 125 121
f 126 65 121
f 145 142 143
f 140 145 143
f 146 138 64
f 138 63 64
f 140 116 144
f 107 108 116
f 138 136 63
f 136 62 63
f 135 62 136
f 59 62 135
f 135 60 59
f 133 60 135
f 133 135 131
f 130 131 135
f 130 135 128
f 133 61 60
f 66 61 133
f 67 66 133
f 128 135 129
f 147 117 124
f 117 78 79
f 79 84 83
f 85 83 84
f 167 134 166
f 175 134 167
f 174 169 152
f 148 153 150

