v -0.31313 0.099888 -0.177583
v -0.317149 0.102027 -0.183296
v -0.321169 0.104165 -0.189009
v -0.326904 0.0991386 -0.195955
v -0.330525 0.101146 -0.201958
v -0.324949 0.106225 -0.194896
v -0.332428 0.0940579 -0.203058
v -0.319408 0.0951159 -0.184149
v -0.323214 0.0971292 -0.190006
v -0.32689 0.0827021 -0.192353
v -0.330594 0.0847653 -0.198281
v -0.334298 0.0868285 -0.204209
v -0.321277 0.0878873 -0.185301
v -0.324981 0.0899505 -0.191229
v -0.328685 0.0920137 -0.197157
v -0.315664 0.0930725 -0.178249
v -0.3325 0.077523 -0.199395
v -0.32316 0.0806803 -0.186361
v -0.31745 0.0858541 -0.179401
v -0.320674 0.0717087 -0.182021
v -0.324575 0.073562 -0.187791
v -0.315133 0.076923 -0.174959
v -0.319033 0.0787764 -0.18073
v -0.313492 0.0839907 -0.173668
v -0.311851 0.0910584 -0.172377
v -0.311127 0.0749926 -0.169295
v -0.300602 0.0775633 -0.157551
v -0.304999 0.0797792 -0.162823
v -0.309396 0.081995 -0.168094
v -0.307666 0.0889975 -0.166893
v -0.303432 0.0867777 -0.161478
v -0.299259 0.0845646 -0.155936
v -0.297229 0.0916115 -0.154664
v -0.301553 0.0938173 -0.160106
v -0.305748 0.0960357 -0.165667
v -0.299149 0.100936 -0.159224
v -0.303184 0.103151 -0.164911
v -0.295008 0.0987172 -0.153603
v -0.292643 0.105852 -0.152608
v -0.296938 0.108075 -0.158134
v -0.301232 0.110298 -0.163659
v -0.305527 0.112522 -0.169185
v -0.294573 0.11521 -0.157139
v -0.298867 0.117433 -0.162664
v -0.303162 0.119656 -0.16819
v -0.292208 0.122345 -0.156144
v -0.296508 0.124553 -0.161618
v -0.300811 0.126754 -0.167067
v -0.307363 0.121796 -0.17376
v -0.311117 0.123647 -0.179811
v -0.313537 0.116681 -0.180681
v -0.3173 0.118535 -0.186729
v -0.314935 0.125512 -0.185799
v -0.304663 0.128664 -0.173012
v -0.308613 0.13056 -0.178864
v -0.312563 0.132456 -0.184716
v -0.328477 0.124427 -0.205259
v -0.318797 0.12743 -0.191757
v -0.322439 0.129404 -0.197981
v -0.316401 0.13438 -0.190703
v -0.3262 0.131323 -0.204182
v -0.32017 0.136296 -0.196902
v -0.331956 0.126339 -0.211595
v -0.330849 0.126388 -0.218834
v -0.326524 0.131811 -0.211162
v -0.321618 0.137025 -0.203773
v -0.315951 0.141484 -0.203823
v -0.315095 0.141392 -0.196953
v -0.306883 0.143986 -0.191739
v -0.313489 0.140878 -0.190055
v -0.300867 0.141606 -0.179369
v -0.303967 0.142842 -0.185471
v -0.291927 0.136724 -0.169751
v -0.296608 0.13935 -0.174362
v -0.297829 0.133268 -0.166667
v -0.302271 0.135621 -0.171904
v -0.306228 0.137512 -0.177766
v -0.310186 0.139402 -0.183629
v -0.292687 0.130151 -0.162381
v -0.28723 0.126824 -0.158685
v -0.281611 0.123127 -0.156085
v -0.286382 0.118283 -0.153573
v -0.28026 0.114565 -0.152336
v -0.287666 0.103372 -0.148561
v -0.284256 0.109208 -0.150186
v -0.29042 0.0964135 -0.148673
v -0.282909 0.0943638 -0.149044
v -0.280812 0.100605 -0.148339
v -0.284958 0.0877054 -0.150086
v -0.28614 0.0816845 -0.152185
v -0.293606 0.0827279 -0.152213
v -0.294174 0.0702062 -0.158527
v -0.293955 0.0764498 -0.155651
v -0.305599 0.0618165 -0.173653
v -0.313403 0.058031 -0.179574
v -0.318408 0.0529506 -0.178665
v -0.309855 0.0561309 -0.173407
v -0.307944 0.0553736 -0.166373
v -0.302853 0.0603562 -0.166999
v -0.301212 0.0595278 -0.159844
v -0.296691 0.0647198 -0.160066
v -0.291966 0.0696193 -0.153101
v -0.288001 0.0752187 -0.153217
v -0.278957 0.10649 -0.14839
v -0.279204 0.112962 -0.145814
v -0.27842 0.105174 -0.141451
v -0.280382 0.121303 -0.149734
v -0.283203 0.12976 -0.153096
v -0.30911 0.0977495 -0.17187
v -0.318993 0.111337 -0.188029
v -0.28957 0.140455 -0.162005
v -0.291967 0.142607 -0.167942
v -0.295561 0.144474 -0.173536
v -0.287389 0.134225 -0.164997
v -0.282743 0.136987 -0.15076
v -0.283597 0.146412 -0.155098
v -0.287785 0.14926 -0.160084
v -0.265751 0.134398 -0.136328
v -0.270276 0.137437 -0.140953
v -0.274801 0.140477 -0.145577
v -0.279325 0.143517 -0.150202
v -0.280238 0.152957 -0.154472
v -0.266331 0.143689 -0.140769
v -0.271 0.146793 -0.14532
v -0.27567 0.149897 -0.14987
v -0.271793 0.156148 -0.149372
v -0.275811 0.158529 -0.154813
v -0.271089 0.163804 -0.155485
v -0.27537 0.166604 -0.160646
v -0.280124 0.161374 -0.159926
v -0.284973 0.164981 -0.16423
v -0.279687 0.169464 -0.165751
v -0.283944 0.172347 -0.17086
v -0.287554 0.174859 -0.176545
v -0.293292 0.170678 -0.174719
v -0.296715 0.173137 -0.180723
v -0.299353 0.17488 -0.18739
v -0.301384 0.175848 -0.194558
v -0.289248 0.167933 -0.169289
v -0.297277 0.162895 -0.175184
v -0.314851 0.109367 -0.182296
v -0.296944 0.152159 -0.170566
v -0.291955 0.152091 -0.165184
v -0.292793 0.161468 -0.169739
v -0.288559 0.158623 -0.164577
v -0.290625 0.176757 -0.182823
v -0.274624 0.174029 -0.166993
v -0.278922 0.17704 -0.172019
v -0.283279 0.180275 -0.176937
v -0.287488 0.183302 -0.182057
v -0.294363 0.17938 -0.188356
v -0.291516 0.186147 -0.187358
v -0.298125 0.181942 -0.19407
v -0.301859 0.184329 -0.199945
v -0.308755 0.18884 -0.211923
v -0.32299 0.113322 -0.193833
v -0.307299 0.179681 -0.20722
v -0.310519 0.181823 -0.213332
v -0.303976 0.177454 -0.201161
v -0.305581 0.186742 -0.205782
v -0.299447 0.191308 -0.198741
v -0.29553 0.188789 -0.192915
v -0.286569 0.190943 -0.188327
v -0.293288 0.194454 -0.200336
v -0.302259 0.192958 -0.205305
v -0.290536 0.193403 -0.193974
v -0.328563 0.108252 -0.20089
v -0.282262 0.18786 -0.183261
v -0.336101 0.0960676 -0.209019
v -0.273549 0.180401 -0.174113
v -0.27784 0.184159 -0.17865
v -0.337855 0.0889206 -0.210183
v -0.318679 0.0656948 -0.184574
v -0.323182 0.0671645 -0.190141
v -0.335446 0.0829498 -0.21248
v -0.261609 0.148141 -0.142319
v -0.26146 0.139821 -0.136724
v -0.266258 0.152623 -0.145833
v -0.260731 0.130733 -0.132678
v -0.259206 0.121548 -0.129076
v -0.262868 0.115658 -0.128719
v -0.265829 0.109175 -0.129482
v -0.27071 0.111975 -0.134035
v -0.267642 0.11856 -0.133216
v -0.272246 0.121547 -0.13774
v -0.27685 0.124534 -0.142265
v -0.334887 0.0799281 -0.205863
v -0.331138 0.0745744 -0.208881
v -0.267496 0.181897 -0.17748
v -0.271723 0.185461 -0.182143
v -0.284648 0.155898 -0.15925
v -0.264472 0.125032 -0.132452
v -0.269104 0.12805 -0.136961
v -0.273736 0.131068 -0.14147
v -0.278369 0.134086 -0.145979
v -0.286802 0.139764 -0.155842
v -0.281017 0.127504 -0.147176
v -0.329098 0.0718793 -0.20243
v -0.277274 0.111395 -0.13954
v -0.284102 0.0801987 -0.145973
v -0.282195 0.0863911 -0.145251
v -0.280288 0.0925834 -0.144529
v -0.278381 0.0987757 -0.143807
v -0.296191 0.0642881 -0.152918
v -0.290749 0.0687873 -0.14615
v -0.287035 0.0743802 -0.146231
v -0.32646 0.0693623 -0.196193
v -0.328658 0.0755039 -0.193479
v -0.31737 0.0304369 -0.177359
v -0.321497 0.0321912 -0.183044
v -0.320705 0.0393719 -0.181495
v -0.324041 0.0483069 -0.185631
v -0.316799 0.0374535 -0.175594
v -0.316065 0.0444367 -0.173922
v -0.320385 0.0463996 -0.17957
v -0.313204 0.0285472 -0.171717
v -0.308123 0.033693 -0.164708
v -0.312471 0.0355289 -0.170041
v -0.311738 0.0425106 -0.168365
v -0.30712 0.0404657 -0.163116
v -0.306046 0.0471836 -0.161546
v -0.31091 0.0494194 -0.166719
v -0.304972 0.0539014 -0.159977
v -0.315167 0.0513984 -0.172349
v -0.324986 0.0563391 -0.191572
v -0.316566 0.0698658 -0.176311
v -0.306638 0.0727468 -0.164148
v -0.321701 0.0545736 -0.185042
v -0.317098 0.0601154 -0.185934
v -0.320408 0.0619178 -0.192625
v -0.300344 0.0716798 -0.161606
v -0.3263 0.13201 -0.218391
v -0.321818 0.137265 -0.210927
v -0.333078 0.120061 -0.226518
v -0.331837 0.127054 -0.225072
v -0.331661 0.1334 -0.221797
v -0.325296 0.144318 -0.212927
v -0.324912 0.138567 -0.216837
v -0.30989 0.145975 -0.197458
v -0.301535 0.148356 -0.184892
v -0.306128 0.150055 -0.189959
v -0.292649 0.0893895 -0.149557
v -0.309483 0.11473 -0.174916
v -0.320422 0.148715 -0.205378
v -0.31195 0.151155 -0.193673
v -0.314574 0.1476 -0.20189
v -0.3191 0.14308 -0.209953
v -0.334147 0.119954 -0.21943
v -0.337446 0.113442 -0.22037
v -0.338451 0.106138 -0.221348
v -0.336934 0.0920078 -0.222846
v -0.33795 0.0988972 -0.222127
v -0.338078 0.0906759 -0.216446
v -0.339411 0.0980824 -0.215268
v -0.337911 0.1052 -0.214287
v -0.334243 0.103176 -0.208048
v -0.332413 0.110283 -0.207101
v -0.336271 0.112313 -0.21332
v -0.326724 0.115359 -0.199936
v -0.321034 0.120436 -0.192771
v -0.330576 0.117388 -0.206158
v -0.334316 0.11939 -0.212432
v -0.324816 0.122448 -0.199025
v -0.290532 0.112991 -0.151499
f 2 8 16 1
f 16 25 109 1
f 141 110 3 2
f 3 9 8 2
f 6 4 9 3
f 6 167 5 4
f 5 7 15 4
f 15 14 9 4
f 167 257 256 5
f 256 169 7 5
f 156 259 167 6
f 169 172 12 7
f 12 11 15 7
f 9 14 13 8
f 13 19 16 8
f 14 15 11 10
f 11 17 208 10
f 208 21 18 10
f 18 13 14 10
f 12 187 17 11
f 172 175 187 12
f 18 23 19 13
f 19 24 25 16
f 187 188 198 17
f 198 207 208 17
f 21 20 23 18
f 23 22 24 19
f 21 174 173 20
f 226 22 23 20
f 208 207 174 21
f 26 29 24 22
f 29 30 25 24
f 227 28 29 26
f 32 31 28 27
f 28 227 231 27
f 231 92 93 27
f 93 91 32 27
f 31 30 29 28
f 31 34 35 30
f 32 33 34 31
f 91 242 33 32
f 38 36 34 33
f 242 86 38 33
f 36 37 35 34
f 40 41 37 36
f 38 39 40 36
f 86 84 39 38
f 264 43 40 39
f 84 85 264 39
f 43 44 41 40
f 44 45 42 41
f 45 49 243 42
f 46 47 44 43
f 264 82 46 43
f 47 48 45 44
f 48 54 49 45
f 80 79 47 46
f 82 81 80 46
f 79 75 48 47
f 75 76 54 48
f 54 55 50 49
f 55 56 53 50
f 53 52 51 50
f 53 58 260 52
f 56 60 58 53
f 76 77 55 54
f 77 78 56 55
f 78 70 60 56
f 61 65 63 57
f 63 262 261 57
f 261 259 263 57
f 263 59 61 57
f 60 62 59 58
f 59 263 260 58
f 62 66 61 59
f 70 68 62 60
f 66 233 65 61
f 68 67 66 62
f 65 232 64 63
f 64 248 262 63
f 232 236 235 64
f 235 234 248 64
f 233 238 232 65
f 67 247 233 66
f 246 244 247 67
f 68 239 246 67
f 70 69 239 68
f 241 245 239 69
f 70 78 72 69
f 72 240 241 69
f 72 78 77 71
f 77 76 74 71
f 112 113 74 73
f 74 76 75 73
f 75 79 114 73
f 114 111 112 73
f 107 197 108 81
f 264 85 83 82
f 86 87 88 84
f 242 89 87 86
f 89 201 202 87
f 202 203 88 87
f 242 91 90 89
f 90 200 201 89
f 91 93 103 90
f 103 206 200 90
f 101 204 102 92
f 102 103 93 92
f 97 98 99 94
f 229 228 96 95
f 96 224 97 95
f 228 212 215 96
f 215 214 224 96
f 224 222 98 97
f 222 221 223 98
f 223 100 99 98
f 205 206 103 102
f 106 199 105 104
f 197 195 115 108
f 121 116 196 115
f 195 120 121 115
f 122 191 117 116
f 121 125 122 116
f 191 145 143 117
f 177 123 119 118
f 119 194 193 118
f 193 192 179 118
f 123 124 120 119
f 120 195 194 119
f 124 125 121 120
f 127 130 191 122
f 125 126 127 122
f 176 178 124 123
f 128 129 130 127
f 132 131 130 129
f 131 145 191 130
f 132 133 139 131
f 139 144 145 131
f 147 148 133 132
f 148 149 134 133
f 134 135 139 133
f 149 150 146 134
f 146 136 135 134
f 140 144 139 135
f 146 151 137 136
f 151 153 138 137
f 153 154 159 138
f 143 145 144 142
f 150 152 151 146
f 170 171 149 148
f 168 163 152 150
f 152 162 153 151
f 163 166 162 152
f 162 161 154 153
f 161 165 160 154
f 160 157 159 154
f 158 157 160 155
f 162 166 164 161
f 189 190 171 170
f 192 184 181 180
f 184 183 182 181
f 192 193 185 184
f 193 194 186 185
f 213 211 210 209
f 216 218 213 209
f 213 214 215 211
f 218 219 214 213
f 219 222 224 214
f 220 219 218 217
f 220 221 222 219
f 228 229 230 225
f 247 237 238 233
f 249 258 262 248
f 250 255 258 249
f 252 254 255 250
f 253 254 252 251
f 172 169 254 253
f 169 256 255 254
f 256 257 258 255
f 261 262 258 257
f 167 259 261 257
f 156 260 263 259
