# https://github.com/mikedh/trimesh
v -0.29735151 0.31130176 -0.24113375
v -0.29907695 0.31804391 -0.24131279
v -0.30011593 0.33181228 -0.24043058
v -0.30583903 0.31799489 -0.23706733
v -0.30386400 0.33105875 -0.23780050
v -0.29879501 0.33461401 -0.24062701
v -0.30495274 0.29677749 -0.23076416
v -0.29390275 0.28895526 -0.23301872
v -0.29525075 0.30263975 -0.23904000
v -0.29420427 0.29520290 -0.23659976
v -0.29106399 0.28753400 -0.23301800
v -0.28991200 0.28506451 -0.23144601
v -0.28701600 0.27818274 -0.22685350
v -0.29416587 0.26858350 -0.20982844
v -0.30188501 0.28037000 -0.22153699
v -0.27931100 0.26006600 -0.20370600
v -0.26475850 0.25266950 -0.18626650
v -0.27371158 0.25698334 -0.19912740
v -0.27086225 0.25162463 -0.17917932
v -0.27612747 0.25433650 -0.18737668
v -0.26873500 0.25560313 -0.19475713
v -0.28796896 0.26512710 -0.20843326
v -0.25745001 0.25000599 -0.17046100
v -0.28428529 0.26812492 -0.21688369
v -0.27513200 0.25999001 -0.20567299
v -0.26323289 0.24988921 -0.16945817
v -0.26686755 0.25366704 -0.18991298
v -0.26933849 0.25036850 -0.17509000
v -0.28629782 0.26072623 -0.20020169
v -0.25471261 0.24959828 -0.16114681
v -0.29053946 0.26490312 -0.20655137
v -0.28008640 0.26416206 -0.21281644
v -0.28511658 0.27170672 -0.22120687
v -0.29581671 0.27564359 -0.21859642
v -0.27746150 0.37138450 -0.20925900
v -0.27971824 0.37523551 -0.20861125
v -0.25600000 0.35147350 -0.20771150
v -0.26336150 0.35810151 -0.20890024
v -0.25335149 0.34922149 -0.20707850
v -0.24910299 0.34187600 -0.20873100
v -0.24348725 0.34798738 -0.19401312
v -0.23548349 0.32922900 -0.19884300
v -0.23135200 0.32640600 -0.19071899
v -0.23725700 0.33443999 -0.19783001
v -0.23912500 0.33807099 -0.19777900
v -0.24142000 0.34314501 -0.19641399
v -0.24233502 0.35221584 -0.18556916
v -0.24518638 0.34233301 -0.20318800
v -0.24945774 0.36238625 -0.18457200
v -0.23796698 0.34760075 -0.17864984
v -0.24085344 0.35400946 -0.17449753
v -0.23622885 0.34018454 -0.18849217
v -0.23316201 0.33710699 -0.18029650
v -0.23597229 0.34232296 -0.18279664
v -0.23640000 0.34537600 -0.17559100
v -0.23227800 0.33286601 -0.18514700
v -0.24579725 0.36305325 -0.17018125
v -0.23042050 0.32506150 -0.18843800
v -0.23500928 0.33526753 -0.19248269
v -0.23134001 0.32921800 -0.18707301
v -0.29633701 0.35330901 -0.23573799
v -0.29182601 0.36402100 -0.22883400
v -0.28537300 0.36872399 -0.21720999
v -0.28718275 0.36903824 -0.21953725
v -0.29315006 0.34791372 -0.23217948
v -0.29021062 0.30610090 -0.23385439
v -0.29319516 0.29780434 -0.23689887
v -0.29236171 0.30824627 -0.23593241
v -0.24306655 0.26881961 -0.15068677
v -0.24502168 0.26539763 -0.15331013
v -0.26460877 0.25734747 -0.19010738
v -0.25800481 0.34811841 -0.21252065
v -0.25433171 0.33872969 -0.21558613
v -0.25137483 0.33968782 -0.21249136
v -0.24681994 0.32870599 -0.21471833
v -0.24880596 0.32755975 -0.21615856
v -0.25503870 0.32124163 -0.22155567
v -0.23971052 0.31893877 -0.20939210
v -0.24712136 0.32039851 -0.21631491
v -0.25370597 0.31728239 -0.22101293
v -0.24459075 0.31279502 -0.21447016
v -0.26124180 0.30854682 -0.22462835
v -0.26059800 0.31723899 -0.22454201
v -0.27471861 0.31130303 -0.23013824
v -0.27558699 0.31977400 -0.23056699
v -0.25188878 0.30524076 -0.21922564
v -0.29085062 0.31780478 -0.23483904
v -0.26777089 0.31433193 -0.22786705
v -0.28362177 0.31062732 -0.23236567
v -0.27232290 0.30114091 -0.22737074
v -0.25978993 0.30362079 -0.22289346
v -0.26112284 0.29172590 -0.21971316
v -0.24377599 0.30685301 -0.21359642
v -0.28764648 0.29759594 -0.23095686
v -0.25338194 0.29545866 -0.21672792
v -0.28316583 0.28567918 -0.22465854
v -0.27937934 0.27588494 -0.21768060
v -0.27669606 0.28485778 -0.22186568
v -0.25723809 0.28303156 -0.21205389
v -0.26995972 0.26462021 -0.20229297
v -0.24483712 0.28998367 -0.20771848
v -0.24664100 0.28068101 -0.20174301
v -0.26270699 0.27493406 -0.20817602
v -0.26661186 0.26311669 -0.19698765
v -0.24307849 0.28614014 -0.20367327
v -0.25196205 0.27697991 -0.20297373
v -0.25193345 0.27094637 -0.19609931
v -0.26373322 0.34585087 -0.21812304
v -0.26772549 0.35897384 -0.21178493
v -0.27615240 0.35378899 -0.22036408
v -0.26020400 0.33186012 -0.22244386
v -0.28898543 0.35644328 -0.22528627
v -0.27703697 0.34821348 -0.22368731
v -0.26877367 0.33783173 -0.22466571
v -0.29038375 0.34739920 -0.22938354
v -0.29043985 0.34203242 -0.23102160
v -0.29143271 0.32657077 -0.23458058
v -0.26895229 0.32200013 -0.22809113
v -0.27277657 0.32670139 -0.22921143
v -0.24279326 0.26814204 -0.15742812
v -0.24054779 0.26966000 -0.16454445
v -0.23610612 0.27581151 -0.16460059
v -0.23952016 0.27546452 -0.14859783
v -0.24980290 0.26007300 -0.16433539
v -0.23402649 0.27893638 -0.17203374
v -0.23728007 0.27404714 -0.17238846
v -0.23113870 0.28595553 -0.16064282
v -0.23167340 0.28324437 -0.17176464
v -0.24340817 0.26652531 -0.16963743
v -0.24437263 0.26751507 -0.17916019
v -0.23589961 0.28571594 -0.14317323
v -0.23819848 0.27853383 -0.14310503
v -0.22911861 0.29132626 -0.16390800
v -0.23468369 0.28950597 -0.14255682
v -0.23423298 0.29473191 -0.13863624
v -0.23007567 0.29079129 -0.15824070
v -0.22809100 0.29411340 -0.17118903
v -0.23443999 0.28030160 -0.18114339
v -0.22932677 0.28965154 -0.17357165
v -0.23858107 0.27294854 -0.17529636
v -0.24014371 0.27246878 -0.18004421
v -0.22895699 0.29250734 -0.17904361
v -0.23126329 0.28751231 -0.18183094
v -0.22699900 0.30064300 -0.17279200
v -0.23364300 0.29914501 -0.13683499
v -0.24040035 0.27420519 -0.18478475
v -0.23135715 0.29965118 -0.19512064
v -0.22865547 0.29655781 -0.18411341
v -0.23697129 0.27966358 -0.18703835
v -0.23366570 0.28868241 -0.19106247
v -0.25398883 0.25763580 -0.17145196
v -0.22935045 0.29933897 -0.18859048
v -0.24692679 0.26411051 -0.17430078
v -0.23281292 0.29398925 -0.19385396
v -0.24242800 0.27208900 -0.18472500
v -0.24354777 0.27614564 -0.19327340
v -0.23705872 0.28596333 -0.19481398
v -0.24714287 0.27171699 -0.19207304
v -0.24796601 0.26563200 -0.18149000
v -0.24183238 0.28148763 -0.19748898
v -0.25200840 0.26501827 -0.18634278
v -0.25754627 0.25787494 -0.17931685
v -0.24041544 0.28551008 -0.19950413
v -0.22785416 0.32263860 -0.17684985
v -0.22878615 0.32153942 -0.18540308
v -0.23027343 0.33116207 -0.17226711
v -0.23166057 0.33539992 -0.17385429
v -0.22795315 0.32267489 -0.16718521
v -0.22894897 0.32647169 -0.16492759
v -0.23549800 0.34284449 -0.15418925
v -0.23248289 0.33695384 -0.16207644
v -0.23946300 0.35313625 -0.16209524
v -0.23630436 0.34665859 -0.16542097
v -0.23062132 0.33009512 -0.18152354
v -0.23132101 0.32837099 -0.15103100
v -0.22700489 0.31745473 -0.16774813
v -0.22755463 0.31655897 -0.16258826
v -0.22719024 0.30985520 -0.18353523
v -0.22975556 0.32157905 -0.15162761
v -0.22769128 0.31263128 -0.15966381
v -0.22688845 0.31115889 -0.16596896
v -0.23005979 0.31423149 -0.14682522
v -0.23322000 0.32328701 -0.13814200
v -0.22813560 0.31432941 -0.18731458
v -0.22667401 0.31024301 -0.17691500
v -0.22668503 0.30685712 -0.16610334
v -0.23308505 0.30271731 -0.13734278
v -0.23263000 0.31481601 -0.13796801
v -0.22765632 0.30012624 -0.16175437
v -0.22714648 0.30176776 -0.16680175
v -0.22679073 0.30237293 -0.17646690
v -0.23099137 0.29578208 -0.14870790
v -0.22765300 0.30436400 -0.18430300
v -0.23991491 0.33542402 -0.20202066
v -0.24329457 0.32811949 -0.21085418
v -0.23693165 0.32586274 -0.20372835
v -0.23407270 0.31842487 -0.20257981
v -0.23134434 0.31510616 -0.19718811
v -0.22994378 0.30952228 -0.19440990
v -0.23386932 0.30893317 -0.20198573
v -0.23586318 0.30026088 -0.20323762
v -0.23939167 0.30873536 -0.20922478
v -0.22876776 0.30391193 -0.18917366
v -0.23732766 0.29098664 -0.19993489
v -0.24257428 0.29320279 -0.20782568
f 5 3 6
f 3 5 4
f 3 4 2
f 1 2 4
f 4 7 1
f 1 7 8
f 15 8 7
f 34 8 15
f 34 15 14
f 31 34 14
f 22 34 31
f 22 24 34
f 24 33 34
f 33 13 34
f 12 34 13
f 32 33 24
f 32 24 22
f 32 22 29
f 32 29 16
f 18 32 16
f 18 21 32
f 18 27 21
f 21 27 17
f 71 21 17
f 21 71 100
f 71 104 100
f 103 100 104
f 103 104 107
f 161 107 104
f 158 107 161
f 130 158 161
f 130 161 159
f 159 161 162
f 130 159 162
f 130 162 153
f 153 162 151
f 71 151 162
f 153 151 129
f 120 129 151
f 121 129 120
f 121 126 129
f 126 140 129
f 140 130 129
f 140 141 130
f 140 138 141
f 138 146 141
f 138 149 146
f 149 158 146
f 156 158 149
f 106 158 156
f 160 106 156
f 160 102 106
f 160 105 102
f 163 105 160
f 157 163 160
f 149 157 160
f 150 157 149
f 105 157 150
f 204 105 150
f 154 204 150
f 201 204 154
f 204 201 205
f 204 205 101
f 205 99 101
f 205 92 99
f 95 92 205
f 86 95 205
f 93 86 205
f 80 86 93
f 79 80 93
f 81 79 93
f 197 81 93
f 197 93 202
f 197 202 200
f 200 202 201
f 200 201 147
f 199 200 147
f 198 200 199
f 165 198 199
f 184 165 199
f 184 199 178
f 178 199 203
f 178 203 193
f 193 203 148
f 148 203 152
f 203 147 152
f 148 152 147
f 148 147 150
f 148 150 143
f 150 138 143
f 143 138 128
f 139 143 128
f 142 143 139
f 142 139 137
f 137 191 142
f 191 148 142
f 144 191 137
f 191 144 189
f 190 191 189
f 186 191 190
f 186 185 191
f 185 178 191
f 176 178 185
f 176 164 178
f 168 164 176
f 179 168 176
f 176 177 179
f 177 180 179
f 179 180 182
f 182 180 186
f 182 186 189
f 182 189 192
f 189 136 192
f 192 136 127
f 192 127 134
f 135 192 134
f 135 187 192
f 145 187 135
f 134 132 135
f 135 132 145
f 134 131 132
f 131 134 123
f 131 123 132
f 123 120 132
f 132 120 69
f 69 120 70
f 70 120 124
f 120 151 124
f 124 151 23
f 151 71 23
f 70 124 23
f 134 127 123
f 127 122 123
f 127 128 122
f 125 122 128
f 125 126 122
f 125 138 126
f 122 121 123
f 133 127 136
f 127 133 139
f 189 133 136
f 189 137 133
f 182 192 187
f 188 182 187
f 183 182 188
f 180 181 186
f 176 186 181
f 183 179 182
f 183 175 179
f 175 169 179
f 170 169 175
f 171 169 170
f 170 173 171
f 171 173 167
f 173 53 167
f 173 172 53
f 53 174 167
f 167 174 164
f 174 165 164
f 174 58 165
f 165 58 197
f 42 197 58
f 42 196 197
f 197 196 78
f 196 195 78
f 194 195 196
f 194 75 195
f 194 48 75
f 48 194 46
f 46 194 45
f 45 194 44
f 44 194 42
f 59 44 42
f 59 41 44
f 47 41 59
f 52 47 59
f 52 59 56
f 59 60 56
f 59 43 60
f 53 52 56
f 53 54 52
f 53 55 54
f 50 54 55
f 51 50 55
f 57 51 55
f 57 47 51
f 57 49 47
f 51 47 50
f 50 47 54
f 52 54 47
f 47 49 41
f 59 42 43
f 40 75 48
f 40 74 75
f 74 73 75
f 73 111 75
f 75 111 76
f 76 111 77
f 111 118 77
f 111 119 118
f 118 119 84
f 119 85 84
f 119 117 85
f 116 117 119
f 116 119 114
f 114 113 116
f 113 112 116
f 116 112 115
f 115 65 116
f 115 112 65
f 64 65 112
f 63 64 112
f 64 61 65
f 65 61 6
f 117 65 6
f 6 68 117
f 117 68 87
f 117 87 84
f 84 87 89
f 89 87 66
f 89 66 94
f 94 66 68
f 68 67 94
f 94 67 11
f 94 11 12
f 33 94 12
f 96 94 33
f 90 94 96
f 90 96 92
f 92 96 98
f 98 96 97
f 98 97 99
f 99 97 103
f 99 103 106
f 99 106 105
f 91 90 92
f 86 91 92
f 82 91 86
f 91 82 90
f 88 90 82
f 90 88 84
f 83 88 82
f 77 88 83
f 77 83 82
f 77 82 80
f 84 94 90
f 96 33 97
f 97 33 32
f 97 32 100
f 100 32 25
f 68 1 67
f 68 2 1
f 1 9 67
f 89 94 84
f 87 68 66
f 6 2 68
f 64 62 61
f 110 112 113
f 110 113 108
f 63 110 108
f 109 63 108
f 72 109 108
f 38 109 72
f 37 38 72
f 39 37 72
f 39 72 40
f 72 108 73
f 38 63 109
f 38 35 63
f 35 36 63
f 63 112 110
f 114 108 113
f 108 114 111
f 116 65 117
f 85 117 84
f 118 84 88
f 111 114 119
f 118 88 77
f 79 76 77
f 76 79 78
f 108 111 73
f 72 73 74
f 40 72 74
f 195 76 78
f 195 75 76
f 42 194 196
f 164 166 167
f 171 166 164
f 53 58 174
f 171 167 166
f 170 172 173
f 171 164 169
f 180 177 181
f 177 176 181
f 168 179 169
f 164 168 169
f 176 185 186
f 186 190 189
f 189 144 137
f 133 137 139
f 139 128 127
f 128 138 125
f 142 148 143
f 191 193 148
f 178 193 191
f 164 184 178
f 165 184 164
f 165 197 198
f 203 199 147
f 198 197 200
f 202 93 201
f 78 81 197
f 78 79 81
f 77 80 79
f 80 82 86
f 86 92 95
f 98 99 92
f 101 99 105
f 93 205 201
f 147 201 154
f 147 154 150
f 204 101 105
f 105 163 157
f 102 105 106
f 149 160 156
f 155 146 158
f 146 155 130
f 138 150 149
f 141 146 130
f 126 138 140
f 126 121 122
f 123 121 120
f 129 130 153
f 155 158 130
f 106 107 158
f 161 104 162
f 106 103 107
f 103 97 100
f 104 71 162
f 21 100 25
f 71 17 23
f 27 18 20
f 17 27 20
f 23 17 20
f 23 20 19
f 26 23 19
f 30 23 26
f 26 19 28
f 19 20 28
f 18 29 20
f 18 16 29
f 29 22 31
f 34 12 8
f 11 8 12
f 8 11 10

