# https://github.com/mikedh/trimesh
v 0.28053801 -0.05970250 -0.11248000
v 0.28503299 -0.07171400 -0.12266900
v 0.24485150 -0.02391000 -0.05398750
v 0.24918801 -0.02335400 -0.06015800
v 0.26687763 -0.04238362 -0.08809850
v 0.23287800 -0.02552000 -0.04669300
v 0.23957050 -0.02296050 -0.05296500
v 0.29248199 -0.09028100 -0.14040101
v 0.29531801 -0.10183200 -0.14785901
v 0.30287099 -0.10180000 -0.15896299
v 0.21721800 -0.24729601 -0.11919000
v 0.26271600 -0.19799900 -0.15121201
v 0.23834675 -0.22238550 -0.13566375
v 0.23303190 -0.22814253 -0.13253934
v 0.24511600 -0.21587400 -0.13992600
v 0.24282221 -0.21725015 -0.13841394
v 0.25724275 -0.20394624 -0.14761875
v 0.25123687 -0.20949038 -0.14370850
v 0.30022250 -0.12766800 -0.17195175
v 0.29878520 -0.13387022 -0.17241457
v 0.29624051 -0.14470197 -0.17163689
v 0.27892816 -0.17980519 -0.16133891
v 0.28745746 -0.16737139 -0.16693202
v 0.29141294 -0.15820312 -0.16911286
v 0.28948445 -0.16245671 -0.16803348
v 0.30070299 -0.12112500 -0.17097300
v 0.30246001 -0.11586000 -0.16677800
v 0.30280834 -0.12148642 -0.16529030
v 0.29898155 -0.14153115 -0.16599528
v 0.29735762 -0.14537260 -0.16734777
v 0.29417950 -0.15487646 -0.16519510
v 0.29428622 -0.15093776 -0.17065536
v 0.28978526 -0.16447892 -0.16207667
v 0.28799024 -0.16754768 -0.16104141
v 0.30088806 -0.13414073 -0.16598597
v 0.29824613 -0.14378288 -0.16454090
v 0.29313065 -0.15766122 -0.16274758
v 0.30335599 -0.10609200 -0.16096300
v 0.24100492 -0.21869458 -0.13225857
v 0.23475696 -0.22542978 -0.12867334
v 0.25048582 -0.20910662 -0.13775344
v 0.21926966 -0.24402887 -0.11921278
v 0.22643594 -0.23520607 -0.12403992
v 0.25268530 -0.20783885 -0.14169298
v 0.27312566 -0.18751383 -0.15218018
v 0.26386994 -0.19677109 -0.14604950
v 0.27834305 -0.18139473 -0.15505904
v 0.28506850 -0.17267424 -0.15839989
v 0.23040412 -0.23085697 -0.12717726
v 0.24169953 -0.21848130 -0.13545163
v 0.28222288 -0.17492187 -0.16368147
v 0.28400312 -0.17237818 -0.16470392
v 0.24547398 -0.21404469 -0.13508200
v 0.29305412 -0.05423261 -0.13372650
v 0.28739079 -0.04380115 -0.12288620
v 0.28451995 -0.05357648 -0.11969273
v 0.28129975 -0.03409756 -0.11217023
v 0.29202315 -0.07307229 -0.13584461
v 0.29769900 -0.07506300 -0.14492100
v 0.30069270 -0.07889973 -0.15017774
v 0.30201526 -0.08760620 -0.15432052
v 0.27919704 -0.05191434 -0.10958712
v 0.26234418 -0.02198798 -0.08156861
v 0.26976675 -0.02466215 -0.09361412
v 0.29939699 -0.07204538 -0.14712373
v 0.25282271 -0.02070873 -0.06667398
v 0.25994525 -0.02163430 -0.07794233
v 0.29010172 -0.04833822 -0.13356996
v 0.27158357 -0.02509831 -0.09762902
v 0.25643505 -0.02024359 -0.07300030
v 0.24713640 -0.01936666 -0.06376518
v 0.24591018 -0.01700530 -0.06920624
v 0.24893052 -0.01646240 -0.07385798
v 0.24283113 -0.01838005 -0.06419334
v 0.24128746 -0.01834777 -0.06199569
v 0.23862318 -0.01987340 -0.05810097
v 0.23591561 -0.02158954 -0.05366650
v 0.24831275 -0.01877743 -0.06686670
v 0.29171947 -0.05523065 -0.14396073
v 0.29630426 -0.06973962 -0.15364687
v 0.29691715 -0.06375545 -0.14154895
v 0.29860977 -0.06900141 -0.14598122
v 0.29512972 -0.05835295 -0.13906884
v 0.29922464 -0.08382913 -0.16039902
v 0.28202376 -0.03430818 -0.11555939
v 0.30148579 -0.08921418 -0.15885950
v 0.30158308 -0.08436758 -0.15424065
v 0.28538709 -0.04174980 -0.13262395
v 0.28949600 -0.04900200 -0.14014401
v 0.27717387 -0.02926211 -0.10724697
v 0.27630405 -0.02925896 -0.10437755
v 0.25848656 -0.01816873 -0.08426132
v 0.26615532 -0.02241876 -0.08832352
v 0.26780650 -0.02250853 -0.09402834
v 0.29775644 -0.07676212 -0.15751799
v 0.28336720 -0.03765445 -0.12893278
v 0.28151213 -0.03522837 -0.12592766
v 0.27902637 -0.03221669 -0.12201937
v 0.29439333 -0.06224531 -0.14973397
v 0.28779471 -0.04518396 -0.13584127
v 0.27569246 -0.02877445 -0.11669656
v 0.29984492 -0.08742820 -0.16261001
v 0.30044535 -0.09357852 -0.16496541
v 0.30136775 -0.09858296 -0.16670964
v 0.27442530 -0.02745847 -0.11462747
v 0.26375027 -0.01800755 -0.09476748
v 0.30128871 -0.11253942 -0.16994837
v 0.27103467 -0.02437693 -0.10934201
v 0.25851941 -0.01728780 -0.08905328
v 0.25668659 -0.01726127 -0.08629418
v 0.25511766 -0.01632506 -0.08324034
v 0.25056619 -0.01643536 -0.07653584
v 0.25482557 -0.01740063 -0.07833853
v 0.25710298 -0.01854696 -0.07947801
f 39 40 14
f 40 49 14
f 43 49 40
f 49 43 14
f 43 11 14
f 43 42 11
f 39 14 50
f 53 39 50
f 53 50 16
f 53 16 15
f 53 15 44
f 44 41 53
f 44 15 18
f 44 18 17
f 46 44 17
f 46 17 12
f 46 12 45
f 47 45 12
f 47 12 22
f 47 22 48
f 51 48 22
f 48 51 52
f 48 52 23
f 48 23 34
f 48 34 33
f 48 33 37
f 37 33 25
f 37 25 31
f 31 25 24
f 32 31 24
f 31 32 21
f 30 31 21
f 29 31 30
f 36 31 29
f 35 36 29
f 29 21 35
f 35 21 20
f 19 35 20
f 28 35 19
f 28 19 27
f 28 27 38
f 27 19 26
f 27 26 107
f 10 27 107
f 10 107 104
f 10 104 103
f 86 10 103
f 102 86 103
f 86 102 84
f 87 86 84
f 87 61 86
f 60 61 87
f 60 87 84
f 60 84 95
f 80 60 95
f 65 60 80
f 65 80 82
f 82 80 99
f 81 82 99
f 83 81 99
f 83 99 79
f 83 79 89
f 68 83 89
f 68 89 100
f 100 88 68
f 55 68 88
f 55 88 96
f 55 96 97
f 55 97 98
f 55 98 85
f 85 98 90
f 90 98 105
f 105 98 101
f 108 90 105
f 108 69 90
f 69 108 106
f 94 69 106
f 92 94 106
f 106 109 92
f 92 109 110
f 114 92 110
f 114 110 111
f 114 111 113
f 113 67 114
f 63 114 67
f 70 67 113
f 66 70 113
f 66 113 73
f 73 113 112
f 66 73 78
f 73 72 78
f 78 72 74
f 71 78 74
f 74 75 71
f 71 75 76
f 71 76 77
f 7 71 77
f 7 77 6
f 3 71 7
f 71 3 4
f 66 71 4
f 66 78 71
f 113 111 112
f 63 92 114
f 92 63 93
f 94 92 93
f 64 94 93
f 93 63 64
f 64 63 62
f 64 62 57
f 64 57 91
f 69 64 91
f 90 91 57
f 56 57 62
f 56 62 58
f 62 1 58
f 58 1 2
f 58 2 8
f 8 9 58
f 9 10 58
f 58 10 60
f 60 59 58
f 65 59 60
f 81 59 65
f 59 81 58
f 81 54 58
f 61 60 10
f 54 56 58
f 56 54 55
f 57 56 55
f 63 1 62
f 5 1 63
f 67 5 63
f 66 5 67
f 70 66 67
f 5 66 4
f 69 94 64
f 69 91 90
f 57 85 90
f 85 57 55
f 55 54 68
f 54 83 68
f 83 54 81
f 81 65 82
f 61 10 86
f 29 30 21
f 33 23 25
f 33 34 23
f 14 13 50

