v 0.275676 0.384723 -0.232706
v 0.258716 0.409631 -0.202757
v 0.2802 0.378371 -0.238936
v 0.244127 0.409067 -0.179857
v 0.245139 0.414162 -0.183943
v 0.243135 0.410861 -0.17904
v 0.244147 0.415957 -0.183125
v 0.242142 0.412655 -0.178222
v 0.240138 0.409354 -0.173319
v 0.24115 0.41445 -0.177404
v 0.239146 0.411148 -0.172501
v 0.281892 0.374994 -0.241312
v 0.249829 0.412102 -0.19015
v 0.246576 0.411431 -0.184888
v 0.251286 0.41626 -0.194364
v 0.248033 0.41559 -0.189102
v 0.246238 0.419078 -0.188054
v 0.249051 0.420371 -0.193356
v 0.283446 0.371038 -0.243696
v 0.215327 0.344423 -0.145297
v 0.260779 0.414281 -0.210377
v 0.266356 0.411018 -0.219198
v 0.264636 0.414623 -0.218403
v 0.262536 0.410324 -0.210977
v 0.264743 0.403665 -0.213832
v 0.260897 0.402109 -0.21005
v 0.259806 0.40587 -0.206403
v 0.256995 0.405559 -0.202182
v 0.284998 0.367026 -0.246071
v 0.2773 0.381253 -0.235117
v 0.253225 0.404173 -0.198796
v 0.235584 0.405233 -0.164142
v 0.241247 0.402522 -0.179784
v 0.236076 0.398366 -0.182394
v 0.239776 0.400305 -0.186822
v 0.243741 0.402015 -0.191189
v 0.244279 0.400656 -0.199534
v 0.248104 0.403098 -0.195507
v 0.248836 0.400865 -0.203737
v 0.258432 0.399289 -0.211563
v 0.228251 0.394769 -0.1494
v 0.254164 0.396848 -0.215418
v 0.258574 0.395503 -0.219051
v 0.263246 0.398884 -0.215722
v 0.24421 0.404642 -0.181642
v 0.26582 0.389497 -0.227163
v 0.268463 0.385637 -0.231111
v 0.265694 0.379915 -0.237022
v 0.263136 0.38383 -0.233445
v 0.273653 0.37664 -0.237782
v 0.271054 0.381172 -0.23451
v 0.268151 0.375309 -0.240069
v 0.270404 0.370282 -0.24263
v 0.275972 0.371569 -0.240409
v 0.260625 0.387566 -0.229809
v 0.267248 0.395784 -0.220735
v 0.253037 0.40925 -0.194252
v 0.262772 0.393112 -0.223043
v 0.232578 0.396134 -0.177877
v 0.236666 0.39847 -0.174053
v 0.236969 0.4 -0.166276
v 0.23144 0.392509 -0.164927
v 0.234095 0.396259 -0.161293
v 0.232258 0.392624 -0.156792
v 0.234033 0.395495 -0.169502
v 0.229902 0.393161 -0.173309
v 0.227735 0.38971 -0.168687
v 0.230098 0.388884 -0.160531
v 0.229284 0.384774 -0.156108
v 0.22535 0.381811 -0.15972
v 0.220891 0.374563 -0.15884
v 0.220324 0.370304 -0.154373
v 0.224788 0.377545 -0.155286
v 0.224597 0.373058 -0.151067
v 0.224766 0.368372 -0.147111
v 0.22851 0.380654 -0.151728
v 0.230673 0.388856 -0.152355
v 0.255871 0.409464 -0.198498
v 0.247623 0.405841 -0.186971
v 0.235417 0.410729 -0.166434
v 0.231433 0.401678 -0.156572
v 0.268496 0.408244 -0.221656
v 0.228667 0.385 -0.148287
v 0.226729 0.38072 -0.144804
v 0.22516 0.38514 -0.142032
v 0.243332 0.407188 -0.177821
v 0.226289 0.372534 -0.143163
v 0.225198 0.363896 -0.143186
v 0.218119 0.352578 -0.146051
v 0.22106 0.36052 -0.146416
v 0.222466 0.355878 -0.142918
v 0.219543 0.34791 -0.142506
v 0.213311 0.335953 -0.144926
v 0.214114 0.349085 -0.149216
v 0.217355 0.339514 -0.142014
v 0.219356 0.334747 -0.138798
v 0.215501 0.331142 -0.141744
v 0.227828 0.376486 -0.147482
v 0.21706 0.357394 -0.149714
v 0.220464 0.365561 -0.1503
v 0.216733 0.362354 -0.153797
v 0.221426 0.378843 -0.163298
v 0.225906 0.386187 -0.163968
v 0.243545 0.406495 -0.178173
v 0.271366 0.405616 -0.22624
v 0.27802 0.395266 -0.234999
v 0.279764 0.389744 -0.236981
v 0.283921 0.367415 -0.244995
v 0.273899 0.398633 -0.228214
v 0.28215 0.370318 -0.242598
v 0.275014 0.392736 -0.230361
v 0.268487 0.405097 -0.219878
v 0.282893 0.368084 -0.243931
v 0.280379 0.373221 -0.240201
v 0.277866 0.378358 -0.236471
v 0.27606 0.400721 -0.233177
v 0.281122 0.370988 -0.241534
v 0.278608 0.376124 -0.237804
v 0.276095 0.381261 -0.234074
v 0.273581 0.386398 -0.230345
v 0.241331 0.407797 -0.174614
v 0.279351 0.373891 -0.239137
v 0.276838 0.379027 -0.235407
v 0.241545 0.407103 -0.174967
v 0.241758 0.40641 -0.175319
v 0.241971 0.405717 -0.175672
v 0.239544 0.407712 -0.17176
v 0.273844 0.406163 -0.231623
v 0.281789 0.392265 -0.24214
v 0.283459 0.386743 -0.2442
v 0.289365 0.364632 -0.252894
v 0.2887 0.351038 -0.253108
v 0.284098 0.348599 -0.249865
v 0.287519 0.356549 -0.250752
v 0.286338 0.36206 -0.248395
v 0.287721 0.33745 -0.253087
v 0.290256 0.345489 -0.255021
v 0.285529 0.343062 -0.251927
v 0.239757 0.407019 -0.172112
v 0.291897 0.33991 -0.25676
v 0.237544 0.408321 -0.168553
v 0.290646 0.359088 -0.255137
v 0.292922 0.347898 -0.259696
v 0.291864 0.353519 -0.257403
v 0.287907 0.370161 -0.250714
v 0.286445 0.37569 -0.248536
v 0.284982 0.381218 -0.246358
f 45 104 124 125
f 139 127 141 32
f 6 121 86 4
f 129 107 3 130
f 14 5 6 4
f 7 8 6 5
f 14 13 16 5
f 16 17 7 5
f 8 9 121 6
f 10 11 9 8
f 11 141 127 9
f 127 124 121 9
f 135 131 145 29
f 18 17 16 15
f 2 27 24 21
f 23 24 25 22
f 27 26 25 24
f 147 130 3 12
f 146 147 12 19
f 29 145 146 19
f 107 106 111 1
f 1 120 119 115
f 30 1 115 3
f 3 115 114 110
f 1043839185 21908 1043538977 21908
f 60 59 34 33
f 38 86 104 36
f 12 3 110 108
f 42 43 44 40
f 58 56 44 43
f 55 49 47 46
f 49 48 51 47
f 52 50 51 48
f 52 53 54 50
f 60 65 66 59
f 126 61 65 60
f 3 107 1 30
f 63 62 65 61
f 126 125 139 61
f 63 64 68 62
f 68 103 67 62
f 67 66 65 62
f 85 84 83 41
f 81 41 83 77
f 69 70 103 68
f 73 71 102 70
f 73 74 72 71
f 74 75 100 72
f 76 98 74 73
f 98 87 75 74
f 88 90 100 75
f 83 84 98 76
f 1728105299 21911 1043501777 21908
f 32 81 64 63
f 92 20 94 89
f 99 90 91 89
f 99 101 100 90
f 95 96 97 93
f 32 63 61 139
f 39 79 38 37
f 45 35 36 104
f 33 34 35 45
f 45 125 126 33
f 78 57 31 28
f 2 78 28 27
f 32 141 80 81
f 114 118 117 113
f 115 119 118 114
f 79 4 86 38
f 118 123 122 117
f 104 86 121 124
f 125 124 127 139
f 109 111 106 116
f 82 112 105 128
f 140 137 138 136
f 133 138 137 132
f 137 143 144 132
f 144 142 134 132
f 142 131 135 134
