# https://github.com/mikedh/trimesh
v -0.23120899 0.17795201 -0.02487600
v -0.22842100 0.17241900 -0.02027400
v -0.24107499 0.23002701 -0.06222700
v -0.24114000 0.21467451 -0.04919400
v -0.22302719 0.16104406 -0.00949156
v -0.21606600 0.15014900 0.00143000
v -0.23592750 0.14375201 -0.01126300
v -0.23790000 0.13303900 -0.00934400
v -0.23344950 0.12972101 -0.00255400
v -0.15290508 0.10983454 0.05550698
v -0.22216599 0.12644449 0.01107200
v -0.22968351 0.12808050 0.00278000
v -0.20180599 0.12240000 0.02782900
v -0.19804500 0.12235800 0.03083400
v -0.18363500 0.11969600 0.04036600
v -0.17083199 0.11679800 0.04840300
v -0.20003629 0.21795425 0.00452864
v -0.24381825 0.21459725 -0.04488775
v -0.24291886 0.21107781 -0.04352923
v -0.24108790 0.20366716 -0.03866434
v -0.23792450 0.19143325 -0.02790375
v -0.23589115 0.18838174 -0.02906520
v -0.23201184 0.17617624 -0.01721251
v -0.22605675 0.16540075 -0.00689100
v -0.23415400 0.18084200 -0.02017400
v -0.22404953 0.16274598 -0.00707043
v -0.21955355 0.15552510 0.00051869
v -0.20543495 0.13738055 0.02116966
v -0.21906150 0.15464375 0.00353550
v -0.23563400 0.18485101 -0.02368300
v -0.16698458 0.13521935 0.04640954
v -0.19019930 0.17038518 0.02533769
v -0.16109224 0.12863089 0.05070732
v -0.18552700 0.15942275 0.03120475
v -0.19469600 0.17947175 0.02056675
v -0.20068200 0.19438501 0.01317400
v -0.21643659 0.23324831 -0.01096530
v -0.23021250 0.24605099 -0.03002100
v -0.23203225 0.24876825 -0.03445800
v -0.24000625 0.25818250 -0.05748100
v -0.23639250 0.25361849 -0.04485000
v -0.18189750 0.13293097 0.03796375
v -0.17612159 0.14051597 0.04094515
v -0.20355283 0.13489223 0.02350147
v -0.18283357 0.14760939 0.03494482
v -0.19727893 0.14772257 0.02334736
v -0.21901408 0.14573488 0.00857651
v -0.21587296 0.15179309 0.00870838
v -0.20766357 0.15875568 0.01190637
v -0.19552537 0.16544185 0.02188066
v -0.20537584 0.20706318 0.00684611
v -0.20411393 0.17365918 0.01259133
v -0.22088051 0.15747801 0.00248378
v -0.21936485 0.12669315 0.01433408
v -0.22343140 0.16430590 -0.00181085
v -0.21740887 0.17083747 0.00034828
v -0.22394601 0.18962300 -0.01134900
v -0.23411699 0.19307600 -0.02262307
v -0.21667941 0.22734169 -0.00854439
v -0.22455737 0.20379884 -0.01490973
v -0.22813629 0.12868592 0.00539191
v -0.22253967 0.13673790 0.00710873
v -0.22249698 0.14868366 0.00443407
v -0.23764738 0.20059039 -0.02906050
v -0.21556528 0.17710835 -0.00002051
v -0.21494825 0.19780812 -0.00271844
v -0.21952611 0.18460982 -0.00588367
v -0.21548799 0.21310418 -0.00520853
v -0.22750700 0.13644999 0.00208300
v -0.23065798 0.13038795 0.00148225
v -0.23132018 0.14308033 -0.00503059
v -0.22671725 0.15454499 -0.00174750
v -0.23705263 0.18864774 -0.02406436
v -0.23862283 0.21268025 -0.03527860
v -0.23670818 0.21644714 -0.03427579
v -0.22665071 0.24119366 -0.02305048
v -0.24139781 0.20393512 -0.03506772
v -0.21765910 0.15384938 0.00670490
v -0.23523414 0.13173404 -0.00510201
v -0.22481943 0.23136049 -0.01954316
v -0.24059749 0.22876236 -0.04453079
v -0.23225588 0.23475001 -0.03157328
v -0.24042389 0.19945152 -0.03243154
v -0.24356560 0.23947620 -0.05494783
v -0.23165163 0.24691760 -0.03230884
v -0.23948134 0.23864071 -0.04590006
v -0.23912933 0.19532315 -0.02860392
v -0.23535414 0.25140712 -0.04096532
v -0.24301775 0.21123880 -0.04009146
v -0.21347449 0.14168449 0.01365700
v -0.24556901 0.23449101 -0.05731500
v -0.24308150 0.25753001 -0.06630650
f 79 8 9
f 79 9 61
f 70 79 61
f 69 79 70
f 69 71 79
f 71 7 79
f 63 7 71
f 72 7 63
f 72 63 47
f 47 63 62
f 63 69 62
f 47 62 28
f 28 62 61
f 28 61 54
f 28 54 13
f 14 28 13
f 14 44 28
f 46 28 44
f 42 46 44
f 32 46 42
f 50 46 32
f 35 50 32
f 35 52 50
f 50 52 56
f 52 65 56
f 65 24 56
f 67 24 65
f 65 66 67
f 66 60 67
f 60 57 67
f 60 58 57
f 60 64 58
f 60 74 64
f 74 87 64
f 77 87 74
f 77 83 87
f 83 21 87
f 87 21 73
f 73 21 25
f 21 83 20
f 20 22 21
f 21 22 30
f 23 30 22
f 30 23 25
f 23 22 1
f 1 2 23
f 23 2 5
f 26 23 5
f 23 26 24
f 24 26 27
f 24 27 29
f 27 6 29
f 27 5 6
f 26 5 27
f 20 1 22
f 20 19 1
f 4 1 19
f 4 19 3
f 18 3 19
f 18 19 20
f 89 18 20
f 77 89 20
f 89 84 18
f 81 84 89
f 75 81 89
f 75 89 74
f 86 81 75
f 82 86 75
f 38 86 82
f 85 86 38
f 86 85 39
f 88 86 39
f 88 41 86
f 41 84 86
f 41 40 84
f 40 92 84
f 84 92 91
f 38 39 85
f 38 82 76
f 76 82 80
f 76 80 37
f 37 80 60
f 60 80 75
f 37 60 59
f 68 59 60
f 59 68 51
f 51 68 66
f 51 66 36
f 17 59 51
f 37 59 17
f 82 75 80
f 86 84 81
f 84 91 18
f 83 77 20
f 74 89 77
f 64 87 73
f 75 74 60
f 58 64 73
f 58 73 25
f 57 58 24
f 68 60 66
f 36 66 65
f 57 24 67
f 56 24 55
f 56 55 78
f 56 78 49
f 49 78 48
f 28 49 48
f 50 49 28
f 78 55 53
f 36 65 52
f 50 56 49
f 35 36 52
f 45 32 42
f 45 42 43
f 34 45 43
f 34 43 31
f 31 43 42
f 31 42 10
f 31 10 33
f 32 45 34
f 50 28 46
f 42 44 14
f 42 14 15
f 42 15 16
f 10 42 16
f 28 47 90
f 63 71 69
f 62 69 70
f 61 62 70
f 61 9 12
f 61 12 11
f 54 61 11
f 13 54 11
f 7 8 79

