v -0.179754 0.289903 -0.12412
v -0.185258 0.283348 -0.11653
v -0.190491 0.277302 -0.108767
v -0.192124 0.269303 -0.10651
v -0.195714 0.272281 -0.100421
v -0.198797 0.265385 -0.096908
v -0.199304 0.275259 -0.0943321
v -0.202198 0.268398 -0.0908026
v -0.204837 0.271551 -0.0846309
v -0.208033 0.275167 -0.078713
v -0.205202 0.261833 -0.087308
v -0.20684 0.369198 -0.1254
v -0.202232 0.258098 -0.0933082
v -0.199296 0.254216 -0.0991167
v -0.202855 0.278348 -0.0876953
v -0.202501 0.285132 -0.0898831
v -0.206286 0.281532 -0.0813752
v -0.206838 0.287794 -0.0839906
v -0.193811 0.287636 -0.104134
v -0.197928 0.290025 -0.0978502
v -0.204451 0.32804 -0.102874
v -0.203995 0.320707 -0.100729
v -0.203538 0.313375 -0.0985844
v -0.203082 0.306043 -0.0964396
v -0.202882 0.299143 -0.0942364
v -0.20275 0.292033 -0.0921754
v -0.189655 0.323507 -0.120185
v -0.194656 0.33251 -0.116301
v -0.194185 0.325181 -0.11405
v -0.193713 0.317852 -0.111799
v -0.199186 0.334183 -0.110167
v -0.198715 0.326854 -0.107916
v -0.198243 0.319525 -0.105665
v -0.190187 0.330835 -0.122449
v -0.191026 0.338122 -0.124838
v -0.187635 0.343664 -0.133564
v -0.193752 0.352375 -0.130558
v -0.19232 0.345269 -0.127631
v -0.197005 0.346874 -0.121699
v -0.195574 0.339768 -0.118772
v -0.185313 0.348523 -0.142788
v -0.189502 0.35047 -0.136661
v -0.196064 0.35887 -0.134051
v -0.200255 0.360816 -0.127931
v -0.18794 0.358543 -0.155692
v -0.184362 0.35264 -0.152281
v -0.19172 0.360674 -0.149633
v -0.188142 0.354771 -0.146222
v -0.1955 0.362805 -0.143575
v -0.191922 0.356902 -0.140164
v -0.19928 0.364936 -0.137517
v -0.20306 0.367067 -0.131458
v -0.191027 0.368828 -0.167955
v -0.189204 0.293246 -0.112172
v -0.19389 0.379507 -0.179786
v -0.190204 0.373267 -0.177029
v -0.181916 0.36546 -0.180926
v -0.18656 0.367051 -0.174452
v -0.185695 0.371558 -0.183313
v -0.177637 0.363961 -0.187436
v -0.175477 0.36409 -0.194501
v -0.178911 0.371412 -0.203638
v -0.174195 0.364913 -0.202021
v -0.180101 0.370728 -0.196604
v -0.178213 0.371906 -0.211123
v -0.173565 0.365492 -0.209859
v -0.178248 0.372041 -0.218192
v -0.173429 0.36571 -0.217095
v -0.168618 0.359387 -0.216054
v -0.163985 0.353042 -0.215179
v -0.159448 0.347004 -0.222706
v -0.160014 0.346917 -0.2304
v -0.155078 0.340862 -0.230327
v -0.16484 0.353125 -0.230929
v -0.149288 0.335132 -0.222164
v -0.14939 0.33478 -0.213533
v -0.150747 0.333345 -0.194554
v -0.15479 0.340199 -0.20524
v -0.154406 0.340691 -0.214067
v -0.15572 0.339351 -0.195898
v -0.166255 0.351102 -0.19077
v -0.16156 0.344803 -0.188653
v -0.157042 0.338356 -0.186097
v -0.152524 0.33191 -0.183541
v -0.161019 0.339354 -0.177007
v -0.157686 0.332987 -0.17388
v -0.175219 0.349275 -0.165481
v -0.176035 0.345015 -0.155524
v -0.169643 0.351754 -0.182166
v -0.170384 0.347461 -0.172281
v -0.166011 0.341229 -0.169459
v -0.171125 0.343167 -0.162395
v -0.162918 0.334921 -0.166658
v -0.168322 0.336841 -0.159201
v -0.173583 0.338599 -0.152266
v -0.178398 0.340278 -0.145926
v -0.182976 0.342026 -0.139632
v -0.177164 0.333179 -0.143285
v -0.170218 0.31723 -0.144135
v -0.176307 0.325916 -0.140814
v -0.169611 0.30987 -0.14166
v -0.175456 0.318653 -0.138336
v -0.174986 0.311241 -0.135997
v -0.174601 0.30379 -0.13375
v -0.180071 0.312718 -0.130205
v -0.179847 0.305194 -0.128117
v -0.179622 0.297699 -0.126048
v -0.185201 0.321773 -0.12638
v -0.184976 0.314284 -0.124317
v -0.184751 0.306795 -0.122253
v -0.184276 0.299373 -0.120009
v -0.188916 0.301041 -0.113956
v -0.193203 0.295418 -0.105728
v -0.18968 0.285279 -0.110426
v -0.193283 0.302906 -0.107708
v -0.197589 0.304782 -0.101404
v -0.180357 0.320201 -0.132363
v -0.166751 0.330083 -0.155955
v -0.165877 0.322902 -0.153127
v -0.171959 0.331647 -0.149543
v -0.171085 0.324465 -0.146716
v -0.164792 0.315845 -0.149962
v -0.16023 0.321517 -0.158736
v -0.161419 0.328423 -0.162455
v -0.165271 0.345523 -0.179348
v -0.160365 0.34569 -0.197653
v -0.169564 0.358488 -0.200538
v -0.164963 0.35209 -0.199095
v -0.170836 0.357514 -0.192216
v -0.149634 0.334363 -0.204781
v -0.154624 0.340851 -0.222283
v -0.159387 0.3467 -0.214426
v -0.159699 0.346245 -0.205819
v -0.173676 0.365801 -0.224423
v -0.168944 0.359513 -0.223777
v -0.164211 0.353226 -0.223132
v -0.183408 0.377951 -0.206106
v -0.188632 0.384025 -0.202218
v -0.193963 0.39005 -0.198169
v -0.18428 0.377436 -0.199409
v -0.168964 0.358998 -0.208432
v -0.164327 0.352624 -0.207037
v -0.189802 0.383406 -0.195349
v -0.186048 0.377026 -0.192586
v -0.182294 0.370647 -0.189822
v -0.173566 0.357767 -0.18504
v -0.178178 0.359465 -0.17812
v -0.174399 0.353529 -0.175369
v -0.179012 0.355228 -0.168449
v -0.179845 0.350991 -0.158779
v -0.196583 0.390345 -0.191502
v -0.192957 0.38408 -0.188767
v -0.18933 0.377815 -0.186031
v -0.182811 0.361093 -0.171489
v -0.187455 0.362683 -0.165016
v -0.183645 0.356855 -0.16182
v -0.200643 0.392379 -0.185268
v -0.197298 0.385958 -0.182438
v -0.201051 0.38815 -0.176311
v -0.197706 0.381729 -0.173481
v -0.194361 0.375308 -0.170652
v -0.201458 0.383921 -0.167354
v -0.198113 0.3775 -0.164525
v -0.194768 0.371079 -0.161695
v -0.191423 0.364658 -0.158865
v -0.201865 0.379692 -0.158397
v -0.198521 0.373271 -0.155568
v -0.195176 0.36685 -0.152738
v -0.202273 0.375464 -0.149441
v -0.198928 0.369042 -0.146611
v -0.20268 0.371235 -0.140484
v -0.198406 0.353947 -0.124625
v -0.205004 0.362319 -0.1221
v -0.203168 0.355441 -0.118801
v -0.201786 0.34836 -0.115855
v -0.180907 0.346691 -0.148956
v -0.182027 0.334788 -0.137144
v -0.180999 0.327552 -0.134665
v -0.186534 0.336456 -0.13098
v -0.18562 0.329189 -0.128556
v -0.189366 0.316054 -0.118078
v -0.189174 0.308537 -0.116045
v -0.193501 0.310348 -0.109752
v -0.197828 0.312158 -0.103458
v -0.200452 0.341258 -0.112984
v -0.197358 0.297532 -0.0993684
v -0.195709 0.261824 -0.102876
v -0.19437 0.280259 -0.102449
v -0.198326 0.282661 -0.0961226
v -0.184466 0.291592 -0.118149
f 107 111 190 1
f 190 54 114 2
f 188 5 4 3
f 114 19 188 3
f 5 6 187 4
f 7 8 6 5
f 188 189 7 5
f 8 11 13 6
f 13 14 187 6
f 15 9 8 7
f 189 16 15 7
f 15 17 10 9
f 16 18 17 15
f 189 20 26 16
f 20 189 188 19
f 114 54 113 19
f 113 186 20 19
f 186 25 26 20
f 22 33 32 21
f 23 184 33 22
f 24 116 184 23
f 25 186 116 24
f 29 30 181 27
f 181 109 108 27
f 108 180 34 27
f 34 28 29 27
f 31 32 29 28
f 34 35 40 28
f 40 185 31 28
f 32 33 30 29
f 33 184 183 30
f 183 182 181 30
f 180 179 35 34
f 179 36 38 35
f 38 39 40 35
f 179 177 97 36
f 97 41 42 36
f 42 37 38 36
f 172 39 38 37
f 42 50 43 37
f 43 44 172 37
f 175 185 40 39
f 172 174 175 39
f 97 96 176 41
f 176 46 48 41
f 48 50 42 41
f 50 49 51 43
f 51 52 44 43
f 173 174 172 44
f 52 12 173 44
f 47 48 46 45
f 46 150 156 45
f 156 155 165 45
f 165 168 47 45
f 176 88 150 46
f 49 50 48 47
f 168 170 49 47
f 170 171 51 49
f 164 165 155 53
f 155 154 58 53
f 58 56 161 53
f 161 163 164 53
f 160 161 56 55
f 56 59 153 55
f 153 152 158 55
f 158 159 160 55
f 58 57 59 56
f 58 154 147 57
f 147 146 60 57
f 60 145 59 57
f 145 144 153 59
f 146 129 61 60
f 61 64 145 60
f 129 127 63 61
f 63 62 64 61
f 63 66 65 62
f 137 140 64 62
f 127 141 66 63
f 140 144 145 64
f 66 68 67 65
f 141 69 68 66
f 69 135 134 68
f 141 142 70 69
f 70 136 135 69
f 142 133 132 70
f 132 71 136 70
f 132 79 131 71
f 131 73 72 71
f 72 74 136 71
f 131 79 76 75
f 79 78 130 76
f 130 78 80 77
f 80 83 84 77
f 79 132 133 78
f 133 126 80 78
f 126 82 83 80
f 89 125 82 81
f 82 126 128 81
f 128 127 129 81
f 129 146 89 81
f 125 85 83 82
f 85 86 84 83
f 91 93 86 85
f 125 90 91 85
f 150 88 92 87
f 92 91 90 87
f 90 148 149 87
f 149 156 150 87
f 176 96 95 88
f 95 94 92 88
f 148 90 125 89
f 146 147 148 89
f 92 94 93 91
f 94 118 124 93
f 95 120 118 94
f 96 98 120 95
f 97 177 98 96
f 177 178 100 98
f 100 121 120 98
f 102 103 101 99
f 122 119 121 99
f 121 100 102 99
f 178 117 102 100
f 117 105 103 102
f 105 106 104 103
f 109 110 106 105
f 117 108 109 105
f 110 111 107 106
f 117 178 180 108
f 181 182 110 109
f 182 112 111 110
f 112 54 190 111
f 115 113 54 112
f 182 183 115 112
f 115 116 186 113
f 183 184 116 115
f 120 121 119 118
f 119 123 124 118
f 133 142 128 126
f 128 142 141 127
f 143 144 140 138
f 151 152 143 139
f 152 153 144 143
f 154 149 148 147
f 154 155 156 149
f 157 158 152 151
f 162 163 161 160
f 166 167 164 163
f 167 168 165 164
f 169 170 168 167
f 179 180 178 177
