v -0.108347 0.216956 0.0276259
v -0.0992882 0.223383 0.0270172
v -0.102626 0.209623 0.0336026
v -0.0936685 0.216268 0.0333749
v -0.0967127 0.201936 0.0387906
v -0.087828 0.208641 0.0386755
v -0.076801 0.192814 0.0478982
v -0.0820008 0.200811 0.0436958
v -0.067046 0.199028 0.0478082
v -0.0622263 0.189487 0.0515114
v -0.0520774 0.19442 0.0508483
v -0.0487429 0.184455 0.0545929
v -0.0388189 0.187848 0.0543612
v -0.027383 0.189982 0.0538959
v -0.0406617 0.19823 0.0500802
v -0.0269026 0.200971 0.0489002
v -0.011354 0.215145 0.0422092
v -0.026607 0.211832 0.0439039
v -0.0135566 0.20349 0.0478965
v -0.0156882 0.191811 0.0534914
v -0.00386698 0.192412 0.0529988
v -0.00377729 0.181576 0.0571632
v -0.00376837 0.170734 0.0612828
v -0.0130699 0.148654 0.0684289
v -0.0138246 0.159518 0.065017
v -0.0122066 0.137821 0.0715275
v -0.011125 0.127081 0.0741473
v -0.00993735 0.116368 0.0767667
v -0.0226826 0.136375 0.0716173
v -0.0342852 0.145157 0.0689555
v -0.0352656 0.156022 0.0656068
v -0.0362289 0.16673 0.061768
v -0.0633743 0.2113 0.0408972
v -0.0254858 0.168581 0.0617539
v -0.014699 0.170192 0.061628
v -0.0372847 0.177396 0.0580173
v -0.0265582 0.179197 0.057912
v -0.000657064 0.127925 0.0737475
v 0.000481732 0.116966 0.0758759
v 0.00979015 0.12834 0.0727265
v 0.0187688 0.15839 0.0633815
v 0.0090567 0.138755 0.070271
v 0.0084921 0.149064 0.0673657
v 0.018333 0.168701 0.0602791
v 0.00789158 0.15953 0.0642239
v 0.00724072 0.170219 0.0607508
v 0.0179193 0.178603 0.0563315
v 0.0240237 0.188307 0.051351
v 0.0297011 0.176729 0.0563649
v 0.0344444 0.18625 0.0514017
v 0.0389987 0.194992 0.0468117
v 0.0492173 0.189787 0.0478832
v 0.0454399 0.204466 0.043485
v 0.0646334 0.191887 0.044084
v 0.0710735 0.199202 0.0393689
v 0.0775661 0.206367 0.0345746
v 0.0858981 0.198646 0.0345442
v 0.0943285 0.198497 0.0413443
v 0.0794534 0.19512 0.0426472
v 0.0878545 0.195174 0.0496507
v 0.096183 0.195486 0.0567868
v 0.0670072 0.187022 0.0590413
v 0.0898713 0.191565 0.0649022
v 0.110817 0.199966 0.0560787
v 0.117247 0.203949 0.0480126
v 0.123686 0.207925 0.0399263
v 0.113951 0.209149 0.0169098
v 0.115507 0.206663 0.032475
v 0.121974 0.210808 0.0244735
v 0.129929 0.212636 0.0320615
v 0.13602 0.217741 0.0243277
v 0.134262 0.220562 0.00893338
v 0.141595 0.223693 0.0167532
v 0.139904 0.225988 0.000982055
v 0.147202 0.229522 0.00902472
v 0.154666 0.232408 0.0167907
v -0.08477 0.221857 0.0320767
v 0.148858 0.22692 0.024598
v 0.143555 0.220401 0.0320527
v 0.138118 0.213948 0.0394423
v 0.128334 0.215316 0.0166468
v 0.120279 0.213693 0.00911938
v 0.107364 0.205363 0.0249764
v 0.109074 0.202743 0.0405418
v 0.0693857 0.182145 0.0738779
v 0.0754107 0.186975 0.0659376
v 0.060966 0.182237 0.0669833
v 0.0391441 0.175578 0.0603748
v 0.0471244 0.17605 0.0674951
v 0.0551922 0.176392 0.0745365
v 0.0443572 0.182009 0.0530451
v -0.0785363 0.21516 0.0382244
v 0.0345681 0.168133 0.0672485
v 0.045362 0.160836 0.0871583
v 0.0320867 0.159543 0.0742349
v 0.0383797 0.160257 0.0805658
v 0.0420561 0.168556 0.0739817
v 0.0503258 0.168746 0.0809365
v 0.0525793 0.182221 0.0600443
v 0.0585439 0.187169 0.0520306
v 0.0730492 0.19156 0.05086
v 0.0814643 0.191574 0.0579328
v 0.100871 0.201836 0.0331128
v 0.102585 0.199139 0.0486616
v 0.0927626 0.205072 0.0288632
v 0.0995179 0.210879 0.0226705
v 0.0784802 0.214627 0.0304376
v 0.0987737 0.224966 0.0158446
v 0.105673 0.230574 0.00896197
v 0.106406 0.216514 0.0158777
v 0.112996 0.222051 0.0090008
v 0.119515 0.227459 0.00189814
v 0.126582 0.218775 0.0016709
v 0.132615 0.223922 -0.00608836
v 0.11855 0.241226 -0.00565607
v 0.125576 0.232571 -0.00587907
v 0.112189 0.235963 0.00178683
v 0.088188 0.220415 0.0237448
v 0.0296145 0.218847 0.039333
v 0.0652866 0.214566 0.0351982
v -0.0726137 0.207235 0.0433231
v 0.0225182 0.242529 0.0289958
v 0.0621835 0.206494 0.039384
v 0.0553376 0.198924 0.0442063
v -0.00170526 0.138694 0.0711245
v -0.0237296 0.147242 0.0684947
v -0.0246045 0.157917 0.0651361
v -0.00237519 0.149277 0.0681857
v -0.0030982 0.160099 0.0648556
v 0.0086269 0.180496 0.0565722
v 0.00927288 0.191046 0.0523133
v 0.00917904 0.201575 0.0482726
v 0.0247526 0.198798 0.0472239
v -0.0570816 0.203843 0.0469071
v 0.0175098 0.211646 0.0434674
v 0.0327838 0.20861 0.0436003
v -0.00069984 0.214742 0.0436874
v 0.00207921 0.225111 0.0388251
v -0.0152749 0.181077 0.0576147
v 0.00598835 0.235769 0.0332905
v 0.0126947 0.222093 0.0393831
v 0.0165591 0.2324 0.0340598
v 0.0276002 0.22844 0.0349477
v 0.0331641 0.237704 0.0298585
v 0.0428263 0.231719 0.0310703
v 0.0523986 0.225241 0.0323684
v 0.0484001 0.238774 0.0260837
v 0.0580138 0.232287 0.0273473
v 0.0671903 0.225608 0.0287709
v 0.0642542 0.238973 0.0217669
v 0.0730145 0.232057 0.0231694
v 0.0705515 0.24535 0.0156519
v 0.0790914 0.238079 0.0166417
v 0.0938344 0.236943 0.0112595
v 0.0769878 0.251628 0.00926592
v 0.0854059 0.244282 0.010263
v 0.0685545 0.259059 0.00849703
v 0.0600205 0.266375 0.00764733
v 0.0371224 0.259281 0.0182222
v 0.0531012 0.259601 0.0136351
v 0.0619314 0.252559 0.0146584
v 0.0875873 0.230937 0.018009
v 0.0553588 0.245882 0.0205127
v 0.0388201 0.245271 0.0248182
v 0.0462239 0.252736 0.0194574
v 0.0294152 0.251703 0.0233001
v -0.00373758 0.203575 0.0486255
v 0.0616017 0.218656 0.0335536
v 0.0446238 0.213761 0.0398696
v 0.0513433 0.217025 0.0370485
v 0.038061 0.223241 0.0359542
v 0.0109909 0.245961 0.0280972
f 3 4 2 1
f 5 6 4 3
f 6 92 77 4
f 8 121 92 6
f 9 121 8 7
f 134 33 121 9
f 10 11 134 9
f 12 13 15 11
f 14 16 15 13
f 36 37 14 13
f 20 19 16 14
f 37 139 20 14
f 19 17 18 16
f 139 22 21 20
f 131 132 167 21
f 22 130 131 21
f 139 35 23 22
f 23 46 130 22
f 35 25 129 23
f 129 45 46 23
f 128 129 25 24
f 25 127 126 24
f 126 29 26 24
f 26 125 128 24
f 35 34 127 25
f 27 38 125 26
f 28 39 38 27
f 126 127 31 30
f 127 34 32 31
f 34 37 36 32
f 35 139 37 34
f 40 42 125 38
f 44 46 45 41
f 43 128 125 42
f 45 129 128 43
f 47 130 46 44
f 48 131 130 47
f 133 132 131 48
f 88 91 50 49
f 91 52 51 50
f 52 124 53 51
f 100 54 124 52
f 91 99 100 52
f 101 59 55 54
f 55 123 124 54
f 100 62 101 54
f 59 57 56 55
f 56 120 123 55
f 110 108 118 106
f 58 103 105 57
f 59 60 58 57
f 104 84 103 58
f 60 61 104 58
f 101 102 60 59
f 102 63 61 60
f 86 102 101 62
f 100 99 87 62
f 87 85 86 62
f 65 84 104 64
f 66 68 84 65
f 70 69 68 66
f 69 81 82 67
f 82 111 110 67
f 110 106 83 67
f 83 68 69 67
f 83 103 84 68
f 70 71 81 69
f 80 79 71 70
f 79 78 73 71
f 73 72 81 71
f 73 75 74 72
f 78 76 75 73
f 113 112 111 82
f 106 105 103 83
f 99 89 90 87
f 89 99 91 88
f 93 97 89 88
f 97 98 90 89
f 95 96 97 93
f 98 97 96 94
f 106 118 107 105
f 57 105 107 56
f 165 163 161 160
f 110 111 109 108
f 111 112 117 109
f 113 114 116 112
f 116 115 117 112
f 133 136 135 132
f 135 137 167 132
f 136 119 141 135
f 141 138 137 135
f 141 142 140 138
f 142 122 172 140
f 119 143 142 141
f 143 144 122 142
f 171 145 144 143
f 119 169 171 143
f 145 147 164 144
f 146 148 147 145
f 171 170 146 145
f 168 149 148 146
f 148 150 163 147
f 163 165 164 147
f 149 151 150 148
f 151 153 152 150
f 152 161 163 150
f 153 156 155 152
f 155 157 161 152
f 162 154 156 153
f 158 160 161 157
f 166 164 165 159
