# https://github.com/mikedh/trimesh
v 0.19355411 -0.17218236 0.14436470
v 0.25251786 -0.18573378 0.14782041
v 0.31749420 -0.19915067 0.15308617
v 0.15304229 -0.16234610 0.14298889
v 0.30174505 -0.19575829 0.15381907
v 0.23131444 -0.17955161 0.14974732
v 0.11852500 -0.15565500 0.13015699
v 0.25065552 -0.18357290 0.15148448
v 0.13067052 -0.15629112 0.14297285
v 0.23949599 -0.17937100 0.15228400
v 0.19969311 -0.17263886 0.14783720
v 0.13982561 -0.15690887 0.14534341
v 0.26955895 -0.18800022 0.15300707
v 0.18067420 -0.16728168 0.14746074
v 0.14339601 -0.15621200 0.14668199
v 0.33238900 -0.19627700 0.16081601
v 0.22034600 -0.17410199 0.15149000
v 0.24857301 -0.17958499 0.15399900
v 0.30440945 -0.19440678 0.15643201
v 0.12820650 -0.15208625 0.14588626
v 0.11222550 -0.14237125 0.14473650
v 0.25625601 -0.18211800 0.15417799
v 0.27147950 -0.18528000 0.15545400
v 0.32484905 -0.19918215 0.15620061
v 0.31366800 -0.19365299 0.15873700
v 0.26209000 -0.18282700 0.15494700
v 0.28225369 -0.18741231 0.15625594
v 0.22366150 -0.17458300 0.15187175
v 0.32741000 -0.19583950 0.15992900
v 0.16793775 -0.16177875 0.14831075
v 0.20229050 -0.16922750 0.15074901
v 0.18295900 -0.16489025 0.14946100
v 0.28528500 -0.18902899 0.15595800
v 0.15554300 -0.15834925 0.14771075
v 0.17640795 -0.16851233 0.14102856
v 0.13987647 -0.15965735 0.14045583
v 0.29832101 -0.19569600 0.15084299
v 0.33258236 -0.20074329 0.15222819
v 0.33631314 -0.20153636 0.14991013
v 0.29004065 -0.19408130 0.14926327
v 0.30650034 -0.19747213 0.14993587
v 0.32592222 -0.20067815 0.14997884
v 0.27242097 -0.19021688 0.14666570
v 0.15766211 -0.16408233 0.13966918
v 0.23484481 -0.18186332 0.14346037
v 0.34914427 -0.20347853 0.14818896
v 0.26532600 -0.18834292 0.14489755
v 0.17204568 -0.16679159 0.13786447
v 0.24346053 -0.18315204 0.14232076
v 0.29879854 -0.19514280 0.14635477
v 0.32357894 -0.19991573 0.14767910
v 0.33218450 -0.20048800 0.14613851
v 0.15104650 -0.16133450 0.13527450
v 0.13500320 -0.15805483 0.13546635
v 0.25996901 -0.18600850 0.14206800
v 0.16412950 -0.16432301 0.13601851
v 0.22786825 -0.17885200 0.13975825
v 0.20515439 -0.17486277 0.14075748
v 0.18648700 -0.16979501 0.13813999
v 0.24720259 -0.17597790 0.15457249
v 0.21030205 -0.16845540 0.15195440
v 0.26171010 -0.17701227 0.15492174
v 0.27423352 -0.18048038 0.15615114
v 0.27877025 -0.18260205 0.15669408
v 0.29514722 -0.18523175 0.15770399
v 0.21563560 -0.16707486 0.15200487
v 0.19180068 -0.16337157 0.15091845
v 0.17066209 -0.15907825 0.14946931
v 0.14146131 -0.15234925 0.14760506
v 0.15168148 -0.15418744 0.14809676
v 0.13388798 -0.14858121 0.14695703
v 0.12252952 -0.14578569 0.14592999
v 0.29102473 -0.18705561 0.15757324
v 0.31050928 -0.18867396 0.15889572
v 0.31167430 -0.19111001 0.15926449
v 0.23089162 -0.17340108 0.15327311
v 0.33713316 -0.19535562 0.16194629
v 0.16118678 -0.15387162 0.14801592
v 0.18207121 -0.15916138 0.14990150
v 0.21123999 -0.16404550 0.15081000
v 0.28888300 -0.18181500 0.15628962
v 0.23329700 -0.16849350 0.15176300
v 0.33510137 -0.19311650 0.16074800
v 0.25851899 -0.17509300 0.15405101
v 0.18918301 -0.15903950 0.14946001
v 0.14701850 -0.14953800 0.14665700
f 78 71 69
f 86 71 78
f 86 78 85
f 85 78 79
f 85 79 80
f 80 79 67
f 80 67 66
f 82 80 66
f 82 66 60
f 84 82 60
f 84 60 62
f 84 62 81
f 81 62 63
f 81 63 65
f 81 65 74
f 83 81 74
f 83 74 29
f 83 29 77
f 74 75 29
f 74 73 75
f 75 73 27
f 73 26 27
f 64 26 73
f 65 64 73
f 63 26 64
f 63 60 26
f 26 60 18
f 60 17 18
f 76 17 60
f 76 32 17
f 61 32 76
f 61 76 66
f 61 67 32
f 67 68 32
f 68 34 32
f 69 34 68
f 34 69 15
f 69 20 15
f 26 18 22
f 18 13 22
f 26 22 13
f 26 13 23
f 23 13 33
f 33 13 19
f 25 33 19
f 16 25 19
f 19 13 5
f 24 19 5
f 24 5 3
f 38 24 3
f 38 3 42
f 38 42 39
f 39 42 46
f 38 39 46
f 3 41 42
f 42 41 51
f 51 46 42
f 51 52 46
f 50 52 51
f 51 41 50
f 41 43 50
f 43 47 50
f 50 47 55
f 47 45 55
f 45 49 55
f 49 45 57
f 45 58 57
f 59 57 58
f 59 58 48
f 48 56 59
f 48 44 56
f 44 53 56
f 44 54 53
f 54 7 53
f 35 44 48
f 4 44 35
f 36 44 4
f 36 7 44
f 9 7 36
f 4 9 36
f 12 9 4
f 12 4 14
f 14 30 12
f 30 14 11
f 30 11 31
f 31 11 28
f 11 6 28
f 28 6 10
f 10 6 8
f 13 10 8
f 13 8 2
f 13 2 40
f 40 2 43
f 8 6 2
f 6 11 2
f 2 11 45
f 11 1 45
f 1 35 45
f 11 14 1
f 14 4 1
f 1 4 35
f 58 35 48
f 45 35 58
f 47 2 45
f 43 2 47
f 40 43 41
f 41 37 40
f 41 5 37
f 37 5 40
f 3 5 41
f 5 13 40
f 18 10 13
f 26 22 27
f 75 27 29
f 74 65 73
f 63 64 65
f 62 60 63
f 60 66 76
f 66 67 61
f 79 68 67
f 79 78 68
f 78 70 68
f 70 69 68
f 86 72 71
f 72 86 21
f 69 70 78
f 71 20 69
f 71 21 20

