# https://github.com/mikedh/trimesh
v -0.30690312 0.02030111 -0.18163135
v -0.33044201 -0.03452200 -0.19589201
v -0.33591963 -0.05985113 -0.19229975
v -0.33993199 -0.07654300 -0.19564600
v -0.32575638 -0.12557637 -0.16667088
v -0.32997799 -0.13285901 -0.17257801
v -0.33535713 -0.12084000 -0.18412063
v -0.32189874 -0.11614300 -0.16306075
v -0.33903788 -0.08331637 -0.19153388
v -0.30997596 0.01655095 -0.19368607
v -0.31179150 0.01536475 -0.20129500
v -0.31202374 0.01155200 -0.19892950
v -0.28553900 0.03188700 -0.15317000
v -0.28236401 0.03505550 -0.14988450
v -0.29212750 0.02734512 -0.16004475
v -0.30314418 0.02109650 -0.17625894
v -0.26591200 0.05422600 -0.13711500
v -0.32194115 -0.11003779 -0.16116224
v -0.28903650 0.02620150 -0.15564750
v -0.31911435 -0.03196771 -0.14766931
v -0.32046031 -0.03607567 -0.14845060
v -0.31597116 -0.02553700 -0.14119224
v -0.31261680 -0.01875239 -0.13706579
v -0.31789779 -0.04364002 -0.13555696
v -0.31918785 -0.05200117 -0.13624249
v -0.30994027 -0.02222669 -0.12403245
v -0.32280966 -0.06192820 -0.14434953
v -0.32829109 -0.05946004 -0.16285361
v -0.32614858 -0.05156526 -0.15915687
v -0.31469077 -0.04070039 -0.12644945
v -0.30610418 -0.02483008 -0.11002794
v -0.33100265 -0.07047945 -0.16807401
v -0.31193576 -0.03596219 -0.12068885
v -0.32771585 -0.08458455 -0.15601404
v -0.33187555 -0.07264167 -0.17075570
v -0.33449815 -0.09132714 -0.17506676
v -0.33319249 -0.08069894 -0.17300641
v -0.33180699 -0.09122600 -0.16778500
v -0.33129819 -0.11073950 -0.16628683
v -0.32514165 -0.07359997 -0.14978818
v -0.30876004 -0.02883628 -0.11501408
v -0.33263053 -0.12207207 -0.17397073
v -0.29787261 -0.01579090 -0.09531991
v -0.33559935 -0.11672173 -0.18140486
v -0.28877660 -0.01178029 -0.08014887
v -0.28151500 -0.00840900 -0.06854600
v -0.29280049 -0.01452839 -0.08693999
v -0.27918125 -0.01105000 -0.06585050
v -0.28305599 -0.00960200 -0.07083200
v -0.28703499 -0.00868100 -0.07834600
v -0.30830314 -0.01137718 -0.12862501
v -0.33586634 -0.09749450 -0.18232097
v -0.33642690 -0.10911980 -0.18497810
v -0.33524881 -0.08953520 -0.18284483
v -0.33284553 -0.06966211 -0.18088122
v -0.33569500 -0.06460500 -0.18884400
v -0.33240467 -0.05702114 -0.18376746
v -0.33007021 -0.05179079 -0.18072319
v -0.33319218 -0.05156805 -0.18865234
v -0.33195240 -0.07372172 -0.17788993
v -0.32758740 -0.05894726 -0.17282067
v -0.33134576 -0.07135261 -0.17545321
v -0.33051920 -0.04224393 -0.18783251
v -0.32008079 -0.03690254 -0.16706018
v -0.31534824 -0.02729859 -0.16261366
v -0.32876728 -0.03355019 -0.19027661
v -0.32995888 -0.03555625 -0.19195646
v -0.32058772 -0.02567618 -0.17465220
v -0.32132022 -0.04203590 -0.16665714
v -0.31645999 -0.03129752 -0.16124121
v -0.32645508 -0.03416026 -0.18255600
v -0.32512400 -0.02478700 -0.18798400
v -0.31843705 -0.01515455 -0.17813656
v -0.32472028 -0.02080854 -0.19161908
v -0.31711105 -0.01632328 -0.17405529
v -0.32160801 -0.01545600 -0.18775000
v -0.31190283 -0.02116701 -0.15938145
v -0.31945695 -0.00778220 -0.19134315
v -0.29362600 -0.00637724 -0.09529087
v -0.29697962 -0.00943211 -0.09940343
v -0.32431694 -0.04992473 -0.16929535
v -0.31083169 0.01177147 -0.19185639
v -0.30944906 0.00851976 -0.18134923
v -0.30840432 0.01598291 -0.18732581
v -0.30634586 -0.00856533 -0.12696663
v -0.31177898 -0.00411532 -0.17285412
v -0.30641808 -0.01236516 -0.15401496
v -0.30804239 -0.00698688 -0.16238827
v -0.30403845 0.01588051 -0.17537522
v -0.29850827 0.00226285 -0.15331940
v -0.29669230 0.02341353 -0.16618190
v -0.29043653 0.00719644 -0.10184428
v -0.28443825 -0.00497275 -0.07740400
v -0.27697301 0.01170900 -0.08025700
v -0.28948629 -0.00311404 -0.08978844
v -0.30106083 -0.00427714 -0.15155183
v -0.29806855 -0.00018346 -0.14990278
v -0.30288716 -0.00400976 -0.12099651
v -0.32293600 -0.04626900 -0.16594000
v -0.28551425 -0.00136775 -0.08343650
v -0.29153999 0.00844350 -0.14715600
v -0.28119400 0.01253500 -0.08972950
v -0.31074214 -0.01877950 -0.15139269
v -0.31582394 -0.02638282 -0.14887894
v -0.29723345 0.00217313 -0.11258168
v -0.30529037 -0.00833608 -0.13661369
v -0.29849195 -0.00103440 -0.14718535
v -0.29357600 0.00504500 -0.14112800
v -0.29321392 0.00564089 -0.14675600
v -0.28494301 0.01305000 -0.13775700
v -0.28643399 0.01223100 -0.14178599
v -0.29063189 0.00792716 -0.10498513
v -0.29075700 0.00783400 -0.13530800
v -0.28672001 0.01126100 -0.12136300
v -0.28379151 0.01158873 -0.09297012
v -0.28406000 0.01294900 -0.11349100
v -0.27898475 0.01344425 -0.08743875
v -0.28131101 0.01309000 -0.09258000
v -0.28307977 0.01282060 -0.09927471
v -0.28286025 0.01322350 -0.10449425
v -0.32956824 -0.11898472 -0.16699405
v -0.32282621 -0.10439977 -0.16054733
v -0.32077221 -0.09384122 -0.15645554
v -0.31875699 -0.08314403 -0.15128685
v -0.31908873 -0.06468427 -0.14273144
v -0.31603798 -0.07189446 -0.14509555
v -0.32131159 -0.06126079 -0.14172470
v -0.31974266 -0.05603817 -0.13785784
v -0.31728606 -0.07598588 -0.14783908
v -0.31039693 -0.05376881 -0.13183722
v -0.31767832 -0.05036859 -0.13312458
v -0.31530860 -0.04375999 -0.12773255
v -0.30830789 -0.03176199 -0.11481062
v -0.31985328 -0.08927847 -0.15395386
v -0.31391682 -0.06406026 -0.13999219
v -0.31964959 -0.08643444 -0.15317288
v -0.32100078 -0.09711581 -0.15741734
v -0.31159831 -0.05711093 -0.13444245
v -0.28247750 -0.01378340 -0.07411528
v -0.28333760 -0.01916645 -0.08375457
v -0.28915946 -0.02273840 -0.09263490
v -0.29176462 -0.02483162 -0.09591249
v -0.27439759 -0.01676976 -0.06970462
v -0.30137498 -0.03661984 -0.11478028
v -0.27031573 -0.01736678 -0.06231267
v -0.29789498 -0.03091350 -0.10850645
v -0.27632470 -0.01703756 -0.07233836
v -0.29387739 -0.02634986 -0.10107150
v -0.28044406 -0.01812986 -0.07906764
v -0.27144673 -0.01643447 -0.06546392
v -0.30510992 -0.04273426 -0.12172587
v -0.30431877 -0.03740997 -0.11757953
v -0.29368631 -0.01849118 -0.09193301
v -0.25144975 0.07551525 -0.13149675
v -0.24202700 0.11895050 -0.13594101
v -0.23781800 0.11704200 -0.13034301
v -0.23674400 0.11307800 -0.12702800
v -0.22019100 -0.04691100 0.01611300
v -0.19332650 -0.01466600 -0.02006900
v -0.25763861 -0.02061770 -0.02980549
v -0.27392625 -0.00849550 -0.05635650
v -0.24996467 -0.03127538 -0.01717841
v -0.26213299 -0.01381600 -0.03772700
v -0.24352746 -0.04047363 -0.00648204
v -0.23656118 -0.04938282 0.00532037
v -0.24072500 -0.04505100 -0.00186100
v -0.23219900 -0.05260900 0.01169200
v -0.27534450 -0.00801500 -0.05878000
v -0.27839699 -0.00813700 -0.06347300
v -0.24258600 -0.03694600 -0.00652500
v -0.25501201 -0.02118300 -0.02607400
v -0.26012910 -0.02008897 -0.04723998
v -0.21149350 0.00251750 -0.04708150
v -0.20278537 -0.00641200 -0.03326537
v -0.23703360 0.09168892 -0.11894008
v -0.23462278 0.06327545 -0.10618031
v -0.23258250 0.05147850 -0.10109950
v -0.22990613 0.04133519 -0.09344637
v -0.22821961 0.03631125 -0.08828422
v -0.22613351 0.03044997 -0.08317146
v -0.22419450 0.02489387 -0.07881963
v -0.22032600 0.01738150 -0.06954400
v -0.23636150 0.07775550 -0.11470800
v -0.23590325 0.07245400 -0.11264775
v -0.21647100 -0.01325200 -0.02585600
v -0.21337224 -0.04130461 0.01688356
v -0.22035465 -0.03393413 0.00738520
v -0.22931193 -0.02266657 -0.00546097
v -0.23519219 -0.01033856 -0.01817505
v -0.23580528 -0.00610168 -0.02300232
v -0.22782222 -0.02643040 -0.00194296
v -0.20986900 -0.04449900 0.02168600
v -0.21121250 -0.04220450 0.01850200
v -0.24388906 -0.00125968 -0.02891177
v -0.25345957 0.00875772 -0.04446301
v -0.26262753 0.00189528 -0.05052053
v -0.25595990 -0.00414746 -0.03847262
v -0.26429309 0.01233347 -0.06034258
v -0.28149602 0.00014712 -0.07744483
v -0.27493787 0.00389537 -0.06981203
v -0.26205213 -0.00640157 -0.04329050
v -0.26777205 -0.00179059 -0.05425354
v -0.27495661 0.01417416 -0.07933514
v -0.26937747 0.01389649 -0.06976751
v -0.26608357 0.01432048 -0.06521666
v -0.25816054 0.01265843 -0.05357579
v -0.24987638 0.01030676 -0.04609409
v -0.23970267 -0.00484538 -0.02403011
v -0.25417603 0.01372628 -0.05436327
v -0.24630696 0.00875728 -0.04332419
v -0.24280397 0.00298913 -0.03351891
v -0.24783281 0.01148351 -0.05013207
v -0.24058606 0.00070904 -0.03047927
v -0.21645400 -0.02568600 -0.00927000
v -0.22653495 -0.02258027 -0.00637769
v -0.23047672 0.00664504 -0.05424007
v -0.24440738 0.01361275 -0.05970234
v -0.21496500 -0.03015450 -0.00313050
v -0.22960901 0.00021975 -0.04026586
v -0.22747846 0.00016133 -0.04279709
v -0.23178195 0.01669582 -0.07694414
v -0.23336185 0.01365556 -0.06953629
v -0.22652640 0.01298949 -0.06902259
v -0.24408307 0.02169043 -0.08921684
v -0.21623485 0.00230240 -0.04916503
v -0.22502820 0.00442262 -0.05212356
v -0.20660999 -0.00806100 -0.03196700
v -0.21289800 -0.00836500 -0.03213700
v -0.22024696 -0.01361260 -0.02501483
v -0.24148198 0.02378561 -0.09577808
v -0.25390329 0.02699259 -0.11359972
v -0.24740073 0.02472208 -0.10173210
v -0.23135843 0.02019896 -0.08326751
v -0.23771594 0.02234478 -0.09104582
v -0.26043178 0.02355170 -0.10990097
v -0.26048511 0.02682032 -0.12144675
v -0.26609145 0.02423180 -0.12540805
v -0.24190313 0.02591777 -0.09915184
v -0.27496174 0.02079657 -0.13409369
v -0.28088380 0.01793631 -0.13950509
v -0.26557014 0.02863084 -0.12877737
v -0.27274159 0.02530259 -0.13470978
v -0.22976180 0.02872888 -0.08790248
v -0.28765307 0.01529641 -0.14689817
v -0.28612794 0.02415808 -0.15056080
v -0.25433668 0.04646031 -0.12512849
v -0.23935595 0.04593555 -0.10844578
v -0.24365497 0.07595436 -0.12435568
v -0.24174667 0.05514545 -0.11475412
v -0.27798966 0.03213240 -0.14417384
v -0.26889706 0.04514414 -0.13909952
v -0.23018500 0.03431889 -0.09171383
v -0.25806514 0.05455833 -0.13190722
v -0.23851067 0.07304672 -0.11691541
v -0.24330655 0.09565130 -0.13000017
v -0.23784947 0.10226469 -0.12549842
v -0.27099796 0.02194895 -0.12832876
v -0.27420909 0.01884939 -0.11811468
v -0.27986796 0.01689828 -0.13589007
v -0.27368526 0.01670574 -0.09145746
v -0.26840967 0.02074833 -0.11040736
v -0.27096465 0.01689264 -0.08410282
v -0.26727599 0.01943400 -0.09447400
v -0.26359938 0.01615447 -0.06813814
v -0.26395991 0.01984297 -0.09050568
v -0.25775533 0.02317398 -0.10294770
v -0.25998057 0.01527185 -0.06128330
v -0.25386764 0.02023007 -0.08379094
v -0.24928426 0.01913820 -0.07829411
v -0.21818500 -0.01897950 -0.01807500
v -0.23875940 0.01720082 -0.07625988
v -0.23753570 -0.01296199 -0.01668436
v -0.24765254 -0.02257402 -0.01871702
v -0.23838399 -0.04220400 0.00015200
v -0.24365599 -0.00930100 -0.02365000
v -0.25457727 -0.01228973 -0.03142211
v -0.22763599 -0.05479600 0.01725100
f 53 9 7
f 54 9 53
f 54 53 52
f 60 54 52
f 60 52 62
f 62 61 60
f 28 61 62
f 28 62 35
f 28 35 32
f 32 35 37
f 37 35 52
f 37 52 36
f 36 52 39
f 38 36 39
f 38 39 34
f 38 34 36
f 37 36 34
f 32 37 34
f 40 32 34
f 27 32 40
f 127 27 40
f 128 27 127
f 25 27 128
f 131 25 128
f 132 25 131
f 132 24 25
f 24 132 30
f 33 30 132
f 133 33 132
f 31 33 133
f 146 31 133
f 146 133 152
f 144 146 152
f 144 152 151
f 152 132 151
f 132 130 151
f 130 132 131
f 130 131 138
f 131 128 138
f 138 128 127
f 138 127 135
f 135 127 125
f 135 125 126
f 125 40 126
f 126 40 129
f 129 40 124
f 124 40 34
f 136 124 34
f 136 34 134
f 134 34 123
f 123 34 39
f 123 39 122
f 123 122 137
f 123 137 134
f 137 122 18
f 18 122 5
f 121 5 122
f 121 6 5
f 121 42 6
f 39 42 121
f 42 39 44
f 42 44 7
f 53 44 39
f 42 7 6
f 18 5 8
f 39 121 122
f 127 40 125
f 152 133 132
f 146 148 31
f 153 31 148
f 153 148 142
f 153 142 141
f 153 141 140
f 139 153 140
f 139 47 153
f 43 153 47
f 45 47 139
f 45 139 48
f 48 139 143
f 143 139 147
f 139 149 147
f 48 143 150
f 48 150 145
f 172 48 145
f 172 161 48
f 161 169 48
f 49 45 48
f 46 45 49
f 46 50 45
f 50 80 45
f 100 80 50
f 100 95 80
f 100 92 95
f 100 115 92
f 94 115 100
f 94 102 115
f 102 118 115
f 118 119 115
f 120 119 118
f 119 120 112
f 120 116 112
f 116 114 112
f 112 114 108
f 114 113 108
f 111 108 113
f 111 101 108
f 244 101 111
f 240 244 111
f 239 244 240
f 250 244 239
f 250 245 244
f 250 19 245
f 13 19 250
f 14 13 250
f 251 14 250
f 251 250 253
f 17 251 253
f 154 17 253
f 255 154 253
f 248 255 253
f 256 255 248
f 256 155 255
f 156 155 256
f 157 156 256
f 175 157 256
f 175 256 254
f 175 254 183
f 184 183 254
f 184 254 176
f 176 254 249
f 254 248 249
f 249 248 246
f 247 249 246
f 246 241 247
f 247 241 252
f 252 177 247
f 178 177 252
f 178 252 179
f 179 252 243
f 180 179 243
f 180 243 181
f 243 233 181
f 243 238 233
f 243 231 238
f 241 231 243
f 241 236 231
f 241 237 236
f 241 239 237
f 241 242 239
f 250 242 241
f 236 237 231
f 230 238 231
f 238 230 234
f 234 230 224
f 271 234 224
f 221 234 271
f 222 221 271
f 222 271 217
f 217 271 269
f 217 269 209
f 269 267 209
f 269 268 267
f 269 224 268
f 268 264 267
f 268 266 264
f 230 266 268
f 230 232 266
f 232 231 266
f 266 231 235
f 266 235 261
f 266 261 263
f 266 263 262
f 265 266 262
f 264 265 262
f 264 262 203
f 205 264 203
f 205 203 204
f 205 204 198
f 206 205 198
f 206 267 205
f 206 198 195
f 195 198 196
f 198 202 196
f 202 198 200
f 202 200 169
f 202 169 168
f 202 168 163
f 201 202 163
f 276 201 163
f 276 197 201
f 276 195 197
f 195 276 273
f 194 195 273
f 194 273 275
f 272 275 273
f 272 273 165
f 191 272 165
f 188 272 191
f 189 272 188
f 208 272 189
f 194 272 208
f 208 211 194
f 208 213 211
f 189 213 208
f 190 213 189
f 190 219 213
f 213 219 210
f 216 210 219
f 220 216 219
f 226 216 220
f 226 220 225
f 225 182 226
f 173 182 225
f 174 173 225
f 227 174 225
f 227 225 228
f 228 225 185
f 185 225 229
f 225 219 229
f 185 229 270
f 270 229 215
f 214 270 215
f 218 214 215
f 218 215 187
f 215 188 187
f 215 190 188
f 215 229 190
f 159 174 227
f 173 174 159
f 226 223 216
f 223 222 216
f 210 216 217
f 217 212 210
f 212 207 210
f 212 209 207
f 207 209 206
f 207 206 195
f 211 207 195
f 210 207 211
f 211 213 210
f 229 219 190
f 188 190 189
f 187 188 191
f 191 165 187
f 187 165 186
f 186 165 158
f 192 186 158
f 193 186 192
f 158 165 277
f 277 165 167
f 194 275 272
f 195 194 211
f 195 201 197
f 276 163 273
f 273 163 170
f 274 273 170
f 274 170 165
f 165 170 164
f 170 162 164
f 171 162 170
f 171 160 162
f 164 166 165
f 200 93 169
f 200 199 93
f 203 199 200
f 203 93 199
f 203 94 93
f 203 117 94
f 169 93 46
f 196 202 201
f 195 196 201
f 198 204 200
f 204 203 200
f 262 260 203
f 262 261 260
f 260 261 258
f 261 257 258
f 237 257 261
f 237 239 257
f 257 239 259
f 258 257 259
f 258 259 117
f 117 259 114
f 114 259 110
f 259 111 110
f 260 258 117
f 203 260 117
f 263 261 262
f 237 261 235
f 231 237 235
f 230 231 232
f 264 266 265
f 264 205 267
f 209 267 206
f 212 217 209
f 216 222 217
f 221 222 223
f 223 233 221
f 182 233 223
f 226 182 223
f 233 234 221
f 271 224 269
f 224 230 268
f 233 238 234
f 233 182 181
f 176 247 177
f 252 241 243
f 246 253 241
f 176 249 247
f 175 183 184
f 256 248 254
f 246 248 253
f 155 154 255
f 253 250 241
f 251 17 14
f 13 15 19
f 15 91 19
f 19 91 90
f 90 91 89
f 91 16 89
f 16 84 89
f 89 84 83
f 89 83 86
f 89 86 88
f 88 86 73
f 73 75 88
f 88 75 68
f 88 68 77
f 87 88 77
f 96 88 87
f 97 88 96
f 97 96 107
f 109 97 107
f 108 109 107
f 107 98 108
f 108 98 105
f 105 98 80
f 79 105 80
f 95 105 79
f 80 98 26
f 98 51 26
f 98 85 51
f 85 106 51
f 107 106 85
f 106 107 103
f 107 87 103
f 106 103 51
f 51 103 23
f 23 103 22
f 103 104 22
f 104 103 69
f 103 70 69
f 103 77 70
f 77 65 70
f 65 64 70
f 65 58 64
f 65 68 58
f 68 71 58
f 73 71 68
f 73 72 71
f 73 74 72
f 76 74 73
f 76 84 74
f 78 74 84
f 78 84 82
f 84 10 82
f 1 10 84
f 1 11 10
f 11 12 10
f 82 10 12
f 78 82 12
f 78 12 74
f 74 12 67
f 12 2 67
f 67 2 3
f 59 67 3
f 63 67 59
f 71 67 63
f 71 66 67
f 72 67 66
f 63 59 71
f 71 59 57
f 59 3 57
f 57 3 56
f 57 56 9
f 57 9 58
f 58 9 55
f 58 55 60
f 60 55 9
f 56 3 9
f 3 4 9
f 73 84 76
f 72 74 67
f 71 72 66
f 58 71 57
f 58 61 64
f 64 61 81
f 69 64 81
f 69 81 99
f 99 81 29
f 99 29 69
f 21 69 29
f 20 69 21
f 22 69 20
f 22 20 21
f 26 22 21
f 26 21 24
f 24 21 27
f 21 29 27
f 27 29 28
f 81 61 29
f 70 64 69
f 104 69 22
f 51 23 22
f 51 22 26
f 80 26 43
f 80 43 47
f 43 26 31
f 41 31 26
f 41 26 33
f 98 107 85
f 109 88 97
f 109 90 88
f 101 90 109
f 107 96 87
f 87 77 103
f 68 65 77
f 68 75 73
f 86 83 73
f 83 84 73
f 88 90 89
f 19 90 101
f 244 245 19
f 242 250 239
f 240 259 239
f 240 111 259
f 244 19 101
f 108 101 109
f 112 108 105
f 112 105 92
f 115 119 112
f 115 112 92
f 95 92 105
f 95 79 80
f 45 80 47
f 139 140 149
f 43 31 153
f 31 41 33
f 33 26 30
f 26 24 30
f 25 24 27
f 28 32 27
f 29 61 28
f 61 58 60
f 35 62 52
f 52 53 39
f 60 9 54
f 53 7 44

