# https://github.com/mikedh/trimesh
v 0.15805250 -0.32300825 -0.06499875
v 0.15361200 -0.34201200 -0.05864300
v 0.15642301 -0.35453701 -0.06020050
v 0.28024399 -0.13637400 -0.14246751
v 0.27721887 -0.14209338 -0.14231475
v 0.28159850 -0.13120625 -0.14212975
v 0.28471300 -0.12274100 -0.14102399
v 0.28923999 -0.10228450 -0.13786450
v 0.21646750 -0.19563800 -0.12275750
v 0.18734400 -0.22764999 -0.10649850
v 0.17180150 -0.27312250 -0.08761200
v 0.17525300 -0.25184801 -0.09619700
v 0.17047800 -0.29073101 -0.08085700
v 0.16613301 -0.30378801 -0.07485550
v 0.24232800 -0.17463601 -0.13360099
v 0.23424900 -0.18339799 -0.12992100
v 0.26098362 -0.15207075 -0.14130588
v 0.20599600 -0.20867500 -0.11690900
v 0.29302800 -0.10383100 -0.14470699
v 0.17622550 -0.32630099 -0.08404400
v 0.30280834 -0.12148642 -0.16529030
v 0.29417950 -0.15487646 -0.16519510
v 0.30088806 -0.13414073 -0.16598597
v 0.30335599 -0.10609200 -0.16096300
v 0.29629649 -0.10829500 -0.15092300
v 0.29978520 -0.11524497 -0.15768742
v 0.28976158 -0.11846910 -0.14327836
v 0.22444730 -0.21302756 -0.11866494
v 0.21612433 -0.22291814 -0.11412446
v 0.22072761 -0.22794448 -0.11827936
v 0.22924270 -0.20852272 -0.12093164
v 0.23198301 -0.20725100 -0.12247500
v 0.23308907 -0.20398946 -0.12287608
v 0.25415562 -0.18127813 -0.13289124
v 0.25103764 -0.18757007 -0.13170067
v 0.26537721 -0.17055754 -0.13806598
v 0.22899100 -0.23021901 -0.12482800
v 0.23549805 -0.22026700 -0.12806579
v 0.24100492 -0.21869458 -0.13225857
v 0.24011037 -0.20410965 -0.12762357
v 0.23475696 -0.22542978 -0.12867334
v 0.24465018 -0.19967043 -0.12994901
v 0.25048582 -0.20910662 -0.13775344
v 0.27181797 -0.16836807 -0.14250633
v 0.27533180 -0.15670843 -0.14165029
v 0.22277317 -0.23804599 -0.12113873
v 0.28612160 -0.13517566 -0.14439012
v 0.21926966 -0.24402887 -0.11921278
v 0.22643594 -0.23520607 -0.12403992
v 0.28809385 -0.12392580 -0.14290442
v 0.25268530 -0.20783885 -0.14169298
v 0.26851910 -0.18745855 -0.14713475
v 0.27312566 -0.18751383 -0.15218018
v 0.26386994 -0.19677109 -0.14604950
v 0.21486270 -0.24993149 -0.11616876
v 0.27834305 -0.18139473 -0.15505904
v 0.28032573 -0.15012623 -0.14345829
v 0.21078950 -0.25606350 -0.11351700
v 0.28506850 -0.17267424 -0.15839989
v 0.29081062 -0.14774739 -0.15546266
v 0.20297731 -0.26660543 -0.10707884
v 0.19564250 -0.28009300 -0.10146200
v 0.20650850 -0.26227899 -0.11001000
v 0.19928800 -0.27313750 -0.10425000
v 0.20085808 -0.24645916 -0.10504833
v 0.20996700 -0.23184245 -0.11072802
v 0.17267871 -0.29297981 -0.08144040
v 0.18276849 -0.30279100 -0.08922950
v 0.18972000 -0.29034400 -0.09584900
v 0.18002705 -0.30037971 -0.08722005
v 0.18739600 -0.29487601 -0.09379100
v 0.17915601 -0.31108901 -0.08541600
v 0.17166410 -0.32483608 -0.07730617
v 0.16571051 -0.33724975 -0.07082350
v 0.16414868 -0.32542836 -0.07022662
v 0.16278387 -0.34196904 -0.06745558
v 0.19277563 -0.25519369 -0.09911166
v 0.25896767 -0.17408618 -0.13505767
v 0.20045655 -0.24202410 -0.10497328
v 0.15709519 -0.35188013 -0.06083653
v 0.23881901 -0.19871684 -0.12577201
v 0.17440896 -0.28565859 -0.08384450
v 0.17958083 -0.27496173 -0.08916847
v 0.18357533 -0.27027167 -0.09216597
v 0.27547931 -0.15281817 -0.14160042
v 0.22979671 -0.20568541 -0.12128674
v 0.28421969 -0.12974895 -0.14226833
v 0.15988301 -0.34796801 -0.06408500
v 0.26566696 -0.16633649 -0.13770909
v 0.18320687 -0.26459129 -0.09352832
v 0.18161900 -0.30637199 -0.08817700
v 0.21884000 -0.21403900 -0.11685000
v 0.20382753 -0.21641992 -0.11406604
v 0.18323789 -0.24360474 -0.10097082
v 0.24576166 -0.18704252 -0.12960087
v 0.21047956 -0.22760990 -0.11116029
v 0.19799531 -0.23993522 -0.10489406
v 0.23093238 -0.19717994 -0.12425041
v 0.21991167 -0.21667742 -0.11630298
v 0.19510364 -0.22360578 -0.11011328
v 0.23964661 -0.18499204 -0.12982779
v 0.23787144 -0.19387517 -0.12615584
v 0.27131395 -0.15464707 -0.14081493
v 0.26603962 -0.15987284 -0.13938598
v 0.24547398 -0.21404469 -0.13508200
f 82 67 84
f 83 82 84
f 84 90 83
f 77 90 84
f 77 79 90
f 90 79 11
f 11 82 90
f 82 11 13
f 11 79 12
f 94 12 79
f 79 97 94
f 96 94 97
f 96 10 94
f 100 10 96
f 99 100 96
f 100 99 93
f 93 18 100
f 18 93 98
f 98 93 86
f 98 86 81
f 102 98 81
f 101 98 102
f 101 102 95
f 101 95 78
f 89 101 78
f 89 15 101
f 15 16 101
f 17 15 89
f 104 17 89
f 103 104 89
f 103 89 45
f 85 103 45
f 5 103 85
f 5 17 103
f 5 85 4
f 6 5 4
f 87 6 4
f 7 6 87
f 8 7 87
f 8 87 50
f 50 87 47
f 8 50 27
f 27 50 26
f 26 50 23
f 23 50 22
f 50 47 22
f 26 23 21
f 24 26 21
f 25 26 24
f 27 26 25
f 19 27 25
f 8 27 19
f 87 4 47
f 47 4 57
f 4 85 57
f 57 85 45
f 45 56 57
f 57 56 59
f 47 57 59
f 47 59 60
f 59 22 60
f 45 44 56
f 44 52 56
f 56 52 53
f 53 52 54
f 52 42 54
f 42 40 54
f 54 40 51
f 42 81 40
f 35 81 42
f 95 81 35
f 34 95 35
f 36 34 35
f 78 34 36
f 35 42 36
f 36 42 44
f 89 36 44
f 40 81 33
f 33 86 40
f 86 32 40
f 86 31 32
f 31 86 28
f 86 99 28
f 86 92 99
f 30 28 99
f 30 99 29
f 29 66 30
f 66 65 30
f 66 96 65
f 96 79 65
f 65 55 30
f 55 65 58
f 65 61 58
f 65 62 61
f 65 84 62
f 62 84 70
f 62 70 69
f 70 68 69
f 20 68 70
f 20 70 14
f 67 14 70
f 67 13 14
f 14 73 20
f 14 75 73
f 73 75 74
f 75 76 74
f 76 75 1
f 2 76 1
f 76 2 80
f 76 80 88
f 80 2 3
f 14 1 75
f 68 91 20
f 91 72 20
f 69 68 71
f 62 69 71
f 58 61 63
f 61 64 63
f 55 58 48
f 48 30 55
f 30 48 46
f 49 46 48
f 30 46 49
f 30 49 37
f 37 49 38
f 38 49 41
f 39 38 41
f 39 105 38
f 40 38 105
f 105 43 40
f 40 30 38
f 38 30 37
f 96 66 29
f 31 28 30
f 31 30 32
f 32 30 40
f 44 42 52
f 45 89 44
f 103 17 104
f 89 78 36
f 78 95 34
f 101 16 98
f 16 9 98
f 95 102 81
f 81 86 33
f 93 92 86
f 9 18 98
f 92 93 99
f 99 96 29
f 18 10 100
f 96 97 79
f 10 12 94
f 79 77 65
f 65 77 84
f 90 82 83
f 84 67 70
f 82 13 67

