v -0.333902 -0.0852601 -0.176597
v -0.334791 -0.0973961 -0.177767
v -0.331238 -0.0987827 -0.166133
v -0.330839 -0.086802 -0.16494
v -0.326084 -0.0763187 -0.152259
v -0.329778 -0.0746114 -0.163745
v -0.307309 -0.030699 -0.113704
v -0.310245 -0.0525183 -0.130925
v -0.317974 -0.0644417 -0.142077
v -0.324392 -0.0876897 -0.155639
v -0.322632 -0.0990591 -0.158861
v -0.329857 -0.122705 -0.168837
v -0.331581 -0.110816 -0.167304
v -0.334768 -0.109776 -0.178921
v -0.334122 -0.12214 -0.180177
v -0.314002 -0.0421687 -0.125847
v -0.296714 -0.029428 -0.106194
v -0.292813 -0.0196955 -0.0923805
v -0.283621 -0.0192207 -0.0840575
v -0.337446 -0.0838583 -0.188137
v -0.331696 -0.0732397 -0.175551
v -0.28793 -0.00994021 -0.0794843
v -0.292611 -0.00877744 -0.0905279
v -0.287401 0.00235601 -0.0909348
v -0.281423 0.0128031 -0.0916064
v -0.283848 0.0125021 -0.103561
v -0.284716 0.0125261 -0.11522
v -0.27955 0.0210249 -0.139954
v -0.285885 0.0238214 -0.149991
v -0.281794 0.0352475 -0.149344
v -0.269922 0.0429342 -0.139532
v -0.248843 0.0729234 -0.128494
v -0.244424 0.0842067 -0.127612
v -0.328706 -0.0614906 -0.174522
v -0.328488 -0.0624107 -0.162542
v -0.237952 0.080763 -0.117925
v -0.235711 0.0659447 -0.109157
v -0.241559 0.0692149 -0.119398
v -0.245947 0.0578992 -0.120266
v -0.250507 0.0466476 -0.120992
v -0.255418 0.0358109 -0.121137
v -0.248938 0.0318826 -0.111672
v -0.237162 0.0389534 -0.102155
v -0.243616 0.0428936 -0.111625
v -0.23071 0.0350146 -0.0926823
v -0.232798 0.0505085 -0.101052
v -0.236976 0.0241848 -0.0924335
v -0.242746 0.0280613 -0.102019
v -0.267293 0.028634 -0.130646
v -0.261124 0.0253647 -0.120604
v -0.236964 0.0140048 -0.0675038
v -0.247858 0.0144757 -0.0610145
v -0.25354 0.0175895 -0.07148
v -0.258743 0.0193176 -0.0822252
v -0.252543 0.0229334 -0.0981876
v -0.257283 0.0246597 -0.109072
v -0.267567 0.020502 -0.105599
v -0.263627 0.0202985 -0.0937844
v -0.269809 0.0160807 -0.0786023
v -0.264945 0.0151787 -0.0666235
v -0.259264 0.0129893 -0.0554215
v -0.266341 0.00266615 -0.0557563
v -0.271881 0.00547633 -0.0664119
v -0.272954 -0.00784661 -0.0559319
v -0.254875 -0.00593268 -0.0360629
v -0.248966 -0.0117915 -0.0269275
v -0.242851 -0.0179814 -0.0177707
v -0.238175 -0.0394489 -0.0017
v -0.230432 -0.0310665 -0.00107229
v -0.236524 -0.0242869 -0.00934182
v -0.240524 -0.00290495 -0.0263906
v -0.236695 0.00401056 -0.0419517
v -0.22645 0.00309688 -0.0489525
v -0.221406 0.0123341 -0.0627504
v -0.215834 0.0065898 -0.0541857
v -0.214216 -0.00857223 -0.0322182
v -0.220417 -0.00250791 -0.0405392
v -0.218329 -0.0182763 -0.0189964
v -0.221656 -0.0261959 -0.00431457
v -0.234009 -0.0103367 -0.0185577
v -0.227824 -0.0184172 -0.0114684
v -0.242245 0.00988218 -0.051041
v -0.252957 0.00910938 -0.0449465
v -0.224504 -0.0105627 -0.0262229
v -0.230547 -0.00304972 -0.0335649
v -0.231931 -0.0459294 0.00649987
v -0.224145 -0.0375691 0.00691546
v -0.21772 -0.0432766 0.0150875
v -0.225926 -0.051997 0.0161063
v -0.246814 0.00333477 -0.035478
v -0.325071 -0.0640139 -0.150985
v -0.319934 -0.0532563 -0.138272
v -0.311865 -0.0299613 -0.12483
v -0.291943 0.00378549 -0.102023
v -0.2782 -0.00498311 -0.0663866
v -0.283061 -0.00270978 -0.0772886
v -0.277394 0.00772289 -0.0775009
v -0.294825 0.00423656 -0.113519
v -0.260569 -0.00102243 -0.0456611
v -0.271188 0.0202993 -0.117356
v -0.274533 0.0197184 -0.129126
v -0.277809 0.0154058 -0.102655
v -0.281035 0.0143736 -0.114585
v -0.284291 0.0132614 -0.126578
v -0.274329 0.0162678 -0.0907018
v -0.231831 0.00862796 -0.0580926
v -0.231262 0.0200466 -0.0829676
v -0.226249 0.0160063 -0.0729319
v -0.242326 0.018005 -0.0774512
v -0.247628 0.0212726 -0.0875849
v -0.257817 0.0504615 -0.130043
v -0.239294 0.0542382 -0.110737
v -0.253264 0.0616405 -0.129375
v -0.291203 0.0128717 -0.149702
v -0.274424 0.0318986 -0.140096
v -0.26258 0.0395924 -0.130305
v -0.292154 0.0266617 -0.160039
v -0.296672 0.0155145 -0.160226
v -0.301276 0.0177582 -0.17117
v -0.3111 -0.00427651 -0.171288
v -0.306134 0.0067273 -0.171205
v -0.315567 -0.0154329 -0.1716
v -0.310988 -0.0174799 -0.160357
v -0.306604 -0.00642789 -0.160156
v -0.296147 0.0024032 -0.137381
v -0.295632 0.0034208 -0.125382
v -0.297071 -0.00757796 -0.101643
v -0.300868 -0.00659604 -0.11294
v -0.308634 -0.0177181 -0.124377
v -0.3041 -0.00684122 -0.136554
v -0.303269 -0.00794798 -0.148798
v -0.310324 -0.0176373 -0.148237
v -0.311288 -0.0167798 -0.136132
v -0.315245 -0.0285966 -0.160717
v -0.322897 -0.0382753 -0.172755
v -0.319607 -0.0266903 -0.172014
v -0.323592 -0.0248375 -0.183492
v -0.311988 0.0100656 -0.194425
v -0.316883 -0.00100005 -0.194711
v -0.321159 -0.0123114 -0.195064
v -0.325746 -0.023496 -0.195377
v -0.330433 -0.0346416 -0.195687
v -0.327516 -0.0362492 -0.183953
v -0.330672 -0.0479714 -0.184747
v -0.333605 -0.0597806 -0.185624
v -0.335521 -0.0718661 -0.186935
v -0.319343 -0.0135404 -0.183114
v -0.314621 -0.0024085 -0.182815
v -0.326038 -0.0498205 -0.173532
v -0.32544 -0.0506127 -0.161635
v -0.320734 -0.0392521 -0.16103
v -0.315172 -0.0285925 -0.136531
v -0.317887 -0.0409053 -0.13726
v -0.323185 -0.051776 -0.149952
v -0.321119 -0.0394743 -0.148987
v -0.316563 -0.0280463 -0.148415
v -0.304908 -0.0186514 -0.113001
v -0.30131 -0.0194891 -0.101542
v -0.304194 -0.00582521 -0.124382
v -0.296565 0.00203186 -0.149407
v -0.309827 0.00867493 -0.182583
v -0.301339 0.00437487 -0.16031
f 21 146 20 1
f 2 3 4 1
f 4 6 21 1
f 14 13 3 2
f 11 10 4 3
f 10 5 6 4
f 91 35 6 5
f 35 34 21 6
f 157 129 93 7
f 17 158 157 7
f 16 153 92 8
f 92 154 91 9
f 13 14 15 12
f 93 152 153 16
f 23 127 158 18
f 19 22 23 18
f 24 94 127 23
f 25 26 94 24
f 27 98 94 26
f 115 30 29 28
f 101 49 115 28
f 117 118 114 29
f 115 49 116 31
f 113 39 38 32
f 38 36 33 32
f 38 39 112 37
f 113 111 40 39
f 40 44 112 39
f 111 116 41 40
f 41 42 44 40
f 116 49 50 41
f 50 56 42 41
f 56 55 48 42
f 48 43 44 42
f 46 112 44 43
f 48 47 45 43
f 48 55 110 47
f 110 109 107 47
f 101 100 50 49
f 100 57 56 50
f 108 107 109 51
f 109 53 52 51
f 52 82 106 51
f 106 74 108 51
f 53 60 61 52
f 61 83 82 52
f 109 110 54 53
f 54 59 60 53
f 110 55 58 54
f 58 105 59 54
f 56 57 58 55
f 100 103 102 57
f 102 105 58 57
f 97 63 60 59
f 63 62 61 60
f 62 99 83 61
f 63 95 64 62
f 97 96 95 63
f 90 83 99 65
f 66 71 90 65
f 67 80 71 66
f 70 81 80 67
f 86 87 69 68
f 79 81 70 69
f 85 72 90 71
f 80 84 85 71
f 73 106 82 72
f 82 83 90 72
f 75 74 106 73
f 77 85 84 76
f 84 80 81 78
f 89 88 87 86
f 101 104 103 100
f 119 121 162 118
f 162 160 114 118
f 121 161 148 120
f 148 147 122 120
f 122 123 124 120
f 124 162 121 120
f 147 137 136 122
f 136 134 123 122
f 134 156 132 123
f 132 131 124 123
f 131 160 162 124
f 160 131 130 125
f 130 159 126 125
f 159 128 98 126
f 94 98 128 127
f 128 157 158 127
f 159 129 157 128
f 159 130 133 129
f 133 152 93 129
f 131 132 133 130
f 156 152 133 132
f 136 135 151 134
f 151 155 156 134
f 136 137 143 135
f 143 144 149 135
f 149 150 151 135
f 147 140 141 137
f 141 142 143 137
f 139 148 161 138
f 140 147 148 139
f 145 34 149 144
f 146 21 34 145
f 34 35 150 149
f 35 91 154 150
f 154 155 151 150
f 156 155 153 152
f 155 154 92 153
