# https://github.com/mikedh/trimesh
v -0.24693175 -0.10922075 -0.07868225
v -0.25171662 -0.11568063 -0.08950625
v -0.12460750 -0.17665075 0.09098975
v -0.13688850 -0.17098099 0.09266750
v -0.14314637 -0.16747187 0.08123462
v -0.24633925 -0.10392600 -0.06232450
v -0.22841675 -0.12364650 -0.04412500
v -0.21860600 -0.13289601 -0.03400500
v -0.21251300 -0.13546025 -0.02571525
v -0.19094349 -0.14532675 -0.00341025
v -0.17608599 -0.15076600 0.01207800
v -0.17005400 -0.15122750 0.01941075
v -0.16409600 -0.15272699 0.02725600
v -0.15952050 -0.15490250 0.03418900
v -0.12836450 -0.17612750 0.08164000
v -0.15183925 -0.16143000 0.04810475
v -0.14935100 -0.16298001 0.05685000
v -0.05394475 -0.19055092 0.00991712
v -0.02960492 -0.19711301 0.02753068
v -0.01668662 -0.20790909 0.06660117
v -0.01617375 -0.19967913 0.03649608
v -0.02452579 -0.19056815 0.00053269
v -0.03952866 -0.18036870 -0.03344340
v -0.04224564 -0.18689977 -0.00834752
v -0.05645141 -0.17799210 -0.03541220
v -0.07303513 -0.17889053 -0.02292615
v -0.02876001 -0.17864424 -0.04256638
v 0.00110219 -0.18655160 -0.01365717
v 0.00331982 -0.19315059 0.01474690
v 0.00633282 -0.17937711 -0.04013099
v -0.00957868 -0.17922001 -0.04206151
v 0.03741565 -0.17759053 -0.04101039
v 0.01820860 -0.18254122 -0.02641527
v -0.00631232 -0.19140884 0.00468995
v -0.02057481 -0.21023675 0.07554052
v -0.05642745 -0.19895519 0.04130139
v -0.04849351 -0.20578823 0.06344171
v -0.06079839 -0.20262945 0.05606091
v -0.02710504 -0.20992658 0.07453153
v -0.00423842 -0.19990812 0.03966308
v 0.01029198 -0.20261070 0.05460932
v -0.00445133 -0.20925434 0.07339928
v 0.03411674 -0.18591467 -0.00357742
v 0.03255731 -0.18330264 -0.01767012
v 0.04188950 -0.18116024 -0.02324700
v 0.05496200 -0.17724299 -0.03741800
v 0.05128400 -0.17556300 -0.04591500
v 0.02869332 -0.17503989 -0.05485915
v 0.01006112 -0.17602794 -0.05703111
v -0.02139504 -0.17735933 -0.05045678
v -0.07195945 -0.17638212 -0.03350761
v -0.04398774 -0.19267290 0.01389489
v -0.03689751 -0.19701329 0.02842876
v -0.07287815 -0.18593487 0.00415717
v -0.06374494 -0.19614631 0.03497482
v -0.08672844 -0.18747541 0.02073627
v -0.09819371 -0.17838809 -0.00377543
v -0.11831568 -0.17467298 0.00507298
v -0.10673681 -0.17316352 -0.01844232
v -0.11951280 -0.17330943 -0.00056402
v -0.10593781 -0.17952519 0.01029680
v -0.10431400 -0.18267149 0.02182050
v -0.11643400 -0.17882299 0.02294700
v -0.09453848 -0.17622301 -0.01663896
v -0.09083638 -0.17295885 -0.03556302
v -0.10380836 -0.17178324 -0.02898910
v -0.11836647 -0.16826407 -0.03516288
v -0.07753218 -0.18951217 0.02058562
v -0.07725126 -0.19756342 0.04793831
v -0.07469770 -0.17377385 -0.04518372
v -0.08505644 -0.17275321 -0.04253173
v -0.05034094 -0.20866958 0.07626331
v -0.04469458 -0.21072956 0.08805936
v -0.06072520 -0.17506612 -0.04814001
v -0.06632986 -0.20586228 0.07170873
v -0.06093974 -0.20820534 0.08413255
v -0.07553900 -0.20643400 0.08034000
v -0.00140609 -0.21263386 0.09060902
v -0.02413570 -0.21326000 0.09224306
v -0.03595400 -0.21285100 0.09136600
v -0.07980451 -0.19923785 0.05671724
v 0.07640600 -0.17139500 -0.05839800
v -0.11719527 -0.17049264 -0.02010179
v -0.07943114 -0.20111350 0.06427322
v 0.00363109 -0.20690430 0.06745266
v 0.00871150 -0.20846331 0.07536522
v 0.02020186 -0.19858607 0.04654867
v 0.02588612 -0.20358903 0.06698922
v 0.02134273 -0.20119870 0.05579025
v 0.07875900 -0.17075300 -0.06285950
v -0.01811184 -0.17723918 -0.05261853
v -0.13549643 -0.16973515 0.00456172
v -0.08674900 -0.19840550 0.06113050
v -0.08770813 -0.19440316 0.04663264
v -0.09306300 -0.19302550 0.04810350
v 0.01414979 -0.19447002 0.02600758
v 0.02497700 -0.21384500 0.09228500
v 0.01487035 -0.19317440 0.02023174
v 0.04208412 -0.19109192 0.03580794
v 0.04243269 -0.18469286 -0.00333416
v 0.03533229 -0.18898381 0.01593216
v 0.04644150 -0.18533500 0.00614350
v 0.04920700 -0.18293799 -0.00774600
v -0.02544579 -0.17758009 -0.05643708
v -0.12255565 -0.16745410 -0.03830256
v -0.00932800 -0.21428099 0.09480600
v -0.08803000 -0.19632401 0.05460600
v 0.03757213 -0.19011601 0.02608395
v -0.05727750 -0.20878312 0.08585300
v 0.03944274 -0.20319048 0.07785397
v 0.05010600 -0.18719199 0.02619700
v 0.04251794 -0.20003406 0.07056897
v 0.05573400 -0.18832350 0.04006900
v 0.04345394 -0.19333923 0.04566410
v 0.05211426 -0.18936882 0.03953649
v 0.04344302 -0.19724786 0.05932308
v 0.05046300 -0.19688200 0.06712950
v -0.02699475 -0.21323112 0.09238188
v -0.07137500 -0.20438400 0.06948600
v 0.06973300 -0.18631300 0.05568900
v -0.09296200 -0.19483800 0.05631900
v 0.05676811 -0.19306930 0.06250990
v -0.09705500 -0.19256100 0.05358200
v -0.14720249 -0.17289050 -0.06350150
v -0.13076750 -0.17440200 -0.06215600
v -0.12028500 -0.17631200 -0.06265200
v -0.08858325 -0.17853825 -0.06191400
v -0.12236793 -0.17227457 -0.05842800
v -0.04557350 -0.18030200 -0.06093400
v -0.14050343 -0.17038348 -0.05972007
v -0.06668309 -0.17789437 -0.05882108
v -0.11899419 -0.16992455 -0.05360489
v -0.04172451 -0.17752217 -0.05645056
v -0.07331256 -0.17501143 -0.05385101
v 0.00564100 -0.17928749 -0.06289800
v -0.14918446 -0.16651019 -0.05673209
v -0.13644648 -0.16849610 -0.05637737
v -0.15357112 -0.16470550 -0.05503335
v -0.08504981 -0.17490025 -0.05618566
v -0.15679217 -0.16256982 -0.05078407
v -0.17504130 -0.16224912 -0.06203852
v -0.00801962 -0.17749012 -0.05754309
v -0.17168724 -0.15995281 -0.05441514
v 0.03539750 -0.17454440 -0.05933305
v 0.03530300 -0.17592999 -0.06358500
v -0.04745396 -0.17622655 -0.05216847
v 0.07018325 -0.17186425 -0.06505950
v -0.16908845 -0.15941522 -0.04567663
v -0.11723327 -0.16864976 -0.04827048
v -0.17474143 -0.15809934 -0.04953218
v -0.12823951 -0.16687742 -0.04747637
v -0.13234502 -0.16592041 -0.04417639
v -0.17553056 -0.15990390 -0.05792341
v -0.16738019 -0.15961963 -0.04320881
v 0.04767000 -0.17509399 -0.06568700
v -0.17951563 -0.15701429 -0.05274421
v -0.14912871 -0.16293219 -0.04168110
v -0.17431320 -0.15830164 -0.03062709
v -0.16890357 -0.15970565 -0.02862532
v -0.15076706 -0.16287837 -0.02952815
v -0.15904529 -0.16354758 -0.00854428
v -0.13971080 -0.16627288 -0.01514350
v -0.16924312 -0.16155453 -0.00708863
v 0.04329081 -0.17416755 -0.06134805
v -0.15986465 -0.16460554 0.00865511
v -0.14755449 -0.16787244 0.01558889
v -0.14133378 -0.16876793 0.00861575
v -0.15794689 -0.16492042 0.01680204
v -0.14046564 -0.17000556 0.02373883
v -0.17162041 -0.16101441 -0.00026035
v -0.17675569 -0.15891507 -0.01039399
v -0.17540178 -0.15947604 -0.00409936
v -0.18569717 -0.15450394 -0.05164306
v -0.13372918 -0.17265071 0.03149441
v -0.13222605 -0.17208194 0.01637428
v -0.14702957 -0.16783093 0.03237307
v -0.13978488 -0.17043309 0.05267517
v -0.18883467 -0.15286632 -0.03714089
v -0.15664559 -0.16274430 0.03075996
v -0.19099970 -0.14836602 -0.00487499
v -0.16569221 -0.15842280 0.02118355
v -0.20692598 -0.14208774 -0.02363019
v -0.15759239 -0.15950536 0.03474638
v -0.17307658 -0.15873991 0.00821957
v -0.20163975 -0.14578234 -0.02044802
v -0.18662325 -0.15339220 -0.00563785
v -0.20551500 -0.14376575 -0.02645669
v -0.19715561 -0.14788592 -0.01490348
v -0.22041679 -0.13246405 -0.03893318
v -0.18645082 -0.15469782 -0.01272213
v -0.15248901 -0.16493100 0.03465300
v -0.19555778 -0.15007598 -0.02137516
v -0.14934665 -0.16491706 0.04773478
v -0.15937901 -0.16393800 0.01936400
v -0.16731238 -0.16162797 0.01095920
v -0.21563999 -0.13635300 -0.03795300
v -0.14640448 -0.16731510 0.04789274
v -0.14336806 -0.16867423 0.06823238
v -0.14194160 -0.16966373 0.07584826
v -0.19961520 -0.14758177 -0.04865692
v -0.20647369 -0.14352124 -0.03358079
v -0.20588720 -0.14369479 -0.05402471
v -0.20455478 -0.14539167 -0.06121562
v -0.19554839 -0.14985859 -0.05287483
v -0.14362100 -0.16885900 0.04407400
v -0.12283120 -0.17871653 0.06709811
v -0.11589611 -0.18261906 0.05104792
v -0.12850160 -0.17581436 0.04964996
v -0.14178650 -0.16974118 0.06620080
v -0.12277808 -0.17582211 0.01922581
v -0.11141850 -0.18173200 0.02848700
v -0.10576450 -0.18788575 0.04892675
v -0.11800998 -0.18152631 0.05679027
v -0.12291647 -0.17709087 0.02852791
v -0.21285907 -0.13845099 -0.05729349
v -0.21186869 -0.14120042 -0.06800103
v -0.18956128 -0.15498417 -0.06098534
v -0.19723042 -0.15288070 -0.06735968
v -0.20325206 -0.14886746 -0.06842944
v -0.14352514 -0.16829883 0.07361233
v -0.22105921 -0.13053134 -0.05839648
v -0.22135406 -0.13142732 -0.04270942
v -0.23567247 -0.11565832 -0.07024436
v -0.24141416 -0.11228593 -0.07815745
v -0.23480524 -0.11864506 -0.07645091
v -0.18873101 -0.15680672 -0.06433928
v -0.23946077 -0.11700471 -0.08195656
v -0.20555715 -0.14964372 -0.07282878
v -0.23595206 -0.12166967 -0.08309916
v -0.24635137 -0.11551127 -0.08702532
v -0.21919174 -0.13989394 -0.07955359
v -0.18848149 -0.16021171 -0.06863546
v -0.16372301 -0.16594200 -0.06127500
v -0.20031746 -0.15568617 -0.07376580
v -0.21937400 -0.14404200 -0.08304500
v -0.20357824 -0.15543450 -0.07657725
v -0.24356075 -0.12220575 -0.08957775
v -0.18613750 -0.16289063 -0.06989300
v -0.16706360 -0.15492565 0.02176678
v -0.18144030 -0.15289729 0.00438010
v -0.10185927 -0.18859497 0.04320524
f 6 1 224
f 6 224 223
f 223 224 225
f 227 225 224
f 225 227 229
f 227 230 229
f 230 237 229
f 237 230 2
f 230 1 2
f 231 229 237
f 231 237 235
f 231 235 236
f 234 231 236
f 234 236 238
f 232 234 238
f 141 232 238
f 141 238 233
f 138 141 233
f 136 138 233
f 136 233 137
f 137 233 124
f 138 136 137
f 151 138 137
f 151 140 138
f 151 148 140
f 152 148 151
f 105 152 151
f 105 157 152
f 105 160 157
f 160 154 157
f 158 154 160
f 160 159 158
f 160 163 159
f 160 161 163
f 166 163 161
f 165 163 166
f 166 168 165
f 176 168 166
f 176 191 168
f 197 191 176
f 191 197 193
f 198 193 197
f 198 197 209
f 220 198 209
f 199 220 209
f 5 220 199
f 5 193 220
f 5 17 193
f 16 193 17
f 16 179 193
f 16 183 179
f 183 181 179
f 239 181 183
f 14 239 183
f 14 13 239
f 13 12 239
f 12 240 239
f 12 11 240
f 10 240 11
f 10 180 240
f 240 180 186
f 240 186 184
f 184 181 240
f 181 184 195
f 195 184 190
f 195 190 170
f 168 195 170
f 194 195 168
f 195 194 191
f 191 179 195
f 170 190 172
f 171 172 190
f 190 178 171
f 190 204 178
f 190 192 204
f 192 201 204
f 204 201 200
f 200 202 204
f 202 203 204
f 204 203 217
f 173 204 217
f 156 173 217
f 143 156 217
f 143 217 153
f 153 217 141
f 217 226 141
f 217 218 226
f 226 218 234
f 228 234 218
f 218 219 228
f 219 216 228
f 228 216 231
f 225 231 216
f 218 216 219
f 216 218 217
f 143 153 141
f 150 156 143
f 140 150 143
f 173 156 150
f 150 178 173
f 150 148 178
f 148 158 178
f 163 178 158
f 217 203 216
f 215 216 203
f 215 223 216
f 223 215 221
f 222 221 215
f 6 221 222
f 222 189 6
f 196 189 222
f 196 222 201
f 201 222 202
f 189 196 201
f 182 189 201
f 187 182 201
f 187 185 182
f 192 185 187
f 188 185 192
f 186 188 192
f 182 185 188
f 180 182 188
f 180 9 182
f 9 189 182
f 9 8 189
f 8 7 189
f 189 7 6
f 202 222 215
f 215 203 202
f 201 202 200
f 192 187 201
f 186 192 190
f 178 204 173
f 171 178 163
f 170 171 163
f 170 172 171
f 184 186 190
f 180 188 186
f 10 9 180
f 181 239 240
f 179 181 195
f 14 183 16
f 4 5 199
f 4 199 15
f 15 199 206
f 206 199 177
f 177 208 206
f 206 208 213
f 213 208 207
f 207 208 214
f 208 174 214
f 174 210 214
f 210 63 214
f 63 210 58
f 210 175 58
f 175 60 58
f 60 175 92
f 175 167 92
f 169 167 175
f 174 169 175
f 174 177 169
f 177 176 169
f 205 176 177
f 177 197 205
f 166 167 169
f 166 160 167
f 167 160 162
f 162 160 67
f 67 92 162
f 83 92 67
f 59 83 67
f 60 83 59
f 57 60 59
f 64 57 59
f 59 66 64
f 64 66 65
f 66 67 65
f 65 67 71
f 71 67 149
f 70 71 149
f 70 149 74
f 74 149 134
f 134 149 139
f 149 132 139
f 149 137 132
f 132 137 130
f 130 137 124
f 125 130 124
f 128 130 125
f 128 125 126
f 127 128 126
f 132 128 127
f 132 130 128
f 132 127 139
f 131 139 127
f 131 127 129
f 133 131 129
f 133 134 131
f 146 134 133
f 91 146 133
f 50 146 91
f 50 74 146
f 27 74 50
f 31 27 50
f 30 31 50
f 30 50 48
f 50 49 48
f 48 49 144
f 144 49 135
f 164 144 135
f 90 144 164
f 90 164 147
f 164 155 147
f 164 145 155
f 90 82 144
f 164 135 145
f 49 142 135
f 142 129 135
f 142 104 129
f 91 104 142
f 91 142 49
f 82 48 144
f 47 48 82
f 32 48 47
f 32 47 46
f 33 32 46
f 46 45 33
f 45 44 33
f 45 100 44
f 103 100 45
f 100 103 102
f 102 101 100
f 111 101 102
f 111 99 101
f 113 99 111
f 115 99 113
f 116 115 113
f 116 114 115
f 116 99 114
f 116 87 99
f 116 89 87
f 88 89 116
f 112 88 116
f 117 112 116
f 122 117 116
f 120 122 116
f 112 110 88
f 110 86 88
f 110 97 86
f 97 78 86
f 78 42 86
f 42 20 86
f 86 20 85
f 85 20 40
f 41 85 40
f 41 88 85
f 29 41 40
f 89 41 29
f 40 34 29
f 40 21 34
f 21 22 34
f 34 22 31
f 28 34 31
f 28 31 33
f 29 28 33
f 22 21 19
f 19 53 22
f 53 52 22
f 53 55 52
f 53 36 55
f 38 55 36
f 38 84 55
f 55 84 69
f 84 81 69
f 81 84 94
f 84 93 94
f 93 121 94
f 121 61 94
f 121 63 61
f 94 61 56
f 56 69 94
f 56 61 57
f 58 57 61
f 93 123 121
f 121 123 241
f 123 212 241
f 212 211 241
f 241 211 62
f 95 241 62
f 241 95 107
f 107 121 241
f 84 119 93
f 81 94 69
f 55 69 56
f 55 56 68
f 68 56 26
f 54 68 26
f 54 26 18
f 55 54 18
f 26 25 18
f 25 26 51
f 26 65 51
f 25 51 70
f 25 70 27
f 23 25 27
f 27 24 23
f 27 22 24
f 23 24 25
f 18 25 24
f 52 18 24
f 26 56 64
f 55 68 54
f 38 75 84
f 119 84 75
f 77 119 75
f 72 77 75
f 76 77 72
f 73 76 72
f 109 76 73
f 73 72 80
f 80 72 79
f 79 72 39
f 79 39 35
f 78 79 35
f 106 79 78
f 106 118 79
f 79 118 80
f 35 39 19
f 39 37 19
f 75 37 39
f 19 37 36
f 35 19 20
f 39 72 75
f 75 38 37
f 36 37 38
f 55 18 52
f 22 52 24
f 19 36 53
f 20 19 21
f 29 34 28
f 20 21 40
f 42 35 20
f 78 35 42
f 88 86 85
f 41 89 88
f 87 89 29
f 87 29 96
f 98 87 96
f 98 96 29
f 43 98 29
f 101 98 43
f 108 98 101
f 108 99 98
f 43 29 44
f 99 87 98
f 120 116 113
f 115 114 99
f 99 108 101
f 100 101 43
f 100 43 44
f 44 29 33
f 33 30 32
f 32 30 48
f 33 31 30
f 22 27 31
f 50 91 49
f 104 91 133
f 133 129 104
f 131 134 139
f 74 134 146
f 27 70 74
f 51 71 70
f 67 151 149
f 71 51 65
f 26 64 65
f 56 57 64
f 59 67 66
f 167 162 92
f 60 92 83
f 58 60 57
f 63 58 61
f 174 175 210
f 207 214 63
f 208 177 174
f 15 3 4
f 199 209 177
f 209 197 177
f 198 220 193
f 191 193 179
f 197 176 205
f 191 194 168
f 169 176 166
f 168 170 165
f 165 170 163
f 166 161 160
f 159 163 158
f 158 148 154
f 157 154 148
f 67 160 105
f 67 105 151
f 152 157 148
f 148 150 140
f 140 143 138
f 149 151 137
f 143 141 138
f 141 226 232
f 234 232 226
f 228 231 234
f 225 229 231
f 227 224 230
f 223 225 216
f 6 223 221
f 224 1 230

