# https://github.com/mikedh/trimesh
v 0.12270100 -0.13383850 0.12684150
v 0.26987705 -0.12553810 0.14938284
v 0.36342306 -0.12671899 0.15617245
v 0.16716642 -0.12786687 0.14402787
v 0.29204049 -0.12706001 0.15200400
v 0.35962799 -0.12765950 0.15701801
v 0.11524431 -0.13525628 0.14187047
v 0.19056600 -0.12924300 0.14655900
v 0.34619749 -0.12709550 0.15563700
v 0.15010699 -0.13009650 0.14438149
v 0.32876700 -0.12660100 0.15409499
v 0.22384499 -0.12861600 0.14834149
v 0.35308549 -0.13378150 0.14842550
v 0.30622806 -0.13059093 0.15350579
v 0.25384599 -0.13161141 0.15067593
v 0.33396227 -0.13060909 0.15494099
v 0.16269324 -0.13448090 0.14577168
v 0.21748477 -0.13231210 0.14861368
v 0.23803679 -0.13048806 0.14968703
v 0.13274488 -0.13674632 0.14329198
v 0.22068355 -0.13545434 0.14765419
v 0.18510444 -0.13527105 0.14648102
v 0.30304316 -0.13327984 0.15250195
v 0.20763600 -0.13631900 0.14663900
v 0.25316101 -0.13628501 0.14843500
v 0.27540475 -0.13550300 0.14994199
v 0.16596450 -0.13782000 0.14396975
v 0.12238700 -0.13839000 0.14142699
v 0.29591799 -0.13463099 0.15136400
v 0.11551102 -0.13823905 0.14123135
v 0.23015425 -0.13652000 0.14726750
v 0.24232800 -0.13652700 0.14774100
v 0.32739849 -0.13412899 0.15272051
v 0.28432500 -0.13543600 0.15034600
v 0.28295259 -0.12942587 0.15225338
v 0.17769367 -0.13152875 0.14655971
v 0.33561297 -0.12773265 0.15496097
v 0.21368867 -0.12935777 0.14802792
v 0.24180250 -0.13175501 0.13332750
v 0.21817601 -0.13291700 0.13197701
v 0.17263901 -0.13364700 0.12954400
v 0.26569200 -0.13149300 0.13468701
v 0.29344200 -0.13038100 0.13608401
v 0.27558900 -0.13088950 0.13515700
v 0.33670476 -0.13005725 0.13810275
v 0.36233475 -0.12938424 0.13846350
v 0.12033248 -0.14082863 0.12970646
v 0.12801200 -0.14094000 0.13466449
v 0.12506663 -0.14038063 0.13963426
v 0.13992706 -0.13920754 0.14156959
v 0.16147882 -0.13930359 0.14217604
v 0.21421995 -0.13779039 0.14541856
v 0.29712177 -0.13690388 0.14868274
v 0.34253063 -0.13434175 0.15271210
v 0.35820977 -0.13324095 0.15432915
v 0.34204580 -0.13578877 0.14939475
v 0.26733309 -0.13750838 0.14748271
v 0.28904549 -0.13792009 0.14437575
v 0.20753572 -0.13909917 0.14283393
v 0.18150195 -0.14000998 0.14046212
v 0.32100128 -0.13692917 0.14776843
v 0.24670244 -0.13873577 0.14403849
v 0.21567898 -0.13949487 0.13966943
v 0.14697302 -0.14102645 0.13710742
v 0.18373384 -0.14008665 0.13747175
v 0.25152281 -0.13861363 0.14088680
v 0.34431189 -0.13600279 0.14589242
v 0.35064784 -0.13497221 0.14971775
v 0.35282145 -0.13453308 0.14366452
v 0.27437240 -0.13808093 0.14189143
v 0.27762501 -0.13767450 0.14092700
v 0.14182000 -0.14029200 0.13292199
v 0.34080650 -0.13540050 0.14324450
v 0.22401001 -0.13888900 0.13789800
v 0.17341401 -0.13990900 0.13515300
v 0.21667950 -0.13883500 0.13704100
v 0.32419500 -0.13621999 0.14276300
v 0.29312125 -0.13711375 0.14119250
v 0.13768772 -0.13932443 0.13065650
v 0.22078946 -0.13733049 0.13459146
v 0.24498430 -0.13717574 0.13629283
v 0.27240658 -0.13676327 0.13811069
v 0.32823804 -0.13559958 0.14183945
v 0.34786510 -0.13402207 0.14119487
v 0.15458068 -0.13709164 0.12948822
v 0.19096496 -0.13806115 0.13305649
v 0.33981815 -0.13162766 0.13879928
v 0.29537724 -0.13465334 0.13756546
v 0.26240709 -0.13450020 0.13522878
v 0.34662229 -0.13052985 0.13852080
v 0.30787604 -0.13232205 0.13711368
f 72 48 79
f 79 86 72
f 79 85 86
f 86 85 41
f 40 86 41
f 80 86 40
f 81 80 40
f 81 40 89
f 82 81 89
f 88 82 89
f 44 88 89
f 42 44 89
f 42 89 39
f 91 88 44
f 84 88 91
f 84 91 87
f 45 87 91
f 45 91 43
f 90 87 45
f 90 46 87
f 46 90 45
f 46 84 87
f 69 84 46
f 69 73 84
f 73 83 84
f 73 77 83
f 77 78 83
f 78 82 83
f 84 83 88
f 43 91 44
f 83 82 88
f 82 78 81
f 78 76 81
f 81 76 80
f 76 86 80
f 76 75 86
f 89 40 39
f 1 41 85
f 85 47 1
f 79 47 85
f 86 75 72
f 79 48 47
f 64 48 72
f 72 65 64
f 65 72 74
f 63 65 74
f 66 63 74
f 71 66 74
f 71 70 66
f 58 70 71
f 73 58 71
f 67 58 73
f 69 67 73
f 68 67 69
f 13 68 69
f 13 69 46
f 55 68 13
f 68 56 67
f 68 54 56
f 55 54 68
f 56 54 61
f 54 53 61
f 53 58 61
f 53 57 58
f 57 62 58
f 57 52 62
f 62 52 59
f 62 59 63
f 59 60 63
f 52 60 59
f 52 51 60
f 51 64 60
f 51 49 64
f 50 49 51
f 27 50 51
f 27 28 50
f 27 20 28
f 20 30 28
f 7 30 20
f 17 7 20
f 22 17 20
f 18 17 22
f 18 22 21
f 22 24 21
f 21 24 31
f 25 21 31
f 18 21 25
f 15 18 25
f 23 15 25
f 23 25 26
f 29 23 26
f 23 29 33
f 16 23 33
f 6 16 33
f 16 14 23
f 16 37 14
f 37 16 6
f 9 37 6
f 9 11 37
f 11 5 37
f 37 5 35
f 5 2 35
f 35 2 15
f 35 15 14
f 2 19 15
f 2 12 19
f 12 38 19
f 38 36 19
f 8 36 38
f 8 4 36
f 4 10 36
f 10 7 36
f 19 36 18
f 12 8 38
f 37 35 14
f 23 14 15
f 19 18 15
f 18 36 17
f 36 7 17
f 22 20 27
f 28 49 50
f 27 51 52
f 21 27 52
f 32 21 52
f 32 52 57
f 25 32 57
f 34 25 57
f 34 57 53
f 33 34 53
f 54 33 53
f 3 33 54
f 55 3 54
f 56 61 67
f 61 58 67
f 62 70 58
f 70 62 66
f 62 63 66
f 60 65 63
f 60 64 65
f 64 49 48

