v 0.0313713 -0.132546 0.263768
v 0.0290932 -0.130362 0.257321
v 0.0324404 -0.135404 0.254633
v 0.0341018 -0.141053 0.251402
v 0.0248227 -0.122396 0.253825
v 0.0276315 -0.117891 0.24899
v 0.0294648 -0.126988 0.251619
v 0.0320153 -0.12265 0.246614
v 0.0345464 -0.118325 0.241596
v 0.0374066 -0.113983 0.236784
v 0.0381972 -0.100478 0.228876
v 0.0331546 -0.108899 0.239214
v 0.0357148 -0.10467 0.234074
v 0.0405708 -0.0963558 0.223574
v 0.0426044 -0.0925701 0.21776
v 0.0392328 -0.110008 0.231276
v 0.0401872 -0.106077 0.225573
v 0.0399601 -0.115938 0.227423
v 0.0402639 -0.112023 0.221634
v 0.0412421 -0.102214 0.219841
v 0.042149 -0.0984162 0.214055
v 0.033308 -0.138827 0.276071
v 0.0243172 -0.125782 0.259482
v 0.0355757 -0.127815 0.243804
v 0.0328997 -0.13207 0.248869
v 0.0567132 -0.0763265 0.172625
v 0.059791 -0.0740464 0.166691
v 0.0571183 -0.0737096 0.182145
v 0.0542153 -0.076068 0.188103
v 0.0304375 -0.113386 0.244153
v 0.0511066 -0.0812949 0.184569
v 0.0641537 -0.0670356 0.179955
v 0.0602903 -0.0715235 0.176244
v 0.0635931 -0.0694951 0.170377
v 0.075909 -0.0671921 0.153268
v 0.0806094 -0.0671957 0.148037
v 0.0856763 -0.0677203 0.143208
v 0.0761653 -0.0708238 0.1437
v 0.0908651 -0.0681944 0.138492
v 0.039055 -0.119865 0.233131
v 0.0813596 -0.0713381 0.138995
v 0.0865831 -0.0718569 0.134337
v 0.0850003 -0.0636231 0.152231
v 0.0759505 -0.0637945 0.162733
v 0.0804577 -0.0636948 0.157468
v 0.0677514 -0.0654585 0.174119
v 0.0718154 -0.0645628 0.168389
v 0.0714889 -0.0674519 0.158709
v 0.0635268 -0.0727141 0.160863
v 0.0677236 -0.0720613 0.155126
v 0.0719203 -0.0714084 0.14939
v 0.0674732 -0.0683981 0.164489
v 0.0705685 -0.0781467 0.147913
v 0.0747941 -0.0776774 0.142401
v 0.0790197 -0.0772081 0.136888
v 0.0832453 -0.0767388 0.131376
v 0.0537433 -0.0786905 0.178573
v 0.041255 -0.108192 0.21591
v 0.0422775 -0.104361 0.210201
v 0.041716 -0.121782 0.224018
v 0.0404219 -0.125743 0.229488
v 0.0414635 -0.135555 0.231909
v 0.0394474 -0.129635 0.235171
v 0.0395863 -0.139509 0.237401
v 0.0378307 -0.133478 0.240678
v 0.0358662 -0.137359 0.245979
v 0.0374337 -0.143251 0.242628
v 0.0388549 -0.149388 0.239216
v 0.0353483 -0.152634 0.244473
v 0.0379635 -0.12364 0.238674
v 0.0337131 -0.161817 0.246906
v 0.0314255 -0.170857 0.249845
v 0.0312285 -0.167336 0.243747
v 0.0352937 -0.169087 0.258802
v 0.0362904 -0.166556 0.268251
v 0.0346108 -0.165458 0.252828
v 0.0354777 -0.154366 0.275263
v 0.0355626 -0.144727 0.272771
v 0.0371302 -0.150873 0.269373
v 0.0372048 -0.157033 0.265794
v 0.0369525 -0.163198 0.262174
v 0.0368959 -0.153479 0.259744
v 0.0368926 -0.147338 0.263321
v 0.0357893 -0.150013 0.253888
v 0.0341144 -0.138133 0.260706
v 0.0353105 -0.144046 0.257317
v 0.0363128 -0.159553 0.256198
v 0.0350903 -0.156007 0.25037
v 0.0354174 -0.146728 0.248016
v 0.0354941 -0.141155 0.266762
v 0.0331923 -0.135077 0.270096
v 0.0364291 -0.160482 0.27182
f 85 3 2 1
f 91 90 85 1
f 3 25 7 2
f 7 5 23 2
f 4 66 25 3
f 85 86 4 3
f 89 67 66 4
f 86 84 89 4
f 7 8 6 5
f 8 9 30 6
f 25 24 8 7
f 24 70 9 8
f 70 40 10 9
f 10 12 30 9
f 40 18 16 10
f 16 13 12 10
f 17 20 14 11
f 13 16 17 11
f 20 21 15 14
f 18 19 17 16
f 19 58 20 17
f 40 61 60 18
f 58 59 21 20
f 27 34 33 26
f 33 28 57 26
f 49 52 34 27
f 29 31 57 28
f 33 34 46 32
f 52 47 46 34
f 51 38 36 35
f 36 43 45 35
f 45 44 48 35
f 48 50 51 35
f 38 41 37 36
f 41 42 39 37
f 54 55 41 38
f 51 53 54 38
f 55 56 42 41
f 52 49 50 48
f 40 70 63 61
f 63 65 64 62
f 70 24 65 63
f 65 66 67 64
f 24 25 66 65
f 89 69 68 67
f 89 84 88 69
f 76 72 73 71
f 76 87 81 74
f 81 80 92 75
f 92 80 79 77
f 79 83 90 78
f 90 91 22 78
f 80 82 83 79
f 81 87 82 80
f 87 88 84 82
f 84 86 83 82
f 86 85 90 83
