v -0.232966 0.309827 -0.137343
v -0.238429 0.349276 -0.149607
v -0.233573 0.335249 -0.135106
v -0.23079 0.330814 -0.130606
v -0.232738 0.325319 -0.134437
v -0.239429 0.354066 -0.144776
v -0.231641 0.305729 -0.131935
v -0.2295 0.311358 -0.128293
v -0.252624 0.3805 -0.163905
v -0.23208 0.315422 -0.133294
v -0.233937 0.330021 -0.139343
v -0.233985 0.335014 -0.144504
v -0.235074 0.339848 -0.149476
v -0.235726 0.339815 -0.139779
v -0.237094 0.344545 -0.144697
v -0.236974 0.349563 -0.140094
v -0.230889 0.340502 -0.131485
v -0.233968 0.345033 -0.135769
v -0.234066 0.354788 -0.136547
v -0.237103 0.359378 -0.140981
v -0.240305 0.363838 -0.145358
v -0.24352 0.368284 -0.149721
v -0.237173 0.369195 -0.142114
v -0.240195 0.373682 -0.146772
v -0.243333 0.378198 -0.15152
v -0.246428 0.372475 -0.15447
v -0.249253 0.376577 -0.159293
v -0.246449 0.382221 -0.156295
v -0.249412 0.386246 -0.161229
v -0.25203 0.390778 -0.166176
v -0.254975 0.394207 -0.171567
v -0.259021 0.38823 -0.173635
v -0.261549 0.391625 -0.17912
v -0.264078 0.395021 -0.184605
v -0.260465 0.382225 -0.17724
v -0.264118 0.385799 -0.181879
v -0.255089 0.374057 -0.177845
v -0.259484 0.37723 -0.182113
v -0.256158 0.379004 -0.172928
v -0.263898 0.380389 -0.186376
v -0.263086 0.375251 -0.191221
v -0.268737 0.383271 -0.19037
v -0.278951 0.377449 -0.206821
v -0.283947 0.3745 -0.215057
v -0.288909 0.371615 -0.223384
v -0.287173 0.377868 -0.220478
v -0.280021 0.386808 -0.209002
v -0.272552 0.395976 -0.197849
v -0.277775 0.393067 -0.206149
v -0.282499 0.380704 -0.211798
v -0.275071 0.38977 -0.20058
v -0.294345 0.373441 -0.224664
v -0.297779 0.360675 -0.229362
v -0.296072 0.36679 -0.226802
v -0.304381 0.361583 -0.227822
v -0.302673 0.367704 -0.225267
v -0.301175 0.373517 -0.222241
v -0.299873 0.379072 -0.218804
v -0.292082 0.3839 -0.216436
v -0.291363 0.388666 -0.211943
v -0.291398 0.392611 -0.207836
v -0.284377 0.388701 -0.212849
v -0.284494 0.393146 -0.207865
v -0.279036 0.396821 -0.200594
v -0.274748 0.399293 -0.192077
v -0.280899 0.400201 -0.194703
v -0.276885 0.402953 -0.186799
v -0.258527 0.397186 -0.176737
v -0.272875 0.405697 -0.178892
v -0.26461 0.399294 -0.180184
v -0.27068 0.401448 -0.183641
v -0.262539 0.400529 -0.170947
v -0.26766 0.40314 -0.174947
v -0.255873 0.384381 -0.168708
v -0.270138 0.39263 -0.192195
v -0.267554 0.389288 -0.186721
v -0.249224 0.371409 -0.163764
v -0.268143 0.398827 -0.189022
v -0.285814 0.396658 -0.201964
v -0.306099 0.355446 -0.230325
v -0.251556 0.370302 -0.173281
v -0.307775 0.349056 -0.232155
v -0.247827 0.366632 -0.168701
v -0.301708 0.348204 -0.235173
v -0.241975 0.358494 -0.149444
v -0.299851 0.35455 -0.232716
v -0.29302 0.378892 -0.220615
v -0.285115 0.383876 -0.217359
v -0.277796 0.383625 -0.20324
v -0.272788 0.386486 -0.194897
v -0.268303 0.377893 -0.195018
v -0.273407 0.380641 -0.19886
v -0.25239 0.375327 -0.168446
v -0.240256 0.353841 -0.154434
v -0.244058 0.362984 -0.154242
v -0.246594 0.367211 -0.159016
v -0.242632 0.358172 -0.159215
f 8 10 1 7
f 3 14 12 11
f 5 4 3 11
f 14 15 13 12
f 18 16 15 14
f 3 17 18 14
f 16 6 2 15
f 19 20 6 16
f 21 85 6 20
f 23 24 22 21
f 22 95 85 21
f 24 25 26 22
f 26 96 95 22
f 28 27 26 25
f 27 77 96 26
f 28 29 9 27
f 9 93 77 27
f 30 74 9 29
f 31 32 74 30
f 33 36 35 32
f 35 39 74 32
f 34 76 36 33
f 36 40 38 35
f 38 37 39 35
f 76 42 40 36
f 81 93 39 37
f 93 9 74 39
f 42 91 41 40
f 76 75 90 42
f 90 92 91 42
f 89 47 50 43
f 50 88 46 44
f 46 87 52 45
f 88 59 87 46
f 89 51 49 47
f 65 66 64 48
f 64 49 51 48
f 51 90 75 48
f 64 79 63 49
f 89 92 90 51
f 87 58 57 52
f 57 56 54 52
f 54 56 55 53
f 55 80 86 53
f 88 62 60 59
f 62 63 61 60
f 78 71 67 65
f 72 73 70 68
f 71 70 73 69
f 82 84 86 80
f 81 83 77 93
f 85 95 97 94
f 2 6 85 94
