v -0.23216875 -0.1038266875 -0.214956
v -0.229062 -0.11956225 -0.217648625
v -0.225917 -0.09711575 -0.20350875
v -0.226149 -0.0830289125 -0.199544125
v -0.2192201875 -0.116386764063 -0.20287696875
v -0.222578875 -0.134333 -0.217216
v -0.213119921875 -0.095392028125 -0.187011484375
v -0.217079375 -0.077802175 -0.1862275
v -0.21410675 -0.136355125 -0.206662875
v -0.206929875 -0.151095 -0.2067695
v -0.2085248125 -0.11286263125 -0.188518375
v -0.20519275 -0.0741579625 -0.1715495
v -0.203287703125 -0.13026809375 -0.19053409375
v -0.199241625 -0.16581875 -0.2070325
v -0.19713371875 -0.147661578125 -0.19287965625
v -0.2013100625 -0.0916564703125 -0.172820359375
v -0.1968790625 -0.109067654687 -0.174663515625
v -0.19043075 -0.16510725 -0.195353625
v -0.1920169375 -0.1264690625 -0.176959109375
v -0.184038546875 -0.10504913125 -0.1615679375
v -0.194067625 -0.0686702375 -0.159050625
v -0.192719625 -0.0545549375 -0.155040875
v -0.1810895 -0.164239125 -0.184036
v -0.173413625 -0.176680125 -0.182830625
v -0.188098375 -0.0877462015625 -0.15933553125
v -0.1798035 -0.0491201125 -0.143289125
v -0.18660453125 -0.143944828125 -0.179529
v -0.1796273125 -0.122394234375 -0.16414421875
v -0.16977484375 -0.100976714062 -0.14972590625
v -0.173401921875 -0.0837910546875 -0.147031375
v -0.17491471875 -0.139888328125 -0.166895734375
v -0.17680140625 -0.066543025 -0.144773546875
v -0.162926625 -0.029790225 -0.1294695
v -0.16976540625 -0.1575369375 -0.1695715
v -0.164225875 -0.1782535 -0.173894625
v -0.156019375 -0.1905565 -0.172698625
v -0.1660180625 -0.118255145313 -0.15250415625
v -0.146549625 -0.1916125 -0.164123875
v -0.165796875 -0.043769325 -0.132574625
v -0.157688796875 -0.15320846875 -0.157917953125
v -0.16202296875 -0.13568940625 -0.155240734375
v -0.15733275 -0.0798963875 -0.136365203125
v -0.160423375 -0.062789021875 -0.13348446875
v -0.152662875 -0.17083490625 -0.160294765625
v -0.1479385 -0.0250566625 -0.11971975
v -0.14028821875 -0.166131796875 -0.149819578125
v -0.13506259375 -0.183604265625 -0.1516105
v -0.154234265625 -0.097023053125 -0.139374796875
v -0.1511198125 -0.114275114063 -0.142340109375
v -0.14788459375 -0.131563921875 -0.145066125
v -0.127584234375 -0.201089296875 -0.153578953125
v -0.144357046875 -0.148845671875 -0.147596671875
v -0.14558346875 -0.04240584375 -0.121098390625
v -0.12915675 -0.0229045625 -0.110246125
v -0.122372734375 -0.178840125 -0.142502796875
v -0.13669575 -0.207173375 -0.165146875
v -0.1168285625 -0.19540525 -0.1439461875
v -0.14012371875 -0.0764650375 -0.127603984375
v -0.14285925 -0.0594420859375 -0.12403959375
v -0.129435328125 -0.1453080625 -0.139047875
v -0.126176703125 -0.162185515625 -0.140965546875
v -0.108009 -0.210011984375 -0.14478859375
v -0.137601921875 -0.0937024296875 -0.131023921875
v -0.132337203125 -0.12821625 -0.136768015625
v -0.12665378125 -0.0399786078125 -0.11271140625
v -0.135034765625 -0.110980557812 -0.13409925
v -0.1090224 -0.0216961 -0.102810075
v -0.115079075 -0.219732375 -0.15689475
v -0.12428053125 -0.05682639375 -0.116501109375
v -0.12320525 -0.221447 -0.1666385
v -0.0940569234375 -0.219246390625 -0.143855828125
v -0.104174575 -0.191594 -0.13679525
v -0.122188359375 -0.0738074015625 -0.120756125
v -0.0885522375 -0.02180435 -0.09780285
v -0.107850832812 -0.17594240625 -0.135452375
v -0.110717723437 -0.159639015625 -0.134217828125
v -0.0891615921875 -0.2071268125 -0.1357515625
v -0.12024096875 -0.091289525 -0.124702140625
v -0.118172520313 -0.108531989063 -0.12793121875
v -0.11337079375 -0.142870765625 -0.132628671875
v -0.106985478125 -0.039043246875 -0.106451290625
v -0.115837873438 -0.125814890625 -0.130609328125
v -0.100383026562 -0.107615896875 -0.123511765625
v -0.105343867187 -0.056277040625 -0.11116565625
v -0.0688028125 -0.0224222625 -0.0949195125
v -0.1038361875 -0.073418840625 -0.115941578125
v -0.0875120078125 -0.039329053125 -0.10226439375
v -0.0922892828125 -0.175151609375 -0.13087415625
v -0.0945437390625 -0.158446640625 -0.12958678125
v -0.0995145875 -0.227949625 -0.1558475
v -0.0749678796875 -0.20999209375 -0.133938125
v -0.09000505625 -0.19154578125 -0.132455140625
v -0.1021913875 -0.0905250625 -0.120104546875
v -0.0823137328125 -0.10779599375 -0.120512359375
v -0.08160235 -0.23415725 -0.156090875
v -0.05930349375 -0.2121388125 -0.133250703125
v -0.0779185703125 -0.224334390625 -0.142800703125
v -0.096668584375 -0.14162490625 -0.1280915
v -0.0838604484375 -0.0907177234375 -0.116995359375
v -0.09855139375 -0.12470415625 -0.126240578125
v -0.0852170609375 -0.073661625 -0.112593765625
v -0.0863891390625 -0.0565688796875 -0.107493014063
v -0.068243109375 -0.0398259734375 -0.0996670703125
v -0.0777231484375 -0.1588454375 -0.127093828125
v -0.074878453125 -0.192959421875 -0.130157484375
v -0.080797571875 -0.12489209375 -0.123391265625
v -0.0494503375 -0.0229443625 -0.0934298125
v -0.05896794375 -0.194667359375 -0.129325
v -0.065442728125 -0.0909514125 -0.1150824375
v -0.0642415578125 -0.108067045312 -0.118862390625
v -0.01148606375 -0.02355455 -0.0937769125
v -0.076195178125 -0.175824921875 -0.128396234375
v -0.059430525 -0.229244375 -0.143634375
v -0.0630404 -0.1252374375 -0.122027234375
v -0.049167028125 -0.0402446328125 -0.0981043796875
v -0.0674059234375 -0.0569134171875 -0.105102389062
v -0.0606392953125 -0.15966 -0.126148203125
v -0.06178740625 -0.142408171875 -0.1244011875
v -0.0792590078125 -0.141893296875 -0.125514703125
v -0.0656661 -0.235932375 -0.154517625
v -0.04283631875 -0.21348740625 -0.133864421875
v -0.059631534375 -0.17705553125 -0.127563671875
v -0.0665508609375 -0.0739031046875 -0.1104884375
v -0.03037515 -0.0233198125 -0.0929989375
v -0.04797530625 -0.0741699859375 -0.10919846875
v 0.005010485 -0.0258060625 -0.09568835
v -0.030256940625 -0.040575309375 -0.0974962953125
v -0.0442281875 -0.229202875 -0.1425655
v -0.0260250096875 -0.2142438125 -0.1354513125
v -0.04252088125 -0.19592559375 -0.129750203125
v -0.042901403125 -0.17809625 -0.1278694375
v -0.047172803125 -0.091156125 -0.114165921875
v -0.0453108890625 -0.12553525 -0.12166271875
v 0.00951846625 -0.038771375 -0.098381325
v -0.0114869078125 -0.0408089 -0.0978095109375
v -0.0486078609375 -0.0572491921875 -0.103634457812
v -0.043607521875 -0.160442359375 -0.1263591875
v -0.02953083125 -0.074423809375 -0.1086295
v -0.046246596875 -0.108290660937 -0.118236609375
v -0.029933878125 -0.0575364984375 -0.10297769375
v -0.044393409375 -0.142899875 -0.12437653125
v -0.02771575 -0.12581890625 -0.121982546875
v -0.0090432525 -0.214652140625 -0.137637734375
v -0.0271571625 -0.22990575 -0.144243
v -0.0289889140625 -0.0913944390625 -0.113777796875
v -0.0284037359375 -0.108523617188 -0.118266859375
v 0.02563633 -0.04075685 -0.100752375
v -0.0257448207813 -0.19672109375 -0.131108625
v -0.01059530375 -0.108705307812 -0.118772453125
v 0.007034381875 -0.0578598515625 -0.103892789062
v 0.0252954576562 -0.057715678125 -0.10580028125
v 0.041528975 -0.04248545 -0.1044915
v -0.0113960485937 -0.0577723046875 -0.10304663125
v -0.027041423125 -0.14327371875 -0.125047359375
v -0.01007493625 -0.23013425 -0.146666625
v -0.026013594375 -0.178802 -0.129066328125
v -0.0264690232813 -0.16094103125 -0.127353203125
v -0.0112219528125 -0.0746505421875 -0.1086418125
v 0.02502037375 -0.0746090515625 -0.111224640625
v -0.01016548 -0.126025515625 -0.12278128125
v 0.008057725625 -0.2147464375 -0.140488453125
v 0.025152930625 -0.214509921875 -0.143926375
v -0.0109470832813 -0.091599375 -0.11398253125
v 0.0247982479687 -0.0915315625 -0.11667984375
v -0.009726100625 -0.1435183125 -0.126192640625
v 0.007079495 -0.230130875 -0.14982275
v -0.009303719375 -0.161236578125 -0.128774078125
v -0.008953298125 -0.179141265625 -0.130808890625
v -0.008783234375 -0.197155484375 -0.133102765625
v 0.00827603671875 -0.19729315625 -0.13568334375
v 0.0069768503125 -0.07473245625 -0.109471734375
v 0.0073479121875 -0.12608853125 -0.12408615625
v 0.02189682625 -0.231016875 -0.155022375
v 0.0422360171875 -0.213874765625 -0.147991921875
v 0.02537087 -0.197139921875 -0.138722265625
v 0.0071375571875 -0.10875825 -0.11985084375
v 0.0069831596875 -0.09165158125 -0.11494071875
v 0.0456263625 -0.055114 -0.108790625
v 0.00758629625 -0.1435924375 -0.12780253125
v 0.00785937046875 -0.161364921875 -0.130649
v 0.0428106640625 -0.0742209 -0.114139984375
v 0.04241463125 -0.0911658328125 -0.11945978125
v 0.060873675 -0.0565729 -0.113794125
v 0.025004475 -0.161230203125 -0.13317146875
v 0.024853285 -0.143476046875 -0.12997215625
v 0.0433835375 -0.2297795 -0.160471
v 0.0424129890625 -0.196647125 -0.142477484375
v 0.008122095625 -0.179310796875 -0.1330133125
v 0.0252162025 -0.179178671875 -0.13580909375
v 0.024728055625 -0.108623839062 -0.121710828125
v 0.042018728125 -0.12557065625 -0.1289856875
v 0.024752798125 -0.125961234375 -0.126101140625
v 0.024907175 -0.238565375 -0.167115
v 0.0591741546875 -0.212749890625 -0.152958328125
v 0.0420755890625 -0.16081865625 -0.136402484375
v 0.0422535625 -0.178735546875 -0.13931028125
v 0.0421465171875 -0.108258495312 -0.12447228125
v 0.05970248125 -0.090493634375 -0.123611828125
v 0.060221471875 -0.0735071296875 -0.11862234375
v 0.07572975 -0.057795 -0.119818125
v 0.0593268390625 -0.195768984375 -0.147048796875
v 0.042001540625 -0.14309503125 -0.13296128125
v 0.0590535875 -0.124918390625 -0.13289415625
v 0.0378056125 -0.237605 -0.170225125
v 0.075955359375 -0.211003 -0.15905515625
v 0.0589608734375 -0.14242434375 -0.1368954375
v 0.0592922875 -0.107603498438 -0.1284529375
v 0.076592575 -0.089540059375 -0.129130046875
v 0.0794145375 -0.0702549 -0.1247485
v 0.0584813125 -0.227002375 -0.163515
v 0.0591691765625 -0.17794771875 -0.1436298125
v 0.0590017515625 -0.16010540625 -0.14046353125
v 0.0760904171875 -0.106660959375 -0.133712203125
v 0.0760102234375 -0.19447228125 -0.152495296875
v 0.0924372609375 -0.20871490625 -0.1660408125
v 0.0756587515625 -0.1414288125 -0.141833015625
v 0.0757843328125 -0.1239701875 -0.13793978125
v 0.0929062265625 -0.0881472890625 -0.135989484375
v 0.0758895203125 -0.176843359375 -0.14867809375
v 0.075732625 -0.15909409375 -0.145337640625
v 0.092374509375 -0.105285396875 -0.140248734375
v 0.0935193875 -0.0710567625 -0.131866
v 0.0752568625 -0.22484725 -0.169942
v 0.092417034375 -0.192778046875 -0.158815328125
v 0.0915538375 -0.2219665 -0.17738525
v 0.092105428125 -0.1226395 -0.144183390625
v 0.09226233125 -0.175345921875 -0.154753921875
v 0.108414809375 -0.190462125 -0.166397203125
v 0.123901 -0.20257025 -0.18311775
v 0.1103305 -0.207283625 -0.17635975
v 0.09199659375 -0.140100375 -0.147885546875
v 0.092079109375 -0.157694171875 -0.15135525
v 0.123915171875 -0.18760303125 -0.175049
v 0.10559755 -0.2173525 -0.183069375
v 0.108261134375 -0.17341071875 -0.16178228125
v 0.1106725 -0.084010775 -0.144606125
v 0.1072040375 -0.071646975 -0.139633625
v 0.108032098438 -0.155879984375 -0.1582884375
v 0.123644578125 -0.17104215625 -0.169894296875
v 0.13835846875 -0.168167625 -0.1791645
v 0.1404965 -0.185613875 -0.187143125
v 0.10795745 -0.12090290625 -0.151404671875
v 0.107886979687 -0.138355015625 -0.1548961875
v 0.154248625 -0.16666975 -0.191234125
v 0.1081859125 -0.10355089375 -0.1477823125
v 0.123394265625 -0.1536893125 -0.166239640625
v 0.1524525 -0.14845121875 -0.18501553125
v 0.165933 -0.161922375 -0.200460125
v 0.136725375 -0.19705725 -0.19124425
v 0.123888625 -0.084321225 -0.152901125
v 0.1367815 -0.084489525 -0.161673375
v 0.1235183125 -0.10153424375 -0.156291546875
v 0.12325075 -0.136247671875 -0.162924359375
v 0.138085625 -0.133874515625 -0.171920625
v 0.138171390625 -0.151179078125 -0.175181734375
v 0.1774085 -0.157352625 -0.21028175
v 0.15101325 -0.179106125 -0.19341925
v 0.12331409375 -0.118851676563 -0.159634046875
v 0.1402105 -0.096837025 -0.166406875
v 0.152514734375 -0.1313803125 -0.1816434375
v 0.152621265625 -0.114164639063 -0.17856678125
v 0.166445125 -0.1288653125 -0.192146015625
v 0.166182953125 -0.14565996875 -0.195856828125
v 0.180946625 -0.144824875 -0.2093335
v 0.1666344375 -0.111751085938 -0.189091421875
v 0.166765375 -0.0945373125 -0.186293125
v 0.15278625 -0.0969336125 -0.17557875
v 0.13816921875 -0.1165764625 -0.168787875
v 0.179786625 -0.12645725 -0.20347996875
v 0.194330125 -0.125930625 -0.217139625
v 0.190668625 -0.13889225 -0.21719175
v 0.180286125 -0.092235575 -0.19757625
v 0.193341125 -0.090031875 -0.209467375
v 0.18013275 -0.109451790625 -0.20027875
v 0.203849125 -0.12016875 -0.22545325
v 0.205893 -0.1050959625 -0.224232625
v 0.20444275 -0.09033095 -0.220524
v 0.19318621875 -0.107215984375 -0.212038828125
v -0.100412041667 -0.203743222222 -0.138338222222
v -0.2217104375 -0.10764918125 -0.2022340625
v -0.2242028125 -0.11800096875 -0.2102333125
v -0.2316205 -0.1108065 -0.2171365
v -0.2291045 -0.10047825 -0.2091975
v -0.2165023125 -0.125082375 -0.2037030625
v -0.21837 -0.1353435 -0.21191
v -0.2260955 -0.1282385 -0.218402
v -0.2225865 -0.0795379 -0.193789
v -0.2151468125 -0.086606425 -0.1865641875
v -0.2186643125 -0.0971721375 -0.194344375
v -0.2260955 -0.09009375 -0.2015375
v -0.210904375 -0.1041403375 -0.18768
v -0.2139906875 -0.1146667125 -0.1956385625
v -0.206005875 -0.1215701875 -0.18947525
v -0.2085421875 -0.1320544375 -0.1975311875
v -0.211299 -0.0760032 -0.178815
v -0.20329325 -0.0829144125 -0.1721418125
v -0.207360875 -0.093551175 -0.1798365625
v -0.1991595 -0.10036974375 -0.173671375
v -0.2028330625 -0.1109963375 -0.1815166875
v -0.2003104375 -0.1389614375 -0.191678375
v -0.2020801875 -0.1493979375 -0.1997869375
v -0.210427 -0.142453 -0.2056535
v -0.1938171875 -0.156379875 -0.1941095
v -0.194972 -0.166768 -0.2021635
v -0.2032145 -0.159739 -0.2078985
v -0.19450625 -0.117763625 -0.1757654375
v -0.197784625 -0.1284066875 -0.1836684375
v -0.1899874375 -0.07907236875 -0.1583995
v -0.194890375 -0.08971480625 -0.165963625
v -0.198708 -0.07228345 -0.164429
v -0.189387 -0.135195375 -0.1782265
v -0.1919936875 -0.145846625 -0.1861229375
v -0.183657625 -0.1527196875 -0.180828
v -0.185643 -0.163357 -0.188665
v -0.1861145625 -0.0964000875 -0.160398625
v -0.1906264375 -0.10707640625 -0.167988875
v -0.181872875 -0.1137084375 -0.162822625
v -0.185968625 -0.1244540625 -0.170431
v -0.177311625 -0.13112275 -0.16551425
v -0.1809106875 -0.1419479375 -0.1731100625
v -0.180930625 -0.085770675 -0.15300525
v -0.17160725 -0.092381325 -0.1483495
v -0.17707875 -0.10301236875 -0.155475875
v -0.167918125 -0.10959820625 -0.151115625
v -0.172980625 -0.120322125 -0.158158875
v -0.187474 -0.05096385 -0.149868
v -0.1783334375 -0.05784548125 -0.1439711875
v -0.184460375 -0.068454625 -0.1510394375
v -0.1934945 -0.0616089 -0.1570115
v -0.1751454375 -0.07518491875 -0.1458165
v -0.1724255 -0.1486853125 -0.1682516875
v -0.1752853125 -0.159586 -0.1757579375
v -0.166855875 -0.1664664375 -0.1708445625
v -0.1688635 -0.177467 -0.1783715
v -0.177251 -0.1704755 -0.183405
v -0.161905875 -0.05418945625 -0.1323298125
v -0.168776 -0.06463605 -0.1389105
v -0.171754 -0.0473082 -0.1371005
v -0.164055625 -0.126956875 -0.153877
v -0.1686191875 -0.137798375 -0.160915625
v -0.1655270625 -0.08181016875 -0.1414725
v -0.155782375 -0.08844824375 -0.1378695
v -0.162154625 -0.0989527625 -0.14433125
v -0.1526844375 -0.10563764375 -0.1408764375
v -0.158729125 -0.11621070625 -0.14720925
v -0.158889375 -0.07135065625 -0.1348665625
v -0.15991225 -0.14443875 -0.1566019375
v -0.1638880625 -0.155403 -0.1636060625
v -0.1467919375 -0.03375738125 -0.1202844375
v -0.1545641875 -0.04390444375 -0.126082125
v -0.1644035 -0.0367447 -0.130984
v -0.156719 -0.0264618 -0.125172
v -0.1553179375 -0.162002125 -0.159146125
v -0.158300625 -0.17318775 -0.1660545
v -0.1495868125 -0.179722 -0.1613721875
v -0.1513615 -0.191031 -0.1683995
v -0.160126 -0.184457 -0.173267
v -0.1495273125 -0.1229185625 -0.1437315
v -0.1551249375 -0.13357275 -0.1499420625
v -0.146678125 -0.168444125 -0.1548743125
v -0.1378715 -0.174840375 -0.150729375
v -0.1407173125 -0.1861853125 -0.156854125
v -0.131750875 -0.1924249375 -0.152581375
v -0.1322565625 -0.2041156875 -0.159227125
v -0.141981 -0.198033 -0.163626
v -0.1442511875 -0.05094979375 -0.122410875
v -0.15178275 -0.0610572625 -0.128529625
v -0.1461693125 -0.140207125 -0.1463595
v -0.151203125 -0.150977625 -0.1525635
v -0.142423375 -0.1574770625 -0.1487626875
v -0.1414718125 -0.067935575 -0.12580225
v -0.1488456875 -0.07811808125 -0.1317460625
v -0.1388498125 -0.08506525 -0.1293499375
v -0.1460299375 -0.095270125 -0.1349394375
v -0.127897875 -0.03146158125 -0.1113725
v -0.1362561875 -0.04105173125 -0.1166404375
v -0.138743 -0.02387205 -0.114741
v -0.1370765625 -0.1469478125 -0.1430714375
v -0.1278531875 -0.1537784375 -0.1400564375
v -0.133435 -0.1640143125 -0.145157
v -0.124407125 -0.170518875 -0.14176125
v -0.1289545625 -0.18107825 -0.146818375
v -0.1199018125 -0.187210875 -0.1432494375
v -0.122445625 -0.1981255 -0.1484739375
v -0.136331875 -0.10234279375 -0.13260975
v -0.143196125 -0.112534675 -0.1379626875
v -0.1337056875 -0.1196099375 -0.13548425
v -0.1402614375 -0.1297784375 -0.1406594375
v -0.130921875 -0.1367848125 -0.1379538125
v -0.1129871875 -0.203197375 -0.1445380625
v -0.11202519375 -0.2134075 -0.149660875
v -0.1222105625 -0.20938425 -0.1545401875
v -0.119219 -0.2209615 -0.1619505
v -0.129734 -0.2159145 -0.1669275
v -0.12543925 -0.04841565 -0.114475375
v -0.133658 -0.05794480625 -0.120008
v -0.107972275 -0.030378125 -0.1045407875
v -0.1168476875 -0.039322975 -0.1093144375
v -0.119204 -0.0221508 -0.1062455
v -0.1185715625 -0.16073925 -0.1373241875
v -0.10934816875 -0.1678515 -0.1348496875
v -0.115296625 -0.17712275 -0.1386888125
v -0.1061214625 -0.183914875 -0.1361080625
v -0.110720875 -0.1931095 -0.1400298125
v -0.1020246875 -0.198804875 -0.1374924375
v -0.10368868125 -0.2066709375 -0.14076575
v -0.123203875 -0.065264525 -0.1186253125
v -0.1312246875 -0.07492704375 -0.123927875
v -0.1212130625 -0.08253238125 -0.1228016875
v -0.1290105 -0.09232841875 -0.127627
v -0.124193625 -0.1268773125 -0.133437875
v -0.1146234 -0.13437675 -0.1316885625
v -0.121507 -0.1439504375 -0.1355860625
v -0.11206375 -0.1513018125 -0.133474625
v -0.09558296875 -0.2054689375 -0.1370088125
v -0.09116518125 -0.2136745 -0.1391945625
v -0.1015253125 -0.2152738125 -0.1444613125
v -0.0968183375 -0.2238420625 -0.14958475
v -0.1080893 -0.223034 -0.1555025
v -0.1192350625 -0.09992889375 -0.126397625
v -0.1267124375 -0.10960393125 -0.1307720625
v -0.11703051875 -0.1171803125 -0.129346
v -0.1061253375 -0.0476745625 -0.108721375
v -0.114828375 -0.05634781875 -0.1135851875
v -0.08803886875 -0.030589075 -0.09996735625
v -0.097214725 -0.0390978375 -0.104123725
v -0.0987496 -0.0216258 -0.1000108
v -0.10459308125 -0.06485565 -0.11359875
v -0.1130545 -0.0734094125 -0.118127125
v -0.082276025 -0.2086405625 -0.1347186875
v -0.07619785625 -0.2176808125 -0.1377051875
v -0.08612463125 -0.22219325 -0.14327175
v -0.079736225 -0.22959425 -0.149135875
v -0.09061985 -0.2315625 -0.1560035
v -0.10015995625 -0.175315375 -0.1328694375
v -0.0911135875 -0.183393375 -0.131567625
v -0.097241675 -0.1912145 -0.1343129375
v -0.0890646375 -0.19960375 -0.1336774375
v -0.10303639375 -0.0819750625 -0.1181150625
v -0.111278625 -0.09072718125 -0.1222028125
v -0.0685471 -0.0311496875 -0.09723525
v -0.07785390625 -0.0395792 -0.10080595
v -0.07859695 -0.0220962 -0.0961414
v -0.10271333125 -0.1588483125 -0.131631375
v -0.09343119375 -0.1668255625 -0.130234
v -0.105105925 -0.142064875 -0.130118375
v -0.0956313375 -0.15004625 -0.128872125
v -0.0825476 -0.192162625 -0.131094125
v -0.0746224375 -0.2016268125 -0.1315883125
v -0.10129885625 -0.0990695875 -0.121895375
v -0.10935839375 -0.107891925 -0.1255268125
v -0.099468125 -0.11617125 -0.1249779375
v -0.10727711875 -0.12508225 -0.1282226875
v -0.097630075 -0.133183125 -0.127246375
v -0.0869581625 -0.0479795375 -0.10482649375
v -0.09586934375 -0.05638201875 -0.1091479375
v -0.093047175 -0.09056684375 -0.118382875
v -0.08309624375 -0.0992526 -0.1188486875
v -0.0913593875 -0.1076360625 -0.121839
v -0.0815530875 -0.116349375 -0.122038
v -0.08970073125 -0.124705375 -0.124625625
v -0.08581674375 -0.06512543125 -0.1101033125
v -0.0945465 -0.07352145 -0.1141001875
v -0.04933164375 -0.031618525 -0.0956953625
v -0.05868230625 -0.04004706875 -0.09876643125
v -0.0590889 -0.02270345 -0.09403025
v -0.084566175 -0.08218989375 -0.11490075
v -0.0678425625 -0.04839998125 -0.10233105625
v -0.0768875875 -0.05674375 -0.10616186875
v -0.0861943 -0.1585135 -0.128106
v -0.0769549875 -0.1673243125 -0.1277423125
v -0.0843041 -0.1753610625 -0.1294006875
v -0.07545285 -0.184364375 -0.129147375
v -0.0880149625 -0.141643 -0.126584375
v -0.07849053125 -0.1503711875 -0.126359
v -0.0670067625 -0.1938305625 -0.1295728125
v -0.0589554875 -0.2035499375 -0.13080175
v -0.06727876875 -0.2111633125 -0.1334378125
v -0.0601308625 -0.2200905625 -0.1371778125
v -0.069628875 -0.2258898125 -0.1425343125
v -0.07464566875 -0.0908429 -0.1158995625
v -0.064844875 -0.09950099375 -0.11705875
v -0.07327231875 -0.1079392625 -0.1195356875
v -0.06364525625 -0.1166496875 -0.1205320625
v -0.07191435625 -0.1250705 -0.1225509375
v -0.06249785 -0.232685 -0.1490505
v -0.07265935 -0.2360185 -0.15623
v -0.0507974125 -0.195361125 -0.1293989375
v -0.04255486875 -0.2048594375 -0.1313224375
v -0.05113685625 -0.2129031875 -0.13340975
v -0.04344935625 -0.2214991875 -0.13785325
v -0.05274005 -0.2285785 -0.142075
v -0.08003045 -0.1334035 -0.1245378125
v -0.07587949375 -0.07378375 -0.111413125
v -0.0660226375 -0.08241818125 -0.11289475
v -0.06699365625 -0.0654079875 -0.10785625
v -0.04891056875 -0.04877463125 -0.10080033125
v -0.05798538125 -0.05708466875 -0.1042624625
v -0.07051466875 -0.1421499375 -0.1248001875
v -0.06119745625 -0.151019875 -0.125337375
v -0.06918841875 -0.159239 -0.1264550625
v -0.06011065 -0.168334625 -0.1268659375
v -0.0679532875 -0.176424375 -0.127808
v -0.0592219625 -0.1858345 -0.1283145
v -0.06241141875 -0.1338188125 -0.123307375
v -0.03033278125 -0.03197156875 -0.09516674375
v -0.03969280625 -0.0404208125 -0.0976812625
v -0.03988225 -0.0231496 -0.0930744
v -0.051283025 -0.1776145 -0.1275909375
v -0.04265023125 -0.1869961875 -0.128670625
v -0.057248225 -0.07403496875 -0.109749875
v -0.0475951 -0.08264815625 -0.111783375
v -0.05629151875 -0.0910523 -0.1145309375
v -0.0467173375 -0.09970651875 -0.1162993125
v -0.0552278625 -0.10818051875 -0.118445875
v -0.045778475 -0.116899875 -0.120030875
v -0.05416501875 -0.12538975 -0.12174275
v 0.007289065 -0.0323031 -0.0970293
v -0.0021422 -0.040869075 -0.0982498
v -0.011493354375 -0.03220530625 -0.09569560625
v -0.002045305 -0.02361395 -0.0945989
v -0.02085673125 -0.040707825 -0.09754869375
v -0.02091955 -0.02345565 -0.09323835
v -0.04484175625 -0.134197875 -0.12311275
v -0.05308268125 -0.14266325 -0.1242780625
v -0.03011415625 -0.04908301875 -0.1001493375
v -0.0392552625 -0.057398675 -0.10321074375
v -0.0483045 -0.0657089875 -0.106458
v -0.04398818125 -0.151653375 -0.125449625
v -0.0521249625 -0.16007425 -0.12613175
v -0.04323288125 -0.1692508125 -0.127132375
v -0.0341640625 -0.1963745 -0.130334375
v -0.0257861075 -0.20564425 -0.1327996875
v -0.03445934375 -0.2139224375 -0.1345641875
v -0.02652565125 -0.2222285 -0.1394983125
v -0.0356967 -0.229633 -0.143299
v -0.02974555625 -0.06597755 -0.1058331875
v -0.038735825 -0.0742988 -0.10883525
v -0.02927134375 -0.0828929125 -0.1112803125
v -0.03806734375 -0.09127345 -0.11390825
v -0.011452986875 -0.04931816875 -0.1003138375
v -0.02065 -0.05766604375 -0.10292168125
v -0.017281020625 -0.196978625 -0.132030125
v -0.008828879375 -0.206086125 -0.134890125
v -0.017552395 -0.2144870625 -0.1364680625
v -0.009498800625 -0.2225581875 -0.1417988125
v -0.01862115 -0.230058 -0.145365
v -0.0344803125 -0.17849575 -0.1283788125
v -0.025837025625 -0.187765625 -0.1299433125
v -0.035049075 -0.1607249375 -0.126784
v -0.026225399375 -0.169854375 -0.12824025
v -0.0287053625 -0.09993796875 -0.116114125
v -0.037313125 -0.10840845 -0.1181850625
v -0.02806708125 -0.1171515 -0.1202135625
v -0.0365006875 -0.12568175 -0.121752375
v -0.02737009375 -0.134523125 -0.123602125
v -0.03571250625 -0.14310275 -0.1246423125
v 0.025460681875 -0.049241975 -0.1032453125
v 0.016189999375 -0.05782093125 -0.1046971875
v 0.00709109125 -0.04939776875 -0.10123284375
v 0.01642672 -0.0408772 -0.099504
v -0.002164444375 -0.057840275 -0.10335646875
v -0.02674104875 -0.15208025 -0.1262933125
v -0.01132055 -0.0662105 -0.1058459375
v -0.020361375 -0.0745474125 -0.1085505
v -0.01109571875 -0.08311021875 -0.1113643125
v -0.0199512875 -0.09150925625 -0.1137944375
v -0.01949471875 -0.10862589375 -0.118457625
v -0.010386138125 -0.117341375 -0.12086225
v -0.0189374125 -0.125936375 -0.1223240625
v -0.009945024375 -0.1347471875 -0.124575875
v -0.01838161125 -0.143414625 -0.125563625
v -0.000262034375 -0.1972600625 -0.1343304375
v 0.0082469425 -0.2062059375 -0.1376115
v -0.000499335 -0.214739 -0.138983625
v 0.00762859 -0.2226083125 -0.1447975625
v -0.001504795 -0.230179 -0.1481495
v -0.010781281875 -0.10012785625 -0.1164655625
v 0.0436157 -0.0488124 -0.1065825
v 0.03434380625 -0.05753625625 -0.1072326875
v 0.0347698 -0.0405466 -0.1024815
v -0.01749509 -0.179004 -0.12987925
v -0.008833870625 -0.1881555625 -0.1318224375
v -0.001968920625 -0.09164626875 -0.1143664375
v 0.00704635875 -0.1001771875 -0.11747925
v -0.00171472125 -0.1087518875 -0.1192264375
v 0.007238765 -0.1173995625 -0.122039375
v -0.0013997575 -0.1260776875 -0.1233585625
v 0.02515108125 -0.0661665375 -0.1084793125
v 0.0160233325 -0.07469979375 -0.1102216875
v 0.00699798125 -0.0662991375 -0.1066623125
v -0.00210706125 -0.07471413125 -0.108947
v 0.04305185 -0.065759275 -0.1115229375
v 0.0339559625 -0.0744531375 -0.112508375
v -0.009510038125 -0.1523508125 -0.1275781875
v -0.017886768125 -0.1611096875 -0.1280138125
v -0.009114026875 -0.1701675 -0.129821875
v 0.00696595 -0.0831766375 -0.112251375
v 0.04259765625 -0.0826833 -0.11680925
v 0.03363985 -0.09138456875 -0.1179161875
v 0.02489615625 -0.08305771875 -0.1139785
v 0.015909116875 -0.09161695625 -0.1156999375
v 0.00746292875 -0.1348125625 -0.1260325
v -0.00106792125 -0.143577625 -0.1269359375
v 0.01682443625 -0.1972555625 -0.1371316875
v 0.025336265625 -0.2060298125 -0.1408345625
v 0.0166062975 -0.21467325 -0.1421349375
v 0.024760156875 -0.222244625 -0.1484591875
v 0.015668155 -0.2299285 -0.1516955
v 0.03390304375 -0.196938875 -0.140501875
v 0.0423922125 -0.2054850625 -0.144739125
v 0.033704175 -0.2142469375 -0.1458660625
v 0.04188980625 -0.22146325 -0.1526893125
v 0.03276648125 -0.228648375 -0.1563203125
v 0.04226339375 -0.09968785625 -0.122020625
v 0.0334648125 -0.10847439375 -0.122958625
v 0.024746468125 -0.10004960625 -0.119267625
v 0.01595206 -0.1087170125 -0.1206769375
v 0.00772049625 -0.1524489375 -0.129320375
v -0.000721286875 -0.161327375 -0.12964225
v 0.007996760625 -0.17032325 -0.131851375
v -0.0004167175 -0.1792533125 -0.1318465625
v 0.008224804375 -0.1883144375 -0.134220625
v 0.016670585 -0.179284375 -0.1343301875
v 0.025317451875 -0.188175875 -0.137128
v 0.024730249375 -0.11726625 -0.1239784375
v 0.01606568625 -0.1260536875 -0.1249943125
v 0.024795450625 -0.1346931875 -0.128109625
v 0.01622992125 -0.143562625 -0.1288014375
v 0.0406043 -0.2337135 -0.1652665
v 0.03114095 -0.2393545 -0.170506
v 0.02340115 -0.234841 -0.161058
v 0.0508927375 -0.196259375 -0.1446560625
v 0.05931136875 -0.204514625 -0.1494939375
v 0.05072444375 -0.213383875 -0.150341875
v 0.058869575 -0.2200979375 -0.157873875
v 0.04998985 -0.2279025 -0.1606795
v 0.0337464 -0.1789983125 -0.1374619375
v 0.04235294375 -0.1877139375 -0.1407535625
v 0.06053736875 -0.0650369 -0.1161930625
v 0.05156504375 -0.0739011875 -0.1161865625
v 0.05215735 -0.0569768 -0.111152
v 0.024921379375 -0.15232375 -0.131657
v 0.01643709375 -0.1613320625 -0.131825
v 0.025107313125 -0.1701893125 -0.134522875
v 0.05994639375 -0.08198981875 -0.1211123125
v 0.0511033 -0.0908652125 -0.1213614375
v 0.05948008125 -0.09902724375 -0.12606975
v 0.05075735625 -0.1079659625 -0.12630375
v 0.07761425 -0.0640484 -0.12223
v 0.06878231875 -0.07305185625 -0.1214215625
v 0.06944035 -0.0560744 -0.1168445
v 0.03344671875 -0.1433205625 -0.1313541875
v 0.042025675 -0.151930875 -0.134754125
v 0.03355410625 -0.16106075 -0.134689625
v 0.04215633125 -0.169762 -0.1378905625
v 0.03340848125 -0.12579925 -0.12742475
v 0.0419981375 -0.1343075 -0.13103975
v 0.050730075 -0.178382625 -0.1413756875
v 0.0592661875 -0.1868898125 -0.145191
v 0.042066575 -0.116886875 -0.12679525
v 0.05915219375 -0.11623525 -0.13072825
v 0.05056953125 -0.125278375 -0.1308045
v 0.05899025625 -0.1336488125 -0.134949125
v 0.05050906875 -0.1427983125 -0.1348071875
v 0.06769984375 -0.1951693125 -0.149666875
v 0.07604088125 -0.20300775 -0.155272125
v 0.06758985 -0.2119484375 -0.1558836875
v 0.07565885625 -0.21813975 -0.1641665
v 0.066916 -0.225999 -0.1666005
v 0.0589641125 -0.1512428125 -0.138735375
v 0.050558525 -0.160498875 -0.1383330625
v 0.05907556875 -0.1690133125 -0.1420745
v 0.0768912375 -0.0810176125 -0.1268301875
v 0.0682088 -0.090062025 -0.126201625
v 0.0763212125 -0.098082025 -0.1314445
v 0.06774626875 -0.10717780625 -0.13091975
v 0.06756410625 -0.177439 -0.1460443125
v 0.0759581875 -0.185714875 -0.1504025625
v 0.07591345625 -0.1152943125 -0.1358718125
v 0.06746359375 -0.1244866875 -0.135267625
v 0.07569705 -0.1326766875 -0.1399325625
v 0.067348525 -0.1419670625 -0.1392295625
v 0.08425645 -0.1936898125 -0.1555190625
v 0.09250075 -0.2010445 -0.1619109375
v 0.0842545125 -0.2099370625 -0.1624099375
v 0.09207119375 -0.215549625 -0.1714045625
v 0.08346685 -0.223502 -0.1735455
v 0.07567658125 -0.1502415625 -0.143624
v 0.06740410625 -0.15964225 -0.1427760625
v 0.0854513 -0.0718348 -0.128042
v 0.09320935625 -0.07960090625 -0.1339118125
v 0.084824125 -0.0888974125 -0.1323963125
v 0.0926169 -0.09669815 -0.138130875
v 0.08429585 -0.10602503125 -0.1368383125
v 0.07580896875 -0.1679655625 -0.1470060625
v 0.0922121875 -0.1139409375 -0.1422558125
v 0.0840005875 -0.1233558125 -0.1409255
v 0.084120075 -0.1761476875 -0.1515900625
v 0.0923414875 -0.1841551875 -0.156554375
v 0.1004704875 -0.191693125 -0.16246125
v 0.108456125 -0.1984093125 -0.1698815
v 0.10045355625 -0.2073008125 -0.1700405625
v 0.1079845 -0.21231 -0.17966
v 0.0995257 -0.220244 -0.1814355
v 0.092029725 -0.1313558125 -0.14606275
v 0.08387828125 -0.1408119375 -0.14472925
v 0.09201755 -0.1488836875 -0.1496434375
v 0.08395434375 -0.158445625 -0.14821525
v 0.10141365 -0.07018945 -0.135976
v 0.1089605 -0.07784345 -0.1421005
v 0.10084165625 -0.08730289375 -0.139898625
v 0.108396075 -0.0949492625 -0.145924375
v 0.1003383375 -0.10445743125 -0.143894125
v 0.0921677875 -0.16652025 -0.1530398125
v 0.108046425 -0.1122078125 -0.149609625
v 0.100091925 -0.1218171875 -0.1476720625
v 0.10032285 -0.174432 -0.158143375
v 0.1083500375 -0.1820696875 -0.1638095625
v 0.107898825 -0.1296190625 -0.1531658125
v 0.10000316875 -0.1392780625 -0.1512691875
v 0.10011676875 -0.1568370625 -0.154704
v 0.108147425 -0.1646639375 -0.1599790625
v 0.1160366875 -0.172286875 -0.1656945
v 0.1237995625 -0.1794929375 -0.172158375
v 0.116248 -0.189112125 -0.1705635625
v 0.123932625 -0.1952119375 -0.178854625
v 0.1162795 -0.2044405 -0.178321
v 0.1313614375 -0.18589475 -0.1799421875
v 0.138639 -0.1912945 -0.189183
v 0.1312645 -0.2004625 -0.188324
v 0.10793834375 -0.1471095 -0.1565989375
v 0.131079875 -0.16965825 -0.1743959375
v 0.1385144375 -0.1763145 -0.1818190625
v 0.115789875 -0.154828625 -0.1621355
v 0.123509 -0.1624111875 -0.1679683125
v 0.1236908125 -0.09291981875 -0.1545996875
v 0.1159158125 -0.10257554375 -0.151921125
v 0.1163295 -0.08538085 -0.14838
v 0.115637 -0.13734125 -0.1587825625
v 0.1233018125 -0.1449658125 -0.1645675
v 0.1308494375 -0.152468375 -0.1705953125
v 0.1382489375 -0.1597555 -0.1770096875
v 0.145376125 -0.1498346875 -0.179978125
v 0.152446375 -0.1568274375 -0.1870133125
v 0.14549625 -0.16660275 -0.1841650625
v 0.152666 -0.1728555 -0.1923015
v 0.145789 -0.182455 -0.1901275
v 0.1233964375 -0.11018033125 -0.15797
v 0.115699375 -0.1199106875 -0.155394375
v 0.1232601875 -0.127541875 -0.1612826875
v 0.159389375 -0.1470446875 -0.190325
v 0.166056 -0.153832375 -0.1980909375
v 0.1592625 -0.1635155 -0.194677
v 0.13072575 -0.1350851875 -0.167317625
v 0.138111375 -0.1425393125 -0.17350775
v 0.145354 -0.132636375 -0.176691625
v 0.152476875 -0.1399531875 -0.1832560625
v 0.1595516875 -0.130115875 -0.186788875
v 0.1663178125 -0.13732275 -0.193892875
v 0.1728294375 -0.1443419375 -0.2015613125
v 0.1791905 -0.1510645 -0.2098095
v 0.1724855 -0.16042 -0.2064135
v 0.138509 -0.09066545 -0.164027
v 0.1309836875 -0.10042985625 -0.1608745625
v 0.131307 -0.08319945 -0.1576485
v 0.13824275 -0.1079266 -0.16720675
v 0.130798 -0.11773701875 -0.1641165625
v 0.138110875 -0.125223 -0.17035325
v 0.145445875 -0.11537975625 -0.1735939375
v 0.1525613125 -0.1227795625 -0.1800861875
v 0.15269925 -0.10554924375 -0.1770676875
v 0.145607 -0.09811405 -0.1705105
v 0.1596886875 -0.11294885 -0.1837384375
v 0.1665494375 -0.12033225 -0.1905631875
v 0.159836 -0.0957328 -0.1808525
v 0.1667038125 -0.10314934375 -0.18767775
v 0.1734448125 -0.11059004375 -0.19460825
v 0.1799795 -0.117990625 -0.201804375
v 0.1731753125 -0.127650875 -0.1977329375
v 0.17957575 -0.134834875 -0.205316
v 0.1863234375 -0.125269125 -0.2093174375
v 0.1925185 -0.132386 -0.2171485
v 0.185792 -0.141903 -0.2131905
v 0.1735835 -0.09337285 -0.191862
v 0.18022475 -0.1008575375 -0.198892625
v 0.1867111875 -0.10832239375 -0.20609275
v 0.1930065 -0.11570925 -0.213552875
v 0.1995639375 -0.10614669375 -0.2181055625
v 0.2056465 -0.1135765 -0.225759
v 0.199092 -0.1230725 -0.221244
v 0.193284125 -0.0986436875 -0.2107074375
v 0.186869 -0.09112165 -0.203453
v 0.2059975 -0.09652735 -0.2229455
v 0.1997115 -0.08896705 -0.2155945
v -0.22673125 -0.109254625 -0.209662
v -0.221364 -0.12668725 -0.21101825
v -0.22068075 -0.08836555 -0.19401125
v -0.2164265 -0.1059366 -0.19489925
v -0.21138025 -0.12337025 -0.196525
v -0.2093745 -0.08478545 -0.1792755
v -0.205169 -0.10228385 -0.18059875
v -0.2054235 -0.1407265 -0.19862975
v -0.19856825 -0.15808025 -0.200969
v -0.20038725 -0.1197015 -0.182545
v -0.1968325 -0.0810051 -0.16515975
v -0.19497825 -0.13711925 -0.18487175
v -0.1888565 -0.15459625 -0.18739
v -0.192815 -0.098400625 -0.16691375
v -0.18834475 -0.115756 -0.16916775
v -0.18349675 -0.13318525 -0.17175925
v -0.17903725 -0.094391725 -0.15419875
v -0.17506075 -0.11165075 -0.15680075
v -0.18600725 -0.059723025 -0.1503925
v -0.18275325 -0.077131075 -0.15193125
v -0.178192 -0.1507405 -0.174441
v -0.17213525 -0.1685075 -0.17706675
v -0.1702865 -0.0559846 -0.13794525
v -0.17083575 -0.12904175 -0.15953575
v -0.16384875 -0.090374675 -0.14288625
v -0.16045475 -0.107566075 -0.14578075
v -0.1671795 -0.0732376 -0.14011675
v -0.166324 -0.14658075 -0.16228275
v -0.15569275 -0.03520645 -0.1255065
v -0.16124925 -0.16427925 -0.1648545
v -0.15493525 -0.18210675 -0.1672325
v -0.15695775 -0.12488275 -0.14859125
v -0.143923 -0.17726825 -0.15586025
v -0.13697925 -0.195217 -0.15798325
v -0.153231 -0.052509125 -0.12714
v -0.153215 -0.14227125 -0.151277
v -0.1490645 -0.15969125 -0.153769
v -0.150309 -0.069585625 -0.1301005
v -0.14742875 -0.0866785 -0.13335975
v -0.137511 -0.032486675 -0.11557325
v -0.135329 -0.15549 -0.14416675
v -0.13136 -0.17253325 -0.14601225
v -0.12606925 -0.18968075 -0.14766125
v -0.144621 -0.1038962 -0.136483
v -0.1417495 -0.1211635 -0.13935075
v -0.13871225 -0.13837525 -0.141901
v -0.11782525 -0.20619725 -0.1491895
v -0.126097 -0.21263375 -0.16056525
v -0.13495575 -0.04951765 -0.1181775
v -0.1180005 -0.03074935 -0.10768175
v -0.1170315 -0.16896925 -0.13802875
v -0.113216 -0.18524175 -0.1393725
v -0.1077425 -0.20050925 -0.14061075
v -0.13241125 -0.066393575 -0.1219555
v -0.1301075 -0.0836083 -0.125833
v -0.12287625 -0.135445 -0.13457025
v -0.12006775 -0.15239075 -0.136507
v -0.097967225 -0.2108245 -0.14014525
v -0.104862525 -0.21926775 -0.149741
v -0.1278845 -0.100978475 -0.129266
v -0.12547725 -0.11825025 -0.13216725
v -0.11579625 -0.04784675 -0.11134
v -0.0979666 -0.03037605 -0.1019894
v -0.11392625 -0.064853325 -0.11587675
v -0.0838696 -0.2159255 -0.138359
v -0.088373725 -0.2271945 -0.149347
v -0.09872785 -0.18337175 -0.13353375
v -0.09576725 -0.19875625 -0.135268
v -0.11217775 -0.082062225 -0.12024875
v -0.078244475 -0.03086315 -0.098414425
v -0.101472175 -0.16713275 -0.132259
v -0.10393225 -0.1504865 -0.1309155
v -0.0820113 -0.20058775 -0.13246075
v -0.11033975 -0.0993197 -0.1239505
v -0.108331825 -0.116496 -0.12696675
v -0.10621135 -0.133601 -0.129247
v -0.0965251 -0.0477627 -0.1065695
v -0.092212675 -0.09909725 -0.120203
v -0.090526375 -0.11618 -0.123328
v -0.095219075 -0.064967175 -0.11168025
v -0.058910425 -0.0314001 -0.096334475
v -0.093823825 -0.082048125 -0.1163415
v -0.07738715 -0.04819345 -0.103434475
v -0.0852529 -0.1669425 -0.128752
v -0.0833571 -0.18376075 -0.13012775
v -0.0871191 -0.1500825 -0.127387
v -0.06691325 -0.2026395 -0.1310305
v -0.068267325 -0.21904375 -0.13729975
v -0.0739646 -0.09938555 -0.11780775
v -0.072594775 -0.1165065 -0.121129
v -0.071113375 -0.2313105 -0.1490595
v -0.0508209 -0.20428225 -0.1309165
v -0.051841325 -0.2208975 -0.1373745
v -0.08886955 -0.1331885 -0.1256875
v -0.075289575 -0.08230885 -0.1137655
v -0.0763986 -0.06526795 -0.10885
v -0.0583549 -0.048594675 -0.10145385
v -0.069840625 -0.15068825 -0.125687
v -0.06855515 -0.16781175 -0.12713425
v -0.0673953 -0.18509475 -0.12855975
v -0.07121345 -0.1336145 -0.12376475
v -0.03980795 -0.0318091 -0.095301175
v -0.05097035 -0.18646625 -0.12836125
v -0.056793975 -0.082531075 -0.1122475
v -0.0557642 -0.099603825 -0.11658025
v -0.05469835 -0.11677725 -0.12017825
v -0.0020991425 -0.03226435 -0.096306825
v -0.020899575 -0.032105675 -0.0953069
v -0.053617225 -0.13401375 -0.12310475
v -0.039495975 -0.04893695 -0.100367975
v -0.057630925 -0.0655588 -0.107058
v -0.0525891 -0.15135225 -0.1252765
v -0.05167875 -0.16882275 -0.1268755
v -0.034202775 -0.2053045 -0.13196725
v -0.0350056 -0.22193025 -0.1385775
v -0.039008475 -0.06584715 -0.106059
v -0.038417525 -0.08277005 -0.111462
v -0.02076815 -0.049214225 -0.100136975
v -0.017326355 -0.2059055 -0.1337685
v -0.018025105 -0.22243175 -0.14056675
v -0.034271375 -0.1874305 -0.12921325
v -0.034746475 -0.1695935 -0.127606
v -0.03769905 -0.09982155 -0.116143
v -0.03691005 -0.11702825 -0.12005325
v -0.0360959 -0.13436975 -0.12328725
v 0.0163027525 -0.049354825 -0.1020725
v -0.0021636975 -0.04938245 -0.100662875
v -0.035367325 -0.15189125 -0.125802
v -0.02051845 -0.06610445 -0.10575275
v -0.02016665 -0.0830129 -0.11123525
v -0.019223575 -0.11725875 -0.12048
v -0.018654775 -0.13465175 -0.12403125
v -0.0002990425 -0.206184 -0.136181
v -0.0009415775 -0.222626 -0.1432105
v -0.0197323 -0.100044825 -0.1162155
v 0.034554275 -0.049047575 -0.10481475
v -0.0173504275 -0.187998 -0.130815
v -0.0018537275 -0.1001728 -0.11688275
v -0.0015613775 -0.11739075 -0.12137
v 0.016099675 -0.066264 -0.10743425
v -0.00214525 -0.06627835 -0.106141
v 0.03414345 -0.06600035 -0.10982
v -0.01812387 -0.15223475 -0.12688325
v -0.0176755225 -0.170037 -0.128979
v -0.002050825 -0.083165075 -0.111705
v 0.0337841 -0.0829079 -0.1152295
v 0.015952525 -0.083144075 -0.1129975
v -0.0012359225 -0.134801 -0.12523725
v 0.0167928625 -0.20615875 -0.139152
v 0.0161937275 -0.22247825 -0.14655575
v 0.0338747 -0.2058065 -0.14269125
v 0.0333342 -0.22191625 -0.150482
v 0.0335352 -0.099903075 -0.12050125
v 0.0159149725 -0.10013855 -0.11826725
v -0.0008938025 -0.1524245 -0.1283845
v -0.000558095 -0.170272 -0.1307685
v -0.000309645 -0.18826625 -0.13295975
v 0.0167720325 -0.1882845 -0.13559875
v 0.0160023475 -0.1173605 -0.1229065
v 0.0161419275 -0.13478125 -0.12697875
v 0.032002725 -0.23427725 -0.16316225
v 0.05087285 -0.20506175 -0.14699525
v 0.050400925 -0.22085575 -0.15514625
v 0.033846475 -0.187988 -0.13884225
v 0.05185135 -0.06543715 -0.11365475
v 0.0163285175 -0.15241725 -0.130404
v 0.0165550275 -0.170294 -0.133103
v 0.051318125 -0.0823726 -0.1187765
v 0.050913275 -0.09939285 -0.12387825
v 0.069105325 -0.06456145 -0.1191155
v 0.0334902 -0.15216275 -0.133101
v 0.033644225 -0.17001425 -0.1361105
v 0.033417875 -0.1345345 -0.12945875
v 0.0508307 -0.18734675 -0.142874
v 0.03342335 -0.1171095 -0.12526225
v 0.05064485 -0.116595 -0.12861475
v 0.050525175 -0.1340145 -0.13286625
v 0.067702525 -0.20382175 -0.1522695
v 0.067297775 -0.219194 -0.16089325
v 0.0505185 -0.15162475 -0.1366345
v 0.0506342 -0.16942575 -0.13988775
v 0.06848335 -0.081548975 -0.12379775
v 0.06795905 -0.098600225 -0.12859075
v 0.06764585 -0.1863465 -0.147692
v 0.067582625 -0.115809 -0.13314325
v 0.06738465 -0.13320375 -0.13729925
v 0.084321 -0.20209725 -0.158452
v 0.08392615 -0.216931 -0.16765575
v 0.06735795 -0.1507835 -0.14105
v 0.0851323 -0.080363275 -0.130207
v 0.0845376 -0.097442875 -0.13463425
v 0.067478175 -0.1685325 -0.14442325
v 0.084122 -0.11466925 -0.138926
v 0.0841917 -0.184993 -0.15334825
v 0.100538 -0.19980375 -0.16575075
v 0.100065525 -0.2139775 -0.1754565
v 0.08391615 -0.132065 -0.142865
v 0.083896575 -0.14961175 -0.146503
v 0.101125225 -0.07874545 -0.13792825
v 0.1005678 -0.095863225 -0.14190525
v 0.0840349 -0.16729475 -0.149895
v 0.10018795 -0.1131165 -0.14581125
v 0.10040265 -0.18317575 -0.16004625
v 0.10002555 -0.13053625 -0.149492
v 0.10021945 -0.16564225 -0.15639025
v 0.1161585 -0.180852 -0.16783
v 0.1162785 -0.1968955 -0.17421325
v 0.131346 -0.19330825 -0.18391425
v 0.100039125 -0.148047 -0.15300175
v 0.13124475 -0.17796275 -0.1768455
v 0.11590925 -0.1635885 -0.163839
v 0.1161075 -0.093967425 -0.15015525
v 0.11569225 -0.146079 -0.160456
v 0.13095075 -0.16112725 -0.17236525
v 0.145418 -0.15831475 -0.1818815
v 0.145629 -0.17460125 -0.18700675
v 0.11578475 -0.11122675 -0.15366825
v 0.11564475 -0.128617 -0.15709725
v 0.1593225 -0.155316 -0.19243775
v 0.130768 -0.14378025 -0.168928
v 0.1453525 -0.14126 -0.178277
v 0.15947 -0.13862975 -0.18846525
v 0.1726565 -0.1524285 -0.203909
v 0.13113475 -0.09180855 -0.1592595
v 0.130875 -0.109075575 -0.16249775
v 0.130742 -0.1264055 -0.1657185
v 0.1453875 -0.1240095 -0.1751355
v 0.145522 -0.106747525 -0.17205225
v 0.15962175 -0.12154775 -0.18522625
v 0.159761 -0.10434265 -0.1822865
v 0.173325 -0.11915125 -0.1961045
v 0.17300625 -0.13606525 -0.19952725
v 0.18606675 -0.13360925 -0.21120675
v 0.17352425 -0.101990925 -0.1932105
v 0.186544 -0.11683625 -0.207617
v 0.199355 -0.11463075 -0.2196225
v 0.18680775 -0.099739325 -0.204732
v 0.19966475 -0.097578025 -0.21679775
f 3 280 796 283
f 5 281 796 280
f 2 282 796 281
f 1 283 796 282
f 5 284 797 281
f 9 285 797 284
f 6 286 797 285
f 2 281 797 286
f 4 287 798 290
f 8 288 798 287
f 7 289 798 288
f 3 290 798 289
f 7 291 799 289
f 11 292 799 291
f 5 280 799 292
f 3 289 799 280
f 11 293 800 292
f 13 294 800 293
f 9 284 800 294
f 5 292 800 284
f 8 295 801 288
f 12 296 801 295
f 16 297 801 296
f 7 288 801 297
f 16 298 802 297
f 17 299 802 298
f 11 291 802 299
f 7 297 802 291
f 13 300 803 294
f 15 301 803 300
f 10 302 803 301
f 9 294 803 302
f 15 303 804 301
f 18 304 804 303
f 14 305 804 304
f 10 301 804 305
f 17 306 805 299
f 19 307 805 306
f 13 293 805 307
f 11 299 805 293
f 21 308 806 310
f 25 309 806 308
f 16 296 806 309
f 12 310 806 296
f 19 311 807 307
f 27 312 807 311
f 15 300 807 312
f 13 307 807 300
f 27 313 808 312
f 23 314 808 313
f 18 303 808 314
f 15 312 808 303
f 25 315 809 309
f 20 316 809 315
f 17 298 809 316
f 16 309 809 298
f 20 317 810 316
f 28 318 810 317
f 19 306 810 318
f 17 316 810 306
f 28 319 811 318
f 31 320 811 319
f 27 311 811 320
f 19 318 811 311
f 25 321 812 315
f 30 322 812 321
f 29 323 812 322
f 20 315 812 323
f 29 324 813 323
f 37 325 813 324
f 28 317 813 325
f 20 323 813 317
f 22 326 814 329
f 26 327 814 326
f 32 328 814 327
f 21 329 814 328
f 32 330 815 328
f 30 321 815 330
f 25 308 815 321
f 21 328 815 308
f 27 320 816 313
f 31 331 816 320
f 34 332 816 331
f 23 313 816 332
f 34 333 817 332
f 35 334 817 333
f 24 335 817 334
f 23 332 817 335
f 39 336 818 338
f 43 337 818 336
f 32 327 818 337
f 26 338 818 327
f 37 339 819 325
f 41 340 819 339
f 31 319 819 340
f 28 325 819 319
f 30 341 820 322
f 42 342 820 341
f 48 343 820 342
f 29 322 820 343
f 48 344 821 343
f 49 345 821 344
f 37 324 821 345
f 29 343 821 324
f 32 337 822 330
f 43 346 822 337
f 42 341 822 346
f 30 330 822 341
f 41 347 823 340
f 40 348 823 347
f 34 331 823 348
f 31 340 823 331
f 45 349 824 352
f 53 350 824 349
f 39 351 824 350
f 33 352 824 351
f 40 353 825 348
f 44 354 825 353
f 35 333 825 354
f 34 348 825 333
f 44 355 826 354
f 38 356 826 355
f 36 357 826 356
f 35 354 826 357
f 49 358 827 345
f 50 359 827 358
f 41 339 827 359
f 37 345 827 339
f 44 360 828 355
f 46 361 828 360
f 47 362 828 361
f 38 355 828 362
f 47 363 829 362
f 51 364 829 363
f 56 365 829 364
f 38 362 829 365
f 53 366 830 350
f 59 367 830 366
f 43 336 830 367
f 39 350 830 336
f 41 359 831 347
f 50 368 831 359
f 52 369 831 368
f 40 347 831 369
f 52 370 832 369
f 46 360 832 370
f 44 353 832 360
f 40 369 832 353
f 43 367 833 346
f 59 371 833 367
f 58 372 833 371
f 42 346 833 372
f 58 373 834 372
f 63 374 834 373
f 48 342 834 374
f 42 372 834 342
f 54 375 835 377
f 65 376 835 375
f 53 349 835 376
f 45 377 835 349
f 52 378 836 370
f 60 379 836 378
f 61 380 836 379
f 46 370 836 380
f 61 381 837 380
f 55 382 837 381
f 47 361 837 382
f 46 380 837 361
f 55 383 838 382
f 57 384 838 383
f 51 363 838 384
f 47 382 838 363
f 63 385 839 374
f 66 386 839 385
f 49 344 839 386
f 48 374 839 344
f 66 387 840 386
f 64 388 840 387
f 50 358 840 388
f 49 386 840 358
f 64 389 841 388
f 60 378 841 389
f 52 368 841 378
f 50 388 841 368
f 57 390 842 384
f 62 391 842 390
f 68 392 842 391
f 51 384 842 392
f 68 393 843 392
f 70 394 843 393
f 56 364 843 394
f 51 392 843 364
f 65 395 844 376
f 69 396 844 395
f 59 366 844 396
f 53 376 844 366
f 67 397 845 399
f 81 398 845 397
f 65 375 845 398
f 54 399 845 375
f 61 400 846 381
f 76 401 846 400
f 75 402 846 401
f 55 381 846 402
f 75 403 847 402
f 72 404 847 403
f 57 383 847 404
f 55 402 847 383
f 72 405 848 404
f 279 406 848 405
f 62 390 848 406
f 57 404 848 390
f 59 396 849 371
f 69 407 849 396
f 73 408 849 407
f 58 371 849 408
f 73 409 850 408
f 78 410 850 409
f 63 373 850 410
f 58 408 850 373
f 64 411 851 389
f 82 412 851 411
f 80 413 851 412
f 60 389 851 413
f 80 414 852 413
f 76 400 852 414
f 61 379 852 400
f 60 413 852 379
f 279 415 853 406
f 77 416 853 415
f 71 417 853 416
f 62 406 853 417
f 71 418 854 417
f 90 419 854 418
f 68 391 854 419
f 62 417 854 391
f 78 420 855 410
f 79 421 855 420
f 66 385 855 421
f 63 410 855 385
f 66 421 856 387
f 79 422 856 421
f 82 411 856 422
f 64 387 856 411
f 81 423 857 398
f 84 424 857 423
f 69 395 857 424
f 65 398 857 395
f 74 425 858 427
f 87 426 858 425
f 81 397 858 426
f 67 427 858 397
f 84 428 859 424
f 86 429 859 428
f 73 407 859 429
f 69 424 859 407
f 77 430 860 416
f 91 431 860 430
f 97 432 860 431
f 71 416 860 432
f 97 433 861 432
f 95 434 861 433
f 90 418 861 434
f 71 432 861 418
f 75 435 862 403
f 88 436 862 435
f 92 437 862 436
f 72 403 862 437
f 92 438 863 437
f 77 415 863 438
f 279 405 863 415
f 72 437 863 405
f 86 439 864 429
f 93 440 864 439
f 78 409 864 440
f 73 429 864 409
f 85 441 865 443
f 103 442 865 441
f 87 425 865 442
f 74 443 865 425
f 76 444 866 401
f 89 445 866 444
f 88 435 866 445
f 75 401 866 435
f 80 446 867 414
f 98 447 867 446
f 89 444 867 447
f 76 414 867 444
f 92 448 868 438
f 105 449 868 448
f 91 430 868 449
f 77 438 868 430
f 93 450 869 440
f 83 451 869 450
f 79 420 869 451
f 78 440 869 420
f 83 452 870 451
f 100 453 870 452
f 82 422 870 453
f 79 451 870 422
f 82 453 871 412
f 100 454 871 453
f 98 446 871 454
f 80 412 871 446
f 87 455 872 426
f 102 456 872 455
f 84 423 872 456
f 81 426 872 423
f 93 457 873 450
f 99 458 873 457
f 94 459 873 458
f 83 450 873 459
f 94 460 874 459
f 106 461 874 460
f 100 452 874 461
f 83 459 874 452
f 102 462 875 456
f 101 463 875 462
f 86 428 875 463
f 84 456 875 428
f 107 464 876 466
f 115 465 876 464
f 103 441 876 465
f 85 466 876 441
f 101 467 877 463
f 99 457 877 467
f 93 439 877 457
f 86 463 877 439
f 103 468 878 442
f 116 469 878 468
f 102 455 878 469
f 87 442 878 455
f 89 470 879 445
f 104 471 879 470
f 112 472 879 471
f 88 445 879 472
f 112 473 880 472
f 105 448 880 473
f 92 436 880 448
f 88 472 880 436
f 98 474 881 447
f 119 475 881 474
f 104 470 881 475
f 89 447 881 470
f 105 476 882 449
f 108 477 882 476
f 96 478 882 477
f 91 449 882 478
f 96 479 883 478
f 113 480 883 479
f 97 431 883 480
f 91 478 883 431
f 99 481 884 458
f 109 482 884 481
f 110 483 884 482
f 94 458 884 483
f 110 484 885 483
f 114 485 885 484
f 106 460 885 485
f 94 483 885 460
f 97 480 886 433
f 113 486 886 480
f 120 487 886 486
f 95 433 886 487
f 108 488 887 477
f 130 489 887 488
f 121 490 887 489
f 96 477 887 490
f 121 491 888 490
f 128 492 888 491
f 113 479 888 492
f 96 490 888 479
f 100 461 889 454
f 106 493 889 461
f 119 474 889 493
f 98 454 889 474
f 101 494 890 467
f 123 495 890 494
f 109 481 890 495
f 99 467 890 481
f 102 469 891 462
f 116 496 891 469
f 123 494 891 496
f 101 462 891 494
f 115 497 892 465
f 136 498 892 497
f 116 468 892 498
f 103 465 892 468
f 119 499 893 475
f 118 500 893 499
f 117 501 893 500
f 104 475 893 501
f 117 502 894 501
f 122 503 894 502
f 112 471 894 503
f 104 501 894 471
f 112 503 895 473
f 122 504 895 503
f 108 476 895 504
f 105 473 895 476
f 114 505 896 485
f 118 499 896 505
f 119 493 896 499
f 106 485 896 493
f 124 506 897 508
f 127 507 897 506
f 115 464 897 507
f 107 508 897 464
f 122 509 898 504
f 131 510 898 509
f 130 488 898 510
f 108 504 898 488
f 123 511 899 495
f 125 512 899 511
f 132 513 899 512
f 109 495 899 513
f 132 514 900 513
f 139 515 900 514
f 110 482 900 515
f 109 513 900 482
f 139 516 901 515
f 133 517 901 516
f 114 484 901 517
f 110 515 901 484
f 126 518 902 521
f 134 519 902 518
f 135 520 902 519
f 111 521 902 520
f 135 522 903 520
f 127 506 903 522
f 124 523 903 506
f 111 520 903 523
f 133 524 904 517
f 141 525 904 524
f 118 505 904 525
f 114 517 904 505
f 127 526 905 507
f 140 527 905 526
f 136 497 905 527
f 115 507 905 497
f 136 528 906 498
f 125 511 906 528
f 123 496 906 511
f 116 498 906 496
f 118 525 907 500
f 141 529 907 525
f 137 530 907 529
f 117 500 907 530
f 137 531 908 530
f 131 509 908 531
f 122 502 908 509
f 117 530 908 502
f 130 532 909 489
f 148 533 909 532
f 129 534 909 533
f 121 489 909 534
f 129 535 910 534
f 144 536 910 535
f 128 491 910 536
f 121 534 910 491
f 136 527 911 528
f 140 537 911 527
f 138 538 911 537
f 125 528 911 538
f 138 539 912 538
f 145 540 912 539
f 132 512 912 540
f 125 538 912 512
f 135 541 913 522
f 153 542 913 541
f 140 526 913 542
f 127 522 913 526
f 148 543 914 533
f 169 544 914 543
f 143 545 914 544
f 129 533 914 545
f 143 546 915 545
f 155 547 915 546
f 144 535 915 547
f 129 545 915 535
f 131 548 916 510
f 156 549 916 548
f 148 532 916 549
f 130 510 916 532
f 137 550 917 531
f 157 551 917 550
f 156 548 917 551
f 131 531 917 548
f 145 552 918 540
f 146 553 918 552
f 139 514 918 553
f 132 540 918 514
f 139 553 919 516
f 146 554 919 553
f 142 555 919 554
f 133 516 919 555
f 142 556 920 555
f 154 557 920 556
f 141 524 920 557
f 133 555 920 524
f 147 558 921 561
f 151 559 921 558
f 150 560 921 559
f 134 561 921 560
f 150 562 922 560
f 153 541 922 562
f 135 519 922 541
f 134 560 922 519
f 141 557 923 529
f 154 563 923 557
f 157 550 923 563
f 137 529 923 550
f 140 542 924 537
f 153 564 924 542
f 158 565 924 564
f 138 537 924 565
f 158 566 925 565
f 163 567 925 566
f 145 539 925 567
f 138 565 925 539
f 146 568 926 554
f 149 569 926 568
f 160 570 926 569
f 142 554 926 570
f 160 571 927 570
f 165 572 927 571
f 154 556 927 572
f 142 570 927 556
f 169 573 928 544
f 170 574 928 573
f 161 575 928 574
f 143 544 928 575
f 161 576 929 575
f 166 577 929 576
f 155 546 929 577
f 143 575 929 546
f 163 578 930 567
f 149 568 930 578
f 146 552 930 568
f 145 567 930 552
f 152 579 931 581
f 178 580 931 579
f 151 558 931 580
f 147 581 931 558
f 156 582 932 549
f 168 583 932 582
f 169 543 932 583
f 148 549 932 543
f 163 584 933 578
f 177 585 933 584
f 176 586 933 585
f 149 578 933 586
f 176 587 934 586
f 172 588 934 587
f 160 569 934 588
f 149 586 934 569
f 151 589 935 559
f 159 590 935 589
f 171 591 935 590
f 150 559 935 591
f 171 592 936 591
f 158 564 936 592
f 153 562 936 564
f 150 591 936 562
f 178 593 937 580
f 181 594 937 593
f 159 589 937 594
f 151 580 937 589
f 165 595 938 572
f 167 596 938 595
f 157 563 938 596
f 154 572 938 563
f 157 596 939 551
f 167 597 939 596
f 168 582 939 597
f 156 551 939 582
f 171 598 940 592
f 177 584 940 598
f 163 566 940 584
f 158 592 940 566
f 181 599 941 594
f 182 600 941 599
f 164 601 941 600
f 159 594 941 601
f 164 602 942 601
f 177 598 942 602
f 171 590 942 598
f 159 601 942 590
f 172 603 943 588
f 179 604 943 603
f 165 571 943 604
f 160 588 943 571
f 170 605 944 574
f 175 606 944 605
f 162 607 944 606
f 161 574 944 607
f 162 608 945 607
f 173 609 945 608
f 166 576 945 609
f 161 607 945 576
f 175 610 946 606
f 187 611 946 610
f 174 612 946 611
f 162 606 946 612
f 174 613 947 612
f 186 614 947 613
f 173 608 947 614
f 162 612 947 608
f 182 615 948 600
f 197 616 948 615
f 190 617 948 616
f 164 600 948 617
f 190 618 949 617
f 176 585 949 618
f 177 602 949 585
f 164 617 949 602
f 179 619 950 604
f 180 620 950 619
f 167 595 950 620
f 165 604 950 595
f 180 621 951 620
f 188 622 951 621
f 168 597 951 622
f 167 620 951 597
f 188 623 952 622
f 170 573 952 623
f 169 583 952 573
f 168 622 952 583
f 188 624 953 623
f 189 625 953 624
f 175 605 953 625
f 170 623 953 605
f 176 618 954 587
f 190 626 954 618
f 192 627 954 626
f 172 587 954 627
f 192 628 955 627
f 185 629 955 628
f 179 603 955 629
f 172 627 955 603
f 186 630 956 614
f 204 631 956 630
f 193 632 956 631
f 173 614 956 632
f 187 633 957 611
f 201 634 957 633
f 194 635 957 634
f 174 611 957 635
f 194 636 958 635
f 210 637 958 636
f 186 613 958 637
f 174 635 958 613
f 189 638 959 625
f 196 639 959 638
f 187 610 959 639
f 175 625 959 610
f 183 640 960 642
f 199 641 960 640
f 181 593 960 641
f 178 642 960 593
f 185 643 961 629
f 184 644 961 643
f 180 619 961 644
f 179 629 961 619
f 184 645 962 644
f 189 624 962 645
f 188 621 962 624
f 180 644 962 621
f 199 646 963 641
f 198 647 963 646
f 182 599 963 647
f 181 641 963 599
f 198 648 964 647
f 207 649 964 648
f 197 615 964 649
f 182 647 964 615
f 200 650 965 652
f 209 651 965 650
f 199 640 965 651
f 183 652 965 640
f 185 653 966 643
f 202 654 966 653
f 195 655 966 654
f 184 643 966 655
f 195 656 967 655
f 196 638 967 656
f 189 645 967 638
f 184 655 967 645
f 192 657 968 628
f 191 658 968 657
f 202 653 968 658
f 185 628 968 653
f 196 659 969 639
f 211 660 969 659
f 201 633 969 660
f 187 639 969 633
f 197 661 970 616
f 191 657 970 661
f 192 626 970 657
f 190 616 970 626
f 197 649 971 661
f 207 662 971 649
f 203 663 971 662
f 191 661 971 663
f 203 664 972 663
f 206 665 972 664
f 202 658 972 665
f 191 663 972 658
f 201 666 973 634
f 214 667 973 666
f 205 668 973 667
f 194 634 973 668
f 205 669 974 668
f 223 670 974 669
f 210 636 974 670
f 194 668 974 636
f 202 665 975 654
f 206 671 975 665
f 212 672 975 671
f 195 654 975 672
f 212 673 976 672
f 211 659 976 673
f 196 656 976 659
f 195 672 976 656
f 199 651 977 646
f 209 674 977 651
f 208 675 977 674
f 198 646 977 675
f 208 676 978 675
f 213 677 978 676
f 207 648 978 677
f 198 675 978 648
f 211 678 979 660
f 219 679 979 678
f 214 666 979 679
f 201 660 979 666
f 207 677 980 662
f 213 680 980 677
f 217 681 980 680
f 203 662 980 681
f 217 682 981 681
f 216 683 981 682
f 206 664 981 683
f 203 681 981 664
f 214 684 982 667
f 224 685 982 684
f 215 686 982 685
f 205 667 982 686
f 215 687 983 686
f 225 688 983 687
f 223 669 983 688
f 205 686 983 669
f 216 689 984 683
f 220 690 984 689
f 212 671 984 690
f 206 683 984 671
f 209 691 985 674
f 222 692 985 691
f 218 693 985 692
f 208 674 985 693
f 218 694 986 693
f 221 695 986 694
f 213 676 986 695
f 208 693 986 676
f 212 690 987 673
f 220 696 987 690
f 219 678 987 696
f 211 673 987 678
f 221 697 988 695
f 226 698 988 697
f 217 680 988 698
f 213 695 988 680
f 219 699 989 679
f 227 700 989 699
f 224 684 989 700
f 214 679 989 684
f 224 701 990 685
f 228 702 990 701
f 230 703 990 702
f 215 685 990 703
f 230 704 991 703
f 234 705 991 704
f 225 687 991 705
f 215 703 991 687
f 217 698 992 682
f 226 706 992 698
f 231 707 992 706
f 216 682 992 707
f 231 708 993 707
f 232 709 993 708
f 220 689 993 709
f 216 707 993 689
f 222 710 994 692
f 237 711 994 710
f 236 712 994 711
f 218 692 994 712
f 236 713 995 712
f 245 714 995 713
f 221 694 995 714
f 218 712 995 694
f 220 709 996 696
f 232 715 996 709
f 227 699 996 715
f 219 696 996 699
f 245 716 997 714
f 242 717 997 716
f 226 697 997 717
f 221 714 997 697
f 227 718 998 700
f 235 719 998 718
f 228 701 998 719
f 224 700 998 701
f 242 720 999 717
f 243 721 999 720
f 231 706 999 721
f 226 717 999 706
f 232 722 1000 715
f 238 723 1000 722
f 235 718 1000 723
f 227 715 1000 718
f 235 724 1001 719
f 239 725 1001 724
f 233 726 1001 725
f 228 719 1001 726
f 233 727 1002 726
f 229 728 1002 727
f 230 702 1002 728
f 228 726 1002 702
f 233 729 1003 727
f 241 730 1003 729
f 249 731 1003 730
f 229 727 1003 731
f 243 732 1004 721
f 238 722 1004 732
f 232 708 1004 722
f 231 721 1004 708
f 239 733 1005 725
f 240 734 1005 733
f 241 729 1005 734
f 233 725 1005 729
f 238 735 1006 723
f 246 736 1006 735
f 239 724 1006 736
f 235 723 1006 724
f 250 737 1007 739
f 252 738 1007 737
f 245 713 1007 738
f 236 739 1007 713
f 243 740 1008 732
f 253 741 1008 740
f 246 735 1008 741
f 238 732 1008 735
f 246 742 1009 736
f 255 743 1009 742
f 240 733 1009 743
f 239 736 1009 733
f 255 744 1010 743
f 247 745 1010 744
f 244 746 1010 745
f 240 743 1010 746
f 244 747 1011 746
f 257 748 1011 747
f 241 734 1011 748
f 240 746 1011 734
f 245 738 1012 716
f 252 749 1012 738
f 258 750 1012 749
f 242 716 1012 750
f 258 751 1013 750
f 253 740 1013 751
f 243 720 1013 740
f 242 750 1013 720
f 247 752 1014 745
f 263 753 1014 752
f 248 754 1014 753
f 244 745 1014 754
f 253 755 1015 741
f 254 756 1015 755
f 255 742 1015 756
f 246 741 1015 742
f 255 756 1016 744
f 254 757 1016 756
f 260 758 1016 757
f 247 744 1016 758
f 260 759 1017 758
f 262 760 1017 759
f 263 752 1017 760
f 247 758 1017 752
f 263 761 1018 753
f 264 762 1018 761
f 256 763 1018 762
f 248 753 1018 763
f 251 764 1019 766
f 259 765 1019 764
f 252 737 1019 765
f 250 766 1019 737
f 259 767 1020 765
f 268 768 1020 767
f 258 749 1020 768
f 252 765 1020 749
f 258 768 1021 751
f 268 769 1021 768
f 254 755 1021 769
f 253 751 1021 755
f 268 770 1022 769
f 261 771 1022 770
f 260 757 1022 771
f 254 769 1022 757
f 267 772 1023 773
f 261 770 1023 772
f 268 767 1023 770
f 259 773 1023 767
f 261 774 1024 771
f 265 775 1024 774
f 262 759 1024 775
f 260 771 1024 759
f 267 776 1025 772
f 266 777 1025 776
f 265 774 1025 777
f 261 772 1025 774
f 265 778 1026 775
f 274 779 1026 778
f 269 780 1026 779
f 262 775 1026 780
f 269 781 1027 780
f 264 761 1027 781
f 263 760 1027 761
f 262 780 1027 760
f 269 782 1028 781
f 270 783 1028 782
f 271 784 1028 783
f 264 781 1028 784
f 266 785 1029 777
f 272 786 1029 785
f 274 778 1029 786
f 265 777 1029 778
f 274 787 1030 779
f 278 788 1030 787
f 270 782 1030 788
f 269 779 1030 782
f 278 789 1031 788
f 276 790 1031 789
f 275 791 1031 790
f 270 788 1031 791
f 273 792 1032 793
f 278 787 1032 792
f 274 786 1032 787
f 272 793 1032 786
f 277 794 1033 795
f 276 789 1033 794
f 278 792 1033 789
f 273 795 1033 792
