# https://github.com/mikedh/trimesh
v 0.24104806 -0.25464875 -0.17540097
v 0.24530600 -0.24975600 -0.17766900
v 0.25812401 -0.23430150 -0.18147600
v 0.25822201 -0.23316699 -0.18433000
v 0.26726475 -0.22351200 -0.18825000
v 0.26436499 -0.22696599 -0.18415000
v 0.28220600 -0.24274500 -0.20448899
v 0.28208700 -0.24101800 -0.20934901
v 0.31770000 -0.33113399 -0.26637301
v 0.31863808 -0.32999246 -0.26176014
v 0.30881458 -0.32796883 -0.25512551
v 0.28103456 -0.30026080 -0.22709371
v 0.29608957 -0.30544644 -0.23537853
v 0.29960594 -0.32151132 -0.24742476
v 0.26179875 -0.27869750 -0.20797524
v 0.25232870 -0.26257688 -0.19361619
v 0.24927694 -0.25832823 -0.18919292
v 0.27436700 -0.29417801 -0.22153300
v 0.29564400 -0.31975974 -0.24552800
v 0.26514700 -0.28343001 -0.21199200
v 0.24624450 -0.25902501 -0.18898401
v 0.25342700 -0.26836401 -0.19927800
v 0.30967300 -0.33007151 -0.25794150
v 0.30125447 -0.27711611 -0.22556785
v 0.29259140 -0.26360122 -0.21486765
v 0.32057277 -0.31438542 -0.25242862
v 0.31581548 -0.31878935 -0.25322005
v 0.30740294 -0.31587258 -0.24594006
v 0.29363629 -0.28779037 -0.22424886
v 0.27999132 -0.26807711 -0.20818591
v 0.31781094 -0.32642272 -0.25803630
v 0.32362174 -0.31582576 -0.25521746
v 0.29943858 -0.29412368 -0.23037174
v 0.27353761 -0.25806932 -0.20072416
v 0.25557259 -0.24914282 -0.18633784
v 0.30382747 -0.30094254 -0.23635010
v 0.27115559 -0.24223175 -0.19502323
v 0.27967459 -0.25130683 -0.20366064
v 0.32803187 -0.32508141 -0.26377925
v 0.31189048 -0.28715610 -0.24408431
v 0.32572292 -0.32335121 -0.26056676
v 0.28179018 -0.24657624 -0.20225998
v 0.31613353 -0.30006572 -0.24364792
v 0.30994532 -0.31103629 -0.24478587
v 0.31142779 -0.29246606 -0.23741936
v 0.30398094 -0.27642960 -0.22787972
v 0.30968199 -0.28639052 -0.23482922
v 0.26182627 -0.24493436 -0.18746386
v 0.31306186 -0.29318346 -0.23945894
v 0.32599777 -0.31867997 -0.26055346
v 0.30147794 -0.27246521 -0.22440220
v 0.32055220 -0.32798035 -0.26055566
v 0.25313262 -0.24604553 -0.18151563
v 0.25966212 -0.27024369 -0.20123890
v 0.26561728 -0.26578982 -0.20137316
v 0.31397318 -0.31473391 -0.25113336
v 0.27454640 -0.29110623 -0.21906660
v 0.32492852 -0.31370278 -0.25953493
v 0.29785800 -0.27630600 -0.22423799
v 0.31145561 -0.31028771 -0.24805919
v 0.30898529 -0.30705961 -0.24518434
v 0.30222477 -0.29220790 -0.23529365
v 0.30647177 -0.30179871 -0.24194144
v 0.30356471 -0.29652646 -0.23824715
v 0.32163001 -0.30497832 -0.25544481
v 0.29835501 -0.27877399 -0.22589900
v 0.29213143 -0.27979693 -0.22521478
v 0.28546759 -0.27033904 -0.21741014
v 0.28113790 -0.26516479 -0.21264231
v 0.27496983 -0.25684736 -0.20553454
v 0.27163821 -0.25096024 -0.20160245
v 0.26914774 -0.24855657 -0.19902812
v 0.26229499 -0.23996412 -0.19092953
v 0.26463165 -0.24234897 -0.19377476
v 0.32326672 -0.30844445 -0.25729478
v 0.31830013 -0.29959595 -0.25210921
v 0.31414228 -0.29023288 -0.24661326
v 0.28671366 -0.24711383 -0.21475570
v 0.28468858 -0.24399591 -0.21221346
v 0.28888680 -0.24988122 -0.21706307
v 0.29192183 -0.25315337 -0.21915324
v 0.29431821 -0.25744937 -0.22327122
v 0.29823047 -0.26224446 -0.22724438
v 0.31017659 -0.28303387 -0.24190054
v 0.30862484 -0.28066270 -0.24025327
v 0.30292934 -0.27089068 -0.23352265
v 0.29559706 -0.25931202 -0.22484354
v 0.31446774 -0.29441621 -0.24212998
v 0.31629492 -0.29574663 -0.24973027
v 0.30749099 -0.28054188 -0.23605623
v 0.32091078 -0.30727616 -0.25004946
v 0.30494656 -0.27498551 -0.23605539
v 0.29541483 -0.26053856 -0.22146477
v 0.29173318 -0.25658455 -0.21338065
v 0.29644650 -0.26328109 -0.21913580
v 0.30713587 -0.28077237 -0.23247345
v 0.29915474 -0.26504362 -0.22915141
v 0.28773884 -0.25181260 -0.20859421
v 0.31953660 -0.30191589 -0.25350287
v 0.32324248 -0.31220820 -0.25481580
v 0.28357551 -0.24574734 -0.20438644
v 0.32468978 -0.31663245 -0.25761990
v 0.27325550 -0.23303490 -0.19297670
v 0.28726616 -0.27738483 -0.21608280
v 0.29141190 -0.28289176 -0.22114860
v 0.26732927 -0.24641382 -0.19636785
v 0.29396128 -0.28317197 -0.22717999
v 0.27340570 -0.25429379 -0.20382029
v 0.28400314 -0.30882609 -0.23506760
f 17 16 54
f 16 15 54
f 55 54 15
f 55 17 54
f 55 48 17
f 34 48 55
f 34 55 30
f 48 35 17
f 35 48 53
f 3 53 48
f 3 2 53
f 2 1 53
f 53 17 35
f 17 53 1
f 30 55 15
f 30 15 104
f 104 15 57
f 12 104 57
f 104 12 105
f 105 12 29
f 13 29 12
f 29 13 33
f 33 13 36
f 13 28 36
f 36 28 44
f 44 28 56
f 28 31 56
f 28 11 31
f 31 11 52
f 26 31 52
f 26 52 41
f 32 26 41
f 91 26 32
f 43 26 91
f 43 45 26
f 49 45 43
f 47 45 49
f 47 49 88
f 90 47 88
f 90 88 85
f 92 90 85
f 92 86 90
f 86 96 90
f 51 96 86
f 51 46 96
f 46 47 96
f 46 51 47
f 97 51 86
f 93 51 97
f 93 97 83
f 95 51 93
f 94 95 93
f 94 93 81
f 80 94 81
f 94 80 78
f 79 94 78
f 94 79 8
f 8 7 94
f 7 101 94
f 101 98 94
f 101 42 98
f 103 42 101
f 103 101 5
f 42 25 98
f 42 38 25
f 103 38 42
f 25 38 69
f 38 70 69
f 38 108 70
f 38 71 108
f 71 72 108
f 37 71 38
f 72 71 37
f 37 106 72
f 37 74 106
f 74 37 73
f 6 73 37
f 6 4 73
f 25 69 68
f 68 67 25
f 25 67 107
f 25 107 59
f 59 107 66
f 66 107 24
f 24 107 62
f 24 62 63
f 62 64 63
f 24 63 45
f 24 59 66
f 24 25 59
f 25 24 51
f 94 25 51
f 51 24 47
f 98 25 94
f 5 101 7
f 81 93 82
f 93 87 82
f 93 83 87
f 51 95 94
f 85 88 84
f 84 88 40
f 88 77 40
f 88 89 77
f 88 76 89
f 88 91 76
f 88 43 91
f 91 99 76
f 91 65 99
f 91 75 65
f 75 91 100
f 91 32 100
f 100 32 58
f 32 102 58
f 58 102 50
f 50 102 32
f 32 41 50
f 75 100 58
f 96 47 90
f 47 24 45
f 49 43 88
f 45 63 26
f 63 61 26
f 26 61 60
f 26 60 56
f 56 27 26
f 26 27 31
f 52 11 10
f 11 23 10
f 11 19 23
f 14 19 11
f 12 19 14
f 12 109 19
f 10 23 9
f 39 10 9
f 28 14 11
f 28 13 14
f 13 12 14
f 57 18 12
f 57 20 18
f 15 20 57
f 16 22 15
f 16 21 22
f 17 21 16
f 17 1 21

