v -0.158769 0.0375577 0.0370851
v -0.158265 0.0377407 0.0344178
v -0.158882 0.0353851 0.0312404
v -0.15948 0.0352539 0.0339024
v -0.157628 0.0378349 0.031777
v -0.15594 0.0399977 0.0323987
v -0.158364 0.0355579 0.0285762
v -0.156676 0.0377207 0.029198
v -0.154965 0.0398736 0.0298259
v -0.157286 0.0353911 0.0260303
v -0.15549 0.0375082 0.0266809
v -0.153693 0.0396252 0.0273314
v -0.142162 0.0107659 0.0176693
v -0.141964 0.0070245 0.0198683
v -0.143496 0.00943337 0.0186667
v -0.155948 0.0296199 0.0214237
v -0.144359 0.0083955 0.0195525
v -0.153834 0.0289365 0.0193333
v -0.152478 0.031132 0.0193613
v -0.158659 0.0330718 0.0255992
v -0.158205 0.027263 0.0232318
v -0.157678 0.0300369 0.0234338
v -0.156698 0.027002 0.0212685
v -0.15684 0.021734 0.0210297
v -0.156939 0.0243156 0.0211181
v -0.154653 0.0219483 0.019234
v -0.154922 0.0243446 0.0192696
v -0.152116 0.0225457 0.0175476
v -0.15449 0.0194363 0.019271
v -0.152061 0.0199144 0.0176593
v -0.157049 0.016494 0.0239638
v -0.155341 0.0166004 0.0217639
v -0.160705 0.0190683 0.0281304
v -0.158513 0.0164617 0.0262662
v -0.159312 0.0190788 0.0257978
v -0.157918 0.0190892 0.0234653
v -0.156525 0.0190997 0.0211327
v -0.159963 0.0217819 0.025445
v -0.161069 0.027317 0.030665
v -0.160653 0.0301072 0.0307861
v -0.161337 0.021751 0.0277712
v -0.160921 0.0245412 0.0278923
v -0.160588 0.0273605 0.0279706
v -0.160225 0.032954 0.0308607
v -0.160208 0.030216 0.0280277
v -0.159529 0.0330328 0.0281816
v -0.162458 0.0245194 0.0331347
v -0.161917 0.0273075 0.0332744
v -0.161376 0.0300956 0.0334141
v -0.160834 0.0328837 0.0335538
v -0.161544 0.0245278 0.0305352
v -0.162553 0.0272336 0.0359349
v -0.162001 0.0300194 0.0360768
v -0.161979 0.0297869 0.0388248
v -0.161966 0.029498 0.0416038
v -0.161083 0.0323493 0.0390869
v -0.160198 0.0348448 0.0393858
v -0.161084 0.032705 0.036271
v -0.160199 0.0352006 0.0365699
v -0.163892 0.0187199 0.0438706
v -0.163515 0.0213582 0.0439635
v -0.163132 0.0242323 0.0413132
v -0.162755 0.0268706 0.0414061
v -0.16275 0.0271063 0.0386629
v -0.164395 0.0239727 0.0464743
v -0.164117 0.026628 0.0465412
v -0.16316 0.0240004 0.0440505
v -0.162882 0.0266557 0.0441174
v -0.163884 0.0292956 0.04661
v -0.162677 0.0293312 0.0441876
v -0.162492 0.0320122 0.0442586
v -0.161286 0.0320478 0.0418361
v -0.163483 0.0215727 0.0412216
v -0.163261 0.0216366 0.0384885
v -0.163043 0.0244016 0.0385739
v -0.162821 0.0244655 0.0358409
v -0.163605 0.0187927 0.0411558
v -0.163176 0.0188238 0.0384654
v -0.162872 0.0216742 0.0357897
v -0.162443 0.0217053 0.0330993
v -0.162014 0.0217364 0.0304088
v -0.161877 0.016364 0.038882
v -0.16257 0.0189091 0.03584
v -0.161919 0.0190082 0.0332311
v -0.163705 0.0160266 0.0438895
v -0.162759 0.0162036 0.0413983
v -0.162732 0.016131 0.0385553
v -0.162 0.0162084 0.0360721
v -0.161267 0.0162859 0.0335889
v -0.160535 0.0163633 0.0311057
v -0.161537 0.019001 0.030591
v -0.159803 0.0164408 0.0286224
v -0.159322 0.0135477 0.0316144
v -0.158682 0.0137025 0.0291338
v -0.161136 0.0118053 0.0423996
v -0.162356 0.0135383 0.0416058
v -0.159127 0.0100349 0.0406909
v -0.160347 0.0117679 0.0398972
v -0.161567 0.0135009 0.0391035
v -0.158338 0.00999746 0.0381886
v -0.159558 0.0117305 0.0373949
v -0.160777 0.0134635 0.0366011
v -0.157549 0.00996006 0.0356862
v -0.158768 0.0116931 0.0348925
v -0.159988 0.0134261 0.0340988
v -0.157979 0.0116557 0.0323901
v -0.15719 0.0116183 0.0298878
v -0.15989 0.00951801 0.0429777
v -0.155399 0.00337427 0.0425035
v -0.156645 0.00566817 0.041928
v -0.157891 0.00796207 0.0413525
v -0.157115 0.00826118 0.0389817
v -0.156114 0.00802441 0.0364446
v -0.155113 0.00778765 0.0339074
v -0.156745 0.00990904 0.0331815
v -0.154113 0.00755089 0.0313702
v -0.155744 0.00967228 0.0306443
v -0.154744 0.00943552 0.0281071
v -0.156375 0.0115569 0.0273812
v -0.155395 0.0113076 0.0248391
v -0.153714 0.00929109 0.025604
v -0.150675 0.0074855 0.0240011
v -0.152411 0.00956407 0.0232952
v -0.154166 0.0117082 0.0226401
v -0.149482 0.00814072 0.021989
v -0.151236 0.0102848 0.0213339
v -0.149838 0.0113504 0.0196425
v -0.148305 0.0126219 0.018112
v -0.143639 0.00574134 0.0212214
v -0.145815 0.0074727 0.0206385
v -0.147991 0.00920406 0.0200556
v -0.153704 0.0321211 0.0208573
v -0.15522 0.0330106 0.0225469
v -0.159499 0.0354677 0.0481193
v -0.158705 0.0244366 0.023116
v -0.159153 0.0302317 0.0255057
v -0.159645 0.0273891 0.0254163
v -0.160137 0.0245465 0.025327
v -0.155191 0.0267409 0.0193052
v -0.158502 0.0218009 0.0231619
v -0.143832 0.0130722 0.0165092
v -0.159348 0.0360237 0.0453517
v -0.159197 0.0365798 0.0425841
v -0.147757 0.0269617 0.0161425
v -0.14538 0.0298405 0.0165168
v -0.148022 0.0295339 0.0169999
v -0.137336 0.00470978 0.0212723
v -0.138439 0.00495374 0.0211638
v -0.139542 0.00519769 0.0210553
v -0.140645 0.00544164 0.0209467
v -0.145646 0.0324127 0.0173743
v -0.136052 0.00540618 0.0206077
v -0.137155 0.00565013 0.0204992
v -0.138258 0.00589408 0.0203907
v -0.142732 0.0301459 0.0160453
v -0.142873 0.0326988 0.0171045
v -0.145882 0.0349804 0.0182797
v -0.136975 0.00659048 0.0197261
v -0.134737 0.0377873 0.0202803
v -0.137563 0.0377469 0.0200476
v -0.14039 0.0377065 0.0198149
v -0.131942 0.0377498 0.0206335
v -0.132244 0.0399019 0.0224456
v -0.135019 0.0399886 0.0220165
v -0.137794 0.0400752 0.0215874
v -0.132547 0.0420541 0.0242577
v -0.160884 0.034623 0.0419798
v -0.136799 0.00241809 0.0240161
v -0.139104 0.00341808 0.0230083
v -0.141408 0.00441807 0.0220005
v -0.134411 0.00162584 0.0251314
v -0.135443 0.00398512 0.0219747
v -0.133116 0.00335138 0.023225
v -0.132112 0.00150847 0.0266095
v -0.131101 0.000260407 0.0302234
v -0.130817 0.00283144 0.0245467
v -0.1314 -0.00112425 0.0361924
v -0.132441 -0.000795354 0.0324174
v -0.136486 -0.0015386 0.0397609
v -0.135138 -0.00131313 0.0373037
v -0.133789 -0.00108765 0.0348466
v -0.134058 -0.00167809 0.0410529
v -0.132739 -0.00144843 0.0386058
v -0.137806 -0.00177916 0.0422018
v -0.141523 -0.00199531 0.0432532
v -0.143899 -0.000851745 0.0421104
v -0.14761 -0.00026694 0.0432698
v -0.14997 0.000833791 0.0421304
v -0.152003 0.00250864 0.041378
v -0.153564 0.00464682 0.0406898
v -0.138888 -0.00134623 0.0384752
v -0.137543 -0.00110741 0.0360225
v -0.136198 -0.000868586 0.0335698
v -0.139944 -0.000533395 0.0348328
v -0.138608 -0.000500942 0.0323315
v -0.140999 0.000291971 0.0311934
v -0.146134 0.000581793 0.0412162
v -0.148463 0.00150129 0.0400834
v -0.140203 -0.00134769 0.0409754
v -0.142531 -0.000428198 0.0398426
v -0.144859 0.000491295 0.0387098
v -0.147188 0.00141079 0.0375769
v -0.141256 -0.000518696 0.0373361
v -0.143585 0.000400796 0.0362033
v -0.145913 0.00132029 0.0350705
v -0.14231 0.000310298 0.0336969
v -0.149497 0.00253891 0.0365175
v -0.148217 0.00250044 0.0340294
v -0.144637 0.00124287 0.0325687
v -0.146937 0.00246197 0.0315412
v -0.143356 0.00121077 0.030083
v -0.145604 0.00263992 0.0291358
v -0.147852 0.00406907 0.0281886
v -0.148758 0.00570779 0.0248481
v -0.149159 0.00389596 0.0305897
v -0.151201 0.00554152 0.0296884
v -0.149999 0.00560417 0.0272639
v -0.144281 0.00275763 0.0266722
v -0.146516 0.00425162 0.0257746
v -0.145112 0.00483205 0.0233751
v -0.139594 0.000738447 0.0287994
v -0.142865 0.00340202 0.0242913
v -0.155324 0.00643439 0.0398261
v -0.150664 0.00269391 0.0390383
v -0.152434 0.00446203 0.0381649
v -0.154204 0.00623015 0.0372915
v -0.151314 0.0042578 0.0356302
v -0.141985 0.00152634 0.0276636
v -0.13484 -0.000531592 0.0311262
v -0.133425 0.000267257 0.0287252
v -0.13724 -0.000142317 0.0298748
v -0.135823 0.000697899 0.0274818
v -0.138176 0.00150785 0.0263777
v -0.140483 0.00258661 0.0254082
v -0.147329 0.00639185 0.0225906
v -0.153146 0.00729451 0.0288253
v -0.151937 0.00736527 0.0264037
v -0.153228 0.00596074 0.0347418
v -0.150214 0.00404479 0.0330936
v -0.152258 0.0056885 0.0321916
v -0.153776 0.0167754 0.0196856
v -0.161046 0.0340762 0.0447534
v -0.152522 0.013259 0.0211124
v -0.153131 0.01494 0.0204258
v -0.150556 0.0142704 0.0193967
v -0.151165 0.0159513 0.0187101
v -0.151774 0.0176323 0.0180236
v -0.161208 0.0335294 0.047527
v -0.162928 0.0315993 0.0469402
v -0.152491 0.0251215 0.0177279
v -0.148254 0.0319978 0.0179207
v -0.150526 0.0287822 0.0177431
v -0.150296 0.026325 0.0168184
v -0.151076 0.033476 0.0197028
v -0.148503 0.0344072 0.0188693
v -0.150795 0.0311435 0.0187157
v -0.148844 0.0382227 0.0222047
v -0.151275 0.0354943 0.0211934
v -0.148706 0.0364388 0.0203386
v -0.14652 0.0427016 0.0251898
v -0.143746 0.0434265 0.0250434
v -0.146368 0.0409031 0.0233708
v -0.143594 0.0416279 0.0232244
v -0.146216 0.0391046 0.0215518
v -0.146065 0.0373061 0.0197327
v -0.140802 0.0422066 0.02314
v -0.143436 0.0397733 0.0214292
v -0.143227 0.037506 0.0198092
v -0.143018 0.0352387 0.0181893
v -0.140595 0.0399554 0.0214825
v -0.138024 0.0422571 0.0233588
v -0.135297 0.0421507 0.0238149
v -0.130771 0.0452386 0.029166
v -0.135632 0.0440877 0.0257921
v -0.132917 0.0439564 0.0262693
v -0.128761 0.0463549 0.0321131
v -0.133557 0.0452828 0.0287152
v -0.138354 0.0442108 0.0253174
v -0.126406 0.0456335 0.0333423
v -0.125795 0.0442033 0.0311923
v -0.123576 0.0432727 0.032655
v -0.120745 0.0409119 0.0319678
v -0.117915 0.038551 0.0312805
v -0.121112 0.0427456 0.0337791
v -0.11833 0.0403042 0.0331595
v -0.115549 0.0378628 0.0325399
v -0.125261 0.0423842 0.0291515
v -0.122987 0.0417316 0.0305362
v -0.122464 0.0398586 0.0285106
v -0.120189 0.039206 0.0298952
v -0.121941 0.0379855 0.026485
v -0.119666 0.0373329 0.0278696
v -0.117392 0.0366804 0.0292542
v -0.115117 0.0360279 0.0306389
v -0.119256 0.0352629 0.026128
v -0.117015 0.0345521 0.0275965
v -0.114773 0.0338414 0.0290651
v -0.112679 0.0331042 0.0307353
v -0.114724 0.0313783 0.0280591
v -0.112737 0.0306218 0.0298764
v -0.114783 0.0288959 0.0272002
v -0.112795 0.0281395 0.0290175
v -0.112853 0.0256572 0.0281586
v -0.111552 0.0250674 0.0306388
v -0.112917 0.0231762 0.0273054
v -0.111627 0.0225893 0.0297965
v -0.111702 0.0201111 0.0289542
v -0.11111 0.0299956 0.0320345
v -0.111427 0.0275408 0.031432
v -0.159046 0.0371358 0.0398165
v -0.1132 0.0206001 0.0268109
v -0.113849 0.0178518 0.0269279
v -0.112317 0.0173853 0.029024
v -0.116026 0.0155942 0.0249759
v -0.11448 0.015289 0.027253
v -0.118683 0.0134902 0.02363
v -0.116685 0.0131919 0.0255177
v -0.120687 0.0137824 0.0217922
v -0.123619 0.011624 0.0210675
v -0.121613 0.0113336 0.0228898
v -0.119608 0.0110431 0.0247122
v -0.124545 0.00917514 0.0221651
v -0.122777 0.0140645 0.0201111
v -0.130742 0.0123851 0.0174702
v -0.128354 0.0121327 0.0186462
v -0.125966 0.0118804 0.0198222
v -0.129156 0.00969629 0.0195334
v -0.126768 0.00944396 0.0207094
v -0.136671 0.0107988 0.0168286
v -0.134117 0.0103832 0.0176155
v -0.131563 0.00996759 0.0184025
v -0.115516 0.0183028 0.0249327
v -0.117972 0.0159822 0.0231501
v -0.119483 0.0220101 0.0217672
v -0.117343 0.0215313 0.0234128
v -0.115203 0.0210526 0.0250585
v -0.1198 0.0191914 0.0216258
v -0.11766 0.0187127 0.0232715
v -0.120117 0.0163727 0.0214845
v -0.12166 0.0224858 0.0201884
v -0.121996 0.0196654 0.0200836
v -0.124075 0.022891 0.0189687
v -0.126816 0.0204471 0.017571
v -0.124406 0.0200577 0.018831
v -0.124738 0.0172245 0.0186934
v -0.122328 0.0168351 0.0199534
v -0.127176 0.0175996 0.0175312
v -0.127628 0.0147057 0.0178083
v -0.125167 0.0143419 0.0188932
v -0.129639 0.0179643 0.0164741
v -0.135085 0.0158298 0.0154971
v -0.132591 0.0154514 0.0161611
v -0.130097 0.015073 0.0168251
v -0.135642 0.0130573 0.015779
v -0.13315 0.0126819 0.0164412
v -0.131814 0.0212931 0.015509
v -0.134739 0.0187686 0.0151862
v -0.132142 0.0183464 0.0158133
v -0.136999 0.0247447 0.0146044
v -0.137244 0.0218864 0.0147385
v -0.13442 0.0217063 0.0148992
v -0.137489 0.019028 0.0148726
v -0.137733 0.0161696 0.0150067
v -0.139803 0.0249287 0.014466
v -0.142497 0.0223223 0.0148456
v -0.139964 0.0220865 0.014691
v -0.145191 0.0197159 0.0152252
v -0.142658 0.01948 0.0150706
v -0.140125 0.0192442 0.014916
v -0.140285 0.0164019 0.015141
v -0.145786 0.01741 0.0157079
v -0.142982 0.0168401 0.0153928
v -0.138398 0.0135874 0.0159489
v -0.143927 0.0147276 0.0161958
v -0.141181 0.0141545 0.0161568
v -0.13936 0.0113248 0.0166204
v -0.142567 0.0275949 0.015325
v -0.14243 0.0249637 0.0146994
v -0.137236 0.032761 0.0176439
v -0.139913 0.0302001 0.0162521
v -0.137124 0.0301795 0.0164961
v -0.139801 0.0276186 0.0151043
v -0.131798 0.0352592 0.0193441
v -0.134458 0.0327238 0.0179134
v -0.124122 0.0364238 0.0236116
v -0.129171 0.0348812 0.0202082
v -0.129869 0.0417625 0.0250129
v -0.129596 0.0395467 0.0233021
v -0.126988 0.0391081 0.0242913
v -0.129324 0.037331 0.0215912
v -0.126715 0.0368923 0.0225805
v -0.126581 0.0344732 0.0212064
v -0.129086 0.032312 0.0190819
v -0.131643 0.0298436 0.0173243
v -0.129043 0.0295303 0.0182291
v -0.1316 0.0270619 0.0164714
v -0.140195 0.0352899 0.0184244
v -0.137379 0.0353031 0.0187253
v -0.134564 0.0353163 0.0190263
v -0.14005 0.0327492 0.0173454
v -0.145138 0.027275 0.0156956
v -0.145082 0.0247628 0.015163
v -0.147687 0.0244785 0.0157139
v -0.145105 0.0223395 0.015006
v -0.131724 0.032597 0.0183012
v -0.134383 0.030053 0.0168756
v -0.137042 0.0275091 0.0154501
v -0.134298 0.0273026 0.0158856
v -0.134213 0.0245521 0.0148957
v -0.131562 0.0242105 0.0156313
v -0.129044 0.0237577 0.0167057
v -0.126526 0.0233048 0.0177801
v -0.129258 0.0208552 0.0163656
v -0.121546 0.0359055 0.0247083
v -0.12407 0.0336414 0.0227258
v -0.123988 0.0310035 0.0215761
v -0.126513 0.0287394 0.0195937
v -0.123907 0.0283655 0.0204264
v -0.129037 0.0264754 0.0176112
v -0.126431 0.0261015 0.018444
v -0.123825 0.0257276 0.0192768
v -0.116908 0.0294377 0.0254993
v -0.119176 0.0273655 0.0230108
v -0.117031 0.0268533 0.0246957
v -0.114887 0.0263412 0.0263806
v -0.121444 0.0252932 0.0205223
v -0.119299 0.0247811 0.0222072
v -0.117155 0.0242689 0.0238921
v -0.115011 0.0237568 0.025577
v -0.121493 0.0332451 0.0236163
v -0.119174 0.0326503 0.0250169
v -0.116855 0.0320554 0.0264176
v -0.121446 0.0305802 0.0225358
v -0.119127 0.0299854 0.0239365
v -0.1214 0.0279153 0.0214554
v -0.131519 0.0462683 0.0317431
v -0.141569 0.044493 0.027978
v -0.138922 0.0448034 0.0281906
v -0.136275 0.0451137 0.0284033
v -0.141031 0.0439591 0.0250635
v -0.128125 0.0449168 0.0298654
v -0.130234 0.0437344 0.0268522
v -0.127717 0.043056 0.0279677
v -0.127309 0.0411952 0.0260699
v -0.124792 0.0405168 0.0271854
v -0.124384 0.038656 0.0252876
f 310 57 59 1
f 59 4 2 1
f 4 3 5 2
f 7 8 5 3
f 4 50 44 3
f 44 46 7 3
f 59 58 50 4
f 8 9 6 5
f 10 11 8 7
f 46 20 10 7
f 11 12 9 8
f 158 13 14 15
f 153 154 17 150
f 14 13 141 15
f 17 131 130 150
f 22 21 23 16
f 23 139 18 16
f 139 27 250 18
f 46 45 136 20
f 22 136 137 21
f 137 138 135 21
f 135 25 23 21
f 25 27 139 23
f 26 27 25 24
f 25 135 140 24
f 140 36 37 24
f 37 29 26 24
f 28 250 27 26
f 29 30 28 26
f 241 247 30 29
f 32 37 36 31
f 36 35 34 31
f 35 38 41 33
f 91 90 92 33
f 92 34 35 33
f 36 140 38 35
f 140 135 138 38
f 138 42 41 38
f 43 45 40 39
f 40 49 48 39
f 48 47 51 39
f 51 42 43 39
f 45 46 44 40
f 44 50 49 40
f 42 51 81 41
f 138 137 43 42
f 137 136 45 43
f 48 52 76 47
f 76 79 80 47
f 80 81 51 47
f 49 53 52 48
f 50 58 53 49
f 53 54 64 52
f 64 75 76 52
f 58 56 54 53
f 56 72 55 54
f 55 63 64 54
f 72 71 70 55
f 70 68 63 55
f 58 59 57 56
f 57 167 72 56
f 310 143 167 57
f 77 73 61 60
f 85 86 77 60
f 73 62 67 61
f 75 64 63 62
f 63 68 67 62
f 73 74 75 62
f 67 68 66 65
f 68 70 69 66
f 70 71 249 69
f 72 167 242 71
f 242 248 249 71
f 77 78 74 73
f 79 76 75 74
f 78 83 79 74
f 86 82 78 77
f 83 84 80 79
f 99 102 88 87
f 102 105 89 88
f 105 93 90 89
f 93 94 92 90
f 105 104 106 93
f 106 107 94 93
f 98 99 96 95
f 108 97 98 95
f 100 101 98 97
f 111 112 100 97
f 101 102 99 98
f 103 104 101 100
f 112 113 103 100
f 104 105 102 101
f 115 106 104 103
f 113 114 115 103
f 115 117 107 106
f 117 118 119 107
f 190 223 110 109
f 223 112 111 110
f 223 226 113 112
f 226 238 114 113
f 116 117 115 114
f 238 240 116 114
f 236 118 117 116
f 240 216 236 116
f 121 120 119 118
f 236 237 121 118
f 121 123 124 120
f 237 122 123 121
f 125 126 123 122
f 237 217 214 122
f 214 235 125 122
f 131 127 126 125
f 235 130 131 125
f 131 17 128 127
f 149 150 130 129
f 130 235 220 129
f 220 222 170 129
f 170 148 149 129
f 18 19 132 16
f 22 16 132 133
f 20 136 22 133
f 242 167 143 142
f 248 242 142 134
f 151 145 155 156
f 159 162 163 164
f 160 159 164 165
f 433 434 431 430
f 148 170 169 147
f 169 168 172 147
f 152 153 150 149
f 428 429 425 424
f 435 426 427 423
f 169 234 233 168
f 233 232 171 168
f 171 173 172 168
f 170 222 234 169
f 232 230 174 171
f 174 176 173 171
f 230 229 178 175
f 181 180 183 177
f 229 193 181 178
f 180 192 191 179
f 191 199 184 179
f 182 183 180 179
f 181 193 192 180
f 199 200 186 185
f 200 201 197 186
f 197 198 188 187
f 198 224 189 188
f 224 225 190 189
f 225 226 223 190
f 192 194 203 191
f 203 200 199 191
f 193 195 194 192
f 229 231 195 193
f 195 196 206 194
f 206 204 203 194
f 231 221 196 195
f 221 228 211 196
f 211 209 206 196
f 201 202 198 197
f 202 207 224 198
f 203 204 201 200
f 204 205 202 201
f 205 208 207 202
f 206 209 205 204
f 209 210 208 205
f 208 239 227 207
f 227 225 224 207
f 210 215 239 208
f 211 212 210 209
f 212 213 215 210
f 228 218 212 211
f 218 219 213 212
f 219 214 217 213
f 217 216 215 213
f 219 220 235 214
f 216 240 239 215
f 217 237 236 216
f 222 220 219 218
f 228 234 222 218
f 233 234 228 221
f 231 232 233 221
f 227 238 226 225
f 239 240 238 227
f 230 232 231 229
f 244 246 247 241
f 245 246 244 243
f 146 145 151 251
f 151 157 255 251
f 255 254 256 251
f 256 252 146 251
f 253 144 146 252
f 255 259 258 254
f 157 265 259 255
f 259 265 264 257
f 262 263 261 260
f 263 266 440 261
f 264 267 263 262
f 267 270 266 263
f 265 268 267 264
f 157 269 268 265
f 270 165 271 266
f 271 278 440 266
f 268 161 270 267
f 269 397 161 268
f 156 400 397 269
f 157 151 156 269
f 161 160 165 270
f 165 164 272 271
f 272 274 278 271
f 164 163 166 272
f 166 275 274 272
f 442 443 441 273
f 441 276 436 273
f 277 275 442 273
f 275 277 439 274
f 439 438 278 274
f 166 387 442 275
f 441 280 279 276
f 438 437 440 278
f 287 288 281 280
f 441 443 287 280
f 288 282 284 281
f 290 283 285 282
f 288 289 290 282
f 293 294 286 283
f 290 292 293 283
f 445 289 288 287
f 443 444 445 287
f 291 292 290 289
f 445 446 291 289
f 295 296 293 292
f 296 297 294 293
f 431 432 296 295
f 414 430 431 295
f 432 299 297 296
f 299 300 298 297
f 301 302 300 299
f 432 422 301 299
f 302 309 308 300
f 425 303 302 301
f 422 424 425 301
f 303 304 309 302
f 305 306 304 303
f 425 429 305 303
f 311 307 306 305
f 429 336 311 305
f 311 312 313 307
f 336 332 312 311
f 332 314 315 312
f 332 338 333 314
f 333 316 317 314
f 333 339 318 316
f 318 320 321 316
f 339 346 323 318
f 323 319 320 318
f 323 349 326 319
f 326 328 322 319
f 346 345 349 323
f 331 327 325 324
f 325 348 353 324
f 353 352 355 324
f 355 330 331 324
f 327 328 326 325
f 326 349 348 325
f 330 355 354 329
f 354 373 376 329
f 336 335 338 332
f 338 337 339 333
f 337 338 335 334
f 335 428 427 334
f 427 426 340 334
f 340 341 337 334
f 336 429 428 335
f 341 346 339 337
f 426 421 342 340
f 342 344 341 340
f 344 345 346 341
f 421 420 412 342
f 412 343 344 342
f 347 345 344 343
f 412 411 413 343
f 413 350 347 343
f 347 348 349 345
f 350 353 348 347
f 413 356 358 350
f 358 352 353 350
f 354 355 352 351
f 352 358 357 351
f 357 362 363 351
f 363 373 354 351
f 413 411 410 356
f 361 357 358 356
f 361 360 362 357
f 360 361 409 359
f 409 408 407 359
f 407 382 364 359
f 364 366 360 359
f 366 369 362 360
f 369 370 363 362
f 370 375 373 363
f 382 377 378 364
f 378 365 366 364
f 368 369 366 365
f 378 402 404 365
f 404 367 368 365
f 371 372 368 367
f 372 370 369 368
f 372 374 375 370
f 382 380 155 377
f 155 145 401 377
f 401 402 378 377
f 381 406 384 379
f 384 399 398 379
f 398 397 400 379
f 400 380 381 379
f 382 407 381 380
f 400 156 155 380
f 407 408 406 381
f 405 393 386 383
f 386 390 162 383
f 162 159 399 383
f 399 384 405 383
f 406 394 405 384
f 446 389 391 385
f 392 391 390 386
f 388 389 444 387
f 444 443 442 387
f 166 163 388 387
f 390 391 389 388
f 163 162 390 388
f 446 445 444 389
f 405 394 395 393
f 406 408 396 394
f 398 160 161 397
f 399 159 160 398
f 145 146 144 401
f 144 403 402 401
f 412 420 419 411
f 416 433 430 415
f 418 435 433 416
f 420 421 418 417
f 421 426 435 418
f 432 431 434 422
f 434 423 424 422
f 427 428 424 423
f 434 433 435 423
