# https://github.com/mikedh/trimesh
v 0.30160820 0.43516341 -0.25084894
v 0.30601689 0.42575132 -0.25851467
v 0.30110401 0.42399701 -0.26159900
v 0.29300500 0.42562549 -0.26181250
v 0.28711763 0.43653491 -0.25209766
v 0.29700523 0.44051174 -0.24581094
v 0.28293062 0.43161460 -0.25723224
v 0.28375951 0.42809550 -0.26044449
v 0.27832800 0.43524200 -0.25345501
v 0.29296315 0.44184879 -0.24521190
v 0.30398071 0.44249507 -0.24080521
v 0.27837513 0.44329841 -0.24426271
v 0.27585863 0.44044818 -0.24758390
v 0.27840000 0.42714199 -0.26137999
v 0.26849232 0.43620304 -0.25155698
v 0.27072549 0.42776550 -0.26026700
v 0.28831541 0.44688180 -0.23846629
v 0.26281539 0.43564936 -0.25117702
v 0.26017475 0.42541000 -0.26062275
v 0.26960867 0.44216798 -0.24493667
v 0.28355903 0.44885083 -0.23569731
v 0.29240672 0.44754546 -0.23676415
v 0.26980374 0.44618559 -0.23929374
v 0.25446302 0.44142922 -0.24208034
v 0.24974174 0.43165555 -0.25200662
v 0.25971092 0.45029935 -0.23102664
v 0.29046612 0.45213758 -0.22899623
v 0.27642042 0.45110488 -0.23196891
v 0.28338838 0.45210825 -0.22982929
v 0.26755426 0.43058317 -0.25748884
v 0.27080361 0.45201193 -0.23003018
v 0.25832396 0.44776203 -0.23487097
v 0.24781257 0.43585890 -0.24637736
v 0.24820325 0.42682401 -0.25604075
v 0.24163355 0.43067647 -0.24970131
v 0.24486052 0.44259116 -0.23691505
v 0.26595136 0.45567531 -0.22230092
v 0.24188586 0.44384196 -0.23342015
v 0.25665482 0.45500323 -0.22137288
v 0.26983605 0.45619254 -0.22143918
v 0.24762850 0.44840076 -0.22957693
v 0.25160532 0.45511676 -0.21955516
v 0.24627668 0.46182322 -0.20193279
v 0.24312553 0.45243236 -0.21999594
v 0.29496125 0.45036097 -0.23145370
v 0.29962799 0.44998300 -0.23037200
v 0.27823764 0.45606621 -0.22159517
v 0.24046211 0.45125998 -0.22034437
v 0.25395735 0.46372639 -0.19887374
v 0.26749279 0.45760299 -0.21821463
v 0.29424649 0.45344147 -0.22484125
v 0.23351985 0.44320367 -0.22898785
v 0.23691188 0.43919542 -0.23682378
v 0.26070469 0.46137038 -0.20701802
v 0.23680600 0.42480600 -0.25336200
v 0.24430469 0.45838929 -0.20890072
v 0.22893400 0.42881200 -0.24472350
v 0.22878314 0.43229243 -0.24069406
v 0.22172599 0.42924200 -0.23909451
v 0.24224423 0.45917402 -0.20482976
v 0.24379934 0.46217912 -0.19829895
v 0.25618415 0.46566854 -0.19191950
v 0.25177341 0.46495633 -0.19437878
v 0.28930831 0.45600091 -0.21953551
v 0.30174952 0.44813898 -0.23311180
v 0.27918090 0.45968985 -0.21029960
v 0.29644501 0.45469800 -0.21658599
v 0.23663359 0.45243037 -0.21459543
v 0.23150128 0.44555535 -0.22294001
v 0.30569360 0.44632627 -0.23416156
v 0.21781511 0.43426139 -0.22764996
v 0.21417900 0.42933713 -0.23093213
v 0.22506370 0.43869516 -0.22854550
v 0.26085600 0.46570749 -0.18769450
v 0.22008587 0.43247011 -0.23330008
v 0.21763730 0.43602156 -0.22440995
v 0.26261100 0.46521300 -0.19077100
v 0.27687201 0.46086100 -0.20548201
v 0.25160731 0.46588625 -0.18998818
v 0.29072800 0.45652899 -0.21634600
v 0.23313572 0.45315986 -0.20822661
v 0.22403133 0.44378321 -0.21700399
v 0.25638801 0.46622699 -0.18731301
v 0.30810851 0.43883001 -0.24304801
v 0.29897102 0.45252261 -0.22473438
v 0.30710801 0.44447699 -0.23595700
v 0.30748578 0.43279969 -0.25110775
v 0.24168500 0.46108449 -0.19562000
v 0.31065300 0.41766301 -0.26355100
v 0.24494800 0.46331701 -0.19100150
v 0.31023899 0.44308800 -0.22995500
v 0.23453051 0.45573951 -0.20148200
v 0.21630575 0.43719612 -0.21673762
v 0.20483500 0.42226800 -0.22933900
v 0.31006601 0.43369001 -0.24802500
v 0.22136900 0.44261500 -0.21424299
v 0.31177050 0.43000400 -0.25099100
v 0.31175199 0.42698401 -0.25441900
v 0.31813950 0.41184775 -0.26394575
v 0.31447801 0.42234799 -0.25715801
v 0.31646600 0.41786000 -0.26003700
v 0.29783300 0.45367700 -0.22111000
v 0.14470975 0.31337015 -0.15530945
v 0.15126800 0.30393375 -0.14262675
v 0.14093009 0.31895196 -0.16623766
v 0.13540776 0.32563494 -0.18309004
v 0.13412701 0.32835299 -0.19461399
v 0.13862132 0.32151252 -0.17175878
v 0.14778875 0.31025725 -0.15104463
v 0.20203724 0.36875802 -0.13064844
v 0.20452601 0.37604901 -0.13352500
v 0.20549250 0.37863599 -0.13447700
v 0.21879408 0.42905953 -0.16810584
v 0.20946197 0.43250638 -0.21150034
v 0.22079475 0.44304880 -0.21101952
v 0.21739789 0.44076893 -0.20320423
v 0.21610343 0.43951890 -0.20924919
v 0.19693832 0.41780459 -0.21776737
v 0.19665230 0.41801412 -0.21397499
v 0.20173313 0.42419914 -0.20846901
v 0.18792877 0.40540954 -0.22301120
v 0.18303150 0.39844951 -0.22471650
v 0.19816881 0.41790580 -0.22291622
v 0.18511429 0.40238204 -0.21852389
v 0.20853208 0.43201329 -0.20480836
v 0.19668919 0.41800529 -0.20780098
v 0.15954100 0.36483100 -0.22672801
v 0.17759963 0.39170327 -0.21829312
v 0.15801722 0.36269497 -0.21931205
v 0.20792637 0.43054623 -0.19992985
v 0.15203297 0.35349703 -0.21459888
v 0.19058539 0.40966094 -0.20764530
v 0.14591526 0.34455900 -0.21114250
v 0.16650181 0.37455452 -0.21209208
v 0.14162800 0.33861399 -0.20876600
v 0.18251775 0.39851423 -0.21043444
v 0.16988548 0.37848148 -0.20752649
v 0.20351071 0.42494267 -0.19827594
v 0.15131017 0.34969315 -0.20240517
v 0.18195992 0.39493197 -0.20139443
v 0.13884050 0.33457651 -0.20458550
v 0.15987437 0.36181244 -0.20263128
v 0.17541524 0.38364098 -0.19907785
v 0.20767941 0.42850317 -0.19377599
v 0.21379512 0.43600249 -0.19448733
v 0.20350148 0.42330048 -0.19410860
v 0.13934624 0.33335896 -0.19850671
v 0.14864438 0.34398456 -0.19631178
v 0.16109214 0.35866260 -0.19215465
v 0.20343194 0.42029338 -0.18791868
v 0.15347444 0.34520479 -0.18561024
v 0.19487011 0.41330416 -0.19846205
v 0.18512571 0.39605614 -0.19421490
v 0.13894996 0.32954122 -0.18903020
v 0.16311832 0.36368759 -0.19632020
v 0.21688219 0.43698609 -0.18754321
v 0.22434805 0.44246982 -0.18192672
v 0.21627671 0.42626126 -0.16875576
v 0.18886612 0.37844249 -0.16287128
v 0.18111127 0.36404147 -0.16010725
v 0.18718971 0.36348094 -0.14286854
v 0.18331899 0.37483957 -0.17101833
v 0.18894586 0.38430352 -0.17121333
v 0.17557995 0.36398681 -0.17183645
v 0.17808266 0.37800249 -0.18499572
v 0.18244262 0.39174029 -0.19360963
v 0.19815188 0.40064832 -0.17226813
v 0.19199027 0.37346451 -0.14482682
v 0.20732090 0.40427604 -0.15127829
v 0.20864773 0.41281210 -0.16378327
v 0.21373075 0.41902532 -0.16069350
v 0.20792604 0.41400494 -0.16762806
v 0.20571700 0.40840399 -0.16413601
v 0.16975774 0.37058705 -0.19176839
v 0.14399365 0.33415731 -0.18671811
v 0.17196540 0.36863609 -0.18473256
v 0.16468806 0.35895965 -0.18484474
v 0.15489590 0.34091129 -0.17606263
v 0.14889000 0.33327100 -0.17524400
v 0.15176101 0.32813840 -0.16358834
v 0.16773626 0.34227446 -0.15610479
v 0.19967717 0.38584219 -0.14284131
v 0.16889824 0.33929899 -0.15048770
v 0.22342017 0.44442693 -0.18856003
v 0.18882949 0.36351004 -0.13921992
v 0.17629722 0.34726468 -0.14588466
v 0.20620467 0.40061507 -0.14846308
v 0.17659466 0.34081479 -0.13827568
v 0.16997024 0.33160700 -0.14077576
v 0.18400450 0.34675201 -0.13129351
v 0.19396600 0.36273500 -0.13023999
v 0.19168200 0.36070600 -0.13141400
v 0.16487391 0.33108108 -0.14792254
v 0.15860100 0.32975799 -0.15539099
v 0.22899357 0.44761616 -0.18321345
v 0.22663711 0.44878542 -0.19270402
v 0.23406876 0.45478271 -0.18958678
v 0.16374200 0.32524100 -0.14412000
v 0.23027827 0.44651263 -0.17886875
v 0.23625050 0.45542501 -0.18704950
v 0.23237829 0.45458701 -0.19604119
v 0.22969900 0.44351599 -0.17514500
v 0.20366651 0.42538892 -0.21855864
v 0.19645300 0.41497651 -0.22537800
v 0.20283200 0.42058200 -0.22873500
v 0.20504799 0.38420600 -0.13708100
v 0.19673002 0.36785753 -0.13134264
v 0.20864999 0.40136501 -0.14664499
v 0.20584286 0.39656021 -0.14445097
v 0.19473443 0.36868045 -0.13357764
v 0.19913099 0.38004207 -0.13755530
v 0.19281350 0.35518850 -0.12683901
v 0.21439118 0.41736593 -0.15738809
v 0.21763401 0.41959399 -0.15756600
v 0.32421650 0.40344300 -0.26084100
v 0.32270101 0.40925199 -0.26038000
v 0.32127517 0.41209301 -0.26072298
v 0.32077399 0.41471899 -0.25623101
v 0.32211274 0.40828825 -0.26309100
v 0.31496613 0.42669807 -0.25133365
v 0.31429509 0.42575988 -0.25386684
v 0.31336576 0.43120974 -0.24695001
v 0.30963901 0.44257799 -0.23580000
v 0.30880833 0.44105816 -0.23945131
v 0.20609325 0.25425438 -0.09454225
v 0.18684081 0.24076233 -0.10255596
v 0.19543488 0.24702812 -0.09927337
v 0.19925050 0.24965575 -0.09747675
v 0.19691400 0.35873025 -0.12745475
v 0.20073887 0.35538919 -0.12476062
v 0.19830599 0.34027901 -0.11978100
v 0.19649949 0.31974850 -0.11346200
v 0.20399202 0.37471687 -0.12408873
v 0.21712284 0.41569693 -0.14428853
v 0.21318799 0.40525800 -0.13816300
v 0.19735550 0.32784150 -0.10802350
v 0.20957650 0.39375050 -0.13108175
v 0.20053675 0.35642800 -0.11661763
v 0.19566201 0.30571401 -0.10904600
v 0.22500899 0.43138501 -0.15018700
v 0.23337050 0.44434550 -0.16564025
v 0.22690900 0.43479601 -0.15343100
v 0.22382714 0.37789777 -0.13868214
v 0.22269438 0.37343177 -0.13645436
v 0.29482775 0.31812399 -0.26308925
v 0.22540551 0.39284100 -0.14421099
v 0.29348924 0.35076695 -0.26209478
v 0.29414482 0.34480021 -0.26319175
v 0.28277715 0.39089089 -0.24381561
v 0.29085210 0.36546258 -0.25793660
v 0.22663787 0.39791900 -0.14750351
v 0.29186808 0.36146243 -0.25950924
v 0.27072813 0.40984963 -0.22715012
v 0.29056145 0.36826979 -0.25722717
v 0.22876425 0.40482600 -0.15377675
v 0.26652941 0.41377685 -0.22163327
v 0.26258391 0.41678579 -0.21586844
v 0.25776832 0.41852831 -0.20756128
v 0.25636187 0.42001305 -0.20568287
v 0.23218461 0.41140613 -0.16263504
v 0.23368175 0.41402651 -0.16587700
v 0.23496821 0.41489852 -0.16890795
v 0.24046461 0.41888673 -0.17915483
v 0.23719200 0.41720575 -0.17280525
v 0.29431000 0.31493399 -0.26260099
v 0.24947184 0.42116789 -0.19475845
v 0.24406475 0.42274625 -0.17276926
v 0.29512555 0.32629178 -0.26434886
v 0.29348206 0.35357765 -0.26173180
v 0.28940756 0.37328197 -0.25499931
v 0.29841686 0.37083413 -0.25616421
v 0.29856217 0.34564981 -0.26308599
v 0.29558255 0.37717553 -0.25345426
v 0.29842154 0.36117507 -0.25926075
v 0.30111301 0.35779601 -0.26051900
v 0.30214000 0.34839499 -0.26265001
v 0.30110401 0.33371900 -0.26389100
v 0.28524676 0.38595204 -0.24847432
v 0.28829045 0.37873071 -0.25271181
v 0.28699027 0.39638000 -0.24148190
v 0.30163331 0.36476781 -0.25904206
v 0.29416299 0.38465335 -0.24959809
v 0.28211147 0.39387766 -0.24333864
v 0.31018301 0.38042302 -0.25919037
v 0.31705574 0.39725887 -0.25655308
v 0.31933204 0.39060201 -0.26018136
v 0.32185099 0.38399899 -0.26326799
v 0.31263866 0.39370307 -0.25615366
v 0.32225898 0.39024947 -0.26191948
v 0.28653552 0.39916159 -0.23995506
v 0.27938324 0.40961720 -0.22986064
v 0.30038500 0.42545399 -0.23323201
v 0.32594350 0.38265300 -0.26668051
v 0.31616220 0.41381387 -0.24906529
v 0.31211417 0.42439462 -0.24136032
v 0.28330032 0.41869102 -0.22675994
v 0.30500139 0.42879316 -0.23412271
v 0.28123469 0.42923524 -0.21707218
v 0.30547659 0.43608873 -0.22908888
v 0.27271421 0.41665005 -0.22024684
v 0.28376931 0.44396425 -0.20514748
v 0.29791272 0.44612267 -0.21562654
v 0.27515212 0.42748080 -0.21353969
v 0.28900130 0.44846791 -0.20606383
v 0.27480856 0.44068497 -0.19964173
v 0.27862176 0.45239673 -0.19158871
v 0.26783000 0.45088114 -0.17994116
v 0.27672559 0.44732745 -0.19449360
v 0.27084669 0.44815086 -0.18671482
v 0.26059048 0.44804042 -0.17283388
v 0.26550700 0.42400398 -0.20708297
v 0.31041144 0.43317351 -0.23549588
v 0.26088116 0.42442183 -0.20067207
v 0.24475688 0.43639882 -0.15713085
v 0.25552531 0.44273951 -0.16968390
v 0.25622531 0.43300646 -0.18343173
v 0.31791040 0.41645279 -0.24973531
v 0.25168961 0.42565116 -0.18462394
v 0.25001340 0.43494510 -0.16839781
v 0.24558650 0.43351650 -0.16058475
v 0.24712899 0.43103501 -0.16683300
v 0.26694788 0.42036029 -0.21210842
v 0.24771556 0.42442943 -0.17882230
v 0.26371300 0.42001101 -0.21102300
v 0.25650591 0.42470793 -0.19416811
v 0.24572848 0.42163792 -0.18596987
v 0.27726994 0.40199105 -0.23654644
v 0.27987814 0.39878514 -0.23963241
v 0.28069738 0.39608592 -0.24158508
v 0.25474970 0.42059171 -0.20332694
v 0.25282668 0.42089021 -0.20010628
v 0.26052169 0.41840818 -0.21235810
v 0.24767286 0.42117795 -0.19170548
v 0.29972100 0.33060700 -0.26395300
v 0.29153800 0.45652899 -0.20938900
v 0.28477451 0.45844800 -0.19991325
v 0.28640401 0.45833099 -0.20287400
v 0.29064226 0.45496410 -0.20549202
v 0.28182301 0.45929599 -0.19594300
v 0.27626699 0.46020001 -0.18858901
v 0.27951067 0.45733545 -0.19053184
v 0.29359933 0.45190622 -0.20878357
v 0.26933050 0.46109749 -0.18087900
v 0.27240025 0.46174351 -0.18559750
v 0.27103537 0.45833709 -0.18076434
v 0.26402725 0.45872951 -0.17418850
v 0.25407901 0.45138600 -0.16403700
v 0.25675142 0.45105053 -0.16629828
v 0.24176749 0.43433000 -0.15334849
v 0.24326775 0.43983250 -0.15517750
v 0.24309775 0.43413750 -0.15575100
v 0.24111900 0.43790600 -0.15319200
v 0.24776401 0.44602600 -0.15906399
v 0.23789499 0.42842375 -0.14610375
v 0.23797500 0.43217900 -0.14715999
v 0.31203675 0.42992029 -0.23895749
v 0.31584743 0.42284515 -0.24618738
v 0.32503805 0.38853525 -0.26490772
v 0.32714000 0.37924099 -0.26816100
v 0.31418899 0.42856699 -0.24303700
v 0.32662700 0.38596875 -0.26783550
v 0.32517611 0.39840468 -0.26347728
v 0.28011864 0.46087294 -0.20023448
v 0.27631334 0.46159511 -0.19131142
v 0.26932943 0.46389292 -0.19258883
v 0.28278941 0.45947385 -0.20829211
v 0.26047422 0.46536169 -0.18042172
v 0.25544000 0.46581799 -0.18131500
v 0.26622308 0.46466956 -0.18429029
v 0.25863645 0.46465119 -0.17699624
v 0.25019304 0.46533441 -0.18229384
v 0.26081400 0.46199799 -0.17466100
v 0.24971450 0.46024425 -0.17138500
v 0.25274407 0.46404102 -0.17658714
v 0.25279325 0.46167700 -0.17237776
v 0.24810125 0.46253338 -0.17880462
v 0.17542050 0.25972301 -0.10947450
v 0.15503717 0.29747234 -0.13470893
v 0.15938049 0.29092225 -0.12934000
v 0.18355460 0.24940204 -0.10521796
v 0.22228299 0.34132950 -0.11811250
v 0.22320300 0.35041001 -0.12163300
v 0.23217464 0.39942846 -0.13761162
v 0.22490571 0.35391829 -0.12012749
v 0.23076407 0.39212637 -0.13272552
v 0.22987552 0.38722751 -0.13122432
v 0.22049700 0.33300099 -0.11378600
v 0.22635356 0.36664788 -0.12453431
v 0.22389074 0.34319062 -0.11360853
v 0.23575150 0.41285554 -0.14634109
v 0.22910120 0.38247715 -0.12927763
v 0.22482457 0.34933286 -0.11735347
v 0.23211491 0.39963181 -0.13279212
v 0.23829700 0.41949999 -0.15291101
v 0.22939839 0.38551194 -0.12708303
v 0.23440253 0.40786537 -0.13896892
v 0.23318248 0.40654737 -0.13456085
v 0.22467545 0.34836557 -0.11382531
v 0.24042514 0.42721342 -0.15262241
v 0.23735719 0.42034581 -0.14505650
v 0.22076900 0.33563700 -0.11068800
v 0.22618469 0.36880471 -0.11868323
v 0.23440058 0.41172106 -0.13698922
v 0.24245057 0.42184230 -0.16875785
v 0.24137424 0.42258174 -0.16114699
v 0.22379691 0.34655083 -0.11129864
v 0.23287600 0.41198701 -0.13440950
v 0.22806540 0.38538048 -0.12324969
v 0.22645750 0.38263500 -0.12042575
v 0.22314100 0.35481000 -0.11117050
v 0.22189100 0.34585900 -0.10908400
v 0.22741249 0.38890450 -0.12268700
v 0.22231850 0.35049250 -0.10958500
v 0.22358850 0.36426000 -0.11352000
v 0.22986950 0.40090550 -0.12819450
v 0.23085351 0.40351950 -0.12999550
v 0.22967535 0.38976470 -0.13438636
v 0.22958394 0.39312526 -0.13723348
v 0.23203855 0.40467498 -0.14466316
v 0.23374944 0.41149123 -0.15221140
v 0.23792970 0.41784686 -0.15521454
v 0.23175196 0.41026099 -0.15614358
v 0.23664554 0.43892774 -0.15181705
v 0.23532299 0.44042166 -0.15387338
v 0.23384487 0.43601364 -0.14701893
v 0.23163309 0.43451437 -0.14561004
v 0.23585688 0.44245239 -0.15617261
v 0.23844822 0.44091685 -0.15375418
v 0.24574163 0.45439332 -0.16394728
v 0.24885022 0.45586431 -0.16498163
v 0.23814325 0.44755150 -0.16111525
v 0.25002428 0.45868066 -0.16803157
v 0.22647193 0.41696755 -0.13312620
v 0.22268575 0.41374425 -0.13237250
v 0.22202050 0.40412950 -0.12593950
v 0.23078673 0.41866986 -0.13491980
v 0.24875348 0.45073276 -0.16089775
v 0.22021300 0.39537450 -0.12153300
v 0.23133440 0.42230114 -0.13732635
v 0.25950114 0.45977456 -0.17080719
v 0.21904800 0.38633151 -0.11758800
v 0.22087019 0.38418905 -0.11664033
v 0.23456621 0.43083306 -0.14296796
v 0.21502551 0.36638025 -0.10993225
v 0.22933620 0.41003752 -0.13007193
v 0.21515201 0.36963299 -0.11107800
v 0.21230701 0.34829101 -0.10425100
v 0.22217946 0.37748283 -0.11499122
v 0.21901260 0.34488913 -0.10648559
v 0.21497696 0.33304830 -0.10368076
v 0.21768275 0.33438475 -0.10627150
v 0.21302616 0.32716589 -0.10157156
v 0.21170101 0.31631899 -0.09856200
v 0.21012671 0.32032629 -0.09871696
v 0.20856025 0.32996075 -0.10036775
v 0.20788951 0.28932349 -0.09343300
v 0.20798400 0.31449699 -0.09773400
v 0.21181304 0.33122635 -0.10154453
v 0.20844500 0.31723899 -0.09799600
v 0.21196100 0.31351101 -0.09838800
v 0.20945400 0.33669099 -0.10132400
v 0.21703914 0.34698644 -0.10518559
v 0.21430101 0.34647799 -0.10412710
v 0.21661683 0.36022109 -0.10791510
v 0.21954691 0.35132331 -0.10687742
v 0.22082168 0.36098544 -0.10994679
v 0.21256300 0.35365950 -0.10573350
v 0.22338786 0.38551378 -0.11818430
v 0.22465438 0.40027230 -0.12401930
v 0.15757165 0.30019281 -0.13567651
v 0.16022688 0.30330956 -0.13454853
v 0.16873415 0.31704935 -0.13250456
v 0.16379717 0.31451098 -0.13673768
v 0.17916791 0.31744632 -0.12064768
v 0.16788551 0.28968927 -0.12162089
v 0.17992982 0.29829389 -0.11258655
v 0.16923119 0.31006984 -0.12828279
v 0.17517705 0.28433754 -0.11305529
v 0.17900868 0.32835562 -0.12584550
v 0.18364701 0.33916500 -0.12635300
v 0.18676632 0.34148143 -0.12388695
v 0.15778177 0.31420831 -0.14346286
v 0.18893542 0.27391231 -0.09860122
v 0.18874535 0.34875366 -0.12607836
v 0.18388271 0.31040543 -0.11319283
v 0.18389645 0.29544837 -0.10782066
v 0.18530149 0.32508507 -0.11767752
v 0.18713701 0.28056245 -0.10090547
v 0.19095400 0.27746001 -0.09766500
v 0.16993163 0.32577908 -0.13637299
v 0.19116229 0.28158432 -0.09835481
v 0.19695203 0.29495210 -0.10188275
v 0.19469350 0.28529817 -0.09804733
v 0.20124325 0.29623276 -0.09850979
v 0.19824630 0.31503988 -0.10200198
v 0.20222283 0.33669881 -0.10312402
v 0.19985572 0.34522516 -0.10928453
v 0.20400970 0.35110839 -0.10767912
v 0.20240771 0.36255297 -0.11580693
v 0.20154299 0.35048432 -0.10987531
v 0.19912657 0.33419943 -0.10565232
v 0.20904066 0.37796177 -0.11726820
v 0.20336920 0.36709211 -0.11745541
v 0.19920874 0.29779736 -0.09989621
v 0.20775688 0.38079884 -0.12072823
v 0.21413489 0.38245095 -0.11655826
v 0.20083632 0.32472937 -0.10151882
v 0.20337400 0.33337301 -0.10183700
v 0.21630430 0.39831465 -0.12423705
v 0.20718086 0.38412880 -0.12470401
v 0.18996147 0.26443163 -0.09869518
v 0.18896608 0.28694610 -0.10236946
v 0.19788877 0.31998379 -0.10339478
v 0.20322916 0.28432450 -0.09359544
v 0.21139295 0.39293680 -0.12523224
v 0.20611203 0.29730429 -0.09615456
v 0.21823039 0.41250565 -0.13500581
v 0.20953077 0.37354593 -0.11417709
v 0.19716600 0.30513799 -0.10282600
v 0.20743267 0.35292745 -0.10648802
v 0.21004342 0.35802640 -0.10764603
v 0.20808750 0.30188403 -0.09681525
v 0.21543490 0.38994769 -0.11977333
v 0.19758821 0.27471388 -0.09437732
v 0.21473751 0.37474019 -0.11296768
v 0.19799380 0.33478695 -0.10809942
v 0.19517963 0.26320280 -0.09646046
v 0.20521300 0.27118575 -0.09273175
v 0.18782980 0.29166978 -0.10532135
v 0.20567900 0.27655599 -0.09253800
v 0.20555344 0.30476569 -0.09766044
v 0.20705650 0.28526750 -0.09296800
v 0.20495863 0.31814179 -0.09830757
v 0.19507151 0.29900557 -0.10708679
v 0.22477580 0.42961599 -0.14664442
v 0.33356184 0.35808334 -0.27921735
v 0.33223946 0.36650019 -0.27577051
v 0.32446822 0.40131392 -0.26545701
v 0.32577328 0.39086421 -0.27081003
v 0.33311779 0.35193215 -0.28194548
v 0.33409527 0.34778676 -0.28001082
v 0.32984936 0.37453903 -0.27263078
v 0.33285710 0.36000730 -0.27417477
v 0.33364348 0.33431440 -0.28182100
v 0.33391176 0.35027727 -0.27714715
v 0.33337690 0.33805236 -0.27993670
v 0.33535675 0.32649682 -0.28174176
v 0.33182775 0.33463350 -0.27722675
v 0.33247851 0.33150400 -0.27750701
v 0.33793391 0.31612395 -0.27416900
v 0.33200601 0.34080100 -0.27694899
v 0.33734055 0.32212334 -0.27695731
v 0.33763306 0.32091772 -0.27977892
v 0.33853400 0.31875033 -0.27646154
v 0.33403700 0.32656451 -0.27700450
v 0.32376701 0.39392099 -0.27152199
v 0.32280600 0.40327701 -0.26645201
v 0.32870701 0.37442699 -0.27715099
v 0.33074850 0.26907925 -0.26217450
v 0.33310100 0.27667125 -0.26515682
v 0.33453540 0.28509020 -0.26669986
v 0.33177450 0.27465500 -0.26160350
v 0.33587500 0.31216800 -0.27165699
v 0.33394200 0.29267901 -0.26670101
v 0.33267750 0.28508300 -0.26389250
v 0.33488350 0.30532825 -0.27197075
v 0.33387399 0.28957900 -0.26584500
v 0.33631400 0.30595354 -0.27465574
v 0.33631232 0.30150379 -0.27672319
v 0.33569581 0.28973352 -0.27143736
v 0.33435540 0.28879836 -0.27424179
v 0.33484152 0.31006371 -0.28276207
v 0.33102909 0.27050408 -0.26473068
v 0.32758974 0.27739450 -0.27396301
v 0.33125239 0.27766202 -0.27107412
v 0.32902999 0.26709099 -0.26461000
v 0.32977429 0.28095716 -0.27464789
v 0.33197456 0.29089459 -0.27824257
v 0.33493301 0.31954300 -0.28407601
v 0.33669849 0.31752770 -0.28176527
v 0.33292360 0.33228057 -0.28521554
v 0.31582421 0.39886932 -0.27376729
v 0.31498581 0.41031077 -0.26710868
v 0.32015387 0.40600334 -0.26712118
v 0.29214816 0.27355831 -0.24298215
v 0.29752212 0.27517297 -0.24550582
v 0.30651464 0.27876203 -0.24981549
v 0.31009299 0.27800801 -0.24911100
v 0.30766262 0.29394830 -0.25653714
v 0.31301118 0.29637719 -0.26080829
v 0.30975801 0.29969299 -0.25793901
v 0.31608456 0.29842009 -0.26268446
v 0.31916904 0.29970159 -0.26417091
v 0.31945743 0.30588268 -0.26282530
v 0.32791490 0.30457808 -0.26855122
v 0.32717317 0.30893517 -0.26661942
v 0.32610684 0.31384328 -0.26651454
v 0.32266093 0.30996577 -0.26487566
v 0.33353363 0.31488884 -0.26926173
v 0.32438394 0.30266928 -0.26728836
v 0.30236380 0.28693965 -0.25128869
v 0.30213523 0.28337603 -0.25094632
v 0.29380516 0.27904399 -0.24464280
v 0.31497134 0.30374928 -0.26069494
v 0.28480948 0.27418260 -0.24080103
v 0.30553758 0.29707838 -0.25570493
v 0.31038814 0.28813182 -0.25609630
v 0.31140976 0.29179355 -0.25784329
v 0.32218924 0.28187546 -0.25730614
v 0.32996649 0.28157250 -0.26105351
v 0.33049406 0.29007666 -0.26268000
v 0.32007393 0.28877017 -0.25703474
v 0.32857765 0.29475753 -0.26309825
v 0.29998092 0.28107258 -0.24835557
v 0.28306525 0.27123289 -0.23943371
v 0.29652071 0.28313341 -0.24782795
v 0.31176703 0.28378834 -0.25234947
v 0.31210102 0.30561281 -0.26102651
v 0.30697097 0.31483294 -0.26341533
v 0.33143828 0.32605305 -0.27489749
v 0.31527947 0.32533913 -0.26801948
v 0.30285087 0.32618233 -0.26374288
v 0.30899404 0.31222828 -0.26317374
v 0.32852417 0.32462335 -0.27315624
v 0.31527238 0.33237747 -0.26876699
v 0.30773329 0.33311062 -0.26565629
v 0.32401949 0.32178312 -0.27030123
v 0.31433427 0.28546535 -0.25372855
v 0.31878075 0.29097110 -0.25786338
v 0.29346795 0.30558884 -0.26030931
v 0.31810861 0.29556201 -0.26040981
v 0.30547430 0.30527437 -0.26059515
v 0.32485390 0.33258983 -0.27321175
v 0.29303502 0.29995165 -0.25800656
v 0.30302312 0.34077687 -0.26385637
v 0.32941239 0.32819329 -0.27487137
v 0.32475360 0.34002481 -0.27264927
v 0.30450400 0.33667231 -0.26457705
v 0.29083579 0.29134782 -0.25357741
v 0.28918572 0.28690386 -0.25097882
v 0.28804722 0.28346724 -0.24882725
v 0.32542641 0.34521356 -0.27214842
v 0.32866812 0.34340396 -0.27377312
v 0.32446848 0.37541490 -0.26616785
v 0.29129634 0.29638045 -0.25599059
v 0.28504682 0.27822941 -0.24373834
v 0.21259749 0.29775385 -0.09584737
v 0.21189822 0.28668363 -0.09326576
v 0.21285086 0.30598914 -0.09794444
v 0.21407634 0.29182864 -0.09577026
v 0.21492600 0.30010501 -0.09852900
v 0.21396901 0.26590201 -0.09582500
v 0.20999149 0.26582692 -0.09284971
v 0.21074874 0.28333257 -0.09300255
v 0.20803094 0.27140066 -0.09213246
f 456 655 654
f 648 456 654
f 655 456 530
f 654 655 648
f 647 456 648
f 655 530 528
f 648 655 653
f 456 647 649
f 647 648 650
f 530 524 528
f 655 528 225
f 225 653 655
f 649 460 456
f 647 650 651
f 650 648 652
f 528 524 527
f 532 524 530
f 225 528 527
f 460 649 453
f 649 647 651
f 527 524 511
f 532 514 524
f 225 527 228
f 483 511 524
f 511 227 527
f 524 514 489
f 532 522 514
f 228 527 227
f 511 483 380
f 489 483 524
f 511 380 227
f 491 489 514
f 522 516 514
f 483 377 380
f 489 488 483
f 380 226 227
f 491 488 489
f 493 491 514
f 516 493 514
f 522 531 516
f 488 377 483
f 512 488 491
f 493 512 491
f 494 493 516
f 531 504 516
f 522 533 531
f 488 478 377
f 529 488 512
f 493 529 512
f 494 504 493
f 516 504 494
f 533 504 531
f 522 457 533
f 478 475 377
f 486 478 488
f 486 488 529
f 534 529 493
f 507 504 533
f 455 533 457
f 475 379 377
f 478 486 475
f 239 486 529
f 492 534 493
f 534 239 529
f 507 495 504
f 533 508 507
f 508 533 455
f 378 379 475
f 476 475 486
f 232 486 239
f 504 492 493
f 504 534 492
f 495 519 504
f 507 513 495
f 508 496 507
f 461 508 455
f 477 378 475
f 485 475 476
f 486 485 476
f 487 486 232
f 519 534 504
f 495 534 519
f 495 513 534
f 496 513 507
f 508 520 496
f 508 461 467
f 474 477 475
f 487 475 485
f 486 487 485
f 232 231 487
f 513 236 534
f 496 501 513
f 520 498 496
f 467 520 508
f 487 474 475
f 479 477 474
f 231 481 487
f 513 526 236
f 534 236 239
f 496 497 501
f 501 526 513
f 498 497 496
f 520 518 498
f 521 520 467
f 487 479 474
f 490 477 479
f 231 230 481
f 481 479 487
f 497 526 501
f 500 497 498
f 518 500 498
f 525 518 520
f 525 521 467
f 520 521 525
f 490 472 477
f 490 479 480
f 230 484 481
f 480 479 481
f 499 497 500
f 518 499 500
f 506 518 525
f 525 467 446
f 472 473 477
f 490 482 472
f 484 490 480
f 229 484 230
f 481 484 480
f 497 499 238
f 502 499 518
f 506 502 518
f 438 506 525
f 438 525 446
f 482 473 472
f 473 104 477
f 490 198 482
f 484 189 490
f 229 192 484
f 497 238 236
f 503 238 499
f 502 503 499
f 506 523 502
f 523 506 438
f 482 104 473
f 477 104 471
f 189 198 490
f 484 192 189
f 510 238 503
f 502 510 503
f 523 509 502
f 509 523 438
f 104 470 471
f 510 233 238
f 509 515 502
f 435 509 438
f 470 104 378
f 510 237 233
f 515 505 502
f 509 517 515
f 469 435 438
f 434 509 435
f 515 510 505
f 509 434 517
f 517 235 515
f 433 435 469
f 469 438 441
f 515 235 510
f 434 535 517
f 517 535 235
f 445 433 469
f 442 469 441
f 426 535 434
f 535 234 235
f 436 433 445
f 441 444 442
f 469 442 468
f 426 240 535
f 535 240 234
f 439 433 436
f 442 444 464
f 468 442 448
f 469 468 412
f 426 242 240
f 439 443 433
f 436 354 439
f 448 442 464
f 444 447 464
f 468 448 409
f 468 409 412
f 416 469 412
f 426 241 242
f 426 433 443
f 354 436 407
f 443 439 354
f 448 464 466
f 464 447 463
f 448 414 409
f 445 469 416
f 443 425 426
f 407 403 354
f 436 445 407
f 443 354 355
f 448 466 414
f 464 465 466
f 463 447 461
f 465 464 463
f 414 402 409
f 425 424 426
f 443 352 425
f 354 403 400
f 407 397 403
f 415 407 445
f 355 352 443
f 466 413 414
f 466 465 413
f 463 461 458
f 463 462 465
f 409 402 408
f 414 406 402
f 423 424 425
f 428 425 352
f 400 349 354
f 403 390 400
f 403 397 393
f 416 397 407
f 413 465 411
f 458 461 454
f 449 463 458
f 462 463 449
f 449 465 462
f 408 402 395
f 409 408 397
f 402 406 398
f 414 410 406
f 428 424 423
f 437 428 352
f 349 400 399
f 400 390 421
f 403 396 390
f 397 408 393
f 393 396 403
f 416 409 397
f 413 411 406
f 465 449 411
f 452 458 454
f 454 461 459
f 449 458 450
f 402 388 395
f 408 395 393
f 402 398 392
f 398 406 389
f 410 413 406
f 428 427 424
f 437 352 347
f 430 428 437
f 349 399 405
f 399 400 394
f 390 420 421
f 394 400 421
f 396 383 390
f 393 383 396
f 411 401 406
f 449 451 411
f 454 453 452
f 458 452 451
f 454 459 453
f 449 450 451
f 395 388 391
f 402 392 388
f 395 391 393
f 398 389 392
f 406 401 389
f 429 427 428
f 430 437 347
f 430 429 428
f 349 405 320
f 399 421 405
f 399 394 421
f 390 419 420
f 421 420 422
f 390 383 419
f 393 385 383
f 452 453 451
f 391 388 417
f 392 384 388
f 391 386 393
f 392 389 381
f 389 401 387
f 429 431 427
f 440 430 347
f 430 432 429
f 405 321 320
f 405 421 264
f 420 419 255
f 420 255 422
f 422 261 421
f 383 246 419
f 385 417 383
f 393 386 385
f 417 388 243
f 386 391 417
f 384 382 388
f 392 381 384
f 389 387 381
f 429 373 431
f 440 347 346
f 440 432 430
f 432 373 429
f 321 405 267
f 404 405 264
f 421 261 264
f 419 251 255
f 422 255 261
f 418 246 383
f 419 246 251
f 417 418 383
f 385 386 417
f 243 388 244
f 417 243 418
f 381 382 384
f 388 382 244
f 346 347 348
f 343 440 346
f 440 372 432
f 372 373 432
f 405 404 267
f 404 264 263
f 264 261 262
f 261 255 260
f 418 243 246
f 345 346 348
f 347 353 348
f 346 345 343
f 440 343 372
f 404 263 267
f 260 262 261
f 264 262 263
f 348 307 345
f 353 350 348
f 345 340 343
f 344 372 343
f 307 341 345
f 348 310 307
f 348 350 314
f 345 341 340
f 344 370 372
f 307 306 341
f 310 315 307
f 348 315 310
f 314 315 348
f 350 352 314
f 341 339 340
f 344 369 370
f 372 370 375
f 307 309 306
f 341 306 338
f 307 315 313
f 315 314 319
f 352 351 314
f 341 336 339
f 344 364 369
f 370 369 367
f 370 374 375
f 306 309 308
f 309 307 311
f 306 342 338
f 307 313 311
f 315 316 313
f 314 351 319
f 315 319 318
f 336 341 338
f 339 364 344
f 369 364 363
f 369 83 367
f 367 83 370
f 370 371 374
f 308 305 306
f 309 311 308
f 306 304 342
f 338 342 67
f 311 313 258
f 316 325 313
f 315 318 316
f 351 323 319
f 323 318 319
f 338 335 336
f 339 337 364
f 364 337 363
f 363 365 369
f 83 369 74
f 83 368 370
f 368 371 370
f 306 305 304
f 308 311 305
f 302 342 304
f 338 67 335
f 67 342 91
f 311 258 322
f 313 259 258
f 313 325 259
f 318 325 316
f 318 323 325
f 337 366 363
f 363 366 365
f 369 365 74
f 368 83 371
f 304 305 301
f 305 311 301
f 302 304 298
f 342 302 91
f 303 311 322
f 325 330 259
f 337 80 366
f 365 366 74
f 83 79 371
f 301 298 304
f 301 311 303
f 302 298 299
f 91 302 312
f 303 322 300
f 331 330 325
f 337 67 80
f 79 90 371
f 301 303 298
f 298 296 299
f 302 299 312
f 298 303 300
f 300 322 256
f 325 266 331
f 67 337 335
f 376 371 90
f 298 300 296
f 291 299 296
f 299 297 312
f 300 256 253
f 322 257 256
f 325 326 266
f 375 371 376
f 296 300 291
f 292 299 291
f 297 299 292
f 312 297 295
f 291 300 253
f 322 332 257
f 333 266 326
f 323 326 325
f 375 374 371
f 292 291 295
f 297 292 295
f 312 295 356
f 291 253 327
f 324 332 322
f 323 351 326
f 291 290 295
f 356 295 357
f 312 356 360
f 291 327 290
f 258 332 324
f 294 295 290
f 357 295 317
f 356 357 360
f 290 327 328
f 294 290 288
f 295 294 317
f 357 317 218
f 360 357 218
f 280 290 328
f 328 327 329
f 288 290 280
f 294 288 285
f 317 294 215
f 218 317 215
f 328 329 280
f 280 282 288
f 285 288 286
f 294 285 286
f 294 289 215
f 218 215 216
f 280 329 283
f 282 280 278
f 288 282 273
f 286 288 284
f 294 286 289
f 215 289 358
f 217 218 216
f 280 283 249
f 280 249 278
f 282 278 279
f 273 282 279
f 288 273 271
f 286 284 275
f 288 271 284
f 289 286 275
f 215 358 362
f 358 289 293
f 218 217 221
f 273 279 271
f 284 281 275
f 271 281 284
f 289 275 287
f 362 358 293
f 293 289 287
f 221 217 99
f 218 221 220
f 271 279 270
f 281 274 275
f 281 271 274
f 287 275 644
f 217 219 99
f 221 99 100
f 222 218 220
f 224 220 221
f 271 270 254
f 275 274 272
f 271 250 274
f 644 275 642
f 359 287 644
f 219 584 99
f 97 221 100
f 222 220 224
f 224 221 84
f 271 254 250
f 272 274 269
f 250 252 274
f 642 275 638
f 644 642 643
f 359 644 543
f 99 584 583
f 219 557 584
f 221 97 84
f 223 222 224
f 224 84 86
f 269 248 272
f 274 252 269
f 275 635 638
f 638 637 642
f 642 637 643
f 644 643 543
f 542 359 543
f 557 556 584
f 86 223 224
f 86 84 70
f 269 247 248
f 277 272 248
f 638 626 637
f 643 637 633
f 643 551 543
f 361 359 542
f 542 543 537
f 539 556 557
f 584 556 582
f 84 87 70
f 252 247 269
f 277 248 268
f 635 272 277
f 633 637 626
f 626 638 622
f 643 633 636
f 643 548 551
f 539 361 542
f 539 542 537
f 537 543 536
f 539 558 556
f 538 539 557
f 87 11 70
f 95 87 84
f 635 276 272
f 635 277 622
f 633 626 625
f 621 626 622
f 638 635 622
f 636 633 619
f 548 643 636
f 362 361 539
f 543 545 536
f 215 538 557
f 70 11 65
f 87 1 11
f 95 98 87
f 277 334 622
f 625 626 621
f 633 625 621
f 619 621 622
f 621 619 633
f 636 619 627
f 548 636 549
f 362 539 538
f 536 545 541
f 215 362 538
f 11 10 65
f 70 65 85
f 11 1 6
f 87 2 1
f 89 87 98
f 622 334 268
f 622 265 619
f 627 619 623
f 624 636 627
f 636 620 549
f 536 541 581
f 545 546 541
f 10 11 6
f 65 10 45
f 65 46 85
f 91 70 85
f 6 1 5
f 2 3 1
f 87 89 2
f 101 89 98
f 268 245 622
f 619 265 630
f 245 265 622
f 623 619 632
f 627 623 597
f 624 627 620
f 620 636 624
f 549 620 555
f 536 581 540
f 541 544 581
f 546 544 541
f 545 549 546
f 6 5 10
f 45 10 22
f 46 65 45
f 85 46 45
f 86 70 91
f 102 91 85
f 1 4 5
f 3 4 1
f 89 3 2
f 619 630 632
f 597 623 632
f 599 627 597
f 620 627 599
f 555 620 550
f 544 547 581
f 546 549 544
f 5 12 10
f 22 10 17
f 27 45 22
f 85 45 51
f 5 4 8
f 630 634 632
f 597 632 618
f 597 596 599
f 620 599 550
f 547 553 581
f 549 547 544
f 12 5 13
f 10 12 17
f 27 22 17
f 51 45 27
f 85 51 64
f 5 8 7
f 632 634 639
f 604 597 618
f 618 632 591
f 597 598 596
f 599 596 566
f 550 599 563
f 552 553 547
f 552 547 549
f 5 9 13
f 12 13 20
f 21 17 12
f 27 17 21
f 64 51 27
f 67 85 64
f 5 7 30
f 7 8 30
f 632 639 601
f 634 645 639
f 604 618 591
f 591 632 606
f 598 594 596
f 597 604 598
f 566 596 595
f 599 566 563
f 566 550 563
f 552 554 553
f 5 30 9
f 13 9 30
f 23 12 20
f 20 13 15
f 21 12 28
f 27 21 29
f 64 27 47
f 67 64 66
f 8 14 30
f 606 632 601
f 639 640 601
f 596 594 600
f 598 604 594
f 566 595 600
f 595 596 600
f 550 566 568
f 554 580 553
f 13 30 15
f 28 12 23
f 23 20 32
f 20 15 18
f 29 21 28
f 27 29 47
f 66 64 47
f 78 67 66
f 30 14 16
f 601 640 641
f 594 593 600
f 594 604 593
f 568 569 550
f 566 564 568
f 553 580 581
f 554 569 580
f 15 30 18
f 28 23 31
f 32 20 24
f 23 32 26
f 20 18 25
f 29 28 47
f 66 47 50
f 77 78 66
f 16 19 30
f 601 641 616
f 604 591 593
f 550 569 554
f 568 570 569
f 564 570 568
f 580 579 581
f 580 569 572
f 18 30 25
f 31 23 26
f 47 28 31
f 20 25 24
f 32 24 36
f 26 32 39
f 47 40 50
f 54 66 50
f 77 66 62
f 30 19 25
f 601 616 603
f 616 641 603
f 593 591 606
f 570 571 569
f 564 561 570
f 580 572 579
f 569 578 572
f 37 31 26
f 47 31 40
f 24 25 33
f 36 24 33
f 32 36 41
f 50 26 39
f 39 32 42
f 50 40 37
f 54 50 43
f 66 54 62
f 77 62 74
f 25 19 34
f 614 601 603
f 603 641 646
f 593 606 592
f 569 571 578
f 571 570 575
f 567 561 564
f 561 560 570
f 50 37 26
f 40 31 37
f 35 33 25
f 36 33 35
f 32 41 42
f 41 36 38
f 43 50 39
f 43 39 42
f 54 43 49
f 62 54 49
f 83 74 62
f 34 35 25
f 601 614 602
f 614 603 586
f 603 646 605
f 592 606 590
f 575 578 571
f 570 560 575
f 567 560 561
f 36 35 58
f 42 41 44
f 38 36 53
f 41 38 52
f 42 56 43
f 63 49 43
f 62 49 63
f 83 62 79
f 34 55 35
f 607 601 602
f 586 603 585
f 586 587 614
f 605 615 603
f 592 590 600
f 590 606 589
f 578 575 577
f 560 573 575
f 567 562 560
f 58 35 55
f 36 58 53
f 41 52 44
f 56 42 44
f 38 53 52
f 43 56 60
f 63 43 61
f 79 62 63
f 589 601 607
f 603 615 585
f 614 587 602
f 600 590 608
f 590 589 608
f 589 606 601
f 575 574 577
f 577 574 578
f 559 573 560
f 573 576 575
f 562 559 560
f 58 55 57
f 53 58 52
f 44 52 48
f 56 44 48
f 43 60 61
f 60 56 68
f 63 61 79
f 608 589 607
f 576 574 575
f 559 576 573
f 57 59 58
f 73 52 58
f 48 52 69
f 56 48 68
f 60 68 61
f 79 61 88
f 631 608 607
f 75 58 59
f 69 52 73
f 73 58 75
f 68 48 69
f 68 81 61
f 88 61 81
f 629 631 607
f 75 59 72
f 76 69 73
f 73 75 71
f 68 69 81
f 88 81 92
f 628 629 607
f 600 631 629
f 71 75 72
f 82 69 76
f 73 71 76
f 81 69 82
f 92 81 96
f 88 92 201
f 607 602 628
f 629 628 612
f 600 629 612
f 71 72 76
f 82 76 96
f 81 82 96
f 200 88 201
f 201 92 117
f 617 628 602
f 611 612 628
f 600 612 613
f 72 94 76
f 76 94 96
f 197 200 201
f 117 92 115
f 117 116 201
f 617 602 588
f 628 617 588
f 613 612 611
f 611 628 588
f 566 600 613
f 200 197 199
f 197 201 196
f 93 115 92
f 115 93 117
f 116 117 114
f 201 116 196
f 602 587 588
f 611 566 613
f 611 588 609
f 199 197 195
f 202 200 199
f 197 196 184
f 117 93 203
f 116 114 125
f 117 203 114
f 196 116 125
f 566 611 564
f 611 609 610
f 195 197 157
f 199 195 157
f 202 199 214
f 184 196 145
f 157 197 184
f 93 204 203
f 125 114 203
f 196 125 145
f 564 611 565
f 611 610 565
f 199 157 113
f 214 199 113
f 184 145 156
f 157 184 156
f 93 205 204
f 203 204 123
f 203 119 125
f 145 125 130
f 157 156 113
f 214 113 171
f 156 145 138
f 203 123 118
f 123 204 118
f 120 125 119
f 203 118 119
f 130 125 138
f 138 145 130
f 156 150 113
f 113 158 171
f 214 171 213
f 156 138 144
f 204 121 118
f 120 119 126
f 125 120 138
f 118 124 119
f 113 150 158
f 156 144 150
f 171 158 172
f 213 171 187
f 214 213 208
f 146 144 138
f 118 121 124
f 204 122 121
f 119 124 126
f 138 120 126
f 158 150 172
f 150 144 146
f 171 172 170
f 171 169 187
f 209 213 187
f 208 213 209
f 146 138 152
f 124 121 122
f 132 126 124
f 138 126 132
f 150 167 172
f 150 146 152
f 169 171 170
f 170 172 167
f 187 169 182
f 187 182 209
f 138 132 152
f 124 122 127
f 124 128 132
f 167 150 153
f 150 152 153
f 170 173 169
f 170 167 173
f 182 169 168
f 209 182 211
f 132 136 152
f 124 127 128
f 132 128 136
f 167 153 166
f 153 152 140
f 173 167 169
f 169 159 168
f 182 168 161
f 211 182 185
f 209 211 207
f 152 136 137
f 128 127 129
f 136 128 129
f 153 140 166
f 163 167 166
f 140 152 137
f 169 167 159
f 161 168 159
f 182 161 185
f 188 211 185
f 209 207 208
f 207 211 210
f 136 134 137
f 131 129 127
f 134 136 129
f 166 140 137
f 163 166 162
f 159 167 163
f 161 159 160
f 186 185 161
f 188 185 186
f 211 188 210
f 207 210 191
f 137 134 142
f 133 131 127
f 139 129 131
f 139 134 129
f 166 137 143
f 163 162 159
f 162 166 165
f 159 162 160
f 161 160 186
f 188 186 183
f 190 210 188
f 207 191 212
f 191 210 190
f 142 134 139
f 142 143 137
f 139 131 133
f 166 143 174
f 162 165 176
f 166 174 165
f 160 162 181
f 160 181 186
f 186 181 183
f 188 183 193
f 190 188 189
f 207 212 110
f 155 142 139
f 174 143 142
f 139 133 147
f 162 176 164
f 165 174 176
f 162 164 181
f 183 181 180
f 183 103 193
f 188 193 189
f 207 110 111
f 148 155 139
f 174 142 155
f 147 133 135
f 148 139 147
f 164 176 177
f 176 174 177
f 181 164 177
f 178 180 181
f 183 180 194
f 183 194 103
f 109 193 103
f 193 109 189
f 112 207 111
f 174 155 148
f 147 135 141
f 148 147 175
f 177 174 149
f 181 177 178
f 180 178 105
f 194 180 103
f 112 206 207
f 174 148 149
f 147 141 107
f 175 147 154
f 148 175 151
f 177 149 151
f 177 151 178
f 105 178 179
f 103 180 105
f 208 207 206
f 151 149 148
f 147 107 106
f 147 106 154
f 175 154 106
f 178 151 175
f 105 179 106
f 179 178 106
f 103 105 108
f 178 175 106

