# https://github.com/mikedh/trimesh
v -0.15019800 -0.34426800 0.00390400
v -0.15532900 -0.33669099 -0.00133100
v -0.16403300 -0.32445601 -0.01931600
v -0.15887800 -0.33232501 -0.01167700
v -0.15625850 -0.33153700 -0.04389350
v -0.09470300 -0.37654901 0.02731900
v -0.10786310 -0.37867589 0.01658661
v -0.12080421 -0.37789638 0.00379546
v -0.10080012 -0.37576949 0.02318362
v -0.13060800 -0.37169300 -0.00752600
v 0.04208000 -0.31354337 0.08401312
v 0.05044200 -0.31472150 0.07763825
v 0.07856700 -0.33096200 0.06041300
v -0.00844150 -0.34332751 0.06332650
v -0.00449255 -0.34573585 0.06445428
v 0.01433950 -0.34880450 0.05774225
v 0.02318525 -0.35460649 0.05380275
v 0.03063900 -0.30974999 0.09037400
v 0.03520950 -0.31114200 0.08807350
v 0.03974500 -0.31374300 0.08583900
v 0.03971671 -0.31806226 0.08587896
v 0.03625126 -0.31426583 0.08784569
v 0.01993050 -0.30797701 0.09529500
v 0.04660900 -0.31754300 0.08211300
v 0.07152876 -0.34016578 0.06575705
v 0.01315000 -0.30693999 0.09806900
v 0.01554492 -0.31379596 0.09657766
v 0.00258550 -0.30938625 0.10148500
v 0.08147313 -0.34620162 0.05791825
v 0.05003427 -0.33286936 0.07659160
v 0.06764274 -0.34776129 0.06434774
v 0.01021919 -0.31929226 0.09534021
v 0.07586169 -0.35171344 0.05933212
v 0.07820700 -0.34217000 0.06161500
v 0.03267771 -0.32381525 0.08632747
v 0.03941972 -0.33355003 0.07878260
v 0.08211074 -0.35139859 0.05642522
v -0.00363072 -0.31500389 0.10148492
v -0.01695552 -0.31523918 0.10402270
v -0.00120436 -0.31178451 0.10213478
v 0.07056300 -0.33481000 0.06713150
v -0.01188100 -0.31156600 0.10426600
v 0.02177267 -0.32291944 0.08945262
v 0.08177484 -0.35611758 0.05356579
v 0.07143813 -0.35358922 0.05905454
v -0.01789879 -0.31806318 0.10262676
v 0.03366663 -0.33073127 0.08103444
v 0.08545825 -0.35088251 0.05434900
v 0.04406148 -0.33553860 0.07643700
v -0.02807050 -0.31784849 0.10341275
v 0.08858000 -0.35579699 0.04986000
v 0.06569234 -0.35223728 0.06146260
v -0.03602000 -0.32366307 0.10098816
v -0.02915653 -0.32212494 0.10117176
v 0.08549874 -0.35779698 0.05010425
v -0.03960400 -0.32262000 0.10149900
v -0.00371920 -0.32080457 0.09638639
v -0.06009634 -0.33491483 0.09318844
v -0.04960500 -0.32784101 0.09805400
v -0.08652867 -0.35007751 0.08128981
v -0.05503274 -0.33488418 0.09264313
v 0.05589979 -0.34620169 0.06734542
v 0.00460444 -0.32113066 0.09411011
v -0.01917801 -0.32231369 0.09821058
v 0.00784206 -0.32274920 0.09065015
v 0.04691442 -0.34434027 0.06815347
v -0.09254743 -0.35341036 0.07777237
v -0.04599500 -0.32537401 0.09965000
v -0.06680725 -0.33728225 0.09117750
v -0.08539675 -0.34729575 0.08282775
v 0.06917085 -0.35617741 0.05621222
v -0.09990758 -0.35576083 0.07438017
v 0.05585305 -0.35230763 0.06011104
v 0.09489379 -0.36015895 0.04145048
v 0.03478220 -0.35176809 0.05457498
v 0.08464418 -0.36210282 0.04362885
v 0.07534863 -0.35867467 0.05201055
v 0.00664182 -0.33399813 0.06988708
v -0.00858764 -0.33645096 0.06815118
v -0.00483698 -0.34097957 0.06423368
v -0.01838008 -0.34134333 0.06485922
v -0.03278909 -0.34708349 0.06276848
v 0.02207475 -0.34985543 0.05599933
v 0.02873200 -0.35062000 0.05504900
v -0.00268700 -0.33265200 0.07164600
v 0.02057014 -0.34617725 0.05894504
v 0.03638654 -0.35823264 0.04627311
v -0.04013339 -0.35062864 0.06077263
v -0.04714060 -0.35404906 0.05838293
v -0.06811200 -0.36504101 0.04646850
v 0.04144900 -0.35932201 0.04389200
v 0.02788134 -0.35248581 0.05311924
v 0.04705513 -0.36390600 0.03696350
v 0.04386785 -0.36165921 0.04045017
v 0.00582635 -0.33108452 0.07356063
v 0.05478582 -0.36393454 0.03447283
v 0.06253412 -0.36899613 0.02426450
v 0.05783760 -0.36650642 0.02938923
v 0.06825668 -0.35731677 0.05379511
v 0.06894859 -0.36993187 0.01964771
v 0.04338635 -0.35689922 0.04770755
v 0.07761599 -0.37106636 0.01305235
v 0.07308203 -0.36980586 0.01798162
v 0.09615428 -0.36478681 0.03101007
v 0.08896938 -0.36284796 0.03996658
v -0.11055963 -0.36067604 0.06378987
v 0.07633940 -0.36147013 0.04546139
v -0.11576355 -0.36433691 0.05320233
v 0.09144762 -0.36435476 0.03439809
v 0.04801022 -0.36052787 0.04104499
v 0.06514972 -0.36540170 0.03035746
v 0.08434222 -0.36375335 0.03838861
v 0.03290225 -0.35772199 0.04775900
v 0.09466499 -0.36670511 0.02415609
v 0.06943553 -0.36684201 0.02614802
v 0.03877150 -0.36079050 0.04336750
v 0.08364382 -0.36813940 0.02022726
v -0.11334076 -0.35886331 0.06495485
v 0.08540508 -0.37029070 0.01105386
v 0.08689806 -0.37201063 0.00438138
v 0.09065385 -0.36966542 0.01020089
v -0.10703502 -0.35820036 0.06925863
v 0.10014300 -0.36044201 0.03538200
v 0.10266100 -0.36134700 0.03098550
v -0.12382601 -0.36307770 0.04844496
v 0.10229108 -0.36588487 0.01835905
v 0.10304120 -0.36404666 0.02545220
v 0.09281800 -0.37220401 -0.00214400
v -0.12600012 -0.36868331 0.02963178
v -0.10455923 -0.35329346 0.07393490
v 0.09434101 -0.37053701 -0.00012160
v 0.10547300 -0.36139100 0.02659750
v -0.12017567 -0.36120260 0.05551981
v -0.12428206 -0.37514308 0.00189383
v -0.12355744 -0.36503509 0.04379137
v -0.12831505 -0.37086261 0.01536906
v 0.10229125 -0.36870075 -0.01156150
v -0.11594307 -0.35435920 0.06631867
v 0.10535456 -0.36551766 0.01267394
v -0.11968294 -0.35772591 0.06025814
v -0.12861553 -0.36694105 0.03069620
v 0.09757945 -0.37012299 -0.00506979
v 0.10986650 -0.36152049 0.01623050
v 0.10844947 -0.36416397 0.00762363
v 0.10225212 -0.36811053 -0.00864253
v 0.10835500 -0.36221099 0.01860100
v 0.11027700 -0.36227674 0.01077200
v 0.11081100 -0.36233699 0.00699300
v 0.10748886 -0.36479272 -0.01473723
v 0.10874995 -0.36431329 -0.00118802
v 0.11190150 -0.36166950 0.00272900
v -0.09406965 -0.34839324 0.08013024
v 0.11111200 -0.36243701 -0.00072800
v 0.11245400 -0.36179700 -0.02399800
v -0.05613600 -0.32731000 0.09708900
v -0.12525247 -0.35693004 0.05480416
v -0.11238750 -0.35188137 0.06899687
v -0.13250589 -0.36453373 0.02623959
v -0.13193877 -0.35984877 0.03757016
v -0.06490850 -0.33146400 0.09361600
v -0.13341100 -0.36899901 -0.01110350
v -0.13608362 -0.36558518 -0.00145521
v -0.13331952 -0.36723135 0.01262225
v -0.13576499 -0.36161763 0.02199216
v -0.13791716 -0.36058950 0.01602324
v -0.12718300 -0.35272150 0.05486300
v -0.14048800 -0.35805699 0.01063700
v -0.13558580 -0.36692891 -0.01083433
v -0.13666400 -0.36512601 -0.01536500
v -0.14009950 -0.34795050 0.03457875
v -0.14695706 -0.35032253 0.00109748
v -0.14139850 -0.35857049 -0.02297100
v -0.13975161 -0.36112607 -0.00168619
v -0.14262183 -0.35654125 0.00267817
v -0.14602046 -0.35250010 -0.00969721
v -0.12417800 -0.35257801 0.05883600
v -0.13336789 -0.35360246 0.04466399
v -0.16099762 -0.32947481 -0.02248158
v -0.14407501 -0.35437000 -0.02076600
v -0.14841074 -0.34689282 -0.02964705
v -0.13874300 -0.35344694 0.03151326
v -0.15371624 -0.33701411 -0.03782074
v -0.14979900 -0.34428000 -0.03541800
v -0.13271351 -0.35103999 0.04742450
v -0.00648988 -0.33157089 0.07304760
v -0.01435506 -0.33180188 0.07407075
v -0.00983300 -0.33179399 0.07332300
v -0.01425850 -0.32872660 0.07822238
v -0.02978207 -0.33530322 0.07462511
v -0.02257987 -0.33543678 0.07178466
v -0.04123338 -0.34763629 0.06410787
v -0.05603960 -0.35327122 0.06095633
v -0.04741723 -0.34588385 0.06820882
v -0.04614644 -0.34103673 0.07468371
v -0.05569959 -0.34822303 0.06891410
v -0.06713215 -0.35699954 0.05929146
v -0.02559916 -0.33150771 0.07826507
v -0.04816027 -0.33865384 0.08039717
v -0.08808267 -0.36531374 0.04929468
v -0.07431965 -0.35000332 0.07933412
v -0.05506873 -0.33762558 0.08858528
v -0.06068876 -0.34208207 0.08426581
v -0.08051606 -0.35158827 0.07977001
v -0.07237976 -0.35470904 0.06813786
v -0.05135500 -0.33409982 0.09256159
v -0.02914969 -0.32586407 0.09569683
v -0.07869571 -0.35929813 0.06161354
v -0.08659662 -0.35713684 0.07165317
v -0.02654639 -0.32996711 0.08119484
v -0.04656614 -0.33225380 0.09326265
v -0.02505847 -0.32779558 0.08599252
v -0.03551748 -0.32664217 0.09777811
v -0.09104082 -0.35972445 0.06708058
v -0.01399829 -0.32526733 0.08630943
v -0.09103095 -0.36124433 0.06294491
v -0.09887379 -0.35940264 0.06956190
v -0.07965151 -0.36586228 0.04474107
v -0.09860536 -0.36832605 0.04266606
v -0.08609145 -0.36928037 0.03855052
v -0.00472640 -0.32356881 0.08878775
v -0.10152328 -0.36270962 0.06121132
v -0.09697104 -0.36930546 0.03885308
v 0.00058856 -0.32821855 0.07745275
v -0.10643643 -0.36471344 0.05501961
v -0.10567233 -0.37134375 0.03255399
v -0.10542005 -0.36295423 0.06104491
v -0.09049167 -0.37247281 0.03203907
v -0.11138024 -0.36568724 0.05093892
v 0.01614844 -0.32467940 0.08775585
v 0.00421101 -0.32761373 0.07928124
v 0.02676957 -0.32894742 0.08214948
v -0.10500572 -0.37523699 0.02225682
v -0.07664486 -0.36753543 0.04206688
v -0.11931637 -0.37221309 0.02429661
v -0.11397796 -0.37488928 0.01796802
v -0.11911002 -0.36670534 0.04361326
v -0.11396525 -0.37710418 0.01263395
v -0.07875100 -0.36940899 0.03950800
v -0.12025567 -0.37417119 0.01429771
v -0.13950085 -0.36268507 -0.02117646
v -0.13529939 -0.36771725 -0.01486664
v 0.09383424 -0.34146069 0.05078199
v 0.09796300 -0.34036150 0.04676625
v 0.07444117 -0.33443856 0.06495443
v 0.05701071 -0.32265801 0.07588488
v 0.07391931 -0.33149151 0.06504093
v 0.08713775 -0.33692438 0.05579398
v 0.07971428 -0.33349691 0.06110068
v 0.06852592 -0.32683279 0.06789340
v 0.04705144 -0.31455672 0.08116235
v 0.08650311 -0.34122534 0.05676895
v 0.09560888 -0.35280539 0.04652882
v 0.10678000 -0.35253550 0.03324500
v 0.09553388 -0.35580843 0.04463050
v 0.10239062 -0.35637889 0.03679745
v 0.10255859 -0.35900761 0.03407144
v 0.10486592 -0.36003752 0.02976103
v 0.11528300 -0.35835701 -0.02762500
v 0.15667100 -0.31905100 -0.06512300
v 0.15803100 -0.31228950 -0.06814600
v 0.13423000 -0.34363551 -0.04511275
v 0.15179100 -0.32639700 -0.06039500
v 0.14411700 -0.33219299 -0.05474100
v 0.11316966 -0.36062494 -0.00275488
v 0.12216620 -0.34557731 -0.03603887
v 0.12661393 -0.34206459 -0.01522805
v 0.12890016 -0.33616207 -0.02829466
v 0.12562160 -0.33963049 -0.03465285
v 0.13762799 -0.32134433 -0.03062043
v 0.14515500 -0.30820450 -0.02825850
v 0.13529141 -0.31786844 -0.05181966
v 0.13632729 -0.31655970 -0.04886350
v 0.14501287 -0.30694488 -0.03597425
v 0.12540787 -0.33952190 -0.04068243
v 0.12459816 -0.34560506 -0.00860540
v 0.13888900 -0.31000799 -0.05339600
v 0.14241450 -0.30233900 -0.06396650
v 0.14452700 -0.30216500 -0.04815800
v 0.12742284 -0.33685113 -0.04391431
v 0.13793707 -0.31270848 -0.05791776
v 0.13095567 -0.32857434 -0.04864806
v 0.11740152 -0.35625421 0.00206011
v 0.12623488 -0.34160055 -0.00129737
v 0.13916500 -0.30886249 -0.05696900
v 0.11394500 -0.35811201 0.01253100
v 0.14389953 -0.31105960 -0.02474244
v 0.14564200 -0.30620301 -0.02370700
v 0.11930264 -0.35364442 0.00346056
v 0.13961433 -0.31781730 -0.01535652
v 0.14419345 -0.30713917 -0.01951856
v 0.11422471 -0.35585114 0.01753532
v 0.14687000 -0.30149201 -0.02380500
v 0.11717889 -0.34577699 0.02018125
v 0.11036020 -0.34757358 0.03107248
v 0.12894871 -0.33052437 0.00438561
v 0.13805259 -0.31660162 -0.01004573
v 0.11065004 -0.34248326 0.03218056
v 0.11463251 -0.34027432 0.02676894
v 0.12208380 -0.34142913 0.01332866
v 0.14415500 -0.30325201 -0.01925600
v 0.13487400 -0.31816399 -0.00475400
v 0.10893950 -0.34115701 0.03478200
v 0.12838663 -0.32702112 0.00573000
v 0.13546706 -0.31782909 -0.05452045
v 0.14188899 -0.30581482 -0.06344428
v 0.14064834 -0.31790012 -0.05888194
v 0.13273595 -0.33476071 -0.04828870
v 0.14638388 -0.30753852 -0.06553058
v 0.14494701 -0.32819900 -0.05670500
v 0.15613499 -0.30687100 -0.06952100
v 0.14535363 -0.30407350 -0.06628187
f 171 178 175
f 175 178 180
f 182 180 178
f 182 183 180
f 182 5 183
f 180 183 172
f 180 172 168
f 179 180 168
f 175 179 168
f 175 168 173
f 173 168 162
f 163 173 162
f 163 174 173
f 174 171 173
f 167 171 174
f 165 171 167
f 165 1 171
f 1 2 171
f 1 165 181
f 164 181 165
f 181 164 158
f 159 181 158
f 177 181 159
f 170 181 177
f 184 170 177
f 184 177 166
f 166 177 156
f 156 177 125
f 156 125 133
f 118 156 133
f 176 166 156
f 157 176 156
f 177 159 125
f 159 158 125
f 125 158 141
f 158 163 141
f 165 163 158
f 141 163 136
f 129 141 136
f 141 129 135
f 108 135 129
f 108 125 135
f 118 125 108
f 118 133 125
f 106 118 108
f 122 118 106
f 122 130 118
f 72 130 122
f 72 152 130
f 152 72 60
f 70 152 60
f 69 152 70
f 160 152 69
f 160 69 58
f 155 160 58
f 69 70 60
f 58 69 60
f 58 60 203
f 60 67 203
f 67 216 203
f 208 203 216
f 208 216 213
f 213 216 215
f 215 216 199
f 199 216 221
f 216 226 221
f 216 122 226
f 199 221 226
f 199 226 218
f 226 224 218
f 224 226 228
f 226 108 228
f 228 108 234
f 228 234 225
f 232 225 234
f 234 235 232
f 234 136 235
f 235 136 239
f 235 239 237
f 239 134 237
f 136 134 239
f 136 168 134
f 134 168 10
f 168 169 10
f 8 134 10
f 8 237 134
f 237 8 7
f 235 237 232
f 232 237 9
f 232 9 6
f 227 225 232
f 219 225 227
f 233 219 227
f 233 227 238
f 233 238 90
f 90 217 233
f 233 217 219
f 217 218 219
f 219 218 222
f 222 218 225
f 219 222 225
f 218 228 225
f 108 236 234
f 236 129 234
f 224 228 218
f 199 218 90
f 196 199 90
f 196 207 199
f 208 207 196
f 208 215 207
f 208 196 204
f 200 208 204
f 200 204 196
f 200 196 198
f 202 200 198
f 203 200 202
f 201 203 202
f 205 203 201
f 61 203 205
f 210 61 205
f 212 61 210
f 212 210 206
f 212 206 64
f 64 53 212
f 54 53 64
f 46 54 64
f 46 64 57
f 57 64 214
f 57 214 220
f 220 214 188
f 220 188 223
f 65 220 223
f 65 223 229
f 229 223 230
f 229 230 231
f 43 229 231
f 47 43 231
f 47 231 78
f 78 231 95
f 231 223 95
f 223 185 95
f 95 185 85
f 85 185 79
f 185 81 79
f 187 81 185
f 188 187 185
f 188 186 187
f 186 188 190
f 197 190 188
f 190 197 189
f 197 209 189
f 189 209 193
f 209 194 193
f 198 194 209
f 209 201 198
f 210 201 209
f 194 198 193
f 198 195 193
f 193 195 192
f 195 196 192
f 192 191 193
f 190 193 191
f 81 190 191
f 81 191 82
f 82 191 88
f 81 82 14
f 80 81 14
f 78 81 80
f 78 80 86
f 86 80 83
f 92 86 83
f 86 92 84
f 75 84 92
f 75 92 101
f 101 92 87
f 101 87 91
f 101 91 110
f 77 101 110
f 107 77 110
f 107 110 111
f 111 110 96
f 111 96 98
f 115 111 98
f 112 111 115
f 112 115 114
f 114 115 117
f 117 115 102
f 117 102 119
f 102 120 119
f 121 119 120
f 126 121 120
f 114 121 126
f 104 114 126
f 127 104 126
f 127 126 139
f 127 139 147
f 147 139 144
f 153 147 144
f 144 150 153
f 150 149 153
f 150 137 149
f 150 145 137
f 145 142 137
f 139 142 145
f 139 131 142
f 131 120 142
f 142 128 137
f 142 120 128
f 144 145 150
f 144 139 145
f 146 127 147
f 132 127 146
f 132 123 127
f 123 74 127
f 254 74 123
f 254 123 256
f 255 254 256
f 255 256 257
f 255 257 253
f 253 257 132
f 257 124 132
f 257 123 124
f 253 132 291
f 253 291 294
f 291 293 294
f 298 294 293
f 297 294 298
f 302 297 298
f 303 302 298
f 303 298 299
f 303 299 295
f 301 303 295
f 301 295 296
f 301 296 290
f 296 289 290
f 290 289 286
f 290 286 287
f 292 290 287
f 300 290 292
f 287 286 270
f 270 286 269
f 266 269 286
f 275 266 286
f 275 258 266
f 275 288 258
f 283 288 275
f 288 283 295
f 295 283 289
f 283 275 289
f 288 282 258
f 291 282 288
f 299 291 288
f 285 282 291
f 291 143 285
f 285 143 282
f 143 148 282
f 282 148 151
f 282 151 264
f 264 151 154
f 264 154 258
f 264 258 282
f 266 258 265
f 266 265 268
f 267 266 268
f 267 268 274
f 271 267 274
f 269 267 271
f 269 271 272
f 272 271 304
f 272 304 276
f 276 304 284
f 284 304 280
f 304 305 280
f 306 305 304
f 311 305 306
f 308 311 306
f 260 311 308
f 310 311 260
f 260 308 306
f 306 259 260
f 259 306 262
f 262 306 309
f 309 306 263
f 263 306 307
f 307 306 279
f 307 279 265
f 307 265 261
f 265 258 261
f 306 281 279
f 307 261 263
f 262 309 263
f 277 305 311
f 304 281 306
f 277 280 305
f 280 277 284
f 276 278 272
f 278 273 272
f 271 281 304
f 271 279 281
f 274 279 271
f 274 265 279
f 273 269 272
f 268 265 274
f 266 267 269
f 270 269 273
f 289 275 286
f 296 295 289
f 295 299 288
f 302 294 297
f 298 293 299
f 293 291 299
f 253 294 302
f 132 143 291
f 253 252 255
f 253 243 252
f 242 252 243
f 242 251 252
f 251 29 252
f 252 29 254
f 29 51 254
f 244 29 251
f 246 244 251
f 248 246 251
f 247 248 251
f 248 247 13
f 249 248 13
f 249 13 12
f 249 12 250
f 249 250 245
f 250 11 245
f 249 245 246
f 247 243 13
f 248 249 246
f 246 245 244
f 245 29 244
f 245 11 29
f 247 251 242
f 243 247 242
f 254 255 252
f 256 123 257
f 254 51 74
f 51 55 74
f 74 55 76
f 74 76 105
f 105 76 112
f 105 112 109
f 104 105 109
f 74 105 104
f 55 77 76
f 55 44 77
f 44 71 77
f 71 99 77
f 71 101 99
f 71 73 101
f 73 71 52
f 52 62 73
f 62 66 73
f 75 73 66
f 66 86 75
f 49 66 62
f 49 36 66
f 78 66 36
f 30 36 49
f 36 30 35
f 35 47 36
f 35 30 25
f 21 35 25
f 21 32 35
f 32 43 35
f 43 32 65
f 27 32 21
f 38 32 27
f 38 46 32
f 39 46 38
f 39 53 46
f 39 50 53
f 50 56 53
f 56 68 53
f 53 68 59
f 53 59 58
f 59 69 58
f 61 53 58
f 42 50 39
f 40 42 39
f 28 42 40
f 28 40 27
f 26 28 27
f 26 27 23
f 22 23 27
f 18 23 22
f 19 18 22
f 20 19 22
f 20 22 21
f 24 20 21
f 41 24 21
f 39 38 40
f 40 38 27
f 22 27 21
f 41 21 25
f 41 25 34
f 34 25 48
f 48 25 37
f 37 44 48
f 37 33 44
f 33 45 44
f 33 31 45
f 31 52 45
f 25 31 33
f 25 33 37
f 25 30 31
f 30 62 31
f 30 49 62
f 31 62 52
f 45 52 71
f 44 45 71
f 48 44 55
f 48 55 51
f 139 126 131
f 74 104 127
f 104 109 114
f 126 120 131
f 119 121 114
f 102 115 103
f 115 100 103
f 103 100 102
f 114 117 119
f 109 112 114
f 76 111 112
f 98 100 115
f 98 97 100
f 98 93 97
f 110 93 98
f 110 94 93
f 96 110 98
f 76 107 111
f 77 107 76
f 99 101 77
f 110 91 94
f 91 87 94
f 94 87 93
f 87 116 93
f 87 113 116
f 87 92 113
f 92 17 113
f 73 75 101
f 75 86 84
f 83 17 92
f 83 80 16
f 80 15 16
f 78 86 66
f 88 191 192
f 88 192 89
f 192 90 89
f 189 193 190
f 209 197 188
f 186 190 81
f 187 186 81
f 78 79 81
f 85 79 78
f 95 85 78
f 47 78 36
f 35 43 47
f 230 223 231
f 43 65 229
f 32 220 65
f 223 188 185
f 188 214 209
f 214 211 209
f 206 211 214
f 206 209 211
f 63 57 220
f 32 57 63
f 46 57 32
f 46 53 54
f 64 206 214
f 206 210 209
f 212 53 61
f 205 201 210
f 201 202 198
f 195 198 196
f 196 90 192
f 207 215 199
f 208 213 215
f 203 208 200
f 67 72 216
f 61 58 203
f 60 72 67
f 72 122 216
f 130 138 118
f 130 157 138
f 152 157 130
f 118 138 140
f 138 156 140
f 122 106 226
f 226 106 108
f 236 108 129
f 234 129 136
f 135 125 141
f 164 165 158
f 170 1 181
f 165 167 163
f 167 174 163
f 163 162 136
f 136 162 168
f 168 172 169
f 169 172 241
f 172 240 241
f 169 241 161
f 161 241 10
f 5 182 178
f 3 5 178
f 4 3 178
f 2 4 178
f 175 180 179
f 171 2 178
f 173 171 175

