v -0.237426 -0.118556 -0.0808385
v -0.228685 -0.130046 -0.0818236
v -0.219709 -0.142517 -0.0821596
v -0.194237 -0.158341 -0.0715519
v -0.135801 -0.16822 -0.0552628
v -0.149618 -0.164932 -0.0535383
v -0.134561 -0.165492 -0.042654
v -0.148125 -0.163114 -0.0409764
v -0.161673 -0.160724 -0.0392572
v -0.159735 -0.161544 -0.0264389
v -0.157523 -0.163284 -0.0136159
v -0.152918 -0.166422 0.0120632
v -0.149653 -0.167171 0.0250945
v -0.159608 -0.16113 0.0279806
v -0.170767 -0.152678 0.0179519
v -0.178108 -0.155744 0.00494669
v -0.182623 -0.156236 -0.00893276
v -0.164422 -0.162374 0.0147714
v -0.185186 -0.154923 -0.0221802
v -0.199159 -0.147862 -0.0326913
v -0.203903 -0.145574 -0.0594707
v -0.192104 -0.153319 -0.0607812
v -0.178929 -0.160364 -0.0618976
v -0.205938 -0.148328 -0.0712501
v -0.216406 -0.137482 -0.0707887
v -0.163317 -0.161294 -0.0518236
v -0.176878 -0.15743 -0.0500946
v -0.174826 -0.157793 -0.0373951
v -0.170578 -0.160801 -0.0116712
v -0.187591 -0.153406 -0.0354128
v -0.225384 -0.126684 -0.0691821
v -0.214448 -0.136895 -0.0577859
v -0.223503 -0.128223 -0.0553383
v -0.232227 -0.119363 -0.0525064
v -0.221495 -0.131275 -0.040834
v -0.211934 -0.138985 -0.0436495
v -0.209258 -0.140761 -0.0294471
v -0.196342 -0.149142 -0.0190261
v -0.201609 -0.146384 -0.0461433
v -0.18984 -0.15251 -0.0483961
v -0.191021 -0.148422 -0.00500764
v -0.155001 -0.160074 0.0410577
v -0.12686 -0.176822 0.0739852
v -0.138234 -0.171428 0.077153
v -0.129701 -0.17536 0.0612276
v -0.121172 -0.179432 0.0462243
v -0.123697 -0.17711 0.033943
v -0.127873 -0.172252 0.00857912
v -0.140327 -0.16918 0.0101824
v -0.137806 -0.170794 0.0230776
v -0.13507 -0.172159 0.0360073
v -0.142418 -0.167298 -0.00262671
v -0.144525 -0.165487 -0.0154259
v -0.133189 -0.166069 -0.0297708
v -0.146572 -0.163771 -0.0282144
v -0.131278 -0.167846 -0.0169889
v -0.119834 -0.168447 -0.0313226
v -0.129542 -0.169887 -0.00418498
v -0.117018 -0.172984 -0.00579044
v -0.104453 -0.175979 -0.00742547
v -0.105489 -0.173148 -0.0199641
v -0.0931313 -0.172928 -0.0335617
v -0.106626 -0.170723 -0.0325173
v -0.107392 -0.169883 -0.0453147
v -0.0937904 -0.171499 -0.0461875
v -0.0665271 -0.174446 -0.0477607
v -0.080158 -0.172978 -0.04698
v -0.108148 -0.173462 -0.057377
v -0.121901 -0.171203 -0.0564939
v -0.0944507 -0.17544 -0.0582385
v -0.0807768 -0.177104 -0.0590292
v -0.0533485 -0.179584 -0.0604394
v -0.0670907 -0.178409 -0.059725
v -0.025942 -0.177389 -0.0489051
v -0.0394538 -0.176491 -0.0485894
v -0.0529657 -0.175593 -0.0482738
v 0.013907 -0.176962 -0.0487764
v 0.00064294 -0.177255 -0.0488513
v -0.0126212 -0.177548 -0.0489262
v 0.0139128 -0.17775 -0.0614494
v 0.0402678 -0.174569 -0.0614407
v 0.027097 -0.176198 -0.0614381
v 0.0534426 -0.173095 -0.0613641
v -0.246932 -0.109221 -0.0786822
v 0.000646867 -0.178853 -0.0614596
v -0.0128126 -0.179263 -0.0612786
v -0.026272 -0.179673 -0.0610976
v -0.0397315 -0.180083 -0.0609166
v 0.0533498 -0.174939 -0.0482708
v 0.0402498 -0.175727 -0.0484263
v 0.0400676 -0.178764 -0.0354958
v 0.0398602 -0.181519 -0.0224907
v 0.0267779 -0.182601 -0.0228809
v 0.0395667 -0.183935 -0.00945507
v 0.0393781 -0.188194 0.0164683
v 0.0519926 -0.190338 0.0431804
v 0.039367 -0.197007 0.0553473
v 0.0393799 -0.193502 0.0425539
v 0.0264773 -0.199623 0.0544963
v 0.0393779 -0.200323 0.0682022
v -0.242939 -0.10763 -0.0641754
v 0.0264918 -0.203493 0.067226
v 0.0261351 -0.207103 0.0798862
v 0.0132105 -0.209382 0.0789578
v -0.234435 -0.11681 -0.0672013
v 7.85758e-05 -0.209945 0.078604
v 0.000333281 -0.206679 0.065871
v -0.0127704 -0.207376 0.0655028
v 0.000438963 -0.20322 0.0531682
v 0.0134235 -0.20525 0.0664943
v 0.000521165 -0.199772 0.0404668
v 0.000536497 -0.196581 0.027696
v 0.013537 -0.20187 0.0537242
v 0.0135464 -0.198501 0.0409974
v 0.000553359 -0.193407 0.014916
v -0.0125021 -0.197241 0.0272633
v -0.012497 -0.194001 0.0145085
v -0.0124988 -0.190728 0.00176834
v -0.0125264 -0.187408 -0.0109235
v -0.012554 -0.184087 -0.0236152
v 0.0137297 -0.183544 -0.0232491
v 0.000576825 -0.183927 -0.0234255
v 0.000554426 -0.180498 -0.0361079
v -0.0255112 -0.197079 0.0269614
v -0.0255438 -0.193927 0.0142195
v -0.0255807 -0.190742 0.00148416
v -0.0385421 -0.193095 0.0139986
v -0.0384563 -0.196419 0.0266568
v -0.0513472 -0.195157 0.0264545
v -0.06395 -0.200731 0.0515642
v -0.0640766 -0.197177 0.0389136
v -0.07631 -0.198624 0.0520058
v -0.0883224 -0.195968 0.0537987
v -0.102717 -0.182374 0.0176558
v -0.100961 -0.18902 0.0434082
v -0.101854 -0.185698 0.0305591
v -0.0891461 -0.192495 0.0411209
v -0.0897626 -0.188819 0.0284552
v -0.0904165 -0.185263 0.0158423
v -0.10344 -0.178996 0.00508508
v -0.172859 -0.159171 -0.0245842
v -0.155291 -0.164945 -0.000816095
v -0.0767543 -0.195088 0.0395241
v -0.077206 -0.191248 0.0272246
v -0.0776105 -0.187949 0.0148083
v -0.0780334 -0.18456 0.00249274
v -0.0650096 -0.186653 0.00191924
v -0.0643492 -0.193642 0.0265154
v -0.064648 -0.190097 0.0142322
v -0.0654675 -0.183369 -0.0104431
v -0.0657923 -0.179994 -0.0228171
v -0.0662007 -0.176795 -0.0351713
v -0.039266 -0.179559 -0.036128
v -0.0527467 -0.178291 -0.0356915
v -0.0390454 -0.183012 -0.0236792
v -0.0256915 -0.187344 -0.0111144
v -0.0388743 -0.186389 -0.0111428
v -0.0518314 -0.188494 0.00145824
v -0.0521581 -0.185107 -0.0109085
v -0.0524848 -0.18172 -0.0232753
v -0.0784954 -0.181199 -0.00981544
v -0.0916801 -0.178806 -0.00887993
v -0.0641401 -0.204136 0.0639134
v -0.0761289 -0.201888 0.0646337
v -0.0645888 -0.206927 0.0761054
v -0.051749 -0.208583 0.0769846
v -0.0266354 -0.212974 0.0912971
v -0.0388155 -0.209679 0.0775849
v -0.0260601 -0.210604 0.078087
v -0.0135125 -0.212954 0.0914068
v -0.0258288 -0.207396 0.0652146
v -0.0257201 -0.203924 0.0524638
v -0.0386599 -0.206666 0.0647403
v -0.0385594 -0.203234 0.0520014
v -0.0384671 -0.199755 0.039306
v -0.0513994 -0.202249 0.0516497
v -0.0513188 -0.1987 0.0390181
v -0.0255916 -0.200476 0.0397004
v -0.051459 -0.205661 0.0642455
v -0.0515669 -0.191866 0.0139143
v -0.0387075 -0.189754 0.00142095
v 0.000573227 -0.190331 0.00210247
v 0.000593835 -0.187283 -0.0107203
v -0.0126604 -0.203929 0.0527792
v -0.0125407 -0.200452 0.0400404
v -0.0129889 -0.210533 0.0782786
v 0.0135341 -0.195092 0.0283067
v 0.0265213 -0.18815 0.00297693
v 0.0135619 -0.192248 0.0154398
v 0.0265141 -0.190485 0.015967
v 0.0266816 -0.185511 -0.0100007
v 0.0264544 -0.196019 0.0417784
v 0.0264843 -0.192822 0.0290217
v 0.0519565 -0.193252 0.0560531
v 0.0394154 -0.190466 0.0296564
v 0.0394483 -0.186291 0.00353048
v 0.0136263 -0.189484 0.00246087
v 0.0136926 -0.186558 -0.0104082
v 0.0269514 -0.179543 -0.0357797
v 0.0137711 -0.180144 -0.0359782
v 0.0271182 -0.176471 -0.0486245
v -0.0125958 -0.180736 -0.0362876
v -0.0257841 -0.183885 -0.0237178
v -0.0258766 -0.180424 -0.0363212
v -0.120976 -0.167988 -0.0442458
v -0.0796836 -0.174966 -0.0344437
v -0.0790646 -0.177944 -0.022114
v -0.0923057 -0.175684 -0.0212012
v -0.0910942 -0.182067 0.00344514
v -0.118333 -0.170458 -0.0184981
v -0.114335 -0.178818 0.0196882
v -0.115789 -0.175801 0.00682935
v -0.126008 -0.174776 0.0213673
v -0.132406 -0.173883 0.0486699
v -0.168001 -0.162097 0.00142099
v -0.140997 -0.170004 0.064307
v -0.143549 -0.168682 0.0512425
v -0.146446 -0.167809 0.0381444
f 2 31 105 1
f 105 101 84 1
f 3 25 31 2
f 22 21 24 4
f 69 205 7 5
f 7 8 6 5
f 8 9 26 6
f 205 57 54 7
f 54 55 8 7
f 55 10 9 8
f 28 27 26 9
f 10 141 28 9
f 55 53 11 10
f 11 29 141 10
f 53 52 142 11
f 142 215 29 11
f 18 215 142 12
f 142 52 49 12
f 49 50 13 12
f 13 14 18 12
f 50 51 218 13
f 218 42 14 13
f 16 215 18 15
f 17 29 215 16
f 41 38 19 17
f 19 141 29 17
f 38 20 30 19
f 30 28 141 19
f 37 36 39 20
f 39 40 30 20
f 32 25 24 21
f 22 40 39 21
f 39 36 32 21
f 23 27 40 22
f 32 33 31 25
f 28 30 40 27
f 33 34 105 31
f 36 35 33 32
f 44 216 45 43
f 216 217 214 45
f 214 51 47 46
f 51 50 213 47
f 49 52 58 48
f 58 59 212 48
f 212 211 213 48
f 213 50 49 48
f 214 217 218 51
f 53 56 58 52
f 55 54 56 53
f 57 210 56 54
f 210 59 58 56
f 205 64 63 57
f 63 61 210 57
f 210 61 60 59
f 60 140 212 59
f 61 208 162 60
f 162 209 140 60
f 63 62 208 61
f 63 64 65 62
f 65 67 206 62
f 206 207 208 62
f 205 69 68 64
f 68 70 65 64
f 70 71 67 65
f 67 71 73 66
f 73 72 76 66
f 76 154 152 66
f 152 206 67 66
f 88 75 76 72
f 75 88 87 74
f 87 86 79 74
f 79 202 204 74
f 204 153 75 74
f 153 154 76 75
f 78 85 80 77
f 80 82 201 77
f 201 199 200 77
f 200 123 78 77
f 79 86 85 78
f 123 202 79 78
f 83 89 90 81
f 90 201 82 81
f 91 199 201 90
f 92 93 199 91
f 94 191 93 92
f 121 200 199 93
f 191 198 121 93
f 196 188 191 94
f 190 188 196 95
f 195 193 190 95
f 194 97 98 96
f 99 192 98 97
f 100 102 99 97
f 192 193 195 98
f 113 114 192 99
f 102 110 113 99
f 103 104 110 102
f 106 107 110 104
f 186 108 107 106
f 108 184 109 107
f 109 113 110 107
f 171 172 184 108
f 186 169 171 108
f 184 185 111 109
f 111 114 113 109
f 185 116 112 111
f 112 187 114 111
f 116 117 115 112
f 115 189 187 112
f 187 193 192 114
f 117 118 182 115
f 182 197 189 115
f 124 125 117 116
f 185 178 124 116
f 125 126 118 117
f 126 156 119 118
f 119 183 182 118
f 156 203 120 119
f 120 122 183 119
f 203 204 202 120
f 202 123 122 120
f 122 123 200 121
f 198 183 122 121
f 128 127 125 124
f 178 175 128 124
f 127 181 126 125
f 181 157 156 126
f 180 158 181 127
f 128 129 180 127
f 175 177 129 128
f 148 149 180 129
f 177 131 148 129
f 132 143 131 130
f 131 177 176 130
f 176 179 163 130
f 163 164 132 130
f 143 144 148 131
f 133 137 143 132
f 211 212 140 134
f 140 209 139 134
f 139 138 136 134
f 136 138 137 135
f 138 144 143 137
f 139 145 144 138
f 209 146 145 139
f 145 149 148 144
f 146 147 149 145
f 209 162 161 146
f 161 150 147 146
f 150 159 158 147
f 158 180 149 147
f 161 207 151 150
f 151 160 159 150
f 207 206 152 151
f 152 154 160 151
f 204 203 155 153
f 155 160 154 153
f 203 156 157 155
f 157 159 160 155
f 181 158 159 157
f 162 208 207 161
f 179 166 165 163
f 179 173 168 166
f 169 186 170 167
f 173 171 169 168
f 173 174 172 171
f 174 175 178 172
f 178 185 184 172
f 179 176 174 173
f 176 177 175 174
f 183 198 197 182
f 189 190 193 187
f 197 198 191 188
f 190 189 197 188
