# https://github.com/mikedh/trimesh
v 0.03330800 -0.13882700 0.27607101
v 0.03419800 -0.15369500 0.27945000
v 0.03319500 -0.15896299 0.28113499
v 0.03509400 -0.14574100 0.27568999
v 0.03502500 -0.15158699 0.27736601
v 0.03303450 -0.16765425 0.27714951
v 0.02045475 -0.12258625 0.25806750
v 0.03017250 -0.13023800 0.26895000
v 0.05214450 -0.07772150 0.19598450
v 0.05471700 -0.07489900 0.19160201
v 0.04405850 -0.09073900 0.21409250
v 0.03999525 -0.09519800 0.22397250
v 0.06641356 -0.06527725 0.17771912
v 0.04875000 -0.08358200 0.19510400
v 0.04609500 -0.08686700 0.20660600
v 0.02880500 -0.10276150 0.23958950
v 0.03512600 -0.14231500 0.27349001
v 0.06157800 -0.07757450 0.16022550
v 0.06373392 -0.07173677 0.16190733
v 0.07521266 -0.06382295 0.16356652
v 0.06093279 -0.07327174 0.16417925
v 0.07016458 -0.06914811 0.15552207
v 0.07985714 -0.06528826 0.15344034
v 0.08528783 -0.06328403 0.15254597
v 0.08259786 -0.06454122 0.15284602
v 0.07523951 -0.06962906 0.14673037
v 0.08959221 -0.06476494 0.14614911
v 0.07610897 -0.07116984 0.14305037
v 0.08903900 -0.07086000 0.13434650
v 0.08900650 -0.08062500 0.12217800
v 0.08413569 -0.06284769 0.15504363
v 0.09474800 -0.06456750 0.14312251
v 0.08428700 -0.07405800 0.13208000
v 0.10524500 -0.06808800 0.13319799
v 0.05775731 -0.07187550 0.18698034
v 0.05660000 -0.07707600 0.16994201
v 0.05283017 -0.07866319 0.18246315
v 0.05961200 -0.06964700 0.18642400
v 0.05076400 -0.08193000 0.18433300
v 0.05815900 -0.07921400 0.16602901
v 0.05628400 -0.08016300 0.16966499
v 0.05045650 -0.08664450 0.18374949
v 0.04870700 -0.08956750 0.18858051
v 0.04844121 -0.09180881 0.19225856
v 0.04617200 -0.09562800 0.19791401
v 0.04197900 -0.12305400 0.22363199
v 0.04295000 -0.13067000 0.22791100
v 0.03440291 -0.15921138 0.24885429
v 0.03625078 -0.16111620 0.25619469
v 0.03658664 -0.15432815 0.25652803
v 0.03704635 -0.15599103 0.25961933
v 0.03693780 -0.16586419 0.26167576
v 0.03654532 -0.16667514 0.26646752
v 0.03471119 -0.16380041 0.25166328
v 0.03238900 -0.16498099 0.24254800
v 0.03540797 -0.16871160 0.25738222
v 0.03515956 -0.15079187 0.24900435
v 0.03577023 -0.14303222 0.26037664
v 0.03696576 -0.14646614 0.26441060
v 0.03743040 -0.15228068 0.26893708
v 0.03707782 -0.15577134 0.27101275
v 0.03450413 -0.13696605 0.26682325
v 0.03248820 -0.17126667 0.25287113
v 0.03592771 -0.16122887 0.27458436
v 0.03304090 -0.13406586 0.26905663
v 0.03565250 -0.16887808 0.27078758
v 0.03375200 -0.17235825 0.25875675
v 0.03422525 -0.17191850 0.26708326
v 0.03236487 -0.13511319 0.25529350
v 0.02913350 -0.17069450 0.24447650
v 0.02787333 -0.12902922 0.25501111
v 0.04298302 -0.09583492 0.20802282
v 0.04564931 -0.09005100 0.19709915
v 0.03956199 -0.12802799 0.23252406
v 0.04027334 -0.11232892 0.22130042
v 0.03874680 -0.11080647 0.23303088
v 0.04118526 -0.13745000 0.23297719
v 0.03727351 -0.13674828 0.24286099
v 0.04088617 -0.14338089 0.23557461
v 0.03929803 -0.15226949 0.23817752
v 0.03425794 -0.15889373 0.24594096
v 0.03571862 -0.14564058 0.24700136
v 0.03469702 -0.14308814 0.25020222
v 0.03783374 -0.12440208 0.23959250
v 0.03455514 -0.15946298 0.24270887
v 0.04103206 -0.09911919 0.22428041
v 0.03764885 -0.11454464 0.23679421
v 0.04171936 -0.11827177 0.22079798
v 0.03502614 -0.13712988 0.24779074
v 0.03275799 -0.13647301 0.25239374
v 0.04247988 -0.10349154 0.20903987
v 0.04018394 -0.10222846 0.22702655
v 0.04188675 -0.11310238 0.21687555
v 0.03583250 -0.16128200 0.23916975
v 0.03378738 -0.11039364 0.23953745
v 0.02939490 -0.12772337 0.25203938
v 0.02449243 -0.12523685 0.25589337
v 0.04109562 -0.14970001 0.23646363
v 0.03988550 -0.15783450 0.23703200
f 65 71 8
f 65 69 71
f 71 69 90
f 69 83 90
f 90 83 89
f 96 90 89
f 71 90 96
f 97 71 96
f 7 97 96
f 95 7 96
f 84 95 96
f 95 84 87
f 87 76 95
f 95 76 92
f 95 92 86
f 12 95 86
f 95 12 16
f 12 86 11
f 76 74 92
f 92 74 75
f 86 92 75
f 86 75 72
f 11 86 72
f 11 72 73
f 73 72 45
f 73 45 44
f 44 43 73
f 73 43 42
f 39 73 42
f 15 73 39
f 39 42 41
f 36 39 41
f 36 41 40
f 36 40 18
f 21 36 18
f 37 36 21
f 35 37 21
f 37 35 10
f 9 37 10
f 14 37 9
f 37 14 39
f 38 10 35
f 38 35 13
f 35 21 13
f 13 21 19
f 22 19 21
f 22 21 26
f 23 22 26
f 23 26 27
f 27 26 32
f 26 28 32
f 32 28 29
f 34 32 29
f 29 28 33
f 25 23 27
f 24 25 27
f 24 20 25
f 20 24 31
f 20 23 25
f 20 22 23
f 20 13 22
f 26 21 28
f 13 19 22
f 21 18 28
f 28 18 30
f 33 28 30
f 37 39 36
f 72 91 45
f 11 73 15
f 72 75 91
f 75 93 91
f 46 91 93
f 46 93 88
f 75 46 88
f 75 47 46
f 47 75 74
f 47 74 77
f 84 77 74
f 77 84 79
f 84 80 79
f 78 80 84
f 89 78 84
f 89 82 78
f 82 80 78
f 82 85 80
f 80 85 94
f 85 55 94
f 48 55 85
f 48 54 55
f 63 55 54
f 63 70 55
f 67 70 63
f 56 67 63
f 52 67 56
f 66 67 52
f 66 68 67
f 53 66 52
f 64 66 53
f 3 66 64
f 3 6 66
f 2 3 64
f 5 2 64
f 5 64 17
f 64 61 17
f 17 61 60
f 61 53 60
f 17 60 59
f 60 52 59
f 59 52 51
f 59 51 50
f 59 50 57
f 58 59 57
f 62 59 58
f 62 58 69
f 69 58 57
f 50 49 57
f 57 49 48
f 57 48 81
f 81 85 57
f 57 85 82
f 83 57 82
f 69 57 83
f 51 49 50
f 52 49 51
f 17 59 62
f 62 65 17
f 1 17 65
f 4 5 17
f 4 17 1
f 61 64 53
f 60 53 52
f 52 56 49
f 49 56 54
f 54 56 63
f 49 54 48
f 79 80 98
f 98 80 99
f 79 98 77
f 87 84 74
f 98 47 77
f 75 88 93
f 87 74 76
f 95 16 7
f 71 97 7
f 89 84 96
f 83 82 89
f 65 62 69
f 8 71 7
f 65 8 1

