# https://github.com/mikedh/trimesh
v -0.05222000 -0.30110601 0.02635500
v -0.04296450 -0.29887187 0.03042138
v -0.01341777 -0.28940177 0.03569692
v -0.01812600 -0.29675300 0.03088450
v 0.08057600 -0.32557201 0.04004400
v 0.09369575 -0.33620175 0.04825000
v 0.07039000 -0.31626099 0.03677000
v 0.09796300 -0.34036150 0.04676625
v 0.09332275 -0.29217500 -0.00552762
v -0.15837800 -0.16554250 -0.05857450
v -0.13552800 -0.17462826 -0.06301875
v -0.08858325 -0.17853825 -0.06191400
v 0.04767000 -0.17509399 -0.06568700
v 0.04527750 -0.17686487 -0.06799675
v -0.18051856 -0.16699656 -0.06958487
v -0.10693300 -0.29424399 -0.00038700
v 0.04545710 -0.18099686 -0.07286656
v 0.07112200 -0.17644851 -0.07434700
v 0.03734574 -0.18034664 -0.07028699
v 0.01908818 -0.18244108 -0.06858197
v -0.00032100 -0.18380350 -0.06686575
v 0.01757900 -0.17971300 -0.06549400
v 0.02763766 -0.18669304 -0.07333568
v 0.02315224 -0.19075482 -0.07501829
v -0.02647000 -0.18481899 -0.06581000
v -0.00457042 -0.19135060 -0.07170364
v 0.04353224 -0.18604777 -0.07593708
v 0.02541598 -0.19725197 -0.07862148
v 0.04602898 -0.19548492 -0.08129899
v 0.07142100 -0.18775000 -0.08245100
v 0.03361900 -0.17875251 -0.06772900
v 0.07640800 -0.17424700 -0.07310200
v 0.05777190 -0.17538345 -0.06946166
v -0.08299487 -0.19154647 -0.07214275
v -0.06244513 -0.18514813 -0.06627021
v -0.05512713 -0.18983852 -0.06942960
v -0.12833079 -0.18997939 -0.07155175
v -0.13198790 -0.18519556 -0.06936417
v -0.05597586 -0.19387914 -0.07182180
v -0.15448300 -0.17988423 -0.06855209
v -0.05364047 -0.19699358 -0.07346529
v -0.03525973 -0.19584318 -0.07274269
v -0.08864731 -0.20658379 -0.07978435
v -0.09394289 -0.19229534 -0.07314260
v -0.10384811 -0.20371014 -0.07843817
v -0.05224077 -0.20307799 -0.07631400
v -0.14367652 -0.18561484 -0.06977731
v -0.12426572 -0.19243329 -0.07279559
v -0.10495023 -0.21326696 -0.08177266
v -0.13509134 -0.19475340 -0.07259324
v -0.05015240 -0.21379415 -0.08037608
v -0.08610060 -0.21696715 -0.08326956
v -0.06666703 -0.21296659 -0.08095800
v -0.03661667 -0.21337852 -0.07999610
v -0.00666768 -0.20773399 -0.07910101
v -0.02382236 -0.20193795 -0.07590964
v -0.00047581 -0.19572481 -0.07448975
v -0.00611177 -0.21526546 -0.08142053
v -0.02303825 -0.21843929 -0.08171245
v 0.01936589 -0.21365975 -0.08340311
v -0.04213270 -0.21966278 -0.08185091
v -0.02773434 -0.22746045 -0.08360256
v 0.01640709 -0.20735168 -0.08114302
v -0.12094063 -0.20587926 -0.07741427
v 0.08113300 -0.19211750 -0.08614050
v 0.06799388 -0.18600475 -0.08073000
v 0.04223359 -0.20748221 -0.08471380
v -0.13307706 -0.20034555 -0.07416197
v -0.08174224 -0.22598340 -0.08522858
v -0.15731881 -0.18822027 -0.07033786
v -0.10077178 -0.21949801 -0.08372297
v 0.08327380 -0.19718379 -0.08817799
v 0.08611100 -0.19361500 -0.08742100
v 0.09218700 -0.19442900 -0.08847100
v 0.09605050 -0.19381225 -0.08868700
v 0.07839609 -0.20437887 -0.08923767
v -0.10987269 -0.21743330 -0.08208854
v 0.09234681 -0.20476523 -0.09068539
v 0.08599537 -0.20400469 -0.09000329
v -0.09665549 -0.22200185 -0.08476868
v -0.10805539 -0.22174330 -0.08328326
v 0.03818090 -0.21517546 -0.08597475
v 0.00967122 -0.23027971 -0.08572161
v -0.00323971 -0.22699394 -0.08443491
v 0.07312124 -0.21045239 -0.08984172
v 0.09662650 -0.20284800 -0.09048650
v -0.13468067 -0.20633534 -0.07463344
v -0.03995934 -0.23245535 -0.08460407
v -0.08691286 -0.23167974 -0.08635303
v -0.14836000 -0.19261500 -0.07115900
v -0.01266773 -0.23274967 -0.08496657
v 0.02891607 -0.22484849 -0.08640602
v -0.03200766 -0.23806551 -0.08519938
v 0.02970017 -0.22928047 -0.08691193
v -0.09367500 -0.23260500 -0.08625300
v -0.07797128 -0.24036979 -0.08660552
v -0.10547308 -0.22889662 -0.08471944
v -0.13610721 -0.20320107 -0.07399524
v -0.05166476 -0.24085723 -0.08560462
v 0.03777419 -0.23035615 -0.08765381
v 0.07632318 -0.21779894 -0.09104470
v 0.11105869 -0.20086400 -0.08949063
v 0.02098100 -0.23633701 -0.08667000
v 0.03228550 -0.23632100 -0.08738000
v -0.00694517 -0.24094497 -0.08557971
v 0.04467165 -0.23336434 -0.08835356
v 0.09013075 -0.21336534 -0.09160337
v -0.09593458 -0.23513187 -0.08638198
v -0.15050666 -0.19633359 -0.07119843
v -0.17207700 -0.18431699 -0.07188000
v -0.10924668 -0.22889021 -0.08386891
v -0.08629900 -0.24078750 -0.08675800
v -0.04168075 -0.24374375 -0.08555400
v -0.00179700 -0.24236875 -0.08582525
v -0.01570575 -0.24300250 -0.08558100
v -0.10597600 -0.23421700 -0.08475000
v -0.09766850 -0.23758650 -0.08609550
v 0.09010862 -0.21875900 -0.09139425
v -0.16161300 -0.19169299 -0.07076000
v 0.09319800 -0.21773900 -0.09149100
v 0.09886275 -0.21240850 -0.09105875
v 0.02698900 -0.23957799 -0.08693900
v 0.06016050 -0.23315750 -0.08970050
v 0.05611200 -0.23364300 -0.08937100
v 0.08046800 -0.22314575 -0.09135800
v -0.09073600 -0.24101800 -0.08669000
v -0.15814345 -0.17491819 -0.06696789
v -0.14910975 -0.20514225 -0.07136763
v -0.11326975 -0.22853650 -0.08254275
v -0.14795984 -0.20237192 -0.07166462
v -0.16559801 -0.19132601 -0.07092100
v -0.13946176 -0.21087500 -0.07342825
v -0.13171200 -0.21647100 -0.07592000
v -0.14868400 -0.20979050 -0.07049938
v -0.07112741 -0.18182759 -0.06369174
v -0.04344376 -0.18547367 -0.06608591
v -0.05028450 -0.18160350 -0.06256050
v -0.11593934 -0.18019232 -0.06569058
v -0.12421540 -0.17732838 -0.06399233
v -0.14495437 -0.17568706 -0.06509859
v -0.13529316 -0.17925448 -0.06624448
v -0.15798301 -0.17112701 -0.06448700
v -0.16130620 -0.16999069 -0.06453173
v -0.16766850 -0.17665831 -0.06957919
v -0.17369738 -0.16800307 -0.06707606
v -0.17079430 -0.21950927 -0.05160762
v -0.14813500 -0.24373151 -0.03841350
v -0.12971100 -0.26888901 -0.02090000
v -0.17167525 -0.21322150 -0.05868569
v -0.15754588 -0.21995500 -0.06258275
v -0.13744000 -0.22348700 -0.07226600
v -0.17522500 -0.20777200 -0.06279000
v -0.12512850 -0.23262351 -0.07715050
v -0.11190250 -0.24678175 -0.08060375
v -0.12073550 -0.23976800 -0.07783100
v -0.11175900 -0.25033700 -0.07943600
v -0.10497900 -0.25525600 -0.08103300
v -0.09734000 -0.26227487 -0.08059225
v -0.10473825 -0.25802025 -0.07970625
v -0.09138250 -0.27233488 -0.07552312
v -0.08924600 -0.27483401 -0.07418600
v -0.09725250 -0.27125099 -0.07440400
v -0.10014800 -0.26703799 -0.07642400
v 0.10893950 -0.34115701 0.03478200
v 0.14015600 -0.31097299 -0.01292700
v 0.10501100 -0.34243599 0.03952100
v 0.12135763 -0.33287025 0.01657488
v 0.13368250 -0.31988825 -0.00275775
v 0.08948400 -0.29137349 -0.01196900
v 0.08808212 -0.27672337 0.00051838
v 0.08689685 -0.28805107 -0.01051531
v 0.08125754 -0.26026216 0.01318879
v 0.08684100 -0.27031800 0.00540200
v 0.08600100 -0.26772800 0.00731200
v 0.05041376 -0.30025204 0.00297374
v 0.05439089 -0.29964547 0.00110528
v 0.07096034 -0.29698356 -0.00694092
v 0.06102510 -0.29888422 -0.00223295
v 0.06855614 -0.29088372 -0.00163723
v 0.05917581 -0.26171720 0.02536551
v 0.06159609 -0.27328443 0.01515983
v 0.05231513 -0.27763124 0.01753906
v 0.05273302 -0.29667476 0.00370622
v 0.07982900 -0.24397250 0.02755600
v 0.08469568 -0.29306389 -0.01310414
v 0.04307664 -0.29787505 0.00833949
v 0.04026664 -0.30058745 0.00849233
v 0.02854165 -0.30008293 0.01549647
v 0.05258127 -0.26962985 0.02300433
v 0.08167300 -0.25466901 0.01740000
v 0.03311850 -0.30108599 0.01180850
v 0.07328816 -0.24699501 0.02832570
v 0.04413186 -0.27913187 0.02109737
v 0.08075100 -0.24732199 0.02391100
v 0.03693100 -0.30127901 0.00964550
v 0.03745044 -0.28713685 0.01917783
v 0.06859825 -0.25104925 0.02927925
v 0.05484300 -0.26626850 0.02505437
v 0.08354385 -0.25186266 0.02058687
v 0.08317700 -0.24683601 0.02568300
v 0.10386931 -0.30663821 0.00478284
v 0.10107525 -0.30156251 0.00249300
v -0.09511400 -0.30222699 -0.00022100
v -0.10081450 -0.29859600 -0.00030600
v -0.08477863 -0.30692411 0.00322065
v -0.07939600 -0.30872700 0.00441300
v -0.08957850 -0.30507401 0.00135550
v -0.05300325 -0.30550350 0.02026325
v -0.07386386 -0.30903329 0.00788372
v -0.05978775 -0.30750150 0.01601475
v -0.06630700 -0.30878499 0.01206600
v 0.08037450 -0.31752700 0.02714450
v 0.09195400 -0.31670001 0.01774900
v 0.10124625 -0.31422526 0.00969675
v -0.10409879 -0.29544145 -0.00300840
v -0.09401214 -0.29744425 -0.02481853
v -0.09772268 -0.29523307 -0.02363602
v -0.10441607 -0.28733099 -0.03401138
v -0.10625815 -0.28217646 -0.04670221
v -0.10296885 -0.28324766 -0.05093560
v -0.13323066 -0.25530388 -0.04415782
v -0.11149364 -0.27691689 -0.04864921
v -0.11216539 -0.28275333 -0.02497303
v -0.11001639 -0.28644885 -0.01746259
v -0.11672464 -0.28179339 -0.01183448
v -0.12839672 -0.26369639 -0.03309976
v -0.11390026 -0.27216544 -0.05487846
v -0.14456238 -0.24309438 -0.04294753
v -0.14763514 -0.23791764 -0.04816218
v -0.14811702 -0.23481931 -0.05421798
v -0.12032755 -0.26773168 -0.05012861
v -0.13001611 -0.26595550 -0.02481714
v -0.11426706 -0.26796167 -0.06192045
v -0.10513609 -0.27717642 -0.06042739
v -0.12216455 -0.26099473 -0.05950974
v -0.11062900 -0.27196899 -0.06087800
v -0.16093767 -0.22215577 -0.05632247
v -0.09440283 -0.29239824 -0.04078515
v -0.12639976 -0.25331016 -0.06318091
v -0.09248562 -0.30107323 -0.01333141
v -0.09751296 -0.28541025 -0.05447548
v -0.14457832 -0.23680512 -0.05689540
v -0.09168243 -0.29574178 -0.03592362
v -0.13050647 -0.26370655 -0.02862160
v -0.14984367 -0.23856997 -0.04317545
v -0.11288332 -0.26639463 -0.06616987
v -0.08771158 -0.30384177 -0.01245759
v -0.08309465 -0.30544233 -0.01543217
v -0.08675307 -0.29476834 -0.04491147
v -0.12109756 -0.25278206 -0.07040251
v -0.07824681 -0.30602626 -0.02082163
v -0.09349932 -0.28583023 -0.05760985
v -0.09963407 -0.27934735 -0.06331333
v -0.08480157 -0.30670786 -0.00436377
v -0.15384213 -0.22477231 -0.06028494
v -0.13923038 -0.23652637 -0.06386559
v -0.08872557 -0.28360771 -0.06450181
v -0.07690794 -0.29963926 -0.04021537
v -0.08140976 -0.29568373 -0.04630949
v -0.09429741 -0.28021529 -0.06621792
v -0.10206431 -0.27056271 -0.07297245
v -0.12356377 -0.24182614 -0.07512413
v -0.10439269 -0.26561648 -0.07545934
v -0.11208352 -0.25612209 -0.07649130
v 0.02463106 -0.30083599 0.01521406
v 0.01131392 -0.30273548 0.01223966
v 0.00245800 -0.30330700 0.01260700
v -0.01228925 -0.30636487 0.00658379
v -0.03599813 -0.30754869 0.01179804
v -0.04377300 -0.30909699 0.00929800
v -0.05646685 -0.30909955 0.01278953
v -0.05964281 -0.31062161 0.00643655
v -0.04419916 -0.31018093 0.00499604
v 0.01200911 -0.30429285 0.00377421
v -0.04659700 -0.31094101 0.00053900
v -0.05410749 -0.31182709 -0.00234509
v -0.04772773 -0.30829918 0.01316223
v -0.06999458 -0.31027038 0.00660956
v -0.00481690 -0.30333622 0.01478789
v 0.01402350 -0.29679099 0.02681050
v 0.00876648 -0.29780052 0.02507049
v -0.01174891 -0.29833676 0.02683922
v 0.02912100 -0.29793301 0.02345800
v -0.03905530 -0.29954957 0.02901777
v -0.06496937 -0.31098634 0.00323052
v -0.06130363 -0.31168475 -0.00656551
v 0.00956521 -0.30535350 -0.00438861
v -0.04577292 -0.31123088 -0.00330948
v -0.07631925 -0.30945257 0.00398158
v 0.00370100 -0.30578199 -0.01246500
v 0.01582375 -0.30446333 -0.01351978
v 0.06518160 -0.29682994 -0.02863345
v 0.04858453 -0.29938547 -0.02913520
v 0.05543517 -0.29733420 -0.03645510
v 0.06199850 -0.29644202 -0.03549267
v 0.00890732 -0.30450634 -0.02061076
v -0.04540131 -0.31091889 -0.01152129
v -0.00091440 -0.30616620 -0.01462622
v -0.02681463 -0.30823149 -0.01855404
v 0.03113972 -0.30166706 -0.02634820
v 0.04689181 -0.29881358 -0.03478498
v 0.05135547 -0.30056713 -0.01250563
v 0.03759193 -0.30199683 -0.01600437
v -0.05679827 -0.31164663 -0.00639550
v -0.07016350 -0.31083347 -0.00485217
v -0.00036971 -0.30458871 -0.02537789
v 0.06798710 -0.29463530 -0.04021640
v -0.05302852 -0.31064416 -0.01571010
v 0.07874079 -0.29331277 -0.03313613
v -0.04427826 -0.30870399 -0.02298061
v 0.08290300 -0.29305801 -0.02112700
v 0.07781685 -0.29160565 -0.04404077
v 0.06932819 -0.29285380 -0.04660216
v -0.07355328 -0.30927456 -0.01273512
v -0.05328243 -0.30870022 -0.02383851
v 0.04291941 -0.29598561 -0.04710844
v 0.07857254 -0.28919256 -0.05173932
v -0.06808100 -0.31045899 -0.01103500
v 0.01420663 -0.30104645 -0.03615548
v -0.06722622 -0.30884307 -0.02049377
v -0.06404324 -0.30851179 -0.02276189
v -0.07457909 -0.30963661 -0.00774872
v -0.05953860 -0.30944944 -0.02056015
v 0.03986165 -0.29826978 -0.04024609
v 0.08705954 -0.29097328 -0.02633490
v 0.08137038 -0.29434757 -0.01546829
v 0.08805723 -0.28893478 -0.03958156
v -0.04975815 -0.30722920 -0.02844380
v 0.00240191 -0.30083441 -0.03851615
v 0.08799259 -0.28621965 -0.05141886
v 0.05874232 -0.29437620 -0.04718798
v 0.06157752 -0.29139019 -0.05414815
v 0.04627641 -0.29345453 -0.05260935
v 0.09589265 -0.28361522 -0.04728769
v -0.04659756 -0.30497458 -0.03436214
v 0.08404169 -0.28703221 -0.05293786
v 0.02095139 -0.29729665 -0.04577212
v -0.05638800 -0.30418399 -0.03590200
v -0.04934384 -0.30070427 -0.04366515
v -0.02789564 -0.30000581 -0.04372073
v -0.06227048 -0.30522543 -0.03284506
v 0.08610492 -0.28327836 -0.06025015
v 0.09808946 -0.28389689 -0.03806469
v 0.06878029 -0.28908908 -0.05671594
v 0.09588833 -0.28197494 -0.05314472
v -0.05986932 -0.30162402 -0.04115384
v -0.07350297 -0.30518542 -0.02827418
v -0.07009198 -0.30264548 -0.03661341
v -0.06839411 -0.30112613 -0.04054918
v 0.09952832 -0.28674094 -0.01330512
v 0.09935042 -0.28554782 -0.01675705
v 0.04163690 -0.29186242 -0.05589139
v 0.00580527 -0.29625967 -0.04917544
v -0.04022438 -0.29698629 -0.05016439
v -0.06747696 -0.30002147 -0.04309327
v -0.06255449 -0.29711154 -0.04955756
v 0.11027047 -0.27767180 -0.02313879
v 0.09963000 -0.28110999 -0.04780000
v 0.07401753 -0.28548674 -0.06163463
v 0.09614994 -0.28705269 -0.01999716
v 0.05826366 -0.28663379 -0.06269964
v -0.04722917 -0.29538127 -0.05279202
v -0.07162252 -0.29329560 -0.05455998
v 0.10841967 -0.27791905 -0.02738917
v -0.07902742 -0.29424646 -0.05077435
v -0.01271569 -0.29001034 -0.05989679
v 0.03633694 -0.28973883 -0.05959013
v 0.09506911 -0.27970519 -0.05954530
v 0.10448614 -0.28504287 -0.01317115
v 0.10483750 -0.27963692 -0.03567943
v 0.08582515 -0.27696336 -0.06973991
v 0.09054130 -0.27905804 -0.06451399
v 0.11866500 -0.27292326 -0.02464650
v 0.10306364 -0.27815420 -0.05058192
v 0.06243349 -0.28321394 -0.06683207
v -0.03876000 -0.29381299 -0.05502500
v -0.03519821 -0.29277325 -0.05644264
v -0.05127569 -0.29073506 -0.05952234
v 0.02003922 -0.28922947 -0.06042815
v -0.06153557 -0.29240294 -0.05679850
v 0.11619948 -0.27193756 -0.02946179
v 0.11643895 -0.27100955 -0.03229096
v -0.08412429 -0.28307612 -0.06657074
v 0.12636175 -0.26533575 -0.03095987
v 0.04102614 -0.28469906 -0.06598659
v 0.07025029 -0.28036486 -0.06930339
v 0.08076788 -0.27727307 -0.07067938
v 0.09901504 -0.27573086 -0.06318580
v -0.01118415 -0.28319885 -0.06798011
v 0.10584294 -0.27101169 -0.06264405
v 0.12540752 -0.26349655 -0.03434657
v 0.10737968 -0.27191723 -0.05872200
v 0.00909492 -0.27962553 -0.07134994
v -0.05850929 -0.28348004 -0.06830282
v 0.06202956 -0.28001801 -0.07060440
v -0.07972033 -0.28569550 -0.06436751
v -0.06960040 -0.28217359 -0.06924803
v 0.13417315 -0.24950545 -0.04712938
v 0.12893704 -0.26078029 -0.03496744
v 0.11807279 -0.26816325 -0.03812093
v 0.12443010 -0.26168182 -0.04036772
v 0.10596070 -0.27769064 -0.04357665
v 0.13675632 -0.25016016 -0.04234956
v 0.10760866 -0.26805275 -0.06514368
v 0.05960525 -0.27658742 -0.07366099
v -0.05284812 -0.27848581 -0.07292543
v 0.13629800 -0.24587999 -0.05058500
v 0.11228641 -0.26886976 -0.05614519
v 0.09606154 -0.27120798 -0.07159976
v 0.10297292 -0.27025036 -0.06735890
v 0.14800300 -0.23083401 -0.05655600
v 0.11942726 -0.25995060 -0.05999516
v 0.14023859 -0.23998505 -0.05427887
v 0.09417495 -0.26816336 -0.07549537
v 0.11545257 -0.26744740 -0.05210549
v 0.12415900 -0.26067999 -0.04463700
v 0.11860948 -0.26339036 -0.05459780
v 0.12828097 -0.25018369 -0.05919433
v 0.13652378 -0.24077320 -0.05921031
v 0.11326300 -0.26216763 -0.06585696
v 0.11399857 -0.25835158 -0.06954043
v 0.14392500 -0.23108250 -0.06158750
v 0.14302599 -0.24519800 -0.04387200
v 0.12235481 -0.25511011 -0.06220954
v 0.14627500 -0.22292750 -0.06732450
v 0.13676961 -0.23546672 -0.06499450
v 0.12020693 -0.25372963 -0.06706623
v 0.14601199 -0.21499901 -0.07346700
v 0.11283243 -0.25450067 -0.07393836
v 0.13669671 -0.22835204 -0.07089311
v 0.11006623 -0.25732689 -0.07461950
v 0.12752753 -0.24102440 -0.07019548
v 0.11515115 -0.25068992 -0.07481488
v -0.04575201 -0.26611417 -0.08088406
v -0.07460200 -0.26813301 -0.08008800
v -0.08008634 -0.27027637 -0.07888232
v -0.08504853 -0.25835843 -0.08435084
v 0.07472476 -0.26419930 -0.08183375
v -0.07573723 -0.27242955 -0.07758925
v 0.05372257 -0.26522836 -0.08148694
v 0.05652357 -0.25974493 -0.08410411
v -0.08507410 -0.26277531 -0.08269005
v 0.04976653 -0.25728676 -0.08488588
v -0.00429840 -0.26389331 -0.08161636
v -0.09075871 -0.26304941 -0.08202311
v 0.07586637 -0.25429326 -0.08639189
v 0.08331008 -0.26167335 -0.08256773
v 0.05464077 -0.27103052 -0.07802584
v 0.05784969 -0.27511561 -0.07505382
v -0.02136188 -0.27263108 -0.07691908
v 0.06612413 -0.27383789 -0.07571378
v 0.03559293 -0.25340294 -0.08560831
v 0.07657745 -0.25117388 -0.08726336
v 0.00127567 -0.25584497 -0.08424687
v 0.07006267 -0.24574703 -0.08876717
v -0.04643414 -0.26025682 -0.08317507
v -0.08007005 -0.25973025 -0.08388912
v 0.08872925 -0.24613083 -0.08794915
v -0.02610173 -0.25603339 -0.08404870
v 0.08409220 -0.24365305 -0.08906942
v 0.02933528 -0.25068629 -0.08594062
v 0.05519900 -0.24604300 -0.08799700
v 0.07706845 -0.23443098 -0.09078621
v -0.09716785 -0.25543766 -0.08374220
v 0.08776889 -0.23297941 -0.09067609
v 0.06174941 -0.23970109 -0.08936981
v 0.02799613 -0.24478677 -0.08662172
v -0.09299448 -0.24900138 -0.08586290
v -0.03139791 -0.25229522 -0.08477852
v 0.09100134 -0.23979405 -0.08927890
v 0.09347817 -0.24835199 -0.08651796
v -0.10575612 -0.25002872 -0.08273788
v -0.08352204 -0.25098415 -0.08606723
v 0.09895267 -0.23143602 -0.08944187
v -0.04745328 -0.24967768 -0.08530753
v -0.08314096 -0.24647144 -0.08655908
v -0.00775003 -0.24857011 -0.08529868
v 0.09224037 -0.22563290 -0.09136974
v 0.10282083 -0.22619498 -0.08955561
v 0.10840489 -0.20713600 -0.08993648
v 0.11427000 -0.19872800 -0.08938300
v 0.12276038 -0.20325583 -0.08746983
v -0.09980574 -0.24344092 -0.08577868
v 0.11247951 -0.21294996 -0.08858486
v -0.10871822 -0.24023288 -0.08366026
v 0.09858217 -0.23922880 -0.08790966
v -0.11498406 -0.23583974 -0.08186285
v 0.09699053 -0.24918426 -0.08566590
v 0.09204848 -0.25956066 -0.08202218
v 0.10783830 -0.23190834 -0.08675001
v -0.12321260 -0.22610424 -0.07896301
v -0.13088590 -0.22230358 -0.07588232
v -0.14256884 -0.21373739 -0.07195207
v 0.12072092 -0.21772990 -0.08499794
v 0.10664687 -0.23812859 -0.08550654
v 0.09640191 -0.26035794 -0.08025313
v 0.12804121 -0.20880308 -0.08494672
v 0.14206137 -0.21231112 -0.07686063
v 0.12714317 -0.22034741 -0.08132124
v 0.12577875 -0.20145075 -0.08693700
v 0.13099400 -0.20529150 -0.08472500
v 0.10619248 -0.24722498 -0.08245802
v 0.08199054 -0.26698814 -0.07932578
v 0.11486116 -0.24274621 -0.07986047
v 0.08581533 -0.27160154 -0.07529107
v 0.07719037 -0.27301905 -0.07567216
v -0.07740161 -0.27596635 -0.07492096
v 0.10047549 -0.25804961 -0.07992275
v 0.13648850 -0.21056675 -0.08051325
v 0.14395700 -0.21421900 -0.07508900
v 0.10201694 -0.26444254 -0.07453486
v 0.13399911 -0.22196527 -0.07657021
v 0.12781799 -0.23126843 -0.07613328
v 0.12297033 -0.30104413 -0.01292230
v 0.12095319 -0.29481301 -0.01450990
v 0.12286625 -0.27621242 -0.02279885
v 0.13110501 -0.26625499 -0.03052100
v 0.13284600 -0.28296599 -0.02573600
v 0.12172654 -0.30560557 -0.00935756
v 0.12962525 -0.28139087 -0.02485511
v 0.10417761 -0.31940141 0.01127184
v 0.10561550 -0.30800905 0.00247240
v 0.12923816 -0.28935099 -0.02141626
v 0.13432600 -0.28576201 -0.02498500
v 0.14493575 -0.29241325 -0.02351400
v 0.13265986 -0.29416693 -0.01991853
v 0.08682159 -0.31916952 0.02182168
v 0.10462208 -0.29241632 -0.00495376
v 0.13467400 -0.26077750 -0.03417050
v 0.11741187 -0.28076673 -0.01782014
v 0.12468706 -0.27093295 -0.02630136
v 0.07550312 -0.31730418 0.03150140
v 0.10115825 -0.32570498 0.01996603
v 0.08768500 -0.32260200 0.02591100
v 0.11369544 -0.31711550 0.00417529
v 0.13835717 -0.29327143 -0.02141747
v 0.14348001 -0.28883351 -0.02493000
v 0.14491437 -0.29720531 -0.02141843
v 0.13942094 -0.30164024 -0.01597439
v 0.13171118 -0.31399029 -0.00357215
v 0.11966557 -0.32454410 0.01164287
v 0.13653324 -0.31009090 -0.00945543
v 0.13514491 -0.30521078 -0.01193374
v 0.11525557 -0.33443883 0.02501711
v 0.11860083 -0.33220578 0.01981646
v 0.11593065 -0.32899799 0.01907143
v 0.12247953 -0.31094016 -0.00475737
v 0.09900690 -0.33680524 0.04383541
v 0.09064874 -0.32414135 0.02546441
v 0.11418346 -0.32146529 0.00906110
v 0.11085772 -0.28262892 -0.01519320
v 0.10869940 -0.33124688 0.02643217
v 0.09845689 -0.32817133 0.02585720
v 0.12667773 -0.32636325 0.00786834
v 0.10157435 -0.33327639 0.03443102
v 0.14861099 -0.29311001 -0.02631500
v 0.13467475 -0.25477675 -0.03835250
v 0.08753726 -0.32673856 0.03233015
v 0.08934142 -0.32902818 0.03590547
v 0.25181163 -0.11498886 -0.10834857
v 0.16310350 -0.16515925 -0.09290775
v 0.14083875 -0.17096612 -0.08890350
v 0.19259325 -0.15405775 -0.10156200
v 0.11792850 -0.17580750 -0.08568300
v 0.18539999 -0.15736300 -0.09912900
v 0.25269624 -0.12454300 -0.11296100
v 0.23369225 -0.12603900 -0.11095575
v 0.21942000 -0.13718100 -0.10968400
v 0.23260800 -0.15918084 -0.11054528
v 0.21658300 -0.17601900 -0.09851000
v 0.15182599 -0.28610200 -0.03106700
v 0.19003400 -0.20589850 -0.07360500
v 0.24751901 -0.13622400 -0.11496000
v 0.20195724 -0.19156325 -0.08522825
v 0.17540449 -0.22828350 -0.05853900
v 0.16396500 -0.25319651 -0.04654750
v 0.16594950 -0.24822950 -0.04875000
v 0.24524499 -0.14075300 -0.11487600
v 0.14870212 -0.28089332 -0.03042429
v 0.13960074 -0.27296256 -0.03240284
v 0.15482413 -0.26629478 -0.03840988
v 0.15947969 -0.23652322 -0.05043607
v 0.15215021 -0.23898682 -0.04713845
v 0.14436452 -0.26666757 -0.03615406
v 0.15480293 -0.23728677 -0.04844720
v 0.14009372 -0.26666122 -0.03480341
v 0.16950483 -0.23625516 -0.05322082
v 0.13899987 -0.25769156 -0.03675082
v 0.15475869 -0.26942562 -0.03721316
v 0.17667088 -0.21428221 -0.06334761
v 0.19997001 -0.18767823 -0.08537436
v 0.20889969 -0.17747765 -0.09371013
v 0.21557722 -0.17054114 -0.09912297
v 0.17892988 -0.21813255 -0.06292801
v 0.22238036 -0.16213972 -0.10495825
v 0.22919001 -0.15435299 -0.10921500
v 0.16768410 -0.21983288 -0.05844422
v 0.18868500 -0.19647418 -0.07679097
v 0.21488784 -0.15157443 -0.11010069
v 0.23293004 -0.15003856 -0.11106918
v 0.23912574 -0.14195836 -0.11336631
v 0.21684520 -0.14742173 -0.11109665
v 0.21152111 -0.15044840 -0.10944340
v 0.20508679 -0.15746865 -0.10697737
v 0.18791726 -0.16397260 -0.10085455
v 0.19039859 -0.16794224 -0.10017976
v 0.17526651 -0.17034999 -0.09660448
v 0.15783937 -0.17881213 -0.09179969
v 0.14091171 -0.18227182 -0.08985884
v 0.13070009 -0.19478803 -0.08761848
v 0.12913466 -0.18479752 -0.08925874
v 0.12996200 -0.18915699 -0.08881500
v 0.22623597 -0.14429771 -0.11265199
v 0.12320802 -0.19354438 -0.08876841
v 0.14930416 -0.17622377 -0.09145914
v 0.11481662 -0.19188915 -0.08931767
v 0.23279199 -0.13620270 -0.11367790
v 0.14353194 -0.17436042 -0.09035903
v 0.24446252 -0.13311192 -0.11375048
v 0.18429148 -0.16214249 -0.09977348
v 0.17282937 -0.16774314 -0.09645975
v 0.13375474 -0.17999548 -0.08957708
v 0.10891184 -0.18872358 -0.08876767
v 0.22280382 -0.14261700 -0.11242961
v 0.20041887 -0.15272176 -0.10519940
v 0.12181160 -0.18094087 -0.08831821
v 0.23605281 -0.13126577 -0.11335218
v 0.25066237 -0.12678519 -0.11325554
v 0.16811269 -0.16551366 -0.09478152
v 0.22292775 -0.13778197 -0.11168464
v 0.25198949 -0.12083003 -0.11137447
v 0.10831029 -0.18197934 -0.08665932
v 0.17619691 -0.19058164 -0.08347774
v 0.16918318 -0.20440089 -0.07135236
v 0.16045749 -0.19583205 -0.08149290
v 0.17506362 -0.19490442 -0.07958264
v 0.18163548 -0.19891435 -0.07434187
v 0.18655405 -0.18485488 -0.08801708
v 0.17133600 -0.18754300 -0.08647400
v 0.16558181 -0.21753354 -0.05980024
v 0.16142278 -0.21276990 -0.06611997
v 0.16261770 -0.20123839 -0.07656099
v 0.15709588 -0.19207321 -0.08449509
v 0.21019152 -0.17066603 -0.09911163
v 0.15575163 -0.22583814 -0.05539487
v 0.18290928 -0.20097645 -0.07269883
v 0.21039223 -0.16484496 -0.10325461
v 0.20309626 -0.16367666 -0.10424491
v 0.22118168 -0.16003067 -0.10614941
v 0.18103540 -0.18092702 -0.09127529
v 0.15038841 -0.19841070 -0.08190623
v 0.17064450 -0.21098767 -0.06434644
v 0.14597331 -0.23857719 -0.04834192
v 0.16076879 -0.22467606 -0.05522934
v 0.16587251 -0.18518328 -0.08851403
v 0.14832744 -0.19025894 -0.08649550
v 0.15472639 -0.20794455 -0.07408995
v 0.21311331 -0.15864527 -0.10705913
v 0.17443664 -0.17491555 -0.09478729
v 0.13938101 -0.18630854 -0.08885057
v 0.14345323 -0.19528978 -0.08509794
v 0.15571500 -0.21188401 -0.07046600
v 0.16061670 -0.21855459 -0.06032706
v 0.14542823 -0.20456338 -0.07988033
v 0.13565933 -0.20058718 -0.08497550
v 0.14788670 -0.21817243 -0.07002918
v 0.15402465 -0.21989135 -0.06385377
v 0.15025265 -0.21906577 -0.06832707
f 204 215 16
f 204 217 215
f 217 218 215
f 218 217 219
f 218 219 223
f 219 222 223
f 231 223 222
f 221 223 231
f 221 231 230
f 230 231 242
f 231 235 242
f 242 235 239
f 250 242 239
f 256 242 250
f 262 256 250
f 262 155 256
f 155 262 264
f 155 264 156
f 156 264 159
f 263 159 264
f 263 264 261
f 264 250 261
f 261 250 246
f 261 246 253
f 260 261 253
f 257 261 260
f 257 161 261
f 161 160 261
f 160 162 261
f 160 161 436
f 436 161 439
f 436 439 450
f 450 439 507
f 450 507 406
f 406 507 394
f 394 507 397
f 397 507 396
f 396 507 161
f 396 161 383
f 396 383 257
f 365 396 257
f 363 396 365
f 380 396 363
f 396 380 378
f 378 394 396
f 366 394 378
f 394 366 389
f 393 394 389
f 393 389 385
f 385 395 393
f 449 393 395
f 395 405 449
f 405 451 449
f 451 438 449
f 451 506 438
f 506 451 395
f 395 386 506
f 387 506 386
f 505 506 387
f 505 503 506
f 503 447 506
f 489 447 503
f 488 447 489
f 488 489 496
f 496 489 505
f 496 505 414
f 409 414 505
f 505 371 409
f 372 409 371
f 388 409 372
f 410 409 388
f 410 511 409
f 431 511 410
f 431 508 511
f 511 508 414
f 502 508 431
f 502 488 508
f 488 502 504
f 495 488 504
f 494 495 504
f 499 494 504
f 499 504 512
f 512 504 513
f 512 513 430
f 510 512 430
f 510 498 512
f 509 512 498
f 509 497 512
f 509 500 497
f 482 497 500
f 500 480 482
f 500 481 480
f 481 118 480
f 480 118 478
f 480 478 479
f 484 480 479
f 484 479 494
f 497 484 494
f 494 479 490
f 479 486 490
f 490 486 495
f 495 486 471
f 471 486 470
f 474 470 486
f 474 478 470
f 478 460 470
f 478 465 460
f 478 463 465
f 465 463 460
f 460 463 455
f 463 466 455
f 463 467 466
f 466 467 462
f 462 467 452
f 467 461 452
f 467 477 461
f 122 477 467
f 122 115 477
f 115 475 477
f 477 475 469
f 477 469 454
f 452 477 454
f 452 454 444
f 444 454 434
f 454 456 434
f 454 459 456
f 459 469 456
f 473 456 469
f 456 473 457
f 473 437 457
f 473 468 437
f 483 468 473
f 483 473 476
f 112 483 476
f 112 126 483
f 483 126 117
f 116 483 117
f 116 487 483
f 487 485 483
f 485 487 472
f 487 154 472
f 487 153 154
f 492 153 487
f 491 492 487
f 129 492 491
f 129 133 492
f 132 492 133
f 132 493 492
f 493 151 492
f 493 134 151
f 132 134 493
f 129 491 487
f 492 151 153
f 472 154 157
f 472 157 158
f 464 472 158
f 483 472 464
f 445 464 158
f 445 437 464
f 437 445 442
f 442 445 436
f 442 436 435
f 442 435 434
f 434 435 436
f 158 160 445
f 485 472 483
f 129 487 116
f 112 476 475
f 113 112 475
f 99 112 113
f 93 99 113
f 93 113 105
f 105 113 114
f 103 105 114
f 83 105 103
f 91 105 83
f 84 91 83
f 62 91 84
f 91 62 88
f 88 93 91
f 88 96 93
f 89 96 88
f 89 108 96
f 96 108 117
f 108 111 117
f 108 97 111
f 87 111 97
f 87 132 111
f 87 128 132
f 87 130 128
f 130 109 128
f 119 128 109
f 70 119 109
f 70 131 119
f 70 110 131
f 144 110 70
f 40 144 70
f 127 144 40
f 127 145 144
f 145 15 144
f 10 15 145
f 143 10 145
f 10 143 142
f 10 142 140
f 11 10 140
f 139 11 140
f 139 140 141
f 138 139 141
f 141 44 138
f 141 38 44
f 141 40 38
f 141 143 40
f 38 40 47
f 38 47 70
f 38 70 37
f 70 50 37
f 70 90 50
f 90 109 50
f 109 68 50
f 68 109 98
f 98 109 87
f 68 98 87
f 64 68 87
f 49 64 87
f 77 49 87
f 87 81 77
f 49 77 81
f 49 81 71
f 71 81 80
f 80 81 97
f 49 71 80
f 49 80 43
f 52 43 80
f 52 80 69
f 69 80 89
f 89 80 95
f 80 108 95
f 52 69 61
f 61 69 62
f 59 61 62
f 58 59 62
f 58 54 59
f 56 54 58
f 55 56 58
f 63 55 58
f 63 58 60
f 63 60 82
f 67 63 82
f 67 82 85
f 85 82 101
f 107 85 101
f 107 101 125
f 107 125 120
f 121 107 120
f 86 107 121
f 86 78 107
f 75 78 86
f 623 75 86
f 616 623 86
f 623 616 611
f 626 623 611
f 632 623 626
f 562 632 626
f 564 632 562
f 564 30 632
f 632 30 65
f 632 65 73
f 632 73 75
f 562 626 618
f 618 626 615
f 615 626 622
f 615 622 611
f 615 611 609
f 608 615 609
f 607 615 608
f 659 607 608
f 659 608 655
f 650 659 655
f 650 606 659
f 648 606 650
f 648 650 644
f 644 650 638
f 591 644 638
f 644 591 592
f 593 644 592
f 649 644 593
f 649 647 644
f 649 648 647
f 658 648 649
f 599 658 649
f 649 569 599
f 569 649 595
f 569 595 593
f 569 593 570
f 570 593 592
f 592 591 570
f 591 574 570
f 574 591 594
f 594 591 590
f 594 590 587
f 594 587 575
f 594 575 572
f 575 587 577
f 587 576 577
f 576 587 582
f 576 582 584
f 586 584 582
f 586 580 584
f 580 586 517
f 588 517 586
f 529 517 588
f 423 529 588
f 583 423 588
f 583 588 582
f 585 583 582
f 583 585 597
f 654 583 597
f 597 640 654
f 654 640 645
f 645 653 654
f 654 653 423
f 645 667 653
f 667 668 653
f 641 668 667
f 662 668 641
f 662 657 668
f 664 668 657
f 664 498 668
f 668 498 666
f 666 425 668
f 668 425 423
f 666 498 425
f 665 498 664
f 651 665 664
f 661 665 651
f 661 656 665
f 656 660 665
f 660 610 665
f 610 102 665
f 665 102 501
f 610 614 102
f 614 616 102
f 660 614 610
f 660 612 614
f 611 612 660
f 611 614 612
f 655 660 656
f 655 656 643
f 643 656 651
f 643 651 635
f 642 635 651
f 651 657 642
f 634 642 657
f 657 641 634
f 652 634 641
f 652 641 640
f 641 663 640
f 641 645 663
f 636 634 652
f 637 636 652
f 637 652 646
f 646 652 590
f 590 652 597
f 582 590 597
f 590 598 646
f 598 637 646
f 598 591 637
f 591 633 637
f 637 633 636
f 655 636 633
f 636 655 635
f 633 639 655
f 639 638 655
f 638 639 633
f 636 642 634
f 635 642 636
f 643 635 655
f 651 656 661
f 665 501 498
f 651 664 657
f 641 657 662
f 668 423 653
f 641 667 645
f 663 645 640
f 652 640 597
f 597 585 582
f 423 583 654
f 529 557 517
f 557 531 517
f 531 557 373
f 551 531 373
f 551 530 531
f 530 551 528
f 528 551 9
f 9 551 369
f 528 9 522
f 531 530 516
f 520 516 530
f 523 520 530
f 530 515 523
f 515 530 528
f 515 528 514
f 514 528 519
f 519 528 522
f 519 522 521
f 522 201 521
f 522 202 201
f 202 522 9
f 535 519 521
f 521 533 535
f 533 550 535
f 535 550 547
f 540 547 550
f 550 541 540
f 540 541 542
f 539 540 542
f 538 539 542
f 538 542 165
f 165 542 168
f 554 168 542
f 546 554 542
f 546 545 554
f 545 167 554
f 545 544 167
f 544 166 167
f 548 166 544
f 546 548 544
f 548 6 166
f 166 6 8
f 166 164 167
f 545 546 544
f 554 167 168
f 537 539 538
f 537 536 539
f 526 539 536
f 526 514 539
f 539 514 543
f 539 543 540
f 523 514 526
f 524 523 526
f 537 524 526
f 518 523 524
f 537 526 536
f 543 547 540
f 543 519 547
f 541 550 533
f 541 533 552
f 546 541 552
f 552 533 553
f 555 552 553
f 555 553 558
f 555 558 559
f 5 559 558
f 6 559 5
f 5 558 7
f 7 558 532
f 212 532 558
f 212 558 527
f 558 534 527
f 549 534 558
f 533 549 558
f 533 527 549
f 213 527 533
f 534 549 527
f 6 555 559
f 548 555 6
f 548 552 555
f 546 552 548
f 553 533 558
f 521 213 533
f 213 521 214
f 521 201 214
f 519 535 547
f 543 514 519
f 523 515 514
f 518 520 523
f 517 520 518
f 517 516 520
f 373 369 551
f 517 531 516
f 525 580 517
f 579 580 525
f 581 580 579
f 581 579 589
f 576 581 589
f 576 589 571
f 589 579 571
f 571 579 525
f 525 556 571
f 581 584 580
f 582 588 586
f 576 584 581
f 590 582 587
f 591 598 590
f 594 572 574
f 658 599 648
f 599 604 648
f 599 603 604
f 604 603 620
f 604 620 605
f 620 621 605
f 620 629 621
f 561 621 629
f 561 562 621
f 561 629 620
f 565 561 620
f 563 565 620
f 563 620 625
f 568 563 625
f 568 625 630
f 630 625 602
f 624 630 602
f 627 630 624
f 627 567 630
f 631 567 627
f 631 627 628
f 566 631 628
f 566 628 573
f 628 627 617
f 628 617 619
f 628 619 578
f 619 601 578
f 601 600 578
f 601 613 600
f 613 601 617
f 617 624 613
f 613 599 600
f 613 602 599
f 600 599 596
f 578 600 569
f 600 596 569
f 619 617 601
f 560 567 631
f 617 627 624
f 624 602 613
f 603 602 625
f 567 568 630
f 605 621 607
f 621 618 607
f 604 605 607
f 603 625 620
f 602 603 599
f 649 593 595
f 591 638 633
f 647 648 644
f 604 606 648
f 604 607 606
f 638 650 655
f 608 660 655
f 659 606 607
f 608 609 660
f 609 611 660
f 607 618 615
f 621 562 618
f 622 626 611
f 611 616 614
f 616 86 102
f 623 632 75
f 75 72 78
f 78 72 79
f 78 79 85
f 76 85 79
f 76 72 85
f 79 72 76
f 75 74 72
f 74 65 72
f 29 72 65
f 72 29 63
f 29 28 63
f 57 63 28
f 57 28 24
f 24 26 57
f 26 56 57
f 26 42 56
f 42 46 56
f 46 51 56
f 46 53 51
f 51 53 52
f 46 43 53
f 46 34 43
f 34 46 41
f 41 39 34
f 42 39 41
f 42 36 39
f 136 36 42
f 136 35 36
f 135 35 136
f 137 135 136
f 137 136 25
f 25 136 26
f 21 25 26
f 20 21 26
f 22 21 20
f 22 20 31
f 31 20 19
f 14 31 19
f 14 19 17
f 19 27 17
f 66 17 27
f 66 27 29
f 27 24 29
f 23 24 27
f 20 23 27
f 20 24 23
f 18 17 66
f 33 17 18
f 32 33 18
f 13 33 32
f 13 14 33
f 33 14 17
f 19 20 27
f 137 12 135
f 135 12 139
f 135 138 35
f 35 138 34
f 36 35 34
f 36 34 39
f 34 44 43
f 43 44 45
f 44 48 45
f 45 48 49
f 44 37 48
f 41 46 42
f 26 136 42
f 26 24 20
f 24 28 29
f 66 29 65
f 101 106 125
f 125 106 123
f 123 106 104
f 106 83 104
f 100 83 106
f 100 94 83
f 82 94 100
f 82 92 94
f 82 83 92
f 92 83 94
f 101 100 106
f 78 85 107
f 101 82 100
f 72 67 85
f 72 63 67
f 82 60 83
f 58 84 60
f 57 55 63
f 57 56 55
f 56 51 54
f 54 51 61
f 54 61 59
f 51 52 61
f 53 43 52
f 43 45 49
f 49 48 64
f 48 50 64
f 50 68 64
f 37 50 48
f 44 38 37
f 138 44 34
f 139 138 135
f 12 11 139
f 143 145 127
f 40 70 47
f 90 70 109
f 109 130 87
f 87 97 81
f 80 97 108
f 96 117 112
f 89 95 108
f 69 89 88
f 62 69 88
f 84 58 62
f 60 84 83
f 83 103 104
f 91 93 105
f 93 96 99
f 99 96 112
f 475 476 473
f 468 483 464
f 468 464 437
f 457 437 442
f 456 457 442
f 456 442 434
f 448 444 434
f 440 444 448
f 438 440 448
f 446 440 438
f 446 441 440
f 446 443 441
f 446 452 443
f 455 452 446
f 455 446 453
f 460 453 446
f 458 460 446
f 458 446 471
f 447 471 446
f 443 444 441
f 446 438 447
f 441 444 440
f 448 434 450
f 452 444 443
f 469 459 454
f 475 473 469
f 115 113 475
f 106 122 467
f 124 106 467
f 461 477 452
f 455 462 452
f 124 467 463
f 118 124 463
f 455 466 462
f 460 455 453
f 470 460 458
f 470 458 471
f 479 474 486
f 479 478 474
f 118 463 478
f 482 480 484
f 482 484 497
f 510 430 428
f 425 428 430
f 425 430 426
f 426 430 432
f 430 504 432
f 504 433 432
f 504 431 433
f 433 431 429
f 433 429 421
f 429 431 421
f 421 431 420
f 420 431 404
f 412 420 404
f 412 404 392
f 408 412 392
f 417 412 408
f 417 398 412
f 398 417 415
f 398 415 416
f 401 416 415
f 401 415 400
f 415 402 400
f 402 415 374
f 408 374 415
f 402 374 358
f 402 358 334
f 402 334 343
f 370 402 343
f 382 402 370
f 382 370 364
f 357 382 364
f 381 382 357
f 373 382 381
f 373 391 382
f 401 382 391
f 391 398 401
f 403 398 391
f 403 413 398
f 403 411 413
f 411 422 413
f 422 419 413
f 422 426 419
f 426 427 419
f 419 427 418
f 418 427 424
f 412 424 427
f 427 421 412
f 432 421 427
f 418 424 412
f 413 419 418
f 413 418 407
f 398 407 418
f 413 407 398
f 399 403 391
f 399 384 403
f 384 399 373
f 399 391 373
f 373 381 357
f 369 373 357
f 369 357 350
f 369 350 9
f 9 350 169
f 350 351 169
f 360 169 351
f 351 364 360
f 360 327 169
f 360 343 327
f 169 327 325
f 325 327 309
f 327 312 309
f 327 317 312
f 327 330 317
f 334 330 327
f 345 330 334
f 374 345 334
f 374 388 345
f 392 388 374
f 390 388 392
f 388 368 345
f 368 342 345
f 368 372 342
f 342 330 345
f 330 342 336
f 336 342 317
f 359 317 342
f 371 359 342
f 371 386 359
f 359 386 375
f 359 375 361
f 375 385 361
f 361 385 367
f 385 379 367
f 367 379 353
f 353 379 366
f 353 366 354
f 366 377 354
f 377 376 354
f 376 377 378
f 376 378 354
f 378 362 354
f 354 362 356
f 362 380 356
f 354 356 339
f 339 356 346
f 346 356 355
f 356 363 355
f 341 346 355
f 341 355 349
f 349 355 365
f 349 365 348
f 258 348 365
f 365 259 258
f 259 365 249
f 258 259 249
f 347 258 249
f 347 249 251
f 314 347 251
f 320 347 314
f 320 348 347
f 341 348 320
f 321 341 320
f 323 341 321
f 315 341 323
f 315 328 341
f 328 335 341
f 335 338 341
f 335 346 338
f 310 335 328
f 310 319 335
f 329 335 319
f 353 335 329
f 353 340 335
f 335 340 339
f 337 353 329
f 333 353 337
f 333 352 353
f 333 361 352
f 361 333 332
f 344 361 332
f 313 344 332
f 344 313 317
f 313 332 331
f 307 313 331
f 307 331 294
f 294 331 301
f 331 316 301
f 331 333 316
f 301 316 324
f 316 319 324
f 316 337 319
f 301 324 319
f 301 319 300
f 300 319 306
f 306 319 299
f 300 306 299
f 296 300 299
f 298 300 296
f 303 300 298
f 303 293 300
f 302 293 303
f 302 303 175
f 175 303 291
f 175 291 287
f 287 291 290
f 290 291 298
f 287 290 298
f 287 298 297
f 298 299 297
f 297 299 310
f 297 310 308
f 310 315 308
f 276 297 308
f 276 308 304
f 308 286 304
f 308 323 286
f 323 320 286
f 286 320 318
f 318 305 286
f 314 305 318
f 314 322 305
f 322 314 254
f 305 322 254
f 305 254 205
f 289 305 205
f 278 305 289
f 285 305 278
f 271 285 278
f 271 272 285
f 272 276 285
f 276 286 285
f 271 276 272
f 273 276 271
f 275 276 273
f 275 288 276
f 288 275 273
f 287 288 273
f 274 287 273
f 191 287 274
f 191 274 266
f 266 274 268
f 266 268 267
f 267 268 279
f 279 268 273
f 279 273 269
f 279 269 282
f 281 279 282
f 281 282 3
f 3 282 4
f 4 282 2
f 2 282 284
f 284 282 208
f 208 282 277
f 208 277 271
f 277 269 271
f 269 270 271
f 208 271 211
f 284 208 2
f 2 208 1
f 1 208 207
f 208 209 207
f 208 210 209
f 210 211 209
f 209 205 207
f 3 280 281
f 280 188 281
f 266 281 188
f 283 188 280
f 281 266 279
f 269 277 282
f 269 273 270
f 266 267 279
f 191 266 265
f 188 191 265
f 188 195 191
f 187 195 188
f 187 175 195
f 175 187 186
f 183 175 186
f 179 183 186
f 182 179 186
f 186 196 182
f 196 186 188
f 182 196 193
f 189 182 193
f 189 181 182
f 180 181 189
f 172 181 180
f 172 179 181
f 177 179 172
f 170 177 172
f 170 185 177
f 171 185 170
f 173 170 172
f 174 173 172
f 199 174 172
f 199 172 190
f 194 199 190
f 200 199 194
f 184 200 194
f 192 172 180
f 192 180 197
f 197 180 198
f 180 189 198
f 189 193 198
f 198 193 196
f 172 192 184
f 181 179 182
f 179 177 183
f 177 176 183
f 177 178 176
f 176 178 175
f 183 176 175
f 186 187 188
f 274 273 268
f 270 273 271
f 271 278 211
f 278 289 211
f 211 289 206
f 289 205 206
f 205 254 203
f 254 240 203
f 254 247 240
f 248 247 254
f 251 248 254
f 243 248 251
f 248 243 216
f 248 216 240
f 240 216 217
f 216 243 217
f 243 238 217
f 243 241 238
f 243 252 241
f 249 252 243
f 249 257 252
f 241 252 253
f 241 253 234
f 234 220 241
f 234 219 220
f 241 220 238
f 217 238 220
f 240 247 248
f 203 240 217
f 285 286 305
f 276 304 286
f 288 297 276
f 287 297 288
f 175 287 191
f 178 302 175
f 178 177 302
f 177 292 302
f 177 326 292
f 309 292 326
f 311 309 326
f 169 311 326
f 311 169 309
f 292 309 295
f 309 307 295
f 294 292 295
f 292 294 293
f 326 177 169
f 292 293 302
f 291 303 298
f 296 299 298
f 293 301 300
f 293 294 301
f 295 307 294
f 312 313 307
f 332 333 331
f 337 316 333
f 319 337 329
f 299 319 310
f 310 328 315
f 308 315 323
f 320 323 321
f 318 320 314
f 251 254 314
f 243 251 249
f 348 258 347
f 341 349 348
f 341 338 346
f 335 339 346
f 340 354 339
f 353 354 340
f 353 352 367
f 361 367 352
f 344 359 361
f 317 359 344
f 336 317 330
f 312 317 313
f 309 312 307
f 325 309 169
f 357 351 350
f 351 357 364
f 364 370 360
f 370 343 360
f 343 334 327
f 358 374 334
f 382 400 402
f 401 400 382
f 401 398 416
f 418 412 398
f 415 417 408
f 374 408 392
f 404 390 392
f 390 404 410
f 412 421 420
f 432 433 421
f 426 432 427
f 422 425 426
f 430 513 504
f 512 497 499
f 499 497 494
f 494 490 495
f 495 471 488
f 431 504 502
f 431 410 404
f 410 388 390
f 388 372 368
f 372 371 342
f 511 414 409
f 508 496 414
f 488 496 508
f 471 447 488
f 489 503 505
f 505 387 371
f 387 386 371
f 386 395 375
f 447 438 506
f 438 448 449
f 395 451 405
f 449 448 393
f 393 448 406
f 375 395 385
f 385 389 379
f 389 366 379
f 377 366 378
f 362 378 380
f 380 363 356
f 355 363 365
f 249 365 257
f 397 396 394
f 394 393 406
f 448 450 406
f 434 436 450
f 439 161 507
f 445 160 436
f 383 161 257
f 257 260 252
f 252 260 253
f 253 246 234
f 246 233 234
f 235 233 246
f 234 233 236
f 227 234 236
f 222 234 227
f 233 227 236
f 231 227 233
f 261 162 263
f 162 163 263
f 159 263 163
f 155 255 256
f 155 150 255
f 255 150 149
f 237 255 149
f 242 255 237
f 245 237 149
f 228 237 245
f 244 228 245
f 244 245 147
f 232 244 147
f 225 244 232
f 225 224 244
f 244 224 223
f 223 226 244
f 226 221 244
f 215 224 225
f 225 232 16
f 16 232 148
f 148 232 147
f 244 221 228
f 229 237 228
f 229 230 237
f 228 230 229
f 147 245 149
f 147 149 146
f 150 152 149
f 146 149 152
f 264 262 250
f 242 256 255
f 239 246 250
f 246 239 235
f 231 233 235
f 242 237 230
f 228 221 230
f 226 223 221
f 222 227 231
f 219 234 222
f 218 223 224
f 217 220 219
f 215 218 224
f 203 217 204
f 16 215 225

