# https://github.com/mikedh/trimesh
v -0.33081182 0.02521400 -0.19884881
v -0.32118275 0.03657500 -0.18157750
v -0.32532400 0.05032600 -0.18624599
v -0.32827001 0.05464900 -0.19175699
v -0.31615099 0.16693000 -0.20276999
v -0.31900325 0.16900850 -0.20983150
v -0.32978100 0.14226501 -0.21627000
v -0.33501500 0.13473149 -0.22235600
v -0.31584300 0.17378900 -0.22122600
v -0.32954223 0.07229822 -0.21019308
v -0.33626349 0.08852350 -0.22360851
v -0.33417571 0.11617677 -0.22737664
v -0.33540050 0.11081450 -0.22718900
v -0.33041599 0.06552700 -0.20645900
v -0.33000299 0.06300800 -0.20344100
v -0.33828701 0.12561649 -0.22686450
v -0.33329301 0.02436800 -0.20872341
v -0.32754852 0.02220265 -0.20190103
v -0.31424028 0.02086180 -0.20416925
v -0.33899776 0.02826179 -0.21843095
v -0.32366694 0.03029634 -0.22943444
v -0.31659143 0.02449072 -0.21901010
v -0.34332821 0.03333120 -0.22747406
v -0.31836200 0.02119975 -0.18451250
v -0.32535947 0.02144874 -0.19427600
v -0.30997596 0.01655095 -0.19368607
v -0.31231913 0.02475488 -0.22747629
v -0.34832970 0.04080434 -0.23614991
v -0.34243651 0.03189950 -0.21922050
v -0.31761287 0.03434699 -0.23658247
v -0.31486727 0.02997913 -0.23196401
v -0.31460960 0.02389676 -0.22089676
v -0.31350663 0.03483163 -0.23938300
v -0.35306037 0.05362300 -0.24140288
v -0.30765975 0.02770525 -0.23671975
v -0.35024512 0.04704187 -0.23979400
v -0.34683476 0.03714875 -0.22926850
v -0.32727700 0.02397300 -0.19252200
v -0.30678999 0.02464400 -0.23491900
v -0.31397650 0.02079671 -0.20937570
v -0.30998500 0.02146725 -0.22685600
v -0.35327099 0.04979300 -0.23835349
v -0.32302281 0.17193111 -0.24165658
v -0.33922903 0.15283924 -0.25262910
v -0.34847701 0.13007700 -0.25399300
v -0.33194981 0.16014351 -0.24792102
v -0.34493346 0.14898458 -0.25180166
v -0.34687842 0.14252929 -0.25445798
v -0.34710601 0.14488199 -0.25123200
v -0.34362750 0.15207500 -0.24734950
v -0.33913401 0.15730900 -0.24268950
v -0.35045399 0.12172150 -0.25077900
v -0.32802220 0.16494613 -0.24010172
v -0.32833032 0.16338805 -0.24676891
v -0.32373176 0.16812652 -0.23299280
v -0.33090699 0.16384500 -0.23133799
v -0.35065800 0.11451900 -0.25065699
v -0.35064360 0.09659272 -0.25030033
v -0.32869500 0.16509400 -0.22649699
v -0.32094457 0.17015621 -0.22966765
v -0.32315800 0.16818701 -0.22050400
v -0.32570705 0.16707142 -0.23837284
v -0.35398901 0.05862400 -0.24201401
v -0.34939068 0.04063097 -0.22941490
v -0.34078022 0.03160772 -0.21262931
v -0.34276624 0.12596981 -0.23030751
v -0.33410220 0.13955588 -0.22078617
v -0.34198664 0.14257165 -0.23568111
v -0.32822491 0.14887199 -0.21444510
v -0.34266252 0.15366585 -0.24168344
v -0.34823511 0.08675804 -0.22994155
v -0.34663203 0.10589997 -0.23115176
v -0.34910101 0.12869386 -0.24572529
v -0.35172705 0.10850336 -0.24566517
v -0.35331602 0.08326376 -0.24325341
v -0.34437080 0.07757571 -0.22066662
v -0.34230424 0.06997446 -0.21628635
v -0.34306753 0.12089931 -0.22946510
v -0.35453239 0.05919315 -0.23918551
v -0.35438494 0.05214017 -0.23732443
v -0.34070724 0.06746728 -0.21279487
v -0.34568662 0.03671313 -0.22096720
v -0.33613240 0.06003836 -0.20385994
v -0.33328989 0.05406863 -0.19887653
v -0.34001598 0.12858451 -0.22687640
v -0.32989064 0.02566279 -0.19550815
v -0.32636521 0.16457921 -0.21810439
v -0.35124930 0.11705894 -0.24808750
v -0.34936521 0.13682310 -0.25103569
v -0.34571499 0.09344326 -0.22671387
v -0.34420496 0.11151101 -0.22970921
v -0.33711813 0.06398289 -0.20740933
v -0.34542135 0.08585584 -0.22399270
v -0.34415845 0.08190571 -0.22211476
v -0.34584015 0.10209645 -0.22904815
v -0.34334302 0.11421345 -0.22967880
v -0.33897389 0.10380242 -0.22846086
f 81 82 83
f 83 82 65
f 83 65 84
f 83 84 4
f 4 92 83
f 83 92 81
f 92 77 81
f 10 77 92
f 10 92 14
f 14 92 15
f 4 15 92
f 10 11 77
f 77 11 94
f 94 76 77
f 94 93 76
f 11 93 94
f 11 90 93
f 11 97 90
f 97 95 90
f 96 95 97
f 13 96 97
f 12 96 13
f 12 85 96
f 85 78 96
f 85 66 78
f 85 67 66
f 67 85 7
f 69 67 7
f 69 68 67
f 69 70 68
f 70 69 87
f 87 59 70
f 6 59 87
f 6 87 5
f 6 61 59
f 59 51 70
f 70 51 50
f 70 50 49
f 50 47 49
f 49 47 48
f 48 57 49
f 48 45 57
f 51 47 50
f 51 44 47
f 46 44 51
f 54 46 51
f 53 54 51
f 55 54 53
f 55 53 56
f 9 55 56
f 60 55 9
f 60 43 55
f 43 62 55
f 62 43 54
f 56 53 51
f 46 54 44
f 56 51 59
f 5 87 69
f 68 70 49
f 68 49 66
f 49 72 66
f 49 73 72
f 73 74 72
f 88 74 73
f 74 88 75
f 88 58 75
f 52 58 88
f 88 89 52
f 75 58 63
f 75 63 79
f 79 63 80
f 80 63 34
f 80 34 42
f 80 42 37
f 64 80 37
f 64 37 29
f 82 64 29
f 82 80 64
f 65 82 29
f 1 65 29
f 1 29 20
f 20 29 36
f 17 1 20
f 1 17 25
f 18 25 17
f 18 19 25
f 26 25 19
f 19 40 26
f 40 19 22
f 40 22 32
f 32 41 40
f 27 41 32
f 27 31 41
f 31 39 41
f 39 31 35
f 35 31 33
f 30 33 31
f 36 33 30
f 28 36 30
f 31 28 30
f 31 21 28
f 32 21 31
f 21 23 28
f 22 23 21
f 20 23 22
f 22 17 20
f 17 22 19
f 27 32 31
f 32 22 21
f 18 17 19
f 24 1 25
f 74 75 71
f 75 79 71
f 71 79 77
f 80 77 79
f 81 77 80
f 76 71 77
f 76 93 71
f 90 71 93
f 95 71 90
f 95 72 71
f 91 72 95
f 91 78 72
f 49 88 73
f 72 74 71
f 5 69 7
f 68 66 67
f 78 66 72
f 12 16 85
f 8 85 16
f 96 91 95
f 13 97 11
f 84 65 4
f 4 65 1
f 4 1 86
f 4 86 2
f 2 86 38
f 3 4 2
f 81 80 82

