# https://github.com/mikedh/trimesh
v 0.21532653 0.34442309 -0.14529731
v 0.22177810 0.34741417 -0.13995839
v 0.21991000 0.33429500 -0.13814500
v 0.22357955 0.36544047 -0.14640946
v 0.21445500 0.32918449 -0.14238250
v 0.21288700 0.32599699 -0.14357400
v 0.21475839 0.35159702 -0.14915584
v 0.21279684 0.33353254 -0.14472423
v 0.21972231 0.36815464 -0.15272196
v 0.22191000 0.38039401 -0.16449399
v 0.21820881 0.36935887 -0.15635861
v 0.22931442 0.38438442 -0.15539433
v 0.21988650 0.37486200 -0.16080649
v 0.22593551 0.36800701 -0.14454921
v 0.21396799 0.34863299 -0.14928301
v 0.22355300 0.35532251 -0.14100501
v 0.22843332 0.38106049 -0.15290773
v 0.22345401 0.38425401 -0.16697600
v 0.21319700 0.34218051 -0.14768050
v 0.23149727 0.38914045 -0.15867943
v 0.21680900 0.36359776 -0.15470300
v 0.22698692 0.38748290 -0.16337780
v 0.23002091 0.39091461 -0.16375121
v 0.23671775 0.39791294 -0.17072045
v 0.22758999 0.39128000 -0.17463601
v 0.22993188 0.39417297 -0.17729368
v 0.23071600 0.39477301 -0.18028300
v 0.23955708 0.40073288 -0.17509390
v 0.23397741 0.39716722 -0.17757819
v 0.23292400 0.39606801 -0.18477800
v 0.24606401 0.40386301 -0.18732600
v 0.24720659 0.40368820 -0.19036223
v 0.25340250 0.40394099 -0.19982450
v 0.24945650 0.40371899 -0.19493550
v 0.26175525 0.40040875 -0.21226775
v 0.24241742 0.40206792 -0.18332174
v 0.23517200 0.39780501 -0.18805000
v 0.23826500 0.39938249 -0.19241450
v 0.24399400 0.40124199 -0.19714101
v 0.26726575 0.40202952 -0.21808648
v 0.27416440 0.39956016 -0.22849954
v 0.27423787 0.39153709 -0.22951196
v 0.27891478 0.39020518 -0.23561263
v 0.28196283 0.38391209 -0.23989161
v 0.25182383 0.40918489 -0.19224543
v 0.23577386 0.39919046 -0.16361636
v 0.27620878 0.39804127 -0.23186203
v 0.29227900 0.34132500 -0.25735049
v 0.29143900 0.33464599 -0.25621101
v 0.22382714 0.37789777 -0.13868214
v 0.26447365 0.40783616 -0.21307047
v 0.24511862 0.40727248 -0.18067477
v 0.22915513 0.38186323 -0.15003919
v 0.22914100 0.38500401 -0.14882100
v 0.23204083 0.39201730 -0.15545215
v 0.22640200 0.37347901 -0.14328900
v 0.22269438 0.37343177 -0.13645436
v 0.23532065 0.40304262 -0.16269070
v 0.24307780 0.40506608 -0.17745145
v 0.28681224 0.37171434 -0.24764445
v 0.25481889 0.41651372 -0.19985062
v 0.22567791 0.38889566 -0.14341906
v 0.29482775 0.31812399 -0.26308925
v 0.28508293 0.36658347 -0.24622234
v 0.22540551 0.39284100 -0.14421099
v 0.23056364 0.39803108 -0.15335879
v 0.29348924 0.35076695 -0.26209478
v 0.28224828 0.37751413 -0.24094248
v 0.29414482 0.34480021 -0.26319175
v 0.28277715 0.39089089 -0.24381561
v 0.28657762 0.38210764 -0.25052817
v 0.28304846 0.34308609 -0.25035605
v 0.28840493 0.33103117 -0.25325891
v 0.27710413 0.39900539 -0.23426514
v 0.29483461 0.33589001 -0.26432829
v 0.29177862 0.34920398 -0.25613752
v 0.29130392 0.35932881 -0.25689708
v 0.29085210 0.36546258 -0.25793660
v 0.22732271 0.37554630 -0.14553019
v 0.26667171 0.39920591 -0.21850352
v 0.22663787 0.39791900 -0.14750351
v 0.29186808 0.36146243 -0.25950924
v 0.27072813 0.40984963 -0.22715012
v 0.28960699 0.32876301 -0.25436100
v 0.29056145 0.36826979 -0.25722717
v 0.22876425 0.40482600 -0.15377675
v 0.25871592 0.40963069 -0.20275670
v 0.27560097 0.40367793 -0.23402842
v 0.26652941 0.41377685 -0.22163327
v 0.22455200 0.35896951 -0.14010199
v 0.26258391 0.41678579 -0.21586844
v 0.25776832 0.41852831 -0.20756128
v 0.25636187 0.42001305 -0.20568287
v 0.23465014 0.40888725 -0.16391942
v 0.23218461 0.41140613 -0.16263504
v 0.23496821 0.41489852 -0.16890795
v 0.24046461 0.41888673 -0.17915483
v 0.24611093 0.42029500 -0.18844634
v 0.27315029 0.40740057 -0.23074856
v 0.28495601 0.35600799 -0.24794200
v 0.28288499 0.36316499 -0.24501599
v 0.28253399 0.33289750 -0.25202100
v 0.27154550 0.39057849 -0.22731750
v 0.27020601 0.39273549 -0.22512875
v 0.26435399 0.39920199 -0.21606299
v 0.28162000 0.36813851 -0.24286200
v 0.27575774 0.38291300 -0.23375899
v 0.24947184 0.42116789 -0.19475845
v 0.25958263 0.40189813 -0.20899338
v 0.29512555 0.32629178 -0.26434886
v 0.28940756 0.37328197 -0.25499931
v 0.28524676 0.38595204 -0.24847432
v 0.28211147 0.39387766 -0.24333864
v 0.27726994 0.40199105 -0.23654644
v 0.28069738 0.39608592 -0.24158508
v 0.25474970 0.42059171 -0.20332694
v 0.25282668 0.42089021 -0.20010628
v 0.26052169 0.41840818 -0.21235810
v 0.24767286 0.42117795 -0.19170548
v 0.26710600 0.36832300 -0.24470000
v 0.27584577 0.36918757 -0.24194201
v 0.27647284 0.37634618 -0.23727078
v 0.27051044 0.38400411 -0.23217019
v 0.25854018 0.39130631 -0.22605286
v 0.25949976 0.38798925 -0.22940850
v 0.27179144 0.38571574 -0.23055125
v 0.26308650 0.37956050 -0.23713501
v 0.26558703 0.37696766 -0.23969622
v 0.26484164 0.39384572 -0.22178387
v 0.26746642 0.39221413 -0.22393014
v 0.26371541 0.39564825 -0.21934608
v 0.26680135 0.38289165 -0.23440151
v 0.26178300 0.38293901 -0.23427700
v 0.25431900 0.39394851 -0.22057700
v 0.26055022 0.39857654 -0.21441329
v 0.24896293 0.39905425 -0.20986844
v 0.24345249 0.39959051 -0.20228750
f 94 86 81
f 94 95 86
f 96 95 94
f 97 96 94
f 97 94 98
f 94 52 98
f 61 98 52
f 98 61 119
f 108 119 61
f 117 108 61
f 117 61 92
f 117 92 116
f 116 92 93
f 92 61 87
f 92 87 91
f 92 91 118
f 91 87 83
f 91 83 89
f 87 51 83
f 51 87 40
f 87 80 40
f 87 35 80
f 87 45 35
f 45 34 35
f 32 34 45
f 45 52 32
f 52 31 32
f 59 31 52
f 59 36 31
f 29 36 59
f 36 29 37
f 36 37 32
f 32 37 38
f 39 32 38
f 34 32 39
f 34 39 137
f 34 137 136
f 34 136 135
f 135 136 134
f 135 134 124
f 135 124 131
f 105 135 131
f 105 109 135
f 109 34 135
f 33 34 109
f 105 131 130
f 130 131 129
f 129 124 130
f 130 124 132
f 132 126 130
f 126 132 123
f 123 132 128
f 128 132 127
f 132 133 127
f 132 125 133
f 123 128 122
f 128 120 122
f 121 122 120
f 122 121 106
f 122 106 107
f 126 122 107
f 106 121 120
f 126 123 122
f 130 126 107
f 104 130 107
f 124 125 132
f 105 130 104
f 80 105 104
f 131 124 129
f 37 29 30
f 29 27 30
f 29 26 27
f 29 24 26
f 28 24 29
f 59 28 29
f 59 24 28
f 46 24 59
f 46 23 24
f 46 55 23
f 24 23 26
f 23 25 26
f 23 18 25
f 18 23 22
f 23 20 22
f 10 22 20
f 20 12 10
f 17 10 12
f 17 9 10
f 17 4 9
f 14 4 17
f 53 14 17
f 53 17 20
f 55 53 20
f 55 54 53
f 55 62 54
f 58 62 55
f 66 62 58
f 94 66 58
f 62 66 94
f 94 58 59
f 58 46 59
f 58 55 46
f 62 53 54
f 62 79 53
f 62 50 79
f 50 56 79
f 56 14 79
f 90 14 56
f 14 90 16
f 16 2 14
f 2 7 14
f 2 1 7
f 7 1 8
f 8 15 7
f 8 19 15
f 2 8 1
f 3 8 2
f 3 5 8
f 5 6 8
f 50 57 56
f 55 20 23
f 79 14 53
f 14 7 4
f 9 4 7
f 9 7 11
f 7 21 11
f 11 21 13
f 10 9 11
f 10 11 13
f 22 10 18
f 31 36 32
f 80 35 103
f 80 103 42
f 42 103 64
f 64 103 106
f 64 106 101
f 64 101 100
f 42 64 68
f 44 68 64
f 44 64 60
f 76 60 64
f 64 72 76
f 76 72 73
f 76 73 84
f 76 84 49
f 76 49 48
f 48 63 76
f 76 63 75
f 69 76 75
f 76 69 67
f 77 76 67
f 82 77 67
f 78 77 82
f 111 77 78
f 111 78 85
f 111 70 77
f 70 111 71
f 70 71 112
f 70 60 77
f 63 110 75
f 72 102 73
f 84 73 102
f 60 76 77
f 70 44 60
f 74 44 70
f 74 70 115
f 74 115 114
f 74 114 88
f 88 114 99
f 83 88 99
f 88 47 74
f 41 47 88
f 51 41 88
f 41 43 47
f 47 43 44
f 42 44 43
f 42 43 41
f 40 42 41
f 113 115 70
f 74 47 44
f 44 42 68
f 40 80 42
f 51 40 41
f 83 51 88
f 45 87 61
f 61 52 45
f 59 52 94
f 81 62 94
f 81 65 62

