# https://github.com/mikedh/trimesh
v 0.00364741 -0.03942954 0.19006644
v 0.00535450 -0.03547200 0.18414899
v -0.00817250 -0.03574475 0.19409375
v -0.01185050 -0.03140200 0.19012450
v -0.05325009 -0.00515420 0.07292147
v -0.05591615 -0.00810348 0.07078308
v -0.05171100 0.00316650 0.09525850
v -0.01779250 -0.01057463 0.16020531
v -0.01305200 -0.02047050 0.17679350
v -0.02268950 0.00392175 0.13121200
v -0.06303212 -0.00369625 0.08539288
v -0.01277200 -0.00488400 0.14634500
v -0.00960200 0.00039900 0.09342900
v -0.01020041 0.00003122 0.09922346
v -0.00836992 -0.00012270 0.08832676
v 0.00630500 0.00185850 0.08518200
v 0.01617020 0.00039596 0.08247366
v -0.03612993 0.00058372 0.08306994
v -0.03098994 0.00554293 0.09299863
v -0.02160666 0.00186091 0.08693978
v -0.03467310 0.00901621 0.10075680
v -0.02931169 0.00962825 0.10914666
v -0.02422450 0.00940496 0.11069869
v -0.02769949 0.00758985 0.09877481
v -0.02039104 0.00787070 0.10386190
v -0.04700738 0.00490167 0.09322593
v -0.03700125 0.00239994 0.08692878
v -0.04208787 0.00420679 0.09048047
v 0.01729580 0.00763779 0.09744334
v 0.01252500 0.00888600 0.10241800
v 0.00918838 0.00948613 0.10418025
v 0.00505405 0.00773237 0.09932708
v 0.02283950 0.00446275 0.09065800
v 0.00307302 0.00785176 0.10112152
v 0.00753473 0.00664833 0.09595263
v -0.00167791 0.00725938 0.10493276
v 0.02325732 -0.00225735 0.07856564
v -0.04671333 -0.00338999 0.07787652
v 0.03478350 -0.00770800 0.07235200
v -0.05677870 -0.00379304 0.08032754
v -0.00601700 0.00316200 0.09670800
v 0.00186805 0.00905060 0.10915703
v 0.00480372 0.00900278 0.11557138
v 0.01635479 0.00854927 0.10317852
v 0.00689346 0.00969738 0.11117541
v -0.03800560 0.00868551 0.10175263
v 0.01916600 0.00775250 0.09963400
v -0.00270000 0.00702600 0.11532600
v 0.00180988 0.00692477 0.12383691
v -0.04263274 0.00699976 0.10010562
v -0.02223077 0.00871812 0.11787803
v -0.01976786 0.00764665 0.11934000
v -0.00263100 0.00650600 0.12105600
v -0.02767209 0.00913352 0.11547710
v 0.01182313 0.00938144 0.10725004
v 0.00170550 0.00588370 0.12679386
v -0.02007753 0.00698200 0.12391667
v -0.02130661 0.00546898 0.12931923
v -0.01804600 0.00464300 0.12948300
v -0.01716706 0.00512718 0.12641485
v -0.01918555 0.00231498 0.13682893
v -0.00408200 0.00130300 0.13638000
v -0.00251895 -0.00114279 0.14328050
v -0.01437419 -0.00094816 0.14087293
v -0.00987425 -0.01257700 0.16110775
v -0.01720989 -0.00417028 0.15023761
v -0.00692100 -0.00736600 0.15503900
v -0.01530174 -0.00298071 0.14804093
v 0.00456099 0.00764886 0.12056425
v -0.01311275 -0.00619731 0.15228425
v -0.01241220 -0.01325387 0.16688547
v -0.00880362 -0.01645920 0.17193004
v -0.01240755 -0.01745860 0.17334866
v -0.00357699 -0.00555974 0.15197155
v -0.01121348 -0.02675258 0.18522646
v -0.01122929 -0.00786937 0.14807499
v 0.01079375 0.00760275 0.11335850
v 0.00358466 0.00035424 0.13531080
v 0.01303100 -0.00930000 0.14300901
v 0.01850000 -0.00869000 0.13697299
v 0.01542300 -0.02049900 0.15788200
v 0.01601900 -0.01476400 0.14905200
v 0.01425079 -0.02287577 0.16244318
v 0.01095748 -0.02650782 0.16973828
v 0.00874325 -0.02986567 0.17548059
v 0.00274838 -0.01192200 0.15634387
v -0.00685225 -0.01450514 0.16840572
v 0.00557776 -0.03129171 0.17897338
v 0.00886287 -0.02742784 0.17223160
v -0.00875059 -0.02817071 0.18688845
v -0.01784471 0.00698526 0.11456488
v -0.00993550 -0.00480850 0.12333750
v -0.01076191 -0.00628663 0.13041377
v -0.00985750 -0.01106350 0.15264999
v -0.00992825 -0.00838700 0.13941975
v -0.01414816 0.00320814 0.09707910
v -0.01001400 -0.00977400 0.14522050
v -0.00988100 -0.01058900 0.14995600
f 24 19 21
f 25 24 21
f 25 20 24
f 25 96 20
f 91 96 25
f 91 60 96
f 60 92 96
f 92 14 96
f 96 14 15
f 64 92 60
f 92 64 93
f 64 76 93
f 95 93 76
f 95 76 97
f 98 97 76
f 98 76 94
f 94 76 65
f 12 76 64
f 68 76 12
f 76 68 70
f 76 70 71
f 70 68 71
f 68 12 64
f 68 64 61
f 64 60 61
f 60 59 61
f 59 60 57
f 60 52 57
f 57 52 51
f 58 57 51
f 61 57 58
f 58 51 54
f 58 54 10
f 61 58 10
f 68 61 10
f 68 10 66
f 68 66 8
f 71 68 8
f 73 71 8
f 72 71 73
f 90 72 73
f 73 75 90
f 90 75 3
f 3 75 4
f 75 9 4
f 73 9 75
f 88 72 90
f 1 88 90
f 1 90 3
f 1 2 88
f 88 87 72
f 87 88 89
f 85 89 88
f 85 84 89
f 84 83 89
f 89 83 86
f 81 86 83
f 81 79 86
f 78 86 79
f 86 78 74
f 86 74 67
f 87 86 67
f 74 63 67
f 67 63 62
f 63 53 62
f 63 56 53
f 49 53 56
f 49 43 53
f 53 43 42
f 53 42 48
f 42 36 48
f 36 13 48
f 36 41 13
f 36 15 41
f 34 15 36
f 34 32 15
f 32 34 42
f 31 32 42
f 31 42 45
f 55 31 45
f 55 45 69
f 69 77 55
f 77 69 78
f 80 77 78
f 69 56 78
f 63 78 56
f 69 43 56
f 77 44 55
f 69 45 43
f 55 30 31
f 55 29 30
f 44 29 55
f 44 47 29
f 33 29 47
f 33 17 29
f 33 37 17
f 33 39 37
f 29 17 35
f 29 35 31
f 35 17 16
f 35 16 32
f 30 29 31
f 31 35 32
f 32 16 15
f 41 15 13
f 42 34 36
f 43 45 42
f 56 43 49
f 78 63 74
f 80 78 79
f 79 81 82
f 89 86 87
f 67 72 87
f 72 65 71
f 65 76 71
f 8 9 73
f 66 10 8
f 54 7 10
f 54 50 7
f 54 46 50
f 54 22 46
f 23 22 54
f 23 21 22
f 22 21 46
f 46 21 26
f 46 26 7
f 50 46 7
f 26 40 7
f 7 40 11
f 40 6 11
f 5 6 40
f 38 5 40
f 18 38 40
f 28 18 40
f 21 28 40
f 27 18 28
f 19 27 28
f 19 18 27
f 20 18 19
f 21 40 26
f 51 23 54
f 25 23 51
f 91 51 52
f 59 57 61
f 60 91 52
f 91 25 51
f 96 15 20
f 23 25 21
f 24 20 19
f 19 28 21

