v -0.10077 -0.0783281 0.178788
v -0.117955 -0.087505 0.168733
v -0.116252 -0.0819818 0.160628
v -0.110401 -0.0783204 0.157956
v -0.106843 -0.0777091 0.147708
v -0.100812 -0.0760039 0.161569
v -0.103918 -0.0765744 0.154654
v -0.10032 -0.0765 0.144408
v -0.097198 -0.0759855 0.151233
v -0.0908219 -0.076406 0.164687
v -0.0873583 -0.0775989 0.171364
v -0.122865 -0.0953271 0.169474
v -0.0974425 -0.0761126 0.168332
v -0.0938973 -0.0767789 0.175037
v -0.0928747 -0.0821696 0.191285
v -0.0967939 -0.0799067 0.185064
v -0.106043 -0.0838173 0.180395
v -0.109792 -0.0824645 0.174085
v -0.115976 -0.103515 0.189306
v -0.111572 -0.0974123 0.188449
v -0.110759 -0.0899444 0.181272
v -0.115169 -0.0960453 0.182138
v -0.114365 -0.0885746 0.174972
v -0.118932 -0.0946703 0.176084
v -0.119461 -0.10223 0.183017
v -0.113366 -0.0814916 0.167602
v -0.104048 -0.110005 0.205328
v -0.0923354 -0.110574 0.215393
v -0.087206 -0.105009 0.21585
v -0.0837775 -0.109315 0.220615
v -0.0889075 -0.114909 0.220082
v -0.0804296 -0.114094 0.225174
v -0.0820568 -0.124127 0.228834
v -0.0855004 -0.119597 0.2244
v -0.0770544 -0.118918 0.229391
v -0.081728 -0.0995687 0.215565
v -0.095907 -0.106917 0.210681
v -0.090798 -0.101357 0.210364
v -0.0856891 -0.0957983 0.210047
v -0.0947649 -0.0981843 0.204647
v -0.0896625 -0.0926335 0.204327
v -0.0939038 -0.0898118 0.198488
v -0.0998521 -0.103765 0.205026
v -0.0989377 -0.0954971 0.199072
v -0.103882 -0.101346 0.199907
v -0.112351 -0.105261 0.195188
v -0.1078 -0.0991899 0.194402
v -0.102915 -0.093345 0.193491
v -0.0980296 -0.0875 0.19258
v -0.1021 -0.0855312 0.186533
v -0.0887757 -0.0849155 0.197378
v -0.0865985 -0.0806356 0.188214
v -0.083726 -0.0794621 0.178065
v -0.0833726 -0.0835103 0.194692
v -0.0802517 -0.0819376 0.184543
v -0.0781922 -0.0923769 0.207105
v -0.080795 -0.0876272 0.20113
v -0.0723299 -0.104071 0.21595
v -0.0692816 -0.110366 0.219695
v -0.0748181 -0.11075 0.2236
v -0.0782692 -0.104374 0.220472
v -0.0666035 -0.104636 0.21139
v -0.0695214 -0.0987396 0.207363
v -0.0722021 -0.0935059 0.202838
v -0.075386 -0.0977507 0.212242
v -0.0747926 -0.0893558 0.196901
v -0.0773644 -0.0851576 0.190937
v -0.11319 -0.07947 0.151011
v -0.0843557 -0.0883297 0.203007
v -0.108366 -0.107624 0.200366
v -0.122617 -0.101063 0.176493
v -0.107002 -0.0913709 0.187491
v -0.0902107 -0.0781569 0.181694
v -0.104131 -0.0778477 0.171863
v -0.0940903 -0.0759715 0.157974
v -0.109522 -0.0791341 0.140876
v -0.10314 -0.0774591 0.137542
v -0.115727 -0.0813711 0.144173
v -0.107466 -0.077528 0.164921
v -0.1056 -0.0793426 0.130861
v -0.111954 -0.0810943 0.134206
v -0.117889 -0.0838494 0.137444
v -0.132582 -0.104955 0.134173
v -0.129279 -0.109328 0.0889253
v -0.125836 -0.0912301 0.140028
v -0.13298 -0.115739 0.0894061
v -0.140235 -0.153286 0.121309
v -0.143116 -0.150412 0.105584
v -0.125553 -0.089908 0.147447
v -0.129348 -0.0965603 0.14841
v -0.128784 -0.0957945 0.15594
v -0.142157 -0.149767 0.112037
v -0.126666 -0.0961787 0.163141
v -0.14228 -0.155194 0.109146
v -0.129802 -0.103329 0.163784
v -0.14128 -0.154277 0.115273
v -0.134037 -0.134524 0.159451
v -0.146206 -0.154364 0.0802577
v -0.134319 -0.131623 0.152292
v -0.131124 -0.140768 0.156033
v -0.145288 -0.156926 0.0896926
v -0.144284 -0.156486 0.0963217
v -0.131553 -0.137621 0.149124
v -0.130981 -0.144609 0.146724
v -0.134577 -0.157386 0.136545
v -0.134528 -0.150183 0.138419
v -0.134166 -0.142975 0.140233
v -0.133692 -0.164453 0.134493
v -0.130372 -0.166218 0.140641
v -0.1306 -0.159022 0.142647
v -0.143281 -0.156045 0.102951
v -0.140406 -0.158248 0.117941
v -0.139403 -0.157808 0.12457
v -0.132574 -0.116691 0.0744753
v -0.135991 -0.122813 0.0824064
v -0.139726 -0.130039 0.0678797
v -0.1466 -0.136253 0.053977
v -0.14404 -0.129306 0.053546
v -0.141512 -0.129714 0.060608
v -0.144164 -0.136628 0.060983
v -0.130985 -0.151836 0.144759
v -0.13181 -0.103936 0.156767
v -0.132651 -0.103225 0.149106
v -0.130023 -0.097277 0.14104
v -0.129592 -0.0980594 0.133577
v -0.128669 -0.0989594 0.126044
v -0.131857 -0.10574 0.126676
v -0.13146 -0.106373 0.119095
v -0.134898 -0.112469 0.150018
v -0.13514 -0.120114 0.135069
v -0.134587 -0.112548 0.142413
v -0.134275 -0.112627 0.134808
v -0.13596 -0.12022 0.127538
v -0.132637 -0.116283 0.0819389
v -0.135167 -0.118583 0.148977
v -0.135202 -0.119459 0.142128
v -0.134203 -0.112908 0.127235
v -0.128091 -0.100529 0.11846
v -0.127848 -0.10265 0.110867
v -0.12603 -0.0951415 0.125385
v -0.125787 -0.0972628 0.117793
v -0.125544 -0.0993842 0.1102
v -0.123239 -0.0961182 0.109533
v -0.126736 -0.102929 0.103382
v -0.124798 -0.10044 0.102669
v -0.12286 -0.0979504 0.101957
v -0.125496 -0.102511 0.0959406
v -0.133187 -0.115173 0.0969132
v -0.130026 -0.10799 0.103945
v -0.129403 -0.108813 0.0964309
v -0.136747 -0.121718 0.0973692
v -0.133576 -0.114543 0.1044
v -0.136859 -0.121234 0.104846
v -0.139301 -0.128203 0.105242
v -0.138746 -0.127993 0.112787
v -0.140362 -0.135299 0.113134
v -0.140855 -0.135539 0.105621
v -0.138189 -0.127778 0.120324
v -0.136468 -0.122263 0.0898906
v -0.138891 -0.151494 0.126378
v -0.138123 -0.145237 0.128146
v -0.139476 -0.146241 0.122248
v -0.137356 -0.138981 0.129915
v -0.138708 -0.139984 0.124017
v -0.140061 -0.140988 0.118119
v -0.136588 -0.132724 0.131683
v -0.137941 -0.133728 0.125785
v -0.139293 -0.134732 0.119887
v -0.135821 -0.126468 0.133451
v -0.137173 -0.127472 0.127553
v -0.140835 -0.1482 0.117383
v -0.141416 -0.142362 0.112621
v -0.143913 -0.150292 0.0982254
v -0.142249 -0.142785 0.105807
v -0.142443 -0.143024 0.0982224
v -0.142684 -0.143259 0.090632
v -0.141067 -0.136099 0.0905586
v -0.144306 -0.150397 0.0907244
v -0.142953 -0.143383 0.0831365
v -0.141325 -0.136268 0.0830252
v -0.144371 -0.147514 0.0803686
v -0.142626 -0.136921 0.0682333
v -0.143967 -0.143716 0.0758513
v -0.141388 -0.136646 0.0756322
v -0.139305 -0.129717 0.0753416
v -0.139387 -0.129308 0.082862
v -0.135904 -0.123254 0.0749104
f 26 79 4 3
f 7 5 68 4
f 79 6 7 4
f 8 77 76 5
f 76 78 68 5
f 7 9 8 5
f 75 9 7 6
f 79 74 13 6
f 13 10 75 6
f 13 14 11 10
f 74 1 14 13
f 1 16 73 14
f 52 73 16 15
f 16 50 49 15
f 49 42 51 15
f 1 17 50 16
f 1 74 18 17
f 18 23 21 17
f 21 72 50 17
f 74 79 26 18
f 26 2 23 18
f 20 22 25 19
f 46 47 20 19
f 72 21 22 20
f 47 48 72 20
f 23 24 22 21
f 24 71 25 22
f 2 12 24 23
f 43 45 70 27
f 29 38 37 28
f 31 30 29 28
f 36 39 38 29
f 30 61 36 29
f 31 34 32 30
f 32 60 61 30
f 34 33 35 32
f 61 58 65 36
f 38 40 43 37
f 39 41 40 38
f 41 42 44 40
f 44 45 43 40
f 69 51 42 41
f 49 48 44 42
f 48 47 45 44
f 47 46 70 45
f 49 50 72 48
f 55 53 73 52
f 54 67 55 52
f 57 66 67 54
f 64 66 57 56
f 65 63 64 56
f 62 63 65 58
f 61 60 59 58
f 77 80 81 76
f 81 82 78 76
f 124 90 89 85
f 123 122 91 90
f 122 95 93 91
f 99 103 100 97
f 107 106 121 104
f 108 109 110 105
f 110 121 106 105
f 126 127 83 125
f 140 141 138 126
f 138 128 127 126
f 131 136 135 129
f 132 137 133 130
f 136 131 132 130
f 141 142 139 138
f 142 145 144 139
f 143 146 145 142
f 147 150 149 144
f 150 84 86 148
f 86 159 151 148
f 151 153 152 148
f 152 149 150 148
f 157 156 155 154
f 156 168 158 155
f 157 174 172 156
f 172 165 168 156
f 168 167 170 158
f 161 162 87 160
f 87 112 113 160
f 163 164 162 161
f 164 165 171 162
f 171 96 87 162
f 166 167 164 163
f 167 168 165 164
f 172 92 171 165
f 169 170 167 166
f 92 94 96 171
f 174 88 92 172
f 175 176 178 173
f 178 101 102 173
f 102 111 88 173
f 177 180 179 176
f 179 181 178 176
f 98 101 178 181
f 180 184 183 179
f 186 185 184 180
f 186 115 187 185
f 115 134 114 187
f 116 119 120 182
f 86 134 115 159
f 119 118 117 120
f 94 92 88 111
