# https://github.com/mikedh/trimesh
v -0.32951200 -0.18685200 -0.23774300
v -0.32077801 -0.17839400 -0.22551499
v -0.32968325 -0.15075050 -0.22587375
v -0.33574149 -0.13759700 -0.22418050
v -0.33508388 -0.12300887 -0.22693013
v -0.31875101 -0.08555900 -0.23551300
v -0.30313863 -0.06883037 -0.24090987
v -0.28927501 -0.03892550 -0.24401799
v -0.27532126 -0.03436425 -0.24912774
v -0.26746251 -0.02481450 -0.25135701
v -0.26452899 -0.02712000 -0.25210100
v -0.26453999 -0.03772100 -0.25239101
v -0.26650250 -0.05797250 -0.25341450
v -0.25899699 -0.13141800 -0.26029500
v -0.25499300 -0.14603225 -0.26128100
v -0.26269200 -0.11698500 -0.25899899
v -0.23944300 -0.17821200 -0.26362100
v -0.20827100 -0.21596700 -0.26650849
v -0.26521300 -0.10178250 -0.25747800
v -0.27808850 -0.19921775 -0.24028300
v -0.21545175 -0.24014175 -0.25637300
v -0.23819500 -0.22389300 -0.25158399
v -0.18144251 -0.26318317 -0.26025333
v -0.20002200 -0.24888299 -0.25993499
v -0.29032999 -0.19444400 -0.23735000
v -0.29807000 -0.19257325 -0.23603925
v -0.32065400 -0.18843400 -0.23753400
v -0.31044025 -0.18999625 -0.23617875
v -0.32050940 -0.18284973 -0.23884285
v -0.32014369 -0.18559469 -0.23908311
v -0.32001536 -0.16847073 -0.22826153
v -0.31797865 -0.16788519 -0.23053762
v -0.33109721 -0.14239364 -0.22746408
v -0.31899733 -0.15877451 -0.23236426
v -0.33514680 -0.12879907 -0.22662611
v -0.33079833 -0.13103611 -0.22961486
v -0.30968710 -0.16576604 -0.23756347
v -0.31517320 -0.16322673 -0.23428215
v -0.32626302 -0.13827140 -0.23170726
v -0.32216956 -0.14223172 -0.23361334
v -0.31519128 -0.14276031 -0.23743430
v -0.30649999 -0.14375000 -0.24159800
v -0.29134739 -0.15515792 -0.24742859
v -0.28451888 -0.14520907 -0.25127516
v -0.27593939 -0.12944661 -0.25520141
v -0.28651993 -0.12985219 -0.25120037
v -0.28118709 -0.11014388 -0.25287106
v -0.27512212 -0.10996347 -0.25512393
v -0.28130308 -0.12450166 -0.25318926
v -0.27991191 -0.10180567 -0.25294015
v -0.30307556 -0.14683216 -0.24293253
v -0.27028666 -0.14753487 -0.25672867
v -0.28473601 -0.15915801 -0.24974500
v -0.29810939 -0.16584065 -0.24288519
v -0.31497910 -0.13359617 -0.23827351
v -0.29781786 -0.12741239 -0.24639412
v -0.31471502 -0.10498809 -0.23867876
v -0.29454156 -0.09273084 -0.24659955
v -0.32103812 -0.10054439 -0.23548877
v -0.30998227 -0.09277919 -0.24007872
v -0.32191500 -0.11978660 -0.23538609
v -0.28055120 -0.04663697 -0.24816760
v -0.27591550 -0.05550407 -0.25056695
v -0.29888577 -0.11489994 -0.24602138
v -0.31451971 -0.13056954 -0.23879125
v -0.32696573 -0.11464551 -0.23273686
v -0.32396252 -0.12996988 -0.23389682
v -0.27000306 -0.11101623 -0.25681220
v -0.27484189 -0.08976755 -0.25390779
v -0.33141967 -0.12020435 -0.22992799
v -0.31114937 -0.17099167 -0.23659346
v -0.31316835 -0.16901080 -0.23530413
v -0.30335816 -0.17460922 -0.23978069
v -0.27662516 -0.16081946 -0.25289784
v -0.28665991 -0.16628150 -0.24785726
v -0.27258730 -0.17520030 -0.25202775
v -0.26090917 -0.17244042 -0.25757498
v -0.25728628 -0.16809138 -0.25958137
v -0.24859184 -0.17771489 -0.26135657
v -0.25531050 -0.18100381 -0.25842203
v -0.26323645 -0.14428777 -0.25929799
v -0.27162310 -0.13194224 -0.25684656
v -0.26077033 -0.15305305 -0.25968918
v -0.26102979 -0.13553198 -0.26003830
v -0.26981887 -0.06079702 -0.25283420
v -0.26903312 -0.03346137 -0.25116662
v -0.30478194 -0.17739942 -0.23929681
v -0.29357324 -0.17651959 -0.24270241
v -0.24442984 -0.18497091 -0.26164488
v -0.24992141 -0.16649146 -0.26200985
v -0.31365749 -0.17328591 -0.23565122
v -0.24229591 -0.18018686 -0.26297842
v -0.22780678 -0.20335251 -0.26368370
v -0.24468956 -0.19538378 -0.25939060
v -0.21964320 -0.21794693 -0.26332105
v -0.25191134 -0.19123204 -0.25735265
v -0.22048930 -0.20829185 -0.26497871
v -0.29434265 -0.17948387 -0.24176988
v -0.19990391 -0.23000328 -0.26667252
v -0.23821980 -0.20792583 -0.25843119
v -0.27805242 -0.17920369 -0.24856161
v -0.30656584 -0.18555189 -0.23822074
v -0.29890180 -0.18255872 -0.23988858
v -0.29098908 -0.18647423 -0.24085096
v -0.17607649 -0.25111650 -0.26758951
v -0.19274633 -0.24117156 -0.26612703
v -0.19712643 -0.22993331 -0.26730099
v -0.31225851 -0.18205261 -0.23827588
v -0.31646442 -0.17841364 -0.23669608
v -0.20405844 -0.23868184 -0.26300573
v -0.22134367 -0.22429399 -0.26062164
v -0.27967618 -0.18759632 -0.24514468
v -0.24118759 -0.21086150 -0.25599247
v -0.29838675 -0.18873115 -0.23796787
v -0.27083492 -0.18624743 -0.24982599
v -0.27438301 -0.18986100 -0.24666500
v -0.21407754 -0.23596783 -0.25950891
v -0.18013891 -0.25265599 -0.26610778
v -0.29004559 -0.19074865 -0.23935019
v -0.16191601 -0.26402801 -0.26688000
v -0.16662402 -0.26453387 -0.26529330
v -0.27288439 -0.19504206 -0.24501356
v -0.18613393 -0.25387104 -0.26360582
v -0.16508675 -0.26720350 -0.26427075
v -0.23161421 -0.22311689 -0.25603748
v -0.30970947 -0.18668451 -0.23779230
v -0.31665080 -0.17223163 -0.23280584
v -0.31851678 -0.17292770 -0.23019131
f 33 3 4
f 35 33 4
f 36 33 35
f 70 36 35
f 67 36 70
f 66 67 70
f 66 70 5
f 59 66 5
f 59 61 66
f 57 61 59
f 57 65 61
f 65 67 61
f 65 55 67
f 55 41 67
f 67 41 39
f 41 40 39
f 41 37 40
f 65 37 41
f 42 37 65
f 65 51 42
f 44 51 65
f 44 65 56
f 56 65 64
f 46 56 64
f 47 46 64
f 47 64 50
f 69 50 64
f 58 69 64
f 69 58 62
f 63 69 62
f 85 69 63
f 68 69 85
f 13 68 85
f 86 13 85
f 12 13 86
f 11 12 86
f 11 86 10
f 86 9 10
f 9 86 62
f 8 9 62
f 8 62 7
f 13 19 68
f 19 16 68
f 84 68 16
f 84 82 68
f 84 81 82
f 84 83 81
f 90 83 84
f 15 90 84
f 15 17 90
f 90 17 92
f 92 79 90
f 79 92 89
f 92 93 89
f 97 93 92
f 93 97 95
f 99 95 97
f 107 99 97
f 107 106 99
f 105 106 107
f 106 105 118
f 106 118 123
f 121 123 118
f 121 124 123
f 124 23 123
f 123 23 24
f 24 110 123
f 110 24 117
f 111 110 117
f 117 113 111
f 125 113 117
f 125 117 21
f 125 21 22
f 125 22 122
f 115 125 122
f 115 122 116
f 116 122 112
f 112 122 119
f 122 20 119
f 119 20 25
f 119 25 26
f 26 104 119
f 104 26 114
f 104 114 103
f 114 102 103
f 87 103 102
f 98 103 87
f 88 98 87
f 88 104 98
f 88 112 104
f 101 112 88
f 76 112 101
f 76 115 112
f 80 115 76
f 80 96 115
f 115 96 94
f 94 113 115
f 94 100 113
f 113 100 95
f 95 100 94
f 80 94 96
f 89 94 80
f 77 80 76
f 78 80 77
f 78 79 80
f 78 77 74
f 78 74 52
f 83 78 52
f 44 52 74
f 44 74 43
f 43 74 53
f 75 53 74
f 74 76 75
f 75 76 88
f 54 75 88
f 54 88 71
f 54 71 37
f 37 71 72
f 72 71 91
f 72 91 32
f 32 91 127
f 32 127 128
f 128 127 91
f 128 91 2
f 31 128 2
f 31 2 3
f 3 32 31
f 31 32 128
f 38 72 32
f 38 32 34
f 37 38 34
f 37 34 33
f 33 39 37
f 34 32 33
f 71 109 91
f 109 2 91
f 38 37 72
f 43 54 37
f 51 43 37
f 53 75 54
f 53 54 43
f 52 44 82
f 82 44 46
f 45 82 46
f 82 45 48
f 49 48 45
f 48 49 47
f 45 46 49
f 77 76 74
f 76 101 88
f 88 87 73
f 71 88 73
f 71 73 87
f 71 87 108
f 71 108 109
f 87 102 108
f 102 126 108
f 126 30 108
f 126 28 30
f 126 26 28
f 30 28 27
f 30 27 1
f 108 30 29
f 29 30 1
f 102 26 126
f 104 103 98
f 102 114 26
f 112 119 104
f 115 116 112
f 122 22 20
f 113 125 115
f 95 111 113
f 95 110 111
f 106 110 95
f 21 117 24
f 124 121 120
f 120 121 105
f 123 110 106
f 105 121 118
f 18 107 97
f 18 105 107
f 99 106 95
f 94 93 95
f 18 97 92
f 93 94 89
f 79 89 80
f 90 79 78
f 17 18 92
f 14 15 84
f 83 90 78
f 81 83 52
f 82 81 52
f 68 82 48
f 14 84 16
f 68 48 69
f 86 85 63
f 86 63 62
f 62 58 7
f 58 60 7
f 58 57 60
f 6 7 60
f 60 59 6
f 58 64 57
f 69 48 50
f 50 48 47
f 47 49 46
f 46 44 56
f 43 51 44
f 51 37 42
f 39 40 37
f 55 65 41
f 64 65 57
f 57 59 60
f 5 6 59
f 61 67 66
f 67 39 36
f 70 35 5
f 36 39 33
f 33 32 3

