v 0.153638 0.206454 -0.237671
v 0.214673 -0.0441904 -0.231778
v 0.213639 -0.0334018 -0.231478
v 0.225956 -0.0426253 -0.250175
v 0.212527 -0.0226081 -0.231233
v 0.211386 -0.0118125 -0.231007
v 0.220732 -0.0433803 -0.240727
v 0.219436 -0.0326027 -0.240595
v 0.21814 -0.0218252 -0.240463
v 0.216844 -0.0110476 -0.24033
v 0.2247 -0.0318238 -0.250051
v 0.160125 0.207545 -0.245963
v 0.223164 -0.0210696 -0.250032
v 0.210207 -0.00102259 -0.230807
v 0.209146 0.00978077 -0.23054
v 0.208098 0.0205864 -0.230267
v 0.215713 -0.000251013 -0.240107
v 0.214537 0.0105415 -0.239915
v 0.213361 0.0213339 -0.239723
v 0.212185 0.0321264 -0.23953
v 0.201207 0.0305869 -0.220894
v 0.207044 0.0313952 -0.230005
v 0.20477 0.053002 -0.229589
v 0.221524 -0.0103537 -0.250057
v 0.220333 0.000437477 -0.249871
v 0.20015 0.0414054 -0.220625
v 0.198931 0.0522235 -0.220472
v 0.205935 0.0422014 -0.229781
v 0.21092 0.042908 -0.239405
v 0.209568 0.0536752 -0.239343
v 0.208216 0.0644424 -0.23928
v 0.206864 0.0752096 -0.239218
v 0.219045 0.011214 -0.249727
v 0.217633 0.0219714 -0.249637
v 0.225557 -0.00975236 -0.260067
v 0.224047 0.000991621 -0.260022
v 0.216345 0.0327412 -0.249532
v 0.203393 0.0637847 -0.229554
v 0.222582 0.0117333 -0.259952
v 0.221111 0.022473 -0.259884
v 0.215059 0.043509 -0.249436
v 0.21367 0.0542605 -0.249378
v 0.19752 0.0630256 -0.220456
v 0.195946 0.0738099 -0.220557
v 0.20181 0.0745577 -0.229659
v 0.219705 0.0332223 -0.259822
v 0.194176 0.0845283 -0.220759
v 0.200057 0.0853002 -0.229864
v 0.204945 0.0858958 -0.239543
v 0.203002 0.0965766 -0.239883
v 0.21215 0.0649973 -0.249389
v 0.218258 0.043965 -0.259781
v 0.200883 0.107217 -0.240328
v 0.198103 0.0960022 -0.230189
v 0.210594 0.0757043 -0.249453
v 0.183002 0.104858 -0.213314
v 0.192236 0.095213 -0.221064
v 0.198508 0.117783 -0.240972
v 0.195894 0.106642 -0.230682
v 0.208781 0.0863609 -0.24969
v 0.216707 0.054683 -0.259774
v 0.21523 0.0654269 -0.259795
v 0.189942 0.105838 -0.221598
v 0.195975 0.128325 -0.24174
v 0.206916 0.0970003 -0.249964
v 0.204732 0.107553 -0.250501
v 0.193456 0.117215 -0.231353
v 0.180562 0.115381 -0.213901
v 0.17786 0.125866 -0.214781
v 0.190752 0.12772 -0.232226
v 0.200024 0.128551 -0.251833
v 0.197242 0.138953 -0.252822
v 0.202544 0.1181 -0.251039
v 0.220727 0.0442646 -0.270322
v 0.219109 0.0549547 -0.270365
v 0.213466 0.0760758 -0.259966
v 0.167259 0.135017 -0.208113
v 0.187406 0.116395 -0.222336
v 0.184557 0.126861 -0.22333
v 0.19314 0.138748 -0.242732
v 0.189964 0.149041 -0.244006
v 0.18772 0.138134 -0.233332
v 0.158437 0.197123 -0.235145
v 0.211654 0.086697 -0.260155
v 0.164003 0.145228 -0.209372
v 0.181673 0.137315 -0.224317
v 0.194196 0.149236 -0.254027
v 0.184473 0.148421 -0.234616
v 0.175011 0.136315 -0.215761
v 0.181039 0.158637 -0.236071
v 0.149012 0.164026 -0.204939
v 0.160524 0.155404 -0.210814
v 0.186477 0.15921 -0.24545
v 0.190789 0.159395 -0.255481
v 0.178406 0.147612 -0.225616
v 0.17473 0.157736 -0.227248
v 0.177297 0.168671 -0.237804
v 0.145017 0.173698 -0.207161
v 0.140987 0.18328 -0.209499
v 0.148833 0.184995 -0.216754
v 0.171586 0.146527 -0.217173
v 0.167958 0.156669 -0.218766
v 0.171035 0.167844 -0.228903
v 0.173288 0.178569 -0.239762
v 0.182756 0.169235 -0.24721
v 0.178805 0.179155 -0.249121
v 0.136719 0.192727 -0.212043
v 0.156874 0.165505 -0.212452
v 0.152831 0.175266 -0.214594
v 0.18704 0.169447 -0.257141
v 0.169212 0.188424 -0.241781
v 0.174788 0.189061 -0.251057
v 0.162868 0.187499 -0.232996
v 0.131999 0.201975 -0.214822
v 0.156102 0.186383 -0.224561
v 0.144348 0.194399 -0.219311
v 0.164233 0.166769 -0.220445
v 0.167047 0.177737 -0.230866
v 0.164708 0.198009 -0.243864
v 0.139556 0.203677 -0.222031
v 0.160188 0.176597 -0.222476
v 0.151491 0.195829 -0.227049
v 0.146855 0.205201 -0.229555
f 3 8 7 2
f 5 9 8 3
f 7 8 11 4
f 6 10 9 5
f 14 17 10 6
f 9 13 11 8
f 10 24 13 9
f 17 25 24 10
f 15 18 17 14
f 16 19 18 15
f 22 20 19 16
f 18 33 25 17
f 19 34 33 18
f 20 37 34 19
f 29 41 37 20
f 22 28 29 20
f 26 28 22 21
f 38 31 30 23
f 30 29 28 23
f 28 26 27 23
f 27 43 38 23
f 25 36 35 24
f 33 39 36 25
f 30 42 41 29
f 31 51 42 30
f 32 55 51 31
f 38 45 32 31
f 49 60 55 32
f 45 48 49 32
f 34 40 39 33
f 37 46 40 34
f 41 52 46 37
f 43 44 45 38
f 42 61 52 41
f 51 62 61 42
f 47 48 45 44
f 57 54 48 47
f 54 50 49 48
f 50 65 60 49
f 53 66 65 50
f 54 59 53 50
f 55 76 62 51
f 61 75 74 52
f 58 73 66 53
f 59 67 58 53
f 57 63 59 54
f 60 84 76 55
f 68 78 63 56
f 64 71 73 58
f 67 70 64 58
f 63 78 67 59
f 80 72 71 64
f 70 82 80 64
f 78 79 70 67
f 69 79 78 68
f 89 86 79 69
f 79 86 82 70
f 80 81 87 72
f 85 101 89 77
f 82 88 81 80
f 93 94 87 81
f 88 90 93 81
f 86 95 88 82
f 92 102 101 85
f 89 101 95 86
f 95 96 90 88
f 97 105 93 90
f 96 103 97 90
f 98 109 108 91
f 108 117 102 92
f 105 110 94 93
f 101 102 96 95
f 102 117 103 96
f 104 106 105 97
f 103 118 104 97
f 99 100 109 98
f 107 116 100 99
f 116 122 115 100
f 115 121 109 100
f 117 121 118 103
f 111 112 106 104
f 118 113 111 104
f 114 120 116 107
f 109 121 117 108
f 113 83 119 111
f 122 83 113 115
f 113 118 121 115
f 120 123 122 116
f 83 1 12 119
f 123 1 83 122
