# https://github.com/mikedh/trimesh
v -0.12786080 22.07750130 1.00000000
v -0.12786080 22.02574160 0.87625630
v -0.12786080 21.90078160 0.82500000
v -0.12786080 21.77582170 0.87625630
v -0.12786080 21.72406010 1.00000000
v -0.12786080 21.77582170 1.12374370
v -0.12786080 21.90078160 1.17500000
v -0.12786080 22.02574160 1.12374370
v 0.12176460 21.93586730 0.82500000
v 0.12176460 22.06082730 0.87625630
v 0.12176460 22.06082730 1.12374370
v 0.12176460 21.93586730 1.17500000
v 0.12176460 21.81090740 1.12374370
v 0.12176460 21.75914760 1.00000000
v 0.12176460 21.81090740 0.87625630
v -1.06764080 20.96082690 0.82500000
v -1.05041740 20.83828740 0.87625630
v -1.04328320 20.78753090 1.00000000
v -1.05041740 20.83828740 1.12374370
v -1.06764080 20.96082690 1.17500000
v -1.08486430 21.08336640 1.12374370
v -1.09199850 21.13412480 1.00000000
v -1.08486430 21.08336640 0.87625630
v -0.69247940 21.01355740 0.82500000
v -0.70970280 21.13609700 0.87625630
v -0.71683700 21.18685530 1.00000000
v -0.70970280 21.13609700 1.12374370
v -0.69247940 21.01355740 1.17500000
v -0.67525600 20.89101790 1.12374370
v -0.66812180 20.84026150 1.00000000
v -0.67525600 20.89101790 0.87625630
v 1.42251910 21.75304030 0.82500000
v 1.43974240 21.87557980 0.87625630
v 1.44687660 21.92633630 1.00000000
v 1.43974240 21.87557980 1.12374370
v 1.42251910 21.75304030 1.17500000
v 1.40529560 21.63050080 1.12374370
v 1.39816140 21.57974430 1.00000000
v 1.40529560 21.63050080 0.87625630
v 1.04735770 21.80577090 0.82500000
v 1.03013420 21.68323140 0.87625630
v 1.02300000 21.63247490 1.00000000
v 1.03013420 21.68323140 1.12374370
v 1.04735770 21.80577090 1.17500000
v 1.06458100 21.92831040 1.12374370
v 1.07171520 21.97906680 1.00000000
v 1.06458100 21.92831040 0.87625630
v -1.29033900 22.54525380 0.82500000
v -1.27311550 22.42271420 0.87625630
v -1.26598140 22.37195590 1.00000000
v -1.27311550 22.42271420 1.12374370
v -1.29033900 22.54525380 1.17500000
v -1.30756250 22.66779330 1.12374370
v -1.31469670 22.71854970 1.00000000
v -1.30756250 22.66779330 0.87625630
v -0.91517760 22.59798430 0.82500000
v -0.93240100 22.72052380 0.87625630
v -0.93953520 22.77128030 1.00000000
v -0.93240100 22.72052380 1.12374370
v -0.91517760 22.59798430 1.17500000
v -0.89795420 22.47544480 1.12374370
v -0.89082000 22.42468640 1.00000000
v -0.89795420 22.47544480 0.87625630
v -0.12786080 22.88536450 1.00000000
v -0.12786080 22.83360480 0.87625630
v -0.12786080 22.70864490 0.82500000
v -0.12786080 22.58368490 0.87625630
v -0.12786080 22.53192520 1.00000000
v -0.12786080 22.58368490 1.12374370
v -0.12786080 22.70864490 1.17500000
v -0.12786080 22.83360480 1.12374370
v 0.12176460 22.74373050 0.82500000
v 0.12176460 22.86869050 0.87625630
v 0.12176460 22.86869050 1.12374370
v 0.12176460 22.74373050 1.17500000
v 0.12176460 22.61877060 1.12374370
v 0.12176460 22.56701090 1.00000000
v 0.12176460 22.61877060 0.87625630
v -1.17898990 21.75304030 0.82500000
v -1.16176650 21.63050080 0.87625630
v -1.15463230 21.57974430 1.00000000
v -1.16176650 21.63050080 1.12374370
v -1.17898990 21.75304030 1.17500000
v -1.19621340 21.87557980 1.12374370
v -1.20334760 21.92633630 1.00000000
v -1.19621340 21.87557980 0.87625630
v -0.80382850 21.80577090 0.82500000
v -0.82105200 21.92831040 0.87625630
v -0.82818610 21.97906680 1.00000000
v -0.82105200 21.92831040 1.12374370
v -0.80382850 21.80577090 1.17500000
v -0.78660510 21.68323140 1.12374370
v -0.77947090 21.63247490 1.00000000
v -0.78660510 21.68323140 0.87625630
v -0.12786080 21.26963810 1.00000000
v -0.12786080 21.21787830 0.87625630
v -0.12786080 21.09291840 0.82500000
v -0.12786080 20.96795850 0.87625630
v -0.12786080 20.91619680 1.00000000
v -0.12786080 20.96795850 1.12374370
v -0.12786080 21.09291840 1.17500000
v -0.12786080 21.21787830 1.12374370
v 0.12176460 21.12800410 0.82500000
v 0.12176460 21.25296400 0.87625630
v 0.12176460 21.25296400 1.12374370
v 0.12176460 21.12800410 1.17500000
v 0.12176460 21.00304410 1.12374370
v 0.12176460 20.95128250 1.00000000
v 0.12176460 21.00304410 0.87625630
v 0.37138990 21.26963810 1.00000000
v 0.37138990 21.21787830 1.12374370
v 0.37138990 21.09291840 1.17500000
v 0.37138990 20.96795850 1.12374370
v 0.37138990 20.91619680 1.00000000
v 0.37138990 20.96795850 0.87625630
v 0.37138990 21.09291840 0.82500000
v 0.37138990 21.21787830 0.87625630
v 1.15870670 22.59798430 0.82500000
v 1.14148330 22.47544480 0.87625630
v 1.13434910 22.42468640 1.00000000
v 1.14148330 22.47544480 1.12374370
v 1.15870670 22.59798430 1.17500000
v 1.17593010 22.72052380 1.12374370
v 1.18306430 22.77128030 1.00000000
v 1.17593010 22.72052380 0.87625630
v 1.53386810 22.54525380 0.82500000
v 1.55109160 22.66779330 0.87625630
v 1.55822580 22.71854970 1.00000000
v 1.55109160 22.66779330 1.12374370
v 1.53386810 22.54525380 1.17500000
v 1.51664470 22.42271420 1.12374370
v 1.50951050 22.37195590 1.00000000
v 1.51664470 22.42271420 0.87625630
v -0.94285710 0.77000000 1.10000000
v -0.90830800 0.77000000 1.14755280
v -0.85240630 0.77000000 1.12938930
v -0.85240630 0.77000000 1.07061080
v -0.90830800 0.77000000 1.05244720
v -0.96285710 0.75000000 1.10000000
v -0.91448830 0.75000000 1.03342600
v -0.83622590 0.75000000 1.05885510
v -0.83622590 0.75000000 1.14114500
v -0.91448830 0.75000000 1.16657400
v -0.58571430 1.25000000 1.10000000
v -0.55116520 1.25000000 1.14755280
v -0.49526340 1.25000000 1.12938930
v -0.49526340 1.25000000 1.07061080
v -0.55116520 1.25000000 1.05244720
v -0.58571430 0.77000000 1.10000000
v -0.55116520 0.77000000 1.05244720
v -0.49526340 0.77000000 1.07061080
v -0.49526340 0.77000000 1.12938930
v -0.55116520 0.77000000 1.14755280
v 1.31117000 20.96082690 0.82500000
v 1.32839330 21.08336640 0.87625630
v 1.33552750 21.13412480 1.00000000
v 1.32839330 21.08336640 1.12374370
v 1.31117000 20.96082690 1.17500000
v 1.29394650 20.83828740 1.12374370
v 1.28681230 20.78753090 1.00000000
v 1.29394650 20.83828740 0.87625630
v 0.93600850 21.01355740 0.82500000
v 0.91878510 20.89101790 0.87625630
v 0.91165090 20.84026150 1.00000000
v 0.91878510 20.89101790 1.12374370
v 0.93600850 21.01355740 1.17500000
v 0.95323200 21.13609700 1.12374370
v 0.96036610 21.18685530 1.00000000
v 0.95323200 21.13609700 0.87625630
v 0.37138990 22.88536450 1.00000000
v 0.37138990 22.83360480 1.12374370
v 0.37138990 22.70864490 1.17500000
v 0.37138990 22.58368490 1.12374370
v 0.37138990 22.53192520 1.00000000
v 0.37138990 22.58368490 0.87625630
v 0.37138990 22.70864490 0.82500000
v 0.37138990 22.83360480 0.87625630
v -0.60571430 0.75000000 1.10000000
v -0.55734540 0.75000000 1.03342600
v -0.47908310 0.75000000 1.05885510
v -0.47908310 0.75000000 1.14114500
v -0.55734540 0.75000000 1.16657400
v -0.64344055 20.66466140 1.36836740
v 0.37138990 22.07750130 1.00000000
v 0.37138990 22.02574160 1.12374370
v 0.37138990 21.90078160 1.17500000
v 0.37138990 21.77582170 1.12374370
v 0.37138990 21.72406010 1.00000000
v 0.37138990 21.77582170 0.87625630
v 0.37138990 21.90078160 0.82500000
v 0.37138990 22.02574160 0.87625630
v -3.46367318 2.91953987 0.50000000
v -3.09967640 -1.33145135 -0.50000000
v -4.29609550 -0.51925058 -0.50000000
v -4.39465617 -0.32425680 0.50000000
v -3.58277544 -1.12984883 0.50000000
v -0.22857140 1.25000000 1.10000000
v -0.19402230 1.25000000 1.14755280
v -0.13812060 1.25000000 1.12938930
v -0.13812060 1.25000000 1.07061080
v -0.19402230 1.25000000 1.05244720
v -0.22857140 0.77000000 1.10000000
v -0.19402230 0.77000000 1.05244720
v -0.13812060 0.77000000 1.07061080
v -0.13812060 0.77000000 1.12938930
v -0.19402230 0.77000000 1.14755280
v -0.95487090 23.20967860 0.70044700
v -0.84945670 23.37652400 0.69878270
v -0.68003790 23.47774890 0.69777300
v -0.48316300 23.49151610 0.69763570
v -0.30130400 23.41485790 0.69840030
v -0.17369350 23.26430890 0.69990210
v -0.17369350 23.26430890 1.27437100
v -0.30130400 23.41485790 1.26892770
v -0.48316300 23.49151610 1.26615580
v -0.68003790 23.47774890 1.26665370
v -0.84945670 23.37652400 1.27031370
v -0.95487090 23.20967860 1.27634630
v 0.80251370 20.37538530 0.72871950
v 0.67601100 20.30116650 0.72945980
v 0.52970170 20.31139950 0.72935770
v 0.41476020 20.40250210 0.72844900
v 0.41476020 20.40250210 1.37784640
v 0.52970170 20.31139950 1.38114040
v 0.67601100 20.30116650 1.38151040
v 0.80251370 20.37538530 1.37882690
v 0.12176460 24.59168430 0.68666130
v -1.44519270 23.64698790 0.69608480
v -1.44519270 23.64698790 1.26053450
v 0.12176460 24.59168430 1.22637680
v -0.94978650 20.12233160 0.73124370
v -0.94978650 20.12233160 1.38797650
v -1.51559899 5.25570552 0.50000000
v 4.24620830 -0.57847075 -0.50000000
v 0.90528158 -1.79738520 -0.50000000
v 4.20338897 -0.62345900 0.50000000
v 0.12857140 0.77000000 1.10000000
v 0.16312060 0.77000000 1.14755280
v 0.21902230 0.77000000 1.12938930
v 0.21902230 0.77000000 1.07061080
v 0.16312060 0.77000000 1.05244720
v 0.10857140 0.75000000 1.10000000
v 0.15694020 0.75000000 1.03342600
v 0.23520260 0.75000000 1.05885510
v 0.23520260 0.75000000 1.14114500
v 0.15694020 0.75000000 1.16657400
v 4.82399689 -0.57316687 1.00000000
v 3.01844549 -1.98384199 1.00000000
v -3.70153259 -1.63718745 1.00000000
v -4.82350730 -0.63587990 1.00000000
v -4.90392640 -0.48772580 -1.00000000
v -3.92837983 -1.47886388 -1.00000000
v 1.45370348 -2.33071696 -1.00000000
v 4.89547490 -0.39349469 -1.00000000
v -0.24857140 0.75000000 1.10000000
v -0.20020260 0.75000000 1.03342600
v -0.12194020 0.75000000 1.05885510
v -0.12194020 0.75000000 1.14114500
v -0.20020260 0.75000000 1.16657400
v -0.94285710 1.25000000 1.10000000
v -0.90830800 1.25000000 1.14755280
v -0.85240630 1.25000000 1.12938930
v -0.85240630 1.25000000 1.07061080
v -0.90830800 1.25000000 1.05244720
v -2.03814320 5.13693570 1.00000000
v -2.09839750 4.98037600 -1.00000000
v 1.19331560 20.12233160 0.73124370
v 1.68872180 23.64698790 0.69608480
v 1.68872180 23.64698790 1.26053450
v 1.19331560 20.12233160 1.38797650
v -0.12786080 20.70071700 0.72547420
v -0.17123110 20.40250210 0.72844900
v -0.28617250 20.31139950 0.72935770
v -0.43248190 20.30116650 0.72945980
v -0.55898460 20.37538530 0.72871950
v -0.55898460 20.37538530 1.37882690
v -0.43248190 20.30116650 1.38151040
v -0.28617250 20.31139950 1.38114040
v -0.17123110 20.40250210 1.37784640
v -2.43941500 9.07671740 0.50000000
v 0.48571430 1.25000000 1.10000000
v 0.52026340 1.25000000 1.14755280
v 0.57616510 1.25000000 1.12938930
v 0.57616510 1.25000000 1.07061080
v 0.52026340 1.25000000 1.05244720
v 0.48571430 0.77000000 1.10000000
v 0.52026340 0.77000000 1.05244720
v 0.57616510 0.77000000 1.07061080
v 0.57616510 0.77000000 1.12938930
v 0.52026340 0.77000000 1.14755280
v 3.36792125 3.73236975 -1.00000000
v 0.12857140 1.25000000 1.10000000
v 0.16312060 1.25000000 1.14755280
v 0.21902230 1.25000000 1.12938930
v 0.21902230 1.25000000 1.07061080
v 0.16312060 1.25000000 1.05244720
v -2.46754091 6.69490488 1.00000000
v -3.00000000 9.00000000 1.00000000
v -2.96720986 8.61814644 -1.00000000
v 1.81480013 4.45700730 -0.50000000
v 1.60983910 4.82808830 0.50000000
v 0.46571430 0.75000000 1.10000000
v 0.51408310 0.75000000 1.03342600
v 0.59234550 0.75000000 1.05885510
v 0.59234550 0.75000000 1.14114500
v 0.51408310 0.75000000 1.16657400
v 2.09839750 4.98037600 1.00000000
v 2.03814320 5.13693570 -1.00000000
v 0.64572860 19.78980060 0.73456070
v 0.64572860 19.78980060 1.40000000
v -0.93587079 6.44692495 0.50000000
v -0.74923240 5.94501970 0.50000000
v 0.07840320 5.58198500 0.50000000
v 0.51220565 5.74418160 0.50000000
v 0.88573830 6.22409630 0.50000000
v 0.93647930 6.68444160 0.50000000
v 0.73901380 7.10336830 0.50000000
v 0.22989210 7.43599390 0.50000000
v -0.23307090 7.44854690 0.50000000
v -0.74923240 7.11132140 0.50000000
v -2.25066110 9.49224660 0.50000000
v -0.85885201 10.14568552 0.50000000
v 1.19238290 10.11846950 0.50000000
v 2.47493100 9.17144970 0.50000000
v 0.41722260 23.26430890 0.69990210
v 0.54483310 23.41485790 0.69840030
v 0.72669210 23.49151610 0.69763570
v 0.92356700 23.47774890 0.69777300
v 1.09298590 23.37652400 0.69878270
v 1.19840000 23.20967860 0.70044700
v 1.19840000 23.20967860 1.27634630
v 1.09298590 23.37652400 1.27031370
v 0.92356700 23.47774890 1.26665370
v 0.72669210 23.49151610 1.26615580
v 0.54483310 23.41485790 1.26892770
v 0.41722260 23.26430890 1.27437100
v -0.40219950 19.78980060 1.40000000
v 2.48746540 9.08572480 -0.50000000
v 0.84285710 1.25000000 1.10000000
v 0.87740630 1.25000000 1.14755280
v 0.93330800 1.25000000 1.12938930
v 0.93330800 1.25000000 1.07061080
v 0.87740630 1.25000000 1.05244720
v 0.84285710 0.77000000 1.10000000
v 0.87740630 0.77000000 1.05244720
v 0.93330800 0.77000000 1.07061080
v 0.93330800 0.77000000 1.12938930
v 0.87740630 0.77000000 1.14755280
v 2.97052322 8.71823145 -1.00000000
v 2.34061780 6.41666585 1.00000000
v -2.72283905 9.70364263 -1.00000000
v 1.40690082 10.48869986 -1.00000000
v 0.29674857 19.78034281 1.20000000
v -0.40219950 19.78980060 0.82997570
v -0.40219950 19.78980060 0.73456070
v -0.40219950 19.78980060 1.20000000
v 1.62651590 9.96825790 -0.50000000
v -1.25000000 0.75000000 1.00000000
v 1.25000000 0.75000000 1.00000000
v 1.25000000 0.75000000 1.20000000
v -1.25000000 0.75000000 1.20000000
v 0.82285710 0.75000000 1.10000000
v 0.87122600 0.75000000 1.16657400
v 0.94948830 0.75000000 1.14114500
v 0.94948830 0.75000000 1.05885510
v 0.87122600 0.75000000 1.03342600
v 0.79931200 10.72727490 0.90000000
v 0.79931200 10.72727490 1.00000000
v 1.72805086 10.45147947 1.00000000
v 2.65924988 9.78681370 1.00000000
v 2.98013125 9.14629125 1.00000000
v 1.25000000 1.25000000 1.20000000
v -1.25000000 1.25000000 1.20000000
v -1.72251708 9.90481188 -0.50000000
v 1.25000000 1.25000000 1.00000000
v 0.75864430 7.72167780 1.00000000
v 0.75864430 7.72167780 1.05000000
v 1.13796260 5.71772480 1.05000000
v -0.84227980 7.66420080 1.05000000
v -0.84227980 7.66420080 1.00000000
v -1.24653645 7.16775895 1.00000000
v -1.25569020 5.87760020 1.00000000
v -0.71303300 5.30686660 1.00000000
v 0.19755620 5.14112425 1.00000000
v 0.79877920 5.36114360 1.00000000
v 1.09213390 5.62970300 1.00000000
v 1.39657940 6.75080440 1.00000000
v 1.17253962 7.28965519 1.00000000
v -0.80083770 10.72703550 0.90000000
v -0.67816220 19.79353330 0.90000000
v 0.25801822 19.78154312 0.79904478
v 0.92169140 19.77188680 0.90000000
v 0.92169140 19.77188680 1.20000000
v -1.25000000 1.25000000 1.00000000
v 0.75036610 7.10986190 1.05000000
v 0.92351670 6.68491675 1.05000000
v 0.82783770 6.08983610 1.05000000
v 0.38942440 5.67623115 1.05000000
v -0.05936770 5.58060030 1.05000000
v -0.49271410 5.73149940 1.05000000
v -0.87607480 6.19659065 1.05000000
v -0.85198200 6.94714640 1.05000000
v -0.67816220 19.79353330 1.20000000
v 0.75036610 7.10986190 1.20000000
v 0.36884435 7.38836770 1.20000000
v -0.24960925 7.43021270 1.20000000
v -0.66517000 7.20563890 1.20000000
v -0.85198200 6.94714640 1.20000000
v 0.91961650 19.61854360 1.20000000
v -0.68053000 19.61854360 1.20000000
v -0.80083770 10.72703550 1.00000000
v -1.45603383 10.53934246 1.00000000
v -2.58057267 9.86617041 1.00000000
v -0.67850040 19.76854320 1.20000000
v 0.92164610 19.76854320 1.20000000
v -0.83118460 19.61854360 1.50000000
v -0.83118460 19.61854360 1.20000000
v 1.16881540 19.61854360 1.20000000
v 1.16881540 19.61854360 1.50000000
v 1.16881540 19.76854320 1.20000000
v 1.16881540 19.76854320 1.50000000
v -0.83118460 19.76854320 1.20000000
v -0.83118460 19.76854320 1.50000000
v -0.02196030 22.86114310 1.10979340
v -0.00287120 22.72532840 1.17499780
v 0.01612630 22.59016800 1.10842530
v 0.02072660 22.55743790 0.96020630
v 0.00746560 22.65178680 0.84195270
v -0.00959030 22.77313420 0.83154140
v -0.02543800 22.88588520 0.93202610
v -1.28404410 22.50046730 0.97994950
v -1.28653260 22.51817130 0.95814170
v -1.29091370 22.54934120 0.95017080
v -1.29505240 22.57878680 0.96321380
v -1.29720340 22.59409140 0.99177030
v -1.29645960 22.58879850 1.02379740
v -1.29313460 22.56514170 1.04578860
v -1.28863060 22.53309820 1.04847000
v -1.28484710 22.50617980 1.03071060
v -1.28375670 22.49842260 1.01623500
v -1.31411280 22.71439550 0.96191240
v -1.30288550 22.63451770 0.85082510
v -1.28397640 22.49998660 0.83107580
v -1.27070860 22.40558820 0.90613240
v -1.26713620 22.38017270 1.05324510
v -1.27121970 22.40922550 1.10842530
v -1.30930640 22.68020060 1.10979340
v -0.78862370 22.56801610 0.98376500
v -0.79055670 22.58176800 0.96371640
v -0.79463910 22.61081310 0.95085040
v -0.79896030 22.64155770 0.95871260
v -0.80169830 22.66103740 0.98398460
v -0.80169840 22.66103740 1.01601360
v -0.79896030 22.64155770 1.04128740
v -0.79463910 22.61081310 1.04914960
v -0.79055670 22.58176800 1.03628360
v -0.78843510 22.56667330 1.00811620
v -0.78307767 22.61019909 0.99952765
v -0.01262180 22.07624240 0.93476640
v -0.01217680 22.07307430 1.08215960
v 0.00426560 21.95609280 1.17117630
v 0.02076500 21.83870320 1.15451470
v 0.03367230 21.74687190 1.00610510
v 0.03249490 21.75524900 0.94591980
v 0.01804620 21.85804560 0.84123340
v 0.00805930 21.92910190 0.82590500
v -0.00210600 22.00142290 0.84548530
v -1.17263050 21.70779420 0.98089360
v -1.17489930 21.72393800 0.95954910
v -1.17898990 21.75304030 0.95000000
v -1.18308060 21.78214260 0.95954910
v -1.18560860 21.80013080 0.98454920
v -1.18560860 21.80013080 1.01545080
v -1.18308060 21.78214260 1.04045080
v -1.17898990 21.75304030 1.05000000
v -1.17489930 21.72393800 1.04045080
v -1.17237130 21.70594980 1.01545080
v -1.19964650 21.90000530 0.90726610
v -1.19709130 21.88182640 0.88290390
v -1.18129740 21.76945880 0.83157990
v -1.16366310 21.64399530 0.86634650
v -1.15486940 21.58143040 0.97564240
v -1.15490580 21.58168980 1.02124360
v -1.16399360 21.64634700 1.13790050
v -1.18405380 21.78906820 1.17117630
v -1.20049630 21.90605160 1.08215960
v -0.67773240 21.77906040 0.97757910
v -0.67976620 21.79352950 0.95954910
v -0.68385680 21.82263370 0.95000000
v -0.68794740 21.85173610 0.95954910
v -0.69064580 21.87093540 0.99227460
v -0.68998130 21.86620710 1.02242000
v -0.68697740 21.84483530 1.04400180
v -0.68278160 21.81498340 1.04877640
v -0.67899630 21.78805160 1.03491910
v -0.67706780 21.77433200 1.00772550
v -0.66569270 21.82314273 0.99967968
v -0.00060430 21.27227780 0.93909410
v -0.00006080 21.26841160 1.07930720
v 0.01506760 21.16077800 1.16848470
v 0.02402550 21.09704590 1.17251900
v 0.03719040 21.00337980 1.12966990
v 0.04600160 20.94069290 1.00449820
v 0.04577250 20.94232180 0.97564240
v 0.03503810 21.01869200 0.85847870
v 0.01628150 21.15214160 0.82930670
v 0.01244430 21.17944340 0.83798570
v -1.06128140 20.91558270 0.98089360
v -1.06355020 20.93172450 0.95954910
v -1.06764080 20.96082690 0.95000000
v -1.07173140 20.98993110 0.95954910
v -1.07425950 21.00791740 0.98454920
v -1.07425950 21.00791740 1.01545080
v -1.07173140 20.98993110 1.04045080
v -1.06764080 20.96082690 1.05000000
v -1.06355020 20.93172450 1.04045080
v -1.06102220 20.91373830 1.01545080
v -1.09199040 21.13406750 0.99550170
v -1.08367170 21.07488250 0.86824420
v -1.06303120 20.92803190 0.82877100
v -1.05140460 20.84531020 0.87922350
v -1.04352030 20.78921700 0.97564240
v -1.04881010 20.82685280 1.11100150
v -1.06625400 20.95096020 1.17471610
v -1.08459290 21.08143620 1.12566260
v -0.56588900 20.98332980 0.98454920
v -0.56938710 21.00821880 0.95599820
v -0.57358300 21.03807070 0.95122360
v -0.57736830 21.06500240 0.96508090
v -0.57929670 21.07872200 0.99227460
v -0.57863220 21.07399370 1.02242000
v -0.57562840 21.05262370 1.04400130
v -0.57143250 21.02276990 1.04877640
v -0.56764730 20.99584200 1.03492000
v -0.56571870 20.98211860 1.00772550
v -0.55439525 21.03260350 1.00071070
v 0.26935940 22.88867570 0.96899430
v 0.26421160 22.85205080 0.87969800
v 0.24446000 22.71152500 0.82562820
v 0.22710870 22.58807750 0.89753680
v 0.22236880 22.55435370 1.02262340
v 0.23027430 22.61059950 1.12617890
v 0.24857570 22.74080660 1.17366980
v 0.26548940 22.86114310 1.10979340
v 1.55564620 22.70019720 0.93244890
v 1.55525930 22.69744490 1.08369650
v 1.53809750 22.57534410 1.17234170
v 1.52127080 22.45562740 1.14977790
v 1.50971500 22.37341120 1.02262340
v 1.51694790 22.42486950 0.88055590
v 1.52750560 22.49998660 0.83107580
v 1.54454610 22.62122340 0.84271200
v 0.25437410 22.06359860 1.08788910
v 0.25802500 22.08957480 0.96361770
v 0.25357860 22.05793760 0.89508500
v 0.22913570 21.88403510 0.82882370
v 0.21269320 21.76705360 0.91784040
v 0.21207200 21.76263240 1.05496980
v 0.21920330 21.81336980 1.13790050
v 0.23926350 21.95609280 1.17117630
v 0.24332380 21.98497960 1.16225800
v 1.44507070 21.91348840 1.05119290
v 1.43164320 21.81795690 1.16225800
v 1.41812040 21.72174450 1.17026460
v 1.40314010 21.61516570 1.10491490
v 1.39857210 21.58266450 1.00208950
v 1.40247810 21.61045460 0.90649140
v 1.41339480 21.68812370 0.83774200
v 1.42886220 21.79817010 0.83701750
v 1.43970670 21.87532420 0.87859230
v 1.44510320 21.91371920 0.93444600
v 0.24093400 21.24951550 1.10262510
v 0.21191550 21.04306030 0.84457890
v 0.19864360 20.94863320 0.94745090
v 0.19775660 20.94232180 0.97564240
v 0.20357950 20.98374940 1.10952590
v 0.22049030 21.10406490 1.17471610
v 0.22451180 21.13267710 1.17397320
v 1.30196230 20.89531710 1.16201440
v 1.29287240 20.83064650 1.10952590
v 1.28704940 20.78921700 0.97564240
v 1.28793640 20.79552840 0.94745090
v 1.30120840 20.88995360 0.84457890
v -0.83806310 7.92583940 1.25000000
v -0.83806310 7.92583940 1.20000000
v 0.76073030 7.92583940 1.20000000
v 0.76073030 7.92583940 1.25000000
v 0.76073030 7.97583960 1.20000000
v 0.76073030 7.97583960 1.25000000
v -0.83806310 7.97583960 1.20000000
v -0.83806310 7.97583960 1.25000000
v -0.82453370 8.92574790 1.25000000
v -0.82453370 8.92574790 1.20000000
v 0.77425970 8.92574790 1.20000000
v 0.77425970 8.92574790 1.25000000
v 0.77425970 8.97574810 1.20000000
v 0.77425970 8.97574810 1.25000000
v -0.82453370 8.97574810 1.20000000
v -0.82453370 8.97574810 1.25000000
v -0.81100430 9.92565630 1.25000000
v -0.81100430 9.92565630 1.20000000
v 0.78778900 9.92565630 1.20000000
v 0.78778900 9.92565630 1.25000000
v 0.78778900 9.97565650 1.20000000
v 0.78778900 9.97565650 1.25000000
v -0.81100430 9.97565650 1.20000000
v -0.81100430 9.97565650 1.25000000
v -0.79747490 10.92556480 1.25000000
v -0.79747490 10.92556480 1.20000000
v 0.80131850 10.92556480 1.20000000
v 0.80131850 10.92556480 1.25000000
v 0.80131850 10.97556500 1.20000000
v 0.80131850 10.97556500 1.25000000
v -0.79747490 10.97556500 1.20000000
v -0.79747490 10.97556500 1.25000000
v -0.78394560 11.92547320 1.25000000
v -0.78394560 11.92547320 1.20000000
v 0.81484780 11.92547320 1.20000000
v 0.81484780 11.92547320 1.25000000
v 0.81484780 11.97547340 1.20000000
v 0.81484780 11.97547340 1.25000000
v -0.78394560 11.97547340 1.20000000
v -0.78394560 11.97547340 1.25000000
v -0.77041610 12.92538170 1.25000000
v -0.77041610 12.92538170 1.20000000
v 0.82837720 12.92538170 1.20000000
v 0.82837720 12.92538170 1.25000000
v 0.82837720 12.97538190 1.20000000
v 0.82837720 12.97538190 1.25000000
v -0.77041610 12.97538190 1.20000000
v -0.77041610 12.97538190 1.25000000
v -0.75688670 13.92529010 1.25000000
v -0.75688670 13.92529010 1.20000000
v 0.84190670 13.92529010 1.20000000
v 0.84190670 13.92529010 1.25000000
v 0.84190670 13.97529030 1.20000000
v 0.84190670 13.97529030 1.25000000
v -0.75688670 13.97529030 1.20000000
v -0.75688670 13.97529030 1.25000000
v -0.74335740 14.92519860 1.25000000
v -0.74335740 14.92519860 1.20000000
v 0.85543600 14.92519860 1.20000000
v 0.85543600 14.92519860 1.25000000
v 0.85543600 14.97519870 1.20000000
v 0.85543600 14.97519870 1.25000000
v -0.74335740 14.97519870 1.20000000
v -0.74335740 14.97519870 1.25000000
v -0.72982790 15.92510700 1.25000000
v -0.72982790 15.92510700 1.20000000
v 0.86896540 15.92510700 1.20000000
v 0.86896540 15.92510700 1.25000000
v 0.86896540 15.97510720 1.20000000
v 0.86896540 15.97510720 1.25000000
v -0.72982790 15.97510720 1.20000000
v -0.72982790 15.97510720 1.25000000
v -0.71629860 16.92501640 1.25000000
v -0.71629860 16.92501640 1.20000000
v 0.88249480 16.92501640 1.20000000
v 0.88249480 16.92501640 1.25000000
v 0.88249480 16.97501560 1.20000000
v 0.88249480 16.97501560 1.25000000
v -0.71629860 16.97501560 1.20000000
v -0.71629860 16.97501560 1.25000000
v -0.70276920 17.92492490 1.25000000
v -0.70276920 17.92492490 1.20000000
v 0.89602420 17.92492490 1.20000000
v 0.89602420 17.92492490 1.25000000
v 0.89602420 17.97492410 1.20000000
v 0.89602420 17.97492410 1.25000000
v -0.70276920 17.97492410 1.20000000
v -0.70276920 17.97492410 1.25000000
v -0.68923980 18.92483330 1.25000000
v -0.68923980 18.92483330 1.20000000
v 0.90955360 18.92483330 1.20000000
v 0.90955360 18.92483330 1.25000000
v 0.90955360 18.97483250 1.20000000
v 0.90955360 18.97483250 1.25000000
v -0.68923980 18.97483250 1.20000000
v -0.68923980 18.97483250 1.25000000
v -0.76722750 21.54536625 0.71704875
v -0.79748670 21.76065060 1.32873940
v 1.01900910 21.60408020 0.71646310
v 1.02451080 21.64322280 1.33298530
v -4.08671639 1.87235260 -0.50000000
v -4.56895637 2.06327522 -1.00000000
v -4.46036765 2.31769945 1.00000000
v -0.67615735 23.42912707 0.98482434
v -0.20042181 23.27564456 0.97097251
v 0.37138990 21.80747990 0.71443410
v 0.37138990 21.80747990 1.32704620
v 0.37138990 22.27218134 1.01157949
v 0.80251370 20.37538530 1.05377320
v -1.76465890 4.51610657 0.50000000
v -1.65506173 4.73695881 -0.50000000
v 2.90180602 -1.45025924 0.50000000
v 3.45694350 -1.79323992 -1.00000000
v -1.13080726 -2.41278844 -1.00000000
v -0.55898460 20.37538530 1.05377320
v -2.21688695 7.53982140 0.50000000
v 3.97538112 2.16483283 -0.50000000
v 4.36844165 0.94822679 0.50000000
v 4.68351900 1.56270075 1.00000000
v 4.67365018 1.55489356 -1.00000000
v 0.53798675 24.34074975 1.23544987
v -0.12786080 21.80747990 0.71443410
v -0.12786080 21.76795390 1.32847520
v -0.12786080 21.48279435 1.05386237
v 1.51285530 5.46604155 -0.50000000
v 3.38900787 2.83941914 0.50000000
v 0.14622913 4.87651608 0.50000000
v 1.92465293 6.69417645 0.50000000
v 0.68670287 23.44852422 0.98664515
v -1.06747293 10.66324568 -1.00000000
v 2.62579897 9.80883860 -1.00000000
v 0.00000000 0.75000000 1.00000000
v 0.00000000 0.75000000 1.20000000
v -0.10742190 1.25000000 1.20000000
v -0.44921690 10.23273972 -0.50000000
v 1.33797070 6.94083170 1.05000000
v 1.37643815 6.30689525 1.00000000
v 1.37239500 6.44290450 1.05000000
v 1.27544830 5.98178860 1.05000000
v 0.94545660 5.49542330 1.00000000
v 0.94545660 5.49542330 1.05000000
v -0.24590030 5.14618870 1.00000000
v -0.52890660 5.23174760 1.05000000
v -1.09556005 5.71203665 1.05000000
v -1.35430460 6.15911770 1.00000000
v -1.33786880 6.11219790 1.05000000
v -1.39229835 6.59923430 1.00000000
v -1.37454835 6.44932650 1.05000000
v -1.35291100 6.89225580 1.05000000
v -0.11925069 23.78208328 0.69473719
v 1.20989116 23.55810495 0.69697139
v 0.00000000 1.25000000 1.00000000
v 0.02354985 7.46510952 0.89188489
v 0.29658887 19.76854320 1.20000000
v -0.55458150 22.66887280 0.82642980
v -0.62097320 22.46331410 0.98788870
v -0.68186340 22.77862930 1.09459650
v -1.03601010 22.53193860 1.00847660
v -1.03651723 22.53571056 1.02067369
v -0.94289500 21.83470150 0.98740320
v -0.94966470 21.79553990 1.04838980
v -0.88678930 21.83656500 1.02626300
v -0.55905530 21.19731710 1.06118690
v -0.51364060 20.87327000 0.93983550
v -0.50502380 20.88470270 1.08301160
v -0.81514300 20.96054270 1.03441230
v -0.85692695 20.95191478 1.03029953
v -0.77740860 20.95876120 1.02548040
v 0.87271450 22.68536000 1.16792210
v 0.75328450 22.50933070 1.09791970
v 1.07539500 22.71041110 1.14295920
v 0.64087000 20.87947850 1.01449970
v 0.11122047 7.92583940 1.25000000
v -0.38840250 7.97583960 1.25000000
v 0.12474987 8.92574790 1.25000000
v -0.02513700 8.92574790 1.20000000
v -0.37487305 8.97574810 1.25000000
v 0.13827925 9.92565630 1.25000000
v -0.01160760 9.92565630 1.20000000
v -0.36134370 9.97565650 1.25000000
v 0.15180868 10.92556480 1.25000000
v 0.00192180 10.92556480 1.20000000
v 0.16533800 11.92547320 1.25000000
v 0.01545110 11.92547320 1.20000000
v -0.33428495 11.97547340 1.25000000
v 0.17886745 12.92538170 1.25000000
v 0.02898060 12.92538170 1.20000000
v -0.32075550 12.97538190 1.25000000
v 0.19239687 13.92529010 1.25000000
v 0.04251000 13.92529010 1.20000000
v -0.30722610 13.97529030 1.25000000
v 0.05603930 14.92519860 1.20000000
v -0.29369675 14.97519870 1.25000000
v 0.06956880 15.92510700 1.20000000
v -0.28016730 15.97510720 1.25000000
v 0.08309810 16.92501640 1.20000000
v -0.26663795 16.97501560 1.25000000
v 0.09662750 17.92492490 1.20000000
v -0.25310855 17.97492410 1.25000000
v 0.11015690 18.92483330 1.20000000
v -0.23957910 18.97483250 1.25000000
v 0.00701582 23.90643617 1.25115344
v -0.82350137 9.05204726 1.00000000
v 0.38756540 19.76854320 1.50000000
v -0.84764300 22.55788800 1.00535640
v -1.04528710 22.43694500 1.08120800
v -1.06475560 22.72026060 1.07990370
v -0.22047320 21.11439700 1.17102730
v -0.15751630 20.91312980 1.01400010
v 1.21159540 22.62733270 1.15991280
v 1.33779980 22.42473600 1.06848650
v 0.36080490 20.92918210 0.97251130
v 0.21114500 7.97583960 1.25000000
v 0.22467445 8.97574810 1.25000000
v 0.23820380 9.97565650 1.25000000
v -0.04804055 10.97556500 1.25000000
v 0.26526260 11.97547340 1.25000000
v 0.27879200 12.97538190 1.25000000
v 0.29232140 13.97529030 1.25000000
v 0.05603930 14.97519870 1.20000000
v 0.30585080 14.97519870 1.25000000
v 0.06956880 15.97510720 1.20000000
v 0.31938020 15.97510720 1.25000000
v 0.08309810 16.97501560 1.20000000
v 0.33290960 16.97501560 1.25000000
v 0.09662750 17.97492410 1.20000000
v 0.34643900 17.97492410 1.25000000
v 0.11015690 18.97483250 1.20000000
v 0.35996840 18.97483250 1.25000000
v -0.86350625 22.23035910 0.71021580
v -0.70946030 21.13437080 0.72114850
v -0.73146680 21.29094030 1.34572280
v 0.95298940 21.13437080 0.72114850
v 1.10703540 22.23035910 0.71021580
v 1.10703540 22.23035910 1.31175600
v 0.93373355 20.99737165 1.35633750
v -0.98046596 -1.85477981 0.50000000
v 0.37138990 22.28180600 0.70970265
v 0.37138990 21.09598970 1.35277162
v -0.42911829 24.25956460 0.68997424
v -1.08911925 21.11363985 0.72135530
v -0.78748250 -2.36482511 1.00000000
v 1.54938880 22.65567780 0.70597330
v 1.31716690 21.00349430 0.72245400
v -0.12786080 21.33315370 0.71916560
v 0.62500000 0.75000000 1.00000000
v -0.62500000 0.75000000 1.00000000
v 0.62500000 0.75000000 1.20000000
v -0.62500000 0.75000000 1.20000000
v 0.62500000 1.25000000 1.20000000
v 0.34648126 5.24189197 1.05000000
v 0.56782898 23.84283019 0.69413116
v -0.39504414 1.74768484 -0.50000000
v 0.62500000 1.25000000 1.00000000
v -0.62500000 1.25000000 1.00000000
v 0.79069530 10.09044600 1.20000000
v -0.38738126 0.12414881 1.00000000
v -0.33165110 22.85372730 0.97136060
v -0.21171720 22.69749640 0.82570550
v -0.33578860 22.51508140 0.93697120
v -0.45743580 22.61740880 1.16854890
v -0.84746130 20.82530400 0.97549560
v -0.83196810 20.96609310 1.16357340
v 0.47358000 22.78858380 0.85278430
v 1.14471010 20.81837270 0.97401530
v -0.60935336 8.45876222 0.50000000
v -0.56377916 24.17837907 1.24132073
v 0.31250000 1.25000000 1.20000000
v 0.93750000 0.75000000 1.20000000
v -0.31250000 0.75000000 1.20000000
v 0.37138990 22.91424080 1.28702870
v -0.12786080 22.91424080 0.70339405
v 0.37138990 20.85882570 0.72389700
v 1.19506175 22.85663890 0.70396860
v -0.73310562 15.73286665 0.90000000
v -0.36617883 2.04313873 1.00000000
v -0.83709960 8.04705430 1.00000000
v -2.48612311 0.02558125 1.00000000
v -0.48832705 7.92583940 1.25000000
v -0.33844020 7.92583940 1.20000000
v 0.36103190 7.92583940 1.20000000
v -0.32491080 8.92574790 1.25000000
v -0.32491080 8.92574790 1.20000000
v 0.37456130 8.92574790 1.20000000
v -0.31138140 9.92565630 1.25000000
v -0.31138140 9.92565630 1.20000000
v 0.38809070 9.92565630 1.20000000
v -0.29785200 10.92556480 1.25000000
v 0.40162010 10.92556480 1.20000000
v -0.28432260 11.92547320 1.25000000
v -0.28432260 11.92547320 1.20000000
v 0.41514950 11.92547320 1.20000000
v -0.27079320 12.92538170 1.25000000
v -0.27079320 12.92538170 1.20000000
v 0.42867890 12.92538170 1.20000000
v -0.25726380 13.92529010 1.25000000
v -0.25726380 13.92529010 1.20000000
v 0.44220830 13.92529010 1.20000000
v -0.09384755 14.92519860 1.25000000
v 0.45573770 14.92519860 1.25000000
v -0.24373440 14.92519860 1.20000000
v 0.45573770 14.92519860 1.20000000
v -0.08031810 15.92510700 1.25000000
v 0.46926710 15.92510700 1.25000000
v -0.23020500 15.92510700 1.20000000
v 0.46926710 15.92510700 1.20000000
v -0.06678875 16.92501640 1.25000000
v 0.48279650 16.92501640 1.25000000
v -0.21667560 16.92501640 1.20000000
v 0.48279650 16.92501640 1.20000000
v -0.05325935 17.92492490 1.25000000
v 0.49632590 17.92492490 1.25000000
v -0.20314620 17.92492490 1.20000000
v 0.49632590 17.92492490 1.20000000
v -0.03973000 18.92483330 1.25000000
v 0.50985530 18.92483330 1.25000000
v -0.31452260 18.92483330 1.20000000
v 0.50985530 18.92483330 1.20000000
v -0.12786080 22.28180600 1.30989580
v -0.57945040 7.26421679 0.83621022
v -0.99038030 21.83936880 0.84953690
v 1.17054650 21.62589650 0.96614690
v 0.36103190 7.97583960 1.20000000
v 0.37456130 8.97574810 1.20000000
v 0.38809070 9.97565650 1.20000000
v 0.40162010 10.97556500 1.20000000
v 0.41514950 11.97547340 1.20000000
v 0.42867890 12.97538190 1.20000000
v 0.44220830 13.97529030 1.20000000
v 0.45573770 14.97519870 1.20000000
v 0.46926710 15.97510720 1.20000000
v 0.48279650 16.97501560 1.20000000
v 0.49632590 17.97492410 1.20000000
v 0.50985530 18.97483250 1.20000000
v -0.92952620 22.70006940 0.70553040
v -0.66544720 20.82123180 0.72427210
v -0.86350625 22.23035910 1.31175600
v -0.92952620 22.70006940 1.29477250
v 0.90897630 20.82123180 0.72427210
v 1.17305520 22.70006940 1.29477250
v 0.37138990 22.75613210 0.70497120
v 0.37138990 21.33315370 0.71916560
v 0.37138990 22.28180600 1.30989580
v -1.15104510 21.55422210 0.71696040
v -1.27489670 22.43538670 0.70817070
v -1.36585025 23.08249185 1.28094510
v -1.25409360 22.28737925 1.30969430
v 2.94066361 -2.01693053 0.01491935
v 1.36772328 21.36318593 1.04015008
v 1.58809230 22.93104175 1.28642120
v 1.47972225 22.16002275 0.71091745
v 1.00317810 24.06029130 0.69196205
v -0.12786080 22.28180600 0.70970265
v -0.12786080 22.75613210 1.29274550
v 0.93750000 0.75000000 1.00000000
v 0.31250000 0.75000000 1.00000000
v -0.31250000 0.75000000 1.00000000
v -0.93750000 0.75000000 1.00000000
v 0.31250000 0.75000000 1.20000000
v -0.93750000 0.75000000 1.20000000
v 0.93750000 1.25000000 1.20000000
v -0.42968750 1.25000000 1.20000000
v 0.38502788 8.55921994 -0.50000000
v 0.93750000 1.25000000 1.00000000
v 0.31250000 1.25000000 1.00000000
v -0.31250000 1.25000000 1.00000000
v -0.93750000 1.25000000 1.00000000
v -0.62468450 8.92574790 1.25000000
v 0.60146930 10.97556500 1.25000000
v -0.58409640 11.92547320 1.25000000
v -0.57056700 12.92538170 1.25000000
v -0.54350820 14.92519860 1.25000000
v 0.65558680 14.97519870 1.25000000
v -0.52997880 15.92510700 1.25000000
v 0.66911630 15.97510720 1.25000000
v -0.51644940 16.92501640 1.25000000
v 0.68264560 16.97501560 1.25000000
v -0.50292000 17.92492490 1.25000000
v 0.69617500 17.97492410 1.25000000
v 0.70970450 18.97483250 1.25000000
v 0.69010574 3.78144882 1.00000000
v -0.16356610 22.65986820 1.16887090
v -0.77626400 21.84225270 0.96245030
v -1.31360030 22.71075060 1.29438640
v -1.18200800 21.77451320 1.32823810
v -1.11234140 21.27885815 1.34615970
v 1.36361130 21.33393095 1.34416845
v 1.44875925 21.93973160 1.32226425
v -1.00397130 20.50783920 0.72739820
v -1.21297095 21.99480440 0.71256555
v -1.34456335 22.93104175 0.70322645
v -0.71181702 23.69501462 0.69560572
v 1.84181250 2.08876715 1.00000000
v -0.69746951 4.39236624 1.00000000
v -1.77864640 2.02516577 1.00000000
v -0.11461810 21.14032550 0.84368230
v 0.37138990 21.96442410 1.14889510
v 0.84309660 21.98181920 1.09541870
v 0.48245040 22.06021880 0.98128240
v -0.58825170 7.92583940 1.20000000
v -0.57472220 8.92574790 1.20000000
v -0.53413410 11.92547320 1.20000000
v -0.52060470 12.92538170 1.20000000
v -0.50707530 13.92529010 1.20000000
v -0.49354590 14.92519860 1.20000000
v -0.48001650 15.92510700 1.20000000
v -0.46648710 16.92501640 1.20000000
v -0.45295770 17.92492490 1.20000000
v 4.31250253 -1.25862965 0.06779676
v 1.20614317 1.90801584 0.50000000
v 0.56088110 7.92583940 1.25000000
v 0.56088110 7.92583940 1.20000000
v 0.06125815 7.92583940 1.20000000
v 0.57441050 8.92574790 1.25000000
v 0.57441050 8.92574790 1.20000000
v 0.17471220 8.92574790 1.20000000
v 0.58793990 9.92565630 1.25000000
v 0.58793990 9.92565630 1.20000000
v 0.18824150 9.92565630 1.20000000
v 0.60146930 10.92556480 1.25000000
v 0.60146930 10.92556480 1.20000000
v 0.20177090 10.92556480 1.20000000
v 0.61499860 11.92547320 1.25000000
v 0.61499860 11.92547320 1.20000000
v 0.21530030 11.92547320 1.20000000
v 0.62852810 12.92538170 1.25000000
v 0.62852810 12.92538170 1.20000000
v 0.22882970 12.92538170 1.20000000
v 0.64205750 13.92529010 1.25000000
v 0.64205750 13.92529010 1.20000000
v 0.24235910 13.92529010 1.20000000
v 0.65558680 14.92519860 1.25000000
v 0.25588850 14.92519860 1.25000000
v 0.65558680 14.92519860 1.20000000
v 0.25588850 14.92519860 1.20000000
v 0.66911630 15.92510700 1.25000000
v 0.26941790 15.92510700 1.25000000
v 0.66911630 15.92510700 1.20000000
v 0.26941790 15.92510700 1.20000000
v 0.68264560 16.92501640 1.25000000
v 0.28294730 16.92501640 1.25000000
v 0.68264560 16.92501640 1.20000000
v 0.28294730 16.92501640 1.20000000
v 0.69617500 17.92492490 1.25000000
v 0.29647670 17.92492490 1.25000000
v 0.69617500 17.92492490 1.20000000
v 0.29647670 17.92492490 1.20000000
v 0.70970450 18.92483330 1.25000000
v 0.31000610 18.92483330 1.25000000
v 0.70970450 18.92483330 1.20000000
v 0.31000610 18.92483330 1.20000000
v 1.23046730 21.92581180 0.92602690
v 0.16118270 7.97583960 1.20000000
v -0.50081770 7.97583960 1.20000000
v 0.17471220 8.97574810 1.20000000
v -0.48728820 8.97574810 1.20000000
v 0.18824150 9.97565650 1.20000000
v 0.04407745 10.97556500 1.20000000
v 0.21530030 11.97547340 1.20000000
v -0.44670010 11.97547340 1.20000000
v 0.22882970 12.97538190 1.20000000
v -0.43317070 12.97538190 1.20000000
v 0.24235910 13.97529030 1.20000000
v -0.41964130 13.97529030 1.20000000
v 0.25588850 14.97519870 1.20000000
v -0.28782960 14.97519870 1.20000000
v 0.26941790 15.97510720 1.20000000
v -0.27430020 15.97510720 1.20000000
v 0.28294730 16.97501560 1.20000000
v -0.26077080 16.97501560 1.20000000
v 0.29647670 17.97492410 1.20000000
v -0.24724140 17.97492410 1.20000000
v 0.31000610 18.97483250 1.20000000
v -0.23645650 18.97483250 1.20000000
v -1.01945275 20.61798475 1.37005500
v 1.25137082 20.53537557 1.37304203
v 1.51842580 22.43538670 1.30434270
v 1.38683340 21.49914935 0.71750980
v 1.27072260 20.67305760 0.72575010
v -0.12786080 21.29362680 1.34562560
v -0.41095170 21.98648260 0.87751280
v -0.24972400 22.01724430 1.11376130
v -0.94540520 21.81839940 1.03762700
v -1.12205219 21.34794681 0.93553277
v -0.76170650 22.59475330 1.17274670
v 0.85660600 20.84939190 1.01663710
v -2.36864780 9.35554700 -0.50000000
v -1.12285510 22.55115130 0.95380910
v -0.33644640 21.06452750 0.82551630
v -0.78125000 1.25000000 1.20000000
v 0.76482845 8.17871867 1.20000000
v -1.63728143 8.28421285 1.00000000
v -0.12697840 21.96566010 0.85156100
v 0.39750280 21.91162490 0.82618000
v -0.73205765 15.81031907 1.20000000
v -0.69397582 18.62480474 0.90000000
v 0.80600460 11.22190142 0.90000000
v -0.95941860 21.62075420 0.96755280
v 1.17758580 21.86080170 1.14491950
v 0.07333206 8.56763044 1.20000000
v 0.10253910 1.25000000 1.20000000
v 0.56041990 20.89034080 1.01041890
v 1.63824017 -0.43553997 1.00000000
v -0.15420420 7.97583960 1.20000000
v -0.14067480 8.97574810 1.20000000
v -0.30045220 9.97565650 1.20000000
v -0.10008670 11.97547340 1.20000000
v -0.08655730 12.97538190 1.20000000
v -0.07302780 13.97529030 1.20000000
v 0.98432340 21.97513010 1.07174580
v -0.80493316 10.42435623 1.20000000
v 0.80160400 10.89666912 1.20000000
v 0.90579635 18.59714848 0.90000000
v 0.84339661 13.98541055 0.90000000
v -0.81955920 21.06741330 0.85441750
v -0.10218280 18.92483330 1.20000000
v 0.85374583 14.75028135 1.20000000
v 0.72241944 0.68725118 -1.00000000
v -0.12519806 8.49012603 -1.00000000
v 0.34459530 21.01434330 1.14122610
v 0.57675051 19.77847707 1.03389752
v -0.49404410 22.02399250 0.97832640
v -0.69340600 21.86213870 0.97061070
v 0.85684480 20.85076747 1.00723987
v -0.83523865 8.18458734 1.20000000
v 1.31040490 20.95538330 1.00712570
v 0.91881910 20.84803390 1.02098830
v 0.60304830 20.88411140 1.00828550
v -0.60416550 22.00838090 0.97724840
v 0.56347660 22.77873040 1.14554620
v 0.98531960 21.89513210 1.15497090
v 0.49769400 22.53672980 0.91589440
v 0.64969660 22.03752330 1.00811590
v 1.40628360 22.71648790 1.05598620
v 0.72876360 22.00075910 1.09104140
v 0.82296570 22.76075360 0.86854330
v 1.10583600 20.83693890 1.05730710
v 1.05932820 22.59169770 1.17317440
v 1.06471490 20.82975200 1.02630660
v 0.22241780 21.11778070 0.95796660
v -0.21377080 21.71285820 0.99172190
v -1.29033900 22.54525380 1.17500000
v -0.75688670 13.97529030 1.20000000
v -1.29033900 22.54525380 1.17500000
v -1.29033900 22.54525380 1.17500000
v -0.75688670 13.97529030 1.20000000
v -0.75688670 13.97529030 1.20000000
v 1.43902626 21.87554953 0.87742430
v 1.44042284 21.87535447 0.87742430
v -1.08554118 21.08228705 1.12470315
v -1.08391602 21.08251555 1.12470315
v 1.51822794 22.42359045 0.87840610
v 1.51536466 22.42399325 0.87840610
v -1.19392987 21.87908572 0.87958010
v -1.19937483 21.87832048 0.87958010
v 1.28860372 20.83514250 1.11663480
v 1.29821518 20.83379140 1.11663480
v 0.81012995 10.91120261 1.20000000
v 0.79279255 10.91103131 1.20000000
v -0.69650640 15.86704411 1.20000000
v -0.76537915 15.86838196 1.20000000
v 0.75480530 10.03392314 1.20000000
v 0.82367900 10.03217936 1.20000000
v 0.90706609 14.83723292 1.20000000
v 0.80211574 14.83824703 1.20000000
v 0.70191565 8.07850858 1.20000000
v 0.82364310 8.07604969 1.20000000
v -0.88823032 9.01476648 1.10000000
v -0.75980475 9.01302888 1.10000000
v -0.56433046 18.77280992 1.05000000
v -0.81888516 18.77682812 1.05000000
v 0.69368410 18.28929082 1.05000000
v 1.10813645 18.28278176 1.05000000
v 1.03988189 11.57080328 1.05000000
v 0.58097051 11.57657134 1.05000000
v -1.04862386 13.45439482 1.25000000
v -0.47867894 13.44627718 1.25000000
v -0.43809049 16.44600301 1.20000000
v -1.00803601 16.45412059 1.20000000
f 2 10 1
f 10 2 9
f 9 2 3
f 9 3 15
f 15 3 4
f 14 15 4
f 5 14 4
f 14 5 6
f 14 6 13
f 13 6 7
f 13 7 12
f 12 7 8
f 12 8 11
f 11 8 1
f 65 73 64
f 73 65 72
f 72 65 66
f 72 66 78
f 78 66 67
f 78 67 77
f 77 67 68
f 77 68 69
f 77 69 76
f 76 69 70
f 76 70 75
f 75 70 71
f 75 71 74
f 74 71 64
f 96 104 95
f 104 96 103
f 103 96 97
f 103 97 109
f 109 97 98
f 109 98 108
f 108 98 99
f 108 99 100
f 108 100 107
f 107 100 101
f 107 101 106
f 106 101 102
f 106 102 105
f 105 102 95
f 111 105 110
f 105 111 112
f 106 105 112
f 106 112 107
f 107 112 113
f 107 113 108
f 108 113 114
f 108 114 115
f 108 115 109
f 109 115 116
f 109 116 103
f 103 116 117
f 103 117 104
f 104 117 110
f 135 143 134
f 134 143 139
f 138 139 140
f 138 134 139
f 138 140 137
f 137 140 141
f 137 141 136
f 136 141 142
f 135 136 143
f 143 136 142
f 144 145 149
f 153 145 146
f 152 147 151
f 157 167 156
f 171 74 170
f 74 171 172
f 75 74 172
f 75 172 173
f 76 75 173
f 76 173 174
f 77 76 174
f 77 174 175
f 77 175 78
f 78 175 176
f 78 176 72
f 72 176 177
f 72 177 73
f 73 177 170
f 149 153 182
f 178 149 182
f 149 178 150
f 150 178 179
f 150 179 151
f 151 179 180
f 151 180 152
f 152 180 181
f 153 181 182
f 153 152 181
f 207 58 57
f 58 218 59
f 28 815 183
f 56 813 918
f 218 58 687
f 185 11 184
f 11 185 12
f 12 185 186
f 12 186 13
f 13 186 187
f 14 187 188
f 14 13 187
f 189 14 188
f 15 14 189
f 9 15 190
f 15 189 190
f 10 9 191
f 9 190 191
f 10 191 184
f 125 124 857
f 331 124 123
f 197 206 202
f 206 198 199
f 205 200 204
f 687 211 688
f 688 855 64
f 325 170 177
f 171 170 854
f 692 220 225
f 221 224 220
f 238 246 237
f 237 246 242
f 237 242 241
f 241 242 243
f 241 243 240
f 240 243 244
f 240 244 239
f 239 244 245
f 238 245 246
f 238 239 245
f 202 259 255
f 202 206 259
f 202 255 203
f 203 255 256
f 203 256 204
f 204 256 257
f 204 257 258
f 205 204 258
f 205 258 259
f 206 205 259
f 260 135 134
f 135 261 262
f 262 263 137
f 132 35 34
f 278 279 273
f 278 273 277
f 276 277 698
f 290 283 289
f 289 284 288
f 238 294 239
f 239 295 240
f 213 64 71
f 707 95 102
f 7 6 706
f 902 69 68
f 67 2 68
f 65 64 855
f 286 306 302
f 286 290 306
f 286 302 287
f 287 302 303
f 287 303 288
f 288 303 304
f 288 304 289
f 289 304 305
f 290 289 305
f 306 290 305
f 170 325 712
f 712 329 332
f 348 341 347
f 347 342 346
f 1104 309 310
f 354 355 391
f 306 942 302
f 302 245 244
f 938 365 366
f 939 303 302
f 179 940 180
f 180 940 255
f 180 255 181
f 853 255 259
f 181 255 853
f 143 943 139
f 361 358 941
f 361 941 139
f 141 830 178
f 141 178 142
f 832 178 182
f 363 831 362
f 362 305 304
f 716 258 242
f 246 716 242
f 242 258 257
f 243 242 257
f 715 257 256
f 360 364 365
f 365 938 360
f 942 245 302
f 852 364 360
f 344 363 362
f 344 348 363
f 344 362 345
f 345 362 366
f 346 366 365
f 346 345 366
f 346 365 347
f 347 365 364
f 348 364 363
f 348 347 364
f 360 359 375
f 387 388 719
f 385 723 724
f 384 385 834
f 381 730 732
f 309 220 219
f 391 1104 392
f 199 735 200
f 292 296 735
f 292 199 717
f 717 199 198
f 262 1073 144
f 262 144 263
f 264 950 260
f 260 394 373
f 260 373 261
f 342 947 343
f 295 281 948
f 281 295 294
f 281 294 851
f 851 294 293
f 372 341 944
f 833 282 851
f 339 837 284
f 833 339 283
f 339 284 283
f 833 283 282
f 197 201 949
f 198 146 945
f 945 146 145
f 735 199 292
f 950 264 263
f 197 949 147
f 947 342 375
f 341 372 342
f 372 375 342
f 944 341 340
f 724 397 398
f 399 400 726
f 400 727 726
f 402 407 408
f 409 392 415
f 393 415 392
f 417 410 416
f 419 409 418
f 410 414 390
f 390 414 403
f 419 418 421
f 421 418 420
f 423 422 416
f 416 422 417
f 409 415 418
f 418 415 420
f 414 410 422
f 422 410 417
f 429 425 428
f 426 427 428
f 425 430 424
f 425 429 430
f 426 428 425
f 443 444 432
f 444 431 432
f 443 432 433
f 443 433 442
f 442 433 434
f 441 434 435
f 442 434 441
f 441 435 436
f 441 436 447
f 447 436 437
f 447 437 1125
f 1125 437 438
f 446 438 439
f 1125 438 446
f 445 439 440
f 446 439 445
f 445 440 431
f 444 445 431
f 439 741 742
f 742 457 440
f 457 458 448
f 452 458 453
f 453 458 454
f 454 458 455
f 456 458 457
f 448 458 449
f 449 458 450
f 450 458 451
f 451 458 452
f 455 458 456
f 459 460 463
f 466 464 465
f 459 463 464
f 467 464 466
f 459 464 467
f 461 463 460
f 462 463 461
f 477 468 482
f 468 481 482
f 468 469 481
f 481 469 480
f 480 469 470
f 480 470 471
f 480 471 479
f 478 471 472
f 478 479 471
f 486 472 473
f 478 472 486
f 486 473 474
f 486 474 485
f 485 474 475
f 484 475 476
f 485 475 484
f 483 476 477
f 484 476 483
f 482 483 477
f 743 477 744
f 744 473 745
f 491 745 743
f 491 490 497
f 490 489 497
f 489 488 497
f 491 497 492
f 492 497 493
f 493 497 494
f 495 497 496
f 496 497 487
f 487 497 488
f 494 497 495
f 505 503 504
f 506 502 505
f 498 500 507
f 506 501 502
f 500 498 499
f 502 503 505
f 501 507 500
f 501 506 507
f 517 522 523
f 508 521 522
f 508 509 521
f 509 510 520
f 509 520 521
f 510 511 519
f 520 510 519
f 519 511 512
f 519 512 518
f 518 512 513
f 525 513 514
f 525 518 513
f 525 514 515
f 525 515 524
f 524 515 516
f 524 516 523
f 523 516 517
f 522 517 508
f 516 749 750
f 750 534 751
f 517 751 749
f 535 536 526
f 530 536 531
f 531 536 532
f 532 536 533
f 534 536 535
f 526 536 527
f 527 536 528
f 528 536 529
f 529 536 530
f 533 536 534
f 542 537 541
f 543 544 542
f 542 544 537
f 541 537 538
f 540 541 538
f 540 538 539
f 552 550 551
f 545 548 552
f 550 552 549
f 547 545 546
f 549 552 548
f 548 545 547
f 553 554 559
f 560 553 559
f 561 553 560
f 555 558 554
f 554 558 559
f 555 557 558
f 557 555 556
f 562 565 571
f 571 565 570
f 569 566 567
f 569 567 568
f 570 566 569
f 566 570 565
f 564 562 563
f 565 562 564
f 576 573 575
f 577 1123 576
f 576 1123 573
f 573 574 575
f 583 1109 582
f 1109 580 581
f 1109 581 582
f 580 1109 579
f 587 586 589
f 589 586 588
f 591 590 584
f 584 590 585
f 595 594 597
f 597 594 596
f 599 598 592
f 592 598 593
f 603 602 605
f 605 602 604
f 607 606 600
f 600 606 601
f 611 610 613
f 613 610 612
f 615 614 608
f 608 614 609
f 619 618 621
f 621 618 620
f 623 622 616
f 616 622 617
f 627 626 629
f 629 626 628
f 631 630 624
f 624 630 625
f 635 634 637
f 637 634 636
f 639 1126 633
f 632 639 633
f 643 642 645
f 645 642 644
f 647 646 640
f 640 646 641
f 651 650 653
f 653 650 652
f 655 654 648
f 648 654 649
f 659 658 661
f 661 658 660
f 663 662 656
f 656 662 657
f 667 666 669
f 669 666 668
f 671 670 664
f 664 670 665
f 675 674 677
f 677 674 676
f 679 678 672
f 672 678 673
f 145 153 149
f 144 149 150
f 144 150 148
f 151 148 150
f 146 152 153
f 152 146 147
f 680 87 94
f 919 31 30
f 31 919 24
f 687 58 207
f 90 920 91
f 59 921 60
f 218 921 59
f 275 919 30
f 29 698 30
f 698 29 183
f 28 183 29
f 698 275 30
f 27 26 93
f 28 27 815
f 815 92 681
f 25 680 26
f 24 814 25
f 56 63 813
f 813 63 88
f 57 56 918
f 89 88 62
f 63 62 88
f 61 920 90
f 61 89 62
f 60 920 61
f 162 169 816
f 41 40 682
f 162 816 922
f 817 40 47
f 125 857 118
f 42 682 168
f 682 42 41
f 167 683 168
f 166 819 167
f 168 43 42
f 165 692 226
f 164 692 165
f 163 692 164
f 162 922 163
f 122 121 818
f 44 818 45
f 122 818 923
f 46 45 120
f 120 119 46
f 119 817 47
f 119 47 46
f 118 817 119
f 820 235 193
f 193 194 196
f 198 206 197
f 197 202 201
f 202 203 201
f 204 200 203
f 199 205 206
f 205 199 200
f 218 687 217
f 208 687 207
f 217 687 216
f 209 687 208
f 216 687 215
f 210 687 209
f 211 687 210
f 215 687 214
f 688 214 687
f 212 688 211
f 214 688 213
f 855 688 212
f 64 213 688
f 924 175 821
f 689 190 189
f 222 114 223
f 113 223 114
f 112 822 113
f 191 691 184
f 185 691 926
f 691 185 184
f 691 174 173
f 691 821 174
f 190 821 191
f 174 821 175
f 116 925 117
f 117 188 110
f 111 110 188
f 111 188 187
f 112 111 822
f 856 115 114
f 220 692 219
f 692 225 226
f 224 225 220
f 223 221 222
f 224 221 223
f 114 222 856
f 973 79 86
f 972 18 17
f 20 969 21
f 21 969 1067
f 81 969 82
f 22 21 1067
f 23 22 1067
f 969 81 1067
f 927 80 79
f 49 973 50
f 84 930 51
f 83 968 84
f 20 19 1058
f 18 1058 19
f 261 135 260
f 260 134 264
f 134 138 264
f 137 264 138
f 262 136 135
f 136 262 137
f 155 1061 156
f 156 932 157
f 35 971 36
f 159 158 1059
f 129 128 933
f 270 267 1059
f 131 35 132
f 272 273 279
f 274 277 273
f 698 274 275
f 274 698 277
f 276 698 183
f 233 694 699
f 282 286 281
f 286 282 290
f 281 287 285
f 287 281 286
f 288 285 287
f 290 282 283
f 284 289 283
f 293 237 292
f 237 293 238
f 292 241 296
f 241 292 237
f 240 296 241
f 238 293 294
f 295 239 294
f 271 97 828
f 936 2 67
f 272 279 271
f 271 99 98
f 99 271 279
f 97 271 98
f 100 279 101
f 102 1063 707
f 4 828 5
f 707 96 95
f 828 4 705
f 6 707 706
f 707 6 5
f 101 1063 102
f 279 100 99
f 7 902 8
f 902 937 69
f 8 902 68
f 2 1 68
f 66 936 67
f 310 309 270
f 309 267 270
f 233 311 312
f 710 314 301
f 854 712 336
f 712 854 170
f 336 712 335
f 326 712 325
f 335 712 334
f 327 712 326
f 328 712 327
f 334 712 333
f 329 712 328
f 333 712 332
f 330 332 329
f 857 332 330
f 301 711 708
f 340 344 339
f 344 340 348
f 339 345 343
f 345 339 344
f 346 343 345
f 348 340 341
f 342 347 341
f 351 713 1102
f 391 355 309
f 362 304 829
f 938 366 829
f 257 715 243
f 940 179 830
f 306 305 831
f 306 831 942
f 142 832 943
f 258 716 259
f 368 369 367
f 352 367 369
f 854 213 937
f 216 229 217
f 929 218 229
f 277 276 337
f 276 232 337
f 223 278 337
f 337 278 277
f 337 310 224
f 223 337 224
f 310 225 224
f 225 310 270
f 226 225 270
f 269 332 331
f 230 785 704
f 279 278 223
f 356 353 337
f 310 337 353
f 375 372 360
f 387 719 721
f 387 721 720
f 386 720 722
f 386 378 723
f 724 723 378
f 385 724 834
f 384 834 725
f 725 726 383
f 726 725 834
f 382 729 728
f 379 381 732
f 381 379 380
f 271 856 222
f 272 222 221
f 273 272 355
f 273 355 274
f 274 355 231
f 355 272 221
f 355 221 309
f 220 309 221
f 219 267 309
f 827 922 816
f 330 329 734
f 734 329 328
f 1104 393 392
f 285 284 837
f 285 837 948
f 144 838 263
f 339 833 340
f 197 146 198
f 144 148 838
f 396 719 395
f 719 396 721
f 721 396 397
f 721 397 722
f 722 397 378
f 378 397 724
f 401 727 400
f 729 401 731
f 402 731 401
f 731 402 732
f 732 402 379
f 404 405 395
f 395 317 396
f 401 311 402
f 311 320 903
f 319 736 903
f 394 361 373
f 361 394 358
f 723 385 307
f 730 381 297
f 388 370 376
f 411 389 412
f 420 415 421
f 842 738 841
f 844 965 841
f 440 741 431
f 448 741 457
f 449 741 448
f 431 741 432
f 450 741 449
f 432 741 433
f 451 741 450
f 433 741 434
f 452 741 451
f 434 741 435
f 453 741 452
f 435 741 436
f 454 741 453
f 436 741 437
f 455 741 454
f 437 741 438
f 456 741 455
f 438 741 439
f 741 456 742
f 457 742 456
f 439 742 440
f 477 743 468
f 487 743 496
f 488 743 487
f 468 743 469
f 489 743 488
f 469 743 470
f 490 743 489
f 470 743 471
f 491 743 490
f 471 743 472
f 472 743 473
f 492 745 491
f 744 496 743
f 476 744 477
f 496 744 495
f 475 744 476
f 495 744 494
f 474 744 475
f 494 744 493
f 473 744 474
f 493 744 745
f 745 492 493
f 745 473 743
f 1098 747 845
f 792 747 1072
f 1098 518 846
f 845 748 846
f 791 748 792
f 517 749 508
f 526 749 535
f 527 749 526
f 508 749 509
f 509 749 510
f 528 749 527
f 510 749 511
f 529 749 528
f 511 749 512
f 530 749 529
f 512 749 513
f 531 749 530
f 513 749 514
f 532 749 531
f 514 749 515
f 533 749 532
f 515 749 516
f 534 749 533
f 749 534 750
f 516 750 517
f 751 517 750
f 751 535 749
f 535 751 534
f 1113 544 543
f 1115 753 1113
f 795 1111 1103
f 1109 583 848
f 864 996 1036
f 867 999 1038
f 870 1002 1040
f 872 1005 909
f 875 1008 1042
f 878 1011 1044
f 881 1014 1046
f 883 1016 885
f 885 1018 913
f 887 1020 889
f 889 1022 914
f 891 1024 893
f 893 1026 915
f 895 1028 897
f 897 1030 916
f 899 1032 1034
f 901 1034 1056
f 32 33 47
f 118 119 133
f 683 167 819
f 818 44 683
f 689 821 190
f 85 973 86
f 155 154 827
f 971 970 36
f 127 126 826
f 33 133 132
f 828 96 5
f 311 233 699
f 233 710 693
f 1101 703 254
f 939 302 244
f 715 939 243
f 830 140 941
f 181 853 182
f 178 832 142
f 821 689 705
f 262 261 1073
f 947 837 343
f 147 146 197
f 944 340 833
f 282 281 851
f 292 1084 293
f 739 788 738
f 1068 789 788
f 740 790 1068
f 738 788 740
f 748 791 746
f 753 1121 752
f 752 793 754
f 796 906 1036
f 797 907 1038
f 798 908 1040
f 1041 952 909
f 800 910 1042
f 801 911 1044
f 802 912 1046
f 804 913 1048
f 806 914 1050
f 808 915 1052
f 810 916 1054
f 812 917 1056
f 158 166 157
f 919 814 24
f 93 26 94
f 921 920 60
f 681 91 920
f 27 93 815
f 92 91 681
f 90 89 61
f 88 87 813
f 57 918 207
f 816 169 682
f 692 922 219
f 922 692 163
f 682 169 168
f 40 817 682
f 857 817 118
f 166 165 819
f 226 819 165
f 121 120 818
f 45 818 120
f 123 923 331
f 923 123 122
f 43 683 44
f 684 195 194
f 684 192 195
f 694 192 684
f 192 694 693
f 325 177 924
f 689 189 925
f 925 116 856
f 115 856 116
f 188 925 189
f 690 186 926
f 185 926 186
f 926 173 172
f 926 172 854
f 177 176 924
f 111 187 690
f 187 186 690
f 927 23 1067
f 973 49 928
f 973 85 50
f 967 929 53
f 1058 969 20
f 930 84 968
f 228 974 929
f 53 929 54
f 54 929 974
f 55 54 974
f 693 694 233
f 236 234 695
f 695 234 235
f 695 235 820
f 38 932 1061
f 37 932 38
f 1059 158 970
f 1060 971 131
f 1060 131 130
f 130 129 933
f 159 1059 160
f 33 934 133
f 126 133 934
f 33 32 934
f 33 132 34
f 934 826 126
f 934 32 1061
f 39 38 1061
f 131 971 35
f 127 268 128
f 1070 699 694
f 280 699 1070
f 709 700 701
f 700 234 701
f 828 97 96
f 705 3 936
f 2 936 3
f 936 66 855
f 213 71 937
f 279 1063 101
f 1063 706 707
f 4 3 705
f 8 68 1
f 71 70 937
f 700 709 300
f 313 710 312
f 315 301 314
f 316 711 315
f 324 317 318
f 338 711 324
f 711 338 708
f 338 323 357
f 338 324 323
f 938 359 360
f 829 304 303
f 829 303 939
f 715 256 940
f 830 179 178
f 830 141 140
f 246 942 716
f 942 246 245
f 831 363 852
f 363 364 852
f 182 853 832
f 143 142 943
f 335 785 336
f 213 336 214
f 214 785 215
f 850 215 785
f 229 216 850
f 232 276 1058
f 333 269 704
f 785 335 704
f 336 785 214
f 704 335 334
f 854 937 926
f 374 321 1070
f 321 374 322
f 718 322 374
f 323 322 718
f 388 377 719
f 382 727 729
f 730 731 732
f 271 828 856
f 210 733 211
f 211 733 212
f 325 733 326
f 268 734 935
f 835 328 327
f 935 835 227
f 326 835 327
f 835 326 733
f 325 212 733
f 694 708 946
f 1104 353 393
f 296 295 948
f 285 948 281
f 148 147 949
f 201 735 949
f 263 838 950
f 292 717 1084
f 377 395 719
f 724 398 834
f 727 401 729
f 903 402 311
f 319 903 320
f 318 736 319
f 387 350 371
f 720 350 387
f 386 307 720
f 720 307 350
f 385 964 307
f 977 383 265
f 382 265 383
f 265 382 728
f 728 297 265
f 730 297 728
f 247 702 248
f 356 737 353
f 430 841 424
f 441 790 442
f 841 430 842
f 788 1071 790
f 429 842 430
f 428 842 429
f 738 842 843
f 842 428 427
f 789 445 444
f 426 965 427
f 739 843 844
f 444 1071 789
f 445 789 446
f 446 789 1125
f 790 1125 789
f 1068 844 740
f 1125 790 447
f 447 790 441
f 740 841 738
f 841 740 844
f 518 1098 519
f 519 1098 520
f 507 979 498
f 506 979 507
f 505 979 506
f 845 521 520
f 520 1098 845
f 521 845 522
f 504 792 505
f 979 505 792
f 502 792 503
f 791 499 979
f 746 846 748
f 846 746 1098
f 525 846 518
f 499 791 500
f 500 791 501
f 524 846 525
f 846 524 845
f 501 792 502
f 792 501 791
f 523 845 524
f 522 845 523
f 545 1117 546
f 544 1113 537
f 793 547 1117
f 546 1117 547
f 752 1113 753
f 542 1113 543
f 1113 542 1115
f 548 794 549
f 541 1115 542
f 549 794 550
f 540 1115 541
f 1115 540 539
f 1117 551 550
f 550 794 1117
f 539 847 1115
f 538 847 539
f 551 1117 552
f 552 1117 545
f 537 847 538
f 847 537 1113
f 754 1119 752
f 578 1103 572
f 577 1103 578
f 576 1103 577
f 1069 755 1110
f 575 795 576
f 1103 576 795
f 573 795 574
f 1123 572 1103
f 572 1123 577
f 577 578 572
f 795 573 1123
f 582 848 583
f 584 983 862
f 756 864 994
f 906 995 864
f 796 756 994
f 591 862 757
f 951 592 984
f 758 867 997
f 907 998 867
f 797 758 997
f 760 599 865
f 761 870 1000
f 908 1001 870
f 798 761 1000
f 607 868 763
f 764 872 1003
f 909 1004 872
f 799 764 952
f 615 871 799
f 953 616 985
f 766 875 1006
f 910 1007 875
f 800 766 1006
f 768 623 873
f 954 624 986
f 769 878 1009
f 911 1010 878
f 801 769 1009
f 771 631 876
f 772 881 1012
f 912 1013 881
f 802 772 1012
f 639 632 774
f 640 988 955
f 883 885 1015
f 913 1017 885
f 804 883 956
f 955 882 776
f 648 989 957
f 887 889 1019
f 914 1021 889
f 806 887 958
f 957 886 778
f 656 990 959
f 891 893 1023
f 915 1025 893
f 808 891 960
f 959 890 780
f 664 991 961
f 895 897 1027
f 916 1029 897
f 810 895 962
f 961 894 782
f 899 901 1031
f 917 1033 901
f 812 899 963
f 679 672 784
f 121 131 132
f 325 924 855
f 691 173 926
f 823 229 850
f 824 972 16
f 48 55 974
f 128 268 933
f 932 156 1061
f 827 1061 155
f 268 935 269
f 301 708 300
f 710 313 314
f 391 309 1104
f 259 716 853
f 942 833 851
f 832 853 945
f 336 213 854
f 785 230 850
f 279 223 822
f 382 383 727
f 726 727 383
f 730 728 731
f 729 731 728
f 814 824 927
f 212 325 855
f 1061 827 816
f 735 201 200
f 834 399 726
f 406 736 405
f 395 736 318
f 410 1078 409
f 748 845 747
f 979 1072 791
f 1107 848 1110
f 1087 1036 996
f 1088 1038 759
f 1089 1040 762
f 1090 1042 767
f 1091 1044 770
f 1092 1046 773
f 803 1048 775
f 805 1050 777
f 807 1052 779
f 809 1054 781
f 811 1056 783
f 196 194 195
f 229 823 228
f 230 704 227
f 704 269 935
f 266 297 299
f 849 322 323
f 693 710 993
f 291 703 1101
f 685 1101 252
f 717 716 1084
f 852 944 831
f 923 1060 933
f 835 935 328
f 403 356 390
f 407 402 903
f 356 403 414
f 410 409 419
f 793 1117 754
f 581 848 582
f 756 862 863
f 863 996 756
f 757 796 1087
f 1036 1087 796
f 862 756 757
f 758 865 759
f 866 759 865
f 760 797 1088
f 1038 1088 797
f 760 865 797
f 761 868 762
f 869 762 868
f 1089 798 1040
f 798 1089 763
f 868 761 763
f 764 871 765
f 609 765 871
f 871 764 799
f 766 873 767
f 874 767 873
f 768 800 1090
f 1042 1090 800
f 768 873 800
f 769 876 770
f 877 770 876
f 771 801 1091
f 1044 1091 801
f 771 876 801
f 772 879 773
f 880 773 879
f 774 802 1092
f 1046 1092 802
f 879 772 774
f 884 775 882
f 1049 776 803
f 1048 803 804
f 776 804 803
f 888 777 886
f 1051 778 805
f 1050 805 806
f 778 806 805
f 892 779 890
f 1053 780 807
f 1052 807 808
f 780 808 807
f 896 781 894
f 1055 782 809
f 1054 809 810
f 782 810 809
f 900 1099 898
f 784 812 811
f 1056 811 812
f 784 811 1057
f 815 93 92
f 820 193 196
f 924 176 175
f 821 691 191
f 925 188 117
f 822 223 113
f 822 111 690
f 854 172 171
f 230 227 823
f 23 824 16
f 928 49 48
f 967 53 52
f 51 930 52
f 82 969 968
f 248 931 247
f 254 931 696
f 931 253 696
f 825 253 248
f 253 931 248
f 253 825 697
f 825 252 697
f 158 157 970
f 932 970 157
f 932 37 970
f 933 1060 130
f 268 127 826
f 1061 32 39
f 154 1062 827
f 1062 154 161
f 254 703 702
f 254 702 247
f 935 227 704
f 5 96 707
f 855 66 65
f 937 70 69
f 301 300 709
f 711 301 315
f 324 318 849
f 324 849 323
f 319 320 849
f 320 699 280
f 318 319 849
f 701 993 709
f 357 323 718
f 829 366 362
f 939 244 243
f 940 256 255
f 941 140 139
f 305 362 831
f 139 943 361
f 369 714 352
f 369 370 714
f 389 367 352
f 372 944 852
f 717 853 716
f 361 943 373
f 1073 943 832
f 822 690 1063
f 926 937 902
f 216 215 850
f 967 921 218
f 681 969 815
f 183 1058 276
f 967 930 921
f 930 968 920
f 681 920 968
f 1058 183 815
f 1060 923 818
f 818 683 971
f 1059 819 226
f 933 331 923
f 269 333 332
f 1063 279 822
f 271 222 272
f 919 275 972
f 231 972 275
f 972 824 919
f 974 207 918
f 973 928 813
f 975 228 823
f 689 925 828
f 936 855 924
f 936 924 821
f 922 1062 219
f 827 1062 922
f 267 219 1062
f 1061 816 682
f 934 1061 682
f 826 817 857
f 330 826 857
f 826 330 268
f 734 268 330
f 935 734 328
f 374 946 718
f 837 339 343
f 296 948 735
f 148 949 838
f 260 950 394
f 407 903 406
f 736 406 903
f 736 395 405
f 976 964 947
f 977 964 384
f 298 297 1075
f 297 381 1075
f 1075 413 298
f 380 1075 381
f 1075 380 860
f 1075 786 413
f 786 412 413
f 1086 248 702
f 359 1086 702
f 369 376 370
f 737 415 393
f 737 356 414
f 353 737 393
f 389 713 412
f 713 389 352
f 412 351 413
f 299 298 351
f 379 1108 860
f 389 411 858
f 737 787 415
f 787 423 416
f 416 419 787
f 738 843 739
f 739 844 1068
f 1105 966 1106
f 460 1065 461
f 904 478 1066
f 459 1065 460
f 1065 459 1076
f 503 792 504
f 747 792 748
f 560 559 980
f 564 905 565
f 905 564 1082
f 558 1077 980
f 566 905 567
f 982 1116 1077
f 580 848 581
f 574 795 575
f 755 1103 1111
f 585 983 584
f 587 994 995
f 994 864 995
f 796 589 906
f 591 757 1037
f 586 995 588
f 906 588 995
f 996 863 1087
f 589 796 994
f 756 796 757
f 584 862 591
f 865 951 866
f 592 593 984
f 595 997 998
f 759 999 758
f 997 867 998
f 797 597 907
f 599 760 1039
f 594 998 596
f 759 1038 999
f 907 596 998
f 759 866 1088
f 597 797 997
f 865 758 797
f 592 951 599
f 951 865 599
f 868 600 869
f 603 1000 1001
f 762 1002 761
f 1000 870 1001
f 798 605 908
f 607 763 606
f 602 1001 604
f 762 1040 1002
f 908 604 1001
f 762 869 1089
f 605 798 1000
f 761 798 763
f 868 607 600
f 871 608 609
f 611 1003 610
f 765 1005 764
f 1003 872 1004
f 1041 799 952
f 612 952 613
f 615 799 614
f 610 1004 612
f 765 1041 1005
f 909 612 1004
f 1041 765 614
f 952 764 1003
f 613 952 611
f 871 615 608
f 873 953 874
f 616 617 985
f 619 1006 1007
f 767 1008 766
f 1006 875 1007
f 800 621 910
f 623 768 1043
f 618 1007 620
f 767 1042 1008
f 910 620 1007
f 767 874 1090
f 621 800 1006
f 873 766 800
f 616 953 623
f 953 873 623
f 876 954 877
f 624 625 986
f 627 1009 1010
f 770 1011 769
f 1009 878 1010
f 801 629 911
f 631 771 1045
f 626 1010 628
f 770 1044 1011
f 911 628 1010
f 770 877 1091
f 629 801 1009
f 876 769 801
f 624 954 631
f 954 876 631
f 879 632 987
f 633 987 632
f 635 1012 1013
f 773 1014 772
f 1012 881 1013
f 802 637 912
f 639 774 1047
f 634 1013 636
f 773 1046 1014
f 912 636 1013
f 773 880 1092
f 637 802 1012
f 772 802 774
f 879 774 632
f 882 955 884
f 641 988 640
f 643 1015 642
f 775 1016 882
f 1016 775 1018
f 1015 885 1017
f 804 956 913
f 644 956 645
f 647 776 1049
f 642 1017 644
f 775 1048 1018
f 913 644 1017
f 775 884 803
f 804 882 1016
f 956 883 1015
f 882 804 776
f 645 956 643
f 640 955 647
f 776 647 955
f 886 957 888
f 649 989 648
f 651 1019 650
f 777 1020 886
f 1020 777 1022
f 1019 889 1021
f 806 958 914
f 652 958 653
f 655 778 1051
f 650 1021 652
f 777 1050 1022
f 914 652 1021
f 777 888 805
f 806 886 1020
f 958 887 1019
f 886 806 778
f 653 958 651
f 648 957 655
f 778 655 957
f 890 959 892
f 657 990 656
f 659 1023 658
f 779 1024 890
f 1024 779 1026
f 1023 893 1025
f 808 960 915
f 660 960 661
f 663 780 1053
f 658 1025 660
f 779 1052 1026
f 915 660 1025
f 779 892 807
f 808 890 1024
f 960 891 1023
f 890 808 780
f 661 960 659
f 656 959 663
f 780 663 959
f 894 961 896
f 665 991 664
f 667 1027 666
f 781 1028 894
f 1028 781 1030
f 1027 897 1029
f 810 962 916
f 668 962 669
f 671 782 1055
f 666 1029 668
f 781 1054 1030
f 916 668 1029
f 781 896 809
f 810 894 1028
f 962 895 1027
f 894 810 782
f 669 962 667
f 664 961 671
f 782 671 961
f 675 1031 674
f 783 1032 898
f 1032 783 1034
f 1031 901 1033
f 812 963 917
f 676 963 677
f 679 784 1057
f 674 1033 676
f 783 1056 1034
f 917 676 1033
f 812 784 1032
f 963 899 1031
f 898 1032 784
f 677 963 675
f 814 680 25
f 722 720 721
f 394 861 358
f 368 1095 839
f 217 229 218
f 228 208 207
f 300 708 694
f 945 145 1073
f 965 424 841
f 685 686 265
f 706 902 7
f 733 975 823
f 788 790 740
f 680 813 87
f 683 43 168
f 232 1058 972
f 818 971 1060
f 1094 1108 1083
f 842 427 843
f 965 843 427
f 843 965 844
f 425 965 426
f 424 965 425
f 498 979 499
f 982 981 1116
f 983 863 862
f 983 1037 863
f 984 866 951
f 984 1039 866
f 601 869 600
f 601 606 869
f 985 874 953
f 985 1043 874
f 986 877 954
f 986 1045 877
f 987 880 879
f 987 1047 880
f 988 884 955
f 988 1049 884
f 989 888 957
f 989 1051 888
f 990 892 959
f 990 1053 892
f 991 896 961
f 991 1055 896
f 673 900 672
f 49 62 63
f 856 828 925
f 859 977 978
f 298 299 297
f 312 710 233
f 695 993 701
f 815 969 1058
f 683 819 970
f 927 680 814
f 374 1070 946
f 976 359 702
f 1035 568 905
f 931 992 247
f 931 254 992
f 192 196 195
f 828 705 689
f 705 936 821
f 837 964 859
f 977 265 978
f 840 825 1086
f 351 412 713
f 638 1078 858
f 858 411 638
f 904 479 478
f 480 904 481
f 483 1081 484
f 1066 484 1081
f 1066 1081 966
f 484 1066 485
f 461 1065 462
f 485 1066 486
f 1112 1066 966
f 486 1066 478
f 563 562 1082
f 1082 564 563
f 558 980 559
f 565 905 566
f 555 1077 556
f 569 1035 570
f 571 570 1035
f 562 1035 1082
f 1035 562 571
f 553 982 554
f 680 94 26
f 972 17 16
f 927 79 973
f 928 48 974
f 229 228 929
f 967 52 930
f 254 247 992
f 36 970 37
f 350 307 308
f 299 1102 266
f 308 1102 349
f 714 349 1102
f 1102 352 714
f 251 685 252
f 371 714 370
f 371 350 349
f 832 945 1073
f 690 926 902
f 706 1063 690
f 969 681 968
f 970 819 1059
f 813 680 973
f 814 919 824
f 918 928 974
f 826 934 817
f 1096 391 392
f 694 684 836
f 300 836 700
f 836 300 694
f 718 946 357
f 1073 261 373
f 1095 1094 839
f 384 964 385
f 375 976 947
f 964 837 947
f 837 859 948
f 948 859 735
f 859 964 977
f 735 859 949
f 949 859 838
f 394 950 978
f 950 838 859
f 977 384 725
f 383 977 725
f 1075 860 786
f 411 412 786
f 861 978 686
f 978 861 394
f 250 861 686
f 861 249 825
f 358 861 840
f 941 840 830
f 825 840 861
f 830 840 940
f 940 840 715
f 715 840 939
f 939 840 829
f 829 1086 938
f 1086 829 840
f 359 938 1086
f 375 359 976
f 702 307 976
f 351 298 413
f 1074 377 376
f 1080 1095 368
f 380 379 860
f 786 1094 411
f 410 1079 1078
f 479 904 480
f 966 1081 904
f 464 1124 465
f 1064 1076 1124
f 462 1124 463
f 1124 462 1065
f 904 1066 1106
f 561 980 553
f 982 553 980
f 560 980 561
f 567 905 568
f 1035 569 568
f 556 1077 557
f 554 982 555
f 1077 555 982
f 756 996 864
f 587 995 586
f 590 983 585
f 983 590 1037
f 1037 1087 863
f 1036 906 864
f 589 994 587
f 758 999 867
f 595 998 594
f 598 984 593
f 984 598 1039
f 1039 1088 866
f 1038 907 867
f 597 997 595
f 761 1002 870
f 603 1001 602
f 869 606 1089
f 1040 908 870
f 605 1000 603
f 764 1005 872
f 1003 1004 610
f 609 614 765
f 1041 909 1005
f 952 1003 611
f 766 1008 875
f 619 1007 618
f 622 985 617
f 985 622 1043
f 1043 1090 874
f 1042 910 875
f 621 1006 619
f 769 1011 878
f 627 1010 626
f 630 986 625
f 986 630 1045
f 1045 1091 877
f 1044 911 878
f 629 1009 627
f 772 1014 881
f 635 1013 634
f 1126 1047 987
f 987 633 1126
f 1047 1092 880
f 1046 912 881
f 637 1012 635
f 1016 1018 885
f 1015 1017 642
f 646 988 641
f 988 646 1049
f 1048 913 1018
f 804 1016 883
f 956 1015 643
f 1020 1022 889
f 1019 1021 650
f 654 989 649
f 989 654 1051
f 1050 914 1022
f 806 1020 887
f 958 1019 651
f 1024 1026 893
f 1023 1025 658
f 662 990 657
f 990 662 1053
f 1052 915 1026
f 808 1024 891
f 960 1023 659
f 1028 1030 897
f 1027 1029 666
f 670 991 665
f 991 670 1055
f 1054 916 1030
f 810 1028 895
f 962 1027 667
f 899 1034 901
f 1031 1033 674
f 1056 917 901
f 812 1032 899
f 963 1031 675
f 378 386 722
f 80 1067 81
f 824 23 927
f 834 398 399
f 789 1068 790
f 792 1072 979
f 993 710 301
f 410 390 1079
f 1067 80 927
f 853 717 945
f 218 929 967
f 334 333 704
f 680 927 973
f 209 208 975
f 228 975 208
f 946 338 357
f 717 198 945
f 1071 442 790
f 442 1071 443
f 443 1071 444
f 1071 788 789
f 746 1072 747
f 794 548 547
f 1121 1119 754
f 672 898 784
f 833 831 944
f 1072 746 791
f 685 251 686
f 356 354 390
f 250 251 249
f 321 322 849
f 928 918 813
f 684 193 836
f 1086 825 248
f 466 1076 467
f 465 1076 466
f 1065 1076 1064
f 980 1118 982
f 898 672 900
f 266 1102 308
f 1073 145 144
f 249 252 825
f 638 1100 1078
f 299 351 1102
f 794 547 793
f 993 695 820
f 409 1078 1100
f 389 1080 367
f 638 1094 1095
f 467 1076 459
f 297 266 265
f 702 703 291
f 308 349 350
f 1102 713 352
f 266 1101 685
f 690 902 706
f 836 193 235
f 193 684 194
f 367 1080 368
f 1097 1096 1100
f 1078 1079 858
f 481 1081 482
f 483 482 1081
f 463 1124 464
f 1064 1106 1112
f 981 1118 1114
f 557 1077 558
f 1082 1035 1093
f 591 1037 590
f 599 1039 598
f 763 1089 606
f 623 1043 622
f 631 1045 630
f 639 1047 1126
f 679 1057 678
f 251 250 686
f 291 308 702
f 196 192 820
f 291 266 308
f 1101 696 253
f 1079 1096 1097
f 1079 391 1096
f 391 1079 354
f 390 354 1079
f 700 235 234
f 405 1083 406
f 406 1108 407
f 1083 1108 406
f 1083 405 1074
f 377 1074 404
f 786 860 1108
f 411 1094 638
f 1081 481 904
f 1076 465 1124
f 1106 1066 1112
f 160 267 161
f 267 1062 161
f 267 160 1059
f 851 1084 942
f 1084 851 293
f 50 84 51
f 84 50 85
f 1119 1113 752
f 848 1107 1122
f 1084 716 942
f 831 833 942
f 410 419 416
f 1107 1111 1069
f 757 1087 1037
f 760 1088 1039
f 799 1041 614
f 768 1090 1043
f 771 1091 1045
f 774 1092 1047
f 307 702 308
f 905 1093 1035
f 820 693 993
f 697 1101 253
f 354 231 355
f 358 840 941
f 368 376 369
f 1057 811 1099
f 392 409 1096
f 946 1070 694
f 1103 1085 1123
f 226 270 1059
f 981 1093 1116
f 900 673 678
f 396 317 316
f 401 312 311
f 1095 1100 638
f 266 685 265
f 1080 389 1097
f 235 700 836
f 1074 376 839
f 376 368 839
f 1100 1095 1080
f 1108 1094 786
f 388 376 377
f 275 274 231
f 317 395 318
f 701 236 695
f 747 1098 746
f 1121 793 752
f 701 234 236
f 861 250 249
f 249 251 252
f 1099 783 898
f 711 316 317
f 946 708 338
f 783 1099 811
f 266 291 1101
f 1106 966 904
f 847 1119 1115
f 1094 1083 839
f 1074 839 1083
f 968 83 82
f 709 993 301
f 1101 254 696
f 1101 697 252
f 852 360 372
f 858 1079 1097
f 1097 1100 1080
f 280 849 320
f 320 311 699
f 1093 905 1114
f 1057 1099 900
f 397 396 315
f 396 316 315
f 1096 409 1100
f 370 388 371
f 972 1058 18
f 964 976 307
f 230 823 850
f 1106 1064 1105
f 966 1105 1112
f 1116 1093 1118
f 389 858 1097
f 1085 1103 755
f 1085 1069 1111
f 920 921 930
f 397 315 314
f 397 314 398
f 1118 980 1116
f 387 371 388
f 1068 788 739
f 1117 794 1121
f 1069 1085 755
f 580 1120 848
f 1107 1110 755
f 755 1111 1107
f 210 975 733
f 693 820 192
f 978 265 686
f 1113 1119 847
f 981 1114 1082
f 753 1115 1119
f 849 280 321
f 280 1070 321
f 905 1082 1114
f 647 1049 646
f 655 1051 654
f 663 1053 662
f 671 1055 670
f 1093 1114 1118
f 1077 1116 980
f 682 817 934
f 1109 1122 1120
f 1085 1111 795
f 79 94 87
f 835 733 227
f 16 17 24
f 162 154 169
f 398 314 313
f 398 313 399
f 41 39 40
f 88 86 87
f 18 30 31
f 39 41 38
f 38 42 37
f 35 45 34
f 34 46 33
f 55 57 58
f 86 88 89
f 84 85 90
f 82 92 81
f 81 93 80
f 118 126 125
f 128 124 127
f 124 128 123
f 123 129 122
f 161 163 160
f 160 164 159
f 159 165 166
f 156 168 155
f 156 167 168
f 157 166 167
f 579 1120 580
f 1110 1120 1069
f 121 132 120
f 268 269 933
f 933 269 331
f 231 232 972
f 714 371 349
f 386 723 307
f 50 62 49
f 974 228 207
f 950 859 978
f 1118 981 982
f 1109 1120 579
f 1082 1093 981
f 793 1121 794
f 848 1122 1109
f 795 1123 1085
f 1124 1105 1064
f 753 1119 1121
f 1049 803 884
f 1051 805 888
f 1053 807 892
f 1055 809 896
f 356 337 232
f 232 231 356
f 1124 1065 1105
f 55 48 56
f 40 32 47
f 754 1117 1121
f 1120 1110 848
f 210 209 975
f 1064 1112 1065
f 1112 1105 1065
f 900 678 1057
f 48 49 63
f 1122 1069 1120
f 1069 1122 1107
f 353 1104 310
f 354 356 231
f 80 94 79
f 379 408 1108
f 408 379 402
f 19 29 30
f 711 317 324
f 971 683 970
f 733 823 227
f 422 423 414
f 17 31 24
f 22 25 26
f 83 90 91
f 121 122 130
f 161 162 163
f 154 155 169
f 423 787 737
f 421 787 419
f 400 313 312
f 21 27 28
f 36 43 44
f 54 58 59
f 53 59 60
f 82 91 92
f 120 132 133
f 399 313 400
f 400 312 401
f 25 16 24
f 21 22 27
f 19 20 29
f 39 32 40
f 35 36 44
f 52 60 61
f 50 51 62
f 86 79 87
f 110 105 95
f 110 95 104
f 126 118 133
f 170 74 64
f 170 64 73
f 184 11 1
f 184 1 10
f 589 588 906
f 597 596 907
f 605 604 908
f 952 612 909
f 621 620 910
f 629 628 911
f 637 636 912
f 956 644 913
f 958 652 914
f 960 660 915
f 962 668 916
f 963 676 917
f 23 16 25
f 22 23 25
f 22 26 27
f 20 21 28
f 20 28 29
f 18 19 30
f 17 18 31
f 38 41 42
f 37 42 43
f 36 37 43
f 35 44 45
f 34 45 46
f 33 46 47
f 48 63 56
f 55 56 57
f 54 55 58
f 53 54 59
f 52 53 60
f 52 61 51
f 51 61 62
f 85 86 89
f 90 85 89
f 83 84 90
f 82 83 91
f 81 92 93
f 80 93 94
f 126 127 125
f 124 125 127
f 123 128 129
f 129 130 122
f 121 130 131
f 119 120 133
f 151 147 148
f 161 154 162
f 160 163 164
f 159 164 165
f 158 159 166
f 155 168 169
f 857 124 331
f 203 200 201
f 137 263 264
f 288 284 285
f 240 295 296
f 857 331 332
f 346 342 343
f 373 943 1073
f 408 407 1108
f 404 1074 405
f 404 395 377
f 421 415 787
f 423 737 414
f 440 457 741
f 52 1125 1127
f 1125 52 1128
f 638 1126 1129
f 1126 638 1130
f 33 570 1131
f 570 33 1132
f 21 525 1133
f 525 21 1134
f 133 550 1135
f 550 133 1136
f 86 479 1137
f 479 86 1138
f 159 580 1139
f 580 159 1140
f 1095 610 1141
f 610 1095 1142
f 1078 649 1143
f 649 1078 1144
f 839 604 1145
f 604 839 1146
f 1100 642 1147
f 642 1100 1148
f 1074 588 1149
f 588 1074 1150
f 786 598 1151
f 598 786 1152
f 1079 673 1153
f 673 1079 1154
f 1096 668 1155
f 668 1096 1156
f 1080 618 1157
f 618 1080 1158
f 632 631 1159
f 631 632 1160
f 654 657 1161
f 657 654 1162

