# https://github.com/mikedh/trimesh
v -0.12786080 22.07750130 1.00000000
v -0.12786080 22.02574160 0.87625630
v -0.12786080 21.90078160 0.82500000
v -0.12786080 21.77582170 0.87625630
v -0.12786080 21.72406010 1.00000000
v -0.12786080 21.77582170 1.12374370
v -0.12786080 21.90078160 1.17500000
v -0.12786080 22.02574160 1.12374370
v 0.12176460 21.93586730 0.82500000
v 0.12176460 22.06082730 0.87625630
v 0.12176460 22.06082730 1.12374370
v 0.12176460 21.93586730 1.17500000
v 0.12176460 21.81090740 1.12374370
v 0.12176460 21.75914760 1.00000000
v 0.12176460 21.81090740 0.87625630
v -1.06764080 20.96082690 0.82500000
v -1.05041740 20.83828740 0.87625630
v -1.04328320 20.78753090 1.00000000
v -1.05041740 20.83828740 1.12374370
v -1.06764080 20.96082690 1.17500000
v -1.08486430 21.08336640 1.12374370
v -1.09199850 21.13412480 1.00000000
v -1.08486430 21.08336640 0.87625630
v -0.69247940 21.01355740 0.82500000
v -0.70970280 21.13609700 0.87625630
v -0.71683700 21.18685530 1.00000000
v -0.70970280 21.13609700 1.12374370
v -0.69247940 21.01355740 1.17500000
v -0.67525600 20.89101790 1.12374370
v -0.66812180 20.84026150 1.00000000
v -0.67525600 20.89101790 0.87625630
v 1.42251910 21.75304030 0.82500000
v 1.43974240 21.87557980 0.87625630
v 1.44687660 21.92633630 1.00000000
v 1.43974240 21.87557980 1.12374370
v 1.42251910 21.75304030 1.17500000
v 1.40529560 21.63050080 1.12374370
v 1.39816140 21.57974430 1.00000000
v 1.40529560 21.63050080 0.87625630
v 1.04735770 21.80577090 0.82500000
v 1.03013420 21.68323140 0.87625630
v 1.02300000 21.63247490 1.00000000
v 1.03013420 21.68323140 1.12374370
v 1.04735770 21.80577090 1.17500000
v 1.06458100 21.92831040 1.12374370
v 1.07171520 21.97906680 1.00000000
v 1.06458100 21.92831040 0.87625630
v -1.29033900 22.54525380 0.82500000
v -1.27311550 22.42271420 0.87625630
v -1.26598140 22.37195590 1.00000000
v -1.27311550 22.42271420 1.12374370
v -1.29033900 22.54525380 1.17500000
v -1.30756250 22.66779330 1.12374370
v -1.31469670 22.71854970 1.00000000
v -1.30756250 22.66779330 0.87625630
v -0.91517760 22.59798430 0.82500000
v -0.93240100 22.72052380 0.87625630
v -0.93953520 22.77128030 1.00000000
v -0.93240100 22.72052380 1.12374370
v -0.91517760 22.59798430 1.17500000
v -0.89795420 22.47544480 1.12374370
v -0.89082000 22.42468640 1.00000000
v -0.89795420 22.47544480 0.87625630
v -0.12786080 22.88536450 1.00000000
v -0.12786080 22.83360480 0.87625630
v -0.12786080 22.70864490 0.82500000
v -0.12786080 22.58368490 0.87625630
v -0.12786080 22.53192520 1.00000000
v -0.12786080 22.58368490 1.12374370
v -0.12786080 22.70864490 1.17500000
v -0.12786080 22.83360480 1.12374370
v 0.12176460 22.74373050 0.82500000
v 0.12176460 22.86869050 0.87625630
v 0.12176460 22.86869050 1.12374370
v 0.12176460 22.74373050 1.17500000
v 0.12176460 22.61877060 1.12374370
v 0.12176460 22.56701090 1.00000000
v 0.12176460 22.61877060 0.87625630
v -1.17898990 21.75304030 0.82500000
v -1.16176650 21.63050080 0.87625630
v -1.15463230 21.57974430 1.00000000
v -1.16176650 21.63050080 1.12374370
v -1.17898990 21.75304030 1.17500000
v -1.19621340 21.87557980 1.12374370
v -1.20334760 21.92633630 1.00000000
v -1.19621340 21.87557980 0.87625630
v -0.80382850 21.80577090 0.82500000
v -0.82105200 21.92831040 0.87625630
v -0.82818610 21.97906680 1.00000000
v -0.82105200 21.92831040 1.12374370
v -0.80382850 21.80577090 1.17500000
v -0.78660510 21.68323140 1.12374370
v -0.77947090 21.63247490 1.00000000
v -0.78660510 21.68323140 0.87625630
v -0.12786080 21.26963810 1.00000000
v -0.12786080 21.21787830 0.87625630
v -0.12786080 21.09291840 0.82500000
v -0.12786080 20.96795850 0.87625630
v -0.12786080 20.91619680 1.00000000
v -0.12786080 20.96795850 1.12374370
v -0.12786080 21.09291840 1.17500000
v -0.12786080 21.21787830 1.12374370
v 0.12176460 21.12800410 0.82500000
v 0.12176460 21.25296400 0.87625630
v 0.12176460 21.25296400 1.12374370
v 0.12176460 21.12800410 1.17500000
v 0.12176460 21.00304410 1.12374370
v 0.12176460 20.95128250 1.00000000
v 0.12176460 21.00304410 0.87625630
v 0.37138990 21.26963810 1.00000000
v 0.37138990 21.21787830 1.12374370
v 0.37138990 21.09291840 1.17500000
v 0.37138990 20.96795850 1.12374370
v 0.37138990 20.91619680 1.00000000
v 0.37138990 20.96795850 0.87625630
v 0.37138990 21.09291840 0.82500000
v 0.37138990 21.21787830 0.87625630
v 1.15870670 22.59798430 0.82500000
v 1.14148330 22.47544480 0.87625630
v 1.13434910 22.42468640 1.00000000
v 1.14148330 22.47544480 1.12374370
v 1.15870670 22.59798430 1.17500000
v 1.17593010 22.72052380 1.12374370
v 1.18306430 22.77128030 1.00000000
v 1.17593010 22.72052380 0.87625630
v 1.53386810 22.54525380 0.82500000
v 1.55109160 22.66779330 0.87625630
v 1.55822580 22.71854970 1.00000000
v 1.55109160 22.66779330 1.12374370
v 1.53386810 22.54525380 1.17500000
v 1.51664470 22.42271420 1.12374370
v 1.50951050 22.37195590 1.00000000
v 1.51664470 22.42271420 0.87625630
v -0.94285710 0.77000000 1.10000000
v -0.90830800 0.77000000 1.14755280
v -0.85240630 0.77000000 1.12938930
v -0.85240630 0.77000000 1.07061080
v -0.90830800 0.77000000 1.05244720
v -0.96285710 0.75000000 1.10000000
v -0.91448830 0.75000000 1.03342600
v -0.83622590 0.75000000 1.05885510
v -0.83622590 0.75000000 1.14114500
v -0.91448830 0.75000000 1.16657400
v -0.58571430 1.25000000 1.10000000
v -0.55116520 1.25000000 1.14755280
v -0.49526340 1.25000000 1.12938930
v -0.49526340 1.25000000 1.07061080
v -0.55116520 1.25000000 1.05244720
v -0.58571430 0.77000000 1.10000000
v -0.55116520 0.77000000 1.05244720
v -0.49526340 0.77000000 1.07061080
v -0.49526340 0.77000000 1.12938930
v -0.55116520 0.77000000 1.14755280
v 1.31117000 20.96082690 0.82500000
v 1.32839330 21.08336640 0.87625630
v 1.33552750 21.13412480 1.00000000
v 1.32839330 21.08336640 1.12374370
v 1.31117000 20.96082690 1.17500000
v 1.29394650 20.83828740 1.12374370
v 1.28681230 20.78753090 1.00000000
v 1.29394650 20.83828740 0.87625630
v 0.93600850 21.01355740 0.82500000
v 0.91878510 20.89101790 0.87625630
v 0.91165090 20.84026150 1.00000000
v 0.91878510 20.89101790 1.12374370
v 0.93600850 21.01355740 1.17500000
v 0.95323200 21.13609700 1.12374370
v 0.96036610 21.18685530 1.00000000
v 0.95323200 21.13609700 0.87625630
v 0.37138990 22.88536450 1.00000000
v 0.37138990 22.83360480 1.12374370
v 0.37138990 22.70864490 1.17500000
v 0.37138990 22.58368490 1.12374370
v 0.37138990 22.53192520 1.00000000
v 0.37138990 22.58368490 0.87625630
v 0.37138990 22.70864490 0.82500000
v 0.37138990 22.83360480 0.87625630
v -0.60571430 0.75000000 1.10000000
v -0.55734540 0.75000000 1.03342600
v -0.47908310 0.75000000 1.05885510
v -0.47908310 0.75000000 1.14114500
v -0.55734540 0.75000000 1.16657400
v -0.64344055 20.66466140 1.36836740
v 0.37138990 22.07750130 1.00000000
v 0.37138990 22.02574160 1.12374370
v 0.37138990 21.90078160 1.17500000
v 0.37138990 21.77582170 1.12374370
v 0.37138990 21.72406010 1.00000000
v 0.37138990 21.77582170 0.87625630
v 0.37138990 21.90078160 0.82500000
v 0.37138990 22.02574160 0.87625630
v -3.46367318 2.91953987 0.50000000
v -3.09967640 -1.33145135 -0.50000000
v -4.29609550 -0.51925058 -0.50000000
v -4.39465617 -0.32425680 0.50000000
v -3.58277544 -1.12984883 0.50000000
v -0.22857140 1.25000000 1.10000000
v -0.19402230 1.25000000 1.14755280
v -0.13812060 1.25000000 1.12938930
v -0.13812060 1.25000000 1.07061080
v -0.19402230 1.25000000 1.05244720
v -0.22857140 0.77000000 1.10000000
v -0.19402230 0.77000000 1.05244720
v -0.13812060 0.77000000 1.07061080
v -0.13812060 0.77000000 1.12938930
v -0.19402230 0.77000000 1.14755280
v -0.95487090 23.20967860 0.70044700
v -0.84945670 23.37652400 0.69878270
v -0.68003790 23.47774890 0.69777300
v -0.48316300 23.49151610 0.69763570
v -0.30130400 23.41485790 0.69840030
v -0.17369350 23.26430890 0.69990210
v -0.17369350 23.26430890 1.27437100
v -0.30130400 23.41485790 1.26892770
v -0.48316300 23.49151610 1.26615580
v -0.68003790 23.47774890 1.26665370
v -0.84945670 23.37652400 1.27031370
v -0.95487090 23.20967860 1.27634630
v 0.80251370 20.37538530 0.72871950
v 0.67601100 20.30116650 0.72945980
v 0.52970170 20.31139950 0.72935770
v 0.41476020 20.40250210 0.72844900
v 0.41476020 20.40250210 1.37784640
v 0.52970170 20.31139950 1.38114040
v 0.67601100 20.30116650 1.38151040
v 0.80251370 20.37538530 1.37882690
v 0.12176460 24.59168430 0.68666130
v -1.44519270 23.64698790 0.69608480
v -1.44519270 23.64698790 1.26053450
v 0.12176460 24.59168430 1.22637680
v -0.94978650 20.12233160 0.73124370
v -0.94978650 20.12233160 1.38797650
v -1.51559899 5.25570552 0.50000000
v 4.24620830 -0.57847075 -0.50000000
v 0.90528158 -1.79738520 -0.50000000
v 4.20338897 -0.62345900 0.50000000
v 0.12857140 0.77000000 1.10000000
v 0.16312060 0.77000000 1.14755280
v 0.21902230 0.77000000 1.12938930
v 0.21902230 0.77000000 1.07061080
v 0.16312060 0.77000000 1.05244720
v 0.10857140 0.75000000 1.10000000
v 0.15694020 0.75000000 1.03342600
v 0.23520260 0.75000000 1.05885510
v 0.23520260 0.75000000 1.14114500
v 0.15694020 0.75000000 1.16657400
v 4.82399689 -0.57316687 1.00000000
v 3.01844549 -1.98384199 1.00000000
v -3.70153259 -1.63718745 1.00000000
v -4.82350730 -0.63587990 1.00000000
v -4.90392640 -0.48772580 -1.00000000
v -3.92837983 -1.47886388 -1.00000000
v 1.45370348 -2.33071696 -1.00000000
v 4.89547490 -0.39349469 -1.00000000
v -0.24857140 0.75000000 1.10000000
v -0.20020260 0.75000000 1.03342600
v -0.12194020 0.75000000 1.05885510
v -0.12194020 0.75000000 1.14114500
v -0.20020260 0.75000000 1.16657400
v -0.94285710 1.25000000 1.10000000
v -0.90830800 1.25000000 1.14755280
v -0.85240630 1.25000000 1.12938930
v -0.85240630 1.25000000 1.07061080
v -0.90830800 1.25000000 1.05244720
v -2.03814320 5.13693570 1.00000000
v -2.09839750 4.98037600 -1.00000000
v 1.19331560 20.12233160 0.73124370
v 1.68872180 23.64698790 0.69608480
v 1.68872180 23.64698790 1.26053450
v 1.19331560 20.12233160 1.38797650
v -0.12786080 20.70071700 0.72547420
v -0.17123110 20.40250210 0.72844900
v -0.28617250 20.31139950 0.72935770
v -0.43248190 20.30116650 0.72945980
v -0.55898460 20.37538530 0.72871950
v -0.55898460 20.37538530 1.37882690
v -0.43248190 20.30116650 1.38151040
v -0.28617250 20.31139950 1.38114040
v -0.17123110 20.40250210 1.37784640
v -2.43941500 9.07671740 0.50000000
v 0.48571430 1.25000000 1.10000000
v 0.52026340 1.25000000 1.14755280
v 0.57616510 1.25000000 1.12938930
v 0.57616510 1.25000000 1.07061080
v 0.52026340 1.25000000 1.05244720
v 0.48571430 0.77000000 1.10000000
v 0.52026340 0.77000000 1.05244720
v 0.57616510 0.77000000 1.07061080
v 0.57616510 0.77000000 1.12938930
v 0.52026340 0.77000000 1.14755280
v 3.36792125 3.73236975 -1.00000000
v 0.12857140 1.25000000 1.10000000
v 0.16312060 1.25000000 1.14755280
v 0.21902230 1.25000000 1.12938930
v 0.21902230 1.25000000 1.07061080
v 0.16312060 1.25000000 1.05244720
v -2.46754091 6.69490488 1.00000000
v -3.00000000 9.00000000 1.00000000
v -2.96720986 8.61814644 -1.00000000
v 1.81480013 4.45700730 -0.50000000
v 1.60983910 4.82808830 0.50000000
v 0.46571430 0.75000000 1.10000000
v 0.51408310 0.75000000 1.03342600
v 0.59234550 0.75000000 1.05885510
v 0.59234550 0.75000000 1.14114500
v 0.51408310 0.75000000 1.16657400
v 2.09839750 4.98037600 1.00000000
v 2.03814320 5.13693570 -1.00000000
v 0.64572860 19.78980060 0.73456070
v 0.64572860 19.78980060 1.40000000
v -0.93587079 6.44692495 0.50000000
v -0.74923240 5.94501970 0.50000000
v 0.07840320 5.58198500 0.50000000
v 0.51220565 5.74418160 0.50000000
v 0.88573830 6.22409630 0.50000000
v 0.93647930 6.68444160 0.50000000
v 0.73901380 7.10336830 0.50000000
v 0.22989210 7.43599390 0.50000000
v -0.23307090 7.44854690 0.50000000
v -0.74923240 7.11132140 0.50000000
v -2.25066110 9.49224660 0.50000000
v -0.85885201 10.14568552 0.50000000
v 1.19238290 10.11846950 0.50000000
v 2.47493100 9.17144970 0.50000000
v 0.41722260 23.26430890 0.69990210
v 0.54483310 23.41485790 0.69840030
v 0.72669210 23.49151610 0.69763570
v 0.92356700 23.47774890 0.69777300
v 1.09298590 23.37652400 0.69878270
v 1.19840000 23.20967860 0.70044700
v 1.19840000 23.20967860 1.27634630
v 1.09298590 23.37652400 1.27031370
v 0.92356700 23.47774890 1.26665370
v 0.72669210 23.49151610 1.26615580
v 0.54483310 23.41485790 1.26892770
v 0.41722260 23.26430890 1.27437100
v -0.40219950 19.78980060 1.40000000
v 2.48746540 9.08572480 -0.50000000
v 0.84285710 1.25000000 1.10000000
v 0.87740630 1.25000000 1.14755280
v 0.93330800 1.25000000 1.12938930
v 0.93330800 1.25000000 1.07061080
v 0.87740630 1.25000000 1.05244720
v 0.84285710 0.77000000 1.10000000
v 0.87740630 0.77000000 1.05244720
v 0.93330800 0.77000000 1.07061080
v 0.93330800 0.77000000 1.12938930
v 0.87740630 0.77000000 1.14755280
v 2.97052322 8.71823145 -1.00000000
v 2.34061780 6.41666585 1.00000000
v -2.72283905 9.70364263 -1.00000000
v 1.40690082 10.48869986 -1.00000000
v -0.40219950 19.78980060 0.82997570
v -0.40219950 19.78980060 0.73456070
v -0.40219950 19.78980060 1.20000000
v 1.62651590 9.96825790 -0.50000000
v -1.25000000 0.75000000 1.00000000
v 1.25000000 0.75000000 1.00000000
v 1.25000000 0.75000000 1.20000000
v -1.25000000 0.75000000 1.20000000
v 0.82285710 0.75000000 1.10000000
v 0.87122600 0.75000000 1.16657400
v 0.94948830 0.75000000 1.14114500
v 0.94948830 0.75000000 1.05885510
v 0.87122600 0.75000000 1.03342600
v 0.79931200 10.72727490 0.90000000
v 0.79931200 10.72727490 1.00000000
v 1.72805086 10.45147947 1.00000000
v 2.65924988 9.78681370 1.00000000
v 2.98013125 9.14629125 1.00000000
v 1.25000000 1.25000000 1.20000000
v -1.25000000 1.25000000 1.20000000
v -1.72251708 9.90481188 -0.50000000
v 1.25000000 1.25000000 1.00000000
v 0.75864430 7.72167780 1.00000000
v 0.75864430 7.72167780 1.05000000
v 1.13796260 5.71772480 1.05000000
v -0.84227980 7.66420080 1.05000000
v -0.84227980 7.66420080 1.00000000
v -1.24653645 7.16775895 1.00000000
v -1.25569020 5.87760020 1.00000000
v -0.71303300 5.30686660 1.00000000
v 0.19755620 5.14112425 1.00000000
v 0.79877920 5.36114360 1.00000000
v 1.09213390 5.62970300 1.00000000
v 1.39657940 6.75080440 1.00000000
v 1.17253962 7.28965519 1.00000000
v -0.80083770 10.72703550 0.90000000
v -0.67816220 19.79353330 0.90000000
v 0.25801822 19.78154312 0.79904478
v 0.92169140 19.77188680 0.90000000
v -1.25000000 1.25000000 1.00000000
v 0.75036610 7.10986190 1.05000000
v 0.92351670 6.68491675 1.05000000
v 0.82783770 6.08983610 1.05000000
v 0.38942440 5.67623115 1.05000000
v -0.05936770 5.58060030 1.05000000
v -0.49271410 5.73149940 1.05000000
v -0.87607480 6.19659065 1.05000000
v -0.85198200 6.94714640 1.05000000
v -0.67816220 19.79353330 1.20000000
v 0.75036610 7.10986190 1.20000000
v 0.36884435 7.38836770 1.20000000
v -0.24960925 7.43021270 1.20000000
v -0.66517000 7.20563890 1.20000000
v -0.85198200 6.94714640 1.20000000
v 0.91961650 19.61854360 1.20000000
v -0.68053000 19.61854360 1.20000000
v -0.80083770 10.72703550 1.00000000
v -1.45603383 10.53934246 1.00000000
v -2.58057267 9.86617041 1.00000000
v -0.67850040 19.76854320 1.20000000
v 0.92166875 19.77021500 1.20000000
v -0.83118460 19.61854360 1.50000000
v -0.83118460 19.61854360 1.20000000
v 1.16881540 19.61854360 1.20000000
v 1.16881540 19.61854360 1.50000000
v 1.16881540 19.76854320 1.20000000
v 1.16881540 19.76854320 1.50000000
v -0.83118460 19.76854320 1.20000000
v -0.83118460 19.76854320 1.50000000
v -0.02196030 22.86114310 1.10979340
v -0.00287120 22.72532840 1.17499780
v 0.01612630 22.59016800 1.10842530
v 0.02072660 22.55743790 0.96020630
v 0.00746560 22.65178680 0.84195270
v -0.00959030 22.77313420 0.83154140
v -0.02543800 22.88588520 0.93202610
v -1.28404410 22.50046730 0.97994950
v -1.28653260 22.51817130 0.95814170
v -1.29091370 22.54934120 0.95017080
v -1.29505240 22.57878680 0.96321380
v -1.29720340 22.59409140 0.99177030
v -1.29645960 22.58879850 1.02379740
v -1.29313460 22.56514170 1.04578860
v -1.28863060 22.53309820 1.04847000
v -1.28484710 22.50617980 1.03071060
v -1.28375670 22.49842260 1.01623500
v -1.31411280 22.71439550 0.96191240
v -1.30288550 22.63451770 0.85082510
v -1.28397640 22.49998660 0.83107580
v -1.27070860 22.40558820 0.90613240
v -1.26713620 22.38017270 1.05324510
v -1.27121970 22.40922550 1.10842530
v -1.30930640 22.68020060 1.10979340
v -0.78862370 22.56801610 0.98376500
v -0.79055670 22.58176800 0.96371640
v -0.79463910 22.61081310 0.95085040
v -0.79896030 22.64155770 0.95871260
v -0.80169830 22.66103740 0.98398460
v -0.80169840 22.66103740 1.01601360
v -0.79896030 22.64155770 1.04128740
v -0.79463910 22.61081310 1.04914960
v -0.79055670 22.58176800 1.03628360
v -0.91222260 22.54930595 1.00829640
v -0.78307767 22.61019909 0.99952765
v -0.01262180 22.07624240 0.93476640
v -0.01217680 22.07307430 1.08215960
v 0.00426560 21.95609280 1.17117630
v 0.02076500 21.83870320 1.15451470
v 0.03367230 21.74687190 1.00610510
v 0.03249490 21.75524900 0.94591980
v 0.01804620 21.85804560 0.84123340
v 0.00805930 21.92910190 0.82590500
v -0.00210600 22.00142290 0.84548530
v -1.17263050 21.70779420 0.98089360
v -1.17489930 21.72393800 0.95954910
v -1.17898990 21.75304030 0.95000000
v -1.18308060 21.78214260 0.95954910
v -1.18560860 21.80013080 0.98454920
v -1.18560860 21.80013080 1.01545080
v -1.18308060 21.78214260 1.04045080
v -1.17898990 21.75304030 1.05000000
v -1.17489930 21.72393800 1.04045080
v -1.17237130 21.70594980 1.01545080
v -1.19964650 21.90000530 0.90726610
v -1.19709130 21.88182640 0.88290390
v -1.18129740 21.76945880 0.83157990
v -1.16366310 21.64399530 0.86634650
v -1.15486940 21.58143040 0.97564240
v -1.15490580 21.58168980 1.02124360
v -1.16399360 21.64634700 1.13790050
v -1.18405380 21.78906820 1.17117630
v -1.20049630 21.90605160 1.08215960
v -0.67773240 21.77906040 0.97757910
v -0.67976620 21.79352950 0.95954910
v -0.68385680 21.82263370 0.95000000
v -0.68794740 21.85173610 0.95954910
v -0.69064580 21.87093540 0.99227460
v -0.68998130 21.86620710 1.02242000
v -0.68697740 21.84483530 1.04400180
v -0.68278160 21.81498340 1.04877640
v -0.67899630 21.78805160 1.03491910
v -0.67706780 21.77433200 1.00772550
v -0.66569270 21.82314273 0.99967968
v -0.00060430 21.27227780 0.93909410
v -0.00006080 21.26841160 1.07930720
v 0.01506760 21.16077800 1.16848470
v 0.02402550 21.09704590 1.17251900
v 0.03719040 21.00337980 1.12966990
v 0.04600160 20.94069290 1.00449820
v 0.04577250 20.94232180 0.97564240
v 0.03503810 21.01869200 0.85847870
v 0.01628150 21.15214160 0.82930670
v 0.01244430 21.17944340 0.83798570
v -1.06128140 20.91558270 0.98089360
v -1.06355020 20.93172450 0.95954910
v -1.06764080 20.96082690 0.95000000
v -1.07173140 20.98993110 0.95954910
v -1.07425950 21.00791740 0.98454920
v -1.07425950 21.00791740 1.01545080
v -1.07173140 20.98993110 1.04045080
v -1.06764080 20.96082690 1.05000000
v -1.06355020 20.93172450 1.04045080
v -1.06102220 20.91373830 1.01545080
v -1.09199040 21.13406750 0.99550170
v -1.08367170 21.07488250 0.86824420
v -1.06303120 20.92803190 0.82877100
v -1.05140460 20.84531020 0.87922350
v -1.04352030 20.78921700 0.97564240
v -1.04881010 20.82685280 1.11100150
v -1.06625400 20.95096020 1.17471610
v -1.08459290 21.08143620 1.12566260
v -0.56588900 20.98332980 0.98454920
v -0.56938710 21.00821880 0.95599820
v -0.57358300 21.03807070 0.95122360
v -0.57736830 21.06500240 0.96508090
v -0.57929670 21.07872200 0.99227460
v -0.57863220 21.07399370 1.02242000
v -0.57562840 21.05262370 1.04400130
v -0.57143250 21.02276990 1.04877640
v -0.56764730 20.99584200 1.03492000
v -0.56571870 20.98211860 1.00772550
v -0.55439525 21.03260350 1.00071070
v 0.26935940 22.88867570 0.96899430
v 0.26421160 22.85205080 0.87969800
v 0.24446000 22.71152500 0.82562820
v 0.22710870 22.58807750 0.89753680
v 0.22236880 22.55435370 1.02262340
v 0.23027430 22.61059950 1.12617890
v 0.24857570 22.74080660 1.17366980
v 0.26548940 22.86114310 1.10979340
v 1.55564620 22.70019720 0.93244890
v 1.55525930 22.69744490 1.08369650
v 1.53809750 22.57534410 1.17234170
v 1.52127080 22.45562740 1.14977790
v 1.50971500 22.37341120 1.02262340
v 1.51694790 22.42486950 0.88055590
v 1.52750560 22.49998660 0.83107580
v 1.54454610 22.62122340 0.84271200
v 0.25437410 22.06359860 1.08788910
v 0.25802500 22.08957480 0.96361770
v 0.25357860 22.05793760 0.89508500
v 0.22913570 21.88403510 0.82882370
v 0.21269320 21.76705360 0.91784040
v 0.21207200 21.76263240 1.05496980
v 0.21920330 21.81336980 1.13790050
v 0.23926350 21.95609280 1.17117630
v 0.24332380 21.98497960 1.16225800
v 1.44507070 21.91348840 1.05119290
v 1.43164320 21.81795690 1.16225800
v 1.41812040 21.72174450 1.17026460
v 1.40314010 21.61516570 1.10491490
v 1.39857210 21.58266450 1.00208950
v 1.40247810 21.61045460 0.90649140
v 1.41339480 21.68812370 0.83774200
v 1.42886220 21.79817010 0.83701750
v 1.43970670 21.87532420 0.87859230
v 1.44510320 21.91371920 0.93444600
v 0.24093400 21.24951550 1.10262510
v 0.21191550 21.04306030 0.84457890
v 0.19864360 20.94863320 0.94745090
v 0.19775660 20.94232180 0.97564240
v 0.20357950 20.98374940 1.10952590
v 0.22049030 21.10406490 1.17471610
v 0.22451180 21.13267710 1.17397320
v 1.30196230 20.89531710 1.16201440
v 1.29287240 20.83064650 1.10952590
v 1.28704940 20.78921700 0.97564240
v 1.28793640 20.79552840 0.94745090
v 1.30120840 20.88995360 0.84457890
v -0.83806310 7.92583940 1.25000000
v -0.83806310 7.92583940 1.20000000
v 0.76073030 7.92583940 1.20000000
v 0.76073030 7.92583940 1.25000000
v 0.76073030 7.97583960 1.20000000
v 0.76073030 7.97583960 1.25000000
v -0.83806310 7.97583960 1.20000000
v -0.83806310 7.97583960 1.25000000
v -0.82453370 8.92574790 1.25000000
v -0.82453370 8.92574790 1.20000000
v 0.77425970 8.92574790 1.20000000
v 0.77425970 8.92574790 1.25000000
v 0.77425970 8.97574810 1.20000000
v 0.77425970 8.97574810 1.25000000
v -0.82453370 8.97574810 1.20000000
v -0.82453370 8.97574810 1.25000000
v -0.81100430 9.92565630 1.25000000
v -0.81100430 9.92565630 1.20000000
v 0.78778900 9.92565630 1.20000000
v 0.78778900 9.92565630 1.25000000
v 0.78778900 9.97565650 1.20000000
v 0.78778900 9.97565650 1.25000000
v -0.81100430 9.97565650 1.20000000
v -0.81100430 9.97565650 1.25000000
v -0.79747490 10.92556480 1.25000000
v -0.79747490 10.92556480 1.20000000
v 0.80131850 10.92556480 1.20000000
v 0.80131850 10.92556480 1.25000000
v 0.80131850 10.97556500 1.20000000
v 0.80131850 10.97556500 1.25000000
v -0.79747490 10.97556500 1.20000000
v -0.79747490 10.97556500 1.25000000
v -0.78394560 11.92547320 1.25000000
v -0.78394560 11.92547320 1.20000000
v 0.81484780 11.92547320 1.20000000
v 0.81484780 11.92547320 1.25000000
v 0.81484780 11.97547340 1.20000000
v 0.81484780 11.97547340 1.25000000
v -0.78394560 11.97547340 1.20000000
v -0.78394560 11.97547340 1.25000000
v -0.77041610 12.92538170 1.25000000
v -0.77041610 12.92538170 1.20000000
v 0.82837720 12.92538170 1.20000000
v 0.82837720 12.92538170 1.25000000
v 0.82837720 12.97538190 1.20000000
v 0.82837720 12.97538190 1.25000000
v -0.77041610 12.97538190 1.20000000
v -0.77041610 12.97538190 1.25000000
v -0.75688670 13.92529010 1.25000000
v -0.75688670 13.92529010 1.20000000
v 0.84190670 13.92529010 1.20000000
v 0.84190670 13.92529010 1.25000000
v 0.84190670 13.97529030 1.20000000
v 0.84190670 13.97529030 1.25000000
v -0.75688670 13.97529030 1.20000000
v -0.75688670 13.97529030 1.25000000
v -0.74335740 14.92519860 1.25000000
v -0.74335740 14.92519860 1.20000000
v 0.85543600 14.92519860 1.20000000
v 0.85543600 14.92519860 1.25000000
v 0.85543600 14.97519870 1.20000000
v 0.85543600 14.97519870 1.25000000
v -0.74335740 14.97519870 1.20000000
v -0.74335740 14.97519870 1.25000000
v -0.72982790 15.92510700 1.25000000
v -0.72982790 15.92510700 1.20000000
v 0.86896540 15.92510700 1.20000000
v 0.86896540 15.92510700 1.25000000
v 0.86896540 15.97510720 1.20000000
v 0.86896540 15.97510720 1.25000000
v -0.72982790 15.97510720 1.20000000
v -0.72982790 15.97510720 1.25000000
v -0.71629860 16.92501640 1.25000000
v -0.71629860 16.92501640 1.20000000
v 0.88249480 16.92501640 1.20000000
v 0.88249480 16.92501640 1.25000000
v 0.88249480 16.97501560 1.20000000
v 0.88249480 16.97501560 1.25000000
v -0.71629860 16.97501560 1.20000000
v -0.71629860 16.97501560 1.25000000
v -0.70276920 17.92492490 1.25000000
v -0.70276920 17.92492490 1.20000000
v 0.89602420 17.92492490 1.20000000
v 0.89602420 17.92492490 1.25000000
v 0.89602420 17.97492410 1.20000000
v 0.89602420 17.97492410 1.25000000
v -0.70276920 17.97492410 1.20000000
v -0.70276920 17.97492410 1.25000000
v -0.68923980 18.92483330 1.25000000
v -0.68923980 18.92483330 1.20000000
v 0.90955360 18.92483330 1.20000000
v 0.90955360 18.92483330 1.25000000
v 0.90955360 18.97483250 1.20000000
v 0.90955360 18.97483250 1.25000000
v -0.68923980 18.97483250 1.20000000
v -0.68923980 18.97483250 1.25000000
v -0.76722750 21.54536625 0.71704875
v -0.79748670 21.76065060 1.32873940
v 1.01900910 21.60408020 0.71646310
v 1.02451080 21.64322280 1.33298530
v -4.08671639 1.87235260 -0.50000000
v -4.56895637 2.06327522 -1.00000000
v -4.46036765 2.31769945 1.00000000
v -0.67615735 23.42912707 0.98482434
v -0.20042181 23.27564456 0.97097251
v 0.37138990 21.80747990 0.71443410
v 0.37138990 21.80747990 1.32704620
v 0.37138990 22.27218134 1.01157949
v 0.80251370 20.37538530 1.05377320
v -1.76465890 4.51610657 0.50000000
v -1.65506173 4.73695881 -0.50000000
v 2.90180602 -1.45025924 0.50000000
v 3.45694350 -1.79323992 -1.00000000
v -1.13080726 -2.41278844 -1.00000000
v -0.55898460 20.37538530 1.05377320
v -2.21688695 7.53982140 0.50000000
v 3.97538112 2.16483283 -0.50000000
v 4.36844165 0.94822679 0.50000000
v 4.68351900 1.56270075 1.00000000
v 4.67365018 1.55489356 -1.00000000
v 0.53798675 24.34074975 1.23544987
v -0.12786080 21.80747990 0.71443410
v -0.12786080 21.76795390 1.32847520
v -0.12786080 21.48279435 1.05386237
v 1.51285530 5.46604155 -0.50000000
v 3.38900787 2.83941914 0.50000000
v 0.14622913 4.87651608 0.50000000
v 1.92465293 6.69417645 0.50000000
v 0.68670287 23.44852422 0.98664515
v -1.06747293 10.66324568 -1.00000000
v 2.62579897 9.80883860 -1.00000000
v 0.00000000 0.75000000 1.00000000
v 0.00000000 0.75000000 1.20000000
v -0.10742190 1.25000000 1.20000000
v -0.44921690 10.23273972 -0.50000000
v 1.33797070 6.94083170 1.05000000
v 1.37643815 6.30689525 1.00000000
v 1.37239500 6.44290450 1.05000000
v 1.27544830 5.98178860 1.05000000
v 0.94545660 5.49542330 1.00000000
v 0.94545660 5.49542330 1.05000000
v -0.24590030 5.14618870 1.00000000
v -0.52890660 5.23174760 1.05000000
v -1.09556005 5.71203665 1.05000000
v -1.35430460 6.15911770 1.00000000
v -1.33786880 6.11219790 1.05000000
v -1.39229835 6.59923430 1.00000000
v -1.37454835 6.44932650 1.05000000
v -1.35291100 6.89225580 1.05000000
v -0.11925069 23.78208328 0.69473719
v 1.20989116 23.55810495 0.69697139
v 0.00000000 1.25000000 1.00000000
v 0.02354985 7.46510952 0.89188489
v 0.29666872 19.77444301 1.20000000
v -0.55458150 22.66887280 0.82642980
v -0.62097320 22.46331410 0.98788870
v -0.68186340 22.77862930 1.09459650
v -1.03651723 22.53571056 1.02067369
v -0.94289500 21.83470150 0.98740320
v -0.94966470 21.79553990 1.04838980
v -0.88678930 21.83656500 1.02626300
v -0.55905530 21.19731710 1.06118690
v -0.51364060 20.87327000 0.93983550
v -0.50502380 20.88470270 1.08301160
v -0.80672179 20.95749497 1.02891816
v 0.87271450 22.68536000 1.16792210
v 0.75328450 22.50933070 1.09791970
v 1.07539500 22.71041110 1.14295920
v 0.11122047 7.92583940 1.25000000
v -0.38840250 7.97583960 1.25000000
v 0.12474987 8.92574790 1.25000000
v -0.02513700 8.92574790 1.20000000
v -0.37487305 8.97574810 1.25000000
v 0.13827925 9.92565630 1.25000000
v -0.01160760 9.92565630 1.20000000
v -0.36134370 9.97565650 1.25000000
v 0.15180868 10.92556480 1.25000000
v 0.00192180 10.92556480 1.20000000
v 0.16533800 11.92547320 1.25000000
v 0.01545110 11.92547320 1.20000000
v -0.33428495 11.97547340 1.25000000
v 0.17886745 12.92538170 1.25000000
v 0.02898060 12.92538170 1.20000000
v -0.32075550 12.97538190 1.25000000
v 0.19239687 13.92529010 1.25000000
v 0.04251000 13.92529010 1.20000000
v -0.30722610 13.97529030 1.25000000
v 0.05603930 14.92519860 1.20000000
v -0.29369675 14.97519870 1.25000000
v 0.06956880 15.92510700 1.20000000
v -0.28016730 15.97510720 1.25000000
v 0.08309810 16.92501640 1.20000000
v -0.26663795 16.97501560 1.25000000
v 0.09662750 17.92492490 1.20000000
v -0.25310855 17.97492410 1.25000000
v 0.11015690 18.92483330 1.20000000
v -0.23957910 18.97483250 1.25000000
v 0.00701582 23.90643617 1.25115344
v -0.82350137 9.05204726 1.00000000
v 0.38756540 19.76854320 1.50000000
v -0.84764300 22.55788800 1.00535640
v -1.04528710 22.43694500 1.08120800
v -1.06475560 22.72026060 1.07990370
v -0.22047320 21.11439700 1.17102730
v -0.15751630 20.91312980 1.01400010
v 1.21159540 22.62733270 1.15991280
v 1.33779980 22.42473600 1.06848650
v 0.36080490 20.92918210 0.97251130
v 0.21114500 7.97583960 1.25000000
v 0.22467445 8.97574810 1.25000000
v 0.23820380 9.97565650 1.25000000
v -0.04804055 10.97556500 1.25000000
v 0.26526260 11.97547340 1.25000000
v 0.27879200 12.97538190 1.25000000
v 0.29232140 13.97529030 1.25000000
v 0.05603930 14.97519870 1.20000000
v 0.30585080 14.97519870 1.25000000
v 0.06956880 15.97510720 1.20000000
v 0.31938020 15.97510720 1.25000000
v 0.08309810 16.97501560 1.20000000
v 0.33290960 16.97501560 1.25000000
v 0.09662750 17.97492410 1.20000000
v 0.34643900 17.97492410 1.25000000
v 0.11015690 18.97483250 1.20000000
v 0.35996840 18.97483250 1.25000000
v -0.86350625 22.23035910 0.71021580
v -0.70946030 21.13437080 0.72114850
v -0.73146680 21.29094030 1.34572280
v 0.95298940 21.13437080 0.72114850
v 1.10703540 22.23035910 0.71021580
v 1.10703540 22.23035910 1.31175600
v 0.93373355 20.99737165 1.35633750
v -0.98046596 -1.85477981 0.50000000
v 0.37138990 22.28180600 0.70970265
v 0.37138990 21.09598970 1.35277162
v -0.42911829 24.25956460 0.68997424
v -1.08911925 21.11363985 0.72135530
v -0.78748250 -2.36482511 1.00000000
v 1.54938880 22.65567780 0.70597330
v 1.31716690 21.00349430 0.72245400
v -0.12786080 21.33315370 0.71916560
v 0.62500000 0.75000000 1.00000000
v -0.62500000 0.75000000 1.00000000
v 0.62500000 0.75000000 1.20000000
v -0.62500000 0.75000000 1.20000000
v 0.62500000 1.25000000 1.20000000
v 0.34648126 5.24189197 1.05000000
v 0.56782898 23.84283019 0.69413116
v -0.39504414 1.74768484 -0.50000000
v 0.62500000 1.25000000 1.00000000
v -0.62500000 1.25000000 1.00000000
v 0.79069530 10.09044600 1.20000000
v -0.38738126 0.12414881 1.00000000
v -0.33165110 22.85372730 0.97136060
v -0.21171720 22.69749640 0.82570550
v -0.33578860 22.51508140 0.93697120
v -0.45743580 22.61740880 1.16854890
v -0.84746130 20.82530400 0.97549560
v -0.83196810 20.96609310 1.16357340
v 0.47358000 22.78858380 0.85278430
v 1.14471010 20.81837270 0.97401530
v -0.60935336 8.45876222 0.50000000
v -0.56377916 24.17837907 1.24132073
v 0.31250000 1.25000000 1.20000000
v 0.93750000 0.75000000 1.20000000
v -0.31250000 0.75000000 1.20000000
v 0.37138990 22.91424080 1.28702870
v -0.12786080 22.91424080 0.70339405
v 0.37138990 20.85882570 0.72389700
v 1.19506175 22.85663890 0.70396860
v -0.73310562 15.73286665 0.90000000
v -0.36617883 2.04313873 1.00000000
v -0.83709960 8.04705430 1.00000000
v -2.48612311 0.02558125 1.00000000
v -0.48832705 7.92583940 1.25000000
v -0.33844020 7.92583940 1.20000000
v 0.36103190 7.92583940 1.20000000
v -0.32491080 8.92574790 1.25000000
v -0.32491080 8.92574790 1.20000000
v 0.37456130 8.92574790 1.20000000
v -0.31138140 9.92565630 1.25000000
v -0.31138140 9.92565630 1.20000000
v 0.38809070 9.92565630 1.20000000
v -0.29785200 10.92556480 1.25000000
v 0.40162010 10.92556480 1.20000000
v -0.28432260 11.92547320 1.25000000
v -0.28432260 11.92547320 1.20000000
v 0.41514950 11.92547320 1.20000000
v -0.27079320 12.92538170 1.25000000
v -0.27079320 12.92538170 1.20000000
v 0.42867890 12.92538170 1.20000000
v -0.25726380 13.92529010 1.25000000
v -0.25726380 13.92529010 1.20000000
v 0.44220830 13.92529010 1.20000000
v -0.09384755 14.92519860 1.25000000
v 0.45573770 14.92519860 1.25000000
v -0.24373440 14.92519860 1.20000000
v 0.45573770 14.92519860 1.20000000
v -0.08031810 15.92510700 1.25000000
v 0.46926710 15.92510700 1.25000000
v -0.23020500 15.92510700 1.20000000
v 0.46926710 15.92510700 1.20000000
v -0.06678875 16.92501640 1.25000000
v 0.48279650 16.92501640 1.25000000
v -0.21667560 16.92501640 1.20000000
v 0.48279650 16.92501640 1.20000000
v -0.05325935 17.92492490 1.25000000
v 0.49632590 17.92492490 1.25000000
v -0.20314620 17.92492490 1.20000000
v 0.49632590 17.92492490 1.20000000
v -0.03973000 18.92483330 1.25000000
v 0.50985530 18.92483330 1.25000000
v -0.31452260 18.92483330 1.20000000
v 0.50985530 18.92483330 1.20000000
v -0.12786080 22.28180600 1.30989580
v -0.57945040 7.26421679 0.83621022
v -0.99038030 21.83936880 0.84953690
v 1.17054650 21.62589650 0.96614690
v 0.36103190 7.97583960 1.20000000
v 0.37456130 8.97574810 1.20000000
v 0.38809070 9.97565650 1.20000000
v 0.40162010 10.97556500 1.20000000
v 0.41514950 11.97547340 1.20000000
v 0.42867890 12.97538190 1.20000000
v 0.44220830 13.97529030 1.20000000
v 0.45573770 14.97519870 1.20000000
v 0.46926710 15.97510720 1.20000000
v 0.48279650 16.97501560 1.20000000
v 0.49632590 17.97492410 1.20000000
v 0.50985530 18.97483250 1.20000000
v -0.92952620 22.70006940 0.70553040
v -0.66544720 20.82123180 0.72427210
v -0.86350625 22.23035910 1.31175600
v -0.92952620 22.70006940 1.29477250
v 0.90897630 20.82123180 0.72427210
v 1.17305520 22.70006940 1.29477250
v 0.37138990 22.75613210 0.70497120
v 0.37138990 21.33315370 0.71916560
v 0.37138990 22.28180600 1.30989580
v -1.15104510 21.55422210 0.71696040
v -1.27489670 22.43538670 0.70817070
v -1.36585025 23.08249185 1.28094510
v -1.25409360 22.28737925 1.30969430
v 2.94066361 -2.01693053 0.01491935
v 1.36772328 21.36318593 1.04015008
v 1.58809230 22.93104175 1.28642120
v 1.47972225 22.16002275 0.71091745
v 1.00317810 24.06029130 0.69196205
v -0.12786080 22.28180600 0.70970265
v -0.12786080 22.75613210 1.29274550
v 0.93750000 0.75000000 1.00000000
v 0.31250000 0.75000000 1.00000000
v -0.31250000 0.75000000 1.00000000
v -0.93750000 0.75000000 1.00000000
v 0.31250000 0.75000000 1.20000000
v -0.93750000 0.75000000 1.20000000
v 0.93750000 1.25000000 1.20000000
v -0.42968750 1.25000000 1.20000000
v 0.38502788 8.55921994 -0.50000000
v 0.93750000 1.25000000 1.00000000
v 0.31250000 1.25000000 1.00000000
v -0.31250000 1.25000000 1.00000000
v -0.93750000 1.25000000 1.00000000
v -0.62468450 8.92574790 1.25000000
v 0.60146930 10.97556500 1.25000000
v -0.58409640 11.92547320 1.25000000
v -0.57056700 12.92538170 1.25000000
v -0.54350820 14.92519860 1.25000000
v 0.65558680 14.97519870 1.25000000
v -0.52997880 15.92510700 1.25000000
v 0.66911630 15.97510720 1.25000000
v -0.51644940 16.92501640 1.25000000
v 0.68264560 16.97501560 1.25000000
v -0.50292000 17.92492490 1.25000000
v 0.69617500 17.97492410 1.25000000
v 0.70970450 18.97483250 1.25000000
v 0.69010574 3.78144882 1.00000000
v -0.16356610 22.65986820 1.16887090
v -0.77626400 21.84225270 0.96245030
v -1.31360030 22.71075060 1.29438640
v -1.18200800 21.77451320 1.32823810
v -1.11234140 21.27885815 1.34615970
v 1.36361130 21.33393095 1.34416845
v 1.44875925 21.93973160 1.32226425
v -1.00397130 20.50783920 0.72739820
v -1.21297095 21.99480440 0.71256555
v -1.34456335 22.93104175 0.70322645
v -0.71181702 23.69501462 0.69560572
v 1.84181250 2.08876715 1.00000000
v -0.69746951 4.39236624 1.00000000
v -1.77864640 2.02516577 1.00000000
v -0.11461810 21.14032550 0.84368230
v 0.37138990 21.96442410 1.14889510
v 0.84309660 21.98181920 1.09541870
v 0.48245040 22.06021880 0.98128240
v -0.58825170 7.92583940 1.20000000
v -0.57472220 8.92574790 1.20000000
v -0.53413410 11.92547320 1.20000000
v -0.52060470 12.92538170 1.20000000
v -0.50707530 13.92529010 1.20000000
v -0.49354590 14.92519860 1.20000000
v -0.48001650 15.92510700 1.20000000
v -0.46648710 16.92501640 1.20000000
v -0.45295770 17.92492490 1.20000000
v 4.31250253 -1.25862965 0.06779676
v 1.20614317 1.90801584 0.50000000
v 0.56088110 7.92583940 1.25000000
v 0.56088110 7.92583940 1.20000000
v 0.06125815 7.92583940 1.20000000
v 0.57441050 8.92574790 1.25000000
v 0.57441050 8.92574790 1.20000000
v 0.17471220 8.92574790 1.20000000
v 0.58793990 9.92565630 1.25000000
v 0.58793990 9.92565630 1.20000000
v 0.18824150 9.92565630 1.20000000
v 0.60146930 10.92556480 1.25000000
v 0.60146930 10.92556480 1.20000000
v 0.20177090 10.92556480 1.20000000
v 0.61499860 11.92547320 1.25000000
v 0.61499860 11.92547320 1.20000000
v 0.21530030 11.92547320 1.20000000
v 0.62852810 12.92538170 1.25000000
v 0.62852810 12.92538170 1.20000000
v 0.22882970 12.92538170 1.20000000
v 0.64205750 13.92529010 1.25000000
v 0.64205750 13.92529010 1.20000000
v 0.24235910 13.92529010 1.20000000
v 0.65558680 14.92519860 1.25000000
v 0.25588850 14.92519860 1.25000000
v 0.65558680 14.92519860 1.20000000
v 0.25588850 14.92519860 1.20000000
v 0.66911630 15.92510700 1.25000000
v 0.26941790 15.92510700 1.25000000
v 0.66911630 15.92510700 1.20000000
v 0.26941790 15.92510700 1.20000000
v 0.68264560 16.92501640 1.25000000
v 0.28294730 16.92501640 1.25000000
v 0.68264560 16.92501640 1.20000000
v 0.28294730 16.92501640 1.20000000
v 0.69617500 17.92492490 1.25000000
v 0.29647670 17.92492490 1.25000000
v 0.69617500 17.92492490 1.20000000
v 0.29647670 17.92492490 1.20000000
v 0.70970450 18.92483330 1.25000000
v 0.31000610 18.92483330 1.25000000
v 0.70970450 18.92483330 1.20000000
v 0.31000610 18.92483330 1.20000000
v 1.23046730 21.92581180 0.92602690
v 0.16118270 7.97583960 1.20000000
v -0.50081770 7.97583960 1.20000000
v 0.17471220 8.97574810 1.20000000
v -0.48728820 8.97574810 1.20000000
v 0.18824150 9.97565650 1.20000000
v 0.04407745 10.97556500 1.20000000
v 0.21530030 11.97547340 1.20000000
v -0.44670010 11.97547340 1.20000000
v 0.22882970 12.97538190 1.20000000
v -0.43317070 12.97538190 1.20000000
v 0.24235910 13.97529030 1.20000000
v -0.41964130 13.97529030 1.20000000
v 0.25588850 14.97519870 1.20000000
v -0.28782960 14.97519870 1.20000000
v 0.26941790 15.97510720 1.20000000
v -0.27430020 15.97510720 1.20000000
v 0.28294730 16.97501560 1.20000000
v -0.26077080 16.97501560 1.20000000
v 0.29647670 17.97492410 1.20000000
v -0.24724140 17.97492410 1.20000000
v 0.31000610 18.97483250 1.20000000
v -0.23645650 18.97483250 1.20000000
v -1.01945275 20.61798475 1.37005500
v 1.25137082 20.53537557 1.37304203
v 1.51842580 22.43538670 1.30434270
v 1.38683340 21.49914935 0.71750980
v 1.27072260 20.67305760 0.72575010
v -0.12786080 21.29362680 1.34562560
v -0.41095170 21.98648260 0.87751280
v -0.24972400 22.01724430 1.11376130
v -0.94540520 21.81839940 1.03762700
v -1.12205219 21.34794681 0.93553277
v -0.76170650 22.59475330 1.17274670
v 0.85660600 20.84939190 1.01663710
v -2.36864780 9.35554700 -0.50000000
v -1.12285510 22.55115130 0.95380910
v -0.33644640 21.06452750 0.82551630
v -0.78125000 1.25000000 1.20000000
v 0.76482845 8.17871867 1.20000000
v -1.63728143 8.28421285 1.00000000
v -0.12697840 21.96566010 0.85156100
v 0.39750280 21.91162490 0.82618000
v -0.73205765 15.81031907 1.20000000
v -0.69397582 18.62480474 0.90000000
v 0.80600460 11.22190142 0.90000000
v -0.95941860 21.62075420 0.96755280
v 1.17758580 21.86080170 1.14491950
v 0.07333206 8.56763044 1.20000000
v 0.10253910 1.25000000 1.20000000
v 1.63824017 -0.43553997 1.00000000
v -0.15420420 7.97583960 1.20000000
v -0.14067480 8.97574810 1.20000000
v -0.30045220 9.97565650 1.20000000
v -0.10008670 11.97547340 1.20000000
v -0.08655730 12.97538190 1.20000000
v -0.07302780 13.97529030 1.20000000
v 0.98432340 21.97513010 1.07174580
v -0.80493316 10.42435623 1.20000000
v 0.80160400 10.89666912 1.20000000
v 0.90579635 18.59714848 0.90000000
v 0.84339661 13.98541055 0.90000000
v -0.81955920 21.06741330 0.85441750
v -0.10218280 18.92483330 1.20000000
v 0.85374583 14.75028135 1.20000000
v 0.72241944 0.68725118 -1.00000000
v -0.12519806 8.49012603 -1.00000000
v 0.34459530 21.01434330 1.14122610
v 0.57675051 19.77847707 1.03389752
v -0.49404410 22.02399250 0.97832640
v -0.69340600 21.86213870 0.97061070
v 0.85684480 20.85076747 1.00723987
v -0.83523865 8.18458734 1.20000000
v 1.31040490 20.95538330 1.00712570
v 0.91881910 20.84803390 1.02098830
v 0.60184662 20.88451052 1.01037240
v -0.60416550 22.00838090 0.97724840
v 0.56347660 22.77873040 1.14554620
v 0.98531960 21.89513210 1.15497090
v 0.49769400 22.53672980 0.91589440
v 0.64969660 22.03752330 1.00811590
v 1.40628360 22.71648790 1.05598620
v 0.72876360 22.00075910 1.09104140
v 0.82296570 22.76075360 0.86854330
v 1.10583600 20.83693890 1.05730710
v 1.05932820 22.59169770 1.17317440
v 1.06471490 20.82975200 1.02630660
v 0.22241780 21.11778070 0.95796660
v -0.21377080 21.71285820 0.99172190
v -1.29033900 22.54525380 1.17500000
v -0.75688670 13.97529030 1.20000000
v -1.29033900 22.54525380 1.17500000
v -1.29033900 22.54525380 1.17500000
v -0.75688670 13.97529030 1.20000000
v -0.75688670 13.97529030 1.20000000
v 1.43902626 21.87554953 0.87742430
v 1.44042284 21.87535447 0.87742430
v -1.08554118 21.08228705 1.12470315
v -1.08391602 21.08251555 1.12470315
v 1.51822794 22.42359045 0.87840610
v 1.51536466 22.42399325 0.87840610
v -1.19392987 21.87908572 0.87958010
v -1.19937483 21.87832048 0.87958010
v 1.28860372 20.83514250 1.11663480
v 1.29821518 20.83379140 1.11663480
v 0.81012995 10.91120261 1.20000000
v 0.79279255 10.91103131 1.20000000
v -0.69650640 15.86704411 1.20000000
v -0.76537915 15.86838196 1.20000000
v 0.75480530 10.03392314 1.20000000
v 0.82367900 10.03217936 1.20000000
v 0.90706609 14.83723292 1.20000000
v 0.80211574 14.83824703 1.20000000
v 0.70191565 8.07850858 1.20000000
v 0.82364310 8.07604969 1.20000000
v -0.88823032 9.01476648 1.10000000
v -0.75980475 9.01302888 1.10000000
v -0.56433046 18.77280992 1.05000000
v -0.81888516 18.77682812 1.05000000
v 0.69368410 18.28929082 1.05000000
v 1.10813645 18.28278176 1.05000000
v 1.03988189 11.57080328 1.05000000
v 0.58097051 11.57657134 1.05000000
v -1.04862386 13.45439482 1.25000000
v -0.47867894 13.44627718 1.25000000
v -0.43809049 16.44600301 1.20000000
v -1.00803601 16.45412059 1.20000000
f 2 10 1
f 10 2 9
f 9 2 3
f 9 3 15
f 15 3 4
f 14 15 4
f 5 14 4
f 14 5 6
f 14 6 13
f 13 6 7
f 13 7 12
f 12 7 8
f 12 8 11
f 11 8 1
f 65 73 64
f 73 65 72
f 72 65 66
f 72 66 78
f 78 66 67
f 78 67 77
f 77 67 68
f 77 68 69
f 77 69 76
f 76 69 70
f 76 70 75
f 75 70 71
f 75 71 74
f 74 71 64
f 96 104 95
f 104 96 103
f 103 96 97
f 103 97 109
f 109 97 98
f 109 98 108
f 108 98 99
f 108 99 100
f 108 100 107
f 107 100 101
f 107 101 106
f 106 101 102
f 106 102 105
f 105 102 95
f 111 105 110
f 105 111 112
f 106 105 112
f 106 112 107
f 107 112 113
f 107 113 108
f 108 113 114
f 108 114 115
f 108 115 109
f 109 115 116
f 109 116 103
f 103 116 117
f 103 117 104
f 104 117 110
f 135 143 134
f 134 143 139
f 138 139 140
f 138 134 139
f 138 140 137
f 137 140 141
f 137 141 136
f 136 141 142
f 135 136 143
f 143 136 142
f 144 145 149
f 153 145 146
f 152 147 151
f 157 167 156
f 171 74 170
f 74 171 172
f 75 74 172
f 75 172 173
f 76 75 173
f 76 173 174
f 77 76 174
f 77 174 175
f 77 175 78
f 78 175 176
f 78 176 72
f 72 176 177
f 72 177 73
f 73 177 170
f 149 153 182
f 178 149 182
f 149 178 150
f 150 178 179
f 150 179 151
f 151 179 180
f 151 180 152
f 152 180 181
f 153 181 182
f 153 152 181
f 207 58 57
f 58 218 59
f 28 809 183
f 56 807 912
f 218 58 685
f 185 11 184
f 11 185 12
f 12 185 186
f 12 186 13
f 13 186 187
f 14 187 188
f 14 13 187
f 189 14 188
f 15 14 189
f 9 15 190
f 15 189 190
f 10 9 191
f 9 190 191
f 10 191 184
f 125 124 851
f 331 124 123
f 197 206 202
f 206 198 199
f 205 200 204
f 685 211 686
f 686 849 64
f 325 170 177
f 171 170 848
f 690 220 225
f 221 224 220
f 238 246 237
f 237 246 242
f 237 242 241
f 241 242 243
f 241 243 240
f 240 243 244
f 240 244 239
f 239 244 245
f 238 245 246
f 238 239 245
f 202 259 255
f 202 206 259
f 202 255 203
f 203 255 256
f 203 256 204
f 204 256 257
f 204 257 258
f 205 204 258
f 205 258 259
f 206 205 259
f 260 135 134
f 135 261 262
f 262 263 137
f 132 35 34
f 278 279 273
f 278 273 277
f 276 277 696
f 290 283 289
f 289 284 288
f 238 294 239
f 239 295 240
f 213 64 71
f 705 95 102
f 7 6 704
f 896 69 68
f 67 2 68
f 65 64 849
f 286 306 302
f 286 290 306
f 286 302 287
f 287 302 303
f 287 303 288
f 288 303 304
f 288 304 289
f 289 304 305
f 290 289 305
f 306 290 305
f 170 325 710
f 710 329 332
f 348 341 347
f 347 342 346
f 1097 309 310
f 353 354 390
f 306 936 302
f 302 245 244
f 932 364 365
f 933 303 302
f 179 934 180
f 180 934 255
f 180 255 181
f 847 255 259
f 181 255 847
f 143 937 139
f 360 357 935
f 360 935 139
f 141 824 178
f 141 178 142
f 826 178 182
f 362 825 361
f 361 305 304
f 714 258 242
f 246 714 242
f 242 258 257
f 243 242 257
f 713 257 256
f 359 363 364
f 364 932 359
f 936 245 302
f 846 363 359
f 344 362 361
f 344 348 362
f 344 361 345
f 345 361 365
f 346 365 364
f 346 345 365
f 346 364 347
f 347 364 363
f 348 363 362
f 348 347 363
f 359 358 374
f 386 387 717
f 384 721 722
f 383 384 828
f 380 728 730
f 309 220 219
f 390 1097 391
f 199 733 200
f 292 296 733
f 292 199 715
f 715 199 198
f 262 1067 144
f 262 144 263
f 264 944 260
f 260 392 372
f 260 372 261
f 342 941 343
f 295 281 942
f 281 295 294
f 281 294 845
f 845 294 293
f 371 341 938
f 827 282 845
f 339 831 284
f 827 339 283
f 339 284 283
f 827 283 282
f 197 201 943
f 198 146 939
f 939 146 145
f 733 199 292
f 944 264 263
f 197 943 147
f 941 342 374
f 341 371 342
f 371 374 342
f 938 341 340
f 722 395 396
f 397 398 724
f 398 725 724
f 400 405 406
f 407 391 413
f 415 408 414
f 417 407 416
f 408 412 389
f 389 412 401
f 417 416 419
f 419 416 418
f 421 420 414
f 414 420 415
f 407 413 416
f 416 413 418
f 412 408 420
f 420 408 415
f 427 423 426
f 424 425 426
f 423 428 422
f 423 427 428
f 424 426 423
f 441 442 430
f 442 429 430
f 441 430 431
f 441 431 440
f 440 431 432
f 439 432 433
f 440 432 439
f 439 433 434
f 439 434 445
f 445 434 435
f 445 435 1118
f 1118 435 436
f 444 436 437
f 1118 436 444
f 443 437 438
f 444 437 443
f 443 438 429
f 442 443 429
f 437 455 739
f 739 455 438
f 455 456 446
f 450 456 451
f 451 456 452
f 452 456 453
f 454 456 455
f 446 456 447
f 447 456 448
f 448 456 449
f 449 456 450
f 453 456 454
f 457 458 461
f 464 462 463
f 457 461 462
f 465 462 464
f 457 462 465
f 459 461 458
f 460 461 459
f 475 466 480
f 466 479 480
f 466 467 479
f 479 467 478
f 478 467 468
f 478 468 469
f 478 469 477
f 476 469 470
f 476 477 469
f 484 470 471
f 476 470 484
f 484 471 472
f 484 472 483
f 483 472 473
f 482 473 474
f 483 473 482
f 481 474 475
f 482 474 481
f 480 481 475
f 740 475 741
f 741 471 742
f 489 742 740
f 489 488 495
f 488 487 495
f 487 486 495
f 489 495 490
f 490 495 491
f 491 495 492
f 493 495 494
f 494 495 485
f 485 495 486
f 492 495 493
f 503 501 502
f 504 500 503
f 496 498 505
f 504 499 500
f 498 496 497
f 500 501 503
f 499 505 498
f 499 504 505
f 515 520 521
f 506 519 520
f 506 507 519
f 507 508 518
f 507 518 519
f 508 509 517
f 518 508 517
f 517 509 510
f 517 510 516
f 516 510 511
f 523 511 512
f 523 516 511
f 523 512 513
f 523 513 522
f 522 513 514
f 522 514 521
f 521 514 515
f 520 515 506
f 533 534 524
f 528 534 529
f 529 534 530
f 530 534 531
f 532 534 533
f 524 534 525
f 525 534 526
f 526 534 527
f 527 534 528
f 531 534 532
f 540 535 539
f 541 542 540
f 540 542 535
f 539 535 536
f 538 539 536
f 538 536 537
f 550 548 549
f 543 546 550
f 548 550 547
f 545 543 544
f 547 550 546
f 546 543 545
f 551 552 557
f 558 551 557
f 559 551 558
f 553 556 552
f 552 556 557
f 553 555 556
f 555 553 554
f 560 563 569
f 569 563 568
f 567 564 565
f 567 565 566
f 568 564 567
f 564 568 563
f 562 560 561
f 563 560 562
f 574 571 573
f 575 1116 574
f 574 1116 571
f 571 572 573
f 581 1102 580
f 1102 578 579
f 1102 579 580
f 578 1102 577
f 585 584 587
f 587 584 586
f 589 588 582
f 582 588 583
f 593 592 595
f 595 592 594
f 597 596 590
f 590 596 591
f 601 600 603
f 603 600 602
f 605 604 598
f 598 604 599
f 609 608 611
f 611 608 610
f 613 612 606
f 606 612 607
f 617 616 619
f 619 616 618
f 621 620 614
f 614 620 615
f 625 624 627
f 627 624 626
f 629 628 622
f 622 628 623
f 633 632 635
f 635 632 634
f 637 1119 631
f 630 637 631
f 641 640 643
f 643 640 642
f 645 644 638
f 638 644 639
f 649 648 651
f 651 648 650
f 653 652 646
f 646 652 647
f 657 656 659
f 659 656 658
f 661 660 654
f 654 660 655
f 665 664 667
f 667 664 666
f 669 668 662
f 662 668 663
f 673 672 675
f 675 672 674
f 677 676 670
f 670 676 671
f 145 153 149
f 144 149 150
f 144 150 148
f 151 148 150
f 146 152 153
f 152 146 147
f 678 87 94
f 913 31 30
f 31 913 24
f 685 58 207
f 90 914 91
f 59 915 60
f 218 915 59
f 275 913 30
f 29 696 30
f 696 29 183
f 28 183 29
f 696 275 30
f 27 26 93
f 28 27 809
f 809 92 679
f 25 678 26
f 24 808 25
f 56 63 807
f 807 63 88
f 57 56 912
f 89 88 62
f 63 62 88
f 61 914 90
f 61 89 62
f 60 914 61
f 162 169 810
f 41 40 680
f 162 810 916
f 811 40 47
f 125 851 118
f 42 680 168
f 680 42 41
f 167 681 168
f 166 813 167
f 168 43 42
f 165 690 226
f 164 690 165
f 163 690 164
f 162 916 163
f 122 121 812
f 44 812 45
f 122 812 917
f 46 45 120
f 120 119 46
f 119 811 47
f 119 47 46
f 118 811 119
f 814 235 193
f 193 194 196
f 198 206 197
f 197 202 201
f 202 203 201
f 204 200 203
f 199 205 206
f 205 199 200
f 218 685 217
f 208 685 207
f 217 685 216
f 209 685 208
f 216 685 215
f 210 685 209
f 211 685 210
f 215 685 214
f 686 214 685
f 212 686 211
f 214 686 213
f 849 686 212
f 64 213 686
f 918 175 815
f 687 190 189
f 222 114 223
f 113 223 114
f 112 816 113
f 191 689 184
f 185 689 920
f 689 185 184
f 689 174 173
f 689 815 174
f 190 815 191
f 174 815 175
f 116 919 117
f 117 188 110
f 111 110 188
f 111 188 187
f 112 111 816
f 850 115 114
f 220 690 219
f 690 225 226
f 224 225 220
f 223 221 222
f 224 221 223
f 114 222 850
f 967 79 86
f 966 18 17
f 20 963 21
f 21 963 1061
f 81 963 82
f 22 21 1061
f 23 22 1061
f 963 81 1061
f 921 80 79
f 49 967 50
f 84 924 51
f 83 962 84
f 20 19 1052
f 18 1052 19
f 261 135 260
f 260 134 264
f 134 138 264
f 137 264 138
f 262 136 135
f 136 262 137
f 155 1055 156
f 156 926 157
f 35 965 36
f 159 158 1053
f 129 128 927
f 270 267 1053
f 131 35 132
f 272 273 279
f 274 277 273
f 696 274 275
f 274 696 277
f 276 696 183
f 233 692 697
f 282 286 281
f 286 282 290
f 281 287 285
f 287 281 286
f 288 285 287
f 290 282 283
f 284 289 283
f 293 237 292
f 237 293 238
f 292 241 296
f 241 292 237
f 240 296 241
f 238 293 294
f 295 239 294
f 271 97 822
f 930 2 67
f 272 279 271
f 271 99 98
f 99 271 279
f 97 271 98
f 100 279 101
f 102 1057 705
f 4 822 5
f 705 96 95
f 822 4 703
f 6 705 704
f 705 6 5
f 101 1057 102
f 279 100 99
f 7 896 8
f 896 931 69
f 8 896 68
f 2 1 68
f 66 930 67
f 310 309 270
f 309 267 270
f 233 311 312
f 708 314 301
f 848 710 336
f 710 848 170
f 336 710 335
f 326 710 325
f 335 710 334
f 327 710 326
f 328 710 327
f 334 710 333
f 329 710 328
f 333 710 332
f 330 332 329
f 851 332 330
f 301 709 706
f 340 344 339
f 344 340 348
f 339 345 343
f 345 339 344
f 346 343 345
f 348 340 341
f 342 347 341
f 351 711 1095
f 390 354 309
f 361 304 823
f 932 365 823
f 257 713 243
f 934 179 824
f 306 305 825
f 306 825 936
f 142 826 937
f 258 714 259
f 367 368 366
f 352 366 368
f 848 213 931
f 216 229 217
f 923 218 229
f 277 276 337
f 276 232 337
f 223 278 337
f 337 278 277
f 337 310 224
f 223 337 224
f 310 225 224
f 225 310 270
f 226 225 270
f 269 332 331
f 230 779 702
f 279 278 223
f 355 735 337
f 310 337 735
f 374 371 359
f 386 717 719
f 386 719 718
f 385 718 720
f 385 377 721
f 722 721 377
f 384 722 828
f 383 828 723
f 723 724 382
f 724 723 828
f 381 727 726
f 378 380 730
f 380 378 379
f 271 850 222
f 272 222 221
f 273 272 354
f 273 354 274
f 274 354 231
f 354 272 221
f 354 221 309
f 220 309 221
f 219 267 309
f 821 916 810
f 330 329 732
f 732 329 328
f 1097 413 391
f 285 284 831
f 285 831 942
f 144 832 263
f 339 827 340
f 197 146 198
f 144 148 832
f 394 717 393
f 717 394 719
f 719 394 395
f 719 395 720
f 720 395 377
f 377 395 722
f 399 725 398
f 727 399 729
f 400 729 399
f 729 400 730
f 730 400 378
f 402 403 393
f 393 317 394
f 399 311 400
f 311 320 897
f 319 734 897
f 392 360 372
f 360 392 357
f 721 384 307
f 728 380 297
f 387 369 375
f 409 388 410
f 418 413 419
f 836 736 835
f 838 959 835
f 438 455 429
f 447 455 446
f 429 455 430
f 448 455 447
f 430 455 431
f 449 455 448
f 431 455 432
f 450 455 449
f 432 455 433
f 451 455 450
f 433 455 434
f 452 455 451
f 434 455 435
f 453 455 452
f 435 455 436
f 454 455 453
f 436 455 437
f 455 454 739
f 455 739 454
f 437 739 438
f 475 740 466
f 485 740 494
f 486 740 485
f 466 740 467
f 487 740 486
f 467 740 468
f 488 740 487
f 468 740 469
f 489 740 488
f 469 740 470
f 470 740 471
f 490 742 489
f 741 494 740
f 474 741 475
f 494 741 493
f 473 741 474
f 493 741 492
f 472 741 473
f 492 741 491
f 471 741 472
f 491 741 742
f 742 490 491
f 742 471 740
f 1091 744 839
f 786 744 1066
f 1091 516 840
f 839 745 840
f 785 745 786
f 515 746 506
f 524 746 533
f 525 746 524
f 506 746 507
f 507 746 508
f 526 746 525
f 508 746 509
f 527 746 526
f 509 746 510
f 528 746 527
f 510 746 511
f 529 746 528
f 511 746 512
f 530 746 529
f 512 746 513
f 531 746 530
f 513 746 514
f 532 746 531
f 514 746 515
f 533 746 532
f 1106 542 541
f 1108 748 1106
f 789 1104 1096
f 1102 581 842
f 858 990 1030
f 861 993 1032
f 864 996 1034
f 866 999 903
f 869 1002 1036
f 872 1005 1038
f 875 1008 1040
f 877 1010 879
f 879 1012 907
f 881 1014 883
f 883 1016 908
f 885 1018 887
f 887 1020 909
f 889 1022 891
f 891 1024 910
f 893 1026 1028
f 895 1028 1050
f 32 33 47
f 118 119 133
f 681 167 813
f 812 44 681
f 687 815 190
f 85 967 86
f 155 154 821
f 965 964 36
f 127 126 820
f 33 133 132
f 822 96 5
f 311 233 697
f 233 708 691
f 1094 701 254
f 933 302 244
f 713 933 243
f 824 140 935
f 181 847 182
f 178 826 142
f 815 687 703
f 262 261 1067
f 941 831 343
f 147 146 197
f 938 340 827
f 282 281 845
f 292 1078 293
f 737 782 736
f 1062 783 782
f 738 784 1062
f 736 782 738
f 745 785 743
f 748 1114 747
f 747 787 749
f 790 900 1030
f 791 901 1032
f 792 902 1034
f 1035 946 903
f 794 904 1036
f 795 905 1038
f 796 906 1040
f 798 907 1042
f 800 908 1044
f 802 909 1046
f 804 910 1048
f 806 911 1050
f 158 166 157
f 913 808 24
f 93 26 94
f 915 914 60
f 679 91 914
f 27 93 809
f 92 91 679
f 90 89 61
f 88 87 807
f 57 912 207
f 810 169 680
f 690 916 219
f 916 690 163
f 680 169 168
f 40 811 680
f 851 811 118
f 166 165 813
f 226 813 165
f 121 120 812
f 45 812 120
f 123 917 331
f 917 123 122
f 43 681 44
f 682 195 194
f 682 192 195
f 692 192 682
f 192 692 691
f 325 177 918
f 687 189 919
f 919 116 850
f 115 850 116
f 188 919 189
f 688 186 920
f 185 920 186
f 920 173 172
f 920 172 848
f 177 176 918
f 111 187 688
f 187 186 688
f 921 23 1061
f 967 49 922
f 967 85 50
f 961 923 53
f 1052 963 20
f 924 84 962
f 228 968 923
f 53 923 54
f 54 923 968
f 55 54 968
f 691 692 233
f 236 234 693
f 693 234 235
f 693 235 814
f 38 926 1055
f 37 926 38
f 1053 158 964
f 1054 965 131
f 1054 131 130
f 130 129 927
f 159 1053 160
f 33 928 133
f 126 133 928
f 33 32 928
f 33 132 34
f 928 820 126
f 928 32 1055
f 39 38 1055
f 131 965 35
f 127 268 128
f 1064 697 692
f 280 697 1064
f 707 698 699
f 698 234 699
f 822 97 96
f 703 3 930
f 2 930 3
f 930 66 849
f 213 71 931
f 279 1057 101
f 1057 704 705
f 4 3 703
f 8 68 1
f 71 70 931
f 698 707 300
f 313 708 312
f 315 301 314
f 316 709 315
f 324 317 318
f 338 709 324
f 709 338 706
f 338 323 356
f 338 324 323
f 932 358 359
f 823 304 303
f 823 303 933
f 713 256 934
f 824 179 178
f 824 141 140
f 246 936 714
f 936 246 245
f 825 362 846
f 362 363 846
f 182 847 826
f 143 142 937
f 335 779 336
f 213 336 214
f 214 779 215
f 844 215 779
f 229 216 844
f 232 276 1052
f 333 269 702
f 779 335 702
f 336 779 214
f 702 335 334
f 848 931 920
f 373 321 1064
f 321 373 322
f 716 322 373
f 323 322 716
f 387 376 717
f 381 725 727
f 728 729 730
f 271 822 850
f 210 731 211
f 211 731 212
f 325 731 326
f 268 732 929
f 829 328 327
f 929 829 227
f 326 829 327
f 829 326 731
f 325 212 731
f 692 706 940
f 1097 735 413
f 296 295 942
f 285 942 281
f 148 147 943
f 201 733 943
f 263 832 944
f 292 715 1078
f 376 393 717
f 722 396 828
f 725 399 727
f 897 400 311
f 319 897 320
f 318 734 319
f 386 350 370
f 718 350 386
f 385 307 718
f 718 307 350
f 384 958 307
f 971 382 265
f 381 265 382
f 265 381 726
f 726 297 265
f 728 297 726
f 247 700 248
f 428 835 422
f 439 784 440
f 835 428 836
f 782 1065 784
f 427 836 428
f 426 836 427
f 736 836 837
f 836 426 425
f 783 443 442
f 424 959 425
f 737 837 838
f 442 1065 783
f 443 783 444
f 444 783 1118
f 784 1118 783
f 1062 838 738
f 1118 784 445
f 445 784 439
f 738 835 736
f 835 738 838
f 516 1091 517
f 517 1091 518
f 505 973 496
f 504 973 505
f 503 973 504
f 839 519 518
f 518 1091 839
f 519 839 520
f 502 786 503
f 973 503 786
f 500 786 501
f 785 497 973
f 743 840 745
f 840 743 1091
f 523 840 516
f 497 785 498
f 498 785 499
f 522 840 523
f 840 522 839
f 499 786 500
f 786 499 785
f 521 839 522
f 520 839 521
f 543 1110 544
f 542 1106 535
f 787 545 1110
f 544 1110 545
f 747 1106 748
f 540 1106 541
f 1106 540 1108
f 546 788 547
f 539 1108 540
f 547 788 548
f 538 1108 539
f 1108 538 537
f 1110 549 548
f 548 788 1110
f 537 841 1108
f 536 841 537
f 549 1110 550
f 550 1110 543
f 535 841 536
f 841 535 1106
f 749 1112 747
f 576 1096 570
f 575 1096 576
f 574 1096 575
f 1063 1104 1103
f 573 789 574
f 1096 574 789
f 571 789 572
f 1116 570 1096
f 570 1116 575
f 575 576 570
f 789 571 1116
f 580 842 581
f 582 977 856
f 750 858 988
f 900 989 858
f 790 750 988
f 589 856 751
f 945 590 978
f 752 861 991
f 901 992 861
f 791 752 991
f 754 597 859
f 755 864 994
f 902 995 864
f 792 755 994
f 605 862 757
f 758 866 997
f 903 998 866
f 793 758 946
f 613 865 793
f 947 614 979
f 760 869 1000
f 904 1001 869
f 794 760 1000
f 762 621 867
f 948 622 980
f 763 872 1003
f 905 1004 872
f 795 763 1003
f 765 629 870
f 766 875 1006
f 906 1007 875
f 796 766 1006
f 637 630 768
f 638 982 949
f 877 879 1009
f 907 1011 879
f 798 877 950
f 949 876 770
f 646 983 951
f 881 883 1013
f 908 1015 883
f 800 881 952
f 951 880 772
f 654 984 953
f 885 887 1017
f 909 1019 887
f 802 885 954
f 953 884 774
f 662 985 955
f 889 891 1021
f 910 1023 891
f 804 889 956
f 955 888 776
f 893 895 1025
f 911 1027 895
f 806 893 957
f 677 670 778
f 121 131 132
f 325 918 849
f 689 173 920
f 817 229 844
f 818 966 16
f 48 55 968
f 128 268 927
f 926 156 1055
f 821 1055 155
f 268 929 269
f 301 706 300
f 708 313 314
f 390 309 1097
f 259 714 847
f 936 827 845
f 826 847 939
f 336 213 848
f 779 230 844
f 279 223 816
f 381 382 725
f 724 725 382
f 728 726 729
f 727 729 726
f 808 818 921
f 212 325 849
f 1055 821 810
f 733 201 200
f 828 397 724
f 404 734 403
f 393 734 318
f 408 1072 407
f 745 839 744
f 973 1066 785
f 1100 842 1103
f 1080 1030 990
f 1081 1032 753
f 1082 1034 756
f 1083 1036 761
f 1084 1038 764
f 1085 1040 767
f 797 1042 769
f 799 1044 771
f 801 1046 773
f 803 1048 775
f 805 1050 777
f 196 194 195
f 229 817 228
f 230 702 227
f 702 269 929
f 266 297 299
f 843 322 323
f 691 708 987
f 291 701 1094
f 683 1094 252
f 715 714 1078
f 846 938 825
f 917 1054 927
f 829 929 328
f 401 355 389
f 405 400 897
f 355 401 412
f 408 407 417
f 787 1110 749
f 579 842 580
f 750 856 857
f 857 990 750
f 751 790 1080
f 1030 1080 790
f 856 750 751
f 752 859 753
f 860 753 859
f 754 791 1081
f 1032 1081 791
f 754 859 791
f 755 862 756
f 863 756 862
f 1082 792 1034
f 792 1082 757
f 862 755 757
f 758 865 759
f 607 759 865
f 865 758 793
f 760 867 761
f 868 761 867
f 762 794 1083
f 1036 1083 794
f 762 867 794
f 763 870 764
f 871 764 870
f 765 795 1084
f 1038 1084 795
f 765 870 795
f 766 873 767
f 874 767 873
f 768 796 1085
f 1040 1085 796
f 873 766 768
f 878 769 876
f 1043 770 797
f 1042 797 798
f 770 798 797
f 882 771 880
f 1045 772 799
f 1044 799 800
f 772 800 799
f 886 773 884
f 1047 774 801
f 1046 801 802
f 774 802 801
f 890 775 888
f 1049 776 803
f 1048 803 804
f 776 804 803
f 894 1092 892
f 778 806 805
f 1050 805 806
f 778 805 1051
f 809 93 92
f 814 193 196
f 918 176 175
f 815 689 191
f 919 188 117
f 816 223 113
f 816 111 688
f 848 172 171
f 230 227 817
f 23 818 16
f 922 49 48
f 961 53 52
f 51 924 52
f 82 963 962
f 248 925 247
f 254 925 694
f 925 253 694
f 819 253 248
f 253 925 248
f 253 819 695
f 819 252 695
f 158 157 964
f 926 964 157
f 926 37 964
f 927 1054 130
f 268 127 820
f 1055 32 39
f 154 1056 821
f 1056 154 161
f 254 701 700
f 254 700 247
f 929 227 702
f 5 96 705
f 849 66 65
f 931 70 69
f 301 300 707
f 709 301 315
f 324 318 843
f 324 843 323
f 319 320 843
f 320 697 280
f 318 319 843
f 699 987 707
f 356 323 716
f 823 365 361
f 933 244 243
f 934 256 255
f 935 140 139
f 305 361 825
f 139 937 360
f 368 712 352
f 368 369 712
f 388 366 352
f 371 938 846
f 715 847 714
f 360 937 372
f 1067 937 826
f 816 688 1057
f 920 931 896
f 216 215 844
f 961 915 218
f 679 963 809
f 183 1052 276
f 961 924 915
f 924 962 914
f 679 914 962
f 1052 183 809
f 1054 917 812
f 812 681 965
f 1053 813 226
f 927 331 917
f 269 333 332
f 1057 279 816
f 271 222 272
f 913 275 966
f 231 966 275
f 966 818 913
f 968 207 912
f 967 922 807
f 969 228 817
f 687 919 822
f 930 849 918
f 930 918 815
f 916 1056 219
f 821 1056 916
f 267 219 1056
f 1055 810 680
f 928 1055 680
f 820 811 851
f 330 820 851
f 820 330 268
f 732 268 330
f 929 732 328
f 373 940 716
f 831 339 343
f 296 942 733
f 148 943 832
f 260 944 392
f 405 897 404
f 734 404 897
f 734 393 403
f 970 958 941
f 971 958 383
f 298 297 1069
f 297 380 1069
f 1069 411 298
f 379 1069 380
f 1069 379 854
f 1069 780 411
f 780 410 411
f 1079 248 700
f 358 1079 700
f 368 375 369
f 735 355 412
f 388 711 410
f 711 388 352
f 410 351 411
f 299 298 351
f 378 1101 854
f 388 409 852
f 735 781 413
f 781 421 414
f 414 417 781
f 736 837 737
f 737 838 1062
f 1098 960 1099
f 458 1059 459
f 898 476 1060
f 457 1059 458
f 1059 457 1070
f 501 786 502
f 744 786 745
f 558 557 974
f 562 899 563
f 899 562 1076
f 556 1071 974
f 564 899 565
f 976 1109 1071
f 578 842 579
f 572 789 573
f 583 977 582
f 585 988 989
f 988 858 989
f 790 587 900
f 589 751 1031
f 584 989 586
f 900 586 989
f 990 857 1080
f 587 790 988
f 750 790 751
f 582 856 589
f 859 945 860
f 590 591 978
f 593 991 992
f 753 993 752
f 991 861 992
f 791 595 901
f 597 754 1033
f 592 992 594
f 753 1032 993
f 901 594 992
f 753 860 1081
f 595 791 991
f 859 752 791
f 590 945 597
f 945 859 597
f 862 598 863
f 601 994 995
f 756 996 755
f 994 864 995
f 792 603 902
f 605 757 604
f 600 995 602
f 756 1034 996
f 902 602 995
f 756 863 1082
f 603 792 994
f 755 792 757
f 862 605 598
f 865 606 607
f 609 997 608
f 759 999 758
f 997 866 998
f 1035 793 946
f 610 946 611
f 613 793 612
f 608 998 610
f 759 1035 999
f 903 610 998
f 1035 759 612
f 946 758 997
f 611 946 609
f 865 613 606
f 867 947 868
f 614 615 979
f 617 1000 1001
f 761 1002 760
f 1000 869 1001
f 794 619 904
f 621 762 1037
f 616 1001 618
f 761 1036 1002
f 904 618 1001
f 761 868 1083
f 619 794 1000
f 867 760 794
f 614 947 621
f 947 867 621
f 870 948 871
f 622 623 980
f 625 1003 1004
f 764 1005 763
f 1003 872 1004
f 795 627 905
f 629 765 1039
f 624 1004 626
f 764 1038 1005
f 905 626 1004
f 764 871 1084
f 627 795 1003
f 870 763 795
f 622 948 629
f 948 870 629
f 873 630 981
f 631 981 630
f 633 1006 1007
f 767 1008 766
f 1006 875 1007
f 796 635 906
f 637 768 1041
f 632 1007 634
f 767 1040 1008
f 906 634 1007
f 767 874 1085
f 635 796 1006
f 766 796 768
f 873 768 630
f 876 949 878
f 639 982 638
f 641 1009 640
f 769 1010 876
f 1010 769 1012
f 1009 879 1011
f 798 950 907
f 642 950 643
f 645 770 1043
f 640 1011 642
f 769 1042 1012
f 907 642 1011
f 769 878 797
f 798 876 1010
f 950 877 1009
f 876 798 770
f 643 950 641
f 638 949 645
f 770 645 949
f 880 951 882
f 647 983 646
f 649 1013 648
f 771 1014 880
f 1014 771 1016
f 1013 883 1015
f 800 952 908
f 650 952 651
f 653 772 1045
f 648 1015 650
f 771 1044 1016
f 908 650 1015
f 771 882 799
f 800 880 1014
f 952 881 1013
f 880 800 772
f 651 952 649
f 646 951 653
f 772 653 951
f 884 953 886
f 655 984 654
f 657 1017 656
f 773 1018 884
f 1018 773 1020
f 1017 887 1019
f 802 954 909
f 658 954 659
f 661 774 1047
f 656 1019 658
f 773 1046 1020
f 909 658 1019
f 773 886 801
f 802 884 1018
f 954 885 1017
f 884 802 774
f 659 954 657
f 654 953 661
f 774 661 953
f 888 955 890
f 663 985 662
f 665 1021 664
f 775 1022 888
f 1022 775 1024
f 1021 891 1023
f 804 956 910
f 666 956 667
f 669 776 1049
f 664 1023 666
f 775 1048 1024
f 910 666 1023
f 775 890 803
f 804 888 1022
f 956 889 1021
f 888 804 776
f 667 956 665
f 662 955 669
f 776 669 955
f 673 1025 672
f 777 1026 892
f 1026 777 1028
f 1025 895 1027
f 806 957 911
f 674 957 675
f 677 778 1051
f 672 1027 674
f 777 1050 1028
f 911 674 1027
f 806 778 1026
f 957 893 1025
f 892 1026 778
f 675 957 673
f 808 678 25
f 720 718 719
f 392 855 357
f 367 1088 833
f 217 229 218
f 228 208 207
f 300 706 692
f 939 145 1067
f 959 422 835
f 683 684 265
f 704 896 7
f 731 969 817
f 782 784 738
f 678 807 87
f 681 43 168
f 232 1052 966
f 812 965 1054
f 1087 1101 1077
f 836 425 837
f 959 837 425
f 837 959 838
f 423 959 424
f 422 959 423
f 496 973 497
f 976 975 1109
f 977 857 856
f 977 1031 857
f 978 860 945
f 978 1033 860
f 599 863 598
f 599 604 863
f 979 868 947
f 979 1037 868
f 980 871 948
f 980 1039 871
f 981 874 873
f 981 1041 874
f 982 878 949
f 982 1043 878
f 983 882 951
f 983 1045 882
f 984 886 953
f 984 1047 886
f 985 890 955
f 985 1049 890
f 671 894 670
f 49 62 63
f 850 822 919
f 853 971 972
f 298 299 297
f 312 708 233
f 693 987 699
f 809 963 1052
f 681 813 964
f 921 678 808
f 373 1064 940
f 970 358 700
f 1029 566 899
f 925 986 247
f 925 254 986
f 192 196 195
f 822 703 687
f 703 930 815
f 831 958 853
f 971 265 972
f 834 819 1079
f 351 410 711
f 636 1072 852
f 852 409 636
f 898 477 476
f 478 898 479
f 481 1075 482
f 1060 482 1075
f 1060 1075 960
f 482 1060 483
f 459 1059 460
f 483 1060 484
f 1105 1060 960
f 484 1060 476
f 561 560 1076
f 1076 562 561
f 556 974 557
f 563 899 564
f 553 1071 554
f 567 1029 568
f 569 568 1029
f 560 1029 1076
f 1029 560 569
f 551 976 552
f 678 94 26
f 966 17 16
f 921 79 967
f 922 48 968
f 229 228 923
f 961 52 924
f 254 247 986
f 36 964 37
f 350 307 308
f 299 1095 266
f 308 1095 349
f 712 349 1095
f 1095 352 712
f 251 683 252
f 370 712 369
f 370 350 349
f 826 939 1067
f 688 920 896
f 704 1057 688
f 963 679 962
f 964 813 1053
f 807 678 967
f 808 913 818
f 912 922 968
f 820 928 811
f 1089 390 391
f 692 682 830
f 300 830 698
f 830 300 692
f 716 940 356
f 1067 261 372
f 1088 1087 833
f 383 958 384
f 374 970 941
f 958 831 941
f 831 853 942
f 942 853 733
f 853 958 971
f 733 853 943
f 943 853 832
f 392 944 972
f 944 832 853
f 971 383 723
f 382 971 723
f 1069 854 780
f 409 410 780
f 855 972 684
f 972 855 392
f 250 855 684
f 855 249 819
f 357 855 834
f 935 834 824
f 819 834 855
f 824 834 934
f 934 834 713
f 713 834 933
f 933 834 823
f 823 1079 932
f 1079 823 834
f 358 932 1079
f 374 358 970
f 700 307 970
f 351 298 411
f 1068 376 375
f 1074 1088 367
f 379 378 854
f 780 1087 409
f 408 1073 1072
f 477 898 478
f 960 1075 898
f 462 1117 463
f 1058 1070 1117
f 460 1117 461
f 1117 460 1059
f 898 1060 1099
f 559 974 551
f 976 551 974
f 558 974 559
f 565 899 566
f 1029 567 566
f 554 1071 555
f 552 976 553
f 1071 553 976
f 750 990 858
f 585 989 584
f 588 977 583
f 977 588 1031
f 1031 1080 857
f 1030 900 858
f 587 988 585
f 752 993 861
f 593 992 592
f 596 978 591
f 978 596 1033
f 1033 1081 860
f 1032 901 861
f 595 991 593
f 755 996 864
f 601 995 600
f 863 604 1082
f 1034 902 864
f 603 994 601
f 758 999 866
f 997 998 608
f 607 612 759
f 1035 903 999
f 946 997 609
f 760 1002 869
f 617 1001 616
f 620 979 615
f 979 620 1037
f 1037 1083 868
f 1036 904 869
f 619 1000 617
f 763 1005 872
f 625 1004 624
f 628 980 623
f 980 628 1039
f 1039 1084 871
f 1038 905 872
f 627 1003 625
f 766 1008 875
f 633 1007 632
f 1119 1041 981
f 981 631 1119
f 1041 1085 874
f 1040 906 875
f 635 1006 633
f 1010 1012 879
f 1009 1011 640
f 644 982 639
f 982 644 1043
f 1042 907 1012
f 798 1010 877
f 950 1009 641
f 1014 1016 883
f 1013 1015 648
f 652 983 647
f 983 652 1045
f 1044 908 1016
f 800 1014 881
f 952 1013 649
f 1018 1020 887
f 1017 1019 656
f 660 984 655
f 984 660 1047
f 1046 909 1020
f 802 1018 885
f 954 1017 657
f 1022 1024 891
f 1021 1023 664
f 668 985 663
f 985 668 1049
f 1048 910 1024
f 804 1022 889
f 956 1021 665
f 893 1028 895
f 1025 1027 672
f 1050 911 895
f 806 1026 893
f 957 1025 673
f 377 385 720
f 80 1061 81
f 818 23 921
f 828 396 397
f 783 1062 784
f 786 1066 973
f 987 708 301
f 408 389 1073
f 1061 80 921
f 847 715 939
f 218 923 961
f 334 333 702
f 678 921 967
f 209 208 969
f 228 969 208
f 940 338 356
f 715 198 939
f 1065 440 784
f 440 1065 441
f 441 1065 442
f 1065 782 783
f 743 1066 744
f 788 546 545
f 1114 1112 749
f 670 892 778
f 827 825 938
f 1066 743 785
f 683 251 684
f 355 353 389
f 250 251 249
f 321 322 843
f 922 912 807
f 682 193 830
f 1079 819 248
f 464 1070 465
f 463 1070 464
f 1059 1070 1058
f 974 1111 976
f 892 670 894
f 266 1095 308
f 1067 145 144
f 249 252 819
f 636 1093 1072
f 299 351 1095
f 788 545 787
f 987 693 814
f 407 1072 1093
f 388 1074 366
f 636 1087 1088
f 465 1070 457
f 297 266 265
f 700 701 291
f 308 349 350
f 1095 711 352
f 266 1094 683
f 688 896 704
f 830 193 235
f 193 682 194
f 366 1074 367
f 1090 1089 1093
f 1072 1073 852
f 479 1075 480
f 481 480 1075
f 461 1117 462
f 1058 1099 1105
f 975 1111 1107
f 555 1071 556
f 1076 1029 1086
f 589 1031 588
f 597 1033 596
f 757 1082 604
f 621 1037 620
f 629 1039 628
f 637 1041 1119
f 677 1051 676
f 251 250 684
f 291 308 700
f 196 192 814
f 291 266 308
f 1094 694 253
f 1073 1089 1090
f 1073 390 1089
f 390 1073 353
f 389 353 1073
f 698 235 234
f 403 1077 404
f 404 1101 405
f 1077 1101 404
f 1077 403 1068
f 376 1068 402
f 780 854 1101
f 409 1087 636
f 1075 479 898
f 1070 463 1117
f 1099 1060 1105
f 160 267 161
f 267 1056 161
f 267 160 1053
f 845 1078 936
f 1078 845 293
f 50 84 51
f 84 50 85
f 1112 1106 747
f 842 1100 1115
f 1078 714 936
f 825 827 936
f 408 417 414
f 1100 1104 1063
f 751 1080 1031
f 754 1081 1033
f 793 1035 612
f 762 1083 1037
f 765 1084 1039
f 768 1085 1041
f 307 700 308
f 899 1086 1029
f 814 691 987
f 695 1094 253
f 353 231 354
f 357 834 935
f 367 375 368
f 1051 805 1092
f 391 407 1089
f 940 1064 692
f 1096 1104 1116
f 226 270 1053
f 975 1086 1109
f 894 671 676
f 394 317 316
f 399 312 311
f 1088 1093 636
f 266 683 265
f 1074 388 1090
f 235 698 830
f 1068 375 833
f 375 367 833
f 1093 1088 1074
f 1101 1087 780
f 387 375 376
f 275 274 231
f 317 393 318
f 699 236 693
f 744 1091 743
f 1114 787 747
f 699 234 236
f 855 250 249
f 249 251 252
f 1092 777 892
f 709 316 317
f 940 706 338
f 777 1092 805
f 266 291 1094
f 1099 960 898
f 841 1112 1108
f 1087 1077 833
f 1068 833 1077
f 962 83 82
f 707 987 301
f 1094 254 694
f 1094 695 252
f 846 359 371
f 852 1073 1090
f 1090 1093 1074
f 280 843 320
f 320 311 697
f 1086 899 1107
f 1051 1092 894
f 395 394 315
f 394 316 315
f 1089 407 1093
f 369 387 370
f 966 1052 18
f 958 970 307
f 230 817 844
f 1099 1058 1098
f 960 1098 1105
f 1109 1086 1111
f 388 852 1090
f 914 915 924
f 395 315 314
f 395 314 396
f 1111 974 1109
f 386 370 387
f 1062 782 737
f 1110 788 1114
f 578 1113 842
f 1100 1103 1104
f 210 969 731
f 691 814 192
f 972 265 684
f 1106 1112 841
f 975 1107 1076
f 748 1108 1112
f 843 280 321
f 280 1064 321
f 899 1076 1107
f 645 1043 644
f 653 1045 652
f 661 1047 660
f 669 1049 668
f 1086 1107 1111
f 1071 1109 974
f 680 811 928
f 1102 1115 1113
f 79 94 87
f 829 731 227
f 16 17 24
f 162 154 169
f 396 314 313
f 396 313 397
f 41 39 40
f 88 86 87
f 18 30 31
f 39 41 38
f 38 42 37
f 35 45 34
f 34 46 33
f 55 57 58
f 86 88 89
f 84 85 90
f 82 92 81
f 81 93 80
f 118 126 125
f 128 124 127
f 124 128 123
f 123 129 122
f 161 163 160
f 160 164 159
f 159 165 166
f 156 168 155
f 156 167 168
f 157 166 167
f 577 1113 578
f 1103 1113 1063
f 121 132 120
f 268 269 927
f 927 269 331
f 231 232 966
f 712 370 349
f 385 721 307
f 50 62 49
f 968 228 207
f 944 853 972
f 1111 975 976
f 1102 1113 577
f 1076 1086 975
f 787 1114 788
f 842 1115 1102
f 789 1116 1104
f 1117 1098 1058
f 748 1112 1114
f 1043 797 878
f 1045 799 882
f 1047 801 886
f 1049 803 890
f 355 337 232
f 232 231 355
f 1117 1059 1098
f 55 48 56
f 40 32 47
f 749 1110 1114
f 1113 1103 842
f 210 209 969
f 1058 1105 1059
f 1105 1098 1059
f 894 676 1051
f 48 49 63
f 1115 1063 1113
f 1063 1115 1100
f 735 1097 310
f 353 355 231
f 80 94 79
f 378 406 1101
f 406 378 400
f 19 29 30
f 709 317 324
f 965 681 964
f 731 817 227
f 420 421 412
f 17 31 24
f 22 25 26
f 83 90 91
f 121 122 130
f 161 162 163
f 154 155 169
f 421 781 735
f 419 781 417
f 398 313 312
f 21 27 28
f 36 43 44
f 54 58 59
f 53 59 60
f 82 91 92
f 120 132 133
f 397 313 398
f 398 312 399
f 25 16 24
f 21 22 27
f 19 20 29
f 39 32 40
f 35 36 44
f 52 60 61
f 50 51 62
f 86 79 87
f 110 105 95
f 110 95 104
f 126 118 133
f 170 74 64
f 170 64 73
f 184 11 1
f 184 1 10
f 587 586 900
f 595 594 901
f 603 602 902
f 946 610 903
f 619 618 904
f 627 626 905
f 635 634 906
f 950 642 907
f 952 650 908
f 954 658 909
f 956 666 910
f 957 674 911
f 23 16 25
f 22 23 25
f 22 26 27
f 20 21 28
f 20 28 29
f 18 19 30
f 17 18 31
f 38 41 42
f 37 42 43
f 36 37 43
f 35 44 45
f 34 45 46
f 33 46 47
f 48 63 56
f 55 56 57
f 54 55 58
f 53 54 59
f 52 53 60
f 52 61 51
f 51 61 62
f 85 86 89
f 90 85 89
f 83 84 90
f 82 83 91
f 81 92 93
f 80 93 94
f 126 127 125
f 124 125 127
f 123 128 129
f 129 130 122
f 121 130 131
f 119 120 133
f 151 147 148
f 161 154 162
f 160 163 164
f 159 164 165
f 158 159 166
f 155 168 169
f 851 124 331
f 203 200 201
f 137 263 264
f 288 284 285
f 240 295 296
f 851 331 332
f 346 342 343
f 372 937 1067
f 406 405 1101
f 402 1068 403
f 402 393 376
f 419 413 781
f 421 735 412
f 52 1118 1120
f 1118 52 1121
f 636 1119 1122
f 1119 636 1123
f 33 568 1124
f 568 33 1125
f 21 523 1126
f 523 21 1127
f 133 548 1128
f 548 133 1129
f 86 477 1130
f 477 86 1131
f 159 578 1132
f 578 159 1133
f 1088 608 1134
f 608 1088 1135
f 1072 647 1136
f 647 1072 1137
f 833 602 1138
f 602 833 1139
f 1093 640 1140
f 640 1093 1141
f 1068 586 1142
f 586 1068 1143
f 780 596 1144
f 596 780 1145
f 1073 671 1146
f 671 1073 1147
f 1089 666 1148
f 666 1089 1149
f 1074 616 1150
f 616 1074 1151
f 630 629 1152
f 629 630 1153
f 652 655 1154
f 655 652 1155

