# https://github.com/mikedh/trimesh
v -0.20684000 0.36919801 -0.12540000
v -0.20116400 0.39922650 -0.19656350
v -0.20414687 0.35083263 -0.11327813
v -0.18271901 0.37804100 -0.21175800
v -0.17641350 0.36952575 -0.22391675
v -0.20455675 0.34042275 -0.10715275
v -0.20454200 0.33080801 -0.10370600
v -0.20671424 0.29756462 -0.09225662
v -0.20914100 0.28599399 -0.07913500
v -0.20964275 0.27729275 -0.07583500
v -0.20426299 0.30576750 -0.09603000
v -0.20368400 0.24255399 -0.09489600
v -0.18500090 0.32491702 -0.12775040
v -0.18591820 0.31404099 -0.12262963
v -0.18437099 0.30343224 -0.12180342
v -0.19009227 0.30244076 -0.11269460
v -0.19628542 0.29624165 -0.10060651
v -0.18934519 0.29401294 -0.11205438
v -0.19859192 0.29685647 -0.09724470
v -0.17571449 0.31910733 -0.13821692
v -0.17714899 0.29297250 -0.12771100
v -0.18943293 0.33501662 -0.12558996
v -0.19989180 0.31190263 -0.10010788
v -0.20094776 0.28446047 -0.09193739
v -0.18826020 0.28248721 -0.11248254
v -0.20705784 0.28413986 -0.08060717
v -0.20291500 0.27805501 -0.08750400
v -0.17738513 0.30757612 -0.13201762
v -0.19939661 0.33692557 -0.11095779
v -0.20231049 0.28682479 -0.09080058
v -0.18927876 0.27040353 -0.11070822
v -0.20647318 0.27600104 -0.08006779
v -0.16414374 0.33058893 -0.15989084
v -0.17733266 0.33602444 -0.14448644
v -0.20318774 0.28332655 -0.08818833
v -0.19957170 0.27590586 -0.09380077
v -0.19503062 0.25805700 -0.10370650
v -0.20817848 0.27929446 -0.07686714
v -0.19964765 0.25570167 -0.09835883
v -0.19872502 0.25200419 -0.10031089
v -0.20372965 0.25983329 -0.09029184
v -0.15905666 0.32353636 -0.16159545
v -0.16299849 0.31737825 -0.15261525
v -0.17125753 0.30500368 -0.13762637
v -0.16664979 0.31357811 -0.14678577
v -0.18464485 0.34339618 -0.13789193
v -0.20112292 0.30630569 -0.09705886
v -0.15433528 0.33030165 -0.17682696
v -0.19527590 0.35434391 -0.12966487
v -0.16036243 0.32037975 -0.15750781
v -0.16161031 0.33812589 -0.17275751
v -0.17475562 0.34166696 -0.15302890
v -0.18202467 0.34854523 -0.14949079
v -0.17426419 0.34382109 -0.15701828
v -0.18961761 0.36639561 -0.16759159
v -0.16996829 0.35497484 -0.18771887
v -0.18906575 0.37394276 -0.18016252
v -0.17925424 0.36285779 -0.18205763
v -0.18325525 0.37011027 -0.18608203
v -0.18032966 0.37047496 -0.19486471
v -0.18933258 0.36172650 -0.15910461
v -0.18329116 0.37623550 -0.19978527
v -0.16160470 0.34209206 -0.18144740
v -0.17479384 0.36276542 -0.19317482
v -0.15173200 0.33048051 -0.18216350
v -0.16301407 0.34893476 -0.19668420
v -0.17294911 0.36318732 -0.20156440
v -0.15670751 0.34124478 -0.19907718
v -0.15171317 0.33361111 -0.19198566
v -0.17919739 0.37247457 -0.20587234
v -0.16728184 0.35766346 -0.21404636
v -0.15041093 0.33540709 -0.20738194
v -0.16108808 0.34883306 -0.21082298
v -0.15757546 0.34430368 -0.21163479
v -0.15468205 0.34062134 -0.22772458
v -0.16353162 0.35255658 -0.22070951
v -0.14976432 0.33549854 -0.21897252
v -0.16032323 0.34719758 -0.23120568
v -0.16058099 0.34653199 -0.23642200
v -0.15278300 0.33769526 -0.23413450
v -0.14926425 0.33274700 -0.19747124
v -0.14940991 0.33405375 -0.20391981
v -0.14791950 0.33419350 -0.22113850
v -0.14950251 0.33523550 -0.22609400
v -0.14763100 0.33374500 -0.21312900
v -0.14789900 0.33335799 -0.20621400
f 25 31 21
f 36 31 25
f 36 41 31
f 36 32 41
f 38 41 32
f 10 41 38
f 10 12 41
f 39 41 12
f 40 39 12
f 39 40 37
f 31 39 37
f 27 32 36
f 35 27 36
f 35 36 24
f 30 35 24
f 35 30 26
f 26 38 35
f 38 32 35
f 9 38 26
f 8 9 26
f 8 26 30
f 30 24 25
f 19 30 25
f 19 23 30
f 23 47 30
f 6 47 23
f 7 47 6
f 7 11 47
f 11 8 47
f 30 47 8
f 29 6 23
f 29 23 13
f 29 13 22
f 22 46 29
f 49 29 46
f 53 49 46
f 1 49 53
f 1 53 61
f 53 55 61
f 61 55 2
f 2 55 57
f 57 55 58
f 58 59 57
f 58 56 59
f 56 64 59
f 59 64 60
f 60 64 67
f 67 70 60
f 70 67 71
f 4 70 71
f 4 71 5
f 71 76 5
f 73 76 71
f 73 75 76
f 76 75 78
f 78 75 80
f 80 79 78
f 78 79 5
f 84 80 75
f 77 84 75
f 83 84 77
f 82 83 77
f 85 83 82
f 86 85 82
f 86 82 81
f 69 81 82
f 69 82 68
f 68 82 72
f 72 73 68
f 73 72 74
f 74 77 73
f 74 72 77
f 56 69 68
f 56 65 69
f 63 65 56
f 63 51 65
f 65 51 48
f 52 48 51
f 52 51 54
f 52 54 53
f 53 54 56
f 51 56 54
f 33 48 52
f 34 33 52
f 46 34 52
f 46 20 34
f 20 45 34
f 20 44 45
f 44 20 28
f 44 28 21
f 13 21 28
f 13 15 21
f 14 15 13
f 14 16 15
f 16 21 15
f 21 16 18
f 16 17 18
f 17 25 18
f 23 17 16
f 13 16 14
f 13 28 20
f 34 45 33
f 33 45 43
f 43 42 33
f 50 42 43
f 42 48 33
f 51 63 56
f 66 56 68
f 67 66 68
f 56 66 67
f 81 69 65
f 82 77 72
f 73 77 75
f 68 73 71
f 76 78 5
f 4 2 70
f 62 70 2
f 60 62 2
f 67 68 71
f 62 60 70
f 2 59 60
f 64 56 67
f 53 56 58
f 2 57 59
f 53 58 55
f 61 2 1
f 1 3 49
f 3 6 49
f 46 52 53
f 20 46 22
f 22 13 20
f 13 23 16
f 49 6 29
f 23 19 17
f 19 25 17
f 35 32 27
f 41 39 31
f 24 36 25
f 18 25 21

