# https://github.com/mikedh/trimesh
v -0.28959049 -0.18355325 -0.13327950
v -0.28739099 -0.15670500 -0.11833050
v -0.26417137 -0.09739525 -0.08660725
v -0.26133250 -0.10768225 -0.08677425
v -0.26854101 -0.13895901 -0.11891800
v -0.24825101 -0.16846199 -0.11432200
v -0.25064200 -0.16635500 -0.11515200
v -0.25641099 -0.15679300 -0.11612600
v -0.25468600 -0.15567050 -0.11368350
v -0.25834301 -0.16301700 -0.11682900
v -0.28020301 -0.16230450 -0.11651850
v -0.27360951 -0.17037800 -0.11481550
v -0.26703527 -0.11933385 -0.09718860
v -0.25807557 -0.13788184 -0.09803307
v -0.26264327 -0.13398583 -0.10102312
v -0.25004225 -0.14733325 -0.09542200
v -0.26274889 -0.12912597 -0.09779322
v -0.26202199 -0.09865500 -0.08148700
v -0.25187200 -0.14878599 -0.09861000
v -0.24459700 -0.15696600 -0.09555800
v -0.23542650 -0.16976949 -0.09333800
v -0.24834400 -0.15188099 -0.09640200
v -0.26780269 -0.11187986 -0.09417959
v -0.25304651 -0.14970300 -0.10186575
v -0.26824790 -0.12394555 -0.10267192
v -0.26369748 -0.10030314 -0.08415972
v -0.25709801 -0.15096188 -0.11267513
v -0.26295659 -0.14382681 -0.11559094
v -0.26878723 -0.13412690 -0.11698109
v -0.25693750 -0.14782588 -0.10775450
v -0.26959934 -0.11557431 -0.10033780
v -0.27109000 -0.12616950 -0.11621675
v -0.26934980 -0.10832019 -0.09749597
v -0.25484931 -0.10034908 -0.07440472
v -0.25942524 -0.10149781 -0.08079427
v -0.25422600 -0.09941900 -0.07181200
v -0.24973550 -0.10524200 -0.07661450
v -0.25918838 -0.10520418 -0.08382627
v -0.25406900 -0.13706601 -0.09487500
v -0.25116599 -0.10779800 -0.08196800
v -0.26912349 -0.10535825 -0.09796047
v -0.25157149 -0.11006700 -0.08477500
v -0.26402294 -0.11446232 -0.09215443
v -0.27163175 -0.11151975 -0.11344875
v -0.26821728 -0.10300158 -0.09458749
v -0.26076089 -0.12658938 -0.09549968
v -0.26685950 -0.09904500 -0.09447350
v -0.26132053 -0.11384139 -0.09083401
v -0.25569551 -0.13074000 -0.09471600
v -0.24909100 -0.11991700 -0.09119400
v -0.25714800 -0.11785450 -0.09202050
v -0.11949800 -0.31586937 0.02829450
v -0.09995900 -0.32030901 0.04156600
v -0.09761000 -0.32080999 0.04337300
v -0.09332400 -0.32000101 0.04734300
v -0.09606300 -0.32811099 0.05614800
v -0.12082900 -0.31454501 0.01897900
v -0.12238850 -0.30349450 0.00915600
v -0.12469600 -0.29416499 0.00061600
v -0.13343801 -0.28405800 -0.01305800
v -0.12778488 -0.28327987 -0.00851400
v -0.29382150 -0.16872900 -0.12972849
v -0.28857499 -0.15984300 -0.12028600
v -0.12768200 -0.33093399 0.02728000
v -0.13395240 -0.32846789 0.01894631
v -0.12191980 -0.32918160 0.02965075
v -0.11399176 -0.33351815 0.04306702
v -0.10948338 -0.32735186 0.03874676
v -0.10602213 -0.32529456 0.03929235
v -0.14400331 -0.31701160 -0.00043111
v -0.13060627 -0.32410306 0.01716035
v -0.10521147 -0.32290285 0.03750836
v -0.12021281 -0.32196548 0.02376228
v -0.11638351 -0.32068810 0.02602175
v -0.14164123 -0.32304830 0.00759110
v -0.14905423 -0.31034872 -0.00931711
v -0.14087928 -0.31074478 -0.00341024
v -0.11481723 -0.32160955 0.02812997
v -0.14954987 -0.30183219 -0.01630721
v -0.13642677 -0.30164780 -0.00638722
v -0.14510002 -0.29427807 -0.01757618
v -0.13925921 -0.29533907 -0.01252821
v -0.09935061 -0.32863403 0.05208617
v -0.10556948 -0.33251016 0.05078789
v -0.13398225 -0.29292546 -0.00906767
v -0.14501587 -0.29027160 -0.01997822
v -0.14106700 -0.28280601 -0.02014000
v -0.13466001 -0.27774599 -0.01686800
v -0.14510037 -0.28346022 -0.02293357
v -0.14075500 -0.27904701 -0.02135700
v -0.15084750 -0.27799550 -0.02890200
v -0.15586274 -0.28479781 -0.02921549
v -0.15458173 -0.29846285 -0.02131590
v -0.16080317 -0.27586153 -0.03517112
v -0.16037173 -0.30065993 -0.02201973
v -0.15302905 -0.31768110 -0.00414122
v -0.16113152 -0.28562275 -0.03130765
v -0.15715601 -0.27044100 -0.03493700
v -0.15986501 -0.26672900 -0.03728600
v -0.16269200 -0.26144201 -0.04000700
v -0.16590300 -0.25802001 -0.04232100
v -0.16747296 -0.26531518 -0.04129527
v -0.17527140 -0.29439124 -0.03270209
v -0.17464736 -0.29829633 -0.03100810
v -0.16668846 -0.30763779 -0.01928225
v -0.16842773 -0.31025866 -0.01992202
v -0.15290602 -0.33088331 0.01008165
v -0.14891775 -0.33350281 0.01712877
v -0.16004670 -0.31756255 -0.00724019
v -0.13871627 -0.34258536 0.03706908
v -0.13312050 -0.34250150 0.04396250
v -0.13530000 -0.34529600 0.04354700
v -0.15286073 -0.32589326 0.00574199
v -0.17679787 -0.28408211 -0.03687804
v -0.17071520 -0.29331321 -0.02971126
v -0.17401310 -0.29059586 -0.03244092
v -0.17851382 -0.27575568 -0.04084783
v -0.18250894 -0.27774289 -0.04463876
v -0.17018738 -0.26221920 -0.04295321
v -0.18132362 -0.26563674 -0.04501019
v -0.16811900 -0.25627500 -0.04362200
v -0.16100259 -0.32166726 -0.00599639
v -0.18806873 -0.24048532 -0.05389274
v -0.19163325 -0.22890025 -0.05817975
v -0.18764700 -0.23047000 -0.05565600
v -0.17577699 -0.24357800 -0.04902250
v -0.18366710 -0.25830833 -0.04795282
v -0.17621896 -0.25339806 -0.04694932
v -0.18276797 -0.23788811 -0.05242173
v -0.18066099 -0.23479301 -0.05232500
v -0.14600754 -0.34006370 0.02489749
v -0.17610200 -0.24076800 -0.04968100
v -0.17789900 -0.28827000 -0.03743600
v -0.17201533 -0.30470417 -0.02630285
v -0.18129411 -0.27468811 -0.04348257
v -0.16041123 -0.32484585 -0.00438136
v -0.15760794 -0.32904162 0.00132855
v -0.10861842 -0.32288764 0.03426257
v -0.16806796 -0.31523716 -0.01875439
v -0.18504165 -0.27081742 -0.04869523
v -0.19598350 -0.22286700 -0.06284100
v -0.17719684 -0.29834931 -0.03751499
v -0.12110989 -0.33452911 0.03789366
v -0.14407840 -0.33228651 0.01890138
v -0.18085355 -0.28666573 -0.04364810
v -0.14826586 -0.34107504 0.01981750
v -0.15507641 -0.33190993 0.00648946
v -0.19852824 -0.21742625 -0.06576400
v -0.14038437 -0.33808897 0.03076617
v -0.14111931 -0.33604709 0.02701592
v -0.19430315 -0.23577555 -0.06130522
v -0.10852500 -0.33477375 0.05288000
v -0.19400711 -0.22935006 -0.05996916
v -0.20128500 -0.21090500 -0.06826100
v -0.20435700 -0.20662050 -0.07112275
v -0.18823068 -0.26226476 -0.05431335
v -0.18908923 -0.25239908 -0.05334575
v -0.17114301 -0.30903759 -0.02471144
v -0.17539860 -0.30189361 -0.03413217
v -0.19942261 -0.22376859 -0.07019444
v -0.20462318 -0.21075979 -0.07366801
v -0.21450975 -0.19500550 -0.08086325
v -0.21053603 -0.20077515 -0.07799957
v -0.15132872 -0.33820416 0.01351617
v -0.19467896 -0.23912412 -0.06393258
v -0.19763307 -0.22779972 -0.06706615
v -0.16191633 -0.32586148 -0.00818425
v -0.20527318 -0.21160138 -0.07638845
v -0.15019800 -0.34426800 0.00390400
v -0.14433750 -0.34314599 0.02773550
v -0.16400151 -0.32275739 -0.01240641
v -0.18383353 -0.27741107 -0.05012044
v -0.19227501 -0.24853993 -0.06402516
v -0.15420332 -0.33713309 0.00422102
v -0.20140401 -0.22010300 -0.07409600
v -0.14696200 -0.34516901 0.01730600
v -0.21271545 -0.20374159 -0.09059550
v -0.19845837 -0.23216028 -0.09243995
v -0.22354725 -0.18623002 -0.09036277
v -0.21788473 -0.20171524 -0.10086582
v -0.24181729 -0.17862621 -0.11243064
v -0.17848467 -0.27507584 -0.07592465
v -0.22601542 -0.18951465 -0.10325271
v -0.17670384 -0.28093896 -0.07502502
v -0.20519395 -0.22108296 -0.09579971
v -0.25207401 -0.15766478 -0.11207694
v -0.19387143 -0.24095558 -0.09041525
v -0.24243401 -0.16120450 -0.09634750
v -0.24107441 -0.16548376 -0.10018129
v -0.24788000 -0.15418200 -0.09787800
v -0.14925800 -0.34469900 0.00824300
v -0.14635850 -0.34806300 0.01281350
v -0.17460990 -0.28732507 -0.07221278
v -0.15532900 -0.33669099 -0.00133100
v -0.19614676 -0.23361394 -0.08419052
v -0.19777074 -0.23005095 -0.07342378
v -0.16926476 -0.30203787 -0.06505493
v -0.18511400 -0.25872901 -0.07892300
v -0.16216999 -0.32690001 -0.01318700
v -0.17174211 -0.31065194 -0.03301305
v -0.16429442 -0.31353922 -0.05790442
v -0.18656355 -0.26738790 -0.05895044
v -0.18584026 -0.25673614 -0.08231331
v -0.19265805 -0.24354979 -0.07279091
v -0.17385387 -0.30583893 -0.03627893
v -0.16266040 -0.31727941 -0.05407776
v -0.16870320 -0.30274899 -0.06055310
v -0.16648996 -0.30803689 -0.06120492
v -0.17506698 -0.28458952 -0.07277410
v -0.16869600 -0.31625199 -0.02804200
v -0.18858050 -0.25197684 -0.07549889
v -0.18044690 -0.28545935 -0.05151652
v -0.17009445 -0.31106000 -0.04031901
v -0.17692230 -0.29287160 -0.05116522
v -0.17412430 -0.28925566 -0.06542045
v -0.15587200 -0.33332199 -0.03871900
v -0.16688142 -0.31564754 -0.04218875
v -0.16146313 -0.32170755 -0.04736978
v -0.15821205 -0.32841974 -0.04258442
v -0.17530624 -0.28400081 -0.06999879
v -0.19035903 -0.32530730 -0.07717519
v -0.19292321 -0.31870513 -0.07930889
v -0.19952727 -0.30598127 -0.08610498
v -0.19119450 -0.29236935 -0.07754431
v -0.17983895 -0.31589891 -0.06541257
v -0.18719343 -0.33182614 -0.07299051
v -0.17734688 -0.32639157 -0.06206733
v -0.19764401 -0.30994369 -0.08447479
v -0.19510171 -0.31083541 -0.08100210
v -0.20351071 -0.29691176 -0.08913260
v -0.19874699 -0.28164300 -0.08370600
v -0.21150057 -0.28332212 -0.09544643
v -0.20334575 -0.30454349 -0.09175600
v -0.20528229 -0.27358599 -0.08876928
v -0.23003750 -0.25331200 -0.11055900
v -0.21337455 -0.25877508 -0.09356726
v -0.20609106 -0.26435733 -0.08855469
v -0.18785000 -0.29911900 -0.07451900
v -0.23718490 -0.24407248 -0.10982345
v -0.23867363 -0.22273992 -0.10515095
v -0.24858826 -0.20975549 -0.10862036
v -0.21999666 -0.23912044 -0.09563311
v -0.24683374 -0.23231835 -0.11464760
v -0.23042101 -0.22583200 -0.10041400
v -0.21364871 -0.25065656 -0.09269150
v -0.20851518 -0.25547384 -0.09009576
v -0.21119248 -0.25257765 -0.09145760
v -0.28369367 -0.16468609 -0.11786891
v -0.23215645 -0.21865942 -0.10114003
v -0.24947713 -0.20166137 -0.10739446
v -0.27185455 -0.17270314 -0.11414751
v -0.26500301 -0.18383722 -0.11221315
v -0.27786534 -0.16968602 -0.11583275
v -0.28527400 -0.16080500 -0.11793900
v -0.24231005 -0.20896928 -0.10478520
v -0.18633037 -0.29510428 -0.07473778
v -0.16976300 -0.32063538 -0.05905937
v -0.18463339 -0.30385688 -0.07149562
v -0.22402416 -0.23175997 -0.09767566
v -0.19828376 -0.27641280 -0.08350115
v -0.17270312 -0.29480529 -0.06942886
v -0.17839081 -0.27744553 -0.07729596
v -0.18644106 -0.26134315 -0.08497219
v -0.19587551 -0.24276362 -0.09187306
v -0.19322604 -0.24510106 -0.09033987
v -0.20778505 -0.22329444 -0.09823009
v -0.24569242 -0.20161512 -0.10641783
v -0.21373636 -0.24472214 -0.09317239
v -0.20209055 -0.26754667 -0.08633266
v -0.19491247 -0.25015680 -0.08982748
v -0.22811437 -0.19381647 -0.10733660
v -0.19693200 -0.24538604 -0.09143448
v -0.21233454 -0.24709112 -0.09256369
v -0.23015399 -0.20817900 -0.10383100
v -0.23627396 -0.21449577 -0.10257941
v -0.21870657 -0.22069729 -0.09955035
v -0.21039843 -0.24274316 -0.09323673
v -0.21933427 -0.20618732 -0.10359792
v -0.26033072 -0.18202302 -0.11155616
v -0.20962904 -0.21622921 -0.09879577
v -0.21272132 -0.21469616 -0.10057018
v -0.20498800 -0.22465301 -0.09677400
v -0.23237897 -0.18746342 -0.10891081
v -0.19732180 -0.23626769 -0.09262794
v -0.22490919 -0.19648166 -0.10588628
v -0.20288524 -0.22855748 -0.09603126
v -0.18827177 -0.25468986 -0.08685947
v -0.18339603 -0.26550120 -0.08278973
v -0.22078683 -0.20041838 -0.10362146
v -0.17989109 -0.27370064 -0.07908970
v -0.19097735 -0.24971187 -0.08894759
v -0.21941554 -0.26973213 -0.10050945
v -0.22939750 -0.25527700 -0.10691950
v -0.25515801 -0.22323900 -0.11958200
v -0.26168200 -0.21575999 -0.12242500
v -0.26665979 -0.19102511 -0.11541025
v -0.27442767 -0.20136899 -0.12679846
v -0.28486850 -0.18931283 -0.13058441
v -0.27338684 -0.17945604 -0.11575165
v -0.23523700 -0.24743850 -0.11002200
v -0.24151075 -0.23943575 -0.11306000
v -0.20885422 -0.28831296 -0.09406267
v -0.19443015 -0.31642647 -0.08220473
v -0.18305600 -0.34608300 -0.07080250
v -0.18216453 -0.34170289 -0.06899209
v -0.18290000 -0.33855900 -0.06773600
v -0.17858196 -0.34888104 -0.06405196
v -0.20620613 -0.29278126 -0.09358489
v -0.19177517 -0.32174886 -0.07965123
v -0.23362750 -0.26218801 -0.11334300
v -0.21475726 -0.28715176 -0.10049650
v -0.21591890 -0.28292118 -0.10095562
v -0.18051856 -0.16699656 -0.06958487
v -0.21135437 -0.14892187 -0.07936488
v -0.24356075 -0.12220575 -0.08957775
v -0.10693300 -0.29424399 -0.00038700
v -0.16523900 -0.17993500 -0.07020000
v -0.16487750 -0.17694150 -0.06925550
v -0.17207700 -0.18431699 -0.07188000
v -0.16922401 -0.17353700 -0.06898200
v -0.18632700 -0.16582599 -0.07179700
v -0.19441250 -0.16174000 -0.07408250
v -0.23050386 -0.13779866 -0.08895994
v -0.20774983 -0.15816324 -0.08123467
v -0.21354391 -0.16077747 -0.08514863
v -0.23619619 -0.13818861 -0.09244234
v -0.23720159 -0.13077641 -0.09045391
v -0.20368373 -0.16488767 -0.08077543
v -0.19336268 -0.16748303 -0.07625918
v -0.23232861 -0.14122760 -0.09117566
v -0.24530969 -0.12874976 -0.09350588
v -0.24414099 -0.12502645 -0.09155903
v -0.18607841 -0.17503302 -0.07479380
v -0.17908134 -0.17250741 -0.07163618
v -0.22409823 -0.15333373 -0.08902262
v -0.21263671 -0.16704333 -0.08460227
v -0.20771375 -0.17007355 -0.08272739
v -0.19412548 -0.17973573 -0.07729256
v -0.17590897 -0.18243830 -0.07260879
v -0.17639184 -0.17923000 -0.07263618
v -0.24248160 -0.13633456 -0.09359972
v -0.23345500 -0.16316899 -0.08785650
v -0.22256400 -0.17601900 -0.08210400
v -0.23029446 -0.16552931 -0.08645879
v -0.22428031 -0.16900959 -0.08390949
v -0.22543800 -0.17361649 -0.08370900
v -0.23606983 -0.15329866 -0.09016285
v -0.19396202 -0.18591630 -0.07542639
v -0.22042701 -0.17970701 -0.08089000
v -0.17331660 -0.19274446 -0.07104002
v -0.21391275 -0.18595400 -0.07676075
v -0.22551361 -0.16151649 -0.08687425
v -0.21788807 -0.17985780 -0.07950664
v -0.20211934 -0.17760018 -0.07958725
v -0.16244608 -0.20263504 -0.06926230
v -0.20534575 -0.19381775 -0.07080500
v -0.23538132 -0.15741572 -0.08888888
v -0.19037325 -0.20917774 -0.05974450
v -0.19366650 -0.20544949 -0.06215650
v -0.18139500 -0.21650801 -0.05434000
v -0.18800201 -0.21198399 -0.05800700
v -0.16975075 -0.22769675 -0.04757600
v -0.17279200 -0.22534500 -0.04916700
v -0.16613901 -0.23151850 -0.04551800
v -0.18238676 -0.19039085 -0.07236482
v -0.18489916 -0.19433638 -0.07066532
v -0.21024155 -0.17537808 -0.08110691
v -0.19773514 -0.18257169 -0.07713244
v -0.15896299 -0.24009600 -0.04101900
v -0.15513267 -0.23976308 -0.04014786
v -0.21853120 -0.17560649 -0.08098292
v -0.15092375 -0.24837025 -0.03577175
v -0.21266134 -0.18282483 -0.07692596
v -0.15619700 -0.24332299 -0.03916550
v -0.18349790 -0.21143426 -0.05648339
v -0.14644800 -0.25422349 -0.03217600
v -0.13649499 -0.26949900 -0.02151000
v -0.14674712 -0.24938109 -0.03456879
v -0.16223128 -0.23101666 -0.04485105
v -0.18154352 -0.19946869 -0.06796025
v -0.13984046 -0.25990717 -0.02767030
v -0.17723312 -0.20013250 -0.06823255
v -0.13345916 -0.27050548 -0.01943184
v -0.20427426 -0.19047270 -0.07151500
v -0.19611187 -0.19932356 -0.06515206
v -0.17079430 -0.21950927 -0.05160762
v -0.20024542 -0.19520422 -0.06820765
v -0.16489667 -0.22824326 -0.04643233
v -0.19178707 -0.19584804 -0.06842381
v -0.18505953 -0.20902451 -0.05772677
v -0.15683639 -0.20543094 -0.06943635
v -0.15843840 -0.21374785 -0.06591342
v -0.12628462 -0.27894758 -0.01098324
v -0.18408297 -0.20115545 -0.06563106
v -0.18063441 -0.21201801 -0.05561107
v -0.12971100 -0.26888901 -0.02090000
v -0.14211671 -0.25210555 -0.03339672
v -0.15862076 -0.19913750 -0.07055450
v -0.17167525 -0.21322150 -0.05868569
v -0.16962452 -0.20877357 -0.06465324
v -0.13731000 -0.25730401 -0.03036900
v -0.12464700 -0.27523100 -0.01537500
v -0.15105900 -0.22476725 -0.06296675
v -0.14675766 -0.22134525 -0.06758074
v -0.15896000 -0.23015900 -0.04645800
v -0.16521050 -0.22299400 -0.05072900
v -0.14774275 -0.21305999 -0.07022825
v -0.14677780 -0.22494157 -0.06557452
v -0.13605050 -0.23311600 -0.06920900
v -0.13214700 -0.22965199 -0.07362450
v -0.13521400 -0.22465050 -0.07322800
v -0.22505714 -0.17803213 -0.08470733
v -0.21759517 -0.18974819 -0.08182115
v -0.21420884 -0.18884016 -0.07743545
v -0.20155669 -0.20389254 -0.06756396
v -0.19294794 -0.21206761 -0.06066124
v -0.19319853 -0.22225372 -0.06002862
v -0.18441182 -0.22100696 -0.05537858
v -0.17384368 -0.23706403 -0.04922282
v -0.16436598 -0.25080884 -0.04295653
v -0.15625182 -0.25459316 -0.03794035
v -0.15394014 -0.26632915 -0.03424391
v -0.14007416 -0.26420700 -0.02569323
v -0.14569631 -0.27287878 -0.02721024
f 47 41 45
f 3 47 45
f 3 45 26
f 45 33 26
f 26 33 31
f 33 44 31
f 41 44 33
f 44 32 31
f 32 25 31
f 25 32 29
f 32 5 29
f 28 29 5
f 15 29 28
f 15 28 30
f 30 28 9
f 9 28 8
f 15 30 22
f 16 15 22
f 16 14 15
f 46 14 16
f 39 46 16
f 50 46 39
f 51 46 50
f 51 43 46
f 48 43 51
f 4 48 51
f 4 43 48
f 43 17 46
f 43 23 17
f 35 23 43
f 26 23 35
f 36 26 35
f 36 35 34
f 36 34 37
f 34 35 37
f 37 35 40
f 40 35 42
f 35 38 42
f 38 4 42
f 38 35 4
f 23 13 17
f 23 25 13
f 13 25 17
f 17 25 15
f 341 39 16
f 331 39 341
f 331 341 330
f 331 49 39
f 50 49 331
f 315 50 331
f 330 341 16
f 330 16 347
f 335 330 347
f 336 335 347
f 336 347 352
f 347 357 352
f 357 344 352
f 357 342 344
f 357 16 342
f 344 342 343
f 344 343 353
f 344 353 373
f 373 353 351
f 373 351 356
f 384 373 356
f 348 373 384
f 366 348 384
f 366 384 389
f 384 387 389
f 389 387 385
f 390 389 385
f 395 389 390
f 395 390 375
f 395 375 360
f 388 395 360
f 386 395 388
f 395 386 399
f 399 394 395
f 400 394 399
f 392 400 399
f 392 355 400
f 355 382 400
f 355 350 382
f 350 365 382
f 365 366 382
f 382 366 380
f 380 394 382
f 380 389 394
f 348 365 350
f 398 350 355
f 398 355 391
f 398 391 407
f 407 391 404
f 407 404 411
f 411 404 410
f 404 408 410
f 410 408 409
f 409 408 403
f 403 408 392
f 392 408 404
f 392 404 391
f 319 350 398
f 319 348 350
f 339 348 319
f 339 340 348
f 340 338 348
f 338 368 348
f 368 367 348
f 368 354 367
f 336 367 354
f 336 371 367
f 367 371 373
f 371 344 373
f 337 336 354
f 337 354 338
f 333 337 338
f 333 329 337
f 329 328 337
f 328 325 337
f 329 325 328
f 329 324 325
f 329 314 324
f 322 314 329
f 321 322 329
f 321 329 313
f 334 313 329
f 320 313 334
f 320 334 340
f 334 333 340
f 320 340 318
f 318 340 317
f 317 340 319
f 314 323 324
f 323 330 324
f 323 326 330
f 323 327 326
f 327 331 326
f 327 332 331
f 315 332 327
f 314 315 327
f 314 327 323
f 324 330 325
f 329 333 334
f 325 336 337
f 338 354 368
f 340 333 338
f 340 339 319
f 391 355 392
f 403 392 399
f 394 400 382
f 386 388 405
f 405 388 379
f 405 379 370
f 370 378 405
f 378 397 405
f 401 405 397
f 397 378 381
f 396 397 381
f 396 381 383
f 396 383 393
f 402 396 393
f 316 402 393
f 393 61 316
f 383 61 393
f 378 376 381
f 381 376 377
f 381 377 383
f 383 377 61
f 378 372 376
f 372 420 376
f 420 421 376
f 421 420 422
f 420 99 422
f 422 99 91
f 422 91 424
f 423 422 424
f 423 424 90
f 376 422 423
f 424 91 90
f 420 132 99
f 419 132 420
f 419 420 374
f 364 419 374
f 364 418 419
f 363 418 364
f 363 361 418
f 361 417 418
f 124 418 417
f 418 124 125
f 418 125 132
f 125 124 123
f 125 123 130
f 130 123 129
f 130 129 126
f 129 128 126
f 128 129 127
f 128 127 120
f 119 128 120
f 102 128 119
f 119 120 102
f 120 117 102
f 102 117 114
f 117 118 114
f 117 135 118
f 135 140 118
f 117 140 135
f 120 140 117
f 120 157 140
f 157 156 140
f 157 165 156
f 151 165 157
f 151 153 165
f 153 166 165
f 166 196 165
f 166 160 196
f 160 178 196
f 196 178 195
f 203 196 195
f 211 196 203
f 203 198 211
f 211 198 182
f 211 182 220
f 211 220 202
f 202 220 214
f 220 215 214
f 215 220 261
f 220 193 261
f 220 209 193
f 215 261 197
f 214 215 197
f 214 197 207
f 214 207 201
f 214 201 142
f 145 214 142
f 212 214 145
f 145 172 212
f 172 202 212
f 156 202 172
f 173 202 156
f 118 172 145
f 140 172 118
f 201 217 142
f 217 201 218
f 217 218 219
f 218 206 219
f 219 206 216
f 216 217 219
f 200 217 216
f 205 217 200
f 205 213 217
f 142 213 205
f 159 142 205
f 104 142 159
f 134 104 159
f 134 159 158
f 159 200 158
f 158 200 139
f 139 200 210
f 199 139 210
f 139 199 171
f 171 199 167
f 199 194 167
f 139 171 167
f 136 139 167
f 107 136 167
f 109 136 107
f 122 139 136
f 106 139 122
f 106 158 139
f 109 106 122
f 109 122 136
f 109 105 106
f 95 105 109
f 95 109 96
f 96 109 107
f 95 96 76
f 76 96 70
f 70 96 113
f 75 70 113
f 75 113 144
f 144 113 108
f 150 144 108
f 143 144 150
f 143 150 149
f 111 143 149
f 111 149 110
f 110 149 108
f 108 131 110
f 110 131 170
f 146 170 131
f 170 146 176
f 176 146 192
f 146 164 192
f 164 191 192
f 191 169 192
f 164 169 191
f 164 174 169
f 167 169 174
f 164 167 174
f 147 167 164
f 147 137 167
f 107 137 147
f 137 107 167
f 107 147 164
f 108 107 164
f 131 164 146
f 112 110 170
f 108 164 131
f 152 143 111
f 84 143 152
f 83 84 152
f 152 56 83
f 56 55 83
f 55 54 83
f 54 53 83
f 53 69 83
f 53 72 69
f 72 138 69
f 138 66 69
f 138 65 66
f 73 65 138
f 78 73 138
f 74 78 138
f 78 74 73
f 57 73 74
f 57 70 73
f 73 70 71
f 71 70 65
f 57 77 70
f 57 80 77
f 80 79 77
f 81 79 80
f 82 81 80
f 82 86 81
f 86 82 85
f 60 86 85
f 88 86 60
f 88 87 86
f 87 89 86
f 87 91 89
f 91 86 89
f 86 91 92
f 91 94 92
f 94 97 92
f 94 114 97
f 114 116 97
f 116 115 97
f 116 103 115
f 115 103 105
f 105 103 104
f 97 115 105
f 97 95 92
f 92 95 93
f 93 95 79
f 93 79 86
f 98 94 91
f 102 94 98
f 99 102 98
f 99 100 102
f 101 102 100
f 101 121 102
f 126 102 121
f 100 99 98
f 92 93 86
f 60 85 59
f 59 85 80
f 58 59 80
f 85 82 80
f 81 86 79
f 79 76 77
f 58 80 57
f 73 71 65
f 66 65 64
f 143 66 64
f 68 66 143
f 68 143 67
f 69 68 67
f 69 67 84
f 64 65 143
f 68 69 66
f 53 138 72
f 53 52 138
f 52 74 138
f 52 57 74
f 84 83 69
f 84 67 143
f 143 65 144
f 150 108 149
f 113 107 108
f 75 144 65
f 70 75 65
f 77 76 70
f 79 95 76
f 95 97 105
f 105 134 106
f 106 134 158
f 104 134 105
f 103 142 104
f 116 142 103
f 116 145 142
f 205 200 159
f 216 210 200
f 206 218 201
f 213 142 217
f 201 207 208
f 207 197 208
f 202 214 212
f 202 173 211
f 204 211 173
f 173 196 204
f 220 182 209
f 209 182 184
f 209 184 193
f 193 184 261
f 184 262 261
f 182 262 184
f 182 290 262
f 182 288 290
f 203 288 182
f 203 287 288
f 203 291 287
f 187 291 203
f 291 187 265
f 265 264 291
f 270 291 264
f 291 270 269
f 291 269 287
f 287 269 263
f 287 263 288
f 288 263 260
f 288 260 262
f 262 260 224
f 262 224 256
f 262 256 261
f 261 256 258
f 261 258 225
f 208 261 225
f 225 257 208
f 257 225 227
f 225 222 227
f 227 222 226
f 227 226 306
f 222 221 226
f 304 226 221
f 304 305 226
f 305 304 307
f 306 305 307
f 306 226 305
f 221 222 309
f 222 303 309
f 303 233 309
f 228 233 303
f 229 228 303
f 229 223 228
f 229 230 223
f 224 230 229
f 224 231 230
f 260 230 231
f 260 234 230
f 260 237 234
f 260 269 237
f 269 246 237
f 246 247 237
f 246 273 247
f 273 245 247
f 273 242 245
f 268 242 273
f 264 268 273
f 264 273 272
f 277 268 264
f 178 277 264
f 286 277 178
f 286 266 277
f 266 276 277
f 277 276 259
f 277 259 242
f 242 259 240
f 244 240 259
f 275 244 259
f 259 249 275
f 276 275 249
f 275 276 278
f 278 276 281
f 274 275 278
f 278 271 274
f 271 278 285
f 289 285 278
f 180 285 289
f 180 183 285
f 183 283 285
f 183 181 283
f 189 181 183
f 179 189 183
f 162 189 179
f 189 162 188
f 186 189 188
f 190 186 188
f 190 188 20
f 19 190 20
f 19 24 190
f 190 24 186
f 24 27 186
f 27 7 186
f 181 186 7
f 179 177 162
f 162 177 163
f 163 177 161
f 161 177 168
f 177 178 168
f 177 185 178
f 185 286 178
f 185 282 286
f 286 282 266
f 185 266 282
f 185 280 266
f 280 281 266
f 280 278 281
f 180 278 280
f 180 280 177
f 177 280 185
f 178 161 168
f 161 178 175
f 161 175 160
f 161 160 153
f 148 161 153
f 154 161 148
f 154 155 161
f 141 148 153
f 124 141 153
f 155 163 161
f 155 162 163
f 179 183 177
f 186 181 189
f 183 180 177
f 180 289 278
f 285 283 271
f 283 181 271
f 181 252 271
f 271 252 267
f 271 267 255
f 271 255 275
f 255 267 250
f 255 250 241
f 255 241 275
f 275 241 240
f 240 241 243
f 241 294 243
f 243 294 301
f 243 301 239
f 239 301 300
f 239 300 293
f 241 295 294
f 252 295 241
f 252 296 295
f 295 296 297
f 296 298 297
f 299 298 296
f 299 248 298
f 252 248 299
f 252 253 248
f 251 253 252
f 12 253 251
f 11 253 12
f 10 12 251
f 10 251 6
f 6 251 279
f 6 279 181
f 279 251 252
f 11 248 253
f 11 254 248
f 2 248 254
f 2 63 248
f 63 62 248
f 248 62 1
f 11 2 254
f 298 248 1
f 252 299 296
f 240 243 239
f 250 252 241
f 267 252 250
f 271 275 274
f 244 275 240
f 242 240 239
f 242 239 235
f 242 235 245
f 292 245 235
f 245 292 236
f 237 236 292
f 237 245 236
f 292 235 233
f 234 292 233
f 233 235 312
f 312 235 311
f 311 235 310
f 233 312 311
f 276 249 259
f 281 276 266
f 277 242 268
f 273 246 272
f 272 246 270
f 245 237 247
f 237 292 234
f 230 234 232
f 224 229 238
f 238 229 258
f 258 224 238
f 223 230 233
f 230 308 233
f 230 302 308
f 230 232 302
f 223 233 228
f 222 229 303
f 225 229 222
f 201 208 257
f 201 257 206
f 229 225 258
f 256 224 258
f 260 231 224
f 263 269 260
f 270 246 269
f 264 272 270
f 187 264 265
f 284 264 187
f 178 284 187
f 198 203 182
f 204 196 211
f 203 195 187
f 195 178 187
f 175 178 160
f 165 196 173
f 153 160 166
f 153 151 157
f 123 153 157
f 123 157 127
f 165 173 156
f 156 172 140
f 114 118 145
f 133 114 145
f 116 114 133
f 94 102 114
f 120 127 157
f 102 126 128
f 127 129 123
f 123 124 153
f 154 124 417
f 416 154 417
f 416 415 154
f 416 356 415
f 359 356 416
f 359 416 361
f 356 154 415
f 356 414 154
f 154 414 163
f 414 413 163
f 412 413 414
f 351 412 414
f 349 412 351
f 349 346 412
f 342 412 346
f 342 16 412
f 412 21 413
f 16 21 412
f 413 21 163
f 154 163 124
f 361 416 417
f 419 418 132
f 376 421 422
f 374 420 372
f 370 372 378
f 370 369 372
f 370 379 369
f 379 364 369
f 388 364 379
f 388 362 364
f 406 386 405
f 399 386 406
f 388 360 362
f 375 358 360
f 375 390 358
f 390 385 358
f 385 356 358
f 387 356 385
f 395 394 389
f 366 389 380
f 366 365 348
f 367 373 348
f 387 384 356
f 356 351 414
f 353 343 351
f 352 344 345
f 371 352 345
f 345 344 371
f 336 352 371
f 325 335 336
f 330 335 325
f 347 16 357
f 46 17 14
f 14 17 15
f 28 5 8
f 25 29 15
f 23 31 25
f 26 31 23
f 18 3 26
f 18 26 36
f 47 44 41
f 45 41 33

