# https://github.com/mikedh/trimesh
v 0.13096600 0.33152425 -0.24533875
v 0.10634375 0.33895313 -0.25283625
v 0.06940900 0.34491425 -0.26601425
v 0.01310125 0.34495675 -0.27802125
v -0.01971563 0.34069525 -0.28490588
v -0.06768300 0.33156612 -0.29246737
v -0.09871100 0.32513100 -0.29455999
v 0.13858151 0.33277650 -0.25437250
v 0.12961291 0.32885754 -0.26249198
v 0.11665908 0.33340088 -0.26474042
v 0.11016780 0.33374911 -0.27089800
v 0.10210881 0.33871453 -0.26136205
v 0.09015044 0.34035846 -0.26764507
v 0.08577964 0.34295177 -0.26172375
v 0.11436100 0.33224899 -0.27093601
v 0.10167000 0.33640301 -0.27024099
v 0.11755089 0.32936241 -0.27597575
v 0.13172147 0.32554181 -0.27178176
v 0.09391088 0.33697917 -0.27486059
v 0.12947261 0.33059594 -0.25460813
v 0.10606389 0.33225632 -0.27841753
v 0.08191080 0.33986046 -0.27429798
v 0.06775670 0.34409851 -0.26947658
v 0.07237200 0.34241900 -0.27196801
v 0.13591074 0.32040012 -0.28019574
v 0.11570409 0.32441633 -0.28781316
v 0.09038090 0.33492497 -0.28159249
v 0.10863640 0.32937756 -0.28293822
v 0.07403900 0.34002101 -0.27732500
v 0.03875807 0.34539992 -0.27483132
v 0.02922393 0.34351241 -0.28039959
v 0.08014788 0.33885145 -0.27793593
v 0.04786001 0.33951510 -0.28513989
v 0.05622895 0.33539901 -0.29077109
v 0.05818015 0.34165770 -0.27912046
v 0.07617169 0.33449485 -0.28774652
v 0.10535022 0.32637778 -0.29012041
v 0.13507789 0.31482154 -0.29044765
v 0.09406042 0.33081997 -0.28793549
v 0.08129271 0.33146264 -0.29099762
v 0.06672043 0.33469399 -0.28969101
v 0.02912100 0.34035099 -0.28584099
v 0.10718381 0.32224963 -0.29516111
v 0.03810761 0.33856302 -0.28809044
v 0.09614084 0.32698544 -0.29290504
v 0.06978587 0.32987361 -0.29597118
v 0.01212943 0.33857508 -0.28967076
v 0.13604779 0.32414411 -0.27276891
v -0.00234973 0.33956514 -0.28815956
v 0.03820720 0.33286181 -0.29596761
v 0.02427585 0.33509419 -0.29407255
v -0.01847713 0.33743542 -0.29063794
v 0.13838854 0.31805271 -0.28300811
v -0.03733295 0.33430000 -0.29353799
v -0.00690531 0.33576670 -0.29347165
v 0.12490459 0.31606468 -0.29452527
v 0.05250996 0.33159273 -0.29635139
v 0.11620564 0.31794711 -0.29646391
v -0.03113077 0.33280508 -0.29584519
v 0.13355323 0.32803308 -0.26322120
v 0.13287901 0.33061340 -0.25226899
v 0.01025836 0.33273226 -0.29714173
v -0.06702805 0.32801971 -0.29742726
v 0.14239800 0.31664601 -0.28461701
v 0.14413750 0.31127850 -0.29044475
v -0.01868592 0.33136052 -0.29816069
v 0.14103451 0.31257351 -0.28971267
v -0.07468914 0.32873953 -0.29529197
v 0.14079675 0.32205450 -0.27730500
v 0.08621021 0.32583485 -0.29722562
v 0.13540654 0.32972902 -0.25864791
v -0.09154706 0.32492512 -0.29666720
v 0.14361135 0.30598034 -0.29600948
v 0.10756840 0.31819727 -0.29899917
v 0.04897488 0.32814762 -0.29962650
v 0.14671700 0.30613300 -0.29498401
v -0.06698400 0.32486732 -0.29935218
v 0.06633800 0.32650301 -0.29959899
v -0.00117475 0.33011325 -0.29953675
v 0.07824925 0.32462100 -0.29957174
v -0.10873650 0.32043975 -0.29700550
v 0.11898400 0.31446099 -0.29863301
v 0.13918250 0.32983626 -0.26287050
f 77 81 72
f 72 81 7
f 7 6 72
f 68 72 6
f 68 63 72
f 6 63 68
f 54 63 6
f 54 59 63
f 66 63 59
f 66 77 63
f 79 77 66
f 62 79 66
f 75 79 62
f 50 75 62
f 57 75 50
f 57 78 75
f 46 78 57
f 46 80 78
f 70 80 46
f 70 74 80
f 70 43 74
f 58 74 43
f 58 82 74
f 73 82 58
f 56 73 58
f 38 73 56
f 67 73 38
f 65 73 67
f 65 76 73
f 64 65 67
f 64 67 69
f 69 67 48
f 69 48 83
f 83 48 71
f 8 83 71
f 8 71 1
f 71 48 60
f 61 71 60
f 1 71 61
f 61 20 1
f 61 9 20
f 20 9 10
f 20 10 2
f 10 12 2
f 10 11 12
f 11 13 12
f 11 16 13
f 13 16 19
f 19 22 13
f 19 32 22
f 22 32 29
f 29 32 35
f 32 36 35
f 36 41 35
f 36 46 41
f 41 46 34
f 40 46 36
f 39 46 40
f 36 39 40
f 39 36 27
f 19 39 27
f 19 21 39
f 21 28 39
f 28 37 39
f 37 45 39
f 45 70 39
f 37 43 45
f 26 43 37
f 38 43 26
f 25 38 26
f 53 38 25
f 48 53 25
f 18 25 26
f 17 18 26
f 17 26 28
f 10 18 17
f 10 17 15
f 15 17 11
f 17 21 11
f 60 25 18
f 60 18 9
f 26 37 28
f 17 28 21
f 11 21 19
f 35 41 34
f 35 34 33
f 35 33 31
f 35 31 30
f 3 35 30
f 23 35 3
f 24 35 23
f 24 22 35
f 22 24 23
f 3 22 23
f 30 31 4
f 31 49 4
f 31 47 49
f 47 55 49
f 49 55 52
f 55 59 52
f 52 5 49
f 52 54 5
f 51 55 47
f 51 62 55
f 44 51 47
f 50 51 44
f 42 44 47
f 44 42 31
f 42 47 31
f 4 49 5
f 33 44 31
f 34 44 33
f 34 57 44
f 27 36 32
f 22 29 35
f 32 19 27
f 13 22 3
f 14 13 3
f 2 13 14
f 16 11 19
f 10 15 11
f 12 13 2
f 9 18 10
f 1 20 2
f 60 9 61
f 48 25 60
f 67 38 53
f 38 56 43
f 43 56 58
f 43 70 45
f 39 70 46
f 46 57 34
f 57 50 44
f 50 62 51
f 55 62 66
f 55 66 59
f 54 52 59
f 5 54 6
f 63 77 72

