v -0.24694 0.131619 -0.109062
v -0.247244 0.118076 -0.103254
v -0.244528 0.127795 -0.0997713
v -0.244117 0.141409 -0.105234
v -0.240703 0.15097 -0.101384
v -0.242592 0.154929 -0.110681
v -0.238607 0.16454 -0.106802
v -0.245524 0.142524 -0.029425
v -0.236338 0.160126 -0.0978742
v -0.23214 0.154705 -0.0904824
v -0.237757 0.161804 -0.0849964
v -0.24337 0.168907 -0.0795056
v -0.249471 0.169407 -0.0648399
v -0.248758 0.176097 -0.0739515
v -0.24416 0.162636 -0.0706276
v -0.234164 0.142845 -0.0731251
v -0.239351 0.149562 -0.0673855
v -0.24428 0.149597 -0.0526685
v -0.242218 0.143104 -0.0439852
v -0.246548 0.149666 -0.0377951
v -0.232545 0.130827 -0.0564335
v -0.237482 0.136882 -0.0502027
v -0.227785 0.124369 -0.0624884
v -0.22958 0.130026 -0.0704702
v -0.229714 0.116177 -0.0663021
v -0.225726 0.110943 -0.0588558
v -0.220713 0.105956 -0.0516781
v -0.215262 0.101452 -0.0445104
v -0.203169 0.0931334 -0.0303315
v -0.209449 0.0971666 -0.0373078
v -0.21278 0.088236 -0.0400929
v -0.2158 0.0792607 -0.0431594
v -0.211287 0.0751645 -0.0353043
v -0.207625 0.0841199 -0.0325406
v -0.200702 0.0896882 -0.0209635
v -0.198017 0.0864532 -0.011404
v -0.195193 0.0832315 -0.00192628
v -0.18882 0.0919466 -0.000938595
v -0.191635 0.0947795 -0.0106386
v -0.248946 0.108238 -0.106796
v -0.247281 0.121446 -0.112532
v -0.244114 0.111484 -0.114395
v -0.241401 0.124272 -0.119975
v -0.238534 0.114497 -0.121886
v -0.243838 0.134507 -0.11754
v -0.245668 0.14506 -0.114722
v -0.185085 0.0891438 0.00820748
v -0.177827 0.0966496 0.00697627
v -0.181243 0.0994833 -0.00223681
v -0.244283 0.114234 -0.0947348
v -0.241532 0.137474 -0.0960934
v -0.230135 0.0504353 -0.0612307
v -0.230146 0.0273358 -0.0607573
v -0.225364 0.0226726 -0.0529495
v -0.202923 0.077322 -0.0136089
v -0.209443 0.0713813 -0.0259095
v -0.211842 0.0618717 -0.0296114
v -0.213937 0.0659767 -0.0388
v -0.21504 0.0569648 -0.0428963
v -0.213386 0.05236 -0.0336786
v -0.215112 0.0480274 -0.0475064
v -0.21848 0.0530013 -0.0555494
v -0.223194 0.0663495 -0.0586346
v -0.226878 0.0799221 -0.0620932
v -0.22931 0.0937029 -0.0660376
v -0.228975 0.0995214 -0.0750048
v -0.231047 0.107599 -0.070178
v -0.231984 0.121498 -0.0743728
v -0.230159 0.113352 -0.0790142
v -0.230483 0.127151 -0.0832638
v -0.23123 0.135437 -0.0783564
v -0.211489 0.0345274 -0.044155
v -0.20895 0.0296668 -0.0356645
v -0.21067 0.0383101 -0.0301412
v -0.21072 0.0476295 -0.0250017
v -0.208952 0.0575366 -0.0207678
v -0.213107 0.0432312 -0.0387704
v -0.206918 0.067385 -0.0168027
v -0.205659 0.0806379 -0.0230963
v -0.194406 0.0976616 -0.0203251
v -0.220335 0.0611597 -0.050444
v -0.218499 0.0701798 -0.0465846
v -0.224541 0.0746358 -0.0537012
v -0.226911 0.088373 -0.0578173
v -0.229141 0.102203 -0.0618369
v -0.221835 0.0836886 -0.050206
v -0.21875 0.0926531 -0.0471479
v -0.224285 0.0973636 -0.0543097
v -0.230253 0.124504 -0.0482162
v -0.231642 0.124649 -0.0340076
v -0.235379 0.130491 -0.041956
v -0.236883 0.130467 -0.0275739
v -0.221688 0.113127 -0.046972
v -0.226684 0.118896 -0.0404513
v -0.215608 0.108965 -0.0400401
v -0.220915 0.11439 -0.0332408
v -0.214362 0.11045 -0.0264202
v -0.219872 0.115599 -0.0196019
v -0.225382 0.120748 -0.0127837
v -0.230893 0.125897 -0.00596546
v -0.226491 0.119486 -0.0264783
v -0.199761 0.102279 -0.0277346
v -0.208618 0.10516 -0.0334467
v -0.205624 0.107641 -0.0206016
v -0.231885 0.124926 -0.0198714
v -0.23724 0.130428 -0.0132797
v -0.225284 0.118515 -0.0545135
v -0.24049 0.136479 -0.03568
v -0.242175 0.136199 -0.0210451
v -0.233864 0.136689 -0.0644254
v -0.23908 0.143144 -0.0585495
v -0.233515 0.148646 -0.0818159
v -0.238826 0.155703 -0.076228
v -0.244457 0.15607 -0.0615607
v -0.249712 0.162744 -0.0557842
v -0.216373 0.0132896 -0.0368088
v -0.245979 0.163882 -0.0407823
v -0.249003 0.15612 -0.046791
v -0.244136 0.157299 -0.0325079
v -0.24114 0.165241 -0.0267518
v -0.237786 0.173157 -0.0211551
v -0.243124 0.17179 -0.0348558
v -0.240865 0.179714 -0.0285276
v -0.233932 0.166537 -0.0140067
v -0.234586 0.152091 -0.0116574
v -0.239033 0.143953 -0.0162576
v -0.241602 0.150606 -0.0244911
v -0.22997 0.159904 -0.00703352
v -0.237814 0.158655 -0.0192636
v -0.236719 0.167816 -0.0936902
v -0.241652 0.175041 -0.0883237
v -0.234135 0.173782 -0.10285
v -0.237264 0.146618 -0.0928647
v -0.236966 0.132804 -0.0885193
v -0.236232 0.119136 -0.0840777
v -0.230932 0.14103 -0.0871885
v -0.235415 0.105304 -0.0801238
v -0.22693 0.0857637 -0.0709416
v -0.232888 0.0779222 -0.0709575
v -0.234144 0.0915533 -0.0757615
v -0.225519 0.0720513 -0.0663709
v -0.224463 0.0585802 -0.0612938
v -0.22348 0.0450614 -0.0556126
v -0.216542 0.0396865 -0.0505923
v -0.223049 0.0318045 -0.0491687
v -0.227889 0.0365076 -0.0569601
v -0.232867 0.0412101 -0.0645583
v -0.236611 0.0455588 -0.0727048
v -0.240356 0.0499074 -0.0808513
v -0.233414 0.0321097 -0.069056
v -0.226683 0.0261747 -0.0743523
v -0.227455 0.0314477 -0.0820329
v -0.234436 0.0373998 -0.0772127
v -0.23487 0.0428649 -0.085252
v -0.240415 0.0553394 -0.0892304
v -0.234104 0.0485135 -0.093368
v -0.23862 0.0604267 -0.0970913
v -0.236231 0.0653924 -0.104995
v -0.241937 0.073311 -0.101481
v -0.247195 0.0813889 -0.0979605
v -0.245875 0.0909909 -0.0938773
v -0.243748 0.100689 -0.0900681
v -0.246696 0.104528 -0.0984683
v -0.244416 0.0773905 -0.0892746
v -0.242426 0.0870509 -0.085491
v -0.238647 0.0829623 -0.0774429
v -0.240041 0.0966461 -0.0819487
v -0.231443 0.0642318 -0.0663465
v -0.238944 0.0594198 -0.0768023
v -0.236803 0.069044 -0.073133
v -0.234826 0.0550136 -0.0688542
v -0.240921 0.110299 -0.0863974
v -0.24152 0.123911 -0.0910888
v -0.240978 0.0733417 -0.0810097
v -0.242791 0.0636718 -0.0848319
v -0.248322 0.0948263 -0.102247
v -0.243896 0.0863071 -0.106534
v -0.238379 0.0782213 -0.110073
v -0.244445 0.0681857 -0.0934675
v -0.224639 0.0210915 -0.0662563
v -0.218385 0.0106546 -0.0503828
v -0.22149 0.0158667 -0.0582266
v -0.214429 0.0056576 -0.0422891
v -0.220977 0.018001 -0.0448432
f 45 43 41 1
f 41 2 3 1
f 3 51 4 1
f 41 42 40 2
f 40 163 50 2
f 50 173 3 2
f 173 134 51 3
f 5 6 46 4
f 51 133 5 4
f 9 7 6 5
f 133 10 9 5
f 9 130 132 7
f 10 11 130 9
f 112 113 11 10
f 12 131 130 11
f 113 15 12 11
f 15 13 14 12
f 15 114 115 13
f 113 17 114 15
f 17 113 112 16
f 71 24 110 16
f 110 111 17 16
f 111 18 114 17
f 111 22 19 18
f 19 20 118 18
f 22 91 108 19
f 108 8 20 19
f 119 117 118 20
f 8 127 119 20
f 22 111 110 21
f 110 24 23 21
f 23 107 89 21
f 89 91 22 21
f 24 68 25 23
f 25 26 107 23
f 71 70 68 24
f 68 69 67 25
f 67 85 26 25
f 85 88 27 26
f 27 93 107 26
f 88 87 28 27
f 28 95 93 27
f 87 31 30 28
f 30 103 95 28
f 102 103 30 29
f 30 31 34 29
f 34 79 35 29
f 35 80 102 29
f 87 86 32 31
f 32 33 34 31
f 86 83 82 32
f 82 58 33 32
f 58 57 56 33
f 56 79 34 33
f 79 55 36 35
f 36 39 80 35
f 37 38 39 36
f 47 48 49 38
f 79 56 78 55
f 57 76 78 56
f 58 59 60 57
f 60 75 76 57
f 82 81 59 58
f 81 62 61 59
f 61 77 60 59
f 77 74 75 60
f 62 143 144 61
f 144 72 77 61
f 142 52 143 62
f 81 82 83 63
f 84 65 138 64
f 138 139 141 64
f 83 86 84 64
f 85 67 66 65
f 66 140 138 65
f 84 88 85 65
f 67 69 137 66
f 137 167 140 66
f 70 135 69 68
f 135 172 137 69
f 134 173 135 70
f 73 74 77 72
f 86 87 88 84
f 107 93 94 89
f 94 90 91 89
f 92 108 91 90
f 94 96 101 90
f 101 105 92 90
f 109 8 108 92
f 105 106 109 92
f 95 96 94 93
f 103 97 96 95
f 97 98 101 96
f 103 102 104 97
f 99 105 101 98
f 100 106 105 99
f 126 127 8 109
f 119 120 122 117
f 127 129 120 119
f 121 123 122 120
f 129 124 121 120
f 129 125 128 124
f 129 127 126 125
f 51 134 136 133
f 173 50 172 135
f 172 162 167 137
f 140 166 139 138
f 166 174 170 139
f 170 168 141 139
f 167 165 166 140
f 52 147 146 143
f 146 145 144 143
f 146 53 54 145
f 147 150 53 146
f 148 153 150 147
f 171 169 149 148
f 149 154 153 148
f 169 175 155 149
f 155 156 154 149
f 153 152 151 150
f 151 180 53 150
f 175 179 157 155
f 179 159 158 157
f 160 177 178 159
f 179 164 160 159
f 161 176 177 160
f 164 165 161 160
f 162 163 176 161
f 165 167 162 161
f 172 50 163 162
f 179 175 174 164
f 174 166 165 164
f 170 169 171 168
f 170 174 175 169
f 182 54 53 180
f 184 54 182 181
f 183 116 184 181
f 42 41 43 44
