# https://github.com/mikedh/trimesh
v 0.13128050 -0.06340750 0.09206200
v 0.11881300 -0.05291900 0.09000500
v 0.12910500 -0.03402500 0.00464700
v 0.11893000 -0.05072100 0.05667300
v 0.12103200 -0.04333388 0.03113512
v 0.12372400 -0.03862700 0.01580000
v 0.10903700 -0.03913400 0.07757600
v 0.11601700 -0.04893100 0.06139200
v 0.20609325 0.25425438 -0.09454225
v 0.23029400 0.24518650 -0.08367950
v 0.22177810 0.34741417 -0.13995839
v 0.21288700 0.32599699 -0.14357400
v 0.22471900 0.36381851 -0.13968850
v 0.22269438 0.37343177 -0.13645436
v 0.22076900 0.33563700 -0.11068800
v 0.21828600 0.33174500 -0.10738300
v 0.21757300 0.32812899 -0.10635100
v 0.22033601 0.35918799 -0.13096300
v 0.21629175 0.31279012 -0.10253275
v 0.21291500 0.31124601 -0.14584599
v 0.16260600 -0.07742500 0.06256700
v 0.18706600 -0.07661100 0.03580400
v 0.18114126 -0.07748550 0.04307900
v 0.19050600 -0.07510400 0.03193600
v 0.19296979 -0.07467011 0.02842660
v 0.19553899 -0.07443000 0.02512250
v 0.14516984 -0.05188250 0.05633315
v 0.15779838 -0.05258435 0.04628804
v 0.16393236 -0.05308614 0.04164058
v 0.18485899 -0.06866500 0.04408900
v 0.13905113 -0.05083154 0.06062616
v 0.14724397 -0.05555086 0.05911271
v 0.14414376 -0.05743193 0.06483900
v 0.15973900 -0.06890060 0.06852137
v 0.14998196 -0.06777616 0.07682923
v 0.11734829 -0.04292417 0.07180395
v 0.18713778 -0.05549176 0.02576752
v 0.18272716 -0.05315250 0.02679237
v 0.13197987 -0.05212590 0.06903503
v 0.19488793 -0.06338351 0.02863162
v 0.14174923 -0.06622966 0.08340050
v 0.11345170 -0.04102016 0.07393551
v 0.11608119 -0.04656957 0.08008319
v 0.17509263 -0.06971550 0.05474487
v 0.14593300 -0.06780800 0.08079400
v 0.19373199 -0.06685125 0.03333525
v 0.17249151 -0.05134944 0.03316133
v 0.17758508 -0.05015232 0.02813750
v 0.20374118 -0.05996797 0.01771718
v 0.21111755 -0.05131705 0.00424856
v 0.18205699 -0.06923100 0.04745000
v 0.13746100 -0.06514100 0.08715625
v 0.21655900 -0.04656000 -0.00419025
v 0.20489651 -0.04357350 0.00217400
v 0.20190300 -0.04150500 0.00277500
v 0.19299400 -0.04395000 0.01157300
v 0.18428720 -0.04751594 0.02063257
v 0.18044819 -0.04883559 0.02445337
v 0.18693791 -0.04627468 0.01772979
v 0.17311700 -0.06963400 0.05665800
v 0.17961000 -0.06933600 0.05007000
v 0.20716300 -0.05948750 0.01412800
v 0.20134801 -0.06416800 0.02349900
v 0.21500900 -0.04904000 -0.00095700
v 0.12792726 -0.04742242 0.06625455
v 0.13348022 -0.04926441 0.06098606
v 0.16810572 -0.05183696 0.03600660
v 0.17244297 -0.05073181 0.02490762
v 0.15050004 -0.05285397 0.04505025
v 0.12942834 -0.04864934 0.06208636
v 0.15594005 -0.05352912 0.03714600
v 0.14027765 -0.05381735 0.04734694
v 0.17150850 -0.05043475 0.01865075
v 0.16388977 -0.05299205 0.02629556
v 0.12281700 -0.04671600 0.06488200
v 0.14775513 -0.04418988 0.01688600
v 0.15570323 -0.05381716 0.03089902
v 0.14384924 -0.04911065 0.02863740
v 0.13090469 -0.04304703 0.02357518
v 0.12585553 -0.04895260 0.04198571
v 0.14263669 -0.05130666 0.03428904
v 0.14256986 -0.04393555 0.01927503
v 0.16741700 -0.05083800 0.02000600
v 0.13407590 -0.05397682 0.04665261
v 0.16715509 -0.05203892 0.02247102
v 0.14237100 -0.04006700 0.01123000
v 0.12788429 -0.05301479 0.05268967
v 0.14296267 -0.05465411 0.04243237
v 0.11732825 -0.04425069 0.06817199
v 0.12653027 -0.05056001 0.05803033
v 0.18842787 -0.07160058 0.03986113
v 0.19867120 -0.06827067 0.02825458
v 0.20595491 -0.06531001 0.01638854
v 0.19512750 -0.07042100 0.03153900
v 0.20947050 -0.06006050 0.01110600
v 0.22058700 -0.04306250 -0.01102650
v 0.22430951 -0.03792000 -0.01985900
v 0.22258399 -0.04094900 -0.01605600
v 0.23287800 -0.02552000 -0.04669300
v 0.22712301 -0.03257900 -0.02712000
v 0.19812501 -0.07118200 0.02510000
v 0.13940150 -0.03232325 -0.00029125
v 0.30151275 -0.13441175 -0.17302050
v 0.30022250 -0.12766800 -0.17195175
v 0.30148500 -0.15338000 -0.17395249
v 0.30070299 -0.12112500 -0.17097300
v 0.31933750 -0.13670401 -0.26290099
v 0.31473699 -0.12079400 -0.27321750
v 0.31195399 -0.12185300 -0.27685100
v 0.30686751 -0.12385350 -0.28227700
v 0.30295601 -0.12118600 -0.28620201
v 0.27590275 -0.07998275 -0.30081000
v 0.28541575 -0.09640500 -0.29840625
v 0.28945900 -0.10799450 -0.29659250
v 0.29741700 -0.11274425 -0.29103850
v 0.32400200 -0.15508825 -0.24088150
v 0.32046801 -0.15988950 -0.23225800
v 0.31519601 -0.16376300 -0.22135100
v 0.30292975 -0.16708750 -0.19740875
v 0.32560375 -0.14387950 -0.24748475
v 0.30436851 -0.16440900 -0.18678725
v 0.30544850 -0.16281450 -0.19236500
v 0.24591018 -0.01700530 -0.06920624
v 0.24893052 -0.01646240 -0.07385798
v 0.24283113 -0.01838005 -0.06419334
v 0.24128746 -0.01834777 -0.06199569
v 0.23862318 -0.01987340 -0.05810097
v 0.23591561 -0.02158954 -0.05366650
v 0.29171947 -0.05523065 -0.14396073
v 0.29630426 -0.06973962 -0.15364687
v 0.29922464 -0.08382913 -0.16039902
v 0.28538709 -0.04174980 -0.13262395
v 0.28949600 -0.04900200 -0.14014401
v 0.29775644 -0.07676212 -0.15751799
v 0.28954565 -0.03847128 -0.13206019
v 0.28336720 -0.03765445 -0.12893278
v 0.28151213 -0.03522837 -0.12592766
v 0.27902637 -0.03221669 -0.12201937
v 0.27730533 -0.03032577 -0.11933530
v 0.30210991 -0.05875802 -0.15022315
v 0.29439333 -0.06224531 -0.14973397
v 0.29871599 -0.05413059 -0.14629662
v 0.30513976 -0.07238661 -0.15781077
v 0.30550995 -0.07757773 -0.15998219
v 0.28779471 -0.04518396 -0.13584127
v 0.29898440 -0.08070855 -0.15975064
v 0.30765935 -0.09200530 -0.16618956
v 0.30901245 -0.09572550 -0.16803955
v 0.28957966 -0.03349053 -0.12776547
v 0.30799041 -0.11800536 -0.17290358
v 0.28755014 -0.02940843 -0.12383546
v 0.29901259 -0.05124118 -0.14460270
v 0.30603520 -0.13539047 -0.17448632
v 0.31008199 -0.10364400 -0.17110200
v 0.29620296 -0.04311348 -0.13861825
v 0.30702253 -0.08161440 -0.16223219
v 0.28622246 -0.02771184 -0.12189100
v 0.27942854 -0.01986092 -0.11008681
v 0.31217583 -0.11185895 -0.17664366
v 0.30514330 -0.06959299 -0.15696127
v 0.29220305 -0.03572252 -0.13134235
v 0.27488055 -0.01789511 -0.10350221
v 0.27043072 -0.01254668 -0.09533987
v 0.26256916 -0.00944499 -0.08320946
v 0.25845101 -0.01206279 -0.07871989
v 0.25381657 -0.01053686 -0.06967234
v 0.24920437 -0.01073712 -0.06121884
v 0.31262369 -0.13167808 -0.18525889
v 0.31108631 -0.09748291 -0.17217530
v 0.24204914 -0.01472574 -0.05027901
v 0.23650059 -0.01848173 -0.04077962
v 0.23203251 -0.02521624 -0.03348244
v 0.31543501 -0.10109733 -0.18490657
v 0.23447690 -0.02249856 -0.03937706
v 0.31083066 -0.14259280 -0.18617539
v 0.31160599 -0.09370400 -0.17353000
v 0.31223404 -0.08647720 -0.17545378
v 0.30708708 -0.07492498 -0.16135330
v 0.31018258 -0.06177607 -0.17459338
v 0.30614896 -0.05255848 -0.16569016
v 0.30443113 -0.04252944 -0.16503905
v 0.31353466 -0.08105660 -0.18045966
v 0.26861831 -0.01428279 -0.09388739
v 0.22982438 -0.02760020 -0.02949158
v 0.22674732 -0.03309396 -0.02382473
v 0.28268956 -0.01959925 -0.11568424
v 0.31344728 -0.13721103 -0.19107019
v 0.31580600 -0.11223000 -0.18800500
v 0.31593443 -0.09654595 -0.18679482
v 0.31630471 -0.10752873 -0.18892636
v 0.29788563 -0.04573161 -0.14130567
v 0.29643792 -0.03378566 -0.14460440
v 0.29583634 -0.04022586 -0.13806072
v 0.29289501 -0.03255676 -0.13451595
v 0.28944099 -0.02032100 -0.13460600
v 0.31578374 -0.12065550 -0.19064514
v 0.28922554 -0.01145091 -0.14094200
v 0.30851334 -0.15532132 -0.19014400
v 0.28166716 -0.01022700 -0.12287478
v 0.24801780 -0.00825461 -0.06092188
v 0.22470846 -0.03465194 -0.01891394
v 0.27694123 -0.01529155 -0.10606089
v 0.31153316 -0.06689304 -0.17808843
v 0.26041118 0.00966906 -0.09717117
v 0.27885625 0.00093019 -0.12615033
v 0.26349684 -0.00216467 -0.09217536
v 0.24361852 0.00743580 -0.06969241
v 0.23495682 -0.01227670 -0.04316530
v 0.22412420 -0.00668161 -0.03669024
v 0.23582191 0.00684821 -0.05867537
v 0.26627460 0.00972971 -0.10793111
v 0.24625700 0.01345300 -0.07896800
v 0.24974648 -0.01358665 -0.06673072
v 0.29857940 -0.02786159 -0.15557063
v 0.25933302 -0.00631592 -0.08052934
v 0.25498720 -0.00778600 -0.07153258
v 0.25277790 -0.00724686 -0.06865060
v 0.22319075 -0.00247050 -0.03848925
v 0.23983300 0.01159050 -0.06805050
v 0.31649075 -0.10841181 -0.19236865
v 0.22905275 0.00409775 -0.04872325
v 0.31402239 -0.07976940 -0.18325439
v 0.30219099 -0.03603700 -0.16336000
v 0.21465699 -0.01538000 -0.02321500
v 0.24284408 -0.01165295 -0.05195521
v 0.23211750 -0.01524705 -0.03815462
v 0.27198401 0.00738600 -0.11977900
v 0.27430201 0.00527700 -0.12098800
v 0.21766025 -0.00990138 -0.02911388
v 0.29984492 -0.08742820 -0.16261001
v 0.30044535 -0.09357852 -0.16496541
v 0.30136775 -0.09858296 -0.16670964
v 0.30151863 -0.10146130 -0.16763386
v 0.25921449 0.01304000 -0.09956450
v 0.26283699 0.01205900 -0.10504100
v 0.28253950 -0.00269400 -0.13259050
v 0.27442530 -0.02745847 -0.11462747
v 0.22717451 0.00221450 -0.04531650
v 0.21327736 -0.02880099 -0.01371539
v 0.29604301 -0.02249200 -0.15250900
v 0.31259675 -0.14184804 -0.19227079
v 0.26375027 -0.01800755 -0.09476748
v 0.29138100 -0.01435300 -0.14617875
v 0.29385964 -0.01860287 -0.14776591
v 0.30189545 -0.10520464 -0.16867032
v 0.30149655 -0.10982252 -0.16963754
v 0.30128871 -0.11253942 -0.16994837
v 0.30955150 -0.05917750 -0.17635200
v 0.31575702 -0.09457272 -0.18885336
v 0.31533900 -0.11355500 -0.19829600
v 0.31161901 -0.06811700 -0.18065301
v 0.19618100 -0.03987300 0.00603000
v 0.20086571 -0.03748323 0.00070431
v 0.31259900 -0.07301100 -0.18293400
v 0.31312799 -0.07598500 -0.18431699
v 0.31519375 -0.09790975 -0.19519750
v 0.31392825 -0.12875550 -0.19931801
v 0.30862300 -0.05570050 -0.17416250
v 0.20812599 -0.02651700 -0.01115300
v 0.19837175 -0.03743775 0.00274775
v 0.21066250 -0.02144850 -0.01619800
v 0.23833374 0.01048975 -0.06478675
v 0.31457600 -0.09057700 -0.19288950
v 0.31449275 -0.12495125 -0.19908750
v 0.30914672 -0.15069145 -0.19865690
v 0.31123750 -0.14282100 -0.19951350
v 0.30793101 -0.15407451 -0.19898551
v 0.28494725 -0.00532850 -0.13697925
v 0.20287199 -0.03222300 -0.00406000
v 0.24174203 -0.01655991 -0.05430587
v 0.30569401 -0.16038699 -0.19768600
v 0.30131976 -0.11770500 -0.17113837
v 0.30900728 -0.10903132 -0.17133442
v 0.26130827 -0.01311080 -0.08399265
v 0.25851941 -0.01728780 -0.08905328
v 0.25668659 -0.01726127 -0.08629418
v 0.25511766 -0.01632506 -0.08324034
v 0.25056619 -0.01643536 -0.07653584
v 0.25882599 -0.01460300 -0.08397700
v 0.22948900 0.20916399 -0.10665700
v 0.22847100 0.21316101 -0.10752600
v 0.22863001 0.20567900 -0.11010100
v 0.23064751 0.19780676 -0.10337688
v 0.28720325 0.02501950 -0.19002850
v 0.29210499 0.02151475 -0.19898200
v 0.28990369 0.02341300 -0.19455767
v 0.29540801 0.02053550 -0.20453550
v 0.30076619 0.01463313 -0.22883588
v 0.29656100 0.01667400 -0.25310649
v 0.30000651 0.01459800 -0.24382899
v 0.26454701 0.18152250 -0.19488150
v 0.25572100 0.17683450 -0.18870601
v 0.24623279 0.16933949 -0.18120392
v 0.21407634 0.29182864 -0.09577026
v 0.27989799 0.02791300 -0.18180899
v 0.26019383 0.04374248 -0.16229522
v 0.26391932 0.04024583 -0.16505404
v 0.25373990 0.05391719 -0.15535573
v 0.13627100 -0.03324450 0.00078150
v 0.20400801 0.00205740 -0.06128138
v 0.20966066 0.01432891 -0.08605099
v 0.21616072 0.01492632 -0.08765183
v 0.20577645 0.01109975 -0.07852300
v 0.21186867 0.01559765 -0.08890962
v 0.22143823 0.02124429 -0.10451413
v 0.18023331 -0.01294686 -0.03611323
v 0.17447888 -0.01733436 -0.02935064
v 0.18009099 -0.01646200 -0.03137000
v 0.15093750 -0.02919500 -0.00855250
v 0.15448622 -0.02884291 -0.01051871
v 0.16858878 -0.03217623 -0.00782298
v 0.16997050 -0.01996850 -0.02503650
v 0.19598938 -0.01484209 -0.03509613
v 0.14693910 -0.03857090 0.00687595
v 0.19351813 -0.02891607 -0.01641181
v 0.19164023 -0.02735632 -0.01856902
v 0.15963051 -0.02583725 -0.01507725
v 0.18281972 -0.02457951 -0.02062864
v 0.18349360 -0.04162926 0.00127502
v 0.17967648 -0.04511124 0.00690148
v 0.17460615 -0.03535608 -0.00458184
v 0.16583822 -0.03872886 0.00213520
v 0.16436910 -0.04385796 0.00999674
v 0.17250395 -0.04709029 0.01199276
v 0.19976100 0.00726400 -0.06947500
v 0.21852789 0.01948934 -0.09956364
v 0.21436799 0.01969700 -0.09722350
v 0.22395929 0.02286311 -0.11015118
v 0.19884326 -0.01333498 -0.03661945
v 0.22955600 0.02553025 -0.12040875
v 0.22063325 0.02305350 -0.10766775
v 0.21578150 0.02042575 -0.09962550
v 0.21148100 0.01788300 -0.09242200
v 0.23203629 0.02454021 -0.12057387
v 0.22359437 0.01827663 -0.09597848
v 0.19044235 -0.03430817 -0.00922079
v 0.20264841 -0.00198293 -0.05394783
v 0.23557501 0.02585400 -0.12750700
v 0.23622821 0.02331431 -0.11990890
v 0.22954580 0.01664263 -0.08753384
v 0.24814700 0.02399550 -0.14065951
v 0.22688299 0.01664100 -0.08879900
v 0.23905510 0.01900361 -0.10054320
v 0.21579000 0.01142900 -0.07790900
v 0.23324589 0.01978903 -0.10212630
v 0.23765646 0.01366605 -0.07058372
v 0.23293283 0.01285586 -0.06743769
v 0.22916726 0.00919757 -0.05633910
v 0.22990519 0.00654662 -0.05193898
v 0.22552593 0.00545284 -0.04856322
v 0.22254304 0.00470535 -0.04796943
v 0.20789230 0.00018301 -0.05492746
v 0.22010669 0.00175579 -0.04318583
v 0.21395544 -0.00706718 -0.03220135
v 0.20251052 -0.01349776 -0.03338809
v 0.21153072 -0.01516620 -0.02241702
v 0.22649864 0.00883788 -0.05644491
v 0.22264946 0.01474695 -0.08388844
v 0.21075585 0.00342746 -0.06037999
v 0.19343954 -0.04093939 0.00822053
v 0.19663426 -0.03451225 -0.00210279
v 0.19279601 -0.03871500 0.00328300
v 0.21501062 0.00936101 -0.07222897
v 0.20734698 -0.02417104 -0.01271109
v 0.21766891 0.00627045 -0.05896772
v 0.20606029 -0.00478486 -0.04585450
v 0.24110528 0.01831853 -0.09723948
v 0.22122657 -0.00013292 -0.04010542
v 0.21913043 -0.00435017 -0.03451016
v 0.20640952 -0.01917037 -0.01955989
v 0.21687201 0.00185400 -0.04765700
v 0.21641039 0.00310482 -0.05167791
v 0.20050224 -0.02863965 -0.00938206
v 0.21135839 -0.01031836 -0.02927531
v 0.20695700 -0.01041400 -0.03427800
v 0.24516147 0.01538962 -0.08279073
v 0.24750713 0.01946417 -0.11490840
v 0.25254820 0.01506145 -0.09308964
v 0.24077408 0.01342866 -0.07235378
v 0.24559498 0.02377319 -0.13552046
v 0.25056678 0.01480812 -0.08800918
v 0.24978173 0.02065902 -0.12786268
v 0.25452195 0.02056284 -0.14310633
v 0.25450892 0.01942343 -0.13611277
v 0.26016082 0.01614522 -0.13656464
v 0.26742530 0.01031868 -0.11326034
v 0.26107299 0.01635400 -0.14536300
v 0.26373103 0.01409080 -0.14092025
v 0.26915950 0.00993800 -0.13481849
v 0.26301800 0.01528450 -0.14983101
v 0.26670000 0.01219700 -0.14628500
v 0.21795876 0.33902026 -0.12415750
v 0.21812749 0.32669569 -0.11704992
v 0.22329971 0.05480374 -0.12860371
v 0.23450145 0.02947136 -0.13023507
v 0.28312891 0.02531673 -0.18642766
v 0.28430469 0.02215768 -0.18813938
v 0.26797101 0.03033729 -0.16868900
v 0.27433815 0.02441014 -0.17468188
v 0.26207425 0.02976758 -0.16159665
v 0.25838320 0.03772827 -0.16015745
v 0.24950423 0.05018606 -0.15448110
v 0.28207278 0.01469166 -0.18125962
v 0.23594749 0.04240637 -0.13830650
v 0.24952440 0.03935411 -0.15156473
v 0.21857119 0.03553140 -0.11434164
v 0.22293433 0.07208925 -0.13388487
v 0.22826553 0.05927670 -0.13616654
v 0.22678960 0.08073072 -0.14082501
v 0.23216352 0.08518345 -0.14711689
v 0.22535572 0.12085674 -0.15020788
v 0.22993347 0.12289794 -0.15503711
v 0.23428037 0.16196279 -0.17008687
v 0.23146001 0.14886400 -0.16383600
v 0.22660274 0.14632439 -0.15825415
v 0.23542808 0.16864920 -0.17236891
v 0.23579315 0.07202812 -0.14716109
v 0.23158486 0.16437903 -0.16749283
v 0.24075805 0.16355170 -0.17614113
v 0.23107131 0.11865057 -0.15450899
v 0.23374499 0.13701101 -0.16141701
v 0.22226250 0.12873050 -0.14791799
v 0.22218700 0.11458300 -0.14423400
v 0.23513125 0.14274663 -0.16414175
v 0.22442876 0.15532075 -0.15656713
v 0.22047000 0.07655900 -0.13146900
v 0.23617855 0.17739865 -0.17427695
v 0.21858849 0.05678000 -0.12254150
v 0.22134500 0.09349700 -0.13730900
v 0.24213143 0.03138884 -0.13956855
v 0.23074653 0.17394730 -0.16769019
v 0.22636500 0.16276801 -0.16043000
v 0.22412799 0.15137599 -0.15572201
v 0.24397543 0.20034839 -0.18247733
v 0.20675025 0.02036200 -0.08861650
v 0.21244575 0.03096500 -0.10306100
v 0.22731800 0.17286301 -0.16257600
v 0.27211139 0.01552179 -0.16607355
v 0.23856052 0.19107511 -0.17723723
v 0.25192100 0.02574156 -0.14726718
v 0.25506023 0.18731821 -0.19231858
v 0.24389901 0.06240743 -0.15184138
v 0.28581236 0.01726976 -0.18891001
v 0.24269037 0.20346343 -0.18116808
v 0.23356388 0.19635667 -0.17111779
v 0.23286125 0.21150387 -0.16892215
v 0.22918950 0.20406950 -0.16404574
v 0.22966000 0.23418300 -0.16033100
v 0.22966100 0.22380799 -0.16217350
v 0.22875600 0.17802000 -0.16491599
v 0.22873899 0.18263000 -0.16494000
v 0.22961500 0.22856800 -0.16132300
v 0.24495189 0.19538583 -0.18391840
v 0.25474641 0.19295922 -0.19230872
v 0.24888470 0.17685109 -0.18594035
v 0.24967185 0.18421182 -0.18794517
v 0.23669866 0.20979432 -0.17372475
v 0.23520555 0.22408645 -0.17004171
v 0.26506033 0.18427919 -0.19867742
v 0.23224800 0.10769250 -0.15205800
v 0.23007691 0.11340943 -0.15248993
v 0.23296200 0.10279000 -0.15110700
v 0.29244949 0.01275484 -0.19982356
v 0.22976850 0.18833449 -0.16630350
v 0.22955200 0.20890599 -0.16418400
v 0.22918700 0.21339700 -0.16302399
v 0.28143773 0.00364012 -0.17182784
v 0.23905733 0.23144721 -0.17299050
v 0.20534580 0.01679737 -0.08479200
v 0.24997456 0.20930742 -0.18719467
v 0.28997851 0.00893548 -0.19173962
v 0.28971894 0.00059439 -0.18434745
v 0.20439250 0.01641300 -0.08218750
v 0.28451645 -0.00542596 -0.16940715
v 0.29394540 -0.01933271 -0.17708199
v 0.29972348 0.00744931 -0.21568689
v 0.22727300 0.25588749 -0.15170250
v 0.22971700 0.25020501 -0.15702300
v 0.24825317 0.21428411 -0.18519429
v 0.29415399 0.00155089 -0.19535878
v 0.29839988 -0.01381938 -0.19197407
v 0.30081839 -0.03633643 -0.18006086
v 0.29374228 0.01346123 -0.20360217
v 0.26442001 0.19729800 -0.19886300
v 0.22599500 0.26302099 -0.14762001
v 0.22606200 0.28229600 -0.14103000
v 0.25864185 0.19695225 -0.19534072
v 0.23222937 0.24529473 -0.16191579
v 0.30228997 -0.01633820 -0.20151845
v 0.30536953 -0.02795118 -0.20034130
v 0.31327565 -0.06509960 -0.19850914
v 0.30873110 -0.03736668 -0.20469167
v 0.30743346 -0.02575958 -0.21114133
v 0.30005499 0.00090920 -0.21156201
v 0.30252054 -0.00050564 -0.21996372
v 0.31158328 -0.04664319 -0.20868154
v 0.31160538 -0.03350882 -0.22399605
v 0.30939905 -0.05715487 -0.19048862
v 0.31335490 -0.08192435 -0.19252727
v 0.31861566 -0.08216010 -0.20942282
v 0.23545399 0.24575099 -0.16534500
v 0.23313850 0.24963600 -0.16152951
v 0.22357900 0.27692601 -0.13912100
v 0.22588707 0.27795338 -0.14204527
v 0.22784500 0.27837500 -0.14473900
v 0.23071850 0.27020000 -0.15062800
v 0.22704649 0.26921008 -0.14684215
v 0.24947450 0.22631150 -0.18332100
v 0.29801858 0.01285481 -0.21320475
v 0.31979810 -0.09379894 -0.21014601
v 0.32016400 -0.09995600 -0.21089400
v 0.32016623 -0.10562523 -0.21092100
v 0.23883650 0.24143049 -0.16994000
v 0.25266400 0.22101100 -0.18711001
v 0.24439275 0.23290225 -0.17741001
v 0.31521537 -0.12290355 -0.20147088
v 0.25730699 0.21122400 -0.19261700
v 0.26745301 0.19341400 -0.20091200
v 0.20967362 0.02155484 -0.09382823
v 0.32321179 -0.10076236 -0.22062275
v 0.30353639 -0.04442649 -0.18126073
v 0.32018807 -0.12239406 -0.21401204
v 0.31728678 -0.14544565 -0.21556538
v 0.31975722 -0.14713934 -0.22221952
v 0.29545029 -0.02413967 -0.17634765
v 0.23160499 0.26635501 -0.15291300
v 0.27393579 0.00663668 -0.16066635
v 0.32464085 -0.14338003 -0.23441501
v 0.32391528 -0.13727927 -0.23237796
v 0.30935402 -0.15688289 -0.20420613
v 0.32432435 -0.11016254 -0.22524780
v 0.30073213 0.00909311 -0.22213954
v 0.32431680 -0.09663637 -0.22616982
v 0.32133197 -0.13822659 -0.22394531
v 0.31645474 -0.15530085 -0.21845641
v 0.31061157 -0.14763921 -0.20157919
v 0.32577845 -0.10850095 -0.23189009
v 0.31141504 -0.07154658 -0.18956875
v 0.32207398 -0.15269063 -0.23070302
v 0.32302050 -0.12516299 -0.22529522
v 0.30883464 -0.06153307 -0.18621748
v 0.27860915 0.00205667 -0.16486127
v 0.32203456 -0.08601383 -0.22299388
v 0.32470318 -0.09714756 -0.22886377
v 0.30249787 -0.04189921 -0.17902626
v 0.31411904 -0.05985920 -0.20718394
v 0.23187116 0.12992659 -0.15842207
v 0.30093497 0.01118075 -0.22404547
v 0.32544168 -0.13845696 -0.23892691
v 0.30969136 -0.02326581 -0.22701251
v 0.32423570 -0.12969869 -0.23973181
v 0.32554459 -0.14971115 -0.24041617
v 0.32653589 -0.10780007 -0.23808732
v 0.31264300 -0.13732682 -0.20039727
v 0.31399378 -0.05262641 -0.21830207
v 0.31120027 -0.02545131 -0.23795336
v 0.31590230 -0.06528254 -0.21176504
v 0.32575484 -0.14662842 -0.23903325
v 0.32567870 -0.09832481 -0.23534044
v 0.30157625 0.01117284 -0.23174146
v 0.28758101 -0.01144318 -0.16925331
v 0.32426012 -0.12789370 -0.23667913
v 0.31652230 -0.06503197 -0.21804890
v 0.27368881 0.18515377 -0.20294075
v 0.30812981 -0.01692152 -0.22715515
v 0.31355978 -0.03850662 -0.24129895
v 0.29428798 -0.02365453 -0.17254225
v 0.23878816 0.15627889 -0.17172013
v 0.30783131 -0.01356751 -0.23404687
v 0.32622286 -0.14122756 -0.24297820
v 0.31307999 -0.03490315 -0.24390779
v 0.32530099 -0.13545200 -0.24378400
v 0.31682341 -0.06475108 -0.22682753
v 0.31582357 -0.05874508 -0.23417513
v 0.31597866 -0.06258798 -0.24756654
v 0.30411892 -0.00161397 -0.23577174
v 0.31001907 -0.02118709 -0.24622024
v 0.30163350 0.00757576 -0.23664918
v 0.32592716 -0.09956644 -0.23905220
v 0.31918440 -0.07383384 -0.22940426
v 0.30321204 -0.00091090 -0.24306894
v 0.31851879 -0.07328573 -0.23814904
v 0.31374724 -0.04102679 -0.24795058
v 0.32399600 -0.12987890 -0.24909244
v 0.31822133 -0.07702315 -0.24852902
v 0.31769551 -0.07818554 -0.25339205
v 0.31304578 -0.03861520 -0.25227193
v 0.32605010 -0.11322544 -0.24603111
v 0.32432364 -0.09207768 -0.23824399
v 0.31835412 -0.07385159 -0.24163101
v 0.32601419 -0.10618809 -0.24786524
v 0.30908282 -0.01785329 -0.24386181
v 0.30720786 -0.05401046 -0.17909226
v 0.31604932 -0.06823189 -0.25273122
v 0.31148025 -0.02856747 -0.25002713
v 0.32336904 -0.12745846 -0.25170148
v 0.32508445 -0.09669895 -0.24430449
v 0.31270080 -0.03993674 -0.25538457
v 0.31205058 -0.03846362 -0.25798607
v 0.29916797 -0.03337247 -0.17357776
v 0.32360768 -0.09717586 -0.25238333
v 0.31406879 -0.05905193 -0.25822443
v 0.32485604 -0.09835037 -0.24838275
v 0.30083334 0.00586711 -0.24344370
v 0.30026869 -0.03165269 -0.16296425
v 0.30930541 -0.02636009 -0.25733946
v 0.28889687 -0.01384536 -0.16793070
v 0.31525400 -0.06770900 -0.25666499
v 0.28470461 -0.00444430 -0.13963873
v 0.32351836 -0.12446083 -0.25186732
v 0.28939395 -0.01209408 -0.15277236
v 0.27547276 0.00464185 -0.12376336
v 0.28483280 -0.00734080 -0.16352871
v 0.32275770 -0.12074487 -0.25717260
v 0.30058710 0.01099827 -0.24106825
v 0.32486345 -0.10700128 -0.25327425
v 0.29990525 0.00497756 -0.24749202
v 0.27247137 0.00772626 -0.15738354
v 0.28485159 -0.00523985 -0.14603065
v 0.27983761 -0.00074846 -0.15991399
v 0.30719334 -0.01516291 -0.25010815
v 0.31590274 -0.07621993 -0.25870052
v 0.31446499 -0.07608700 -0.26326501
v 0.31066249 -0.04178100 -0.26353050
v 0.27643653 0.00361900 -0.14673503
v 0.32282950 -0.13775450 -0.25594151
v 0.32349600 -0.10522450 -0.25689101
v 0.32249575 -0.13026600 -0.25606875
v 0.31349051 -0.06877050 -0.26350500
v 0.31178701 -0.05194300 -0.26398000
v 0.31081150 -0.03714350 -0.26091501
v 0.30985501 -0.03406600 -0.26174101
v 0.31653100 -0.08200800 -0.26052099
v 0.31938500 -0.09028400 -0.25905100
v 0.27264360 0.00732177 -0.14896998
v 0.30612212 -0.01903125 -0.25729725
v 0.29989600 0.00171000 -0.25083500
v 0.25950943 0.18067164 -0.19360533
v 0.23350275 0.26606901 -0.15516225
v 0.26924010 -0.05910827 -0.29994200
v 0.27736323 -0.06603653 -0.29881103
v 0.28326303 -0.07164157 -0.29734286
v 0.27639637 -0.04468462 -0.29500857
v 0.28881401 -0.10087800 -0.29688799
v 0.28389274 -0.05941523 -0.29510095
v 0.28732759 -0.08996082 -0.29711005
v 0.28019736 -0.03617725 -0.29148652
v 0.28742248 -0.07280293 -0.29536006
v 0.28015781 -0.04736369 -0.29447017
v 0.29083641 -0.07676573 -0.29387588
v 0.29225203 -0.09844552 -0.29480838
v 0.29418459 -0.05882392 -0.28892044
v 0.29138208 -0.05754802 -0.29076544
v 0.29531801 -0.09075452 -0.29211645
v 0.28969209 -0.03701867 -0.28648339
v 0.29969448 -0.07723126 -0.28701193
v 0.29597242 -0.04831770 -0.28526218
v 0.29963010 -0.05814540 -0.28419438
v 0.29912022 -0.10248553 -0.28998315
v 0.30786369 -0.10607721 -0.28242337
v 0.29264679 -0.04001593 -0.28562340
v 0.30798806 -0.11760115 -0.28174860
v 0.28683602 -0.02383569 -0.28322924
v 0.30225875 -0.04461046 -0.27850284
v 0.30075285 -0.03696584 -0.27744669
v 0.29418020 -0.02710929 -0.27908462
v 0.29445622 -0.02249456 -0.27650653
v 0.31303491 -0.11218178 -0.27628656
v 0.28820588 0.00577003 -0.26753056
v 0.29754369 -0.02079521 -0.27258370
v 0.29180397 0.01113725 -0.26117202
v 0.30346231 -0.05864269 -0.28003553
v 0.29736784 -0.03383541 -0.27936066
v 0.29963899 -0.02867500 -0.27458099
v 0.30715670 -0.10022038 -0.28232715
v 0.30408380 -0.05227909 -0.27812517
v 0.30163300 -0.02651600 -0.27106801
v 0.31496437 -0.11663823 -0.27334417
v 0.30760280 -0.08592005 -0.27919973
v 0.31347351 -0.09831532 -0.27387060
v 0.29567312 -0.00249276 -0.26260169
v 0.30697331 -0.06956441 -0.27711637
v 0.30476234 -0.03443143 -0.27161337
v 0.29898978 -0.01216247 -0.26543978
v 0.31796462 -0.10770287 -0.26881680
v 0.30747178 -0.04413480 -0.27127104
v 0.29278153 0.00320431 -0.26310918
v 0.30878381 -0.05632234 -0.27174597
v 0.30968260 -0.07870969 -0.27435228
v 0.30894801 -0.04501800 -0.26868901
v 0.30612757 -0.02748712 -0.26515261
v 0.31917441 -0.12705543 -0.26491903
v 0.31703431 -0.11778280 -0.27028480
v 0.32016200 -0.11447700 -0.26479501
v 0.29681944 0.00786908 -0.25327479
v 0.31120825 -0.07723873 -0.27119565
v 0.31933582 -0.10030771 -0.26493596
v 0.32191182 -0.10056896 -0.25947610
v 0.31210863 -0.08410083 -0.27171039
v 0.32209149 -0.11076531 -0.26119688
v 0.30359973 -0.01432322 -0.25887029
v 0.31399111 -0.08292586 -0.26745822
v 0.30997407 -0.05039108 -0.26824130
v 0.31304025 -0.07312585 -0.26604711
v 0.32101850 -0.12863807 -0.26028719
v 0.21563801 0.29489431 -0.14976131
v 0.22928598 0.27555647 -0.15346953
v 0.22513997 0.28859690 -0.14397728
v 0.22333983 0.29437524 -0.14154098
v 0.22744368 0.28073952 -0.14895388
v 0.22048584 0.30078735 -0.14070233
v 0.22888562 0.27792806 -0.14942141
v 0.22246231 0.30422512 -0.13142638
v 0.22176511 0.33423999 -0.13516529
v 0.22147436 0.32321487 -0.13290826
v 0.22151770 0.32007234 -0.12964207
v 0.22319648 0.29608627 -0.13373165
v 0.22352029 0.35069128 -0.13699510
v 0.22377605 0.35417334 -0.13697571
v 0.22191968 0.33562786 -0.13174510
v 0.22308983 0.29951530 -0.13379724
v 0.22023654 0.30577764 -0.12682929
v 0.22453219 0.29023838 -0.13720637
v 0.22262670 0.34664281 -0.13356689
v 0.21938028 0.29936455 -0.12529590
v 0.22111517 0.25839793 -0.13761552
v 0.21943972 0.27601198 -0.12801147
v 0.21903339 0.22963164 -0.13740440
v 0.21769081 0.23558412 -0.13047362
v 0.21843636 0.28509066 -0.12222135
v 0.21805451 0.26831360 -0.12337709
v 0.21604091 0.21391672 -0.12779744
v 0.21587152 0.19641034 -0.13174247
v 0.21750328 0.19469619 -0.14003542
v 0.21610104 0.17721360 -0.13454090
v 0.21781100 0.29868400 -0.11865100
v 0.21653308 0.26970435 -0.11130809
v 0.21595511 0.25998087 -0.10951899
v 0.21474179 0.25708004 -0.09880080
v 0.21518248 0.24204920 -0.11097122
v 0.21704180 0.29985031 -0.11391918
v 0.21627200 0.30403817 -0.10252949
v 0.21791904 0.31699919 -0.10787872
v 0.21685764 0.16216916 -0.13955534
v 0.21654261 0.30286978 -0.10507304
v 0.21687834 0.29284151 -0.11246615
v 0.21974183 0.16787534 -0.14874035
v 0.21827988 0.32532267 -0.10806903
v 0.21926065 0.32972634 -0.11021797
v 0.21596049 0.21640616 -0.12558246
v 0.21540236 0.23131258 -0.11728895
v 0.21890531 0.13020237 -0.14146236
v 0.21975886 0.11429786 -0.13827997
v 0.21661086 0.32283690 -0.12108681
v 0.21683400 0.31294514 -0.11883346
v 0.22081277 0.18972079 -0.15011173
v 0.21940331 0.18030427 -0.14714129
v 0.22017178 0.09605826 -0.13517690
v 0.21524427 0.19952548 -0.12886304
v 0.21875476 0.14536472 -0.14404794
v 0.21914925 0.07462984 -0.12740813
v 0.22284133 0.27074790 -0.13971439
v 0.22031025 0.15527559 -0.14895373
v 0.21744191 0.31582925 -0.11404443
v 0.22493587 0.22469607 -0.15409679
v 0.22335870 0.17808422 -0.15597837
v 0.22751399 0.23490973 -0.15674737
v 0.22311706 0.18536163 -0.15590517
v 0.22020399 0.10940821 -0.13901335
v 0.22341438 0.29746683 -0.13849770
v 0.21849468 0.34497393 -0.12660902
v 0.21644110 0.16772141 -0.13711649
v 0.22548659 0.28843539 -0.14118824
v 0.22142246 0.14446203 -0.15017460
v 0.22132100 0.10361900 -0.13990200
v 0.22320300 0.16280700 -0.15538000
v 0.22744174 0.28176204 -0.14440587
v 0.22491929 0.16931636 -0.15874090
v 0.22235578 0.35407248 -0.13320664
v 0.22162385 0.30683326 -0.13704311
v 0.22092984 0.32612125 -0.13558726
v 0.21367070 0.32215994 -0.14246339
v 0.22029382 0.31782629 -0.13662097
v 0.21504575 0.31360347 -0.14183129
v 0.21795097 0.23236078 -0.11353492
v 0.22558832 0.24044250 -0.09662498
v 0.22450460 0.21846688 -0.11404266
v 0.22135029 0.22534090 -0.11450599
v 0.22314667 0.21529241 -0.11761177
v 0.22389044 0.20766227 -0.11816920
v 0.22632732 0.20827440 -0.11453969
v 0.22720765 0.21214506 -0.11182538
v 0.21943900 0.21560100 -0.12155000
v 0.21651246 0.21012124 -0.12589789
v 0.21579359 0.21978740 -0.12370967
v 0.21531715 0.23816232 -0.11239621
v 0.21709428 0.20737775 -0.12531363
v 0.22706395 0.20408986 -0.11299970
v 0.21847119 0.20440346 -0.12386689
v 0.21573694 0.19581133 -0.12589058
v 0.22545859 0.20194437 -0.11517561
v 0.21543782 0.19186951 -0.12762110
v 0.21633505 0.18588513 -0.13008244
v 0.22712459 0.16935967 -0.12383902
v 0.22903081 0.16223932 -0.12408785
v 0.21808841 0.18983258 -0.12250894
v 0.23159406 0.15192464 -0.12300745
v 0.23403140 0.13655530 -0.12087937
v 0.23107071 0.14728761 -0.12424517
v 0.21829348 0.13906528 -0.13953356
v 0.21959147 0.13817710 -0.13667474
v 0.22050815 0.11552542 -0.13547524
v 0.23498747 0.11527512 -0.11855055
v 0.21992105 0.08908616 -0.13298824
v 0.23361212 0.12585906 -0.12136493
v 0.21921668 0.18729485 -0.11999598
v 0.22158308 0.10303124 -0.13179935
v 0.21940432 0.07744292 -0.12874119
v 0.21830080 0.15104634 -0.13696064
v 0.22421135 0.17734879 -0.12414143
v 0.22653958 0.11497383 -0.12791829
v 0.21973599 0.15989600 -0.13406600
v 0.22362126 0.10018225 -0.12846713
v 0.22688754 0.19575869 -0.11002250
v 0.22779601 0.18767453 -0.10324864
v 0.23252907 0.18763096 -0.09367253
v 0.23191920 0.13171294 -0.12342631
v 0.22392715 0.17444978 -0.12619910
v 0.22213636 0.16767403 -0.13017578
v 0.22821526 0.15800623 -0.12613590
v 0.22518951 0.15659904 -0.12922158
v 0.22190800 0.14701900 -0.13344300
v 0.22266855 0.12859049 -0.13326915
v 0.22045088 0.18067322 -0.11268118
v 0.22074508 0.17648019 -0.10891756
v 0.23113927 0.15769150 -0.11989230
v 0.23239043 0.15400591 -0.12138347
v 0.22783300 0.16427800 -0.11415900
v 0.22403721 0.17882081 -0.12015454
v 0.22711207 0.16085803 -0.10860603
v 0.22405652 0.17301456 -0.11137260
v 0.22582165 0.17405606 -0.11853198
v 0.22010541 0.18437351 -0.11636954
f 89 8 7
f 89 7 42
f 4 8 89
f 42 36 89
f 75 4 89
f 36 70 89
f 70 4 75
f 70 75 89
f 65 70 36
f 70 90 4
f 31 70 65
f 90 87 4
f 70 87 90
f 70 66 87
f 66 72 87
f 27 72 66
f 72 84 87
f 31 27 66
f 27 88 72
f 72 88 84
f 87 84 4
f 27 31 32
f 31 66 70
f 27 69 88
f 84 80 4
f 27 32 28
f 32 31 33
f 28 69 27
f 69 71 88
f 4 80 5
f 81 80 84
f 29 28 32
f 39 33 31
f 34 32 33
f 28 71 69
f 71 77 88
f 80 81 5
f 88 81 84
f 34 29 32
f 39 31 65
f 34 33 39
f 29 71 28
f 71 68 77
f 5 81 79
f 81 88 77
f 30 29 34
f 39 65 36
f 34 39 35
f 29 67 71
f 68 71 67
f 68 74 77
f 79 6 5
f 81 78 79
f 77 78 81
f 30 37 29
f 30 34 60
f 43 39 36
f 35 39 41
f 29 47 67
f 47 68 67
f 68 85 74
f 6 79 3
f 78 82 79
f 77 76 78
f 37 38 29
f 46 37 30
f 61 30 60
f 36 42 43
f 41 39 43
f 45 35 41
f 48 68 47
f 68 73 85
f 85 77 74
f 82 3 79
f 78 76 82
f 85 76 77
f 29 38 47
f 37 59 38
f 46 40 37
f 43 42 7
f 1 41 43
f 52 45 41
f 58 68 48
f 58 73 68
f 82 76 3
f 85 73 76
f 48 47 38
f 50 59 37
f 57 38 59
f 49 37 40
f 40 46 49
f 7 2 43
f 1 52 41
f 1 43 2
f 58 48 57
f 58 57 73
f 57 48 38
f 37 49 50
f 54 59 50
f 63 49 46
f 56 73 57
f 50 49 62
f 50 64 54
f 56 59 54
f 92 63 46
f 63 62 49
f 56 320 73
f 62 64 50
f 46 30 92
f 63 92 93
f 56 319 320
f 324 73 320
f 91 92 30
f 62 63 93
f 56 360 319
f 320 319 321
f 73 324 83
f 324 320 323
f 30 51 91
f 92 91 94
f 62 93 95
f 360 362 319
f 336 321 319
f 320 321 322
f 83 324 76
f 323 320 322
f 323 314 324
f 51 21 91
f 91 26 94
f 92 94 101
f 362 361 319
f 360 361 362
f 336 318 321
f 322 321 311
f 76 324 314
f 323 322 314
f 44 21 51
f 91 21 23
f 91 25 26
f 361 336 319
f 321 318 311
f 336 316 318
f 322 311 310
f 86 76 314
f 314 322 102
f 91 23 22
f 25 91 24
f 361 373 336
f 311 318 312
f 316 306 318
f 315 316 336
f 311 317 310
f 102 322 310
f 314 299 86
f 314 102 299
f 91 22 24
f 22 25 24
f 373 315 336
f 364 373 361
f 312 317 311
f 318 308 312
f 315 306 316
f 318 306 308
f 310 309 102
f 86 299 3
f 364 315 373
f 253 364 361
f 308 307 312
f 313 306 315
f 306 307 308
f 370 315 364
f 253 361 360
f 306 313 329
f 329 313 315
f 370 355 315
f 356 370 364
f 253 360 252
f 337 306 329
f 355 329 315
f 374 355 370
f 229 356 364
f 356 374 370
f 355 337 329
f 374 375 355
f 229 369 356
f 229 364 224
f 354 374 356
f 355 366 337
f 366 355 375
f 374 366 375
f 218 369 229
f 369 354 356
f 224 364 261
f 374 354 366
f 352 337 366
f 369 218 221
f 369 368 354
f 261 364 259
f 353 366 354
f 352 359 337
f 359 352 366
f 350 369 221
f 368 353 354
f 259 364 269
f 371 366 353
f 359 363 337
f 365 359 366
f 349 350 221
f 369 350 368
f 368 351 353
f 353 372 371
f 372 366 371
f 363 300 337
f 365 363 359
f 372 365 366
f 210 349 221
f 349 357 350
f 351 365 353
f 368 350 351
f 353 365 372
f 337 300 306
f 363 304 300
f 357 363 365
f 210 348 349
f 348 357 349
f 350 357 351
f 351 357 365
f 300 301 306
f 304 301 300
f 363 302 304
f 357 358 363
f 210 346 348
f 348 347 357
f 304 327 301
f 326 304 302
f 363 344 302
f 347 358 357
f 363 358 344
f 210 379 346
f 346 347 348
f 333 301 327
f 304 331 327
f 358 326 302
f 304 326 331
f 344 358 302
f 340 358 347
f 379 376 346
f 347 346 340
f 303 301 333
f 358 335 326
f 328 331 326
f 340 342 358
f 376 367 346
f 379 381 376
f 345 340 346
f 335 305 326
f 342 335 358
f 331 328 330
f 340 335 342
f 367 345 346
f 376 378 367
f 381 378 376
f 212 381 379
f 340 345 335
f 305 328 326
f 345 305 335
f 334 330 328
f 367 343 345
f 378 339 367
f 234 378 381
f 219 212 379
f 234 381 212
f 345 328 305
f 334 328 345
f 334 338 330
f 343 339 345
f 367 339 343
f 378 377 339
f 211 234 212
f 339 334 345
f 338 395 330
f 334 339 338
f 377 382 339
f 382 377 378
f 211 212 204
f 234 211 235
f 395 406 330
f 341 395 338
f 339 380 338
f 339 382 380
f 234 382 378
f 204 202 211
f 212 207 204
f 406 519 330
f 394 406 395
f 341 440 395
f 382 384 380
f 235 382 234
f 204 163 202
f 202 186 211
f 207 215 204
f 212 262 207
f 332 330 519
f 519 406 436
f 394 395 404
f 428 406 394
f 440 341 383
f 395 440 430
f 384 383 380
f 385 384 382
f 382 235 211
f 206 163 204
f 186 202 158
f 211 186 199
f 215 206 204
f 215 207 217
f 207 262 210
f 519 325 332
f 436 406 428
f 436 435 519
f 394 404 408
f 404 395 430
f 394 407 428
f 390 440 383
f 430 440 405
f 385 383 384
f 211 385 382
f 206 215 163
f 186 158 157
f 202 162 158
f 197 199 186
f 211 199 205
f 217 207 200
f 217 216 215
f 207 210 208
f 325 519 469
f 435 469 519
f 409 394 408
f 408 404 405
f 404 430 405
f 407 394 409
f 422 428 407
f 390 618 440
f 400 405 440
f 385 388 383
f 386 385 211
f 215 164 163
f 157 151 186
f 163 162 202
f 186 195 197
f 199 197 205
f 227 211 205
f 225 200 207
f 217 200 167
f 215 216 164
f 208 225 207
f 238 208 210
f 473 469 435
f 408 417 409
f 417 408 405
f 411 407 409
f 422 407 411
f 635 618 390
f 618 527 440
f 405 400 401
f 400 440 438
f 388 387 383
f 386 388 385
f 157 237 151
f 186 151 194
f 163 183 162
f 186 194 195
f 195 194 197
f 205 197 236
f 205 236 227
f 225 167 200
f 217 167 166
f 225 208 170
f 208 238 209
f 473 325 469
f 410 409 417
f 417 405 442
f 411 409 410
f 422 411 415
f 227 635 390
f 635 620 618
f 440 527 542
f 618 613 527
f 297 401 400
f 402 405 401
f 400 438 399
f 440 542 438
f 387 390 383
f 388 390 387
f 227 388 386
f 151 237 139
f 158 237 157
f 151 161 194
f 163 164 183
f 197 194 244
f 236 197 243
f 225 170 167
f 166 216 217
f 170 208 171
f 209 171 208
f 209 238 229
f 410 417 442
f 442 405 402
f 460 411 410
f 412 415 411
f 433 422 415
f 227 612 635
f 620 613 618
f 619 620 635
f 613 542 527
f 400 398 297
f 402 401 297
f 398 400 399
f 399 438 403
f 542 474 438
f 391 390 388
f 211 227 386
f 227 389 388
f 151 139 138
f 237 158 162
f 194 161 193
f 165 183 164
f 244 194 214
f 197 244 243
f 216 166 165
f 171 209 226
f 209 229 239
f 462 410 442
f 462 460 410
f 461 411 460
f 412 411 461
f 421 415 412
f 433 415 431
f 228 612 227
f 635 612 609
f 620 619 613
f 625 619 635
f 542 613 607
f 297 398 295
f 296 402 297
f 398 399 295
f 443 399 403
f 438 467 403
f 438 474 467
f 542 525 474
f 389 391 388
f 151 138 137
f 237 162 242
f 161 155 193
f 194 193 192
f 216 165 164
f 194 192 214
f 244 214 240
f 244 240 243
f 166 213 165
f 172 171 226
f 209 239 226
f 239 229 260
f 460 420 461
f 412 461 420
f 414 415 421
f 431 415 418
f 432 433 431
f 228 268 612
f 612 268 609
f 635 609 625
f 619 611 613
f 609 619 625
f 542 607 561
f 611 607 613
f 296 298 402
f 295 399 396
f 399 443 397
f 443 403 471
f 467 474 403
f 475 474 525
f 151 137 149
f 183 242 162
f 155 191 193
f 193 191 192
f 214 192 181
f 243 240 607
f 213 278 165
f 167 213 166
f 184 172 226
f 239 201 226
f 239 260 253
f 412 420 547
f 413 415 414
f 413 414 421
f 418 415 413
f 431 418 427
f 431 437 432
f 268 243 609
f 609 611 619
f 542 561 525
f 561 607 525
f 243 607 611
f 298 442 402
f 295 396 284
f 396 399 397
f 397 443 287
f 403 472 471
f 443 471 463
f 472 403 474
f 474 475 472
f 475 525 481
f 149 137 136
f 151 149 161
f 242 183 275
f 192 191 181
f 214 181 223
f 607 240 214
f 165 278 277
f 213 124 278
f 167 125 213
f 226 201 184
f 201 239 96
f 239 253 96
f 55 253 260
f 413 421 424
f 418 413 427
f 431 427 439
f 437 431 450
f 243 611 609
f 567 525 607
f 284 396 397
f 443 483 287
f 475 471 472
f 443 463 483
f 471 483 463
f 475 481 471
f 525 482 481
f 149 136 132
f 149 135 161
f 274 275 183
f 191 140 181
f 181 258 223
f 607 214 605
f 165 277 274
f 213 123 124
f 167 270 125
f 213 125 123
f 184 201 185
f 96 253 53
f 55 53 253
f 419 413 424
f 427 413 416
f 439 427 453
f 445 431 439
f 450 431 464
f 567 600 525
f 600 567 607
f 285 284 397
f 287 483 288
f 483 471 480
f 471 481 480
f 481 482 490
f 521 482 525
f 149 132 135
f 161 135 155
f 165 274 183
f 274 279 275
f 181 140 180
f 181 179 258
f 214 223 605
f 607 605 600
f 274 277 279
f 170 270 167
f 184 185 100
f 201 97 185
f 419 416 413
f 419 427 416
f 453 427 456
f 439 453 444
f 464 431 445
f 444 445 439
f 525 600 545
f 284 285 286
f 397 287 285
f 480 481 483
f 489 481 490
f 490 482 498
f 498 482 521
f 135 132 145
f 155 135 145
f 279 276 275
f 140 179 180
f 180 179 181
f 179 203 258
f 223 248 605
f 605 593 600
f 279 277 276
f 170 171 270
f 184 100 172
f 97 100 185
f 201 98 97
f 427 419 455
f 456 427 455
f 454 453 456
f 434 444 453
f 464 445 446
f 457 445 444
f 545 521 525
f 600 593 545
f 287 286 285
f 481 494 483
f 489 494 481
f 489 490 493
f 490 498 491
f 521 541 498
f 155 145 191
f 140 160 179
f 179 182 203
f 203 255 258
f 605 248 593
f 270 171 128
f 172 100 99
f 96 98 201
f 293 455 419
f 456 455 459
f 487 453 454
f 454 456 441
f 479 444 434
f 434 453 479
f 458 446 445
f 465 464 446
f 444 458 457
f 457 458 445
f 545 541 521
f 593 541 545
f 483 494 476
f 489 493 494
f 490 492 493
f 490 491 492
f 498 499 491
f 541 538 498
f 152 191 145
f 160 178 179
f 177 182 179
f 182 222 203
f 203 222 255
f 248 541 593
f 99 128 171
f 270 128 127
f 172 99 174
f 293 419 568
f 455 293 292
f 459 441 456
f 470 453 487
f 487 454 459
f 459 454 441
f 479 468 444
f 470 479 453
f 446 458 488
f 466 465 446
f 458 444 468
f 483 476 509
f 476 494 495
f 494 493 495
f 493 492 496
f 491 546 492
f 491 499 500
f 538 499 498
f 541 248 538
f 145 142 152
f 152 140 191
f 160 143 178
f 178 177 179
f 182 177 189
f 182 189 222
f 222 256 255
f 174 99 171
f 270 127 126
f 172 174 171
f 293 291 292
f 638 455 292
f 479 470 487
f 518 487 459
f 468 479 515
f 488 478 446
f 488 458 468
f 449 466 446
f 532 509 476
f 495 532 476
f 497 495 493
f 492 546 496
f 493 496 497
f 491 500 546
f 499 510 500
f 538 263 499
f 248 251 538
f 145 133 142
f 152 142 140
f 142 143 160
f 143 156 178
f 178 156 177
f 177 173 189
f 222 189 249
f 222 249 256
f 270 126 125
f 291 638 292
f 517 479 487
f 459 564 518
f 484 487 518
f 513 468 515
f 515 479 508
f 449 446 478
f 478 488 507
f 501 488 468
f 548 509 532
f 495 565 532
f 495 497 550
f 496 546 555
f 496 555 497
f 543 546 500
f 256 510 499
f 500 510 520
f 499 263 256
f 255 263 538
f 251 254 538
f 142 133 129
f 140 142 160
f 142 130 143
f 156 176 177
f 177 159 173
f 173 190 189
f 249 189 220
f 249 220 256
f 514 479 517
f 517 487 484
f 501 468 513
f 508 479 514
f 485 478 507
f 502 507 488
f 488 501 502
f 288 509 548
f 532 565 548
f 550 565 495
f 550 497 556
f 555 546 557
f 555 566 497
f 500 533 543
f 546 543 557
f 510 256 512
f 500 520 533
f 510 511 520
f 254 255 538
f 129 141 142
f 142 141 130
f 143 130 134
f 156 169 176
f 176 159 177
f 173 159 190
f 189 190 220
f 504 485 507
f 526 507 502
f 288 548 560
f 548 565 576
f 565 550 556
f 497 566 556
f 557 563 555
f 555 574 566
f 533 544 543
f 557 543 563
f 250 512 256
f 510 512 511
f 520 537 533
f 511 512 520
f 143 134 144
f 156 148 169
f 176 169 159
f 190 159 188
f 190 196 220
f 503 485 504
f 506 504 507
f 507 526 506
f 560 615 288
f 560 548 578
f 576 581 548
f 565 569 576
f 565 556 569
f 556 566 571
f 555 563 574
f 566 574 575
f 544 533 553
f 544 559 543
f 573 563 543
f 512 250 522
f 520 531 537
f 533 537 553
f 512 531 520
f 144 134 156
f 143 144 156
f 148 159 169
f 188 159 196
f 188 196 190
f 504 506 505
f 290 288 615
f 615 560 578
f 578 548 581
f 581 576 592
f 569 592 576
f 569 556 577
f 556 571 595
f 566 583 571
f 563 573 574
f 566 575 583
f 574 585 575
f 559 544 553
f 543 559 589
f 573 543 580
f 250 516 522
f 512 522 531
f 531 540 537
f 537 562 553
f 134 146 156
f 148 154 159
f 159 187 196
f 505 506 777
f 290 615 617
f 578 604 615
f 578 581 604
f 581 592 621
f 569 577 592
f 577 556 595
f 571 583 595
f 573 582 574
f 575 594 583
f 574 590 585
f 585 586 575
f 559 553 579
f 543 589 580
f 559 579 589
f 573 580 582
f 250 554 516
f 516 524 522
f 531 522 540
f 540 562 537
f 562 588 553
f 156 146 131
f 154 148 273
f 154 273 159
f 159 168 187
f 196 187 241
f 486 505 777
f 777 506 712
f 615 604 617
f 604 581 617
f 581 621 637
f 592 577 621
f 577 595 606
f 595 583 587
f 582 590 574
f 575 586 594
f 583 594 587
f 590 582 585
f 585 601 586
f 579 553 591
f 580 589 582
f 589 579 597
f 554 536 516
f 516 523 524
f 522 524 534
f 540 522 534
f 540 529 562
f 591 553 588
f 588 562 551
f 156 131 230
f 273 150 159
f 150 168 159
f 168 175 187
f 175 241 187
f 196 241 264
f 777 723 486
f 712 506 707
f 777 712 710
f 617 581 637
f 621 606 637
f 577 606 621
f 595 599 606
f 595 587 599
f 594 586 622
f 587 594 602
f 601 585 582
f 601 634 586
f 579 591 597
f 582 589 597
f 516 536 523
f 265 536 554
f 535 524 523
f 534 524 528
f 534 529 540
f 529 551 562
f 616 591 588
f 588 551 596
f 156 230 147
f 150 153 168
f 153 175 168
f 175 198 241
f 196 264 250
f 264 241 266
f 723 717 486
f 723 777 773
f 707 506 639
f 712 707 710
f 708 777 710
f 599 631 606
f 599 587 598
f 586 623 622
f 594 622 608
f 598 587 602
f 594 608 602
f 582 597 601
f 586 634 623
f 601 627 634
f 597 591 603
f 536 535 523
f 265 119 536
f 257 265 554
f 524 535 539
f 524 558 528
f 534 528 529
f 551 529 549
f 588 614 616
f 591 616 601
f 551 584 596
f 588 596 610
f 156 147 148
f 147 230 231
f 105 175 153
f 175 105 198
f 241 198 265
f 196 250 256
f 241 265 266
f 717 762 486
f 717 723 721
f 773 721 723
f 708 773 777
f 599 602 631
f 598 602 599
f 602 622 623
f 608 622 602
f 597 603 601
f 601 616 627
f 603 591 601
f 536 530 535
f 536 119 530
f 539 558 524
f 535 117 539
f 528 558 529
f 549 529 558
f 549 570 551
f 588 610 614
f 616 614 627
f 551 572 584
f 584 120 596
f 610 596 614
f 147 232 148
f 147 231 232
f 105 121 198
f 198 267 265
f 265 267 266
f 762 477 486
f 725 762 717
f 713 717 721
f 721 773 770
f 773 708 770
f 602 623 631
f 535 530 117
f 530 119 118
f 558 539 117
f 549 558 570
f 570 572 551
f 627 614 700
f 572 570 584
f 570 120 584
f 596 120 628
f 596 628 614
f 148 232 273
f 198 121 122
f 198 271 267
f 762 767 477
f 725 717 722
f 726 762 725
f 722 717 713
f 713 721 715
f 721 770 780
f 708 709 770
f 530 118 117
f 558 117 552
f 558 552 570
f 700 614 692
f 627 700 698
f 552 120 570
f 232 233 273
f 122 119 198
f 198 119 271
f 267 271 119
f 767 448 477
f 762 765 767
f 725 722 392
f 727 726 725
f 726 765 762
f 716 722 713
f 716 713 715
f 715 721 780
f 770 709 780
f 709 708 706
f 117 116 552
f 614 705 692
f 700 692 694
f 627 698 633
f 700 697 698
f 120 552 116
f 273 233 245
f 448 767 452
f 767 765 447
f 716 392 722
f 754 725 392
f 730 727 725
f 729 726 727
f 765 726 768
f 716 715 720
f 715 780 781
f 709 706 711
f 614 626 705
f 626 692 705
f 694 692 693
f 700 694 693
f 633 698 702
f 698 697 702
f 700 685 697
f 245 246 273
f 767 447 452
f 768 447 765
f 392 716 720
f 754 755 725
f 746 730 725
f 730 731 727
f 729 728 726
f 727 731 729
f 726 756 768
f 724 720 715
f 715 781 714
f 784 711 706
f 780 709 711
f 692 626 107
f 107 693 692
f 700 693 685
f 633 702 704
f 702 697 699
f 697 685 680
f 246 247 273
f 768 451 447
f 392 720 724
f 755 736 725
f 736 746 725
f 746 731 730
f 734 726 728
f 729 759 728
f 731 732 729
f 734 756 726
f 756 766 768
f 724 715 714
f 714 781 12
f 784 706 20
f 780 711 784
f 693 107 108
f 668 685 693
f 629 633 704
f 704 702 696
f 699 697 680
f 702 699 696
f 680 685 660
f 150 273 247
f 451 768 437
f 779 392 724
f 755 741 736
f 741 746 736
f 746 737 731
f 759 734 728
f 732 759 729
f 795 732 731
f 734 757 756
f 747 766 756
f 766 778 768
f 724 714 718
f 11 714 12
f 782 12 781
f 784 20 782
f 783 780 784
f 693 108 678
f 685 668 660
f 693 678 668
f 629 704 703
f 703 704 696
f 699 680 679
f 699 679 696
f 680 660 675
f 150 247 272
f 778 437 768
f 771 392 779
f 724 718 779
f 764 741 755
f 746 741 764
f 737 751 731
f 746 294 737
f 759 733 734
f 750 759 732
f 751 795 731
f 795 750 732
f 757 734 747
f 756 757 747
f 747 778 766
f 718 714 11
f 12 782 20
f 781 784 782
f 781 780 783
f 781 783 784
f 678 108 668
f 660 668 662
f 629 703 630
f 696 688 703
f 680 675 679
f 689 696 679
f 675 660 659
f 150 272 106
f 778 425 437
f 18 771 779
f 779 718 719
f 393 764 755
f 745 746 764
f 737 738 751
f 294 738 737
f 745 294 746
f 802 734 733
f 759 802 733
f 795 794 750
f 734 744 747
f 747 776 778
f 718 11 13
f 668 108 109
f 662 110 660
f 668 110 662
f 624 630 703
f 688 696 682
f 703 688 686
f 679 675 656
f 689 679 682
f 696 689 682
f 660 115 659
f 656 675 659
f 150 106 104
f 425 778 774
f 18 779 14
f 719 718 13
f 13 779 719
f 393 755 754
f 749 764 393
f 743 745 764
f 738 796 751
f 739 738 294
f 742 294 745
f 802 735 734
f 800 802 759
f 772 744 734
f 744 760 747
f 747 774 776
f 776 774 778
f 668 109 110
f 660 110 111
f 624 703 632
f 688 682 686
f 690 703 686
f 672 679 656
f 672 682 679
f 659 115 651
f 660 111 115
f 656 659 654
f 153 150 104
f 774 422 425
f 14 779 13
f 393 754 392
f 15 749 393
f 748 764 749
f 742 745 743
f 748 743 764
f 740 796 738
f 19 294 742
f 735 772 734
f 794 800 759
f 806 802 800
f 772 810 744
f 760 744 752
f 747 760 763
f 747 763 774
f 632 703 690
f 686 682 676
f 632 690 686
f 672 656 658
f 682 672 676
f 651 115 114
f 654 659 651
f 656 654 650
f 104 103 153
f 774 423 422
f 16 749 15
f 16 748 749
f 748 742 743
f 738 9 740
f 9 796 740
f 19 742 748
f 803 772 735
f 806 800 790
f 806 820 802
f 744 810 752
f 772 819 810
f 760 752 774
f 763 760 774
f 686 676 664
f 632 686 683
f 658 656 652
f 672 658 664
f 676 672 664
f 651 114 644
f 654 651 650
f 652 656 650
f 153 103 105
f 774 775 423
f 16 17 748
f 19 748 17
f 803 828 772
f 790 800 799
f 790 801 806
f 802 820 803
f 839 820 806
f 810 753 752
f 772 822 819
f 811 810 819
f 774 752 769
f 686 664 683
f 683 691 632
f 658 652 653
f 664 658 657
f 644 114 113
f 651 644 113
f 650 651 646
f 652 650 653
f 775 429 423
f 769 775 774
f 829 772 828
f 803 820 828
f 790 799 794
f 799 800 797
f 791 801 790
f 801 816 806
f 803 735 802
f 839 806 816
f 839 804 820
f 753 769 752
f 812 753 810
f 772 831 822
f 831 819 822
f 812 810 811
f 819 833 811
f 665 683 664
f 632 691 684
f 691 683 684
f 657 658 653
f 661 664 657
f 651 113 646
f 650 646 642
f 650 648 653
f 758 429 775
f 758 775 769
f 829 830 772
f 830 829 828
f 804 828 820
f 790 794 789
f 794 799 797
f 797 800 794
f 789 791 790
f 798 801 791
f 801 824 816
f 816 843 839
f 839 842 804
f 753 758 769
f 758 753 812
f 830 831 772
f 831 830 819
f 833 812 811
f 832 833 819
f 665 664 661
f 683 665 674
f 701 632 684
f 684 683 677
f 657 653 661
f 646 113 642
f 648 650 642
f 653 648 642
f 758 814 429
f 805 830 828
f 804 805 828
f 793 789 794
f 792 791 789
f 283 798 791
f 283 801 798
f 283 824 801
f 824 843 816
f 842 839 843
f 836 804 842
f 812 814 758
f 830 832 819
f 817 812 833
f 830 833 832
f 673 665 661
f 674 665 673
f 670 683 674
f 701 606 632
f 695 701 684
f 670 677 683
f 684 677 670
f 661 653 649
f 113 112 642
f 645 653 642
f 814 426 429
f 809 830 805
f 804 836 805
f 789 793 795
f 793 794 795
f 792 789 787
f 282 791 792
f 282 283 791
f 283 843 824
f 841 842 843
f 841 836 842
f 817 814 812
f 821 817 833
f 809 833 830
f 673 661 666
f 674 673 670
f 636 606 701
f 695 684 681
f 636 701 695
f 681 684 670
f 653 645 649
f 661 649 647
f 642 112 641
f 645 642 641
f 814 818 426
f 807 809 805
f 836 807 805
f 789 795 788
f 787 789 788
f 786 792 787
f 280 282 792
f 283 825 843
f 834 841 843
f 836 841 838
f 817 818 814
f 821 823 817
f 815 821 833
f 809 827 833
f 666 661 663
f 670 673 666
f 695 681 687
f 617 636 695
f 687 681 670
f 649 645 641
f 647 649 643
f 655 661 647
f 641 112 640
f 818 761 426
f 837 809 807
f 788 795 785
f 786 787 788
f 10 792 786
f 281 280 792
f 283 826 825
f 825 834 843
f 835 841 834
f 838 837 836
f 841 840 838
f 823 818 817
f 813 823 821
f 815 813 821
f 827 815 833
f 808 827 809
f 661 655 663
f 667 666 663
f 670 666 667
f 671 695 687
f 617 695 289
f 687 670 669

