v -0.34498225 0.3354545 -0.273994375
v -0.339133375 0.34755775 -0.274269625
v -0.33318875 0.359685 -0.274006375
v -0.304171875 0.39134075 -0.27298925
v -0.29681225 0.400345125 -0.270373125
v -0.26458634375 0.42057725 -0.25632715625
v -0.267199453125 0.435347703125 -0.2434654375
v -0.259294046875 0.44075925 -0.2338224375
v -0.251306375 0.444372375 -0.223098
v -0.262071875 0.451811125 -0.21864725
v -0.273181625 0.457885875 -0.2125825
v -0.32223575 0.454167875 -0.21276925
v -0.328133625 0.449267 -0.2195925
v -0.312414625 0.45554475 -0.21699175
v -0.304072 0.460048875 -0.209413875
v -0.292659796875 0.457878390625 -0.216589921875
v -0.300666296875 0.452273890625 -0.2264498125
v -0.281243375 0.453792890625 -0.22286721875
v -0.27008246875 0.447918328125 -0.228783640625
v -0.278042890625 0.4423269375 -0.238387109375
v -0.274962484375 0.428306390625 -0.251968828125
v -0.2933980625 0.42682709375 -0.254550046875
v -0.308538234375 0.445256671875 -0.235432203125
v -0.31615290625 0.4368683125 -0.24325521875
v -0.297083453125 0.44099475 -0.24166009375
v -0.3047080625 0.43250778125 -0.249396625
v -0.30064440625 0.4173919375 -0.260996890625
v -0.30758746875 0.4068891875 -0.26596634375
v -0.313814375 0.393492 -0.270632
v -0.3459765 0.364512125 -0.268396375
v -0.349887375 0.35342575 -0.269236625
v -0.355705 0.341310125 -0.268689
v -0.350836625 0.397271875 -0.253725875
v -0.347393 0.40820425 -0.250810375
v -0.341377125 0.419544625 -0.247148125
v -0.3234236875 0.427219203125 -0.2495909375
v -0.311982578125 0.422925453125 -0.2558408125
v -0.31885009375 0.41238821875 -0.26080734375
v -0.330241203125 0.416648875 -0.25456065625
v -0.34858775 0.38191025 -0.26202775
v -0.34460575 0.392780625 -0.260049125
v -0.336504984375 0.405337375 -0.258126671875
v -0.325330390625 0.40109075 -0.26427796875
v -0.35931575 0.3298955 -0.268563375
v -0.35238 0.37066575 -0.2633805
v -0.3378150625 0.377403890625 -0.2679854375
v -0.331673421875 0.38939984375 -0.266649546875
v -0.3208845 0.383965625 -0.2719185
v -0.285833875 0.435207515625 -0.24705528125
v -0.289200796875 0.44812640625 -0.232711953125
v -0.322214125 0.4472645 -0.228261125
v -0.327481625 0.4398305 -0.236044
v -0.334693 0.430224875 -0.242342125
v -0.295557125 0.46360325 -0.201341125
v -0.222794888889 0.426713944444 -0.213727777778
v -0.351192375 0.32544725 -0.27237575
v -0.32714475 0.371894875 -0.27326625
v -0.284526625 0.4622065 -0.20615275
v -0.24129475 0.437435875 -0.22531525
v -0.2490035625 0.432582421875 -0.238323359375
v -0.2372455 0.423107 -0.241820625
v -0.229931375 0.41433825 -0.245858625
v -0.222650625 0.405535625 -0.249349875
v -0.2894315 0.408677875 -0.266783875
v -0.228241 0.402082375 -0.25656775
v -0.237113625 0.407771625 -0.25669325
v -0.2468893125 0.41868553125 -0.251870484375
v -0.245431625 0.4053215 -0.262018625
v -0.26280575 0.4063835 -0.265609375
v -0.280116125 0.405509375 -0.2681225
v -0.232547375 0.42682975 -0.23244875
v -0.221607875 0.416401875 -0.234687125
v -0.214259 0.407823125 -0.237832
v -0.196176 0.388293625 -0.240499625
v -0.187707375 0.37791925 -0.2418615
v -0.179958125 0.368827875 -0.24141475
v -0.226284625 0.42690975 -0.223595375
v -0.23572975 0.437586 -0.216058375
v -0.256238875 0.45299825 -0.209831375
v -0.270551625 0.4630835 -0.19076275
v -0.23539775 0.319405625 -0.0986591625
v -0.23894825 0.33763475 -0.0985312875
v -0.24786025 0.43598825 -0.146102375
v -0.25322525 0.443132625 -0.152100625
v -0.28259225 0.42003634375 -0.259319265625
v -0.271983375 0.410473375 -0.264771875
v -0.251997375 0.440466125 -0.16185025
v -0.248546625 0.44550996875 -0.179558171875
v -0.264181125 0.457094875 -0.17962775
v -0.255828890625 0.453954875 -0.189033453125
v -0.24828440625 0.449252671875 -0.198620734375
v -0.233192953125 0.436673078125 -0.19803403125
v -0.226861625 0.431188734375 -0.20679196875
v -0.2158103125 0.419480125 -0.212356609375
v -0.209508375 0.409343234375 -0.225014890625
v -0.2009451875 0.399341625 -0.226018609375
v -0.190968 0.38785075 -0.22557275
v -0.184016875 0.378678 -0.228447375
v -0.177409875 0.369266375 -0.23136725
v -0.254481125 0.410227625 -0.261493
v -0.192037 0.390261 -0.214338875
v -0.206587375 0.408901 -0.20952175
v -0.199017375 0.399558625 -0.21179925
v -0.23374853125 0.43175603125 -0.1808053125
v -0.226011703125 0.427307265625 -0.190504125
v -0.240521015625 0.4416071875 -0.188907890625
v -0.24184578125 0.435774015625 -0.171274859375
v -0.23575765625 0.4253993125 -0.16409771875
v -0.217171265625 0.400155484375 -0.161090625
v -0.22230178125 0.41064275 -0.16769390625
v -0.217841625 0.415168 -0.185000375
v -0.2141805 0.4064735 -0.178576125
v -0.211877375 0.412542 -0.19641475
v -0.256795 0.42735315625 -0.247917703125
v -0.209444125 0.395877625 -0.172120125
v -0.204926875 0.385366375 -0.165381125
v -0.201608 0.3769325 -0.15797275
v -0.2120565625 0.389824609375 -0.154294515625
v -0.20532425 0.377725125 -0.147915
v -0.202964625 0.3712555 -0.139879125
v -0.207935125 0.374656125 -0.131665125
v -0.213269625 0.38438725 -0.136346125
v -0.23772975 0.418772375 -0.146907875
v -0.243584125 0.42840825 -0.151924375
v -0.224190140625 0.4048116875 -0.150179734375
v -0.218850625 0.393931625 -0.14107225
v -0.229810046875 0.41506753125 -0.15708396875
v -0.227723125 0.421259609375 -0.174046890625
v -0.219475359375 0.42292428125 -0.20100821875
v -0.257316375 0.448099875 -0.170428625
v -0.248753625 0.445950125 -0.21645975
v -0.234548 0.412711 -0.129407125
v -0.205116625 0.398150375 -0.239340125
v -0.22520775 0.299891625 -0.087225575
v -0.2302385 0.30658 -0.0930103625
v -0.2303465 0.299584 -0.1019272125
v -0.21959225 0.41977325 -0.225692625
v -0.232067875 0.28824525 -0.109537125
v -0.2334635 0.27688325 -0.11458525
v -0.241301875 0.443302625 -0.21010225
v -0.229189375 0.258068 -0.111970875
v -0.229399625 0.2685685 -0.10915125
v -0.225931625 0.280399125 -0.097982425
v -0.221782125 0.272008 -0.0925657625
v -0.22280925 0.26161825 -0.0973381375
v -0.263908125 0.459479 -0.199892
v -0.225075375 0.25285425 -0.1045758625
v -0.234785 0.329835375 -0.110748375
v -0.235950625 0.322554125 -0.117399375
v -0.23070875 0.318638375 -0.0866395125
v -0.3117185 0.348798 -0.233144625
v -0.230782 0.404621875 -0.124369
v -0.22558175 0.39879725 -0.132988625
v -0.2330725 0.4106495 -0.139471625
v -0.31946225 0.344085 -0.243800625
v -0.317351625 0.35317875 -0.23990075
v -0.23646375 0.327877125 -0.092832975
v -0.23331775 0.314402625 -0.094342525
v -0.227840125 0.33509 -0.0870426125
v -0.232964875 0.345581375 -0.090266975
v -0.247936375 0.3979165 -0.129342375
v -0.245377625 0.395123625 -0.11106
v -0.24979225 0.40540675 -0.11906925
v -0.24482525 0.379798 -0.1298285
v -0.24082225 0.370058125 -0.124288
v -0.254063125 0.415406875 -0.12732625
v -0.25771725 0.422706 -0.13624375
v -0.256649625 0.41656375 -0.143731375
v -0.314504625 0.33967425 -0.236507
v -0.238194 0.35882025 -0.112091625
v -0.244205 0.37909075 -0.1125745
v -0.247935875 0.38753175 -0.137813625
v -0.236826625 0.337415375 -0.116272125
v -0.245663 0.38747475 -0.120883125
v -0.2517045 0.407742375 -0.137732
v -0.24162625 0.385002625 -0.105647375
v -0.23375075 0.330703125 -0.122536125
v -0.239135125 0.36419925 -0.13086425
v -0.240675125 0.372719875 -0.138848125
v -0.244139375 0.382416 -0.1448005
v -0.238437875 0.35610075 -0.0967478
v -0.24132025 0.364227875 -0.1046571
v -0.244989875 0.264565625 -0.1354045
v -0.238400125 0.348231 -0.1065338
v -0.236716875 0.232296 -0.132466625
v -0.23350075 0.203275375 -0.133490875
v -0.2374365 0.181674125 -0.141785375
v -0.24419475 0.184647875 -0.151298875
v -0.25092825 0.20431 -0.15641825
v -0.24262375 0.239293375 -0.137848
v -0.255599875 0.24299225 -0.144711875
v -0.257189125 0.231120125 -0.151136875
v -0.256890375 0.220182625 -0.156204
v -0.251365125 0.255138375 -0.140232
v -0.242333375 0.250100875 -0.133223625
v -0.258779125 0.204943875 -0.16359625
v -0.24606165625 0.226409046875 -0.145109078125
v -0.24928475 0.213472625 -0.1525275
v -0.23811825 0.21015375 -0.139939375
v -0.241671109375 0.196995375 -0.146672078125
v -0.259986125 0.195737125 -0.167792
v -0.252359 0.18977425 -0.1608405
v -0.2345015 0.191847875 -0.136434625
v -0.237249625 0.2213195 -0.13644925
v -0.24126 0.260846375 -0.128768625
v -0.2253405 0.29047275 -0.0928628625
v -0.3559505 0.326138 -0.2703325
v -0.3585525 0.335218 -0.268275
v -0.350343625 0.3383823125 -0.2713416875
v -0.347777 0.329325 -0.2734865
v -0.3528175 0.3473765 -0.269027
v -0.344510375 0.35049175 -0.271753125
v -0.342086 0.341519 -0.274229
v -0.346912 0.3594665 -0.2692655
v -0.3385438125 0.3625943125 -0.271544625
v -0.3361695 0.35361 -0.2741955
v -0.3408545625 0.371354125 -0.2685025
v -0.332471375 0.3747329375 -0.27068225
v -0.3301855 0.365792 -0.273702
v -0.310984875 0.40132025 -0.2679155
v -0.3021605625 0.4036919375 -0.268221125
v -0.3002685 0.394768 -0.272236
v -0.309009 0.392443 -0.271885
v -0.30414675 0.41226025 -0.263667875
v -0.295172875 0.4141650625 -0.26332075
v -0.2933165 0.4056925 -0.2681485
v -0.251784125 0.4230935625 -0.249970375
v -0.2507850625 0.4155920625 -0.2561214375
v -0.2595968125 0.4164224375 -0.258249
v -0.2606926875 0.4241464375 -0.25227725
v -0.2586285 0.408343 -0.263551
v -0.2674165 0.408507 -0.2652505
v -0.2684626875 0.4166643125 -0.260030375
v -0.2773785 0.4163338125 -0.2614538125
v -0.2788081875 0.4243114375 -0.255791125
v -0.2697093125 0.4245395625 -0.254227125
v -0.27109625 0.432002875 -0.2478589375
v -0.261936375 0.4314560625 -0.2457594375
v -0.254070875 0.436783625 -0.2361183125
v -0.2529065625 0.4301786875 -0.2432855625
v -0.2632620625 0.4382876875 -0.2387923125
v -0.280342625 0.43187475 -0.2495721875
v -0.281963375 0.4389394375 -0.242858625
v -0.2725754375 0.4389735 -0.2410055625
v -0.2740764375 0.4453418125 -0.2336790625
v -0.2646355625 0.444480125 -0.2314011875
v -0.2460595 0.4404125 -0.225201
v -0.2450621875 0.43452375 -0.232973625
v -0.255305375 0.4426988125 -0.2285386875
v -0.2660794375 0.44999075 -0.22375
v -0.256644 0.448213 -0.221005
v -0.2756218125 0.4510459375 -0.225898875
v -0.277220875 0.4559558125 -0.217752
v -0.2675895 0.4550435 -0.21575
v -0.2869369375 0.456089125 -0.219809
v -0.288602625 0.460134125 -0.2114103125
v -0.278833 0.460314 -0.209414
v -0.315919375 0.45128825 -0.22367125
v -0.325193 0.448375 -0.224004
v -0.3264915 0.451739 -0.215086
v -0.3173355 0.4549305 -0.214927
v -0.29836925 0.4591044375 -0.2130756875
v -0.2966793125 0.4552559375 -0.221613625
v -0.306385625 0.4536144375 -0.2229110625
v -0.308097 0.4575285 -0.214396
v -0.304625875 0.448939375 -0.231066875
v -0.31423975 0.4467645 -0.231899875
v -0.2902455 0.463442 -0.202707
v -0.300029 0.462273 -0.2043195
v -0.285232375 0.45116425 -0.227873875
v -0.2949170625 0.450430875 -0.2296864375
v -0.2931615625 0.444735875 -0.2373214375
v -0.3028044375 0.4433289375 -0.2386721875
v -0.283580375 0.4454015 -0.235617375
v -0.291420375 0.4382675625 -0.2444361875
v -0.28792875 0.4235500625 -0.256995
v -0.289650375 0.431159375 -0.25093875
v -0.2862735625 0.4154994375 -0.2625466875
v -0.297062125 0.42224275 -0.2579301875
v -0.30627025 0.4203104375 -0.2585283125
v -0.308393 0.4278435 -0.2527913125
v -0.29901025 0.4298195625 -0.2520534375
v -0.30093525 0.436905125 -0.2456856875
v -0.31043425 0.4348720625 -0.2464710625
v -0.3123835625 0.4412300625 -0.2395131875
v -0.321828125 0.4384524375 -0.2397275625
v -0.3237415 0.444137 -0.2323045
v -0.3177135625 0.425241875 -0.2528601875
v -0.3198373125 0.4321801875 -0.2466036875
v -0.3290734375 0.4288169375 -0.2460375625
v -0.331141 0.435183 -0.2393895
v -0.3131715625 0.4097873125 -0.263506
v -0.3154693125 0.4177668125 -0.2585161875
v -0.319795375 0.3984941875 -0.26702325
v -0.3221218125 0.4068103125 -0.2627041875
v -0.3262689375 0.3867539375 -0.269338125
v -0.32852175 0.3952871875 -0.2655999375
v -0.3176225 0.389905 -0.270939
v -0.351518 0.375789 -0.26237
v -0.343192875 0.379740625 -0.265063
v -0.349166 0.367576 -0.265912
v -0.3419755 0.4068734375 -0.2545575625
v -0.3395140625 0.399552875 -0.259459125
v -0.347674 0.3950105 -0.2569315
v -0.3501285 0.402153 -0.25201
v -0.33583175 0.4181981875 -0.25094025
v -0.333428625 0.411058875 -0.2565068125
v -0.3444735 0.413976 -0.2491535
v -0.3268989375 0.422038875 -0.2522493125
v -0.338111 0.4249865 -0.244903
v -0.3245603125 0.4146938125 -0.257837625
v -0.3309284375 0.4033908125 -0.261339625
v -0.337118 0.3917609375 -0.2637445625
v -0.3347629375 0.3834289375 -0.26740625
v -0.345597 0.387994 -0.261501
v -0.3240515 0.3779575 -0.272683
v -0.2303973125 0.431991375 -0.21908625
v -0.2295445 0.427661 -0.227217
v -0.2367763125 0.4314124375 -0.229849125
v -0.2374035 0.436545 -0.221442
v -0.235837 0.425496 -0.23759
v -0.244129625 0.4281848125 -0.240472125
v -0.2430796875 0.4213640625 -0.247304
v -0.2336189375 0.4120268125 -0.2505703125
v -0.242096125 0.4141373125 -0.2535710625
v -0.234605 0.41911 -0.2443205
v -0.22428 0.4026355 -0.2532895
v -0.232646 0.405034 -0.2567295
v -0.2252405 0.409625 -0.247204
v -0.24996 0.4078795 -0.261853
v -0.2412625 0.4065765 -0.2593775
v -0.276029 0.4080425 -0.266471
v -0.2848075 0.407169 -0.267501
v -0.213813 0.414047875 -0.2247020625
v -0.2116944375 0.4086743125 -0.2314779375
v -0.2188625 0.4126345 -0.2368665
v -0.220619 0.418095 -0.230228
v -0.205216 0.4044128125 -0.22548025
v -0.2028439375 0.3988271875 -0.2327541875
v -0.2096735 0.402998 -0.2386495
v -0.188074 0.383954 -0.227833
v -0.185862125 0.378298625 -0.2351544375
v -0.191903 0.383149 -0.2411595
v -0.1941781875 0.388737875 -0.233883375
v -0.19670525 0.3942146875 -0.2265504375
v -0.200599 0.3932715 -0.239925
v -0.1799955 0.37335 -0.2291425
v -0.17766 0.3677235 -0.2365705
v -0.1835165 0.372686 -0.2425625
v -0.2197519375 0.42379075 -0.213158375
v -0.2163585625 0.4189165625 -0.2183055625
v -0.222224 0.423496 -0.2232845
v -0.2243434375 0.4274694375 -0.2171499375
v -0.2304316875 0.434095 -0.210865625
v -0.224408875 0.4287408125 -0.2108346875
v -0.23715075 0.4404665625 -0.20263575
v -0.229841125 0.433909625 -0.2024936875
v -0.2376175 0.440405 -0.2116415
v -0.2447043125 0.446383625 -0.2032799375
v -0.245018 0.4445795 -0.2133515
v -0.2524965 0.449129 -0.2144975
v -0.2522581875 0.451429125 -0.2041180625
v -0.2598071875 0.456950125 -0.194358875
v -0.2519678125 0.4518008125 -0.19383775
v -0.259973 0.45644 -0.204828
v -0.2682535 0.46214 -0.195428
v -0.268345 0.46097 -0.185223
v -0.259942 0.4556416875 -0.1843103125
v -0.246688625 0.4341014375 -0.1580091875
v -0.2526475 0.4417825 -0.1569605
v -0.2510055 0.440412 -0.147814
v -0.2456615 0.432229 -0.1489675
v -0.239858 0.4271418125 -0.1591530625
v -0.238756 0.4306210625 -0.1676066875
v -0.2461950625 0.4372085625 -0.1666736875
v -0.245119625 0.440748 -0.175267
v -0.252876125 0.4469040625 -0.1749718125
v -0.254 0.443288 -0.1662265
v -0.2377305625 0.433894 -0.17600825
v -0.237016875 0.4368409375 -0.1846641875
v -0.244438625 0.4437193125 -0.184230875
v -0.2443244375 0.4458615625 -0.193555375
v -0.252095875 0.450026875 -0.1841234375
v -0.2606075 0.4527535 -0.174796
v -0.24763 0.400291 -0.115015
v -0.2488643125 0.401661625 -0.1242058125
v -0.2466245 0.392749 -0.125097
v -0.2455203125 0.3912991875 -0.1159715625
v -0.2367626875 0.4392486875 -0.1935071875
v -0.2225175 0.4250734375 -0.1956445
v -0.2232043125 0.4274139375 -0.20361425
v -0.2294903125 0.43220725 -0.194026125
v -0.2297988125 0.429547625 -0.1855975
v -0.2170444375 0.4209379375 -0.206584875
v -0.215690375 0.4178734375 -0.198649625
v -0.209224 0.4110585 -0.2036815
v -0.2118368125 0.41488825 -0.2117275625
v -0.2080793125 0.409647625 -0.218333875
v -0.2030415 0.4047555 -0.2115715
v -0.1997943125 0.3995313125 -0.21898375
v -0.194946 0.394247 -0.2121735
v -0.1915 0.389041 -0.21994
v -0.223685875 0.41915425 -0.17914
v -0.222726 0.4222113125 -0.187360125
v -0.2306525 0.4265456875 -0.1773123125
v -0.231729875 0.4233899375 -0.1690475625
v -0.2154735 0.4146655 -0.1900855
v -0.2260703125 0.4128883125 -0.1623385
v -0.22495475 0.4159475 -0.17087075
v -0.232758125 0.4202189375 -0.1605831875
v -0.240803 0.4238 -0.150488
v -0.233725875 0.4169853125 -0.151962625
v -0.208538875 0.387558625 -0.1598391875
v -0.2071935 0.390599 -0.168772
v -0.213377625 0.397972 -0.1666056875
v -0.2146256875 0.3949729375 -0.157709125
v -0.211749 0.4011695 -0.1754245
v -0.2182995625 0.4085259375 -0.173117875
v -0.219718625 0.40537875 -0.164426375
v -0.2269660625 0.4099326875 -0.1536209375
v -0.2206851875 0.4025171875 -0.1555743125
v -0.22144625 0.3997018125 -0.146746
v -0.215385625 0.3922380625 -0.148744375
v -0.216811 0.4117885 -0.181466
v -0.2094385625 0.384704 -0.1508594375
v -0.203502 0.3773215 -0.1529525
v -0.202574 0.3802125 -0.1619485
v -0.2159255 0.3895735 -0.139773
v -0.210046875 0.381971125 -0.141868875
v -0.210683 0.3791555 -0.1328955
v -0.2047955 0.371667 -0.134899
v -0.204143 0.374489 -0.1438875
v -0.227956875 0.4067935625 -0.145029875
v -0.234776 0.4136935 -0.1434335
v -0.22847475 0.403859125 -0.1364295625
v -0.222245 0.396679 -0.13814
v -0.228334 0.401268 -0.1276305
v -0.23375 0.4117265 -0.134429
v -0.233206 0.4093895 -0.1255075
v -0.230606 0.304362 -0.09746935
v -0.2278435 0.295028375 -0.0973950375
v -0.224727 0.2952925 -0.0891342
v -0.227742 0.304372 -0.0890567
v -0.2294796875 0.2841183125 -0.10479448125
v -0.226089 0.2853305 -0.09649185
v -0.230962 0.294112 -0.1058775
v -0.2314865 0.272704 -0.111874
v -0.2276353125 0.274599375 -0.103561225
v -0.2332795 0.282283 -0.113123
v -0.223732 0.256137 -0.10076495
v -0.225627 0.265328 -0.10220713125
v -0.229254 0.2633 -0.110579
v -0.2273455 0.254042 -0.1091405
v -0.221801 0.267026 -0.0939258
v -0.2238275 0.276212 -0.09529585
v -0.2352755 0.33537 -0.1202925
v -0.2346915 0.3254625 -0.121044
v -0.235381 0.324884 -0.1131855
v -0.235965 0.3347915 -0.112434
v -0.3192895 0.3493645 -0.2430215
v -0.3173915 0.3403615 -0.240759
v -0.312229 0.3435035 -0.233655
v -0.314127 0.3525065 -0.2359175
v -0.246522 0.386207 -0.1423085
v -0.2421935 0.377833 -0.1428995
v -0.2427501875 0.3762589375 -0.1343383125
v -0.2469755 0.384716 -0.133706
v -0.239575 0.3673385 -0.134889
v -0.2395975 0.3658125 -0.126616
v -0.2426695 0.374816 -0.126024
v -0.24684925 0.252619625 -0.1367278125
v -0.241448 0.2558895 -0.130005
v -0.242564 0.264138 -0.1314255
v -0.2481675 0.2609305 -0.1381345
v -0.2451810625 0.2324078125 -0.142196375
v -0.2414626875 0.2238958125 -0.1409985
v -0.236332 0.2272225 -0.133542
v -0.2396515 0.2358035 -0.1352005
v -0.240523625 0.2031431875 -0.1442373125
v -0.23799125 0.1944213125 -0.1416244375
v -0.2334265 0.198016 -0.134031
v -0.2358045 0.2067295 -0.1367465
v -0.2429100625 0.1908268125 -0.14900975
v -0.2404525 0.182067 -0.146232
v -0.2356455 0.1856675 -0.1387695
v -0.2457311875 0.1995706875 -0.151435375
v -0.2512544375 0.1959560625 -0.1583688125
v -0.2481645 0.1872185 -0.1561755
v -0.2434706875 0.21181175 -0.146417875
v -0.2488215 0.2082745 -0.1535575
v -0.260563 0.200964 -0.1667195
v -0.2567755 0.1923105 -0.1652725
v -0.2549075 0.2046295 -0.1599635
v -0.253851 0.249095 -0.1423135
v -0.24974975 0.24073025 -0.1422188125
v -0.2431215 0.244314 -0.1365135
v -0.2565865 0.237022 -0.14776
v -0.2514324375 0.228796125 -0.1483423125
v -0.2530155 0.216854 -0.1544745
v -0.2469885625 0.220390375 -0.1479501875
v -0.257786 0.2252225 -0.1545215
v -0.2382225 0.2153235 -0.139211
v -0.2358405 0.3234085 -0.09560745
v -0.2345925 0.316048 -0.0977732
v -0.2314665 0.3155365 -0.0897601
v -0.2327145 0.322897 -0.08759435
v -0.2308315 0.331144 -0.08827915
v -0.229407 0.340108 -0.0879485
v -0.2359565625 0.3416080625 -0.09439913125
v -0.2378105 0.332632 -0.09455065
v -0.2359465 0.3508935 -0.0932682
v -0.238419 0.352165875 -0.1016408
v -0.2389445 0.342847 -0.1025457
v -0.240525 0.3612595 -0.1005014
v -0.239936 0.362864 -0.109343
v -0.237916 0.353749 -0.1104355
v -0.2450495 0.382132 -0.1167655
v -0.2425505 0.380721 -0.1081405
v -0.2429725 0.3899155 -0.107279
v -0.251927 0.41046 -0.123148
v -0.2528838125 0.411574625 -0.132529125
v -0.249601 0.402939 -0.1335545
v -0.2562295 0.4202035 -0.131679
v -0.2578175 0.4207705 -0.141058
v -0.254333 0.4122525 -0.1418735
v -0.35316475 0.3322715 -0.27088075
v -0.34745175 0.34444775 -0.271628
v -0.34154075 0.35653825 -0.2717305
v -0.3355205 0.368667 -0.27118
v -0.30559375 0.39812025 -0.2701405
v -0.2986915 0.4090525 -0.265952
v -0.25568025 0.41994375 -0.254277
v -0.263508 0.412552 -0.261844
v -0.27356775 0.42058325 -0.2580035
v -0.2658325 0.428176 -0.25014
v -0.25802 0.43434325 -0.24110275
v -0.2764805 0.4355975 -0.24542775
v -0.26862025 0.4419565 -0.2363235
v -0.2500765 0.43872325 -0.2307545
v -0.260642 0.446478 -0.22625825
v -0.27161075 0.453167 -0.22085075
v -0.28289475 0.45830625 -0.21464525
v -0.32126425 0.45165275 -0.2194655
v -0.30239425 0.4565255 -0.21808175
v -0.31033925 0.45036725 -0.2275295
v -0.29431475 0.46135525 -0.207927
v -0.29094 0.45345325 -0.22483775
v -0.29888125 0.44705425 -0.23431
v -0.2796125 0.44843575 -0.23084175
v -0.287523 0.44200825 -0.24016375
v -0.284169 0.4278515 -0.253421
v -0.291591 0.41899275 -0.260315
v -0.3026845 0.42519425 -0.25545475
v -0.2952525 0.434191 -0.24839
v -0.3066585 0.4392605 -0.24273675
v -0.31807175 0.44278675 -0.235985
v -0.3141225 0.43018675 -0.2498425
v -0.32550175 0.43378 -0.24307025
v -0.3097625 0.4151635 -0.2612085
v -0.31650775 0.40421575 -0.2654315
v -0.32305875 0.392668 -0.2683195
v -0.34618675 0.3736655 -0.265514
v -0.344855 0.40097975 -0.25583525
v -0.338975 0.412616 -0.252917
v -0.332524 0.42361075 -0.248654
v -0.32119775 0.42007475 -0.25553325
v -0.3277865 0.4091075 -0.25974925
v -0.34016975 0.385787 -0.264506
v -0.33403825 0.39761875 -0.26268025
v -0.329397 0.38076875 -0.270097
v -0.233474 0.432103 -0.2243295
v -0.24036925 0.43007275 -0.235264
v -0.24793425 0.4258495 -0.2453715
v -0.2383195 0.41673075 -0.2490265
v -0.22894325 0.4073295 -0.25196675
v -0.245997 0.4111155 -0.25779275
v -0.28111225 0.411818 -0.26456275
v -0.21615225 0.4134185 -0.23084825
v -0.2072545 0.40379475 -0.2321265
v -0.1899885 0.3835515 -0.23449625
v -0.19847425 0.393819 -0.23332125
v -0.181756 0.373018 -0.2358525
v -0.2205185 0.42337525 -0.21817025
v -0.22748125 0.4309245 -0.2145005
v -0.2336945 0.4373355 -0.206889
v -0.24862575 0.44809675 -0.20878875
v -0.25594 0.45439175 -0.1992315
v -0.26399575 0.45906975 -0.18973
v -0.2491545 0.43700575 -0.152964
v -0.242993 0.432201 -0.16284475
v -0.24949925 0.44212525 -0.170715
v -0.24098225 0.43894175 -0.179946
v -0.24811725 0.4481245 -0.1888495
v -0.25629625 0.451498 -0.17944725
v -0.24712725 0.39652 -0.120056
v -0.2406815 0.44330875 -0.198171
v -0.226127 0.429771 -0.19881275
v -0.23315325 0.43458 -0.18933375
v -0.22086325 0.42527875 -0.20835125
v -0.2131525 0.416118 -0.20507025
v -0.21221575 0.414368 -0.2183
v -0.2039385 0.4046735 -0.2185875
v -0.19564775 0.39430675 -0.2194455
v -0.226645 0.4243965 -0.18224525
v -0.234666 0.42867825 -0.172431
v -0.218978 0.41997075 -0.19278725
v -0.2288635 0.4181245 -0.16569125
v -0.236755 0.42207025 -0.1555235
v -0.21097075 0.39274375 -0.163243
v -0.21580375 0.40323325 -0.16991775
v -0.22335375 0.40768775 -0.15896575
v -0.218036 0.397371 -0.1521655
v -0.2209155 0.4138485 -0.17614475
v -0.20603775 0.38242675 -0.15640375
v -0.2127135 0.38710725 -0.145316
v -0.207413 0.37682225 -0.1383915
v -0.2308125 0.411886 -0.148477
v -0.225101 0.40172925 -0.1415845
v -0.231042 0.40649725 -0.13102975
v -0.2276665 0.29982725 -0.093301775
v -0.2285255 0.28972125 -0.101184675
v -0.23047325 0.278432 -0.10834825
v -0.226493 0.2597185 -0.105671975
v -0.224734 0.2708035 -0.09874965
v -0.23532825 0.330127 -0.116739
v -0.31575925 0.346434 -0.23833825
v -0.2445845 0.3812745 -0.13830275
v -0.24112225 0.37107725 -0.1304565
v -0.24480775 0.25841 -0.13406975
v -0.2405435 0.22986275 -0.13812675
v -0.236875 0.20057925 -0.139208
v -0.239199 0.188248 -0.14395075
v -0.24693625 0.19340225 -0.15382425
v -0.2445725 0.2057085 -0.14897125
v -0.2558415 0.19847 -0.162618
v -0.24848625 0.2467045 -0.1394135
v -0.25067075 0.2347625 -0.14523575
v -0.252218 0.222826 -0.1514165
v -0.24243625 0.2178765 -0.14376125
v -0.2336535 0.3194725 -0.092683775
v -0.23360875 0.33637 -0.091249575
v -0.2374455 0.34687025 -0.09790695
v -0.2392205 0.35750425 -0.10546845
v -0.244011 0.38602375 -0.11202225
v -0.250764 0.4066995 -0.12835125
v -0.25528125 0.416228 -0.13677625
f 56 207 526 210
f 44 208 526 207
f 32 209 526 208
f 1 210 526 209
f 32 211 527 209
f 31 212 527 211
f 2 213 527 212
f 1 209 527 213
f 31 214 528 212
f 30 215 528 214
f 3 216 528 215
f 2 212 528 216
f 30 217 529 215
f 46 218 529 217
f 57 219 529 218
f 3 215 529 219
f 29 220 530 223
f 28 221 530 220
f 5 222 530 221
f 4 223 530 222
f 28 224 531 221
f 27 225 531 224
f 64 226 531 225
f 5 221 531 226
f 114 227 532 230
f 67 228 532 227
f 100 229 532 228
f 6 230 532 229
f 100 231 533 229
f 69 232 533 231
f 86 233 533 232
f 6 229 533 233
f 86 234 534 233
f 85 235 534 234
f 21 236 534 235
f 6 233 534 236
f 21 237 535 236
f 7 238 535 237
f 114 230 535 238
f 6 236 535 230
f 8 239 536 241
f 60 240 536 239
f 114 238 536 240
f 7 241 536 238
f 21 242 537 237
f 49 243 537 242
f 20 244 537 243
f 7 237 537 244
f 20 245 538 244
f 19 246 538 245
f 8 241 538 246
f 7 244 538 241
f 9 247 539 249
f 59 248 539 247
f 60 239 539 248
f 8 249 539 239
f 19 250 540 246
f 10 251 540 250
f 9 249 540 251
f 8 246 540 249
f 19 252 541 250
f 18 253 541 252
f 11 254 541 253
f 10 250 541 254
f 18 255 542 253
f 16 256 542 255
f 58 257 542 256
f 11 253 542 257
f 14 258 543 261
f 51 259 543 258
f 13 260 543 259
f 12 261 543 260
f 15 262 544 265
f 16 263 544 262
f 17 264 544 263
f 14 265 544 264
f 17 266 545 264
f 23 267 545 266
f 51 258 545 267
f 14 264 545 258
f 54 268 546 269
f 58 256 546 268
f 16 262 546 256
f 15 269 546 262
f 18 270 547 255
f 50 271 547 270
f 17 263 547 271
f 16 255 547 263
f 50 272 548 271
f 25 273 548 272
f 23 266 548 273
f 17 271 548 266
f 19 245 549 252
f 20 274 549 245
f 50 270 549 274
f 18 252 549 270
f 49 275 550 243
f 25 272 550 275
f 50 274 550 272
f 20 243 550 274
f 85 276 551 235
f 22 277 551 276
f 49 242 551 277
f 21 235 551 242
f 85 278 552 276
f 64 225 552 278
f 27 279 552 225
f 22 276 552 279
f 27 280 553 279
f 37 281 553 280
f 26 282 553 281
f 22 279 553 282
f 26 283 554 282
f 25 275 554 283
f 49 277 554 275
f 22 282 554 277
f 25 283 555 273
f 26 284 555 283
f 24 285 555 284
f 23 273 555 285
f 24 286 556 285
f 52 287 556 286
f 51 267 556 287
f 23 285 556 267
f 26 281 557 284
f 37 288 557 281
f 36 289 557 288
f 24 284 557 289
f 36 290 558 289
f 53 291 558 290
f 52 286 558 291
f 24 289 558 286
f 28 292 559 224
f 38 293 559 292
f 37 280 559 293
f 27 224 559 280
f 29 294 560 220
f 43 295 560 294
f 38 292 560 295
f 28 220 560 292
f 48 296 561 298
f 47 297 561 296
f 43 294 561 297
f 29 298 561 294
f 45 299 562 301
f 40 300 562 299
f 46 217 562 300
f 30 301 562 217
f 34 302 563 305
f 42 303 563 302
f 41 304 563 303
f 33 305 563 304
f 35 306 564 308
f 39 307 564 306
f 42 302 564 307
f 34 308 564 302
f 53 290 565 310
f 36 309 565 290
f 39 306 565 309
f 35 310 565 306
f 37 293 566 288
f 38 311 566 293
f 39 309 566 311
f 36 288 566 309
f 43 312 567 295
f 42 307 567 312
f 39 311 567 307
f 38 295 567 311
f 41 313 568 315
f 47 314 568 313
f 46 300 568 314
f 40 315 568 300
f 42 312 569 303
f 43 297 569 312
f 47 313 569 297
f 41 303 569 313
f 47 296 570 314
f 48 316 570 296
f 57 218 570 316
f 46 314 570 218
f 78 317 571 320
f 77 318 571 317
f 71 319 571 318
f 59 320 571 319
f 71 321 572 319
f 61 322 572 321
f 60 248 572 322
f 59 319 572 248
f 61 323 573 322
f 67 227 573 323
f 114 240 573 227
f 60 322 573 240
f 62 324 574 326
f 66 325 574 324
f 67 323 574 325
f 61 326 574 323
f 63 327 575 329
f 65 328 575 327
f 66 324 575 328
f 62 329 575 324
f 68 330 576 331
f 100 228 576 330
f 67 325 576 228
f 66 331 576 325
f 64 278 577 333
f 85 234 577 278
f 86 332 577 234
f 70 333 577 332
f 137 334 578 337
f 95 335 578 334
f 73 336 578 335
f 72 337 578 336
f 95 338 579 335
f 96 339 579 338
f 133 340 579 339
f 73 335 579 340
f 97 341 580 344
f 98 342 580 341
f 75 343 580 342
f 74 344 580 343
f 133 339 581 346
f 96 345 581 339
f 97 344 581 345
f 74 346 581 344
f 98 347 582 342
f 99 348 582 347
f 76 349 582 348
f 75 342 582 349
f 55 350 583 353
f 94 351 583 350
f 137 352 583 351
f 77 353 583 352
f 78 354 584 317
f 93 355 584 354
f 55 353 584 355
f 77 317 584 353
f 140 356 585 358
f 92 357 585 356
f 93 354 585 357
f 78 358 585 354
f 91 359 586 362
f 140 360 586 359
f 131 361 586 360
f 79 362 586 361
f 146 363 587 365
f 90 364 587 363
f 91 362 587 364
f 79 365 587 362
f 90 363 588 368
f 146 366 588 363
f 80 367 588 366
f 89 368 588 367
f 124 369 589 372
f 87 370 589 369
f 84 371 589 370
f 83 372 589 371
f 124 373 590 369
f 108 374 590 373
f 107 375 590 374
f 87 369 590 375
f 107 376 591 375
f 88 377 591 376
f 130 378 591 377
f 87 375 591 378
f 107 379 592 376
f 104 380 592 379
f 106 381 592 380
f 88 376 592 381
f 106 382 593 381
f 91 364 593 382
f 90 383 593 364
f 88 381 593 383
f 90 368 594 383
f 89 384 594 368
f 130 377 594 384
f 88 383 594 377
f 162 385 595 388
f 163 386 595 385
f 161 387 595 386
f 174 388 595 387
f 106 389 596 382
f 92 356 596 389
f 140 359 596 356
f 91 382 596 359
f 105 390 597 392
f 129 391 597 390
f 93 357 597 391
f 92 392 597 357
f 106 380 598 389
f 104 393 598 380
f 105 392 598 393
f 92 389 598 392
f 129 394 599 391
f 94 350 599 394
f 55 355 599 350
f 93 391 599 355
f 129 395 600 394
f 113 396 600 395
f 102 397 600 396
f 94 394 600 397
f 102 398 601 397
f 95 334 601 398
f 137 351 601 334
f 94 397 601 351
f 102 399 602 398
f 103 400 602 399
f 96 338 602 400
f 95 398 602 338
f 103 401 603 400
f 101 402 603 401
f 97 345 603 402
f 96 400 603 345
f 128 403 604 405
f 111 404 604 403
f 105 393 604 404
f 104 405 604 393
f 107 374 605 379
f 108 406 605 374
f 128 405 605 406
f 104 379 605 405
f 111 407 606 404
f 113 395 606 407
f 129 390 606 395
f 105 404 606 390
f 127 408 607 410
f 110 409 607 408
f 128 406 607 409
f 108 410 607 406
f 124 411 608 373
f 123 412 608 411
f 127 410 608 412
f 108 373 608 410
f 118 413 609 416
f 116 414 609 413
f 115 415 609 414
f 109 416 609 415
f 115 417 610 415
f 112 418 610 417
f 110 419 610 418
f 109 415 610 419
f 110 408 611 419
f 127 420 611 408
f 125 421 611 420
f 109 419 611 421
f 125 422 612 421
f 126 423 612 422
f 118 416 612 423
f 109 421 612 416
f 112 424 613 418
f 111 403 613 424
f 128 409 613 403
f 110 418 613 409
f 118 425 614 413
f 119 426 614 425
f 117 427 614 426
f 116 413 614 427
f 126 428 615 423
f 122 429 615 428
f 119 425 615 429
f 118 423 615 425
f 122 430 616 429
f 121 431 616 430
f 120 432 616 431
f 119 429 616 432
f 154 433 617 434
f 125 420 617 433
f 127 412 617 420
f 123 434 617 412
f 154 435 618 433
f 153 436 618 435
f 126 422 618 436
f 125 433 618 422
f 152 437 619 439
f 153 435 619 437
f 154 438 619 435
f 132 439 619 438
f 135 440 620 443
f 136 441 620 440
f 206 442 620 441
f 134 443 620 442
f 138 444 621 446
f 143 445 621 444
f 206 441 621 445
f 136 446 621 441
f 139 447 622 449
f 142 448 622 447
f 143 444 622 448
f 138 449 622 444
f 147 450 623 453
f 145 451 623 450
f 142 452 623 451
f 141 453 623 452
f 145 454 624 451
f 144 455 624 454
f 143 448 624 455
f 142 451 624 448
f 173 456 625 459
f 177 457 625 456
f 149 458 625 457
f 148 459 625 458
f 156 460 626 463
f 155 461 626 460
f 169 462 626 461
f 151 463 626 462
f 172 464 627 467
f 180 465 627 464
f 179 466 627 465
f 164 467 627 466
f 179 468 628 466
f 178 469 628 468
f 165 470 628 469
f 164 466 628 470
f 194 471 629 474
f 195 472 629 471
f 205 473 629 472
f 183 474 629 473
f 190 475 630 478
f 197 476 630 475
f 204 477 630 476
f 185 478 630 477
f 199 479 631 482
f 200 480 631 479
f 203 481 631 480
f 186 482 631 481
f 203 480 632 485
f 200 483 632 480
f 188 484 632 483
f 187 485 632 484
f 200 486 633 483
f 189 487 633 486
f 202 488 633 487
f 188 483 633 488
f 200 479 634 486
f 199 489 634 479
f 198 490 634 489
f 189 486 634 490
f 196 491 635 493
f 201 492 635 491
f 202 487 635 492
f 189 493 635 487
f 195 471 636 496
f 194 494 636 471
f 191 495 636 494
f 190 496 636 495
f 191 497 637 495
f 192 498 637 497
f 197 475 637 498
f 190 495 637 475
f 193 499 638 501
f 198 500 638 499
f 197 498 638 500
f 192 501 638 498
f 198 489 639 500
f 199 502 639 489
f 204 476 639 502
f 197 500 639 476
f 157 503 640 506
f 81 504 640 503
f 158 505 640 504
f 150 506 640 505
f 157 507 641 510
f 159 508 641 507
f 160 509 641 508
f 82 510 641 509
f 160 511 642 509
f 181 512 642 511
f 184 513 642 512
f 82 509 642 513
f 181 514 643 512
f 182 515 643 514
f 170 516 643 515
f 184 512 643 516
f 162 388 644 519
f 174 517 644 388
f 171 518 644 517
f 176 519 644 518
f 161 386 645 522
f 163 520 645 386
f 166 521 645 520
f 175 522 645 521
f 166 523 646 521
f 167 524 646 523
f 168 525 646 524
f 175 521 646 525
