# https://github.com/mikedh/trimesh
v -0.19350110 0.23076352 -0.05670991
v -0.19662000 0.23496200 -0.06953100
v -0.18889573 0.22519073 -0.04164503
v -0.20368400 0.24255399 -0.09489600
v -0.20075088 0.23965529 -0.08415201
v -0.18471601 0.22200200 -0.03531400
v -0.17714899 0.29297250 -0.12771100
v -0.18927876 0.27040353 -0.11070822
v -0.19503062 0.25805700 -0.10370650
v -0.19872502 0.25200419 -0.10031089
v -0.15905666 0.32353636 -0.16159545
v -0.16299849 0.31737825 -0.15261525
v -0.17125753 0.30500368 -0.13762637
v -0.16664979 0.31357811 -0.14678577
v -0.16910601 0.30846399 -0.14143001
v -0.15433528 0.33030165 -0.17682696
v -0.16036243 0.32037975 -0.15750781
v -0.15707700 0.32509801 -0.16535901
v -0.15173200 0.33048051 -0.18216350
v -0.14874101 0.33313599 -0.20134300
v -0.14926425 0.33274700 -0.19747124
v -0.14791950 0.33419350 -0.22113850
v -0.14789900 0.33335799 -0.20621400
v -0.14835269 0.22395813 0.00019987
v -0.14509357 0.22098133 0.00568680
v -0.13758876 0.21576928 0.01390702
v -0.12529800 0.20951951 0.02378450
v -0.15352150 0.22732350 -0.00630200
v -0.15932162 0.22837804 -0.01179583
v -0.15676830 0.22805237 -0.00858596
v -0.16586517 0.22828179 -0.01539596
v -0.16961550 0.22649550 -0.02011850
v -0.06733284 0.27726365 0.00185363
v -0.12547451 0.24372800 0.00082200
v -0.11408775 0.23756425 0.01224375
v -0.10597100 0.23355650 0.01852350
v -0.13283201 0.25201201 -0.00934700
v -0.04466700 0.26051301 0.01527600
v -0.05766318 0.26957760 0.00891342
v -0.14329364 0.28747249 -0.05108273
v -0.14359100 0.29649401 -0.06215500
v -0.14287300 0.29285601 -0.05563700
v -0.14192650 0.27284451 -0.03428250
v -0.13791375 0.25747825 -0.02262825
v -0.14633650 0.28338500 -0.04898500
v -0.14557300 0.27410051 -0.03847500
v -0.14132701 0.25647150 -0.01787650
v -0.14504100 0.26424000 -0.02756100
v -0.14647100 0.28847550 -0.05504275
v -0.13369450 0.24619550 -0.00416200
v -0.13719700 0.24982400 -0.00906400
v -0.12484900 0.23892701 0.00711300
v -0.11612100 0.23451900 0.01385400
v -0.10758275 0.23024363 0.02033075
v -0.13111750 0.24387950 -0.00066450
v -0.09903400 0.22695000 0.02497200
v -0.06460273 0.34167265 -0.05106798
v -0.07977400 0.28564200 -0.00408300
v -0.08418300 0.30609000 -0.02016500
v -0.10154443 0.29266909 -0.01988507
v -0.10272653 0.30185877 -0.02801810
v -0.10154100 0.27697263 -0.00883100
v -0.08395832 0.31338173 -0.02583587
v -0.11312369 0.30206749 -0.03590950
v -0.10383337 0.31191692 -0.03827124
v -0.11530890 0.31091082 -0.04719835
v -0.12260600 0.30438301 -0.04688200
v -0.11886800 0.30434000 -0.04324400
v -0.10790778 0.31864017 -0.04975100
v -0.12758425 0.29658050 -0.04334225
v -0.13969435 0.29175173 -0.05045521
v -0.12349337 0.28526010 -0.02886980
v -0.14199600 0.28142300 -0.04213100
v -0.13267078 0.30254344 -0.05559542
v -0.13227089 0.25584277 -0.01171263
v -0.11305169 0.25908639 -0.00224593
v -0.11334075 0.28358651 -0.02052475
v -0.10556560 0.32676561 -0.06007990
v -0.10857950 0.32191249 -0.05537200
v -0.12011575 0.32043250 -0.06673775
v -0.12000556 0.32297522 -0.07095769
v -0.09766103 0.33752058 -0.07435311
v -0.07874953 0.34240163 -0.06557411
v -0.08651578 0.34465612 -0.08129364
v -0.06855100 0.34672201 -0.06751900
v -0.06632100 0.34674701 -0.06536500
v -0.08393312 0.34645350 -0.08537275
v -0.11485080 0.32929879 -0.07687868
v -0.13444750 0.33001350 -0.11667750
v -0.14038942 0.32508158 -0.11399636
v -0.15156326 0.31901315 -0.12462714
v -0.15846174 0.31258700 -0.12566300
v -0.16457400 0.30607700 -0.12564699
v -0.14003003 0.31916463 -0.09737098
v -0.12958243 0.32316656 -0.08642932
v -0.14886173 0.31638606 -0.10949186
v -0.14087613 0.31211712 -0.08374031
v -0.15438652 0.31662106 -0.12565310
v -0.14156586 0.33243444 -0.15077079
v -0.13438587 0.33723423 -0.15843763
v -0.12389074 0.34097575 -0.14630550
v -0.12474736 0.34154645 -0.15649896
v -0.12581134 0.34194596 -0.17533273
v -0.12011062 0.34387600 -0.18508762
v -0.12043400 0.34351162 -0.16409250
v -0.10879115 0.34742697 -0.16074245
v -0.09651800 0.35003599 -0.13671601
v -0.08592500 0.35090601 -0.11208100
v -0.09603100 0.34957799 -0.12853700
v -0.10361143 0.34617401 -0.12056410
v -0.08766200 0.35139699 -0.12100200
v -0.13086009 0.33906612 -0.22026999
v -0.12198575 0.34139074 -0.22511149
v -0.12030650 0.34321250 -0.21013250
v -0.11717400 0.34494901 -0.19031000
v -0.12357867 0.34252065 -0.20550133
v -0.11990013 0.33881736 -0.11705642
v -0.12760988 0.33592071 -0.12301443
v -0.11954775 0.33547050 -0.10308462
v -0.10896950 0.34297900 -0.11420900
v -0.10402600 0.34209800 -0.09945500
v -0.13692182 0.33682600 -0.17369100
v -0.11674700 0.34400375 -0.14861650
v -0.10017250 0.34952050 -0.14810050
v -0.16567300 0.30882201 -0.13662399
v -0.12470954 0.33242073 -0.10229070
v -0.13249232 0.33298999 -0.12329408
v -0.14235700 0.32737249 -0.12834101
v -0.13465283 0.33437220 -0.13699327
v -0.15385187 0.32167338 -0.14300650
v -0.08825236 0.34651127 -0.09134791
v -0.08151762 0.35033013 -0.09949337
v -0.09878856 0.34598882 -0.10745279
v -0.12803400 0.31904799 -0.07559100
v -0.13335800 0.33862750 -0.21248125
v -0.09122348 0.32212215 -0.04014197
v -0.13633862 0.33798432 -0.19499701
v -0.13857875 0.33697375 -0.20058150
v -0.08888246 0.28860345 -0.01009365
v -0.08782600 0.28011799 -0.00407700
v -0.08886089 0.27461409 -0.00099669
v -0.07275800 0.27663600 0.00419900
v -0.07273872 0.27897566 0.00232288
v -0.06779800 0.27342600 0.00717400
v -0.07675175 0.28510200 -0.00321150
v -0.14672267 0.29751946 -0.06859440
v -0.08858000 0.26087499 0.00774400
v -0.11416109 0.33839424 -0.10295758
v -0.09909223 0.34864141 -0.12770539
v -0.13275275 0.31394112 -0.07334464
v -0.08273275 0.31881837 -0.03094875
v -0.10281624 0.34899257 -0.15290819
v -0.09590700 0.35094475 -0.15459800
v -0.16239808 0.30027246 -0.10572168
v -0.14758139 0.30702999 -0.08630750
v -0.15298299 0.30157900 -0.08701900
v -0.15272214 0.31067231 -0.10494885
v -0.16264450 0.30354725 -0.11400075
v -0.17352533 0.29551045 -0.12509357
v -0.16698750 0.28885016 -0.09386532
v -0.09828500 0.33841750 -0.07812950
v -0.19773525 0.24738856 -0.09305202
v -0.18865445 0.24761700 -0.07288860
v -0.16789740 0.27099013 -0.06712264
v -0.18249001 0.25825301 -0.07687100
v -0.15490900 0.29110275 -0.07334050
v -0.16016027 0.29101381 -0.08329209
v -0.17254300 0.27296851 -0.07971350
v -0.18299498 0.23698329 -0.04840904
v -0.18270326 0.24123970 -0.05307089
v -0.18117820 0.23249652 -0.04068231
v -0.17155853 0.25413438 -0.05032047
v -0.16694900 0.25841999 -0.04856400
v -0.17890700 0.23075700 -0.03585600
v -0.18794200 0.24196100 -0.06361300
v -0.16268177 0.26803683 -0.05355019
v -0.15270413 0.28524900 -0.06045713
v -0.15522086 0.29568160 -0.08123603
v -0.14949600 0.27537900 -0.04356200
v -0.06926078 0.33875795 -0.04858943
v -0.07701812 0.33174936 -0.04210308
v -0.07550856 0.33385616 -0.04437039
v -0.09463188 0.33250450 -0.06009450
v -0.11640477 0.31568757 -0.05432028
v -0.08655112 0.32988952 -0.04683257
v -0.10286178 0.33974193 -0.08809899
v -0.14204000 0.33120788 -0.14574212
v -0.12453100 0.34035301 -0.14282800
v -0.16479800 0.29118075 -0.09358650
v -0.07707725 0.34166275 -0.06254800
v -0.12556050 0.32025101 -0.07411000
v -0.13498150 0.33681300 -0.22792150
v -0.09808225 0.31674775 -0.03923363
v -0.16572300 0.25750601 -0.04570500
v -0.14581678 0.33365180 -0.21602660
v -0.11494050 0.33391799 -0.08956475
v -0.08405062 0.34894449 -0.09577080
v -0.09632000 0.34504899 -0.09856900
v -0.16010235 0.24053775 -0.02186578
v -0.15565699 0.24661601 -0.02258800
v -0.14763225 0.25140825 -0.01873269
v -0.14336395 0.23822283 -0.00510411
v -0.14008752 0.23105585 0.00207442
v -0.12368915 0.22892466 0.01440447
v -0.11145000 0.22501600 0.02219300
v -0.12877899 0.21195400 0.02024300
v -0.12937599 0.23464100 0.00740400
v -0.18830368 0.26561415 -0.10301219
v -0.17969900 0.27620101 -0.10136200
v -0.16602901 0.25282601 -0.04096800
v -0.15241727 0.23363359 -0.00987734
v -0.14157524 0.32893848 -0.13182777
v -0.12798899 0.27900600 -0.02742100
v -0.14992925 0.26344350 -0.03203350
v -0.15646191 0.26408821 -0.04024483
v -0.17866050 0.22715651 -0.03249300
v -0.16304000 0.25152400 -0.03566800
v -0.12125450 0.34100926 -0.13637050
v -0.14085500 0.33599550 -0.19532299
v -0.16910633 0.23713744 -0.02894237
v -0.14560701 0.26886851 -0.03266350
v -0.14003900 0.28402099 -0.04281600
v -0.14476599 0.32460999 -0.12497100
v -0.17745794 0.22260689 -0.02741697
v -0.13040000 0.33661776 -0.13685825
v -0.07914513 0.32677848 -0.03717670
v -0.15022700 0.31726000 -0.11603000
v -0.11312900 0.33571899 -0.09198900
v -0.15814418 0.30026563 -0.09552969
v -0.07847187 0.32874776 -0.03917625
v -0.13241675 0.32531337 -0.09794275
v -0.14156801 0.30534700 -0.07235100
v -0.05984975 0.26687551 0.01337125
v -0.08075803 0.32292823 -0.03386814
v -0.10085550 0.23081651 0.02190400
v -0.09297650 0.22819550 0.02647450
v -0.08148000 0.22373100 0.03249900
v -0.08725377 0.22267129 0.03123442
v -0.03308500 0.25455099 0.02406400
v -0.04463700 0.25858101 0.02076900
v -0.07868091 0.23420664 0.02729890
v -0.06632562 0.26641220 0.01232425
v -0.06061308 0.26245044 0.01587061
v -0.05783600 0.26275000 0.01662900
v -0.03987500 0.25672725 0.02234800
f 13 159 158
f 154 158 159
f 154 159 7
f 154 7 160
f 229 154 160
f 229 160 189
f 167 229 189
f 156 229 167
f 156 155 229
f 157 229 155
f 97 157 155
f 95 157 97
f 157 95 94
f 94 96 157
f 96 93 157
f 93 158 157
f 92 93 96
f 227 92 96
f 91 227 96
f 96 90 91
f 231 90 96
f 126 90 231
f 95 126 231
f 88 126 95
f 196 126 88
f 228 126 196
f 196 186 228
f 186 126 228
f 186 148 126
f 186 121 148
f 186 198 121
f 131 198 186
f 133 198 131
f 131 197 133
f 132 133 197
f 87 132 197
f 132 149 133
f 149 110 133
f 110 149 218
f 149 123 218
f 123 149 106
f 152 106 149
f 149 124 152
f 153 152 124
f 107 124 149
f 109 107 149
f 111 109 149
f 111 149 108
f 111 107 109
f 152 153 106
f 106 153 104
f 106 104 103
f 106 103 105
f 103 102 105
f 123 105 102
f 123 102 101
f 102 100 101
f 102 122 100
f 100 122 19
f 122 21 19
f 122 20 21
f 122 103 20
f 103 219 20
f 137 219 103
f 137 138 219
f 104 138 137
f 219 138 20
f 20 138 195
f 138 135 195
f 135 112 195
f 112 22 195
f 23 195 22
f 20 195 23
f 112 192 22
f 112 113 192
f 113 112 116
f 114 113 116
f 115 114 116
f 115 116 104
f 116 135 104
f 135 116 112
f 99 100 19
f 225 100 99
f 225 99 187
f 129 225 187
f 117 225 129
f 218 225 117
f 118 117 129
f 118 129 212
f 127 118 212
f 127 212 89
f 89 212 128
f 128 212 223
f 212 91 223
f 91 212 130
f 212 187 130
f 130 187 17
f 187 11 17
f 187 18 11
f 130 17 12
f 91 130 12
f 91 12 98
f 91 98 92
f 98 12 92
f 92 12 14
f 92 14 15
f 118 127 89
f 119 118 89
f 148 118 119
f 119 89 126
f 117 118 148
f 129 187 212
f 99 18 187
f 99 16 18
f 99 19 16
f 101 100 225
f 188 101 225
f 102 103 122
f 104 137 103
f 123 106 105
f 110 218 117
f 120 110 117
f 120 117 198
f 133 120 198
f 120 133 110
f 132 108 149
f 87 197 131
f 131 186 87
f 87 186 84
f 161 84 186
f 161 186 82
f 82 186 88
f 82 88 183
f 183 88 78
f 183 78 185
f 190 183 185
f 182 190 185
f 180 190 182
f 57 190 180
f 230 180 182
f 230 182 181
f 181 182 185
f 230 181 185
f 226 230 185
f 226 185 234
f 234 185 151
f 151 185 136
f 185 69 136
f 136 69 193
f 69 65 193
f 151 193 65
f 151 65 63
f 63 65 61
f 65 72 61
f 65 64 72
f 68 72 64
f 68 73 72
f 72 73 43
f 72 43 213
f 213 43 44
f 64 66 68
f 68 66 184
f 68 184 67
f 67 184 74
f 184 232 74
f 184 80 232
f 150 232 80
f 150 97 232
f 191 97 150
f 81 191 150
f 81 95 191
f 191 95 134
f 80 81 150
f 80 184 79
f 69 79 184
f 69 78 79
f 78 80 79
f 232 41 74
f 41 232 146
f 232 156 146
f 156 166 146
f 156 178 166
f 166 178 167
f 166 167 164
f 167 160 164
f 160 168 164
f 164 168 165
f 165 163 164
f 165 162 163
f 165 8 162
f 8 9 162
f 162 9 10
f 162 10 5
f 5 10 4
f 163 162 5
f 175 163 5
f 172 163 175
f 172 175 170
f 170 175 169
f 175 1 169
f 1 175 2
f 169 1 3
f 171 169 3
f 172 169 171
f 220 172 171
f 210 172 220
f 220 217 210
f 217 220 200
f 200 220 199
f 199 220 31
f 220 32 31
f 32 220 224
f 220 216 224
f 224 216 6
f 220 174 216
f 199 31 211
f 201 199 211
f 202 201 211
f 202 211 24
f 211 28 24
f 211 30 28
f 211 29 30
f 30 24 28
f 202 24 25
f 203 202 25
f 207 202 203
f 50 202 207
f 55 50 207
f 55 207 204
f 204 207 26
f 207 25 26
f 204 26 206
f 27 204 206
f 54 204 27
f 53 204 54
f 52 204 53
f 53 34 52
f 35 34 53
f 53 36 35
f 50 52 34
f 50 34 37
f 37 47 50
f 37 34 76
f 75 37 76
f 76 77 75
f 62 77 76
f 77 62 60
f 61 77 60
f 59 61 60
f 59 60 58
f 139 60 62
f 141 139 62
f 140 139 141
f 142 140 141
f 141 35 142
f 139 140 142
f 145 139 142
f 145 142 143
f 143 33 145
f 33 143 144
f 144 39 33
f 233 39 144
f 233 144 242
f 233 242 243
f 242 236 243
f 243 236 240
f 244 243 240
f 240 236 241
f 240 241 237
f 241 236 237
f 235 236 242
f 36 235 242
f 147 36 242
f 233 243 244
f 233 244 240
f 147 242 144
f 233 38 39
f 240 38 233
f 245 38 240
f 245 239 38
f 144 143 142
f 141 62 35
f 62 76 35
f 77 72 75
f 72 44 75
f 75 44 37
f 76 34 35
f 36 53 54
f 56 36 54
f 54 205 56
f 205 27 56
f 238 36 56
f 55 204 52
f 51 202 50
f 207 203 25
f 51 201 202
f 51 47 201
f 47 214 201
f 201 214 200
f 48 214 47
f 211 31 29
f 201 200 199
f 210 194 172
f 194 173 172
f 176 172 173
f 176 173 210
f 215 176 210
f 217 215 210
f 214 215 217
f 179 215 214
f 46 179 214
f 221 46 214
f 46 45 179
f 179 45 176
f 45 177 176
f 177 164 176
f 49 177 45
f 179 176 215
f 176 164 172
f 220 171 174
f 174 171 3
f 174 3 6
f 172 170 169
f 5 2 175
f 163 172 164
f 168 160 165
f 160 209 165
f 165 209 208
f 7 208 209
f 208 7 8
f 177 166 164
f 146 166 177
f 41 146 177
f 74 41 71
f 41 42 71
f 71 42 40
f 73 71 40
f 70 71 73
f 70 67 71
f 222 40 73
f 67 74 71
f 68 67 70
f 69 184 66
f 66 64 65
f 61 72 77
f 59 63 61
f 65 69 66
f 136 193 151
f 185 78 69
f 78 88 80
f 88 81 80
f 190 82 183
f 83 82 190
f 190 85 83
f 86 85 190
f 85 84 83
f 83 84 82
f 82 84 161
f 84 85 87
f 198 117 121
f 121 117 148
f 148 119 126
f 186 196 88
f 88 95 81
f 126 89 90
f 89 223 90
f 223 91 90
f 227 91 92
f 92 13 93
f 125 13 92
f 13 125 15
f 94 231 96
f 231 94 95
f 134 95 97
f 97 155 156
f 156 167 178
f 167 189 160
f 157 154 229
f 160 7 209
f 157 158 154
f 13 7 159
f 158 93 13

