v 0.249658 -0.138074 0.144613
v 0.352821 -0.134533 0.143665
v 0.238622 -0.138442 0.1435
v 0.146973 -0.141026 0.137107
v 0.278833 -0.137793 0.145586
v 0.264611 -0.137954 0.145345
v 0.343989 -0.134431 0.15231
v 0.345916 -0.134835 0.14957
v 0.313977 -0.136552 0.143045
v 0.3029 -0.137226 0.14397
v 0.283644 -0.137638 0.142236
v 0.285632 -0.137897 0.143583
v 0.278909 -0.137829 0.14191
v 0.20068 -0.139714 0.138871
v 0.190837 -0.1399 0.13846
v 0.186261 -0.139966 0.138108
v 0.34657 -0.135617 0.146201
v 0.313827 -0.130238 0.137037
v 0.306753 -0.131302 0.136883
v 0.322024 -0.130194 0.137422
v 0.34968 -0.134876 0.148665
v 0.330221 -0.13015 0.137808
v 0.338814 -0.1305 0.138328
v 0.347022 -0.130462 0.138505
v 0.355228 -0.130376 0.138793
v 0.303258 -0.135656 0.140007
v 0.280223 -0.136872 0.139223
v 0.28852 -0.136763 0.139916
v 0.350694 -0.134901 0.144221
v 0.33388 -0.133421 0.139758
v 0.324611 -0.132781 0.138646
v 0.310716 -0.132718 0.137801
v 0.299827 -0.133458 0.137788
v 0.296222 -0.137621 0.144554
v 0.325764 -0.136699 0.146502
v 0.335038 -0.136351 0.146197
v 0.130944 -0.134187 0.127391
v 0.139187 -0.134536 0.127941
v 0.341208 -0.13587 0.147716
v 0.312349 -0.137031 0.145479
v 0.130494 -0.14049 0.133428
v 0.138506 -0.140557 0.13388
v 0.132236 -0.140747 0.137284
v 0.154877 -0.140149 0.134027
v 0.163192 -0.140033 0.134634
v 0.171507 -0.139917 0.13524
v 0.145088 -0.131737 0.144051
v 0.136748 -0.13217 0.143423
v 0.153427 -0.131304 0.14468
v 0.161766 -0.130871 0.145308
v 0.170391 -0.138336 0.143522
v 0.162277 -0.138441 0.143159
v 0.153951 -0.138839 0.142442
v 0.145625 -0.139238 0.141724
v 0.137301 -0.139619 0.140978
v 0.154636 -0.140102 0.13983
v 0.296347 -0.13706 0.141889
v 0.146308 -0.140365 0.139195
v 0.137979 -0.140629 0.13856
v 0.171325 -0.140283 0.139548
v 0.162981 -0.140189 0.139697
v 0.295784 -0.136954 0.148521
v 0.323309 -0.136405 0.144165
v 0.32767 -0.136417 0.14486
v 0.33123 -0.135967 0.143807
v 0.33559 -0.135979 0.144502
v 0.335806 -0.134722 0.152114
v 0.33915 -0.135529 0.143449
v 0.322356 -0.135482 0.150918
v 0.345201 -0.135199 0.143739
v 0.352155 -0.134399 0.147638
v 0.321679 -0.136206 0.149343
v 0.308906 -0.136242 0.149721
v 0.356159 -0.133429 0.153976
f 5 6 1 11
f 11 1 3 13
f 5 11 12 62
f 35 67 69 72
f 34 72 69 73
f 8 7 39 17
f 21 70 29 74
f 70 21 8 68
f 8 17 39 66
f 68 8 66 65
f 25 29 70 24
f 2 71 29 25
f 38 42 41 37
f 66 39 36 64
f 63 64 35 9
f 57 40 10 34
f 36 67 35 64
f 35 72 40 9
f 12 34 73 62
f 34 10 40 72
f 11 57 34 12
f 46 16 15 45
f 45 15 14 44
f 20 32 19 18
f 65 66 64 63
f 32 20 22 31
f 31 22 23 30
f 26 28 27 33
f 52 50 49 53
f 53 49 47 54
f 54 47 48 55
f 56 53 54 58
f 43 4 58 59
f 58 54 55 59
f 52 53 56 61
f 60 51 52 61
