# https://github.com/mikedh/trimesh
v 0.16279800 -0.30813599 -0.07178400
v 0.15130299 -0.08569100 0.09505700
v 0.12270100 -0.13383850 0.12684150
v 0.09115500 -0.07410550 0.12793775
v 0.09550300 -0.07145000 0.13033900
v 0.12033248 -0.14082863 0.12970646
v 0.11852500 -0.15565500 0.13015699
v 0.09361800 -0.08384900 0.11624850
v 0.10145900 -0.08432000 0.14252400
v 0.10482325 -0.08850800 0.15198550
v 0.11053100 -0.17064950 0.13530200
v 0.10959100 -0.07010100 0.12927601
v 0.11665700 -0.11775450 0.15215149
v 0.11253300 -0.10094100 0.15186600
v 0.10792900 -0.09307300 0.15305400
v 0.14501287 -0.30694488 -0.03597425
v 0.14241450 -0.30233900 -0.06396650
v 0.14779150 -0.30210400 -0.02759050
v 0.14914250 -0.29697551 -0.02752750
v 0.14562801 -0.29610699 -0.06877400
v 0.14795300 -0.30151600 -0.06857500
v 0.14861099 -0.29311001 -0.02631500
v 0.22711324 -0.07367225 -0.08390950
v 0.12636700 -0.16262750 0.04209250
v 0.12674400 -0.16392399 0.03616900
v 0.13025500 -0.16429325 0.02716000
v 0.19296700 -0.13991299 -0.03830100
v 0.13566700 -0.16405800 0.01852900
v 0.23349388 -0.09908852 -0.07664890
v 0.20576638 -0.12842675 -0.04895937
v 0.17465950 -0.15185750 -0.02243300
v 0.16058201 -0.15949200 -0.01038100
v 0.24446350 -0.09780125 -0.08988850
v 0.12170900 -0.16299500 0.11117800
v 0.12500900 -0.16215700 0.05827800
v 0.12407350 -0.16194250 0.08732050
v 0.11956700 -0.16342101 0.12015500
v 0.24775326 -0.10498650 -0.09942125
v 0.25269624 -0.12454300 -0.11296100
v 0.10960900 -0.09829000 0.11400800
v 0.10580709 -0.09010598 0.12915767
v 0.10835739 -0.09751924 0.11144097
v 0.10377449 -0.09493529 0.10300772
v 0.11428692 -0.10534262 0.10758217
v 0.10965998 -0.09354032 0.13337787
v 0.11533934 -0.10567609 0.11359065
v 0.10917302 -0.10350577 0.08823164
v 0.10927500 -0.09265900 0.13927200
v 0.11269944 -0.10978797 0.07864236
v 0.10422675 -0.08690975 0.14552025
v 0.11791769 -0.11246320 0.09996789
v 0.12184412 -0.12106222 0.08672243
v 0.11694819 -0.11805622 0.06408398
v 0.11178600 -0.09649600 0.13607000
v 0.11779400 -0.11026300 0.11054300
v 0.12261700 -0.12131500 0.09239200
v 0.11639650 -0.10708650 0.11635200
v 0.10562450 -0.08830525 0.14137150
v 0.10607209 -0.09841334 0.09631100
v 0.11521244 -0.11464963 0.07004954
v 0.12021200 -0.11513800 0.10731600
v 0.11397400 -0.10119400 0.12818100
v 0.11545450 -0.10487450 0.12098550
v 0.12144091 -0.12552153 0.06185531
v 0.12805464 -0.14147256 0.06601346
v 0.12276200 -0.12808051 0.05895700
v 0.09849637 -0.08858250 0.10902063
v 0.10258515 -0.08547880 0.13890997
v 0.12222650 -0.12841400 0.05494125
v 0.09726534 -0.08704587 0.11365730
v 0.12705253 -0.14255992 0.06058209
v 0.27845776 -0.12936749 -0.14207600
v 0.28024399 -0.13637400 -0.14246751
v 0.26565229 -0.13427105 -0.14287643
v 0.26958947 -0.13204113 -0.14266603
v 0.26935105 -0.11657259 -0.13978867
v 0.28202400 -0.11840590 -0.14029801
v 0.27497969 -0.10453385 -0.13644348
v 0.27407593 -0.09648642 -0.13349321
v 0.26352753 -0.12066069 -0.13924900
v 0.26418977 -0.10686733 -0.13556769
v 0.26767901 -0.09837000 -0.13354200
v 0.28519720 -0.09625752 -0.13350118
v 0.28643301 -0.11282900 -0.13914900
v 0.26803446 -0.09233093 -0.13113831
v 0.28511480 -0.08161330 -0.12704098
v 0.26341650 -0.14189700 -0.14269624
v 0.27112635 -0.08636216 -0.12873729
v 0.26233729 -0.10319265 -0.13319414
v 0.28128099 -0.07983000 -0.12543701
v 0.26792684 -0.08211286 -0.12594303
v 0.26206409 -0.08380961 -0.12547490
v 0.28572554 -0.10490145 -0.13677588
v 0.26437495 -0.09181128 -0.13031865
v 0.28337376 -0.07528718 -0.12289388
v 0.25925089 -0.08433978 -0.12493600
v 0.26195899 -0.07592700 -0.12028100
v 0.26623672 -0.07514873 -0.12110040
v 0.25174253 -0.08083604 -0.11840090
v 0.28026059 -0.06857058 -0.11769071
v 0.28828501 -0.09678832 -0.13511621
v 0.25162212 -0.06739481 -0.10871825
v 0.25394421 -0.07165569 -0.11353404
v 0.27291966 -0.06397433 -0.11274096
v 0.26877432 -0.06055947 -0.10805630
v 0.28053801 -0.05970250 -0.11248000
v 0.25910448 -0.06658902 -0.11189769
v 0.24490165 -0.07573824 -0.10969431
v 0.25300899 -0.06219400 -0.10359500
v 0.28059642 -0.06603670 -0.11568235
v 0.27038475 -0.05509587 -0.10077551
v 0.28923999 -0.10228450 -0.13786450
v 0.24624500 -0.06584200 -0.10272300
v 0.25813578 -0.06128696 -0.10534231
v 0.24709044 -0.06229603 -0.09941929
v 0.26644508 -0.04735648 -0.08847740
v 0.26089872 -0.05697321 -0.10070818
v 0.26447172 -0.05046507 -0.09128357
v 0.24435640 -0.05930310 -0.09292699
v 0.24072825 -0.06286243 -0.09392260
v 0.26100700 -0.04506143 -0.07951312
v 0.26252980 -0.04800881 -0.08605515
v 0.25571105 -0.04472230 -0.07275691
v 0.25281333 -0.05616019 -0.09528188
v 0.25055320 -0.05421037 -0.08995130
v 0.23989109 -0.05790782 -0.08616530
v 0.28503299 -0.07171400 -0.12266900
v 0.23398124 -0.06375368 -0.08678457
v 0.25513542 -0.04344764 -0.06932454
v 0.22857642 -0.06263989 -0.07614233
v 0.25292361 -0.04914609 -0.08142113
v 0.23279337 -0.06119342 -0.08183579
v 0.25455900 -0.04187100 -0.06695550
v 0.26391601 -0.04395312 -0.08278863
v 0.24105768 -0.05391791 -0.07983277
v 0.23351599 -0.05727000 -0.07378900
v 0.27758976 -0.05804406 -0.10783544
v 0.28318500 -0.06572400 -0.11827700
v 0.24960882 -0.04303956 -0.05866748
v 0.27186713 -0.05184114 -0.09795886
v 0.24233800 -0.04497450 -0.04456150
v 0.24661187 -0.04398195 -0.05368232
v 0.24148413 -0.04731648 -0.04911876
v 0.24993978 -0.04440802 -0.06279500
v 0.24774886 -0.04502742 -0.06083209
v 0.28845900 -0.08708488 -0.13244290
v 0.22566249 -0.06225381 -0.06791872
v 0.27566299 -0.05150600 -0.10307100
v 0.23448088 -0.05455760 -0.06800538
v 0.21325549 -0.07804532 -0.06584479
v 0.23571700 -0.05109100 -0.03173000
v 0.24807128 -0.04814109 -0.07336156
v 0.27193000 -0.04809450 -0.09655400
v 0.23238100 -0.05644500 -0.02532100
v 0.22932900 -0.06105125 -0.01854125
v 0.22644017 -0.06626681 -0.01386656
v 0.22328299 -0.06905800 -0.00568000
v 0.21665625 -0.07852450 0.00886025
v 0.21440552 -0.08242356 0.01091016
v 0.21367200 -0.08143300 0.01476800
v 0.20954550 -0.08340475 0.02220063
v 0.20345081 -0.08873790 0.02976717
v 0.19233275 -0.08857200 0.04879300
v 0.20187836 -0.08907981 0.03266790
v 0.19120484 -0.09140733 0.04903875
v 0.20274900 -0.08610000 0.03309650
v 0.17218200 -0.08952900 0.07422200
v 0.18421421 -0.09232354 0.05838702
v 0.20955766 -0.08580940 0.01963183
v 0.16326175 -0.08839387 0.08335650
v 0.15937310 -0.09096652 0.08602549
v 0.15253454 -0.08909421 0.09285907
v 0.15697500 -0.08704800 0.08970300
v 0.14753553 -0.08751584 0.09734243
v 0.14483500 -0.08289200 0.10058000
v 0.14022525 -0.08148875 0.10440750
v 0.13866339 -0.08438137 0.10472551
v 0.12926013 -0.07619225 0.11361488
v 0.12151871 -0.07569422 0.11907723
v 0.12650549 -0.07802965 0.11506947
v 0.14144457 -0.08553204 0.10230152
v 0.23534859 -0.05251981 -0.03742281
v 0.17480905 -0.09300673 0.06884922
v 0.18929487 -0.09984064 -0.03445722
v 0.20321461 -0.08491921 -0.05010557
v 0.18475067 -0.10416732 -0.03075249
v 0.19667265 -0.09074330 0.04063070
v 0.16949387 -0.11542019 -0.01527149
v 0.20547987 -0.08136419 -0.04675651
v 0.23191002 -0.05694391 -0.03095557
v 0.18485101 -0.10321800 -0.02562200
v 0.22253866 -0.06294298 -0.05767490
v 0.15768219 -0.12274908 -0.00522506
v 0.15688006 -0.12192583 -0.00217494
v 0.21879557 -0.06678818 -0.05864996
v 0.22692442 -0.05814653 -0.05229453
v 0.17792504 -0.10898778 -0.02156687
v 0.16133133 -0.09196444 0.08288286
v 0.21747953 -0.06789086 -0.04460200
v 0.22859871 -0.05766205 -0.06091321
v 0.18262599 -0.10495200 -0.01962900
v 0.21142364 -0.07468960 -0.04176636
v 0.23126533 -0.05624847 -0.06540516
v 0.15782175 -0.12037589 0.00156016
v 0.20647554 -0.08757439 0.02383280
v 0.20036694 -0.08754088 -0.03336452
v 0.18645999 -0.10156084 -0.02011126
v 0.17868268 -0.10804945 -0.01491770
v 0.17038542 -0.10514436 0.04588324
v 0.17767057 -0.10363315 0.03729758
v 0.18189241 -0.09293468 0.06039031
v 0.16268241 -0.10830315 0.04864345
v 0.17527249 -0.10777784 0.02699634
v 0.15283192 -0.11255482 0.05014966
v 0.23653768 -0.05149237 -0.06189884
v 0.19011971 -0.09713870 0.03159986
v 0.19596678 -0.09250284 -0.02694980
v 0.21576422 -0.07086370 -0.03677377
v 0.23266970 -0.05372098 -0.05135271
v 0.19698588 -0.09314753 0.02924730
v 0.17072894 -0.11154689 0.02081044
v 0.20224412 -0.09042849 0.02460753
v 0.21576018 -0.08079611 0.00468546
v 0.12438316 -0.07735357 0.11667497
v 0.17653036 -0.10949168 0.00202066
v 0.17441340 -0.10965480 0.01916404
v 0.20025655 -0.09250293 0.01414094
v 0.16134454 -0.11549527 0.02743715
v 0.16203642 -0.11314858 0.03584745
v 0.16301967 -0.10004046 0.06591854
v 0.12617308 -0.12512755 0.03590729
v 0.17104326 -0.09236109 0.07413460
v 0.21720793 -0.07395229 -0.02004140
v 0.18640466 -0.10254101 -0.00489334
v 0.16574328 -0.11681003 -0.00722968
v 0.16301700 -0.09635900 0.07274500
v 0.18034653 -0.10689340 -0.00310355
v 0.21161962 -0.08271702 -0.00587960
v 0.14075299 -0.10631933 0.07044757
v 0.14908490 -0.11398227 0.04928192
v 0.14987089 -0.09886139 0.07804483
v 0.19864950 -0.09382352 0.00590591
v 0.14079158 -0.12420125 0.01836286
v 0.20563666 -0.08646234 -0.01170416
v 0.22329866 -0.06214969 -0.04282064
v 0.20590754 -0.08283736 -0.02679988
v 0.14964909 -0.12486887 0.00311738
v 0.13987990 -0.09812149 0.08419065
v 0.22477312 -0.06239899 -0.03539033
v 0.16167745 -0.11725847 0.01244325
v 0.11818043 -0.11872570 0.05699985
v 0.12201802 -0.11077421 0.06986808
v 0.14540057 -0.11516762 0.04955501
v 0.13903971 -0.11252887 0.05943907
v 0.12275000 -0.11842000 0.05342600
v 0.11879599 -0.11595885 0.06117758
v 0.13308488 -0.12362009 0.02979830
v 0.10913100 -0.09627450 0.09496850
v 0.10143900 -0.08460300 0.11045600
v 0.09872850 -0.08162700 0.11480300
v 0.14986633 -0.11804460 0.03540962
v 0.09546289 -0.07432044 0.12531674
v 0.14532018 -0.12356637 0.01443400
v 0.14535399 -0.11927727 0.03532225
v 0.12133883 -0.11677814 0.05802959
v 0.11495191 -0.09909143 0.08979847
v 0.12662049 -0.12054813 0.04564546
v 0.12699018 -0.08778219 0.10219926
v 0.13213692 -0.08148467 0.11005667
v 0.10552701 -0.07957220 0.11573276
v 0.13661100 -0.12185700 0.03300200
v 0.10895405 -0.09194841 0.14362466
v 0.11052132 -0.09456266 0.14644083
v 0.11475507 -0.10222747 0.13399592
v 0.12383217 -0.12250015 0.10513936
v 0.12499367 -0.12626053 0.09118270
v 0.12588957 -0.12769574 0.09988743
v 0.11783242 -0.10988986 0.11936164
v 0.12699648 -0.13205825 0.10471013
v 0.12721746 -0.13307023 0.09348596
v 0.11963079 -0.11544184 0.12345105
v 0.11481249 -0.10219660 0.13795008
v 0.11602363 -0.11001672 0.14963485
v 0.11620041 -0.10888211 0.14534924
v 0.11428295 -0.10341154 0.14893516
v 0.12840503 -0.14009839 0.09311800
v 0.12770700 -0.13683499 0.08835800
v 0.11728446 -0.11278460 0.13949537
v 0.11823180 -0.11521283 0.13160766
v 0.12795722 -0.13987415 0.08568145
v 0.12030075 -0.12331939 0.05106176
v 0.12283569 -0.12854856 0.04820255
v 0.12665768 -0.13851247 0.04603166
v 0.12364126 -0.12834829 0.04359941
v 0.12865999 -0.14559400 0.04341100
v 0.12383426 -0.12854134 0.11779486
v 0.11749918 -0.11870131 0.13775634
v 0.12887732 -0.13779625 0.03682665
v 0.12667007 -0.13588063 0.11001945
v 0.12939238 -0.14791291 0.04106396
v 0.12756974 -0.15381646 0.06195010
v 0.12842100 -0.14652201 0.08260000
v 0.12785600 -0.14789900 0.07982900
v 0.12899165 -0.15421135 0.04297004
v 0.12106871 -0.12132760 0.04861795
v 0.12701947 -0.14440320 0.10998805
v 0.12781614 -0.15536452 0.05030999
v 0.12733058 -0.15416613 0.07852153
v 0.12829014 -0.15871309 0.04277631
v 0.12614018 -0.15003537 0.11268135
v 0.13291659 -0.14345871 0.03075187
v 0.12826628 -0.14595733 0.09769841
v 0.12307627 -0.15248326 0.12150727
v 0.13077787 -0.12957794 0.02755728
v 0.13882710 -0.14251469 0.02036692
v 0.12231204 -0.15937870 0.11763287
v 0.12322609 -0.14688654 0.12288282
v 0.12398795 -0.15969829 0.10781775
v 0.12585975 -0.15829425 0.09378200
v 0.11488502 -0.16598025 0.13134952
v 0.12521598 -0.15995508 0.07368975
v 0.18630146 -0.11139548 -0.03799690
v 0.14247647 -0.13072119 0.01091440
v 0.16012464 -0.12385789 -0.00933107
v 0.22895931 -0.07201072 -0.08726522
v 0.22215576 -0.07484910 -0.07711475
v 0.24055807 -0.07668748 -0.10430101
v 0.25407497 -0.09125053 -0.12310357
v 0.25817295 -0.10011418 -0.12843167
v 0.25156952 -0.08832414 -0.11949236
v 0.25978563 -0.10430857 -0.13096833
v 0.26333139 -0.12696398 -0.14028888
v 0.25558050 -0.15114149 -0.14058999
v 0.14299513 -0.12716184 0.01040330
v 0.26287050 -0.13480350 -0.14189300
v 0.13672797 -0.12964614 0.01809766
v 0.24221700 -0.07821700 -0.10633100
v 0.24543100 -0.16338550 -0.13642050
v 0.23892060 -0.16915471 -0.13301362
v 0.23766225 -0.17237300 -0.13313075
v 0.17168397 -0.11902899 -0.02227125
v 0.23368099 -0.17617850 -0.13137350
v 0.20860717 -0.20010607 -0.11795590
v 0.21646750 -0.19563800 -0.12275750
v 0.20739400 -0.20321700 -0.11803400
v 0.20048000 -0.21151499 -0.11432300
v 0.19010400 -0.22563000 -0.10817450
v 0.16038245 -0.26454582 -0.08560443
v 0.17845000 -0.24055700 -0.10045200
v 0.15332000 -0.28029549 -0.07809150
v 0.15765300 -0.27182701 -0.08297400
v 0.24104799 -0.07043300 -0.10158400
v 0.15505345 -0.27329300 -0.08008829
v 0.23030141 -0.06668491 -0.08501822
v 0.19429903 -0.09906536 -0.04577042
v 0.18734400 -0.22764999 -0.10649850
v 0.24409876 -0.16202715 -0.13440412
v 0.16904550 -0.25323449 -0.09342600
v 0.15063000 -0.28458199 -0.07501700
v 0.24310511 -0.06743351 -0.10147572
v 0.17495300 -0.24470600 -0.09788800
v 0.14745909 -0.28863437 -0.07091887
v 0.18221050 -0.23519850 -0.10311250
v 0.14608724 -0.12474430 0.00885311
v 0.21945958 -0.07478886 -0.07398318
v 0.19656759 -0.09336241 -0.04431807
v 0.12193183 -0.12388831 0.04497648
v 0.15542200 -0.27594599 -0.08060400
v 0.26141528 -0.10953318 -0.13334830
v 0.25977135 -0.13699548 -0.13947705
v 0.23389088 -0.07104425 -0.09407068
v 0.17893270 -0.11071587 -0.02798365
v 0.24978783 -0.15480124 -0.13606832
v 0.24264104 -0.15837779 -0.12326039
v 0.22121742 -0.17546658 -0.10360491
v 0.20954565 -0.18943869 -0.09406376
v 0.21483463 -0.18070382 -0.09743397
v 0.19724019 -0.20039788 -0.08114862
v 0.23816107 -0.15664948 -0.11513131
v 0.17786101 -0.22972400 -0.06113100
v 0.23260800 -0.15918084 -0.11054528
v 0.18116571 -0.22829514 -0.06709881
v 0.25728363 -0.11210267 -0.11125345
v 0.25738336 -0.11872089 -0.11365349
v 0.25639356 -0.10595123 -0.10794469
v 0.25237270 -0.10006790 -0.09990731
v 0.24646844 -0.09262441 -0.08850505
v 0.23535980 -0.09153885 -0.07001015
v 0.19395048 -0.13289084 -0.03417320
v 0.19831564 -0.13311639 -0.03894048
v 0.18168832 -0.14300667 -0.02392156
v 0.16258827 -0.15705737 -0.00934870
v 0.21912508 -0.11156699 -0.05585106
v 0.25666821 -0.13701251 -0.12490554
v 0.24984783 -0.09241934 -0.09407932
v 0.21102880 -0.11868582 -0.04869848
v 0.24223035 -0.09130240 -0.08100099
v 0.25868195 -0.12315236 -0.11823330
v 0.13597627 -0.15785524 0.02423272
v 0.24027328 -0.15070282 -0.11436228
v 0.25348992 -0.13564192 -0.11882326
v 0.17846862 -0.14860365 -0.02399833
v 0.21658300 -0.17601900 -0.09851000
v 0.25193162 -0.10405257 -0.10149126
v 0.17406413 -0.14760495 -0.01690834
v 0.17304863 -0.24280306 -0.05789984
v 0.18908623 -0.21286303 -0.07304592
v 0.18059207 -0.22237658 -0.06373680
v 0.16452139 -0.25695423 -0.04691047
v 0.16270228 -0.26566534 -0.04575671
v 0.17013563 -0.24772751 -0.05354162
v 0.13155051 -0.16026005 0.03035674
v 0.15878026 -0.27502199 -0.04103140
v 0.18302918 -0.22301638 -0.06728382
v 0.21295754 -0.11417068 -0.04997704
v 0.20317367 -0.12703047 -0.04216569
v 0.14212292 -0.15828922 0.01538623
v 0.13519720 -0.15253889 0.02737443
v 0.16062000 -0.27037001 -0.04340300
v 0.13438733 -0.15161733 0.02995344
v 0.15735651 -0.27883608 -0.03909691
v 0.15182599 -0.28610200 -0.03106700
v 0.15375806 -0.28674713 -0.03398077
v 0.20474200 -0.18811999 -0.08786800
v 0.22596100 -0.16472501 -0.10582700
v 0.25982070 -0.12869679 -0.12442302
v 0.21835600 -0.17371400 -0.09993800
v 0.25915924 -0.10980402 -0.11412989
v 0.26089279 -0.12462295 -0.12415648
v 0.16729459 -0.14495845 -0.00918667
v 0.13049814 -0.14892224 0.03798897
v 0.13839757 -0.14893543 0.02233782
v 0.21534862 -0.11768069 -0.05594660
v 0.14750485 -0.15483630 0.01033633
v 0.22134601 -0.16991100 -0.10227700
v 0.15010200 -0.28882399 -0.02875900
v 0.15874026 -0.26685476 -0.04045350
v 0.21070044 -0.19144262 -0.10185614
v 0.17426901 -0.23179901 -0.05713500
v 0.25939918 -0.13396332 -0.13040818
v 0.18363450 -0.21523200 -0.06702175
v 0.15607710 -0.27808607 -0.03671697
v 0.14838037 -0.14565763 0.00965020
v 0.18021541 -0.13696618 -0.02185344
v 0.24751901 -0.13622400 -0.11496000
v 0.19386999 -0.20106199 -0.07751600
v 0.22270587 -0.17805378 -0.11112243
v 0.22392055 -0.10120069 -0.05914449
v 0.23460700 -0.15423750 -0.11108150
v 0.23827914 -0.09068581 -0.07425133
v 0.15573123 -0.28431595 -0.03983719
v 0.22982262 -0.17338722 -0.12108038
v 0.25175487 -0.15173876 -0.13516188
v 0.16396500 -0.25319651 -0.04654750
v 0.14743300 -0.29264900 -0.07106100
v 0.15650227 -0.12799247 -0.00475427
v 0.18496629 -0.22731455 -0.10420524
v 0.17166612 -0.14147754 -0.01353227
v 0.25541906 -0.09457671 -0.12461735
v 0.22773011 -0.17886384 -0.12705134
v 0.15279108 -0.14195427 0.00424914
v 0.20828924 -0.19838178 -0.11576668
v 0.19858289 -0.20459242 -0.08769648
v 0.17018139 -0.24775185 -0.09362116
v 0.17212062 -0.24652333 -0.06046933
v 0.23435199 -0.08099600 -0.07819300
v 0.22539704 -0.07515043 -0.07999800
v 0.23627600 -0.07944341 -0.08355508
v 0.23802177 -0.08229348 -0.08008438
v 0.23088108 -0.07364350 -0.08945547
v 0.23441898 -0.07452844 -0.09353752
v 0.24236306 -0.08510177 -0.08290161
v 0.23514652 -0.08432250 -0.07421313
v 0.24152775 -0.08115657 -0.08962736
v 0.24267059 -0.08088821 -0.09442237
v 0.24828511 -0.08554395 -0.10178118
v 0.24568558 -0.08137248 -0.11140278
v 0.25119165 -0.08844056 -0.11628968
v 0.25203335 -0.09011977 -0.10572172
v 0.24773764 -0.08706589 -0.09316266
v 0.24450056 -0.08739283 -0.08517889
v 0.25096399 -0.09049000 -0.09881500
v 0.25615683 -0.09692775 -0.11291811
v 0.25687222 -0.09804980 -0.12488107
v 0.25485597 -0.09588352 -0.10574464
v 0.25913678 -0.10532382 -0.11546887
v 0.26043023 -0.11045203 -0.11913579
v 0.26194876 -0.11484251 -0.13323718
v 0.26150001 -0.11894097 -0.12552614
v 0.23647377 -0.08743955 -0.07268845
v 0.26230098 -0.12233388 -0.13543097
v 0.20946301 -0.11581580 -0.04725663
v 0.20418058 -0.11829838 -0.04371237
v 0.22712719 -0.08950848 -0.06496840
v 0.22794077 -0.09454080 -0.06283684
v 0.19407367 -0.12824331 -0.03461146
v 0.15112324 -0.13427798 0.00287677
v 0.17086010 -0.13163511 -0.01629239
v 0.18885561 -0.12972201 -0.03053380
v 0.18450500 -0.12769900 -0.02841800
v 0.18437989 -0.11699106 -0.03392394
v 0.19987383 -0.09902561 -0.05186119
v 0.20649989 -0.08832937 -0.05928324
v 0.19918871 -0.11890333 -0.04123335
v 0.20216866 -0.11103666 -0.04659822
v 0.22297336 -0.09839636 -0.05891613
v 0.23027318 -0.08315006 -0.07159940
v 0.20160621 -0.10205711 -0.05168436
v 0.21504271 -0.08134520 -0.06764849
v 0.16095875 -0.26798798 -0.05685341
v 0.15618956 -0.27085143 -0.06808263
v 0.15843005 -0.27496994 -0.05124936
v 0.16721687 -0.25703447 -0.05585430
v 0.15748911 -0.26663850 -0.07550663
v 0.15298453 -0.28690843 -0.04812172
v 0.15307588 -0.28886821 -0.04403816
v 0.16051887 -0.27171884 -0.04946006
v 0.16896473 -0.25087804 -0.06517423
v 0.15304766 -0.27509817 -0.07451306
v 0.14698761 -0.29034853 -0.06089449
v 0.14775329 -0.30219323 -0.03575030
v 0.15432400 -0.28753701 -0.04048900
v 0.17807716 -0.23515408 -0.06933174
v 0.14233961 -0.30146573 -0.05729473
v 0.17624156 -0.23650344 -0.07846397
v 0.18098182 -0.22993116 -0.07343656
v 0.16927510 -0.24688408 -0.08799903
v 0.15871413 -0.26517367 -0.08219926
v 0.15153872 -0.29443030 -0.03383799
v 0.17178703 -0.24250773 -0.08439965
v 0.17978437 -0.23134001 -0.09628845
v 0.18760899 -0.22046238 -0.09259401
v 0.18345000 -0.22582000 -0.07298800
v 0.18517416 -0.22418875 -0.09721305
v 0.19133154 -0.21398809 -0.07946100
v 0.19487303 -0.21226923 -0.10419650
v 0.20216813 -0.20214000 -0.09969756
v 0.17676801 -0.24920950 -0.09749400
v 0.16419735 -0.26398403 -0.08875325
v 0.16941625 -0.26418025 -0.09023325
v 0.18078899 -0.24194200 -0.10098600
v 0.16725988 -0.29126123 -0.07946640
v 0.15080252 -0.29076706 -0.07380625
v 0.17081501 -0.28694701 -0.08219000
f 41 70 68
f 8 68 70
f 9 68 8
f 9 58 68
f 58 45 68
f 54 45 58
f 62 45 54
f 63 45 62
f 45 63 46
f 46 63 56
f 56 52 46
f 52 56 64
f 64 56 65
f 276 65 56
f 276 277 65
f 275 277 276
f 279 277 275
f 277 279 280
f 279 287 280
f 280 287 65
f 287 290 65
f 290 301 65
f 302 301 290
f 286 302 290
f 312 302 286
f 299 312 286
f 299 3 312
f 306 312 3
f 3 310 306
f 310 302 306
f 310 316 302
f 313 316 310
f 313 320 316
f 320 11 316
f 316 11 37
f 316 37 34
f 316 34 318
f 318 34 36
f 318 36 321
f 318 321 319
f 319 321 308
f 308 321 301
f 307 301 321
f 321 309 307
f 321 24 309
f 321 35 24
f 309 24 412
f 304 309 412
f 304 412 431
f 431 412 420
f 298 431 420
f 293 431 298
f 293 295 431
f 295 300 431
f 71 300 295
f 300 71 304
f 71 295 293
f 291 71 293
f 291 293 292
f 292 293 294
f 367 292 294
f 367 294 298
f 314 367 298
f 231 367 314
f 231 314 336
f 336 314 311
f 336 311 315
f 323 336 315
f 334 336 323
f 334 323 497
f 334 497 247
f 247 497 456
f 498 456 497
f 444 498 497
f 499 498 444
f 499 500 498
f 501 500 499
f 501 499 496
f 504 501 496
f 504 508 501
f 505 508 504
f 508 505 506
f 506 503 508
f 502 508 503
f 508 502 322
f 355 322 502
f 355 372 322
f 372 355 184
f 186 372 184
f 197 372 186
f 188 372 197
f 372 188 324
f 324 341 372
f 193 324 188
f 247 324 193
f 194 247 193
f 204 247 194
f 250 247 204
f 250 364 247
f 263 364 250
f 263 243 364
f 243 231 364
f 263 231 243
f 263 257 231
f 264 257 263
f 261 264 263
f 240 264 261
f 240 253 264
f 253 271 264
f 253 257 271
f 267 257 253
f 253 254 267
f 265 267 254
f 265 255 267
f 267 255 305
f 267 305 231
f 255 265 305
f 265 251 305
f 265 256 251
f 252 256 265
f 60 256 252
f 252 49 60
f 252 258 49
f 60 251 256
f 252 265 254
f 239 252 254
f 248 252 239
f 248 266 252
f 266 258 252
f 259 258 266
f 270 259 266
f 268 270 266
f 179 270 268
f 179 262 270
f 179 12 262
f 12 5 262
f 5 4 262
f 262 4 260
f 259 262 260
f 179 268 224
f 224 268 269
f 177 269 268
f 181 177 268
f 177 181 174
f 181 266 174
f 175 177 174
f 176 177 175
f 176 269 177
f 176 178 269
f 178 180 269
f 180 224 269
f 180 179 224
f 178 179 180
f 175 174 2
f 2 174 172
f 173 2 172
f 173 172 170
f 170 172 171
f 170 171 232
f 170 232 167
f 167 232 168
f 168 232 211
f 232 183 211
f 183 232 230
f 232 236 230
f 232 241 236
f 198 241 232
f 198 171 241
f 171 248 241
f 172 248 171
f 172 174 248
f 171 198 232
f 236 241 230
f 241 239 230
f 230 239 214
f 239 253 214
f 230 214 212
f 230 212 209
f 211 230 209
f 211 209 210
f 209 229 210
f 210 229 213
f 213 229 228
f 229 214 228
f 214 261 228
f 213 228 221
f 228 250 221
f 226 221 250
f 213 221 226
f 216 213 226
f 216 226 220
f 220 226 222
f 222 226 225
f 226 204 225
f 204 235 225
f 225 235 237
f 235 208 237
f 234 237 208
f 237 234 242
f 242 234 238
f 159 242 238
f 160 242 159
f 160 227 242
f 227 225 242
f 169 227 160
f 169 222 227
f 205 222 169
f 162 222 205
f 162 205 169
f 162 169 164
f 164 169 161
f 161 169 160
f 166 164 161
f 163 164 166
f 163 187 164
f 163 165 187
f 168 165 163
f 159 238 223
f 223 238 157
f 157 238 233
f 238 246 233
f 238 244 246
f 244 217 246
f 246 217 206
f 246 206 202
f 218 246 202
f 218 202 245
f 233 218 245
f 233 245 249
f 190 249 245
f 190 245 182
f 182 245 196
f 245 195 196
f 245 199 195
f 199 202 195
f 202 189 195
f 184 189 202
f 184 185 189
f 184 366 185
f 366 355 185
f 185 355 150
f 355 503 150
f 509 150 503
f 365 150 509
f 365 509 326
f 365 326 325
f 326 23 325
f 467 23 326
f 507 467 326
f 507 326 509
f 507 509 494
f 494 509 503
f 490 507 494
f 490 473 507
f 473 469 507
f 466 507 469
f 466 23 507
f 469 23 466
f 23 469 468
f 469 471 468
f 474 471 469
f 475 471 474
f 475 474 480
f 475 480 327
f 327 480 476
f 480 479 476
f 480 482 479
f 482 485 479
f 485 483 479
f 485 486 483
f 428 486 485
f 486 428 487
f 486 487 331
f 487 488 331
f 487 489 488
f 488 489 80
f 489 491 80
f 489 429 491
f 491 429 332
f 429 440 332
f 429 426 440
f 394 440 426
f 394 453 440
f 440 453 370
f 453 333 370
f 373 333 453
f 374 373 453
f 374 357 373
f 374 452 357
f 374 375 452
f 447 452 375
f 447 460 452
f 460 447 462
f 462 343 460
f 462 346 343
f 462 536 346
f 438 536 462
f 537 536 438
f 463 536 537
f 376 463 537
f 535 463 376
f 378 535 376
f 407 535 378
f 407 382 535
f 535 382 533
f 533 526 535
f 535 526 532
f 535 532 536
f 534 536 532
f 534 457 536
f 534 531 457
f 531 464 457
f 531 527 464
f 530 527 531
f 532 530 531
f 525 530 532
f 523 530 525
f 523 514 530
f 518 514 523
f 523 465 518
f 382 465 523
f 382 523 526
f 406 465 382
f 406 513 465
f 411 513 406
f 411 410 513
f 410 517 513
f 517 512 513
f 517 516 512
f 516 515 512
f 515 516 524
f 516 16 524
f 521 16 516
f 529 521 516
f 529 16 521
f 18 16 529
f 19 18 529
f 423 19 529
f 423 529 451
f 529 522 451
f 451 522 410
f 522 516 410
f 421 451 410
f 423 451 421
f 442 423 421
f 422 423 442
f 437 422 442
f 437 442 409
f 410 409 442
f 410 442 419
f 442 413 419
f 454 437 409
f 439 454 409
f 439 409 408
f 408 441 439
f 446 441 408
f 408 378 446
f 424 446 378
f 409 411 408
f 380 408 411
f 408 380 414
f 408 414 407
f 380 382 414
f 422 436 423
f 436 22 423
f 442 421 413
f 423 22 19
f 522 529 516
f 512 515 524
f 524 520 512
f 520 524 20
f 524 17 20
f 520 20 362
f 519 520 362
f 511 520 519
f 511 519 514
f 514 519 528
f 519 353 528
f 528 353 348
f 528 348 358
f 527 528 358
f 348 353 351
f 351 353 368
f 353 350 368
f 353 359 350
f 353 362 359
f 362 455 359
f 362 20 455
f 543 350 359
f 359 20 543
f 543 20 21
f 1 543 21
f 1 542 543
f 542 351 543
f 544 351 542
f 544 540 351
f 539 351 540
f 358 539 540
f 538 358 540
f 538 363 358
f 541 363 538
f 356 363 541
f 363 361 358
f 358 348 539
f 348 351 539
f 542 1 544
f 351 350 543
f 514 528 527
f 519 362 353
f 512 520 511
f 510 512 511
f 510 511 518
f 518 513 510
f 513 512 510
f 410 516 517
f 411 409 410
f 380 411 406
f 380 406 382
f 465 513 518
f 511 514 518
f 526 523 525
f 514 527 530
f 527 358 464
f 457 464 349
f 349 464 361
f 361 464 358
f 363 457 349
f 356 457 363
f 356 347 457
f 346 457 347
f 532 531 534
f 526 525 532
f 382 526 533
f 414 382 407
f 408 407 378
f 376 424 378
f 424 376 377
f 403 424 377
f 403 377 375
f 427 403 375
f 435 427 375
f 425 435 375
f 425 375 381
f 381 375 379
f 400 381 379
f 449 381 400
f 445 449 400
f 445 400 401
f 39 445 401
f 39 401 384
f 384 401 398
f 401 394 398
f 401 374 394
f 379 374 401
f 383 384 398
f 383 398 428
f 428 398 429
f 385 383 428
f 395 385 428
f 386 385 395
f 395 387 386
f 397 387 395
f 481 397 395
f 472 397 481
f 472 490 397
f 490 450 397
f 388 450 490
f 397 29 387
f 450 29 397
f 388 29 450
f 388 433 29
f 393 433 388
f 393 30 433
f 390 30 393
f 416 390 393
f 396 416 393
f 415 416 396
f 415 492 416
f 492 493 416
f 448 493 492
f 506 493 448
f 495 506 448
f 495 494 506
f 388 494 495
f 495 393 388
f 495 448 393
f 493 496 416
f 416 496 389
f 496 444 389
f 389 444 390
f 444 391 390
f 391 444 430
f 444 458 430
f 497 430 458
f 497 461 430
f 497 315 461
f 315 443 461
f 432 443 315
f 432 434 443
f 443 434 430
f 430 434 405
f 434 392 405
f 417 392 434
f 417 28 392
f 412 28 417
f 412 26 28
f 26 412 25
f 392 28 32
f 392 32 31
f 402 392 31
f 402 31 27
f 390 402 27
f 405 392 402
f 391 405 402
f 434 432 417
f 418 417 432
f 311 418 432
f 311 420 418
f 418 420 399
f 418 399 417
f 399 412 417
f 461 443 430
f 430 405 391
f 391 402 390
f 448 492 415
f 448 415 396
f 448 396 393
f 390 416 389
f 390 27 30
f 433 30 29
f 387 29 33
f 387 33 404
f 404 33 38
f 38 39 404
f 387 404 386
f 404 384 386
f 386 384 385
f 384 383 385
f 404 39 384
f 400 379 401
f 377 376 375
f 376 438 375
f 463 535 536
f 376 537 438
f 457 346 536
f 343 346 345
f 343 345 344
f 460 343 344
f 342 460 344
f 340 460 342
f 460 340 339
f 339 357 460
f 357 339 338
f 333 357 338
f 438 462 447
f 375 438 447
f 375 374 379
f 452 460 357
f 373 357 333
f 370 333 335
f 332 370 335
f 332 335 74
f 74 335 87
f 73 74 87
f 75 74 73
f 77 74 75
f 77 75 72
f 84 77 72
f 93 77 84
f 101 93 84
f 86 93 101
f 146 86 101
f 101 112 146
f 127 86 146
f 95 86 127
f 110 95 127
f 110 127 138
f 106 110 138
f 137 110 106
f 137 106 148
f 140 137 148
f 153 140 148
f 116 140 153
f 134 116 153
f 134 121 116
f 134 129 121
f 129 134 133
f 139 129 133
f 121 129 123
f 129 152 123
f 129 145 152
f 145 215 152
f 152 215 135
f 149 135 215
f 215 203 149
f 200 203 215
f 215 196 200
f 219 196 215
f 143 219 215
f 196 219 143
f 151 196 143
f 141 151 143
f 196 192 200
f 200 192 195
f 200 195 147
f 147 195 130
f 195 365 130
f 195 150 365
f 130 365 354
f 365 325 354
f 325 371 354
f 371 128 354
f 126 128 371
f 126 371 120
f 120 371 360
f 360 371 352
f 371 108 352
f 371 327 108
f 371 471 327
f 325 471 371
f 471 325 470
f 327 337 108
f 337 477 108
f 477 99 108
f 477 330 99
f 330 328 99
f 330 459 328
f 330 484 459
f 459 484 329
f 484 331 329
f 478 484 330
f 479 484 478
f 479 478 477
f 477 478 330
f 329 328 459
f 99 328 329
f 99 329 96
f 329 89 96
f 331 89 329
f 89 331 369
f 369 81 89
f 369 80 81
f 94 89 81
f 94 81 82
f 94 82 79
f 85 94 79
f 88 94 85
f 91 94 88
f 91 92 94
f 92 96 94
f 98 96 92
f 98 97 96
f 98 107 97
f 107 98 104
f 105 107 104
f 117 107 105
f 117 114 107
f 117 124 114
f 118 124 117
f 122 124 118
f 122 125 124
f 125 119 124
f 126 119 125
f 135 126 125
f 135 132 126
f 135 130 132
f 135 136 130
f 135 203 136
f 203 130 136
f 126 132 354
f 131 135 125
f 131 123 135
f 119 115 124
f 124 115 102
f 109 124 102
f 114 109 102
f 115 113 102
f 115 360 113
f 113 360 102
f 102 360 108
f 119 360 115
f 131 125 122
f 121 131 122
f 121 122 116
f 122 118 116
f 124 109 114
f 114 102 107
f 107 102 103
f 103 99 107
f 103 102 99
f 116 117 105
f 111 116 105
f 116 111 140
f 111 105 140
f 137 105 104
f 137 140 105
f 137 104 110
f 110 104 100
f 110 100 95
f 100 98 95
f 95 98 91
f 104 98 100
f 107 96 97
f 98 92 91
f 95 91 88
f 90 95 88
f 95 90 86
f 90 88 86
f 86 88 79
f 86 79 83
f 83 79 78
f 83 78 93
f 93 78 76
f 78 81 76
f 81 80 76
f 76 80 74
f 79 81 78
f 88 85 79
f 82 81 79
f 94 96 89
f 107 99 96
f 102 108 99
f 360 352 108
f 119 120 360
f 119 126 120
f 126 354 128
f 130 354 132
f 203 147 130
f 200 147 203
f 149 203 135
f 143 215 145
f 142 143 145
f 139 142 145
f 139 145 144
f 139 144 129
f 141 142 139
f 141 143 142
f 129 144 145
f 123 152 135
f 123 131 121
f 112 101 84
f 93 76 77
f 76 74 77
f 72 75 73
f 80 332 74
f 394 374 453
f 398 394 426
f 398 426 429
f 332 440 370
f 80 491 332
f 369 488 80
f 487 429 489
f 331 488 369
f 484 486 331
f 428 429 487
f 485 395 428
f 485 480 395
f 480 485 482
f 472 395 480
f 472 481 395
f 483 486 484
f 479 483 484
f 476 479 477
f 476 477 327
f 472 480 474
f 475 327 471
f 472 474 469
f 468 471 470
f 468 470 23
f 469 473 472
f 472 473 490
f 388 490 494
f 507 23 467
f 325 23 470
f 195 185 150
f 189 185 195
f 196 195 192
f 151 190 182
f 151 154 190
f 154 233 190
f 154 155 233
f 156 233 155
f 190 233 249
f 245 202 199
f 202 206 184
f 206 217 184
f 217 207 184
f 191 184 207
f 207 197 191
f 207 201 197
f 208 201 207
f 238 208 207
f 208 197 201
f 197 184 191
f 244 207 217
f 238 207 244
f 246 218 233
f 156 157 233
f 157 159 223
f 158 159 157
f 158 160 159
f 238 234 208
f 235 188 208
f 235 193 188
f 242 225 237
f 222 225 227
f 162 220 222
f 220 162 216
f 187 216 162
f 187 210 216
f 187 165 210
f 165 168 210
f 164 187 162
f 216 210 213
f 209 214 229
f 209 212 214
f 183 230 211
f 168 211 210
f 167 168 163
f 268 266 181
f 270 262 259
f 260 258 259
f 174 266 248
f 248 239 241
f 239 254 253
f 240 214 253
f 214 240 261
f 228 261 263
f 264 271 257
f 267 231 257
f 250 228 263
f 364 334 247
f 231 334 364
f 250 204 226
f 235 204 194
f 235 194 193
f 208 188 197
f 184 197 186
f 184 355 366
f 341 322 372
f 503 355 502
f 494 503 506
f 493 506 505
f 505 504 493
f 322 501 508
f 501 322 498
f 322 341 498
f 341 324 498
f 493 504 496
f 500 501 498
f 499 444 496
f 444 497 458
f 498 324 456
f 247 456 324
f 323 315 497
f 315 311 432
f 334 231 336
f 314 298 311
f 291 292 367
f 251 291 367
f 251 367 305
f 305 367 231
f 251 53 291
f 53 69 291
f 53 251 60
f 60 52 53
f 49 52 60
f 49 51 52
f 47 51 49
f 44 51 47
f 44 46 51
f 41 46 44
f 41 44 40
f 44 42 40
f 42 44 59
f 42 59 43
f 41 42 43
f 41 40 42
f 44 47 59
f 71 291 69
f 293 298 294
f 311 298 420
f 420 412 399
f 300 304 431
f 71 309 304
f 412 24 25
f 71 307 309
f 301 307 71
f 303 308 301
f 36 35 321
f 317 313 310
f 7 313 317
f 6 7 317
f 3 6 317
f 7 11 313
f 316 318 302
f 302 318 319
f 3 317 310
f 296 3 299
f 296 299 279
f 296 279 289
f 289 279 281
f 282 289 281
f 288 289 282
f 297 289 288
f 289 297 3
f 297 13 3
f 288 13 297
f 283 13 288
f 283 288 284
f 282 283 284
f 285 283 282
f 273 285 282
f 285 273 14
f 13 285 14
f 285 13 283
f 15 14 273
f 10 15 273
f 10 273 272
f 10 272 50
f 272 48 50
f 272 54 48
f 272 274 54
f 272 282 274
f 278 54 274
f 274 281 278
f 281 275 278
f 57 278 275
f 57 275 55
f 55 275 61
f 275 56 61
f 54 278 57
f 273 282 272
f 282 284 288
f 282 281 274
f 289 3 296
f 279 299 286
f 279 286 290
f 65 301 71
f 287 279 290
f 281 279 275
f 277 280 65
f 275 276 56
f 52 64 53
f 53 64 66
f 52 51 46
f 45 46 41
f 70 41 43
f 43 67 70
f 70 67 8
f 68 45 41

