v -0.185208 0.0347043 0.0242238
v -0.185014 0.0217802 0.0185424
v -0.185137 0.0260554 0.0204761
v -0.18526 0.0303307 0.0224098
v -0.184764 0.0174282 0.0165381
v -0.184326 0.0195876 0.0230262
v -0.184006 0.0134027 0.0141067
v -0.183648 0.0153632 0.0208064
v -0.182079 0.0114232 0.0181521
v -0.181662 0.0133864 0.024839
v -0.178242 0.00741427 0.026231
v -0.180146 0.00942298 0.0221894
v -0.179445 0.0052966 0.0196268
v -0.181135 0.00745897 0.0155231
v -0.1792 0.00409585 0.0126757
v -0.177549 0.00179862 0.0167103
v -0.173661 -0.00356436 0.0177226
v -0.175499 -0.00138917 0.0137573
v -0.171218 -0.00647526 0.0145207
v -0.171081 -0.00565268 0.0213703
v -0.166139 -0.0109834 0.0145312
v -0.168619 -0.00842788 0.0180469
v -0.160275 -0.014478 0.0213238
v -0.163391 -0.0128754 0.0179737
v -0.165826 -0.0102499 0.02148
v -0.162558 -0.0116283 0.0248104
v -0.167909 -0.00717603 0.024852
v -0.169449 -0.00342721 0.0277841
v -0.174109 0.00190755 0.0270997
v -0.170831 0.000382976 0.0306248
v -0.175567 0.0057062 0.0299748
v -0.167255 -0.00101081 0.03398
v -0.160385 -0.009131 0.030959
v -0.16182 -0.0055384 0.033949
v -0.165866 -0.00471706 0.0310782
v -0.158812 -0.0125602 0.0278885
v -0.164391 -0.0082666 0.0280605
v -0.153051 -0.0166984 0.0276109
v -0.15684 -0.0157404 0.0245545
v -0.154229 -0.0178995 0.0209173
v -0.157587 -0.0166708 0.017701
v -0.150461 -0.0186429 0.0237967
v -0.142266 -0.0196296 0.0286747
v -0.146743 -0.0191978 0.0263803
v -0.14882 -0.0172164 0.0301438
v -0.109076 0.0427532 0.0651248
v -0.144287 -0.0175236 0.0324019
v -0.160827 -0.0153346 0.0144384
v -0.172659 -0.00193184 0.0242554
v -0.175726 -0.00043502 0.020731
v -0.177204 0.00338839 0.0235556
v -0.179346 0.0115301 0.02878
v -0.18265 0.0175735 0.027318
v -0.182679 0.0220906 0.0293322
v -0.182436 0.0267146 0.0312087
v -0.181981 0.0314156 0.0329773
v -0.184008 0.0330158 0.0286513
v -0.181202 0.0360861 0.0345347
v -0.183148 0.0375536 0.0300983
v -0.179987 0.04078 0.0354308
v -0.182019 0.0422099 0.0311272
v -0.178518 0.045585 0.0359342
v -0.17694 0.050244 0.036388
v -0.180086 0.0467059 0.0314945
v -0.182883 0.0434476 0.0265147
v -0.181092 0.0478008 0.0269633
v -0.178103 0.0510808 0.0317484
v -0.175874 0.055146 0.0313863
v -0.174514 0.0545019 0.0358608
v -0.172003 0.0586233 0.0351649
v -0.170195 0.0581972 0.0395011
v -0.164778 0.0614904 0.0422966
v -0.167366 0.0618711 0.0382478
v -0.159381 0.0647598 0.0445386
v -0.161796 0.0649385 0.0404206
v -0.153338 0.0672248 0.0458823
v -0.156516 0.0640477 0.0483575
v -0.152966 0.0629258 0.0515145
v -0.150256 0.0664244 0.0494712
v -0.145053 0.06003 0.0564342
v -0.149096 0.061496 0.0541385
v -0.146289 0.0649743 0.0519108
v -0.141089 0.0586847 0.0588631
v -0.138523 0.062534 0.0570443
v -0.142399 0.0637431 0.0544654
v -0.139741 0.0672939 0.0523343
v -0.143632 0.068554 0.0498087
v -0.184165 0.0391986 0.0255803
v -0.184586 0.0239676 0.0250491
v -0.179907 0.0158895 0.0311312
v -0.176861 0.0143032 0.0347623
v -0.135819 0.0660397 0.0547831
v -0.134384 0.0611398 0.058896
v -0.139466 0.0532865 0.0625346
v -0.136965 0.0572807 0.060781
v -0.132613 0.0556722 0.0622759
v -0.1301 0.0596207 0.060458
v -0.18469 0.0284123 0.0270609
v -0.178564 0.0346147 0.0386698
v -0.135055 0.0516233 0.0638591
v -0.132524 0.0455521 0.0650673
v -0.137085 0.0472221 0.0641652
v -0.127936 0.0438692 0.0658741
v -0.126052 0.0482227 0.0657719
v -0.121408 0.0465274 0.066191
v -0.113452 0.0341606 0.0665288
v -0.113618 0.0391294 0.0664371
v -0.112835 0.0452758 0.0650829
v -0.176025 0.0284286 0.0408141
v -0.110082 0.048756 0.0627119
v -0.107996 0.0337346 0.0658879
v -0.108536 0.0382439 0.0655064
v -0.103317 0.0353359 0.0641577
v -0.102727 0.0303961 0.0640315
v -0.0974874 0.0270648 0.0621584
v -0.0955373 0.0181642 0.0599972
v -0.0965354 0.0226058 0.0611338
v -0.101018 0.0212176 0.0625092
v -0.102016 0.0256591 0.0636458
v -0.0945278 0.0137645 0.0589672
v -0.0921579 0.00619816 0.0544516
v -0.0934208 0.00988281 0.0570666
v -0.0895628 -0.000601715 0.0484158
v -0.0908622 0.00278312 0.0514551
v -0.0882744 -0.00397611 0.0453605
v -0.094159 -0.0025946 0.0489562
v -0.0953762 0.000711841 0.0521163
v -0.100044 -0.00121309 0.0525518
v -0.0928589 -0.00579792 0.0456285
v -0.0974321 -0.00760564 0.0458736
v -0.0987922 -0.00447702 0.0493226
v -0.0960788 -0.0107159 0.0423843
v -0.102088 -0.00919079 0.0456307
v -0.106781 -0.0106726 0.0451611
v -0.111475 -0.0121543 0.0446915
v -0.116169 -0.0136361 0.0442219
v -0.103403 -0.00618395 0.0493467
v -0.108096 -0.00766573 0.0488771
v -0.10077 -0.0121946 0.0419154
v -0.105437 -0.0136349 0.0414563
v -0.110103 -0.0150752 0.0409973
v -0.114685 -0.0162616 0.0402882
v -0.119239 -0.0173498 0.039342
v -0.123875 -0.0179769 0.0377533
v -0.173513 0.0128387 0.0381087
v -0.176316 0.00994874 0.0323982
v -0.173065 0.00842898 0.0358024
v -0.176882 0.0234888 0.0388571
v -0.120869 -0.0147157 0.0432502
v -0.125475 -0.0152612 0.0416176
v -0.122403 -0.0117725 0.0470334
v -0.117607 -0.0105631 0.0479193
v -0.119041 -0.00713052 0.0512802
v -0.115673 -0.00186074 0.0548641
v -0.114266 -0.00598459 0.0520965
v -0.110884 -0.000703951 0.0554978
v -0.109498 -0.0045445 0.0525323
v -0.104723 -0.00309733 0.0529378
v -0.101366 0.00245696 0.0552024
v -0.0980094 0.00801125 0.057467
v -0.106133 0.000850074 0.055461
v -0.10276 0.00637581 0.0578427
v -0.107424 0.00488907 0.058054
v -0.0991906 0.0122552 0.0598066
v -0.103849 0.0107782 0.0600063
v -0.108507 0.00930122 0.060206
v -0.104885 0.0151914 0.0620773
v -0.105782 0.0196429 0.063588
v -0.112176 0.00358472 0.0579476
v -0.120152 -0.0026522 0.0532164
v -0.116409 0.00314461 0.055681
v -0.112843 0.00869562 0.0585363
v -0.109509 0.0139252 0.0619024
v -0.113306 0.0142319 0.0586904
v -0.110515 0.0190739 0.0631605
v -0.106643 0.0242043 0.0647431
v -0.180085 0.0204071 0.033272
v -0.177054 0.0188188 0.0368738
v -0.119134 0.0357131 0.0660179
v -0.123325 0.03784 0.0642091
v -0.127782 0.0404534 0.0627236
v -0.112826 -0.00914325 0.0484324
v -0.0966491 0.00421346 0.0549917
v -0.100093 0.0167273 0.0613011
v -0.103971 0.0399616 0.0637437
v -0.106038 0.0449226 0.062948
v -0.107525 0.029154 0.0656656
v -0.11875 0.052188 0.063451
v -0.116771 0.0541841 0.0620382
v -0.121228 0.0561617 0.0619423
v -0.17923 0.0298017 0.0368389
v -0.123681 0.052296 0.0642303
v -0.118503 0.040374 0.0668407
v -0.123279 0.042162 0.0663667
v -0.141578 0.0489186 0.0630486
v -0.152108 0.0469321 0.0595024
v -0.149968 0.0516096 0.0589825
v -0.151659 0.0575332 0.0557181
v -0.155947 0.0481874 0.0567969
v -0.153821 0.0528594 0.0562832
v -0.157466 0.0541206 0.0532825
v -0.15534 0.0587926 0.0527688
v -0.159574 0.0494073 0.0537861
v -0.163196 0.0506163 0.0507726
v -0.166817 0.0518253 0.0477592
v -0.16109 0.0553343 0.0502701
v -0.158985 0.0600523 0.0497676
v -0.164609 0.0564985 0.0471411
v -0.169945 0.0528651 0.044212
v -0.1747 0.0491916 0.0406263
v -0.171732 0.0481231 0.0442707
v -0.177678 0.0395206 0.0396775
v -0.175331 0.0335124 0.0428776
v -0.17095 0.0372358 0.0470918
v -0.174373 0.0383904 0.043583
v -0.169973 0.0421022 0.0476549
v -0.166522 0.0409209 0.0511261
v -0.162617 0.03959 0.0537852
v -0.157622 0.0433314 0.056873
v -0.157855 0.0391258 0.0544756
v -0.15246 0.0393781 0.054057
v -0.147137 0.043019 0.0567939
v -0.152613 0.0427637 0.0572007
v -0.137545 0.0436621 0.0613477
v -0.142278 0.0451835 0.0607171
v -0.132361 0.042786 0.0614602
v -0.17966 0.0251042 0.0350572
v -0.171875 0.0323506 0.0464792
v -0.167323 0.036023 0.0504181
v -0.167917 0.0311849 0.0495381
v -0.168565 0.0217092 0.0464845
v -0.16834 0.0263867 0.0482437
v -0.176206 0.0443657 0.0401435
v -0.162178 0.0610952 0.0463324
v -0.167351 0.0574837 0.0432498
v -0.163642 0.0216973 0.0459993
v -0.163339 0.0264372 0.047941
v -0.173285 0.0432597 0.0440591
v -0.168488 0.0469819 0.0478186
v -0.161459 0.0446088 0.0541579
v -0.165042 0.0458037 0.0511216
v -0.147426 0.0456903 0.0605946
v -0.130566 0.049888 0.0649484
v -0.128188 0.0540382 0.0635606
v -0.145992 0.0502543 0.0614407
v -0.143642 0.0547008 0.0604687
v -0.147673 0.0561413 0.0581406
v -0.172523 0.0538722 0.0401671
f 4 98 57 1
f 57 59 88 1
f 5 8 6 2
f 6 89 3 2
f 89 98 4 3
f 7 9 8 5
f 8 10 53 6
f 53 54 89 6
f 9 12 10 8
f 14 13 12 9
f 12 11 52 10
f 52 90 53 10
f 12 13 51 11
f 51 29 31 11
f 14 15 16 13
f 16 50 51 13
f 18 17 50 16
f 19 22 20 17
f 20 49 50 17
f 22 25 27 20
f 27 28 49 20
f 24 25 22 21
f 26 25 24 23
f 24 48 41 23
f 41 40 39 23
f 39 36 26 23
f 26 37 27 25
f 36 33 37 26
f 37 35 28 27
f 30 29 49 28
f 35 32 30 28
f 51 50 49 29
f 34 35 37 33
f 39 40 42 38
f 42 44 45 38
f 47 45 44 43
f 146 91 90 52
f 90 177 54 53
f 55 98 89 54
f 177 227 55 54
f 56 57 98 55
f 227 191 56 55
f 58 59 57 56
f 191 99 58 56
f 60 61 59 58
f 61 65 88 59
f 62 64 61 60
f 212 233 62 60
f 64 66 65 61
f 63 67 64 62
f 233 210 63 62
f 69 68 67 63
f 248 71 70 69
f 235 72 73 71
f 234 74 75 72
f 77 78 79 76
f 207 202 78 77
f 202 198 81 78
f 81 82 79 78
f 85 82 81 80
f 81 198 247 80
f 247 246 83 80
f 83 84 85 80
f 85 86 87 82
f 246 94 95 83
f 95 93 84 83
f 92 86 85 84
f 95 96 97 93
f 246 245 195 94
f 195 102 100 94
f 100 96 95 94
f 100 243 244 96
f 102 101 243 100
f 102 224 226 101
f 226 181 103 101
f 103 104 243 101
f 195 225 224 102
f 181 180 194 103
f 194 105 104 103
f 192 244 243 104
f 105 188 192 104
f 111 112 107 106
f 46 186 110 108
f 187 114 113 111
f 113 185 112 111
f 185 186 46 112
f 187 176 119 114
f 119 118 117 115
f 117 118 184 116
f 184 164 120 116
f 119 176 168 118
f 168 167 184 118
f 164 160 122 120
f 122 160 183 121
f 183 127 124 121
f 124 127 126 123
f 126 129 125 123
f 127 128 131 126
f 131 130 129 126
f 183 159 128 127
f 159 161 158 128
f 158 137 131 128
f 131 137 133 130
f 133 139 132 130
f 137 138 134 133
f 134 140 139 133
f 138 182 135 134
f 135 141 140 134
f 182 152 136 135
f 136 142 141 135
f 152 151 149 136
f 149 143 142 136
f 158 157 138 137
f 157 155 182 138
f 149 150 144 143
f 182 155 153 152
f 155 154 170 153
f 155 157 156 154
f 156 169 171 154
f 157 158 161 156
f 161 163 169 156
f 162 163 161 159
f 183 160 162 159
f 164 165 162 160
f 165 166 163 162
f 166 172 169 163
f 184 167 165 164
f 167 173 166 165
f 173 174 172 166
f 168 175 173 167
f 193 194 180 179
f 189 190 192 188
f 245 242 225 195
f 197 200 199 196
f 199 219 223 196
f 223 222 242 196
f 242 245 197 196
f 247 198 200 197
f 245 246 247 197
f 202 201 200 198
f 200 201 203 199
f 203 240 219 199
f 202 207 206 201
f 206 204 203 201
f 204 241 240 203
f 206 208 205 204
f 205 239 241 204
f 209 211 239 205
f 233 238 211 210
f 238 216 239 211
f 215 238 233 212
f 228 214 215 213
f 216 238 215 214
f 228 230 229 214
f 229 217 216 214
f 217 241 239 216
f 218 240 241 217
f 220 221 223 219
f 236 237 232 231
f 177 178 148 227
f 148 109 191 227
f 177 90 91 178
f 145 91 146 147
