v 0.121208625 -0.123048375 0.074757575
v 0.115934625 -0.107384375 0.1126975
v 0.118600875 -0.113252375 0.101280175
v 0.125823375 -0.13395925 0.076796
v 0.125484875 -0.12898125 0.0928949
v 0.12525125 -0.128012375 0.1061729125
v 0.1278695 -0.14369025 0.08104025
v 0.12806025 -0.143775375 0.0940418625
v 0.1262965 -0.142076875 0.108531075
v 0.118961875 -0.112988 0.119289
v 0.119149375 -0.121394 0.1326675
v 0.130944875 -0.1518325 0.0374803375
v 0.12525775 -0.137269375 0.0516167
v 0.135577265625 -0.136741046875 0.0247811609375
v 0.1644476875 -0.131455484375 -0.0098076515
v 0.1541589375 -0.134264859375 0.00118869334375
v 0.184869375 -0.123535421875 -0.030539475
v 0.19536525 -0.1184995 -0.039660875
v 0.210209296875 -0.095102278125 -0.0563635390625
v 0.199684953125 -0.100993371875 -0.048548215625
v 0.190223375 -0.106253353125 -0.0388605515625
v 0.172644609375 -0.1155579375 -0.0172914673437
v 0.155493765625 -0.12257328125 0.005080777625
v 0.137544046875 -0.12430721875 0.02803535
v 0.146569171875 -0.123985828125 0.0164554833281
v 0.147550703125 -0.117832390625 0.0365757171875
v 0.138124171875 -0.117018453125 0.04791945625
v 0.121588 -0.11130075 0.0700580875
v 0.126080875 -0.115544625 0.0597099875
v 0.138996609375 -0.107850534375 0.0675155140625
v 0.121068375 -0.0998000125 0.0869245125
v 0.12649075 -0.104735125 0.0780603125
v 0.1083885 -0.082411925 0.11192175
v 0.116975125 -0.0877723625 0.1036754
v 0.115414375 -0.0769485 0.118398375
v 0.11741325 -0.11054125 0.13031475
v 0.12635975 -0.0803939625 0.11222025
v 0.137403375 -0.0851856625 0.103523475
v 0.1255005 -0.0930957875 0.0953535
v 0.168366125 -0.093889325 0.0729361875
v 0.158532375 -0.092205675 0.0838871125
v 0.148181125 -0.089240975 0.094093975
v 0.1489539375 -0.10014330625 0.0757227171875
v 0.158750734375 -0.10205605625 0.0648881140625
v 0.148820328125 -0.11011396875 0.0566617453125
v 0.168109234375 -0.10268655625 0.0536487765625
v 0.176953921875 -0.102125123437 0.042105728125
v 0.167050828125 -0.11028915625 0.0338267453125
v 0.175289078125 -0.1081183875 0.0220990857812
v 0.19292121875 -0.096946578125 0.0186745867188
v 0.18284521875 -0.104428314062 0.0103709634375
v 0.17265303125 -0.111647170313 0.00188065390625
v 0.180077015625 -0.107081635938 -0.00952666234375
v 0.189987109375 -0.099763675 -0.0012340790625
v 0.20647796875 -0.086564465625 -0.00456015234375
v 0.19998278125 -0.0924067859375 0.00700478984375
v 0.209727625 -0.08474145 0.01521233375
v 0.202875125 -0.0892584875 0.0268994125
v 0.2211685 -0.071443225 -0.00784270375
v 0.21207609375 -0.079384903125 -0.0161745523438
v 0.20243984375 -0.0869421265625 -0.0243231760937
v 0.208096125 -0.0795199625 -0.03608879375
v 0.2174233125 -0.0715591140625 -0.028025415625
v 0.22290775 -0.063479375 -0.040179475
v 0.2158915 -0.0700924125 -0.048715375
v 0.200576703125 -0.088976275 -0.0437372015625
v 0.224946078125 -0.0745803265625 -0.0771675234375
v 0.220594953125 -0.089291209375 -0.0639033125
v 0.230458578125 -0.085095959375 -0.0727923703125
v 0.256466125 -0.103424975 -0.1105095
v 0.26009278125 -0.11196495625 -0.122887328125
v 0.26297759375 -0.1212713125 -0.13298534375
v 0.25726075 -0.13298875 -0.1240145
v 0.258225375 -0.140567 -0.13835575
v 0.241861125 -0.161465375 -0.127864125
v 0.232134125 -0.17147525 -0.123003375
v 0.222254375 -0.174903375 -0.1049380375
v 0.222449 -0.181534 -0.118089125
v 0.2036865 -0.20210375 -0.10803925
v 0.204962375 -0.19662275 -0.0943972625
v 0.189382625 -0.216538 -0.08297955
v 0.19456475 -0.212644625 -0.1029235125
v 0.185837 -0.223479125 -0.0976354625
v 0.1775975 -0.234536875 -0.0921028375
v 0.173447125 -0.241547921875 -0.072684153125
v 0.169782125 -0.248768 -0.0533857125
v 0.1502535 -0.29191725 -0.0467922
v 0.1462395 -0.301265 -0.0423458625
v 0.1493205 -0.29788275 -0.032123325
v 0.1531305 -0.288539 -0.0366361125
v 0.122457125 -0.123960625 0.1183605
v 0.187103375 -0.214512375 -0.0721062125
v 0.181504125 -0.224201375 -0.0652975375
v 0.146769625 -0.2924985 -0.0615679875
v 0.150506 -0.2818495 -0.06843935
v 0.156246 -0.269503875 -0.074431325
v 0.12384225 -0.13849325 0.120681125
v 0.12779575 -0.14987625 0.0496234
v 0.12897484375 -0.13721296875 0.0377908890625
v 0.109937125 -0.10280125 0.0959966625
v 0.155623 -0.278244875 -0.0549973
v 0.160866375 -0.266787875 -0.058468675
v 0.164629375 -0.260261875 -0.049841675
v 0.17544325 -0.236397625 -0.059390575
v 0.166933625 -0.253492265625 -0.06680875
v 0.16993975 -0.2459035 -0.0863577
v 0.162902375 -0.257603875 -0.0804155375
v 0.180553328125 -0.22992009375 -0.07842878125
v 0.23114275 -0.16430775 -0.11029325
v 0.255851125 -0.123811125 -0.115490375
v 0.249810875 -0.143398875 -0.120655875
v 0.23307075 -0.097613125 -0.0723222
v 0.2264595 -0.1020858375 -0.0627953875
v 0.200436 -0.131181625 -0.0417032
v 0.217347625 -0.10725525 -0.054244725
v 0.1903995 -0.1365935 -0.03172365
v 0.179507375 -0.141442125 -0.02143925
v 0.146658375 -0.150123375 0.01203291575
v 0.157438875 -0.147842 0.0006160695
v 0.137503625 -0.15143725 0.02426745
v 0.168580125 -0.145093125 -0.01059582175
v 0.207356 -0.124562875 -0.0497286125
v 0.23826775 -0.096048675 -0.0811664625
v 0.252543375 -0.1144925 -0.1085175
v 0.240285 -0.1537985 -0.115557
v 0.213571625 -0.18573725 -0.0996310125
v 0.196637875 -0.20765025 -0.089171575
v 0.212911125 -0.191672 -0.113120625
v 0.275371375 -0.122432375 -0.140821375
v 0.109313875 -0.09948975 0.10861375
v 0.11266775 -0.108687375 0.0847339
v 0.238479359375 -0.0531453765625 -0.068687471875
v 0.230170375 -0.0561187375 -0.0542140125
v 0.24042825 -0.048445525 -0.050218125
v 0.2210365 -0.06504845 -0.0584049375
v 0.216089875 -0.07751526875 -0.0657602609375
v 0.23800665625 -0.06285459375 -0.0877655421875
v 0.25527675 -0.0917231875 -0.1207241875
v 0.2489545625 -0.0838019265625 -0.110681560937
v 0.26223646875 -0.100914098437 -0.129715625
v 0.263177375 -0.081214521875 -0.122669609375
v 0.26596475 -0.06345015 -0.1097099625
v 0.256874625 -0.05655365 -0.0971224
v 0.25011075 -0.0520743375 -0.08433885
v 0.246469109375 -0.0661182984375 -0.100824489062
v 0.254829546875 -0.072352859375 -0.112644948438
v 0.274782375 -0.0729104625 -0.119893375
v 0.280950875 -0.083253825 -0.127342625
v 0.277945 -0.1025743 -0.135582375
v 0.27160575 -0.1115605 -0.137997125
v 0.274213375 -0.0918647625 -0.131244875
v 0.229330171875 -0.0627555109375 -0.0743444546875
v 0.24914975 -0.045155525 -0.062103825
v 0.25621325 -0.0459553625 -0.076035375
v 0.266956625 -0.1311385 -0.1416895
v 0.250814125 -0.1511855 -0.132958
v 0.253319875 -0.0949844375 -0.1026353625
v 0.24758325 -0.0882373625 -0.0925543
v 0.242025265625 -0.077760340625 -0.09987409375
v 0.24141775 -0.0862263625 -0.08347015
v 0.23389521875 -0.0745593 -0.0885684640625
v 0.20800784375 -0.082870646875 -0.054744465625
v 0.23052875 -0.0580290875 -0.0313058625
v 0.226637125 -0.06381765 -0.019606375
v 0.19393065625 -0.095469675 -0.0323539140625
v 0.187081390625 -0.101571270313 -0.0209473923438
v 0.1965479375 -0.0939043328125 -0.012767334375
v 0.216280375 -0.0791386625 0.00372734
v 0.164172625 -0.1195381875 -0.00613447307812
v 0.195020875 -0.0921164375 0.0385097
v 0.186562125 -0.0936791125 0.050118475
v 0.185250984375 -0.100259567187 0.0304057765625
v 0.158218234375 -0.11097721875 0.0454288390625
v 0.1777915 -0.09425195 0.0617085875
v 0.13871575 -0.09692280625 0.0858587671875
v 0.156479359375 -0.117253171875 0.024985338125
v 0.128912171875 -0.124263609375 0.0399378140625
v 0.164845234375 -0.115172484375 0.0133835923438
v 0.18131234375 -0.111152223438 -0.0282893270312
v 0.2082535 -0.11375275 -0.0484759125
v 0.174579078125 -0.127891578125 -0.0204642510938
v 0.144235 -0.135900453125 0.0126326269375
v 0.121890125 -0.124007125 0.0530811875
v 0.12001175 -0.118261125 0.0872835625
v 0.114269 -0.1080268125 0.09863841875
v 0.1089515 -0.10016 0.102812
v 0.112386 -0.102781 0.112373
v 0.1177265 -0.1106505 0.108195
v 0.116014 -0.1132565 0.08493035
v 0.110909 -0.105423 0.08919665
v 0.119397 -0.115863 0.0943677
v 0.120342 -0.1202255 0.07985375
v 0.1232615 -0.1246885 0.08952035
v 0.125830875 -0.1324591875 0.084085425
v 0.1234325 -0.128022 0.07467435
v 0.127158875 -0.137352875 0.09282095625
v 0.128193 -0.144538 0.08678395
v 0.127191 -0.139673 0.07831445
v 0.125773875 -0.135044625 0.10735199375
v 0.12737 -0.1429615 0.1013103
v 0.12594 -0.1294385 0.09889065
v 0.124043 -0.126655 0.113407
v 0.123101 -0.132707 0.1216625
v 0.125014 -0.141102 0.115646
v 0.1363228125 -0.143983125 0.0243659625
v 0.131934875 -0.1370259375 0.031172675
v 0.1299286875 -0.1444620625 0.037561825
v 0.133817 -0.151732 0.0307658
v 0.126896 -0.1372729375 0.04464485625
v 0.1266985 -0.144423 0.05144265
v 0.1290745 -0.15178 0.04436775
v 0.1281456875 -0.1302065625 0.03831510625
v 0.125269 -0.124150375 0.04640734375
v 0.1229485 -0.1302645 0.05193675
v 0.1418175 -0.150907 0.0180286
v 0.145148125 -0.14289025 0.0121245386875
v 0.1397031875 -0.1363875 0.01860729375
v 0.144516125 -0.1293973125 0.0139736458125
v 0.14205225 -0.1242320625 0.0222238375
v 0.13570225 -0.1299230625 0.02582973125
v 0.1330839375 -0.1243168125 0.0338769125
v 0.174057 -0.143411 -0.01608085
v 0.1769180625 -0.1346163125 -0.02107405625
v 0.1695183125 -0.1297660625 -0.015188766875
v 0.1663075 -0.1381841875 -0.0103865988125
v 0.17274075 -0.121369 -0.019365223125
v 0.168408875 -0.117624625 -0.01172316625
v 0.1634135 -0.12508725 -0.0084892554375
v 0.159866875 -0.121226375 -0.0005391685625
v 0.1539231875 -0.1279753125 0.00258025175
v 0.1593021875 -0.132983375 -0.004354296625
v 0.1555180625 -0.140953625 0.000681332125
v 0.1630155 -0.1465435 -0.005017037
v 0.1510554375 -0.123463 0.0107433958125
v 0.1490950625 -0.1352150625 0.006838714
v 0.151926 -0.1490685 0.006264063
v 0.1956155 -0.1339425 -0.03674185
v 0.198025375 -0.1248194375 -0.0404953125
v 0.1901055 -0.1210909375 -0.0352218625
v 0.1875933125 -0.130043125 -0.031150175
v 0.192206125 -0.1122640625 -0.0395733375
v 0.1857260625 -0.10875376875 -0.0336464375
v 0.1823099375 -0.1171130625 -0.029854325
v 0.1769488125 -0.113410375 -0.022825595625
v 0.179695 -0.1258085 -0.0256007125
v 0.1849925 -0.1391315 -0.02663815
v 0.2046565 -0.128314 -0.04661815
v 0.2076135 -0.1191515 -0.0492765
v 0.2006105 -0.1157855625 -0.0438695125
v 0.202578125 -0.10698789375 -0.0482641625
v 0.1948376875 -0.10368931875 -0.04389529375
v 0.222188 -0.1046435 -0.05836035
v 0.2235435625 -0.09560195 -0.06318994375
v 0.2154525625 -0.09210996875 -0.0600505125
v 0.2134726875 -0.10120633125 -0.05555403125
v 0.217581 -0.0833267625 -0.06525430625
v 0.2119573125 -0.07999694375 -0.060218375
v 0.208169 -0.08888795625 -0.05617345
v 0.2041940625 -0.08586134375 -0.0492724125
v 0.1991091875 -0.09482301875 -0.046801475
v 0.204881125 -0.09809721875 -0.05261686875
v 0.2121005 -0.1100395 -0.05054095
v 0.1972165 -0.09222268125 -0.03807381875
v 0.191092375 -0.1006076 -0.03615036875
v 0.190536375 -0.09858636875 -0.0266491375
v 0.1832739375 -0.10602908125 -0.025039083125
v 0.1836134375 -0.1044228875 -0.015236581875
v 0.1755321875 -0.11096775 -0.01375747875
v 0.176416625 -0.10948793125 -0.00382759
v 0.16769275 -0.115267 -0.002446366875
v 0.168807 -0.11356475 0.007618088125
v 0.159553625 -0.1185470625 0.00891504125
v 0.1607344375 -0.1164021875 0.01917604625
v 0.1509718125 -0.120271 0.0203860275
v 0.15208475 -0.11772475 0.03080135625
v 0.1419489375 -0.1206715625 0.03192169375
v 0.1428773125 -0.1175915625 0.0422600375
v 0.13274525 -0.120204875 0.04346235
v 0.161847125 -0.1139326875 0.029473475
v 0.1627065625 -0.110823 0.03965995
v 0.152983125 -0.114606 0.041084375
v 0.153583875 -0.110730875 0.05109308125
v 0.1435281875 -0.1136924375 0.052339875
v 0.1439444375 -0.1091565 0.0621439
v 0.133716875 -0.1113814375 0.06335068125
v 0.133350875 -0.11612925 0.0536191125
v 0.124202 -0.119096 0.0557284
v 0.13401725 -0.1061881375 0.07275255625
v 0.1241325 -0.1080865 0.0741986
v 0.1237235 -0.1133665 0.06485755
v 0.153863625 -0.1061701875 0.06082320625
v 0.153906125 -0.10126541875 0.07037473125
v 0.1440533125 -0.10406845 0.071632625
v 0.143892625 -0.09868060625 0.0808839125
v 0.1338693125 -0.10062533125 0.08176851875
v 0.133416875 -0.09491539375 0.09064773125
v 0.123325 -0.09650605 0.091194
v 0.1237965 -0.102258 0.08242445
v 0.1216674375 -0.0840831625 0.107947825
v 0.120781 -0.07791245 0.1163905
v 0.1105045 -0.07904935 0.116185
v 0.1114035 -0.08523315 0.10778
v 0.132717625 -0.088946925 0.0993694875
v 0.131906 -0.0828458 0.1079465
v 0.122529 -0.0902889 0.0995236
v 0.1434711875 -0.09310956875 0.0899709
v 0.1428355 -0.08733125 0.0989054
v 0.1634893125 -0.10252433125 0.059311025
v 0.172958375 -0.09846385 0.0576844
v 0.173148 -0.09421165 0.067361
v 0.1635743125 -0.0979665375 0.068920325
v 0.1537654375 -0.096183225 0.07980649375
v 0.1635045 -0.09321585 0.07847355
v 0.153419 -0.09087325 0.0890909
v 0.1632280625 -0.106930875 0.04959028125
v 0.1720661875 -0.1063021875 0.03802145625
v 0.172597875 -0.10255904375 0.04790668125
v 0.18177475 -0.09791130625 0.04612768125
v 0.182238 -0.09407935 0.05593955
v 0.171253 -0.109396625 0.02796955625
v 0.18031725 -0.104264175 0.0262937875
v 0.1811760625 -0.101368125 0.03626690625
v 0.1901456875 -0.09620139375 0.03446974375
v 0.1908385 -0.0930365 0.04430995
v 0.1701110625 -0.111725375 0.017786980625
v 0.177732625 -0.10805218125 0.00615218
v 0.1791350625 -0.106427425 0.016226036875
v 0.1879045 -0.10072185 0.01453975625
v 0.189165375 -0.09877096875 0.0245379
v 0.1864738125 -0.10222563125 0.004554419375
v 0.1950085625 -0.09611673125 0.002889051875
v 0.1965205 -0.09483064375 0.012827146875
v 0.2048755625 -0.0885986625 0.011110955
v 0.2063675 -0.0871601 0.0210458
v 0.197906125 -0.0931162875 0.022791483125
v 0.199063 -0.09088385 0.03271345
v 0.184952625 -0.10338279375 -0.005362423125
v 0.191621375 -0.097606425 -0.01685805375
v 0.193351375 -0.09698674375 -0.007005015625
v 0.201515125 -0.09023478125 -0.00867150125
v 0.203327625 -0.089658625 0.001216725
v 0.199558125 -0.0905259375 -0.018529979375
v 0.207255125 -0.08314490625 -0.020264116875
v 0.20935675 -0.0831026125 -0.010348946875
v 0.21667725 -0.07545623125 -0.0120239
v 0.2188065 -0.07542855 -0.002039515
v 0.2113915 -0.08286008125 -0.000422885625
v 0.213143 -0.0821553 0.009458735
v 0.214748125 -0.075523175 -0.0220618625
v 0.222053125 -0.0676850625 -0.02384476875
v 0.2238135 -0.06760095 -0.0136831
v 0.205251 -0.08324346875 -0.03017715
v 0.212701875 -0.07544644375 -0.03209056875
v 0.203813375 -0.08395258125 -0.04006865625
v 0.19785575 -0.09098245 -0.0283823125
v 0.210381875 -0.07735763125 -0.0518372875
v 0.21107975 -0.07586160625 -0.042055
v 0.218371 -0.0676416 -0.04418325
v 0.220152125 -0.06753440625 -0.03407975
v 0.22764 -0.0597305 -0.03601665
v 0.229535 -0.06000925 -0.0256582
v 0.21770975 -0.0716633875 -0.0639385125
v 0.217331 -0.06870705 -0.05446325
v 0.2350385625 -0.08453719375 -0.07784744375
v 0.236358125 -0.07970715625 -0.08591126875
v 0.229468875 -0.0741815 -0.0828753
v 0.2272370625 -0.079816775 -0.07519835
v 0.23479925 -0.06870049375 -0.0889472375
v 0.233651625 -0.06238855 -0.08108121875
v 0.2260485 -0.06864583125 -0.07652636875
v 0.2251718125 -0.06400479375 -0.06756075
v 0.2204529375 -0.07570065625 -0.07143624375
v 0.2256205 -0.08681691875 -0.0681474625
v 0.23 -0.09946385 -0.0674574
v 0.23214775 -0.0911586625 -0.07212310625
v 0.235933 -0.09736925 -0.0773656
v 0.239756 -0.09096785 -0.08230365
v 0.2536165 -0.119336 -0.110969
v 0.25825525 -0.117843125 -0.11915425
v 0.258355875 -0.1074641375 -0.117863125
v 0.254457 -0.108906 -0.109597
v 0.260797125 -0.10626645 -0.1267588125
v 0.2586705625 -0.09615783125 -0.125405
v 0.2556519375 -0.09734738125 -0.1170861875
v 0.2521059375 -0.08757644375 -0.11580975
v 0.250334625 -0.08945240625 -0.10710986875
v 0.2556795 -0.0988979 -0.107557
v 0.257422 -0.1282925 -0.1206205
v 0.2605019375 -0.1268304375 -0.12981975
v 0.2615105 -0.1165531875 -0.1280281875
v 0.2659414375 -0.1161463125 -0.135374625
v 0.2659235625 -0.1060257125 -0.1335195
v 0.2581316875 -0.1365983125 -0.1323395625
v 0.2623205 -0.135677 -0.1404585
v 0.264862625 -0.1261618125 -0.1374584375
v 0.272252 -0.126935 -0.1416895
v 0.2734795 -0.1169965 -0.139448
v 0.2503125 -0.1472921875 -0.1268069375
v 0.254553 -0.145825 -0.1357405
v 0.254299 -0.1381085 -0.1233275
v 0.2450705 -0.148607 -0.118096
v 0.2410730625 -0.1576319375 -0.1217105625
v 0.2465195 -0.156383 -0.1303535
v 0.2356615 -0.159039 -0.112948
v 0.2316384375 -0.1678915 -0.1166483125
v 0.237031 -0.1664805 -0.125427
v 0.2266715 -0.169584 -0.107617
v 0.2223516875 -0.1782186875 -0.11151358125
v 0.2272755 -0.1764965 -0.1205545
v 0.213241375 -0.188704625 -0.10637581875
v 0.2176485 -0.1865775 -0.115616
v 0.217898 -0.1803015 -0.10227515
v 0.2092445 -0.1911695 -0.0970083
v 0.2043244375 -0.19936325 -0.10121825625
v 0.208274 -0.1968625 -0.1105885
v 0.200771 -0.2021215 -0.09178815
v 0.1956013125 -0.2101474375 -0.09604754375
v 0.199098 -0.2073505 -0.1054925
v 0.1792425 -0.2323203125 -0.085220575
v 0.181651 -0.2289765 -0.0948981
v 0.187173625 -0.2211259375 -0.09075023125
v 0.1842659375 -0.2242023125 -0.081244225
v 0.190143 -0.218028 -0.10030755
v 0.1925305 -0.2131935 -0.08653815
v 0.1846455 -0.218185 -0.0682802
v 0.1811958125 -0.2271525625 -0.071817925
v 0.188128 -0.2154705 -0.07758745
v 0.176936875 -0.2356980625 -0.075575125
v 0.171819375 -0.2437919375 -0.0794892625
v 0.173689 -0.240177 -0.08925705
v 0.1650165625 -0.255599125 -0.07359683125
v 0.166364 -0.251723 -0.08340175
v 0.170114625 -0.247481375 -0.0697567625
v 0.178429 -0.2302745 -0.06234635
v 0.174571125 -0.239039 -0.0660057
v 0.17257 -0.242564 -0.05639415
v 0.1684564375 -0.2511811875 -0.06008191875
v 0.162761 -0.2635315 -0.054152
v 0.163898375 -0.2595744375 -0.0638559125
v 0.1670525 -0.255004 -0.0503939
v 0.1479735 -0.288173 -0.0654575
v 0.1530645 -0.2800471875 -0.061718325
v 0.1530095 -0.2845635 -0.0520989
v 0.148005 -0.292733 -0.05585105
v 0.151722 -0.2926475 -0.0326815
v 0.147128 -0.3011315 -0.036488
v 0.14775 -0.2971545 -0.04626725
v 0.152344 -0.2886705 -0.04246075
v 0.158724375 -0.267664375 -0.06766075
v 0.1583645 -0.272006 -0.0579355
v 0.1532565 -0.275621 -0.0714333
v 0.1594955 -0.2635145 -0.0774254
v 0.242453875 -0.05774545625 -0.08574133125
v 0.2430038125 -0.05276285625 -0.07594369375
v 0.2335769375 -0.0576515875 -0.07169135
v 0.2531965 -0.04881325 -0.08026555
v 0.2539025 -0.0448932 -0.06958175
v 0.243728 -0.04904819375 -0.0654532375
v 0.2448405 -0.0462711 -0.05480075
v 0.2353665 -0.0518844 -0.05090155
v 0.234250875 -0.054411225 -0.06144684375
v 0.225355 -0.06067955 -0.0575185
v 0.238099 -0.07576885 -0.09425590625
v 0.2431069375 -0.07187415 -0.10113656875
v 0.24226575 -0.064104325 -0.094391925
v 0.25130375 -0.06114126875 -0.0992812375
v 0.2522145 -0.0543461 -0.09032185
v 0.266279 -0.09607439375 -0.1307046875
v 0.26744725 -0.08628509375 -0.12680075
v 0.2582258125 -0.08625304375 -0.1224820625
v 0.25898725 -0.07651789375 -0.1179216875
v 0.250784875 -0.07791455 -0.112447625
v 0.2506569375 -0.06887706875 -0.10692735625
v 0.2456190625 -0.0804839625 -0.10535949375
v 0.244032125 -0.0831283875 -0.09669368125
v 0.25061 -0.09134425 -0.09764045
v 0.2747795 -0.1070575 -0.1368965
v 0.2760465 -0.0971977 -0.133491
v 0.277575 -0.08751255 -0.1294665
v 0.2791605 -0.07820135 -0.12406
v 0.2688096875 -0.07688519375 -0.121596625
v 0.270395 -0.0679365 -0.1151175
v 0.2600925625 -0.0676794375 -0.11151041875
v 0.261458 -0.0596221 -0.10364835
v 0.244273 -0.0859238 -0.08735895
v 0.11782 -0.1099985 0.124385
v 0.117945 -0.1156025 0.133304
v 0.1207605 -0.1241275 0.12772
v 0.1206355 -0.1185235 0.118801
v 0.113339 -0.10540525 0.1055035
v 0.115153 -0.110643 0.091782175
v 0.123347 -0.12635525 0.08209735
v 0.1272725 -0.1385115 0.08556245
v 0.126655 -0.1362 0.100100475
v 0.1245285 -0.1338785 0.1145265
v 0.1327405 -0.1442955 0.03085435
v 0.12807425 -0.14447975 0.04445565
v 0.12536175 -0.130253 0.045036675
v 0.14048875 -0.143528 0.0181294
v 0.140004 -0.129724 0.019839375
v 0.131671 -0.13009025 0.03195055
v 0.1716225 -0.13651625 -0.01579165
v 0.16807475 -0.123305 -0.0139585175
v 0.15868225 -0.126683 -0.00298403425
v 0.1609115 -0.1396675 -0.00489344525
v 0.1491785 -0.12884725 0.00822670825
v 0.15021075 -0.14203 0.00633125475
v 0.1928885 -0.1274995 -0.035909625
v 0.1872105 -0.11475125 -0.034823025
v 0.17748625 -0.119312 -0.024682775
v 0.18225575 -0.132437 -0.026199275
v 0.202888 -0.12201625 -0.044924925
v 0.197315 -0.109689 -0.044089725
v 0.21866925 -0.09835245 -0.0592513
v 0.21284 -0.085964625 -0.06066625
v 0.203543 -0.091855 -0.05160625
v 0.2080365 -0.104122575 -0.051988625
v 0.19501475 -0.097749275 -0.04159595
v 0.18717475 -0.103371825 -0.030625425
v 0.179402 -0.1085665 -0.0194093075
v 0.17163775 -0.1132165 -0.0081049775
v 0.16367125 -0.1170735 0.00322379
v 0.15532025 -0.11959875 0.014636935
v 0.146509 -0.12060625 0.026158875
v 0.13730875 -0.120534 0.0376407
v 0.15749 -0.11446575 0.03530815
v 0.1483215 -0.11433925 0.04675305
v 0.13862625 -0.1126925 0.05787055
v 0.12841525 -0.1196955 0.0495331
v 0.12890125 -0.10980125 0.068785875
v 0.1490085 -0.1052925 0.06629565
v 0.13900975 -0.1024793 0.07679595
v 0.1286235 -0.098606825 0.086533225
v 0.11609225 -0.0815728 0.11208525
v 0.1272175 -0.08656735 0.10373505
v 0.138143 -0.09114345 0.0947737
v 0.16832925 -0.098360075 0.063342525
v 0.158725 -0.097240175 0.074430075
v 0.14867975 -0.094797925 0.0849843
v 0.158607 -0.10672025 0.055253475
v 0.16771625 -0.10679025 0.04383745
v 0.17743025 -0.098320925 0.051933675
v 0.1762725 -0.1054705 0.032168775
v 0.18602175 -0.097215 0.04030375
v 0.1660595 -0.113021 0.02362945
v 0.17398575 -0.1100405 0.0119569725
v 0.1841825 -0.1026522 0.020410875
v 0.1915195 -0.0985604 0.00870015
v 0.2014595 -0.091016475 0.0169400075
v 0.194121 -0.094839875 0.028633525
v 0.18140075 -0.105846225 0.0003853575
v 0.18835075 -0.10062205 -0.01111009
v 0.19835275 -0.093339725 -0.0028965425
v 0.20445875 -0.0868073 -0.0144506925
v 0.21411625 -0.07929205 -0.006204825
v 0.20824875 -0.085921075 0.0053361825
v 0.21932875 -0.071591875 -0.017894375
v 0.20997575 -0.079335225 -0.026141775
v 0.20081325 -0.08746335 -0.034211025
v 0.19479075 -0.09437835 -0.022606725
v 0.20700625 -0.080581675 -0.045931
v 0.21551475 -0.07154675 -0.0381174
v 0.22483275 -0.063721875 -0.0299036
v 0.21393025 -0.07428745 -0.05782675
v 0.23193025 -0.079312775 -0.080500725
v 0.23043025 -0.068283225 -0.082762575
v 0.22177875 -0.0697777 -0.0702117
v 0.222417 -0.081216125 -0.070107275
v 0.228013 -0.09299585 -0.067479475
v 0.236018 -0.0907149 -0.07712405
v 0.256483 -0.11336825 -0.11428025
v 0.2582415 -0.1016873 -0.12198925
v 0.25306125 -0.093250025 -0.1121395
v 0.25952 -0.12234325 -0.12440975
v 0.263286 -0.1110815 -0.131305
v 0.26142575 -0.1312665 -0.13515725
v 0.26899675 -0.12147475 -0.1387145
v 0.254426 -0.14196675 -0.129534
v 0.245795 -0.152495 -0.12422475
v 0.23634625 -0.16275975 -0.1191875
v 0.2269735 -0.17304025 -0.11408575
v 0.21777325 -0.1834395 -0.108945575
v 0.20875925 -0.194016 -0.1037984
v 0.1999345 -0.204736 -0.098640325
v 0.18314475 -0.226693 -0.088013675
v 0.19133675 -0.21561075 -0.09342285
v 0.184642 -0.22129725 -0.074704725
v 0.17545925 -0.23801625 -0.082378325
v 0.16834725 -0.2496585 -0.076555725
v 0.17782925 -0.233065 -0.068922975
v 0.17145025 -0.245079 -0.063051925
v 0.1655795 -0.25734175 -0.05711595
v 0.1504915 -0.28636825 -0.0587782
v 0.149736 -0.294901 -0.039474375
v 0.1558105 -0.2738135 -0.0646844
v 0.161801 -0.261597 -0.0706317
v 0.23797025 -0.057268075 -0.0787499
v 0.24837 -0.04871395 -0.072837675
v 0.239455 -0.050249525 -0.058155675
v 0.2294095 -0.058939475 -0.0646105
v 0.23903075 -0.06990825 -0.095107275
v 0.24689225 -0.05904025 -0.092620825
v 0.26217375 -0.090995825 -0.12685675
v 0.2544765 -0.08185145 -0.1176555
v 0.24701 -0.07456585 -0.106929
v 0.24733725 -0.0860117 -0.101957975
v 0.27050025 -0.10148335 -0.133951
v 0.27318725 -0.08210945 -0.12569325
v 0.2644525 -0.072018625 -0.11685325
v 0.25570675 -0.064037325 -0.105615425
v 0.24038225 -0.08100295 -0.09132685
v 0.11929025 -0.117063 0.1260525
f 3 185 490 188
f 100 186 490 185
f 130 187 490 186
f 2 188 490 187
f 184 189 491 191
f 131 190 491 189
f 100 185 491 190
f 3 191 491 185
f 1 192 492 195
f 184 193 492 192
f 5 194 492 193
f 4 195 492 194
f 5 196 493 194
f 8 197 493 196
f 7 198 493 197
f 4 194 493 198
f 6 199 494 201
f 9 200 494 199
f 8 196 494 200
f 5 201 494 196
f 6 202 495 199
f 91 203 495 202
f 97 204 495 203
f 9 199 495 204
f 120 205 496 208
f 14 206 496 205
f 99 207 496 206
f 12 208 496 207
f 99 209 497 207
f 13 210 497 209
f 98 211 497 210
f 12 207 497 211
f 99 212 498 209
f 177 213 498 212
f 183 214 498 213
f 13 209 498 214
f 120 215 499 205
f 118 216 499 215
f 182 217 499 216
f 14 205 499 217
f 182 218 500 217
f 25 219 500 218
f 24 220 500 219
f 14 217 500 220
f 24 221 501 220
f 177 212 501 221
f 99 206 501 212
f 14 220 501 206
f 121 222 502 225
f 117 223 502 222
f 181 224 502 223
f 15 225 502 224
f 181 226 503 224
f 22 227 503 226
f 169 228 503 227
f 15 224 503 228
f 169 229 504 228
f 23 230 504 229
f 16 231 504 230
f 15 228 504 231
f 16 232 505 231
f 119 233 505 232
f 121 225 505 233
f 15 231 505 225
f 23 234 506 230
f 25 218 506 234
f 182 235 506 218
f 16 230 506 235
f 182 216 507 235
f 118 236 507 216
f 119 232 507 236
f 16 235 507 232
f 116 237 508 240
f 114 238 508 237
f 18 239 508 238
f 17 240 508 239
f 18 241 509 239
f 21 242 509 241
f 179 243 509 242
f 17 239 509 243
f 179 244 510 243
f 22 226 510 244
f 181 245 510 226
f 17 243 510 245
f 181 223 511 245
f 117 246 511 223
f 116 240 511 246
f 17 245 511 240
f 114 247 512 238
f 122 248 512 247
f 180 249 512 248
f 18 238 512 249
f 180 250 513 249
f 20 251 513 250
f 21 241 513 251
f 18 249 513 241
f 115 252 514 255
f 113 253 514 252
f 68 254 514 253
f 19 255 514 254
f 68 256 515 254
f 136 257 515 256
f 162 258 515 257
f 19 254 515 258
f 162 259 516 258
f 66 260 516 259
f 20 261 516 260
f 19 258 516 261
f 20 250 517 261
f 180 262 517 250
f 115 255 517 262
f 19 261 517 255
f 66 263 518 260
f 165 264 518 263
f 21 251 518 264
f 20 260 518 251
f 165 265 519 264
f 166 266 519 265
f 179 242 519 266
f 21 264 519 242
f 179 266 520 244
f 166 267 520 266
f 53 268 520 267
f 22 244 520 268
f 53 269 521 268
f 52 270 521 269
f 169 227 521 270
f 22 268 521 227
f 169 270 522 229
f 52 271 522 270
f 178 272 522 271
f 23 229 522 272
f 178 273 523 272
f 176 274 523 273
f 25 234 523 274
f 23 272 523 234
f 25 274 524 219
f 176 275 524 274
f 26 276 524 275
f 24 219 524 276
f 26 277 525 276
f 27 278 525 277
f 177 221 525 278
f 24 276 525 221
f 176 279 526 275
f 48 280 526 279
f 173 281 526 280
f 26 275 526 281
f 173 282 527 281
f 45 283 527 282
f 27 277 527 283
f 26 281 527 277
f 45 284 528 283
f 30 285 528 284
f 29 286 528 285
f 27 283 528 286
f 29 287 529 286
f 183 213 529 287
f 177 278 529 213
f 27 286 529 278
f 29 285 530 290
f 30 288 530 285
f 32 289 530 288
f 28 290 530 289
f 45 291 531 284
f 44 292 531 291
f 43 293 531 292
f 30 284 531 293
f 43 294 532 293
f 175 295 532 294
f 32 288 532 295
f 30 293 532 288
f 32 295 533 298
f 175 296 533 295
f 39 297 533 296
f 31 298 533 297
f 34 299 534 302
f 37 300 534 299
f 35 301 534 300
f 33 302 534 301
f 39 303 535 305
f 38 304 535 303
f 37 299 535 304
f 34 305 535 299
f 39 296 536 303
f 175 306 536 296
f 42 307 536 306
f 38 303 536 307
f 44 308 537 311
f 46 309 537 308
f 174 310 537 309
f 40 311 537 310
f 41 312 538 313
f 43 292 538 312
f 44 311 538 292
f 40 313 538 311
f 42 306 539 314
f 175 294 539 306
f 43 312 539 294
f 41 314 539 312
f 45 282 540 291
f 173 315 540 282
f 46 308 540 315
f 44 291 540 308
f 173 280 541 315
f 48 316 541 280
f 47 317 541 316
f 46 315 541 317
f 47 318 542 317
f 171 319 542 318
f 174 309 542 319
f 46 317 542 309
f 48 320 543 316
f 49 321 543 320
f 172 322 543 321
f 47 316 543 322
f 172 323 544 322
f 170 324 544 323
f 171 318 544 324
f 47 322 544 318
f 176 273 545 279
f 178 325 545 273
f 49 320 545 325
f 48 279 545 320
f 178 271 546 325
f 52 326 546 271
f 51 327 546 326
f 49 325 546 327
f 51 328 547 327
f 50 329 547 328
f 172 321 547 329
f 49 327 547 321
f 51 330 548 328
f 54 331 548 330
f 56 332 548 331
f 50 328 548 332
f 56 333 549 332
f 57 334 549 333
f 58 335 549 334
f 50 332 549 335
f 58 336 550 335
f 170 323 550 336
f 172 329 550 323
f 50 335 550 329
f 52 269 551 326
f 53 337 551 269
f 54 330 551 337
f 51 326 551 330
f 166 338 552 267
f 167 339 552 338
f 54 337 552 339
f 53 267 552 337
f 167 340 553 339
f 55 341 553 340
f 56 331 553 341
f 54 339 553 331
f 167 342 554 340
f 61 343 554 342
f 60 344 554 343
f 55 340 554 344
f 60 345 555 344
f 59 346 555 345
f 168 347 555 346
f 55 344 555 347
f 168 348 556 347
f 57 333 556 348
f 56 341 556 333
f 55 347 556 341
f 60 349 557 345
f 63 350 557 349
f 164 351 557 350
f 59 345 557 351
f 61 352 558 343
f 62 353 558 352
f 63 349 558 353
f 60 343 558 349
f 165 263 559 355
f 66 354 559 263
f 62 352 559 354
f 61 355 559 352
f 167 338 560 342
f 166 265 560 338
f 165 355 560 265
f 61 342 560 355
f 66 259 561 354
f 162 356 561 259
f 65 357 561 356
f 62 354 561 357
f 65 358 562 357
f 64 359 562 358
f 63 353 562 359
f 62 357 562 353
f 64 360 563 359
f 163 361 563 360
f 164 350 563 361
f 63 359 563 350
f 162 257 564 356
f 136 362 564 257
f 135 363 564 362
f 65 356 564 363
f 69 364 565 367
f 160 365 565 364
f 161 366 565 365
f 67 367 565 366
f 161 368 566 366
f 137 369 566 368
f 152 370 566 369
f 67 366 566 370
f 152 371 567 370
f 135 362 567 371
f 136 372 567 362
f 67 370 567 372
f 136 256 568 372
f 68 373 568 256
f 69 367 568 373
f 67 372 568 367
f 113 374 569 253
f 112 375 569 374
f 69 373 569 375
f 68 253 569 373
f 112 376 570 375
f 123 377 570 376
f 160 364 570 377
f 69 375 570 364
f 124 378 571 381
f 110 379 571 378
f 71 380 571 379
f 70 381 571 380
f 71 382 572 380
f 140 383 572 382
f 138 384 572 383
f 70 380 572 384
f 138 385 573 384
f 139 386 573 385
f 157 387 573 386
f 70 384 573 387
f 110 388 574 379
f 73 389 574 388
f 72 390 574 389
f 71 379 574 390
f 72 391 575 390
f 150 392 575 391
f 140 382 575 392
f 71 390 575 382
f 73 393 576 389
f 74 394 576 393
f 155 395 576 394
f 72 389 576 395
f 155 396 577 395
f 129 397 577 396
f 150 391 577 397
f 72 395 577 391
f 111 398 578 400
f 156 399 578 398
f 74 393 578 399
f 73 400 578 393
f 156 398 579 403
f 111 401 579 398
f 125 402 579 401
f 75 403 579 402
f 125 404 580 402
f 109 405 580 404
f 76 406 580 405
f 75 402 580 406
f 109 407 581 405
f 77 408 581 407
f 78 409 581 408
f 76 405 581 409
f 126 410 582 412
f 128 411 582 410
f 78 408 582 411
f 77 412 582 408
f 128 410 583 415
f 126 413 583 410
f 80 414 583 413
f 79 415 583 414
f 80 416 584 414
f 127 417 584 416
f 82 418 584 417
f 79 414 584 418
f 108 419 585 422
f 84 420 585 419
f 83 421 585 420
f 81 422 585 421
f 83 423 586 421
f 82 417 586 423
f 127 424 586 417
f 81 421 586 424
f 92 425 587 427
f 93 426 587 425
f 108 422 587 426
f 81 427 587 422
f 108 428 588 419
f 85 429 588 428
f 106 430 588 429
f 84 419 588 430
f 105 431 589 433
f 107 432 589 431
f 106 429 589 432
f 85 433 589 429
f 108 426 590 428
f 93 434 590 426
f 104 435 590 434
f 85 428 590 435
f 104 436 591 435
f 86 437 591 436
f 105 433 591 437
f 85 435 591 433
f 103 438 592 440
f 102 439 592 438
f 105 437 592 439
f 86 440 592 437
f 94 441 593 444
f 95 442 593 441
f 101 443 593 442
f 87 444 593 443
f 90 445 594 448
f 89 446 594 445
f 88 447 594 446
f 87 448 594 447
f 96 449 595 451
f 102 450 595 449
f 101 442 595 450
f 95 451 595 442
f 107 431 596 452
f 105 439 596 431
f 102 449 596 439
f 96 452 596 449
f 152 369 597 455
f 137 453 597 369
f 144 454 597 453
f 132 455 597 454
f 144 456 598 454
f 154 457 598 456
f 153 458 598 457
f 132 454 598 458
f 153 459 599 458
f 134 460 599 459
f 133 461 599 460
f 132 458 599 461
f 133 462 600 461
f 135 371 600 462
f 152 455 600 371
f 132 461 600 455
f 161 463 601 368
f 159 464 601 463
f 145 465 601 464
f 137 368 601 465
f 145 466 602 465
f 143 467 602 466
f 144 453 602 467
f 137 465 602 453
f 140 468 603 383
f 151 469 603 468
f 141 470 603 469
f 138 383 603 470
f 141 471 604 470
f 146 472 604 471
f 139 385 604 472
f 138 470 604 385
f 146 473 605 472
f 145 464 605 473
f 159 474 605 464
f 139 472 605 474
f 159 475 606 474
f 158 476 606 475
f 157 386 606 476
f 139 474 606 386
f 150 477 607 392
f 149 478 607 477
f 151 468 607 478
f 140 392 607 468
f 151 479 608 469
f 148 480 608 479
f 147 481 608 480
f 141 469 608 481
f 147 482 609 481
f 142 483 609 482
f 146 471 609 483
f 141 481 609 471
f 143 466 610 484
f 145 473 610 466
f 146 483 610 473
f 142 484 610 483
f 159 463 611 475
f 161 365 611 463
f 160 485 611 365
f 158 475 611 485
f 10 486 612 489
f 36 487 612 486
f 11 488 612 487
f 91 489 612 488
