# https://github.com/mikedh/trimesh
v 0.06781400 -0.43592200 0.01774075
v 0.08716187 -0.44132603 -0.00657775
v 0.06112878 -0.43460848 0.02366419
v 0.09689178 -0.44074285 -0.01873144
v 0.05543200 -0.43249899 0.02858800
v 0.02320900 -0.41312200 0.06267100
v 0.04613725 -0.42530175 0.04246275
v 0.02788975 -0.41411650 0.06079700
v 0.01577500 -0.40651301 0.07168400
v 0.00677740 -0.40211042 0.07816259
v -0.00629600 -0.39541700 0.08575500
v 0.08487400 -0.43967700 -0.00179200
v 0.07452125 -0.43731900 0.01046100
v -0.00341336 -0.35250956 0.09197100
v 0.04287950 -0.36546226 0.04158775
v 0.03784500 -0.37430301 0.06205100
v 0.00620800 -0.35751399 0.08780900
v 0.01085375 -0.35970225 0.08437550
v 0.05114950 -0.38039749 0.04879850
v 0.06637800 -0.38264099 0.02957000
v 0.02706800 -0.35670999 0.05171400
v 0.04386785 -0.36165921 0.04045017
v 0.03877150 -0.36079050 0.04336750
v 0.08689806 -0.37201063 0.00438138
v 0.09757945 -0.37012299 -0.00506979
v 0.11245400 -0.36179700 -0.02399800
v 0.12601225 -0.40582150 -0.03457900
v 0.13448399 -0.39130101 -0.04343100
v 0.13612771 -0.39006818 -0.04031709
v 0.14383399 -0.37774500 -0.04740300
v 0.11641789 -0.41249901 -0.02253853
v 0.12759000 -0.40072301 -0.03060700
v 0.11609450 -0.41376000 -0.02546800
v 0.02566150 -0.38664784 0.07091540
v 0.14953300 -0.36714000 -0.05261400
v 0.13218002 -0.39461243 -0.03429091
v 0.15387300 -0.35903201 -0.05719700
v 0.08503305 -0.40122045 0.01764179
v 0.05996816 -0.39292455 0.04375513
v 0.08804840 -0.40575154 0.01284617
v 0.11480574 -0.40718315 -0.01653876
v 0.06395653 -0.39699006 0.03929657
v 0.09138038 -0.42243622 0.00075482
v 0.09469004 -0.43853993 -0.01233728
v 0.08258117 -0.43810208 0.00207979
v 0.06409362 -0.43321531 0.02319996
v 0.06839976 -0.41862079 0.02556752
v 0.07576344 -0.40302364 0.02615739
v 0.10847534 -0.40908524 -0.01051179
v 0.04992156 -0.41526103 0.04310203
v 0.01687042 -0.39347104 0.07488050
v 0.03554301 -0.40776386 0.05731475
v 0.05981165 -0.40749299 0.03812549
v 0.03592529 -0.41801137 0.05396990
v 0.03887241 -0.38119866 0.06352123
v 0.02805919 -0.37413353 0.07254595
v -0.00297380 -0.38054312 0.09018868
v -0.00164081 -0.39038358 0.08757746
v 0.01492947 -0.40424356 0.07342561
v 0.04283677 -0.42233928 0.04671174
v 0.05427195 -0.42840064 0.03444102
v -0.00394789 -0.35849053 0.09463931
v 0.10874664 -0.42021942 -0.01802694
v 0.11382130 -0.41699483 -0.02353395
v 0.12122200 -0.41182801 -0.03057800
v 0.11175853 -0.42089321 -0.02230086
v 0.10670400 -0.43704501 -0.02927300
v 0.11798500 -0.42031001 -0.03150050
v 0.07347817 -0.37381742 0.01447185
v 0.10089402 -0.37511476 -0.00886056
v 0.09937300 -0.38366458 -0.00271664
v 0.10544230 -0.39238217 -0.00358440
v 0.11571234 -0.38237752 -0.01659374
v 0.08965665 -0.39400361 0.01204060
v 0.06749772 -0.37524256 0.02127901
v 0.12539473 -0.36935720 -0.02929478
v 0.10822639 -0.37017453 -0.01731867
v 0.12715421 -0.37139601 -0.02981375
v 0.12350448 -0.38027655 -0.02411957
v 0.12711614 -0.36731489 -0.03118109
v 0.07896570 -0.38994909 0.02084324
v 0.13321640 -0.36774507 -0.03532696
v 0.16038813 -0.31471888 -0.06848650
v 0.15290200 -0.33341301 -0.05901200
v 0.14949310 -0.33896740 -0.05495564
v 0.05091082 -0.36680502 0.03352244
v 0.13851440 -0.35567130 -0.04258098
v 0.07795659 -0.39743381 0.02497351
v 0.07119251 -0.39427249 0.03194963
v 0.14409052 -0.36817468 -0.04657537
v 0.05189800 -0.38824263 0.05177718
v 0.01703728 -0.36593534 0.08138219
v 0.15494700 -0.33932400 -0.06024900
v 0.15212752 -0.36065080 -0.05522804
v 0.11029991 -0.39421284 -0.00833991
v 0.10984436 -0.36415305 -0.02079583
v 0.01436642 -0.36268967 0.08309981
v 0.10492695 -0.39973333 -0.00278210
v 0.05894212 -0.37014149 0.02694328
v 0.12555056 -0.39970909 -0.02689410
v 0.15306483 -0.32964376 -0.05995734
v 0.03629306 -0.37630934 0.06573014
v 0.10594275 -0.36700735 -0.01592296
v 0.13423000 -0.34363551 -0.04511275
v 0.06044074 -0.38789737 0.04251860
v 0.07416399 -0.39152715 0.02757297
v 0.07056863 -0.37782118 0.01995420
v 0.15404325 -0.36572149 -0.06100000
v 0.15307293 -0.36214869 -0.05730742
f 59 11 10
f 51 11 59
f 51 59 6
f 59 9 6
f 59 10 9
f 52 51 6
f 51 52 91
f 91 52 42
f 39 91 42
f 91 39 105
f 102 91 105
f 102 105 19
f 19 105 20
f 105 106 20
f 106 105 89
f 89 88 106
f 106 88 38
f 106 38 74
f 74 81 106
f 106 81 107
f 106 107 99
f 75 99 107
f 107 69 75
f 99 75 69
f 81 69 107
f 69 81 74
f 24 69 74
f 24 74 71
f 71 74 72
f 74 98 72
f 72 98 95
f 95 98 100
f 98 41 100
f 41 31 100
f 100 31 32
f 36 100 32
f 36 32 29
f 41 49 31
f 49 63 31
f 44 63 49
f 63 44 66
f 64 63 66
f 27 64 66
f 66 65 27
f 66 68 65
f 66 67 68
f 33 64 27
f 33 63 64
f 44 67 66
f 67 44 4
f 44 2 4
f 44 45 2
f 45 44 49
f 49 43 45
f 40 43 49
f 40 49 98
f 98 38 40
f 38 48 40
f 40 48 47
f 53 47 48
f 42 53 48
f 42 50 53
f 50 47 53
f 50 61 47
f 60 61 50
f 61 60 7
f 61 7 5
f 61 5 3
f 46 61 3
f 46 3 1
f 46 1 13
f 45 46 13
f 47 46 45
f 45 13 12
f 54 7 60
f 54 8 7
f 54 60 50
f 52 54 50
f 47 61 46
f 47 45 40
f 38 42 48
f 40 45 43
f 63 33 31
f 41 98 49
f 100 29 95
f 29 79 95
f 82 79 29
f 82 78 79
f 80 78 82
f 82 87 80
f 87 82 90
f 87 90 94
f 94 90 29
f 94 29 30
f 94 30 35
f 37 94 35
f 37 35 109
f 109 108 37
f 35 108 109
f 35 28 108
f 85 87 94
f 93 85 94
f 93 84 85
f 101 85 84
f 104 85 101
f 83 104 101
f 80 85 104
f 104 77 80
f 104 26 77
f 96 77 26
f 77 96 103
f 103 25 77
f 26 25 103
f 26 103 96
f 80 77 76
f 78 76 77
f 73 78 77
f 73 77 71
f 70 71 77
f 77 24 70
f 101 84 83
f 85 80 87
f 76 78 80
f 79 78 73
f 73 72 79
f 90 82 29
f 72 95 79
f 71 72 73
f 70 24 71
f 98 74 38
f 42 38 88
f 89 42 88
f 99 20 106
f 15 20 99
f 86 15 99
f 22 15 86
f 23 15 22
f 21 15 23
f 16 102 19
f 18 102 16
f 102 18 97
f 97 18 14
f 102 55 91
f 56 55 102
f 102 92 56
f 97 92 102
f 97 17 92
f 62 92 17
f 92 62 57
f 14 62 17
f 56 92 57
f 57 51 56
f 57 58 51
f 34 56 51
f 34 51 55
f 55 56 34
f 39 89 105
f 89 39 42
f 52 50 42
f 55 51 91
f 6 54 52
f 51 58 11

