# https://github.com/mikedh/trimesh
v -0.24552400 0.14252400 -0.02942500
v -0.24784150 0.18199050 -0.08226950
v -0.24994849 0.17997800 -0.07486750
v -0.24712799 0.17283501 -0.04965200
v -0.25005800 0.17318000 -0.06515100
v -0.24647000 0.16892400 -0.04503900
v -0.23377000 0.17848100 -0.10733200
v -0.23556399 0.17704301 -0.11184200
v -0.24018700 0.16788300 -0.11681475
v -0.24330325 0.15247625 -0.11782787
v -0.23706700 0.17320301 -0.01997300
v -0.24081200 0.18279276 -0.02864300
v -0.24019525 0.13254875 -0.12221425
v -0.23676450 0.11019700 -0.12439750
v -0.19332650 -0.01466600 -0.02006900
v -0.22874700 0.12560201 -0.00002400
v -0.20540916 0.06377329 -0.01258387
v -0.20044425 0.07506525 -0.00590150
v -0.19532550 0.07735250 -0.00090250
v -0.18233750 0.08516000 0.01174650
v -0.20827816 0.03375219 -0.02579560
v -0.20744100 0.02405325 -0.03905425
v -0.16824401 0.08814350 0.02478900
v -0.15602450 0.08586663 0.03457150
v -0.20972449 0.04957550 -0.02191900
v -0.23177697 0.16325460 -0.01018537
v -0.23973950 0.17938849 -0.02571700
v -0.22893825 0.15815825 -0.00529800
v -0.11607600 0.05724800 0.06001300
v -0.14809602 0.08121207 0.03886773
v -0.14044143 0.07809567 0.04507965
v -0.14441725 0.08012350 0.04165250
v -0.13607400 0.07476038 0.04861887
v -0.21149350 0.00251750 -0.04708150
v -0.22471342 0.01812046 -0.05338978
v -0.21166573 0.00210354 -0.03540653
v -0.20515633 -0.00437435 -0.02632060
v -0.22806657 0.02272660 -0.05837249
v -0.23105619 0.02747045 -0.06499576
v -0.21428412 0.00627977 -0.03363623
v -0.23272135 0.03053089 -0.06701738
v -0.18660040 -0.01817811 -0.00509207
v -0.23422674 0.03375411 -0.07167459
v -0.23879363 0.04464395 -0.07971197
v -0.17581660 -0.02147455 0.00732960
v -0.24413775 0.06321850 -0.08791325
v -0.24132345 0.05174693 -0.08294445
v -0.21524400 0.01045200 -0.03480400
v -0.23333956 0.05033507 -0.06544101
v -0.22413406 0.03089486 -0.04989282
v -0.22151336 0.02071326 -0.04535950
v -0.24038903 0.05355775 -0.07930090
v -0.24482914 0.08969240 -0.09076792
v -0.24167462 0.07385984 -0.08231227
v -0.24277812 0.10212248 -0.08777322
v -0.24613809 0.08536365 -0.09338714
v -0.23217092 0.03131789 -0.06319945
v -0.23128700 0.05105000 -0.06245200
v -0.23277369 0.05748446 -0.06523697
v -0.23772233 0.07909692 -0.07518069
v -0.21616857 0.01349179 -0.03643102
v -0.23899332 0.10073589 -0.08059885
v -0.24192995 0.13130614 -0.09384703
v -0.19619787 -0.00956922 -0.01059417
v -0.23999583 0.12727622 -0.08875376
v -0.23992457 0.13611015 -0.09164529
v -0.20588643 -0.00141378 -0.02176441
v -0.21620250 0.01611150 -0.03731650
v -0.20894225 0.00613875 -0.02710125
v -0.19256602 -0.01250162 -0.00698109
v -0.22104400 0.02899000 -0.04663600
v -0.23922375 0.14777286 -0.09549373
v -0.24800688 0.11369798 -0.10349506
v -0.23838019 0.15567665 -0.09797335
v -0.18266090 -0.01757502 0.00215028
v -0.16735800 -0.02488000 0.01308500
v -0.20489800 0.00133800 -0.02155100
v -0.18614900 -0.01375100 -0.00130600
v -0.24344428 0.14536884 -0.10537266
v -0.23397339 0.17125900 -0.10118664
v -0.24800784 0.08786091 -0.09902252
v -0.24647434 0.13530863 -0.10875218
v -0.23806224 0.17073970 -0.11075352
v -0.24619418 0.14233463 -0.11436145
v -0.24844001 0.11957610 -0.11015554
v -0.23411206 0.16611491 -0.09825444
v -0.17696901 -0.02207000 0.00473600
v -0.17867400 -0.02246800 -0.00032800
v -0.22438872 0.03487166 -0.05117583
v -0.22692869 0.04338610 -0.05622324
v -0.21917910 0.05418272 -0.05759853
v -0.22422546 0.07213696 -0.06588656
v -0.21542755 0.04436799 -0.05250008
v -0.21202300 0.03330600 -0.04600400
v -0.22953281 0.08634342 -0.07247162
v -0.23489065 0.07494556 -0.07106333
v -0.23038943 0.06258044 -0.06511807
v -0.23422895 0.07800043 -0.07151835
v -0.22888479 0.09963089 -0.07573361
v -0.23086631 0.14183780 -0.08735034
v -0.23065714 0.14898486 -0.08990816
v -0.23031187 0.11727692 -0.08102796
v -0.23060009 0.12753589 -0.08390079
v -0.22289061 0.06667192 -0.06365598
v -0.23886886 0.14421824 -0.09312913
v -0.22766502 0.09067403 -0.07262339
v -0.23943544 0.12348102 -0.08690471
v -0.22838364 0.09524710 -0.07433658
v -0.22969747 0.10837813 -0.07813911
v -0.22141475 0.06207246 -0.06123564
v -0.23047622 0.13817640 -0.08672587
v -0.23051137 0.13090076 -0.08477314
v -0.22952293 0.10542128 -0.07751505
v -0.23323116 0.16222172 -0.09571548
v -0.22643162 0.08297630 -0.06994381
v -0.23231684 0.15642987 -0.09279952
v -0.24387763 0.09425827 -0.10998745
v -0.23712560 0.07414229 -0.10940394
v -0.23660656 0.08112278 -0.11471641
v -0.24547398 0.12449066 -0.11567766
v -0.24702162 0.08774049 -0.10268380
v -0.23707249 0.10322852 -0.12213242
v -0.23703360 0.09168892 -0.11894008
v -0.24622856 0.13581679 -0.11523836
v -0.23587331 0.06704366 -0.10679040
v -0.24273143 0.06048394 -0.09048458
v -0.23462278 0.06327545 -0.10618031
v -0.24692456 0.07830744 -0.09701283
v -0.24460331 0.14987877 -0.11667777
v -0.23744433 0.04859393 -0.08746398
v -0.23133388 0.04684621 -0.09642085
v -0.23529050 0.06818975 -0.11019550
v -0.22990613 0.04133519 -0.09344637
v -0.22821961 0.03631125 -0.08828422
v -0.24908635 0.10535255 -0.10602054
v -0.24848387 0.11550543 -0.11016582
v -0.23706713 0.09390800 -0.12078312
v -0.22613351 0.03044997 -0.08317146
v -0.22419450 0.02489387 -0.07881963
v -0.24786314 0.12695514 -0.11143203
v -0.24364817 0.15612676 -0.11502903
v -0.22032600 0.01738150 -0.06954400
v -0.23636150 0.07775550 -0.11470800
v -0.18667905 0.08698728 0.00866832
v -0.19542704 0.08160787 -0.00031858
v -0.15204177 0.08715603 0.03989028
v -0.13870906 0.08038978 0.05048901
v -0.13398799 0.07755700 0.05364600
v -0.13942499 0.08380000 0.04954500
v -0.17329487 0.09083593 0.02078284
v -0.14470113 0.08366275 0.04590070
v -0.14548175 0.08652075 0.04473900
v -0.15799200 0.09106450 0.03349525
v -0.16107640 0.09007443 0.03200603
v -0.20364769 0.07340594 -0.01126013
v -0.13117599 0.07511900 0.05537300
v -0.20812509 0.06735826 -0.01942117
v -0.21270820 0.05298940 -0.02964356
v -0.21052645 0.04527758 -0.02485200
v -0.21041286 0.03576875 -0.03053781
v -0.21333918 0.04014788 -0.04216270
v -0.21336651 0.05931100 -0.03364033
v -0.21595826 0.05186545 -0.04763000
v -0.21468754 0.06684279 -0.04180077
v -0.20828706 0.07459725 -0.02347557
v -0.21554537 0.04775811 -0.04932760
v -0.21814306 0.07081757 -0.04606524
v -0.21417738 0.07100734 -0.04208384
v -0.22007579 0.05679378 -0.05106448
v -0.22302538 0.07056887 -0.05142649
v -0.21966028 0.08386769 -0.04723821
v -0.21216229 0.09978561 -0.04041307
v -0.22860672 0.10671023 -0.06155466
v -0.22330683 0.09473406 -0.05256178
v -0.20638589 0.10296495 -0.03488873
v -0.23066963 0.09954915 -0.06390236
v -0.22969000 0.09561800 -0.06188900
v -0.20168753 0.09420034 -0.02889439
v -0.19601925 0.10139063 -0.02428513
v -0.23168988 0.11099425 -0.06773166
v -0.23108714 0.11724172 -0.06869222
v -0.22692487 0.07676741 -0.05715082
v -0.22623934 0.12098647 -0.06276298
v -0.21849143 0.10941255 -0.04931716
v -0.22829613 0.12676437 -0.06791638
v -0.19082351 0.10104450 -0.01865750
v -0.22904081 0.08726476 -0.06123138
v -0.21237648 0.10475065 -0.04182959
v -0.23223841 0.12570839 -0.07534967
v -0.20729930 0.08623969 -0.03392997
v -0.22924019 0.12910622 -0.07066473
v -0.20713923 0.07936557 -0.02509552
v -0.19808310 0.08191779 -0.00600755
v -0.21172162 0.07714929 -0.03874954
v -0.17491976 0.09198942 0.01855597
v -0.21197800 0.07292200 -0.03587200
v -0.20335960 0.08728909 -0.02411694
v -0.20000118 0.09125117 -0.02121956
v -0.18789231 0.09147558 0.00155110
v -0.23043661 0.13745685 -0.07702222
v -0.22432413 0.06831148 -0.05411513
v -0.22008841 0.11045660 -0.05193312
v -0.23150133 0.10621361 -0.06801531
v -0.23131878 0.11328998 -0.07458514
v -0.15565600 0.09036600 0.03598700
v -0.22242218 0.11409548 -0.05532056
v -0.17905437 0.09427301 0.00972373
v -0.21366039 0.04139415 -0.04898004
v -0.21271234 0.03725065 -0.04798600
v -0.17645900 0.09571850 0.01036650
v -0.21741424 0.05052364 -0.05545988
v -0.16930300 0.09410150 0.02044850
v -0.16190200 0.09369200 0.02707400
v -0.23030018 0.12191368 -0.08174822
v -0.22507777 0.07699168 -0.06754035
v -0.22862727 0.12617889 -0.06417966
v -0.23075541 0.14053628 -0.08011421
v -0.21925408 0.11103374 -0.04646444
v -0.23026927 0.12299643 -0.03265586
v -0.22477697 0.11866224 -0.05959873
v -0.23845349 0.14015742 -0.05422081
v -0.22960686 0.13297801 -0.07276572
v -0.20957292 0.10428496 -0.03780573
v -0.23893214 0.13470149 -0.03812742
v -0.24666021 0.14538068 -0.03243503
v -0.24137168 0.15360870 -0.02489728
v -0.24734800 0.15082766 -0.03656079
v -0.24039280 0.16365302 -0.02502549
v -0.23427674 0.15346993 -0.01168241
v -0.23120113 0.15783170 -0.00751955
v -0.24513389 0.15885393 -0.03535501
v -0.23256125 0.15040000 -0.00828425
v -0.23944152 0.16971716 -0.02316900
v -0.24326328 0.13970410 -0.02172674
v -0.23925801 0.14362100 -0.01656900
v -0.23994027 0.13289336 -0.01366930
v -0.23748801 0.13813001 -0.01103450
v -0.24213185 0.13547427 -0.01743359
v -0.23344950 0.12972101 -0.00255400
v -0.24925048 0.15611728 -0.04766352
v -0.24936470 0.15872930 -0.05091079
v -0.23951335 0.13207535 -0.01736670
v -0.23184744 0.12672422 -0.00499515
v -0.25009166 0.16647958 -0.06001301
v -0.23465477 0.12853794 -0.00722777
v -0.22282721 0.11750625 -0.02301797
v -0.23232368 0.12494173 -0.02890609
v -0.21681475 0.11523625 -0.01532550
v -0.24409178 0.14937502 -0.05297180
v -0.23485061 0.14562141 -0.07493464
v -0.23086654 0.14471719 -0.08409348
v -0.24642661 0.17183251 -0.07573189
v -0.24253771 0.15543822 -0.06625137
v -0.24012456 0.15491844 -0.07173875
v -0.23509056 0.15440563 -0.08377176
v -0.23171927 0.15434500 -0.09105569
v -0.23574163 0.16252210 -0.08968542
v -0.17459300 0.10268300 0.00050100
v -0.15480904 0.09997504 0.01929446
v -0.16283035 0.10188561 0.01267338
v -0.18247825 0.10235500 -0.00829425
v -0.15804800 0.10003725 0.01599425
v -0.14422034 0.09302333 0.03521877
v -0.16000999 0.09607151 0.02434989
v -0.13960100 0.08910050 0.04258500
v -0.17097083 0.09804416 0.01199903
v -0.13539379 0.08988639 0.04063191
f 135 85 136
f 140 136 85
f 124 136 140
f 84 124 140
f 82 84 140
f 82 140 73
f 73 140 85
f 82 73 63
f 63 79 82
f 141 82 79
f 74 141 79
f 74 83 141
f 9 141 83
f 83 8 9
f 7 8 83
f 7 83 80
f 80 83 74
f 86 80 74
f 114 86 74
f 114 74 116
f 114 116 256
f 256 116 101
f 256 101 251
f 255 256 251
f 252 256 255
f 252 257 256
f 257 114 256
f 257 252 114
f 3 114 252
f 244 3 252
f 252 253 244
f 253 252 254
f 253 254 250
f 254 251 250
f 250 251 217
f 250 217 200
f 250 200 222
f 250 222 253
f 253 222 240
f 240 222 249
f 227 240 249
f 249 221 227
f 227 221 1
f 220 1 221
f 221 216 220
f 221 185 216
f 221 191 185
f 222 191 221
f 185 191 183
f 185 183 220
f 220 183 181
f 220 181 180
f 220 180 173
f 206 220 173
f 206 173 202
f 184 206 202
f 184 202 174
f 188 184 174
f 188 174 172
f 175 188 172
f 179 175 172
f 179 223 175
f 179 172 178
f 179 178 186
f 178 172 190
f 190 172 171
f 190 171 194
f 171 170 194
f 194 170 167
f 168 194 167
f 194 168 164
f 194 164 196
f 194 196 165
f 194 165 192
f 190 194 192
f 197 190 192
f 197 178 190
f 198 178 197
f 198 197 193
f 198 193 145
f 199 198 145
f 199 186 198
f 186 199 207
f 195 207 199
f 210 207 195
f 212 210 195
f 153 212 195
f 153 195 154
f 195 150 154
f 150 195 144
f 154 150 144
f 154 144 23
f 24 154 23
f 154 24 151
f 154 151 146
f 151 152 146
f 152 151 149
f 149 151 147
f 149 147 148
f 151 24 30
f 151 30 32
f 31 151 32
f 151 31 33
f 33 147 151
f 148 147 33
f 148 33 156
f 156 33 29
f 23 144 20
f 144 19 20
f 19 144 18
f 145 18 144
f 146 153 154
f 195 199 144
f 210 186 207
f 261 186 210
f 258 261 210
f 266 258 210
f 260 258 266
f 264 260 266
f 262 260 264
f 259 262 264
f 205 259 264
f 205 264 213
f 213 264 210
f 152 259 205
f 152 263 259
f 265 263 152
f 149 265 152
f 149 267 265
f 265 267 259
f 264 266 210
f 199 145 144
f 193 165 145
f 145 165 155
f 155 165 157
f 157 165 164
f 157 164 162
f 164 163 162
f 158 162 163
f 158 163 161
f 161 163 208
f 163 166 208
f 208 166 93
f 208 93 209
f 166 211 93
f 211 166 91
f 169 91 166
f 169 201 91
f 201 182 91
f 182 110 91
f 182 92 110
f 182 215 92
f 182 187 215
f 215 187 115
f 187 106 115
f 106 187 176
f 176 99 106
f 176 204 99
f 204 176 203
f 180 204 203
f 189 204 180
f 204 189 109
f 204 109 113
f 189 102 109
f 189 214 102
f 189 112 214
f 189 251 112
f 217 251 189
f 200 217 189
f 222 200 189
f 222 189 191
f 181 191 189
f 112 251 111
f 100 111 251
f 214 103 102
f 112 103 214
f 180 203 176
f 204 113 99
f 163 169 166
f 164 169 163
f 161 208 209
f 22 161 209
f 160 161 22
f 161 160 159
f 21 159 160
f 25 159 21
f 25 158 159
f 17 158 25
f 17 157 158
f 160 22 21
f 159 158 161
f 157 162 158
f 155 157 17
f 18 155 17
f 145 155 18
f 193 197 165
f 186 178 198
f 197 192 165
f 165 196 164
f 168 169 164
f 168 167 169
f 167 170 169
f 170 201 169
f 170 182 201
f 174 182 170
f 174 173 182
f 182 173 187
f 173 177 187
f 173 176 177
f 177 176 187
f 171 174 170
f 172 174 171
f 202 173 174
f 180 176 173
f 181 189 180
f 183 191 181
f 216 185 220
f 224 1 220
f 224 220 247
f 247 238 224
f 238 247 242
f 236 242 247
f 218 236 247
f 247 219 218
f 219 247 206
f 219 206 184
f 218 219 184
f 218 184 188
f 223 218 188
f 246 218 223
f 246 223 243
f 248 243 223
f 16 243 248
f 16 239 243
f 239 245 243
f 218 243 245
f 239 236 245
f 248 223 179
f 243 218 246
f 223 188 175
f 218 245 236
f 236 238 242
f 247 220 206
f 224 238 1
f 221 249 222
f 254 252 251
f 240 244 253
f 5 3 244
f 4 5 244
f 4 244 6
f 6 244 241
f 6 241 240
f 231 6 240
f 231 240 227
f 226 231 227
f 228 231 226
f 233 231 228
f 11 233 228
f 27 233 11
f 27 12 233
f 233 12 6
f 11 228 229
f 26 11 229
f 26 229 230
f 230 229 232
f 28 230 232
f 232 229 237
f 229 238 237
f 237 238 236
f 237 236 239
f 229 235 238
f 235 234 238
f 234 1 238
f 234 225 1
f 229 225 234
f 229 226 225
f 229 234 235
f 26 230 28
f 229 228 226
f 226 227 225
f 233 6 231
f 3 86 114
f 3 80 86
f 7 80 3
f 3 2 7
f 252 255 251
f 101 100 251
f 116 74 105
f 116 105 100
f 101 116 100
f 100 105 66
f 100 66 65
f 100 65 107
f 62 100 107
f 62 112 100
f 112 62 103
f 102 103 62
f 102 62 109
f 62 113 109
f 113 62 99
f 95 99 62
f 99 95 108
f 99 108 106
f 106 108 95
f 115 106 95
f 115 95 215
f 62 215 95
f 62 98 215
f 215 98 96
f 215 96 92
f 92 96 97
f 104 92 97
f 104 97 110
f 110 97 91
f 97 211 91
f 97 90 211
f 93 211 90
f 90 209 93
f 90 89 209
f 209 89 71
f 94 209 71
f 209 94 22
f 71 89 50
f 89 57 50
f 90 57 89
f 90 58 57
f 58 49 57
f 97 49 58
f 49 47 57
f 57 47 44
f 57 44 43
f 57 43 41
f 57 41 39
f 57 39 38
f 39 41 43
f 43 142 39
f 43 139 142
f 139 43 138
f 43 134 138
f 134 43 133
f 133 43 44
f 44 130 133
f 133 130 126
f 133 126 131
f 126 127 131
f 125 127 126
f 125 132 127
f 125 119 132
f 119 143 132
f 119 137 143
f 123 137 119
f 122 137 123
f 118 119 125
f 128 118 125
f 121 118 128
f 128 81 121
f 81 128 46
f 128 126 46
f 46 126 47
f 44 47 126
f 56 81 46
f 53 81 56
f 55 81 53
f 55 73 81
f 81 73 135
f 55 53 46
f 54 55 46
f 60 55 54
f 62 55 60
f 62 60 96
f 96 60 97
f 97 60 59
f 59 60 52
f 59 52 49
f 107 55 62
f 107 63 55
f 65 63 107
f 60 54 52
f 54 46 52
f 52 46 47
f 53 56 46
f 121 81 135
f 121 135 117
f 121 117 119
f 119 118 121
f 125 126 128
f 44 126 130
f 39 142 35
f 34 35 142
f 36 35 34
f 35 36 40
f 67 40 36
f 67 36 37
f 64 67 37
f 70 64 37
f 42 70 37
f 75 70 42
f 45 75 42
f 45 42 87
f 76 45 87
f 42 88 87
f 42 15 88
f 42 37 15
f 15 37 34
f 40 38 35
f 40 51 38
f 61 51 40
f 50 51 61
f 68 50 61
f 68 61 67
f 69 68 67
f 69 67 77
f 77 67 78
f 78 67 64
f 78 64 70
f 78 70 75
f 78 75 76
f 75 45 76
f 67 61 48
f 67 48 40
f 61 40 48
f 50 38 51
f 37 36 34
f 35 38 39
f 49 52 47
f 50 57 38
f 71 50 68
f 90 97 58
f 98 62 96
f 66 63 65
f 105 63 66
f 105 72 63
f 105 74 72
f 72 74 79
f 72 79 63
f 55 63 73
f 141 84 82
f 141 129 84
f 141 10 129
f 9 10 141
f 84 10 124
f 10 120 124
f 10 13 120
f 120 13 122
f 120 122 135
f 135 122 123
f 119 135 123
f 136 120 135
f 122 13 14
f 124 120 136
f 73 85 135

