v 0.19213 0.0584889 -0.0215247
v 0.195526 0.0880495 -0.0402121
v 0.19182 0.0751668 -0.0252003
v 0.158121 0.102347 -0.00325249
v 0.193805 0.0731845 -0.0310945
v 0.191913 0.057059 -0.0213293
v 0.196749 0.0809962 -0.0416429
v 0.194052 0.0651161 -0.0294229
v 0.177419 0.0735566 -0.0064927
v 0.185366 0.0684207 -0.0125378
v 0.198397 0.0746419 -0.0447893
v 0.196673 0.0504893 -0.0345105
v 0.188011 0.0488499 -0.0228846
v 0.192863 0.0484223 -0.0247082
v 0.19194 0.054608 -0.0218002
v 0.206995 0.0801417 -0.0549314
v 0.207075 0.0726007 -0.0559425
v 0.195544 0.0958835 -0.040106
v 0.211773 0.0909159 -0.0603033
v 0.207629 0.103588 -0.0557872
v 0.20726 0.0957315 -0.0547182
v 0.202747 0.100547 -0.0491331
v 0.174107 0.105437 -0.0189151
v 0.157736 0.0945587 0.011237
v 0.186348 0.0596858 -0.0174069
v 0.196725 0.0521063 -0.0364215
v 0.196903 0.0667263 -0.0401121
v 0.199002 0.0547294 -0.0462646
v 0.180417 0.0929117 -0.0207447
v 0.201727 0.0619744 -0.0512859
v 0.202566 0.0553672 -0.0541855
v 0.200582 0.0686052 -0.0485515
v 0.180447 0.0822624 -0.00825966
v 0.182437 0.0844012 -0.0150185
v 0.150461 0.0906713 0.0231968
v 0.16262 0.088842 0.0117063
v 0.169796 0.0843325 0.00460234
v 0.206936 0.087725 -0.0540381
v 0.202442 0.0925901 -0.04842
v 0.177008 0.0797593 -0.00239203
v 0.183564 0.0752416 -0.00981167
v 0.207163 0.065064 -0.0569613
v 0.212037 0.0834543 -0.0610766
v 0.145061 0.0950789 0.0212588
v 0.154309 0.0928341 0.017434
v 0.217863 0.112928 -0.072188
v 0.214839 0.109797 -0.066819
v 0.212037 0.106604 -0.0620097
v 0.212295 0.116527 -0.0648327
v 0.2155 0.11961 -0.0701635
v 0.209436 0.123319 -0.0625206
v 0.212861 0.126299 -0.0683021
v 0.148329 0.0968973 0.0151319
v 0.151593 0.0987138 0.00900377
v 0.154857 0.10053 0.00287564
v 0.16093 0.0963236 0.00493328
v 0.163671 0.0982033 -0.00155095
v 0.218206 0.122692 -0.0765644
v 0.218809 0.115677 -0.0791031
v 0.21848 0.125259 -0.0834638
v 0.217235 0.118438 -0.0858899
v 0.171645 0.0944442 -0.0075068
v 0.216833 0.0993375 -0.0775866
v 0.217393 0.0962962 -0.0706245
v 0.214939 0.0927976 -0.0803587
v 0.213571 0.083274 -0.0768818
v 0.213495 0.079897 -0.0702963
v 0.207818 0.0608327 -0.0640404
v 0.208629 0.0642443 -0.0704622
v 0.173775 0.0966022 -0.0139474
v 0.166393 0.100051 -0.00808865
v 0.166428 0.0909718 0.00598838
v 0.169069 0.0926793 -0.000780089
v 0.209863 0.0669243 -0.0605322
v 0.174088 0.0867068 -0.000663302
v 0.211135 0.0702872 -0.0669702
v 0.21561 0.0897238 -0.0737288
v 0.215361 0.0863848 -0.0670737
v 0.176439 0.0887525 -0.00723501
v 0.178427 0.0907736 -0.0139859
v 0.209108 0.113422 -0.0596084
v 0.206083 0.120277 -0.0570897
v 0.20518 0.110525 -0.0537301
v 0.200881 0.107675 -0.0477229
v 0.202388 0.117351 -0.0512922
v 0.198292 0.114452 -0.0456474
v 0.196706 0.104783 -0.0419891
v 0.194171 0.111482 -0.0403088
v 0.189903 0.108467 -0.0350804
v 0.192409 0.10176 -0.0367395
v 0.188077 0.0986984 -0.031527
v 0.185523 0.105295 -0.0300425
v 0.181083 0.10212 -0.0250359
v 0.176584 0.0990354 -0.0199366
v 0.169222 0.102215 -0.0143456
v 0.183344 0.0956112 -0.0266657
v 0.193781 0.0501918 -0.0256652
v 0.191006 0.064381 -0.0201524
v 0.188909 0.0710568 -0.0180558
v 0.194726 0.0750652 -0.037543
v 0.192215 0.0795881 -0.0340467
v 0.189522 0.0831487 -0.0299364
v 0.185738 0.0891418 -0.0285756
v 0.188022 0.0810762 -0.0237096
v 0.186383 0.0781707 -0.0161913
v 0.184223 0.0869855 -0.0222188
f 41 33 40 9
f 1 26 8 98
f 99 105 41 10
f 102 101 7 2
f 18 103 102 2
f 21 22 23 24
f 96 103 18 91
f 22 84 87 18
f 22 18 2 39
f 38 21 39 7
f 42 17 32 30
f 16 38 7 11
f 17 16 11 32
f 27 28 31 30
f 27 3 8 28
f 26 1 97 12
f 13 15 6 25
f 25 6 1 98
f 16 43 19 38
f 25 98 99 10
f 21 20 22 39
f 53 45 24 54
f 50 49 47 46
f 49 81 48 47
f 81 83 20 48
f 51 82 81 49
f 50 52 51 49
f 59 61 60 58
f 64 77 65 63
f 77 78 67 66
f 69 76 74 68
f 82 85 83 81
f 85 86 84 83
f 84 22 20 83
f 86 88 87 84
f 88 89 90 87
f 92 91 90 89
f 92 93 96 91
f 55 54 24 56
f 94 29 96 93
f 23 95 70 94
f 70 80 29 94
f 71 62 70 95
f 29 106 103 96
f 4 55 56 57
f 62 71 57 73
f 101 3 5 100
f 102 104 3 101
f 103 106 104 102
f 106 34 105 104
f 105 99 3 104
f 34 33 41 105
f 29 80 34 106
f 98 8 3 99
f 57 56 72 73
f 33 79 75 40
f 75 73 72 37
f 72 56 24 36
f 45 53 44 35
f 80 79 33 34
f 70 62 79 80
f 62 73 75 79
