# https://github.com/mikedh/trimesh
v 0.32752600 0.03314800 -0.23364300
v 0.33883663 0.05022588 -0.24712150
v 0.34276301 0.07360600 -0.25208199
v 0.34048200 0.05735600 -0.24642099
v 0.29922576 0.06775479 -0.19397322
v 0.29883941 0.06396446 -0.20079550
v 0.29250953 0.06542255 -0.19162275
v 0.30530187 0.06896253 -0.20063733
v 0.30160548 0.06567460 -0.20263487
v 0.30653450 0.06872210 -0.20426162
v 0.29756819 0.06919472 -0.18978145
v 0.30887997 0.06998072 -0.20694120
v 0.30344672 0.06449067 -0.20799520
v 0.30967413 0.06909445 -0.21629794
v 0.29495032 0.07060630 -0.18568713
v 0.31163578 0.07104460 -0.21968230
v 0.28616519 0.06771709 -0.18421386
v 0.28947968 0.07211543 -0.18058386
v 0.31480630 0.07509404 -0.22049802
v 0.31638552 0.07656819 -0.22788841
v 0.31567901 0.07692500 -0.21320100
v 0.28166792 0.07060055 -0.17936853
v 0.31749982 0.07953749 -0.23042205
v 0.31893941 0.08220929 -0.23240101
v 0.32189085 0.08743313 -0.22636634
v 0.31568301 0.07639664 -0.22440775
v 0.32165532 0.09237656 -0.23541135
v 0.32236778 0.09754970 -0.23811595
v 0.32372436 0.09261198 -0.22808212
v 0.29195761 0.10105585 -0.18434014
v 0.29030998 0.09904934 -0.18168657
v 0.28396993 0.08258877 -0.17212211
v 0.29732662 0.09213717 -0.18919722
v 0.27668153 0.11571443 -0.16931621
v 0.27656787 0.10395028 -0.16710726
v 0.29143908 0.11218285 -0.18577764
v 0.27811063 0.09074938 -0.16678754
v 0.31256215 0.07485030 -0.20754373
v 0.30805177 0.09373345 -0.20434107
v 0.30395191 0.11755540 -0.20404850
v 0.29629942 0.13792559 -0.19863633
v 0.31092935 0.11077117 -0.21236950
v 0.32089995 0.11934689 -0.22857802
v 0.32110832 0.11620836 -0.22803661
v 0.32164884 0.08992397 -0.22310293
v 0.31453425 0.07680489 -0.21066221
v 0.30635472 0.11465901 -0.20696129
v 0.30974001 0.12180800 -0.21312800
v 0.30510202 0.12542461 -0.20745372
v 0.28376303 0.13131848 -0.18121188
v 0.30119319 0.11948738 -0.20011831
v 0.31004711 0.13569734 -0.21692542
v 0.31300068 0.13222448 -0.22010950
v 0.30829861 0.10170144 -0.20664195
v 0.32247762 0.11730684 -0.23140296
v 0.29862684 0.09456715 -0.19168821
v 0.31793139 0.08026185 -0.21633920
v 0.32027546 0.08307119 -0.22079607
v 0.28850800 0.07775500 -0.17709200
v 0.28497481 0.13640029 -0.18440335
v 0.27639208 0.12264906 -0.17129889
v 0.29596824 0.14155322 -0.19953639
v 0.29165849 0.10889250 -0.18660299
v 0.29494199 0.11613300 -0.19156300
v 0.27349941 0.10501985 -0.16491149
v 0.27972995 0.12785235 -0.17603189
v 0.30386999 0.09730100 -0.19999900
v 0.28767999 0.13888200 -0.18888163
v 0.32471686 0.10024528 -0.23092520
v 0.31503506 0.13095834 -0.22319594
v 0.29224150 0.10400375 -0.18640925
v 0.28617763 0.07682570 -0.17481119
v 0.26493123 0.10866723 -0.16636466
v 0.27344501 0.11814500 -0.16894500
v 0.26632892 0.12039658 -0.17010946
v 0.26964584 0.12936334 -0.17524912
v 0.27032582 0.10573116 -0.16555406
v 0.27023470 0.13313121 -0.17723486
v 0.27263379 0.13228736 -0.17840698
v 0.28667786 0.14191236 -0.19286220
v 0.28485361 0.13864695 -0.18714071
v 0.27528900 0.09688600 -0.16557200
v 0.27164568 0.09177890 -0.16627466
v 0.26668132 0.09502790 -0.16581888
v 0.27845427 0.14021438 -0.18735485
v 0.27867069 0.08808601 -0.16767126
v 0.27090473 0.08586508 -0.16827119
v 0.27221820 0.08049456 -0.16993736
v 0.27559128 0.07775358 -0.17272661
v 0.27869484 0.07635605 -0.17429258
v 0.29075944 0.14316346 -0.19850786
v 0.29626249 0.14258446 -0.20338685
v 0.29977382 0.14159298 -0.20555894
v 0.29776706 0.14382386 -0.21213111
v 0.30532946 0.14001681 -0.21748167
v 0.30574352 0.13903825 -0.21266341
v 0.30884901 0.13737500 -0.22027400
v 0.30977081 0.13668220 -0.22519461
v 0.28742173 0.14541395 -0.20034775
v 0.28414910 0.14315115 -0.19466459
v 0.31531297 0.13052694 -0.22613090
v 0.31829649 0.12354093 -0.23606221
v 0.32405335 0.11031320 -0.23249973
v 0.32109759 0.11493281 -0.23958172
v 0.32258214 0.10439440 -0.23915025
v 0.32544800 0.10738018 -0.24157094
v 0.33076377 0.11273610 -0.24138321
v 0.33074936 0.09219954 -0.23867815
v 0.33273343 0.10476528 -0.24155575
v 0.32035444 0.08601847 -0.23501130
v 0.32681694 0.07783391 -0.23135184
v 0.33074915 0.08337757 -0.23492240
v 0.32599572 0.07285519 -0.22734176
v 0.31597732 0.06599753 -0.21988288
v 0.32414105 0.06801164 -0.22346279
v 0.31579736 0.07375403 -0.22613067
v 0.31920481 0.06128384 -0.21550864
v 0.32191936 0.11775128 -0.24070957
v 0.30934406 0.06321225 -0.21311762
v 0.28901907 0.06337485 -0.18800380
v 0.32260898 0.10857453 -0.24064882
v 0.28749400 0.06614900 -0.18615700
v 0.28006579 0.06670823 -0.17688668
v 0.26436830 0.10226894 -0.16477675
v 0.31243116 0.13391403 -0.23128191
v 0.30999925 0.13635793 -0.22807223
v 0.30330748 0.14232135 -0.22083341
v 0.27574890 0.14012975 -0.18567344
v 0.31628132 0.12761485 -0.23545518
v 0.26466237 0.11620123 -0.16752782
v 0.32011236 0.12015682 -0.23968156
v 0.28741095 0.14864239 -0.20113150
v 0.30162701 0.06008710 -0.20340874
v 0.29809996 0.14661692 -0.21506749
v 0.26573303 0.12313420 -0.16822455
v 0.26394856 0.11448564 -0.15835013
v 0.29885315 0.14934280 -0.21336981
v 0.29785764 0.05806459 -0.19586984
v 0.28134129 0.06449760 -0.16876847
v 0.27657517 0.07051453 -0.17111828
v 0.29424788 0.14929407 -0.20916049
v 0.29069089 0.05939712 -0.18654244
v 0.28982361 0.05866627 -0.18004630
v 0.31328370 0.06424124 -0.21632355
v 0.28068470 0.14688143 -0.19185257
v 0.30080818 0.14633414 -0.21795600
v 0.30587128 0.05807899 -0.20328550
v 0.32056340 0.06554510 -0.21999956
v 0.29288000 0.15398900 -0.20055600
v 0.27681368 0.14663374 -0.17875573
v 0.28288099 0.15014499 -0.18917599
v 0.24867778 0.13971785 -0.15313826
v 0.24996393 0.12647215 -0.14972621
v 0.25655343 0.15321765 -0.16319511
v 0.26620299 0.14325500 -0.16643199
v 0.25666125 0.12056000 -0.15284972
v 0.26281153 0.10653017 -0.15480466
v 0.24791058 0.10470700 -0.14315870
v 0.24703348 0.11611623 -0.14494639
v 0.26170594 0.10387301 -0.15337826
v 0.27178181 0.15278246 -0.17364268
v 0.27398213 0.14333586 -0.17359361
v 0.25829989 0.08511926 -0.14869243
v 0.26635538 0.09139840 -0.15607072
v 0.26097900 0.06415600 -0.15021800
v 0.25026747 0.08927538 -0.14299567
v 0.26729099 0.13402867 -0.16462013
v 0.26760858 0.13026742 -0.16477643
v 0.26758794 0.08506221 -0.15635529
v 0.28120248 0.15268087 -0.18315042
v 0.27053746 0.13752643 -0.16902126
v 0.26223624 0.07294694 -0.15119569
v 0.26650801 0.05678000 -0.15483300
v 0.27287400 0.04894300 -0.16044500
v 0.27742835 0.06782902 -0.16480897
v 0.26591745 0.12514887 -0.16213175
v 0.29239784 0.15643305 -0.19712090
v 0.26887791 0.13345950 -0.16678836
v 0.27855350 0.04064550 -0.16629800
v 0.28343249 0.15230972 -0.18656169
v 0.26471267 0.12175039 -0.15967449
v 0.29040792 0.15911056 -0.19489170
v 0.29001919 0.05566151 -0.17740993
v 0.31590242 0.14477707 -0.22638433
v 0.30665094 0.15418482 -0.21551070
v 0.32419584 0.13444086 -0.23540460
v 0.32043517 0.13907983 -0.23159095
v 0.32735972 0.12775417 -0.23850835
v 0.27214128 0.07619985 -0.16031376
v 0.32969244 0.12036721 -0.24054987
v 0.33453586 0.11338064 -0.24546461
v 0.33794501 0.10934100 -0.24961500
v 0.33307264 0.09557439 -0.23995525
v 0.33762464 0.09843201 -0.24708338
v 0.30425711 0.05111429 -0.19436918
v 0.31097267 0.05422196 -0.20322126
v 0.32705039 0.07002506 -0.22723696
v 0.31269759 0.05721388 -0.20667309
v 0.33250976 0.04240838 -0.23396146
v 0.33008856 0.06287056 -0.23144813
v 0.33761281 0.05147312 -0.24149578
v 0.31443225 0.04165769 -0.20814624
v 0.32185754 0.03301753 -0.21919212
v 0.31325732 0.03035633 -0.20767310
v 0.32844717 0.05572741 -0.22883193
v 0.33947984 0.11502226 -0.25302476
v 0.30684391 0.05436293 -0.19816023
v 0.34115553 0.06261824 -0.24775149
v 0.28679945 0.04596526 -0.17403659
v 0.31058701 0.02916900 -0.20428500
v 0.29269326 0.03216600 -0.18190550
v 0.32761948 0.12345937 -0.23967032
v 0.26986107 0.08213939 -0.16072794
v 0.26397954 0.10391205 -0.15663099
v 0.32761975 0.03602850 -0.22757226
v 0.33774950 0.04844250 -0.24216400
v 0.31885050 0.03029225 -0.21570924
v 0.30925700 0.14959206 -0.21967237
v 0.33523801 0.04427100 -0.23836200
v 0.34223907 0.09439551 -0.25319926
v 0.26271387 0.05576388 -0.15193925
v 0.26047650 0.06044700 -0.14999250
v 0.25807576 0.06052597 -0.14861176
v 0.29979464 0.05290510 -0.18867294
v 0.26499213 0.15779854 -0.17063563
v 0.29808741 0.15492659 -0.20572092
v 0.34211850 0.09965200 -0.25530900
v 0.26904384 0.16934617 -0.17982022
v 0.30469028 0.15317741 -0.21345892
v 0.26417791 0.10111592 -0.16004464
v 0.24781382 0.10080032 -0.14239146
v 0.34198251 0.10252091 -0.25490203
v 0.29987340 0.05490799 -0.19135203
v 0.25044014 0.14854193 -0.15790995
v 0.27555628 0.07215417 -0.16477427
v 0.27062346 0.13673362 -0.17709014
v 0.25356701 0.07042400 -0.14548200
v 0.26096741 0.16941659 -0.17523592
v 0.29172594 0.05677906 -0.18033764
v 0.24892684 0.07884249 -0.14307920
v 0.24722931 0.14601979 -0.15617423
v 0.25189467 0.07491499 -0.14411876
v 0.27199961 0.17932247 -0.19040723
v 0.25047132 0.15480869 -0.16171705
v 0.24316079 0.11073812 -0.14326988
v 0.28238855 0.06452458 -0.17579318
v 0.34046660 0.11224770 -0.25639186
v 0.26631941 0.17725679 -0.18556736
v 0.25528037 0.16036377 -0.16664725
v 0.24555092 0.12479444 -0.14682490
v 0.24535208 0.09533491 -0.14157106
v 0.32469656 0.13129302 -0.23628519
v 0.32322280 0.11293828 -0.24157595
v 0.30712653 0.14599043 -0.22191285
v 0.25291142 0.16355696 -0.16928247
v 0.25840892 0.17080204 -0.17667061
v 0.25966875 0.05461350 -0.15179550
v 0.24319377 0.13063787 -0.14928668
v 0.26687551 0.18248500 -0.19676400
v 0.25838662 0.17463165 -0.18283531
v 0.25431596 0.06449702 -0.14707179
v 0.24164251 0.11900900 -0.14605701
v 0.25572100 0.17683450 -0.18870601
v 0.24277100 0.14094150 -0.15536901
v 0.24792200 0.07530575 -0.14486150
v 0.25145762 0.16435763 -0.17167175
v 0.32953502 0.03571042 -0.23158332
v 0.33639520 0.04390760 -0.24139419
v 0.34194835 0.06070154 -0.25000986
f 258 250 152
f 153 152 250
f 241 258 152
f 250 258 245
f 156 152 153
f 250 159 153
f 234 241 152
f 241 264 258
f 250 245 159
f 245 258 262
f 167 152 156
f 153 159 156
f 234 152 154
f 244 241 234
f 241 266 264
f 159 245 251
f 155 152 167
f 167 156 181
f 156 159 158
f 225 154 152
f 154 244 234
f 244 266 241
f 159 251 158
f 155 225 152
f 181 156 157
f 167 181 176
f 157 156 158
f 225 238 154
f 249 244 154
f 255 266 244
f 251 231 158
f 167 176 168
f 181 135 176
f 157 158 231
f 154 238 249
f 228 238 225
f 249 255 244
f 255 256 266
f 231 251 166
f 167 168 178
f 168 176 135
f 181 136 135
f 157 231 160
f 238 255 249
f 238 256 255
f 260 266 256
f 231 166 160
f 166 251 240
f 171 167 178
f 168 135 178
f 135 136 130
f 157 136 181
f 157 160 164
f 248 256 238
f 248 260 256
f 260 263 266
f 160 166 164
f 166 240 242
f 167 171 162
f 178 135 236
f 135 130 75
f 136 73 130
f 157 230 136
f 157 164 214
f 238 243 248
f 248 259 260
f 260 259 263
f 166 163 164
f 163 166 242
f 242 240 261
f 161 167 162
f 171 178 236
f 75 130 73
f 135 75 76
f 136 230 73
f 214 164 230
f 243 259 248
f 169 164 163
f 163 242 172
f 240 265 261
f 237 242 261
f 150 161 162
f 161 225 167
f 171 236 162
f 135 76 236
f 73 230 124
f 230 164 84
f 169 163 172
f 169 189 164
f 172 242 223
f 240 251 265
f 242 237 223
f 237 261 223
f 161 150 170
f 162 236 150
f 236 76 78
f 84 124 230
f 164 213 84
f 189 169 172
f 223 222 172
f 223 261 257
f 170 150 180
f 150 236 128
f 78 128 236
f 84 213 87
f 164 189 213
f 189 172 175
f 222 223 221
f 223 257 221
f 180 150 128
f 87 213 88
f 213 189 235
f 175 172 209
f 175 139 189
f 180 128 145
f 213 123 88
f 235 189 139
f 235 140 213
f 172 174 209
f 175 209 139
f 140 123 213
f 235 139 140
f 174 172 173
f 174 179 209
f 183 139 209
f 139 246 140
f 165 173 172
f 179 211 209
f 139 183 239
f 183 209 195
f 246 139 143
f 140 246 123
f 211 210 209
f 239 183 224
f 209 210 195
f 239 143 139
f 143 123 246
f 233 239 224
f 195 210 204
f 143 239 142
f 142 123 143
f 233 224 207
f 239 233 142
f 195 204 196
f 204 210 217
f 123 142 120
f 207 147 233
f 233 138 142
f 207 195 196
f 196 204 202
f 204 217 202
f 22 123 120
f 120 142 133
f 207 119 147
f 147 133 233
f 138 133 142
f 233 133 138
f 224 195 207
f 198 207 196
f 196 202 117
f 202 217 203
f 120 122 22
f 88 123 22
f 6 120 133
f 133 147 119
f 119 207 198
f 117 198 196
f 200 117 202
f 202 203 199
f 203 217 215
f 7 122 120
f 120 6 7
f 6 133 13
f 119 13 133
f 198 144 119
f 198 117 148
f 197 117 200
f 202 205 200
f 201 202 199
f 203 215 199
f 7 17 122
f 16 13 119
f 144 16 119
f 198 148 144
f 115 148 117
f 115 117 197
f 197 200 111
f 200 205 201
f 205 202 201
f 201 199 216
f 199 215 216
f 17 22 122
f 114 16 144
f 144 148 114
f 115 114 148
f 111 115 197
f 200 201 112
f 4 201 216
f 18 22 17
f 16 114 116
f 113 114 115
f 200 112 111
f 112 201 208
f 4 208 201
f 4 216 268
f 18 17 15
f 72 22 18
f 16 116 20
f 111 114 113
f 108 112 208
f 208 4 3
f 4 268 2
f 219 268 216
f 15 17 7
f 72 18 15
f 72 90 22
f 111 23 114
f 108 208 220
f 220 208 3
f 4 2 269
f 219 267 268
f 15 7 11
f 90 89 22
f 72 89 90
f 24 23 111
f 23 20 114
f 194 108 220
f 220 3 227
f 4 269 3
f 219 215 267
f 267 1 268
f 11 7 5
f 89 88 22
f 72 88 89
f 110 24 111
f 108 194 193
f 206 194 220
f 220 227 232
f 215 1 267
f 5 7 6
f 11 5 8
f 72 87 88
f 112 110 111
f 206 192 194
f 232 227 247
f 9 5 6
f 8 5 9
f 11 8 38
f 86 87 72
f 108 110 112
f 191 194 192
f 9 6 13
f 8 9 10
f 8 12 38
f 33 11 38
f 86 72 32
f 83 87 86
f 108 27 110
f 193 194 191
f 10 9 13
f 8 10 12
f 38 12 21
f 32 11 33
f 33 38 39
f 59 32 72
f 86 32 37
f 37 83 86
f 83 84 87
f 28 27 108
f 12 10 13
f 12 14 21
f 46 38 21
f 32 33 31
f 54 33 39
f 38 46 39
f 11 59 72
f 35 37 32
f 37 82 83
f 83 124 84
f 109 28 108
f 12 13 14
f 21 14 16
f 57 46 21
f 34 32 31
f 31 33 30
f 54 56 33
f 54 39 42
f 42 39 46
f 35 32 34
f 35 65 37
f 37 65 82
f 82 65 83
f 77 124 83
f 106 28 109
f 193 109 108
f 21 16 19
f 57 21 58
f 46 57 45
f 34 31 36
f 31 30 36
f 30 33 56
f 47 54 42
f 42 46 45
f 35 34 65
f 65 77 83
f 77 73 124
f 106 253 28
f 107 106 109
f 19 16 26
f 21 19 58
f 45 57 58
f 50 34 36
f 71 36 30
f 30 56 67
f 42 49 47
f 47 67 54
f 42 45 44
f 34 61 65
f 65 73 77
f 107 253 106
f 26 16 20
f 58 19 26
f 45 58 29
f 61 34 50
f 50 36 64
f 71 30 67
f 49 42 48
f 49 40 47
f 43 42 44
f 45 55 44
f 61 74 65
f 65 75 73
f 107 190 253
f 26 20 23
f 58 26 23
f 45 29 55
f 58 25 29
f 61 50 66
f 36 63 64
f 51 50 64
f 48 42 52
f 49 48 52
f 51 40 49
f 43 53 42
f 55 43 44
f 61 75 74
f 65 74 75
f 190 212 253
f 58 23 25
f 55 29 69
f 29 25 110
f 50 60 66
f 51 60 50
f 64 40 51
f 52 42 53
f 62 49 52
f 49 41 51
f 53 43 70
f 61 76 75
f 188 212 190
f 212 118 253
f 25 23 24
f 55 69 103
f 25 24 110
f 29 110 27
f 60 51 41
f 53 70 52
f 41 49 62
f 62 52 96
f 43 101 70
f 66 76 61
f 188 252 212
f 212 131 118
f 118 131 253
f 29 27 28
f 62 60 41
f 93 62 96
f 101 43 129
f 70 101 98
f 66 79 76
f 186 252 188
f 252 129 212
f 212 129 131
f 253 131 104
f 29 28 69
f 62 68 60
f 43 102 129
f 98 101 129
f 52 70 98
f 60 79 66
f 78 76 79
f 186 129 252
f 129 104 131
f 104 121 253
f 69 28 103
f 81 60 68
f 68 62 80
f 43 104 102
f 104 129 102
f 98 129 126
f 52 98 97
f 60 85 79
f 128 78 79
f 125 129 186
f 103 28 105
f 81 85 60
f 68 80 81
f 62 91 80
f 127 98 126
f 52 97 95
f 95 97 98
f 85 128 79
f 187 125 186
f 121 105 28
f 55 103 105
f 80 85 81
f 93 91 62
f 80 91 99
f 95 98 127
f 52 95 96
f 132 128 85
f 187 126 125
f 55 105 121
f 80 100 85
f 93 92 91
f 80 99 100
f 99 91 94
f 95 127 94
f 96 95 93
f 184 126 187
f 55 121 104
f 99 85 100
f 92 94 91
f 93 94 92
f 93 95 94
f 254 126 184
f 254 146 126
f 218 254 184
f 146 127 126
f 254 229 146
f 185 218 184
f 218 229 254
f 134 127 146
f 226 146 229
f 229 218 185
f 94 127 134
f 226 137 146
f 185 226 229
f 99 94 134
f 146 137 134
f 226 141 137
f 226 185 182
f 132 99 134
f 137 141 134
f 226 132 141
f 132 85 99
f 141 132 134
f 149 132 226
f 177 132 149
f 226 177 149
f 177 145 132
f 151 145 177
f 180 145 151
f 180 151 177

