v -0.0621748 -0.121851 0.228348
v -0.0591125 -0.120997 0.237808
v -0.0600335 -0.116518 0.232368
v -0.0625527 -0.136006 0.23487
v -0.0603883 -0.130713 0.23899
v -0.061273 -0.126297 0.233705
v -0.0554413 -0.130446 0.247469
v -0.0575907 -0.12562 0.242804
v -0.0534712 -0.135284 0.252186
v -0.0494685 -0.130622 0.255489
v -0.0570866 -0.149518 0.249176
v -0.0557836 -0.144437 0.253567
v -0.0580992 -0.152175 0.264263
v -0.0573181 -0.147921 0.259131
v -0.0567917 -0.153558 0.254337
v -0.0574069 -0.157631 0.259515
v -0.0579701 -0.162011 0.264449
v -0.0571798 -0.166236 0.269238
v -0.0543075 -0.165933 0.278348
v -0.0529814 -0.161688 0.283282
v -0.0470727 -0.162645 0.290718
v -0.0435894 -0.158417 0.294766
v -0.0396473 -0.154301 0.298588
v -0.0360333 -0.160077 0.30047
v -0.040106 -0.163764 0.296286
v -0.0490613 -0.166878 0.285701
v -0.0275625 -0.161865 0.304988
v -0.0223898 -0.154789 0.308205
v -0.0263797 -0.152114 0.306846
v -0.0345988 -0.150317 0.301284
v -0.0314225 -0.156081 0.303995
v -0.0425475 -0.148591 0.295185
v -0.0495108 -0.1471 0.287776
v -0.0554417 -0.156183 0.279137
v -0.0528214 -0.151565 0.283674
v -0.054942 -0.146085 0.279067
v -0.052417 -0.136097 0.277753
v -0.0554442 -0.141109 0.273583
v -0.0544603 -0.136822 0.267587
v -0.0548508 -0.139064 0.257624
v -0.052467 -0.133703 0.261665
v -0.0512737 -0.131894 0.271233
v -0.0569804 -0.151191 0.274305
v -0.051369 -0.141497 0.283075
v -0.0470233 -0.152784 0.291923
v -0.0504372 -0.157194 0.287808
v -0.0568494 -0.161074 0.27426
v -0.0552017 -0.171564 0.265109
v -0.0584959 -0.156478 0.269356
v -0.056037 -0.167373 0.260198
v -0.0559271 -0.163081 0.254948
v -0.0534214 -0.168087 0.25068
v -0.0545167 -0.163837 0.245298
v -0.0583423 -0.160111 0.240658
v -0.0613271 -0.150525 0.240395
v -0.0587017 -0.145277 0.244362
v -0.0558436 -0.140252 0.248142
v -0.0530219 -0.172291 0.256077
v -0.0560857 -0.158779 0.249671
v -0.0570202 -0.154667 0.244571
v -0.0575785 -0.146542 0.269213
v -0.0568052 -0.142248 0.263837
v -0.0460953 -0.12144 0.253295
v -0.00410394 -0.157634 0.310681
v -0.0583948 -0.135483 0.243736
v -0.0613294 -0.140529 0.239991
v -0.0536541 -0.120794 0.245997
v -0.0512681 -0.125681 0.250564
v -0.0273116 -0.116871 0.263502
v -0.0416982 -0.112353 0.251514
v -0.0369647 -0.103579 0.249486
v -0.0403636 -0.117957 0.255457
v -0.0344609 -0.114635 0.257443
v -0.0355988 -0.109225 0.25341
v -0.0281671 -0.112035 0.258892
v -0.0294401 -0.106376 0.255045
v -0.0227196 -0.104251 0.255967
v -0.0237655 -0.0988341 0.251719
v -0.0214785 -0.110238 0.259483
v -0.0206697 -0.115292 0.264504
v -0.0279799 -0.118518 0.269985
v -0.0211922 -0.117297 0.271056
v -0.0224097 -0.117645 0.27798
v -0.0306217 -0.100794 0.251082
v -0.0160574 -0.117982 0.285473
v -0.00868482 -0.11763 0.285655
v -0.0013279 -0.118494 0.285354
v 0.00604581 -0.120077 0.284782
v -0.025714 -0.0487708 0.211866
v -0.00152492 -0.121367 0.291583
v 0.0212973 -0.126922 0.283435
v 0.0273404 -0.132788 0.282038
v 0.0196774 -0.130872 0.288964
v 0.0176679 -0.135237 0.293714
v 0.00900441 -0.134394 0.299045
v 0.0114456 -0.129995 0.294877
v 0.00461283 -0.126863 0.296237
v -0.00209398 -0.125038 0.297239
v -0.00212449 -0.130232 0.301611
v -0.00891295 -0.129254 0.302448
v -0.0161558 -0.125083 0.297219
v -0.0089215 -0.124301 0.297535
v -0.00893378 -0.120116 0.29212
v -0.0163031 -0.120645 0.29193
v -0.0299972 -0.120788 0.283861
v -0.0366141 -0.122942 0.282628
v -0.0366837 -0.126589 0.288711
v -0.0425127 -0.12971 0.286592
v -0.0415044 -0.13481 0.291205
v -0.034453 -0.137375 0.297506
v -0.0271543 -0.140104 0.303421
v -0.0288869 -0.134137 0.300069
v -0.02261 -0.131301 0.301766
v -0.0298484 -0.128555 0.29563
v -0.0232662 -0.126093 0.296879
v -0.0143227 -0.135032 0.305847
v -0.0124376 -0.140783 0.308854
v -0.018967 -0.143249 0.308061
v -0.0166879 -0.149623 0.310079
v -0.0102353 -0.147266 0.310342
v -0.00747917 -0.153009 0.310979
v -0.0134862 -0.156951 0.31107
v -0.00635174 -0.162065 0.308827
v 0.00336239 -0.161974 0.306493
v 0.0104907 -0.165652 0.300875
v 0.0246647 -0.165962 0.290359
v 0.0298233 -0.16233 0.285111
v 0.0320888 -0.150641 0.282631
v 0.0343195 -0.146242 0.277063
v 0.0314886 -0.13942 0.279823
v 0.0292393 -0.155278 0.287951
v 0.0228526 -0.152464 0.294504
v 0.0242801 -0.159371 0.292651
v 0.0174256 -0.156424 0.298906
v 0.0107997 -0.15943 0.303104
v 0.00267948 -0.155382 0.307403
v 0.0094629 -0.15313 0.304125
v -0.000207212 -0.143091 0.307247
v 0.00337783 -0.145946 0.306306
v 0.000350782 -0.150458 0.308648
v 0.00696288 -0.148801 0.305364
v -0.00358942 -0.146413 0.309272
v -0.0064784 -0.141677 0.308159
v -0.0085169 -0.136079 0.30587
v 0.00729953 -0.140117 0.302816
v 0.0110675 -0.143716 0.301795
v 0.019129 -0.14551 0.2964
v 0.0227119 -0.141236 0.292341
v 0.0264458 -0.148178 0.290264
v 0.0153087 -0.149836 0.30029
v 0.0181779 -0.162918 0.297099
v -0.0209409 -0.137197 0.305169
v -0.0317918 -0.143816 0.29965
v -0.0218143 -0.152992 0.307675
v -0.0244871 -0.146547 0.305553
v -0.0359999 -0.1315 0.29377
v -0.0301858 -0.124005 0.290111
v -0.0234683 -0.121792 0.291316
v -0.0425527 -0.125822 0.2808
v -0.0159226 -0.129419 0.302427
v -0.0314958 -0.0517375 0.210345
v 0.00407225 -0.132174 0.300145
v 0.0033198 -0.137974 0.303756
v 0.0149175 -0.139383 0.297944
v 0.0255239 -0.1368 0.287549
v 0.0291858 -0.143671 0.285226
v 0.0131795 -0.125917 0.290137
v 0.0057879 -0.122948 0.291001
v -0.0231582 -0.118886 0.284915
v -0.0290831 -0.119273 0.276943
v -0.0421102 -0.123638 0.274084
v -0.0357342 -0.121137 0.275558
v -0.0345287 -0.120436 0.268718
v -0.0407548 -0.123217 0.267219
v -0.0463755 -0.126905 0.265562
v -0.0477497 -0.127493 0.272511
v -0.0303655 -0.0566183 0.215365
v -0.0452021 -0.125971 0.258556
v -0.039732 -0.122181 0.260604
v -0.0335771 -0.119436 0.262124
v -0.0179459 -0.0916556 0.248209
v -0.0188129 -0.0862045 0.243811
v -0.0196666 -0.0806696 0.239524
v -0.0205204 -0.0751347 0.235237
v -0.0213567 -0.0696704 0.230897
v -0.0222296 -0.0642494 0.226496
v -0.0231626 -0.0593086 0.221424
v -0.0244045 -0.0537933 0.216791
v -0.0287837 -0.0618792 0.219703
v -0.027733 -0.0672545 0.22393
v -0.0242124 -0.0889876 0.241325
v -0.0250711 -0.0835581 0.236955
v -0.0259299 -0.0781286 0.232584
v -0.0267886 -0.0726991 0.228213
v -0.0236833 -0.0943605 0.245949
v -0.0406338 -0.0419295 0.193064
v -0.0386421 -0.0464734 0.197807
v -0.036304 -0.0373331 0.196062
v -0.0371067 -0.0512792 0.202557
v -0.0332457 -0.0465759 0.206183
v -0.0346864 -0.0417594 0.201158
f 6 2 3 1
f 6 5 8 2
f 66 65 5 4
f 65 7 8 5
f 68 67 8 7
f 65 57 9 7
f 9 10 68 7
f 12 57 56 11
f 56 55 60 11
f 60 59 15 11
f 15 14 12 11
f 14 62 40 12
f 61 62 14 13
f 14 15 16 13
f 16 17 49 13
f 49 43 61 13
f 59 51 16 15
f 51 50 17 16
f 50 48 18 17
f 18 47 49 17
f 20 34 47 19
f 46 35 34 20
f 26 21 46 20
f 22 45 46 21
f 23 32 45 22
f 25 24 23 22
f 24 31 30 23
f 28 29 31 27
f 44 36 35 33
f 35 46 45 33
f 35 36 43 34
f 43 49 47 34
f 44 37 38 36
f 38 61 43 36
f 42 39 38 37
f 39 62 61 38
f 41 40 62 39
f 51 52 58 50
f 59 53 52 51
f 59 60 54 53
f 57 65 66 56
f 178 179 72 63
f 72 73 74 70
f 74 76 84 71
f 179 180 73 72
f 75 76 74 73
f 180 69 75 73
f 79 77 76 75
f 69 80 79 75
f 77 78 84 76
f 69 81 82 80
f 69 180 173 81
f 173 172 170 81
f 170 83 82 81
f 169 158 104 85
f 104 103 86 85
f 103 90 87 86
f 90 168 88 87
f 103 102 98 90
f 98 97 168 90
f 93 165 92 91
f 167 96 94 93
f 94 148 165 93
f 96 95 164 94
f 164 147 148 94
f 96 97 162 95
f 162 163 145 95
f 145 146 164 95
f 167 168 97 96
f 102 100 99 98
f 102 101 160 100
f 102 103 104 101
f 104 158 115 101
f 115 113 160 101
f 106 107 157 105
f 157 158 169 105
f 159 108 107 106
f 108 109 156 107
f 156 114 157 107
f 112 114 156 110
f 153 111 112 110
f 152 113 112 111
f 155 118 152 111
f 113 115 114 112
f 152 116 160 113
f 115 158 157 114
f 152 118 117 116
f 117 143 144 116
f 118 119 120 117
f 120 142 143 117
f 155 154 119 118
f 122 121 120 119
f 121 140 142 120
f 122 123 64 121
f 64 136 140 121
f 124 136 64 123
f 135 137 136 124
f 151 134 135 125
f 127 131 133 126
f 129 130 166 128
f 166 149 131 128
f 149 132 133 131
f 149 148 147 132
f 147 150 134 132
f 134 151 133 132
f 150 137 135 134
f 137 141 140 136
f 150 146 141 137
f 139 145 163 138
f 143 142 139 138
f 141 146 145 139
f 142 140 141 139
f 150 147 164 146
f 149 166 165 148
f 172 173 174 171
f 174 175 176 171
f 180 179 174 173
f 179 178 175 174
f 182 191 195 181
f 183 192 191 182
f 184 193 192 183
f 185 194 193 184
f 186 190 194 185
f 187 189 190 186
f 188 177 189 187
f 89 161 177 188
f 200 201 197 199
f 198 196 197 201
