# https://github.com/mikedh/trimesh
v -0.36108801 0.31032401 -0.26901901
v -0.36483250 0.30827826 -0.26664400
v -0.31089600 0.30709525 -0.23390000
v -0.26867801 0.23011200 -0.15622699
v -0.26627600 0.23381450 -0.15374750
v -0.32166600 0.30795699 -0.24702300
v -0.26212400 0.19000600 -0.17206000
v -0.26099301 0.20428050 -0.16579249
v -0.26505938 0.21163213 -0.16510800
v -0.25221500 0.25422999 -0.14513300
v -0.25697001 0.24827449 -0.14718750
v -0.24156500 0.26386601 -0.14513300
v -0.30970299 0.29732201 -0.23135801
v -0.31414837 0.28827575 -0.23463075
v -0.23871000 0.26928699 -0.14191400
v -0.23667499 0.27528900 -0.13946800
v -0.21629075 0.39705277 -0.15819987
v -0.20048281 0.36789433 -0.13986148
v -0.20513439 0.37435407 -0.13987034
v -0.22646974 0.40602686 -0.14354082
v -0.22750136 0.41283527 -0.15798183
v -0.22210513 0.39636582 -0.13456127
v -0.20322241 0.37659266 -0.15340842
v -0.19653750 0.37121851 -0.16022151
v -0.19726700 0.36881599 -0.15309900
v -0.20303001 0.36925200 -0.13497700
v -0.20981235 0.37520351 -0.12710218
v -0.19792999 0.36511299 -0.14133801
v -0.19360501 0.36149400 -0.14593200
v -0.21857755 0.40475068 -0.16660212
v -0.24419313 0.43415805 -0.16085360
v -0.22794111 0.41714076 -0.16636040
v -0.23485168 0.41934013 -0.14977417
v -0.19838500 0.38716900 -0.18173000
v -0.22419084 0.41548726 -0.17176181
v -0.20860158 0.40153320 -0.18239659
v -0.22203146 0.42193423 -0.18669610
v -0.24158804 0.43235508 -0.16380738
v -0.20570451 0.40268250 -0.19097050
v -0.20027100 0.39300299 -0.18673401
v -0.20280004 0.38035614 -0.16237780
v -0.21342168 0.41201225 -0.18906675
v -0.21374549 0.41628763 -0.19835374
v -0.20370200 0.40295100 -0.19730900
v -0.22237834 0.42603601 -0.19527585
v -0.24591427 0.43725405 -0.16381779
v -0.20630960 0.40813806 -0.20254688
v -0.23476627 0.43502895 -0.18395668
v -0.19325300 0.38960901 -0.19953001
v -0.19154400 0.38974401 -0.21128500
v -0.22962803 0.43279320 -0.19221126
v -0.24295670 0.44175189 -0.18081905
v -0.23883442 0.44053535 -0.18755175
v -0.20735300 0.36704701 -0.12159800
v -0.23216091 0.43588867 -0.19336987
v -0.24956045 0.44743862 -0.18065517
v -0.22349915 0.42860572 -0.20338974
v -0.20141156 0.40268243 -0.20732111
v -0.25519632 0.45226841 -0.18028863
v -0.22659152 0.43178799 -0.20333853
v -0.25248100 0.45219193 -0.18717464
v -0.22950021 0.43437915 -0.20074973
v -0.24213023 0.44482514 -0.19293467
v -0.23078296 0.41109558 -0.14263899
v -0.20577541 0.40830213 -0.20814349
v -0.21416722 0.41848093 -0.20882845
v -0.24330424 0.44621776 -0.19580708
v -0.26079422 0.45803333 -0.18592613
v -0.19180816 0.39030495 -0.21576424
v -0.17723675 0.37094850 -0.21887650
v -0.21128348 0.41534459 -0.21110874
v -0.19859900 0.39918900 -0.21601000
v -0.20635900 0.36256200 -0.11872200
v -0.21588508 0.38199897 -0.12518163
v -0.23259479 0.43687086 -0.21237797
v -0.17389500 0.36558351 -0.22840650
v -0.20354639 0.40553805 -0.21476961
v -0.23290226 0.43769696 -0.20308014
v -0.24671518 0.44901901 -0.19673679
v -0.26028957 0.45833135 -0.19032549
v -0.18311152 0.37848586 -0.22299511
v -0.24334378 0.43106850 -0.15707369
v -0.16764501 0.35606101 -0.23490700
v -0.20793945 0.41057460 -0.21835391
v -0.21026721 0.41232803 -0.22084135
v -0.22268886 0.42733729 -0.21398946
v -0.18643487 0.38174259 -0.22912909
v -0.16779550 0.35405449 -0.24197550
v -0.19075270 0.38703367 -0.22944093
v -0.20914835 0.36621671 -0.11783661
v -0.27188056 0.46326666 -0.18174964
v -0.25564322 0.44385858 -0.16543635
v -0.25830387 0.44727362 -0.16750149
v -0.26926258 0.46323395 -0.19099990
v -0.24542924 0.42855530 -0.15281225
v -0.27027301 0.46237675 -0.17341486
v -0.26290803 0.45541069 -0.16082623
v -0.26124534 0.45320536 -0.15694911
v -0.25419757 0.44424998 -0.14892829
v -0.25607062 0.44688547 -0.15167216
v -0.24106639 0.42586818 -0.13498885
v -0.24913764 0.43726252 -0.14221914
v -0.24425267 0.43137173 -0.13809804
v -0.23289471 0.40791175 -0.12233848
v -0.22778314 0.39022202 -0.10903394
v -0.25506043 0.44604191 -0.15431507
v -0.22822194 0.39828447 -0.11941144
v -0.23639404 0.41792950 -0.13326233
v -0.23028542 0.40417597 -0.12636723
v -0.23760639 0.41673970 -0.12603802
v -0.24546791 0.43333606 -0.14341837
v -0.22345945 0.38478266 -0.11203322
v -0.24719406 0.43202651 -0.13415288
v -0.25996906 0.45195143 -0.16222582
v -0.22492485 0.38405491 -0.10770862
v -0.26272954 0.45308057 -0.15269521
v -0.26894208 0.46123238 -0.16825775
v -0.26607949 0.45863351 -0.16226153
v -0.23912330 0.41903781 -0.12666927
v -0.27483138 0.46592114 -0.17490588
v -0.21601025 0.35875213 -0.10349527
v -0.21965533 0.36596779 -0.10119072
v -0.21846254 0.36910566 -0.10838696
v -0.25483105 0.44124724 -0.14191737
v -0.22702130 0.39522243 -0.12352642
v -0.24190087 0.42174740 -0.12683862
v -0.21438436 0.34386327 -0.09547843
v -0.22169827 0.38011125 -0.11278835
v -0.23674848 0.41743214 -0.13686210
v -0.25523062 0.44521685 -0.15980518
v -0.21330695 0.33857103 -0.09507736
v -0.27112728 0.46219964 -0.16509742
v -0.27474231 0.46582062 -0.18454401
v -0.26952434 0.45906725 -0.15782137
v -0.23984017 0.41965947 -0.14669951
v -0.23732251 0.41768550 -0.14583350
v -0.21614850 0.34391750 -0.09330150
v -0.22476100 0.39979638 -0.13497942
v -0.22245462 0.36776000 -0.09945938
v -0.21265765 0.33984198 -0.09933064
v -0.21404213 0.34866716 -0.10082509
v -0.24206309 0.42692919 -0.14267933
v -0.21475200 0.33748901 -0.09213300
v -0.20600150 0.35381351 -0.11275450
v -0.22462678 0.38908675 -0.11927275
v -0.26311477 0.45345290 -0.17337841
v -0.24003975 0.44295873 -0.20941208
v -0.21207634 0.32038877 -0.09018503
v -0.21101715 0.41150437 -0.22592326
v -0.22446288 0.39617488 -0.13214075
v -0.23247450 0.39546813 -0.10968463
v -0.21846700 0.31165299 -0.08106300
v -0.21118895 0.32311340 -0.09402687
v -0.21383400 0.32916301 -0.09029500
v -0.21019900 0.29946101 -0.08579100
v -0.21033191 0.30637352 -0.08792082
v -0.21231502 0.33618825 -0.09782511
v -0.21659591 0.36090727 -0.10734498
v -0.20763299 0.30380350 -0.09483400
v -0.20972796 0.30844477 -0.09531534
v -0.21013901 0.31486699 -0.09765600
v -0.20890050 0.36088175 -0.11479150
v -0.23953284 0.41523507 -0.12153997
v -0.25252097 0.43903044 -0.16071063
v -0.22594785 0.38812820 -0.12510515
v -0.22358840 0.38167277 -0.12200096
v -0.22099000 0.37603700 -0.11967400
v -0.21682200 0.35938150 -0.11174600
v -0.21918601 0.36739317 -0.11490538
v -0.21610092 0.35548417 -0.10989540
v -0.19302501 0.38779019 -0.23509344
v -0.21133850 0.32999175 -0.10190425
v -0.24976119 0.43505044 -0.15821779
v -0.25783738 0.45274887 -0.17655101
v -0.24811470 0.43257417 -0.15562515
v -0.27637100 0.46672100 -0.17970701
v -0.21243100 0.33710225 -0.10389500
v -0.21384700 0.34389400 -0.10597500
v -0.19548965 0.39242345 -0.23018359
v -0.16970499 0.35473600 -0.24603800
v -0.24229213 0.41642650 -0.12130300
v -0.21198049 0.37026850 -0.11897050
v -0.20418806 0.40100241 -0.23297575
v -0.19630344 0.39188227 -0.23375965
v -0.24744494 0.44964917 -0.20130109
v -0.25721956 0.45583850 -0.20144471
v -0.22696319 0.42978244 -0.21901078
v -0.26480281 0.46066155 -0.19786155
v -0.18834349 0.37550451 -0.24726850
v -0.17388203 0.36122691 -0.24317549
v -0.21876870 0.41927997 -0.22605871
v -0.21401936 0.41091042 -0.23353078
v -0.24460616 0.44501197 -0.21468673
v -0.26529125 0.45276554 -0.14994824
v -0.23157143 0.43197182 -0.22348824
v -0.19887675 0.38804624 -0.24541468
v -0.25703378 0.45464539 -0.20717798
v -0.27592434 0.46584304 -0.17156854
v -0.27037999 0.46338095 -0.19655219
v -0.25358051 0.43636650 -0.13658600
v -0.19636171 0.38911290 -0.23977402
v -0.27383559 0.46219416 -0.16142044
v -0.25078259 0.44813729 -0.21613320
v -0.22798916 0.42705206 -0.22769319
v -0.24135099 0.43810201 -0.22503400
v -0.22769301 0.42305300 -0.23325101
v -0.21702100 0.40900049 -0.24012850
v -0.19944701 0.38534600 -0.24968401
v -0.20558800 0.39329299 -0.24720800
v -0.25787250 0.45344800 -0.21171101
v -0.26515551 0.45922750 -0.20409500
v -0.27940119 0.46812516 -0.17877074
v -0.20376600 0.38975701 -0.24946500
v -0.25390100 0.44949999 -0.21661299
v -0.26821700 0.45401299 -0.15082499
v -0.27631801 0.46522400 -0.19569500
v -0.26237813 0.45623025 -0.20876875
v -0.27828899 0.46645400 -0.19290701
v -0.27882001 0.46489999 -0.16697800
v -0.28112501 0.46656001 -0.17154101
v -0.28033000 0.46750599 -0.18974701
v -0.28161699 0.46801225 -0.18636600
v -0.27374899 0.45879999 -0.15614700
v -0.28296801 0.46804349 -0.17855451
v -0.28158550 0.46728051 -0.17419250
v -0.31563372 0.41560791 -0.26040004
v -0.32471099 0.41787699 -0.25632101
v -0.32125957 0.41347775 -0.26015596
v -0.33171686 0.40555822 -0.26060407
v -0.33106638 0.41864888 -0.25374821
v -0.31236084 0.40288202 -0.26766990
v -0.32286024 0.39776859 -0.26696636
v -0.33182209 0.39609830 -0.26470007
v -0.30359218 0.41479885 -0.26300015
v -0.31970607 0.39461894 -0.26928158
v -0.30606873 0.39888619 -0.27021069
v -0.34133160 0.39532505 -0.26106843
v -0.34980006 0.36380985 -0.26724264
v -0.34705851 0.37746018 -0.26452103
v -0.32142328 0.37507899 -0.27433308
v -0.31328586 0.38355724 -0.27409593
v -0.30390456 0.39663603 -0.27155713
v -0.32717991 0.38176069 -0.27108347
v -0.30990514 0.38102841 -0.27541249
v -0.33057135 0.38142618 -0.27010060
v -0.33809235 0.36687366 -0.27123247
v -0.34517527 0.33680014 -0.27399552
v -0.34290929 0.35321173 -0.27226026
v -0.32397024 0.36438576 -0.27600935
v -0.34751539 0.35933193 -0.26910400
v -0.29449299 0.38675350 -0.27589600
v -0.34892922 0.35433081 -0.26962047
v -0.35058072 0.38587481 -0.25969846
v -0.31971300 0.36678150 -0.27652400
v -0.33412200 0.34993300 -0.27558801
v -0.34599953 0.39607726 -0.25821518
v -0.33690700 0.34202299 -0.27586001
v -0.35414081 0.33893278 -0.27024672
v -0.29786301 0.38690799 -0.27551401
v -0.29479501 0.39292100 -0.27377900
v -0.34050051 0.33526000 -0.27552649
v -0.35901273 0.33059564 -0.26902510
v -0.36276539 0.31847873 -0.26808694
v -0.34547700 0.32770550 -0.27454051
v -0.36120291 0.32925528 -0.26811021
v -0.35567354 0.32079199 -0.27128749
v -0.35880548 0.35403607 -0.26438424
v -0.29264900 0.39826199 -0.27185899
v -0.34191059 0.40668415 -0.25554750
v -0.35490458 0.37797727 -0.25988930
v -0.29264900 0.40225801 -0.27015001
v -0.33903202 0.41337976 -0.25334679
v -0.34826557 0.40321553 -0.25351701
v -0.34365681 0.41709205 -0.24804222
v -0.34818581 0.40868766 -0.25050245
v -0.35860801 0.36147100 -0.26226100
v -0.36090550 0.34503301 -0.26478350
v -0.35762101 0.37110499 -0.25988999
v -0.29722688 0.41165856 -0.26525609
v -0.28589807 0.40400466 -0.26950860
v -0.32377553 0.42627589 -0.25094506
v -0.30693999 0.42231899 -0.25762400
v -0.31592829 0.42107948 -0.25705310
v -0.28527300 0.40145449 -0.27067000
v -0.30630898 0.42786270 -0.25377474
v -0.29552860 0.40656051 -0.26817007
v -0.33575765 0.42576581 -0.24621059
v -0.28597660 0.41110443 -0.26579155
v -0.29397674 0.42296720 -0.25822119
v -0.32071522 0.43131289 -0.24793559
v -0.33028711 0.42689647 -0.24806612
v -0.26948894 0.40755045 -0.26663498
v -0.31283555 0.43291183 -0.24862441
v -0.30079045 0.42792771 -0.25426328
v -0.28232334 0.41840597 -0.26108988
v -0.27863411 0.41329721 -0.26430689
v -0.29913339 0.43376968 -0.24952096
v -0.26080610 0.41242879 -0.26198398
v -0.27777643 0.42679907 -0.25431464
v -0.30894074 0.44034915 -0.24216305
v -0.32368022 0.43679893 -0.24159778
v -0.26681963 0.40472713 -0.26754650
v -0.33150022 0.43351884 -0.24162826
v -0.28253759 0.43269503 -0.24978086
v -0.28913572 0.43533775 -0.24788709
v -0.25238499 0.41083199 -0.26071900
v -0.24702976 0.40826420 -0.26093393
v -0.25836270 0.41920242 -0.25640282
v -0.27012415 0.42324073 -0.25609701
v -0.27865084 0.42997859 -0.25173779
v -0.29475264 0.44139468 -0.24206521
v -0.31705057 0.43794208 -0.24274137
v -0.30232999 0.44223401 -0.24063800
v -0.34263949 0.42579955 -0.24188176
v -0.26259631 0.42837431 -0.24967454
v -0.27750476 0.44066825 -0.24090343
v -0.24243625 0.40066150 -0.26436426
v -0.22528149 0.39282949 -0.26287600
v -0.23554300 0.40244463 -0.26060693
v -0.25282850 0.42711673 -0.24716175
v -0.31763408 0.44334335 -0.23639094
v -0.34232819 0.43013101 -0.23549219
v -0.28973570 0.44545478 -0.23730710
v -0.26800297 0.43285511 -0.24693889
v -0.24301542 0.41273081 -0.25593470
v -0.33340161 0.43889706 -0.23415080
v -0.35305749 0.40026000 -0.25060575
v -0.30481439 0.44476490 -0.23760668
v -0.32152757 0.44499472 -0.23291225
v -0.31027153 0.44788882 -0.23256440
v -0.27009228 0.43589173 -0.24457221
v -0.30287961 0.45200164 -0.22779264
v -0.24783299 0.42137639 -0.25049684
v -0.25544801 0.43390799 -0.24106300
v -0.32740447 0.44119259 -0.23496531
v -0.23075926 0.40797441 -0.25325646
v -0.25493169 0.43117785 -0.24416177
v -0.26396423 0.44308384 -0.23413248
v -0.29495400 0.45265201 -0.22723401
v -0.27822063 0.44982075 -0.22984398
v -0.28047593 0.45110123 -0.22814168
v -0.29027548 0.45388140 -0.22522019
v -0.21799008 0.39447017 -0.25727976
v -0.25923032 0.44347663 -0.23116992
v -0.23997968 0.42051817 -0.24709648
v -0.28571766 0.45263712 -0.22679311
v -0.33656548 0.43696896 -0.23452943
v -0.21091200 0.38880801 -0.25726199
v -0.24924663 0.43734267 -0.23356250
v -0.26430081 0.44902915 -0.22589818
v -0.30464876 0.45769277 -0.21645050
v -0.21418684 0.39710780 -0.25171798
v -0.24634085 0.43452061 -0.23504798
v -0.24198017 0.42868634 -0.23933775
v -0.25438336 0.44414895 -0.22706782
v -0.23195094 0.41818818 -0.24382598
v -0.29817528 0.45599337 -0.22129628
v -0.20915700 0.39196500 -0.25259301
v -0.31951199 0.44981897 -0.22611672
v -0.26998299 0.45463401 -0.21847101
v -0.27817624 0.45717820 -0.21719180
v -0.21368218 0.40115115 -0.24670193
v -0.31203210 0.45285657 -0.22385584
v -0.28752737 0.46112612 -0.21036196
v -0.22928278 0.41978780 -0.23968061
v -0.32419409 0.45000965 -0.22283752
v -0.23600643 0.42945925 -0.23316965
v -0.24844524 0.44242940 -0.22501202
v -0.24122491 0.43461867 -0.23070952
v -0.29221660 0.45766645 -0.21855372
v -0.26123599 0.45084942 -0.22082861
v -0.26574200 0.45763424 -0.20941174
v -0.28152000 0.46200637 -0.20746025
v -0.28954195 0.46552959 -0.19802327
v -0.27845531 0.46374832 -0.20305143
v -0.28366833 0.46684330 -0.19431823
v -0.30204040 0.45885455 -0.21426622
v -0.29456372 0.46211077 -0.20724888
v -0.32051467 0.45625974 -0.21027885
v -0.33038776 0.44649074 -0.22521024
v -0.31462792 0.45795625 -0.21030105
v -0.31081969 0.45870467 -0.21150092
v -0.29190476 0.46591225 -0.19573524
v -0.32929501 0.44977400 -0.21774299
v -0.31211417 0.46017577 -0.20439653
v -0.33449410 0.44454605 -0.22441211
v -0.28724301 0.46750599 -0.18995500
v -0.31620800 0.45905000 -0.20367800
v -0.33919001 0.43984401 -0.22667500
v -0.30817801 0.46190599 -0.19966900
v -0.29622051 0.46554975 -0.19296299
v -0.32096350 0.45646751 -0.20746950
v -0.32442950 0.45410376 -0.21022025
v -0.22926582 0.33096750 -0.12793650
v -0.23124190 0.34919312 -0.13240209
v -0.23436124 0.36232709 -0.13787890
v -0.22956976 0.29995972 -0.12768881
v -0.22953668 0.33643807 -0.12853135
v -0.22989050 0.33963265 -0.13007503
v -0.23323691 0.28323029 -0.13375689
v -0.23009858 0.29717436 -0.12882804
v -0.23818784 0.37402492 -0.14436765
v -0.23092385 0.29322399 -0.13015129
v -0.22869316 0.30886391 -0.12617759
v -0.28678687 0.41783876 -0.20065438
v -0.29065201 0.41455400 -0.20594400
v -0.27939640 0.41208857 -0.18548984
v -0.26468451 0.41286682 -0.16536359
v -0.27923200 0.42054099 -0.19083799
v -0.26743600 0.42066699 -0.17339900
v -0.27053401 0.42099300 -0.17832699
v -0.24695101 0.40066819 -0.13842661
v -0.25091800 0.40897775 -0.14634626
v -0.26038535 0.41705639 -0.16316465
v -0.25852209 0.41140910 -0.15679631
v -0.25547699 0.41426450 -0.15503500
v -0.30542883 0.39778785 -0.22501118
v -0.30928051 0.39087500 -0.23015100
v -0.24976149 0.40713100 -0.14421100
v -0.30140356 0.40386277 -0.21981011
v -0.29479664 0.41170643 -0.21154383
v -0.29309300 0.41405600 -0.20922300
v -0.31261887 0.38142713 -0.23448988
v -0.25962805 0.40451775 -0.15604130
v -0.25249168 0.39332177 -0.14401779
v -0.24581404 0.38474631 -0.13163064
v -0.24395456 0.37026972 -0.12766537
v -0.23930868 0.36161213 -0.11914478
v -0.23494700 0.31032401 -0.10976300
v -0.24018127 0.34986637 -0.12092286
v -0.24213301 0.36449000 -0.12443300
v -0.23512501 0.30686599 -0.11027500
v -0.23739579 0.29907334 -0.11656103
v -0.23928956 0.34375024 -0.11939454
v -0.24153225 0.35831012 -0.12386562
v -0.23364161 0.32790196 -0.10823889
v -0.23625235 0.34141460 -0.11247020
v -0.23663813 0.35462698 -0.11404058
v -0.23289099 0.31378099 -0.10670500
v -0.23268200 0.31908199 -0.10641000
v -0.23438801 0.33750850 -0.10915650
v -0.23516398 0.34336151 -0.11098198
v -0.23742850 0.29501669 -0.11569606
v -0.23709263 0.32528406 -0.11371411
v -0.25085393 0.39357275 -0.14082728
v -0.23791875 0.36599950 -0.11788750
v -0.29775477 0.40392037 -0.21115253
v -0.30625579 0.38950510 -0.22250276
v -0.30301244 0.38994886 -0.21782800
v -0.31162366 0.37714574 -0.22984715
v -0.31471208 0.36508348 -0.23419446
v -0.31675993 0.35413113 -0.23731537
v -0.31821999 0.34708801 -0.23979799
v -0.29190361 0.40387039 -0.20299714
v -0.31780450 0.33577379 -0.23918042
v -0.32157612 0.33072209 -0.24743422
v -0.26111167 0.40688848 -0.15860612
v -0.32038599 0.34674200 -0.24544001
v -0.23950890 0.37308864 -0.12157440
v -0.28757639 0.41265136 -0.19832080
v -0.31956601 0.33674401 -0.24241900
v -0.24059350 0.37993300 -0.12392700
v -0.24252075 0.38777924 -0.12824425
v -0.31984201 0.35320300 -0.24424700
v -0.31551470 0.29566728 -0.23569349
v -0.24329600 0.39105600 -0.12997399
v -0.31055399 0.37292727 -0.22804064
v -0.32173935 0.31780251 -0.24773659
v -0.32166001 0.33941400 -0.24701899
v -0.31230415 0.34514718 -0.23362121
v -0.23514700 0.29238801 -0.11283750
v -0.24318963 0.26963297 -0.12710503
v -0.24587557 0.26216990 -0.13132043
v -0.25007321 0.25641590 -0.13702832
v -0.25481219 0.25125166 -0.14398527
v -0.24253801 0.26679599 -0.12697300
v -0.23514050 0.28382500 -0.11500750
v -0.24024619 0.27784940 -0.12202138
v -0.23410625 0.26057250 -0.12063875
v -0.23844034 0.28776749 -0.11859040
v -0.23452875 0.26765374 -0.11902275
v -0.25798706 0.24309687 -0.14604050
v -0.24340324 0.36764864 -0.12897516
v -0.23613771 0.25594305 -0.12482472
v -0.23709432 0.21626919 -0.13780843
v -0.24126543 0.23462588 -0.13883694
v -0.23508701 0.24803901 -0.12584201
v -0.23217499 0.21714500 -0.12860150
v -0.23455299 0.22374100 -0.13178500
v -0.23922785 0.18752384 -0.14494061
v -0.24239253 0.19370753 -0.14875651
v -0.23860499 0.17387100 -0.14391001
v -0.23451450 0.18124700 -0.13737400
v -0.23524895 0.20285536 -0.13723670
v -0.23363250 0.21172851 -0.13282150
v -0.24833152 0.18228824 -0.15693447
v -0.24175288 0.20945540 -0.14550759
v -0.24619669 0.19247806 -0.15406059
v -0.23334649 0.19834028 -0.13452293
v -0.24309125 0.17734125 -0.15020600
v -0.25684496 0.18933232 -0.16611962
v -0.23040800 0.20671600 -0.12717301
v -0.22999500 0.18137049 -0.12771525
v -0.22977145 0.18921295 -0.12805074
v -0.24883487 0.21288612 -0.15280733
v -0.26367419 0.40464732 -0.16397240
v -0.25297925 0.20775856 -0.15805845
v -0.22913000 0.19369400 -0.12484900
v -0.22937500 0.19945100 -0.12506101
v -0.29349973 0.39868654 -0.20590886
v -0.28643036 0.40255954 -0.19695174
v -0.22901399 0.18862300 -0.12484900
v -0.24831716 0.38342264 -0.13973520
v -0.29696297 0.39207887 -0.21112277
v -0.25830559 0.21690511 -0.15915935
v -0.25431738 0.21710606 -0.15604726
v -0.27268671 0.40858465 -0.17636958
v -0.23020799 0.21233900 -0.12540501
v -0.31858386 0.31567436 -0.24022304
v -0.28802204 0.40691851 -0.19713534
v -0.24873916 0.26074978 -0.13690673
v -0.25175171 0.25606524 -0.14131126
v -0.24505972 0.26815263 -0.13290130
v -0.28279926 0.40205924 -0.19369625
v -0.24235139 0.23869857 -0.13872347
v -0.23811465 0.33485437 -0.11628730
v -0.23651160 0.31568832 -0.11811857
v -0.25498982 0.39448125 -0.15423731
v -0.27292401 0.40587899 -0.17865500
v -0.31420869 0.32983702 -0.23627382
v -0.30779007 0.36878681 -0.22615640
v -0.24130168 0.27759384 -0.12489422
v -0.26659024 0.40335200 -0.17086025
v -0.24434262 0.25654221 -0.13177465
v -0.30945638 0.35465287 -0.23024451
v -0.31532763 0.31061377 -0.23683761
v -0.24910221 0.23465831 -0.14527353
v -0.24498544 0.25043299 -0.13494071
v -0.29140837 0.39370600 -0.20666962
v -0.25473622 0.24390383 -0.14326594
v -0.30481650 0.37148451 -0.22360400
v -0.31170025 0.33383000 -0.23462426
v -0.31178049 0.31867899 -0.23547150
v -0.26123899 0.22372900 -0.15700200
v -0.24002678 0.28082354 -0.12625851
v -0.24270458 0.27360696 -0.12968453
v -0.23759254 0.28478431 -0.12613323
v -0.24690667 0.26389611 -0.13627004
v -0.24532615 0.26631077 -0.13042134
v -0.23380580 0.35983284 -0.13564611
v -0.23292518 0.35693351 -0.13524282
v -0.24205013 0.36253380 -0.12715767
v -0.23704286 0.37162637 -0.14194993
v -0.24172555 0.37700039 -0.14110278
v -0.23586480 0.36778337 -0.14053938
v -0.23209899 0.35222337 -0.13301426
v -0.23076973 0.34607088 -0.13144297
v -0.23306756 0.34846201 -0.12958078
v -0.23566386 0.33630644 -0.12265004
v -0.22846059 0.32653773 -0.12732589
v -0.23715039 0.32906695 -0.11914767
v -0.22915226 0.32302904 -0.12580736
v -0.23592614 0.31065291 -0.11890625
v -0.24645532 0.37780498 -0.13434637
v -0.23985438 0.37826367 -0.14742571
v -0.23917938 0.37639108 -0.14538030
v -0.23652088 0.30073568 -0.11990345
v -0.24768600 0.38200599 -0.13706200
v -0.25100647 0.38891413 -0.14426682
v -0.24150865 0.38160515 -0.14942272
v -0.24476725 0.38567575 -0.15225674
v -0.23036377 0.21675121 -0.12340902
v -0.22962224 0.22559050 -0.12038925
v -0.28539295 0.39862119 -0.19903914
v -0.32248399 0.45322999 -0.20109600
v -0.23937600 0.38496449 -0.10296600
v -0.23668900 0.37780100 -0.09930300
v -0.25179750 0.41831900 -0.12484250
v -0.24350684 0.39082912 -0.10742953
v -0.24563301 0.40184000 -0.11308900
v -0.25290751 0.42163200 -0.12721275
v -0.25959501 0.42805800 -0.13792400
v -0.31860825 0.45743575 -0.19979425
v -0.30690775 0.46238250 -0.19157749
v -0.28210525 0.46510725 -0.16836325
v -0.29488799 0.46565199 -0.18074900
v -0.28649225 0.46588225 -0.17239475
v -0.26493250 0.42215749 -0.15594199
v -0.22696849 0.35639000 -0.09146100
v -0.22972450 0.35784800 -0.09170850
v -0.23414049 0.37224850 -0.09679500
v -0.21883725 0.32000801 -0.08388350
v -0.22246100 0.33865850 -0.08727300
v -0.33806200 0.44193900 -0.22234850
v -0.33214501 0.44787601 -0.21427301
v -0.26108399 0.43087250 -0.13957350
v -0.26546749 0.43234050 -0.14632051
v -0.31484086 0.45996431 -0.20030192
v -0.29057010 0.46752309 -0.18578324
v -0.28531026 0.46834690 -0.18265052
v -0.29504107 0.46636954 -0.18484506
v -0.22396600 0.32163900 -0.08354600
v -0.22119600 0.31394801 -0.08119500
v -0.22652017 0.34547745 -0.08804923
v -0.22404879 0.32471208 -0.08401572
v -0.22926500 0.33936900 -0.08731100
v -0.22644699 0.31293150 -0.08280250
v -0.23035517 0.34491606 -0.08854602
v -0.23016000 0.34858200 -0.08927200
v -0.23355131 0.35863058 -0.09251435
v -0.23668158 0.36208278 -0.09499604
v -0.23042811 0.31579844 -0.08477407
v -0.23419381 0.33203154 -0.08886394
v -0.23407998 0.34016494 -0.08923549
v -0.23371244 0.31770824 -0.08761195
v -0.23707002 0.34290443 -0.09234808
v -0.24129900 0.37887001 -0.10266800
v -0.23825434 0.37255484 -0.09835024
v -0.24457550 0.37675787 -0.10733461
v -0.24043971 0.36421222 -0.09949840
v -0.25105865 0.40706342 -0.12104182
v -0.24706921 0.38954745 -0.11270329
v -0.25408891 0.41573042 -0.12725188
v -0.23212450 0.31039874 -0.08995775
v -0.22941150 0.31002400 -0.08543700
v -0.24355325 0.37121755 -0.10986770
v -0.24150018 0.35816603 -0.10433748
v -0.24902328 0.39511803 -0.11985935
v -0.23986178 0.34637311 -0.09699295
v -0.23734507 0.32609639 -0.09177103
v -0.24942560 0.40024616 -0.11773055
v -0.25602639 0.41399149 -0.13615471
v -0.23843943 0.33476452 -0.09398743
v -0.25764772 0.42435775 -0.13454446
v -0.25240343 0.40759171 -0.12481150
v -0.25912178 0.41855606 -0.14337455
v -0.26421964 0.42558815 -0.14913095
v -0.25521470 0.41355914 -0.13247961
v -0.23559332 0.31654154 -0.09117223
v -0.23775592 0.36077711 -0.11360983
v -0.24247743 0.37009703 -0.11211083
v -0.24113500 0.35931200 -0.10685700
v -0.24704222 0.39717508 -0.12993953
v -0.23419032 0.31410395 -0.09628371
v -0.23903407 0.33219268 -0.09723067
v -0.23187325 0.31233725 -0.10062300
v -0.23783676 0.32320361 -0.09556606
v -0.23090400 0.30847999 -0.09857300
v -0.23213069 0.30984455 -0.09568235
v -0.25127848 0.40731989 -0.13704592
v -0.24999064 0.40650697 -0.13944567
v -0.22044700 0.30832360 -0.08063719
v -0.22310025 0.30384725 -0.08252575
v -0.21602725 0.29669700 -0.08196375
v -0.21421322 0.30022886 -0.08221940
v -0.21709642 0.30753949 -0.08110344
v -0.21188638 0.29578881 -0.08324540
v -0.21251801 0.29319900 -0.08204400
v -0.22780072 0.24022586 -0.11351169
v -0.22901072 0.28263638 -0.10483809
v -0.23022849 0.22932002 -0.12233524
v -0.22561606 0.25622427 -0.10319118
v -0.21175151 0.24798295 -0.08641524
v -0.22955537 0.29839227 -0.10170714
v -0.23270160 0.26379997 -0.11752433
v -0.23133565 0.29994770 -0.10529147
v -0.22879963 0.23261000 -0.11665150
v -0.22302698 0.29269013 -0.08653823
v -0.22944792 0.30378851 -0.09882951
v -0.23092284 0.30942505 -0.10254432
v -0.22574676 0.29946149 -0.08783964
v -0.22750650 0.24133400 -0.11072800
v -0.22749700 0.30075601 -0.09165800
v -0.22905485 0.30620747 -0.08748888
v -0.22295168 0.29995135 -0.08368238
v -0.22767203 0.30002724 -0.09481767
f 263 1 2
f 263 266 1
f 263 262 266
f 258 266 262
f 247 266 258
f 264 266 247
f 261 264 247
f 257 261 247
f 255 257 247
f 255 247 248
f 246 255 248
f 249 255 246
f 254 255 249
f 240 254 249
f 241 254 240
f 244 254 241
f 242 244 241
f 259 244 242
f 251 259 242
f 260 251 242
f 268 260 242
f 271 268 242
f 271 242 286
f 286 284 271
f 280 284 286
f 286 296 280
f 288 296 286
f 296 288 289
f 295 296 289
f 296 295 309
f 298 296 309
f 308 298 309
f 308 309 315
f 315 309 324
f 337 315 324
f 337 324 331
f 337 331 338
f 338 334 337
f 349 334 338
f 349 338 344
f 355 349 344
f 368 349 355
f 368 355 371
f 205 368 371
f 205 371 214
f 214 371 217
f 217 371 372
f 371 375 372
f 375 371 360
f 360 361 375
f 375 361 373
f 375 373 376
f 221 375 376
f 222 221 376
f 222 376 387
f 376 383 387
f 387 383 385
f 383 382 385
f 382 381 385
f 385 381 379
f 385 379 392
f 392 379 384
f 379 380 384
f 384 380 386
f 380 347 386
f 347 322 386
f 347 314 322
f 347 303 314
f 335 303 347
f 335 347 326
f 335 326 380
f 329 335 380
f 359 329 380
f 366 359 380
f 382 359 366
f 379 382 366
f 382 363 359
f 351 363 382
f 377 351 382
f 378 377 382
f 374 378 382
f 370 378 374
f 376 370 374
f 376 364 370
f 373 370 364
f 378 370 377
f 370 357 377
f 370 332 357
f 339 332 370
f 342 339 370
f 370 361 342
f 361 346 342
f 361 341 346
f 361 340 341
f 350 340 361
f 371 350 361
f 350 338 340
f 341 340 323
f 340 316 323
f 331 316 340
f 331 323 316
f 331 304 323
f 331 310 304
f 331 299 310
f 309 299 331
f 299 309 289
f 310 299 289
f 310 289 304
f 304 289 305
f 305 289 311
f 323 305 311
f 323 311 328
f 323 328 332
f 332 328 330
f 363 332 330
f 328 300 330
f 330 300 321
f 330 321 329
f 321 312 329
f 312 301 329
f 301 312 303
f 312 290 303
f 312 293 290
f 300 293 312
f 297 293 300
f 311 297 300
f 311 300 313
f 285 293 297
f 297 294 285
f 297 289 294
f 289 234 294
f 289 279 234
f 289 286 279
f 279 286 234
f 286 231 234
f 231 286 236
f 231 236 235
f 235 236 242
f 231 235 232
f 232 235 245
f 235 243 245
f 243 246 245
f 245 246 238
f 246 250 238
f 250 252 238
f 250 248 252
f 248 258 252
f 252 258 238
f 258 265 238
f 267 238 265
f 267 265 277
f 276 267 277
f 267 276 270
f 278 270 276
f 327 270 278
f 327 273 270
f 273 327 275
f 275 327 322
f 274 273 275
f 314 274 275
f 272 274 314
f 314 287 272
f 287 230 272
f 291 230 287
f 291 287 303
f 290 230 291
f 290 281 230
f 290 283 281
f 281 283 230
f 283 227 230
f 228 227 283
f 283 226 228
f 283 234 226
f 282 234 283
f 285 282 283
f 285 234 282
f 226 231 228
f 227 228 230
f 228 229 230
f 229 228 233
f 233 237 229
f 233 239 237
f 237 239 253
f 239 270 253
f 239 238 270
f 237 253 256
f 256 253 273
f 237 256 273
f 269 237 273
f 233 238 239
f 229 237 269
f 272 229 269
f 228 232 233
f 229 272 230
f 272 269 274
f 274 269 273
f 273 253 270
f 277 265 2
f 265 263 2
f 238 267 270
f 233 245 238
f 240 246 243
f 235 241 243
f 233 232 245
f 231 232 228
f 226 234 231
f 294 234 285
f 285 283 293
f 293 283 290
f 290 291 303
f 321 300 312
f 313 300 328
f 311 313 328
f 289 297 311
f 323 304 305
f 341 323 346
f 342 346 323
f 342 323 339
f 339 323 332
f 357 332 351
f 357 351 377
f 351 332 363
f 330 359 363
f 359 330 329
f 329 301 335
f 335 301 303
f 314 303 287
f 314 275 322
f 380 326 347
f 379 366 380
f 381 382 379
f 374 382 383
f 376 374 383
f 222 387 600
f 600 387 599
f 600 599 587
f 587 224 600
f 220 224 587
f 219 220 587
f 585 219 587
f 599 601 587
f 599 598 601
f 601 598 584
f 586 601 584
f 584 598 583
f 391 598 599
f 391 390 598
f 598 390 388
f 598 388 393
f 598 393 575
f 575 393 595
f 595 393 594
f 393 389 594
f 587 601 586
f 599 387 391
f 222 600 224
f 221 218 375
f 218 216 375
f 217 375 216
f 373 364 376
f 361 370 373
f 360 371 361
f 217 372 375
f 205 369 368
f 205 367 369
f 369 367 354
f 369 354 353
f 369 353 349
f 353 354 349
f 354 337 349
f 354 345 337
f 365 345 354
f 365 356 345
f 365 336 356
f 352 336 365
f 362 352 365
f 362 365 207
f 206 207 365
f 206 365 367
f 207 209 362
f 209 213 362
f 213 358 362
f 358 352 362
f 352 358 348
f 352 348 343
f 343 348 318
f 336 343 318
f 336 318 319
f 336 319 325
f 345 336 325
f 333 345 325
f 333 325 308
f 320 333 308
f 337 333 320
f 320 308 337
f 325 307 308
f 308 307 306
f 307 298 306
f 307 317 298
f 319 317 307
f 298 317 302
f 298 302 292
f 292 302 296
f 302 284 296
f 325 319 307
f 318 317 319
f 352 343 336
f 356 336 345
f 345 333 337
f 367 365 354
f 206 367 205
f 206 205 193
f 204 206 193
f 204 192 206
f 192 209 206
f 192 196 209
f 208 209 196
f 189 208 196
f 201 189 196
f 190 189 201
f 171 190 201
f 183 171 201
f 183 201 192
f 192 149 183
f 149 192 191
f 191 192 195
f 191 195 187
f 187 195 75
f 195 193 75
f 147 75 193
f 147 193 185
f 185 193 197
f 193 203 197
f 203 210 197
f 197 210 211
f 197 211 199
f 199 211 216
f 212 199 216
f 212 216 222
f 133 199 212
f 176 133 212
f 176 212 120
f 198 120 212
f 120 198 132
f 132 198 202
f 198 212 202
f 202 212 225
f 212 222 225
f 118 132 202
f 118 202 134
f 194 134 202
f 194 202 215
f 215 202 223
f 200 194 215
f 200 124 194
f 113 124 200
f 181 113 200
f 163 113 181
f 151 163 181
f 163 151 105
f 104 163 105
f 163 104 110
f 163 110 119
f 119 126 163
f 113 126 119
f 113 119 103
f 103 119 101
f 103 101 111
f 103 111 99
f 99 111 106
f 111 175 106
f 111 95 175
f 95 173 175
f 164 175 173
f 130 175 164
f 164 93 130
f 130 93 114
f 114 106 130
f 106 114 97
f 97 114 118
f 114 91 118
f 118 91 96
f 117 118 96
f 117 120 118
f 117 96 120
f 120 96 91
f 91 133 120
f 98 97 118
f 98 118 116
f 100 98 116
f 100 116 99
f 102 99 116
f 124 102 116
f 98 100 106
f 106 97 98
f 114 93 91
f 173 92 164
f 92 173 174
f 173 46 174
f 46 52 174
f 174 52 56
f 56 59 174
f 59 68 174
f 174 68 133
f 146 174 133
f 133 68 94
f 68 80 94
f 80 188 94
f 94 188 199
f 185 188 80
f 185 186 188
f 197 188 186
f 61 185 80
f 61 79 185
f 67 185 79
f 67 78 185
f 63 78 67
f 55 78 63
f 55 62 78
f 62 60 78
f 60 75 78
f 60 57 75
f 75 57 86
f 66 86 57
f 66 71 86
f 71 84 86
f 84 85 86
f 85 149 86
f 85 84 149
f 84 179 149
f 179 84 89
f 89 171 179
f 171 184 179
f 179 184 183
f 89 87 171
f 87 89 84
f 84 81 87
f 81 76 87
f 76 83 87
f 83 88 87
f 87 88 190
f 190 88 180
f 70 76 81
f 81 69 70
f 50 70 69
f 50 69 58
f 71 58 69
f 71 69 72
f 71 72 77
f 77 72 84
f 69 84 72
f 58 71 65
f 47 58 65
f 47 65 66
f 43 47 66
f 43 66 45
f 37 43 45
f 37 45 38
f 45 48 38
f 45 51 48
f 53 48 51
f 53 51 55
f 53 55 61
f 61 52 53
f 46 48 53
f 51 45 55
f 55 45 57
f 48 46 38
f 31 38 46
f 31 21 38
f 38 21 32
f 21 17 32
f 17 30 32
f 30 35 32
f 32 35 37
f 35 36 37
f 37 36 42
f 36 39 42
f 43 42 39
f 39 44 43
f 40 39 36
f 40 36 34
f 36 24 34
f 41 24 36
f 41 36 30
f 24 41 23
f 17 23 41
f 19 23 17
f 23 19 18
f 18 28 23
f 23 28 29
f 29 25 23
f 26 28 18
f 26 18 27
f 19 27 18
f 27 19 22
f 27 22 74
f 27 74 90
f 182 90 74
f 182 162 90
f 90 162 144
f 73 90 144
f 54 90 73
f 74 150 182
f 74 138 150
f 138 64 150
f 150 64 136
f 64 95 136
f 95 135 136
f 64 33 95
f 33 82 95
f 82 173 95
f 82 31 173
f 33 31 82
f 64 20 33
f 64 22 20
f 64 138 22
f 33 20 21
f 21 20 19
f 90 54 27
f 138 74 22
f 20 22 19
f 23 25 24
f 35 30 36
f 17 41 30
f 19 17 21
f 33 21 31
f 32 37 38
f 37 42 43
f 43 44 47
f 44 49 47
f 49 50 47
f 47 50 58
f 81 84 69
f 77 84 71
f 71 66 65
f 57 45 66
f 55 57 60
f 55 60 62
f 55 63 61
f 67 61 63
f 61 67 79
f 61 80 68
f 61 68 59
f 56 61 59
f 52 61 56
f 46 53 52
f 31 46 173
f 174 146 92
f 164 92 93
f 92 146 93
f 111 135 95
f 111 142 135
f 142 129 135
f 108 129 142
f 108 142 111
f 106 175 130
f 99 106 100
f 102 103 99
f 101 108 111
f 110 108 101
f 103 102 113
f 119 110 101
f 110 104 108
f 104 109 108
f 109 150 108
f 109 125 150
f 150 125 165
f 107 125 109
f 145 125 107
f 145 167 125
f 145 123 167
f 123 169 167
f 123 168 169
f 158 168 123
f 158 170 168
f 158 178 170
f 121 178 158
f 141 178 121
f 141 140 178
f 140 177 178
f 140 172 177
f 157 172 140
f 153 172 157
f 153 161 172
f 156 161 153
f 156 160 161
f 156 159 160
f 156 155 159
f 152 155 156
f 152 156 148
f 152 657 155
f 658 155 657
f 654 658 657
f 655 654 657
f 655 652 654
f 655 656 652
f 152 652 656
f 152 603 652
f 603 607 652
f 652 607 653
f 654 652 653
f 654 653 675
f 654 675 668
f 653 625 675
f 675 625 674
f 675 674 671
f 675 671 668
f 671 676 668
f 673 676 671
f 676 673 674
f 674 624 676
f 624 670 676
f 624 439 670
f 668 676 664
f 669 664 676
f 676 670 669
f 669 670 664
f 670 666 664
f 670 439 666
f 439 429 666
f 666 429 432
f 432 443 666
f 443 471 666
f 666 471 665
f 665 471 479
f 665 479 661
f 660 665 661
f 664 665 660
f 660 661 659
f 667 659 661
f 667 661 573
f 573 661 572
f 661 488 572
f 672 659 667
f 662 660 659
f 660 662 668
f 668 662 663
f 662 659 663
f 661 479 488
f 444 429 439
f 440 444 439
f 440 436 444
f 444 436 442
f 442 437 444
f 437 526 444
f 444 526 527
f 526 561 527
f 526 434 561
f 428 434 526
f 430 434 428
f 435 434 430
f 552 434 435
f 435 427 552
f 483 552 427
f 552 483 564
f 427 564 483
f 427 445 564
f 445 568 564
f 568 513 564
f 513 568 445
f 445 569 513
f 425 569 445
f 425 528 569
f 425 506 528
f 506 533 528
f 506 517 533
f 517 529 533
f 517 520 529
f 520 524 529
f 524 574 529
f 520 511 524
f 524 511 539
f 511 514 539
f 539 514 541
f 541 514 531
f 541 531 535
f 531 470 535
f 535 470 542
f 542 470 530
f 542 530 536
f 542 536 543
f 543 536 3
f 3 536 13
f 13 536 14
f 536 465 14
f 536 519 465
f 536 455 519
f 455 6 519
f 455 456 6
f 455 461 456
f 461 458 456
f 458 469 456
f 458 461 455
f 453 458 455
f 452 458 453
f 464 458 452
f 452 451 464
f 451 423 464
f 450 423 451
f 467 450 451
f 467 451 455
f 470 467 455
f 448 450 467
f 447 448 467
f 449 447 467
f 510 449 467
f 447 449 510
f 454 447 510
f 520 454 510
f 454 520 447
f 460 447 520
f 460 520 407
f 409 460 407
f 409 405 460
f 405 406 460
f 406 421 460
f 406 422 421
f 410 409 407
f 411 409 410
f 410 407 408
f 414 410 408
f 415 414 408
f 416 414 415
f 413 416 415
f 412 413 415
f 412 415 424
f 457 424 415
f 457 506 424
f 424 506 425
f 412 424 425
f 412 425 445
f 466 412 445
f 466 445 462
f 445 426 462
f 462 426 427
f 462 427 428
f 428 459 462
f 459 428 446
f 438 446 428
f 438 428 437
f 427 431 428
f 428 431 435
f 431 427 435
f 415 408 457
f 408 517 457
f 408 407 517
f 460 421 447
f 447 421 420
f 420 417 447
f 447 417 423
f 417 418 423
f 447 423 448
f 448 423 450
f 451 452 455
f 452 453 455
f 456 468 6
f 519 6 465
f 465 6 14
f 530 455 536
f 470 455 530
f 531 467 470
f 514 467 531
f 510 467 514
f 510 514 511
f 520 510 511
f 407 520 517
f 457 517 506
f 426 445 427
f 428 435 430
f 527 563 444
f 437 428 526
f 438 437 442
f 441 442 436
f 440 441 436
f 444 433 429
f 429 433 443
f 443 433 480
f 480 433 547
f 480 547 545
f 400 545 547
f 403 400 547
f 403 547 401
f 567 401 547
f 397 401 567
f 404 397 567
f 404 567 563
f 444 563 567
f 444 567 433
f 527 404 563
f 562 404 527
f 562 527 561
f 560 562 561
f 560 561 559
f 434 559 561
f 559 434 558
f 398 559 558
f 398 394 559
f 398 558 399
f 399 558 557
f 557 558 395
f 558 556 395
f 556 558 551
f 550 551 558
f 550 558 552
f 552 553 550
f 552 554 553
f 553 554 402
f 566 402 554
f 566 554 565
f 554 570 565
f 570 554 569
f 570 569 571
f 571 569 528
f 513 569 554
f 513 554 564
f 566 565 402
f 552 564 554
f 553 555 550
f 396 550 555
f 550 396 551
f 556 551 395
f 552 558 434
f 560 559 394
f 560 404 562
f 545 400 16
f 545 16 523
f 16 15 523
f 15 548 523
f 15 12 548
f 548 12 10
f 548 10 522
f 521 548 522
f 549 548 521
f 549 523 548
f 523 549 472
f 532 523 472
f 532 546 523
f 532 545 546
f 478 532 472
f 480 532 478
f 472 476 478
f 478 476 484
f 478 484 481
f 481 484 487
f 484 485 487
f 487 485 489
f 489 485 495
f 495 485 494
f 495 494 499
f 502 495 499
f 502 499 504
f 518 502 504
f 518 504 509
f 509 504 508
f 508 504 512
f 512 504 503
f 504 493 503
f 504 490 493
f 493 490 492
f 490 500 492
f 490 498 500
f 498 496 500
f 496 7 500
f 501 7 496
f 507 7 501
f 507 501 498
f 505 507 498
f 516 507 505
f 516 515 507
f 537 515 516
f 525 537 516
f 525 538 537
f 538 540 537
f 538 482 540
f 482 5 540
f 540 5 515
f 482 11 5
f 475 11 482
f 474 475 482
f 474 482 473
f 521 474 473
f 549 521 473
f 476 549 473
f 474 522 475
f 522 11 475
f 534 482 538
f 534 473 482
f 473 534 484
f 534 525 484
f 484 525 486
f 486 525 505
f 534 538 525
f 540 515 537
f 507 515 8
f 515 9 8
f 544 9 515
f 544 4 9
f 5 4 544
f 525 516 505
f 486 505 498
f 486 498 497
f 497 498 491
f 497 491 485
f 490 485 491
f 486 497 485
f 507 8 7
f 498 501 496
f 491 498 490
f 499 490 504
f 499 494 490
f 485 490 494
f 484 486 485
f 477 478 481
f 443 478 477
f 476 473 484
f 472 549 476
f 521 522 474
f 522 10 11
f 480 545 532
f 567 547 433
f 664 666 665
f 664 660 668
f 674 673 671
f 625 624 674
f 602 607 603
f 602 605 607
f 614 607 605
f 614 612 607
f 612 614 613
f 614 630 613
f 614 616 630
f 616 633 630
f 633 645 630
f 633 629 645
f 629 627 645
f 645 627 440
f 647 645 440
f 440 439 647
f 440 627 442
f 442 627 642
f 627 626 642
f 626 627 619
f 620 619 627
f 618 619 620
f 611 618 620
f 611 620 629
f 611 629 616
f 618 611 610
f 591 618 610
f 591 577 618
f 576 618 577
f 579 618 576
f 618 579 617
f 617 579 619
f 619 579 622
f 579 631 622
f 631 628 622
f 621 628 631
f 621 635 628
f 635 650 628
f 635 632 650
f 651 650 632
f 650 651 412
f 651 419 412
f 651 413 419
f 650 412 643
f 412 466 643
f 463 643 466
f 462 643 463
f 643 462 628
f 628 462 459
f 459 626 628
f 641 626 459
f 641 640 626
f 640 442 626
f 640 438 442
f 640 459 438
f 641 459 640
f 632 413 651
f 632 636 413
f 637 413 636
f 637 588 413
f 597 588 637
f 597 637 596
f 596 637 582
f 582 637 634
f 634 637 636
f 634 636 632
f 634 632 623
f 578 634 623
f 578 623 621
f 621 623 638
f 578 621 579
f 580 578 579
f 623 632 638
f 582 634 578
f 581 582 578
f 635 638 632
f 650 643 628
f 621 638 635
f 626 622 628
f 579 621 631
f 591 610 590
f 590 610 604
f 604 610 609
f 609 610 608
f 608 610 614
f 606 608 614
f 604 608 606
f 605 604 606
f 593 604 605
f 593 605 592
f 604 593 589
f 604 609 608
f 589 590 604
f 611 614 610
f 617 619 618
f 619 622 626
f 442 642 626
f 629 620 627
f 630 645 647
f 630 647 639
f 639 647 644
f 644 647 439
f 644 439 646
f 644 646 649
f 649 646 648
f 644 649 624
f 624 649 648
f 639 644 624
f 630 639 615
f 615 639 607
f 607 639 624
f 607 612 615
f 616 629 633
f 611 616 614
f 613 630 615
f 613 615 612
f 606 614 605
f 592 605 602
f 592 603 152
f 152 655 657
f 152 656 655
f 148 156 153
f 153 131 148
f 148 131 127
f 127 154 148
f 148 154 152
f 154 127 143
f 127 137 143
f 127 139 137
f 122 139 127
f 139 122 105
f 115 105 122
f 115 122 112
f 112 122 123
f 122 121 123
f 112 123 128
f 112 128 145
f 105 115 112
f 107 105 112
f 121 122 127
f 141 127 131
f 153 157 131
f 157 140 131
f 141 131 140
f 141 121 127
f 121 158 123
f 128 123 145
f 167 166 125
f 125 166 165
f 107 112 145
f 150 136 108
f 104 107 109
f 107 104 105
f 151 139 105
f 163 126 113
f 113 102 124
f 124 116 194
f 116 134 194
f 116 118 134
f 118 120 132
f 176 120 133
f 133 94 199
f 197 199 188
f 186 185 197
f 78 147 185
f 78 75 147
f 86 187 75
f 86 191 187
f 86 149 191
f 179 183 149
f 184 171 183
f 87 190 171
f 180 189 190
f 201 196 192
f 192 204 195
f 195 204 193
f 193 205 203
f 205 210 203
f 371 355 350
f 368 369 349
f 355 344 350
f 344 338 350
f 349 337 334
f 338 331 340
f 324 309 331
f 337 308 315
f 308 306 298
f 298 292 296
f 309 295 289
f 288 286 289
f 296 284 280
f 242 236 286
f 242 241 235
f 241 240 243
f 240 249 246
f 246 248 250
f 247 258 248
f 258 262 265
f 265 262 263
f 264 1 266

