# https://github.com/mikedh/trimesh
v 0.16339810 -0.01009639 -0.01002702
v 0.17027860 -0.00379716 -0.01847399
v 0.17565925 0.00603125 -0.03018175
v 0.19958375 0.04950250 -0.05272325
v 0.19034965 0.02443346 -0.03304750
v 0.18904899 0.01905000 -0.03837550
v 0.18612975 0.01614575 -0.03428850
v 0.15852951 -0.02112700 0.00065850
v 0.15265100 -0.02711200 -0.00132300
v 0.21218500 0.07917600 -0.07598500
v 0.14289100 -0.03069700 0.00184425
v 0.13940150 -0.03232325 -0.00029125
v 0.20577645 0.01109975 -0.07852300
v 0.18023331 -0.01294686 -0.03611323
v 0.17447888 -0.01733436 -0.02935064
v 0.15093750 -0.02919500 -0.00855250
v 0.15448622 -0.02884291 -0.01051871
v 0.16997050 -0.01996850 -0.02503650
v 0.15963051 -0.02583725 -0.01507725
v 0.17631900 -0.01532600 -0.03165700
v 0.19976100 0.00726400 -0.06947500
v 0.16213125 -0.02465225 -0.01740263
v 0.16127981 -0.02406446 -0.01003277
v 0.16125730 -0.02361632 -0.00688486
v 0.17105313 -0.01858779 -0.01753431
v 0.17367588 -0.01637863 -0.01899888
v 0.17808101 -0.01379500 -0.02896400
v 0.17158701 -0.01745900 -0.01461400
v 0.16831900 -0.01880200 -0.00993400
v 0.21628050 0.04357050 -0.11459500
v 0.21858849 0.05678000 -0.12254150
v 0.21009400 0.02640500 -0.09720700
v 0.20675025 0.02036200 -0.08861650
v 0.21914925 0.07462984 -0.12740813
v 0.21806553 0.06209983 -0.12072450
v 0.21643447 0.05102582 -0.11598914
v 0.21349141 0.03818617 -0.10653095
v 0.23403140 0.13655530 -0.12087937
v 0.23536939 0.12937121 -0.11863103
v 0.23498747 0.11527512 -0.11855055
v 0.23610854 0.11180680 -0.11598776
v 0.23361212 0.12585906 -0.12136493
v 0.23484220 0.10118768 -0.11555685
v 0.23529599 0.09250969 -0.11184780
v 0.21940432 0.07744292 -0.12874119
v 0.23664448 0.11598405 -0.11505041
v 0.23307767 0.07176313 -0.10412449
v 0.23703618 0.11036991 -0.11288220
v 0.23332421 0.07684130 -0.10737754
v 0.23577250 0.09011107 -0.10875223
v 0.23294701 0.08226200 -0.11065000
v 0.22182281 0.08068294 -0.12448000
v 0.23245881 0.08982028 -0.11467287
v 0.23060637 0.06942469 -0.10696716
v 0.23508763 0.13559303 -0.11678634
v 0.23437414 0.07939942 -0.10382826
v 0.22065353 0.06399154 -0.11698663
v 0.23082765 0.07997687 -0.11254128
v 0.23594677 0.12495794 -0.11395002
v 0.21626083 0.15370442 -0.09477965
v 0.23239043 0.15400591 -0.12138347
v 0.22162683 0.16807357 -0.10347284
v 0.22800521 0.05660560 -0.10066050
v 0.21901843 0.06883303 -0.12279051
v 0.21773525 0.05493492 -0.11506673
v 0.22857642 0.05517812 -0.09809776
v 0.21933700 0.04988900 -0.10753900
v 0.21492113 0.04455926 -0.11075821
v 0.19639277 0.00249899 -0.04698135
v 0.20498885 0.01410996 -0.07044556
v 0.21467229 0.02527072 -0.07556505
v 0.21906962 0.03259835 -0.08334581
v 0.21143299 0.02897000 -0.09399300
v 0.22054337 0.03527123 -0.08595454
v 0.21357534 0.03522936 -0.09996160
v 0.21879001 0.03529559 -0.09046718
v 0.22546994 0.05084173 -0.09874227
v 0.22820411 0.05202713 -0.09337691
v 0.21057080 0.01891499 -0.06332880
v 0.18664639 -0.00638924 -0.03226698
v 0.20681500 0.01499500 -0.05723600
v 0.18177711 -0.01106456 -0.03008595
v 0.21687178 0.02844960 -0.07401779
v 0.22249665 0.03746873 -0.08320126
v 0.20793812 0.01560511 -0.06018986
v 0.22130783 0.03591152 -0.08074438
v 0.23009500 0.05816300 -0.09626800
v 0.22651867 0.04823035 -0.08941386
v 0.18567197 -0.00558647 -0.02718408
v 0.21312654 0.02216378 -0.06798576
v 0.21826400 0.03188700 -0.07506300
v 0.23090074 0.06171106 -0.10047334
v 0.19336674 -0.00001462 -0.03815942
v 0.17801599 -0.01106286 -0.01805148
v 0.23255991 0.06791714 -0.10003910
v 0.20387203 0.01311015 -0.05159300
v 0.23518404 0.08515819 -0.10579439
v 0.22909246 0.05485260 -0.09300624
v 0.23099176 0.06210700 -0.09640081
v 0.22584357 0.04948444 -0.08697877
v 0.22878229 0.10826801 -0.09190241
v 0.22164015 0.03913481 -0.07974322
v 0.23331540 0.08500431 -0.10063277
v 0.23534383 0.09088376 -0.10553625
v 0.23572434 0.11049276 -0.10893251
v 0.21606893 0.02859973 -0.07083412
v 0.22192567 0.06617516 -0.07903677
v 0.21791939 0.05211149 -0.07279015
v 0.22938972 0.13249093 -0.09851540
v 0.23369362 0.13691596 -0.11232429
v 0.23107148 0.11641124 -0.09806438
v 0.20626690 0.02750037 -0.05566149
v 0.20855018 0.03250897 -0.05894640
v 0.22644082 0.09859511 -0.08759711
v 0.22777896 0.12908731 -0.09435585
v 0.22693696 0.15179428 -0.10198652
v 0.23321765 0.14352834 -0.11434846
v 0.21869296 0.06062895 -0.07456166
v 0.21888526 0.06589541 -0.07633449
v 0.21081396 0.03693797 -0.06214532
v 0.22555490 0.08282157 -0.08478947
v 0.19163408 0.00093843 -0.03449357
v 0.17238798 -0.01541032 -0.01198898
v 0.22662687 0.15834647 -0.10527285
v 0.22711207 0.16085803 -0.10860603
v 0.21591808 0.04766151 -0.06961447
v 0.20028832 0.01272488 -0.04582489
v 0.21234138 0.04197947 -0.06497046
v 0.19609290 0.00784874 -0.04018129
v 0.22673952 0.13785310 -0.09547215
v 0.22284976 0.07658688 -0.08105014
v 0.18813215 0.00144898 -0.03098315
v 0.21580951 0.05202512 -0.07027505
v 0.21941477 0.12604686 -0.08919077
v 0.22617862 0.15029597 -0.09938669
v 0.16890230 -0.01362831 -0.00911719
v 0.22405652 0.17301456 -0.11137260
v 0.22426991 0.15534413 -0.09967585
v 0.19644717 0.01202288 -0.04203114
v 0.21354900 0.04788000 -0.06772600
v 0.22735617 0.11494103 -0.09096964
v 0.21324298 0.08270076 -0.07860299
v 0.21439036 0.08730889 -0.08009909
v 0.21491410 0.09391869 -0.08140565
v 0.21718803 0.11821253 -0.08718927
v 0.21707995 0.13453878 -0.09056366
v 0.21648579 0.10724507 -0.08482784
v 0.20737966 0.06023397 -0.06994234
v 0.20845153 0.06421766 -0.07155150
v 0.21720915 0.12242441 -0.08788778
v 0.20528379 0.05418807 -0.06708528
v 0.20093715 0.04291608 -0.06107565
v 0.20199016 0.04698946 -0.06312048
v 0.20001071 0.03822055 -0.05830641
v 0.20112839 0.01957363 -0.04867840
v 0.20208327 0.02776436 -0.05385512
v 0.18631306 0.01147018 -0.03827427
v 0.17733568 -0.00738297 -0.01854126
v 0.18971156 0.01937484 -0.04508854
v 0.18695820 0.01471385 -0.04129543
v 0.19275514 0.02518083 -0.04949961
v 0.19403893 0.02811195 -0.05177085
v 0.19570621 0.03486748 -0.04175666
v 0.19736731 0.03813980 -0.05687105
v 0.19570620 0.03204085 -0.05444242
v 0.19882692 0.04104400 -0.05877987
v 0.20953699 0.06848181 -0.07312643
v 0.21587853 0.10116456 -0.08326079
v 0.21694658 0.14119296 -0.09148249
f 10 167 119
f 142 10 119
f 119 167 149
f 143 142 119
f 119 149 148
f 119 131 143
f 119 148 118
f 119 107 131
f 131 121 143
f 119 118 107
f 148 151 118
f 131 107 121
f 121 114 143
f 118 126 107
f 151 152 118
f 107 100 121
f 114 121 101
f 114 144 143
f 126 108 107
f 118 133 126
f 133 118 152
f 151 153 152
f 121 100 98
f 114 101 141
f 101 121 103
f 168 144 114
f 108 102 107
f 108 126 102
f 133 128 126
f 133 152 140
f 152 153 166
f 98 100 78
f 121 98 99
f 115 141 101
f 141 168 114
f 101 103 104
f 121 99 103
f 107 102 88
f 126 106 102
f 128 120 126
f 133 140 128
f 140 152 128
f 166 164 152
f 98 78 92
f 100 88 78
f 99 98 87
f 115 101 109
f 115 134 141
f 168 141 147
f 101 104 111
f 103 95 104
f 99 95 103
f 102 84 88
f 106 91 102
f 126 120 106
f 154 120 128
f 128 152 154
f 152 164 165
f 92 78 66
f 87 98 92
f 99 87 92
f 109 101 111
f 115 109 130
f 130 134 115
f 145 141 134
f 145 147 141
f 111 104 105
f 104 95 56
f 95 99 92
f 102 86 84
f 102 91 83
f 91 106 83
f 113 106 120
f 113 120 154
f 152 165 154
f 162 165 164
f 78 77 66
f 92 66 63
f 109 111 48
f 130 109 135
f 130 146 134
f 134 150 145
f 105 104 48
f 48 111 105
f 56 95 47
f 104 56 97
f 95 92 47
f 86 72 84
f 102 83 86
f 90 83 106
f 113 90 106
f 113 154 112
f 154 165 156
f 164 163 162
f 66 77 63
f 78 76 77
f 63 65 92
f 109 48 59
f 117 135 109
f 135 138 130
f 169 146 130
f 150 134 146
f 48 104 50
f 56 47 97
f 104 97 50
f 47 92 54
f 72 74 84
f 86 71 72
f 83 90 71
f 113 79 90
f 154 156 112
f 165 162 156
f 163 161 162
f 4 163 164
f 63 77 65
f 77 76 68
f 78 88 76
f 54 92 65
f 59 48 46
f 109 59 110
f 117 109 110
f 117 116 135
f 138 60 130
f 62 138 135
f 60 169 130
f 48 50 44
f 97 47 50
f 47 54 49
f 72 33 74
f 84 74 88
f 72 71 33
f 83 71 86
f 71 90 70
f 79 113 96
f 112 156 155
f 156 162 161
f 163 5 161
f 77 67 65
f 76 37 68
f 77 68 67
f 88 74 76
f 65 57 54
f 48 44 46
f 55 59 46
f 59 117 110
f 124 116 117
f 135 116 62
f 138 62 60
f 50 49 44
f 50 47 49
f 58 49 54
f 74 33 73
f 71 13 33
f 70 13 71
f 90 21 70
f 96 81 79
f 112 96 113
f 155 127 112
f 156 159 155
f 161 159 156
f 5 6 161
f 65 67 68
f 76 75 37
f 54 57 64
f 57 65 35
f 46 44 43
f 46 39 55
f 117 59 55
f 62 116 124
f 125 124 117
f 44 49 51
f 49 58 51
f 58 54 64
f 73 33 32
f 70 21 13
f 90 79 21
f 85 79 81
f 127 96 112
f 155 129 127
f 155 159 157
f 161 6 159
f 57 35 64
f 43 44 53
f 46 43 41
f 46 40 39
f 55 39 61
f 117 55 61
f 62 124 137
f 125 117 61
f 44 51 53
f 51 58 53
f 52 58 64
f 85 21 79
f 96 85 81
f 127 129 96
f 155 139 129
f 155 157 139
f 159 160 157
f 6 160 159
f 43 53 40
f 46 41 40
f 61 39 38
f 58 52 53
f 52 64 34
f 85 69 21
f 93 85 96
f 129 93 96
f 139 157 129
f 7 160 6
f 41 43 40
f 40 53 52
f 38 39 42
f 40 52 34
f 64 31 34
f 21 69 14
f 93 69 85
f 129 122 93
f 129 157 132
f 7 157 160
f 40 34 45
f 35 31 64
f 93 14 69
f 89 93 122
f 129 132 122
f 157 3 132
f 65 31 35
f 82 14 93
f 89 80 93
f 132 89 122
f 132 3 158
f 65 36 31
f 82 20 14
f 93 80 82
f 82 80 89
f 132 94 89
f 158 3 2
f 36 30 31
f 82 27 20
f 94 82 89
f 132 158 94
f 158 2 136
f 26 20 27
f 82 123 27
f 123 82 94
f 158 136 94
f 136 2 1
f 26 15 20
f 123 28 27
f 136 123 94
f 136 1 8
f 26 25 15
f 123 29 28
f 136 8 123
f 25 18 15
f 26 24 25
f 8 29 123
f 22 18 25
f 24 22 25
f 29 24 26
f 29 8 24
f 24 23 22
f 8 9 24
f 23 19 22
f 24 19 23
f 9 16 24
f 24 17 19
f 9 11 16
f 24 16 17
f 11 12 16

