v 0.0290415 0.265108 -0.236564
v 0.127692 -0.0664 -0.152153
v 0.0275605 0.255035 -0.225163
v 0.0441363 0.263482 -0.236021
v 0.0427205 0.253271 -0.224883
v 0.0412953 0.242958 -0.213787
v 0.0261242 0.244589 -0.214129
v 0.0123865 0.256201 -0.226053
v 0.0578082 0.251394 -0.224862
v -0.00276265 0.257162 -0.22716
v 0.0398967 0.232081 -0.203178
v 0.0247379 0.233804 -0.203339
v 0.0109411 0.245834 -0.214892
v -0.00424476 0.246717 -0.216058
v -0.0179155 0.257738 -0.228645
v 0.0563926 0.240882 -0.214052
v 0.0385759 0.220664 -0.193001
v -0.0194059 0.247268 -0.217603
v 0.0373491 0.208801 -0.183191
v 0.023433 0.222337 -0.193114
v 0.209099 -0.0751848 -0.22401
v 0.0549625 0.230094 -0.20349
v 0.0713448 0.238203 -0.215063
v 0.0536593 0.218535 -0.193623
v 0.052394 0.206699 -0.184029
v 0.00955547 0.234989 -0.204141
v 0.069908 0.227334 -0.204769
v 0.0512618 0.194164 -0.175134
v 0.0684732 0.215849 -0.195111
v -0.00564162 0.235855 -0.205301
v 0.0362152 0.196208 -0.174264
v 0.0660137 0.191563 -0.176875
v 0.176119 -0.0783095 -0.192003
v 0.0351179 0.18325 -0.165859
v 0.0671662 0.20405 -0.185728
v 0.0210551 0.197784 -0.174012
v 0.0502341 0.181063 -0.166876
v 0.0802962 0.188602 -0.179533
v 0.0199464 0.184867 -0.165568
v 0.083156 0.212904 -0.197157
v 0.0817294 0.201067 -0.187971
v 0.0651281 0.178102 -0.168896
v 0.0794046 0.175178 -0.171587
v 0.0340148 0.170065 -0.15808
v 0.0645188 0.164052 -0.161274
v 0.0927648 0.172106 -0.175148
v 0.0188391 0.171786 -0.157563
v 0.0938562 0.185637 -0.182871
v 0.104863 0.169853 -0.179318
v 0.0789823 0.16069 -0.16429
v 0.0653388 0.147917 -0.154318
v 0.0920951 0.157773 -0.168125
v 0.0792598 0.144823 -0.157848
v 0.0661934 0.13184 -0.148744
v 0.105547 0.156411 -0.173562
v 0.0933113 0.142721 -0.162633
v 0.0956109 0.12874 -0.158631
v 0.0811929 0.129674 -0.15312
v 0.107404 0.142868 -0.169043
v 0.118487 0.157136 -0.180469
v 0.0831849 0.114511 -0.14912
v 0.116623 0.170089 -0.185463
v 0.208457 -0.0599987 -0.223151
v 0.130155 0.158595 -0.188197
v 0.0978881 0.114113 -0.155049
v 0.0678922 0.116402 -0.144388
v 0.120754 0.14346 -0.176296
v 0.109651 0.128812 -0.165175
v 0.132803 0.144745 -0.184183
v 0.0852529 0.099463 -0.146075
v 0.0998161 0.0993932 -0.152407
v 0.113913 0.0996772 -0.159434
v 0.111873 0.114387 -0.161949
v 0.122929 0.129473 -0.172649
v 0.101811 0.0845572 -0.150012
v 0.0872653 0.0844964 -0.143697
v 0.089263 0.0694817 -0.141461
v 0.127301 0.100387 -0.167226
v 0.135557 0.130515 -0.180906
v 0.144529 0.146073 -0.192904
v 0.155458 0.147477 -0.20244
v 0.115824 0.0848593 -0.157203
v 0.125171 0.115072 -0.169787
v 0.0704329 0.100436 -0.140898
v 0.147589 0.131742 -0.189624
v 0.117609 0.0699267 -0.155389
v 0.129252 0.0855702 -0.165052
v 0.142172 0.0864586 -0.173496
v 0.130978 0.070614 -0.163313
v 0.137973 0.116074 -0.177946
v 0.0722904 0.0850117 -0.13803
v 0.0742754 0.0697855 -0.135426
v 0.103696 0.0696092 -0.148031
v 0.0913002 0.0544656 -0.139293
v 0.164368 -0.0792438 -0.182049
v 0.132482 0.0555368 -0.162026
v 0.150228 0.117196 -0.186777
v 0.158845 0.132981 -0.199223
v 0.105564 0.0546404 -0.146152
v 0.119306 0.0549661 -0.153724
v 0.14379 0.0714516 -0.171934
v 0.145237 0.0563471 -0.170734
v 0.133998 0.0404594 -0.160731
v 0.140181 0.101329 -0.175524
v 0.152409 0.102365 -0.184601
v 0.161659 0.118288 -0.196496
v 0.0936812 0.039405 -0.137083
v 0.121046 0.0398856 -0.152129
v 0.15434 0.0874531 -0.182676
v 0.172472 0.119481 -0.206759
v 0.164128 0.103417 -0.194115
v 0.107464 0.0395874 -0.144383
v 0.156069 0.0723818 -0.181109
v 0.146644 0.0412472 -0.169645
v 0.135484 0.0253441 -0.159589
v 0.122635 0.0247733 -0.150778
v 0.0959164 0.0242938 -0.13494
v 0.109398 0.0244814 -0.142573
v 0.166318 0.0884574 -0.192062
v 0.157548 0.0572474 -0.179936
v 0.124255 0.00962108 -0.149555
v 0.136867 0.0102254 -0.158727
v 0.175038 0.104527 -0.204379
v 0.0978987 0.00912528 -0.133029
v 0.1679 0.0733723 -0.190716
v 0.179041 0.0743923 -0.200955
v 0.158897 0.0421093 -0.17905
v 0.147942 0.026103 -0.168882
v 0.111206 0.00934774 -0.14101
v 0.177122 0.0894691 -0.202557
v 0.0823992 0.0241703 -0.127942
v 0.0844023 0.00911471 -0.1255
v 0.160067 0.0269574 -0.178507
v 0.169308 0.0582387 -0.189696
v 0.149144 0.0109532 -0.168286
v 0.12567 -0.00551498 -0.148757
v 0.138035 -0.00487418 -0.158283
v 0.189115 0.0753823 -0.211984
v 0.170524 0.0430759 -0.189031
v 0.17172 0.0278888 -0.18856
v 0.150281 -0.00420367 -0.168016
v 0.0997552 -0.00610511 -0.131341
v 0.112886 -0.00590364 -0.139842
v 0.180446 0.0592471 -0.200044
v 0.16112 0.0118045 -0.17814
v 0.162168 -0.00336163 -0.178013
v 0.126872 -0.0207003 -0.148508
v 0.139174 -0.0200351 -0.158086
v 0.151356 -0.0193388 -0.167843
v 0.114286 -0.0212292 -0.139343
v 0.192103 0.0451009 -0.210642
v 0.181629 0.0440773 -0.199574
v 0.182751 0.0288986 -0.199227
v 0.163066 -0.0185155 -0.178074
v 0.198098 -0.0610984 -0.211912
v 0.190657 0.0602416 -0.211251
v 0.172726 0.012715 -0.188397
v 0.173578 -0.00245212 -0.188487
v 0.163749 -0.0337109 -0.178488
v 0.174413 -0.0176168 -0.188612
v 0.198401 -0.0762726 -0.213108
v 0.115102 -0.0365736 -0.139839
v 0.185443 -0.0166475 -0.199433
v 0.18627 -0.0318319 -0.199614
v 0.127628 -0.0359517 -0.149021
v 0.14022 -0.050472 -0.159584
v 0.152018 -0.034525 -0.168326
v 0.205457 -0.0144661 -0.222518
v 0.183775 0.0137206 -0.199061
v 0.184613 -0.00146328 -0.199249
v 0.175076 -0.0327937 -0.189012
v 0.13993 -0.035257 -0.158507
v 0.193128 0.0299372 -0.210497
v 0.194048 0.0147718 -0.210509
v 0.186872 -0.0469982 -0.200209
v 0.152388 -0.0497163 -0.169235
v 0.164184 -0.0488942 -0.179291
v 0.206552 -0.0296251 -0.222421
v 0.195832 -0.0155688 -0.210698
v 0.1967 -0.0307433 -0.210855
v 0.127826 -0.0511858 -0.150299
v 0.164426 -0.0640728 -0.180389
v 0.19496 -0.000394255 -0.210543
v 0.207555 -0.044806 -0.222557
v 0.175724 -0.0479706 -0.189556
v 0.175956 -0.0631425 -0.190648
v 0.187561 -0.0773429 -0.202319
v 0.152513 -0.0649108 -0.170551
v 0.18737 -0.0621672 -0.201001
v 0.197532 -0.0459191 -0.211144
v 0.140177 -0.0656666 -0.161225
v 0.152343 -0.0801107 -0.17243
f 4 5 3 1
f 5 6 7 3
f 7 13 8 3
f 9 16 6 5
f 16 22 11 6
f 11 12 7 6
f 12 26 13 7
f 13 14 10 8
f 14 18 15 10
f 22 24 17 11
f 17 20 12 11
f 26 30 14 13
f 23 27 22 16
f 24 25 19 17
f 25 28 31 19
f 27 29 24 22
f 29 35 25 24
f 35 32 28 25
f 32 42 37 28
f 37 34 31 28
f 40 41 35 29
f 34 39 36 31
f 38 43 42 32
f 35 41 38 32
f 44 47 39 34
f 48 46 43 38
f 43 50 45 42
f 46 52 50 43
f 49 55 52 46
f 62 60 55 49
f 52 56 53 50
f 53 58 54 51
f 55 59 56 52
f 56 57 58 53
f 58 61 66 54
f 60 67 59 55
f 59 68 57 56
f 68 73 65 57
f 65 61 58 57
f 67 74 68 59
f 64 69 67 60
f 65 71 70 61
f 73 72 71 65
f 69 79 74 67
f 74 83 73 68
f 80 85 79 69
f 71 75 76 70
f 76 91 84 70
f 72 82 75 71
f 78 87 82 72
f 73 83 78 72
f 79 90 83 74
f 82 86 93 75
f 93 77 76 75
f 77 92 91 76
f 93 99 94 77
f 104 88 87 78
f 83 90 104 78
f 85 97 90 79
f 81 98 85 80
f 87 89 86 82
f 98 106 97 85
f 89 96 100 86
f 100 99 93 86
f 88 101 89 87
f 109 113 101 88
f 104 105 109 88
f 101 102 96 89
f 97 105 104 90
f 99 112 107 94
f 102 114 103 96
f 103 108 100 96
f 106 111 105 97
f 100 108 112 99
f 113 120 102 101
f 120 127 114 102
f 114 128 115 103
f 115 116 108 103
f 111 119 109 105
f 110 123 111 106
f 112 118 117 107
f 116 118 112 108
f 119 125 113 109
f 123 130 119 111
f 125 134 120 113
f 127 133 128 114
f 128 135 122 115
f 122 121 116 115
f 121 129 118 116
f 118 129 124 117
f 124 132 131 117
f 130 126 125 119
f 134 139 127 120
f 122 137 136 121
f 136 143 129 121
f 135 141 137 122
f 129 143 142 124
f 126 144 134 125
f 138 156 144 126
f 139 140 133 127
f 133 145 135 128
f 140 157 145 133
f 144 152 139 134
f 145 146 141 135
f 137 148 147 136
f 147 150 143 136
f 141 149 148 137
f 152 153 140 139
f 153 169 157 140
f 146 154 149 141
f 156 151 152 144
f 157 158 146 145
f 158 160 154 146
f 148 172 165 147
f 165 162 150 147
f 149 167 172 148
f 154 159 167 149
f 173 153 152 151
f 173 174 169 153
f 160 171 159 154
f 169 170 158 157
f 170 163 160 158
f 171 185 177 159
f 177 176 167 159
f 163 164 171 160
f 179 180 164 163
f 170 183 179 163
f 180 190 175 164
f 175 185 171 164
f 172 166 181 165
f 176 188 191 166
f 191 2 181 166
f 172 167 176 166
f 178 180 179 168
f 174 183 170 169
f 190 155 189 175
f 189 186 185 175
f 177 182 188 176
f 185 186 182 177
f 184 190 180 178
f 186 33 95 182
f 95 192 188 182
f 63 155 190 184
f 189 187 33 186
f 155 63 21 161
