# https://github.com/mikedh/trimesh
v -0.31563601 -0.15744600 -0.15612499
v -0.31872250 -0.14911500 -0.15841200
v -0.32189874 -0.11614300 -0.16306075
v -0.30162799 -0.16623800 -0.13699700
v -0.30522950 -0.16104450 -0.14006200
v -0.30492863 -0.16057587 -0.14406937
v -0.30773149 -0.15496551 -0.14458600
v -0.30969501 -0.15017501 -0.14560500
v -0.28739099 -0.15670500 -0.11833050
v -0.27117250 -0.13429700 -0.11936725
v -0.27605399 -0.13268600 -0.12047500
v -0.27076900 -0.13003400 -0.11786350
v -0.25215101 -0.09900000 -0.06694800
v -0.27163175 -0.11151975 -0.11344875
v -0.26869076 -0.10108287 -0.10892012
v -0.25202646 -0.08150777 -0.08172963
v -0.24895801 -0.08033900 -0.07871600
v -0.23576332 -0.08742523 -0.05855642
v -0.23939899 -0.09824550 -0.05147050
v -0.25958715 -0.08640186 -0.09360693
v -0.25473513 -0.08252000 -0.08759263
v -0.24713250 -0.09807450 -0.05723800
v -0.26948476 -0.02474341 -0.04639728
v -0.26527160 -0.02644881 -0.04040528
v -0.26297561 -0.02925893 -0.03611825
v -0.26194980 -0.03772129 -0.03233606
v -0.25833888 -0.04859159 -0.02396667
v -0.26453313 -0.03972141 -0.03569394
v -0.25752001 -0.05149293 -0.02231473
v -0.25368964 -0.05621896 -0.01573980
v -0.25249469 -0.04552379 -0.01773455
v -0.26363829 -0.04691127 -0.03333033
v -0.27976151 -0.02182962 -0.06346534
v -0.27675813 -0.04200812 -0.05649357
v -0.29099732 -0.02462977 -0.08282995
v -0.28509748 -0.04589490 -0.07063378
v -0.28709301 -0.02750000 -0.07537800
v -0.29456093 -0.02860559 -0.08802505
v -0.30515808 -0.03996713 -0.10601741
v -0.29047925 -0.04977066 -0.08019782
v -0.30185501 -0.05254651 -0.10181423
v -0.27245774 -0.04301667 -0.04922751
v -0.30822274 -0.04460356 -0.11207453
v -0.31322636 -0.06580429 -0.12483070
v -0.31090320 -0.07185300 -0.12105012
v -0.29905680 -0.06828249 -0.09808506
v -0.31603278 -0.09796585 -0.13317976
v -0.31125941 -0.05424109 -0.11850533
v -0.31124396 -0.04972753 -0.11852784
v -0.31298380 -0.05510289 -0.12180721
v -0.30436239 -0.08702635 -0.11256941
v -0.31625309 -0.11873343 -0.13805540
v -0.31719256 -0.06622113 -0.13187506
v -0.26139400 -0.04748286 -0.02886267
v -0.31109174 -0.08425574 -0.12277662
v -0.31671679 -0.09966986 -0.13864609
v -0.31914236 -0.07608583 -0.13714410
v -0.31878694 -0.07215449 -0.13584615
v -0.32381716 -0.09803095 -0.14943854
v -0.31511344 -0.08638213 -0.13222591
v -0.30130322 -0.08069586 -0.10530817
v -0.32418536 -0.12121967 -0.15654695
v -0.31665885 -0.13127351 -0.14747486
v -0.31108821 -0.14121723 -0.13766834
v -0.31397948 -0.13844962 -0.14173437
v -0.31176549 -0.15733050 -0.14941751
v -0.27774496 -0.04545146 -0.05990843
v -0.31410316 -0.13683694 -0.14600836
v -0.24712275 -0.06530450 -0.00417075
v -0.30008279 -0.12952791 -0.11951255
v -0.28354235 -0.04845773 -0.07008656
v -0.31569120 -0.12961014 -0.14096990
v -0.31652913 -0.11839720 -0.14328548
v -0.31675357 -0.11290051 -0.14223178
v -0.32390118 -0.11608455 -0.15824280
v -0.29487877 -0.14793183 -0.12122115
v -0.31670600 -0.10986700 -0.13775700
v -0.29842011 -0.13494863 -0.11971430
v -0.25014945 -0.06110114 -0.00928047
v -0.31192916 -0.14520266 -0.14523953
v -0.30907795 -0.15333009 -0.14036877
v -0.31195065 -0.15204655 -0.14753902
v -0.31388754 -0.05651183 -0.12471171
v -0.32103322 -0.08045403 -0.14202903
v -0.32239504 -0.08758656 -0.14539336
v -0.30214652 -0.10600630 -0.11452696
v -0.29633369 -0.06374814 -0.09330708
v -0.32411975 -0.10164790 -0.15134380
v -0.32206740 -0.13695760 -0.15902087
v -0.31663857 -0.10676157 -0.14019614
v -0.29742246 -0.07166442 -0.09852276
v -0.29367551 -0.05626364 -0.08636020
v -0.26787423 -0.04504665 -0.04212403
v -0.25627699 -0.03574700 -0.02592800
v -0.24942200 -0.04452500 -0.01502400
v -0.32353369 -0.09515702 -0.14913809
v -0.25093201 -0.04210200 -0.01767800
v -0.32194115 -0.11003779 -0.16116224
v -0.31875699 -0.08314403 -0.15128685
v -0.31603798 -0.07189446 -0.14509555
v -0.31728606 -0.07598588 -0.14783908
v -0.31039693 -0.05376881 -0.13183722
v -0.31985328 -0.08927847 -0.15395386
v -0.31391682 -0.06406026 -0.13999219
v -0.31964959 -0.08643444 -0.15317288
v -0.32100078 -0.09711581 -0.15741734
v -0.31159831 -0.05711093 -0.13444245
v -0.32192310 -0.09543351 -0.15430097
v -0.28318266 -0.02017119 -0.07380506
v -0.28333760 -0.01916645 -0.08375457
v -0.28585030 -0.02087742 -0.08601381
v -0.28810026 -0.02222080 -0.08136623
v -0.28915946 -0.02273840 -0.09263490
v -0.29176462 -0.02483162 -0.09591249
v -0.29351855 -0.02611112 -0.08787804
v -0.29696993 -0.02893068 -0.09622180
v -0.27439759 -0.01676976 -0.06970462
v -0.29670582 -0.02993499 -0.10590128
v -0.30137498 -0.03661984 -0.11478028
v -0.27031573 -0.01736678 -0.06231267
v -0.27338872 -0.02123894 -0.05434960
v -0.27760689 -0.01990640 -0.06255208
v -0.26910999 -0.02205800 -0.04925400
v -0.27632470 -0.01703756 -0.07233836
v -0.29387739 -0.02634986 -0.10107150
v -0.28044406 -0.01812986 -0.07906764
v -0.27144673 -0.01643447 -0.06546392
v -0.30381951 -0.04055373 -0.11924630
v -0.30862580 -0.04949515 -0.12672991
v -0.30510992 -0.04273426 -0.12172587
v -0.31562761 -0.06335713 -0.13346500
v -0.32156746 -0.10170938 -0.15813557
v -0.30996714 -0.04914521 -0.12215085
v -0.30368199 -0.03684926 -0.10413518
v -0.29881202 -0.03109342 -0.09587698
v -0.29037037 -0.15191187 -0.11861551
v -0.28000920 -0.13206158 -0.12014422
v -0.29411881 -0.13694271 -0.11855974
v -0.28486190 -0.12290768 -0.11882344
v -0.29749495 -0.12451544 -0.11727192
v -0.30055226 -0.11936805 -0.11697882
v -0.28020301 -0.10840800 -0.11618200
v -0.29990376 -0.10541660 -0.11305902
v -0.29855400 -0.11336300 -0.11520100
v -0.29576091 -0.10599020 -0.11384708
v -0.27983476 -0.12083009 -0.11918586
v -0.30065982 -0.08925586 -0.10766566
v -0.27502186 -0.12046238 -0.11862856
v -0.28995456 -0.08345501 -0.10613021
v -0.27690700 -0.09314600 -0.11101800
v -0.27641681 -0.10143989 -0.11423148
v -0.28760001 -0.08013000 -0.10410700
v -0.27484141 -0.08443737 -0.10692166
v -0.29922369 -0.08362534 -0.10528108
v -0.28245888 -0.07825271 -0.10323548
v -0.27394952 -0.09558037 -0.11163396
v -0.29648682 -0.07532868 -0.10058259
v -0.28334268 -0.07287640 -0.09949455
v -0.29513788 -0.06720770 -0.09477791
v -0.27532199 -0.07556300 -0.10069000
v -0.27940690 -0.07251969 -0.09895940
v -0.29314134 -0.06290795 -0.09100915
v -0.27115429 -0.07585669 -0.09986480
v -0.29354161 -0.06042557 -0.08905480
v -0.27285916 -0.06960265 -0.09511569
v -0.27706804 -0.06438470 -0.09095136
v -0.29140115 -0.05825782 -0.08610999
v -0.27227801 -0.06626900 -0.09123500
v -0.26826273 -0.06986618 -0.09303561
v -0.28708868 -0.05485551 -0.08051231
v -0.28681939 -0.05677280 -0.08330210
v -0.26300982 -0.08546606 -0.10007240
v -0.25071136 -0.07662747 -0.08116735
v -0.26012760 -0.07951636 -0.09414251
v -0.26281559 -0.08854764 -0.10047268
v -0.26956984 -0.09379865 -0.10929052
v -0.25325210 -0.08015665 -0.08584196
v -0.24245244 -0.07952274 -0.06926956
v -0.21226696 -0.10540356 -0.03356044
v -0.20028800 -0.11332150 -0.02083100
v -0.22676293 -0.09165448 -0.04877372
v -0.19489300 -0.11615200 -0.01508100
v -0.23310444 -0.08540409 -0.05611734
v -0.22747050 -0.09423750 -0.04943175
v -0.27044204 -0.10389807 -0.11218010
v -0.20184600 -0.11493800 -0.02267000
v -0.21116600 -0.10917000 -0.03234175
v -0.18820300 -0.11524394 -0.00449331
v -0.25639919 -0.07588027 -0.08774813
v -0.27407604 -0.12432296 -0.11924258
v -0.27240597 -0.10914357 -0.11506065
v -0.27137000 -0.09822481 -0.11154700
v -0.26551444 -0.07903372 -0.09884859
v -0.20192355 -0.10638107 -0.01737624
v -0.26944440 -0.07821007 -0.10077093
v -0.24880082 -0.07083141 -0.07218903
v -0.25284392 -0.06764730 -0.07434503
v -0.24259008 -0.07350878 -0.06481179
v -0.24493648 -0.06970627 -0.06353754
v -0.24519290 -0.06719808 -0.05988851
v -0.19371448 -0.11129012 -0.00865387
v -0.25965403 -0.07241002 -0.08893423
v -0.25498675 -0.06282087 -0.07100027
v -0.26427450 -0.06559167 -0.08532886
v -0.24840475 -0.06326218 -0.05869355
v -0.22602557 -0.08529625 -0.04306687
v -0.20907769 -0.10197799 -0.02588737
v -0.24184682 -0.06771556 -0.05107119
v -0.25251946 -0.05822509 -0.05557052
v -0.20640025 -0.10052750 -0.01207675
v -0.27100414 -0.06103279 -0.08455645
v -0.22511500 -0.08482730 -0.03790685
v -0.26385456 -0.05948501 -0.07687455
v -0.24246195 -0.06565449 -0.04403378
v -0.26258730 -0.05409571 -0.06395332
v -0.22096555 -0.08812149 -0.02637876
v -0.25431946 -0.05500384 -0.04797816
v -0.24143549 -0.06641142 -0.03908208
v -0.19493601 -0.10842700 -0.00269700
v -0.26603613 -0.04983181 -0.05729309
v -0.22460596 -0.08459174 -0.02100877
v -0.27001582 -0.05361984 -0.07128517
v -0.21574151 -0.09304000 -0.00980400
v -0.28079409 -0.04828288 -0.06774428
v -0.26183862 -0.04882353 -0.03504485
v -0.24918907 -0.05887769 -0.03587300
v -0.25443213 -0.05600260 -0.02249525
v -0.24286300 -0.07149000 0.00103700
v -0.24842300 -0.06393548 -0.01183980
v -0.22888558 -0.08194397 -0.01169983
v -0.23102978 -0.07944705 -0.01515047
v -0.24009350 -0.07413900 -0.00015000
v -0.22307800 -0.08817412 -0.00116312
v -0.23296000 -0.08113450 0.00500450
v -0.12157800 -0.09633825 0.10119950
v -0.15858900 -0.10144800 0.07702500
v -0.15759000 -0.11258975 0.05503900
v -0.16512699 -0.11376400 0.04497400
v -0.17327100 -0.11595600 0.02523500
v -0.16866000 -0.11375850 0.04066000
v -0.18797800 -0.11721825 -0.00636475
v -0.24290301 -0.10694000 -0.05635650
v -0.22819232 -0.12266664 -0.04049742
v -0.21251300 -0.13546025 -0.02571525
v -0.22524800 -0.12647950 -0.04034025
v -0.23469488 -0.11532178 -0.04582643
v -0.24282780 -0.10491305 -0.05262250
v -0.22330428 -0.12576401 -0.03453468
v -0.22197198 -0.12319002 -0.03265249
v -0.24037279 -0.10173069 -0.04992659
v -0.17005400 -0.15122750 0.01941075
v -0.16849597 -0.14951270 0.02134999
v -0.18085857 -0.14523319 0.00761119
v -0.15952050 -0.15490250 0.03418900
v -0.15858971 -0.15318636 0.03611764
v -0.15581400 -0.15248076 0.04159150
v -0.21698455 -0.11967769 -0.03046207
v -0.22709456 -0.11586588 -0.03773623
v -0.22409854 -0.10128267 -0.04454045
v -0.19791494 -0.11814462 -0.01838348
v -0.20949980 -0.12892974 -0.02160895
v -0.18369006 -0.13125357 0.00056480
v -0.20332451 -0.13316487 -0.01542927
v -0.19257223 -0.14103040 -0.00411693
v -0.17321664 -0.12693922 0.00895021
v -0.16815796 -0.13532296 0.01800596
v -0.16884855 -0.13849290 0.01879116
v -0.17076560 -0.14317605 0.01814266
v -0.18815384 -0.12143805 -0.00803264
v -0.16368412 -0.13960345 0.02582961
v -0.16255950 -0.14621502 0.02958218
v -0.16188255 -0.13010809 0.02340326
v -0.16568030 -0.12764024 0.01745279
v -0.15823442 -0.14670848 0.03644954
v -0.15581021 -0.13981278 0.03768278
v -0.15313542 -0.12732555 0.03484900
v -0.14744510 -0.12362553 0.04274103
v -0.14694278 -0.12582734 0.04438629
v -0.15218100 -0.14053699 0.04482300
v -0.14177500 -0.12417000 0.05360400
v -0.13365219 -0.11633450 0.06991456
v -0.13797000 -0.12146200 0.06040100
v -0.14389426 -0.12085708 0.05028507
v -0.16076267 -0.12181330 0.02662453
v -0.16573398 -0.12238369 0.01894601
v -0.15586907 -0.12385756 0.03089552
v -0.18011346 -0.12199416 0.00051697
v -0.18304590 -0.11841390 -0.00150056
v -0.16622049 -0.12482198 0.01658295
v -0.13015125 -0.11125125 0.07945925
v -0.12804827 -0.10664593 0.08615912
v -0.12384200 -0.09994100 0.09616000
v -0.12593362 -0.10414313 0.09137687
v -0.13215262 -0.11117473 0.07695108
v -0.17228582 -0.12023351 0.01231337
v -0.13395560 -0.10125809 0.08845870
v -0.14310760 -0.11796974 0.05629042
v -0.13981995 -0.10927874 0.07403023
v -0.14731773 -0.11634651 0.05553945
v -0.16641048 -0.11734984 0.03257735
f 219 201 188
f 219 210 201
f 210 194 201
f 194 210 216
f 223 216 210
f 223 221 216
f 223 230 221
f 233 230 223
f 233 234 230
f 234 232 230
f 230 232 229
f 232 228 229
f 69 229 228
f 69 79 229
f 79 30 229
f 30 29 229
f 227 229 29
f 229 227 221
f 231 229 221
f 221 227 226
f 226 218 221
f 226 217 218
f 225 217 226
f 29 225 226
f 225 29 32
f 32 93 225
f 225 93 217
f 217 93 42
f 217 42 220
f 209 217 220
f 209 220 215
f 220 222 215
f 220 67 222
f 67 224 222
f 222 224 71
f 71 211 222
f 222 211 213
f 211 204 213
f 213 204 202
f 203 213 202
f 215 213 203
f 173 203 202
f 197 203 173
f 173 202 189
f 189 202 174
f 202 193 174
f 202 195 193
f 202 169 195
f 163 195 169
f 195 163 153
f 163 160 153
f 163 165 160
f 165 161 160
f 165 162 161
f 166 162 165
f 169 166 165
f 168 166 169
f 169 211 168
f 211 166 168
f 171 166 211
f 166 171 162
f 171 164 162
f 167 164 171
f 170 167 171
f 71 170 171
f 71 92 170
f 170 92 167
f 92 164 167
f 164 92 87
f 92 46 87
f 87 46 162
f 46 159 162
f 162 159 157
f 162 157 158
f 158 157 155
f 158 155 153
f 161 158 153
f 155 152 153
f 152 149 153
f 153 149 150
f 156 153 150
f 176 153 156
f 176 156 192
f 176 192 191
f 176 191 185
f 176 185 15
f 185 191 15
f 15 191 14
f 191 190 14
f 14 190 12
f 12 190 10
f 10 190 11
f 190 137 11
f 190 146 137
f 148 146 190
f 190 191 148
f 191 151 148
f 156 151 191
f 151 146 148
f 142 146 151
f 151 145 142
f 149 145 151
f 149 143 145
f 149 147 143
f 149 154 147
f 157 154 149
f 61 147 154
f 154 157 61
f 147 86 143
f 147 51 86
f 61 51 147
f 86 51 52
f 86 52 141
f 141 52 70
f 141 70 78
f 141 78 140
f 145 141 140
f 145 140 146
f 146 140 139
f 146 139 138
f 139 140 138
f 138 140 78
f 138 78 136
f 138 136 11
f 11 136 9
f 78 76 136
f 76 64 136
f 64 81 136
f 81 4 136
f 136 4 9
f 81 5 4
f 81 7 5
f 81 80 7
f 65 80 81
f 65 72 80
f 72 68 80
f 72 73 68
f 52 73 72
f 77 73 52
f 77 90 73
f 47 90 77
f 60 90 47
f 60 56 90
f 56 74 90
f 56 59 74
f 59 63 74
f 73 74 63
f 73 63 68
f 68 63 80
f 80 63 82
f 80 82 8
f 8 82 6
f 82 66 6
f 82 2 66
f 82 62 2
f 62 89 2
f 66 2 1
f 63 62 82
f 59 62 63
f 44 59 56
f 57 59 44
f 57 84 59
f 84 85 59
f 85 96 59
f 85 108 96
f 96 108 88
f 108 98 88
f 108 132 98
f 106 132 108
f 103 106 108
f 105 103 108
f 106 98 132
f 88 98 75
f 98 3 75
f 84 108 85
f 84 101 108
f 101 99 108
f 99 105 108
f 100 101 84
f 131 100 84
f 104 100 131
f 107 104 131
f 102 107 131
f 49 102 131
f 49 131 83
f 83 131 53
f 53 131 58
f 50 83 53
f 49 83 50
f 49 50 48
f 43 49 48
f 43 48 39
f 39 48 41
f 41 48 44
f 48 58 44
f 48 53 58
f 41 44 45
f 45 44 60
f 41 45 46
f 46 45 51
f 51 45 55
f 45 47 55
f 55 47 52
f 41 46 92
f 40 41 92
f 40 92 36
f 36 92 71
f 67 36 71
f 34 36 67
f 42 34 67
f 34 42 28
f 28 42 93
f 28 93 32
f 26 28 32
f 54 26 32
f 29 54 32
f 27 54 29
f 31 27 29
f 31 29 30
f 31 30 79
f 95 31 79
f 95 97 31
f 94 31 97
f 94 25 31
f 31 25 26
f 31 26 27
f 27 26 54
f 25 28 26
f 24 28 25
f 24 23 28
f 28 23 34
f 23 36 34
f 23 33 36
f 33 37 36
f 37 38 36
f 37 35 38
f 35 115 38
f 115 135 38
f 115 116 135
f 135 116 134
f 116 119 134
f 119 43 134
f 128 43 119
f 128 130 43
f 130 129 43
f 43 129 133
f 43 133 49
f 133 129 49
f 116 118 119
f 125 118 116
f 114 125 116
f 113 114 116
f 115 113 116
f 113 115 35
f 112 113 35
f 111 113 112
f 110 113 111
f 109 110 111
f 109 126 110
f 124 126 109
f 117 124 109
f 122 117 109
f 120 117 122
f 120 122 121
f 121 122 33
f 123 120 121
f 123 121 24
f 24 121 23
f 127 117 120
f 122 109 33
f 33 109 35
f 109 111 112
f 109 112 35
f 38 135 39
f 135 134 39
f 33 35 37
f 121 33 23
f 36 38 40
f 38 41 40
f 39 41 38
f 134 43 39
f 48 50 53
f 129 102 49
f 129 130 102
f 131 84 58
f 59 96 88
f 58 84 57
f 58 57 44
f 44 56 60
f 45 60 47
f 90 74 73
f 47 77 52
f 80 8 7
f 64 65 81
f 52 65 64
f 52 72 65
f 78 64 76
f 70 64 78
f 52 64 70
f 55 52 51
f 143 86 141
f 144 143 141
f 145 143 144
f 142 145 146
f 146 138 137
f 137 138 11
f 175 176 15
f 172 176 175
f 193 176 172
f 172 175 20
f 177 172 20
f 177 20 21
f 16 177 21
f 173 177 16
f 173 16 17
f 173 17 178
f 198 173 178
f 198 178 183
f 198 183 206
f 206 200 198
f 208 200 206
f 208 206 212
f 214 208 212
f 214 212 216
f 218 214 216
f 212 207 216
f 209 208 214
f 208 209 205
f 205 209 203
f 205 203 200
f 200 203 199
f 199 203 198
f 203 196 198
f 203 197 196
f 197 173 196
f 212 206 207
f 207 206 180
f 207 180 194
f 206 179 180
f 206 181 179
f 179 181 187
f 181 184 187
f 187 184 259
f 187 259 258
f 250 258 259
f 259 19 250
f 19 22 250
f 250 22 247
f 258 250 247
f 258 247 246
f 249 258 246
f 261 258 249
f 257 258 261
f 187 257 261
f 187 261 260
f 260 261 262
f 262 261 263
f 262 263 264
f 263 248 264
f 248 244 264
f 264 244 253
f 264 253 268
f 266 264 268
f 267 266 268
f 270 267 268
f 270 268 274
f 272 270 274
f 276 272 274
f 275 276 274
f 278 276 275
f 278 277 276
f 283 277 278
f 282 283 278
f 294 283 282
f 294 282 281
f 290 294 281
f 291 294 290
f 291 292 294
f 292 291 293
f 282 278 280
f 277 273 276
f 277 286 273
f 286 289 273
f 286 285 289
f 285 287 289
f 295 287 285
f 295 288 287
f 288 269 287
f 288 260 269
f 182 260 288
f 182 180 260
f 188 180 182
f 269 262 287
f 265 287 262
f 287 265 273
f 265 262 273
f 273 262 266
f 272 273 266
f 295 285 284
f 300 295 284
f 300 288 295
f 239 288 300
f 240 239 300
f 238 240 300
f 237 238 300
f 299 237 300
f 299 300 297
f 297 300 283
f 294 297 283
f 294 298 297
f 294 296 298
f 296 236 298
f 236 237 298
f 235 236 296
f 235 296 292
f 296 294 292
f 298 299 297
f 299 298 237
f 288 239 241
f 241 182 288
f 300 284 283
f 286 284 285
f 284 286 277
f 283 284 277
f 289 287 273
f 279 278 275
f 275 274 279
f 279 274 256
f 256 274 255
f 274 252 255
f 271 252 274
f 271 268 252
f 274 268 271
f 255 252 254
f 252 251 254
f 252 253 251
f 253 244 251
f 256 255 254
f 276 273 272
f 270 272 266
f 270 266 267
f 268 253 252
f 248 245 244
f 243 245 248
f 243 246 245
f 246 242 245
f 247 242 246
f 242 247 13
f 266 262 264
f 261 248 263
f 269 260 262
f 180 187 260
f 261 249 248
f 248 249 243
f 249 246 243
f 22 13 247
f 258 257 187
f 184 19 259
f 181 183 184
f 184 183 18
f 183 178 18
f 179 187 186
f 180 179 186
f 208 205 200
f 200 199 198
f 206 183 181
f 198 196 173
f 178 17 18
f 21 20 15
f 20 175 15
f 192 156 191
f 193 153 176
f 156 150 151
f 149 151 150
f 152 157 149
f 155 157 152
f 159 91 157
f 159 46 91
f 46 157 91
f 46 51 157
f 164 87 162
f 162 158 161
f 160 161 153
f 169 165 163
f 195 153 193
f 193 172 174
f 173 174 172
f 177 173 172
f 189 174 173
f 204 169 202
f 211 169 204
f 71 171 211
f 67 71 224
f 215 222 213
f 209 215 203
f 214 217 209
f 42 67 220
f 217 214 218
f 226 227 29
f 230 229 231
f 230 231 221
f 221 218 216
f 194 216 207
f 194 180 201
f 201 180 188

