v -0.126326 -0.16458 0.14801
v -0.126435 -0.168986 0.146459
v -0.12385 -0.165917 0.151742
v -0.124068 -0.16158 0.153476
v -0.123169 -0.174479 0.14807
v -0.123606 -0.170243 0.149986
v -0.120327 -0.175751 0.151591
v -0.110717 -0.183723 0.159577
v -0.11373 -0.182459 0.156234
v -0.116743 -0.181195 0.15289
v -0.119756 -0.179931 0.149547
v -0.117739 -0.183048 0.146628
v -0.122229 -0.178449 0.145909
v -0.124371 -0.176869 0.142076
v -0.128052 -0.171741 0.140649
v -0.112356 -0.186041 0.153549
v -0.11529 -0.184766 0.150171
v -0.107556 -0.184908 0.162859
v -0.0776985 -0.18985 0.187246
v -0.0815989 -0.189546 0.184219
v -0.0854993 -0.189242 0.181192
v -0.0893997 -0.188938 0.178165
v -0.0751983 -0.186002 0.192208
v -0.0790987 -0.185698 0.189181
v -0.0697709 -0.189909 0.193383
v -0.073775 -0.190055 0.190288
v -0.12455 -0.152986 0.156883
v -0.0712602 -0.186142 0.195259
v -0.0828954 -0.185431 0.186145
v -0.0866632 -0.185174 0.183107
v -0.0931543 -0.188588 0.175141
v -0.0902683 -0.184705 0.180095
v -0.0938592 -0.184217 0.177084
v -0.0837915 -0.181309 0.188059
v -0.0873824 -0.180822 0.185049
v -0.0909732 -0.180334 0.182039
v -0.0945641 -0.179846 0.179028
v -0.0952691 -0.175476 0.180972
v -0.0988599 -0.174988 0.177962
v -0.0974376 -0.183489 0.174047
v -0.101005 -0.182552 0.170985
v -0.104572 -0.181614 0.167923
v -0.0981516 -0.179292 0.17601
v -0.101719 -0.178355 0.172949
v -0.102433 -0.174158 0.174912
v -0.105204 -0.177381 0.169855
v -0.105578 -0.173037 0.171686
v -0.111333 -0.179515 0.161642
v -0.108381 -0.176264 0.166639
v -0.108717 -0.171913 0.168457
v -0.11433 -0.178252 0.158297
v -0.117312 -0.176979 0.154942
v -0.111594 -0.175122 0.163417
v -0.114575 -0.173849 0.160062
v -0.111839 -0.17072 0.165182
v -0.108043 -0.180614 0.164816
v -0.106247 -0.168871 0.173696
v -0.109241 -0.167664 0.170377
v -0.103491 -0.170298 0.177043
v -0.109324 -0.166515 0.176617
v -0.112545 -0.16431 0.179531
v -0.114858 -0.162591 0.175891
v -0.111634 -0.164778 0.173004
v -0.113859 -0.163064 0.169335
v -0.116084 -0.16135 0.165666
v -0.117063 -0.160768 0.172241
v -0.119056 -0.158883 0.168494
v -0.120802 -0.156815 0.164663
v -0.122464 -0.154652 0.160723
v -0.121881 -0.156138 0.171276
v -0.123509 -0.153999 0.167239
v -0.125137 -0.15186 0.163202
v -0.124286 -0.153136 0.173795
v -0.125823 -0.150926 0.169772
v -0.125239 -0.149105 0.176053
v -0.122186 -0.154952 0.17768
v -0.122839 -0.150709 0.179863
v -0.120657 -0.147692 0.185699
v -0.118474 -0.144675 0.191536
v -0.117021 -0.153146 0.187005
v -0.119989 -0.151933 0.183501
v -0.111828 -0.151338 0.196296
v -0.114796 -0.150125 0.192792
v -0.117763 -0.148912 0.189288
v -0.109603 -0.148317 0.202083
v -0.11257 -0.147104 0.198579
v -0.115538 -0.145891 0.195075
v -0.113548 -0.158733 0.188261
v -0.116415 -0.157461 0.184742
v -0.119283 -0.156189 0.181223
v -0.111239 -0.155663 0.194035
v -0.114107 -0.154391 0.190517
v -0.10893 -0.152593 0.19981
v -0.115265 -0.161515 0.182325
v -0.112491 -0.162825 0.185847
v -0.106905 -0.166941 0.186287
v -0.103957 -0.168143 0.189626
v -0.100794 -0.170361 0.18662
v -0.10065 -0.171564 0.180368
v -0.094563 -0.173478 0.186828
v -0.0975695 -0.172455 0.18359
v -0.0977648 -0.171381 0.189873
v -0.100967 -0.169284 0.192917
v -0.091495 -0.174456 0.190047
v -0.0912753 -0.17307 0.196201
v -0.0945816 -0.172272 0.193056
v -0.0846171 -0.175571 0.196361
v -0.0881292 -0.175146 0.193198
v -0.0878398 -0.173634 0.199358
v -0.0810883 -0.175946 0.199524
v -0.073561 -0.175227 0.211889
v -0.0770579 -0.174887 0.208698
v -0.0729369 -0.173818 0.217818
v -0.0764339 -0.173478 0.214627
v -0.0683076 -0.171671 0.227227
v -0.0722456 -0.172315 0.223826
v -0.070808 -0.169316 0.229477
v -0.0615354 -0.168222 0.233889
v -0.0673686 -0.167534 0.232725
v -0.0583018 -0.16605 0.23702
v -0.0644767 -0.165209 0.236134
v -0.0614085 -0.16256 0.238186
v -0.0647575 -0.158788 0.238157
v -0.067916 -0.161796 0.23695
v -0.0717683 -0.15888 0.237012
v -0.0689357 -0.155702 0.238992
v -0.0734899 -0.145757 0.238592
v -0.0769245 -0.142725 0.236876
v -0.0774665 -0.136207 0.235903
v -0.080185 -0.133498 0.233189
v -0.0828778 -0.130794 0.230443
v -0.0852985 -0.128154 0.227408
v -0.088096 -0.131825 0.226426
v -0.0826626 -0.137243 0.231849
v -0.0855526 -0.134493 0.229328
v -0.0797907 -0.139987 0.234381
v -0.0789832 -0.146555 0.235024
v -0.0818235 -0.143829 0.232487
v -0.0760989 -0.14924 0.236991
v -0.0726079 -0.152433 0.238216
v -0.0749671 -0.155797 0.235989
v -0.0705753 -0.164455 0.234321
v -0.0740673 -0.161396 0.233719
v -0.0745863 -0.169769 0.226163
v -0.0829973 -0.170929 0.214348
v -0.0873128 -0.172146 0.205356
v -0.0909765 -0.171656 0.202287
v -0.0794929 -0.171572 0.217506
v -0.0864378 -0.170223 0.211155
v -0.0899619 -0.169498 0.208064
v -0.0780253 -0.169077 0.222976
v -0.093322 -0.168619 0.204981
v -0.0966357 -0.167695 0.201901
v -0.0999308 -0.166784 0.198801
v -0.10314 -0.165852 0.195623
v -0.106278 -0.164866 0.192387
v -0.109416 -0.16388 0.18915
v -0.104324 -0.161896 0.198184
v -0.107473 -0.160914 0.194949
v -0.105127 -0.157796 0.200681
v -0.101036 -0.162886 0.201361
v -0.0951465 -0.160886 0.210226
v -0.0984574 -0.159833 0.207025
v -0.101768 -0.158781 0.203824
v -0.0925679 -0.157833 0.21589
v -0.0958788 -0.15678 0.212688
v -0.0991897 -0.155728 0.209487
v -0.102501 -0.154675 0.206286
v -0.105811 -0.153622 0.203085
v -0.102888 -0.150523 0.208601
v -0.106295 -0.149475 0.205418
v -0.0911054 -0.165737 0.210674
v -0.0944154 -0.164813 0.207594
v -0.0977254 -0.163888 0.204514
v -0.0918364 -0.161815 0.213311
v -0.0877921 -0.166663 0.213727
v -0.081895 -0.164594 0.222457
v -0.0852095 -0.163667 0.219414
v -0.0885241 -0.162741 0.216371
v -0.089256 -0.158819 0.219015
v -0.0813859 -0.168317 0.219885
v -0.0845597 -0.167516 0.216797
v -0.0786806 -0.165431 0.225533
v -0.075711 -0.166169 0.228589
v -0.0726966 -0.182257 0.197245
v -0.0717851 -0.179906 0.203194
v -0.075127 -0.179277 0.199968
v -0.0784689 -0.178648 0.196742
v -0.0818107 -0.178019 0.193516
v -0.0851526 -0.177389 0.190289
v -0.0708737 -0.177555 0.209143
v -0.0742155 -0.176926 0.205917
v -0.0775574 -0.176297 0.202691
v -0.080583 -0.174526 0.20553
v -0.0842175 -0.174079 0.202448
v -0.0800287 -0.173062 0.211514
v -0.0836633 -0.172615 0.208432
v -0.07584 -0.172046 0.22058
v -0.0943338 -0.170887 0.199172
v -0.0976591 -0.170088 0.196052
v -0.110609 -0.159922 0.191703
v -0.108252 -0.156796 0.197426
v -0.109067 -0.14398 0.203679
v -0.11241 -0.142797 0.200348
v -0.115768 -0.141595 0.197035
v -0.126973 -0.156032 0.151496
v -0.12104 -0.143396 0.187714
v -0.118082 -0.140256 0.193058
v -0.0994467 -0.151575 0.211752
v -0.0915388 -0.153611 0.216963
v -0.0954936 -0.152619 0.214373
v -0.0819216 -0.160658 0.224545
v -0.0857766 -0.159742 0.221928
v -0.117843 -0.160037 0.178741
v -0.120144 -0.158307 0.175107
v -0.103796 -0.169297 0.183335
v -0.106721 -0.168073 0.179996
v -0.109827 -0.165719 0.182933
v -0.0885834 -0.176831 0.187141
v -0.0918539 -0.176098 0.184035
v -0.0763553 -0.181916 0.19415
v -0.0801185 -0.18167 0.191099
v -0.0967413 -0.187691 0.172079
v -0.100348 -0.186764 0.169007
v -0.103955 -0.185837 0.165935
v -0.117654 -0.172663 0.156772
v -0.120756 -0.171499 0.153497
v -0.114925 -0.169541 0.161898
v -0.117992 -0.168365 0.158597
v -0.121035 -0.167181 0.155278
v -0.11213 -0.166397 0.166974
v -0.115173 -0.165214 0.163655
v -0.118216 -0.16403 0.160337
v -0.121259 -0.162846 0.157018
v -0.118439 -0.159695 0.162077
v -0.121482 -0.158511 0.158759
v -0.125779 -0.173186 0.144429
v -0.128644 -0.167598 0.142571
v -0.126597 -0.160292 0.149727
v -0.124174 -0.157246 0.155115
f 2 6 3 1
f 3 4 239 1
f 238 15 237 2
f 237 5 6 2
f 6 227 230 3
f 230 234 4 3
f 240 206 239 4
f 234 236 240 4
f 237 14 13 5
f 13 11 7 5
f 7 227 6 5
f 11 10 52 7
f 52 226 227 7
f 48 51 9 8
f 18 56 48 8
f 51 52 10 9
f 10 17 16 9
f 11 12 17 10
f 225 42 56 18
f 24 29 20 19
f 26 23 24 19
f 29 30 21 20
f 30 32 22 21
f 32 33 31 22
f 221 222 24 23
f 26 25 28 23
f 28 185 221 23
f 222 34 29 24
f 34 35 30 29
f 35 36 32 30
f 33 40 223 31
f 36 37 33 32
f 37 43 40 33
f 190 219 35 34
f 222 189 190 34
f 219 220 36 35
f 220 38 37 36
f 38 39 43 37
f 101 99 39 38
f 220 100 101 38
f 99 59 45 39
f 45 44 43 39
f 43 44 41 40
f 41 224 223 40
f 44 46 42 41
f 42 225 224 41
f 46 49 56 42
f 45 47 46 44
f 59 57 47 45
f 47 50 49 46
f 57 58 50 47
f 53 54 51 48
f 56 49 53 48
f 50 55 53 49
f 58 231 55 50
f 54 226 52 51
f 55 228 54 53
f 228 229 226 54
f 231 232 228 55
f 60 63 58 57
f 59 217 60 57
f 63 64 231 58
f 99 216 217 59
f 61 62 63 60
f 217 218 61 60
f 94 214 62 61
f 218 95 94 61
f 214 215 66 62
f 66 64 63 62
f 66 67 65 64
f 65 232 231 64
f 67 68 235 65
f 235 233 232 65
f 215 70 67 66
f 70 71 68 67
f 71 72 69 68
f 69 236 235 68
f 27 240 236 69
f 73 74 71 70
f 215 76 73 70
f 76 77 75 73
f 215 214 90 76
f 90 81 77 76
f 81 80 84 78
f 84 79 207 78
f 84 83 87 79
f 87 205 208 79
f 81 90 89 80
f 89 88 92 80
f 92 83 84 80
f 86 87 83 82
f 83 92 91 82
f 91 202 93 82
f 93 85 86 82
f 203 204 86 85
f 93 169 171 85
f 204 205 87 86
f 89 94 95 88
f 95 157 201 88
f 201 91 92 88
f 90 214 94 89
f 201 159 202 91
f 202 160 169 93
f 218 96 157 95
f 218 217 216 96
f 216 98 97 96
f 97 156 157 96
f 98 102 103 97
f 103 155 156 97
f 216 99 101 98
f 101 100 102 98
f 220 219 104 100
f 104 106 102 100
f 106 200 103 102
f 200 154 155 103
f 219 190 108 104
f 108 105 106 104
f 199 200 106 105
f 108 107 109 105
f 109 147 199 105
f 108 190 189 107
f 189 188 110 107
f 110 195 109 107
f 195 146 147 109
f 188 187 193 110
f 193 194 195 110
f 114 196 112 111
f 112 192 191 111
f 196 197 194 112
f 194 193 192 112
f 198 148 114 113
f 148 145 196 114
f 117 144 116 115
f 144 151 198 116
f 120 122 121 118
f 121 124 142 119
f 122 123 124 121
f 126 125 124 123
f 125 143 142 124
f 126 140 141 125
f 128 137 139 127
f 136 138 137 128
f 130 134 136 129
f 131 135 134 130
f 132 133 135 131
f 184 183 151 144
f 182 176 149 145
f 149 197 196 145
f 148 181 182 145
f 150 152 147 146
f 195 194 197 146
f 197 149 150 146
f 152 153 199 147
f 198 151 181 148
f 176 172 150 149
f 172 173 152 150
f 183 177 181 151
f 173 174 153 152
f 174 161 154 153
f 154 200 199 153
f 161 158 155 154
f 158 159 156 155
f 159 201 157 156
f 160 202 159 158
f 161 164 160 158
f 164 168 169 160
f 174 163 164 161
f 166 167 163 162
f 163 174 173 162
f 173 172 175 162
f 175 165 166 162
f 167 168 164 163
f 210 211 166 165
f 175 179 180 165
f 211 209 167 166
f 209 170 168 167
f 170 171 169 168
f 176 179 175 172
f 182 178 179 176
f 212 213 178 177
f 178 182 181 177
f 213 180 179 178
f 187 188 221 185
f 192 193 187 186
f 189 222 221 188
f 229 230 227 226
f 232 233 229 228
f 233 234 230 229
f 235 236 234 233
