# https://github.com/mikedh/trimesh
v -0.08016400 -0.12710300 0.23151401
v -0.09223775 -0.12486163 0.21994887
v -0.11529200 -0.13582300 0.19781899
v -0.12215500 -0.17954300 0.14229301
v -0.12625450 -0.17511050 0.14003950
v -0.12188300 -0.14419299 0.18617301
v -0.12368200 -0.14692900 0.18138650
v -0.12722651 -0.14886551 0.17186675
v -0.12651550 -0.14868100 0.15624249
v -0.12556999 -0.15134750 0.16284550
v -0.12947601 -0.16959451 0.14019751
v -0.08079964 -0.14685713 0.23319986
v -0.08715412 -0.13348327 0.22792930
v -0.07494283 -0.16875020 0.22716291
v -0.07798777 -0.16368110 0.22783309
v -0.09031109 -0.15788159 0.21861959
v -0.08448527 -0.13991360 0.23024318
v -0.10644321 -0.14668769 0.20628477
v -0.11686241 -0.14236812 0.19590635
v -0.10724643 -0.15013025 0.20418227
v -0.07296922 -0.15754402 0.23715194
v -0.10567694 -0.15715824 0.20062274
v -0.11280100 -0.16181500 0.18719968
v -0.07653058 -0.15555126 0.23518862
v -0.09633422 -0.15390144 0.21422405
v -0.10186372 -0.16535052 0.19832814
v -0.09020481 -0.16856616 0.20921204
v -0.07785568 -0.13902273 0.23605141
v -0.07355077 -0.14879003 0.23868816
v -0.07659741 -0.14622257 0.23741343
v -0.06932384 -0.15765882 0.23861198
v -0.08434017 -0.15927279 0.22265992
v -0.07306738 -0.16697605 0.23147463
v -0.07416693 -0.17169127 0.22401570
v -0.07747381 -0.13587844 0.23586218
v -0.07301800 -0.14337249 0.23867900
v -0.10156635 -0.16892200 0.19328601
v -0.05888592 -0.16710736 0.23584931
v -0.11015150 -0.14164000 0.20260751
v -0.10982480 -0.16513773 0.18661105
v -0.09906900 -0.14968000 0.21148300
v -0.05917900 -0.16013800 0.23965400
v -0.06192450 -0.15596651 0.23929000
v -0.05708400 -0.16519099 0.23817600
v -0.06807045 -0.16443261 0.23589128
v -0.06725119 -0.17083314 0.22945215
v -0.06907000 -0.15469850 0.23917000
v -0.12200297 -0.15644076 0.17683831
v -0.11359112 -0.16355554 0.18225024
v -0.09186593 -0.17096322 0.20352699
v -0.11955629 -0.15896862 0.17384263
v -0.09040148 -0.17270746 0.19940238
v -0.08141725 -0.15791181 0.22406513
v -0.10388400 -0.14674300 0.20783900
v -0.11431000 -0.16315600 0.17802000
v -0.06940542 -0.17328500 0.22344955
v -0.12158610 -0.15557587 0.15999761
v -0.10281756 -0.16911092 0.18811666
v -0.09752632 -0.17260813 0.18274697
v -0.10111516 -0.17182197 0.17776683
v -0.10644323 -0.18064740 0.16662273
v -0.11157473 -0.17994126 0.16115286
v -0.11937149 -0.17794648 0.15174858
v -0.10965770 -0.16790083 0.16941693
v -0.10856113 -0.18455409 0.16207469
v -0.09391725 -0.19139475 0.17187426
v -0.11599339 -0.16139381 0.16460052
v -0.11593719 -0.18442057 0.14961762
v -0.08213322 -0.18166982 0.18936905
v -0.12741675 -0.16939135 0.14481356
v -0.12110396 -0.16996528 0.15388960
v -0.10760036 -0.16774767 0.17316910
v -0.07112078 -0.18301335 0.19784261
v -0.09300305 -0.18950330 0.17473680
v -0.07077575 -0.17611951 0.21216038
v -0.07642750 -0.19360900 0.18549825
v -0.06286200 -0.18732800 0.20056801
v -0.12106224 -0.17921222 0.14834576
v -0.11242450 -0.18686901 0.15091400
v -0.11034900 -0.18684250 0.15606950
v -0.08835668 -0.17647338 0.18782486
v -0.11909066 -0.18216923 0.14354879
v -0.08173165 -0.17559189 0.20021073
f 57 11 70
f 57 70 71
f 71 70 78
f 78 63 71
f 65 63 78
f 65 78 68
f 68 78 82
f 4 82 78
f 5 4 78
f 11 5 78
f 79 68 82
f 80 68 79
f 65 68 80
f 65 80 66
f 74 65 66
f 74 66 76
f 73 74 76
f 77 73 76
f 69 74 73
f 69 60 74
f 60 61 74
f 60 64 61
f 64 62 61
f 64 63 62
f 61 62 65
f 72 64 60
f 72 67 64
f 49 72 60
f 49 55 72
f 55 51 72
f 51 67 72
f 51 57 67
f 57 64 67
f 48 57 51
f 48 10 57
f 10 9 57
f 8 10 48
f 7 8 48
f 19 7 48
f 19 48 20
f 48 23 20
f 48 49 23
f 40 23 49
f 58 40 49
f 37 40 58
f 37 58 59
f 59 58 60
f 59 60 81
f 37 59 81
f 52 37 81
f 83 52 81
f 75 83 81
f 75 34 83
f 56 34 75
f 46 34 56
f 33 34 46
f 33 46 38
f 38 45 33
f 44 45 38
f 42 45 44
f 42 43 45
f 43 31 45
f 31 21 45
f 21 24 45
f 43 47 31
f 47 29 31
f 36 29 47
f 36 30 29
f 36 35 30
f 35 28 30
f 35 13 28
f 1 13 35
f 1 2 13
f 28 13 17
f 17 30 28
f 17 12 30
f 12 24 30
f 29 30 24
f 29 24 31
f 31 24 21
f 24 33 45
f 33 14 34
f 14 50 34
f 50 52 34
f 14 27 50
f 27 26 50
f 26 37 50
f 26 23 37
f 22 23 26
f 22 26 20
f 16 20 26
f 25 20 16
f 18 20 25
f 16 26 27
f 16 27 15
f 14 15 27
f 33 15 14
f 75 81 73
f 34 52 83
f 50 37 52
f 23 40 37
f 22 20 23
f 18 19 20
f 39 19 18
f 39 3 19
f 19 3 6
f 39 18 54
f 54 18 41
f 41 18 25
f 41 25 53
f 53 25 16
f 53 16 32
f 53 32 15
f 32 16 15
f 6 7 19
f 49 48 51
f 49 51 55
f 58 49 60
f 81 60 69
f 81 69 73
f 61 65 74
f 62 63 65
f 71 63 64
f 57 71 64
f 70 11 78
f 9 11 57

