# https://github.com/mikedh/trimesh
v 0.05084825 -0.23687125 -0.17434674
v 0.04635328 -0.23554318 -0.16963120
v 0.05351593 -0.23105643 -0.16595913
v 0.03443284 -0.23362473 -0.16162962
v 0.03543800 -0.24068201 -0.17433900
v 0.02450200 -0.23950649 -0.16801345
v 0.00817800 -0.23505200 -0.15615800
v -0.00795022 -0.23634567 -0.15456232
v 0.00878276 -0.23822526 -0.16116852
v 0.03287039 -0.23777389 -0.16765887
v 0.03063400 -0.24242599 -0.17596900
v 0.01751882 -0.24259344 -0.17183815
v -0.00540199 -0.23464134 -0.15258192
v 0.01713657 -0.23401739 -0.15675075
v -0.04101974 -0.24188674 -0.16239841
v -0.06584798 -0.24193487 -0.16714648
v -0.05862992 -0.23727945 -0.15433231
v -0.04961221 -0.23825848 -0.15523742
v -0.03122539 -0.23819511 -0.15505174
v -0.03883832 -0.23501213 -0.14924954
v -0.08325025 -0.23896400 -0.16701675
v -0.05662300 -0.23411500 -0.14880000
v -0.06746818 -0.23350592 -0.14906833
v -0.07803857 -0.23786256 -0.16145897
v -0.07936210 -0.23423586 -0.15438033
v -0.02596906 -0.23253169 -0.14699610
v -0.08108300 -0.23134400 -0.15019301
v -0.08797559 -0.23625588 -0.16278141
v -0.04519528 -0.23362434 -0.14712006
v -0.10338575 -0.23294600 -0.16676925
v -0.07709733 -0.23043354 -0.14742836
v -0.09430383 -0.22961902 -0.15354620
v -0.09224544 -0.23282617 -0.15793812
v -0.08793913 -0.22967216 -0.15052357
v -0.06722708 -0.23150651 -0.14624197
v -0.03609417 -0.23139246 -0.14474699
v -0.07578176 -0.22745499 -0.14331466
v -0.09221282 -0.22770048 -0.14955359
v -0.05450349 -0.22640669 -0.13971008
v -0.11399800 -0.22825000 -0.16690900
v -0.06008100 -0.22533700 -0.13914999
v -0.05654208 -0.22916005 -0.14226530
v -0.09722009 -0.22523873 -0.14935171
v -0.10666694 -0.22306329 -0.15297468
v -0.10754137 -0.22795609 -0.16056977
v -0.13033512 -0.22164600 -0.17325625
v -0.07516574 -0.22422058 -0.14027542
v -0.08205590 -0.07690423 -0.11298687
v -0.08045990 -0.14160458 -0.12553002
v -0.07645883 -0.14741085 -0.12574675
v -0.07761152 -0.18793759 -0.12939740
v -0.07309700 -0.18615299 -0.12877700
v -0.08053595 -0.18898355 -0.12990902
v -0.07862629 -0.20034199 -0.13112158
v -0.06933117 -0.18038859 -0.12793831
v -0.07227612 -0.20483437 -0.13115032
v -0.06608065 -0.19302418 -0.12894493
v -0.06171088 -0.20268362 -0.13002123
v -0.04929350 -0.20136493 -0.12970489
v -0.05668166 -0.18284950 -0.12773422
v -0.05540580 -0.19519797 -0.12887784
v -0.04880313 -0.18144150 -0.12773223
v -0.04256300 -0.17659500 -0.12761000
v -0.04192101 -0.19175091 -0.12886226
v -0.03426500 -0.18224201 -0.12856500
v -0.03386830 -0.20098436 -0.13055149
v -0.01157680 -0.16882391 -0.12944149
v -0.02522732 -0.18988994 -0.12999017
v -0.02202400 -0.19615575 -0.13104144
v -0.02676700 -0.19737200 -0.13073701
v 0.00211297 -0.17050414 -0.13111025
v 0.03315745 -0.14508675 -0.13156401
v 0.01117531 -0.15802873 -0.13058818
v 0.01647507 -0.14681162 -0.12939135
v 0.00037674 -0.18949476 -0.13303682
v -0.00090263 -0.18284501 -0.13211086
v -0.01253060 -0.20024279 -0.13263023
v 0.02339403 -0.18350547 -0.13596787
v 0.02907991 -0.16465201 -0.13436627
v 0.02362128 -0.19614195 -0.13781807
v 0.03021081 -0.19733954 -0.13927831
v 0.04294290 -0.18628110 -0.14046502
v 0.04808366 -0.16821764 -0.13890321
v 0.06487854 -0.14471746 -0.13898199
v 0.06313299 -0.15588905 -0.14078780
v 0.07072508 -0.16444344 -0.14459614
v 0.05617712 -0.19475500 -0.14540071
v 0.05035883 -0.18795323 -0.14263284
v 0.04268228 -0.19439795 -0.14167817
v 0.04067761 -0.20368860 -0.14307266
v 0.01519395 -0.19860962 -0.13669772
v 0.00461644 -0.20306755 -0.13563827
v 0.01257679 -0.20617084 -0.13778279
v -0.00790481 -0.21032429 -0.13527995
v 0.01009741 -0.21585413 -0.14027749
v 0.02771433 -0.21073641 -0.14190281
v 0.06856458 -0.19720891 -0.14974929
v 0.07376450 -0.19080830 -0.15025964
v 0.04106859 -0.15077405 -0.13421949
v 0.03812800 -0.15529101 -0.13446100
v 0.04756362 -0.15318880 -0.13617100
v 0.00379186 -0.18902348 -0.13348826
v 0.00083699 -0.15508334 -0.12895588
v -0.02147347 -0.16197102 -0.12786622
v -0.04259221 -0.14567808 -0.12480925
v -0.01568806 -0.12944676 -0.12316346
v -0.06608890 -0.15960242 -0.12620104
v -0.03526067 -0.15855716 -0.12652548
v -0.05480542 -0.14609568 -0.12476582
v -0.02976847 -0.12870015 -0.12246551
v 0.00252056 -0.12589410 -0.12360468
v -0.00451385 -0.14312600 -0.12654252
v 0.01031255 -0.13404465 -0.12612054
v 0.01306817 -0.11425784 -0.12176717
v 0.01654400 -0.12869599 -0.12561700
v 0.02556423 -0.13110236 -0.12738876
v 0.03265277 -0.12146395 -0.12617846
v -0.00592577 -0.12198876 -0.12218367
v 0.00752138 -0.10901034 -0.11993337
v -0.00902374 -0.11506772 -0.12043360
v -0.05004236 -0.11604699 -0.11999435
v -0.04320006 -0.09569068 -0.11536725
v -0.06210524 -0.09911719 -0.11683865
v -0.07872195 -0.08964768 -0.11588239
v -0.06173056 -0.08716643 -0.11380862
v -0.04115422 -0.08155364 -0.11116949
v -0.05707744 -0.08365023 -0.11259295
v -0.04517296 -0.04751178 -0.09995349
v -0.05432659 -0.06643088 -0.10704539
v -0.01709424 -0.07445654 -0.10849269
v -0.00170988 -0.06398658 -0.10523567
v -0.00681951 -0.05693281 -0.10270109
v -0.01094543 -0.04678543 -0.09927587
v -0.02938319 -0.03514099 -0.09561120
v -0.03499473 -0.03534713 -0.09575744
v -0.04983910 -0.02944668 -0.09472478
v -0.05310173 -0.02342494 -0.09349530
v -0.06104695 -0.02508212 -0.09435513
v -0.04596093 -0.04356005 -0.09859625
v -0.06997127 -0.04689303 -0.10186021
v -0.07478859 -0.07019570 -0.11018358
v -0.07405605 -0.03733918 -0.09927621
v -0.08203253 -0.04328710 -0.10220913
v -0.06204755 -0.03964401 -0.09861615
v -0.08119207 -0.03404424 -0.09931418
v -0.11362810 -0.06058493 -0.11437636
v -0.11801670 -0.03630605 -0.10835981
v -0.13084642 -0.06113905 -0.11961666
v -0.13104301 -0.07433012 -0.12346435
v -0.14263825 -0.06764300 -0.12588853
v -0.13539362 -0.09877546 -0.13117054
v -0.14204900 -0.09649900 -0.13333300
v -0.13151889 -0.14659061 -0.13997952
v -0.15235811 -0.09696872 -0.13812092
v -0.15196135 -0.12201085 -0.14450069
v -0.14528811 -0.11607901 -0.13967390
v -0.14162108 -0.14348569 -0.14438663
v -0.15559401 -0.10991900 -0.14328200
v -0.14095998 -0.03999292 -0.11773657
v -0.16874037 -0.07621198 -0.14135005
v -0.16386019 -0.08196617 -0.14002310
v -0.15435370 -0.10054019 -0.14009482
v -0.14952921 -0.14554828 -0.14949104
v -0.15615622 -0.06517144 -0.13129173
v -0.15382374 -0.05648798 -0.12771198
v -0.14646662 -0.08578680 -0.13234004
v -0.13249426 -0.04732168 -0.11617184
v -0.14788558 -0.05881521 -0.12556840
v -0.13121394 -0.10285509 -0.13060144
v -0.12041237 -0.04370712 -0.11107732
v -0.10391899 -0.03870448 -0.10514323
v -0.09774877 -0.03774521 -0.10335771
v -0.08841000 -0.03216147 -0.09985290
v -0.08763832 -0.04613837 -0.10405855
v -0.09066238 -0.05906840 -0.10888694
v -0.12071772 -0.07186629 -0.11968661
v -0.11527286 -0.08477720 -0.12183359
v -0.10335300 -0.07895500 -0.11738600
v -0.08863208 -0.07231377 -0.11266298
v -0.08942514 -0.08530229 -0.11637760
v -0.10193857 -0.08203155 -0.11790914
v -0.10339158 -0.09985879 -0.12256035
v -0.09748233 -0.10297272 -0.12201632
v -0.10549733 -0.12577924 -0.12762192
v -0.09038372 -0.12866076 -0.12515870
v -0.10556960 -0.13333483 -0.12878858
v -0.10772710 -0.10620857 -0.12484297
v -0.11157044 -0.14400349 -0.13206248
v -0.12193490 -0.12212937 -0.13158230
v -0.11974171 -0.14800038 -0.13541814
v -0.07789127 -0.17280566 -0.12798740
v -0.10394536 -0.06489414 -0.11335015
v -0.08288300 -0.06076700 -0.10818600
v -0.07170841 -0.02379339 -0.09529215
v -0.04752368 -0.03365855 -0.09566270
v -0.00813948 -0.03757490 -0.09662006
v -0.01738692 -0.02491139 -0.09352812
v 0.01242852 -0.04368643 -0.09953085
v 0.00375857 -0.02881308 -0.09544160
v -0.01412600 -0.05664100 -0.10248400
v -0.02854875 -0.04371319 -0.09808325
v -0.07992140 -0.10114393 -0.11873646
v -0.07377628 -0.10805509 -0.11959496
v -0.08122519 -0.11787649 -0.12217765
v -0.06618195 -0.12047160 -0.12143876
v -0.05870326 -0.11550283 -0.12013415
v -0.05327362 -0.09928569 -0.11647208
v -0.02754875 -0.11944462 -0.12080518
v -0.03143305 -0.09892275 -0.11606725
v -0.03449546 -0.07042485 -0.10739121
v -0.01393909 -0.09763519 -0.11575675
v -0.01096828 -0.10442271 -0.11774189
v -0.00851510 -0.08155024 -0.11085477
v 0.00175992 -0.09096937 -0.11431908
v 0.00222968 -0.07747513 -0.10999696
v 0.00905993 -0.05732527 -0.10361681
v 0.00310140 -0.04339345 -0.09874088
v 0.00831772 -0.06808939 -0.10723266
v -0.00194998 -0.09976398 -0.11681520
v 0.02635314 -0.07480408 -0.11127867
v 0.01301437 -0.09399682 -0.11614345
v 0.02671150 -0.09450620 -0.11778566
v 0.02924950 -0.05399202 -0.10478825
v 0.02978478 -0.09825131 -0.11933845
v 0.03929086 -0.05789558 -0.10788403
v 0.03674017 -0.04889117 -0.10461051
v 0.04019240 -0.06375434 -0.10991183
v 0.04200100 -0.08922500 -0.11860900
v 0.04040441 -0.10058529 -0.12185649
v 0.05153164 -0.06551697 -0.11323792
v 0.05431323 -0.06447751 -0.11365867
v 0.04640143 -0.04917420 -0.10694707
v 0.06800899 -0.06077467 -0.11720417
v 0.06089639 -0.09596291 -0.12552324
v 0.05519363 -0.09575594 -0.12377252
v 0.06518636 -0.10141150 -0.12844716
v 0.05954829 -0.04927576 -0.11106510
v 0.07729458 -0.10074484 -0.13240551
v 0.08330444 -0.09017896 -0.13193681
v 0.09766128 -0.09972004 -0.14105771
v 0.08970600 -0.11666200 -0.14174800
v 0.07726863 -0.11558941 -0.13639493
v 0.09124310 -0.12834537 -0.14501829
v 0.08221596 -0.14715538 -0.14532383
v 0.07670834 -0.14460858 -0.14281973
v 0.09316358 -0.14791140 -0.14988888
v 0.09944800 -0.15217800 -0.15337101
v 0.07665749 -0.19019095 -0.15117207
v 0.08858100 -0.17254600 -0.15255301
v 0.08595668 -0.18726565 -0.15425320
v 0.09982364 -0.11888508 -0.14675740
v 0.10435426 -0.14595261 -0.15445995
v 0.11749207 -0.08778087 -0.14939604
v 0.12003433 -0.10187336 -0.15403130
v 0.10654405 -0.06908253 -0.13845995
v 0.09879563 -0.06980734 -0.13403433
v 0.10502447 -0.07968922 -0.14012715
v 0.08322558 -0.05330086 -0.12191984
v 0.09759650 -0.05920900 -0.13103600
v 0.07807158 -0.06415338 -0.12225082
v 0.07791447 -0.06027597 -0.12111900
v 0.08006868 -0.07090474 -0.12506424
v 0.07373366 -0.07851332 -0.12456271
v 0.08890335 -0.08633430 -0.13338812
v 0.10730650 -0.10244617 -0.14692713
v 0.12074300 -0.06550150 -0.14719350
v 0.11506477 -0.07059364 -0.14421638
v 0.12849104 -0.09904621 -0.15880488
v 0.13426389 -0.09983316 -0.16285757
v 0.12541940 -0.07892002 -0.15255775
v 0.14780600 -0.08059500 -0.16894400
v 0.14466326 -0.08302439 -0.16695036
v 0.14181700 -0.08868900 -0.16588800
v 0.12288861 -0.13976103 -0.16321230
v 0.12029046 -0.11710920 -0.15727843
v 0.11369582 -0.14296786 -0.15863775
v 0.12513382 -0.15872816 -0.16790668
v 0.11756999 -0.18213443 -0.16814681
v 0.11248236 -0.17348072 -0.16355049
v 0.10169397 -0.18172008 -0.15977239
v 0.12721787 -0.14193241 -0.16623735
v 0.13762463 -0.15570546 -0.17539090
v 0.13146619 -0.12700439 -0.16610384
v 0.14594796 -0.11617355 -0.17387651
v 0.14008656 -0.13520435 -0.17339379
v 0.12727875 -0.16903534 -0.17124743
v 0.14229586 -0.15348442 -0.17819977
v 0.14004040 -0.16161528 -0.17825871
v 0.12837145 -0.17657353 -0.17371782
v 0.14645463 -0.10070658 -0.17135884
v 0.15897714 -0.12244838 -0.18468876
v 0.17407825 -0.11333223 -0.19536833
v 0.16919155 -0.10971442 -0.19057226
v 0.18579358 -0.09227766 -0.20223809
v 0.18895800 -0.08385200 -0.20427001
v 0.17061600 -0.08013400 -0.18733600
v 0.15289288 -0.09385393 -0.17493201
v 0.16824588 -0.09002517 -0.18662995
v 0.18376041 -0.10541299 -0.20251161
v 0.17675080 -0.11617257 -0.19828369
v 0.15136927 -0.14601688 -0.18328917
v 0.16622228 -0.12548016 -0.19086523
v 0.15947773 -0.14864805 -0.19028163
v 0.14687170 -0.16564254 -0.18415008
v 0.16245399 -0.15066500 -0.19344200
v 0.16363691 -0.14513105 -0.19309982
v 0.16410582 -0.15783898 -0.19695472
v 0.14327515 -0.17609818 -0.18457384
v 0.17065903 -0.16665269 -0.20682854
v 0.14919563 -0.17625793 -0.18987276
v 0.17426622 -0.13931150 -0.20122554
v 0.18504686 -0.12722848 -0.20817384
v 0.19011996 -0.11860261 -0.21087055
v 0.19081702 -0.11074353 -0.21007204
v 0.18580305 -0.13754104 -0.21158785
v 0.19136457 -0.13693647 -0.21696558
v 0.20202442 -0.11919170 -0.22300133
v 0.20245812 -0.12751487 -0.22580936
v 0.20660511 -0.10702923 -0.22504052
v 0.19911146 -0.10593362 -0.21734241
v 0.19659400 -0.10102700 -0.21406201
v 0.20441705 -0.09090278 -0.22034857
v 0.21312900 -0.09148550 -0.22964300
v 0.21081725 -0.10039111 -0.22837753
v 0.21530925 -0.11027275 -0.23552550
v 0.21400026 -0.10863352 -0.23354816
v 0.20972525 -0.08347550 -0.22520900
v 0.21115347 -0.11728406 -0.23244433
v 0.18514695 -0.14896305 -0.21470389
v 0.18791699 -0.15576350 -0.22074951
v 0.19523750 -0.14555800 -0.22454751
v 0.19374296 -0.13806036 -0.21985913
v 0.20658975 -0.12885450 -0.23100475
v 0.10665423 -0.11922120 -0.15032451
v 0.09775232 -0.17673557 -0.15705740
v 0.06402541 -0.12051340 -0.13303355
v 0.06315788 -0.13410900 -0.13603684
v 0.05100373 -0.09950912 -0.12386332
v 0.04642260 -0.14084777 -0.13332407
v 0.03122609 -0.11437263 -0.12404270
v 0.04347189 -0.10315654 -0.12321724
v 0.00146100 -0.10786700 -0.11921600
v -0.04946193 -0.13149642 -0.12265118
v -0.05567754 -0.12745670 -0.12210599
v -0.02391478 -0.14419910 -0.12539630
v -0.07466305 -0.15645229 -0.12637973
v 0.03217021 -0.10218194 -0.12088852
v 0.04667313 -0.12183733 -0.12890618
v -0.07922052 -0.12905146 -0.12377368
v -0.05995362 -0.13693275 -0.12358126
v 0.15840009 -0.16528182 -0.19417283
v 0.00703934 -0.04800326 -0.10044346
v 0.06318966 -0.05113385 -0.11273245
v 0.07359375 -0.04910250 -0.11665125
v -0.09451821 -0.15113524 -0.12857254
v -0.08543500 -0.13107300 -0.12476800
v -0.12390114 -0.10123249 -0.12791532
v -0.12367958 -0.07953920 -0.12258568
v -0.08399361 -0.18306269 -0.12969145
v -0.02541744 -0.20661437 -0.13234529
v 0.02998814 -0.04452572 -0.10208829
v 0.03643630 -0.03913107 -0.10219844
v 0.03233800 -0.03309500 -0.10041900
v 0.02397844 -0.04025904 -0.10008093
v 0.02317132 -0.03542977 -0.09905855
v 0.04330277 -0.03698259 -0.10360467
v 0.04736650 -0.03616800 -0.10468150
v 0.05192159 -0.04847578 -0.10835628
v 0.01187823 -0.03097940 -0.09666522
v 0.05563416 -0.04329050 -0.10826216
v -0.04177782 -0.20745187 -0.13119011
v 0.06168550 -0.04002025 -0.11007125
v 0.04517213 -0.21068197 -0.14640063
v 0.07042510 -0.20284171 -0.15191343
v -0.00451984 -0.21258591 -0.13661453
v -0.03226022 -0.01658000 -0.09175381
v -0.00856070 -0.02429254 -0.09386143
v 0.05227837 -0.20480336 -0.14650407
v -0.01085045 -0.21330295 -0.13581599
v 0.06788700 -0.04387800 -0.11316600
v -0.03248223 -0.21181749 -0.13292212
v 0.07301097 -0.20754330 -0.15462055
v -0.04540682 -0.21139238 -0.13194783
v -0.04036152 -0.02437101 -0.09313943
v 0.05951331 -0.20787416 -0.14984758
v -0.03551513 -0.00953150 -0.09158625
v 0.00240700 -0.02173250 -0.09458925
v -0.01371130 -0.21886684 -0.13766649
v 0.02054221 -0.21812962 -0.14340282
v 0.11100045 -0.18259345 -0.16472305
v -0.03147656 -0.02281558 -0.09269504
v 0.05924732 -0.21053995 -0.15076604
v 0.09260929 -0.19401948 -0.15848002
v -0.03532805 -0.21716250 -0.13459654
v -0.04527028 -0.22139188 -0.13613883
v -0.05392326 -0.21732161 -0.13389215
v -0.05726420 -0.21226305 -0.13208451
v 0.09729944 -0.20262440 -0.16397575
v -0.05323483 -0.01635595 -0.09208441
v 0.03831575 -0.21431733 -0.14591742
v -0.05484836 -0.00931644 -0.09143021
v -0.06993865 -0.21702805 -0.13477196
v -0.06771424 -0.00973861 -0.09249404
v 0.02572160 -0.22064471 -0.14607239
v 0.10265021 -0.19258271 -0.16306171
v -0.01194766 -0.22110330 -0.13917650
v -0.07354434 -0.20742908 -0.13198165
v -0.06722100 -0.00544500 -0.09212000
v 0.04149817 -0.21961622 -0.14970511
v 0.12170513 -0.18933430 -0.17308578
v 0.05626277 -0.21491779 -0.15168214
v -0.02726877 -0.22188431 -0.13784718
v -0.07801744 -0.01909329 -0.09516675
v -0.08460027 -0.02199138 -0.09678379
v -0.09446931 -0.02290710 -0.09886128
v -0.10277987 -0.02798678 -0.10182536
v -0.08405731 -0.01340966 -0.09530218
v -0.08482909 -0.20573286 -0.13332373
v -0.05928524 -0.22153011 -0.13620969
v 0.01139350 -0.22192075 -0.14367760
v -0.06984788 -0.21085185 -0.13242199
v 0.03854380 -0.22326534 -0.15145774
v 0.00694951 -0.22453141 -0.14457178
v -0.08987594 -0.01053358 -0.09622363
v -0.06399475 -0.22080426 -0.13623647
v 0.09304635 -0.20696422 -0.16376320
v 0.00449237 -0.22759536 -0.14640102
v 0.12114969 -0.19221860 -0.17422505
v 0.11101525 -0.20305683 -0.17286125
v 0.11492179 -0.20207254 -0.17500200
v -0.01230433 -0.22627620 -0.14239237
v 0.01579944 -0.22557249 -0.14727296
v 0.13592486 -0.18915938 -0.18438717
v 0.09688474 -0.21043558 -0.16834389
v 0.13004977 -0.19109102 -0.18021351
v 0.13157722 -0.19413519 -0.18361192
v -0.06680062 -0.22360843 -0.13836779
v -0.04652425 -0.00689375 -0.09097650
v 0.11493950 -0.21422150 -0.18712350
v 0.11617105 -0.20925415 -0.18205652
v 0.10959688 -0.21593445 -0.18395287
v 0.10215455 -0.21658365 -0.17839721
v 0.09303035 -0.21209244 -0.16753508
v 0.09951603 -0.21305403 -0.17250747
v 0.08786643 -0.21625233 -0.16765822
v 0.09693206 -0.22152061 -0.18051352
v 0.09622472 -0.22342695 -0.18278808
v 0.07788749 -0.22642289 -0.17321200
v 0.10626400 -0.22145399 -0.18888700
v 0.09659100 -0.22492800 -0.18545850
v 0.06731907 -0.22843099 -0.16946422
v 0.08468410 -0.22058995 -0.16986856
v 0.08410000 -0.22770999 -0.17961700
v 0.06867050 -0.23146775 -0.17513151
v 0.06657665 -0.22400888 -0.16352848
v 0.05768054 -0.22489496 -0.16027460
v 0.04980401 -0.22725769 -0.15942919
v 0.07414691 -0.21532825 -0.15955726
v 0.06780158 -0.21858042 -0.15900513
v 0.03756046 -0.22951362 -0.15735045
v 0.03315550 -0.22740434 -0.15348852
v 0.00280880 -0.23179677 -0.15036903
v -0.01181761 -0.23263449 -0.14875094
v -0.01610477 -0.22990047 -0.14517991
v 0.02067215 -0.22708531 -0.14967797
v 0.05373397 -0.22060858 -0.15460225
v -0.04020671 -0.22803407 -0.14108379
v -0.03110290 -0.22764411 -0.14124810
v 0.13071635 -0.20135112 -0.18807043
v 0.12599027 -0.20245769 -0.18427375
v 0.15134025 -0.18059263 -0.19405508
v 0.17262834 -0.16610437 -0.20885037
v 0.17731801 -0.16399500 -0.21291000
v 0.15975301 -0.18062900 -0.20324650
v 0.15014107 -0.18465552 -0.19536513
v 0.17221825 -0.17079025 -0.21093100
v 0.14294679 -0.19120545 -0.19245648
v 0.14616137 -0.19190963 -0.19654950
v 0.13371600 -0.20178100 -0.19174500
v 0.14211700 -0.19804950 -0.19743600
v -0.17728790 -0.11754402 -0.16001378
v -0.16320295 -0.10831374 -0.14726350
v -0.17372446 -0.07959290 -0.14554458
v -0.16712388 -0.10568955 -0.14906035
v -0.17566073 -0.06223197 -0.14228094
v -0.17242859 -0.06930680 -0.14183966
v -0.17184301 -0.05714200 -0.13869600
v -0.15576124 -0.14406351 -0.15315030
v -0.16081308 -0.15201984 -0.15944954
v -0.16587241 -0.16309991 -0.16787571
v -0.15871813 -0.16571712 -0.16266850
v -0.14455418 -0.18370654 -0.15828398
v -0.14535110 -0.19566203 -0.16448604
v -0.14169601 -0.19258800 -0.15986800
v -0.14232102 -0.20300527 -0.16600169
v -0.13834756 -0.18834676 -0.15503250
v -0.14718904 -0.16828993 -0.15471477
v -0.13148726 -0.19579042 -0.15283804
v -0.16404243 -0.12382041 -0.15244040
v -0.13525675 -0.17603075 -0.14870654
v -0.18027993 -0.10567973 -0.15819151
v -0.19615706 -0.07998719 -0.16360000
v -0.19194274 -0.08634624 -0.16163401
v -0.18988487 -0.11146039 -0.16841261
v -0.20500930 -0.08465925 -0.17350551
v -0.20974946 -0.06652216 -0.17408748
v -0.19665511 -0.10407782 -0.17213953
v -0.20220478 -0.11403610 -0.18148209
v -0.18007192 -0.15846519 -0.17946862
v -0.18566699 -0.10519800 -0.16258000
v -0.17218983 -0.15157094 -0.16890998
v -0.16898655 -0.15051185 -0.16566005
v -0.19115735 -0.12960717 -0.17706111
v -0.19200891 -0.13956956 -0.18250924
v -0.20610908 -0.12374658 -0.19008242
v -0.20012068 -0.13665525 -0.18961817
v -0.20645138 -0.10730566 -0.18335972
v -0.20506647 -0.08129871 -0.17279175
v -0.21264181 -0.10571430 -0.18976740
v -0.21743080 -0.09948291 -0.19293916
v -0.21967032 -0.11501555 -0.20226618
v -0.23843900 -0.11069550 -0.22735750
v -0.23443442 -0.11625516 -0.22341243
v -0.23198518 -0.10621416 -0.21508730
v -0.23571000 -0.09560000 -0.21714500
v -0.23165801 -0.08494345 -0.20774176
v -0.22631675 -0.06653450 -0.19646375
v -0.22627994 -0.07652031 -0.19783858
v -0.20404076 -0.05590837 -0.16645275
v -0.22581415 -0.09486597 -0.20220362
v -0.22691140 -0.12132154 -0.21493983
v -0.22201329 -0.13385769 -0.21515652
v -0.22010312 -0.07981651 -0.19013182
v -0.22014118 -0.10900315 -0.20001496
v -0.21163741 -0.11918633 -0.19448116
v -0.19177656 -0.15649418 -0.19131883
v -0.19444756 -0.14765295 -0.18932962
v -0.19465017 -0.16295560 -0.19873334
v -0.21532332 -0.13288346 -0.20582183
v -0.21266653 -0.14286733 -0.20852437
v -0.20430684 -0.16071348 -0.20964015
v -0.20590600 -0.16382700 -0.21425200
v -0.22793987 -0.13153606 -0.22269700
v -0.17914458 -0.18028115 -0.19170363
v -0.18171887 -0.17581743 -0.19157658
v -0.17139656 -0.17931051 -0.18193329
v -0.16336246 -0.17964687 -0.17335240
v -0.19813107 -0.16041682 -0.20152199
v -0.16430119 -0.19093112 -0.18144785
v -0.18920000 -0.17724400 -0.20223800
v -0.18118554 -0.14120057 -0.17252687
v -0.18444937 -0.11960505 -0.16662096
v -0.18928241 -0.07138779 -0.15519610
v -0.18262106 -0.08191143 -0.15262016
v -0.19468746 -0.06688411 -0.15879453
v -0.18276206 -0.05902464 -0.14688466
v -0.22827233 -0.09200041 -0.20445209
v -0.17570685 -0.04712873 -0.13938796
v -0.16030626 -0.17537493 -0.16833324
v -0.15929893 -0.18023733 -0.16973494
v -0.19968489 -0.05525493 -0.16133942
v -0.12732141 -0.20573067 -0.15458393
v -0.19224408 -0.05385624 -0.15408927
v -0.12934253 -0.19408409 -0.15063431
v -0.13274487 -0.18131848 -0.14851772
v -0.11479447 -0.20940821 -0.14745676
v -0.11449349 -0.20409623 -0.14479253
v -0.13580545 -0.20623388 -0.16247692
v -0.10827721 -0.20871409 -0.14311221
v -0.18274894 -0.04628045 -0.14481520
v -0.13224082 -0.21014355 -0.16205487
v -0.11226451 -0.19874281 -0.14168563
v -0.18552875 -0.03760750 -0.14692225
v -0.13240523 -0.16961859 -0.14531980
v -0.19688874 -0.04436325 -0.15791450
v -0.12701238 -0.19463473 -0.14896083
v -0.16341797 -0.04379991 -0.13070681
v -0.15547003 -0.03707337 -0.12483728
v -0.16207094 -0.03455098 -0.12873111
v -0.15891761 -0.05241528 -0.12946193
v -0.15346582 -0.04266457 -0.12456427
v -0.17344059 -0.03529164 -0.13665080
v -0.11009600 -0.20529200 -0.14282900
v -0.11571445 -0.21497388 -0.15205488
v -0.11845053 -0.21048962 -0.15090045
v -0.13083327 -0.15916428 -0.14220666
v -0.18404520 -0.04270926 -0.14555130
v -0.11617633 -0.18873871 -0.14103397
v -0.11771504 -0.17898317 -0.13962567
v -0.14488553 -0.03179613 -0.11827603
v -0.13937186 -0.02917417 -0.11516925
v -0.15159603 -0.04554630 -0.12400394
v -0.17718459 -0.03334005 -0.13955670
v -0.17356100 -0.02562150 -0.13709250
v -0.10495977 -0.19723570 -0.13778301
v -0.10897391 -0.17693421 -0.13552165
v -0.11826200 -0.16086817 -0.13679088
v -0.10425637 -0.18404020 -0.13493851
v -0.11803323 -0.17371544 -0.13878629
v -0.12637814 -0.15093961 -0.13855555
v -0.09071188 -0.21420859 -0.13789241
v -0.16632351 -0.19511500 -0.18728250
v -0.13234645 -0.02949352 -0.11199167
v -0.14612541 -0.01848952 -0.11840374
v -0.14773792 -0.02615899 -0.11922978
v -0.16050004 -0.02530433 -0.12741689
v -0.14984950 -0.00811450 -0.12213475
v -0.11637940 -0.21717860 -0.15453482
v -0.13180025 -0.02067646 -0.11068942
v -0.10329972 -0.21521672 -0.14389269
v -0.12993026 -0.12753458 -0.13539886
v -0.13720148 -0.11951572 -0.13674904
v -0.12525963 -0.01928649 -0.10785962
v -0.12459190 -0.03183577 -0.10928580
v -0.11380910 -0.02492197 -0.10445794
v -0.09800296 -0.20110835 -0.13598772
v -0.13009670 -0.12018615 -0.13396645
v -0.16419807 -0.01939911 -0.13026613
v -0.15139171 -0.02009130 -0.12142952
v -0.14025535 -0.00959616 -0.11559182
v -0.10441687 -0.00699975 -0.09997687
v -0.12844268 -0.01626134 -0.10888997
v -0.11360913 -0.02003058 -0.10356050
v -0.09523117 -0.19865236 -0.13455393
v -0.09373000 -0.18724100 -0.13232000
v -0.08867418 -0.19597463 -0.13231398
v -0.09534652 -0.18232772 -0.13197147
v -0.10675611 -0.15508771 -0.13205269
v -0.10013580 -0.20465183 -0.13765741
v -0.08752468 -0.21104844 -0.13582748
v -0.08853200 -0.20723701 -0.13484900
v -0.12804850 -0.00683175 -0.10941350
v -0.10226200 -0.02112900 -0.10041700
v -0.09642047 -0.21705481 -0.14179904
v -0.12964359 -0.21376916 -0.16279813
v -0.08193716 -0.21254178 -0.13490494
v -0.10578197 -0.00993069 -0.10030948
v -0.09967511 -0.21931170 -0.14501336
v -0.11086880 -0.21930953 -0.15210881
v -0.15734600 -0.19918150 -0.17991124
v -0.09926128 -0.01428424 -0.09869757
v -0.09504447 -0.22156299 -0.14440260
v -0.08841636 -0.22199428 -0.14213797
v -0.13604288 -0.21435949 -0.16982864
v -0.08137450 -0.00588800 -0.09423150
v -0.08391118 -0.22021781 -0.13930400
v -0.12404992 -0.22237623 -0.16724909
f 524 522 525
f 524 523 522
f 557 524 525
f 523 543 522
f 524 531 523
f 530 524 557
f 526 557 525
f 523 531 543
f 534 531 524
f 534 524 530
f 533 530 557
f 526 525 527
f 528 557 526
f 532 543 531
f 521 531 534
f 520 534 530
f 533 520 530
f 533 557 528
f 527 528 526
f 531 539 532
f 540 543 532
f 521 539 531
f 535 521 534
f 519 534 520
f 505 520 533
f 506 533 528
f 527 506 528
f 539 540 532
f 540 541 543
f 535 539 521
f 534 515 535
f 517 519 520
f 517 534 519
f 517 520 505
f 518 505 533
f 506 518 533
f 529 506 527
f 540 539 516
f 548 541 540
f 541 542 543
f 535 515 539
f 517 515 534
f 508 517 505
f 503 505 518
f 502 518 506
f 529 561 506
f 516 539 515
f 516 538 540
f 538 548 540
f 548 538 541
f 541 550 542
f 517 508 515
f 507 508 505
f 503 504 505
f 502 503 518
f 555 502 506
f 555 506 561
f 575 561 529
f 516 515 508
f 538 516 536
f 538 545 541
f 545 550 541
f 505 504 507
f 504 508 507
f 510 504 503
f 503 502 555
f 563 555 561
f 575 573 561
f 513 516 508
f 537 536 516
f 545 538 536
f 544 550 545
f 504 513 508
f 501 510 503
f 510 501 504
f 553 503 555
f 563 556 555
f 587 563 561
f 573 587 561
f 513 514 516
f 514 537 516
f 509 536 537
f 545 536 509
f 545 546 544
f 544 549 550
f 504 552 513
f 554 501 503
f 501 552 504
f 554 503 553
f 556 553 555
f 570 556 563
f 587 570 563
f 593 587 573
f 513 551 514
f 509 537 514
f 546 545 509
f 546 549 544
f 549 602 550
f 552 551 513
f 554 483 501
f 501 481 552
f 556 554 553
f 558 556 570
f 582 570 587
f 594 593 573
f 582 587 593
f 514 551 509
f 547 546 509
f 547 549 546
f 640 602 549
f 552 481 551
f 483 484 501
f 486 483 554
f 481 501 484
f 485 554 556
f 558 485 556
f 570 582 558
f 618 593 594
f 582 593 618
f 511 509 551
f 490 547 509
f 547 493 549
f 549 495 640
f 481 512 551
f 483 482 484
f 160 483 486
f 486 554 485
f 484 482 481
f 487 485 558
f 579 558 582
f 618 606 582
f 511 490 509
f 551 512 511
f 491 547 490
f 493 547 560
f 495 549 493
f 46 640 495
f 489 512 481
f 160 482 483
f 580 160 486
f 580 486 485
f 482 499 481
f 580 485 487
f 558 580 487
f 579 577 558
f 579 582 606
f 619 606 618
f 512 490 511
f 489 491 490
f 491 559 547
f 492 493 560
f 559 560 547
f 494 495 493
f 481 499 489
f 490 512 489
f 160 161 482
f 580 161 160
f 155 499 482
f 577 580 558
f 578 577 579
f 606 619 579
f 607 619 618
f 488 491 489
f 491 492 559
f 496 493 492
f 492 560 559
f 496 494 493
f 494 496 495
f 488 489 499
f 162 482 161
f 580 162 161
f 158 155 482
f 155 488 499
f 578 580 577
f 605 578 579
f 605 579 619
f 620 619 607
f 488 497 491
f 497 492 491
f 497 496 492
f 496 498 495
f 162 158 482
f 164 162 580
f 162 155 158
f 155 163 488
f 578 581 580
f 590 578 605
f 604 605 619
f 632 620 607
f 620 604 619
f 574 497 488
f 565 496 497
f 498 576 495
f 565 498 496
f 164 154 162
f 165 164 580
f 156 155 162
f 155 157 163
f 163 574 488
f 590 581 578
f 581 592 580
f 605 591 590
f 622 605 604
f 632 622 620
f 622 604 620
f 500 497 574
f 500 565 497
f 562 495 576
f 564 576 498
f 565 564 498
f 156 162 154
f 168 154 164
f 165 168 164
f 592 165 580
f 156 157 155
f 574 163 157
f 590 592 581
f 591 159 590
f 609 591 605
f 605 622 609
f 621 622 632
f 574 565 500
f 495 562 568
f 566 562 576
f 576 564 565
f 166 156 154
f 168 166 154
f 168 165 592
f 153 157 156
f 157 586 574
f 590 159 592
f 603 159 591
f 609 603 591
f 622 613 609
f 621 637 622
f 588 565 574
f 568 571 495
f 562 571 568
f 566 585 562
f 576 567 566
f 588 576 565
f 166 152 156
f 150 166 168
f 159 168 592
f 612 153 156
f 586 157 153
f 586 600 574
f 603 614 159
f 623 603 609
f 613 623 609
f 622 623 613
f 621 641 637
f 637 623 622
f 589 588 574
f 571 644 495
f 635 571 562
f 585 584 562
f 566 584 585
f 567 569 566
f 572 567 576
f 588 572 576
f 152 612 156
f 166 151 152
f 149 166 150
f 150 168 167
f 167 168 159
f 600 153 612
f 600 586 153
f 600 589 574
f 614 167 159
f 623 614 603
f 621 424 641
f 641 623 637
f 589 595 588
f 571 635 644
f 562 584 635
f 566 639 584
f 610 566 569
f 567 583 569
f 629 567 572
f 595 572 588
f 152 151 612
f 149 151 166
f 167 149 150
f 611 600 612
f 599 589 600
f 614 148 167
f 623 615 614
f 621 645 424
f 424 417 641
f 633 623 641
f 595 589 599
f 635 647 644
f 584 608 635
f 566 610 639
f 639 608 584
f 601 610 569
f 629 583 567
f 629 569 583
f 595 629 572
f 617 612 151
f 169 151 149
f 167 148 149
f 611 190 600
f 617 611 612
f 190 599 600
f 170 148 614
f 615 147 614
f 416 615 623
f 645 417 424
f 417 415 641
f 633 416 623
f 641 416 633
f 596 595 599
f 639 647 635
f 647 46 644
f 608 639 635
f 610 638 639
f 629 601 569
f 601 634 610
f 616 629 595
f 169 617 151
f 357 169 149
f 176 149 148
f 617 190 611
f 597 599 190
f 170 176 148
f 170 614 147
f 416 147 615
f 403 417 645
f 413 415 417
f 641 415 416
f 598 595 596
f 597 596 599
f 639 44 647
f 40 46 647
f 634 638 610
f 638 44 639
f 630 601 629
f 601 642 634
f 616 595 598
f 624 629 616
f 189 617 169
f 358 357 149
f 357 184 169
f 176 358 149
f 617 189 190
f 190 188 597
f 146 176 170
f 416 170 147
f 403 413 417
f 408 403 645
f 413 414 415
f 173 416 415
f 628 598 596
f 596 597 628
f 44 45 647
f 45 40 647
f 634 642 638
f 642 44 638
f 636 601 630
f 631 630 629
f 643 642 601
f 627 616 598
f 624 616 627
f 418 629 624
f 184 189 169
f 358 177 357
f 187 184 357
f 177 358 176
f 188 190 189
f 188 628 597
f 146 170 171
f 146 192 176
f 416 171 170
f 403 399 413
f 408 401 403
f 413 173 414
f 414 173 415
f 416 173 172
f 598 628 627
f 43 45 44
f 45 30 40
f 43 44 642
f 601 636 646
f 636 630 631
f 418 631 629
f 646 643 601
f 643 43 642
f 627 625 624
f 626 418 624
f 184 188 189
f 177 182 357
f 183 184 187
f 187 357 182
f 192 177 176
f 186 628 188
f 171 172 146
f 172 192 146
f 172 171 416
f 401 399 403
f 399 194 413
f 438 401 408
f 413 194 173
f 174 172 173
f 355 627 628
f 43 38 45
f 33 30 45
f 402 646 636
f 418 636 631
f 646 38 643
f 643 38 43
f 625 626 624
f 627 626 625
f 626 54 418
f 186 188 184
f 182 177 181
f 183 202 184
f 182 183 187
f 192 178 177
f 355 628 186
f 175 192 172
f 438 399 401
f 399 138 194
f 194 145 173
f 174 175 172
f 173 143 174
f 359 627 355
f 32 45 38
f 28 30 33
f 33 45 32
f 421 402 636
f 402 47 646
f 421 636 418
f 37 38 646
f 359 626 627
f 54 56 418
f 359 54 626
f 184 355 186
f 178 181 177
f 182 181 183
f 181 202 183
f 202 204 184
f 181 178 192
f 175 179 192
f 386 399 438
f 194 138 145
f 399 137 138
f 145 142 173
f 143 175 174
f 142 143 173
f 191 359 355
f 38 34 32
f 28 21 30
f 25 28 33
f 25 33 32
f 397 402 421
f 437 47 402
f 47 37 646
f 421 418 407
f 37 31 38
f 56 54 57
f 407 418 56
f 53 54 359
f 185 355 184
f 124 202 181
f 204 185 184
f 203 204 202
f 180 181 192
f 175 48 179
f 179 48 192
f 386 376 399
f 138 142 145
f 137 136 138
f 399 136 137
f 143 193 175
f 144 143 142
f 346 191 355
f 191 51 359
f 31 32 34
f 31 34 38
f 24 21 28
f 25 24 28
f 27 25 32
f 397 419 402
f 58 397 421
f 437 37 47
f 425 437 402
f 56 421 407
f 35 31 37
f 57 54 51
f 58 56 57
f 51 54 53
f 51 53 359
f 356 355 185
f 180 124 181
f 125 202 124
f 349 185 204
f 123 203 202
f 205 204 203
f 48 180 192
f 141 48 175
f 387 376 386
f 376 391 399
f 142 138 144
f 138 136 195
f 399 384 136
f 141 193 143
f 193 141 175
f 144 140 143
f 346 107 191
f 50 346 355
f 191 52 51
f 31 27 32
f 23 24 25
f 31 25 27
f 396 419 397
f 419 425 402
f 59 397 58
f 58 421 56
f 437 35 37
f 425 419 437
f 35 25 31
f 57 51 52
f 57 61 58
f 349 356 185
f 349 355 356
f 48 124 180
f 127 125 124
f 125 123 202
f 204 350 349
f 123 205 203
f 205 350 204
f 141 124 48
f 387 377 376
f 376 377 391
f 384 399 391
f 195 144 138
f 384 195 136
f 140 141 143
f 144 141 140
f 107 55 191
f 346 109 107
f 350 346 50
f 49 50 355
f 57 52 191
f 23 17 24
f 23 25 35
f 383 396 397
f 396 395 419
f 61 59 58
f 383 397 59
f 42 35 437
f 419 41 437
f 60 61 57
f 349 49 355
f 127 124 141
f 127 123 125
f 350 50 349
f 206 205 123
f 344 350 205
f 387 199 377
f 377 197 391
f 391 134 384
f 195 139 144
f 384 135 195
f 139 141 144
f 57 55 107
f 57 191 55
f 109 57 107
f 109 346 350
f 349 50 49
f 22 17 23
f 17 16 24
f 23 35 42
f 383 394 396
f 394 395 396
f 395 467 419
f 62 59 61
f 59 371 383
f 41 42 437
f 419 42 41
f 60 57 109
f 62 61 60
f 127 141 129
f 127 207 123
f 207 206 123
f 344 205 206
f 343 350 344
f 377 199 196
f 387 369 199
f 377 196 197
f 197 196 391
f 134 135 384
f 391 196 134
f 195 135 139
f 139 129 141
f 343 109 350
f 29 17 22
f 29 22 23
f 42 29 23
f 381 394 383
f 394 468 395
f 468 467 395
f 419 467 39
f 62 64 59
f 66 371 59
f 371 381 383
f 419 39 42
f 60 109 62
f 129 126 127
f 122 207 127
f 207 121 206
f 121 344 206
f 121 343 344
f 199 217 196
f 369 198 199
f 387 363 369
f 135 134 201
f 196 201 134
f 139 135 201
f 128 129 139
f 208 109 343
f 20 17 29
f 467 29 42
f 388 394 381
f 412 468 394
f 468 36 467
f 39 467 42
f 64 66 59
f 63 64 62
f 66 381 371
f 109 63 62
f 126 122 127
f 210 126 129
f 122 121 207
f 208 343 121
f 217 133 196
f 199 198 217
f 369 364 198
f 363 365 369
f 196 133 201
f 139 201 210
f 128 210 129
f 139 210 128
f 208 110 109
f 17 20 18
f 26 20 29
f 467 36 29
f 379 388 381
f 388 412 394
f 412 431 468
f 468 26 36
f 66 64 68
f 108 64 63
f 66 360 381
f 108 63 109
f 209 122 126
f 210 130 126
f 209 121 122
f 209 208 121
f 217 132 133
f 198 352 217
f 361 198 364
f 365 364 369
f 363 362 365
f 132 201 133
f 201 130 210
f 110 105 109
f 208 106 110
f 18 15 17
f 20 19 18
f 463 20 26
f 26 29 36
f 94 379 381
f 95 388 379
f 431 412 388
f 431 464 468
f 463 26 468
f 65 68 64
f 68 70 66
f 64 108 65
f 360 66 77
f 360 94 381
f 105 108 109
f 130 209 126
f 120 208 209
f 217 131 132
f 198 216 352
f 352 216 217
f 361 223 198
f 362 361 364
f 362 364 365
f 366 362 363
f 201 132 200
f 200 130 201
f 106 105 110
f 106 208 120
f 463 8 20
f 94 375 379
f 375 95 379
f 389 388 95
f 406 431 388
f 431 463 464
f 464 463 468
f 68 65 108
f 70 69 66
f 69 70 68
f 69 77 66
f 94 360 77
f 345 108 105
f 130 213 209
f 212 120 209
f 131 213 132
f 216 131 217
f 216 198 220
f 223 220 198
f 226 223 361
f 362 232 361
f 366 370 362
f 367 366 363
f 200 132 130
f 105 106 345
f 118 106 120
f 13 8 463
f 94 95 375
f 389 95 96
f 389 420 388
f 420 406 388
f 420 431 406
f 427 463 431
f 104 68 108
f 68 77 69
f 92 94 77
f 345 104 108
f 132 213 130
f 213 211 209
f 219 120 212
f 211 212 209
f 216 213 131
f 221 216 220
f 223 227 220
f 225 223 226
f 232 226 361
f 370 232 362
f 367 370 366
f 106 112 345
f 118 111 106
f 111 118 120
f 7 8 13
f 462 13 463
f 96 95 94
f 400 389 96
f 404 420 389
f 420 423 431
f 423 427 431
f 427 462 463
f 67 68 104
f 76 77 68
f 102 92 77
f 93 94 92
f 103 104 345
f 213 219 211
f 221 120 219
f 219 212 211
f 218 213 216
f 216 221 218
f 220 222 221
f 227 224 220
f 225 227 223
f 232 225 226
f 370 368 232
f 372 370 367
f 111 112 106
f 112 103 345
f 114 111 120
f 7 13 14
f 462 14 13
f 93 96 94
f 373 400 96
f 400 404 389
f 404 427 420
f 420 427 423
f 465 462 427
f 71 68 67
f 103 67 104
f 71 76 68
f 76 75 77
f 75 102 77
f 91 92 102
f 92 81 93
f 213 214 219
f 221 342 120
f 221 219 214
f 218 215 213
f 218 221 215
f 224 222 220
f 222 224 221
f 227 229 224
f 232 227 225
f 368 231 232
f 370 237 368
f 380 370 372
f 113 112 111
f 74 103 112
f 113 111 114
f 119 114 120
f 9 7 14
f 461 14 462
f 81 96 93
f 378 373 96
f 373 411 400
f 400 409 404
f 404 432 427
f 432 465 427
f 465 461 462
f 71 67 103
f 71 75 76
f 102 75 71
f 91 80 92
f 80 91 102
f 80 81 92
f 215 214 213
f 119 120 342
f 221 119 342
f 215 221 214
f 224 114 221
f 229 347 224
f 228 229 227
f 232 230 227
f 231 230 232
f 368 353 231
f 368 237 353
f 353 237 370
f 380 354 370
f 113 116 112
f 74 73 103
f 116 74 112
f 115 113 114
f 114 119 221
f 14 10 9
f 461 460 14
f 90 96 81
f 90 378 96
f 411 373 378
f 400 411 409
f 409 465 404
f 404 465 432
f 422 461 465
f 73 71 103
f 73 102 71
f 80 102 78
f 79 81 80
f 224 347 114
f 347 229 340
f 338 228 227
f 338 229 228
f 230 338 227
f 230 231 338
f 233 231 353
f 354 353 370
f 115 116 113
f 74 79 73
f 116 72 74
f 114 116 115
f 10 6 9
f 4 10 14
f 14 460 4
f 457 460 461
f 89 90 81
f 378 90 89
f 378 392 411
f 411 422 409
f 409 422 465
f 422 466 461
f 79 102 73
f 79 80 78
f 79 78 102
f 83 81 79
f 347 340 114
f 341 340 229
f 338 341 229
f 231 235 338
f 233 263 231
f 261 233 353
f 353 354 258
f 74 72 79
f 116 348 72
f 340 116 114
f 6 12 9
f 10 12 6
f 4 2 10
f 457 4 460
f 466 457 461
f 81 82 89
f 87 378 89
f 385 392 378
f 382 411 392
f 411 466 422
f 101 83 79
f 83 82 81
f 348 340 341
f 338 348 341
f 234 235 231
f 235 234 338
f 263 236 231
f 261 263 233
f 258 261 353
f 99 79 72
f 348 339 72
f 348 116 117
f 117 116 340
f 10 11 12
f 3 2 4
f 2 1 10
f 457 3 4
f 456 457 466
f 83 89 82
f 87 89 88
f 87 97 378
f 374 385 378
f 382 392 385
f 458 411 382
f 411 459 466
f 100 101 79
f 83 101 84
f 340 348 117
f 338 336 348
f 236 234 231
f 234 236 338
f 263 238 236
f 260 263 261
f 258 260 261
f 99 72 339
f 100 79 99
f 336 339 348
f 10 5 11
f 3 1 2
f 1 5 10
f 456 3 457
f 459 456 466
f 83 88 89
f 87 88 83
f 86 97 87
f 97 374 378
f 374 382 385
f 458 382 426
f 411 458 459
f 99 101 100
f 84 85 83
f 84 101 337
f 236 336 338
f 238 336 236
f 239 238 263
f 260 262 263
f 262 260 258
f 101 99 339
f 337 339 336
f 3 454 1
f 455 3 456
f 459 455 456
f 86 87 83
f 86 98 97
f 393 374 97
f 393 382 374
f 382 398 426
f 426 445 458
f 458 455 459
f 85 86 83
f 84 86 85
f 337 245 84
f 337 101 339
f 242 336 238
f 242 238 239
f 263 264 239
f 262 264 263
f 258 264 262
f 245 337 336
f 451 454 3
f 455 451 3
f 248 98 86
f 98 248 97
f 393 97 248
f 398 382 393
f 398 429 426
f 426 443 445
f 458 445 452
f 452 455 458
f 245 86 84
f 242 245 336
f 239 240 242
f 240 239 264
f 240 264 258
f 448 454 451
f 452 451 455
f 248 86 245
f 250 393 248
f 398 393 405
f 410 429 398
f 426 429 434
f 434 443 426
f 443 444 445
f 445 446 452
f 242 243 245
f 240 241 242
f 258 256 240
f 452 448 451
f 453 454 448
f 248 245 244
f 335 250 248
f 335 393 250
f 405 393 280
f 410 398 405
f 428 429 410
f 429 430 434
f 434 444 443
f 444 442 445
f 445 442 446
f 446 447 452
f 241 243 242
f 243 244 245
f 240 243 241
f 255 240 256
f 259 256 258
f 452 453 448
f 244 246 248
f 335 248 249
f 280 393 335
f 390 405 280
f 278 410 405
f 435 428 410
f 430 429 428
f 430 470 434
f 440 444 434
f 442 444 440
f 441 446 442
f 446 450 447
f 452 447 450
f 246 244 243
f 240 251 243
f 255 257 240
f 255 256 259
f 452 450 453
f 246 249 248
f 335 249 246
f 252 280 335
f 280 279 390
f 390 278 405
f 278 289 410
f 308 435 410
f 428 435 430
f 435 470 430
f 470 440 434
f 440 441 442
f 441 449 446
f 446 449 450
f 251 246 243
f 251 240 265
f 257 265 240
f 265 257 255
f 266 255 259
f 247 335 246
f 279 280 252
f 252 335 247
f 279 278 390
f 289 278 286
f 304 410 289
f 304 308 410
f 308 310 435
f 470 435 436
f 469 440 470
f 440 439 441
f 441 439 449
f 252 246 251
f 334 251 265
f 255 267 265
f 266 267 255
f 252 247 246
f 276 279 252
f 279 276 278
f 277 286 278
f 288 289 286
f 288 304 289
f 304 351 308
f 351 310 308
f 310 471 435
f 435 433 436
f 433 470 436
f 469 479 440
f 477 469 470
f 440 479 439
f 334 252 251
f 276 334 265
f 267 253 265
f 266 270 267
f 334 276 252
f 277 278 276
f 277 282 286
f 288 286 282
f 288 301 304
f 307 351 304
f 351 309 310
f 309 471 310
f 471 433 435
f 477 470 433
f 469 480 479
f 477 478 469
f 275 276 265
f 253 254 265
f 267 270 253
f 266 272 270
f 281 277 276
f 282 277 281
f 282 287 288
f 287 301 288
f 303 304 301
f 307 304 303
f 351 307 309
f 471 309 472
f 471 475 433
f 475 477 433
f 478 480 469
f 475 478 477
f 275 265 254
f 274 276 275
f 270 254 253
f 271 272 266
f 272 273 270
f 274 281 276
f 282 281 285
f 301 287 282
f 303 301 302
f 307 303 305
f 329 309 307
f 309 473 472
f 472 476 471
f 474 475 471
f 475 474 478
f 254 268 275
f 283 274 275
f 270 268 254
f 271 297 272
f 273 290 270
f 272 290 273
f 274 283 281
f 285 281 283
f 301 282 285
f 301 291 302
f 302 306 303
f 305 303 306
f 305 306 307
f 315 329 307
f 329 330 309
f 309 330 473
f 472 473 476
f 471 476 474
f 283 275 268
f 270 269 268
f 297 271 298
f 272 297 290
f 290 269 270
f 283 284 285
f 285 284 301
f 291 301 290
f 302 291 290
f 306 302 311
f 311 307 306
f 311 315 307
f 315 316 329
f 331 330 329
f 268 269 283
f 296 298 271
f 297 298 302
f 290 297 302
f 269 290 283
f 290 284 283
f 290 301 284
f 313 311 302
f 315 311 312
f 316 315 313
f 332 329 316
f 333 331 329
f 296 294 298
f 298 293 302
f 313 302 300
f 313 312 311
f 313 315 312
f 317 316 313
f 316 318 332
f 332 333 329
f 294 296 295
f 294 293 298
f 293 292 302
f 302 292 300
f 292 313 300
f 319 317 313
f 317 318 316
f 318 333 332
f 322 294 295
f 293 294 299
f 293 299 292
f 299 313 292
f 319 313 320
f 319 328 317
f 317 328 318
f 328 333 318
f 319 294 322
f 327 322 295
f 294 314 299
f 299 314 313
f 314 320 313
f 321 319 320
f 319 326 328
f 325 333 328
f 294 319 321
f 322 324 319
f 327 323 322
f 294 320 314
f 294 321 320
f 324 326 319
f 326 325 328
f 323 324 322
f 325 326 324
f 323 325 324

