# https://github.com/mikedh/trimesh
v 0.09058900 -0.18212201 0.09669200
v 0.10361750 -0.17836651 0.13537850
v 0.10336900 -0.17789701 0.14169000
v 0.06974050 -0.17264800 -0.05418175
v 0.04988487 -0.17944387 -0.02896700
v 0.07729150 -0.17103050 -0.06541400
v 0.05271300 -0.18113200 -0.01715750
v 0.05034950 -0.18524651 0.01221350
v 0.05573400 -0.18832350 0.04006900
v 0.05452600 -0.18625800 0.02774700
v 0.05741400 -0.19004300 0.05047300
v 0.05969500 -0.18797800 0.04495700
v 0.06707250 -0.18639800 0.05169400
v 0.07197550 -0.17265100 -0.06850637
v 0.07856175 -0.18235138 0.05087287
v 0.06545600 -0.17910700 -0.07554400
v 0.08529488 -0.18192213 -0.08189319
v 0.07824000 -0.17689800 -0.07660700
v 0.08746300 -0.17396900 -0.07593200
v 0.09595500 -0.17785600 0.09692800
v 0.09772700 -0.17565800 0.10553350
v 0.09727475 -0.17383925 0.11362150
v 0.09870550 -0.17425350 0.11900750
v 0.15214515 -0.16682644 -0.03449137
v 0.14282814 -0.17053389 -0.02305411
v 0.14779100 -0.16808414 -0.03738944
v 0.16270699 -0.16056942 -0.05033430
v 0.15800176 -0.15991454 -0.06802736
v 0.15995200 -0.16114400 -0.05437000
v 0.16375980 -0.15733171 -0.07512872
v 0.15324393 -0.16056932 -0.07718719
v 0.13775119 -0.17141272 -0.03142354
v 0.14277693 -0.16521695 -0.05946628
v 0.14469633 -0.16265579 -0.07214164
v 0.13709829 -0.16967428 -0.04362630
v 0.14020651 -0.17115400 -0.02120706
v 0.13299967 -0.17180800 -0.03485465
v 0.13096862 -0.17311796 -0.02439309
v 0.14201885 -0.16394795 -0.06627627
v 0.12725014 -0.16593361 -0.07680651
v 0.12791838 -0.16604659 -0.06527689
v 0.13019429 -0.17015189 -0.04645246
v 0.12698887 -0.16753107 -0.05848592
v 0.12142590 -0.17225589 -0.04189851
v 0.12064815 -0.17427526 -0.02590068
v 0.12185170 -0.16609524 -0.07102576
v 0.11035510 -0.16944923 -0.05654252
v 0.08025008 -0.17322697 -0.04908624
v 0.09171202 -0.17352297 -0.04490219
v 0.10395299 -0.17467981 -0.03512245
v 0.12259436 -0.17353374 -0.03262973
v 0.08088079 -0.17783806 -0.01826696
v 0.11303231 -0.17302193 -0.04091886
v 0.07869943 -0.17743415 -0.02680060
v 0.06160340 -0.17908399 -0.02559057
v 0.06623286 -0.18010501 -0.01181101
v 0.05801066 -0.18307353 0.00731718
v 0.06610724 -0.18066831 -0.00398945
v 0.10763170 -0.17556756 -0.01256935
v 0.09156441 -0.17685585 -0.00780405
v 0.10557865 -0.16826573 -0.06418606
v 0.07288187 -0.17989118 0.01146971
v 0.09137655 -0.17670670 -0.00122912
v 0.08780800 -0.17644800 0.03345400
v 0.08013020 -0.17815671 0.02174637
v 0.09209075 -0.17530660 0.03728291
v 0.10714646 -0.17155712 0.04772728
v 0.09812631 -0.17391803 0.05317595
v 0.10486050 -0.17288650 0.08514800
v 0.07926465 -0.17843831 0.01096260
v 0.08231881 -0.17806020 -0.00093483
v 0.08902163 -0.17639427 0.01370505
v 0.12846647 -0.17374309 -0.01860412
v 0.08797950 -0.17746550 0.04891100
v 0.08780900 -0.17666800 0.03866400
v 0.13732493 -0.16493461 -0.08062071
v 0.12721206 -0.17361050 -0.01153811
v 0.12280064 -0.17356226 -0.00430081
v 0.10232581 -0.17223576 0.10201130
v 0.11178347 -0.17092319 0.11237173
v 0.11437278 -0.17037542 0.07545635
v 0.10044068 -0.17246711 0.11022510
v 0.11375877 -0.17005661 0.05800276
v 0.15337180 -0.16090329 -0.08067626
v 0.10169452 -0.17387843 0.01951014
v 0.06861844 -0.18201769 0.02771988
v 0.11486604 -0.16953119 0.04623627
v 0.11522710 -0.16991932 0.03568833
v 0.06412924 -0.18462287 0.03592918
v 0.09518700 -0.17566550 0.06408150
v 0.12165836 -0.17092137 0.01569885
v 0.16639575 -0.15648466 -0.08076265
v 0.09790070 -0.16892235 -0.06911355
v 0.13180882 -0.17217500 -0.00443901
v 0.11358142 -0.17041883 0.06869224
v 0.12291902 -0.16593672 0.04364968
v 0.16771673 -0.15631312 -0.08338864
v 0.12502731 -0.16843956 0.02305668
v 0.15238703 -0.16689516 -0.02175050
v 0.17152155 -0.15426133 -0.07629460
v 0.17183087 -0.15597307 -0.05395079
v 0.15863592 -0.16405607 -0.03201051
v 0.16740262 -0.15911764 -0.02858491
v 0.12991574 -0.16823796 0.01737126
v 0.15703002 -0.16166831 -0.08659403
v 0.14331531 -0.16950514 -0.00856607
v 0.12202274 -0.16726185 0.03607295
v 0.09352086 -0.17135827 -0.07413318
v 0.14849569 -0.16784253 -0.01165338
v 0.19008023 -0.14451180 -0.05462408
v 0.14983146 -0.16269419 -0.08344464
v 0.10982873 -0.17289378 0.12250429
v 0.11816109 -0.16841524 0.07458412
v 0.17326697 -0.15593147 -0.04340895
v 0.11667485 -0.16865798 0.10457979
v 0.18641715 -0.14594710 -0.07595714
v 0.18256401 -0.14977500 -0.04613600
v 0.12053451 -0.16867962 0.03144272
v 0.17984331 -0.15186622 -0.08874234
v 0.18170077 -0.14906734 -0.07404264
v 0.10110850 -0.17363225 0.09041900
v 0.17125601 -0.15577900 -0.02498200
v 0.18401040 -0.14831413 -0.08468870
v 0.12451057 -0.16594750 0.03446357
v 0.18758854 -0.14750683 -0.09033089
v 0.19155421 -0.14308225 -0.04690549
v 0.14446494 -0.16714622 -0.00077027
v 0.19187695 -0.14193153 -0.07710507
v 0.12399707 -0.16405615 0.05086884
v 0.09278950 -0.17631050 0.05927475
v 0.15913961 -0.16270187 -0.01654321
v 0.14269766 -0.16649146 -0.08622422
v 0.17769812 -0.15266655 -0.03463456
v 0.16386195 -0.15909751 -0.01582542
v 0.19084606 -0.14399502 -0.08751585
v 0.19520400 -0.13909100 -0.07765600
v 0.15559800 -0.16222700 -0.00742100
v 0.11213287 -0.16999795 -0.07874024
v 0.17597590 -0.15282220 -0.02808531
v 0.11562171 -0.16908754 0.11464802
v 0.19540589 -0.14078541 -0.08856043
v 0.19753601 -0.13756301 -0.08382100
v 0.21653929 -0.11625053 -0.07421671
v 0.20339326 -0.13105273 -0.07848291
v 0.19729097 -0.13721094 -0.07647787
v 0.12636700 -0.16262750 0.04209250
v 0.20245098 -0.13301173 -0.08605245
v 0.12097027 -0.16538463 0.10355071
v 0.13025500 -0.16429325 0.02716000
v 0.14861195 -0.16514817 -0.00182519
v 0.19276198 -0.14141467 -0.04177338
v 0.16506302 -0.15888833 -0.08775012
v 0.18586504 -0.15190516 -0.09533742
v 0.22392454 -0.10824698 -0.07736970
v 0.22115512 -0.11213881 -0.08442662
v 0.22553504 -0.11138544 -0.09264578
v 0.23349388 -0.09908852 -0.07664890
v 0.22970236 -0.10461133 -0.08464078
v 0.23241750 -0.09969900 -0.07301450
v 0.23891900 -0.09585000 -0.08051700
v 0.22053938 -0.11469737 -0.08962710
v 0.24076100 -0.09676500 -0.08468400
v 0.22610890 -0.11540984 -0.09877047
v 0.21155734 -0.12300145 -0.05788805
v 0.19879054 -0.13636783 -0.04706661
v 0.20576638 -0.12842675 -0.04895937
v 0.18780222 -0.14958572 -0.09390042
v 0.16929600 -0.15484600 -0.01760350
v 0.22711289 -0.10459636 -0.06947914
v 0.22191100 -0.11016500 -0.06239800
v 0.20611442 -0.12930684 -0.05363539
v 0.18251401 -0.14743600 -0.03068250
v 0.23466470 -0.10516305 -0.09299975
v 0.24292465 -0.10203857 -0.09433033
v 0.12268338 -0.16378304 0.09407413
v 0.20347849 -0.13712252 -0.09627606
v 0.20100949 -0.14019350 -0.09698794
v 0.12541200 -0.16186500 0.05384100
v 0.24446350 -0.09780125 -0.08988850
v 0.12170900 -0.16299500 0.11117800
v 0.12085100 -0.16309100 0.11550200
v 0.12313850 -0.16214601 0.10197100
v 0.19452747 -0.14688817 -0.09768891
v 0.11169891 -0.17168906 0.12930651
v 0.11208750 -0.17012600 0.13223599
v 0.23221056 -0.11584865 -0.10381531
v 0.15436328 -0.16574671 -0.08969070
v 0.11969188 -0.17055371 -0.08217577
v 0.09261102 -0.17632268 -0.07986454
v 0.21687113 -0.12985355 -0.10378495
v 0.24775326 -0.10498650 -0.09942125
v 0.20303832 -0.14209609 -0.10107299
v 0.24024711 -0.10784394 -0.09990214
v 0.22898631 -0.11750931 -0.10344830
v 0.23528564 -0.11496641 -0.10445949
v 0.17958333 -0.15755793 -0.09561752
v 0.24434579 -0.11455102 -0.10700903
v 0.22159590 -0.13253763 -0.10887128
v 0.23279839 -0.12352041 -0.10953738
v 0.25181163 -0.11498886 -0.10834857
v 0.12577686 -0.17067958 -0.08421615
v 0.14083875 -0.17096612 -0.08890350
v 0.19259325 -0.15405775 -0.10156200
v 0.23775400 -0.12102600 -0.10971200
v 0.17547562 -0.16118900 -0.09617638
v 0.23120551 -0.12880700 -0.11144350
f 90 68 69
f 90 74 68
f 90 130 74
f 68 74 67
f 74 66 67
f 66 74 75
f 75 74 86
f 89 86 74
f 89 57 86
f 89 8 57
f 10 8 89
f 89 9 10
f 12 9 89
f 15 12 89
f 11 12 15
f 13 11 15
f 57 8 7
f 57 7 55
f 57 55 56
f 58 57 56
f 62 57 58
f 62 58 52
f 71 62 52
f 70 62 71
f 65 70 71
f 65 71 72
f 72 71 63
f 85 72 63
f 88 72 85
f 118 88 85
f 107 88 118
f 124 107 118
f 124 118 104
f 149 124 104
f 146 124 149
f 146 96 124
f 146 129 96
f 178 129 146
f 182 129 178
f 175 129 182
f 148 175 182
f 180 148 182
f 184 148 180
f 181 184 180
f 181 185 184
f 185 2 184
f 3 2 185
f 2 112 184
f 184 112 80
f 140 184 80
f 140 80 69
f 140 69 115
f 148 140 115
f 148 115 81
f 148 81 113
f 148 113 129
f 113 81 95
f 95 83 113
f 113 83 87
f 96 113 87
f 96 87 88
f 87 67 88
f 83 67 87
f 83 95 67
f 95 81 69
f 115 69 81
f 69 80 79
f 80 82 79
f 2 82 80
f 2 23 82
f 82 23 22
f 82 22 79
f 22 21 79
f 79 21 20
f 69 79 121
f 79 1 121
f 2 80 112
f 184 140 148
f 148 129 175
f 129 113 96
f 149 104 150
f 149 150 137
f 134 137 150
f 134 150 131
f 150 109 131
f 150 106 109
f 127 106 150
f 127 104 106
f 104 94 106
f 106 94 77
f 106 77 73
f 106 73 36
f 106 36 25
f 36 38 25
f 25 38 32
f 38 51 32
f 38 45 51
f 51 45 50
f 51 50 53
f 51 53 44
f 53 48 44
f 53 49 48
f 50 48 49
f 50 55 48
f 54 55 50
f 54 52 55
f 52 54 45
f 73 52 45
f 59 52 73
f 59 60 52
f 77 60 59
f 77 85 60
f 85 77 78
f 85 78 94
f 91 85 94
f 55 4 48
f 5 4 55
f 47 48 4
f 47 4 61
f 47 61 43
f 43 61 41
f 41 61 93
f 61 6 93
f 6 14 93
f 93 14 108
f 93 108 40
f 40 108 138
f 138 108 189
f 188 138 189
f 201 188 189
f 201 189 17
f 201 17 202
f 132 201 202
f 132 202 187
f 105 132 187
f 196 105 187
f 196 187 202
f 152 105 196
f 153 152 196
f 183 153 196
f 192 183 196
f 198 192 196
f 198 196 203
f 196 205 203
f 205 196 202
f 190 192 198
f 194 190 198
f 194 198 199
f 199 198 206
f 204 199 206
f 197 199 204
f 200 197 204
f 197 200 191
f 191 193 197
f 193 195 197
f 195 186 197
f 193 186 195
f 193 173 186
f 174 173 193
f 179 173 174
f 162 173 179
f 160 173 162
f 160 158 173
f 158 156 173
f 156 163 173
f 156 176 163
f 176 190 163
f 161 176 156
f 147 176 161
f 147 141 176
f 141 167 176
f 167 177 176
f 176 177 192
f 177 167 192
f 167 141 135
f 135 125 167
f 125 119 167
f 167 119 152
f 123 152 119
f 120 152 123
f 120 97 152
f 120 100 97
f 120 114 100
f 120 110 114
f 110 120 116
f 110 116 128
f 128 116 123
f 128 123 135
f 136 128 135
f 145 136 135
f 145 135 144
f 171 145 144
f 171 110 145
f 165 110 171
f 166 165 171
f 171 164 166
f 166 164 169
f 170 166 169
f 159 170 169
f 169 157 159
f 169 154 157
f 169 143 154
f 143 147 154
f 154 147 155
f 143 144 147
f 144 142 147
f 164 144 143
f 157 154 155
f 157 155 158
f 158 155 161
f 160 159 157
f 164 143 169
f 166 151 165
f 172 151 166
f 172 139 151
f 172 134 139
f 168 134 172
f 168 149 134
f 139 134 122
f 122 103 139
f 139 103 133
f 133 103 114
f 117 133 114
f 133 117 110
f 126 133 110
f 151 133 126
f 103 102 114
f 114 102 101
f 102 24 101
f 99 24 102
f 99 25 24
f 99 109 25
f 101 24 27
f 101 27 28
f 101 28 30
f 101 30 100
f 30 31 100
f 100 31 92
f 92 31 105
f 92 105 97
f 31 84 105
f 84 111 105
f 84 76 111
f 76 132 111
f 31 76 84
f 31 40 76
f 31 34 40
f 34 46 40
f 41 46 34
f 39 41 34
f 33 41 39
f 33 39 34
f 26 33 34
f 26 34 28
f 29 26 28
f 27 26 29
f 26 35 33
f 35 42 33
f 35 44 42
f 42 44 43
f 37 44 35
f 32 37 35
f 42 43 33
f 26 32 35
f 24 32 26
f 28 34 31
f 28 31 30
f 27 29 28
f 24 26 27
f 103 99 102
f 103 131 99
f 122 131 103
f 151 139 133
f 151 126 165
f 165 126 110
f 164 171 144
f 144 135 142
f 145 128 136
f 145 110 128
f 117 114 110
f 101 100 114
f 100 92 97
f 116 120 123
f 123 119 125
f 135 123 125
f 142 135 141
f 142 141 147
f 155 147 161
f 158 161 156
f 160 157 158
f 173 163 186
f 163 194 186
f 191 174 193
f 197 186 199
f 199 186 194
f 194 163 190
f 190 176 192
f 167 183 192
f 167 153 183
f 167 152 153
f 97 105 152
f 111 132 105
f 76 201 132
f 18 17 189
f 19 18 189
f 18 16 17
f 76 188 201
f 76 138 188
f 108 19 189
f 76 40 138
f 40 46 93
f 108 14 19
f 41 93 46
f 43 41 33
f 44 47 43
f 61 4 6
f 48 47 44
f 53 50 49
f 50 45 54
f 73 45 38
f 51 44 32
f 24 25 32
f 73 38 36
f 77 59 73
f 78 77 94
f 104 91 94
f 98 91 104
f 98 118 91
f 109 106 25
f 109 99 131
f 134 131 122
f 149 137 134
f 150 104 127
f 104 118 98
f 96 107 124
f 96 88 107
f 91 118 85
f 88 67 72
f 85 63 60
f 63 71 60
f 67 65 72
f 65 62 70
f 60 71 52
f 65 57 62
f 52 58 56
f 56 55 52
f 7 5 55
f 65 86 57
f 86 65 64
f 66 86 64
f 66 64 65
f 15 89 74
f 75 86 66
f 67 66 65
f 95 68 67
f 69 68 95

