v 0.252644 -0.262594 -0.193575
v 0.255135 -0.266152 -0.196999
v 0.257626 -0.269788 -0.200337
v 0.260116 -0.273424 -0.203675
v 0.259636 -0.263097 -0.196938
v 0.262153 -0.266702 -0.200287
v 0.250146 -0.259113 -0.190074
v 0.26095 -0.245871 -0.187585
v 0.259031 -0.252684 -0.190612
v 0.261555 -0.256284 -0.193911
v 0.264078 -0.259883 -0.19721
v 0.254589 -0.255898 -0.190339
v 0.257112 -0.259498 -0.193638
v 0.263473 -0.249463 -0.190882
v 0.265997 -0.253045 -0.194175
v 0.268521 -0.256628 -0.197468
v 0.271044 -0.26021 -0.200761
v 0.266602 -0.26347 -0.200504
v 0.273713 -0.264046 -0.203724
v 0.256624 -0.249187 -0.187133
v 0.254726 -0.246166 -0.182906
v 0.258586 -0.242279 -0.184292
v 0.256066 -0.238504 -0.181322
v 0.252211 -0.242469 -0.179996
v 0.248356 -0.246434 -0.178669
v 0.252337 -0.252545 -0.186631
v 0.2506 -0.249736 -0.18214
v 0.246637 -0.253522 -0.181109
v 0.248264 -0.256181 -0.185785
v 0.276376 -0.267876 -0.206705
v 0.269212 -0.267216 -0.203609
v 0.271767 -0.270904 -0.206862
v 0.264603 -0.270244 -0.203765
v 0.267158 -0.273932 -0.207018
v 0.262548 -0.27696 -0.207175
v 0.278952 -0.271622 -0.209867
v 0.281545 -0.275415 -0.212956
v 0.274345 -0.274657 -0.210013
v 0.269739 -0.277691 -0.210159
v 0.284138 -0.279226 -0.215991
v 0.276939 -0.278455 -0.213085
v 0.27953 -0.28229 -0.216046
v 0.27233 -0.28152 -0.21314
v 0.274922 -0.285355 -0.216101
v 0.265131 -0.28075 -0.210233
v 0.282066 -0.286061 -0.219115
v 0.277491 -0.289164 -0.219106
v 0.279968 -0.292865 -0.222292
v 0.286647 -0.282959 -0.219151
v 0.289146 -0.286665 -0.222435
v 0.284547 -0.289763 -0.22232
v 0.282447 -0.296567 -0.225489
v 0.287107 -0.293622 -0.225403
v 0.291759 -0.290704 -0.225287
v 0.294206 -0.294573 -0.228394
v 0.289573 -0.29751 -0.228481
v 0.29202 -0.301379 -0.231589
v 0.28494 -0.300447 -0.228569
v 0.296645 -0.298397 -0.231599
v 0.299074 -0.302201 -0.23488
v 0.301473 -0.306044 -0.23806
v 0.303862 -0.309907 -0.241182
v 0.30625 -0.31377 -0.244305
v 0.312506 -0.314044 -0.249294
v 0.314713 -0.317641 -0.252669
v 0.308549 -0.317499 -0.247601
v 0.310745 -0.321079 -0.251111
v 0.312941 -0.32466 -0.254621
v 0.319853 -0.324976 -0.258352
v 0.322464 -0.31808 -0.255658
v 0.324312 -0.322009 -0.259004
v 0.320599 -0.314133 -0.252355
v 0.31009 -0.286287 -0.237105
v 0.312379 -0.290361 -0.240105
v 0.307532 -0.279142 -0.238712
v 0.305001 -0.275142 -0.235744
v 0.303135 -0.274148 -0.228193
v 0.305622 -0.278129 -0.231114
v 0.30024 -0.267048 -0.22978
v 0.302804 -0.271018 -0.23275
v 0.300625 -0.270177 -0.225244
v 0.297966 -0.263045 -0.226706
v 0.298229 -0.266225 -0.22223
v 0.293252 -0.258368 -0.216286
v 0.295902 -0.262245 -0.219209
v 0.290128 -0.251274 -0.217833
v 0.287046 -0.247594 -0.214985
v 0.290581 -0.254488 -0.213352
v 0.282369 -0.242971 -0.204675
v 0.285093 -0.246818 -0.20757
v 0.287817 -0.250665 -0.210465
v 0.283084 -0.250371 -0.204612
v 0.285703 -0.254234 -0.207542
v 0.288322 -0.258098 -0.210472
v 0.29094 -0.261961 -0.213402
v 0.267719 -0.284574 -0.213211
v 0.280423 -0.2465 -0.201731
v 0.281072 -0.257192 -0.207692
v 0.283637 -0.260985 -0.210753
v 0.278529 -0.25343 -0.204592
v 0.272789 -0.291948 -0.219584
v 0.27026 -0.288274 -0.21638
v 0.291961 -0.31175 -0.238365
v 0.289636 -0.307997 -0.235077
v 0.287311 -0.304244 -0.231788
v 0.296777 -0.308987 -0.238006
v 0.294453 -0.305235 -0.234717
v 0.286193 -0.264769 -0.213825
v 0.288631 -0.268481 -0.217014
v 0.29104 -0.272303 -0.220095
v 0.293471 -0.276338 -0.222882
v 0.293428 -0.265794 -0.216462
v 0.295887 -0.280204 -0.225985
v 0.300704 -0.277463 -0.225644
v 0.298164 -0.284135 -0.229035
v 0.300386 -0.288045 -0.232143
v 0.302619 -0.29199 -0.235206
v 0.304899 -0.296071 -0.238095
v 0.302981 -0.281459 -0.228644
v 0.305273 -0.285463 -0.231648
v 0.307566 -0.289467 -0.234652
v 0.309859 -0.29347 -0.237656
v 0.307188 -0.300094 -0.24107
v 0.295852 -0.26968 -0.219528
v 0.298277 -0.273568 -0.22259
v 0.292968 -0.255103 -0.220705
v 0.295277 -0.25918 -0.223743
v 0.310105 -0.28312 -0.241649
v 0.314663 -0.29445 -0.243105
v 0.316813 -0.298588 -0.246101
v 0.318966 -0.302723 -0.249092
v 0.321299 -0.306776 -0.252072
v 0.323152 -0.310854 -0.25537
v 0.324831 -0.314925 -0.258741
v 0.307905 -0.282187 -0.234091
v 0.312038 -0.297581 -0.2406
v 0.314183 -0.301724 -0.243525
v 0.316328 -0.305867 -0.24645
v 0.318472 -0.31001 -0.249374
v 0.309339 -0.304231 -0.243998
v 0.311533 -0.308495 -0.246698
v 0.315272 -0.317241 -0.252458
v 0.317842 -0.321108 -0.255161
v 0.301441 -0.316527 -0.244576
v 0.308229 -0.327669 -0.25479
v 0.294286 -0.315496 -0.241664
v 0.296617 -0.31915 -0.245081
v 0.299109 -0.312757 -0.241291
v 0.303744 -0.320278 -0.247905
v 0.305987 -0.32399 -0.251322
f 2 5 13 1
f 13 12 7 1
f 3 6 5 2
f 4 33 6 3
f 35 34 33 4
f 6 18 11 5
f 11 10 13 5
f 33 31 18 6
f 12 26 29 7
f 20 9 14 8
f 22 21 20 8
f 12 13 10 9
f 10 15 14 9
f 20 26 12 9
f 11 16 15 10
f 18 17 16 11
f 18 31 19 17
f 31 32 30 19
f 21 27 26 20
f 22 23 24 21
f 24 25 27 21
f 27 28 29 26
f 32 38 36 30
f 33 34 32 31
f 34 39 38 32
f 35 45 39 34
f 38 41 37 36
f 41 42 40 37
f 39 43 41 38
f 45 96 43 39
f 42 46 49 40
f 43 44 42 41
f 44 47 46 42
f 96 102 44 43
f 102 101 47 44
f 47 48 51 46
f 51 50 49 46
f 52 53 51 48
f 51 53 54 50
f 58 56 53 52
f 56 55 54 53
f 56 57 59 55
f 58 105 57 56
f 105 104 107 57
f 107 60 59 57
f 107 106 61 60
f 106 148 62 61
f 148 144 63 62
f 144 149 66 63
f 66 67 65 64
f 149 150 67 66
f 150 145 68 67
f 71 70 143 69
f 134 133 72 70
f 72 142 143 70
f 133 132 139 72
f 121 122 74 73
f 128 75 135 73
f 135 120 121 73
f 122 136 129 74
f 76 78 135 75
f 80 77 78 76
f 114 119 78 77
f 80 79 81 77
f 81 125 114 77
f 119 120 135 78
f 82 83 81 79
f 83 124 125 81
f 127 85 83 82
f 85 112 124 83
f 95 112 85 84
f 85 127 126 84
f 88 94 95 84
f 87 91 88 86
f 91 93 94 88
f 97 92 90 89
f 92 93 91 90
f 100 98 93 92
f 98 99 94 93
f 99 108 95 94
f 108 109 112 95
f 110 124 112 109
f 111 125 124 110
f 113 114 125 111
f 115 119 114 113
f 116 120 119 115
f 117 121 120 116
f 118 122 121 117
f 123 136 122 118
f 140 137 136 123
f 136 137 130 129
f 137 138 131 130
f 138 139 132 131
f 140 141 138 137
f 147 144 148 146
f 148 106 103 146
f 104 103 106 107
