v -0.17365 0.232912 0.00660088
v -0.167669 0.232273 0.00287522
v -0.165547 0.229859 -0.0072366
v -0.159695 0.228559 -0.0110364
v -0.16176 0.230616 -0.000936078
v -0.152886 0.226411 0.000752074
v -0.156169 0.227893 -0.00512337
v -0.158272 0.229414 0.0050305
v -0.165975 0.232162 0.0195405
v -0.160576 0.229349 0.0152066
v -0.152122 0.223036 0.0165639
v -0.155177 0.226535 0.0108728
v -0.149778 0.223722 0.00653897
v -0.146673 0.220626 0.0121793
v -0.143482 0.217784 0.0178147
v -0.143727 0.211617 0.0436438
v -0.14749 0.214771 0.0379501
v -0.151253 0.217925 0.0322565
v -0.141816 0.213104 0.0335704
v -0.145579 0.216258 0.0278768
v -0.139904 0.214591 0.023497
v -0.138028 0.210512 0.0391535
v -0.136115 0.212026 0.0290748
v -0.130408 0.211074 0.0245545
v -0.134202 0.21354 0.018996
v -0.13388 0.207912 0.0447498
v -0.132258 0.209536 0.03464
v -0.139708 0.208848 0.0492566
v -0.171846 0.234224 0.0236565
v -0.110793 0.195271 0.0613142
v -0.115512 0.199287 0.0563755
v -0.106049 0.191976 0.0662979
v -0.10564 0.195596 0.0563154
v -0.11039 0.198724 0.0513213
v -0.105173 0.198855 0.0463062
v -0.0999126 0.198689 0.0412039
v -0.0952401 0.196679 0.046025
v -0.0955867 0.194297 0.0562663
v -0.100452 0.196461 0.0513639
v -0.0903371 0.194636 0.0509191
v -0.085043 0.195088 0.0455688
v -0.0906294 0.191878 0.0609967
v -0.0853417 0.192281 0.0556358
v -0.0958657 0.191396 0.0663108
v -0.086049 0.184392 0.0750869
v -0.0909152 0.18803 0.0707391
v -0.0811862 0.180743 0.0794278
v -0.0761522 0.18111 0.0740022
v -0.080974 0.184888 0.0697435
v -0.0711182 0.181478 0.0685767
v -0.0768046 0.176105 0.08312
v -0.0634009 0.166855 0.0850842
v -0.0584977 0.16696 0.0795568
v -0.0537407 0.16694 0.0739279
v -0.0490299 0.166881 0.068267
v -0.0445082 0.166694 0.0623969
v -0.0506701 0.160871 0.0765789
v -0.0461169 0.160737 0.0708093
v -0.0597897 0.161093 0.08805
v -0.0523793 0.154525 0.0844122
v -0.0552293 0.160984 0.0823175
v -0.0478189 0.154415 0.0786797
v -0.0433004 0.154295 0.0729107
v -0.0450947 0.147909 0.0806752
v -0.0409845 0.147683 0.0745464
v -0.0394461 0.140606 0.0756673
v -0.0494578 0.148008 0.0866093
v -0.0514081 0.133652 0.0942094
v -0.0526246 0.140875 0.0933708
v -0.0480229 0.140849 0.0876015
v -0.0538959 0.148082 0.0924898
v -0.0567997 0.154648 0.0903041
v -0.046997 0.133567 0.0883203
v -0.0436607 0.14075 0.0816816
v -0.0427767 0.133429 0.0823118
v -0.0386688 0.133273 0.0762354
v -0.0507155 0.126402 0.0947457
v -0.04651 0.126233 0.0887229
v -0.0423044 0.126063 0.0827001
v -0.0380989 0.125893 0.0766773
v -0.0466318 0.118892 0.0888177
v -0.0424712 0.118662 0.0827891
v -0.0383106 0.118432 0.0767605
v -0.0508289 0.119129 0.0948381
v -0.163828 0.232039 0.00925251
v -0.047901 0.172395 0.0595078
v -0.0526854 0.172391 0.0651173
v -0.0625119 0.17216 0.0761547
v -0.0575839 0.172306 0.0706552
v -0.0568938 0.177187 0.0614595
v -0.0612646 0.181699 0.0576364
v -0.0674299 0.172062 0.0816454
v -0.0716396 0.176932 0.0779242
v -0.0667244 0.177016 0.0724361
v -0.0618092 0.177101 0.0669479
v -0.0661582 0.181674 0.063118
v -0.065898 0.185609 0.0535829
v -0.0807277 0.188809 0.0600904
v -0.0756299 0.188924 0.0546735
v -0.0857961 0.18866 0.0654871
v -0.0759413 0.185223 0.064329
v -0.0709142 0.185421 0.0589606
v -0.175862 0.233926 0.0168979
v -0.0802584 0.192288 0.0501883
v -0.169671 0.234108 0.0132386
v -0.100811 0.193531 0.0614297
v -0.119617 0.201737 0.0510054
v -0.118142 0.20342 0.0409225
v -0.12224 0.205939 0.0355215
v -0.114666 0.201285 0.0461397
v -0.11373 0.203173 0.0358978
v -0.116816 0.20516 0.030796
v -0.125336 0.202624 0.0556856
v -0.129643 0.20528 0.0502808
v -0.12373 0.204253 0.0456043
v -0.128037 0.206909 0.0401995
v -0.12643 0.208538 0.0301183
v -0.153555 0.215548 0.0422799
v -0.156751 0.219825 0.0366382
v -0.159886 0.224137 0.0309943
v -0.162983 0.228272 0.0253438
v -0.154456 0.221681 0.0265994
v -0.149007 0.219539 0.0222039
v -0.157534 0.225777 0.0209206
f 105 85 2 1
f 85 8 5 2
f 5 7 4 3
f 8 6 7 5
f 8 12 13 6
f 85 10 12 8
f 10 85 105 9
f 105 103 29 9
f 121 124 10 9
f 124 11 12 10
f 14 13 12 11
f 124 122 123 11
f 123 15 14 11
f 123 20 21 15
f 22 19 17 16
f 28 26 22 16
f 19 20 18 17
f 18 119 118 17
f 20 123 122 18
f 122 120 119 18
f 23 21 20 19
f 22 27 23 19
f 23 24 25 21
f 26 116 27 22
f 27 117 24 23
f 114 115 116 26
f 116 109 117 27
f 33 34 31 30
f 32 106 33 30
f 39 35 34 33
f 106 38 39 33
f 39 37 36 35
f 39 38 40 37
f 42 43 40 38
f 43 104 41 40
f 44 46 100 42
f 100 98 43 42
f 98 99 104 43
f 49 100 46 45
f 47 48 49 45
f 51 93 48 47
f 50 101 49 48
f 93 94 50 48
f 101 98 100 49
f 96 102 101 50
f 94 95 96 50
f 53 88 92 52
f 59 61 53 52
f 54 89 88 53
f 61 57 54 53
f 55 87 89 54
f 57 58 55 54
f 56 86 87 55
f 61 60 62 57
f 62 63 58 57
f 72 60 61 59
f 72 71 67 60
f 67 64 62 60
f 64 65 63 62
f 67 70 74 64
f 74 66 65 64
f 74 75 76 66
f 71 69 70 67
f 73 70 69 68
f 77 78 73 68
f 73 75 74 70
f 78 79 75 73
f 79 80 76 75
f 84 81 78 77
f 81 82 79 78
f 82 83 80 79
f 90 95 89 87
f 89 95 94 88
f 94 93 92 88
f 91 96 95 90
f 97 102 96 91
f 101 102 99 98
f 110 108 115 107
f 115 114 113 107
f 111 112 109 108
f 109 116 115 108
f 122 124 121 120
