v -0.35352575 0.269126125 -0.24274925
v -0.3461725 0.257499 -0.235240375
v -0.329507 0.247729765625 -0.22371575
v -0.33001575 0.272480625 -0.2371715
v -0.350187625 0.242579625 -0.235707125
v -0.316491 0.237969625 -0.212074
v -0.341109375 0.231434375 -0.2249935
v -0.316126375 0.262289 -0.2265885
v -0.306247625 0.251339875 -0.21625075
v -0.3281805 0.22508075 -0.214060875
v -0.336700125 0.230083125 -0.237084375
v -0.326929375 0.220334375 -0.22646725
v -0.037832075 0.258932125 -0.232296
v -0.121338 0.182150875 -0.1901685
v -0.3441345 0.279925 -0.244944125
v -0.151033875 0.1587405 -0.192296375
v -0.172873125 0.1356305 -0.19580575
v -0.0552836875 0.256982625 -0.2329525
v -0.0905247875 0.2407635 -0.225096
v -0.288059625 0.207702875 -0.20506775
v -0.300185125 0.209881125 -0.197650625
v -0.312229125 0.212879125 -0.212225125
v -0.29424475 0.210343875 -0.221779
v -0.0967359375 0.205901375 -0.197009625
v -0.29910575 0.216467125 -0.238748625
v -0.197512390625 0.281884828125 -0.2899090625
v -0.142891125 0.167384625 -0.192358
v -0.090213 0.2526835 -0.237145625
v -0.342471 0.230113 -0.232578875
v -0.139785625 0.190676546875 -0.205664125
v -0.30343375 0.226201625 -0.250729125
v -0.35098375 0.24007075 -0.2393975
v -0.3517905 0.243772 -0.243602375
v -0.16101975 0.161184125 -0.200492875
v -0.1794514375 0.15376415625 -0.211441125
v -0.167179875 0.14845625 -0.197977
v -0.190499875 0.119042125 -0.203147375
v -0.03642075 0.26888225 -0.24368825
v -0.260751 0.209666 -0.264742125
v -0.276775 0.223061125 -0.2616125
v -0.293180375 0.236725625 -0.263209875
v -0.0742782 0.255953375 -0.236124625
v -0.13178725 0.175465375 -0.191133
v -0.3097475 0.249985375 -0.265818375
v -0.326297875 0.26298775 -0.268308
v -0.251083 0.22940484375 -0.272464921875
v -0.266957265625 0.241544046875 -0.271670265625
v -0.249531625 0.19436775 -0.271094125
v -0.3393185 0.275447875 -0.269971375
v -0.299715421875 0.266950109375 -0.27512140625
v -0.283163390625 0.25430559375 -0.273184875
v -0.257277 0.172946375 -0.27131375
v -0.1032058625 0.235131 -0.224113375
v -0.236290390625 0.216616046875 -0.275944625
v -0.225568453125 0.237645421875 -0.2804329375
v -0.316332578125 0.279505484375 -0.276253828125
v -0.24032309375 0.249709484375 -0.27926
v -0.099289875 0.2208265 -0.209774875
v -0.231770421875 0.18241309375 -0.2785538125
v -0.256349546875 0.261141140625 -0.279367046875
v -0.3330015 0.29166575 -0.27588425
v -0.272751125 0.2731915 -0.280501046875
v -0.211669953125 0.225738828125 -0.281526125
v -0.22813140625 0.27048409375 -0.28511
v -0.306081375 0.297719421875 -0.28178784375
v -0.289416296875 0.285450671875 -0.28161965625
v -0.264465 0.152163 -0.2718315
v -0.2218644375 0.20409259375 -0.27992709375
v -0.2415176875 0.16090896875 -0.27720053125
v -0.245145859375 0.280908234375 -0.2850220625
v -0.262088953125 0.292828515625 -0.28551965625
v -0.212981953125 0.258700171875 -0.285318171875
v -0.3360365 0.32180325 -0.277437625
v -0.326208875 0.308800375 -0.279512375
v -0.2787698125 0.305073015625 -0.28576975
v -0.25027625 0.140005625 -0.275732375
v -0.199518421875 0.246612484375 -0.284366125
v -0.328138875 0.34025025 -0.278223375
v -0.2952718125 0.317219453125 -0.284929265625
v -0.21508375 0.293865625 -0.289339484375
v -0.23372578125 0.301171421875 -0.28850765625
v -0.3117559375 0.328987625 -0.2824028125
v -0.1837955625 0.265026921875 -0.2881855
v -0.250951203125 0.313359890625 -0.28814809375
v -0.315743375 0.36006475 -0.2783795
v -0.29977009375 0.34882246875 -0.28275265625
v -0.26738625 0.325387765625 -0.287352953125
v -0.161371375 0.280624875 -0.2929335
v -0.236167 0.111535375 -0.268968
v -0.20886890625 0.194343390625 -0.2750401875
v -0.150309375 0.2942225 -0.29553225
v -0.283561703125 0.33719890625 -0.285723109375
v -0.235314125 0.12858175 -0.274166
v -0.19941384375 0.216124234375 -0.275448578125
v -0.2175194375 0.172791421875 -0.27457503125
v -0.301298 0.37539725 -0.27769975
v -0.225727734375 0.15165728125 -0.273625125
v -0.18752809375 0.236919828125 -0.276828640625
v -0.23735725 0.333838296875 -0.28744153125
v -0.179339328125 0.30022803125 -0.2910995625
v -0.219740203125 0.323394015625 -0.288407296875
v -0.199296078125 0.313829171875 -0.2893103125
v -0.2857975 0.371266625 -0.2804365
v -0.229032625 0.107055 -0.251515375
v -0.2235665625 0.127202515625 -0.25447625
v -0.25361753125 0.3447520625 -0.286147421875
v -0.208914625 0.168056890625 -0.258517078125
v -0.216634625 0.14756175 -0.256686265625
v -0.17837334375 0.22927796875 -0.26354053125
v -0.159581875 0.311500125 -0.28765975
v -0.122973625 0.196210625 -0.200461125
v -0.269657671875 0.356029875 -0.284122828125
v -0.190822109375 0.209569015625 -0.261736640625
v -0.2005516875 0.188751921875 -0.26012696875
v -0.1621291875 0.245287078125 -0.265164390625
v -0.2707335 0.38455025 -0.27657875
v -0.219436875 0.104643875 -0.232398875
v -0.171799625 0.253803734375 -0.2793565625
v -0.11055365 0.201358375 -0.1988115
v -0.181911625 0.326705875 -0.2842225
v -0.214196875 0.124506359375 -0.23581540625
v -0.2077559375 0.1441531875 -0.238842359375
v -0.1818896875 0.20334846875 -0.24690346875
v -0.15085225 0.26984125 -0.2847065
v -0.20042340625 0.1637675 -0.2416229375
v -0.142963484375 0.256643625 -0.265542984375
v -0.15278003125 0.2363180625 -0.25008103125
v -0.12826525 0.27455725 -0.282687625
v -0.19810425 0.33908425 -0.282519375
v -0.22135325 0.350064765625 -0.2825794375
v -0.23843015625 0.361504765625 -0.28133165625
v -0.2557785 0.396129875 -0.269994125
v -0.25466778125 0.372991765625 -0.279302953125
v -0.191858453125 0.183600015625 -0.244202828125
v -0.16922259375 0.221629234375 -0.249305625
v -0.133833765625 0.24570640625 -0.24840290625
v -0.203044015625 0.121751421875 -0.2187243125
v -0.17225165625 0.19627465625 -0.23270259375
v -0.143771109375 0.2252383125 -0.23471871875
v -0.121254367188 0.263467921875 -0.26291434375
v -0.1053454125 0.276813375 -0.27616375
v -0.207944625 0.10250825 -0.2148955
v -0.190701296875 0.15884134375 -0.226026625
v -0.162079734375 0.18841196875 -0.218840390625
v -0.17203134375 0.17114796875 -0.215413140625
v -0.18241653125 0.1775698125 -0.229346984375
v -0.15970284375 0.212842109375 -0.235008078125
v -0.1172999375 0.217594390625 -0.214639421875
v -0.19167625 0.3497085 -0.27468175
v -0.205946375 0.362876875 -0.27375275
v -0.239522375 0.387648875 -0.271099125
v -0.222992 0.37553725 -0.272817875
v -0.19732484375 0.1404890625 -0.222433734375
v -0.13449190625 0.2125085625 -0.21893378125
v -0.125537317187 0.232418984375 -0.231511328125
v -0.14965565625 0.20276525 -0.220387875
v -0.095769075 0.269587 -0.2597565
v -0.184349625 0.13414825 -0.204963125
v -0.113449892187 0.25096815625 -0.244539109375
v -0.075325525 0.269532125 -0.252658125
v -0.152044359375 0.17909146875 -0.205522921875
v -0.19602725 0.103458 -0.201497
v -0.0541540875 0.270312875 -0.248557125
v -0.336650625 0.265369375 -0.23528925
v -0.3371725 0.2777325 -0.241897
v -0.3505735 0.2758395 -0.2450555
v -0.3500275 0.263435 -0.2385435
v -0.347086 0.2365735 -0.2313945
v -0.335456375 0.23972675 -0.22400875
v -0.3361396875 0.2528108125 -0.2291588125
v -0.3480545 0.250051 -0.235642
v -0.322964875 0.2551540625 -0.22480625
v -0.3229925 0.267388 -0.232025
v -0.3346175 0.226564 -0.2187935
v -0.3223685 0.230103 -0.212062
v -0.3229740625 0.2428095 -0.2179704375
v -0.3098575 0.2450195 -0.213374
v -0.309441 0.257018 -0.220993
v -0.3061975 0.211102 -0.203459
v -0.3032369375 0.2116115 -0.2170020625
v -0.2898315 0.208471 -0.2129855
v -0.292825 0.2084605 -0.1990715
v -0.1887048125 0.2919420625 -0.2910793125
v -0.1718485 0.29072125 -0.2923211875
v -0.174770875 0.2734904375 -0.29020525
v -0.190290625 0.273365375 -0.2896655
v -0.1888245625 0.307789625 -0.2900855625
v -0.2059379375 0.2887011875 -0.28974
v -0.2074969375 0.3046346875 -0.2899790625
v -0.192087125 0.25611275 -0.286202
v -0.206077875 0.2525084375 -0.2853393125
v -0.20561475 0.270405 -0.2878309375
v -0.2203086875 0.26475775 -0.285227125
v -0.2218355625 0.2821523125 -0.287583375
v -0.2719248125 0.2322095625 -0.266818125
v -0.258924125 0.235473875 -0.2717301875
v -0.2559906875 0.21948625 -0.2686718125
v -0.268617 0.216403 -0.2625315
v -0.243591875 0.22307275 -0.273909
v -0.2413563125 0.2060594375 -0.27400925
v -0.253443 0.202599 -0.268183
v -0.2882024375 0.245412625 -0.2683965
v -0.2750244375 0.2478795625 -0.272250625
v -0.284959 0.2298915 -0.2620465
v -0.3047501875 0.2583505 -0.2706814375
v -0.291411875 0.2606473125 -0.274186625
v -0.3014505 0.243395 -0.264479
v -0.3213329375 0.2711184375 -0.2724576875
v -0.3080195625 0.273259375 -0.27585475
v -0.3180495 0.2565825 -0.2671925
v -0.337812 0.283145 -0.272696
v -0.32466275 0.2856188125 -0.2761858125
v -0.334434 0.2690025 -0.2688715
v -0.261755 0.251250625 -0.2758154375
v -0.248227625 0.255427 -0.2791575625
v -0.2458805625 0.239520125 -0.275984875
v -0.23280675 0.2437419375 -0.2796971875
v -0.2310825 0.22716975 -0.2781095
v -0.278002125 0.2636105 -0.27717675
v -0.2645180625 0.2670985625 -0.279865625
v -0.2290181875 0.2101731875 -0.278454
v -0.22682025 0.19324475 -0.279234625
v -0.2391830625 0.18861275 -0.2762203125
v -0.2367254375 0.171605875 -0.277884375
v -0.2494974375 0.16676275 -0.274875
v -0.2518555 0.184138 -0.2717155
v -0.311261375 0.28840525 -0.279342875
v -0.2977515 0.291597 -0.2818908125
v -0.29460575 0.2760186875 -0.2787151875
v -0.2810666875 0.2793121875 -0.2811210625
v -0.2459795625 0.15040825 -0.2764765
v -0.2591615 0.1453225 -0.2739325
v -0.2626585 0.1618295 -0.2711555
v -0.2184980625 0.231541 -0.2814310625
v -0.2168925 0.214948375 -0.2806315
v -0.2343503125 0.2598503125 -0.282318625
v -0.2195840625 0.2479679375 -0.282844
v -0.2059623125 0.2363906875 -0.28278925
v -0.327974 0.300582 -0.278375
v -0.314415 0.3037861875 -0.2811640625
v -0.2507724375 0.2710274375 -0.2824385
v -0.2365234375 0.275682125 -0.285010625
v -0.2149183125 0.1987226875 -0.278853875
v -0.2132573125 0.1835186875 -0.2748501875
v -0.224197875 0.177023375 -0.2781519375
v -0.2216771875 0.162176 -0.2741741875
v -0.2331375625 0.155714875 -0.277054625
v -0.267442875 0.28291275 -0.2832866875
v -0.25365975 0.2867188125 -0.285237375
v -0.2841421875 0.2951405 -0.2839916875
v -0.2704573125 0.298952 -0.285732
v -0.1932255625 0.24144225 -0.2814741875
v -0.1938798125 0.2268450625 -0.2759915
v -0.2051585 0.2205490625 -0.2795526875
v -0.2043323125 0.205251125 -0.2751855625
v -0.239592 0.29078225 -0.28711
v -0.2244663125 0.2974293125 -0.2888886875
v -0.353079 0.2436165 -0.2424205
v -0.345757 0.2391615 -0.242405
v -0.339544 0.2300555 -0.235056
v -0.346866 0.2345105 -0.2350715
v -0.317345125 0.3192268125 -0.28146775
v -0.3035205625 0.323166 -0.2838945625
v -0.300754625 0.3073496875 -0.28365175
v -0.2870314375 0.3111753125 -0.28552825
v -0.22966825 0.141220125 -0.2729053125
v -0.2413375 0.13491 -0.275505
v -0.2567009375 0.3029930625 -0.2871859375
v -0.2425023125 0.306871125 -0.2883164375
v -0.2732855625 0.3152330625 -0.2868923125
v -0.25922775 0.3194691875 -0.2878356875
v -0.3325545 0.225941 -0.2332455
v -0.3178575 0.2295545 -0.2472485
v -0.2991495 0.22137 -0.24671
v -0.3130175625 0.21840075 -0.2326079375
v -0.3199561875 0.334657 -0.2804326875
v -0.3311855 0.3152275 -0.2786405
v -0.3338945 0.3304675 -0.277582
v -0.289623625 0.327252125 -0.2856150625
v -0.275481 0.331304375 -0.286673625
v -0.177550125 0.2587535625 -0.28464525
v -0.1801565625 0.24585475 -0.2779743125
v -0.3077778125 0.354473625 -0.2806685625
v -0.305977375 0.3389451875 -0.28282725
v -0.322149 0.3501815 -0.2785115
v -0.2916780625 0.34305125 -0.2844268125
v -0.227162125 0.3125976875 -0.289020375
v -0.20974575 0.3187698125 -0.2888049375
v -0.2974035 0.2129005 -0.2304025
v -0.319647 0.2159685 -0.2196775
v -0.244512125 0.3238825 -0.2882686875
v -0.2288460625 0.32848425 -0.28795525
v -0.09649075 0.212538 -0.202042
v -0.1024046 0.2027995 -0.1967345
v -0.11379746875 0.2095803125 -0.2066356875
v -0.10834125 0.2193113125 -0.2122210625
v -0.1587655 0.273934 -0.2886055
v -0.1624916875 0.2609206875 -0.2809034375
v -0.2607686875 0.33530425 -0.28714525
v -0.2455676875 0.3392539375 -0.286858875
v -0.2935735 0.3734455 -0.2792425
v -0.29289475 0.3583424375 -0.282190625
v -0.3087405 0.3697035 -0.2777605
v -0.2776515 0.3617524375 -0.28273825
v -0.2768376875 0.346811 -0.285267375
v -0.2616469375 0.3503535625 -0.2852473125
v -0.16956325 0.3063940625 -0.2897276875
v -0.1522335 0.3027145 -0.2919905
v -0.155954 0.2871235 -0.2955445
v -0.2278816875 0.1285696875 -0.2642020625
v -0.2264149375 0.1171121875 -0.2530551875
v -0.233537 0.1081565 -0.261245
v -0.235175 0.119567 -0.272631
v -0.194886125 0.212616875 -0.269151625
v -0.1959369375 0.199197 -0.2609148125
v -0.2044053125 0.191234625 -0.268291875
v -0.2048465625 0.1783746875 -0.2593375625
v -0.212789125 0.1700650625 -0.2673834375
v -0.220658875 0.149213 -0.266099875
v -0.2202568125 0.137359125 -0.2556598125
v -0.1827548125 0.2329673125 -0.270594625
v -0.185027 0.2197270625 -0.262628
v -0.2128489375 0.157790125 -0.257636
v -0.166789375 0.249435875 -0.27263125
v -0.170682875 0.2378285625 -0.264425875
v -0.2461174375 0.35350075 -0.2842376875
v -0.2300496875 0.355773 -0.2820506875
v -0.229460125 0.3425046875 -0.2855604375
v -0.2122295625 0.3443988125 -0.2829240625
v -0.2112991875 0.331893375 -0.2864275625
v -0.190702125 0.32081875 -0.2871414375
v -0.17021 0.31948 -0.2852805
v -0.1924805 0.3332295 -0.2838555
v -0.2627064375 0.37876525 -0.277990625
v -0.26222775 0.364797 -0.2821644375
v -0.2782005 0.376279 -0.2793295
v -0.2190553125 0.125855875 -0.2449844375
v -0.2169094375 0.114592625 -0.2341375
v -0.2244015 0.1058555 -0.2418325
v -0.212358625 0.14588325 -0.2475916875
v -0.2111140625 0.1343500625 -0.237371875
v -0.2466059375 0.3672413125 -0.2804161875
v -0.1963321875 0.1862508125 -0.2520635
v -0.1962986875 0.1736615625 -0.2429154375
v -0.204803625 0.1659795 -0.249915875
v -0.2042174375 0.1539451875 -0.2402623125
v -0.157428875 0.2409944375 -0.2576510625
v -0.1614115 0.2295590625 -0.24996225
v -0.1738513125 0.2255450625 -0.25643475
v -0.175986625 0.212799375 -0.248221
v -0.1864685625 0.2065226875 -0.2542784375
v -0.187117875 0.1935555 -0.245548125
v -0.1473671875 0.2616313125 -0.274238875
v -0.152885875 0.25156175 -0.2656364375
v -0.13836475 0.2514086875 -0.2569318125
v -0.143554875 0.2416354375 -0.249552125
v -0.2477625 0.3935535 -0.269913
v -0.247097625 0.3804935625 -0.275449125
v -0.2633475 0.392148 -0.2728415
v -0.2088401875 0.1231305625 -0.2270579375
v -0.20555475 0.1121666875 -0.2168191875
v -0.213932 0.103506 -0.223417
v -0.202751625 0.14234725 -0.2304645
v -0.2002915625 0.13118875 -0.2205923125
v -0.19574125 0.1613555 -0.233681375
v -0.1941713125 0.14966275 -0.224259125
v -0.1645210625 0.217391125 -0.2421815
v -0.166352125 0.20495975 -0.2340895625
v -0.1771496875 0.1999169375 -0.2397381875
v -0.17758925 0.187043625 -0.2310690625
v -0.187242125 0.18066825 -0.2366463125
v -0.12484070625 0.26910725 -0.272691625
v -0.1323725625 0.26052375 -0.264585
v -0.1403475 0.271137 -0.2833825
v -0.186785125 0.168156375 -0.227694375
v -0.1173444375 0.2574499375 -0.2535745
v -0.1237144375 0.2487261875 -0.24666075
v -0.1296333125 0.2393166875 -0.2399538125
v -0.1348476875 0.2293723125 -0.233400125
v -0.14827425 0.2310180625 -0.2424440625
v -0.152116 0.2196649375 -0.23523625
v -0.10037815 0.2733175 -0.267967
v -0.10975015625 0.2657419375 -0.260682875
v -0.1156195 0.276838 -0.280676
v -0.213569125 0.356701625 -0.2784525625
v -0.1968185 0.3561205 -0.273625
v -0.1949705 0.3443035 -0.278554
v -0.2307174375 0.3687185625 -0.2773449375
v -0.214609 0.369315 -0.273434
v -0.231281 0.381646 -0.2720535
v -0.10990970625 0.2439374375 -0.2356751875
v -0.11603158125 0.234730375 -0.2292831875
v -0.19145475 0.13860225 -0.2147256875
v -0.188013 0.1279415 -0.2051645
v -0.196867125 0.120391875 -0.2108268125
v -0.1927605 0.110057 -0.201095
v -0.2015325 0.101717 -0.206843
v -0.1547240625 0.2079935625 -0.2277310625
v -0.15619725 0.19608225 -0.2199305
v -0.1671986875 0.1924681875 -0.2257166875
v -0.1673714375 0.179958875 -0.2172710625
v -0.177315 0.174419 -0.222257875
v -0.12131970625 0.22519275 -0.22300225
v -0.12607325 0.215474 -0.217002125
v -0.1391301875 0.2191226875 -0.2268835625
v -0.142386625 0.2082565 -0.220059
v -0.09578675 0.2609954375 -0.248895875
v -0.10329313125 0.2527056875 -0.2422514375
v -0.1760184375 0.16240425 -0.21345725
v -0.1852476875 0.156322875 -0.218594125
v -0.1824490625 0.145264125 -0.2094025
v -0.1445685625 0.1970769375 -0.2130159375
v -0.1462159375 0.18545625 -0.2059853125
v -0.15698375 0.1840204375 -0.212133625
v -0.15705375 0.171797375 -0.204287125
v -0.166659375 0.167688875 -0.2088469375
v -0.1645265 0.1562485 -0.200265
v -0.1733835625 0.15112925 -0.204624875
v -0.11824 0.199704 -0.2008355
v -0.1299966875 0.2052333125 -0.2108645625
v -0.1329705625 0.1945371875 -0.2045491875
v -0.10275415 0.228884 -0.2181515
v -0.0748018625 0.26274275 -0.244391375
v -0.08379595 0.255204 -0.2379205
v -0.08656955 0.2688585 -0.255203
v -0.169521 0.1408405 -0.195751
v -0.1785595 0.1350555 -0.20036
v -0.09036465 0.246766 -0.231074
v -0.0969673 0.237988 -0.224602
v -0.0547188875 0.26364775 -0.2407548125
v -0.06482445 0.2565575 -0.234484
v -0.06458295 0.270008 -0.2504735
v -0.1473951875 0.1734229375 -0.1989348125
v -0.146977 0.16207 -0.191661
v -0.1561185 0.16023 -0.1965385
v -0.1222645 0.1892525 -0.195343
v -0.1254195 0.178227 -0.189625
v -0.1356296875 0.183312 -0.1983813125
v -0.1377195 0.1718505 -0.192113
v -0.0346092 0.2639315 -0.237606
v -0.0455049 0.257195 -0.231484
v -0.0438512 0.2704735 -0.246817
v -0.3436 0.27058375 -0.24022025
v -0.34179625 0.2448305 -0.2298515
v -0.3297495 0.26023775 -0.23016675
v -0.32895325 0.2348565 -0.2180615
v -0.316365 0.2500835 -0.21916125
v -0.2980145 0.2097865 -0.20822225
v -0.18130975 0.2826815 -0.291332
v -0.1976695 0.29916475 -0.29057325
v -0.19858775 0.263131 -0.287568
v -0.21342325 0.276784 -0.28779675
v -0.26384175 0.22586375 -0.26726325
v -0.248576 0.21281525 -0.271038
v -0.2800355 0.2387855 -0.26734225
v -0.29645425 0.251912 -0.26954175
v -0.3130495 0.264795 -0.271719
v -0.32958125 0.27719375 -0.27270075
v -0.25372175 0.24538275 -0.2756675
v -0.2383735 0.23341275 -0.276812
v -0.26983825 0.25737375 -0.27638425
v -0.23409025 0.1994275 -0.277233
v -0.244374 0.1776785 -0.27546125
v -0.30292975 0.2822275 -0.279209
v -0.28627725 0.26981925 -0.27799575
v -0.25438775 0.1560035 -0.27438075
v -0.2238895 0.22090025 -0.279838
v -0.2267775 0.253967 -0.28251475
v -0.21263775 0.24202775 -0.28327925
v -0.31961275 0.2945115 -0.2789825
v -0.24243475 0.26544325 -0.28228275
v -0.21958875 0.1878365 -0.2785395
v -0.22874275 0.166307 -0.27766225
v -0.259105 0.2768845 -0.28281725
v -0.2757965 0.2890105 -0.2837145
v -0.1995815 0.231301 -0.28034275
v -0.2101895 0.20965825 -0.279124
v -0.230674 0.28639425 -0.28730875
v -0.3463115 0.236836 -0.23873825
v -0.30905325 0.31335725 -0.28280375
v -0.29245625 0.3012655 -0.28400925
v -0.2372965 0.1452745 -0.27631325
v -0.248243 0.29658875 -0.28712425
v -0.26503975 0.3091745 -0.2871295
v -0.315852 0.2236555 -0.23997775
v -0.32562325 0.324897 -0.27964625
v -0.2814645 0.32126875 -0.28641175
v -0.18585775 0.250501 -0.282927
v -0.3140795 0.344598 -0.2807805
v -0.29781 0.33315375 -0.2844295
v -0.21748025 0.308637 -0.289462
v -0.30852525 0.2144345 -0.22504
v -0.23608525 0.31794275 -0.2886525
v -0.105219625 0.21113325 -0.20434625
v -0.16837475 0.26647625 -0.286573
v -0.25270525 0.32962725 -0.28777925
v -0.30083575 0.3640375 -0.28007575
v -0.28488125 0.35258925 -0.28390475
v -0.2688065 0.34104075 -0.28632775
v -0.16211025 0.2971265 -0.29238675
v -0.23083525 0.11834575 -0.26280625
v -0.19987275 0.20194825 -0.26868625
v -0.2086875 0.18060725 -0.26786925
v -0.2244245 0.138863 -0.265267
v -0.18924175 0.22310925 -0.26978725
v -0.21678 0.159607 -0.2667995
v -0.1752405 0.241733 -0.27157525
v -0.2379105 0.3479545 -0.28497325
v -0.220639 0.33717625 -0.2860475
v -0.17960975 0.31419075 -0.288066
v -0.20129275 0.32658025 -0.28669375
v -0.27022075 0.3705255 -0.28080225
v -0.2218335 0.115854 -0.2434515
v -0.21585675 0.1358645 -0.24634525
v -0.25420825 0.3591185 -0.2833055
v -0.20070175 0.1760935 -0.250996
v -0.20868175 0.1559155 -0.2487815
v -0.166057 0.23383425 -0.25722225
v -0.18059525 0.216332 -0.25541175
v -0.191651 0.19644475 -0.25316
v -0.157492 0.2561055 -0.27366475
v -0.1481835 0.2468205 -0.257598
v -0.255226 0.3863285 -0.27419725
v -0.21146125 0.1133495 -0.2252555
v -0.2059185 0.13278675 -0.22878825
v -0.199395 0.15184125 -0.23210475
v -0.17124125 0.2090045 -0.24113825
v -0.1824405 0.19039325 -0.2382055
v -0.13643375 0.26590275 -0.27391675
v -0.191683 0.17097675 -0.23516675
v -0.1280165 0.25485525 -0.25552125
v -0.13917 0.23576025 -0.2415015
v -0.156795 0.224812 -0.24264375
v -0.112737075 0.27143225 -0.27055675
v -0.20438325 0.350532 -0.27857975
v -0.22230125 0.3627535 -0.2780195
v -0.2389555 0.37462775 -0.27649325
v -0.11981525 0.2419655 -0.23793875
v -0.19425475 0.12957025 -0.212782
v -0.19925575 0.11108625 -0.20884225
v -0.16131225 0.2006775 -0.227001
v -0.1725345 0.18359225 -0.22407575
v -0.13040675 0.222649 -0.225202
v -0.147283 0.21418975 -0.22770925
v -0.10655425 0.2594825 -0.25129975
v -0.1815355 0.16531775 -0.22044275
v -0.18850325 0.14746875 -0.21667575
v -0.15108275 0.1910985 -0.212936
v -0.16219525 0.17606325 -0.2107005
v -0.17031825 0.15935925 -0.20678325
v -0.12207325 0.207731 -0.2088955
v -0.1375175 0.20173525 -0.21228175
v -0.112076075 0.227178 -0.220622
v -0.08518275 0.26203125 -0.24656175
v -0.176067 0.14305375 -0.20248725
v -0.100110575 0.24546325 -0.233382
v -0.0647037 0.26328275 -0.24247875
v -0.15199475 0.16705325 -0.197954
v -0.12904075 0.1865735 -0.197033
v -0.141844 0.1788855 -0.19904625
v -0.04467805 0.26383425 -0.2391505
f 2 164 443 167
f 4 165 443 164
f 15 166 443 165
f 1 167 443 166
f 5 168 444 171
f 7 169 444 168
f 3 170 444 169
f 2 171 444 170
f 3 172 445 170
f 8 173 445 172
f 4 164 445 173
f 2 170 445 164
f 7 174 446 169
f 10 175 446 174
f 6 176 446 175
f 3 169 446 176
f 6 177 447 176
f 9 178 447 177
f 8 172 447 178
f 3 176 447 172
f 21 179 448 182
f 22 180 448 179
f 23 181 448 180
f 20 182 448 181
f 26 183 449 186
f 100 184 449 183
f 88 185 449 184
f 83 186 449 185
f 102 187 450 189
f 100 183 450 187
f 26 188 450 183
f 80 189 450 188
f 26 186 451 192
f 83 190 451 186
f 77 191 451 190
f 72 192 451 191
f 26 192 452 188
f 72 193 452 192
f 64 194 452 193
f 80 188 452 194
f 40 195 453 198
f 47 196 453 195
f 46 197 453 196
f 39 198 453 197
f 46 199 454 197
f 54 200 454 199
f 48 201 454 200
f 39 197 454 201
f 41 202 455 204
f 51 203 455 202
f 47 195 455 203
f 40 204 455 195
f 44 205 456 207
f 50 206 456 205
f 51 202 456 206
f 41 207 456 202
f 45 208 457 210
f 56 209 457 208
f 50 205 457 209
f 44 210 457 205
f 49 211 458 213
f 61 212 458 211
f 56 208 458 212
f 45 213 458 208
f 47 214 459 196
f 60 215 459 214
f 57 216 459 215
f 46 196 459 216
f 57 217 460 216
f 55 218 460 217
f 54 199 460 218
f 46 216 460 199
f 51 219 461 203
f 62 220 461 219
f 60 214 461 220
f 47 203 461 214
f 54 221 462 200
f 68 222 462 221
f 59 223 462 222
f 48 200 462 223
f 59 224 463 223
f 69 225 463 224
f 52 226 463 225
f 48 223 463 226
f 56 227 464 209
f 65 228 464 227
f 66 229 464 228
f 50 209 464 229
f 66 230 465 229
f 62 219 465 230
f 51 206 465 219
f 50 229 465 206
f 69 231 466 225
f 76 232 466 231
f 67 233 466 232
f 52 225 466 233
f 55 234 467 218
f 63 235 467 234
f 68 221 467 235
f 54 218 467 221
f 57 236 468 217
f 64 193 468 236
f 72 237 468 193
f 55 217 468 237
f 72 191 469 237
f 77 238 469 191
f 63 234 469 238
f 55 237 469 234
f 61 239 470 212
f 74 240 470 239
f 65 227 470 240
f 56 212 470 227
f 60 241 471 215
f 70 242 471 241
f 64 236 471 242
f 57 215 471 236
f 68 243 472 222
f 90 244 472 243
f 95 245 472 244
f 59 222 472 245
f 95 246 473 245
f 97 247 473 246
f 69 224 473 247
f 59 245 473 224
f 62 248 474 220
f 71 249 474 248
f 70 241 474 249
f 60 220 474 241
f 66 250 475 230
f 75 251 475 250
f 71 248 475 251
f 62 230 475 248
f 77 252 476 238
f 98 253 476 252
f 94 254 476 253
f 63 238 476 254
f 94 255 477 254
f 90 243 477 255
f 68 235 477 243
f 63 254 477 235
f 70 256 478 242
f 81 257 478 256
f 80 194 478 257
f 64 242 478 194
f 32 258 479 261
f 33 259 479 258
f 11 260 479 259
f 29 261 479 260
f 74 262 480 240
f 82 263 480 262
f 79 264 480 263
f 65 240 480 264
f 79 265 481 264
f 75 250 481 265
f 66 228 481 250
f 65 264 481 228
f 97 266 482 247
f 93 267 482 266
f 76 231 482 267
f 69 247 482 231
f 71 268 483 249
f 84 269 483 268
f 81 256 483 269
f 70 249 483 256
f 75 270 484 251
f 87 271 484 270
f 84 268 484 271
f 71 251 484 268
f 12 272 485 275
f 11 273 485 272
f 31 274 485 273
f 25 275 485 274
f 78 276 486 278
f 82 262 486 276
f 74 277 486 262
f 73 278 486 277
f 79 279 487 265
f 92 280 487 279
f 87 270 487 280
f 75 265 487 270
f 83 281 488 190
f 118 282 488 281
f 98 252 488 282
f 77 190 488 252
f 85 283 489 285
f 86 284 489 283
f 82 276 489 284
f 78 285 489 276
f 82 284 490 263
f 86 286 490 284
f 92 279 490 286
f 79 263 490 279
f 81 287 491 257
f 101 288 491 287
f 102 189 491 288
f 80 257 491 189
f 12 275 492 290
f 25 289 492 275
f 23 180 492 289
f 22 290 492 180
f 84 291 493 269
f 99 292 493 291
f 101 287 493 292
f 81 269 493 287
f 58 293 494 296
f 24 294 494 293
f 119 295 494 294
f 148 296 494 295
f 88 297 495 185
f 124 298 495 297
f 118 281 495 298
f 83 185 495 281
f 87 299 496 271
f 106 300 496 299
f 99 291 496 300
f 84 271 496 291
f 96 301 497 303
f 103 302 497 301
f 86 283 497 302
f 85 303 497 283
f 103 304 498 302
f 112 305 498 304
f 92 286 498 305
f 86 302 498 286
f 92 305 499 280
f 112 306 499 305
f 106 299 499 306
f 87 280 499 299
f 100 307 500 184
f 110 308 500 307
f 91 309 500 308
f 88 184 500 309
f 93 310 501 313
f 105 311 501 310
f 104 312 501 311
f 89 313 501 312
f 94 314 502 255
f 113 315 502 314
f 114 316 502 315
f 90 255 502 316
f 114 317 503 316
f 107 318 503 317
f 95 244 503 318
f 90 316 503 244
f 97 319 504 266
f 108 320 504 319
f 105 310 504 320
f 93 266 504 310
f 98 321 505 253
f 109 322 505 321
f 113 314 505 322
f 94 253 505 314
f 107 323 506 318
f 108 319 506 323
f 97 246 506 319
f 95 318 506 246
f 118 324 507 282
f 115 325 507 324
f 109 321 507 325
f 98 282 507 321
f 106 326 508 300
f 131 327 508 326
f 130 328 508 327
f 99 300 508 328
f 130 329 509 328
f 129 330 509 329
f 101 292 509 330
f 99 328 509 292
f 102 331 510 187
f 120 332 510 331
f 110 307 510 332
f 100 187 510 307
f 129 333 511 330
f 120 331 511 333
f 102 288 511 331
f 101 330 511 288
f 116 334 512 336
f 133 335 512 334
f 112 304 512 335
f 103 336 512 304
f 105 337 513 311
f 121 338 513 337
f 117 339 513 338
f 104 311 513 339
f 108 340 514 320
f 122 341 514 340
f 121 337 514 341
f 105 320 514 337
f 112 335 515 306
f 133 342 515 335
f 131 326 515 342
f 106 306 515 326
f 114 343 516 317
f 134 344 516 343
f 125 345 516 344
f 107 317 516 345
f 125 346 517 345
f 122 340 517 346
f 108 323 517 340
f 107 345 517 323
f 115 347 518 325
f 127 348 518 347
f 135 349 518 348
f 109 325 518 349
f 135 350 519 349
f 123 351 519 350
f 113 322 519 351
f 109 349 519 322
f 123 352 520 351
f 134 343 520 352
f 114 315 520 343
f 113 351 520 315
f 118 298 521 324
f 124 353 521 298
f 126 354 521 353
f 115 324 521 354
f 126 355 522 354
f 136 356 522 355
f 127 347 522 356
f 115 354 522 347
f 132 357 523 359
f 151 358 523 357
f 133 334 523 358
f 116 359 523 334
f 121 360 524 338
f 137 361 524 360
f 142 362 524 361
f 117 338 524 362
f 122 363 525 341
f 153 364 525 363
f 137 360 525 364
f 121 341 525 360
f 125 365 526 346
f 143 366 526 365
f 153 363 526 366
f 122 346 526 363
f 135 367 527 350
f 147 368 527 367
f 138 369 527 368
f 123 350 527 369
f 138 370 528 369
f 146 371 528 370
f 134 352 528 371
f 123 369 528 352
f 128 372 529 374
f 140 373 529 372
f 126 353 529 373
f 124 374 529 353
f 134 371 530 344
f 146 375 530 371
f 143 365 530 375
f 125 344 530 365
f 140 376 531 373
f 159 377 531 376
f 136 355 531 377
f 126 373 531 355
f 136 378 532 356
f 155 379 532 378
f 139 380 532 379
f 127 356 532 380
f 139 381 533 380
f 147 367 533 381
f 135 348 533 367
f 127 380 533 348
f 141 382 534 384
f 157 383 534 382
f 140 372 534 383
f 128 384 534 372
f 130 385 535 329
f 150 386 535 385
f 149 387 535 386
f 129 329 535 387
f 131 388 536 327
f 152 389 536 388
f 150 385 536 389
f 130 327 536 385
f 133 358 537 342
f 151 390 537 358
f 152 388 537 390
f 131 342 537 388
f 159 391 538 377
f 53 392 538 391
f 155 378 538 392
f 136 377 538 378
f 153 393 539 364
f 158 394 539 393
f 37 395 539 394
f 137 364 539 395
f 37 396 540 395
f 162 397 540 396
f 142 361 540 397
f 137 395 540 361
f 147 398 541 368
f 156 399 541 398
f 144 400 541 399
f 138 368 541 400
f 144 401 542 400
f 145 402 542 401
f 146 370 542 402
f 138 400 542 370
f 155 403 543 379
f 148 404 543 403
f 154 405 543 404
f 139 379 543 405
f 154 406 544 405
f 156 398 544 406
f 147 381 544 398
f 139 405 544 381
f 157 407 545 383
f 28 408 545 407
f 159 376 545 408
f 140 383 545 376
f 146 402 546 375
f 145 409 546 402
f 35 410 546 409
f 143 375 546 410
f 35 411 547 410
f 158 393 547 411
f 153 366 547 393
f 143 410 547 366
f 156 412 548 399
f 30 413 548 412
f 161 414 548 413
f 144 399 548 414
f 161 415 549 414
f 34 416 549 415
f 145 401 549 416
f 144 414 549 401
f 34 417 550 416
f 36 418 550 417
f 35 409 550 418
f 145 416 550 409
f 148 295 551 404
f 119 419 551 295
f 111 420 551 419
f 154 404 551 420
f 111 421 552 420
f 30 412 552 421
f 156 406 552 412
f 154 420 552 406
f 53 422 553 392
f 58 296 553 422
f 148 403 553 296
f 155 392 553 403
f 160 423 554 425
f 42 424 554 423
f 28 407 554 424
f 157 425 554 407
f 35 418 555 411
f 36 426 555 418
f 17 427 555 426
f 158 411 555 427
f 28 428 556 408
f 19 429 556 428
f 53 391 556 429
f 159 408 556 391
f 163 430 557 432
f 18 431 557 430
f 42 423 557 431
f 160 432 557 423
f 161 433 558 415
f 27 434 558 433
f 16 435 558 434
f 34 415 558 435
f 111 436 559 421
f 14 437 559 436
f 43 438 559 437
f 30 421 559 438
f 43 439 560 438
f 27 433 560 439
f 161 413 560 433
f 30 438 560 413
f 38 440 561 442
f 13 441 561 440
f 18 430 561 441
f 163 442 561 430
