# https://github.com/mikedh/trimesh
v 0.20246225 -0.13895900 -0.23019175
v 0.21709850 -0.11541600 -0.23897600
v 0.13188100 -0.20456000 -0.19265901
v 0.11493950 -0.21422150 -0.18712350
v 0.18415049 -0.15975775 -0.21846500
v 0.13371600 -0.20178100 -0.19174500
v 0.14890206 -0.19208482 -0.20033375
v 0.22653900 -0.08736950 -0.24637900
v 0.22206200 -0.10288025 -0.24238400
v 0.22838999 -0.02676900 -0.26032600
v 0.22821701 -0.03075700 -0.25829101
v 0.22582901 -0.00211100 -0.26457599
v 0.22760088 -0.04488963 -0.25282487
v 0.22862250 -0.07407400 -0.24941625
v 0.22403550 0.03807200 -0.28137826
v 0.22220800 0.02966400 -0.26751199
v 0.15903400 -0.20699400 -0.23326100
v 0.17889500 -0.20927800 -0.28220499
v 0.19415100 -0.19667301 -0.28483099
v 0.14487175 -0.21063813 -0.21810800
v 0.15246101 -0.20923200 -0.22701500
v 0.19539499 -0.19468100 -0.28283599
v 0.18443700 -0.19442151 -0.25608399
v 0.16604000 -0.20230000 -0.23593900
v 0.12449100 -0.21423849 -0.19729050
v 0.19928201 -0.18806399 -0.27488801
v 0.14032218 -0.23264406 -0.27592137
v 0.19239379 -0.15769143 -0.22691962
v 0.21265461 -0.13142469 -0.23903238
v 0.22380734 -0.12982999 -0.25369105
v 0.21090028 -0.13733649 -0.23954708
v 0.20412118 -0.14429115 -0.23439142
v 0.18822319 -0.17033808 -0.22995325
v 0.17499898 -0.17878862 -0.21946983
v 0.17499513 -0.17411681 -0.21598099
v 0.18424213 -0.16700705 -0.22239367
v 0.21609065 -0.13338525 -0.24440513
v 0.21464328 -0.14323990 -0.24770582
v 0.22191365 -0.13707304 -0.25504528
v 0.20175342 -0.15705964 -0.23859743
v 0.22030709 -0.14541585 -0.25821346
v 0.20301780 -0.16668326 -0.24837517
v 0.21077519 -0.15952418 -0.25408875
v 0.22470226 -0.11277373 -0.24850176
v 0.21869907 -0.11822586 -0.24178056
v 0.16461783 -0.18781061 -0.21442229
v 0.22445789 -0.14379770 -0.26426633
v 0.22638535 -0.12432961 -0.25555314
v 0.22740437 -0.13051198 -0.26053856
v 0.21555932 -0.15192544 -0.25537109
v 0.19259103 -0.17365757 -0.23938527
v 0.17588980 -0.18473753 -0.22616774
v 0.14940009 -0.19543464 -0.20327330
v 0.21196044 -0.16287769 -0.25967755
v 0.20956599 -0.16949705 -0.26309224
v 0.22592071 -0.14976848 -0.27301977
v 0.18788511 -0.18015346 -0.23915026
v 0.23036506 -0.13183126 -0.26648998
v 0.22169331 -0.15736392 -0.27223722
v 0.17218447 -0.19061516 -0.22770270
v 0.23154412 -0.11576881 -0.26088305
v 0.22774020 -0.11256008 -0.25298698
v 0.23348553 -0.10667501 -0.26142022
v 0.22987645 -0.09526717 -0.25238053
v 0.22994191 -0.13424132 -0.26792141
v 0.22950994 -0.14081867 -0.27214762
v 0.22889653 -0.14546276 -0.27542856
v 0.22658305 -0.10220562 -0.24839420
v 0.21755183 -0.15967770 -0.26663281
v 0.21919995 -0.16271346 -0.27429806
v 0.16450256 -0.19013156 -0.21671072
v 0.18594932 -0.18552359 -0.24289495
v 0.19509638 -0.18249007 -0.25481863
v 0.23500701 -0.14043042 -0.28614728
v 0.20833712 -0.17354738 -0.26671020
v 0.23813591 -0.12948266 -0.28442484
v 0.23334395 -0.15270657 -0.29778008
v 0.23584723 -0.13341400 -0.28135443
v 0.18211928 -0.19334104 -0.24861279
v 0.17043400 -0.19535076 -0.23145549
v 0.16516541 -0.19769188 -0.22678528
v 0.15849506 -0.19610039 -0.21563704
v 0.14346415 -0.20310398 -0.20466035
v 0.14956787 -0.20266213 -0.21206561
v 0.21989039 -0.16507175 -0.27996270
v 0.20433062 -0.17703773 -0.26362049
v 0.19657795 -0.18634393 -0.26448689
v 0.21308750 -0.17285910 -0.27620569
v 0.21949586 -0.17365854 -0.29504168
v 0.23019775 -0.16574000 -0.30067249
v 0.21099697 -0.18257951 -0.29214452
v 0.22019090 -0.17083750 -0.29266616
v 0.20289588 -0.19050782 -0.29029759
v 0.22908777 -0.15916314 -0.29603487
v 0.19103901 -0.20087575 -0.28665042
v 0.21733669 -0.17220115 -0.28682847
v 0.23865316 -0.14157585 -0.29946662
v 0.18767101 -0.20503099 -0.28713599
v 0.12418324 -0.21082984 -0.19187279
v 0.21062227 -0.18632181 -0.29455280
v 0.20431909 -0.18307632 -0.27574459
v 0.13372774 -0.20799717 -0.19897481
v 0.14597367 -0.20810121 -0.21526884
v 0.24443091 -0.12144847 -0.30048486
v 0.24227734 -0.12861901 -0.29897898
v 0.24002213 -0.13491703 -0.29731479
v 0.19779735 -0.19792556 -0.29071808
v 0.16625439 -0.22010053 -0.28207609
v 0.23733259 -0.14890539 -0.30127158
v 0.23744033 -0.11952982 -0.27534918
v 0.24149296 -0.11766962 -0.28687265
v 0.23879745 -0.11400283 -0.27639514
v 0.23930709 -0.11029266 -0.27591655
v 0.22374336 -0.16940097 -0.29722357
v 0.15780869 -0.22451983 -0.27984426
v 0.24626217 -0.11241917 -0.30129682
v 0.23607001 -0.09877331 -0.26475690
v 0.24532518 -0.11099631 -0.29805017
v 0.23576831 -0.09028627 -0.26287050
v 0.24638832 -0.12035773 -0.30294355
v 0.24920366 -0.08996361 -0.30258296
v 0.22922508 -0.08740213 -0.25029081
v 0.24682803 -0.09958856 -0.29968954
v 0.24269480 -0.10525470 -0.28473260
v 0.24003309 -0.09308449 -0.27310572
v 0.23379840 -0.09141019 -0.25875781
v 0.24183679 -0.09446785 -0.27904555
v 0.23583612 -0.07821237 -0.26304402
v 0.24604179 -0.09276126 -0.29591915
v 0.24470475 -0.13372337 -0.30387988
v 0.24983201 -0.10661575 -0.30434926
v 0.24754051 -0.08917119 -0.30052470
v 0.24351921 -0.09273256 -0.28461755
v 0.23982936 -0.08277625 -0.27279508
v 0.23193667 -0.07270814 -0.25526895
v 0.23223251 -0.05967278 -0.25827506
v 0.24654048 -0.07052116 -0.29933111
v 0.23932443 -0.07390045 -0.27260116
v 0.24070453 -0.04117727 -0.29424082
v 0.23872100 -0.03115300 -0.29238299
v 0.24465070 -0.06545329 -0.29662207
v 0.23161022 -0.04907033 -0.25994087
v 0.24568144 -0.07786032 -0.29659408
v 0.24068853 -0.07180432 -0.27776737
v 0.23472772 -0.06583048 -0.26215989
v 0.23820872 -0.06000608 -0.27374824
v 0.24268562 -0.08085466 -0.28243128
v 0.24315917 -0.05826177 -0.29499279
v 0.23990657 -0.04290189 -0.29221834
v 0.24191099 -0.06839500 -0.28415301
v 0.24212616 -0.06560881 -0.28654185
v 0.23858801 -0.05032160 -0.28123927
v 0.24464647 -0.07005075 -0.29525988
v 0.24767249 -0.05956200 -0.30022450
v 0.20058100 -0.19737799 -0.29223999
v 0.19204712 -0.20447538 -0.28979000
v 0.23624549 -0.15499000 -0.30200100
v 0.23729850 -0.03698946 -0.28634479
v 0.23149233 -0.03561151 -0.26525287
v 0.23563510 -0.04481322 -0.27371987
v 0.23005443 -0.00349741 -0.28071571
v 0.22697201 0.00179373 -0.27120474
v 0.22802450 0.01207250 -0.28179550
v 0.23384100 -0.01700200 -0.28624800
v 0.24797029 -0.07240537 -0.30089658
v 0.24937849 -0.06980900 -0.30176249
v 0.22228300 -0.17469450 -0.29819999
v 0.20553700 -0.19320775 -0.29375201
v 0.17445550 -0.21673300 -0.28504551
v 0.15346650 -0.22881874 -0.28057625
f 3 102 99
f 102 25 99
f 102 20 25
f 102 103 20
f 83 103 102
f 84 103 83
f 84 24 103
f 84 81 24
f 82 81 84
f 71 81 82
f 53 71 82
f 82 83 53
f 53 83 7
f 46 53 7
f 35 46 7
f 35 34 46
f 34 52 46
f 52 60 46
f 52 80 60
f 60 80 81
f 72 80 52
f 80 72 79
f 79 24 80
f 79 23 24
f 79 87 23
f 101 23 87
f 86 101 87
f 88 101 86
f 88 96 101
f 96 93 101
f 26 101 93
f 26 93 22
f 22 93 19
f 19 93 95
f 95 93 107
f 95 107 98
f 95 98 18
f 107 93 91
f 91 100 107
f 100 168 107
f 168 155 107
f 155 156 107
f 107 156 18
f 156 169 18
f 18 169 108
f 169 170 108
f 108 170 115
f 18 108 115
f 18 115 27
f 167 168 100
f 114 167 100
f 90 167 114
f 77 90 114
f 77 109 90
f 109 157 90
f 130 157 109
f 130 109 120
f 131 130 120
f 121 131 120
f 131 121 166
f 166 121 165
f 154 166 165
f 139 154 165
f 139 165 149
f 149 165 137
f 165 132 137
f 137 132 143
f 153 137 143
f 153 143 147
f 151 153 147
f 149 153 151
f 148 153 149
f 148 141 153
f 148 137 141
f 149 151 152
f 152 151 146
f 152 146 160
f 160 158 152
f 161 158 160
f 162 161 160
f 162 163 161
f 162 15 163
f 15 162 16
f 12 16 162
f 12 162 159
f 12 159 10
f 11 10 159
f 11 159 13
f 13 159 142
f 159 146 142
f 145 142 146
f 144 145 146
f 146 150 144
f 150 147 144
f 138 144 147
f 138 147 134
f 134 147 125
f 125 147 133
f 147 129 133
f 129 147 132
f 132 123 129
f 132 121 123
f 124 129 123
f 124 123 118
f 124 118 113
f 125 124 113
f 127 124 125
f 127 133 124
f 125 113 117
f 119 125 117
f 125 119 128
f 128 119 126
f 135 128 126
f 135 145 128
f 136 145 135
f 136 135 13
f 13 135 14
f 135 122 14
f 8 14 122
f 8 122 68
f 122 64 68
f 122 126 64
f 126 63 64
f 126 117 63
f 64 63 68
f 68 63 62
f 68 62 44
f 68 44 45
f 68 45 9
f 9 45 2
f 2 45 29
f 45 30 29
f 45 62 30
f 48 30 62
f 62 61 48
f 58 48 61
f 110 58 61
f 61 63 110
f 63 113 110
f 113 112 110
f 113 111 112
f 112 111 110
f 110 111 105
f 111 118 105
f 118 104 105
f 116 104 118
f 116 120 104
f 123 120 116
f 120 97 104
f 97 120 109
f 105 104 97
f 106 105 97
f 76 105 106
f 106 97 76
f 76 97 74
f 97 77 74
f 67 74 77
f 67 77 56
f 77 59 56
f 94 59 77
f 77 114 94
f 94 114 92
f 114 89 92
f 92 89 91
f 92 91 96
f 94 92 96
f 85 94 96
f 59 94 85
f 70 59 85
f 70 85 88
f 70 88 55
f 55 88 75
f 86 55 75
f 42 55 86
f 42 86 57
f 86 73 57
f 57 73 72
f 73 87 72
f 51 42 57
f 51 57 33
f 33 57 52
f 33 42 51
f 40 42 33
f 43 42 40
f 43 54 42
f 43 69 54
f 69 55 54
f 59 69 43
f 50 59 43
f 47 59 50
f 41 47 50
f 38 41 50
f 50 40 38
f 32 38 40
f 32 40 28
f 32 28 1
f 29 32 1
f 31 32 29
f 29 38 31
f 29 37 38
f 30 38 37
f 39 38 30
f 30 47 39
f 65 47 30
f 65 66 47
f 66 56 47
f 49 65 30
f 58 65 49
f 1 28 5
f 28 36 5
f 28 33 36
f 36 33 34
f 36 35 5
f 31 38 32
f 39 41 38
f 39 47 41
f 50 43 40
f 28 40 33
f 54 55 42
f 69 70 55
f 59 70 69
f 56 59 47
f 66 67 56
f 67 66 74
f 58 74 66
f 78 74 58
f 78 76 74
f 76 78 110
f 110 105 76
f 58 110 78
f 58 49 48
f 48 49 30
f 30 37 29
f 2 29 1
f 62 45 44
f 62 63 61
f 8 68 9
f 145 138 128
f 122 135 126
f 119 117 126
f 117 113 63
f 113 118 111
f 118 123 116
f 133 129 124
f 125 133 127
f 128 134 125
f 138 134 128
f 145 144 138
f 142 145 136
f 13 142 136
f 163 164 161
f 161 164 149
f 164 140 149
f 162 160 159
f 161 149 158
f 160 146 159
f 151 150 146
f 158 149 152
f 150 151 147
f 153 141 137
f 143 132 147
f 149 137 148
f 140 139 149
f 121 132 165
f 121 120 123
f 109 77 97
f 114 100 89
f 100 91 89
f 95 18 19
f 96 91 93
f 85 96 88
f 88 86 75
f 86 87 73
f 26 23 101
f 72 87 79
f 57 72 52
f 46 60 81
f 33 52 34
f 36 34 35
f 5 35 7
f 71 53 46
f 46 81 71
f 80 24 81
f 83 82 84
f 7 83 102
f 24 20 103
f 24 21 20
f 24 17 21
f 99 25 4
f 7 102 3
f 6 7 3
f 3 99 4

