v 0.217411 0.290011 -0.151835
v 0.222091 0.289859 -0.146176
v 0.22497 0.283986 -0.14872
v 0.228211 0.278328 -0.151192
v 0.220523 0.284103 -0.154372
v 0.223844 0.278147 -0.156983
v 0.228373 0.272742 -0.159776
v 0.233212 0.26794 -0.16165
v 0.230863 0.267133 -0.168561
v 0.236417 0.262408 -0.170024
v 0.241932 0.257792 -0.170505
v 0.330749 0.269079 -0.262174
v 0.230996 0.272507 -0.153246
v 0.233391 0.266481 -0.155247
v 0.28004 0.234368 -0.196514
v 0.264447 0.245264 -0.194252
v 0.262798 0.250476 -0.202833
v 0.25941 0.249792 -0.196328
v 0.266548 0.251703 -0.208941
v 0.273844 0.232719 -0.193471
v 0.272016 0.24805 -0.206225
v 0.281014 0.245156 -0.209862
v 0.246466 0.245267 -0.173782
v 0.28601 0.240406 -0.207817
v 0.282182 0.23884 -0.201958
v 0.273334 0.242088 -0.198078
v 0.23972 0.255846 -0.164471
v 0.23996 0.249634 -0.167651
v 0.240371 0.243318 -0.170609
v 0.247368 0.232499 -0.179665
v 0.277104 0.243488 -0.20405
v 0.268165 0.246532 -0.20033
v 0.235347 0.261803 -0.177106
v 0.241481 0.257527 -0.177489
v 0.237663 0.262286 -0.162898
v 0.245501 0.251617 -0.171177
v 0.252116 0.247014 -0.177207
v 0.259386 0.242279 -0.182786
v 0.271854 0.239261 -0.192316
v 0.266926 0.237468 -0.18771
v 0.260222 0.235951 -0.185372
v 0.253605 0.234355 -0.182892
v 0.253424 0.24056 -0.179449
v 0.254035 0.227938 -0.185785
v 0.246833 0.238943 -0.176914
v 0.260719 0.223387 -0.191916
v 0.267206 0.225041 -0.194682
v 0.267127 0.23122 -0.191139
v 0.260418 0.229713 -0.188784
v 0.287058 0.229835 -0.202186
v 0.280446 0.228232 -0.199677
v 0.273833 0.226629 -0.197168
v 0.280779 0.22185 -0.202675
v 0.275164 0.213372 -0.201847
v 0.26866 0.211693 -0.199114
v 0.274283 0.220169 -0.199938
v 0.267778 0.21849 -0.197205
v 0.282739 0.20815 -0.206022
v 0.276148 0.206519 -0.203502
v 0.269557 0.204887 -0.200983
v 0.281758 0.215013 -0.204418
v 0.277176 0.199648 -0.205077
v 0.270789 0.197974 -0.2023
v 0.272203 0.19104 -0.203217
v 0.278284 0.192761 -0.206475
v 0.291597 0.189179 -0.214156
v 0.290929 0.196071 -0.212298
v 0.290241 0.202959 -0.210448
v 0.289286 0.209806 -0.208723
v 0.288331 0.216653 -0.206997
v 0.294624 0.218352 -0.210406
v 0.293266 0.225323 -0.208868
v 0.300062 0.22027 -0.214773
v 0.301009 0.213273 -0.216697
v 0.296295 0.204574 -0.214035
v 0.295609 0.211495 -0.212132
v 0.302145 0.19936 -0.220542
v 0.301565 0.206345 -0.218684
v 0.297383 0.190731 -0.217943
v 0.296888 0.197663 -0.215959
v 0.29805 0.18377 -0.219694
v 0.292869 0.182197 -0.215046
v 0.304461 0.178349 -0.225411
v 0.308845 0.18002 -0.23092
v 0.307726 0.18707 -0.229534
v 0.306947 0.19412 -0.227849
v 0.306221 0.201168 -0.22611
v 0.305534 0.208225 -0.224304
v 0.304836 0.215362 -0.222317
v 0.304137 0.222499 -0.22033
v 0.304151 0.238612 -0.222551
v 0.300394 0.236397 -0.217009
v 0.298641 0.227297 -0.21313
v 0.292567 0.231986 -0.206274
v 0.296587 0.23418 -0.211545
v 0.308043 0.241076 -0.227939
v 0.316112 0.247622 -0.237526
v 0.328395 0.268365 -0.255169
v 0.324427 0.264644 -0.250691
v 0.320244 0.26096 -0.246295
v 0.325548 0.274501 -0.254958
v 0.330042 0.276853 -0.260329
v 0.323503 0.254446 -0.247403
v 0.319929 0.250864 -0.242639
v 0.326498 0.258505 -0.252697
v 0.320049 0.245564 -0.247319
v 0.321715 0.250587 -0.255038
v 0.307042 0.231252 -0.235344
v 0.255126 0.22491 -0.257877
v 0.25051 0.228904 -0.265769
v 0.244795 0.227125 -0.269924
v 0.245868 0.232597 -0.274008
v 0.253442 0.238425 -0.275653
v 0.258472 0.23466 -0.267574
v 0.256788 0.229981 -0.262478
v 0.263332 0.230788 -0.259722
v 0.274785 0.22726 -0.249495
v 0.281336 0.228004 -0.246791
v 0.266764 0.239879 -0.270145
v 0.265025 0.235426 -0.264853
v 0.269878 0.23158 -0.256978
v 0.273518 0.240393 -0.267683
v 0.271667 0.236004 -0.262308
v 0.280355 0.240861 -0.265282
v 0.278504 0.236472 -0.259907
v 0.276654 0.232083 -0.254532
v 0.287191 0.241329 -0.262882
v 0.285341 0.23694 -0.257507
v 0.294028 0.241797 -0.260481
v 0.292178 0.237408 -0.255106
v 0.281711 0.245581 -0.270545
v 0.288481 0.246094 -0.268129
v 0.29525 0.246606 -0.265714
v 0.300849 0.242276 -0.258077
v 0.261303 0.24393 -0.277696
v 0.268114 0.24449 -0.27532
v 0.274925 0.245049 -0.272944
v 0.28262 0.250501 -0.275571
v 0.28954 0.250969 -0.273266
v 0.29639 0.251561 -0.270906
v 0.303003 0.252603 -0.268356
v 0.309616 0.253644 -0.265806
v 0.316229 0.254686 -0.263255
v 0.308675 0.248247 -0.26084
v 0.31525 0.249407 -0.2582
v 0.316936 0.260305 -0.267739
v 0.32326 0.261899 -0.264498
v 0.322633 0.256126 -0.260207
v 0.302023 0.247215 -0.263342
v 0.28337 0.232661 -0.251936
v 0.290037 0.233286 -0.249259
v 0.298854 0.238023 -0.252445
v 0.305521 0.238648 -0.249768
v 0.296704 0.233861 -0.246659
v 0.294556 0.229313 -0.241472
v 0.303371 0.234414 -0.244093
v 0.301223 0.229865 -0.238906
v 0.307758 0.242914 -0.255427
v 0.260034 0.239317 -0.272649
v 0.251957 0.233771 -0.270631
v 0.261606 0.225925 -0.254747
v 0.268217 0.226551 -0.252164
v 0.287905 0.228731 -0.244065
v 0.309932 0.235093 -0.241405
v 0.31459 0.243965 -0.252229
v 0.312271 0.239352 -0.246958
v 0.316822 0.241592 -0.241732
v 0.313279 0.237803 -0.236094
v 0.309736 0.234013 -0.230455
v 0.31212 0.244333 -0.232703
v 0.316007 0.257356 -0.241801
v 0.312006 0.253904 -0.23722
v 0.302958 0.229578 -0.218323
v 0.306091 0.230382 -0.224899
v 0.303342 0.18534 -0.224197
v 0.302733 0.192365 -0.222388
v 0.285692 0.187503 -0.210628
v 0.284644 0.19444 -0.209304
v 0.283701 0.201292 -0.20765
v 0.263658 0.203026 -0.197351
v 0.262602 0.20987 -0.195712
v 0.261546 0.216714 -0.194072
v 0.287279 0.223525 -0.205388
v 0.255525 0.214751 -0.19048
v 0.254692 0.221417 -0.188316
f 2 3 5 1
f 4 6 5 3
f 13 7 6 4
f 13 14 8 7
f 35 10 9 8
f 35 27 11 10
f 11 34 33 10
f 27 28 36 11
f 32 17 18 16
f 32 21 19 17
f 32 26 31 21
f 31 25 24 22
f 28 29 23 36
f 23 45 43 37
f 43 42 41 38
f 40 48 20 39
f 41 49 48 40
f 42 44 49 41
f 43 45 30 42
f 185 46 49 44
f 185 184 182 46
f 182 57 47 46
f 47 48 49 46
f 57 56 52 47
f 52 20 48 47
f 51 53 183 50
f 183 72 94 50
f 15 20 52 51
f 52 56 53 51
f 56 54 61 53
f 61 70 183 53
f 56 57 55 54
f 55 60 59 54
f 59 58 61 54
f 57 182 181 55
f 181 180 60 55
f 59 62 179 58
f 179 68 69 58
f 69 70 61 58
f 60 63 62 59
f 63 64 65 62
f 65 178 179 62
f 67 178 177 66
f 82 81 79 66
f 79 80 67 66
f 68 179 178 67
f 80 75 68 67
f 75 76 69 68
f 76 71 70 69
f 71 72 183 70
f 76 74 73 71
f 73 93 72 71
f 93 95 94 72
f 74 89 90 73
f 90 173 93 73
f 76 75 78 74
f 78 88 89 74
f 80 77 78 75
f 80 79 176 77
f 176 86 87 77
f 87 88 78 77
f 81 175 176 79
f 84 85 175 83
f 86 176 175 85
f 92 173 174 91
f 174 169 96 91
f 95 93 173 92
f 169 168 170 96
f 170 168 167 97
f 167 106 104 97
f 104 171 172 97
f 12 102 101 98
f 100 103 105 99
f 171 104 103 100
f 104 106 107 103
f 157 156 164 108
f 115 116 161 109
f 111 112 160 110
f 160 114 115 110
f 159 114 160 113
f 120 116 115 114
f 159 119 120 114
f 121 162 161 116
f 120 123 121 116
f 162 121 126 117
f 126 150 118 117
f 150 151 163 118
f 122 123 120 119
f 159 135 136 119
f 136 137 122 119
f 123 125 126 121
f 124 125 123 122
f 137 131 124 122
f 127 128 125 124
f 131 132 127 124
f 128 150 126 125
f 129 130 128 127
f 132 133 129 127
f 130 151 150 128
f 134 152 130 129
f 133 149 134 129
f 152 154 151 130
f 138 139 132 131
f 139 140 133 132
f 140 141 149 133
f 142 144 149 141
f 143 145 144 142
f 146 147 148 143
f 154 155 163 151
f 153 156 154 152
f 166 164 156 153
f 158 165 166 153
f 156 157 155 154
