v 0.0126557 -0.398893 0.0757287
v 0.00611471 -0.394776 0.0798397
v 0.0185078 -0.402671 0.070451
v 0.0242512 -0.406385 0.0648709
v 0.0349021 -0.402619 0.0593482
v 0.0289851 -0.398838 0.0646845
v 0.023068 -0.395058 0.0700207
v 0.039306 -0.394769 0.0586544
v 0.0496269 -0.390699 0.0526244
v 0.0451567 -0.398532 0.0532458
v 0.0608538 -0.398097 0.0412895
v 0.055244 -0.394399 0.0469609
v 0.0580597 -0.386368 0.0444705
v 0.0519524 -0.382824 0.0498064
v 0.0458452 -0.37928 0.0551423
v 0.0636178 -0.382326 0.0331363
v 0.0639572 -0.389947 0.0390505
v 0.0829152 -0.39318 0.0188301
v 0.0764206 -0.389468 0.02329
v 0.0699584 -0.378779 0.0214958
v 0.067814 -0.435922 0.0177407
v 0.0769643 -0.382259 0.0171194
v 0.0835416 -0.385949 0.0127749
v 0.086086 -0.378212 0.00764341
v 0.0784647 -0.374804 0.0114439
v 0.090797 -0.389597 0.00879103
v 0.0927257 -0.382263 0.00335117
v 0.0991324 -0.386437 -0.000966747
v 0.102879 -0.39777 -0.000841541
v 0.0972165 -0.393658 0.00457497
v 0.111494 -0.395235 -0.00986981
v 0.116155 -0.400135 -0.0160325
v 0.116278 -0.410834 -0.0211863
v 0.120516 -0.404539 -0.0229586
v 0.103266 -0.420478 -0.0113698
v 0.107816 -0.413268 -0.012387
v 0.106811 -0.424471 -0.0183917
v 0.000194515 -0.391436 0.0856739
v 0.109865 -0.427787 -0.0256886
v 0.114471 -0.421314 -0.0269301
v 0.105156 -0.434621 -0.024715
v 0.102182 -0.431572 -0.0174164
v 0.0975273 -0.438448 -0.0166833
v 0.0856506 -0.439164 -0.00257075
v 0.0940392 -0.435109 -0.00948774
v 0.0901595 -0.431678 -0.0028649
v 0.0986558 -0.427788 -0.0104246
v 0.0947691 -0.424351 -0.00379923
v 0.0991967 -0.416865 -0.00466814
v 0.0946348 -0.412931 0.00218285
v 0.0900731 -0.409003 0.00903247
v 0.103625 -0.409424 -0.00554591
v 0.0990337 -0.405443 0.00116404
v 0.09433 -0.401424 0.00777608
v 0.0761188 -0.409243 0.0227189
v 0.0854025 -0.405207 0.015692
v 0.0666183 -0.413316 0.0295263
v 0.0711451 -0.405553 0.0290642
v 0.0660547 -0.401832 0.0352339
v 0.0516688 -0.413839 0.0422449
v 0.0614697 -0.409655 0.0356947
v 0.0622434 -0.421165 0.0300645
v 0.0569011 -0.417495 0.0361249
v 0.0528134 -0.425405 0.0368253
v 0.0474149 -0.421729 0.0429184
v 0.076633 -0.431865 0.0110354
v 0.072001 -0.428289 0.0174164
v 0.0673691 -0.424712 0.0237975
v 0.041955 -0.41801 0.0488943
v 0.036409 -0.414266 0.0546723
v 0.0632256 -0.43249 0.0243242
v 0.0580746 -0.428996 0.0306431
v 0.0812955 -0.435448 0.00465069
v 0.0810947 -0.424182 0.0104481
v 0.0763628 -0.420586 0.0168413
v 0.0716308 -0.41699 0.0232345
v 0.085626 -0.416513 0.00985228
v 0.080894 -0.412917 0.0162455
v 0.0804587 -0.401342 0.0220554
v 0.0857786 -0.427862 0.00392859
v 0.0902061 -0.420372 0.00306055
v 0.111493 -0.417471 -0.0196973
v 0.112437 -0.406652 -0.0137645
v 0.1079 -0.402159 -0.00699903
v 0.124292 -0.397988 -0.0254148
v 0.119422 -0.39314 -0.0196176
v 0.12734 -0.391059 -0.029417
v 0.122822 -0.386171 -0.023553
v 0.135292 -0.388979 -0.0392166
v 0.130801 -0.384102 -0.033368
v 0.126311 -0.379225 -0.0275194
v 0.134421 -0.377203 -0.0374059
v 0.129931 -0.372326 -0.0315573
v 0.133236 -0.365424 -0.036022
v 0.136626 -0.358512 -0.0404247
v 0.141981 -0.363772 -0.0450168
v 0.139192 -0.382296 -0.0428306
v 0.143039 -0.375614 -0.0464777
v 0.146885 -0.368933 -0.0501249
v 0.150731 -0.362252 -0.0537721
v 0.145465 -0.356915 -0.0491751
v 0.149049 -0.349903 -0.0533781
v 0.152621 -0.342918 -0.0575941
v 0.146757 -0.337683 -0.0538863
v 0.0302078 -0.410202 0.0595948
v 0.0378192 -0.383335 0.0635218
v 0.143389 -0.344621 -0.0493739
v 0.123253 -0.367517 -0.0284935
v 0.116466 -0.362772 -0.0257375
v 0.126457 -0.360593 -0.0333262
v 0.12966 -0.353669 -0.0381589
v 0.132864 -0.346745 -0.0429916
v 0.119488 -0.355959 -0.0308032
v 0.113261 -0.369697 -0.0209141
v 0.120289 -0.374426 -0.0236026
v 0.11059 -0.376645 -0.0156406
v 0.101284 -0.379349 -0.00668727
v 0.103685 -0.372267 -0.0123041
v 0.14007 -0.351552 -0.0447792
v 0.117532 -0.381296 -0.0185135
v 0.138397 -0.370567 -0.0409191
v 0.114741 -0.388273 -0.0138356
v 0.105825 -0.390517 -0.00476502
v 0.108222 -0.383766 -0.00986023
v 0.0947454 -0.375109 -0.00232436
v 0.0886832 -0.397214 0.0134301
v 0.0751219 -0.397455 0.0278708
v 0.0697581 -0.385833 0.0279513
v 0.0437192 -0.386988 0.0580401
v 0.033389 -0.390988 0.0639912
v 0.0507627 -0.402231 0.0475696
v 0.0397961 -0.37571 0.0605102
v 0.0335696 -0.37203 0.0656205
v 0.00203661 -0.372186 0.088814
v 0.0126812 -0.368178 0.0834648
v 0.00600364 -0.364411 0.0879303
v 0.0562769 -0.405969 0.0417797
v -0.00193678 -0.379962 0.0896891
v 0.0085745 -0.375976 0.0841587
v 0.0190858 -0.371989 0.0786284
v 0.0170559 -0.391299 0.0752796
v 0.010726 -0.387521 0.0800808
v 0.0043961 -0.383743 0.0848821
v 0.021252 -0.383548 0.0745221
v 0.0149221 -0.37977 0.0793233
v 0.025448 -0.375797 0.0737646
v 0.0274831 -0.387333 0.0694667
v 0.0316865 -0.379583 0.0687244
v 0.0696341 -0.393598 0.0335178
v 0.0461846 -0.410104 0.0480584
v 0.0406704 -0.406366 0.0538483
f 141 142 2 1
f 3 7 141 1
f 142 143 38 2
f 4 6 7 3
f 105 5 6 4
f 8 130 6 5
f 105 70 151 5
f 151 10 8 5
f 130 147 7 6
f 147 144 141 7
f 129 106 130 8
f 10 9 129 8
f 14 15 129 9
f 10 131 12 9
f 12 13 14 9
f 151 150 131 10
f 17 13 12 11
f 12 131 137 11
f 137 61 59 11
f 59 149 17 11
f 132 106 129 15
f 17 149 128 16
f 23 22 19 18
f 19 127 79 18
f 79 56 126 18
f 126 26 23 18
f 22 20 128 19
f 128 149 127 19
f 23 24 25 22
f 26 27 24 23
f 126 54 30 26
f 30 28 27 26
f 28 117 125 27
f 30 29 123 28
f 123 124 117 28
f 30 54 53 29
f 53 52 84 29
f 84 31 123 29
f 122 124 123 31
f 84 83 32 31
f 32 86 122 31
f 83 33 34 32
f 34 85 86 32
f 83 36 82 33
f 36 52 49 35
f 49 48 47 35
f 47 42 37 35
f 37 82 36 35
f 83 84 52 36
f 42 41 39 37
f 39 40 82 37
f 47 45 43 42
f 46 80 73 44
f 47 48 46 45
f 48 81 80 46
f 49 50 81 48
f 52 53 50 49
f 53 54 51 50
f 51 77 81 50
f 54 126 56 51
f 56 78 77 51
f 79 127 58 55
f 58 57 76 55
f 76 75 78 55
f 78 56 79 55
f 58 59 61 57
f 61 63 62 57
f 62 68 76 57
f 127 149 59 58
f 137 131 150 60
f 150 69 65 60
f 65 64 63 60
f 63 61 137 60
f 63 64 72 62
f 72 71 68 62
f 74 75 67 66
f 73 80 74 66
f 75 76 68 67
f 68 71 21 67
f 150 151 70 69
f 77 78 75 74
f 80 81 77 74
f 87 88 86 85
f 88 120 122 86
f 90 91 88 87
f 91 115 120 88
f 97 92 90 89
f 92 93 91 90
f 93 108 115 91
f 121 94 93 92
f 97 98 121 92
f 94 110 108 93
f 95 111 110 94
f 121 96 95 94
f 119 112 111 95
f 96 101 119 95
f 121 98 99 96
f 99 100 101 96
f 102 107 119 101
f 103 104 107 102
f 110 113 109 108
f 109 114 115 108
f 116 120 115 114
f 118 117 124 116
f 124 122 120 116
f 133 148 106 132
f 138 143 139 134
f 139 135 136 134
f 139 145 140 135
f 143 142 145 139
f 145 144 146 140
f 144 145 142 141
f 147 148 146 144
f 130 106 148 147
