# https://github.com/mikedh/trimesh
v 0.26797313 -0.22298329 -0.19330217
v 0.27256700 -0.21628800 -0.18799099
v 0.27542437 -0.21268338 -0.19167662
v 0.27328175 -0.22948850 -0.19976050
v 0.28208700 -0.24101800 -0.20934901
v 0.33248574 -0.31950750 -0.26859500
v 0.32381380 -0.24793361 -0.24721250
v 0.33022560 -0.27896420 -0.25531207
v 0.30690161 -0.22382506 -0.22572740
v 0.32553700 -0.25484800 -0.24841700
v 0.31182601 -0.23202950 -0.23104400
v 0.32699850 -0.26159000 -0.25065350
v 0.31651300 -0.23825300 -0.23661099
v 0.33030400 -0.27190500 -0.25509599
v 0.33215001 -0.28089401 -0.25785801
v 0.33384901 -0.29760501 -0.26127899
v 0.33398199 -0.30269599 -0.26198900
v 0.30340549 -0.19825200 -0.21413900
v 0.29754101 -0.18447401 -0.20131801
v 0.30339625 -0.18391300 -0.20980299
v 0.28840174 -0.19799550 -0.19769537
v 0.27704799 -0.21076401 -0.19292399
v 0.33097219 -0.32292658 -0.26725558
v 0.33047677 -0.31500248 -0.26042717
v 0.32991153 -0.30777157 -0.25748801
v 0.32615822 -0.30157278 -0.25301803
v 0.32803187 -0.32508141 -0.26377925
v 0.31189048 -0.28715610 -0.24408431
v 0.31989668 -0.28955042 -0.24510180
v 0.31517619 -0.28028761 -0.23900412
v 0.31260474 -0.27545814 -0.23574580
v 0.30840283 -0.27456221 -0.23567472
v 0.30627099 -0.26510548 -0.22830576
v 0.30062747 -0.25556510 -0.22118160
v 0.29919922 -0.25241867 -0.21933403
v 0.31895413 -0.28343904 -0.24259046
v 0.29294213 -0.24606668 -0.21311651
v 0.30506185 -0.26246032 -0.22636854
v 0.30965928 -0.26972957 -0.23193034
v 0.29200793 -0.24390811 -0.21146568
v 0.28342277 -0.23362379 -0.20310632
v 0.27536911 -0.22199428 -0.19335496
v 0.29866725 -0.22816591 -0.21716835
v 0.28867909 -0.21395217 -0.20490003
v 0.28996699 -0.21666133 -0.20686464
v 0.29965939 -0.19981157 -0.21008379
v 0.27986345 -0.22697379 -0.19806121
v 0.30781299 -0.23828700 -0.22760600
v 0.31302110 -0.24836050 -0.23424150
v 0.29406088 -0.19975573 -0.20463342
v 0.29065396 -0.22636802 -0.20920935
v 0.32515915 -0.25807951 -0.24799424
v 0.29636016 -0.23419198 -0.21561974
v 0.30479524 -0.22795942 -0.22301332
v 0.32656401 -0.29420501 -0.25227499
v 0.31076482 -0.26331912 -0.23284509
v 0.30853856 -0.25244384 -0.22982629
v 0.30249621 -0.20630376 -0.21509730
v 0.32152801 -0.27463530 -0.24522937
v 0.31392389 -0.26667486 -0.23674669
v 0.32285169 -0.29401187 -0.24807166
v 0.28816571 -0.20599947 -0.20162402
v 0.29949085 -0.18784288 -0.20580501
v 0.29613980 -0.25014902 -0.21651871
v 0.32822151 -0.32013677 -0.26205849
v 0.32492852 -0.31370278 -0.25953493
v 0.32163001 -0.30497832 -0.25544481
v 0.32599699 -0.30516401 -0.25493801
v 0.32326672 -0.30844445 -0.25729478
v 0.31830013 -0.29959595 -0.25210921
v 0.31414228 -0.29023288 -0.24661326
v 0.28671366 -0.24711383 -0.21475570
v 0.28468858 -0.24399591 -0.21221346
v 0.28888680 -0.24988122 -0.21706307
v 0.29192183 -0.25315337 -0.21915324
v 0.29431821 -0.25744937 -0.22327122
v 0.29823047 -0.26224446 -0.22724438
v 0.31017659 -0.28303387 -0.24190054
v 0.30862484 -0.28066270 -0.24025327
v 0.30292934 -0.27089068 -0.23352265
v 0.29559706 -0.25931202 -0.22484354
v 0.31629492 -0.29574663 -0.24973027
v 0.30494656 -0.27498551 -0.23605539
v 0.29915474 -0.26504362 -0.22915141
v 0.31953660 -0.30191589 -0.25350287
f 2 4 42
f 4 41 42
f 47 42 41
f 3 42 47
f 41 3 47
f 3 41 45
f 45 41 51
f 45 51 43
f 51 53 43
f 43 53 54
f 54 53 48
f 11 54 48
f 9 54 11
f 46 54 9
f 58 46 9
f 46 58 18
f 20 46 18
f 63 46 20
f 50 46 63
f 63 62 50
f 19 62 63
f 19 21 62
f 21 22 62
f 62 22 3
f 62 3 44
f 62 44 45
f 46 62 45
f 50 62 46
f 19 63 20
f 58 9 18
f 11 48 49
f 49 52 11
f 49 60 52
f 52 60 59
f 60 39 59
f 38 39 60
f 60 56 38
f 57 38 56
f 57 56 49
f 49 35 57
f 35 34 57
f 49 53 35
f 40 35 53
f 41 40 53
f 34 38 57
f 59 39 36
f 59 36 61
f 8 59 61
f 8 61 55
f 61 26 55
f 55 26 8
f 17 8 26
f 26 25 17
f 17 25 6
f 25 24 6
f 24 27 6
f 6 27 23
f 8 17 16
f 36 29 61
f 30 29 36
f 36 31 30
f 31 36 39
f 8 52 59
f 52 8 12
f 10 52 12
f 52 10 7
f 7 13 52
f 12 8 14
f 14 8 15
f 15 8 16
f 49 56 60
f 11 52 13
f 9 11 13
f 53 49 48
f 54 46 43
f 46 45 43
f 53 51 41
f 44 3 45
f 3 2 42
f 5 41 4
f 73 41 5
f 41 73 40
f 40 73 72
f 37 40 72
f 37 72 74
f 37 74 75
f 64 37 75
f 35 64 75
f 35 75 34
f 75 81 34
f 75 76 81
f 38 34 81
f 38 81 77
f 38 77 84
f 38 84 33
f 33 84 80
f 33 80 32
f 32 80 83
f 32 83 79
f 32 79 78
f 30 32 78
f 30 78 28
f 30 28 29
f 29 28 71
f 29 71 82
f 61 29 82
f 82 70 61
f 61 70 85
f 67 61 85
f 61 67 26
f 26 67 69
f 68 26 69
f 68 69 25
f 25 69 66
f 24 25 66
f 24 66 65
f 24 65 27
f 26 68 25
f 31 32 30
f 39 32 31
f 39 33 32
f 38 33 39
f 40 37 35
f 37 64 35
f 2 1 4

