# https://github.com/mikedh/trimesh
v 0.12769250 -0.06640000 -0.15215300
v 0.17896675 -0.07881700 -0.19458275
v 0.17061600 -0.08013400 -0.18733600
v 0.16713400 -0.07972700 -0.18433601
v 0.15238775 -0.08204300 -0.17272775
v 0.18907200 -0.07717200 -0.20368900
v 0.20893200 -0.07759800 -0.22393300
v 0.08226222 0.02489499 -0.12803658
v 0.07775648 0.03630465 -0.12887892
v -0.01069771 0.21934260 -0.19042021
v 0.01838200 0.21791001 -0.18904901
v 0.00621148 0.21120687 -0.18320467
v 0.02651314 0.21590580 -0.18771579
v 0.03293255 0.22298769 -0.19419180
v 0.03878775 0.23868423 -0.20899454
v 0.02051292 0.24342320 -0.21243517
v 0.01962395 0.23304122 -0.20220464
v 0.05422014 0.26319631 -0.23714652
v 0.04023334 0.26389526 -0.23591284
v 0.03818851 0.25009848 -0.22075048
v 0.02339312 0.25693696 -0.22685696
v 0.01309519 0.24155740 -0.21038844
v 0.01885137 0.23523888 -0.20436833
v -0.00380482 0.22209160 -0.19237917
v -0.01578935 0.22617387 -0.19660457
v -0.02977951 0.24259406 -0.21368694
v -0.00185922 0.23465343 -0.20386909
v -0.00490089 0.24352698 -0.21270423
v 0.00290465 0.25113103 -0.22041637
v -0.00806490 0.26349718 -0.23421208
v -0.01281514 0.24684446 -0.21658295
v -0.02514818 0.25362706 -0.22468512
v -0.04105312 0.24938766 -0.22199098
v 0.01009384 0.27131693 -0.24319077
v 0.05346800 0.27351999 -0.25013000
v 0.04631700 0.27490199 -0.25104699
v 0.03838150 0.27365101 -0.24819901
v 0.03769997 0.27102829 -0.24432567
v 0.05113350 0.26790600 -0.24229350
v 0.02205300 0.27352125 -0.24683675
v 0.05451200 0.26608050 -0.24060250
v 0.02107432 0.26431242 -0.23502939
v 0.01051681 0.26412080 -0.23471549
v 0.00330500 0.24184100 -0.21084800
v 0.05812950 0.25087201 -0.22434801
v 0.01782700 0.22546600 -0.19541401
v 0.05056078 0.24280041 -0.21456271
v 0.06146877 0.22751762 -0.20255563
v 0.06748575 0.24031177 -0.21588908
v 0.05678510 0.24778552 -0.22073571
v 0.06848850 0.24576900 -0.22155801
v 0.07250103 0.23185337 -0.20925489
v 0.08033600 0.24198949 -0.22130100
v 0.07495050 0.22721801 -0.20587800
v 0.05180132 0.23017706 -0.20283169
v 0.00905772 0.22563700 -0.19522833
v 0.01236082 0.16302094 -0.15230765
v 0.01692596 0.16991257 -0.15633631
v 0.00532774 0.17083598 -0.15629138
v 0.02970005 0.19562600 -0.17313892
v 0.02052582 0.20282383 -0.17737855
v 0.02681600 0.20717700 -0.18100400
v 0.04051916 0.21058215 -0.18476161
v 0.04440987 0.19782892 -0.17638589
v 0.05228449 0.20939471 -0.18594508
v 0.07757800 0.21676500 -0.19812900
v 0.06773546 0.20652427 -0.18751142
v 0.08703725 0.21333625 -0.19890725
v 0.05667727 0.22385871 -0.19844684
v 0.03583615 0.20362110 -0.17901521
v 0.02964759 0.18263425 -0.16473369
v 0.04044300 0.18923301 -0.17023601
v 0.03631988 0.17653135 -0.16196583
v 0.02729219 0.17701779 -0.16119472
v 0.02519708 0.16296647 -0.15323410
v 0.03941045 0.16073830 -0.15413908
v 0.04778458 0.17073260 -0.16069158
v 0.05307663 0.16097741 -0.15686446
v 0.03464962 0.16846249 -0.15725623
v 0.05735004 0.17787709 -0.16654210
v 0.06105173 0.14279485 -0.15086688
v 0.06463073 0.15780890 -0.15811199
v 0.06419518 0.17239107 -0.16544744
v 0.06520246 0.18956928 -0.17530372
v 0.08049568 0.18470029 -0.17718469
v 0.07906845 0.17662639 -0.17219856
v 0.07338907 0.17318384 -0.16853437
v 0.06668245 0.15234934 -0.15653620
v 0.05615502 0.13499212 -0.14651978
v 0.06221380 0.11617394 -0.14246617
v 0.04925981 0.11933112 -0.13975558
v 0.05295856 0.13637031 -0.14626665
v 0.01140972 0.15660779 -0.14893404
v 0.05571918 0.10121120 -0.13664223
v 0.06183671 0.08635617 -0.13469555
v 0.06332141 0.07597608 -0.13287942
v 0.05964568 0.05929137 -0.12791974
v 0.08178291 0.09599030 -0.14378849
v 0.09151281 0.11110489 -0.15153277
v 0.08252886 0.11204261 -0.14814073
v 0.07745603 0.12249400 -0.14930707
v 0.10362290 0.14023399 -0.16614669
v 0.09469235 0.14918539 -0.16552549
v 0.10018928 0.16002785 -0.17244567
v 0.09347008 0.16785870 -0.17314598
v 0.10036300 0.17991400 -0.18244401
v 0.09105520 0.18845408 -0.18324501
v 0.07937806 0.16581536 -0.16658386
v 0.08711436 0.19417046 -0.18507550
v 0.10214950 0.18698375 -0.18733000
v 0.09630700 0.19452000 -0.18937500
v 0.07460469 0.19774786 -0.18318981
v 0.09604200 0.20618699 -0.19719100
v 0.09368300 0.20048250 -0.19220649
v 0.08529611 0.20676299 -0.19315730
v 0.08320731 0.15859985 -0.16479445
v 0.08742407 0.12538926 -0.15394830
v 0.10878624 0.16833805 -0.18031483
v 0.10798100 0.17851000 -0.18521599
v 0.11430800 0.17423600 -0.18621001
v 0.11488089 0.14426624 -0.17326029
v 0.10003548 0.11256416 -0.15549386
v 0.10511076 0.13048647 -0.16330205
v 0.11799623 0.12160053 -0.16720426
v 0.12051231 0.14169032 -0.17542558
v 0.12655918 0.13582511 -0.17683527
v 0.11856526 0.15669220 -0.18029593
v 0.12736944 0.12123697 -0.17262740
v 0.13183177 0.11731073 -0.17421252
v 0.14248980 0.12972279 -0.18511537
v 0.14013435 0.11731453 -0.17971526
v 0.15047998 0.11753481 -0.18704408
v 0.14933887 0.13206938 -0.19103802
v 0.13553538 0.14783791 -0.18707364
v 0.13525593 0.15559806 -0.19002516
v 0.13555799 0.15950100 -0.19219001
v 0.15044887 0.14785464 -0.19817999
v 0.14431908 0.14196264 -0.19094749
v 0.12376699 0.09217875 -0.16292784
v 0.09670466 0.11022307 -0.15344537
v 0.10149277 0.08226875 -0.14934003
v 0.08918889 0.05731740 -0.13895593
v 0.07716374 0.06464928 -0.13560635
v 0.09973631 0.06070798 -0.14428026
v 0.09400406 0.05001836 -0.13955962
v 0.09406113 0.09444756 -0.14850719
v 0.10869196 0.11500034 -0.16033112
v 0.11397884 0.08970816 -0.15705553
v 0.10383461 0.04124699 -0.14259570
v 0.10794600 0.05999500 -0.14836200
v 0.09330184 0.02415839 -0.13349947
v 0.08920569 0.03223624 -0.13326753
v 0.10461500 0.01767600 -0.13839100
v 0.08950581 -0.00434156 -0.12549189
v 0.08275367 0.00262870 -0.12303600
v 0.10052891 0.00506940 -0.13360715
v 0.08828997 -0.01851058 -0.12274493
v 0.10767269 -0.01679837 -0.13505169
v 0.10315314 -0.00744982 -0.13315805
v 0.11906786 0.02810758 -0.14902168
v 0.12587848 0.02623807 -0.15306582
v 0.13361094 0.07651618 -0.16594530
v 0.14396678 0.08634518 -0.17461950
v 0.13235743 0.09342279 -0.16856079
v 0.13770551 0.09975839 -0.17334242
v 0.13919121 0.03968147 -0.16409376
v 0.13944667 0.02511107 -0.16229826
v 0.12691157 -0.00505244 -0.14948318
v 0.11816167 -0.00765493 -0.14315779
v 0.12024049 -0.01576608 -0.14379622
v 0.12252717 0.00225908 -0.14725199
v 0.14099852 0.00912346 -0.16176240
v 0.15585315 0.04107414 -0.17648659
v 0.14848542 0.05969492 -0.17344544
v 0.14502360 0.07401145 -0.17308054
v 0.15444634 0.05815056 -0.17753005
v 0.15549181 0.07880923 -0.18171798
v 0.16103869 0.06801883 -0.18421658
v 0.16224221 0.03940152 -0.18137808
v 0.15701281 0.00796581 -0.17433474
v 0.14391416 0.01037547 -0.16402735
v 0.12977448 -0.01197858 -0.15108950
v 0.11757548 -0.02615837 -0.14132094
v 0.10378527 -0.02557165 -0.13181177
v 0.10178425 -0.04051131 -0.13072563
v 0.11744163 -0.04239885 -0.14164351
v 0.11546446 -0.04599547 -0.14050462
v 0.11642729 -0.05304816 -0.14203249
v 0.10279588 -0.05181464 -0.13275748
v 0.11988977 -0.03790858 -0.14317519
v 0.13761860 -0.03311870 -0.15654958
v 0.15403144 -0.01645338 -0.17008613
v 0.15318659 -0.02607476 -0.16906045
v 0.13946078 -0.02512645 -0.15808568
v 0.13206322 -0.02006653 -0.15240378
v 0.14693585 -0.06368309 -0.16606009
v 0.14558104 -0.06686980 -0.16531530
v 0.15144474 -0.06564266 -0.16974114
v 0.14252717 -0.05422743 -0.16158503
v 0.15587052 -0.03107549 -0.17145385
v 0.15475543 -0.04412324 -0.17080714
v 0.15477038 -0.05575014 -0.17150147
v 0.16595630 -0.06384549 -0.18171022
v 0.18490802 -0.07202884 -0.19924317
v 0.16808725 -0.06953571 -0.18389051
v 0.16603767 -0.04085710 -0.18043248
v 0.16627687 -0.00637185 -0.18135711
v 0.16779940 0.08010417 -0.19168633
v 0.17061416 0.06423054 -0.19152643
v 0.16284336 0.02018584 -0.18026244
v 0.17615419 0.05108265 -0.19478702
v 0.17260168 0.02153176 -0.18869792
v 0.18144267 -0.01880146 -0.19519082
v 0.16685878 -0.02078340 -0.18138020
v 0.17332513 -0.04423519 -0.18716423
v 0.18392346 -0.03381631 -0.19726674
v 0.18854847 -0.05957407 -0.20195712
v 0.18388694 -0.05960225 -0.19762936
v 0.19178427 -0.06128248 -0.20514765
v 0.20782832 -0.07080738 -0.22237893
v 0.20508118 -0.06566501 -0.21935295
v 0.19705092 -0.04610842 -0.21060905
v 0.18918805 -0.04017092 -0.20226740
v 0.19603061 0.03048578 -0.21388617
v 0.19455511 0.00245684 -0.21024790
v 0.19967741 -0.03893687 -0.21364470
v 0.21382885 -0.06844666 -0.22915876
v 0.21473401 -0.07567250 -0.23037349
v 0.21421625 -0.06036975 -0.22990075
v 0.20664501 -0.04851140 -0.22117475
v 0.20521055 -0.02676860 -0.22087537
v 0.20228508 -0.00948027 -0.21876983
v 0.20955651 -0.04127450 -0.22528250
v 0.19322237 0.04057853 -0.21132447
v 0.18924453 0.04168686 -0.20707467
v 0.18919434 0.04879371 -0.20757846
v 0.18003318 0.00788002 -0.19491782
v 0.18704939 0.01092749 -0.20234246
v 0.18183255 0.01753951 -0.19721231
v 0.18887198 0.07304142 -0.21106097
v 0.18371979 0.06234161 -0.20363077
v 0.19208194 0.07249488 -0.21505476
v 0.19072800 0.08040500 -0.21527650
v 0.17415723 0.09300835 -0.20025742
v 0.17635894 0.10320977 -0.20521938
v 0.17600775 0.11106850 -0.20753799
v 0.15425273 0.12643831 -0.19282932
v 0.15725399 0.14628400 -0.20346650
v 0.16702300 0.13310599 -0.20667300
v 0.15924702 0.13594685 -0.20064523
v 0.16802948 0.11654766 -0.20137016
v 0.17340800 0.12131300 -0.20829000
v 0.15084800 0.15769600 -0.20320350
v 0.16382523 0.09965349 -0.19274321
v 0.15823533 0.11218323 -0.19157895
v 0.16554074 0.09140293 -0.19195752
v 0.15293499 0.09868388 -0.18405065
v 0.18356575 0.09211600 -0.20983925
v 0.17915384 0.07671379 -0.20151849
v 0.17918428 0.07083103 -0.20038258
v 0.12346943 0.08152022 -0.16060243
v 0.12522983 0.05608695 -0.15728445
v 0.11940410 0.04257701 -0.15157960
v 0.11917022 0.06896834 -0.15606097
v 0.11255938 0.05465741 -0.14984060
v 0.10782083 0.04005022 -0.14466752
v 0.11648414 0.01278070 -0.14485156
v 0.11228874 0.15840167 -0.17759176
v 0.12949150 0.16103001 -0.18883974
v 0.12125100 0.16918100 -0.18758300
v 0.11861200 0.17209500 -0.18750900
v 0.07458883 0.14116981 -0.15460633
v 0.05975361 0.12382797 -0.14396042
v 0.05667066 0.09160090 -0.13432156
v 0.07067574 0.10062964 -0.14102322
v 0.07577556 0.11409598 -0.14628167
v 0.07147324 0.05958937 -0.13221405
v 0.04817638 0.18361767 -0.16787321
v 0.05279497 0.20359430 -0.18186984
v 0.05228084 0.19299150 -0.17449686
v 0.01471638 0.19387871 -0.17094684
v 0.00975365 0.17761614 -0.16038458
v 0.05634500 0.27022099 -0.24608400
v 0.19595575 0.06096000 -0.21792150
f 38 34 40
f 42 34 38
f 38 40 37
f 38 19 42
f 38 37 36
f 39 19 38
f 19 21 42
f 35 38 36
f 41 19 39
f 39 38 283
f 20 21 19
f 21 43 42
f 38 35 283
f 41 18 19
f 15 20 19
f 21 20 15
f 43 21 30
f 18 47 19
f 45 18 41
f 47 15 19
f 15 16 21
f 29 30 21
f 50 47 18
f 45 50 18
f 47 55 15
f 15 17 16
f 29 21 16
f 29 31 30
f 55 47 50
f 51 50 45
f 55 14 15
f 15 14 17
f 16 17 23
f 16 22 29
f 28 31 29
f 30 31 32
f 49 55 50
f 51 49 50
f 63 14 55
f 17 14 13
f 23 22 16
f 23 17 22
f 22 28 29
f 31 28 26
f 31 26 32
f 49 52 55
f 52 49 51
f 63 70 14
f 55 65 63
f 14 70 13
f 17 13 46
f 17 56 22
f 22 44 28
f 32 26 33
f 52 48 55
f 53 52 51
f 64 70 63
f 69 65 55
f 65 279 63
f 70 62 13
f 46 13 56
f 46 56 17
f 56 27 22
f 22 27 44
f 44 27 28
f 52 66 48
f 69 55 48
f 54 52 53
f 280 64 63
f 64 72 70
f 69 66 65
f 279 280 63
f 84 279 65
f 62 61 13
f 62 70 61
f 13 11 56
f 56 24 27
f 27 25 28
f 69 48 66
f 54 66 52
f 280 278 64
f 278 72 64
f 72 71 70
f 66 67 65
f 84 280 279
f 112 84 65
f 70 60 61
f 13 12 11
f 24 25 27
f 80 278 280
f 278 71 72
f 70 71 60
f 67 112 65
f 66 112 67
f 84 80 280
f 85 84 112
f 61 60 281
f 24 10 25
f 80 77 278
f 278 73 71
f 60 71 281
f 115 112 66
f 83 80 84
f 86 84 85
f 107 85 112
f 80 78 77
f 77 79 278
f 71 73 74
f 278 79 73
f 281 71 282
f 68 115 66
f 109 112 115
f 80 83 82
f 84 87 83
f 86 87 84
f 85 108 86
f 85 107 108
f 109 107 112
f 82 78 80
f 77 76 79
f 71 74 282
f 73 79 74
f 115 68 113
f 113 109 115
f 87 82 83
f 86 82 87
f 86 108 82
f 107 105 108
f 106 107 109
f 76 75 79
f 74 58 282
f 74 79 75
f 114 109 113
f 108 88 82
f 106 105 107
f 105 116 108
f 110 106 109
f 74 75 58
f 282 58 59
f 111 109 114
f 272 88 108
f 106 118 105
f 104 116 105
f 116 272 108
f 106 110 118
f 110 109 111
f 75 93 58
f 114 110 111
f 272 81 88
f 104 105 118
f 104 103 116
f 116 103 272
f 119 118 110
f 58 93 57
f 81 272 89
f 118 268 104
f 104 102 103
f 272 103 117
f 120 118 119
f 81 89 92
f 272 273 89
f 104 268 102
f 118 127 268
f 102 123 103
f 117 103 123
f 272 117 101
f 120 271 118
f 92 89 91
f 89 273 91
f 272 101 273
f 102 268 121
f 269 127 118
f 268 127 121
f 121 123 102
f 123 122 117
f 101 117 100
f 271 270 118
f 90 91 273
f 273 101 90
f 270 269 118
f 135 127 269
f 127 125 121
f 121 125 123
f 122 140 117
f 123 147 122
f 101 100 276
f 117 99 100
f 90 275 91
f 276 90 101
f 127 135 126
f 135 269 136
f 126 125 127
f 125 124 123
f 99 117 140
f 140 122 146
f 122 147 148
f 123 124 147
f 276 100 275
f 99 98 100
f 276 275 90
f 134 126 135
f 135 136 253
f 125 126 124
f 99 140 98
f 122 148 146
f 140 146 98
f 147 139 148
f 139 147 124
f 100 98 275
f 134 130 126
f 138 134 135
f 137 135 253
f 128 124 126
f 146 148 141
f 146 142 98
f 139 261 148
f 165 139 124
f 275 98 95
f 126 130 129
f 134 138 130
f 137 138 135
f 248 137 253
f 128 129 124
f 126 129 128
f 141 142 146
f 148 265 141
f 142 143 98
f 139 162 261
f 261 262 148
f 129 165 124
f 164 139 165
f 98 96 95
f 274 275 95
f 130 131 129
f 138 133 130
f 137 250 138
f 249 137 248
f 141 144 142
f 141 265 150
f 264 265 148
f 143 277 98
f 142 145 143
f 163 162 139
f 261 162 262
f 262 264 148
f 129 131 165
f 164 163 139
f 165 163 164
f 96 97 95
f 98 277 96
f 94 275 274
f 130 132 131
f 133 247 130
f 247 133 138
f 249 250 137
f 247 138 250
f 150 144 141
f 142 144 145
f 150 265 144
f 264 262 265
f 143 145 9
f 163 175 162
f 162 166 262
f 132 165 131
f 257 163 165
f 132 130 247
f 249 251 250
f 247 250 251
f 144 149 145
f 265 149 144
f 262 263 265
f 145 152 9
f 162 175 174
f 177 175 163
f 174 166 162
f 262 166 161
f 132 257 165
f 257 256 163
f 247 255 132
f 249 252 251
f 251 255 247
f 149 152 145
f 265 266 149
f 262 160 263
f 265 263 266
f 176 174 175
f 256 177 163
f 177 176 175
f 174 176 166
f 161 166 167
f 161 160 262
f 132 256 257
f 255 256 132
f 251 252 246
f 251 254 255
f 149 151 152
f 266 160 149
f 263 160 266
f 177 256 208
f 177 178 176
f 176 167 166
f 167 168 161
f 160 161 171
f 255 254 256
f 246 245 251
f 251 244 254
f 149 156 151
f 152 151 8
f 149 160 153
f 177 208 178
f 256 259 208
f 179 176 178
f 181 167 176
f 161 168 171
f 167 172 168
f 171 267 160
f 244 256 254
f 246 258 245
f 251 245 244
f 149 153 156
f 151 156 8
f 160 156 153
f 208 209 178
f 259 260 208
f 244 259 256
f 176 179 173
f 178 209 179
f 181 172 167
f 176 173 181
f 168 182 171
f 181 168 172
f 160 267 156
f 267 171 156
f 258 240 245
f 245 240 244
f 155 8 156
f 260 209 208
f 259 240 260
f 244 240 259
f 179 180 173
f 209 211 179
f 173 180 181
f 192 182 168
f 182 170 171
f 181 192 168
f 171 159 156
f 258 243 240
f 156 154 155
f 211 209 260
f 240 241 260
f 179 210 180
f 179 211 212
f 180 192 181
f 192 195 182
f 171 170 169
f 182 183 170
f 156 159 154
f 171 169 159
f 243 242 240
f 260 241 211
f 236 241 240
f 179 212 210
f 212 180 210
f 211 239 212
f 180 207 192
f 195 183 182
f 192 193 195
f 169 170 158
f 170 183 184
f 159 169 158
f 242 284 240
f 243 284 242
f 211 241 236
f 236 240 234
f 180 212 207
f 211 236 239
f 239 237 212
f 207 214 192
f 195 191 183
f 192 206 193
f 193 194 195
f 170 184 158
f 183 185 184
f 159 158 157
f 240 284 234
f 236 234 235
f 213 207 212
f 235 239 236
f 237 213 212
f 239 213 237
f 206 192 214
f 207 213 214
f 191 190 183
f 195 194 191
f 200 193 206
f 193 191 194
f 158 184 157
f 183 190 185
f 234 284 224
f 235 234 239
f 239 223 213
f 213 206 214
f 190 191 199
f 193 200 201
f 201 200 206
f 193 201 191
f 190 186 185
f 234 224 225
f 284 233 224
f 239 234 238
f 216 213 223
f 239 238 223
f 216 206 213
f 190 199 186
f 201 199 191
f 202 201 206
f 186 187 185
f 224 232 225
f 234 225 238
f 224 233 232
f 216 223 217
f 238 225 223
f 216 215 206
f 186 199 187
f 202 199 201
f 206 203 202
f 225 232 231
f 232 233 231
f 216 217 215
f 223 219 217
f 225 226 223
f 215 205 206
f 199 188 187
f 199 202 198
f 203 205 202
f 206 205 203
f 225 231 226
f 231 233 230
f 215 217 218
f 217 219 204
f 223 222 219
f 223 226 222
f 215 218 205
f 187 188 189
f 199 197 188
f 198 196 199
f 202 205 198
f 230 226 231
f 233 229 230
f 218 217 204
f 6 204 219
f 230 219 222
f 222 226 230
f 205 218 204
f 197 5 188
f 196 197 199
f 198 197 196
f 5 198 205
f 230 229 227
f 6 2 204
f 219 7 6
f 230 221 219
f 204 2 205
f 188 5 1
f 197 198 5
f 205 4 5
f 229 228 227
f 230 227 220
f 219 220 7
f 219 221 220
f 230 220 221
f 2 3 205
f 205 3 4
f 227 228 220
f 228 7 220

