# https://github.com/mikedh/trimesh
v -0.19332650 -0.01466600 -0.02006900
v -0.18490137 -0.02058750 -0.01200388
v -0.21647100 -0.01325200 -0.02585600
v -0.20656300 -0.01185500 -0.02658600
v -0.21337224 -0.04130461 0.01688356
v -0.21666700 -0.03552500 0.00851900
v -0.21121250 -0.04220450 0.01850200
v -0.21645400 -0.02568600 -0.00927000
v -0.21496500 -0.03015450 -0.00313050
v -0.21661800 -0.02220300 -0.01408600
v -0.08293200 -0.02024500 0.05429300
v -0.03039996 -0.02999291 0.17925383
v -0.04463700 -0.01611000 0.14621200
v -0.05038464 -0.01347043 0.13505056
v -0.05547050 -0.01245100 0.12938550
v -0.03899250 -0.01987700 0.15598700
v -0.04306250 -0.01703100 0.14862150
v -0.06215500 -0.01239500 0.12131800
v -0.12141200 -0.03306400 0.02377950
v -0.11221900 -0.03127300 0.02675500
v -0.16901200 -0.02806700 0.00020500
v -0.17876252 -0.02367719 -0.00616661
v -0.16115024 -0.03027325 0.00495025
v -0.14281525 -0.03366800 0.01437525
v -0.09579652 -0.02657426 0.03311645
v -0.13418459 -0.03348982 0.01901921
v -0.05591615 -0.00810348 0.07078308
v -0.06449700 -0.01530787 0.06210350
v -0.16121708 -0.03397910 0.01066826
v -0.17072301 -0.03555150 0.01155300
v -0.12976600 -0.03558800 0.02398100
v -0.14749700 -0.03909300 0.02495500
v -0.14893829 -0.04215256 0.03210449
v -0.13948600 -0.04049900 0.03350000
v -0.14119499 -0.04641819 0.04748562
v -0.13142123 -0.04794989 0.06297488
v -0.12296600 -0.04373587 0.06385100
v -0.12964000 -0.04722150 0.06501000
v -0.13910148 -0.05029920 0.06008901
v -0.14233009 -0.04843954 0.06462456
v -0.13130300 -0.04137000 0.07475900
v -0.12600949 -0.04597700 0.06616350
v -0.12284184 -0.04476340 0.06825168
v -0.15827036 -0.05043574 0.06130194
v -0.16108614 -0.05091453 0.06140445
v -0.19730150 -0.05011750 0.03413450
v -0.16678201 -0.05179500 0.05774700
v -0.15356967 -0.05305615 0.05374078
v -0.16264473 -0.05381953 0.04722549
v -0.17474267 -0.05259796 0.05267170
v -0.16463700 -0.05297850 0.05044500
v -0.17622429 -0.05222525 0.04760068
v -0.20901733 -0.03792674 0.00620672
v -0.21035044 -0.03379206 0.00022204
v -0.19172833 -0.04941030 0.02540729
v -0.19633293 -0.04691660 0.02005044
v -0.17369123 -0.05244733 0.03741620
v -0.18454701 -0.05175200 0.03172500
v -0.16566751 -0.04046250 0.02100875
v -0.21093700 -0.03190500 -0.00196625
v -0.19499600 -0.02837600 -0.00310200
v -0.19093300 -0.03060800 0.00064700
v -0.18252207 -0.03971430 0.01485772
v -0.17652800 -0.03821950 0.01438350
v -0.12559505 -0.04075913 0.04972884
v -0.11946500 -0.03783500 0.04719450
v -0.12075863 -0.03766362 0.04252401
v -0.13369399 -0.03963400 0.03537200
v -0.10944400 -0.03362700 0.03890400
v -0.10465304 -0.03183828 0.03625960
v -0.11277623 -0.03554733 0.04970519
v -0.11077263 -0.03468662 0.05640875
v -0.10041389 -0.03014522 0.05751668
v -0.09137715 -0.02355028 0.06862712
v -0.10631000 -0.03315200 0.06268500
v -0.11412362 -0.03832026 0.06397959
v -0.10076236 -0.03004870 0.06690725
v -0.08385900 -0.01935650 0.07038300
v -0.09387782 -0.02696035 0.05815095
v -0.07598314 -0.01928578 0.06190227
v -0.07704367 -0.01587792 0.07014498
v -0.07814158 -0.01426414 0.07526945
v -0.07188641 -0.00882842 0.08363916
v -0.08530525 -0.01911075 0.07744425
v -0.06614617 -0.00488558 0.08474381
v -0.05945700 -0.00130850 0.09134175
v -0.05020700 0.00332700 0.09878150
v -0.04862300 0.00272500 0.10327700
v -0.04919800 0.00114500 0.10639700
v -0.05783009 -0.01235138 0.12522814
v -0.03998250 -0.00688100 0.13363450
v -0.03458540 -0.00626909 0.13781164
v -0.01779250 -0.01057463 0.16020531
v -0.02224150 -0.00019950 0.13924700
v -0.02970695 -0.01415972 0.15461097
v -0.03619769 0.00256100 0.11976289
v -0.02496700 0.00610700 0.12521800
v -0.01674900 -0.00846525 0.15767975
v -0.05533801 -0.00071382 0.10141102
v -0.05577600 -0.00715425 0.11645675
v -0.07160425 -0.01451100 0.10980575
v -0.06706975 -0.01329275 0.11371250
v -0.06588600 -0.00634400 0.09422800
v -0.07375275 -0.01551225 0.10532750
v -0.07172901 -0.00933302 0.08850497
v -0.08091900 -0.01881800 0.06798700
v -0.12896765 -0.03965199 0.04049674
v -0.13724875 -0.04297925 0.04265200
v -0.14824706 -0.05265489 0.05445594
v -0.12738000 -0.03573000 0.02612000
v -0.18113101 -0.03558900 0.00949600
v -0.07492100 -0.01127050 0.08468300
v -0.09813574 -0.03049876 0.08375238
v -0.07694975 -0.01463650 0.09165675
v -0.08841918 -0.02205069 0.08250390
v -0.11009200 -0.03819600 0.07429800
v -0.11885650 -0.03584500 0.07978900
v -0.11719900 -0.04175600 0.07206050
v -0.10357500 -0.03410700 0.07936800
v -0.18655576 -0.05121038 0.04070890
v -0.18884594 -0.05073175 0.03274244
v -0.14803892 -0.04754527 0.06838859
v -0.16056156 -0.04824169 0.03710206
v -0.06474900 -0.00833700 0.07617400
v -0.13458601 -0.04882600 0.06096800
v -0.06803500 -0.00754925 0.08029600
v -0.18470013 -0.04168162 0.01713713
v -0.02891456 0.00610700 0.12090790
v -0.18056550 -0.05229850 0.04741975
v -0.17453550 -0.02787250 -0.00094800
v -0.20420737 -0.04274123 0.01299481
f 60 1 8
f 60 8 9
f 54 60 9
f 53 54 9
f 131 54 53
f 56 54 131
f 127 54 56
f 58 127 56
f 57 127 58
f 57 59 127
f 123 59 57
f 24 59 123
f 32 24 123
f 32 123 33
f 33 123 109
f 109 123 49
f 109 49 48
f 51 48 49
f 51 49 52
f 47 51 52
f 47 52 50
f 52 129 50
f 52 57 129
f 44 51 47
f 45 44 47
f 122 44 45
f 122 40 44
f 41 40 122
f 116 40 41
f 117 116 41
f 116 117 119
f 44 40 48
f 40 109 48
f 40 39 109
f 40 42 39
f 43 42 40
f 118 43 40
f 49 57 52
f 48 51 44
f 35 33 109
f 125 35 109
f 39 125 109
f 36 35 125
f 36 65 35
f 37 65 36
f 72 65 37
f 72 66 65
f 67 66 72
f 71 67 72
f 73 71 72
f 74 73 72
f 79 73 74
f 80 79 74
f 80 11 79
f 28 11 80
f 78 80 74
f 106 80 78
f 81 80 106
f 126 80 81
f 85 126 81
f 85 81 82
f 85 82 83
f 85 83 105
f 85 105 103
f 103 105 114
f 112 114 105
f 114 112 115
f 114 115 113
f 115 77 113
f 115 74 77
f 84 74 115
f 115 83 84
f 113 77 116
f 77 76 116
f 116 76 118
f 118 76 37
f 118 37 43
f 43 37 42
f 77 75 76
f 77 72 75
f 75 72 76
f 112 83 115
f 103 114 99
f 99 114 101
f 114 104 101
f 99 101 102
f 100 99 102
f 96 99 100
f 90 96 100
f 90 100 18
f 90 18 15
f 96 90 14
f 96 14 91
f 96 91 92
f 94 96 92
f 96 94 97
f 97 128 96
f 89 96 128
f 94 92 93
f 94 93 98
f 13 93 92
f 93 13 95
f 95 13 17
f 95 17 16
f 93 95 16
f 93 16 12
f 92 14 13
f 92 91 14
f 89 99 96
f 88 99 89
f 88 87 99
f 87 86 99
f 86 85 99
f 99 85 103
f 105 83 112
f 83 82 84
f 84 82 78
f 81 78 82
f 124 80 126
f 124 27 80
f 27 28 80
f 81 106 78
f 78 74 84
f 79 11 73
f 74 72 77
f 73 11 71
f 71 69 67
f 70 69 71
f 71 25 70
f 70 25 20
f 70 20 67
f 67 20 19
f 67 19 68
f 67 68 107
f 108 107 68
f 65 107 108
f 65 67 107
f 19 26 68
f 69 70 67
f 66 67 65
f 72 37 76
f 37 36 38
f 38 36 125
f 35 65 108
f 108 33 35
f 108 34 33
f 34 110 33
f 110 31 33
f 31 26 33
f 33 26 32
f 26 24 32
f 24 29 59
f 29 23 59
f 59 23 30
f 23 130 30
f 21 130 23
f 21 22 130
f 24 23 29
f 49 123 57
f 58 56 55
f 63 54 127
f 127 64 63
f 64 54 63
f 111 54 64
f 111 62 54
f 61 54 62
f 1 54 61
f 61 2 1
f 131 53 5
f 7 131 5
f 56 131 7
f 55 56 7
f 46 55 7
f 121 55 46
f 55 121 58
f 57 58 121
f 120 121 46
f 129 121 120
f 5 53 6
f 6 53 9
f 54 1 60
f 8 1 10
f 1 3 10
f 4 3 1

