v 0.27323 -0.22053 -0.191821
v 0.27561 -0.224423 -0.195416
v 0.278102 -0.228466 -0.19881
v 0.276801 -0.216738 -0.19365
v 0.288564 -0.216879 -0.205498
v 0.282664 -0.216805 -0.199589
v 0.285243 -0.22092 -0.202842
v 0.279344 -0.220845 -0.196933
v 0.281923 -0.224961 -0.200186
v 0.284502 -0.229076 -0.203439
v 0.287801 -0.225051 -0.206092
v 0.291114 -0.221042 -0.208721
v 0.293684 -0.225235 -0.211903
v 0.296298 -0.229433 -0.215019
v 0.302279 -0.229657 -0.22079
v 0.304813 -0.233906 -0.223954
v 0.29894 -0.233653 -0.218093
v 0.308067 -0.229911 -0.226758
v 0.302103 -0.209298 -0.215591
v 0.30541 -0.225645 -0.223623
v 0.304151 -0.213398 -0.219286
v 0.302269 -0.188858 -0.209932
v 0.301103 -0.197046 -0.210993
v 0.299126 -0.19301 -0.207228
v 0.295411 -0.196955 -0.20498
v 0.291531 -0.200831 -0.202925
v 0.297139 -0.189036 -0.203441
v 0.293523 -0.193044 -0.201105
v 0.289826 -0.197015 -0.198852
v 0.285944 -0.200925 -0.196749
v 0.287834 -0.204804 -0.200668
v 0.283955 -0.208725 -0.198517
v 0.286183 -0.21278 -0.202084
v 0.280176 -0.212697 -0.196262
v 0.297586 -0.201041 -0.208596
v 0.293796 -0.204943 -0.206432
v 0.290005 -0.208844 -0.204269
v 0.3005 -0.184958 -0.205964
v 0.303203 -0.20116 -0.214654
v 0.310556 -0.234162 -0.229974
v 0.312419 -0.246652 -0.23341
v 0.313091 -0.238439 -0.233124
v 0.31563 -0.242771 -0.236277
v 0.318169 -0.247103 -0.239429
v 0.320708 -0.251434 -0.242581
v 0.323247 -0.255766 -0.245734
v 0.314965 -0.250966 -0.236532
v 0.317521 -0.255299 -0.239621
v 0.320077 -0.259632 -0.242709
v 0.314357 -0.259165 -0.236575
v 0.316913 -0.263498 -0.239664
v 0.322601 -0.263994 -0.245684
v 0.319426 -0.267871 -0.242596
v 0.321931 -0.272252 -0.245502
v 0.313779 -0.267369 -0.236579
v 0.316355 -0.271752 -0.239439
v 0.308362 -0.266974 -0.230336
v 0.305867 -0.262751 -0.227301
v 0.308818 -0.258811 -0.230438
v 0.311879 -0.254864 -0.233466
v 0.309334 -0.250609 -0.230442
v 0.300767 -0.254299 -0.221241
v 0.304098 -0.242142 -0.224315
v 0.306755 -0.246379 -0.227352
v 0.298493 -0.241863 -0.218205
v 0.301151 -0.246099 -0.221242
v 0.303808 -0.250336 -0.22428
v 0.29581 -0.23766 -0.215187
v 0.295483 -0.245904 -0.215181
v 0.298189 -0.250076 -0.218182
v 0.289918 -0.23749 -0.209409
v 0.29277 -0.241728 -0.212191
v 0.306278 -0.254562 -0.227405
v 0.303313 -0.258523 -0.224275
v 0.318852 -0.276107 -0.242295
v 0.310859 -0.271246 -0.2333
v 0.321214 -0.280493 -0.245205
v 0.322703 -0.293167 -0.247835
v 0.324307 -0.276784 -0.248505
v 0.32665 -0.281285 -0.251454
v 0.323501 -0.284974 -0.248171
v 0.325838 -0.28947 -0.251116
v 0.324837 -0.297632 -0.250892
v 0.328897 -0.285769 -0.254452
v 0.331103 -0.290369 -0.25747
v 0.327909 -0.293949 -0.25422
v 0.330142 -0.298556 -0.257219
v 0.332392 -0.303148 -0.260186
v 0.326959 -0.302126 -0.253949
v 0.329297 -0.306636 -0.256752
v 0.333447 -0.307665 -0.263776
v 0.330535 -0.311151 -0.260237
v 0.331382 -0.315669 -0.263962
v 0.33189 -0.320144 -0.267858
v 0.328924 -0.323392 -0.264254
v 0.320352 -0.288671 -0.245037
v 0.317993 -0.284249 -0.242167
v 0.315646 -0.279894 -0.239211
v 0.313269 -0.275576 -0.236235
v 0.325027 -0.268482 -0.248664
v 0.327407 -0.273031 -0.251688
v 0.329787 -0.27758 -0.254712
v 0.325729 -0.260171 -0.248818
v 0.327896 -0.318667 -0.261515
v 0.327992 -0.264758 -0.251992
v 0.332012 -0.282209 -0.257789
v 0.333351 -0.294979 -0.260453
v 0.311336 -0.263083 -0.233483
v 0.307343 -0.238156 -0.22712
v 0.309885 -0.242404 -0.230261
v 0.301476 -0.237902 -0.221245
v 0.300003 -0.205192 -0.21194
v 0.301076 -0.217411 -0.216439
v 0.303421 -0.221558 -0.219874
v 0.299803 -0.225481 -0.217501
v 0.296171 -0.209074 -0.209815
v 0.298697 -0.213256 -0.213042
v 0.292301 -0.212948 -0.207735
v 0.294827 -0.21713 -0.210961
v 0.297353 -0.221313 -0.214188
v 0.290359 -0.229236 -0.209263
v 0.293019 -0.233441 -0.212317
v 0.287091 -0.233256 -0.206592
v 0.280595 -0.232508 -0.202205
v 0.28319 -0.23651 -0.205576
v 0.28582 -0.240457 -0.208963
v 0.288445 -0.244466 -0.21228
v 0.290978 -0.248551 -0.215552
v 0.29343 -0.252673 -0.218842
v 0.295954 -0.256596 -0.22228
v 0.298469 -0.260596 -0.225622
v 0.300926 -0.264778 -0.228719
v 0.30336 -0.268941 -0.231853
v 0.305767 -0.273192 -0.234891
v 0.308157 -0.277479 -0.23787
v 0.310549 -0.281758 -0.240862
v 0.312845 -0.286353 -0.243443
v 0.315214 -0.290537 -0.246607
v 0.317482 -0.295159 -0.249236
v 0.319695 -0.299695 -0.252047
v 0.321861 -0.304222 -0.254931
v 0.324017 -0.308896 -0.25753
v 0.326149 -0.313753 -0.259637
f 2 8 4 1
f 3 9 8 2
f 124 10 9 3
f 8 6 34 4
f 7 11 12 5
f 12 119 118 5
f 118 37 33 5
f 33 6 7 5
f 8 9 7 6
f 33 32 34 6
f 9 10 11 7
f 124 125 123 10
f 123 121 11 10
f 121 13 12 11
f 13 120 119 12
f 121 122 14 13
f 14 115 120 13
f 122 68 17 14
f 17 15 115 14
f 17 111 16 15
f 16 18 20 15
f 20 114 115 15
f 111 63 109 16
f 109 40 18 16
f 68 65 111 17
f 117 113 21 19
f 112 116 117 19
f 38 27 24 22
f 35 112 39 23
f 24 25 35 23
f 27 28 25 24
f 26 36 35 25
f 28 29 26 25
f 31 37 36 26
f 29 30 31 26
f 32 33 37 31
f 36 116 112 35
f 37 118 116 36
f 109 110 42 40
f 61 60 47 41
f 47 44 43 41
f 43 42 110 41
f 110 64 61 41
f 47 48 45 44
f 48 49 46 45
f 49 52 103 46
f 60 50 48 47
f 50 51 49 48
f 51 53 52 49
f 108 55 51 50
f 60 59 108 50
f 55 56 53 51
f 53 54 100 52
f 100 105 103 52
f 56 75 54 53
f 75 77 79 54
f 79 101 100 54
f 76 99 56 55
f 108 57 76 55
f 99 98 75 56
f 133 134 76 57
f 108 59 58 57
f 58 132 133 57
f 59 73 74 58
f 74 131 132 58
f 60 61 73 59
f 64 67 73 61
f 130 131 74 62
f 74 73 67 62
f 67 66 70 62
f 70 129 130 62
f 66 67 64 63
f 64 110 109 63
f 111 65 66 63
f 69 70 66 65
f 68 72 69 65
f 122 71 72 68
f 128 129 70 69
f 72 127 128 69
f 126 127 72 71
f 122 121 123 71
f 123 125 126 71
f 98 97 77 75
f 134 135 99 76
f 97 96 81 77
f 81 80 79 77
f 139 140 83 78
f 83 86 82 78
f 82 81 96 78
f 96 138 139 78
f 80 102 101 79
f 81 82 84 80
f 84 106 102 80
f 86 85 84 82
f 140 141 89 83
f 89 87 86 83
f 86 87 107 85
f 89 90 88 87
f 90 92 91 88
f 141 142 90 89
f 142 143 92 90
f 143 104 93 92
f 104 95 94 93
f 97 137 138 96
f 98 136 137 97
f 99 135 136 98
f 120 115 114 113
f 117 119 120 113
f 118 119 117 116
