v -0.103132 0.34651 -0.224642
v -0.094416 0.349283 -0.220488
v -0.0856638 0.3517 -0.216115
v -0.0769759 0.353853 -0.211514
v -0.0681162 0.355746 -0.207011
v -0.0646858 0.355544 -0.2159
v -0.0557877 0.357114 -0.211503
v -0.0437224 0.357842 -0.216159
v -0.0346987 0.359455 -0.21176
v -0.0468787 0.358609 -0.207087
v -0.0419998 0.359832 -0.193629
v -0.0382453 0.359708 -0.202659
v -0.0587361 0.35869 -0.180306
v -0.0546893 0.358709 -0.189185
v -0.0506426 0.358728 -0.198063
v -0.0458814 0.359893 -0.184665
v -0.0674927 0.357157 -0.184878
v -0.0718964 0.356505 -0.176239
v -0.0677282 0.357423 -0.162972
v -0.0632055 0.358121 -0.171619
v -0.0590225 0.35883 -0.158315
v -0.054457 0.35935 -0.166996
v -0.0548218 0.359409 -0.145006
v -0.0502465 0.359945 -0.153714
v -0.045655 0.360437 -0.162417
v -0.0413365 0.360737 -0.149099
v -0.0367394 0.361213 -0.1578
v -0.0459656 0.360277 -0.140353
v -0.0507464 0.35967 -0.131542
v -0.0419954 0.360524 -0.126702
v -0.0381193 0.360261 -0.11315
v -0.0331618 0.361148 -0.121921
v -0.0283937 0.361605 -0.130794
v -0.019436 0.361904 -0.126194
v -0.0151256 0.361326 -0.11286
v -0.00600377 0.36112 -0.108494
v 0.00309923 0.360797 -0.104196
v 0.00786485 0.361322 -0.113358
v 0.012339 0.360093 -0.100051
v 0.00269896 0.358408 -0.0817994
v 0.00752701 0.359305 -0.0909181
v -0.00670239 0.358988 -0.0860845
v -0.00223107 0.357447 -0.0727757
v -0.0341228 0.359373 -0.0997228
v -0.0210637 0.358214 -0.081601
v -0.0250063 0.359409 -0.0950881
v -0.0200278 0.360593 -0.103903
v -0.015923 0.359323 -0.0904641
v -0.0394254 0.357973 -0.0910569
v -0.0302435 0.3581 -0.086325
v -0.035575 0.356342 -0.0776365
v -0.0264045 0.356318 -0.0728883
v -0.0170138 0.356181 -0.0682946
v -0.0317606 0.354086 -0.0642343
v -0.053472 0.355319 -0.087977
v -0.0445932 0.355911 -0.0827209
v -0.0409171 0.353693 -0.0692119
v -0.057162 0.356662 -0.10141
v -0.0608501 0.357213 -0.11486
v -0.0558097 0.358458 -0.123148
v -0.0520447 0.358311 -0.109687
v -0.0732983 0.355867 -0.133386
v -0.0645676 0.357347 -0.128316
v -0.0595244 0.358551 -0.136593
v -0.0782216 0.354238 -0.125458
v -0.0820086 0.353985 -0.138558
v -0.0811209 0.354843 -0.159548
v -0.0897968 0.35264 -0.164378
v -0.0859703 0.353545 -0.151493
v -0.093883 0.351717 -0.17731
v -0.0851837 0.353805 -0.172485
v -0.0892941 0.352693 -0.18545
v -0.080597 0.354722 -0.180873
v -0.106763 0.347756 -0.194244
v -0.0980132 0.350302 -0.189946
v -0.102394 0.34868 -0.202719
v -0.0936734 0.351188 -0.198452
v -0.111117 0.346108 -0.207005
v -0.0983264 0.349135 -0.211517
v -0.0849893 0.353308 -0.194029
v -0.0808836 0.353758 -0.202711
v -0.0762514 0.35532 -0.189458
v -0.10258 0.349071 -0.181696
v -0.0867631 0.352147 -0.130777
v -0.0746844 0.354073 -0.112079
v -0.0710187 0.353112 -0.0987016
v -0.0622967 0.354502 -0.0932927
v -0.067272 0.351697 -0.0853511
v -0.063536 0.349199 -0.0720192
v -0.0549974 0.350155 -0.0664049
v -0.0585877 0.352788 -0.0798307
v -0.107052 0.346537 -0.215797
v -0.0830338 0.351842 -0.117611
v -0.0771759 0.355403 -0.146506
v -0.0683424 0.356985 -0.141559
v -0.0696011 0.355973 -0.120148
v -0.0659706 0.355471 -0.106706
v -0.049798 0.353347 -0.0744403
v -0.0482899 0.357364 -0.0961874
v -0.0431882 0.359097 -0.104582
v -0.0117129 0.357988 -0.0771349
v 0.0119423 0.357542 -0.0776682
v 0.0167669 0.358461 -0.0867876
v 0.0259493 0.35697 -0.0827312
v 0.0211683 0.35603 -0.0735712
v 0.0302572 0.353992 -0.0695633
v 0.0439061 0.352055 -0.0748171
v 0.0350198 0.354829 -0.0787535
v 0.0397636 0.355598 -0.087967
v 0.0215617 0.359288 -0.095935
v 0.0353409 0.358178 -0.101215
v 0.0261993 0.359737 -0.105206
v 0.0260284 0.361077 -0.127943
v 0.0303702 0.360876 -0.137348
v 0.039406 0.359873 -0.133335
v 0.0351273 0.360054 -0.123914
v 0.0398975 0.358623 -0.110514
v 0.0442086 0.358508 -0.119927
v 0.0484865 0.35835 -0.129364
v 0.0525866 0.358108 -0.138848
v 0.0565481 0.357683 -0.148332
v 0.0654838 0.355408 -0.144515
v 0.0692932 0.354844 -0.154022
v 0.0615793 0.355935 -0.134998
v 0.0705499 0.353352 -0.131225
v 0.0664612 0.353735 -0.121695
v 0.0622958 0.353931 -0.112174
v 0.0579561 0.353976 -0.102695
v 0.0534461 0.353643 -0.0933232
v 0.0489979 0.356646 -0.10657
v 0.0667936 0.350738 -0.0989233
v 0.0710774 0.350613 -0.108472
v 0.0838244 0.346326 -0.114479
v 0.0878508 0.345987 -0.124018
v 0.0792317 0.349891 -0.127573
v 0.0831245 0.349379 -0.137119
v 0.0988272 0.343754 -0.152751
v 0.0952624 0.344602 -0.143161
v 0.117212 0.336358 -0.178183
v -0.0895811 0.35164 -0.207158
v 0.115072 0.334114 -0.146136
v 0.111556 0.334918 -0.13652
v 0.107933 0.33557 -0.126953
v 0.1042 0.336071 -0.117437
v 0.0998577 0.340721 -0.130173
v 0.103532 0.340004 -0.139739
v 0.0961222 0.341296 -0.120646
v 0.105667 0.341776 -0.17193
v 0.100446 0.344707 -0.184984
v 0.108908 0.340735 -0.181508
v 0.0885999 0.349045 -0.179014
v 0.0973007 0.345778 -0.175428
v 0.0918033 0.348122 -0.188556
v 0.0741195 0.353169 -0.195748
v 0.0798556 0.352038 -0.1826
v 0.0830183 0.350933 -0.192138
v 0.0710022 0.354351 -0.186357
v 0.0496189 0.358562 -0.184556
v 0.0620494 0.356345 -0.190165
v 0.0371153 0.360326 -0.179098
v 0.0189959 0.361166 -0.187161
v 0.0133208 0.360767 -0.200589
v 0.0280432 0.360897 -0.183117
v 0.0223349 0.360508 -0.196616
v 0.0313735 0.360219 -0.19254
v -0.0226546 0.359114 -0.216853
v -0.0136578 0.359931 -0.212797
v -0.00464445 0.36053 -0.208732
v 0.000915599 0.36126 -0.195229
v 0.00430742 0.360736 -0.204641
v -0.0115978 0.361466 -0.189888
v -0.00807888 0.361026 -0.199316
v -0.00257474 0.36172 -0.185806
v -0.0258406 0.360109 -0.207581
v -0.0204616 0.360983 -0.194027
v -0.0170102 0.36064 -0.20343
v -0.00650209 0.361946 -0.176384
v -0.0193677 0.361864 -0.171405
v -0.0153142 0.361773 -0.180573
v -0.0104582 0.362149 -0.166992
v -0.027877 0.361887 -0.153258
v -0.0234966 0.361925 -0.162272
v -0.0145824 0.362212 -0.157857
v -0.0189892 0.362097 -0.148812
v -0.0101125 0.362276 -0.144355
v -0.00110413 0.3623 -0.140105
v -0.0056514 0.362389 -0.153485
v 0.00792729 0.362198 -0.136013
v 0.00322775 0.362248 -0.149455
v 0.00738842 0.362157 -0.158872
v 0.0121438 0.362076 -0.145424
v 0.0164139 0.361918 -0.154831
v 0.0213099 0.361752 -0.141369
v 0.0168988 0.361738 -0.131996
v 0.0253372 0.361507 -0.150799
v 0.0293087 0.361183 -0.160234
v 0.0383874 0.360329 -0.156239
v 0.0423292 0.35989 -0.16568
v 0.0203847 0.361706 -0.164259
v 0.00341263 0.362038 -0.126765
v -0.00569448 0.362142 -0.13102
v -0.0281411 0.361504 -0.175761
v -0.0332088 0.360678 -0.189187
v -0.0293429 0.360397 -0.198309
v -0.0242276 0.361255 -0.184887
v -0.0015843 0.362237 -0.1629
v 0.00235837 0.36202 -0.172321
v 0.00630105 0.361803 -0.181742
v 0.00992384 0.361357 -0.191178
v 0.0114304 0.361989 -0.168291
v 0.0153154 0.361622 -0.177714
v 0.0243152 0.361295 -0.173691
v 0.033268 0.360733 -0.169673
v 0.0405492 0.359552 -0.188507
v 0.0347122 0.359405 -0.201946
v 0.0437963 0.358655 -0.197927
v 0.0461025 0.359255 -0.175141
v 0.0513939 0.358585 -0.161739
v 0.0550255 0.357999 -0.171197
v 0.0585973 0.357272 -0.180674
v 0.0528644 0.357503 -0.193984
v 0.0674896 0.355352 -0.176834
v 0.0765169 0.3531 -0.17309
v 0.0852574 0.350084 -0.169434
v 0.0903248 0.347714 -0.156254
v 0.0938561 0.346764 -0.165844
v 0.0816896 0.350985 -0.159856
v 0.0780405 0.351914 -0.150297
v 0.0867942 0.348664 -0.146665
v 0.10235 0.342791 -0.162346
v 0.107076 0.339184 -0.149333
v 0.110516 0.33828 -0.158948
v 0.113957 0.337376 -0.168563
v 0.0916024 0.345338 -0.133585
v 0.079596 0.346493 -0.104931
v 0.0573557 0.349427 -0.0802584
v 0.062143 0.350206 -0.0895548
v 0.0752765 0.350382 -0.118016
v 0.0729594 0.354069 -0.163551
v 0.0743552 0.352706 -0.140751
v 0.0639541 0.35625 -0.16733
v 0.0603984 0.357086 -0.157837
v 0.0474561 0.359139 -0.152262
v 0.0574968 0.356381 -0.125467
v 0.0533448 0.356671 -0.115988
v 0.0343985 0.3606 -0.146792
v 0.0434841 0.359591 -0.142776
v 0.0124711 0.361672 -0.122626
v 0.0215901 0.360986 -0.118575
v 0.0307093 0.359991 -0.11454
v 0.0444668 0.356297 -0.0972247
v 0.0486954 0.352915 -0.0840471
v 0.0307112 0.35773 -0.0919228
v 0.00712017 0.356509 -0.0685546
v 0.0170547 0.360613 -0.109256
v -0.00170471 0.360027 -0.095097
v -0.0108998 0.360434 -0.0994425
v -0.0103443 0.361786 -0.121913
v -0.00125234 0.361666 -0.117636
v -0.0236239 0.361937 -0.139724
v -0.014736 0.362139 -0.135252
v -0.0242004 0.361371 -0.117309
v -0.0291007 0.360569 -0.108521
v -0.046955 0.35951 -0.118033
v -0.0372103 0.3611 -0.135522
v -0.0325027 0.361542 -0.144371
v -0.0323736 0.361477 -0.166697
v -0.0412383 0.360745 -0.171246
v -0.0723164 0.35647 -0.154621
v -0.063568 0.358109 -0.149764
v -0.0764719 0.355732 -0.167816
v -0.0721265 0.355661 -0.198139
v -0.0500336 0.359748 -0.175775
v -0.0370131 0.360871 -0.180146
v -0.0634193 0.357305 -0.193687
v -0.0594055 0.357391 -0.202565
f 92 79 2 1
f 79 140 3 2
f 140 81 4 3
f 81 272 5 4
f 276 7 6 5
f 272 275 276 5
f 276 15 10 7
f 10 12 9 8
f 12 204 174 9
f 15 11 12 10
f 203 204 12 11
f 15 14 16 11
f 16 274 203 11
f 273 16 14 13
f 14 275 17 13
f 17 18 20 13
f 20 22 273 13
f 15 276 275 14
f 273 268 274 16
f 275 272 82 17
f 82 73 18 17
f 73 71 271 18
f 271 19 20 18
f 21 22 20 19
f 271 67 269 19
f 269 270 21 19
f 24 25 22 21
f 270 23 24 21
f 25 268 273 22
f 28 26 24 23
f 270 95 64 23
f 64 29 28 23
f 26 27 25 24
f 27 267 268 25
f 266 181 27 26
f 28 265 266 26
f 181 182 267 27
f 29 30 265 28
f 64 63 60 29
f 60 264 30 29
f 32 33 265 30
f 264 31 32 30
f 263 262 32 31
f 264 61 100 31
f 100 44 263 31
f 262 34 33 32
f 34 261 260 33
f 260 266 265 33
f 258 201 261 34
f 262 35 258 34
f 36 259 258 35
f 262 263 47 35
f 47 257 36 35
f 37 38 259 36
f 257 256 37 36
f 39 255 38 37
f 256 41 39 37
f 255 249 248 38
f 248 200 259 38
f 110 112 255 39
f 41 103 110 39
f 102 103 41 40
f 41 256 42 40
f 42 101 43 40
f 43 254 102 40
f 256 257 48 42
f 48 45 101 42
f 46 47 263 44
f 100 99 49 44
f 49 50 46 44
f 48 46 50 45
f 50 51 52 45
f 52 53 101 45
f 48 257 47 46
f 99 55 56 49
f 56 51 50 49
f 56 98 57 51
f 57 54 52 51
f 99 58 87 55
f 87 88 91 55
f 91 98 56 55
f 99 100 61 58
f 61 59 97 58
f 97 86 87 58
f 61 264 60 59
f 60 63 96 59
f 96 85 97 59
f 63 64 95 62
f 95 94 66 62
f 66 84 65 62
f 65 96 63 62
f 93 85 96 65
f 271 71 68 67
f 69 94 269 67
f 71 73 72 70
f 72 75 83 70
f 73 82 80 72
f 80 77 75 72
f 75 77 76 74
f 77 140 79 76
f 79 92 78 76
f 80 81 140 77
f 82 272 81 80
f 90 98 91 89
f 95 270 269 94
f 105 104 103 102
f 104 253 110 103
f 108 109 253 104
f 105 106 108 104
f 252 109 108 107
f 252 129 251 109
f 251 111 253 109
f 253 111 112 110
f 251 130 117 111
f 117 250 112 111
f 250 249 255 112
f 116 115 114 113
f 114 193 194 113
f 194 248 249 113
f 249 250 116 113
f 115 247 246 114
f 246 195 193 114
f 119 120 247 115
f 116 118 119 115
f 250 117 118 116
f 130 245 118 117
f 245 244 119 118
f 244 124 120 119
f 124 122 121 120
f 121 243 247 120
f 122 123 242 121
f 242 218 243 121
f 240 228 123 122
f 124 125 240 122
f 228 227 239 123
f 239 241 242 123
f 244 126 125 124
f 135 136 240 125
f 126 238 135 125
f 244 245 127 126
f 127 132 238 126
f 245 130 128 127
f 128 131 132 127
f 130 251 129 128
f 129 237 131 128
f 252 236 237 129
f 235 133 238 132
f 134 135 238 133
f 147 145 234 134
f 234 136 135 134
f 234 138 229 136
f 229 228 240 136
f 231 232 230 137
f 230 226 225 137
f 225 229 138 137
f 138 146 231 137
f 234 145 146 138
f 150 148 233 139
f 231 146 142 141
f 146 145 143 142
f 145 147 144 143
f 150 149 152 148
f 152 226 230 148
f 230 232 233 148
f 153 151 152 149
f 153 156 155 151
f 155 223 224 151
f 224 226 152 151
f 157 155 156 154
f 157 222 223 155
f 159 220 222 157
f 220 159 221 158
f 221 216 214 158
f 214 160 217 158
f 217 219 220 158
f 214 165 163 160
f 163 212 213 160
f 213 198 217 160
f 163 165 164 161
f 164 162 209 161
f 209 208 211 161
f 211 212 163 161
f 170 169 209 162
f 214 216 215 165
f 174 176 167 166
f 176 172 168 167
f 172 169 170 168
f 172 171 173 169
f 173 208 209 169
f 172 176 175 171
f 175 205 179 171
f 179 177 173 171
f 177 207 208 173
f 204 175 176 174
f 204 203 205 175
f 179 178 180 177
f 180 206 207 177
f 179 205 202 178
f 202 267 182 178
f 182 183 180 178
f 183 187 206 180
f 184 183 182 181
f 266 260 184 181
f 184 185 187 183
f 260 261 185 184
f 186 189 187 185
f 261 201 186 185
f 188 191 189 186
f 201 200 188 186
f 189 190 206 187
f 194 193 191 188
f 200 248 194 188
f 191 192 190 189
f 192 199 210 190
f 210 207 206 190
f 193 195 192 191
f 195 196 199 192
f 246 197 196 195
f 197 198 213 196
f 213 212 199 196
f 243 218 198 197
f 246 247 243 197
f 218 219 217 198
f 212 211 210 199
f 201 258 259 200
f 205 203 274 202
f 274 268 267 202
f 210 211 208 207
f 242 241 219 218
f 241 222 220 219
f 241 239 223 222
f 239 227 224 223
f 227 225 226 224
f 227 228 229 225
