# https://github.com/mikedh/trimesh
v -0.06344950 -0.10728100 0.21434500
v -0.06039500 -0.11516900 0.23045699
v -0.05153500 -0.13549100 0.27939901
v -0.05334500 -0.13586700 0.27513200
v -0.04485362 -0.14478413 0.29262038
v -0.02050556 -0.15453594 0.30872462
v -0.04295350 -0.13604525 0.29065551
v -0.06081800 -0.09706300 0.22625500
v -0.05455550 -0.08739900 0.22723250
v -0.05011000 -0.09582000 0.23548800
v -0.04811150 -0.06579650 0.21541500
v -0.04187100 -0.05877600 0.21528700
v -0.03938950 -0.04939650 0.19808025
v -0.03521200 -0.05964875 0.20915581
v -0.02993895 -0.03325672 0.19181728
v -0.02720800 -0.03953350 0.20056200
v -0.04209375 -0.03660000 0.18880750
v -0.03834800 -0.03542600 0.19267499
v -0.06192450 -0.15596651 0.23929000
v -0.05093675 -0.16979751 0.24212625
v -0.01877485 -0.06145773 0.22315717
v -0.01197542 -0.09341781 0.24924665
v -0.02203750 -0.05581650 0.21910500
v -0.01513400 -0.08184000 0.24108300
v -0.01635550 -0.07446300 0.23479901
v -0.02619800 -0.04474600 0.20760900
v -0.02527600 -0.04740000 0.21051501
v -0.02428000 -0.05065600 0.21402401
v -0.02872550 -0.08493100 0.23197999
v -0.03610322 -0.07150215 0.22645474
v -0.03382981 -0.06609480 0.21611755
v -0.02740400 -0.09114900 0.23753638
v -0.02993213 -0.09778654 0.24761280
v -0.03115237 -0.07563813 0.22443412
v -0.02541904 -0.09836099 0.24656353
v -0.03211775 -0.06992975 0.21915901
v -0.03357400 -0.08943800 0.24164499
v 0.01385788 -0.15881752 0.30148628
v 0.00740957 -0.16040069 0.30491612
v 0.00709398 -0.15609586 0.30568695
v 0.01725480 -0.15296225 0.29940990
v 0.01223986 -0.15197824 0.30273950
v -0.00410394 -0.15763371 0.31068069
v 0.02225793 -0.15102179 0.29515700
v 0.01036123 -0.14993246 0.30411950
v 0.02271307 -0.14568012 0.29381239
v -0.00048608 -0.15084682 0.30910377
v 0.00916985 -0.13842822 0.30139927
v 0.01461174 -0.13976735 0.29835951
v 0.02211510 -0.13720442 0.29181593
v 0.02732500 -0.14666800 0.28928900
v 0.02680254 -0.15393544 0.29099284
v -0.00231044 -0.14851421 0.30950624
v -0.00059407 -0.14029606 0.30679332
v 0.01241875 -0.12861598 0.29344304
v 0.03002970 -0.15360589 0.28669438
v -0.00510472 -0.13620823 0.30616488
v 0.00633135 -0.12953634 0.29772205
v -0.00748660 -0.14571858 0.31012264
v 0.02858780 -0.13437115 0.28209350
v 0.02599261 -0.13500017 0.28642315
v -0.00039963 -0.13148052 0.30199063
v 0.01968714 -0.16259815 0.29645126
v 0.03187777 -0.14853059 0.28345809
v -0.00539079 -0.15331404 0.31083529
v -0.00643703 -0.13056667 0.30322564
v 0.01713945 -0.12579844 0.28722308
v 0.00478378 -0.16234844 0.30590915
v 0.03330800 -0.13882700 0.27607101
v 0.03393137 -0.14407884 0.27816228
v -0.01155609 -0.14122030 0.30922754
v -0.01210575 -0.15365841 0.31145183
v 0.02496250 -0.12808800 0.28034350
v 0.02884683 -0.15753992 0.28875816
v 0.03462700 -0.14846350 0.27729400
v 0.02640821 -0.16355105 0.28981569
v 0.03319500 -0.15896299 0.28113499
v 0.00852784 -0.12427186 0.29172780
v 0.02473124 -0.16546589 0.29075231
v 0.01887989 -0.12592036 0.28514376
v 0.02959300 -0.16773900 0.28314099
v -0.01298811 -0.14822170 0.31073099
v -0.00135187 -0.16474475 0.30653337
v 0.01098500 -0.16574501 0.30055499
v 0.00812000 -0.16585700 0.30201399
v -0.01532919 -0.14497288 0.30964934
v 0.01890600 -0.16672800 0.29459500
v 0.01415900 -0.16612600 0.29835200
v 0.02491600 -0.16765900 0.28860301
v -0.01373876 -0.15720897 0.31104513
v -0.01099425 -0.16185025 0.30979274
v -0.02185800 -0.15112600 0.30883101
v -0.01979700 -0.15993901 0.30895701
v -0.00936245 -0.11966608 0.29139908
v -0.02157720 -0.12004821 0.28967573
v -0.01400965 -0.12139881 0.29388923
v -0.02412227 -0.12386322 0.29442334
v -0.01402885 -0.13059179 0.30406756
v -0.02003884 -0.12726253 0.29959985
v -0.02504898 -0.12011452 0.28723502
v -0.02057406 -0.11844739 0.28646757
v -0.02705287 -0.11931125 0.28153912
v -0.03406100 -0.12161200 0.28224099
v -0.03770300 -0.12255300 0.27986401
v -0.04215950 -0.12531700 0.28047151
v -0.03693806 -0.12338202 0.28426324
v -0.01193600 -0.11686250 0.28149451
v -0.00601422 -0.11755392 0.28594840
v -0.00429721 -0.11841292 0.28790382
v -0.00665331 -0.12214277 0.29538081
v -0.00843669 -0.12698075 0.30058395
v -0.04184702 -0.13129144 0.28920000
v -0.03423806 -0.12886157 0.29359462
v 0.00067896 -0.12579889 0.29743328
v 0.00915554 -0.12119570 0.28612635
v 0.00335950 -0.11866075 0.28204500
v 0.00506100 -0.12188200 0.28975499
v 0.01491400 -0.12306250 0.28390150
v -0.03962943 -0.12707473 0.28710533
v -0.04596500 -0.12906050 0.28165351
v -0.02165526 -0.13086780 0.30202345
v -0.02393643 -0.14160361 0.30603481
v -0.01847949 -0.13702771 0.30602563
v -0.03129884 -0.13613842 0.30001159
v -0.01868224 -0.14712499 0.30950062
v -0.02908900 -0.15066500 0.30532399
v -0.02399100 -0.14974301 0.30778599
v -0.06325927 -0.14588074 0.23798340
v -0.06307300 -0.12515250 0.22724399
v -0.05214600 -0.13384999 0.25615799
v -0.04961750 -0.12908901 0.27044851
v -0.05183425 -0.13163451 0.26696776
v -0.04672252 -0.12702700 0.25750101
v -0.04903389 -0.12908962 0.26028308
v -0.04018298 -0.12247356 0.26059213
v -0.04418890 -0.12527976 0.26062577
v -0.03687333 -0.12140056 0.26394159
v -0.04275077 -0.12390035 0.27414187
v -0.03575466 -0.12122362 0.27694474
v -0.02736908 -0.11831429 0.26778331
v -0.02714360 -0.11763714 0.26486913
v -0.03161128 -0.11922265 0.27119737
v -0.01822570 -0.11674427 0.26953516
v -0.01986644 -0.11707307 0.27876911
v -0.01711550 -0.11590200 0.26693326
v -0.04757689 -0.12726577 0.27438171
v -0.04508250 -0.12659424 0.27832250
v -0.04810200 -0.12876200 0.27703700
v -0.04097000 -0.08856050 0.23677601
v -0.04268500 -0.08341100 0.23168050
v -0.04392628 -0.07632652 0.22637747
v -0.04603664 -0.06575519 0.21782850
v -0.03874821 -0.10368307 0.24856305
v -0.04537011 -0.10956976 0.24787268
v -0.04793205 -0.11863774 0.25047515
v -0.04411541 -0.12109559 0.25481479
v -0.03377849 -0.11696620 0.25931074
v -0.03235071 -0.10115887 0.25073898
v -0.05033324 -0.10469524 0.24153721
v -0.05015800 -0.12682700 0.25229099
v -0.03617922 -0.10066241 0.24880456
v -0.05936500 -0.09896700 0.22893400
v -0.05429600 -0.11706600 0.24391700
v -0.05660650 -0.10954550 0.23746224
v -0.05335700 -0.12156300 0.24671550
v -0.02312777 -0.09942304 0.25286632
v -0.02963614 -0.05132162 0.21285758
v -0.03230195 -0.05952414 0.21412243
v -0.03321005 -0.04657124 0.20623465
v -0.02214304 -0.07661647 0.23584993
v -0.01888455 -0.09727725 0.25247587
v -0.02069144 -0.09488557 0.25005256
v -0.02229694 -0.09145765 0.24569956
v -0.02300189 -0.09781699 0.25066343
v -0.02031300 -0.11232900 0.26152599
v -0.03481113 -0.04353825 0.20252135
v -0.02078918 -0.06487607 0.22748785
v -0.02429197 -0.11485152 0.26222238
v -0.03067486 -0.05925254 0.21670271
v -0.03234771 -0.03891219 0.20086732
v -0.02649493 -0.05917518 0.22113274
v -0.06032339 -0.10526663 0.23036849
v -0.05741600 -0.14212500 0.24641100
v -0.05806742 -0.14834304 0.24498660
v -0.05689300 -0.15458700 0.24626100
v -0.05590877 -0.15713609 0.24865041
v -0.05783829 -0.12689794 0.24273792
v -0.05823448 -0.12077778 0.24053458
v -0.05321366 -0.12976627 0.24999904
v -0.05419045 -0.13437143 0.25047121
v -0.05013746 -0.13225419 0.27888981
v -0.05685063 -0.14122948 0.26617835
v -0.05513186 -0.14170698 0.27652174
v -0.05735690 -0.14565899 0.27172629
v -0.05591049 -0.14743548 0.27758620
v -0.05377291 -0.13731067 0.25524647
v -0.05506208 -0.14070361 0.25315745
v -0.05779919 -0.14635541 0.26364339
v -0.05652285 -0.15045076 0.25169087
v -0.05616950 -0.15887586 0.25127338
v -0.05875004 -0.15560740 0.26857464
v -0.05800168 -0.16215027 0.26261266
v -0.05782800 -0.15873200 0.27142900
v -0.05740340 -0.16649877 0.26584879
v -0.05598463 -0.16123910 0.24350489
v -0.05489858 -0.17280914 0.26148785
v -0.05730178 -0.16565666 0.27016409
v -0.05302196 -0.16649058 0.24727754
v -0.05645461 -0.15799023 0.27738398
v -0.05529646 -0.17225942 0.26699610
v -0.05375498 -0.16145547 0.28230803
v -0.05243711 -0.16033426 0.28466153
v -0.05263464 -0.14511521 0.28368847
v -0.05574193 -0.16894628 0.27412061
v -0.05069661 -0.14978241 0.28745242
v -0.05028509 -0.16131341 0.28750922
v -0.04456683 -0.15131323 0.29450030
v -0.04916748 -0.15520585 0.28980775
v -0.05155359 -0.16875218 0.28186081
v -0.04610422 -0.16238564 0.29221613
v -0.03892775 -0.16498262 0.29637149
v -0.05032678 -0.17109594 0.24746551
v -0.04038129 -0.15945219 0.29779998
v -0.03692611 -0.15568147 0.30087112
v -0.03999552 -0.16249228 0.29733778
v -0.03397949 -0.16312816 0.30112858
v -0.02513250 -0.15960378 0.30709869
v -0.02628072 -0.15470063 0.30718068
v -0.02594800 -0.16217300 0.30573100
v -0.04920075 -0.17366799 0.24960300
f 188 2 129
f 188 129 128
f 188 128 187
f 188 187 190
f 189 188 190
f 160 189 190
f 133 160 190
f 133 190 197
f 190 184 197
f 199 197 184
f 197 199 198
f 201 198 199
f 199 200 201
f 201 200 202
f 207 201 202
f 202 204 207
f 207 204 214
f 209 207 214
f 211 209 214
f 216 211 214
f 216 214 220
f 218 216 220
f 217 218 220
f 224 217 220
f 224 220 223
f 224 223 225
f 224 225 226
f 226 225 221
f 226 221 229
f 225 220 221
f 220 219 221
f 227 224 226
f 227 226 229
f 93 227 229
f 6 227 93
f 6 228 227
f 92 228 6
f 127 228 92
f 127 126 228
f 228 126 224
f 126 5 224
f 228 224 227
f 223 220 225
f 5 217 224
f 5 213 217
f 213 215 217
f 213 209 215
f 213 195 209
f 213 193 195
f 3 193 213
f 3 4 193
f 4 194 193
f 4 192 194
f 192 198 194
f 4 132 192
f 132 196 192
f 192 196 197
f 130 197 196
f 130 196 132
f 148 132 4
f 148 131 132
f 191 148 4
f 191 4 3
f 193 194 195
f 194 201 195
f 195 201 209
f 209 201 203
f 3 213 5
f 217 215 218
f 218 215 211
f 218 211 212
f 218 212 216
f 220 214 219
f 216 212 211
f 215 209 211
f 203 207 209
f 204 206 214
f 214 206 210
f 202 206 204
f 203 201 207
f 202 200 206
f 200 208 206
f 206 208 222
f 208 20 222
f 222 20 230
f 208 205 20
f 205 19 20
f 184 19 205
f 184 128 19
f 183 128 184
f 190 183 184
f 190 128 183
f 206 222 230
f 200 205 208
f 199 186 200
f 186 205 200
f 185 205 186
f 184 205 185
f 186 184 185
f 194 198 201
f 192 197 198
f 199 184 186
f 133 156 160
f 156 155 160
f 155 165 160
f 155 159 165
f 159 162 165
f 159 9 162
f 9 159 10
f 154 155 156
f 153 154 156
f 158 153 156
f 156 157 158
f 178 158 157
f 166 158 178
f 178 171 166
f 22 171 178
f 22 178 175
f 175 178 145
f 145 178 141
f 143 145 141
f 140 143 141
f 143 140 142
f 144 143 142
f 144 142 102
f 107 144 102
f 107 145 144
f 101 107 102
f 108 107 101
f 116 107 108
f 116 108 115
f 118 116 115
f 115 108 109
f 109 110 115
f 110 117 115
f 78 115 117
f 67 115 78
f 80 115 67
f 80 73 115
f 73 80 67
f 67 60 73
f 60 67 61
f 61 67 50
f 50 67 55
f 55 48 50
f 55 58 48
f 55 78 58
f 58 78 114
f 114 78 110
f 114 110 66
f 62 114 66
f 62 66 57
f 98 57 66
f 111 98 66
f 111 110 98
f 110 97 98
f 96 97 110
f 94 96 110
f 94 95 96
f 94 101 95
f 95 101 100
f 100 101 106
f 101 103 106
f 103 105 106
f 106 105 119
f 106 119 113
f 113 119 112
f 119 120 112
f 120 3 112
f 112 3 7
f 112 7 124
f 124 7 122
f 122 121 124
f 113 124 121
f 121 97 113
f 99 97 121
f 121 98 99
f 98 121 71
f 121 123 71
f 71 123 125
f 123 122 125
f 125 122 6
f 125 6 72
f 82 125 72
f 82 86 125
f 71 86 82
f 71 82 72
f 59 71 72
f 59 72 65
f 65 72 43
f 72 90 43
f 43 90 91
f 43 91 83
f 43 83 68
f 68 83 85
f 68 85 84
f 68 84 88
f 79 68 88
f 79 88 87
f 79 87 89
f 79 89 81
f 76 79 81
f 74 76 81
f 74 81 77
f 74 77 75
f 64 74 75
f 70 64 75
f 69 70 75
f 60 64 70
f 69 60 70
f 56 74 64
f 56 52 74
f 44 74 52
f 44 41 74
f 74 41 63
f 41 38 63
f 38 68 63
f 39 68 38
f 38 43 39
f 40 43 38
f 42 43 40
f 42 45 43
f 45 47 43
f 45 54 47
f 54 53 47
f 54 59 53
f 54 98 59
f 48 54 45
f 49 48 45
f 45 50 49
f 50 45 46
f 50 46 52
f 50 52 51
f 51 52 64
f 51 64 50
f 46 45 44
f 47 53 43
f 42 41 45
f 42 40 38
f 41 42 38
f 45 41 44
f 52 46 44
f 52 56 64
f 63 76 74
f 76 63 79
f 63 68 79
f 68 39 43
f 53 65 43
f 53 59 65
f 59 98 71
f 72 6 90
f 71 125 86
f 123 121 122
f 6 122 7
f 124 113 112
f 97 106 113
f 95 106 97
f 119 105 120
f 95 100 106
f 94 109 101
f 96 95 97
f 98 97 99
f 62 57 54
f 110 111 66
f 114 54 58
f 58 54 48
f 50 48 49
f 50 64 61
f 60 61 64
f 55 67 78
f 78 117 110
f 109 94 110
f 109 108 101
f 101 102 103
f 102 142 139
f 139 142 138
f 138 142 137
f 138 137 136
f 138 136 134
f 138 134 146
f 147 138 146
f 104 138 147
f 138 104 102
f 146 134 131
f 134 130 131
f 134 133 130
f 134 136 133
f 136 135 133
f 157 133 135
f 157 135 141
f 137 135 136
f 141 135 137
f 140 137 142
f 140 141 137
f 24 171 22
f 172 171 24
f 177 172 24
f 177 170 172
f 177 181 170
f 21 181 177
f 21 23 181
f 23 28 181
f 167 181 28
f 167 179 181
f 179 36 181
f 181 36 34
f 181 34 29
f 181 29 32
f 181 32 173
f 173 32 35
f 173 35 172
f 170 173 172
f 174 172 35
f 172 174 166
f 179 31 36
f 179 168 31
f 168 14 31
f 13 14 168
f 169 13 168
f 176 13 169
f 169 180 176
f 180 18 176
f 18 13 176
f 18 17 13
f 167 168 179
f 167 180 168
f 28 180 167
f 28 26 180
f 16 180 26
f 16 15 180
f 15 18 180
f 27 26 28
f 25 21 177
f 170 181 173
f 25 177 24
f 171 172 166
f 174 158 166
f 174 33 158
f 37 158 33
f 37 161 158
f 37 150 161
f 150 149 161
f 30 150 37
f 30 152 150
f 12 152 30
f 152 12 11
f 152 11 151
f 178 157 141
f 161 153 158
f 157 156 133
f 160 188 189
f 163 188 160
f 163 164 188
f 164 182 188
f 164 8 182
f 190 187 128
f 2 1 129

