# https://github.com/mikedh/trimesh
v -0.10076974 -0.07832812 0.17878846
v -0.10827647 -0.07775358 0.16555700
v -0.09833499 -0.08144444 0.18613339
v -0.10392890 -0.08311963 0.18229605
v -0.10839113 -0.09334580 0.18820921
v -0.11323837 -0.08164991 0.16877137
v -0.11848061 -0.09262656 0.17461490
v -0.09530926 -0.08813837 0.19594691
v -0.11065174 -0.10347230 0.19580013
v -0.09172149 -0.08380878 0.19457394
v -0.10592506 -0.10554601 0.20176787
v -0.08424682 -0.09114409 0.20760203
v -0.10087894 -0.10899551 0.20844626
v -0.08340617 -0.10347554 0.21766443
v -0.09497215 -0.11611017 0.21668274
v -0.11800957 -0.10701342 0.18968104
v -0.12020187 -0.09224067 0.17172978
v -0.11635602 -0.10619036 0.19175811
v -0.10072400 -0.11217250 0.20970450
v -0.07645900 -0.11745050 0.22903400
v -0.11791193 -0.08573264 0.16606994
v -0.09255700 -0.12031100 0.21995100
v -0.08016400 -0.12710300 0.23151401
v -0.11931376 -0.11040984 0.18980352
v -0.12088325 -0.10566475 0.18435200
v -0.12298200 -0.08984900 0.16228400
v -0.12579600 -0.10180600 0.17155450
v -0.12570000 -0.09547000 0.16448000
v -0.12254000 -0.08783300 0.15921000
v -0.10538400 -0.11032850 0.20397800
v -0.11587956 -0.08277742 0.16477003
v -0.11793000 -0.08245477 0.15740925
v -0.08706288 -0.08442848 0.19753183
v -0.12075675 -0.08452550 0.15272350
v -0.09034199 -0.08051745 0.18972339
v -0.08223051 -0.09404982 0.21122205
v -0.07802543 -0.11107295 0.22551701
v -0.07995536 -0.09770613 0.21503112
v -0.07900261 -0.10222419 0.21902921
v -0.07543701 -0.10520932 0.22035040
v -0.08153761 -0.08954114 0.20557715
v -0.08089798 -0.08511931 0.19652671
v -0.07631541 -0.09538745 0.21063484
v -0.07282262 -0.09443785 0.20557652
v -0.06564800 -0.10989200 0.21602900
v -0.06616550 -0.10633850 0.21295150
v -0.06941725 -0.11071370 0.22017249
v -0.06686500 -0.10112900 0.20754650
v -0.06866262 -0.09756700 0.20424316
v -0.06761000 -0.09612400 0.20106401
v -0.07236600 -0.08580500 0.18499400
v -0.11590797 -0.08852072 0.11361190
v -0.12157800 -0.09633825 0.10119950
v -0.11217700 -0.08418400 0.11903150
v -0.11824437 -0.08276808 0.14266441
v -0.11776300 -0.08894900 0.11823400
v -0.11911500 -0.08725450 0.12775950
v -0.12003350 -0.08449025 0.14659925
v -0.11223637 -0.08018186 0.13956275
v -0.11186543 -0.08243129 0.12695332
v -0.10731050 -0.08034250 0.12708050
v -0.11297500 -0.07916000 0.15404899
v -0.11685498 -0.08092358 0.15385786
v -0.10103250 -0.07695700 0.13602650
v -0.11144367 -0.07850808 0.15109114
v -0.10617900 -0.07675300 0.15698700
v -0.09871400 -0.07647050 0.13971600
v -0.10011038 -0.07582109 0.16481175
v -0.08507735 -0.07703928 0.16149979
v -0.10036136 -0.07657435 0.17149834
v -0.09534214 -0.07598398 0.16852906
v -0.09557925 -0.07552658 0.16161027
v -0.09207998 -0.07704339 0.17788775
v -0.09566813 -0.07884866 0.18440657
v -0.07595300 -0.08154000 0.17668299
v -0.08882484 -0.07874792 0.18371845
v -0.08420847 -0.07856690 0.17459348
v -0.06869750 -0.09115700 0.19418151
v -0.08555081 -0.08226630 0.19367348
v -0.13522901 -0.12104900 0.13465001
v -0.13820693 -0.15823375 0.13137110
v -0.13842051 -0.16687175 0.11170975
v -0.13476000 -0.16887049 0.12518650
v -0.13339359 -0.13919897 0.14264488
v -0.14209601 -0.13869899 0.09031350
v -0.14148950 -0.13661175 0.09887325
v -0.13502721 -0.12813583 0.14685728
v -0.13532700 -0.14644501 0.13733600
v -0.13986322 -0.13011150 0.08452532
v -0.13726200 -0.12349600 0.09156900
v -0.14827600 -0.14349850 0.05652100
v -0.14539972 -0.13918319 0.06033488
v -0.13956974 -0.12688601 0.10034972
v -0.14658201 -0.14951250 0.07271900
v -0.14546890 -0.14543929 0.07241067
v -0.14804675 -0.13007250 0.04547475
v -0.13365219 -0.11633450 0.06991456
v -0.13797000 -0.12146200 0.06040100
v -0.13015125 -0.11125125 0.07945925
v -0.12804827 -0.10664593 0.08615912
v -0.12384200 -0.09994100 0.09616000
v -0.12593362 -0.10414313 0.09137687
v -0.13259301 -0.11534100 0.07246175
v -0.13368875 -0.11538250 0.16298875
v -0.12722651 -0.14886551 0.17186675
v -0.12947301 -0.10269400 0.16422101
v -0.13400200 -0.13481125 0.15958050
v -0.15079050 -0.16184975 0.05168625
v -0.14323050 -0.15919725 0.10203550
v -0.14438975 -0.15541688 0.09691012
v -0.14247498 -0.14906198 0.11049088
v -0.14237000 -0.16204600 0.10329300
v -0.14475681 -0.16406817 0.08714728
v -0.14351675 -0.16633450 0.08638800
v -0.14695799 -0.16172799 0.07568100
v -0.14263425 -0.16347100 0.09922300
v -0.13818300 -0.16392300 0.12161900
v -0.13591700 -0.16404499 0.12962900
v -0.14589262 -0.16066512 0.08443663
v -0.14167975 -0.14558225 0.11316450
v -0.14471385 -0.15247043 0.09273172
v -0.14289699 -0.14529499 0.10063200
v -0.14153665 -0.14001990 0.11111111
v -0.13757349 -0.12260750 0.11209900
v -0.12952576 -0.10606450 0.10819000
v -0.12715900 -0.09395800 0.13420300
v -0.12831243 -0.09420528 0.13992559
v -0.13313200 -0.10456600 0.15358800
v -0.13441101 -0.10923600 0.15162800
v -0.13520866 -0.11303156 0.15587056
v -0.13571830 -0.12019043 0.15594058
v -0.12804718 -0.09769880 0.16192420
v -0.12296539 -0.08675301 0.15435850
v -0.12659299 -0.09088200 0.15105200
v -0.12871985 -0.09580662 0.15772149
v -0.13101787 -0.14352102 0.16319083
v -0.12651550 -0.14868100 0.15624249
v -0.12981403 -0.14214916 0.15051372
v -0.12673700 -0.15037625 0.16571425
v -0.13317100 -0.13465575 0.15328575
v -0.13550852 -0.11844261 0.15297371
v -0.13388287 -0.11065108 0.13084354
v -0.13461900 -0.11439100 0.12696600
v -0.13335299 -0.10587400 0.14168800
v -0.13757200 -0.12491301 0.12110350
v -0.13276300 -0.10567900 0.13281800
v -0.13132949 -0.10615150 0.11842600
v -0.13251400 -0.10302975 0.14256550
v -0.13152641 -0.09997183 0.14204771
v -0.13009262 -0.09958331 0.13102415
v -0.13496900 -0.11701300 0.15911999
v -0.12299100 -0.08706400 0.14300101
v -0.13031700 -0.16646076 0.14064899
v -0.13436728 -0.16739644 0.13064319
v -0.13462858 -0.16002769 0.13581235
v -0.12680601 -0.15240800 0.15095399
v -0.14215000 -0.14200550 0.10292200
v -0.14358896 -0.14565816 0.07972189
v -0.14111701 -0.13418400 0.06922800
v -0.13169174 -0.11548951 0.07618599
v -0.14121749 -0.13255385 0.06584243
v -0.13983700 -0.13045000 0.06831500
v -0.14218662 -0.12828918 0.05677511
v -0.14815306 -0.13325774 0.04777737
v -0.14672500 -0.13662200 0.05399400
v -0.13799225 -0.12721825 0.07142800
v -0.13727001 -0.12402200 0.06663100
v -0.14619300 -0.13404900 0.05291500
v -0.14039943 -0.13502701 0.07821079
v -0.14775215 -0.15876474 0.07254518
v -0.14937900 -0.13761550 0.04870800
v -0.13144053 -0.14171974 0.14476246
f 21 29 17
f 31 29 21
f 32 29 31
f 6 32 31
f 63 32 6
f 32 63 58
f 55 58 63
f 62 55 63
f 2 62 63
f 2 65 62
f 66 65 2
f 66 67 65
f 68 67 66
f 72 67 68
f 71 72 68
f 73 72 71
f 69 72 73
f 73 75 69
f 73 71 68
f 73 68 70
f 73 70 1
f 74 73 1
f 35 73 74
f 10 35 74
f 10 74 3
f 74 6 3
f 74 1 6
f 1 2 6
f 3 6 4
f 4 6 5
f 5 6 18
f 18 6 7
f 7 17 18
f 18 17 25
f 18 25 16
f 16 25 24
f 25 27 24
f 18 16 24
f 18 24 30
f 13 18 30
f 13 30 19
f 13 19 15
f 14 13 15
f 14 15 37
f 20 37 15
f 20 15 23
f 15 22 23
f 39 14 37
f 38 14 39
f 36 14 38
f 12 14 36
f 12 13 14
f 12 8 13
f 8 11 13
f 11 8 9
f 9 18 11
f 8 4 9
f 10 8 12
f 33 10 12
f 79 33 12
f 33 79 35
f 76 35 79
f 79 77 76
f 75 77 79
f 42 75 79
f 41 42 79
f 43 42 41
f 43 44 42
f 43 47 44
f 44 47 46
f 46 47 45
f 47 20 45
f 47 40 20
f 37 20 40
f 40 39 37
f 40 38 39
f 40 43 38
f 38 43 36
f 46 48 44
f 49 44 48
f 49 78 44
f 50 78 49
f 78 51 44
f 47 43 40
f 44 51 42
f 43 41 36
f 51 75 42
f 77 73 76
f 36 79 12
f 11 18 13
f 17 27 25
f 6 17 7
f 18 9 5
f 4 5 9
f 8 3 4
f 3 8 10
f 33 35 10
f 76 73 35
f 1 70 2
f 70 68 2
f 72 69 67
f 67 64 65
f 65 64 59
f 65 59 55
f 55 59 60
f 60 54 55
f 61 54 60
f 64 61 60
f 54 52 55
f 55 52 57
f 54 53 52
f 56 52 53
f 56 53 57
f 152 57 53
f 152 53 127
f 152 127 134
f 134 127 128
f 135 134 128
f 133 134 135
f 29 133 135
f 26 29 135
f 26 135 28
f 28 135 132
f 132 135 106
f 135 130 106
f 106 130 104
f 130 151 104
f 130 131 151
f 151 131 107
f 107 131 87
f 141 87 131
f 107 87 140
f 107 140 136
f 140 138 136
f 136 138 137
f 139 136 137
f 105 136 139
f 105 107 136
f 140 87 138
f 138 87 172
f 172 155 138
f 172 81 155
f 172 88 81
f 84 88 172
f 155 81 118
f 155 118 154
f 155 154 153
f 156 155 153
f 118 83 154
f 118 117 83
f 117 82 83
f 82 117 113
f 116 113 117
f 112 116 117
f 117 109 112
f 81 109 117
f 109 116 112
f 119 113 116
f 119 115 113
f 119 108 115
f 119 94 108
f 115 108 113
f 113 108 114
f 113 114 82
f 81 117 118
f 138 155 156
f 172 87 84
f 130 141 131
f 28 132 106
f 29 34 133
f 133 34 134
f 135 128 130
f 128 148 130
f 149 148 128
f 149 150 148
f 127 150 149
f 127 126 150
f 126 125 150
f 150 125 147
f 150 147 142
f 150 142 146
f 146 142 144
f 144 142 129
f 129 142 130
f 130 142 80
f 142 145 80
f 143 145 142
f 130 80 87
f 142 147 143
f 53 125 126
f 53 101 125
f 101 102 125
f 125 102 90
f 90 93 125
f 125 93 124
f 124 93 86
f 124 86 145
f 86 123 145
f 145 123 80
f 80 123 81
f 123 120 81
f 120 123 111
f 123 121 111
f 123 122 121
f 123 157 122
f 89 121 122
f 89 158 121
f 158 94 121
f 158 95 94
f 169 95 158
f 169 159 95
f 89 159 169
f 89 166 159
f 160 166 89
f 160 162 166
f 166 162 95
f 162 161 95
f 161 92 95
f 161 167 92
f 160 167 161
f 97 167 160
f 103 97 160
f 99 103 160
f 100 99 160
f 100 160 90
f 163 92 167
f 98 163 167
f 98 164 163
f 163 164 168
f 164 171 168
f 164 96 171
f 98 96 164
f 163 168 92
f 92 168 165
f 165 91 92
f 162 160 161
f 90 160 89
f 121 94 170
f 121 170 110
f 110 170 81
f 111 110 81
f 89 169 158
f 121 110 111
f 81 120 111
f 123 86 157
f 86 85 157
f 102 100 90
f 148 150 146
f 128 127 149
f 64 60 59
f 68 66 2
f 62 65 55
f 58 55 57
f 2 63 6
f 32 58 29
f 31 21 6
f 29 27 17
f 6 21 17

