v 0.148786 0.312335 -0.290291
v 0.154311 0.310112 -0.293376
v 0.157752 0.315359 -0.291247
v 0.161188 0.320601 -0.289118
v 0.150987 0.304289 -0.296356
v 0.146956 0.319364 -0.283344
v 0.15063 0.324887 -0.280346
v 0.159866 0.328486 -0.283335
v 0.163871 0.333907 -0.281645
v 0.155852 0.32304 -0.284868
v 0.167879 0.339328 -0.279963
v 0.172042 0.344796 -0.278672
v 0.176205 0.350263 -0.277381
v 0.180368 0.355731 -0.27609
v 0.184531 0.361199 -0.274799
v 0.189401 0.358543 -0.279289
v 0.193513 0.363955 -0.277941
v 0.197682 0.36936 -0.276577
v 0.188748 0.366611 -0.273438
v 0.193053 0.371998 -0.272037
v 0.197358 0.377385 -0.270637
v 0.202047 0.374738 -0.275216
v 0.206498 0.380072 -0.27382
v 0.190427 0.350257 -0.284872
v 0.194452 0.355669 -0.283521
v 0.198477 0.361081 -0.28217
v 0.20872 0.354462 -0.289284
v 0.191548 0.3415 -0.289723
v 0.195557 0.346935 -0.288409
v 0.199566 0.35237 -0.287095
v 0.203575 0.357805 -0.285781
v 0.174375 0.328539 -0.290162
v 0.178384 0.333974 -0.288848
v 0.182394 0.339409 -0.287534
v 0.186403 0.344844 -0.28622
v 0.187578 0.33608 -0.291092
v 0.16646 0.317708 -0.292932
v 0.170369 0.323105 -0.29148
v 0.207802 0.363264 -0.284611
v 0.207145 0.371769 -0.279381
v 0.211518 0.377106 -0.277987
v 0.215891 0.382443 -0.276594
v 0.220311 0.387736 -0.275141
v 0.224804 0.392892 -0.273491
v 0.229295 0.398044 -0.271835
v 0.219885 0.395855 -0.269311
v 0.229861 0.38977 -0.277421
v 0.234361 0.394912 -0.275748
v 0.244123 0.396805 -0.277652
v 0.238898 0.400052 -0.274022
v 0.243358 0.405068 -0.272116
v 0.248602 0.401821 -0.275719
v 0.253031 0.406772 -0.273496
v 0.254042 0.39848 -0.279014
v 0.258487 0.403481 -0.276636
v 0.262933 0.408482 -0.274259
v 0.267202 0.413412 -0.271361
v 0.271343 0.418356 -0.268207
v 0.276989 0.415268 -0.270825
v 0.282811 0.41202 -0.273058
v 0.286743 0.416858 -0.269381
v 0.290411 0.421464 -0.265496
v 0.296419 0.418209 -0.267406
v 0.144164 0.332517 -0.264734
v 0.152321 0.31771 -0.287383
v 0.280838 0.420147 -0.267437
v 0.28443 0.424619 -0.263409
v 0.275067 0.422918 -0.264586
v 0.292603 0.413477 -0.271217
v 0.288725 0.408665 -0.274949
v 0.26059 0.386189 -0.286447
v 0.265211 0.391551 -0.284337
v 0.255996 0.380917 -0.28832
v 0.165103 0.326003 -0.287494
v 0.250459 0.384679 -0.285728
v 0.244984 0.388251 -0.28269
v 0.249537 0.393403 -0.280951
v 0.235059 0.386521 -0.281102
v 0.226139 0.375927 -0.28402
v 0.230561 0.381245 -0.282612
v 0.221718 0.370609 -0.285428
v 0.239585 0.391664 -0.279379
v 0.255046 0.389852 -0.283915
v 0.259622 0.395076 -0.281755
v 0.269793 0.396825 -0.282089
v 0.274288 0.401946 -0.279297
v 0.278749 0.407041 -0.276465
v 0.268581 0.405301 -0.276974
v 0.272911 0.410348 -0.274049
v 0.265611 0.421113 -0.265343
v 0.256497 0.419336 -0.265053
v 0.247775 0.409896 -0.269906
v 0.252118 0.414699 -0.267458
v 0.242714 0.412941 -0.266078
v 0.247095 0.417575 -0.263672
v 0.238291 0.408166 -0.268264
v 0.229006 0.406084 -0.26589
v 0.264169 0.400265 -0.279512
v 0.257383 0.411633 -0.271095
v 0.261698 0.416421 -0.268659
v 0.220955 0.379284 -0.280467
v 0.225376 0.384595 -0.279045
v 0.233791 0.403194 -0.270176
v 0.224431 0.400983 -0.267621
v 0.215295 0.398455 -0.264616
v 0.206222 0.38802 -0.267775
v 0.210738 0.393286 -0.266257
v 0.201729 0.390564 -0.262982
v 0.188541 0.374377 -0.267141
v 0.192872 0.379784 -0.265766
v 0.184224 0.368937 -0.268487
v 0.175762 0.357971 -0.271067
v 0.179964 0.36346 -0.269789
v 0.162993 0.341301 -0.274784
v 0.167266 0.346878 -0.273556
v 0.171539 0.352455 -0.272329
v 0.171447 0.359813 -0.265632
v 0.175747 0.365389 -0.264396
v 0.162921 0.348561 -0.268025
v 0.16718 0.354193 -0.266833
v 0.153791 0.337241 -0.270543
v 0.158459 0.34291 -0.269261
v 0.154284 0.330384 -0.27762
v 0.149782 0.338253 -0.264088
v 0.142228 0.334309 -0.257954
v 0.147153 0.339648 -0.257383
v 0.154553 0.344033 -0.263061
v 0.159295 0.349823 -0.262065
v 0.163554 0.355497 -0.260882
v 0.167813 0.36117 -0.259699
v 0.172072 0.366843 -0.258516
v 0.176331 0.372517 -0.257333
v 0.188898 0.381686 -0.260309
v 0.18438 0.37636 -0.261783
v 0.180042 0.370915 -0.263123
v 0.197259 0.385209 -0.264414
v 0.210908 0.385388 -0.272395
v 0.215393 0.390642 -0.270881
v 0.212153 0.368648 -0.2833
v 0.216535 0.373973 -0.28189
v 0.212937 0.359889 -0.288047
v 0.217314 0.365263 -0.286774
v 0.202769 0.366432 -0.280775
v 0.201747 0.382749 -0.269269
v 0.169126 0.331441 -0.285987
v 0.173175 0.336862 -0.284648
v 0.177224 0.342284 -0.28331
v 0.181273 0.347705 -0.281971
v 0.185322 0.353126 -0.280632
v 0.158701 0.335893 -0.27621
v 0.145171 0.32553 -0.275785
v 0.148919 0.331533 -0.272161
v 0.156641 0.301649 -0.298354
v 0.159585 0.306957 -0.296433
v 0.162749 0.312325 -0.294523
f 65 3 2 1
f 3 155 154 2
f 154 153 5 2
f 65 10 4 3
f 4 37 155 3
f 10 8 74 4
f 74 38 37 4
f 7 10 65 6
f 151 152 123 7
f 123 8 10 7
f 123 150 9 8
f 9 145 74 8
f 150 114 11 9
f 11 146 145 9
f 114 115 12 11
f 12 147 146 11
f 115 116 13 12
f 13 148 147 12
f 116 112 14 13
f 14 149 148 13
f 112 113 15 14
f 15 16 149 14
f 113 111 19 15
f 19 17 16 15
f 17 26 25 16
f 25 24 149 16
f 19 20 18 17
f 18 143 26 17
f 20 21 22 18
f 22 40 143 18
f 111 109 20 19
f 109 110 21 20
f 110 136 144 21
f 144 23 22 21
f 23 41 40 22
f 144 106 137 23
f 137 42 41 23
f 25 30 29 24
f 29 28 35 24
f 35 148 149 24
f 26 31 30 25
f 143 39 31 26
f 31 39 141 27
f 36 34 35 28
f 145 146 33 32
f 38 74 145 32
f 146 147 34 33
f 147 148 35 34
f 143 40 139 39
f 139 142 141 39
f 41 140 139 40
f 42 101 140 41
f 137 138 43 42
f 43 102 101 42
f 138 46 44 43
f 44 47 102 43
f 46 104 45 44
f 45 48 47 44
f 104 97 103 45
f 103 50 48 45
f 138 107 105 46
f 48 82 78 47
f 78 80 102 47
f 50 49 82 48
f 50 51 52 49
f 52 54 77 49
f 77 76 82 49
f 103 96 51 50
f 96 94 92 51
f 92 53 52 51
f 53 55 54 52
f 92 93 99 53
f 99 56 55 53
f 55 98 84 54
f 84 83 77 54
f 56 88 98 55
f 99 100 57 56
f 57 89 88 56
f 100 90 58 57
f 58 59 89 57
f 68 66 59 58
f 66 61 60 59
f 60 87 89 59
f 61 69 70 60
f 66 67 62 61
f 62 63 69 61
f 83 84 72 71
f 73 75 83 71
f 84 98 85 72
f 76 77 83 75
f 101 102 80 79
f 81 140 101 79
f 142 139 140 81
f 98 88 86 85
f 88 89 87 86
f 100 99 93 91
f 94 95 93 92
f 107 138 137 106
f 144 136 108 106
f 134 133 110 109
f 111 135 134 109
f 113 118 135 111
f 117 118 113 112
f 116 120 117 112
f 122 119 115 114
f 150 121 122 114
f 119 120 116 115
f 130 131 118 117
f 120 129 130 117
f 131 132 135 118
f 128 129 120 119
f 122 127 128 119
f 124 127 122 121
f 150 123 152 121
f 152 64 124 121
f 64 125 126 124
