v -0.200192 0.0293772 -0.0242663
v -0.200632 0.0330809 -0.0222382
v -0.201314 0.0308911 -0.018
v -0.201072 0.0367869 -0.020208
v -0.201609 0.0286476 -0.0138115
v -0.201873 0.0327716 -0.0116762
v -0.201892 0.0368858 -0.00971341
v -0.201895 0.0409897 -0.00777139
v -0.201534 0.0451632 -0.00593601
v -0.20068 0.0433104 -0.00159497
v -0.200282 0.0370385 0.000921868
v -0.201307 0.0390303 -0.00339671
v -0.199669 0.0414001 0.00273929
v -0.198572 0.0394899 0.00703946
v -0.198087 0.0285461 0.00726554
v -0.199051 0.0350567 0.00512477
v -0.199846 0.0244457 -0.00549183
v -0.199055 0.0264653 0.000919923
v -0.200268 0.0285949 -0.00323116
v -0.199477 0.0306145 0.00318059
v -0.197875 0.0182395 -0.0039147
v -0.199247 0.0203348 -0.00791764
v -0.200618 0.0224301 -0.0119206
v -0.197157 0.0202433 0.00256512
v -0.198529 0.0223386 -0.00143782
v -0.197811 0.0243423 0.005042
v -0.197277 0.0126521 -0.013091
v -0.197151 0.0141951 -0.00641485
v -0.198392 0.0163922 -0.0104612
v -0.194319 0.0069874 -0.011832
v -0.195819 0.0105532 -0.00910145
v -0.192774 0.00343975 -0.0145584
v -0.193598 0.00578053 -0.0184018
v -0.194422 0.00812131 -0.0222451
v -0.195561 0.00916026 -0.0157139
v -0.196197 0.011593 -0.0196595
v -0.197876 0.0151063 -0.0170816
v -0.196384 0.0141168 -0.0235657
v -0.198054 0.0176351 -0.020987
v -0.197585 0.0201617 -0.0248355
v -0.199561 0.0211634 -0.0183993
v -0.199209 0.0235355 -0.0224386
v -0.192767 0.00482181 -0.00790065
v -0.194251 0.00840595 -0.00517078
v -0.192649 0.00625507 -0.00125924
v -0.193677 0.0101667 0.00136774
v -0.195538 0.0121316 -0.00248538
v -0.194705 0.0140782 0.00399471
v -0.193818 0.0160658 0.0104509
v -0.191106 0.00274473 -0.00410431
v -0.189273 -0.000554719 -0.00706429
v -0.191102 0.00139665 -0.0107741
v -0.188098 0.00161298 -0.000761975
v -0.189525 0.00522927 0.00203958
v -0.190951 0.00884557 0.00484114
v -0.192378 0.0124619 0.0076427
v -0.186708 -0.00202959 -0.00357002
v -0.186718 -0.000902732 0.00306265
v -0.188076 0.00276295 0.0058764
v -0.189441 0.00643444 0.00869423
v -0.179448 -0.00720714 0.00656804
v -0.184481 -0.00277255 0.00650955
v -0.196525 0.0166061 -0.027448
v -0.177011 -0.010052 0.00331593
v -0.179782 -0.00859355 7.93467e-05
v -0.182554 -0.00713508 -0.00315724
v -0.185326 -0.00567662 -0.00639383
v -0.182439 -0.00591324 0.00342423
v -0.185211 -0.00445478 0.000187646
v -0.180844 -0.00364343 0.00928058
v -0.185652 0.000988773 0.00919494
v -0.185598 0.00553644 0.0112326
v -0.185454 0.00995525 0.0125081
v -0.189991 0.0150036 0.0130889
v -0.185313 0.0143669 0.0137768
v -0.189819 0.0194047 0.0143535
v -0.189085 0.0239909 0.0158964
v -0.188317 0.0286087 0.0175438
v -0.18753 0.0332441 0.019248
v -0.192212 0.0340877 0.0185007
v -0.191441 0.0386956 0.0202897
v -0.19067 0.0433035 0.0220787
v -0.193486 0.0249749 0.0146018
v -0.192878 0.0295203 0.0165856
v -0.193846 0.0204422 0.0126007
v -0.196435 0.0266057 0.0113047
v -0.19573 0.0311701 0.0132115
v -0.193355 0.0448928 0.0186867
v -0.188434 0.0526587 0.0251077
v -0.190421 0.0541087 0.0210837
v -0.192201 0.0555307 0.0168965
v -0.186683 0.0573102 0.0260527
v -0.188447 0.0587276 0.0218464
v -0.19021 0.060145 0.0176401
v -0.184545 0.061882 0.026621
v -0.181963 0.060462 0.0302105
v -0.179838 0.0649733 0.0307012
v -0.174678 0.0680162 0.0343714
v -0.177257 0.0691958 0.0304337
v -0.179372 0.0703666 0.0265524
v -0.182102 0.0661218 0.0267688
v -0.181279 0.0713888 0.0225064
v -0.183136 0.0723729 0.0184178
v -0.183907 0.0671828 0.0226396
v -0.185592 0.0684186 0.018418
v -0.187277 0.0696545 0.0141964
v -0.184886 0.0735142 0.0142462
v -0.188665 0.0708753 0.00989729
v -0.193936 0.0642252 0.00450185
v -0.191919 0.0681831 0.00519943
v -0.195882 0.0601323 0.0038423
v -0.193149 0.0628527 0.00903219
v -0.194933 0.0586486 0.00829748
v -0.198832 0.0518176 0.00151393
v -0.197697 0.0559208 0.00293012
v -0.198437 0.0574393 -0.00156179
v -0.191203 0.0669566 0.00968445
v -0.196642 0.0614677 -0.000632944
v -0.194528 0.0654392 9.64139e-05
v -0.194913 0.0666818 -0.00424182
v -0.196824 0.0627924 -0.00502154
v -0.197708 0.0606117 -0.0106691
v -0.200409 0.0509574 -0.00896759
v -0.199259 0.0549964 -0.00754044
v -0.19811 0.0590354 -0.00611329
v -0.200014 0.0526591 -0.013439
v -0.198861 0.0566203 -0.0120634
v -0.201035 0.0447743 -0.0164973
v -0.201446 0.0469777 -0.010385
v -0.200623 0.0487138 -0.0149445
v -0.192422 0.0693861 0.000808587
v -0.19289 0.0703851 -0.00370024
v -0.189327 0.0719705 0.00543562
v -0.189932 0.0729576 0.000988594
v -0.185783 0.0745954 0.00984409
v -0.186737 0.0755634 0.00543884
v -0.184189 0.0788219 0.00498948
v -0.181929 0.0770928 0.013628
v -0.183166 0.0778694 0.00934448
v -0.178615 0.0804884 0.0125989
v -0.177358 0.079703 0.0168727
v -0.174408 0.0732242 0.0299949
v -0.176329 0.0741926 0.0259008
v -0.17825 0.0751611 0.0218066
v -0.180171 0.0761296 0.0177125
v -0.173294 0.0776012 0.0248605
v -0.175215 0.0785696 0.0207663
v -0.170259 0.0810097 0.0238202
v -0.168756 0.0756851 0.0328516
v -0.171345 0.0766335 0.0289468
v -0.168117 0.0800479 0.0278516
v -0.169342 0.0711401 0.0377623
v -0.171976 0.0722397 0.0339316
v -0.159644 0.0717701 0.0421749
v -0.149618 0.0721772 0.0459409
v -0.153713 0.0742079 0.0444904
v -0.143466 0.0742502 0.0475784
v -0.147423 0.0761172 0.0458322
v -0.140561 0.0772679 0.0457888
v -0.143999 0.0787151 0.0433606
v -0.147266 0.0800311 0.0407289
v -0.150825 0.0775473 0.0433556
v -0.150316 0.0813439 0.0377601
v -0.153224 0.0826546 0.0345703
v -0.153695 0.0787993 0.0400905
v -0.156472 0.0799079 0.0366417
v -0.15925 0.0810166 0.0331928
v -0.162027 0.0821253 0.029744
v -0.162796 0.078221 0.0352158
v -0.163373 0.0736518 0.0401926
v -0.157105 0.0758262 0.0419663
v -0.159993 0.077102 0.038653
v -0.164806 0.0832341 0.0263007
v -0.167044 0.083884 0.022457
v -0.166163 0.0747476 0.0367371
v -0.165503 0.079165 0.0316402
v -0.172368 0.082051 0.0198791
v -0.174028 0.0826286 0.0156195
v -0.191904 0.0613988 0.0134164
v -0.186255 0.0631746 0.0224014
v -0.187939 0.064407 0.0181755
v -0.189623 0.0656394 0.0139496
v -0.196646 0.0543715 0.00732067
v -0.193762 0.0570962 0.012639
v -0.196459 0.0483861 0.0102305
v -0.197938 0.0500085 0.00596028
v -0.19369 0.0511271 0.0158704
v -0.19517 0.0527495 0.0116002
v -0.19496 0.046692 0.0144867
v -0.192207 0.0494915 0.0201381
v -0.195135 0.0357342 0.0151626
v -0.194401 0.0403046 0.0170418
v -0.18972 0.0479492 0.0237317
v -0.184171 0.0513766 0.0267381
v -0.18302 0.0560683 0.0282669
v -0.178494 0.0548413 0.0295738
v -0.185165 0.046919 0.0246886
v -0.186084 0.0423254 0.0229
v -0.177459 0.0593823 0.0314
v -0.176611 0.0636929 0.0336687
v -0.171879 0.0625901 0.0345214
v -0.166194 0.0655154 0.0374281
v -0.171002 0.0667305 0.0367161
v -0.160619 0.0679048 0.0402447
v -0.165381 0.0694814 0.0395963
v -0.155122 0.0700681 0.0430457
v -0.186834 0.0377971 0.0210007
v -0.181056 0.000531208 0.0106709
v -0.180903 0.00497448 0.011944
v -0.200591 0.0270319 -0.0201451
v -0.200923 0.0246544 -0.0160471
v -0.190013 0.0105474 0.0110571
v -0.19951 0.0186382 -0.014498
v -0.196437 0.0161364 7.82805e-05
v -0.195552 0.0181203 0.00653303
v -0.196305 0.022231 0.00902466
v -0.197601 0.0330115 0.0091939
v -0.196867 0.0375819 0.0110726
v -0.196122 0.0421498 0.0129457
v -0.197683 0.043918 0.0087778
v -0.199027 0.0457169 0.00453032
v -0.199901 0.0475561 7.81366e-05
v -0.200616 0.0492774 -0.00440607
v -0.199537 0.0533529 -0.00298248
v -0.201528 0.0348114 -0.00532561
v -0.20142 0.0306778 -0.00740772
v -0.200698 0.0327392 -0.000968089
v -0.201116 0.0265539 -0.00962277
v -0.201629 0.0347422 -0.0159652
v -0.201647 0.0388519 -0.0140361
v -0.20125 0.0407571 -0.0182219
v -0.201665 0.0429616 -0.0121071
f 210 3 2 1
f 3 229 4 2
f 210 211 5 3
f 5 6 229 3
f 229 230 231 4
f 211 23 228 5
f 228 226 6 5
f 7 230 229 6
f 226 225 7 6
f 8 232 230 7
f 225 12 8 7
f 9 129 232 8
f 12 10 9 8
f 223 123 129 9
f 10 222 223 9
f 12 11 13 10
f 13 221 222 10
f 12 225 227 11
f 227 20 16 11
f 16 14 13 11
f 14 220 221 13
f 16 217 218 14
f 218 219 220 14
f 217 16 20 15
f 20 18 26 15
f 26 216 86 15
f 86 87 217 15
f 19 226 228 17
f 228 23 22 17
f 22 21 25 17
f 25 18 19 17
f 20 227 19 18
f 25 24 26 18
f 227 225 226 19
f 22 29 28 21
f 28 47 214 21
f 214 24 25 21
f 23 213 29 22
f 211 41 213 23
f 214 48 215 24
f 215 216 26 24
f 29 213 37 27
f 37 36 35 27
f 35 30 31 27
f 31 28 29 27
f 31 44 47 28
f 35 33 32 30
f 32 52 43 30
f 43 44 31 30
f 35 36 34 33
f 37 39 38 36
f 213 41 39 37
f 39 40 63 38
f 41 42 40 39
f 211 210 42 41
f 52 51 50 43
f 50 45 44 43
f 45 46 47 44
f 50 53 54 45
f 54 55 46 45
f 48 214 47 46
f 55 56 48 46
f 56 49 215 48
f 85 216 215 49
f 56 212 74 49
f 74 76 85 49
f 51 57 53 50
f 57 69 58 53
f 58 59 54 53
f 59 60 55 54
f 60 212 56 55
f 67 66 69 57
f 69 68 62 58
f 62 71 59 58
f 71 72 60 59
f 72 73 212 60
f 70 62 68 61
f 68 65 64 61
f 68 69 66 65
f 208 209 72 71
f 75 74 212 73
f 77 83 85 76
f 78 84 83 77
f 79 80 84 78
f 207 81 80 79
f 81 192 191 80
f 191 87 84 80
f 82 88 192 81
f 207 198 82 81
f 193 190 88 82
f 198 197 193 82
f 84 87 86 83
f 86 216 85 83
f 191 218 217 87
f 190 187 189 88
f 189 219 192 88
f 92 93 90 89
f 90 190 193 89
f 193 197 194 89
f 194 195 92 89
f 93 94 91 90
f 91 187 190 90
f 94 179 184 91
f 184 188 187 91
f 95 180 93 92
f 195 96 95 92
f 180 181 94 93
f 181 182 179 94
f 101 104 180 95
f 96 97 101 95
f 195 196 199 96
f 199 200 97 96
f 99 100 101 97
f 200 98 99 97
f 153 142 99 98
f 200 201 203 98
f 203 152 153 98
f 142 143 100 99
f 143 144 102 100
f 102 104 101 100
f 144 145 103 102
f 103 105 104 102
f 145 138 107 103
f 107 106 105 103
f 105 181 180 104
f 106 182 181 105
f 107 135 108 106
f 108 117 182 106
f 138 139 135 107
f 135 136 133 108
f 133 110 117 108
f 110 131 119 109
f 119 118 111 109
f 111 113 112 109
f 112 117 110 109
f 133 134 131 110
f 118 116 115 111
f 115 183 113 111
f 113 184 179 112
f 179 182 117 112
f 183 188 184 113
f 115 116 224 114
f 224 223 222 114
f 222 221 186 114
f 186 183 115 114
f 118 121 125 116
f 125 124 224 116
f 119 120 121 118
f 131 132 120 119
f 127 124 125 122
f 124 127 126 123
f 126 130 129 123
f 223 224 124 123
f 231 230 232 128
f 232 129 130 128
f 139 137 136 135
f 145 141 140 138
f 145 144 147 141
f 147 177 178 141
f 150 146 143 142
f 153 149 150 142
f 146 147 144 143
f 148 177 147 146
f 150 151 148 146
f 151 173 174 148
f 176 151 150 149
f 153 152 175 149
f 175 169 176 149
f 176 168 173 151
f 203 202 205 152
f 205 170 175 152
f 171 172 170 154
f 170 205 204 154
f 206 156 171 154
f 158 162 156 155
f 162 165 171 156
f 159 160 158 157
f 160 161 162 158
f 163 165 162 161
f 164 166 165 163
f 166 172 171 165
f 167 169 172 166
f 168 176 169 167
f 175 170 172 169
f 186 185 188 183
f 186 221 220 185
f 220 219 189 185
f 189 187 188 185
f 192 219 218 191
