# https://github.com/mikedh/trimesh
v -0.36226901 0.27313399 -0.25946701
v -0.36041850 0.26538451 -0.25659050
v -0.34986325 0.29273162 -0.27135438
v -0.34524801 0.27663401 -0.26915300
v -0.33177926 0.26533800 -0.26827776
v -0.28876001 0.22717500 -0.25862801
v -0.33635150 0.24260200 -0.25343050
v -0.34680900 0.31758401 -0.27459401
v -0.35112825 0.25403200 -0.25521724
v -0.31159499 0.18725801 -0.23228800
v -0.28342250 0.18466100 -0.24933950
v -0.25618199 0.18796501 -0.26799500
v -0.25847425 0.19409100 -0.26541550
v -0.27721700 0.19182500 -0.24932100
v -0.27412999 0.20831600 -0.25494400
v -0.31101900 0.18996550 -0.22648950
v -0.27039475 0.19818825 -0.25613400
v -0.24115600 0.10107200 -0.27058399
v -0.23803299 0.09414800 -0.26244800
v -0.24384201 0.10207600 -0.27223200
v -0.27873887 0.13952201 -0.26917225
v -0.25623100 0.12316200 -0.27452901
v -0.24608900 0.11627300 -0.27538899
v -0.24382600 0.12309850 -0.27653050
v -0.27616326 0.15405275 -0.26804849
v -0.20111500 0.10143100 -0.20580600
v -0.28973868 0.18755005 -0.24142861
v -0.28980983 0.18904618 -0.23896307
v -0.29558999 0.18742235 -0.23835846
v -0.29250661 0.19056550 -0.23414724
v -0.28350694 0.18748492 -0.24608985
v -0.30403561 0.19138079 -0.22781327
v -0.30392700 0.19274300 -0.22386900
v -0.28931535 0.19304567 -0.23004171
v -0.30683635 0.19298950 -0.22231292
v -0.28535614 0.19228334 -0.23703804
v -0.29540602 0.19341898 -0.22492574
v -0.28867301 0.19464900 -0.22334054
v -0.29773567 0.19497330 -0.21530657
v -0.28547640 0.19599581 -0.21217766
v -0.30568037 0.19290300 -0.21112288
v -0.29285456 0.19526417 -0.20439930
v -0.29190804 0.19474791 -0.20004842
v -0.28462106 0.19641159 -0.21523896
v -0.28331397 0.19574298 -0.20587444
v -0.28896099 0.19405399 -0.19630300
v -0.28205901 0.19490001 -0.20023200
v -0.28299049 0.19775147 -0.21708124
v -0.29773700 0.19450025 -0.20281175
v -0.30861227 0.19271424 -0.21961899
v -0.28465401 0.19544830 -0.22883341
v -0.28211315 0.18998655 -0.24450470
v -0.28124125 0.19831775 -0.21096175
v -0.28044072 0.19337381 -0.24400468
v -0.28206150 0.19697550 -0.23262075
v -0.27817450 0.18623250 -0.25227500
v -0.26734150 0.19093125 -0.17885831
v -0.27574348 0.19713288 -0.19487826
v -0.27860592 0.19863646 -0.20212501
v -0.27928200 0.20163067 -0.20319447
v -0.28261632 0.20014613 -0.22639638
v -0.27939177 0.19842853 -0.24281811
v -0.26973674 0.19935575 -0.17802725
v -0.28115732 0.20145769 -0.21254242
v -0.27188857 0.20084119 -0.18152366
v -0.28280770 0.20203046 -0.22324696
v -0.27851286 0.20369026 -0.19663840
v -0.28237663 0.20082825 -0.23215335
v -0.28521004 0.20594288 -0.23104754
v -0.28645611 0.20714709 -0.21996399
v -0.28370831 0.20617593 -0.20708551
v -0.27670436 0.20493394 -0.18038745
v -0.27584236 0.19840356 -0.24955872
v -0.27270334 0.19755482 -0.25348993
v -0.27924511 0.20394152 -0.24617216
v -0.27652727 0.20303720 -0.24995147
v -0.27604484 0.20652472 -0.25223905
v -0.28343579 0.21611755 -0.25253789
v -0.28086490 0.19970611 -0.23919489
v -0.28592273 0.20821126 -0.23841185
v -0.28262229 0.20705508 -0.24361456
v -0.27741700 0.21458000 -0.25582701
v -0.28204924 0.22053324 -0.25697324
v -0.28340644 0.21214254 -0.24887045
v -0.29418710 0.22186916 -0.25149193
v -0.30338089 0.21775831 -0.24098580
v -0.30220760 0.22240049 -0.24800674
v -0.28047300 0.21759950 -0.25589900
v -0.33204094 0.23235116 -0.24564930
v -0.34582529 0.24509258 -0.25163155
v -0.34167303 0.23770377 -0.24688324
v -0.36006931 0.25809881 -0.25230173
v -0.35201549 0.24389055 -0.24666406
v -0.34773224 0.23443721 -0.23859467
v -0.35934089 0.25573936 -0.25013812
v -0.36281100 0.26560801 -0.25254300
v -0.31981397 0.21393262 -0.21107839
v -0.31175200 0.21165387 -0.20748566
v -0.32475971 0.21622775 -0.21944295
v -0.30712428 0.21085392 -0.21059577
v -0.29279530 0.20996311 -0.22582827
v -0.29255465 0.20896249 -0.21281301
v -0.30582519 0.21053420 -0.20080264
v -0.29151032 0.20859457 -0.18467951
v -0.30848063 0.21138960 -0.19892272
v -0.28296270 0.20663652 -0.18614631
v -0.29130593 0.20910528 -0.22006190
v -0.29492119 0.21188980 -0.23298251
v -0.28124314 0.20516063 -0.20217214
v -0.29069670 0.20946070 -0.22834335
v -0.30256521 0.21178156 -0.22482857
v -0.28870121 0.20870302 -0.18090683
v -0.28435471 0.20679478 -0.20303534
v -0.33361764 0.22108726 -0.22571488
v -0.30535200 0.21498300 -0.23311900
v -0.32961940 0.22083980 -0.22955138
v -0.33722860 0.22304171 -0.22565557
v -0.31778398 0.21636773 -0.22729129
v -0.32505476 0.21671450 -0.21377925
v -0.30083150 0.21167050 -0.18751450
v -0.28173081 0.20731046 -0.17764332
v -0.29085807 0.21192850 -0.23914513
v -0.28887038 0.21398965 -0.24498666
v -0.33843677 0.22654519 -0.23405264
v -0.29388050 0.21030650 -0.18228351
v -0.33006400 0.21930900 -0.21779899
v -0.33421749 0.22173400 -0.22191900
v -0.34334754 0.23367203 -0.24136598
v -0.34991975 0.23684650 -0.23698700
v -0.31106409 0.22066345 -0.24092420
v -0.31966701 0.21486799 -0.20769501
v -0.33727766 0.23030154 -0.24068940
v -0.34495599 0.23096550 -0.23113101
v -0.29099101 0.21043900 -0.17923300
v -0.35604604 0.24783672 -0.24665921
v -0.35437599 0.24329799 -0.24071001
v -0.35595900 0.24626400 -0.24330400
v -0.36554875 0.28580501 -0.25447450
v -0.36482158 0.27893321 -0.25466866
v -0.35977678 0.25536491 -0.24505753
v -0.36043099 0.26272699 -0.24479900
v -0.36272176 0.26493101 -0.24884567
v -0.36300299 0.28128099 -0.25177699
v -0.35616624 0.24742004 -0.23935554
v -0.36237208 0.27715817 -0.25059976
v -0.35200956 0.24371518 -0.23399250
v -0.34198348 0.23458245 -0.22474243
v -0.33474951 0.22433890 -0.21888130
v -0.34001158 0.23042507 -0.22290196
v -0.32081462 0.22131165 -0.20573853
v -0.35978655 0.27705727 -0.24861475
v -0.35312843 0.26557492 -0.24069943
v -0.33766183 0.26347504 -0.23377381
v -0.34533278 0.27356218 -0.23957857
v -0.32815487 0.23325940 -0.21577808
v -0.35827126 0.26480882 -0.24288578
v -0.33933729 0.24602623 -0.22671810
v -0.33626308 0.23930357 -0.22277560
v -0.32292307 0.25395736 -0.22258516
v -0.32082184 0.23566506 -0.21240819
v -0.36046600 0.28551301 -0.25073799
v -0.31649645 0.22499645 -0.20365918
v -0.30535311 0.24331834 -0.20712889
v -0.30329499 0.23707800 -0.20180400
v -0.30717900 0.22798900 -0.19836301
v -0.30917481 0.21787349 -0.19270867
v -0.29529271 0.23548831 -0.19423989
v -0.29161002 0.21845786 -0.17382586
v -0.26329851 0.23973500 -0.15188149
v -0.29054207 0.21541268 -0.17358425
v -0.27605199 0.22913123 -0.16315929
v -0.27185089 0.23292761 -0.16003836
v -0.28451371 0.22339548 -0.16887656
v -0.26627600 0.23381450 -0.15374750
v -0.30177214 0.21494954 -0.18469949
v -0.27405357 0.22750977 -0.16010812
v -0.30878234 0.22189162 -0.19459161
v -0.26660626 0.23724316 -0.15520695
v -0.27983485 0.22213413 -0.16463811
v -0.28892821 0.23171254 -0.18496416
v -0.29932495 0.23272017 -0.19592041
v -0.30132309 0.22657255 -0.19186167
v -0.28767042 0.22332263 -0.17262684
v -0.35489699 0.29280600 -0.24909750
v -0.34681337 0.29142960 -0.24504383
v -0.34352901 0.28913900 -0.24366805
v -0.33054284 0.28625352 -0.23955643
v -0.33310015 0.28518191 -0.23993921
v -0.32674359 0.27099455 -0.23622770
v -0.34116433 0.28135366 -0.24519693
v -0.33264677 0.27568889 -0.24012978
v -0.31682170 0.26716509 -0.23081633
v -0.35587075 0.28393946 -0.24851951
v -0.34770250 0.30262050 -0.25052600
v -0.32725472 0.29145385 -0.24218684
v -0.34187999 0.29828301 -0.24751100
v -0.33271599 0.29460400 -0.24423900
v -0.32481843 0.28013259 -0.23719496
v -0.34864159 0.28414927 -0.24817083
v -0.35530784 0.28738816 -0.25039838
v -0.31006425 0.25188536 -0.21570657
v -0.31358703 0.27305923 -0.23322304
v -0.31153973 0.26799104 -0.23029504
v -0.31031607 0.26317206 -0.22735429
v -0.30691180 0.24823075 -0.21153082
v -0.34229475 0.27448642 -0.23901261
v -0.30401123 0.25338647 -0.21735305
v -0.29910299 0.24513701 -0.20760600
v -0.33052259 0.26744521 -0.23147699
v -0.30561096 0.25576269 -0.21956301
v -0.33795279 0.27255784 -0.23736996
v -0.31901942 0.25787304 -0.22277231
v -0.32540416 0.26495324 -0.22880315
v -0.31954606 0.29151778 -0.24232343
v -0.32166600 0.30795699 -0.24702300
v -0.29144868 0.24008379 -0.19912991
v -0.29667995 0.23913302 -0.19877303
v -0.28345281 0.23591864 -0.18837617
v -0.34603346 0.28367182 -0.24709243
v -0.26223750 0.19489249 -0.17069050
v -0.26555324 0.19292573 -0.17571794
v -0.25971401 0.19611400 -0.16752200
v -0.26064801 0.20033000 -0.16699199
v -0.26647311 0.20118754 -0.17210433
v -0.26583375 0.20856851 -0.16722700
v -0.26814728 0.20520623 -0.17070358
v -0.27065392 0.20429916 -0.17413091
v -0.26999500 0.21590049 -0.16528600
v -0.27403314 0.20834988 -0.17180377
v -0.27243688 0.22213870 -0.16199873
v -0.27095801 0.22808000 -0.15811650
v -0.28621486 0.21361497 -0.17255017
v -0.27200699 0.22482701 -0.16020299
v -0.29383889 0.21303570 -0.17762068
v -0.31524430 0.21488875 -0.20122185
v -0.32517293 0.21804556 -0.21110752
v -0.36146863 0.26034128 -0.24784326
v -0.25631097 0.24697238 -0.15598323
v -0.27100374 0.23508088 -0.17027777
v -0.25915394 0.24494101 -0.15669875
v -0.27249203 0.23333586 -0.16275614
v -0.26336400 0.24128121 -0.16010577
v -0.26767317 0.23735699 -0.16523444
v -0.26570147 0.24067934 -0.16263862
v -0.27519897 0.23422514 -0.17642627
v -0.28131167 0.23152698 -0.17655284
v -0.29860854 0.21942440 -0.18147357
v -0.27891944 0.23502433 -0.18201970
v -0.28648794 0.23045691 -0.18135533
v -0.30117057 0.22154936 -0.18641947
v -0.29043679 0.23507080 -0.19048855
v -0.28557886 0.23702543 -0.19151706
v -0.29852553 0.24724059 -0.20983150
v -0.29438224 0.24315385 -0.20401822
v -0.28971071 0.23933962 -0.19722832
v -0.31042549 0.37182950 -0.27745425
v -0.29449299 0.38675350 -0.27589600
v -0.32017049 0.36169800 -0.27740350
v -0.32820800 0.34870401 -0.27745399
v -0.33901500 0.33250876 -0.27619750
v -0.28723225 0.39809725 -0.27212925
v -0.26889050 0.40182149 -0.26968199
v -0.25659849 0.40418650 -0.26617649
v -0.23804900 0.39590024 -0.26603075
v -0.22528149 0.39282949 -0.26287600
v -0.21070300 0.37989825 -0.26465550
v -0.21002050 0.38642625 -0.25870150
v -0.22331450 0.09754925 -0.23413644
v -0.21461850 0.08802875 -0.21619050
v -0.19261949 0.07061550 -0.18431349
v -0.19172399 0.05887300 -0.17930150
v -0.20359651 0.07518400 -0.19731401
v -0.12581100 0.31540701 -0.29680899
v -0.15856662 0.31365238 -0.28477325
v -0.13278501 0.31359500 -0.29591301
v -0.12973950 0.30955226 -0.29885875
v -0.19423489 0.37664163 -0.25431993
v -0.16627983 0.32919629 -0.27467637
v -0.16498568 0.33365045 -0.26923288
v -0.17825865 0.34526782 -0.26993225
v -0.19504397 0.36892314 -0.26297144
v -0.19735099 0.36199701 -0.27009901
v -0.19945589 0.36890085 -0.26640248
v -0.18553001 0.34792700 -0.27287799
v -0.18277300 0.34497450 -0.27328900
v -0.16551800 0.32405499 -0.27854401
v -0.17344700 0.33202001 -0.27711299
v -0.16399175 0.31540012 -0.28443312
v -0.22078157 0.38573653 -0.26594259
v -0.21838630 0.37678569 -0.27088977
v -0.20170450 0.36383156 -0.27142203
v -0.19726400 0.35301399 -0.27584800
v -0.18680363 0.34325021 -0.27663812
v -0.18637363 0.33500055 -0.28119179
v -0.17701561 0.33264535 -0.27849728
v -0.20271062 0.35802284 -0.27555117
v -0.21624694 0.37234163 -0.27251405
v -0.21254100 0.36609399 -0.27463901
v -0.23184053 0.38821486 -0.26871119
v -0.19055228 0.33707391 -0.28164234
v -0.17450985 0.32415264 -0.28266467
v -0.17888289 0.31865261 -0.28689404
v -0.21737627 0.36453210 -0.27711525
v -0.23012138 0.37818652 -0.27382914
v -0.23213350 0.37432330 -0.27624189
v -0.20903078 0.35091263 -0.28085700
v -0.25028184 0.39574156 -0.26981309
v -0.26378483 0.39975582 -0.27036503
v -0.18499247 0.31996113 -0.28749550
v -0.16652540 0.31714440 -0.28405385
v -0.16481275 0.31087673 -0.28743415
v -0.25324689 0.39079133 -0.27280637
v -0.26236670 0.39057801 -0.27431712
v -0.24113201 0.37275898 -0.27865260
v -0.21747060 0.35165509 -0.28225073
v -0.20712063 0.34245476 -0.28366002
v -0.18192584 0.31210484 -0.28954258
v -0.24428933 0.36867587 -0.28052093
v -0.24052423 0.36081380 -0.28259905
v -0.23038237 0.35294474 -0.28380708
v -0.19794960 0.32477563 -0.28776871
v -0.25231383 0.37561850 -0.27893870
v -0.16791393 0.30890030 -0.28905305
v -0.17350598 0.30848444 -0.28992967
v -0.16866969 0.30494916 -0.29091279
v -0.24769277 0.36453715 -0.28229948
v -0.26842768 0.38255693 -0.27784844
v -0.27237149 0.37565628 -0.28011309
v -0.26407162 0.37583596 -0.27977596
v -0.28535287 0.39442603 -0.27387542
v -0.25303276 0.35435648 -0.28515136
v -0.20211235 0.32205384 -0.28881382
v -0.18575808 0.30341424 -0.29152133
v -0.22404121 0.33827857 -0.28695475
v -0.27208243 0.39059590 -0.27514763
v -0.28476328 0.38148642 -0.27830312
v -0.17591195 0.29912684 -0.29251497
v -0.25212132 0.34671297 -0.28649603
v -0.22510494 0.32897175 -0.28865533
v -0.26297447 0.36309685 -0.28335878
v -0.27675440 0.37503105 -0.28034071
v -0.28052665 0.36900413 -0.28164479
v -0.27439783 0.36218640 -0.28337692
v -0.27595123 0.35102539 -0.28536952
v -0.26733252 0.35255831 -0.28544217
v -0.20563652 0.31482762 -0.29017514
v -0.26271737 0.34562157 -0.28661730
v -0.22087378 0.32395062 -0.28918105
v -0.22663636 0.31699860 -0.28952660
v -0.24520478 0.32903386 -0.28847568
v -0.28253318 0.34595514 -0.28559619
v -0.27637436 0.34058964 -0.28655726
v -0.29228198 0.34644065 -0.28458296
v -0.29653781 0.34583775 -0.28422737
v -0.28927320 0.36189595 -0.28257844
v -0.30180375 0.36907361 -0.27964504
v -0.31096542 0.34621936 -0.28183465
v -0.31042773 0.35414591 -0.28078602
v -0.30525274 0.35729214 -0.28123421
v -0.31730326 0.35690559 -0.27902358
v -0.32082213 0.34409520 -0.27995621
v -0.31437507 0.32821681 -0.28251079
v -0.29035902 0.37353076 -0.28003803
v -0.28907482 0.33330305 -0.28606565
v -0.30847162 0.32286119 -0.28380443
v -0.27290998 0.32525637 -0.28760542
v -0.28186329 0.32433501 -0.28692007
v -0.29252677 0.32154398 -0.28590639
v -0.29326792 0.31387629 -0.28565142
v -0.26961817 0.33406333 -0.28746295
v -0.26099478 0.31537676 -0.28831124
v -0.26621990 0.31666865 -0.28793428
v -0.28014499 0.30709699 -0.28633299
v -0.26564160 0.30205105 -0.28714072
v -0.31326871 0.31006732 -0.28253808
v -0.34049609 0.31420736 -0.27659490
v -0.32502767 0.32118526 -0.28046026
v -0.31668931 0.33295401 -0.28191280
v -0.33954974 0.32398216 -0.27672249
v -0.33179632 0.34055973 -0.27750864
v -0.30380651 0.30648603 -0.28374977
v -0.30220664 0.29703499 -0.28293360
v -0.28213659 0.30282760 -0.28576638
v -0.25111201 0.32844099 -0.28837699
v -0.25402599 0.32394497 -0.28852963
v -0.29871147 0.29531343 -0.28305568
v -0.31774442 0.30014858 -0.28080332
v -0.32810463 0.28890855 -0.27697834
v -0.32338222 0.29358736 -0.27875442
v -0.31459198 0.28693701 -0.27920572
v -0.28724133 0.29246923 -0.28377138
v -0.28413146 0.28979636 -0.28362550
v -0.25962420 0.27389941 -0.28233510
v -0.26262451 0.26281544 -0.27925264
v -0.26898761 0.26354566 -0.27872058
v -0.30424033 0.27934623 -0.27908592
v -0.25495107 0.25038347 -0.27696033
v -0.25355597 0.28359029 -0.28498206
v -0.24700351 0.29173225 -0.28700133
v -0.23240993 0.28305678 -0.28689018
v -0.24212777 0.27270547 -0.28397685
v -0.22488651 0.27426918 -0.28638478
v -0.24666835 0.23997493 -0.27584280
v -0.22739835 0.26033336 -0.28355796
v -0.23248865 0.25017970 -0.28071261
v -0.20583180 0.25424178 -0.28577099
v -0.22204305 0.27898005 -0.28750661
v -0.21376935 0.29091028 -0.28976552
v -0.21397182 0.28138694 -0.28880036
v -0.24944616 0.26472800 -0.28130430
v -0.23390955 0.29802710 -0.28872230
v -0.18437531 0.29126778 -0.29256886
v -0.19418051 0.28894104 -0.29156172
v -0.22993611 0.30860941 -0.28942963
v -0.21961771 0.30870141 -0.29005128
v -0.19556559 0.29761278 -0.29170564
v -0.21627276 0.31484708 -0.29000064
v -0.18555805 0.29748995 -0.29223083
v -0.22787105 0.29493337 -0.28893060
v -0.17537380 0.29422511 -0.29327554
v -0.17993613 0.28811178 -0.29308767
v -0.29694101 0.37764701 -0.27827799
v -0.13613189 0.30518991 -0.29892797
v -0.13500891 0.30171647 -0.29914180
v -0.12524600 0.30746001 -0.30015250
v -0.12669300 0.30433100 -0.30004501
v -0.16014527 0.29082858 -0.29598895
v -0.15601531 0.29714793 -0.29656037
v -0.17247334 0.28955185 -0.29413370
v -0.13324801 0.29933199 -0.29899600
v -0.12477488 0.31278413 -0.29852163
v -0.33686656 0.30585737 -0.27718340
v -0.33208094 0.30564217 -0.27849090
v -0.15346793 0.30094039 -0.29627494
v -0.19837054 0.27420147 -0.28992582
v -0.20506100 0.25062600 -0.28523901
v -0.20915307 0.22898177 -0.28273555
v -0.21248640 0.20395939 -0.28211610
v -0.21760224 0.19279408 -0.28202866
v -0.21815400 0.19730499 -0.28201300
v -0.21931494 0.18067865 -0.28148896
v -0.23619376 0.15319978 -0.28017237
v -0.23156669 0.16597935 -0.28107025
v -0.21926360 0.21412298 -0.28120780
v -0.21594237 0.22395602 -0.28173429
v -0.23598831 0.14587891 -0.27972735
v -0.22909109 0.15379619 -0.28022470
v -0.20880054 0.21796296 -0.28252192
v -0.20956731 0.20769429 -0.28175127
v -0.22995746 0.16259614 -0.28115126
v -0.24181731 0.13471711 -0.27825373
v -0.22395422 0.17317411 -0.28153670
v -0.22056848 0.23542591 -0.28121252
v -0.23422809 0.17046886 -0.28023342
v -0.20275189 0.23244449 -0.28323183
v -0.21699158 0.24499315 -0.28279608
v -0.20410116 0.23648968 -0.28360374
v -0.24346860 0.14559974 -0.27858126
v -0.26091653 0.13006950 -0.27387093
v -0.24996969 0.14383833 -0.27693351
v -0.23226000 0.14782500 -0.27969900
v -0.18978341 0.26836345 -0.28994030
v -0.20163395 0.22806324 -0.28236456
v -0.23461967 0.22935154 -0.27710697
v -0.23847754 0.23361703 -0.27654740
v -0.26662400 0.14115299 -0.27234200
v -0.22795734 0.24176981 -0.28026600
v -0.18200613 0.27189423 -0.29118760
v -0.27438061 0.13806582 -0.27049787
v -0.33949199 0.29750800 -0.27556399
v -0.33747762 0.29263496 -0.27542991
v -0.22473103 0.21203935 -0.27976331
v -0.14390100 0.29209675 -0.29694300
v -0.19966621 0.24824726 -0.28540658
v -0.23888656 0.12277882 -0.27620951
v -0.19737266 0.24233483 -0.28426112
v -0.25765182 0.14934008 -0.27459388
v -0.25837663 0.15461020 -0.27388173
v -0.24542596 0.17027305 -0.27658705
v -0.27039861 0.15159930 -0.27026311
v -0.23286022 0.19619206 -0.27812495
v -0.15617833 0.28828635 -0.29594107
v -0.23780779 0.21397213 -0.27514923
v -0.22885894 0.19814589 -0.27934064
v -0.24709432 0.23591149 -0.27480507
v -0.25312005 0.24590876 -0.27597014
v -0.22775408 0.22075701 -0.27891711
v -0.34299827 0.30188647 -0.27524101
v -0.23485845 0.13817772 -0.27856610
v -0.24556257 0.21241431 -0.27186773
v -0.32523124 0.27895543 -0.27508488
v -0.24753098 0.22138444 -0.27187229
v -0.29979807 0.26841395 -0.27629834
v -0.31273430 0.26801283 -0.27409344
v -0.18266921 0.26515374 -0.28947275
v -0.34540734 0.28712047 -0.27220531
v -0.25087406 0.22491616 -0.27128761
v -0.25573821 0.23125465 -0.27140877
v -0.26200155 0.24149349 -0.27295502
v -0.32257858 0.27318850 -0.27382503
v -0.28371082 0.25653190 -0.27437130
v -0.26127867 0.22802544 -0.26888114
v -0.23971174 0.20349404 -0.27464668
v -0.18789484 0.25530175 -0.28670359
v -0.17045160 0.27384811 -0.29189413
v -0.24974094 0.21270525 -0.26993569
v -0.26835655 0.24912925 -0.27416012
v -0.34319539 0.27917781 -0.27064702
v -0.32443033 0.26648555 -0.27098315
v -0.23728414 0.18862218 -0.27725511
v -0.19217197 0.24546367 -0.28417036
v -0.24141711 0.19010691 -0.27533158
v -0.25669517 0.21218752 -0.26655146
v -0.26765011 0.23148429 -0.26802139
v -0.28511618 0.24800126 -0.27079805
v -0.30998526 0.25857181 -0.27079553
v -0.27339127 0.24366248 -0.27128359
v -0.26149340 0.21284376 -0.26430266
v -0.28022361 0.24383151 -0.26994470
v -0.21732643 0.18529320 -0.28140647
v -0.25364997 0.20596737 -0.26763438
v -0.28143842 0.24068193 -0.26820712
v -0.24960090 0.19330697 -0.27088748
v -0.26194488 0.21861074 -0.26550606
v -0.26912174 0.22798737 -0.26614813
v -0.13049675 0.28943726 -0.29515725
v -0.26173605 0.16255833 -0.27148087
v -0.27584953 0.22831970 -0.26386280
v -0.25308904 0.19791898 -0.26832881
v -0.16898197 0.29803998 -0.29348880
v -0.25358813 0.17370043 -0.27263678
v -0.13384800 0.31088120 -0.29748229
v -0.26352649 0.20317741 -0.26169172
v -0.27502714 0.23089839 -0.26543345
v -0.25035336 0.18293348 -0.27228827
v -0.29043175 0.23802104 -0.26475100
v -0.15094987 0.28206336 -0.29355123
v -0.26916328 0.20958716 -0.25906574
v -0.16214970 0.30085835 -0.29400471
v -0.19806099 0.23460509 -0.28262250
v -0.19049364 0.24060644 -0.28168474
v -0.28185507 0.22698375 -0.26100208
v -0.26985036 0.21380076 -0.26009164
v -0.27426756 0.21733305 -0.25912085
v -0.16297260 0.30438276 -0.29174983
v -0.17481804 0.25318394 -0.28095188
v -0.15810875 0.25462402 -0.27151107
v -0.15448620 0.26230449 -0.27825902
v -0.15997225 0.26397470 -0.28324304
v -0.16810415 0.25989713 -0.28328478
v -0.13900390 0.27310977 -0.28454703
v -0.14135846 0.26443356 -0.27329751
v -0.10121998 0.26870442 -0.25979017
v -0.09128271 0.27164459 -0.26017569
v -0.12551197 0.27599558 -0.28339457
v -0.10346914 0.27230654 -0.26650606
v -0.09122952 0.27408663 -0.26392227
v -0.06104743 0.27429691 -0.25526545
v -0.09271303 0.28510553 -0.28648130
v -0.09947700 0.28079101 -0.28146601
v -0.06422300 0.27644400 -0.25968550
v -0.11466419 0.27926776 -0.28441037
v -0.07893950 0.27720800 -0.26548101
v -0.08749550 0.28377350 -0.28324700
v -0.03777650 0.27673925 -0.25483449
v -0.06215920 0.28977218 -0.28767586
v -0.06095650 0.28819150 -0.28540049
v -0.04659650 0.29146150 -0.28812699
v -0.10868169 0.28768364 -0.29169067
v -0.13752682 0.27695374 -0.28788904
v -0.17234233 0.25968714 -0.28496413
v -0.15996556 0.26710183 -0.28616173
v -0.08021400 0.29007301 -0.29014000
v -0.12027651 0.28427772 -0.29049761
v -0.18151136 0.25141056 -0.28304660
v -0.18335032 0.25538925 -0.28593698
v -0.11271600 0.29161301 -0.29490700
v -0.09996100 0.29216701 -0.29399300
v -0.13769670 0.28589844 -0.29390617
v -0.16676890 0.26714105 -0.28815706
v -0.18083862 0.24907910 -0.28103712
v -0.18577400 0.24303301 -0.28004000
v -0.13138347 0.28390630 -0.29195481
v -0.14567145 0.27727240 -0.28993736
v -0.18643777 0.23765421 -0.27675812
v -0.17490243 0.26690355 -0.28961364
v -0.16569841 0.27474998 -0.29199834
v -0.19567280 0.23291798 -0.28115519
v -0.18746757 0.23071671 -0.27260480
v -0.17878043 0.19908725 -0.24003288
v -0.18663246 0.17571795 -0.23175133
v -0.19120095 0.22206195 -0.27038200
v -0.18365360 0.22396267 -0.26317181
v -0.19316024 0.23008622 -0.27792271
v -0.20111644 0.21817311 -0.27936640
v -0.22307849 0.16540320 -0.28015401
v -0.22565716 0.14894276 -0.27634484
v -0.19787975 0.21804415 -0.27618433
v -0.23629086 0.11113783 -0.27015086
v -0.18774198 0.21600437 -0.26143935
v -0.18932513 0.19995213 -0.25177224
v -0.19628885 0.18323423 -0.24886145
v -0.23384857 0.12815333 -0.27527195
v -0.19888715 0.19273679 -0.25983907
v -0.19775400 0.21100061 -0.27151660
v -0.20208727 0.18635102 -0.26017909
v -0.20226287 0.16872482 -0.24715278
v -0.19683076 0.17334714 -0.24279677
v -0.21296604 0.18302336 -0.27762119
v -0.20420215 0.20162430 -0.27527813
v -0.07011712 0.24067271 -0.21889699
v -0.07929601 0.24198735 -0.22262414
v -0.09812312 0.25210873 -0.23891962
v -0.08731157 0.25570632 -0.23912351
v -0.13216711 0.25584159 -0.25778535
v -0.12432444 0.24815379 -0.24545058
v -0.11663000 0.24904400 -0.24329101
v -0.13256480 0.24763239 -0.24902714
v -0.09882597 0.24086771 -0.22772246
v -0.10639551 0.23362511 -0.22359360
v -0.11719169 0.23881542 -0.23318490
v -0.12677300 0.22782999 -0.22739799
v -0.14232784 0.23961964 -0.24603837
v -0.10810650 0.22328252 -0.21470492
v -0.12833648 0.22007281 -0.22126592
v -0.13883863 0.21874942 -0.22562361
v -0.14284601 0.21853203 -0.22785287
v -0.15129354 0.23557316 -0.24762487
v -0.16372839 0.23141707 -0.25229235
v -0.13653296 0.19926990 -0.20932636
v -0.12513870 0.19921201 -0.20342670
v -0.11610591 0.21245470 -0.20947152
v -0.10447334 0.19951723 -0.19460045
v -0.11768535 0.18306383 -0.18890650
v -0.12546184 0.19116836 -0.19799180
v -0.13566943 0.18852388 -0.20144949
v -0.13382941 0.18658548 -0.19917283
v -0.11790866 0.17319978 -0.18255889
v -0.10541860 0.18125556 -0.18257803
v -0.10091562 0.20937573 -0.20078751
v -0.08530393 0.22609695 -0.20915843
v -0.07770928 0.20320080 -0.18860761
v -0.08643218 0.19955536 -0.18858073
v -0.07446143 0.22095037 -0.20182115
v -0.09384208 0.23994707 -0.22493484
v -0.10453686 0.22615816 -0.21575677
v -0.09013639 0.21580793 -0.20203463
v -0.15339850 0.20064802 -0.22064516
v -0.14751474 0.17310775 -0.19847593
v -0.14073600 0.17244001 -0.19406299
v -0.12991568 0.16662883 -0.18437486
v -0.14819932 0.16211809 -0.19214303
v -0.13292904 0.15741809 -0.18069193
v -0.14653963 0.18624963 -0.20615649
v -0.14949222 0.16892276 -0.19711057
v -0.15665811 0.21562022 -0.23424131
v -0.15215481 0.21512329 -0.23074375
v -0.14553954 0.24120442 -0.24959021
v -0.14006475 0.25276163 -0.25839769
v -0.10854320 0.25819142 -0.24963904
v -0.16568422 0.12465717 -0.18438441
v -0.17996860 0.08329939 -0.17760055
v -0.18479628 0.08490680 -0.18259557
v -0.18580112 0.10692036 -0.19289627
v -0.19253019 0.07966842 -0.18766540
v -0.20134032 0.08164291 -0.19739848
v -0.19257614 0.11715368 -0.20412339
v -0.19780891 0.11998914 -0.21096646
v -0.19227015 0.10703019 -0.19896900
v -0.20226185 0.14999144 -0.23384798
v -0.17221155 0.14821651 -0.20160067
v -0.17598886 0.12845762 -0.19436333
v -0.16618131 0.15444447 -0.20018965
v -0.18241196 0.12888177 -0.19999066
v -0.18275849 0.09653500 -0.18561827
v -0.15351233 0.13442876 -0.18065412
v -0.15406400 0.15582199 -0.19242200
v -0.16448358 0.22720646 -0.24915544
v -0.16732351 0.22799026 -0.25212579
v -0.16730527 0.21399318 -0.24088813
v -0.16095566 0.19251528 -0.22025543
v -0.15323800 0.19266500 -0.21495000
v -0.15438519 0.18306500 -0.20923189
v -0.15794294 0.16276148 -0.19893780
v -0.16198095 0.15337906 -0.19641497
v -0.16712046 0.17214027 -0.21154063
v -0.16765469 0.16415892 -0.20701108
v -0.17342087 0.16305039 -0.21082143
v -0.18333849 0.18314087 -0.23346299
v -0.18354395 0.20063777 -0.24581524
v -0.17597999 0.22913628 -0.26016476
v -0.11481627 0.26336663 -0.25872600
v -0.06759308 0.25101177 -0.22876806
v -0.00806490 0.26349718 -0.23421208
v -0.04105312 0.24938766 -0.22199098
v -0.05418666 0.24880250 -0.22363178
v -0.08418338 0.24993598 -0.23187810
v -0.08643087 0.26074271 -0.24458584
v -0.04725504 0.26703630 -0.24245898
v -0.06249789 0.25886504 -0.23609056
v -0.00216227 0.26988465 -0.24159355
v 0.01009384 0.27131693 -0.24319077
v -0.06200154 0.26516360 -0.24339801
v -0.01783929 0.27476611 -0.24910840
v 0.01326730 0.27448226 -0.24782033
v 0.00284450 0.27642050 -0.25082850
v 0.02205300 0.27352125 -0.24683675
v -0.03318751 0.27239998 -0.24738960
v -0.07169153 0.27151594 -0.25384426
v -0.15665141 0.23995700 -0.25526845
v -0.17583534 0.24462429 -0.27365893
v -0.17880405 0.21686308 -0.25294261
v -0.17496830 0.21332276 -0.24679747
v -0.17673942 0.18596584 -0.22875885
v -0.16867337 0.18702424 -0.22253320
v -0.17754718 0.11921553 -0.19114004
v -0.17519738 0.11152546 -0.18580941
v -0.18309163 0.15576045 -0.21522606
v -0.19040887 0.13340346 -0.21011489
v -0.19128926 0.15687196 -0.22473976
v -0.19878901 0.14186877 -0.22429238
v -0.19706152 0.15706080 -0.23182530
v -0.18670642 0.16038106 -0.22184504
v -0.21088534 0.11742596 -0.22568944
v -0.21597248 0.12042772 -0.23495561
v -0.20397186 0.15462811 -0.23939978
v -0.20951297 0.15290533 -0.24688633
v -0.21019500 0.15843999 -0.25243101
v -0.20127559 0.20208665 -0.27084282
v -0.20961140 0.17958601 -0.26874815
v -0.22229159 0.15659403 -0.27601762
v -0.22599776 0.13447880 -0.26529029
v -0.22874658 0.13409401 -0.27167773
v -0.23064636 0.12776719 -0.27071144
v -0.22525490 0.11512465 -0.24818680
v -0.22184925 0.13344187 -0.25473363
v -0.21996999 0.12885080 -0.24777586
v -0.21603775 0.11797867 -0.23359381
v -0.21532719 0.11315756 -0.22977848
v -0.21154110 0.09619842 -0.21584976
v -0.20755259 0.10972564 -0.21744825
v -0.20099608 0.11292349 -0.21088479
v -0.20457377 0.11951435 -0.21866668
v -0.19856020 0.09324136 -0.19932172
v -0.20890543 0.08916349 -0.20912549
v -0.19903500 0.07558700 -0.19264799
v -0.18219803 0.06060613 -0.17112759
v 0.01051681 0.26412080 -0.23471549
v -0.02395254 0.25948859 -0.23089050
v -0.02207086 0.26710774 -0.23948020
v -0.11086295 0.16946407 -0.17713714
v -0.22407439 0.10659059 -0.24035277
v 0.10756840 0.31819727 -0.29899917
v 0.00425650 0.33012051 -0.29954250
v 0.04897488 0.32814762 -0.29962650
v 0.07021150 0.32593050 -0.29960099
v -0.05531750 0.32692750 -0.29957099
v -0.02260650 0.32936075 -0.29958100
v -0.09676300 0.32047400 -0.29956999
v 0.04288503 0.31632924 -0.30293726
v -0.03120446 0.31629282 -0.30234991
v -0.12751100 0.29882764 -0.29906622
v -0.07413625 0.31267911 -0.30244220
v -0.09969213 0.30688452 -0.30130878
v -0.11102000 0.30428100 -0.30065700
v -0.02384288 0.31156976 -0.30096179
v 0.05421791 0.31155622 -0.30177809
v -0.06917951 0.30705790 -0.30035657
v -0.10359681 0.30376563 -0.30041035
v 0.04393328 0.30724761 -0.29963554
v -0.04508333 0.30805514 -0.29979516
v 0.00979593 0.30899570 -0.29965007
v -0.11152333 0.29532294 -0.29704261
v -0.08670028 0.29964719 -0.29756160
v -0.04388728 0.30247505 -0.29681505
v 0.00830686 0.30354898 -0.29678440
v -0.05411600 0.30008599 -0.29587001
v 0.04489103 0.29898094 -0.29493961
v -0.07759009 0.29371075 -0.29300139
v -0.00938570 0.30331459 -0.29656572
v 0.07608313 0.31692494 -0.30312676
v -0.02337358 0.31954364 -0.30288102
v -0.01058526 0.32220459 -0.30288284
v -0.07477150 0.31611963 -0.30278447
v -0.10419766 0.31161399 -0.30192554
v -0.11492860 0.30781822 -0.30120323
v -0.11026862 0.30732012 -0.30140278
v -0.06120217 0.31818506 -0.30285670
v -0.07333063 0.32150684 -0.30192406
v -0.09892111 0.31389541 -0.30217207
v -0.08675816 0.31814414 -0.30204043
v 0.02873931 0.32277848 -0.30296033
v 0.06578108 0.32029479 -0.30285164
v 0.05174516 0.32469929 -0.30184590
v -0.01520126 0.32630194 -0.30194516
v -0.10828829 0.31601705 -0.30062415
v 0.07346400 0.32176302 -0.30200710
v 0.01953206 0.32694916 -0.30173795
v -0.05789094 0.32469618 -0.30116429
v 0.08003944 0.32157291 -0.30149105
v -0.11436228 0.31352295 -0.30086208
f 161 145 193
f 145 161 143
f 193 145 151
f 143 139 145
f 156 151 145
f 193 151 152
f 143 138 139
f 145 139 142
f 156 145 142
f 152 151 156
f 193 152 154
f 142 141 156
f 152 156 147
f 154 152 153
f 193 154 206
f 141 142 144
f 156 141 144
f 152 147 157
f 156 146 147
f 159 153 152
f 206 154 153
f 206 190 193
f 144 142 237
f 156 144 146
f 157 147 158
f 152 157 159
f 153 159 212
f 209 206 153
f 190 199 193
f 190 206 191
f 144 237 140
f 144 133 146
f 158 147 155
f 159 157 158
f 213 153 212
f 163 212 159
f 209 153 213
f 193 199 161
f 191 206 189
f 133 144 129
f 147 146 133
f 155 147 149
f 160 158 155
f 159 158 160
f 192 213 212
f 163 159 160
f 205 212 163
f 206 211 189
f 144 136 129
f 149 147 133
f 155 149 150
f 160 155 150
f 192 212 204
f 192 189 213
f 163 160 162
f 207 205 163
f 201 212 205
f 209 189 211
f 211 206 209
f 136 144 137
f 149 133 148
f 149 148 150
f 162 160 150
f 203 192 204
f 212 210 204
f 213 189 209
f 164 163 162
f 207 163 253
f 205 207 210
f 205 210 201
f 201 210 212
f 137 144 135
f 133 117 148
f 150 148 236
f 177 162 150
f 202 192 203
f 181 164 162
f 163 164 181
f 208 253 163
f 144 95 135
f 148 117 236
f 150 236 166
f 177 150 166
f 165 162 177
f 202 198 192
f 181 162 165
f 167 163 181
f 208 163 254
f 254 253 208
f 140 95 144
f 236 117 126
f 166 236 175
f 247 177 166
f 181 165 177
f 198 189 192
f 214 198 202
f 217 163 167
f 167 181 180
f 254 163 217
f 237 95 140
f 131 236 126
f 168 166 175
f 175 236 235
f 168 247 166
f 250 177 247
f 182 181 177
f 198 191 189
f 214 195 198
f 251 217 167
f 251 167 180
f 180 181 250
f 216 254 217
f 237 142 95
f 235 236 131
f 168 175 234
f 175 235 120
f 183 247 168
f 182 177 250
f 247 183 250
f 250 181 182
f 198 190 191
f 195 187 198
f 214 215 195
f 216 217 251
f 249 251 180
f 180 250 249
f 255 254 216
f 95 142 96
f 120 235 131
f 168 234 170
f 234 175 120
f 173 183 168
f 183 249 250
f 219 190 198
f 195 185 187
f 187 188 198
f 215 197 195
f 255 216 251
f 248 251 249
f 139 96 142
f 168 170 179
f 232 170 234
f 134 234 120
f 176 173 168
f 171 183 173
f 183 248 249
f 219 199 190
f 188 219 198
f 187 185 186
f 196 185 195
f 187 186 188
f 197 196 195
f 252 255 251
f 248 218 251
f 139 1 96
f 176 168 179
f 179 170 232
f 232 234 229
f 234 134 63
f 171 173 176
f 171 246 183
f 219 186 199
f 188 186 219
f 186 185 199
f 196 194 185
f 218 252 251
f 176 179 231
f 230 179 232
f 230 232 229
f 229 234 227
f 227 234 63
f 172 171 176
f 245 246 171
f 248 183 246
f 185 200 199
f 185 194 184
f 174 176 231
f 233 231 179
f 233 179 230
f 230 229 228
f 226 229 227
f 227 63 224
f 178 172 176
f 241 245 171
f 245 248 246
f 184 200 185
f 169 176 174
f 233 230 228
f 225 228 229
f 226 227 224
f 225 229 226
f 224 63 57
f 169 178 176
f 241 171 178
f 239 245 241
f 200 184 161
f 225 226 224
f 65 57 63
f 224 57 221
f 169 241 178
f 169 239 241
f 225 224 223
f 65 58 57
f 220 221 57
f 224 221 220
f 169 243 239
f 223 224 222
f 65 67 58
f 224 220 222
f 242 243 169
f 67 60 58
f 240 242 169
f 60 59 58
f 60 67 109
f 238 240 169
f 59 53 58
f 59 60 53
f 109 64 60
f 72 109 67
f 240 238 244
f 60 61 53
f 64 61 60
f 109 66 64
f 72 67 65
f 106 109 72
f 66 61 64
f 109 70 66
f 63 72 65
f 72 104 106
f 109 106 113
f 66 68 61
f 70 69 66
f 109 71 70
f 63 121 72
f 112 104 72
f 106 104 102
f 106 107 113
f 109 113 71
f 69 68 66
f 70 110 69
f 71 107 70
f 121 112 72
f 125 104 112
f 104 103 102
f 106 102 107
f 71 113 107
f 69 79 68
f 122 69 110
f 70 107 110
f 121 125 112
f 125 105 104
f 103 100 102
f 105 103 104
f 102 100 107
f 68 79 61
f 69 62 79
f 69 122 80
f 110 108 122
f 107 101 110
f 103 98 100
f 103 105 98
f 107 100 111
f 69 75 62
f 79 62 55
f 80 81 69
f 123 80 122
f 101 108 110
f 98 97 100
f 98 105 97
f 100 97 111
f 107 111 108
f 62 75 73
f 81 75 69
f 79 55 61
f 80 123 81
f 108 123 122
f 111 97 99
f 108 111 86
f 75 76 73
f 84 75 81
f 61 55 53
f 81 123 84
f 108 86 123
f 97 117 99
f 111 99 118
f 111 115 86
f 76 77 73
f 75 77 76
f 84 77 75
f 84 123 85
f 85 123 86
f 97 119 117
f 99 117 114
f 99 116 118
f 111 118 115
f 115 118 86
f 15 73 77
f 78 77 84
f 84 85 78
f 86 87 85
f 97 131 119
f 127 117 119
f 99 114 116
f 114 117 94
f 116 86 118
f 73 15 74
f 15 77 78
f 78 85 6
f 87 132 85
f 87 86 130
f 125 131 97
f 116 114 124
f 114 94 124
f 129 94 117
f 116 130 86
f 17 74 15
f 82 15 78
f 6 88 78
f 6 85 7
f 85 132 89
f 87 130 132
f 130 116 124
f 124 94 128
f 129 95 94
f 17 14 74
f 82 544 15
f 82 78 88
f 85 90 7
f 85 89 91
f 128 89 132
f 130 124 132
f 128 94 93
f 124 128 132
f 74 14 54
f 538 15 544
f 82 83 544
f 7 90 9
f 85 91 90
f 89 128 91
f 93 94 135
f 128 93 91
f 14 56 54
f 62 74 54
f 538 533 15
f 543 538 544
f 542 544 83
f 92 9 90
f 91 93 90
f 92 93 135
f 31 54 56
f 55 62 54
f 533 13 15
f 513 533 538
f 525 538 543
f 525 543 544
f 536 542 83
f 528 544 542
f 2 9 92
f 92 90 93
f 31 56 11
f 55 54 51
f 533 521 13
f 521 533 513
f 518 513 538
f 524 538 525
f 525 544 528
f 536 83 516
f 528 542 536
f 1 2 92
f 31 11 27
f 51 54 36
f 55 51 48
f 529 13 521
f 492 521 513
f 513 518 497
f 524 518 538
f 525 502 524
f 528 534 525
f 83 509 516
f 516 522 536
f 522 528 536
f 11 10 27
f 52 31 27
f 51 36 34
f 54 52 36
f 48 51 34
f 529 523 13
f 521 523 529
f 492 513 497
f 492 506 521
f 498 497 518
f 502 518 524
f 502 525 514
f 525 534 522
f 522 534 528
f 5 509 83
f 494 516 509
f 515 522 516
f 52 27 36
f 34 36 30
f 38 48 34
f 523 535 13
f 503 523 521
f 465 492 497
f 490 506 492
f 506 490 521
f 403 497 498
f 498 518 502
f 502 514 507
f 507 514 525
f 522 517 525
f 509 5 508
f 494 509 500
f 501 516 494
f 515 516 501
f 519 522 515
f 36 27 28
f 34 30 37
f 36 28 30
f 38 34 37
f 48 38 44
f 535 12 13
f 523 512 535
f 503 521 490
f 503 512 523
f 465 464 492
f 485 465 497
f 464 490 492
f 485 497 403
f 403 498 486
f 498 502 499
f 507 499 502
f 525 517 507
f 517 522 519
f 508 5 4
f 491 509 508
f 491 494 500
f 491 500 509
f 493 501 494
f 501 517 515
f 517 519 515
f 29 28 27
f 37 30 29
f 30 28 29
f 38 37 39
f 44 38 40
f 48 44 45
f 535 527 12
f 512 510 535
f 490 483 503
f 503 510 512
f 453 464 465
f 465 485 403
f 464 487 490
f 403 486 397
f 486 498 397
f 498 499 397
f 397 499 507
f 507 517 501
f 508 4 3
f 491 508 388
f 396 494 491
f 396 493 494
f 501 493 395
f 37 29 32
f 39 37 35
f 40 38 39
f 45 44 40
f 53 48 45
f 12 527 25
f 535 531 527
f 535 510 531
f 487 483 490
f 484 503 483
f 503 481 510
f 453 487 464
f 453 465 467
f 467 465 403
f 401 403 397
f 397 507 395
f 395 507 501
f 496 508 3
f 390 491 388
f 496 388 508
f 396 491 390
f 395 493 396
f 32 29 10
f 37 32 33
f 37 33 35
f 39 35 41
f 45 40 39
f 25 527 480
f 531 479 527
f 510 479 531
f 472 483 487
f 472 484 483
f 484 481 503
f 481 484 510
f 453 445 487
f 456 453 467
f 405 467 403
f 401 397 410
f 405 403 401
f 397 395 394
f 3 488 496
f 389 390 388
f 471 388 496
f 386 396 390
f 394 395 396
f 32 10 35
f 33 32 35
f 35 50 41
f 42 39 41
f 42 45 39
f 480 21 25
f 478 480 527
f 527 479 478
f 484 479 510
f 472 487 444
f 472 454 484
f 456 445 453
f 445 444 487
f 405 456 467
f 410 397 393
f 401 410 393
f 404 405 401
f 393 397 394
f 376 488 3
f 471 496 488
f 388 387 389
f 390 389 387
f 388 471 433
f 386 390 382
f 392 396 386
f 393 394 396
f 35 10 16
f 35 16 50
f 42 41 43
f 43 45 42
f 469 21 480
f 478 477 480
f 479 477 478
f 484 454 479
f 472 444 443
f 472 443 454
f 437 445 456
f 445 437 444
f 404 456 405
f 398 401 393
f 401 402 404
f 376 3 8
f 376 432 488
f 471 488 470
f 387 388 433
f 382 390 387
f 433 471 470
f 383 386 382
f 391 392 386
f 398 396 392
f 393 396 398
f 47 45 43
f 459 21 469
f 477 469 480
f 454 477 479
f 437 443 444
f 454 443 477
f 474 437 456
f 406 456 404
f 399 401 398
f 400 402 401
f 407 404 402
f 379 376 8
f 433 432 376
f 432 433 488
f 433 470 488
f 375 387 433
f 382 387 381
f 383 382 369
f 374 386 383
f 374 391 386
f 374 392 391
f 374 398 392
f 47 43 46
f 22 21 459
f 460 459 469
f 477 466 469
f 440 443 437
f 443 460 477
f 457 437 474
f 436 474 456
f 407 406 404
f 436 456 406
f 399 398 374
f 400 401 399
f 400 407 402
f 379 8 260
f 377 376 379
f 377 433 376
f 381 387 375
f 375 433 365
f 381 369 382
f 373 383 369
f 373 374 383
f 46 43 49
f 451 22 459
f 458 459 460
f 460 469 466
f 477 460 466
f 439 440 437
f 439 443 440
f 443 458 460
f 437 457 448
f 474 455 457
f 474 436 406
f 435 406 407
f 419 399 374
f 419 400 399
f 407 400 419
f 380 379 260
f 378 377 379
f 365 433 377
f 369 381 375
f 369 375 365
f 373 369 374
f 22 451 24
f 458 451 459
f 438 439 437
f 439 452 443
f 442 458 443
f 448 438 437
f 449 448 457
f 455 449 457
f 474 463 455
f 462 474 406
f 462 406 435
f 435 407 409
f 411 419 374
f 408 407 419
f 380 260 259
f 361 379 380
f 378 362 377
f 361 378 379
f 365 377 362
f 368 369 365
f 371 374 369
f 451 475 24
f 458 442 451
f 438 441 439
f 441 452 439
f 452 450 443
f 450 442 443
f 448 449 438
f 463 449 455
f 476 463 474
f 468 474 462
f 468 462 435
f 409 407 408
f 435 409 408
f 371 411 374
f 419 411 371
f 419 416 408
f 360 380 259
f 360 361 380
f 378 365 362
f 361 357 378
f 368 365 364
f 369 368 367
f 372 371 369
f 475 23 24
f 489 475 451
f 446 451 442
f 520 441 438
f 441 447 452
f 447 450 452
f 450 446 442
f 449 520 438
f 463 595 449
f 540 463 476
f 504 476 474
f 468 504 474
f 427 468 435
f 413 435 408
f 419 371 414
f 413 408 416
f 415 416 419
f 360 259 258
f 360 357 361
f 354 365 378
f 354 378 357
f 354 364 365
f 367 368 364
f 366 369 367
f 366 372 369
f 366 371 372
f 475 20 23
f 446 489 451
f 603 475 489
f 596 441 520
f 441 596 447
f 447 461 450
f 450 461 446
f 596 520 449
f 595 596 449
f 595 463 540
f 511 540 476
f 511 476 504
f 495 504 468
f 435 429 427
f 482 468 427
f 421 435 413
f 349 414 371
f 415 419 414
f 412 413 416
f 417 416 415
f 256 360 258
f 358 357 360
f 354 357 359
f 353 364 354
f 366 367 364
f 370 371 366
f 18 20 475
f 461 489 446
f 603 18 475
f 447 603 489
f 596 603 447
f 447 489 461
f 595 609 596
f 588 595 540
f 511 541 540
f 576 511 504
f 505 495 468
f 586 504 495
f 428 427 429
f 429 435 421
f 424 482 427
f 482 505 468
f 412 421 413
f 385 349 371
f 415 414 349
f 418 412 416
f 417 415 349
f 346 416 417
f 256 356 360
f 359 357 358
f 359 358 360
f 355 354 359
f 355 353 354
f 351 364 353
f 370 366 364
f 370 385 371
f 599 18 603
f 597 603 596
f 610 609 595
f 609 731 596
f 541 588 540
f 588 594 595
f 576 541 511
f 576 504 586
f 505 586 495
f 424 427 428
f 428 429 539
f 420 429 421
f 430 482 424
f 482 587 505
f 420 421 412
f 350 349 385
f 337 412 418
f 333 418 416
f 346 417 349
f 333 416 346
f 422 356 256
f 356 359 360
f 356 355 359
f 355 351 353
f 352 364 351
f 352 370 364
f 370 384 385
f 19 18 599
f 734 599 603
f 596 731 597
f 733 603 597
f 598 610 595
f 610 730 609
f 609 730 731
f 541 594 588
f 598 595 594
f 575 541 576
f 580 576 586
f 587 586 505
f 428 423 424
f 434 428 539
f 539 429 530
f 530 429 420
f 426 430 424
f 482 430 473
f 473 587 482
f 420 412 337
f 339 349 350
f 384 350 385
f 333 337 418
f 346 349 348
f 333 346 339
f 257 422 256
f 422 363 356
f 363 355 356
f 344 351 355
f 344 352 351
f 347 370 352
f 350 384 370
f 19 599 735
f 736 599 734
f 733 734 603
f 731 732 597
f 732 733 597
f 605 610 598
f 729 730 610
f 731 730 732
f 541 585 594
f 594 592 598
f 575 581 541
f 571 575 576
f 571 576 580
f 587 580 586
f 425 424 423
f 423 428 434
f 423 434 539
f 545 539 530
f 337 530 420
f 425 426 424
f 473 537 587
f 348 349 339
f 339 350 347
f 317 337 333
f 346 348 339
f 332 333 339
f 336 422 257
f 336 363 422
f 342 355 363
f 343 344 355
f 344 347 352
f 350 370 347
f 735 268 19
f 736 735 599
f 732 736 734
f 732 734 733
f 592 605 598
f 605 729 610
f 729 606 730
f 732 730 736
f 585 541 582
f 589 594 585
f 593 592 594
f 582 541 581
f 546 581 575
f 571 546 575
f 572 571 580
f 587 584 580
f 276 425 423
f 423 539 532
f 545 530 325
f 532 539 545
f 325 530 337
f 526 537 473
f 584 587 537
f 338 339 347
f 317 333 332
f 302 337 317
f 332 339 334
f 330 336 257
f 341 363 336
f 342 343 355
f 341 342 363
f 343 345 344
f 345 347 344
f 752 268 735
f 737 735 736
f 592 600 605
f 605 606 729
f 727 730 606
f 728 736 730
f 581 585 582
f 585 691 589
f 593 594 589
f 593 600 592
f 710 581 546
f 550 546 571
f 549 571 572
f 584 572 580
f 276 423 532
f 801 425 276
f 311 545 325
f 274 532 545
f 325 337 324
f 579 537 526
f 537 583 584
f 334 339 338
f 331 338 347
f 317 332 321
f 309 302 317
f 324 337 302
f 321 332 334
f 330 257 261
f 335 336 330
f 328 341 336
f 341 343 342
f 340 345 343
f 340 347 345
f 738 268 752
f 738 752 735
f 735 737 725
f 727 737 736
f 600 604 605
f 604 606 605
f 602 727 606
f 727 728 730
f 727 736 728
f 711 585 581
f 691 585 711
f 593 589 691
f 593 712 600
f 710 546 547
f 710 711 581
f 549 546 550
f 549 550 571
f 549 572 570
f 570 572 584
f 276 532 273
f 801 276 431
f 801 430 425
f 311 325 323
f 274 545 311
f 275 532 274
f 323 325 324
f 569 579 526
f 583 537 579
f 583 570 584
f 334 338 331
f 340 331 347
f 317 321 309
f 294 302 309
f 302 311 324
f 321 334 320
f 330 261 262
f 308 335 330
f 335 327 336
f 327 328 336
f 340 341 328
f 340 343 341
f 739 268 738
f 725 738 735
f 727 725 737
f 602 604 600
f 604 602 606
f 727 602 607
f 629 691 711
f 691 712 593
f 712 690 600
f 547 546 548
f 547 659 710
f 710 629 711
f 548 546 549
f 570 551 549
f 273 532 275
f 431 796 801
f 801 786 430
f 311 323 324
f 274 311 288
f 578 569 526
f 569 583 579
f 574 570 583
f 326 334 331
f 326 331 340
f 309 321 320
f 301 302 294
f 294 309 300
f 310 311 302
f 326 320 334
f 262 308 330
f 308 313 335
f 313 327 335
f 327 340 328
f 739 724 268
f 724 739 738
f 725 724 738
f 726 725 727
f 601 602 600
f 608 607 602
f 607 726 727
f 629 679 691
f 713 712 691
f 600 690 601
f 713 690 712
f 659 547 548
f 659 658 710
f 678 629 710
f 548 549 551
f 551 570 555
f 759 796 431
f 796 790 801
f 786 787 430
f 785 786 801
f 288 311 310
f 578 573 569
f 569 574 583
f 562 570 574
f 329 326 340
f 316 309 320
f 295 301 294
f 310 302 301
f 300 306 294
f 309 306 300
f 319 320 326
f 263 308 262
f 312 313 308
f 322 327 313
f 329 340 327
f 724 269 268
f 721 724 725
f 726 670 725
f 601 608 602
f 608 726 607
f 629 678 679
f 678 691 679
f 680 713 691
f 690 591 601
f 590 690 713
f 615 659 548
f 659 623 658
f 658 628 710
f 657 678 710
f 548 551 552
f 555 552 551
f 555 570 562
f 789 796 759
f 791 790 796
f 790 785 801
f 787 762 430
f 785 787 786
f 286 288 310
f 559 569 573
f 569 562 574
f 327 326 329
f 306 309 316
f 315 316 320
f 293 295 294
f 295 310 301
f 294 306 296
f 318 320 319
f 319 326 318
f 264 308 263
f 307 312 308
f 312 314 313
f 314 322 313
f 322 326 327
f 740 269 724
f 721 743 724
f 721 725 670
f 722 670 726
f 601 591 608
f 722 726 608
f 678 680 691
f 715 713 680
f 690 689 591
f 714 690 590
f 714 590 713
f 552 615 548
f 618 659 615
f 658 623 628
f 618 623 659
f 628 657 710
f 678 657 656
f 553 552 555
f 557 555 562
f 759 799 789
f 789 791 796
f 784 790 791
f 790 787 785
f 765 762 787
f 286 310 295
f 569 559 562
f 559 573 566
f 306 316 315
f 314 315 320
f 293 294 291
f 295 293 291
f 292 294 296
f 303 296 306
f 314 320 318
f 322 318 326
f 264 307 308
f 307 305 312
f 312 305 314
f 314 318 322
f 745 269 740
f 741 740 724
f 721 742 743
f 743 741 724
f 720 721 670
f 720 670 722
f 591 722 608
f 656 680 678
f 681 715 680
f 714 713 715
f 591 689 714
f 714 689 690
f 615 552 692
f 616 618 615
f 626 628 623
f 616 623 618
f 627 657 628
f 657 680 656
f 553 692 552
f 553 555 556
f 556 555 557
f 563 557 562
f 757 799 759
f 795 789 799
f 789 784 791
f 784 763 790
f 763 787 790
f 765 769 762
f 764 765 787
f 286 295 291
f 560 562 559
f 567 559 566
f 566 573 568
f 314 306 315
f 291 294 292
f 291 292 296
f 298 296 303
f 303 306 314
f 264 299 307
f 304 305 307
f 303 314 305
f 745 272 269
f 742 745 740
f 741 742 740
f 721 668 742
f 742 741 743
f 718 721 720
f 723 720 722
f 723 722 591
f 648 681 680
f 681 686 715
f 715 688 714
f 714 723 591
f 616 615 692
f 625 626 623
f 626 627 628
f 621 623 616
f 626 657 627
f 657 648 680
f 553 660 692
f 554 553 556
f 554 556 557
f 561 557 563
f 563 562 560
f 758 799 757
f 795 788 789
f 758 795 799
f 788 784 789
f 788 763 784
f 763 764 787
f 764 769 765
f 284 286 291
f 564 560 559
f 567 564 559
f 566 568 567
f 291 296 290
f 290 296 298
f 297 298 303
f 289 299 264
f 299 304 307
f 290 305 304
f 290 303 305
f 666 272 745
f 26 745 742
f 719 668 721
f 667 742 668
f 723 718 720
f 719 721 718
f 682 681 648
f 683 686 681
f 715 686 688
f 688 723 714
f 616 692 660
f 625 623 622
f 625 630 626
f 617 621 616
f 621 622 623
f 626 630 657
f 630 648 657
f 698 660 553
f 554 698 553
f 709 554 557
f 558 557 561
f 795 783 788
f 754 795 758
f 761 763 788
f 763 769 764
f 282 284 291
f 291 290 289
f 290 298 297
f 297 303 290
f 265 289 264
f 289 290 299
f 299 290 304
f 665 272 666
f 744 666 745
f 742 744 26
f 744 745 26
f 719 667 668
f 667 669 742
f 688 718 723
f 674 719 718
f 648 654 682
f 682 654 681
f 654 683 681
f 684 686 683
f 686 687 688
f 660 617 616
f 621 625 622
f 631 630 625
f 660 621 617
f 630 654 648
f 698 613 660
f 709 698 554
f 558 709 557
f 558 561 565
f 783 782 788
f 792 783 795
f 754 798 795
f 761 768 763
f 782 761 788
f 768 769 763
f 266 282 291
f 266 291 289
f 265 266 289
f 665 746 272
f 665 666 744
f 744 742 669
f 674 667 719
f 667 674 669
f 688 674 718
f 654 649 683
f 655 684 683
f 686 684 687
f 673 688 687
f 624 625 621
f 632 631 625
f 637 630 631
f 613 621 660
f 636 654 630
f 698 614 613
f 709 703 698
f 699 709 558
f 565 708 558
f 792 782 783
f 798 792 795
f 755 798 754
f 766 768 761
f 760 761 782
f 768 773 769
f 283 282 266
f 746 270 272
f 665 270 746
f 669 665 744
f 674 664 669
f 671 674 688
f 650 649 654
f 649 655 683
f 655 652 684
f 684 673 687
f 673 671 688
f 624 621 646
f 632 625 624
f 633 631 632
f 637 636 630
f 631 635 637
f 613 619 621
f 637 654 636
f 645 613 614
f 697 614 698
f 700 698 703
f 709 699 703
f 708 699 558
f 704 708 565
f 760 782 792
f 794 792 798
f 755 794 798
f 761 760 766
f 766 771 768
f 774 773 768
f 773 430 769
f 267 283 266
f 283 285 282
f 665 662 270
f 664 665 669
f 664 674 716
f 672 674 671
f 650 652 649
f 651 650 654
f 649 652 655
f 652 685 684
f 673 684 685
f 673 685 671
f 620 646 621
f 646 647 624
f 624 640 632
f 634 631 633
f 633 632 640
f 631 634 635
f 634 637 635
f 645 619 613
f 620 621 619
f 637 651 654
f 645 614 697
f 700 697 698
f 703 699 700
f 708 750 699
f 706 704 565
f 701 708 704
f 793 760 792
f 794 793 792
f 755 756 794
f 760 772 766
f 775 771 766
f 771 775 768
f 774 768 775
f 774 779 773
f 577 430 773
f 281 283 267
f 278 285 283
f 662 271 270
f 662 665 663
f 675 665 664
f 716 675 664
f 672 716 674
f 685 672 671
f 651 652 650
f 652 677 685
f 645 646 620
f 640 624 647
f 641 647 646
f 633 751 634
f 642 633 640
f 637 634 651
f 619 645 620
f 641 645 697
f 693 697 700
f 700 699 695
f 750 749 699
f 701 750 708
f 706 705 704
f 702 701 704
f 781 760 793
f 797 793 794
f 756 800 794
f 770 772 760
f 776 766 772
f 766 780 775
f 775 777 774
f 773 779 577
f 777 779 774
f 277 281 267
f 279 283 281
f 280 278 283
f 278 287 285
f 662 747 271
f 675 662 663
f 663 665 675
f 716 717 675
f 661 716 672
f 685 661 672
f 651 653 652
f 652 676 677
f 677 676 685
f 641 646 645
f 642 640 647
f 641 644 647
f 639 751 633
f 634 751 638
f 643 633 642
f 638 651 634
f 612 641 697
f 693 611 697
f 696 693 700
f 749 695 699
f 696 700 695
f 750 694 749
f 701 694 750
f 705 702 704
f 707 705 706
f 748 701 702
f 781 767 760
f 797 781 793
f 800 797 794
f 756 753 800
f 767 770 760
f 770 778 772

