# https://github.com/mikedh/trimesh
v -0.30598401 0.32779450 -0.23683250
v -0.30047750 0.33795550 -0.23893825
v -0.31022600 0.31393151 -0.23486600
v -0.25745001 0.25000599 -0.17046100
v -0.27971824 0.37523551 -0.20861125
v -0.27344999 0.37572899 -0.20242700
v -0.26558825 0.37302549 -0.19686849
v -0.26098499 0.37215200 -0.19189000
v -0.26124799 0.37457901 -0.18910301
v -0.26117800 0.37661150 -0.18621450
v -0.25379100 0.36977600 -0.18135450
v -0.24667900 0.36600250 -0.16631250
v -0.23846737 0.34984213 -0.15373050
v -0.24519375 0.25776851 -0.15073415
v -0.24930950 0.25223350 -0.15805050
v -0.24156500 0.26386601 -0.14513300
v -0.29182601 0.36402100 -0.22883400
v -0.23871000 0.26928699 -0.14191400
v -0.24844435 0.25945909 -0.15816914
v -0.23725501 0.28128099 -0.14144500
v -0.23667499 0.27528900 -0.13946800
v -0.24306655 0.26881961 -0.15068677
v -0.24502168 0.26539763 -0.15331013
v -0.23819848 0.27853383 -0.14310503
v -0.23423298 0.29473191 -0.13863624
v -0.23557900 0.28773499 -0.13867900
v -0.23652250 0.28427750 -0.14052300
v -0.23364300 0.29914501 -0.13683499
v -0.23296600 0.33447150 -0.15132476
v -0.23334200 0.33080250 -0.14360550
v -0.23322000 0.32328701 -0.13814200
v -0.23286100 0.31153400 -0.13743150
v -0.23824400 0.34812501 -0.14536300
v -0.25287828 0.38169460 -0.16415044
v -0.27210313 0.38865177 -0.19362858
v -0.27791717 0.38314911 -0.20326063
v -0.26654111 0.38822896 -0.18491718
v -0.23920874 0.35183981 -0.14473996
v -0.25066894 0.37671767 -0.16128540
v -0.23556791 0.33910862 -0.13827812
v -0.22926582 0.33096750 -0.12793650
v -0.23456685 0.29014094 -0.13646751
v -0.23681568 0.34985736 -0.13970940
v -0.23782029 0.35727124 -0.14161178
v -0.23124190 0.34919312 -0.13240209
v -0.23436124 0.36232709 -0.13787890
v -0.24430830 0.36883899 -0.15072668
v -0.28398074 0.37920060 -0.21419414
v -0.26695993 0.38591473 -0.18634811
v -0.27504286 0.38204267 -0.19949673
v -0.22956976 0.29995972 -0.12768881
v -0.28363917 0.38605732 -0.21525745
v -0.28986314 0.37431741 -0.22514674
v -0.22953668 0.33643807 -0.12853135
v -0.22989050 0.33963265 -0.13007503
v -0.28004700 0.39201701 -0.20932899
v -0.23303587 0.30176392 -0.13428952
v -0.27499848 0.39575088 -0.20196962
v -0.23289600 0.31338221 -0.13509167
v -0.26690558 0.39092737 -0.18607792
v -0.25773665 0.39685299 -0.17640085
v -0.23323691 0.28323029 -0.13375689
v -0.27110545 0.39621395 -0.19542785
v -0.23009858 0.29717436 -0.12882804
v -0.23818784 0.37402492 -0.14436765
v -0.23326347 0.32187159 -0.13562590
v -0.24418375 0.36364868 -0.15328983
v -0.25616948 0.38146246 -0.16944437
v -0.24346470 0.38086861 -0.15223048
v -0.28831774 0.37953950 -0.22175849
v -0.25888930 0.38782944 -0.17322980
v -0.25068148 0.39250825 -0.16528889
v -0.24682368 0.38844273 -0.15883301
v -0.26511851 0.39938350 -0.18638400
v -0.23092385 0.29322399 -0.13015129
v -0.24717304 0.37067853 -0.15675218
v -0.24077228 0.35525158 -0.14951685
v -0.25360724 0.39521800 -0.16967125
v -0.24836875 0.39061624 -0.16096625
v -0.22869316 0.30886391 -0.12617759
v -0.24912647 0.37198637 -0.16232994
v -0.26833275 0.37798711 -0.19495036
v -0.26510208 0.38223750 -0.18620878
v -0.31230415 0.34514718 -0.23362121
v -0.28279926 0.40205924 -0.19369625
v -0.27292401 0.40587899 -0.17865500
v -0.31192950 0.32524049 -0.23529875
v -0.30051801 0.38174200 -0.21746400
v -0.29140837 0.39370600 -0.20666962
v -0.30481650 0.37148451 -0.22360400
v -0.30820550 0.35989249 -0.22848900
v -0.30260551 0.37655550 -0.22069199
v -0.23292518 0.35693351 -0.13524282
v -0.23704286 0.37162637 -0.14194993
v -0.23586480 0.36778337 -0.14053938
v -0.23076973 0.34607088 -0.13144297
v -0.22846059 0.32653773 -0.12732589
v -0.23985438 0.37826367 -0.14742571
v -0.24150865 0.38160515 -0.14942272
v -0.24903701 0.38837551 -0.14951925
v -0.24476725 0.38567575 -0.15225674
v -0.25660449 0.39626901 -0.15688850
v -0.26397937 0.40196588 -0.16679712
v -0.30558508 0.35573839 -0.23030970
v -0.30031133 0.34987582 -0.23562849
v -0.30538174 0.33554971 -0.23641940
v -0.30092645 0.37143257 -0.22378914
v -0.30744467 0.33910425 -0.23447470
v -0.30464152 0.36690708 -0.22540389
v -0.30013585 0.37842182 -0.21926472
v -0.29211770 0.37129084 -0.22742295
v -0.29659176 0.38308139 -0.21600443
v -0.29172701 0.39082000 -0.20972399
v -0.29586601 0.38920501 -0.21161801
v -0.28691440 0.39639599 -0.20250604
v -0.28111394 0.40019994 -0.19485833
v -0.28351743 0.39683402 -0.20156271
v -0.28539295 0.39862119 -0.19903914
v -0.28265921 0.39097954 -0.21144834
v -0.27413365 0.40268124 -0.18509663
v -0.25095815 0.39300780 -0.16149570
f 18 14 16
f 24 14 18
f 20 24 18
f 27 24 20
f 28 24 27
f 20 18 21
f 21 42 20
f 62 42 21
f 75 42 62
f 42 75 64
f 51 42 64
f 51 57 42
f 97 57 51
f 97 41 57
f 57 41 59
f 59 32 57
f 59 66 32
f 31 32 66
f 30 31 66
f 40 30 66
f 40 29 30
f 40 13 29
f 33 13 40
f 38 33 40
f 43 38 40
f 55 43 40
f 45 43 55
f 96 45 55
f 93 43 45
f 93 44 43
f 93 46 44
f 95 44 46
f 95 47 44
f 94 47 95
f 94 65 47
f 65 98 47
f 98 69 47
f 99 69 98
f 101 69 99
f 101 73 69
f 69 39 47
f 34 39 69
f 71 34 69
f 69 73 71
f 72 71 73
f 61 71 72
f 61 63 71
f 71 63 60
f 60 37 71
f 71 37 68
f 37 83 68
f 68 83 11
f 83 10 11
f 10 83 9
f 9 83 8
f 83 7 8
f 83 82 7
f 82 83 50
f 49 50 83
f 49 37 50
f 36 50 37
f 36 48 50
f 50 48 5
f 50 5 6
f 50 6 7
f 5 48 17
f 48 53 17
f 52 53 48
f 63 52 48
f 58 52 63
f 56 52 58
f 63 48 35
f 53 111 17
f 53 70 111
f 111 70 107
f 111 107 17
f 17 107 104
f 109 104 107
f 110 109 107
f 112 110 107
f 112 114 110
f 113 114 112
f 113 112 70
f 52 113 70
f 89 113 52
f 119 89 52
f 119 115 89
f 117 115 119
f 116 117 119
f 116 119 58
f 58 119 56
f 58 63 116
f 120 116 63
f 86 116 120
f 61 86 120
f 74 61 120
f 103 86 61
f 78 103 61
f 121 103 78
f 102 103 121
f 100 102 121
f 73 100 121
f 73 121 79
f 121 72 79
f 100 73 101
f 121 78 72
f 116 86 118
f 74 120 63
f 116 115 117
f 116 118 115
f 118 89 115
f 85 89 118
f 114 88 110
f 110 88 92
f 110 92 109
f 109 92 90
f 109 90 91
f 109 91 84
f 109 84 104
f 104 84 108
f 106 104 108
f 108 87 106
f 106 87 1
f 2 106 1
f 17 106 2
f 1 87 3
f 104 106 105
f 84 87 108
f 105 17 104
f 112 107 70
f 52 70 53
f 35 48 36
f 35 36 37
f 82 50 7
f 39 68 11
f 81 39 11
f 39 81 76
f 67 76 81
f 67 81 13
f 81 12 13
f 67 13 77
f 38 67 77
f 47 67 38
f 77 13 38
f 47 76 67
f 81 11 12
f 37 49 83
f 60 35 37
f 60 63 35
f 71 68 34
f 34 68 39
f 47 39 76
f 44 47 38
f 55 40 41
f 54 55 41
f 41 40 66
f 44 38 43
f 38 13 33
f 57 32 25
f 41 66 59
f 80 97 51
f 57 25 42
f 25 26 42
f 26 20 42
f 24 22 14
f 22 23 14
f 14 23 19
f 23 4 19
f 19 4 15
f 14 19 15

