v 0.0870117 0.345641 -0.247473
v -0.172821 0.344631 -0.265801
v -0.180761 0.353952 -0.264275
v -0.164891 0.335304 -0.267339
v 0.11911 0.336395 -0.240565
v 0.0291735 0.357786 -0.227506
v -0.17513 0.356814 -0.253773
v -0.1563 0.326667 -0.269538
v -0.159642 0.337885 -0.256643
v -0.167347 0.347375 -0.255229
v -0.151056 0.329544 -0.258417
v 0.0202742 0.356426 -0.241159
v -0.156246 0.339175 -0.24484
v -0.146784 0.331634 -0.246521
v -0.140922 0.315311 -0.290501
v -0.141813 0.320617 -0.281627
v -0.130108 0.320036 -0.289691
v -0.130239 0.325112 -0.280759
v -0.150503 0.323632 -0.271147
v -0.15346 0.316341 -0.281611
v -0.152178 0.310181 -0.290856
v -0.145692 0.328136 -0.259944
v -0.118424 0.324369 -0.288167
v -0.144654 0.324744 -0.270994
v -0.118768 0.329361 -0.2791
v -0.133235 0.328841 -0.269662
v -0.107189 0.333269 -0.276895
v -0.104045 0.328535 -0.287824
v -0.121788 0.332933 -0.2678
v -0.0955481 0.336781 -0.274388
v -0.051591 0.355044 -0.235055
v -0.0141056 0.355287 -0.248458
v -0.128248 0.336774 -0.244711
v -0.0923816 0.332301 -0.285439
v -0.0807332 0.335588 -0.282918
v -0.110322 0.336791 -0.265502
v -0.0987343 0.340347 -0.263013
v -0.0838958 0.340064 -0.271845
v -0.139449 0.332712 -0.247265
v -0.124812 0.335408 -0.256308
v -0.13607 0.331418 -0.258547
v -0.0690726 0.338619 -0.280313
v -0.0721814 0.343004 -0.269196
v -0.142918 0.333224 -0.236035
v -0.0573523 0.341472 -0.277765
v -0.0544849 0.335527 -0.28826
v -0.113361 0.339167 -0.253868
v -0.0870933 0.343542 -0.260406
v -0.0604524 0.345817 -0.26653
v -0.131893 0.337294 -0.233075
v -0.0939442 0.347336 -0.236933
v -0.105431 0.343974 -0.239574
v -0.116917 0.340612 -0.242214
v -0.0455848 0.344163 -0.275174
v -0.0311062 0.34098 -0.283313
v -0.0428545 0.338616 -0.28589
v -0.066141 0.332651 -0.290757
v -0.101826 0.342816 -0.251349
v -0.0902699 0.345841 -0.248628
v -0.0636708 0.349045 -0.255007
v -0.0193062 0.342966 -0.280797
v -0.0754102 0.346409 -0.257727
v -0.0486241 0.348302 -0.263896
v -0.0338047 0.346347 -0.272538
v 0.0044312 0.357784 -0.232936
v 0.0200307 0.359197 -0.219445
v -0.066969 0.351302 -0.243231
v -0.0786589 0.348692 -0.245915
v -0.0518107 0.351407 -0.252297
v -0.0375449 0.350412 -0.261093
v 0.119291 0.336555 -0.234044
v -0.0822219 0.350266 -0.234175
v -0.0272341 0.352513 -0.257058
v -0.0232888 0.349595 -0.266108
v 0.107876 0.340724 -0.238502
v -0.0697573 0.353213 -0.229613
v -0.0565445 0.353331 -0.240012
v -0.0404244 0.353521 -0.249514
v 0.0790438 0.3487 -0.237955
v -0.01175 0.351294 -0.263063
v -0.0514872 0.355823 -0.229903
v -0.0320408 0.355246 -0.24411
v -0.00178673 0.354095 -0.253505
v -0.0124859 0.353455 -0.255651
v -0.0100854 0.356606 -0.240114
v -0.0520184 0.356391 -0.224711
v -0.0249832 0.356643 -0.239063
v 0.0257052 0.35505 -0.242589
v -0.163963 0.348681 -0.243588
v -0.0201198 0.356482 -0.241175
v -0.0212281 0.357695 -0.233531
v -0.0254546 0.357102 -0.23605
v 0.110105 0.341047 -0.221186
v 0.0969573 0.342571 -0.249749
v 0.116741 0.336732 -0.245837
v 0.04746 0.35534 -0.233126
v 0.0286699 0.358985 -0.215357
v 0.0120775 0.359092 -0.222811
v 0.0946044 0.344693 -0.242501
v 0.0469439 0.354231 -0.240733
v 0.0353151 0.354555 -0.244681
v 0.0219802 0.355652 -0.244894
v 0.0249526 0.35713 -0.234478
v 0.0154547 0.357991 -0.23108
v 0.0367078 0.355822 -0.237497
v -0.0187853 0.356685 -0.24014
f 3 7 10 2
f 10 9 4 2
f 9 11 8 4
f 10 89 13 9
f 13 14 11 9
f 21 20 16 15
f 16 18 17 15
f 20 19 24 16
f 24 26 18 16
f 18 25 23 17
f 26 29 25 18
f 41 26 24 22
f 25 27 28 23
f 29 36 27 25
f 41 40 29 26
f 36 37 30 27
f 30 34 28 27
f 40 47 36 29
f 37 48 38 30
f 38 35 34 30
f 40 41 39 33
f 39 44 50 33
f 53 47 40 33
f 38 43 42 35
f 47 58 37 36
f 58 59 48 37
f 48 62 43 38
f 43 49 45 42
f 45 46 57 42
f 62 60 49 43
f 49 63 54 45
f 54 56 46 45
f 53 52 58 47
f 59 68 62 48
f 60 69 63 49
f 59 58 52 51
f 72 68 59 51
f 63 70 64 54
f 64 55 56 54
f 64 74 61 55
f 62 68 67 60
f 67 77 69 60
f 69 78 70 63
f 70 73 74 64
f 68 72 76 67
f 77 31 78 69
f 78 82 73 70
f 86 81 31 77
f 31 81 82 78
f 2 2 2 2
f 71 5 95 94
f 2 2 2 2
f 2 2 2 2
f 2 2 2 2
f 88 102 103 6
f 92 91 106 90
f 101 88 105 100
f 85 32 106 91
f 65 102 88 85
f 66 103 104 98
f 4093935729 3213553389 1778932944 1071034135
f 102 12 104 103
f 66 97 6 103
f 84 83 88 80
