# https://github.com/mikedh/trimesh
v 0.31065300 0.41766301 -0.26355100
v 0.12062600 0.20465050 -0.20905301
v 0.10865050 0.23161700 -0.22407250
v 0.08022200 0.26550000 -0.24688750
v 0.14426514 0.21138563 -0.23167544
v 0.13680346 0.22301607 -0.23527706
v 0.12824348 0.20496106 -0.21414370
v 0.14573259 0.21810338 -0.23893584
v 0.15507150 0.21774261 -0.24962368
v 0.14933426 0.21714896 -0.24191068
v 0.14902381 0.23341882 -0.25910576
v 0.16008978 0.20824571 -0.24650858
v 0.13882751 0.23968820 -0.25453203
v 0.16576160 0.21129181 -0.25915074
v 0.15634782 0.22905820 -0.26474362
v 0.12557543 0.23335848 -0.23618884
v 0.13320045 0.23725011 -0.24605572
v 0.12649909 0.22421436 -0.22821481
v 0.13821628 0.24984988 -0.26705157
v 0.12920037 0.25551146 -0.26440042
v 0.12669601 0.25820500 -0.26664501
v 0.12023700 0.25791250 -0.26022901
v 0.11794078 0.23970365 -0.23698165
v 0.11730000 0.25254801 -0.25083500
v 0.10951900 0.24590900 -0.23846949
v 0.12350226 0.25732925 -0.26244151
v 0.11781063 0.22505040 -0.22326563
v 0.19206052 0.16243488 -0.26256131
v 0.19981157 0.13969710 -0.26128021
v 0.17649048 0.19236622 -0.25812362
v 0.16339021 0.22562251 -0.27400694
v 0.20259552 0.13693445 -0.27176502
v 0.20224945 0.13550250 -0.26753273
v 0.19708190 0.16114096 -0.29258864
v 0.19763675 0.16196802 -0.29679604
v 0.20312975 0.14588750 -0.29664675
v 0.18593940 0.19350122 -0.29911765
v 0.18983050 0.18238147 -0.29735766
v 0.19493550 0.17287975 -0.30009949
v 0.21018980 0.11475095 -0.28918071
v 0.20572204 0.12613791 -0.27360867
v 0.20842243 0.11201487 -0.26866710
v 0.20408958 0.13885108 -0.29053710
v 0.20134220 0.14234920 -0.27351443
v 0.19599280 0.16015219 -0.27854984
v 0.18954437 0.17412596 -0.27274297
v 0.17490690 0.21488180 -0.29402392
v 0.18353490 0.18797107 -0.27382661
v 0.18463052 0.19342229 -0.29423616
v 0.20808600 0.12224000 -0.28711700
v 0.20547478 0.13593221 -0.29353897
v 0.21472131 0.09126146 -0.28369570
v 0.21897043 0.06443961 -0.27802862
v 0.21826814 0.06905965 -0.27828769
v 0.20848706 0.09352590 -0.25255128
v 0.21055649 0.09558963 -0.26217479
v 0.20488539 0.12179362 -0.26194766
v 0.22186952 0.05271048 -0.28248235
v 0.19646201 0.15682000 -0.27373701
v 0.19454174 0.16065218 -0.27039288
v 0.21364622 0.09871268 -0.28712515
v 0.21932884 0.06985260 -0.28523850
v 0.20271056 0.14433634 -0.29251806
v 0.20958050 0.12099751 -0.29370675
v 0.21585700 0.09203500 -0.28989500
v 0.20809225 0.12741500 -0.29450325
v 0.17447863 0.21829452 -0.29836825
v 0.18760281 0.17027272 -0.25921099
v 0.18054487 0.19164294 -0.26845569
v 0.18562400 0.18004136 -0.26747562
v 0.16841706 0.23035961 -0.29783212
v 0.16613136 0.23532758 -0.29858573
v 0.17058957 0.21369778 -0.27382057
v 0.15952871 0.24254839 -0.29464113
v 0.15603191 0.24276965 -0.28660887
v 0.14946784 0.24213713 -0.27196816
v 0.14122656 0.25263449 -0.27605961
v 0.14528087 0.25601167 -0.28965628
v 0.14889612 0.25705921 -0.29647425
v 0.14573149 0.25804716 -0.29363685
v 0.12943400 0.26622850 -0.28531650
v 0.18229400 0.20561101 -0.30139300
v 0.17620100 0.21906801 -0.30137101
v 0.18911000 0.18795601 -0.30056900
v 0.12449100 0.26280800 -0.27197000
v 0.13042349 0.26879300 -0.29084037
v 0.15920012 0.24627585 -0.29836572
v 0.15771224 0.25322275 -0.30137251
v 0.17351000 0.22537200 -0.30152601
v 0.13604209 0.26657848 -0.29426248
v 0.16761300 0.23700450 -0.30147525
v 0.13128199 0.27008300 -0.29336175
v 0.13465724 0.27142301 -0.29728175
v 0.16018300 0.24970800 -0.30139601
v 0.15143143 0.25754291 -0.29915704
v 0.14277788 0.26907063 -0.30041449
v 0.13756400 0.27101901 -0.29869300
v 0.14798525 0.26398063 -0.30070050
v 0.14361135 0.30598034 -0.29600948
v 0.10756840 0.31819727 -0.29899917
v 0.12571000 0.31143350 -0.29860900
v 0.14984375 0.30021050 -0.29896150
v 0.21372651 0.35802150 -0.28920950
v 0.17117575 0.31918526 -0.29373900
v 0.23763100 0.38282300 -0.28382201
v 0.24335399 0.37578775 -0.28852999
v 0.25281200 0.37546200 -0.29040399
v 0.15543800 0.30024801 -0.29876000
v 0.16454849 0.30456200 -0.29830601
v 0.27342862 0.39333825 -0.28381375
v 0.30054212 0.41253750 -0.27044463
v 0.33356184 0.35808334 -0.27921735
v 0.33223946 0.36650019 -0.27577051
v 0.32872974 0.37723430 -0.27522151
v 0.33311779 0.35193215 -0.28194548
v 0.33108899 0.36431500 -0.27976701
v 0.32376701 0.39392099 -0.27152199
v 0.32870701 0.37442699 -0.27715099
v 0.32758974 0.27739450 -0.27396301
v 0.32562499 0.26767651 -0.26883026
v 0.33255200 0.30687701 -0.28387450
v 0.32720150 0.28504949 -0.27888825
v 0.33382800 0.31608650 -0.28480300
v 0.33433599 0.32288525 -0.28463150
v 0.33198300 0.34853700 -0.28388301
v 0.21128615 0.11702290 -0.29492227
v 0.20875356 0.13051749 -0.29762519
v 0.21316776 0.11165375 -0.29535550
v 0.20701950 0.14033450 -0.29959400
v 0.19882300 0.16903999 -0.30229101
v 0.18534891 0.20833586 -0.30440825
v 0.19087520 0.19282785 -0.30377133
v 0.17656787 0.22311956 -0.30307469
v 0.13265489 0.27555664 -0.29918806
v 0.16315564 0.24958129 -0.30306358
v 0.16350937 0.25334357 -0.30419235
v 0.14768032 0.27004568 -0.30283111
v 0.13090411 0.27973262 -0.30035903
v 0.17617285 0.23875684 -0.30561595
v 0.13020733 0.28383952 -0.30161323
v 0.14021008 0.28007871 -0.30298123
v 0.11924574 0.28628695 -0.29963204
v 0.17782360 0.25078636 -0.30648194
v 0.12275119 0.29192118 -0.30216572
v 0.12523911 0.29402872 -0.30281562
v 0.16393997 0.25953744 -0.30525902
v 0.11118548 0.29654039 -0.30149580
v 0.10245301 0.30173720 -0.30198823
v 0.09028364 0.30910787 -0.30271496
v 0.08135087 0.30723777 -0.30172523
v 0.05421791 0.31155622 -0.30177809
v 0.05580038 0.30831878 -0.30065101
v 0.04393328 0.30724761 -0.29963554
v 0.10977931 0.28972558 -0.29859207
v 0.10135672 0.29592899 -0.29957300
v 0.08313465 0.30228707 -0.30007737
v 0.05981966 0.30415866 -0.29896452
v 0.08814486 0.29351627 -0.29617839
v 0.09595570 0.29241845 -0.29686870
v 0.07395192 0.29767050 -0.29658197
v 0.04489103 0.29898094 -0.29493961
v 0.11944110 0.28178706 -0.29724233
v 0.03367488 0.28884526 -0.28252103
v 0.06495132 0.28431258 -0.27578378
v 0.04686108 0.28408533 -0.26956483
v 0.03723664 0.28400795 -0.26727597
v 0.02405139 0.29073873 -0.28550311
v 0.06252294 0.28605453 -0.28076188
v 0.04580681 0.29009750 -0.28638966
v 0.08828325 0.27923512 -0.27419922
v 0.07686866 0.28583407 -0.28482667
v 0.07041378 0.27995290 -0.26617542
v 0.08473564 0.27756289 -0.26732568
v 0.07057490 0.28862475 -0.28814667
v 0.08351092 0.27416808 -0.26011113
v 0.11099893 0.27744515 -0.28828169
v 0.10314648 0.27693488 -0.27970255
v 0.11311086 0.27135063 -0.27642430
v 0.08797865 0.26968306 -0.25529726
v 0.10286375 0.27020041 -0.26496902
v 0.11078791 0.25568232 -0.25002771
v 0.10205814 0.25393797 -0.24254711
v 0.10019298 0.28299546 -0.29009042
v 0.04095766 0.29223122 -0.28880096
v 0.09701234 0.25743927 -0.24397058
v 0.02684500 0.29308701 -0.28890401
v 0.10131157 0.26674781 -0.25836747
v 0.11833803 0.26318115 -0.26588343
v 0.12320200 0.26102400 -0.26748401
v 0.12372444 0.27086708 -0.28753138
v 0.10774087 0.25200512 -0.24379538
v 0.06165326 0.29204119 -0.29078318
v 0.12280046 0.27371469 -0.29147925
v 0.01234188 0.29384090 -0.28926827
v 0.11526156 0.28024952 -0.29405590
v 0.07668907 0.28980206 -0.29094798
v 0.09841462 0.29043874 -0.29623606
v 0.06919110 0.29386253 -0.29336430
v 0.03928900 0.29692501 -0.29313299
v 0.03115139 0.29515996 -0.29118727
v 0.03607474 0.29818336 -0.29391152
v 0.10089307 0.28773912 -0.29484025
v 0.13675236 0.29201571 -0.30336570
v 0.12692549 0.29864561 -0.30313625
v 0.14963914 0.28561663 -0.30409018
v 0.15917564 0.28685624 -0.30356328
v 0.15796439 0.27681241 -0.30505040
v 0.21973682 0.30068040 -0.30577463
v 0.19951681 0.28368907 -0.30625974
v 0.24244406 0.31725525 -0.30498544
v 0.21325885 0.30685951 -0.30470162
v 0.19744282 0.29707851 -0.30485482
v 0.17595054 0.28266553 -0.30516170
v 0.24665000 0.32761100 -0.30370900
v 0.24218894 0.33333678 -0.30256588
v 0.25058598 0.33285091 -0.30306389
v 0.18581930 0.29664903 -0.30383948
v 0.16684972 0.26384130 -0.30598369
v 0.18023769 0.26664651 -0.30656559
v 0.19113636 0.27140664 -0.30665969
v 0.18668000 0.22786450 -0.30613700
v 0.21095319 0.27561731 -0.30632682
v 0.25059651 0.31265453 -0.30548616
v 0.22871290 0.29336667 -0.30610188
v 0.18816200 0.23581651 -0.30634799
v 0.19957100 0.24786000 -0.30581599
v 0.24957455 0.30148364 -0.30564254
v 0.26402650 0.31952586 -0.30454762
v 0.16868076 0.28893506 -0.30364470
v 0.13560120 0.28787081 -0.30316617
v 0.22659633 0.27862188 -0.30547466
v 0.07608313 0.31692494 -0.30312676
v 0.09930194 0.30956264 -0.30317243
v 0.26900534 0.32731007 -0.30374869
v 0.26535782 0.30596073 -0.30456550
v 0.27348173 0.31393845 -0.30387431
v 0.18551099 0.21806800 -0.30555499
v 0.26178938 0.32895020 -0.30390252
v 0.26970412 0.34031890 -0.30179253
v 0.28024659 0.34068392 -0.30121881
v 0.27274365 0.33652677 -0.30233717
v 0.25563531 0.34018036 -0.30182584
v 0.28523487 0.32582425 -0.30219949
v 0.11476346 0.30721952 -0.30290493
v 0.20795302 0.25915885 -0.30557297
v 0.19157575 0.24865950 -0.30633075
v 0.25266342 0.29522506 -0.30514665
v 0.24520222 0.28441202 -0.30458862
v 0.30265652 0.34563588 -0.29675377
v 0.20987224 0.24808134 -0.30427557
v 0.29456641 0.34021479 -0.29918911
v 0.25734340 0.35068953 -0.29936256
v 0.28819280 0.31604222 -0.30175008
v 0.27148400 0.35548695 -0.29838253
v 0.27513310 0.35018810 -0.29963072
v 0.28367129 0.35256835 -0.29849265
v 0.22048108 0.32898121 -0.30105740
v 0.21800511 0.32247179 -0.30252821
v 0.22336441 0.34202318 -0.29786922
v 0.17882069 0.31972827 -0.29563100
v 0.23160686 0.36196244 -0.29220563
v 0.24251614 0.36678680 -0.29230487
v 0.22316328 0.36357675 -0.28949247
v 0.21358559 0.34845995 -0.29346941
v 0.17985205 0.31118601 -0.29915523
v 0.16180806 0.29478858 -0.30134823
v 0.17798214 0.30010849 -0.30219322
v 0.25160722 0.35895194 -0.29652843
v 0.23159505 0.35288999 -0.29566249
v 0.24140503 0.35111959 -0.29771641
v 0.23449086 0.33529975 -0.30133291
v 0.27642335 0.36377203 -0.29582531
v 0.14940313 0.29153999 -0.30286534
v 0.29072132 0.36189191 -0.29521719
v 0.29356116 0.35012505 -0.29774365
v 0.29580459 0.33242693 -0.29991514
v 0.26607124 0.36057213 -0.29695423
v 0.25870106 0.36125923 -0.29636887
v 0.25619051 0.37043434 -0.29296025
v 0.30158098 0.34978808 -0.29614880
v 0.29881330 0.36500727 -0.29302627
v 0.28592043 0.36602322 -0.29460458
v 0.28051338 0.37841841 -0.29062385
v 0.26528208 0.29326984 -0.30343160
v 0.26978503 0.30134122 -0.30373290
v 0.28394788 0.30719106 -0.30207892
v 0.27382422 0.38369141 -0.28865414
v 0.20312801 0.24754650 -0.30535700
v 0.10007458 0.31307900 -0.30268491
v 0.29135400 0.37502301 -0.29087600
v 0.30851790 0.33514293 -0.29669350
v 0.29912940 0.32095637 -0.29964202
v 0.31384578 0.33637064 -0.29484363
v 0.20521800 0.24417201 -0.30482700
v 0.30448655 0.36203049 -0.29261670
v 0.15499157 0.29329764 -0.30168912
v 0.29051064 0.37844581 -0.28976111
v 0.30073879 0.37272454 -0.29016870
v 0.29718828 0.37812033 -0.28886394
v 0.31006004 0.35912310 -0.29201519
v 0.21154700 0.23829000 -0.30271225
v 0.30837198 0.36533791 -0.29071753
v 0.27641683 0.29590414 -0.30186890
v 0.14207554 0.29498501 -0.30281090
v 0.31455091 0.34932079 -0.29270383
v 0.31332252 0.34586635 -0.29374351
v 0.21762920 0.26077207 -0.30434723
v 0.28500474 0.38772143 -0.28659062
v 0.29921057 0.31077272 -0.29897032
v 0.29810890 0.30727472 -0.29884068
v 0.15103217 0.29638427 -0.30067111
v 0.30312446 0.38822905 -0.28372338
v 0.31514623 0.32753166 -0.29497989
v 0.28066626 0.39283171 -0.28450980
v 0.28489543 0.29678548 -0.30028924
v 0.21727935 0.24280711 -0.30129164
v 0.29833742 0.30291457 -0.29815767
v 0.32132399 0.33713400 -0.29190800
v 0.29125799 0.39760753 -0.28113673
v 0.29844158 0.39205831 -0.28285843
v 0.10571500 0.31416216 -0.30188204
v 0.11288770 0.31177905 -0.30195635
v 0.31172299 0.38890472 -0.28059364
v 0.32152488 0.36645755 -0.28558230
v 0.26727240 0.28671838 -0.30172046
v 0.23269615 0.26285197 -0.30174536
v 0.31678891 0.31558016 -0.29399564
v 0.30563700 0.30668101 -0.29659599
v 0.31874417 0.32201898 -0.29380771
v 0.32340301 0.33457905 -0.29130291
v 0.08003944 0.32157291 -0.30149105
v 0.13874153 0.30129010 -0.30103406
v 0.30673771 0.31533624 -0.29746157
v 0.30805359 0.29763210 -0.29398650
v 0.21813634 0.25439013 -0.30319004
v 0.29437712 0.40426506 -0.27702815
v 0.32390088 0.35343296 -0.28811850
v 0.32031815 0.35164453 -0.29007486
v 0.31484759 0.37654151 -0.28480978
v 0.31003075 0.39891388 -0.27616908
v 0.31213212 0.30789835 -0.29467941
v 0.31654765 0.39216697 -0.27706152
v 0.27766722 0.28260307 -0.29818757
v 0.28281058 0.28827870 -0.29880582
v 0.32265823 0.31353083 -0.29144316
v 0.32770554 0.32842341 -0.28963577
v 0.30440126 0.40856583 -0.27226487
v 0.22358666 0.25125251 -0.30082671
v 0.31582421 0.39886932 -0.27376729
v 0.32492834 0.34048076 -0.29007985
v 0.31975065 0.37985516 -0.28122448
v 0.29890434 0.28959947 -0.29458398
v 0.32980464 0.35886151 -0.28333213
v 0.30132222 0.29665648 -0.29589517
v 0.21916001 0.23086500 -0.29871199
v 0.30969165 0.40806481 -0.27083919
v 0.31498581 0.41031077 -0.26710868
v 0.33050664 0.31491448 -0.28731463
v 0.23041201 0.25035399 -0.29805699
v 0.30523827 0.28635709 -0.29122492
v 0.30977864 0.41404013 -0.26675975
v 0.31752147 0.30089865 -0.29100924
v 0.32586995 0.30205803 -0.28740404
v 0.28844068 0.28050194 -0.29442693
v 0.22365912 0.23820930 -0.29730006
v 0.23397326 0.25798688 -0.29976751
v 0.22708514 0.24480476 -0.29753315
v 0.22465563 0.22758637 -0.29427563
v 0.32931914 0.30732264 -0.28648835
v 0.31602106 0.28579168 -0.28623528
v 0.28140212 0.27398554 -0.29363846
v 0.30828199 0.28194401 -0.28781700
v 0.33033775 0.32895457 -0.28798552
v 0.27935042 0.26683888 -0.29029924
v 0.29352314 0.26909863 -0.28677198
v 0.32282465 0.28747039 -0.28318212
v 0.23927604 0.25526485 -0.29669673
v 0.33025141 0.30502685 -0.28536875
v 0.32748818 0.36736178 -0.28186396
v 0.31884890 0.28049689 -0.28201619
v 0.31086200 0.27937099 -0.28531101
v 0.22834053 0.24181367 -0.29546026
v 0.30103634 0.27413466 -0.28676861
v 0.32319084 0.38728161 -0.27603102
v 0.24312037 0.24870254 -0.29134632
v 0.25572121 0.25515933 -0.29076689
v 0.32718133 0.29023494 -0.28170380
v 0.30526288 0.26661793 -0.28006516
v 0.29658699 0.26509300 -0.28254700
v 0.32125605 0.27542267 -0.27745874
v 0.31247699 0.26644590 -0.27638202
v 0.29705100 0.25622000 -0.27507501
v 0.31254751 0.25815731 -0.26913299
v 0.29445934 0.25908286 -0.27894962
v 0.26552031 0.25262488 -0.28485456
v 0.24611787 0.24641009 -0.28805193
v 0.23302193 0.23902968 -0.29128696
v 0.22976251 0.23360901 -0.29121624
v 0.23144478 0.22818365 -0.28749487
v 0.32270738 0.27298964 -0.27513214
v 0.25502287 0.25046905 -0.28718687
v 0.22902000 0.22461500 -0.28957500
v 0.25900650 0.24380149 -0.27856800
v 0.31606400 0.26116601 -0.26991799
v 0.32458106 0.27102898 -0.27223328
v 0.32020200 0.26236050 -0.26840000
v 0.22360725 0.23014625 -0.29535649
v 0.23510166 0.23225520 -0.28523109
v 0.23348075 0.22186100 -0.28326300
v 0.23834313 0.23648086 -0.28489106
v 0.24646582 0.24455064 -0.28597142
v 0.25028801 0.24078900 -0.28005901
v 0.24744600 0.23978201 -0.28085101
v 0.23815383 0.22950367 -0.27959730
v 0.24341325 0.23390650 -0.27797200
v 0.23485300 0.22362200 -0.28144149
v 0.23753500 0.22592300 -0.27836299
v 0.24119601 0.23135300 -0.27769601
v 0.24209700 0.22458500 -0.27114150
v 0.25367051 0.20550000 -0.26296250
v 0.24963750 -0.06233400 -0.30128900
v 0.25966450 -0.07609800 -0.30369000
v 0.26822251 -0.07939550 -0.30282950
v 0.31690100 0.02673600 -0.21810900
v 0.29956201 0.01885000 -0.21357900
v 0.30060037 0.01441438 -0.22165700
v 0.30402201 0.02008919 -0.22466710
v 0.30324352 0.01798944 -0.22963954
v 0.30153600 0.01511825 -0.23747450
v 0.30694185 0.02313197 -0.22294752
v 0.30348950 0.02205432 -0.21741282
v 0.30109011 0.02186332 -0.21271507
v 0.30959621 0.02488975 -0.23252596
v 0.30478500 0.02171941 -0.23811985
v 0.32181512 0.02879895 -0.22765893
v 0.32096100 0.02863400 -0.22326399
v 0.30654710 0.02418380 -0.23950884
v 0.30838063 0.02913308 -0.24724062
v 0.31184199 0.02667179 -0.23489502
v 0.31121728 0.03387340 -0.25131728
v 0.30196446 0.01957626 -0.24259544
v 0.32059895 0.02972780 -0.23431750
v 0.32793551 0.03452112 -0.23877680
v 0.32752600 0.03314800 -0.23364300
v 0.32552299 0.03143800 -0.23010699
v 0.33142380 0.03968501 -0.24480004
v 0.32770164 0.03743182 -0.24423919
v 0.30658099 0.03134200 -0.25220099
v 0.30393773 0.03944662 -0.26216154
v 0.30330447 0.02562518 -0.24862397
v 0.33405517 0.04466680 -0.24890279
v 0.33807993 0.04961908 -0.25013411
v 0.30336187 0.04487975 -0.26662986
v 0.31973167 0.04547069 -0.25772383
v 0.29686802 0.02336256 -0.25584676
v 0.29519471 0.03310800 -0.26422673
v 0.30059333 0.02557582 -0.25260050
v 0.28820300 0.03856300 -0.27191201
v 0.31506500 0.05388000 -0.26551801
v 0.32258400 0.05535450 -0.26236151
v 0.34048100 0.06066175 -0.25421876
v 0.33779601 0.05167948 -0.25219069
v 0.33683001 0.05701650 -0.25553801
v 0.29224650 0.02503050 -0.26198950
v 0.29976791 0.01689155 -0.24631793
v 0.33697012 0.04413359 -0.24538598
v 0.29656100 0.01667400 -0.25310649
v 0.29810899 0.01622250 -0.24980825
v 0.34230750 0.07279800 -0.25554000
v 0.33273343 0.10476528 -0.24155575
v 0.28120248 0.15268087 -0.18315042
v 0.28015653 0.16371667 -0.18536984
v 0.29239784 0.15643305 -0.19712090
v 0.28343249 0.15230972 -0.18656169
v 0.29040792 0.15911056 -0.19489170
v 0.31590242 0.14477707 -0.22638433
v 0.30665094 0.15418482 -0.21551070
v 0.32419584 0.13444086 -0.23540460
v 0.32043517 0.13907983 -0.23159095
v 0.31634040 0.15638772 -0.22943602
v 0.31386182 0.16617785 -0.22800139
v 0.33405075 0.13533502 -0.24983471
v 0.32735972 0.12775417 -0.23850835
v 0.33593603 0.13248222 -0.25205178
v 0.32969244 0.12036721 -0.24054987
v 0.33453586 0.11338064 -0.24546461
v 0.30698581 0.16911971 -0.21967984
v 0.32762716 0.15727198 -0.24518192
v 0.33947984 0.11502226 -0.25302476
v 0.27975008 0.17096886 -0.18897865
v 0.29286939 0.17190349 -0.20275869
v 0.33219353 0.14944493 -0.24997814
v 0.26499213 0.15779854 -0.17063563
v 0.31683493 0.16753830 -0.23327741
v 0.29808741 0.15492659 -0.20572092
v 0.26904384 0.16934617 -0.17982022
v 0.28650532 0.17040261 -0.19496660
v 0.30434913 0.17300327 -0.21853964
v 0.33448580 0.14168530 -0.25279843
v 0.32206642 0.16420748 -0.23986953
v 0.31532143 0.17144306 -0.23614387
v 0.29801675 0.17534724 -0.21243466
v 0.29212261 0.17555832 -0.20463235
v 0.31287760 0.18032795 -0.23999342
v 0.30476201 0.17621050 -0.22519600
v 0.31586991 0.17298368 -0.24010922
v 0.27931490 0.18047040 -0.19715463
v 0.29323350 0.17756950 -0.20975950
v 0.30864051 0.19185177 -0.23390235
v 0.26096741 0.16941659 -0.17523592
v 0.27801392 0.17789304 -0.19277029
v 0.27199961 0.17932247 -0.19040723
v 0.28016612 0.18242212 -0.20197025
v 0.30600476 0.20590865 -0.22763617
v 0.33017138 0.15444705 -0.24881227
v 0.30595350 0.22983801 -0.22483151
v 0.32622042 0.16091700 -0.24677193
v 0.34046660 0.11224770 -0.25639186
v 0.32796150 0.15774450 -0.25023800
v 0.30533600 0.21320400 -0.22745000
v 0.30656626 0.20150400 -0.23091325
v 0.31682277 0.17246947 -0.24377622
v 0.30876201 0.18998300 -0.23780400
v 0.33191100 0.14923300 -0.25300401
v 0.34132651 0.10472300 -0.25761399
v 0.33280700 0.14637600 -0.25392601
v 0.33496450 0.13826400 -0.25543250
v 0.33937100 0.11627300 -0.25808701
v 0.30549849 0.20956100 -0.22824700
v 0.31774199 0.17092399 -0.24654800
v 0.27413787 0.18220328 -0.19655706
v 0.24771172 0.22585669 -0.26492036
v 0.30171588 0.22635035 -0.23375285
v 0.30197425 0.22444125 -0.23179400
v 0.26301500 0.21997000 -0.24987400
v 0.25003299 0.22194500 -0.26053950
v 0.34259467 0.09493328 -0.25598628
v 0.22718650 0.13783702 -0.30167626
v 0.30121785 0.09983100 -0.28184807
v 0.29322645 0.11736674 -0.28502264
v 0.30450204 0.11688048 -0.28020207
v 0.28698958 0.12044831 -0.28714389
v 0.28994865 0.10032391 -0.28598580
v 0.30591387 0.10799161 -0.27995862
v 0.31301099 0.11232900 -0.27637300
v 0.28811201 0.10933300 -0.28678101
v 0.28228475 0.12894224 -0.28805030
v 0.29140206 0.13099339 -0.28434121
v 0.30911078 0.09484780 -0.27824268
v 0.31797439 0.10108341 -0.27420828
v 0.31916953 0.08655220 -0.27276237
v 0.31800461 0.10657945 -0.27409500
v 0.30159454 0.13223778 -0.27972767
v 0.30856054 0.12009855 -0.27810084
v 0.28736418 0.13660338 -0.28518339
v 0.22517959 0.16559321 -0.30197618
v 0.23991373 0.14110829 -0.29927392
v 0.27198917 0.12986845 -0.29131844
v 0.24590597 0.13863443 -0.29791237
v 0.28174594 0.11068809 -0.28885215
v 0.27502588 0.13505234 -0.28981735
v 0.23448820 0.15835414 -0.29977080
v 0.22385006 0.18087694 -0.30081512
v 0.21177926 0.21790133 -0.30208385
v 0.21185942 0.20615784 -0.30278879
v 0.21553228 0.17238730 -0.30371207
v 0.21498014 0.18677996 -0.30312294
v 0.20502402 0.20652867 -0.30451043
v 0.22391245 0.19298776 -0.29903688
v 0.24071848 0.16388870 -0.29719466
v 0.27423676 0.09904193 -0.29027175
v 0.26099205 0.15658888 -0.29098045
v 0.24377527 0.15964597 -0.29697739
v 0.20884648 0.23270694 -0.30330901
v 0.24883660 0.12383142 -0.29711335
v 0.25296364 0.11454504 -0.29598890
v 0.27169071 0.08102819 -0.28888280
v 0.27871541 0.07405521 -0.28601844
v 0.26296182 0.07163034 -0.28957658
v 0.26152689 0.05662953 -0.28751046
v 0.27755962 0.08125306 -0.28740408
v 0.28674738 0.07306043 -0.28342962
v 0.29364070 0.07688389 -0.28181633
v 0.28578708 0.09246447 -0.28662459
v 0.29837840 0.08719532 -0.28174800
v 0.27540699 0.10300000 -0.29017401
v 0.27008427 0.11448527 -0.29216642
v 0.25579128 0.09544226 -0.29373351
v 0.24933803 0.06280259 -0.29113615
v 0.25453506 0.05421534 -0.28908802
v 0.25313191 0.08161156 -0.29277382
v 0.23620575 0.11685518 -0.29902890
v 0.22934711 0.12743437 -0.30074610
v 0.24334732 0.08198416 -0.29438699
v 0.22114884 0.13395994 -0.30205332
v 0.21308725 0.16492196 -0.30413811
v 0.23003560 0.10662886 -0.29865278
v 0.24088214 0.06030113 -0.29221117
v 0.23837402 0.05323597 -0.29175681
v 0.24315843 0.04085889 -0.29022540
v 0.23969470 0.13417277 -0.29935682
v 0.23380824 0.14244213 -0.30052341
v 0.21788555 0.16169094 -0.30350482
v 0.20180866 0.22270408 -0.30489274
v 0.19801537 0.20834752 -0.30546094
v 0.19568403 0.23063968 -0.30593016
v 0.24956982 0.02019336 -0.28868100
v 0.24508108 0.00521883 -0.29027616
v 0.24689381 0.03476061 -0.28925425
v 0.24185718 0.02126398 -0.28988310
v 0.25108963 0.01610100 -0.28854961
v 0.26166728 0.00047227 -0.28734100
v 0.25760572 0.03431630 -0.28637319
v 0.23859518 0.03489272 -0.29038404
v 0.26115001 0.04313558 -0.28574527
v 0.26933968 0.03999207 -0.28209704
v 0.24987069 -0.00082303 -0.29053345
v 0.29541901 0.07158735 -0.28011422
v 0.30728986 0.08157459 -0.27739211
v 0.23500600 0.05389500 -0.29205925
v 0.26059401 0.01817200 -0.28520399
v 0.25449772 0.00302431 -0.28886849
v 0.25890802 0.01003912 -0.28667878
v 0.19680500 0.19738200 -0.30532101
v 0.28048000 0.06629200 -0.28392801
v 0.21658525 0.14148312 -0.30239463
v 0.27777390 0.05274409 -0.28160957
v 0.21298899 0.22902789 -0.30174392
v 0.25882030 0.02327989 -0.28567624
v 0.32301483 0.07506305 -0.26880921
v 0.26458587 0.02104420 -0.28319195
v 0.25231036 -0.01137519 -0.29225539
v 0.26298699 0.00846900 -0.28531301
v 0.30555916 0.06926010 -0.27545105
v 0.27385493 0.03804573 -0.27964533
v 0.25881035 -0.03538655 -0.29682628
v 0.26567813 0.01797950 -0.28282181
v 0.26399496 -0.00461930 -0.28764910
v 0.26375023 -0.04439335 -0.29822083
v 0.24786653 -0.02221181 -0.29478012
v 0.26924010 -0.05910827 -0.29994200
v 0.26220241 -0.05378781 -0.30029368
v 0.26989725 -0.04395096 -0.29677114
v 0.27639637 -0.04468462 -0.29500857
v 0.25567332 -0.04970860 -0.30021421
v 0.26341263 -0.02064280 -0.29232761
v 0.21780368 0.19508317 -0.30152363
v 0.27433681 -0.03645957 -0.29360522
v 0.23624231 0.00409175 -0.29032144
v 0.21661788 0.21672700 -0.29971075
v 0.27042402 0.01606744 -0.28031989
v 0.24464957 0.17201706 -0.29377791
v 0.32808641 0.08967891 -0.26841595
v 0.26964089 0.00460058 -0.28288041
v 0.23078699 0.18637700 -0.29692400
v 0.30574333 0.13915779 -0.27610150
v 0.33426259 0.09994604 -0.26484036
v 0.31302972 0.06967805 -0.27230766
v 0.28019736 -0.03617725 -0.29148652
v 0.27082830 0.04595465 -0.28264965
v 0.31500900 0.12364067 -0.27435326
v 0.32357130 0.10950560 -0.27082876
v 0.22042398 0.21070555 -0.29803947
v 0.27319344 0.01112197 -0.27937385
v 0.28015781 -0.04736369 -0.29447017
v 0.23392305 0.18049719 -0.29675190
v 0.29405891 0.14984049 -0.27892745
v 0.26744985 0.02674140 -0.28181961
v 0.27211812 -0.01737948 -0.28848220
v 0.33097500 0.07731600 -0.26482800
v 0.29374041 0.14708175 -0.27987585
v 0.27415354 0.14812991 -0.28816419
v 0.26749384 0.15841482 -0.28781708
v 0.33010530 0.06520978 -0.26249475
v 0.27952519 0.03361775 -0.27535718
v 0.33806542 0.10038296 -0.26218463
v 0.22318277 0.21111725 -0.29607973
v 0.28237653 0.04504745 -0.27747504
v 0.27477416 -0.00237503 -0.28189587
v 0.31640670 0.13473993 -0.27118323
v 0.32111872 0.12648653 -0.27010099
v 0.32886734 0.12167832 -0.26596211
v 0.31363499 0.13987599 -0.27135399
v 0.30903199 0.14407200 -0.27279299
v 0.24975575 0.17274249 -0.29111744
v 0.25082600 -0.04088800 -0.29853600
v 0.26966834 -0.00371698 -0.28510624
v 0.32186933 0.06843792 -0.26762135
v 0.22748131 0.19867455 -0.29580703
v 0.27742408 0.01778912 -0.27547256
v 0.28215855 -0.03185405 -0.28895834
v 0.27535842 0.02134338 -0.27685803
v 0.28452710 -0.02107330 -0.28345172
v 0.33848799 0.08314771 -0.26135567
v 0.25533432 -0.06203490 -0.30232683
v 0.30596617 0.14744594 -0.27346167
v 0.33682973 0.11372992 -0.26182832
v 0.28696931 0.05020688 -0.27723505
v 0.30398801 0.15252399 -0.27253401
v 0.28689132 -0.03295514 -0.28677462
v 0.30257831 0.06198245 -0.27476700
v 0.32843478 0.14203153 -0.26087834
v 0.32202899 0.14520900 -0.26404700
v 0.22609490 0.21154487 -0.29369731
v 0.33296613 0.13185746 -0.26077371
v 0.24019949 0.18066869 -0.29339516
v 0.29909285 0.15528434 -0.27408237
v 0.27037755 0.16774671 -0.28265985
v 0.28536717 0.03807385 -0.27310674
v 0.33967710 0.06804727 -0.25777481
v 0.33363814 0.05979594 -0.25878693
v 0.22241225 0.22245635 -0.29589933
v 0.23258631 0.20044155 -0.29130455
v 0.31398987 0.14715874 -0.26876692
v 0.32447600 0.14693400 -0.26163200
v 0.30772477 0.05435044 -0.26936370
v 0.24321097 0.18356412 -0.29044158
v 0.28188789 0.00722359 -0.27354882
v 0.28098811 -0.00286581 -0.27799791
v 0.29137472 0.16173167 -0.27511764
v 0.33185406 0.13761019 -0.26008210
v 0.32609198 0.14842320 -0.25983405
v 0.31230352 0.15436092 -0.26659864
v 0.26014060 0.17275904 -0.28544824
v 0.28473660 0.02481591 -0.26969895
v 0.28683602 -0.02383569 -0.28322924
v 0.28383106 -0.00077788 -0.27500083
v 0.22835972 0.20849568 -0.29232450
v 0.30507410 0.15736211 -0.26970644
v 0.25141865 0.17888605 -0.28752458
v 0.29008600 -0.01597700 -0.27701500
v 0.28156658 0.01467614 -0.27240930
v 0.31125029 0.15860080 -0.26489312
v 0.28657238 0.03021648 -0.26966787
v 0.23871918 0.19000802 -0.29064904
v 0.28820588 0.00577003 -0.26753056
v 0.29754369 -0.02079521 -0.27258370
v 0.29180397 0.01113725 -0.26117202
v 0.28556167 0.02242023 -0.26847607
v 0.26079698 0.18276911 -0.27855902
v 0.26348691 0.17743403 -0.28056558
v 0.23824872 0.19483131 -0.28853955
v 0.30530716 0.16197951 -0.26708515
v 0.28944722 0.02048738 -0.26397909
v 0.24711044 -0.04686046 -0.29897665
v 0.25027201 -0.04976300 -0.29986300
v 0.24616604 0.18893134 -0.28523242
v 0.33681398 0.12596575 -0.25891065
v 0.29377752 0.17377483 -0.26612177
v 0.22797318 0.21865959 -0.29056726
v 0.33014884 0.14840564 -0.25681894
v 0.30623155 0.17182145 -0.25907441
v 0.29976072 0.17967582 -0.25732372
v 0.29815732 0.17152860 -0.26527653
v 0.26901689 0.20947837 -0.24903676
v 0.28658752 0.19821533 -0.24882368
v 0.28404599 0.21673200 -0.24060400
v 0.29412525 0.21941924 -0.23623017
v 0.26935333 0.21693278 -0.24654685
v 0.29214608 0.21037948 -0.23825752
v 0.28335618 0.21182251 -0.24181080
v 0.29912714 0.21420587 -0.23390994
v 0.26361168 0.21373912 -0.25001923
v 0.30044501 0.21072671 -0.23392468
v 0.28718993 0.20970891 -0.24107338
v 0.29966348 0.20671270 -0.23586161
v 0.30098335 0.22036969 -0.23230517
v 0.25866582 0.21366459 -0.25321689
v 0.25338196 0.21619053 -0.25653590
v 0.28865264 0.20504065 -0.24274588
v 0.24677208 0.21560933 -0.26348566
v 0.29995992 0.19655169 -0.24207329
v 0.30308924 0.21663790 -0.23080146
v 0.24771271 0.21968638 -0.26194844
v 0.25091130 0.21239654 -0.26000921
v 0.26100475 0.20796310 -0.25462766
v 0.29680541 0.19718684 -0.24383206
v 0.29070492 0.19046912 -0.25329682
v 0.30353436 0.20961924 -0.23166884
v 0.26089638 0.20251305 -0.25938733
v 0.23722937 0.20323608 -0.28483380
v 0.24681123 0.21157846 -0.26559088
v 0.32875109 0.15412159 -0.25457051
v 0.25089081 0.18742541 -0.28244033
v 0.23776812 0.20696039 -0.28173363
v 0.23827317 0.21916415 -0.27544188
v 0.23137062 0.20974439 -0.28870159
v 0.30782452 0.17664878 -0.25351817
v 0.28135493 0.18082880 -0.26768356
v 0.27409298 0.18543188 -0.26779143
v 0.26531936 0.18921217 -0.26979989
v 0.26595538 0.20008807 -0.25803625
v 0.26321045 0.18575723 -0.27454043
v 0.25614971 0.20364739 -0.26234377
v 0.25148420 0.20601162 -0.26466827
v 0.29326083 0.01687274 -0.25857990
v 0.29439876 0.01342676 -0.25665750
v 0.23181506 0.21732431 -0.28574473
v 0.23799865 0.21149730 -0.27839261
v 0.24571989 0.19829937 -0.27830283
v 0.34219640 0.08033151 -0.25737986
v 0.25633549 0.19060711 -0.27528746
v 0.30686912 0.19535707 -0.23639075
v 0.24320256 0.19969959 -0.28013196
v 0.34108607 0.09898881 -0.25965468
v 0.30786926 0.18704500 -0.24305510
v 0.31454276 0.17176874 -0.25116406
v 0.33926308 0.11207089 -0.25990515
v 0.32638669 0.15775059 -0.25368166
v 0.29681944 0.00786908 -0.25327479
v 0.30567499 0.19993843 -0.23461008
v 0.31883497 0.16579828 -0.25326525
v 0.24378849 -0.03491350 -0.29630050
v 0.32564039 0.16078863 -0.25058315
f 566 596 568
f 567 566 568
f 566 603 596
f 605 568 596
f 567 556 566
f 565 567 568
f 556 603 566
f 603 538 596
f 604 568 605
f 596 624 605
f 647 556 567
f 647 567 565
f 564 565 568
f 556 538 603
f 538 595 596
f 628 568 604
f 606 604 605
f 596 626 624
f 605 624 606
f 563 556 647
f 650 647 565
f 650 565 564
f 628 564 568
f 556 602 538
f 593 595 538
f 596 595 626
f 574 628 604
f 574 604 606
f 606 624 225
f 563 570 556
f 569 563 647
f 663 647 650
f 650 564 628
f 602 601 538
f 601 602 556
f 538 592 593
f 593 597 595
f 595 597 626
f 628 574 301
f 301 574 606
f 226 606 225
f 570 562 556
f 570 563 569
f 663 569 647
f 663 650 712
f 712 650 628
f 601 592 538
f 557 601 556
f 592 597 593
f 597 620 626
f 355 628 301
f 301 606 294
f 226 294 606
f 562 557 556
f 570 573 562
f 666 570 569
f 677 569 663
f 712 677 663
f 355 712 628
f 575 592 601
f 557 575 601
f 592 594 597
f 598 620 597
f 250 301 294
f 573 557 562
f 652 573 570
f 655 666 569
f 652 570 666
f 677 689 569
f 712 750 677
f 368 712 355
f 575 576 592
f 559 575 557
f 591 594 592
f 594 598 597
f 598 599 620
f 250 294 288
f 316 301 250
f 573 559 557
f 652 673 573
f 689 655 569
f 666 655 689
f 706 652 666
f 689 677 704
f 750 704 677
f 750 712 368
f 587 576 575
f 576 591 592
f 587 575 559
f 594 591 598
f 598 600 599
f 599 614 620
f 250 288 246
f 335 316 250
f 316 407 301
f 558 559 573
f 673 572 573
f 708 673 652
f 689 706 666
f 685 652 706
f 704 728 689
f 750 728 704
f 402 750 368
f 587 571 576
f 588 591 576
f 558 587 559
f 591 589 598
f 590 600 598
f 599 600 614
f 250 246 245
f 335 250 307
f 348 316 335
f 316 365 407
f 672 558 573
f 572 672 573
f 673 672 572
f 724 708 652
f 708 667 673
f 735 706 689
f 724 652 685
f 717 685 706
f 787 689 728
f 798 728 750
f 402 409 750
f 576 571 588
f 586 571 587
f 571 591 588
f 542 587 558
f 591 590 589
f 590 598 589
f 590 609 600
f 600 610 614
f 245 246 222
f 307 250 245
f 326 335 307
f 367 316 348
f 326 348 335
f 367 365 316
f 398 407 365
f 672 561 558
f 667 672 673
f 708 724 741
f 720 667 708
f 713 735 689
f 735 717 706
f 724 685 730
f 730 685 717
f 787 713 689
f 798 787 728
f 798 750 409
f 560 571 586
f 560 586 587
f 571 579 591
f 547 542 558
f 542 560 587
f 579 590 591
f 590 613 609
f 609 610 600
f 610 649 614
f 231 245 222
f 222 246 220
f 307 245 231
f 326 307 248
f 359 367 348
f 326 366 348
f 382 365 367
f 398 365 382
f 398 399 407
f 547 558 561
f 555 561 672
f 667 671 672
f 741 749 708
f 741 724 730
f 707 667 720
f 754 720 708
f 742 735 713
f 735 784 717
f 784 730 717
f 742 713 787
f 786 787 798
f 786 798 409
f 543 571 560
f 577 579 571
f 548 542 547
f 540 560 542
f 580 590 579
f 590 615 613
f 613 607 609
f 608 610 609
f 610 608 649
f 227 231 222
f 224 222 220
f 220 246 143
f 247 307 231
f 247 248 307
f 326 248 325
f 377 359 348
f 359 382 367
f 371 366 326
f 377 348 366
f 397 398 382
f 410 399 398
f 399 416 407
f 561 555 547
f 672 671 555
f 671 667 656
f 754 708 749
f 749 741 789
f 741 730 784
f 699 667 707
f 743 707 720
f 754 743 720
f 742 747 735
f 784 735 747
f 781 742 787
f 799 787 786
f 419 786 409
f 560 546 543
f 543 584 571
f 571 584 577
f 578 579 577
f 548 540 542
f 555 548 547
f 540 546 560
f 579 660 580
f 580 660 590
f 660 615 590
f 615 616 613
f 609 607 608
f 613 611 607
f 608 640 649
f 224 227 222
f 247 231 227
f 223 224 220
f 220 143 219
f 246 221 143
f 285 248 247
f 284 325 248
f 343 326 325
f 377 382 359
f 326 343 371
f 377 366 371
f 411 397 382
f 410 398 397
f 414 416 399
f 553 555 671
f 696 656 667
f 656 553 671
f 754 749 753
f 789 741 740
f 753 749 789
f 740 741 784
f 699 696 667
f 707 729 699
f 729 707 743
f 752 743 754
f 742 784 747
f 785 742 781
f 785 781 787
f 771 799 786
f 785 787 799
f 419 774 786
f 546 540 543
f 543 585 584
f 584 581 577
f 578 577 581
f 660 579 578
f 553 540 548
f 553 548 555
f 616 615 660
f 616 668 613
f 607 611 608
f 629 611 613
f 632 640 608
f 640 686 649
f 227 224 223
f 236 247 227
f 223 220 208
f 219 143 218
f 220 219 207
f 237 143 221
f 235 285 247
f 284 248 285
f 284 303 325
f 344 343 325
f 385 382 377
f 364 371 343
f 371 374 377
f 385 411 382
f 411 410 397
f 408 414 399
f 417 416 414
f 696 684 656
f 656 661 553
f 788 754 753
f 793 789 740
f 753 789 778
f 740 784 802
f 729 696 699
f 733 729 743
f 812 743 752
f 788 752 754
f 784 742 800
f 804 742 785
f 774 771 786
f 782 799 771
f 782 785 799
f 532 774 419
f 539 543 540
f 539 585 543
f 585 582 584
f 584 578 581
f 625 660 578
f 553 554 540
f 660 635 616
f 668 629 613
f 668 616 635
f 622 608 611
f 629 623 611
f 617 632 608
f 636 640 632
f 640 645 686
f 236 227 223
f 236 235 247
f 220 209 208
f 210 223 208
f 218 143 139
f 219 218 207
f 209 220 207
f 143 237 139
f 286 285 235
f 285 286 284
f 286 303 284
f 315 325 303
f 315 344 325
f 344 364 343
f 386 385 377
f 360 371 364
f 375 374 371
f 386 377 374
f 396 411 385
f 415 410 411
f 408 399 410
f 410 414 408
f 414 419 417
f 714 656 684
f 696 714 684
f 661 554 553
f 680 661 656
f 772 788 753
f 802 793 740
f 789 793 790
f 777 753 778
f 789 792 778
f 802 784 800
f 729 714 696
f 733 723 729
f 743 783 733
f 783 743 812
f 788 812 752
f 804 800 742
f 782 804 785
f 774 769 771
f 775 782 771
f 536 774 532
f 544 539 540
f 549 585 539
f 584 582 578
f 585 583 582
f 582 625 578
f 625 582 660
f 554 541 540
f 678 635 660
f 668 621 629
f 675 668 635
f 622 617 608
f 623 622 611
f 621 623 629
f 622 632 617
f 646 636 632
f 636 645 640
f 645 746 686
f 228 236 223
f 236 286 235
f 212 208 209
f 210 208 258
f 238 223 210
f 218 139 146
f 207 218 146
f 209 207 213
f 237 131 139
f 286 315 303
f 317 344 315
f 364 344 352
f 386 396 385
f 352 360 364
f 360 375 371
f 375 386 374
f 401 411 396
f 415 414 410
f 413 415 411
f 418 419 414
f 714 683 656
f 661 545 554
f 683 680 656
f 680 681 661
f 772 753 777
f 788 772 806
f 793 802 791
f 789 790 792
f 791 790 793
f 770 777 778
f 756 778 792
f 802 800 794
f 723 714 729
f 783 723 733
f 809 783 812
f 812 788 807
f 782 800 804
f 769 775 771
f 536 769 774
f 775 800 782
f 544 549 539
f 541 544 540
f 549 619 585
f 583 618 582
f 585 619 583
f 582 627 660
f 554 544 541
f 678 675 635
f 698 678 660
f 631 621 668
f 675 692 668
f 623 612 622
f 631 623 621
f 612 632 622
f 612 646 632
f 646 639 636
f 636 639 645
f 645 695 746
f 234 228 223
f 234 236 228
f 253 286 236
f 211 208 212
f 212 209 213
f 258 208 211
f 215 210 258
f 216 238 210
f 238 234 223
f 139 131 146
f 207 146 230
f 213 207 229
f 237 132 131
f 317 315 286
f 317 354 344
f 352 344 354
f 386 401 396
f 360 352 334
f 383 375 360
f 375 394 386
f 395 411 401
f 418 414 415
f 412 413 411
f 714 680 683
f 545 544 554
f 552 545 661
f 682 661 681
f 721 681 680
f 772 777 770
f 811 806 772
f 807 788 806
f 791 802 792
f 790 791 792
f 770 778 756
f 755 756 792
f 794 800 795
f 780 802 794
f 722 714 723
f 783 751 723
f 814 783 809
f 809 812 814
f 806 812 807
f 768 775 769
f 535 769 536
f 775 795 800
f 550 549 544
f 551 619 549
f 618 627 582
f 619 618 583
f 698 660 627
f 698 675 678
f 668 637 631
f 668 692 651
f 725 692 675
f 633 612 623
f 631 637 623
f 638 646 612
f 643 639 646
f 639 642 645
f 642 695 645
f 746 695 745
f 243 236 234
f 243 253 236
f 292 286 253
f 258 211 212
f 212 213 229
f 214 210 215
f 271 215 258
f 216 210 214
f 242 238 216
f 241 234 238
f 146 131 133
f 146 141 230
f 207 230 205
f 206 229 207
f 132 133 131
f 310 317 286
f 334 354 317
f 334 352 354
f 395 401 386
f 360 334 362
f 372 383 360
f 388 375 383
f 375 389 394
f 395 386 394
f 395 403 411
f 403 412 411
f 714 721 680
f 545 552 544
f 662 552 661
f 682 662 661
f 721 682 681
f 772 770 760
f 811 772 766
f 523 806 811
f 780 792 802
f 756 755 770
f 755 792 776
f 420 794 795
f 776 780 794
f 722 715 714
f 751 722 723
f 526 751 783
f 519 783 814
f 814 812 530
f 763 768 769
f 776 775 768
f 535 763 769
f 775 420 795
f 552 550 544
f 550 551 549
f 551 658 619
f 618 701 627
f 619 634 618
f 701 698 627
f 698 709 675
f 651 637 668
f 651 692 664
f 734 725 675
f 692 725 690
f 637 612 633
f 637 633 623
f 654 638 612
f 669 646 638
f 643 641 639
f 648 643 646
f 641 642 639
f 642 641 695
f 695 421 745
f 813 746 745
f 240 243 234
f 292 253 243
f 333 286 292
f 258 212 217
f 217 212 229
f 216 214 215
f 215 271 270
f 271 258 257
f 242 216 215
f 239 238 242
f 241 240 234
f 239 241 238
f 146 133 136
f 141 146 137
f 230 141 140
f 206 207 205
f 205 230 203
f 266 229 206
f 132 39 133
f 309 310 286
f 309 317 310
f 328 334 317
f 345 362 334
f 362 363 360
f 372 360 370
f 370 383 372
f 388 389 375
f 380 388 383
f 389 388 394
f 403 395 394
f 702 721 714
f 662 550 552
f 682 697 662
f 705 682 721
f 760 770 765
f 766 772 760
f 779 811 766
f 530 806 523
f 776 792 780
f 761 770 755
f 763 755 776
f 794 420 776
f 714 715 703
f 722 751 715
f 526 527 751
f 524 526 783
f 519 524 783
f 519 814 530
f 530 812 806
f 763 776 768
f 775 776 420
f 759 763 535
f 550 653 551
f 630 658 551
f 619 658 634
f 634 701 618
f 701 709 698
f 734 675 709
f 651 612 637
f 664 654 651
f 692 690 664
f 734 739 725
f 725 739 690
f 651 654 612
f 654 687 638
f 687 669 638
f 669 659 646
f 643 665 641
f 648 644 643
f 659 648 646
f 641 422 695
f 422 421 695
f 745 421 813
f 276 243 240
f 292 243 276
f 309 286 333
f 291 333 292
f 267 258 217
f 267 217 229
f 268 215 270
f 270 271 259
f 259 257 258
f 259 271 257
f 252 242 215
f 255 239 242
f 240 241 255
f 241 239 255
f 135 136 133
f 146 136 137
f 141 137 134
f 141 138 140
f 144 230 140
f 206 205 273
f 205 203 304
f 204 203 230
f 266 206 296
f 267 229 266
f 130 39 132
f 133 39 88
f 333 317 309
f 333 328 317
f 333 334 328
f 345 334 341
f 345 363 362
f 363 370 360
f 381 383 370
f 380 383 381
f 391 388 380
f 391 394 388
f 392 403 394
f 703 702 714
f 721 702 751
f 662 653 550
f 657 662 697
f 705 697 682
f 721 748 705
f 761 760 765
f 765 770 761
f 764 766 760
f 779 766 764
f 759 761 755
f 759 755 763
f 715 751 703
f 751 527 721
f 519 515 524
f 517 519 530
f 758 759 535
f 653 630 551
f 688 658 630
f 634 658 701
f 716 709 701
f 458 734 709
f 664 687 654
f 690 732 664
f 464 739 734
f 739 732 690
f 691 669 687
f 691 659 669
f 644 665 643
f 641 423 422
f 251 276 240
f 291 292 276
f 291 313 333
f 258 267 265
f 268 252 215
f 268 270 269
f 270 259 269
f 259 258 265
f 255 242 252
f 256 240 255
f 135 133 88
f 136 135 137
f 137 96 134
f 141 134 138
f 140 138 142
f 144 140 142
f 145 230 144
f 273 205 304
f 296 206 273
f 304 203 204
f 230 145 204
f 266 296 108
f 109 267 266
f 39 130 129
f 341 334 333
f 345 341 333
f 358 363 345
f 363 376 370
f 380 381 370
f 390 391 380
f 391 392 394
f 751 702 703
f 662 657 653
f 697 676 657
f 705 748 697
f 527 748 721
f 760 761 758
f 762 764 760
f 779 764 762
f 757 761 759
f 517 515 519
f 515 499 524
f 522 517 530
f 534 758 535
f 758 757 759
f 694 630 653
f 674 688 630
f 688 701 658
f 701 711 716
f 458 709 716
f 458 464 734
f 732 687 664
f 464 744 739
f 739 738 732
f 691 687 679
f 700 659 691
f 251 240 275
f 249 276 251
f 291 276 249
f 293 313 291
f 329 333 313
f 265 267 109
f 278 252 268
f 268 269 279
f 264 269 259
f 259 265 264
f 254 255 252
f 256 275 240
f 282 256 255
f 135 88 137
f 96 97 134
f 137 88 96
f 138 134 162
f 138 162 142
f 142 147 144
f 145 144 233
f 296 273 304
f 332 304 204
f 204 145 233
f 109 266 108
f 108 296 102
f 39 129 127
f 327 345 333
f 346 358 345
f 358 369 363
f 387 376 363
f 376 380 370
f 400 390 380
f 390 400 391
f 391 393 392
f 657 694 653
f 676 694 657
f 808 676 697
f 748 808 697
f 528 748 527
f 758 762 760
f 758 761 757
f 779 762 767
f 522 506 517
f 504 522 530
f 767 758 534
f 694 670 630
f 710 674 630
f 688 674 701
f 674 711 701
f 711 460 716
f 460 458 716
f 464 458 456
f 732 679 687
f 464 796 744
f 744 738 739
f 738 736 732
f 679 693 691
f 726 700 691
f 275 249 251
f 249 306 291
f 293 291 306
f 293 330 313
f 330 329 313
f 329 327 333
f 260 265 109
f 278 277 252
f 279 278 268
f 279 269 262
f 261 269 264
f 264 265 260
f 254 252 277
f 282 255 254
f 275 256 274
f 274 256 282
f 134 97 93
f 134 195 162
f 162 202 142
f 142 154 147
f 233 144 147
f 311 296 304
f 332 204 322
f 311 304 332
f 244 204 233
f 296 311 102
f 127 36 39
f 329 345 327
f 346 345 329
f 358 346 373
f 378 369 358
f 369 378 363
f 378 387 363
f 387 380 376
f 400 380 387
f 406 391 400
f 404 393 391
f 805 694 676
f 805 676 808
f 528 808 748
f 767 762 758
f 773 779 767
f 500 517 506
f 504 506 522
f 523 504 530
f 773 767 534
f 670 710 630
f 694 710 670
f 710 711 674
f 463 460 711
f 453 456 458
f 456 455 464
f 732 718 679
f 464 467 796
f 744 796 738
f 736 718 732
f 726 693 679
f 693 726 691
f 280 249 275
f 305 306 249
f 306 350 293
f 318 330 293
f 330 346 329
f 260 109 104
f 277 278 279
f 262 269 261
f 106 279 262
f 261 264 263
f 264 260 104
f 272 254 277
f 282 254 272
f 281 275 274
f 281 274 282
f 93 97 90
f 134 93 92
f 193 195 134
f 202 162 195
f 142 202 154
f 155 147 154
f 233 147 148
f 322 204 244
f 332 322 100
f 102 311 332
f 244 233 321
f 35 39 36
f 127 64 36
f 373 346 350
f 124 358 373
f 123 378 358
f 387 378 122
f 122 400 387
f 406 404 391
f 120 406 400
f 404 406 393
f 801 694 805
f 525 805 808
f 528 525 808
f 501 500 506
f 500 488 517
f 504 501 506
f 509 504 523
f 516 773 534
f 469 710 694
f 710 463 711
f 453 449 456
f 453 458 459
f 456 457 455
f 455 468 464
f 718 727 679
f 796 467 797
f 796 797 738
f 736 727 718
f 726 679 719
f 300 249 280
f 300 280 275
f 300 305 249
f 338 306 305
f 350 318 293
f 338 350 306
f 350 330 318
f 346 330 350
f 287 277 279
f 106 262 261
f 107 279 106
f 106 261 263
f 103 263 264
f 103 264 104
f 283 272 277
f 282 272 283
f 281 295 275
f 298 281 282
f 93 90 86
f 98 90 97
f 134 92 193
f 176 195 193
f 195 183 202
f 197 154 202
f 148 147 155
f 197 155 154
f 233 148 150
f 321 322 244
f 100 322 321
f 101 332 100
f 102 332 99
f 289 321 233
f 35 36 51
f 38 39 35
f 64 127 126
f 125 373 350
f 124 123 358
f 125 124 373
f 123 121 378
f 121 122 378
f 122 119 400
f 120 400 405
f 801 469 694
f 537 801 805
f 525 537 805
f 494 500 501
f 481 488 500
f 492 517 488
f 509 501 504
f 521 509 523
f 516 534 533
f 520 773 516
f 469 461 710
f 461 463 710
f 449 453 454
f 440 456 449
f 461 453 459
f 457 465 455
f 438 457 456
f 455 465 468
f 719 679 727
f 810 738 797
f 719 727 726
f 295 300 275
f 305 300 338
f 337 350 338
f 283 277 287
f 287 279 110
f 110 279 107
f 105 106 263
f 105 263 103
f 297 282 283
f 298 295 281
f 298 282 299
f 20 86 90
f 98 95 90
f 92 190 193
f 190 176 193
f 183 195 176
f 202 183 196
f 197 202 158
f 148 155 150
f 155 197 159
f 233 150 149
f 101 99 332
f 289 233 232
f 321 289 331
f 63 35 51
f 51 36 66
f 34 38 35
f 37 39 38
f 128 64 126
f 126 127 128
f 125 350 337
f 119 405 400
f 120 405 119
f 537 469 801
f 494 481 500
f 501 498 494
f 481 480 488
f 514 501 509
f 514 509 521
f 521 523 803
f 520 529 773
f 451 449 454
f 462 454 453
f 447 440 449
f 440 448 456
f 461 462 453
f 441 465 457
f 448 438 456
f 450 457 438
f 429 468 465
f 731 726 727
f 302 300 295
f 337 338 300
f 314 283 287
f 314 287 110
f 290 282 297
f 308 297 283
f 302 295 298
f 299 282 290
f 320 298 299
f 26 86 20
f 20 90 77
f 90 95 79
f 88 95 98
f 81 190 92
f 190 178 176
f 176 177 183
f 183 171 196
f 158 202 196
f 159 197 158
f 150 155 156
f 155 159 158
f 232 149 150
f 233 149 232
f 331 289 232
f 34 35 63
f 43 63 51
f 51 66 40
f 38 34 45
f 37 38 49
f 84 39 37
f 324 125 337
f 494 487 481
f 498 487 494
f 505 498 501
f 476 480 481
f 480 492 488
f 514 521 773
f 811 521 803
f 529 514 773
f 449 451 446
f 451 454 462
f 443 440 447
f 446 447 449
f 440 438 448
f 450 441 457
f 441 429 465
f 438 441 450
f 737 731 727
f 339 300 302
f 324 337 300
f 308 283 314
f 111 314 110
f 299 290 297
f 320 297 308
f 312 302 298
f 320 312 298
f 320 299 297
f 23 26 20
f 19 20 77
f 90 78 77
f 79 80 90
f 79 95 87
f 88 87 95
f 85 190 81
f 178 177 176
f 188 178 190
f 177 171 183
f 171 174 196
f 160 158 196
f 150 156 157
f 155 158 156
f 45 34 63
f 44 43 51
f 44 63 43
f 50 51 40
f 40 66 65
f 45 49 38
f 47 37 49
f 82 84 37
f 353 125 324
f 475 481 487
f 503 487 498
f 498 505 502
f 476 479 480
f 477 476 481
f 492 480 482
f 521 811 773
f 466 446 451
f 452 451 462
f 443 442 440
f 443 447 446
f 442 438 440
f 434 429 441
f 434 441 438
f 324 300 339
f 339 302 312
f 319 308 314
f 111 336 314
f 319 320 308
f 347 312 320
f 20 17 23
f 25 26 23
f 19 13 20
f 77 76 19
f 78 76 77
f 90 80 78
f 80 79 87
f 88 94 87
f 190 85 188
f 180 177 178
f 188 180 178
f 170 171 177
f 174 171 192
f 196 174 192
f 156 158 160
f 160 196 198
f 150 157 153
f 156 160 157
f 44 45 63
f 44 51 50
f 41 50 40
f 40 65 61
f 49 45 46
f 67 37 47
f 47 49 46
f 82 37 67
f 115 125 353
f 379 353 324
f 481 475 477
f 491 475 487
f 503 491 487
f 502 503 498
f 502 505 508
f 479 478 480
f 480 483 482
f 492 482 484
f 466 443 446
f 466 451 452
f 435 442 443
f 439 438 442
f 428 429 434
f 438 437 434
f 324 339 351
f 323 339 312
f 336 319 314
f 347 336 111
f 336 320 319
f 340 312 347
f 347 320 336
f 13 17 20
f 23 17 16
f 23 3 25
f 19 11 13
f 19 76 11
f 75 76 78
f 78 80 87
f 91 87 94
f 189 188 85
f 177 180 173
f 188 187 180
f 171 170 173
f 177 173 170
f 171 169 192
f 198 196 192
f 198 161 160
f 150 153 152
f 157 160 161
f 59 45 44
f 41 44 50
f 41 40 42
f 40 61 42
f 62 61 65
f 46 45 60
f 73 67 47
f 47 46 48
f 71 82 67
f 116 115 353
f 351 379 324
f 116 353 379
f 491 472 475
f 491 503 511
f 503 502 508
f 480 478 483
f 482 483 484
f 492 484 499
f 444 443 466
f 435 433 442
f 444 435 443
f 439 433 438
f 442 433 439
f 428 426 429
f 427 428 434
f 433 434 437
f 433 437 438
f 384 351 339
f 340 323 312
f 323 342 339
f 361 347 111
f 356 340 347
f 17 13 11
f 17 6 16
f 18 23 16
f 23 27 3
f 15 11 76
f 15 76 75
f 78 87 75
f 91 72 87
f 21 189 85
f 22 188 189
f 180 179 173
f 179 180 187
f 188 181 187
f 171 173 164
f 171 168 169
f 192 169 184
f 192 161 198
f 151 150 152
f 60 59 44
f 60 45 59
f 32 44 41
f 57 41 42
f 42 61 52
f 54 61 62
f 65 58 62
f 28 46 60
f 73 47 69
f 71 67 73
f 48 46 69
f 69 47 48
f 83 82 71
f 112 115 116
f 384 379 351
f 116 379 384
f 473 475 472
f 491 497 472
f 511 497 491
f 511 503 507
f 503 508 513
f 484 483 486
f 484 489 499
f 424 433 435
f 445 435 444
f 432 426 428
f 430 427 434
f 433 430 434
f 384 339 342
f 342 323 340
f 1 361 111
f 361 356 347
f 356 357 340
f 8 17 11
f 16 6 18
f 17 8 6
f 18 27 23
f 2 3 27
f 9 11 15
f 31 15 75
f 75 87 74
f 74 87 72
f 72 91 89
f 21 22 189
f 22 181 188
f 175 173 179
f 187 185 179
f 181 182 187
f 171 164 168
f 164 173 172
f 168 167 169
f 184 169 200
f 184 200 192
f 161 192 199
f 28 60 44
f 32 41 33
f 29 44 32
f 33 41 57
f 57 42 56
f 42 52 56
f 52 61 54
f 54 62 58
f 28 70 46
f 73 69 30
f 73 31 71
f 46 70 69
f 83 71 89
f 114 112 116
f 116 384 117
f 473 472 474
f 473 495 475
f 497 490 472
f 497 511 490
f 503 513 507
f 511 507 512
f 483 485 486
f 486 489 484
f 499 489 518
f 424 430 433
f 436 424 435
f 436 435 445
f 425 426 432
f 431 427 430
f 117 384 342
f 340 349 342
f 357 361 1
f 361 357 356
f 349 340 357
f 8 11 10
f 6 5 18
f 6 8 5
f 7 27 18
f 27 7 2
f 10 11 9
f 12 9 15
f 14 15 31
f 75 72 31
f 75 74 72
f 72 89 71
f 24 181 22
f 175 172 173
f 179 4 175
f 185 4 179
f 187 182 185
f 182 181 191
f 164 166 168
f 165 164 172
f 163 167 168
f 167 194 169
f 169 186 200
f 199 192 200
f 161 199 201
f 28 44 29
f 32 33 29
f 29 33 57
f 57 56 55
f 56 52 54
f 53 54 58
f 28 69 70
f 30 69 68
f 14 73 30
f 71 31 72
f 14 31 73
f 114 113 112
f 114 116 118
f 472 471 474
f 490 493 472
f 490 511 496
f 507 513 531
f 507 531 512
f 512 510 511
f 486 485 470

