v -0.366878 0.302496 -0.25901
v -0.365932 0.319772 -0.261138
v -0.364602 0.327141 -0.258638
v -0.362224 0.33421 -0.256651
v -0.35575 0.331079 -0.253422
v -0.352895 0.338396 -0.252441
v -0.338916 0.331831 -0.248183
v -0.345922 0.335138 -0.250243
v -0.33634 0.339325 -0.246603
v -0.343347 0.342632 -0.248663
v -0.333711 0.346883 -0.245144
v -0.331164 0.354511 -0.243654
v -0.338459 0.357419 -0.245479
v -0.345732 0.360276 -0.247477
v -0.353155 0.362996 -0.249202
v -0.328969 0.362085 -0.241806
v -0.336391 0.364805 -0.243531
v -0.343813 0.367524 -0.245256
v -0.351236 0.370244 -0.246981
v -0.341894 0.374773 -0.243035
v -0.349317 0.377492 -0.24476
v -0.334406 0.372188 -0.241371
v -0.332609 0.379492 -0.238718
v -0.340043 0.382106 -0.240538
v -0.347494 0.384705 -0.242316
v -0.338389 0.38924 -0.237731
v -0.345855 0.391825 -0.239471
v -0.344217 0.398946 -0.236625
v -0.351535 0.401679 -0.23904
v -0.349932 0.408784 -0.23617
v -0.341055 0.413134 -0.230251
v -0.31664 0.413081 -0.220172
v -0.324395 0.415328 -0.222325
v -0.33215 0.417575 -0.224477
v -0.339905 0.419822 -0.226629
v -0.331 0.424263 -0.220855
v -0.338755 0.42651 -0.223007
v -0.323317 0.42207 -0.218337
v -0.315671 0.419886 -0.215695
v -0.308526 0.417481 -0.212363
v -0.300592 0.421788 -0.204243
v -0.307721 0.424268 -0.207633
v -0.30708 0.430994 -0.202727
v -0.300156 0.428448 -0.199137
v -0.293539 0.425809 -0.195241
v -0.287729 0.42935 -0.185568
v -0.288111 0.435736 -0.180458
v -0.288492 0.442121 -0.175347
v -0.282346 0.432669 -0.175811
v -0.283066 0.438832 -0.170547
v -0.278446 0.441649 -0.160444
v -0.283787 0.444995 -0.165283
v -0.289127 0.44834 -0.170122
v -0.276774 0.429463 -0.171085
v -0.277647 0.435534 -0.165746
v -0.272447 0.43203 -0.160824
v -0.273248 0.438156 -0.155523
v -0.271567 0.42596 -0.166178
v -0.325802 0.450801 -0.204436
v -0.358629 0.323945 -0.254563
v -0.273459 0.444547 -0.150735
v -0.278729 0.448085 -0.155655
v -0.28408 0.451516 -0.160594
v -0.28931 0.454916 -0.165674
v -0.306148 0.457421 -0.183941
v -0.313017 0.453305 -0.191189
v -0.328183 0.444567 -0.207822
v -0.320083 0.449134 -0.199481
v -0.306742 0.437589 -0.197641
v -0.306786 0.444051 -0.192499
v -0.313199 0.446627 -0.195786
v -0.31377 0.439946 -0.200955
v -0.321005 0.44223 -0.204279
v -0.31427 0.43333 -0.206101
v -0.32157 0.435573 -0.209362
v -0.337612 0.433222 -0.219349
v -0.329116 0.437764 -0.212211
v -0.344638 0.429613 -0.227774
v -0.361029 0.358738 -0.255434
v -0.359529 0.365974 -0.252821
v -0.357913 0.373161 -0.250164
v -0.360004 0.341365 -0.254651
v -0.356235 0.380352 -0.247584
v -0.362403 0.351457 -0.258078
v -0.363453 0.343854 -0.260087
v -0.360381 0.366955 -0.256357
v -0.363664 0.3363 -0.263438
v -0.359354 0.374601 -0.254414
v -0.358143 0.382259 -0.252543
v -0.346654 0.425611 -0.23724
v -0.3617 0.316894 -0.255731
v -0.349729 0.418772 -0.239826
v -0.364771 0.309843 -0.256899
v -0.348811 0.327824 -0.251195
v -0.355277 0.355751 -0.251183
v -0.341838 0.436537 -0.225252
v -0.30674 0.450595 -0.187539
v -0.294862 0.451402 -0.174601
v -0.300731 0.454344 -0.179031
v -0.336216 0.440042 -0.216272
v -0.293723 0.432256 -0.190007
v -0.29411 0.438633 -0.184855
v -0.294498 0.44501 -0.179704
v -0.300549 0.447837 -0.183754
v -0.281692 0.426472 -0.181067
v -0.300804 0.41556 -0.210059
v -0.309487 0.410687 -0.217072
v -0.312038 0.397064 -0.22684
v -0.313824 0.389769 -0.230527
v -0.303015 0.40231 -0.221314
v -0.30186 0.408942 -0.215839
v -0.315675 0.382263 -0.233432
v -0.319317 0.367459 -0.239399
v -0.317496 0.374796 -0.236297
v -0.325162 0.376907 -0.236775
v -0.323338 0.384264 -0.233792
v -0.330969 0.38663 -0.235748
v -0.321514 0.391622 -0.230809
v -0.329144 0.393987 -0.232765
v -0.336775 0.396352 -0.234721
v -0.334951 0.40371 -0.231738
v -0.342581 0.406075 -0.233694
v -0.321357 0.359933 -0.242068
v -0.310793 0.403729 -0.221617
v -0.300185 0.434949 -0.193895
v -0.300264 0.441427 -0.188865
v -0.314922 0.426634 -0.210952
v -0.322403 0.428828 -0.213909
v -0.330049 0.431023 -0.216501
v -0.319735 0.398932 -0.227665
v -0.327325 0.40134 -0.229765
v -0.318133 0.406059 -0.223902
v -0.325723 0.408467 -0.226002
v -0.333312 0.410875 -0.228103
v -0.348529 0.415711 -0.232993
v -0.346984 0.422682 -0.230147
v -0.354518 0.387521 -0.245022
v -0.353062 0.394592 -0.241992
v -0.326963 0.369591 -0.239527
v -0.323722 0.352041 -0.24375
v -0.348027 0.352905 -0.249165
v -0.340777 0.35006 -0.247148
v -0.357644 0.348558 -0.25291
v -0.350394 0.345712 -0.250893
v -0.327422 0.318192 -0.246797
v -0.330529 0.310264 -0.245727
v -0.333966 0.302922 -0.245848
v -0.341911 0.324507 -0.248976
v -0.331878 0.328601 -0.246528
v -0.329198 0.336229 -0.245253
v -0.338 0.313802 -0.24761
v -0.334856 0.321112 -0.246884
v -0.341125 0.306481 -0.248292
v -0.348235 0.309909 -0.25028
v -0.355167 0.313352 -0.252675
v -0.345071 0.317192 -0.249502
v -0.362519 0.299326 -0.253516
v -0.35196 0.320524 -0.251763
v -0.358162 0.306099 -0.2545
f 157 159 93 1
f 91 60 3 2
f 60 5 4 3
f 82 85 87 4
f 5 6 82 4
f 60 158 94 5
f 94 8 6 5
f 144 143 82 6
f 8 10 144 6
f 9 10 8 7
f 8 94 148 7
f 148 152 149 7
f 149 150 9 7
f 11 142 10 9
f 142 141 144 10
f 12 13 142 11
f 16 17 13 12
f 140 123 16 12
f 17 18 14 13
f 14 141 142 13
f 18 19 15 14
f 15 95 141 14
f 19 81 80 15
f 80 79 95 15
f 139 22 17 16
f 123 113 139 16
f 22 20 18 17
f 20 21 19 18
f 21 83 81 19
f 24 25 21 20
f 22 23 24 20
f 25 137 83 21
f 139 115 23 22
f 117 26 24 23
f 115 116 117 23
f 26 27 25 24
f 27 138 137 25
f 120 28 27 26
f 117 119 120 26
f 28 29 138 27
f 122 30 29 28
f 120 121 122 28
f 122 31 135 30
f 35 136 135 31
f 122 121 134 31
f 134 34 35 31
f 39 38 33 32
f 33 133 132 32
f 132 124 107 32
f 107 40 39 32
f 38 36 34 33
f 34 134 133 33
f 36 37 35 34
f 37 78 136 35
f 129 76 37 36
f 38 128 129 36
f 76 96 78 37
f 39 127 128 38
f 40 42 127 39
f 107 111 106 40
f 106 41 42 40
f 44 43 42 41
f 43 74 127 42
f 69 72 74 43
f 44 125 69 43
f 45 101 125 44
f 47 102 101 46
f 105 49 47 46
f 48 103 102 47
f 49 50 48 47
f 53 98 103 48
f 50 52 53 48
f 54 55 50 49
f 55 51 52 50
f 62 63 52 51
f 55 56 57 51
f 57 61 62 51
f 63 64 53 52
f 58 56 55 54
f 97 104 99 65
f 71 70 97 66
f 77 75 73 67
f 73 68 59 67
f 73 72 71 68
f 70 71 72 69
f 125 126 70 69
f 126 104 97 70
f 73 75 74 72
f 75 128 127 74
f 77 129 128 75
f 129 77 100 76
f 84 143 95 79
f 81 88 86 80
f 83 89 88 81
f 143 84 85 82
f 92 135 136 90
f 99 104 103 98
f 102 126 125 101
f 103 104 126 102
f 124 110 111 107
f 124 132 130 108
f 130 118 109 108
f 118 116 112 109
f 116 115 114 112
f 114 115 139 113
f 118 119 117 116
f 130 131 119 118
f 131 121 120 119
f 131 133 134 121
f 132 133 131 130
f 152 151 146 145
f 151 153 147 146
f 152 148 156 151
f 156 154 153 151
f 156 158 155 154
f 158 60 91 155
f 91 93 159 155
f 156 148 94 158
f 141 95 143 144
