v 0.244408 0.130089 -0.149058
v 0.247837 0.138614 -0.152682
v 0.252084 0.125543 -0.151027
v 0.250005 0.132191 -0.151652
v 0.246376 0.124282 -0.147112
v 0.250094 0.147196 -0.157171
v 0.24414 0.142244 -0.15547
v 0.257516 0.126599 -0.155342
v 0.260997 0.13419 -0.160188
v 0.255465 0.133222 -0.155946
v 0.248071 0.118311 -0.146251
v 0.244353 0.104733 -0.142686
v 0.266471 0.135412 -0.164431
v 0.253312 0.140292 -0.156553
v 0.263021 0.127532 -0.15964
v 0.249428 0.112039 -0.145812
v 0.25384 0.119131 -0.150507
v 0.255594 0.149625 -0.161312
v 0.245648 0.0985267 -0.142091
v 0.263962 0.143689 -0.165039
v 0.258651 0.142 -0.160797
v 0.260831 0.151566 -0.165612
v 0.260791 0.113397 -0.154655
v 0.259395 0.119904 -0.154936
v 0.262158 0.106905 -0.154382
v 0.256432 0.106299 -0.149925
v 0.250706 0.105694 -0.145468
v 0.255124 0.112763 -0.15018
v 0.262251 0.160452 -0.170663
v 0.251175 0.155491 -0.162366
v 0.252322 0.1624 -0.168551
v 0.256977 0.158185 -0.166351
v 0.340482 0.057356 -0.246421
v 0.267005 0.128147 -0.165114
v 0.264611 0.120665 -0.159597
v 0.257586 0.166157 -0.172023
v 0.292799 0.15389 -0.200592
v 0.252529 0.092819 -0.145121
v 0.257453 0.0998693 -0.149675
v 0.251747 0.0992854 -0.145238
v 0.246385 0.0921458 -0.141945
v 0.265368 0.121186 -0.166746
v 0.263127 0.100411 -0.15425
v 0.263891 0.0938878 -0.154302
v 0.258211 0.0933559 -0.149703
v 0.267775 0.128815 -0.171914
v 0.270545 0.136561 -0.17675
v 0.264162 0.113938 -0.160495
v 0.289937 0.148365 -0.204334
v 0.297501 0.15456 -0.205501
v 0.294579 0.149247 -0.209507
v 0.258927 0.0868593 -0.149466
v 0.253238 0.0798056 -0.145084
v 0.253119 0.086317 -0.145015
v 0.26959 0.142449 -0.168956
v 0.269888 0.135704 -0.169971
v 0.265222 0.114228 -0.167744
v 0.264275 0.107165 -0.160933
v 0.264546 0.0872867 -0.154101
v 0.259293 0.0738189 -0.149187
v 0.259206 0.080346 -0.149236
v 0.272556 0.149658 -0.173693
v 0.266175 0.152543 -0.169763
v 0.266298 0.0938932 -0.160732
v 0.264854 0.080724 -0.153832
v 0.270206 0.0807522 -0.158788
v 0.302485 0.155373 -0.210266
v 0.253325 0.0731557 -0.145128
v 0.246576 0.0858467 -0.143125
v 0.276971 0.150369 -0.178894
v 0.273812 0.142879 -0.174206
v 0.26453 0.100386 -0.161194
v 0.268155 0.0873416 -0.159904
v 0.264971 0.0740933 -0.153719
v 0.281439 0.151 -0.184073
v 0.275928 0.14377 -0.180691
v 0.269933 0.0872635 -0.166886
v 0.270296 0.0739707 -0.158555
v 0.299869 0.143267 -0.215443
v 0.274645 0.0735628 -0.16393
v 0.279917 0.0594133 -0.167375
v 0.274506 0.059522 -0.162603
v 0.275219 0.0667241 -0.162912
v 0.269808 0.0668328 -0.158139
v 0.278779 0.144784 -0.186807
v 0.271695 0.0800709 -0.165643
v 0.279265 0.052353 -0.166932
v 0.274027 0.052856 -0.161787
v 0.269266 0.0600214 -0.157461
v 0.284576 0.0521169 -0.171865
v 0.276222 0.071983 -0.170713
v 0.279838 0.0664658 -0.168152
v 0.264493 0.0671876 -0.15315
v 0.283894 0.0451681 -0.171263
v 0.278596 0.0456624 -0.16612
v 0.285013 0.0592366 -0.172405
v 0.281895 0.0649506 -0.174935
v 0.263844 0.060574 -0.152608
v 0.288437 0.0376651 -0.176816
v 0.282974 0.0382701 -0.17114
v 0.29932 0.0513022 -0.188549
v 0.29446 0.051538 -0.182816
v 0.2896 0.0517738 -0.177083
v 0.298702 0.0371353 -0.189189
v 0.293644 0.0373239 -0.182888
v 0.303642 0.0368898 -0.195153
v 0.303912 0.0439779 -0.194719
v 0.298989 0.0442317 -0.188803
v 0.294067 0.0444854 -0.182888
v 0.289144 0.0447391 -0.176972
v 0.304182 0.0510661 -0.194284
v 0.289333 0.0586494 -0.178028
v 0.308568 0.0366752 -0.201084
v 0.292613 0.0574384 -0.184293
v 0.308656 0.0442657 -0.200681
v 0.308473 0.0516495 -0.200008
v 0.313281 0.0301403 -0.207787
v 0.288773 0.0627712 -0.186965
v 0.284816 0.0635262 -0.181295
v 0.305341 0.0574851 -0.201708
v 0.296566 0.0568096 -0.190351
v 0.313233 0.037505 -0.207094
v 0.313161 0.0449128 -0.206441
v 0.318196 0.0317066 -0.214618
v 0.300778 0.056868 -0.196138
v 0.316506 0.0537411 -0.2114
v 0.312684 0.0524623 -0.205726
v 0.27927 0.0715275 -0.176724
v 0.297219 0.0625934 -0.198364
v 0.292874 0.0625919 -0.19277
v 0.30994 0.0587531 -0.206938
v 0.317115 0.0463246 -0.212159
v 0.324296 0.056959 -0.222865
v 0.320391 0.0553037 -0.217124
v 0.322138 0.04069 -0.219215
v 0.317945 0.0390255 -0.213299
v 0.322724 0.0334433 -0.220473
v 0.301291 0.062839 -0.204043
v 0.305461 0.0638378 -0.20961
v 0.319434 0.0624534 -0.216616
v 0.327477 0.0659406 -0.227731
v 0.323602 0.0642844 -0.222022
v 0.328259 0.0586273 -0.228663
v 0.330376 0.0440389 -0.230963
v 0.326314 0.042357 -0.22512
v 0.310046 0.065252 -0.214895
v 0.314755 0.0605683 -0.211747
v 0.333296 0.053047 -0.235504
v 0.329235 0.0513646 -0.229664
v 0.325174 0.0496821 -0.223824
v 0.321113 0.0479997 -0.217984
v 0.334444 0.0457181 -0.236835
v 0.314959 0.0670789 -0.219764
v 0.332291 0.060287 -0.234479
v 0.33101 0.0673949 -0.233392
v 0.28488 0.0703582 -0.180823
v 0.329395 0.074503 -0.23267
v 0.337224 0.054693 -0.24127
v 0.339611 0.0638675 -0.245657
v 0.335944 0.0618359 -0.240168
v 0.334664 0.0689788 -0.239066
v 0.333384 0.0761216 -0.237964
v 0.31556 0.0753109 -0.226359
v 0.300173 0.149502 -0.213764
v 0.306128 0.149985 -0.217426
v 0.338129 0.0706522 -0.244871
v 0.331915 0.082928 -0.237158
v 0.303936 0.14415 -0.220841
v 0.290439 0.06888 -0.185282
v 0.320781 0.0781663 -0.23017
v 0.341189 0.078447 -0.249837
v 0.336733 0.0772546 -0.244162
v 0.339883 0.0850724 -0.249075
v 0.335427 0.08388 -0.2434
v 0.338577 0.0916978 -0.248313
v 0.334121 0.0905054 -0.242637
v 0.342223 0.0717061 -0.250813
v 0.308916 0.138318 -0.226519
v 0.310324 0.144583 -0.224033
v 0.295482 0.0679375 -0.190093
v 0.297251 0.143346 -0.208883
v 0.293797 0.143116 -0.202644
v 0.281954 0.0778419 -0.173418
v 0.274694 0.0793424 -0.171237
v 0.337764 0.0985699 -0.247317
v 0.305773 0.139063 -0.213073
v 0.32672 0.0810877 -0.233132
v 0.285027 0.141336 -0.19139
v 0.304549 0.0683589 -0.200888
v 0.300188 0.0678191 -0.19533
v 0.276666 0.086552 -0.168379
v 0.329663 0.0891866 -0.237287
v 0.322458 0.0864605 -0.235409
v 0.322723 0.113513 -0.233241
v 0.310155 0.0760596 -0.204665
v 0.30563 0.0754054 -0.19929
v 0.301104 0.0747511 -0.193916
v 0.305353 0.0827148 -0.198866
v 0.300827 0.0820605 -0.193491
v 0.333727 0.0971497 -0.241201
v 0.296628 0.0740207 -0.188514
v 0.296361 0.0813139 -0.188084
v 0.292072 0.0802917 -0.182576
v 0.287783 0.0792694 -0.177069
v 0.296094 0.088607 -0.187653
v 0.291805 0.0875848 -0.182146
v 0.309137 0.0837327 -0.204228
v 0.307912 0.0915069 -0.203787
v 0.304171 0.090468 -0.198426
v 0.300429 0.089429 -0.193065
v 0.308198 0.0693418 -0.206931
v 0.311024 0.0712975 -0.213352
v 0.287426 0.0866791 -0.176738
v 0.291105 0.0954349 -0.182192
v 0.306446 0.0992871 -0.203499
v 0.31416 0.077147 -0.21019
v 0.307398 0.138464 -0.220044
v 0.269069 0.0936885 -0.166006
v 0.326904 0.0948419 -0.238458
v 0.331962 0.102622 -0.240981
v 0.28653 0.0946093 -0.17683
v 0.281774 0.0938193 -0.171473
v 0.285479 0.10257 -0.176926
v 0.280722 0.10178 -0.171569
v 0.279671 0.109741 -0.171665
v 0.312845 0.0849296 -0.209804
v 0.311513 0.0927062 -0.20942
v 0.31018 0.100483 -0.209035
v 0.282829 0.0858993 -0.171352
v 0.27576 0.101405 -0.166211
v 0.276716 0.0937984 -0.166187
v 0.26837 0.100753 -0.165442
v 0.324832 0.100459 -0.239312
v 0.313339 0.0732487 -0.219825
v 0.290198 0.103492 -0.182495
v 0.289088 0.111662 -0.182926
v 0.28439 0.110665 -0.177237
v 0.295342 0.0962464 -0.187634
v 0.308598 0.108216 -0.208563
v 0.320469 0.0883132 -0.221151
v 0.316623 0.086562 -0.21548
v 0.31525 0.0942657 -0.215097
v 0.313876 0.10197 -0.214715
v 0.323182 0.107046 -0.240392
v 0.330185 0.108618 -0.24149
v 0.317162 0.0788478 -0.216443
v 0.28772 0.11946 -0.183105
v 0.283102 0.118579 -0.177495
v 0.278484 0.117698 -0.171885
v 0.281694 0.126318 -0.177635
v 0.306905 0.115938 -0.207967
v 0.305352 0.123471 -0.207396
v 0.319119 0.0959604 -0.220812
v 0.317849 0.103412 -0.220621
v 0.320614 0.112151 -0.226452
v 0.316579 0.110863 -0.22043
v 0.312543 0.109575 -0.214407
v 0.274508 0.109138 -0.166527
v 0.267298 0.107618 -0.16597
v 0.286272 0.127284 -0.183353
v 0.289851 0.142572 -0.196648
v 0.321731 0.104721 -0.226759
v 0.328853 0.114975 -0.241184
v 0.3189 0.081163 -0.223239
v 0.322662 0.0975312 -0.227043
v 0.279923 0.13936 -0.186696
v 0.296781 0.12171 -0.195152
v 0.292175 0.120698 -0.189189
v 0.309564 0.124363 -0.213498
v 0.319212 0.119459 -0.226182
v 0.315165 0.118177 -0.220092
v 0.313693 0.125465 -0.2196
v 0.27248 0.116063 -0.16837
v 0.327986 0.121415 -0.240157
v 0.322903 0.0904096 -0.227717
v 0.284608 0.134889 -0.183448
v 0.290724 0.128304 -0.189306
v 0.311096 0.116915 -0.21401
v 0.312173 0.132792 -0.219124
v 0.307953 0.131824 -0.213044
v 0.303702 0.130993 -0.207086
v 0.302021 0.138501 -0.206867
v 0.30119 0.12265 -0.201055
v 0.299549 0.13017 -0.200956
v 0.269741 0.122387 -0.171221
v 0.319899 0.0839043 -0.2303
v 0.321866 0.0923168 -0.234597
v 0.29514 0.129256 -0.195098
v 0.293524 0.136784 -0.19496
v 0.289033 0.13584 -0.189233
v 0.297805 0.137674 -0.20088
v 0.317274 0.126553 -0.225872
v 0.276538 0.124835 -0.173042
v 0.317038 0.126429 -0.232794
v 0.272393 0.130004 -0.176376
v 0.32064 0.126909 -0.236773
v 0.32063 0.120428 -0.239661
v 0.313265 0.132729 -0.226147
v 0.278559 0.132456 -0.179739
v 0.322011 0.113737 -0.240415
v 0.323756 0.0992326 -0.233862
v 0.323759 0.106461 -0.233549
v 0.320054 0.119986 -0.233054
v 0.274117 0.137281 -0.182676
f 5 3 4 1
f 4 10 14 2
f 14 6 7 2
f 5 11 17 3
f 17 24 8 3
f 8 10 4 3
f 14 21 18 6
f 24 35 15 8
f 15 9 10 8
f 21 14 10 9
f 15 34 13 9
f 13 20 21 9
f 16 28 17 11
f 19 40 27 12
f 35 42 34 15
f 27 26 28 16
f 28 23 24 17
f 21 20 22 18
f 22 32 30 18
f 41 38 40 19
f 28 26 25 23
f 25 58 48 23
f 48 35 24 23
f 26 39 43 25
f 43 72 58 25
f 27 40 39 26
f 36 31 32 29
f 42 285 46 34
f 48 57 42 35
f 41 69 54 38
f 54 52 45 38
f 45 39 40 38
f 45 44 43 39
f 57 273 285 42
f 44 64 72 43
f 45 52 59 44
f 59 73 64 44
f 285 293 295 46
f 295 47 56 46
f 71 55 56 47
f 295 299 304 47
f 304 76 71 47
f 58 259 57 48
f 54 53 61 52
f 61 65 59 52
f 68 60 61 53
f 71 62 63 55
f 259 258 273 57
f 72 232 259 58
f 65 66 73 59
f 74 65 61 60
f 71 76 70 62
f 73 77 218 64
f 218 232 72 64
f 74 78 66 65
f 78 80 86 66
f 86 77 73 66
f 76 85 75 70
f 93 84 78 74
f 86 184 191 77
f 191 231 218 77
f 84 83 80 78
f 83 92 91 80
f 91 184 86 80
f 92 83 82 81
f 82 88 87 81
f 87 90 96 81
f 96 97 92 81
f 83 84 89 82
f 93 98 89 84
f 95 94 90 87
f 94 110 103 90
f 103 112 96 90
f 92 97 128 91
f 128 183 184 91
f 100 99 110 94
f 112 119 97 96
f 119 156 128 97
f 105 109 110 99
f 102 109 108 101
f 108 107 111 101
f 103 110 109 102
f 108 109 105 104
f 106 107 108 104
f 113 115 107 106
f 115 116 111 107
f 114 118 119 112
f 122 123 115 113
f 121 130 118 114
f 123 127 116 115
f 127 131 120 116
f 124 136 122 117
f 169 156 119 118
f 130 180 169 118
f 138 129 125 120
f 131 139 138 120
f 125 129 130 121
f 136 132 123 122
f 132 126 127 123
f 137 135 136 124
f 147 131 127 126
f 132 151 134 126
f 134 140 147 126
f 190 180 130 129
f 138 189 190 129
f 147 146 139 131
f 136 135 151 132
f 142 140 134 133
f 134 151 150 133
f 150 149 143 133
f 143 141 142 133
f 145 150 151 135
f 153 146 147 140
f 143 154 155 141
f 149 148 154 143
f 149 150 145 144
f 152 148 149 144
f 158 160 154 148
f 160 161 155 154
f 161 162 157 155
f 162 167 187 157
f 33 159 160 158
f 166 161 160 159
f 166 172 162 161
f 172 174 167 162
f 264 246 234 163
f 177 171 172 166
f 192 193 187 167
f 174 176 192 167
f 187 193 286 170
f 173 174 172 171
f 175 176 174 173
f 185 200 176 175
f 229 191 184 183
f 196 197 190 189
f 211 195 196 189
f 229 222 231 191
f 219 287 193 192
f 287 275 286 193
f 207 198 196 195
f 211 212 216 195
f 216 226 207 195
f 198 199 197 196
f 199 202 201 197
f 209 210 199 198
f 207 208 209 198
f 210 205 202 199
f 205 206 203 202
f 206 213 204 203
f 238 214 206 205
f 214 221 213 206
f 226 227 208 207
f 227 228 215 208
f 234 246 216 212
f 221 222 229 213
f 235 223 221 214
f 246 241 226 216
f 231 230 232 218
f 245 244 233 220
f 223 224 222 221
f 224 230 231 222
f 237 225 224 223
f 235 236 237 223
f 225 258 230 224
f 249 273 258 225
f 237 248 249 225
f 241 242 227 226
f 242 243 228 227
f 243 257 239 228
f 258 259 232 230
f 247 248 237 236
f 257 278 251 239
f 253 242 241 240
f 241 246 264 240
f 264 286 275 240
f 275 265 253 240
f 253 254 243 242
f 254 256 257 243
f 260 250 248 247
f 268 277 260 247
f 250 293 249 248
f 293 285 273 249
f 299 295 293 250
f 260 276 299 250
f 278 269 252 251
f 281 284 283 252
f 269 280 281 252
f 265 262 254 253
f 262 255 256 254
f 270 271 256 255
f 262 302 194 255
f 271 278 257 256
f 277 290 276 260
f 265 301 302 262
f 274 297 300 263
f 275 287 301 265
f 288 277 268 267
f 283 284 288 267
f 278 271 272 269
f 272 279 280 269
f 292 272 271 270
f 303 294 292 270
f 292 298 279 272
f 266 304 299 276
f 290 188 266 276
f 288 289 290 277
f 217 186 280 279
f 298 178 217 279
f 186 282 281 280
f 282 291 284 281
f 181 182 291 282
f 186 79 181 282
f 291 289 288 284
f 261 188 290 289
f 291 182 261 289
f 303 297 296 294
f 168 79 186 217
f 178 179 168 217
f 181 51 49 182
f 79 164 51 181
f 165 164 79 168
f 67 50 51 164
f 50 37 49 51
