# https://github.com/mikedh/trimesh
v -0.06460273 0.34167265 -0.05106798
v -0.04694200 0.34720299 -0.05934450
v -0.05339600 0.34752101 -0.05723550
v -0.09730875 0.35073800 -0.17073249
v -0.11675500 0.34438300 -0.20687800
v -0.08610425 0.35205675 -0.12538400
v -0.11636100 0.34272501 -0.22870500
v -0.07116706 0.34893713 -0.07990694
v -0.02004850 0.35598701 -0.06624000
v 0.03104160 0.35288962 -0.06517265
v 0.01160362 0.35537938 -0.06576900
v -0.01236800 0.35623801 -0.06679600
v -0.02965525 0.35444675 -0.06433400
v -0.04094950 0.35208850 -0.06186050
v 0.11102800 0.33457750 -0.13223950
v 0.11549600 0.33394900 -0.14676649
v 0.12460100 0.33299899 -0.19119699
v 0.11998100 0.33386199 -0.16915351
v 0.10423188 0.33585575 -0.11635225
v 0.09410650 0.34120249 -0.11382750
v 0.08016350 0.34606699 -0.10371600
v 0.06688800 0.34903450 -0.09125050
v 0.05581225 0.34937924 -0.07804725
v -0.05514140 0.34873455 -0.06094459
v -0.03977938 0.35708888 -0.08381732
v -0.04033295 0.35982866 -0.10729631
v -0.07845700 0.35320843 -0.11226056
v -0.07539261 0.35466787 -0.11950849
v -0.06789140 0.35527923 -0.10832507
v -0.06729307 0.35589411 -0.11248652
v -0.05942868 0.35502606 -0.09198181
v -0.05517749 0.35410561 -0.08201500
v -0.01892081 0.35798461 -0.07819632
v -0.06952584 0.35253217 -0.09206762
v 0.00288676 0.35685690 -0.06855767
v -0.06352165 0.35186550 -0.08050059
v 0.05790422 0.35361207 -0.09979505
v 0.05212674 0.35441526 -0.09511009
v 0.04710455 0.35156795 -0.07588916
v 0.03950952 0.35457094 -0.08211903
v 0.04930055 0.35232509 -0.08182884
v 0.03484697 0.35709115 -0.09067265
v 0.04216619 0.35837170 -0.11079973
v 0.03713476 0.35871420 -0.10704262
v 0.04167583 0.35670186 -0.09616233
v 0.03004568 0.35681513 -0.08475551
v 0.02582654 0.35450566 -0.06730985
v 0.00824072 0.35627815 -0.06768796
v 0.06810231 0.35233627 -0.11290600
v 0.06783313 0.35328880 -0.12116277
v 0.07760841 0.35166689 -0.13897328
v 0.09068577 0.34675569 -0.14279799
v 0.08504311 0.34915507 -0.14222757
v 0.07359445 0.35264511 -0.13261696
v 0.09084837 0.34787122 -0.16258878
v 0.06998664 0.35487893 -0.15857081
v 0.06199898 0.35677472 -0.15755981
v 0.07976920 0.35225162 -0.17596643
v 0.09054700 0.34862700 -0.18938801
v 0.08778500 0.34954700 -0.19676401
v 0.07250775 0.35353713 -0.19766625
v 0.09704757 0.34583797 -0.17340086
v 0.10025650 0.34488949 -0.18768400
v 0.08939681 0.34682996 -0.13621936
v 0.08741060 0.34542701 -0.11792787
v 0.09716904 0.34149430 -0.12500548
v 0.10480587 0.34006932 -0.14536192
v 0.10507342 0.34150634 -0.16107173
v 0.10840669 0.33620347 -0.13148232
v 0.11594396 0.33681540 -0.17380032
v 0.11306850 0.33886950 -0.18226150
v 0.05638237 0.35775781 -0.17801499
v 0.06529661 0.35578047 -0.19129753
v 0.03232500 0.35964799 -0.20226900
v 0.02430950 0.35996701 -0.20582450
v 0.04502035 0.35917658 -0.18736579
v 0.05307875 0.35697775 -0.11868206
v 0.04508101 0.35749334 -0.10586179
v 0.05590767 0.35797571 -0.15586014
v 0.04441703 0.35937646 -0.13516650
v 0.04186652 0.36002102 -0.15975403
v 0.03978889 0.36015208 -0.17675565
v 0.02912100 0.36121601 -0.16126700
v 0.00505698 0.36172615 -0.18660239
v 0.01540600 0.36120799 -0.19077100
v -0.03320212 0.35860900 -0.21922288
v -0.01338095 0.36175103 -0.18384994
v -0.01252547 0.36047970 -0.20994590
v -0.03367334 0.35963689 -0.21127828
v -0.03588984 0.35974288 -0.20627243
v 0.02061717 0.36155861 -0.17348184
v 0.02195191 0.36174251 -0.15724802
v 0.01218010 0.36206295 -0.16444421
v 0.00959112 0.36217418 -0.13411607
v 0.02374258 0.36109818 -0.12310031
v 0.02912891 0.35965018 -0.10688013
v 0.02931314 0.35897266 -0.10007065
v 0.02025396 0.35939581 -0.09545950
v 0.02156937 0.36065779 -0.11221906
v 0.00887298 0.36176184 -0.11954633
v 0.00538031 0.36222960 -0.13107811
v -0.00731370 0.36231323 -0.13995930
v -0.01179200 0.36222500 -0.13648900
v -0.02884899 0.36188083 -0.15099380
v -0.00757217 0.36241614 -0.15669209
v 0.00183387 0.36049704 -0.09946077
v -0.00032571 0.35948933 -0.09022425
v -0.00268427 0.36039784 -0.09846391
v -0.02232736 0.36096797 -0.10825655
v -0.01194296 0.36045346 -0.09970276
v -0.01222275 0.36150857 -0.11402672
v -0.02000207 0.36194416 -0.12736793
v -0.02726282 0.36177888 -0.16680780
v -0.03274138 0.36137588 -0.17511167
v -0.04150247 0.36040121 -0.18411310
v -0.05491414 0.35784368 -0.20670335
v -0.03228708 0.36122371 -0.12174781
v -0.02660941 0.36157399 -0.12130392
v -0.02341985 0.35959116 -0.09513933
v -0.04543147 0.36048958 -0.16708001
v -0.07164426 0.35639840 -0.18666216
v -0.07724885 0.35431105 -0.20702594
v -0.08663379 0.35200488 -0.21182765
v -0.09200123 0.35200429 -0.19088763
v -0.07707933 0.35552383 -0.18030399
v -0.06286048 0.35841251 -0.15391410
v -0.05510000 0.35940989 -0.13750540
v -0.05233400 0.35870701 -0.11501100
v -0.07667560 0.35534355 -0.13693731
v -0.08617097 0.35347568 -0.14878660
v -0.09417535 0.35166372 -0.17919247
v -0.11189220 0.34619355 -0.20244622
v -0.11061521 0.34585804 -0.21299531
v -0.09317172 0.35101034 -0.20466613
v -0.09867382 0.34838150 -0.21979587
v -0.11432230 0.34380728 -0.22418840
v -0.06648323 0.35679142 -0.12203196
v -0.05671386 0.35727898 -0.10545576
v -0.08062238 0.35499451 -0.16137723
v -0.06394746 0.35774920 -0.18510717
v -0.04173277 0.36072453 -0.13031921
v -0.03867725 0.36008284 -0.11049907
v -0.06005629 0.35858224 -0.17952187
v -0.08790700 0.35064825 -0.22166200
v -0.06644100 0.35523801 -0.21673499
v -0.00775134 0.35809336 -0.07714003
v -0.01348995 0.35867280 -0.08347096
v 0.01822841 0.35775684 -0.08198564
v 0.02301164 0.36169154 -0.14057246
v 0.03178780 0.36053572 -0.12428091
v 0.01005120 0.36061202 -0.20666187
v 0.00961525 0.36005125 -0.21278300
v 0.03126693 0.36087714 -0.18013126
v 0.05269250 0.35738700 -0.20257850
v 0.05794731 0.35727211 -0.14111967
v 0.05801190 0.35561784 -0.11534710
v 0.06545359 0.35083690 -0.09634375
v 0.07687761 0.34938394 -0.11423706
f 136 144 7
f 135 144 136
f 123 144 135
f 122 144 123
f 122 145 144
f 116 145 122
f 116 86 145
f 89 86 116
f 90 89 116
f 115 90 116
f 115 116 143
f 143 116 140
f 143 140 121
f 143 121 125
f 126 143 125
f 127 143 126
f 120 143 127
f 104 120 127
f 141 104 127
f 26 141 127
f 142 141 26
f 117 141 142
f 109 117 142
f 118 117 109
f 118 104 117
f 112 104 118
f 111 112 118
f 110 111 118
f 110 108 111
f 108 106 111
f 106 100 111
f 98 100 106
f 35 98 106
f 106 107 35
f 35 107 147
f 107 108 147
f 35 147 146
f 146 147 33
f 33 147 26
f 26 147 119
f 147 109 119
f 147 110 109
f 119 109 26
f 25 33 26
f 13 33 25
f 12 33 13
f 12 35 33
f 13 25 14
f 14 25 31
f 31 25 138
f 138 30 31
f 138 137 30
f 138 127 137
f 138 128 127
f 26 128 138
f 127 129 137
f 137 129 28
f 129 6 28
f 129 130 6
f 129 139 130
f 130 139 4
f 139 131 4
f 139 124 131
f 125 124 139
f 131 124 4
f 124 132 4
f 124 134 132
f 134 133 132
f 134 135 133
f 133 5 132
f 133 136 5
f 122 134 124
f 121 122 124
f 4 132 5
f 6 130 4
f 27 28 6
f 29 28 27
f 29 30 28
f 31 29 27
f 31 27 34
f 31 34 36
f 36 34 8
f 36 8 24
f 14 36 24
f 14 32 36
f 1 24 8
f 3 24 1
f 3 2 24
f 32 31 36
f 34 27 8
f 8 27 6
f 129 127 139
f 30 137 28
f 31 30 29
f 14 31 32
f 26 138 25
f 35 146 33
f 148 98 35
f 46 98 148
f 148 47 46
f 148 48 47
f 11 47 48
f 48 35 11
f 11 35 9
f 10 47 11
f 10 39 47
f 39 41 47
f 41 40 47
f 47 40 42
f 40 38 42
f 38 45 42
f 45 78 42
f 42 78 98
f 78 97 98
f 97 96 98
f 96 99 98
f 96 150 99
f 150 95 99
f 150 149 95
f 80 149 150
f 43 80 150
f 43 150 44
f 43 44 78
f 78 44 96
f 78 80 43
f 80 78 77
f 155 80 77
f 79 80 155
f 57 79 155
f 155 56 57
f 56 155 54
f 156 54 155
f 50 54 156
f 49 50 156
f 49 156 157
f 37 157 156
f 157 37 38
f 41 157 38
f 37 156 38
f 38 156 78
f 158 49 157
f 65 158 157
f 65 64 158
f 158 64 54
f 64 53 54
f 64 52 53
f 64 68 52
f 67 68 64
f 67 70 68
f 70 71 68
f 70 17 71
f 17 70 18
f 18 70 69
f 16 18 69
f 15 16 69
f 19 15 69
f 69 66 19
f 69 67 66
f 66 67 65
f 65 20 66
f 20 65 21
f 19 66 20
f 71 62 68
f 71 63 62
f 62 63 58
f 63 59 58
f 58 59 60
f 58 60 61
f 58 61 73
f 73 61 76
f 73 76 72
f 82 72 76
f 76 153 82
f 82 153 91
f 84 91 153
f 153 85 84
f 153 151 85
f 153 75 151
f 74 75 153
f 75 152 151
f 151 152 88
f 152 86 88
f 151 88 84
f 84 88 87
f 88 89 87
f 105 84 87
f 87 113 105
f 105 113 104
f 113 114 104
f 102 105 104
f 101 105 102
f 94 105 101
f 93 105 94
f 149 93 94
f 149 94 100
f 92 93 149
f 149 83 92
f 82 83 149
f 81 82 149
f 79 82 81
f 83 82 92
f 92 91 93
f 100 94 101
f 100 101 112
f 101 103 112
f 101 102 103
f 103 102 104
f 113 87 114
f 87 90 114
f 93 84 105
f 85 151 84
f 93 91 84
f 92 82 91
f 153 76 74
f 76 154 74
f 72 82 79
f 57 73 72
f 61 154 76
f 58 73 56
f 62 58 55
f 53 62 55
f 55 58 53
f 53 58 51
f 51 58 54
f 68 62 53
f 70 67 69
f 52 68 53
f 53 51 54
f 65 67 64
f 21 65 157
f 22 21 157
f 22 157 23
f 23 157 39
f 49 158 54
f 49 54 50
f 58 56 54
f 57 56 73
f 79 57 72
f 79 81 80
f 156 155 77
f 156 77 78
f 80 81 149
f 95 149 100
f 99 95 100
f 44 150 96
f 78 96 97
f 78 45 38
f 41 38 40
f 39 157 41
f 23 39 10
f 42 46 47
f 46 42 98
f 48 148 35
f 99 100 98
f 107 106 108
f 147 108 110
f 111 100 112
f 103 104 112
f 110 118 109
f 26 109 142
f 26 127 128
f 117 104 141
f 104 114 120
f 114 115 120
f 127 126 139
f 126 125 139
f 121 124 125
f 140 122 121
f 120 115 143
f 114 90 115
f 87 89 90
f 86 89 88
f 140 116 122
f 122 123 134
f 123 135 134
f 135 136 133
f 136 7 5

