# https://github.com/mikedh/trimesh
v -0.15963300 0.03494400 0.05080500
v -0.15396825 0.04165200 0.03120800
v -0.15753500 0.03966800 0.03557500
v -0.14692400 0.04359150 0.02619200
v -0.14674477 0.01940638 0.01535418
v -0.14862753 0.02584400 0.01598575
v -0.14419202 0.02377574 0.01480752
v -0.14205956 0.02907124 0.01555076
v -0.13984244 0.02602580 0.01438602
v -0.14271455 0.03506824 0.01806474
v -0.12946001 0.01995288 0.01619977
v -0.13329109 0.02394247 0.01484452
v -0.13058296 0.03410065 0.01906358
v -0.12613171 0.03302756 0.02044456
v -0.13867900 0.03982200 0.02120700
v -0.14705673 0.03606558 0.01881842
v -0.12133500 0.02289700 0.02032700
v -0.12950517 0.01340353 0.01723483
v -0.12242305 0.02568266 0.01979471
v -0.13184761 0.03708225 0.02007162
v -0.13126255 0.04336280 0.02562634
v -0.11299524 0.02163552 0.02671743
v -0.11582726 0.03190138 0.02708398
v -0.12143312 0.03655094 0.02504046
v -0.11242800 0.03469058 0.03150588
v -0.12183906 0.01462905 0.02023535
v -0.13759079 0.01452560 0.01509905
v -0.11674911 0.01536170 0.02412135
v -0.12046850 0.04318300 0.03442000
v -0.13995297 0.04392572 0.02435858
v -0.12821099 0.04577873 0.03082291
v -0.11042450 0.01831050 0.03108350
v -0.12800000 0.04707300 0.03396875
v -0.13437768 0.01155878 0.01629517
v -0.12663525 0.00747925 0.02176650
v -0.11642363 0.01247312 0.02618550
v -0.15201300 0.03415800 0.02038200
v -0.13960101 0.01047300 0.01680400
v -0.15085500 0.02312800 0.01669300
v -0.15208900 0.03975600 0.02493600
v -0.15205399 0.03106100 0.01897650
v -0.15204000 0.02656000 0.01759800
v -0.14573575 0.01632225 0.01597825
v -0.10964550 0.02634900 0.03283000
v -0.14441725 0.01347875 0.01645100
v -0.15193400 0.01837100 0.01766200
v -0.15066990 0.00210347 0.04105031
v -0.14254556 0.00089305 0.02987509
v -0.14776603 0.00026712 0.04181074
v -0.14923843 0.00632941 0.02376507
v -0.14312662 0.00210401 0.02671593
v -0.14874703 0.00318674 0.03185333
v -0.15393355 0.00882903 0.02674076
v -0.15266669 0.00633394 0.03015485
v -0.15719606 0.00792601 0.04018059
v -0.15625899 0.01282128 0.02346687
v -0.16338349 0.01400800 0.04369275
v -0.14273945 0.00486463 0.02157996
v -0.15849800 0.01391600 0.02799200
v -0.13785399 -0.00046539 0.03080478
v -0.13937521 -0.00168590 0.04146396
v -0.13287290 -0.00083683 0.03214168
v -0.13680168 0.00177899 0.02480438
v -0.13340964 0.00126465 0.02565894
v -0.14182804 -0.00211860 0.04367370
v -0.13406900 -0.00190700 0.04341100
v -0.13163388 -0.00134788 0.03750162
v -0.12966849 -0.00017750 0.03164250
v -0.13077950 0.00294812 0.02429675
v -0.15464875 0.00194300 0.04291125
v -0.14952977 0.01002835 0.01993567
v -0.13528584 0.00455611 0.02123209
v -0.15413301 0.01756600 0.01943500
v -0.14692560 0.01277729 0.01711094
v -0.16510397 0.02879652 0.04898419
v -0.16405700 0.01753400 0.04432300
v -0.16168534 0.02071074 0.02863631
v -0.16264695 0.02444144 0.03362482
v -0.16263170 0.02804786 0.03711245
v -0.16062737 0.02357148 0.02578450
v -0.16151339 0.01604957 0.03823835
v -0.16269127 0.02713435 0.04385186
v -0.16048200 0.02782782 0.02670061
v -0.16063918 0.03428838 0.03384577
v -0.15821845 0.02462808 0.02243276
v -0.15965892 0.03640068 0.03928254
v -0.15873298 0.03395810 0.02596619
v -0.15519074 0.02674095 0.01930525
v -0.15621320 0.01941156 0.02039756
f 3 86 87
f 87 86 84
f 3 87 2
f 2 87 40
f 40 87 37
f 87 41 37
f 41 87 88
f 88 87 85
f 85 89 88
f 39 88 89
f 89 46 39
f 73 46 89
f 73 89 59
f 59 89 77
f 77 89 80
f 84 77 80
f 84 80 83
f 87 84 83
f 87 83 80
f 84 78 77
f 79 78 84
f 82 79 84
f 86 82 84
f 79 82 76
f 75 76 82
f 86 75 82
f 79 76 78
f 78 76 77
f 76 81 77
f 76 57 81
f 59 77 57
f 56 59 57
f 57 55 56
f 55 57 70
f 55 54 56
f 54 53 56
f 56 53 50
f 56 50 71
f 74 56 71
f 74 71 58
f 74 58 38
f 74 38 45
f 72 38 58
f 72 58 63
f 63 64 72
f 72 64 69
f 62 69 64
f 68 69 62
f 68 62 67
f 67 62 61
f 67 61 66
f 66 61 65
f 65 61 49
f 49 70 65
f 61 47 49
f 49 47 70
f 47 55 70
f 62 60 61
f 60 48 61
f 61 48 47
f 48 52 47
f 48 50 52
f 52 50 54
f 50 48 51
f 51 58 50
f 60 58 51
f 47 52 55
f 60 51 48
f 62 64 60
f 64 63 60
f 60 63 58
f 58 71 50
f 54 50 53
f 52 54 55
f 56 46 73
f 45 46 56
f 42 88 39
f 6 42 39
f 16 42 6
f 37 42 16
f 16 4 37
f 4 16 30
f 30 16 10
f 15 30 10
f 21 30 15
f 31 30 21
f 31 33 30
f 33 31 25
f 29 33 25
f 25 31 24
f 25 24 23
f 25 23 22
f 32 25 22
f 44 25 32
f 22 28 32
f 32 28 36
f 28 26 36
f 26 35 36
f 26 34 35
f 34 38 35
f 26 18 34
f 22 26 28
f 22 17 26
f 17 19 26
f 19 11 26
f 11 18 26
f 11 27 18
f 27 34 18
f 11 12 27
f 12 9 27
f 9 5 27
f 5 43 27
f 27 43 34
f 34 43 38
f 9 7 5
f 8 7 9
f 20 8 9
f 13 20 9
f 20 13 24
f 21 20 24
f 24 13 14
f 14 13 12
f 20 10 8
f 8 6 7
f 7 6 5
f 13 9 12
f 12 11 19
f 24 12 19
f 19 17 22
f 23 19 22
f 24 19 23
f 33 4 30
f 24 31 21
f 21 15 20
f 15 10 20
f 10 16 8
f 8 16 6
f 6 39 43
f 85 80 89
f 87 80 85
f 88 42 41
f 1 86 3
f 1 75 86

