v 0.2796905 0.409832875 -0.23000925
v 0.242876625 0.458837875 -0.205765875
v 0.20238725 0.27081375 -0.0938036125
v 0.20401475 0.281930125 -0.093765025
v 0.198299125 0.26070625 -0.0961450375
v 0.1918244375 0.273964421875 -0.0981831234375
v 0.188751 0.262181125 -0.1003151875
v 0.143222375 0.3334975 -0.18648375
v 0.196977875 0.286927375 -0.0976523
v 0.18086775 0.266607125 -0.105514375
v 0.18082075 0.27577925 -0.106425625
v 0.17372075 0.279483875 -0.113948875
v 0.185705765625 0.288025359375 -0.105161210937
v 0.140749625 0.323546125 -0.172987
v 0.166746 0.28347675 -0.121476875
v 0.1770013125 0.290612953125 -0.113384203125
v 0.19185475 0.29977275 -0.106990625
v 0.137694625 0.32695475 -0.182568375
v 0.193197625 0.308353625 -0.11035925
v 0.197227375 0.29614375 -0.1010226625
v 0.145711 0.32055425 -0.16242525
v 0.148700640625 0.332385375 -0.1740663125
v 0.1808639375 0.301720109375 -0.113682765625
v 0.186665625 0.313756875 -0.113520375
v 0.17544925 0.314595375 -0.123625875
v 0.172784125 0.304432 -0.122266875
v 0.1688475 0.293290375 -0.12215875
v 0.193041375 0.333268875 -0.1192855
v 0.189903 0.32359775 -0.116151875
v 0.15914875 0.35307428125 -0.18720853125
v 0.15210371875 0.34360765625 -0.186263953125
v 0.180476625 0.3282785 -0.124536375
v 0.171548375 0.31953275 -0.130785125
v 0.183595 0.334846625 -0.125530625
v 0.199378875 0.37433525 -0.134809
v 0.174957125 0.327833125 -0.131083875
v 0.196993890625 0.4123135 -0.191875359375
v 0.1562043125 0.34161428125 -0.174928109375
v 0.1638505 0.320491125 -0.140480875
v 0.163378 0.350996828125 -0.175826265625
v 0.190781359375 0.402394859375 -0.191135578125
v 0.1947783125 0.400651546875 -0.179552828125
v 0.165977328125 0.36267075 -0.188106328125
v 0.2163195 0.390749625 -0.120935375
v 0.1595075 0.312772625 -0.140296875
v 0.1645375 0.309856875 -0.133010125
v 0.142931 0.336541375 -0.19551275
v 0.15115475 0.31887525 -0.153444625
v 0.16517175 0.335077625 -0.151221375
v 0.21916475 0.398632625 -0.124408875
v 0.2129505 0.398125875 -0.130288625
v 0.21015725 0.390243875 -0.126853125
v 0.153353609375 0.329817765625 -0.16311721875
v 0.160760890625 0.339224203125 -0.1637535
v 0.17026965625 0.360569171875 -0.176676421875
v 0.16787675 0.348723546875 -0.164516875
v 0.147717875 0.343808375 -0.199283125
v 0.155903515625 0.35445178125 -0.19893496875
v 0.170569125 0.33533825 -0.1431265
v 0.23236 0.419318375 -0.137564875
v 0.2356215 0.425412625 -0.143673875
v 0.158075375 0.327074625 -0.152249375
v 0.17461803125 0.358451140625 -0.165269234375
v 0.1724933125 0.372448546875 -0.188923734375
v 0.229838875 0.39383725 -0.129085625
v 0.237930875 0.42058425 -0.151118375
v 0.234315875 0.410829125 -0.14056225
v 0.23269325 0.40237825 -0.1345485
v 0.17684009375 0.370359984375 -0.177434359375
v 0.14784075 0.346437125 -0.208453375
v 0.162597140625 0.36416334375 -0.199863640625
v 0.24069725 0.423611125 -0.159593125
v 0.172281484375 0.34658496875 -0.153118609375
v 0.17882034375 0.3566434375 -0.153732765625
v 0.18110328125 0.36840228125 -0.165923390625
v 0.2374645 0.417845625 -0.16554575
v 0.232764 0.41138725 -0.158887375
v 0.228006 0.395424375 -0.14257725
v 0.228102625 0.388104 -0.1353355
v 0.17866646875 0.382397296875 -0.18966665625
v 0.16893346875 0.37406196875 -0.20068246875
v 0.22965725 0.40389475 -0.1504355
v 0.26840075 0.456083125 -0.179005
v 0.262397875 0.4536585 -0.1729545
v 0.259874 0.444703875 -0.1751115
v 0.25387175 0.439468125 -0.17037125
v 0.18817975 0.355238 -0.132527875
v 0.194187375 0.36474125 -0.131846375
v 0.27693875 0.449417625 -0.19254925
v 0.269644875 0.44864975 -0.185275875
v 0.262817625 0.427426875 -0.199488875
v 0.265688390625 0.437145734375 -0.19226825
v 0.25783009375 0.4340738125 -0.184020375
v 0.187215015625 0.378513515625 -0.166497640625
v 0.284065125 0.450139 -0.199743875
v 0.2501935 0.430792875 -0.175380875
v 0.27413528125 0.439532453125 -0.199866140625
v 0.1753039375 0.38393859375 -0.20150309375
v 0.159365875 0.363712875 -0.2133625
v 0.290926875 0.442385125 -0.213065375
v 0.1537185 0.355074 -0.210977
v 0.270089875 0.4281805 -0.20725075
v 0.299879 0.435669 -0.225318125
v 0.292265875 0.435784125 -0.219754875
v 0.17675575 0.344397875 -0.141775
v 0.27098775 0.421037375 -0.21490675
v 0.280911109375 0.43145971875 -0.21433571875
v 0.28443975 0.44303625 -0.2067385
v 0.27828175 0.419452625 -0.222164125
v 0.290204296875 0.423898359375 -0.227374265625
v 0.302149 0.429011375 -0.2319255
v 0.254609 0.4247895 -0.1911
v 0.309897 0.4293135 -0.23727325
v 0.247549125 0.424162375 -0.18271575
v 0.301656484375 0.41743625 -0.23878675
v 0.29066615625 0.4136035 -0.23434859375
v 0.30326559375 0.40744134375 -0.244966203125
v 0.29242796875 0.40364565625 -0.241036546875
v 0.312515 0.42125675 -0.24315825
v 0.281594 0.3998315 -0.2384755
v 0.3050213125 0.397078 -0.25051115625
v 0.3141175 0.41119075 -0.2490515
v 0.31585175 0.400773375 -0.254466375
v 0.29316875 0.39157075 -0.246923
v 0.296347875 0.382739 -0.251481125
v 0.317733875 0.390196375 -0.2594055
v 0.28453925 0.39142175 -0.244381125
v 0.298539 0.371831375 -0.255885125
v 0.3070129375 0.386468015625 -0.255528484375
v 0.3092543125 0.375501578125 -0.2597068125
v 0.182680375 0.353789375 -0.1407355
v 0.30094475 0.36064625 -0.259697875
v 0.31995725 0.37921425 -0.263421625
v 0.314555609375 0.353273828125 -0.266398078125
v 0.3225435 0.36812275 -0.26676275
v 0.3117205 0.3643824375 -0.263266453125
v 0.317557515625 0.342022890625 -0.26917284375
v 0.306786875 0.33772325 -0.2651395
v 0.30372075 0.349226 -0.26264475
v 0.325409875 0.357105375 -0.269941875
v 0.328329 0.346145625 -0.27317375
v 0.18501084375 0.367024671875 -0.154277640625
v 0.193033734375 0.3888235625 -0.167212640625
v 0.18302028125 0.3803408125 -0.178123203125
v 0.167445375 0.37613 -0.214441875
v 0.305482 0.437996625 -0.24502075
v 0.308968 0.327010125 -0.2659605
v 0.329609 0.336221875 -0.2755095
v 0.173208625 0.384854625 -0.213625125
v 0.323120875 0.330531375 -0.271952
v 0.188951671875 0.36605534375 -0.1427584375
v 0.30215825 0.319998 -0.263522875
v 0.296839 0.449128875 -0.23148225
v 0.30504675 0.44523925 -0.233964125
v 0.302225375 0.430604375 -0.254674375
v 0.3165849375 0.315993671875 -0.2661265625
v 0.198809390625 0.39937721875 -0.16806521875
v 0.29345146875 0.44052384375 -0.24567315625
v 0.29009025 0.431802125 -0.2559065
v 0.3042155 0.310664 -0.261884375
v 0.326928875 0.32134875 -0.27077325
v 0.280923265625 0.4421056875 -0.244878671875
v 0.298557625 0.30295275 -0.259199875
v 0.2038555 0.400297 -0.155369
v 0.330952375 0.312276625 -0.269125875
v 0.275556625 0.43367225 -0.2544935
v 0.28345646875 0.4498398125 -0.23297965625
v 0.293674375 0.4544585 -0.218928125
v 0.301894 0.2951015 -0.255299625
v 0.296750625 0.28770525 -0.251694125
v 0.322838125 0.306373125 -0.264766875
v 0.26775525 0.442764875 -0.243013625
v 0.284690375 0.45619775 -0.21922575
v 0.271369640625 0.450389484375 -0.23199878125
v 0.274385625 0.457499625 -0.217469
v 0.31322975 0.30085275 -0.259996125
v 0.181520265625 0.3939374375 -0.202264359375
v 0.18467153125 0.3924420625 -0.190382078125
v 0.26101275 0.43447025 -0.251620625
v 0.253968328125 0.442747 -0.23951125
v 0.259189578125 0.45009528125 -0.230373640625
v 0.250622875 0.4608965 -0.205056375
v 0.26925875 0.46128025 -0.20578225
v 0.246573375 0.434752875 -0.2467395
v 0.261343 0.456416671875 -0.21860009375
v 0.2601125 0.46179025 -0.2049515
v 0.188889359375 0.3904924375 -0.17880725
v 0.246886109375 0.4493426875 -0.226744421875
v 0.250134125 0.45550984375 -0.21701009375
v 0.179909625 0.394821375 -0.214435
v 0.301995625 0.281431625 -0.24954575
v 0.16044725 0.36606725 -0.22276525
v 0.1879919375 0.403863578125 -0.203046640625
v 0.24067853125 0.442867828125 -0.2332735
v 0.233115875 0.435694875 -0.238496875
v 0.238957875 0.45453875 -0.212018875
v 0.23460925 0.449216125 -0.218683875
v 0.228793 0.4433255 -0.2238485
v 0.196133125 0.378217625 -0.142230375
v 0.22417775 0.437501375 -0.228932375
v 0.190957625 0.377566609375 -0.15487421875
v 0.308389875 0.286038 -0.253182125
v 0.225394875 0.447547625 -0.20492225
v 0.217807 0.4409625 -0.205764375
v 0.19679396875 0.388279546875 -0.155715953125
v 0.22677925 0.44868025 -0.195273875
v 0.2096045 0.431428375 -0.215105625
v 0.210464125 0.433659875 -0.2066215
v 0.228181 0.447593375 -0.185798625
v 0.218524203125 0.440285421875 -0.194385796875
v 0.200527875 0.3879275 -0.1441845
v 0.224828625 0.437972375 -0.174186125
v 0.202259375 0.423809625 -0.216376125
v 0.22297725 0.44072975 -0.182138875
v 0.214126625 0.418420875 -0.1607325
v 0.210799796875 0.43146790625 -0.19351665625
v 0.21823375 0.42970225 -0.171338
v 0.2140816875 0.43046821875 -0.18225690625
v 0.19429825 0.414515375 -0.215862125
v 0.201901796875 0.4232755 -0.2044580625
v 0.212533125 0.421147625 -0.168962625
v 0.207067265625 0.42089328125 -0.181275640625
v 0.205578875 0.3974105 -0.14678575
v 0.186942875 0.40475675 -0.215189375
v 0.2035614375 0.42211253125 -0.19264221875
v 0.208675125 0.409447625 -0.15779025
v 0.20480371875 0.409752921875 -0.169062
v 0.19470665625 0.4137195 -0.203782921875
v 0.16552725 0.373524 -0.223371125
v 0.20079003125 0.410706203125 -0.18032734375
v 0.1902535625 0.2680725 -0.0990735
v 0.193907 0.2604785 -0.09797325
v 0.2007975 0.2647745 -0.0947479
v 0.1970210625 0.2724104375 -0.095770025
v 0.2004895 0.284474 -0.09552295
v 0.1935319375 0.2798574375 -0.09799536875
v 0.2040535 0.2769545 -0.09333395
v 0.180802 0.2712505 -0.105824
v 0.183961 0.263904 -0.1032535
v 0.1869669375 0.275433 -0.10148959375
v 0.190395125 0.2868770625 -0.10157196875
v 0.1839455 0.2824575 -0.105027375
v 0.1944515 0.2980215 -0.103991
v 0.1877923125 0.2934666875 -0.10606714375
v 0.19698 0.2916315 -0.09919765
v 0.1812574375 0.289287875 -0.109144625
v 0.1753155 0.285049375 -0.1135971875
v 0.177981 0.2781385 -0.1095625
v 0.1728885625 0.2919489375 -0.1177419375
v 0.167018 0.287878 -0.1223465
v 0.169478 0.280971 -0.118299
v 0.185420875 0.3001925625 -0.110390125
v 0.17886925 0.2961726875 -0.113448625
v 0.176720625 0.303110375 -0.1177749375
v 0.170788 0.2988295 -0.1221645
v 0.189921 0.311051 -0.1119515
v 0.18293 0.30724675 -0.1139789375
v 0.1926395 0.3039055 -0.1089095
v 0.180840375 0.3142259375 -0.1181878125
v 0.1747805 0.3100345 -0.122369
v 0.18531825 0.32506725 -0.1197281875
v 0.1791980625 0.3211714375 -0.1228545
v 0.1872875 0.3182305 -0.1149
v 0.1779495 0.3281505 -0.1275635
v 0.172435 0.32404 -0.13212
v 0.1734625 0.317073 -0.1271925
v 0.181603 0.3315035 -0.12498
v 0.1926285 0.3289845 -0.1173375
v 0.188719 0.335329 -0.1228245
v 0.160858 0.31711 -0.141609
v 0.161316 0.3100205 -0.1366285
v 0.167426 0.313285 -0.131848
v 0.166968 0.3203745 -0.1368285
v 0.1403555 0.330324 -0.1844735
v 0.138371 0.324931 -0.178346
v 0.14475925 0.3279341875 -0.1735459375
v 0.1465699375 0.3334875 -0.17960125
v 0.2165275 0.399693 -0.1279245
v 0.2105225 0.3941005 -0.129554
v 0.2127685 0.389183 -0.1233185
v 0.2187735 0.3947755 -0.121689
v 0.2353403125 0.4149393125 -0.14677975
v 0.2368135 0.4230835 -0.147351
v 0.2336545 0.423459 -0.1397585
v 0.2331855 0.4150865 -0.139053
v 0.227836 0.39075 -0.1389875
v 0.230349625 0.3989013125 -0.138562875
v 0.231235 0.398071 -0.130798
v 0.2287825 0.389824 -0.1313165
v 0.2323814375 0.407315 -0.1464479375
v 0.231001 0.4077895 -0.1546065
v 0.2352888125 0.4149391875 -0.1549146875
v 0.235043 0.4146015 -0.163243
v 0.239655 0.421533 -0.163668
v 0.239674 0.4220275 -0.1553045
v 0.228636 0.3997895 -0.1464095
v 0.233936 0.406612 -0.138432
v 0.261094 0.449201 -0.1740555
v 0.26433425 0.445527875 -0.1811565625
v 0.2689955 0.4524155 -0.1821715
v 0.2655175 0.456225 -0.1752685
v 0.251853 0.435376 -0.1719005
v 0.2540004375 0.4324423125 -0.1797259375
v 0.2593124375 0.438879875 -0.1804374375
v 0.257006 0.4420185 -0.1726625
v 0.2617051875 0.4356694375 -0.1882135625
v 0.267115375 0.4420173125 -0.1886266875
v 0.269842375 0.43841925 -0.1961471875
v 0.275524 0.444474875 -0.1962063125
v 0.272692 0.4482135 -0.188826
v 0.27853525 0.4405278125 -0.203440875
v 0.2842015 0.446575 -0.2033085
v 0.281187 0.450573 -0.196173
v 0.2562451875 0.429398875 -0.1875688125
v 0.2587225 0.42607 -0.195352
v 0.2642546875 0.432283875 -0.1958848125
v 0.272798625 0.4345906875 -0.2035315
v 0.267076 0.4286175 -0.2034155
v 0.248137 0.4267695 -0.178943
v 0.2502955 0.423828 -0.186828
v 0.27616225 0.430503 -0.210924375
v 0.28189675 0.43650525 -0.21055225
v 0.2858414375 0.432705875 -0.21731025
v 0.291524 0.4390425 -0.216474
v 0.2876235 0.442678 -0.2099055
v 0.2745255 0.420327 -0.2185335
v 0.2801936875 0.426357625 -0.218108125
v 0.2704515 0.4246545 -0.2111135
v 0.2904365625 0.429059375 -0.223702875
v 0.295567875 0.425572125 -0.2297986875
v 0.3010345 0.432306 -0.228629
v 0.2960035 0.435744 -0.2225315
v 0.2849218125 0.4223728125 -0.224784875
v 0.2851751875 0.4117126875 -0.2321695
v 0.290264125 0.4187208125 -0.2309024375
v 0.2794735 0.4153435 -0.225969
v 0.2961696875 0.4155163125 -0.236565375
v 0.3011428125 0.422384375 -0.2355353125
v 0.30709725 0.4193484375 -0.240979625
v 0.3117405 0.4261445 -0.240152
v 0.3059015 0.4291415 -0.234669
v 0.2914605 0.4086231875 -0.2377739375
v 0.2978455 0.405548125 -0.2428925
v 0.302403125 0.412471125 -0.2419444375
v 0.308690375 0.40931975 -0.2470150625
v 0.3133035 0.4162725 -0.246145
v 0.2805225 0.404754 -0.234346
v 0.287010875 0.4017395 -0.2396409375
v 0.293349375 0.3985366875 -0.2439945
v 0.2996515625 0.3952059375 -0.2484770625
v 0.30412675 0.40229925 -0.247809875
v 0.3104274375 0.3989305625 -0.2525000625
v 0.3149685 0.4060105 -0.251817
v 0.2825295 0.39479 -0.241894
v 0.2888335 0.391519 -0.2457165
v 0.2953015 0.388066 -0.2490235
v 0.30167575 0.3846035625 -0.253519
v 0.305984 0.39181075 -0.25310575
v 0.31236875 0.38833225 -0.2574811875
v 0.3167625 0.395521 -0.2570245
v 0.3038976875 0.3736629375 -0.257804875
v 0.30810625 0.3810203125 -0.2577141875
v 0.297424 0.377324 -0.253759
v 0.3146068125 0.377354375 -0.261573125
v 0.318799 0.3847425 -0.2615235
v 0.3063286875 0.362514 -0.2614881875
v 0.3104475 0.36994575 -0.2615503125
v 0.299702 0.3662715 -0.2578875
v 0.3171280625 0.36625225 -0.265020625
v 0.321208 0.3736665 -0.265143
v 0.3091365625 0.3512679375 -0.264538875
v 0.313108 0.35884125 -0.264877
v 0.302299 0.3549575 -0.261248
v 0.305166 0.3434725 -0.263995
v 0.312172125 0.3398878125 -0.267158875
v 0.3160089375 0.3476318125 -0.2678458125
v 0.3229431875 0.344099 -0.271176
v 0.3268695 0.351607 -0.2715395
v 0.319981125 0.355207625 -0.2681874375
v 0.323956 0.3626065 -0.268356
v 0.3087355 0.3320045 -0.265919
v 0.316212625 0.328891375 -0.2686803125
v 0.319290875 0.33655475 -0.2703318125
v 0.3261875 0.33333 -0.2739765
v 0.3297825 0.3407555 -0.2748695
v 0.2945591875 0.4445786875 -0.239791875
v 0.3010465 0.447261 -0.232994
v 0.3060725 0.442006 -0.2387125
v 0.2995016875 0.4393295 -0.2454585
v 0.296956 0.430519 -0.256045
v 0.2918854375 0.4362241875 -0.25094275
v 0.3046335 0.4336465 -0.2506705
v 0.3031265 0.315424 -0.2626685
v 0.311444375 0.3132146875 -0.2640036875
v 0.3136463125 0.3210496875 -0.266485
v 0.3054405 0.323434 -0.264891
v 0.321750625 0.3186915 -0.2684098125
v 0.324012 0.3262775 -0.2711175
v 0.2841443125 0.45312675 -0.2262290625
v 0.289858 0.4556855 -0.2179935
v 0.2951915 0.4519005 -0.225109
v 0.289372375 0.4492251875 -0.23316825
v 0.2872614375 0.441441125 -0.245441625
v 0.2824850625 0.446121 -0.2392248125
v 0.3097515625 0.305468625 -0.2611225
v 0.3179665 0.3036475 -0.2623795
v 0.3196739375 0.31113425 -0.265511
v 0.327876 0.309071 -0.267162
v 0.3299395 0.3165255 -0.2702195
v 0.282893 0.4328655 -0.255383
v 0.27846425 0.43792925 -0.249855375
v 0.300193 0.299023 -0.2573065
v 0.3085965 0.2979475 -0.257613
v 0.3012955 0.30667 -0.260727
v 0.26990275 0.44670875 -0.237792625
v 0.27744 0.4502260625 -0.232571375
v 0.274428625 0.442541875 -0.2440990625
v 0.2682735 0.4341855 -0.253257
v 0.26462875 0.43865825 -0.247500625
v 0.2724543125 0.4537066875 -0.22579325
v 0.2791195 0.4566115 -0.2195455
v 0.2982675 0.28375 -0.2500765
v 0.306027 0.2826385 -0.2510685
v 0.3071125 0.2902975 -0.254424
v 0.299353 0.291409 -0.253432
v 0.2569175625 0.4465309375 -0.235249
v 0.2652920625 0.450335625 -0.23131725
v 0.260880875 0.442789875 -0.2415331875
v 0.2537435 0.4345915 -0.2495315
v 0.2504205 0.4387925625 -0.243255
v 0.26070575 0.4533909375 -0.2247905625
v 0.2670163125 0.4566536875 -0.2188693125
v 0.26097825 0.45917125 -0.2119025625
v 0.265084 0.461898 -0.2043845
v 0.271729 0.459435 -0.2115125
v 0.2440624375 0.4461679375 -0.23031025
v 0.2530445 0.44969925 -0.2290148125
v 0.2471804375 0.442766375 -0.2368013125
v 0.23961 0.435158 -0.2429945
v 0.2369766875 0.439338625 -0.2359555
v 0.24890725 0.4524958125 -0.2222546875
v 0.2557244375 0.456005 -0.2181303125
v 0.250575 0.4582673125 -0.2111796875
v 0.255252 0.461459 -0.2051155
v 0.2445455625 0.455022375 -0.2147895625
v 0.240673 0.4569085 -0.2084495
v 0.2463455 0.460095 -0.204954
v 0.2369545 0.4519605 -0.215488
v 0.2407436875 0.44922075 -0.223066125
v 0.2346239375 0.4430711875 -0.2287979375
v 0.2318685 0.446348 -0.2214335
v 0.2273535 0.4362515 -0.233447
v 0.2254435 0.440118 -0.2260405
v 0.2179855625 0.44062 -0.2000534375
v 0.2226118125 0.44451225 -0.194827875
v 0.2264255 0.4485705 -0.2007955
v 0.22215 0.444768 -0.2060855
v 0.2099069375 0.4319960625 -0.1992895
v 0.21459625 0.4359409375 -0.1939515625
v 0.213482 0.436862 -0.205438
v 0.219783 0.4399666875 -0.18880475
v 0.2254545 0.444201 -0.1839385
v 0.2279935 0.4487205 -0.189926
v 0.2019331875 0.423595125 -0.210414375
v 0.20569325 0.4278966875 -0.204775
v 0.2100425 0.4325495 -0.21083
v 0.2065375 0.428194 -0.2164905
v 0.20246 0.422745625 -0.198512625
v 0.2071066875 0.4268554375 -0.1930725625
v 0.21225175 0.4309470625 -0.187838625
v 0.2177799375 0.435095875 -0.1827935
v 0.2161085 0.4300660625 -0.176773
v 0.222294 0.4344115 -0.1722035
v 0.2239125 0.439366 -0.178193
v 0.194362875 0.4141654375 -0.209812375
v 0.1982391875 0.4185450625 -0.20412775
v 0.198188 0.4192385 -0.216154
v 0.20794575 0.414904375 -0.16962725
v 0.2067518125 0.4095545625 -0.16343
v 0.212053 0.4145685 -0.158674
v 0.2133355 0.419807 -0.164904
v 0.20515975 0.42148325 -0.186911
v 0.2104923125 0.4257535 -0.181758125
v 0.2090963125 0.420378125 -0.1756928125
v 0.214573 0.4248635 -0.1706825
v 0.1873356875 0.4043546875 -0.20910275
v 0.1913054375 0.4088129375 -0.2034224375
v 0.190565 0.409675 -0.2155385
v 0.19560875 0.4130815625 -0.1977940625
v 0.2002085625 0.4172481875 -0.1922485625
v 0.203862 0.415829125 -0.1807879375
v 0.2028060625 0.410134125 -0.1746785
v 0.1987868125 0.4114771875 -0.186056375
v 0.19971475 0.393650125 -0.1561845
v 0.1986580625 0.38810275 -0.1499548125
v 0.203693 0.39333 -0.144846
v 0.2047485 0.398874 -0.151105
v 0.1805985 0.3944249375 -0.2083295625
v 0.1847225625 0.398909625 -0.202655875
v 0.1833865 0.3998 -0.214821
v 0.201766125 0.4045865625 -0.16854325
v 0.2007184375 0.399116 -0.1623460625
v 0.2055535 0.404256 -0.157143
v 0.197764875 0.4056696875 -0.1799261875
v 0.196820875 0.399914375 -0.1738015625
v 0.1891750625 0.403194375 -0.1970515625
v 0.19386325 0.4073595625 -0.191506375
v 0.159883 0.364888 -0.2180725
v 0.1636694375 0.3698285 -0.2123908125
v 0.166507 0.374827 -0.218906
v 0.162918 0.369775 -0.2245945
v 0.192707125 0.4015128125 -0.18531675
v 0.1877129375 0.397427875 -0.1907569375
v 0.1867218125 0.3914861875 -0.1845784375
v 0.191822125 0.39558375 -0.179175625
v 0.191004875 0.3895530625 -0.1730070625
v 0.1959099375 0.3940968125 -0.167622125
v 0.1829078125 0.3932678125 -0.196279625
v 0.193880875 0.3829098125 -0.1552703125
v 0.1927790625 0.377281625 -0.149091
v 0.1975205 0.382498 -0.1437
v 0.19014675 0.3836356875 -0.1668354375
v 0.1891234375 0.3779488125 -0.160679375
v 0.1949413125 0.3884594375 -0.16145875
v 0.1842045625 0.373437375 -0.166206375
v 0.1830941875 0.3676393125 -0.1601078125
v 0.188006375 0.372275625 -0.1545543125
v 0.1868826875 0.366541375 -0.148464
v 0.19195125 0.3714741875 -0.14314
v 0.19145975 0.3654325 -0.1372525
v 0.1975595 0.3701385 -0.1327765
v 0.197828 0.3762625 -0.1386135
v 0.174162375 0.3844424375 -0.207544125
v 0.178408 0.388933375 -0.2018863125
v 0.176526 0.3898375 -0.214033
v 0.1816706875 0.387420875 -0.190022625
v 0.1807925 0.3813925 -0.183882875
v 0.1859730625 0.38540375 -0.178460375
v 0.185170875 0.379346 -0.1723201875
v 0.176821125 0.3832514375 -0.195542
v 0.18195475 0.3618015625 -0.15401125
v 0.18081125 0.355956375 -0.14795625
v 0.1859484375 0.3606716875 -0.14247525
v 0.185429 0.3545035 -0.1366265
v 0.19108 0.3592125 -0.131349
v 0.1677090625 0.3745438125 -0.206719125
v 0.17212625 0.37899425 -0.2010960625
v 0.1699305 0.379879 -0.2132215
v 0.161353625 0.364619125 -0.2058793125
v 0.165784125 0.369103375 -0.2002795625
v 0.1756149375 0.3774043125 -0.18930225
v 0.1746271875 0.371426375 -0.1831636875
v 0.1799780625 0.37532675 -0.1777839375
v 0.1790086875 0.3693305625 -0.17169325
v 0.1778990625 0.36340325 -0.1656104375
v 0.176747625 0.357488875 -0.1595113125
v 0.175589875 0.3515874375 -0.1534198125
v 0.1745109375 0.3454978125 -0.14744075
v 0.1797865 0.349876 -0.1419455
v 0.1689133125 0.3415874375 -0.152875375
v 0.167934 0.3351315 -0.1472055
v 0.1735965 0.3389895 -0.1417425
v 0.1477875 0.3451 -0.203861
v 0.152469875 0.349636625 -0.198448875
v 0.1547338125 0.3548179375 -0.20493375
v 0.1502355 0.3501545 -0.2103965
v 0.1592914375 0.35928675 -0.199411
v 0.1570365 0.3600175 -0.2114815
v 0.1705618125 0.3733453125 -0.194757
v 0.1641466875 0.3635095 -0.19393875
v 0.1692788125 0.367536625 -0.1885254375
v 0.1736000625 0.3654389375 -0.17706625
v 0.1724565 0.3594886875 -0.170983875
v 0.1712863125 0.3535568125 -0.1649015
v 0.17008275 0.3476465625 -0.1588206875
v 0.1643621875 0.343954625 -0.164125
v 0.1630824375 0.3379699375 -0.1581905
v 0.157382 0.3538654375 -0.193025125
v 0.16259475 0.357853125 -0.187665375
v 0.168064125 0.36166025 -0.1823680625
v 0.1668605625 0.35575625 -0.1762616875
v 0.1656255 0.349856875 -0.1701770625
v 0.1495490625 0.325174625 -0.162777875
v 0.1482985 0.3189095 -0.157271
v 0.1544765 0.3221675 -0.1521815
v 0.1557153125 0.3284550625 -0.157678375
v 0.157091125 0.3345064375 -0.16343
v 0.161763 0.331885 -0.152416
v 0.1504125 0.344338125 -0.192067625
v 0.155657 0.34832475 -0.18674175
v 0.143164 0.334934 -0.1910215
v 0.148473125 0.338926125 -0.1857740625
v 0.145274 0.3402275 -0.1973835
v 0.1598271875 0.3462875625 -0.175374375
v 0.158452875 0.340450125 -0.169329
v 0.16118325 0.3520936875 -0.1814895
v 0.1525055625 0.3369628125 -0.1745095625
v 0.150988625 0.331145 -0.16857575
v 0.1431955 0.3220935 -0.167672
v 0.154061125 0.34268325 -0.1805619375
v 0.1954345 0.2664335 -0.096708625
v 0.19872575 0.27843125 -0.095483475
v 0.18543675 0.2696715 -0.102246675
v 0.188606 0.2811825 -0.101232
v 0.1923755 0.29247375 -0.102607575
v 0.179548 0.2837335 -0.1092155
v 0.17115 0.286444 -0.11797325
v 0.18325175 0.294761 -0.109626
v 0.17476025 0.29751775 -0.1176995
v 0.18765475 0.30562225 -0.1111675
v 0.17872525 0.30868675 -0.11789725
v 0.18313225 0.319707 -0.118768
v 0.175706 0.32261175 -0.127378
v 0.18711575 0.330244 -0.12115875
v 0.164142 0.3151975 -0.1367285
v 0.14252625 0.32915725 -0.1789985
v 0.214648 0.394438 -0.1256215
v 0.2349995 0.419085 -0.143202
v 0.2295355 0.3944105 -0.13489275
v 0.23367275 0.41125025 -0.150626
v 0.2373585 0.4183145 -0.15927375
v 0.231286 0.40320075 -0.14242075
v 0.26504475 0.45080825 -0.1781135
v 0.2555615 0.43715025 -0.176191
v 0.26314825 0.44052025 -0.18459575
v 0.27126025 0.443317 -0.192491
v 0.27984775 0.4455465 -0.19979025
v 0.2602235 0.4308595 -0.1917925
v 0.26845225 0.433519 -0.19978575
v 0.25220625 0.428055 -0.18327375
v 0.27727625 0.43552475 -0.20715825
v 0.28667175 0.43771625 -0.21359975
v 0.27528475 0.42542825 -0.21472125
v 0.29571225 0.43065025 -0.22620325
v 0.285254 0.42759825 -0.22105325
v 0.28485725 0.417009 -0.22846125
v 0.29571725 0.42052525 -0.2332415
v 0.306467 0.42426025 -0.23784075
v 0.2969345 0.410552 -0.239804
v 0.307857 0.4143755 -0.24405275
v 0.2859905 0.40668975 -0.23599675
v 0.2987365 0.4004205 -0.245766
v 0.3095415 0.4041595 -0.2498215
v 0.287944 0.39666125 -0.2428
v 0.30063475 0.38994125 -0.25107825
v 0.31136525 0.39366875 -0.25507875
v 0.30276425 0.37917 -0.25574875
v 0.31345175 0.38287925 -0.259631
v 0.3050735 0.36810475 -0.25972475
v 0.3158265 0.37180225 -0.2633525
v 0.30770025 0.35690925 -0.263075
v 0.310586 0.3455675 -0.2659335
v 0.32143775 0.34963475 -0.26970575
v 0.31852875 0.36073375 -0.266629
v 0.3140185 0.33430875 -0.268115
v 0.324542 0.33868425 -0.27259025
v 0.3003575 0.4433685 -0.23938275
v 0.29831225 0.4349975 -0.25090825
v 0.30839925 0.31827 -0.26450875
v 0.318842 0.32369675 -0.26873325
v 0.28972225 0.4525575 -0.22579625
v 0.28859425 0.44548425 -0.23967875
v 0.31466225 0.30837675 -0.263253
v 0.3247825 0.31384225 -0.267846
v 0.2852475 0.43720225 -0.25057075
v 0.304946 0.30230875 -0.25917
v 0.276254 0.44652475 -0.2386115
v 0.2716015 0.43840275 -0.24885975
v 0.278349 0.4535205 -0.226153
v 0.30269 0.28702375 -0.25225025
v 0.263433 0.44668625 -0.236722
v 0.2575155 0.43873125 -0.24569475
v 0.26657825 0.45365325 -0.225375
v 0.266331 0.4593515 -0.21177425
v 0.25042925 0.4463165 -0.233223
v 0.2435025 0.439013 -0.23999425
v 0.25482175 0.4529505 -0.22393225
v 0.255716 0.4587975 -0.211764
v 0.245586 0.45761775 -0.20997075
v 0.24294325 0.45219075 -0.2192125
v 0.2379115 0.44621025 -0.226177
v 0.23105825 0.4397155 -0.23118175
v 0.2221825 0.44464475 -0.200426
v 0.21388075 0.43639725 -0.19967475
v 0.22383475 0.44436125 -0.1893525
v 0.205949 0.42810775 -0.21063675
v 0.206103 0.427436 -0.19889725
v 0.21594525 0.4355015 -0.1883085
v 0.2199525 0.434741 -0.1774545
v 0.19807275 0.41894075 -0.21013375
v 0.21000025 0.41469325 -0.16413625
v 0.20863275 0.42628475 -0.18737
v 0.2124965 0.42529125 -0.1762055
v 0.19079875 0.40929 -0.20946775
v 0.198969 0.4179535 -0.19815025
v 0.20588775 0.41528825 -0.17517575
v 0.20190425 0.41651125 -0.18647
v 0.20168525 0.3934935 -0.1505085
v 0.183929 0.39939975 -0.20872025
v 0.203677 0.404366 -0.16284675
v 0.1997865 0.40502825 -0.17422525
v 0.192358 0.40815175 -0.197428
v 0.163195 0.3698575 -0.21848925
v 0.195728 0.4064895 -0.1856795
v 0.1897035 0.39651175 -0.1849455
v 0.193901 0.39473625 -0.173393
v 0.18601825 0.39823975 -0.19666425
v 0.195703 0.3826915 -0.14948675
v 0.1920495 0.38317775 -0.1610475
v 0.19781875 0.393793 -0.1618875
v 0.18614325 0.3727735 -0.16038
v 0.18984525 0.371895 -0.14875425
v 0.19461575 0.37085575 -0.13787175
v 0.177364 0.38943 -0.20794
v 0.18376675 0.386436 -0.18422825
v 0.1881105 0.384424 -0.17265125
v 0.179864 0.3882585 -0.19591125
v 0.1838725 0.3612305 -0.14820775
v 0.18841625 0.35997625 -0.13687825
v 0.1709305 0.37948975 -0.2071345
v 0.16453875 0.3695765 -0.206306
v 0.17775325 0.376387 -0.18353025
v 0.182139 0.374316 -0.1720085
v 0.1799615 0.36253375 -0.15982125
v 0.1776955 0.350713 -0.14768025
v 0.17124325 0.34030825 -0.14729875
v 0.1512845 0.34995375 -0.20440675
v 0.15808775 0.359703 -0.20542325
v 0.1737135 0.37828625 -0.19515475
v 0.16738675 0.368411 -0.19435625
v 0.17577375 0.36438625 -0.1713515
v 0.173455 0.35253675 -0.159169
v 0.16663 0.3427875 -0.15849275
v 0.1608 0.358667 -0.19349075
v 0.1713925 0.3665175 -0.1827765
v 0.16907925 0.3546435 -0.170591
v 0.1520065 0.323687 -0.15746725
v 0.15942575 0.33320425 -0.15791925
v 0.153928 0.34908675 -0.19255475
v 0.14681 0.33962675 -0.19155175
v 0.16207875 0.345135 -0.16974625
v 0.164657 0.3568545 -0.18193775
v 0.15476175 0.3357745 -0.16895575
v 0.14711675 0.3265985 -0.16813825
v 0.157655 0.34737125 -0.18102725
v 0.1503905 0.33802575 -0.1801045
f 6 231 601 234
f 7 232 601 231
f 5 233 601 232
f 3 234 601 233
f 4 235 602 237
f 9 236 602 235
f 6 234 602 236
f 3 237 602 234
f 11 238 603 240
f 10 239 603 238
f 7 231 603 239
f 6 240 603 231
f 9 241 604 236
f 13 242 604 241
f 11 240 604 242
f 6 236 604 240
f 20 243 605 245
f 17 244 605 243
f 13 241 605 244
f 9 245 605 241
f 13 246 606 242
f 16 247 606 246
f 12 248 606 247
f 11 242 606 248
f 16 249 607 247
f 27 250 607 249
f 15 251 607 250
f 12 247 607 251
f 17 252 608 244
f 23 253 608 252
f 16 246 608 253
f 13 244 608 246
f 23 254 609 253
f 26 255 609 254
f 27 249 609 255
f 16 253 609 249
f 19 256 610 258
f 24 257 610 256
f 23 252 610 257
f 17 258 610 252
f 24 259 611 257
f 25 260 611 259
f 26 254 611 260
f 23 257 611 254
f 29 261 612 263
f 32 262 612 261
f 25 259 612 262
f 24 263 612 259
f 32 264 613 262
f 36 265 613 264
f 33 266 613 265
f 25 262 613 266
f 34 267 614 269
f 32 261 614 267
f 29 268 614 261
f 28 269 614 268
f 39 270 615 273
f 45 271 615 270
f 46 272 615 271
f 33 273 615 272
f 8 274 616 277
f 18 275 616 274
f 14 276 616 275
f 22 277 616 276
f 50 278 617 281
f 51 279 617 278
f 52 280 617 279
f 44 281 617 280
f 67 282 618 285
f 66 283 618 282
f 61 284 618 283
f 60 285 618 284
f 79 286 619 289
f 78 287 619 286
f 68 288 619 287
f 65 289 619 288
f 67 290 620 282
f 82 291 620 290
f 77 292 620 291
f 66 282 620 292
f 77 293 621 292
f 76 294 621 293
f 72 295 621 294
f 66 292 621 295
f 68 287 622 297
f 78 296 622 287
f 82 290 622 296
f 67 297 622 290
f 84 298 623 301
f 85 299 623 298
f 90 300 623 299
f 83 301 623 300
f 86 302 624 305
f 96 303 624 302
f 93 304 624 303
f 85 305 624 304
f 93 306 625 304
f 92 307 625 306
f 90 299 625 307
f 85 304 625 299
f 90 307 626 310
f 92 308 626 307
f 97 309 626 308
f 89 310 626 309
f 97 311 627 309
f 108 312 627 311
f 95 313 627 312
f 89 309 627 313
f 92 306 628 316
f 93 314 628 306
f 112 315 628 314
f 91 316 628 315
f 102 317 629 318
f 97 308 629 317
f 92 316 629 308
f 91 318 629 316
f 96 319 630 303
f 114 320 630 319
f 112 314 630 320
f 93 303 630 314
f 102 321 631 317
f 107 322 631 321
f 108 311 631 322
f 97 317 631 311
f 108 322 632 325
f 107 323 632 322
f 104 324 632 323
f 100 325 632 324
f 106 326 633 328
f 109 327 633 326
f 107 321 633 327
f 102 328 633 321
f 104 329 634 332
f 110 330 634 329
f 111 331 634 330
f 103 332 634 331
f 107 327 635 323
f 109 333 635 327
f 110 329 635 333
f 104 323 635 329
f 1 334 636 336
f 116 335 636 334
f 110 333 636 335
f 109 336 636 333
f 116 337 637 335
f 115 338 637 337
f 111 330 637 338
f 110 335 637 330
f 115 339 638 338
f 119 340 638 339
f 113 341 638 340
f 111 338 638 341
f 116 342 639 337
f 118 343 639 342
f 117 344 639 343
f 115 337 639 344
f 117 345 640 344
f 122 346 640 345
f 119 339 640 346
f 115 344 640 339
f 1 347 641 334
f 120 348 641 347
f 118 342 641 348
f 116 334 641 342
f 118 349 642 343
f 124 350 642 349
f 121 351 642 350
f 117 343 642 351
f 121 352 643 351
f 123 353 643 352
f 122 345 643 353
f 117 351 643 345
f 120 354 644 348
f 127 355 644 354
f 124 349 644 355
f 118 348 644 349
f 124 356 645 350
f 125 357 645 356
f 129 358 645 357
f 121 350 645 358
f 129 359 646 358
f 126 360 646 359
f 123 352 646 360
f 121 358 646 352
f 128 361 647 363
f 130 362 647 361
f 129 357 647 362
f 125 363 647 357
f 129 362 648 359
f 130 364 648 362
f 133 365 648 364
f 126 359 648 365
f 132 366 649 368
f 136 367 649 366
f 130 361 649 367
f 128 368 649 361
f 136 369 650 367
f 135 370 650 369
f 133 364 650 370
f 130 367 650 364
f 139 371 651 373
f 134 372 651 371
f 136 366 651 372
f 132 373 651 366
f 139 374 652 371
f 138 375 652 374
f 137 376 652 375
f 134 371 652 376
f 137 377 653 376
f 141 378 653 377
f 140 379 653 378
f 134 376 653 379
f 140 380 654 379
f 135 369 654 380
f 136 372 654 369
f 134 379 654 372
f 138 381 655 375
f 147 382 655 381
f 150 383 655 382
f 137 375 655 383
f 150 384 656 383
f 148 385 656 384
f 141 377 656 385
f 137 383 656 377
f 158 386 657 389
f 153 387 657 386
f 154 388 657 387
f 146 389 657 388
f 155 390 658 392
f 159 391 658 390
f 158 389 658 391
f 146 392 658 389
f 152 393 659 396
f 160 394 659 393
f 156 395 659 394
f 147 396 659 395
f 156 397 660 395
f 161 398 660 397
f 150 382 660 398
f 147 395 660 382
f 167 399 661 402
f 173 400 661 399
f 168 401 661 400
f 153 402 661 401
f 158 403 662 386
f 162 404 662 403
f 167 402 662 404
f 153 386 662 402
f 160 405 663 394
f 176 406 663 405
f 171 407 663 406
f 156 394 663 407
f 171 408 664 407
f 165 409 664 408
f 161 397 664 409
f 156 407 664 397
f 159 410 665 391
f 166 411 665 410
f 162 403 665 411
f 158 391 665 403
f 163 412 666 414
f 169 413 666 412
f 176 405 666 413
f 160 414 666 405
f 172 415 667 417
f 174 416 667 415
f 167 404 667 416
f 162 417 667 404
f 166 418 668 411
f 179 419 668 418
f 172 417 668 419
f 162 411 668 417
f 174 420 669 416
f 175 421 669 420
f 173 399 669 421
f 167 416 669 399
f 170 422 670 425
f 191 423 670 422
f 202 424 670 423
f 169 425 670 424
f 180 426 671 428
f 181 427 671 426
f 174 415 671 427
f 172 428 671 415
f 179 429 672 419
f 184 430 672 429
f 180 428 672 430
f 172 419 672 428
f 181 431 673 427
f 185 432 673 431
f 175 420 673 432
f 174 427 673 420
f 185 433 674 432
f 186 434 674 433
f 183 435 674 434
f 175 432 674 435
f 194 436 675 438
f 188 437 675 436
f 181 426 675 437
f 180 438 675 426
f 184 439 676 430
f 195 440 676 439
f 194 438 676 440
f 180 430 676 438
f 188 441 677 437
f 189 442 677 441
f 185 431 677 442
f 181 437 677 431
f 186 433 678 444
f 185 442 678 433
f 189 443 678 442
f 182 444 678 443
f 189 445 679 443
f 196 446 679 445
f 2 447 679 446
f 182 443 679 447
f 197 448 680 449
f 196 445 680 448
f 189 441 680 445
f 188 449 680 441
f 194 450 681 436
f 198 451 681 450
f 197 449 681 451
f 188 436 681 449
f 195 452 682 440
f 200 453 682 452
f 198 450 682 453
f 194 440 682 450
f 204 454 683 457
f 210 455 683 454
f 206 456 683 455
f 203 457 683 456
f 208 458 684 460
f 216 459 684 458
f 210 454 684 459
f 204 460 684 454
f 210 461 685 455
f 214 462 685 461
f 209 463 685 462
f 206 455 685 463
f 213 464 686 467
f 220 465 686 464
f 208 466 686 465
f 207 467 686 466
f 220 468 687 465
f 225 469 687 468
f 216 458 687 469
f 208 465 687 458
f 216 470 688 459
f 218 471 688 470
f 214 461 688 471
f 210 459 688 461
f 214 471 689 474
f 218 472 689 471
f 217 473 689 472
f 212 474 689 473
f 219 475 690 477
f 228 476 690 475
f 220 464 690 476
f 213 477 690 464
f 221 478 691 481
f 227 479 691 478
f 226 480 691 479
f 215 481 691 480
f 225 482 692 469
f 222 483 692 482
f 218 470 692 483
f 216 469 692 470
f 218 483 693 472
f 222 484 693 483
f 221 485 693 484
f 217 472 693 485
f 224 486 694 488
f 193 487 694 486
f 228 475 694 487
f 219 488 694 475
f 228 489 695 476
f 37 490 695 489
f 225 468 695 490
f 220 476 695 468
f 222 491 696 484
f 230 492 696 491
f 227 478 696 492
f 221 484 696 478
f 225 490 697 482
f 37 493 697 490
f 230 491 697 493
f 222 482 697 491
f 164 494 698 497
f 205 495 698 494
f 211 496 698 495
f 223 497 698 496
f 190 498 699 500
f 177 499 699 498
f 193 486 699 499
f 224 500 699 486
f 227 501 700 479
f 157 502 700 501
f 164 503 700 502
f 226 479 700 503
f 230 504 701 492
f 42 505 701 504
f 157 501 701 505
f 227 492 701 501
f 193 506 702 487
f 41 507 702 506
f 37 489 702 507
f 228 487 702 489
f 192 508 703 511
f 99 509 703 508
f 145 510 703 509
f 229 511 703 510
f 37 507 704 493
f 41 512 704 507
f 42 504 704 512
f 230 493 704 504
f 41 513 705 512
f 178 514 705 513
f 187 515 705 514
f 42 512 705 515
f 187 516 706 515
f 143 517 706 516
f 157 505 706 517
f 42 515 706 505
f 193 499 707 506
f 177 518 707 499
f 178 513 707 518
f 41 506 707 513
f 205 519 708 495
f 201 520 708 519
f 199 521 708 520
f 211 495 708 521
f 143 522 709 524
f 94 523 709 522
f 201 519 709 523
f 205 524 709 519
f 164 502 710 494
f 157 517 710 502
f 143 524 710 517
f 205 494 710 524
f 94 525 711 523
f 75 526 711 525
f 142 527 711 526
f 201 523 711 527
f 142 528 712 527
f 151 529 712 528
f 199 520 712 529
f 201 527 712 520
f 151 530 713 529
f 88 531 713 530
f 35 532 713 531
f 199 529 713 532
f 149 533 714 535
f 98 534 714 533
f 177 498 714 534
f 190 535 714 498
f 178 536 715 514
f 80 537 715 536
f 144 538 715 537
f 187 514 715 538
f 144 539 716 538
f 94 522 716 539
f 143 516 716 522
f 187 538 716 516
f 177 534 717 518
f 98 540 717 534
f 80 536 717 540
f 178 518 717 536
f 142 541 718 528
f 74 542 718 541
f 131 543 718 542
f 151 528 718 543
f 131 544 719 543
f 87 545 719 544
f 88 530 719 545
f 151 543 719 530
f 145 546 720 548
f 81 547 720 546
f 98 533 720 547
f 149 548 720 533
f 99 549 721 509
f 71 550 721 549
f 81 546 721 550
f 145 509 721 546
f 80 551 722 537
f 64 552 722 551
f 69 553 722 552
f 144 537 722 553
f 69 554 723 553
f 75 525 723 554
f 94 539 723 525
f 144 553 723 539
f 75 555 724 526
f 63 556 724 555
f 74 541 724 556
f 142 526 724 541
f 74 557 725 542
f 73 558 725 557
f 105 559 725 558
f 131 542 725 559
f 73 560 726 558
f 49 561 726 560
f 59 562 726 561
f 105 558 726 562
f 70 563 727 566
f 57 564 727 563
f 58 565 727 564
f 101 566 727 565
f 58 567 728 565
f 71 549 728 567
f 99 568 728 549
f 101 565 728 568
f 81 569 729 547
f 64 551 729 569
f 80 540 729 551
f 98 547 729 540
f 71 570 730 550
f 43 571 730 570
f 64 569 730 571
f 81 550 730 569
f 69 572 731 554
f 55 573 731 572
f 63 555 731 573
f 75 554 731 555
f 63 574 732 556
f 56 575 732 574
f 73 557 732 575
f 74 556 732 557
f 56 576 733 575
f 54 577 733 576
f 49 560 733 577
f 73 575 733 560
f 58 578 734 567
f 30 579 734 578
f 43 570 734 579
f 71 567 734 570
f 64 571 735 552
f 43 580 735 571
f 55 572 735 580
f 69 552 735 572
f 55 581 736 573
f 40 582 736 581
f 56 574 736 582
f 63 573 736 574
f 53 583 737 586
f 21 584 737 583
f 48 585 737 584
f 62 586 737 585
f 49 577 738 588
f 54 587 738 577
f 53 586 738 587
f 62 588 738 586
f 57 589 739 564
f 31 590 739 589
f 30 578 739 590
f 58 564 739 578
f 47 591 740 593
f 8 592 740 591
f 31 589 740 592
f 57 593 740 589
f 40 594 741 582
f 38 595 741 594
f 54 576 741 595
f 56 582 741 576
f 43 579 742 580
f 30 596 742 579
f 40 581 742 596
f 55 580 742 581
f 38 597 743 595
f 22 598 743 597
f 53 587 743 598
f 54 595 743 587
f 22 276 744 598
f 14 599 744 276
f 21 583 744 599
f 53 598 744 583
f 30 590 745 596
f 31 600 745 590
f 38 594 745 600
f 40 596 745 594
f 31 592 746 600
f 8 277 746 592
f 22 597 746 277
f 38 600 746 597
