# https://github.com/mikedh/trimesh
v 0.30110401 0.42399701 -0.26159900
v 0.30305600 0.42089650 -0.26364900
v 0.28569000 0.42494700 -0.26315750
v 0.26695601 0.42466824 -0.26258649
v 0.15328500 0.34632999 -0.25757101
v 0.14246599 0.33618000 -0.25408700
v 0.17814099 0.37492875 -0.25682951
v 0.20265999 0.39341201 -0.26124150
v 0.22634675 0.40587325 -0.26487625
v 0.25223899 0.42116499 -0.26246899
v 0.13988600 0.32696725 -0.26930899
v 0.14134000 0.31947075 -0.28093000
v 0.14551363 0.30900787 -0.29237776
v 0.13950950 0.33148400 -0.25968726
v 0.16127752 0.35073090 -0.26388058
v 0.15041912 0.33934693 -0.26340869
v 0.15357133 0.33694474 -0.27063526
v 0.14416375 0.33251691 -0.26473436
v 0.17816988 0.37095421 -0.26139602
v 0.14894955 0.33160072 -0.27210871
v 0.17699105 0.36266294 -0.26816408
v 0.16045032 0.34232205 -0.27186448
v 0.15163140 0.33116904 -0.27481391
v 0.15519774 0.32997188 -0.27872507
v 0.14483000 0.32946801 -0.27034399
v 0.18980979 0.38069612 -0.26269904
v 0.19584813 0.38274320 -0.26553178
v 0.14413116 0.32629819 -0.27384518
v 0.18511010 0.36802191 -0.26999628
v 0.19734344 0.38125449 -0.26785397
v 0.14425391 0.31928052 -0.28245530
v 0.16577583 0.33968372 -0.27839949
v 0.17136924 0.33841016 -0.28279007
v 0.18629649 0.36385260 -0.27401344
v 0.15384695 0.32277387 -0.28401681
v 0.14678136 0.31366876 -0.28884468
v 0.21172576 0.38918785 -0.27009402
v 0.21774208 0.39627099 -0.26809980
v 0.20794285 0.38365353 -0.27219339
v 0.19922221 0.36885827 -0.27781756
v 0.16068253 0.32263279 -0.28760033
v 0.15340732 0.31408477 -0.29041006
v 0.21679430 0.38615559 -0.27464408
v 0.22144035 0.38548455 -0.27720180
v 0.21134088 0.36846428 -0.28311084
v 0.21280462 0.36513094 -0.28550467
v 0.23675542 0.39267602 -0.27807522
v 0.23256883 0.38583589 -0.28082529
v 0.21122301 0.35595399 -0.28941900
v 0.20006121 0.36145044 -0.28270387
v 0.23606700 0.41130200 -0.26500699
v 0.16481107 0.31871357 -0.29171771
v 0.15378886 0.30887155 -0.29399049
v 0.23666189 0.40424632 -0.27068456
v 0.16370100 0.31368801 -0.29407400
v 0.24303123 0.41146904 -0.26748665
v 0.24727304 0.39812608 -0.27775350
v 0.23026150 0.37613999 -0.28520851
v 0.22481000 0.36956999 -0.28693300
v 0.24881179 0.40576341 -0.27326463
v 0.26612479 0.40713870 -0.27565220
v 0.25498597 0.40262867 -0.27669758
v 0.25295294 0.39669555 -0.27994799
v 0.15459538 0.30375931 -0.29682875
v 0.16534500 0.31076601 -0.29591900
v 0.26242814 0.41316369 -0.27122947
v 0.24983856 0.38155572 -0.28723589
v 0.24137149 0.38663900 -0.28277000
v 0.25668374 0.38809865 -0.28514320
v 0.26826343 0.40040984 -0.28005370
v 0.24613000 0.37721699 -0.28852400
v 0.26157550 0.41816951 -0.26734652
v 0.15543800 0.30024801 -0.29876000
v 0.27105473 0.41701400 -0.26927856
v 0.26933324 0.39511447 -0.28303966
v 0.26004800 0.38178399 -0.28850400
v 0.27467984 0.41108249 -0.27370182
v 0.27934666 0.40656191 -0.27679851
v 0.27428415 0.41802780 -0.26885855
v 0.14760201 0.30189499 -0.29808101
v 0.14894536 0.30402675 -0.29639676
v 0.28689722 0.40890262 -0.27506945
v 0.28012875 0.40108651 -0.27995501
v 0.30054212 0.41253750 -0.27044463
v 0.28020106 0.41923485 -0.26826271
v 0.29040650 0.40735600 -0.27558949
v 0.29612489 0.41745725 -0.26811137
v 0.29116030 0.41971342 -0.26710148
v 0.30562100 0.41769400 -0.26541999
v 0.14219316 0.33484438 -0.25677092
f 42 53 36
f 41 53 42
f 52 53 41
f 52 64 53
f 53 64 81
f 64 80 81
f 81 80 13
f 36 81 13
f 31 36 13
f 31 20 36
f 24 36 20
f 24 35 36
f 24 32 35
f 32 33 35
f 33 41 35
f 34 33 32
f 40 33 34
f 40 34 30
f 39 40 30
f 39 50 40
f 40 50 52
f 49 52 50
f 55 52 49
f 49 50 46
f 45 46 50
f 44 45 50
f 44 50 43
f 38 44 43
f 54 44 38
f 54 48 44
f 54 47 48
f 54 57 47
f 60 57 54
f 62 57 60
f 66 62 60
f 63 62 66
f 61 63 66
f 72 61 66
f 74 61 72
f 74 72 79
f 85 79 72
f 85 78 79
f 85 82 78
f 87 82 85
f 88 87 85
f 3 87 88
f 1 87 3
f 1 2 87
f 2 89 87
f 89 84 87
f 3 88 85
f 3 85 4
f 87 84 82
f 82 84 86
f 86 83 82
f 82 83 78
f 78 83 75
f 83 76 75
f 75 76 69
f 69 76 67
f 67 76 71
f 67 71 68
f 67 68 63
f 63 68 48
f 68 58 48
f 58 46 48
f 58 59 46
f 57 63 48
f 69 67 63
f 70 69 63
f 75 69 70
f 78 75 70
f 77 78 70
f 77 70 61
f 77 61 79
f 79 78 77
f 85 72 4
f 4 72 10
f 72 56 10
f 72 60 56
f 56 51 10
f 51 56 54
f 51 54 9
f 74 79 61
f 61 70 63
f 66 60 72
f 62 63 57
f 56 60 54
f 57 48 47
f 48 46 44
f 54 38 9
f 38 8 9
f 38 30 8
f 38 37 30
f 38 39 37
f 8 30 27
f 26 27 30
f 30 29 26
f 29 21 26
f 29 32 21
f 21 32 22
f 19 21 22
f 19 22 15
f 22 17 15
f 22 24 17
f 17 24 23
f 17 23 20
f 16 17 20
f 16 20 18
f 20 25 18
f 20 28 25
f 25 28 18
f 18 28 11
f 28 12 11
f 31 12 28
f 18 11 14
f 90 18 14
f 6 18 90
f 5 18 6
f 14 6 90
f 18 5 16
f 5 15 16
f 7 15 5
f 15 17 16
f 7 19 15
f 7 8 19
f 8 26 19
f 26 21 19
f 8 27 26
f 38 43 39
f 46 45 44
f 59 49 46
f 43 50 39
f 37 39 30
f 29 30 34
f 33 40 52
f 34 32 29
f 32 24 22
f 24 20 23
f 20 31 28
f 31 13 12
f 73 80 64
f 65 73 64
f 65 64 55
f 55 64 52
f 52 41 33
f 41 42 35
f 53 81 36
f 35 42 36

