# https://github.com/mikedh/trimesh
v -0.36724851 0.28747100 -0.26091999
v -0.36554875 0.28580501 -0.25447450
v -0.35489699 0.29280600 -0.24909750
v -0.34944499 0.29291099 -0.24649900
v -0.34770250 0.30262050 -0.25052600
v -0.35762799 0.30523801 -0.25439200
v -0.33271599 0.29460400 -0.24423900
v -0.32166600 0.30795699 -0.24702300
v -0.35865475 0.36557775 -0.26074624
v -0.35305749 0.40026000 -0.25060575
v -0.35039475 0.41106525 -0.24650200
v -0.35488501 0.38910699 -0.25484601
v -0.34728300 0.41979450 -0.24275450
v -0.35678101 0.37971300 -0.25721499
v -0.34514800 0.42638299 -0.23842500
v -0.36128300 0.34837201 -0.26353899
v -0.34219449 0.43327999 -0.23340600
v -0.30542883 0.39778785 -0.22501118
v -0.30928051 0.39087500 -0.23015100
v -0.29893581 0.40752419 -0.21679613
v -0.30140356 0.40386277 -0.21981011
v -0.29831600 0.41384300 -0.21069199
v -0.31261887 0.38142713 -0.23448988
v -0.31768251 0.36273399 -0.24129799
v -0.32157612 0.33072209 -0.24743422
v -0.32038599 0.34674200 -0.24544001
v -0.31984201 0.35320300 -0.24424700
v -0.32173935 0.31780251 -0.24773659
v -0.32166001 0.33941400 -0.24701899
v -0.31860700 0.35734501 -0.24277601
v -0.32725249 0.35163300 -0.24316751
v -0.32979300 0.33868350 -0.24525450
v -0.32968206 0.32224352 -0.24696415
v -0.32718516 0.30358533 -0.24480904
v -0.33086500 0.30578101 -0.24526501
v -0.32399601 0.29378399 -0.24262799
v -0.32955900 0.30063750 -0.24439300
v -0.36694887 0.31172362 -0.26256187
v -0.36362651 0.33623901 -0.26357851
v -0.29992101 0.45836499 -0.17701050
v -0.27432475 0.44957526 -0.15061750
v -0.30748500 0.45737900 -0.18540250
v -0.32248399 0.45322999 -0.20109600
v -0.28556250 0.45576551 -0.16156450
v -0.25865050 0.43333126 -0.13649426
v -0.28396401 0.42485149 -0.18579700
v -0.27568200 0.42505300 -0.17453000
v -0.26853025 0.42352975 -0.16328050
v -0.29269099 0.42136699 -0.19842400
v -0.35335600 0.30439850 -0.25285150
v -0.35599899 0.39588550 -0.24770251
v -0.35725501 0.38753900 -0.25162101
v -0.35347250 0.40750000 -0.24437549
v -0.35644099 0.39253700 -0.24981700
v -0.35392582 0.40452735 -0.24667924
v -0.35951799 0.37274799 -0.25597200
v -0.34815433 0.42269759 -0.23924899
v -0.36151650 0.35429001 -0.26090651
v -0.36092513 0.35816625 -0.26000238
v -0.34258701 0.43474351 -0.23024950
v -0.35135350 0.41563213 -0.23914563
v -0.35313338 0.40979363 -0.24204300
v -0.34724350 0.42649550 -0.23134175
v -0.34707624 0.42681457 -0.23441406
v -0.34007800 0.43797299 -0.22894600
v -0.36011565 0.37026096 -0.25479178
v -0.35793930 0.38435141 -0.25100346
v -0.33806200 0.44193900 -0.22234850
v -0.34180490 0.43692621 -0.22312797
v -0.33969720 0.43929012 -0.22045786
v -0.33625838 0.43966764 -0.21629338
v -0.33214501 0.44787601 -0.21427301
v -0.32580161 0.45080112 -0.20443614
v -0.35285382 0.41168921 -0.23969735
v -0.35602281 0.39353230 -0.24524736
v -0.35998380 0.36598174 -0.25344900
v -0.36230808 0.35146811 -0.25776573
v -0.36440866 0.33202456 -0.25905225
v -0.36422402 0.33802979 -0.26104783
v -0.34858760 0.42230424 -0.23171662
v -0.28772534 0.45421169 -0.16387925
v -0.26249096 0.43529170 -0.14055294
v -0.27564844 0.44445760 -0.15318241
v -0.35053568 0.41214975 -0.23558041
v -0.26108399 0.43087250 -0.13957350
v -0.36505180 0.31884446 -0.25808333
v -0.30295036 0.45529850 -0.18081801
v -0.35641178 0.38080140 -0.24763925
v -0.35398301 0.38516700 -0.24498899
v -0.30815801 0.45278901 -0.18734200
v -0.36688936 0.29048692 -0.25466244
v -0.31739437 0.45234944 -0.19570124
v -0.31403980 0.44787659 -0.19548610
v -0.36249074 0.30361085 -0.25474228
v -0.35907931 0.29754628 -0.25129518
v -0.36369899 0.29672500 -0.25342801
v -0.36526110 0.28868387 -0.25304207
v -0.36552466 0.30690847 -0.25705072
v -0.35298517 0.31144840 -0.25169770
v -0.35641434 0.32622669 -0.25340825
v -0.34412646 0.31282177 -0.24896937
v -0.36236773 0.30770216 -0.25572705
v -0.33403524 0.32846291 -0.24684906
v -0.34155196 0.30349651 -0.24837225
v -0.35822721 0.31317041 -0.25400413
v -0.36136701 0.33583680 -0.25581182
v -0.35234407 0.33557832 -0.25237643
v -0.33557187 0.35280593 -0.24506931
v -0.35541827 0.35903125 -0.25079792
v -0.32801106 0.36162790 -0.24160726
v -0.33224769 0.36933442 -0.24139572
v -0.32348411 0.37125534 -0.23797394
v -0.34861093 0.38236926 -0.24344918
v -0.35968170 0.35540053 -0.25365442
v -0.34533398 0.40524677 -0.23499042
v -0.33349578 0.38544853 -0.23726252
v -0.31616370 0.39545637 -0.22769424
v -0.34607414 0.41075915 -0.23344582
v -0.33876502 0.43131614 -0.22074973
v -0.31595093 0.42006459 -0.21576965
v -0.31265362 0.40200474 -0.22340756
v -0.31025542 0.39478574 -0.22851502
v -0.30411594 0.41320094 -0.21260969
v -0.31404676 0.41154153 -0.21982347
v -0.30832591 0.42739341 -0.20612838
v -0.32519002 0.43964442 -0.20898657
v -0.32420782 0.44570234 -0.20448142
v -0.30512210 0.41597542 -0.21152644
v -0.31502953 0.43168476 -0.20784144
v -0.30618382 0.43454119 -0.19961687
v -0.29753178 0.42247829 -0.20170748
v -0.30309129 0.44938120 -0.18514491
v -0.29202882 0.45141002 -0.17145518
v -0.29243958 0.42734949 -0.19290881
v -0.28208057 0.42923315 -0.17895789
v -0.27441824 0.42680233 -0.17059063
v -0.26854150 0.43599499 -0.14865701
f 91 1 2
f 97 91 2
f 38 1 91
f 98 38 91
f 86 38 98
f 78 38 86
f 106 78 86
f 106 86 100
f 107 106 100
f 108 106 107
f 108 107 103
f 108 103 31
f 110 108 31
f 109 108 110
f 113 109 110
f 113 110 111
f 113 111 112
f 116 113 112
f 116 115 113
f 115 116 118
f 115 118 89
f 118 84 89
f 119 84 118
f 119 118 124
f 120 119 124
f 124 125 120
f 131 125 124
f 131 130 125
f 134 130 131
f 134 131 49
f 46 134 49
f 135 134 46
f 133 134 135
f 83 133 135
f 136 83 135
f 137 83 136
f 137 136 48
f 136 47 48
f 47 136 46
f 83 137 85
f 83 85 82
f 82 85 45
f 41 82 45
f 82 41 83
f 81 83 41
f 41 44 81
f 44 87 81
f 40 87 44
f 40 42 87
f 87 42 92
f 42 43 92
f 92 43 73
f 73 71 92
f 92 71 127
f 92 127 93
f 92 93 132
f 132 93 130
f 93 126 130
f 126 129 130
f 120 129 126
f 93 71 126
f 71 119 126
f 71 63 119
f 63 80 119
f 80 63 61
f 80 61 74
f 61 62 74
f 74 62 75
f 75 62 51
f 51 54 75
f 54 52 75
f 75 52 67
f 75 67 76
f 76 67 66
f 76 66 77
f 76 77 114
f 114 77 78
f 77 79 78
f 88 76 114
f 109 88 114
f 109 114 106
f 89 88 109
f 89 75 88
f 75 76 88
f 66 79 77
f 66 56 79
f 56 58 79
f 79 58 39
f 79 39 38
f 67 56 66
f 67 52 56
f 63 64 61
f 60 64 63
f 57 64 60
f 65 57 60
f 65 17 57
f 17 15 57
f 15 13 57
f 13 11 57
f 57 11 55
f 57 55 61
f 61 55 53
f 11 10 55
f 10 56 55
f 55 56 54
f 10 12 56
f 12 14 56
f 14 9 56
f 9 16 56
f 56 16 59
f 69 60 63
f 68 60 69
f 72 68 69
f 72 69 70
f 72 70 73
f 43 72 73
f 64 57 61
f 71 70 63
f 70 69 63
f 90 92 132
f 87 90 132
f 87 132 133
f 81 87 133
f 87 92 90
f 93 127 71
f 73 70 71
f 81 133 83
f 133 132 134
f 136 135 46
f 49 131 22
f 131 128 22
f 128 123 22
f 128 121 123
f 128 124 121
f 121 124 117
f 121 117 122
f 122 117 23
f 19 122 23
f 18 122 19
f 21 122 18
f 123 122 21
f 123 21 20
f 23 117 24
f 24 117 112
f 118 112 117
f 24 112 110
f 24 110 30
f 110 27 30
f 123 121 122
f 22 123 20
f 134 132 130
f 130 129 125
f 131 124 128
f 125 129 120
f 126 119 120
f 124 118 117
f 119 80 84
f 84 80 74
f 84 74 75
f 84 75 89
f 115 89 113
f 118 116 112
f 112 111 110
f 113 89 109
f 27 110 31
f 27 31 26
f 31 29 26
f 31 32 29
f 29 32 33
f 29 33 25
f 25 33 28
f 33 34 28
f 33 35 34
f 34 35 37
f 34 37 36
f 8 34 36
f 34 8 28
f 31 103 33
f 33 103 35
f 35 103 104
f 101 104 103
f 101 99 104
f 99 6 104
f 104 6 50
f 104 50 5
f 104 5 7
f 105 6 99
f 100 105 99
f 100 98 105
f 105 98 102
f 94 102 98
f 102 94 6
f 6 94 4
f 4 94 95
f 4 95 3
f 95 2 3
f 94 98 95
f 95 98 96
f 98 91 96
f 95 96 91
f 95 91 97
f 105 102 6
f 100 99 101
f 100 101 103
f 35 104 7
f 108 109 106
f 103 107 100
f 100 86 98
f 114 78 106
f 78 79 38

