# https://github.com/mikedh/trimesh
v 0.22528563 -0.25247900 -0.22543114
v 0.23241701 -0.25409499 -0.20436950
v 0.23914125 -0.25526349 -0.18358000
v 0.23656601 -0.25497699 -0.19077100
v 0.22935950 -0.25313425 -0.23599400
v 0.23037350 -0.24787699 -0.24689050
v 0.33354438 -0.31490457 -0.27061168
v 0.33112000 -0.31927026 -0.27138325
v 0.33204900 -0.30811000 -0.27194549
v 0.33107100 -0.29753399 -0.27098751
v 0.33108100 -0.28570199 -0.26822701
v 0.33010101 -0.27949500 -0.26680300
v 0.32856500 -0.27112851 -0.26432450
v 0.33014101 -0.32241899 -0.27032399
v 0.23404028 -0.26618460 -0.25507314
v 0.23407050 -0.27412400 -0.26324200
v 0.23302231 -0.26989519 -0.25285437
v 0.23358331 -0.26667304 -0.24764143
v 0.23403109 -0.26364753 -0.25151128
v 0.23182328 -0.27684651 -0.25853120
v 0.23375739 -0.27085026 -0.24542524
v 0.23321588 -0.26185156 -0.24555209
v 0.23239355 -0.25592419 -0.24500863
v 0.23308481 -0.26365013 -0.23763374
v 0.23282199 -0.27997200 -0.26014951
v 0.23387449 -0.25230370 -0.25010847
v 0.23547906 -0.25770073 -0.25409874
v 0.23566219 -0.26303077 -0.25695285
v 0.23156809 -0.25914340 -0.23267034
v 0.23752788 -0.25457624 -0.25692225
v 0.23525949 -0.24863950 -0.25331351
v 0.23469099 -0.26913899 -0.23871399
v 0.23443401 -0.26673149 -0.23460450
v 0.23063800 -0.25688899 -0.22857200
v 0.23024095 -0.25396997 -0.23887661
v 0.29066618 -0.32083763 -0.27384137
v 0.28702800 -0.32056700 -0.27237551
v 0.31126061 -0.32612054 -0.27524503
v 0.30728997 -0.32978425 -0.27132446
v 0.31516400 -0.32690400 -0.27461299
v 0.30612625 -0.32637131 -0.27503208
v 0.29334850 -0.32388200 -0.27150000
v 0.31088234 -0.32879730 -0.27345141
v 0.30929512 -0.33028062 -0.26884362
v 0.30010500 -0.32711700 -0.27140349
v 0.31635867 -0.33046044 -0.27101450
v 0.31968515 -0.32970855 -0.27167511
v 0.32304999 -0.32898301 -0.26944801
v 0.32552001 -0.32721201 -0.27003500
v 0.31770000 -0.33113399 -0.26637301
v 0.32892542 -0.32064830 -0.27280047
v 0.32443588 -0.32008811 -0.27506606
v 0.32069315 -0.32710024 -0.27385257
v 0.31737266 -0.32399606 -0.27559928
v 0.32680695 -0.31366182 -0.27478827
v 0.32873965 -0.30093516 -0.27301073
v 0.32829609 -0.29078772 -0.27122715
v 0.32806329 -0.28082413 -0.26857350
v 0.24811900 -0.29400399 -0.26726201
v 0.25998200 -0.29967300 -0.26867525
v 0.23619600 -0.28473100 -0.26130199
v 0.24297549 -0.29005751 -0.26314200
v 0.24187300 -0.28918001 -0.25991899
v 0.26059774 -0.29629696 -0.27062202
v 0.25194713 -0.29418969 -0.26939261
v 0.28279274 -0.31361909 -0.27394081
v 0.26877600 -0.30745599 -0.27010900
v 0.26507099 -0.30326699 -0.27006400
v 0.28150275 -0.31518051 -0.27191150
v 0.27916897 -0.31036212 -0.27380975
v 0.26740500 -0.30468401 -0.27100599
v 0.27012704 -0.30293855 -0.27292359
v 0.29677930 -0.32096247 -0.27542844
v 0.26014869 -0.29289823 -0.27118120
v 0.29994569 -0.32110769 -0.27596428
v 0.28022199 -0.30778843 -0.27478040
v 0.24936093 -0.29155083 -0.26956567
v 0.28988972 -0.31595441 -0.27552859
v 0.24631594 -0.28906486 -0.26900360
v 0.29949981 -0.31266934 -0.27714118
v 0.31127667 -0.31927643 -0.27683411
v 0.31043691 -0.32373874 -0.27639932
v 0.29153924 -0.27743252 -0.27290675
v 0.29095011 -0.28338213 -0.27400347
v 0.30294689 -0.28482459 -0.27423456
v 0.29482436 -0.28824740 -0.27492186
v 0.28496141 -0.28993752 -0.27473410
v 0.30810196 -0.29880733 -0.27639671
v 0.29946690 -0.30236372 -0.27666259
v 0.28023671 -0.29131995 -0.27434006
v 0.24391517 -0.28150524 -0.26849453
v 0.26463706 -0.28474389 -0.27183978
v 0.28151308 -0.30267365 -0.27535690
v 0.30567547 -0.30528789 -0.27699163
v 0.31148281 -0.29329184 -0.27528446
v 0.30477855 -0.29013814 -0.27533236
v 0.30960932 -0.31202622 -0.27725491
v 0.30706428 -0.27752303 -0.27221275
v 0.31411495 -0.31432090 -0.27692244
v 0.31884586 -0.30694376 -0.27625336
v 0.31584866 -0.29565836 -0.27535786
v 0.32294997 -0.30098250 -0.27475377
v 0.31569524 -0.28278594 -0.27262403
v 0.32191659 -0.28766925 -0.27246550
v 0.32286675 -0.31307793 -0.27585812
v 0.32330711 -0.28104147 -0.27039648
v 0.31323600 -0.33052950 -0.26054725
v 0.28103456 -0.30026080 -0.22709371
v 0.26179875 -0.27869750 -0.20797524
v 0.25232870 -0.26257688 -0.19361619
v 0.27436700 -0.29417801 -0.22153300
v 0.29564400 -0.31975974 -0.24552800
v 0.24624450 -0.25902501 -0.18898401
v 0.25342700 -0.26836401 -0.19927800
v 0.30548350 -0.32881650 -0.25562401
v 0.25182801 -0.26486200 -0.19573399
v 0.26129953 -0.30281272 -0.26677680
v 0.25361040 -0.29899208 -0.26465421
v 0.24823780 -0.29571394 -0.26508268
v 0.27157953 -0.31018090 -0.26957618
v 0.28650205 -0.32231215 -0.26740183
v 0.26232613 -0.30541268 -0.26186399
v 0.29368877 -0.32487775 -0.26698761
v 0.30304951 -0.32961164 -0.26773270
v 0.26245021 -0.29661639 -0.24161718
v 0.24721789 -0.29401729 -0.25726024
v 0.27863479 -0.30794620 -0.24453893
v 0.24695730 -0.29481213 -0.25987185
v 0.26944616 -0.30781532 -0.25724042
v 0.24418509 -0.29048196 -0.25517682
v 0.25842077 -0.30175282 -0.25736397
v 0.24635505 -0.27272651 -0.21910268
v 0.24634265 -0.28333670 -0.23931781
v 0.25341005 -0.28647145 -0.23419680
v 0.26649407 -0.28987668 -0.22164821
v 0.24404477 -0.26371198 -0.20388297
v 0.23617897 -0.28350029 -0.25474600
v 0.23384743 -0.27833091 -0.25183160
v 0.23568318 -0.28450829 -0.25850277
v 0.24097524 -0.26708027 -0.21727240
v 0.28230466 -0.30994251 -0.24321368
v 0.30172884 -0.32792177 -0.25625953
v 0.27502963 -0.30908695 -0.25463203
v 0.27156045 -0.31142955 -0.26679662
v 0.28033783 -0.31526987 -0.26599690
v 0.28248828 -0.31499520 -0.26131117
v 0.28364285 -0.31841676 -0.26487227
v 0.28910402 -0.31829437 -0.25370827
v 0.29297576 -0.32310490 -0.26210032
v 0.24117500 -0.25657299 -0.18662199
v 0.23084414 -0.25555073 -0.21621549
v 0.28400314 -0.30882609 -0.23506760
v 0.24971929 -0.26604509 -0.19796341
v 0.23708193 -0.27242565 -0.23659977
v 0.23334474 -0.25966739 -0.21892846
f 34 29 33
f 29 24 33
f 34 35 29
f 155 34 33
f 24 29 22
f 33 24 32
f 29 35 23
f 5 35 34
f 155 33 154
f 1 34 155
f 24 22 21
f 23 22 29
f 24 21 32
f 35 26 23
f 5 34 1
f 35 5 6
f 33 21 154
f 2 155 154
f 151 1 155
f 22 18 21
f 23 19 22
f 32 21 25
f 23 26 27
f 26 35 6
f 21 138 154
f 2 154 140
f 155 2 151
f 151 2 1
f 18 17 21
f 18 22 19
f 23 27 19
f 30 27 26
f 6 31 26
f 21 25 138
f 133 154 138
f 2 140 132
f 140 154 133
f 18 19 17
f 17 20 21
f 27 15 19
f 31 30 26
f 27 30 28
f 138 25 139
f 138 137 133
f 135 2 132
f 132 140 133
f 19 15 17
f 17 15 20
f 27 28 15
f 30 16 28
f 25 61 139
f 137 138 139
f 133 137 130
f 136 2 135
f 135 132 125
f 134 132 133
f 15 16 20
f 15 28 16
f 139 61 62
f 139 63 137
f 133 130 126
f 130 137 63
f 153 2 136
f 136 135 153
f 125 132 134
f 135 125 127
f 134 133 126
f 20 16 25
f 63 139 62
f 130 63 126
f 4 2 153
f 153 135 109
f 134 126 125
f 127 125 129
f 135 127 141
f 126 63 128
f 4 153 113
f 109 135 111
f 114 153 109
f 125 126 131
f 125 131 129
f 129 143 127
f 141 127 112
f 108 135 141
f 63 119 128
f 131 126 128
f 113 150 4
f 110 113 153
f 111 135 108
f 116 153 114
f 129 131 122
f 127 143 144
f 143 129 144
f 112 127 146
f 141 112 152
f 63 62 119
f 122 128 119
f 131 128 122
f 150 3 4
f 113 3 150
f 110 153 116
f 129 122 144
f 146 127 144
f 108 141 152
f 59 119 62
f 122 119 118
f 146 144 145
f 60 119 59
f 119 60 118
f 117 122 118
f 146 145 147
f 117 118 60
f 144 122 117
f 148 146 147
f 71 117 60
f 144 117 120
f 112 146 148
f 112 148 147
f 71 67 117
f 117 67 120
f 145 144 120
f 112 147 149
f 69 120 67
f 145 120 69
f 112 149 142
f 149 147 121
f 145 69 147
f 112 142 115
f 142 149 123
f 149 121 123
f 147 69 37
f 142 123 115
f 123 121 42
f 121 147 37
f 123 124 115
f 42 121 37
f 124 123 42
f 107 115 124
f 107 124 44
f 50 107 44
f 50 44 46
f 46 44 39
f 50 46 47
f 44 45 39
f 46 39 43
f 48 50 47
f 43 39 41
f 46 43 53
f 48 47 49
f 39 45 41
f 38 43 41
f 40 53 43
f 47 46 53
f 49 47 53
f 41 45 36
f 41 82 38
f 40 43 38
f 53 40 82
f 51 49 53
f 73 41 36
f 45 37 36
f 40 38 82
f 82 41 73
f 54 53 82
f 8 49 51
f 51 53 52
f 73 36 78
f 66 36 37
f 82 73 75
f 52 53 54
f 52 54 82
f 8 14 49
f 8 51 7
f 7 51 52
f 78 36 66
f 78 75 73
f 37 68 66
f 82 75 80
f 105 52 82
f 52 55 7
f 76 78 66
f 78 80 75
f 72 66 68
f 82 80 97
f 55 52 105
f 105 82 99
f 56 7 55
f 76 66 70
f 93 78 76
f 80 78 93
f 72 70 66
f 64 72 68
f 94 97 80
f 97 81 82
f 56 55 105
f 99 82 81
f 100 105 99
f 76 70 72
f 93 76 72
f 80 93 87
f 68 65 64
f 74 72 64
f 89 94 80
f 88 97 94
f 99 81 97
f 102 56 105
f 100 99 97
f 102 105 100
f 93 72 74
f 87 89 80
f 90 87 93
f 64 65 74
f 88 94 89
f 101 97 88
f 57 56 102
f 100 97 101
f 102 100 101
f 92 93 74
f 89 87 96
f 90 93 92
f 65 77 74
f 96 88 89
f 95 101 88
f 10 56 57
f 57 102 104
f 104 102 101
f 92 74 79
f 86 96 87
f 77 79 74
f 95 88 96
f 103 101 95
f 10 9 56
f 11 10 57
f 106 57 104
f 104 101 103
f 91 92 79
f 84 86 87
f 96 86 83
f 96 103 95
f 11 57 58
f 86 84 83
f 85 96 83
f 12 11 58
f 85 83 98
f 98 96 85
f 13 12 58

