v -0.343269 0.0427081 -0.216642
v -0.342319 0.0485108 -0.21508
v -0.341369 0.0543136 -0.213518
v -0.337744 0.0583956 -0.206837
v -0.340419 0.0601163 -0.211956
v -0.341104 0.0351422 -0.213095
v -0.344091 0.036893 -0.218207
v -0.340285 0.0409577 -0.21153
v -0.339467 0.0467731 -0.209965
v -0.338649 0.0525885 -0.2084
v -0.336564 0.0450972 -0.204875
v -0.335741 0.0509079 -0.203308
v -0.334917 0.0567186 -0.201742
v -0.331761 0.0551027 -0.196838
v -0.339323 0.0658488 -0.210527
v -0.335292 0.070199 -0.211967
v -0.331517 0.0677258 -0.208055
v -0.331978 0.0614571 -0.202139
v -0.335663 0.0636002 -0.206356
v -0.339244 0.0726207 -0.216047
v -0.33184 0.0749888 -0.213109
v -0.336024 0.0775842 -0.21707
v -0.336987 0.085143 -0.222054
v -0.340403 0.0801971 -0.2206
v -0.342086 0.087805 -0.224198
v -0.339288 0.0929849 -0.225427
v -0.344773 0.0955699 -0.22714
v -0.342356 0.10103 -0.228233
v -0.340164 0.106568 -0.228787
v -0.330812 0.025214 -0.198849
v -0.343065 0.0619011 -0.216936
v -0.346633 0.0579478 -0.223335
v -0.341072 0.125673 -0.227771
v -0.333335 0.140778 -0.219961
v -0.335982 0.142442 -0.22523
v -0.338629 0.144106 -0.230499
v -0.331517 0.146294 -0.219084
v -0.341258 0.145817 -0.235823
v -0.334153 0.147987 -0.224388
v -0.336781 0.149698 -0.229712
v -0.33941 0.151409 -0.235036
v -0.342039 0.15312 -0.24036
v -0.329646 0.151819 -0.218212
v -0.332264 0.153513 -0.223515
v -0.334883 0.155208 -0.228818
v -0.337502 0.156902 -0.234121
v -0.327723 0.157289 -0.217267
v -0.330342 0.158983 -0.22257
v -0.332736 0.16056 -0.227922
v -0.327875 0.164169 -0.221744
v -0.320912 0.166527 -0.210621
v -0.322512 0.167666 -0.216172
v -0.338171 0.157803 -0.239759
v -0.333517 0.161434 -0.23357
v -0.344015 0.0560988 -0.218497
v -0.3502 0.0539946 -0.229735
v -0.347583 0.0521456 -0.224896
v -0.344965 0.0502965 -0.220057
v -0.341775 0.153781 -0.246321
v -0.35115 0.0481924 -0.231296
v -0.33703 0.157636 -0.245358
v -0.332066 0.161335 -0.245119
v -0.32867 0.165104 -0.232848
v -0.327952 0.165119 -0.238409
v -0.348533 0.0463433 -0.226457
v -0.345915 0.0444943 -0.221618
v -0.325884 0.0463744 -0.188424
v -0.326561 0.0407019 -0.189714
v -0.333168 0.161615 -0.239099
v -0.325021 0.155625 -0.212175
v -0.323053 0.161113 -0.211346
v -0.325772 0.162769 -0.216393
v -0.32338 0.0392227 -0.184861
v -0.343356 0.14733 -0.241357
v -0.345147 0.148727 -0.247011
v -0.344037 0.134378 -0.237745
v -0.342757 0.140122 -0.236744
v -0.344533 0.141508 -0.242405
v -0.346308 0.142894 -0.248066
v -0.346237 0.115812 -0.234854
v -0.344895 0.121532 -0.23396
v -0.346705 0.122932 -0.239561
v -0.343553 0.127252 -0.233066
v -0.345363 0.128652 -0.238667
v -0.345832 0.135771 -0.243373
v -0.347369 0.130102 -0.24419
v -0.347771 0.110135 -0.235676
v -0.349675 0.111542 -0.241251
v -0.348545 0.117334 -0.240262
v -0.349318 0.124532 -0.244847
v -0.351479 0.112826 -0.246865
v -0.350436 0.118726 -0.245841
v -0.352568 0.0882308 -0.245194
v -0.351178 0.100537 -0.248717
v -0.351443 0.10673 -0.247823
v -0.327237 0.0350295 -0.191004
v -0.353527 0.0697491 -0.243011
v -0.352214 0.0820476 -0.246328
v -0.350901 0.0943461 -0.249646
v -0.354274 0.0571797 -0.239869
v -0.353397 0.0501746 -0.236264
v -0.346847 0.0386966 -0.223192
v -0.349028 0.0406601 -0.228357
v -0.333825 0.0268493 -0.204439
v -0.336839 0.0284846 -0.210029
v -0.339853 0.03012 -0.215619
v -0.326991 0.0220788 -0.20098
v -0.324057 0.0335502 -0.186151
v -0.313949 0.0196409 -0.200216
v -0.318939 0.0204919 -0.197829
v -0.323929 0.021343 -0.195443
v -0.315406 0.0232461 -0.216435
v -0.311151 0.02132 -0.221965
v -0.31363 0.0210073 -0.211573
v -0.311661 0.0235341 -0.226784
v -0.310684 0.0258356 -0.231695
v -0.309056 0.0287118 -0.236497
v -0.314065 0.0324274 -0.235828
v -0.330765 0.0404663 -0.23942
v -0.336734 0.0421217 -0.238982
v -0.342747 0.0435765 -0.238711
v -0.327914 0.029357 -0.192293
v -0.320033 0.0340019 -0.235499
v -0.326089 0.0352589 -0.235394
v -0.332145 0.036516 -0.235289
v -0.338201 0.037773 -0.235184
v -0.321249 0.0306982 -0.230831
v -0.327268 0.0320223 -0.23069
v -0.344233 0.0390737 -0.235056
v -0.315855 0.0270238 -0.226193
v -0.315153 0.0294948 -0.230974
v -0.333442 0.0331396 -0.230287
v -0.339646 0.0342191 -0.229835
v -0.322445 0.026453 -0.220926
v -0.321884 0.0284797 -0.225973
v -0.328119 0.0295062 -0.225502
v -0.334354 0.0305327 -0.225032
v -0.329186 0.0269333 -0.219366
v -0.341023 0.0310899 -0.223625
v -0.326846 0.0246031 -0.213325
v -0.332755 0.0252575 -0.21203
v -0.335501 0.0274969 -0.217929
v -0.316475 0.0213954 -0.20525
v -0.318758 0.0227697 -0.210058
v -0.321042 0.024144 -0.214866
v -0.324524 0.0231569 -0.208426
v -0.316421 0.0249101 -0.221364
v -0.321784 0.0216784 -0.203162
v -0.330065 0.0234929 -0.20657
v -0.349714 0.085899 -0.233858
v -0.351618 0.0872392 -0.239568
v -0.350691 0.092983 -0.23853
v -0.352595 0.0943233 -0.24424
v -0.351668 0.100067 -0.243203
v -0.353894 0.0631226 -0.238602
v -0.352848 0.0688163 -0.237415
v -0.351802 0.07451 -0.236228
v -0.353644 0.0758244 -0.24186
v -0.350756 0.0802037 -0.235041
v -0.352598 0.0815181 -0.240673
v -0.348021 0.0653753 -0.227043
v -0.350512 0.0671511 -0.232168
v -0.344561 0.069348 -0.220671
v -0.347052 0.0711239 -0.225796
v -0.349543 0.0728997 -0.230921
v -0.346084 0.0768725 -0.224549
v -0.348575 0.0786483 -0.229673
v -0.347606 0.0843969 -0.228426
v -0.352726 0.0557753 -0.234697
v -0.351506 0.0614134 -0.233419
v -0.349217 0.0597273 -0.228319
v -0.34565 0.0636821 -0.221916
v -0.342083 0.067637 -0.215513
v -0.343729 0.0751453 -0.219321
v -0.345197 0.0827375 -0.223094
v -0.346467 0.0900623 -0.227288
v -0.345432 0.108631 -0.230426
v -0.343914 0.114315 -0.229672
v -0.348062 0.137274 -0.248808
v -0.348785 0.0916345 -0.232838
v -0.347845 0.0973134 -0.231941
v -0.349761 0.0987129 -0.237523
v -0.346904 0.102992 -0.231045
v -0.348821 0.104392 -0.236626
v -0.350737 0.105791 -0.242207
v -0.326817 0.150115 -0.213148
v -0.339525 0.131292 -0.226843
v -0.342178 0.132964 -0.232121
v -0.337764 0.13688 -0.226052
v -0.340416 0.138551 -0.23133
v -0.337069 0.0986838 -0.226111
v -0.337227 0.0392964 -0.206535
v -0.332496 0.0492974 -0.198455
v -0.334033 0.0322388 -0.202731
v -0.337747 0.0336006 -0.207983
v -0.333541 0.0379017 -0.201362
v -0.333048 0.0435646 -0.199992
v -0.330321 0.0308767 -0.197479
v -0.329831 0.0365395 -0.196109
v -0.32934 0.0422022 -0.19474
v -0.32885 0.0478649 -0.19337
v -0.328359 0.0535276 -0.192
f 2 58 66 1
f 66 102 7 1
f 7 6 8 1
f 8 9 2 1
f 3 55 58 2
f 9 10 3 2
f 5 31 55 3
f 10 4 5 3
f 19 15 5 4
f 10 12 13 4
f 13 18 19 4
f 15 173 31 5
f 106 105 195 6
f 195 192 8 6
f 192 11 9 8
f 11 12 10 9
f 192 196 197 11
f 197 193 12 11
f 193 14 13 12
f 193 201 202 14
f 16 20 173 15
f 19 17 16 15
f 21 22 20 16
f 22 24 174 20
f 174 163 173 20
f 25 175 24 23
f 175 166 174 24
f 26 27 176 25
f 176 168 175 25
f 191 28 27 26
f 28 183 181 27
f 181 180 176 27
f 29 177 183 28
f 187 188 83 33
f 37 39 35 34
f 39 40 36 35
f 36 190 189 35
f 40 41 38 36
f 38 77 190 36
f 43 44 39 37
f 41 42 74 38
f 74 78 77 38
f 44 45 40 39
f 45 46 41 40
f 46 53 42 41
f 53 61 59 42
f 59 75 74 42
f 47 48 44 43
f 186 70 47 43
f 48 49 45 44
f 49 54 46 45
f 54 69 53 46
f 72 50 48 47
f 70 71 72 47
f 52 72 71 51
f 69 62 61 53
f 63 64 69 54
f 75 79 78 74
f 77 78 85 76
f 85 86 84 76
f 84 83 188 76
f 188 190 77 76
f 79 179 85 78
f 81 82 89 80
f 89 88 87 80
f 87 177 178 80
f 83 84 82 81
f 84 86 90 82
f 90 92 89 82
f 88 185 184 87
f 184 183 177 87
f 89 92 91 88
f 91 95 185 88
f 98 160 151 93
f 151 152 153 93
f 99 153 154 94
f 154 185 95 94
f 156 157 158 97
f 169 170 155 100
f 60 56 169 101
f 66 65 103 102
f 194 195 105 104
f 105 141 149 104
f 149 107 30 104
f 30 198 194 104
f 106 142 141 105
f 149 146 148 107
f 148 110 111 107
f 110 148 143 109
f 145 134 147 112
f 114 144 145 112
f 147 130 115 113
f 130 131 116 115
f 131 118 117 116
f 131 127 123 118
f 125 126 120 119
f 126 129 121 120
f 127 128 124 123
f 128 132 125 124
f 132 133 126 125
f 131 130 135 127
f 135 136 128 127
f 136 137 132 128
f 147 134 135 130
f 137 139 133 132
f 138 136 135 134
f 145 140 138 134
f 138 142 137 136
f 140 141 142 138
f 145 144 146 140
f 146 149 141 140
f 148 146 144 143
f 180 152 151 150
f 151 160 159 150
f 159 167 168 150
f 168 176 180 150
f 182 154 153 152
f 180 181 182 152
f 182 184 185 154
f 170 162 156 155
f 162 165 157 156
f 159 160 158 157
f 165 167 159 157
f 164 165 162 161
f 162 170 171 161
f 171 32 172 161
f 172 163 164 161
f 174 166 164 163
f 172 31 173 163
f 166 167 165 164
f 175 168 167 166
f 56 171 170 169
f 56 57 32 171
f 32 55 31 172
f 183 184 182 181
f 189 190 188 187
f 195 194 196 192
f 197 200 201 193
f 198 199 196 194
f 199 200 197 196
f 122 96 199 198
f 96 68 200 199
f 68 67 201 200
f 73 68 96 108
f 58 57 65 66
f 57 56 60 65
f 55 32 57 58
