# https://github.com/mikedh/trimesh
v -0.30911049 0.09774950 -0.17187000
v -0.32497850 0.14854350 -0.20974725
v -0.31375405 0.06554312 -0.17684810
v -0.30841734 0.06878012 -0.16703055
v -0.30463147 0.06500792 -0.17064289
v -0.31236024 0.06317770 -0.18084263
v -0.29963550 0.06612850 -0.16616700
v -0.30985101 0.06215050 -0.17886451
v -0.31672617 0.06494009 -0.18208962
v -0.32188675 0.06838500 -0.18441625
v -0.31992100 0.06401400 -0.19247050
v -0.31534913 0.06253538 -0.18620388
v -0.31677599 0.06816825 -0.17714075
v -0.30535000 0.07179212 -0.16293825
v -0.29730499 0.06869500 -0.16280299
v -0.31368749 0.11548875 -0.18254800
v -0.30701950 0.10238900 -0.17031900
v -0.30689600 0.10525900 -0.17015000
v -0.31882478 0.02286930 -0.18061248
v -0.31499900 0.02529850 -0.17434500
v -0.32286750 0.02444550 -0.18543800
v -0.32208154 0.05079042 -0.18143494
v -0.30757800 0.03363625 -0.16402126
v -0.29994501 0.05727200 -0.15429400
v -0.31210400 0.05100485 -0.16792714
v -0.30291084 0.05681330 -0.15769811
v -0.28809601 0.07268300 -0.14345700
v -0.29050601 0.06876600 -0.14543299
v -0.27998275 0.08613375 -0.13762600
v -0.27782562 0.10012719 -0.13772213
v -0.27950816 0.12003446 -0.14411689
v -0.27887499 0.12882000 -0.14490500
v -0.27751154 0.11962471 -0.14150158
v -0.28226024 0.12786152 -0.14871305
v -0.29127800 0.14367881 -0.16227569
v -0.28356701 0.13625400 -0.15140900
v -0.27955277 0.11778481 -0.15230951
v -0.27290601 0.10876750 -0.13500800
v -0.27513400 0.11080700 -0.13729400
v -0.28538780 0.13484741 -0.15719126
v -0.28483919 0.07782696 -0.14654219
v -0.30939906 0.05408678 -0.16585673
v -0.32229914 0.05392327 -0.18501469
v -0.29391590 0.14602741 -0.16746952
v -0.31834755 0.05213176 -0.17713254
v -0.29758000 0.15082200 -0.17069000
v -0.29958799 0.15220500 -0.17359350
v -0.31039770 0.15619218 -0.18881522
v -0.30419800 0.17160501 -0.18797199
v -0.32978100 0.14226501 -0.21627000
v -0.33561075 0.12656100 -0.22583150
v -0.31330612 0.15300137 -0.19398500
v -0.32009048 0.14211959 -0.21194115
v -0.30526599 0.17596699 -0.20286299
v -0.31357300 0.18154800 -0.21864501
v -0.31404299 0.18610150 -0.22117300
v -0.30459401 0.17477650 -0.19626599
v -0.29256784 0.08717364 -0.14961026
v -0.28509414 0.08243752 -0.15174333
v -0.28751165 0.10135998 -0.14808294
v -0.28933087 0.07604661 -0.15527831
v -0.29854837 0.07843144 -0.15529992
v -0.29221994 0.09319654 -0.14901654
v -0.29854814 0.08163267 -0.15463271
v -0.27813043 0.10055035 -0.14841196
v -0.27891884 0.10362827 -0.14950396
v -0.27947730 0.11162504 -0.15106535
v -0.28138635 0.12155460 -0.15542576
v -0.28695532 0.13360662 -0.16435204
v -0.28808148 0.13771662 -0.16607516
v -0.28556641 0.07883662 -0.15124624
v -0.29328125 0.06828797 -0.15929539
v -0.29839784 0.14369158 -0.18123536
v -0.31025425 0.14758553 -0.19830040
v -0.31535159 0.14191516 -0.20351009
v -0.31676487 0.14342210 -0.20733436
v -0.33064782 0.12607689 -0.22448168
v -0.30841081 0.05743753 -0.17481318
v -0.32954223 0.07229822 -0.21019308
v -0.30206976 0.06217037 -0.16958990
v -0.33626349 0.08852350 -0.22360851
v -0.33509850 0.08275200 -0.22048150
v -0.33374519 0.12212298 -0.22727195
v -0.33417571 0.11617677 -0.22737664
v -0.33540050 0.11081450 -0.22718900
v -0.32449287 0.06266510 -0.19983667
v -0.28154244 0.12511518 -0.15688778
v -0.28311458 0.08340104 -0.14888818
v -0.30193713 0.14638535 -0.18733277
v -0.32958699 0.13229226 -0.22270062
v -0.32932480 0.12752046 -0.22222852
v -0.31138031 0.14393493 -0.19889866
v -0.30600137 0.14912127 -0.19178399
v -0.33212100 0.07084675 -0.21176351
v -0.28097436 0.09038900 -0.14957272
v -0.30631800 0.05899008 -0.17333564
v -0.32427541 0.14023442 -0.21571785
v -0.27826358 0.09917061 -0.14392180
v -0.32100396 0.13815488 -0.20948858
v -0.28449873 0.13278503 -0.16005334
v -0.32465221 0.13536134 -0.21745406
v -0.32571600 0.05295175 -0.18769837
v -0.30786402 0.15276720 -0.18729202
v -0.29872097 0.14716195 -0.18212563
v -0.29767331 0.13133304 -0.16446850
v -0.28527299 0.12279300 -0.15628500
v -0.32674722 0.07644950 -0.19064131
v -0.33884121 0.09267675 -0.21225094
v -0.33650429 0.11431750 -0.21416261
v -0.32200077 0.11267235 -0.19216628
v -0.32345961 0.09830787 -0.19053311
v -0.33351696 0.07740880 -0.20087009
v -0.32848474 0.07198540 -0.19307778
v -0.31943701 0.12258272 -0.19093765
v -0.32546376 0.13376905 -0.20379536
v -0.33833835 0.08837126 -0.21130003
v -0.32966701 0.12915642 -0.20860871
v -0.30976863 0.11805608 -0.17546111
v -0.31270955 0.07034611 -0.17058920
v -0.30958777 0.09496486 -0.16975099
v -0.31239662 0.14049454 -0.18691163
v -0.31994845 0.13773400 -0.19716692
v -0.33805520 0.11388744 -0.21840829
v -0.33659252 0.08277166 -0.20766166
v -0.33398806 0.12318378 -0.21311621
v -0.33859553 0.10862335 -0.22055976
v -0.30415012 0.13753546 -0.17491980
v -0.30036340 0.13450263 -0.16903056
v -0.30221311 0.13808700 -0.17313280
v -0.33185823 0.12736248 -0.21303323
v -0.31584310 0.14077017 -0.19334900
v -0.29203194 0.12352406 -0.15622867
v -0.30610603 0.14418494 -0.19075580
v -0.29000406 0.11323725 -0.15080904
v -0.33196348 0.07462170 -0.19939932
v -0.32342540 0.06646354 -0.19220098
v -0.33228507 0.07786324 -0.21557113
v -0.32184525 0.06343241 -0.19645633
v -0.33372493 0.08161289 -0.21671290
v -0.33612499 0.08786300 -0.21835101
v -0.32690792 0.06732732 -0.20533814
v -0.34002034 0.09791825 -0.21655796
v -0.33643800 0.10048900 -0.22673699
v -0.33770977 0.10431972 -0.22422684
v -0.30568037 0.19290300 -0.21112288
v -0.29190804 0.19474791 -0.20004842
v -0.28112501 0.19391800 -0.19653399
v -0.31154299 0.18999600 -0.21846101
v -0.26541300 0.18037000 -0.17544550
v -0.26775599 0.18218400 -0.17788500
v -0.27647650 0.19302750 -0.19278950
v -0.28038299 0.19632301 -0.20295700
v -0.26613399 0.16221200 -0.15076600
v -0.27188735 0.15550486 -0.14880206
v -0.25901500 0.12931025 -0.13202300
v -0.26140235 0.14067944 -0.13710445
v -0.26587504 0.15572743 -0.14806495
v -0.25839299 0.12168700 -0.12896800
v -0.25945100 0.11775200 -0.12783501
v -0.26300844 0.13271126 -0.13358362
v -0.26505744 0.14663112 -0.14123440
v -0.25873349 0.13753150 -0.13618300
v -0.25870699 0.14015999 -0.13779400
v -0.25821251 0.14256300 -0.13977650
v -0.26298035 0.15045412 -0.14338851
v -0.25642051 0.15146150 -0.14914200
v -0.26060828 0.15599947 -0.14998375
v -0.26403075 0.16158758 -0.15381540
v -0.25661200 0.16143874 -0.15912313
v -0.25842749 0.16700676 -0.16380450
v -0.26614909 0.16766965 -0.15962886
v -0.27286677 0.18037927 -0.17419171
v -0.27037738 0.17432448 -0.16695031
v -0.27512582 0.17895638 -0.17185332
v -0.26981658 0.16941996 -0.16121616
v -0.28108743 0.18838302 -0.18400088
v -0.28131719 0.18369606 -0.17793434
v -0.28497868 0.19098858 -0.18792917
v -0.28442943 0.18958155 -0.18565846
v -0.28131910 0.18661471 -0.18140703
v -0.29105026 0.19048028 -0.18892284
v -0.29105955 0.19324920 -0.19326259
v -0.29616715 0.19195934 -0.19494512
v -0.30129198 0.19276061 -0.20203645
v -0.29404300 0.16513801 -0.17231999
v -0.29590355 0.16319899 -0.17328742
v -0.28618401 0.15468501 -0.15989400
v -0.28683951 0.16751958 -0.16673290
v -0.29211444 0.14635809 -0.16301350
v -0.29692018 0.17134433 -0.17862426
v -0.28059305 0.13537691 -0.14809755
v -0.26300727 0.10927641 -0.12726423
v -0.26270200 0.09775300 -0.12530500
v -0.26303872 0.11953877 -0.12970685
v -0.26018101 0.10957950 -0.12611450
v -0.29073469 0.17018564 -0.17194294
v -0.28028285 0.15496469 -0.15526580
v -0.27927518 0.16941795 -0.16555214
v -0.30008726 0.17405782 -0.18548071
v -0.27912133 0.17436965 -0.17012994
v -0.29018582 0.18709666 -0.18621636
v -0.28771437 0.17678187 -0.17963687
v -0.28821371 0.18032268 -0.18180658
v -0.29507972 0.17698804 -0.18839781
v -0.29745243 0.17764227 -0.19198994
v -0.28209913 0.17293247 -0.17092567
v -0.29968119 0.18919378 -0.19776744
v -0.29607774 0.18716009 -0.19257337
v -0.30309908 0.19099621 -0.20321521
v -0.30958121 0.19033116 -0.21369981
v -0.30631219 0.18930629 -0.20751273
v -0.29351105 0.17368121 -0.17803538
v -0.28635487 0.17074147 -0.16944435
v -0.30012702 0.17653026 -0.19487875
f 110 111 1
f 110 108 111
f 120 111 108
f 120 108 112
f 120 112 107
f 120 107 113
f 120 113 119
f 62 120 119
f 64 120 62
f 63 120 64
f 18 120 63
f 118 18 63
f 118 63 132
f 132 105 118
f 105 114 118
f 114 110 118
f 105 121 114
f 121 125 114
f 121 115 125
f 115 117 125
f 130 125 117
f 125 130 84
f 130 91 84
f 115 91 130
f 99 91 115
f 122 99 115
f 75 99 122
f 131 75 122
f 131 122 121
f 133 75 131
f 121 133 131
f 129 133 121
f 73 133 129
f 69 73 129
f 129 105 69
f 129 128 105
f 129 127 128
f 129 121 127
f 127 121 128
f 105 132 69
f 69 132 87
f 106 87 132
f 87 106 68
f 68 106 132
f 68 132 134
f 68 134 67
f 67 134 60
f 60 134 63
f 60 63 58
f 95 60 58
f 60 95 65
f 65 66 60
f 95 58 59
f 59 58 61
f 58 62 61
f 72 61 62
f 62 7 72
f 7 80 72
f 7 8 80
f 80 8 96
f 96 8 78
f 8 43 78
f 78 43 45
f 78 45 42
f 26 78 42
f 78 26 96
f 80 96 26
f 72 80 26
f 72 26 41
f 71 72 41
f 41 88 71
f 88 95 71
f 95 59 71
f 71 59 61
f 71 61 72
f 95 88 41
f 41 98 95
f 65 95 98
f 67 65 98
f 31 67 98
f 30 31 98
f 37 67 31
f 34 37 31
f 34 68 37
f 34 87 68
f 40 87 34
f 40 100 87
f 100 40 69
f 36 40 34
f 36 35 40
f 35 44 40
f 44 70 40
f 44 73 70
f 44 47 73
f 40 70 69
f 69 70 73
f 35 47 44
f 32 36 34
f 191 36 32
f 191 189 36
f 197 189 191
f 197 191 160
f 161 197 160
f 161 154 197
f 153 197 154
f 153 198 197
f 188 197 198
f 198 213 188
f 206 213 198
f 206 202 213
f 213 202 212
f 213 212 196
f 212 190 196
f 199 190 212
f 212 204 199
f 204 214 199
f 214 57 199
f 214 54 57
f 196 190 188
f 190 185 188
f 190 186 185
f 190 47 186
f 190 49 47
f 186 47 189
f 188 186 189
f 188 189 187
f 188 185 186
f 202 204 212
f 206 200 202
f 200 206 153
f 174 200 153
f 177 200 174
f 177 201 200
f 200 201 203
f 203 201 204
f 203 204 202
f 204 201 208
f 204 208 205
f 208 211 205
f 208 207 211
f 207 209 211
f 209 210 211
f 210 56 211
f 211 56 55
f 54 211 55
f 214 211 54
f 148 56 210
f 210 145 148
f 184 145 210
f 184 210 209
f 183 184 209
f 183 209 207
f 181 183 207
f 208 181 207
f 211 214 205
f 205 214 204
f 201 181 208
f 177 181 201
f 180 181 177
f 180 179 181
f 179 178 181
f 178 182 181
f 182 183 181
f 183 182 184
f 182 146 184
f 146 145 184
f 182 147 146
f 151 147 182
f 151 152 147
f 178 151 182
f 176 151 178
f 180 176 178
f 172 151 176
f 172 176 174
f 173 172 174
f 175 173 174
f 171 172 173
f 153 171 173
f 168 171 153
f 169 171 168
f 169 170 171
f 171 170 149
f 169 168 167
f 169 167 166
f 165 166 167
f 165 164 166
f 165 156 164
f 164 156 163
f 164 163 162
f 163 156 162
f 162 156 155
f 155 156 160
f 165 160 156
f 161 160 165
f 161 165 157
f 165 168 157
f 157 154 161
f 155 160 158
f 158 160 159
f 160 194 159
f 159 194 192
f 194 38 192
f 191 38 194
f 191 32 38
f 192 38 193
f 195 192 193
f 159 192 195
f 167 168 165
f 149 172 171
f 149 150 172
f 172 150 151
f 180 178 179
f 174 176 177
f 200 203 202
f 213 196 188
f 197 188 187
f 206 198 153
f 160 191 194
f 187 189 197
f 189 46 36
f 32 34 33
f 33 34 31
f 33 31 30
f 39 33 30
f 29 39 30
f 39 32 33
f 30 98 41
f 30 41 29
f 28 41 26
f 29 41 28
f 29 28 27
f 45 43 102
f 45 102 22
f 22 102 20
f 20 102 21
f 20 21 19
f 20 25 22
f 25 20 23
f 24 25 23
f 26 25 24
f 26 42 25
f 42 45 25
f 28 26 24
f 45 22 25
f 86 102 43
f 86 94 102
f 138 86 43
f 138 141 86
f 8 138 43
f 62 14 7
f 67 60 66
f 75 101 99
f 99 101 91
f 101 77 91
f 91 77 84
f 77 83 84
f 77 90 83
f 83 90 51
f 50 51 90
f 2 50 90
f 2 90 97
f 53 97 90
f 53 90 101
f 76 53 101
f 76 101 75
f 76 75 92
f 74 76 92
f 89 74 92
f 93 74 89
f 104 93 89
f 104 103 93
f 47 103 104
f 48 103 47
f 48 52 103
f 103 52 2
f 48 2 52
f 103 2 93
f 2 74 93
f 74 2 76
f 2 53 76
f 104 89 73
f 89 133 73
f 89 92 133
f 133 92 75
f 53 2 97
f 101 90 77
f 125 84 123
f 123 84 126
f 123 126 142
f 142 126 144
f 142 144 81
f 144 143 81
f 144 85 143
f 116 142 81
f 108 142 116
f 109 142 108
f 109 108 114
f 126 85 144
f 109 123 142
f 125 123 109
f 84 85 126
f 115 130 117
f 122 115 121
f 125 109 114
f 128 121 105
f 132 63 134
f 18 118 16
f 18 16 17
f 63 64 58
f 58 64 62
f 62 119 14
f 113 10 119
f 119 10 13
f 107 112 113
f 135 113 112
f 113 135 136
f 135 79 136
f 135 124 79
f 124 139 79
f 116 139 124
f 116 140 139
f 139 140 81
f 139 81 82
f 139 82 137
f 139 137 79
f 113 136 10
f 10 136 11
f 136 138 11
f 136 141 138
f 136 79 141
f 8 11 138
f 10 11 9
f 12 9 11
f 6 9 12
f 3 9 6
f 3 6 5
f 4 3 5
f 15 4 5
f 13 10 9
f 4 13 9
f 124 135 112
f 108 116 112
f 112 116 124
f 114 108 110
f 1 111 120
f 120 17 1
f 16 110 1

