v -0.200782 -0.0190513 -0.0156578
v -0.208237 -0.0234365 -0.0112466
v -0.215681 -0.0276047 -0.00668181
v -0.202987 -0.0363549 0.00543563
v -0.196308 -0.0399457 0.0116856
v -0.189628 -0.0435366 0.0179357
v -0.182043 -0.045894 0.024359
v -0.169462 -0.0429665 0.0237924
v -0.174582 -0.0480163 0.0301769
v -0.166847 -0.0494615 0.0358855
v -0.156633 -0.0398139 0.022238
v -0.161621 -0.0443003 0.0293634
v -0.148867 -0.0405094 0.0275234
v -0.153795 -0.0449266 0.0346719
v -0.150015 -0.0497577 0.0472455
v -0.158448 -0.0497973 0.0417287
v -0.163544 -0.0533974 0.0488745
v -0.214179 -0.0190537 -0.0178223
v -0.206634 -0.014737 -0.0222316
v -0.188414 -0.0506092 0.0298082
v -0.146682 -0.0504454 0.0598676
v -0.195849 -0.0477581 0.0233428
v -0.17205 -0.0526812 0.0428999
v -0.155113 -0.052677 0.0545568
v -0.145592 -0.0445942 0.0399913
v -0.141819 -0.0487594 0.0524422
v -0.129664 -0.0424471 0.049732
v -0.133468 -0.0468718 0.0576301
v -0.125271 -0.0445919 0.0626663
v -0.121607 -0.0401074 0.0546612
v -0.117528 -0.0367392 0.0464415
v -0.0945667 -0.0266792 0.0609643
v -0.0871936 -0.0226107 0.0658655
v -0.0824977 -0.0211946 0.0578422
v -0.0735908 -0.0120452 0.0756184
v -0.0713331 -0.00910887 0.0887673
v -0.0883634 -0.0230644 0.0869096
v -0.0952924 -0.0278479 0.0822638
v -0.0988781 -0.0288202 0.0691039
v -0.0918895 -0.0241267 0.0739228
v -0.085149 -0.0190967 0.0787555
v -0.102211 -0.0326715 0.0774211
v -0.109363 -0.0372575 0.0725189
v -0.117232 -0.0409302 0.0676325
v -0.106119 -0.0332056 0.0642877
v -0.0782812 -0.0139485 0.0836766
v -0.0568084 -0.00156866 0.100555
v -0.0748988 -0.0141084 0.0963441
v -0.0680291 -0.0102237 0.102009
v -0.0612312 -0.00705746 0.107651
v -0.0494185 -0.000115127 0.108093
v -0.0419223 0.000834188 0.11609
v -0.0546832 -0.00551041 0.113965
v -0.0476748 -0.00475045 0.121352
v -0.0539518 -0.0106968 0.126156
v -0.0417534 -0.00509828 0.128368
v -0.0481281 -0.011093 0.132946
v -0.036055 -0.00620518 0.136245
v -0.0353388 0.000841336 0.123839
v -0.029464 -0.000535263 0.132439
v -0.0237464 -0.00213231 0.141013
v -0.0307266 -0.00816638 0.144552
v -0.0254924 -0.0103679 0.153041
v -0.0377185 -0.0136737 0.148045
v -0.0326298 -0.0162162 0.155548
v -0.0205702 -0.0127579 0.16115
v -0.0284082 -0.0187767 0.163595
v -0.203045 -0.0441658 0.0170333
v -0.0428633 -0.0120293 0.140203
v -0.0640958 -0.00524447 0.0946081
v -0.0803792 -0.0174116 0.0706564
v -0.0745377 -0.0183123 0.0628752
v -0.0675025 -0.0135197 0.0677188
v -0.209913 -0.039799 0.0109629
v -0.109635 -0.0341098 0.0512814
v -0.101943 -0.0307525 0.0561673
v -0.108968 -0.0311301 0.0299099
v -0.209493 -0.0328858 -0.000727702
v -0.112988 -0.0344724 0.038067
v -0.11734 -0.0323069 0.0252399
v -0.121436 -0.0355328 0.0334101
v -0.133818 -0.0400982 0.0367784
v -0.125539 -0.0388796 0.041597
v -0.129835 -0.0364155 0.0286999
v -0.113727 -0.0371464 0.0594991
v -0.137709 -0.043989 0.0448539
v -0.140727 -0.0404468 0.0323856
v -0.137098 -0.0366793 0.0244018
v -0.144189 -0.036322 0.020091
v -0.151582 -0.035274 0.0151657
v -0.164358 -0.0381132 0.0172854
v -0.202072 -0.0280468 -0.00514562
v -0.159172 -0.0334577 0.010327
v -0.182959 -0.0383669 0.0129857
v -0.195979 -0.0316006 0.000753164
v -0.189562 -0.0350056 0.00673512
v -0.194652 -0.0232078 -0.00956354
f 2 92 97 1
f 19 18 2 1
f 3 78 92 2
f 74 68 5 4
f 5 96 95 4
f 95 92 78 4
f 68 22 6 5
f 6 94 96 5
f 22 20 7 6
f 9 10 12 8
f 23 17 16 10
f 16 14 12 10
f 12 14 13 11
f 13 89 90 11
f 90 93 91 11
f 14 25 87 13
f 87 88 89 13
f 16 15 25 14
f 24 21 26 15
f 26 86 25 15
f 16 17 24 15
f 28 27 86 26
f 28 29 30 27
f 30 31 83 27
f 83 82 86 27
f 79 81 83 31
f 39 40 33 32
f 76 45 39 32
f 40 41 71 33
f 71 72 34 33
f 73 72 71 35
f 71 41 46 35
f 48 49 70 36
f 41 40 38 37
f 40 39 42 38
f 45 43 42 39
f 45 85 44 43
f 76 75 85 45
f 50 53 51 47
f 70 49 50 47
f 53 54 52 51
f 54 56 59 52
f 55 57 56 54
f 57 69 58 56
f 58 60 59 56
f 69 64 62 58
f 62 61 60 58
f 64 65 63 62
f 65 67 66 63
f 80 81 79 77
f 84 82 83 81
