v -0.332819 -0.139543 -0.226477
v -0.331928 -0.129867 -0.22888
v -0.330498 -0.120109 -0.230469
v -0.319927 -0.112217 -0.236236
v -0.321769 -0.121922 -0.235374
v -0.32341 -0.131577 -0.234033
v -0.310334 -0.163458 -0.237498
v -0.31613 -0.142847 -0.2369
v -0.314455 -0.133392 -0.238564
v -0.308676 -0.154181 -0.239336
v -0.307021 -0.144925 -0.241198
v -0.305153 -0.135697 -0.242656
v -0.295832 -0.13795 -0.246668
v -0.303396 -0.126001 -0.243877
v -0.292263 -0.11844 -0.248699
v -0.290437 -0.10855 -0.249049
v -0.288478 -0.0987458 -0.249182
v -0.27726 -0.0909351 -0.253049
v -0.286522 -0.0889437 -0.249362
v -0.284523 -0.0791016 -0.249318
v -0.282524 -0.0692595 -0.249274
v -0.280525 -0.0594174 -0.24923
v -0.275271 -0.0810858 -0.253006
v -0.273265 -0.071193 -0.252734
v -0.271257 -0.0613005 -0.252454
v -0.269721 -0.102703 -0.256215
v -0.269237 -0.0514287 -0.252335
v -0.267177 -0.0415626 -0.252119
v -0.328305 -0.110409 -0.230848
v -0.276518 -0.0396812 -0.249068
v -0.285617 -0.0377825 -0.245362
v -0.300728 -0.0653543 -0.241593
v -0.287642 -0.0476276 -0.245395
v -0.26774 -0.0927724 -0.255962
v -0.263343 -0.124921 -0.259071
v -0.264965 -0.135313 -0.258844
v -0.257647 -0.150146 -0.260517
v -0.245779 -0.182165 -0.261615
v -0.237595 -0.188842 -0.263036
v -0.220086 -0.215709 -0.263628
v -0.212223 -0.221881 -0.264699
v -0.196504 -0.234151 -0.266634
v -0.188497 -0.240147 -0.267143
v -0.318035 -0.102498 -0.236994
v -0.301597 -0.116285 -0.244766
v -0.310785 -0.114191 -0.240508
v -0.202015 -0.241558 -0.262533
v -0.193772 -0.24771 -0.263203
v -0.217713 -0.229091 -0.260455
v -0.209998 -0.235289 -0.261603
v -0.232972 -0.216835 -0.257738
v -0.22535 -0.222957 -0.259116
v -0.23723 -0.223827 -0.25221
v -0.229594 -0.229943 -0.253448
v -0.244667 -0.218149 -0.250544
v -0.270563 -0.187668 -0.249381
v -0.282232 -0.192442 -0.242037
v -0.274387 -0.195777 -0.243907
v -0.298633 -0.186201 -0.238752
v -0.29538 -0.177263 -0.242009
v -0.287051 -0.180433 -0.244264
v -0.278755 -0.183749 -0.24678
v -0.266923 -0.179351 -0.253512
v -0.258672 -0.184655 -0.255908
v -0.248115 -0.204893 -0.254623
v -0.240586 -0.210687 -0.256333
v -0.243261 -0.196723 -0.2596
v -0.250963 -0.190681 -0.257889
v -0.254635 -0.175467 -0.259475
v -0.263437 -0.170202 -0.256871
v -0.269649 -0.156156 -0.256072
v -0.260377 -0.160473 -0.259153
v -0.279106 -0.152598 -0.252712
v -0.281389 -0.16209 -0.250706
v -0.284075 -0.171443 -0.247875
v -0.275386 -0.17488 -0.250889
v -0.292825 -0.168346 -0.244708
v -0.325739 -0.160366 -0.226309
v -0.318975 -0.171404 -0.229592
v -0.318277 -0.161826 -0.232072
v -0.324828 -0.141147 -0.232111
v -0.325636 -0.150699 -0.229411
v -0.31251 -0.172455 -0.236261
v -0.301544 -0.165811 -0.241307
v -0.299559 -0.156587 -0.24341
v -0.290564 -0.15916 -0.247184
v -0.276833 -0.142824 -0.254369
v -0.28463 -0.130496 -0.2519
v -0.274913 -0.132891 -0.255536
v -0.273213 -0.122905 -0.256082
v -0.281087 -0.110653 -0.252921
v -0.272453 -0.165779 -0.253799
v -0.304045 -0.174758 -0.239513
v -0.307458 -0.1836 -0.238395
v -0.290165 -0.189008 -0.240073
v -0.266943 -0.201273 -0.245571
v -0.259521 -0.206883 -0.247225
v -0.252098 -0.212492 -0.248879
v -0.26312 -0.193413 -0.251087
v -0.255621 -0.199156 -0.252865
v -0.204372 -0.228026 -0.265719
v -0.235545 -0.203042 -0.260957
v -0.227827 -0.209363 -0.262312
v -0.229733 -0.195332 -0.264184
v -0.221801 -0.201791 -0.265102
v -0.250638 -0.165948 -0.261829
v -0.267078 -0.145917 -0.257903
v -0.271633 -0.112664 -0.256328
v -0.278535 -0.0495507 -0.249132
v -0.295717 -0.0869649 -0.245596
v -0.293697 -0.0771285 -0.245534
v -0.291677 -0.067292 -0.245473
v -0.289657 -0.0574556 -0.245411
v -0.304838 -0.0849603 -0.24158
v -0.302765 -0.0751726 -0.241614
v -0.306902 -0.0947389 -0.241476
v -0.313821 -0.0829842 -0.237467
v -0.315938 -0.0927544 -0.237315
v -0.308897 -0.104497 -0.241139
v -0.299681 -0.10654 -0.245199
v -0.297741 -0.0967527 -0.245463
v -0.279241 -0.100767 -0.253104
v -0.282869 -0.120575 -0.252451
v -0.286505 -0.140177 -0.25067
v -0.294073 -0.128233 -0.247987
v -0.297737 -0.147269 -0.245258
v -0.288468 -0.149671 -0.249158
v -0.317598 -0.1523 -0.234824
v -0.312641 -0.12383 -0.239656
f 2 6 81 1
f 3 5 6 2
f 29 4 5 3
f 44 119 46 4
f 46 129 5 4
f 129 9 6 5
f 9 8 81 6
f 10 85 84 7
f 84 93 83 7
f 83 79 80 7
f 80 128 10 7
f 9 12 11 8
f 11 10 128 8
f 128 82 81 8
f 129 14 12 9
f 11 126 85 10
f 12 13 126 11
f 14 125 13 12
f 125 88 124 13
f 124 127 126 13
f 45 15 125 14
f 129 46 45 14
f 16 91 123 15
f 123 88 125 15
f 45 120 16 15
f 17 122 91 16
f 120 121 17 16
f 19 18 122 17
f 121 110 19 17
f 34 26 122 18
f 19 20 23 18
f 110 111 20 19
f 21 24 23 20
f 111 112 21 20
f 22 25 24 21
f 112 113 22 21
f 109 27 25 22
f 113 33 109 22
f 108 91 122 26
f 109 30 28 27
f 109 33 31 30
f 112 111 115 32
f 36 89 90 35
f 107 87 89 36
f 72 71 107 37
f 39 67 68 38
f 68 64 69 38
f 104 102 67 39
f 41 49 52 40
f 52 51 103 40
f 101 50 49 41
f 43 48 47 42
f 47 50 101 42
f 52 54 53 51
f 53 55 66 51
f 66 102 103 51
f 98 65 66 55
f 63 64 99 56
f 99 96 58 56
f 58 57 62 56
f 62 76 63 56
f 95 61 62 57
f 60 61 95 59
f 94 93 60 59
f 77 75 61 60
f 93 84 77 60
f 75 76 62 61
f 70 69 64 63
f 76 92 70 63
f 68 100 99 64
f 67 102 66 65
f 98 97 100 65
f 100 68 67 65
f 70 72 106 69
f 92 71 72 70
f 92 74 73 71
f 73 87 107 71
f 74 86 127 73
f 127 124 87 73
f 92 76 75 74
f 75 77 86 74
f 84 85 86 77
f 82 128 80 78
f 126 127 86 85
f 124 88 89 87
f 123 90 89 88
f 123 91 108 90
f 99 100 97 96
f 104 105 103 102
f 121 116 114 110
f 114 115 111 110
f 116 118 117 114
f 121 120 119 116
f 119 44 118 116
f 120 45 46 119
