# https://github.com/mikedh/trimesh
v -0.31584300 0.17378900 -0.22122600
v -0.31404299 0.18610150 -0.22117300
v -0.33716176 -0.05434525 -0.20690775
v -0.33341800 -0.04119200 -0.20460350
v -0.33152699 -0.03541800 -0.20229501
v -0.32559175 -0.02044350 -0.19826525
v -0.34216775 -0.12092900 -0.21799425
v -0.34222649 -0.07849825 -0.21080225
v -0.34511174 0.04263750 -0.23861975
v -0.31350663 0.03483163 -0.23938300
v -0.35306037 0.05362300 -0.24140288
v -0.30998500 0.02146725 -0.22685600
v -0.32558795 0.16529112 -0.24632531
v -0.32049108 0.17267646 -0.24321119
v -0.32302281 0.17193111 -0.24165658
v -0.31507429 0.18503536 -0.23417475
v -0.33439827 0.15088235 -0.25550661
v -0.31602266 0.17398982 -0.24497601
v -0.33922903 0.15283924 -0.25262910
v -0.31318492 0.17368135 -0.24636679
v -0.29046243 0.17844532 -0.25098995
v -0.31159499 0.18725801 -0.23228800
v -0.27873550 0.18389250 -0.25355399
v -0.29524549 0.18210850 -0.24545250
v -0.29258901 0.18144099 -0.24732099
v -0.29482234 0.16775240 -0.25677011
v -0.28164572 0.17703340 -0.25658080
v -0.30288349 0.18304501 -0.24142650
v -0.28317227 0.16249781 -0.26337284
v -0.29384878 0.15945279 -0.26122014
v -0.30832300 0.18525399 -0.23667900
v -0.27638941 0.17095225 -0.26267496
v -0.29349457 0.15446352 -0.26286000
v -0.27595147 0.17937917 -0.25861811
v -0.32134833 0.14898371 -0.25896880
v -0.26723149 0.16839950 -0.26781900
v -0.26567359 0.19152851 -0.26098887
v -0.26314665 0.17821606 -0.26666835
v -0.26062450 0.17209200 -0.26979999
v -0.33791575 0.14212100 -0.25758374
v -0.34330201 0.14108901 -0.25621900
v -0.26980004 0.18509548 -0.25978942
v -0.29067649 0.14847400 -0.26522300
v -0.29370000 0.14794894 -0.26489262
v -0.28251126 0.14185813 -0.26807575
v -0.27171375 0.19255525 -0.25539301
v -0.25780549 0.18208950 -0.26856775
v -0.34571800 0.13630100 -0.25582099
v -0.25995300 0.19044950 -0.26513650
v -0.31160301 0.18541500 -0.23505200
v -0.34847701 0.13007700 -0.25399300
v -0.26363900 0.19553301 -0.26178500
v -0.34493346 0.14898458 -0.25180166
v -0.34687842 0.14252929 -0.25445798
v -0.32833032 0.16338805 -0.24676891
v -0.35064360 0.09659272 -0.25030033
v -0.32094457 0.17015621 -0.22966765
v -0.31208600 0.18972950 -0.22397801
v -0.32068951 0.17622597 -0.23251553
v -0.31676491 0.18479983 -0.22715930
v -0.25461749 0.05081800 -0.26200500
v -0.24806188 0.08680575 -0.26937575
v -0.25807625 0.02326075 -0.25701874
v -0.34344960 -0.09543352 -0.21719798
v -0.34143567 -0.10741057 -0.22201164
v -0.33466300 -0.05410100 -0.21763299
v -0.33681341 -0.06249653 -0.21814305
v -0.34078300 -0.08919200 -0.22020499
v -0.33715598 -0.05610537 -0.21266396
v -0.33032389 -0.04072912 -0.21865726
v -0.33517343 -0.06522889 -0.22173615
v -0.31463714 -0.00729520 -0.22406285
v -0.32508653 -0.03828379 -0.22432218
v -0.33885467 -0.09079004 -0.22329698
v -0.30736960 0.00541018 -0.22855265
v -0.30956074 0.00233026 -0.22639832
v -0.31601633 -0.02325442 -0.22808697
v -0.33606763 -0.07311901 -0.22326557
v -0.30822825 0.01141008 -0.22615232
v -0.30428871 0.01030140 -0.23198399
v -0.30003937 0.02126562 -0.23923648
v -0.30866044 0.01525094 -0.22534381
v -0.30956789 0.01835150 -0.22524859
v -0.34341895 -0.11084747 -0.21865329
v -0.33922779 -0.13075196 -0.22211406
v -0.33395075 -0.14514900 -0.22355125
v -0.33730200 -0.12661050 -0.22481850
v -0.33095428 -0.10115180 -0.23014034
v -0.33360760 -0.08562812 -0.22729056
v -0.32761461 -0.08029312 -0.23041927
v -0.31358236 -0.04486715 -0.23375586
v -0.32564664 -0.05334638 -0.22759565
v -0.30587689 -0.01686585 -0.23377873
v -0.32248291 -0.08033926 -0.23331346
v -0.32586100 -0.09876000 -0.23203925
v -0.30194800 -0.06355600 -0.24099950
v -0.28927501 -0.03892550 -0.24401799
v -0.29541501 -0.05293500 -0.24276701
v -0.28236150 -0.02258994 -0.24600438
v -0.28827638 -0.01113939 -0.24307908
v -0.29788996 -0.00908132 -0.23762179
v -0.27838900 -0.03018950 -0.24780050
v -0.28519284 -0.00137875 -0.24504867
v -0.28002086 -0.00515314 -0.24734454
v -0.28446525 0.00848681 -0.24652106
v -0.27994510 0.01021552 -0.24897697
v -0.29900587 -0.00245522 -0.23652979
v -0.30689855 -0.00241927 -0.23057203
v -0.30488670 0.00376337 -0.23153430
v -0.29181047 0.00988309 -0.24235370
v -0.29907786 0.00945177 -0.23697208
v -0.33288451 -0.03906163 -0.20695901
v -0.32655529 -0.02162849 -0.20487095
v -0.32392646 -0.01607009 -0.21099953
v -0.33334818 -0.04232180 -0.21079496
v -0.31389809 0.00113558 -0.21989754
v -0.32318923 -0.02024305 -0.21828024
v -0.31858455 -0.00776701 -0.21743497
v -0.34025683 -0.07359219 -0.21655309
v -0.31128236 0.00601661 -0.22156000
v -0.34273599 -0.08214875 -0.21287996
v -0.31171660 0.01103688 -0.21663281
v -0.31235337 0.01171747 -0.20771557
v -0.31314541 0.00917274 -0.20074471
v -0.31179150 0.01536475 -0.20129500
v -0.32507510 -0.01815417 -0.19971999
v -0.31429149 0.00544950 -0.19629400
v -0.31853199 -0.00470000 -0.19361500
v -0.31195307 0.01471542 -0.20858733
v -0.31192411 0.01595146 -0.21240162
v -0.31190682 0.01742669 -0.21566219
v -0.33643432 0.09694615 -0.25657325
v -0.34134773 0.07598420 -0.25198991
v -0.32468799 0.07383700 -0.25476101
v -0.34729495 0.06049234 -0.24725334
v -0.29718911 0.06083913 -0.25646037
v -0.30501519 0.10708818 -0.26345894
v -0.33642840 0.13273409 -0.25929455
v -0.29464193 0.12541942 -0.26632537
v -0.29395706 0.13213323 -0.26644493
v -0.33407528 0.11524427 -0.25921830
v -0.28335797 0.11366966 -0.26773381
v -0.27574387 0.10017799 -0.26780723
v -0.28141747 0.09763731 -0.26633986
v -0.29082043 0.08029606 -0.26193007
v -0.30069399 0.09367000 -0.26235700
v -0.32408227 0.08986995 -0.25805866
v -0.26893685 0.11105240 -0.27046609
v -0.26368660 0.07330753 -0.26587917
v -0.25987559 0.08171235 -0.26804012
v -0.27563942 0.06112288 -0.26128251
v -0.26577657 0.03597047 -0.25829198
v -0.26228082 0.02251752 -0.25656799
v -0.27056489 0.04349349 -0.25864044
v -0.27878004 0.04185062 -0.25620264
v -0.28940948 0.05506606 -0.25675287
v -0.25264400 0.12159650 -0.27509500
v -0.26156537 0.05152765 -0.26202167
v -0.26940705 0.01464040 -0.25380912
v -0.27388329 0.03108372 -0.25523661
v -0.24826600 0.12045400 -0.27575201
v -0.26957653 0.00460133 -0.25230504
v -0.26037076 0.00285725 -0.25410151
v -0.27764346 0.03018025 -0.25380949
v -0.26414285 0.00397129 -0.25368980
v -0.34289899 0.08784000 -0.25339401
v -0.34624466 0.07978472 -0.25111775
v -0.24608900 0.11627300 -0.27538899
v -0.26260501 -0.01387000 -0.25257799
v -0.26599575 -0.02216425 -0.25172900
v -0.26524997 -0.01098947 -0.25215246
v -0.34239927 0.05276371 -0.24543614
v -0.31370688 0.05860264 -0.25258462
v -0.28195142 0.02767470 -0.25162461
v -0.25667401 0.06429435 -0.26512638
v -0.26820458 -0.01336295 -0.25130242
v -0.27337406 0.00031319 -0.25046002
v -0.34061673 0.11201882 -0.25740416
v -0.34391482 0.12620122 -0.25712226
v -0.27197400 -0.00591400 -0.25051999
v -0.28864751 0.04002147 -0.25266457
v -0.29267362 0.03659118 -0.25016908
v -0.32037071 0.05552510 -0.25019667
v -0.35001638 0.04913946 -0.24242829
v -0.25945801 0.01112000 -0.25522500
v -0.29877839 0.03977287 -0.24918388
v -0.34436318 0.11965904 -0.25654665
v -0.25730403 0.03644206 -0.25933548
v -0.28605784 0.02011516 -0.24795879
v -0.29140379 0.02501828 -0.24649829
v -0.29504791 0.02845190 -0.24582920
v -0.34166424 0.13847953 -0.25754633
v -0.29343618 0.14216732 -0.26567666
v -0.35186708 0.05720303 -0.24445364
v -0.29710396 0.03201885 -0.24627020
v -0.34841816 0.09105859 -0.25164938
v -0.34699589 0.12213525 -0.25540066
v -0.30877279 0.03890796 -0.24477203
v -0.30562969 0.01756924 -0.23164768
v -0.31740472 0.04195774 -0.24350178
f 56 194 11
f 196 194 56
f 196 167 194
f 196 178 167
f 197 178 196
f 187 178 197
f 187 197 179
f 192 179 197
f 192 197 48
f 48 197 51
f 51 197 56
f 54 48 51
f 54 41 48
f 40 41 54
f 17 40 54
f 19 17 54
f 19 54 53
f 17 19 55
f 13 17 55
f 15 13 55
f 14 13 15
f 14 17 13
f 14 18 17
f 20 17 18
f 16 20 18
f 16 21 20
f 28 21 16
f 28 24 21
f 25 21 24
f 25 34 21
f 23 34 25
f 37 34 23
f 46 37 23
f 52 37 46
f 52 49 37
f 47 37 49
f 47 38 37
f 47 39 38
f 38 39 36
f 38 36 32
f 38 32 34
f 42 38 34
f 34 32 27
f 27 32 26
f 26 32 29
f 29 30 26
f 29 33 30
f 29 36 33
f 33 36 44
f 33 44 35
f 35 44 40
f 26 33 35
f 26 35 17
f 21 26 17
f 27 26 21
f 36 29 32
f 38 42 37
f 34 27 21
f 31 28 16
f 50 31 16
f 22 50 16
f 58 22 16
f 58 16 60
f 58 60 2
f 60 59 2
f 59 60 15
f 59 15 57
f 2 59 57
f 2 57 1
f 60 16 15
f 16 18 15
f 21 17 20
f 35 40 17
f 192 138 179
f 193 138 192
f 43 193 192
f 45 193 43
f 45 140 193
f 45 157 140
f 157 142 140
f 157 148 142
f 157 168 148
f 161 168 157
f 168 143 148
f 168 150 143
f 168 175 150
f 62 175 168
f 62 61 175
f 61 188 175
f 175 188 153
f 188 63 153
f 63 185 153
f 185 163 153
f 163 165 153
f 165 163 171
f 171 176 165
f 171 170 176
f 176 170 99
f 176 99 180
f 176 180 177
f 177 180 99
f 177 99 104
f 177 104 106
f 159 177 106
f 159 162 177
f 165 177 162
f 159 165 162
f 160 159 106
f 152 159 160
f 154 152 160
f 154 160 164
f 154 164 155
f 155 164 181
f 164 174 181
f 174 189 181
f 181 189 190
f 190 189 81
f 190 81 191
f 189 110 81
f 110 189 105
f 106 105 189
f 164 106 189
f 105 106 107
f 106 103 107
f 103 101 107
f 107 101 91
f 107 91 93
f 107 93 108
f 109 107 108
f 76 109 108
f 75 109 76
f 79 109 75
f 82 109 79
f 79 131 82
f 82 131 83
f 12 83 131
f 199 83 12
f 83 199 80
f 199 111 80
f 81 111 199
f 191 81 199
f 80 111 109
f 83 80 109
f 199 12 10
f 82 83 109
f 79 75 131
f 131 75 76
f 131 76 122
f 122 130 131
f 131 130 129
f 125 131 129
f 125 129 124
f 129 123 124
f 129 122 123
f 123 122 124
f 124 122 126
f 124 126 6
f 126 112 6
f 126 113 112
f 114 113 126
f 114 112 113
f 112 114 115
f 114 70 115
f 115 70 69
f 70 66 69
f 70 67 66
f 70 71 67
f 70 78 71
f 70 73 78
f 77 78 73
f 77 92 78
f 92 89 78
f 91 89 92
f 91 90 89
f 91 94 90
f 90 94 89
f 94 88 89
f 95 88 94
f 89 88 65
f 74 89 65
f 64 74 65
f 64 68 74
f 74 68 119
f 71 74 119
f 78 74 71
f 119 68 64
f 119 64 121
f 8 119 121
f 69 119 8
f 67 119 69
f 69 8 3
f 112 69 3
f 4 112 3
f 5 112 4
f 65 84 64
f 84 65 7
f 65 85 7
f 87 85 65
f 87 86 85
f 95 87 65
f 74 78 89
f 77 108 92
f 72 77 73
f 76 77 72
f 116 76 72
f 120 76 116
f 122 120 116
f 122 116 114
f 116 118 114
f 118 116 117
f 114 118 117
f 122 76 120
f 72 117 116
f 72 70 117
f 72 73 70
f 71 119 67
f 66 67 69
f 117 70 114
f 112 115 69
f 6 112 5
f 128 124 6
f 128 127 124
f 126 122 114
f 127 125 124
f 130 122 129
f 76 108 77
f 111 107 109
f 110 107 111
f 108 93 92
f 93 91 92
f 99 91 101
f 100 99 101
f 97 91 99
f 99 102 97
f 97 98 91
f 98 96 91
f 96 95 91
f 103 100 101
f 103 104 100
f 110 105 107
f 81 110 111
f 181 190 191
f 182 181 191
f 182 191 186
f 191 195 186
f 195 191 198
f 191 199 198
f 199 10 198
f 10 200 198
f 198 200 172
f 200 10 9
f 9 184 200
f 172 200 184
f 135 172 184
f 135 184 194
f 183 172 135
f 183 198 172
f 173 198 183
f 173 186 198
f 173 181 186
f 136 181 173
f 156 181 136
f 136 151 156
f 151 155 156
f 145 151 136
f 149 151 145
f 175 151 149
f 158 151 175
f 158 152 151
f 153 152 158
f 150 149 145
f 144 150 145
f 145 137 144
f 137 145 146
f 145 147 146
f 146 147 137
f 137 147 141
f 147 132 141
f 147 133 132
f 147 135 133
f 134 135 147
f 147 173 134
f 134 173 135
f 133 135 167
f 132 133 167
f 167 166 132
f 178 132 166
f 141 132 178
f 138 141 178
f 139 141 138
f 140 139 138
f 139 137 141
f 142 137 139
f 137 142 143
f 143 144 137
f 145 136 147
f 147 136 173
f 135 173 183
f 186 195 198
f 182 186 181
f 174 164 189
f 155 181 156
f 154 155 151
f 151 152 154
f 152 153 159
f 160 106 164
f 106 104 103
f 99 100 104
f 170 102 99
f 169 170 171
f 165 176 177
f 163 169 171
f 153 165 159
f 175 153 158
f 61 63 188
f 150 175 149
f 143 150 144
f 148 143 142
f 140 142 139
f 43 192 40
f 140 138 193
f 138 178 179
f 179 178 187
f 178 166 167
f 167 135 194
f 197 196 56
f 184 11 194

