# https://github.com/mikedh/trimesh
v -0.14303200 -0.24976200 -0.26934800
v -0.11785650 -0.25181450 -0.25311400
v -0.06447137 -0.25928000 -0.23772775
v -0.09093125 -0.25584301 -0.24002925
v 0.00053900 -0.26131001 -0.22257900
v -0.00654600 -0.26112700 -0.22212600
v 0.03447125 -0.25786525 -0.21618400
v 0.05068150 -0.25106500 -0.20502750
v -0.02219300 -0.26126949 -0.22580550
v 0.07414650 -0.24186975 -0.19854375
v 0.11528775 -0.21859375 -0.19383975
v 0.09494775 -0.23169500 -0.19593575
v -0.13317250 -0.24911900 -0.26295449
v 0.02080150 -0.26026801 -0.22020300
v -0.17375278 -0.24216372 -0.26906728
v -0.16191601 -0.26402801 -0.26688000
v 0.12651670 -0.23719332 -0.26876465
v 0.12890901 -0.23384400 -0.25638700
v 0.14652922 -0.22717711 -0.27159136
v 0.14664082 -0.22159579 -0.24733959
v 0.16176170 -0.21150781 -0.24916464
v 0.16216614 -0.20819272 -0.24108521
v 0.15388486 -0.21560494 -0.24407980
v 0.17460700 -0.20405494 -0.25666530
v 0.18092617 -0.20199986 -0.26568116
v 0.16302440 -0.21688386 -0.27059442
v 0.13726389 -0.22906783 -0.25505678
v 0.12187923 -0.23521672 -0.24402208
v 0.11025949 -0.23803663 -0.23159260
v 0.10187318 -0.24112436 -0.22753846
v 0.10736850 -0.24368340 -0.24997456
v 0.10471913 -0.24513083 -0.25238533
v 0.09069384 -0.25024092 -0.24711006
v 0.08972607 -0.25237528 -0.26503835
v 0.09770824 -0.24564202 -0.23728692
v 0.08062650 -0.25364011 -0.24487856
v 0.13991766 -0.22489839 -0.24418493
v 0.16868856 -0.21446572 -0.27586654
v 0.07473456 -0.25639648 -0.25444247
v 0.17327140 -0.21181433 -0.27744449
v 0.13364194 -0.23401272 -0.27074372
v 0.14387884 -0.22043501 -0.23795346
v 0.12913295 -0.22735677 -0.23066818
v 0.15797707 -0.22170139 -0.27566562
v 0.11902877 -0.24055095 -0.26743237
v 0.09948048 -0.24912936 -0.26806140
v 0.11955627 -0.23016723 -0.22277753
v 0.09425378 -0.24178297 -0.21865866
v 0.09417800 -0.23689701 -0.20638099
v 0.12638770 -0.22345794 -0.21677210
v 0.12013918 -0.22057365 -0.20249468
v 0.13450128 -0.21983362 -0.22050171
v 0.14386080 -0.21472768 -0.22414586
v 0.13959319 -0.21375080 -0.21611738
v 0.10785402 -0.23348949 -0.21453503
v 0.11545887 -0.22741903 -0.21043367
v 0.15085912 -0.21329853 -0.23259152
v 0.09937431 -0.23421252 -0.20577423
v 0.08900844 -0.23726055 -0.20148648
v 0.08527115 -0.24254743 -0.21030226
v 0.07473257 -0.24595280 -0.20877644
v 0.08986311 -0.24411785 -0.22016773
v 0.08317242 -0.24983546 -0.23031570
v 0.08316404 -0.24676621 -0.21989144
v 0.13559633 -0.23441013 -0.27383074
v 0.10957760 -0.24603872 -0.27131760
v 0.08779959 -0.25413886 -0.26967535
v 0.05577493 -0.25671342 -0.22523157
v 0.06318543 -0.25726712 -0.23537727
v 0.06841091 -0.25408584 -0.22790407
v 0.07979130 -0.25312426 -0.24043977
v 0.06860061 -0.25697060 -0.24306386
v 0.07318035 -0.25150776 -0.22360084
v 0.05549682 -0.25426082 -0.21664139
v 0.06614499 -0.25238686 -0.21917108
v 0.18644168 -0.20201365 -0.28032697
v 0.17018339 -0.21458022 -0.27881128
v 0.07533354 -0.25738609 -0.26790704
v 0.18128589 -0.19929695 -0.25907684
v 0.17889500 -0.20927800 -0.28220499
v 0.07936626 -0.25573495 -0.26517366
v 0.06179625 -0.25097736 -0.21166133
v 0.04518400 -0.25439000 -0.21080001
v 0.05066192 -0.25494750 -0.21527785
v 0.06169925 -0.25902113 -0.24706961
v 0.07020156 -0.25805908 -0.26296287
v 0.05614559 -0.26101942 -0.26612196
v 0.05854300 -0.25990400 -0.25041199
v 0.05386461 -0.26046663 -0.24484598
v 0.03794128 -0.26141941 -0.23241670
v 0.03802440 -0.25809111 -0.21824494
v 0.05118539 -0.25849962 -0.22911914
v 0.06374108 -0.25993047 -0.26732827
v 0.03701489 -0.26005925 -0.22559128
v 0.04912315 -0.26054644 -0.23889589
v 0.11005634 -0.22484428 -0.19846086
v 0.11551570 -0.22029870 -0.19665505
v 0.19414925 -0.19391532 -0.27689906
v 0.18216100 -0.20689601 -0.28297499
v 0.14533575 -0.23034125 -0.27680849
v 0.18829187 -0.19408512 -0.26328462
v 0.16922100 -0.20225801 -0.24155800
v 0.16744199 -0.20231700 -0.23841999
v 0.16481000 -0.21921900 -0.27981800
v 0.14845775 -0.20963237 -0.22176962
v 0.11476644 -0.24360630 -0.27134766
v 0.12661700 -0.21589300 -0.20252900
v 0.19172249 -0.19784700 -0.28219399
v 0.19948000 -0.18918200 -0.27840799
v 0.04288123 -0.26317350 -0.26869179
v 0.06815010 -0.25969319 -0.26945433
v 0.04888063 -0.26399941 -0.27137728
v 0.02682712 -0.26134258 -0.22649586
v 0.07498868 -0.25909412 -0.27095272
v 0.03910985 -0.26237898 -0.24300763
v 0.03880187 -0.26277686 -0.25031586
v 0.05440792 -0.26100893 -0.26152567
v 0.04479800 -0.26159301 -0.24273799
v 0.02876837 -0.26240496 -0.23363089
v 0.04640800 -0.26233700 -0.26683399
v 0.02125315 -0.26387702 -0.24350137
v 0.00024265 -0.26294442 -0.23197267
v -0.00851400 -0.26256001 -0.23063500
v -0.02950090 -0.26192523 -0.23224876
v -0.02233699 -0.26288291 -0.23660004
v -0.06414745 -0.26049329 -0.25025227
v -0.08470308 -0.25766327 -0.24769954
v -0.11324394 -0.25382068 -0.26185749
v -0.11581085 -0.25351728 -0.26392396
v -0.07631537 -0.25916444 -0.25362757
v -0.05270660 -0.26112985 -0.24141968
v -0.04801112 -0.26235550 -0.26325607
v -0.02664273 -0.26340195 -0.24857839
v -0.02470358 -0.26361625 -0.26473452
v -0.01145717 -0.26409786 -0.25356889
v -0.00863090 -0.26410597 -0.24889690
v 0.00232448 -0.26425857 -0.25861052
v 0.00519569 -0.26423033 -0.26518424
v 0.00726818 -0.26418695 -0.24551214
v 0.01614542 -0.26412447 -0.26431979
v -0.00384000 -0.26402900 -0.24447601
v 0.02973778 -0.26348708 -0.26388629
v 0.03735952 -0.26298747 -0.26519771
v 0.04456776 -0.26228631 -0.26424336
v 0.02595391 -0.26376635 -0.25016324
v -0.02262602 -0.26343071 -0.24275003
v 0.00255295 -0.26359382 -0.23693908
v 0.01217213 -0.26244228 -0.22942636
v 0.01868934 -0.26227249 -0.22927076
v -0.00504591 -0.26444393 -0.26784462
v 0.01818720 -0.26465044 -0.26928664
v -0.03502746 -0.26365149 -0.26905677
v -0.05179334 -0.26237943 -0.26765015
v 0.02396503 -0.26474769 -0.26992349
v -0.09905420 -0.25665422 -0.26365211
v -0.07482308 -0.26033470 -0.26752754
v 0.01753016 -0.26588609 -0.27172335
v -0.08712720 -0.25860731 -0.26570269
v -0.10650901 -0.25642457 -0.26823962
v -0.05992202 -0.26296304 -0.27107169
v -0.02340812 -0.26545874 -0.27191101
v -0.06746266 -0.26116645 -0.26861856
v -0.12753226 -0.25083149 -0.26386722
v -0.11814850 -0.25401981 -0.26722676
v -0.09478395 -0.25839859 -0.26862247
v -0.12667582 -0.25273371 -0.26801007
v -0.08867526 -0.26032536 -0.27078885
v 0.12566400 -0.24024899 -0.27475700
v 0.10500875 -0.24917275 -0.27315550
v 0.09047350 -0.25544400 -0.27291801
v -0.00130675 -0.26702512 -0.27343713
v -0.07853850 -0.26325999 -0.27291701
v 0.07918125 -0.25925375 -0.27277500
v -0.09103550 -0.26105250 -0.27192250
v -0.05727050 -0.26450050 -0.27285050
v -0.06267400 -0.26412201 -0.27276900
v -0.00817800 -0.26730600 -0.27373901
v 0.04686825 -0.26515475 -0.27277125
v -0.14149775 -0.24858000 -0.26741875
v 0.03778850 -0.26616551 -0.27299549
v -0.10545000 -0.25853699 -0.27097899
v 0.05747200 -0.26436099 -0.27296001
v -0.01970100 -0.26692100 -0.27365850
v -0.04200100 -0.26605099 -0.27362299
v -0.04693400 -0.26546499 -0.27327749
v 0.15679505 -0.27110811 -0.25725331
v 0.12254449 -0.28657076 -0.24929547
v 0.16555429 -0.26934485 -0.25475939
v 0.10582630 -0.29177641 -0.24868197
v 0.15947710 -0.27469994 -0.24845336
v 0.21434564 -0.24982943 -0.25054022
v 0.18594798 -0.26366349 -0.24840355
v 0.21343392 -0.25338594 -0.24197843
v 0.19287294 -0.26410437 -0.23846683
v 0.22528563 -0.25247900 -0.22543114
v 0.21460931 -0.25677037 -0.22557007
v 0.22006798 -0.25768134 -0.20720128
v 0.19822027 -0.26460878 -0.22513222
v 0.23463785 -0.25573681 -0.18852301
v 0.22723756 -0.25402607 -0.21188774
v 0.22887602 -0.25590909 -0.19735409
v 0.19121359 -0.27155899 -0.20551647
v 0.20862911 -0.26263639 -0.20858079
v 0.16018384 -0.28785508 -0.19478275
v 0.18498945 -0.27697320 -0.19495737
v 0.22384348 -0.26064305 -0.18979648
v 0.19998318 -0.26834226 -0.20131312
v 0.13448890 -0.30088402 -0.18358922
v 0.15326714 -0.29304097 -0.18665407
v 0.11778235 -0.30494489 -0.18796586
v 0.13504825 -0.29857697 -0.19010056
v 0.15197321 -0.29107094 -0.19518899
v 0.23133467 -0.25904363 -0.18303395
v 0.19754668 -0.27465644 -0.18671812
v 0.22163799 -0.26463699 -0.18263300
v 0.22448828 -0.24391684 -0.25329902
v 0.21969735 -0.24283818 -0.25881112
v 0.16768001 -0.28769484 -0.18553843
v 0.22497564 -0.25087550 -0.23416864
v 0.21380431 -0.27096375 -0.17758037
v 0.23241701 -0.25409499 -0.20436950
v 0.18761110 -0.28176274 -0.18097434
v 0.23914125 -0.25526349 -0.18358000
v 0.20112138 -0.27896748 -0.17525777
v 0.22830288 -0.26535276 -0.17205085
v 0.15570199 -0.29619291 -0.17706116
v 0.21922266 -0.27626970 -0.16237932
v 0.22734600 -0.24610500 -0.24702699
v 0.18777498 -0.28488366 -0.17559109
v 0.18645708 -0.25705182 -0.26109155
v 0.21055575 -0.24366399 -0.26413100
v 0.19795846 -0.28545522 -0.16817948
v 0.23062401 -0.23559199 -0.26194701
v 0.23320300 -0.23455350 -0.26190651
v 0.24104806 -0.25464875 -0.17540097
v 0.20979093 -0.28401868 -0.16089137
v 0.22757498 -0.27234529 -0.15610227
v 0.15745517 -0.26667715 -0.26298779
v 0.13909221 -0.30604134 -0.16884080
v 0.18733500 -0.25196125 -0.26682850
v 0.21965976 -0.28008144 -0.15447164
v 0.23706840 -0.26099637 -0.16624454
v 0.13283851 -0.31158633 -0.16320978
v 0.19826769 -0.29308233 -0.15881058
v 0.16413453 -0.29806407 -0.16909696
v 0.22665739 -0.24770711 -0.24353322
v 0.17162122 -0.29755550 -0.16650331
v 0.24839540 -0.24969871 -0.16786859
v 0.20343783 -0.29546659 -0.15308643
v 0.22689700 -0.27359700 -0.15111899
v 0.25342783 -0.24061612 -0.17714364
v 0.25856024 -0.23668757 -0.17281852
v 0.23930638 -0.26040212 -0.15896387
v 0.26571924 -0.22819049 -0.17383201
v 0.21237747 -0.28769489 -0.15349705
v 0.15275100 -0.26594099 -0.26548100
v 0.18348126 -0.25350100 -0.26703025
v 0.18709618 -0.29326766 -0.16417198
v 0.17246397 -0.30496595 -0.15806708
v 0.12556299 -0.27564201 -0.26414630
v 0.10970875 -0.27761438 -0.26639050
v 0.15130202 -0.30971531 -0.15963033
v 0.23380676 -0.23738475 -0.25877824
v 0.09963898 -0.28364105 -0.26348189
v 0.07467803 -0.28983119 -0.26307093
v 0.13969500 -0.26965819 -0.26575494
v 0.05466717 -0.29059302 -0.26630814
v 0.10305800 -0.27970701 -0.26616176
v -0.00166379 -0.30168772 -0.26199924
v 0.01931857 -0.29971331 -0.26236240
v 0.02032700 -0.29544150 -0.26616600
v 0.02866000 -0.29414600 -0.26646799
v -0.02376157 -0.29974666 -0.26453298
v -0.00792636 -0.29832176 -0.26570976
v -0.00881787 -0.29595763 -0.26722075
v -0.01398150 -0.29654200 -0.26716049
v -0.00042900 -0.29639301 -0.26688099
v -0.06813505 -0.30301395 -0.25834317
v -0.05481298 -0.29790077 -0.26498360
v 0.23236672 -0.23951563 -0.25670774
v -0.07266051 -0.29734970 -0.26373615
v -0.08453500 -0.29229599 -0.26645601
v -0.11018200 -0.28840850 -0.26523800
v -0.12879800 -0.28381101 -0.26455599
v -0.14029901 -0.28071901 -0.26364899
v -0.15100450 -0.27732050 -0.26268400
v 0.10960120 -0.28652317 -0.25612312
v 0.12711908 -0.27941936 -0.25909692
v 0.08376695 -0.29405429 -0.25493875
v 0.08546602 -0.29720909 -0.24831166
v 0.06608389 -0.30209396 -0.24771017
v 0.08094475 -0.30159641 -0.24063854
v 0.11442074 -0.29324336 -0.23835086
v 0.13605100 -0.29033801 -0.22393499
v 0.18053881 -0.27309105 -0.22347047
v 0.18760364 -0.26746096 -0.23460586
v 0.15559416 -0.27978883 -0.23755069
v 0.16069107 -0.28009078 -0.22866629
v 0.17462385 -0.27291746 -0.23522030
v 0.17410608 -0.28009172 -0.20118749
v 0.14666953 -0.28849751 -0.21498614
v 0.12349535 -0.30013790 -0.19932809
v 0.10284813 -0.30359466 -0.21358086
v 0.11700079 -0.29708511 -0.22378372
v 0.10224106 -0.29812690 -0.23576458
v 0.07795882 -0.30897136 -0.21940132
v 0.07462561 -0.30745904 -0.22835594
v 0.08877684 -0.30372451 -0.22893677
v 0.08585732 -0.30235753 -0.23528918
v 0.06764781 -0.30602174 -0.23751325
v 0.04708823 -0.31034637 -0.23671039
v 0.05680458 -0.31118940 -0.22852626
v 0.03404857 -0.31116697 -0.24105436
v 0.06430290 -0.31300847 -0.21471192
v 0.07144837 -0.31172586 -0.21323353
v 0.10647436 -0.30797015 -0.18952495
v 0.05708819 -0.31330865 -0.22042893
v 0.03628299 -0.31591945 -0.22328984
v 0.05629431 -0.31531865 -0.20994817
v 0.01245034 -0.31739063 -0.22741150
v 0.05903871 -0.31895513 -0.18478476
v 0.07207297 -0.31496086 -0.19511264
v 0.08814045 -0.31234901 -0.19149129
v 0.11843739 -0.29413168 -0.23238693
v 0.12909516 -0.28671713 -0.24371212
v 0.04252336 -0.30987499 -0.23986994
v 0.02373591 -0.30955179 -0.24720316
v 0.04516844 -0.30634019 -0.24741379
v 0.00547160 -0.31516951 -0.23703681
v -0.01252374 -0.31436646 -0.24197143
v 0.08298800 -0.31686124 -0.17721156
v 0.06462780 -0.31844897 -0.18325689
v 0.06966247 -0.31980912 -0.17418790
v 0.08835455 -0.31449494 -0.18266771
v 0.10455556 -0.31151062 -0.17933624
v 0.09324319 -0.31552711 -0.17496618
v 0.10576449 -0.31348298 -0.17299020
v 0.11265445 -0.31178364 -0.17287670
v 0.08276509 -0.31954888 -0.16895471
v 0.11786996 -0.30978697 -0.17416861
v 0.00394268 -0.31068620 -0.24847536
v 0.07465280 -0.32151818 -0.16677701
v 0.05887086 -0.30212585 -0.25060466
v 0.11001803 -0.31541753 -0.16673199
v -0.02209832 -0.31177747 -0.24789372
v -0.03727796 -0.30889272 -0.25259536
v 0.00505720 -0.30717205 -0.25411773
v 0.02704600 -0.30604801 -0.25259301
v 0.05457375 -0.30088102 -0.25407118
v -0.00824372 -0.30721225 -0.25516203
v 0.11193864 -0.31771036 -0.16188168
v 0.03941685 -0.30230790 -0.25584159
v -0.00794885 -0.30445915 -0.25901481
v -0.04450798 -0.30709049 -0.25500154
v 0.02247332 -0.30319895 -0.25790040
v -0.03607728 -0.30476648 -0.25877259
v -0.02723225 -0.30326207 -0.26076967
v 0.05467582 -0.29836116 -0.25760119
v 0.07077601 -0.29366278 -0.25970369
v 0.04608286 -0.29544876 -0.26305229
v -0.05271067 -0.30200556 -0.26109864
v 0.23019775 -0.16574000 -0.30067249
v 0.15780869 -0.22451983 -0.27984426
v 0.18364900 -0.21083950 -0.28751949
v 0.24274100 -0.13883799 -0.30328700
v 0.24983201 -0.10661575 -0.30434926
v 0.24117500 -0.14510600 -0.30324750
v 0.20058100 -0.19737799 -0.29223999
v 0.24574150 -0.13051900 -0.30412876
v 0.20553700 -0.19320775 -0.29375201
v 0.22048112 -0.17742874 -0.29786676
v 0.25047687 -0.07661625 -0.30270837
v 0.19507651 -0.20239100 -0.29067999
v 0.15346650 -0.22881874 -0.28057625
v 0.13919650 -0.23569875 -0.27795874
v 0.11935076 -0.24456050 -0.27561125
v 0.10076025 -0.25239150 -0.27423175
v 0.32953366 -0.26629369 -0.26041347
v 0.32166300 -0.24675849 -0.25305449
v 0.32048601 -0.24177399 -0.24770901
v 0.31688001 -0.23619001 -0.24367000
v 0.31529401 -0.23385750 -0.24085350
v 0.32856500 -0.27112851 -0.26432450
v 0.31027901 -0.22749200 -0.23341200
v 0.30743149 -0.22344825 -0.22983975
v 0.30538400 -0.21825351 -0.22626226
v 0.32806329 -0.28082413 -0.26857350
v 0.26216844 -0.23987941 -0.26282919
v 0.29153924 -0.27743252 -0.27290675
v 0.28386610 -0.26851214 -0.27064481
v 0.27816862 -0.27878775 -0.27259843
v 0.25870403 -0.25080009 -0.26526295
v 0.26734910 -0.27576406 -0.27102996
v 0.28496141 -0.28993752 -0.27473410
v 0.25665546 -0.23821571 -0.26249382
v 0.25267889 -0.24477543 -0.26319012
v 0.26076201 -0.23478401 -0.26174200
v 0.25547345 -0.26740896 -0.26806792
v 0.24630869 -0.27053266 -0.26750018
v 0.24882186 -0.24275975 -0.26224046
v 0.23964599 -0.27490857 -0.26750559
v 0.28023671 -0.29131995 -0.27434006
v 0.24391517 -0.28150524 -0.26849453
v 0.25200900 -0.23560201 -0.26197299
v 0.26463706 -0.28474389 -0.27183978
v 0.24844882 -0.25835774 -0.26488347
v 0.24617450 -0.23816192 -0.26135927
v 0.27709774 -0.24696450 -0.26415229
v 0.29300864 -0.26168273 -0.26852480
v 0.30706428 -0.27752303 -0.27221275
v 0.30594624 -0.26444303 -0.26823236
v 0.29529880 -0.27139360 -0.27127407
v 0.27906059 -0.25115480 -0.26546949
v 0.31569524 -0.28278594 -0.27262403
v 0.28243496 -0.24190393 -0.26155121
v 0.26482166 -0.23337730 -0.26095734
v 0.29588116 -0.25675656 -0.26637914
v 0.31375767 -0.26992399 -0.26912698
v 0.25866044 -0.23002316 -0.26152468
v 0.32330711 -0.28104147 -0.27039648
v 0.25385299 -0.22857200 -0.26203901
v 0.25749850 -0.22741950 -0.26132150
v 0.25131699 -0.22949401 -0.26224300
v 0.24812725 -0.23363225 -0.26170300
v 0.26573251 -0.22384650 -0.25914500
v 0.31815230 -0.26677513 -0.26711148
v 0.27341739 -0.22813993 -0.25758208
v 0.28445601 -0.23364300 -0.25714999
v 0.24388104 -0.25922236 -0.26345334
v 0.30615436 -0.25524076 -0.26436094
v 0.24204787 -0.24554468 -0.25981765
v 0.31759380 -0.25969252 -0.26393666
v 0.29624488 -0.24099975 -0.25874699
v 0.27040000 -0.22096550 -0.25719750
v 0.27827451 -0.22121400 -0.25344799
v 0.31024045 -0.25032359 -0.26104399
v 0.28848475 -0.23398341 -0.25631298
v 0.27062298 -0.22548065 -0.25779268
v 0.31483960 -0.25074240 -0.25983300
v 0.28081345 -0.22602706 -0.25419930
v 0.30992133 -0.24301431 -0.25607392
v 0.28034900 -0.22013849 -0.25194951
v 0.28670684 -0.22651013 -0.25202576
v 0.28857000 -0.22180300 -0.24766200
v 0.32154635 -0.25657423 -0.26070795
v 0.30286447 -0.23410640 -0.25092523
v 0.29388632 -0.23174642 -0.25280993
v 0.32413866 -0.26208446 -0.26313593
v 0.31661081 -0.24087747 -0.25158367
v 0.29591817 -0.22682668 -0.24714278
v 0.29760799 -0.22487399 -0.24403500
v 0.32485575 -0.25437025 -0.25653849
v 0.30350500 -0.22605000 -0.24088500
v 0.29847900 -0.22309400 -0.24163350
v 0.31422150 -0.23569575 -0.24651600
v 0.31275150 -0.23329300 -0.24435300
v 0.30505300 -0.18973801 -0.22673699
v 0.30387808 -0.19398696 -0.22667859
v 0.30265941 -0.20057867 -0.22682373
v 0.29990183 -0.20680207 -0.23105883
v 0.29731186 -0.20260787 -0.23486623
v 0.29568950 -0.20995821 -0.23636777
v 0.29153039 -0.20656122 -0.24122167
v 0.30176974 -0.19746827 -0.22961099
v 0.28146583 -0.21262087 -0.25018293
v 0.27194706 -0.21273148 -0.25782365
v 0.28395634 -0.21006424 -0.24820676
v 0.28975451 -0.20277284 -0.24477295
v 0.28113817 -0.20557090 -0.25333887
v 0.26031544 -0.21959262 -0.26252959
v 0.30473000 -0.18825001 -0.23133700
v 0.28518108 -0.21577341 -0.24740518
v 0.29850666 -0.21299862 -0.23391016
v 0.27701995 -0.21774080 -0.25353394
v 0.28823361 -0.21762706 -0.24555292
v 0.30018838 -0.21559110 -0.23248637
v 0.30433899 -0.21220650 -0.22304000
v 0.29481614 -0.21724927 -0.23950716
v 0.30381022 -0.20452335 -0.22329492
v 0.30046314 -0.21888924 -0.23489712
v 0.30488701 -0.19399800 -0.22200250
v 0.30497892 -0.21949539 -0.22915606
v 0.30650336 -0.22309164 -0.23260457
v 0.30874792 -0.22639697 -0.23613175
v -0.15124869 -0.25149497 -0.27094794
v -0.14179100 -0.25530899 -0.27156800
v -0.12818359 -0.26167477 -0.27270440
v -0.11668054 -0.26284201 -0.27328565
v -0.04274112 -0.27360712 -0.27625533
v -0.06555511 -0.27051329 -0.27564073
v -0.02797058 -0.27200057 -0.27624673
v -0.15904585 -0.24825891 -0.27047006
v -0.07799643 -0.26774173 -0.27504267
v -0.04776977 -0.27028504 -0.27585550
v 0.01195738 -0.27267536 -0.27598134
v -0.08093613 -0.26489795 -0.27415808
v -0.00107400 -0.27035600 -0.27548599
v -0.13795636 -0.25448262 -0.27144221
v -0.02096453 -0.26992088 -0.27556684
v 0.03312600 -0.26960000 -0.27485600
v 0.01713500 -0.26960000 -0.27492800
v 0.04176613 -0.27116067 -0.27517931
v -0.00821900 -0.26960000 -0.27524099
v 0.04444174 -0.26736974 -0.27404071
v 0.06865825 -0.26365043 -0.27375177
v 0.07127872 -0.26709537 -0.27463478
v -0.04745110 -0.27498773 -0.27621013
v 0.10008046 -0.25674084 -0.27565255
v 0.06038264 -0.27050952 -0.27479106
v -0.16588011 -0.24651305 -0.26996663
v -0.00394348 -0.27566150 -0.27638804
v 0.11495571 -0.25124899 -0.27681065
v 0.10794332 -0.25694820 -0.27631217
v 0.07407866 -0.26949140 -0.27461269
v -0.08781700 -0.27264934 -0.27463834
v -0.16359602 -0.25210917 -0.27001857
v 0.08933238 -0.26381352 -0.27517329
v 0.03079092 -0.27707753 -0.27521116
v -0.14177929 -0.26001780 -0.27179758
v 0.00332849 -0.27721410 -0.27607809
v -0.12286380 -0.26510381 -0.27305076
v -0.04072916 -0.26899716 -0.27539563
v -0.06532976 -0.26612328 -0.27439504
v -0.01146144 -0.26880392 -0.27488143
v -0.10666677 -0.26217865 -0.27333682
v 0.16020992 -0.22790636 -0.28263562
v 0.08668530 -0.25840002 -0.27384126
v 0.06124960 -0.26551713 -0.27397625
v 0.18018360 -0.21507409 -0.28700934
v 0.12461759 -0.24428487 -0.27703791
v -0.03115300 -0.26805100 -0.27476999
v 0.02153567 -0.26790383 -0.27399572
v -0.02711581 -0.26745134 -0.27428009
v -0.11028675 -0.26031931 -0.27269522
v -0.05464084 -0.26576909 -0.27383856
v -0.12153258 -0.25727411 -0.27168253
v -0.14532918 -0.25113261 -0.27068759
v 0.13548213 -0.24172245 -0.27878111
v 0.13325558 -0.24667618 -0.27856673
v 0.16779347 -0.22735675 -0.28432317
v 0.15968797 -0.23277114 -0.28283384
v 0.16927916 -0.22405836 -0.28468426
v 0.14705662 -0.23794306 -0.28068629
v 0.17294914 -0.22489991 -0.28538083
v 0.19096520 -0.21487966 -0.28931275
v 0.15243523 -0.23813478 -0.28129028
v 0.21218314 -0.19414719 -0.29572800
v 0.22202068 -0.18423655 -0.29855583
v 0.22557810 -0.18342170 -0.29907491
v 0.17601265 -0.22741289 -0.28521443
v 0.24028300 -0.16226800 -0.30315900
v 0.24407842 -0.16214143 -0.30334687
v 0.12022138 -0.25235174 -0.27732759
v 0.09337062 -0.26762732 -0.27435871
v 0.13496620 -0.25099836 -0.27776193
v 0.16181374 -0.24022622 -0.28099190
v 0.09861500 -0.26281601 -0.27535599
v 0.22098933 -0.19255369 -0.29687409
v 0.11101764 -0.26077520 -0.27571183
v 0.13267000 -0.25500700 -0.27656400
v 0.20216135 -0.20908607 -0.29166698
v 0.23638246 -0.18211933 -0.29939427
v 0.17629100 -0.23192100 -0.28375399
v 0.20126845 -0.21320571 -0.29036833
v -0.00938036 -0.28333903 -0.27483081
v 0.01835783 -0.28145211 -0.27456603
v 0.13195372 -0.25784418 -0.27550975
v 0.09608153 -0.26882988 -0.27383562
v 0.17614765 -0.23490750 -0.28257379
v 0.02535938 -0.28374640 -0.27330086
v -0.02455202 -0.28527100 -0.27400747
v 0.07417645 -0.27863763 -0.27162613
v 0.16182500 -0.24376599 -0.27954999
v -0.03767847 -0.28726487 -0.27287054
v -0.00944691 -0.29122639 -0.27113267
v 0.20621227 -0.21519443 -0.28940631
v -0.03941349 -0.28157202 -0.27510232
v -0.01607579 -0.28821530 -0.27262993
v -0.08164781 -0.28490274 -0.27142065
v -0.05546973 -0.28712124 -0.27215690
v -0.10036112 -0.27816814 -0.27230006
v -0.08904119 -0.27959623 -0.27291072
v 0.24225430 -0.17343240 -0.30118036
v -0.07146707 -0.27941880 -0.27440178
v -0.13326888 -0.27121510 -0.27044017
v -0.10895681 -0.27324275 -0.27290707
v -0.04059511 -0.27766939 -0.27600560
v -0.02158962 -0.27794328 -0.27623988
v -0.10029600 -0.27135215 -0.27400449
v 0.24626968 -0.15904394 -0.30376269
v -0.14449131 -0.26800128 -0.26972657
v -0.11081359 -0.27962772 -0.27052085
v 0.25454399 -0.15366100 -0.30359900
v -0.15350674 -0.25851634 -0.27048131
v 0.25166462 -0.16430180 -0.30207596
v -0.16149068 -0.25821321 -0.26910832
v 0.25281466 -0.13723998 -0.30553039
v 0.25596239 -0.13243874 -0.30566422
v 0.25246880 -0.12486685 -0.30594094
v 0.26134109 -0.15261992 -0.30257485
v 0.24432420 -0.15145833 -0.30437836
v 0.26282191 -0.14560334 -0.30332469
v 0.25786761 -0.13691909 -0.30541561
v 0.25919336 -0.16526459 -0.30015062
v 0.25234429 -0.17280195 -0.29961668
v 0.23666962 -0.16675584 -0.30249152
v 0.26262286 -0.13713398 -0.30453098
v -0.13509275 -0.27396569 -0.26901084
v 0.25837513 -0.11423955 -0.30604024
v 0.25489066 -0.10522326 -0.30591545
v 0.18585659 -0.21433638 -0.28857663
v 0.23600836 -0.19100045 -0.29629153
v 0.25330848 -0.09065395 -0.30485595
v 0.24985526 -0.12241604 -0.30551110
v 0.25792691 -0.09037127 -0.30517894
v 0.25990612 -0.09364726 -0.30538270
v 0.26573032 -0.10079897 -0.30485645
v 0.25754051 -0.07930700 -0.30412751
v 0.27245250 -0.08090900 -0.30198526
v 0.26361555 -0.11691544 -0.30548067
v 0.24445084 -0.18318879 -0.29790156
v 0.26773686 -0.12215009 -0.30448161
v 0.26915469 -0.11187473 -0.30433702
v 0.27188374 -0.09603899 -0.30340102
v 0.25347350 -0.07762600 -0.30370000
v -0.06998483 -0.28998286 -0.26962600
v 0.22871445 -0.17098983 -0.30059616
v 0.00633665 -0.29000460 -0.27114832
v 0.27048502 -0.14378059 -0.30156326
v 0.17551170 -0.24051455 -0.27987222
v 0.04740899 -0.28095310 -0.27299229
v 0.27467896 -0.11928914 -0.30296965
v 0.19393824 -0.20682000 -0.29076300
v 0.26856431 -0.08576524 -0.30349009
v -0.10969104 -0.28563390 -0.26750212
v -0.13453637 -0.27926976 -0.26631296
v -0.12668681 -0.28054289 -0.26727183
v -0.14880714 -0.27498141 -0.26510381
v 0.21294684 -0.18838747 -0.29619757
v 0.24393949 -0.14425450 -0.30434999
v 0.32423349 -0.14756650 -0.25116050
v 0.32384421 -0.14405562 -0.25351482
v 0.32502950 -0.14228450 -0.25024800
v 0.31933750 -0.13670401 -0.26290099
v 0.31874261 -0.15713759 -0.25612848
v 0.31141930 -0.14161042 -0.27351078
v 0.31838437 -0.14604816 -0.26207746
v 0.31177855 -0.13202338 -0.27550745
v 0.30686751 -0.12385350 -0.28227700
v 0.31512216 -0.15351345 -0.26299395
v 0.32228799 -0.15485400 -0.25075300
v 0.31688606 -0.15013634 -0.26278336
v 0.30689085 -0.13992188 -0.27886110
v 0.30357084 -0.12817987 -0.28500243
v 0.30587160 -0.15266678 -0.27491392
v 0.30996173 -0.15893356 -0.26626962
v 0.29865314 -0.13653899 -0.28758868
v 0.30339981 -0.14392549 -0.28130599
v 0.30048039 -0.16113277 -0.27571724
v 0.29489625 -0.15507768 -0.28434571
v 0.29657213 -0.14293830 -0.28741847
v 0.29340765 -0.16185530 -0.28209427
v 0.30767252 -0.16794675 -0.26216877
v 0.29225421 -0.15060159 -0.28819732
v 0.29951203 -0.16612935 -0.27361677
v 0.31696690 -0.16000611 -0.25626375
v 0.28610036 -0.17203229 -0.28237014
v 0.29455907 -0.17537064 -0.27157228
v 0.31266201 -0.16453899 -0.25835201
v 0.28210472 -0.16166708 -0.29089928
v 0.27937441 -0.18496930 -0.27826601
v 0.29139384 -0.17584649 -0.27441965
v 0.27862114 -0.17838484 -0.28407322
v 0.27015705 -0.18469894 -0.28598750
v 0.29972856 -0.17392468 -0.26647591
v 0.27924160 -0.17085783 -0.28832929
v 0.28280123 -0.15480697 -0.29307514
v 0.29265998 -0.18284280 -0.26584974
v 0.28553435 -0.18633322 -0.27044563
v 0.29542047 -0.18454135 -0.25948509
v 0.27039066 -0.19627821 -0.27548851
v 0.26475364 -0.19914237 -0.27753570
v 0.26669233 -0.20582226 -0.26902818
v 0.26138014 -0.19341523 -0.28511633
v 0.28732991 -0.19959223 -0.25076040
v 0.26526198 -0.20929594 -0.26637666
v 0.26975199 -0.20971691 -0.26211350
v 0.29045200 -0.19470800 -0.25209501
v 0.28341050 -0.19453380 -0.26296166
v 0.29213629 -0.19742642 -0.24557889
v 0.31639888 -0.16384933 -0.25357139
v 0.25386487 -0.20451155 -0.28066040
v 0.25228620 -0.22053072 -0.26591272
v 0.29744209 -0.19366690 -0.24087590
v 0.30376513 -0.18094369 -0.25070322
v 0.30182508 -0.19205211 -0.23350021
v 0.24895806 -0.22054554 -0.26796174
v 0.31290328 -0.16998406 -0.25183680
v 0.31723601 -0.16679600 -0.24700500
v 0.24790184 -0.20762661 -0.28138696
v 0.25897711 -0.18833637 -0.29010099
v 0.25176847 -0.19634323 -0.28831913
v 0.30339900 -0.18914300 -0.23408200
v 0.30315475 -0.18659175 -0.24002550
v 0.31908101 -0.16403100 -0.24700700
v 0.23194076 -0.21763340 -0.28089632
v 0.24531635 -0.22653125 -0.26453011
v 0.30611500 -0.18080800 -0.24564500
v 0.23608482 -0.23075481 -0.26448011
v 0.22141333 -0.23316756 -0.27073002
v 0.25827657 -0.18252722 -0.29381727
v 0.26971673 -0.17027535 -0.29435699
v 0.24958713 -0.22685679 -0.26345008
v 0.24300760 -0.20633706 -0.28496436
v 0.27518108 -0.16194449 -0.29488504
v 0.28673750 -0.14979115 -0.29242875
v 0.24842124 -0.18928739 -0.29409072
v 0.22066437 -0.22998755 -0.27479171
v 0.19306219 -0.24580153 -0.27135266
v 0.19036807 -0.24591936 -0.27245970
v 0.20610426 -0.22803380 -0.28197022
v 0.24381051 -0.19763787 -0.29102849
v 0.26114181 -0.17294879 -0.29692616
v 0.19513150 -0.24717701 -0.26902802
v 0.25288901 -0.22405399 -0.26363000
v 0.24138909 -0.22938069 -0.26379184
v 0.16731977 -0.25610774 -0.27051684
v 0.18178701 -0.24618152 -0.27477151
v 0.27048918 -0.16237346 -0.29700618
v 0.22043004 -0.21662038 -0.28606308
v 0.23381335 -0.20370521 -0.29039444
v 0.21823882 -0.20574196 -0.29248383
v 0.17483000 -0.24530600 -0.27699101
v 0.23319607 -0.19808734 -0.29351086
v 0.16457543 -0.25293522 -0.27382808
v 0.12130539 -0.27219800 -0.26854030
v 0.11795733 -0.27189397 -0.26941471
v 0.20334119 -0.22484965 -0.28465658
v 0.14618274 -0.25330094 -0.27643978
v 0.07297508 -0.28231374 -0.26962964
v 0.11729566 -0.26748185 -0.27241193
v 0.04550398 -0.28813319 -0.26929994
v 0.02485883 -0.28939519 -0.27035100
v 0.26982568 -0.15300961 -0.29996045
v 0.07727342 -0.28333770 -0.26832155
v -0.02348242 -0.29090983 -0.27117820
v 0.26576716 -0.22088294 -0.25942615
v 0.24544276 -0.23323967 -0.26166174
v 0.01223197 -0.29278665 -0.26910020
v 0.27764576 -0.13327569 -0.30060074
v -0.04093595 -0.29246356 -0.26989259
v 0.27871585 -0.11682612 -0.30149717
v -0.10571417 -0.28422601 -0.26889927
v 0.28140543 -0.13997799 -0.29784677
v -0.07577216 -0.29057426 -0.26885225
v 0.23861410 -0.23632339 -0.25968144
v -0.05191498 -0.29342613 -0.26866081
v 0.28193147 -0.14553970 -0.29648116
v 0.27823042 -0.09696777 -0.30158946
v 0.27998650 -0.08576450 -0.30005899
v 0.28785380 -0.12926578 -0.29643581
v 0.28363519 -0.10894342 -0.29967652
v 0.28223199 -0.09103100 -0.29957601
v 0.28790051 -0.10428500 -0.29738575
v 0.28448949 -0.09223450 -0.29863350
v 0.28778792 -0.12062370 -0.29716453
v 0.29073286 -0.14041050 -0.29238468
v 0.29281101 -0.11009800 -0.29449800
v 0.29885375 -0.11749600 -0.28980475
v 0.29337721 -0.12391023 -0.29341932
v 0.32459414 -0.15290444 -0.24672831
v 0.31926681 -0.16566040 -0.24278243
v 0.31910389 -0.16604974 -0.23752899
v 0.31038932 -0.17910667 -0.23195672
v 0.30620645 -0.18668822 -0.22779327
v 0.32115693 -0.16209349 -0.23917527
v 0.30882495 -0.18141216 -0.22482125
v 0.30719679 -0.18349879 -0.23354715
v 0.30600717 -0.18794618 -0.22191999
v 0.31794615 -0.16670532 -0.23331672
v 0.30920277 -0.17883575 -0.22072814
v 0.32240424 -0.15825725 -0.23870525
v 0.31655601 -0.16577699 -0.22702951
v 0.30453424 -0.19680410 -0.21828782
v 0.31202200 -0.17006201 -0.21905300
v 0.30762599 -0.17367150 -0.21194949
v 0.30623281 -0.18455704 -0.21687721
v 0.30513303 -0.18524185 -0.21405965
v 0.30340549 -0.19825200 -0.21413900
v 0.30292975 -0.16708750 -0.19740875
v 0.30388350 -0.21243700 -0.21882900
v 0.30389837 -0.20912067 -0.21883918
v 0.30237062 -0.18248750 -0.20746225
v 0.29873137 -0.17624320 -0.19745607
v 0.32527900 -0.15101299 -0.24355350
v 0.32182668 -0.16015721 -0.24681470
v 0.32554151 -0.14839000 -0.24611549
v 0.30614038 -0.18283654 -0.24054320
f 510 516 15
f 15 492 510
f 15 516 16
f 492 516 510
f 15 537 492
f 596 16 516
f 485 516 492
f 1 537 15
f 537 485 492
f 591 16 596
f 594 596 516
f 485 519 516
f 166 537 1
f 537 519 485
f 591 638 16
f 591 596 594
f 516 519 594
f 166 536 537
f 537 486 519
f 16 638 286
f 591 608 638
f 591 594 519
f 181 536 166
f 486 487 519
f 537 498 486
f 285 286 638
f 585 608 591
f 636 638 608
f 591 519 487
f 536 181 534
f 498 487 486
f 536 498 537
f 636 285 638
f 521 585 591
f 592 608 585
f 608 637 636
f 487 521 591
f 174 534 181
f 536 534 488
f 488 487 498
f 536 488 498
f 284 285 636
f 586 585 521
f 586 592 585
f 592 635 608
f 608 635 637
f 637 635 636
f 521 487 488
f 159 174 181
f 174 172 534
f 534 525 488
f 635 284 636
f 589 586 521
f 586 581 592
f 592 753 635
f 525 521 488
f 167 174 159
f 159 181 166
f 160 172 174
f 172 496 534
f 534 496 525
f 635 283 284
f 521 493 589
f 589 584 586
f 586 584 581
f 581 582 592
f 579 753 592
f 755 635 753
f 525 493 521
f 165 167 159
f 162 174 167
f 164 159 166
f 160 176 172
f 160 174 162
f 175 496 172
f 496 493 525
f 282 283 635
f 493 515 589
f 515 584 589
f 584 582 581
f 582 579 592
f 579 755 753
f 755 282 635
f 155 165 159
f 162 167 165
f 129 159 164
f 163 164 166
f 160 185 176
f 153 160 162
f 175 535 496
f 496 490 493
f 490 515 493
f 507 584 515
f 584 579 582
f 626 755 579
f 279 282 755
f 155 159 129
f 158 165 155
f 156 162 165
f 129 164 163
f 163 166 179
f 161 185 160
f 152 160 153
f 132 153 162
f 175 184 535
f 496 535 523
f 494 490 496
f 507 515 490
f 587 584 507
f 584 580 579
f 580 626 579
f 626 757 755
f 757 279 755
f 128 155 129
f 126 158 155
f 156 165 158
f 162 156 126
f 128 129 163
f 13 163 179
f 152 161 160
f 161 171 185
f 132 152 153
f 132 162 126
f 523 494 496
f 535 184 523
f 494 507 490
f 588 587 507
f 587 577 584
f 574 580 584
f 580 751 626
f 626 751 757
f 751 279 757
f 127 155 128
f 130 126 155
f 126 156 158
f 128 163 2
f 2 163 13
f 152 150 161
f 157 171 161
f 134 152 132
f 146 132 126
f 523 522 494
f 184 522 523
f 494 489 507
f 511 588 507
f 587 588 577
f 577 574 584
f 580 574 751
f 275 279 751
f 127 128 4
f 130 155 127
f 126 130 127
f 4 128 2
f 150 152 134
f 157 161 150
f 157 180 171
f 133 134 132
f 131 146 126
f 146 133 132
f 522 491 494
f 184 531 522
f 491 489 494
f 491 507 489
f 511 507 491
f 511 520 588
f 588 565 577
f 577 571 574
f 746 751 574
f 575 275 751
f 3 127 4
f 3 126 127
f 135 150 134
f 150 151 157
f 112 180 157
f 135 134 133
f 131 126 3
f 125 146 131
f 146 135 133
f 499 491 522
f 533 531 184
f 531 524 522
f 495 511 491
f 518 520 511
f 588 520 565
f 577 565 571
f 571 578 574
f 578 746 574
f 751 746 575
f 749 275 575
f 137 150 135
f 151 150 138
f 154 157 151
f 110 112 157
f 182 180 112
f 124 131 3
f 124 125 131
f 122 146 125
f 136 135 146
f 499 495 491
f 524 499 522
f 177 531 533
f 177 524 531
f 495 518 511
f 520 518 566
f 566 565 520
f 565 578 571
f 746 578 575
f 271 275 749
f 628 749 575
f 139 137 135
f 137 138 150
f 140 151 138
f 151 110 154
f 110 157 154
f 93 112 110
f 114 182 112
f 9 124 3
f 124 5 125
f 123 122 125
f 122 147 146
f 139 135 136
f 141 136 146
f 497 495 499
f 524 503 499
f 177 533 183
f 177 501 524
f 502 518 495
f 631 566 518
f 570 565 566
f 565 575 578
f 267 271 749
f 570 628 575
f 743 749 628
f 139 138 137
f 121 140 138
f 142 151 140
f 143 110 151
f 93 110 87
f 111 112 93
f 111 114 112
f 114 173 182
f 9 5 124
f 123 125 5
f 122 123 5
f 122 148 147
f 147 141 146
f 141 139 136
f 501 495 497
f 503 497 499
f 501 503 524
f 183 533 184
f 532 501 177
f 502 495 501
f 509 518 502
f 631 518 554
f 566 631 570
f 570 575 565
f 749 742 267
f 743 628 570
f 743 742 749
f 121 138 139
f 145 140 121
f 142 140 145
f 143 151 142
f 144 110 143
f 86 93 87
f 120 87 110
f 78 111 93
f 78 114 111
f 170 173 114
f 6 5 9
f 148 122 5
f 149 147 148
f 147 139 141
f 501 497 503
f 178 532 177
f 532 504 501
f 500 502 501
f 506 509 502
f 509 514 518
f 514 554 518
f 568 631 554
f 631 743 570
f 745 267 742
f 631 742 743
f 147 121 139
f 116 145 121
f 116 142 145
f 116 143 142
f 144 120 110
f 116 144 143
f 86 87 85
f 78 93 86
f 87 120 144
f 78 67 114
f 67 170 114
f 149 148 5
f 149 121 147
f 178 504 532
f 504 500 501
f 502 500 504
f 506 502 504
f 506 514 509
f 554 514 517
f 568 554 559
f 631 568 572
f 261 267 745
f 740 745 742
f 572 742 631
f 115 116 121
f 117 144 116
f 72 86 85
f 85 87 88
f 81 78 86
f 117 87 144
f 34 67 78
f 169 170 67
f 14 149 5
f 119 121 149
f 528 504 178
f 506 504 528
f 517 514 506
f 557 554 517
f 553 559 554
f 555 568 559
f 567 572 568
f 736 261 745
f 572 740 742
f 741 745 740
f 89 116 115
f 115 121 90
f 89 117 116
f 72 85 69
f 39 86 72
f 85 88 89
f 88 87 89
f 34 78 81
f 81 86 39
f 87 117 89
f 34 46 67
f 66 169 67
f 113 149 14
f 119 90 121
f 113 119 149
f 505 528 178
f 505 506 528
f 517 506 508
f 513 557 517
f 513 554 557
f 553 554 513
f 553 555 559
f 555 560 568
f 560 567 568
f 567 741 572
f 261 736 727
f 737 736 745
f 741 740 572
f 737 745 741
f 89 115 118
f 90 118 115
f 69 71 72
f 69 85 89
f 72 36 39
f 34 81 39
f 33 46 34
f 46 66 67
f 106 169 66
f 7 113 14
f 90 119 94
f 94 119 113
f 173 505 178
f 527 506 505
f 508 506 527
f 508 513 517
f 553 513 512
f 555 553 539
f 555 567 560
f 739 741 567
f 256 261 727
f 727 736 735
f 741 736 737
f 89 118 90
f 63 71 69
f 71 36 72
f 69 89 95
f 34 39 36
f 33 34 36
f 32 46 33
f 106 66 46
f 168 169 106
f 7 91 113
f 91 90 94
f 91 94 113
f 173 527 505
f 377 508 527
f 512 513 508
f 538 553 512
f 538 539 553
f 555 539 543
f 739 567 555
f 736 741 739
f 240 256 727
f 728 727 735
f 735 736 739
f 95 89 90
f 63 69 73
f 63 36 71
f 69 95 90
f 35 33 36
f 31 32 33
f 32 31 46
f 45 106 46
f 168 106 65
f 7 84 91
f 68 90 91
f 377 527 173
f 376 508 377
f 530 512 508
f 538 512 530
f 543 539 538
f 543 546 555
f 739 555 546
f 720 240 727
f 720 727 728
f 728 735 721
f 630 735 739
f 63 73 64
f 73 69 70
f 35 36 63
f 92 69 90
f 31 33 35
f 31 45 46
f 17 106 45
f 41 65 106
f 65 100 168
f 83 84 7
f 84 68 91
f 68 92 90
f 530 508 376
f 375 538 530
f 543 538 375
f 526 546 543
f 556 739 546
f 724 240 720
f 721 720 728
f 735 733 721
f 733 735 630
f 630 739 573
f 64 62 63
f 64 73 61
f 70 69 68
f 73 70 75
f 48 35 63
f 68 69 92
f 29 31 35
f 17 45 31
f 17 41 106
f 41 19 65
f 44 100 65
f 8 83 7
f 8 84 83
f 68 84 74
f 375 530 376
f 526 543 375
f 541 546 526
f 556 546 541
f 556 573 739
f 710 240 724
f 719 724 720
f 721 718 720
f 721 733 630
f 569 630 573
f 62 48 63
f 60 62 64
f 60 64 61
f 61 73 75
f 70 68 75
f 30 35 48
f 29 28 31
f 29 35 30
f 28 17 31
f 27 41 17
f 27 19 41
f 19 44 65
f 44 104 100
f 8 82 84
f 75 68 74
f 82 74 84
f 374 526 375
f 526 542 541
f 550 556 541
f 569 573 556
f 233 240 710
f 724 718 710
f 718 719 720
f 718 724 719
f 730 718 721
f 738 721 630
f 576 630 569
f 48 62 60
f 59 60 61
f 75 82 61
f 58 30 48
f 43 28 29
f 29 30 47
f 18 17 28
f 18 27 17
f 20 19 27
f 26 44 19
f 44 77 104
f 61 82 8
f 82 75 74
f 374 375 363
f 526 374 363
f 529 542 526
f 540 541 542
f 541 544 550
f 550 569 556
f 709 233 710
f 718 709 710
f 706 718 730
f 730 721 738
f 738 630 576
f 564 576 569
f 49 48 60
f 49 60 59
f 59 61 10
f 55 30 58
f 58 48 49
f 37 28 43
f 47 43 29
f 47 30 55
f 27 18 28
f 20 26 19
f 37 20 27
f 26 38 44
f 38 77 44
f 80 104 77
f 10 61 8
f 529 526 363
f 529 544 542
f 540 544 541
f 542 544 540
f 611 550 544
f 263 233 709
f 709 718 706
f 731 706 730
f 730 738 732
f 738 576 732
f 564 569 561
f 561 576 564
f 58 49 59
f 12 59 10
f 96 55 58
f 37 27 28
f 43 42 37
f 43 47 50
f 56 47 55
f 26 20 40
f 20 37 42
f 38 26 40
f 38 40 77
f 40 80 77
f 529 363 364
f 611 544 529
f 545 550 611
f 756 263 709
f 709 706 697
f 706 731 722
f 730 732 731
f 732 576 561
f 569 563 561
f 58 59 12
f 96 56 55
f 96 58 12
f 52 42 43
f 52 43 50
f 47 56 50
f 23 40 20
f 23 20 42
f 40 99 80
f 633 529 364
f 633 611 529
f 545 561 550
f 633 545 611
f 263 756 280
f 756 709 726
f 697 706 692
f 707 709 697
f 722 714 706
f 722 731 612
f 731 732 734
f 732 561 558
f 561 563 550
f 51 56 96
f 11 96 12
f 52 53 42
f 52 50 51
f 50 56 51
f 21 40 23
f 57 23 42
f 40 76 99
f 373 633 364
f 547 561 545
f 547 545 633
f 234 263 280
f 726 709 707
f 707 756 726
f 697 692 693
f 692 706 700
f 693 707 697
f 700 706 714
f 700 714 722
f 722 612 717
f 612 731 734
f 734 732 612
f 558 561 548
f 562 732 558
f 97 51 96
f 11 97 96
f 53 57 42
f 54 53 52
f 52 51 107
f 22 21 23
f 22 40 21
f 22 23 57
f 76 40 25
f 368 633 373
f 548 561 547
f 370 547 633
f 280 231 234
f 713 756 707
f 683 693 692
f 700 722 692
f 693 713 707
f 621 717 612
f 702 722 717
f 612 732 562
f 548 549 558
f 562 558 549
f 11 51 97
f 105 57 53
f 107 54 52
f 105 53 54
f 11 107 51
f 24 40 22
f 105 22 57
f 24 25 40
f 98 76 25
f 371 633 368
f 627 548 547
f 639 547 370
f 280 217 231
f 682 683 692
f 686 693 683
f 692 722 702
f 725 713 693
f 621 612 562
f 621 711 717
f 701 702 717
f 548 627 549
f 606 562 549
f 105 54 107
f 79 24 22
f 103 22 105
f 79 25 24
f 79 98 25
f 98 108 76
f 627 547 639
f 371 639 370
f 230 231 217
f 216 217 280
f 681 683 682
f 682 692 684
f 687 686 683
f 687 693 686
f 684 692 702
f 693 470 725
f 725 470 713
f 605 621 562
f 723 711 621
f 711 701 717
f 684 702 701
f 606 549 627
f 606 583 562
f 79 22 102
f 103 102 22
f 101 98 79
f 108 98 109
f 627 639 371
f 191 230 217
f 231 230 257
f 216 191 217
f 228 216 280
f 681 682 674
f 683 681 671
f 674 682 684
f 687 683 689
f 687 470 693
f 747 713 470
f 605 562 583
f 605 723 621
f 712 711 723
f 674 701 711
f 674 684 701
f 640 606 627
f 552 583 606
f 102 101 79
f 109 98 101
f 362 627 371
f 191 192 230
f 230 238 257
f 246 191 216
f 228 246 216
f 246 228 280
f 681 674 671
f 679 683 671
f 678 689 683
f 689 680 687
f 466 470 687
f 747 470 466
f 747 422 713
f 595 605 583
f 604 723 605
f 674 711 712
f 715 712 723
f 640 601 606
f 640 627 367
f 590 583 552
f 552 606 551
f 367 627 362
f 192 191 193
f 192 188 230
f 186 238 230
f 238 266 257
f 219 191 246
f 673 671 674
f 668 679 671
f 678 683 679
f 680 689 678
f 688 687 680
f 469 466 687
f 466 465 747
f 713 422 421
f 434 422 747
f 595 583 590
f 604 605 595
f 744 723 604
f 676 674 712
f 715 670 712
f 715 723 729
f 601 551 606
f 614 601 640
f 640 367 365
f 590 552 601
f 601 552 551
f 195 193 191
f 193 194 192
f 190 188 192
f 230 188 186
f 238 186 288
f 238 288 266
f 219 195 191
f 671 673 667
f 673 674 676
f 672 668 671
f 668 678 679
f 680 678 675
f 688 680 695
f 685 687 688
f 467 466 469
f 469 687 685
f 467 465 466
f 421 423 713
f 474 434 747
f 593 595 590
f 600 604 595
f 744 604 600
f 729 723 744
f 670 676 712
f 677 670 715
f 758 715 729
f 599 601 614
f 614 640 369
f 369 640 365
f 597 590 601
f 194 193 195
f 194 190 192
f 188 190 186
f 186 187 288
f 266 288 260
f 672 671 667
f 676 667 673
f 665 668 672
f 678 668 675
f 680 675 663
f 695 680 698
f 695 690 688
f 690 685 688
f 468 467 469
f 690 469 685
f 467 472 465
f 423 748 713
f 474 442 434
f 465 474 747
f 603 593 590
f 600 595 593
f 744 600 629
f 758 729 744
f 660 676 670
f 716 670 677
f 677 715 716
f 716 715 758
f 597 601 599
f 610 599 614
f 366 614 369
f 603 590 597
f 196 194 195
f 299 190 194
f 190 187 186
f 187 287 288
f 264 266 260
f 260 288 264
f 665 672 667
f 660 667 676
f 675 668 665
f 663 675 665
f 698 680 663
f 698 708 695
f 695 694 690
f 468 463 467
f 690 468 469
f 472 474 465
f 467 475 472
f 423 407 748
f 748 756 713
f 474 444 442
f 600 593 603
f 629 600 602
f 750 744 629
f 754 758 744
f 660 670 716
f 767 716 758
f 609 597 599
f 609 599 610
f 610 614 613
f 366 613 614
f 598 603 597
f 196 296 194
f 200 196 195
f 299 297 190
f 296 299 194
f 325 187 190
f 187 189 287
f 288 287 264
f 266 264 268
f 665 667 662
f 662 667 660
f 663 665 645
f 691 698 663
f 708 696 695
f 699 708 698
f 694 468 690
f 696 694 695
f 463 462 467
f 696 463 468
f 475 474 472
f 473 475 467
f 407 756 748
f 444 440 442
f 475 444 474
f 602 600 603
f 629 602 607
f 750 629 632
f 750 754 744
f 761 758 754
f 664 660 716
f 657 716 767
f 761 767 758
f 609 598 597
f 616 609 610
f 615 610 613
f 372 613 366
f 609 603 598
f 196 198 296
f 221 200 195
f 200 198 196
f 297 325 190
f 298 297 299
f 295 299 296
f 325 324 187
f 293 189 187
f 189 289 287
f 287 289 264
f 264 267 268
f 659 665 662
f 655 662 660
f 666 663 645
f 656 645 665
f 669 691 663
f 651 698 691
f 703 696 708
f 705 699 698
f 694 696 468
f 460 462 463
f 462 473 467
f 464 463 696
f 478 475 473
f 407 280 756
f 442 440 435
f 444 443 440
f 454 444 475
f 607 602 603
f 632 629 607
f 752 750 632
f 761 754 750
f 658 660 664
f 664 716 657
f 657 767 761
f 620 609 616
f 615 616 610
f 618 615 613
f 625 613 372
f 620 603 609
f 198 295 296
f 200 197 198
f 297 324 325
f 301 297 298
f 295 298 299
f 324 293 187
f 324 189 293
f 290 289 189
f 289 359 264
f 264 265 267
f 655 659 662
f 665 659 655
f 655 660 658
f 645 691 666
f 666 669 663
f 645 656 655
f 655 656 665
f 666 691 669
f 651 691 645
f 705 698 651
f 471 696 703
f 460 473 462
f 461 460 463
f 471 464 696
f 473 480 478
f 478 454 475
f 435 440 438
f 443 447 440
f 450 443 444
f 620 607 603
f 632 607 622
f 759 752 632
f 766 750 752
f 766 761 750
f 658 664 661
f 661 664 657
f 654 657 761
f 617 620 616
f 616 615 618
f 618 613 625
f 207 295 198
f 203 198 197
f 201 197 200
f 297 294 324
f 301 294 297
f 301 298 212
f 300 298 295
f 305 189 324
f 189 305 290
f 290 291 289
f 264 359 265
f 289 343 359
f 265 360 267
f 646 655 658
f 650 645 655
f 651 645 641
f 477 473 460
f 464 460 461
f 464 461 463
f 458 464 471
f 476 480 473
f 478 480 454
f 435 438 434
f 438 440 427
f 447 437 440
f 450 447 443
f 444 451 450
f 622 607 620
f 632 622 623
f 759 632 624
f 762 752 759
f 766 752 762
f 770 761 766
f 658 661 657
f 654 658 657
f 654 761 770
f 624 617 616
f 624 620 617
f 619 616 618
f 207 198 203
f 207 202 295
f 201 203 197
f 199 201 200
f 294 304 324
f 301 304 294
f 300 212 298
f 212 304 301
f 202 300 295
f 304 305 324
f 291 290 305
f 289 291 343
f 265 359 360
f 359 343 349
f 267 360 272
f 646 652 655
f 658 653 646
f 652 645 650
f 652 650 655
f 641 645 642
f 771 651 641
f 459 477 460
f 473 477 476
f 464 459 460
f 459 464 458
f 457 458 471
f 482 480 476
f 480 484 454
f 434 438 425
f 427 416 438
f 440 416 427
f 440 437 428
f 447 441 437
f 450 446 447
f 453 450 451
f 623 622 620
f 624 632 623
f 759 624 634
f 764 762 759
f 764 766 762
f 769 770 766
f 648 658 654
f 769 654 770
f 634 624 616
f 624 623 620
f 619 634 616
f 207 203 201
f 207 300 202
f 221 199 200
f 199 206 201
f 205 212 300
f 212 302 304
f 304 308 305
f 292 291 305
f 328 343 291
f 359 358 360
f 343 328 349
f 349 358 359
f 360 270 272
f 647 652 646
f 648 646 653
f 648 653 658
f 645 652 642
f 643 641 642
f 641 797 771
f 796 651 771
f 479 477 459
f 477 482 476
f 458 479 459
f 457 481 458
f 775 457 471
f 482 483 480
f 456 454 484
f 483 484 480
f 438 419 425
f 419 438 416
f 428 437 415
f 428 415 440
f 441 433 437
f 447 449 441
f 446 449 447
f 449 446 450
f 449 450 453
f 759 634 619
f 765 764 759
f 768 766 764
f 768 769 766
f 649 648 654
f 769 649 654
f 201 206 207
f 205 300 207
f 223 199 221
f 213 206 199
f 205 204 212
f 210 302 212
f 303 304 302
f 308 304 307
f 308 309 305
f 292 310 291
f 305 310 292
f 310 328 291
f 358 352 360
f 349 328 352
f 349 352 358
f 272 270 277
f 355 270 360
f 644 647 646
f 642 652 647
f 644 646 648
f 642 644 643
f 795 771 797
f 796 699 651
f 771 772 796
f 482 477 386
f 481 479 458
f 779 457 775
f 775 471 778
f 385 483 482
f 380 456 484
f 385 484 483
f 425 419 422
f 416 397 419
f 437 433 415
f 415 416 440
f 441 436 433
f 449 436 441
f 455 449 453
f 619 760 759
f 763 765 759
f 649 644 648
f 206 220 207
f 214 205 207
f 213 199 223
f 213 215 206
f 218 204 205
f 204 218 212
f 212 211 210
f 210 316 302
f 302 316 303
f 303 307 304
f 307 310 308
f 309 310 305
f 308 310 309
f 311 328 310
f 352 355 360
f 352 328 355
f 277 270 274
f 269 270 355
f 644 642 647
f 795 782 771
f 782 772 771
f 386 385 482
f 779 784 457
f 777 779 775
f 778 471 704
f 777 775 778
f 380 379 456
f 385 384 484
f 422 419 424
f 416 388 397
f 397 395 419
f 433 430 415
f 416 415 388
f 433 436 430
f 449 439 436
f 455 380 449
f 760 763 759
f 765 763 760
f 215 220 206
f 220 214 207
f 214 218 205
f 235 213 223
f 213 220 215
f 218 209 212
f 208 210 211
f 208 211 212
f 337 316 210
f 316 323 303
f 306 307 303
f 310 307 311
f 311 326 328
f 328 348 355
f 270 269 274
f 274 276 277
f 269 355 353
f 782 776 772
f 784 477 457
f 787 784 779
f 787 779 777
f 798 778 704
f 777 778 774
f 384 382 484
f 419 407 424
f 397 388 395
f 419 395 396
f 415 430 417
f 415 408 388
f 436 426 430
f 439 432 436
f 449 445 439
f 380 445 449
f 224 214 220
f 222 218 214
f 235 225 213
f 225 220 213
f 209 208 212
f 226 209 218
f 208 340 210
f 340 337 210
f 337 335 316
f 323 306 303
f 334 323 316
f 306 312 307
f 307 312 311
f 326 311 327
f 326 327 328
f 328 327 348
f 348 327 355
f 274 269 273
f 276 274 279
f 269 353 357
f 353 355 350
f 776 773 772
f 784 792 477
f 788 784 787
f 781 787 777
f 699 798 704
f 772 778 798
f 773 777 774
f 773 774 778
f 382 381 484
f 407 280 424
f 388 392 395
f 395 392 396
f 419 396 404
f 417 409 415
f 430 411 417
f 388 408 413
f 415 413 408
f 426 411 430
f 432 426 436
f 445 432 439
f 380 448 445
f 224 229 214
f 227 224 220
f 229 222 214
f 222 229 218
f 242 225 235
f 225 227 220
f 226 208 209
f 226 218 245
f 239 340 208
f 338 337 340
f 335 334 316
f 335 337 334
f 323 315 306
f 334 322 323
f 306 317 312
f 312 313 311
f 311 313 327
f 327 347 355
f 273 269 357
f 274 273 279
f 353 350 357
f 347 350 355
f 773 778 772
f 773 776 782
f 792 791 477
f 788 792 784
f 786 788 787
f 781 777 773
f 787 781 785
f 798 699 796
f 772 798 796
f 388 390 392
f 392 398 396
f 396 400 404
f 419 404 407
f 415 409 413
f 411 409 417
f 388 413 390
f 418 411 426
f 445 426 432
f 452 448 380
f 445 448 426
f 224 258 229
f 236 224 227
f 245 218 229
f 242 237 225
f 248 242 235
f 237 227 225
f 226 239 208
f 245 239 226
f 239 344 340
f 344 337 338
f 340 344 338
f 337 336 334
f 314 306 315
f 323 314 315
f 322 317 323
f 334 321 322
f 314 317 306
f 317 313 312
f 327 313 341
f 327 341 347
f 273 357 361
f 273 361 279
f 350 356 357
f 347 341 350
f 783 773 782
f 792 789 791
f 789 792 788
f 786 787 785
f 786 790 788
f 780 781 773
f 785 781 783
f 390 391 392
f 392 393 398
f 398 399 396
f 396 406 400
f 404 400 407
f 413 409 390
f 411 410 409
f 411 418 410
f 426 414 418
f 452 378 448
f 448 420 426
f 232 258 224
f 258 245 229
f 236 244 224
f 241 236 227
f 248 237 242
f 248 235 252
f 241 227 237
f 262 239 245
f 239 243 344
f 344 339 337
f 336 331 334
f 337 339 336
f 323 317 314
f 322 321 317
f 334 332 321
f 317 318 313
f 313 330 341
f 357 356 361
f 279 361 278
f 345 356 350
f 350 341 345
f 783 780 773
f 788 793 789
f 790 794 788
f 783 781 780
f 390 394 391
f 391 393 392
f 398 393 399
f 396 399 406
f 400 406 429
f 400 431 407
f 409 389 390
f 409 410 412
f 418 414 410
f 426 420 414
f 378 383 448
f 448 387 420
f 244 232 224
f 244 258 232
f 247 245 258
f 249 244 236
f 255 236 241
f 253 237 248
f 252 235 251
f 254 248 252
f 250 241 237
f 239 262 243
f 259 262 245
f 344 243 351
f 344 342 339
f 331 333 334
f 336 333 331
f 339 333 336
f 321 319 317
f 333 321 332
f 333 332 334
f 318 320 313
f 319 318 317
f 329 330 313
f 341 330 345
f 356 354 361
f 278 281 279
f 354 278 361
f 345 346 356
f 794 793 788
f 390 389 394
f 394 402 391
f 391 405 393
f 393 403 399
f 406 399 401

