# https://github.com/mikedh/trimesh
v -0.18243250 0.07898550 -0.18587200
v -0.19070500 -0.01063900 -0.09861275
v -0.19097250 0.04336900 -0.15490900
v -0.18854212 0.06154262 -0.16965375
v -0.19312150 0.02848000 -0.13760575
v -0.19211075 0.00746900 -0.11833550
v -0.17186200 0.08978575 -0.20075900
v -0.16301751 0.10997500 -0.21221400
v -0.14284950 0.14276775 -0.22644913
v -0.19003899 -0.03203500 -0.06737500
v -0.18196701 -0.07550100 0.00728100
v -0.18259250 -0.06957475 -0.01056725
v -0.17935399 -0.07949800 0.01239950
v 0.13288400 0.21428300 -0.21982799
v -0.11853650 0.16485500 -0.23707000
v -0.10317850 0.17213700 -0.24220750
v -0.05376125 0.18803000 -0.25228300
v -0.02312250 0.19417001 -0.25482650
v 0.02952200 0.21382201 -0.24963100
v 0.00284600 0.20484300 -0.25329400
v 0.11359500 0.22003100 -0.22695300
v 0.07763300 0.21725100 -0.24006000
v 0.09088575 0.21917301 -0.23552125
v -0.08181200 0.17157000 -0.24885275
v -0.09521800 0.17053699 -0.24508400
v 0.04702250 0.21740349 -0.24646300
v 0.06878450 0.21756251 -0.24219850
v 0.13765800 0.20733900 -0.21927001
v -0.13516002 0.14643605 -0.23095317
v -0.13786840 0.14199053 -0.22972091
v -0.13142347 0.13790856 -0.23320434
v -0.10298088 0.15879750 -0.24395393
v -0.02177591 0.02536376 -0.24393224
v -0.00173529 0.10462053 -0.26161952
v -0.00425752 0.12165622 -0.26212690
v 0.01570427 0.13182721 -0.26179514
v 0.01973611 0.14421764 -0.26109506
v 0.04318815 0.14076515 -0.25894598
v 0.04438175 0.16874939 -0.25686279
v 0.06752684 0.15564414 -0.25389903
v 0.08568230 0.14765896 -0.24981428
v 0.09885647 0.14679577 -0.24583038
v 0.09546642 0.17415544 -0.24428653
v 0.08551528 0.16171491 -0.24885186
v 0.07831520 0.16065261 -0.25087987
v 0.06977083 0.18056960 -0.25059253
v 0.09717813 0.18829628 -0.24128939
v 0.08069777 0.18646509 -0.24685828
v 0.08886848 0.19351035 -0.24307708
v 0.10156321 0.21695974 -0.23274822
v 0.06443976 0.20796566 -0.24589228
v 0.07892379 0.20822370 -0.24231673
v 0.06898829 0.19352854 -0.24830535
v 0.04671482 0.18222213 -0.25455270
v 0.03993885 0.19173366 -0.25374178
v 0.05266442 0.17390904 -0.25473219
v 0.05614220 0.15974800 -0.25575603
v 0.04167002 0.15624848 -0.25827669
v 0.01782546 0.16912100 -0.25927916
v 0.01553654 0.14678253 -0.26124793
v 0.02832027 0.17165590 -0.25811055
v 0.02648410 0.17856793 -0.25730924
v 0.00429167 0.16255038 -0.26043677
v 0.03834188 0.20854332 -0.25017007
v 0.04586537 0.20953053 -0.24895073
v 0.03269580 0.19007581 -0.25486195
v 0.02283137 0.19408830 -0.25487399
v -0.00532550 0.19705500 -0.25502300
v -0.00917000 0.19428299 -0.25552699
v -0.02054869 0.19212475 -0.25549517
v -0.01398713 0.18276567 -0.25751256
v -0.02849227 0.18638692 -0.25604954
v -0.04185400 0.17841932 -0.25585434
v -0.04682313 0.18389923 -0.25435202
v -0.05387183 0.17461388 -0.25465251
v -0.06665879 0.17547747 -0.25202980
v -0.04837252 0.16146619 -0.25719092
v -0.05850019 0.13695421 -0.25705462
v -0.05512917 0.13482908 -0.25762776
v -0.07477788 0.12326303 -0.25353061
v -0.06208501 0.12608874 -0.25645037
v -0.05249821 0.10829765 -0.25758314
v -0.04736038 0.12865551 -0.25892101
v -0.03568114 0.13117895 -0.26033565
v -0.03177200 0.13402300 -0.26066801
v -0.04004380 0.13679300 -0.25989560
v -0.03041722 0.15336753 -0.25993180
v -0.03525672 0.16190236 -0.25876187
v -0.04368699 0.14305657 -0.25907832
v -0.03945386 0.15121186 -0.25912827
v -0.02467837 0.17350773 -0.25837919
v -0.02504585 0.14820205 -0.26079665
v -0.01803026 0.16232709 -0.26001232
v -0.00749078 0.13803857 -0.26199317
v -0.03469431 0.11642450 -0.26047057
v -0.05097685 0.08990556 -0.25640739
v -0.04344544 0.09653865 -0.25814954
v -0.04042464 0.10146483 -0.25892501
v -0.02504578 0.11033463 -0.26106189
v -0.01723895 0.10440312 -0.26108981
v -0.03216146 0.09208815 -0.25892820
v -0.00761938 0.17444130 -0.25892900
v -0.00993086 0.15865448 -0.26071834
v 0.00326760 0.14051582 -0.26196118
v -0.01330776 0.14034731 -0.26170427
v -0.01729644 0.12250587 -0.26180980
v -0.02095521 0.09129265 -0.25977458
v -0.05220980 0.06837661 -0.25280692
v -0.05034606 0.06325790 -0.25210921
v -0.06421152 0.08073067 -0.25240685
v -0.07510743 0.08303282 -0.25024839
v -0.06609238 0.10432856 -0.25472961
v -0.06276624 0.15348874 -0.25519877
v -0.07212737 0.16737979 -0.25194329
v -0.08754437 0.16428102 -0.24818133
v -0.09371244 0.15574743 -0.24726577
v -0.08086225 0.14936953 -0.25131717
v -0.10901100 0.16864100 -0.24053399
v -0.12255307 0.15688699 -0.23624016
v -0.11499296 0.14807462 -0.24006874
v -0.12320503 0.13431232 -0.23691308
v -0.12794133 0.11727583 -0.23437626
v -0.14109112 0.13224793 -0.22804871
v -0.13938583 0.12507751 -0.22880770
v -0.12961428 0.10197839 -0.23244939
v -0.13890966 0.11254796 -0.22848905
v -0.14554696 0.09833029 -0.22333762
v -0.14026721 0.09106151 -0.22528510
v -0.11703048 0.11748887 -0.23929679
v -0.12184757 0.12877084 -0.23754355
v -0.10571184 0.13175157 -0.24422839
v -0.10036120 0.13301477 -0.24607365
v -0.10964381 0.11896650 -0.24265442
v -0.10502877 0.10677144 -0.24356488
v -0.10083840 0.09387106 -0.24382754
v -0.08904882 0.09404486 -0.24770409
v -0.09160026 0.08221542 -0.24533655
v -0.08677700 0.11299500 -0.24991000
v -0.08585018 0.10938245 -0.25000610
v -0.09528666 0.11378153 -0.24743076
v -0.10209568 0.11872859 -0.24523664
v -0.09053495 0.13078295 -0.24915503
v -0.08213362 0.13927122 -0.25142887
v -0.06932340 0.15598542 -0.25356768
v -0.07507700 0.13459501 -0.25328299
v -0.08329492 0.10034390 -0.25013114
v -0.07671610 0.09833875 -0.25164486
v -0.07639344 0.09236725 -0.25111103
v -0.08460200 0.08213800 -0.24741600
v -0.10754630 0.06391082 -0.23583995
v -0.09853614 0.05924439 -0.23826528
v -0.08242122 0.04645218 -0.23982873
v -0.06728418 0.05026261 -0.24529468
v -0.05632075 0.04982538 -0.24756145
v -0.07307334 0.05000345 -0.24360875
v -0.07955621 0.03881710 -0.23807948
v -0.09102449 0.04521520 -0.23650654
v -0.09821016 0.04505455 -0.23390800
v -0.09551573 0.02968893 -0.22899923
v -0.07013208 0.02347178 -0.23471167
v -0.05601234 0.02784430 -0.23988765
v -0.06881556 0.01694510 -0.23206505
v -0.05801684 0.01603700 -0.23431552
v -0.06124643 -0.00290533 -0.22336544
v -0.08301224 0.00805098 -0.22320000
v -0.07545273 -0.00766944 -0.21599247
v -0.06968418 -0.01768390 -0.21072051
v -0.07854566 -0.02614729 -0.20086993
v -0.08244993 -0.01493713 -0.20823228
v -0.10021506 -0.00022213 -0.21094238
v -0.11069602 -0.01244173 -0.19662820
v -0.09507473 -0.02545397 -0.19398895
v -0.09151639 -0.02029482 -0.20019078
v -0.05058832 -0.00097637 -0.22696669
v -0.03490728 -0.00912493 -0.22467999
v -0.02642433 -0.01739891 -0.22024586
v -0.02284755 -0.02052417 -0.21830769
v -0.03448364 0.00381005 -0.23235123
v -0.04970882 0.00671186 -0.23144182
v -0.03231942 0.01167219 -0.23666933
v -0.01566194 0.00615052 -0.23529525
v -0.02497195 -0.00374744 -0.22921470
v -0.01658828 -0.00829806 -0.22707583
v -0.00135950 -0.00683300 -0.22850403
v 0.00413751 -0.01506750 -0.22335090
v 0.02055191 -0.01801225 -0.22027328
v 0.01286171 -0.02202620 -0.21810468
v 0.03651410 -0.01149712 -0.22290621
v 0.01986237 -0.01035096 -0.22544846
v 0.04068880 -0.00018955 -0.22925964
v 0.02636000 -0.00353100 -0.22900200
v 0.04067697 0.00885377 -0.23420287
v 0.05660940 -0.00105088 -0.22561468
v 0.05226125 -0.01144950 -0.21991475
v 0.00835407 0.00278572 -0.23386487
v -0.05043680 0.01413221 -0.23502224
v -0.05197991 0.02953046 -0.24153761
v -0.03915416 0.02442147 -0.24154586
v -0.04049625 0.01719056 -0.23820010
v -0.02169906 0.01758289 -0.24046269
v -0.04338688 0.03608920 -0.24542899
v -0.03473600 0.03702200 -0.24683100
v -0.04352718 0.04841089 -0.24939662
v -0.05220798 0.04433577 -0.24670698
v -0.03117614 0.03495231 -0.24655606
v -0.01848316 0.03869171 -0.24893325
v -0.01314491 0.02764448 -0.24520973
v -0.00363327 0.01953029 -0.24213973
v 0.00296018 0.02119609 -0.24292820
v 0.00980971 0.03649946 -0.24866369
v 0.01159404 0.05805283 -0.25469910
v -0.00627418 0.04425711 -0.25136150
v 0.01464453 0.02684846 -0.24472104
v 0.03092535 0.02792124 -0.24373727
v 0.02282163 0.04019811 -0.24906788
v 0.04169794 0.03054937 -0.24344640
v 0.03016900 0.02012300 -0.24062100
v -0.01393574 0.04321301 -0.25062572
v 0.00288820 0.04195170 -0.25046421
v -0.08897793 0.06703925 -0.24331271
v -0.10127678 0.07610901 -0.24091674
v -0.07915283 0.06475773 -0.24592341
v -0.07177971 0.06812555 -0.24846490
v -0.05823166 0.07244644 -0.25231827
v -0.03551210 0.07935797 -0.25698837
v -0.03087712 0.06371140 -0.25473391
v 0.01542400 0.20872350 -0.25193299
v 0.02108941 0.20694139 -0.25210988
v 0.05569725 0.21244008 -0.24641285
v 0.00665726 0.18019985 -0.25815481
v 0.00270019 0.19191693 -0.25619113
v 0.06045769 0.19776836 -0.24917515
v 0.07133126 0.16559280 -0.25217407
v 0.10144981 0.16175047 -0.24383581
v 0.02830508 0.14235843 -0.26059499
v -0.00027616 0.09702161 -0.26095744
v -0.00988500 0.08738900 -0.25971499
v -0.01063574 0.08316435 -0.25918802
v -0.00044823 0.07704595 -0.25849956
v -0.01872400 0.07298260 -0.25735324
v 0.00027503 0.06399389 -0.25622969
v 0.00771404 0.06713586 -0.25660751
v 0.00404072 0.05681600 -0.25452385
v 0.00970350 0.08239668 -0.25920920
v 0.01638730 0.10220632 -0.26088145
v 0.03016900 0.11256600 -0.26038599
v 0.02040392 0.11438789 -0.26129571
v 0.03420094 0.13018187 -0.26033808
v 0.03340312 0.11627825 -0.26019293
v 0.02485387 0.10129101 -0.26030856
v 0.02581418 0.07308965 -0.25668534
v 0.02886617 0.08915055 -0.25874191
v 0.03802253 0.07848123 -0.25630342
v 0.03478572 0.06465206 -0.25428437
v 0.04849265 0.07906771 -0.25492968
v 0.05083428 0.10514655 -0.25735549
v 0.05248100 0.12003100 -0.25764701
v 0.04276929 0.11671563 -0.25911998
v 0.05011674 0.14162969 -0.25797839
v 0.06155245 0.13089519 -0.25622392
v 0.06126680 0.14657258 -0.25574849
v 0.06531065 0.11030189 -0.25496072
v 0.07563470 0.11128135 -0.25261721
v 0.08573639 0.11020654 -0.24982007
v 0.07915207 0.09960008 -0.25090410
v 0.06375197 0.08486762 -0.25294870
v 0.07929461 0.08845952 -0.24958613
v 0.09953764 0.11454855 -0.24563401
v 0.11924585 0.18127522 -0.23412508
v 0.11117568 0.20461951 -0.23247787
v 0.10088856 0.20686029 -0.23595301
v 0.10794880 0.18585901 -0.23790440
v 0.11047169 0.16561498 -0.23994668
v 0.12263567 0.17341145 -0.23394112
v 0.12136493 0.15658896 -0.23633360
v 0.11718755 0.14494552 -0.23891772
v 0.13581235 0.17736548 -0.22704066
v 0.12395359 0.19197811 -0.23009218
v 0.13486619 0.19915612 -0.22300523
v 0.12205806 0.21019014 -0.22653750
v 0.11960666 0.20393391 -0.22920890
v 0.14481550 0.18624650 -0.22026450
v 0.14130017 0.20046624 -0.21915820
v 0.15256450 0.19732838 -0.21277313
v 0.14557301 0.17636600 -0.22171600
v 0.14507850 0.15972650 -0.22399450
v 0.14587100 0.17180100 -0.22224100
v 0.12953097 0.15652924 -0.23263844
v 0.14023394 0.16064590 -0.22670110
v 0.12695616 0.13925390 -0.23463328
v 0.12593900 0.11714300 -0.23486300
v 0.12651289 0.13140306 -0.23503619
v 0.14511999 0.14195900 -0.22499600
v 0.14018066 0.14106908 -0.22788809
v 0.13813200 0.13012500 -0.22890550
v 0.09411149 0.13557385 -0.24778594
v 0.08798578 0.13520091 -0.24965574
v 0.07940439 0.12732500 -0.25207371
v 0.07909492 0.12287334 -0.25221888
v 0.11419703 0.13082103 -0.24038854
v 0.10868784 0.11545396 -0.24238899
v 0.09883134 0.09238034 -0.24414676
v 0.09918830 0.08932083 -0.24347187
v 0.10510400 0.09262100 -0.24161699
v 0.09939485 0.12318222 -0.24617028
v 0.05776447 0.08012305 -0.25344951
v 0.05888983 0.06747859 -0.25106960
v 0.07698475 0.07577963 -0.24837932
v 0.09093122 0.07855428 -0.24472803
v 0.06749526 0.06335679 -0.24836339
v -0.01481147 0.05423805 -0.25369651
v -0.03314312 0.05238054 -0.25191204
v 0.03064848 0.05373181 -0.25218165
v 0.04374036 0.04945724 -0.24934425
v 0.05194431 0.05322573 -0.24905247
v 0.08670413 0.05843113 -0.24151075
v 0.09599900 0.07760900 -0.24278000
v 0.04375294 0.10055782 -0.25811463
v 0.03459875 0.10232096 -0.25939906
v 0.06379445 0.09232156 -0.25388090
v 0.00305289 0.11570246 -0.26205857
v 0.07352389 0.14298333 -0.25339268
v 0.06817087 0.04075271 -0.24204313
v 0.04316123 0.01991489 -0.23891945
v 0.05830959 0.02061596 -0.23643265
v 0.06994200 0.02843450 -0.23660100
v 0.07038061 0.04270651 -0.24192555
v 0.07683500 0.04215400 -0.23985100
v 0.05009377 0.04486568 -0.24695217
v 0.03851897 0.04180175 -0.24786359
v 0.07892421 0.06204401 -0.24506236
v 0.02003341 0.01885939 -0.24112023
v 0.06569300 0.01306600 -0.23094200
v 0.05385001 0.00652899 -0.23044207
v 0.06156800 0.00101600 -0.22558700
v 0.02135990 0.00289647 -0.23319617
v 0.01306591 0.00955568 -0.23720216
v 0.00295937 0.01055367 -0.23804135
v -0.00822791 0.00766156 -0.23649659
v -0.01043780 0.01699630 -0.24085276
v -0.01987063 0.01199744 -0.23803507
v -0.10836489 -0.03668043 -0.17564634
v -0.10620438 -0.05513478 -0.15650854
v -0.12310800 -0.02577991 -0.17617232
v -0.10137420 -0.04212106 -0.17456167
v -0.12238746 -0.01684021 -0.18482728
v -0.14209811 -0.00838568 -0.17632729
v -0.14213913 -0.02512445 -0.16024837
v -0.14637698 -0.00947646 -0.17160575
v -0.13088956 -0.03125729 -0.16438996
v -0.11997643 -0.04453688 -0.15853258
v -0.14259514 -0.05602227 -0.12076362
v -0.14448188 -0.04637890 -0.13202690
v -0.13372280 -0.06386807 -0.11978537
v -0.11943493 -0.05363905 -0.14773804
v -0.13539995 -0.04202887 -0.14773733
v -0.12807686 -0.05879765 -0.13271347
v -0.12072281 -0.06137007 -0.13614855
v -0.11091480 -0.07137602 -0.13034302
v -0.12610213 -0.07453248 -0.11082004
v -0.10842709 -0.07248010 -0.13114374
v -0.09366428 -0.06640180 -0.15021825
v -0.09974800 -0.06998000 -0.14093800
v -0.14887666 -0.06109535 -0.10477375
v -0.13956695 -0.07387308 -0.09542716
v -0.14104583 -0.08138470 -0.07934874
v -0.15032319 -0.07185908 -0.08380194
v -0.13199241 -0.09114523 -0.07101106
v -0.15029432 -0.08538732 -0.05590299
v -0.15404137 -0.05177740 -0.11218031
v -0.16955948 -0.04419538 -0.09739484
v -0.15986965 -0.06388181 -0.08268963
v -0.16748965 -0.06041961 -0.07471061
v -0.16319216 -0.04773083 -0.10349341
v -0.15935731 -0.01134226 -0.15500006
v -0.16523049 -0.02969017 -0.12576655
v -0.14976290 -0.03369727 -0.14233060
v -0.15604304 -0.02772105 -0.14118852
v -0.15740176 -0.06756491 -0.08021053
v -0.16198841 -0.07341479 -0.06102026
v -0.15854860 -0.08121651 -0.05062033
v -0.14481808 -0.09541013 -0.04024572
v -0.13380107 -0.09620350 -0.05567201
v -0.13011680 -0.10582696 -0.03230400
v -0.12212336 -0.10297926 -0.05408027
v -0.11268363 -0.09436202 -0.08707195
v -0.10622706 -0.10123510 -0.07836637
v -0.12632916 -0.08188493 -0.09738263
v -0.07746380 -0.07449501 -0.14773874
v -0.09008825 -0.07528976 -0.13962725
v -0.07119971 -0.06490162 -0.16346443
v -0.07791249 -0.05755788 -0.16967297
v -0.08894867 -0.08289448 -0.12853697
v -0.08708574 -0.05845645 -0.16398588
v -0.08859573 -0.04862068 -0.17471675
v -0.07268413 -0.05108648 -0.17911804
v -0.06311740 -0.07497559 -0.15330502
v -0.07096655 -0.08454314 -0.13554059
v -0.05526862 -0.09575050 -0.12336721
v -0.05228654 -0.09800966 -0.12008119
v -0.08284368 -0.09595474 -0.10890853
v -0.10215281 -0.08757423 -0.11071298
v -0.09492527 -0.09881282 -0.09412291
v -0.11528821 -0.10340469 -0.06170875
v -0.10799093 -0.10542757 -0.06519124
v -0.07414332 -0.09793833 -0.11036242
v -0.03044980 -0.09319238 -0.13521389
v -0.03981319 -0.09510187 -0.12989267
v -0.02139399 -0.10316523 -0.11897312
v -0.02873692 -0.08217182 -0.15286577
v -0.02987130 -0.10615701 -0.11130430
v -0.05487566 -0.08813597 -0.13651556
v -0.05403143 -0.07932408 -0.15046826
v -0.04092143 -0.06943587 -0.16814450
v -0.04270646 -0.08220038 -0.14965910
v -0.02458191 -0.06008618 -0.18194411
v -0.02117123 -0.05601994 -0.18701892
v -0.01097133 -0.05868248 -0.18489975
v -0.00110803 -0.06904600 -0.17301906
v -0.01439870 -0.07549810 -0.16421194
v 0.01636005 -0.08446424 -0.15157811
v -0.01546203 -0.08317156 -0.15327350
v 0.00035040 -0.08374069 -0.15322414
v -0.01999142 -0.07095201 -0.16950976
v -0.01634652 -0.06749585 -0.17429724
v -0.04321940 -0.06454244 -0.17339345
v -0.03563400 -0.08045500 -0.15378100
v -0.02256903 -0.09063378 -0.14099657
v -0.01299364 -0.08965201 -0.14348398
v -0.00135622 -0.09307594 -0.13859492
v 0.00876217 -0.07834276 -0.16071423
v 0.01174110 -0.07248479 -0.16829911
v 0.01840785 -0.05891838 -0.18407079
v 0.01399860 -0.05510991 -0.18863919
v 0.02346965 -0.05772978 -0.18497108
v 0.02439359 -0.04851510 -0.19454206
v 0.01988428 -0.07039045 -0.17023284
v 0.02306742 -0.07409111 -0.16523646
v 0.01457650 -0.09525550 -0.13395850
v 0.02500600 -0.08598700 -0.14778399
v -0.00283388 -0.09992152 -0.12659154
v 0.01042800 -0.10266300 -0.12104200
v 0.00499200 -0.10476300 -0.11723700
v -0.00073762 -0.10391481 -0.11897046
v -0.00900303 -0.10597132 -0.11454449
v -0.00374575 -0.10868350 -0.10861750
v 0.03518200 -0.07633400 -0.15990300
v 0.03203950 -0.06979650 -0.16908325
v 0.03290900 -0.06215400 -0.17829500
v 0.03443746 -0.04925789 -0.19208774
v 0.03854000 -0.05010975 -0.19035275
v 0.00704654 -0.06268364 -0.18055394
v 0.00075621 -0.05445140 -0.18982734
v -0.00227385 -0.05074095 -0.19359667
v -0.00904769 -0.04486161 -0.19928170
v -0.02938291 -0.04521012 -0.19708046
v -0.03497559 -0.05390886 -0.18711407
v -0.04217520 -0.04861100 -0.19117444
v -0.04773668 -0.04743090 -0.19102803
v -0.04084947 -0.05922211 -0.18006177
v -0.05449438 -0.04744337 -0.18954298
v -0.05604386 -0.05831641 -0.17718330
v -0.09418427 -0.04010540 -0.18054564
v -0.09436426 -0.02776212 -0.19250480
v -0.09386580 -0.06032752 -0.15778830
v -0.08180437 -0.10150794 -0.09822595
v -0.06815884 -0.11271526 -0.07845575
v -0.05143274 -0.11003669 -0.09482743
v -0.03633782 -0.11094725 -0.09847954
v -0.03219900 -0.11575575 -0.08532150
v -0.04373162 -0.11407799 -0.08702683
v -0.01850357 -0.11336515 -0.09589063
v -0.01777900 -0.11575725 -0.08889225
v -0.01911790 -0.10850183 -0.10808879
v -0.03269210 -0.11120421 -0.09840873
v -0.04580621 -0.10452805 -0.10967120
v -0.03715130 -0.10854297 -0.10357683
v -0.09160872 -0.10673882 -0.07806133
v -0.07738893 -0.10919424 -0.08253940
v -0.08753164 -0.11375168 -0.06009837
v -0.07370068 -0.03557043 -0.19450376
v -0.06372474 -0.03456137 -0.19865452
v -0.06349063 -0.04046727 -0.19343137
v -0.07843011 -0.03088680 -0.19676123
v -0.07406072 -0.11380803 -0.07151366
v -0.05819891 -0.10800900 -0.09699323
v -0.09320513 -0.11441309 -0.05132112
v -0.08189426 -0.11344770 -0.06575753
v -0.03621661 -0.04292287 -0.19787831
v -0.05627726 -0.02404705 -0.20994140
v -0.04894973 -0.02374014 -0.21185698
v -0.03822678 -0.01946911 -0.21717578
v -0.03506200 -0.02798800 -0.21102400
v -0.04467424 -0.03476198 -0.20379419
v -0.02508155 -0.03051429 -0.21043438
v -0.01599682 -0.04179622 -0.20164461
v -0.01633087 -0.02330335 -0.21691321
v -0.00760063 -0.02688382 -0.21458207
v -0.04589367 -0.00946510 -0.22265112
v -0.05236762 -0.01004712 -0.22092406
v -0.11282425 -0.10993626 -0.04505436
v -0.11670700 -0.11076850 -0.03543350
v -0.10986600 -0.11254500 -0.03849500
v -0.09646875 -0.11473013 -0.04680395
v -0.09959860 -0.11575880 -0.03885794
v -0.06803130 -0.11450802 -0.07296320
v -0.11913700 -0.11229400 -0.02411200
v -0.13409349 -0.10661950 -0.01961250
v -0.12776320 -0.00933553 -0.18758564
v -0.13969100 -0.10425200 -0.01708900
v -0.11513769 -0.00057980 -0.20263529
v -0.12761934 0.00465609 -0.19829451
v -0.13663403 -0.00792054 -0.18155332
v -0.14511518 -0.09864671 -0.02798422
v -0.16068850 -0.09296925 -0.00434638
v -0.14964000 0.00603300 -0.18138370
v -0.13721519 0.00851101 -0.19405255
v 0.01040032 -0.03781926 -0.20537125
v 0.00326645 -0.04241219 -0.20163669
v 0.03432079 -0.03643658 -0.20420471
v 0.01495478 -0.04186118 -0.20186540
v 0.04575181 -0.01984732 -0.21564699
v 0.04372500 -0.03550500 -0.20313901
v 0.04234900 -0.04139500 -0.19817400
v 0.02887556 -0.02174876 -0.21668579
v 0.02226675 -0.02986990 -0.21106529
v -0.09273540 0.00282070 -0.21639607
v -0.13515650 0.01951987 -0.20278108
v -0.12838803 0.02591274 -0.21130002
v -0.10984079 0.01541143 -0.21568610
v -0.11495870 0.02647312 -0.21877559
v -0.11541859 0.03734738 -0.22338327
v -0.10748436 0.03795189 -0.22751882
v -0.11958775 0.05516159 -0.22800831
v -0.09710782 0.00861729 -0.21789680
v 0.00083540 -0.02668030 -0.21487587
v -0.09776402 0.01400760 -0.22080627
v -0.08727175 0.02104796 -0.22811544
v -0.14574347 0.02304178 -0.19664204
v -0.15562132 -0.00215516 -0.16819166
v -0.16960568 0.01427165 -0.16536589
v -0.15637022 0.02082110 -0.18556004
v -0.15892310 -0.09290087 -0.01452959
v -0.17289779 -0.03402449 -0.10623058
v -0.16793547 -0.01983903 -0.13341105
v -0.16423461 -0.08122066 -0.03816315
v -0.17414043 -0.01190045 -0.13226806
v -0.17378169 -0.00687237 -0.13881338
v -0.16889000 -0.00127068 -0.15243909
v -0.17765995 0.00337423 -0.14321022
v -0.17215134 0.02465163 -0.17024533
v -0.18700069 0.00388959 -0.12601899
v -0.18293754 0.01555357 -0.14630316
v -0.18817986 0.01445039 -0.13524702
v -0.18126525 -0.01952286 -0.10960510
v -0.18872590 -0.01132275 -0.10330881
v -0.18565680 -0.04180239 -0.06479045
v -0.17883277 -0.06538757 -0.03812705
v -0.17713637 -0.04870133 -0.07459421
v -0.18069624 -0.03742076 -0.08535710
v -0.17476726 -0.07355137 -0.02970836
v -0.14950264 0.03556060 -0.20097551
v -0.15475375 0.04405886 -0.20055764
v -0.09938250 -0.11679650 -0.03410750
v -0.18111706 0.03436046 -0.16500444
v -0.16958497 -0.07420429 -0.04296711
v -0.17208658 -0.08422060 -0.00381508
v -0.15998818 0.04231745 -0.19500098
v -0.16942451 0.03507496 -0.18067107
v -0.15510842 0.05622112 -0.20554386
v -0.13430219 0.03873417 -0.21357439
v -0.12889312 0.04703372 -0.22024983
v -0.17721285 -0.07674444 -0.01092071
v -0.18662215 0.02697352 -0.14984181
v -0.16742500 0.04981140 -0.19125304
v -0.14232574 0.05261876 -0.21392252
v -0.17734723 0.04630776 -0.17783696
v -0.13185975 0.05250999 -0.22077343
v -0.17489078 0.05926897 -0.18754006
v -0.16223300 0.05886892 -0.20045777
v -0.15154322 0.05929060 -0.20952591
v -0.18946233 0.03058244 -0.14808055
v -0.18361266 0.04521570 -0.16848319
v -0.17188242 0.06711998 -0.19403040
v -0.10412200 0.05108343 -0.23370656
v -0.11504782 0.05755802 -0.23080421
v -0.18218414 0.06296498 -0.18017162
v -0.18051399 0.07300400 -0.18626000
v -0.12834148 0.07775263 -0.22927077
v -0.13645700 0.08192700 -0.22567099
v -0.13927764 0.07402350 -0.22248881
v -0.13332306 0.06622568 -0.22401095
v -0.16316394 0.06627625 -0.20233443
v -0.17075760 0.08471973 -0.20070277
v -0.15812083 0.07092163 -0.20812845
v -0.12051195 0.06896342 -0.23124192
v -0.10982578 0.08147177 -0.23858808
v -0.12514505 0.09484846 -0.23377914
v -0.11438647 0.08407043 -0.23693385
v -0.12313515 0.08543205 -0.23322088
v -0.15421306 0.07584303 -0.21253890
v -0.14790384 0.08149258 -0.21857388
v -0.15898834 0.09160441 -0.21265723
v -0.16243901 0.10123150 -0.21161012
v -0.17629528 0.07585427 -0.19229300
v 0.04950000 -0.02417625 -0.21122549
v -0.16885098 0.08707739 -0.20336674
v -0.15580669 0.10994249 -0.21772216
v -0.15523119 0.10397016 -0.21742784
v -0.15008322 0.12271763 -0.22261381
f 126 127 610
f 608 610 127
f 8 610 608
f 9 610 8
f 9 30 610
f 610 30 123
f 124 610 123
f 123 31 124
f 31 126 124
f 122 126 31
f 122 125 126
f 129 125 122
f 129 133 125
f 131 133 129
f 132 133 131
f 133 132 141
f 141 134 133
f 140 134 141
f 140 135 134
f 146 135 140
f 139 146 140
f 80 146 139
f 81 146 80
f 81 112 146
f 112 147 146
f 147 148 146
f 148 111 146
f 112 111 148
f 112 96 111
f 82 96 112
f 95 96 82
f 95 98 96
f 98 97 96
f 99 97 98
f 99 101 97
f 107 101 99
f 101 107 225
f 107 240 225
f 240 226 225
f 240 311 226
f 240 241 311
f 241 212 311
f 212 218 311
f 311 218 312
f 206 312 218
f 206 205 312
f 312 205 202
f 312 202 201
f 312 201 203
f 312 203 109
f 226 312 109
f 109 203 154
f 203 204 154
f 203 197 204
f 153 204 197
f 197 160 153
f 160 197 161
f 197 163 161
f 197 196 163
f 197 199 196
f 198 199 197
f 33 199 198
f 199 33 180
f 180 179 199
f 180 178 179
f 341 178 180
f 200 341 180
f 33 341 200
f 33 340 341
f 340 339 341
f 339 181 341
f 181 182 341
f 339 182 181
f 339 184 182
f 195 184 339
f 337 195 339
f 337 339 338
f 209 338 339
f 209 339 208
f 210 209 208
f 215 209 210
f 215 210 313
f 313 330 215
f 313 314 330
f 315 330 314
f 315 329 330
f 329 216 330
f 329 323 216
f 323 325 216
f 326 325 323
f 326 333 325
f 333 193 325
f 333 335 193
f 335 194 193
f 193 194 522
f 194 606 522
f 606 523 522
f 523 520 522
f 523 524 520
f 451 520 524
f 451 450 520
f 520 450 436
f 520 436 521
f 520 521 525
f 521 526 525
f 526 187 525
f 525 187 186
f 525 186 188
f 522 525 188
f 190 522 188
f 191 190 188
f 191 336 190
f 336 191 189
f 189 185 336
f 336 185 195
f 189 187 185
f 536 185 187
f 187 518 536
f 518 519 536
f 536 519 455
f 536 455 498
f 498 455 496
f 498 496 495
f 497 498 495
f 185 498 497
f 183 185 497
f 183 497 176
f 176 497 177
f 177 497 492
f 176 177 492
f 175 176 492
f 175 492 499
f 499 492 500
f 174 499 500
f 174 500 164
f 500 490 164
f 164 490 167
f 490 168 167
f 490 481 168
f 490 482 481
f 490 483 482
f 461 483 490
f 461 490 494
f 491 494 490
f 492 494 491
f 492 493 494
f 495 494 493
f 494 495 456
f 456 489 494
f 489 458 494
f 459 494 458
f 459 458 461
f 460 461 458
f 461 460 426
f 426 462 461
f 414 462 426
f 462 414 391
f 392 462 391
f 462 392 396
f 396 483 462
f 396 395 483
f 483 395 481
f 481 395 464
f 481 464 484
f 484 464 173
f 484 173 168
f 168 173 169
f 170 169 173
f 170 173 171
f 173 172 171
f 171 172 464
f 464 342 171
f 464 345 342
f 464 463 345
f 345 463 395
f 395 343 345
f 395 394 343
f 392 394 395
f 392 362 394
f 465 394 362
f 362 343 465
f 362 361 343
f 362 363 361
f 390 363 362
f 389 390 362
f 393 390 389
f 393 361 390
f 402 361 393
f 401 402 393
f 466 402 401
f 403 402 466
f 478 403 466
f 478 466 479
f 488 478 479
f 488 479 467
f 485 488 467
f 467 506 485
f 506 467 471
f 470 506 471
f 470 471 469
f 469 471 468
f 471 486 468
f 468 486 469
f 469 486 476
f 476 486 399
f 486 406 399
f 486 466 406
f 399 406 398
f 406 393 398
f 398 412 399
f 408 399 412
f 412 415 408
f 415 412 413
f 415 413 414
f 427 415 414
f 410 415 427
f 410 427 414
f 420 410 414
f 420 414 424
f 420 424 425
f 420 425 419
f 419 425 452
f 452 425 418
f 452 418 453
f 434 452 453
f 521 434 453
f 453 454 521
f 519 521 454
f 434 433 452
f 433 437 452
f 452 437 432
f 438 432 437
f 438 437 435
f 448 438 435
f 447 438 448
f 421 438 447
f 440 421 447
f 439 421 440
f 439 430 421
f 441 430 439
f 441 439 442
f 443 441 442
f 443 444 441
f 443 446 444
f 446 445 444
f 446 474 445
f 472 474 446
f 474 472 411
f 411 409 474
f 409 411 408
f 476 408 411
f 477 476 411
f 475 477 411
f 475 469 477
f 472 469 475
f 472 473 469
f 408 476 400
f 408 407 409
f 428 409 407
f 441 409 428
f 445 409 441
f 407 410 428
f 428 410 422
f 429 428 422
f 430 428 429
f 430 429 422
f 430 422 423
f 423 422 420
f 431 423 420
f 421 423 431
f 407 408 410
f 411 472 475
f 473 472 446
f 445 474 409
f 444 445 441
f 441 428 430
f 421 430 423
f 421 431 438
f 449 448 435
f 451 449 435
f 435 436 451
f 435 434 436
f 438 431 432
f 432 431 419
f 437 433 435
f 433 434 435
f 453 418 454
f 418 455 454
f 455 418 456
f 418 417 456
f 456 417 457
f 416 457 417
f 416 414 457
f 460 457 414
f 425 414 416
f 425 416 417
f 418 425 417
f 432 419 452
f 431 420 419
f 424 414 425
f 420 422 410
f 413 397 414
f 398 397 413
f 398 389 397
f 397 389 391
f 410 408 415
f 400 399 408
f 412 398 413
f 476 399 400
f 477 469 476
f 470 469 473
f 467 486 471
f 486 467 479
f 480 478 488
f 480 387 478
f 480 405 387
f 501 405 480
f 504 501 480
f 504 503 501
f 505 503 504
f 487 505 504
f 505 564 503
f 503 502 501
f 502 384 501
f 384 502 507
f 507 508 384
f 508 514 384
f 508 510 514
f 515 514 510
f 543 514 515
f 515 567 543
f 543 567 546
f 567 561 546
f 567 573 561
f 12 573 567
f 558 573 12
f 558 12 557
f 557 560 558
f 558 560 559
f 559 560 371
f 371 560 544
f 544 560 555
f 544 555 376
f 555 545 376
f 545 555 547
f 548 547 555
f 555 552 548
f 556 552 555
f 556 555 557
f 2 556 557
f 557 10 2
f 2 6 556
f 6 552 556
f 5 552 6
f 552 5 554
f 552 554 550
f 553 550 554
f 582 553 554
f 582 574 553
f 565 574 582
f 583 565 582
f 4 583 582
f 4 587 583
f 583 587 577
f 587 579 577
f 587 584 579
f 605 584 587
f 587 588 605
f 605 588 1
f 7 605 1
f 7 594 605
f 607 594 7
f 594 607 584
f 607 593 584
f 607 595 593
f 607 603 595
f 604 603 607
f 604 607 8
f 608 603 604
f 609 603 608
f 609 127 603
f 602 603 127
f 602 601 603
f 602 581 601
f 602 578 581
f 578 602 592
f 592 602 591
f 591 602 128
f 590 591 128
f 590 589 591
f 596 591 589
f 600 596 589
f 600 599 596
f 598 599 600
f 597 599 598
f 134 597 598
f 599 597 596
f 597 150 596
f 597 221 150
f 597 135 221
f 137 221 135
f 137 151 221
f 220 151 137
f 220 222 151
f 222 152 151
f 222 155 152
f 153 155 222
f 223 153 222
f 111 223 222
f 111 110 223
f 110 224 223
f 224 108 223
f 96 108 224
f 108 96 225
f 225 109 108
f 108 109 153
f 110 96 224
f 222 149 111
f 222 137 149
f 111 149 137
f 108 153 223
f 155 153 156
f 155 156 152
f 156 159 152
f 156 538 159
f 538 537 159
f 165 537 538
f 538 160 165
f 162 165 160
f 162 164 165
f 164 166 165
f 166 527 165
f 527 166 169
f 166 167 169
f 165 527 535
f 535 527 530
f 537 535 530
f 537 530 531
f 533 537 531
f 533 531 532
f 533 532 578
f 534 533 578
f 585 533 534
f 585 534 586
f 150 585 586
f 151 585 150
f 158 585 151
f 157 158 151
f 157 159 158
f 159 533 158
f 586 534 596
f 592 596 534
f 158 533 585
f 578 532 572
f 578 572 571
f 578 571 576
f 576 571 562
f 576 562 581
f 581 562 563
f 581 563 570
f 581 570 595
f 595 570 580
f 580 570 568
f 568 575 580
f 575 579 580
f 575 568 569
f 577 575 569
f 569 565 577
f 569 551 565
f 569 542 551
f 541 551 542
f 542 516 541
f 517 516 542
f 539 517 542
f 542 562 539
f 568 562 542
f 539 562 528
f 528 517 539
f 512 517 528
f 529 512 528
f 571 529 528
f 512 529 511
f 530 511 529
f 530 170 511
f 511 509 512
f 511 171 509
f 171 346 509
f 509 346 344
f 344 350 509
f 509 350 349
f 513 509 349
f 509 513 516
f 513 347 516
f 347 540 516
f 347 349 540
f 540 349 375
f 549 540 375
f 541 540 549
f 541 549 553
f 553 565 541
f 545 549 375
f 545 548 549
f 548 550 549
f 348 375 349
f 377 375 348
f 378 375 377
f 377 370 378
f 370 376 378
f 374 376 370
f 370 372 374
f 373 374 372
f 373 371 374
f 380 373 372
f 380 566 373
f 546 566 380
f 546 380 381
f 546 381 382
f 381 369 382
f 382 369 366
f 382 366 368
f 383 382 368
f 385 382 383
f 385 384 382
f 383 368 385
f 404 385 368
f 385 404 405
f 405 404 386
f 368 386 404
f 386 368 388
f 386 388 402
f 368 366 388
f 354 388 366
f 360 388 354
f 388 360 361
f 360 359 361
f 361 359 358
f 358 355 361
f 355 358 356
f 358 357 356
f 354 357 358
f 357 354 356
f 354 353 356
f 356 353 377
f 377 353 352
f 352 364 377
f 354 364 352
f 365 364 354
f 365 366 364
f 367 364 366
f 366 380 367
f 367 380 379
f 379 370 367
f 364 367 370
f 352 353 354
f 351 355 356
f 351 356 350
f 350 356 348
f 351 350 342
f 343 355 351
f 359 360 358
f 358 360 354
f 366 365 354
f 366 369 380
f 369 381 380
f 559 373 566
f 372 379 380
f 379 372 370
f 364 370 377
f 376 375 378
f 356 377 348
f 347 513 349
f 348 349 350
f 350 344 342
f 171 344 346
f 509 517 512
f 517 509 516
f 516 540 541
f 565 551 541
f 568 542 569
f 563 568 570
f 563 562 568
f 528 562 571
f 572 529 571
f 532 529 572
f 532 531 529
f 530 529 531
f 527 170 530
f 163 164 162
f 163 179 164
f 537 165 535
f 533 159 537
f 160 538 156
f 152 159 157
f 151 152 157
f 137 222 220
f 136 137 135
f 136 146 137
f 221 151 150
f 150 586 596
f 598 600 589
f 598 589 128
f 125 598 128
f 127 125 128
f 589 590 128
f 596 592 591
f 592 534 578
f 581 578 576
f 581 595 601
f 128 602 127
f 603 601 595
f 593 595 580
f 584 593 580
f 7 8 607
f 1 588 587
f 584 605 594
f 584 580 579
f 577 579 575
f 4 1 587
f 582 3 4
f 5 3 582
f 583 577 565
f 574 565 553
f 550 553 549
f 5 582 554
f 552 550 548
f 548 545 547
f 545 375 376
f 374 544 376
f 374 371 544
f 559 371 373
f 566 558 559
f 558 566 561
f 557 555 560
f 12 10 557
f 12 567 13
f 11 12 13
f 573 558 561
f 546 561 566
f 543 546 382
f 13 567 515
f 543 382 514
f 384 514 382
f 501 384 385
f 504 480 487
f 405 501 385
f 386 387 405
f 403 387 386
f 486 479 466
f 478 387 403
f 403 386 402
f 466 401 406
f 406 401 393
f 402 388 361
f 393 389 398
f 391 389 362
f 390 361 363
f 361 355 343
f 394 465 343
f 351 345 343
f 345 351 342
f 342 344 171
f 170 171 511
f 170 527 169
f 173 464 172
f 464 395 463
f 396 392 395
f 362 392 391
f 414 397 391
f 414 426 460
f 457 460 458
f 489 457 458
f 456 457 489
f 492 495 493
f 492 491 490
f 459 461 494
f 462 483 461
f 481 482 483
f 481 484 168
f 169 167 168
f 164 167 166
f 179 174 164
f 492 490 500
f 175 499 174
f 174 178 175
f 178 182 175
f 182 183 175
f 183 176 175
f 183 184 185
f 492 497 495
f 456 495 496
f 455 456 496
f 519 454 455
f 521 519 518
f 521 518 187
f 185 536 498
f 190 336 192
f 336 332 192
f 332 336 337
f 324 192 332
f 324 332 217
f 216 217 332
f 214 216 332
f 214 332 215
f 213 215 332
f 213 332 209
f 216 214 215
f 216 324 217
f 325 192 324
f 334 192 325
f 190 192 334
f 193 190 334
f 191 188 189
f 189 188 186
f 189 186 187
f 526 521 187
f 436 434 521
f 451 436 450
f 520 525 522
f 193 522 190
f 325 193 334
f 327 326 323
f 328 326 327
f 316 328 327
f 316 327 331
f 309 316 331
f 309 331 308
f 308 331 310
f 310 331 323
f 310 323 315
f 310 315 307
f 307 315 254
f 254 315 313
f 313 211 254
f 251 254 211
f 253 254 251
f 255 254 253
f 318 255 253
f 256 255 318
f 256 318 258
f 318 319 258
f 319 318 252
f 252 250 319
f 250 252 244
f 252 251 244
f 245 250 244
f 250 245 247
f 246 250 247
f 249 250 246
f 258 250 249
f 248 258 249
f 248 259 258
f 259 260 258
f 260 259 261
f 322 260 261
f 322 261 40
f 233 322 40
f 45 322 233
f 45 44 322
f 44 41 322
f 41 297 322
f 297 298 322
f 298 299 322
f 297 299 298
f 296 299 297
f 296 305 299
f 305 264 299
f 305 265 264
f 268 265 305
f 268 305 301
f 300 301 305
f 305 276 300
f 276 305 42
f 234 276 42
f 234 275 276
f 275 288 276
f 290 276 288
f 288 292 290
f 288 294 292
f 294 295 292
f 293 295 294
f 286 293 294
f 286 294 289
f 277 286 289
f 277 289 288
f 287 286 277
f 285 287 277
f 282 285 277
f 282 277 283
f 284 282 283
f 28 284 283
f 28 283 279
f 279 283 278
f 280 279 278
f 280 278 281
f 281 271 280
f 281 270 271
f 270 281 272
f 270 272 271
f 271 272 49
f 272 47 49
f 272 43 47
f 272 234 43
f 272 273 234
f 274 273 272
f 274 275 273
f 274 277 275
f 278 277 274
f 278 274 269
f 269 272 278
f 269 274 272
f 43 234 44
f 43 44 48
f 44 233 48
f 48 233 46
f 46 233 39
f 39 233 57
f 57 58 39
f 57 259 58
f 259 38 58
f 58 38 235
f 58 235 59
f 59 235 60
f 60 235 37
f 235 36 37
f 235 248 36
f 248 247 36
f 36 247 321
f 321 247 34
f 321 34 99
f 106 321 99
f 35 321 106
f 94 35 106
f 105 94 106
f 105 106 92
f 106 95 92
f 92 95 85
f 85 95 84
f 84 95 86
f 86 95 83
f 83 95 81
f 89 83 81
f 89 81 79
f 77 89 79
f 77 90 89
f 86 89 90
f 88 86 90
f 87 86 88
f 92 87 88
f 91 92 88
f 93 92 91
f 103 92 93
f 103 93 91
f 103 91 102
f 102 63 103
f 63 94 103
f 63 104 94
f 63 60 104
f 36 104 60
f 36 35 104
f 230 63 102
f 231 230 102
f 67 230 231
f 67 231 228
f 228 231 227
f 227 231 20
f 20 231 68
f 68 231 69
f 69 231 18
f 231 70 18
f 231 71 70
f 70 71 72
f 72 71 91
f 72 91 73
f 73 91 77
f 74 73 77
f 74 77 75
f 75 77 114
f 114 77 113
f 114 113 144
f 144 117 114
f 114 117 116
f 117 143 116
f 78 143 117
f 143 78 145
f 145 80 143
f 143 80 142
f 143 142 132
f 142 140 132
f 80 140 142
f 80 138 140
f 78 80 145
f 79 80 78
f 113 78 117
f 116 143 132
f 116 132 32
f 115 116 32
f 115 32 24
f 24 114 115
f 76 114 24
f 17 76 24
f 17 75 76
f 24 32 25
f 16 25 32
f 16 32 118
f 118 32 15
f 15 32 119
f 32 120 119
f 120 31 119
f 120 121 31
f 120 130 121
f 120 131 130
f 121 130 31
f 31 29 119
f 119 29 9
f 31 30 29
f 32 131 120
f 9 15 119
f 16 118 15
f 114 116 115
f 144 113 117
f 77 78 113
f 75 114 76
f 74 75 17
f 72 74 17
f 18 72 17
f 72 73 74
f 70 72 18
f 228 227 19
f 19 64 228
f 26 64 19
f 229 64 26
f 229 65 64
f 51 65 229
f 27 51 229
f 52 51 27
f 52 53 51
f 52 49 53
f 49 46 53
f 53 46 54
f 53 54 232
f 232 54 55
f 65 232 55
f 65 55 66
f 55 62 66
f 66 62 59
f 66 59 67
f 64 66 67
f 61 59 62
f 39 61 62
f 61 39 59
f 39 62 55
f 54 39 55
f 56 39 54
f 46 56 54
f 51 53 232
f 22 52 27
f 23 52 22
f 23 271 52
f 50 271 23
f 21 271 50
f 21 50 23
f 51 232 65
f 65 66 64
f 27 229 26
f 64 67 228
f 67 59 230
f 231 102 71
f 59 63 230
f 71 102 91
f 91 88 77
f 87 92 86
f 88 90 77
f 77 79 78
f 89 86 83
f 85 84 86
f 92 85 86
f 103 105 92
f 94 105 103
f 104 35 94
f 106 99 95
f 34 100 99
f 34 107 100
f 236 107 34
f 236 237 107
f 236 238 237
f 236 239 238
f 239 240 238
f 244 239 236
f 239 244 241
f 242 241 244
f 244 211 242
f 211 243 242
f 211 212 243
f 211 219 212
f 219 210 212
f 212 210 207
f 212 207 206
f 206 207 33
f 208 33 207
f 211 210 219
f 242 243 241
f 107 237 238
f 34 244 236
f 36 321 35
f 37 36 60
f 60 63 59
f 235 38 248
f 58 59 39
f 46 39 56
f 48 46 49
f 47 43 48
f 49 47 48
f 271 49 52
f 280 271 21
f 14 280 21
f 14 28 280
f 281 278 272
f 28 279 280
f 283 277 278
f 295 291 292
f 291 301 292
f 291 304 301
f 304 303 301
f 304 317 303
f 303 317 309
f 302 303 309
f 302 309 267
f 302 267 265
f 265 267 266
f 267 308 266
f 308 307 266
f 266 307 306
f 306 307 255
f 266 306 255
f 320 266 255
f 265 266 320
f 263 265 320
f 263 320 262
f 262 320 256
f 260 262 256
f 299 262 260
f 260 256 257
f 263 262 299
f 302 301 303
f 289 294 288
f 290 292 276
f 288 275 277
f 273 275 234
f 44 234 42
f 292 300 276
f 300 292 301
f 268 301 302
f 268 302 265
f 263 264 265
f 299 264 263
f 42 305 296
f 296 297 42
f 42 297 41
f 44 42 41
f 44 45 233
f 233 40 57
f 40 261 57
f 322 299 260
f 57 261 259
f 260 257 258
f 259 248 38
f 248 249 247
f 249 246 247
f 247 245 34
f 245 244 34
f 258 319 250
f 257 256 258
f 256 320 255
f 253 252 318
f 252 253 251
f 251 211 244
f 307 254 255
f 308 310 307
f 267 309 308
f 317 316 309
f 331 327 323
f 325 324 216
f 315 323 329
f 315 314 313
f 330 216 215
f 313 210 211
f 213 209 215
f 210 208 207
f 332 338 209
f 337 338 332
f 336 195 337
f 195 185 184
f 183 182 184
f 208 339 340
f 208 340 33
f 341 182 178
f 178 174 179
f 200 180 33
f 33 198 205
f 201 205 198
f 201 198 197
f 199 179 196
f 196 179 163
f 161 163 162
f 161 162 160
f 153 160 156
f 154 204 153
f 109 154 153
f 203 201 197
f 205 201 202
f 206 33 205
f 218 212 206
f 243 212 241
f 239 241 240
f 311 312 226
f 225 226 109
f 238 240 107
f 100 107 99
f 97 101 225
f 225 96 97
f 99 98 95
f 95 82 81
f 110 111 96
f 146 111 137
f 112 148 147
f 82 112 81
f 79 81 80
f 80 139 138
f 139 140 138
f 146 136 135
f 134 135 597
f 134 598 133
f 132 140 141
f 32 132 131
f 130 131 129
f 133 598 125
f 130 129 122
f 130 122 31
f 30 31 123
f 9 29 30
f 608 604 8
f 608 127 609
f 124 126 610
f 126 125 127

