v -0.209845 0.0119292 0.00162267
v -0.214274 0.00919128 0.0149776
v -0.217305 0.0237467 0.0162633
v -0.216214 0.00733516 0.0292151
v -0.220381 0.0384497 0.017574
v -0.223541 0.0531824 0.0188757
v -0.21624 0.0400841 0.00424875
v -0.220601 0.0551855 0.00492789
v -0.227178 0.0682325 0.0200065
v -0.22817 0.0661709 0.0342494
v -0.224938 0.0512566 0.0332748
v -0.220142 0.0200541 0.0450784
v -0.217246 0.00351643 0.0580773
v -0.213797 -0.0111591 0.0561769
v -0.209964 -0.0257057 0.0541033
v -0.211808 -0.0127385 0.0702679
v -0.207564 -0.0271826 0.0684225
v -0.202979 -0.0414655 0.0664418
v -0.196598 -0.0548085 0.0638487
v -0.198664 -0.0531689 0.0493955
v -0.205283 -0.0376234 0.0373761
v -0.204226 -0.0351795 0.0228581
v -0.209083 -0.0211333 0.025159
v -0.210073 0.0454294 -0.10899
v -0.212903 0.0256994 0.00297584
v -0.196517 -0.00571812 -0.088166
v -0.195062 0.000592915 -0.102057
v -0.193509 0.00871128 -0.115815
v -0.193629 0.0226979 -0.129813
v -0.20018 0.0310662 -0.123217
v -0.197517 0.0598339 -0.153683
v -0.204257 0.0655769 -0.142438
v -0.200066 0.0809275 -0.159881
v -0.192716 0.077721 -0.170817
v -0.178535 0.0967676 -0.19552
v -0.169182 0.114055 -0.207422
v -0.231228 0.0852673 0.00716812
v -0.172422 0.151675 -0.205716
v -0.175552 0.168207 -0.201147
v -0.177547 0.184 -0.196052
v -0.189996 0.211122 -0.173872
v -0.189666 0.225349 -0.167313
v -0.198803 0.221118 -0.156323
v -0.19914 0.207035 -0.162703
v -0.214726 0.199166 -0.137854
v -0.221116 0.181966 -0.129033
v -0.220729 0.168148 -0.133223
v -0.214391 0.171445 -0.147273
v -0.207536 0.189121 -0.156024
v -0.196622 0.162986 -0.178336
v -0.188592 0.1812 -0.185635
v -0.186545 0.165695 -0.190304
v -0.189725 0.196358 -0.180182
v -0.198299 0.178005 -0.173746
v -0.183701 0.149662 -0.194601
v -0.181209 0.133248 -0.197501
v -0.189225 0.115536 -0.186602
v -0.195351 0.0981586 -0.174094
v -0.202852 0.0983857 -0.161579
v -0.205911 0.113834 -0.160552
v -0.215566 0.126327 -0.143097
v -0.218166 0.140138 -0.140263
v -0.223304 0.137529 -0.124722
v -0.211295 0.142685 -0.155022
v -0.205538 0.160107 -0.165249
v -0.20351 0.145355 -0.169117
v -0.200568 0.130427 -0.172266
v -0.213143 0.15714 -0.151331
v -0.219668 0.154184 -0.136945
v -0.224974 0.151308 -0.121908
v -0.23027 0.162566 -0.103425
v -0.226189 0.165125 -0.11867
v -0.226337 0.178783 -0.114557
v -0.225694 0.0704296 0.00580388
v -0.24063 0.137872 -0.0458741
v -0.242347 0.135325 -0.0310469
v -0.243717 0.132952 -0.0163064
v -0.244561 0.130618 -0.00128213
v -0.241481 0.111557 0.0261051
v -0.232663 0.0808365 0.0359617
v -0.236507 0.094618 0.0388668
v -0.237505 0.0977275 0.0232269
v -0.237128 0.0997368 0.0087094
v -0.230402 0.0875115 -0.00742462
v -0.230892 0.0899392 -0.0222453
v -0.231702 0.0921917 -0.0372103
v -0.23592 0.106263 -0.0353889
v -0.235096 0.109421 -0.0498916
v -0.228702 0.102276 -0.0815446
v -0.233592 0.112765 -0.0648181
v -0.2315 0.115893 -0.079872
v -0.236268 0.126448 -0.0629832
v -0.228765 0.118647 -0.0955331
v -0.233974 0.129483 -0.0781788
v -0.230943 0.132158 -0.0937156
v -0.227891 0.134849 -0.109155
v -0.235997 0.143278 -0.0759484
v -0.232864 0.145997 -0.0912455
v -0.218556 0.110363 -0.12955
v -0.212952 0.0844161 -0.13166
v -0.21575 0.0970953 -0.131261
v -0.217663 0.082165 -0.114799
v -0.220373 0.0948528 -0.114354
v -0.222996 0.107966 -0.113054
v -0.21489 0.0698181 -0.114713
v -0.212398 0.0575903 -0.11248
v -0.215055 0.0538994 -0.0976547
v -0.218014 0.0667151 -0.0985973
v -0.219566 0.0626706 -0.0845023
v -0.217093 0.0456424 -0.0722195
v -0.220333 0.0589756 -0.0702863
v -0.223892 0.0723573 -0.0688657
v -0.227259 0.0857544 -0.0675732
v -0.227558 0.08208 -0.0532648
v -0.223754 0.0687234 -0.0548219
v -0.208275 0.0191026 -0.0786572
v -0.212694 0.0323679 -0.0754365
v -0.202736 0.00660275 -0.0829892
v -0.197667 -0.0114066 -0.0744073
v -0.203744 0.00110902 -0.0691495
v -0.232315 0.0830174 0.0214811
v -0.228295 0.0639252 0.0489682
v -0.207435 0.014847 -0.0651203
v -0.216138 0.0496877 -0.0853169
v -0.211769 0.0364827 -0.0883804
v -0.211082 0.0408486 -0.0986595
v -0.207394 0.0237479 -0.0902595
v -0.206125 0.0297594 -0.102976
v -0.222651 0.0758914 -0.0837052
v -0.230394 0.0991029 -0.0664237
v -0.207437 0.0542034 -0.125202
v -0.22096 0.079426 -0.0986612
v -0.223702 0.0922671 -0.0979828
v -0.221143 0.123827 -0.127386
v -0.237352 0.157372 -0.0730392
v -0.225491 0.121324 -0.111268
v -0.226404 0.105303 -0.0969381
v -0.225783 0.08923 -0.0825627
v -0.231468 0.0956565 -0.0516202
v -0.236677 0.103389 -0.0209846
v -0.240628 0.118441 -0.018902
v -0.239767 0.120876 -0.0333327
v -0.241947 0.114296 0.0104121
v -0.241438 0.116059 -0.00441815
v -0.236888 0.101666 -0.00606548
v -0.231595 0.07772 0.0508308
v -0.230083 0.0752258 0.0660518
v -0.22751 0.0613511 0.0641425
v -0.223925 0.045225 0.0771633
v -0.22595 0.0591015 0.0790246
v -0.227684 0.0729083 0.0809309
v -0.220395 0.0425543 0.0914231
v -0.223141 0.0705157 0.0954442
v -0.224092 0.0845234 0.0974529
v -0.224398 0.0985238 0.0998175
v -0.230291 0.100805 0.0865238
v -0.234617 0.103059 0.0725448
v -0.237682 0.105569 0.0577017
v -0.23307 0.0892123 0.0686361
v -0.217914 0.0283542 0.0895287
v -0.222013 0.0565401 0.0933717
v -0.229361 0.0867773 0.0831457
v -0.221718 0.0309274 0.0756001
v -0.225228 0.0471598 0.0624863
v -0.235114 0.0917088 0.0537158
v -0.240166 0.108342 0.042022
v -0.244162 0.127994 0.0144924
v -0.238373 0.123358 -0.0479652
v -0.238701 0.140582 -0.0608853
v -0.243186 0.149658 -0.0277207
v -0.242096 0.152054 -0.0429292
v -0.240052 0.154704 -0.0579667
v -0.234122 0.159983 -0.0882027
v -0.229302 0.148677 -0.106554
v -0.208701 0.128352 -0.158256
v -0.209667 0.0980196 -0.146923
v -0.212936 0.112529 -0.145794
v -0.197639 0.115542 -0.174678
v -0.191296 0.132459 -0.185622
v -0.194352 0.147821 -0.182423
v -0.206872 0.174664 -0.160894
v -0.215026 0.1856 -0.142807
v -0.220884 0.195279 -0.124221
v -0.207522 0.203229 -0.150627
v -0.199118 0.192766 -0.168487
v -0.213304 0.212336 -0.131341
v -0.206761 0.216912 -0.144346
v -0.169893 0.132945 -0.208165
v -0.179543 0.11549 -0.197652
v -0.187013 0.097923 -0.185691
v -0.206697 0.0834059 -0.146825
v -0.210037 0.0701482 -0.130793
v -0.201884 0.0476245 -0.134979
v -0.205415 0.0383531 -0.116234
v -0.201771 0.0128902 -0.0964151
v -0.200799 0.0197795 -0.109532
v -0.20309 -0.0328221 0.008306
v -0.212851 -0.00700387 0.0273745
v -0.206984 -0.0188814 0.010377
v -0.210661 -0.0049332 0.0129031
v -0.204646 -0.0154341 -0.00353027
v -0.207107 -0.00163679 -0.000573909
v -0.200428 -0.029879 -0.0065555
v -0.216134 0.00171048 0.072248
v -0.204612 -0.039709 0.0519258
v -0.20972 -0.0234095 0.0395996
v -0.213795 -0.00897532 0.0417472
v -0.219345 0.0164899 0.0740222
v -0.220306 0.0182225 0.0596138
v -0.222781 0.032706 0.0610385
v -0.217337 0.0054343 0.0437199
v -0.219224 0.0220109 0.0305553
v -0.222152 0.0366716 0.0319162
v -0.222833 0.0346815 0.0464381
v -0.225453 0.0491915 0.0478222
f 202 200 2 1
f 200 198 4 2
f 4 212 3 2
f 5 7 25 3
f 212 213 5 3
f 198 207 211 4
f 211 12 212 4
f 6 8 7 5
f 213 11 6 5
f 9 74 8 6
f 11 10 9 6
f 121 37 74 9
f 10 80 121 9
f 11 215 122 10
f 122 146 80 10
f 213 214 215 11
f 214 213 212 12
f 211 13 209 12
f 209 210 214 12
f 211 207 14 13
f 14 16 204 13
f 204 208 209 13
f 207 206 15 14
f 15 17 16 14
f 206 21 205 15
f 205 18 17 15
f 205 20 19 18
f 206 23 22 21
f 23 199 197 22
f 198 200 199 23
f 206 207 198 23
f 118 195 27 26
f 119 120 118 26
f 195 196 28 27
f 196 30 29 28
f 194 131 193 30
f 196 128 194 30
f 32 191 33 31
f 192 100 191 32
f 193 131 192 32
f 191 176 59 33
f 59 58 34 33
f 190 57 189 35
f 189 56 188 36
f 55 52 39 38
f 188 56 55 38
f 52 51 40 39
f 44 43 42 41
f 53 185 44 41
f 44 184 187 43
f 185 49 184 44
f 186 187 184 45
f 184 49 182 45
f 182 46 183 45
f 182 48 47 46
f 47 72 73 46
f 48 68 69 47
f 69 70 72 47
f 182 49 181 48
f 181 65 68 48
f 185 54 181 49
f 65 181 54 50
f 54 51 52 50
f 52 55 180 50
f 180 66 65 50
f 54 185 53 51
f 56 179 180 55
f 189 57 179 56
f 178 67 179 57
f 190 58 178 57
f 59 60 178 58
f 176 177 60 59
f 177 61 175 60
f 175 67 178 60
f 134 63 62 61
f 62 64 175 61
f 177 99 134 61
f 63 70 69 62
f 69 68 64 62
f 96 174 70 63
f 134 136 96 63
f 68 65 66 64
f 66 67 175 64
f 180 179 67 66
f 174 71 72 70
f 174 98 173 71
f 171 172 169 75
f 169 92 168 75
f 168 142 76 75
f 76 170 171 75
f 142 141 77 76
f 141 144 78 77
f 144 143 167 78
f 143 83 82 79
f 82 81 166 79
f 81 82 121 80
f 146 165 81 80
f 165 158 166 81
f 83 37 121 82
f 143 144 145 83
f 145 84 37 83
f 145 140 85 84
f 140 87 86 85
f 87 88 139 86
f 142 168 88 87
f 140 141 142 87
f 168 92 90 88
f 90 130 139 88
f 91 93 137 89
f 137 133 138 89
f 138 113 130 89
f 130 90 91 89
f 92 94 91 90
f 94 95 93 91
f 169 97 94 92
f 95 96 136 93
f 136 104 137 93
f 97 98 95 94
f 98 174 96 95
f 135 173 98 97
f 169 172 135 97
f 104 136 134 99
f 177 176 101 99
f 101 103 104 99
f 102 103 101 100
f 101 176 191 100
f 192 105 102 100
f 105 108 132 102
f 132 133 103 102
f 133 137 104 103
f 192 131 106 105
f 106 107 108 105
f 131 194 24 106
f 24 126 107 106
f 126 125 124 107
f 124 109 108 107
f 109 129 132 108
f 124 110 111 109
f 111 112 129 109
f 124 125 117 110
f 113 138 129 112
f 115 114 113 112
f 114 139 130 113
f 117 125 127 116
f 127 195 118 116
f 118 120 123 116
f 126 128 127 125
f 24 194 128 126
f 128 196 195 127
f 138 133 132 129
f 145 144 141 140
f 122 148 147 146
f 147 159 165 146
f 148 150 151 147
f 151 162 159 147
f 122 215 164 148
f 164 149 150 148
f 164 210 163 149
f 163 160 152 149
f 152 161 150 149
f 161 153 151 150
f 153 154 162 151
f 155 156 162 154
f 157 159 162 156
f 158 165 159 157
f 210 209 208 163
f 215 214 210 164
f 199 201 203 197
f 200 202 201 199
