# https://github.com/mikedh/trimesh
v 0.05968475 0.43457325 -0.00643400
v 0.05405675 0.43185349 0.01042025
v 0.06201650 0.43418049 -0.00995750
v 0.06472600 0.43491799 -0.01394800
v 0.03379869 0.41150500 0.03160844
v 0.08081600 0.37969199 -0.06171000
v 0.08253500 0.37972650 -0.05827150
v 0.08511450 0.37980400 -0.05315400
v 0.04657550 0.42610201 -0.08071150
v 0.08849222 0.38275134 -0.02210883
v 0.08647159 0.38673868 -0.01540256
v 0.08660022 0.38353387 -0.00979781
v 0.08350210 0.38450163 -0.00062697
v 0.08424130 0.38299245 -0.05184704
v 0.08663452 0.38290434 -0.04421742
v 0.08777652 0.38091775 -0.04036098
v 0.07747000 0.38235599 -0.06679600
v 0.08723832 0.38421456 -0.03846843
v 0.08234572 0.38406777 -0.05595529
v 0.07898273 0.38512950 -0.06140347
v 0.07566606 0.39240986 -0.05379652
v 0.06798800 0.39094099 -0.06950800
v 0.07184300 0.38540700 -0.07212500
v 0.08102656 0.39246025 -0.03445554
v 0.08738984 0.38569911 -0.03274894
v 0.08697280 0.38679046 -0.02236788
v 0.08068675 0.39358117 -0.02633946
v 0.08780800 0.38507801 -0.02647900
v 0.07502232 0.42017035 -0.04606059
v 0.07782600 0.41638601 -0.03563400
v 0.07678446 0.41911239 -0.03758179
v 0.07909970 0.41280280 -0.03524457
v 0.07733312 0.41173835 -0.04716386
v 0.08040091 0.40562722 -0.03248574
v 0.07990149 0.40476547 -0.03920669
v 0.07601858 0.42197265 -0.03205035
v 0.07929411 0.41222651 -0.02834268
v 0.07762175 0.41665402 -0.02338806
v 0.08017700 0.40496001 -0.02676500
v 0.07861050 0.40581906 -0.04588331
v 0.07905425 0.40955151 -0.01919533
v 0.07623500 0.41389900 -0.01224800
v 0.07826999 0.39657871 -0.01409167
v 0.07402847 0.42443598 -0.02015339
v 0.07998133 0.40267981 -0.02372284
v 0.07379076 0.42502510 -0.03753150
v 0.07296988 0.42278563 -0.01126984
v 0.07460946 0.42401236 -0.02369109
v 0.07724595 0.40774818 -0.01071355
v 0.07461059 0.40406354 -0.00318393
v 0.07988878 0.39606807 -0.02453608
v 0.07953061 0.39485415 -0.01799252
v 0.08011028 0.39436455 -0.03038251
v 0.07652148 0.39722765 -0.00806497
v 0.07912596 0.39355612 -0.04057605
v 0.07732331 0.40621358 -0.05035135
v 0.07803416 0.39623066 -0.04603562
v 0.07871658 0.39315527 -0.04405985
v 0.07658513 0.40460747 -0.05311765
v 0.07167926 0.39756248 0.00370479
v 0.07294241 0.41780902 -0.00570888
v 0.07518742 0.40957404 -0.05580024
v 0.07311344 0.39263994 -0.05922635
v 0.07258919 0.41588285 -0.05745166
v 0.07389211 0.41572169 -0.05474921
v 0.07232965 0.40300439 -0.06310316
v 0.06960982 0.42542738 -0.05258023
v 0.06747673 0.42020990 -0.06416000
v 0.07115015 0.41045882 -0.06354966
v 0.07048671 0.40372184 -0.06597308
v 0.06979336 0.42090494 -0.05894767
v 0.06738219 0.39815396 -0.07002904
v 0.06673640 0.40961294 -0.07064631
v 0.07031293 0.39231718 -0.06450079
v 0.06507179 0.40561227 -0.07366492
v 0.06435597 0.41682208 -0.07075563
v 0.06800900 0.43070775 -0.02475825
v 0.06394450 0.39343724 -0.07308500
v 0.06185025 0.40194076 -0.07705200
v 0.06220725 0.41095350 -0.07557400
v 0.07157711 0.42632121 -0.04338580
v 0.06534900 0.42565776 -0.06055250
v 0.06590788 0.43204175 -0.01850550
v 0.06234930 0.42203191 -0.06962554
v 0.06933500 0.43000201 -0.02904950
v 0.06399311 0.43242324 -0.00741147
v 0.04541923 0.41703708 0.02655292
v 0.04716092 0.40315356 0.02729775
v 0.03907578 0.40732775 0.03106617
v 0.05400295 0.40281077 0.02281481
v 0.06316527 0.40843461 0.01403197
v 0.06255469 0.40055385 0.01515854
v 0.05336328 0.41213060 0.02294870
v 0.03771459 0.40388690 0.03198805
v 0.05400578 0.42367386 0.01773540
v 0.06370311 0.41585971 0.01102292
v 0.06541088 0.40898417 0.01103750
v 0.06870197 0.39860584 0.00783042
v 0.06449364 0.42335567 0.00578994
v 0.07191556 0.41279067 -0.00000426
v 0.07377752 0.39815844 -0.00123932
v 0.06854243 0.41069574 0.00636605
v 0.06967767 0.42275980 -0.00271901
v 0.06651519 0.42959538 -0.00486393
v 0.06665784 0.42611525 -0.00065625
v 0.08153154 0.38499900 0.00411457
v 0.07238713 0.39015403 0.01709873
v 0.08015017 0.38953670 0.00255990
v 0.08335496 0.38791115 -0.00345179
v 0.08029790 0.39335654 -0.01435924
v 0.05616325 0.40097927 0.02152905
v 0.07284973 0.39250445 0.01246371
v 0.07674375 0.39558287 -0.00563478
v 0.08494356 0.38822393 -0.01240948
v 0.03280157 0.40356655 0.03402296
v 0.08458889 0.38410545 -0.00354113
f 76 73 80
f 76 68 73
f 75 80 73
f 84 76 80
f 68 69 73
f 84 68 76
f 70 75 73
f 75 79 80
f 9 84 80
f 71 69 68
f 69 70 73
f 82 68 84
f 70 72 75
f 79 75 72
f 82 84 9
f 82 71 68
f 64 69 71
f 69 66 70
f 70 66 72
f 79 72 78
f 71 82 67
f 64 62 69
f 65 64 71
f 66 69 62
f 66 74 72
f 74 78 72
f 67 29 71
f 64 65 62
f 29 65 71
f 59 66 62
f 66 63 74
f 67 46 29
f 29 62 65
f 56 59 62
f 59 21 66
f 21 63 66
f 36 29 46
f 81 46 67
f 33 62 29
f 56 40 59
f 33 56 62
f 59 57 21
f 36 31 29
f 36 46 85
f 85 46 81
f 32 33 29
f 40 56 33
f 40 57 59
f 57 58 21
f 31 32 29
f 36 30 31
f 48 36 85
f 33 32 40
f 35 57 40
f 57 55 58
f 30 32 31
f 30 36 32
f 48 37 36
f 77 48 85
f 32 35 40
f 55 57 35
f 36 37 32
f 44 37 48
f 44 48 77
f 34 35 32
f 34 55 35
f 37 34 32
f 38 37 44
f 44 77 83
f 51 55 34
f 41 34 37
f 41 37 38
f 41 38 44
f 104 44 83
f 45 51 34
f 41 39 34
f 47 41 44
f 47 44 104
f 104 83 86
f 45 34 39
f 41 51 45
f 41 45 39
f 47 42 41
f 103 47 104
f 104 86 1
f 43 51 41
f 49 41 42
f 47 49 42
f 61 47 103
f 105 103 104
f 1 86 3
f 2 104 1
f 49 43 41
f 43 52 51
f 47 61 49
f 103 100 61
f 105 99 103
f 99 105 104
f 86 4 3
f 2 99 104
f 49 54 43
f 43 113 52
f 52 53 51
f 49 61 100
f 99 100 103
f 2 95 99
f 54 113 43
f 50 54 49
f 113 110 52
f 49 100 50
f 96 100 99
f 95 96 99
f 113 54 101
f 50 101 54
f 52 110 26
f 113 114 110
f 50 100 102
f 96 102 100
f 96 95 93
f 101 60 113
f 50 98 101
f 52 26 27
f 114 26 110
f 114 113 109
f 50 102 98
f 96 91 102
f 95 87 93
f 91 96 93
f 101 98 60
f 108 113 60
f 26 53 27
f 52 27 53
f 26 114 11
f 108 109 113
f 109 12 114
f 102 97 98
f 91 97 102
f 87 89 93
f 93 90 91
f 112 60 98
f 108 60 112
f 26 24 53
f 11 10 26
f 12 11 114
f 106 109 108
f 109 116 12
f 98 97 91
f 89 87 5
f 89 94 93
f 91 90 111
f 90 93 88
f 98 92 112
f 26 25 24
f 53 24 55
f 10 11 12
f 10 28 26
f 13 109 106
f 109 13 116
f 91 92 98
f 89 5 94
f 88 93 94
f 90 88 111
f 91 111 92
f 107 112 92
f 24 25 55
f 26 28 25
f 51 53 55
f 10 25 28
f 115 94 5
f 25 58 55
f 10 16 25
f 25 18 58
f 16 18 25
f 18 15 58
f 16 15 18
f 15 19 58
f 16 8 15
f 15 14 19
f 19 20 58
f 14 15 7
f 14 7 19
f 19 17 20
f 21 58 20
f 19 7 17
f 20 17 74
f 20 63 21
f 7 6 17
f 17 23 74
f 20 74 63
f 74 23 22
f 74 22 78

