# https://github.com/mikedh/trimesh
v -0.19443750 -0.05654850 0.07000450
v -0.19931350 -0.03998300 0.08288450
v -0.19126800 -0.06423800 0.06161400
v -0.18605700 -0.07320700 0.04776400
v -0.18781750 -0.07040450 0.05320900
v -0.17987625 -0.08000900 0.02967825
v -0.08770400 -0.12842150 0.01254300
v -0.10986600 -0.11254500 -0.03849500
v -0.10339100 -0.11477350 -0.03764900
v -0.13969100 -0.10425200 -0.01708900
v -0.11722900 -0.11240950 -0.02705150
v -0.10019800 -0.11945200 -0.02366800
v -0.15036300 -0.09876100 -0.01331800
v -0.15936200 -0.09523700 -0.00003500
v -0.16609850 -0.09114000 0.00669500
v -0.07449587 -0.12740144 0.01931363
v -0.08968500 -0.12318050 -0.00787400
v -0.04250100 -0.13119800 0.02788000
v -0.05156050 -0.13065775 0.02809500
v -0.06037750 -0.12936250 0.03265050
v -0.06304650 -0.12929675 0.03098425
v -0.09762700 -0.12125450 -0.01084900
v -0.12064200 -0.11362800 0.05455700
v -0.13807381 -0.10708136 0.05617432
v -0.10791497 -0.11748163 0.05452284
v -0.11156933 -0.11462531 0.06358625
v -0.12799871 -0.11217965 0.04891248
v -0.13080633 -0.11153813 0.04362921
v -0.10992324 -0.11971541 0.02683878
v -0.11919600 -0.11613700 0.03777200
v -0.12270200 -0.11503600 0.03674900
v -0.09749298 -0.12209459 0.04287472
v -0.10054896 -0.12220644 0.02494086
v -0.07567549 -0.12718292 0.03262971
v -0.13365372 -0.11133555 0.03040249
v -0.08800690 -0.12415410 0.04475601
v -0.11882486 -0.11693874 0.01756094
v -0.14501381 -0.10363078 0.05823585
v -0.15086639 -0.10237648 0.04334663
v -0.10691209 -0.12005052 0.00408964
v -0.13593412 -0.11019146 0.01643331
v -0.08430220 -0.12588890 0.02601273
v -0.10880973 -0.11991097 0.01224396
v -0.12565527 -0.11416775 0.01277984
v -0.10538088 -0.11920024 -0.00894574
v -0.12108957 -0.11346281 -0.01369271
v -0.10797308 -0.11929349 -0.00170653
v -0.14463314 -0.10602986 0.01858181
v -0.05001600 -0.12904400 0.04595100
v -0.11367498 -0.11456771 -0.02276187
v -0.14711392 -0.10498668 0.03413405
v -0.13250365 -0.11081782 0.00098028
v -0.14198722 -0.10542954 -0.00535180
v -0.15923507 -0.09709402 0.04747781
v -0.15726513 -0.09888500 0.01999380
v -0.15774996 -0.09863979 0.03651050
v -0.05491512 -0.12762600 0.05185521
v -0.08659952 -0.12037251 0.06236380
v -0.04830250 -0.12736251 0.05569400
v -0.16038061 -0.09495412 0.05752997
v -0.14469166 -0.10134765 0.06817082
v -0.08146600 -0.12032900 0.06509800
v -0.12902108 -0.10731500 0.07003602
v -0.15187301 -0.10150432 0.00800162
v -0.06859574 -0.12488481 0.05698285
v -0.17031895 -0.08925263 0.04779894
v -0.16523698 -0.09183033 0.05640796
v -0.16967760 -0.08689045 0.06492357
v -0.04513550 -0.12628275 0.06010275
v -0.09413984 -0.11920089 0.06225828
v -0.14087093 -0.10210329 0.07168513
v -0.16517123 -0.09353020 0.02089077
v -0.16814893 -0.09161323 0.03714743
v -0.15053784 -0.09832189 0.06941866
v -0.17135567 -0.08889791 0.02881246
v -0.15916745 -0.09156402 0.07400040
v -0.10357338 -0.11355829 0.07254769
v -0.03753900 -0.12370600 0.06726900
v -0.17256056 -0.08182975 0.07217003
v -0.13106231 -0.10209554 0.08006256
v -0.12561614 -0.10468415 0.07901765
v -0.17738891 -0.08334182 0.03084447
v -0.18527371 -0.07412103 0.05154472
v -0.09510751 -0.11413894 0.07490974
v -0.17883837 -0.07165365 0.08087952
v -0.16962865 -0.08186751 0.07817725
v -0.05418520 -0.12282281 0.06704610
v -0.06224042 -0.12177420 0.06812766
v -0.14500199 -0.09522477 0.08187906
v -0.15443325 -0.08905170 0.08353917
v -0.17685500 -0.06990177 0.08599731
v -0.18549796 -0.07292453 0.05926628
v -0.06694054 -0.11830034 0.07308871
v -0.03577700 -0.11855300 0.07362200
v -0.14848299 -0.09119600 0.08458400
v -0.11495700 -0.10545200 0.08110300
v -0.18149769 -0.07168329 0.07645241
v -0.15903901 -0.08318600 0.08686400
v -0.19047983 -0.06027680 0.07637433
v -0.16655510 -0.08014658 0.08492009
v -0.04693400 -0.12029100 0.07190300
v -0.18363415 -0.06400002 0.08381231
v -0.09014600 -0.11343500 0.07649200
v -0.17147350 -0.07261550 0.08801850
v -0.13531450 -0.09711100 0.08392200
v -0.05594700 -0.11904500 0.07293500
v -0.18766283 -0.05551799 0.08752622
v -0.18798325 -0.04924125 0.09053700
v -0.18958422 -0.05708056 0.08318841
v -0.19112493 -0.04850213 0.08882492
v -0.19737432 -0.03829846 0.08852387
v -0.20083425 -0.02263425 0.09379775
f 109 99 97
f 109 111 99
f 110 111 109
f 108 111 110
f 112 111 108
f 112 2 111
f 108 110 107
f 108 107 91
f 104 108 91
f 104 91 100
f 104 100 98
f 95 98 100
f 100 90 95
f 90 100 76
f 100 86 76
f 100 97 86
f 100 85 97
f 97 85 91
f 91 102 97
f 91 109 102
f 86 97 79
f 79 97 68
f 97 92 68
f 68 92 66
f 92 83 66
f 92 3 83
f 1 3 92
f 1 92 99
f 2 1 99
f 3 5 83
f 5 4 83
f 83 4 6
f 6 82 83
f 75 82 6
f 82 75 73
f 66 82 73
f 54 66 73
f 54 73 56
f 51 56 73
f 51 73 55
f 73 72 55
f 64 55 72
f 64 72 15
f 75 15 72
f 64 15 14
f 14 13 64
f 64 13 53
f 64 53 52
f 64 52 41
f 41 48 64
f 51 64 48
f 35 51 48
f 35 28 51
f 28 27 51
f 27 39 51
f 27 24 39
f 38 39 24
f 38 54 39
f 38 74 54
f 74 60 54
f 74 76 60
f 89 76 74
f 89 74 71
f 80 89 71
f 105 89 80
f 105 95 89
f 81 105 80
f 105 81 96
f 96 81 84
f 103 96 84
f 103 84 93
f 106 103 93
f 101 106 93
f 101 93 88
f 84 88 93
f 88 84 62
f 62 58 88
f 88 58 65
f 87 88 65
f 88 87 78
f 94 88 78
f 78 87 69
f 69 87 65
f 69 65 59
f 65 57 59
f 65 36 57
f 65 70 36
f 36 70 32
f 70 25 32
f 70 26 25
f 70 77 26
f 84 77 70
f 77 63 26
f 77 81 63
f 26 63 24
f 26 23 25
f 23 26 27
f 25 23 27
f 25 27 32
f 32 27 30
f 32 30 29
f 30 35 29
f 30 31 35
f 27 35 31
f 29 35 37
f 35 41 37
f 37 41 44
f 37 44 52
f 37 52 40
f 40 52 47
f 52 46 47
f 47 46 45
f 22 47 45
f 22 45 12
f 45 46 12
f 12 46 50
f 50 46 11
f 46 53 11
f 53 10 11
f 12 50 11
f 11 8 12
f 12 8 9
f 40 47 22
f 17 40 22
f 40 17 7
f 7 43 40
f 7 37 43
f 43 37 40
f 29 37 7
f 33 29 7
f 42 29 33
f 36 29 42
f 34 36 42
f 34 42 16
f 42 7 16
f 21 34 16
f 21 36 34
f 33 7 42
f 27 31 30
f 36 32 29
f 57 36 21
f 49 57 21
f 49 21 20
f 18 49 20
f 18 20 19
f 59 57 49
f 65 58 70
f 62 70 58
f 84 70 62
f 84 81 77
f 80 63 81
f 80 71 63
f 71 38 63
f 71 61 38
f 71 74 61
f 76 67 60
f 76 68 67
f 67 66 60
f 74 38 61
f 63 38 24
f 26 24 27
f 27 28 35
f 41 35 48
f 52 44 41
f 46 52 53
f 10 53 13
f 51 55 64
f 39 56 51
f 39 54 56
f 60 66 54
f 73 75 72
f 75 6 15
f 83 82 66
f 67 68 66
f 86 79 68
f 76 86 68
f 90 76 89
f 95 90 89
f 91 85 100
f 107 109 91
f 110 109 107
f 111 2 99
f 102 109 97
f 97 99 92

