v 0.2996035 -0.393133 -0.17533925
v 0.302304 -0.3941301875 -0.169750875
v 0.30075171875 -0.38721265625 -0.1662215
v 0.29791046875 -0.37883484375 -0.16345890625
v 0.29171834375 -0.3688260625 -0.16892609375
v 0.29431184375 -0.37728 -0.171642
v 0.29686746875 -0.38574721875 -0.1743480625
v 0.294793625 -0.370548125 -0.16070175
v 0.286622 -0.35378128125 -0.162569
v 0.28891346875 -0.360442625 -0.166191125
v 0.28792884375 -0.35442034375 -0.1555455
v 0.29159815625 -0.36231371875 -0.157904
v 0.28478675 -0.34781840625 -0.15172984375
v 0.284146 -0.35611928125 -0.14900803125
v 0.28168275 -0.350547375 -0.14722403125
v 0.286217640625 -0.35595465625 -0.151963046875
v 0.286654515625 -0.35029496875 -0.153818828125
v 0.28279575 -0.348166578125 -0.1491441875
v 0.282358875 -0.353826265625 -0.14728840625
v 0.293255984375 -0.36968709375 -0.164813921875
v 0.29036278125 -0.36461846875 -0.167560921875
v 0.2902558125 -0.361378171875 -0.1620475625
v 0.293201578125 -0.366426984375 -0.159307375
v 0.287429546875 -0.356468390625 -0.1647308125
v 0.287123640625 -0.35340565625 -0.15935634375
v 0.28998965625 -0.3583025 -0.15667384375
v 0.29611115625 -0.378057421875 -0.167550453125
v 0.29302621875 -0.37304940625 -0.170285609375
v 0.296373609375 -0.374682296875 -0.162081265625
v 0.29937221875 -0.38301075 -0.164845640625
v 0.29880959375 -0.3864799375 -0.17028478125
v 0.29559353125 -0.381511921875 -0.17299740625
v 0.301951171875 -0.391285484375 -0.1676524375
v 0.30126675 -0.39469271875 -0.1728778125
v 0.298150296875 -0.389878421875 -0.17552153125
v 0.284458173828 -0.351998466797 -0.150432404297
v 0.291782179687 -0.365522726562 -0.163434148437
v 0.288671111328 -0.357289199219 -0.160669761719
v 0.294699914062 -0.373865851563 -0.1661834375
v 0.297482875 -0.382261335938 -0.168921523437
v 0.300080078125 -0.390681433594 -0.171618179687
v 0.2851615 -0.3562683125 -0.1502998125
v 0.285329820312 -0.353966203125 -0.151177523438
v 0.2834004375 -0.352902007812 -0.148840203125
v 0.2831725 -0.3552215625 -0.1479790625
v 0.2875460625 -0.3524458125 -0.155096125
v 0.285548257812 -0.351136359375 -0.152105414062
v 0.2873130625 -0.3554643125 -0.154106375
v 0.283755 -0.3476753125 -0.1504534375
v 0.283618875 -0.350072164062 -0.14976809375
v 0.285744 -0.3487220625 -0.1527741875
v 0.281823 -0.3521845 -0.1470115625
v 0.282056 -0.349166 -0.1480013125
v 0.294024804687 -0.370117609375 -0.162757835937
v 0.29252396875 -0.3676028125 -0.16412521875
v 0.292491878906 -0.365974855469 -0.161370761719
v 0.29399875 -0.36848625 -0.16000625
v 0.2910491875 -0.366719375 -0.1682441875
v 0.291072480469 -0.365070597656 -0.165497535156
v 0.292487164063 -0.369256578125 -0.166870007812
v 0.289584640625 -0.360910398438 -0.16411934375
v 0.29102725 -0.36344759375 -0.162741375
v 0.2896529375 -0.3625255 -0.1668765
v 0.2924015625 -0.3643696875 -0.15860625
v 0.290926984375 -0.361845945313 -0.15997578125
v 0.2881381875 -0.358372 -0.165505
v 0.288043914063 -0.356862753906 -0.162694859375
v 0.2894645 -0.35931521875 -0.161353375
v 0.286728 -0.3533073125 -0.16100675
v 0.287893445312 -0.355330578125 -0.160007671875
v 0.28689 -0.3548865625 -0.16378125
v 0.2892048125 -0.3565445625 -0.156494625
v 0.28932396875 -0.357779808594 -0.158666375
v 0.2877245625 -0.3540173125 -0.157879625
v 0.2907908125 -0.3602584375 -0.15720175
v 0.2970108125 -0.378446132813 -0.165504679688
v 0.2954100625 -0.37596009375 -0.16686665625
v 0.295536761719 -0.374274074219 -0.164132351563
v 0.2971496875 -0.3767559375 -0.1627693125
v 0.2936704375 -0.37516425 -0.170964
v 0.293863066406 -0.373457628906 -0.168234523438
v 0.2952115 -0.377668710937 -0.169596226563
v 0.29398159375 -0.3717748125 -0.16549959375
v 0.2923764375 -0.370936375 -0.1696064375
v 0.29558675 -0.37261325 -0.16139275
v 0.2968023125 -0.38015771875 -0.16823603125
v 0.296538203125 -0.381886628906 -0.170959464844
v 0.2949531875 -0.37939575 -0.17232
v 0.2986514375 -0.3809196875 -0.1641520625
v 0.298427546875 -0.382636042969 -0.166883582031
v 0.29978065625 -0.386846296875 -0.168253140625
v 0.2981521875 -0.384368625 -0.1696050625
v 0.3000724375 -0.3851083125 -0.1655365
v 0.2962319375 -0.3836289375 -0.173673625
v 0.29783853125 -0.386113578125 -0.172316421875
v 0.3014096875 -0.3893240625 -0.1668975
v 0.301020515625 -0.391000039063 -0.169640507813
v 0.2994544375 -0.388595625 -0.1709588125
v 0.301925 -0.394699375 -0.17127025
v 0.300679875 -0.392703109375 -0.17225390625
v 0.302281 -0.392939875 -0.16857425
v 0.298844 -0.3916705 -0.175684
v 0.299120078125 -0.390296507813 -0.173575054688
v 0.300452 -0.3941555 -0.174319
v 0.2974991875 -0.3878671875 -0.175020125
v 0.28424625 -0.35461596875 -0.14951828125
v 0.28643303125 -0.35322809375 -0.1530768125
v 0.284654 -0.34933359375 -0.15125034375
v 0.2826935 -0.3510648125 -0.14836903125
v 0.293261359375 -0.36804453125 -0.162065734375
v 0.291786578125 -0.36716109375 -0.166184703125
v 0.29034009375 -0.362986546875 -0.1648089375
v 0.29171440625 -0.363908640625 -0.1606738125
v 0.28880134375 -0.358843609375 -0.1634291875
v 0.2873660625 -0.35504440625 -0.16187275
v 0.28852346875 -0.35587340625 -0.1582294375
v 0.29012765625 -0.359786828125 -0.1592775625
v 0.296279875 -0.376358015625 -0.164817984375
v 0.29454025 -0.375562171875 -0.168915328125
v 0.293179015625 -0.37135559375 -0.167553015625
v 0.294784171875 -0.37219403125 -0.163446171875
v 0.29587775 -0.379776734375 -0.170278015625
v 0.297726875 -0.380538703125 -0.166194046875
v 0.2991123125 -0.38473846875 -0.16757078125
v 0.2971920625 -0.38399878125 -0.17163934375
v 0.3004320625 -0.38895984375 -0.16892815625
v 0.3015 -0.3928878125 -0.170434875
v 0.2997815 -0.392253125 -0.17398975
v 0.2984768125 -0.38823140625 -0.17298946875
f 14 42 106 45
f 16 43 106 42
f 36 44 106 43
f 19 45 106 44
f 11 46 107 48
f 17 47 107 46
f 36 43 107 47
f 16 48 107 43
f 13 49 108 51
f 18 50 108 49
f 36 47 108 50
f 17 51 108 47
f 15 52 109 53
f 19 44 109 52
f 36 50 109 44
f 18 53 109 50
f 8 54 110 57
f 20 55 110 54
f 37 56 110 55
f 23 57 110 56
f 5 58 111 60
f 21 59 111 58
f 37 55 111 59
f 20 60 111 55
f 10 61 112 63
f 22 62 112 61
f 37 59 112 62
f 21 63 112 59
f 12 64 113 65
f 23 56 113 64
f 37 62 113 56
f 22 65 113 62
f 10 66 114 61
f 24 67 114 66
f 38 68 114 67
f 22 61 114 68
f 9 69 115 71
f 25 70 115 69
f 38 67 115 70
f 24 71 115 67
f 11 72 116 74
f 26 73 116 72
f 38 70 116 73
f 25 74 116 70
f 12 65 117 75
f 22 68 117 65
f 38 73 117 68
f 26 75 117 73
f 4 76 118 79
f 27 77 118 76
f 39 78 118 77
f 29 79 118 78
f 6 80 119 82
f 28 81 119 80
f 39 77 119 81
f 27 82 119 77
f 5 60 120 84
f 20 83 120 60
f 39 81 120 83
f 28 84 120 81
f 8 85 121 54
f 29 78 121 85
f 39 83 121 78
f 20 54 121 83
f 6 82 122 88
f 27 86 122 82
f 40 87 122 86
f 32 88 122 87
f 4 89 123 76
f 30 90 123 89
f 40 86 123 90
f 27 76 123 86
f 3 91 124 93
f 31 92 124 91
f 40 90 124 92
f 30 93 124 90
f 7 94 125 95
f 32 87 125 94
f 40 92 125 87
f 31 95 125 92
f 3 96 126 91
f 33 97 126 96
f 41 98 126 97
f 31 91 126 98
f 2 99 127 101
f 34 100 127 99
f 41 97 127 100
f 33 101 127 97
f 1 102 128 104
f 35 103 128 102
f 41 100 128 103
f 34 104 128 100
f 7 95 129 105
f 31 98 129 95
f 41 103 129 98
f 35 105 129 103
