v -0.169661 -0.207397 -0.0500554
v -0.176657 -0.215727 -0.0449797
v -0.168155 -0.204266 -0.0389906
v -0.165231 -0.199695 -0.0435616
v -0.168088 -0.203703 -0.0439161
v -0.170944 -0.207711 -0.0442706
v -0.173801 -0.211719 -0.0446252
v -0.167916 -0.204978 -0.0340842
v -0.170945 -0.208306 -0.0393493
v -0.170695 -0.208999 -0.0344213
v -0.173484 -0.213005 -0.0347489
v -0.176273 -0.217011 -0.0350764
v -0.173699 -0.212363 -0.0397094
v -0.176489 -0.216369 -0.0400369
v -0.174686 -0.218938 -0.0254601
v -0.177494 -0.222933 -0.0257824
v -0.170047 -0.209881 -0.0295749
v -0.172855 -0.213877 -0.0298972
v -0.175664 -0.217872 -0.0302196
v -0.178489 -0.221854 -0.0305337
v -0.169088 -0.210941 -0.024834
v -0.171885 -0.21494 -0.0251446
v -0.167247 -0.205883 -0.0292612
v -0.163163 -0.20318 -0.0242082
v -0.166285 -0.206946 -0.0245233
v -0.157957 -0.194531 -0.028317
v -0.161079 -0.198297 -0.0286321
v -0.1642 -0.202063 -0.0289471
v -0.153861 -0.191854 -0.0234171
v -0.156957 -0.195631 -0.0236696
v -0.160054 -0.199409 -0.0239221
v -0.151741 -0.186987 -0.0277535
v -0.154838 -0.190764 -0.028006
v -0.1525 -0.193245 -0.0190296
v -0.150418 -0.188348 -0.0233463
v -0.140978 -0.184078 -0.0145367
v -0.144361 -0.187602 -0.0145771
v -0.145696 -0.186214 -0.0189411
v -0.149079 -0.189738 -0.0189815
v -0.147031 -0.184826 -0.023305
v -0.148366 -0.183438 -0.027669
v -0.142393 -0.182646 -0.0188336
v -0.143991 -0.181112 -0.0229765
v -0.14508 -0.17986 -0.0272771
v -0.145872 -0.178773 -0.03167
v -0.146287 -0.177874 -0.036169
v -0.14957 -0.181418 -0.0368025
v -0.146122 -0.177151 -0.0408126
v -0.149482 -0.180728 -0.0414364
v -0.145818 -0.176484 -0.0455075
v -0.148888 -0.180215 -0.0462482
v -0.144837 -0.176297 -0.050215
v -0.143758 -0.176201 -0.0548762
v -0.146991 -0.179753 -0.055742
v -0.141947 -0.176607 -0.0593754
v -0.145064 -0.180243 -0.0602288
v -0.139889 -0.177112 -0.0639313
v -0.148141 -0.183977 -0.0610152
v -0.1512 -0.187756 -0.0617707
v -0.142956 -0.180869 -0.0647016
v -0.146015 -0.184648 -0.0654571
v -0.149073 -0.188427 -0.0662126
v -0.152132 -0.192205 -0.0669681
v -0.154132 -0.191597 -0.0624897
v -0.155039 -0.196077 -0.0676914
v -0.157767 -0.200073 -0.068365
v -0.160494 -0.204069 -0.0690386
v -0.163222 -0.208065 -0.0697122
v -0.157986 -0.205127 -0.0732686
v -0.165918 -0.212067 -0.0702749
v -0.16071 -0.209124 -0.0739287
v -0.163384 -0.213131 -0.0744154
v -0.16604 -0.21717 -0.0748744
v -0.160673 -0.214505 -0.0782811
v -0.146003 -0.189924 -0.0701019
v -0.149035 -0.19367 -0.0709787
v -0.151887 -0.203 -0.0760061
v -0.154918 -0.206746 -0.0768829
v -0.15795 -0.210492 -0.0777597
v -0.140132 -0.182218 -0.0685874
v -0.143041 -0.1861 -0.0693121
v -0.13733 -0.183602 -0.0723712
v -0.14024 -0.187484 -0.0730958
v -0.143149 -0.191365 -0.0738204
v -0.146059 -0.195247 -0.0745451
v -0.148968 -0.199129 -0.0752697
v -0.137438 -0.188867 -0.0768796
v -0.140348 -0.192749 -0.0776042
v -0.143257 -0.196631 -0.0783288
v -0.146166 -0.200513 -0.0790535
v -0.149076 -0.204394 -0.0797781
v -0.151985 -0.208276 -0.0805027
v -0.154895 -0.212158 -0.0812274
v -0.157804 -0.21604 -0.081952
v -0.137546 -0.194133 -0.081388
v -0.140456 -0.198014 -0.0821126
v -0.143365 -0.201896 -0.0828372
v -0.146221 -0.205835 -0.0834903
v -0.149027 -0.209829 -0.0840757
v -0.16053 -0.220092 -0.0823802
v -0.163049 -0.224341 -0.0824833
v -0.165569 -0.228589 -0.0825865
v -0.168134 -0.232812 -0.0827382
v -0.157119 -0.222149 -0.0851875
v -0.1597 -0.226363 -0.0853556
v -0.16228 -0.230577 -0.0855237
v -0.16486 -0.23479 -0.0856919
v -0.154514 -0.217954 -0.0849916
v -0.15099 -0.220121 -0.0876641
v -0.153662 -0.224266 -0.087935
v -0.156334 -0.228411 -0.088206
v -0.159006 -0.232556 -0.088477
v -0.14831 -0.215984 -0.0873712
v -0.139125 -0.210226 -0.0885974
v -0.141817 -0.214346 -0.0889233
v -0.14451 -0.218462 -0.0892523
v -0.147191 -0.222587 -0.0895455
v -0.149845 -0.22673 -0.0897594
v -0.137938 -0.21683 -0.0905588
v -0.152489 -0.230855 -0.0899857
v -0.155129 -0.234971 -0.0902187
v -0.157768 -0.239086 -0.0904517
v -0.140586 -0.220963 -0.0907795
v -0.143226 -0.225079 -0.0910126
v -0.145866 -0.229194 -0.0912456
v -0.148505 -0.23331 -0.0914786
v -0.162656 -0.247638 -0.0901089
v -0.158653 -0.24997 -0.0916351
v -0.169001 -0.249584 -0.0883016
v -0.165001 -0.251916 -0.0898524
v -0.156305 -0.245708 -0.0918802
v -0.152157 -0.248272 -0.0920713
v -0.154539 -0.252482 -0.0921298
v -0.144459 -0.235979 -0.0920991
v -0.14703 -0.240074 -0.0920881
v -0.149601 -0.244169 -0.0920772
v -0.142839 -0.242664 -0.0922951
v -0.14541 -0.246759 -0.0922841
v -0.147981 -0.250854 -0.0922731
v -0.137698 -0.234478 -0.0922636
v -0.140269 -0.238569 -0.0923052
v -0.130956 -0.232995 -0.0918152
v -0.133533 -0.23708 -0.0917976
v -0.136109 -0.241165 -0.09178
v -0.123057 -0.220865 -0.0912322
v -0.125705 -0.224897 -0.0914802
v -0.128354 -0.228929 -0.0917281
v -0.120401 -0.216833 -0.0910086
v -0.116324 -0.219355 -0.0900332
v -0.118979 -0.223388 -0.0902468
v -0.113664 -0.21532 -0.0897758
v -0.111011 -0.211276 -0.0889845
v -0.112255 -0.204697 -0.0894819
v -0.108036 -0.190195 -0.0872096
v -0.110791 -0.194166 -0.0881858
v -0.109533 -0.200702 -0.0887613
v -0.103986 -0.192845 -0.0872449
v -0.106765 -0.196759 -0.0879313
v -0.176644 -0.219144 -0.0571581
v -0.118569 -0.188829 -0.0864312
v -0.111948 -0.187484 -0.0868679
v -0.114727 -0.191422 -0.0877272
v -0.121364 -0.192764 -0.0872845
v -0.124168 -0.196741 -0.0879118
v -0.126971 -0.200717 -0.0885391
v -0.127993 -0.194211 -0.0863101
v -0.130799 -0.198184 -0.0869519
v -0.128704 -0.188065 -0.0831686
v -0.125135 -0.190298 -0.0855292
v -0.131617 -0.191902 -0.0840205
v -0.133597 -0.202165 -0.0875636
v -0.129733 -0.204712 -0.0891139
v -0.132494 -0.208707 -0.0896876
v -0.123019 -0.203354 -0.0897766
v -0.125781 -0.207353 -0.0903349
v -0.120256 -0.199358 -0.0891905
v -0.116296 -0.202089 -0.0899549
v -0.128533 -0.211367 -0.0907774
v -0.119034 -0.206099 -0.0903473
v -0.121767 -0.21011 -0.0907058
v -0.124499 -0.214121 -0.0910642
v -0.131262 -0.215385 -0.0911401
v -0.13395 -0.219467 -0.0915449
v -0.127191 -0.218198 -0.0914653
v -0.129879 -0.22228 -0.0918701
v -0.117491 -0.195374 -0.08854
v -0.113543 -0.198131 -0.0891387
v -0.114959 -0.208737 -0.0901619
v -0.121636 -0.22742 -0.0904573
v -0.124311 -0.231442 -0.0906161
v -0.126922 -0.235511 -0.0905466
v -0.129528 -0.239585 -0.0904569
v -0.132133 -0.243659 -0.0903671
v -0.134739 -0.247733 -0.0902773
v -0.138696 -0.245246 -0.0917309
v -0.141299 -0.249321 -0.0916507
v -0.143902 -0.253396 -0.0915706
v -0.1177 -0.212794 -0.0907414
v -0.132533 -0.226314 -0.0921187
v -0.135128 -0.230388 -0.092222
v -0.164128 -0.241018 -0.0886187
v -0.166606 -0.245301 -0.0885007
v -0.160281 -0.243345 -0.0904134
v -0.151144 -0.237434 -0.0916863
v -0.153783 -0.241574 -0.0918491
v -0.136598 -0.223596 -0.0917519
v -0.139237 -0.227736 -0.0919147
v -0.141876 -0.231875 -0.0920775
v -0.135252 -0.212709 -0.0902499
v -0.134452 -0.195834 -0.0846915
v -0.137224 -0.199864 -0.0852281
v -0.139996 -0.203894 -0.0857647
v -0.142767 -0.207923 -0.0863013
v -0.145539 -0.211953 -0.0868379
v -0.136385 -0.20616 -0.0881434
v -0.170714 -0.237027 -0.0828938
v -0.16744 -0.23901 -0.0857934
v -0.17002 -0.243233 -0.0858722
v -0.161587 -0.236772 -0.0886143
v -0.170942 -0.225683 -0.0754136
v -0.173551 -0.229861 -0.075613
v -0.165738 -0.222886 -0.078899
v -0.168347 -0.227064 -0.0790984
v -0.170956 -0.231242 -0.0792977
v -0.151796 -0.213862 -0.0845989
v -0.134584 -0.184948 -0.0762045
v -0.131848 -0.186287 -0.0800463
v -0.134641 -0.190248 -0.0806675
v -0.168532 -0.221388 -0.0751804
v -0.16328 -0.218619 -0.0786738
v -0.168471 -0.216184 -0.0706701
v -0.171007 -0.220318 -0.0710513
v -0.170555 -0.215518 -0.0664585
v -0.173061 -0.219676 -0.0668562
v -0.175568 -0.223834 -0.0672539
v -0.17352 -0.224471 -0.0714453
v -0.161664 -0.198946 -0.0592835
v -0.164346 -0.20297 -0.0599487
v -0.167028 -0.206994 -0.0606139
v -0.169709 -0.211018 -0.0612791
v -0.172391 -0.215043 -0.0619443
v -0.175073 -0.219067 -0.0626095
v -0.165256 -0.20742 -0.0652268
v -0.167938 -0.211444 -0.0658921
v -0.14982 -0.193091 -0.0711556
v -0.152541 -0.197106 -0.0718648
v -0.155262 -0.20112 -0.072574
v -0.146933 -0.189233 -0.0704099
v -0.156923 -0.195543 -0.0631842
v -0.15973 -0.199482 -0.0638699
v -0.162537 -0.203421 -0.0645556
v -0.158902 -0.194977 -0.0586079
v -0.143884 -0.185449 -0.0696625
v -0.150088 -0.183439 -0.0565288
v -0.153026 -0.187285 -0.0572218
v -0.155964 -0.191131 -0.0579149
v -0.157034 -0.191208 -0.0532421
v -0.159828 -0.195154 -0.0539182
v -0.162621 -0.1991 -0.0545942
v -0.165415 -0.203046 -0.0552702
v -0.168208 -0.206991 -0.0559463
v -0.171002 -0.210937 -0.0566223
v -0.151914 -0.183968 -0.0469833
v -0.154929 -0.187727 -0.047717
v -0.157944 -0.191486 -0.0484507
v -0.160959 -0.195244 -0.0491843
v -0.163975 -0.199003 -0.049918
v -0.148202 -0.179752 -0.0510965
v -0.151217 -0.183511 -0.0518302
v -0.154232 -0.187269 -0.0525639
v -0.152874 -0.185089 -0.0372308
v -0.155937 -0.188949 -0.0376551
v -0.159059 -0.192012 -0.0427748
v -0.162227 -0.195799 -0.0431868
v -0.147614 -0.191204 -0.0146765
v -0.150778 -0.19486 -0.0148165
v -0.153928 -0.198558 -0.0149817
v -0.157072 -0.202275 -0.015159
v -0.160216 -0.205992 -0.0153363
v -0.16196 -0.204437 -0.019685
v -0.165091 -0.208163 -0.0198752
v -0.169343 -0.217442 -0.0159405
v -0.170386 -0.223045 -0.0119239
v -0.173456 -0.226841 -0.0120971
v -0.163314 -0.209757 -0.0155111
v -0.166384 -0.213553 -0.0156844
v -0.155788 -0.209881 -0.00739894
v -0.158859 -0.213677 -0.00757102
v -0.155033 -0.204067 -0.0110628
v -0.158104 -0.207862 -0.0112349
v -0.161174 -0.211658 -0.011407
v -0.164245 -0.215453 -0.0115791
v -0.167316 -0.219249 -0.0117511
v -0.146298 -0.198821 -0.00718034
v -0.149467 -0.2025 -0.00724677
v -0.152637 -0.20618 -0.0073132
v -0.153467 -0.218322 -0.000849844
v -0.146803 -0.20483 -0.00383089
v -0.149967 -0.208513 -0.00390427
v -0.153131 -0.212197 -0.00397765
v -0.130865 -0.199172 0.00118118
v -0.134116 -0.202799 0.00128646
v -0.137368 -0.206426 0.00139174
v -0.14062 -0.210053 0.00149702
v -0.133999 -0.196534 -0.00139679
v -0.13725 -0.200161 -0.00129151
v -0.140502 -0.203787 -0.00118623
v -0.143753 -0.207414 -0.00108095
v -0.147005 -0.211041 -0.000975665
v -0.150257 -0.214668 -0.000870383
v -0.140384 -0.197522 -0.00386947
v -0.143636 -0.201149 -0.00376419
v -0.143857 -0.213684 0.00159739
v -0.143549 -0.220169 0.0035285
v -0.146682 -0.223863 0.00339043
v -0.147053 -0.217336 0.00162417
v -0.150186 -0.22103 0.0014861
v -0.149714 -0.227633 0.00319758
v -0.152625 -0.231495 0.00293907
v -0.155537 -0.235357 0.00268055
v -0.158448 -0.239219 0.00242203
v -0.153223 -0.224796 0.00129606
v -0.156135 -0.228658 0.00103755
v -0.161392 -0.243082 0.00224918
v -0.164392 -0.246947 0.00221659
v -0.159113 -0.232522 0.000950363
v -0.178022 -0.219446 -0.0512949
v -0.162022 -0.236434 0.000652438
v -0.16493 -0.240346 0.000349881
v -0.167837 -0.244259 4.7323e-05
v -0.156508 -0.222123 -0.00106386
v -0.159385 -0.22605 -0.00141794
v -0.162262 -0.229978 -0.00177202
v -0.165139 -0.233905 -0.0021261
v -0.168016 -0.237832 -0.00248018
v -0.16508 -0.227592 -0.00505259
v -0.167957 -0.231519 -0.00540667
v -0.170834 -0.235446 -0.00576075
v -0.170774 -0.229134 -0.00868724
v -0.173651 -0.233061 -0.00904132
v -0.13084 -0.205511 0.00361839
v -0.134026 -0.209169 0.00362011
v -0.137213 -0.212827 0.00362183
v -0.140399 -0.216486 0.00362356
v -0.133706 -0.190438 -0.00435965
v -0.137112 -0.193915 -0.00400746
v -0.1368 -0.187839 -0.00700222
v -0.139128 -0.185801 -0.0105237
v -0.156255 -0.215919 -0.00409771
v -0.15922 -0.219797 -0.00440304
v -0.162185 -0.223675 -0.00470836
v -0.161928 -0.217473 -0.00774409
v -0.164893 -0.221351 -0.00804941
v -0.167858 -0.225228 -0.00835474
v -0.13992 -0.191525 -0.0070068
v -0.143121 -0.195153 -0.00710599
v -0.142323 -0.189433 -0.010618
v -0.145524 -0.193061 -0.0107172
v -0.148725 -0.19669 -0.0108164
v -0.151925 -0.200318 -0.0109156
v -0.155658 -0.196974 -0.0192497
v -0.158812 -0.200706 -0.019472
v -0.172226 -0.221387 -0.0162336
v -0.175035 -0.225379 -0.0165381
v -0.168019 -0.212069 -0.0201496
v -0.170828 -0.21606 -0.0204542
v -0.173637 -0.220052 -0.0207587
v -0.176446 -0.224043 -0.0210633
v -0.152673 -0.185917 -0.0324444
v -0.155756 -0.189701 -0.0327685
v -0.158839 -0.193484 -0.0330926
v -0.161922 -0.197268 -0.0334167
v -0.165005 -0.201051 -0.0337409
v -0.149584 -0.182136 -0.0321206
v -0.15903 -0.192744 -0.0379946
v -0.162155 -0.196509 -0.0383165
v -0.16528 -0.200275 -0.0386384
v -0.1526 -0.184486 -0.0420222
v -0.155834 -0.188247 -0.0423959
v -0.163139 -0.19982 -0.0494551
v -0.166373 -0.203581 -0.0498288
v -0.173678 -0.215154 -0.0568879
v -0.172884 -0.211374 -0.0500847
v -0.175453 -0.21541 -0.0506898
f 383 7 6 1
f 6 5 381 1
f 14 13 7 2
f 7 383 384 2
f 5 6 9 3
f 9 10 8 3
f 8 373 377 3
f 377 4 5 3
f 380 381 5 4
f 377 376 274 4
f 7 13 9 6
f 10 17 23 8
f 23 28 373 8
f 13 11 10 9
f 11 18 17 10
f 13 14 12 11
f 12 19 18 11
f 19 20 16 15
f 16 368 367 15
f 367 366 22 15
f 22 18 19 15
f 18 22 21 17
f 21 25 23 17
f 22 366 365 21
f 365 281 25 21
f 25 24 28 23
f 25 281 280 24
f 280 362 31 24
f 31 27 28 24
f 371 372 27 26
f 27 31 30 26
f 30 29 33 26
f 33 370 371 26
f 372 373 28 27
f 30 361 34 29
f 34 39 35 29
f 35 32 33 29
f 31 362 361 30
f 369 370 33 32
f 35 40 41 32
f 41 374 369 32
f 361 277 276 34
f 276 275 39 34
f 39 38 40 35
f 42 38 37 36
f 37 357 348 36
f 38 39 275 37
f 275 358 357 37
f 42 43 40 38
f 43 44 41 40
f 44 45 374 41
f 46 47 374 45
f 48 49 47 46
f 271 369 374 47
f 50 51 49 48
f 52 268 51 50
f 268 269 263 51
f 53 54 268 52
f 55 56 54 53
f 56 58 254 54
f 254 269 268 54
f 57 60 56 55
f 60 61 58 56
f 61 62 59 58
f 59 255 254 58
f 62 63 64 59
f 64 256 255 59
f 253 248 62 61
f 248 245 63 62
f 245 246 65 63
f 65 249 64 63
f 249 252 256 64
f 246 247 66 65
f 66 250 249 65
f 247 69 67 66
f 67 251 250 66
f 69 71 68 67
f 68 243 251 67
f 71 72 70 68
f 70 244 243 68
f 72 73 231 70
f 231 233 244 70
f 79 74 72 71
f 74 230 73 72
f 230 222 229 73
f 229 232 231 73
f 94 100 230 74
f 79 93 94 74
f 84 85 76 75
f 81 83 84 75
f 91 92 78 77
f 86 90 91 77
f 92 93 79 78
f 82 83 81 80
f 226 87 83 82
f 87 88 84 83
f 88 89 85 84
f 89 90 86 85
f 228 95 88 87
f 226 227 228 87
f 95 96 89 88
f 96 97 90 89
f 97 98 91 90
f 98 99 92 91
f 99 225 93 92
f 225 108 94 93
f 108 104 100 94
f 210 211 96 95
f 228 170 210 95
f 211 212 97 96
f 212 213 98 97
f 213 214 99 98
f 214 113 225 99
f 104 105 101 100
f 101 222 230 100
f 105 106 102 101
f 102 223 222 101
f 106 107 103 102
f 103 224 223 102
f 107 217 216 103
f 110 111 105 104
f 108 109 110 104
f 111 112 106 105
f 112 219 107 106
f 219 201 217 107
f 225 113 109 108
f 117 118 110 109
f 113 116 117 109
f 118 120 111 110
f 120 121 112 111
f 121 122 219 112
f 214 115 116 113
f 209 119 115 114
f 115 214 213 114
f 213 212 215 114
f 215 173 209 114
f 119 123 116 115
f 123 124 117 116
f 124 125 118 117
f 125 126 120 118
f 183 206 123 119
f 209 182 183 119
f 126 204 121 120
f 204 205 122 121
f 205 131 203 122
f 203 201 219 122
f 206 207 124 123
f 207 208 125 124
f 208 134 126 125
f 134 135 204 126
f 130 129 202 127
f 202 201 203 127
f 203 131 128 127
f 131 132 133 128
f 205 136 132 131
f 136 138 139 132
f 141 137 135 134
f 208 140 141 134
f 137 138 136 135
f 136 205 204 135
f 195 196 138 137
f 141 144 195 137
f 196 197 139 138
f 143 144 141 140
f 208 207 200 140
f 200 142 143 140
f 191 192 143 142
f 200 199 147 142
f 147 190 191 142
f 192 193 144 143
f 193 194 195 144
f 150 189 146 145
f 146 185 184 145
f 184 181 148 145
f 148 149 150 145
f 189 190 147 146
f 147 199 185 146
f 181 180 198 148
f 198 151 149 148
f 198 188 152 151
f 188 179 177 153
f 177 187 156 153
f 157 158 155 154
f 155 162 161 154
f 158 156 187 155
f 187 186 162 155
f 162 186 163 160
f 186 176 164 163
f 164 166 169 163
f 176 174 165 164
f 165 167 166 164
f 174 175 172 165
f 172 171 167 165
f 167 210 170 166
f 170 168 169 166
f 171 211 210 167
f 170 228 227 168
f 172 173 215 171
f 215 212 211 171
f 175 178 173 172
f 178 182 209 173
f 179 180 175 174
f 176 177 179 174
f 180 181 178 175
f 186 187 177 176
f 181 184 182 178
f 188 198 180 179
f 184 185 183 182
f 185 199 206 183
f 200 207 206 199
f 202 218 217 201
f 223 224 221 220
f 236 232 229 220
f 229 222 223 220
f 232 234 233 231
f 236 235 234 232
f 234 242 241 233
f 241 240 244 233
f 250 251 238 237
f 238 260 259 237
f 259 258 252 237
f 252 249 250 237
f 251 243 239 238
f 239 261 260 238
f 243 244 240 239
f 240 262 261 239
f 258 257 256 252
f 255 270 269 254
f 256 257 270 255
f 258 266 265 257
f 265 264 270 257
f 259 267 266 258
f 269 270 264 263
f 378 379 272 271
f 272 370 369 271
f 379 273 375 272
f 375 371 370 272
f 274 376 375 273
f 276 359 358 275
f 277 360 359 276
f 361 362 278 277
f 278 289 360 277
f 362 280 279 278
f 279 290 289 278
f 280 281 285 279
f 285 291 290 279
f 365 286 285 281
f 366 367 363 282
f 363 283 293 282
f 293 292 286 282
f 286 365 366 282
f 363 364 284 283
f 284 339 354 283
f 354 353 293 283
f 286 292 291 285
f 290 291 288 287
f 288 349 300 287
f 300 299 296 287
f 296 289 290 287
f 291 292 352 288
f 352 350 349 288
f 296 295 360 289
f 293 353 352 292
f 359 360 295 294
f 295 298 312 294
f 312 311 356 294
f 356 358 359 294
f 296 299 298 295
f 349 350 331 297
f 331 322 317 297
f 317 316 310 297
f 310 300 349 297
f 299 309 308 298
f 308 307 312 298
f 300 310 309 299
f 305 306 302 301
f 306 307 303 302
f 303 342 341 302
f 307 308 304 303
f 304 343 342 303
f 308 309 313 304
f 313 344 343 304
f 346 311 306 305
f 311 312 307 306
f 310 316 313 309
f 346 355 356 311
f 316 314 344 313
f 316 317 315 314
f 317 322 318 315
f 322 323 319 318
f 323 326 320 319
f 326 328 321 320
f 328 329 324 321
f 331 332 323 322
f 332 333 326 323
f 329 330 325 324
f 333 334 328 326
f 334 335 329 328
f 350 351 332 331
f 351 336 333 332
f 336 337 334 333
f 337 338 335 334
f 354 339 337 336
f 351 353 354 336
f 339 340 338 337
f 347 355 346 345
f 348 357 355 347
f 352 353 351 350
f 357 358 356 355
f 367 368 364 363
f 375 376 372 371
f 376 377 373 372
f 159 327 384 382
