# https://github.com/mikedh/trimesh
v -0.04559950 0.41664250 -0.03277350
v -0.04411725 0.41956575 -0.04021325
v -0.04138100 0.42561099 -0.04262600
v -0.04543850 0.41540250 -0.02290250
v -0.04438500 0.40986450 -0.01292400
v -0.04284400 0.40667599 -0.00633000
v -0.04947050 0.39763999 0.00234450
v -0.04959675 0.39324563 0.00706900
v -0.03878550 0.42736050 -0.04932475
v -0.03046750 0.43182699 -0.06163600
v -0.05825375 0.39101675 -0.02290250
v -0.05322794 0.39276381 -0.00104681
v -0.05871380 0.38927876 -0.03993795
v -0.05058050 0.38633912 -0.06527150
v -0.05449800 0.38762501 -0.05567100
v -0.05532550 0.39224501 -0.00738400
v 0.00004700 0.37976101 -0.10427500
v 0.02482300 0.37903500 -0.10438200
v 0.03421849 0.37833334 -0.10283914
v -0.01103000 0.38059801 -0.10157700
v -0.01809669 0.38103922 -0.09925752
v -0.02976111 0.38226158 -0.09195011
v -0.03455100 0.38302801 -0.08716050
v 0.06594400 0.37856299 -0.08284900
v 0.07894089 0.37918228 -0.06745752
v -0.01399400 0.38091538 -0.10022638
v 0.05440700 0.37847112 -0.09239488
v -0.04364850 0.38479950 -0.07651962
v 0.04440200 0.37860099 -0.09797200
v 0.00928300 0.38378799 -0.10459700
v 0.03895573 0.42742058 -0.08453564
v 0.03054086 0.42829687 -0.08656344
v 0.04657550 0.42610201 -0.08071150
v 0.02497700 0.42669499 -0.08941300
v 0.07747000 0.38235599 -0.06679600
v 0.06798800 0.39094099 -0.06950800
v 0.07434000 0.38394649 -0.07026850
v 0.06896650 0.38851300 -0.07160150
v 0.06185025 0.40194076 -0.07705200
v 0.06005325 0.41299175 -0.07714250
v 0.05834300 0.42089451 -0.07493000
v 0.06202100 0.39291200 -0.07537100
v -0.00958100 0.39498201 -0.09270900
v -0.00105000 0.39832899 -0.09515200
v 0.00377034 0.40328734 -0.09669877
v -0.00257269 0.40215580 -0.09498406
v -0.00787719 0.40544844 -0.09328979
v 0.01185332 0.40191885 -0.09760707
v 0.01271700 0.40553200 -0.09763000
v 0.01332961 0.39518709 -0.09698883
v 0.01012187 0.40684928 -0.09749389
v 0.00685729 0.41459041 -0.09609080
v 0.01128600 0.41068199 -0.09693800
v 0.01101843 0.39169035 -0.09874970
v 0.01910317 0.40483338 -0.09772402
v 0.02389291 0.40083757 -0.09694460
v 0.02318308 0.41572108 -0.09528913
v 0.02708117 0.40568877 -0.09644273
v 0.02901243 0.39964598 -0.09592840
v 0.03014939 0.39282015 -0.09497664
v 0.01944424 0.42144949 -0.09355806
v 0.03385053 0.40856465 -0.09447402
v 0.03515330 0.39263166 -0.09346334
v -0.00340197 0.41576566 -0.09300856
v 0.02889660 0.41955711 -0.09286985
v 0.04102700 0.40777501 -0.09170400
v 0.03498587 0.40381949 -0.09461425
v 0.03870181 0.40021237 -0.09317188
v 0.00612728 0.42076884 -0.09362647
v 0.04015466 0.41428334 -0.09095782
v 0.03383545 0.41769631 -0.09234379
v 0.04290736 0.39314233 -0.09035367
v 0.04676678 0.40926228 -0.08868034
v 0.05065247 0.40422758 -0.08663695
v 0.02675469 0.42459520 -0.09096649
v 0.05324098 0.39725388 -0.08441800
v 0.04722943 0.41715965 -0.08621453
v 0.05390299 0.40975679 -0.08367196
v 0.05502189 0.41313848 -0.08210290
v 0.04551880 0.42092800 -0.08547060
v -0.00708671 0.41115679 -0.09290435
v 0.00995142 0.42539719 -0.09165142
v 0.05602710 0.39154325 -0.08153451
v 0.05226274 0.42039356 -0.08123410
v 0.05952403 0.40500048 -0.07964990
v 0.01478750 0.42787300 -0.08944500
v 0.04399219 0.42364856 -0.08496510
v 0.00738425 0.42846725 -0.08846875
v -0.01349125 0.39673176 -0.09010825
v -0.00469800 0.43061550 -0.08359950
v -0.00459740 0.42457713 -0.08898179
v -0.01259768 0.41522256 -0.08939833
v -0.01654089 0.40906341 -0.08829921
v -0.01287003 0.42735840 -0.08302691
v -0.02124268 0.39887090 -0.08515197
v -0.01883764 0.42223319 -0.08251332
v -0.01650100 0.39703275 -0.08814225
v -0.01440200 0.43124699 -0.07851300
v -0.02110886 0.42860265 -0.07647079
v -0.01905500 0.43243501 -0.07398500
v -0.02455023 0.41292496 -0.08188102
v -0.02748700 0.40681950 -0.07955800
v -0.02638000 0.39921999 -0.08051300
v -0.02773494 0.41996831 -0.07452550
v -0.02349581 0.43478865 -0.06664062
v -0.02877000 0.40955001 -0.07798000
v -0.02661100 0.42805701 -0.07075100
v 0.07376655 0.37955838 -0.07341791
v 0.06938900 0.38438699 -0.07644600
v 0.05876909 0.38381286 -0.08763854
v 0.05296290 0.38181527 -0.09281528
v 0.06568667 0.38319259 -0.08195046
v 0.04775319 0.38195500 -0.09594909
v 0.04515373 0.39103768 -0.09032529
v 0.06118165 0.38943524 -0.07944328
v 0.04955619 0.39126785 -0.08689575
v 0.03461490 0.38326305 -0.10136000
v 0.03008305 0.38535968 -0.10132972
v 0.02741700 0.39007899 -0.09760300
v 0.01927487 0.38410531 -0.10430832
v 0.02225165 0.39306470 -0.09656371
v 0.00213100 0.38683599 -0.10215800
v -0.05429045 0.39481544 -0.00562558
v -0.04693567 0.40446025 -0.01827069
v -0.05254329 0.39715392 -0.00470908
v -0.04575420 0.40438231 -0.01100719
v -0.05600385 0.39601813 -0.01934455
v -0.05485227 0.39731394 -0.03025986
v -0.04821722 0.40318238 -0.03155866
v -0.04792608 0.40220200 -0.03987336
v -0.05669250 0.39535182 -0.03289060
v -0.05265550 0.39528161 -0.04980236
v -0.04448942 0.40055791 -0.05482326
v -0.04997234 0.39259026 -0.06176463
v -0.04546825 0.39174524 -0.06973104
v -0.04497010 0.40179130 -0.05229667
v -0.04660095 0.40704102 -0.02162732
v -0.04635121 0.41213220 -0.03582280
v -0.04477800 0.41635600 -0.04243200
v -0.04279694 0.41971194 -0.04736243
v -0.04514307 0.41049986 -0.04652258
v -0.03377796 0.42179190 -0.06660495
v -0.03780752 0.42350938 -0.05801448
v -0.03880295 0.41511424 -0.06182695
v -0.03654363 0.41664144 -0.06503979
v -0.03844731 0.40161269 -0.06629848
v -0.04272733 0.40120550 -0.05733824
v -0.03030952 0.42903483 -0.06569765
v -0.03292784 0.41172027 -0.07266008
v -0.03336830 0.40004514 -0.07308751
v -0.05137200 0.38978401 -0.06110200
v -0.03842500 0.39116600 -0.07847900
v -0.03627541 0.39987404 -0.06907184
v -0.04133400 0.39349800 -0.07222900
v -0.03580922 0.38957130 -0.08282646
v -0.02934515 0.39822120 -0.07811165
v -0.03550990 0.38621844 -0.08560093
v -0.01910989 0.38648097 -0.09678035
v -0.01022993 0.38595551 -0.10052941
v -0.02968019 0.38604318 -0.09029050
f 125 123 7
f 127 123 125
f 126 127 125
f 126 124 127
f 124 128 127
f 127 128 131
f 128 130 131
f 131 130 132
f 131 132 13
f 132 15 13
f 132 134 15
f 133 134 132
f 133 147 134
f 147 135 134
f 146 135 147
f 136 146 147
f 144 146 136
f 145 146 144
f 142 146 145
f 142 149 146
f 149 150 146
f 149 106 150
f 150 106 156
f 153 150 156
f 106 103 156
f 97 156 103
f 146 150 153
f 106 149 142
f 106 142 107
f 148 107 142
f 143 148 142
f 10 148 143
f 105 148 10
f 9 10 143
f 9 143 140
f 143 141 140
f 143 136 141
f 141 136 130
f 130 138 141
f 138 1 141
f 1 139 141
f 140 139 1
f 2 140 1
f 3 140 2
f 138 130 1
f 1 130 137
f 137 130 124
f 5 137 124
f 5 4 137
f 6 5 124
f 4 1 137
f 136 133 130
f 139 140 141
f 3 9 140
f 105 107 148
f 143 142 145
f 143 145 144
f 143 144 136
f 146 154 135
f 146 152 154
f 153 152 146
f 155 152 153
f 156 155 153
f 156 157 155
f 97 157 156
f 97 160 157
f 97 158 160
f 158 21 160
f 160 21 22
f 22 23 160
f 160 23 157
f 157 23 28
f 157 28 155
f 158 26 21
f 159 26 158
f 43 159 158
f 122 159 43
f 122 17 159
f 17 20 159
f 122 30 17
f 54 30 122
f 120 30 54
f 121 120 54
f 121 118 120
f 119 118 121
f 60 119 121
f 60 118 119
f 114 118 60
f 114 117 118
f 114 29 117
f 117 29 19
f 117 19 18
f 120 117 18
f 120 18 30
f 114 113 29
f 114 111 113
f 116 111 114
f 72 116 114
f 76 116 72
f 76 83 116
f 42 83 76
f 42 76 39
f 85 39 76
f 85 76 79
f 79 40 85
f 40 79 84
f 79 77 84
f 80 84 77
f 84 80 87
f 33 84 87
f 87 31 33
f 31 87 75
f 75 87 71
f 87 70 71
f 87 77 70
f 77 73 70
f 73 66 70
f 73 67 66
f 73 68 67
f 74 68 73
f 78 74 73
f 76 74 78
f 79 78 73
f 74 76 68
f 68 59 67
f 68 121 59
f 68 60 121
f 72 60 68
f 56 59 121
f 55 56 121
f 121 50 55
f 55 50 48
f 49 55 48
f 51 55 49
f 57 55 51
f 58 55 57
f 57 67 58
f 67 57 62
f 70 62 57
f 58 67 55
f 57 51 53
f 57 53 52
f 57 52 61
f 75 57 61
f 75 61 82
f 34 75 82
f 34 82 86
f 86 82 88
f 82 91 88
f 88 91 90
f 90 91 94
f 91 96 94
f 94 96 99
f 96 101 99
f 99 101 104
f 101 102 104
f 101 95 102
f 95 101 93
f 101 92 93
f 92 81 93
f 81 47 93
f 52 47 81
f 64 52 81
f 69 52 64
f 91 69 64
f 91 64 92
f 82 52 69
f 52 45 47
f 51 45 52
f 51 48 45
f 48 43 45
f 47 45 46
f 46 43 47
f 43 89 47
f 47 89 95
f 46 44 43
f 45 44 46
f 64 81 92
f 47 95 93
f 105 99 104
f 100 99 105
f 100 98 99
f 98 90 99
f 92 101 96
f 92 96 91
f 90 94 99
f 82 69 91
f 32 75 34
f 33 75 32
f 65 57 75
f 71 57 65
f 61 52 82
f 53 51 52
f 49 48 51
f 50 43 48
f 55 59 56
f 67 59 55
f 66 67 62
f 70 66 62
f 70 57 71
f 71 65 75
f 41 84 33
f 80 77 87
f 79 73 77
f 41 40 84
f 79 76 78
f 39 85 40
f 76 72 68
f 72 114 63
f 63 114 60
f 72 63 60
f 110 111 116
f 115 110 116
f 83 115 116
f 115 83 42
f 38 115 42
f 38 112 115
f 38 109 112
f 37 112 109
f 25 112 37
f 25 108 112
f 108 24 112
f 112 24 110
f 35 25 37
f 37 109 38
f 36 38 42
f 112 110 115
f 110 24 111
f 24 27 111
f 111 27 29
f 111 29 113
f 118 117 120
f 121 54 50
f 43 50 54
f 54 122 43
f 89 43 158
f 20 26 159
f 89 158 97
f 152 155 28
f 152 28 135
f 135 28 14
f 154 152 135
f 134 135 14
f 134 14 151
f 151 14 15
f 147 133 136
f 134 151 15
f 131 13 11
f 130 133 132
f 129 130 128
f 127 131 11
f 124 129 128
f 6 124 126
f 6 126 125
f 123 127 11
f 123 11 16
f 123 16 12
f 123 12 8
f 6 125 7
f 7 123 8

