v 0.0284765 -0.105182 -0.113394
v 0.0194533 -0.104633 -0.116296
v 0.0073242 -0.107697 -0.110539
v 0.016456 -0.108655 -0.107903
v 0.0225019 -0.112796 -0.0964898
v 0.0134855 -0.112217 -0.0993677
v 0.0104975 -0.1154 -0.090777
v 0.0194983 -0.115976 -0.087892
v 0.0284493 -0.116197 -0.0848715
v 0.0371519 -0.116281 -0.0815961
v 0.0458529 -0.116291 -0.0783147
v 0.107391 -0.0978197 -0.0854937
v 0.0488337 -0.113412 -0.0869377
v 0.0573222 -0.113219 -0.0834969
v 0.0603431 -0.109622 -0.0918575
v 0.0656511 -0.112796 -0.0798835
v 0.0584891 -0.100907 -0.111586
v 0.0548757 -0.105586 -0.1036
v 0.0670001 -0.10077 -0.108025
v 0.0633867 -0.105449 -0.100038
v 0.070538 -0.096062 -0.115929
v 0.0752687 -0.10054 -0.104199
v 0.0717443 -0.105278 -0.0963259
v 0.0796095 -0.104954 -0.0920593
v 0.085109 -0.108105 -0.0795963
v 0.0867555 -0.104554 -0.0875485
v 0.0936043 -0.104187 -0.0829654
v 0.0896763 -0.100147 -0.0954905
v 0.0965263 -0.0995598 -0.0913317
v 0.0947416 -0.0941244 -0.103746
v 0.108197 -0.0869977 -0.106836
v 0.101798 -0.093399 -0.0996305
v 0.107839 -0.0924199 -0.096137
v 0.112952 -0.0884473 -0.0989867
v 0.112397 -0.0941005 -0.0878848
v 0.119809 -0.0835233 -0.101692
v 0.117556 -0.0902823 -0.0903016
v 0.122221 -0.0920777 -0.0816269
v 0.114189 -0.0815157 -0.111391
v 0.105482 -0.0820984 -0.117686
v 0.100345 -0.0882507 -0.111004
v 0.0882591 -0.0843518 -0.126236
v 0.0972168 -0.0834136 -0.12195
v 0.0832022 -0.0902031 -0.119331
v 0.0918953 -0.0893367 -0.11518
v 0.074592 -0.0908933 -0.123422
v 0.0694848 -0.08575 -0.134643
v 0.0733858 -0.0798644 -0.14174
v 0.0508904 -0.0854632 -0.141455
v 0.0473501 -0.0910613 -0.134156
v 0.043945 -0.0962177 -0.126436
v 0.0316064 -0.100693 -0.121566
v 0.0406306 -0.100953 -0.118462
v 0.034848 -0.0959217 -0.129573
v 0.0288454 -0.0901824 -0.140257
v 0.0256755 -0.0952028 -0.132399
v 0.02251 -0.100227 -0.124534
v 0.031994 -0.084938 -0.147925
v 0.0413156 -0.0855229 -0.144975
v 0.0380972 -0.0908394 -0.137376
v 0.0541865 -0.0794952 -0.148451
v 0.0637777 -0.0793869 -0.144885
v 0.0870511 -0.0726238 -0.144014
v 0.109168 -0.0700682 -0.134052
v 0.0981447 -0.0714209 -0.139095
v 0.114797 -0.0624774 -0.139294
v 0.131767 -0.0557841 -0.133365
v 0.12522 -0.062483 -0.130736
v 0.133117 -0.0641479 -0.120006
v 0.139521 -0.0661492 -0.109187
v 0.144514 -0.0684523 -0.0987569
v 0.148909 -0.07085 -0.0886732
v 0.13315 -0.0722633 -0.107005
v 0.137673 -0.0746205 -0.0969261
v 0.131112 -0.0803236 -0.0946165
v 0.142195 -0.0769777 -0.0868476
v 0.13552 -0.0824462 -0.0851542
v 0.146231 -0.0792312 -0.0771731
v 0.138999 -0.084707 -0.0756296
v 0.132143 -0.0897798 -0.0739799
v 0.135044 -0.0923627 -0.0644971
v 0.125488 -0.094379 -0.0723858
v 0.127724 -0.0967437 -0.0634974
v 0.129792 -0.0991735 -0.0536691
v 0.137333 -0.0947251 -0.0546729
v 0.139418 -0.0969669 -0.0445977
v 0.144683 -0.0896713 -0.0556903
v 0.146913 -0.0920302 -0.0454226
v 0.154346 -0.0863639 -0.0462315
v 0.14909 -0.0817215 -0.0669684
v 0.151863 -0.0841527 -0.0566267
v 0.155865 -0.0754614 -0.0677913
v 0.158569 -0.0777596 -0.0574141
v 0.168091 -0.0735515 -0.047833
v 0.161274 -0.0800577 -0.0470369
v 0.163341 -0.0827276 -0.036217
v 0.169949 -0.0760531 -0.0367597
v 0.171316 -0.0785998 -0.0252542
v 0.164594 -0.0852208 -0.0249882
v 0.157378 -0.0911386 -0.0247697
v 0.156165 -0.0886639 -0.0355601
v 0.148768 -0.094399 -0.0350758
v 0.141353 -0.101625 -0.0246404
v 0.14968 -0.0967243 -0.0247633
v 0.14104 -0.104071 -0.0149615
v 0.120051 -0.112703 -0.0199792
v 0.130515 -0.108749 -0.0172707
v 0.121737 -0.110336 -0.0278811
v 0.132409 -0.106381 -0.0252612
v 0.122953 -0.107958 -0.0356583
v 0.113336 -0.107242 -0.0537512
v 0.113165 -0.109551 -0.0459969
v 0.123257 -0.105649 -0.0439312
v 0.103163 -0.110369 -0.0555909
v 0.0932713 -0.109931 -0.0671195
v 0.0918707 -0.113229 -0.0589234
v 0.0825413 -0.111594 -0.0714141
v 0.1023 -0.112546 -0.0486873
v 0.101653 -0.114626 -0.041077
v 0.103429 -0.104886 -0.0714281
v 0.102147 -0.10224 -0.0797588
v 0.109103 -0.10018 -0.0775335
v 0.110816 -0.102541 -0.0695734
v 0.112528 -0.104902 -0.0616133
v 0.131735 -0.101538 -0.0439266
v 0.132528 -0.10399 -0.0341959
v 0.112433 -0.11188 -0.0382444
v 0.111228 -0.11398 -0.0306213
v 0.100832 -0.116697 -0.0334941
v 0.10978 -0.11573 -0.0228364
v 0.117904 -0.114835 -0.011826
v 0.107715 -0.117374 -0.0147172
v 0.105793 -0.119163 -0.0066303
v 0.115824 -0.116522 -0.00369735
v 0.112852 -0.118064 0.0048403
v 0.122665 -0.114681 0.00776543
v 0.132912 -0.110818 0.0103912
v 0.143504 -0.106037 0.0125988
v 0.146489 -0.103839 0.00409558
v 0.138653 -0.106619 -0.00661386
v 0.135932 -0.109062 0.00187147
v 0.128342 -0.110961 -0.00913318
v 0.156447 -0.0983003 0.00611606
v 0.148836 -0.10121 -0.00447786
v 0.157578 -0.095925 -0.00371062
v 0.164774 -0.0922302 0.00734501
v 0.172752 -0.0857613 0.00880345
v 0.171386 -0.0880415 0.0188393
v 0.169035 -0.090443 0.0283219
v 0.160209 -0.096724 0.025785
v 0.166097 -0.0924022 0.0370857
v 0.174332 -0.0860285 0.0399617
v 0.176705 -0.083666 0.0304929
v 0.180922 -0.0789989 0.0424703
v 0.183289 -0.0764346 0.0324344
v 0.178973 -0.0811264 0.0205784
v 0.179038 -0.0763982 -0.0024484
v 0.172774 -0.0834712 -0.00253852
v 0.179444 -0.0787996 0.00901131
v 0.178618 -0.0740065 -0.0140565
v 0.177548 -0.0715165 -0.0256369
v 0.176185 -0.0687986 -0.0372727
v 0.165261 -0.0711859 -0.0584877
v 0.17141 -0.0639507 -0.0594714
v 0.174063 -0.0662229 -0.0486061
v 0.168661 -0.0616907 -0.0702893
v 0.158818 -0.0665469 -0.0795814
v 0.155399 -0.0642701 -0.0900573
v 0.151065 -0.0619379 -0.100444
v 0.15764 -0.0551132 -0.101477
v 0.161436 -0.0573158 -0.0911302
v 0.165223 -0.0595072 -0.0807773
v 0.16551 -0.0876388 -0.0137617
v 0.165628 -0.0897762 -0.00267957
v 0.157857 -0.0935048 -0.0140424
v 0.153854 -0.100629 0.0148052
v 0.163251 -0.0946282 0.0170461
v 0.125858 -0.113006 -0.000877039
v 0.149798 -0.0989648 -0.0144039
v 0.1723 -0.0810572 -0.0139255
v 0.140522 -0.0992898 -0.0347856
v 0.120208 -0.101067 -0.0625318
v 0.122103 -0.103249 -0.0531675
v 0.142088 -0.0871139 -0.0659075
v 0.152885 -0.0732058 -0.0784197
v 0.162423 -0.0687986 -0.0691533
v 0.146138 -0.0596501 -0.110973
v 0.139711 -0.0575469 -0.122027
v 0.118717 -0.0685923 -0.128044
v 0.126381 -0.0703474 -0.117389
v 0.120633 -0.0759503 -0.114386
v 0.0830578 -0.0793815 -0.137655
v 0.0603562 -0.0857586 -0.138278
v 0.0566965 -0.0910179 -0.13067
v 0.0530368 -0.0962772 -0.123063
v 0.0655383 -0.0910216 -0.127209
v 0.0789484 -0.0853243 -0.130631
v 0.0929703 -0.0784793 -0.133185
v 0.102913 -0.0770814 -0.128266
v 0.1124 -0.075464 -0.123213
v 0.126392 -0.0780147 -0.104629
v 0.124453 -0.0853365 -0.0929473
v 0.128871 -0.0873385 -0.0834631
v 0.116285 -0.0961554 -0.0792805
v 0.118226 -0.0986272 -0.071044
v 0.087406 -0.0950402 -0.107884
v 0.102305 -0.0987279 -0.088163
v 0.0935065 -0.107053 -0.0750874
v 0.103931 -0.107884 -0.0627776
v 0.083109 -0.100316 -0.100069
v 0.0788732 -0.0957167 -0.111978
v 0.0496504 -0.101076 -0.115161
v 0.0463544 -0.105724 -0.107161
v 0.0618979 -0.0962484 -0.119581
v 0.0518612 -0.109771 -0.0954204
v 0.0432145 -0.10973 -0.098764
v 0.0314349 -0.113248 -0.0935006
v 0.0686886 -0.109121 -0.0881685
v 0.0769495 -0.10861 -0.0838839
v 0.0739261 -0.112287 -0.0756978
v 0.0401331 -0.113359 -0.0902259
v 0.0374002 -0.10556 -0.110346
v 0.00149138 -0.11458 -0.0935642
v 0.0254865 -0.109222 -0.105028
v 0.0344272 -0.109451 -0.101942
v 0.0044336 -0.111431 -0.102146
v 0.0102369 -0.103723 -0.118867
f 222 225 224 1
f 224 4 2 1
f 2 57 52 1
f 52 53 222 1
f 4 3 227 2
f 4 6 226 3
f 224 5 6 4
f 217 9 8 5
f 8 7 6 5
f 224 225 217 5
f 7 223 226 6
f 217 221 10 9
f 221 13 11 10
f 221 216 215 13
f 215 15 14 13
f 15 218 16 14
f 215 18 20 15
f 20 23 218 15
f 218 219 220 16
f 19 20 18 17
f 18 213 212 17
f 212 195 214 17
f 214 21 19 17
f 215 216 213 18
f 22 23 20 19
f 21 211 22 19
f 214 196 46 21
f 46 44 211 21
f 210 24 23 22
f 211 206 210 22
f 24 219 218 23
f 26 25 219 24
f 210 28 26 24
f 208 115 117 25
f 117 220 219 25
f 26 27 208 25
f 28 29 27 26
f 121 120 208 27
f 29 207 121 27
f 210 206 30 28
f 30 32 29 28
f 32 33 207 29
f 206 45 41 30
f 41 31 32 30
f 34 33 32 31
f 41 40 39 31
f 39 36 34 31
f 35 12 207 33
f 34 37 35 33
f 36 202 37 34
f 204 122 12 35
f 37 38 204 35
f 39 191 201 36
f 201 75 202 36
f 202 203 38 37
f 82 205 204 38
f 203 80 82 38
f 40 200 191 39
f 41 45 43 40
f 43 199 200 40
f 43 45 44 42
f 44 46 197 42
f 197 192 198 42
f 198 199 43 42
f 45 206 211 44
f 196 47 197 46
f 196 194 193 47
f 193 62 48 47
f 48 192 197 47
f 193 194 50 49
f 50 60 59 49
f 61 62 193 49
f 194 195 51 50
f 51 54 60 50
f 195 212 53 51
f 53 52 54 51
f 57 56 54 52
f 212 213 222 53
f 56 55 60 54
f 58 59 60 55
f 65 198 192 63
f 189 200 199 64
f 199 198 65 64
f 66 68 189 64
f 188 69 68 67
f 69 190 189 68
f 70 73 190 69
f 188 187 70 69
f 71 74 73 70
f 187 169 71 70
f 72 76 74 71
f 169 168 72 71
f 185 78 76 72
f 168 167 185 72
f 74 75 201 73
f 201 191 190 73
f 76 77 75 74
f 77 203 202 75
f 78 79 77 76
f 79 80 203 77
f 90 184 79 78
f 185 92 90 78
f 184 81 80 79
f 81 83 82 80
f 85 84 83 81
f 184 87 85 81
f 83 182 205 82
f 84 183 182 83
f 125 113 183 84
f 85 86 125 84
f 87 88 86 85
f 181 126 125 86
f 88 102 181 86
f 184 90 91 87
f 91 89 88 87
f 89 101 102 88
f 91 93 95 89
f 95 96 101 89
f 92 93 91 90
f 185 167 186 92
f 186 163 93 92
f 163 94 95 93
f 97 96 95 94
f 163 164 165 94
f 99 100 101 96
f 97 98 99 96
f 162 161 98 97
f 180 173 99 98
f 161 160 180 98
f 173 175 100 99
f 175 179 104 100
f 104 102 101 100
f 104 103 181 102
f 104 179 105 103
f 105 107 109 103
f 109 126 181 103
f 179 144 140 105
f 140 142 107 105
f 107 142 131 106
f 131 132 130 106
f 130 128 108 106
f 108 109 107 106
f 128 127 110 108
f 110 126 109 108
f 127 112 113 110
f 113 125 126 110
f 183 113 112 111
f 112 118 114 111
f 114 209 124 111
f 124 182 183 111
f 127 119 118 112
f 116 115 209 114
f 208 120 209 115
f 127 128 129 119
f 123 124 209 120
f 121 122 123 120
f 207 12 122 121
f 204 205 123 122
f 205 182 124 123
f 142 178 134 131
f 134 133 132 131
f 178 136 135 134
f 178 141 137 136
f 141 139 138 137
f 139 143 176 138
f 141 140 144 139
f 144 145 143 139
f 141 178 142 140
f 146 177 176 143
f 145 174 146 143
f 179 175 145 144
f 175 173 174 145
f 147 148 177 146
f 174 158 147 146
f 159 156 148 147
f 158 157 159 147
f 156 153 149 148
f 149 150 177 148
f 153 152 151 149
f 153 155 154 152
f 158 180 160 157
f 174 173 180 158
f 186 166 164 163
f 186 167 172 166
f 168 171 172 167
f 169 170 171 168
f 190 191 200 189
f 196 214 195 194
f 216 225 222 213
f 221 217 225 216
