# https://github.com/mikedh/trimesh
v -0.01507055 0.50237747 -0.02288599
v -0.00976681 0.50955396 -0.02701209
v -0.02075849 0.51142148 -0.02783355
v -0.02132900 0.51550800 -0.03040700
v -0.02779947 0.52052945 -0.03402999
v -0.00951034 0.51803462 -0.03277656
v -0.01144125 0.52204501 -0.03575651
v -0.01392150 0.49579100 -0.02018850
v -0.02764300 0.50564601 -0.02502675
v -0.01320325 0.49917201 -0.02164312
v -0.01615603 0.52926138 -0.04227377
v -0.02348663 0.52839769 -0.04124065
v -0.02338411 0.53260976 -0.04608088
v -0.02660870 0.53124201 -0.04547596
v -0.03057600 0.51292902 -0.03008100
v -0.00433435 0.52292024 -0.03632110
v -0.01840753 0.53541592 -0.05058735
v -0.01090800 0.50124598 -0.02197600
v 0.00323567 0.52912420 -0.04125543
v 0.00018153 0.53553026 -0.05070799
v 0.00447464 0.53417748 -0.04772850
v 0.01329844 0.53752751 -0.05013642
v 0.02348696 0.53981717 -0.04669032
v 0.00553213 0.52596257 -0.03567299
v -0.02442714 0.53669497 -0.05555793
v -0.00862700 0.50513601 -0.02314000
v -0.00766275 0.50350688 -0.02052600
v 0.08893202 0.57779676 -0.05984453
v 0.09278100 0.57463002 -0.05680600
v 0.09140700 0.57491949 -0.05149150
v 0.08970750 0.57550198 -0.06343300
v 0.08117900 0.57657701 -0.06932700
v 0.08177031 0.57800591 -0.06562679
v 0.08514000 0.57202851 -0.07057200
v 0.08338300 0.57823998 -0.06310000
v 0.06907318 0.57574748 -0.07006457
v 0.08482760 0.57827579 -0.06007623
v 0.07604926 0.57763705 -0.06330054
v 0.08509690 0.57761738 -0.05508205
v 0.08162150 0.57410866 -0.04619361
v 0.06451815 0.56520704 -0.03162545
v 0.06111570 0.56464839 -0.03370642
v 0.04775458 0.55881548 -0.02704168
v 0.03331126 0.55268494 -0.01802027
v 0.04446150 0.55621076 -0.01891437
v 0.02513686 0.54883626 -0.01203824
v 0.03027046 0.54990552 -0.01034528
v 0.07374918 0.57128593 -0.04662994
v 0.01826152 0.54521758 -0.00952542
v 0.02155941 0.54646175 -0.00758394
v 0.00506924 0.53434672 0.00094083
v 0.05899934 0.56359615 -0.03678629
v 0.06235197 0.57213537 -0.06930407
v 0.07673570 0.57451426 -0.05433706
v 0.07992417 0.57208671 -0.04165626
v 0.01044987 0.54000067 -0.00535928
v 0.05553983 0.56005113 -0.05254738
v 0.01666471 0.53350961 -0.03904413
v 0.04374938 0.55164971 -0.04945151
v 0.05757798 0.56058977 -0.04866608
v 0.03653438 0.55363085 -0.06436751
v 0.01644587 0.53273127 -0.03486932
v 0.01687400 0.54418693 -0.01210361
v 0.05773711 0.56168125 -0.04143240
v 0.04963118 0.56339023 -0.07244431
v 0.02710265 0.54624957 -0.06713961
v 0.02166356 0.54401744 -0.06385804
v 0.01701601 0.54168954 -0.06272946
v 0.01131661 0.53928181 -0.05538191
v 0.00753914 0.53896777 -0.05911268
v 0.05877969 0.56955670 -0.07282236
v 0.01634400 0.54100800 -0.05629100
v 0.00576973 0.53593235 -0.00495771
v 0.00636760 0.52415796 -0.02955713
v 0.05179123 0.55936445 -0.03547220
v 0.02302828 0.54408201 -0.05765417
v 0.02831097 0.54593765 -0.06968983
v 0.01718491 0.53364031 -0.03065096
v 0.03115400 0.55029643 -0.02270965
v 0.04188243 0.55673755 -0.06233702
v 0.04093390 0.55010258 -0.03881272
v 0.00295231 0.51972448 -0.02439926
v 0.03582963 0.54847464 -0.05258605
v -0.00151042 0.51674320 -0.02857321
v 0.00693300 0.53886801 -0.06197600
v 0.00161210 0.53817602 -0.05834249
v 0.00161800 0.51786402 -0.02090900
v 0.03063362 0.54349076 -0.03386058
v -0.00350114 0.51026544 -0.02099941
v 0.01128200 0.53885603 -0.01218100
v 0.00021525 0.52896851 -0.00254225
v 0.01062292 0.52840738 -0.02689959
v 0.06088775 0.56944500 -0.07487175
v 0.00998535 0.53878939 -0.06560186
v -0.00553650 0.51628650 0.00582175
v 0.01929900 0.53806549 -0.07375250
v 0.05441000 0.56519198 -0.07546100
v 0.00928800 0.52818501 -0.02297500
v -0.00149850 0.51282048 -0.01904000
v 0.00466525 0.52133800 -0.02121125
v 0.06702975 0.57227412 -0.07402075
v 0.00212573 0.53851226 -0.06328187
v 0.02768825 0.54373398 -0.07272800
v 0.04960725 0.56124075 -0.07577000
v -0.00802402 0.53870066 -0.06805028
v 0.00821050 0.53516850 -0.07592050
v 0.01927300 0.54106175 -0.02106538
v 0.01833200 0.53860348 -0.02318950
v -0.00562750 0.50429451 -0.01724900
v 0.00137921 0.52965485 0.00423024
v -0.02215044 0.53892587 -0.06888587
v -0.03033699 0.53518606 -0.06985770
v -0.03045916 0.53499099 -0.05915322
v -0.03317571 0.53266733 -0.07166669
v -0.03226637 0.52891913 -0.04673672
v -0.02121301 0.53885702 -0.06500234
v -0.01729277 0.53849079 -0.05882991
v -0.03369595 0.53111839 -0.05493048
v -0.03696390 0.52881848 -0.06830391
v -0.01847424 0.53830188 -0.07504328
v -0.02498310 0.53610541 -0.08035312
v -0.03767388 0.52703046 -0.05812905
v 0.04712585 0.55612885 -0.01760881
v 0.07570382 0.56876205 -0.03577993
v -0.03945607 0.52445702 -0.07367576
v -0.03109472 0.53171069 -0.08206653
v 0.08765133 0.57593104 -0.04968877
v -0.02063200 0.53417399 -0.08753100
v -0.03392500 0.51914349 -0.03761000
v 0.02207636 0.54470058 -0.00393198
v 0.00455850 0.52866000 0.00581850
v -0.00214225 0.51824899 0.00927500
v 0.04007686 0.55081050 -0.01023689
v -0.03184425 0.52698349 -0.08670675
v 0.03202800 0.54656601 -0.00516200
v 0.01986900 0.53981400 0.00081300
v -0.03937829 0.52486141 -0.06824728
v -0.00432562 0.53542762 -0.08058862
v 0.01616850 0.53858914 0.00100750
v -0.04160633 0.51695003 -0.05230997
v -0.03680754 0.52302171 -0.04670308
v 0.05942250 0.55867350 -0.02116000
v -0.01366245 0.53743273 -0.07901922
v 0.07251200 0.56539702 -0.03076800
v 0.05431525 0.55553975 -0.01697837
v -0.03707250 0.51741849 -0.04132475
v 0.08884600 0.57374627 -0.04665650
v -0.01862825 0.53538601 -0.08532150
v -0.03900800 0.51985002 -0.04869700
v -0.04359038 0.51107438 -0.05452788
v -0.03503077 0.52697388 -0.08218978
v -0.04125889 0.52094562 -0.06064665
v -0.00532850 0.50974051 0.01159300
v -0.02688263 0.53088481 -0.08795512
v -0.04387831 0.51380324 -0.06468700
v -0.04020825 0.51996274 -0.07796425
v -0.00872825 0.50569150 0.00953050
v -0.03952769 0.51676051 -0.04737038
v -0.00708000 0.50123298 0.01362200
v -0.00924400 0.50001301 0.01177050
v -0.01006150 0.48491650 0.01383013
v -0.02022750 0.50586263 -0.10831388
v -0.03111150 0.51850288 -0.09551825
v 0.00728100 0.48420900 -0.11864600
v -0.02385150 0.44496599 -0.02110800
v -0.03379025 0.46646050 -0.03424200
v -0.04442800 0.49290650 -0.05035200
v 0.06143382 0.50234051 -0.11531533
v 0.06546683 0.51033284 -0.11036834
v 0.05511114 0.50274723 -0.11588416
v 0.06153460 0.52078733 -0.10421257
v 0.06479406 0.53153564 -0.09685749
v 0.03259791 0.49885795 -0.12004819
v 0.02708811 0.50480352 -0.11783517
v 0.06815048 0.53352634 -0.09526090
v 0.01475114 0.50744334 -0.11733670
v 0.00500984 0.50849231 -0.11641539
v 0.06049410 0.53994941 -0.09181109
v 0.06286152 0.55223472 -0.08588512
v 0.06914353 0.54605533 -0.08844877
v 0.04659241 0.50698075 -0.11485962
v 0.07712300 0.57091200 -0.07569900
v 0.05930327 0.56215039 -0.08133127
v 0.07638435 0.51659868 -0.10339475
v 0.07395317 0.53435400 -0.09342702
v 0.04459688 0.51694124 -0.10668558
v 0.00224522 0.50349740 -0.11747721
v 0.03999162 0.51220637 -0.11132269
v -0.00668207 0.52044867 -0.10837651
v 0.01451531 0.49718232 -0.12030266
v 0.07366251 0.56951560 -0.07751910
v -0.00420528 0.50949917 -0.11446164
v -0.00615126 0.52374229 -0.10513212
v 0.03461956 0.51400841 -0.10988993
v 0.07602800 0.50974602 -0.10719600
v 0.03400791 0.49350644 -0.12110233
v 0.04728438 0.52223068 -0.10188416
v 0.06973412 0.57292436 -0.07529305
v 0.06294409 0.56617442 -0.08038689
v 0.05257943 0.52846574 -0.09773491
v 0.07967139 0.50105841 -0.10952135
v 0.08067342 0.56343375 -0.07674403
v 0.00840479 0.49536603 -0.11975950
v 0.04261400 0.52383798 -0.09944000
v 0.05087190 0.53840039 -0.09053880
v 0.07254170 0.49797624 -0.11296380
v -0.01228773 0.51121079 -0.11148758
v 0.05195539 0.49096198 -0.11935606
v 0.07923896 0.57437708 -0.07310245
v -0.01131600 0.52736598 -0.10038100
v -0.01650913 0.52299219 -0.10375076
v -0.01482418 0.52753251 -0.09962733
v 0.03438749 0.52111610 -0.10139203
v 0.03236433 0.52409253 -0.09690520
v 0.08235050 0.56989112 -0.07370155
v -0.00910667 0.50172849 -0.11473875
v 0.01721866 0.48904004 -0.12095588
v -0.02112193 0.52728885 -0.09777418
v 0.03972795 0.53260426 -0.09025064
v 0.08192471 0.51671089 -0.10058206
v 0.02710820 0.51944950 -0.10379361
v -0.00676313 0.52686369 -0.10126807
v 0.04352429 0.54055312 -0.08629528
v 0.02521512 0.53326255 -0.08308915
v 0.01500170 0.52148275 -0.10344188
v 0.07852416 0.54332335 -0.08590594
v 0.06255630 0.48865079 -0.11741655
v 0.08173800 0.53796101 -0.08672500
v 0.08013300 0.55659300 -0.07925100
v 0.08278741 0.50939223 -0.10422168
v 0.01711871 0.53309016 -0.08060814
v 0.02124953 0.52601509 -0.09350223
v -0.01802876 0.51969889 -0.10561883
v 0.00135991 0.52298980 -0.10579750
v 0.03332629 0.54073061 -0.08009885
v -0.02006999 0.51292186 -0.10766635
v -0.02453495 0.52910748 -0.09397419
v -0.00237700 0.52856803 -0.09745700
v 0.02159590 0.53513374 -0.07889429
v 0.08438025 0.52475574 -0.09332975
v 0.07465528 0.48855654 -0.11329013
v 0.01605873 0.52531272 -0.09585559
v 0.08681450 0.50059349 -0.10486950
v 0.08628250 0.50587650 -0.10318075
v 0.08714800 0.51044351 -0.10033000
v 0.00836670 0.53270306 -0.08162060
v 0.02759031 0.48173628 -0.12082071
v 0.01459902 0.48429194 -0.12013701
v 0.00070548 0.49291865 -0.11814382
v -0.01345164 0.53200657 -0.09377632
v 0.05161490 0.48398839 -0.11934672
v 0.08473400 0.49250600 -0.10785900
v -0.00544506 0.53294541 -0.08889375
v 0.06540917 0.48265235 -0.11631691
v -0.02928866 0.52171928 -0.09631689
v 0.04833701 0.47897008 -0.11922386
v 0.08338100 0.48959100 -0.10887500
v 0.03899913 0.48356199 -0.12095289
v 0.07912375 0.48471025 -0.11087975
v 0.04419575 0.47618163 -0.11822650
v 0.07027850 0.47951950 -0.11404700
v 0.06412363 0.47688813 -0.11531200
v -0.01343167 0.47157560 0.00801876
v -0.01336418 0.46113876 0.00630304
v -0.01345040 0.48173019 0.00871663
v -0.01294268 0.48657206 0.00441246
v -0.01402185 0.44632150 -0.00059973
v -0.01283054 0.46374332 -0.00584637
v -0.01150450 0.48191354 -0.00323158
v -0.01136100 0.48175000 -0.01162450
v -0.00990217 0.50186430 -0.00012867
v -0.01085938 0.48616080 -0.00466469
v -0.00819600 0.49539500 -0.00993600
v -0.00674867 0.50144300 -0.00972726
v -0.00367461 0.52051272 -0.00427273
v -0.00309934 0.50997604 -0.01460124
v 0.00173173 0.52934843 -0.00756338
v 0.00288760 0.52148621 -0.01738181
v -0.00980015 0.50726607 0.00366269
v 0.00948712 0.53267047 -0.01755970
v -0.01394700 0.45884600 -0.00756100
v -0.00841200 0.49619901 -0.01492500
v -0.01204387 0.49485211 0.00900151
v -0.01856587 0.44463057 -0.01071912
v -0.01458450 0.44490874 -0.00316625
v -0.01292750 0.44460450 0.00285000
v -0.01210600 0.48833291 0.01124363
v -0.01246930 0.46755663 0.01053605
v -0.01175100 0.44841000 0.00520900
v -0.01053700 0.46481687 0.01172000
v -0.00920725 0.44443438 0.00694275
v 0.09936893 0.46026450 -0.08091192
v 0.10427734 0.45995619 -0.06533282
v 0.09672828 0.46388234 -0.08907631
v 0.09457556 0.45197956 -0.07747637
v 0.08517544 0.45140362 -0.08634444
v 0.09417175 0.44888925 -0.06776450
v 0.08383802 0.45962794 -0.09813803
v 0.10393337 0.46935354 -0.08137580
v 0.09053399 0.46490316 -0.09638095
v 0.10665424 0.46697252 -0.06877571
v 0.09949697 0.45270169 -0.05614329
v 0.09840713 0.47114443 -0.09209836
v 0.10518502 0.47324666 -0.08326375
v 0.08734000 0.46686101 -0.10033100
v 0.10800350 0.47755100 -0.07572750
v 0.10843550 0.47210175 -0.06523413
v 0.10314825 0.48302099 -0.08901925
v 0.10712995 0.46665027 -0.06561717
v 0.10224050 0.45707050 -0.05350450
v 0.09482700 0.44787100 -0.05394500
v 0.08730502 0.47159596 -0.10331808
v 0.09485986 0.47903270 -0.09933782
v 0.09052006 0.49014437 -0.10357394
v 0.09086688 0.48395833 -0.10375428
v 0.07669471 0.46623726 -0.10717710
v 0.06674738 0.46141146 -0.10819666
v 0.07637107 0.47638750 -0.11117890
v 0.10007500 0.48363749 -0.09382450
v 0.05535337 0.45373837 -0.10500638
v 0.08406867 0.48409971 -0.10830483
v 0.06027827 0.46866586 -0.11399193
v 0.06609967 0.45425868 -0.10310594
v 0.05842200 0.46095401 -0.11007200
v 0.05250339 0.45681217 -0.10856302
v 0.03340150 0.45647300 -0.10955975
v 0.04536125 0.46861408 -0.11655434
v 0.03249514 0.45892359 -0.11171074
v 0.04701931 0.46384687 -0.11388613
v 0.02215350 0.47061462 -0.11676362
v 0.02993780 0.47068232 -0.11764495
v 0.02794337 0.46548542 -0.11511691
v 0.04129487 0.47269309 -0.11820300
v 0.09768800 0.45245299 -0.04650800
v 0.09546000 0.44994900 -0.04592700
v 0.09301200 0.44798699 -0.04339100
v -0.02232392 0.47408219 -0.01446832
v -0.02719726 0.48820145 -0.01817990
v -0.02075700 0.49425599 -0.01960000
v -0.01378766 0.49138472 -0.01804780
v -0.02940822 0.49483729 -0.02069896
v -0.02150707 0.46084487 -0.01266171
v -0.02621925 0.47556547 -0.01641457
v -0.03412373 0.50005976 -0.02631942
v -0.01486423 0.47862052 -0.01367600
v -0.03275983 0.50928712 -0.02872121
v -0.03613521 0.50821915 -0.03222111
v -0.01586904 0.45943182 -0.01018289
v -0.01566650 0.44525500 -0.00740800
v -0.03391680 0.48293339 -0.02415249
v -0.03661514 0.49571724 -0.02925869
v -0.02922899 0.47452214 -0.01907417
v -0.03899431 0.49572657 -0.03286980
v -0.04123377 0.50785885 -0.04126742
v -0.04047837 0.50473425 -0.03899140
v -0.04362772 0.49150713 -0.04585043
v -0.03117244 0.46779760 -0.02686842
v 0.09614693 0.53264683 -0.06361280
v 0.09611065 0.56543396 -0.05459331
v 0.09435929 0.55947872 -0.06142934
v 0.09794620 0.52775205 -0.05888083
v 0.09424200 0.57201451 -0.05702700
v 0.09854580 0.52262460 -0.06400526
v 0.09722238 0.53706944 -0.05469571
v 0.09938100 0.52274224 -0.05044000
v 0.09813600 0.52949601 -0.04770500
v 0.09636883 0.55935290 -0.05199667
v 0.09671900 0.54672199 -0.04936700
v 0.10203400 0.51176300 -0.05508900
v 0.09341871 0.53466381 -0.07105111
v 0.09378239 0.54286056 -0.06556456
v 0.09457200 0.52763200 -0.07462000
v 0.09005153 0.53955368 -0.07515034
v 0.09212924 0.52874689 -0.07950925
v 0.08834054 0.54985086 -0.07347834
v 0.09613874 0.52549917 -0.07200695
v 0.10598333 0.50032198 -0.07676942
v 0.10663003 0.49603150 -0.07841396
v 0.11001055 0.48575218 -0.07071093
v 0.10616005 0.48892539 -0.08378478
v 0.10951100 0.47759651 -0.05907250
v 0.10234567 0.50629267 -0.08192133
v 0.10812169 0.49613216 -0.06997423
v 0.10855600 0.49363899 -0.06367200
v 0.10027317 0.51768354 -0.06283748
v 0.10078277 0.50631058 -0.08644945
v 0.10264385 0.49925592 -0.08757917
v 0.10828111 0.48245172 -0.07717837
v 0.10934593 0.47222146 -0.06090832
v 0.08606152 0.53488806 -0.08437577
v 0.09721350 0.50026455 -0.09597527
v 0.08956155 0.52763056 -0.08577245
v 0.08840947 0.55733108 -0.07132906
v 0.09188672 0.51207752 -0.09520538
v 0.09500842 0.49376118 -0.09974280
v 0.08299565 0.54837429 -0.07976240
v 0.10059523 0.48952729 -0.09373590
v 0.09078916 0.50962456 -0.09809716
v 0.09249190 0.49772993 -0.10155760
v 0.08875651 0.50221931 -0.10299333
v 0.08045800 0.55241728 -0.08056802
v 0.10613087 0.46554762 -0.05315250
v 0.10771400 0.47212325 -0.05187825
v 0.00118390 0.44340953 0.01503588
v 0.01839425 0.44203650 0.01746425
v 0.05968475 0.43457325 -0.00643400
v 0.04431625 0.43860601 0.00741450
v 0.03514013 0.44007851 0.01469013
v 0.03109925 0.44033276 0.01654650
v 0.06201650 0.43418049 -0.00995750
v -0.00154649 0.46630741 0.01793998
v 0.02395058 0.45646652 0.02239017
v -0.00187784 0.47873081 0.01921673
v 0.01636381 0.48506206 0.02423298
v 0.01052097 0.47765627 0.02337042
v -0.00078595 0.48798369 0.01967246
v 0.02167722 0.46075849 0.02349449
v 0.02249659 0.48508202 0.02486824
v 0.02660390 0.47983395 0.02537464
v 0.01843185 0.49851013 0.02287771
v 0.00274085 0.49787535 0.01939802
v 0.02808133 0.45610625 0.02222574
v -0.00711362 0.46431488 0.01481955
v 0.02982686 0.45900379 0.02280655
v -0.00690818 0.48718338 0.01695455
v 0.01358757 0.49779516 0.02203100
v -0.00296434 0.50358150 0.01622923
v 0.03053456 0.47055755 0.02488959
v 0.03048561 0.49558086 0.02363215
v 0.02855265 0.50784617 0.02024590
v 0.00242635 0.52137816 0.01037461
v 0.00778193 0.51603077 0.01515971
v 0.03066452 0.51296444 0.01779477
v 0.01766805 0.52991076 0.00873879
v 0.03379323 0.51326214 0.01810194
v 0.03719531 0.52604306 0.00987212
v 0.02876698 0.54305150 -0.00143578
v 0.03917290 0.53956698 0.00061024
v 0.06280157 0.54710055 -0.01163325
v 0.07929870 0.56488540 -0.03180319
v 0.06634798 0.55975004 -0.02322299
v 0.08796090 0.56963614 -0.04027909
v 0.09500358 0.57082774 -0.05128537
v 0.09706793 0.53360316 -0.04524554
v 0.10116416 0.51078403 -0.04588590
v 0.10933452 0.48762637 -0.05653887
v 0.10115144 0.50531523 -0.04104702
v 0.10623893 0.48526485 -0.04418747
v 0.10718960 0.47755187 -0.04587077
v 0.09469660 0.56125661 -0.04526587
v 0.10936918 0.48845667 -0.05994859
v 0.10026242 0.48711354 -0.03091703
v 0.10189485 0.49677423 -0.03722195
v 0.10292300 0.47905999 -0.03557500
v 0.09743644 0.49548121 -0.02797336
v 0.10730720 0.49723294 -0.05987898
v 0.09536884 0.53133600 -0.03949845
v 0.10262734 0.46401929 -0.03861091
v 0.09211349 0.56168089 -0.04052291
v 0.09412627 0.47731208 -0.02094358
v 0.08952773 0.47654403 -0.01505095
v 0.09873205 0.48601864 -0.02739279
v 0.09144662 0.54683938 -0.03738753
v 0.10065118 0.46953474 -0.03271859
v 0.09058992 0.56470550 -0.03952601
v 0.09166844 0.53797931 -0.03613502
v 0.09028307 0.51828886 -0.02811912
v 0.07520955 0.52899474 -0.01750714
v 0.05468370 0.50574060 0.00751428
v 0.08143166 0.52540253 -0.02352349
v 0.04448248 0.49565478 0.01929475
v 0.09352149 0.49629837 -0.02282528
v 0.05960362 0.50252141 -0.00048963
v 0.08224080 0.55787852 -0.02889488
v 0.04770556 0.49413730 0.01550795
v 0.05533629 0.51790128 0.00591221
v 0.04516454 0.48670879 0.01770186
v 0.08436015 0.48564103 -0.01070541
v 0.04198028 0.48139706 0.02047443
v 0.07701810 0.46856263 -0.00450135
v 0.06911802 0.46644917 0.00057490
v 0.05250259 0.47359979 0.00332470
v 0.05481069 0.52866966 0.00261363
v 0.04938529 0.50877306 0.01332721
v 0.08598811 0.46638036 -0.01368110
v 0.04454966 0.45703938 0.00717085
v 0.07306745 0.55059022 -0.01961291
v 0.04059700 0.49136201 0.02165500
v 0.04201099 0.45141915 0.00828812
v 0.04661154 0.46523862 0.00660964
v 0.04516173 0.47163433 0.01128764
v 0.03589616 0.47805775 0.02434876
v 0.06498849 0.45803223 0.00151260
v 0.04119561 0.50706567 0.01814286
v 0.03514968 0.46303473 0.02250832
v 0.08271604 0.46118360 -0.01254259
v 0.03349943 0.48759787 0.02469133
v 0.05225285 0.54566712 -0.00669128
v 0.09267635 0.57259611 -0.04767697
v 0.09453732 0.45579365 -0.03199284
v 0.09423207 0.45316686 -0.03547500
v 0.08192800 0.44217901 -0.03148700
v 0.07469682 0.44132291 -0.02132791
v 0.10090913 0.45661137 -0.04876975
v 0.06542253 0.50469410 -0.00693677
v 0.07417847 0.50949137 -0.01431517
v 0.07528585 0.50335430 -0.01329621
v 0.08240467 0.48357295 -0.00939388
v 0.07207083 0.49309527 -0.00793000
v 0.07220019 0.47625895 -0.00212882
v 0.05630367 0.48466177 0.00081724
v 0.06353045 0.46718628 0.00213586
v 0.04996438 0.46725885 0.00464078
v 0.06265701 0.46300383 0.00259442
v 0.04412425 0.44307746 0.00737295
f 114 125 119
f 119 125 122
f 122 125 137
f 152 137 125
f 152 125 155
f 140 152 155
f 141 152 140
f 122 152 141
f 141 118 122
f 115 118 141
f 129 115 141
f 141 158 129
f 5 115 129
f 5 129 15
f 15 129 346
f 346 129 146
f 146 354 346
f 149 354 146
f 149 150 354
f 354 150 167
f 354 167 356
f 353 354 356
f 353 356 350
f 351 353 350
f 344 353 351
f 344 347 353
f 347 355 353
f 354 355 347
f 346 347 344
f 346 344 341
f 9 346 341
f 9 341 8
f 8 341 339
f 339 341 338
f 339 338 340
f 338 345 340
f 27 340 345
f 345 338 337
f 345 337 342
f 345 342 348
f 270 345 348
f 270 348 349
f 348 284 349
f 273 345 270
f 348 342 284
f 342 352 284
f 343 352 342
f 338 352 343
f 338 341 352
f 341 350 352
f 350 357 352
f 352 357 165
f 165 357 166
f 350 166 357
f 350 167 166
f 338 343 342
f 352 165 284
f 337 338 342
f 8 339 340
f 340 18 8
f 340 26 18
f 27 26 340
f 341 344 350
f 344 351 350
f 15 346 9
f 5 15 9
f 5 9 1
f 1 9 10
f 1 10 2
f 3 1 2
f 2 4 3
f 5 3 4
f 6 5 4
f 7 5 6
f 16 7 6
f 11 7 16
f 19 11 16
f 84 19 16
f 24 19 84
f 74 24 84
f 82 74 84
f 82 84 89
f 84 27 89
f 100 82 89
f 100 92 82
f 107 92 100
f 107 88 92
f 79 88 107
f 63 79 107
f 63 107 90
f 73 63 90
f 73 90 91
f 91 90 277
f 91 277 275
f 277 276 275
f 277 278 276
f 277 280 278
f 98 278 280
f 280 108 98
f 90 108 280
f 278 98 87
f 278 87 99
f 278 99 109
f 276 278 109
f 276 109 273
f 276 273 274
f 274 273 272
f 271 274 272
f 274 271 279
f 275 274 279
f 95 275 279
f 95 279 283
f 283 279 266
f 265 283 266
f 287 283 265
f 287 265 288
f 161 287 288
f 161 288 290
f 288 289 290
f 288 267 289
f 289 267 286
f 267 285 286
f 267 281 285
f 268 281 267
f 268 270 281
f 272 270 268
f 269 272 268
f 272 269 266
f 269 268 266
f 268 267 265
f 264 265 267
f 263 265 264
f 263 264 288
f 288 264 267
f 283 287 161
f 160 283 161
f 160 157 283
f 288 265 263
f 265 266 268
f 279 272 266
f 157 95 283
f 279 271 272
f 272 273 270
f 273 109 282
f 273 282 270
f 275 276 274
f 91 275 95
f 90 280 277
f 51 73 91
f 51 91 110
f 91 95 110
f 56 73 51
f 51 50 56
f 50 49 56
f 56 49 63
f 46 63 49
f 46 44 63
f 44 46 123
f 123 46 47
f 123 47 130
f 123 130 133
f 133 130 135
f 135 130 139
f 130 110 139
f 139 110 131
f 131 110 132
f 131 132 431
f 431 132 153
f 431 153 427
f 431 427 432
f 434 431 432
f 434 432 435
f 434 435 436
f 483 436 435
f 498 436 483
f 439 498 483
f 439 441 498
f 498 441 145
f 145 133 498
f 437 498 133
f 498 437 438
f 437 434 438
f 437 136 434
f 434 136 131
f 437 133 136
f 441 30 145
f 440 30 441
f 30 440 442
f 442 499 30
f 441 439 440
f 474 440 439
f 442 440 474
f 442 474 465
f 474 459 465
f 459 474 463
f 474 468 463
f 474 469 468
f 476 469 474
f 487 476 474
f 476 487 483
f 484 476 483
f 476 484 469
f 484 471 469
f 484 494 471
f 435 494 484
f 471 494 497
f 494 429 497
f 497 429 420
f 497 420 419
f 497 419 428
f 497 428 492
f 488 497 492
f 488 492 471
f 471 492 479
f 479 492 495
f 495 408 479
f 495 409 408
f 495 422 409
f 424 422 495
f 495 417 424
f 428 417 495
f 417 412 424
f 412 417 404
f 417 411 404
f 415 411 417
f 417 419 415
f 414 415 419
f 418 414 419
f 420 414 418
f 420 426 414
f 420 421 426
f 420 432 421
f 430 432 420
f 430 433 432
f 433 430 494
f 426 421 414
f 421 416 414
f 421 425 416
f 421 427 425
f 427 161 425
f 427 159 161
f 425 161 423
f 413 425 423
f 413 423 411
f 411 423 291
f 161 291 423
f 416 425 413
f 416 413 415
f 414 416 415
f 413 411 415
f 411 291 404
f 412 404 405
f 412 405 409
f 424 412 422
f 422 412 409
f 479 408 491
f 479 491 477
f 477 491 490
f 491 489 490
f 489 486 490
f 490 486 515
f 513 490 515
f 513 515 512
f 512 515 514
f 514 515 481
f 493 481 515
f 515 406 493
f 406 515 407
f 515 489 407
f 489 408 407
f 480 493 406
f 485 480 406
f 480 485 461
f 461 485 464
f 464 485 500
f 485 496 500
f 496 406 500
f 500 406 503
f 500 503 502
f 501 500 502
f 501 502 504
f 458 501 504
f 458 504 403
f 449 458 403
f 454 458 449
f 462 458 454
f 462 464 458
f 460 464 462
f 461 460 462
f 461 462 478
f 478 462 472
f 467 478 472
f 506 478 467
f 506 507 478
f 506 511 507
f 507 511 509
f 509 511 482
f 473 482 511
f 473 511 505
f 473 505 469
f 469 477 473
f 475 477 469
f 475 471 477
f 482 473 513
f 482 513 510
f 509 482 510
f 508 509 510
f 508 510 481
f 510 512 481
f 508 481 478
f 478 481 480
f 478 509 508
f 506 505 511
f 470 505 506
f 505 470 468
f 466 468 470
f 466 470 467
f 455 466 467
f 466 455 453
f 466 453 457
f 450 466 457
f 463 466 450
f 450 457 444
f 445 444 457
f 457 447 445
f 445 447 446
f 453 446 447
f 453 448 446
f 452 448 453
f 452 462 448
f 455 462 452
f 448 462 449
f 448 449 446
f 445 446 456
f 446 451 456
f 384 456 451
f 369 456 384
f 369 384 383
f 384 381 383
f 381 379 383
f 379 377 383
f 377 385 383
f 385 377 376
f 363 385 376
f 361 385 363
f 369 385 361
f 365 369 361
f 365 361 364
f 366 365 364
f 368 366 364
f 368 364 367
f 367 364 359
f 359 364 360
f 364 371 360
f 364 358 371
f 358 376 371
f 371 376 370
f 370 376 373
f 376 372 373
f 372 376 374
f 376 386 374
f 376 382 386
f 386 382 387
f 387 391 386
f 387 397 391
f 391 397 395
f 397 314 395
f 397 308 314
f 397 380 308
f 380 306 308
f 388 306 380
f 379 388 380
f 378 379 380
f 378 380 377
f 377 380 387
f 388 379 306
f 379 307 306
f 379 389 307
f 389 402 307
f 307 304 306
f 307 309 304
f 309 301 304
f 309 293 301
f 301 293 304
f 304 293 299
f 304 299 303
f 313 304 303
f 319 304 313
f 319 313 315
f 319 315 314
f 314 315 257
f 315 321 257
f 315 318 321
f 321 318 259
f 259 318 262
f 318 322 262
f 318 316 322
f 316 317 322
f 317 324 322
f 324 325 322
f 322 325 329
f 329 325 328
f 329 328 327
f 327 328 331
f 332 331 328
f 331 332 330
f 330 332 328
f 326 330 328
f 333 327 331
f 333 331 260
f 260 331 330
f 260 327 333
f 322 327 260
f 325 320 328
f 328 320 326
f 323 320 325
f 317 323 325
f 327 322 329
f 324 317 325
f 316 323 317
f 316 298 323
f 298 296 323
f 323 296 320
f 295 296 298
f 294 295 298
f 300 294 298
f 300 298 305
f 312 300 305
f 305 298 312
f 294 300 312
f 312 303 294
f 292 294 303
f 292 295 294
f 293 295 292
f 293 302 295
f 302 311 295
f 334 311 302
f 335 311 334
f 334 336 335
f 336 311 335
f 334 302 310
f 295 311 297
f 310 302 293
f 310 293 307
f 295 297 296
f 298 316 312
f 318 312 316
f 262 322 260
f 315 312 318
f 257 321 259
f 257 259 201
f 201 259 241
f 259 254 241
f 259 261 254
f 261 260 254
f 254 260 256
f 256 260 258
f 258 260 247
f 258 247 196
f 208 258 196
f 208 227 258
f 227 251 258
f 227 254 251
f 251 254 256
f 168 227 208
f 206 227 168
f 206 241 227
f 201 206 168
f 195 201 168
f 201 195 184
f 220 201 184
f 220 230 201
f 220 244 230
f 226 244 220
f 226 220 185
f 226 185 202
f 34 226 202
f 34 202 215
f 209 215 202
f 202 182 209
f 182 191 209
f 209 191 199
f 198 209 199
f 32 209 198
f 32 198 101
f 198 199 101
f 101 199 104
f 191 180 199
f 199 180 183
f 180 179 183
f 183 179 178
f 183 178 205
f 183 205 223
f 205 219 223
f 223 219 235
f 235 219 224
f 235 224 103
f 199 235 103
f 199 183 235
f 199 103 104
f 224 239 103
f 239 224 231
f 239 231 246
f 138 239 246
f 96 239 138
f 224 232 231
f 232 242 231
f 232 234 242
f 238 242 234
f 242 238 250
f 253 242 250
f 253 250 138
f 246 253 138
f 231 253 246
f 138 250 128
f 128 250 237
f 250 218 237
f 250 212 218
f 250 210 212
f 193 210 250
f 222 193 250
f 234 222 250
f 234 193 222
f 234 189 193
f 234 176 189
f 194 176 234
f 221 194 234
f 221 234 225
f 232 221 225
f 214 221 232
f 213 221 214
f 214 186 213
f 197 186 214
f 204 197 214
f 219 204 214
f 197 204 219
f 200 197 219
f 200 186 197
f 171 186 200
f 178 171 200
f 172 171 178
f 175 172 178
f 180 175 178
f 180 185 175
f 202 185 180
f 185 169 175
f 184 169 185
f 169 184 168
f 168 170 169
f 169 170 181
f 170 173 181
f 181 173 174
f 181 174 176
f 174 173 176
f 176 173 190
f 190 203 176
f 190 217 203
f 203 217 248
f 217 247 248
f 203 248 249
f 248 164 249
f 187 203 249
f 187 249 216
f 192 187 216
f 207 192 216
f 207 216 236
f 162 236 216
f 236 162 255
f 233 236 255
f 233 255 218
f 211 233 218
f 189 233 211
f 189 192 233
f 177 192 189
f 189 211 212
f 255 162 163
f 216 164 162
f 216 249 164
f 207 236 233
f 192 207 233
f 177 187 192
f 177 203 187
f 190 196 217
f 176 203 177
f 173 196 190
f 173 168 196
f 171 169 181
f 173 170 168
f 175 169 171
f 172 175 171
f 171 181 186
f 186 181 188
f 186 188 194
f 194 188 181
f 186 194 213
f 213 194 221
f 194 181 176
f 176 177 189
f 210 193 189
f 210 189 212
f 212 211 218
f 218 255 237
f 154 237 255
f 163 154 255
f 128 237 154
f 238 234 250
f 232 225 234
f 231 242 253
f 224 214 232
f 103 239 96
f 219 214 224
f 205 200 219
f 183 223 235
f 178 200 205
f 180 178 179
f 202 180 191
f 182 202 191
f 34 215 209
f 34 209 32
f 244 201 230
f 244 243 201
f 243 252 201
f 185 220 184
f 184 195 168
f 168 208 196
f 196 247 217
f 251 256 258
f 241 254 227
f 206 201 241
f 252 257 201
f 315 313 312
f 303 312 313
f 299 292 303
f 293 292 299
f 306 304 319
f 395 314 399
f 243 399 314
f 400 399 243
f 399 400 398
f 391 399 398
f 394 391 398
f 394 398 390
f 390 398 240
f 398 245 240
f 245 398 243
f 390 240 228
f 228 396 390
f 375 390 396
f 393 375 396
f 31 393 396
f 31 396 401
f 401 396 226
f 401 226 229
f 31 401 229
f 31 375 393
f 371 375 31
f 371 373 375
f 373 390 375
f 390 373 392
f 373 374 392
f 396 228 226
f 392 394 390
f 392 391 394
f 398 400 243
f 391 395 399
f 387 380 397
f 391 392 386
f 377 387 382
f 374 386 392
f 372 374 373
f 371 370 373
f 358 361 376
f 31 360 371
f 362 360 31
f 362 359 360
f 443 359 362
f 443 362 30
f 499 443 30
f 450 359 443
f 459 450 443
f 499 459 443
f 361 358 364
f 361 363 376
f 377 382 376
f 377 379 378
f 381 389 379
f 381 402 389
f 385 369 383
f 384 451 381
f 451 446 381
f 446 403 381
f 445 456 369
f 444 445 369
f 444 369 359
f 450 444 359
f 457 453 447
f 453 455 452
f 509 478 507
f 467 470 506
f 455 467 472
f 472 462 455
f 462 454 449
f 449 403 446
f 500 501 458
f 503 406 502
f 410 502 406
f 464 500 458
f 461 464 460
f 478 480 461
f 481 493 480
f 481 512 514
f 510 513 512
f 490 513 473
f 515 486 489
f 477 490 473
f 491 408 489
f 471 479 477
f 495 492 428
f 428 419 417
f 420 418 419
f 429 430 420
f 494 430 429
f 471 497 488
f 471 475 469
f 469 505 468
f 463 468 466
f 463 450 459
f 465 459 499
f 465 499 442
f 474 439 487
f 439 483 487
f 498 438 436
f 483 435 484
f 438 434 436
f 435 432 433
f 494 435 433
f 421 432 427
f 427 153 159
f 434 131 431
f 110 130 51
f 133 142 123
f 142 144 123
f 144 124 123
f 147 124 144
f 147 55 124
f 147 127 55
f 147 30 127
f 30 28 127
f 28 39 127
f 39 40 127
f 39 38 40
f 40 38 54
f 40 54 48
f 48 54 57
f 54 80 57
f 57 80 83
f 83 80 76
f 23 83 76
f 59 83 23
f 59 23 62
f 60 59 62
f 81 60 62
f 81 62 88
f 78 88 62
f 88 78 92
f 92 78 74
f 78 62 74
f 81 64 60
f 75 64 81
f 75 81 79
f 43 75 79
f 44 43 79
f 45 43 44
f 123 43 45
f 41 43 123
f 41 42 43
f 42 52 43
f 52 64 43
f 42 48 52
f 52 48 60
f 41 48 42
f 43 64 75
f 60 64 52
f 60 57 59
f 62 23 58
f 58 24 62
f 58 23 24
f 23 22 24
f 24 22 21
f 22 69 21
f 69 20 21
f 69 86 20
f 69 70 86
f 70 102 86
f 86 102 105
f 102 143 105
f 105 143 120
f 143 121 120
f 143 148 121
f 106 148 143
f 94 106 143
f 111 120 121
f 111 121 112
f 121 126 112
f 112 126 125
f 126 151 125
f 126 134 151
f 121 134 126
f 148 134 121
f 112 116 111
f 117 116 112
f 25 117 112
f 17 117 25
f 20 117 17
f 13 20 17
f 11 20 13
f 13 14 11
f 14 13 25
f 25 115 14
f 25 113 115
f 12 11 14
f 12 14 5
f 12 5 11
f 17 25 13
f 25 112 113
f 112 114 113
f 105 120 111
f 94 143 102
f 85 94 102
f 70 94 85
f 111 86 105
f 111 117 86
f 117 111 116
f 70 85 102
f 94 70 69
f 69 68 94
f 68 67 94
f 67 106 94
f 103 106 67
f 77 103 67
f 65 103 77
f 65 104 103
f 97 104 65
f 93 97 65
f 71 93 65
f 36 93 71
f 65 77 66
f 61 65 66
f 61 66 67
f 80 61 67
f 53 61 80
f 38 53 80
f 38 36 53
f 53 65 61
f 36 65 53
f 77 67 66
f 67 68 69
f 76 67 69
f 20 86 117
f 21 20 11
f 22 23 69
f 23 72 69
f 23 76 72
f 76 80 67
f 59 57 83
f 48 57 60
f 40 48 41
f 55 40 41
f 54 38 80
f 37 38 39
f 37 35 38
f 35 33 38
f 33 32 38
f 38 32 36
f 28 33 35
f 28 32 33
f 31 32 28
f 29 31 28
f 37 28 35
f 28 37 39
f 30 29 28
f 55 127 40
f 124 55 41
f 124 41 123
f 130 47 50
f 47 46 50
f 123 45 44
f 50 46 49
f 50 51 130
f 56 63 73
f 44 79 63
f 79 81 88
f 82 92 74
f 62 24 74
f 24 21 19
f 16 2 84
f 84 2 27
f 27 2 10
f 21 11 19
f 16 6 2
f 11 5 7
f 6 4 2
f 5 14 115
f 113 118 115
f 118 113 119
f 141 140 158
f 125 156 155
f 125 134 156
f 152 122 137
f 118 119 122
f 113 114 119

