# https://github.com/mikedh/trimesh
v 0.02616300 0.27367899 0.23819000
v -0.02362325 0.23178875 0.23886575
v -0.02930600 0.23492349 0.24610299
v -0.02834000 0.24304600 0.25317201
v 0.00012850 0.24462950 0.25415601
v -0.03334575 0.23835874 0.25145275
v 0.16166363 0.35800612 0.08731175
v 0.15160599 0.37053001 0.08351800
v 0.13509650 0.37902725 0.09719350
v 0.14427624 0.37731200 0.08791000
v 0.03250400 0.28070101 0.23413301
v 0.02940950 0.31657249 0.21959400
v 0.06683700 0.31841201 0.20924900
v 0.03361825 0.29359749 0.22861700
v 0.05812400 0.32264350 0.20987799
v 0.06851900 0.30998799 0.21270600
v 0.06617500 0.30064601 0.21725200
v 0.06103300 0.28136501 0.22357200
v 0.01522300 0.24651301 0.25294900
v 0.06825200 0.22172700 0.22865801
v 0.05333100 0.22813300 0.23743924
v 0.04285482 0.22946553 0.24051624
v 0.03714000 0.23038299 0.24099500
v 0.00341750 0.23272300 0.24079901
v 0.18838400 0.30436501 0.10427700
v 0.16903175 0.34572475 0.09196500
v 0.17449236 0.33347905 0.09744044
v 0.18068951 0.31970200 0.10741600
v 0.17798500 0.32771301 0.10341000
v 0.21334025 0.25122625 0.11078300
v 0.20718976 0.24570601 0.12934650
v 0.21165501 0.24775399 0.11997600
v 0.21404886 0.25233341 0.11393974
v 0.21390399 0.26037201 0.10765800
v 0.21294163 0.25079811 0.11863019
v 0.21084785 0.24992589 0.12327912
v 0.20372000 0.24646001 0.13556100
v 0.19562501 0.24773000 0.14620499
v 0.18937386 0.24713178 0.15243559
v 0.14833732 0.37413154 0.08734999
v 0.16679638 0.35142421 0.09132456
v 0.17391542 0.33829827 0.09799836
v 0.17890489 0.32631206 0.10625705
v 0.16378715 0.35551848 0.09206899
v 0.16945179 0.34703483 0.09469476
v 0.13599800 0.29852501 0.18057600
v 0.12680200 0.28517399 0.19844450
v 0.13556295 0.36732101 0.11458199
v 0.13258220 0.37517586 0.10699156
v 0.13475017 0.37533097 0.10473646
v 0.15629472 0.32499564 0.14070543
v 0.18568700 0.26187250 0.15080750
v 0.20590738 0.25132709 0.13033814
v 0.21113477 0.25277757 0.12101394
v 0.19261261 0.26521234 0.13958595
v 0.18696343 0.30294476 0.11737161
v 0.19260781 0.25366136 0.14766109
v 0.18058791 0.29578941 0.13243152
v 0.17940046 0.28451872 0.14281607
v 0.15732200 0.29087450 0.16626551
v 0.16274403 0.30447764 0.15007584
v 0.16437602 0.29849466 0.15256149
v 0.15896432 0.31899894 0.14286324
v 0.17687450 0.26411349 0.16041499
v 0.17407061 0.31169553 0.12842535
v 0.17715613 0.32864164 0.10763334
v 0.15344342 0.29355571 0.16840957
v 0.16812319 0.32155100 0.12732655
v 0.16521917 0.33228368 0.11974423
v 0.15849347 0.29436891 0.16248930
v 0.14764469 0.34297228 0.13147427
v 0.15419025 0.36778178 0.08847637
v 0.14226181 0.37757302 0.09087475
v 0.14088235 0.35557548 0.12367788
v 0.15338902 0.34165138 0.12448382
v 0.17439709 0.33578337 0.10307627
v 0.15695017 0.36461760 0.08893838
v 0.19130525 0.29958249 0.11048962
v 0.19645200 0.29149200 0.10620150
v 0.19623099 0.29037601 0.11025300
v 0.20634950 0.27448449 0.10687425
v 0.20757518 0.27006270 0.11146718
v 0.21293700 0.26303899 0.10684400
v 0.19723875 0.28493950 0.11635368
v 0.18693971 0.29923071 0.07139721
v 0.18789877 0.30598630 0.08548549
v 0.18948801 0.30480200 0.09315150
v 0.18782242 0.30556021 0.08046900
v 0.19161399 0.30371450 0.07757050
v 0.19214401 0.30200800 0.07472900
v 0.18890789 0.30347593 0.07553465
v 0.18918606 0.29499787 0.06959544
v 0.17847150 0.25831574 0.16019975
v 0.20355400 0.16348600 0.16922501
v 0.20144700 0.16353450 0.17169651
v 0.21218600 0.16514750 0.15929650
v 0.18925050 0.16689450 0.18673525
v 0.19496481 0.16738793 0.18220897
v 0.22399750 0.17073225 0.14270299
v 0.19985691 0.16548653 0.17616444
v 0.19225650 0.16593549 0.18365000
v 0.21878903 0.16927021 0.15127988
v 0.17510275 0.17298812 0.20068650
v 0.18342488 0.16998237 0.19336025
v 0.17159806 0.17632867 0.20418592
v 0.24719025 0.24312125 0.06567400
v 0.23214359 0.26227161 0.07654473
v 0.23167931 0.26399954 0.07433660
v 0.23778850 0.24284605 0.08733834
v 0.24928699 0.23548700 0.07181800
v 0.22940163 0.24588778 0.10039765
v 0.23042593 0.25133294 0.09388144
v 0.22851600 0.26114825 0.08118375
v 0.24141025 0.19161275 0.10727625
v 0.23762900 0.18270200 0.11555300
v 0.23627480 0.18186712 0.12004251
v 0.23184700 0.17576050 0.12779499
v 0.22868501 0.17272501 0.13359100
v 0.23420050 0.18212019 0.12381562
v 0.22743037 0.17365740 0.13737613
v 0.24361800 0.19605200 0.09883300
v 0.24570800 0.20559901 0.09442050
v 0.24409289 0.20863654 0.09700309
v 0.24739577 0.22038684 0.08577565
v 0.24928355 0.23141351 0.07579314
v 0.24387237 0.23466935 0.08363123
v 0.24073214 0.23047312 0.09265695
v 0.24879800 0.21874001 0.08311625
v 0.24711600 0.21141300 0.08961700
v 0.24662950 0.20880250 0.09137875
v 0.25001201 0.22700600 0.07594500
v 0.16315024 0.26473468 0.17501150
v 0.15922109 0.24603163 0.18797232
v 0.15946291 0.23164516 0.19414751
v 0.16762705 0.19860935 0.19984948
v 0.16209502 0.18542371 0.21097966
v 0.17344296 0.22536824 0.18296499
v 0.13226891 0.24568318 0.21258643
v 0.14006963 0.20239541 0.22545625
v 0.14135680 0.21564142 0.21827592
v 0.18432713 0.22387376 0.17187937
v 0.17711496 0.21067890 0.18489215
v 0.18796282 0.22184384 0.16863331
v 0.19225140 0.17720358 0.18187517
v 0.21960789 0.17161057 0.14967594
v 0.22053812 0.18401253 0.14361433
v 0.22952858 0.21263407 0.11940037
v 0.24283324 0.20123517 0.10198677
v 0.22839001 0.18035223 0.13348329
v 0.18633961 0.17079674 0.19095037
v 0.18034141 0.17221677 0.19679779
v 0.17283597 0.17887540 0.20242351
v 0.14945742 0.25397558 0.19375937
v 0.15222309 0.29090572 0.17172725
v 0.17383872 0.25976407 0.16661243
v 0.17070779 0.24728255 0.17621640
v 0.13137223 0.25472828 0.20933766
v 0.20803125 0.21751211 0.14696588
v 0.21364576 0.22096202 0.13814180
v 0.22364690 0.22643800 0.12259340
v 0.17165355 0.25897554 0.16949198
v 0.15990008 0.18402279 0.21337409
v 0.14850159 0.19271903 0.22110309
v 0.13147098 0.20779716 0.23077959
v 0.13654630 0.26942780 0.19843492
v 0.22893155 0.22985959 0.11300826
v 0.17245982 0.23702422 0.17914526
v 0.12737646 0.21257841 0.23167640
v 0.12093437 0.23517235 0.22572383
v 0.13846875 0.19910426 0.22686100
v 0.12255469 0.21424803 0.23446222
v 0.13019020 0.26386332 0.20640464
v 0.11958811 0.26184588 0.21463861
v 0.11556237 0.21786112 0.23707123
v 0.17176925 0.24421076 0.17529201
v 0.13343968 0.27418619 0.19818921
v 0.11167495 0.25389914 0.22258446
v 0.20307669 0.22098250 0.14948969
v 0.16394425 0.17908075 0.20975000
v 0.11110124 0.22131284 0.23859333
v 0.19893073 0.21903644 0.15730773
v 0.10713281 0.22553899 0.23879223
v 0.11269429 0.26212690 0.21834678
v 0.22597897 0.23379885 0.11439999
v 0.08725978 0.23200547 0.24419381
v 0.07586458 0.25361873 0.23705679
v 0.09543632 0.26354074 0.22540696
v 0.06242422 0.23781983 0.24916235
v 0.05398836 0.26224324 0.23880676
v 0.06037324 0.25293345 0.24189239
v 0.09683462 0.22728271 0.24277492
v 0.14278950 0.19562050 0.22438000
v 0.08159791 0.26518747 0.22967916
v 0.10601848 0.26206729 0.22176723
v 0.07922989 0.23317064 0.24635029
v 0.10380675 0.22302975 0.24081400
v 0.12544025 0.26414600 0.20821825
v 0.07220100 0.23365900 0.24758750
v 0.12624413 0.20889776 0.23270500
v 0.06046430 0.27742670 0.22962462
v 0.06173200 0.27808799 0.22700550
v 0.05785955 0.28630506 0.22660560
v 0.06058713 0.29356021 0.22237654
v 0.06717900 0.27163425 0.22939925
v 0.06003471 0.28940066 0.22359349
v 0.06466959 0.30319624 0.21715287
v 0.03665346 0.30373941 0.22358507
v 0.03708485 0.28627158 0.23147798
v 0.05023326 0.28857418 0.22750192
v 0.22900890 0.25010151 0.09643977
v 0.02379210 0.24500701 0.25302119
v 0.03779957 0.24397937 0.25121937
v 0.03866075 0.24016799 0.25224525
v 0.04478919 0.24079708 0.25170641
v 0.14898975 0.18973450 0.22022400
v 0.15564725 0.18480000 0.21575325
v 0.08968719 0.22819894 0.24425287
v 0.18088441 0.22654855 0.17468646
v 0.07560892 0.26674936 0.23079611
v 0.06298600 0.27579250 0.22816300
v 0.07082900 0.26953700 0.22929400
v 0.01570091 0.24397124 0.25419214
v 0.04919425 0.23902200 0.25106524
v 0.22552875 0.24591050 0.10117950
v 0.13397200 0.20217900 0.22913074
v 0.11084900 0.21842249 0.23838750
v 0.05568700 0.23744049 0.25020400
v 0.01978150 0.24214049 0.25372701
v -0.00335875 0.24302700 0.25425250
v 0.12207400 0.26314399 0.21172599
v 0.02655950 0.24216700 0.25332500
v 0.24814172 0.21237672 0.08607984
v 0.24521200 0.20125650 0.09482750
v 0.24724949 0.20937850 0.08700150
v 0.17952400 0.16463500 0.18752500
v 0.16777401 0.16356900 0.18208300
v 0.19468580 0.29386548 0.06963944
v 0.19199200 0.29146299 0.06858100
v 0.19430962 0.28777051 0.06866137
v 0.20064207 0.29022939 0.07253177
v 0.19831986 0.29558084 0.07314273
v 0.19843600 0.29195351 0.07084353
v 0.20042514 0.27947591 0.07663214
v 0.20367395 0.28522233 0.07611269
v 0.19933872 0.27264939 0.08442247
v 0.20586923 0.28010851 0.08487395
v 0.20677866 0.27578194 0.09329050
v 0.20734938 0.27237508 0.09731836
v 0.21249546 0.26443727 0.10392031
v 0.21041581 0.26121046 0.10051969
v 0.20614486 0.25660801 0.09792630
v 0.20496619 0.27055829 0.09525087
v 0.20527749 0.26816024 0.09678476
v 0.19948752 0.26990311 0.08945748
v 0.21295953 0.25541180 0.10418949
v 0.21252489 0.25938886 0.10232190
v 0.21283349 0.24942000 0.11352575
v 0.21074175 0.25213500 0.10479425
v 0.19905700 0.26225950 0.09383250
v 0.21167000 0.25034899 0.10837700
v 0.20756600 0.25273949 0.10110750
v 0.20104050 0.25750449 0.09520050
v 0.20257400 0.25048625 0.09943913
v 0.20642697 0.27728498 0.09786265
v 0.20482317 0.28302818 0.08714580
v 0.18737266 0.30652115 0.10942270
v 0.20252747 0.28942660 0.07685874
v 0.20974326 0.26979839 0.10156574
v 0.19187847 0.30483254 0.08282965
v 0.20253463 0.28803246 0.07423434
v 0.19688160 0.29841074 0.07642559
v 0.19047755 0.30279654 0.10117980
v 0.20514792 0.28247531 0.08111767
v 0.19361179 0.24316159 0.14723480
v 0.18728604 0.24082098 0.15121350
v 0.18409051 0.24177550 0.15210899
v 0.18065750 0.23955150 0.14929200
v 0.20863074 0.24438732 0.12439985
v 0.18847517 0.23832566 0.14275014
v 0.18832062 0.24012806 0.14836027
v 0.20279934 0.24073887 0.12639998
v 0.19926329 0.23970789 0.13164656
v 0.21138104 0.24708089 0.11497122
v 0.19152200 0.23780340 0.13171494
v 0.18091500 0.23696599 0.14395950
v 0.19231450 0.23795700 0.12876450
v 0.20423684 0.24603097 0.10632568
v 0.20717803 0.24323903 0.11851133
v 0.12094600 0.19610700 0.21360500
v 0.13760688 0.18094262 0.20064675
v 0.14765167 0.17370862 0.19432906
v 0.11579476 0.20267602 0.21967868
v 0.14325697 0.18168404 0.20910974
v 0.10984007 0.20991376 0.22808113
v 0.10119373 0.21204366 0.22492573
v 0.08287100 0.21877900 0.22779099
v 0.12188590 0.19778861 0.21782217
v 0.14934827 0.17964221 0.20929740
v 0.11664494 0.21153618 0.23403695
v 0.15602057 0.17613135 0.20737399
v 0.09591066 0.22069248 0.23843011
v 0.07169872 0.22929911 0.24400257
v 0.03671300 0.23366700 0.24476600
v 0.10478103 0.21873836 0.23844402
v 0.10363364 0.21687686 0.23615248
v 0.06278400 0.23321700 0.24769600
v -0.00773478 0.24041700 0.25316605
v 0.07991200 0.21957600 0.22757199
v 0.01446301 0.23886754 0.25171932
v 0.14495575 0.18972305 0.22105235
v 0.16773864 0.17145878 0.20124916
v -0.02645533 0.24031453 0.25306501
v 0.02964937 0.24014881 0.25278788
v 0.05141064 0.23547935 0.24962871
v 0.07545542 0.23092357 0.24629365
v 0.16782949 0.17397560 0.20471703
v 0.11964754 0.21193029 0.23459374
v 0.15170874 0.18434463 0.21641569
v 0.09543285 0.22469888 0.24254940
v 0.18069606 0.16886232 0.19479469
v 0.00618847 0.24209424 0.25415650
v -0.01132079 0.23709252 0.24839582
v 0.16938588 0.16584148 0.19041619
v 0.18074062 0.16635832 0.19125901
v -0.02021112 0.23644281 0.24812305
v -0.01502513 0.23311104 0.24006323
v 0.07126438 0.22203545 0.22855535
v 0.17897663 0.24347456 0.15144698
f 211 231 214
f 214 231 223
f 214 223 188
f 222 231 211
f 211 5 222
f 212 211 214
f 214 188 212
f 190 212 188
f 189 212 190
f 189 200 212
f 200 208 212
f 208 1 212
f 1 19 212
f 200 209 208
f 209 207 208
f 206 207 209
f 206 209 203
f 203 209 202
f 206 203 205
f 17 206 205
f 16 206 17
f 16 13 206
f 15 206 13
f 206 15 12
f 205 203 202
f 205 202 200
f 206 12 207
f 12 14 207
f 14 208 207
f 208 14 11
f 200 202 209
f 190 200 189
f 200 190 186
f 204 200 186
f 204 220 200
f 200 220 201
f 200 201 18
f 204 186 219
f 219 186 193
f 186 195 193
f 193 195 185
f 185 195 191
f 187 185 191
f 182 187 191
f 191 180 182
f 191 196 180
f 191 195 196
f 180 196 174
f 171 180 174
f 180 171 169
f 169 171 168
f 168 171 164
f 164 140 168
f 138 168 140
f 165 138 140
f 165 140 153
f 153 154 165
f 47 165 154
f 47 154 46
f 46 154 60
f 154 155 60
f 154 161 155
f 161 156 155
f 161 132 156
f 156 132 167
f 132 133 167
f 167 133 137
f 167 137 218
f 167 218 141
f 218 137 141
f 137 143 141
f 141 143 178
f 178 143 181
f 158 178 181
f 181 94 158
f 145 158 94
f 158 145 146
f 158 146 159
f 160 159 146
f 146 147 160
f 147 166 160
f 160 166 184
f 166 111 184
f 111 166 127
f 127 166 123
f 127 123 124
f 127 124 125
f 126 127 125
f 112 127 126
f 112 126 109
f 126 106 109
f 112 109 106
f 112 106 107
f 125 106 126
f 124 128 125
f 125 128 131
f 125 131 110
f 124 123 128
f 123 129 128
f 123 130 129
f 123 122 130
f 130 122 232
f 130 232 128
f 122 234 232
f 122 233 234
f 122 121 233
f 123 121 122
f 123 148 121
f 148 114 121
f 111 127 112
f 112 210 111
f 112 113 210
f 113 224 210
f 113 112 107
f 108 113 107
f 210 224 111
f 111 224 184
f 160 184 224
f 147 123 166
f 115 123 147
f 147 119 115
f 149 119 147
f 116 119 149
f 149 120 116
f 146 120 149
f 120 117 116
f 120 118 117
f 99 118 120
f 145 99 120
f 145 102 99
f 147 146 149
f 145 120 146
f 145 94 102
f 94 96 102
f 159 178 158
f 143 94 181
f 94 143 144
f 98 94 144
f 144 150 98
f 135 150 144
f 150 135 151
f 150 151 104
f 135 152 151
f 105 151 152
f 162 105 152
f 162 152 136
f 136 139 162
f 139 163 162
f 164 163 139
f 164 170 163
f 170 192 163
f 140 139 136
f 135 140 136
f 137 140 135
f 134 140 137
f 137 153 134
f 137 135 142
f 142 144 137
f 162 179 105
f 162 216 179
f 216 318 179
f 216 310 318
f 215 310 216
f 215 192 310
f 225 310 192
f 170 225 192
f 163 215 216
f 179 318 298
f 310 298 318
f 293 298 310
f 297 293 310
f 164 297 310
f 164 294 297
f 164 317 294
f 317 299 294
f 293 297 290
f 290 297 289
f 297 292 289
f 297 294 292
f 294 295 292
f 299 295 294
f 305 295 299
f 304 305 299
f 301 305 304
f 305 301 296
f 301 308 296
f 301 327 308
f 319 301 304
f 196 319 304
f 196 217 319
f 226 196 304
f 319 217 301
f 217 20 301
f 302 20 217
f 315 302 217
f 306 302 315
f 227 306 315
f 198 227 315
f 198 315 217
f 302 21 20
f 22 21 302
f 302 314 22
f 227 314 302
f 227 213 314
f 213 309 314
f 313 309 213
f 313 321 309
f 228 321 313
f 228 229 321
f 229 312 321
f 321 312 307
f 312 6 307
f 307 6 325
f 307 325 322
f 322 325 326
f 3 326 325
f 3 2 326
f 309 322 326
f 309 326 24
f 24 326 2
f 23 309 24
f 309 23 22
f 303 309 22
f 314 309 303
f 307 322 309
f 325 6 3
f 229 4 312
f 4 6 312
f 213 228 313
f 321 307 309
f 314 303 22
f 226 304 299
f 174 226 299
f 174 299 317
f 174 317 199
f 305 296 295
f 293 290 291
f 293 291 300
f 323 300 291
f 311 300 323
f 311 323 103
f 324 103 323
f 324 323 235
f 97 324 235
f 320 324 97
f 97 104 320
f 103 320 104
f 235 323 236
f 320 103 324
f 103 316 311
f 179 316 103
f 179 300 316
f 316 300 311
f 323 291 236
f 298 293 300
f 179 298 300
f 162 163 216
f 136 152 135
f 144 142 135
f 150 104 98
f 98 104 101
f 98 101 95
f 100 98 95
f 94 100 95
f 137 144 143
f 153 137 133
f 153 133 132
f 156 175 155
f 167 175 156
f 155 175 93
f 161 154 132
f 60 155 64
f 64 155 93
f 64 93 52
f 46 60 67
f 67 60 70
f 39 70 60
f 39 57 70
f 70 57 62
f 59 62 57
f 62 59 58
f 62 58 65
f 61 62 65
f 63 61 65
f 51 63 65
f 51 65 68
f 65 66 68
f 69 68 66
f 69 66 76
f 45 69 76
f 76 42 45
f 76 27 42
f 76 29 27
f 43 29 76
f 43 28 29
f 42 27 26
f 45 42 26
f 41 45 26
f 45 41 44
f 41 7 44
f 44 7 77
f 77 72 44
f 74 44 72
f 74 72 73
f 73 48 74
f 48 73 50
f 48 50 49
f 49 50 73
f 73 9 49
f 73 10 9
f 10 73 40
f 73 72 40
f 40 72 8
f 72 7 8
f 40 8 10
f 75 44 74
f 75 74 71
f 69 75 71
f 71 51 69
f 69 44 75
f 77 7 72
f 41 26 7
f 69 45 44
f 43 76 66
f 43 66 28
f 65 28 66
f 28 65 56
f 56 78 28
f 56 84 78
f 78 84 83
f 84 82 83
f 84 54 82
f 53 54 84
f 53 31 54
f 54 31 36
f 54 36 35
f 54 35 34
f 35 33 34
f 57 31 53
f 55 57 53
f 55 53 56
f 56 58 55
f 57 38 31
f 82 54 34
f 34 83 82
f 83 34 249
f 268 83 249
f 268 81 83
f 81 268 264
f 81 264 265
f 264 273 265
f 265 273 244
f 265 244 267
f 272 265 267
f 272 267 269
f 272 269 87
f 272 87 25
f 87 269 86
f 86 269 90
f 269 267 271
f 271 90 269
f 271 241 90
f 241 237 90
f 241 242 237
f 241 240 242
f 270 240 241
f 267 270 241
f 242 239 237
f 240 239 242
f 240 270 239
f 270 244 239
f 243 239 244
f 273 243 244
f 273 246 243
f 237 239 238
f 237 238 92
f 90 237 92
f 90 92 85
f 91 90 85
f 89 90 91
f 89 91 88
f 87 89 88
f 87 88 86
f 271 267 241
f 266 265 272
f 266 79 265
f 266 80 79
f 267 244 270
f 264 246 273
f 264 247 246
f 248 247 264
f 268 248 264
f 79 81 265
f 34 256 249
f 268 249 256
f 256 250 268
f 268 250 253
f 268 253 248
f 248 253 252
f 252 253 254
f 253 259 254
f 253 262 259
f 253 251 262
f 251 263 262
f 263 251 261
f 258 263 261
f 260 263 258
f 287 263 260
f 257 287 260
f 283 287 257
f 283 288 287
f 286 287 288
f 286 288 281
f 278 281 288
f 278 282 281
f 37 282 278
f 37 279 282
f 274 279 37
f 274 280 279
f 280 285 279
f 280 275 285
f 275 277 285
f 276 277 275
f 277 276 328
f 279 285 284
f 282 279 284
f 282 284 286
f 275 280 274
f 37 278 31
f 281 282 286
f 278 288 283
f 255 258 261
f 30 258 255
f 255 261 251
f 256 255 251
f 247 252 254
f 247 254 245
f 247 245 246
f 246 245 239
f 248 252 247
f 250 251 253
f 250 256 251
f 34 255 256
f 34 30 255
f 34 33 30
f 33 35 30
f 35 32 30
f 35 31 32
f 36 31 35
f 53 84 56
f 51 68 69
f 56 65 58
f 55 58 59
f 55 59 57
f 57 39 38
f 132 154 153
f 153 140 134
f 165 157 138
f 157 165 172
f 165 176 172
f 176 197 172
f 172 197 173
f 157 172 169
f 173 169 172
f 173 177 169
f 183 177 173
f 177 183 194
f 177 194 187
f 230 183 173
f 230 194 183
f 230 187 194
f 173 197 230
f 169 177 182
f 169 138 157
f 164 139 140
f 138 169 168
f 171 174 164
f 169 182 180
f 177 187 182
f 187 193 185
f 187 221 193
f 193 221 219
f 186 188 195
f 190 188 186
f 212 19 211

