# https://github.com/mikedh/trimesh
v -0.23528869 -0.43350059 -0.20948302
v -0.24302075 -0.43049850 -0.21015224
v -0.23941525 -0.43384250 -0.20806000
v -0.22240850 -0.43817450 -0.21084900
v -0.25135350 -0.43045199 -0.21023050
v -0.24734800 -0.42987999 -0.21032199
v -0.13918797 -0.17689309 -0.06479436
v -0.13288575 -0.17377325 -0.07798050
v -0.13891900 -0.17292825 -0.07371775
v -0.04710479 -0.17941661 -0.10337338
v -0.00137753 -0.34540391 -0.19262472
v -0.02801400 -0.35277501 -0.19515499
v -0.01153000 -0.34691101 -0.19317101
v 0.05585400 -0.38126099 -0.19701000
v 0.03983900 -0.37621500 -0.19481401
v 0.05963350 -0.37923799 -0.19895549
v 0.03068100 -0.37020176 -0.19391550
v 0.00821000 -0.35640049 -0.19015525
v -0.00735350 -0.35103500 -0.19253201
v -0.01155600 -0.35782501 -0.19079199
v 0.00041450 -0.35447850 -0.18968200
v -0.00593525 -0.35473124 -0.19058325
v 0.11595375 -0.37149050 -0.19640749
v 0.08447050 -0.37911050 -0.19800349
v 0.09541125 -0.37497400 -0.19813124
v 0.07554200 -0.38118199 -0.19809100
v 0.10112200 -0.37238199 -0.19836700
v 0.07272625 -0.37921025 -0.19952324
v 0.11084900 -0.36960401 -0.19914200
v 0.06922150 -0.37996600 -0.19921249
v 0.04947800 -0.17811200 -0.10284600
v -0.02697679 -0.18167435 -0.10770308
v 0.04129538 -0.17937901 -0.10493178
v -0.03391800 -0.18040100 -0.10713000
v -0.11288800 -0.17119101 -0.08797800
v -0.24681499 -0.43600001 -0.20157601
v 0.14868550 -0.17144750 -0.06827400
v 0.06614537 -0.38317115 -0.19731793
v 0.08709372 -0.37924911 -0.19689302
v 0.07812602 -0.38208365 -0.19625635
v 0.10377466 -0.37339170 -0.19250574
v 0.10639474 -0.37215287 -0.19520490
v 0.08390239 -0.38116982 -0.19206762
v 0.06838973 -0.38438691 -0.19218526
v 0.06052300 -0.38352901 -0.19469200
v 0.05783700 -0.38347599 -0.19095200
v 0.11318210 -0.37166822 -0.19541058
v 0.11542700 -0.37168700 -0.19298901
v 0.07641000 -0.38236400 -0.19018400
v 0.06278400 -0.38411900 -0.19184500
v 0.06593100 -0.38362199 -0.18996599
v -0.24070600 -0.41814199 -0.21150400
v -0.25512800 -0.42829274 -0.21042375
v -0.10177550 -0.17930050 -0.09701800
v 0.01129398 -0.35802444 -0.18091147
v 0.00531438 -0.35550168 -0.18013406
v 0.03815079 -0.37394593 -0.18424653
v 0.02787253 -0.36724706 -0.18205479
v 0.00460395 -0.35244796 -0.17731138
v 0.03862600 -0.37671801 -0.18774700
v 0.02261100 -0.36679700 -0.18543450
v 0.03219250 -0.37308149 -0.18685650
v -0.00366025 -0.35619338 -0.18152550
v 0.00629244 -0.35733963 -0.18272100
v -0.00015800 -0.35613701 -0.18644901
v 0.06306207 -0.38290687 -0.18867541
v 0.05620072 -0.38108788 -0.18636766
v 0.06764050 -0.37836675 -0.18516724
v 0.04077915 -0.37632759 -0.18479596
v 0.04348528 -0.37549724 -0.18410878
v 0.08074600 -0.37664899 -0.18555900
v 0.08449600 -0.37551001 -0.18555599
v 0.08043733 -0.37958566 -0.18738181
v 0.09633600 -0.36897200 -0.18439101
v 0.11278050 -0.36375500 -0.18386549
v 0.09126800 -0.37068301 -0.18439700
v 0.08595800 -0.37255099 -0.18445399
v 0.10201600 -0.36731201 -0.18451500
v 0.10687927 -0.36903439 -0.18651524
v 0.10927525 -0.36375575 -0.18357300
v 0.11413900 -0.36718149 -0.18605600
v 0.09646872 -0.37401801 -0.18769906
v 0.07242453 -0.38240855 -0.18887473
v 0.10126928 -0.37308841 -0.18925216
v 0.00656755 -0.35082043 -0.17607449
v 0.02316329 -0.36069368 -0.17903441
v 0.01085700 -0.34767500 -0.17455500
v 0.00213100 -0.34860700 -0.17526500
v 0.04116300 -0.37032074 -0.18185050
v 0.04869100 -0.37567650 -0.18381400
v 0.00038275 -0.35404212 -0.17968312
v -0.00330500 -0.34909301 -0.17543850
v 0.05348600 -0.37731801 -0.18436350
v -0.01629500 -0.35550001 -0.17754300
v -0.00130250 -0.35166949 -0.17704801
v -0.03320871 -0.37387861 -0.19084286
v -0.01847638 -0.36445742 -0.18510500
v -0.02408914 -0.36710373 -0.19199132
v -0.03993197 -0.37676042 -0.19443379
v -0.00840096 -0.35799161 -0.18605607
v -0.05602545 -0.38281325 -0.19505831
v -0.04808444 -0.38105294 -0.19448261
v -0.04201719 -0.37892378 -0.18947429
v -0.05961644 -0.38393292 -0.19187139
v -0.01280077 -0.35782344 -0.17992968
v -0.03833300 -0.37602900 -0.18709849
v -0.01364500 -0.36039250 -0.18271751
v -0.04870275 -0.38079275 -0.18901649
v -0.06335200 -0.38269675 -0.19623900
v -0.05737800 -0.38288000 -0.18955600
v -0.06739100 -0.38412601 -0.19184500
v -0.01378719 -0.36041241 -0.18995449
v -0.04598750 -0.37782700 -0.19643000
v -0.05700150 -0.38071650 -0.19762100
v 0.27232948 -0.45863469 -0.20920123
v 0.28551701 -0.47846001 -0.20494500
v 0.28009850 -0.47361625 -0.20565800
v 0.29109201 -0.48191500 -0.20149399
v 0.26179900 -0.44666100 -0.20789675
v 0.11175367 -0.17182058 -0.08751979
v 0.10458200 -0.16961300 -0.08991650
v 0.13086650 -0.17372150 -0.08053225
v 0.24259800 -0.43453249 -0.20414725
v 0.05342150 -0.18174050 -0.10744500
v 0.26906875 -0.46079983 -0.20486858
v 0.26217898 -0.45083156 -0.19923776
v 0.26556988 -0.45639602 -0.20219935
v 0.27905520 -0.47585210 -0.19881168
v 0.27990501 -0.47426650 -0.19581999
v 0.28850136 -0.48264753 -0.19687573
v 0.26919712 -0.45917314 -0.19665408
v 0.28234801 -0.47865701 -0.20100001
v 0.27299300 -0.46429700 -0.19606800
v 0.28472501 -0.47858301 -0.19463401
v 0.28275700 -0.47654701 -0.19481050
v 0.26399699 -0.45063800 -0.19622999
v 0.28886050 -0.48143150 -0.19434501
v 0.29221000 -0.48284149 -0.19440651
v 0.27569352 -0.47094867 -0.20423546
v 0.19404154 -0.21410249 -0.09199035
v 0.20421108 -0.22418101 -0.09752527
v 0.20938336 -0.23200598 -0.10098386
v 0.21801819 -0.24280485 -0.10598132
v 0.21075495 -0.23760662 -0.10295906
v 0.22380681 -0.25192940 -0.10965134
v 0.22797703 -0.26133495 -0.11314112
v 0.23217169 -0.26307711 -0.11454315
v 0.23498237 -0.26629453 -0.11602982
v 0.22766836 -0.25584337 -0.11167519
v 0.16406401 -0.18611200 -0.07684300
v 0.18981550 -0.21895299 -0.09478550
v 0.21833538 -0.25368113 -0.11008113
v 0.17782700 -0.20224851 -0.08576800
v 0.20870601 -0.24233649 -0.10541100
v 0.16906250 -0.19329675 -0.08099300
v 0.18281425 -0.20969625 -0.08984675
v 0.20443000 -0.23596600 -0.10242100
v 0.19584375 -0.22910225 -0.10010300
v 0.25129172 -0.29576557 -0.12687115
v 0.28677051 -0.38393851 -0.15529350
v 0.25557069 -0.31464169 -0.13361512
v 0.26231450 -0.33065625 -0.13947125
v 0.24731900 -0.29602000 -0.12678400
v 0.25143676 -0.30557699 -0.13028475
v 0.23949543 -0.27582532 -0.11930768
v 0.24391450 -0.29204300 -0.12537950
v 0.26934800 -0.34094000 -0.14234000
v 0.30372500 -0.45647351 -0.17597901
v 0.29860776 -0.43840250 -0.17107300
v 0.23959400 -0.28466001 -0.12256000
v 0.28095001 -0.36838200 -0.15068750
v 0.27063501 -0.34592301 -0.14401799
v 0.23691849 -0.28101200 -0.12115500
v 0.30225001 -0.46928400 -0.18122150
v 0.29250451 -0.40437500 -0.16107625
v 0.30081901 -0.47761601 -0.18644600
v 0.22861325 -0.24797555 -0.11325164
v 0.21977777 -0.23896862 -0.10687728
v 0.23980642 -0.27013003 -0.11893820
v 0.24260188 -0.26901726 -0.12188797
v 0.21618434 -0.23589821 -0.10457013
v 0.24665633 -0.28003815 -0.12327852
v 0.23203563 -0.25692683 -0.11430871
v 0.24287308 -0.27535160 -0.12101031
v 0.21149568 -0.22836634 -0.10207223
v 0.22352318 -0.24843828 -0.10905604
v -0.15164000 -0.40783101 -0.20974299
v -0.13989350 -0.39292025 -0.20655232
v -0.15358550 -0.41166899 -0.20812008
v -0.15529251 -0.41180350 -0.21088651
v -0.14837400 -0.40349301 -0.20913350
v -0.13274650 -0.38433551 -0.20401400
v -0.13679001 -0.38916799 -0.20548201
v -0.12972825 -0.38077475 -0.20317275
v -0.15214906 -0.41042502 -0.20473720
v -0.12131000 -0.37428600 -0.19812500
v -0.16343061 -0.42274967 -0.20818001
v -0.15842099 -0.41580400 -0.21096601
v -0.16344899 -0.42133599 -0.21126700
v -0.13010454 -0.38247196 -0.20050424
v -0.17066900 -0.42816699 -0.21187900
v -0.17343222 -0.43126911 -0.20793929
v -0.13076285 -0.38330380 -0.19633273
v -0.18087575 -0.43522838 -0.21278138
v -0.12547567 -0.37784506 -0.19777296
v -0.17951332 -0.43548099 -0.20833121
v -0.14212587 -0.39669354 -0.19912537
v -0.14886808 -0.40538538 -0.20153378
v -0.13595417 -0.38894698 -0.19728181
v -0.17485324 -0.43162975 -0.21141175
v -0.16344809 -0.42159656 -0.20392491
v -0.18306050 -0.43727649 -0.20848800
v -0.16853800 -0.42600900 -0.20458600
v -0.16501843 -0.42058577 -0.20155500
v -0.15348601 -0.40700428 -0.19879701
v -0.14658551 -0.39692739 -0.19599639
v -0.18327650 -0.43354025 -0.20283749
v -0.13649673 -0.38436486 -0.19259153
v -0.13001207 -0.38085715 -0.19373145
v -0.14383976 -0.38899994 -0.19268597
v -0.17093801 -0.42331932 -0.20065360
v -0.19033100 -0.43559099 -0.20212101
v -0.18787000 -0.43387300 -0.20157801
v -0.13314999 -0.37532501 -0.18839550
v -0.15534487 -0.39930087 -0.19433600
v -0.17860500 -0.43020700 -0.20240725
v -0.17640300 -0.42350200 -0.19955800
v -0.12373900 -0.36871988 -0.18664600
v -0.12527142 -0.37319868 -0.18935850
v -0.15362726 -0.39502575 -0.19310850
v -0.12253925 -0.37501640 -0.19305871
v -0.21065100 -0.44073600 -0.21299601
v -0.10487000 -0.37127799 -0.19845399
v -0.09437700 -0.37537000 -0.19824000
v -0.08459200 -0.37902701 -0.19819200
v -0.07677661 -0.37979174 -0.19935571
v -0.08902637 -0.37514834 -0.19966804
v -0.09394900 -0.37163100 -0.20020799
v -0.07282700 -0.38257501 -0.19723000
v -0.09603527 -0.36865441 -0.20077068
v -0.12280428 -0.36947252 -0.20285808
v -0.07855114 -0.37591097 -0.20082736
v -0.11514984 -0.36468514 -0.20174134
v -0.10890093 -0.36526914 -0.20106150
v -0.05170624 -0.37366839 -0.19930772
v -0.04941137 -0.37577872 -0.19878077
v -0.03175541 -0.36289656 -0.19655308
v -0.03331980 -0.36788927 -0.19628299
v -0.01117290 -0.35460916 -0.19240435
v -0.22929055 -0.43117252 -0.21295824
v -0.23843358 -0.42904961 -0.21139891
v -0.22802138 -0.42837076 -0.21375927
v -0.24584948 -0.42637225 -0.21105805
v -0.20300300 -0.43674600 -0.21593800
v -0.21344934 -0.43680286 -0.21518149
v -0.21306202 -0.43346034 -0.21586919
v -0.23651510 -0.42282587 -0.21264963
v -0.21043200 -0.41905901 -0.21537701
v -0.18726701 -0.43749100 -0.21428201
v -0.18483900 -0.43776950 -0.21169751
v -0.17671119 -0.43206831 -0.21368580
v -0.16616276 -0.42034766 -0.21478967
v -0.16851202 -0.42560825 -0.21271020
v -0.17887390 -0.43063522 -0.21551993
v -0.16118225 -0.41349366 -0.21437258
v -0.14363033 -0.39408188 -0.20940637
v -0.13530714 -0.38443345 -0.20654757
v -0.12755401 -0.37218987 -0.20442466
v -0.13913918 -0.38567158 -0.20833272
v -0.14315874 -0.38676147 -0.20970076
v -0.16466937 -0.41031103 -0.21528451
v -0.17267500 -0.41930401 -0.21641500
v -0.11294550 -0.36937151 -0.19968750
v -0.11801275 -0.37071176 -0.20049076
v -0.11316700 -0.35835499 -0.20108700
v -0.11631400 -0.35778299 -0.20124300
v -0.12285920 -0.36213496 -0.20267596
v -0.12922700 -0.36271501 -0.20361400
v -0.11917500 -0.35606599 -0.20107201
v -0.14157494 -0.38022351 -0.20856448
v -0.15514957 -0.39580598 -0.21271533
v -0.14823275 -0.38421937 -0.20987875
v -0.15865700 -0.39440399 -0.21261600
v -0.14832451 -0.39611879 -0.21146998
v -0.07951500 -0.36293301 -0.19991000
v -0.05326436 -0.36744532 -0.19912178
v -0.03314391 -0.35799797 -0.19625264
v -0.10891839 -0.36089934 -0.20104698
v -0.17767672 -0.42005447 -0.21691325
v -0.16831350 -0.40842250 -0.21524550
v -0.18276100 -0.41342899 -0.21604601
v -0.08336328 -0.37174665 -0.20107597
v -0.19999407 -0.41882250 -0.21612544
v -0.06184811 -0.37444878 -0.20031881
v -0.19111217 -0.42782295 -0.21747715
v -0.19069999 -0.41271400 -0.21571299
v -0.20205247 -0.43141979 -0.21706765
v -0.20526047 -0.42972373 -0.21689188
v -0.21323360 -0.42801546 -0.21610507
v -0.18673820 -0.42922459 -0.21726428
v -0.01075806 -0.34986932 -0.19311569
v -0.18269619 -0.42973216 -0.21681310
v -0.20712434 -0.43894182 -0.21500855
v -0.21393800 -0.43970400 -0.21309400
v -0.20078525 -0.43994125 -0.21440150
v -0.19116899 -0.43897751 -0.21409200
v -0.19636593 -0.43580149 -0.21634278
v 0.21157999 -0.44189900 -0.20614301
v 0.19969600 -0.44107024 -0.20551900
v 0.14451000 -0.37753499 -0.18784900
v 0.14460100 -0.38236299 -0.18959700
v 0.14978699 -0.38800499 -0.19103700
v 0.15780500 -0.39848649 -0.19376950
v 0.19783799 -0.43845999 -0.20271900
v 0.29665925 -0.48003799 -0.18924225
v 0.01997530 -0.36438573 -0.19063476
v 0.00382944 -0.35604811 -0.18848995
v 0.03572386 -0.37488158 -0.19345153
v 0.01039848 -0.35822824 -0.18939733
v 0.04441868 -0.37997012 -0.19257364
v 0.01176498 -0.35992145 -0.18586632
v 0.05516954 -0.38293306 -0.19312061
v -0.03821429 -0.37360128 -0.18373687
v -0.00471271 -0.35439422 -0.17895815
v -0.02585036 -0.36413411 -0.18050345
v -0.03789500 -0.36924000 -0.18147651
v -0.04755350 -0.37883704 -0.18585495
v -0.04221500 -0.37382701 -0.18325999
v -0.05566100 -0.37885150 -0.18504550
v -0.06839300 -0.38163200 -0.18747600
v -0.07222375 -0.38201351 -0.18838125
v -0.20667425 -0.43964600 -0.20267625
v -0.20953600 -0.43846500 -0.20157000
v -0.20262203 -0.44169046 -0.20509779
v -0.18892095 -0.43795824 -0.20395316
v -0.19481751 -0.43626649 -0.20167400
v -0.20286001 -0.43778799 -0.20162650
v -0.19360501 -0.44074100 -0.20617300
v -0.20843850 -0.44218700 -0.20632001
v -0.19725100 -0.44177251 -0.20928350
v -0.21918599 -0.43843600 -0.20275401
v -0.21283799 -0.43958899 -0.20273900
v -0.17578894 -0.43139344 -0.20464873
v -0.22737022 -0.43416618 -0.19981926
v -0.23672350 -0.43143376 -0.19780750
v -0.23104000 -0.43001300 -0.19691101
v -0.21669999 -0.43550551 -0.20005200
v -0.23917050 -0.42728225 -0.19435000
v -0.23024986 -0.43557618 -0.20206236
v -0.21035323 -0.44248793 -0.20866697
v -0.23845668 -0.43430285 -0.20213202
v -0.21664702 -0.44082745 -0.20555054
v -0.24171874 -0.43373310 -0.19963572
v -0.24171248 -0.43061525 -0.19608672
v -0.24580775 -0.43261475 -0.19646450
v -0.23530623 -0.43470113 -0.20635639
v 0.06669950 -0.18615350 -0.10904250
v 0.13772575 -0.17361200 -0.07473275
v 0.13339775 -0.17391475 -0.07773225
v 0.08516225 -0.18296964 -0.10279823
v -0.24968900 -0.41860801 -0.18762299
v -0.23364000 -0.37871701 -0.17850100
v -0.24225400 -0.39842799 -0.18291500
v -0.22369675 -0.36162425 -0.17483075
v -0.21788000 -0.35158500 -0.17244600
v -0.20789399 -0.32686651 -0.16438799
v -0.20572150 -0.31477700 -0.15927500
v -0.20396100 -0.31137499 -0.15811600
v -0.21191800 -0.29582100 -0.14608275
v -0.24140701 -0.41779000 -0.18992300
v -0.20423500 -0.26965800 -0.13147350
v -0.18602400 -0.24127799 -0.11841400
v -0.18918601 -0.24948899 -0.12388100
v -0.18095100 -0.23477501 -0.11572700
v -0.15860381 -0.19468593 -0.08746269
v -0.08858453 -0.17963497 -0.10064212
v 0.08062088 -0.18043812 -0.10309513
v -0.11114485 -0.37075959 -0.19772489
v -0.10918319 -0.37194901 -0.19460392
v -0.09226250 -0.37826599 -0.19312835
v -0.09653300 -0.37652200 -0.19216301
v -0.08170360 -0.38117350 -0.18958209
v -0.07100025 -0.37913032 -0.18550258
v -0.07439104 -0.36956361 -0.18203095
v -0.08149825 -0.37754750 -0.18610700
v -0.07809300 -0.35814801 -0.17869700
v -0.08081494 -0.32496300 -0.16905750
v -0.10254111 -0.33479442 -0.17289987
v -0.12828507 -0.34242875 -0.17622586
v -0.13266696 -0.34031417 -0.17556936
v -0.15101736 -0.32735259 -0.17102947
v -0.17401225 -0.33163522 -0.17160625
v -0.21056201 -0.35461101 -0.17531399
v -0.22910200 -0.37450200 -0.17827849
v -0.22602520 -0.37921528 -0.18079161
v -0.21867547 -0.37665177 -0.18144179
v -0.21816599 -0.38295999 -0.18356299
v -0.20080404 -0.36304510 -0.17990475
v -0.19642200 -0.37494901 -0.18406400
v -0.18409718 -0.35923584 -0.18043100
v -0.14198107 -0.37532625 -0.18729297
v -0.13866271 -0.36982375 -0.18560599
v -0.15307265 -0.39040691 -0.19156951
v -0.17518859 -0.41766701 -0.19759330
v -0.18777785 -0.43099198 -0.20038720
v -0.19573200 -0.43375200 -0.20048200
v -0.20779588 -0.43165215 -0.19842856
v -0.18355934 -0.41594161 -0.19609381
v -0.17403562 -0.41105703 -0.19560625
v -0.16813960 -0.39105238 -0.19058918
v -0.18510350 -0.37201701 -0.18413075
v -0.19206866 -0.38283481 -0.18674662
v -0.20617127 -0.40321677 -0.19092952
v -0.22747478 -0.42712260 -0.19563878
v -0.23896449 -0.39845264 -0.18395392
v -0.23396952 -0.42128153 -0.19273394
v -0.21785200 -0.43083550 -0.19783825
v -0.22364786 -0.41623688 -0.19257159
v -0.18316850 -0.39602450 -0.19081150
v -0.15875662 -0.39054850 -0.19093037
v -0.23247100 -0.42759100 -0.19546901
v -0.15514915 -0.35390740 -0.18002515
v -0.16094600 -0.35039601 -0.17866699
v -0.12257162 -0.36176045 -0.18314615
v -0.10974709 -0.36598944 -0.18479473
v -0.11044500 -0.36077112 -0.18227875
v -0.09371366 -0.37192066 -0.18521034
v -0.09162400 -0.36294001 -0.18133201
v -0.10415126 -0.35497281 -0.17958649
v -0.10503600 -0.36281199 -0.18268100
v -0.11087800 -0.35439700 -0.17981200
v -0.19425400 -0.34929499 -0.17592800
v -0.21044099 -0.39125600 -0.18723500
v -0.20134363 -0.32054143 -0.16340783
v -0.20043557 -0.33131677 -0.16816844
v -0.18638943 -0.29534536 -0.15453341
v -0.17270025 -0.27050425 -0.14455300
v -0.17394782 -0.26166058 -0.13940634
v -0.19516616 -0.28163975 -0.14455401
v -0.18585349 -0.26238364 -0.13568864
v -0.18342900 -0.25591400 -0.13206199
v -0.13110188 -0.25263249 -0.14150574
v -0.15145809 -0.26513709 -0.14563587
v -0.15640452 -0.28909010 -0.15607518
v -0.16132578 -0.31557754 -0.16642010
v -0.13205875 -0.29653875 -0.16032825
v -0.16811350 -0.27853475 -0.14957300
v -0.16570732 -0.31118604 -0.16445667
v -0.13502975 -0.26558550 -0.14732625
v -0.13001888 -0.28949547 -0.15772514
v -0.12041553 -0.27573077 -0.15251713
v -0.12681101 -0.30057550 -0.16191950
v -0.09750798 -0.30086089 -0.16199771
v -0.06393499 -0.29631784 -0.16013829
v -0.09838998 -0.31263739 -0.16582894
v -0.03985681 -0.33382556 -0.17054187
v -0.05770426 -0.31060150 -0.16435630
v -0.00843422 -0.33732373 -0.17138117
v -0.02669762 -0.32675985 -0.16847229
v -0.04421700 -0.35663801 -0.17692100
v -0.05573353 -0.36474650 -0.17944926
v 0.03261144 -0.35001766 -0.17489121
v 0.01171732 -0.31525125 -0.16530583
v 0.04537904 -0.31298390 -0.16484755
v -0.01659248 -0.26333673 -0.14995966
v -0.05394500 -0.35663801 -0.17711000
v 0.06495425 -0.29826875 -0.16068350
v 0.06651025 -0.33002651 -0.17009750
v -0.05849550 -0.33250600 -0.17055550
v 0.05283311 -0.35504186 -0.17666809
v -0.09384679 -0.28434129 -0.15641296
v -0.03162900 -0.35320500 -0.17589000
v -0.02512025 -0.35495025 -0.17661975
v -0.05144125 -0.26628075 -0.15062150
v -0.08239375 -0.27678825 -0.15386400
v -0.06839300 -0.27048001 -0.15188099
v 0.12694698 -0.31553969 -0.16718021
v 0.08747800 -0.28437349 -0.15631101
v 0.13202000 -0.30920401 -0.16493100
v 0.04001300 -0.31884500 -0.16651100
v -0.12031800 -0.32469550 -0.17007601
v -0.07735411 -0.25693679 -0.14659676
v -0.06484800 -0.26606900 -0.15037301
v -0.00824900 -0.27944200 -0.15499101
v 0.00372250 -0.24120450 -0.14185300
v -0.04984192 -0.24843139 -0.14419909
v -0.04729904 -0.21898517 -0.13129946
v -0.02156429 -0.21279025 -0.12890704
v -0.06712425 -0.24740125 -0.14299275
v -0.04455930 -0.22849119 -0.13600032
v -0.00704200 -0.21102600 -0.12826500
v 0.07524750 -0.36113551 -0.17949100
v -0.09806900 -0.25801000 -0.14612401
v 0.08192928 -0.33959075 -0.17342115
v 0.10950067 -0.34441217 -0.17641538
v 0.10089975 -0.33231000 -0.17209426
v 0.05216357 -0.27635584 -0.15396027
v 0.05085014 -0.25489420 -0.14653728
v 0.11111800 -0.26833600 -0.14965749
v 0.05552057 -0.24947270 -0.14429023
v 0.05267220 -0.21641265 -0.12964400
v 0.07037418 -0.22100457 -0.13077754
v 0.07381688 -0.24335650 -0.14092075
v 0.05954752 -0.23193105 -0.13676400
v 0.09080996 -0.25790538 -0.14629090
v 0.04430576 -0.23111598 -0.13692001
v 0.09861698 -0.24220712 -0.13905356
v 0.11689177 -0.24996346 -0.14136735
v 0.11970858 -0.26925462 -0.14969563
v 0.13101798 -0.26129639 -0.14561435
v 0.02902400 -0.21130000 -0.12787500
v 0.08668673 -0.28052992 -0.15495956
v 0.11545400 -0.28107001 -0.15461750
v 0.14799383 -0.28940543 -0.15664660
v 0.14967560 -0.28452599 -0.15452632
v 0.17581950 -0.30711800 -0.16152850
v 0.12985700 -0.30212951 -0.16237000
v 0.15625473 -0.26431381 -0.14446003
v 0.17293628 -0.25859623 -0.13769727
v 0.17580750 -0.27466550 -0.14594050
v 0.15536194 -0.25847469 -0.14166835
v 0.18918616 -0.29339494 -0.15275882
v 0.18231161 -0.30344674 -0.15911736
v 0.20681324 -0.32602118 -0.16398028
v 0.19878125 -0.31054917 -0.15884246
v 0.21097682 -0.33636168 -0.16770456
v 0.10821000 -0.25532001 -0.14428300
v 0.23047350 -0.35087376 -0.16742325
v 0.22775100 -0.35822400 -0.17187600
v 0.03015945 -0.19838857 -0.12068655
v 0.05668947 -0.20176963 -0.12149483
v 0.02175025 -0.19020150 -0.11566875
v 0.06114975 -0.19247100 -0.11484650
v 0.00553263 -0.20418023 -0.12469185
v 0.00041400 -0.20233700 -0.12363400
v 0.00589829 -0.21178206 -0.12871414
v -0.00073000 -0.21374001 -0.12967899
v 0.11336951 -0.23289484 -0.13339364
v 0.20783177 -0.34990390 -0.17398322
v 0.21791800 -0.37226701 -0.17977100
v 0.23252971 -0.39814435 -0.18542199
v 0.16514375 -0.25381549 -0.13669650
v 0.10952200 -0.24126300 -0.13785000
v 0.12955943 -0.23115658 -0.13055908
v 0.13134000 -0.22792201 -0.12831300
v 0.10535501 -0.21924593 -0.12694664
v 0.13200915 -0.21464515 -0.11975630
v 0.15249888 -0.23758118 -0.13014657
v 0.14300439 -0.23068794 -0.12792683
v 0.14603325 -0.25526163 -0.14094287
v 0.03125325 -0.23409650 -0.13853325
v 0.10082108 -0.36134245 -0.18173053
v 0.07153188 -0.37679467 -0.18455901
v -0.03863800 -0.30992100 -0.16395000
v -0.04035900 -0.31380200 -0.16504600
v -0.06768425 -0.28313399 -0.15609275
v 0.24011652 -0.33945749 -0.15709265
v 0.23989435 -0.32912893 -0.15076052
v 0.23333700 -0.34802201 -0.16496800
v 0.23079956 -0.32988585 -0.15679070
v 0.23743900 -0.42432099 -0.19327712
v -0.01470600 -0.19876189 -0.12125295
v -0.00913500 -0.19101700 -0.11645950
v 0.00166613 -0.19146625 -0.11694512
v -0.04582650 -0.19522350 -0.11797050
v -0.04402581 -0.20083540 -0.12171160
v -0.07168300 -0.20367500 -0.12157700
v -0.08321392 -0.21697801 -0.12795225
v 0.08045819 -0.19717613 -0.11612665
v 0.02065600 -0.25897476 -0.14825225
v -0.06338600 -0.20630300 -0.12367000
v 0.14603037 -0.31597188 -0.16697875
v 0.13551571 -0.29762523 -0.16060583
v 0.18161813 -0.34396263 -0.17509538
v 0.15719700 -0.35029000 -0.17870300
v 0.17909416 -0.35184752 -0.17812318
v 0.16676288 -0.30796150 -0.16278100
v 0.17092509 -0.33310525 -0.17221986
v 0.16919947 -0.31251338 -0.16474387
v -0.14272975 -0.28599550 -0.15564050
v 0.18715650 -0.33087800 -0.16967900
v -0.09939713 -0.24884638 -0.14222162
v -0.12147621 -0.23811237 -0.13538469
v -0.09713172 -0.22774378 -0.13243938
v -0.09482075 -0.22089950 -0.12897450
v 0.20212601 -0.36078423 -0.17870085
v 0.19175000 -0.34142199 -0.17314200
v 0.20515975 -0.33315250 -0.16744900
v 0.19839600 -0.35291201 -0.17644700
v 0.20028759 -0.38490179 -0.18645056
v 0.18690965 -0.37959130 -0.18609781
v 0.23119639 -0.42252479 -0.19343482
v 0.20844575 -0.42186325 -0.19544250
v 0.19553350 -0.37768901 -0.18475750
v 0.13274995 -0.36683225 -0.18496421
v 0.20771401 -0.38735500 -0.18622100
v 0.19152901 -0.36922699 -0.18260799
v 0.16183603 -0.39522204 -0.19224640
v 0.18532300 -0.41361400 -0.19523700
v 0.18635900 -0.40844101 -0.19374301
v -0.09460050 -0.27330850 -0.15234999
v 0.11533712 -0.32176774 -0.16912988
v -0.15908263 -0.25604136 -0.13981242
v -0.15157328 -0.24577090 -0.13526015
v 0.13730451 -0.32833175 -0.17151225
v 0.13220563 -0.35304127 -0.17999868
v 0.14544900 -0.34025601 -0.17551100
v 0.09497700 -0.19074051 -0.10960350
v 0.14918600 -0.22871201 -0.12512299
v 0.20934150 -0.37368900 -0.18180075
v 0.03918019 -0.25294695 -0.14602063
v 0.16763000 -0.24965701 -0.13346700
v -0.00201363 -0.23828560 -0.14078678
v 0.08555629 -0.30836429 -0.16431485
v 0.09316075 -0.31516575 -0.16650075
v 0.22961750 -0.41653650 -0.19166800
v 0.18967850 -0.42215600 -0.19728725
v 0.14885532 -0.22219425 -0.12061710
v 0.14773401 -0.21596199 -0.11618550
v -0.15064600 -0.23442200 -0.12854700
v 0.11357850 -0.35854000 -0.18156000
v 0.17394678 -0.24621015 -0.12890177
v 0.17635875 -0.41509751 -0.19660400
v 0.10604563 -0.18533188 -0.10352850
v 0.08558353 -0.18921934 -0.11023043
v 0.21173731 -0.38075560 -0.18370150
v 0.05972604 -0.37143509 -0.18187093
v 0.25858021 -0.33549458 -0.14334655
v 0.24777779 -0.30417226 -0.13034262
v 0.20140564 -0.42861459 -0.19793946
v -0.02517350 -0.19318800 -0.11741250
v -0.17218300 -0.24996350 -0.13234850
v -0.15648040 -0.22851134 -0.12290397
v -0.14561461 -0.20158572 -0.10497947
v -0.12980625 -0.19736225 -0.10736338
v -0.16374039 -0.22333617 -0.11547169
v -0.13873245 -0.20121035 -0.10772620
v -0.12296888 -0.19630800 -0.10856520
v 0.19879100 -0.29305699 -0.14955400
v 0.20594400 -0.28584701 -0.14212900
v 0.21570043 -0.28833443 -0.13838751
v 0.22624183 -0.29114830 -0.13321766
v 0.22621187 -0.28591201 -0.12893275
v 0.24312000 -0.30530800 -0.13297250
v 0.24222100 -0.32206100 -0.14461400
v 0.20946825 -0.27084260 -0.12849170
v 0.19678663 -0.27209958 -0.13747699
v 0.23081499 -0.30834201 -0.14293800
v 0.21920400 -0.27245101 -0.12289900
v 0.21506166 -0.29706981 -0.14487503
v 0.22556065 -0.27495122 -0.12101209
v 0.24068408 -0.30968383 -0.13725304
v 0.21004200 -0.28950000 -0.14245000
v 0.21569870 -0.26368167 -0.11790226
v 0.26747612 -0.35499357 -0.14946322
v 0.27520376 -0.36762900 -0.15206975
v 0.26411101 -0.33736500 -0.14205000
v 0.26815637 -0.37310685 -0.15889001
v 0.28353184 -0.40414158 -0.16460484
v 0.29085429 -0.40762735 -0.16275256
v 0.28901175 -0.43257950 -0.17299775
v 0.28566682 -0.41383848 -0.16747432
v 0.22804300 -0.30925000 -0.14542700
v 0.22684383 -0.31615989 -0.15069908
v 0.20415400 -0.28794500 -0.14437100
v -0.05895150 -0.20884250 -0.12532900
v -0.11224750 -0.19621801 -0.11073950
v -0.12174700 -0.20377500 -0.11466000
v -0.12515479 -0.18610892 -0.09882698
v 0.25006425 -0.42412759 -0.18983989
v 0.24174679 -0.42681432 -0.19386812
v -0.07025200 -0.23463300 -0.13755000
v 0.21603836 -0.43449281 -0.19944667
v 0.13043215 -0.19763699 -0.10744028
v 0.12052100 -0.20313500 -0.11413700
v 0.11577617 -0.19649429 -0.11029367
v 0.10759750 -0.20678425 -0.11875250
v 0.18523167 -0.26367757 -0.13649343
v -0.19710302 -0.26565486 -0.13261450
v 0.09929175 -0.35359401 -0.17890050
v 0.23587500 -0.43167499 -0.19807200
v 0.23471651 -0.29366249 -0.12955751
v 0.23787088 -0.28913696 -0.12517904
v 0.15618200 -0.22426550 -0.11947975
v 0.14321697 -0.20180574 -0.10634462
v 0.17257598 -0.20409915 -0.08872634
v 0.17618600 -0.21610799 -0.09928500
v 0.17446212 -0.22139431 -0.10657215
v 0.15743775 -0.19096800 -0.08372950
v 0.15219068 -0.20345424 -0.10307652
v 0.15030606 -0.19390121 -0.09289808
v 0.16614050 -0.20337675 -0.09238125
v 0.14203525 -0.19754525 -0.10245975
v 0.17840900 -0.23308600 -0.11548300
v 0.15501151 -0.21501803 -0.11255671
v 0.13423800 -0.18610600 -0.09411700
v 0.11715750 -0.18068049 -0.09657900
v 0.12200850 -0.18369900 -0.09742300
v 0.13134603 -0.18902793 -0.09864773
v 0.12831150 -0.19331299 -0.10403300
v -0.09302000 -0.20383000 -0.11923100
v -0.09679448 -0.21355873 -0.12468298
v -0.11075820 -0.20808487 -0.11956496
v -0.09964525 -0.20161050 -0.11680575
v -0.18823003 -0.25697089 -0.13056619
v 0.18394200 -0.28506349 -0.14948100
v -0.02534350 -0.22682525 -0.13551025
v -0.13625147 -0.23238363 -0.13037199
v 0.26276050 -0.43282950 -0.18785353
v 0.27269858 -0.44612642 -0.18759915
v 0.28764400 -0.47167501 -0.18840000
v 0.27968285 -0.40223552 -0.16598584
v 0.28825732 -0.44058362 -0.17638491
v 0.28928456 -0.46118318 -0.18344095
v 0.29784517 -0.47248842 -0.18357408
v 0.26902742 -0.45498947 -0.19419807
v 0.19168000 -0.33495399 -0.17070200
v 0.23563799 -0.37974900 -0.17791000
v -0.17312500 -0.24692500 -0.12989999
v -0.17961918 -0.23998024 -0.12150019
v 0.07559200 -0.20617200 -0.12236100
v 0.25985263 -0.40473741 -0.17780480
v 0.26238514 -0.41729010 -0.18174977
v 0.24540812 -0.38973972 -0.17820560
v 0.23951675 -0.35926791 -0.16770359
v 0.26357588 -0.39427650 -0.17143400
v 0.25641843 -0.36471713 -0.16124512
v 0.23251601 -0.35971400 -0.17082100
v 0.24614745 -0.38141278 -0.17456719
v 0.25467648 -0.37512130 -0.16761502
v 0.04059750 -0.36498226 -0.17978900
v 0.28207351 -0.37581974 -0.15330908
v 0.03717800 -0.35839501 -0.17747501
v 0.05853500 -0.20612600 -0.12364050
v -0.11275425 -0.18457463 -0.10159438
v -0.13130831 -0.21876256 -0.12280054
v 0.10273676 -0.20827756 -0.12043741
v -0.17075548 -0.28855123 -0.15404811
v -0.18373700 -0.30224726 -0.15834650
v 0.23653799 -0.38946301 -0.18127400
v 0.03131300 -0.32566601 -0.16824800
v 0.28975405 -0.47964719 -0.19102203
v 0.29596725 -0.47572450 -0.18622375
v -0.20477407 -0.28993865 -0.14583864
v -0.20017987 -0.30143309 -0.15425753
v -0.19587775 -0.29813400 -0.15360100
v 0.08335300 -0.20461075 -0.12048650
v -0.14757715 -0.19782060 -0.09982524
v -0.15695325 -0.20580699 -0.10223825
v -0.15569249 -0.20123176 -0.09776221
v -0.14692290 -0.18276033 -0.08147898
v -0.13213199 -0.18135300 -0.09029900
v -0.14839850 -0.19543800 -0.09626200
v -0.18675450 -0.32231612 -0.16644413
v 0.19127546 -0.24692399 -0.11974067
v 0.20184838 -0.24698979 -0.11216635
v 0.19801351 -0.23532324 -0.10383125
v 0.18770462 -0.22372925 -0.09941975
v 0.19891500 -0.24166299 -0.10884000
v -0.18274505 -0.28329122 -0.14909157
v 0.16513000 -0.19646600 -0.08480000
v 0.16443413 -0.19200509 -0.08100672
v 0.18175300 -0.27655450 -0.14548350
v 0.06757675 -0.19016275 -0.11281925
v 0.22450113 -0.36805808 -0.17681614
v 0.23182750 -0.36696499 -0.17411725
v -0.05807050 -0.19613950 -0.11790050
v 0.22571240 -0.26756414 -0.11620332
v 0.20399401 -0.43231499 -0.19911601
v 0.21270895 -0.30738402 -0.15234041
v 0.22380956 -0.31930300 -0.15400788
v 0.18223449 -0.36330900 -0.18154850
v 0.15347899 -0.23043700 -0.12505201
v 0.21009125 -0.31744487 -0.15872724
v -0.01065526 -0.29713876 -0.16015509
v -0.04303725 -0.28602325 -0.15700100
v 0.30147006 -0.46017289 -0.17757939
v 0.29526750 -0.42375401 -0.16705199
v -0.09804372 -0.18790110 -0.10777757
v -0.10488550 -0.18713300 -0.10562200
v 0.09232250 -0.22455325 -0.13091125
v 0.26680401 -0.40442699 -0.17410199
v 0.19172399 -0.32461851 -0.16652351
v 0.05255200 -0.36265200 -0.17894800
v 0.25694901 -0.43426999 -0.19178300
v -0.02576400 -0.23402999 -0.13869800
v 0.19441700 -0.22592100 -0.09823800
v -0.14435700 -0.19813600 -0.10201200
v 0.27742631 -0.38551549 -0.15944059
v 0.12915750 -0.20214650 -0.11116250
v 0.15612165 -0.36847356 -0.18459425
v 0.12508251 -0.36215549 -0.18337075
v 0.11544644 -0.36221869 -0.18324103
v 0.20504925 -0.24885025 -0.11164600
v -0.04981103 -0.37258688 -0.18228322
v 0.25005937 -0.41520588 -0.18611751
v 0.23445800 -0.35490900 -0.16781799
v 0.21203081 -0.25766144 -0.11511756
v 0.21412900 -0.25602999 -0.11275400
v 0.01898000 -0.18474050 -0.11227550
v -0.12175925 -0.21301700 -0.12079300
v 0.09750200 -0.35925499 -0.18069699
v 0.19310870 -0.25829096 -0.12860302
v 0.23581736 -0.43445006 -0.20137912
v 0.22257100 -0.43572801 -0.20060800
v 0.28405099 -0.38860701 -0.15784150
v 0.02951254 -0.18288804 -0.11054925
v 0.13886650 -0.24605950 -0.13722650
v 0.21632209 -0.44090689 -0.20539044
v 0.20607643 -0.44027420 -0.20303774
v -0.20557800 -0.28360000 -0.14117400
v 0.18562869 -0.21920056 -0.09596426
v 0.21295060 -0.43285981 -0.19870247
v 0.21843225 -0.26154475 -0.11489225
v -0.20141750 -0.34898875 -0.17462888
v -0.16593800 -0.31928200 -0.16755100
v -0.16726825 -0.34770588 -0.17746162
v -0.16712400 -0.24132171 -0.12835925
v -0.14649799 -0.36262000 -0.18299299
v -0.15866200 -0.26993249 -0.14684812
v -0.10285287 -0.34509950 -0.17616650
v -0.08199397 -0.33249587 -0.17134540
v -0.08746700 -0.35576800 -0.17858800
v 0.18253607 -0.24837957 -0.12649685
v -0.05709150 -0.36722400 -0.18046350
v -0.10783454 -0.37126347 -0.18914932
v -0.21133525 -0.42664775 -0.19669701
v -0.06310000 -0.37763000 -0.18447401
v 0.13508138 -0.27586650 -0.15169200
v 0.07870100 -0.19121551 -0.11242850
v -0.17409600 -0.23018900 -0.11573500
v -0.16998900 -0.40980500 -0.19569001
v 0.17013400 -0.22495875 -0.11290538
v -0.18812925 -0.27687725 -0.14397150
v -0.07597450 -0.20489300 -0.12193300
v 0.22713301 -0.43724900 -0.20344500
v -0.15094949 -0.21920351 -0.11754550
v -0.07631484 -0.38290520 -0.19581894
v -0.07519296 -0.38315525 -0.19023673
v -0.08721200 -0.38012499 -0.19230300
v -0.09471600 -0.37408975 -0.18698500
v -0.07568800 -0.34462199 -0.17460699
v 0.18134950 -0.23569650 -0.11594650
v -0.09148462 -0.37763761 -0.19686378
v 0.15816829 -0.18671911 -0.07844310
v -0.13555875 -0.23481475 -0.13173150
v -0.02730000 -0.20553650 -0.12491900
v -0.10076750 -0.37425875 -0.19542025
v -0.10086500 -0.20519200 -0.11905700
v -0.08644400 -0.20049000 -0.11799200
v -0.13415762 -0.35974351 -0.18222475
v 0.23422346 -0.41100477 -0.18922678
v 0.19503649 -0.26890025 -0.13552174
v 0.19031300 -0.35563800 -0.17839500
v 0.25218475 -0.32426825 -0.14010375
v -0.12364425 -0.32805724 -0.17123587
v -0.12693409 -0.31246802 -0.16614410
v 0.21162025 -0.25055475 -0.10992375
v 0.12794338 -0.36790187 -0.18569588
v 0.23082601 -0.36308801 -0.17290001
v -0.08766905 -0.18968464 -0.11091469
v -0.06364767 -0.18843647 -0.11203279
v -0.07169300 -0.19262700 -0.11426525
v -0.07296704 -0.19985428 -0.11904792
v -0.09852074 -0.19341941 -0.11148309
v -0.05441100 -0.18658800 -0.11152700
v -0.02071736 -0.18545274 -0.11259207
v -0.05033000 -0.18928925 -0.11363950
f 101 109 102
f 102 109 113
f 99 102 113
f 99 113 20
f 98 99 20
f 20 113 248
f 112 98 20
f 249 20 248
f 113 246 248
f 22 112 20
f 112 100 98
f 19 20 249
f 249 248 301
f 113 114 246
f 248 246 247
f 100 96 98
f 100 112 22
f 301 19 249
f 301 248 247
f 247 246 245
f 98 96 99
f 100 103 96
f 100 22 65
f 301 11 19
f 12 301 247
f 245 246 294
f 247 245 294
f 96 102 99
f 103 102 96
f 97 103 100
f 21 65 22
f 13 11 301
f 12 247 287
f 13 301 12
f 294 246 109
f 247 294 286
f 103 101 102
f 63 97 100
f 97 106 103
f 317 65 21
f 287 286 12
f 287 247 286
f 294 109 242
f 286 294 240
f 103 104 101
f 63 100 65
f 105 106 97
f 106 108 103
f 317 21 18
f 64 65 317
f 12 286 285
f 109 236 242
f 294 242 292
f 286 240 288
f 294 292 240
f 101 104 109
f 108 104 103
f 105 97 63
f 18 319 317
f 321 64 317
f 286 288 285
f 242 236 237
f 292 242 240
f 288 240 244
f 104 111 109
f 108 110 104
f 324 105 63
f 18 316 319
f 321 317 319
f 64 321 61
f 285 288 275
f 237 236 234
f 242 237 233
f 238 240 242
f 240 233 244
f 288 244 277
f 109 111 236
f 324 63 91
f 94 105 324
f 17 316 18
f 62 319 316
f 321 319 62
f 321 62 61
f 275 288 277
f 236 235 234
f 233 237 234
f 238 242 233
f 240 238 233
f 244 233 241
f 244 243 277
f 59 324 91
f 94 325 105
f 95 94 324
f 318 316 17
f 62 316 318
f 276 275 277
f 236 838 235
f 244 241 243
f 243 241 277
f 94 323 325
f 105 325 323
f 59 95 324
f 15 318 17
f 320 62 318
f 276 277 279
f 840 235 838
f 239 838 236
f 241 268 277
f 94 328 323
f 105 323 103
f 15 320 318
f 60 62 320
f 279 277 278
f 840 844 235
f 382 840 838
f 111 838 239
f 241 194 268
f 277 268 270
f 328 329 323
f 107 105 103
f 323 327 103
f 14 320 15
f 60 320 46
f 277 280 278
f 844 233 235
f 844 840 380
f 382 838 839
f 382 380 840
f 111 839 838
f 241 274 194
f 268 194 267
f 268 269 270
f 277 270 280
f 323 329 327
f 103 327 110
f 322 320 14
f 69 60 46
f 46 320 322
f 278 280 282
f 844 379 233
f 380 848 844
f 382 381 380
f 194 193 267
f 268 267 269
f 269 266 270
f 270 284 280
f 327 329 104
f 45 322 14
f 69 46 67
f 69 62 60
f 45 46 322
f 280 281 282
f 379 378 233
f 380 381 848
f 841 381 382
f 193 188 267
f 267 266 269
f 270 266 284
f 280 284 281
f 329 330 104
f 45 14 38
f 66 67 46
f 69 55 62
f 282 281 283
f 273 233 378
f 379 274 378
f 379 848 381
f 841 826 381
f 385 841 382
f 188 191 267
f 267 191 266
f 266 265 284
f 284 271 281
f 104 330 111
f 16 38 14
f 44 45 38
f 83 66 46
f 67 66 83
f 69 58 55
f 283 281 290
f 273 378 274
f 196 274 379
f 826 379 381
f 425 826 841
f 839 385 382
f 427 841 385
f 191 265 266
f 284 265 271
f 281 271 290
f 16 30 38
f 44 38 40
f 44 50 45
f 83 46 49
f 73 67 83
f 86 55 58
f 425 196 826
f 427 425 841
f 383 385 839
f 429 427 385
f 191 187 265
f 265 289 271
f 271 289 290
f 28 38 30
f 43 44 40
f 51 50 44
f 73 68 67
f 73 83 43
f 86 85 55
f 86 58 70
f 430 425 427
f 384 385 383
f 383 839 331
f 385 428 429
f 429 430 427
f 187 190 265
f 265 272 289
f 290 289 291
f 38 28 26
f 39 43 40
f 49 44 43
f 68 93 67
f 71 68 73
f 82 73 43
f 85 56 55
f 87 85 86
f 70 58 57
f 89 86 70
f 430 426 425
f 384 383 828
f 384 823 385
f 383 331 828
f 331 839 111
f 823 428 385
f 823 429 428
f 429 426 430
f 187 189 190
f 190 262 265
f 265 262 272
f 291 289 296
f 41 43 39
f 93 69 67
f 72 71 73
f 84 82 43
f 79 73 82
f 55 56 91
f 85 59 56
f 87 88 85
f 87 86 89
f 70 57 69
f 89 70 93
f 426 424 425
f 825 384 828
f 386 823 384
f 429 823 821
f 429 431 426
f 189 187 188
f 189 197 190
f 190 198 262
f 272 262 289
f 296 289 295
f 42 41 39
f 93 70 69
f 79 72 73
f 84 43 41
f 79 82 84
f 59 91 56
f 88 91 85
f 58 69 57
f 424 228 425
f 851 424 426
f 461 384 825
f 795 825 828
f 461 386 384
f 821 823 386
f 429 821 431
f 192 189 188
f 195 197 189
f 197 198 190
f 198 199 262
f 289 262 302
f 289 300 295
f 296 295 293
f 27 42 39
f 47 41 42
f 77 72 79
f 79 84 41
f 88 92 91
f 424 851 228
f 461 825 326
f 326 825 795
f 795 828 328
f 461 821 386
f 192 195 189
f 195 211 197
f 197 199 198
f 199 263 262
f 262 264 302
f 289 302 300
f 300 259 295
f 295 297 293
f 296 293 258
f 27 39 25
f 42 27 29
f 48 41 47
f 47 42 29
f 76 77 79
f 79 41 48
f 228 851 402
f 472 461 326
f 326 795 328
f 842 821 461
f 200 195 192
f 208 211 195
f 197 211 202
f 197 210 199
f 199 201 263
f 263 261 262
f 261 264 262
f 302 264 259
f 300 302 259
f 295 259 307
f 293 297 298
f 295 307 297
f 293 299 258
f 25 39 24
f 48 47 23
f 47 29 23
f 76 552 77
f 74 76 79
f 81 79 48
f 228 402 401
f 851 401 402
f 473 472 326
f 472 460 461
f 822 842 461
f 821 842 822
f 205 200 192
f 200 207 195
f 207 208 195
f 208 215 211
f 197 202 210
f 214 202 211
f 201 261 263
f 261 259 264
f 259 305 307
f 293 298 299
f 298 297 255
f 307 254 297
f 299 257 258
f 24 39 26
f 552 76 75
f 77 552 553
f 78 74 79
f 80 79 81
f 401 224 228
f 851 819 401
f 473 326 94
f 473 458 472
f 456 461 460
f 458 460 472
f 387 822 461
f 388 821 822
f 205 192 196
f 205 207 200
f 215 208 207
f 215 214 211
f 202 206 210
f 214 226 202
f 201 204 261
f 261 204 259
f 259 306 305
f 307 305 303
f 298 256 299
f 297 254 255
f 256 298 255
f 307 303 254
f 258 257 52
f 257 299 253
f 26 39 38
f 552 75 793
f 552 627 553
f 80 78 79
f 228 224 229
f 401 403 224
f 819 422 401
f 422 819 851
f 458 473 92
f 458 456 460
f 461 456 466
f 387 461 466
f 387 388 822
f 388 851 821
f 231 205 196
f 207 216 215
f 215 216 214
f 206 212 210
f 214 221 226
f 305 304 303
f 299 256 252
f 254 303 255
f 256 255 250
f 52 257 53
f 299 252 253
f 792 793 75
f 621 552 793
f 492 627 552
f 553 627 68
f 229 224 218
f 224 403 230
f 401 420 403
f 422 400 401
f 851 423 422
f 733 458 92
f 459 456 458
f 456 469 466
f 388 387 856
f 389 851 388
f 231 203 205
f 218 216 207
f 216 221 214
f 227 226 221
f 303 304 255
f 252 256 250
f 255 1 250
f 252 251 253
f 792 621 793
f 621 802 552
f 802 492 552
f 494 627 492
f 627 90 68
f 218 224 220
f 229 218 219
f 403 404 230
f 401 411 420
f 403 420 404
f 401 400 411
f 423 400 422
f 462 458 733
f 457 456 459
f 459 458 463
f 456 387 469
f 856 389 388
f 390 851 389
f 203 209 205
f 218 207 219
f 220 216 218
f 216 225 221
f 225 227 221
f 304 1 255
f 252 250 251
f 251 250 1
f 253 251 2
f 494 492 680
f 494 470 627
f 627 731 90
f 224 225 220
f 229 219 231
f 420 411 410
f 411 400 399
f 423 817 400
f 463 458 462
f 470 462 733
f 456 457 387
f 457 459 555
f 555 459 463
f 856 390 389
f 391 851 390
f 203 219 209
f 209 207 205
f 220 225 216
f 1 2 251
f 2 6 253
f 494 680 495
f 468 470 494
f 470 784 627
f 784 731 627
f 231 219 203
f 411 412 410
f 410 408 420
f 400 398 399
f 817 432 400
f 463 462 741
f 462 470 468
f 470 733 784
f 457 455 387
f 554 457 555
f 554 555 463
f 856 391 390
f 391 817 851
f 207 209 219
f 253 6 5
f 496 494 495
f 792 495 680
f 468 494 496
f 412 419 410
f 411 433 412
f 410 419 408
f 420 408 409
f 398 433 399
f 400 432 398
f 468 741 462
f 480 463 741
f 455 481 387
f 453 455 457
f 554 775 457
f 775 554 463
f 857 391 856
f 391 392 817
f 5 53 253
f 602 496 495
f 606 495 792
f 614 468 496
f 412 413 419
f 412 433 413
f 419 827 408
f 409 408 405
f 420 409 832
f 433 398 397
f 432 393 398
f 464 463 480
f 453 481 455
f 454 453 457
f 775 454 457
f 775 463 464
f 857 445 391
f 857 856 481
f 816 392 391
f 392 815 817
f 257 253 53
f 495 605 602
f 602 615 496
f 605 495 606
f 792 607 606
f 464 468 614
f 615 614 496
f 419 413 827
f 413 433 418
f 827 407 408
f 408 407 405
f 409 405 832
f 398 396 397
f 433 397 418
f 393 396 398
f 432 815 393
f 464 480 468
f 453 857 481
f 776 453 454
f 776 454 775
f 775 464 467
f 391 445 816
f 452 445 857
f 754 392 816
f 754 815 392
f 602 614 615
f 605 606 607
f 614 467 464
f 413 418 827
f 827 417 407
f 405 407 406
f 832 405 404
f 396 395 397
f 418 397 416
f 393 395 396
f 435 393 815
f 452 857 453
f 556 453 776
f 775 484 776
f 497 775 467
f 445 754 816
f 452 446 445
f 815 754 435
f 614 602 477
f 478 467 614
f 827 418 414
f 407 417 337
f 827 414 417
f 405 406 336
f 406 407 336
f 404 405 223
f 395 416 397
f 418 416 414
f 393 394 395
f 434 393 435
f 471 452 453
f 453 556 471
f 465 556 776
f 484 775 497
f 484 465 776
f 467 512 497
f 445 448 754
f 450 445 446
f 471 446 452
f 754 434 435
f 477 602 572
f 479 614 477
f 478 512 467
f 478 614 517
f 407 337 336
f 417 414 421
f 395 415 416
f 416 421 414
f 393 364 394
f 394 415 395
f 434 365 393
f 474 471 556
f 465 474 556
f 465 484 497
f 512 498 497
f 444 448 445
f 444 754 448
f 450 580 445
f 450 446 471
f 739 434 754
f 479 477 572
f 479 517 614
f 512 478 517
f 336 337 335
f 416 415 370
f 416 370 421
f 365 364 393
f 394 362 415
f 366 365 434
f 474 475 471
f 465 486 474
f 570 465 497
f 498 570 497
f 499 498 512
f 580 444 445
f 444 739 754
f 451 580 450
f 475 450 471
f 436 434 739
f 512 517 573
f 222 336 335
f 337 332 335
f 415 361 370
f 362 363 415
f 368 366 434
f 476 475 474
f 613 486 465
f 486 483 474
f 465 570 611
f 611 570 498
f 505 498 499
f 513 499 512
f 580 449 444
f 738 739 444
f 601 451 450
f 493 580 451
f 601 450 475
f 746 434 436
f 447 436 739
f 573 513 512
f 573 517 572
f 222 335 217
f 335 332 334
f 415 363 361
f 746 368 434
f 483 476 474
f 476 483 475
f 485 613 465
f 786 486 613
f 486 601 483
f 611 485 465
f 500 611 498
f 505 500 498
f 527 505 499
f 449 443 444
f 447 738 444
f 447 739 738
f 486 451 601
f 482 493 451
f 760 746 436
f 760 436 447
f 499 513 573
f 573 572 579
f 217 335 343
f 332 339 334
f 335 334 338
f 551 613 485
f 786 490 486
f 707 786 613
f 551 485 611
f 551 611 500
f 503 500 505
f 508 527 499
f 503 505 527
f 443 820 444
f 442 443 449
f 820 447 444
f 482 451 486
f 582 493 482
f 760 745 746
f 437 760 447
f 829 499 573
f 579 572 578
f 577 573 579
f 217 343 213
f 343 335 206
f 212 335 338
f 537 613 551
f 490 489 486
f 707 490 786
f 537 707 613
f 504 551 500
f 504 500 503
f 508 499 510
f 508 507 527
f 507 503 527
f 603 820 443
f 442 603 443
f 437 447 820
f 489 482 486
f 582 482 489
f 582 442 493
f 746 745 367
f 834 745 760
f 437 438 760
f 509 499 829
f 515 829 573
f 572 575 578
f 579 578 581
f 577 514 573
f 516 577 579
f 206 335 212
f 343 206 213
f 212 338 260
f 506 537 551
f 490 672 489
f 491 490 707
f 506 551 504
f 507 504 503
f 510 499 509
f 550 508 510
f 508 543 507
f 603 438 820
f 442 846 603
f 820 438 437
f 489 672 582
f 582 583 442
f 745 369 367
f 439 745 834
f 438 834 760
f 510 509 829
f 514 515 573
f 515 550 829
f 575 572 605
f 576 578 575
f 578 574 581
f 783 579 581
f 515 514 577
f 516 515 577
f 523 516 579
f 338 306 260
f 506 511 537
f 487 672 490
f 488 490 491
f 501 506 504
f 507 543 504
f 538 508 550
f 510 829 550
f 538 543 508
f 818 438 603
f 583 846 442
f 604 603 846
f 672 584 582
f 583 582 584
f 745 744 369
f 439 744 745
f 438 439 834
f 523 550 515
f 576 575 791
f 574 578 576
f 523 579 783
f 516 523 515
f 306 338 340
f 501 511 506
f 537 511 536
f 488 487 490
f 835 672 487
f 847 488 491
f 502 501 504
f 781 504 543
f 808 538 550
f 538 781 543
f 632 438 818
f 818 603 604
f 708 846 583
f 708 604 846
f 568 584 672
f 584 585 583
f 811 369 744
f 439 440 744
f 440 439 438
f 518 550 523
f 575 792 791
f 576 791 854
f 574 576 854
f 539 523 783
f 340 305 306
f 531 511 501
f 534 536 511
f 534 537 536
f 847 487 488
f 666 835 487
f 835 568 672
f 546 501 502
f 502 504 781
f 544 538 808
f 544 808 550
f 546 781 538
f 632 440 438
f 818 719 632
f 708 818 604
f 708 583 585
f 585 584 568
f 679 811 744
f 440 679 744
f 520 518 523
f 518 521 550
f 791 792 595
f 854 791 772
f 523 539 588
f 783 717 539
f 340 350 305
f 734 531 501
f 531 530 511
f 530 534 511
f 534 847 537
f 847 666 487
f 835 702 568
f 546 721 501
f 546 502 781
f 546 538 544
f 548 544 550
f 632 441 440
f 818 720 719
f 708 620 818
f 702 708 585
f 702 585 568
f 679 371 811
f 705 679 440
f 520 521 518
f 706 520 523
f 521 542 550
f 791 595 310
f 595 792 859
f 772 791 591
f 524 523 588
f 588 539 526
f 539 717 587
f 232 305 350
f 339 350 340
f 734 501 721
f 747 531 734
f 33 530 531
f 530 532 534
f 562 847 534
f 566 666 847
f 835 849 702
f 747 721 546
f 546 544 545
f 545 544 548
f 548 550 542
f 441 705 440
f 720 441 719
f 831 720 818
f 633 620 708
f 633 818 620
f 702 736 708
f 679 373 371
f 720 679 705
f 519 521 520
f 706 523 522
f 542 521 519
f 595 859 310
f 791 310 598
f 597 772 591
f 791 598 591
f 525 523 524
f 524 588 526
f 765 526 539
f 539 587 589
f 350 4 232
f 339 352 350
f 569 531 747
f 33 807 530
f 533 33 531
f 807 532 530
f 532 564 534
f 535 562 534
f 562 566 847
f 566 571 666
f 849 703 702
f 737 747 546
f 547 546 545
f 548 549 545
f 548 542 519
f 441 720 705
f 831 374 720
f 633 831 818
f 736 633 708
f 703 736 702
f 373 679 720
f 763 519 520
f 525 522 523
f 522 763 706
f 310 311 598
f 597 591 594
f 600 591 598
f 525 524 774
f 774 524 526
f 526 765 766
f 765 539 541
f 539 589 586
f 350 352 4
f 341 352 339
f 569 533 531
f 625 569 747
f 533 124 33
f 807 800 532
f 564 535 534
f 564 562 535
f 562 564 566
f 566 835 571
f 668 703 849
f 677 737 546
f 677 747 737
f 547 545 549
f 547 677 546
f 549 548 609
f 612 548 519
f 374 372 720
f 636 831 633
f 668 633 736
f 703 801 736
f 720 372 373
f 678 519 763
f 774 522 525
f 678 763 522
f 598 311 312
f 594 591 590
f 591 600 590
f 598 599 600
f 771 774 526
f 528 526 766
f 718 766 765
f 539 540 541
f 740 765 541
f 586 610 539
f 589 854 586
f 352 356 4
f 352 341 349
f 830 533 569
f 625 830 569
f 747 608 625
f 124 31 33
f 124 533 764
f 565 566 564
f 767 835 566
f 703 668 801
f 747 677 676
f 547 549 609
f 790 677 547
f 773 609 548
f 622 612 519
f 622 548 612
f 636 633 837
f 636 749 831
f 837 633 668
f 668 736 801
f 622 519 678
f 774 639 522
f 647 678 522
f 598 312 313
f 854 594 590
f 590 600 593
f 599 598 623
f 560 771 526
f 770 774 771
f 559 526 528
f 740 718 765
f 539 626 540
f 541 540 852
f 796 740 541
f 610 626 539
f 586 590 610
f 586 854 590
f 356 3 4
f 352 351 356
f 341 345 349
f 349 351 352
f 357 830 625
f 360 625 608
f 565 767 566
f 675 676 677
f 676 624 747
f 618 547 609
f 619 790 547
f 684 773 548
f 622 684 548
f 837 637 636
f 749 636 748
f 637 837 668
f 824 622 678
f 665 522 639
f 665 647 522
f 647 853 678
f 598 313 623
f 592 590 593
f 560 526 559
f 771 560 664
f 771 665 770
f 665 774 770
f 540 626 852
f 541 852 670
f 796 541 670
f 610 590 626
f 356 351 3
f 344 345 341
f 345 351 349
f 377 357 625
f 624 360 608
f 360 377 625
f 676 675 790
f 121 624 676
f 619 547 618
f 684 618 609
f 685 790 619
f 695 684 622
f 637 634 636
f 748 636 634
f 753 749 748
f 635 637 668
f 833 622 824
f 853 824 678
f 640 647 665
f 803 853 647
f 590 592 616
f 592 593 630
f 557 560 559
f 664 560 663
f 664 650 771
f 650 665 771
f 626 616 852
f 852 561 670
f 723 796 670
f 626 590 596
f 3 351 36
f 344 341 342
f 345 344 346
f 345 353 351
f 121 360 624
f 674 676 790
f 121 676 674
f 619 618 684
f 695 685 619
f 674 790 685
f 833 695 622
f 695 619 684
f 669 634 637
f 788 748 634
f 751 753 748
f 753 750 749
f 669 637 635
f 635 668 638
f 755 833 824
f 803 824 853
f 647 640 653
f 616 596 590
f 616 592 561
f 592 630 813
f 593 617 630
f 557 559 725
f 628 560 557
f 558 663 560
f 663 650 664
f 653 665 650
f 626 596 616
f 561 852 616
f 670 561 671
f 723 670 709
f 723 724 796
f 344 342 333
f 347 346 344
f 354 353 345
f 351 353 36
f 697 121 674
f 693 685 695
f 693 674 685
f 690 695 833
f 669 788 634
f 752 748 788
f 751 750 753
f 750 375 749
f 638 669 635
f 735 638 668
f 755 824 803
f 843 833 755
f 641 647 653
f 561 592 681
f 592 813 673
f 630 769 813
f 630 617 314
f 557 725 727
f 725 559 528
f 655 628 557
f 558 560 628
f 663 558 628
f 641 650 663
f 641 653 650
f 561 681 671
f 670 671 785
f 709 670 785
f 782 723 709
f 729 724 723
f 724 766 796
f 333 347 344
f 348 354 345
f 354 355 353
f 355 36 353
f 697 674 700
f 693 695 690
f 693 699 674
f 688 690 833
f 669 752 788
f 752 7 748
f 751 375 750
f 735 669 638
f 803 647 755
f 757 843 755
f 646 647 641
f 681 592 673
f 673 813 810
f 769 630 314
f 813 769 314
f 658 557 727
f 727 725 730
f 528 797 725
f 655 557 658
f 657 628 655
f 855 663 628
f 641 663 642
f 709 785 710
f 782 709 712
f 782 726 723
f 729 723 722
f 724 729 766
f 354 348 355
f 674 699 700
f 691 693 690
f 696 699 693
f 686 690 688
f 694 688 833
f 35 752 669
f 35 7 752
f 751 9 375
f 35 669 735
f 755 647 646
f 757 755 759
f 757 688 843
f 646 641 642
f 681 673 805
f 673 810 805
f 813 314 810
f 727 726 658
f 725 726 730
f 726 727 730
f 797 728 725
f 656 655 658
f 628 657 162
f 172 657 655
f 629 855 628
f 642 663 652
f 712 709 710
f 710 785 716
f 712 726 782
f 726 722 723
f 726 729 722
f 729 728 766
f 699 698 700
f 689 691 690
f 691 696 693
f 122 699 696
f 688 687 686
f 690 686 692
f 843 688 694
f 8 9 751
f 54 35 735
f 798 755 646
f 759 755 756
f 757 759 858
f 758 688 757
f 643 646 642
f 681 805 804
f 805 810 809
f 314 309 810
f 712 658 726
f 725 729 726
f 725 728 729
f 797 528 728
f 172 655 656
f 656 658 789
f 161 628 162
f 167 657 172
f 161 629 628
f 629 644 855
f 643 642 652
f 712 710 713
f 710 716 711
f 785 136 716
f 728 860 766
f 122 698 699
f 689 690 692
f 845 691 689
f 691 122 696
f 686 687 812
f 812 687 688
f 761 692 686
f 54 735 780
f 654 798 646
f 794 755 798
f 756 755 794
f 759 756 794
f 858 154 757
f 812 688 758
f 158 758 757
f 649 646 643
f 681 804 123
f 804 805 836
f 805 809 836
f 809 810 308
f 810 309 308
f 789 658 712
f 732 172 656
f 656 789 806
f 167 172 171
f 163 629 161
f 682 644 629
f 644 643 652
f 713 710 714
f 661 712 713
f 710 711 714
f 711 716 742
f 716 136 129
f 728 529 860
f 860 529 766
f 122 697 698
f 762 845 689
f 845 358 691
f 359 122 691
f 153 686 812
f 761 686 762
f 54 780 779
f 654 646 649
f 798 654 814
f 157 757 154
f 812 758 787
f 157 158 757
f 651 649 643
f 671 681 123
f 789 712 806
f 171 172 732
f 160 732 656
f 163 166 629
f 683 682 629
f 644 652 645
f 713 714 743
f 662 712 661
f 661 713 743
f 743 714 711
f 743 711 742
f 742 716 129
f 120 697 122
f 762 689 761
f 150 845 762
f 358 359 691
f 37 358 845
f 153 812 156
f 155 762 686
f 376 54 779
f 654 649 651
f 814 654 651
f 814 799 798
f 787 151 812
f 651 643 682
f 806 712 659
f 171 732 160
f 166 683 629
f 682 683 651
f 652 648 645
f 660 662 661
f 659 712 662
f 743 660 661
f 315 743 742
f 129 135 742
f 120 121 697
f 155 150 762
f 37 845 150
f 151 156 812
f 376 779 861
f 768 814 651
f 858 798 799
f 814 858 799
f 660 806 659
f 166 173 683
f 768 651 683
f 660 659 662
f 660 743 778
f 315 742 138
f 743 315 176
f 742 135 137
f 861 863 376
f 861 779 865
f 152 814 768
f 806 660 175
f 173 768 683
f 175 660 778
f 169 778 743
f 742 137 138
f 862 376 863
f 863 861 865
f 779 780 865
f 152 768 173
f 169 743 777
f 138 137 130
f 862 863 868
f 865 864 863
f 780 667 865
f 146 152 173
f 169 777 168
f 777 743 715
f 128 130 137
f 866 862 868
f 863 864 567
f 864 865 850
f 865 667 704
f 144 152 146
f 146 173 165
f 168 777 174
f 128 132 130
f 134 128 137
f 10 862 866
f 10 866 868
f 864 850 567
f 850 865 701
f 865 704 701
f 145 144 146
f 152 144 157
f 148 146 165
f 165 173 170
f 777 715 174
f 139 132 128
f 130 132 116
f 134 129 128
f 10 868 34
f 186 144 145
f 145 146 149
f 144 151 157
f 148 147 146
f 179 148 165
f 165 170 166
f 174 715 743
f 128 127 139
f 139 117 132
f 130 116 118
f 126 128 129
f 34 868 631
f 143 144 186
f 149 186 145
f 183 149 146
f 144 141 151
f 183 146 147
f 183 147 148
f 179 183 148
f 184 179 165
f 164 165 166
f 126 127 128
f 127 125 139
f 132 117 118
f 119 117 139
f 138 130 118
f 133 126 129
f 867 34 631
f 144 143 181
f 186 149 183
f 142 141 144
f 141 140 151
f 183 179 180
f 182 184 165
f 180 179 184
f 159 165 164
f 119 139 125
f 119 115 117
f 133 131 126
f 32 34 867
f 867 631 563
f 178 181 143
f 185 144 181
f 177 186 183

