v -0.228761 -0.314176875 -0.176858625
v -0.232334 -0.335230125 -0.18587925
v -0.23590675 -0.356369375 -0.193739
v -0.239551375 -0.377738125 -0.200700125
v -0.212782890625 -0.360730546875 -0.199492375
v -0.209256078125 -0.33989925 -0.19235428125
v -0.1788698125 -0.28277534375 -0.1721711875
v -0.177059484375 -0.26160421875 -0.16206496875
v -0.203431765625 -0.298501640625 -0.17536546875
v -0.200780046875 -0.277375828125 -0.1651618125
v -0.19961375 -0.252706875 -0.151468125
v -0.17438909375 -0.240199234375 -0.15065384375
v -0.151952 -0.222680859375 -0.14515125
v -0.12887375 -0.180772 -0.121394375
v -0.106879028125 -0.183920296875 -0.127944859375
v -0.1081853125 -0.202796265625 -0.14018671875
v -0.0861803078125 -0.200990171875 -0.141349609375
v -0.130806140625 -0.22352234375 -0.149107140625
v -0.153672265625 -0.244241546875 -0.157151671875
v -0.108316954687 -0.222089546875 -0.150828171875
v -0.085582625 -0.22011825 -0.15154209375
v -0.0631165921875 -0.218028625 -0.151769734375
v -0.0426005453125 -0.19681575 -0.141879546875
v -0.0643011421875 -0.198928734375 -0.141826578125
v -0.04389658125 -0.178607296875 -0.130903984375
v -0.042994675 -0.1455025 -0.105207125
v -0.061795 -0.14720175 -0.10478075
v -0.143269375 -0.182493625 -0.11890625
v -0.12057825 -0.16591625 -0.111019375
v -0.173093375 -0.214682 -0.13428625
v -0.1934565 -0.23473025 -0.141333875
v -0.2146925 -0.254272875 -0.146183625
v -0.221059375 -0.27205075 -0.15552375
v -0.1653845 -0.199021 -0.12492025
v -0.186955125 -0.216481 -0.129276125
v -0.0960968 -0.148662875 -0.10046955
v -0.0804424625 -0.147573375 -0.102469175
v -0.0250677375 -0.143299125 -0.104440875
v -0.0033724175 -0.15476175 -0.115133
v 0.01340555125 -0.155161125 -0.11537675
v 0.0317675125 -0.15329675 -0.112965125
v 0.0493881625 -0.15049975 -0.109062375
v 0.066387675 -0.14681025 -0.1035225875
v 0.0830032375 -0.142393625 -0.0965110625
v 0.099348025 -0.137911125 -0.0868301875
v 0.1140780125 -0.136721875 -0.078038875
v 0.1520525 -0.16290925 -0.092191825
v 0.163095625 -0.17643975 -0.102593325
v 0.12632425 -0.148069 -0.0891014
v 0.109638071875 -0.152609703125 -0.100374948438
v 0.14599975 -0.1803626875 -0.1151502125
v 0.18268675 -0.20852825 -0.124295375
v 0.19695125 -0.211211125 -0.116349125
v 0.207712125 -0.226254375 -0.12499425
v 0.217089125 -0.2444515 -0.13619775
v 0.239815375 -0.26526775 -0.133210375
v 0.25024025 -0.28156225 -0.140247625
v 0.2592805 -0.301053875 -0.149966125
v 0.26755075 -0.321039125 -0.15893875
v 0.233722453125 -0.283274078125 -0.15533309375
v 0.241675390625 -0.303068 -0.16400928125
v 0.27512 -0.341577875 -0.167123625
v 0.2883395 -0.3842015 -0.1812985
v 0.263126765625 -0.36459165625 -0.186432921875
v 0.256354375 -0.3437981875 -0.17956265625
v 0.269304828125 -0.38591721875 -0.192708796875
v 0.27465915625 -0.407502234375 -0.198260171875
v 0.29557025 -0.42506525 -0.1929545
v -0.2250625 -0.29319625 -0.166923875
v 0.27925125 -0.429126 -0.202997125
v 0.25250075 -0.414287625 -0.207947
v 0.24897090625 -0.389790484375 -0.201552828125
v 0.242814828125 -0.3688426875 -0.195863671875
v 0.23617915625 -0.348227046875 -0.18949165625
v 0.229167625 -0.327895140625 -0.1824023125
v 0.2144163125 -0.287739296875 -0.16662221875
v 0.198668171875 -0.248683171875 -0.148334890625
v 0.190234015625 -0.22980621875 -0.138041484375
v 0.171026828125 -0.235094265625 -0.14818471875
v 0.163064078125 -0.21618996875 -0.13813128125
v 0.15472334375 -0.197926578125 -0.127064125
v 0.12760484375 -0.1857734375 -0.12527084375
v 0.0922347203125 -0.158053796875 -0.109609757812
v 0.0743160109375 -0.163065828125 -0.116591432813
v 0.0558182171875 -0.166986203125 -0.1216985625
v 0.0615416640625 -0.184491828125 -0.133365203125
v 0.0167384925625 -0.172165828125 -0.127692140625
v -0.0032122915 -0.17425728125 -0.12926009375
v -0.0234290449375 -0.176437140625 -0.130359984375
v -0.0247558717187 -0.1593068125 -0.118068015625
v -0.021368247125 -0.194605125 -0.141425859375
v 0.0029626885 -0.21132525 -0.1503326875
v -0.0188089430625 -0.213631359375 -0.15127
v -0.0386298328125 -0.235519640625 -0.1605834375
v -0.10713456875 -0.262023875 -0.168941796875
v -0.1307373125 -0.284490453125 -0.17691046875
v -0.106378820313 -0.282702828125 -0.17690609375
v -0.130477625 -0.305458828125 -0.184855296875
v -0.155332703125 -0.30586753125 -0.18426609375
v -0.18003740625 -0.303570609375 -0.181316109375
v -0.1817918125 -0.323963609375 -0.18955678125
v -0.184756375 -0.34424640625 -0.196845875
v -0.158914609375 -0.3472183125 -0.199136125
v -0.160236625 -0.370795 -0.206502125
v -0.190274 -0.389078875 -0.2103665
v -0.216619296875 -0.381997625 -0.205780234375
v -0.199204125 -0.404096125 -0.213421625
v -0.22065275 -0.403558625 -0.21127975
v -0.240157 -0.397157 -0.206599375
v -0.15630953125 -0.326541046875 -0.1920724375
v -0.130685421875 -0.326839734375 -0.19235815625
v -0.105634667188 -0.30383825 -0.184431359375
v -0.105031928125 -0.325337234375 -0.19142721875
v -0.0803559015625 -0.301951703125 -0.18357465625
v -0.057487675 -0.278702 -0.175990265625
v -0.0361552440625 -0.255751796875 -0.168381203125
v -0.0596111015625 -0.2579405625 -0.16879340625
v -0.009498083125 -0.2738906875 -0.1746013125
v -0.030862776875 -0.297286265625 -0.181759390625
v -0.006209345625 -0.294568125 -0.18092465625
v 0.0185148715625 -0.291715421875 -0.180093765625
v 0.04765020625 -0.308934671875 -0.185260765625
v 0.0773341421875 -0.32520525 -0.19059303125
v 0.1303325 -0.338084875 -0.19613425
v 0.1610665 -0.350886625 -0.200144625
v 0.18583584375 -0.340441 -0.19514784375
v 0.221481203125 -0.374364765625 -0.202485265625
v 0.2277745 -0.395177046875 -0.207665671875
v 0.2136735 -0.41890525 -0.214607
v 0.260809875 -0.4293905 -0.208948625
v 0.23352075 -0.416479625 -0.211803625
v 0.20436975 -0.404245375 -0.212859625
v 0.178065625 -0.386218875 -0.210149625
v 0.199752546875 -0.3803520625 -0.20694640625
v -0.188572015625 -0.364851953125 -0.20345140625
v 0.186799125 -0.4028865 -0.213678
v -0.20610178125 -0.31920615625 -0.18429934375
v -0.13104571875 -0.243556625 -0.159415984375
v -0.129496140625 -0.20340275 -0.1373925625
v -0.15120925 -0.197858625 -0.1287965
v 0.21482834375 -0.3539465 -0.19654853125
v 0.207925328125 -0.33381459375 -0.189880390625
v 0.20081828125 -0.313750125 -0.182604984375
v 0.19359103125 -0.293784484375 -0.174788109375
v 0.17886896875 -0.320558390625 -0.188249421875
v 0.149708921875 -0.30767346875 -0.18501528125
v 0.14309 -0.28760746875 -0.17739809375
v 0.107515001563 -0.254281828125 -0.165644453125
v 0.114115103125 -0.274257078125 -0.173328828125
v 0.0852100875 -0.259977265625 -0.168821296875
v 0.120559865625 -0.2942923125 -0.1808313125
v 0.0970600171875 -0.300078453125 -0.18312278125
v 0.0726626171875 -0.30487990625 -0.184492265625
v 0.067490671875 -0.2847693125 -0.177926265625
v 0.0383894109375 -0.268413765625 -0.172651203125
v 0.0145142371875 -0.271238109375 -0.173721984375
v 0.0104512353125 -0.25094915625 -0.166863171875
v 0.0066154528125 -0.230924703125 -0.159148296875
v 0.0289012692187 -0.228483453125 -0.157770359375
v 0.0508889859375 -0.225577234375 -0.155791359375
v 0.07267595625 -0.221423421875 -0.152898125
v 0.0670100765625 -0.202719015625 -0.143640671875
v 0.04580578125 -0.206223484375 -0.14667528125
v 0.0204492294375 -0.190089796875 -0.138832203125
v 0.0879749390625 -0.197688453125 -0.139130578125
v 0.122307445312 -0.228760453125 -0.152672046875
v 0.12929075 -0.247947328125 -0.161398765625
v 0.136232234375 -0.267642203125 -0.169525015625
v 0.164897046875 -0.28062559375 -0.172726625
v 0.15778115625 -0.260820203125 -0.16444225
v 0.1505470625 -0.24134203125 -0.155720328125
v 0.143136203125 -0.22225890625 -0.146376875
v 0.13556034375 -0.203708515625 -0.136300359375
v 0.171926234375 -0.300568890625 -0.18066996875
v 0.078889834375 -0.240439671875 -0.16120946875
v 0.0565318296875 -0.245175453125 -0.163949875
v 0.100810325 -0.234851515625 -0.157484359375
v 0.0941682953125 -0.216057328125 -0.148785578125
v 0.115292348438 -0.210111046875 -0.14338975
v 0.108282151562 -0.192036125 -0.13321834375
v 0.0814647984375 -0.179977515625 -0.128411578125
v 0.0243998319375 -0.2089390625 -0.148808578125
v -0.0159321792187 -0.233271453125 -0.1600340625
v 0.0335648520312 -0.2483829375 -0.165674421875
v 0.06210225 -0.2648879375 -0.1711605
v 0.1266342125 -0.3144764375 -0.188045796875
v 0.0912598203125 -0.279959453125 -0.17606184375
v 0.19281990625 -0.360279078125 -0.201407171875
v 0.170441625 -0.36701875 -0.2050985
v 0.156212421875 -0.32772928125 -0.1922953125
v 0.102384482813 -0.320347125 -0.189799046875
v 0.141066875 -0.351536875 -0.20054225
v 0.08160355 -0.345717375 -0.196333625
v 0.058491575 -0.3473565 -0.195584125
v 0.00016143825 -0.336789 -0.19175875
v -0.0281556827969 -0.318413265625 -0.187562359375
v -0.00288256240625 -0.3155635 -0.186610328125
v -0.0790273671875 -0.323396359375 -0.190049109375
v -0.1039875875 -0.34714075 -0.197810625
v -0.128281125 -0.35108475 -0.20013675
v -0.025950774875 -0.339915875 -0.19271875
v -0.0775223125 -0.3450395 -0.19591725
v -0.0515281875 -0.34258225 -0.194078375
v -0.0554276796875 -0.299744109375 -0.182630859375
v -0.0534994234375 -0.321043640625 -0.188706125
v 0.026376650125 -0.333185875 -0.191357125
v 0.0492804875 -0.332633125 -0.191695375
v 0.1074217625 -0.34067425 -0.196221875
v 0.0431720484375 -0.288568875 -0.179173875
v 0.0225331328281 -0.312292484375 -0.1859695
v -0.0127159904687 -0.253408875 -0.167736953125
v -0.033515833125 -0.276394 -0.175342015625
v -0.138535875 -0.366815 -0.2048565
v -0.170658875 -0.38613775 -0.2105075
v -0.0818292375 -0.280801578125 -0.176558140625
v -0.15502809375 -0.285397546875 -0.1759458125
v -0.154595953125 -0.264943765625 -0.1670533125
v -0.131014640625 -0.263908640625 -0.168538734375
v -0.08326959375 -0.260051296875 -0.169009578125
v -0.0846460703125 -0.239745359375 -0.16075328125
v -0.0615131265625 -0.23767071875 -0.160815890625
v -0.0003424686875 -0.192356546875 -0.140350359375
v 0.04112300625 -0.1876739375 -0.136643390625
v 0.0364267984375 -0.170030421875 -0.125446671875
v 0.100646835937 -0.1745004375 -0.121802109375
v 0.186220640625 -0.273980875 -0.166419171875
v 0.178751703125 -0.254356890625 -0.15762971875
v 0.206695984375 -0.26803646875 -0.157839328125
v 0.2218991875 -0.307714171875 -0.1747580625
v 0.293811125 -0.405889625 -0.187147875
v 0.282055 -0.362701125 -0.17455175
v 0.24917621875 -0.323289875 -0.172080984375
v 0.22659675 -0.26091025 -0.143158125
v 0.119036928125 -0.168643625 -0.113210276562
v 0.13756525 -0.1609355 -0.0993950375
v 0.172706 -0.19341625 -0.11547775
v -0.00884251125 -0.14342225 -0.10485475
v -0.0844485390625 -0.164936828125 -0.1167412875
v -0.064312215625 -0.163509125 -0.118139375
v -0.0442113046875 -0.161520890625 -0.11866396875
v -0.0647359046875 -0.180678578125 -0.1306874375
v -0.085833953125 -0.182549234375 -0.12981775
v -0.0408937640625 -0.2158656875 -0.151672671875
v -0.107847920313 -0.2417295625 -0.160346640625
v -0.1055275125 -0.16272975 -0.1116798
v -0.2143795625 -0.29583475 -0.17131975
v -0.204727625 -0.3088845625 -0.1799689375
v -0.217556125 -0.31668775 -0.1807310625
v -0.2269355 -0.3036955 -0.1720415
v -0.207621 -0.3295433125 -0.1884351875
v -0.2209008125 -0.3375760625 -0.1892593125
v -0.2305545 -0.324692 -0.181495
v -0.2109778125 -0.3502771875 -0.1960344375
v -0.2244206875 -0.3585569375 -0.1967456875
v -0.2341175 -0.3457805 -0.18994
v -0.214668 -0.37131275 -0.2027448125
v -0.228156375 -0.3798853125 -0.2033610625
v -0.2377035 -0.367023 -0.197338
v -0.2186229375 -0.392759 -0.208587125
v -0.232166 -0.4014885 -0.209129
v -0.241494 -0.3885115 -0.2037885
v -0.19718825 -0.3421769375 -0.1948790625
v -0.18658725 -0.3544911875 -0.2002399375
v -0.200841625 -0.36287625 -0.2017190625
v -0.1906535625 -0.375355375 -0.2064469375
v -0.2047980625 -0.3840401875 -0.207715875
v -0.1941485 -0.321739625 -0.1872593125
v -0.1831365 -0.3340909375 -0.1933025625
v -0.1660360625 -0.263746875 -0.1650033125
v -0.154854625 -0.27517975 -0.1715871875
v -0.167102875 -0.284538125 -0.174457375
v -0.178074125 -0.2722219375 -0.167251125
v -0.1551535 -0.2956154375 -0.1801688125
v -0.167771625 -0.305102375 -0.1831413125
v -0.179461375 -0.2932264375 -0.176857125
v -0.19195425 -0.3012253125 -0.178710875
v -0.2021474375 -0.2879805 -0.1704104375
v -0.190077375 -0.280232 -0.169057875
v -0.199235 -0.2667423125 -0.1596775625
v -0.187518875 -0.25893075 -0.1583595625
v -0.16428125 -0.2426555625 -0.1543990625
v -0.1542149375 -0.2546713125 -0.1623045625
v -0.1758110625 -0.2509601875 -0.15658075
v -0.195694 -0.2453795 -0.148101
v -0.184037625 -0.237520375 -0.1461768125
v -0.1807865 -0.31380325 -0.1855553125
v -0.2231265 -0.2826275 -0.161386
v -0.2110323125 -0.2746745625 -0.160527375
v -0.218793 -0.2615275 -0.149433
v -0.207123 -0.253502 -0.1488455
v -0.1617913125 -0.2206745 -0.141602
v -0.152928625 -0.233533625 -0.151405375
v -0.1728538125 -0.22923075 -0.144139625
v -0.190994 -0.2239695 -0.1337565
v -0.1799885 -0.2156485 -0.1318
v -0.1395490625 -0.2025813125 -0.1348313125
v -0.1303105625 -0.2134628125 -0.143464
v -0.1415969375 -0.2235289375 -0.14754625
v -0.150710375 -0.2118165625 -0.138474875
v -0.13100675 -0.2335263125 -0.1544213125
v -0.1425203125 -0.244309375 -0.158650875
v -0.169269 -0.2067915 -0.129693
v -0.158309 -0.1984145 -0.126868
v -0.1131575 -0.1642255 -0.111381
v -0.1055553125 -0.17451675 -0.121137625
v -0.1170178125 -0.184006 -0.1262135
v -0.1247595 -0.1734955 -0.1163545
v -0.107723875 -0.1933256875 -0.1342853125
v -0.11899475 -0.2033746875 -0.1390976875
v -0.128339 -0.1933971875 -0.1307935
v -0.147252 -0.19024 -0.123966
v -0.1360935 -0.1815545 -0.120147
v -0.0941343375 -0.1652338125 -0.1155650875
v -0.0853926125 -0.1736721875 -0.1234630625
v -0.09642855 -0.1833709375 -0.1290824375
v -0.086117 -0.19166675 -0.1357696875
v -0.09720825 -0.201966625 -0.1408996875
v -0.08596243125 -0.2104849375 -0.14658825
v -0.09693769375 -0.2211305 -0.151270625
v -0.1083588 -0.212395375 -0.1456768125
v -0.119659625 -0.2229646875 -0.1501540625
v -0.0752628125 -0.1816465 -0.1303423125
v -0.06460600625 -0.1896785 -0.1364285625
v -0.07521823125 -0.1999713125 -0.1416495
v -0.0637847875 -0.2083954375 -0.1469235
v -0.07431253125 -0.2190835 -0.15170325
v -0.10813239375 -0.2318453125 -0.155713375
v -0.1194688125 -0.242680875 -0.1599663125
v -0.131056375 -0.2536951875 -0.164100625
v -0.1428865 -0.2647799375 -0.1680936875
v -0.08516014375 -0.2298573125 -0.156267625
v -0.09624136875 -0.240750125 -0.16060175
v -0.06235620625 -0.2277783125 -0.1564156875
v -0.0730589375 -0.2387180625 -0.160822875
v -0.0534081625 -0.197881125 -0.1419080625
v -0.041806625 -0.2062531875 -0.146901625
v -0.0519839875 -0.216956 -0.1517571875
v -0.03981233125 -0.2256193125 -0.1562520625
v -0.05004179375 -0.2366058125 -0.1607376875
v -0.03362309375 -0.177529125 -0.13071675
v -0.022473221 -0.1854028125 -0.13604425
v -0.03193954375 -0.195719875 -0.141726625
v -0.04332515625 -0.1875873125 -0.1365470625
v -0.020136971 -0.2040266875 -0.1464921875
v -0.02982496875 -0.21475775 -0.15152325
v -0.05427400625 -0.1796613125 -0.1308844375
v -0.034426775 -0.1604225625 -0.1184814375
v -0.02421287125 -0.1677255 -0.1243856875
v -0.04423094375 -0.169915125 -0.124950125
v -0.0647273625 -0.1719628125 -0.1245611875
v -0.05420271875 -0.162561 -0.1185266875
v -0.024989218125 -0.15122 -0.111353625
v -0.043720725 -0.1534346875 -0.112024
v -0.0340033 -0.1444185 -0.104951
v -0.0632223 -0.1552954375 -0.1115115625
v -0.0523146 -0.1464635 -0.1051795
v -0.07445099375 -0.1643315 -0.1175718125
v -0.08265729375 -0.156244375 -0.1096880875
v -0.0712678 -0.1476175 -0.1039235
v -0.10071855 -0.1557355 -0.1061562
v -0.08902845 -0.146932 -0.1002792
v -0.006146195 -0.149075 -0.1099925
v -0.015105336875 -0.1582144375 -0.117512625
v -0.01591525 -0.142232 -0.1037065
v 0.01504181 -0.163596625 -0.1216203125
v 0.006797364 -0.1731984375 -0.1285379375
v -0.0044631025 -0.1655694375 -0.123244375
v 0.003932705 -0.156054 -0.1162895
v -0.013289936 -0.1753416875 -0.1298709375
v 0.034093025 -0.1615969375 -0.1193009375
v 0.02661055625 -0.171160125 -0.126710375
v 0.0226825 -0.1542925 -0.1143095
v 0.05265978125 -0.1586650625 -0.115445375
v 0.0462004625 -0.1686258125 -0.1237550625
v 0.04066455 -0.1520225 -0.111221
v 0.07041030625 -0.154892 -0.11015023125
v 0.06516673125 -0.1651515 -0.1193401875
v 0.0579529 -0.1487585 -0.1064745
v 0.08767941875 -0.150171125 -0.10312953125
v 0.0833360625 -0.1606733125 -0.11336379375
v 0.0747214 -0.1446665 -0.10027185
v 0.1045586625 -0.1451601875 -0.0936542625
v 0.10101981875 -0.155287125 -0.1052818125
v 0.09128235 -0.140058 -0.092029
v 0.1204845 -0.141247 -0.08193235
v 0.11803619375 -0.1502579375 -0.09488415625
v 0.10698955 -0.1362045 -0.08091915
v 0.1546476875 -0.1782875 -0.1090534125
v 0.1413741875 -0.171886625 -0.1088529125
v 0.1447985 -0.161909 -0.0957663
v 0.1579675 -0.168448 -0.0957018
v 0.1638016875 -0.1955724375 -0.12144475
v 0.1504298125 -0.189049625 -0.1212144375
v 0.167989 -0.184799 -0.1091635
v 0.1279466875 -0.165949375 -0.10812154375
v 0.114455025 -0.160460125 -0.10688885625
v 0.1317125 -0.155477 -0.09604785
v 0.109939025 -0.171549625 -0.1177660625
v 0.0965482625 -0.1661468125 -0.1158135
v 0.1452969375 -0.200676625 -0.13198825
v 0.1316449375 -0.194653875 -0.130914625
v 0.1369518125 -0.18289275 -0.1205204375
v 0.1234111875 -0.177092375 -0.1193535
v 0.202735 -0.2174535 -0.1190565
v 0.1991044375 -0.2278945 -0.13173275
v 0.18588925 -0.22054975 -0.132649125
v 0.189752 -0.209887 -0.12032
v 0.180838125 -0.232261125 -0.1434906875
v 0.167084 -0.2255804375 -0.1432603125
v 0.17252075 -0.213576 -0.13298975
v 0.1589393125 -0.2069726875 -0.1327178125
v 0.177305 -0.202182 -0.1216015
v 0.2079926875 -0.2464543125 -0.1424775
v 0.1944985625 -0.239183375 -0.1432788125
v 0.2124915 -0.235254 -0.1307145
v 0.21636525 -0.265615 -0.15235
v 0.202728125 -0.2583075625 -0.1531835
v 0.221521 -0.253846 -0.1414245
v 0.242200125 -0.2822035 -0.14807525
v 0.2295531875 -0.273531625 -0.150679125
v 0.233126 -0.263117 -0.138162
v 0.2453715 -0.272164 -0.1350775
v 0.2506469375 -0.3018538125 -0.1572325625
v 0.237760875 -0.2931171875 -0.15976225
v 0.2548675 -0.291219 -0.145205
v 0.2584874375 -0.32198025 -0.165715
v 0.2454729375 -0.3131335625 -0.168116875
v 0.2635065 -0.3109865 -0.1545475
v 0.2658423125 -0.3425161875 -0.17352125
v 0.2528079375 -0.3335129375 -0.1758975625
v 0.2714185 -0.331234 -0.1631295
v 0.232027875 -0.3051106875 -0.1698065625
v 0.2181851875 -0.297696625 -0.1707603125
v 0.2243696875 -0.2852033125 -0.161451375
v 0.2105893125 -0.2778498125 -0.1623170625
v 0.2393691875 -0.3253365 -0.1776264375
v 0.2255615625 -0.3177843125 -0.1786421875
v 0.2726955625 -0.363461375 -0.180666125
v 0.2598018125 -0.3541410625 -0.1830723125
v 0.2786655 -0.3520775 -0.170925
v 0.28432425 -0.4065450625 -0.1929270625
v 0.2720900625 -0.3966940625 -0.1955893125
v 0.2789218125 -0.384895375 -0.187188125
v 0.2911815 -0.395031 -0.184344
v 0.26630575 -0.3752000625 -0.189650875
v 0.2852885 -0.373417 -0.178022
v 0.25928925 -0.387595 -0.1974915625
v 0.245966625 -0.3792685625 -0.198801375
v 0.25313925 -0.366462 -0.1915045625
v 0.2395494375 -0.3584959375 -0.1927653125
v 0.2464459375 -0.3457675625 -0.184891625
v 0.2327126875 -0.33803475 -0.1860280625
v 0.264637625 -0.409062875 -0.202701125
v 0.25179375 -0.400425375 -0.2040924375
v 0.296225 -0.4167615 -0.1896995
v 0.288994 -0.4282195 -0.1978685
v 0.2770098125 -0.418313375 -0.200689125
v 0.269097 -0.4306865 -0.206896
v 0.2566685 -0.4217275 -0.2085385
v 0.2306898125 -0.405791375 -0.2098145625
v 0.238445625 -0.3923654375 -0.204909
v 0.2441345 -0.413661 -0.2094555
v 0.2246904375 -0.3847105625 -0.205197125
v 0.2322353125 -0.371504 -0.199492875
v 0.218190375 -0.3641125 -0.1996064375
v 0.2256161875 -0.350979375 -0.19334625
v 0.2114055 -0.3438595 -0.1932994375
v 0.2186728125 -0.3307408125 -0.1864595625
v 0.2043913125 -0.323774875 -0.186312625
v 0.211484125 -0.31061075 -0.1789974375
v 0.1972210625 -0.303750125 -0.1787663125
v 0.2041368125 -0.290630125 -0.17103775
v 0.1899195625 -0.2838628125 -0.170661875
v 0.1966114375 -0.270868875 -0.1624788125
v 0.18250825 -0.2641344375 -0.1620915625
v 0.1888875 -0.251364125 -0.1533475625
v 0.1749203125 -0.244681625 -0.1529843125
v 0.1683618125 -0.2575211875 -0.1612955625
v 0.154183375 -0.2510354375 -0.160147625
v 0.1609101875 -0.2381406875 -0.1522279375
v 0.146861625 -0.2317426875 -0.1511329375
v 0.1532438125 -0.219117375 -0.142551375
v 0.1393799375 -0.2129121875 -0.1414435625
v 0.1255514375 -0.2069081875 -0.1400836875
v 0.1118243 -0.2010098125 -0.1384466875
v 0.1180598125 -0.1889005 -0.1295081875
v 0.10455723125 -0.1831649375 -0.1276369375
v 0.09115421875 -0.177329125 -0.125331625
v 0.0779878625 -0.1714238125 -0.12265975
v 0.0715822 -0.1823874375 -0.1310989375
v 0.0587502875 -0.175619 -0.127692125
v 0.05137843125 -0.186223625 -0.135181875
v 0.03877709375 -0.1787305 -0.13121225
v 0.08478575625 -0.1887385 -0.1339033125
v 0.0775447875 -0.2003428125 -0.141564375
v 0.06427801875 -0.1935330625 -0.1386569375
v 0.05643404375 -0.2046305 -0.1453115625
v 0.04344363125 -0.1968375 -0.1417858125
v 0.03080589375 -0.188933875 -0.1378441875
v 0.01855602275 -0.1810024375 -0.1334205
v 0.010075149 -0.1912280625 -0.139655375
v -0.0018359635 -0.1831899375 -0.1349525
v -0.01082974475 -0.193483125 -0.1409538125
v 0.00125984275 -0.20174625 -0.1454824375
v -0.0078770285 -0.2124856875 -0.150874
v 0.0223729415 -0.19941125 -0.1439540625
v 0.0137021215 -0.2101545625 -0.1496435
v 0.02660257375 -0.2186455 -0.15341825
v 0.017795808125 -0.22973075 -0.1585265
v 0.00475778625 -0.22105975 -0.1548850625
v -0.004633429375 -0.2321075625 -0.1596424375
v -0.01741371375 -0.223383 -0.1557860625
v -0.0272621375 -0.2344085 -0.1603483125
v -0.014345235625 -0.2432865625 -0.1640076875
v -0.0244171575 -0.254599 -0.1680878125
v -0.037413775 -0.24557225 -0.1646104375
v -0.04787294375 -0.2568601875 -0.16861325
v -0.06059685 -0.2477320625 -0.164924875
v -0.0839914875 -0.249825625 -0.1649875
v -0.0951864625 -0.261051375 -0.1690119375
v -0.1075063375 -0.2518091875 -0.1647421875
v -0.0825535875 -0.2703755625 -0.1728588125
v -0.09410703125 -0.2817683125 -0.176765375
v -0.1067595375 -0.2723133125 -0.17298725
v -0.11857675 -0.283629 -0.1769725
v -0.1308964375 -0.274163625 -0.1727938125
v -0.1190873125 -0.262983125 -0.16880275
v -0.10598999375 -0.29321775 -0.180725875
v -0.1180910625 -0.3047250625 -0.184723875
v -0.1305728125 -0.2949194375 -0.1809333125
v -0.1428964375 -0.305913 -0.1847700625
v -0.142897 -0.2852308125 -0.176665875
v -0.0810823125 -0.2913325 -0.1801305
v -0.09300635625 -0.3029249375 -0.1840333125
v -0.10535445 -0.3145445 -0.1880073125
v -0.1178923125 -0.3262238125 -0.1919916875
v -0.1305264375 -0.316116875 -0.188669375
v -0.143493375 -0.326957625 -0.1924321875
v -0.1556675625 -0.3161879375 -0.1882475625
v -0.16912725 -0.3255535625 -0.1911375625
v -0.1574100625 -0.33689125 -0.1956999375
v -0.1720195 -0.3459449375 -0.1982669375
v -0.160768625 -0.357502 -0.2023870625
v -0.1759491875 -0.3665155625 -0.2047150625
v -0.13092075 -0.3375735625 -0.19590425
v -0.1453786875 -0.3480123125 -0.1994473125
v -0.133404 -0.359146 -0.202592
v -0.1493455 -0.36879 -0.2057
v -0.1805585 -0.387617 -0.2104835
v -0.165613 -0.378554 -0.2086425
v -0.208749 -0.40542 -0.212954
v -0.1947675 -0.3966105 -0.2119525
v -0.1045496875 -0.3362171875 -0.1946645625
v -0.1174985 -0.347933 -0.198721
v -0.07969309375 -0.3126425625 -0.186889375
v -0.09202215 -0.324407375 -0.1907591875
v -0.0782922 -0.334204375 -0.1930283125
v -0.09067985 -0.346158 -0.1968715
v -0.06961329375 -0.27977875 -0.1762921875
v -0.05644061875 -0.2891915625 -0.1793763125
v -0.067833075 -0.300885125 -0.1831003125
v -0.0544581 -0.310360625 -0.185754375
v -0.06621196875 -0.3222663125 -0.1893585
v -0.03484532625 -0.2660329375 -0.171943875
v -0.04548085625 -0.2775735 -0.175675125
v -0.05855960625 -0.2682744375 -0.17247225
v -0.03219857625 -0.2868133125 -0.1786191875
v -0.04312951875 -0.2985475625 -0.182186875
v -0.0714105625 -0.2590093125 -0.168931125
v -0.01110755125 -0.2636189375 -0.171251875
v -0.02151560125 -0.27516425 -0.1749861875
v -0.001109049375 -0.2521885 -0.1673325
v 0.01247293625 -0.2610653125 -0.1703740625
v 0.00251879875 -0.27257975 -0.1741810625
v 0.0165182675 -0.281462125 -0.176965125
v 0.00615086125 -0.293164 -0.1805126875
v -0.00786575125 -0.2841980625 -0.177834125
v -0.01855163875 -0.295951 -0.1813394375
v -0.00452765625 -0.3050279375 -0.18384725
v -0.0155292561875 -0.3170328125 -0.1870509375
v -0.02947765625 -0.30780825 -0.184746625
v -0.0408132 -0.31975475 -0.18811075
v 0.02053389375 -0.3019760625 -0.1830981875
v 0.0098357563125 -0.3139554375 -0.186274375
v 0.026467425 -0.2698724375 -0.173220625
v 0.04080630625 -0.278469875 -0.1759638125
v 0.030868575 -0.2901991875 -0.179658125
v 0.0454422125 -0.298726125 -0.1822696875
v 0.035117 -0.3106585 -0.185622125
v 0.05538536875 -0.2867780625 -0.178609125
v 0.07012225625 -0.2947963125 -0.1812496875
v 0.0601956 -0.3070021875 -0.1849139375
v 0.0750613875 -0.3150160625 -0.187600625
v 0.06465175 -0.327435375 -0.1907919375
v 0.0498294375 -0.3191875625 -0.188156625
v 0.0392423 -0.331364 -0.1911805
v 0.0244703875625 -0.322713125 -0.1886988125
v 0.08496069375 -0.3025866875 -0.183906375
v 0.0997751125 -0.3101985625 -0.1865055625
v 0.08993049375 -0.322871625 -0.1902849375
v 0.10492126875 -0.3305076875 -0.193026875
v 0.09455355 -0.343266 -0.196361
v 0.07949645625 -0.3354479375 -0.19348775
v 0.06866045 -0.3481595 -0.1962835
v 0.05386425 -0.3400725 -0.193609
v 0.1383055625 -0.311156375 -0.1866939375
v 0.1529454375 -0.3177196875 -0.188724125
v 0.1445400625 -0.3312808125 -0.1937928125
v 0.1295884375 -0.3245810625 -0.1915395625
v 0.15958475 -0.3376594375 -0.195657625
v 0.150999 -0.351249 -0.2003625
v 0.1357465 -0.3449045 -0.1984285
v 0.1146397875 -0.317544375 -0.18906675
v 0.1201195 -0.337811 -0.1957725
v 0.167641375 -0.3241313125 -0.1904541875
v 0.182348375 -0.33051325 -0.1917834375
v 0.174577375 -0.3439361875 -0.197171375
v 0.1893275 -0.35034975 -0.1983624375
v 0.1816551875 -0.3636206875 -0.2033268125
v 0.166793 -0.3572955 -0.202144
v 0.18993725 -0.317082 -0.185661
v 0.19696575 -0.3370575625 -0.192747
v 0.2038869375 -0.357050375 -0.199191625
v 0.217018625 -0.3980825 -0.2099284375
v 0.2031045625 -0.3905634375 -0.209479875
v 0.210633 -0.3773438125 -0.2049339375
v 0.196309625 -0.3702685625 -0.204262
v 0.2226105 -0.4193755 -0.213731
v 0.2089795 -0.4116255 -0.213801
v 0.181583 -0.396058 -0.2123725
v 0.1889016875 -0.3833004375 -0.2086301875
v 0.1956855 -0.403474 -0.2133295
v 0.1742755 -0.3765995 -0.207746
v 0.1754015 -0.3105683125 -0.184526
v 0.1828388125 -0.2971110625 -0.1779634375
v 0.1684234375 -0.290586 -0.176738125
v 0.175632625 -0.277241125 -0.169811125
v 0.160899375 -0.304117 -0.1830139375
v 0.1540635625 -0.28411025 -0.175237625
v 0.146428 -0.2976334375 -0.18124
v 0.1236359125 -0.3043714375 -0.184477125
v 0.1319341875 -0.291029625 -0.179262
v 0.1470730625 -0.264217125 -0.1671669375
v 0.161351 -0.270693625 -0.168631625
v 0.13968225 -0.2776034375 -0.173489375
v 0.1173724 -0.2842653125 -0.177106125
v 0.125253375 -0.2710256875 -0.171571875
v 0.11162578125 -0.2318685625 -0.1552365625
v 0.1258050625 -0.2382869375 -0.157108625
v 0.1184631875 -0.251177125 -0.1636771875
v 0.10417064375 -0.2444848125 -0.161626875
v 0.1327674375 -0.257744625 -0.1655161875
v 0.1108295625 -0.26423425 -0.1695266875
v 0.1027960375 -0.277225875 -0.1748171875
v 0.0882679 -0.2699335625 -0.1724705625
v 0.09644756875 -0.2572139375 -0.167347875
v 0.082066175 -0.25014225 -0.165082125
v 0.08989889375 -0.23772125 -0.159471625
v 0.108930775 -0.297311125 -0.182108
v 0.09420605625 -0.29000325 -0.1796270625
v 0.07947009375 -0.2824851875 -0.1770876875
v 0.06481823125 -0.2748029375 -0.174575375
v 0.07375175625 -0.262575625 -0.1700985625
v 0.05934004375 -0.2550150625 -0.167645125
v 0.06778149375 -0.2429686875 -0.162709
v 0.05029124375 -0.266793125 -0.1719879375
v 0.0450988 -0.246927125 -0.16491175
v 0.0359657875 -0.2583851875 -0.16924775
v 0.022012433125 -0.249702125 -0.1663176875
v 0.031216020625 -0.2384058125 -0.1618521875
v 0.008506005 -0.2408950625 -0.163131125
v 0.03511438125 -0.2076441875 -0.1478300625
v 0.04827626875 -0.2158341875 -0.1513475625
v 0.03992546875 -0.2271405625 -0.1568731875
v 0.053677825 -0.23536025 -0.159995375
v 0.0697885625 -0.212026 -0.14838975
v 0.0618124 -0.223668625 -0.15448125
v 0.0757347375 -0.2308806875 -0.15715975
v 0.09105655 -0.2068090625 -0.144089
v 0.0834599 -0.2188503125 -0.15099725
v 0.09744788125 -0.22539025 -0.1532273125
v 0.09823729375 -0.1949425 -0.1363871875
v 0.10480520625 -0.2131525 -0.1462700625
v 0.1328175 -0.22551525 -0.149734625
v 0.11879496875 -0.219364875 -0.1481153125
v 0.1399963125 -0.2446399375 -0.158761875
v 0.0133105005 -0.3350195 -0.191518
v -0.001335943375 -0.3261608125 -0.1892223125
v -0.0270093249375 -0.3291353125 -0.1901880625
v -0.0129529495 -0.3384185 -0.192175
v -0.03875015 -0.341289 -0.193342
v -0.05251919375 -0.3317956875 -0.191445375
v -0.064462 -0.34384 -0.1949615
v -0.215963 -0.3062815 -0.17616875
v -0.2192045 -0.3271225 -0.1851115
v -0.22263775 -0.34803875 -0.19312375
v -0.226255 -0.369177 -0.200166
v -0.2301405 -0.39066825 -0.20630725
v -0.1989575 -0.352476 -0.198399
v -0.202804 -0.373412 -0.20482525
v -0.1955705 -0.33194475 -0.19117325
v -0.1666475 -0.27416925 -0.1698405
v -0.167426 -0.29484225 -0.178886
v -0.1910415 -0.2907845 -0.1740175
v -0.188911 -0.2696005 -0.163855
v -0.16524475 -0.25328225 -0.15991375
v -0.1858775 -0.2482635 -0.15252225
v -0.1929665 -0.31152175 -0.183115
v -0.21276025 -0.2852785 -0.16607925
v -0.209123 -0.26408475 -0.15474425
v -0.16315325 -0.231747 -0.1482865
v -0.18205 -0.226623 -0.139157
v -0.1407495 -0.21306925 -0.141428
v -0.14216025 -0.2339525 -0.153304
v -0.160126 -0.209556 -0.1343715
v -0.115232 -0.17415425 -0.11894025
v -0.11822625 -0.19370375 -0.13291475
v -0.13792675 -0.192073 -0.12763825
v -0.09558025 -0.17428675 -0.12255825
v -0.09696725 -0.192596 -0.1351885
v -0.09716345 -0.2114875 -0.14623925
v -0.11946075 -0.213146 -0.144816
v -0.07533375 -0.19069 -0.13617425
v -0.074843475 -0.20945025 -0.14680875
v -0.11962675 -0.23277775 -0.15519625
v -0.142758 -0.254569 -0.1635365
v -0.096635825 -0.2308675 -0.15605725
v -0.07372845 -0.22882775 -0.15638425
v -0.052764575 -0.2073325 -0.14695525
v -0.051058875 -0.2267085 -0.1563705
v -0.03285725 -0.18650325 -0.13637425
v -0.030934725 -0.20514925 -0.14676025
v -0.053922275 -0.188645 -0.136559
v -0.034172325 -0.16882725 -0.12476775
v -0.05443045 -0.17096725 -0.12486075
v -0.034308275 -0.15234 -0.111812
v -0.053401925 -0.15444075 -0.111921
v -0.073052275 -0.155936 -0.11080425
v -0.0918028 -0.1561025 -0.1080521
v -0.0155881975 -0.150138 -0.1107175
v 0.00533359 -0.164562 -0.1224965
v -0.01431086 -0.16663175 -0.123876
v 0.02462415 -0.1626605 -0.12060375
v 0.04346085 -0.16024925 -0.117566
v 0.061621975 -0.156892 -0.1129855
v 0.07908765 -0.152627 -0.106903425
v 0.096211025 -0.1475985 -0.098713
v 0.112598525 -0.14310725 -0.08795375
v 0.14977725 -0.1700295 -0.10247665
v 0.1593015 -0.1868205 -0.115363
v 0.12313125 -0.1579045 -0.101606175
v 0.10558885 -0.163272 -0.11162025
v 0.14118975 -0.191694 -0.12636975
v 0.1325455 -0.174295 -0.114432
v 0.19446125 -0.21885125 -0.1260725
v 0.17672075 -0.22284975 -0.138347
v 0.16821125 -0.20448725 -0.127338
v 0.2036155 -0.23709575 -0.1372085
v 0.21223425 -0.2559695 -0.1475175
v 0.237709 -0.272618 -0.143175
v 0.2465075 -0.291958 -0.15275
v 0.25463425 -0.31186325 -0.16155625
v 0.2622245 -0.33219875 -0.16970275
v 0.228241 -0.29511675 -0.165709
v 0.22041075 -0.2753645 -0.1569965
v 0.2357335 -0.315191 -0.17378125
v 0.26933775 -0.35293 -0.17717225
v 0.28172875 -0.395708 -0.19016525
v 0.2759005 -0.3741315 -0.18401325
v 0.2562975 -0.37697675 -0.19458125
v 0.2498495 -0.35606925 -0.188278
v 0.24294625 -0.335526 -0.1813355
v 0.2620795 -0.39829825 -0.200219
v 0.28671125 -0.41738225 -0.195456
v 0.266933 -0.41986525 -0.2048755
v 0.2413295 -0.40298025 -0.20724775
v 0.235404 -0.3818825 -0.20230825
v 0.22897025 -0.3612025 -0.19651025
v 0.2221805 -0.340836 -0.18998675
v 0.21510275 -0.32066225 -0.1827925
v 0.20783075 -0.30059675 -0.17508625
v 0.2003965 -0.28072075 -0.16683075
v 0.19278325 -0.26107475 -0.1579955
v 0.18489975 -0.24176275 -0.14850175
v 0.1646615 -0.24778775 -0.1568335
v 0.15710725 -0.228571 -0.14748325
v 0.149311 -0.2098185 -0.13738425
v 0.121859 -0.1978295 -0.13493475
v 0.11409125 -0.1801165 -0.123757
v 0.0873488 -0.16889125 -0.11948175
v 0.06846285 -0.173663 -0.12538225
v 0.0488267 -0.177302 -0.12963225
v 0.07459665 -0.19128575 -0.1364775
v 0.053894525 -0.1953365 -0.14038825
v 0.028686475 -0.179923 -0.13244175
v 0.008386916 -0.18209175 -0.13424825
v -0.012127734 -0.184296 -0.13556075
v -0.009401459 -0.2028915 -0.1460585
v 0.011834966 -0.2005935 -0.14478725
v 0.01571237 -0.21987775 -0.15422375
v -0.006290605 -0.22223025 -0.1553995
v -0.02859245 -0.22451175 -0.15606375
v -0.025859 -0.24444525 -0.1643435
v -0.0489853 -0.24666375 -0.16480125
v -0.09573785 -0.25083 -0.16490675
v -0.0946484 -0.2713585 -0.172957
v -0.11884275 -0.27325975 -0.172952
v -0.1192925 -0.25276975 -0.164488
v -0.11830725 -0.29412025 -0.180901
v -0.142862 -0.2955295 -0.18077025
v -0.142919 -0.27499075 -0.17245525
v -0.093545725 -0.29229775 -0.1804605
v -0.117985 -0.315435 -0.1884275
v -0.14308275 -0.3164075 -0.188667
v -0.1682945 -0.31533925 -0.18723825
v -0.1704025 -0.335746 -0.1948
v -0.1738775 -0.35617875 -0.20157975
v -0.14420075 -0.337508 -0.19603675
v -0.147201 -0.35842425 -0.2026305
v -0.17820725 -0.3770235 -0.2076495
v -0.20677725 -0.39471775 -0.21038925
v -0.11771625 -0.33706525 -0.19539625
v -0.0925308 -0.313628 -0.18747475
v -0.0913835 -0.3352635 -0.193861
v -0.068707625 -0.29029425 -0.1797615
v -0.067020375 -0.31154525 -0.18631075
v -0.046688275 -0.267173 -0.17222575
v -0.04430025 -0.288033 -0.17899775
v -0.07051935 -0.26934475 -0.17269025
v -0.02297073 -0.26484675 -0.17161975
v -0.0722717 -0.2487895 -0.16499025
v 0.000701145 -0.262354 -0.17083875
v 0.00432887 -0.282849 -0.1774115
v -0.020047655 -0.28552725 -0.178234
v -0.0170123 -0.30645075 -0.18427875
v -0.041951725 -0.30911325 -0.18523575
v 0.008004275 -0.303527 -0.18346725
v 0.0286845 -0.2800195 -0.176494
v 0.0330116 -0.30040325 -0.1826995
v 0.05783055 -0.29686225 -0.18180725
v 0.06247815 -0.3171855 -0.1879085
v 0.0371882 -0.32099175 -0.18843
v 0.0875062 -0.31270975 -0.187148
v 0.092264575 -0.33306175 -0.19334275
v 0.06668995 -0.337775 -0.19356525
v 0.14141325 -0.32123125 -0.1903025
v 0.147749 -0.341278 -0.19711875
v 0.1173935 -0.327677 -0.19243675
v 0.171087 -0.33405675 -0.19389375
v 0.1780905 -0.353791 -0.20033675
v 0.1934615 -0.32707225 -0.189283
v 0.2004435 -0.347035 -0.196054
v 0.21390675 -0.38764475 -0.20756325
v 0.20728825 -0.3671495 -0.2021475
v 0.21987775 -0.40868725 -0.2119225
v 0.1923355 -0.393345 -0.21102025
v 0.18530025 -0.37342475 -0.2060785
v 0.1863995 -0.30708975 -0.18188
v 0.17924575 -0.2871615 -0.17393475
v 0.1642625 -0.3141385 -0.186803
v 0.157501 -0.2941055 -0.17916075
v 0.135154 -0.30108325 -0.18301325
v 0.15058325 -0.2741375 -0.17123875
v 0.12862175 -0.28101325 -0.17544175
v 0.11505 -0.241447 -0.159524
v 0.12186575 -0.2610585 -0.16767175
v 0.0996475 -0.2671855 -0.171116
v 0.093184575 -0.24738825 -0.1634715
v 0.10590485 -0.287258 -0.17849275
v 0.0766391 -0.27249975 -0.17362125
v 0.070789825 -0.25273175 -0.166483
v 0.11183065 -0.3074145 -0.18562825
v 0.082262975 -0.292513 -0.1805345
v 0.052862425 -0.276762 -0.17534025
v 0.04770135 -0.2568505 -0.1685395
v 0.0242254 -0.25976625 -0.1698515
v 0.0198825325 -0.23968125 -0.16255025
v -0.0028967425 -0.2421 -0.16361025
v 0.037457825 -0.21732425 -0.15247125
v 0.04248965 -0.237016 -0.1610215
v 0.05905605 -0.2140955 -0.150012
v 0.06475495 -0.233287 -0.158711
v 0.0804652 -0.2095435 -0.146406
v 0.0866309 -0.22822575 -0.155333
v 0.0329228 -0.1981775 -0.142964
v 0.094780675 -0.18603525 -0.13098775
v 0.1015332 -0.20398375 -0.141467
v 0.12919975 -0.21614125 -0.145002
v 0.13641825 -0.23501675 -0.1543265
v 0.108190125 -0.22244225 -0.15083925
v 0.143546 -0.254379 -0.163025
v 0.17201175 -0.26735 -0.16560975
v 0.01159195025 -0.32446675 -0.18893325
v -0.01420212475 -0.3277035 -0.189655
v -0.039760275 -0.33049675 -0.19077825
v -0.0653503 -0.33304 -0.19220925
v -0.0750782 -0.172881 -0.124113
f 69 246 694 249
f 9 247 694 246
f 137 248 694 247
f 1 249 694 248
f 137 250 695 248
f 6 251 695 250
f 2 252 695 251
f 1 248 695 252
f 6 253 696 251
f 5 254 696 253
f 3 255 696 254
f 2 251 696 255
f 5 256 697 254
f 106 257 697 256
f 4 258 697 257
f 3 254 697 258
f 106 259 698 257
f 108 260 698 259
f 109 261 698 260
f 4 257 698 261
f 6 262 699 253
f 102 263 699 262
f 135 264 699 263
f 5 253 699 264
f 135 265 700 264
f 105 266 700 265
f 106 256 700 266
f 5 264 700 256
f 137 267 701 250
f 101 268 701 267
f 102 262 701 268
f 6 250 701 262
f 8 269 702 272
f 217 270 702 269
f 216 271 702 270
f 7 272 702 271
f 216 273 703 271
f 99 274 703 273
f 100 275 703 274
f 7 271 703 275
f 100 276 704 275
f 9 277 704 276
f 10 278 704 277
f 7 275 704 278
f 10 279 705 278
f 11 280 705 279
f 8 272 705 280
f 7 278 705 272
f 12 281 706 283
f 19 282 706 281
f 217 269 706 282
f 8 283 706 269
f 11 284 707 280
f 31 285 707 284
f 12 283 707 285
f 8 280 707 283
f 100 286 708 276
f 101 267 708 286
f 137 247 708 267
f 9 276 708 247
f 69 287 709 246
f 33 288 709 287
f 10 277 709 288
f 9 246 709 277
f 33 289 710 288
f 32 290 710 289
f 11 279 710 290
f 10 288 710 279
f 30 291 711 293
f 13 292 711 291
f 19 281 711 292
f 12 293 711 281
f 31 294 712 285
f 35 295 712 294
f 30 293 712 295
f 12 285 712 293
f 140 296 713 299
f 139 297 713 296
f 18 298 713 297
f 13 299 713 298
f 18 300 714 298
f 138 301 714 300
f 19 292 714 301
f 13 298 714 292
f 30 302 715 291
f 34 303 715 302
f 140 299 715 303
f 13 291 715 299
f 29 304 716 307
f 245 305 716 304
f 15 306 716 305
f 14 307 716 306
f 15 308 717 306
f 16 309 717 308
f 139 310 717 309
f 14 306 717 310
f 139 296 718 310
f 140 311 718 296
f 28 312 718 311
f 14 310 718 312
f 245 313 719 305
f 238 314 719 313
f 242 315 719 314
f 15 305 719 315
f 242 316 720 315
f 17 317 720 316
f 16 308 720 317
f 15 315 720 308
f 17 318 721 317
f 21 319 721 318
f 20 320 721 319
f 16 317 721 320
f 20 321 722 320
f 18 297 722 321
f 139 309 722 297
f 16 320 722 309
f 242 322 723 316
f 241 323 723 322
f 24 324 723 323
f 17 316 723 324
f 24 325 724 324
f 22 326 724 325
f 21 318 724 326
f 17 324 724 318
f 20 327 725 321
f 244 328 725 327
f 138 300 725 328
f 18 321 725 300
f 138 329 726 301
f 218 330 726 329
f 217 282 726 330
f 19 301 726 282
f 21 331 727 319
f 220 332 727 331
f 244 327 727 332
f 20 319 727 327
f 22 333 728 326
f 221 334 728 333
f 220 331 728 334
f 21 326 728 331
f 24 335 729 325
f 23 336 729 335
f 243 337 729 336
f 22 325 729 337
f 243 338 730 337
f 94 339 730 338
f 221 333 730 339
f 22 337 730 333
f 25 340 731 343
f 89 341 731 340
f 91 342 731 341
f 23 343 731 342
f 91 344 732 342
f 93 345 732 344
f 243 336 732 345
f 23 342 732 336
f 24 323 733 335
f 241 346 733 323
f 25 343 733 346
f 23 335 733 343
f 240 347 734 349
f 90 348 734 347
f 89 340 734 348
f 25 349 734 340
f 241 350 735 346
f 239 351 735 350
f 240 349 735 351
f 25 346 735 349
f 38 352 736 354
f 90 347 736 352
f 240 353 736 347
f 26 354 736 353
f 240 351 737 353
f 239 355 737 351
f 27 356 737 355
f 26 353 737 356
f 239 357 738 355
f 238 358 738 357
f 37 359 738 358
f 27 355 738 359
f 37 358 739 361
f 238 313 739 358
f 245 360 739 313
f 36 361 739 360
f 237 362 740 364
f 39 363 740 362
f 90 352 740 363
f 38 364 740 352
f 40 365 741 368
f 87 366 741 365
f 88 367 741 366
f 39 368 741 367
f 88 369 742 367
f 89 348 742 369
f 90 363 742 348
f 39 367 742 363
f 41 370 743 372
f 224 371 743 370
f 87 365 743 371
f 40 372 743 365
f 42 373 744 375
f 85 374 744 373
f 224 370 744 374
f 41 375 744 370
f 43 376 745 378
f 84 377 745 376
f 85 373 745 377
f 42 378 745 373
f 44 379 746 381
f 83 380 746 379
f 84 376 746 380
f 43 381 746 376
f 45 382 747 384
f 50 383 747 382
f 83 379 747 383
f 44 384 747 379
f 46 385 748 387
f 49 386 748 385
f 50 382 748 386
f 45 387 748 382
f 48 388 749 391
f 51 389 749 388
f 235 390 749 389
f 47 391 749 390
f 236 392 750 394
f 81 393 750 392
f 51 388 750 393
f 48 394 750 388
f 235 395 751 397
f 234 396 751 395
f 50 386 751 396
f 49 397 751 386
f 234 398 752 396
f 225 399 752 398
f 83 383 752 399
f 50 396 752 383
f 81 400 753 393
f 173 401 753 400
f 82 402 753 401
f 51 393 753 402
f 82 403 754 402
f 234 395 754 403
f 235 389 754 395
f 51 402 754 389
f 53 404 755 407
f 54 405 755 404
f 78 406 755 405
f 52 407 755 406
f 78 408 756 406
f 79 409 756 408
f 80 410 756 409
f 52 406 756 410
f 80 411 757 410
f 81 392 757 411
f 236 412 757 392
f 52 410 757 412
f 55 413 758 415
f 77 414 758 413
f 78 405 758 414
f 54 415 758 405
f 233 416 759 418
f 228 417 759 416
f 77 413 759 417
f 55 418 759 413
f 57 419 760 422
f 60 420 760 419
f 233 421 760 420
f 56 422 760 421
f 58 423 761 425
f 61 424 761 423
f 60 419 761 424
f 57 425 761 419
f 59 426 762 428
f 232 427 762 426
f 61 423 762 427
f 58 428 762 423
f 62 429 763 431
f 65 430 763 429
f 232 426 763 430
f 59 431 763 426
f 61 432 764 424
f 229 433 764 432
f 76 434 764 433
f 60 424 764 434
f 76 435 765 434
f 228 416 765 435
f 233 420 765 416
f 60 434 765 420
f 232 436 766 427
f 75 437 766 436
f 229 432 766 437
f 61 427 766 432
f 231 438 767 440
f 64 439 767 438
f 65 429 767 439
f 62 440 767 429
f 230 441 768 444
f 67 442 768 441
f 66 443 768 442
f 63 444 768 443
f 66 445 769 443
f 64 438 769 445
f 231 446 769 438
f 63 443 769 446
f 66 447 770 445
f 72 448 770 447
f 73 449 770 448
f 64 445 770 449
f 73 450 771 449
f 74 451 771 450
f 65 439 771 451
f 64 449 771 439
f 74 452 772 451
f 75 436 772 452
f 232 430 772 436
f 65 451 772 430
f 67 453 773 442
f 71 454 773 453
f 72 447 773 454
f 66 442 773 447
f 230 455 774 441
f 68 456 774 455
f 70 457 774 456
f 67 441 774 457
f 70 458 775 457
f 130 459 775 458
f 71 453 775 459
f 67 457 775 453
f 131 460 776 462
f 128 461 776 460
f 72 454 776 461
f 71 462 776 454
f 128 463 777 461
f 127 464 777 463
f 73 448 777 464
f 72 461 777 448
f 127 465 778 464
f 141 466 778 465
f 74 450 778 466
f 73 464 778 450
f 141 467 779 466
f 142 468 779 467
f 75 452 779 468
f 74 466 779 452
f 142 469 780 468
f 143 470 780 469
f 229 437 780 470
f 75 468 780 437
f 229 470 781 433
f 143 471 781 470
f 144 472 781 471
f 76 433 781 472
f 144 473 782 472
f 226 474 782 473
f 228 435 782 474
f 76 472 782 435
f 228 474 783 417
f 226 475 783 474
f 227 476 783 475
f 77 417 783 476
f 227 477 784 476
f 79 408 784 477
f 78 414 784 408
f 77 476 784 414
f 227 478 785 477
f 170 479 785 478
f 171 480 785 479
f 79 477 785 480
f 171 481 786 480
f 172 482 786 481
f 80 409 786 482
f 79 480 786 409
f 172 483 787 482
f 173 400 787 483
f 81 411 787 400
f 80 482 787 411
f 173 484 788 401
f 179 485 788 484
f 180 486 788 485
f 82 401 788 486
f 180 487 789 486
f 225 398 789 487
f 234 403 789 398
f 82 486 789 403
f 225 488 790 399
f 181 489 790 488
f 84 380 790 489
f 83 399 790 380
f 181 490 791 489
f 86 491 791 490
f 85 377 791 491
f 84 489 791 377
f 86 492 792 491
f 223 493 792 492
f 224 374 792 493
f 85 491 792 374
f 181 494 793 490
f 165 495 793 494
f 162 496 793 495
f 86 490 793 496
f 162 497 794 496
f 163 498 794 497
f 223 492 794 498
f 86 496 794 492
f 224 493 795 371
f 223 499 795 493
f 164 500 795 499
f 87 371 795 500
f 164 501 796 500
f 222 502 796 501
f 88 366 796 502
f 87 500 796 366
f 222 503 797 502
f 91 341 797 503
f 89 369 797 341
f 88 502 797 369
f 222 504 798 503
f 92 505 798 504
f 93 344 798 505
f 91 503 798 344
f 222 501 799 504
f 164 506 799 501
f 182 507 799 506
f 92 504 799 507
f 182 508 800 507
f 159 509 800 508
f 158 510 800 509
f 92 507 800 510
f 158 511 801 510
f 183 512 801 511
f 93 505 801 512
f 92 510 801 505
f 183 513 802 512
f 94 338 802 513
f 243 345 802 338
f 93 512 802 345
f 183 514 803 513
f 211 515 803 514
f 116 516 803 515
f 94 513 803 516
f 116 517 804 516
f 117 518 804 517
f 221 339 804 518
f 94 516 804 339
f 244 332 805 521
f 220 519 805 332
f 219 520 805 519
f 95 521 805 520
f 219 522 806 520
f 215 523 806 522
f 97 524 806 523
f 95 520 806 524
f 97 525 807 524
f 96 526 807 525
f 218 527 807 526
f 95 524 807 527
f 218 329 808 527
f 138 328 808 329
f 244 521 808 328
f 95 527 808 521
f 97 528 809 525
f 112 529 809 528
f 98 530 809 529
f 96 525 809 530
f 98 531 810 530
f 99 273 810 531
f 216 532 810 273
f 96 530 810 532
f 216 270 811 532
f 217 330 811 270
f 218 526 811 330
f 96 532 811 526
f 215 533 812 523
f 114 534 812 533
f 112 528 812 534
f 97 523 812 528
f 112 535 813 529
f 113 536 813 535
f 111 537 813 536
f 98 529 813 537
f 111 538 814 537
f 110 539 814 538
f 99 531 814 539
f 98 537 814 531
f 110 540 815 539
f 101 286 815 540
f 100 274 815 286
f 99 539 815 274
f 110 541 816 540
f 103 542 816 541
f 102 268 816 542
f 101 540 816 268
f 103 543 817 542
f 104 544 817 543
f 135 263 817 544
f 102 542 817 263
f 110 538 818 541
f 111 545 818 538
f 200 546 818 545
f 103 541 818 546
f 200 547 819 546
f 213 548 819 547
f 104 543 819 548
f 103 546 819 543
f 214 549 820 550
f 105 265 820 549
f 135 544 820 265
f 104 550 820 544
f 107 551 821 552
f 108 259 821 551
f 106 266 821 259
f 105 552 821 266
f 113 553 822 536
f 199 554 822 553
f 200 545 822 554
f 111 536 822 545
f 114 555 823 534
f 198 556 823 555
f 113 535 823 556
f 112 534 823 535
f 198 557 824 556
f 202 558 824 557
f 199 553 824 558
f 113 556 824 553
f 215 559 825 533
f 115 560 825 559
f 204 561 825 560
f 114 533 825 561
f 204 562 826 561
f 205 563 826 562
f 198 555 826 563
f 114 561 826 555
f 117 517 827 566
f 116 564 827 517
f 212 565 827 564
f 115 566 827 565
f 212 567 828 565
f 119 568 828 567
f 204 560 828 568
f 115 565 828 560
f 215 522 829 559
f 219 569 829 522
f 117 566 829 569
f 115 559 829 566
f 211 570 830 515
f 118 571 830 570
f 212 564 830 571
f 116 515 830 564
f 219 519 831 569
f 220 334 831 519
f 221 518 831 334
f 117 569 831 518
f 211 572 832 570
f 157 573 832 572
f 156 574 832 573
f 118 570 832 574
f 156 575 833 574
f 121 576 833 575
f 120 577 833 576
f 118 574 833 577
f 120 578 834 577
f 119 567 834 578
f 212 571 834 567
f 118 577 834 571
f 120 579 835 578
f 197 580 835 579
f 196 581 835 580
f 119 578 835 581
f 196 582 836 581
f 205 562 836 582
f 204 568 836 562
f 119 581 836 568
f 121 583 837 576
f 210 584 837 583
f 197 579 837 584
f 120 576 837 579
f 156 585 838 575
f 155 586 838 585
f 209 587 838 586
f 121 575 838 587
f 209 588 839 587
f 122 589 839 588
f 210 583 839 589
f 121 587 839 583
f 209 590 840 588
f 154 591 840 590
f 153 592 840 591
f 122 588 840 592
f 153 593 841 592
f 123 594 841 593
f 207 595 841 594
f 122 592 841 595
f 207 596 842 595
f 206 597 842 596
f 210 589 842 597
f 122 595 842 589
f 153 598 843 593
f 152 599 843 598
f 191 600 843 599
f 123 593 843 600
f 191 601 844 600
f 208 602 844 601
f 193 603 844 602
f 123 600 844 603
f 193 604 845 603
f 194 605 845 604
f 207 594 845 605
f 123 603 845 594
f 186 606 846 609
f 146 607 846 606
f 190 608 846 607
f 124 609 846 608
f 190 610 847 608
f 125 611 847 610
f 192 612 847 611
f 124 608 847 612
f 208 601 848 614
f 191 613 848 601
f 186 609 848 613
f 124 614 848 609
f 190 615 849 610
f 145 616 849 615
f 126 617 849 616
f 125 610 849 617
f 126 618 850 617
f 188 619 850 618
f 189 620 850 619
f 125 617 850 620
f 145 621 851 616
f 143 469 851 621
f 142 622 851 469
f 126 616 851 622
f 142 467 852 622
f 141 623 852 467
f 188 618 852 623
f 126 622 852 618
f 128 624 853 463
f 132 625 853 624
f 134 626 853 625
f 127 463 853 626
f 134 627 854 626
f 188 623 854 627
f 141 465 854 623
f 127 626 854 465
f 131 628 855 460
f 129 629 855 628
f 132 624 855 629
f 128 460 855 624
f 136 630 856 632
f 133 631 856 630
f 134 625 856 631
f 132 632 856 625
f 189 619 857 633
f 188 627 857 619
f 134 631 857 627
f 133 633 857 631
f 145 634 858 621
f 174 635 858 634
f 144 471 858 635
f 143 621 858 471
f 174 636 859 635
f 169 637 859 636
f 226 473 859 637
f 144 635 859 473
f 190 607 860 615
f 146 638 860 607
f 174 634 860 638
f 145 615 860 634
f 147 639 861 640
f 169 636 861 639
f 174 638 861 636
f 146 640 861 638
f 186 641 862 606
f 151 642 862 641
f 147 640 862 642
f 146 606 862 640
f 168 643 863 645
f 170 644 863 643
f 169 639 863 644
f 147 645 863 639
f 151 646 864 642
f 149 647 864 646
f 168 645 864 647
f 147 642 864 645
f 177 648 865 651
f 166 649 865 648
f 167 650 865 649
f 148 651 865 650
f 167 652 866 650
f 168 647 866 652
f 149 653 866 647
f 148 650 866 653
f 149 654 867 653
f 187 655 867 654
f 150 656 867 655
f 148 653 867 656
f 150 657 868 656
f 175 658 868 657
f 177 651 868 658
f 148 656 868 651
f 151 659 869 646
f 152 660 869 659
f 187 654 869 660
f 149 646 869 654
f 187 661 870 655
f 154 662 870 661
f 185 663 870 662
f 150 655 870 663
f 185 664 871 663
f 176 665 871 664
f 175 657 871 665
f 150 663 871 657
f 186 613 872 641
f 191 599 872 613
f 152 659 872 599
f 151 641 872 659
f 153 591 873 598
f 154 661 873 591
f 187 660 873 661
f 152 598 873 660
f 209 586 874 590
f 155 666 874 586
f 185 662 874 666
f 154 590 874 662
f 184 667 875 668
f 176 664 875 667
f 185 666 875 664
f 155 668 875 666
f 156 573 876 585
f 157 669 876 573
f 184 668 876 669
f 155 585 876 668
f 158 509 877 671
f 159 670 877 509
f 184 669 877 670
f 157 671 877 669
f 211 514 878 572
f 183 511 878 514
f 158 671 878 511
f 157 572 878 671
f 182 672 879 508
f 163 673 879 672
f 160 674 879 673
f 159 508 879 674
f 160 675 880 674
f 176 667 880 675
f 184 670 880 667
f 159 674 880 670
f 163 497 881 673
f 162 676 881 497
f 161 677 881 676
f 160 673 881 677
f 161 678 882 677
f 175 665 882 678
f 176 675 882 665
f 160 677 882 675
f 162 495 883 676
f 165 679 883 495
f 178 680 883 679
f 161 676 883 680
f 178 681 884 680
f 177 658 884 681
f 175 678 884 658
f 161 680 884 678
f 182 506 885 672
f 164 499 885 506
f 223 498 885 499
f 163 672 885 498
f 181 488 886 494
f 225 487 886 488
f 180 682 886 487
f 165 494 886 682
f 180 485 887 682
f 179 683 887 485
f 178 679 887 683
f 165 682 887 679
f 179 484 888 685
f 173 483 888 484
f 172 684 888 483
f 166 685 888 684
f 172 481 889 684
f 171 686 889 481
f 167 649 889 686
f 166 684 889 649
f 177 681 890 648
f 178 683 890 681
f 179 685 890 683
f 166 648 890 685
f 171 479 891 686
f 170 643 891 479
f 168 652 891 643
f 167 686 891 652
f 170 478 892 644
f 227 475 892 478
f 226 637 892 475
f 169 644 892 637
f 197 584 893 688
f 210 597 893 584
f 206 687 893 597
f 195 688 893 687
f 201 689 894 690
f 196 580 894 689
f 197 688 894 580
f 195 690 894 688
f 201 691 895 689
f 203 692 895 691
f 205 582 895 692
f 196 689 895 582
f 205 692 896 563
f 203 693 896 692
f 202 557 896 693
f 198 563 896 557
f 239 350 897 357
f 241 322 897 350
f 242 314 897 322
f 238 357 897 314
