v 0.0448138 -0.0552966625 -0.182747875
v 0.0792971375 -0.06177095 -0.163751125
v 0.0944498 -0.061935675 -0.15527975
v 0.11807075 -0.052371325 -0.150512875
v 0.088773228125 -0.0472839234375 -0.175421421875
v 0.098698584375 -0.0319516109375 -0.18579859375
v 0.072077421875 -0.0441560953125 -0.186029765625
v 0.082030946875 -0.0285984448438 -0.196886703125
v 0.0747156875 -0.007557115 -0.21624475
v 0.0645468375 -0.02461974625 -0.206782875
v 0.0921670203125 -0.0119112545312 -0.20594184375
v 0.108928129688 -0.015742389375 -0.19424421875
v 0.118927029688 0.0012175309375 -0.20114609375
v 0.10210434375 0.00557027359375 -0.2132408125
v 0.111488848438 0.0237740879687 -0.218536140625
v 0.0939855375 0.0293708875 -0.22909925
v 0.0392189625 -0.067977225 -0.16960725
v 0.111482625 0.0681043875 -0.234622375
v 0.120503417188 0.0424683859375 -0.222299625
v 0.128403375 0.01882970125 -0.206267125
v 0.145092140625 0.0559719015625 -0.21191925
v 0.158018265625 0.095269909375 -0.2124054375
v 0.152109765625 0.0753942734375 -0.212823265625
v 0.13583665625 0.0812949015625 -0.224881046875
v 0.147401125 0.12117525 -0.223137625
v 0.118891 0.087894 -0.23500775
v 0.12688 0.104504975 -0.233284875
v 0.153069625 0.13809675 -0.219833125
v 0.1731245 0.172207375 -0.201776625
v 0.185278375 0.190463375 -0.18573575
v 0.1839075 0.17376375 -0.190886875
v 0.165661875 0.1386295 -0.21071025
v 0.163057359375 0.115325445312 -0.211225421875
v 0.1775799375 0.110455476563 -0.19744375
v 0.19678625 0.147624890625 -0.177672734375
v 0.197896921875 0.16800121875 -0.174392140625
v 0.197479078125 0.188252859375 -0.170685859375
v 0.1953695 0.208099 -0.1669065
v 0.20259625 0.2251245 -0.14644075
v 0.204142 0.210065375 -0.15248975
v 0.208127765625 0.18674559375 -0.15409865625
v 0.2175225 0.164381375 -0.13973425
v 0.2163255 0.099820775 -0.12980575
v 0.213603125 0.082153725 -0.127591875
v 0.208903625 0.0621411 -0.1270835
v 0.19347925 -0.031797125 -0.0524647125
v 0.0527347625 -0.0700817375 -0.163182125
v 0.1050771 -0.0519984 -0.160816375
v 0.206194875 -0.0321118 0.0301936375
v 0.1301095 -0.0527272125 -0.13882725
v 0.199941671875 -0.0490988875 0.0480184421875
v 0.20789375 -0.0300836875 0.0484250125
v 0.206178875 -0.0325181875 0.066615475
v 0.198442125 -0.0490091875 0.0684745625
v 0.18956125 -0.064769475 0.065014025
v 0.114174232812 -0.0348532828125 -0.17310590625
v 0.0636261125 -0.0609691125 -0.171130875
v 0.05442715 -0.0406083375 -0.1955525
v 0.0845677 0.01050519125 -0.223689625
v 0.124606290625 -0.0190194573438 -0.180849296875
v 0.214335 0.053263725 0.1052320375
v 0.1030597125 0.0486193375 -0.232752125
v 0.2138815 0.135332625 0.118969375
v 0.203821875 0.130401 0.1334705
v 0.19177275 0.14845 0.152673125
v 0.182386875 0.144149875 0.1676665
v 0.192510125 0.127949875 0.150533375
v 0.18239775 0.1288115 0.165764625
v 0.12869609375 0.0616612078125 -0.224320546875
v 0.137231734375 0.0370452578125 -0.209852984375
v 0.152894 0.1421885 0.20293025
v 0.1126712125 0.1560875 0.229246
v 0.152766203125 0.0325858578125 -0.1952513125
v 0.0760226625 0.173596625 0.2368475
v 0.0915566375 0.174592125 0.236097625
v 0.117538625 0.141802125 0.223001
v 0.134121140625 0.12368753125 0.2068671875
v 0.14982125 0.1107925 0.191013875
v 0.133273625 0.10530975 0.196827125
v 0.114249525 0.10193 0.200286125
v 0.0744265375 0.135971 0.22643225
v 0.0947445421875 0.136991515625 0.225033046875
v 0.0740159125 0.155549875 0.233647875
v 0.091998525 0.115982625 0.213202
v 0.0967009375 0.104016625 0.202458
v 0.076770525 0.120494125 0.2166835
v 0.172945765625 0.090337790625 -0.1985175625
v 0.153758 0.12638375 0.19620575
v 0.114647107813 0.119899953125 0.212348375
v 0.097119175 0.159508875 0.2335285
v 0.13532425 0.142175 0.215548625
v 0.140833625 0.10443425 -0.22575275
v 0.2027525 0.150773625 0.13521825
v 0.213086625 0.1505075 0.11983225
v 0.169875 0.155450125 -0.2066055
v 0.18496975 0.206906375 -0.180564
v 0.184023359375 0.150828015625 -0.192944015625
v 0.181371 0.130667953125 -0.195652203125
v 0.1942318125 0.127260671875 -0.180140203125
v 0.209052 0.225790875 -0.132697875
v 0.21446025 0.207155375 -0.132660625
v 0.239714625 0.1064623625 0.024262275
v 0.234911765625 0.09128506875 0.0455517375
v 0.2401305 0.111169625 0.0420599625
v 0.233612125 0.0926899125 0.0663085375
v 0.23766875 0.110168075 0.0609047
v 0.217056625 0.185569 -0.136110625
v 0.223143 0.0698262 0.0925102375
v 0.22111425 0.0541513375 0.091651675
v 0.218503375 0.01261511125 0.0669727375
v 0.2085704375 0.16595084375 -0.157633125
v 0.22125575 0.0281723875 0.0668598
v 0.22923975 0.0689131125 0.0510998
v 0.22851440625 0.069775884375 0.02830141625
v 0.208564 0.0415892 -0.10855525
v 0.20421975 0.0245073525 -0.103325925
v 0.202247375 0.0045004 -0.0820107625
v 0.187944875 -0.0320071890625 -0.072459359375
v 0.16158959375 -0.0088036128125 -0.153735390625
v 0.23110525 0.08407845 0.00820702625
v 0.22587675 0.0682502375 0.0084785425
v 0.216913 0.0310002375 0.00873367625
v 0.2131665 0.01110722375 0.0080956875
v 0.216399 0.0103390675 0.0284434875
v 0.212419625 -0.00716475875 0.0255045275
v 0.21866 0.012567655 0.051615825
v 0.221393875 0.02801883625 0.0516427375
v 0.18128084375 0.006173435625 -0.1388995
v 0.220065375 0.02794975 0.0313660625
v 0.220760125 0.050118825 0.00916907625
v 0.2240183125 0.05021860625 0.0291150814062
v 0.2346985 0.091078775 0.0223262025
v 0.225575875 0.0509236 0.0492115
v 0.18997828125 0.0048834396875 -0.119166376563
v 0.172277796875 -0.029672128125 -0.112410160937
v 0.18077934375 -0.031297140625 -0.0925736609375
v 0.184217125 -0.0491088625 -0.0539235625
v 0.177171875 -0.050225825 -0.071201675
v 0.229737625 0.074762675 0.065901475
v 0.199407 0.0075996375 -0.097567825
v 0.21566775 0.0687850375 0.10701595
v 0.1971485 0.0234988553125 -0.122726209375
v 0.190216125 -0.0672907375 0.0474709
v 0.1916105 -0.0647983875 0.0298486625
v 0.1996505 -0.0488011375 0.027391125
v 0.21004175 -0.00652964 0.01017695125
v 0.199021875 -0.013336625 -0.057861875
v 0.16981175 -0.048231275 -0.0905639
v 0.161330125 -0.0457979 -0.1092305
v 0.151772125 -0.043216025 -0.1269135
v 0.141063125 -0.0426339125 -0.14062875
v 0.12837103125 -0.0376712390625 -0.15888625
v 0.138886578125 -0.0221972464063 -0.16564653125
v 0.1347136875 -0.0025332471875 -0.187079515625
v 0.148952421875 -0.0059641009375 -0.17106721875
v 0.1515974375 -0.02506551125 -0.149057984375
v 0.1627328125 -0.027557915625 -0.131323140625
v 0.1725195 -0.0110998315625 -0.13518278125
v 0.181772859375 -0.0128395353125 -0.11558239375
v 0.189796796875 -0.0135690128125 -0.09549620625
v 0.19814925 -0.0100996525 -0.0736317625
v 0.195569078125 0.0433408828125 -0.144579359375
v 0.2013770625 0.0628753078125 -0.146091546875
v 0.2063820625 0.0827751640625 -0.14657559375
v 0.212201125 0.10524475 -0.143822625
v 0.207425875 0.145321921875 -0.160652734375
v 0.190673609375 0.10697229375 -0.181792484375
v 0.186186921875 0.0868458921875 -0.182569703125
v 0.167227578125 0.07059439375 -0.198608546875
v 0.16051775 0.051298565625 -0.1975318125
v 0.144123234375 0.0146139395312 -0.191794609375
v 0.17881890625 0.0263285640625 -0.161063296875
v 0.174178328125 0.0477731484375 -0.18112834375
v 0.192102734375 0.0645441859375 -0.164647640625
v 0.19739925 0.0843549890625 -0.1650840625
v 0.20173978125 0.10450041875 -0.164552828125
v 0.188880046875 0.0243785809375 -0.142157921875
v 0.170579625 0.008376854375 -0.157742546875
v 0.185881109375 0.0451648625 -0.163311515625
v 0.166706015625 0.02904480875 -0.178867140625
v 0.158233296875 0.0111165904687 -0.17546921875
v 0.180639125 0.0670876921875 -0.182340671875
v 0.216380125 0.143587625 -0.142592
v 0.2050575 0.12484440625 -0.16298884375
v 0.214021125 0.123124125 -0.144779375
v 0.205163375 0.0451172125 -0.123381875
v 0.0633211875 -0.04240980625 -0.190867875
v 0.06725028125 -0.0515761875 -0.18006825
v 0.0537669375 -0.05703503125 -0.1783411875
v 0.0495378 -0.048078 -0.1893195
v 0.0582584 -0.0655093 -0.1672615
v 0.04487845 -0.07072405 -0.164665
v 0.0402858 -0.06238225 -0.175906
v 0.08055805 -0.045792025 -0.1808846875
v 0.0840015125 -0.05458869375 -0.169672
v 0.07101465 -0.06042355 -0.169018
v 0.0967331125 -0.04859811875 -0.16962875
v 0.0998929 -0.05694505 -0.1581545
v 0.0873467 -0.06290965 -0.1581585
v 0.10917386875 -0.04245365625 -0.168541
v 0.121460875 -0.0362715375 -0.1661798125
v 0.1231975 -0.045078325 -0.1548204375
v 0.1114035 -0.05115635 -0.157299
v 0.134827 -0.03903616875 -0.1512381875
v 0.1356525 -0.0476633 -0.1398505
v 0.1242775 -0.05359575 -0.1433685
v 0.07701418125 -0.03651076875 -0.1916600625
v 0.09049755625 -0.030351875 -0.1915288125
v 0.093679625 -0.039734125 -0.1808279375
v 0.10658880625 -0.03343269375 -0.1796515625
v 0.08709810625 -0.020377360625 -0.20163725
v 0.10066158125 -0.01390406375 -0.200296875
v 0.1038079875 -0.02394869375 -0.1902404375
v 0.1169235375 -0.01741915625 -0.187771
v 0.1193691625 -0.027030475 -0.177187875
v 0.0594512 -0.03276975 -0.2013785
v 0.07334398125 -0.026656279375 -0.20191675
v 0.06965095 -0.016215835 -0.211751
v 0.083487575 -0.009771036875 -0.211192
v 0.09338534375 0.007996063125 -0.2185818125
v 0.09718905 -0.003263865 -0.209830625
v 0.0796932 0.001357315 -0.220226
v 0.11062605625 0.00331116125 -0.2074334375
v 0.11397930625 -0.00734971375 -0.1979006875
v 0.1269838125 -0.0007118125 -0.1943651875
v 0.12973325 -0.010854454375 -0.1841525625
v 0.10685305 0.014596626875 -0.216109625
v 0.120058875 0.0212094925 -0.2126643125
v 0.1237368125 0.0099475425 -0.2039166875
v 0.136442125 0.016632475 -0.1992914375
v 0.13951125 0.005946383125 -0.189612
v 0.0893234 0.01986425 -0.2266305
v 0.10277351875 0.026525726875 -0.22393575
v 0.09857935 0.0389615 -0.2311465
v 0.11182873125 0.0454936 -0.2276691875
v 0.11606541875 0.03306155 -0.2206194375
v 0.1289894375 0.03964421875 -0.2163568125
v 0.1329214375 0.0278533875 -0.2082520625
v 0.127408125 0.08454783125 -0.2300829375
v 0.132391625 0.0714330125 -0.224760375
v 0.1201489375 0.06483053125 -0.229626875
v 0.115301 0.0779675 -0.2349755
v 0.1247235 0.05200396875 -0.2235168125
v 0.1073815 0.05832765 -0.233896
v 0.1370049375 0.05870095 -0.2183925625
v 0.141275 0.04643196875 -0.211051375
v 0.14517525 0.0346956625 -0.202800375
v 0.1485469375 0.023498925 -0.1936719375
v 0.144088 0.07822845 -0.219125
v 0.1487240625 0.0656234375 -0.212528625
v 0.1598495625 0.07283816875 -0.2059843125
v 0.163999625 0.06088323125 -0.1982201875
v 0.152974375 0.05349620625 -0.2049769375
v 0.156764875 0.04185925625 -0.1965400625
v 0.1449015 0.111118 -0.223983
v 0.15530975 0.11818446875 -0.2173179375
v 0.1606585625 0.10528065625 -0.2119045625
v 0.1501373125 0.098126875 -0.218626625
v 0.1704829375 0.1127299375 -0.20458725
v 0.175381625 0.10036634375 -0.19808275
v 0.16565275 0.0926450625 -0.205715125
v 0.1702186875 0.08041319375 -0.19870025
v 0.15518825 0.08529210625 -0.2127469375
v 0.13905775 0.09122239375 -0.2247273125
v 0.122307 0.0978609 -0.2347715
v 0.133941 0.104463 -0.229566
v 0.1594475 0.138368 -0.215315
v 0.165162875 0.125405375 -0.210349125
v 0.149589 0.131267 -0.2220975
v 0.1848478125 0.1608830625 -0.191276
v 0.1770409375 0.1530291875 -0.1998896875
v 0.170788 0.1653705 -0.204832
v 0.178618 0.172977 -0.1963505
v 0.1893595 0.20871 -0.174524
v 0.1965501875 0.198208875 -0.1687979375
v 0.1914871875 0.1893025625 -0.1783225625
v 0.1843335 0.2000195 -0.183826
v 0.197904375 0.1781650625 -0.17256675
v 0.19182625 0.1692956875 -0.182144125
v 0.185632 0.180652 -0.187719
v 0.1975275625 0.1578170625 -0.1761135625
v 0.19063875 0.149066375 -0.185538625
v 0.182855875 0.1407565 -0.1944100625
v 0.174344 0.13291425 -0.202714125
v 0.168652 0.14543 -0.208186
v 0.179594375 0.1205618125 -0.1966485
v 0.18802625 0.1288090625 -0.1881191875
v 0.1925670625 0.1171031875 -0.1810699375
v 0.1843418125 0.10855959375 -0.18983525
v 0.188556375 0.0968757375 -0.18229975
v 0.1798023125 0.08843355 -0.190774625
v 0.2034789375 0.1668964375 -0.1661994375
v 0.2081719375 0.155614375 -0.1592220625
v 0.202365 0.1463841875 -0.1693455625
v 0.2063735625 0.1350663125 -0.161909875
v 0.19990975 0.125945875 -0.171740375
v 0.1956629375 0.137437 -0.179011375
v 0.203037125 0.187425375 -0.162602125
v 0.2085800625 0.1763385 -0.1559011875
v 0.2008665 0.207742 -0.158912
v 0.2071405 0.197140375 -0.1522979375
v 0.2121365 0.217899 -0.1313095
v 0.2101151875 0.2072819375 -0.14177525
v 0.2034875 0.2174955 -0.149589
v 0.2051615 0.2280445 -0.139276
v 0.2160685 0.1963465 -0.134301
v 0.2127174375 0.186139 -0.14520275
v 0.21752 0.1749195 -0.1379695
v 0.2131695625 0.1651339375 -0.1487603125
v 0.21201975 0.14441575 -0.151689875
v 0.217128 0.153938 -0.1412615
v 0.210115375 0.08239366875 -0.1371125625
v 0.2085930625 0.09282315625 -0.146497875
v 0.2143145 0.102519 -0.1368915
v 0.2156775 0.0922101 -0.1275395
v 0.2052623125 0.06243895 -0.1366164375
v 0.2039774375 0.072788125 -0.146452
v 0.211335 0.0721184 -0.127462
v 0.1996935625 0.04283249375 -0.1350231875
v 0.1985788125 0.05304998125 -0.1454586875
v 0.2063395 0.0522588 -0.12639
v 0.1923766875 -0.02247003125 -0.07383800625
v 0.1985365 -0.011628 -0.0656917
v 0.197101 -0.0211669 -0.053984
v 0.190834375 -0.03196871875 -0.062449575
v 0.1805125 -0.05102345 -0.0613052
v 0.1827493125 -0.041202075 -0.07168055625
v 0.188862 -0.0419056 -0.05171065
v 0.2040655 -0.0396599 0.048233475
v 0.1999453125 -0.0489823 0.03771905
v 0.2034415 -0.03929635 0.0274967
v 0.207546 -0.02989025 0.03801805
v 0.207637 -0.0301441 0.0588696
v 0.2029225 -0.03965265 0.0689263
v 0.199341125 -0.049086325 0.05826076875
v 0.193312 -0.0580495 0.06793275
v 0.189219 -0.067165 0.05743155
v 0.1952266875 -0.058263425 0.04775641875
v 0.1904835 -0.06720135 0.03741765
v 0.1951865 -0.0579834 0.0273408
v 0.2233165 0.0621495 0.08974045
v 0.2196855 0.0719053 0.0999833
v 0.2138135 0.06086365 0.1084645
v 0.2174445 0.05110785 0.09822165
v 0.208535 0.1520495 0.1264985
v 0.2032871875 0.1405873125 0.134344375
v 0.2096165 0.13176 0.125085
v 0.2149535 0.1432585 0.1172705
v 0.197193 0.149569 0.1439405
v 0.1921414375 0.1381999375 0.15160325
v 0.198161 0.129116 0.141979
v 0.1809975 0.1362445 0.168874
v 0.1867455 0.1269475 0.1590565
v 0.186408 0.147431 0.161424
v 0.1346930625 0.132922125 0.211321125
v 0.143917125 0.12516 0.2019326875
v 0.154712 0.1355115 0.1991035
v 0.145504 0.1435605 0.2091695
v 0.0947033875 0.14680575 0.229317625
v 0.104864775 0.137884 0.2238860625
v 0.1151255 0.148871 0.226259
v 0.10494935 0.157753 0.231639
v 0.0842866625 0.156144 0.233335625
v 0.09433995 0.1669965 0.235005
v 0.0837142 0.176672 0.2368355
v 0.07369205 0.1657265 0.2357625
v 0.09468850625 0.1274823125 0.2200645625
v 0.10466624375 0.1188841875 0.2136286875
v 0.1148176375 0.129368875 0.2175816875
v 0.1244149375 0.121717625 0.2102168125
v 0.125137 0.1405795 0.219795
v 0.11445396875 0.1108181875 0.2064768125
v 0.1238695 0.1033305 0.1990865
v 0.13366775 0.1144895 0.201960375
v 0.142613 0.1072365 0.193254
v 0.152832 0.1176595 0.1927535
v 0.09435675 0.110019 0.20781
v 0.1042626 0.1017395 0.20068
v 0.0742878 0.145555 0.230571
v 0.08459329375 0.1364048125 0.225822125
v 0.08439475 0.1181435 0.2151
v 0.07435095 0.127027 0.221132
v 0.2375271875 0.10123744375 0.04385044375
v 0.2347781875 0.09024681875 0.03536286875
v 0.237386 0.09879495 0.0232454
v 0.2404725 0.1099385 0.0315767
v 0.2391595 0.112102 0.05258335
v 0.2357675 0.1028003 0.06478185
v 0.234418625 0.09205465625 0.05589223125
v 0.231359 0.08252815 0.0675785
v 0.2294775 0.07184115 0.0585872
v 0.232272125 0.08129230625 0.04707465625
v 0.229358625 0.0705387625 0.0382459875
v 0.2311981875 0.07939005 0.027007175625
v 0.2200515 0.020276495 0.04908145
v 0.221782 0.03067965 0.0592441
v 0.219855 0.0204105 0.0694641
v 0.2181245 0.010007345 0.05930145
v 0.2249388125 0.05052066875 0.03915075625
v 0.2261494375 0.0600336125 0.028931866875
v 0.2276855 0.0611281 0.0489034
v 0.228645 0.07709585 0.007058655
v 0.232864 0.08745635 0.01530481
v 0.2272905 0.06901305 0.0183833525
v 0.2225309375 0.05011828125 0.019129544375
v 0.223194 0.0592833 0.009085535
v 0.2220360625 0.0403862375 0.02906761375
v 0.218638125 0.03069676875 0.018804750625
v 0.2187385 0.0406806 0.00901861
v 0.218396 0.0203957 0.02866765
v 0.21478275 0.010723145625 0.0182695875
v 0.2150675 0.02110935 0.008413815
v 0.21436 0.00027657 0.0282239
v 0.2107185 -0.009357885 0.01778101
v 0.2111745 0.001093145 0.007815955
v 0.223672 0.0407371 0.0492376
v 0.2211215 0.0305045 0.0390084
v 0.166911875 -0.03778453125 -0.1108267875
v 0.17666575 -0.030572125 -0.10256858125
v 0.175446 -0.03981869375 -0.0915064125
v 0.165708 -0.04705025 -0.1000025
v 0.184566125 -0.0317794125 -0.0825189875
v 0.173619 -0.04929245 -0.0809591
v 0.1573406875 -0.0354456625 -0.12916425
v 0.1676679375 -0.0286649125 -0.1220048125
v 0.1567005 -0.04452275 -0.1182035
v 0.1462755625 -0.0328443375 -0.1463610625
v 0.1573690625 -0.026358575 -0.14033575
v 0.146498 -0.04186895 -0.1353525
v 0.133638125 -0.03003598125 -0.1624685625
v 0.1454386875 -0.023677345 -0.1575051875
v 0.131934875 -0.020628385625 -0.1734511875
v 0.1420339375 -0.00430315125 -0.179277875
v 0.1440041875 -0.014179729375 -0.1684993125
v 0.155477 -0.0074586725 -0.1625545
v 0.1567136875 -0.0170525325 -0.151499375
v 0.1513948125 0.012770220625 -0.183834
v 0.15369275 0.002468968125 -0.1733905625
v 0.164615125 0.00966832125 -0.166759875
v 0.1661904375 -0.00031696375 -0.1558161875
v 0.167272125 -0.01001566875 -0.1446055625
v 0.1677720625 -0.0194354 -0.1332983125
v 0.177326625 -0.0120610925 -0.1254848125
v 0.1772120625 -0.02136165625 -0.11396770625
v 0.176166125 0.00719363125 -0.1484538125
v 0.1770361875 -0.00257292625 -0.1370695625
v 0.18583 0.00537105125 -0.1290854375
v 0.186018375 -0.004092185 -0.11733719375
v 0.193890375 0.0048075625 -0.10929706875
v 0.1937933125 -0.0043000575 -0.09743076875
v 0.1859375625 -0.01337524375 -0.1055462625
v 0.185510875 -0.02255764375 -0.09389038125
v 0.200863 0.00609225 -0.0898363
v 0.2003645 -0.00281021 -0.07784035
v 0.193326625 -0.0133216375 -0.0855520125
v 0.189097625 0.054796725 -0.164089875
v 0.1970039375 0.06358868125 -0.155451
v 0.19097125 0.0441369875 -0.1540295
v 0.20039525 0.0330790625 -0.124207875
v 0.1932088125 0.02373393875 -0.1324671875
v 0.19233425 0.03377675 -0.1434795
v 0.184096375 0.025250875 -0.1517155
v 0.1824803125 0.03565495 -0.1623156875
v 0.1948693125 0.07440089375 -0.1649816875
v 0.202157625 0.0834397625 -0.1559233125
v 0.1996944375 0.0943946125 -0.1649468125
v 0.2064295 0.10358976875 -0.155468875
v 0.2035201875 0.1146530625 -0.163885
v 0.2096725 0.123936 -0.15395475
v 0.212542 0.112938 -0.145625
v 0.2153225 0.1333285 -0.1437665
v 0.196480375 0.10562358125 -0.1733461875
v 0.192064125 0.08548836875 -0.1739861875
v 0.18663325 0.0657069375 -0.1736343125
v 0.1835368125 0.07691513125 -0.1825803125
v 0.174164 0.06869720625 -0.190696375
v 0.1775269375 0.0573678125 -0.181859875
v 0.167588375 0.04940368125 -0.1895500625
v 0.170571375 0.03832135625 -0.1801365
v 0.1599508125 0.03070626875 -0.187258125
v 0.1625821875 0.01997587875 -0.1773030625
v 0.1802796875 0.0463685625 -0.1723633125
v 0.17300875 0.02758939125 -0.1701246875
v 0.1852121875 0.01516737375 -0.1406134375
v 0.1748205625 0.01724728125 -0.15951525
v 0.19368225 0.01409038375 -0.1210042125
v 0.207194 0.03439455 -0.1050015
v 0.2007649375 0.0238552375 -0.1130179
v 0.206896 0.04336205 -0.1160595
v 0.201075 0.01465686 -0.1014562
v 0.05846415 -0.04985935 -0.184776
v 0.0492721 -0.063945775 -0.17158375
v 0.075755975 -0.053164 -0.175032
v 0.092007175 -0.055816175 -0.163993
v 0.1163925 -0.043770525 -0.161859
v 0.1295405 -0.046373875 -0.14742475
v 0.085481625 -0.0381952 -0.18641475
v 0.101589975 -0.0411309 -0.174867
v 0.0955767 -0.0222404 -0.1961335
v 0.11174065 -0.025521675 -0.18392625
v 0.0682955 -0.034677475 -0.1965965
v 0.078423525 -0.0183401425 -0.2067835
v 0.088489575 -0.000990935 -0.2151375
v 0.105694725 -0.005386155 -0.204087
v 0.1220155 -0.00914645 -0.19126575
v 0.1154055 0.01218572 -0.21026575
v 0.13179575 0.0078765 -0.197024
v 0.0981307 0.0171858575 -0.22148675
v 0.107361675 0.03596295 -0.22601225
v 0.124612 0.03035445 -0.2147095
v 0.1238995 0.074651075 -0.230015
v 0.11610825 0.05511375 -0.2288595
v 0.13311575 0.049102425 -0.21756175
v 0.14091375 0.0255701 -0.20121675
v 0.140671 0.068411675 -0.2189175
v 0.15653725 0.063104675 -0.205636
v 0.14919125 0.04401545 -0.20404275
v 0.15285025 0.108138875 -0.218068
v 0.168186 0.10266425 -0.20524425
v 0.162881 0.082694 -0.20598625
v 0.14723 0.088145125 -0.2190035
v 0.130723 0.09449325 -0.22988975
v 0.15745675 0.128267 -0.21636675
v 0.1779105 0.16301625 -0.198169
v 0.1905575 0.1990545 -0.17641675
v 0.19188025 0.17935775 -0.1802545
v 0.19141475 0.159192 -0.183923
v 0.17584725 0.1429895 -0.20141475
v 0.17254575 0.1228205 -0.20375775
v 0.18629775 0.11867875 -0.18907725
v 0.1821945 0.098463625 -0.19041575
v 0.2031025 0.15663225 -0.16785125
v 0.2012805 0.1361535 -0.17064
v 0.18949125 0.1389385 -0.1869385
v 0.20348025 0.1771755 -0.1644325
v 0.20208025 0.197602 -0.16076
v 0.207812 0.21769725 -0.14044925
v 0.21172375 0.1967305 -0.14340675
v 0.213176 0.1756035 -0.14702225
v 0.21276825 0.15474025 -0.150312
v 0.2122625 0.0924458 -0.1370495
v 0.207778 0.072383675 -0.13698575
v 0.20258025 0.052582625 -0.135952
v 0.19490375 -0.021905525 -0.063895825
v 0.18589175 -0.04160325 -0.061702575
v 0.20390075 -0.039509025 0.03786875
v 0.20364125 -0.039687175 0.05858355
v 0.19443225 -0.058197625 0.057864525
v 0.1953695 -0.058164575 0.03756855
v 0.218565 0.061506575 0.099102475
v 0.20907575 0.14190475 0.12579175
v 0.197677 0.1393425 0.14295975
v 0.18657675 0.13718925 0.16024025
v 0.144687 0.1343205 0.20567125
v 0.1049139 0.1477705 0.22793875
v 0.084016 0.1663615 0.23538375
v 0.1047883 0.1281895 0.2191285
v 0.12476125 0.131109 0.21513525
v 0.1241275 0.1124845 0.204781
v 0.1432415 0.1161585 0.1977135
v 0.104480375 0.11016525 0.20734925
v 0.08449505 0.1461125 0.23009475
v 0.084533525 0.12715875 0.22067875
v 0.237615 0.1000895 0.033520725
v 0.23680575 0.102092175 0.05428895
v 0.23196475 0.08196175 0.057290875
v 0.23198275 0.080416775 0.03700125
v 0.21995325 0.0203434975 0.059272775
v 0.22703575 0.060552175 0.0389072
v 0.23002 0.078267025 0.0170289525
v 0.22479 0.059629775 0.0189982675
v 0.22052575 0.04047965 0.01903303
v 0.21673175 0.020752525 0.0185407325
v 0.21276725 0.0006848575 0.0180199275
v 0.2229925 0.0405079 0.039142525
v 0.1713145 -0.038860325 -0.1012614
v 0.1792625 -0.04060325 -0.08163065
v 0.162282 -0.0366477 -0.12013375
v 0.15200375 -0.03417425 -0.13790025
v 0.1401605 -0.0314668 -0.154566
v 0.126688 -0.028546225 -0.17002225
v 0.1370625 -0.0125518175 -0.1765315
v 0.15055925 -0.01567938 -0.16015275
v 0.14681225 0.0041309825 -0.181705
v 0.16014675 0.00099901 -0.16475625
v 0.1624535 -0.01830095 -0.14254675
v 0.17266275 -0.02046665 -0.1237575
v 0.17184 -0.001517025 -0.1465845
v 0.18171975 -0.00345642 -0.12727975
v 0.19005975 -0.0044049 -0.107364025
v 0.1815065 -0.022087375 -0.103972325
v 0.1971685 -0.00368315 -0.08760795
v 0.18919 -0.0226863 -0.0838409
v 0.194093 0.0538044 -0.15485475
v 0.196564 0.03320635 -0.13386075
v 0.187653 0.03460535 -0.15299025
v 0.19968975 0.073470925 -0.15580325
v 0.20441475 0.093483825 -0.155823
v 0.20817025 0.11374425 -0.1548275
v 0.21097175 0.13415375 -0.1529065
v 0.1983135 0.115767 -0.1726525
v 0.194399 0.095522325 -0.17379125
v 0.1894705 0.07554685 -0.1739295
v 0.17711175 0.078512075 -0.19086775
v 0.17100025 0.05898695 -0.19026175
v 0.16389625 0.039969775 -0.1885475
v 0.155779 0.0216342 -0.185686
v 0.17677625 0.03688835 -0.1713785
v 0.1802595 0.01611495 -0.15018375
v 0.16892875 0.018523915 -0.16856725
v 0.1835675 0.0559778 -0.17311375
v 0.18964525 0.014445005 -0.130845
v 0.203881 0.0335798 -0.11459475
v 0.19744675 0.01424605 -0.11121685
f 58 187 491 190
f 7 188 491 187
f 57 189 491 188
f 1 190 491 189
f 57 191 492 189
f 47 192 492 191
f 17 193 492 192
f 1 189 492 193
f 57 188 493 196
f 7 194 493 188
f 5 195 493 194
f 2 196 493 195
f 5 197 494 195
f 48 198 494 197
f 3 199 494 198
f 2 195 494 199
f 48 200 495 203
f 56 201 495 200
f 152 202 495 201
f 4 203 495 202
f 152 204 496 202
f 151 205 496 204
f 50 206 496 205
f 4 202 496 206
f 7 207 497 194
f 8 208 497 207
f 6 209 497 208
f 5 194 497 209
f 6 210 498 209
f 56 200 498 210
f 48 197 498 200
f 5 209 498 197
f 8 211 499 208
f 11 212 499 211
f 12 213 499 212
f 6 208 499 213
f 12 214 500 213
f 60 215 500 214
f 56 210 500 215
f 6 213 500 210
f 58 216 501 187
f 10 217 501 216
f 8 207 501 217
f 7 187 501 207
f 10 218 502 217
f 9 219 502 218
f 11 211 502 219
f 8 217 502 211
f 59 220 503 222
f 14 221 503 220
f 11 219 503 221
f 9 222 503 219
f 14 223 504 221
f 13 224 504 223
f 12 212 504 224
f 11 221 504 212
f 13 225 505 224
f 154 226 505 225
f 60 214 505 226
f 12 224 505 214
f 14 227 506 223
f 15 228 506 227
f 20 229 506 228
f 13 223 506 229
f 20 230 507 229
f 171 231 507 230
f 154 225 507 231
f 13 229 507 225
f 59 232 508 220
f 16 233 508 232
f 15 227 508 233
f 14 220 508 227
f 16 234 509 233
f 62 235 509 234
f 19 236 509 235
f 15 233 509 236
f 19 237 510 236
f 70 238 510 237
f 20 228 510 238
f 15 236 510 228
f 26 239 511 242
f 24 240 511 239
f 69 241 511 240
f 18 242 511 241
f 69 243 512 241
f 19 235 512 243
f 62 244 512 235
f 18 241 512 244
f 69 245 513 243
f 21 246 513 245
f 70 237 513 246
f 19 243 513 237
f 70 247 514 238
f 73 248 514 247
f 171 230 514 248
f 20 238 514 230
f 69 240 515 245
f 24 249 515 240
f 23 250 515 249
f 21 245 515 250
f 23 251 516 250
f 169 252 516 251
f 170 253 516 252
f 21 250 516 253
f 170 254 517 253
f 73 247 517 254
f 70 246 517 247
f 21 253 517 246
f 92 255 518 258
f 25 256 518 255
f 33 257 518 256
f 22 258 518 257
f 33 259 519 257
f 34 260 519 259
f 87 261 519 260
f 22 257 519 261
f 87 262 520 261
f 169 251 520 262
f 23 263 520 251
f 22 261 520 263
f 23 249 521 263
f 24 264 521 249
f 92 258 521 264
f 22 263 521 258
f 26 265 522 239
f 27 266 522 265
f 92 264 522 266
f 24 239 522 264
f 28 267 523 269
f 32 268 523 267
f 33 256 523 268
f 25 269 523 256
f 31 270 524 273
f 97 271 524 270
f 95 272 524 271
f 29 273 524 272
f 96 274 525 277
f 38 275 525 274
f 37 276 525 275
f 30 277 525 276
f 37 278 526 276
f 36 279 526 278
f 31 280 526 279
f 30 276 526 280
f 36 281 527 279
f 35 282 527 281
f 97 270 527 282
f 31 279 527 270
f 95 271 528 285
f 97 283 528 271
f 98 284 528 283
f 32 285 528 284
f 98 286 529 284
f 34 259 529 286
f 33 268 529 259
f 32 284 529 268
f 98 287 530 286
f 99 288 530 287
f 167 289 530 288
f 34 286 530 289
f 167 290 531 289
f 168 291 531 290
f 87 260 531 291
f 34 289 531 260
f 36 292 532 281
f 111 293 532 292
f 166 294 532 293
f 35 281 532 294
f 166 295 533 294
f 184 296 533 295
f 99 297 533 296
f 35 294 533 297
f 99 287 534 297
f 98 283 534 287
f 97 282 534 283
f 35 297 534 282
f 37 298 535 278
f 41 299 535 298
f 111 292 535 299
f 36 278 535 292
f 38 300 536 275
f 40 301 536 300
f 41 298 536 301
f 37 275 536 298
f 100 302 537 305
f 101 303 537 302
f 40 304 537 303
f 39 305 537 304
f 101 306 538 303
f 107 307 538 306
f 41 301 538 307
f 40 303 538 301
f 107 308 539 307
f 42 309 539 308
f 111 299 539 309
f 41 307 539 299
f 183 310 540 311
f 166 293 540 310
f 111 309 540 293
f 42 311 540 309
f 44 312 541 315
f 164 313 541 312
f 165 314 541 313
f 43 315 541 314
f 45 316 542 318
f 163 317 542 316
f 164 312 542 317
f 44 318 542 312
f 186 319 543 321
f 162 320 543 319
f 163 316 543 320
f 45 321 543 316
f 118 322 544 325
f 161 323 544 322
f 147 324 544 323
f 46 325 544 324
f 137 326 545 328
f 138 327 545 326
f 118 325 545 327
f 46 328 545 325
f 52 329 546 332
f 51 330 546 329
f 145 331 546 330
f 49 332 546 331
f 52 333 547 329
f 53 334 547 333
f 54 335 547 334
f 51 329 547 335
f 54 336 548 335
f 55 337 548 336
f 143 338 548 337
f 51 335 548 338
f 143 339 549 338
f 144 340 549 339
f 145 330 549 340
f 51 338 549 330
f 109 341 550 344
f 108 342 550 341
f 141 343 550 342
f 61 344 550 343
f 94 345 551 348
f 93 346 551 345
f 64 347 551 346
f 63 348 551 347
f 93 349 552 346
f 65 350 552 349
f 67 351 552 350
f 64 346 552 351
f 66 352 553 354
f 68 353 553 352
f 67 350 553 353
f 65 354 553 350
f 91 355 554 358
f 77 356 554 355
f 88 357 554 356
f 71 358 554 357
f 90 359 555 362
f 82 360 555 359
f 76 361 555 360
f 72 362 555 361
f 83 363 556 366
f 90 364 556 363
f 75 365 556 364
f 74 366 556 365
f 82 367 557 360
f 84 368 557 367
f 89 369 557 368
f 76 360 557 369
f 89 370 558 369
f 77 355 558 370
f 91 371 558 355
f 76 369 558 371
f 89 372 559 370
f 80 373 559 372
f 79 374 559 373
f 77 370 559 374
f 79 375 560 374
f 78 376 560 375
f 88 356 560 376
f 77 374 560 356
f 89 368 561 372
f 84 377 561 368
f 85 378 561 377
f 80 372 561 378
f 82 359 562 380
f 90 363 562 359
f 83 379 562 363
f 81 380 562 379
f 86 381 563 382
f 84 367 563 381
f 82 380 563 367
f 81 382 563 380
f 104 383 564 386
f 103 384 564 383
f 132 385 564 384
f 102 386 564 385
f 104 387 565 383
f 106 388 565 387
f 105 389 565 388
f 103 383 565 389
f 105 390 566 389
f 139 391 566 390
f 113 392 566 391
f 103 389 566 392
f 113 393 567 392
f 114 394 567 393
f 132 384 567 394
f 103 392 567 384
f 126 395 568 398
f 127 396 568 395
f 112 397 568 396
f 110 398 568 397
f 133 399 569 401
f 131 400 569 399
f 114 393 569 400
f 113 401 569 393
f 121 402 570 404
f 120 403 570 402
f 132 394 570 403
f 114 404 570 394
f 131 405 571 400
f 130 406 571 405
f 121 404 571 406
f 114 400 571 404
f 130 405 572 409
f 131 407 572 405
f 129 408 572 407
f 122 409 572 408
f 129 410 573 408
f 124 411 573 410
f 123 412 573 411
f 122 408 573 412
f 124 413 574 411
f 125 414 574 413
f 146 415 574 414
f 123 411 574 415
f 129 407 575 417
f 131 399 575 407
f 133 416 575 399
f 127 417 575 416
f 149 418 576 421
f 135 419 576 418
f 136 420 576 419
f 148 421 576 420
f 136 422 577 420
f 118 327 577 422
f 138 423 577 327
f 148 420 577 423
f 150 424 578 426
f 157 425 578 424
f 135 418 578 425
f 149 426 578 418
f 151 427 579 429
f 156 428 579 427
f 157 424 579 428
f 150 429 579 424
f 152 430 580 204
f 153 431 580 430
f 156 427 580 431
f 151 204 580 427
f 56 215 581 201
f 60 432 581 215
f 153 430 581 432
f 152 201 581 430
f 60 226 582 432
f 154 433 582 226
f 155 434 582 433
f 153 432 582 434
f 155 435 583 434
f 119 436 583 435
f 156 431 583 436
f 153 434 583 431
f 171 437 584 231
f 181 438 584 437
f 155 433 584 438
f 154 231 584 433
f 181 439 585 438
f 178 440 585 439
f 119 435 585 440
f 155 438 585 435
f 119 441 586 436
f 158 442 586 441
f 157 428 586 442
f 156 436 586 428
f 158 443 587 442
f 159 444 587 443
f 135 425 587 444
f 157 442 587 425
f 119 440 588 441
f 178 445 588 440
f 128 446 588 445
f 158 441 588 446
f 128 447 589 446
f 134 448 589 447
f 159 443 589 448
f 158 446 589 443
f 134 449 590 448
f 140 450 590 449
f 160 451 590 450
f 159 448 590 451
f 160 452 591 451
f 136 419 591 452
f 135 444 591 419
f 159 451 591 444
f 140 453 592 450
f 117 454 592 453
f 161 455 592 454
f 160 450 592 455
f 161 322 593 455
f 118 422 593 322
f 136 452 593 422
f 160 455 593 452
f 179 456 594 458
f 174 457 594 456
f 163 320 594 457
f 162 458 594 320
f 186 459 595 319
f 142 460 595 459
f 177 461 595 460
f 162 319 595 461
f 177 462 596 461
f 172 463 596 462
f 179 458 596 463
f 162 461 596 458
f 174 464 597 457
f 175 465 597 464
f 164 317 597 465
f 163 457 597 317
f 175 466 598 465
f 176 467 598 466
f 165 313 598 467
f 164 465 598 313
f 176 468 599 467
f 184 469 599 468
f 185 470 599 469
f 165 467 599 470
f 183 471 600 310
f 185 469 600 471
f 184 295 600 469
f 166 310 600 295
f 99 296 601 288
f 184 468 601 296
f 176 472 601 468
f 167 288 601 472
f 176 466 602 472
f 175 473 602 466
f 168 290 602 473
f 167 472 602 290
f 175 464 603 473
f 174 474 603 464
f 182 475 603 474
f 168 473 603 475
f 182 476 604 475
f 169 262 604 476
f 87 291 604 262
f 168 475 604 291
f 182 477 605 476
f 173 478 605 477
f 170 252 605 478
f 169 476 605 252
f 173 479 606 478
f 180 480 606 479
f 73 254 606 480
f 170 478 606 254
f 73 480 607 248
f 180 481 607 480
f 181 437 607 481
f 171 248 607 437
f 180 479 608 483
f 173 482 608 479
f 179 463 608 482
f 172 483 608 463
f 177 484 609 462
f 128 445 609 484
f 178 485 609 445
f 172 462 609 485
f 178 439 610 485
f 181 481 610 439
f 180 483 610 481
f 172 485 610 483
f 182 474 611 477
f 174 456 611 474
f 179 482 611 456
f 173 477 611 482
f 142 486 612 460
f 134 447 612 486
f 128 484 612 447
f 177 460 612 484
f 115 487 613 489
f 116 488 613 487
f 142 459 613 488
f 186 489 613 459
f 116 490 614 488
f 140 449 614 490
f 134 486 614 449
f 142 488 614 486
