v 0.0666219 0.410792 -0.0702332
v 0.0653435 0.415304 -0.0699701
v 0.0638063 0.410271 -0.0738904
v 0.0623688 0.414702 -0.0734702
v 0.0690819 0.411279 -0.0662589
v 0.0677637 0.415713 -0.0660045
v 0.0637813 0.419678 -0.0694401
v 0.0663781 0.420151 -0.0656577
v 0.0674111 0.406193 -0.0701424
v 0.0647513 0.405665 -0.0739484
v 0.0573648 0.41796 -0.0759482
v 0.0606153 0.418881 -0.0727375
v 0.0523653 0.421213 -0.0784288
v 0.0556159 0.422135 -0.0752181
v 0.0699828 0.416118 -0.061938
v 0.0685951 0.420525 -0.0616579
v 0.0699381 0.406704 -0.0662215
v 0.0639944 0.423999 -0.0646763
v 0.0677246 0.40152 -0.0697281
v 0.0648662 0.400994 -0.0733567
v 0.0588192 0.423025 -0.0719761
v 0.0614079 0.423513 -0.0683272
v 0.0504928 0.425307 -0.0776168
v 0.0530815 0.425795 -0.0739679
v 0.0662672 0.424297 -0.0607433
v 0.0714182 0.411765 -0.0622168
v 0.0721171 0.416642 -0.0577634
v 0.0703967 0.402068 -0.0659192
v 0.0647908 0.396313 -0.0726499
v 0.0680421 0.424717 -0.056696
v 0.073387 0.412248 -0.0579311
v 0.0722649 0.407226 -0.0621647
v 0.0743406 0.407742 -0.0579352
v 0.0702555 0.392804 -0.0646701
v 0.0703383 0.397434 -0.0652986
v 0.0677673 0.396858 -0.0691458
v 0.07039 0.420874 -0.0573973
v 0.0718336 0.421249 -0.0529634
v 0.0732772 0.421624 -0.0485295
v 0.069751 0.425146 -0.0526283
v 0.0737543 0.417097 -0.0533521
v 0.0724141 0.393384 -0.0607329
v 0.0726298 0.398013 -0.0613836
v 0.0742679 0.421963 -0.044069
v 0.0749938 0.412669 -0.0535131
v 0.0749986 0.417442 -0.0488225
v 0.0745349 0.398552 -0.0572697
v 0.072783 0.402627 -0.0619709
v 0.0746062 0.40313 -0.0576698
v 0.0764294 0.403633 -0.0533688
v 0.0744182 0.393952 -0.0567578
v 0.074929 0.422163 -0.0394843
v 0.0754802 0.422307 -0.0348484
v 0.0707387 0.42549 -0.0481832
v 0.0717254 0.42584 -0.043763
v 0.0763288 0.413042 -0.048967
v 0.0760593 0.408204 -0.0535752
v 0.077326 0.408563 -0.0490011
v 0.0761299 0.394448 -0.0525571
v 0.0762936 0.399043 -0.0529639
v 0.0728299 0.426048 -0.034843
v 0.0724303 0.426033 -0.039321
v 0.0698903 0.429359 -0.0303025
v 0.0773558 0.413315 -0.0443543
v 0.0781159 0.413503 -0.0396856
v 0.0760688 0.417729 -0.0442198
v 0.0775153 0.399435 -0.0486137
v 0.0777007 0.404003 -0.0488707
v 0.0773728 0.394839 -0.0482233
v 0.0768029 0.417932 -0.0395859
v 0.0772738 0.418043 -0.0349472
v 0.072824 0.425826 -0.0302698
v 0.0729463 0.425892 -0.0255751
v 0.0783137 0.408834 -0.0443824
v 0.0786369 0.399714 -0.0440365
v 0.0788445 0.404296 -0.0442988
v 0.079789 0.404468 -0.0396789
v 0.0784696 0.395141 -0.043882
v 0.0788034 0.413674 -0.0350278
v 0.077333 0.417991 -0.0302345
v 0.075741 0.422332 -0.0302064
v 0.075445 0.422131 -0.0255406
v 0.0697166 0.429168 -0.0258401
v 0.0790505 0.409011 -0.0397077
v 0.0788293 0.413609 -0.0302858
v 0.0770121 0.417791 -0.0255711
v 0.0796529 0.409127 -0.0350496
v 0.079582 0.399887 -0.0395322
v 0.0801651 0.404534 -0.0350283
v 0.0798178 0.409102 -0.0303333
v 0.0727021 0.4258 -0.0209993
v 0.0693743 0.429036 -0.021422
v 0.0793107 0.395294 -0.039376
v 0.0794657 0.395286 -0.0348842
v 0.0796207 0.395277 -0.0303924
v 0.0798464 0.399922 -0.0349231
v 0.0800013 0.399914 -0.0304313
v 0.0795361 0.408982 -0.0256272
v 0.0786712 0.413514 -0.0255758
v 0.0781525 0.413329 -0.0208845
v 0.0766193 0.417653 -0.0208789
v 0.0750861 0.421976 -0.0208734
v 0.0721374 0.425768 -0.0165521
v 0.06887 0.428982 -0.0170116
v 0.0682439 0.428974 -0.0125271
v 0.0676179 0.428966 -0.0080425
v 0.0800159 0.399869 -0.0258508
v 0.080294 0.404528 -0.0304146
v 0.0792561 0.408864 -0.0209218
v 0.0757818 0.417381 -0.0162841
v 0.0742668 0.421715 -0.0162828
v 0.0712391 0.425494 -0.0120488
v 0.0650555 0.43216 -0.0131898
v 0.0644849 0.432134 -0.00884787
v 0.0800924 0.404434 -0.025707
v 0.0772935 0.413034 -0.0162652
v 0.0735023 0.421482 -0.0116967
v 0.0701612 0.425146 -0.00757205
v 0.07938 0.399687 -0.021265
v 0.0786883 0.399404 -0.0168002
v 0.079346 0.404302 -0.0210604
v 0.0774132 0.40818 -0.0117306
v 0.0762782 0.412664 -0.011657
v 0.0749313 0.417085 -0.0116617
v 0.072161 0.421026 -0.0072349
v 0.0687104 0.424689 -0.00316535
v 0.063176 0.431778 -0.00496423
v 0.0611891 0.431558 -0.000982841
v 0.0592021 0.431338 0.00299855
v 0.0786248 0.404008 -0.0165829
v 0.0776301 0.403618 -0.0119878
v 0.0784501 0.408573 -0.0163178
v 0.0736683 0.416653 -0.00714614
v 0.0720663 0.416141 -0.00273524
v 0.070568 0.420501 -0.00287632
v 0.0667176 0.424309 0.000976464
v 0.0664399 0.428707 -0.00363699
v 0.064597 0.423856 0.00502094
v 0.064207 0.428199 0.00021347
v 0.0619843 0.427698 0.00405867
v 0.0571488 0.431039 0.00694161
v 0.0777423 0.39903 -0.0123045
v 0.0792879 0.394931 -0.0169331
v 0.0799281 0.395302 -0.0259131
v 0.0797062 0.395148 -0.0214216
v 0.07484 0.412186 -0.00719431
v 0.0732431 0.411681 -0.00276031
v 0.0700102 0.415608 0.00141405
v 0.0684434 0.419999 0.00121587
v 0.0597592 0.427196 0.00790297
v 0.057067 0.4266 0.0115707
v 0.0543749 0.426004 0.0152385
v 0.0548026 0.430513 0.0107401
v 0.0764441 0.39854 -0.00793032
v 0.0762264 0.403116 -0.00760522
v 0.0787195 0.394701 -0.0124149
v 0.075813 0.407679 -0.00731918
v 0.0740437 0.407144 -0.00296563
v 0.0676093 0.415073 0.00541782
v 0.066183 0.419499 0.00524846
v 0.0637342 0.418948 0.00920797
v 0.0609479 0.418279 0.0128152
v 0.0620032 0.423268 0.00872046
v 0.059217 0.4226 0.0123277
v 0.0564307 0.421931 0.0159349
v 0.0747601 0.398032 -0.00367934
v 0.0746246 0.402597 -0.003249
v 0.0856622 0.388175 -0.0213773
v 0.0822502 0.391459 -0.0168397
v 0.081888 0.391348 -0.0121792
v 0.0781668 0.394487 -0.00789708
v 0.0712523 0.411154 0.00147324
v 0.0689997 0.41063 0.00556679
v 0.0652068 0.414533 0.00942343
v 0.0578633 0.417555 0.0162555
v 0.0547568 0.416826 0.0196836
v 0.0731349 0.397576 0.000578457
v 0.0724779 0.402032 0.000796458
v 0.0825337 0.391596 -0.0214049
v 0.0853636 0.388091 -0.0166611
v 0.0812653 0.391118 -0.00758262
v 0.070199 0.401471 0.0048264
v 0.0718831 0.406613 0.0011707
v 0.0696014 0.406053 0.00520117
v 0.0663559 0.41002 0.0094074
v 0.0635969 0.409389 0.013176
v 0.0513352 0.416017 0.022783
v 0.0532625 0.421186 0.0192875
v 0.0623452 0.413874 0.0130832
v 0.0592476 0.413153 0.016525
v 0.0561501 0.412432 0.0199668
v 0.0793038 0.390643 0.00173933
v 0.0773104 0.394258 -0.00329319
v 0.0760784 0.394046 0.00111044
v 0.0825064 0.391646 -0.0259004
v 0.0804229 0.390861 -0.00289014
v 0.0849768 0.387956 -0.0119432
v 0.0842089 0.387655 -0.00725565
v 0.0671091 0.405463 0.00912627
v 0.0477067 0.415098 0.0255782
v 0.043946 0.413811 0.0277176
v 0.0604586 0.408639 0.0165345
v 0.0571425 0.407814 0.0196535
v 0.0538264 0.406989 0.0227725
v 0.0714886 0.397221 0.00488113
v 0.0745831 0.393809 0.00557541
v 0.0728524 0.393551 0.0100952
v 0.0822122 0.39161 -0.0304334
v 0.0878678 0.384243 -0.0213588
v 0.081699 0.386694 0.00187697
v 0.0677848 0.400891 0.00878821
v 0.039572 0.411903 0.0297129
v 0.049226 0.410337 0.0253194
v 0.0454655 0.40905 0.027457
v 0.0417051 0.407763 0.0295946
v 0.0580895 0.403242 0.019414
v 0.0547102 0.402349 0.0223597
v 0.0502676 0.405831 0.0251753
v 0.0697896 0.396948 0.00916183
v 0.0678497 0.396665 0.0132701
v 0.0852451 0.388146 -0.0305969
v 0.0854898 0.388171 -0.0259205
v 0.0873957 0.38403 -0.0166597
v 0.0868319 0.383764 -0.0119725
v 0.0832634 0.387281 -0.00261586
v 0.0648943 0.400151 0.0123528
v 0.0643096 0.404795 0.0128296
v 0.0376863 0.406222 0.0315907
v 0.0349936 0.409791 0.0316185
v 0.0466306 0.40458 0.0273751
v 0.0529575 0.411637 0.0232207
v 0.0612746 0.404029 0.0162127
v 0.0709327 0.393198 0.0143058
v 0.0817892 0.391524 -0.035016
v 0.087974 0.38437 -0.0260647
v 0.084859 0.388095 -0.0351846
v 0.0811618 0.391411 -0.0394706
v 0.0877276 0.384382 -0.0307408
v 0.084029 0.387833 -0.0397158
v 0.0874516 0.38438 -0.0354044
v 0.0868143 0.384201 -0.0400096
v 0.0803053 0.391139 -0.0439799
v 0.0847157 0.38356 -0.0491055
v 0.0858026 0.383847 -0.0445628
v 0.081968 0.387205 -0.0488142
v 0.0830549 0.387492 -0.0442715
v 0.0793151 0.386466 -0.0576379
v 0.0807787 0.386883 -0.0533011
v 0.0790897 0.390805 -0.0484515
v 0.0834972 0.38318 -0.0536109
v 0.0777487 0.390426 -0.0527545
v 0.079871 0.382013 -0.0621939
v 0.0817918 0.382633 -0.0579568
v 0.0755202 0.385275 -0.0659232
v 0.0778176 0.386049 -0.0618753
v 0.0727355 0.388987 -0.0652271
v 0.0764094 0.390051 -0.0570296
v 0.0735142 0.384802 -0.0700932
v 0.0748319 0.389624 -0.0611838
v 0.0706784 0.388501 -0.0693473
v 0.0677575 0.392278 -0.0684578
f 2 6 5 1
f 5 17 9 1
f 9 10 3 1
f 3 4 2 1
f 7 8 6 2
f 4 12 7 2
f 6 15 26 5
f 26 32 17 5
f 8 16 15 6
f 22 18 8 7
f 12 21 22 7
f 18 25 16 8
f 17 28 19 9
f 19 20 10 9
f 14 21 12 11
f 23 24 14 13
f 16 37 27 15
f 27 31 26 15
f 25 30 37 16
f 32 48 28 17
f 28 35 36 19
f 36 29 20 19
f 31 33 32 26
f 37 38 41 27
f 41 45 31 27
f 48 43 35 28
f 40 38 37 30
f 45 57 33 31
f 33 49 48 32
f 57 50 49 33
f 35 43 42 34
f 42 259 256 34
f 256 260 261 34
f 261 36 35 34
f 40 54 39 38
f 39 46 41 38
f 54 55 44 39
f 44 66 46 39
f 46 56 45 41
f 43 47 51 42
f 51 257 259 42
f 48 49 47 43
f 55 62 52 44
f 52 70 66 44
f 56 58 57 45
f 66 64 56 46
f 49 50 60 47
f 60 59 51 47
f 57 58 68 50
f 68 67 60 50
f 59 251 257 51
f 62 61 53 52
f 53 71 70 52
f 61 72 81 53
f 81 80 71 53
f 64 74 58 56
f 74 76 68 58
f 60 67 69 59
f 69 249 251 59
f 83 73 72 63
f 66 70 65 64
f 65 84 74 64
f 70 71 79 65
f 79 87 84 65
f 68 76 75 67
f 75 78 69 67
f 78 242 249 69
f 80 85 79 71
f 73 82 81 72
f 83 92 91 73
f 91 102 82 73
f 84 77 76 74
f 76 77 88 75
f 88 93 78 75
f 84 87 89 77
f 89 96 88 77
f 93 237 242 78
f 85 90 87 79
f 81 82 86 80
f 86 99 85 80
f 102 101 86 82
f 99 98 90 85
f 101 100 99 86
f 90 108 89 87
f 96 94 93 88
f 108 97 96 89
f 98 115 108 90
f 92 104 103 91
f 103 111 102 91
f 94 234 237 93
f 96 97 95 94
f 95 208 234 94
f 97 107 144 95
f 144 195 208 95
f 108 115 107 97
f 99 100 109 98
f 109 121 115 98
f 101 110 116 100
f 116 132 109 100
f 102 111 110 101
f 104 105 112 103
f 112 117 111 103
f 113 114 106 105
f 106 118 112 105
f 114 127 137 106
f 137 126 118 106
f 115 121 119 107
f 119 145 144 107
f 132 130 121 109
f 111 117 124 110
f 124 123 116 110
f 118 125 117 112
f 123 122 132 116
f 125 133 124 117
f 126 135 125 118
f 121 130 120 119
f 120 143 145 119
f 130 131 142 120
f 142 156 143 120
f 123 146 157 122
f 157 155 131 122
f 131 130 132 122
f 124 133 146 123
f 135 134 133 125
f 137 139 136 126
f 136 149 135 126
f 128 139 137 127
f 129 140 139 128
f 141 150 140 129
f 155 154 142 131
f 134 147 146 133
f 135 149 148 134
f 148 172 147 134
f 139 140 138 136
f 138 160 149 136
f 140 150 163 138
f 163 161 160 138
f 153 151 150 141
f 154 171 156 142
f 156 170 169 143
f 169 179 145 143
f 145 179 195 144
f 147 158 157 146
f 172 183 158 147
f 149 160 159 148
f 159 173 172 148
f 151 164 163 150
f 152 165 164 151
f 155 167 166 154
f 166 193 171 154
f 157 158 167 155
f 171 181 170 156
f 183 178 167 158
f 160 161 174 159
f 174 185 173 159
f 163 164 162 161
f 162 189 174 161
f 164 165 175 162
f 175 190 189 162
f 188 176 175 165
f 167 178 177 166
f 177 194 193 166
f 179 169 180 168
f 180 223 209 168
f 209 235 222 168
f 222 195 179 168
f 170 197 180 169
f 181 198 197 170
f 193 196 181 171
f 173 184 183 172
f 185 199 184 173
f 189 186 185 174
f 176 191 190 175
f 187 231 191 176
f 178 182 205 177
f 205 206 194 177
f 183 184 182 178
f 197 224 223 180
f 196 225 198 181
f 184 199 211 182
f 211 219 205 182
f 186 227 199 185
f 189 190 202 186
f 202 232 227 186
f 200 213 231 187
f 191 203 202 190
f 231 204 203 191
f 210 225 196 192
f 196 193 194 192
f 222 221 208 195
f 227 226 211 199
f 201 214 213 200
f 212 215 214 201
f 203 216 232 202
f 204 217 216 203
f 231 213 218 204
f 219 207 206 205
f 219 220 233 207
f 221 236 234 208
f 226 220 219 211
f 229 228 215 212
f 214 230 218 213
f 222 235 238 221
f 238 240 236 221
f 236 239 237 234
f 240 241 239 236
f 239 246 242 237
f 241 244 246 239
f 246 245 249 242
f 245 246 244 243
f 250 248 245 243
f 248 251 249 245
f 257 251 248 247
f 248 250 253 247
f 253 252 255 247
f 255 259 257 247
f 256 259 255 254
f 258 260 256 254
