# https://github.com/mikedh/trimesh
v -0.19952274 -0.37177167 -0.02402353
v -0.19150288 -0.37686963 -0.02395770
v -0.19049676 -0.38133177 -0.01221977
v -0.17859761 -0.38684544 -0.01578205
v -0.20328612 -0.36933887 -0.01437525
v -0.18069100 -0.38434700 -0.00676025
v -0.21153275 -0.36136876 -0.02559834
v -0.17583640 -0.38791481 -0.01113213
v -0.21066400 -0.36051801 -0.01961300
v -0.20852800 -0.36335799 -0.01617900
v -0.17288300 -0.38811201 -0.01101600
v -0.19611663 -0.38144638 -0.03527575
v -0.20459030 -0.37466065 -0.03601582
v -0.20004606 -0.37820058 -0.03286283
v -0.19685750 -0.37827250 -0.04797387
v -0.20788867 -0.37086164 -0.03564023
v -0.20558100 -0.37123150 -0.04663450
v -0.20843300 -0.36864600 -0.04361700
v -0.21134115 -0.36398981 -0.03981644
v -0.20013222 -0.37851614 -0.04535661
v -0.21329700 -0.35779999 -0.03271950
v -0.19740625 -0.38047251 -0.04427150
v -0.21371975 -0.35412925 -0.03233287
v -0.20103100 -0.37125849 -0.05255300
v -0.19757099 -0.37495399 -0.05166100
v -0.21165800 -0.34462199 -0.00929800
v -0.20490900 -0.33775601 0.00087800
v -0.19560894 -0.32792981 0.00648356
v -0.17511851 -0.31268101 0.01192150
v -0.17691550 -0.31811026 0.01359375
v -0.20494165 -0.30240785 -0.01026426
v -0.19266750 -0.30441600 0.00066550
v -0.20629850 -0.30218926 -0.01713850
v -0.21134400 -0.30187899 -0.03391800
v -0.18610037 -0.30570451 0.00543612
v -0.21166864 -0.30166901 -0.05459782
v -0.20917750 -0.30210501 -0.05828600
v -0.21373101 -0.34404999 -0.05623300
v -0.21395178 -0.33905674 -0.05648114
v -0.21548485 -0.33263297 -0.04388694
v -0.21446084 -0.32944737 -0.05170005
v -0.21374564 -0.32203264 -0.05236245
v -0.21559601 -0.33332101 -0.03964000
v -0.21453031 -0.32119356 -0.04514547
v -0.21324367 -0.31785645 -0.05275304
v -0.21554548 -0.34364721 -0.04413627
v -0.21413507 -0.34910442 -0.05137727
v -0.21564800 -0.34061700 -0.03277300
v -0.21315513 -0.31105632 -0.04370496
v -0.21574918 -0.33539346 -0.03414157
v -0.21549599 -0.34813302 -0.03726655
v -0.21487699 -0.34462199 -0.02361800
v -0.21264659 -0.30811502 -0.03835078
v -0.21476001 -0.34805501 -0.02533500
v -0.21464555 -0.34178897 -0.02012062
v -0.21508958 -0.32442892 -0.03309587
v -0.21331150 -0.32018494 -0.02432364
v -0.21301500 -0.34689701 -0.05851600
v -0.21175885 -0.31283768 -0.05647580
v -0.21088400 -0.35410107 -0.06239531
v -0.21399776 -0.34492732 -0.01721547
v -0.21444950 -0.33001978 -0.02281127
v -0.21199694 -0.35535928 -0.05640356
v -0.21194707 -0.32335976 -0.06163126
v -0.21074621 -0.33809399 -0.06733060
v -0.20958200 -0.34805101 -0.06882100
v -0.21033201 -0.33475199 -0.06800800
v -0.21199434 -0.34484341 -0.06337563
v -0.20958100 -0.32403499 -0.06767400
v -0.20959575 -0.31471213 -0.06413325
v -0.20981437 -0.35754626 -0.06276306
v -0.20958599 -0.32856899 -0.06882900
v -0.21174639 -0.31446442 -0.02183409
v -0.20934400 -0.35148901 -0.06796200
v -0.20732200 -0.35956100 -0.06660000
v -0.20668800 -0.36299249 -0.06342800
v -0.19399174 -0.31442665 0.00475138
v -0.20092780 -0.32946630 0.00353974
v -0.19947612 -0.32232363 0.00260030
v -0.20219673 -0.31201447 -0.00429020
v -0.20210412 -0.31615537 -0.00250598
v -0.20504731 -0.32779732 -0.00155494
v -0.20680102 -0.32660769 -0.00412365
v -0.20419766 -0.31806674 -0.00422470
v -0.20853381 -0.33831523 -0.00370530
v -0.21138117 -0.32966643 -0.01093218
v -0.20918800 -0.33364413 -0.00556102
v -0.21160736 -0.33755512 -0.00947539
v -0.20775422 -0.31301496 -0.01261406
v -0.18465634 -0.31774363 0.01105849
f 19 7 21
f 9 21 7
f 5 9 7
f 10 9 5
f 3 5 7
f 1 3 7
f 3 1 2
f 4 3 2
f 8 3 4
f 4 11 8
f 6 3 8
f 11 6 8
f 7 19 16
f 16 19 18
f 19 76 18
f 19 71 76
f 75 76 71
f 60 75 71
f 75 60 74
f 60 66 74
f 68 66 60
f 65 66 68
f 65 68 64
f 39 64 68
f 39 68 58
f 39 58 38
f 38 58 46
f 46 58 47
f 47 58 60
f 47 60 63
f 51 47 63
f 51 63 19
f 51 19 23
f 54 51 23
f 61 51 54
f 52 51 61
f 55 52 61
f 26 55 61
f 88 55 26
f 86 55 88
f 87 86 88
f 87 88 85
f 87 85 27
f 78 87 27
f 78 82 87
f 82 83 87
f 79 83 82
f 77 83 79
f 77 84 83
f 84 86 83
f 80 86 84
f 80 89 86
f 89 33 86
f 89 31 33
f 33 73 86
f 73 62 86
f 73 57 62
f 57 73 56
f 73 34 56
f 53 56 34
f 53 49 56
f 56 49 44
f 56 44 40
f 56 40 43
f 56 43 50
f 62 56 50
f 62 50 55
f 50 48 55
f 48 46 55
f 55 46 51
f 48 50 46
f 43 46 50
f 40 46 43
f 40 39 46
f 40 41 39
f 40 44 41
f 44 42 41
f 45 42 44
f 42 45 64
f 59 64 45
f 37 64 59
f 37 70 64
f 70 69 64
f 69 72 64
f 64 72 67
f 37 59 36
f 36 59 45
f 36 45 49
f 42 64 41
f 49 45 44
f 36 49 53
f 34 36 53
f 57 56 62
f 34 73 33
f 80 31 89
f 32 31 80
f 80 77 32
f 80 81 77
f 32 77 35
f 35 77 90
f 90 77 28
f 30 90 28
f 77 78 28
f 30 35 90
f 29 35 30
f 81 80 84
f 81 84 77
f 77 79 78
f 79 82 78
f 28 78 27
f 27 85 26
f 83 86 87
f 62 55 86
f 85 88 26
f 55 51 52
f 61 54 23
f 61 23 26
f 46 47 51
f 46 39 38
f 41 64 39
f 64 67 65
f 67 66 65
f 58 68 60
f 63 60 71
f 63 71 19
f 16 18 17
f 17 20 16
f 24 20 17
f 25 20 24
f 25 15 20
f 22 20 15
f 13 16 20
f 14 13 20
f 14 20 12
f 12 20 22
f 14 16 13
f 1 16 14
f 12 1 14
f 2 1 12
f 2 12 4
f 7 16 1

