v 0.212048 -0.337363 -0.0100407
v 0.210314 -0.34836 -0.00658493
v 0.212218 -0.3478 -0.0111527
v 0.211488 -0.353313 -0.0119814
v 0.209306 -0.361076 -0.0134294
v 0.213558 -0.339418 -0.0144083
v 0.207146 -0.365929 -0.0227468
v 0.206382 -0.36664 -0.0217295
v 0.205617 -0.36735 -0.0207122
v 0.204853 -0.36806 -0.019695
v 0.207452 -0.365398 -0.0196573
v 0.206688 -0.366108 -0.01864
v 0.205923 -0.366818 -0.0176227
v 0.205159 -0.367528 -0.0166055
v 0.205465 -0.366997 -0.013516
v 0.203853 -0.368994 -0.0185686
v 0.203832 -0.368775 -0.015327
v 0.20096 -0.371495 -0.013331
v 0.203811 -0.368556 -0.0120854
v 0.211431 -0.344014 -0.00930107
v 0.211085 -0.341318 -0.00791691
v 0.209932 -0.340473 -0.00551516
v 0.21099 -0.338918 -0.00777791
v 0.209747 -0.337681 -0.00552807
v 0.215596 -0.332223 -0.0425227
v 0.208363 -0.3308 -0.00518135
v 0.207842 -0.335314 -0.00299518
v 0.206306 -0.330698 -0.00239287
v 0.206941 -0.324485 -0.0047707
v 0.20477 -0.326082 -0.00179056
v 0.205273 -0.319866 -0.00457271
v 0.203157 -0.321464 -0.00142657
v 0.203457 -0.315244 -0.00483471
v 0.201641 -0.310622 -0.00509672
v 0.205703 -0.313903 -0.0085313
v 0.20383 -0.309168 -0.0085522
v 0.201957 -0.304434 -0.0085731
v 0.209016 -0.319556 -0.0106302
v 0.207561 -0.318503 -0.00858564
v 0.206178 -0.306327 -0.0139099
v 0.204491 -0.30311 -0.0130517
v 0.209353 -0.312819 -0.0158347
v 0.209636 -0.308883 -0.0198629
v 0.207778 -0.309569 -0.0148593
v 0.209919 -0.304946 -0.0238911
v 0.208061 -0.305633 -0.0188875
v 0.206485 -0.302384 -0.0179121
v 0.159381 -0.365762 -0.0143536
v 0.211205 -0.313783 -0.0206863
v 0.211483 -0.310948 -0.024613
v 0.21286 -0.318152 -0.0235881
v 0.21199 -0.317654 -0.0203107
v 0.212658 -0.315895 -0.0247853
v 0.212819 -0.330405 -0.0156441
v 0.213743 -0.334716 -0.0170201
v 0.213928 -0.330014 -0.0196318
v 0.21324 -0.334031 -0.0155642
v 0.213688 -0.344862 -0.0162164
v 0.214616 -0.325997 -0.0236995
v 0.215719 -0.341349 -0.0301571
v 0.215856 -0.33285 -0.0351968
v 0.215782 -0.333872 -0.0330258
v 0.215708 -0.334894 -0.0308548
v 0.215634 -0.335916 -0.0286838
v 0.215383 -0.328285 -0.0311366
v 0.215293 -0.329333 -0.0290725
v 0.215203 -0.330381 -0.0270085
v 0.1672 -0.353734 -0.0180146
v 0.166726 -0.356524 -0.0215086
v 0.166848 -0.356625 -0.022463
v 0.214735 -0.323508 -0.0321346
v 0.214695 -0.324338 -0.0293229
v 0.214655 -0.325168 -0.0265112
v 0.16621 -0.35523 -0.0170778
v 0.214052 -0.318877 -0.033631
v 0.214012 -0.319707 -0.0308193
v 0.213973 -0.320536 -0.0280076
v 0.164109 -0.359878 -0.0192713
v 0.213369 -0.314246 -0.0351274
v 0.21333 -0.315075 -0.0323157
v 0.212687 -0.309614 -0.0366238
v 0.212004 -0.304983 -0.0381202
v 0.212664 -0.309638 -0.0337009
v 0.159815 -0.368958 -0.0182195
v 0.157675 -0.371735 -0.014355
v 0.163637 -0.359262 -0.00890543
v 0.191171 -0.37856 -0.0608309
v 0.204981 -0.359014 -0.0721059
v 0.194777 -0.375901 -0.0621473
v 0.215559 -0.336649 -0.0430759
v 0.215416 -0.338081 -0.0395992
v 0.212014 -0.306233 -0.0460879
v 0.211306 -0.303547 -0.0491338
v 0.211641 -0.303812 -0.0440066
v 0.211945 -0.312958 -0.055649
v 0.212128 -0.310018 -0.0523617
v 0.211507 -0.309154 -0.0543612
v 0.21169 -0.306214 -0.0510739
v 0.213327 -0.314135 -0.0292598
v 0.214632 -0.351187 -0.0400899
v 0.21082 -0.304821 -0.0533913
v 0.208321 -0.314768 -0.0678216
v 0.169684 -0.378022 -0.075827
v 0.209452 -0.330958 -0.069754
v 0.195704 -0.375259 -0.0639753
v 0.211094 -0.329941 -0.0655186
v 0.212823 -0.329925 -0.0605267
v 0.21066 -0.324797 -0.0653218
v 0.210227 -0.319654 -0.065125
v 0.21222 -0.324795 -0.0602782
v 0.211584 -0.319667 -0.0600195
v 0.213931 -0.320906 -0.0256683
v 0.212233 -0.349374 -0.061313
v 0.211789 -0.340301 -0.0642939
v 0.21255 -0.340339 -0.0616534
v 0.213311 -0.340377 -0.059013
v 0.212413 -0.335101 -0.0622833
v 0.213174 -0.335138 -0.0596429
v 0.210968 -0.347653 -0.0655978
v 0.21177 -0.34781 -0.0628598
v 0.210764 -0.344356 -0.0672439
v 0.211566 -0.344513 -0.0645059
v 0.212369 -0.34467 -0.0617679
v 0.213171 -0.344827 -0.0590299
v 0.208595 -0.348834 -0.0708385
v 0.205283 -0.362108 -0.0675375
v 0.20406 -0.365065 -0.0681878
v 0.202653 -0.365564 -0.0698337
v 0.203687 -0.366744 -0.0641006
v 0.208643 -0.324157 -0.0699335
v 0.207912 -0.333004 -0.0731233
v 0.203349 -0.368804 -0.058588
v 0.206868 -0.364502 -0.0569206
v 0.207107 -0.365173 -0.054068
v 0.210516 -0.360033 -0.0551222
v 0.210883 -0.360536 -0.0521386
v 0.21125 -0.361039 -0.049155
v 0.211716 -0.361294 -0.0450558
v 0.213511 -0.356337 -0.0453044
v 0.209851 -0.36623 -0.0447948
v 0.209975 -0.366577 -0.0396832
v 0.212133 -0.36243 -0.039719
v 0.210069 -0.366192 -0.0348887
v 0.212063 -0.362026 -0.0349363
v 0.210149 -0.35953 -0.0581058
v 0.206834 -0.354354 -0.0706649
v 0.214648 -0.351614 -0.0303592
v 0.201034 -0.368516 -0.0703324
v 0.213409 -0.354105 -0.0235397
v 0.207696 -0.370353 -0.034714
v 0.204362 -0.374723 -0.0393829
v 0.197002 -0.382148 -0.0384878
v 0.200718 -0.37847 -0.0389606
v 0.204373 -0.374301 -0.0342857
v 0.213061 -0.311668 -0.0427887
v 0.208256 -0.343115 -0.0730719
v 0.169977 -0.329842 -0.0961369
v 0.213881 -0.316507 -0.0419077
v 0.159091 -0.374228 -0.0566078
v 0.159701 -0.371614 -0.0692919
v 0.214977 -0.323129 -0.0371367
v 0.21049 -0.352988 -0.00768958
v 0.203517 -0.374449 -0.0442015
v 0.206972 -0.370548 -0.0444651
v 0.214273 -0.323452 -0.0246839
v 0.207086 -0.369287 -0.0299872
v 0.206093 -0.367805 -0.0254491
v 0.162761 -0.366264 -0.0542008
v 0.200561 -0.377888 -0.0338897
v 0.203544 -0.373023 -0.0296263
v 0.196331 -0.381022 -0.0336994
v 0.195004 -0.379192 -0.0291898
v 0.199315 -0.376158 -0.0294367
v 0.202299 -0.371295 -0.025174
v 0.186812 -0.386277 -0.0330006
v 0.191792 -0.383849 -0.0334004
v 0.190432 -0.38199 -0.0288833
v 0.182491 -0.389905 -0.0374035
v 0.187642 -0.387638 -0.0377334
v 0.177497 -0.391676 -0.0372194
v 0.177173 -0.390549 -0.032424
v 0.171999 -0.390634 -0.0331795
v 0.171568 -0.387562 -0.0294342
v 0.160926 -0.370246 -0.0554043
v 0.20663 -0.363832 -0.0597731
v 0.186063 -0.384005 -0.0281647
v 0.190156 -0.377902 -0.0246213
v 0.194104 -0.375976 -0.0249775
v 0.198016 -0.374226 -0.0249543
v 0.17649 -0.387604 -0.0286173
v 0.181976 -0.388832 -0.032355
v 0.207717 -0.370716 -0.0396316
v 0.21417 -0.357764 -0.0399154
v 0.215474 -0.327018 -0.0356195
v 0.215564 -0.32663 -0.0369917
v 0.209909 -0.325593 -0.0103928
v 0.213213 -0.320334 -0.0540262
v 0.213179 -0.323839 -0.0560572
v 0.214705 -0.343737 -0.0512239
v 0.213666 -0.320013 -0.0516629
v 0.214534 -0.347288 -0.0504493
v 0.214063 -0.344844 -0.0555515
v 0.213138 -0.347186 -0.0585382
v 0.213749 -0.347908 -0.0554241
v 0.212838 -0.350091 -0.0582205
v 0.213442 -0.350808 -0.0551279
v 0.214059 -0.351058 -0.050419
v 0.214667 -0.351168 -0.0454075
v 0.212823 -0.356214 -0.0502448
v 0.212293 -0.35574 -0.0535769
v 0.208437 -0.365717 -0.0494461
v 0.205076 -0.369696 -0.0488158
v 0.20311 -0.368133 -0.0614405
v 0.203264 -0.368891 -0.0532007
v 0.213247 -0.31683 -0.0519952
v 0.198789 -0.372391 -0.0571456
v 0.207529 -0.320143 -0.0712829
v 0.206711 -0.323103 -0.0735403
v 0.19534 -0.375242 -0.0667095
v 0.207004 -0.318937 -0.0718249
v 0.194996 -0.375029 -0.0672342
v 0.194653 -0.374817 -0.0677589
v 0.183676 -0.382687 -0.0679579
v 0.189462 -0.377963 -0.0687494
v 0.195248 -0.37324 -0.0695409
v 0.199562 -0.364714 -0.0747492
v 0.210646 -0.340305 -0.0680034
v 0.19809 -0.360913 -0.0791661
v 0.199679 -0.361759 -0.0769031
v 0.210405 -0.335142 -0.0684594
v 0.213667 -0.323681 -0.0535889
v 0.200536 -0.35903 -0.0782149
v 0.213827 -0.328086 -0.0550419
v 0.202637 -0.355184 -0.078097
v 0.198884 -0.356566 -0.0807921
v 0.199021 -0.353391 -0.0821258
v 0.201237 -0.353173 -0.0803891
v 0.199157 -0.350216 -0.0834595
v 0.201504 -0.349452 -0.0814648
v 0.199685 -0.345404 -0.0840191
v 0.196338 -0.345988 -0.0861793
v 0.196585 -0.341017 -0.0867146
v 0.192303 -0.3313 -0.0899495
v 0.196311 -0.330911 -0.0868214
v 0.195778 -0.325847 -0.0864938
v 0.191745 -0.32629 -0.0897111
v 0.189918 -0.334701 -0.0911796
v 0.1901 -0.338527 -0.0906025
v 0.192503 -0.344365 -0.0885412
v 0.189422 -0.330013 -0.0911329
v 0.188463 -0.327446 -0.091373
v 0.187503 -0.32488 -0.091613
v 0.186499 -0.321924 -0.0916638
v 0.189826 -0.316472 -0.0886035
v 0.190998 -0.321325 -0.0893591
v 0.194023 -0.315942 -0.0855961
v 0.1981 -0.315444 -0.0823714
v 0.199112 -0.320425 -0.0828862
v 0.202308 -0.320204 -0.0787736
v 0.20137 -0.315223 -0.0783171
v 0.204459 -0.314954 -0.074041
v 0.200431 -0.310243 -0.0778606
v 0.203077 -0.324961 -0.0793648
v 0.205234 -0.32347 -0.0758278
v 0.205258 -0.31975 -0.0746086
v 0.203487 -0.330073 -0.0795564
v 0.205531 -0.328216 -0.0762895
v 0.206334 -0.337338 -0.0764776
v 0.206412 -0.34771 -0.0753551
v 0.206354 -0.342635 -0.0760667
v 0.208672 -0.340766 -0.0722009
v 0.200526 -0.34073 -0.0834077
v 0.203927 -0.335416 -0.0795511
v 0.200304 -0.33562 -0.0833383
v 0.200076 -0.330562 -0.08323
v 0.203454 -0.309969 -0.0736629
v 0.192532 -0.306223 -0.0850775
v 0.196287 -0.305707 -0.0815801
v 0.214918 -0.33458 -0.0503798
v 0.197005 -0.310713 -0.0816073
v 0.193447 -0.311224 -0.085218
v 0.189144 -0.311657 -0.0883705
v 0.183964 -0.307617 -0.0904024
v 0.188588 -0.306792 -0.0882812
v 0.184821 -0.312552 -0.0906114
v 0.213972 -0.332508 -0.0554884
v 0.213944 -0.341279 -0.056627
v 0.195122 -0.320845 -0.0861892
v 0.199693 -0.325486 -0.0831029
v 0.196612 -0.33598 -0.0869544
v 0.19218 -0.341339 -0.0893035
v 0.192212 -0.336306 -0.0896014
v 0.202815 -0.344984 -0.080556
v 0.20414 -0.340525 -0.0796232
v 0.196517 -0.359959 -0.081198
v 0.196366 -0.356775 -0.0825978
v 0.196215 -0.353591 -0.0839976
v 0.196063 -0.350407 -0.0853974
v 0.192263 -0.36935 -0.0773535
v 0.188691 -0.373177 -0.0763691
v 0.212552 -0.338048 -0.0114965
v 0.179919 -0.382937 -0.0703606
v 0.182369 -0.380312 -0.072467
v 0.174091 -0.385552 -0.0703741
v 0.177014 -0.385684 -0.0672714
v 0.176696 -0.382611 -0.0727803
v 0.173116 -0.382068 -0.0738018
v 0.170702 -0.387697 -0.0670162
v 0.167301 -0.385388 -0.0692518
v 0.21463 -0.339907 -0.0526022
v 0.162299 -0.378377 -0.0698206
v 0.214322 -0.336286 -0.0539353
v 0.16656 -0.371407 -0.0766338
v 0.16949 -0.363157 -0.078198
v 0.169515 -0.368463 -0.0787599
v 0.172447 -0.360203 -0.080325
v 0.172454 -0.366111 -0.0807047
v 0.175516 -0.364045 -0.082371
v 0.177461 -0.354238 -0.0859337
v 0.174683 -0.358057 -0.0819038
v 0.170539 -0.355747 -0.0780301
v 0.173111 -0.351348 -0.0833511
v 0.175677 -0.347618 -0.0881793
v 0.170535 -0.343789 -0.0877122
v 0.173585 -0.341407 -0.0911617
v 0.17856 -0.344712 -0.0911483
v 0.176501 -0.33822 -0.0933447
v 0.183688 -0.347763 -0.0906537
v 0.179799 -0.367553 -0.0822657
v 0.183152 -0.363998 -0.083777
v 0.181816 -0.357686 -0.0865215
v 0.186504 -0.360443 -0.0852884
v 0.185169 -0.354132 -0.0880328
v 0.188327 -0.349464 -0.089506
v 0.189925 -0.34249 -0.0902144
v 0.192365 -0.350243 -0.0876049
v 0.192872 -0.355092 -0.0857764
v 0.189543 -0.355633 -0.0868105
v 0.189748 -0.361855 -0.0838483
v 0.184025 -0.375425 -0.0769305
v 0.18577 -0.370924 -0.0794299
v 0.187515 -0.366423 -0.0819293
v 0.189724 -0.367397 -0.080359
v 0.186935 -0.334582 -0.0924332
v 0.178103 -0.326634 -0.0953178
v 0.182599 -0.327261 -0.0939519
v 0.16839 -0.325653 -0.0961902
v 0.15743 -0.328582 -0.0945768
v 0.15422 -0.332076 -0.0930981
v 0.148302 -0.346124 -0.0887341
v 0.15135 -0.342756 -0.0909028
v 0.157683 -0.335845 -0.0936637
v 0.160897 -0.332341 -0.0948112
v 0.16411 -0.328837 -0.0959588
v 0.154482 -0.339346 -0.0925164
v 0.174166 -0.331669 -0.0955597
v 0.178387 -0.333076 -0.0948359
v 0.167457 -0.332748 -0.0951533
v 0.173664 -0.32596 -0.0960729
v 0.182652 -0.333876 -0.0938948
v 0.185645 -0.341628 -0.0918672
v 0.181382 -0.340739 -0.0928345
v 0.172008 -0.335296 -0.094454
v 0.165743 -0.340725 -0.0887256
v 0.164804 -0.335687 -0.0937729
v 0.169023 -0.338325 -0.0920817
v 0.158528 -0.341494 -0.0895377
v 0.161646 -0.33852 -0.0914826
v 0.155342 -0.345175 -0.0883359
v 0.162578 -0.343611 -0.086481
v 0.213055 -0.338733 -0.0129524
v 0.152019 -0.348867 -0.0871505
v 0.159076 -0.347061 -0.0850485
v 0.213528 -0.316392 -0.0280627
v 0.213729 -0.318649 -0.0268655
v 0.180319 -0.351149 -0.0887195
v 0.178612 -0.36102 -0.0844467
v 0.162791 -0.370426 -0.0733309
v 0.160797 -0.375979 -0.0701608
v 0.158878 -0.374886 -0.0646516
v 0.159625 -0.377599 -0.0664661
v 0.159289 -0.37325 -0.0669717
v 0.158922 -0.376974 -0.0609329
v 0.158653 -0.374975 -0.0606773
v 0.160258 -0.376892 -0.0563167
v 0.162707 -0.372172 -0.0523051
v 0.160136 -0.365838 -0.0612697
v 0.162826 -0.362642 -0.0577135
v 0.162818 -0.361371 -0.0625286
v 0.164746 -0.359035 -0.0590441
v 0.160332 -0.365785 -0.065848
v 0.16122 -0.364889 -0.0674894
v 0.163449 -0.360653 -0.065696
v 0.164188 -0.360495 -0.0685474
v 0.166269 -0.356998 -0.0679639
v 0.167428 -0.358536 -0.0732377
v 0.165867 -0.356567 -0.0637114
v 0.16589 -0.360907 -0.0526704
v 0.167703 -0.356358 -0.0532501
v 0.165729 -0.361044 -0.0477986
v 0.167566 -0.356025 -0.0480961
v 0.16556 -0.360633 -0.0427917
v 0.167641 -0.35516 -0.0379749
v 0.167548 -0.355598 -0.0430499
v 0.168617 -0.350268 -0.0382446
v 0.16877 -0.350672 -0.0433168
v 0.168974 -0.350981 -0.0484151
v 0.168379 -0.351323 -0.053744
v 0.201989 -0.369884 -0.0105451
v 0.197657 -0.372784 -0.0670992
v 0.202977 -0.32826 0.000822596
v 0.204796 -0.333312 -5.48903e-05
v 0.19924 -0.37093 -0.0672124
v 0.206614 -0.338364 -0.000932377
v 0.198783 -0.371361 -0.0681769
v 0.166902 -0.353192 -0.0144838
v 0.200365 -0.369508 -0.0682901
v 0.199909 -0.369939 -0.0692547
v 0.197894 -0.373279 -0.0652834
v 0.157918 -0.377769 -0.0115185
v 0.157804 -0.3742 -0.00881902
v 0.15764 -0.372859 -0.0101271
v 0.157852 -0.376209 -0.012706
v 0.158502 -0.376864 -0.0158488
v 0.157789 -0.374641 -0.0138894
v 0.157977 -0.373579 -0.0158072
v 0.199428 -0.371631 -0.0652074
v 0.16267 -0.371522 -0.023145
v 0.164077 -0.370918 -0.024665
v 0.165484 -0.370313 -0.0261851
v 0.16396 -0.369014 -0.0247701
v 0.165408 -0.366674 -0.0264436
v 0.165163 -0.368192 -0.0262282
v 0.162812 -0.369293 -0.0229735
v 0.16422 -0.367346 -0.0248917
v 0.164654 -0.364003 -0.0239686
v 0.200961 -0.369984 -0.0651314
v 0.163176 -0.366114 -0.0220472
v 0.200798 -0.36918 -0.0672309
v 0.163123 -0.363918 -0.0211022
v 0.202332 -0.367532 -0.067155
v 0.196224 -0.374906 -0.0647876
v 0.191886 -0.378171 -0.0656476
v 0.215406 -0.343222 -0.0354226
v 0.215766 -0.341709 -0.0337409
v 0.213998 -0.353653 -0.0277016
v 0.214778 -0.349906 -0.0289099
v 0.214192 -0.350479 -0.0249105
v 0.166703 -0.360251 -0.028377
v 0.166598 -0.360163 -0.0270757
v 0.166492 -0.360075 -0.0257745
v 0.213605 -0.351051 -0.020911
v 0.167771 -0.355608 -0.0301374
v 0.167665 -0.35552 -0.0288362
v 0.16756 -0.355431 -0.0275349
v 0.167455 -0.355343 -0.0262336
v 0.167349 -0.355255 -0.0249323
v 0.167244 -0.355167 -0.0236311
v 0.201406 -0.316788 -0.00177563
v 0.201042 -0.310962 -0.00397179
v 0.188737 -0.37099 -0.0781317
v 0.179238 -0.378764 -0.0755992
v 0.171845 -0.37555 -0.0780599
v 0.174509 -0.374151 -0.0790929
v 0.158596 -0.378479 -0.0145127
v 0.176362 -0.370392 -0.0809391
v 0.173182 -0.372009 -0.0795544
v 0.169968 -0.37364 -0.0781458
v 0.214971 -0.346732 -0.0261187
v 0.211595 -0.307784 -0.0286578
v 0.211 -0.303225 -0.0332035
v 0.161205 -0.382165 -0.0655744
v 0.214072 -0.321195 -0.0258811
v 0.213905 -0.324738 -0.0218198
v 0.213194 -0.323479 -0.0199401
v 0.213562 -0.322193 -0.0228042
v 0.215095 -0.331974 -0.0248615
v 0.215043 -0.336766 -0.0227228
v 0.214855 -0.328986 -0.0242805
v 0.164705 -0.38504 -0.0658247
v 0.164454 -0.382691 -0.0697011
v 0.159326 -0.370446 -0.0657704
v 0.167559 -0.35264 -0.0184153
v 0.158719 -0.372105 -0.0632969
v 0.158988 -0.369436 -0.0620965
v 0.167634 -0.352978 -0.0208208
v 0.167814 -0.352706 -0.0222478
v 0.164882 -0.363484 -0.0523192
v 0.167529 -0.353587 -0.0217995
v 0.167709 -0.353315 -0.0232264
v 0.167889 -0.353043 -0.0246533
v 0.16807 -0.352771 -0.0260802
v 0.164462 -0.368151 -0.0512306
v 0.167424 -0.354197 -0.0227781
v 0.167604 -0.353925 -0.024205
v 0.167784 -0.353653 -0.0256319
v 0.167965 -0.353381 -0.0270588
v 0.168145 -0.353109 -0.0284857
v 0.214804 -0.333778 -0.0221418
v 0.214385 -0.347305 -0.0221193
v 0.164722 -0.361692 -0.0398239
v 0.161139 -0.365992 -0.0566438
v 0.162426 -0.36445 -0.0559196
v 0.163712 -0.362908 -0.0551955
v 0.164389 -0.360773 -0.0564297
v 0.165876 -0.365029 -0.050495
f 162 4 3 2
f 58 6 20 3
f 15 14 13 5
f 11 12 8 7
f 12 13 9 8
f 13 14 10 9
f 14 17 16 10
f 15 19 17 14
f 19 409 18 17
f 6 371 21 20
f 23 24 22 21
f 371 301 23 21
f 217 131 218 220
f 279 25 310 312
f 26 28 27 24
f 126 417 418 128
f 29 30 28 26
f 28 412 414 27
f 30 411 412 28
f 31 32 30 29
f 33 459 32 31
f 39 35 33 31
f 34 460 459 33
f 35 36 34 33
f 39 42 44 35
f 44 40 36 35
f 40 41 37 36
f 213 105 427 437
f 439 417 126 441
f 44 43 46 40
f 46 47 41 40
f 443 442 89 87
f 49 43 44 42
f 49 53 50 43
f 50 45 46 43
f 50 99 470 45
f 52 51 53 49
f 53 374 99 50
f 52 475 476 51
f 476 112 375 51
f 375 374 53 51
f 1 301 57 54
f 57 301 371 55
f 371 6 58 55
f 499 56 57 55
f 499 479 59 56
f 445 63 64 60
f 462 103 463 464
f 489 495 494 69
f 486 490 489 78
f 78 489 69 68
f 65 66 63 62
f 63 445 444 62
f 66 67 64 63
f 71 72 66 65
f 483 486 78 74
f 72 73 67 66
f 73 59 479 67
f 458 70 494 457
f 70 458 457 451
f 69 494 70 451
f 1 1 1 1
f 75 76 72 71
f 76 77 73 72
f 77 473 59 73
f 78 440 438 84
f 84 426 48 78
f 79 80 76 75
f 80 99 77 76
f 99 374 473 77
f 85 425 422 86
f 81 83 80 79
f 83 470 99 80
f 82 471 83 81
f 92 94 82 81
f 74 48 86 416
f 103 313 468 463
f 1 1 1 1
f 103 307 309 481
f 98 93 94 92
f 98 97 101 93
f 97 98 96 95
f 220 265 261 102
f 307 103 462 306
f 131 271 270 268
f 237 234 146 232
f 232 146 126 229
f 106 117 230 104
f 229 126 128 226
f 108 110 107 106
f 107 118 117 106
f 109 111 110 108
f 230 117 115 114
f 115 123 122 114
f 122 121 227 114
f 117 118 116 115
f 116 124 123 115
f 118 286 312 116
f 122 123 120 119
f 148 128 418 225
f 223 224 222 105
f 125 121 122 119
f 123 124 203 120
f 203 205 113 120
f 125 269 156 121
f 202 204 203 124
f 105 221 419 427
f 222 415 221 105
f 210 146 113 205
f 310 25 90 199
f 201 199 90 91
f 208 207 201 91
f 25 194 195 90
f 208 100 193 139
f 185 213 437 129
f 437 439 441 129
f 146 210 136 135
f 216 105 213 132
f 133 134 214 132
f 1 1 1 1
f 213 185 133 132
f 135 136 134 133
f 185 145 135 133
f 136 137 211 134
f 211 212 214 134
f 441 127 126 129
f 210 209 137 136
f 209 139 138 137
f 138 140 211 137
f 139 193 142 138
f 142 141 140 138
f 126 145 185 129
f 209 207 208 139
f 142 144 143 141
f 143 150 192 141
f 469 500 452 147
f 446 447 448 149
f 166 170 154 150
f 154 151 192 150
f 154 169 153 151
f 163 164 192 151
f 153 169 171 152
f 170 173 169 154
f 167 174 170 166
f 173 172 171 169
f 174 189 173 170
f 172 177 176 171
f 173 189 188 172
f 188 187 177 172
f 176 177 186 175
f 191 178 179 175
f 191 181 180 178
f 190 183 182 181
f 146 135 145 126
f 146 88 125 119
f 120 113 146 119
f 130 217 109 108
f 130 108 106 104
f 131 268 267 218
f 201 204 202 199
f 202 287 310 199
f 204 206 205 203
f 1 1 1 1
f 130 104 131 217
f 1 1 1 1
f 419 221 410 219
f 96 98 92 155
f 155 92 81 79
f 155 79 75 158
f 415 413 410 221
f 418 417 415 222
f 224 225 418 222
f 158 75 71 161
f 1 1 1 1
f 299 228 229 226
f 235 232 229 228
f 295 296 235 228
f 194 161 71 65
f 91 195 194 61
f 235 236 237 232
f 1 1 1 1
f 296 297 236 235
f 238 239 237 236
f 297 298 238 236
f 240 293 239 238
f 298 241 240 238
f 272 294 293 240
f 241 242 272 240
f 249 291 242 241
f 290 274 272 242
f 291 292 290 242
f 246 245 244 243
f 244 290 292 243
f 292 250 251 243
f 251 252 246 243
f 245 289 275 244
f 275 274 290 244
f 288 258 289 245
f 246 255 288 245
f 252 253 255 246
f 250 292 291 247
f 291 249 248 247
f 256 288 255 254
f 257 258 288 256
f 260 259 258 257
f 259 263 289 258
f 260 261 265 259
f 265 264 263 259
f 262 276 261 260
f 264 267 266 263
f 266 275 289 263
f 265 220 218 264
f 2 2 2 2
f 267 268 273 266
f 273 274 275 266
f 91 61 100 208
f 270 294 273 268
f 270 271 156 269
f 293 294 270 269
f 274 273 294 272
f 278 280 281 277
f 281 282 284 277
f 285 283 284 282
f 2 2 2 2
f 340 341 461 300
f 305 304 306 302
f 306 462 303 302
f 308 309 307 304
f 2 2 2 2
f 62 444 100 61
f 194 65 62 61
f 196 52 49 42
f 196 42 39 38
f 481 480 472 311
f 315 467 468 313
f 316 318 317 314
f 317 466 467 315
f 320 377 318 316
f 396 321 320 316
f 318 329 466 317
f 377 330 329 318
f 376 333 331 319
f 331 377 320 319
f 320 321 322 319
f 322 323 376 319
f 326 328 376 323
f 324 325 326 323
f 364 366 325 324
f 327 362 326 325
f 366 363 327 325
f 362 361 328 326
f 357 360 362 327
f 363 356 357 327
f 361 335 334 328
f 334 333 376 328
f 330 342 341 329
f 341 340 466 329
f 332 339 342 330
f 377 331 332 330
f 333 338 332 331
f 338 337 339 332
f 334 336 338 333
f 342 343 461 341
f 361 362 360 344
f 346 360 357 345
f 357 356 359 345
f 359 356 157 347
f 157 358 354 347
f 353 352 349 348
f 351 369 372 350
f 355 367 369 351
f 353 365 368 352
f 368 367 355 352
f 354 358 365 353
f 363 358 157 356
f 363 366 365 358
f 370 367 368 364
f 368 365 366 364
f 370 373 369 367
f 379 382 160 378
f 381 380 382 379
f 381 383 384 380
f 3222481665 1070002630 441376954 3218650962
f 484 482 382 380
f 385 159 384 383
f 159 485 484 384
f 184 503 159 386
f 389 393 391 387
f 502 388 389 387
f 390 397 389 388
f 503 505 390 388
f 397 395 393 389
f 393 394 392 391
f 395 396 394 393
f 399 505 504 398
f 504 168 488 398
f 488 506 400 398
f 400 401 399 398
f 401 407 408 399
f 402 404 401 400
f 404 406 407 401
f 501 403 404 402
f 405 406 404 403
f 301 1 196 23
f 196 26 24 23
f 374 375 165 473
f 59 473 165 474
f 423 424 465 420
f 422 425 423 421
f 425 426 424 423
f 165 375 112 476
f 434 431 429 428
f 431 433 430 429
f 434 438 435 431
f 435 432 433 431
f 438 440 436 435
f 475 474 165 476
f 478 477 479 499
f 197 215 200 231
f 198 197 231 233
f 286 233 279 312
f 419 410 413 427
f 413 415 417 439
f 450 456 455 449
f 451 457 456 450
f 437 427 413 439
f 454 497 498 453
f 455 496 497 454
f 456 495 496 455
f 457 494 495 456
f 467 464 463 468
f 488 168 493 506
f 184 493 168 504
f 184 504 505 503
f 492 498 497 491
f 487 491 490 486
f 491 497 496 490
f 490 496 495 489
