v -0.05607 0.279191 0.204762
v -0.0962308 0.35228 0.113216
v -0.110172 0.348802 0.106789
v -0.105115 0.346002 0.11591
v -0.100167 0.342917 0.124918
v -0.108949 0.336466 0.127286
v -0.104089 0.333322 0.136369
v -0.114991 0.350503 0.0972589
v -0.10113 0.354581 0.103734
v -0.0859186 0.345513 0.131309
v -0.0951043 0.33953 0.133948
v -0.0815107 0.354102 0.11894
v -0.0722371 0.359687 0.115905
v -0.0583329 0.371683 0.0989443
v -0.0540532 0.377637 0.0849067
v -0.063542 0.373965 0.089271
v -0.0781478 0.372089 0.083845
v -0.0874851 0.367171 0.0875213
v -0.106064 0.356737 0.0942548
v -0.0910845 0.349049 0.12225
v -0.0824885 0.365288 0.0971383
v -0.0773118 0.362507 0.106527
v -0.0835059 0.373311 0.0741126
v -0.0925447 0.368556 0.0784496
v -0.0979979 0.369305 0.0694949
v -0.0889659 0.374084 0.0647903
v -0.0851241 0.378557 0.0503834
v -0.0797348 0.378431 0.0600891
v -0.0757017 0.382613 0.0456646
v -0.070248 0.382049 0.0554572
v -0.0606935 0.385614 0.0508685
v -0.0660389 0.386144 0.0409615
v -0.0562531 0.389105 0.0362426
v -0.0464007 0.391692 0.0315137
v -0.099121 0.328997 0.144888
v -0.0413186 0.39115 0.0414916
v -0.0261685 0.391873 0.0463763
v -0.010981 0.392195 0.0511544
v -0.00551925 0.39012 0.0608596
v -3.3935e-05 0.387856 0.0705534
v 0.00545681 0.384949 0.0801379
v 0.0261899 0.378542 0.0935411
v 0.0316156 0.374709 0.102764
v 0.0521692 0.365648 0.115105
v 0.067009 0.360151 0.118166
v 0.0571465 0.35932 0.1232
v 0.0719219 0.35384 0.126375
v 0.0619947 0.35306 0.131466
v 0.0472784 0.358846 0.128389
v 0.0522389 0.353186 0.136847
v 0.0465836 0.345407 0.149319
v 0.0363242 0.344248 0.153662
v 0.0260522 0.342743 0.15791
v 0.0320568 0.350536 0.146156
v 0.0217424 0.348817 0.150414
v 0.015693 0.340557 0.161584
v 0.00512149 0.338473 0.164874
v -0.090112 0.335457 0.142892
v -0.0204174 0.353878 0.143614
v -0.0152936 0.348368 0.152125
v -0.030489 0.350299 0.146972
v -0.0405576 0.346462 0.150076
v -0.0505504 0.342019 0.152576
v -0.0454977 0.336201 0.160705
v -0.0402538 0.330175 0.168971
v -0.0552949 0.33154 0.163197
v -0.050073 0.325694 0.171581
v -0.059574 0.320185 0.173417
v -0.0448466 0.318925 0.179021
v -0.0397382 0.311932 0.186044
v -0.0491709 0.306496 0.187732
v -0.0439112 0.299279 0.194781
v -0.0527197 0.293108 0.196269
v -0.0617663 0.287253 0.196972
v -0.0636237 0.307761 0.18234
v -0.0582762 0.300744 0.189287
v -0.0725749 0.301462 0.183525
v -0.0782071 0.307979 0.176833
v -0.0690463 0.314409 0.175306
v -0.0743861 0.320136 0.16755
v -0.0796916 0.325782 0.15971
v -0.0979218 0.312586 0.163065
v -0.106096 0.304955 0.16348
v -0.101109 0.299903 0.171627
v -0.0958484 0.294149 0.179014
v -0.090207 0.287896 0.185729
v -0.0575231 0.360758 0.121458
v -0.0848499 0.281326 0.192106
v -0.0708672 0.280806 0.197341
v -0.0658094 0.273216 0.203344
v -0.0796248 0.27421 0.197835
v -0.0737645 0.266395 0.203866
v -0.0627581 0.36441 0.112273
v -0.0760218 0.288288 0.191408
v -0.081587 0.295011 0.184968
v -0.0871392 0.301212 0.178038
v -0.0925973 0.307109 0.170741
v -0.0837136 0.313949 0.169454
v -0.0672511 0.294722 0.190513
v -0.0301759 0.316752 0.183991
v -0.00572853 0.317638 0.185915
v -0.0103868 0.324997 0.178783
v -0.000335513 0.328406 0.175688
v 0.0100474 0.331017 0.172395
v 0.00451178 0.320624 0.182822
v 0.0148147 0.323209 0.179527
v 0.0083666 0.31277 0.189358
v 0.0123557 0.304496 0.195587
v -0.00161306 0.309822 0.192565
v -0.0531834 0.36865 0.108374
v -0.0678341 0.367158 0.102766
v 0.0187729 0.315176 0.185932
v -0.0730515 0.369991 0.0934215
v 0.0227898 0.306953 0.192576
v -0.0203446 0.321107 0.181608
v -0.0252618 0.328112 0.174163
v -0.0153326 0.332035 0.171224
v -0.0203342 0.338677 0.16353
v -0.0156858 0.313611 0.188472
v -0.0114836 0.306227 0.195431
v -0.0255371 0.309364 0.190798
v -0.0211504 0.301459 0.196895
v -0.0349184 0.304484 0.192772
v -0.054332 0.313491 0.180722
v -0.0649086 0.326115 0.16567
v -0.0703072 0.331709 0.157623
v -0.0566764 0.347916 0.143383
v -0.060616 0.337077 0.154884
v -0.0507471 0.341822 0.152056
v -0.0373624 0.356863 0.135494
v -0.0470301 0.352427 0.139461
v -0.0523223 0.356806 0.130642
v -0.0670836 0.356068 0.12504
v -0.0619178 0.352162 0.13432
v -0.0766061 0.351238 0.128546
v -0.0713796 0.346842 0.137424
v -0.0808462 0.341288 0.140282
v -0.0426417 0.361229 0.126677
v -0.0478979 0.365036 0.117577
v -0.0434695 0.372558 0.104214
v -0.0381968 0.368978 0.113443
v -0.0337907 0.375801 0.0997045
v -0.0391235 0.378843 0.090211
v -0.0488107 0.375607 0.0947394
v -0.0444511 0.381115 0.0804692
v -0.0498898 0.383294 0.0707547
v -0.0553136 0.384599 0.0608379
v -0.045671 0.387653 0.0562195
v -0.030521 0.388572 0.0612377
v -0.0402306 0.38611 0.0660567
v -0.0207809 0.390701 0.0562847
v -0.0348268 0.384066 0.0758449
v -0.0251015 0.386522 0.0710038
v -0.0196526 0.384268 0.0806975
v -0.0207771 0.390636 0.0562775
v -0.0153069 0.388545 0.0659947
v -0.00984317 0.386309 0.0756876
v -0.00441541 0.383277 0.0851257
v -0.00882184 0.377911 0.0994851
v -0.0142378 0.381269 0.0901544
v 0.00102667 0.379966 0.0945647
v -0.00345736 0.374135 0.108657
v 0.0018713 0.369976 0.117637
v -0.0133104 0.371474 0.113421
v -0.0186832 0.375577 0.104461
v -0.0240517 0.378823 0.0950585
v -0.00798183 0.367262 0.122318
v -0.00271988 0.362787 0.131017
v 0.0171495 0.36736 0.121593
v 0.0072065 0.365159 0.126278
v 0.00642845 0.376198 0.10379
v 0.0118046 0.37192 0.112786
v 0.016358 0.378034 0.0989106
v 0.0217241 0.373597 0.107832
v 0.0270435 0.368645 0.116537
v 0.0322829 0.363318 0.124994
v 0.0223254 0.362106 0.129972
v 0.0172333 0.354725 0.142677
v 0.0123667 0.360224 0.134769
v 0.0073755 0.352166 0.147452
v -0.00670664 0.353283 0.145137
v -0.00221875 0.348452 0.152291
v 0.00258137 0.357465 0.139673
v -0.0118137 0.358802 0.136827
v -0.0274963 0.360861 0.131632
v -0.0294163 0.381897 0.0855998
v -0.0284574 0.372731 0.109179
v -0.0231417 0.368762 0.118181
v -0.0178152 0.36433 0.126924
v -0.0329224 0.36531 0.122616
v -0.0661584 0.342358 0.146246
v -0.0756284 0.336777 0.149103
v -0.0849045 0.330658 0.151339
v -0.0351462 0.32396 0.176927
v -0.030378 0.334741 0.16652
v -0.0355143 0.340812 0.158408
v -0.0253983 0.344759 0.155436
v -0.0102155 0.342371 0.160347
v -0.00517298 0.335543 0.168208
v 0.0204001 0.333422 0.168958
v 0.0440331 0.329745 0.16874
v 0.0304592 0.335694 0.165377
v 0.0348208 0.327872 0.172602
v 0.0321078 0.310172 0.190282
v 0.0369904 0.320669 0.179442
v 0.0472805 0.321831 0.17562
v 0.0503695 0.313617 0.182411
v 0.0575987 0.322735 0.171636
v 0.0604906 0.313984 0.177973
v 0.0658254 0.295606 0.18972
v 0.0787181 0.286533 0.191213
v 0.0809055 0.276726 0.196139
v 0.070436 0.276325 0.199986
v -0.0593721 0.379608 0.075131
v 0.0600196 0.276014 0.204003
v 0.0578235 0.285683 0.198997
v 0.0530362 0.304597 0.188297
v 0.0555361 0.295219 0.193806
v 0.0425792 0.303567 0.191751
v 0.0683222 0.286164 0.195226
v 0.0707903 0.314711 0.174003
v 0.073493 0.305655 0.180043
v 0.0759889 0.296295 0.185713
v 0.0633086 0.305058 0.184184
v 0.0860912 0.296606 0.18141
v 0.115064 0.294583 0.1663
v 0.113071 0.303916 0.160647
v -0.0688668 0.37615 0.079568
v 0.110558 0.312584 0.15408
v -0.0741982 0.37743 0.0697163
v -0.0648559 0.38132 0.0653694
v 0.107973 0.321251 0.147525
v -0.0510553 0.388714 0.0462688
v 0.084819 0.33123 0.150681
v 0.0746824 0.331555 0.155556
v 0.0780258 0.323452 0.16277
v 0.0644823 0.33127 0.160165
v 0.0608053 0.3389 0.152622
v 0.0505645 0.338364 0.157108
v 0.0881401 0.323221 0.157924
v 0.0908434 0.314416 0.164476
v 0.0809489 0.31485 0.16946
v 0.103446 0.305188 0.166048
v 0.100712 0.313803 0.159404
v 0.0980943 0.32241 0.152831
v 0.105644 0.295645 0.171636
v 0.0935856 0.305688 0.171027
v 0.0961314 0.296525 0.176872
v 0.0836152 0.305955 0.17575
v 0.0678175 0.323275 0.167343
v 0.0541849 0.330664 0.164521
v 0.0397139 0.312015 0.185392
v 0.0334329 0.301903 0.195674
v 0.0403256 0.337236 0.161366
v 0.0667016 0.346749 0.139695
v 0.0709416 0.33939 0.147922
v 0.0567561 0.346345 0.144783
v 0.0421742 0.351956 0.141549
v 0.0372736 0.35753 0.133151
v 0.0272457 0.356081 0.137856
v -0.0359332 0.390049 0.0513881
v 0.0369668 0.370027 0.11166
v 0.0422204 0.364558 0.12003
v 0.0109104 0.381509 0.08952
f 4 5 20 2
f 9 3 4 2
f 9 19 8 3
f 6 7 11 5
f 35 58 11 7
f 11 58 137 10
f 137 136 135 10
f 135 133 13 12
f 133 87 93 13
f 93 111 22 13
f 111 93 110 14
f 110 140 144 14
f 144 15 16 14
f 16 113 111 14
f 144 143 145 15
f 145 146 214 15
f 214 228 16 15
f 228 17 113 16
f 18 21 113 17
f 228 230 23 17
f 23 24 18 17
f 22 111 113 21
f 230 28 26 23
f 26 25 24 23
f 28 30 29 27
f 230 231 30 28
f 30 31 32 29
f 231 147 31 30
f 147 148 233 31
f 233 33 32 31
f 233 36 34 33
f 233 148 261 36
f 261 149 151 37
f 155 156 39 38
f 156 157 40 39
f 157 158 41 40
f 158 161 264 41
f 173 174 43 42
f 174 175 262 43
f 263 49 46 44
f 46 48 47 45
f 49 50 48 46
f 50 257 255 48
f 259 258 50 49
f 263 176 259 49
f 258 51 257 50
f 52 254 239 51
f 239 238 257 51
f 258 54 52 51
f 53 202 254 52
f 54 55 53 52
f 56 200 202 53
f 258 259 260 54
f 260 178 55 54
f 199 103 104 57
f 61 197 60 59
f 197 118 198 60
f 62 196 197 61
f 63 64 196 62
f 66 67 65 64
f 65 195 196 64
f 67 69 194 65
f 194 116 195 65
f 125 68 67 66
f 128 126 125 66
f 68 124 69 67
f 79 75 124 68
f 125 80 79 68
f 124 71 70 69
f 70 100 194 69
f 123 121 100 70
f 76 73 72 71
f 124 75 76 71
f 76 99 74 73
f 89 90 1 74
f 99 94 89 74
f 77 99 76 75
f 79 78 77 75
f 95 94 99 77
f 78 96 95 77
f 79 80 98 78
f 98 97 96 78
f 125 126 81 80
f 83 84 97 82
f 85 96 97 84
f 86 95 96 85
f 88 94 95 86
f 91 89 94 88
f 91 92 90 89
f 121 119 115 100
f 115 116 194 100
f 119 120 109 101
f 109 107 105 101
f 105 103 102 101
f 105 106 104 103
f 108 114 112 107
f 117 118 195 116
f 197 196 195 118
f 121 122 120 119
f 128 191 192 126
f 191 128 129 127
f 131 132 134 127
f 134 136 191 127
f 185 190 138 130
f 138 132 131 130
f 138 139 87 132
f 87 133 134 132
f 135 136 134 133
f 137 192 191 136
f 58 193 192 137
f 190 141 139 138
f 141 140 110 139
f 110 93 87 139
f 141 187 142 140
f 142 143 144 140
f 190 188 187 141
f 187 165 166 142
f 166 186 143 142
f 186 152 145 143
f 152 150 146 145
f 150 148 147 146
f 147 231 214 146
f 150 149 261 148
f 150 152 153 149
f 186 154 153 152
f 154 157 156 153
f 160 158 157 154
f 160 159 161 158
f 162 171 161 159
f 171 173 264 161
f 164 167 163 162
f 163 172 171 162
f 170 169 172 163
f 188 189 167 164
f 165 187 188 164
f 184 181 183 168
f 183 179 170 168
f 170 179 177 169
f 177 176 175 169
f 175 174 172 169
f 172 174 173 171
f 176 263 262 175
f 177 260 259 176
f 179 178 260 177
f 179 183 180 178
f 183 181 182 180
f 189 188 190 185
f 203 205 206 201
f 206 208 251 201
f 251 239 254 201
f 254 202 203 201
f 253 219 252 204
f 252 207 206 205
f 207 209 208 206
f 252 219 217 207
f 217 224 209 207
f 209 221 250 208
f 250 237 251 208
f 224 222 221 209
f 218 216 220 210
f 220 213 212 211
f 220 216 215 213
f 222 249 242 221
f 242 236 250 221
f 223 225 249 222
f 248 247 249 225
f 227 243 246 226
f 229 244 243 227
f 232 245 244 229
f 235 236 240 234
f 237 250 236 235
f 242 241 240 236
f 238 239 251 237
f 256 255 257 238
f 241 244 245 240
f 242 249 247 241
f 247 243 244 241
f 230 228 214 231
