# https://github.com/mikedh/trimesh
v 0.07315500 -0.10657200 0.07879600
v 0.07029138 -0.11122975 0.07836300
v 0.07737500 -0.10538900 0.07986200
v 0.09537377 -0.10276767 0.08183822
v 0.11741000 -0.09424075 0.08522450
v 0.09376050 -0.10629475 0.08144950
v 0.12000400 -0.09800400 0.08515700
v 0.12690100 -0.08944000 0.08738900
v 0.08409900 -0.10959100 0.07990700
v 0.11006225 -0.10295600 0.08321850
v 0.14262950 -0.08141575 0.08841975
v 0.17716600 0.09526200 0.12758601
v 0.16738121 -0.05818582 0.09133210
v 0.15074977 -0.07678420 0.08954656
v 0.14832558 -0.08067263 0.08938438
v 0.17722499 -0.03927900 0.09249600
v 0.17991390 -0.04282430 0.09461201
v 0.15875045 -0.07298349 0.09063404
v 0.18254433 -0.04620484 0.09471319
v 0.18695002 -0.03816387 0.09587890
v 0.18996903 -0.02659128 0.09775682
v 0.19001114 -0.03776854 0.09522509
v 0.17342777 -0.06138978 0.09257810
v 0.13376199 -0.09310054 0.08693319
v 0.19262232 -0.01164526 0.10038422
v 0.16238154 -0.07421535 0.09072789
v 0.13971563 -0.09041955 0.08768324
v 0.19539790 -0.00977252 0.10102651
v 0.19390524 -0.02161537 0.09842264
v 0.13130874 -0.09488789 0.08639709
v 0.13321788 -0.08980213 0.08726213
v 0.18203749 -0.02579525 0.09395850
v 0.18387701 -0.02247400 0.09500200
v 0.18918341 -0.01068820 0.09934191
v 0.18609950 -0.00847600 0.09621250
v 0.19146388 0.00246737 0.10185358
v 0.18516176 -0.02953394 0.09644853
v 0.19668114 0.02137382 0.10847285
v 0.19261473 0.03287810 0.10950129
v 0.19347331 0.05726385 0.12000697
v 0.19515552 0.03181764 0.11127610
v 0.19642509 -0.00222010 0.10268706
v 0.19553692 0.01126484 0.10580299
v 0.19012270 0.07180161 0.12537839
v 0.18996656 0.09574232 0.13455689
v 0.19807921 0.00846204 0.10524757
v 0.18555158 0.08558348 0.13026224
v 0.18866685 0.05671123 0.11728434
v 0.18557443 0.07452144 0.12445631
v 0.18551648 0.06821374 0.12054304
v 0.18157004 0.08917505 0.13013795
v 0.18862576 0.04828300 0.11211175
v 0.19070613 0.02586112 0.10546938
v 0.19234980 0.00683958 0.10322575
v 0.18809150 0.00399100 0.09764150
v 0.19983537 -0.01018527 0.09972016
v 0.20591293 0.01916884 0.10541133
v 0.19806763 -0.01312938 0.09943382
v 0.20199767 0.03344583 0.11151567
v 0.19707654 0.04258094 0.11533387
v 0.19602139 0.05125977 0.11815422
v 0.20169209 0.06298684 0.12004659
v 0.19326299 0.10166700 0.13949500
v 0.18236916 -0.05435124 0.09216469
v 0.16816746 -0.06825729 0.09164244
v 0.20477011 0.04678668 0.11387010
v 0.20198187 0.03069599 0.11079750
v 0.15548643 -0.08059032 0.08972671
v 0.15288781 -0.08420703 0.08842102
v 0.19538899 0.09697513 0.13311083
v 0.16263601 -0.08048155 0.08684378
v 0.14781550 -0.08992100 0.08552625
v 0.20700850 0.05269650 0.11380950
v 0.20669300 0.02294125 0.10584450
v 0.19984060 0.09844607 0.13065178
v 0.20369001 0.09680100 0.12712900
v 0.20016500 0.10631800 0.13250149
v 0.17277928 -0.06913294 0.08942465
v 0.20522050 0.00250800 0.10022750
v 0.18665500 -0.05336200 0.08966650
v 0.19866375 -0.02467425 0.09452400
v 0.17950401 -0.06423400 0.08795300
v 0.16901600 -0.07667100 0.08549300
f 1 2 3
f 9 3 2
f 6 3 9
f 4 3 6
f 10 4 6
f 5 4 10
f 7 5 10
f 8 5 7
f 8 7 31
f 11 8 31
f 31 27 11
f 27 31 24
f 24 31 30
f 27 24 30
f 27 30 72
f 69 27 72
f 71 69 72
f 68 69 71
f 68 71 78
f 78 71 83
f 82 78 83
f 80 78 82
f 80 64 78
f 22 64 80
f 81 22 80
f 56 22 81
f 79 56 81
f 57 56 79
f 74 57 79
f 67 57 74
f 67 74 73
f 66 67 73
f 75 66 73
f 75 73 76
f 77 75 76
f 77 63 75
f 75 63 70
f 75 70 62
f 62 70 40
f 70 45 40
f 45 44 40
f 45 47 44
f 47 45 51
f 45 12 51
f 44 47 51
f 51 49 44
f 49 51 50
f 51 12 50
f 49 50 44
f 50 48 44
f 50 52 48
f 12 52 50
f 48 52 39
f 52 53 39
f 39 53 54
f 54 53 55
f 54 55 35
f 36 54 35
f 54 36 25
f 42 54 25
f 43 54 42
f 42 25 28
f 42 28 56
f 43 42 56
f 46 43 56
f 67 46 56
f 67 38 46
f 67 41 38
f 59 41 67
f 59 60 41
f 62 60 59
f 62 61 60
f 62 59 66
f 38 41 43
f 46 38 43
f 56 28 58
f 58 28 29
f 29 22 58
f 29 21 22
f 25 21 29
f 25 34 21
f 34 37 21
f 21 37 19
f 37 17 19
f 37 32 17
f 33 32 37
f 34 33 37
f 35 33 34
f 32 16 17
f 20 21 19
f 20 19 22
f 22 21 20
f 28 25 29
f 36 34 25
f 36 35 34
f 43 39 54
f 41 39 43
f 60 39 41
f 61 39 60
f 61 40 39
f 44 48 39
f 40 44 39
f 62 40 61
f 70 63 45
f 75 62 66
f 66 59 67
f 67 56 57
f 58 22 56
f 22 19 64
f 19 23 64
f 23 65 64
f 64 65 78
f 65 26 78
f 78 26 68
f 68 27 69
f 68 15 27
f 26 15 68
f 26 18 15
f 13 18 26
f 65 13 26
f 23 13 65
f 19 13 23
f 16 13 19
f 13 14 18
f 18 14 15
f 15 14 11
f 15 11 27
f 31 7 30

