v -0.142617 -0.549283 0.00119252
v -0.142872 -0.549274 -0.0039986
v -0.143126 -0.549264 -0.00918972
v -0.142277 -0.544066 0.00637796
v -0.14254 -0.544055 0.0011882
v -0.142967 -0.544034 -0.00400161
v -0.143211 -0.544026 -0.00920195
v -0.143275 -0.544034 -0.0144164
v -0.143243 -0.544087 -0.0196834
v -0.143099 -0.544137 -0.0249586
v -0.142737 -0.544183 -0.0302497
v -0.142267 -0.549259 -0.0248415
v -0.14175 -0.549278 -0.0300929
v -0.141233 -0.549297 -0.0353443
v -0.140564 -0.549317 -0.0405757
v -0.140555 -0.54404 -0.0460559
v -0.141569 -0.544149 -0.040827
v -0.141355 -0.539021 -0.0406988
v -0.140363 -0.538856 -0.0459539
v -0.139294 -0.538511 -0.0511169
v -0.138437 -0.523005 -0.0446097
v -0.13907 -0.528303 -0.0451427
v -0.139704 -0.533602 -0.0456757
v -0.138655 -0.533223 -0.0506441
v -0.138012 -0.52795 -0.0501506
v -0.10373 -0.522833 0.0660152
v -0.144927 -0.513191 -0.0353921
v -0.141531 -0.518097 -0.0399533
v -0.141085 -0.523391 -0.0401456
v -0.140639 -0.528684 -0.040338
v -0.140741 -0.533875 -0.0404941
v -0.142134 -0.539017 -0.0354415
v -0.142666 -0.538989 -0.0301986
v -0.141361 -0.533847 -0.0352746
v -0.142981 -0.53883 -0.014449
v -0.141987 -0.533779 -0.0249016
v -0.141228 -0.533681 -0.00417284
v -0.141475 -0.533705 -0.00934387
v -0.141723 -0.53373 -0.0145149
v -0.14197 -0.533754 -0.0196859
v -0.141954 -0.528591 -0.00946045
v -0.143392 -0.523495 -0.0147662
v -0.142015 -0.528617 -0.0146268
v -0.144831 -0.5184 -0.0200719
v -0.143454 -0.523521 -0.0199325
v -0.142076 -0.528643 -0.0197931
v -0.144892 -0.518426 -0.0252382
v -0.143515 -0.523547 -0.0250988
v -0.142137 -0.528669 -0.0249594
v -0.14633 -0.51333 -0.0305439
v -0.144822 -0.51845 -0.0304019
v -0.143304 -0.523571 -0.0302598
v -0.141785 -0.528691 -0.0301176
v -0.144399 -0.518471 -0.0355588
v -0.14288 -0.523592 -0.0354166
v -0.141362 -0.528712 -0.0352745
v -0.141913 -0.533804 -0.0301321
v -0.139554 -0.549243 -0.045783
v -0.14346 -0.549238 -0.0143788
v -0.142835 -0.549308 0.0064071
v -0.142866 -0.549244 -0.0196042
v -0.142321 -0.544219 -0.035539
v -0.142929 -0.538877 -0.0197031
v -0.142858 -0.538929 -0.024959
v -0.142358 -0.538838 -0.00407221
v -0.142707 -0.538826 -0.0092618
v -0.141913 -0.538859 0.00111475
v -0.141428 -0.538892 0.00631474
v -0.140842 -0.533696 0.0010204
v -0.140159 -0.533782 0.00623457
v -0.136358 -0.529381 0.0164751
v -0.137221 -0.529211 0.0112868
v -0.138189 -0.528501 0.00618917
v -0.139109 -0.52829 0.00104642
v -0.140833 -0.528772 -0.00426112
v -0.141481 -0.523831 -0.00954218
v -0.145669 -0.513421 -0.0253589
v -0.137398 -0.534467 0.0218014
v -0.138396 -0.534201 0.0166218
v -0.133401 -0.536254 0.0369816
v -0.134782 -0.53561 0.0319388
v -0.136162 -0.534967 0.0268959
v -0.131226 -0.53143 0.0368281
v -0.132738 -0.530704 0.0318101
v -0.131409 -0.52525 0.0265009
v -0.134171 -0.529974 0.0267669
v -0.132531 -0.524598 0.0214099
v -0.135292 -0.529339 0.0216572
v -0.136416 -0.528675 0.01658
v -0.130309 -0.519535 0.0161061
v -0.133603 -0.523964 0.0163346
v -0.142848 -0.549339 0.01162
v -0.12939 -0.520063 0.0212087
v -0.127467 -0.514739 0.0160614
v -0.126991 -0.521721 0.0312472
v -0.128305 -0.520788 0.02627
v -0.126342 -0.515501 0.0211081
v -0.124203 -0.523413 0.0413252
v -0.125605 -0.522576 0.0362796
v -0.128708 -0.526793 0.03664
v -0.130109 -0.525947 0.0315888
v -0.122448 -0.524472 0.0462868
v -0.125306 -0.528688 0.0465204
v -0.127762 -0.533228 0.046694
v -0.125618 -0.53409 0.0513439
v -0.127446 -0.538807 0.0513867
v -0.129865 -0.537843 0.0467641
v -0.131099 -0.542837 0.0467439
v -0.133008 -0.542079 0.0419869
v -0.134792 -0.541333 0.0370786
v -0.136472 -0.540621 0.0321142
v -0.137804 -0.54005 0.0270346
v -0.139789 -0.544788 0.0218064
v -0.13903 -0.539557 0.0219293
v -0.140726 -0.544481 0.0166504
v -0.141674 -0.544217 0.0115086
v -0.142009 -0.549553 0.0167067
v -0.14018 -0.550038 0.0215988
v -0.136124 -0.551426 0.0369837
v -0.137507 -0.550963 0.0318627
v -0.13889 -0.5505 0.0267417
v -0.135907 -0.546396 0.0371239
v -0.136099 -0.551693 0.0425339
v -0.137246 -0.545862 0.0320275
v -0.138582 -0.545317 0.0269348
v -0.133405 -0.547508 0.0472721
v -0.136541 -0.551923 0.0482085
v -0.134752 -0.546924 0.0422395
v -0.124837 -0.539404 0.0558243
v -0.129006 -0.543612 0.0514349
v -0.12628 -0.54418 0.0558095
v -0.12728 -0.549223 0.0556554
v -0.130907 -0.548354 0.0517018
v -0.122832 -0.529905 0.0511667
v -0.120008 -0.525771 0.0509893
v -0.117985 -0.527008 0.0555834
v -0.117243 -0.521594 0.0507499
v -0.112571 -0.52388 0.0593025
v -0.114908 -0.522737 0.0550264
v -0.108427 -0.519989 0.0583534
v -0.106015 -0.521391 0.0622071
v -0.101655 -0.518276 0.0618859
v -0.0996663 -0.521557 0.0669582
v -0.104347 -0.525058 0.0668564
v -0.106967 -0.525452 0.0653112
v -0.109732 -0.525317 0.0631738
v -0.104132 -0.516205 0.0572938
v -0.106701 -0.515137 0.0532146
v -0.109324 -0.514039 0.0491672
v -0.113217 -0.517835 0.0499159
v -0.112149 -0.512812 0.0452228
v -0.116071 -0.51659 0.0459858
v -0.110926 -0.518828 0.0542166
v -0.115502 -0.528117 0.0599063
v -0.118031 -0.532241 0.060735
v -0.120991 -0.531281 0.0561522
v -0.121816 -0.540918 0.0610963
v -0.122335 -0.54717 0.0623708
v -0.140778 -0.539038 0.0115369
v -0.117754 -0.542933 0.0664101
v -0.118731 -0.54808 0.0667039
v -0.11295 -0.538489 0.0698729
v -0.115033 -0.533202 0.0652954
v -0.116574 -0.537935 0.0659768
v -0.111248 -0.533793 0.0687612
v -0.105636 -0.530038 0.0705053
v -0.107356 -0.534314 0.0720868
v -0.13991 -0.539297 0.0167373
v -0.101192 -0.529687 0.0731167
v -0.0991828 -0.540143 0.0785421
v -0.139388 -0.533936 0.0114413
v -0.100718 -0.545225 0.0794459
v -0.101793 -0.550369 0.0797923
v -0.105204 -0.544583 0.0767008
v -0.10628 -0.549727 0.077047
v -0.110601 -0.54916 0.0737987
v -0.108648 -0.539091 0.0730292
v -0.109608 -0.544107 0.0734205
v -0.102634 -0.534742 0.0747883
v -0.104154 -0.539573 0.0761832
v -0.115007 -0.548634 0.0705866
v -0.114011 -0.54355 0.0702475
v -0.119994 -0.537114 0.0617718
v -0.109301 -0.529565 0.0672344
v -0.112526 -0.528987 0.0639411
v -0.119016 -0.520577 0.0459402
v -0.120641 -0.519601 0.0409983
v -0.118226 -0.515197 0.0358714
v -0.122226 -0.518569 0.0360617
v -0.119755 -0.514085 0.0309425
v -0.121214 -0.512874 0.0260231
v -0.122674 -0.511663 0.0211037
v -0.116724 -0.509941 0.0258162
v -0.11785 -0.508932 0.0208926
v -0.114614 -0.511699 0.04107
v -0.116848 -0.516048 0.0408663
v -0.115379 -0.511161 0.035943
v -0.116033 -0.510603 0.0308526
v -0.123668 -0.517398 0.031127
v -0.125012 -0.516445 0.0261084
v -0.131775 -0.537025 0.0419366
v -0.127149 -0.527704 0.0416382
v -0.129617 -0.532233 0.0418132
f 60 4 5 1
f 5 6 2 1
f 6 7 3 2
f 7 8 59 3
f 60 92 116 4
f 116 159 68 4
f 68 67 5 4
f 67 65 6 5
f 65 66 7 6
f 66 35 8 7
f 9 61 59 8
f 35 63 9 8
f 10 12 61 9
f 63 64 10 9
f 11 13 12 10
f 64 33 11 10
f 62 14 13 11
f 33 32 62 11
f 62 17 15 14
f 17 16 58 15
f 17 18 19 16
f 62 32 18 17
f 32 34 31 18
f 31 23 19 18
f 23 24 20 19
f 22 30 29 21
f 25 24 23 22
f 23 31 30 22
f 54 51 50 27
f 29 55 54 28
f 30 56 55 29
f 31 34 56 30
f 33 57 34 32
f 64 36 57 33
f 57 53 56 34
f 66 38 39 35
f 39 40 63 35
f 64 63 40 36
f 40 46 49 36
f 49 53 57 36
f 38 66 65 37
f 65 67 69 37
f 69 74 75 37
f 75 41 38 37
f 41 43 39 38
f 43 46 40 39
f 76 42 43 41
f 45 46 43 42
f 47 48 45 44
f 48 49 46 45
f 51 52 48 47
f 77 50 51 47
f 52 53 49 48
f 54 55 52 51
f 55 56 53 52
f 68 70 69 67
f 159 171 70 68
f 70 73 74 69
f 171 72 73 70
f 72 171 79 71
f 79 168 114 78
f 114 112 82 78
f 171 159 168 79
f 81 111 110 80
f 110 109 201 80
f 201 203 83 80
f 83 84 81 80
f 82 112 111 81
f 84 86 82 81
f 203 202 100 83
f 100 101 84 83
f 101 85 86 84
f 87 88 86 85
f 101 95 96 85
f 96 93 87 85
f 91 89 88 87
f 93 90 91 87
f 93 97 94 90
f 96 200 97 93
f 101 100 99 95
f 99 189 199 95
f 199 200 96 95
f 200 191 192 97
f 99 100 202 98
f 202 103 102 98
f 102 186 187 98
f 187 189 99 98
f 103 134 135 102
f 135 137 186 102
f 202 203 104 103
f 104 105 134 103
f 203 201 107 104
f 107 106 105 104
f 107 108 130 106
f 130 131 129 106
f 201 109 108 107
f 109 128 126 108
f 126 133 130 108
f 110 122 128 109
f 111 124 122 110
f 112 125 124 111
f 114 113 125 112
f 115 117 118 113
f 118 121 125 113
f 114 168 115 113
f 116 92 117 115
f 168 159 116 115
f 123 128 122 119
f 122 124 120 119
f 124 125 121 120
f 127 126 128 123
f 133 132 131 130
f 136 139 137 135
f 156 155 154 136
f 154 138 139 136
f 139 153 150 137
f 150 152 186 137
f 146 141 140 138
f 140 153 139 138
f 141 142 147 140
f 147 148 153 140
f 146 145 26 141
f 26 143 142 141
f 26 145 144 143
f 149 150 153 148
f 151 152 150 149
f 195 196 152 151
f 196 187 186 152
f 155 163 185 154
f 183 164 163 155
f 158 161 160 157
f 160 164 183 157
f 161 181 182 160
f 182 162 164 160
f 182 178 177 162
f 177 167 165 162
f 165 163 164 162
f 165 184 185 163
f 167 166 184 165
f 167 179 169 166
f 177 180 179 167
f 180 174 172 170
f 174 175 173 172
f 178 176 175 174
f 180 177 178 174
f 178 182 181 176
f 196 188 189 187
f 190 199 189 188
f 196 195 197 188
f 197 198 190 188
f 191 200 199 190
f 198 193 191 190
f 193 194 192 191
