# https://github.com/mikedh/trimesh
v -0.20730512 0.00925787 -0.00067387
v -0.21566306 0.00653212 0.07885069
v -0.20158499 -0.04138300 0.07427900
v -0.21759699 0.04102400 0.09826600
v -0.22307800 0.10376800 0.10353800
v -0.22191249 0.09317250 0.10393800
v -0.22106400 0.07623500 0.10176500
v -0.21930700 0.05772150 0.10017000
v -0.21428579 0.03939010 -0.06211832
v -0.20800578 0.01783530 -0.06202843
v -0.20507457 0.00316151 -0.05895070
v -0.21775451 0.05297450 -0.05942350
v -0.21051625 0.02950300 -0.06289975
v -0.19912601 -0.01266300 -0.05161200
v -0.22171399 0.06912350 0.00081750
v -0.22286849 0.07308400 -0.00034300
v -0.21820600 0.05785213 0.00198850
v -0.21605574 0.04764475 0.00158413
v -0.21326999 0.03712300 0.00159700
v -0.22547838 0.08048012 -0.00428800
v -0.21125500 0.02845200 0.00155900
v -0.22688900 0.08429600 -0.00780750
v -0.20797780 0.00468779 0.00030458
v -0.20577426 0.00277100 -0.00184850
v -0.21134906 0.01204219 0.00310997
v -0.21167183 0.02263631 0.00264312
v -0.20681879 -0.00595446 -0.00093403
v -0.20205599 -0.01217650 -0.00644000
v -0.20272478 -0.02143341 -0.00639594
v -0.20538477 -0.00219414 -0.00193833
v -0.20011700 -0.01769475 -0.00925925
v -0.19617265 -0.03061521 -0.02020553
v -0.22908045 0.08402414 -0.00226620
v -0.22605996 0.07766976 0.00014043
v -0.22056558 0.06395816 -0.05525296
v -0.22638453 0.08233319 -0.03779002
v -0.24315850 0.12121505 -0.00064818
v -0.24279249 0.11660886 0.01724841
v -0.24333851 0.11819731 0.02458901
v -0.23937239 0.10509259 0.04446108
v -0.23234635 0.08064132 0.05288075
v -0.24129985 0.11033617 0.01741883
v -0.22937662 0.06948810 0.04088425
v -0.22672876 0.05555222 0.05084909
v -0.22805293 0.06662887 0.03047576
v -0.22755173 0.06021550 0.05795005
v -0.22511507 0.05607651 0.02429464
v -0.22928507 0.07744274 0.01121974
v -0.22582895 0.06676452 0.00971251
v -0.22049970 0.02004985 0.06963022
v -0.21456931 -0.00885425 0.06649155
v -0.21990435 0.01554052 0.05463009
v -0.21490401 -0.00095591 0.03119122
v -0.22495501 0.04926000 0.03815100
v -0.22211665 0.04172398 0.02367732
v -0.21563552 0.01053893 0.02059404
v -0.20089142 -0.03787565 0.00372442
v -0.20271341 -0.03064743 0.00181991
v -0.21074027 -0.01693645 0.02744598
v -0.21524896 0.02472302 0.00632119
v -0.20868400 -0.02586353 0.03169824
v -0.20238773 -0.04555051 0.03476656
v -0.20645762 -0.03600287 0.04413868
v -0.21703431 0.00178900 0.04776625
v -0.20962306 -0.02705962 0.05452378
v -0.21031438 -0.02378114 0.06094005
v -0.22423474 0.06199134 0.00958659
v -0.24525488 0.13734462 0.00115575
v -0.19490878 -0.04010008 -0.02747984
v -0.19856814 -0.01913637 -0.05246609
v -0.21243266 0.00601176 0.00876496
v -0.21707185 0.04555058 -0.07233925
v -0.21791014 0.04901297 -0.06472758
v -0.22657185 0.07764797 -0.05052769
v -0.20547041 0.00528810 -0.06867581
v -0.20559610 0.00518781 -0.06431461
v -0.23513863 0.09281022 0.01443393
v -0.20020900 -0.04950800 0.03409650
v -0.19653557 -0.02437898 -0.05634663
v -0.19944225 -0.04687025 0.01537900
v -0.22680482 0.05843778 0.06863495
v -0.23102159 0.08323144 0.07528886
v -0.19549353 -0.03313923 -0.02565333
v -0.21940660 0.04272339 0.00723350
v -0.20677669 -0.03385422 0.06310281
v -0.22977254 0.08675645 -0.03986627
v -0.19303000 -0.03927450 -0.04164150
v -0.22873622 0.07598109 0.07788481
v -0.21869138 0.01481138 0.07731539
v -0.19946399 -0.05202200 0.04676300
v -0.24153300 0.11742950 0.04633350
v -0.22144322 0.05595626 0.00565878
v -0.22734839 0.07502898 0.08438849
v -0.22235966 0.03769229 0.08057960
v -0.23567950 0.11044400 0.07264500
v -0.23730300 0.11114700 0.06649300
v -0.19491100 -0.05886700 0.05906450
v -0.20106779 -0.04702588 0.06414298
v -0.23392191 0.09535120 -0.01778918
v -0.22795602 0.09186083 0.09120287
v -0.23519599 0.11285200 0.07537300
v -0.19530300 -0.05641950 0.06645050
v -0.21919947 0.03520514 0.09197751
v -0.22074751 0.05007362 0.09439412
v -0.19529800 -0.02759500 -0.03446500
v -0.20078841 -0.01185794 -0.05741338
v -0.19794000 -0.01572950 -0.04975100
v -0.22910025 0.10967725 0.09154150
v -0.22182856 0.08034323 -0.09576125
v -0.22053285 0.08923556 -0.11009696
v -0.22590952 0.11700891 -0.10801734
v -0.22774856 0.10601220 -0.09165459
v -0.21199530 0.06788211 -0.12385845
v -0.21297929 0.09509913 -0.13852936
v -0.20342687 0.05309919 -0.13649431
v -0.20774037 0.07529686 -0.14071201
v -0.20057349 0.08973745 -0.16326550
v -0.19807753 0.06597473 -0.15653116
v -0.19359912 0.07303707 -0.16778562
v -0.19186376 0.09524717 -0.17865190
v -0.20270436 0.14361002 -0.17047332
v -0.18795266 0.13827266 -0.19028949
v -0.20631326 0.12762799 -0.16297549
v -0.19155300 0.05537050 -0.16179300
v -0.18766849 0.07517900 -0.17754050
v -0.20159318 0.10669600 -0.16697858
v -0.21861345 0.10228903 -0.12578906
v -0.22193942 0.12415776 -0.12518842
v -0.22391766 0.13145126 -0.12200309
v -0.22366073 0.14851306 -0.12588606
v -0.23324419 0.15254228 -0.09203372
v -0.23733134 0.14707288 -0.07146754
v -0.23858082 0.15942797 -0.06745371
v -0.23392150 0.17509950 -0.08728250
v -0.23868750 0.16946351 -0.06516900
v -0.23170532 0.15490526 -0.09919379
v -0.23509464 0.16793619 -0.08405612
v -0.22709668 0.14804925 -0.11492154
v -0.22066206 0.14683229 -0.13407888
v -0.21687045 0.11354528 -0.13618901
v -0.21306330 0.11398694 -0.14611655
v -0.21028103 0.12495031 -0.15477334
v -0.21325589 0.14520726 -0.15163253
v -0.20754955 0.15022234 -0.16242767
v -0.21768401 0.15802025 -0.14248144
v -0.21830052 0.14110214 -0.14019361
v -0.22582866 0.16444969 -0.12012283
v -0.22817700 0.17964749 -0.10842200
v -0.22569450 0.18619950 -0.11428025
v -0.22427096 0.17381933 -0.12271503
v -0.23019900 0.17536450 -0.10227400
v -0.23663009 0.13581536 -0.06988910
v -0.22805045 0.13647040 -0.10935295
v -0.23901605 0.14109017 -0.05941216
v -0.24254420 0.12600318 -0.01729087
v -0.23893172 0.12403515 -0.04508730
v -0.24351621 0.13372455 -0.02026392
v -0.24244782 0.14239013 -0.03799923
v -0.22859070 0.09813385 -0.07729895
v -0.21166117 0.04405291 -0.10067069
v -0.21007285 0.04542942 -0.10898953
v -0.20057911 0.02214937 -0.11362311
v -0.20338836 0.03711940 -0.12149852
v -0.21631053 0.05486398 -0.09342607
v -0.21525015 0.06329591 -0.10786155
v -0.19527650 -0.02453450 -0.06130825
v -0.19686232 0.00037603 -0.09709859
v -0.21943125 0.05716463 -0.07748338
v -0.23619147 0.10172100 -0.02168470
v -0.23357249 0.10109995 -0.04556420
v -0.22768613 0.08507800 -0.06098106
v -0.20672973 0.01518661 -0.08139005
v -0.19357214 -0.00855464 -0.09414353
v -0.19876905 0.05187829 -0.14637047
v -0.23186878 0.10260331 -0.06177387
v -0.23849141 0.12020471 -0.04442806
v -0.24502957 0.13381558 -0.00182760
v -0.24174850 0.16084475 -0.04778350
v -0.24143848 0.15355318 -0.04984561
v -0.24062485 0.15077615 -0.05395748
v -0.20535380 0.11098964 -0.16101160
v -0.19789560 -0.01700070 -0.06428368
v -0.22223390 0.17204481 -0.12883876
v -0.20404096 0.16202451 -0.16776422
v -0.20738374 0.17942071 -0.15926610
v -0.21115526 0.16631675 -0.15478874
v -0.21268900 0.17522100 -0.15026200
v -0.19354200 -0.02214700 -0.07247300
v -0.19418888 0.03708375 -0.14323013
v -0.19255712 0.00471087 -0.11387612
v -0.22364020 0.18605273 -0.12120368
v -0.22037325 0.20339725 -0.12151450
v -0.19306201 0.04911100 -0.15515800
v -0.19248199 -0.01287300 -0.09075400
v -0.21754327 0.19289536 -0.13454434
v -0.21713101 0.18048905 -0.14000550
v -0.21154163 0.19236759 -0.14801108
v -0.18947448 0.11704305 -0.18668862
v -0.18644294 0.08781482 -0.18393415
v -0.19817220 0.14472712 -0.17727737
v -0.19415581 0.12292796 -0.18139418
v -0.21656212 0.19244083 -0.13721160
v -0.21714461 0.20216626 -0.13118050
v -0.19558541 0.15016545 -0.18093274
v -0.20876526 0.20900016 -0.14600963
v -0.19645514 0.19978683 -0.17041182
v -0.20283021 0.19439789 -0.16264797
v -0.18246951 0.08657900 -0.18834799
v -0.18868518 0.15696967 -0.18918587
v -0.19521919 0.16522348 -0.18039117
v -0.19919403 0.17459590 -0.17339632
v -0.19358200 0.18876000 -0.17756701
v -0.18954245 0.19326875 -0.18140938
v -0.17871900 0.08553900 -0.19245601
v -0.17814900 0.08952800 -0.19417401
v -0.17186200 0.08978575 -0.20075900
v -0.17532000 0.08883000 -0.19706701
v -0.20059150 0.23145900 -0.14579125
v -0.18245874 0.10173955 -0.19262364
v -0.17430821 0.14467838 -0.20465041
v -0.18230825 0.11771111 -0.19519660
v -0.17069549 0.11172441 -0.20601606
v -0.17067717 0.12800512 -0.20749810
v -0.17828861 0.13085026 -0.20062714
v -0.19659775 0.22620480 -0.15719868
v -0.20485712 0.21817645 -0.14820172
v -0.18823036 0.17934090 -0.18657848
v -0.18167277 0.17388781 -0.19454067
v -0.19524971 0.20852937 -0.16851408
v -0.19331826 0.22526346 -0.16279523
v -0.18009991 0.16703666 -0.19712987
v -0.17703432 0.16334534 -0.20075958
v -0.18421900 0.20543800 -0.18333700
v -0.18480308 0.19434949 -0.18716635
v -0.18194400 0.20158300 -0.18724300
v -0.18037000 0.19599999 -0.19067000
v -0.18628000 0.21459025 -0.17698550
v -0.18889900 0.23311800 -0.16369300
v -0.19050200 0.23548400 -0.15992300
v -0.18894449 0.22641600 -0.16767500
v -0.16846525 0.17747800 -0.20585750
v -0.16629300 0.15262000 -0.21088500
v -0.16835400 0.16188100 -0.20841300
v -0.15952013 0.14076438 -0.21627200
v -0.17535400 0.18677799 -0.19794799
v -0.17720000 0.19188400 -0.19494000
v -0.16647826 0.10809162 -0.20902087
v -0.16036919 0.13376246 -0.21590525
v -0.15673125 0.12448900 -0.21802575
f 19 21 26
f 21 1 26
f 1 23 26
f 26 23 25
f 25 23 71
f 60 25 71
f 71 84 60
f 84 71 56
f 53 84 56
f 55 84 53
f 84 55 47
f 47 92 84
f 84 92 19
f 19 92 18
f 18 92 17
f 15 17 92
f 15 92 34
f 16 15 34
f 20 16 34
f 34 33 20
f 48 33 34
f 48 34 49
f 43 48 49
f 43 49 45
f 49 47 45
f 47 49 67
f 67 49 92
f 43 45 47
f 43 47 44
f 47 54 44
f 54 47 64
f 52 54 64
f 50 52 64
f 50 64 51
f 64 65 51
f 65 64 63
f 65 63 85
f 66 65 85
f 51 66 85
f 2 51 85
f 3 2 85
f 3 85 98
f 98 102 3
f 102 98 97
f 97 98 90
f 62 90 98
f 63 62 98
f 63 61 62
f 59 62 61
f 59 57 62
f 62 57 80
f 78 62 80
f 69 80 57
f 80 69 87
f 87 69 79
f 87 79 166
f 79 167 166
f 166 167 188
f 167 194 188
f 167 173 194
f 173 190 194
f 173 167 190
f 162 190 167
f 189 190 162
f 163 189 162
f 174 189 163
f 174 193 189
f 174 124 193
f 118 124 174
f 118 174 115
f 116 118 115
f 117 118 116
f 117 119 118
f 118 119 125
f 117 125 119
f 117 199 125
f 199 208 125
f 199 219 208
f 219 214 208
f 219 215 214
f 215 219 217
f 219 216 217
f 216 219 247
f 247 219 222
f 223 247 222
f 249 247 223
f 248 249 223
f 249 248 244
f 244 248 220
f 220 242 244
f 242 220 243
f 243 220 232
f 232 241 243
f 232 234 241
f 245 241 234
f 245 234 246
f 236 246 234
f 235 236 234
f 233 235 234
f 237 233 234
f 229 237 234
f 230 237 229
f 240 237 230
f 238 240 230
f 239 238 230
f 218 239 230
f 218 230 225
f 225 226 218
f 226 225 229
f 229 206 226
f 226 206 207
f 226 207 205
f 226 205 192
f 192 205 203
f 197 203 205
f 203 197 202
f 203 202 195
f 203 195 191
f 195 202 191
f 191 202 196
f 191 196 183
f 196 145 183
f 196 187 145
f 196 197 187
f 197 186 187
f 185 186 197
f 197 207 185
f 207 211 185
f 184 185 211
f 211 204 184
f 211 210 204
f 227 210 211
f 212 227 211
f 227 212 206
f 213 227 206
f 213 234 227
f 234 228 227
f 228 231 227
f 228 232 231
f 231 232 209
f 227 231 209
f 234 213 206
f 212 211 206
f 227 209 210
f 209 204 210
f 122 204 209
f 209 220 122
f 122 220 224
f 220 223 224
f 224 223 221
f 198 224 221
f 198 221 219
f 201 198 219
f 201 219 126
f 126 219 120
f 126 120 117
f 141 126 117
f 141 181 126
f 141 123 181
f 142 123 141
f 146 142 141
f 146 141 129
f 138 146 129
f 130 146 138
f 130 139 146
f 146 139 145
f 146 145 143
f 146 143 123
f 143 144 123
f 186 144 143
f 186 184 144
f 184 121 144
f 121 184 200
f 201 121 200
f 200 204 201
f 121 201 123
f 144 121 123
f 186 143 145
f 147 145 139
f 130 147 139
f 147 130 138
f 136 147 138
f 147 136 137
f 151 147 137
f 148 147 151
f 148 191 147
f 148 149 191
f 192 191 149
f 191 150 147
f 150 183 147
f 134 151 137
f 134 137 135
f 135 137 133
f 135 133 178
f 178 133 179
f 178 179 158
f 179 180 158
f 179 132 180
f 180 132 158
f 132 154 158
f 158 154 152
f 158 152 156
f 158 156 157
f 68 158 157
f 177 68 157
f 177 157 37
f 39 177 37
f 39 37 38
f 38 42 39
f 40 39 42
f 40 42 43
f 42 77 43
f 99 77 42
f 77 99 33
f 33 99 22
f 22 99 86
f 169 86 99
f 169 170 86
f 176 170 169
f 176 175 170
f 176 159 175
f 176 112 159
f 176 152 112
f 152 111 112
f 153 111 152
f 132 153 152
f 131 153 132
f 131 136 153
f 153 136 129
f 128 153 129
f 153 128 127
f 140 127 128
f 127 140 114
f 140 141 114
f 114 113 127
f 110 127 113
f 110 111 127
f 110 113 165
f 113 161 165
f 164 165 161
f 164 109 165
f 168 109 164
f 168 164 72
f 73 168 72
f 74 168 73
f 171 168 74
f 171 175 168
f 74 170 171
f 73 72 9
f 12 73 9
f 35 73 12
f 74 73 35
f 9 72 13
f 13 72 75
f 72 172 75
f 167 75 172
f 75 167 182
f 75 182 106
f 182 79 106
f 70 106 79
f 14 106 70
f 14 11 106
f 11 76 106
f 10 76 11
f 76 10 75
f 14 70 107
f 107 70 105
f 105 70 69
f 105 69 83
f 32 105 83
f 32 83 58
f 58 83 69
f 76 75 106
f 13 75 10
f 72 164 172
f 164 160 172
f 160 161 172
f 162 172 161
f 175 109 168
f 160 164 161
f 161 113 115
f 161 115 163
f 110 165 109
f 112 110 109
f 113 114 116
f 128 129 140
f 133 136 131
f 133 131 132
f 153 127 111
f 111 110 112
f 112 109 159
f 159 109 175
f 175 171 170
f 37 176 169
f 155 176 37
f 155 157 176
f 37 169 42
f 74 86 170
f 86 74 35
f 86 35 36
f 86 36 22
f 42 169 99
f 40 43 41
f 46 41 43
f 82 41 46
f 81 82 46
f 82 81 94
f 88 82 94
f 94 93 88
f 104 93 94
f 103 104 94
f 104 103 4
f 8 104 4
f 100 104 8
f 7 100 8
f 6 100 7
f 5 100 6
f 5 108 100
f 108 101 100
f 101 95 100
f 100 95 82
f 95 96 82
f 96 91 82
f 82 91 40
f 103 2 4
f 103 94 2
f 2 94 89
f 94 50 89
f 100 93 104
f 100 88 93
f 100 82 88
f 81 50 94
f 81 46 50
f 82 40 41
f 91 39 40
f 39 91 68
f 38 37 42
f 157 155 37
f 68 177 39
f 157 156 176
f 152 176 156
f 132 152 154
f 68 178 158
f 179 133 132
f 133 137 136
f 136 138 129
f 129 141 140
f 123 142 146
f 123 126 181
f 141 117 114
f 123 201 126
f 122 198 201
f 122 224 198
f 204 122 201
f 204 200 184
f 185 184 186
f 187 186 145
f 183 145 147
f 150 191 183
f 202 197 196
f 192 203 191
f 205 207 197
f 206 211 207
f 218 226 192
f 230 229 225
f 234 206 229
f 234 232 228
f 232 220 209
f 248 223 220
f 223 222 221
f 222 219 221
f 219 199 120
f 117 120 199
f 117 116 114
f 116 115 113
f 124 118 125
f 174 163 115
f 163 162 161
f 172 162 167
f 182 167 79
f 70 79 69
f 58 69 57
f 59 58 57
f 58 59 53
f 59 64 53
f 71 58 53
f 71 29 58
f 71 27 29
f 30 29 27
f 28 29 30
f 31 29 28
f 32 29 31
f 30 27 23
f 24 30 23
f 29 32 58
f 61 64 59
f 62 78 90
f 89 51 2
f 85 63 98
f 64 61 63
f 66 51 65
f 50 51 89
f 50 46 52
f 52 46 44
f 47 53 64
f 44 54 52
f 46 43 44
f 77 48 43
f 49 34 92
f 33 48 77
f 33 22 20
f 47 67 92
f 47 55 53
f 53 56 71
f 60 84 19
f 19 25 60
f 23 27 71
f 23 1 24

