# https://github.com/mikedh/trimesh
v -0.10388900 0.11151700 0.19497600
v -0.11461888 0.10560200 0.18257369
v -0.10022050 0.11466600 0.19781351
v -0.08459625 0.13193700 0.20871025
v -0.13546954 0.09847680 0.16143827
v -0.13239600 0.10021350 0.16463849
v -0.15633937 0.09485800 0.14541350
v -0.14323001 0.14851300 0.20470300
v -0.14901275 0.14715850 0.20063750
v -0.13742100 0.14951400 0.20809001
v -0.15560199 0.15290600 0.19506399
v -0.16953400 0.14757100 0.18192200
v -0.16404050 0.15003200 0.18736349
v -0.17695725 0.14777399 0.17277475
v -0.21186399 -0.01386400 0.07532200
v -0.21544200 0.00336375 0.07846250
v -0.20162925 -0.03981950 0.07669375
v -0.19691000 -0.04814700 0.07822300
v -0.19931350 -0.03998300 0.08288450
v -0.20444548 -0.03026629 0.08213746
v -0.21333207 -0.00589868 0.08077548
v -0.20964408 -0.00485724 0.09163958
v -0.21647500 0.02947500 0.09602400
v -0.21644000 0.02191300 0.09222750
v -0.21759699 0.04102400 0.09826600
v -0.20273300 -0.01691275 0.09455900
v -0.21223228 0.01353022 0.09684476
v -0.19111021 0.09976544 0.14349541
v -0.19002428 0.10917149 0.15029545
v -0.19722496 0.10408678 0.13563044
v -0.20193946 0.11560885 0.13375690
v -0.20265131 0.12658224 0.13533948
v -0.18338536 0.10612963 0.15887808
v -0.21567068 0.11474809 0.11674668
v -0.21683369 0.09149679 0.11223835
v -0.21350426 0.01866095 0.09852263
v -0.21521231 0.06155876 0.10840494
v -0.17095717 0.14301372 0.18095505
v -0.21652301 0.10798800 0.11467400
v -0.21890274 0.11313990 0.11171920
v -0.20614854 0.14366477 0.13137427
v -0.21470900 0.13545350 0.11882000
v -0.22122449 0.12687049 0.10869600
v -0.18713003 0.12898613 0.15898776
v -0.21935425 0.06546200 0.10206275
v -0.22199750 0.10854237 0.10596200
v -0.20547099 0.14918600 0.13199601
v -0.16270700 0.14033601 0.18870901
v -0.20079686 0.14359346 0.13959588
v -0.20460945 -0.01707122 0.09228703
v -0.20780993 0.05897933 0.11547720
v -0.20832371 0.01570122 0.10302823
v -0.16297277 0.14373634 0.18897211
v -0.18160229 0.14586235 0.16686428
v -0.19946400 -0.01363050 0.09879400
v -0.19766998 0.10140425 0.13363680
v -0.20114399 0.06074600 0.11997000
v -0.20227379 0.03763525 0.11304389
v -0.18879257 0.09655264 0.13555539
v -0.19266692 0.09749955 0.13500485
v -0.20418690 0.00899646 0.10395234
v -0.19829389 0.00370808 0.10403740
v -0.19581600 -0.00884850 0.10121800
v -0.19630859 0.07008398 0.12468959
v -0.19847212 0.05519370 0.11928713
v -0.18289800 0.09358700 0.14460900
v -0.19784951 0.01908225 0.10811975
v -0.19644550 0.04474350 0.11590750
v -0.15091888 0.11320340 0.18947621
v -0.16269457 0.12058613 0.18407538
v -0.16229164 0.10313660 0.17783857
v -0.14685790 0.11141857 0.19124240
v -0.14685382 0.13138024 0.19853400
v -0.13891474 0.13483949 0.20370720
v -0.13404032 0.13309842 0.20544365
v -0.13142049 0.13551875 0.20722125
v -0.14723346 0.14325320 0.20174076
v -0.13394551 0.14652250 0.20922299
v -0.13627100 0.11778800 0.19893800
v -0.16897722 0.12929012 0.18055481
v -0.17486708 0.09959824 0.16512806
v -0.17465539 0.10323291 0.16711834
v -0.17313370 0.11750358 0.17348381
v -0.14441900 0.10849300 0.19099100
v -0.16165251 0.09765925 0.17465250
v -0.16699100 0.09422850 0.16781550
v -0.17007700 0.09255400 0.16289499
v -0.17497876 0.09152825 0.15378825
v -0.17726406 0.09401836 0.15789949
v -0.11341064 0.10987023 0.19991687
v -0.12950170 0.10487135 0.19485538
v -0.11259500 0.11354650 0.20252300
v -0.09972100 0.12284900 0.20812801
v -0.12790599 0.10687500 0.19608600
v -0.13847767 0.09830770 0.18618433
v -0.14551901 0.10276288 0.18676225
v -0.14712364 0.09589316 0.18149570
v -0.16173263 0.09164717 0.16888640
v -0.16533312 0.08971314 0.16086972
v -0.12680149 0.10046404 0.18935743
v -0.16907603 0.09052382 0.15947057
v -0.15602602 0.09013178 0.16758232
v -0.10283979 0.11410797 0.20047388
v -0.17819215 0.09143391 0.14709192
v -0.14429838 0.09187631 0.16899081
v -0.16488579 0.09098417 0.14673728
v -0.15059059 0.09070670 0.16075452
v -0.13307524 0.09677152 0.17023399
v -0.17809850 0.09638038 0.13045675
v -0.13280127 0.09491218 0.18045446
v -0.11737836 0.10275081 0.18450979
v -0.17295381 0.09150402 0.14237469
v -0.16264357 0.08922090 0.15479532
v -0.11555033 0.10477499 0.19300219
v -0.14994934 0.09076475 0.16925351
v -0.12876966 0.09750070 0.18380357
v -0.11583315 0.10336919 0.18963764
f 106 109 7
f 5 106 7
f 107 106 5
f 107 113 106
f 105 113 107
f 105 115 113
f 115 102 113
f 110 102 115
f 110 98 102
f 97 98 110
f 110 95 97
f 100 95 110
f 100 110 116
f 117 116 110
f 114 116 117
f 103 114 117
f 103 117 3
f 3 117 1
f 4 103 3
f 103 90 114
f 4 90 103
f 93 90 4
f 114 90 116
f 90 100 116
f 90 95 100
f 91 95 90
f 90 92 91
f 92 94 91
f 94 96 91
f 91 96 97
f 96 85 97
f 97 85 98
f 85 86 98
f 86 87 98
f 87 88 98
f 85 89 86
f 71 89 85
f 71 81 89
f 81 33 89
f 33 28 89
f 33 29 28
f 33 44 29
f 44 33 38
f 38 49 44
f 44 49 32
f 49 34 32
f 49 41 34
f 54 41 49
f 54 14 41
f 14 54 38
f 12 14 38
f 13 12 38
f 13 38 53
f 48 53 38
f 53 48 77
f 9 53 77
f 8 9 77
f 10 8 77
f 10 77 78
f 78 77 76
f 76 77 75
f 77 74 75
f 77 73 74
f 77 70 73
f 77 80 70
f 80 83 70
f 80 33 83
f 82 83 33
f 70 83 82
f 70 82 81
f 70 71 73
f 73 71 69
f 73 69 72
f 73 72 79
f 75 73 79
f 79 72 84
f 72 71 84
f 69 71 72
f 74 73 75
f 75 79 76
f 9 11 53
f 77 48 80
f 48 38 80
f 11 13 53
f 14 47 41
f 41 47 42
f 42 34 41
f 42 43 34
f 34 43 40
f 43 46 40
f 35 40 46
f 46 45 35
f 35 45 37
f 37 45 36
f 45 25 36
f 36 25 23
f 23 24 36
f 24 16 36
f 16 21 36
f 22 36 21
f 22 21 20
f 50 22 20
f 52 22 50
f 52 50 61
f 58 52 61
f 62 58 61
f 63 62 61
f 63 67 62
f 61 55 63
f 61 26 55
f 58 62 67
f 68 58 67
f 65 58 68
f 65 68 59
f 59 64 65
f 64 57 65
f 59 57 64
f 60 57 59
f 59 30 60
f 30 56 60
f 30 31 56
f 31 51 56
f 56 51 57
f 57 51 58
f 51 31 37
f 31 30 29
f 60 56 57
f 57 58 65
f 51 52 58
f 36 52 51
f 52 36 27
f 61 50 26
f 52 27 22
f 26 50 20
f 26 20 19
f 19 20 18
f 20 17 18
f 20 21 17
f 17 21 15
f 21 16 15
f 37 36 51
f 35 37 31
f 34 35 31
f 34 39 35
f 40 35 39
f 34 40 39
f 31 32 34
f 44 32 31
f 54 49 38
f 80 38 33
f 44 31 29
f 29 30 28
f 82 33 81
f 70 81 71
f 84 71 85
f 93 92 90
f 91 97 95
f 98 99 102
f 98 101 99
f 101 88 99
f 88 104 99
f 99 104 113
f 88 66 104
f 66 59 104
f 101 98 88
f 102 99 113
f 110 115 105
f 108 110 105
f 111 110 108
f 111 117 110
f 117 111 2
f 1 117 2
f 2 111 108
f 2 108 6
f 108 5 6
f 108 105 107
f 113 112 106
f 108 107 5

