# https://github.com/mikedh/trimesh
v -0.13642900 0.31945801 0.12551799
v -0.16459499 0.31609401 0.09356600
v -0.18798806 0.29801970 0.07012016
v -0.19748750 0.29938200 -0.01120812
v -0.19785000 0.29137301 -0.06823200
v -0.19167026 0.28417875 -0.10524575
v -0.17300115 0.32551532 0.04052889
v -0.17061673 0.32542787 0.05022825
v -0.16555686 0.33813215 -0.01239752
v -0.16062750 0.34188584 -0.02415102
v -0.18001713 0.32312290 -0.02129287
v -0.17382738 0.32770026 -0.04077913
v -0.18187269 0.32046365 0.00293490
v -0.18724782 0.31423953 -0.02939518
v -0.18999430 0.31098969 -0.01489316
v -0.17230147 0.32922246 0.02172488
v -0.18545164 0.31652420 0.00706587
v -0.17612895 0.32686317 0.00459498
v -0.16188038 0.33054420 0.06313832
v -0.16271550 0.34011928 0.00756911
v -0.14974518 0.35119134 0.00004756
v -0.16058841 0.34011206 0.02709209
v -0.14705518 0.35212623 0.01734598
v -0.14752600 0.35073000 0.02573400
v -0.15804364 0.34460858 -0.00497039
v -0.17331692 0.32210691 0.05225251
v -0.15380989 0.34546726 -0.04327311
v -0.16361218 0.33754339 -0.03986008
v -0.16807548 0.33202345 -0.04823661
v -0.16093149 0.33413750 -0.06852600
v -0.16875950 0.32394050 -0.07818775
v -0.17922512 0.31312968 -0.07849455
v -0.17972000 0.32129601 -0.03964000
v -0.18280211 0.31452831 -0.05819328
v -0.16755968 0.33000839 -0.06148881
v -0.15526443 0.34661969 -0.02017997
v -0.14480677 0.35461299 -0.02174891
v -0.15524900 0.34261000 -0.05261500
v -0.18894068 0.31136652 -0.02872190
v -0.19624231 0.30083402 -0.03817795
v -0.19035480 0.30588726 0.03467176
v -0.19103203 0.30106215 -0.06926425
v -0.18456935 0.28912546 -0.11420397
v -0.18297657 0.29954006 -0.09916992
v -0.18860101 0.29561088 -0.09242030
v -0.18349423 0.30562449 -0.08402020
v -0.18241399 0.28566900 -0.12363000
v -0.17641200 0.30713299 -0.09976100
v -0.17980351 0.29678100 -0.11168100
v -0.18074442 0.30522451 0.07321204
v -0.17310962 0.31932230 0.06128737
v -0.18157440 0.31213213 0.05327088
v -0.17197416 0.31815079 0.06807237
v -0.17519600 0.31220099 -0.09155600
v -0.16494245 0.32092831 0.07992522
v -0.14318794 0.35617858 -0.00321328
v -0.13503750 0.35994292 0.02050487
v -0.13271978 0.36172152 0.01578284
v -0.13358988 0.36215245 -0.01049873
v -0.13069850 0.36351999 -0.01877200
v -0.12299205 0.36710529 0.02002011
v -0.11214300 0.37283701 0.01300300
v -0.11953900 0.36980749 -0.00164400
v -0.13056552 0.36397699 0.00099964
v -0.13849143 0.35613516 0.03438525
v -0.14291023 0.35248441 0.03738314
v -0.14364200 0.35361050 -0.03892275
v -0.14323337 0.34724982 0.05961068
v -0.14466309 0.34956184 0.04552454
v -0.15615088 0.33997655 0.04881861
v -0.12293550 0.36452610 0.03936219
v -0.15093406 0.33698884 0.07256798
v -0.14385378 0.33913138 0.08171728
v -0.14822499 0.33389699 0.08543300
v -0.13580699 0.33136001 0.10914900
v -0.12830766 0.35159333 0.07733455
v -0.12402829 0.35628106 0.07122863
v -0.13969600 0.34539500 0.07291400
v -0.12771823 0.35873547 0.05454217
v -0.11429975 0.36405971 0.06174275
v -0.13625243 0.34558124 0.07923295
v -0.11387948 0.36763616 0.04774264
v -0.12910840 0.34811548 0.08558842
v -0.10028899 0.37636801 0.03176181
v -0.10761300 0.36428450 0.07208600
v -0.13292896 0.33396989 0.10984445
v -0.11578917 0.35824914 0.07848891
v -0.10881469 0.37151999 0.03884763
v -0.09390000 0.37984201 0.02125200
v -0.09719500 0.37865701 0.02052000
v -0.08910000 0.38124001 0.02470700
v -0.08642500 0.38096401 0.03486600
v -0.10371200 0.37634400 0.01672200
v -0.08546600 0.38230550 0.02620650
v -0.09871977 0.37353996 0.05154493
v -0.09587550 0.37309475 0.05791150
v -0.10649587 0.36724434 0.06402790
v -0.10470200 0.37164065 0.04897586
v -0.11594000 0.35115701 0.09590050
f 34 42 14
f 34 32 42
f 32 46 42
f 46 45 42
f 46 44 45
f 44 43 45
f 45 43 6
f 45 6 5
f 47 6 43
f 49 47 43
f 49 43 44
f 49 44 48
f 32 48 44
f 54 48 32
f 31 54 32
f 35 31 32
f 35 32 12
f 29 35 12
f 28 35 29
f 27 35 28
f 27 38 35
f 38 30 35
f 27 67 38
f 37 67 27
f 60 67 37
f 59 60 37
f 64 60 59
f 63 60 64
f 61 63 64
f 61 64 56
f 64 37 56
f 56 37 36
f 56 36 21
f 23 56 21
f 57 56 23
f 58 56 57
f 61 58 57
f 61 57 65
f 71 61 65
f 71 65 79
f 79 82 71
f 97 82 79
f 97 98 82
f 95 98 97
f 84 98 95
f 88 98 84
f 84 61 88
f 88 61 82
f 61 84 93
f 90 93 84
f 89 90 84
f 91 89 84
f 91 94 89
f 84 94 91
f 92 94 84
f 92 84 96
f 93 62 61
f 96 84 95
f 96 95 97
f 96 97 85
f 97 77 85
f 97 80 77
f 77 80 79
f 79 68 77
f 79 69 68
f 79 66 69
f 66 22 69
f 24 22 66
f 23 24 66
f 65 23 66
f 24 23 22
f 23 20 22
f 22 20 18
f 16 22 18
f 7 22 16
f 70 22 7
f 68 22 70
f 70 72 68
f 72 70 19
f 55 72 19
f 75 72 55
f 2 75 55
f 55 50 2
f 55 53 50
f 53 52 50
f 51 52 53
f 53 26 51
f 53 19 26
f 19 8 26
f 8 7 26
f 26 7 52
f 7 41 52
f 52 41 3
f 3 41 4
f 41 17 4
f 17 15 4
f 13 15 17
f 17 18 13
f 18 14 13
f 11 14 18
f 13 14 15
f 39 15 14
f 39 40 15
f 39 14 40
f 15 40 4
f 4 40 5
f 40 42 5
f 7 17 41
f 19 7 8
f 52 51 26
f 52 3 50
f 50 3 2
f 55 19 53
f 68 72 73
f 73 72 74
f 73 74 75
f 86 73 75
f 86 75 1
f 86 1 99
f 86 83 73
f 83 81 73
f 83 68 81
f 76 68 83
f 83 77 76
f 68 78 81
f 81 78 73
f 78 68 73
f 70 7 19
f 7 16 17
f 16 18 17
f 18 20 11
f 20 9 11
f 20 25 9
f 21 25 20
f 25 10 9
f 25 36 10
f 10 12 9
f 10 28 12
f 9 12 11
f 11 12 33
f 33 12 34
f 33 34 11
f 68 69 22
f 77 68 76
f 85 77 87
f 85 87 86
f 87 77 86
f 98 88 82
f 97 79 80
f 79 65 66
f 82 61 71
f 57 23 65
f 23 21 20
f 25 21 36
f 36 37 10
f 61 56 58
f 62 63 61
f 64 59 37
f 10 37 27
f 10 27 28
f 28 29 12
f 30 31 35
f 42 45 5
f 46 32 44
f 12 32 34
f 14 42 40
f 34 14 11

