# https://github.com/mikedh/trimesh
v -0.14512500 0.00853300 0.13419800
v -0.15419299 0.01923000 0.13526251
v 0.03748017 0.08705572 0.19828209
v 0.02987500 0.08641900 0.19922750
v 0.01594100 0.08454700 0.20356099
v 0.00712000 0.08709800 0.20335500
v -0.00388800 0.08931475 0.20293938
v 0.05689100 0.09848700 0.19548300
v -0.04284300 0.06980250 0.19192001
v -0.06485300 0.04160900 0.17454400
v -0.03610600 0.07376100 0.19487900
v -0.03277300 0.06679000 0.19371299
v -0.06887100 0.04115000 0.17262800
v -0.03291450 0.07825650 0.19682250
v -0.02262075 0.08409700 0.20003575
v -0.06699031 0.02601350 0.17005960
v 0.06482500 0.09620700 0.19242600
v 0.08932100 0.06041100 0.17373399
v -0.15687050 0.01661500 0.13702850
v -0.12804900 -0.02368950 0.15603350
v -0.13972301 -0.00995700 0.14851649
v -0.14950199 0.00626400 0.13951100
v -0.11514796 -0.03868809 0.16263939
v -0.10633800 -0.03847350 0.16722299
v -0.11075250 -0.03363150 0.16514951
v -0.07575950 -0.00364450 0.16364550
v -0.09788125 -0.00987072 0.16161434
v -0.11378246 -0.00982597 0.15732622
v -0.12863800 -0.00760700 0.15197750
v -0.07248850 -0.00155950 0.16628651
v -0.06670450 0.00611750 0.16704500
v -0.00855025 0.00765537 0.18961487
v -0.02441050 -0.00578650 0.19105050
v -0.01657200 -0.00588000 0.20133699
v 0.06381000 0.00785300 0.16835749
v 0.04120250 0.01071400 0.17589350
v 0.00858250 0.01572100 0.18714400
v 0.06519600 0.01918950 0.16875500
v -0.03469275 -0.03055975 0.18891099
v -0.05210050 -0.03535750 0.18339050
v -0.09111612 -0.03725088 0.17273488
v -0.02057362 -0.01723650 0.19734388
v -0.01215275 -0.00413700 0.20524899
v -0.15008677 0.01054077 0.13621242
v -0.13850820 -0.00249140 0.14465185
v -0.14304601 -0.00260700 0.14530700
v 0.01651075 0.08651325 0.20160476
v 0.02388800 0.08567600 0.20125900
v -0.00073000 0.08780700 0.20244700
v 0.06808869 0.03133788 0.16909273
v 0.00144781 0.02155441 0.18797963
v -0.01722115 0.02928324 0.18708072
v -0.01646338 0.04630829 0.19138275
v -0.00322444 0.05147236 0.19405099
v -0.02209087 0.07089333 0.19729575
v -0.01949351 0.04342527 0.19006416
v -0.01104559 0.07384298 0.19930676
v -0.00719401 0.02194493 0.18748808
v 0.00741395 0.06668770 0.19773753
v -0.00207122 0.03333958 0.18978936
v 0.00312858 0.06913523 0.19870826
v 0.01527680 0.07660005 0.19929265
v -0.01322233 0.02588931 0.18700620
v 0.00932126 0.04058771 0.19092933
v 0.03107197 0.06890855 0.19463354
v 0.01709991 0.06989150 0.19752849
v 0.01303603 0.03176486 0.18829027
v 0.00815544 0.02622562 0.18788350
v 0.06100000 0.09325300 0.19291601
v 0.07516450 0.08786350 0.18669349
v 0.05475658 0.07945350 0.19116791
v 0.05595642 0.07373109 0.18895002
v 0.03323898 0.04534865 0.18700357
v 0.02052456 0.02982672 0.18600077
v 0.07084308 0.06947409 0.18255008
v 0.07551500 0.07292700 0.18185900
v 0.05208610 0.04181123 0.17948718
v 0.02965711 0.02847305 0.18280905
v 0.07272600 0.09487500 0.18945400
v 0.01039192 0.02008608 0.18701795
v 0.02029187 0.02047303 0.18447790
v 0.03931500 0.02405700 0.17844200
v 0.05859239 0.02764020 0.17241021
v 0.05102202 0.01324843 0.17221997
v 0.06669469 0.03798612 0.17226658
v 0.06001891 0.01713709 0.17026608
v 0.06334019 0.01106708 0.16866080
v 0.03742959 0.01977652 0.17818529
v 0.07146085 0.05108864 0.17502335
v 0.07436642 0.05106448 0.17359458
v 0.08280848 0.05851237 0.17302034
v 0.06399320 0.01528315 0.16877779
v -0.02551074 0.03439402 0.18593706
v -0.03016878 0.04362507 0.18722724
v -0.05187370 0.02476415 0.17418262
v -0.05333919 0.02258364 0.17305857
v -0.06534358 0.03011743 0.17106839
v -0.06501217 -0.00784131 0.17303068
v -0.08976388 -0.01044457 0.16781265
v -0.07071680 -0.01477485 0.17479848
v -0.05629624 -0.01416071 0.17879645
v -0.05505459 -0.00090819 0.17292884
v -0.08821920 -0.02181271 0.17246731
v -0.05423606 -0.02025160 0.18144320
v -0.03650570 -0.00185352 0.18119712
v -0.04312474 -0.01071439 0.18196502
v -0.10108251 -0.01851733 0.16745974
v -0.12139466 -0.01877462 0.15940827
v -0.04588100 0.00376300 0.17489700
v -0.03992360 -0.00003685 0.17866498
v -0.01784242 0.00530292 0.18784513
v -0.02104736 0.00819398 0.18507696
v -0.01298932 0.00883188 0.18778310
v -0.01470229 0.01130953 0.18652105
v -0.04107619 0.00455278 0.17672819
v -0.00845962 0.01353374 0.18758230
v -0.09738096 -0.02855371 0.17090115
v -0.13640099 -0.00810661 0.15013715
v -0.05396615 0.00434685 0.17161458
v -0.03842156 -0.01511941 0.18571511
v -0.08197952 -0.02554026 0.17504716
v -0.12261202 -0.01244085 0.15757599
v -0.02287441 0.01339973 0.18353697
v -0.07032554 -0.02751890 0.17850803
v -0.10661963 -0.02244406 0.16612006
v -0.02876555 -0.00446199 0.18679261
v -0.04020699 -0.02411550 0.18673943
v -0.06530100 -0.02877000 0.17994501
v -0.04451643 -0.02785334 0.18555939
v -0.08389149 -0.03489198 0.17545746
v -0.10206308 -0.03105995 0.16941107
v -0.04712930 0.00742820 0.17363298
v -0.00502087 0.01127866 0.18855514
v -0.02729151 -0.00794966 0.18978164
v -0.04278915 0.01099374 0.17530321
v -0.04797302 -0.03187819 0.18462790
v -0.03118479 0.02034742 0.18078870
v -0.03861600 0.01476900 0.17724399
v -0.01898082 0.02187155 0.18513259
v -0.02617549 -0.01897662 0.19295214
v -0.02604165 -0.01295949 0.19259268
v -0.05163882 0.01235753 0.17203175
v -0.06337702 0.01545200 0.16923588
f 143 31 142
f 96 143 142
f 97 143 96
f 97 16 143
f 13 16 97
f 10 13 97
f 10 97 95
f 9 10 95
f 94 9 95
f 94 95 93
f 95 96 93
f 93 96 52
f 52 96 137
f 52 137 139
f 139 137 123
f 58 139 123
f 63 139 58
f 58 52 63
f 60 52 58
f 60 58 68
f 67 60 68
f 67 68 80
f 80 68 51
f 74 67 80
f 78 74 80
f 78 80 81
f 81 80 37
f 84 81 37
f 88 81 84
f 83 88 84
f 83 82 88
f 78 82 83
f 77 78 83
f 85 77 83
f 85 83 50
f 83 84 50
f 50 84 86
f 86 84 87
f 84 35 87
f 87 35 38
f 92 87 38
f 50 92 38
f 84 36 35
f 50 86 87
f 82 81 88
f 84 37 36
f 80 116 37
f 80 58 116
f 37 116 133
f 116 114 133
f 133 114 113
f 133 113 32
f 113 111 32
f 113 112 111
f 111 112 110
f 112 115 110
f 132 115 112
f 115 132 109
f 132 119 109
f 132 31 119
f 119 31 30
f 119 30 110
f 30 102 110
f 110 102 106
f 105 110 106
f 110 105 126
f 105 106 126
f 126 106 120
f 126 120 134
f 126 134 33
f 33 134 141
f 134 127 141
f 141 127 140
f 34 141 140
f 34 140 42
f 43 34 42
f 33 141 34
f 111 126 33
f 134 120 127
f 120 104 127
f 104 124 127
f 127 124 128
f 127 128 129
f 129 128 130
f 130 136 129
f 136 130 41
f 136 41 40
f 136 40 39
f 127 136 39
f 42 127 39
f 130 131 41
f 117 131 130
f 131 117 125
f 125 108 131
f 131 108 23
f 108 20 23
f 108 21 20
f 118 21 108
f 118 108 122
f 29 118 122
f 29 122 28
f 1 29 28
f 29 1 45
f 45 46 29
f 45 1 46
f 1 44 46
f 44 22 46
f 22 44 19
f 2 19 44
f 44 1 2
f 28 27 1
f 29 46 118
f 28 122 108
f 107 28 108
f 99 28 107
f 99 107 103
f 103 107 117
f 121 103 117
f 121 117 124
f 104 103 121
f 100 103 104
f 101 100 104
f 106 101 104
f 98 101 106
f 98 100 101
f 98 99 100
f 26 99 98
f 99 103 100
f 46 21 118
f 22 21 46
f 107 108 125
f 107 125 117
f 124 117 130
f 41 131 24
f 131 25 24
f 127 129 136
f 128 124 130
f 104 121 124
f 106 104 120
f 102 98 106
f 102 30 98
f 109 119 110
f 123 132 112
f 123 135 132
f 135 142 132
f 138 142 135
f 137 142 138
f 123 138 135
f 114 123 112
f 115 109 110
f 111 110 126
f 32 111 33
f 114 112 113
f 116 123 114
f 37 133 32
f 78 81 82
f 74 78 77
f 77 73 74
f 74 73 67
f 65 67 73
f 71 65 73
f 72 71 73
f 72 73 75
f 75 73 85
f 75 85 89
f 90 89 85
f 91 89 90
f 75 89 18
f 76 75 18
f 76 70 75
f 70 71 75
f 79 71 70
f 79 17 71
f 17 69 71
f 69 3 71
f 69 8 3
f 17 8 69
f 71 72 75
f 3 65 71
f 3 4 65
f 4 48 65
f 65 48 66
f 48 62 66
f 62 61 66
f 61 59 66
f 59 64 66
f 66 64 67
f 59 60 64
f 59 54 60
f 57 60 54
f 60 57 53
f 57 56 53
f 57 55 56
f 15 55 57
f 7 15 57
f 49 7 57
f 49 57 61
f 49 61 6
f 5 6 61
f 15 14 55
f 14 11 55
f 55 11 12
f 55 12 56
f 12 9 56
f 56 93 53
f 61 57 54
f 59 61 54
f 48 61 62
f 47 61 48
f 65 66 67
f 64 60 67
f 68 58 51
f 60 53 52
f 58 123 116
f 137 138 123
f 52 139 63
f 53 93 52
f 56 94 93
f 56 9 94
f 96 95 97
f 137 96 142
f 143 16 31
f 132 142 31

