# https://github.com/mikedh/trimesh
v -0.22660617 -0.01186995 -0.02229193
v -0.22191200 -0.03107200 -0.03359700
v -0.22936559 -0.02030185 -0.02512200
v -0.24045101 0.02310583 -0.04510929
v -0.22673509 0.03118694 -0.03706058
v -0.24162425 0.00995934 -0.04517912
v -0.21875776 0.02499106 -0.03317510
v -0.23845888 0.01410828 -0.04381814
v -0.21542000 0.02235990 -0.03083156
v -0.21300763 0.01682999 -0.02731675
v -0.21169800 0.02273000 -0.02674900
v -0.21705836 0.03012288 -0.03109703
v -0.21983451 0.03449643 -0.03054828
v -0.22963597 0.03556618 -0.03580046
v -0.21846688 0.03485350 -0.02786700
v -0.22886075 0.03848046 -0.03339041
v -0.23890708 0.03476861 -0.03796686
v -0.22189498 0.03655398 -0.03046575
v -0.24775798 0.01818040 -0.04470223
v -0.25431528 0.02308992 -0.04028318
v -0.23091413 0.04073092 -0.03046659
v -0.24092276 0.03055701 -0.04122898
v -0.23480192 0.04250507 -0.02821063
v -0.22809000 0.04465000 -0.02027700
v -0.24727900 -0.02663700 -0.04421700
v -0.25209600 -0.02424282 -0.04427190
v -0.25463201 -0.02272050 -0.04650600
v -0.25968846 -0.01932267 -0.04666669
v -0.26812254 -0.01150452 -0.04463860
v -0.26771700 -0.01193750 -0.04947000
v -0.26545900 -0.01427200 -0.04879500
v -0.27218800 -0.00673200 -0.04808175
v -0.24220701 -0.02762500 -0.03907400
v -0.27768401 0.00211300 -0.04648500
v -0.25306744 -0.02280180 -0.04059815
v -0.27774261 0.00545598 -0.04339825
v -0.28315725 0.01751125 -0.04388275
v -0.26486739 -0.01046549 -0.04047222
v -0.25813260 -0.01777115 -0.04052654
v -0.25376263 -0.01290232 -0.03609218
v -0.28218095 0.03048928 -0.03926978
v -0.28513000 0.03605750 -0.03961900
v -0.28064473 0.04508482 -0.03501726
v -0.27580654 0.06111257 -0.02844357
v -0.25987150 0.07651700 -0.01751700
v -0.22683499 0.05812650 -0.00650550
v -0.23833611 -0.01497088 -0.02801045
v -0.24029829 -0.00837161 -0.02818757
v -0.28223899 0.05455350 -0.03365625
v -0.21925389 -0.00770416 -0.01873611
v -0.28170301 0.01316800 -0.04420150
v -0.28479400 0.02788000 -0.04164600
v -0.21041451 -0.01857300 -0.01733200
v -0.27121200 0.07251150 -0.02410700
v -0.21359395 -0.00290706 -0.01524139
v -0.21025975 -0.00137650 -0.01147000
v -0.25885440 0.05136439 -0.02908837
v -0.24607204 0.05130122 -0.02487688
v -0.26293258 0.06442293 -0.02367295
v -0.26593689 -0.00243702 -0.03974812
v -0.28197789 0.04840020 -0.03458347
v -0.25510671 0.03114815 -0.03645724
v -0.24927552 0.06244069 -0.02019033
v -0.23617489 0.06162571 -0.01285612
v -0.23833834 0.04529839 -0.02479621
v -0.25770203 -0.00444121 -0.03730932
v -0.27459869 0.01785087 -0.04018760
v -0.23695551 0.06817575 -0.00871850
v -0.22652365 0.05258184 -0.01019208
v -0.26268798 0.00579985 -0.03949389
v -0.25851708 0.02361637 -0.03883366
v -0.26412858 0.02293828 -0.03913250
v -0.20984000 0.00474600 -0.00837100
v -0.21349862 0.00699462 -0.01695025
v -0.23071757 0.04619809 -0.02012742
v -0.22525899 0.04611650 -0.01383650
v -0.22279250 0.05233150 -0.00516300
v -0.24963799 0.03733308 -0.03301070
v -0.25189281 0.03080850 -0.03702609
v -0.25702731 0.01151738 -0.04029649
v -0.25500587 0.00418044 -0.03884552
v -0.24245138 -0.00092808 -0.03380444
v -0.24200224 0.00415786 -0.04089330
v -0.22911037 0.01169577 -0.03448668
v -0.23423317 0.00137769 -0.02829614
v -0.23163706 0.00249921 -0.02746424
v -0.21698317 0.01138353 -0.02664602
v -0.22234200 0.00079649 -0.02126952
v -0.25204563 -0.00555554 -0.03505036
v -0.21655332 0.00283002 -0.01860425
v -0.24963699 0.00263600 -0.03892000
v -0.24875665 -0.00125336 -0.03593592
v -0.24583062 0.01132891 -0.04536075
v -0.21189600 0.02491300 -0.01969600
v -0.21120001 0.02203894 -0.02043064
v -0.21446923 0.02671372 -0.01256264
v -0.21197917 0.02841113 -0.02368681
v -0.21213063 0.01449263 -0.01541604
v -0.21235639 0.01017302 -0.01395869
v -0.21497949 0.03370197 -0.02301192
v -0.21152444 0.01095633 -0.00958711
v -0.21068828 0.02053091 -0.02340311
v -0.21637047 0.03173502 -0.01036604
v -0.22085743 0.04008527 -0.01289636
v -0.21742416 0.03665646 -0.00699505
v -0.21062700 0.01410300 -0.00470400
v -0.21623625 0.03630725 -0.00414200
v -0.22585000 0.04435650 -0.01734238
v -0.27329185 -0.00036138 -0.05728667
v -0.27316701 0.00385810 -0.06023946
v -0.26690796 0.00227432 -0.06337606
v -0.26183249 -0.00933950 -0.05911500
v -0.25647399 -0.01788100 -0.05449700
v -0.28074049 0.00890100 -0.05347275
v -0.27084030 -0.00769210 -0.05359182
v -0.25196537 -0.02179525 -0.05205412
v -0.26312744 -0.01353879 -0.05525228
v -0.28140687 0.01269863 -0.05497412
v -0.25558240 -0.02168400 -0.04995628
v -0.27134299 0.02587700 -0.06582900
v -0.27690184 0.02854092 -0.06339042
v -0.27547522 0.01757699 -0.06313619
v -0.27257800 0.03074100 -0.06520400
v -0.26756588 0.01933287 -0.06684675
v -0.27042231 0.01489232 -0.06534492
v -0.26343700 0.00776200 -0.06632600
v -0.28081096 0.01559513 -0.05845837
v -0.26233275 0.00130800 -0.06457775
v -0.28191329 0.02236933 -0.05861459
v -0.27674574 0.03861887 -0.06216637
v -0.28277625 0.02759400 -0.05818950
v -0.27422822 0.07570720 -0.02810615
v -0.26712000 0.07651700 -0.02159700
v -0.27693999 0.00002412 -0.05076808
v -0.26475999 0.07806600 -0.02024500
f 79 71 20
f 62 71 79
f 78 62 79
f 23 78 79
f 65 78 23
f 65 57 78
f 65 58 57
f 65 63 58
f 63 65 64
f 64 65 69
f 69 65 75
f 69 75 76
f 76 75 24
f 24 75 15
f 15 75 16
f 75 21 16
f 75 23 21
f 23 17 21
f 23 79 17
f 17 79 22
f 22 79 4
f 16 17 22
f 16 22 4
f 14 16 4
f 5 14 4
f 16 14 5
f 16 5 18
f 18 5 13
f 15 18 13
f 15 13 12
f 15 12 11
f 100 15 11
f 100 108 15
f 108 100 104
f 108 104 105
f 104 100 97
f 104 97 103
f 104 103 105
f 105 103 101
f 107 105 101
f 108 105 107
f 106 107 101
f 106 101 73
f 101 99 73
f 98 99 101
f 98 74 99
f 102 74 98
f 95 102 98
f 97 102 95
f 97 11 102
f 94 97 95
f 96 97 94
f 96 94 95
f 96 95 98
f 103 96 98
f 73 99 74
f 101 103 98
f 103 97 96
f 97 100 11
f 11 12 9
f 12 7 9
f 12 5 7
f 7 5 8
f 7 8 9
f 9 8 84
f 9 84 10
f 84 87 10
f 87 84 85
f 87 85 86
f 87 86 90
f 90 86 85
f 90 85 88
f 90 88 55
f 90 55 56
f 56 74 90
f 74 10 90
f 56 55 53
f 55 50 53
f 50 1 53
f 50 47 1
f 50 48 47
f 89 48 50
f 88 89 50
f 89 38 48
f 89 66 38
f 66 60 38
f 60 36 38
f 89 36 60
f 70 36 89
f 81 70 89
f 92 81 89
f 82 92 89
f 82 83 92
f 6 92 83
f 92 6 93
f 93 91 92
f 93 81 91
f 93 80 81
f 19 80 93
f 4 19 93
f 4 93 6
f 4 6 8
f 20 19 4
f 19 20 80
f 20 72 80
f 80 72 70
f 82 84 83
f 84 6 83
f 91 81 92
f 80 70 81
f 70 72 36
f 67 36 72
f 72 41 67
f 72 43 41
f 57 43 72
f 57 72 62
f 57 61 43
f 44 61 57
f 44 49 61
f 61 49 42
f 61 42 41
f 42 52 41
f 41 52 51
f 41 51 36
f 51 34 36
f 36 34 29
f 29 34 32
f 34 134 32
f 37 134 34
f 32 134 30
f 30 134 115
f 134 114 115
f 32 30 29
f 29 30 31
f 29 31 28
f 54 49 44
f 54 132 49
f 133 132 54
f 135 133 54
f 54 44 45
f 45 44 59
f 63 45 59
f 63 59 57
f 59 44 57
f 43 61 41
f 67 41 36
f 36 29 38
f 40 38 29
f 48 40 47
f 48 38 40
f 40 39 47
f 47 39 35
f 47 35 3
f 3 35 2
f 2 35 33
f 39 29 35
f 35 29 26
f 35 26 25
f 33 35 25
f 25 26 27
f 27 119 25
f 119 27 115
f 119 115 117
f 119 117 116
f 116 117 113
f 113 117 112
f 112 117 111
f 110 111 117
f 125 111 110
f 111 125 126
f 124 126 125
f 125 121 124
f 121 125 122
f 121 122 127
f 122 110 127
f 110 109 127
f 127 109 115
f 127 115 118
f 129 127 118
f 131 129 118
f 110 115 109
f 127 129 121
f 121 129 131
f 121 131 130
f 123 121 130
f 123 120 121
f 120 124 121
f 126 128 111
f 125 110 122
f 128 112 111
f 110 117 115
f 25 119 116
f 26 29 27
f 29 28 27
f 40 29 39
f 1 47 3
f 55 88 50
f 88 85 89
f 85 84 82
f 85 82 89
f 10 87 90
f 84 8 6
f 11 9 10
f 13 5 12
f 5 4 8
f 21 17 16
f 77 69 76
f 46 69 77
f 64 69 46
f 68 64 46
f 68 45 64
f 45 63 64
f 58 63 57
f 75 65 23
f 78 57 62
f 62 72 71
f 4 79 20

