v -0.208258 -0.32486 -0.0701676
v -0.208103 -0.332694 -0.0725444
v -0.207476 -0.329024 -0.0730767
v -0.207026 -0.34064 -0.0745911
v -0.206588 -0.336951 -0.0751965
v -0.20615 -0.333263 -0.0758019
v -0.208827 -0.347346 -0.0698227
v -0.208747 -0.343686 -0.0705361
v -0.207329 -0.344318 -0.0739452
v -0.208668 -0.340026 -0.0712495
v -0.208588 -0.336365 -0.0719629
v -0.205013 -0.355873 -0.0738985
v -0.20887 -0.351004 -0.0690667
v -0.207093 -0.351618 -0.0720606
v -0.205316 -0.352232 -0.0750545
v -0.207395 -0.347977 -0.0732167
v -0.203154 -0.356558 -0.0769016
v -0.20327 -0.353077 -0.0780786
v -0.205525 -0.348671 -0.0762211
v -0.200671 -0.357458 -0.0790688
v -0.197656 -0.358319 -0.0810963
v -0.200755 -0.353959 -0.0807502
v -0.197708 -0.354826 -0.0827914
v -0.20062 -0.350283 -0.0817444
v -0.200385 -0.346601 -0.0825961
v -0.200133 -0.342924 -0.0834236
v -0.203061 -0.345784 -0.0799964
v -0.205352 -0.345011 -0.077119
v -0.202761 -0.342103 -0.0807809
v -0.199867 -0.339243 -0.0842329
v -0.199278 -0.335504 -0.0846787
v -0.200373 -0.327349 -0.0826254
v -0.201761 -0.33474 -0.0819091
v -0.205677 -0.329591 -0.0763695
v -0.203383 -0.330316 -0.0793293
v -0.201088 -0.33104 -0.082289
v -0.20271 -0.326616 -0.0797092
v -0.204795 -0.325993 -0.0766261
v -0.203882 -0.322409 -0.0768649
v -0.201914 -0.322975 -0.0800165
v -0.20297 -0.318825 -0.0771036
v -0.201002 -0.319391 -0.0802552
v -0.202057 -0.315241 -0.0773424
v -0.203112 -0.31109 -0.0744295
v -0.2022 -0.307506 -0.0746682
v -0.198516 -0.32003 -0.0829262
v -0.199774 -0.315851 -0.0802014
v -0.197261 -0.316494 -0.0828469
v -0.194748 -0.317136 -0.0854923
v -0.201032 -0.311672 -0.0774767
v -0.198519 -0.312315 -0.0801221
v -0.196006 -0.312957 -0.0827675
v -0.199777 -0.308136 -0.0773974
v -0.194776 -0.328903 -0.0874608
v -0.199545 -0.323662 -0.0828367
v -0.196722 -0.324435 -0.0852501
v -0.193898 -0.325208 -0.0876635
v -0.195844 -0.320739 -0.0854528
v -0.193021 -0.321513 -0.0878663
v -0.191945 -0.32968 -0.089853
v -0.187857 -0.326849 -0.091711
v -0.183639 -0.324021 -0.0933137
v -0.185862 -0.319594 -0.0917131
v -0.182612 -0.320402 -0.0932635
v -0.186946 -0.323186 -0.0918523
v -0.192077 -0.317841 -0.0879441
v -0.18897 -0.318718 -0.0898294
v -0.18153 -0.317181 -0.0929551
v -0.179273 -0.321291 -0.094556
v -0.17573 -0.321934 -0.0954631
v -0.181157 -0.328387 -0.094403
v -0.180259 -0.324778 -0.0946014
v -0.176735 -0.325442 -0.0955889
v -0.177619 -0.329048 -0.095317
v -0.179212 -0.336218 -0.093883
v -0.178443 -0.332638 -0.0947344
v -0.174763 -0.333264 -0.0949211
v -0.173994 -0.329684 -0.0957725
v -0.175537 -0.336852 -0.0939948
v -0.1711 -0.333916 -0.0948599
v -0.170325 -0.330327 -0.0958037
v -0.166663 -0.330981 -0.0957251
v -0.16545 -0.32747 -0.095781
v -0.16167 -0.328156 -0.0954128
v -0.169304 -0.326785 -0.0960924
v -0.157919 -0.328997 -0.094519
v -0.154199 -0.330048 -0.0933655
v -0.146677 -0.340252 -0.090095
v -0.152205 -0.334479 -0.0926134
v -0.156703 -0.336888 -0.09326
v -0.15337 -0.33786 -0.092423
v -0.150037 -0.338832 -0.091586
v -0.155647 -0.333281 -0.093937
v -0.154305 -0.341338 -0.0916452
v -0.150973 -0.34231 -0.0908089
v -0.151862 -0.345715 -0.089912
v -0.15765 -0.340239 -0.0920438
v -0.15521 -0.344523 -0.0900368
v -0.156031 -0.347376 -0.0878075
v -0.152701 -0.348617 -0.0877542
v -0.158544 -0.343289 -0.0900998
v -0.16249 -0.344016 -0.0871703
v -0.159267 -0.345727 -0.0875148
v -0.161868 -0.342024 -0.0901323
v -0.156611 -0.349398 -0.0848365
v -0.1534 -0.351115 -0.0851937
v -0.149934 -0.352283 -0.0851602
v -0.149207 -0.349602 -0.0875313
v -0.14844 -0.346635 -0.0890151
v -0.160996 -0.339038 -0.0921546
v -0.164477 -0.337924 -0.0922276
v -0.163783 -0.33498 -0.0941003
v -0.160231 -0.335966 -0.0939015
v -0.147626 -0.343542 -0.0895896
v -0.148714 -0.3358 -0.090902
v -0.145519 -0.337237 -0.0889816
v -0.159334 -0.332463 -0.094761
v -0.162996 -0.331642 -0.0954077
v -0.171859 -0.337315 -0.0935874
v -0.168168 -0.337618 -0.0929061
v -0.167426 -0.33442 -0.0945231
v -0.176264 -0.340094 -0.0925837
v -0.172542 -0.340276 -0.0918309
v -0.16882 -0.340458 -0.0910782
v -0.165896 -0.343045 -0.0875313
v -0.165187 -0.340698 -0.0901547
v -0.169849 -0.344762 -0.0865407
v -0.16946 -0.342753 -0.0885863
v -0.173372 -0.345198 -0.0878991
v -0.176802 -0.346459 -0.0891402
v -0.17295 -0.342856 -0.0898196
v -0.17669 -0.349779 -0.0874582
v -0.179664 -0.354595 -0.086918
v -0.180546 -0.369257 -0.0812285
v -0.180097 -0.365586 -0.0825543
v -0.179648 -0.361916 -0.0838801
v -0.17727 -0.373413 -0.0794641
v -0.176916 -0.3695 -0.0808607
v -0.174141 -0.373815 -0.0789134
v -0.17117 -0.374248 -0.0783122
v -0.173935 -0.369931 -0.0802628
v -0.1767 -0.365614 -0.0822134
v -0.169939 -0.377507 -0.0767484
v -0.164896 -0.382567 -0.0707864
v -0.16504 -0.379689 -0.0731748
v -0.165183 -0.376812 -0.0755632
v -0.162062 -0.379632 -0.0692258
v -0.162339 -0.37682 -0.0719592
v -0.163725 -0.374072 -0.0745619
v -0.165641 -0.369556 -0.0761889
v -0.167135 -0.372381 -0.0770547
v -0.169465 -0.368099 -0.0785068
v -0.171782 -0.363818 -0.0799776
v -0.173333 -0.366705 -0.080782
v -0.175672 -0.362426 -0.0822219
v -0.174139 -0.35953 -0.0815459
v -0.176254 -0.353095 -0.0855542
v -0.173309 -0.347945 -0.0859024
v -0.169468 -0.385583 -0.0693604
v -0.169184 -0.383373 -0.072255
v -0.165552 -0.384224 -0.0678885
v -0.173336 -0.383185 -0.0728035
v -0.173393 -0.38045 -0.075285
v -0.177267 -0.379789 -0.0752324
v -0.177456 -0.37691 -0.0776082
v -0.177163 -0.382432 -0.0726803
v -0.180894 -0.378908 -0.0749382
v -0.180792 -0.381255 -0.0720934
v -0.184257 -0.37755 -0.0739855
v -0.187723 -0.373846 -0.0758776
v -0.18442 -0.375241 -0.0769117
v -0.191177 -0.370091 -0.0777338
v -0.18779 -0.371102 -0.0784972
v -0.191153 -0.366951 -0.080063
v -0.191009 -0.363585 -0.0820307
v -0.194613 -0.35907 -0.0828529
v -0.191017 -0.360228 -0.083958
v -0.194624 -0.355698 -0.0847626
v -0.191038 -0.356703 -0.0856928
v -0.191072 -0.352968 -0.0871879
v -0.19455 -0.352039 -0.085905
v -0.194466 -0.348386 -0.087015
v -0.191067 -0.349261 -0.0885553
v -0.190826 -0.345495 -0.0895211
v -0.194285 -0.344674 -0.088023
v -0.193836 -0.340915 -0.0886435
v -0.193296 -0.337151 -0.0891353
v -0.196905 -0.340089 -0.0865127
v -0.196365 -0.336324 -0.0869957
v -0.192756 -0.333387 -0.0896211
v -0.190092 -0.337942 -0.0909322
v -0.18948 -0.334166 -0.0912227
v -0.186129 -0.334931 -0.0926042
v -0.190487 -0.341718 -0.0903063
v -0.186568 -0.338707 -0.092044
v -0.186914 -0.342512 -0.0912886
v -0.187307 -0.346283 -0.0904588
v -0.182647 -0.335694 -0.0936568
v -0.187372 -0.353816 -0.0877447
v -0.187382 -0.350048 -0.0891635
v -0.187385 -0.357536 -0.0862216
v -0.183648 -0.346866 -0.0905297
v -0.183495 -0.361796 -0.0846984
v -0.183553 -0.358052 -0.0861189
v -0.18361 -0.354308 -0.0875395
v -0.183667 -0.350564 -0.0889601
v -0.179948 -0.343591 -0.0916986
v -0.184345 -0.372003 -0.0790849
v -0.187756 -0.367943 -0.0807964
v -0.187618 -0.364588 -0.0827812
v -0.184259 -0.368805 -0.0813421
v -0.190981 -0.372684 -0.0751619
v -0.180974 -0.376141 -0.0774022
v -0.180882 -0.372901 -0.079538
v -0.173545 -0.385299 -0.0698183
v -0.17087 -0.370805 -0.0792589
v -0.169481 -0.380755 -0.074848
v -0.173698 -0.377365 -0.0773998
v -0.183951 -0.365347 -0.083089
v -0.187438 -0.361239 -0.0847606
v -0.180054 -0.350948 -0.08862
v -0.179916 -0.347321 -0.0902514
v -0.17647 -0.343416 -0.0908464
v -0.183498 -0.343163 -0.0919053
v -0.18307 -0.339433 -0.092789
v -0.179807 -0.339875 -0.0930152
v -0.173123 -0.326109 -0.0961581
v -0.188702 -0.330494 -0.0914343
v -0.185373 -0.331243 -0.0928082
v -0.182043 -0.331992 -0.0941821
v -0.184498 -0.327644 -0.0930525
v -0.191007 -0.326005 -0.0899241
v -0.190018 -0.322337 -0.0899184
v -0.19321 -0.313714 -0.0849885
v -0.190391 -0.314481 -0.0871754
v -0.187572 -0.315247 -0.0893623
v -0.197065 -0.308859 -0.0797447
v -0.194246 -0.309625 -0.0819316
v -0.184713 -0.316086 -0.0914402
v -0.191336 -0.310556 -0.0838725
v -0.188401 -0.311529 -0.0857494
v -0.198492 -0.331818 -0.0849373
v -0.195663 -0.332594 -0.0873173
v -0.197604 -0.328128 -0.0850764
v -0.197682 -0.347541 -0.08515
v -0.197468 -0.34384 -0.0860468
v -0.197859 -0.351233 -0.0841928
v -0.19454 -0.365832 -0.0789555
v -0.19763 -0.361787 -0.0793452
v -0.194579 -0.362448 -0.0809064
v -0.197318 -0.364833 -0.0768403
v -0.200384 -0.360892 -0.0774262
v -0.201135 -0.365911 -0.0702935
v -0.198876 -0.366837 -0.0722325
v -0.196616 -0.367764 -0.0741715
v -0.201955 -0.362886 -0.0728005
v -0.199696 -0.363813 -0.0747395
v -0.202776 -0.359861 -0.0753075
v -0.194251 -0.368775 -0.0762571
v -0.203221 -0.349453 -0.0790894
v -0.204054 -0.361971 -0.0704886
v -0.206244 -0.358087 -0.0689944
v -0.204548 -0.358971 -0.0722389
v -0.206738 -0.355087 -0.0707447
v -0.204889 -0.341338 -0.0777101
v -0.204438 -0.337671 -0.0782976
v -0.202273 -0.338416 -0.0813791
v -0.203987 -0.334005 -0.0788851
v -0.206768 -0.325382 -0.073523
v -0.205854 -0.321811 -0.0737478
v -0.20494 -0.318239 -0.0739725
v -0.204026 -0.314668 -0.0741972
v -0.209207 -0.339496 -0.0675276
v -0.209074 -0.335842 -0.0682218
v -0.20894 -0.332188 -0.068916
v -0.208807 -0.328534 -0.0696102
v -0.209083 -0.324365 -0.0665365
v -0.20895 -0.320711 -0.0672307
v -0.207543 -0.321226 -0.0705832
v -0.208198 -0.317089 -0.0676083
v -0.206645 -0.317652 -0.0708127
v -0.205746 -0.314078 -0.0710421
v -0.204848 -0.310504 -0.0712716
v -0.20395 -0.30693 -0.071501
v -0.168199 -0.374681 -0.0777109
v -0.179198 -0.358246 -0.085206
f 279 270 269 1
f 269 3 276 1
f 277 278 279 1
f 3 34 6 2
f 6 5 11 2
f 11 274 275 2
f 275 276 3 2
f 269 38 34 3
f 5 266 265 4
f 265 28 9 4
f 9 8 10 4
f 10 11 5 4
f 6 268 266 5
f 34 35 268 6
f 8 9 16 7
f 16 14 13 7
f 28 19 16 9
f 273 274 11 10
f 15 18 17 12
f 17 258 263 12
f 263 262 264 12
f 264 14 15 12
f 16 19 15 14
f 19 260 18 15
f 18 22 20 17
f 20 252 258 17
f 260 24 22 18
f 28 27 260 19
f 22 23 21 20
f 21 249 252 20
f 23 178 176 21
f 176 250 249 21
f 24 247 23 22
f 247 181 178 23
f 25 245 247 24
f 260 27 25 24
f 26 246 245 25
f 27 29 26 25
f 30 188 246 26
f 29 267 30 26
f 28 265 29 27
f 265 266 267 29
f 31 189 188 30
f 267 33 31 30
f 242 243 189 31
f 33 36 242 31
f 55 56 244 32
f 244 242 36 32
f 36 35 37 32
f 37 40 55 32
f 267 266 268 33
f 268 35 36 33
f 38 37 35 34
f 38 39 40 37
f 269 270 39 38
f 41 42 40 39
f 270 271 41 39
f 42 46 55 40
f 43 47 42 41
f 271 272 43 41
f 47 48 46 42
f 50 51 47 43
f 272 44 50 43
f 45 53 50 44
f 272 282 283 44
f 283 284 45 44
f 48 49 58 46
f 58 56 55 46
f 51 52 48 47
f 52 234 49 48
f 234 235 66 49
f 66 59 58 49
f 53 237 51 50
f 237 238 52 51
f 238 240 234 52
f 57 232 60 54
f 60 190 243 54
f 243 242 244 54
f 244 56 57 54
f 58 59 57 56
f 59 233 232 57
f 66 67 233 59
f 232 61 228 60
f 228 192 190 60
f 65 62 231 61
f 231 229 228 61
f 232 233 65 61
f 64 69 72 62
f 72 71 231 62
f 65 63 64 62
f 239 68 64 63
f 65 233 67 63
f 67 236 239 63
f 235 236 67 66
f 70 73 72 69
f 72 73 74 71
f 74 76 230 71
f 230 229 231 71
f 227 78 74 73
f 78 77 76 74
f 76 77 79 75
f 79 122 226 75
f 226 225 198 75
f 198 230 76 75
f 78 81 80 77
f 80 119 79 77
f 227 85 81 78
f 119 123 122 79
f 81 82 121 80
f 121 120 119 80
f 85 83 82 81
f 83 84 118 82
f 118 112 121 82
f 86 117 118 84
f 87 93 117 86
f 114 95 92 88
f 92 115 116 88
f 115 92 91 89
f 91 90 93 89
f 91 94 97 90
f 97 110 113 90
f 113 117 93 90
f 92 95 94 91
f 95 96 98 94
f 98 101 97 94
f 114 109 96 95
f 109 108 100 96
f 100 99 98 96
f 101 104 110 97
f 99 103 101 98
f 100 106 105 99
f 108 107 106 100
f 103 102 104 101
f 125 126 104 102
f 126 111 110 104
f 111 112 113 110
f 126 124 120 111
f 120 121 112 111
f 118 117 113 112
f 120 124 123 119
f 123 131 223 122
f 223 207 226 122
f 124 128 131 123
f 126 125 128 124
f 129 131 128 127
f 158 132 130 129
f 130 223 131 129
f 132 221 222 130
f 222 207 223 130
f 157 133 221 132
f 286 204 205 133
f 205 206 221 133
f 135 142 138 134
f 138 137 214 134
f 214 208 211 134
f 211 219 135 134
f 136 155 142 135
f 219 203 136 135
f 286 156 155 136
f 203 204 286 136
f 138 141 139 137
f 139 218 165 137
f 165 213 214 137
f 142 154 141 138
f 141 216 140 139
f 140 143 218 139
f 216 151 285 140
f 285 146 143 140
f 154 152 216 141
f 155 153 154 142
f 146 145 217 143
f 217 163 218 143
f 145 148 147 144
f 161 159 160 144
f 160 217 145 144
f 146 149 148 145
f 285 151 149 146
f 151 216 152 150
f 215 162 160 159
f 162 163 217 160
f 166 164 163 162
f 164 165 218 163
f 166 168 167 164
f 167 213 165 164
f 169 171 213 167
f 173 208 171 170
f 212 172 173 170
f 208 214 213 171
f 174 209 173 172
f 259 248 174 172
f 209 211 208 173
f 175 210 209 174
f 248 250 175 174
f 177 220 210 175
f 250 176 177 175
f 178 179 177 176
f 179 201 220 177
f 181 180 179 178
f 180 199 201 179
f 183 200 199 180
f 181 182 183 180
f 247 245 182 181
f 185 184 183 182
f 245 246 185 182
f 184 197 200 183
f 194 196 197 184
f 185 186 194 184
f 246 188 186 185
f 187 191 194 186
f 188 189 187 186
f 190 192 191 187
f 189 243 190 187
f 192 193 195 191
f 195 196 194 191
f 228 229 193 192
f 229 230 198 193
f 198 225 195 193
f 225 224 196 195
f 224 202 197 196
f 202 206 200 197
f 200 206 205 199
f 205 204 201 199
f 204 203 220 201
f 224 207 222 202
f 222 221 206 202
f 219 210 220 203
f 224 225 226 207
f 210 219 211 209
f 240 241 235 234
f 259 255 251 248
f 251 249 250 248
f 251 257 252 249
f 255 254 257 251
f 257 256 258 252
f 256 257 254 253
f 261 263 258 256
f 279 281 271 270
f 281 282 272 271
f 280 281 279 278
