# https://github.com/mikedh/trimesh
v 0.14991225 -0.31795599 0.00686600
v 0.13659300 -0.32163799 -0.00064500
v 0.20649550 -0.34939250 -0.00062650
v 0.13888700 -0.33168799 0.00480900
v 0.14449833 -0.35346013 0.01329885
v 0.14470800 -0.35644175 0.01090100
v 0.13911300 -0.32882224 0.00079375
v 0.14083250 -0.34830100 0.01367400
v 0.20143475 -0.30311987 -0.00857463
v 0.19277100 -0.30436999 0.00046500
v 0.17588550 -0.30866126 0.00986175
v 0.16322717 -0.31257938 0.01226024
v 0.16005151 -0.31356407 0.01135405
v 0.16526859 -0.34630931 -0.00278332
v 0.16659053 -0.34488790 0.00233468
v 0.15206097 -0.35923236 0.00301846
v 0.15466812 -0.35838204 0.00088073
v 0.15619500 -0.35506001 0.00728100
v 0.16689752 -0.34294728 0.00835664
v 0.16460644 -0.34521631 0.00824361
v 0.15409800 -0.35424550 0.01132250
v 0.16547950 -0.34159524 0.01212575
v 0.17062950 -0.34005900 0.01024925
v 0.14918600 -0.35623899 0.01149100
v 0.16831700 -0.34636425 -0.00761825
v 0.16977800 -0.34278700 0.00558300
v 0.17377900 -0.34920001 0.00387200
v 0.16078100 -0.37094301 -0.00228400
v 0.16039100 -0.38118975 -0.00833325
v 0.16465899 -0.36341900 -0.00067700
v 0.16314450 -0.32987527 0.01736095
v 0.17651061 -0.33006628 0.01516668
v 0.18346967 -0.33573839 0.01338423
v 0.14939978 -0.34560934 0.01741739
v 0.15438044 -0.34371936 0.01719605
v 0.18530408 -0.34772451 0.01125495
v 0.15327091 -0.34023231 0.01789552
v 0.17874345 -0.36741308 0.00674148
v 0.18176015 -0.36618577 0.00661301
v 0.16582126 -0.33221398 0.01674377
v 0.18772459 -0.33240112 0.01236036
v 0.18926497 -0.35648151 0.00858927
v 0.18601494 -0.36627388 0.00587010
v 0.17891197 -0.33500572 0.01364272
v 0.15218349 -0.35205134 0.01471495
v 0.16688336 -0.33762071 0.01435794
v 0.19054613 -0.35168762 0.00973393
v 0.19467201 -0.36060957 0.00537275
v 0.17093000 -0.38196400 -0.00032700
v 0.18107325 -0.35101775 0.00979825
v 0.17662200 -0.33793801 0.01240900
v 0.17823981 -0.37475997 0.00342115
v 0.16921300 -0.37987900 0.00086400
v 0.17499134 -0.32579714 0.01570415
v 0.17436300 -0.36522099 0.00616600
v 0.17919804 -0.38012645 0.00004315
v 0.17896600 -0.34014250 0.01201850
v 0.19901809 -0.36117169 0.00224652
v 0.16763000 -0.37753950 0.00156850
v 0.15728214 -0.33034755 0.01774839
v 0.19610888 -0.34380720 0.00870170
v 0.17337143 -0.32324594 0.01589806
v 0.17864799 -0.35810101 0.00797600
v 0.18906799 -0.37411941 0.00005440
v 0.14463950 -0.34887799 0.01528600
v 0.15035249 -0.33591775 0.01704500
v 0.15479216 -0.35128187 0.01363656
v 0.18627262 -0.32447833 0.01191104
v 0.16336399 -0.32168901 0.01588200
v 0.18445149 -0.37995499 -0.00315675
v 0.16945300 -0.38585699 -0.00467800
v 0.20210351 -0.35150964 0.00374013
v 0.19047425 -0.33349132 0.01157162
v 0.18822260 -0.31943456 0.00979931
v 0.20103425 -0.33986745 0.00548306
v 0.19612555 -0.32644272 0.00703233
v 0.20064437 -0.36353063 -0.00040391
v 0.17924426 -0.31054339 0.01019526
v 0.20579425 -0.34168925 0.00065800
v 0.20469300 -0.33430499 0.00099000
v 0.20141677 -0.32338471 0.00145975
v 0.20701499 -0.35787699 -0.00468100
v 0.20252700 -0.31281000 -0.00458500
v 0.20126800 -0.30798000 -0.00586700
v 0.16716256 -0.38194034 -0.00092559
v 0.16417895 -0.38423550 -0.00474159
v 0.16484247 -0.37787295 0.00055155
v 0.17741850 -0.34792839 0.00784578
v 0.17319713 -0.36143313 0.00574884
v 0.17437614 -0.35401301 0.00482427
v 0.16081759 -0.37403969 -0.00076698
v 0.14285000 -0.32681501 0.00499200
v 0.14504537 -0.32782817 0.01028815
v 0.14360241 -0.33390652 0.01276324
v 0.14841880 -0.33066262 0.01506464
v 0.14616722 -0.33872602 0.01620374
v 0.16031989 -0.32270452 0.01575253
f 67 21 22
f 45 67 22
f 46 45 22
f 40 45 46
f 40 46 51
f 44 40 51
f 44 51 50
f 44 50 36
f 36 50 38
f 50 55 38
f 55 59 38
f 55 87 59
f 59 87 85
f 87 86 85
f 87 91 86
f 86 91 29
f 85 86 49
f 86 71 49
f 59 85 49
f 89 87 55
f 89 91 87
f 90 91 89
f 90 27 91
f 91 27 30
f 30 28 91
f 88 27 90
f 88 90 89
f 63 89 55
f 63 88 89
f 88 63 50
f 57 88 50
f 57 23 88
f 38 59 53
f 52 38 53
f 52 53 49
f 52 49 56
f 48 52 56
f 48 56 64
f 56 70 64
f 77 64 70
f 77 70 82
f 58 64 77
f 72 58 77
f 72 77 3
f 77 82 3
f 61 72 3
f 61 47 72
f 47 48 72
f 47 42 48
f 42 43 48
f 42 39 43
f 43 39 52
f 42 47 39
f 47 38 39
f 61 36 47
f 61 73 36
f 73 61 75
f 76 73 75
f 81 76 75
f 76 81 10
f 10 81 83
f 10 83 84
f 10 84 9
f 76 10 74
f 10 78 74
f 74 78 68
f 78 62 68
f 78 11 62
f 11 12 62
f 12 69 62
f 62 69 60
f 62 60 31
f 54 62 31
f 62 54 41
f 41 54 33
f 32 33 54
f 32 44 33
f 73 41 33
f 73 68 41
f 32 54 31
f 31 40 32
f 31 37 40
f 37 34 40
f 40 34 35
f 35 34 45
f 45 34 5
f 45 5 24
f 5 6 24
f 34 65 5
f 31 60 37
f 60 34 37
f 60 66 34
f 66 65 34
f 12 97 69
f 97 66 69
f 66 97 95
f 95 96 66
f 95 4 96
f 96 4 8
f 12 95 97
f 13 95 12
f 1 95 13
f 1 93 95
f 95 93 94
f 93 4 94
f 93 92 4
f 92 7 4
f 1 2 93
f 68 62 41
f 74 68 73
f 78 10 11
f 75 80 81
f 80 75 79
f 79 75 3
f 76 74 73
f 73 33 36
f 3 75 61
f 72 48 58
f 56 49 70
f 58 48 64
f 43 52 48
f 39 38 52
f 36 38 47
f 33 44 36
f 32 40 44
f 40 35 45
f 46 22 51
f 67 45 21
f 45 24 21
f 22 21 20
f 22 20 19
f 22 19 26
f 26 19 15
f 26 15 25
f 15 14 25
f 19 20 15
f 20 17 15
f 20 18 17
f 17 18 16
f 18 6 16
f 21 6 18
f 15 17 14
f 14 17 25
f 20 21 18

