# https://github.com/mikedh/trimesh
v 0.26881999 -0.00912300 -0.05314800
v 0.25602588 -0.02098425 -0.04946350
v 0.27670725 0.00066025 -0.05213725
v 0.28619150 0.02626425 -0.05029675
v 0.26431088 0.08066872 -0.04049716
v 0.26989400 0.07879100 -0.03903700
v 0.27071913 0.07580766 -0.04342050
v 0.27371287 0.06870525 -0.04902313
v 0.26768946 0.06956628 -0.05204893
v 0.26691564 0.07257440 -0.04956487
v 0.26223586 0.07962127 -0.04288840
v 0.25465221 0.08236147 -0.04100594
v 0.26122017 0.07524840 -0.04853717
v 0.26078249 0.08338200 -0.03649400
v 0.25254085 0.07882335 -0.04581542
v 0.24968859 0.07250064 -0.05222709
v 0.25386812 0.06758487 -0.05594498
v 0.25986366 0.07129719 -0.05236105
v 0.25046599 0.08456800 -0.03771400
v 0.26031591 0.06227421 -0.05869325
v 0.24151399 0.07306300 -0.05105950
v 0.26587823 0.05992424 -0.05891609
v 0.25220410 0.06347775 -0.05870727
v 0.24417124 0.06579612 -0.05692591
v 0.26870455 0.06208159 -0.05674497
v 0.27266555 0.06366909 -0.05453327
v 0.25696182 0.05521503 -0.06281730
v 0.26402231 0.04870960 -0.06444833
v 0.24534384 0.05183059 -0.06433519
v 0.23960669 0.05726661 -0.06138482
v 0.25683093 0.04693277 -0.06588049
v 0.24740496 0.04509334 -0.06678420
v 0.24034842 0.05059453 -0.06431601
v 0.22375056 0.07223611 -0.04800274
v 0.26772442 0.04879686 -0.06337520
v 0.23600735 0.05104482 -0.06344319
v 0.23771298 0.04364604 -0.06613628
v 0.26195931 0.04067865 -0.06690513
v 0.27240762 0.04936137 -0.06114413
v 0.27462500 0.05833700 -0.05630500
v 0.27779299 0.05919000 -0.05384700
v 0.24717797 0.04010724 -0.06814588
v 0.22785412 0.04805397 -0.06272277
v 0.23047536 0.03878941 -0.06577392
v 0.25089450 0.03321850 -0.06905450
v 0.24715500 0.03438000 -0.06885400
v 0.23811450 0.03165387 -0.06812625
v 0.22995375 0.03497263 -0.06626788
v 0.24960700 0.02501900 -0.06974600
v 0.28150550 0.05605325 -0.05250900
v 0.28586200 0.04927400 -0.05035000
v 0.28709000 0.04563900 -0.04937700
v 0.28757450 0.03760750 -0.04993900
v 0.28411600 0.01613950 -0.05118950
v 0.22780050 -0.02727650 -0.04972400
v 0.23935451 -0.02862350 -0.04636500
v 0.22542901 -0.02881625 -0.04720025
v 0.24270099 -0.02769100 -0.04723900
v 0.24349804 -0.02509838 -0.05183278
v 0.24678675 -0.01792189 -0.05820009
v 0.25602839 -0.01510131 -0.05741460
v 0.25758421 -0.01072699 -0.06021358
v 0.23599289 -0.02579996 -0.05155449
v 0.23890007 -0.02143516 -0.05576313
v 0.25281301 -0.00756700 -0.06320600
v 0.24259800 -0.01329675 -0.06137500
v 0.23641500 -0.01885550 -0.05773400
v 0.26800394 -0.00671872 -0.05691896
v 0.24981400 -0.00242800 -0.06585000
v 0.27206223 -0.00150225 -0.05721676
v 0.27725922 0.00389651 -0.05538763
v 0.28211690 0.01268484 -0.05446113
v 0.28249899 0.01819000 -0.05621800
v 0.27372913 0.00735500 -0.06112541
v 0.27867884 0.01813317 -0.06098538
v 0.26823564 0.00118093 -0.06213188
v 0.26593066 -0.00501333 -0.05968077
v 0.27202660 0.01439525 -0.06411730
v 0.27707573 0.02307423 -0.06268292
v 0.26299472 0.00737429 -0.06644909
v 0.25751534 -0.00424606 -0.06376839
v 0.26607395 0.01864738 -0.06752713
v 0.26606888 0.02162441 -0.06748198
v 0.28334368 0.02915612 -0.05793396
v 0.27552952 0.03068492 -0.06371108
v 0.27074222 0.03075883 -0.06602527
v 0.25108550 0.01238588 -0.06895200
v 0.25958608 0.01982648 -0.06904211
v 0.27841845 0.03214571 -0.06212439
v 0.26857129 0.03849191 -0.06577687
v 0.26150566 0.03181105 -0.06841979
v 0.25663821 0.01135598 -0.06875939
v 0.25556183 0.02711171 -0.06947379
v 0.27462824 0.04115208 -0.06288540
v 0.27509760 0.04579921 -0.06145593
v 0.28276473 0.04095148 -0.05733518
v 0.27890121 0.04143923 -0.06045025
v 0.27865997 0.05252242 -0.05681679
v 0.28328769 0.04978367 -0.05407241
v 0.28564941 0.02414863 -0.05334674
v 0.28661025 0.03669514 -0.05274658
v 0.28556547 0.04098782 -0.05423391
f 63 67 64
f 64 67 60
f 66 60 67
f 66 65 60
f 65 66 69
f 65 69 80
f 92 80 69
f 80 92 82
f 82 92 88
f 93 88 92
f 93 92 87
f 93 87 49
f 91 93 49
f 38 91 49
f 90 91 38
f 90 86 91
f 86 88 91
f 86 83 88
f 86 82 83
f 85 82 86
f 97 85 86
f 97 86 94
f 95 97 94
f 98 97 95
f 99 97 98
f 50 99 98
f 50 51 99
f 51 102 99
f 99 102 96
f 96 102 89
f 102 84 89
f 102 101 84
f 53 101 102
f 52 53 102
f 53 100 101
f 4 100 53
f 4 72 100
f 4 54 72
f 54 3 72
f 72 3 71
f 72 71 74
f 72 74 75
f 75 74 80
f 78 75 80
f 74 76 80
f 76 81 80
f 76 77 81
f 77 62 81
f 62 65 81
f 77 1 62
f 68 1 77
f 62 1 61
f 62 61 60
f 2 60 61
f 59 60 2
f 58 59 2
f 58 56 59
f 59 56 63
f 56 55 63
f 56 57 55
f 2 61 1
f 68 77 76
f 70 68 76
f 76 71 70
f 71 1 70
f 70 1 68
f 73 72 75
f 100 73 75
f 84 100 75
f 84 75 79
f 75 78 79
f 79 78 82
f 89 79 82
f 73 100 72
f 71 76 74
f 3 1 71
f 100 84 101
f 84 79 89
f 96 89 97
f 51 52 102
f 41 50 98
f 98 39 41
f 99 96 97
f 98 95 39
f 95 90 39
f 95 94 90
f 89 85 97
f 89 82 85
f 94 86 90
f 39 90 38
f 39 38 35
f 26 39 35
f 39 26 40
f 26 35 28
f 26 28 22
f 22 28 27
f 28 31 27
f 28 42 31
f 31 42 32
f 32 42 37
f 37 42 44
f 42 48 44
f 42 47 48
f 42 46 47
f 42 45 46
f 42 38 45
f 37 44 34
f 32 37 29
f 29 37 33
f 36 33 37
f 36 37 43
f 34 36 43
f 30 36 34
f 21 30 34
f 24 30 21
f 23 30 24
f 23 29 30
f 27 29 23
f 17 27 23
f 20 27 17
f 20 17 18
f 9 20 18
f 9 22 20
f 25 22 9
f 26 25 9
f 7 26 9
f 8 26 7
f 8 40 26
f 7 9 10
f 7 10 5
f 10 13 5
f 13 10 18
f 5 13 11
f 13 12 11
f 13 15 12
f 15 13 16
f 15 16 21
f 13 17 16
f 12 15 21
f 12 21 19
f 14 12 19
f 5 12 14
f 6 5 14
f 5 11 12
f 7 5 6
f 10 9 18
f 13 18 17
f 17 23 16
f 23 24 16
f 16 24 21
f 33 36 30
f 30 29 33
f 27 32 29
f 28 38 42
f 31 32 27
f 22 27 20
f 25 26 22
f 35 38 28
f 91 88 93
f 83 82 88
f 78 80 82
f 92 69 87
f 80 81 65
f 62 60 65
f 60 59 64
f 63 55 67
f 59 63 64

