# https://github.com/mikedh/trimesh
v -0.27215001 -0.45934799 -0.19349401
v -0.28490049 -0.47671451 -0.19218650
v -0.29137850 -0.48310100 -0.19525300
v -0.29074400 -0.48028100 -0.19122400
v -0.29592188 -0.48238737 -0.19230112
v -0.29457813 -0.48099026 -0.20105175
v -0.31060175 -0.46640100 -0.18467275
v -0.30521000 -0.40524601 -0.16689801
v -0.30064200 -0.38755750 -0.16426199
v -0.31165583 -0.43915598 -0.17508933
v -0.29151201 -0.36160401 -0.15877500
v -0.28742899 -0.35113549 -0.15577550
v -0.29703301 -0.37684500 -0.16198100
v -0.29301101 -0.36585101 -0.15927900
v -0.29906230 -0.48232171 -0.19344983
v -0.30588150 -0.47579330 -0.18731652
v -0.30639775 -0.47064100 -0.18248075
v -0.30843601 -0.47267899 -0.18841200
v -0.30249575 -0.47926925 -0.19480951
v -0.30991664 -0.46499853 -0.18132686
v -0.30329401 -0.47634313 -0.18570875
v -0.30998475 -0.46120025 -0.17987550
v -0.27585399 -0.32479700 -0.14784101
v -0.28017649 -0.33435750 -0.15010950
v -0.25703125 -0.28877425 -0.13765950
v -0.24650900 -0.27143350 -0.13147749
v -0.24484451 -0.27101625 -0.12568875
v -0.27036401 -0.31380451 -0.14410150
v -0.25192599 -0.28042355 -0.13118466
v -0.26336479 -0.30091842 -0.13718867
v -0.25536520 -0.29058317 -0.12919046
v -0.29813156 -0.38216488 -0.16068308
v -0.29077873 -0.36283242 -0.15458650
v -0.28782052 -0.35395794 -0.15318817
v -0.27591591 -0.32894997 -0.14353431
v -0.26288855 -0.30353959 -0.13465555
v -0.27174193 -0.32414708 -0.13926984
v -0.29706259 -0.38403772 -0.15840167
v -0.29974418 -0.38872223 -0.16110274
v -0.27729401 -0.33375001 -0.14416800
v -0.27762381 -0.33062056 -0.14555777
v -0.25947490 -0.29687323 -0.13232632
v -0.25406971 -0.29662720 -0.12796722
v -0.25109200 -0.29287399 -0.12629550
v -0.30976710 -0.44570211 -0.17368478
v -0.24578901 -0.27462700 -0.12358000
v -0.26042293 -0.30914787 -0.13226490
v -0.28573823 -0.35150595 -0.15042679
v -0.28929288 -0.36908911 -0.15229794
v -0.29684739 -0.39529660 -0.15885925
v -0.27390691 -0.33385256 -0.14109956
v -0.30064788 -0.40813861 -0.16247299
v -0.29088483 -0.37666098 -0.15378526
v -0.30424263 -0.41175778 -0.16482411
v -0.30695125 -0.43110427 -0.16904331
v -0.26520945 -0.31446512 -0.13496574
v -0.27763231 -0.34360657 -0.14398329
v -0.28600153 -0.37229668 -0.15189337
v -0.28229373 -0.35392876 -0.14732917
v -0.26868696 -0.32249493 -0.13717310
v -0.25247350 -0.30138600 -0.12883500
v -0.30605070 -0.44594829 -0.17252655
v -0.29637369 -0.39930071 -0.15962998
v -0.26916807 -0.33383949 -0.14012476
v -0.30513999 -0.46451399 -0.17901000
v -0.30887769 -0.45909594 -0.17722040
v -0.28503200 -0.39370000 -0.15975200
v -0.28908304 -0.39142790 -0.15757326
v -0.27755301 -0.36975026 -0.15243475
v -0.29854313 -0.47383592 -0.18350091
v -0.27984037 -0.43042275 -0.17721275
v -0.28395619 -0.47346742 -0.19103060
v -0.28584465 -0.46539460 -0.18662221
v -0.29296660 -0.47877939 -0.18831278
v -0.30174540 -0.47047031 -0.18125624
v -0.30447608 -0.45642019 -0.17568706
v -0.26933500 -0.34566550 -0.14447950
v -0.30189455 -0.42491501 -0.16646152
v -0.28051405 -0.36727145 -0.15070886
v -0.27910585 -0.35712375 -0.14736315
v -0.25962075 -0.32078500 -0.13582700
f 55 45 66
f 62 55 66
f 62 66 76
f 66 65 76
f 76 65 75
f 70 76 75
f 70 68 76
f 68 78 76
f 68 63 78
f 63 50 78
f 50 52 78
f 52 54 78
f 54 55 78
f 50 54 52
f 38 54 50
f 38 39 54
f 39 8 54
f 54 8 10
f 54 10 55
f 55 10 45
f 45 10 66
f 10 22 66
f 66 22 20
f 9 8 39
f 32 9 39
f 13 9 32
f 33 13 32
f 33 32 38
f 33 38 49
f 49 38 53
f 49 53 58
f 58 53 50
f 58 50 68
f 79 58 68
f 69 79 68
f 77 79 69
f 77 80 79
f 77 81 80
f 81 64 80
f 56 64 81
f 47 56 81
f 61 47 81
f 44 47 61
f 44 43 47
f 43 31 47
f 31 42 47
f 46 31 43
f 43 44 46
f 42 56 47
f 36 56 42
f 36 30 56
f 56 30 60
f 60 30 37
f 51 60 37
f 60 51 64
f 64 51 57
f 51 48 57
f 57 48 59
f 48 49 59
f 48 34 49
f 41 34 48
f 40 41 48
f 41 40 51
f 35 41 51
f 37 41 35
f 41 24 34
f 41 23 24
f 28 23 41
f 30 28 41
f 25 28 30
f 29 25 30
f 29 30 31
f 31 30 42
f 46 29 31
f 27 29 46
f 27 26 29
f 26 25 29
f 34 24 12
f 34 12 33
f 12 11 33
f 33 11 14
f 40 48 51
f 35 51 37
f 30 41 37
f 36 42 30
f 56 60 64
f 64 57 80
f 80 57 59
f 59 49 80
f 69 68 67
f 67 68 71
f 71 68 73
f 71 73 1
f 73 72 1
f 72 73 74
f 73 70 74
f 72 74 2
f 2 74 4
f 4 74 5
f 74 21 5
f 70 21 74
f 21 15 5
f 21 16 15
f 17 16 21
f 17 20 16
f 20 7 16
f 22 7 20
f 7 18 16
f 16 18 19
f 16 19 15
f 15 19 6
f 3 15 6
f 5 15 3
f 1 72 2
f 79 80 58
f 80 49 58
f 49 34 33
f 14 13 33
f 38 32 39
f 53 38 50
f 68 50 63
f 68 70 73
f 75 21 70
f 66 21 75
f 66 20 21
f 75 65 66
f 78 62 76
f 78 55 62

