# https://github.com/mikedh/trimesh
v -3.50000000 0.00000000 -2.50000000
v -3.50000000 0.00000000 2.50000000
v -3.50000000 0.40000001 2.50000000
v -3.50000000 0.40000001 -2.50000000
v 3.50000000 0.00000000 2.50000000
v 3.50000000 0.00000000 -2.50000000
v 3.50000000 0.40000001 -2.50000000
v 3.50000000 0.40000001 2.50000000
v 3.48078537 0.00000000 -2.69509029
v 3.42387962 0.00000000 -2.88268352
v 3.33146954 0.00000000 -3.05557013
v 3.20710683 0.00000000 -3.20710683
v 3.05557013 0.00000000 -3.33146954
v 2.88268352 0.00000000 -3.42387962
v 2.69509029 0.00000000 -3.48078537
v 2.50000000 0.00000000 -3.50000000
v 2.50000000 0.40000001 -3.50000000
v 2.69509029 0.40000001 -3.48078537
v 2.88268352 0.40000001 -3.42387962
v 3.05557013 0.40000001 -3.33146954
v 3.20710683 0.40000001 -3.20710683
v 3.33146954 0.40000001 -3.05557013
v 3.42387962 0.40000001 -2.88268352
v 3.48078537 0.40000001 -2.69509029
v 2.25000000 0.40000001 -2.50000000
v 2.27161360 0.40000001 -2.39831591
v 2.33271742 0.40000001 -2.31421375
v 2.42274570 0.40000001 -2.26223588
v 2.52613211 0.40000001 -2.25136948
v 2.62500000 0.40000001 -2.28349376
v 2.70225430 0.40000001 -2.35305357
v 2.74453688 0.40000001 -2.44802213
v 2.74453688 0.40000001 -2.55197787
v 2.70225430 0.40000001 -2.64694643
v 2.62500000 0.40000001 -2.71650624
v 2.52613211 0.40000001 -2.74863052
v 2.42274570 0.40000001 -2.73776412
v 2.33271742 0.40000001 -2.68578625
v 2.27161360 0.40000001 -2.60168409
v 2.25000000 0.00000000 -2.50000000
v 2.27161360 0.00000000 -2.60168409
v 2.33271742 0.00000000 -2.68578625
v 2.42274570 0.00000000 -2.73776412
v 2.52613211 0.00000000 -2.74863052
v 2.62500000 0.00000000 -2.71650624
v 2.70225430 0.00000000 -2.64694643
v 2.74453688 0.00000000 -2.55197787
v 2.74453688 0.00000000 -2.44802213
v 2.70225430 0.00000000 -2.35305357
v 2.62500000 0.00000000 -2.28349376
v 2.52613211 0.00000000 -2.25136948
v 2.42274570 0.00000000 -2.26223588
v 2.33271742 0.00000000 -2.31421375
v 2.27161360 0.00000000 -2.39831591
v 1.89999998 0.40000001 -0.00000000
v 1.87773275 0.40000001 0.29003364
v 1.81145310 0.40000001 0.57326913
v 1.70271456 0.40000001 0.84306771
v 1.55406582 0.40000001 1.09310544
v 1.36899102 0.40000001 1.31752181
v 1.15182829 0.40000001 1.51105642
v 0.90766764 0.40000001 1.66917324
v 0.64223206 0.40000001 1.78816605
v 0.36174309 0.40000001 1.86524582
v 0.07277519 0.40000001 1.89860570
v -0.21789850 0.40000001 1.88746393
v -0.50346488 0.40000001 1.83208168
v -0.77723038 0.40000001 1.73375690
v -1.03277838 0.40000001 1.59479427
v -1.26411879 0.40000001 1.41845107
v -1.46582949 0.40000001 1.20886064
v -1.63318229 0.40000001 0.97093546
v -1.76225471 0.40000001 0.71025246
v -1.85002136 0.40000001 0.43292168
v -1.89442503 0.40000001 0.14544357
v -1.89442503 0.40000001 -0.14544357
v -1.85002136 0.40000001 -0.43292168
v -1.76225471 0.40000001 -0.71025246
v -1.63318229 0.40000001 -0.97093546
v -1.46582949 0.40000001 -1.20886064
v -1.26411879 0.40000001 -1.41845107
v -1.03277838 0.40000001 -1.59479427
v -0.77723038 0.40000001 -1.73375690
v -0.50346488 0.40000001 -1.83208168
v -0.21789850 0.40000001 -1.88746393
v 0.07277519 0.40000001 -1.89860570
v 0.36174309 0.40000001 -1.86524582
v 0.64223206 0.40000001 -1.78816605
v 0.90766764 0.40000001 -1.66917324
v 1.15182829 0.40000001 -1.51105642
v 1.36899102 0.40000001 -1.31752181
v 1.55406582 0.40000001 -1.09310544
v 1.70271456 0.40000001 -0.84306771
v 1.81145310 0.40000001 -0.57326913
v 1.87773275 0.40000001 -0.29003364
v 2.25000000 0.40000001 2.50000000
v 2.27161360 0.40000001 2.39831591
v 2.33271742 0.40000001 2.31421375
v 2.42274570 0.40000001 2.26223588
v 2.52613211 0.40000001 2.25136948
v 2.62500000 0.40000001 2.28349376
v 2.70225430 0.40000001 2.35305357
v 2.74453688 0.40000001 2.44802213
v 2.74453688 0.40000001 2.55197787
v 2.70225430 0.40000001 2.64694643
v 2.62500000 0.40000001 2.71650624
v 2.52613211 0.40000001 2.74863052
v 2.42274570 0.40000001 2.73776412
v 2.33271742 0.40000001 2.68578625
v 2.27161360 0.40000001 2.60168409
v -2.75000000 0.40000001 -2.50000000
v -2.72838640 0.40000001 -2.60168409
v -2.66728258 0.40000001 -2.68578625
v -2.57725430 0.40000001 -2.73776412
v -2.47386789 0.40000001 -2.74863052
v -2.37500000 0.40000001 -2.71650624
v -2.29774570 0.40000001 -2.64694643
v -2.25546312 0.40000001 -2.55197787
v -2.25546312 0.40000001 -2.44802213
v -2.29774570 0.40000001 -2.35305357
v -2.37500000 0.40000001 -2.28349376
v -2.47386789 0.40000001 -2.25136948
v -2.57725430 0.40000001 -2.26223588
v -2.66728258 0.40000001 -2.31421375
v -2.72838640 0.40000001 -2.39831591
v -2.75000000 0.40000001 2.50000000
v -2.72838640 0.40000001 2.39831591
v -2.66728258 0.40000001 2.31421375
v -2.57725430 0.40000001 2.26223588
v -2.47386789 0.40000001 2.25136948
v -2.37500000 0.40000001 2.28349376
v -2.29774570 0.40000001 2.35305357
v -2.25546312 0.40000001 2.44802213
v -2.25546312 0.40000001 2.55197787
v -2.29774570 0.40000001 2.64694643
v -2.37500000 0.40000001 2.71650624
v -2.47386789 0.40000001 2.74863052
v -2.57725430 0.40000001 2.73776412
v -2.66728258 0.40000001 2.68578625
v -2.72838640 0.40000001 2.60168409
v -2.50000000 0.40000001 -3.50000000
v -2.69509029 0.40000001 -3.48078537
v -2.88268352 0.40000001 -3.42387962
v -3.05557013 0.40000001 -3.33146954
v -3.20710683 0.40000001 -3.20710683
v -3.33146954 0.40000001 -3.05557013
v -3.42387962 0.40000001 -2.88268352
v -3.48078537 0.40000001 -2.69509029
v -3.48078537 0.40000001 2.69509029
v -3.42387962 0.40000001 2.88268352
v -3.33146954 0.40000001 3.05557013
v -3.20710683 0.40000001 3.20710683
v -3.05557013 0.40000001 3.33146954
v -2.88268352 0.40000001 3.42387962
v -2.69509029 0.40000001 3.48078537
v -2.50000000 0.40000001 3.50000000
v 2.50000000 0.40000001 3.50000000
v 2.69509029 0.40000001 3.48078537
v 2.88268352 0.40000001 3.42387962
v 3.05557013 0.40000001 3.33146954
v 3.20710683 0.40000001 3.20710683
v 3.33146954 0.40000001 3.05557013
v 3.42387962 0.40000001 2.88268352
v 3.48078537 0.40000001 2.69509029
v 1.88944435 5.40000010 -0.20000000
v 1.88944435 5.69999981 -0.20000000
v 1.89881003 5.69999981 -0.06723552
v 1.89885819 5.69999981 0.06585889
v 1.88958883 5.69999981 0.19863012
v 1.88958883 5.40000010 0.19863012
v 1.84031928 5.40000010 0.47246689
v 1.75158525 5.40000010 0.73617196
v 1.62528968 5.40000010 0.98409027
v 1.46414077 5.40000010 1.21090543
v 1.27159429 5.40000010 1.41175354
v 1.05177939 5.40000010 1.58232749
v 0.80940974 5.40000010 1.71896946
v 0.54968286 5.40000010 1.81874919
v 0.27816838 5.40000010 1.87952721
v 0.00068874 5.40000010 1.89999986
v -0.27680564 5.40000010 1.87972832
v -0.54836416 5.40000010 1.81914723
v -0.80816329 5.40000010 1.71955574
v -1.05063200 5.40000010 1.58308959
v -1.27057052 5.40000010 1.41267502
v -1.46326244 5.40000010 1.21196651
v -1.62457573 5.40000010 0.98526829
v -1.75105107 5.40000010 0.73744160
v -1.83997631 5.40000010 0.47380099
v -1.88944435 5.40000010 0.20000000
v -1.88944435 5.69999981 0.20000000
v -1.89882624 5.69999981 0.06677665
v -1.89882624 5.69999981 -0.06677665
v -1.88944435 5.69999981 -0.20000000
v -1.88944435 5.40000010 -0.20000000
v -1.83999348 5.40000010 -0.47373429
v -1.75110447 5.40000010 -0.73731470
v -1.62468290 5.40000010 -0.98509163
v -1.46343815 5.40000010 -1.21175444
v -1.27082646 5.40000010 -1.41244471
v -1.05097628 5.40000010 -1.58286095
v -0.80859959 5.40000010 -1.71935070
v -0.54889166 5.40000010 -1.81898820
v -0.27741888 5.40000010 -1.87963796
v -0.00000000 5.40000010 -1.89999998
v 0.27741888 5.40000010 -1.87963796
v 0.54889166 5.40000010 -1.81898820
v 0.80859959 5.40000010 -1.71935070
v 1.05097628 5.40000010 -1.58286095
v 1.27082646 5.40000010 -1.41244471
v 1.46343815 5.40000010 -1.21175444
v 1.62468290 5.40000010 -0.98509163
v 1.75110447 5.40000010 -0.73731470
v 1.83999348 5.40000010 -0.47373429
v -2.50000000 0.00000000 -3.50000000
v -2.69509029 0.00000000 -3.48078537
v -2.88268352 0.00000000 -3.42387962
v -3.05557013 0.00000000 -3.33146954
v -3.20710683 0.00000000 -3.20710683
v -3.33146954 0.00000000 -3.05557013
v -3.42387962 0.00000000 -2.88268352
v -3.48078537 0.00000000 -2.69509029
v -2.75000000 0.00000000 2.50000000
v -2.72838640 0.00000000 2.39831591
v -2.66728258 0.00000000 2.31421375
v -2.57725430 0.00000000 2.26223588
v -2.47386789 0.00000000 2.25136948
v -2.37500000 0.00000000 2.28349376
v -2.29774570 0.00000000 2.35305357
v -2.25546312 0.00000000 2.44802213
v -2.25546312 0.00000000 2.55197787
v -2.29774570 0.00000000 2.64694643
v -2.37500000 0.00000000 2.71650624
v -2.47386789 0.00000000 2.74863052
v -2.57725430 0.00000000 2.73776412
v -2.66728258 0.00000000 2.68578625
v -2.72838640 0.00000000 2.60168409
v 1.50000000 5.69999981 -0.00000000
v 1.47842383 5.69999981 -0.25350124
v 1.41431618 5.69999981 -0.49970970
v 1.30952120 5.69999981 -0.73154241
v 1.16705358 5.69999981 -0.94233000
v 0.99101210 5.69999981 -1.12600851
v 0.78646094 5.69999981 -1.27729368
v 0.55928469 5.69999981 -1.39183354
v 0.31601891 5.69999981 -1.46633291
v 0.06366181 5.69999981 -1.49864841
v -0.19052672 5.69999981 -1.48785067
v -0.43923417 5.69999981 -1.43425012
v -0.67530560 5.69999981 -1.33938873
v -0.89194977 5.69999981 -1.20599568
v -1.08293414 5.69999981 -1.03790832
v -1.24276447 5.69999981 -0.83996218
v -1.36684275 5.69999981 -0.61785185
v -1.45159948 5.69999981 -0.37796709
v -1.49459624 5.69999981 -0.12720889
v -1.49459624 5.69999981 0.12720889
v -1.45159948 5.69999981 0.37796709
v -1.36684275 5.69999981 0.61785185
v -1.24276447 5.69999981 0.83996218
v -1.08293414 5.69999981 1.03790832
v -0.89194977 5.69999981 1.20599568
v -0.67530560 5.69999981 1.33938873
v -0.43923417 5.69999981 1.43425012
v -0.19052672 5.69999981 1.48785067
v 0.06366181 5.69999981 1.49864841
v 0.31601891 5.69999981 1.46633291
v 0.55928469 5.69999981 1.39183354
v 0.78646094 5.69999981 1.27729368
v 0.99101210 5.69999981 1.12600851
v 1.16705358 5.69999981 0.94233000
v 1.30952120 5.69999981 0.73154241
v 1.41431618 5.69999981 0.49970970
v 1.47842383 5.69999981 0.25350124
v -1.50000000 0.00000000 0.00000000
v -1.47842383 0.00000000 -0.25350124
v -1.41431618 0.00000000 -0.49970970
v -1.30952120 0.00000000 -0.73154241
v -1.16705358 0.00000000 -0.94233000
v -0.99101210 0.00000000 -1.12600851
v -0.78646094 0.00000000 -1.27729368
v -0.55928469 0.00000000 -1.39183354
v -0.31601891 0.00000000 -1.46633291
v -0.06366181 0.00000000 -1.49864841
v 0.19052672 0.00000000 -1.48785067
v 0.43923417 0.00000000 -1.43425012
v 0.67530560 0.00000000 -1.33938873
v 0.89194977 0.00000000 -1.20599568
v 1.08293414 0.00000000 -1.03790832
v 1.24276447 0.00000000 -0.83996218
v 1.36684275 0.00000000 -0.61785185
v 1.45159948 0.00000000 -0.37796709
v 1.49459624 0.00000000 -0.12720889
v 1.49459624 0.00000000 0.12720889
v 1.45159948 0.00000000 0.37796709
v 1.36684275 0.00000000 0.61785185
v 1.24276447 0.00000000 0.83996218
v 1.08293414 0.00000000 1.03790832
v 0.89194977 0.00000000 1.20599568
v 0.67530560 0.00000000 1.33938873
v 0.43923417 0.00000000 1.43425012
v 0.19052672 0.00000000 1.48785067
v -0.06366181 0.00000000 1.49864841
v -0.31601891 0.00000000 1.46633291
v -0.55928469 0.00000000 1.39183354
v -0.78646094 0.00000000 1.27729368
v -0.99101210 0.00000000 1.12600851
v -1.16705358 0.00000000 0.94233000
v -1.30952120 0.00000000 0.73154241
v -1.41431618 0.00000000 0.49970970
v -1.47842383 0.00000000 0.25350124
v 1.68819427 5.40000010 -0.20000000
v -1.68819427 5.40000010 -0.20000000
v -1.63409889 5.40000010 -0.46874392
v -1.53751147 5.40000010 -0.72529894
v -1.40094364 5.40000010 -0.96299374
v -1.22794664 5.40000010 -1.17564750
v -1.02301896 5.40000010 -1.35773063
v -0.79148930 5.40000010 -1.50450814
v -0.53937835 5.40000010 -1.61216342
v -0.27324179 5.40000010 -1.67789721
v -0.00000000 5.40000010 -1.70000005
v 0.27324179 5.40000010 -1.67789721
v 0.53937835 5.40000010 -1.61216342
v 0.79148930 5.40000010 -1.50450814
v 1.02301896 5.40000010 -1.35773063
v 1.22794664 5.40000010 -1.17564750
v 1.40094364 5.40000010 -0.96299374
v 1.53751147 5.40000010 -0.72529894
v 1.63409889 5.40000010 -0.46874392
v -2.50000000 0.00000000 3.50000000
v 2.50000000 0.00000000 3.50000000
v -2.75000000 0.00000000 -2.50000000
v -2.72838640 0.00000000 -2.60168409
v -2.66728258 0.00000000 -2.68578625
v -2.57725430 0.00000000 -2.73776412
v -2.47386789 0.00000000 -2.74863052
v -2.37500000 0.00000000 -2.71650624
v -2.29774570 0.00000000 -2.64694643
v -2.25546312 0.00000000 -2.55197787
v -2.25546312 0.00000000 -2.44802213
v -2.29774570 0.00000000 -2.35305357
v -2.37500000 0.00000000 -2.28349376
v -2.47386789 0.00000000 -2.25136948
v -2.57725430 0.00000000 -2.26223588
v -2.66728258 0.00000000 -2.31421375
v -2.72838640 0.00000000 -2.39831591
v 2.69509029 0.00000000 3.48078537
v 2.88268352 0.00000000 3.42387962
v 3.05557013 0.00000000 3.33146954
v 3.20710683 0.00000000 3.20710683
v 3.33146954 0.00000000 3.05557013
v 3.42387962 0.00000000 2.88268352
v 3.48078537 0.00000000 2.69509029
v 2.25000000 0.00000000 2.50000000
v 2.27161360 0.00000000 2.39831591
v 2.33271742 0.00000000 2.31421375
v 2.42274570 0.00000000 2.26223588
v 2.52613211 0.00000000 2.25136948
v 2.62500000 0.00000000 2.28349376
v 2.70225430 0.00000000 2.35305357
v 2.74453688 0.00000000 2.44802213
v 2.74453688 0.00000000 2.55197787
v 2.70225430 0.00000000 2.64694643
v 2.62500000 0.00000000 2.71650624
v 2.52613211 0.00000000 2.74863052
v 2.42274570 0.00000000 2.73776412
v 2.33271742 0.00000000 2.68578625
v 2.27161360 0.00000000 2.60168409
v -2.69509029 0.00000000 3.48078537
v -2.88268352 0.00000000 3.42387962
v -3.05557013 0.00000000 3.33146954
v -3.20710683 0.00000000 3.20710683
v -3.33146954 0.00000000 3.05557013
v -3.42387962 0.00000000 2.88268352
v -3.48078537 0.00000000 2.69509029
v -1.68819427 5.40000010 0.20000000
v -1.68819427 5.69999981 0.20000000
v 1.68819427 5.69999981 -0.20000000
v -1.68819427 5.69999981 -0.20000000
v -1.63409889 5.69999981 -0.46874392
v -1.53751147 5.69999981 -0.72529894
v -1.40094364 5.69999981 -0.96299374
v -1.22794664 5.69999981 -1.17564750
v -1.02301896 5.69999981 -1.35773063
v -0.79148930 5.69999981 -1.50450814
v -0.53937835 5.69999981 -1.61216342
v -0.27324179 5.69999981 -1.67789721
v -0.00000000 5.69999981 -1.70000005
v 0.27324179 5.69999981 -1.67789721
v 0.53937835 5.69999981 -1.61216342
v 0.79148930 5.69999981 -1.50450814
v 1.02301896 5.69999981 -1.35773063
v 1.22794664 5.69999981 -1.17564750
v 1.40094364 5.69999981 -0.96299374
v 1.53751147 5.69999981 -0.72529894
v 1.63409889 5.69999981 -0.46874392
v -1.63407779 5.40000010 0.46881756
v -1.53744602 5.40000010 0.72543752
v -1.40081334 5.40000010 0.96318316
v -1.22773457 5.40000010 1.17586887
v -1.02271283 5.40000010 1.35796118
v -0.79108232 5.40000010 1.50472212
v -0.53886962 5.40000010 1.61233354
v -0.27263665 5.40000010 1.67799556
v 0.00068970 5.40000010 1.69999981
v 0.27399811 5.40000010 1.67777383
v 0.54017770 5.40000010 1.61189580
v 0.79230303 5.40000010 1.50407970
v 1.02381444 5.40000010 1.35713089
v 1.22868836 5.40000010 1.17487240
v 1.40159452 5.40000010 0.96204627
v 1.53803420 5.40000010 0.72418982
v 1.63445759 5.40000010 0.46749151
v 1.68835604 5.40000010 0.19863012
v 1.68835604 5.69999981 0.19863012
v 1.63445759 5.69999981 0.46749151
v 1.53803420 5.69999981 0.72418982
v 1.40159452 5.69999981 0.96204627
v 1.22868836 5.69999981 1.17487240
v 1.02381444 5.69999981 1.35713089
v 0.79230303 5.69999981 1.50407970
v 0.54017770 5.69999981 1.61189580
v 0.27399811 5.69999981 1.67777383
v 0.00068970 5.69999981 1.69999981
v -0.27263665 5.69999981 1.67799556
v -0.53886962 5.69999981 1.61233354
v -0.79108232 5.69999981 1.50472212
v -1.02271283 5.69999981 1.35796118
v -1.22773457 5.69999981 1.17586887
v -1.40081334 5.69999981 0.96318316
v -1.53744602 5.69999981 0.72543752
v -1.63407779 5.69999981 0.46881756
f 1 2 4
f 4 2 3
f 5 6 8
f 8 6 7
f 7 6 24
f 24 6 9
f 24 9 23
f 23 9 10
f 23 10 22
f 22 10 11
f 22 11 21
f 21 11 12
f 21 12 20
f 20 12 13
f 20 13 19
f 19 13 14
f 19 14 18
f 18 14 15
f 18 15 17
f 17 15 16
f 26 54 25
f 25 54 40
f 25 40 39
f 39 40 41
f 39 41 38
f 38 41 42
f 38 42 37
f 37 42 43
f 37 43 36
f 36 43 44
f 36 44 35
f 35 44 45
f 35 45 34
f 34 45 46
f 34 46 33
f 33 46 47
f 33 47 32
f 32 47 48
f 32 48 31
f 31 48 49
f 31 49 30
f 30 49 50
f 30 50 29
f 29 50 51
f 29 51 28
f 28 51 52
f 28 52 27
f 27 52 53
f 27 53 26
f 26 53 54
f 56 8 55
f 55 8 7
f 55 7 95
f 95 7 94
f 94 7 30
f 94 30 29
f 56 57 8
f 8 57 101
f 8 101 102
f 101 57 100
f 100 57 58
f 100 58 99
f 99 58 59
f 99 59 98
f 98 59 60
f 98 60 61
f 98 61 97
f 97 61 62
f 97 62 96
f 96 62 63
f 96 63 110
f 110 63 64
f 110 64 157
f 157 64 65
f 157 65 156
f 156 65 66
f 156 66 67
f 68 134 67
f 67 134 135
f 67 135 156
f 156 135 136
f 156 136 137
f 134 68 133
f 133 68 69
f 133 69 132
f 132 69 70
f 132 70 71
f 132 71 131
f 131 71 72
f 131 72 130
f 130 72 73
f 130 73 129
f 129 73 74
f 129 74 3
f 3 74 75
f 3 75 76
f 3 76 4
f 4 76 77
f 4 77 123
f 123 77 78
f 123 78 122
f 122 78 79
f 122 79 121
f 121 79 80
f 121 80 120
f 120 80 81
f 120 81 82
f 120 82 119
f 119 82 83
f 119 83 118
f 118 83 84
f 118 84 117
f 117 84 141
f 117 141 116
f 116 141 115
f 115 141 142
f 115 142 114
f 114 142 143
f 114 143 144
f 84 85 141
f 141 85 86
f 141 86 17
f 17 86 87
f 17 87 39
f 39 87 88
f 39 88 25
f 25 88 89
f 25 89 26
f 26 89 90
f 26 90 27
f 27 90 91
f 27 91 92
f 27 92 28
f 28 92 93
f 28 93 29
f 29 93 94
f 102 103 8
f 8 103 104
f 8 104 164
f 164 104 163
f 163 104 105
f 163 105 162
f 162 105 161
f 161 105 106
f 161 106 160
f 160 106 159
f 159 106 107
f 159 107 158
f 158 107 157
f 157 107 108
f 157 108 109
f 109 110 157
f 112 148 111
f 111 148 4
f 111 4 125
f 125 4 124
f 124 4 123
f 113 146 112
f 112 146 147
f 112 147 148
f 114 144 113
f 113 144 145
f 113 145 146
f 39 38 17
f 17 38 37
f 17 37 36
f 35 19 36
f 36 19 18
f 36 18 17
f 34 21 35
f 35 21 20
f 35 20 19
f 33 23 34
f 34 23 22
f 34 22 21
f 32 7 33
f 33 7 24
f 33 24 23
f 32 31 7
f 7 31 30
f 127 3 126
f 126 3 149
f 126 149 140
f 140 149 150
f 140 150 151
f 127 128 3
f 3 128 129
f 156 137 155
f 155 137 138
f 155 138 154
f 154 138 153
f 153 138 139
f 153 139 152
f 152 139 151
f 151 139 140
f 166 167 165
f 165 167 55
f 165 55 95
f 167 168 55
f 55 168 170
f 55 170 56
f 56 170 171
f 56 171 57
f 57 171 172
f 57 172 58
f 58 172 173
f 58 173 59
f 59 173 174
f 59 174 60
f 60 174 175
f 60 175 61
f 61 175 176
f 61 176 62
f 62 176 177
f 62 177 63
f 63 177 178
f 63 178 64
f 64 178 179
f 64 179 65
f 65 179 180
f 65 180 66
f 66 180 181
f 66 181 67
f 67 181 182
f 67 182 68
f 68 182 183
f 68 183 69
f 69 183 184
f 69 184 70
f 70 184 185
f 70 185 71
f 71 185 186
f 71 186 187
f 168 169 170
f 71 187 72
f 72 187 188
f 72 188 73
f 73 188 189
f 73 189 74
f 74 189 190
f 74 190 75
f 75 190 191
f 75 191 192
f 75 192 76
f 76 192 193
f 76 193 195
f 195 193 194
f 76 195 77
f 77 195 196
f 77 196 78
f 78 196 197
f 78 197 79
f 79 197 198
f 79 198 80
f 80 198 199
f 80 199 200
f 80 200 81
f 81 200 201
f 81 201 82
f 82 201 202
f 82 202 83
f 83 202 203
f 83 203 84
f 84 203 204
f 84 204 85
f 85 204 205
f 85 205 86
f 86 205 206
f 86 206 87
f 87 206 207
f 87 207 88
f 88 207 208
f 88 208 89
f 89 208 209
f 89 209 90
f 90 209 210
f 90 210 91
f 91 210 211
f 91 211 92
f 92 211 212
f 92 212 93
f 93 212 213
f 93 213 94
f 94 213 214
f 94 214 95
f 95 214 165
f 141 215 142
f 142 215 216
f 142 216 143
f 143 216 217
f 143 217 144
f 144 217 218
f 144 218 145
f 145 218 219
f 145 219 146
f 146 219 220
f 146 220 147
f 147 220 221
f 147 221 148
f 148 221 222
f 148 222 4
f 4 222 1
f 16 215 17
f 17 215 141
f 140 237 126
f 126 237 223
f 126 223 127
f 127 223 224
f 127 224 128
f 128 224 225
f 128 225 129
f 129 225 226
f 129 226 130
f 130 226 227
f 130 227 131
f 131 227 228
f 131 228 132
f 132 228 229
f 132 229 133
f 133 229 230
f 133 230 134
f 134 230 231
f 134 231 135
f 135 231 232
f 135 232 136
f 136 232 233
f 136 233 137
f 137 233 234
f 137 234 138
f 138 234 235
f 138 235 139
f 139 235 236
f 139 236 140
f 140 236 237
f 239 293 238
f 238 293 294
f 238 294 274
f 274 294 295
f 274 295 273
f 273 295 296
f 273 296 272
f 272 296 297
f 272 297 271
f 271 297 298
f 271 298 270
f 270 298 299
f 270 299 269
f 269 299 300
f 269 300 268
f 268 300 301
f 268 301 267
f 267 301 302
f 267 302 266
f 266 302 303
f 266 303 265
f 265 303 304
f 265 304 264
f 264 304 305
f 264 305 263
f 263 305 306
f 263 306 262
f 262 306 307
f 262 307 261
f 261 307 308
f 261 308 260
f 260 308 309
f 260 309 259
f 259 309 310
f 259 310 258
f 258 310 311
f 258 311 257
f 257 311 275
f 257 275 256
f 256 275 276
f 256 276 255
f 255 276 277
f 255 277 254
f 254 277 278
f 254 278 253
f 253 278 279
f 253 279 252
f 252 279 280
f 252 280 251
f 251 280 281
f 251 281 250
f 250 281 282
f 250 282 249
f 249 282 283
f 249 283 248
f 248 283 284
f 248 284 247
f 247 284 285
f 247 285 246
f 246 285 286
f 246 286 245
f 245 286 287
f 245 287 244
f 244 287 288
f 244 288 243
f 243 288 289
f 243 289 242
f 242 289 290
f 242 290 241
f 241 290 291
f 241 291 240
f 240 291 292
f 240 292 239
f 239 292 293
f 165 214 312
f 312 214 330
f 330 214 213
f 330 213 329
f 329 213 212
f 329 212 328
f 328 212 211
f 328 211 327
f 327 211 210
f 327 210 326
f 326 210 209
f 326 209 325
f 325 209 208
f 325 208 324
f 324 208 207
f 324 207 323
f 323 207 206
f 323 206 322
f 322 206 205
f 322 205 204
f 322 204 321
f 321 204 203
f 321 203 320
f 320 203 202
f 320 202 319
f 319 202 201
f 319 201 318
f 318 201 200
f 318 200 317
f 317 200 199
f 317 199 316
f 316 199 198
f 316 198 315
f 315 198 197
f 315 197 314
f 314 197 196
f 314 196 313
f 313 196 195
f 331 332 156
f 156 332 157
f 125 347 111
f 111 347 333
f 111 333 112
f 112 333 334
f 112 334 113
f 113 334 335
f 113 335 114
f 114 335 336
f 114 336 115
f 115 336 337
f 115 337 116
f 116 337 338
f 116 338 117
f 117 338 339
f 117 339 118
f 118 339 340
f 118 340 119
f 119 340 341
f 119 341 120
f 120 341 342
f 120 342 121
f 121 342 343
f 121 343 122
f 122 343 344
f 122 344 123
f 123 344 345
f 123 345 124
f 124 345 346
f 124 346 125
f 125 346 347
f 157 332 158
f 158 332 348
f 158 348 159
f 159 348 349
f 159 349 160
f 160 349 350
f 160 350 161
f 161 350 351
f 161 351 162
f 162 351 352
f 162 352 163
f 163 352 353
f 163 353 164
f 164 353 354
f 164 354 8
f 8 354 5
f 110 369 96
f 96 369 355
f 96 355 97
f 97 355 356
f 97 356 98
f 98 356 357
f 98 357 99
f 99 357 358
f 99 358 100
f 100 358 359
f 100 359 101
f 101 359 360
f 101 360 102
f 102 360 361
f 102 361 103
f 103 361 362
f 103 362 104
f 104 362 363
f 104 363 105
f 105 363 364
f 105 364 106
f 106 364 365
f 106 365 107
f 107 365 366
f 107 366 108
f 108 366 367
f 108 367 109
f 109 367 368
f 109 368 110
f 110 368 369
f 311 2 275
f 275 2 1
f 275 1 276
f 276 1 345
f 276 345 277
f 277 345 344
f 277 344 278
f 278 344 343
f 278 343 279
f 279 343 342
f 279 342 280
f 280 342 281
f 281 342 341
f 281 341 282
f 282 341 340
f 282 340 283
f 283 340 339
f 283 339 284
f 284 339 215
f 284 215 16
f 2 311 226
f 226 311 310
f 226 310 227
f 227 310 309
f 227 309 228
f 228 309 308
f 228 308 229
f 229 308 307
f 229 307 306
f 229 306 230
f 230 306 305
f 230 305 231
f 231 305 304
f 231 304 232
f 232 304 303
f 232 303 331
f 331 303 332
f 332 303 302
f 332 302 369
f 369 302 301
f 369 301 355
f 355 301 300
f 355 300 356
f 356 300 299
f 356 299 357
f 357 299 298
f 357 298 297
f 357 297 358
f 358 297 296
f 358 296 359
f 359 296 295
f 359 295 360
f 360 295 294
f 360 294 5
f 5 294 293
f 5 293 6
f 6 293 50
f 6 50 49
f 293 292 50
f 50 292 51
f 51 292 291
f 51 291 52
f 52 291 290
f 52 290 53
f 53 290 289
f 53 289 288
f 53 288 54
f 54 288 287
f 54 287 40
f 40 287 286
f 40 286 41
f 41 286 285
f 41 285 16
f 16 285 284
f 369 368 332
f 332 368 367
f 332 367 366
f 365 349 366
f 366 349 348
f 366 348 332
f 364 351 365
f 365 351 350
f 365 350 349
f 363 353 364
f 364 353 352
f 364 352 351
f 362 5 363
f 363 5 354
f 363 354 353
f 362 361 5
f 5 361 360
f 347 1 333
f 333 1 222
f 333 222 334
f 334 222 221
f 334 221 220
f 347 346 1
f 1 346 345
f 339 338 215
f 215 338 337
f 215 337 216
f 216 337 336
f 216 336 217
f 217 336 218
f 218 336 335
f 218 335 219
f 219 335 220
f 220 335 334
f 49 48 6
f 6 48 47
f 6 47 9
f 9 47 10
f 10 47 46
f 10 46 11
f 11 46 12
f 12 46 45
f 12 45 13
f 13 45 14
f 14 45 44
f 14 44 15
f 15 44 16
f 16 44 43
f 16 43 42
f 42 41 16
f 237 376 223
f 223 376 2
f 223 2 224
f 224 2 225
f 225 2 226
f 236 374 237
f 237 374 375
f 237 375 376
f 235 372 236
f 236 372 373
f 236 373 374
f 234 370 235
f 235 370 371
f 235 371 372
f 370 234 331
f 331 234 233
f 331 233 232
f 3 2 149
f 149 2 376
f 149 376 150
f 150 376 375
f 150 375 151
f 151 375 374
f 151 374 152
f 152 374 373
f 152 373 153
f 153 373 372
f 153 372 154
f 154 372 371
f 154 371 155
f 155 371 370
f 155 370 156
f 156 370 331
f 190 377 191
f 191 377 378
f 165 312 166
f 166 312 379
f 379 312 397
f 397 312 330
f 397 330 396
f 396 330 329
f 396 329 395
f 395 329 328
f 395 328 394
f 394 328 327
f 394 327 393
f 393 327 326
f 393 326 392
f 392 326 325
f 392 325 391
f 391 325 324
f 391 324 390
f 390 324 323
f 390 323 389
f 389 323 322
f 389 322 388
f 388 322 321
f 388 321 387
f 387 321 320
f 387 320 386
f 386 320 319
f 386 319 385
f 385 319 318
f 385 318 384
f 384 318 317
f 384 317 383
f 383 317 316
f 383 316 382
f 382 316 315
f 382 315 381
f 381 315 314
f 381 314 380
f 380 314 313
f 378 377 433
f 433 377 398
f 433 398 432
f 432 398 399
f 432 399 431
f 431 399 400
f 431 400 430
f 430 400 401
f 430 401 429
f 429 401 402
f 429 402 428
f 428 402 403
f 428 403 427
f 427 403 404
f 427 404 426
f 426 404 405
f 426 405 425
f 425 405 406
f 425 406 424
f 424 406 407
f 424 407 423
f 423 407 408
f 423 408 422
f 422 408 409
f 422 409 421
f 421 409 410
f 421 410 420
f 420 410 411
f 420 411 419
f 419 411 412
f 419 412 418
f 418 412 413
f 418 413 417
f 417 413 414
f 417 414 416
f 416 414 415
f 170 415 171
f 171 415 414
f 171 414 172
f 172 414 413
f 172 413 173
f 173 413 412
f 173 412 174
f 174 412 411
f 174 411 175
f 175 411 410
f 175 410 176
f 176 410 409
f 176 409 177
f 177 409 408
f 177 408 178
f 178 408 407
f 178 407 179
f 179 407 406
f 179 406 180
f 180 406 181
f 181 406 405
f 181 405 182
f 182 405 404
f 182 404 183
f 183 404 403
f 183 403 184
f 184 403 402
f 184 402 185
f 185 402 401
f 185 401 186
f 186 401 400
f 186 400 187
f 187 400 399
f 187 399 188
f 188 399 398
f 188 398 189
f 189 398 377
f 189 377 190
f 313 195 380
f 380 195 194
f 415 170 416
f 416 170 169
f 274 416 238
f 238 416 168
f 238 168 167
f 416 274 417
f 417 274 273
f 417 273 418
f 418 273 272
f 418 272 419
f 419 272 271
f 419 271 420
f 420 271 270
f 420 270 421
f 421 270 269
f 421 269 422
f 422 269 268
f 422 268 423
f 423 268 267
f 423 267 424
f 424 267 266
f 424 266 425
f 425 266 265
f 425 265 426
f 426 265 264
f 426 264 427
f 427 264 263
f 427 263 428
f 428 263 262
f 428 262 429
f 429 262 430
f 430 262 261
f 430 261 431
f 431 261 260
f 431 260 432
f 432 260 259
f 432 259 433
f 433 259 258
f 433 258 378
f 378 258 257
f 378 257 256
f 255 380 256
f 256 380 193
f 256 193 192
f 380 255 381
f 381 255 254
f 381 254 382
f 382 254 253
f 382 253 383
f 383 253 252
f 383 252 384
f 384 252 251
f 384 251 385
f 385 251 386
f 386 251 250
f 386 250 387
f 387 250 249
f 387 249 388
f 388 249 248
f 388 248 389
f 389 248 247
f 389 247 390
f 390 247 246
f 390 246 391
f 391 246 245
f 391 245 392
f 392 245 244
f 392 244 393
f 393 244 243
f 393 243 394
f 394 243 242
f 394 242 395
f 395 242 241
f 395 241 396
f 396 241 240
f 396 240 397
f 397 240 239
f 397 239 379
f 379 239 238
f 379 238 167
f 416 169 168
f 167 166 379
f 380 194 193
f 191 378 192
f 192 378 256

