# https://github.com/mikedh/trimesh
v 0.20000000 -0.40000001 0.15000001
v 0.19418836 -0.44786313 0.15000001
v 0.17709121 -0.49294463 0.15000001
v 0.14970215 -0.53262454 0.15000001
v 0.11361295 -0.56459677 0.15000001
v 0.07092097 -0.58700323 0.15000001
v 0.02410734 -0.59854180 0.15000001
v -0.02410734 -0.59854180 0.15000001
v -0.07092097 -0.58700323 0.15000001
v -0.11361295 -0.56459677 0.15000001
v -0.14970215 -0.53262454 0.15000001
v -0.17709121 -0.49294463 0.15000001
v -0.19418836 -0.44786313 0.15000001
v -0.20000000 -0.40000001 0.15000001
v -0.19418836 -0.35213688 0.15000001
v -0.17709121 -0.30705535 0.15000001
v -0.14970215 -0.26737547 0.15000001
v -0.11361295 -0.23540322 0.15000001
v -0.07092097 -0.21299675 0.15000001
v -0.02410734 -0.20145823 0.15000001
v 0.02410734 -0.20145823 0.15000001
v 0.07092097 -0.21299675 0.15000001
v 0.11361295 -0.23540322 0.15000001
v 0.14970215 -0.26737547 0.15000001
v 0.17709121 -0.30705535 0.15000001
v 0.19418836 -0.35213688 0.15000001
v 0.20000000 -0.40000001 0.30000001
v 0.19418836 -0.35213688 0.30000001
v 0.17709121 -0.30705535 0.30000001
v 0.14970215 -0.26737547 0.30000001
v 0.11361295 -0.23540322 0.30000001
v 0.07092097 -0.21299675 0.30000001
v 0.02410734 -0.20145823 0.30000001
v -0.02410734 -0.20145823 0.30000001
v -0.07092097 -0.21299675 0.30000001
v -0.11361295 -0.23540322 0.30000001
v -0.14970215 -0.26737547 0.30000001
v -0.17709121 -0.30705535 0.30000001
v -0.19418836 -0.35213688 0.30000001
v -0.20000000 -0.40000001 0.30000001
v -0.19418836 -0.44786313 0.30000001
v -0.17709121 -0.49294463 0.30000001
v -0.14970215 -0.53262454 0.30000001
v -0.11361295 -0.56459677 0.30000001
v -0.07092097 -0.58700323 0.30000001
v -0.02410734 -0.59854180 0.30000001
v 0.02410734 -0.59854180 0.30000001
v 0.07092097 -0.58700323 0.30000001
v 0.11361295 -0.56459677 0.30000001
v 0.14970215 -0.53262454 0.30000001
v 0.17709121 -0.49294463 0.30000001
v 0.19418836 -0.44786313 0.30000001
v -0.40000001 0.40000001 0.60000002
v -0.40000001 -0.40000001 0.60000002
v -0.40000001 -0.40000001 0.30000001
v -0.40000001 0.40000001 0.30000001
v -0.30000001 -0.94999999 0.00000000
v -0.30607605 -0.99225986 0.00000000
v -0.32381198 -1.03109610 0.00000000
v -0.35177088 -1.06336248 0.00000000
v -0.38768774 -1.08644485 0.00000000
v -0.42865276 -1.09847319 0.00000000
v -0.47134721 -1.09847319 0.00000000
v -0.51231223 -1.08644485 0.00000000
v -0.54822910 -1.06336248 0.00000000
v -0.57618803 -1.03109610 0.00000000
v -0.59392393 -0.99225986 0.00000000
v -0.60000002 -0.94999999 0.00000000
v -0.59392393 -0.90774012 0.00000000
v -0.57618803 -0.86890388 0.00000000
v -0.54822910 -0.83663756 0.00000000
v -0.51231223 -0.81355518 0.00000000
v -0.47134721 -0.80152678 0.00000000
v -0.42865276 -0.80152678 0.00000000
v -0.38768774 -0.81355518 0.00000000
v -0.35177088 -0.83663756 0.00000000
v -0.32381198 -0.86890388 0.00000000
v -0.30607605 -0.90774012 0.00000000
v -0.30000001 -0.94999999 0.60000002
v -0.30607605 -0.90774012 0.60000002
v -0.32381198 -0.86890388 0.60000002
v -0.35177088 -0.83663756 0.60000002
v -0.38768774 -0.81355518 0.60000002
v -0.42865276 -0.80152678 0.60000002
v -0.47134721 -0.80152678 0.60000002
v -0.51231223 -0.81355518 0.60000002
v -0.54822910 -0.83663756 0.60000002
v -0.57618803 -0.86890388 0.60000002
v -0.59392393 -0.90774012 0.60000002
v -0.60000002 -0.94999999 0.60000002
v -0.59392393 -0.99225986 0.60000002
v -0.57618803 -1.03109610 0.60000002
v -0.54822910 -1.06336248 0.60000002
v -0.51231223 -1.08644485 0.60000002
v -0.47134721 -1.09847319 0.60000002
v -0.42865276 -1.09847319 0.60000002
v -0.38768774 -1.08644485 0.60000002
v -0.35177088 -1.06336248 0.60000002
v -0.32381198 -1.03109610 0.60000002
v -0.30607605 -0.99225986 0.60000002
v 0.40000001 0.15000001 0.30000001
v 0.40000001 0.15000001 0.60000002
v 0.40000001 0.40000001 0.60000002
v 0.40000001 0.40000001 0.30000001
v 0.40000001 0.25000000 0.30000001
v 0.60000002 -0.94999999 0.00000000
v 0.59392393 -0.99225986 0.00000000
v 0.57618803 -1.03109610 0.00000000
v 0.54822910 -1.06336248 0.00000000
v 0.51231223 -1.08644485 0.00000000
v 0.47134721 -1.09847319 0.00000000
v 0.42865276 -1.09847319 0.00000000
v 0.38768774 -1.08644485 0.00000000
v 0.35177088 -1.06336248 0.00000000
v 0.32381198 -1.03109610 0.00000000
v 0.30607605 -0.99225986 0.00000000
v 0.30000001 -0.94999999 0.00000000
v 0.30607605 -0.90774012 0.00000000
v 0.32381198 -0.86890388 0.00000000
v 0.35177088 -0.83663756 0.00000000
v 0.38768774 -0.81355518 0.00000000
v 0.42865276 -0.80152678 0.00000000
v 0.47134721 -0.80152678 0.00000000
v 0.51231223 -0.81355518 0.00000000
v 0.54822910 -0.83663756 0.00000000
v 0.57618803 -0.86890388 0.00000000
v 0.59392393 -0.90774012 0.00000000
v 0.60000002 -0.94999999 0.60000002
v 0.59392393 -0.90774012 0.60000002
v 0.57618803 -0.86890388 0.60000002
v 0.54822910 -0.83663756 0.60000002
v 0.51231223 -0.81355518 0.60000002
v 0.47134721 -0.80152678 0.60000002
v 0.42865276 -0.80152678 0.60000002
v 0.38768774 -0.81355518 0.60000002
v 0.35177088 -0.83663756 0.60000002
v 0.32381198 -0.86890388 0.60000002
v 0.30607605 -0.90774012 0.60000002
v 0.30000001 -0.94999999 0.60000002
v 0.30607605 -0.99225986 0.60000002
v 0.32381198 -1.03109610 0.60000002
v 0.35177088 -1.06336248 0.60000002
v 0.38768774 -1.08644485 0.60000002
v 0.42865276 -1.09847319 0.60000002
v 0.47134721 -1.09847319 0.60000002
v 0.51231223 -1.08644485 0.60000002
v 0.54822910 -1.06336248 0.60000002
v 0.57618803 -1.03109610 0.60000002
v 0.59392393 -0.99225986 0.60000002
v 0.75000000 -1.25000000 0.00000000
v 0.75000000 1.25000000 0.00000000
v 0.75000000 1.25000000 0.60000002
v 0.75000000 -1.25000000 0.60000002
v 0.60000002 0.94999999 0.00000000
v 0.59392393 0.90774012 0.00000000
v 0.57618803 0.86890388 0.00000000
v 0.54822910 0.83663756 0.00000000
v 0.51231223 0.81355518 0.00000000
v 0.47134721 0.80152678 0.00000000
v 0.42865276 0.80152678 0.00000000
v 0.38768774 0.81355518 0.00000000
v 0.35177088 0.83663756 0.00000000
v 0.32381198 0.86890388 0.00000000
v 0.30607605 0.90774012 0.00000000
v 0.30000001 0.94999999 0.00000000
v 0.30607605 0.99225986 0.00000000
v 0.32381198 1.03109610 0.00000000
v 0.35177088 1.06336248 0.00000000
v 0.38768774 1.08644485 0.00000000
v 0.42865276 1.09847319 0.00000000
v 0.47134721 1.09847319 0.00000000
v 0.51231223 1.08644485 0.00000000
v 0.54822910 1.06336248 0.00000000
v 0.57618803 1.03109610 0.00000000
v 0.59392393 0.99225986 0.00000000
v 0.60000002 0.94999999 0.60000002
v 0.59392393 0.99225986 0.60000002
v 0.57618803 1.03109610 0.60000002
v 0.54822910 1.06336248 0.60000002
v 0.51231223 1.08644485 0.60000002
v 0.47134721 1.09847319 0.60000002
v 0.42865276 1.09847319 0.60000002
v 0.38768774 1.08644485 0.60000002
v 0.35177088 1.06336248 0.60000002
v 0.32381198 1.03109610 0.60000002
v 0.30607605 0.99225986 0.60000002
v 0.30000001 0.94999999 0.60000002
v 0.30607605 0.90774012 0.60000002
v 0.32381198 0.86890388 0.60000002
v 0.35177088 0.83663756 0.60000002
v 0.38768774 0.81355518 0.60000002
v 0.42865276 0.80152678 0.60000002
v 0.47134721 0.80152678 0.60000002
v 0.51231223 0.81355518 0.60000002
v 0.54822910 0.83663756 0.60000002
v 0.57618803 0.86890388 0.60000002
v 0.59392393 0.90774012 0.60000002
v -0.75000000 1.25000000 0.00000000
v -0.75000000 -1.25000000 0.00000000
v -0.75000000 -1.25000000 0.60000002
v -0.75000000 1.25000000 0.60000002
v 0.64999998 0.00000000 0.00000000
v 0.64415514 0.05374261 0.00000000
v 0.62689388 0.10497227 0.00000000
v 0.59902328 0.15129356 0.00000000
v 0.56184655 0.19054051 0.00000000
v 0.51710212 0.22087801 0.00000000
v 0.46688208 0.24088749 0.00000000
v 0.41353473 0.24963336 0.00000000
v 0.35955450 0.24670663 0.00000000
v 0.30746546 0.23224418 0.00000000
v 0.25970322 0.20692225 0.00000000
v 0.21850112 0.17192486 0.00000000
v 0.18578571 0.12888846 0.00000000
v 0.16308671 0.07982538 0.00000000
v 0.15146551 0.02702975 0.00000000
v 0.15146551 -0.02702975 0.00000000
v 0.16308671 -0.07982538 0.00000000
v 0.18578571 -0.12888846 0.00000000
v 0.21850112 -0.17192486 0.00000000
v 0.25970322 -0.20692225 0.00000000
v 0.30746546 -0.23224418 0.00000000
v 0.35955450 -0.24670663 0.00000000
v 0.41353473 -0.24963336 0.00000000
v 0.46688208 -0.24088749 0.00000000
v 0.51710212 -0.22087801 0.00000000
v 0.56184655 -0.19054051 0.00000000
v 0.59902328 -0.15129356 0.00000000
v 0.62689388 -0.10497227 0.00000000
v 0.64415514 -0.05374261 0.00000000
v -0.30000001 0.94999999 0.00000000
v -0.30607605 0.99225986 0.00000000
v -0.32381198 1.03109610 0.00000000
v -0.35177088 1.06336248 0.00000000
v -0.38768774 1.08644485 0.00000000
v -0.42865276 1.09847319 0.00000000
v -0.47134721 1.09847319 0.00000000
v -0.51231223 1.08644485 0.00000000
v -0.54822910 1.06336248 0.00000000
v -0.57618803 1.03109610 0.00000000
v -0.59392393 0.99225986 0.00000000
v -0.60000002 0.94999999 0.00000000
v -0.59392393 0.90774012 0.00000000
v -0.57618803 0.86890388 0.00000000
v -0.54822910 0.83663756 0.00000000
v -0.51231223 0.81355518 0.00000000
v -0.47134721 0.80152678 0.00000000
v -0.42865276 0.80152678 0.00000000
v -0.38768774 0.81355518 0.00000000
v -0.35177088 0.83663756 0.00000000
v -0.32381198 0.86890388 0.00000000
v -0.30607605 0.90774012 0.00000000
v -0.39392310 -0.46945927 0.60000002
v -0.37587705 -0.53680807 0.60000002
v -0.34641016 -0.60000002 0.60000002
v -0.30641776 -0.65711504 0.60000002
v -0.25711504 -0.70641780 0.60000002
v -0.20000000 -0.74641019 0.60000002
v -0.13680805 -0.77587706 0.60000002
v -0.06945927 -0.79392308 0.60000002
v -0.00000000 -0.80000001 0.60000002
v 0.06945927 -0.79392308 0.60000002
v 0.13680805 -0.77587706 0.60000002
v 0.20000000 -0.74641019 0.60000002
v 0.25711504 -0.70641780 0.60000002
v 0.30641776 -0.65711504 0.60000002
v 0.34641016 -0.60000002 0.60000002
v 0.37587705 -0.53680807 0.60000002
v 0.39392310 -0.46945927 0.60000002
v 0.40000001 -0.40000001 0.60000002
v 0.40000001 -0.40000001 0.30000001
v 0.39392310 -0.46945927 0.30000001
v 0.37587705 -0.53680807 0.30000001
v 0.34641016 -0.60000002 0.30000001
v 0.30641776 -0.65711504 0.30000001
v 0.25711504 -0.70641780 0.30000001
v 0.20000000 -0.74641019 0.30000001
v 0.13680805 -0.77587706 0.30000001
v 0.06945927 -0.79392308 0.30000001
v -0.00000000 -0.80000001 0.30000001
v -0.06945927 -0.79392308 0.30000001
v -0.13680805 -0.77587706 0.30000001
v -0.20000000 -0.74641019 0.30000001
v -0.25711504 -0.70641780 0.30000001
v -0.30641776 -0.65711504 0.30000001
v -0.34641016 -0.60000002 0.30000001
v -0.37587705 -0.53680807 0.30000001
v -0.39392310 -0.46945927 0.30000001
v -0.30000001 0.94999999 0.60000002
v -0.30607605 0.99225986 0.60000002
v -0.32381198 1.03109610 0.60000002
v -0.35177088 1.06336248 0.60000002
v -0.38768774 1.08644485 0.60000002
v -0.42865276 1.09847319 0.60000002
v -0.47134721 1.09847319 0.60000002
v -0.51231223 1.08644485 0.60000002
v -0.54822910 1.06336248 0.60000002
v -0.57618803 1.03109610 0.60000002
v -0.59392393 0.99225986 0.60000002
v -0.60000002 0.94999999 0.60000002
v -0.59392393 0.90774012 0.60000002
v -0.57618803 0.86890388 0.60000002
v -0.54822910 0.83663756 0.60000002
v -0.51231223 0.81355518 0.60000002
v -0.47134721 0.80152678 0.60000002
v -0.42865276 0.80152678 0.60000002
v -0.38768774 0.81355518 0.60000002
v -0.35177088 0.83663756 0.60000002
v -0.32381198 0.86890388 0.60000002
v -0.30607605 0.90774012 0.60000002
v 0.39392310 0.46945927 0.60000002
v 0.37587705 0.53680807 0.60000002
v 0.34641016 0.60000002 0.60000002
v 0.30641776 0.65711504 0.60000002
v 0.25711504 0.70641780 0.60000002
v 0.20000000 0.74641019 0.60000002
v 0.13680805 0.77587706 0.60000002
v 0.06945927 0.79392308 0.60000002
v -0.00000000 0.80000001 0.60000002
v -0.06945927 0.79392308 0.60000002
v -0.13680805 0.77587706 0.60000002
v -0.20000000 0.74641019 0.60000002
v -0.25711504 0.70641780 0.60000002
v -0.30641776 0.65711504 0.60000002
v -0.34641016 0.60000002 0.60000002
v -0.37587705 0.53680807 0.60000002
v -0.39392310 0.46945927 0.60000002
v -0.39392310 0.46945927 0.30000001
v -0.37587705 0.53680807 0.30000001
v -0.34641016 0.60000002 0.30000001
v -0.30641776 0.65711504 0.30000001
v -0.25711504 0.70641780 0.30000001
v -0.20000000 0.74641019 0.30000001
v -0.13680805 0.77587706 0.30000001
v -0.06945927 0.79392308 0.30000001
v -0.00000000 0.80000001 0.30000001
v 0.06945927 0.79392308 0.30000001
v 0.13680805 0.77587706 0.30000001
v 0.20000000 0.74641019 0.30000001
v 0.25711504 0.70641780 0.30000001
v 0.30641776 0.65711504 0.30000001
v 0.34641016 0.60000002 0.30000001
v 0.37587705 0.53680807 0.30000001
v 0.39392310 0.46945927 0.30000001
v 0.40000001 -0.25000000 0.30000001
v 0.34802207 -0.24453691 0.30000001
v 0.29831585 -0.22838636 0.30000001
v 0.25305369 -0.20225425 0.30000001
v 0.21421379 -0.16728266 0.30000001
v 0.18349364 -0.12500000 0.30000001
v 0.16223587 -0.07725425 0.30000001
v 0.15136953 -0.02613212 0.30000001
v 0.15136953 0.02613212 0.30000001
v 0.16223587 0.07725425 0.30000001
v 0.18349364 0.12500000 0.30000001
v 0.21421379 0.16728266 0.30000001
v 0.25305369 0.20225425 0.30000001
v 0.29831585 0.22838636 0.30000001
v 0.34802207 0.24453691 0.30000001
v 0.40000001 -0.15000001 0.60000002
v 0.40000001 -0.15000001 0.30000001
v 0.16933225 1.00964367 1.20000005
v 0.16338161 1.04530394 1.20000005
v 0.14617451 1.07709992 1.20000005
v 0.11957560 1.10158598 1.20000005
v 0.08646732 1.11610854 1.20000005
v 0.05043743 1.11909413 1.20000005
v 0.01539035 1.11021900 1.20000005
v -0.01487604 1.09044492 1.20000005
v -0.03708190 1.06191492 1.20000005
v -0.04882088 1.02772045 1.20000005
v -0.04882088 0.99156702 1.20000005
v -0.03708190 0.95737255 1.20000005
v -0.01487604 0.92884248 1.20000005
v 0.01539035 0.90906847 1.20000005
v 0.05043743 0.90019333 1.20000005
v 0.08646732 0.90317881 1.20000005
v 0.11957560 0.91770148 1.20000005
v 0.14617451 0.94218749 1.20000005
v 0.16338161 0.97398341 1.20000005
v 0.44225988 0.14392395 0.30000001
v 0.48109612 0.12618802 0.30000001
v 0.51336241 0.09822911 0.30000001
v 0.53644478 0.06231225 0.30000001
v 0.54847324 0.02134723 0.30000001
v 0.54847324 -0.02134723 0.30000001
v 0.53644478 -0.06231225 0.30000001
v 0.51336241 -0.09822911 0.30000001
v 0.48109612 -0.12618802 0.30000001
v 0.44225988 -0.14392395 0.30000001
v 0.44225988 -0.14392395 0.60000002
v 0.48109612 -0.12618802 0.60000002
v 0.51336241 -0.09822911 0.60000002
v 0.53644478 -0.06231225 0.60000002
v 0.54847324 -0.02134723 0.60000002
v 0.54847324 0.02134723 0.60000002
v 0.53644478 0.06231225 0.60000002
v 0.51336241 0.09822911 0.60000002
v 0.48109612 0.12618802 0.60000002
v 0.44225988 0.14392395 0.60000002
v 0.16933225 1.00964367 0.60000002
v 0.16338161 1.04530394 0.60000002
v 0.14617451 1.07709992 0.60000002
v 0.11957560 1.10158598 0.60000002
v 0.08646732 1.11610854 0.60000002
v 0.05043743 1.11909413 0.60000002
v 0.01539035 1.11021900 0.60000002
v -0.01487604 1.09044492 0.60000002
v -0.03708190 1.06191492 0.60000002
v -0.04882088 1.02772045 0.60000002
v -0.04882088 0.99156702 0.60000002
v -0.03708190 0.95737255 0.60000002
v -0.01487604 0.92884248 0.60000002
v 0.01539035 0.90906847 0.60000002
v 0.05043743 0.90019333 0.60000002
v 0.08646732 0.90317881 0.60000002
v 0.11957560 0.91770148 0.60000002
v 0.14617451 0.94218749 0.60000002
v 0.16338161 0.97398341 0.60000002
v 0.45197791 -0.24453691 0.30000001
v 0.50168419 -0.22838636 0.30000001
v 0.54694629 -0.20225425 0.30000001
v 0.58578622 -0.16728266 0.30000001
v 0.61650634 -0.12500000 0.30000001
v 0.63776416 -0.07725425 0.30000001
v 0.64863050 -0.02613212 0.30000001
v 0.64863050 0.02613212 0.30000001
v 0.63776416 0.07725425 0.30000001
v 0.61650634 0.12500000 0.30000001
v 0.58578622 0.16728266 0.30000001
v 0.54694629 0.20225425 0.30000001
v 0.50168419 0.22838636 0.30000001
v 0.45197791 0.24453691 0.30000001
f 2 52 1
f 1 52 27
f 1 27 26
f 26 27 28
f 26 28 25
f 25 28 29
f 25 29 24
f 24 29 30
f 24 30 23
f 23 30 31
f 23 31 22
f 22 31 32
f 22 32 21
f 21 32 33
f 21 33 20
f 20 33 34
f 20 34 19
f 19 34 35
f 19 35 18
f 18 35 36
f 18 36 17
f 17 36 37
f 17 37 16
f 16 37 38
f 16 38 15
f 15 38 39
f 15 39 14
f 14 39 40
f 14 40 13
f 13 40 41
f 13 41 12
f 12 41 42
f 12 42 11
f 11 42 43
f 11 43 10
f 10 43 44
f 10 44 9
f 9 44 45
f 9 45 8
f 8 45 46
f 8 46 7
f 7 46 47
f 7 47 6
f 6 47 48
f 6 48 5
f 5 48 49
f 5 49 4
f 4 49 50
f 4 50 3
f 3 50 51
f 3 51 2
f 2 51 52
f 26 15 1
f 1 15 14
f 1 14 2
f 2 14 13
f 2 13 3
f 3 13 12
f 3 12 4
f 4 12 11
f 4 11 5
f 5 11 10
f 5 10 6
f 6 10 9
f 6 9 7
f 7 9 8
f 15 26 16
f 16 26 25
f 16 25 17
f 17 25 24
f 17 24 18
f 18 24 23
f 18 23 19
f 19 23 22
f 19 22 20
f 20 22 21
f 53 54 56
f 56 54 55
f 58 100 57
f 57 100 79
f 57 79 78
f 78 79 80
f 78 80 77
f 77 80 81
f 77 81 76
f 76 81 82
f 76 82 75
f 75 82 83
f 75 83 74
f 74 83 84
f 74 84 73
f 73 84 85
f 73 85 72
f 72 85 86
f 72 86 71
f 71 86 87
f 71 87 70
f 70 87 88
f 70 88 69
f 69 88 89
f 69 89 68
f 68 89 90
f 68 90 67
f 67 90 91
f 67 91 66
f 66 91 92
f 66 92 65
f 65 92 93
f 65 93 64
f 64 93 94
f 64 94 63
f 63 94 95
f 63 95 62
f 62 95 96
f 62 96 61
f 61 96 97
f 61 97 60
f 60 97 98
f 60 98 59
f 59 98 99
f 59 99 58
f 58 99 100
f 101 102 105
f 105 102 103
f 105 103 104
f 107 149 106
f 106 149 128
f 106 128 127
f 127 128 129
f 127 129 126
f 126 129 130
f 126 130 125
f 125 130 131
f 125 131 124
f 124 131 132
f 124 132 123
f 123 132 133
f 123 133 122
f 122 133 134
f 122 134 121
f 121 134 135
f 121 135 120
f 120 135 136
f 120 136 119
f 119 136 137
f 119 137 118
f 118 137 138
f 118 138 117
f 117 138 139
f 117 139 116
f 116 139 140
f 116 140 115
f 115 140 141
f 115 141 114
f 114 141 142
f 114 142 113
f 113 142 143
f 113 143 112
f 112 143 144
f 112 144 111
f 111 144 145
f 111 145 110
f 110 145 146
f 110 146 109
f 109 146 147
f 109 147 108
f 108 147 148
f 108 148 107
f 107 148 149
f 150 151 153
f 153 151 152
f 155 197 154
f 154 197 176
f 154 176 175
f 175 176 177
f 175 177 174
f 174 177 178
f 174 178 173
f 173 178 179
f 173 179 172
f 172 179 180
f 172 180 171
f 171 180 181
f 171 181 170
f 170 181 182
f 170 182 169
f 169 182 183
f 169 183 168
f 168 183 184
f 168 184 167
f 167 184 185
f 167 185 166
f 166 185 186
f 166 186 165
f 165 186 187
f 165 187 164
f 164 187 188
f 164 188 163
f 163 188 189
f 163 189 162
f 162 189 190
f 162 190 161
f 161 190 191
f 161 191 160
f 160 191 192
f 160 192 159
f 159 192 193
f 159 193 158
f 158 193 194
f 158 194 157
f 157 194 195
f 157 195 156
f 156 195 196
f 156 196 155
f 155 196 197
f 198 199 201
f 201 199 200
f 203 151 202
f 202 151 150
f 202 150 230
f 230 150 229
f 229 150 127
f 229 127 126
f 203 204 151
f 151 204 155
f 151 155 154
f 155 204 156
f 156 204 205
f 156 205 206
f 156 206 157
f 157 206 207
f 157 207 158
f 158 207 208
f 158 208 159
f 159 208 209
f 159 209 160
f 160 209 210
f 160 210 161
f 161 210 211
f 161 211 162
f 162 211 212
f 162 212 163
f 163 212 213
f 163 213 164
f 164 213 252
f 164 252 165
f 165 252 231
f 165 231 166
f 166 231 232
f 166 232 167
f 167 232 233
f 167 233 168
f 168 233 234
f 168 234 169
f 169 234 235
f 169 235 151
f 151 235 198
f 198 235 236
f 198 236 237
f 252 213 251
f 251 213 214
f 251 214 250
f 250 214 215
f 250 215 249
f 249 215 216
f 249 216 248
f 248 216 217
f 248 217 74
f 74 217 75
f 75 217 218
f 75 218 76
f 76 218 219
f 76 219 77
f 77 219 220
f 77 220 78
f 78 220 118
f 78 118 57
f 57 118 117
f 57 117 58
f 58 117 116
f 58 116 59
f 59 116 115
f 59 115 60
f 60 115 114
f 60 114 61
f 61 114 113
f 61 113 199
f 199 113 150
f 150 113 112
f 150 112 111
f 118 220 119
f 119 220 221
f 119 221 120
f 120 221 222
f 120 222 121
f 121 222 223
f 121 223 122
f 122 223 224
f 122 224 123
f 123 224 225
f 123 225 124
f 124 225 226
f 124 226 125
f 125 226 227
f 125 227 126
f 126 227 228
f 126 228 229
f 154 175 151
f 151 175 174
f 151 174 173
f 173 172 151
f 151 172 171
f 151 171 170
f 170 169 151
f 107 106 150
f 150 106 127
f 111 110 150
f 150 110 109
f 150 109 108
f 108 107 150
f 237 238 198
f 198 238 239
f 198 239 240
f 240 241 198
f 198 241 242
f 198 242 243
f 244 69 243
f 243 69 199
f 243 199 198
f 69 244 70
f 70 244 245
f 70 245 71
f 71 245 246
f 71 246 72
f 72 246 247
f 72 247 73
f 73 247 248
f 73 248 74
f 69 68 199
f 199 68 67
f 199 67 66
f 66 65 199
f 199 65 64
f 199 64 63
f 63 62 199
f 199 62 61
f 55 54 288
f 288 54 253
f 288 253 287
f 287 253 254
f 287 254 286
f 286 254 255
f 286 255 285
f 285 255 256
f 285 256 284
f 284 256 257
f 284 257 283
f 283 257 258
f 283 258 282
f 282 258 259
f 282 259 281
f 281 259 260
f 281 260 280
f 280 260 261
f 280 261 279
f 279 261 262
f 279 262 278
f 278 262 263
f 278 263 277
f 277 263 264
f 277 264 276
f 276 264 265
f 276 265 275
f 275 265 266
f 275 266 274
f 274 266 267
f 274 267 273
f 273 267 268
f 273 268 272
f 272 268 269
f 272 269 271
f 271 269 270
f 252 310 231
f 231 310 289
f 231 289 232
f 232 289 290
f 232 290 233
f 233 290 291
f 233 291 234
f 234 291 292
f 234 292 235
f 235 292 293
f 235 293 236
f 236 293 294
f 236 294 237
f 237 294 295
f 237 295 238
f 238 295 296
f 238 296 239
f 239 296 297
f 239 297 240
f 240 297 298
f 240 298 241
f 241 298 299
f 241 299 242
f 242 299 300
f 242 300 243
f 243 300 301
f 243 301 244
f 244 301 302
f 244 302 245
f 245 302 303
f 245 303 246
f 246 303 304
f 246 304 247
f 247 304 305
f 247 305 248
f 248 305 306
f 248 306 249
f 249 306 307
f 249 307 250
f 250 307 308
f 250 308 251
f 251 308 309
f 251 309 252
f 252 309 310
f 104 103 344
f 344 103 311
f 344 311 343
f 343 311 312
f 343 312 342
f 342 312 313
f 342 313 341
f 341 313 314
f 341 314 340
f 340 314 315
f 340 315 339
f 339 315 316
f 339 316 338
f 338 316 317
f 338 317 337
f 337 317 318
f 337 318 336
f 336 318 319
f 336 319 335
f 335 319 320
f 335 320 334
f 334 320 321
f 334 321 333
f 333 321 322
f 333 322 332
f 332 322 323
f 332 323 331
f 331 323 324
f 331 324 330
f 330 324 325
f 330 325 329
f 329 325 326
f 329 326 328
f 328 326 327
f 328 327 56
f 56 327 53
f 345 346 271
f 271 346 27
f 271 27 272
f 272 27 52
f 272 52 273
f 273 52 274
f 274 52 51
f 274 51 275
f 275 51 50
f 275 50 276
f 276 50 277
f 277 50 49
f 277 49 278
f 278 49 48
f 278 48 279
f 279 48 47
f 279 47 280
f 280 47 46
f 280 46 281
f 281 46 45
f 281 45 282
f 282 45 44
f 282 44 283
f 283 44 43
f 283 43 284
f 284 43 285
f 285 43 42
f 285 42 286
f 286 42 41
f 286 41 287
f 287 41 288
f 288 41 40
f 288 40 55
f 55 40 39
f 55 39 38
f 27 346 28
f 28 346 347
f 28 347 29
f 29 347 348
f 29 348 30
f 30 348 349
f 30 349 31
f 31 349 350
f 31 350 32
f 32 350 351
f 32 351 33
f 33 351 352
f 33 352 34
f 34 352 353
f 34 353 35
f 35 353 354
f 35 354 56
f 56 354 355
f 56 355 328
f 328 355 329
f 329 355 330
f 330 355 331
f 331 355 332
f 332 355 333
f 333 355 334
f 334 355 335
f 335 355 356
f 335 356 336
f 336 356 337
f 337 356 338
f 338 356 339
f 339 356 357
f 339 357 340
f 340 357 341
f 341 357 342
f 342 357 358
f 342 358 343
f 343 358 344
f 344 358 104
f 104 358 359
f 104 359 105
f 55 37 56
f 56 37 36
f 56 36 35
f 38 37 55
f 151 198 152
f 152 198 201
f 199 150 200
f 200 150 153
f 361 345 360
f 360 345 270
f 270 345 271
f 363 371 362
f 362 371 372
f 362 372 380
f 380 372 373
f 380 373 379
f 379 373 374
f 379 374 378
f 378 374 375
f 378 375 377
f 377 375 376
f 371 363 370
f 370 363 364
f 370 364 369
f 369 364 365
f 369 365 368
f 368 365 366
f 368 366 367
f 102 101 400
f 400 101 381
f 400 381 399
f 399 381 382
f 399 382 398
f 398 382 383
f 398 383 397
f 397 383 384
f 397 384 396
f 396 384 385
f 396 385 395
f 395 385 386
f 395 386 394
f 394 386 387
f 394 387 393
f 393 387 388
f 393 388 392
f 392 388 389
f 392 389 391
f 391 389 390
f 391 390 360
f 360 390 361
f 380 419 362
f 362 419 401
f 362 401 363
f 363 401 402
f 363 402 364
f 364 402 403
f 364 403 365
f 365 403 404
f 365 404 366
f 366 404 405
f 366 405 367
f 367 405 406
f 367 406 368
f 368 406 407
f 368 407 369
f 369 407 408
f 369 408 370
f 370 408 409
f 370 409 371
f 371 409 410
f 371 410 372
f 372 410 411
f 372 411 373
f 373 411 412
f 373 412 374
f 374 412 413
f 374 413 375
f 375 413 414
f 375 414 376
f 376 414 415
f 376 415 377
f 377 415 416
f 377 416 378
f 378 416 417
f 378 417 379
f 379 417 418
f 379 418 380
f 380 418 419
f 230 426 202
f 202 426 427
f 202 427 203
f 203 427 428
f 203 428 204
f 204 428 429
f 204 429 205
f 205 429 430
f 205 430 206
f 206 430 431
f 206 431 207
f 207 431 432
f 207 432 208
f 208 432 433
f 208 433 209
f 209 433 105
f 209 105 210
f 210 105 359
f 210 359 211
f 211 359 358
f 211 358 212
f 212 358 357
f 212 357 213
f 213 357 356
f 213 356 214
f 214 356 355
f 214 355 215
f 215 355 354
f 215 354 216
f 216 354 353
f 216 353 217
f 217 353 352
f 217 352 351
f 426 230 425
f 425 230 229
f 425 229 424
f 424 229 228
f 424 228 423
f 423 228 227
f 423 227 422
f 422 227 226
f 422 226 421
f 421 226 225
f 421 225 420
f 420 225 224
f 420 224 345
f 345 224 223
f 345 223 346
f 346 223 222
f 346 222 347
f 347 222 221
f 347 221 348
f 348 221 220
f 348 220 349
f 349 220 219
f 349 219 350
f 350 219 218
f 350 218 351
f 351 218 217
f 419 187 401
f 401 187 186
f 401 186 402
f 402 186 185
f 402 185 403
f 403 185 184
f 403 184 404
f 404 184 183
f 404 183 405
f 405 183 182
f 405 182 152
f 152 182 181
f 152 181 180
f 187 419 188
f 188 419 418
f 188 418 316
f 316 418 317
f 317 418 417
f 317 417 416
f 317 416 318
f 318 416 415
f 318 415 319
f 319 415 414
f 319 414 413
f 319 413 320
f 320 413 412
f 320 412 321
f 321 412 411
f 321 411 289
f 289 411 290
f 290 411 410
f 290 410 291
f 291 410 409
f 291 409 292
f 292 409 408
f 292 408 293
f 293 408 407
f 293 407 294
f 294 407 201
f 294 201 295
f 295 201 296
f 296 201 297
f 297 201 298
f 298 201 299
f 299 201 300
f 300 201 301
f 301 201 200
f 301 200 89
f 89 200 90
f 90 200 91
f 91 200 92
f 92 200 93
f 93 200 94
f 94 200 95
f 95 200 96
f 96 200 97
f 97 200 153
f 97 153 143
f 143 153 144
f 144 153 145
f 145 153 146
f 146 153 147
f 147 153 148
f 148 153 149
f 149 153 128
f 128 153 129
f 129 153 395
f 129 395 394
f 407 406 201
f 201 406 152
f 152 406 405
f 395 153 396
f 396 153 152
f 396 152 197
f 197 152 176
f 176 152 177
f 177 152 178
f 178 152 179
f 179 152 180
f 102 400 103
f 103 400 399
f 103 399 398
f 397 196 398
f 398 196 195
f 398 195 103
f 103 195 311
f 311 195 194
f 311 194 312
f 312 194 193
f 312 193 192
f 196 397 197
f 197 397 396
f 129 394 130
f 130 394 393
f 130 393 131
f 131 393 270
f 131 270 269
f 393 392 270
f 270 392 391
f 270 391 360
f 131 269 132
f 132 269 268
f 132 268 133
f 133 268 134
f 134 268 267
f 134 267 135
f 135 267 266
f 135 266 136
f 136 266 265
f 136 265 137
f 137 265 264
f 137 264 138
f 138 264 263
f 138 263 139
f 139 263 262
f 139 262 140
f 140 262 261
f 140 261 141
f 141 261 99
f 141 99 142
f 142 99 98
f 142 98 143
f 143 98 97
f 99 261 100
f 100 261 260
f 100 260 79
f 79 260 259
f 79 259 80
f 80 259 258
f 80 258 81
f 81 258 257
f 81 257 82
f 82 257 256
f 82 256 83
f 83 256 255
f 83 255 84
f 84 255 254
f 84 254 85
f 85 254 86
f 86 254 253
f 86 253 87
f 87 253 54
f 87 54 88
f 88 54 53
f 88 53 302
f 302 53 303
f 303 53 327
f 303 327 304
f 304 327 326
f 304 326 305
f 305 326 306
f 306 326 325
f 306 325 307
f 307 325 324
f 307 324 308
f 308 324 323
f 308 323 309
f 309 323 322
f 309 322 310
f 310 322 321
f 310 321 289
f 188 316 189
f 189 316 315
f 189 315 190
f 190 315 314
f 190 314 191
f 191 314 313
f 191 313 192
f 192 313 312
f 301 89 302
f 302 89 88
f 361 390 345
f 345 390 420
f 420 390 389
f 420 389 421
f 421 389 388
f 421 388 422
f 422 388 387
f 422 387 423
f 423 387 424
f 424 387 386
f 424 386 425
f 425 386 426
f 426 386 427
f 427 386 385
f 427 385 428
f 428 385 429
f 429 385 384
f 429 384 430
f 430 384 431
f 431 384 383
f 431 383 432
f 432 383 382
f 432 382 433
f 433 382 381
f 433 381 105
f 105 381 101

